<?xml version='1.0' encoding='utf-8'?>
<mlt LC_NUMERIC="C" producer="main_bin" version="7.14.0" root="/home/xiaoxiae/Documents/Education/Programming/Manim/17-ab">
 <profile frame_rate_num="60" sample_aspect_num="1" display_aspect_den="9" colorspace="709" progressive="1" description="4K UHD 2160p 60 fps" display_aspect_num="16" frame_rate_den="1" width="3840" height="2160" sample_aspect_den="1"/>
 <producer id="producer3" in="00:00:00.000" out="00:02:12.333">
  <property name="length">7941</property>
  <property name="eof">pause</property>
  <property name="resource">audio/music/Slider.wav</property>
  <property name="meta.media.nb_streams">1</property>
  <property name="meta.media.0.stream.type">audio</property>
  <property name="meta.media.0.codec.sample_fmt">s32</property>
  <property name="meta.media.0.codec.sample_rate">48000</property>
  <property name="meta.media.0.codec.channels">2</property>
  <property name="meta.media.0.codec.name">pcm_s24le</property>
  <property name="meta.media.0.codec.long_name">PCM signed 24-bit little-endian</property>
  <property name="meta.media.0.codec.bit_rate">2304000</property>
  <property name="meta.attr.encoded_by.markup">Logic Pro X</property>
  <property name="meta.attr.date.markup">2015-03-15</property>
  <property name="meta.attr.creation_time.markup">14:40:38</property>
  <property name="meta.attr.time_reference.markup">172896000</property>
  <property name="meta.attr.umid.markup">0x007F00003007BF5EFF7F00003007BF5EFF7F00002010BF5EFF7F0000B0CBE799B57F00003652D90101000000B0444B0B010000006008BF5EFF7F00006806460B</property>
  <property name="seekable">1</property>
  <property name="audio_index">0</property>
  <property name="video_index">-1</property>
  <property name="mute_on_pause">1</property>
  <property name="mlt_service">avformat</property>
  <property name="kdenlive:clipname"/>
  <property name="kdenlive:clip_type">1</property>
  <property name="kdenlive:folderid">3</property>
  <property name="kdenlive:id">4</property>
  <property name="kdenlive:file_size">38224656</property>
  <property name="kdenlive:file_hash">208291bd5c25bf9bd4495898992f1bdc</property>
  <property name="kdenlive:audio_max0">240</property>
 </producer>
 <producer id="producer0" in="00:00:00.000" out="00:04:06.350">
  <property name="length">14782</property>
  <property name="eof">pause</property>
  <property name="resource">audio/music/Bodytonic/A Simple Blur/A Simple Blur.wav</property>
  <property name="meta.media.nb_streams">1</property>
  <property name="meta.media.0.stream.type">audio</property>
  <property name="meta.media.0.codec.sample_fmt">s32</property>
  <property name="meta.media.0.codec.sample_rate">44100</property>
  <property name="meta.media.0.codec.channels">2</property>
  <property name="meta.media.0.codec.name">pcm_s24le</property>
  <property name="meta.media.0.codec.long_name">PCM signed 24-bit little-endian</property>
  <property name="meta.media.0.codec.bit_rate">2116800</property>
  <property name="meta.attr.encoded_by.markup">Logic Pro X</property>
  <property name="meta.attr.date.markup">2017-06-08</property>
  <property name="meta.attr.creation_time.markup">12:35:42</property>
  <property name="meta.attr.time_reference.markup">158760000</property>
  <property name="meta.attr.umid.markup">0x00000000000000000000000000000000000000000000000000000000A200AAFA29A23A358059595BFF7F00004694620501000000B051595BFF7F0000ECFE8894</property>
  <property name="seekable">1</property>
  <property name="audio_index">0</property>
  <property name="video_index">-1</property>
  <property name="mute_on_pause">1</property>
  <property name="mlt_service">avformat</property>
  <property name="kdenlive:clipname"/>
  <property name="kdenlive:clip_type">1</property>
  <property name="kdenlive:folderid">6</property>
  <property name="kdenlive:id">7</property>
  <property name="kdenlive:file_size">65188546</property>
  <property name="kdenlive:file_hash">f2aa69291b07ae43a5a1dbce44ef3074</property>
  <property name="kdenlive:audio_max0">220</property>
 </producer>
 <producer id="producer1" in="00:00:00.000" out="00:03:48.850">
  <property name="length">13732</property>
  <property name="eof">pause</property>
  <property name="resource">audio/music/Bodytonic/A Simple Blur/stems/01_A Simple Blur_Rhodia SynPad.wav</property>
  <property name="meta.media.nb_streams">1</property>
  <property name="meta.media.0.stream.type">audio</property>
  <property name="meta.media.0.codec.sample_fmt">s32</property>
  <property name="meta.media.0.codec.sample_rate">44100</property>
  <property name="meta.media.0.codec.channels">2</property>
  <property name="meta.media.0.codec.name">pcm_s24le</property>
  <property name="meta.media.0.codec.long_name">PCM signed 24-bit little-endian</property>
  <property name="meta.media.0.codec.bit_rate">2116800</property>
  <property name="meta.attr.encoded_by.markup">Logic Pro X</property>
  <property name="meta.attr.date.markup">2017-06-08</property>
  <property name="meta.attr.creation_time.markup">12:38:28</property>
  <property name="meta.attr.time_reference.markup">158760000</property>
  <property name="meta.attr.umid.markup">0x00000000000000000000000000000000000000000000000000000000A200AAFA29A23A3530AC595BFF7F0000469462050100000060A4595BFF7F0000ECFE8894</property>
  <property name="seekable">1</property>
  <property name="audio_index">0</property>
  <property name="video_index">-1</property>
  <property name="mute_on_pause">1</property>
  <property name="mlt_service">avformat</property>
  <property name="kdenlive:clipname"/>
  <property name="kdenlive:clip_type">1</property>
  <property name="kdenlive:folderid">8</property>
  <property name="kdenlive:id">9</property>
  <property name="kdenlive:file_size">60639424</property>
  <property name="kdenlive:file_hash">c65736e53f0f200aa62922ce417ee94a</property>
  <property name="kdenlive:audio_max0">103</property>
 </producer>
 <producer id="producer2" in="00:00:00.000" out="00:04:09.667">
  <property name="length">14981</property>
  <property name="eof">pause</property>
  <property name="resource">audio/music/Bodytonic/A Simple Blur/stems/02_A Simple Blur_Rhodia SynPad.wav</property>
  <property name="meta.media.nb_streams">1</property>
  <property name="meta.media.0.stream.type">audio</property>
  <property name="meta.media.0.codec.sample_fmt">s32</property>
  <property name="meta.media.0.codec.sample_rate">44100</property>
  <property name="meta.media.0.codec.channels">2</property>
  <property name="meta.media.0.codec.name">pcm_s24le</property>
  <property name="meta.media.0.codec.long_name">PCM signed 24-bit little-endian</property>
  <property name="meta.media.0.codec.bit_rate">2116800</property>
  <property name="meta.attr.encoded_by.markup">Logic Pro X</property>
  <property name="meta.attr.date.markup">2017-06-08</property>
  <property name="meta.attr.creation_time.markup">12:38:23</property>
  <property name="meta.attr.time_reference.markup">158760000</property>
  <property name="meta.attr.umid.markup">0x00000000000000000000000000000000000000000000000000000000A200AAFA29A23A3530AC595BFF7F0000469462050100000060A4595BFF7F0000ECFE8894</property>
  <property name="seekable">1</property>
  <property name="audio_index">0</property>
  <property name="video_index">-1</property>
  <property name="mute_on_pause">1</property>
  <property name="mlt_service">avformat</property>
  <property name="kdenlive:clipname"/>
  <property name="kdenlive:clip_type">1</property>
  <property name="kdenlive:folderid">8</property>
  <property name="kdenlive:id">10</property>
  <property name="kdenlive:file_size">66151616</property>
  <property name="kdenlive:file_hash">a236409fcd8439c53deb9fc2207cdd49</property>
  <property name="kdenlive:audio_max0">60</property>
 </producer>
 <producer id="producer4" in="00:00:00.000" out="00:03:52.567">
  <property name="length">13955</property>
  <property name="eof">pause</property>
  <property name="resource">audio/music/Bodytonic/A Simple Blur/stems/03_A Simple Blur_Fjoria SynPad.wav</property>
  <property name="meta.media.nb_streams">1</property>
  <property name="meta.media.0.stream.type">audio</property>
  <property name="meta.media.0.codec.sample_fmt">s32</property>
  <property name="meta.media.0.codec.sample_rate">44100</property>
  <property name="meta.media.0.codec.channels">2</property>
  <property name="meta.media.0.codec.name">pcm_s24le</property>
  <property name="meta.media.0.codec.long_name">PCM signed 24-bit little-endian</property>
  <property name="meta.media.0.codec.bit_rate">2116800</property>
  <property name="meta.attr.encoded_by.markup">Logic Pro X</property>
  <property name="meta.attr.date.markup">2017-06-08</property>
  <property name="meta.attr.creation_time.markup">12:38:32</property>
  <property name="meta.attr.time_reference.markup">158760000</property>
  <property name="meta.attr.umid.markup">0x00000000000000000000000000000000000000000000000000000000A200AAFA29A23A3530AC595BFF7F0000469462050100000060A4595BFF7F0000ECFE8894</property>
  <property name="seekable">1</property>
  <property name="audio_index">0</property>
  <property name="video_index">-1</property>
  <property name="mute_on_pause">1</property>
  <property name="mlt_service">avformat</property>
  <property name="kdenlive:clipname"/>
  <property name="kdenlive:clip_type">1</property>
  <property name="kdenlive:folderid">8</property>
  <property name="kdenlive:id">11</property>
  <property name="kdenlive:file_size">61623744</property>
  <property name="kdenlive:file_hash">1f8f7e60a18625e1ccee23eca45d8c95</property>
  <property name="kdenlive:audio_max0">126</property>
 </producer>
 <producer id="producer6" in="00:00:00.000" out="00:02:59.067">
  <property name="length">10745</property>
  <property name="eof">pause</property>
  <property name="resource">audio/music/Bodytonic/A Simple Blur/stems/04_A Simple Blur_Strings.wav</property>
  <property name="meta.media.nb_streams">1</property>
  <property name="meta.media.0.stream.type">audio</property>
  <property name="meta.media.0.codec.sample_fmt">s32</property>
  <property name="meta.media.0.codec.sample_rate">44100</property>
  <property name="meta.media.0.codec.channels">2</property>
  <property name="meta.media.0.codec.name">pcm_s24le</property>
  <property name="meta.media.0.codec.long_name">PCM signed 24-bit little-endian</property>
  <property name="meta.media.0.codec.bit_rate">2116800</property>
  <property name="meta.attr.encoded_by.markup">Logic Pro X</property>
  <property name="meta.attr.date.markup">2017-06-08</property>
  <property name="meta.attr.creation_time.markup">12:38:19</property>
  <property name="meta.attr.time_reference.markup">158760000</property>
  <property name="meta.attr.umid.markup">0x00000000000000000000000000000000000000000000000000000000A200AAFA29A23A3530AC595BFF7F0000469462050100000060A4595BFF7F0000ECFE8894</property>
  <property name="seekable">1</property>
  <property name="audio_index">0</property>
  <property name="video_index">-1</property>
  <property name="mute_on_pause">1</property>
  <property name="mlt_service">avformat</property>
  <property name="kdenlive:clipname"/>
  <property name="kdenlive:clip_type">1</property>
  <property name="kdenlive:folderid">8</property>
  <property name="kdenlive:id">12</property>
  <property name="kdenlive:file_size">47449536</property>
  <property name="kdenlive:file_hash">8e964ae752713ed1cbdc6650eb317343</property>
  <property name="kdenlive:audio_max0">48</property>
 </producer>
 <producer id="producer5" in="00:00:00.000" out="00:04:36.350">
  <property name="length">16582</property>
  <property name="eof">pause</property>
  <property name="resource">audio/music/Bodytonic/A Simple Blur/variations/A Simple Blur | Alternate Take.wav</property>
  <property name="meta.media.nb_streams">1</property>
  <property name="meta.media.0.stream.type">audio</property>
  <property name="meta.media.0.codec.sample_fmt">s32</property>
  <property name="meta.media.0.codec.sample_rate">44100</property>
  <property name="meta.media.0.codec.channels">2</property>
  <property name="meta.media.0.codec.name">pcm_s24le</property>
  <property name="meta.media.0.codec.long_name">PCM signed 24-bit little-endian</property>
  <property name="meta.media.0.codec.bit_rate">2116800</property>
  <property name="meta.attr.encoded_by.markup">Logic Pro X</property>
  <property name="meta.attr.date.markup">2017-06-08</property>
  <property name="meta.attr.creation_time.markup">12:45:30</property>
  <property name="meta.attr.time_reference.markup">158760000</property>
  <property name="meta.attr.umid.markup">0x00000000000000000000000000000000000000000000000000000000A200AAFA29A23A358059595BFF7F00004694620501000000B051595BFF7F0000ECFE8894</property>
  <property name="seekable">1</property>
  <property name="audio_index">0</property>
  <property name="video_index">-1</property>
  <property name="mute_on_pause">1</property>
  <property name="mlt_service">avformat</property>
  <property name="kdenlive:clipname"/>
  <property name="kdenlive:clip_type">1</property>
  <property name="kdenlive:folderid">13</property>
  <property name="kdenlive:id">14</property>
  <property name="kdenlive:file_size">73126546</property>
  <property name="kdenlive:file_hash">d88e7c70d1389c067a96465d9cbf7afd</property>
  <property name="kdenlive:audio_max0">245</property>
 </producer>
 <producer id="producer7" in="00:00:00.000" out="00:02:26.800">
  <property name="length">8809</property>
  <property name="eof">pause</property>
  <property name="resource">audio/music/Bodytonic/A Simple Blur/variations/A Simple Blur | Atmo Thick.wav</property>
  <property name="meta.media.nb_streams">1</property>
  <property name="meta.media.0.stream.type">audio</property>
  <property name="meta.media.0.codec.sample_fmt">s32</property>
  <property name="meta.media.0.codec.sample_rate">44100</property>
  <property name="meta.media.0.codec.channels">2</property>
  <property name="meta.media.0.codec.name">pcm_s24le</property>
  <property name="meta.media.0.codec.long_name">PCM signed 24-bit little-endian</property>
  <property name="meta.media.0.codec.bit_rate">2116800</property>
  <property name="meta.attr.encoded_by.markup">Logic Pro X</property>
  <property name="meta.attr.date.markup">2017-06-08</property>
  <property name="meta.attr.creation_time.markup">12:43:49</property>
  <property name="meta.attr.time_reference.markup">158760000</property>
  <property name="meta.attr.umid.markup">0x00000000000000000000000000000000000000000000000000000000A200AAFA29A23A358059595BFF7F00004694620501000000B051595BFF7F0000ECFE8894</property>
  <property name="seekable">1</property>
  <property name="audio_index">0</property>
  <property name="video_index">-1</property>
  <property name="mute_on_pause">1</property>
  <property name="mlt_service">avformat</property>
  <property name="kdenlive:clipname"/>
  <property name="kdenlive:clip_type">1</property>
  <property name="kdenlive:folderid">13</property>
  <property name="kdenlive:id">15</property>
  <property name="kdenlive:file_size">38848822</property>
  <property name="kdenlive:file_hash">9bed652ae2b0750a1b381235991464bf</property>
  <property name="kdenlive:audio_max0">199</property>
 </producer>
 <producer id="producer8" in="00:00:00.000" out="00:04:12.717">
  <property name="length">15164</property>
  <property name="eof">pause</property>
  <property name="resource">audio/music/Bodytonic/A Simple Blur/variations/A Simple Blur | Atmo.wav</property>
  <property name="meta.media.nb_streams">1</property>
  <property name="meta.media.0.stream.type">audio</property>
  <property name="meta.media.0.codec.sample_fmt">s32</property>
  <property name="meta.media.0.codec.sample_rate">44100</property>
  <property name="meta.media.0.codec.channels">2</property>
  <property name="meta.media.0.codec.name">pcm_s24le</property>
  <property name="meta.media.0.codec.long_name">PCM signed 24-bit little-endian</property>
  <property name="meta.media.0.codec.bit_rate">2116800</property>
  <property name="meta.attr.encoded_by.markup">Logic Pro X</property>
  <property name="meta.attr.date.markup">2017-06-08</property>
  <property name="meta.attr.creation_time.markup">12:40:33</property>
  <property name="meta.attr.time_reference.markup">158760000</property>
  <property name="meta.attr.umid.markup">0x00000000000000000000000000000000000000000000000000000000A200AAFA29A23A358059595BFF7F00004694620501000000B051595BFF7F0000ECFE8894</property>
  <property name="seekable">1</property>
  <property name="audio_index">0</property>
  <property name="video_index">-1</property>
  <property name="mute_on_pause">1</property>
  <property name="mlt_service">avformat</property>
  <property name="kdenlive:clipname"/>
  <property name="kdenlive:clip_type">1</property>
  <property name="kdenlive:folderid">13</property>
  <property name="kdenlive:id">16</property>
  <property name="kdenlive:file_size">66872362</property>
  <property name="kdenlive:file_hash">4a4ddfafb6171a33036cb319a5a2a20b</property>
  <property name="kdenlive:audio_max0">196</property>
 </producer>
 <producer id="producer9" in="00:00:00.000" out="00:02:29.533">
  <property name="length">8973</property>
  <property name="eof">pause</property>
  <property name="resource">audio/music/Bodytonic/A Simple Blur/variations/A Simple Blur | Bass Solo.wav</property>
  <property name="meta.media.nb_streams">1</property>
  <property name="meta.media.0.stream.type">audio</property>
  <property name="meta.media.0.codec.sample_fmt">s32</property>
  <property name="meta.media.0.codec.sample_rate">44100</property>
  <property name="meta.media.0.codec.channels">2</property>
  <property name="meta.media.0.codec.name">pcm_s24le</property>
  <property name="meta.media.0.codec.long_name">PCM signed 24-bit little-endian</property>
  <property name="meta.media.0.codec.bit_rate">2116800</property>
  <property name="meta.attr.encoded_by.markup">Logic Pro X</property>
  <property name="meta.attr.date.markup">2017-06-08</property>
  <property name="meta.attr.creation_time.markup">12:39:30</property>
  <property name="meta.attr.time_reference.markup">158760000</property>
  <property name="meta.attr.umid.markup">0x00000000000000000000000000000000000000000000000000000000A200AAFA29A23A358059595BFF7F00004694620501000000B051595BFF7F0000ECFE8894</property>
  <property name="seekable">1</property>
  <property name="audio_index">0</property>
  <property name="video_index">-1</property>
  <property name="mute_on_pause">1</property>
  <property name="mlt_service">avformat</property>
  <property name="kdenlive:clipname"/>
  <property name="kdenlive:clip_type">1</property>
  <property name="kdenlive:folderid">13</property>
  <property name="kdenlive:id">17</property>
  <property name="kdenlive:file_size">39570454</property>
  <property name="kdenlive:file_hash">b73a7a78bd3d8a86717eb670d5567ae2</property>
  <property name="kdenlive:audio_max0">245</property>
 </producer>
 <producer id="producer10" in="00:00:00.000" out="00:03:59.983">
  <property name="length">14400</property>
  <property name="eof">pause</property>
  <property name="resource">audio/music/Bodytonic/A Simple Blur/variations/A Simple Blur | Darker.wav</property>
  <property name="meta.media.nb_streams">1</property>
  <property name="meta.media.0.stream.type">audio</property>
  <property name="meta.media.0.codec.sample_fmt">s32</property>
  <property name="meta.media.0.codec.sample_rate">44100</property>
  <property name="meta.media.0.codec.channels">2</property>
  <property name="meta.media.0.codec.name">pcm_s24le</property>
  <property name="meta.media.0.codec.long_name">PCM signed 24-bit little-endian</property>
  <property name="meta.media.0.codec.bit_rate">2116800</property>
  <property name="meta.attr.encoded_by.markup">Logic Pro X</property>
  <property name="meta.attr.date.markup">2017-06-08</property>
  <property name="meta.attr.creation_time.markup">12:48:14</property>
  <property name="meta.attr.time_reference.markup">158760000</property>
  <property name="meta.attr.umid.markup">0x00000000000000000000000000000000000000000000000000000000A200AAFA29A23A358059595BFF7F00004694620501000000B051595BFF7F0000ECFE8894</property>
  <property name="seekable">1</property>
  <property name="audio_index">0</property>
  <property name="video_index">-1</property>
  <property name="mute_on_pause">1</property>
  <property name="mlt_service">avformat</property>
  <property name="kdenlive:clipname"/>
  <property name="kdenlive:clip_type">1</property>
  <property name="kdenlive:folderid">13</property>
  <property name="kdenlive:id">18</property>
  <property name="kdenlive:file_size">63504730</property>
  <property name="kdenlive:file_hash">ec62503abc51cbf789b937e3956dbd96</property>
  <property name="kdenlive:audio_max0">223</property>
 </producer>
 <producer id="producer11" in="00:00:00.000" out="00:01:30.617">
  <property name="length">5438</property>
  <property name="eof">pause</property>
  <property name="resource">audio/music/Bodytonic/A Simple Blur/variations/A Simple Blur | Piano Solo.wav</property>
  <property name="meta.media.nb_streams">1</property>
  <property name="meta.media.0.stream.type">audio</property>
  <property name="meta.media.0.codec.sample_fmt">s32</property>
  <property name="meta.media.0.codec.sample_rate">44100</property>
  <property name="meta.media.0.codec.channels">2</property>
  <property name="meta.media.0.codec.name">pcm_s24le</property>
  <property name="meta.media.0.codec.long_name">PCM signed 24-bit little-endian</property>
  <property name="meta.media.0.codec.bit_rate">2116800</property>
  <property name="meta.attr.encoded_by.markup">Logic Pro X</property>
  <property name="meta.attr.date.markup">2017-06-08</property>
  <property name="meta.attr.creation_time.markup">12:41:45</property>
  <property name="meta.attr.time_reference.markup">160899226</property>
  <property name="meta.attr.umid.markup">0x00000000000000000000000000000000000000000000000000000000A200AAFA29A23A358059595BFF7F00004694620501000000B051595BFF7F0000ECFE8894</property>
  <property name="seekable">1</property>
  <property name="audio_index">0</property>
  <property name="video_index">-1</property>
  <property name="mute_on_pause">1</property>
  <property name="mlt_service">avformat</property>
  <property name="kdenlive:clipname"/>
  <property name="kdenlive:clip_type">1</property>
  <property name="kdenlive:folderid">13</property>
  <property name="kdenlive:id">19</property>
  <property name="kdenlive:file_size">23980606</property>
  <property name="kdenlive:file_hash">ba7ff8c453466c1a6b83f3c32c180006</property>
  <property name="kdenlive:audio_max0">217</property>
 </producer>
 <producer id="producer12" in="00:00:00.000" out="00:01:09.983">
  <property name="length">4200</property>
  <property name="eof">pause</property>
  <property name="resource">audio/music/Bodytonic/A Simple Blur/variations/A Simple Blur | Shorter.wav</property>
  <property name="meta.media.nb_streams">1</property>
  <property name="meta.media.0.stream.type">audio</property>
  <property name="meta.media.0.codec.sample_fmt">s32</property>
  <property name="meta.media.0.codec.sample_rate">44100</property>
  <property name="meta.media.0.codec.channels">2</property>
  <property name="meta.media.0.codec.name">pcm_s24le</property>
  <property name="meta.media.0.codec.long_name">PCM signed 24-bit little-endian</property>
  <property name="meta.media.0.codec.bit_rate">2116800</property>
  <property name="meta.attr.encoded_by.markup">Logic Pro X</property>
  <property name="meta.attr.date.markup">2017-06-08</property>
  <property name="meta.attr.creation_time.markup">12:36:50</property>
  <property name="meta.attr.time_reference.markup">166898454</property>
  <property name="meta.attr.umid.markup">0x00000000000000000000000000000000000000000000000000000000A200AAFA29A23A358059595BFF7F00004694620501000000B051595BFF7F0000ECFE8894</property>
  <property name="seekable">1</property>
  <property name="audio_index">0</property>
  <property name="video_index">-1</property>
  <property name="mute_on_pause">1</property>
  <property name="mlt_service">avformat</property>
  <property name="kdenlive:clipname"/>
  <property name="kdenlive:clip_type">1</property>
  <property name="kdenlive:folderid">13</property>
  <property name="kdenlive:id">20</property>
  <property name="kdenlive:file_size">18522730</property>
  <property name="kdenlive:file_hash">647900bd058325bd8067aa46b162120f</property>
  <property name="kdenlive:audio_max0">216</property>
 </producer>
 <producer id="producer13" in="00:00:00.000" out="00:04:00.450">
  <property name="length">14428</property>
  <property name="eof">pause</property>
  <property name="resource">audio/music/Bodytonic/Are We Loose Yet/Are We Loose Yet.wav</property>
  <property name="meta.media.nb_streams">1</property>
  <property name="meta.media.0.stream.type">audio</property>
  <property name="meta.media.0.codec.sample_fmt">s32</property>
  <property name="meta.media.0.codec.sample_rate">44100</property>
  <property name="meta.media.0.codec.channels">2</property>
  <property name="meta.media.0.codec.name">pcm_s24le</property>
  <property name="meta.media.0.codec.long_name">PCM signed 24-bit little-endian</property>
  <property name="meta.media.0.codec.bit_rate">2116800</property>
  <property name="meta.attr.encoded_by.markup">Logic Pro X</property>
  <property name="meta.attr.date.markup">2017-06-15</property>
  <property name="meta.attr.creation_time.markup">15:32:44</property>
  <property name="meta.attr.time_reference.markup">158760000</property>
  <property name="meta.attr.umid.markup">0x000000000000000000000000000000000000000000000000000000002D004DB1F4A48AF980495459FF7F000046A4670701000000B0415459FF7F0000ECAEE6A7</property>
  <property name="seekable">1</property>
  <property name="audio_index">0</property>
  <property name="video_index">-1</property>
  <property name="mute_on_pause">1</property>
  <property name="mlt_service">avformat</property>
  <property name="kdenlive:clipname"/>
  <property name="kdenlive:clip_type">1</property>
  <property name="kdenlive:folderid">21</property>
  <property name="kdenlive:id">22</property>
  <property name="kdenlive:file_size">63630388</property>
  <property name="kdenlive:file_hash">ff3ebf1c463f41a5ce975d44b88fb694</property>
  <property name="kdenlive:audio_max0">237</property>
 </producer>
 <producer id="producer14" in="00:00:00.000" out="00:03:57.767">
  <property name="length">14267</property>
  <property name="eof">pause</property>
  <property name="resource">audio/music/Bodytonic/Are We Loose Yet/stems/01_Are We Loose Yet_Upright Bass.wav</property>
  <property name="meta.media.nb_streams">1</property>
  <property name="meta.media.0.stream.type">audio</property>
  <property name="meta.media.0.codec.sample_fmt">s32</property>
  <property name="meta.media.0.codec.sample_rate">44100</property>
  <property name="meta.media.0.codec.channels">2</property>
  <property name="meta.media.0.codec.name">pcm_s24le</property>
  <property name="meta.media.0.codec.long_name">PCM signed 24-bit little-endian</property>
  <property name="meta.media.0.codec.bit_rate">2116800</property>
  <property name="meta.attr.encoded_by.markup">Logic Pro X</property>
  <property name="meta.attr.date.markup">2017-06-15</property>
  <property name="meta.attr.creation_time.markup">15:34:52</property>
  <property name="meta.attr.time_reference.markup">158760000</property>
  <property name="meta.attr.umid.markup">0x000000000000000000000000000000000000000000000000000000002D004DB1F4A48AF9309C5459FF7F000046A467070100000060945459FF7F0000ECAEE6A7</property>
  <property name="seekable">1</property>
  <property name="audio_index">0</property>
  <property name="video_index">-1</property>
  <property name="mute_on_pause">1</property>
  <property name="mlt_service">avformat</property>
  <property name="kdenlive:clipname"/>
  <property name="kdenlive:clip_type">1</property>
  <property name="kdenlive:folderid">23</property>
  <property name="kdenlive:id">24</property>
  <property name="kdenlive:file_size">63001792</property>
  <property name="kdenlive:file_hash">93a36dc8d3199ef1f61aa1a27b7ae358</property>
  <property name="kdenlive:audio_max0">158</property>
 </producer>
 <producer id="producer16" in="00:00:00.000" out="00:03:57.767">
  <property name="length">14267</property>
  <property name="eof">pause</property>
  <property name="resource">audio/music/Bodytonic/Are We Loose Yet/stems/02_Are We Loose Yet_Piano.wav</property>
  <property name="meta.media.nb_streams">1</property>
  <property name="meta.media.0.stream.type">audio</property>
  <property name="meta.media.0.codec.sample_fmt">s32</property>
  <property name="meta.media.0.codec.sample_rate">44100</property>
  <property name="meta.media.0.codec.channels">2</property>
  <property name="meta.media.0.codec.name">pcm_s24le</property>
  <property name="meta.media.0.codec.long_name">PCM signed 24-bit little-endian</property>
  <property name="meta.media.0.codec.bit_rate">2116800</property>
  <property name="meta.attr.encoded_by.markup">Logic Pro X</property>
  <property name="meta.attr.date.markup">2017-06-15</property>
  <property name="meta.attr.creation_time.markup">15:34:56</property>
  <property name="meta.attr.time_reference.markup">158760000</property>
  <property name="meta.attr.umid.markup">0x000000000000000000000000000000000000000000000000000000002D004DB1F4A48AF9309C5459FF7F000046A467070100000060945459FF7F0000ECAEE6A7</property>
  <property name="seekable">1</property>
  <property name="audio_index">0</property>
  <property name="video_index">-1</property>
  <property name="mute_on_pause">1</property>
  <property name="mlt_service">avformat</property>
  <property name="kdenlive:clipname"/>
  <property name="kdenlive:clip_type">1</property>
  <property name="kdenlive:folderid">23</property>
  <property name="kdenlive:id">25</property>
  <property name="kdenlive:file_size">63001792</property>
  <property name="kdenlive:file_hash">06d4014a8deb1cd03d96ebcb4675b0fc</property>
  <property name="kdenlive:audio_max0">97</property>
 </producer>
 <producer id="producer15" in="00:00:00.000" out="00:03:54.800">
  <property name="length">14089</property>
  <property name="eof">pause</property>
  <property name="resource">audio/music/Bodytonic/Are We Loose Yet/stems/03_Are We Loose Yet_Marimba.wav</property>
  <property name="meta.media.nb_streams">1</property>
  <property name="meta.media.0.stream.type">audio</property>
  <property name="meta.media.0.codec.sample_fmt">s32</property>
  <property name="meta.media.0.codec.sample_rate">44100</property>
  <property name="meta.media.0.codec.channels">2</property>
  <property name="meta.media.0.codec.name">pcm_s24le</property>
  <property name="meta.media.0.codec.long_name">PCM signed 24-bit little-endian</property>
  <property name="meta.media.0.codec.bit_rate">2116800</property>
  <property name="meta.attr.encoded_by.markup">Logic Pro X</property>
  <property name="meta.attr.date.markup">2017-06-15</property>
  <property name="meta.attr.creation_time.markup">15:35:01</property>
  <property name="meta.attr.time_reference.markup">158760000</property>
  <property name="meta.attr.umid.markup">0x000000000000000000000000000000000000000000000000000000002D004DB1F4A48AF9309C5459FF7F000046A467070100000060945459FF7F0000ECAEE6A7</property>
  <property name="seekable">1</property>
  <property name="audio_index">0</property>
  <property name="video_index">-1</property>
  <property name="mute_on_pause">1</property>
  <property name="mlt_service">avformat</property>
  <property name="kdenlive:clipname"/>
  <property name="kdenlive:clip_type">1</property>
  <property name="kdenlive:folderid">23</property>
  <property name="kdenlive:id">26</property>
  <property name="kdenlive:file_size">62214336</property>
  <property name="kdenlive:file_hash">e6882763581d12fb0f52aadd5e38c77c</property>
  <property name="kdenlive:audio_max0">105</property>
 </producer>
 <producer id="producer18" in="00:00:00.000" out="00:03:53.317">
  <property name="length">14000</property>
  <property name="eof">pause</property>
  <property name="resource">audio/music/Bodytonic/Are We Loose Yet/stems/04_Are We Loose Yet_Found Percussion.wav</property>
  <property name="meta.media.nb_streams">1</property>
  <property name="meta.media.0.stream.type">audio</property>
  <property name="meta.media.0.codec.sample_fmt">s32</property>
  <property name="meta.media.0.codec.sample_rate">44100</property>
  <property name="meta.media.0.codec.channels">2</property>
  <property name="meta.media.0.codec.name">pcm_s24le</property>
  <property name="meta.media.0.codec.long_name">PCM signed 24-bit little-endian</property>
  <property name="meta.media.0.codec.bit_rate">2116800</property>
  <property name="meta.attr.encoded_by.markup">Logic Pro X</property>
  <property name="meta.attr.date.markup">2017-06-15</property>
  <property name="meta.attr.creation_time.markup">15:34:47</property>
  <property name="meta.attr.time_reference.markup">158760000</property>
  <property name="meta.attr.umid.markup">0x000000000000000000000000000000000000000000000000000000002D004DB1F4A48AF9309C5459FF7F000046A467070100000060945459FF7F0000ECAEE6A7</property>
  <property name="seekable">1</property>
  <property name="audio_index">0</property>
  <property name="video_index">-1</property>
  <property name="mute_on_pause">1</property>
  <property name="mlt_service">avformat</property>
  <property name="kdenlive:clipname"/>
  <property name="kdenlive:clip_type">1</property>
  <property name="kdenlive:folderid">23</property>
  <property name="kdenlive:id">27</property>
  <property name="kdenlive:file_size">61820608</property>
  <property name="kdenlive:file_hash">62a8fbc953a58edef23d531578783b6f</property>
  <property name="kdenlive:audio_max0">171</property>
 </producer>
 <producer id="producer19" in="00:00:00.000" out="00:00:19.983">
  <property name="length">1200</property>
  <property name="eof">pause</property>
  <property name="resource">audio/music/Bodytonic/Are We Loose Yet/variations/Are We Loose Yet | 30 Sec.wav</property>
  <property name="meta.media.nb_streams">1</property>
  <property name="meta.media.0.stream.type">audio</property>
  <property name="meta.media.0.codec.sample_fmt">s32</property>
  <property name="meta.media.0.codec.sample_rate">44100</property>
  <property name="meta.media.0.codec.channels">2</property>
  <property name="meta.media.0.codec.name">pcm_s24le</property>
  <property name="meta.media.0.codec.long_name">PCM signed 24-bit little-endian</property>
  <property name="meta.media.0.codec.bit_rate">2116800</property>
  <property name="meta.attr.encoded_by.markup">Logic Pro X</property>
  <property name="meta.attr.date.markup">2017-06-15</property>
  <property name="meta.attr.creation_time.markup">15:37:02</property>
  <property name="meta.attr.time_reference.markup">168381818</property>
  <property name="meta.attr.umid.markup">0x000000000000000000000000000000000000000000000000000000002D004DB1F4A48AF980495459FF7F000046A4670701000000B0415459FF7F0000ECAEE6A7</property>
  <property name="seekable">1</property>
  <property name="audio_index">0</property>
  <property name="video_index">-1</property>
  <property name="mute_on_pause">1</property>
  <property name="mlt_service">avformat</property>
  <property name="kdenlive:clipname"/>
  <property name="kdenlive:clip_type">1</property>
  <property name="kdenlive:folderid">28</property>
  <property name="kdenlive:id">29</property>
  <property name="kdenlive:file_size">5292730</property>
  <property name="kdenlive:file_hash">d34688d51726f5a15ade85a342eb0ae4</property>
  <property name="kdenlive:audio_max0">228</property>
 </producer>
 <producer id="producer17" in="00:00:00.000" out="00:01:07.250">
  <property name="length">4036</property>
  <property name="eof">pause</property>
  <property name="resource">audio/music/Bodytonic/Are We Loose Yet/variations/Are We Loose Yet | A Short Oddity.wav</property>
  <property name="meta.media.nb_streams">1</property>
  <property name="meta.media.0.stream.type">audio</property>
  <property name="meta.media.0.codec.sample_fmt">s32</property>
  <property name="meta.media.0.codec.sample_rate">44100</property>
  <property name="meta.media.0.codec.channels">2</property>
  <property name="meta.media.0.codec.name">pcm_s24le</property>
  <property name="meta.media.0.codec.long_name">PCM signed 24-bit little-endian</property>
  <property name="meta.media.0.codec.bit_rate">2116800</property>
  <property name="meta.attr.encoded_by.markup">Logic Pro X</property>
  <property name="meta.attr.date.markup">2017-06-15</property>
  <property name="meta.attr.creation_time.markup">15:43:50</property>
  <property name="meta.attr.time_reference.markup">164533091</property>
  <property name="meta.attr.umid.markup">0x000000000000000000000000000000000000000000000000000000002D004DB1F4A48AF980495459FF7F000046A4670701000000B0415459FF7F0000ECAEE6A7</property>
  <property name="seekable">1</property>
  <property name="audio_index">0</property>
  <property name="video_index">-1</property>
  <property name="mute_on_pause">1</property>
  <property name="mlt_service">avformat</property>
  <property name="kdenlive:clipname"/>
  <property name="kdenlive:clip_type">1</property>
  <property name="kdenlive:folderid">28</property>
  <property name="kdenlive:id">30</property>
  <property name="kdenlive:file_size">17801092</property>
  <property name="kdenlive:file_hash">158cc7099bbd31122f09ba9a4e1312df</property>
  <property name="kdenlive:audio_max0">237</property>
 </producer>
 <producer id="producer20" in="00:00:00.000" out="00:03:23.600">
  <property name="length">12217</property>
  <property name="eof">pause</property>
  <property name="resource">audio/music/Bodytonic/Are We Loose Yet/variations/Are We Loose Yet | All Piano.wav</property>
  <property name="meta.media.nb_streams">1</property>
  <property name="meta.media.0.stream.type">audio</property>
  <property name="meta.media.0.codec.sample_fmt">s32</property>
  <property name="meta.media.0.codec.sample_rate">44100</property>
  <property name="meta.media.0.codec.channels">2</property>
  <property name="meta.media.0.codec.name">pcm_s24le</property>
  <property name="meta.media.0.codec.long_name">PCM signed 24-bit little-endian</property>
  <property name="meta.media.0.codec.bit_rate">2116800</property>
  <property name="meta.attr.encoded_by.markup">Logic Pro X</property>
  <property name="meta.attr.date.markup">2017-06-15</property>
  <property name="meta.attr.creation_time.markup">15:41:25</property>
  <property name="meta.attr.time_reference.markup">160744500</property>
  <property name="meta.attr.umid.markup">0x000000000000000000000000000000000000000000000000000000002D004DB1F4A48AF980495459FF7F000046A4670701000000B0415459FF7F0000ECAEE6A7</property>
  <property name="seekable">1</property>
  <property name="audio_index">0</property>
  <property name="video_index">-1</property>
  <property name="mute_on_pause">1</property>
  <property name="mlt_service">avformat</property>
  <property name="kdenlive:clipname"/>
  <property name="kdenlive:clip_type">1</property>
  <property name="kdenlive:folderid">28</property>
  <property name="kdenlive:id">31</property>
  <property name="kdenlive:file_size">53878222</property>
  <property name="kdenlive:file_hash">1f1ccfec9a8cb0b6207d5c7b46541454</property>
  <property name="kdenlive:audio_max0">237</property>
 </producer>
 <producer id="producer21" in="00:00:00.000" out="00:03:16.350">
  <property name="length">11782</property>
  <property name="eof">pause</property>
  <property name="resource">audio/music/Bodytonic/Are We Loose Yet/variations/Are We Loose Yet | Piano Leader.wav</property>
  <property name="meta.media.nb_streams">1</property>
  <property name="meta.media.0.stream.type">audio</property>
  <property name="meta.media.0.codec.sample_fmt">s32</property>
  <property name="meta.media.0.codec.sample_rate">44100</property>
  <property name="meta.media.0.codec.channels">2</property>
  <property name="meta.media.0.codec.name">pcm_s24le</property>
  <property name="meta.media.0.codec.long_name">PCM signed 24-bit little-endian</property>
  <property name="meta.media.0.codec.bit_rate">2116800</property>
  <property name="meta.attr.encoded_by.markup">Logic Pro X</property>
  <property name="meta.attr.date.markup">2017-06-15</property>
  <property name="meta.attr.creation_time.markup">15:38:17</property>
  <property name="meta.attr.time_reference.markup">160684363</property>
  <property name="meta.attr.umid.markup">0x000000000000000000000000000000000000000000000000000000002D004DB1F4A48AF980495459FF7F000046A4670701000000B0415459FF7F0000ECAEE6A7</property>
  <property name="seekable">1</property>
  <property name="audio_index">0</property>
  <property name="video_index">-1</property>
  <property name="mute_on_pause">1</property>
  <property name="mlt_service">avformat</property>
  <property name="kdenlive:clipname"/>
  <property name="kdenlive:clip_type">1</property>
  <property name="kdenlive:folderid">28</property>
  <property name="kdenlive:id">32</property>
  <property name="kdenlive:file_size">51958552</property>
  <property name="kdenlive:file_hash">4b7f3ed0b3b2cc6ea54aaa885612324e</property>
  <property name="kdenlive:audio_max0">236</property>
 </producer>
 <producer id="producer22" in="00:00:00.000" out="00:00:38.167">
  <property name="length">2291</property>
  <property name="eof">pause</property>
  <property name="resource">audio/music/Bodytonic/Are We Loose Yet/variations/Are We Loose Yet | Short Form.wav</property>
  <property name="meta.media.nb_streams">1</property>
  <property name="meta.media.0.stream.type">audio</property>
  <property name="meta.media.0.codec.sample_fmt">s32</property>
  <property name="meta.media.0.codec.sample_rate">44100</property>
  <property name="meta.media.0.codec.channels">2</property>
  <property name="meta.media.0.codec.name">pcm_s24le</property>
  <property name="meta.media.0.codec.long_name">PCM signed 24-bit little-endian</property>
  <property name="meta.media.0.codec.bit_rate">2116800</property>
  <property name="meta.attr.encoded_by.markup">Logic Pro X</property>
  <property name="meta.attr.date.markup">2017-06-15</property>
  <property name="meta.attr.creation_time.markup">15:35:44</property>
  <property name="meta.attr.time_reference.markup">167740363</property>
  <property name="meta.attr.umid.markup">0x000000000000000000000000000000000000000000000000000000002D004DB1F4A48AF980495459FF7F000046A4670701000000B0415459FF7F0000ECAEE6A7</property>
  <property name="seekable">1</property>
  <property name="audio_index">0</property>
  <property name="video_index">-1</property>
  <property name="mute_on_pause">1</property>
  <property name="mlt_service">avformat</property>
  <property name="kdenlive:clipname"/>
  <property name="kdenlive:clip_type">1</property>
  <property name="kdenlive:folderid">28</property>
  <property name="kdenlive:id">33</property>
  <property name="kdenlive:file_size">10103644</property>
  <property name="kdenlive:file_hash">d12ec1f71caaff5e73715488b623ad41</property>
  <property name="kdenlive:audio_max0">232</property>
 </producer>
 <producer id="producer23" in="00:00:00.000" out="00:02:43.333">
  <property name="length">9801</property>
  <property name="eof">pause</property>
  <property name="resource">audio/music/Bodytonic/Astrisx/Astrisx.wav</property>
  <property name="meta.media.nb_streams">1</property>
  <property name="meta.media.0.stream.type">audio</property>
  <property name="meta.media.0.codec.sample_fmt">s32</property>
  <property name="meta.media.0.codec.sample_rate">44100</property>
  <property name="meta.media.0.codec.channels">2</property>
  <property name="meta.media.0.codec.name">pcm_s24le</property>
  <property name="meta.media.0.codec.long_name">PCM signed 24-bit little-endian</property>
  <property name="meta.media.0.codec.bit_rate">2116800</property>
  <property name="meta.attr.encoded_by.markup">Logic Pro X</property>
  <property name="meta.attr.date.markup">2017-06-15</property>
  <property name="meta.attr.creation_time.markup">14:52:13</property>
  <property name="meta.attr.time_reference.markup">158760000</property>
  <property name="meta.attr.umid.markup">0x000000000000000000000000000000000000000000000000000000002D004DB1F4A48AF980495459FF7F000046A4670701000000B0415459FF7F0000ECAEE6A7</property>
  <property name="seekable">1</property>
  <property name="audio_index">0</property>
  <property name="video_index">-1</property>
  <property name="mute_on_pause">1</property>
  <property name="mlt_service">avformat</property>
  <property name="kdenlive:clipname"/>
  <property name="kdenlive:clip_type">1</property>
  <property name="kdenlive:folderid">34</property>
  <property name="kdenlive:id">35</property>
  <property name="kdenlive:file_size">43223158</property>
  <property name="kdenlive:file_hash">958b960aedf368e0ab7d1f07c7443d5d</property>
  <property name="kdenlive:audio_max0">246</property>
 </producer>
 <producer id="producer24" in="00:00:00.000" out="00:02:40.500">
  <property name="length">9631</property>
  <property name="eof">pause</property>
  <property name="resource">audio/music/Bodytonic/Astrisx/stems/01_Astrisx_Upright Bass.wav</property>
  <property name="meta.media.nb_streams">1</property>
  <property name="meta.media.0.stream.type">audio</property>
  <property name="meta.media.0.codec.sample_fmt">s32</property>
  <property name="meta.media.0.codec.sample_rate">44100</property>
  <property name="meta.media.0.codec.channels">2</property>
  <property name="meta.media.0.codec.name">pcm_s24le</property>
  <property name="meta.media.0.codec.long_name">PCM signed 24-bit little-endian</property>
  <property name="meta.media.0.codec.bit_rate">2116800</property>
  <property name="meta.attr.encoded_by.markup">Logic Pro X</property>
  <property name="meta.attr.date.markup">2017-06-15</property>
  <property name="meta.attr.creation_time.markup">14:54:57</property>
  <property name="meta.attr.time_reference.markup">158760000</property>
  <property name="meta.attr.umid.markup">0x000000000000000000000000000000000000000000000000000000002D004DB1F4A48AF9309C5459FF7F000046A467070100000060945459FF7F0000ECAEE6A7</property>
  <property name="seekable">1</property>
  <property name="audio_index">0</property>
  <property name="video_index">-1</property>
  <property name="mute_on_pause">1</property>
  <property name="mlt_service">avformat</property>
  <property name="kdenlive:clipname"/>
  <property name="kdenlive:clip_type">1</property>
  <property name="kdenlive:folderid">36</property>
  <property name="kdenlive:id">37</property>
  <property name="kdenlive:file_size">42529700</property>
  <property name="kdenlive:file_hash">3782e550821de8ae540f9a6e4de9e3cd</property>
  <property name="kdenlive:audio_max0">196</property>
 </producer>
 <producer id="producer25" in="00:00:00.000" out="00:02:39.017">
  <property name="length">9542</property>
  <property name="eof">pause</property>
  <property name="resource">audio/music/Bodytonic/Astrisx/stems/02_Astrisx_Piano.wav</property>
  <property name="meta.media.nb_streams">1</property>
  <property name="meta.media.0.stream.type">audio</property>
  <property name="meta.media.0.codec.sample_fmt">s32</property>
  <property name="meta.media.0.codec.sample_rate">44100</property>
  <property name="meta.media.0.codec.channels">2</property>
  <property name="meta.media.0.codec.name">pcm_s24le</property>
  <property name="meta.media.0.codec.long_name">PCM signed 24-bit little-endian</property>
  <property name="meta.media.0.codec.bit_rate">2116800</property>
  <property name="meta.attr.encoded_by.markup">Logic Pro X</property>
  <property name="meta.attr.date.markup">2017-06-15</property>
  <property name="meta.attr.creation_time.markup">14:55:01</property>
  <property name="meta.attr.time_reference.markup">158760000</property>
  <property name="meta.attr.umid.markup">0x000000000000000000000000000000000000000000000000000000002D004DB1F4A48AF9309C5459FF7F000046A467070100000060945459FF7F0000ECAEE6A7</property>
  <property name="seekable">1</property>
  <property name="audio_index">0</property>
  <property name="video_index">-1</property>
  <property name="mute_on_pause">1</property>
  <property name="mlt_service">avformat</property>
  <property name="kdenlive:clipname"/>
  <property name="kdenlive:clip_type">1</property>
  <property name="kdenlive:folderid">36</property>
  <property name="kdenlive:id">38</property>
  <property name="kdenlive:file_size">42135972</property>
  <property name="kdenlive:file_hash">89404edf9aff1891cc27b9811f505361</property>
  <property name="kdenlive:audio_max0">125</property>
 </producer>
 <producer id="producer26" in="00:00:00.000" out="00:02:38.267">
  <property name="length">9497</property>
  <property name="eof">pause</property>
  <property name="resource">audio/music/Bodytonic/Astrisx/stems/03_Astrisx_Marimba.wav</property>
  <property name="meta.media.nb_streams">1</property>
  <property name="meta.media.0.stream.type">audio</property>
  <property name="meta.media.0.codec.sample_fmt">s32</property>
  <property name="meta.media.0.codec.sample_rate">44100</property>
  <property name="meta.media.0.codec.channels">2</property>
  <property name="meta.media.0.codec.name">pcm_s24le</property>
  <property name="meta.media.0.codec.long_name">PCM signed 24-bit little-endian</property>
  <property name="meta.media.0.codec.bit_rate">2116800</property>
  <property name="meta.attr.encoded_by.markup">Logic Pro X</property>
  <property name="meta.attr.date.markup">2017-06-15</property>
  <property name="meta.attr.creation_time.markup">14:55:07</property>
  <property name="meta.attr.time_reference.markup">158760000</property>
  <property name="meta.attr.umid.markup">0x000000000000000000000000000000000000000000000000000000002D004DB1F4A48AF9309C5459FF7F000046A467070100000060945459FF7F0000ECAEE6A7</property>
  <property name="seekable">1</property>
  <property name="audio_index">0</property>
  <property name="video_index">-1</property>
  <property name="mute_on_pause">1</property>
  <property name="mlt_service">avformat</property>
  <property name="kdenlive:clipname"/>
  <property name="kdenlive:clip_type">1</property>
  <property name="kdenlive:folderid">36</property>
  <property name="kdenlive:id">39</property>
  <property name="kdenlive:file_size">41939108</property>
  <property name="kdenlive:file_hash">6cc46d63bd6b1f4319a60f28871c09f7</property>
  <property name="kdenlive:audio_max0">136</property>
 </producer>
 <producer id="producer27" in="00:00:00.000" out="00:02:30.100">
  <property name="length">9007</property>
  <property name="eof">pause</property>
  <property name="resource">audio/music/Bodytonic/Astrisx/stems/04_Astrisx_Drum Kit.wav</property>
  <property name="meta.media.nb_streams">1</property>
  <property name="meta.media.0.stream.type">audio</property>
  <property name="meta.media.0.codec.sample_fmt">s32</property>
  <property name="meta.media.0.codec.sample_rate">44100</property>
  <property name="meta.media.0.codec.channels">2</property>
  <property name="meta.media.0.codec.name">pcm_s24le</property>
  <property name="meta.media.0.codec.long_name">PCM signed 24-bit little-endian</property>
  <property name="meta.media.0.codec.bit_rate">2116800</property>
  <property name="meta.attr.encoded_by.markup">Logic Pro X</property>
  <property name="meta.attr.date.markup">2017-06-15</property>
  <property name="meta.attr.creation_time.markup">14:55:04</property>
  <property name="meta.attr.time_reference.markup">158760000</property>
  <property name="meta.attr.umid.markup">0x000000000000000000000000000000000000000000000000000000002D004DB1F4A48AF9309C5459FF7F000046A467070100000060945459FF7F0000ECAEE6A7</property>
  <property name="seekable">1</property>
  <property name="audio_index">0</property>
  <property name="video_index">-1</property>
  <property name="mute_on_pause">1</property>
  <property name="mlt_service">avformat</property>
  <property name="kdenlive:clipname"/>
  <property name="kdenlive:clip_type">1</property>
  <property name="kdenlive:folderid">36</property>
  <property name="kdenlive:id">40</property>
  <property name="kdenlive:file_size">39772306</property>
  <property name="kdenlive:file_hash">8605d609caef15965b847bde099eaa2e</property>
  <property name="kdenlive:audio_max0">159</property>
 </producer>
 <producer id="producer28" in="00:00:00.000" out="00:02:30.100">
  <property name="length">9007</property>
  <property name="eof">pause</property>
  <property name="resource">audio/music/Bodytonic/Astrisx/stems/05_Astrisx_Found Percussion.wav</property>
  <property name="meta.media.nb_streams">1</property>
  <property name="meta.media.0.stream.type">audio</property>
  <property name="meta.media.0.codec.sample_fmt">s32</property>
  <property name="meta.media.0.codec.sample_rate">44100</property>
  <property name="meta.media.0.codec.channels">2</property>
  <property name="meta.media.0.codec.name">pcm_s24le</property>
  <property name="meta.media.0.codec.long_name">PCM signed 24-bit little-endian</property>
  <property name="meta.media.0.codec.bit_rate">2116800</property>
  <property name="meta.attr.encoded_by.markup">Logic Pro X</property>
  <property name="meta.attr.date.markup">2017-06-15</property>
  <property name="meta.attr.creation_time.markup">14:54:54</property>
  <property name="meta.attr.time_reference.markup">158760000</property>
  <property name="meta.attr.umid.markup">0x000000000000000000000000000000000000000000000000000000002D004DB1F4A48AF9309C5459FF7F000046A467070100000060945459FF7F0000ECAEE6A7</property>
  <property name="seekable">1</property>
  <property name="audio_index">0</property>
  <property name="video_index">-1</property>
  <property name="mute_on_pause">1</property>
  <property name="mlt_service">avformat</property>
  <property name="kdenlive:clipname"/>
  <property name="kdenlive:clip_type">1</property>
  <property name="kdenlive:folderid">36</property>
  <property name="kdenlive:id">41</property>
  <property name="kdenlive:file_size">39772306</property>
  <property name="kdenlive:file_hash">08867dc4f83cf928c94570cc4402ac22</property>
  <property name="kdenlive:audio_max0">201</property>
 </producer>
 <producer id="producer29" in="00:00:00.000" out="00:00:25.067">
  <property name="length">1505</property>
  <property name="eof">pause</property>
  <property name="resource">audio/music/Bodytonic/Astrisx/variations/Astrisx | 30 Sec.wav</property>
  <property name="meta.media.nb_streams">1</property>
  <property name="meta.media.0.stream.type">audio</property>
  <property name="meta.media.0.codec.sample_fmt">s32</property>
  <property name="meta.media.0.codec.sample_rate">44100</property>
  <property name="meta.media.0.codec.channels">2</property>
  <property name="meta.media.0.codec.name">pcm_s24le</property>
  <property name="meta.media.0.codec.long_name">PCM signed 24-bit little-endian</property>
  <property name="meta.media.0.codec.bit_rate">2116800</property>
  <property name="meta.attr.encoded_by.markup">Logic Pro X</property>
  <property name="meta.attr.date.markup">2017-06-15</property>
  <property name="meta.attr.creation_time.markup">15:01:43</property>
  <property name="meta.attr.time_reference.markup">165844138</property>
  <property name="meta.attr.umid.markup">0x000000000000000000000000000000000000000000000000000000002D004DB1F4A48AF980495459FF7F000046A4670701000000B0415459FF7F0000ECAEE6A7</property>
  <property name="seekable">1</property>
  <property name="audio_index">0</property>
  <property name="video_index">-1</property>
  <property name="mute_on_pause">1</property>
  <property name="mlt_service">avformat</property>
  <property name="kdenlive:clipname"/>
  <property name="kdenlive:clip_type">1</property>
  <property name="kdenlive:folderid">42</property>
  <property name="kdenlive:id">43</property>
  <property name="kdenlive:file_size">6641648</property>
  <property name="kdenlive:file_hash">75e1dd0eed7fe8dfceaf415d384f69a5</property>
  <property name="kdenlive:audio_max0">218</property>
 </producer>
 <producer id="producer30" in="00:00:00.000" out="00:02:41.583">
  <property name="length">9696</property>
  <property name="eof">pause</property>
  <property name="resource">audio/music/Bodytonic/Astrisx/variations/Astrisx | Alt Start Atmo.wav</property>
  <property name="meta.media.nb_streams">1</property>
  <property name="meta.media.0.stream.type">audio</property>
  <property name="meta.media.0.codec.sample_fmt">s32</property>
  <property name="meta.media.0.codec.sample_rate">44100</property>
  <property name="meta.media.0.codec.channels">2</property>
  <property name="meta.media.0.codec.name">pcm_s24le</property>
  <property name="meta.media.0.codec.long_name">PCM signed 24-bit little-endian</property>
  <property name="meta.media.0.codec.bit_rate">2116800</property>
  <property name="meta.attr.encoded_by.markup">Logic Pro X</property>
  <property name="meta.attr.date.markup">2017-06-15</property>
  <property name="meta.attr.creation_time.markup">14:58:55</property>
  <property name="meta.attr.time_reference.markup">159057675</property>
  <property name="meta.attr.umid.markup">0x000000000000000000000000000000000000000000000000000000002D004DB1F4A48AF980495459FF7F000046A4670701000000B0415459FF7F0000ECAEE6A7</property>
  <property name="seekable">1</property>
  <property name="audio_index">0</property>
  <property name="video_index">-1</property>
  <property name="mute_on_pause">1</property>
  <property name="mlt_service">avformat</property>
  <property name="kdenlive:clipname"/>
  <property name="kdenlive:clip_type">1</property>
  <property name="kdenlive:folderid">42</property>
  <property name="kdenlive:id">44</property>
  <property name="kdenlive:file_size">42760108</property>
  <property name="kdenlive:file_hash">93066d46f02f5aff402e4d33cb70a30f</property>
  <property name="kdenlive:audio_max0">245</property>
 </producer>
 <producer id="producer31" in="00:00:00.000" out="00:02:06.450">
  <property name="length">7588</property>
  <property name="eof">pause</property>
  <property name="resource">audio/music/Bodytonic/Astrisx/variations/Astrisx | Alt Take Slower.wav</property>
  <property name="meta.media.nb_streams">1</property>
  <property name="meta.media.0.stream.type">audio</property>
  <property name="meta.media.0.codec.sample_fmt">s32</property>
  <property name="meta.media.0.codec.sample_rate">44100</property>
  <property name="meta.media.0.codec.channels">2</property>
  <property name="meta.media.0.codec.name">pcm_s24le</property>
  <property name="meta.media.0.codec.long_name">PCM signed 24-bit little-endian</property>
  <property name="meta.media.0.codec.bit_rate">2116800</property>
  <property name="meta.attr.encoded_by.markup">Logic Pro X</property>
  <property name="meta.attr.date.markup">2017-06-15</property>
  <property name="meta.attr.creation_time.markup">15:02:46</property>
  <property name="meta.attr.time_reference.markup">162022032</property>
  <property name="meta.attr.umid.markup">0x000000000000000000000000000000000000000000000000000000002D004DB1F4A48AF980495459FF7F000046A4670701000000B0415459FF7F0000ECAEE6A7</property>
  <property name="seekable">1</property>
  <property name="audio_index">0</property>
  <property name="video_index">-1</property>
  <property name="mute_on_pause">1</property>
  <property name="mlt_service">avformat</property>
  <property name="kdenlive:clipname"/>
  <property name="kdenlive:clip_type">1</property>
  <property name="kdenlive:folderid">42</property>
  <property name="kdenlive:id">45</property>
  <property name="kdenlive:file_size">33466268</property>
  <property name="kdenlive:file_hash">017ee05ed0ece03537e35dca9114496e</property>
  <property name="kdenlive:audio_max0">250</property>
 </producer>
 <producer id="producer32" in="00:00:00.000" out="00:01:58.583">
  <property name="length">7116</property>
  <property name="eof">pause</property>
  <property name="resource">audio/music/Bodytonic/Astrisx/variations/Astrisx | Minimal.wav</property>
  <property name="meta.media.nb_streams">1</property>
  <property name="meta.media.0.stream.type">audio</property>
  <property name="meta.media.0.codec.sample_fmt">s32</property>
  <property name="meta.media.0.codec.sample_rate">44100</property>
  <property name="meta.media.0.codec.channels">2</property>
  <property name="meta.media.0.codec.name">pcm_s24le</property>
  <property name="meta.media.0.codec.long_name">PCM signed 24-bit little-endian</property>
  <property name="meta.media.0.codec.bit_rate">2116800</property>
  <property name="meta.attr.encoded_by.markup">Logic Pro X</property>
  <property name="meta.attr.date.markup">2017-06-15</property>
  <property name="meta.attr.creation_time.markup">15:04:57</property>
  <property name="meta.attr.time_reference.markup">160843725</property>
  <property name="meta.attr.umid.markup">0x000000000000000000000000000000000000000000000000000000002D004DB1F4A48AF980495459FF7F000046A4670701000000B0415459FF7F0000ECAEE6A7</property>
  <property name="seekable">1</property>
  <property name="audio_index">0</property>
  <property name="video_index">-1</property>
  <property name="mute_on_pause">1</property>
  <property name="mlt_service">avformat</property>
  <property name="kdenlive:clipname"/>
  <property name="kdenlive:clip_type">1</property>
  <property name="kdenlive:folderid">42</property>
  <property name="kdenlive:id">46</property>
  <property name="kdenlive:file_size">31382308</property>
  <property name="kdenlive:file_hash">c7326b99156cbc441826df441f8d9dcd</property>
  <property name="kdenlive:audio_max0">248</property>
 </producer>
 <producer id="producer33" in="00:00:00.000" out="00:00:37.583">
  <property name="length">2256</property>
  <property name="eof">pause</property>
  <property name="resource">audio/music/Bodytonic/Astrisx/variations/Astrisx | Short Form.wav</property>
  <property name="meta.media.nb_streams">1</property>
  <property name="meta.media.0.stream.type">audio</property>
  <property name="meta.media.0.codec.sample_fmt">s32</property>
  <property name="meta.media.0.codec.sample_rate">44100</property>
  <property name="meta.media.0.codec.channels">2</property>
  <property name="meta.media.0.codec.name">pcm_s24le</property>
  <property name="meta.media.0.codec.long_name">PCM signed 24-bit little-endian</property>
  <property name="meta.media.0.codec.bit_rate">2116800</property>
  <property name="meta.attr.encoded_by.markup">Logic Pro X</property>
  <property name="meta.attr.date.markup">2017-06-15</property>
  <property name="meta.attr.creation_time.markup">15:00:56</property>
  <property name="meta.attr.time_reference.markup">164415825</property>
  <property name="meta.attr.umid.markup">0x000000000000000000000000000000000000000000000000000000002D004DB1F4A48AF980495459FF7F000046A4670701000000B0415459FF7F0000ECAEE6A7</property>
  <property name="seekable">1</property>
  <property name="audio_index">0</property>
  <property name="video_index">-1</property>
  <property name="mute_on_pause">1</property>
  <property name="mlt_service">avformat</property>
  <property name="kdenlive:clipname"/>
  <property name="kdenlive:clip_type">1</property>
  <property name="kdenlive:folderid">42</property>
  <property name="kdenlive:id">47</property>
  <property name="kdenlive:file_size">9949708</property>
  <property name="kdenlive:file_hash">6135771b1d38f36ac091bb5eefb0bcee</property>
  <property name="kdenlive:audio_max0">228</property>
 </producer>
 <producer id="producer34" in="00:00:00.000" out="00:03:05.433">
  <property name="length">11127</property>
  <property name="eof">pause</property>
  <property name="resource">audio/music/Bodytonic/Cases to Rest/Cases to Rest.wav</property>
  <property name="meta.media.nb_streams">1</property>
  <property name="meta.media.0.stream.type">audio</property>
  <property name="meta.media.0.codec.sample_fmt">s32</property>
  <property name="meta.media.0.codec.sample_rate">44100</property>
  <property name="meta.media.0.codec.channels">2</property>
  <property name="meta.media.0.codec.name">pcm_s24le</property>
  <property name="meta.media.0.codec.long_name">PCM signed 24-bit little-endian</property>
  <property name="meta.media.0.codec.bit_rate">2116800</property>
  <property name="meta.attr.encoded_by.markup">Logic Pro X</property>
  <property name="meta.attr.date.markup">2017-07-16</property>
  <property name="meta.attr.creation_time.markup">13:55:21</property>
  <property name="meta.attr.time_reference.markup">158760000</property>
  <property name="meta.attr.umid.markup">0x00000000000000000000000000000000000000000000000000000000EE00CDDB768CEBF380697352FF7F00004684480E01000000B0617352FF7F0000ECEE1AD9</property>
  <property name="seekable">1</property>
  <property name="audio_index">0</property>
  <property name="video_index">-1</property>
  <property name="mute_on_pause">1</property>
  <property name="mlt_service">avformat</property>
  <property name="kdenlive:clipname"/>
  <property name="kdenlive:clip_type">1</property>
  <property name="kdenlive:folderid">48</property>
  <property name="kdenlive:id">49</property>
  <property name="kdenlive:file_size">49072094</property>
  <property name="kdenlive:file_hash">59499b3efe0b0020ff2318ae70d3c5af</property>
  <property name="kdenlive:audio_max0">249</property>
 </producer>
 <producer id="producer35" in="00:00:00.000" out="00:02:51.650">
  <property name="length">10300</property>
  <property name="eof">pause</property>
  <property name="resource">audio/music/Bodytonic/Cases to Rest/stems/01_Cases to Rest_Rhodia Syn.wav</property>
  <property name="meta.media.nb_streams">1</property>
  <property name="meta.media.0.stream.type">audio</property>
  <property name="meta.media.0.codec.sample_fmt">s32</property>
  <property name="meta.media.0.codec.sample_rate">44100</property>
  <property name="meta.media.0.codec.channels">2</property>
  <property name="meta.media.0.codec.name">pcm_s24le</property>
  <property name="meta.media.0.codec.long_name">PCM signed 24-bit little-endian</property>
  <property name="meta.media.0.codec.bit_rate">2116800</property>
  <property name="meta.attr.encoded_by.markup">Logic Pro X</property>
  <property name="meta.attr.date.markup">2017-07-16</property>
  <property name="meta.attr.creation_time.markup">13:42:51</property>
  <property name="meta.attr.time_reference.markup">158760000</property>
  <property name="meta.attr.umid.markup">0x00000000000000000000000000000000000000000000000000000000EE00CDDB768CEBF320BC7352FF7F00004684480E0100000050B47352FF7F0000ECEE1AD9</property>
  <property name="seekable">1</property>
  <property name="audio_index">0</property>
  <property name="video_index">-1</property>
  <property name="mute_on_pause">1</property>
  <property name="mlt_service">avformat</property>
  <property name="kdenlive:clipname"/>
  <property name="kdenlive:clip_type">1</property>
  <property name="kdenlive:folderid">50</property>
  <property name="kdenlive:id">51</property>
  <property name="kdenlive:file_size">45480996</property>
  <property name="kdenlive:file_hash">d1293eebda73d06be78662e21a96b1f8</property>
  <property name="kdenlive:audio_max0">100</property>
 </producer>
 <producer id="producer37" in="00:00:00.000" out="00:01:32.133">
  <property name="length">5529</property>
  <property name="eof">pause</property>
  <property name="resource">audio/music/Bodytonic/Cases to Rest/stems/02_Cases to Rest_Fjoria Syn.wav</property>
  <property name="meta.media.nb_streams">1</property>
  <property name="meta.media.0.stream.type">audio</property>
  <property name="meta.media.0.codec.sample_fmt">s32</property>
  <property name="meta.media.0.codec.sample_rate">44100</property>
  <property name="meta.media.0.codec.channels">2</property>
  <property name="meta.media.0.codec.name">pcm_s24le</property>
  <property name="meta.media.0.codec.long_name">PCM signed 24-bit little-endian</property>
  <property name="meta.media.0.codec.bit_rate">2116800</property>
  <property name="meta.attr.encoded_by.markup">Logic Pro X</property>
  <property name="meta.attr.date.markup">2017-07-16</property>
  <property name="meta.attr.creation_time.markup">13:42:49</property>
  <property name="meta.attr.time_reference.markup">158760000</property>
  <property name="meta.attr.umid.markup">0x00000000000000000000000000000000000000000000000000000000EE00CDDB768CEBF320BC7352FF7F00004684480E0100000050B47352FF7F0000ECEE1AD9</property>
  <property name="seekable">1</property>
  <property name="audio_index">0</property>
  <property name="video_index">-1</property>
  <property name="mute_on_pause">1</property>
  <property name="mlt_service">avformat</property>
  <property name="kdenlive:clipname"/>
  <property name="kdenlive:clip_type">1</property>
  <property name="kdenlive:folderid">50</property>
  <property name="kdenlive:id">52</property>
  <property name="kdenlive:file_size">24416498</property>
  <property name="kdenlive:file_hash">032366e3e67a0f17c44eddf8393a278a</property>
  <property name="kdenlive:audio_max0">61</property>
 </producer>
 <producer id="producer36" in="00:00:00.000" out="00:03:00.567">
  <property name="length">10835</property>
  <property name="eof">pause</property>
  <property name="resource">audio/music/Bodytonic/Cases to Rest/stems/03_Cases to Rest_Upright Bass.wav</property>
  <property name="meta.media.nb_streams">1</property>
  <property name="meta.media.0.stream.type">audio</property>
  <property name="meta.media.0.codec.sample_fmt">s32</property>
  <property name="meta.media.0.codec.sample_rate">44100</property>
  <property name="meta.media.0.codec.channels">2</property>
  <property name="meta.media.0.codec.name">pcm_s24le</property>
  <property name="meta.media.0.codec.long_name">PCM signed 24-bit little-endian</property>
  <property name="meta.media.0.codec.bit_rate">2116800</property>
  <property name="meta.attr.encoded_by.markup">Logic Pro X</property>
  <property name="meta.attr.date.markup">2017-07-16</property>
  <property name="meta.attr.creation_time.markup">13:42:45</property>
  <property name="meta.attr.time_reference.markup">158760000</property>
  <property name="meta.attr.umid.markup">0x00000000000000000000000000000000000000000000000000000000EE00CDDB768CEBF320BC7352FF7F00004684480E0100000050B47352FF7F0000ECEE1AD9</property>
  <property name="seekable">1</property>
  <property name="audio_index">0</property>
  <property name="video_index">-1</property>
  <property name="mute_on_pause">1</property>
  <property name="mlt_service">avformat</property>
  <property name="kdenlive:clipname"/>
  <property name="kdenlive:clip_type">1</property>
  <property name="kdenlive:folderid">50</property>
  <property name="kdenlive:id">53</property>
  <property name="kdenlive:file_size">47843364</property>
  <property name="kdenlive:file_hash">ca46ff5c3acdbafb275c3909bf0a586f</property>
  <property name="kdenlive:audio_max0">220</property>
 </producer>
 <producer id="producer38" in="00:00:00.000" out="00:02:59.067">
  <property name="length">10745</property>
  <property name="eof">pause</property>
  <property name="resource">audio/music/Bodytonic/Cases to Rest/stems/04_Cases to Rest_Piano.wav</property>
  <property name="meta.media.nb_streams">1</property>
  <property name="meta.media.0.stream.type">audio</property>
  <property name="meta.media.0.codec.sample_fmt">s32</property>
  <property name="meta.media.0.codec.sample_rate">44100</property>
  <property name="meta.media.0.codec.channels">2</property>
  <property name="meta.media.0.codec.name">pcm_s24le</property>
  <property name="meta.media.0.codec.long_name">PCM signed 24-bit little-endian</property>
  <property name="meta.media.0.codec.bit_rate">2116800</property>
  <property name="meta.attr.encoded_by.markup">Logic Pro X</property>
  <property name="meta.attr.date.markup">2017-07-16</property>
  <property name="meta.attr.creation_time.markup">13:42:55</property>
  <property name="meta.attr.time_reference.markup">158760000</property>
  <property name="meta.attr.umid.markup">0x00000000000000000000000000000000000000000000000000000000EE00CDDB768CEBF320BC7352FF7F00004684480E0100000050B47352FF7F0000ECEE1AD9</property>
  <property name="seekable">1</property>
  <property name="audio_index">0</property>
  <property name="video_index">-1</property>
  <property name="mute_on_pause">1</property>
  <property name="mlt_service">avformat</property>
  <property name="kdenlive:clipname"/>
  <property name="kdenlive:clip_type">1</property>
  <property name="kdenlive:folderid">50</property>
  <property name="kdenlive:id">54</property>
  <property name="kdenlive:file_size">47449636</property>
  <property name="kdenlive:file_hash">4950ab6378c48baca0aa485d5d0c065f</property>
  <property name="kdenlive:audio_max0">168</property>
 </producer>
 <producer id="producer40" in="00:00:00.000" out="00:02:56.850">
  <property name="length">10612</property>
  <property name="eof">pause</property>
  <property name="resource">audio/music/Bodytonic/Cases to Rest/stems/05_Cases to Rest_Marimba.wav</property>
  <property name="meta.media.nb_streams">1</property>
  <property name="meta.media.0.stream.type">audio</property>
  <property name="meta.media.0.codec.sample_fmt">s32</property>
  <property name="meta.media.0.codec.sample_rate">44100</property>
  <property name="meta.media.0.codec.channels">2</property>
  <property name="meta.media.0.codec.name">pcm_s24le</property>
  <property name="meta.media.0.codec.long_name">PCM signed 24-bit little-endian</property>
  <property name="meta.media.0.codec.bit_rate">2116800</property>
  <property name="meta.attr.encoded_by.markup">Logic Pro X</property>
  <property name="meta.attr.date.markup">2017-07-16</property>
  <property name="meta.attr.creation_time.markup">13:43:03</property>
  <property name="meta.attr.time_reference.markup">158760000</property>
  <property name="meta.attr.umid.markup">0x00000000000000000000000000000000000000000000000000000000EE00CDDB768CEBF320BC7352FF7F00004684480E0100000050B47352FF7F0000ECEE1AD9</property>
  <property name="seekable">1</property>
  <property name="audio_index">0</property>
  <property name="video_index">-1</property>
  <property name="mute_on_pause">1</property>
  <property name="mlt_service">avformat</property>
  <property name="kdenlive:clipname"/>
  <property name="kdenlive:clip_type">1</property>
  <property name="kdenlive:folderid">50</property>
  <property name="kdenlive:id">55</property>
  <property name="kdenlive:file_size">46859044</property>
  <property name="kdenlive:file_hash">18fe19d98ccc48eacb21f8d681940c25</property>
  <property name="kdenlive:audio_max0">186</property>
 </producer>
 <producer id="producer39" in="00:00:00.000" out="00:02:48.667">
  <property name="length">10121</property>
  <property name="eof">pause</property>
  <property name="resource">audio/music/Bodytonic/Cases to Rest/stems/06_Cases to Rest_Drum Kit.wav</property>
  <property name="meta.media.nb_streams">1</property>
  <property name="meta.media.0.stream.type">audio</property>
  <property name="meta.media.0.codec.sample_fmt">s32</property>
  <property name="meta.media.0.codec.sample_rate">44100</property>
  <property name="meta.media.0.codec.channels">2</property>
  <property name="meta.media.0.codec.name">pcm_s24le</property>
  <property name="meta.media.0.codec.long_name">PCM signed 24-bit little-endian</property>
  <property name="meta.media.0.codec.bit_rate">2116800</property>
  <property name="meta.attr.encoded_by.markup">Logic Pro X</property>
  <property name="meta.attr.date.markup">2017-07-16</property>
  <property name="meta.attr.creation_time.markup">13:42:59</property>
  <property name="meta.attr.time_reference.markup">158760000</property>
  <property name="meta.attr.umid.markup">0x00000000000000000000000000000000000000000000000000000000EE00CDDB768CEBF320BC7352FF7F00004684480E0100000050B47352FF7F0000ECEE1AD9</property>
  <property name="seekable">1</property>
  <property name="audio_index">0</property>
  <property name="video_index">-1</property>
  <property name="mute_on_pause">1</property>
  <property name="mlt_service">avformat</property>
  <property name="kdenlive:clipname"/>
  <property name="kdenlive:clip_type">1</property>
  <property name="kdenlive:folderid">50</property>
  <property name="kdenlive:id">56</property>
  <property name="kdenlive:file_size">44693540</property>
  <property name="kdenlive:file_hash">f3ee4c477522f02ff3945124501f54be</property>
  <property name="kdenlive:audio_max0">169</property>
 </producer>
 <producer id="producer41" in="00:00:00.000" out="00:02:50.150">
  <property name="length">10210</property>
  <property name="eof">pause</property>
  <property name="resource">audio/music/Bodytonic/Cases to Rest/stems/07_Cases to Rest_Found Percussion.wav</property>
  <property name="meta.media.nb_streams">1</property>
  <property name="meta.media.0.stream.type">audio</property>
  <property name="meta.media.0.codec.sample_fmt">s32</property>
  <property name="meta.media.0.codec.sample_rate">44100</property>
  <property name="meta.media.0.codec.channels">2</property>
  <property name="meta.media.0.codec.name">pcm_s24le</property>
  <property name="meta.media.0.codec.long_name">PCM signed 24-bit little-endian</property>
  <property name="meta.media.0.codec.bit_rate">2116800</property>
  <property name="meta.attr.encoded_by.markup">Logic Pro X</property>
  <property name="meta.attr.date.markup">2017-07-16</property>
  <property name="meta.attr.creation_time.markup">13:42:40</property>
  <property name="meta.attr.time_reference.markup">158760000</property>
  <property name="meta.attr.umid.markup">0x00000000000000000000000000000000000000000000000000000000EE00CDDB768CEBF320BC7352FF7F00004684480E0100000050B47352FF7F0000ECEE1AD9</property>
  <property name="seekable">1</property>
  <property name="audio_index">0</property>
  <property name="video_index">-1</property>
  <property name="mute_on_pause">1</property>
  <property name="mlt_service">avformat</property>
  <property name="kdenlive:clipname"/>
  <property name="kdenlive:clip_type">1</property>
  <property name="kdenlive:folderid">50</property>
  <property name="kdenlive:id">57</property>
  <property name="kdenlive:file_size">45087268</property>
  <property name="kdenlive:file_hash">c1ac4c902c71ccb126f83188619852b8</property>
  <property name="kdenlive:audio_max0">160</property>
 </producer>
 <producer id="producer43" in="00:00:00.000" out="00:00:38.167">
  <property name="length">2291</property>
  <property name="eof">pause</property>
  <property name="resource">audio/music/Bodytonic/Cases to Rest/variations/Cases to Rest | 30 Sec.wav</property>
  <property name="meta.media.nb_streams">1</property>
  <property name="meta.media.0.stream.type">audio</property>
  <property name="meta.media.0.codec.sample_fmt">s32</property>
  <property name="meta.media.0.codec.sample_rate">44100</property>
  <property name="meta.media.0.codec.channels">2</property>
  <property name="meta.media.0.codec.name">pcm_s24le</property>
  <property name="meta.media.0.codec.long_name">PCM signed 24-bit little-endian</property>
  <property name="meta.media.0.codec.bit_rate">2116800</property>
  <property name="meta.attr.encoded_by.markup">Logic Pro X</property>
  <property name="meta.attr.date.markup">2017-07-16</property>
  <property name="meta.attr.creation_time.markup">14:00:42</property>
  <property name="meta.attr.time_reference.markup">162207818</property>
  <property name="meta.attr.umid.markup">0x00000000000000000000000000000000000000000000000000000000EE00CDDB768CEBF380697352FF7F00004684480E01000000B0617352FF7F0000ECEE1AD9</property>
  <property name="seekable">1</property>
  <property name="audio_index">0</property>
  <property name="video_index">-1</property>
  <property name="mute_on_pause">1</property>
  <property name="mlt_service">avformat</property>
  <property name="kdenlive:clipname"/>
  <property name="kdenlive:clip_type">1</property>
  <property name="kdenlive:folderid">58</property>
  <property name="kdenlive:id">59</property>
  <property name="kdenlive:file_size">10103688</property>
  <property name="kdenlive:file_hash">a322b0ab2c8327491109ae45010b55b0</property>
  <property name="kdenlive:audio_max0">239</property>
 </producer>
 <producer id="producer42" in="00:00:00.000" out="00:01:50.900">
  <property name="length">6655</property>
  <property name="eof">pause</property>
  <property name="resource">audio/music/Bodytonic/Cases to Rest/variations/Cases to Rest | Direct Start.wav</property>
  <property name="meta.media.nb_streams">1</property>
  <property name="meta.media.0.stream.type">audio</property>
  <property name="meta.media.0.codec.sample_fmt">s32</property>
  <property name="meta.media.0.codec.sample_rate">44100</property>
  <property name="meta.media.0.codec.channels">2</property>
  <property name="meta.media.0.codec.name">pcm_s24le</property>
  <property name="meta.media.0.codec.long_name">PCM signed 24-bit little-endian</property>
  <property name="meta.media.0.codec.bit_rate">2116800</property>
  <property name="meta.attr.encoded_by.markup">Logic Pro X</property>
  <property name="meta.attr.date.markup">2017-07-16</property>
  <property name="meta.attr.creation_time.markup">14:05:23</property>
  <property name="meta.attr.time_reference.markup">162207818</property>
  <property name="meta.attr.umid.markup">0x00000000000000000000000000000000000000000000000000000000EE00CDDB768CEBF380697352FF7F00004684480E01000000B0617352FF7F0000ECEE1AD9</property>
  <property name="seekable">1</property>
  <property name="audio_index">0</property>
  <property name="video_index">-1</property>
  <property name="mute_on_pause">1</property>
  <property name="mlt_service">avformat</property>
  <property name="kdenlive:clipname"/>
  <property name="kdenlive:clip_type">1</property>
  <property name="kdenlive:folderid">58</property>
  <property name="kdenlive:id">60</property>
  <property name="kdenlive:file_size">29347276</property>
  <property name="kdenlive:file_hash">0d7bf681287144acccfccea88c5189e6</property>
  <property name="kdenlive:audio_max0">246</property>
 </producer>
 <producer id="producer44" in="00:00:00.000" out="00:02:25.433">
  <property name="length">8727</property>
  <property name="eof">pause</property>
  <property name="resource">audio/music/Bodytonic/Cases to Rest/variations/Cases to Rest | Minimal Piano.wav</property>
  <property name="meta.media.nb_streams">1</property>
  <property name="meta.media.0.stream.type">audio</property>
  <property name="meta.media.0.codec.sample_fmt">s32</property>
  <property name="meta.media.0.codec.sample_rate">44100</property>
  <property name="meta.media.0.codec.channels">2</property>
  <property name="meta.media.0.codec.name">pcm_s24le</property>
  <property name="meta.media.0.codec.long_name">PCM signed 24-bit little-endian</property>
  <property name="meta.media.0.codec.bit_rate">2116800</property>
  <property name="meta.attr.encoded_by.markup">Logic Pro X</property>
  <property name="meta.attr.date.markup">2017-07-16</property>
  <property name="meta.attr.creation_time.markup">14:02:12</property>
  <property name="meta.attr.time_reference.markup">160684363</property>
  <property name="meta.attr.umid.markup">0x00000000000000000000000000000000000000000000000000000000EE00CDDB768CEBF380697352FF7F00004684480E01000000B0617352FF7F0000ECEE1AD9</property>
  <property name="seekable">1</property>
  <property name="audio_index">0</property>
  <property name="video_index">-1</property>
  <property name="mute_on_pause">1</property>
  <property name="mlt_service">avformat</property>
  <property name="kdenlive:clipname"/>
  <property name="kdenlive:clip_type">1</property>
  <property name="kdenlive:folderid">58</property>
  <property name="kdenlive:id">61</property>
  <property name="kdenlive:file_size">38488094</property>
  <property name="kdenlive:file_hash">b9c9961eb0f7cd3d102dff99417250e2</property>
  <property name="kdenlive:audio_max0">246</property>
 </producer>
 <producer id="producer45" in="00:00:00.000" out="00:01:57.100">
  <property name="length">7027</property>
  <property name="eof">pause</property>
  <property name="resource">audio/music/Bodytonic/Cases to Rest/variations/Cases to Rest | Minimal.wav</property>
  <property name="meta.media.nb_streams">1</property>
  <property name="meta.media.0.stream.type">audio</property>
  <property name="meta.media.0.codec.sample_fmt">s32</property>
  <property name="meta.media.0.codec.sample_rate">44100</property>
  <property name="meta.media.0.codec.channels">2</property>
  <property name="meta.media.0.codec.name">pcm_s24le</property>
  <property name="meta.media.0.codec.long_name">PCM signed 24-bit little-endian</property>
  <property name="meta.media.0.codec.bit_rate">2116800</property>
  <property name="meta.attr.encoded_by.markup">Logic Pro X</property>
  <property name="meta.attr.date.markup">2017-07-16</property>
  <property name="meta.attr.creation_time.markup">14:04:27</property>
  <property name="meta.attr.time_reference.markup">162400896</property>
  <property name="meta.attr.umid.markup">0x00000000000000000000000000000000000000000000000000000000EE00CDDB768CEBF380697352FF7F00004684480E01000000B0617352FF7F0000ECEE1AD9</property>
  <property name="seekable">1</property>
  <property name="audio_index">0</property>
  <property name="video_index">-1</property>
  <property name="mute_on_pause">1</property>
  <property name="mlt_service">avformat</property>
  <property name="kdenlive:clipname"/>
  <property name="kdenlive:clip_type">1</property>
  <property name="kdenlive:folderid">58</property>
  <property name="kdenlive:id">62</property>
  <property name="kdenlive:file_size">30990682</property>
  <property name="kdenlive:file_hash">4ebd70173f0f73db9d9a0b0812924d67</property>
  <property name="kdenlive:audio_max0">246</property>
 </producer>
 <producer id="producer46" in="00:00:00.000" out="00:00:47.250">
  <property name="length">2836</property>
  <property name="eof">pause</property>
  <property name="resource">audio/music/Bodytonic/Cases to Rest/variations/Cases to Rest | Short Minimal.wav</property>
  <property name="meta.media.nb_streams">1</property>
  <property name="meta.media.0.stream.type">audio</property>
  <property name="meta.media.0.codec.sample_fmt">s32</property>
  <property name="meta.media.0.codec.sample_rate">44100</property>
  <property name="meta.media.0.codec.channels">2</property>
  <property name="meta.media.0.codec.name">pcm_s24le</property>
  <property name="meta.media.0.codec.long_name">PCM signed 24-bit little-endian</property>
  <property name="meta.media.0.codec.bit_rate">2116800</property>
  <property name="meta.attr.encoded_by.markup">Logic Pro X</property>
  <property name="meta.attr.date.markup">2017-07-16</property>
  <property name="meta.attr.creation_time.markup">13:58:45</property>
  <property name="meta.attr.time_reference.markup">164773636</property>
  <property name="meta.attr.umid.markup">0x00000000000000000000000000000000000000000000000000000000EE00CDDB768CEBF380697352FF7F00004684480E01000000B0617352FF7F0000ECEE1AD9</property>
  <property name="seekable">1</property>
  <property name="audio_index">0</property>
  <property name="video_index">-1</property>
  <property name="mute_on_pause">1</property>
  <property name="mlt_service">avformat</property>
  <property name="kdenlive:clipname"/>
  <property name="kdenlive:clip_type">1</property>
  <property name="kdenlive:folderid">58</property>
  <property name="kdenlive:id">63</property>
  <property name="kdenlive:file_size">12509186</property>
  <property name="kdenlive:file_hash">297c578554dc2fdf1cf066c678083cff</property>
  <property name="kdenlive:audio_max0">247</property>
 </producer>
 <producer id="producer47" in="00:00:00.000" out="00:00:47.250">
  <property name="length">2836</property>
  <property name="eof">pause</property>
  <property name="resource">audio/music/Bodytonic/Cases to Rest/variations/Cases to Rest | Short.wav</property>
  <property name="meta.media.nb_streams">1</property>
  <property name="meta.media.0.stream.type">audio</property>
  <property name="meta.media.0.codec.sample_fmt">s32</property>
  <property name="meta.media.0.codec.sample_rate">44100</property>
  <property name="meta.media.0.codec.channels">2</property>
  <property name="meta.media.0.codec.name">pcm_s24le</property>
  <property name="meta.media.0.codec.long_name">PCM signed 24-bit little-endian</property>
  <property name="meta.media.0.codec.bit_rate">2116800</property>
  <property name="meta.attr.encoded_by.markup">Logic Pro X</property>
  <property name="meta.attr.date.markup">2017-07-16</property>
  <property name="meta.attr.creation_time.markup">13:58:10</property>
  <property name="meta.attr.time_reference.markup">164773636</property>
  <property name="meta.attr.umid.markup">0x00000000000000000000000000000000000000000000000000000000EE00CDDB768CEBF380697352FF7F00004684480E01000000B0617352FF7F0000ECEE1AD9</property>
  <property name="seekable">1</property>
  <property name="audio_index">0</property>
  <property name="video_index">-1</property>
  <property name="mute_on_pause">1</property>
  <property name="mlt_service">avformat</property>
  <property name="kdenlive:clipname"/>
  <property name="kdenlive:clip_type">1</property>
  <property name="kdenlive:folderid">58</property>
  <property name="kdenlive:id">64</property>
  <property name="kdenlive:file_size">12509186</property>
  <property name="kdenlive:file_hash">67ca2778559b81bb3a356258761fde29</property>
  <property name="kdenlive:audio_max0">244</property>
 </producer>
 <producer id="producer48" in="00:00:00.000" out="00:01:51.950">
  <property name="length">6718</property>
  <property name="eof">pause</property>
  <property name="resource">audio/music/Bodytonic/Inamorata/Inamorata.wav</property>
  <property name="meta.media.nb_streams">1</property>
  <property name="meta.media.0.stream.type">audio</property>
  <property name="meta.media.0.codec.sample_fmt">s32</property>
  <property name="meta.media.0.codec.sample_rate">44100</property>
  <property name="meta.media.0.codec.channels">2</property>
  <property name="meta.media.0.codec.name">pcm_s24le</property>
  <property name="meta.media.0.codec.long_name">PCM signed 24-bit little-endian</property>
  <property name="meta.media.0.codec.bit_rate">2116800</property>
  <property name="meta.attr.encoded_by.markup">Logic Pro X</property>
  <property name="meta.attr.date.markup">2017-06-07</property>
  <property name="meta.attr.creation_time.markup">13:23:22</property>
  <property name="meta.attr.time_reference.markup">158760000</property>
  <property name="meta.attr.umid.markup">0x00000000000000000000000000000000000000000000000000000000440089C0936A1F5780E96459FF7F00004604570701000000B0E16459FF7F0000ECFE8894</property>
  <property name="seekable">1</property>
  <property name="audio_index">0</property>
  <property name="video_index">-1</property>
  <property name="mute_on_pause">1</property>
  <property name="mlt_service">avformat</property>
  <property name="kdenlive:clipname"/>
  <property name="kdenlive:clip_type">1</property>
  <property name="kdenlive:folderid">65</property>
  <property name="kdenlive:id">66</property>
  <property name="kdenlive:file_size">29626480</property>
  <property name="kdenlive:file_hash">496d5a808d49edd0083f73aebbc44f9b</property>
  <property name="kdenlive:audio_max0">233</property>
 </producer>
 <producer id="producer49" in="00:00:00.000" out="00:01:47.733">
  <property name="length">6465</property>
  <property name="eof">pause</property>
  <property name="resource">audio/music/Bodytonic/Inamorata/stems/01_Inamorata_Piano.wav</property>
  <property name="meta.media.nb_streams">1</property>
  <property name="meta.media.0.stream.type">audio</property>
  <property name="meta.media.0.codec.sample_fmt">s32</property>
  <property name="meta.media.0.codec.sample_rate">44100</property>
  <property name="meta.media.0.codec.channels">2</property>
  <property name="meta.media.0.codec.name">pcm_s24le</property>
  <property name="meta.media.0.codec.long_name">PCM signed 24-bit little-endian</property>
  <property name="meta.media.0.codec.bit_rate">2116800</property>
  <property name="meta.attr.encoded_by.markup">Logic Pro X</property>
  <property name="meta.attr.date.markup">2017-06-07</property>
  <property name="meta.attr.creation_time.markup">13:24:22</property>
  <property name="meta.attr.time_reference.markup">158760000</property>
  <property name="meta.attr.umid.markup">0x00000000000000000000000000000000000000000000000000000000440089C0936A1F57303C6559FF7F0000460457070100000060346559FF7F0000ECFE8894</property>
  <property name="seekable">1</property>
  <property name="audio_index">0</property>
  <property name="video_index">-1</property>
  <property name="mute_on_pause">1</property>
  <property name="mlt_service">avformat</property>
  <property name="kdenlive:clipname"/>
  <property name="kdenlive:clip_type">1</property>
  <property name="kdenlive:folderid">67</property>
  <property name="kdenlive:id">68</property>
  <property name="kdenlive:file_size">28550592</property>
  <property name="kdenlive:file_hash">c6ea8b15dc91ed5224b5983cf7406467</property>
  <property name="kdenlive:audio_max0">110</property>
 </producer>
 <producer id="producer50" in="00:00:00.000" out="00:01:41.800">
  <property name="length">6109</property>
  <property name="eof">pause</property>
  <property name="resource">audio/music/Bodytonic/Inamorata/stems/02_Inamorata_Fjoria Syn.wav</property>
  <property name="meta.media.nb_streams">1</property>
  <property name="meta.media.0.stream.type">audio</property>
  <property name="meta.media.0.codec.sample_fmt">s32</property>
  <property name="meta.media.0.codec.sample_rate">44100</property>
  <property name="meta.media.0.codec.channels">2</property>
  <property name="meta.media.0.codec.name">pcm_s24le</property>
  <property name="meta.media.0.codec.long_name">PCM signed 24-bit little-endian</property>
  <property name="meta.media.0.codec.bit_rate">2116800</property>
  <property name="meta.attr.encoded_by.markup">Logic Pro X</property>
  <property name="meta.attr.date.markup">2017-06-07</property>
  <property name="meta.attr.creation_time.markup">13:24:20</property>
  <property name="meta.attr.time_reference.markup">158760000</property>
  <property name="meta.attr.umid.markup">0x00000000000000000000000000000000000000000000000000000000440089C0936A1F57303C6559FF7F0000460457070100000060346559FF7F0000ECFE8894</property>
  <property name="seekable">1</property>
  <property name="audio_index">0</property>
  <property name="video_index">-1</property>
  <property name="mute_on_pause">1</property>
  <property name="mlt_service">avformat</property>
  <property name="kdenlive:clipname"/>
  <property name="kdenlive:clip_type">1</property>
  <property name="kdenlive:folderid">67</property>
  <property name="kdenlive:id">69</property>
  <property name="kdenlive:file_size">26975680</property>
  <property name="kdenlive:file_hash">7bb784665d9e050435e4465c197b1c82</property>
  <property name="kdenlive:audio_max0">85</property>
 </producer>
 <producer id="producer51" in="00:00:00.000" out="00:01:45.517">
  <property name="length">6332</property>
  <property name="eof">pause</property>
  <property name="resource">audio/music/Bodytonic/Inamorata/stems/03_Inamorata_Marimba.wav</property>
  <property name="meta.media.nb_streams">1</property>
  <property name="meta.media.0.stream.type">audio</property>
  <property name="meta.media.0.codec.sample_fmt">s32</property>
  <property name="meta.media.0.codec.sample_rate">44100</property>
  <property name="meta.media.0.codec.channels">2</property>
  <property name="meta.media.0.codec.name">pcm_s24le</property>
  <property name="meta.media.0.codec.long_name">PCM signed 24-bit little-endian</property>
  <property name="meta.media.0.codec.bit_rate">2116800</property>
  <property name="meta.attr.encoded_by.markup">Logic Pro X</property>
  <property name="meta.attr.date.markup">2017-06-07</property>
  <property name="meta.attr.creation_time.markup">13:24:24</property>
  <property name="meta.attr.time_reference.markup">158760000</property>
  <property name="meta.attr.umid.markup">0x00000000000000000000000000000000000000000000000000000000440089C0936A1F57303C6559FF7F0000460457070100000060346559FF7F0000ECFE8894</property>
  <property name="seekable">1</property>
  <property name="audio_index">0</property>
  <property name="video_index">-1</property>
  <property name="mute_on_pause">1</property>
  <property name="mlt_service">avformat</property>
  <property name="kdenlive:clipname"/>
  <property name="kdenlive:clip_type">1</property>
  <property name="kdenlive:folderid">67</property>
  <property name="kdenlive:id">70</property>
  <property name="kdenlive:file_size">27960000</property>
  <property name="kdenlive:file_hash">a9ab57099824bf8f9922c4f7d35fa4b3</property>
  <property name="kdenlive:audio_max0">132</property>
 </producer>
 <producer id="producer53" in="00:00:00.000" out="00:00:57.833">
  <property name="length">3471</property>
  <property name="eof">pause</property>
  <property name="resource">audio/music/Bodytonic/Inamorata/variations/Inamorata | 1 Min.wav</property>
  <property name="meta.media.nb_streams">1</property>
  <property name="meta.media.0.stream.type">audio</property>
  <property name="meta.media.0.codec.sample_fmt">s32</property>
  <property name="meta.media.0.codec.sample_rate">44100</property>
  <property name="meta.media.0.codec.channels">2</property>
  <property name="meta.media.0.codec.name">pcm_s24le</property>
  <property name="meta.media.0.codec.long_name">PCM signed 24-bit little-endian</property>
  <property name="meta.media.0.codec.bit_rate">2116800</property>
  <property name="meta.attr.encoded_by.markup">Logic Pro X</property>
  <property name="meta.attr.date.markup">2017-06-07</property>
  <property name="meta.attr.creation_time.markup">13:25:16</property>
  <property name="meta.attr.time_reference.markup">161028000</property>
  <property name="meta.attr.umid.markup">0x00000000000000000000000000000000000000000000000000000000440089C0936A1F5780E96459FF7F00004604570701000000B0E16459FF7F0000ECFE8894</property>
  <property name="seekable">1</property>
  <property name="audio_index">0</property>
  <property name="video_index">-1</property>
  <property name="mute_on_pause">1</property>
  <property name="mlt_service">avformat</property>
  <property name="kdenlive:clipname"/>
  <property name="kdenlive:clip_type">1</property>
  <property name="kdenlive:folderid">71</property>
  <property name="kdenlive:id">72</property>
  <property name="kdenlive:file_size">15309730</property>
  <property name="kdenlive:file_hash">4281c949fb4bd477ca78a636cd7c7fd2</property>
  <property name="kdenlive:audio_max0">232</property>
 </producer>
 <producer id="producer52" in="00:00:00.000" out="00:00:57.833">
  <property name="length">3471</property>
  <property name="eof">pause</property>
  <property name="resource">audio/music/Bodytonic/Inamorata/variations/Inamorata | Marimba Solo.wav</property>
  <property name="meta.media.nb_streams">1</property>
  <property name="meta.media.0.stream.type">audio</property>
  <property name="meta.media.0.codec.sample_fmt">s32</property>
  <property name="meta.media.0.codec.sample_rate">44100</property>
  <property name="meta.media.0.codec.channels">2</property>
  <property name="meta.media.0.codec.name">pcm_s24le</property>
  <property name="meta.media.0.codec.long_name">PCM signed 24-bit little-endian</property>
  <property name="meta.media.0.codec.bit_rate">2116800</property>
  <property name="meta.attr.encoded_by.markup">Logic Pro X</property>
  <property name="meta.attr.date.markup">2017-06-07</property>
  <property name="meta.attr.creation_time.markup">13:24:51</property>
  <property name="meta.attr.time_reference.markup">161028000</property>
  <property name="meta.attr.umid.markup">0x00000000000000000000000000000000000000000000000000000000440089C0936A1F5780E96459FF7F00004604570701000000B0E16459FF7F0000ECFE8894</property>
  <property name="seekable">1</property>
  <property name="audio_index">0</property>
  <property name="video_index">-1</property>
  <property name="mute_on_pause">1</property>
  <property name="mlt_service">avformat</property>
  <property name="kdenlive:clipname"/>
  <property name="kdenlive:clip_type">1</property>
  <property name="kdenlive:folderid">71</property>
  <property name="kdenlive:id">73</property>
  <property name="kdenlive:file_size">15309730</property>
  <property name="kdenlive:file_hash">bab609f1b9b8eea2af046c267a8c8cd7</property>
  <property name="kdenlive:audio_max0">228</property>
 </producer>
 <producer id="producer54" in="00:00:00.000" out="00:01:51.417">
  <property name="length">6686</property>
  <property name="eof">pause</property>
  <property name="resource">audio/music/Bodytonic/Inamorata/variations/Inamorata | Piano Feature.wav</property>
  <property name="meta.media.nb_streams">1</property>
  <property name="meta.media.0.stream.type">audio</property>
  <property name="meta.media.0.codec.sample_fmt">s32</property>
  <property name="meta.media.0.codec.sample_rate">44100</property>
  <property name="meta.media.0.codec.channels">2</property>
  <property name="meta.media.0.codec.name">pcm_s24le</property>
  <property name="meta.media.0.codec.long_name">PCM signed 24-bit little-endian</property>
  <property name="meta.media.0.codec.bit_rate">2116800</property>
  <property name="meta.attr.encoded_by.markup">Logic Pro X</property>
  <property name="meta.attr.date.markup">2017-06-07</property>
  <property name="meta.attr.creation_time.markup">13:26:23</property>
  <property name="meta.attr.time_reference.markup">158760000</property>
  <property name="meta.attr.umid.markup">0x00000000000000000000000000000000000000000000000000000000440089C0936A1F5780E96459FF7F00004604570701000000B0E16459FF7F0000ECFE8894</property>
  <property name="seekable">1</property>
  <property name="audio_index">0</property>
  <property name="video_index">-1</property>
  <property name="mute_on_pause">1</property>
  <property name="mlt_service">avformat</property>
  <property name="kdenlive:clipname"/>
  <property name="kdenlive:clip_type">1</property>
  <property name="kdenlive:folderid">71</property>
  <property name="kdenlive:id">74</property>
  <property name="kdenlive:file_size">29484730</property>
  <property name="kdenlive:file_hash">817b05b9d285353e042ad50a3bedd65d</property>
  <property name="kdenlive:audio_max0">231</property>
 </producer>
 <producer id="producer55" in="00:00:00.000" out="00:02:29.933">
  <property name="length">8997</property>
  <property name="eof">pause</property>
  <property name="resource">audio/music/Bodytonic/Mind Body Mind/Mind Body Mind.wav</property>
  <property name="meta.media.nb_streams">1</property>
  <property name="meta.media.0.stream.type">audio</property>
  <property name="meta.media.0.codec.sample_fmt">s32</property>
  <property name="meta.media.0.codec.sample_rate">44100</property>
  <property name="meta.media.0.codec.channels">2</property>
  <property name="meta.media.0.codec.name">pcm_s24le</property>
  <property name="meta.media.0.codec.long_name">PCM signed 24-bit little-endian</property>
  <property name="meta.media.0.codec.bit_rate">2116800</property>
  <property name="meta.attr.encoded_by.markup">Logic Pro X</property>
  <property name="meta.attr.date.markup">2017-12-09</property>
  <property name="meta.attr.creation_time.markup">10:02:14</property>
  <property name="meta.attr.time_reference.markup">158830159</property>
  <property name="meta.attr.umid.markup">0x00000000000000000000000000000000000000000000000000000000BA0080B7DE3D537A80695E58FF7F000046845D0801000000B0615E58FF7F0000ECAE5EC2</property>
  <property name="seekable">1</property>
  <property name="audio_index">0</property>
  <property name="video_index">-1</property>
  <property name="mute_on_pause">1</property>
  <property name="mlt_service">avformat</property>
  <property name="kdenlive:clipname"/>
  <property name="kdenlive:clip_type">1</property>
  <property name="kdenlive:folderid">75</property>
  <property name="kdenlive:id">76</property>
  <property name="kdenlive:file_size">39678426</property>
  <property name="kdenlive:file_hash">2d1e67f6411504d1d0ba1ced870ec9e8</property>
  <property name="kdenlive:audio_max0">249</property>
 </producer>
 <producer id="producer56" in="00:00:00.000" out="00:00:47.883">
  <property name="length">2874</property>
  <property name="eof">pause</property>
  <property name="resource">audio/music/Bodytonic/Mind Body Mind/variations/Mind Body Mind | 1 Min.wav</property>
  <property name="meta.media.nb_streams">1</property>
  <property name="meta.media.0.stream.type">audio</property>
  <property name="meta.media.0.codec.sample_fmt">s32</property>
  <property name="meta.media.0.codec.sample_rate">44100</property>
  <property name="meta.media.0.codec.channels">2</property>
  <property name="meta.media.0.codec.name">pcm_s24le</property>
  <property name="meta.media.0.codec.long_name">PCM signed 24-bit little-endian</property>
  <property name="meta.media.0.codec.bit_rate">2116800</property>
  <property name="meta.attr.encoded_by.markup">Logic Pro X</property>
  <property name="meta.attr.date.markup">2017-12-09</property>
  <property name="meta.attr.creation_time.markup">10:17:13</property>
  <property name="meta.attr.time_reference.markup">163330363</property>
  <property name="meta.attr.umid.markup">0x00000000000000000000000000000000000000000000000000000000BA0080B7DE3D537A80695E58FF7F000046845D0801000000B0615E58FF7F0000ECAE5EC2</property>
  <property name="seekable">1</property>
  <property name="audio_index">0</property>
  <property name="video_index">-1</property>
  <property name="mute_on_pause">1</property>
  <property name="mlt_service">avformat</property>
  <property name="kdenlive:clipname"/>
  <property name="kdenlive:clip_type">1</property>
  <property name="kdenlive:folderid">77</property>
  <property name="kdenlive:id">78</property>
  <property name="kdenlive:file_size">12677202</property>
  <property name="kdenlive:file_hash">6c54fd8c5c0da67af845646906c95e19</property>
  <property name="kdenlive:audio_max0">242</property>
 </producer>
 <producer id="producer57" in="00:00:00.000" out="00:00:21.500">
  <property name="length">1291</property>
  <property name="eof">pause</property>
  <property name="resource">audio/music/Bodytonic/Mind Body Mind/variations/Mind Body Mind | 30 Sec.wav</property>
  <property name="meta.media.nb_streams">1</property>
  <property name="meta.media.0.stream.type">audio</property>
  <property name="meta.media.0.codec.sample_fmt">s32</property>
  <property name="meta.media.0.codec.sample_rate">44100</property>
  <property name="meta.media.0.codec.channels">2</property>
  <property name="meta.media.0.codec.name">pcm_s24le</property>
  <property name="meta.media.0.codec.long_name">PCM signed 24-bit little-endian</property>
  <property name="meta.media.0.codec.bit_rate">2116800</property>
  <property name="meta.attr.encoded_by.markup">Logic Pro X</property>
  <property name="meta.attr.date.markup">2017-12-09</property>
  <property name="meta.attr.creation_time.markup">10:20:40</property>
  <property name="meta.attr.time_reference.markup">163968393</property>
  <property name="meta.attr.umid.markup">0x00000000000000000000000000000000000000000000000000000000BA0080B7DE3D537A80695E58FF7F000046845D0801000000B0615E58FF7F0000ECAE5EC2</property>
  <property name="seekable">1</property>
  <property name="audio_index">0</property>
  <property name="video_index">-1</property>
  <property name="mute_on_pause">1</property>
  <property name="mlt_service">avformat</property>
  <property name="kdenlive:clipname"/>
  <property name="kdenlive:clip_type">1</property>
  <property name="kdenlive:folderid">77</property>
  <property name="kdenlive:id">79</property>
  <property name="kdenlive:file_size">5693916</property>
  <property name="kdenlive:file_hash">992c511397715e3aeec2040cd4eb6fb8</property>
  <property name="kdenlive:audio_max0">241</property>
 </producer>
 <producer id="producer58" in="00:00:00.000" out="00:00:30.900">
  <property name="length">1855</property>
  <property name="eof">pause</property>
  <property name="resource">audio/music/Bodytonic/Mind Body Mind/variations/Mind Body Mind | Interlude.wav</property>
  <property name="meta.media.nb_streams">1</property>
  <property name="meta.media.0.stream.type">audio</property>
  <property name="meta.media.0.codec.sample_fmt">s32</property>
  <property name="meta.media.0.codec.sample_rate">44100</property>
  <property name="meta.media.0.codec.channels">2</property>
  <property name="meta.media.0.codec.name">pcm_s24le</property>
  <property name="meta.media.0.codec.long_name">PCM signed 24-bit little-endian</property>
  <property name="meta.media.0.codec.bit_rate">2116800</property>
  <property name="meta.attr.encoded_by.markup">Logic Pro X</property>
  <property name="meta.attr.date.markup">2017-12-09</property>
  <property name="meta.attr.creation_time.markup">10:18:12</property>
  <property name="meta.attr.time_reference.markup">160604182</property>
  <property name="meta.attr.umid.markup">0x00000000000000000000000000000000000000000000000000000000BA0080B7DE3D537A80695E58FF7F000046845D0801000000B0615E58FF7F0000ECAE5EC2</property>
  <property name="seekable">1</property>
  <property name="audio_index">0</property>
  <property name="video_index">-1</property>
  <property name="mute_on_pause">1</property>
  <property name="mlt_service">avformat</property>
  <property name="kdenlive:clipname"/>
  <property name="kdenlive:clip_type">1</property>
  <property name="kdenlive:folderid">77</property>
  <property name="kdenlive:id">80</property>
  <property name="kdenlive:file_size">8179320</property>
  <property name="kdenlive:file_hash">7e615ce17dfc302481d7f7d156b88a73</property>
  <property name="kdenlive:audio_max0">249</property>
 </producer>
 <producer id="producer60" in="00:00:00.000" out="00:01:20.617">
  <property name="length">4838</property>
  <property name="eof">pause</property>
  <property name="resource">audio/music/Bodytonic/Mind Body Mind/variations/Mind Body Mind | Soft Start.wav</property>
  <property name="meta.media.nb_streams">1</property>
  <property name="meta.media.0.stream.type">audio</property>
  <property name="meta.media.0.codec.sample_fmt">s32</property>
  <property name="meta.media.0.codec.sample_rate">44100</property>
  <property name="meta.media.0.codec.channels">2</property>
  <property name="meta.media.0.codec.name">pcm_s24le</property>
  <property name="meta.media.0.codec.long_name">PCM signed 24-bit little-endian</property>
  <property name="meta.media.0.codec.bit_rate">2116800</property>
  <property name="meta.attr.encoded_by.markup">Logic Pro X</property>
  <property name="meta.attr.date.markup">2017-12-09</property>
  <property name="meta.attr.creation_time.markup">10:19:10</property>
  <property name="meta.attr.time_reference.markup">161887091</property>
  <property name="meta.attr.umid.markup">0x00000000000000000000000000000000000000000000000000000000BA0080B7DE3D537A80695E58FF7F000046845D0801000000B0615E58FF7F0000ECAE5EC2</property>
  <property name="seekable">1</property>
  <property name="audio_index">0</property>
  <property name="video_index">-1</property>
  <property name="mute_on_pause">1</property>
  <property name="mlt_service">avformat</property>
  <property name="kdenlive:clipname"/>
  <property name="kdenlive:clip_type">1</property>
  <property name="kdenlive:folderid">77</property>
  <property name="kdenlive:id">81</property>
  <property name="kdenlive:file_size">21336834</property>
  <property name="kdenlive:file_hash">0314db7a1314632823f2de525bd7ff3c</property>
  <property name="kdenlive:audio_max0">244</property>
 </producer>
 <producer id="producer59" in="00:00:00.000" out="00:02:29.983">
  <property name="length">9000</property>
  <property name="eof">pause</property>
  <property name="resource">audio/music/Bodytonic/Partly Sage/Partly Sage.wav</property>
  <property name="meta.media.nb_streams">1</property>
  <property name="meta.media.0.stream.type">audio</property>
  <property name="meta.media.0.codec.sample_fmt">s32</property>
  <property name="meta.media.0.codec.sample_rate">44100</property>
  <property name="meta.media.0.codec.channels">2</property>
  <property name="meta.media.0.codec.name">pcm_s24le</property>
  <property name="meta.media.0.codec.long_name">PCM signed 24-bit little-endian</property>
  <property name="meta.media.0.codec.bit_rate">2116800</property>
  <property name="meta.attr.encoded_by.markup">Logic Pro X</property>
  <property name="meta.attr.date.markup">2017-06-07</property>
  <property name="meta.attr.creation_time.markup">14:07:43</property>
  <property name="meta.attr.time_reference.markup">158760000</property>
  <property name="meta.attr.umid.markup">0x00000000000000000000000000000000000000000000000000000000440089C0936A1F5780E96459FF7F00004604570701000000B0E16459FF7F0000ECFE8894</property>
  <property name="seekable">1</property>
  <property name="audio_index">0</property>
  <property name="video_index">-1</property>
  <property name="mute_on_pause">1</property>
  <property name="mlt_service">avformat</property>
  <property name="kdenlive:clipname"/>
  <property name="kdenlive:clip_type">1</property>
  <property name="kdenlive:folderid">82</property>
  <property name="kdenlive:id">83</property>
  <property name="kdenlive:file_size">39690730</property>
  <property name="kdenlive:file_hash">c4edab638da9f3e3a12669af3b9087bf</property>
  <property name="kdenlive:audio_max0">256</property>
 </producer>
 <producer id="producer61" in="00:00:00.000" out="00:02:27.867">
  <property name="length">8873</property>
  <property name="eof">pause</property>
  <property name="resource">audio/music/Bodytonic/Partly Sage/stems/01_Partly Sage_Upright Bass.wav</property>
  <property name="meta.media.nb_streams">1</property>
  <property name="meta.media.0.stream.type">audio</property>
  <property name="meta.media.0.codec.sample_fmt">s32</property>
  <property name="meta.media.0.codec.sample_rate">44100</property>
  <property name="meta.media.0.codec.channels">2</property>
  <property name="meta.media.0.codec.name">pcm_s24le</property>
  <property name="meta.media.0.codec.long_name">PCM signed 24-bit little-endian</property>
  <property name="meta.media.0.codec.bit_rate">2116800</property>
  <property name="meta.attr.encoded_by.markup">Logic Pro X</property>
  <property name="meta.attr.date.markup">2017-06-07</property>
  <property name="meta.attr.creation_time.markup">14:13:40</property>
  <property name="meta.attr.time_reference.markup">158760000</property>
  <property name="meta.attr.umid.markup">0x00000000000000000000000000000000000000000000000000000000440089C0936A1F57303C6559FF7F0000460457070100000060346559FF7F0000ECFE8894</property>
  <property name="seekable">1</property>
  <property name="audio_index">0</property>
  <property name="video_index">-1</property>
  <property name="mute_on_pause">1</property>
  <property name="mlt_service">avformat</property>
  <property name="kdenlive:clipname"/>
  <property name="kdenlive:clip_type">1</property>
  <property name="kdenlive:folderid">84</property>
  <property name="kdenlive:id">85</property>
  <property name="kdenlive:file_size">39181248</property>
  <property name="kdenlive:file_hash">a939af6caf642aa911a1adde9b1c8353</property>
  <property name="kdenlive:audio_max0">199</property>
 </producer>
 <producer id="producer62" in="00:00:00.000" out="00:02:27.867">
  <property name="length">8873</property>
  <property name="eof">pause</property>
  <property name="resource">audio/music/Bodytonic/Partly Sage/stems/02_Partly Sage_Piano.wav</property>
  <property name="meta.media.nb_streams">1</property>
  <property name="meta.media.0.stream.type">audio</property>
  <property name="meta.media.0.codec.sample_fmt">s32</property>
  <property name="meta.media.0.codec.sample_rate">44100</property>
  <property name="meta.media.0.codec.channels">2</property>
  <property name="meta.media.0.codec.name">pcm_s24le</property>
  <property name="meta.media.0.codec.long_name">PCM signed 24-bit little-endian</property>
  <property name="meta.media.0.codec.bit_rate">2116800</property>
  <property name="meta.attr.encoded_by.markup">Logic Pro X</property>
  <property name="meta.attr.date.markup">2017-06-07</property>
  <property name="meta.attr.creation_time.markup">14:13:43</property>
  <property name="meta.attr.time_reference.markup">158760000</property>
  <property name="meta.attr.umid.markup">0x00000000000000000000000000000000000000000000000000000000440089C0936A1F57303C6559FF7F0000460457070100000060346559FF7F0000ECFE8894</property>
  <property name="seekable">1</property>
  <property name="audio_index">0</property>
  <property name="video_index">-1</property>
  <property name="mute_on_pause">1</property>
  <property name="mlt_service">avformat</property>
  <property name="kdenlive:clipname"/>
  <property name="kdenlive:clip_type">1</property>
  <property name="kdenlive:folderid">84</property>
  <property name="kdenlive:id">86</property>
  <property name="kdenlive:file_size">39181248</property>
  <property name="kdenlive:file_hash">1c041b1b5ca871ebb488f38cd4b6f5f3</property>
  <property name="kdenlive:audio_max0">177</property>
 </producer>
 <producer id="producer63" in="00:00:00.000" out="00:02:27.867">
  <property name="length">8873</property>
  <property name="eof">pause</property>
  <property name="resource">audio/music/Bodytonic/Partly Sage/stems/03_Partly Sage_Rhodia SynPad.wav</property>
  <property name="meta.media.nb_streams">1</property>
  <property name="meta.media.0.stream.type">audio</property>
  <property name="meta.media.0.codec.sample_fmt">s32</property>
  <property name="meta.media.0.codec.sample_rate">44100</property>
  <property name="meta.media.0.codec.channels">2</property>
  <property name="meta.media.0.codec.name">pcm_s24le</property>
  <property name="meta.media.0.codec.long_name">PCM signed 24-bit little-endian</property>
  <property name="meta.media.0.codec.bit_rate">2116800</property>
  <property name="meta.attr.encoded_by.markup">Logic Pro X</property>
  <property name="meta.attr.date.markup">2017-06-07</property>
  <property name="meta.attr.creation_time.markup">14:13:33</property>
  <property name="meta.attr.time_reference.markup">158760000</property>
  <property name="meta.attr.umid.markup">0x00000000000000000000000000000000000000000000000000000000440089C0936A1F57303C6559FF7F0000460457070100000060346559FF7F0000ECFE8894</property>
  <property name="seekable">1</property>
  <property name="audio_index">0</property>
  <property name="video_index">-1</property>
  <property name="mute_on_pause">1</property>
  <property name="mlt_service">avformat</property>
  <property name="kdenlive:clipname"/>
  <property name="kdenlive:clip_type">1</property>
  <property name="kdenlive:folderid">84</property>
  <property name="kdenlive:id">87</property>
  <property name="kdenlive:file_size">39181248</property>
  <property name="kdenlive:file_hash">0fb664a7b076e42e0dcfab0768ddb932</property>
  <property name="kdenlive:audio_max0">87</property>
 </producer>
 <producer id="producer64" in="00:00:00.000" out="00:02:27.117">
  <property name="length">8828</property>
  <property name="eof">pause</property>
  <property name="resource">audio/music/Bodytonic/Partly Sage/stems/04_Partly Sage_Marimba.wav</property>
  <property name="meta.media.nb_streams">1</property>
  <property name="meta.media.0.stream.type">audio</property>
  <property name="meta.media.0.codec.sample_fmt">s32</property>
  <property name="meta.media.0.codec.sample_rate">44100</property>
  <property name="meta.media.0.codec.channels">2</property>
  <property name="meta.media.0.codec.name">pcm_s24le</property>
  <property name="meta.media.0.codec.long_name">PCM signed 24-bit little-endian</property>
  <property name="meta.media.0.codec.bit_rate">2116800</property>
  <property name="meta.attr.encoded_by.markup">Logic Pro X</property>
  <property name="meta.attr.date.markup">2017-06-07</property>
  <property name="meta.attr.creation_time.markup">14:13:46</property>
  <property name="meta.attr.time_reference.markup">158760000</property>
  <property name="meta.attr.umid.markup">0x00000000000000000000000000000000000000000000000000000000440089C0936A1F57303C6559FF7F0000460457070100000060346559FF7F0000ECFE8894</property>
  <property name="seekable">1</property>
  <property name="audio_index">0</property>
  <property name="video_index">-1</property>
  <property name="mute_on_pause">1</property>
  <property name="mlt_service">avformat</property>
  <property name="kdenlive:clipname"/>
  <property name="kdenlive:clip_type">1</property>
  <property name="kdenlive:folderid">84</property>
  <property name="kdenlive:id">88</property>
  <property name="kdenlive:file_size">38984384</property>
  <property name="kdenlive:file_hash">092cb00c1eb794a88758b7718996ccb5</property>
  <property name="kdenlive:audio_max0">127</property>
 </producer>
 <producer id="producer65" in="00:00:00.000" out="00:02:25.633">
  <property name="length">8739</property>
  <property name="eof">pause</property>
  <property name="resource">audio/music/Bodytonic/Partly Sage/stems/05_Partly Sage_Found Percussion.wav</property>
  <property name="meta.media.nb_streams">1</property>
  <property name="meta.media.0.stream.type">audio</property>
  <property name="meta.media.0.codec.sample_fmt">s32</property>
  <property name="meta.media.0.codec.sample_rate">44100</property>
  <property name="meta.media.0.codec.channels">2</property>
  <property name="meta.media.0.codec.name">pcm_s24le</property>
  <property name="meta.media.0.codec.long_name">PCM signed 24-bit little-endian</property>
  <property name="meta.media.0.codec.bit_rate">2116800</property>
  <property name="meta.attr.encoded_by.markup">Logic Pro X</property>
  <property name="meta.attr.date.markup">2017-06-07</property>
  <property name="meta.attr.creation_time.markup">14:13:37</property>
  <property name="meta.attr.time_reference.markup">158760000</property>
  <property name="meta.attr.umid.markup">0x00000000000000000000000000000000000000000000000000000000440089C0936A1F57303C6559FF7F0000460457070100000060346559FF7F0000ECFE8894</property>
  <property name="seekable">1</property>
  <property name="audio_index">0</property>
  <property name="video_index">-1</property>
  <property name="mute_on_pause">1</property>
  <property name="mlt_service">avformat</property>
  <property name="kdenlive:clipname"/>
  <property name="kdenlive:clip_type">1</property>
  <property name="kdenlive:folderid">84</property>
  <property name="kdenlive:id">89</property>
  <property name="kdenlive:file_size">38590656</property>
  <property name="kdenlive:file_hash">4b13a48bb801cb873504e398b6f093b2</property>
  <property name="kdenlive:audio_max0">249</property>
 </producer>
 <producer id="producer66" in="00:00:00.000" out="00:01:10.900">
  <property name="length">4255</property>
  <property name="eof">pause</property>
  <property name="resource">audio/music/Bodytonic/Partly Sage/variations/Partly Sage | 1 Min.wav</property>
  <property name="meta.media.nb_streams">1</property>
  <property name="meta.media.0.stream.type">audio</property>
  <property name="meta.media.0.codec.sample_fmt">s32</property>
  <property name="meta.media.0.codec.sample_rate">44100</property>
  <property name="meta.media.0.codec.channels">2</property>
  <property name="meta.media.0.codec.name">pcm_s24le</property>
  <property name="meta.media.0.codec.long_name">PCM signed 24-bit little-endian</property>
  <property name="meta.media.0.codec.bit_rate">2116800</property>
  <property name="meta.attr.encoded_by.markup">Logic Pro X</property>
  <property name="meta.attr.date.markup">2017-06-07</property>
  <property name="meta.attr.creation_time.markup">14:17:01</property>
  <property name="meta.attr.time_reference.markup">162288000</property>
  <property name="meta.attr.umid.markup">0x00000000000000000000000000000000000000000000000000000000440089C0936A1F5780E96459FF7F00004604570701000000B0E16459FF7F0000ECFE8894</property>
  <property name="seekable">1</property>
  <property name="audio_index">0</property>
  <property name="video_index">-1</property>
  <property name="mute_on_pause">1</property>
  <property name="mlt_service">avformat</property>
  <property name="kdenlive:clipname"/>
  <property name="kdenlive:clip_type">1</property>
  <property name="kdenlive:folderid">90</property>
  <property name="kdenlive:id">91</property>
  <property name="kdenlive:file_size">18763276</property>
  <property name="kdenlive:file_hash">51da41e8fd538a1816363dedbff1b4c6</property>
  <property name="kdenlive:audio_max0">256</property>
 </producer>
 <producer id="producer67" in="00:00:00.000" out="00:00:33.433">
  <property name="length">2007</property>
  <property name="eof">pause</property>
  <property name="resource">audio/music/Bodytonic/Partly Sage/variations/Partly Sage | 30 Sec.wav</property>
  <property name="meta.media.nb_streams">1</property>
  <property name="meta.media.0.stream.type">audio</property>
  <property name="meta.media.0.codec.sample_fmt">s32</property>
  <property name="meta.media.0.codec.sample_rate">44100</property>
  <property name="meta.media.0.codec.channels">2</property>
  <property name="meta.media.0.codec.name">pcm_s24le</property>
  <property name="meta.media.0.codec.long_name">PCM signed 24-bit little-endian</property>
  <property name="meta.media.0.codec.bit_rate">2116800</property>
  <property name="meta.attr.encoded_by.markup">Logic Pro X</property>
  <property name="meta.attr.date.markup">2017-06-07</property>
  <property name="meta.attr.creation_time.markup">14:15:57</property>
  <property name="meta.attr.time_reference.markup">158760000</property>
  <property name="meta.attr.umid.markup">0x00000000000000000000000000000000000000000000000000000000440089C0936A1F5780E96459FF7F00004604570701000000B0E16459FF7F0000ECFE8894</property>
  <property name="seekable">1</property>
  <property name="audio_index">0</property>
  <property name="video_index">-1</property>
  <property name="mute_on_pause">1</property>
  <property name="mlt_service">avformat</property>
  <property name="kdenlive:clipname"/>
  <property name="kdenlive:clip_type">1</property>
  <property name="kdenlive:folderid">90</property>
  <property name="kdenlive:id">92</property>
  <property name="kdenlive:file_size">8853272</property>
  <property name="kdenlive:file_hash">44d94abb6bec79b4db3d2992b57f0774</property>
  <property name="kdenlive:audio_max0">232</property>
 </producer>
 <producer id="producer68" in="00:00:00.000" out="00:01:59.983">
  <property name="length">7200</property>
  <property name="eof">pause</property>
  <property name="resource">audio/music/Bodytonic/Partly Sage/variations/Partly Sage | Atmo with Marimba.wav</property>
  <property name="meta.media.nb_streams">1</property>
  <property name="meta.media.0.stream.type">audio</property>
  <property name="meta.media.0.codec.sample_fmt">s32</property>
  <property name="meta.media.0.codec.sample_rate">44100</property>
  <property name="meta.media.0.codec.channels">2</property>
  <property name="meta.media.0.codec.name">pcm_s24le</property>
  <property name="meta.media.0.codec.long_name">PCM signed 24-bit little-endian</property>
  <property name="meta.media.0.codec.bit_rate">2116800</property>
  <property name="meta.attr.encoded_by.markup">Logic Pro X</property>
  <property name="meta.attr.date.markup">2017-06-07</property>
  <property name="meta.attr.creation_time.markup">14:24:00</property>
  <property name="meta.attr.time_reference.markup">160363636</property>
  <property name="meta.attr.umid.markup">0x00000000000000000000000000000000000000000000000000000000440089C0936A1F5780E96459FF7F00004604570701000000B0E16459FF7F0000ECFE8894</property>
  <property name="seekable">1</property>
  <property name="audio_index">0</property>
  <property name="video_index">-1</property>
  <property name="mute_on_pause">1</property>
  <property name="mlt_service">avformat</property>
  <property name="kdenlive:clipname"/>
  <property name="kdenlive:clip_type">1</property>
  <property name="kdenlive:folderid">90</property>
  <property name="kdenlive:id">93</property>
  <property name="kdenlive:file_size">31752730</property>
  <property name="kdenlive:file_hash">e4a8cfb22eab019f933139d53fb6cc3e</property>
  <property name="kdenlive:audio_max0">248</property>
 </producer>
 <producer id="producer70" in="00:00:00.000" out="00:02:03.617">
  <property name="length">7418</property>
  <property name="eof">pause</property>
  <property name="resource">audio/music/Bodytonic/Partly Sage/variations/Partly Sage | Atmo.wav</property>
  <property name="meta.media.nb_streams">1</property>
  <property name="meta.media.0.stream.type">audio</property>
  <property name="meta.media.0.codec.sample_fmt">s32</property>
  <property name="meta.media.0.codec.sample_rate">44100</property>
  <property name="meta.media.0.codec.channels">2</property>
  <property name="meta.media.0.codec.name">pcm_s24le</property>
  <property name="meta.media.0.codec.long_name">PCM signed 24-bit little-endian</property>
  <property name="meta.media.0.codec.bit_rate">2116800</property>
  <property name="meta.attr.encoded_by.markup">Logic Pro X</property>
  <property name="meta.attr.date.markup">2017-06-07</property>
  <property name="meta.attr.creation_time.markup">14:21:45</property>
  <property name="meta.attr.time_reference.markup">160363636</property>
  <property name="meta.attr.umid.markup">0x00000000000000000000000000000000000000000000000000000000440089C0936A1F5780E96459FF7F00004604570701000000B0E16459FF7F0000ECFE8894</property>
  <property name="seekable">1</property>
  <property name="audio_index">0</property>
  <property name="video_index">-1</property>
  <property name="mute_on_pause">1</property>
  <property name="mlt_service">avformat</property>
  <property name="kdenlive:clipname"/>
  <property name="kdenlive:clip_type">1</property>
  <property name="kdenlive:folderid">90</property>
  <property name="kdenlive:id">94</property>
  <property name="kdenlive:file_size">32714914</property>
  <property name="kdenlive:file_hash">c896ee755977c994abf76beb133f66db</property>
  <property name="kdenlive:audio_max0">254</property>
 </producer>
 <producer id="producer69" in="00:00:00.000" out="00:01:56.117">
  <property name="length">6968</property>
  <property name="eof">pause</property>
  <property name="resource">audio/music/Bodytonic/Partly Sage/variations/Partly Sage | Piano Feature.wav</property>
  <property name="meta.media.nb_streams">1</property>
  <property name="meta.media.0.stream.type">audio</property>
  <property name="meta.media.0.codec.sample_fmt">s32</property>
  <property name="meta.media.0.codec.sample_rate">44100</property>
  <property name="meta.media.0.codec.channels">2</property>
  <property name="meta.media.0.codec.name">pcm_s24le</property>
  <property name="meta.media.0.codec.long_name">PCM signed 24-bit little-endian</property>
  <property name="meta.media.0.codec.bit_rate">2116800</property>
  <property name="meta.attr.encoded_by.markup">Logic Pro X</property>
  <property name="meta.attr.date.markup">2017-06-07</property>
  <property name="meta.attr.creation_time.markup">14:18:46</property>
  <property name="meta.attr.time_reference.markup">160808516</property>
  <property name="meta.attr.umid.markup">0x00000000000000000000000000000000000000000000000000000000440089C0936A1F5780E96459FF7F00004604570701000000B0E16459FF7F0000ECFE8894</property>
  <property name="seekable">1</property>
  <property name="audio_index">0</property>
  <property name="video_index">-1</property>
  <property name="mute_on_pause">1</property>
  <property name="mlt_service">avformat</property>
  <property name="kdenlive:clipname"/>
  <property name="kdenlive:clip_type">1</property>
  <property name="kdenlive:folderid">90</property>
  <property name="kdenlive:id">95</property>
  <property name="kdenlive:file_size">30728470</property>
  <property name="kdenlive:file_hash">f1a747a40e2b6f45f278c90621e62577</property>
  <property name="kdenlive:audio_max0">254</property>
 </producer>
 <producer id="producer71" in="00:00:00.000" out="00:04:05.433">
  <property name="length">14727</property>
  <property name="eof">pause</property>
  <property name="resource">audio/music/Bodytonic/Soothe/Soothe.wav</property>
  <property name="meta.media.nb_streams">1</property>
  <property name="meta.media.0.stream.type">audio</property>
  <property name="meta.media.0.codec.sample_fmt">s32</property>
  <property name="meta.media.0.codec.sample_rate">44100</property>
  <property name="meta.media.0.codec.channels">2</property>
  <property name="meta.media.0.codec.name">pcm_s24le</property>
  <property name="meta.media.0.codec.long_name">PCM signed 24-bit little-endian</property>
  <property name="meta.media.0.codec.bit_rate">2116800</property>
  <property name="meta.attr.encoded_by.markup">Logic Pro X</property>
  <property name="meta.attr.date.markup">2017-08-08</property>
  <property name="meta.attr.creation_time.markup">15:40:26</property>
  <property name="meta.attr.time_reference.markup">158760000</property>
  <property name="meta.attr.umid.markup">0x0000000000000000000000000000000000000000000000000000000032005DC06BA986FA8069AC54FF7F000046840F0C01000000B061AC54FF7F0000EC5E66BC</property>
  <property name="seekable">1</property>
  <property name="audio_index">0</property>
  <property name="video_index">-1</property>
  <property name="mute_on_pause">1</property>
  <property name="mlt_service">avformat</property>
  <property name="kdenlive:clipname"/>
  <property name="kdenlive:clip_type">1</property>
  <property name="kdenlive:folderid">96</property>
  <property name="kdenlive:id">97</property>
  <property name="kdenlive:file_size">64948000</property>
  <property name="kdenlive:file_hash">d5c1323dbd69b3edb3410c297a8d4ee4</property>
  <property name="kdenlive:audio_max0">256</property>
 </producer>
 <producer id="producer72" in="00:00:00.000" out="00:04:01.483">
  <property name="length">14490</property>
  <property name="eof">pause</property>
  <property name="resource">audio/music/Bodytonic/Soothe/stems/01_Soothe_Upright Bass.wav</property>
  <property name="meta.media.nb_streams">1</property>
  <property name="meta.media.0.stream.type">audio</property>
  <property name="meta.media.0.codec.sample_fmt">s32</property>
  <property name="meta.media.0.codec.sample_rate">44100</property>
  <property name="meta.media.0.codec.channels">2</property>
  <property name="meta.media.0.codec.name">pcm_s24le</property>
  <property name="meta.media.0.codec.long_name">PCM signed 24-bit little-endian</property>
  <property name="meta.media.0.codec.bit_rate">2116800</property>
  <property name="meta.attr.encoded_by.markup">Logic Pro X</property>
  <property name="meta.attr.date.markup">2017-08-08</property>
  <property name="meta.attr.creation_time.markup">15:38:16</property>
  <property name="meta.attr.time_reference.markup">158760000</property>
  <property name="meta.attr.umid.markup">0x0000000000000000000000000000000000000000000000000000000032005DC06BA986FA20BCAC54FF7F000046840F0C0100000050B4AC54FF7F0000EC5E66BC</property>
  <property name="seekable">1</property>
  <property name="audio_index">0</property>
  <property name="video_index">-1</property>
  <property name="mute_on_pause">1</property>
  <property name="mlt_service">avformat</property>
  <property name="kdenlive:clipname"/>
  <property name="kdenlive:clip_type">1</property>
  <property name="kdenlive:folderid">98</property>
  <property name="kdenlive:id">99</property>
  <property name="kdenlive:file_size">63986112</property>
  <property name="kdenlive:file_hash">18f7f1cd41ec192fe4e898c306824bec</property>
  <property name="kdenlive:audio_max0">233</property>
 </producer>
 <producer id="producer73" in="00:00:00.000" out="00:03:46.633">
  <property name="length">13599</property>
  <property name="eof">pause</property>
  <property name="resource">audio/music/Bodytonic/Soothe/stems/02_Soothe_Piano.wav</property>
  <property name="meta.media.nb_streams">1</property>
  <property name="meta.media.0.stream.type">audio</property>
  <property name="meta.media.0.codec.sample_fmt">s32</property>
  <property name="meta.media.0.codec.sample_rate">44100</property>
  <property name="meta.media.0.codec.channels">2</property>
  <property name="meta.media.0.codec.name">pcm_s24le</property>
  <property name="meta.media.0.codec.long_name">PCM signed 24-bit little-endian</property>
  <property name="meta.media.0.codec.bit_rate">2116800</property>
  <property name="meta.attr.encoded_by.markup">Logic Pro X</property>
  <property name="meta.attr.date.markup">2017-08-08</property>
  <property name="meta.attr.creation_time.markup">15:38:22</property>
  <property name="meta.attr.time_reference.markup">158760000</property>
  <property name="meta.attr.umid.markup">0x0000000000000000000000000000000000000000000000000000000032005DC06BA986FA20BCAC54FF7F000046840F0C0100000050B4AC54FF7F0000EC5E66BC</property>
  <property name="seekable">1</property>
  <property name="audio_index">0</property>
  <property name="video_index">-1</property>
  <property name="mute_on_pause">1</property>
  <property name="mlt_service">avformat</property>
  <property name="kdenlive:clipname"/>
  <property name="kdenlive:clip_type">1</property>
  <property name="kdenlive:folderid">98</property>
  <property name="kdenlive:id">100</property>
  <property name="kdenlive:file_size">60048832</property>
  <property name="kdenlive:file_hash">7eef7aa287bed027443f8472be37fe16</property>
  <property name="kdenlive:audio_max0">180</property>
 </producer>
 <producer id="producer74" in="00:00:00.000" out="00:03:58.517">
  <property name="length">14312</property>
  <property name="eof">pause</property>
  <property name="resource">audio/music/Bodytonic/Soothe/stems/03_Soothe_Marimba.wav</property>
  <property name="meta.media.nb_streams">1</property>
  <property name="meta.media.0.stream.type">audio</property>
  <property name="meta.media.0.codec.sample_fmt">s32</property>
  <property name="meta.media.0.codec.sample_rate">44100</property>
  <property name="meta.media.0.codec.channels">2</property>
  <property name="meta.media.0.codec.name">pcm_s24le</property>
  <property name="meta.media.0.codec.long_name">PCM signed 24-bit little-endian</property>
  <property name="meta.media.0.codec.bit_rate">2116800</property>
  <property name="meta.attr.encoded_by.markup">Logic Pro X</property>
  <property name="meta.attr.date.markup">2017-08-08</property>
  <property name="meta.attr.creation_time.markup">15:38:32</property>
  <property name="meta.attr.time_reference.markup">158760000</property>
  <property name="meta.attr.umid.markup">0x0000000000000000000000000000000000000000000000000000000032005DC06BA986FA20BCAC54FF7F000046840F0C0100000050B4AC54FF7F0000EC5E66BC</property>
  <property name="seekable">1</property>
  <property name="audio_index">0</property>
  <property name="video_index">-1</property>
  <property name="mute_on_pause">1</property>
  <property name="mlt_service">avformat</property>
  <property name="kdenlive:clipname"/>
  <property name="kdenlive:clip_type">1</property>
  <property name="kdenlive:folderid">98</property>
  <property name="kdenlive:id">101</property>
  <property name="kdenlive:file_size">63198656</property>
  <property name="kdenlive:file_hash">418e0b637055924c917b724b6738c2d6</property>
  <property name="kdenlive:audio_max0">140</property>
 </producer>
 <producer id="producer75" in="00:00:00.000" out="00:04:00.000">
  <property name="length">14401</property>
  <property name="eof">pause</property>
  <property name="resource">audio/music/Bodytonic/Soothe/stems/04_Soothe_Drum Kit.wav</property>
  <property name="meta.media.nb_streams">1</property>
  <property name="meta.media.0.stream.type">audio</property>
  <property name="meta.media.0.codec.sample_fmt">s32</property>
  <property name="meta.media.0.codec.sample_rate">44100</property>
  <property name="meta.media.0.codec.channels">2</property>
  <property name="meta.media.0.codec.name">pcm_s24le</property>
  <property name="meta.media.0.codec.long_name">PCM signed 24-bit little-endian</property>
  <property name="meta.media.0.codec.bit_rate">2116800</property>
  <property name="meta.attr.encoded_by.markup">Logic Pro X</property>
  <property name="meta.attr.date.markup">2017-08-08</property>
  <property name="meta.attr.creation_time.markup">15:38:27</property>
  <property name="meta.attr.time_reference.markup">158760000</property>
  <property name="meta.attr.umid.markup">0x0000000000000000000000000000000000000000000000000000000032005DC06BA986FA20BCAC54FF7F000046840F0C0100000050B4AC54FF7F0000EC5E66BC</property>
  <property name="seekable">1</property>
  <property name="audio_index">0</property>
  <property name="video_index">-1</property>
  <property name="mute_on_pause">1</property>
  <property name="mlt_service">avformat</property>
  <property name="kdenlive:clipname"/>
  <property name="kdenlive:clip_type">1</property>
  <property name="kdenlive:folderid">98</property>
  <property name="kdenlive:id">102</property>
  <property name="kdenlive:file_size">63592384</property>
  <property name="kdenlive:file_hash">a42e0e73f030ed6c79210fa0c4d52f72</property>
  <property name="kdenlive:audio_max0">169</property>
 </producer>
 <producer id="producer76" in="00:00:00.000" out="00:03:47.367">
  <property name="length">13643</property>
  <property name="eof">pause</property>
  <property name="resource">audio/music/Bodytonic/Soothe/stems/05_Soothe_Found Percussion.wav</property>
  <property name="meta.media.nb_streams">1</property>
  <property name="meta.media.0.stream.type">audio</property>
  <property name="meta.media.0.codec.sample_fmt">s32</property>
  <property name="meta.media.0.codec.sample_rate">44100</property>
  <property name="meta.media.0.codec.channels">2</property>
  <property name="meta.media.0.codec.name">pcm_s24le</property>
  <property name="meta.media.0.codec.long_name">PCM signed 24-bit little-endian</property>
  <property name="meta.media.0.codec.bit_rate">2116800</property>
  <property name="meta.attr.encoded_by.markup">Logic Pro X</property>
  <property name="meta.attr.date.markup">2017-08-08</property>
  <property name="meta.attr.creation_time.markup">15:38:11</property>
  <property name="meta.attr.time_reference.markup">158760000</property>
  <property name="meta.attr.umid.markup">0x0000000000000000000000000000000000000000000000000000000032005DC06BA986FA20BCAC54FF7F000046840F0C0100000050B4AC54FF7F0000EC5E66BC</property>
  <property name="seekable">1</property>
  <property name="audio_index">0</property>
  <property name="video_index">-1</property>
  <property name="mute_on_pause">1</property>
  <property name="mlt_service">avformat</property>
  <property name="kdenlive:clipname"/>
  <property name="kdenlive:clip_type">1</property>
  <property name="kdenlive:folderid">98</property>
  <property name="kdenlive:id">103</property>
  <property name="kdenlive:file_size">60245696</property>
  <property name="kdenlive:file_hash">4a484528530ccc79b2019ec01057b866</property>
  <property name="kdenlive:audio_max0">256</property>
 </producer>
 <producer id="producer77" in="00:00:00.000" out="00:00:58.167">
  <property name="length">3491</property>
  <property name="eof">pause</property>
  <property name="resource">audio/music/Bodytonic/Soothe/variations/Soothe | 1 Min.wav</property>
  <property name="meta.media.nb_streams">1</property>
  <property name="meta.media.0.stream.type">audio</property>
  <property name="meta.media.0.codec.sample_fmt">s32</property>
  <property name="meta.media.0.codec.sample_rate">44100</property>
  <property name="meta.media.0.codec.channels">2</property>
  <property name="meta.media.0.codec.name">pcm_s24le</property>
  <property name="meta.media.0.codec.long_name">PCM signed 24-bit little-endian</property>
  <property name="meta.media.0.codec.bit_rate">2116800</property>
  <property name="meta.attr.encoded_by.markup">Logic Pro X</property>
  <property name="meta.attr.date.markup">2017-08-08</property>
  <property name="meta.attr.creation_time.markup">15:45:28</property>
  <property name="meta.attr.time_reference.markup">166938545</property>
  <property name="meta.attr.umid.markup">0x0000000000000000000000000000000000000000000000000000000032005DC06BA986FA8069AC54FF7F000046840F0C01000000B061AC54FF7F0000EC5E66BC</property>
  <property name="seekable">1</property>
  <property name="audio_index">0</property>
  <property name="video_index">-1</property>
  <property name="mute_on_pause">1</property>
  <property name="mlt_service">avformat</property>
  <property name="kdenlive:clipname"/>
  <property name="kdenlive:clip_type">1</property>
  <property name="kdenlive:folderid">104</property>
  <property name="kdenlive:id">105</property>
  <property name="kdenlive:file_size">15395638</property>
  <property name="kdenlive:file_hash">1dd085b6674efedfd535d060cc943db1</property>
  <property name="kdenlive:audio_max0">252</property>
 </producer>
 <producer id="producer78" in="00:00:00.000" out="00:00:30.900">
  <property name="length">1855</property>
  <property name="eof">pause</property>
  <property name="resource">audio/music/Bodytonic/Soothe/variations/Soothe | 30 Sec.wav</property>
  <property name="meta.media.nb_streams">1</property>
  <property name="meta.media.0.stream.type">audio</property>
  <property name="meta.media.0.codec.sample_fmt">s32</property>
  <property name="meta.media.0.codec.sample_rate">44100</property>
  <property name="meta.media.0.codec.channels">2</property>
  <property name="meta.media.0.codec.name">pcm_s24le</property>
  <property name="meta.media.0.codec.long_name">PCM signed 24-bit little-endian</property>
  <property name="meta.media.0.codec.bit_rate">2116800</property>
  <property name="meta.attr.encoded_by.markup">Logic Pro X</property>
  <property name="meta.attr.date.markup">2017-08-08</property>
  <property name="meta.attr.creation_time.markup">15:44:43</property>
  <property name="meta.attr.time_reference.markup">159080727</property>
  <property name="meta.attr.umid.markup">0x0000000000000000000000000000000000000000000000000000000032005DC06BA986FA8069AC54FF7F000046840F0C01000000B061AC54FF7F0000EC5E66BC</property>
  <property name="seekable">1</property>
  <property name="audio_index">0</property>
  <property name="video_index">-1</property>
  <property name="mute_on_pause">1</property>
  <property name="mlt_service">avformat</property>
  <property name="kdenlive:clipname"/>
  <property name="kdenlive:clip_type">1</property>
  <property name="kdenlive:folderid">104</property>
  <property name="kdenlive:id">106</property>
  <property name="kdenlive:file_size">8179276</property>
  <property name="kdenlive:file_hash">09782769eebd1bff0dc4ad0b86ccc068</property>
  <property name="kdenlive:audio_max0">256</property>
 </producer>
 <producer id="producer79" in="00:00:00.000" out="00:03:25.433">
  <property name="length">12327</property>
  <property name="eof">pause</property>
  <property name="resource">audio/music/Bodytonic/Soothe/variations/Soothe | Alt Start.wav</property>
  <property name="meta.media.nb_streams">1</property>
  <property name="meta.media.0.stream.type">audio</property>
  <property name="meta.media.0.codec.sample_fmt">s32</property>
  <property name="meta.media.0.codec.sample_rate">44100</property>
  <property name="meta.media.0.codec.channels">2</property>
  <property name="meta.media.0.codec.name">pcm_s24le</property>
  <property name="meta.media.0.codec.long_name">PCM signed 24-bit little-endian</property>
  <property name="meta.media.0.codec.bit_rate">2116800</property>
  <property name="meta.attr.encoded_by.markup">Logic Pro X</property>
  <property name="meta.attr.date.markup">2017-08-08</property>
  <property name="meta.attr.creation_time.markup">15:42:19</property>
  <property name="meta.attr.time_reference.markup">160524000</property>
  <property name="meta.attr.umid.markup">0x0000000000000000000000000000000000000000000000000000000032005DC06BA986FA8069AC54FF7F000046840F0C01000000B061AC54FF7F0000EC5E66BC</property>
  <property name="seekable">1</property>
  <property name="audio_index">0</property>
  <property name="video_index">-1</property>
  <property name="mute_on_pause">1</property>
  <property name="mlt_service">avformat</property>
  <property name="kdenlive:clipname"/>
  <property name="kdenlive:clip_type">1</property>
  <property name="kdenlive:folderid">104</property>
  <property name="kdenlive:id">107</property>
  <property name="kdenlive:file_size">54364000</property>
  <property name="kdenlive:file_hash">8e6032c35e9363f1b46a75e275ecb528</property>
  <property name="kdenlive:audio_max0">256</property>
 </producer>
 <producer id="producer80" in="00:00:00.000" out="00:02:45.200">
  <property name="length">9913</property>
  <property name="eof">pause</property>
  <property name="resource">audio/music/Bodytonic/Soothe/variations/Soothe | Jazz Lines.wav</property>
  <property name="meta.media.nb_streams">1</property>
  <property name="meta.media.0.stream.type">audio</property>
  <property name="meta.media.0.codec.sample_fmt">s32</property>
  <property name="meta.media.0.codec.sample_rate">44100</property>
  <property name="meta.media.0.codec.channels">2</property>
  <property name="meta.media.0.codec.name">pcm_s24le</property>
  <property name="meta.media.0.codec.long_name">PCM signed 24-bit little-endian</property>
  <property name="meta.media.0.codec.bit_rate">2116800</property>
  <property name="meta.attr.encoded_by.markup">Logic Pro X</property>
  <property name="meta.attr.date.markup">2017-08-08</property>
  <property name="meta.attr.creation_time.markup">15:51:57</property>
  <property name="meta.attr.time_reference.markup">161827826</property>
  <property name="meta.attr.umid.markup">0x0000000000000000000000000000000000000000000000000000000032005DC06BA986FA8069AC54FF7F000046840F0C01000000B061AC54FF7F0000EC5E66BC</property>
  <property name="seekable">1</property>
  <property name="audio_index">0</property>
  <property name="video_index">-1</property>
  <property name="mute_on_pause">1</property>
  <property name="mlt_service">avformat</property>
  <property name="kdenlive:clipname"/>
  <property name="kdenlive:clip_type">1</property>
  <property name="kdenlive:folderid">104</property>
  <property name="kdenlive:id">108</property>
  <property name="kdenlive:file_size">43717252</property>
  <property name="kdenlive:file_hash">d01d84729fa128245b141b97586cfe42</property>
  <property name="kdenlive:audio_max0">250</property>
 </producer>
 <producer id="producer81" in="00:00:00.000" out="00:03:21.800">
  <property name="length">12109</property>
  <property name="eof">pause</property>
  <property name="resource">audio/music/Bodytonic/Soothe/variations/Soothe | Marimba Leader.wav</property>
  <property name="meta.media.nb_streams">1</property>
  <property name="meta.media.0.stream.type">audio</property>
  <property name="meta.media.0.codec.sample_fmt">s32</property>
  <property name="meta.media.0.codec.sample_rate">44100</property>
  <property name="meta.media.0.codec.channels">2</property>
  <property name="meta.media.0.codec.name">pcm_s24le</property>
  <property name="meta.media.0.codec.long_name">PCM signed 24-bit little-endian</property>
  <property name="meta.media.0.codec.bit_rate">2116800</property>
  <property name="meta.attr.encoded_by.markup">Logic Pro X</property>
  <property name="meta.attr.date.markup">2017-08-08</property>
  <property name="meta.attr.creation_time.markup">15:46:45</property>
  <property name="meta.attr.time_reference.markup">160684363</property>
  <property name="meta.attr.umid.markup">0x0000000000000000000000000000000000000000000000000000000032005DC06BA986FA8069AC54FF7F000046840F0C01000000B061AC54FF7F0000EC5E66BC</property>
  <property name="seekable">1</property>
  <property name="audio_index">0</property>
  <property name="video_index">-1</property>
  <property name="mute_on_pause">1</property>
  <property name="mlt_service">avformat</property>
  <property name="kdenlive:clipname"/>
  <property name="kdenlive:clip_type">1</property>
  <property name="kdenlive:folderid">104</property>
  <property name="kdenlive:id">109</property>
  <property name="kdenlive:file_size">53401822</property>
  <property name="kdenlive:file_hash">911590d27c06a9fd329ced5ecbde936b</property>
  <property name="kdenlive:audio_max0">252</property>
 </producer>
 <producer id="producer83" in="00:00:00.000" out="00:04:05.433">
  <property name="length">14727</property>
  <property name="eof">pause</property>
  <property name="resource">audio/music/Bodytonic/Soothe/variations/Soothe | No Piano.wav</property>
  <property name="meta.media.nb_streams">1</property>
  <property name="meta.media.0.stream.type">audio</property>
  <property name="meta.media.0.codec.sample_fmt">s32</property>
  <property name="meta.media.0.codec.sample_rate">44100</property>
  <property name="meta.media.0.codec.channels">2</property>
  <property name="meta.media.0.codec.name">pcm_s24le</property>
  <property name="meta.media.0.codec.long_name">PCM signed 24-bit little-endian</property>
  <property name="meta.media.0.codec.bit_rate">2116800</property>
  <property name="meta.attr.encoded_by.markup">Logic Pro X</property>
  <property name="meta.attr.date.markup">2017-08-08</property>
  <property name="meta.attr.creation_time.markup">15:48:13</property>
  <property name="meta.attr.time_reference.markup">158760000</property>
  <property name="meta.attr.umid.markup">0x0000000000000000000000000000000000000000000000000000000032005DC06BA986FA8069AC54FF7F000046840F0C01000000B061AC54FF7F0000EC5E66BC</property>
  <property name="seekable">1</property>
  <property name="audio_index">0</property>
  <property name="video_index">-1</property>
  <property name="mute_on_pause">1</property>
  <property name="mlt_service">avformat</property>
  <property name="kdenlive:clipname"/>
  <property name="kdenlive:clip_type">1</property>
  <property name="kdenlive:folderid">104</property>
  <property name="kdenlive:id">110</property>
  <property name="kdenlive:file_size">64948000</property>
  <property name="kdenlive:file_hash">5ff24a0b10e19d873f4479795c86bec9</property>
  <property name="kdenlive:audio_max0">254</property>
 </producer>
 <producer id="producer82" in="00:00:00.000" out="00:03:07.250">
  <property name="length">11236</property>
  <property name="eof">pause</property>
  <property name="resource">audio/music/Bodytonic/Thannoid/Thannoid | Minimal Marimba.wav</property>
  <property name="meta.media.nb_streams">1</property>
  <property name="meta.media.0.stream.type">audio</property>
  <property name="meta.media.0.codec.sample_fmt">s32</property>
  <property name="meta.media.0.codec.sample_rate">44100</property>
  <property name="meta.media.0.codec.channels">2</property>
  <property name="meta.media.0.codec.name">pcm_s24le</property>
  <property name="meta.media.0.codec.long_name">PCM signed 24-bit little-endian</property>
  <property name="meta.media.0.codec.bit_rate">2116800</property>
  <property name="meta.attr.encoded_by.markup">Logic Pro X</property>
  <property name="meta.attr.date.markup">2017-06-08</property>
  <property name="meta.attr.creation_time.markup">12:12:47</property>
  <property name="meta.attr.time_reference.markup">158760000</property>
  <property name="meta.attr.umid.markup">0x00000000000000000000000000000000000000000000000000000000A200AAFA29A23A358059595BFF7F00004694620501000000B051595BFF7F0000ECFE8894</property>
  <property name="seekable">1</property>
  <property name="audio_index">0</property>
  <property name="video_index">-1</property>
  <property name="mute_on_pause">1</property>
  <property name="mlt_service">avformat</property>
  <property name="kdenlive:clipname"/>
  <property name="kdenlive:clip_type">1</property>
  <property name="kdenlive:folderid">111</property>
  <property name="kdenlive:id">112</property>
  <property name="kdenlive:file_size">49553092</property>
  <property name="kdenlive:file_hash">932daddb50aabfa82b900cd893e93aaf</property>
  <property name="kdenlive:audio_max0">255</property>
 </producer>
 <producer id="producer84" in="00:00:00.000" out="00:03:03.167">
  <property name="length">10991</property>
  <property name="eof">pause</property>
  <property name="resource">audio/music/Bodytonic/Thannoid/Thannoid.wav</property>
  <property name="meta.media.nb_streams">1</property>
  <property name="meta.media.0.stream.type">audio</property>
  <property name="meta.media.0.codec.sample_fmt">s32</property>
  <property name="meta.media.0.codec.sample_rate">44100</property>
  <property name="meta.media.0.codec.channels">2</property>
  <property name="meta.media.0.codec.name">pcm_s24le</property>
  <property name="meta.media.0.codec.long_name">PCM signed 24-bit little-endian</property>
  <property name="meta.media.0.codec.bit_rate">2116800</property>
  <property name="meta.attr.encoded_by.markup">Logic Pro X</property>
  <property name="meta.attr.date.markup">2017-06-08</property>
  <property name="meta.attr.creation_time.markup">11:58:37</property>
  <property name="meta.attr.time_reference.markup">158760000</property>
  <property name="meta.attr.umid.markup">0x00000000000000000000000000000000000000000000000000000000A200AAFA29A23A358059595BFF7F00004694620501000000B051595BFF7F0000ECFE8894</property>
  <property name="seekable">1</property>
  <property name="audio_index">0</property>
  <property name="video_index">-1</property>
  <property name="mute_on_pause">1</property>
  <property name="mlt_service">avformat</property>
  <property name="kdenlive:clipname"/>
  <property name="kdenlive:clip_type">1</property>
  <property name="kdenlive:folderid">111</property>
  <property name="kdenlive:id">113</property>
  <property name="kdenlive:file_size">48470638</property>
  <property name="kdenlive:file_hash">d01b2267fd4c82a6c4e00c53126f5078</property>
  <property name="kdenlive:audio_max0">253</property>
 </producer>
 <producer id="producer85" in="00:00:00.000" out="00:02:59.067">
  <property name="length">10745</property>
  <property name="eof">pause</property>
  <property name="resource">audio/music/Bodytonic/Thannoid/stems/01_Thannoid_Upright Bass.wav</property>
  <property name="meta.media.nb_streams">1</property>
  <property name="meta.media.0.stream.type">audio</property>
  <property name="meta.media.0.codec.sample_fmt">s32</property>
  <property name="meta.media.0.codec.sample_rate">44100</property>
  <property name="meta.media.0.codec.channels">2</property>
  <property name="meta.media.0.codec.name">pcm_s24le</property>
  <property name="meta.media.0.codec.long_name">PCM signed 24-bit little-endian</property>
  <property name="meta.media.0.codec.bit_rate">2116800</property>
  <property name="meta.attr.encoded_by.markup">Logic Pro X</property>
  <property name="meta.attr.date.markup">2017-06-08</property>
  <property name="meta.attr.creation_time.markup">12:02:34</property>
  <property name="meta.attr.time_reference.markup">158760000</property>
  <property name="meta.attr.umid.markup">0x00000000000000000000000000000000000000000000000000000000A200AAFA29A23A3530AC595BFF7F0000469462050100000060A4595BFF7F0000ECFE8894</property>
  <property name="seekable">1</property>
  <property name="audio_index">0</property>
  <property name="video_index">-1</property>
  <property name="mute_on_pause">1</property>
  <property name="mlt_service">avformat</property>
  <property name="kdenlive:clipname"/>
  <property name="kdenlive:clip_type">1</property>
  <property name="kdenlive:folderid">114</property>
  <property name="kdenlive:id">115</property>
  <property name="kdenlive:file_size">47449536</property>
  <property name="kdenlive:file_hash">98f0491e3077705ee7093e6405ebaefc</property>
  <property name="kdenlive:audio_max0">208</property>
 </producer>
 <producer id="producer87" in="00:00:00.000" out="00:02:58.333">
  <property name="length">10701</property>
  <property name="eof">pause</property>
  <property name="resource">audio/music/Bodytonic/Thannoid/stems/02_Thannoid_Piano.wav</property>
  <property name="meta.media.nb_streams">1</property>
  <property name="meta.media.0.stream.type">audio</property>
  <property name="meta.media.0.codec.sample_fmt">s32</property>
  <property name="meta.media.0.codec.sample_rate">44100</property>
  <property name="meta.media.0.codec.channels">2</property>
  <property name="meta.media.0.codec.name">pcm_s24le</property>
  <property name="meta.media.0.codec.long_name">PCM signed 24-bit little-endian</property>
  <property name="meta.media.0.codec.bit_rate">2116800</property>
  <property name="meta.attr.encoded_by.markup">Logic Pro X</property>
  <property name="meta.attr.date.markup">2017-06-08</property>
  <property name="meta.attr.creation_time.markup">12:02:38</property>
  <property name="meta.attr.time_reference.markup">158760000</property>
  <property name="meta.attr.umid.markup">0x00000000000000000000000000000000000000000000000000000000A200AAFA29A23A3530AC595BFF7F0000469462050100000060A4595BFF7F0000ECFE8894</property>
  <property name="seekable">1</property>
  <property name="audio_index">0</property>
  <property name="video_index">-1</property>
  <property name="mute_on_pause">1</property>
  <property name="mlt_service">avformat</property>
  <property name="kdenlive:clipname"/>
  <property name="kdenlive:clip_type">1</property>
  <property name="kdenlive:folderid">114</property>
  <property name="kdenlive:id">116</property>
  <property name="kdenlive:file_size">47252672</property>
  <property name="kdenlive:file_hash">f16cb6e6cd4d24d381426e2c915320e8</property>
  <property name="kdenlive:audio_max0">166</property>
 </producer>
 <producer id="producer86" in="00:00:00.000" out="00:02:59.817">
  <property name="length">10790</property>
  <property name="eof">pause</property>
  <property name="resource">audio/music/Bodytonic/Thannoid/stems/03_Thannoid_Marimba.wav</property>
  <property name="meta.media.nb_streams">1</property>
  <property name="meta.media.0.stream.type">audio</property>
  <property name="meta.media.0.codec.sample_fmt">s32</property>
  <property name="meta.media.0.codec.sample_rate">44100</property>
  <property name="meta.media.0.codec.channels">2</property>
  <property name="meta.media.0.codec.name">pcm_s24le</property>
  <property name="meta.media.0.codec.long_name">PCM signed 24-bit little-endian</property>
  <property name="meta.media.0.codec.bit_rate">2116800</property>
  <property name="meta.attr.encoded_by.markup">Logic Pro X</property>
  <property name="meta.attr.date.markup">2017-06-08</property>
  <property name="meta.attr.creation_time.markup">12:02:45</property>
  <property name="meta.attr.time_reference.markup">158760000</property>
  <property name="meta.attr.umid.markup">0x00000000000000000000000000000000000000000000000000000000A200AAFA29A23A3530AC595BFF7F0000469462050100000060A4595BFF7F0000ECFE8894</property>
  <property name="seekable">1</property>
  <property name="audio_index">0</property>
  <property name="video_index">-1</property>
  <property name="mute_on_pause">1</property>
  <property name="mlt_service">avformat</property>
  <property name="kdenlive:clipname"/>
  <property name="kdenlive:clip_type">1</property>
  <property name="kdenlive:folderid">114</property>
  <property name="kdenlive:id">117</property>
  <property name="kdenlive:file_size">47646400</property>
  <property name="kdenlive:file_hash">e3ee266e773052fdb423235a13004922</property>
  <property name="kdenlive:audio_max0">154</property>
 </producer>
 <producer id="producer89" in="00:00:00.000" out="00:02:56.100">
  <property name="length">10567</property>
  <property name="eof">pause</property>
  <property name="resource">audio/music/Bodytonic/Thannoid/stems/04_Thannoid_Drum Kit.wav</property>
  <property name="meta.media.nb_streams">1</property>
  <property name="meta.media.0.stream.type">audio</property>
  <property name="meta.media.0.codec.sample_fmt">s32</property>
  <property name="meta.media.0.codec.sample_rate">44100</property>
  <property name="meta.media.0.codec.channels">2</property>
  <property name="meta.media.0.codec.name">pcm_s24le</property>
  <property name="meta.media.0.codec.long_name">PCM signed 24-bit little-endian</property>
  <property name="meta.media.0.codec.bit_rate">2116800</property>
  <property name="meta.attr.encoded_by.markup">Logic Pro X</property>
  <property name="meta.attr.date.markup">2017-06-08</property>
  <property name="meta.attr.creation_time.markup">12:02:41</property>
  <property name="meta.attr.time_reference.markup">158760000</property>
  <property name="meta.attr.umid.markup">0x00000000000000000000000000000000000000000000000000000000A200AAFA29A23A3530AC595BFF7F0000469462050100000060A4595BFF7F0000ECFE8894</property>
  <property name="seekable">1</property>
  <property name="audio_index">0</property>
  <property name="video_index">-1</property>
  <property name="mute_on_pause">1</property>
  <property name="mlt_service">avformat</property>
  <property name="kdenlive:clipname"/>
  <property name="kdenlive:clip_type">1</property>
  <property name="kdenlive:folderid">114</property>
  <property name="kdenlive:id">118</property>
  <property name="kdenlive:file_size">46662080</property>
  <property name="kdenlive:file_hash">4544e80b49d96d728906a61ffa38da60</property>
  <property name="kdenlive:audio_max0">156</property>
 </producer>
 <producer id="producer88" in="00:00:00.000" out="00:02:56.100">
  <property name="length">10567</property>
  <property name="eof">pause</property>
  <property name="resource">audio/music/Bodytonic/Thannoid/stems/05_Thannoid_Found Percussion.wav</property>
  <property name="meta.media.nb_streams">1</property>
  <property name="meta.media.0.stream.type">audio</property>
  <property name="meta.media.0.codec.sample_fmt">s32</property>
  <property name="meta.media.0.codec.sample_rate">44100</property>
  <property name="meta.media.0.codec.channels">2</property>
  <property name="meta.media.0.codec.name">pcm_s24le</property>
  <property name="meta.media.0.codec.long_name">PCM signed 24-bit little-endian</property>
  <property name="meta.media.0.codec.bit_rate">2116800</property>
  <property name="meta.attr.encoded_by.markup">Logic Pro X</property>
  <property name="meta.attr.date.markup">2017-06-08</property>
  <property name="meta.attr.creation_time.markup">12:02:29</property>
  <property name="meta.attr.time_reference.markup">158760000</property>
  <property name="meta.attr.umid.markup">0x00000000000000000000000000000000000000000000000000000000A200AAFA29A23A3530AC595BFF7F0000469462050100000060A4595BFF7F0000ECFE8894</property>
  <property name="seekable">1</property>
  <property name="audio_index">0</property>
  <property name="video_index">-1</property>
  <property name="mute_on_pause">1</property>
  <property name="mlt_service">avformat</property>
  <property name="kdenlive:clipname"/>
  <property name="kdenlive:clip_type">1</property>
  <property name="kdenlive:folderid">114</property>
  <property name="kdenlive:id">119</property>
  <property name="kdenlive:file_size">46662080</property>
  <property name="kdenlive:file_hash">21521aae6e71ae8487043d9a961278b6</property>
  <property name="kdenlive:audio_max0">201</property>
 </producer>
 <producer id="producer91" in="00:00:00.000" out="00:01:21.800">
  <property name="length">4909</property>
  <property name="eof">pause</property>
  <property name="resource">audio/music/Bodytonic/Thannoid/variations/Thannoid | 1 Min.wav</property>
  <property name="meta.media.nb_streams">1</property>
  <property name="meta.media.0.stream.type">audio</property>
  <property name="meta.media.0.codec.sample_fmt">s32</property>
  <property name="meta.media.0.codec.sample_rate">44100</property>
  <property name="meta.media.0.codec.channels">2</property>
  <property name="meta.media.0.codec.name">pcm_s24le</property>
  <property name="meta.media.0.codec.long_name">PCM signed 24-bit little-endian</property>
  <property name="meta.media.0.codec.bit_rate">2116800</property>
  <property name="meta.attr.encoded_by.markup">Logic Pro X</property>
  <property name="meta.attr.date.markup">2017-06-08</property>
  <property name="meta.attr.creation_time.markup">12:04:06</property>
  <property name="meta.attr.time_reference.markup">163250182</property>
  <property name="meta.attr.umid.markup">0x00000000000000000000000000000000000000000000000000000000A200AAFA29A23A358059595BFF7F00004694620501000000B051595BFF7F0000ECFE8894</property>
  <property name="seekable">1</property>
  <property name="audio_index">0</property>
  <property name="video_index">-1</property>
  <property name="mute_on_pause">1</property>
  <property name="mlt_service">avformat</property>
  <property name="kdenlive:clipname"/>
  <property name="kdenlive:clip_type">1</property>
  <property name="kdenlive:folderid">120</property>
  <property name="kdenlive:id">121</property>
  <property name="kdenlive:file_size">21649816</property>
  <property name="kdenlive:file_hash">526bdde6ee40d10bf38e084b5eb78100</property>
  <property name="kdenlive:audio_max0">252</property>
 </producer>
 <producer id="producer90" in="00:00:00.000" out="00:00:36.350">
  <property name="length">2182</property>
  <property name="eof">pause</property>
  <property name="resource">audio/music/Bodytonic/Thannoid/variations/Thannoid | 30 Sec No Melody.wav</property>
  <property name="meta.media.nb_streams">1</property>
  <property name="meta.media.0.stream.type">audio</property>
  <property name="meta.media.0.codec.sample_fmt">s32</property>
  <property name="meta.media.0.codec.sample_rate">44100</property>
  <property name="meta.media.0.codec.channels">2</property>
  <property name="meta.media.0.codec.name">pcm_s24le</property>
  <property name="meta.media.0.codec.long_name">PCM signed 24-bit little-endian</property>
  <property name="meta.media.0.codec.bit_rate">2116800</property>
  <property name="meta.attr.encoded_by.markup">Logic Pro X</property>
  <property name="meta.attr.date.markup">2017-06-08</property>
  <property name="meta.attr.creation_time.markup">12:05:01</property>
  <property name="meta.attr.time_reference.markup">165174545</property>
  <property name="meta.attr.umid.markup">0x00000000000000000000000000000000000000000000000000000000A200AAFA29A23A358059595BFF7F00004694620501000000B051595BFF7F0000ECFE8894</property>
  <property name="seekable">1</property>
  <property name="audio_index">0</property>
  <property name="video_index">-1</property>
  <property name="mute_on_pause">1</property>
  <property name="mlt_service">avformat</property>
  <property name="kdenlive:clipname"/>
  <property name="kdenlive:clip_type">1</property>
  <property name="kdenlive:folderid">120</property>
  <property name="kdenlive:id">122</property>
  <property name="kdenlive:file_size">9622552</property>
  <property name="kdenlive:file_hash">733fb17cae8fb54cd88f370d666592c4</property>
  <property name="kdenlive:audio_max0">251</property>
 </producer>
 <producer id="producer92" in="00:00:00.000" out="00:00:38.283">
  <property name="length">2298</property>
  <property name="eof">pause</property>
  <property name="resource">audio/music/Bodytonic/Thannoid/variations/Thannoid | 30 Sec.wav</property>
  <property name="meta.media.nb_streams">1</property>
  <property name="meta.media.0.stream.type">audio</property>
  <property name="meta.media.0.codec.sample_fmt">s32</property>
  <property name="meta.media.0.codec.sample_rate">44100</property>
  <property name="meta.media.0.codec.channels">2</property>
  <property name="meta.media.0.codec.name">pcm_s24le</property>
  <property name="meta.media.0.codec.long_name">PCM signed 24-bit little-endian</property>
  <property name="meta.media.0.codec.bit_rate">2116800</property>
  <property name="meta.attr.encoded_by.markup">Logic Pro X</property>
  <property name="meta.attr.date.markup">2017-06-08</property>
  <property name="meta.attr.creation_time.markup">12:03:24</property>
  <property name="meta.attr.time_reference.markup">165169450</property>
  <property name="meta.attr.umid.markup">0x00000000000000000000000000000000000000000000000000000000A200AAFA29A23A358059595BFF7F00004694620501000000B051595BFF7F0000ECFE8894</property>
  <property name="seekable">1</property>
  <property name="audio_index">0</property>
  <property name="video_index">-1</property>
  <property name="mute_on_pause">1</property>
  <property name="mlt_service">avformat</property>
  <property name="kdenlive:clipname"/>
  <property name="kdenlive:clip_type">1</property>
  <property name="kdenlive:folderid">120</property>
  <property name="kdenlive:id">123</property>
  <property name="kdenlive:file_size">10134208</property>
  <property name="kdenlive:file_hash">e5b0ee54f087fd56546e9029b92661a0</property>
  <property name="kdenlive:audio_max0">253</property>
 </producer>
 <producer id="producer93" in="00:00:00.000" out="00:03:07.250">
  <property name="length">11236</property>
  <property name="eof">pause</property>
  <property name="resource">audio/music/Bodytonic/Thannoid/variations/Thannoid | Minimal Marimba.wav</property>
  <property name="meta.media.nb_streams">1</property>
  <property name="meta.media.0.stream.type">audio</property>
  <property name="meta.media.0.codec.sample_fmt">s32</property>
  <property name="meta.media.0.codec.sample_rate">44100</property>
  <property name="meta.media.0.codec.channels">2</property>
  <property name="meta.media.0.codec.name">pcm_s24le</property>
  <property name="meta.media.0.codec.long_name">PCM signed 24-bit little-endian</property>
  <property name="meta.media.0.codec.bit_rate">2116800</property>
  <property name="meta.attr.encoded_by.markup">Logic Pro X</property>
  <property name="meta.attr.date.markup">2017-06-08</property>
  <property name="meta.attr.creation_time.markup">12:12:47</property>
  <property name="meta.attr.time_reference.markup">158760000</property>
  <property name="meta.attr.umid.markup">0x00000000000000000000000000000000000000000000000000000000A200AAFA29A23A358059595BFF7F00004694620501000000B051595BFF7F0000ECFE8894</property>
  <property name="seekable">1</property>
  <property name="audio_index">0</property>
  <property name="video_index">-1</property>
  <property name="mute_on_pause">1</property>
  <property name="mlt_service">avformat</property>
  <property name="kdenlive:clipname"/>
  <property name="kdenlive:clip_type">1</property>
  <property name="kdenlive:folderid">120</property>
  <property name="kdenlive:id">124</property>
  <property name="kdenlive:file_size">49553092</property>
  <property name="kdenlive:file_hash">932daddb50aabfa82b900cd893e93aaf</property>
 </producer>
 <producer id="producer94" in="00:00:00.000" out="00:02:32.717">
  <property name="length">9164</property>
  <property name="eof">pause</property>
  <property name="resource">audio/music/Bodytonic/Thannoid/variations/Thannoid | No Melody.wav</property>
  <property name="meta.media.nb_streams">1</property>
  <property name="meta.media.0.stream.type">audio</property>
  <property name="meta.media.0.codec.sample_fmt">s32</property>
  <property name="meta.media.0.codec.sample_rate">44100</property>
  <property name="meta.media.0.codec.channels">2</property>
  <property name="meta.media.0.codec.name">pcm_s24le</property>
  <property name="meta.media.0.codec.long_name">PCM signed 24-bit little-endian</property>
  <property name="meta.media.0.codec.bit_rate">2116800</property>
  <property name="meta.attr.encoded_by.markup">Logic Pro X</property>
  <property name="meta.attr.date.markup">2017-06-08</property>
  <property name="meta.attr.creation_time.markup">11:59:50</property>
  <property name="meta.attr.time_reference.markup">158760000</property>
  <property name="meta.attr.umid.markup">0x00000000000000000000000000000000000000000000000000000000A200AAFA29A23A358059595BFF7F00004694620501000000B051595BFF7F0000ECFE8894</property>
  <property name="seekable">1</property>
  <property name="audio_index">0</property>
  <property name="video_index">-1</property>
  <property name="mute_on_pause">1</property>
  <property name="mlt_service">avformat</property>
  <property name="kdenlive:clipname"/>
  <property name="kdenlive:clip_type">1</property>
  <property name="kdenlive:folderid">120</property>
  <property name="kdenlive:id">125</property>
  <property name="kdenlive:file_size">40412362</property>
  <property name="kdenlive:file_hash">4647d8498a569004cb54266f7cf0826a</property>
  <property name="kdenlive:audio_max0">255</property>
 </producer>
 <producer id="producer95" in="00:00:00.000" out="00:01:50.900">
  <property name="length">6655</property>
  <property name="eof">pause</property>
  <property name="resource">audio/music/Bodytonic/Thannoid/variations/Thannoid | Piano.wav</property>
  <property name="meta.media.nb_streams">1</property>
  <property name="meta.media.0.stream.type">audio</property>
  <property name="meta.media.0.codec.sample_fmt">s32</property>
  <property name="meta.media.0.codec.sample_rate">44100</property>
  <property name="meta.media.0.codec.channels">2</property>
  <property name="meta.media.0.codec.name">pcm_s24le</property>
  <property name="meta.media.0.codec.long_name">PCM signed 24-bit little-endian</property>
  <property name="meta.media.0.codec.bit_rate">2116800</property>
  <property name="meta.attr.encoded_by.markup">Logic Pro X</property>
  <property name="meta.attr.date.markup">2017-06-08</property>
  <property name="meta.attr.creation_time.markup">12:06:43</property>
  <property name="meta.attr.time_reference.markup">161967272</property>
  <property name="meta.attr.umid.markup">0x00000000000000000000000000000000000000000000000000000000A200AAFA29A23A358059595BFF7F00004694620501000000B051595BFF7F0000ECFE8894</property>
  <property name="seekable">1</property>
  <property name="audio_index">0</property>
  <property name="video_index">-1</property>
  <property name="mute_on_pause">1</property>
  <property name="mlt_service">avformat</property>
  <property name="kdenlive:clipname"/>
  <property name="kdenlive:clip_type">1</property>
  <property name="kdenlive:folderid">120</property>
  <property name="kdenlive:id">126</property>
  <property name="kdenlive:file_size">29385504</property>
  <property name="kdenlive:file_hash">6fb3cefe5cd49b1a772d4148933cc2b4</property>
  <property name="kdenlive:audio_max0">256</property>
 </producer>
 <producer id="producer96" in="00:00:00.000" out="00:01:21.800">
  <property name="length">4909</property>
  <property name="eof">pause</property>
  <property name="resource">audio/music/Bodytonic/Thannoid/variations/Thannoid | Swinging.wav</property>
  <property name="meta.media.nb_streams">1</property>
  <property name="meta.media.0.stream.type">audio</property>
  <property name="meta.media.0.codec.sample_fmt">s32</property>
  <property name="meta.media.0.codec.sample_rate">44100</property>
  <property name="meta.media.0.codec.channels">2</property>
  <property name="meta.media.0.codec.name">pcm_s24le</property>
  <property name="meta.media.0.codec.long_name">PCM signed 24-bit little-endian</property>
  <property name="meta.media.0.codec.bit_rate">2116800</property>
  <property name="meta.attr.encoded_by.markup">Logic Pro X</property>
  <property name="meta.attr.date.markup">2017-06-08</property>
  <property name="meta.attr.creation_time.markup">12:10:51</property>
  <property name="meta.attr.time_reference.markup">163250182</property>
  <property name="meta.attr.umid.markup">0x00000000000000000000000000000000000000000000000000000000A200AAFA29A23A358059595BFF7F00004694620501000000B051595BFF7F0000ECFE8894</property>
  <property name="seekable">1</property>
  <property name="audio_index">0</property>
  <property name="video_index">-1</property>
  <property name="mute_on_pause">1</property>
  <property name="mlt_service">avformat</property>
  <property name="kdenlive:clipname"/>
  <property name="kdenlive:clip_type">1</property>
  <property name="kdenlive:folderid">120</property>
  <property name="kdenlive:id">127</property>
  <property name="kdenlive:file_size">21649816</property>
  <property name="kdenlive:file_hash">8e38fa47426d8af1d82fc2aaea57d9ea</property>
  <property name="kdenlive:audio_max0">252</property>
 </producer>
 <producer id="producer98" in="00:00:00.000" out="00:02:54.767">
  <property name="length">10487</property>
  <property name="eof">pause</property>
  <property name="resource">audio/music/Nursery/A Little Powder */A Little Powder.wav</property>
  <property name="meta.media.nb_streams">1</property>
  <property name="meta.media.0.stream.type">audio</property>
  <property name="meta.media.0.codec.sample_fmt">s32</property>
  <property name="meta.media.0.codec.sample_rate">44100</property>
  <property name="meta.media.0.codec.channels">2</property>
  <property name="meta.media.0.codec.name">pcm_s24le</property>
  <property name="meta.media.0.codec.long_name">PCM signed 24-bit little-endian</property>
  <property name="meta.media.0.codec.bit_rate">2116800</property>
  <property name="meta.attr.encoded_by.markup">Logic Pro X</property>
  <property name="meta.attr.date.markup">2018-02-12</property>
  <property name="meta.attr.creation_time.markup">14:18:55</property>
  <property name="meta.attr.time_reference.markup">159189498</property>
  <property name="meta.attr.umid.markup">0x00000000000000000000000000000000000000000000000000000000B200403FF3E80FCAD081E1E5FE7F000050964C0B010000001082E1E5FE7F00003D86F66C</property>
  <property name="meta.attr.album.markup">Nursery</property>
  <property name="seekable">1</property>
  <property name="audio_index">0</property>
  <property name="video_index">-1</property>
  <property name="mute_on_pause">1</property>
  <property name="mlt_service">avformat</property>
  <property name="kdenlive:clipname"/>
  <property name="kdenlive:clip_type">1</property>
  <property name="kdenlive:folderid">129</property>
  <property name="kdenlive:id">130</property>
  <property name="kdenlive:file_size">46249020</property>
  <property name="kdenlive:file_hash">9d7892f208ee17d258a62c5abfc2e76f</property>
  <property name="kdenlive:audio_max0">232</property>
 </producer>
 <producer id="producer97" in="00:00:00.000" out="00:02:53.133">
  <property name="length">10389</property>
  <property name="eof">pause</property>
  <property name="resource">audio/music/Nursery/A Little Powder */stems/01_A Little Powder_Tongue Drum.wav</property>
  <property name="meta.media.nb_streams">1</property>
  <property name="meta.media.0.stream.type">audio</property>
  <property name="meta.media.0.codec.sample_fmt">s32</property>
  <property name="meta.media.0.codec.sample_rate">44100</property>
  <property name="meta.media.0.codec.channels">2</property>
  <property name="meta.media.0.codec.name">pcm_s24le</property>
  <property name="meta.media.0.codec.long_name">PCM signed 24-bit little-endian</property>
  <property name="meta.media.0.codec.bit_rate">2116800</property>
  <property name="meta.attr.encoded_by.markup">Logic Pro X</property>
  <property name="meta.attr.date.markup">2018-02-12</property>
  <property name="meta.attr.creation_time.markup">14:20:55</property>
  <property name="meta.attr.time_reference.markup">159189498</property>
  <property name="meta.attr.umid.markup">0x00000000000000000000000000000000000000000000000000000000B200403FF3E80FCA40B7E1E5FE7F000050964C0B0100000080B7E1E5FE7F00003D86F66C</property>
  <property name="seekable">1</property>
  <property name="audio_index">0</property>
  <property name="video_index">-1</property>
  <property name="mute_on_pause">1</property>
  <property name="mlt_service">avformat</property>
  <property name="kdenlive:clipname"/>
  <property name="kdenlive:clip_type">1</property>
  <property name="kdenlive:folderid">131</property>
  <property name="kdenlive:id">132</property>
  <property name="kdenlive:file_size">45874706</property>
  <property name="kdenlive:file_hash">308819235efb5c2be935d88bbbde2e34</property>
  <property name="kdenlive:audio_max0">125</property>
 </producer>
 <producer id="producer99" in="00:00:00.000" out="00:02:50.900">
  <property name="length">10255</property>
  <property name="eof">pause</property>
  <property name="resource">audio/music/Nursery/A Little Powder */stems/02_A Little Powder_Tongue Drum.wav</property>
  <property name="meta.media.nb_streams">1</property>
  <property name="meta.media.0.stream.type">audio</property>
  <property name="meta.media.0.codec.sample_fmt">s32</property>
  <property name="meta.media.0.codec.sample_rate">44100</property>
  <property name="meta.media.0.codec.channels">2</property>
  <property name="meta.media.0.codec.name">pcm_s24le</property>
  <property name="meta.media.0.codec.long_name">PCM signed 24-bit little-endian</property>
  <property name="meta.media.0.codec.bit_rate">2116800</property>
  <property name="meta.attr.encoded_by.markup">Logic Pro X</property>
  <property name="meta.attr.date.markup">2018-02-12</property>
  <property name="meta.attr.creation_time.markup">14:20:58</property>
  <property name="meta.attr.time_reference.markup">159189498</property>
  <property name="meta.attr.umid.markup">0x00000000000000000000000000000000000000000000000000000000B200403FF3E80FCA40B7E1E5FE7F000050964C0B0100000080B7E1E5FE7F00003D86F66C</property>
  <property name="seekable">1</property>
  <property name="audio_index">0</property>
  <property name="video_index">-1</property>
  <property name="mute_on_pause">1</property>
  <property name="mlt_service">avformat</property>
  <property name="kdenlive:clipname"/>
  <property name="kdenlive:clip_type">1</property>
  <property name="kdenlive:folderid">131</property>
  <property name="kdenlive:id">133</property>
  <property name="kdenlive:file_size">45284114</property>
  <property name="kdenlive:file_hash">738ad6da73d339e18f92280f0609cff2</property>
  <property name="kdenlive:audio_max0">158</property>
 </producer>
 <producer id="producer100" in="00:00:00.000" out="00:02:49.417">
  <property name="length">10166</property>
  <property name="eof">pause</property>
  <property name="resource">audio/music/Nursery/A Little Powder */stems/03_A Little Powder_Piano.wav</property>
  <property name="meta.media.nb_streams">1</property>
  <property name="meta.media.0.stream.type">audio</property>
  <property name="meta.media.0.codec.sample_fmt">s32</property>
  <property name="meta.media.0.codec.sample_rate">44100</property>
  <property name="meta.media.0.codec.channels">2</property>
  <property name="meta.media.0.codec.name">pcm_s24le</property>
  <property name="meta.media.0.codec.long_name">PCM signed 24-bit little-endian</property>
  <property name="meta.media.0.codec.bit_rate">2116800</property>
  <property name="meta.attr.encoded_by.markup">Logic Pro X</property>
  <property name="meta.attr.date.markup">2018-02-12</property>
  <property name="meta.attr.creation_time.markup">14:21:10</property>
  <property name="meta.attr.time_reference.markup">159189498</property>
  <property name="meta.attr.umid.markup">0x00000000000000000000000000000000000000000000000000000000B200403FF3E80FCA40B7E1E5FE7F000050964C0B0100000080B7E1E5FE7F00003D86F66C</property>
  <property name="seekable">1</property>
  <property name="audio_index">0</property>
  <property name="video_index">-1</property>
  <property name="mute_on_pause">1</property>
  <property name="mlt_service">avformat</property>
  <property name="kdenlive:clipname"/>
  <property name="kdenlive:clip_type">1</property>
  <property name="kdenlive:folderid">131</property>
  <property name="kdenlive:id">134</property>
  <property name="kdenlive:file_size">44890386</property>
  <property name="kdenlive:file_hash">a90bdf8200f7ce687f32f8f6d2afe98e</property>
  <property name="kdenlive:audio_max0">130</property>
 </producer>
 <producer id="producer102" in="00:00:00.000" out="00:02:39.750">
  <property name="length">9586</property>
  <property name="eof">pause</property>
  <property name="resource">audio/music/Nursery/A Little Powder */stems/04_A Little Powder_Rhodes.wav</property>
  <property name="meta.media.nb_streams">1</property>
  <property name="meta.media.0.stream.type">audio</property>
  <property name="meta.media.0.codec.sample_fmt">s32</property>
  <property name="meta.media.0.codec.sample_rate">44100</property>
  <property name="meta.media.0.codec.channels">2</property>
  <property name="meta.media.0.codec.name">pcm_s24le</property>
  <property name="meta.media.0.codec.long_name">PCM signed 24-bit little-endian</property>
  <property name="meta.media.0.codec.bit_rate">2116800</property>
  <property name="meta.attr.encoded_by.markup">Logic Pro X</property>
  <property name="meta.attr.date.markup">2018-02-12</property>
  <property name="meta.attr.creation_time.markup">14:21:07</property>
  <property name="meta.attr.time_reference.markup">159189498</property>
  <property name="meta.attr.umid.markup">0x00000000000000000000000000000000000000000000000000000000B200403FF3E80FCA40B7E1E5FE7F000050964C0B0100000080B7E1E5FE7F00003D86F66C</property>
  <property name="seekable">1</property>
  <property name="audio_index">0</property>
  <property name="video_index">-1</property>
  <property name="mute_on_pause">1</property>
  <property name="mlt_service">avformat</property>
  <property name="kdenlive:clipname"/>
  <property name="kdenlive:clip_type">1</property>
  <property name="kdenlive:folderid">131</property>
  <property name="kdenlive:id">135</property>
  <property name="kdenlive:file_size">42331154</property>
  <property name="kdenlive:file_hash">61dd41c9c23377f3855fc73823ec40a1</property>
  <property name="kdenlive:audio_max0">144</property>
 </producer>
 <producer id="producer101" in="00:00:00.000" out="00:02:47.183">
  <property name="length">10032</property>
  <property name="eof">pause</property>
  <property name="resource">audio/music/Nursery/A Little Powder */stems/05_A Little Powder_Tongue Drum.wav</property>
  <property name="meta.media.nb_streams">1</property>
  <property name="meta.media.0.stream.type">audio</property>
  <property name="meta.media.0.codec.sample_fmt">s32</property>
  <property name="meta.media.0.codec.sample_rate">44100</property>
  <property name="meta.media.0.codec.channels">2</property>
  <property name="meta.media.0.codec.name">pcm_s24le</property>
  <property name="meta.media.0.codec.long_name">PCM signed 24-bit little-endian</property>
  <property name="meta.media.0.codec.bit_rate">2116800</property>
  <property name="meta.attr.encoded_by.markup">Logic Pro X</property>
  <property name="meta.attr.date.markup">2018-02-12</property>
  <property name="meta.attr.creation_time.markup">14:21:01</property>
  <property name="meta.attr.time_reference.markup">159189498</property>
  <property name="meta.attr.umid.markup">0x00000000000000000000000000000000000000000000000000000000B200403FF3E80FCA40B7E1E5FE7F000050964C0B0100000080B7E1E5FE7F00003D86F66C</property>
  <property name="seekable">1</property>
  <property name="audio_index">0</property>
  <property name="video_index">-1</property>
  <property name="mute_on_pause">1</property>
  <property name="mlt_service">avformat</property>
  <property name="kdenlive:clipname"/>
  <property name="kdenlive:clip_type">1</property>
  <property name="kdenlive:folderid">131</property>
  <property name="kdenlive:id">136</property>
  <property name="kdenlive:file_size">44299794</property>
  <property name="kdenlive:file_hash">aec76ab29bb8c6be6f1137782b81215f</property>
  <property name="kdenlive:audio_max0">164</property>
 </producer>
 <producer id="producer103" in="00:00:00.000" out="00:02:33.067">
  <property name="length">9185</property>
  <property name="eof">pause</property>
  <property name="resource">audio/music/Nursery/A Little Powder */stems/06_A Little Powder_Rhodia SynPad.wav</property>
  <property name="meta.media.nb_streams">1</property>
  <property name="meta.media.0.stream.type">audio</property>
  <property name="meta.media.0.codec.sample_fmt">s32</property>
  <property name="meta.media.0.codec.sample_rate">44100</property>
  <property name="meta.media.0.codec.channels">2</property>
  <property name="meta.media.0.codec.name">pcm_s24le</property>
  <property name="meta.media.0.codec.long_name">PCM signed 24-bit little-endian</property>
  <property name="meta.media.0.codec.bit_rate">2116800</property>
  <property name="meta.attr.encoded_by.markup">Logic Pro X</property>
  <property name="meta.attr.date.markup">2018-02-12</property>
  <property name="meta.attr.creation_time.markup">14:21:04</property>
  <property name="meta.attr.time_reference.markup">159189498</property>
  <property name="meta.attr.umid.markup">0x00000000000000000000000000000000000000000000000000000000B200403FF3E80FCA40B7E1E5FE7F000050964C0B0100000080B7E1E5FE7F00003D86F66C</property>
  <property name="seekable">1</property>
  <property name="audio_index">0</property>
  <property name="video_index">-1</property>
  <property name="mute_on_pause">1</property>
  <property name="mlt_service">avformat</property>
  <property name="kdenlive:clipname"/>
  <property name="kdenlive:clip_type">1</property>
  <property name="kdenlive:folderid">131</property>
  <property name="kdenlive:id">137</property>
  <property name="kdenlive:file_size">40559378</property>
  <property name="kdenlive:file_hash">1e1be6b9d719d686da02a7081d0c2e25</property>
  <property name="kdenlive:audio_max0">84</property>
 </producer>
 <producer id="producer104" in="00:00:00.000" out="00:00:56.450">
  <property name="length">3388</property>
  <property name="eof">pause</property>
  <property name="resource">audio/music/Nursery/A Little Powder */variations/A Little Powder | 1 Min Piano.wav</property>
  <property name="meta.media.nb_streams">1</property>
  <property name="meta.media.0.stream.type">audio</property>
  <property name="meta.media.0.codec.sample_fmt">s32</property>
  <property name="meta.media.0.codec.sample_rate">44100</property>
  <property name="meta.media.0.codec.channels">2</property>
  <property name="meta.media.0.codec.name">pcm_s24le</property>
  <property name="meta.media.0.codec.long_name">PCM signed 24-bit little-endian</property>
  <property name="meta.media.0.codec.bit_rate">2116800</property>
  <property name="meta.attr.encoded_by.markup">Logic Pro X</property>
  <property name="meta.attr.date.markup">2018-02-12</property>
  <property name="meta.attr.creation_time.markup">14:24:53</property>
  <property name="meta.attr.time_reference.markup">164406927</property>
  <property name="meta.attr.umid.markup">0x00000000000000000000000000000000000000000000000000000000B200403FF3E80FCAD081E1E5FE7F000050964C0B010000001082E1E5FE7F00003D86F66C</property>
  <property name="meta.attr.album.markup">Nursery</property>
  <property name="seekable">1</property>
  <property name="audio_index">0</property>
  <property name="video_index">-1</property>
  <property name="mute_on_pause">1</property>
  <property name="mlt_service">avformat</property>
  <property name="kdenlive:clipname"/>
  <property name="kdenlive:clip_type">1</property>
  <property name="kdenlive:folderid">138</property>
  <property name="kdenlive:id">139</property>
  <property name="kdenlive:file_size">14944446</property>
  <property name="kdenlive:file_hash">829aabbdb03aa3b934f9b7f2b807fa34</property>
  <property name="kdenlive:audio_max0">223</property>
 </producer>
 <producer id="producer106" in="00:00:00.000" out="00:00:56.450">
  <property name="length">3388</property>
  <property name="eof">pause</property>
  <property name="resource">audio/music/Nursery/A Little Powder */variations/A Little Powder | 1 Min.wav</property>
  <property name="meta.media.nb_streams">1</property>
  <property name="meta.media.0.stream.type">audio</property>
  <property name="meta.media.0.codec.sample_fmt">s32</property>
  <property name="meta.media.0.codec.sample_rate">44100</property>
  <property name="meta.media.0.codec.channels">2</property>
  <property name="meta.media.0.codec.name">pcm_s24le</property>
  <property name="meta.media.0.codec.long_name">PCM signed 24-bit little-endian</property>
  <property name="meta.media.0.codec.bit_rate">2116800</property>
  <property name="meta.attr.encoded_by.markup">Logic Pro X</property>
  <property name="meta.attr.date.markup">2018-02-12</property>
  <property name="meta.attr.creation_time.markup">14:23:57</property>
  <property name="meta.attr.time_reference.markup">164406927</property>
  <property name="meta.attr.umid.markup">0x00000000000000000000000000000000000000000000000000000000B200403FF3E80FCAD081E1E5FE7F000050964C0B010000001082E1E5FE7F00003D86F66C</property>
  <property name="meta.attr.album.markup">Nursery</property>
  <property name="seekable">1</property>
  <property name="audio_index">0</property>
  <property name="video_index">-1</property>
  <property name="mute_on_pause">1</property>
  <property name="mlt_service">avformat</property>
  <property name="kdenlive:clipname"/>
  <property name="kdenlive:clip_type">1</property>
  <property name="kdenlive:folderid">138</property>
  <property name="kdenlive:id">140</property>
  <property name="kdenlive:file_size">14944446</property>
  <property name="kdenlive:file_hash">b47d1a0417d10997f457d6a9005fcab5</property>
  <property name="kdenlive:audio_max0">228</property>
 </producer>
 <producer id="producer105" in="00:00:00.000" out="00:00:31.350">
  <property name="length">1882</property>
  <property name="eof">pause</property>
  <property name="resource">audio/music/Nursery/A Little Powder */variations/A Little Powder | 30 Sec.wav</property>
  <property name="meta.media.nb_streams">1</property>
  <property name="meta.media.0.stream.type">audio</property>
  <property name="meta.media.0.codec.sample_fmt">s32</property>
  <property name="meta.media.0.codec.sample_rate">44100</property>
  <property name="meta.media.0.codec.channels">2</property>
  <property name="meta.media.0.codec.name">pcm_s24le</property>
  <property name="meta.media.0.codec.long_name">PCM signed 24-bit little-endian</property>
  <property name="meta.media.0.codec.bit_rate">2116800</property>
  <property name="meta.attr.encoded_by.markup">Logic Pro X</property>
  <property name="meta.attr.date.markup">2018-02-12</property>
  <property name="meta.attr.creation_time.markup">14:26:33</property>
  <property name="meta.attr.time_reference.markup">165282419</property>
  <property name="meta.attr.umid.markup">0x00000000000000000000000000000000000000000000000000000000B200403FF3E80FCAD081E1E5FE7F000050964C0B010000001082E1E5FE7F00003D86F66C</property>
  <property name="meta.attr.album.markup">Nursery</property>
  <property name="seekable">1</property>
  <property name="audio_index">0</property>
  <property name="video_index">-1</property>
  <property name="mute_on_pause">1</property>
  <property name="mlt_service">avformat</property>
  <property name="kdenlive:clipname"/>
  <property name="kdenlive:clip_type">1</property>
  <property name="kdenlive:folderid">138</property>
  <property name="kdenlive:id">141</property>
  <property name="kdenlive:file_size">8299862</property>
  <property name="kdenlive:file_hash">e0e7c8cc8f817119cc24e725cd619ea2</property>
  <property name="kdenlive:audio_max0">228</property>
 </producer>
 <producer id="producer107" in="00:00:00.000" out="00:02:25.267">
  <property name="length">8717</property>
  <property name="eof">pause</property>
  <property name="resource">audio/music/Nursery/A Little Powder */variations/A Little Powder | Ostinato Lead.wav</property>
  <property name="meta.media.nb_streams">1</property>
  <property name="meta.media.0.stream.type">audio</property>
  <property name="meta.media.0.codec.sample_fmt">s32</property>
  <property name="meta.media.0.codec.sample_rate">44100</property>
  <property name="meta.media.0.codec.channels">2</property>
  <property name="meta.media.0.codec.name">pcm_s24le</property>
  <property name="meta.media.0.codec.long_name">PCM signed 24-bit little-endian</property>
  <property name="meta.media.0.codec.bit_rate">2116800</property>
  <property name="meta.attr.encoded_by.markup">Logic Pro X</property>
  <property name="meta.attr.date.markup">2018-02-12</property>
  <property name="meta.attr.creation_time.markup">14:27:27</property>
  <property name="meta.attr.time_reference.markup">160490260</property>
  <property name="meta.attr.umid.markup">0x00000000000000000000000000000000000000000000000000000000B200403FF3E80FCAD081E1E5FE7F000050964C0B010000001082E1E5FE7F00003D86F66C</property>
  <property name="meta.attr.album.markup">Nursery</property>
  <property name="seekable">1</property>
  <property name="audio_index">0</property>
  <property name="video_index">-1</property>
  <property name="mute_on_pause">1</property>
  <property name="mlt_service">avformat</property>
  <property name="kdenlive:clipname"/>
  <property name="kdenlive:clip_type">1</property>
  <property name="kdenlive:folderid">138</property>
  <property name="kdenlive:id">142</property>
  <property name="kdenlive:file_size">38444448</property>
  <property name="kdenlive:file_hash">f81ef76f5026a960a222a00d383fe1f4</property>
  <property name="kdenlive:audio_max0">245</property>
 </producer>
 <producer id="producer108" in="00:00:00.000" out="00:01:36.000">
  <property name="length">5761</property>
  <property name="eof">pause</property>
  <property name="resource">audio/music/Nursery/A Little Powder */variations/A Little Powder | Short Piano.wav</property>
  <property name="meta.media.nb_streams">1</property>
  <property name="meta.media.0.stream.type">audio</property>
  <property name="meta.media.0.codec.sample_fmt">s32</property>
  <property name="meta.media.0.codec.sample_rate">44100</property>
  <property name="meta.media.0.codec.channels">2</property>
  <property name="meta.media.0.codec.name">pcm_s24le</property>
  <property name="meta.media.0.codec.long_name">PCM signed 24-bit little-endian</property>
  <property name="meta.media.0.codec.bit_rate">2116800</property>
  <property name="meta.attr.encoded_by.markup">Logic Pro X</property>
  <property name="meta.attr.date.markup">2018-02-12</property>
  <property name="meta.attr.creation_time.markup">14:28:21</property>
  <property name="meta.attr.time_reference.markup">162662843</property>
  <property name="meta.attr.umid.markup">0x00000000000000000000000000000000000000000000000000000000B200403FF3E80FCAD081E1E5FE7F000050964C0B010000001082E1E5FE7F00003D86F66C</property>
  <property name="meta.attr.album.markup">Nursery</property>
  <property name="seekable">1</property>
  <property name="audio_index">0</property>
  <property name="video_index">-1</property>
  <property name="mute_on_pause">1</property>
  <property name="mlt_service">avformat</property>
  <property name="kdenlive:clipname"/>
  <property name="kdenlive:clip_type">1</property>
  <property name="kdenlive:folderid">138</property>
  <property name="kdenlive:id">143</property>
  <property name="kdenlive:file_size">25408950</property>
  <property name="kdenlive:file_hash">c20ffe300dae455648ac97ed959ab093</property>
  <property name="kdenlive:audio_max0">234</property>
 </producer>
 <producer id="producer111" in="00:00:00.000" out="00:00:52.967">
  <property name="length">3179</property>
  <property name="eof">pause</property>
  <property name="resource">audio/music/Nursery/A Little Powder */variations/A Little Powder | Soft Interlude.wav</property>
  <property name="meta.media.nb_streams">1</property>
  <property name="meta.media.0.stream.type">audio</property>
  <property name="meta.media.0.codec.sample_fmt">s32</property>
  <property name="meta.media.0.codec.sample_rate">44100</property>
  <property name="meta.media.0.codec.channels">2</property>
  <property name="meta.media.0.codec.name">pcm_s24le</property>
  <property name="meta.media.0.codec.long_name">PCM signed 24-bit little-endian</property>
  <property name="meta.media.0.codec.bit_rate">2116800</property>
  <property name="meta.attr.encoded_by.markup">Logic Pro X</property>
  <property name="meta.attr.date.markup">2018-02-12</property>
  <property name="meta.attr.creation_time.markup">14:29:58</property>
  <property name="meta.attr.time_reference.markup">164197961</property>
  <property name="meta.attr.umid.markup">0x00000000000000000000000000000000000000000000000000000000B200403FF3E80FCAD081E1E5FE7F000050964C0B010000001082E1E5FE7F00003D86F66C</property>
  <property name="meta.attr.album.markup">Nursery</property>
  <property name="seekable">1</property>
  <property name="audio_index">0</property>
  <property name="video_index">-1</property>
  <property name="mute_on_pause">1</property>
  <property name="mlt_service">avformat</property>
  <property name="kdenlive:clipname"/>
  <property name="kdenlive:clip_type">1</property>
  <property name="kdenlive:folderid">138</property>
  <property name="kdenlive:id">144</property>
  <property name="kdenlive:file_size">14023446</property>
  <property name="kdenlive:file_hash">2287010c5cb625493203dd8682aa0096</property>
  <property name="kdenlive:audio_max0">221</property>
 </producer>
 <producer id="producer109" in="00:00:00.000" out="00:00:46.483">
  <property name="length">2790</property>
  <property name="eof">pause</property>
  <property name="resource">audio/music/Nursery/A Little Powder */variations/A Little Powder | The Most Minimal Piano.wav</property>
  <property name="meta.media.nb_streams">1</property>
  <property name="meta.media.0.stream.type">audio</property>
  <property name="meta.media.0.codec.sample_fmt">s32</property>
  <property name="meta.media.0.codec.sample_rate">44100</property>
  <property name="meta.media.0.codec.channels">2</property>
  <property name="meta.media.0.codec.name">pcm_s24le</property>
  <property name="meta.media.0.codec.long_name">PCM signed 24-bit little-endian</property>
  <property name="meta.media.0.codec.bit_rate">2116800</property>
  <property name="meta.attr.encoded_by.markup">Logic Pro X</property>
  <property name="meta.attr.date.markup">2018-02-12</property>
  <property name="meta.attr.creation_time.markup">14:22:12</property>
  <property name="meta.attr.time_reference.markup">159218848</property>
  <property name="meta.attr.umid.markup">0x00000000000000000000000000000000000000000000000000000000B200403FF3E80FCAD081E1E5FE7F000050964C0B010000001082E1E5FE7F00003D86F66C</property>
  <property name="meta.attr.album.markup">Nursery</property>
  <property name="seekable">1</property>
  <property name="audio_index">0</property>
  <property name="video_index">-1</property>
  <property name="mute_on_pause">1</property>
  <property name="mlt_service">avformat</property>
  <property name="kdenlive:clipname"/>
  <property name="kdenlive:clip_type">1</property>
  <property name="kdenlive:folderid">138</property>
  <property name="kdenlive:id">145</property>
  <property name="kdenlive:file_size">12307206</property>
  <property name="kdenlive:file_hash">f7425ea42a86cfce865d13f105d0271c</property>
  <property name="kdenlive:audio_max0">180</property>
 </producer>
 <producer id="producer112" in="00:00:00.000" out="00:00:46.483">
  <property name="length">2790</property>
  <property name="eof">pause</property>
  <property name="resource">audio/music/Nursery/A Little Powder */variations/A Little Powder | The Most Minimal.wav</property>
  <property name="meta.media.nb_streams">1</property>
  <property name="meta.media.0.stream.type">audio</property>
  <property name="meta.media.0.codec.sample_fmt">s32</property>
  <property name="meta.media.0.codec.sample_rate">44100</property>
  <property name="meta.media.0.codec.channels">2</property>
  <property name="meta.media.0.codec.name">pcm_s24le</property>
  <property name="meta.media.0.codec.long_name">PCM signed 24-bit little-endian</property>
  <property name="meta.media.0.codec.bit_rate">2116800</property>
  <property name="meta.attr.encoded_by.markup">Logic Pro X</property>
  <property name="meta.attr.date.markup">2018-02-12</property>
  <property name="meta.attr.creation_time.markup">14:21:54</property>
  <property name="meta.attr.time_reference.markup">159218848</property>
  <property name="meta.attr.umid.markup">0x00000000000000000000000000000000000000000000000000000000B200403FF3E80FCAD081E1E5FE7F000050964C0B010000001082E1E5FE7F00003D86F66C</property>
  <property name="meta.attr.album.markup">Nursery</property>
  <property name="seekable">1</property>
  <property name="audio_index">0</property>
  <property name="video_index">-1</property>
  <property name="mute_on_pause">1</property>
  <property name="mlt_service">avformat</property>
  <property name="kdenlive:clipname"/>
  <property name="kdenlive:clip_type">1</property>
  <property name="kdenlive:folderid">138</property>
  <property name="kdenlive:id">146</property>
  <property name="kdenlive:file_size">12307206</property>
  <property name="kdenlive:file_hash">66d524c8a35f12263cc3bb35e6f54659</property>
  <property name="kdenlive:audio_max0">191</property>
 </producer>
 <producer id="producer110" in="00:00:00.000" out="00:03:46.850">
  <property name="length">13612</property>
  <property name="eof">pause</property>
  <property name="resource">audio/music/Nursery/Blood Petal/Blood Petal.wav</property>
  <property name="meta.media.nb_streams">1</property>
  <property name="meta.media.0.stream.type">audio</property>
  <property name="meta.media.0.codec.sample_fmt">s32</property>
  <property name="meta.media.0.codec.sample_rate">44100</property>
  <property name="meta.media.0.codec.channels">2</property>
  <property name="meta.media.0.codec.name">pcm_s24le</property>
  <property name="meta.media.0.codec.long_name">PCM signed 24-bit little-endian</property>
  <property name="meta.media.0.codec.bit_rate">2116800</property>
  <property name="meta.attr.encoded_by.markup">Logic Pro X</property>
  <property name="meta.attr.date.markup">2016-09-20</property>
  <property name="meta.attr.creation_time.markup">19:16:10</property>
  <property name="meta.attr.time_reference.markup">158760000</property>
  <property name="meta.attr.umid.markup">0x00000000F227204F83D100C330BA3658FF7F0000C0A00208006000000000000000000000463485080100000070301476FF7F000060B23658FF7F00002AB5FC8B</property>
  <property name="meta.attr.album.markup">Nursery</property>
  <property name="seekable">1</property>
  <property name="audio_index">0</property>
  <property name="video_index">-1</property>
  <property name="mute_on_pause">1</property>
  <property name="mlt_service">avformat</property>
  <property name="kdenlive:clipname"/>
  <property name="kdenlive:clip_type">1</property>
  <property name="kdenlive:folderid">147</property>
  <property name="kdenlive:id">148</property>
  <property name="kdenlive:file_size">60032910</property>
  <property name="kdenlive:file_hash">d2eaca5bc792b7e95e559669627b080e</property>
  <property name="kdenlive:audio_max0">251</property>
 </producer>
 <producer id="producer115" in="00:00:00.000" out="00:03:46.850">
  <property name="length">13612</property>
  <property name="eof">pause</property>
  <property name="resource">audio/music/Nursery/Blood Petal/stems/01_Blood Petal_Rhodes.wav</property>
  <property name="meta.media.nb_streams">1</property>
  <property name="meta.media.0.stream.type">audio</property>
  <property name="meta.media.0.codec.sample_fmt">s32</property>
  <property name="meta.media.0.codec.sample_rate">44100</property>
  <property name="meta.media.0.codec.channels">2</property>
  <property name="meta.media.0.codec.name">pcm_s24le</property>
  <property name="meta.media.0.codec.long_name">PCM signed 24-bit little-endian</property>
  <property name="meta.media.0.codec.bit_rate">2116800</property>
  <property name="meta.attr.encoded_by.markup">Logic Pro X</property>
  <property name="meta.attr.date.markup">2016-09-20</property>
  <property name="meta.attr.creation_time.markup">18:08:21</property>
  <property name="meta.attr.time_reference.markup">158760000</property>
  <property name="meta.attr.umid.markup">0x00000000F227204F83D100C330BA3658FF7F000080132208006000000000000000000000463485080100000070301476FF7F000060B23658FF7F00002AB5FC8B</property>
  <property name="seekable">1</property>
  <property name="audio_index">0</property>
  <property name="video_index">-1</property>
  <property name="mute_on_pause">1</property>
  <property name="mlt_service">avformat</property>
  <property name="kdenlive:clipname"/>
  <property name="kdenlive:clip_type">1</property>
  <property name="kdenlive:folderid">149</property>
  <property name="kdenlive:id">150</property>
  <property name="kdenlive:file_size">60031850</property>
  <property name="kdenlive:file_hash">80e519a6699550c7999c810763112418</property>
  <property name="kdenlive:audio_max0">217</property>
 </producer>
 <producer id="producer113" in="00:00:00.000" out="00:03:46.850">
  <property name="length">13612</property>
  <property name="eof">pause</property>
  <property name="resource">audio/music/Nursery/Blood Petal/stems/02_Blood Petal_Electric Guitar.wav</property>
  <property name="meta.media.nb_streams">1</property>
  <property name="meta.media.0.stream.type">audio</property>
  <property name="meta.media.0.codec.sample_fmt">s32</property>
  <property name="meta.media.0.codec.sample_rate">44100</property>
  <property name="meta.media.0.codec.channels">2</property>
  <property name="meta.media.0.codec.name">pcm_s24le</property>
  <property name="meta.media.0.codec.long_name">PCM signed 24-bit little-endian</property>
  <property name="meta.media.0.codec.bit_rate">2116800</property>
  <property name="meta.attr.encoded_by.markup">Logic Pro X</property>
  <property name="meta.attr.date.markup">2016-09-20</property>
  <property name="meta.attr.creation_time.markup">18:07:41</property>
  <property name="meta.attr.time_reference.markup">158760000</property>
  <property name="meta.attr.umid.markup">0x00000000F227204F83D100C330BA3658FF7F0000C0DFC207806100000000000000000000463485080100000070301476FF7F000060B23658FF7F00002AB5FC8B</property>
  <property name="seekable">1</property>
  <property name="audio_index">0</property>
  <property name="video_index">-1</property>
  <property name="mute_on_pause">1</property>
  <property name="mlt_service">avformat</property>
  <property name="kdenlive:clipname"/>
  <property name="kdenlive:clip_type">1</property>
  <property name="kdenlive:folderid">149</property>
  <property name="kdenlive:id">151</property>
  <property name="kdenlive:file_size">60031850</property>
  <property name="kdenlive:file_hash">75bc7aec0113aaafbfbaeb2025a66c8b</property>
  <property name="kdenlive:audio_max0">244</property>
 </producer>
 <producer id="producer114" in="00:00:00.000" out="00:03:46.850">
  <property name="length">13612</property>
  <property name="eof">pause</property>
  <property name="resource">audio/music/Nursery/Blood Petal/stems/03_Blood Petal_Tongue Drum.wav</property>
  <property name="meta.media.nb_streams">1</property>
  <property name="meta.media.0.stream.type">audio</property>
  <property name="meta.media.0.codec.sample_fmt">s32</property>
  <property name="meta.media.0.codec.sample_rate">44100</property>
  <property name="meta.media.0.codec.channels">2</property>
  <property name="meta.media.0.codec.name">pcm_s24le</property>
  <property name="meta.media.0.codec.long_name">PCM signed 24-bit little-endian</property>
  <property name="meta.media.0.codec.bit_rate">2116800</property>
  <property name="meta.attr.encoded_by.markup">Logic Pro X</property>
  <property name="meta.attr.date.markup">2016-09-20</property>
  <property name="meta.attr.creation_time.markup">18:07:03</property>
  <property name="meta.attr.time_reference.markup">158760000</property>
  <property name="meta.attr.umid.markup">0x00000000F227204F83D100C330BA3658FF7F0000E0C1C309006000000000000000000000463485080100000070301476FF7F000060B23658FF7F00002AB5FC8B</property>
  <property name="seekable">1</property>
  <property name="audio_index">0</property>
  <property name="video_index">-1</property>
  <property name="mute_on_pause">1</property>
  <property name="mlt_service">avformat</property>
  <property name="kdenlive:clipname"/>
  <property name="kdenlive:clip_type">1</property>
  <property name="kdenlive:folderid">149</property>
  <property name="kdenlive:id">152</property>
  <property name="kdenlive:file_size">60031850</property>
  <property name="kdenlive:file_hash">63ecdf046ecacb266442bde6c458a917</property>
  <property name="kdenlive:audio_max0">216</property>
 </producer>
 <producer id="producer116" in="00:00:00.000" out="00:03:46.850">
  <property name="length">13612</property>
  <property name="eof">pause</property>
  <property name="resource">audio/music/Nursery/Blood Petal/stems/04_Blood Petal_Found Percussion.wav</property>
  <property name="meta.media.nb_streams">1</property>
  <property name="meta.media.0.stream.type">audio</property>
  <property name="meta.media.0.codec.sample_fmt">s32</property>
  <property name="meta.media.0.codec.sample_rate">44100</property>
  <property name="meta.media.0.codec.channels">2</property>
  <property name="meta.media.0.codec.name">pcm_s24le</property>
  <property name="meta.media.0.codec.long_name">PCM signed 24-bit little-endian</property>
  <property name="meta.media.0.codec.bit_rate">2116800</property>
  <property name="meta.attr.encoded_by.markup">Logic Pro X</property>
  <property name="meta.attr.date.markup">2016-09-20</property>
  <property name="meta.attr.creation_time.markup">18:06:26</property>
  <property name="meta.attr.time_reference.markup">158760000</property>
  <property name="meta.attr.umid.markup">0x00000000F227204F83D100C330BA3658FF7F000040E2A200006000000000000000000000463485080100000070301476FF7F000060B23658FF7F00002AB5FC8B</property>
  <property name="seekable">1</property>
  <property name="audio_index">0</property>
  <property name="video_index">-1</property>
  <property name="mute_on_pause">1</property>
  <property name="mlt_service">avformat</property>
  <property name="kdenlive:clipname"/>
  <property name="kdenlive:clip_type">1</property>
  <property name="kdenlive:folderid">149</property>
  <property name="kdenlive:id">153</property>
  <property name="kdenlive:file_size">60031850</property>
  <property name="kdenlive:file_hash">be86004915dff9281c8367c89e5eae4f</property>
  <property name="kdenlive:audio_max0">232</property>
 </producer>
 <producer id="producer117" in="00:00:00.000" out="00:03:46.850">
  <property name="length">13612</property>
  <property name="eof">pause</property>
  <property name="resource">audio/music/Nursery/Blood Petal/stems/05_Blood Petal_Rhodia SynPad.wav</property>
  <property name="meta.media.nb_streams">1</property>
  <property name="meta.media.0.stream.type">audio</property>
  <property name="meta.media.0.codec.sample_fmt">s32</property>
  <property name="meta.media.0.codec.sample_rate">44100</property>
  <property name="meta.media.0.codec.channels">2</property>
  <property name="meta.media.0.codec.name">pcm_s24le</property>
  <property name="meta.media.0.codec.long_name">PCM signed 24-bit little-endian</property>
  <property name="meta.media.0.codec.bit_rate">2116800</property>
  <property name="meta.attr.encoded_by.markup">Logic Pro X</property>
  <property name="meta.attr.date.markup">2016-09-20</property>
  <property name="meta.attr.creation_time.markup">18:05:54</property>
  <property name="meta.attr.time_reference.markup">158760000</property>
  <property name="meta.attr.umid.markup">0x00000000F227204F83D100C330BA3658FF7F0000605EE209006000000000000000000000463485080100000070301476FF7F000060B23658FF7F00002AB5FC8B</property>
  <property name="seekable">1</property>
  <property name="audio_index">0</property>
  <property name="video_index">-1</property>
  <property name="mute_on_pause">1</property>
  <property name="mlt_service">avformat</property>
  <property name="kdenlive:clipname"/>
  <property name="kdenlive:clip_type">1</property>
  <property name="kdenlive:folderid">149</property>
  <property name="kdenlive:id">154</property>
  <property name="kdenlive:file_size">60031850</property>
  <property name="kdenlive:file_hash">c769fe73be2b0bfcb8d92d2c479aa2e9</property>
  <property name="kdenlive:audio_max0">142</property>
 </producer>
 <producer id="producer119" in="00:00:00.000" out="00:02:55.883">
  <property name="length">10554</property>
  <property name="eof">pause</property>
  <property name="resource">audio/music/Nursery/Brass Buttons/Brass Buttons.wav</property>
  <property name="meta.media.nb_streams">1</property>
  <property name="meta.media.0.stream.type">audio</property>
  <property name="meta.media.0.codec.sample_fmt">s32</property>
  <property name="meta.media.0.codec.sample_rate">44100</property>
  <property name="meta.media.0.codec.channels">2</property>
  <property name="meta.media.0.codec.name">pcm_s24le</property>
  <property name="meta.media.0.codec.long_name">PCM signed 24-bit little-endian</property>
  <property name="meta.media.0.codec.bit_rate">2116800</property>
  <property name="meta.attr.encoded_by.markup">Logic Pro X</property>
  <property name="meta.attr.date.markup">2016-10-15</property>
  <property name="meta.attr.creation_time.markup">12:50:24</property>
  <property name="meta.attr.time_reference.markup">158760000</property>
  <property name="meta.attr.umid.markup">0x00000000D6A9DD3E92780051303A6853FF7F0000001D830500600000000000000000000046B4530D0100000070C0CE7BFF7F000060326853FF7F00002A45B791</property>
  <property name="meta.attr.album.markup">Nursery</property>
  <property name="seekable">1</property>
  <property name="audio_index">0</property>
  <property name="video_index">-1</property>
  <property name="mute_on_pause">1</property>
  <property name="mlt_service">avformat</property>
  <property name="kdenlive:clipname"/>
  <property name="kdenlive:clip_type">1</property>
  <property name="kdenlive:folderid">155</property>
  <property name="kdenlive:id">156</property>
  <property name="kdenlive:file_size">46545092</property>
  <property name="kdenlive:file_hash">5bf7ffc06b6fe430c4e5fd0117307a53</property>
  <property name="kdenlive:audio_max0">249</property>
 </producer>
 <producer id="producer118" in="00:00:00.000" out="00:02:55.883">
  <property name="length">10554</property>
  <property name="eof">pause</property>
  <property name="resource">audio/music/Nursery/Brass Buttons/stems/01_Brass Buttons_Rhodes.wav</property>
  <property name="meta.media.nb_streams">1</property>
  <property name="meta.media.0.stream.type">audio</property>
  <property name="meta.media.0.codec.sample_fmt">s32</property>
  <property name="meta.media.0.codec.sample_rate">44100</property>
  <property name="meta.media.0.codec.channels">2</property>
  <property name="meta.media.0.codec.name">pcm_s24le</property>
  <property name="meta.media.0.codec.long_name">PCM signed 24-bit little-endian</property>
  <property name="meta.media.0.codec.bit_rate">2116800</property>
  <property name="meta.attr.encoded_by.markup">Logic Pro X</property>
  <property name="meta.attr.date.markup">2016-10-15</property>
  <property name="meta.attr.creation_time.markup">12:53:30</property>
  <property name="meta.attr.time_reference.markup">158760000</property>
  <property name="meta.attr.umid.markup">0x00000000D6A9DD3E92780051303A6853FF7F0000A052420080610000000000000000000046B4530D0100000070C0CE7BFF7F000060326853FF7F00002A45B791</property>
  <property name="seekable">1</property>
  <property name="audio_index">0</property>
  <property name="video_index">-1</property>
  <property name="mute_on_pause">1</property>
  <property name="mlt_service">avformat</property>
  <property name="kdenlive:clipname"/>
  <property name="kdenlive:clip_type">1</property>
  <property name="kdenlive:folderid">157</property>
  <property name="kdenlive:id">158</property>
  <property name="kdenlive:file_size">46544032</property>
  <property name="kdenlive:file_hash">7227d395b0f88f629cbc82a3affe72ac</property>
  <property name="kdenlive:audio_max0">182</property>
 </producer>
 <producer id="producer120" in="00:00:00.000" out="00:02:55.883">
  <property name="length">10554</property>
  <property name="eof">pause</property>
  <property name="resource">audio/music/Nursery/Brass Buttons/stems/02_Brass Buttons_Piano.wav</property>
  <property name="meta.media.nb_streams">1</property>
  <property name="meta.media.0.stream.type">audio</property>
  <property name="meta.media.0.codec.sample_fmt">s32</property>
  <property name="meta.media.0.codec.sample_rate">44100</property>
  <property name="meta.media.0.codec.channels">2</property>
  <property name="meta.media.0.codec.name">pcm_s24le</property>
  <property name="meta.media.0.codec.long_name">PCM signed 24-bit little-endian</property>
  <property name="meta.media.0.codec.bit_rate">2116800</property>
  <property name="meta.attr.encoded_by.markup">Logic Pro X</property>
  <property name="meta.attr.date.markup">2016-10-15</property>
  <property name="meta.attr.creation_time.markup">12:52:56</property>
  <property name="meta.attr.time_reference.markup">158760000</property>
  <property name="meta.attr.umid.markup">0x00000000D6A9DD3E92780051303A6853FF7F00006091E20B00610000000000000000000046B4530D0100000070C0CE7BFF7F000060326853FF7F00002A45B791</property>
  <property name="seekable">1</property>
  <property name="audio_index">0</property>
  <property name="video_index">-1</property>
  <property name="mute_on_pause">1</property>
  <property name="mlt_service">avformat</property>
  <property name="kdenlive:clipname"/>
  <property name="kdenlive:clip_type">1</property>
  <property name="kdenlive:folderid">157</property>
  <property name="kdenlive:id">159</property>
  <property name="kdenlive:file_size">46544032</property>
  <property name="kdenlive:file_hash">51b876541bb28d4c65b393f5e4b6e0c1</property>
  <property name="kdenlive:audio_max0">211</property>
 </producer>
 <producer id="producer121" in="00:00:00.000" out="00:02:55.883">
  <property name="length">10554</property>
  <property name="eof">pause</property>
  <property name="resource">audio/music/Nursery/Brass Buttons/stems/03_Brass Buttons_Tongue Drum.wav</property>
  <property name="meta.media.nb_streams">1</property>
  <property name="meta.media.0.stream.type">audio</property>
  <property name="meta.media.0.codec.sample_fmt">s32</property>
  <property name="meta.media.0.codec.sample_rate">44100</property>
  <property name="meta.media.0.codec.channels">2</property>
  <property name="meta.media.0.codec.name">pcm_s24le</property>
  <property name="meta.media.0.codec.long_name">PCM signed 24-bit little-endian</property>
  <property name="meta.media.0.codec.bit_rate">2116800</property>
  <property name="meta.attr.encoded_by.markup">Logic Pro X</property>
  <property name="meta.attr.date.markup">2016-10-15</property>
  <property name="meta.attr.creation_time.markup">12:52:22</property>
  <property name="meta.attr.time_reference.markup">158760000</property>
  <property name="meta.attr.umid.markup">0x00000000D6A9DD3E92780051303A6853FF7F00008068420500600000000000000000000046B4530D0100000070C0CE7BFF7F000060326853FF7F00002A45B791</property>
  <property name="seekable">1</property>
  <property name="audio_index">0</property>
  <property name="video_index">-1</property>
  <property name="mute_on_pause">1</property>
  <property name="mlt_service">avformat</property>
  <property name="kdenlive:clipname"/>
  <property name="kdenlive:clip_type">1</property>
  <property name="kdenlive:folderid">157</property>
  <property name="kdenlive:id">160</property>
  <property name="kdenlive:file_size">46544032</property>
  <property name="kdenlive:file_hash">935414fe998ce895867382b28ffb0024</property>
  <property name="kdenlive:audio_max0">192</property>
 </producer>
 <producer id="producer122" in="00:00:00.000" out="00:02:55.883">
  <property name="length">10554</property>
  <property name="eof">pause</property>
  <property name="resource">audio/music/Nursery/Brass Buttons/stems/04_Brass Buttons_Percussion.wav</property>
  <property name="meta.media.nb_streams">1</property>
  <property name="meta.media.0.stream.type">audio</property>
  <property name="meta.media.0.codec.sample_fmt">s32</property>
  <property name="meta.media.0.codec.sample_rate">44100</property>
  <property name="meta.media.0.codec.channels">2</property>
  <property name="meta.media.0.codec.name">pcm_s24le</property>
  <property name="meta.media.0.codec.long_name">PCM signed 24-bit little-endian</property>
  <property name="meta.media.0.codec.bit_rate">2116800</property>
  <property name="meta.attr.encoded_by.markup">Logic Pro X</property>
  <property name="meta.attr.date.markup">2016-10-15</property>
  <property name="meta.attr.creation_time.markup">12:51:45</property>
  <property name="meta.attr.time_reference.markup">158760000</property>
  <property name="meta.attr.umid.markup">0x00000000D6A9DD3E92780051303A6853FF7F0000C000620500600000000000000000000046B4530D0100000070C0CE7BFF7F000060326853FF7F00002A45B791</property>
  <property name="seekable">1</property>
  <property name="audio_index">0</property>
  <property name="video_index">-1</property>
  <property name="mute_on_pause">1</property>
  <property name="mlt_service">avformat</property>
  <property name="kdenlive:clipname"/>
  <property name="kdenlive:clip_type">1</property>
  <property name="kdenlive:folderid">157</property>
  <property name="kdenlive:id">161</property>
  <property name="kdenlive:file_size">46544032</property>
  <property name="kdenlive:file_hash">afd19eeae5c15cd6b010740c58ccfb18</property>
  <property name="kdenlive:audio_max0">216</property>
 </producer>
 <producer id="producer123" in="00:00:00.000" out="00:02:55.883">
  <property name="length">10554</property>
  <property name="eof">pause</property>
  <property name="resource">audio/music/Nursery/Brass Buttons/stems/05_Brass Buttons_Skrea SynPad.wav</property>
  <property name="meta.media.nb_streams">1</property>
  <property name="meta.media.0.stream.type">audio</property>
  <property name="meta.media.0.codec.sample_fmt">s32</property>
  <property name="meta.media.0.codec.sample_rate">44100</property>
  <property name="meta.media.0.codec.channels">2</property>
  <property name="meta.media.0.codec.name">pcm_s24le</property>
  <property name="meta.media.0.codec.long_name">PCM signed 24-bit little-endian</property>
  <property name="meta.media.0.codec.bit_rate">2116800</property>
  <property name="meta.attr.encoded_by.markup">Logic Pro X</property>
  <property name="meta.attr.date.markup">2016-10-15</property>
  <property name="meta.attr.creation_time.markup">12:51:12</property>
  <property name="meta.attr.time_reference.markup">158760000</property>
  <property name="meta.attr.umid.markup">0x00000000D6A9DD3E92780051303A6853FF7F000040B4430500600000000000000000000046B4530D0100000070C0CE7BFF7F000060326853FF7F00002A45B791</property>
  <property name="seekable">1</property>
  <property name="audio_index">0</property>
  <property name="video_index">-1</property>
  <property name="mute_on_pause">1</property>
  <property name="mlt_service">avformat</property>
  <property name="kdenlive:clipname"/>
  <property name="kdenlive:clip_type">1</property>
  <property name="kdenlive:folderid">157</property>
  <property name="kdenlive:id">162</property>
  <property name="kdenlive:file_size">46544032</property>
  <property name="kdenlive:file_hash">7664475f78a7573951b40b52fdfb0d7c</property>
  <property name="kdenlive:audio_max0">149</property>
 </producer>
 <producer id="producer124" in="00:00:00.000" out="00:03:56.233">
  <property name="length">14175</property>
  <property name="eof">pause</property>
  <property name="resource">audio/music/Nursery/Corner Aisle/Corner Aisle.wav</property>
  <property name="meta.media.nb_streams">1</property>
  <property name="meta.media.0.stream.type">audio</property>
  <property name="meta.media.0.codec.sample_fmt">s32</property>
  <property name="meta.media.0.codec.sample_rate">44100</property>
  <property name="meta.media.0.codec.channels">2</property>
  <property name="meta.media.0.codec.name">pcm_s24le</property>
  <property name="meta.media.0.codec.long_name">PCM signed 24-bit little-endian</property>
  <property name="meta.media.0.codec.bit_rate">2116800</property>
  <property name="meta.attr.encoded_by.markup">Logic Pro X</property>
  <property name="meta.attr.date.markup">2016-09-20</property>
  <property name="meta.attr.creation_time.markup">18:35:17</property>
  <property name="meta.attr.time_reference.markup">158760000</property>
  <property name="meta.attr.umid.markup">0x00000000F227204F83D100C330BA3658FF7F0000E050A304006000000000000000000000463485080100000070301476FF7F000060B23658FF7F00002AB5FC8B</property>
  <property name="meta.attr.album.markup">Nursery</property>
  <property name="seekable">1</property>
  <property name="audio_index">0</property>
  <property name="video_index">-1</property>
  <property name="mute_on_pause">1</property>
  <property name="mlt_service">avformat</property>
  <property name="kdenlive:clipname"/>
  <property name="kdenlive:clip_type">1</property>
  <property name="kdenlive:folderid">163</property>
  <property name="kdenlive:id">164</property>
  <property name="kdenlive:file_size">62513538</property>
  <property name="kdenlive:file_hash">4c99d5c963f063a3df928674e6c9f47f</property>
  <property name="kdenlive:audio_max0">250</property>
 </producer>
 <producer id="producer125" in="00:00:00.000" out="00:03:56.233">
  <property name="length">14175</property>
  <property name="eof">pause</property>
  <property name="resource">audio/music/Nursery/Corner Aisle/stems/01_Corner Aisle_Rhodes.wav</property>
  <property name="meta.media.nb_streams">1</property>
  <property name="meta.media.0.stream.type">audio</property>
  <property name="meta.media.0.codec.sample_fmt">s32</property>
  <property name="meta.media.0.codec.sample_rate">44100</property>
  <property name="meta.media.0.codec.channels">2</property>
  <property name="meta.media.0.codec.name">pcm_s24le</property>
  <property name="meta.media.0.codec.long_name">PCM signed 24-bit little-endian</property>
  <property name="meta.media.0.codec.bit_rate">2116800</property>
  <property name="meta.attr.encoded_by.markup">Logic Pro X</property>
  <property name="meta.attr.date.markup">2016-09-20</property>
  <property name="meta.attr.creation_time.markup">18:38:05</property>
  <property name="meta.attr.time_reference.markup">158760000</property>
  <property name="meta.attr.umid.markup">0x00000000F227204F83D100C330BA3658FF7F000000BC6305006000000000000000000000463485080100000070301476FF7F000060B23658FF7F00002AB5FC8B</property>
  <property name="seekable">1</property>
  <property name="audio_index">0</property>
  <property name="video_index">-1</property>
  <property name="mute_on_pause">1</property>
  <property name="mlt_service">avformat</property>
  <property name="kdenlive:clipname"/>
  <property name="kdenlive:clip_type">1</property>
  <property name="kdenlive:folderid">165</property>
  <property name="kdenlive:id">166</property>
  <property name="kdenlive:file_size">62512478</property>
  <property name="kdenlive:file_hash">ce1767cb96ef824acad582fab70d74d7</property>
  <property name="kdenlive:audio_max0">224</property>
 </producer>
 <producer id="producer126" in="00:00:00.000" out="00:03:56.233">
  <property name="length">14175</property>
  <property name="eof">pause</property>
  <property name="resource">audio/music/Nursery/Corner Aisle/stems/02_Corner Aisle_Electric Guitar.wav</property>
  <property name="meta.media.nb_streams">1</property>
  <property name="meta.media.0.stream.type">audio</property>
  <property name="meta.media.0.codec.sample_fmt">s32</property>
  <property name="meta.media.0.codec.sample_rate">44100</property>
  <property name="meta.media.0.codec.channels">2</property>
  <property name="meta.media.0.codec.name">pcm_s24le</property>
  <property name="meta.media.0.codec.long_name">PCM signed 24-bit little-endian</property>
  <property name="meta.media.0.codec.bit_rate">2116800</property>
  <property name="meta.attr.encoded_by.markup">Logic Pro X</property>
  <property name="meta.attr.date.markup">2016-09-20</property>
  <property name="meta.attr.creation_time.markup">18:37:30</property>
  <property name="meta.attr.time_reference.markup">158760000</property>
  <property name="meta.attr.umid.markup">0x00000000F227204F83D100C330BA3658FF7F000040966305006000000000000000000000463485080100000070301476FF7F000060B23658FF7F00002AB5FC8B</property>
  <property name="seekable">1</property>
  <property name="audio_index">0</property>
  <property name="video_index">-1</property>
  <property name="mute_on_pause">1</property>
  <property name="mlt_service">avformat</property>
  <property name="kdenlive:clipname"/>
  <property name="kdenlive:clip_type">1</property>
  <property name="kdenlive:folderid">165</property>
  <property name="kdenlive:id">167</property>
  <property name="kdenlive:file_size">62512478</property>
  <property name="kdenlive:file_hash">36cee8dfe94da9670d7d43468207273b</property>
  <property name="kdenlive:audio_max0">248</property>
 </producer>
 <producer id="producer127" in="00:00:00.000" out="00:03:56.233">
  <property name="length">14175</property>
  <property name="eof">pause</property>
  <property name="resource">audio/music/Nursery/Corner Aisle/stems/03_Corner Aisle_Tongue Drum.wav</property>
  <property name="meta.media.nb_streams">1</property>
  <property name="meta.media.0.stream.type">audio</property>
  <property name="meta.media.0.codec.sample_fmt">s32</property>
  <property name="meta.media.0.codec.sample_rate">44100</property>
  <property name="meta.media.0.codec.channels">2</property>
  <property name="meta.media.0.codec.name">pcm_s24le</property>
  <property name="meta.media.0.codec.long_name">PCM signed 24-bit little-endian</property>
  <property name="meta.media.0.codec.bit_rate">2116800</property>
  <property name="meta.attr.encoded_by.markup">Logic Pro X</property>
  <property name="meta.attr.date.markup">2016-09-20</property>
  <property name="meta.attr.creation_time.markup">18:36:54</property>
  <property name="meta.attr.time_reference.markup">158760000</property>
  <property name="meta.attr.umid.markup">0x00000000F227204F83D100C330BA3658FF7F0000C0306305006000000000000000000000463485080100000070301476FF7F000060B23658FF7F00002AB5FC8B</property>
  <property name="seekable">1</property>
  <property name="audio_index">0</property>
  <property name="video_index">-1</property>
  <property name="mute_on_pause">1</property>
  <property name="mlt_service">avformat</property>
  <property name="kdenlive:clipname"/>
  <property name="kdenlive:clip_type">1</property>
  <property name="kdenlive:folderid">165</property>
  <property name="kdenlive:id">168</property>
  <property name="kdenlive:file_size">62512478</property>
  <property name="kdenlive:file_hash">35c2f162d87246907cda5c1d7409bc94</property>
  <property name="kdenlive:audio_max0">219</property>
 </producer>
 <producer id="producer128" in="00:00:00.000" out="00:03:56.233">
  <property name="length">14175</property>
  <property name="eof">pause</property>
  <property name="resource">audio/music/Nursery/Corner Aisle/stems/04_Corner Aisle_Rhodia SynPad.wav</property>
  <property name="meta.media.nb_streams">1</property>
  <property name="meta.media.0.stream.type">audio</property>
  <property name="meta.media.0.codec.sample_fmt">s32</property>
  <property name="meta.media.0.codec.sample_rate">44100</property>
  <property name="meta.media.0.codec.channels">2</property>
  <property name="meta.media.0.codec.name">pcm_s24le</property>
  <property name="meta.media.0.codec.long_name">PCM signed 24-bit little-endian</property>
  <property name="meta.media.0.codec.bit_rate">2116800</property>
  <property name="meta.attr.encoded_by.markup">Logic Pro X</property>
  <property name="meta.attr.date.markup">2016-09-20</property>
  <property name="meta.attr.creation_time.markup">18:36:19</property>
  <property name="meta.attr.time_reference.markup">158760000</property>
  <property name="meta.attr.umid.markup">0x00000000F227204F83D100C330BA3658FF7F0000C0076305006000000000000000000000463485080100000070301476FF7F000060B23658FF7F00002AB5FC8B</property>
  <property name="seekable">1</property>
  <property name="audio_index">0</property>
  <property name="video_index">-1</property>
  <property name="mute_on_pause">1</property>
  <property name="mlt_service">avformat</property>
  <property name="kdenlive:clipname"/>
  <property name="kdenlive:clip_type">1</property>
  <property name="kdenlive:folderid">165</property>
  <property name="kdenlive:id">169</property>
  <property name="kdenlive:file_size">62512478</property>
  <property name="kdenlive:file_hash">57edd9b2a94413b92799c1773f7928e8</property>
  <property name="kdenlive:audio_max0">157</property>
 </producer>
 <producer id="producer129" in="00:00:00.000" out="00:04:02.983">
  <property name="length">14580</property>
  <property name="eof">pause</property>
  <property name="resource">audio/music/Nursery/Cradle Rock/Cradle Rock.wav</property>
  <property name="meta.media.nb_streams">1</property>
  <property name="meta.media.0.stream.type">audio</property>
  <property name="meta.media.0.codec.sample_fmt">s32</property>
  <property name="meta.media.0.codec.sample_rate">44100</property>
  <property name="meta.media.0.codec.channels">2</property>
  <property name="meta.media.0.codec.name">pcm_s24le</property>
  <property name="meta.media.0.codec.long_name">PCM signed 24-bit little-endian</property>
  <property name="meta.media.0.codec.bit_rate">2116800</property>
  <property name="meta.attr.encoded_by.markup">Logic Pro X</property>
  <property name="meta.attr.date.markup">2016-10-15</property>
  <property name="meta.attr.creation_time.markup">15:03:13</property>
  <property name="meta.attr.time_reference.markup">158760000</property>
  <property name="meta.attr.umid.markup">0x00000000D6A9DD3E92780051303A6853FF7F0000E0A6C20B00610000000000000000000046B4530D0100000070C0CE7BFF7F000060326853FF7F00002A45B791</property>
  <property name="meta.attr.album.markup">Nursery</property>
  <property name="seekable">1</property>
  <property name="audio_index">0</property>
  <property name="video_index">-1</property>
  <property name="mute_on_pause">1</property>
  <property name="mlt_service">avformat</property>
  <property name="kdenlive:clipname"/>
  <property name="kdenlive:clip_type">1</property>
  <property name="kdenlive:folderid">170</property>
  <property name="kdenlive:id">171</property>
  <property name="kdenlive:file_size">64306678</property>
  <property name="kdenlive:file_hash">fc7ab7bd933b6ee57266e2a99bbea3e1</property>
  <property name="kdenlive:audio_max0">244</property>
 </producer>
 <producer id="producer130" in="00:00:00.000" out="00:04:02.983">
  <property name="length">14580</property>
  <property name="eof">pause</property>
  <property name="resource">audio/music/Nursery/Cradle Rock/stems/01_Cradle Rock_Rhodes.wav</property>
  <property name="meta.media.nb_streams">1</property>
  <property name="meta.media.0.stream.type">audio</property>
  <property name="meta.media.0.codec.sample_fmt">s32</property>
  <property name="meta.media.0.codec.sample_rate">44100</property>
  <property name="meta.media.0.codec.channels">2</property>
  <property name="meta.media.0.codec.name">pcm_s24le</property>
  <property name="meta.media.0.codec.long_name">PCM signed 24-bit little-endian</property>
  <property name="meta.media.0.codec.bit_rate">2116800</property>
  <property name="meta.attr.encoded_by.markup">Logic Pro X</property>
  <property name="meta.attr.date.markup">2016-10-15</property>
  <property name="meta.attr.creation_time.markup">15:08:51</property>
  <property name="meta.attr.time_reference.markup">158760000</property>
  <property name="meta.attr.umid.markup">0x00000000D6A9DD3E92780051303A6853FF7F0000A061620500600000000000000000000046B4530D0100000070C0CE7BFF7F000060326853FF7F00002A45B791</property>
  <property name="seekable">1</property>
  <property name="audio_index">0</property>
  <property name="video_index">-1</property>
  <property name="mute_on_pause">1</property>
  <property name="mlt_service">avformat</property>
  <property name="kdenlive:clipname"/>
  <property name="kdenlive:clip_type">1</property>
  <property name="kdenlive:folderid">172</property>
  <property name="kdenlive:id">173</property>
  <property name="kdenlive:file_size">64305618</property>
  <property name="kdenlive:file_hash">35569c3916ab00b2e727e78dd5a9143a</property>
  <property name="kdenlive:audio_max0">187</property>
 </producer>
 <producer id="producer131" in="00:00:00.000" out="00:04:02.983">
  <property name="length">14580</property>
  <property name="eof">pause</property>
  <property name="resource">audio/music/Nursery/Cradle Rock/stems/02_Cradle Rock_Piano.wav</property>
  <property name="meta.media.nb_streams">1</property>
  <property name="meta.media.0.stream.type">audio</property>
  <property name="meta.media.0.codec.sample_fmt">s32</property>
  <property name="meta.media.0.codec.sample_rate">44100</property>
  <property name="meta.media.0.codec.channels">2</property>
  <property name="meta.media.0.codec.name">pcm_s24le</property>
  <property name="meta.media.0.codec.long_name">PCM signed 24-bit little-endian</property>
  <property name="meta.media.0.codec.bit_rate">2116800</property>
  <property name="meta.attr.encoded_by.markup">Logic Pro X</property>
  <property name="meta.attr.date.markup">2016-10-15</property>
  <property name="meta.attr.creation_time.markup">15:08:21</property>
  <property name="meta.attr.time_reference.markup">158760000</property>
  <property name="meta.attr.umid.markup">0x00000000D6A9DD3E92780051303A6853FF7F0000C0EFA30500600000000000000000000046B4530D0100000070C0CE7BFF7F000060326853FF7F00002A45B791</property>
  <property name="seekable">1</property>
  <property name="audio_index">0</property>
  <property name="video_index">-1</property>
  <property name="mute_on_pause">1</property>
  <property name="mlt_service">avformat</property>
  <property name="kdenlive:clipname"/>
  <property name="kdenlive:clip_type">1</property>
  <property name="kdenlive:folderid">172</property>
  <property name="kdenlive:id">174</property>
  <property name="kdenlive:file_size">64305618</property>
  <property name="kdenlive:file_hash">af9ee8bbf9bfe3b5ff6573b588e5a307</property>
  <property name="kdenlive:audio_max0">206</property>
 </producer>
 <producer id="producer132" in="00:00:00.000" out="00:04:02.983">
  <property name="length">14580</property>
  <property name="eof">pause</property>
  <property name="resource">audio/music/Nursery/Cradle Rock/stems/03_Cradle Rock_Tongue Drum.wav</property>
  <property name="meta.media.nb_streams">1</property>
  <property name="meta.media.0.stream.type">audio</property>
  <property name="meta.media.0.codec.sample_fmt">s32</property>
  <property name="meta.media.0.codec.sample_rate">44100</property>
  <property name="meta.media.0.codec.channels">2</property>
  <property name="meta.media.0.codec.name">pcm_s24le</property>
  <property name="meta.media.0.codec.long_name">PCM signed 24-bit little-endian</property>
  <property name="meta.media.0.codec.bit_rate">2116800</property>
  <property name="meta.attr.encoded_by.markup">Logic Pro X</property>
  <property name="meta.attr.date.markup">2016-10-15</property>
  <property name="meta.attr.creation_time.markup">15:07:36</property>
  <property name="meta.attr.time_reference.markup">158760000</property>
  <property name="meta.attr.umid.markup">0x00000000D6A9DD3E92780051303A6853FF7F0000802D230500600000000000000000000046B4530D0100000070C0CE7BFF7F000060326853FF7F00002A45B791</property>
  <property name="seekable">1</property>
  <property name="audio_index">0</property>
  <property name="video_index">-1</property>
  <property name="mute_on_pause">1</property>
  <property name="mlt_service">avformat</property>
  <property name="kdenlive:clipname"/>
  <property name="kdenlive:clip_type">1</property>
  <property name="kdenlive:folderid">172</property>
  <property name="kdenlive:id">175</property>
  <property name="kdenlive:file_size">64305618</property>
  <property name="kdenlive:file_hash">5abda144d9cf9fe9f5f01369c1ff4f90</property>
  <property name="kdenlive:audio_max0">176</property>
 </producer>
 <producer id="producer133" in="00:00:00.000" out="00:04:02.983">
  <property name="length">14580</property>
  <property name="eof">pause</property>
  <property name="resource">audio/music/Nursery/Cradle Rock/stems/04_Cradle Rock_Drum Kit.wav</property>
  <property name="meta.media.nb_streams">1</property>
  <property name="meta.media.0.stream.type">audio</property>
  <property name="meta.media.0.codec.sample_fmt">s32</property>
  <property name="meta.media.0.codec.sample_rate">44100</property>
  <property name="meta.media.0.codec.channels">2</property>
  <property name="meta.media.0.codec.name">pcm_s24le</property>
  <property name="meta.media.0.codec.long_name">PCM signed 24-bit little-endian</property>
  <property name="meta.media.0.codec.bit_rate">2116800</property>
  <property name="meta.attr.encoded_by.markup">Logic Pro X</property>
  <property name="meta.attr.date.markup">2016-10-15</property>
  <property name="meta.attr.creation_time.markup">15:06:26</property>
  <property name="meta.attr.time_reference.markup">158760000</property>
  <property name="meta.attr.umid.markup">0x00000000D6A9DD3E92780051303A6853FF7F00002020620500600000000000000000000046B4530D0100000070C0CE7BFF7F000060326853FF7F00002A45B791</property>
  <property name="seekable">1</property>
  <property name="audio_index">0</property>
  <property name="video_index">-1</property>
  <property name="mute_on_pause">1</property>
  <property name="mlt_service">avformat</property>
  <property name="kdenlive:clipname"/>
  <property name="kdenlive:clip_type">1</property>
  <property name="kdenlive:folderid">172</property>
  <property name="kdenlive:id">176</property>
  <property name="kdenlive:file_size">64305618</property>
  <property name="kdenlive:file_hash">8156cf256fa033e6a9d0749713c11d05</property>
  <property name="kdenlive:audio_max0">177</property>
 </producer>
 <producer id="producer134" in="00:00:00.000" out="00:04:02.983">
  <property name="length">14580</property>
  <property name="eof">pause</property>
  <property name="resource">audio/music/Nursery/Cradle Rock/stems/05_Cradle Rock_Drum Kit.wav</property>
  <property name="meta.media.nb_streams">1</property>
  <property name="meta.media.0.stream.type">audio</property>
  <property name="meta.media.0.codec.sample_fmt">s32</property>
  <property name="meta.media.0.codec.sample_rate">44100</property>
  <property name="meta.media.0.codec.channels">2</property>
  <property name="meta.media.0.codec.name">pcm_s24le</property>
  <property name="meta.media.0.codec.long_name">PCM signed 24-bit little-endian</property>
  <property name="meta.media.0.codec.bit_rate">2116800</property>
  <property name="meta.attr.encoded_by.markup">Logic Pro X</property>
  <property name="meta.attr.date.markup">2016-10-15</property>
  <property name="meta.attr.creation_time.markup">15:05:30</property>
  <property name="meta.attr.time_reference.markup">158760000</property>
  <property name="meta.attr.umid.markup">0x00000000D6A9DD3E92780051303A6853FF7F000020FC620580600000000000000000000046B4530D0100000070C0CE7BFF7F000060326853FF7F00002A45B791</property>
  <property name="seekable">1</property>
  <property name="audio_index">0</property>
  <property name="video_index">-1</property>
  <property name="mute_on_pause">1</property>
  <property name="mlt_service">avformat</property>
  <property name="kdenlive:clipname"/>
  <property name="kdenlive:clip_type">1</property>
  <property name="kdenlive:folderid">172</property>
  <property name="kdenlive:id">177</property>
  <property name="kdenlive:file_size">64305618</property>
  <property name="kdenlive:file_hash">ea9efe086c673cc8e60ea65ffb1166dd</property>
  <property name="kdenlive:audio_max0">181</property>
 </producer>
 <producer id="producer135" in="00:00:00.000" out="00:03:25.100">
  <property name="length">12307</property>
  <property name="eof">pause</property>
  <property name="resource">audio/music/Nursery/Craypaper Wrapper/Craypaper Wrapper.wav</property>
  <property name="meta.media.nb_streams">1</property>
  <property name="meta.media.0.stream.type">audio</property>
  <property name="meta.media.0.codec.sample_fmt">s32</property>
  <property name="meta.media.0.codec.sample_rate">44100</property>
  <property name="meta.media.0.codec.channels">2</property>
  <property name="meta.media.0.codec.name">pcm_s24le</property>
  <property name="meta.media.0.codec.long_name">PCM signed 24-bit little-endian</property>
  <property name="meta.media.0.codec.bit_rate">2116800</property>
  <property name="meta.attr.encoded_by.markup">Logic Pro X</property>
  <property name="meta.attr.date.markup">2016-09-20</property>
  <property name="meta.attr.creation_time.markup">19:48:56</property>
  <property name="meta.attr.time_reference.markup">158760000</property>
  <property name="meta.attr.umid.markup">0x00000000F227204F83D100C330BA3658FF7F000040716307806000000000000000000000463485080100000070301476FF7F000060B23658FF7F00002AB5FC8B</property>
  <property name="meta.attr.album.markup">Nursery</property>
  <property name="seekable">1</property>
  <property name="audio_index">0</property>
  <property name="video_index">-1</property>
  <property name="mute_on_pause">1</property>
  <property name="mlt_service">avformat</property>
  <property name="kdenlive:clipname"/>
  <property name="kdenlive:clip_type">1</property>
  <property name="kdenlive:folderid">178</property>
  <property name="kdenlive:id">179</property>
  <property name="kdenlive:file_size">54275558</property>
  <property name="kdenlive:file_hash">bef45c3ec9205f8c5f0656bc3157aa22</property>
  <property name="kdenlive:audio_max0">249</property>
 </producer>
 <producer id="producer137" in="00:00:00.000" out="00:03:25.100">
  <property name="length">12307</property>
  <property name="eof">pause</property>
  <property name="resource">audio/music/Nursery/Craypaper Wrapper/stems/01_Craypaper Wrapper_Rhodes.wav</property>
  <property name="meta.media.nb_streams">1</property>
  <property name="meta.media.0.stream.type">audio</property>
  <property name="meta.media.0.codec.sample_fmt">s32</property>
  <property name="meta.media.0.codec.sample_rate">44100</property>
  <property name="meta.media.0.codec.channels">2</property>
  <property name="meta.media.0.codec.name">pcm_s24le</property>
  <property name="meta.media.0.codec.long_name">PCM signed 24-bit little-endian</property>
  <property name="meta.media.0.codec.bit_rate">2116800</property>
  <property name="meta.attr.encoded_by.markup">Logic Pro X</property>
  <property name="meta.attr.date.markup">2017-01-15</property>
  <property name="meta.attr.creation_time.markup">19:46:18</property>
  <property name="meta.attr.time_reference.markup">158760000</property>
  <property name="meta.attr.umid.markup">0x000000000000000000000000000000000000000000000000000000005B000B45F627098CD0C99C57FF7F000046241F090100000000C29C57FF7F0000ECBEF0DA</property>
  <property name="seekable">1</property>
  <property name="audio_index">0</property>
  <property name="video_index">-1</property>
  <property name="mute_on_pause">1</property>
  <property name="mlt_service">avformat</property>
  <property name="kdenlive:clipname"/>
  <property name="kdenlive:clip_type">1</property>
  <property name="kdenlive:folderid">180</property>
  <property name="kdenlive:id">181</property>
  <property name="kdenlive:file_size">54274498</property>
  <property name="kdenlive:file_hash">e93e8388b00f8323e6196a8fa2693d98</property>
  <property name="kdenlive:audio_max0">253</property>
 </producer>
 <producer id="producer136" in="00:00:00.000" out="00:03:25.100">
  <property name="length">12307</property>
  <property name="eof">pause</property>
  <property name="resource">audio/music/Nursery/Craypaper Wrapper/stems/02_Craypaper Wrapper_Electric Guitar.wav</property>
  <property name="meta.media.nb_streams">1</property>
  <property name="meta.media.0.stream.type">audio</property>
  <property name="meta.media.0.codec.sample_fmt">s32</property>
  <property name="meta.media.0.codec.sample_rate">44100</property>
  <property name="meta.media.0.codec.channels">2</property>
  <property name="meta.media.0.codec.name">pcm_s24le</property>
  <property name="meta.media.0.codec.long_name">PCM signed 24-bit little-endian</property>
  <property name="meta.media.0.codec.bit_rate">2116800</property>
  <property name="meta.attr.encoded_by.markup">Logic Pro X</property>
  <property name="meta.attr.date.markup">2017-01-15</property>
  <property name="meta.attr.creation_time.markup">19:45:21</property>
  <property name="meta.attr.time_reference.markup">158760000</property>
  <property name="meta.attr.umid.markup">0x000000000000000000000000000000000000000000000000000000005B000B45F627098CD0C99C57FF7F000046241F090100000000C29C57FF7F0000ECBEF0DA</property>
  <property name="seekable">1</property>
  <property name="audio_index">0</property>
  <property name="video_index">-1</property>
  <property name="mute_on_pause">1</property>
  <property name="mlt_service">avformat</property>
  <property name="kdenlive:clipname"/>
  <property name="kdenlive:clip_type">1</property>
  <property name="kdenlive:folderid">180</property>
  <property name="kdenlive:id">182</property>
  <property name="kdenlive:file_size">54274498</property>
  <property name="kdenlive:file_hash">a8fd16e268f3e930ec51b05b95527274</property>
  <property name="kdenlive:audio_max0">249</property>
 </producer>
 <producer id="producer138" in="00:00:00.000" out="00:03:25.100">
  <property name="length">12307</property>
  <property name="eof">pause</property>
  <property name="resource">audio/music/Nursery/Craypaper Wrapper/stems/03_Craypaper Wrapper_Tongue Drum.wav</property>
  <property name="meta.media.nb_streams">1</property>
  <property name="meta.media.0.stream.type">audio</property>
  <property name="meta.media.0.codec.sample_fmt">s32</property>
  <property name="meta.media.0.codec.sample_rate">44100</property>
  <property name="meta.media.0.codec.channels">2</property>
  <property name="meta.media.0.codec.name">pcm_s24le</property>
  <property name="meta.media.0.codec.long_name">PCM signed 24-bit little-endian</property>
  <property name="meta.media.0.codec.bit_rate">2116800</property>
  <property name="meta.attr.encoded_by.markup">Logic Pro X</property>
  <property name="meta.attr.date.markup">2017-01-15</property>
  <property name="meta.attr.creation_time.markup">19:44:27</property>
  <property name="meta.attr.time_reference.markup">158760000</property>
  <property name="meta.attr.umid.markup">0x000000000000000000000000000000000000000000000000000000005B000B45F627098CD0C99C57FF7F000046241F090100000000C29C57FF7F0000ECBEF0DA</property>
  <property name="seekable">1</property>
  <property name="audio_index">0</property>
  <property name="video_index">-1</property>
  <property name="mute_on_pause">1</property>
  <property name="mlt_service">avformat</property>
  <property name="kdenlive:clipname"/>
  <property name="kdenlive:clip_type">1</property>
  <property name="kdenlive:folderid">180</property>
  <property name="kdenlive:id">183</property>
  <property name="kdenlive:file_size">54274498</property>
  <property name="kdenlive:file_hash">f8eb18a3da8520cfec928d0c2b0c514d</property>
  <property name="kdenlive:audio_max0">241</property>
 </producer>
 <producer id="producer140" in="00:00:00.000" out="00:03:25.100">
  <property name="length">12307</property>
  <property name="eof">pause</property>
  <property name="resource">audio/music/Nursery/Craypaper Wrapper/stems/04_Craypaper Wrapper_Percussion.wav</property>
  <property name="meta.media.nb_streams">1</property>
  <property name="meta.media.0.stream.type">audio</property>
  <property name="meta.media.0.codec.sample_fmt">s32</property>
  <property name="meta.media.0.codec.sample_rate">44100</property>
  <property name="meta.media.0.codec.channels">2</property>
  <property name="meta.media.0.codec.name">pcm_s24le</property>
  <property name="meta.media.0.codec.long_name">PCM signed 24-bit little-endian</property>
  <property name="meta.media.0.codec.bit_rate">2116800</property>
  <property name="meta.attr.encoded_by.markup">Logic Pro X</property>
  <property name="meta.attr.date.markup">2017-01-15</property>
  <property name="meta.attr.creation_time.markup">19:43:26</property>
  <property name="meta.attr.time_reference.markup">158760000</property>
  <property name="meta.attr.umid.markup">0x000000000000000000000000000000000000000000000000000000005B000B45F627098CD0C99C57FF7F000046241F090100000000C29C57FF7F0000ECBEF0DA</property>
  <property name="seekable">1</property>
  <property name="audio_index">0</property>
  <property name="video_index">-1</property>
  <property name="mute_on_pause">1</property>
  <property name="mlt_service">avformat</property>
  <property name="kdenlive:clipname"/>
  <property name="kdenlive:clip_type">1</property>
  <property name="kdenlive:folderid">180</property>
  <property name="kdenlive:id">184</property>
  <property name="kdenlive:file_size">54274498</property>
  <property name="kdenlive:file_hash">79833bd80111d8611cfb074b92539d22</property>
  <property name="kdenlive:audio_max0">254</property>
 </producer>
 <producer id="producer139" in="00:00:00.000" out="00:03:25.100">
  <property name="length">12307</property>
  <property name="eof">pause</property>
  <property name="resource">audio/music/Nursery/Craypaper Wrapper/stems/05_Craypaper Wrapper_Rhodia SynPad.wav</property>
  <property name="meta.media.nb_streams">1</property>
  <property name="meta.media.0.stream.type">audio</property>
  <property name="meta.media.0.codec.sample_fmt">s32</property>
  <property name="meta.media.0.codec.sample_rate">44100</property>
  <property name="meta.media.0.codec.channels">2</property>
  <property name="meta.media.0.codec.name">pcm_s24le</property>
  <property name="meta.media.0.codec.long_name">PCM signed 24-bit little-endian</property>
  <property name="meta.media.0.codec.bit_rate">2116800</property>
  <property name="meta.attr.encoded_by.markup">Logic Pro X</property>
  <property name="meta.attr.date.markup">2017-01-15</property>
  <property name="meta.attr.creation_time.markup">19:42:09</property>
  <property name="meta.attr.time_reference.markup">158760000</property>
  <property name="meta.attr.umid.markup">0x000000000000000000000000000000000000000000000000000000005B000B45F627098CD0C99C57FF7F000046241F090100000000C29C57FF7F0000ECBEF0DA</property>
  <property name="seekable">1</property>
  <property name="audio_index">0</property>
  <property name="video_index">-1</property>
  <property name="mute_on_pause">1</property>
  <property name="mlt_service">avformat</property>
  <property name="kdenlive:clipname"/>
  <property name="kdenlive:clip_type">1</property>
  <property name="kdenlive:folderid">180</property>
  <property name="kdenlive:id">185</property>
  <property name="kdenlive:file_size">54274498</property>
  <property name="kdenlive:file_hash">4de25bf0904ba43324ac79aacc614028</property>
  <property name="kdenlive:audio_max0">185</property>
 </producer>
 <producer id="producer141" in="00:00:00.000" out="00:02:48.300">
  <property name="length">10099</property>
  <property name="eof">pause</property>
  <property name="resource">audio/music/Nursery/Darklit Carpet/Darklit Carpet.wav</property>
  <property name="meta.media.nb_streams">1</property>
  <property name="meta.media.0.stream.type">audio</property>
  <property name="meta.media.0.codec.sample_fmt">s32</property>
  <property name="meta.media.0.codec.sample_rate">44100</property>
  <property name="meta.media.0.codec.channels">2</property>
  <property name="meta.media.0.codec.name">pcm_s24le</property>
  <property name="meta.media.0.codec.long_name">PCM signed 24-bit little-endian</property>
  <property name="meta.media.0.codec.bit_rate">2116800</property>
  <property name="meta.attr.encoded_by.markup">Logic Pro X</property>
  <property name="meta.attr.date.markup">2018-02-12</property>
  <property name="meta.attr.creation_time.markup">12:15:31</property>
  <property name="meta.attr.time_reference.markup">159051302</property>
  <property name="meta.attr.umid.markup">0x00000000000000000000000000000000000000000000000000000000D20029D40BE531B1D0A1F4EDFE7F0000507639030100000010A2F4EDFE7F00003D465D6B</property>
  <property name="meta.attr.album.markup">Nursery</property>
  <property name="seekable">1</property>
  <property name="audio_index">0</property>
  <property name="video_index">-1</property>
  <property name="mute_on_pause">1</property>
  <property name="mlt_service">avformat</property>
  <property name="kdenlive:clipname"/>
  <property name="kdenlive:clip_type">1</property>
  <property name="kdenlive:folderid">186</property>
  <property name="kdenlive:id">187</property>
  <property name="kdenlive:file_size">44538812</property>
  <property name="kdenlive:file_hash">bc83df251c8eb6cbe917c1a2c94a0659</property>
  <property name="kdenlive:audio_max0">231</property>
 </producer>
 <producer id="producer143" in="00:00:00.000" out="00:02:48.300">
  <property name="length">10099</property>
  <property name="eof">pause</property>
  <property name="resource">audio/music/Nursery/Darklit Carpet/stems/01_Darklit Carpet_Tongue Drum.wav</property>
  <property name="meta.media.nb_streams">1</property>
  <property name="meta.media.0.stream.type">audio</property>
  <property name="meta.media.0.codec.sample_fmt">s32</property>
  <property name="meta.media.0.codec.sample_rate">44100</property>
  <property name="meta.media.0.codec.channels">2</property>
  <property name="meta.media.0.codec.name">pcm_s24le</property>
  <property name="meta.media.0.codec.long_name">PCM signed 24-bit little-endian</property>
  <property name="meta.media.0.codec.bit_rate">2116800</property>
  <property name="meta.attr.encoded_by.markup">Logic Pro X</property>
  <property name="meta.attr.date.markup">2018-02-12</property>
  <property name="meta.attr.creation_time.markup">14:48:22</property>
  <property name="meta.attr.time_reference.markup">159051302</property>
  <property name="meta.attr.umid.markup">0x000000000000000000000000000000000000000000000000000000004F0039BDD696D15D606EE2E9FE7F000050E64B0701000000A06EE2E9FE7F00003D86F66C</property>
  <property name="seekable">1</property>
  <property name="audio_index">0</property>
  <property name="video_index">-1</property>
  <property name="mute_on_pause">1</property>
  <property name="mlt_service">avformat</property>
  <property name="kdenlive:clipname"/>
  <property name="kdenlive:clip_type">1</property>
  <property name="kdenlive:folderid">188</property>
  <property name="kdenlive:id">189</property>
  <property name="kdenlive:file_size">44595760</property>
  <property name="kdenlive:file_hash">eb73ce5343583609d61d20fac5608481</property>
  <property name="kdenlive:audio_max0">136</property>
 </producer>
 <producer id="producer142" in="00:00:00.000" out="00:02:48.300">
  <property name="length">10099</property>
  <property name="eof">pause</property>
  <property name="resource">audio/music/Nursery/Darklit Carpet/stems/02_Darklit Carpet_Rhodes.wav</property>
  <property name="meta.media.nb_streams">1</property>
  <property name="meta.media.0.stream.type">audio</property>
  <property name="meta.media.0.codec.sample_fmt">s32</property>
  <property name="meta.media.0.codec.sample_rate">44100</property>
  <property name="meta.media.0.codec.channels">2</property>
  <property name="meta.media.0.codec.name">pcm_s24le</property>
  <property name="meta.media.0.codec.long_name">PCM signed 24-bit little-endian</property>
  <property name="meta.media.0.codec.bit_rate">2116800</property>
  <property name="meta.attr.encoded_by.markup">Logic Pro X</property>
  <property name="meta.attr.date.markup">2018-02-12</property>
  <property name="meta.attr.creation_time.markup">14:48:31</property>
  <property name="meta.attr.time_reference.markup">159051302</property>
  <property name="meta.attr.umid.markup">0x000000000000000000000000000000000000000000000000000000004F0039BDD696D15D606EE2E9FE7F000050E64B0701000000A06EE2E9FE7F00003D86F66C</property>
  <property name="seekable">1</property>
  <property name="audio_index">0</property>
  <property name="video_index">-1</property>
  <property name="mute_on_pause">1</property>
  <property name="mlt_service">avformat</property>
  <property name="kdenlive:clipname"/>
  <property name="kdenlive:clip_type">1</property>
  <property name="kdenlive:folderid">188</property>
  <property name="kdenlive:id">190</property>
  <property name="kdenlive:file_size">44595760</property>
  <property name="kdenlive:file_hash">5aa3f33be3c088bab7ba8a7fa3a33531</property>
  <property name="kdenlive:audio_max0">140</property>
 </producer>
 <producer id="producer144" in="00:00:00.000" out="00:02:48.300">
  <property name="length">10099</property>
  <property name="eof">pause</property>
  <property name="resource">audio/music/Nursery/Darklit Carpet/stems/03_Darklit Carpet_Tongue Drum.wav</property>
  <property name="meta.media.nb_streams">1</property>
  <property name="meta.media.0.stream.type">audio</property>
  <property name="meta.media.0.codec.sample_fmt">s32</property>
  <property name="meta.media.0.codec.sample_rate">44100</property>
  <property name="meta.media.0.codec.channels">2</property>
  <property name="meta.media.0.codec.name">pcm_s24le</property>
  <property name="meta.media.0.codec.long_name">PCM signed 24-bit little-endian</property>
  <property name="meta.media.0.codec.bit_rate">2116800</property>
  <property name="meta.attr.encoded_by.markup">Logic Pro X</property>
  <property name="meta.attr.date.markup">2018-02-12</property>
  <property name="meta.attr.creation_time.markup">14:48:29</property>
  <property name="meta.attr.time_reference.markup">159051302</property>
  <property name="meta.attr.umid.markup">0x000000000000000000000000000000000000000000000000000000004F0039BDD696D15D606EE2E9FE7F000050E64B0701000000A06EE2E9FE7F00003D86F66C</property>
  <property name="seekable">1</property>
  <property name="audio_index">0</property>
  <property name="video_index">-1</property>
  <property name="mute_on_pause">1</property>
  <property name="mlt_service">avformat</property>
  <property name="kdenlive:clipname"/>
  <property name="kdenlive:clip_type">1</property>
  <property name="kdenlive:folderid">188</property>
  <property name="kdenlive:id">191</property>
  <property name="kdenlive:file_size">44595760</property>
  <property name="kdenlive:file_hash">9704e5e4fb73fdc0becb25b25b12c4c5</property>
  <property name="kdenlive:audio_max0">163</property>
 </producer>
 <producer id="producer145" in="00:00:00.000" out="00:02:48.300">
  <property name="length">10099</property>
  <property name="eof">pause</property>
  <property name="resource">audio/music/Nursery/Darklit Carpet/stems/04_Darklit Carpet_Fjoria SynPad.wav</property>
  <property name="meta.media.nb_streams">1</property>
  <property name="meta.media.0.stream.type">audio</property>
  <property name="meta.media.0.codec.sample_fmt">s32</property>
  <property name="meta.media.0.codec.sample_rate">44100</property>
  <property name="meta.media.0.codec.channels">2</property>
  <property name="meta.media.0.codec.name">pcm_s24le</property>
  <property name="meta.media.0.codec.long_name">PCM signed 24-bit little-endian</property>
  <property name="meta.media.0.codec.bit_rate">2116800</property>
  <property name="meta.attr.encoded_by.markup">Logic Pro X</property>
  <property name="meta.attr.date.markup">2018-02-12</property>
  <property name="meta.attr.creation_time.markup">14:48:24</property>
  <property name="meta.attr.time_reference.markup">159051302</property>
  <property name="meta.attr.umid.markup">0x000000000000000000000000000000000000000000000000000000004F0039BDD696D15D606EE2E9FE7F000050E64B0701000000A06EE2E9FE7F00003D86F66C</property>
  <property name="seekable">1</property>
  <property name="audio_index">0</property>
  <property name="video_index">-1</property>
  <property name="mute_on_pause">1</property>
  <property name="mlt_service">avformat</property>
  <property name="kdenlive:clipname"/>
  <property name="kdenlive:clip_type">1</property>
  <property name="kdenlive:folderid">188</property>
  <property name="kdenlive:id">192</property>
  <property name="kdenlive:file_size">44595760</property>
  <property name="kdenlive:file_hash">060e6a1a1b6b43552d852f93deadc51f</property>
  <property name="kdenlive:audio_max0">108</property>
 </producer>
 <producer id="producer146" in="00:00:00.000" out="00:02:48.300">
  <property name="length">10099</property>
  <property name="eof">pause</property>
  <property name="resource">audio/music/Nursery/Darklit Carpet/stems/05_Darklit Carpet_Fjoria SynPad.wav</property>
  <property name="meta.media.nb_streams">1</property>
  <property name="meta.media.0.stream.type">audio</property>
  <property name="meta.media.0.codec.sample_fmt">s32</property>
  <property name="meta.media.0.codec.sample_rate">44100</property>
  <property name="meta.media.0.codec.channels">2</property>
  <property name="meta.media.0.codec.name">pcm_s24le</property>
  <property name="meta.media.0.codec.long_name">PCM signed 24-bit little-endian</property>
  <property name="meta.media.0.codec.bit_rate">2116800</property>
  <property name="meta.attr.encoded_by.markup">Logic Pro X</property>
  <property name="meta.attr.date.markup">2018-02-12</property>
  <property name="meta.attr.creation_time.markup">14:48:26</property>
  <property name="meta.attr.time_reference.markup">159051302</property>
  <property name="meta.attr.umid.markup">0x000000000000000000000000000000000000000000000000000000004F0039BDD696D15D606EE2E9FE7F000050E64B0701000000A06EE2E9FE7F00003D86F66C</property>
  <property name="seekable">1</property>
  <property name="audio_index">0</property>
  <property name="video_index">-1</property>
  <property name="mute_on_pause">1</property>
  <property name="mlt_service">avformat</property>
  <property name="kdenlive:clipname"/>
  <property name="kdenlive:clip_type">1</property>
  <property name="kdenlive:folderid">188</property>
  <property name="kdenlive:id">193</property>
  <property name="kdenlive:file_size">44595760</property>
  <property name="kdenlive:file_hash">337eed69786913683d139b0f27461f42</property>
  <property name="kdenlive:audio_max0">58</property>
 </producer>
 <producer id="producer147" in="00:00:00.000" out="00:01:01.933">
  <property name="length">3717</property>
  <property name="eof">pause</property>
  <property name="resource">audio/music/Nursery/Darklit Carpet/variations/Darklit Carpet | 1 Min.wav</property>
  <property name="meta.media.nb_streams">1</property>
  <property name="meta.media.0.stream.type">audio</property>
  <property name="meta.media.0.codec.sample_fmt">s32</property>
  <property name="meta.media.0.codec.sample_rate">44100</property>
  <property name="meta.media.0.codec.channels">2</property>
  <property name="meta.media.0.codec.name">pcm_s24le</property>
  <property name="meta.media.0.codec.long_name">PCM signed 24-bit little-endian</property>
  <property name="meta.media.0.codec.bit_rate">2116800</property>
  <property name="meta.attr.encoded_by.markup">Logic Pro X</property>
  <property name="meta.attr.date.markup">2018-02-12</property>
  <property name="meta.attr.creation_time.markup">13:51:26</property>
  <property name="meta.attr.time_reference.markup">163663596</property>
  <property name="meta.attr.umid.markup">0x00000000000000000000000000000000000000000000000000000000D20029D40BE531B1D0A1F4EDFE7F0000507639030100000010A2F4EDFE7F00003D465D6B</property>
  <property name="meta.attr.album.markup">Nursery</property>
  <property name="seekable">1</property>
  <property name="audio_index">0</property>
  <property name="video_index">-1</property>
  <property name="mute_on_pause">1</property>
  <property name="mlt_service">avformat</property>
  <property name="kdenlive:clipname"/>
  <property name="kdenlive:clip_type">1</property>
  <property name="kdenlive:folderid">194</property>
  <property name="kdenlive:id">195</property>
  <property name="kdenlive:file_size">16394360</property>
  <property name="kdenlive:file_hash">e0062db33427b0cfa74fda95d87f3ad2</property>
  <property name="kdenlive:audio_max0">253</property>
 </producer>
 <producer id="producer148" in="00:00:00.000" out="00:02:37.867">
  <property name="length">9473</property>
  <property name="eof">pause</property>
  <property name="resource">audio/music/Nursery/Darklit Carpet/variations/Darklit Carpet | Atmo.wav</property>
  <property name="meta.media.nb_streams">1</property>
  <property name="meta.media.0.stream.type">audio</property>
  <property name="meta.media.0.codec.sample_fmt">s32</property>
  <property name="meta.media.0.codec.sample_rate">44100</property>
  <property name="meta.media.0.codec.channels">2</property>
  <property name="meta.media.0.codec.name">pcm_s24le</property>
  <property name="meta.media.0.codec.long_name">PCM signed 24-bit little-endian</property>
  <property name="meta.media.0.codec.bit_rate">2116800</property>
  <property name="meta.attr.encoded_by.markup">Logic Pro X</property>
  <property name="meta.attr.date.markup">2018-02-12</property>
  <property name="meta.attr.creation_time.markup">13:52:19</property>
  <property name="meta.attr.time_reference.markup">159426815</property>
  <property name="meta.attr.umid.markup">0x00000000000000000000000000000000000000000000000000000000D20029D40BE531B1D0A1F4EDFE7F0000507639030100000010A2F4EDFE7F00003D465D6B</property>
  <property name="meta.attr.album.markup">Nursery</property>
  <property name="seekable">1</property>
  <property name="audio_index">0</property>
  <property name="video_index">-1</property>
  <property name="mute_on_pause">1</property>
  <property name="mlt_service">avformat</property>
  <property name="kdenlive:clipname"/>
  <property name="kdenlive:clip_type">1</property>
  <property name="kdenlive:folderid">194</property>
  <property name="kdenlive:id">196</property>
  <property name="kdenlive:file_size">41775818</property>
  <property name="kdenlive:file_hash">5953bea24e807bc2250b9b3310d7f94c</property>
  <property name="kdenlive:audio_max0">213</property>
 </producer>
 <producer id="producer149" in="00:00:00.000" out="00:02:48.300">
  <property name="length">10099</property>
  <property name="eof">pause</property>
  <property name="resource">audio/music/Nursery/Darklit Carpet/variations/Darklit Carpet | Dark Mbira.wav</property>
  <property name="meta.media.nb_streams">1</property>
  <property name="meta.media.0.stream.type">audio</property>
  <property name="meta.media.0.codec.sample_fmt">s32</property>
  <property name="meta.media.0.codec.sample_rate">44100</property>
  <property name="meta.media.0.codec.channels">2</property>
  <property name="meta.media.0.codec.name">pcm_s24le</property>
  <property name="meta.media.0.codec.long_name">PCM signed 24-bit little-endian</property>
  <property name="meta.media.0.codec.bit_rate">2116800</property>
  <property name="meta.attr.encoded_by.markup">Logic Pro X</property>
  <property name="meta.attr.date.markup">2018-02-12</property>
  <property name="meta.attr.creation_time.markup">12:45:45</property>
  <property name="meta.attr.time_reference.markup">159051302</property>
  <property name="meta.attr.umid.markup">0x00000000000000000000000000000000000000000000000000000000D20029D40BE531B1D0A1F4EDFE7F0000507639030100000010A2F4EDFE7F00003D465D6B</property>
  <property name="meta.attr.album.markup">Nursery</property>
  <property name="seekable">1</property>
  <property name="audio_index">0</property>
  <property name="video_index">-1</property>
  <property name="mute_on_pause">1</property>
  <property name="mlt_service">avformat</property>
  <property name="kdenlive:clipname"/>
  <property name="kdenlive:clip_type">1</property>
  <property name="kdenlive:folderid">194</property>
  <property name="kdenlive:id">197</property>
  <property name="kdenlive:file_size">44538812</property>
  <property name="kdenlive:file_hash">5d074b537bdfdfc941c421a1d7e7e777</property>
  <property name="kdenlive:audio_max0">227</property>
 </producer>
 <producer id="producer150" in="00:00:00.000" out="00:00:50.633">
  <property name="length">3039</property>
  <property name="eof">pause</property>
  <property name="resource">audio/music/Nursery/Darklit Carpet/variations/Darklit Carpet | Minimal.wav</property>
  <property name="meta.media.nb_streams">1</property>
  <property name="meta.media.0.stream.type">audio</property>
  <property name="meta.media.0.codec.sample_fmt">s32</property>
  <property name="meta.media.0.codec.sample_rate">44100</property>
  <property name="meta.media.0.codec.channels">2</property>
  <property name="meta.media.0.codec.name">pcm_s24le</property>
  <property name="meta.media.0.codec.long_name">PCM signed 24-bit little-endian</property>
  <property name="meta.media.0.codec.bit_rate">2116800</property>
  <property name="meta.attr.encoded_by.markup">Logic Pro X</property>
  <property name="meta.attr.date.markup">2018-02-12</property>
  <property name="meta.attr.creation_time.markup">13:50:29</property>
  <property name="meta.attr.time_reference.markup">161381724</property>
  <property name="meta.attr.umid.markup">0x00000000000000000000000000000000000000000000000000000000D20029D40BE531B1D0A1F4EDFE7F0000507639030100000010A2F4EDFE7F00003D465D6B</property>
  <property name="meta.attr.album.markup">Nursery</property>
  <property name="seekable">1</property>
  <property name="audio_index">0</property>
  <property name="video_index">-1</property>
  <property name="mute_on_pause">1</property>
  <property name="mlt_service">avformat</property>
  <property name="kdenlive:clipname"/>
  <property name="kdenlive:clip_type">1</property>
  <property name="kdenlive:folderid">194</property>
  <property name="kdenlive:id">198</property>
  <property name="kdenlive:file_size">13401758</property>
  <property name="kdenlive:file_hash">edcdeadfd4d8fdb9a8f607c08610dff7</property>
  <property name="kdenlive:audio_max0">222</property>
 </producer>
 <producer id="producer151" in="00:00:00.000" out="00:01:00.900">
  <property name="length">3655</property>
  <property name="eof">pause</property>
  <property name="resource">audio/music/Nursery/Darklit Carpet/variations/Darklit Carpet | Short Form.wav</property>
  <property name="meta.media.nb_streams">1</property>
  <property name="meta.media.0.stream.type">audio</property>
  <property name="meta.media.0.codec.sample_fmt">s32</property>
  <property name="meta.media.0.codec.sample_rate">44100</property>
  <property name="meta.media.0.codec.channels">2</property>
  <property name="meta.media.0.codec.name">pcm_s24le</property>
  <property name="meta.media.0.codec.long_name">PCM signed 24-bit little-endian</property>
  <property name="meta.media.0.codec.bit_rate">2116800</property>
  <property name="meta.attr.encoded_by.markup">Logic Pro X</property>
  <property name="meta.attr.date.markup">2018-02-12</property>
  <property name="meta.attr.creation_time.markup">13:50:51</property>
  <property name="meta.attr.time_reference.markup">161381724</property>
  <property name="meta.attr.umid.markup">0x00000000000000000000000000000000000000000000000000000000D20029D40BE531B1D0A1F4EDFE7F0000507639030100000010A2F4EDFE7F00003D465D6B</property>
  <property name="meta.attr.album.markup">Nursery</property>
  <property name="seekable">1</property>
  <property name="audio_index">0</property>
  <property name="video_index">-1</property>
  <property name="mute_on_pause">1</property>
  <property name="mlt_service">avformat</property>
  <property name="kdenlive:clipname"/>
  <property name="kdenlive:clip_type">1</property>
  <property name="kdenlive:folderid">194</property>
  <property name="kdenlive:id">199</property>
  <property name="kdenlive:file_size">16121702</property>
  <property name="kdenlive:file_hash">a38a45ec20ac722646c858ae8029aee6</property>
  <property name="kdenlive:audio_max0">228</property>
 </producer>
 <producer id="producer152" in="00:00:00.000" out="00:02:48.300">
  <property name="length">10099</property>
  <property name="eof">pause</property>
  <property name="resource">audio/music/Nursery/Darklit Carpet/variations/Darklit Carpet | Strange Beat Mbira.wav</property>
  <property name="meta.media.nb_streams">1</property>
  <property name="meta.media.0.stream.type">audio</property>
  <property name="meta.media.0.codec.sample_fmt">s32</property>
  <property name="meta.media.0.codec.sample_rate">44100</property>
  <property name="meta.media.0.codec.channels">2</property>
  <property name="meta.media.0.codec.name">pcm_s24le</property>
  <property name="meta.media.0.codec.long_name">PCM signed 24-bit little-endian</property>
  <property name="meta.media.0.codec.bit_rate">2116800</property>
  <property name="meta.attr.encoded_by.markup">Logic Pro X</property>
  <property name="meta.attr.date.markup">2018-02-12</property>
  <property name="meta.attr.creation_time.markup">13:46:21</property>
  <property name="meta.attr.time_reference.markup">159051302</property>
  <property name="meta.attr.umid.markup">0x00000000000000000000000000000000000000000000000000000000D20029D40BE531B1D0A1F4EDFE7F0000507639030100000010A2F4EDFE7F00003D465D6B</property>
  <property name="meta.attr.album.markup">Nursery</property>
  <property name="seekable">1</property>
  <property name="audio_index">0</property>
  <property name="video_index">-1</property>
  <property name="mute_on_pause">1</property>
  <property name="mlt_service">avformat</property>
  <property name="kdenlive:clipname"/>
  <property name="kdenlive:clip_type">1</property>
  <property name="kdenlive:folderid">194</property>
  <property name="kdenlive:id">200</property>
  <property name="kdenlive:file_size">44538812</property>
  <property name="kdenlive:file_hash">aab73ce9ef76bb76f5a5abec3b7c1c7f</property>
  <property name="kdenlive:audio_max0">214</property>
 </producer>
 <producer id="producer153" in="00:00:00.000" out="00:02:38.850">
  <property name="length">9532</property>
  <property name="eof">pause</property>
  <property name="resource">audio/music/Nursery/Lick Stick */Lick Stick.wav</property>
  <property name="meta.media.nb_streams">1</property>
  <property name="meta.media.0.stream.type">audio</property>
  <property name="meta.media.0.codec.sample_fmt">s32</property>
  <property name="meta.media.0.codec.sample_rate">44100</property>
  <property name="meta.media.0.codec.channels">2</property>
  <property name="meta.media.0.codec.name">pcm_s24le</property>
  <property name="meta.media.0.codec.long_name">PCM signed 24-bit little-endian</property>
  <property name="meta.media.0.codec.bit_rate">2116800</property>
  <property name="meta.attr.encoded_by.markup">Logic Pro X</property>
  <property name="meta.attr.date.markup">2018-02-10</property>
  <property name="meta.attr.creation_time.markup">15:29:01</property>
  <property name="meta.attr.time_reference.markup">159910582</property>
  <property name="meta.attr.umid.markup">0x00000000000000000000000000000000000000000000000000000000CC00889B81DD1CCBD0118AEEFE7F00005006A4020100000010128AEEFE7F00003D96E469</property>
  <property name="meta.attr.album.markup">Nursery</property>
  <property name="seekable">1</property>
  <property name="audio_index">0</property>
  <property name="video_index">-1</property>
  <property name="mute_on_pause">1</property>
  <property name="mlt_service">avformat</property>
  <property name="kdenlive:clipname"/>
  <property name="kdenlive:clip_type">1</property>
  <property name="kdenlive:folderid">201</property>
  <property name="kdenlive:id">202</property>
  <property name="kdenlive:file_size">42037196</property>
  <property name="kdenlive:file_hash">bb9a16ebfdb92bebca1f17e09eb5354e</property>
  <property name="kdenlive:audio_max0">209</property>
 </producer>
 <producer id="producer154" in="00:00:00.000" out="00:02:38.850">
  <property name="length">9532</property>
  <property name="eof">pause</property>
  <property name="resource">audio/music/Nursery/Lick Stick */stems/01_Lick Stick_Tongue Drum.wav</property>
  <property name="meta.media.nb_streams">1</property>
  <property name="meta.media.0.stream.type">audio</property>
  <property name="meta.media.0.codec.sample_fmt">s32</property>
  <property name="meta.media.0.codec.sample_rate">44100</property>
  <property name="meta.media.0.codec.channels">2</property>
  <property name="meta.media.0.codec.name">pcm_s24le</property>
  <property name="meta.media.0.codec.long_name">PCM signed 24-bit little-endian</property>
  <property name="meta.media.0.codec.bit_rate">2116800</property>
  <property name="meta.attr.encoded_by.markup">Logic Pro X</property>
  <property name="meta.attr.date.markup">2018-02-10</property>
  <property name="meta.attr.creation_time.markup">15:30:07</property>
  <property name="meta.attr.time_reference.markup">159910582</property>
  <property name="meta.attr.umid.markup">0x00000000000000000000000000000000000000000000000000000000CC00889B81DD1CCB304D8AEEFE7F00005006A40201000000704D8AEEFE7F00003D96E469</property>
  <property name="seekable">1</property>
  <property name="audio_index">0</property>
  <property name="video_index">-1</property>
  <property name="mute_on_pause">1</property>
  <property name="mlt_service">avformat</property>
  <property name="kdenlive:clipname"/>
  <property name="kdenlive:clip_type">1</property>
  <property name="kdenlive:folderid">203</property>
  <property name="kdenlive:id">204</property>
  <property name="kdenlive:file_size">42090886</property>
  <property name="kdenlive:file_hash">c02a05d7ac2b1ace6c1959c2aa04a58c</property>
  <property name="kdenlive:audio_max0">132</property>
 </producer>
 <producer id="producer155" in="00:00:00.000" out="00:02:38.850">
  <property name="length">9532</property>
  <property name="eof">pause</property>
  <property name="resource">audio/music/Nursery/Lick Stick */stems/02_Lick Stick_Tongue Drum.wav</property>
  <property name="meta.media.nb_streams">1</property>
  <property name="meta.media.0.stream.type">audio</property>
  <property name="meta.media.0.codec.sample_fmt">s32</property>
  <property name="meta.media.0.codec.sample_rate">44100</property>
  <property name="meta.media.0.codec.channels">2</property>
  <property name="meta.media.0.codec.name">pcm_s24le</property>
  <property name="meta.media.0.codec.long_name">PCM signed 24-bit little-endian</property>
  <property name="meta.media.0.codec.bit_rate">2116800</property>
  <property name="meta.attr.encoded_by.markup">Logic Pro X</property>
  <property name="meta.attr.date.markup">2018-02-10</property>
  <property name="meta.attr.creation_time.markup">15:30:11</property>
  <property name="meta.attr.time_reference.markup">159910582</property>
  <property name="meta.attr.umid.markup">0x00000000000000000000000000000000000000000000000000000000CC00889B81DD1CCB304D8AEEFE7F00005006A40201000000704D8AEEFE7F00003D96E469</property>
  <property name="seekable">1</property>
  <property name="audio_index">0</property>
  <property name="video_index">-1</property>
  <property name="mute_on_pause">1</property>
  <property name="mlt_service">avformat</property>
  <property name="kdenlive:clipname"/>
  <property name="kdenlive:clip_type">1</property>
  <property name="kdenlive:folderid">203</property>
  <property name="kdenlive:id">205</property>
  <property name="kdenlive:file_size">42090886</property>
  <property name="kdenlive:file_hash">970e4825a670200afdaf9e6edcf6184d</property>
  <property name="kdenlive:audio_max0">131</property>
 </producer>
 <producer id="producer156" in="00:00:00.000" out="00:02:38.850">
  <property name="length">9532</property>
  <property name="eof">pause</property>
  <property name="resource">audio/music/Nursery/Lick Stick */stems/03_Lick Stick_Tongue Drum.wav</property>
  <property name="meta.media.nb_streams">1</property>
  <property name="meta.media.0.stream.type">audio</property>
  <property name="meta.media.0.codec.sample_fmt">s32</property>
  <property name="meta.media.0.codec.sample_rate">44100</property>
  <property name="meta.media.0.codec.channels">2</property>
  <property name="meta.media.0.codec.name">pcm_s24le</property>
  <property name="meta.media.0.codec.long_name">PCM signed 24-bit little-endian</property>
  <property name="meta.media.0.codec.bit_rate">2116800</property>
  <property name="meta.attr.encoded_by.markup">Logic Pro X</property>
  <property name="meta.attr.date.markup">2018-02-10</property>
  <property name="meta.attr.creation_time.markup">15:30:25</property>
  <property name="meta.attr.time_reference.markup">159910582</property>
  <property name="meta.attr.umid.markup">0x00000000000000000000000000000000000000000000000000000000CC00889B81DD1CCB304D8AEEFE7F00005006A40201000000704D8AEEFE7F00003D96E469</property>
  <property name="seekable">1</property>
  <property name="audio_index">0</property>
  <property name="video_index">-1</property>
  <property name="mute_on_pause">1</property>
  <property name="mlt_service">avformat</property>
  <property name="kdenlive:clipname"/>
  <property name="kdenlive:clip_type">1</property>
  <property name="kdenlive:folderid">203</property>
  <property name="kdenlive:id">206</property>
  <property name="kdenlive:file_size">42090886</property>
  <property name="kdenlive:file_hash">9d461d0edad67f12c3da39b74eefe99b</property>
  <property name="kdenlive:audio_max0">150</property>
 </producer>
 <producer id="producer158" in="00:00:00.000" out="00:02:38.850">
  <property name="length">9532</property>
  <property name="eof">pause</property>
  <property name="resource">audio/music/Nursery/Lick Stick */stems/04_Lick Stick_Tongue Drum.wav</property>
  <property name="meta.media.nb_streams">1</property>
  <property name="meta.media.0.stream.type">audio</property>
  <property name="meta.media.0.codec.sample_fmt">s32</property>
  <property name="meta.media.0.codec.sample_rate">44100</property>
  <property name="meta.media.0.codec.channels">2</property>
  <property name="meta.media.0.codec.name">pcm_s24le</property>
  <property name="meta.media.0.codec.long_name">PCM signed 24-bit little-endian</property>
  <property name="meta.media.0.codec.bit_rate">2116800</property>
  <property name="meta.attr.encoded_by.markup">Logic Pro X</property>
  <property name="meta.attr.date.markup">2018-02-10</property>
  <property name="meta.attr.creation_time.markup">15:30:14</property>
  <property name="meta.attr.time_reference.markup">159910582</property>
  <property name="meta.attr.umid.markup">0x00000000000000000000000000000000000000000000000000000000CC00889B81DD1CCB304D8AEEFE7F00005006A40201000000704D8AEEFE7F00003D96E469</property>
  <property name="seekable">1</property>
  <property name="audio_index">0</property>
  <property name="video_index">-1</property>
  <property name="mute_on_pause">1</property>
  <property name="mlt_service">avformat</property>
  <property name="kdenlive:clipname"/>
  <property name="kdenlive:clip_type">1</property>
  <property name="kdenlive:folderid">203</property>
  <property name="kdenlive:id">207</property>
  <property name="kdenlive:file_size">42090886</property>
  <property name="kdenlive:file_hash">07bc126cece640eb389e4f04df929d32</property>
  <property name="kdenlive:audio_max0">135</property>
 </producer>
 <producer id="producer157" in="00:00:00.000" out="00:02:38.850">
  <property name="length">9532</property>
  <property name="eof">pause</property>
  <property name="resource">audio/music/Nursery/Lick Stick */stems/05_Lick Stick_Fjoria DrumSyn.wav</property>
  <property name="meta.media.nb_streams">1</property>
  <property name="meta.media.0.stream.type">audio</property>
  <property name="meta.media.0.codec.sample_fmt">s32</property>
  <property name="meta.media.0.codec.sample_rate">44100</property>
  <property name="meta.media.0.codec.channels">2</property>
  <property name="meta.media.0.codec.name">pcm_s24le</property>
  <property name="meta.media.0.codec.long_name">PCM signed 24-bit little-endian</property>
  <property name="meta.media.0.codec.bit_rate">2116800</property>
  <property name="meta.attr.encoded_by.markup">Logic Pro X</property>
  <property name="meta.attr.date.markup">2018-02-10</property>
  <property name="meta.attr.creation_time.markup">15:30:09</property>
  <property name="meta.attr.time_reference.markup">159910582</property>
  <property name="meta.attr.umid.markup">0x00000000000000000000000000000000000000000000000000000000CC00889B81DD1CCB304D8AEEFE7F00005006A40201000000704D8AEEFE7F00003D96E469</property>
  <property name="seekable">1</property>
  <property name="audio_index">0</property>
  <property name="video_index">-1</property>
  <property name="mute_on_pause">1</property>
  <property name="mlt_service">avformat</property>
  <property name="kdenlive:clipname"/>
  <property name="kdenlive:clip_type">1</property>
  <property name="kdenlive:folderid">203</property>
  <property name="kdenlive:id">208</property>
  <property name="kdenlive:file_size">42090886</property>
  <property name="kdenlive:file_hash">9c750465fb4357d2305f5b3022f064b8</property>
  <property name="kdenlive:audio_max0">103</property>
 </producer>
 <producer id="producer159" in="00:00:00.000" out="00:02:38.850">
  <property name="length">9532</property>
  <property name="eof">pause</property>
  <property name="resource">audio/music/Nursery/Lick Stick */stems/06_Lick Stick_Fjoria SynPad.wav</property>
  <property name="meta.media.nb_streams">1</property>
  <property name="meta.media.0.stream.type">audio</property>
  <property name="meta.media.0.codec.sample_fmt">s32</property>
  <property name="meta.media.0.codec.sample_rate">44100</property>
  <property name="meta.media.0.codec.channels">2</property>
  <property name="meta.media.0.codec.name">pcm_s24le</property>
  <property name="meta.media.0.codec.long_name">PCM signed 24-bit little-endian</property>
  <property name="meta.media.0.codec.bit_rate">2116800</property>
  <property name="meta.attr.encoded_by.markup">Logic Pro X</property>
  <property name="meta.attr.date.markup">2018-02-10</property>
  <property name="meta.attr.creation_time.markup">15:30:18</property>
  <property name="meta.attr.time_reference.markup">159910582</property>
  <property name="meta.attr.umid.markup">0x00000000000000000000000000000000000000000000000000000000CC00889B81DD1CCB304D8AEEFE7F00005006A40201000000704D8AEEFE7F00003D96E469</property>
  <property name="seekable">1</property>
  <property name="audio_index">0</property>
  <property name="video_index">-1</property>
  <property name="mute_on_pause">1</property>
  <property name="mlt_service">avformat</property>
  <property name="kdenlive:clipname"/>
  <property name="kdenlive:clip_type">1</property>
  <property name="kdenlive:folderid">203</property>
  <property name="kdenlive:id">209</property>
  <property name="kdenlive:file_size">42090886</property>
  <property name="kdenlive:file_hash">741a0d6ed75f0abecc41fe88f928f3ed</property>
  <property name="kdenlive:audio_max0">81</property>
 </producer>
 <producer id="producer160" in="00:00:00.000" out="00:02:38.850">
  <property name="length">9532</property>
  <property name="eof">pause</property>
  <property name="resource">audio/music/Nursery/Lick Stick */stems/07_Lick Stick_Violin.wav</property>
  <property name="meta.media.nb_streams">1</property>
  <property name="meta.media.0.stream.type">audio</property>
  <property name="meta.media.0.codec.sample_fmt">s32</property>
  <property name="meta.media.0.codec.sample_rate">44100</property>
  <property name="meta.media.0.codec.channels">2</property>
  <property name="meta.media.0.codec.name">pcm_s24le</property>
  <property name="meta.media.0.codec.long_name">PCM signed 24-bit little-endian</property>
  <property name="meta.media.0.codec.bit_rate">2116800</property>
  <property name="meta.attr.encoded_by.markup">Logic Pro X</property>
  <property name="meta.attr.date.markup">2018-02-10</property>
  <property name="meta.attr.creation_time.markup">15:30:22</property>
  <property name="meta.attr.time_reference.markup">159910582</property>
  <property name="meta.attr.umid.markup">0x00000000000000000000000000000000000000000000000000000000CC00889B81DD1CCB304D8AEEFE7F00005006A40201000000704D8AEEFE7F00003D96E469</property>
  <property name="seekable">1</property>
  <property name="audio_index">0</property>
  <property name="video_index">-1</property>
  <property name="mute_on_pause">1</property>
  <property name="mlt_service">avformat</property>
  <property name="kdenlive:clipname"/>
  <property name="kdenlive:clip_type">1</property>
  <property name="kdenlive:folderid">203</property>
  <property name="kdenlive:id">210</property>
  <property name="kdenlive:file_size">42090886</property>
  <property name="kdenlive:file_hash">cd4a512deed12c9708807ab24e6d5e0b</property>
  <property name="kdenlive:audio_max0">75</property>
 </producer>
 <producer id="producer161" in="00:00:00.000" out="00:01:00.450">
  <property name="length">3628</property>
  <property name="eof">pause</property>
  <property name="resource">audio/music/Nursery/Lick Stick */variations/Lick Stick | 1 Min.wav</property>
  <property name="meta.media.nb_streams">1</property>
  <property name="meta.media.0.stream.type">audio</property>
  <property name="meta.media.0.codec.sample_fmt">s32</property>
  <property name="meta.media.0.codec.sample_rate">44100</property>
  <property name="meta.media.0.codec.channels">2</property>
  <property name="meta.media.0.codec.name">pcm_s24le</property>
  <property name="meta.media.0.codec.long_name">PCM signed 24-bit little-endian</property>
  <property name="meta.media.0.codec.bit_rate">2116800</property>
  <property name="meta.attr.encoded_by.markup">Logic Pro X</property>
  <property name="meta.attr.date.markup">2018-02-12</property>
  <property name="meta.attr.creation_time.markup">14:33:38</property>
  <property name="meta.attr.time_reference.markup">164395240</property>
  <property name="meta.attr.umid.markup">0x00000000000000000000000000000000000000000000000000000000B200403FF3E80FCAD081E1E5FE7F000050964C0B010000001082E1E5FE7F00003D86F66C</property>
  <property name="meta.attr.album.markup">Nursery</property>
  <property name="seekable">1</property>
  <property name="audio_index">0</property>
  <property name="video_index">-1</property>
  <property name="mute_on_pause">1</property>
  <property name="mlt_service">avformat</property>
  <property name="kdenlive:clipname"/>
  <property name="kdenlive:clip_type">1</property>
  <property name="kdenlive:folderid">211</property>
  <property name="kdenlive:id">212</property>
  <property name="kdenlive:file_size">16003154</property>
  <property name="kdenlive:file_hash">a1492d970887ebfc366ad8cb9192260a</property>
  <property name="kdenlive:audio_max0">195</property>
 </producer>
 <producer id="producer162" in="00:00:00.000" out="00:00:29.933">
  <property name="length">1797</property>
  <property name="eof">pause</property>
  <property name="resource">audio/music/Nursery/Lick Stick */variations/Lick Stick | 30 Sec.wav</property>
  <property name="meta.media.nb_streams">1</property>
  <property name="meta.media.0.stream.type">audio</property>
  <property name="meta.media.0.codec.sample_fmt">s32</property>
  <property name="meta.media.0.codec.sample_rate">44100</property>
  <property name="meta.media.0.codec.channels">2</property>
  <property name="meta.media.0.codec.name">pcm_s24le</property>
  <property name="meta.media.0.codec.long_name">PCM signed 24-bit little-endian</property>
  <property name="meta.media.0.codec.bit_rate">2116800</property>
  <property name="meta.attr.encoded_by.markup">Logic Pro X</property>
  <property name="meta.attr.date.markup">2018-02-12</property>
  <property name="meta.attr.creation_time.markup">14:32:36</property>
  <property name="meta.attr.time_reference.markup">165840005</property>
  <property name="meta.attr.umid.markup">0x00000000000000000000000000000000000000000000000000000000B200403FF3E80FCAD081E1E5FE7F000050964C0B010000001082E1E5FE7F00003D86F66C</property>
  <property name="meta.attr.album.markup">Nursery</property>
  <property name="seekable">1</property>
  <property name="audio_index">0</property>
  <property name="video_index">-1</property>
  <property name="mute_on_pause">1</property>
  <property name="mlt_service">avformat</property>
  <property name="kdenlive:clipname"/>
  <property name="kdenlive:clip_type">1</property>
  <property name="kdenlive:folderid">211</property>
  <property name="kdenlive:id">213</property>
  <property name="kdenlive:file_size">7925162</property>
  <property name="kdenlive:file_hash">57c057319e7dbe516e720741d33adb9d</property>
  <property name="kdenlive:audio_max0">187</property>
 </producer>
 <producer id="producer163" in="00:00:00.000" out="00:05:00.500">
  <property name="length">18031</property>
  <property name="eof">pause</property>
  <property name="resource">audio/music/Nursery/Lick Stick */variations/Lick Stick | Long Run.wav</property>
  <property name="meta.media.nb_streams">1</property>
  <property name="meta.media.0.stream.type">audio</property>
  <property name="meta.media.0.codec.sample_fmt">s32</property>
  <property name="meta.media.0.codec.sample_rate">44100</property>
  <property name="meta.media.0.codec.channels">2</property>
  <property name="meta.media.0.codec.name">pcm_s24le</property>
  <property name="meta.media.0.codec.long_name">PCM signed 24-bit little-endian</property>
  <property name="meta.media.0.codec.bit_rate">2116800</property>
  <property name="meta.attr.encoded_by.markup">Logic Pro X</property>
  <property name="meta.attr.date.markup">2018-02-10</property>
  <property name="meta.attr.creation_time.markup">15:32:27</property>
  <property name="meta.attr.time_reference.markup">159877895</property>
  <property name="meta.attr.umid.markup">0x00000000000000000000000000000000000000000000000000000000CC00889B81DD1CCBD0118AEEFE7F00005006A4020100000010128AEEFE7F00003D96E469</property>
  <property name="meta.attr.album.markup">Nursery</property>
  <property name="seekable">1</property>
  <property name="audio_index">0</property>
  <property name="video_index">-1</property>
  <property name="mute_on_pause">1</property>
  <property name="mlt_service">avformat</property>
  <property name="kdenlive:clipname"/>
  <property name="kdenlive:clip_type">1</property>
  <property name="kdenlive:folderid">211</property>
  <property name="kdenlive:id">214</property>
  <property name="kdenlive:file_size">79520066</property>
  <property name="kdenlive:file_hash">46b68792e9d69f0b87fb4f6a299a0860</property>
  <property name="kdenlive:audio_max0">207</property>
 </producer>
 <producer id="producer165" in="00:00:00.000" out="00:00:39.167">
  <property name="length">2351</property>
  <property name="eof">pause</property>
  <property name="resource">audio/music/Nursery/Lick Stick */variations/Lick Stick | Mbira Interlude.wav</property>
  <property name="meta.media.nb_streams">1</property>
  <property name="meta.media.0.stream.type">audio</property>
  <property name="meta.media.0.codec.sample_fmt">s32</property>
  <property name="meta.media.0.codec.sample_rate">44100</property>
  <property name="meta.media.0.codec.channels">2</property>
  <property name="meta.media.0.codec.name">pcm_s24le</property>
  <property name="meta.media.0.codec.long_name">PCM signed 24-bit little-endian</property>
  <property name="meta.media.0.codec.bit_rate">2116800</property>
  <property name="meta.attr.encoded_by.markup">Logic Pro X</property>
  <property name="meta.attr.date.markup">2018-02-12</property>
  <property name="meta.attr.creation_time.markup">14:35:14</property>
  <property name="meta.attr.time_reference.markup">165197333</property>
  <property name="meta.attr.umid.markup">0x00000000000000000000000000000000000000000000000000000000B200403FF3E80FCAD081E1E5FE7F000050964C0B010000001082E1E5FE7F00003D86F66C</property>
  <property name="meta.attr.album.markup">Nursery</property>
  <property name="seekable">1</property>
  <property name="audio_index">0</property>
  <property name="video_index">-1</property>
  <property name="mute_on_pause">1</property>
  <property name="mlt_service">avformat</property>
  <property name="kdenlive:clipname"/>
  <property name="kdenlive:clip_type">1</property>
  <property name="kdenlive:folderid">211</property>
  <property name="kdenlive:id">215</property>
  <property name="kdenlive:file_size">10369112</property>
  <property name="kdenlive:file_hash">432e65478643cae7c8fac35873dabae5</property>
  <property name="kdenlive:audio_max0">232</property>
 </producer>
 <producer id="producer164" in="00:00:00.000" out="00:00:41.733">
  <property name="length">2505</property>
  <property name="eof">pause</property>
  <property name="resource">audio/music/Nursery/Lick Stick */variations/Lick Stick | Minimal.wav</property>
  <property name="meta.media.nb_streams">1</property>
  <property name="meta.media.0.stream.type">audio</property>
  <property name="meta.media.0.codec.sample_fmt">s32</property>
  <property name="meta.media.0.codec.sample_rate">44100</property>
  <property name="meta.media.0.codec.channels">2</property>
  <property name="meta.media.0.codec.name">pcm_s24le</property>
  <property name="meta.media.0.codec.long_name">PCM signed 24-bit little-endian</property>
  <property name="meta.media.0.codec.bit_rate">2116800</property>
  <property name="meta.attr.encoded_by.markup">Logic Pro X</property>
  <property name="meta.attr.date.markup">2018-02-12</property>
  <property name="meta.attr.creation_time.markup">14:34:08</property>
  <property name="meta.attr.time_reference.markup">164395240</property>
  <property name="meta.attr.umid.markup">0x00000000000000000000000000000000000000000000000000000000B200403FF3E80FCAD081E1E5FE7F000050964C0B010000001082E1E5FE7F00003D86F66C</property>
  <property name="meta.attr.album.markup">Nursery</property>
  <property name="seekable">1</property>
  <property name="audio_index">0</property>
  <property name="video_index">-1</property>
  <property name="mute_on_pause">1</property>
  <property name="mlt_service">avformat</property>
  <property name="kdenlive:clipname"/>
  <property name="kdenlive:clip_type">1</property>
  <property name="kdenlive:folderid">211</property>
  <property name="kdenlive:id">216</property>
  <property name="kdenlive:file_size">11051006</property>
  <property name="kdenlive:file_hash">455b5c595580c3f86f7bcc5802040a75</property>
  <property name="kdenlive:audio_max0">169</property>
 </producer>
 <producer id="producer166" in="00:00:00.000" out="00:02:33.067">
  <property name="length">9185</property>
  <property name="eof">pause</property>
  <property name="resource">audio/music/Nursery/Maisie Dreamer */Maisie Dreamer.wav</property>
  <property name="meta.media.nb_streams">1</property>
  <property name="meta.media.0.stream.type">audio</property>
  <property name="meta.media.0.codec.sample_fmt">s32</property>
  <property name="meta.media.0.codec.sample_rate">44100</property>
  <property name="meta.media.0.codec.channels">2</property>
  <property name="meta.media.0.codec.name">pcm_s24le</property>
  <property name="meta.media.0.codec.long_name">PCM signed 24-bit little-endian</property>
  <property name="meta.media.0.codec.bit_rate">2116800</property>
  <property name="meta.attr.encoded_by.markup">Logic Pro X</property>
  <property name="meta.attr.date.markup">2018-02-12</property>
  <property name="meta.attr.creation_time.markup">11:44:23</property>
  <property name="meta.attr.time_reference.markup">158805761</property>
  <property name="meta.attr.umid.markup">0x00000000000000000000000000000000000000000000000000000000D20029D40BE531B1D0A1F4EDFE7F0000507639030100000010A2F4EDFE7F00003D465D6B</property>
  <property name="meta.attr.album.markup">Nursery</property>
  <property name="seekable">1</property>
  <property name="audio_index">0</property>
  <property name="video_index">-1</property>
  <property name="mute_on_pause">1</property>
  <property name="mlt_service">avformat</property>
  <property name="kdenlive:clipname"/>
  <property name="kdenlive:clip_type">1</property>
  <property name="kdenlive:folderid">217</property>
  <property name="kdenlive:id">218</property>
  <property name="kdenlive:file_size">40509644</property>
  <property name="kdenlive:file_hash">ed101d5adff92e5457ee5580ba7fdfd5</property>
  <property name="kdenlive:audio_max0">227</property>
 </producer>
 <producer id="producer167" in="00:00:00.000" out="00:02:33.067">
  <property name="length">9185</property>
  <property name="eof">pause</property>
  <property name="resource">audio/music/Nursery/Maisie Dreamer */stems/01_Maisie Dreamer_Tongue Drum.wav</property>
  <property name="meta.media.nb_streams">1</property>
  <property name="meta.media.0.stream.type">audio</property>
  <property name="meta.media.0.codec.sample_fmt">s32</property>
  <property name="meta.media.0.codec.sample_rate">44100</property>
  <property name="meta.media.0.codec.channels">2</property>
  <property name="meta.media.0.codec.name">pcm_s24le</property>
  <property name="meta.media.0.codec.long_name">PCM signed 24-bit little-endian</property>
  <property name="meta.media.0.codec.bit_rate">2116800</property>
  <property name="meta.attr.encoded_by.markup">Logic Pro X</property>
  <property name="meta.attr.date.markup">2018-02-12</property>
  <property name="meta.attr.creation_time.markup">11:47:20</property>
  <property name="meta.attr.time_reference.markup">158805761</property>
  <property name="meta.attr.umid.markup">0x00000000000000000000000000000000000000000000000000000000D20029D40BE531B160DEF4EDFE7F00005076390301000000A0DEF4EDFE7F00003D465D6B</property>
  <property name="seekable">1</property>
  <property name="audio_index">0</property>
  <property name="video_index">-1</property>
  <property name="mute_on_pause">1</property>
  <property name="mlt_service">avformat</property>
  <property name="kdenlive:clipname"/>
  <property name="kdenlive:clip_type">1</property>
  <property name="kdenlive:folderid">219</property>
  <property name="kdenlive:id">220</property>
  <property name="kdenlive:file_size">40561346</property>
  <property name="kdenlive:file_hash">e535cf3912eba6a27f907bae998c4595</property>
  <property name="kdenlive:audio_max0">120</property>
 </producer>
 <producer id="producer168" in="00:00:00.000" out="00:02:33.067">
  <property name="length">9185</property>
  <property name="eof">pause</property>
  <property name="resource">audio/music/Nursery/Maisie Dreamer */stems/02_Maisie Dreamer_Tongue Drum.wav</property>
  <property name="meta.media.nb_streams">1</property>
  <property name="meta.media.0.stream.type">audio</property>
  <property name="meta.media.0.codec.sample_fmt">s32</property>
  <property name="meta.media.0.codec.sample_rate">44100</property>
  <property name="meta.media.0.codec.channels">2</property>
  <property name="meta.media.0.codec.name">pcm_s24le</property>
  <property name="meta.media.0.codec.long_name">PCM signed 24-bit little-endian</property>
  <property name="meta.media.0.codec.bit_rate">2116800</property>
  <property name="meta.attr.encoded_by.markup">Logic Pro X</property>
  <property name="meta.attr.date.markup">2018-02-12</property>
  <property name="meta.attr.creation_time.markup">11:47:30</property>
  <property name="meta.attr.time_reference.markup">158805761</property>
  <property name="meta.attr.umid.markup">0x00000000000000000000000000000000000000000000000000000000D20029D40BE531B160DEF4EDFE7F00005076390301000000A0DEF4EDFE7F00003D465D6B</property>
  <property name="seekable">1</property>
  <property name="audio_index">0</property>
  <property name="video_index">-1</property>
  <property name="mute_on_pause">1</property>
  <property name="mlt_service">avformat</property>
  <property name="kdenlive:clipname"/>
  <property name="kdenlive:clip_type">1</property>
  <property name="kdenlive:folderid">219</property>
  <property name="kdenlive:id">221</property>
  <property name="kdenlive:file_size">40561346</property>
  <property name="kdenlive:file_hash">827ef80497d16b70fa9b17b678c7a905</property>
  <property name="kdenlive:audio_max0">125</property>
 </producer>
 <producer id="producer169" in="00:00:00.000" out="00:02:33.067">
  <property name="length">9185</property>
  <property name="eof">pause</property>
  <property name="resource">audio/music/Nursery/Maisie Dreamer */stems/03_Maisie Dreamer_Rhodia SynPad.wav</property>
  <property name="meta.media.nb_streams">1</property>
  <property name="meta.media.0.stream.type">audio</property>
  <property name="meta.media.0.codec.sample_fmt">s32</property>
  <property name="meta.media.0.codec.sample_rate">44100</property>
  <property name="meta.media.0.codec.channels">2</property>
  <property name="meta.media.0.codec.name">pcm_s24le</property>
  <property name="meta.media.0.codec.long_name">PCM signed 24-bit little-endian</property>
  <property name="meta.media.0.codec.bit_rate">2116800</property>
  <property name="meta.attr.encoded_by.markup">Logic Pro X</property>
  <property name="meta.attr.date.markup">2018-02-12</property>
  <property name="meta.attr.creation_time.markup">11:47:35</property>
  <property name="meta.attr.time_reference.markup">158805761</property>
  <property name="meta.attr.umid.markup">0x00000000000000000000000000000000000000000000000000000000D20029D40BE531B160DEF4EDFE7F00005076390301000000A0DEF4EDFE7F00003D465D6B</property>
  <property name="seekable">1</property>
  <property name="audio_index">0</property>
  <property name="video_index">-1</property>
  <property name="mute_on_pause">1</property>
  <property name="mlt_service">avformat</property>
  <property name="kdenlive:clipname"/>
  <property name="kdenlive:clip_type">1</property>
  <property name="kdenlive:folderid">219</property>
  <property name="kdenlive:id">222</property>
  <property name="kdenlive:file_size">40561346</property>
  <property name="kdenlive:file_hash">55cea2d2f04b6e169eb552c57e403d51</property>
  <property name="kdenlive:audio_max0">164</property>
 </producer>
 <producer id="producer170" in="00:00:00.000" out="00:02:33.067">
  <property name="length">9185</property>
  <property name="eof">pause</property>
  <property name="resource">audio/music/Nursery/Maisie Dreamer */stems/04_Maisie Dreamer_Tongue Drum.wav</property>
  <property name="meta.media.nb_streams">1</property>
  <property name="meta.media.0.stream.type">audio</property>
  <property name="meta.media.0.codec.sample_fmt">s32</property>
  <property name="meta.media.0.codec.sample_rate">44100</property>
  <property name="meta.media.0.codec.channels">2</property>
  <property name="meta.media.0.codec.name">pcm_s24le</property>
  <property name="meta.media.0.codec.long_name">PCM signed 24-bit little-endian</property>
  <property name="meta.media.0.codec.bit_rate">2116800</property>
  <property name="meta.attr.encoded_by.markup">Logic Pro X</property>
  <property name="meta.attr.date.markup">2018-02-12</property>
  <property name="meta.attr.creation_time.markup">11:47:33</property>
  <property name="meta.attr.time_reference.markup">158805761</property>
  <property name="meta.attr.umid.markup">0x00000000000000000000000000000000000000000000000000000000D20029D40BE531B160DEF4EDFE7F00005076390301000000A0DEF4EDFE7F00003D465D6B</property>
  <property name="seekable">1</property>
  <property name="audio_index">0</property>
  <property name="video_index">-1</property>
  <property name="mute_on_pause">1</property>
  <property name="mlt_service">avformat</property>
  <property name="kdenlive:clipname"/>
  <property name="kdenlive:clip_type">1</property>
  <property name="kdenlive:folderid">219</property>
  <property name="kdenlive:id">223</property>
  <property name="kdenlive:file_size">40561346</property>
  <property name="kdenlive:file_hash">fee7632a3fbb0e66883b243bb0ab1005</property>
  <property name="kdenlive:audio_max0">112</property>
 </producer>
 <producer id="producer171" in="00:00:00.000" out="00:02:33.067">
  <property name="length">9185</property>
  <property name="eof">pause</property>
  <property name="resource">audio/music/Nursery/Maisie Dreamer */stems/05_Maisie Dreamer_Drum Kit.wav</property>
  <property name="meta.media.nb_streams">1</property>
  <property name="meta.media.0.stream.type">audio</property>
  <property name="meta.media.0.codec.sample_fmt">s32</property>
  <property name="meta.media.0.codec.sample_rate">44100</property>
  <property name="meta.media.0.codec.channels">2</property>
  <property name="meta.media.0.codec.name">pcm_s24le</property>
  <property name="meta.media.0.codec.long_name">PCM signed 24-bit little-endian</property>
  <property name="meta.media.0.codec.bit_rate">2116800</property>
  <property name="meta.attr.encoded_by.markup">Logic Pro X</property>
  <property name="meta.attr.date.markup">2018-02-12</property>
  <property name="meta.attr.creation_time.markup">11:47:23</property>
  <property name="meta.attr.time_reference.markup">158805761</property>
  <property name="meta.attr.umid.markup">0x00000000000000000000000000000000000000000000000000000000D20029D40BE531B160DEF4EDFE7F00005076390301000000A0DEF4EDFE7F00003D465D6B</property>
  <property name="seekable">1</property>
  <property name="audio_index">0</property>
  <property name="video_index">-1</property>
  <property name="mute_on_pause">1</property>
  <property name="mlt_service">avformat</property>
  <property name="kdenlive:clipname"/>
  <property name="kdenlive:clip_type">1</property>
  <property name="kdenlive:folderid">219</property>
  <property name="kdenlive:id">224</property>
  <property name="kdenlive:file_size">40561346</property>
  <property name="kdenlive:file_hash">ad6ad7e0165f24ba48f707b2532073ce</property>
  <property name="kdenlive:audio_max0">27</property>
 </producer>
 <producer id="producer172" in="00:00:00.000" out="00:02:33.067">
  <property name="length">9185</property>
  <property name="eof">pause</property>
  <property name="resource">audio/music/Nursery/Maisie Dreamer */stems/06_Maisie Dreamer_Percussion.wav</property>
  <property name="meta.media.nb_streams">1</property>
  <property name="meta.media.0.stream.type">audio</property>
  <property name="meta.media.0.codec.sample_fmt">s32</property>
  <property name="meta.media.0.codec.sample_rate">44100</property>
  <property name="meta.media.0.codec.channels">2</property>
  <property name="meta.media.0.codec.name">pcm_s24le</property>
  <property name="meta.media.0.codec.long_name">PCM signed 24-bit little-endian</property>
  <property name="meta.media.0.codec.bit_rate">2116800</property>
  <property name="meta.attr.encoded_by.markup">Logic Pro X</property>
  <property name="meta.attr.date.markup">2018-02-12</property>
  <property name="meta.attr.creation_time.markup">11:47:25</property>
  <property name="meta.attr.time_reference.markup">158805761</property>
  <property name="meta.attr.umid.markup">0x00000000000000000000000000000000000000000000000000000000D20029D40BE531B160DEF4EDFE7F00005076390301000000A0DEF4EDFE7F00003D465D6B</property>
  <property name="seekable">1</property>
  <property name="audio_index">0</property>
  <property name="video_index">-1</property>
  <property name="mute_on_pause">1</property>
  <property name="mlt_service">avformat</property>
  <property name="kdenlive:clipname"/>
  <property name="kdenlive:clip_type">1</property>
  <property name="kdenlive:folderid">219</property>
  <property name="kdenlive:id">225</property>
  <property name="kdenlive:file_size">40561346</property>
  <property name="kdenlive:file_hash">fddb10163080927b39db35ab2273786a</property>
  <property name="kdenlive:audio_max0">165</property>
 </producer>
 <producer id="producer173" in="00:00:00.000" out="00:02:33.067">
  <property name="length">9185</property>
  <property name="eof">pause</property>
  <property name="resource">audio/music/Nursery/Maisie Dreamer */stems/07_Maisie Dreamer_Skrea DrumSyn.wav</property>
  <property name="meta.media.nb_streams">1</property>
  <property name="meta.media.0.stream.type">audio</property>
  <property name="meta.media.0.codec.sample_fmt">s32</property>
  <property name="meta.media.0.codec.sample_rate">44100</property>
  <property name="meta.media.0.codec.channels">2</property>
  <property name="meta.media.0.codec.name">pcm_s24le</property>
  <property name="meta.media.0.codec.long_name">PCM signed 24-bit little-endian</property>
  <property name="meta.media.0.codec.bit_rate">2116800</property>
  <property name="meta.attr.encoded_by.markup">Logic Pro X</property>
  <property name="meta.attr.date.markup">2018-02-12</property>
  <property name="meta.attr.creation_time.markup">11:47:28</property>
  <property name="meta.attr.time_reference.markup">158805761</property>
  <property name="meta.attr.umid.markup">0x00000000000000000000000000000000000000000000000000000000D20029D40BE531B160DEF4EDFE7F00005076390301000000A0DEF4EDFE7F00003D465D6B</property>
  <property name="seekable">1</property>
  <property name="audio_index">0</property>
  <property name="video_index">-1</property>
  <property name="mute_on_pause">1</property>
  <property name="mlt_service">avformat</property>
  <property name="kdenlive:clipname"/>
  <property name="kdenlive:clip_type">1</property>
  <property name="kdenlive:folderid">219</property>
  <property name="kdenlive:id">226</property>
  <property name="kdenlive:file_size">40561346</property>
  <property name="kdenlive:file_hash">fd538c1329d8ab6ae5c0252719548c8c</property>
  <property name="kdenlive:audio_max0">15</property>
 </producer>
 <producer id="producer174" in="00:00:00.000" out="00:00:47.150">
  <property name="length">2830</property>
  <property name="eof">pause</property>
  <property name="resource">audio/music/Nursery/Maisie Dreamer */variations/Maisie Dreamer | 1 Min.wav</property>
  <property name="meta.media.nb_streams">1</property>
  <property name="meta.media.0.stream.type">audio</property>
  <property name="meta.media.0.codec.sample_fmt">s32</property>
  <property name="meta.media.0.codec.sample_rate">44100</property>
  <property name="meta.media.0.codec.channels">2</property>
  <property name="meta.media.0.codec.name">pcm_s24le</property>
  <property name="meta.media.0.codec.long_name">PCM signed 24-bit little-endian</property>
  <property name="meta.media.0.codec.bit_rate">2116800</property>
  <property name="meta.attr.encoded_by.markup">Logic Pro X</property>
  <property name="meta.attr.date.markup">2018-02-12</property>
  <property name="meta.attr.creation_time.markup">11:51:37</property>
  <property name="meta.attr.time_reference.markup">163476713</property>
  <property name="meta.attr.umid.markup">0x00000000000000000000000000000000000000000000000000000000D20029D40BE531B1D0A1F4EDFE7F0000507639030100000010A2F4EDFE7F00003D465D6B</property>
  <property name="meta.attr.album.markup">Nursery</property>
  <property name="seekable">1</property>
  <property name="audio_index">0</property>
  <property name="video_index">-1</property>
  <property name="mute_on_pause">1</property>
  <property name="mlt_service">avformat</property>
  <property name="kdenlive:clipname"/>
  <property name="kdenlive:clip_type">1</property>
  <property name="kdenlive:folderid">227</property>
  <property name="kdenlive:id">228</property>
  <property name="kdenlive:file_size">12483932</property>
  <property name="kdenlive:file_hash">2dfdebfaee0d9b379604f4beed6f6dae</property>
  <property name="kdenlive:audio_max0">228</property>
 </producer>
 <producer id="producer176" in="00:00:00.000" out="00:00:29.733">
  <property name="length">1785</property>
  <property name="eof">pause</property>
  <property name="resource">audio/music/Nursery/Maisie Dreamer */variations/Maisie Dreamer | 30 Sec Minimal.wav</property>
  <property name="meta.media.nb_streams">1</property>
  <property name="meta.media.0.stream.type">audio</property>
  <property name="meta.media.0.codec.sample_fmt">s32</property>
  <property name="meta.media.0.codec.sample_rate">44100</property>
  <property name="meta.media.0.codec.channels">2</property>
  <property name="meta.media.0.codec.name">pcm_s24le</property>
  <property name="meta.media.0.codec.long_name">PCM signed 24-bit little-endian</property>
  <property name="meta.media.0.codec.bit_rate">2116800</property>
  <property name="meta.attr.encoded_by.markup">Logic Pro X</property>
  <property name="meta.attr.date.markup">2018-02-12</property>
  <property name="meta.attr.creation_time.markup">11:52:54</property>
  <property name="meta.attr.time_reference.markup">164244879</property>
  <property name="meta.attr.umid.markup">0x00000000000000000000000000000000000000000000000000000000D20029D40BE531B1D0A1F4EDFE7F0000507639030100000010A2F4EDFE7F00003D465D6B</property>
  <property name="meta.attr.album.markup">Nursery</property>
  <property name="seekable">1</property>
  <property name="audio_index">0</property>
  <property name="video_index">-1</property>
  <property name="mute_on_pause">1</property>
  <property name="mlt_service">avformat</property>
  <property name="kdenlive:clipname"/>
  <property name="kdenlive:clip_type">1</property>
  <property name="kdenlive:folderid">227</property>
  <property name="kdenlive:id">229</property>
  <property name="kdenlive:file_size">7874936</property>
  <property name="kdenlive:file_hash">98e73d8b33d64bbe1c0352b6bf29efb7</property>
  <property name="kdenlive:audio_max0">218</property>
 </producer>
 <producer id="producer175" in="00:00:00.000" out="00:00:29.733">
  <property name="length">1785</property>
  <property name="eof">pause</property>
  <property name="resource">audio/music/Nursery/Maisie Dreamer */variations/Maisie Dreamer | 30 Sec.wav</property>
  <property name="meta.media.nb_streams">1</property>
  <property name="meta.media.0.stream.type">audio</property>
  <property name="meta.media.0.codec.sample_fmt">s32</property>
  <property name="meta.media.0.codec.sample_rate">44100</property>
  <property name="meta.media.0.codec.channels">2</property>
  <property name="meta.media.0.codec.name">pcm_s24le</property>
  <property name="meta.media.0.codec.long_name">PCM signed 24-bit little-endian</property>
  <property name="meta.media.0.codec.bit_rate">2116800</property>
  <property name="meta.attr.encoded_by.markup">Logic Pro X</property>
  <property name="meta.attr.date.markup">2018-02-12</property>
  <property name="meta.attr.creation_time.markup">11:52:24</property>
  <property name="meta.attr.time_reference.markup">164244879</property>
  <property name="meta.attr.umid.markup">0x00000000000000000000000000000000000000000000000000000000D20029D40BE531B1D0A1F4EDFE7F0000507639030100000010A2F4EDFE7F00003D465D6B</property>
  <property name="meta.attr.album.markup">Nursery</property>
  <property name="seekable">1</property>
  <property name="audio_index">0</property>
  <property name="video_index">-1</property>
  <property name="mute_on_pause">1</property>
  <property name="mlt_service">avformat</property>
  <property name="kdenlive:clipname"/>
  <property name="kdenlive:clip_type">1</property>
  <property name="kdenlive:folderid">227</property>
  <property name="kdenlive:id">230</property>
  <property name="kdenlive:file_size">7874936</property>
  <property name="kdenlive:file_hash">1965cad350579ea9d401541452a4b6c5</property>
  <property name="kdenlive:audio_max0">221</property>
 </producer>
 <producer id="producer177" in="00:00:00.000" out="00:01:19.317">
  <property name="length">4760</property>
  <property name="eof">pause</property>
  <property name="resource">audio/music/Nursery/Maisie Dreamer */variations/Maisie Dreamer | Alt Start.wav</property>
  <property name="meta.media.nb_streams">1</property>
  <property name="meta.media.0.stream.type">audio</property>
  <property name="meta.media.0.codec.sample_fmt">s32</property>
  <property name="meta.media.0.codec.sample_rate">44100</property>
  <property name="meta.media.0.codec.channels">2</property>
  <property name="meta.media.0.codec.name">pcm_s24le</property>
  <property name="meta.media.0.codec.long_name">PCM signed 24-bit little-endian</property>
  <property name="meta.media.0.codec.bit_rate">2116800</property>
  <property name="meta.attr.encoded_by.markup">Logic Pro X</property>
  <property name="meta.attr.date.markup">2018-02-12</property>
  <property name="meta.attr.creation_time.markup">11:53:39</property>
  <property name="meta.attr.time_reference.markup">161937177</property>
  <property name="meta.attr.umid.markup">0x00000000000000000000000000000000000000000000000000000000D20029D40BE531B1D0A1F4EDFE7F0000507639030100000010A2F4EDFE7F00003D465D6B</property>
  <property name="meta.attr.album.markup">Nursery</property>
  <property name="seekable">1</property>
  <property name="audio_index">0</property>
  <property name="video_index">-1</property>
  <property name="mute_on_pause">1</property>
  <property name="mlt_service">avformat</property>
  <property name="kdenlive:clipname"/>
  <property name="kdenlive:clip_type">1</property>
  <property name="kdenlive:folderid">227</property>
  <property name="kdenlive:id">231</property>
  <property name="kdenlive:file_size">20992892</property>
  <property name="kdenlive:file_hash">1ba49c9e94d0285dfbb13a096727ecca</property>
  <property name="kdenlive:audio_max0">224</property>
 </producer>
 <producer id="producer178" in="00:00:00.000" out="00:02:31.783">
  <property name="length">9108</property>
  <property name="eof">pause</property>
  <property name="resource">audio/music/Nursery/Maisie Dreamer */variations/Maisie Dreamer | Mbira Ost.wav</property>
  <property name="meta.media.nb_streams">1</property>
  <property name="meta.media.0.stream.type">audio</property>
  <property name="meta.media.0.codec.sample_fmt">s32</property>
  <property name="meta.media.0.codec.sample_rate">44100</property>
  <property name="meta.media.0.codec.channels">2</property>
  <property name="meta.media.0.codec.name">pcm_s24le</property>
  <property name="meta.media.0.codec.long_name">PCM signed 24-bit little-endian</property>
  <property name="meta.media.0.codec.bit_rate">2116800</property>
  <property name="meta.attr.encoded_by.markup">Logic Pro X</property>
  <property name="meta.attr.date.markup">2018-02-12</property>
  <property name="meta.attr.creation_time.markup">11:58:00</property>
  <property name="meta.attr.time_reference.markup">158792687</property>
  <property name="meta.attr.umid.markup">0x00000000000000000000000000000000000000000000000000000000D20029D40BE531B1D0A1F4EDFE7F0000507639030100000010A2F4EDFE7F00003D465D6B</property>
  <property name="meta.attr.album.markup">Nursery</property>
  <property name="seekable">1</property>
  <property name="audio_index">0</property>
  <property name="video_index">-1</property>
  <property name="mute_on_pause">1</property>
  <property name="mlt_service">avformat</property>
  <property name="kdenlive:clipname"/>
  <property name="kdenlive:clip_type">1</property>
  <property name="kdenlive:folderid">227</property>
  <property name="kdenlive:id">232</property>
  <property name="kdenlive:file_size">40167620</property>
  <property name="kdenlive:file_hash">298b131de5aaa2d45e3131107936cee2</property>
  <property name="kdenlive:audio_max0">216</property>
 </producer>
 <producer id="producer179" in="00:00:00.000" out="00:01:56.350">
  <property name="length">6982</property>
  <property name="eof">pause</property>
  <property name="resource">audio/music/Nursery/Maisie Dreamer */variations/Maisie Dreamer | Minimal.wav</property>
  <property name="meta.media.nb_streams">1</property>
  <property name="meta.media.0.stream.type">audio</property>
  <property name="meta.media.0.codec.sample_fmt">s32</property>
  <property name="meta.media.0.codec.sample_rate">44100</property>
  <property name="meta.media.0.codec.channels">2</property>
  <property name="meta.media.0.codec.name">pcm_s24le</property>
  <property name="meta.media.0.codec.long_name">PCM signed 24-bit little-endian</property>
  <property name="meta.media.0.codec.bit_rate">2116800</property>
  <property name="meta.attr.encoded_by.markup">Logic Pro X</property>
  <property name="meta.attr.date.markup">2018-02-12</property>
  <property name="meta.attr.creation_time.markup">11:54:43</property>
  <property name="meta.attr.time_reference.markup">160355126</property>
  <property name="meta.attr.umid.markup">0x00000000000000000000000000000000000000000000000000000000D20029D40BE531B1D0A1F4EDFE7F0000507639030100000010A2F4EDFE7F00003D465D6B</property>
  <property name="meta.attr.album.markup">Nursery</property>
  <property name="seekable">1</property>
  <property name="audio_index">0</property>
  <property name="video_index">-1</property>
  <property name="mute_on_pause">1</property>
  <property name="mlt_service">avformat</property>
  <property name="kdenlive:clipname"/>
  <property name="kdenlive:clip_type">1</property>
  <property name="kdenlive:folderid">227</property>
  <property name="kdenlive:id">233</property>
  <property name="kdenlive:file_size">30792986</property>
  <property name="kdenlive:file_hash">6608edcefd8189b3631193063e1c5e34</property>
  <property name="kdenlive:audio_max0">220</property>
 </producer>
 <producer id="producer180" in="00:00:00.000" out="00:01:56.350">
  <property name="length">6982</property>
  <property name="eof">pause</property>
  <property name="resource">audio/music/Nursery/Maisie Dreamer */variations/Maisie Dreamer | Rhythmic Driver.wav</property>
  <property name="meta.media.nb_streams">1</property>
  <property name="meta.media.0.stream.type">audio</property>
  <property name="meta.media.0.codec.sample_fmt">s32</property>
  <property name="meta.media.0.codec.sample_rate">44100</property>
  <property name="meta.media.0.codec.channels">2</property>
  <property name="meta.media.0.codec.name">pcm_s24le</property>
  <property name="meta.media.0.codec.long_name">PCM signed 24-bit little-endian</property>
  <property name="meta.media.0.codec.bit_rate">2116800</property>
  <property name="meta.attr.encoded_by.markup">Logic Pro X</property>
  <property name="meta.attr.date.markup">2018-02-12</property>
  <property name="meta.attr.creation_time.markup">11:55:56</property>
  <property name="meta.attr.time_reference.markup">160355126</property>
  <property name="meta.attr.umid.markup">0x00000000000000000000000000000000000000000000000000000000D20029D40BE531B1D0A1F4EDFE7F0000507639030100000010A2F4EDFE7F00003D465D6B</property>
  <property name="meta.attr.album.markup">Nursery</property>
  <property name="seekable">1</property>
  <property name="audio_index">0</property>
  <property name="video_index">-1</property>
  <property name="mute_on_pause">1</property>
  <property name="mlt_service">avformat</property>
  <property name="kdenlive:clipname"/>
  <property name="kdenlive:clip_type">1</property>
  <property name="kdenlive:folderid">227</property>
  <property name="kdenlive:id">234</property>
  <property name="kdenlive:file_size">30792986</property>
  <property name="kdenlive:file_hash">d370fe87d824b832e08c1d63dda115ba</property>
  <property name="kdenlive:audio_max0">230</property>
 </producer>
 <producer id="producer181" in="00:00:00.000" out="00:01:56.417">
  <property name="length">6986</property>
  <property name="eof">pause</property>
  <property name="resource">audio/music/Nursery/Maisie Lee/Maisie Lee.wav</property>
  <property name="meta.media.nb_streams">1</property>
  <property name="meta.media.0.stream.type">audio</property>
  <property name="meta.media.0.codec.sample_fmt">s32</property>
  <property name="meta.media.0.codec.sample_rate">44100</property>
  <property name="meta.media.0.codec.channels">2</property>
  <property name="meta.media.0.codec.name">pcm_s24le</property>
  <property name="meta.media.0.codec.long_name">PCM signed 24-bit little-endian</property>
  <property name="meta.media.0.codec.bit_rate">2116800</property>
  <property name="meta.attr.encoded_by.markup">Logic Pro X</property>
  <property name="meta.attr.date.markup">2018-02-12</property>
  <property name="meta.attr.creation_time.markup">10:41:21</property>
  <property name="meta.attr.time_reference.markup">159365421</property>
  <property name="meta.attr.umid.markup">0x00000000000000000000000000000000000000000000000000000000D20029D40BE531B1D0A1F4EDFE7F0000507639030100000010A2F4EDFE7F00003D465D6B</property>
  <property name="meta.attr.album.markup">Nursery</property>
  <property name="seekable">1</property>
  <property name="audio_index">0</property>
  <property name="video_index">-1</property>
  <property name="mute_on_pause">1</property>
  <property name="mlt_service">avformat</property>
  <property name="kdenlive:clipname"/>
  <property name="kdenlive:clip_type">1</property>
  <property name="kdenlive:folderid">235</property>
  <property name="kdenlive:id">236</property>
  <property name="kdenlive:file_size">30808328</property>
  <property name="kdenlive:file_hash">1fa0daad671340e84c06ee910aeb7d60</property>
  <property name="kdenlive:audio_max0">217</property>
 </producer>
 <producer id="producer182" in="00:00:00.000" out="00:01:56.417">
  <property name="length">6986</property>
  <property name="eof">pause</property>
  <property name="resource">audio/music/Nursery/Maisie Lee/stems/01_Maisie Lee_Tongue Drum.wav</property>
  <property name="meta.media.nb_streams">1</property>
  <property name="meta.media.0.stream.type">audio</property>
  <property name="meta.media.0.codec.sample_fmt">s32</property>
  <property name="meta.media.0.codec.sample_rate">44100</property>
  <property name="meta.media.0.codec.channels">2</property>
  <property name="meta.media.0.codec.name">pcm_s24le</property>
  <property name="meta.media.0.codec.long_name">PCM signed 24-bit little-endian</property>
  <property name="meta.media.0.codec.bit_rate">2116800</property>
  <property name="meta.attr.encoded_by.markup">Logic Pro X</property>
  <property name="meta.attr.date.markup">2018-02-12</property>
  <property name="meta.attr.creation_time.markup">10:50:06</property>
  <property name="meta.attr.time_reference.markup">159365421</property>
  <property name="meta.attr.umid.markup">0x00000000000000000000000000000000000000000000000000000000D20029D40BE531B160DEF4EDFE7F00005076390301000000A0DEF4EDFE7F00003D465D6B</property>
  <property name="seekable">1</property>
  <property name="audio_index">0</property>
  <property name="video_index">-1</property>
  <property name="mute_on_pause">1</property>
  <property name="mlt_service">avformat</property>
  <property name="kdenlive:clipname"/>
  <property name="kdenlive:clip_type">1</property>
  <property name="kdenlive:folderid">237</property>
  <property name="kdenlive:id">238</property>
  <property name="kdenlive:file_size">30847398</property>
  <property name="kdenlive:file_hash">99b4815a3d3f3ae8a872e730acd8d6e5</property>
  <property name="kdenlive:audio_max0">131</property>
 </producer>
 <producer id="producer183" in="00:00:00.000" out="00:01:56.417">
  <property name="length">6986</property>
  <property name="eof">pause</property>
  <property name="resource">audio/music/Nursery/Maisie Lee/stems/02_Maisie Lee_Fjoria SynPad.wav</property>
  <property name="meta.media.nb_streams">1</property>
  <property name="meta.media.0.stream.type">audio</property>
  <property name="meta.media.0.codec.sample_fmt">s32</property>
  <property name="meta.media.0.codec.sample_rate">44100</property>
  <property name="meta.media.0.codec.channels">2</property>
  <property name="meta.media.0.codec.name">pcm_s24le</property>
  <property name="meta.media.0.codec.long_name">PCM signed 24-bit little-endian</property>
  <property name="meta.media.0.codec.bit_rate">2116800</property>
  <property name="meta.attr.encoded_by.markup">Logic Pro X</property>
  <property name="meta.attr.date.markup">2018-02-12</property>
  <property name="meta.attr.creation_time.markup">10:50:08</property>
  <property name="meta.attr.time_reference.markup">159365421</property>
  <property name="meta.attr.umid.markup">0x00000000000000000000000000000000000000000000000000000000D20029D40BE531B160DEF4EDFE7F00005076390301000000A0DEF4EDFE7F00003D465D6B</property>
  <property name="seekable">1</property>
  <property name="audio_index">0</property>
  <property name="video_index">-1</property>
  <property name="mute_on_pause">1</property>
  <property name="mlt_service">avformat</property>
  <property name="kdenlive:clipname"/>
  <property name="kdenlive:clip_type">1</property>
  <property name="kdenlive:folderid">237</property>
  <property name="kdenlive:id">239</property>
  <property name="kdenlive:file_size">30847398</property>
  <property name="kdenlive:file_hash">2b7896d3bff6c65db364aad25c4bb3a3</property>
  <property name="kdenlive:audio_max0">48</property>
 </producer>
 <producer id="producer184" in="00:00:00.000" out="00:01:56.417">
  <property name="length">6986</property>
  <property name="eof">pause</property>
  <property name="resource">audio/music/Nursery/Maisie Lee/stems/03_Maisie Lee_Violin.wav</property>
  <property name="meta.media.nb_streams">1</property>
  <property name="meta.media.0.stream.type">audio</property>
  <property name="meta.media.0.codec.sample_fmt">s32</property>
  <property name="meta.media.0.codec.sample_rate">44100</property>
  <property name="meta.media.0.codec.channels">2</property>
  <property name="meta.media.0.codec.name">pcm_s24le</property>
  <property name="meta.media.0.codec.long_name">PCM signed 24-bit little-endian</property>
  <property name="meta.media.0.codec.bit_rate">2116800</property>
  <property name="meta.attr.encoded_by.markup">Logic Pro X</property>
  <property name="meta.attr.date.markup">2018-02-12</property>
  <property name="meta.attr.creation_time.markup">10:50:10</property>
  <property name="meta.attr.time_reference.markup">159365421</property>
  <property name="meta.attr.umid.markup">0x00000000000000000000000000000000000000000000000000000000D20029D40BE531B160DEF4EDFE7F00005076390301000000A0DEF4EDFE7F00003D465D6B</property>
  <property name="seekable">1</property>
  <property name="audio_index">0</property>
  <property name="video_index">-1</property>
  <property name="mute_on_pause">1</property>
  <property name="mlt_service">avformat</property>
  <property name="kdenlive:clipname"/>
  <property name="kdenlive:clip_type">1</property>
  <property name="kdenlive:folderid">237</property>
  <property name="kdenlive:id">240</property>
  <property name="kdenlive:file_size">30847398</property>
  <property name="kdenlive:file_hash">857a92b61779a221c560a2fdc8ffe6d5</property>
  <property name="kdenlive:audio_max0">68</property>
 </producer>
 <producer id="producer185" in="00:00:00.000" out="00:01:09.500">
  <property name="length">4171</property>
  <property name="eof">pause</property>
  <property name="resource">audio/music/Nursery/Maisie Lee/variations/Maisie Lee | 1 Min with Strings.wav</property>
  <property name="meta.media.nb_streams">1</property>
  <property name="meta.media.0.stream.type">audio</property>
  <property name="meta.media.0.codec.sample_fmt">s32</property>
  <property name="meta.media.0.codec.sample_rate">44100</property>
  <property name="meta.media.0.codec.channels">2</property>
  <property name="meta.media.0.codec.name">pcm_s24le</property>
  <property name="meta.media.0.codec.long_name">PCM signed 24-bit little-endian</property>
  <property name="meta.media.0.codec.bit_rate">2116800</property>
  <property name="meta.attr.encoded_by.markup">Logic Pro X</property>
  <property name="meta.attr.date.markup">2018-02-12</property>
  <property name="meta.attr.creation_time.markup">10:52:49</property>
  <property name="meta.attr.time_reference.markup">161433797</property>
  <property name="meta.attr.umid.markup">0x00000000000000000000000000000000000000000000000000000000D20029D40BE531B1D0A1F4EDFE7F0000507639030100000010A2F4EDFE7F00003D465D6B</property>
  <property name="meta.attr.album.markup">Nursery</property>
  <property name="seekable">1</property>
  <property name="audio_index">0</property>
  <property name="video_index">-1</property>
  <property name="mute_on_pause">1</property>
  <property name="mlt_service">avformat</property>
  <property name="kdenlive:clipname"/>
  <property name="kdenlive:clip_type">1</property>
  <property name="kdenlive:folderid">241</property>
  <property name="kdenlive:id">242</property>
  <property name="kdenlive:file_size">18398072</property>
  <property name="kdenlive:file_hash">c3c54f51544a291b7b494dce0433c0a0</property>
  <property name="kdenlive:audio_max0">219</property>
 </producer>
 <producer id="producer187" in="00:00:00.000" out="00:01:09.500">
  <property name="length">4171</property>
  <property name="eof">pause</property>
  <property name="resource">audio/music/Nursery/Maisie Lee/variations/Maisie Lee | 1 Min.wav</property>
  <property name="meta.media.nb_streams">1</property>
  <property name="meta.media.0.stream.type">audio</property>
  <property name="meta.media.0.codec.sample_fmt">s32</property>
  <property name="meta.media.0.codec.sample_rate">44100</property>
  <property name="meta.media.0.codec.channels">2</property>
  <property name="meta.media.0.codec.name">pcm_s24le</property>
  <property name="meta.media.0.codec.long_name">PCM signed 24-bit little-endian</property>
  <property name="meta.media.0.codec.bit_rate">2116800</property>
  <property name="meta.attr.encoded_by.markup">Logic Pro X</property>
  <property name="meta.attr.date.markup">2018-02-12</property>
  <property name="meta.attr.creation_time.markup">10:52:14</property>
  <property name="meta.attr.time_reference.markup">161433797</property>
  <property name="meta.attr.umid.markup">0x00000000000000000000000000000000000000000000000000000000D20029D40BE531B1D0A1F4EDFE7F0000507639030100000010A2F4EDFE7F00003D465D6B</property>
  <property name="meta.attr.album.markup">Nursery</property>
  <property name="seekable">1</property>
  <property name="audio_index">0</property>
  <property name="video_index">-1</property>
  <property name="mute_on_pause">1</property>
  <property name="mlt_service">avformat</property>
  <property name="kdenlive:clipname"/>
  <property name="kdenlive:clip_type">1</property>
  <property name="kdenlive:folderid">241</property>
  <property name="kdenlive:id">243</property>
  <property name="kdenlive:file_size">18398072</property>
  <property name="kdenlive:file_hash">15dabeb1cc4cd3c5ab7c97957b9d6e42</property>
  <property name="kdenlive:audio_max0">218</property>
 </producer>
 <producer id="producer186" in="00:00:00.000" out="00:00:42.817">
  <property name="length">2570</property>
  <property name="eof">pause</property>
  <property name="resource">audio/music/Nursery/Maisie Lee/variations/Maisie Lee | 30 Sec.wav</property>
  <property name="meta.media.nb_streams">1</property>
  <property name="meta.media.0.stream.type">audio</property>
  <property name="meta.media.0.codec.sample_fmt">s32</property>
  <property name="meta.media.0.codec.sample_rate">44100</property>
  <property name="meta.media.0.codec.channels">2</property>
  <property name="meta.media.0.codec.name">pcm_s24le</property>
  <property name="meta.media.0.codec.long_name">PCM signed 24-bit little-endian</property>
  <property name="meta.media.0.codec.bit_rate">2116800</property>
  <property name="meta.attr.encoded_by.markup">Logic Pro X</property>
  <property name="meta.attr.date.markup">2018-02-12</property>
  <property name="meta.attr.creation_time.markup">10:51:51</property>
  <property name="meta.attr.time_reference.markup">162610529</property>
  <property name="meta.attr.umid.markup">0x00000000000000000000000000000000000000000000000000000000D20029D40BE531B1D0A1F4EDFE7F0000507639030100000010A2F4EDFE7F00003D465D6B</property>
  <property name="meta.attr.album.markup">Nursery</property>
  <property name="seekable">1</property>
  <property name="audio_index">0</property>
  <property name="video_index">-1</property>
  <property name="mute_on_pause">1</property>
  <property name="mlt_service">avformat</property>
  <property name="kdenlive:clipname"/>
  <property name="kdenlive:clip_type">1</property>
  <property name="kdenlive:folderid">241</property>
  <property name="kdenlive:id">244</property>
  <property name="kdenlive:file_size">11337680</property>
  <property name="kdenlive:file_hash">bd3d52562295838ef2c768490548099a</property>
  <property name="kdenlive:audio_max0">206</property>
 </producer>
 <producer id="producer188" in="00:00:00.000" out="00:01:25.383">
  <property name="length">5124</property>
  <property name="eof">pause</property>
  <property name="resource">audio/music/Nursery/Maisie Lee/variations/Maisie Lee | High Melody'.wav</property>
  <property name="meta.media.nb_streams">1</property>
  <property name="meta.media.0.stream.type">audio</property>
  <property name="meta.media.0.codec.sample_fmt">s32</property>
  <property name="meta.media.0.codec.sample_rate">44100</property>
  <property name="meta.media.0.codec.channels">2</property>
  <property name="meta.media.0.codec.name">pcm_s24le</property>
  <property name="meta.media.0.codec.long_name">PCM signed 24-bit little-endian</property>
  <property name="meta.media.0.codec.bit_rate">2116800</property>
  <property name="meta.attr.encoded_by.markup">Logic Pro X</property>
  <property name="meta.attr.date.markup">2018-02-12</property>
  <property name="meta.attr.creation_time.markup">10:53:33</property>
  <property name="meta.attr.time_reference.markup">160820014</property>
  <property name="meta.attr.umid.markup">0x00000000000000000000000000000000000000000000000000000000D20029D40BE531B1D0A1F4EDFE7F0000507639030100000010A2F4EDFE7F00003D465D6B</property>
  <property name="meta.attr.album.markup">Nursery</property>
  <property name="seekable">1</property>
  <property name="audio_index">0</property>
  <property name="video_index">-1</property>
  <property name="mute_on_pause">1</property>
  <property name="mlt_service">avformat</property>
  <property name="kdenlive:clipname"/>
  <property name="kdenlive:clip_type">1</property>
  <property name="kdenlive:folderid">241</property>
  <property name="kdenlive:id">245</property>
  <property name="kdenlive:file_size">22598072</property>
  <property name="kdenlive:file_hash">b083c9fcd413e401cac72c5058450ba4</property>
  <property name="kdenlive:audio_max0">211</property>
 </producer>
 <producer id="producer190" in="00:00:00.000" out="00:01:43.467">
  <property name="length">6209</property>
  <property name="eof">pause</property>
  <property name="resource">audio/music/Nursery/Maisie Lee/variations/Maisie Lee | Mbira Mix.wav</property>
  <property name="meta.media.nb_streams">1</property>
  <property name="meta.media.0.stream.type">audio</property>
  <property name="meta.media.0.codec.sample_fmt">s32</property>
  <property name="meta.media.0.codec.sample_rate">44100</property>
  <property name="meta.media.0.codec.channels">2</property>
  <property name="meta.media.0.codec.name">pcm_s24le</property>
  <property name="meta.media.0.codec.long_name">PCM signed 24-bit little-endian</property>
  <property name="meta.media.0.codec.bit_rate">2116800</property>
  <property name="meta.attr.encoded_by.markup">Logic Pro X</property>
  <property name="meta.attr.date.markup">2018-02-12</property>
  <property name="meta.attr.creation_time.markup">10:54:51</property>
  <property name="meta.attr.time_reference.markup">160022312</property>
  <property name="meta.attr.umid.markup">0x00000000000000000000000000000000000000000000000000000000D20029D40BE531B1D0A1F4EDFE7F0000507639030100000010A2F4EDFE7F00003D465D6B</property>
  <property name="meta.attr.album.markup">Nursery</property>
  <property name="seekable">1</property>
  <property name="audio_index">0</property>
  <property name="video_index">-1</property>
  <property name="mute_on_pause">1</property>
  <property name="mlt_service">avformat</property>
  <property name="kdenlive:clipname"/>
  <property name="kdenlive:clip_type">1</property>
  <property name="kdenlive:folderid">241</property>
  <property name="kdenlive:id">246</property>
  <property name="kdenlive:file_size">27384284</property>
  <property name="kdenlive:file_hash">f85638488d407060a1e15edae1106599</property>
  <property name="kdenlive:audio_max0">220</property>
 </producer>
 <producer id="producer189" in="00:00:00.000" out="00:01:11.617">
  <property name="length">4298</property>
  <property name="eof">pause</property>
  <property name="resource">audio/music/Nursery/Maisie Lee/variations/Maisie Lee | Strings lead Mbira.wav</property>
  <property name="meta.media.nb_streams">1</property>
  <property name="meta.media.0.stream.type">audio</property>
  <property name="meta.media.0.codec.sample_fmt">s32</property>
  <property name="meta.media.0.codec.sample_rate">44100</property>
  <property name="meta.media.0.codec.channels">2</property>
  <property name="meta.media.0.codec.name">pcm_s24le</property>
  <property name="meta.media.0.codec.long_name">PCM signed 24-bit little-endian</property>
  <property name="meta.media.0.codec.bit_rate">2116800</property>
  <property name="meta.attr.encoded_by.markup">Logic Pro X</property>
  <property name="meta.attr.date.markup">2018-02-12</property>
  <property name="meta.attr.creation_time.markup">10:55:32</property>
  <property name="meta.attr.time_reference.markup">161427259</property>
  <property name="meta.attr.umid.markup">0x00000000000000000000000000000000000000000000000000000000D20029D40BE531B1D0A1F4EDFE7F0000507639030100000010A2F4EDFE7F00003D465D6B</property>
  <property name="meta.attr.album.markup">Nursery</property>
  <property name="seekable">1</property>
  <property name="audio_index">0</property>
  <property name="video_index">-1</property>
  <property name="mute_on_pause">1</property>
  <property name="mlt_service">avformat</property>
  <property name="kdenlive:clipname"/>
  <property name="kdenlive:clip_type">1</property>
  <property name="kdenlive:folderid">241</property>
  <property name="kdenlive:id">247</property>
  <property name="kdenlive:file_size">18954602</property>
  <property name="kdenlive:file_hash">6da569f8a0432dca04934ff49dcfc1eb</property>
  <property name="kdenlive:audio_max0">204</property>
 </producer>
 <producer id="producer191" in="00:00:00.000" out="00:04:25.100">
  <property name="length">15907</property>
  <property name="eof">pause</property>
  <property name="resource">audio/music/Nursery/Night Light */Night Light (-precussion).wav</property>
  <property name="meta.media.nb_streams">1</property>
  <property name="meta.media.0.stream.type">audio</property>
  <property name="meta.media.0.codec.sample_fmt">s16</property>
  <property name="meta.media.0.codec.sample_rate">44100</property>
  <property name="meta.media.0.codec.channels">2</property>
  <property name="meta.media.0.codec.name">pcm_s16le</property>
  <property name="meta.media.0.codec.long_name">PCM signed 16-bit little-endian</property>
  <property name="meta.media.0.codec.bit_rate">1411200</property>
  <property name="meta.attr.date.markup">2016-10-15</property>
  <property name="meta.attr.encoder.markup">Lavf58.76.100</property>
  <property name="meta.attr.encoded_by.markup">Logic Pro X</property>
  <property name="seekable">1</property>
  <property name="audio_index">0</property>
  <property name="video_index">-1</property>
  <property name="mute_on_pause">1</property>
  <property name="mlt_service">avformat</property>
  <property name="kdenlive:clipname"/>
  <property name="kdenlive:clip_type">1</property>
  <property name="kdenlive:folderid">248</property>
  <property name="kdenlive:id">249</property>
  <property name="kdenlive:file_size">46765766</property>
  <property name="kdenlive:file_hash">6c6222b2fb0c53b62fe718ad07042f83</property>
  <property name="kdenlive:audio_max0">140</property>
 </producer>
 <producer id="producer193" in="00:00:00.000" out="00:04:25.100">
  <property name="length">15907</property>
  <property name="eof">pause</property>
  <property name="resource">audio/music/Nursery/Night Light */Night Light.wav</property>
  <property name="meta.media.nb_streams">1</property>
  <property name="meta.media.0.stream.type">audio</property>
  <property name="meta.media.0.codec.sample_fmt">s32</property>
  <property name="meta.media.0.codec.sample_rate">44100</property>
  <property name="meta.media.0.codec.channels">2</property>
  <property name="meta.media.0.codec.name">pcm_s24le</property>
  <property name="meta.media.0.codec.long_name">PCM signed 24-bit little-endian</property>
  <property name="meta.media.0.codec.bit_rate">2116800</property>
  <property name="meta.attr.encoded_by.markup">Logic Pro X</property>
  <property name="meta.attr.date.markup">2016-10-15</property>
  <property name="meta.attr.creation_time.markup">14:12:30</property>
  <property name="meta.attr.time_reference.markup">158760000</property>
  <property name="meta.attr.umid.markup">0x00000000D6A9DD3E92780051303A6853FF7F00006040420500600000000000000000000046B4530D0100000070C0CE7BFF7F000060326853FF7F00002A45B791</property>
  <property name="meta.attr.album.markup">Nursery</property>
  <property name="seekable">1</property>
  <property name="audio_index">0</property>
  <property name="video_index">-1</property>
  <property name="mute_on_pause">1</property>
  <property name="mlt_service">avformat</property>
  <property name="kdenlive:clipname"/>
  <property name="kdenlive:clip_type">1</property>
  <property name="kdenlive:folderid">248</property>
  <property name="kdenlive:id">250</property>
  <property name="kdenlive:file_size">70159664</property>
  <property name="kdenlive:file_hash">e75bc7cf0161aaff6eb4c637fd927aee</property>
  <property name="kdenlive:audio_max0">237</property>
 </producer>
 <producer id="producer192" in="00:00:00.000" out="00:04:25.100">
  <property name="length">15907</property>
  <property name="eof">pause</property>
  <property name="resource">audio/music/Nursery/Night Light */stems/01_Night Light_Rhodes.wav</property>
  <property name="meta.media.nb_streams">1</property>
  <property name="meta.media.0.stream.type">audio</property>
  <property name="meta.media.0.codec.sample_fmt">s32</property>
  <property name="meta.media.0.codec.sample_rate">44100</property>
  <property name="meta.media.0.codec.channels">2</property>
  <property name="meta.media.0.codec.name">pcm_s24le</property>
  <property name="meta.media.0.codec.long_name">PCM signed 24-bit little-endian</property>
  <property name="meta.media.0.codec.bit_rate">2116800</property>
  <property name="meta.attr.encoded_by.markup">Logic Pro X</property>
  <property name="meta.attr.date.markup">2016-10-15</property>
  <property name="meta.attr.creation_time.markup">14:18:51</property>
  <property name="meta.attr.time_reference.markup">158760000</property>
  <property name="meta.attr.umid.markup">0x00000000D6A9DD3E92780051303A6853FF7F0000C081620500600000000000000000000046B4530D0100000070C0CE7BFF7F000060326853FF7F00002A45B791</property>
  <property name="seekable">1</property>
  <property name="audio_index">0</property>
  <property name="video_index">-1</property>
  <property name="mute_on_pause">1</property>
  <property name="mlt_service">avformat</property>
  <property name="kdenlive:clipname"/>
  <property name="kdenlive:clip_type">1</property>
  <property name="kdenlive:folderid">251</property>
  <property name="kdenlive:id">252</property>
  <property name="kdenlive:file_size">70158604</property>
  <property name="kdenlive:file_hash">70fa279eeb70de618d66c58782577903</property>
  <property name="kdenlive:audio_max0">140</property>
 </producer>
 <producer id="producer194" in="00:00:00.000" out="00:04:25.100">
  <property name="length">15907</property>
  <property name="eof">pause</property>
  <property name="resource">audio/music/Nursery/Night Light */stems/02_Night Light_Piano.wav</property>
  <property name="meta.media.nb_streams">1</property>
  <property name="meta.media.0.stream.type">audio</property>
  <property name="meta.media.0.codec.sample_fmt">s32</property>
  <property name="meta.media.0.codec.sample_rate">44100</property>
  <property name="meta.media.0.codec.channels">2</property>
  <property name="meta.media.0.codec.name">pcm_s24le</property>
  <property name="meta.media.0.codec.long_name">PCM signed 24-bit little-endian</property>
  <property name="meta.media.0.codec.bit_rate">2116800</property>
  <property name="meta.attr.encoded_by.markup">Logic Pro X</property>
  <property name="meta.attr.date.markup">2016-10-15</property>
  <property name="meta.attr.creation_time.markup">14:17:35</property>
  <property name="meta.attr.time_reference.markup">158760000</property>
  <property name="meta.attr.umid.markup">0x00000000D6A9DD3E92780051303A6853FF7F000040D9A30580600000000000000000000046B4530D0100000070C0CE7BFF7F000060326853FF7F00002A45B791</property>
  <property name="seekable">1</property>
  <property name="audio_index">0</property>
  <property name="video_index">-1</property>
  <property name="mute_on_pause">1</property>
  <property name="mlt_service">avformat</property>
  <property name="kdenlive:clipname"/>
  <property name="kdenlive:clip_type">1</property>
  <property name="kdenlive:folderid">251</property>
  <property name="kdenlive:id">253</property>
  <property name="kdenlive:file_size">70158604</property>
  <property name="kdenlive:file_hash">3c193e1b4797550cb809568c7110f3cb</property>
  <property name="kdenlive:audio_max0">205</property>
 </producer>
 <producer id="producer196" in="00:00:00.000" out="00:04:25.100">
  <property name="length">15907</property>
  <property name="eof">pause</property>
  <property name="resource">audio/music/Nursery/Night Light */stems/03_Night Light_Tongue Drum.wav</property>
  <property name="meta.media.nb_streams">1</property>
  <property name="meta.media.0.stream.type">audio</property>
  <property name="meta.media.0.codec.sample_fmt">s32</property>
  <property name="meta.media.0.codec.sample_rate">44100</property>
  <property name="meta.media.0.codec.channels">2</property>
  <property name="meta.media.0.codec.name">pcm_s24le</property>
  <property name="meta.media.0.codec.long_name">PCM signed 24-bit little-endian</property>
  <property name="meta.media.0.codec.bit_rate">2116800</property>
  <property name="meta.attr.encoded_by.markup">Logic Pro X</property>
  <property name="meta.attr.date.markup">2016-10-15</property>
  <property name="meta.attr.creation_time.markup">14:15:11</property>
  <property name="meta.attr.time_reference.markup">158760000</property>
  <property name="meta.attr.umid.markup">0x00000000D6A9DD3E92780051303A6853FF7F0000E082420500600000000000000000000046B4530D0100000070C0CE7BFF7F000060326853FF7F00002A45B791</property>
  <property name="seekable">1</property>
  <property name="audio_index">0</property>
  <property name="video_index">-1</property>
  <property name="mute_on_pause">1</property>
  <property name="mlt_service">avformat</property>
  <property name="kdenlive:clipname"/>
  <property name="kdenlive:clip_type">1</property>
  <property name="kdenlive:folderid">251</property>
  <property name="kdenlive:id">254</property>
  <property name="kdenlive:file_size">70158604</property>
  <property name="kdenlive:file_hash">bdfeb1114ee28d336e1e7b0acbae544f</property>
  <property name="kdenlive:audio_max0">187</property>
 </producer>
 <producer id="producer195" in="00:00:00.000" out="00:04:25.100">
  <property name="length">15907</property>
  <property name="eof">pause</property>
  <property name="resource">audio/music/Nursery/Night Light */stems/04_Night Light_Drum Kit.wav</property>
  <property name="meta.media.nb_streams">1</property>
  <property name="meta.media.0.stream.type">audio</property>
  <property name="meta.media.0.codec.sample_fmt">s32</property>
  <property name="meta.media.0.codec.sample_rate">44100</property>
  <property name="meta.media.0.codec.channels">2</property>
  <property name="meta.media.0.codec.name">pcm_s24le</property>
  <property name="meta.media.0.codec.long_name">PCM signed 24-bit little-endian</property>
  <property name="meta.media.0.codec.bit_rate">2116800</property>
  <property name="meta.attr.encoded_by.markup">Logic Pro X</property>
  <property name="meta.attr.date.markup">2016-10-15</property>
  <property name="meta.attr.creation_time.markup">14:14:21</property>
  <property name="meta.attr.time_reference.markup">158760000</property>
  <property name="meta.attr.umid.markup">0x00000000D6A9DD3E92780051303A6853FF7F00000047420500600000000000000000000046B4530D0100000070C0CE7BFF7F000060326853FF7F00002A45B791</property>
  <property name="seekable">1</property>
  <property name="audio_index">0</property>
  <property name="video_index">-1</property>
  <property name="mute_on_pause">1</property>
  <property name="mlt_service">avformat</property>
  <property name="kdenlive:clipname"/>
  <property name="kdenlive:clip_type">1</property>
  <property name="kdenlive:folderid">251</property>
  <property name="kdenlive:id">255</property>
  <property name="kdenlive:file_size">70158604</property>
  <property name="kdenlive:file_hash">3dc7482e69007963f8a38c5c2c5459c4</property>
  <property name="kdenlive:audio_max0">133</property>
 </producer>
 <producer id="producer197" in="00:00:00.000" out="00:04:25.100">
  <property name="length">15907</property>
  <property name="eof">pause</property>
  <property name="resource">audio/music/Nursery/Night Light */stems/05_Night Light_Found Percussion.wav</property>
  <property name="meta.media.nb_streams">1</property>
  <property name="meta.media.0.stream.type">audio</property>
  <property name="meta.media.0.codec.sample_fmt">s32</property>
  <property name="meta.media.0.codec.sample_rate">44100</property>
  <property name="meta.media.0.codec.channels">2</property>
  <property name="meta.media.0.codec.name">pcm_s24le</property>
  <property name="meta.media.0.codec.long_name">PCM signed 24-bit little-endian</property>
  <property name="meta.media.0.codec.bit_rate">2116800</property>
  <property name="meta.attr.encoded_by.markup">Logic Pro X</property>
  <property name="meta.attr.date.markup">2016-10-15</property>
  <property name="meta.attr.creation_time.markup">14:13:55</property>
  <property name="meta.attr.time_reference.markup">158760000</property>
  <property name="meta.attr.umid.markup">0x00000000D6A9DD3E92780051303A6853FF7F00008051430500600000000000000000000046B4530D0100000070C0CE7BFF7F000060326853FF7F00002A45B791</property>
  <property name="seekable">1</property>
  <property name="audio_index">0</property>
  <property name="video_index">-1</property>
  <property name="mute_on_pause">1</property>
  <property name="mlt_service">avformat</property>
  <property name="kdenlive:clipname"/>
  <property name="kdenlive:clip_type">1</property>
  <property name="kdenlive:folderid">251</property>
  <property name="kdenlive:id">256</property>
  <property name="kdenlive:file_size">70158604</property>
  <property name="kdenlive:file_hash">fadec85dc05d24365d873f616e3c6255</property>
  <property name="kdenlive:audio_max0">73</property>
 </producer>
 <producer id="producer199" in="00:00:00.000" out="00:04:25.100">
  <property name="length">15907</property>
  <property name="eof">pause</property>
  <property name="resource">audio/music/Nursery/Night Light */stems/output.wav</property>
  <property name="meta.media.nb_streams">1</property>
  <property name="meta.media.0.stream.type">audio</property>
  <property name="meta.media.0.codec.sample_fmt">s16</property>
  <property name="meta.media.0.codec.sample_rate">44100</property>
  <property name="meta.media.0.codec.channels">2</property>
  <property name="meta.media.0.codec.name">pcm_s16le</property>
  <property name="meta.media.0.codec.long_name">PCM signed 16-bit little-endian</property>
  <property name="meta.media.0.codec.bit_rate">1411200</property>
  <property name="meta.attr.date.markup">2016-10-15</property>
  <property name="meta.attr.encoder.markup">Lavf58.76.100</property>
  <property name="meta.attr.encoded_by.markup">Logic Pro X</property>
  <property name="seekable">1</property>
  <property name="audio_index">0</property>
  <property name="video_index">-1</property>
  <property name="mute_on_pause">1</property>
  <property name="mlt_service">avformat</property>
  <property name="kdenlive:clipname"/>
  <property name="kdenlive:clip_type">1</property>
  <property name="kdenlive:folderid">251</property>
  <property name="kdenlive:id">257</property>
  <property name="kdenlive:file_size">46765766</property>
  <property name="kdenlive:file_hash">6c6222b2fb0c53b62fe718ad07042f83</property>
  <property name="kdenlive:audio_max0">140</property>
 </producer>
 <producer id="producer198" in="00:00:00.000" out="00:04:24.500">
  <property name="length">15871</property>
  <property name="eof">pause</property>
  <property name="resource">audio/music/Nursery/Petaluma/Petaluma.wav</property>
  <property name="meta.media.nb_streams">1</property>
  <property name="meta.media.0.stream.type">audio</property>
  <property name="meta.media.0.codec.sample_fmt">s32</property>
  <property name="meta.media.0.codec.sample_rate">44100</property>
  <property name="meta.media.0.codec.channels">2</property>
  <property name="meta.media.0.codec.name">pcm_s24le</property>
  <property name="meta.media.0.codec.long_name">PCM signed 24-bit little-endian</property>
  <property name="meta.media.0.codec.bit_rate">2116800</property>
  <property name="meta.attr.encoded_by.markup">Logic Pro X</property>
  <property name="meta.attr.date.markup">2016-10-15</property>
  <property name="meta.attr.creation_time.markup">11:53:35</property>
  <property name="meta.attr.time_reference.markup">158760000</property>
  <property name="meta.attr.umid.markup">0x00000000D6A9DD3E92780051303A6853FF7F00006054630500600000000000000000000046B4530D0100000070C0CE7BFF7F000060326853FF7F00002A45B791</property>
  <property name="meta.attr.album.markup">Nursery</property>
  <property name="seekable">1</property>
  <property name="audio_index">0</property>
  <property name="video_index">-1</property>
  <property name="mute_on_pause">1</property>
  <property name="mlt_service">avformat</property>
  <property name="kdenlive:clipname"/>
  <property name="kdenlive:clip_type">1</property>
  <property name="kdenlive:folderid">258</property>
  <property name="kdenlive:id">259</property>
  <property name="kdenlive:file_size">69992754</property>
  <property name="kdenlive:file_hash">1ae67176c107cb81f9a5189a79b76e54</property>
  <property name="kdenlive:audio_max0">241</property>
 </producer>
 <producer id="producer200" in="00:00:00.000" out="00:04:24.500">
  <property name="length">15871</property>
  <property name="eof">pause</property>
  <property name="resource">audio/music/Nursery/Petaluma/stems/01_Petaluma_Rhodes.wav</property>
  <property name="meta.media.nb_streams">1</property>
  <property name="meta.media.0.stream.type">audio</property>
  <property name="meta.media.0.codec.sample_fmt">s32</property>
  <property name="meta.media.0.codec.sample_rate">44100</property>
  <property name="meta.media.0.codec.channels">2</property>
  <property name="meta.media.0.codec.name">pcm_s24le</property>
  <property name="meta.media.0.codec.long_name">PCM signed 24-bit little-endian</property>
  <property name="meta.media.0.codec.bit_rate">2116800</property>
  <property name="meta.attr.encoded_by.markup">Logic Pro X</property>
  <property name="meta.attr.date.markup">2016-10-15</property>
  <property name="meta.attr.creation_time.markup">11:50:02</property>
  <property name="meta.attr.time_reference.markup">158760000</property>
  <property name="meta.attr.umid.markup">0x00000000D6A9DD3E92780051303A6853FF7F000080E6430500600000000000000000000046B4530D0100000070C0CE7BFF7F000060326853FF7F00002A45B791</property>
  <property name="seekable">1</property>
  <property name="audio_index">0</property>
  <property name="video_index">-1</property>
  <property name="mute_on_pause">1</property>
  <property name="mlt_service">avformat</property>
  <property name="kdenlive:clipname"/>
  <property name="kdenlive:clip_type">1</property>
  <property name="kdenlive:folderid">260</property>
  <property name="kdenlive:id">261</property>
  <property name="kdenlive:file_size">69991694</property>
  <property name="kdenlive:file_hash">1b3cb6179ab8f71328fb6d2bdc6ae29c</property>
  <property name="kdenlive:audio_max0">172</property>
 </producer>
 <producer id="producer201" in="00:00:00.000" out="00:04:24.500">
  <property name="length">15871</property>
  <property name="eof">pause</property>
  <property name="resource">audio/music/Nursery/Petaluma/stems/02_Petaluma_Piano.wav</property>
  <property name="meta.media.nb_streams">1</property>
  <property name="meta.media.0.stream.type">audio</property>
  <property name="meta.media.0.codec.sample_fmt">s32</property>
  <property name="meta.media.0.codec.sample_rate">44100</property>
  <property name="meta.media.0.codec.channels">2</property>
  <property name="meta.media.0.codec.name">pcm_s24le</property>
  <property name="meta.media.0.codec.long_name">PCM signed 24-bit little-endian</property>
  <property name="meta.media.0.codec.bit_rate">2116800</property>
  <property name="meta.attr.encoded_by.markup">Logic Pro X</property>
  <property name="meta.attr.date.markup">2016-10-15</property>
  <property name="meta.attr.creation_time.markup">11:49:25</property>
  <property name="meta.attr.time_reference.markup">158760000</property>
  <property name="meta.attr.umid.markup">0x00000000D6A9DD3E92780051303A6853FF7F0000803C620500600000000000000000000046B4530D0100000070C0CE7BFF7F000060326853FF7F00002A45B791</property>
  <property name="seekable">1</property>
  <property name="audio_index">0</property>
  <property name="video_index">-1</property>
  <property name="mute_on_pause">1</property>
  <property name="mlt_service">avformat</property>
  <property name="kdenlive:clipname"/>
  <property name="kdenlive:clip_type">1</property>
  <property name="kdenlive:folderid">260</property>
  <property name="kdenlive:id">262</property>
  <property name="kdenlive:file_size">69991694</property>
  <property name="kdenlive:file_hash">1c56ac8c410b6c44330cd1cdb72f7750</property>
  <property name="kdenlive:audio_max0">203</property>
 </producer>
 <producer id="producer202" in="00:00:00.000" out="00:04:24.500">
  <property name="length">15871</property>
  <property name="eof">pause</property>
  <property name="resource">audio/music/Nursery/Petaluma/stems/03_Petaluma_Tongue Drum.wav</property>
  <property name="meta.media.nb_streams">1</property>
  <property name="meta.media.0.stream.type">audio</property>
  <property name="meta.media.0.codec.sample_fmt">s32</property>
  <property name="meta.media.0.codec.sample_rate">44100</property>
  <property name="meta.media.0.codec.channels">2</property>
  <property name="meta.media.0.codec.name">pcm_s24le</property>
  <property name="meta.media.0.codec.long_name">PCM signed 24-bit little-endian</property>
  <property name="meta.media.0.codec.bit_rate">2116800</property>
  <property name="meta.attr.encoded_by.markup">Logic Pro X</property>
  <property name="meta.attr.date.markup">2016-10-15</property>
  <property name="meta.attr.creation_time.markup">11:48:47</property>
  <property name="meta.attr.time_reference.markup">158760000</property>
  <property name="meta.attr.umid.markup">0x00000000D6A9DD3E92780051303A6853FF7F0000C0E6630580600000000000000000000046B4530D0100000070C0CE7BFF7F000060326853FF7F00002A45B791</property>
  <property name="seekable">1</property>
  <property name="audio_index">0</property>
  <property name="video_index">-1</property>
  <property name="mute_on_pause">1</property>
  <property name="mlt_service">avformat</property>
  <property name="kdenlive:clipname"/>
  <property name="kdenlive:clip_type">1</property>
  <property name="kdenlive:folderid">260</property>
  <property name="kdenlive:id">263</property>
  <property name="kdenlive:file_size">69991694</property>
  <property name="kdenlive:file_hash">d258c8978ae941253b3093f5c64f0198</property>
  <property name="kdenlive:audio_max0">164</property>
 </producer>
 <producer id="producer203" in="00:00:00.000" out="00:04:24.500">
  <property name="length">15871</property>
  <property name="eof">pause</property>
  <property name="resource">audio/music/Nursery/Petaluma/stems/04_Petaluma_Percussion.wav</property>
  <property name="meta.media.nb_streams">1</property>
  <property name="meta.media.0.stream.type">audio</property>
  <property name="meta.media.0.codec.sample_fmt">s32</property>
  <property name="meta.media.0.codec.sample_rate">44100</property>
  <property name="meta.media.0.codec.channels">2</property>
  <property name="meta.media.0.codec.name">pcm_s24le</property>
  <property name="meta.media.0.codec.long_name">PCM signed 24-bit little-endian</property>
  <property name="meta.media.0.codec.bit_rate">2116800</property>
  <property name="meta.attr.encoded_by.markup">Logic Pro X</property>
  <property name="meta.attr.date.markup">2016-10-15</property>
  <property name="meta.attr.creation_time.markup">11:46:59</property>
  <property name="meta.attr.time_reference.markup">158760000</property>
  <property name="meta.attr.umid.markup">0x00000000D6A9DD3E92780051303A6853FF7F00004049430500600000000000000000000046B4530D0100000070C0CE7BFF7F000060326853FF7F00002A45B791</property>
  <property name="seekable">1</property>
  <property name="audio_index">0</property>
  <property name="video_index">-1</property>
  <property name="mute_on_pause">1</property>
  <property name="mlt_service">avformat</property>
  <property name="kdenlive:clipname"/>
  <property name="kdenlive:clip_type">1</property>
  <property name="kdenlive:folderid">260</property>
  <property name="kdenlive:id">264</property>
  <property name="kdenlive:file_size">69991694</property>
  <property name="kdenlive:file_hash">51c68bc54e50381f3ab7afd33ec2fa34</property>
  <property name="kdenlive:audio_max0">190</property>
 </producer>
 <producer id="producer204" in="00:00:00.000" out="00:04:24.500">
  <property name="length">15871</property>
  <property name="eof">pause</property>
  <property name="resource">audio/music/Nursery/Petaluma/stems/05_Petaluma_Fjoria SynPad.wav</property>
  <property name="meta.media.nb_streams">1</property>
  <property name="meta.media.0.stream.type">audio</property>
  <property name="meta.media.0.codec.sample_fmt">s32</property>
  <property name="meta.media.0.codec.sample_rate">44100</property>
  <property name="meta.media.0.codec.channels">2</property>
  <property name="meta.media.0.codec.name">pcm_s24le</property>
  <property name="meta.media.0.codec.long_name">PCM signed 24-bit little-endian</property>
  <property name="meta.media.0.codec.bit_rate">2116800</property>
  <property name="meta.attr.encoded_by.markup">Logic Pro X</property>
  <property name="meta.attr.date.markup">2016-10-15</property>
  <property name="meta.attr.creation_time.markup">11:46:05</property>
  <property name="meta.attr.time_reference.markup">158760000</property>
  <property name="meta.attr.umid.markup">0x00000000D6A9DD3E92780051303A6853FF7F0000A014620500600000000000000000000046B4530D0100000070C0CE7BFF7F000060326853FF7F00002A45B791</property>
  <property name="seekable">1</property>
  <property name="audio_index">0</property>
  <property name="video_index">-1</property>
  <property name="mute_on_pause">1</property>
  <property name="mlt_service">avformat</property>
  <property name="kdenlive:clipname"/>
  <property name="kdenlive:clip_type">1</property>
  <property name="kdenlive:folderid">260</property>
  <property name="kdenlive:id">265</property>
  <property name="kdenlive:file_size">69991694</property>
  <property name="kdenlive:file_hash">002c0da9196993200e64b7da8bd9f743</property>
  <property name="kdenlive:audio_max0">145</property>
 </producer>
 <producer id="producer207" in="00:00:00.000" out="00:04:24.500">
  <property name="length">15871</property>
  <property name="eof">pause</property>
  <property name="resource">audio/music/Nursery/Petaluma/stems/output.wav</property>
  <property name="meta.media.nb_streams">1</property>
  <property name="meta.media.0.stream.type">audio</property>
  <property name="meta.media.0.codec.sample_fmt">s16</property>
  <property name="meta.media.0.codec.sample_rate">44100</property>
  <property name="meta.media.0.codec.channels">2</property>
  <property name="meta.media.0.codec.name">pcm_s16le</property>
  <property name="meta.media.0.codec.long_name">PCM signed 16-bit little-endian</property>
  <property name="meta.media.0.codec.bit_rate">1411200</property>
  <property name="meta.attr.date.markup">2016-10-15</property>
  <property name="meta.attr.encoder.markup">Lavf58.76.100</property>
  <property name="meta.attr.encoded_by.markup">Logic Pro X</property>
  <property name="seekable">1</property>
  <property name="audio_index">0</property>
  <property name="video_index">-1</property>
  <property name="mute_on_pause">1</property>
  <property name="mlt_service">avformat</property>
  <property name="kdenlive:clipname"/>
  <property name="kdenlive:clip_type">1</property>
  <property name="kdenlive:folderid">260</property>
  <property name="kdenlive:id">266</property>
  <property name="kdenlive:file_size">46660762</property>
  <property name="kdenlive:file_hash">52a2f9c8f735ea4c0b1143e07b9a5a7f</property>
  <property name="kdenlive:audio_max0">148</property>
 </producer>
 <producer id="producer205" in="00:00:00.000" out="00:03:38.550">
  <property name="length">13114</property>
  <property name="eof">pause</property>
  <property name="resource">audio/music/Nursery/Stuffed Monster/Stuffed Monster.wav</property>
  <property name="meta.media.nb_streams">1</property>
  <property name="meta.media.0.stream.type">audio</property>
  <property name="meta.media.0.codec.sample_fmt">s32</property>
  <property name="meta.media.0.codec.sample_rate">44100</property>
  <property name="meta.media.0.codec.channels">2</property>
  <property name="meta.media.0.codec.name">pcm_s24le</property>
  <property name="meta.media.0.codec.long_name">PCM signed 24-bit little-endian</property>
  <property name="meta.media.0.codec.bit_rate">2116800</property>
  <property name="meta.attr.encoded_by.markup">Logic Pro X</property>
  <property name="meta.attr.date.markup">2016-10-22</property>
  <property name="meta.attr.creation_time.markup">18:53:28</property>
  <property name="meta.attr.time_reference.markup">158760000</property>
  <property name="meta.attr.umid.markup">0x00000000129092E22783004C309A4957FF7F000020450201006000000000000000000000465472090100000070A0C072FF7F000060924957FF7F00002A25A988</property>
  <property name="meta.attr.album.markup">Nursery</property>
  <property name="seekable">1</property>
  <property name="audio_index">0</property>
  <property name="video_index">-1</property>
  <property name="mute_on_pause">1</property>
  <property name="mlt_service">avformat</property>
  <property name="kdenlive:clipname"/>
  <property name="kdenlive:clip_type">1</property>
  <property name="kdenlive:folderid">267</property>
  <property name="kdenlive:id">268</property>
  <property name="kdenlive:file_size">57835790</property>
  <property name="kdenlive:file_hash">ecf61d177bd3db5d0c114358ae1912eb</property>
  <property name="kdenlive:audio_max0">238</property>
 </producer>
 <producer id="producer206" in="00:00:00.000" out="00:03:38.550">
  <property name="length">13114</property>
  <property name="eof">pause</property>
  <property name="resource">audio/music/Nursery/Stuffed Monster/stems/01_Stuffed Monster_Rhodes.wav</property>
  <property name="meta.media.nb_streams">1</property>
  <property name="meta.media.0.stream.type">audio</property>
  <property name="meta.media.0.codec.sample_fmt">s32</property>
  <property name="meta.media.0.codec.sample_rate">44100</property>
  <property name="meta.media.0.codec.channels">2</property>
  <property name="meta.media.0.codec.name">pcm_s24le</property>
  <property name="meta.media.0.codec.long_name">PCM signed 24-bit little-endian</property>
  <property name="meta.media.0.codec.bit_rate">2116800</property>
  <property name="meta.attr.encoded_by.markup">Logic Pro X</property>
  <property name="meta.attr.date.markup">2016-10-22</property>
  <property name="meta.attr.creation_time.markup">18:57:34</property>
  <property name="meta.attr.time_reference.markup">158760000</property>
  <property name="meta.attr.umid.markup">0x00000000129092E22783004C309A4957FF7F00004084E200006000000000000000000000465472090100000070A0C072FF7F000060924957FF7F00002A25A988</property>
  <property name="seekable">1</property>
  <property name="audio_index">0</property>
  <property name="video_index">-1</property>
  <property name="mute_on_pause">1</property>
  <property name="mlt_service">avformat</property>
  <property name="kdenlive:clipname"/>
  <property name="kdenlive:clip_type">1</property>
  <property name="kdenlive:folderid">269</property>
  <property name="kdenlive:id">270</property>
  <property name="kdenlive:file_size">57834730</property>
  <property name="kdenlive:file_hash">7361d82c315b14a079719b5e0d291966</property>
  <property name="kdenlive:audio_max0">195</property>
 </producer>
 <producer id="producer208" in="00:00:00.000" out="00:03:38.550">
  <property name="length">13114</property>
  <property name="eof">pause</property>
  <property name="resource">audio/music/Nursery/Stuffed Monster/stems/02_Stuffed Monster_Tongue Drum.wav</property>
  <property name="meta.media.nb_streams">1</property>
  <property name="meta.media.0.stream.type">audio</property>
  <property name="meta.media.0.codec.sample_fmt">s32</property>
  <property name="meta.media.0.codec.sample_rate">44100</property>
  <property name="meta.media.0.codec.channels">2</property>
  <property name="meta.media.0.codec.name">pcm_s24le</property>
  <property name="meta.media.0.codec.long_name">PCM signed 24-bit little-endian</property>
  <property name="meta.media.0.codec.bit_rate">2116800</property>
  <property name="meta.attr.encoded_by.markup">Logic Pro X</property>
  <property name="meta.attr.date.markup">2016-10-22</property>
  <property name="meta.attr.creation_time.markup">18:57:08</property>
  <property name="meta.attr.time_reference.markup">158760000</property>
  <property name="meta.attr.umid.markup">0x00000000129092E22783004C309A4957FF7F00006098E300006000000000000000000000465472090100000070A0C072FF7F000060924957FF7F00002A25A988</property>
  <property name="seekable">1</property>
  <property name="audio_index">0</property>
  <property name="video_index">-1</property>
  <property name="mute_on_pause">1</property>
  <property name="mlt_service">avformat</property>
  <property name="kdenlive:clipname"/>
  <property name="kdenlive:clip_type">1</property>
  <property name="kdenlive:folderid">269</property>
  <property name="kdenlive:id">271</property>
  <property name="kdenlive:file_size">57834730</property>
  <property name="kdenlive:file_hash">04d644093971fde697810e24cf6053d6</property>
  <property name="kdenlive:audio_max0">198</property>
 </producer>
 <producer id="producer209" in="00:00:00.000" out="00:03:38.550">
  <property name="length">13114</property>
  <property name="eof">pause</property>
  <property name="resource">audio/music/Nursery/Stuffed Monster/stems/03_Stuffed Monster_Drum Kit.wav</property>
  <property name="meta.media.nb_streams">1</property>
  <property name="meta.media.0.stream.type">audio</property>
  <property name="meta.media.0.codec.sample_fmt">s32</property>
  <property name="meta.media.0.codec.sample_rate">44100</property>
  <property name="meta.media.0.codec.channels">2</property>
  <property name="meta.media.0.codec.name">pcm_s24le</property>
  <property name="meta.media.0.codec.long_name">PCM signed 24-bit little-endian</property>
  <property name="meta.media.0.codec.bit_rate">2116800</property>
  <property name="meta.attr.encoded_by.markup">Logic Pro X</property>
  <property name="meta.attr.date.markup">2016-10-22</property>
  <property name="meta.attr.creation_time.markup">18:56:36</property>
  <property name="meta.attr.time_reference.markup">158760000</property>
  <property name="meta.attr.umid.markup">0x00000000129092E22783004C309A4957FF7F000060FDE200006000000000000000000000465472090100000070A0C072FF7F000060924957FF7F00002A25A988</property>
  <property name="seekable">1</property>
  <property name="audio_index">0</property>
  <property name="video_index">-1</property>
  <property name="mute_on_pause">1</property>
  <property name="mlt_service">avformat</property>
  <property name="kdenlive:clipname"/>
  <property name="kdenlive:clip_type">1</property>
  <property name="kdenlive:folderid">269</property>
  <property name="kdenlive:id">272</property>
  <property name="kdenlive:file_size">57834730</property>
  <property name="kdenlive:file_hash">5eab26c6b906ac1f1f96af1213c6ffeb</property>
  <property name="kdenlive:audio_max0">178</property>
 </producer>
 <producer id="producer210" in="00:00:00.000" out="00:03:38.550">
  <property name="length">13114</property>
  <property name="eof">pause</property>
  <property name="resource">audio/music/Nursery/Stuffed Monster/stems/04_Stuffed Monster_Uprught Bass.wav</property>
  <property name="meta.media.nb_streams">1</property>
  <property name="meta.media.0.stream.type">audio</property>
  <property name="meta.media.0.codec.sample_fmt">s32</property>
  <property name="meta.media.0.codec.sample_rate">44100</property>
  <property name="meta.media.0.codec.channels">2</property>
  <property name="meta.media.0.codec.name">pcm_s24le</property>
  <property name="meta.media.0.codec.long_name">PCM signed 24-bit little-endian</property>
  <property name="meta.media.0.codec.bit_rate">2116800</property>
  <property name="meta.attr.encoded_by.markup">Logic Pro X</property>
  <property name="meta.attr.date.markup">2016-10-22</property>
  <property name="meta.attr.creation_time.markup">18:54:56</property>
  <property name="meta.attr.time_reference.markup">158760000</property>
  <property name="meta.attr.umid.markup">0x00000000129092E22783004C309A4957FF7F00008056E200006000000000000000000000465472090100000070A0C072FF7F000060924957FF7F00002A25A988</property>
  <property name="seekable">1</property>
  <property name="audio_index">0</property>
  <property name="video_index">-1</property>
  <property name="mute_on_pause">1</property>
  <property name="mlt_service">avformat</property>
  <property name="kdenlive:clipname"/>
  <property name="kdenlive:clip_type">1</property>
  <property name="kdenlive:folderid">269</property>
  <property name="kdenlive:id">273</property>
  <property name="kdenlive:file_size">57834730</property>
  <property name="kdenlive:file_hash">5f89e051322f9c7983f1462b910cc012</property>
  <property name="kdenlive:audio_max0">184</property>
 </producer>
 <producer id="producer213" in="00:00:00.000" out="00:03:38.550">
  <property name="length">13114</property>
  <property name="eof">pause</property>
  <property name="resource">audio/music/Nursery/Stuffed Monster/stems/output.wav</property>
  <property name="meta.media.nb_streams">1</property>
  <property name="meta.media.0.stream.type">audio</property>
  <property name="meta.media.0.codec.sample_fmt">s16</property>
  <property name="meta.media.0.codec.sample_rate">44100</property>
  <property name="meta.media.0.codec.channels">2</property>
  <property name="meta.media.0.codec.name">pcm_s16le</property>
  <property name="meta.media.0.codec.long_name">PCM signed 16-bit little-endian</property>
  <property name="meta.media.0.codec.bit_rate">1411200</property>
  <property name="meta.attr.date.markup">2016-10-22</property>
  <property name="meta.attr.encoder.markup">Lavf58.76.100</property>
  <property name="meta.attr.encoded_by.markup">Logic Pro X</property>
  <property name="seekable">1</property>
  <property name="audio_index">0</property>
  <property name="video_index">-1</property>
  <property name="mute_on_pause">1</property>
  <property name="mlt_service">avformat</property>
  <property name="kdenlive:clipname"/>
  <property name="kdenlive:clip_type">1</property>
  <property name="kdenlive:folderid">269</property>
  <property name="kdenlive:id">274</property>
  <property name="kdenlive:file_size">38556118</property>
  <property name="kdenlive:file_hash">84ca81e38bb31fa76491f9c8edda9ac6</property>
  <property name="kdenlive:audio_max0">161</property>
 </producer>
 <producer id="producer212" in="00:00:00.000" out="00:03:42.833">
  <property name="length">13371</property>
  <property name="eof">pause</property>
  <property name="resource">audio/music/Nursery/The Callow */The Callow (-guitar -precussion).wav</property>
  <property name="meta.media.nb_streams">1</property>
  <property name="meta.media.0.stream.type">audio</property>
  <property name="meta.media.0.codec.sample_fmt">s16</property>
  <property name="meta.media.0.codec.sample_rate">44100</property>
  <property name="meta.media.0.codec.channels">2</property>
  <property name="meta.media.0.codec.name">pcm_s16le</property>
  <property name="meta.media.0.codec.long_name">PCM signed 16-bit little-endian</property>
  <property name="meta.media.0.codec.bit_rate">1411200</property>
  <property name="meta.attr.date.markup">2016-09-20</property>
  <property name="meta.attr.encoder.markup">Lavf58.76.100</property>
  <property name="meta.attr.encoded_by.markup">Logic Pro X</property>
  <property name="seekable">1</property>
  <property name="audio_index">0</property>
  <property name="video_index">-1</property>
  <property name="mute_on_pause">1</property>
  <property name="mlt_service">avformat</property>
  <property name="kdenlive:clipname"/>
  <property name="kdenlive:clip_type">1</property>
  <property name="kdenlive:folderid">275</property>
  <property name="kdenlive:id">276</property>
  <property name="kdenlive:file_size">39312118</property>
  <property name="kdenlive:file_hash">a9e5d693e46356e3aaba5ccc9492c661</property>
  <property name="kdenlive:audio_max0">205</property>
 </producer>
 <producer id="producer211" in="00:00:00.000" out="00:03:42.833">
  <property name="length">13371</property>
  <property name="eof">pause</property>
  <property name="resource">audio/music/Nursery/The Callow */The Callow.wav</property>
  <property name="meta.media.nb_streams">1</property>
  <property name="meta.media.0.stream.type">audio</property>
  <property name="meta.media.0.codec.sample_fmt">s32</property>
  <property name="meta.media.0.codec.sample_rate">44100</property>
  <property name="meta.media.0.codec.channels">2</property>
  <property name="meta.media.0.codec.name">pcm_s24le</property>
  <property name="meta.media.0.codec.long_name">PCM signed 24-bit little-endian</property>
  <property name="meta.media.0.codec.bit_rate">2116800</property>
  <property name="meta.attr.encoded_by.markup">Logic Pro X</property>
  <property name="meta.attr.date.markup">2016-09-20</property>
  <property name="meta.attr.creation_time.markup">19:09:28</property>
  <property name="meta.attr.time_reference.markup">158760000</property>
  <property name="meta.attr.umid.markup">0x00000000F227204F83D100C330BA3658FF7F0000A0416205006000000000000000000000463485080100000070301476FF7F000060B23658FF7F00002AB5FC8B</property>
  <property name="meta.attr.album.markup">Nursery</property>
  <property name="seekable">1</property>
  <property name="audio_index">0</property>
  <property name="video_index">-1</property>
  <property name="mute_on_pause">1</property>
  <property name="mlt_service">avformat</property>
  <property name="kdenlive:clipname"/>
  <property name="kdenlive:clip_type">1</property>
  <property name="kdenlive:folderid">275</property>
  <property name="kdenlive:id">277</property>
  <property name="kdenlive:file_size">58969790</property>
  <property name="kdenlive:file_hash">34c404ca0afe01b3d60971bed0578201</property>
  <property name="kdenlive:audio_max0">247</property>
 </producer>
 <producer id="producer214" in="00:00:00.000" out="00:03:42.833">
  <property name="length">13371</property>
  <property name="eof">pause</property>
  <property name="resource">audio/music/Nursery/The Callow */stems/01_The Callow_Rhodes.wav</property>
  <property name="meta.media.nb_streams">1</property>
  <property name="meta.media.0.stream.type">audio</property>
  <property name="meta.media.0.codec.sample_fmt">s32</property>
  <property name="meta.media.0.codec.sample_rate">44100</property>
  <property name="meta.media.0.codec.channels">2</property>
  <property name="meta.media.0.codec.name">pcm_s24le</property>
  <property name="meta.media.0.codec.long_name">PCM signed 24-bit little-endian</property>
  <property name="meta.media.0.codec.bit_rate">2116800</property>
  <property name="meta.attr.encoded_by.markup">Logic Pro X</property>
  <property name="meta.attr.date.markup">2016-09-20</property>
  <property name="meta.attr.creation_time.markup">19:13:53</property>
  <property name="meta.attr.time_reference.markup">158760000</property>
  <property name="meta.attr.umid.markup">0x00000000F227204F83D100C330BA3658FF7F000020C96205006000000000000000000000463485080100000070301476FF7F000060B23658FF7F00002AB5FC8B</property>
  <property name="seekable">1</property>
  <property name="audio_index">0</property>
  <property name="video_index">-1</property>
  <property name="mute_on_pause">1</property>
  <property name="mlt_service">avformat</property>
  <property name="kdenlive:clipname"/>
  <property name="kdenlive:clip_type">1</property>
  <property name="kdenlive:folderid">278</property>
  <property name="kdenlive:id">279</property>
  <property name="kdenlive:file_size">58968730</property>
  <property name="kdenlive:file_hash">202e4f3ce7a728660efe645ef3ac1b46</property>
  <property name="kdenlive:audio_max0">248</property>
 </producer>
 <producer id="producer215" in="00:00:00.000" out="00:03:42.833">
  <property name="length">13371</property>
  <property name="eof">pause</property>
  <property name="resource">audio/music/Nursery/The Callow */stems/02_The Callow_Electric Guitar.wav</property>
  <property name="meta.media.nb_streams">1</property>
  <property name="meta.media.0.stream.type">audio</property>
  <property name="meta.media.0.codec.sample_fmt">s32</property>
  <property name="meta.media.0.codec.sample_rate">44100</property>
  <property name="meta.media.0.codec.channels">2</property>
  <property name="meta.media.0.codec.name">pcm_s24le</property>
  <property name="meta.media.0.codec.long_name">PCM signed 24-bit little-endian</property>
  <property name="meta.media.0.codec.bit_rate">2116800</property>
  <property name="meta.attr.encoded_by.markup">Logic Pro X</property>
  <property name="meta.attr.date.markup">2016-09-20</property>
  <property name="meta.attr.creation_time.markup">19:13:16</property>
  <property name="meta.attr.time_reference.markup">158760000</property>
  <property name="meta.attr.umid.markup">0x00000000F227204F83D100C330BA3658FF7F0000E0DE4305006000000000000000000000463485080100000070301476FF7F000060B23658FF7F00002AB5FC8B</property>
  <property name="seekable">1</property>
  <property name="audio_index">0</property>
  <property name="video_index">-1</property>
  <property name="mute_on_pause">1</property>
  <property name="mlt_service">avformat</property>
  <property name="kdenlive:clipname"/>
  <property name="kdenlive:clip_type">1</property>
  <property name="kdenlive:folderid">278</property>
  <property name="kdenlive:id">280</property>
  <property name="kdenlive:file_size">58968730</property>
  <property name="kdenlive:file_hash">18d3ca473f07b87126eb5726bcc04f79</property>
  <property name="kdenlive:audio_max0">241</property>
 </producer>
 <producer id="producer216" in="00:00:00.000" out="00:03:42.833">
  <property name="length">13371</property>
  <property name="eof">pause</property>
  <property name="resource">audio/music/Nursery/The Callow */stems/03_The Callow_Tongue Drum.wav</property>
  <property name="meta.media.nb_streams">1</property>
  <property name="meta.media.0.stream.type">audio</property>
  <property name="meta.media.0.codec.sample_fmt">s32</property>
  <property name="meta.media.0.codec.sample_rate">44100</property>
  <property name="meta.media.0.codec.channels">2</property>
  <property name="meta.media.0.codec.name">pcm_s24le</property>
  <property name="meta.media.0.codec.long_name">PCM signed 24-bit little-endian</property>
  <property name="meta.media.0.codec.bit_rate">2116800</property>
  <property name="meta.attr.encoded_by.markup">Logic Pro X</property>
  <property name="meta.attr.date.markup">2016-09-20</property>
  <property name="meta.attr.creation_time.markup">19:12:39</property>
  <property name="meta.attr.time_reference.markup">158760000</property>
  <property name="meta.attr.umid.markup">0x00000000F227204F83D100C330BA3658FF7F000020266205006000000000000000000000463485080100000070301476FF7F000060B23658FF7F00002AB5FC8B</property>
  <property name="seekable">1</property>
  <property name="audio_index">0</property>
  <property name="video_index">-1</property>
  <property name="mute_on_pause">1</property>
  <property name="mlt_service">avformat</property>
  <property name="kdenlive:clipname"/>
  <property name="kdenlive:clip_type">1</property>
  <property name="kdenlive:folderid">278</property>
  <property name="kdenlive:id">281</property>
  <property name="kdenlive:file_size">58968730</property>
  <property name="kdenlive:file_hash">5cea50ba68e1270622ce9eb96195d440</property>
  <property name="kdenlive:audio_max0">237</property>
 </producer>
 <producer id="producer217" in="00:00:00.000" out="00:03:42.833">
  <property name="length">13371</property>
  <property name="eof">pause</property>
  <property name="resource">audio/music/Nursery/The Callow */stems/04_The Callow_Percussion.wav</property>
  <property name="meta.media.nb_streams">1</property>
  <property name="meta.media.0.stream.type">audio</property>
  <property name="meta.media.0.codec.sample_fmt">s32</property>
  <property name="meta.media.0.codec.sample_rate">44100</property>
  <property name="meta.media.0.codec.channels">2</property>
  <property name="meta.media.0.codec.name">pcm_s24le</property>
  <property name="meta.media.0.codec.long_name">PCM signed 24-bit little-endian</property>
  <property name="meta.media.0.codec.bit_rate">2116800</property>
  <property name="meta.attr.encoded_by.markup">Logic Pro X</property>
  <property name="meta.attr.date.markup">2016-09-20</property>
  <property name="meta.attr.creation_time.markup">19:12:05</property>
  <property name="meta.attr.time_reference.markup">158760000</property>
  <property name="meta.attr.umid.markup">0x00000000F227204F83D100C330BA3658FF7F000020EB0304806000000000000000000000463485080100000070301476FF7F000060B23658FF7F00002AB5FC8B</property>
  <property name="seekable">1</property>
  <property name="audio_index">0</property>
  <property name="video_index">-1</property>
  <property name="mute_on_pause">1</property>
  <property name="mlt_service">avformat</property>
  <property name="kdenlive:clipname"/>
  <property name="kdenlive:clip_type">1</property>
  <property name="kdenlive:folderid">278</property>
  <property name="kdenlive:id">282</property>
  <property name="kdenlive:file_size">58968730</property>
  <property name="kdenlive:file_hash">5e4d3b6d4bc110750988e3cc045342f7</property>
  <property name="kdenlive:audio_max0">249</property>
 </producer>
 <producer id="producer218" in="00:00:00.000" out="00:03:42.833">
  <property name="length">13371</property>
  <property name="eof">pause</property>
  <property name="resource">audio/music/Nursery/The Callow */stems/05_The Callow_Rhodia SynPad.wav</property>
  <property name="meta.media.nb_streams">1</property>
  <property name="meta.media.0.stream.type">audio</property>
  <property name="meta.media.0.codec.sample_fmt">s32</property>
  <property name="meta.media.0.codec.sample_rate">44100</property>
  <property name="meta.media.0.codec.channels">2</property>
  <property name="meta.media.0.codec.name">pcm_s24le</property>
  <property name="meta.media.0.codec.long_name">PCM signed 24-bit little-endian</property>
  <property name="meta.media.0.codec.bit_rate">2116800</property>
  <property name="meta.attr.encoded_by.markup">Logic Pro X</property>
  <property name="meta.attr.date.markup">2016-09-20</property>
  <property name="meta.attr.creation_time.markup">19:11:27</property>
  <property name="meta.attr.time_reference.markup">158760000</property>
  <property name="meta.attr.umid.markup">0x00000000F227204F83D100C330BA3658FF7F0000E01C6205006000000000000000000000463485080100000070301476FF7F000060B23658FF7F00002AB5FC8B</property>
  <property name="seekable">1</property>
  <property name="audio_index">0</property>
  <property name="video_index">-1</property>
  <property name="mute_on_pause">1</property>
  <property name="mlt_service">avformat</property>
  <property name="kdenlive:clipname"/>
  <property name="kdenlive:clip_type">1</property>
  <property name="kdenlive:folderid">278</property>
  <property name="kdenlive:id">283</property>
  <property name="kdenlive:file_size">58968730</property>
  <property name="kdenlive:file_hash">2e974032e8b92703bf20c4fb66793216</property>
  <property name="kdenlive:audio_max0">187</property>
 </producer>
 <producer id="producer219" in="00:00:00.000" out="00:03:20.783">
  <property name="length">12048</property>
  <property name="eof">pause</property>
  <property name="resource">audio/music/Nursery/ZigZag Heart */ZigZag Heart | Meditative.wav</property>
  <property name="meta.media.nb_streams">1</property>
  <property name="meta.media.0.stream.type">audio</property>
  <property name="meta.media.0.codec.sample_fmt">s32</property>
  <property name="meta.media.0.codec.sample_rate">44100</property>
  <property name="meta.media.0.codec.channels">2</property>
  <property name="meta.media.0.codec.name">pcm_s24le</property>
  <property name="meta.media.0.codec.long_name">PCM signed 24-bit little-endian</property>
  <property name="meta.media.0.codec.bit_rate">2116800</property>
  <property name="meta.attr.encoded_by.markup">Logic Pro X</property>
  <property name="meta.attr.date.markup">2018-02-10</property>
  <property name="meta.attr.creation_time.markup">15:12:20</property>
  <property name="meta.attr.time_reference.markup">159114345</property>
  <property name="meta.attr.umid.markup">0x00000000000000000000000000000000000000000000000000000000CC00889B81DD1CCBD0118AEEFE7F00005006A4020100000010128AEEFE7F00003D96E469</property>
  <property name="meta.attr.album.markup">Nursery</property>
  <property name="seekable">1</property>
  <property name="audio_index">0</property>
  <property name="video_index">-1</property>
  <property name="mute_on_pause">1</property>
  <property name="mlt_service">avformat</property>
  <property name="kdenlive:clipname"/>
  <property name="kdenlive:clip_type">1</property>
  <property name="kdenlive:folderid">284</property>
  <property name="kdenlive:id">285</property>
  <property name="kdenlive:file_size">53132484</property>
  <property name="kdenlive:file_hash">1216b145a55fabb8721baab8f416057b</property>
  <property name="kdenlive:audio_max0">232</property>
 </producer>
 <producer id="producer220" in="00:00:00.000" out="00:02:54.650">
  <property name="length">10480</property>
  <property name="eof">pause</property>
  <property name="resource">audio/music/Nursery/ZigZag Heart */ZigZag Heart.wav</property>
  <property name="meta.media.nb_streams">1</property>
  <property name="meta.media.0.stream.type">audio</property>
  <property name="meta.media.0.codec.sample_fmt">s32</property>
  <property name="meta.media.0.codec.sample_rate">44100</property>
  <property name="meta.media.0.codec.channels">2</property>
  <property name="meta.media.0.codec.name">pcm_s24le</property>
  <property name="meta.media.0.codec.long_name">PCM signed 24-bit little-endian</property>
  <property name="meta.media.0.codec.bit_rate">2116800</property>
  <property name="meta.attr.encoded_by.markup">Logic Pro X</property>
  <property name="meta.attr.date.markup">2018-02-10</property>
  <property name="meta.attr.creation_time.markup">14:28:37</property>
  <property name="meta.attr.time_reference.markup">159054000</property>
  <property name="meta.attr.umid.markup">0x00000000000000000000000000000000000000000000000000000000CC00889B81DD1CCBD0118AEEFE7F00005006A4020100000010128AEEFE7F00003D96E469</property>
  <property name="meta.attr.album.markup">Nursery</property>
  <property name="seekable">1</property>
  <property name="audio_index">0</property>
  <property name="video_index">-1</property>
  <property name="mute_on_pause">1</property>
  <property name="mlt_service">avformat</property>
  <property name="kdenlive:clipname"/>
  <property name="kdenlive:clip_type">1</property>
  <property name="kdenlive:folderid">284</property>
  <property name="kdenlive:id">286</property>
  <property name="kdenlive:file_size">46218624</property>
  <property name="kdenlive:file_hash">9137c81ef446c9ef011971e626b387dd</property>
  <property name="kdenlive:audio_max0">231</property>
 </producer>
 <producer id="producer221" in="00:00:00.000" out="00:02:54.650">
  <property name="length">10480</property>
  <property name="eof">pause</property>
  <property name="resource">audio/music/Nursery/ZigZag Heart */stems/01_ZigZag Heart_Tongue Drum.wav</property>
  <property name="meta.media.nb_streams">1</property>
  <property name="meta.media.0.stream.type">audio</property>
  <property name="meta.media.0.codec.sample_fmt">s32</property>
  <property name="meta.media.0.codec.sample_rate">44100</property>
  <property name="meta.media.0.codec.channels">2</property>
  <property name="meta.media.0.codec.name">pcm_s24le</property>
  <property name="meta.media.0.codec.long_name">PCM signed 24-bit little-endian</property>
  <property name="meta.media.0.codec.bit_rate">2116800</property>
  <property name="meta.attr.encoded_by.markup">Logic Pro X</property>
  <property name="meta.attr.date.markup">2018-02-10</property>
  <property name="meta.attr.creation_time.markup">14:58:28</property>
  <property name="meta.attr.time_reference.markup">159054000</property>
  <property name="meta.attr.umid.markup">0x00000000000000000000000000000000000000000000000000000000CC00889B81DD1CCB604E8AEEFE7F00005006A40201000000A04E8AEEFE7F00003D96E469</property>
  <property name="seekable">1</property>
  <property name="audio_index">0</property>
  <property name="video_index">-1</property>
  <property name="mute_on_pause">1</property>
  <property name="mlt_service">avformat</property>
  <property name="kdenlive:clipname"/>
  <property name="kdenlive:clip_type">1</property>
  <property name="kdenlive:folderid">287</property>
  <property name="kdenlive:id">288</property>
  <property name="kdenlive:file_size">46277760</property>
  <property name="kdenlive:file_hash">cf747a2254ce2fdf85f70c15c3e88dad</property>
  <property name="kdenlive:audio_max0">119</property>
 </producer>
 <producer id="producer222" in="00:00:00.000" out="00:02:54.650">
  <property name="length">10480</property>
  <property name="eof">pause</property>
  <property name="resource">audio/music/Nursery/ZigZag Heart */stems/02_ZigZag Heart_Tongue Drum.wav</property>
  <property name="meta.media.nb_streams">1</property>
  <property name="meta.media.0.stream.type">audio</property>
  <property name="meta.media.0.codec.sample_fmt">s32</property>
  <property name="meta.media.0.codec.sample_rate">44100</property>
  <property name="meta.media.0.codec.channels">2</property>
  <property name="meta.media.0.codec.name">pcm_s24le</property>
  <property name="meta.media.0.codec.long_name">PCM signed 24-bit little-endian</property>
  <property name="meta.media.0.codec.bit_rate">2116800</property>
  <property name="meta.attr.encoded_by.markup">Logic Pro X</property>
  <property name="meta.attr.date.markup">2018-02-10</property>
  <property name="meta.attr.creation_time.markup">14:58:34</property>
  <property name="meta.attr.time_reference.markup">159054000</property>
  <property name="meta.attr.umid.markup">0x00000000000000000000000000000000000000000000000000000000CC00889B81DD1CCB604E8AEEFE7F00005006A40201000000A04E8AEEFE7F00003D96E469</property>
  <property name="seekable">1</property>
  <property name="audio_index">0</property>
  <property name="video_index">-1</property>
  <property name="mute_on_pause">1</property>
  <property name="mlt_service">avformat</property>
  <property name="kdenlive:clipname"/>
  <property name="kdenlive:clip_type">1</property>
  <property name="kdenlive:folderid">287</property>
  <property name="kdenlive:id">289</property>
  <property name="kdenlive:file_size">46277760</property>
  <property name="kdenlive:file_hash">73958992ea77aca46bc33ac934be712e</property>
  <property name="kdenlive:audio_max0">127</property>
 </producer>
 <producer id="producer223" in="00:00:00.000" out="00:02:54.650">
  <property name="length">10480</property>
  <property name="eof">pause</property>
  <property name="resource">audio/music/Nursery/ZigZag Heart */stems/03_ZigZag Heart_Rhodes.wav</property>
  <property name="meta.media.nb_streams">1</property>
  <property name="meta.media.0.stream.type">audio</property>
  <property name="meta.media.0.codec.sample_fmt">s32</property>
  <property name="meta.media.0.codec.sample_rate">44100</property>
  <property name="meta.media.0.codec.channels">2</property>
  <property name="meta.media.0.codec.name">pcm_s24le</property>
  <property name="meta.media.0.codec.long_name">PCM signed 24-bit little-endian</property>
  <property name="meta.media.0.codec.bit_rate">2116800</property>
  <property name="meta.attr.encoded_by.markup">Logic Pro X</property>
  <property name="meta.attr.date.markup">2018-02-10</property>
  <property name="meta.attr.creation_time.markup">14:58:44</property>
  <property name="meta.attr.time_reference.markup">159054000</property>
  <property name="meta.attr.umid.markup">0x00000000000000000000000000000000000000000000000000000000CC00889B81DD1CCB604E8AEEFE7F00005006A40201000000A04E8AEEFE7F00003D96E469</property>
  <property name="seekable">1</property>
  <property name="audio_index">0</property>
  <property name="video_index">-1</property>
  <property name="mute_on_pause">1</property>
  <property name="mlt_service">avformat</property>
  <property name="kdenlive:clipname"/>
  <property name="kdenlive:clip_type">1</property>
  <property name="kdenlive:folderid">287</property>
  <property name="kdenlive:id">290</property>
  <property name="kdenlive:file_size">46277760</property>
  <property name="kdenlive:file_hash">067281467fe0be0f9f263f80174a2522</property>
  <property name="kdenlive:audio_max0">157</property>
 </producer>
 <producer id="producer224" in="00:00:00.000" out="00:02:54.650">
  <property name="length">10480</property>
  <property name="eof">pause</property>
  <property name="resource">audio/music/Nursery/ZigZag Heart */stems/04_ZigZag Heart_Tongue Drum.wav</property>
  <property name="meta.media.nb_streams">1</property>
  <property name="meta.media.0.stream.type">audio</property>
  <property name="meta.media.0.codec.sample_fmt">s32</property>
  <property name="meta.media.0.codec.sample_rate">44100</property>
  <property name="meta.media.0.codec.channels">2</property>
  <property name="meta.media.0.codec.name">pcm_s24le</property>
  <property name="meta.media.0.codec.long_name">PCM signed 24-bit little-endian</property>
  <property name="meta.media.0.codec.bit_rate">2116800</property>
  <property name="meta.attr.encoded_by.markup">Logic Pro X</property>
  <property name="meta.attr.date.markup">2018-02-10</property>
  <property name="meta.attr.creation_time.markup">14:58:40</property>
  <property name="meta.attr.time_reference.markup">159054000</property>
  <property name="meta.attr.umid.markup">0x00000000000000000000000000000000000000000000000000000000CC00889B81DD1CCB604E8AEEFE7F00005006A40201000000A04E8AEEFE7F00003D96E469</property>
  <property name="seekable">1</property>
  <property name="audio_index">0</property>
  <property name="video_index">-1</property>
  <property name="mute_on_pause">1</property>
  <property name="mlt_service">avformat</property>
  <property name="kdenlive:clipname"/>
  <property name="kdenlive:clip_type">1</property>
  <property name="kdenlive:folderid">287</property>
  <property name="kdenlive:id">291</property>
  <property name="kdenlive:file_size">46277760</property>
  <property name="kdenlive:file_hash">5634ed52e328baf9c4074ad068a14c63</property>
  <property name="kdenlive:audio_max0">163</property>
 </producer>
 <producer id="producer225" in="00:00:00.000" out="00:02:54.650">
  <property name="length">10480</property>
  <property name="eof">pause</property>
  <property name="resource">audio/music/Nursery/ZigZag Heart */stems/05_ZigZag Heart_Tongue Drum.wav</property>
  <property name="meta.media.nb_streams">1</property>
  <property name="meta.media.0.stream.type">audio</property>
  <property name="meta.media.0.codec.sample_fmt">s32</property>
  <property name="meta.media.0.codec.sample_rate">44100</property>
  <property name="meta.media.0.codec.channels">2</property>
  <property name="meta.media.0.codec.name">pcm_s24le</property>
  <property name="meta.media.0.codec.long_name">PCM signed 24-bit little-endian</property>
  <property name="meta.media.0.codec.bit_rate">2116800</property>
  <property name="meta.attr.encoded_by.markup">Logic Pro X</property>
  <property name="meta.attr.date.markup">2018-02-10</property>
  <property name="meta.attr.creation_time.markup">14:58:37</property>
  <property name="meta.attr.time_reference.markup">159054000</property>
  <property name="meta.attr.umid.markup">0x00000000000000000000000000000000000000000000000000000000CC00889B81DD1CCB604E8AEEFE7F00005006A40201000000A04E8AEEFE7F00003D96E469</property>
  <property name="seekable">1</property>
  <property name="audio_index">0</property>
  <property name="video_index">-1</property>
  <property name="mute_on_pause">1</property>
  <property name="mlt_service">avformat</property>
  <property name="kdenlive:clipname"/>
  <property name="kdenlive:clip_type">1</property>
  <property name="kdenlive:folderid">287</property>
  <property name="kdenlive:id">292</property>
  <property name="kdenlive:file_size">46277760</property>
  <property name="kdenlive:file_hash">bef804d54d8c038ebaff452efe6dc94e</property>
  <property name="kdenlive:audio_max0">121</property>
 </producer>
 <producer id="producer226" in="00:00:00.000" out="00:02:54.650">
  <property name="length">10480</property>
  <property name="eof">pause</property>
  <property name="resource">audio/music/Nursery/ZigZag Heart */stems/06_ZigZag Heart_Percussion.wav</property>
  <property name="meta.media.nb_streams">1</property>
  <property name="meta.media.0.stream.type">audio</property>
  <property name="meta.media.0.codec.sample_fmt">s32</property>
  <property name="meta.media.0.codec.sample_rate">44100</property>
  <property name="meta.media.0.codec.channels">2</property>
  <property name="meta.media.0.codec.name">pcm_s24le</property>
  <property name="meta.media.0.codec.long_name">PCM signed 24-bit little-endian</property>
  <property name="meta.media.0.codec.bit_rate">2116800</property>
  <property name="meta.attr.encoded_by.markup">Logic Pro X</property>
  <property name="meta.attr.date.markup">2018-02-10</property>
  <property name="meta.attr.creation_time.markup">14:58:31</property>
  <property name="meta.attr.time_reference.markup">159054000</property>
  <property name="meta.attr.umid.markup">0x00000000000000000000000000000000000000000000000000000000CC00889B81DD1CCB604E8AEEFE7F00005006A40201000000A04E8AEEFE7F00003D96E469</property>
  <property name="seekable">1</property>
  <property name="audio_index">0</property>
  <property name="video_index">-1</property>
  <property name="mute_on_pause">1</property>
  <property name="mlt_service">avformat</property>
  <property name="kdenlive:clipname"/>
  <property name="kdenlive:clip_type">1</property>
  <property name="kdenlive:folderid">287</property>
  <property name="kdenlive:id">293</property>
  <property name="kdenlive:file_size">46277760</property>
  <property name="kdenlive:file_hash">64ee279fe344b13413bff8836628d7e6</property>
  <property name="kdenlive:audio_max0">120</property>
 </producer>
 <producer id="producer227" in="00:00:00.000" out="00:00:34.850">
  <property name="length">2092</property>
  <property name="eof">pause</property>
  <property name="resource">audio/music/Nursery/ZigZag Heart */variations/ZigZag Heart | 30 Sec Mbira.wav</property>
  <property name="meta.media.nb_streams">1</property>
  <property name="meta.media.0.stream.type">audio</property>
  <property name="meta.media.0.codec.sample_fmt">s32</property>
  <property name="meta.media.0.codec.sample_rate">44100</property>
  <property name="meta.media.0.codec.channels">2</property>
  <property name="meta.media.0.codec.name">pcm_s24le</property>
  <property name="meta.media.0.codec.long_name">PCM signed 24-bit little-endian</property>
  <property name="meta.media.0.codec.bit_rate">2116800</property>
  <property name="meta.attr.encoded_by.markup">Logic Pro X</property>
  <property name="meta.attr.date.markup">2018-02-10</property>
  <property name="meta.attr.creation_time.markup">15:06:44</property>
  <property name="meta.attr.time_reference.markup">165101545</property>
  <property name="meta.attr.umid.markup">0x00000000000000000000000000000000000000000000000000000000CC00889B81DD1CCBD0118AEEFE7F00005006A4020100000010128AEEFE7F00003D96E469</property>
  <property name="meta.attr.album.markup">Nursery</property>
  <property name="seekable">1</property>
  <property name="audio_index">0</property>
  <property name="video_index">-1</property>
  <property name="mute_on_pause">1</property>
  <property name="mlt_service">avformat</property>
  <property name="kdenlive:clipname"/>
  <property name="kdenlive:clip_type">1</property>
  <property name="kdenlive:folderid">294</property>
  <property name="kdenlive:id">295</property>
  <property name="kdenlive:file_size">9227754</property>
  <property name="kdenlive:file_hash">657035ba312c4bc1b61c4f3f8a79bf8e</property>
  <property name="kdenlive:audio_max0">216</property>
 </producer>
 <producer id="producer228" in="00:00:00.000" out="00:00:34.850">
  <property name="length">2092</property>
  <property name="eof">pause</property>
  <property name="resource">audio/music/Nursery/ZigZag Heart */variations/ZigZag Heart | 30 Sec Simple.wav</property>
  <property name="meta.media.nb_streams">1</property>
  <property name="meta.media.0.stream.type">audio</property>
  <property name="meta.media.0.codec.sample_fmt">s32</property>
  <property name="meta.media.0.codec.sample_rate">44100</property>
  <property name="meta.media.0.codec.channels">2</property>
  <property name="meta.media.0.codec.name">pcm_s24le</property>
  <property name="meta.media.0.codec.long_name">PCM signed 24-bit little-endian</property>
  <property name="meta.media.0.codec.bit_rate">2116800</property>
  <property name="meta.attr.encoded_by.markup">Logic Pro X</property>
  <property name="meta.attr.date.markup">2018-02-10</property>
  <property name="meta.attr.creation_time.markup">15:05:35</property>
  <property name="meta.attr.time_reference.markup">165101545</property>
  <property name="meta.attr.umid.markup">0x00000000000000000000000000000000000000000000000000000000CC00889B81DD1CCBD0118AEEFE7F00005006A4020100000010128AEEFE7F00003D96E469</property>
  <property name="meta.attr.album.markup">Nursery</property>
  <property name="seekable">1</property>
  <property name="audio_index">0</property>
  <property name="video_index">-1</property>
  <property name="mute_on_pause">1</property>
  <property name="mlt_service">avformat</property>
  <property name="kdenlive:clipname"/>
  <property name="kdenlive:clip_type">1</property>
  <property name="kdenlive:folderid">294</property>
  <property name="kdenlive:id">296</property>
  <property name="kdenlive:file_size">9227754</property>
  <property name="kdenlive:file_hash">3d03dab9bb5a2708f7b645d85fe82a57</property>
  <property name="kdenlive:audio_max0">219</property>
 </producer>
 <producer id="producer229" in="00:00:00.000" out="00:02:54.450">
  <property name="length">10468</property>
  <property name="eof">pause</property>
  <property name="resource">audio/music/Nursery/ZigZag Heart */variations/ZigZag Heart | Atmo.wav</property>
  <property name="meta.media.nb_streams">1</property>
  <property name="meta.media.0.stream.type">audio</property>
  <property name="meta.media.0.codec.sample_fmt">s32</property>
  <property name="meta.media.0.codec.sample_rate">44100</property>
  <property name="meta.media.0.codec.channels">2</property>
  <property name="meta.media.0.codec.name">pcm_s24le</property>
  <property name="meta.media.0.codec.long_name">PCM signed 24-bit little-endian</property>
  <property name="meta.media.0.codec.bit_rate">2116800</property>
  <property name="meta.attr.encoded_by.markup">Logic Pro X</property>
  <property name="meta.attr.date.markup">2018-02-10</property>
  <property name="meta.attr.creation_time.markup">15:00:51</property>
  <property name="meta.attr.time_reference.markup">159063161</property>
  <property name="meta.attr.umid.markup">0x00000000000000000000000000000000000000000000000000000000CC00889B81DD1CCBD0118AEEFE7F00005006A4020100000010128AEEFE7F00003D96E469</property>
  <property name="meta.attr.album.markup">Nursery</property>
  <property name="seekable">1</property>
  <property name="audio_index">0</property>
  <property name="video_index">-1</property>
  <property name="mute_on_pause">1</property>
  <property name="mlt_service">avformat</property>
  <property name="kdenlive:clipname"/>
  <property name="kdenlive:clip_type">1</property>
  <property name="kdenlive:folderid">294</property>
  <property name="kdenlive:id">297</property>
  <property name="kdenlive:file_size">46163658</property>
  <property name="kdenlive:file_hash">09440f67d0d1705c06ff76316e09ba16</property>
  <property name="kdenlive:audio_max0">237</property>
 </producer>
 <producer id="producer231" in="00:00:00.000" out="00:02:50.950">
  <property name="length">10258</property>
  <property name="eof">pause</property>
  <property name="resource">audio/music/Nursery/ZigZag Heart */variations/ZigZag Heart | Junk Rhythm.wav</property>
  <property name="meta.media.nb_streams">1</property>
  <property name="meta.media.0.stream.type">audio</property>
  <property name="meta.media.0.codec.sample_fmt">s32</property>
  <property name="meta.media.0.codec.sample_rate">44100</property>
  <property name="meta.media.0.codec.channels">2</property>
  <property name="meta.media.0.codec.name">pcm_s24le</property>
  <property name="meta.media.0.codec.long_name">PCM signed 24-bit little-endian</property>
  <property name="meta.media.0.codec.bit_rate">2116800</property>
  <property name="meta.attr.encoded_by.markup">Logic Pro X</property>
  <property name="meta.attr.date.markup">2018-02-10</property>
  <property name="meta.attr.creation_time.markup">15:00:06</property>
  <property name="meta.attr.time_reference.markup">159217227</property>
  <property name="meta.attr.umid.markup">0x00000000000000000000000000000000000000000000000000000000CC00889B81DD1CCBD0118AEEFE7F00005006A4020100000010128AEEFE7F00003D96E469</property>
  <property name="meta.attr.album.markup">Nursery</property>
  <property name="seekable">1</property>
  <property name="audio_index">0</property>
  <property name="video_index">-1</property>
  <property name="mute_on_pause">1</property>
  <property name="mlt_service">avformat</property>
  <property name="kdenlive:clipname"/>
  <property name="kdenlive:clip_type">1</property>
  <property name="kdenlive:folderid">294</property>
  <property name="kdenlive:id">298</property>
  <property name="kdenlive:file_size">45239262</property>
  <property name="kdenlive:file_hash">463c569704a4d55ffa6fa298e0f669b2</property>
  <property name="kdenlive:audio_max0">228</property>
 </producer>
 <producer id="producer230" in="00:00:00.000" out="00:02:21.833">
  <property name="length">8511</property>
  <property name="eof">pause</property>
  <property name="resource">audio/music/Nursery/ZigZag Heart */variations/ZigZag Heart | Low Pacer.wav</property>
  <property name="meta.media.nb_streams">1</property>
  <property name="meta.media.0.stream.type">audio</property>
  <property name="meta.media.0.codec.sample_fmt">s32</property>
  <property name="meta.media.0.codec.sample_rate">44100</property>
  <property name="meta.media.0.codec.channels">2</property>
  <property name="meta.media.0.codec.name">pcm_s24le</property>
  <property name="meta.media.0.codec.long_name">PCM signed 24-bit little-endian</property>
  <property name="meta.media.0.codec.bit_rate">2116800</property>
  <property name="meta.attr.encoded_by.markup">Logic Pro X</property>
  <property name="meta.attr.date.markup">2018-02-10</property>
  <property name="meta.attr.creation_time.markup">15:16:53</property>
  <property name="meta.attr.time_reference.markup">159010317</property>
  <property name="meta.attr.umid.markup">0x00000000000000000000000000000000000000000000000000000000CC00889B81DD1CCBD0118AEEFE7F00005006A4020100000010128AEEFE7F00003D96E469</property>
  <property name="meta.attr.album.markup">Nursery</property>
  <property name="seekable">1</property>
  <property name="audio_index">0</property>
  <property name="video_index">-1</property>
  <property name="mute_on_pause">1</property>
  <property name="mlt_service">avformat</property>
  <property name="kdenlive:clipname"/>
  <property name="kdenlive:clip_type">1</property>
  <property name="kdenlive:folderid">294</property>
  <property name="kdenlive:id">299</property>
  <property name="kdenlive:file_size">37534490</property>
  <property name="kdenlive:file_hash">76b5d599c98f915107c37f8c363b1302</property>
  <property name="kdenlive:audio_max0">236</property>
 </producer>
 <producer id="producer232" in="00:00:00.000" out="00:02:21.833">
  <property name="length">8511</property>
  <property name="eof">pause</property>
  <property name="resource">audio/music/Nursery/ZigZag Heart */variations/ZigZag Heart | Lowboy.wav</property>
  <property name="meta.media.nb_streams">1</property>
  <property name="meta.media.0.stream.type">audio</property>
  <property name="meta.media.0.codec.sample_fmt">s32</property>
  <property name="meta.media.0.codec.sample_rate">44100</property>
  <property name="meta.media.0.codec.channels">2</property>
  <property name="meta.media.0.codec.name">pcm_s24le</property>
  <property name="meta.media.0.codec.long_name">PCM signed 24-bit little-endian</property>
  <property name="meta.media.0.codec.bit_rate">2116800</property>
  <property name="meta.attr.encoded_by.markup">Logic Pro X</property>
  <property name="meta.attr.date.markup">2018-02-10</property>
  <property name="meta.attr.creation_time.markup">15:14:13</property>
  <property name="meta.attr.time_reference.markup">159010317</property>
  <property name="meta.attr.umid.markup">0x00000000000000000000000000000000000000000000000000000000CC00889B81DD1CCBD0118AEEFE7F00005006A4020100000010128AEEFE7F00003D96E469</property>
  <property name="meta.attr.album.markup">Nursery</property>
  <property name="seekable">1</property>
  <property name="audio_index">0</property>
  <property name="video_index">-1</property>
  <property name="mute_on_pause">1</property>
  <property name="mlt_service">avformat</property>
  <property name="kdenlive:clipname"/>
  <property name="kdenlive:clip_type">1</property>
  <property name="kdenlive:folderid">294</property>
  <property name="kdenlive:id">300</property>
  <property name="kdenlive:file_size">37534490</property>
  <property name="kdenlive:file_hash">501c60d9d532bc49d8ac25b6a3dc2cee</property>
  <property name="kdenlive:audio_max0">236</property>
 </producer>
 <producer id="producer235" in="00:00:00.000" out="00:01:46.833">
  <property name="length">6411</property>
  <property name="eof">pause</property>
  <property name="resource">audio/music/Nursery/ZigZag Heart */variations/ZigZag Heart | Mbira Lead.wav</property>
  <property name="meta.media.nb_streams">1</property>
  <property name="meta.media.0.stream.type">audio</property>
  <property name="meta.media.0.codec.sample_fmt">s32</property>
  <property name="meta.media.0.codec.sample_rate">44100</property>
  <property name="meta.media.0.codec.channels">2</property>
  <property name="meta.media.0.codec.name">pcm_s24le</property>
  <property name="meta.media.0.codec.long_name">PCM signed 24-bit little-endian</property>
  <property name="meta.media.0.codec.bit_rate">2116800</property>
  <property name="meta.attr.encoded_by.markup">Logic Pro X</property>
  <property name="meta.attr.date.markup">2018-02-10</property>
  <property name="meta.attr.creation_time.markup">15:03:37</property>
  <property name="meta.attr.time_reference.markup">162045079</property>
  <property name="meta.attr.umid.markup">0x00000000000000000000000000000000000000000000000000000000CC00889B81DD1CCBD0118AEEFE7F00005006A4020100000010128AEEFE7F00003D96E469</property>
  <property name="meta.attr.album.markup">Nursery</property>
  <property name="seekable">1</property>
  <property name="audio_index">0</property>
  <property name="video_index">-1</property>
  <property name="mute_on_pause">1</property>
  <property name="mlt_service">avformat</property>
  <property name="kdenlive:clipname"/>
  <property name="kdenlive:clip_type">1</property>
  <property name="kdenlive:folderid">294</property>
  <property name="kdenlive:id">301</property>
  <property name="kdenlive:file_size">28272150</property>
  <property name="kdenlive:file_hash">15963db494fc7bd2be585cc6d46def4f</property>
  <property name="kdenlive:audio_max0">229</property>
 </producer>
 <producer id="producer233" in="00:00:00.000" out="00:01:42.650">
  <property name="length">6160</property>
  <property name="eof">pause</property>
  <property name="resource">audio/music/Nursery/ZigZag Heart */variations/ZigZag Heart | Mbira Melody.wav</property>
  <property name="meta.media.nb_streams">1</property>
  <property name="meta.media.0.stream.type">audio</property>
  <property name="meta.media.0.codec.sample_fmt">s32</property>
  <property name="meta.media.0.codec.sample_rate">44100</property>
  <property name="meta.media.0.codec.channels">2</property>
  <property name="meta.media.0.codec.name">pcm_s24le</property>
  <property name="meta.media.0.codec.long_name">PCM signed 24-bit little-endian</property>
  <property name="meta.media.0.codec.bit_rate">2116800</property>
  <property name="meta.attr.encoded_by.markup">Logic Pro X</property>
  <property name="meta.attr.date.markup">2018-02-10</property>
  <property name="meta.attr.creation_time.markup">15:04:35</property>
  <property name="meta.attr.time_reference.markup">162111600</property>
  <property name="meta.attr.umid.markup">0x00000000000000000000000000000000000000000000000000000000CC00889B81DD1CCBD0118AEEFE7F00005006A4020100000010128AEEFE7F00003D96E469</property>
  <property name="meta.attr.album.markup">Nursery</property>
  <property name="seekable">1</property>
  <property name="audio_index">0</property>
  <property name="video_index">-1</property>
  <property name="mute_on_pause">1</property>
  <property name="mlt_service">avformat</property>
  <property name="kdenlive:clipname"/>
  <property name="kdenlive:clip_type">1</property>
  <property name="kdenlive:folderid">294</property>
  <property name="kdenlive:id">302</property>
  <property name="kdenlive:file_size">27167424</property>
  <property name="kdenlive:file_hash">5f274d5f7c14ce8f05fc570e1ea1c9a7</property>
  <property name="kdenlive:audio_max0">234</property>
 </producer>
 <producer id="producer234" in="00:00:00.000" out="00:03:20.783">
  <property name="length">12048</property>
  <property name="eof">pause</property>
  <property name="resource">audio/music/Nursery/ZigZag Heart */variations/ZigZag Heart | Meditative.wav</property>
  <property name="meta.media.nb_streams">1</property>
  <property name="meta.media.0.stream.type">audio</property>
  <property name="meta.media.0.codec.sample_fmt">s32</property>
  <property name="meta.media.0.codec.sample_rate">44100</property>
  <property name="meta.media.0.codec.channels">2</property>
  <property name="meta.media.0.codec.name">pcm_s24le</property>
  <property name="meta.media.0.codec.long_name">PCM signed 24-bit little-endian</property>
  <property name="meta.media.0.codec.bit_rate">2116800</property>
  <property name="meta.attr.encoded_by.markup">Logic Pro X</property>
  <property name="meta.attr.date.markup">2018-02-10</property>
  <property name="meta.attr.creation_time.markup">15:12:20</property>
  <property name="meta.attr.time_reference.markup">159114345</property>
  <property name="meta.attr.umid.markup">0x00000000000000000000000000000000000000000000000000000000CC00889B81DD1CCBD0118AEEFE7F00005006A4020100000010128AEEFE7F00003D96E469</property>
  <property name="meta.attr.album.markup">Nursery</property>
  <property name="seekable">1</property>
  <property name="audio_index">0</property>
  <property name="video_index">-1</property>
  <property name="mute_on_pause">1</property>
  <property name="mlt_service">avformat</property>
  <property name="kdenlive:clipname"/>
  <property name="kdenlive:clip_type">1</property>
  <property name="kdenlive:folderid">294</property>
  <property name="kdenlive:id">303</property>
  <property name="kdenlive:file_size">53132484</property>
  <property name="kdenlive:file_hash">1216b145a55fabb8721baab8f416057b</property>
 </producer>
 <producer id="producer236" in="00:00:00.000" out="00:02:17.033">
  <property name="length">8223</property>
  <property name="eof">pause</property>
  <property name="resource">audio/music/Nursery/ZigZag Heart */variations/ZigZag Heart | Spacey Rhodes.wav</property>
  <property name="meta.media.nb_streams">1</property>
  <property name="meta.media.0.stream.type">audio</property>
  <property name="meta.media.0.codec.sample_fmt">s32</property>
  <property name="meta.media.0.codec.sample_rate">44100</property>
  <property name="meta.media.0.codec.channels">2</property>
  <property name="meta.media.0.codec.name">pcm_s24le</property>
  <property name="meta.media.0.codec.long_name">PCM signed 24-bit little-endian</property>
  <property name="meta.media.0.codec.bit_rate">2116800</property>
  <property name="meta.attr.encoded_by.markup">Logic Pro X</property>
  <property name="meta.attr.date.markup">2018-02-10</property>
  <property name="meta.attr.creation_time.markup">15:01:55</property>
  <property name="meta.attr.time_reference.markup">160713156</property>
  <property name="meta.attr.umid.markup">0x00000000000000000000000000000000000000000000000000000000CC00889B81DD1CCBD0118AEEFE7F00005006A4020100000010128AEEFE7F00003D96E469</property>
  <property name="meta.attr.album.markup">Nursery</property>
  <property name="seekable">1</property>
  <property name="audio_index">0</property>
  <property name="video_index">-1</property>
  <property name="mute_on_pause">1</property>
  <property name="mlt_service">avformat</property>
  <property name="kdenlive:clipname"/>
  <property name="kdenlive:clip_type">1</property>
  <property name="kdenlive:folderid">294</property>
  <property name="kdenlive:id">304</property>
  <property name="kdenlive:file_size">36263688</property>
  <property name="kdenlive:file_hash">b67b0627247c3c05289bc0fbdcab1e37</property>
  <property name="kdenlive:audio_max0">234</property>
 </producer>
 <producer id="producer238" in="00:00:00.000" out="00:03:04.250">
  <property name="length">11056</property>
  <property name="eof">pause</property>
  <property name="resource">audio/music/Warmbody/The Big Ten/The Big Ten.wav</property>
  <property name="meta.media.nb_streams">1</property>
  <property name="meta.media.0.stream.type">audio</property>
  <property name="meta.media.0.codec.sample_fmt">s32</property>
  <property name="meta.media.0.codec.sample_rate">44100</property>
  <property name="meta.media.0.codec.channels">2</property>
  <property name="meta.media.0.codec.name">pcm_s24le</property>
  <property name="meta.media.0.codec.long_name">PCM signed 24-bit little-endian</property>
  <property name="meta.media.0.codec.bit_rate">2116800</property>
  <property name="meta.attr.encoded_by.markup">Logic Pro X</property>
  <property name="meta.attr.date.markup">2017-06-08</property>
  <property name="meta.attr.creation_time.markup">16:21:14</property>
  <property name="meta.attr.time_reference.markup">158760000</property>
  <property name="meta.attr.umid.markup">0x00000000000000000000000000000000000000000000000000000000A200AAFA29A23A358059595BFF7F00004694620501000000B051595BFF7F0000ECFE8894</property>
  <property name="seekable">1</property>
  <property name="audio_index">0</property>
  <property name="video_index">-1</property>
  <property name="mute_on_pause">1</property>
  <property name="mlt_service">avformat</property>
  <property name="kdenlive:clipname"/>
  <property name="kdenlive:clip_type">1</property>
  <property name="kdenlive:folderid">306</property>
  <property name="kdenlive:id">307</property>
  <property name="kdenlive:file_size">48756532</property>
  <property name="kdenlive:file_hash">185b4fe3503af4ce60956f26c9919001</property>
  <property name="kdenlive:audio_max0">249</property>
 </producer>
 <producer id="producer237" in="00:00:00.000" out="00:03:01.283">
  <property name="length">10878</property>
  <property name="eof">pause</property>
  <property name="resource">audio/music/Warmbody/The Big Ten/stems/01_The Big Ten_Upright Bass.wav</property>
  <property name="meta.media.nb_streams">1</property>
  <property name="meta.media.0.stream.type">audio</property>
  <property name="meta.media.0.codec.sample_fmt">s32</property>
  <property name="meta.media.0.codec.sample_rate">44100</property>
  <property name="meta.media.0.codec.channels">2</property>
  <property name="meta.media.0.codec.name">pcm_s24le</property>
  <property name="meta.media.0.codec.long_name">PCM signed 24-bit little-endian</property>
  <property name="meta.media.0.codec.bit_rate">2116800</property>
  <property name="meta.attr.encoded_by.markup">Logic Pro X</property>
  <property name="meta.attr.date.markup">2017-06-08</property>
  <property name="meta.attr.creation_time.markup">17:09:15</property>
  <property name="meta.attr.time_reference.markup">158760000</property>
  <property name="meta.attr.umid.markup">0x00000000000000000000000000000000000000000000000000000000A200AAFA29A23A3530AC595BFF7F0000469462050100000060A4595BFF7F0000ECFE8894</property>
  <property name="seekable">1</property>
  <property name="audio_index">0</property>
  <property name="video_index">-1</property>
  <property name="mute_on_pause">1</property>
  <property name="mlt_service">avformat</property>
  <property name="kdenlive:clipname"/>
  <property name="kdenlive:clip_type">1</property>
  <property name="kdenlive:folderid">308</property>
  <property name="kdenlive:id">309</property>
  <property name="kdenlive:file_size">48035562</property>
  <property name="kdenlive:file_hash">43be18bbec9b0179a3a97c5802b04e8a</property>
  <property name="kdenlive:audio_max0">197</property>
 </producer>
 <producer id="producer239" in="00:00:00.000" out="00:03:02.033">
  <property name="length">10923</property>
  <property name="eof">pause</property>
  <property name="resource">audio/music/Warmbody/The Big Ten/stems/02_The Big Ten_Electric Guitar.wav</property>
  <property name="meta.media.nb_streams">1</property>
  <property name="meta.media.0.stream.type">audio</property>
  <property name="meta.media.0.codec.sample_fmt">s32</property>
  <property name="meta.media.0.codec.sample_rate">44100</property>
  <property name="meta.media.0.codec.channels">2</property>
  <property name="meta.media.0.codec.name">pcm_s24le</property>
  <property name="meta.media.0.codec.long_name">PCM signed 24-bit little-endian</property>
  <property name="meta.media.0.codec.bit_rate">2116800</property>
  <property name="meta.attr.encoded_by.markup">Logic Pro X</property>
  <property name="meta.attr.date.markup">2017-06-08</property>
  <property name="meta.attr.creation_time.markup">17:09:18</property>
  <property name="meta.attr.time_reference.markup">158760000</property>
  <property name="meta.attr.umid.markup">0x00000000000000000000000000000000000000000000000000000000A200AAFA29A23A3530AC595BFF7F0000469462050100000060A4595BFF7F0000ECFE8894</property>
  <property name="seekable">1</property>
  <property name="audio_index">0</property>
  <property name="video_index">-1</property>
  <property name="mute_on_pause">1</property>
  <property name="mlt_service">avformat</property>
  <property name="kdenlive:clipname"/>
  <property name="kdenlive:clip_type">1</property>
  <property name="kdenlive:folderid">308</property>
  <property name="kdenlive:id">310</property>
  <property name="kdenlive:file_size">48232426</property>
  <property name="kdenlive:file_hash">81717e3ab563c0eee9fc9f1b9dfc706d</property>
  <property name="kdenlive:audio_max0">174</property>
 </producer>
 <producer id="producer241" in="00:00:00.000" out="00:03:00.550">
  <property name="length">10834</property>
  <property name="eof">pause</property>
  <property name="resource">audio/music/Warmbody/The Big Ten/stems/03_The Big Ten_Electric Guitar.wav</property>
  <property name="meta.media.nb_streams">1</property>
  <property name="meta.media.0.stream.type">audio</property>
  <property name="meta.media.0.codec.sample_fmt">s32</property>
  <property name="meta.media.0.codec.sample_rate">44100</property>
  <property name="meta.media.0.codec.channels">2</property>
  <property name="meta.media.0.codec.name">pcm_s24le</property>
  <property name="meta.media.0.codec.long_name">PCM signed 24-bit little-endian</property>
  <property name="meta.media.0.codec.bit_rate">2116800</property>
  <property name="meta.attr.encoded_by.markup">Logic Pro X</property>
  <property name="meta.attr.date.markup">2017-06-08</property>
  <property name="meta.attr.creation_time.markup">17:09:07</property>
  <property name="meta.attr.time_reference.markup">158760000</property>
  <property name="meta.attr.umid.markup">0x00000000000000000000000000000000000000000000000000000000A200AAFA29A23A3530AC595BFF7F0000469462050100000060A4595BFF7F0000ECFE8894</property>
  <property name="seekable">1</property>
  <property name="audio_index">0</property>
  <property name="video_index">-1</property>
  <property name="mute_on_pause">1</property>
  <property name="mlt_service">avformat</property>
  <property name="kdenlive:clipname"/>
  <property name="kdenlive:clip_type">1</property>
  <property name="kdenlive:folderid">308</property>
  <property name="kdenlive:id">311</property>
  <property name="kdenlive:file_size">47838698</property>
  <property name="kdenlive:file_hash">c3f46e1fa166b4b50afc01bd9cd370e3</property>
  <property name="kdenlive:audio_max0">189</property>
 </producer>
 <producer id="producer242" in="00:00:00.000" out="00:03:00.550">
  <property name="length">10834</property>
  <property name="eof">pause</property>
  <property name="resource">audio/music/Warmbody/The Big Ten/stems/04_The Big Ten_Brush Kit.wav</property>
  <property name="meta.media.nb_streams">1</property>
  <property name="meta.media.0.stream.type">audio</property>
  <property name="meta.media.0.codec.sample_fmt">s32</property>
  <property name="meta.media.0.codec.sample_rate">44100</property>
  <property name="meta.media.0.codec.channels">2</property>
  <property name="meta.media.0.codec.name">pcm_s24le</property>
  <property name="meta.media.0.codec.long_name">PCM signed 24-bit little-endian</property>
  <property name="meta.media.0.codec.bit_rate">2116800</property>
  <property name="meta.attr.encoded_by.markup">Logic Pro X</property>
  <property name="meta.attr.date.markup">2017-06-08</property>
  <property name="meta.attr.creation_time.markup">17:09:11</property>
  <property name="meta.attr.time_reference.markup">158760000</property>
  <property name="meta.attr.umid.markup">0x00000000000000000000000000000000000000000000000000000000A200AAFA29A23A3530AC595BFF7F0000469462050100000060A4595BFF7F0000ECFE8894</property>
  <property name="seekable">1</property>
  <property name="audio_index">0</property>
  <property name="video_index">-1</property>
  <property name="mute_on_pause">1</property>
  <property name="mlt_service">avformat</property>
  <property name="kdenlive:clipname"/>
  <property name="kdenlive:clip_type">1</property>
  <property name="kdenlive:folderid">308</property>
  <property name="kdenlive:id">312</property>
  <property name="kdenlive:file_size">47838698</property>
  <property name="kdenlive:file_hash">ed967c46898a6c21ddf5a3727f43f0fc</property>
  <property name="kdenlive:audio_max0">128</property>
 </producer>
 <producer id="producer240" in="00:00:00.000" out="00:00:47.200">
  <property name="length">2833</property>
  <property name="eof">pause</property>
  <property name="resource">audio/music/Warmbody/The Big Ten/variations/The Big Ten | 1 Min.wav</property>
  <property name="meta.media.nb_streams">1</property>
  <property name="meta.media.0.stream.type">audio</property>
  <property name="meta.media.0.codec.sample_fmt">s32</property>
  <property name="meta.media.0.codec.sample_rate">44100</property>
  <property name="meta.media.0.codec.channels">2</property>
  <property name="meta.media.0.codec.name">pcm_s24le</property>
  <property name="meta.media.0.codec.long_name">PCM signed 24-bit little-endian</property>
  <property name="meta.media.0.codec.bit_rate">2116800</property>
  <property name="meta.attr.encoded_by.markup">Logic Pro X</property>
  <property name="meta.attr.date.markup">2017-06-08</property>
  <property name="meta.attr.creation_time.markup">17:13:36</property>
  <property name="meta.attr.time_reference.markup">164832787</property>
  <property name="meta.attr.umid.markup">0x00000000000000000000000000000000000000000000000000000000A200AAFA29A23A358059595BFF7F00004694620501000000B051595BFF7F0000ECFE8894</property>
  <property name="seekable">1</property>
  <property name="audio_index">0</property>
  <property name="video_index">-1</property>
  <property name="mute_on_pause">1</property>
  <property name="mlt_service">avformat</property>
  <property name="kdenlive:clipname"/>
  <property name="kdenlive:clip_type">1</property>
  <property name="kdenlive:folderid">313</property>
  <property name="kdenlive:id">314</property>
  <property name="kdenlive:file_size">12493318</property>
  <property name="kdenlive:file_hash">2091cf3dd8b094a161ab8f5fcfa1443c</property>
  <property name="kdenlive:audio_max0">245</property>
 </producer>
 <producer id="producer243" in="00:00:00.000" out="00:00:26.533">
  <property name="length">1593</property>
  <property name="eof">pause</property>
  <property name="resource">audio/music/Warmbody/The Big Ten/variations/The Big Ten | 30 Sec.wav</property>
  <property name="meta.media.nb_streams">1</property>
  <property name="meta.media.0.stream.type">audio</property>
  <property name="meta.media.0.codec.sample_fmt">s32</property>
  <property name="meta.media.0.codec.sample_rate">44100</property>
  <property name="meta.media.0.codec.channels">2</property>
  <property name="meta.media.0.codec.name">pcm_s24le</property>
  <property name="meta.media.0.codec.long_name">PCM signed 24-bit little-endian</property>
  <property name="meta.media.0.codec.bit_rate">2116800</property>
  <property name="meta.attr.encoded_by.markup">Logic Pro X</property>
  <property name="meta.attr.date.markup">2017-06-08</property>
  <property name="meta.attr.creation_time.markup">17:13:13</property>
  <property name="meta.attr.time_reference.markup">165743705</property>
  <property name="meta.attr.umid.markup">0x00000000000000000000000000000000000000000000000000000000A200AAFA29A23A358059595BFF7F00004694620501000000B051595BFF7F0000ECFE8894</property>
  <property name="seekable">1</property>
  <property name="audio_index">0</property>
  <property name="video_index">-1</property>
  <property name="mute_on_pause">1</property>
  <property name="mlt_service">avformat</property>
  <property name="kdenlive:clipname"/>
  <property name="kdenlive:clip_type">1</property>
  <property name="kdenlive:folderid">313</property>
  <property name="kdenlive:id">315</property>
  <property name="kdenlive:file_size">7027810</property>
  <property name="kdenlive:file_hash">33efa551a6e6b7fbb7fab9d4752e070e</property>
  <property name="kdenlive:audio_max0">241</property>
 </producer>
 <producer id="producer244" in="00:00:00.000" out="00:01:29.467">
  <property name="length">5369</property>
  <property name="eof">pause</property>
  <property name="resource">audio/music/Warmbody/The Big Ten/variations/The Big Ten | Bass Lead.wav</property>
  <property name="meta.media.nb_streams">1</property>
  <property name="meta.media.0.stream.type">audio</property>
  <property name="meta.media.0.codec.sample_fmt">s32</property>
  <property name="meta.media.0.codec.sample_rate">44100</property>
  <property name="meta.media.0.codec.channels">2</property>
  <property name="meta.media.0.codec.name">pcm_s24le</property>
  <property name="meta.media.0.codec.long_name">PCM signed 24-bit little-endian</property>
  <property name="meta.media.0.codec.bit_rate">2116800</property>
  <property name="meta.attr.encoded_by.markup">Logic Pro X</property>
  <property name="meta.attr.date.markup">2017-06-08</property>
  <property name="meta.attr.creation_time.markup">17:15:13</property>
  <property name="meta.attr.time_reference.markup">162968568</property>
  <property name="meta.attr.umid.markup">0x00000000000000000000000000000000000000000000000000000000A200AAFA29A23A358059595BFF7F00004694620501000000B051595BFF7F0000ECFE8894</property>
  <property name="seekable">1</property>
  <property name="audio_index">0</property>
  <property name="video_index">-1</property>
  <property name="mute_on_pause">1</property>
  <property name="mlt_service">avformat</property>
  <property name="kdenlive:clipname"/>
  <property name="kdenlive:clip_type">1</property>
  <property name="kdenlive:folderid">313</property>
  <property name="kdenlive:id">316</property>
  <property name="kdenlive:file_size">23678632</property>
  <property name="kdenlive:file_hash">3905d737b6ef81c6920ae593af5d8c91</property>
  <property name="kdenlive:audio_max0">245</property>
 </producer>
 <producer id="producer246" in="00:00:00.000" out="00:02:50.783">
  <property name="length">10248</property>
  <property name="eof">pause</property>
  <property name="resource">audio/music/Warmbody/The Big Ten/variations/The Big Ten | Minimal.wav</property>
  <property name="meta.media.nb_streams">1</property>
  <property name="meta.media.0.stream.type">audio</property>
  <property name="meta.media.0.codec.sample_fmt">s32</property>
  <property name="meta.media.0.codec.sample_rate">44100</property>
  <property name="meta.media.0.codec.channels">2</property>
  <property name="meta.media.0.codec.name">pcm_s24le</property>
  <property name="meta.media.0.codec.long_name">PCM signed 24-bit little-endian</property>
  <property name="meta.media.0.codec.bit_rate">2116800</property>
  <property name="meta.attr.encoded_by.markup">Logic Pro X</property>
  <property name="meta.attr.date.markup">2017-06-08</property>
  <property name="meta.attr.creation_time.markup">17:17:20</property>
  <property name="meta.attr.time_reference.markup">160383313</property>
  <property name="meta.attr.umid.markup">0x00000000000000000000000000000000000000000000000000000000A200AAFA29A23A358059595BFF7F00004694620501000000B051595BFF7F0000ECFE8894</property>
  <property name="seekable">1</property>
  <property name="audio_index">0</property>
  <property name="video_index">-1</property>
  <property name="mute_on_pause">1</property>
  <property name="mlt_service">avformat</property>
  <property name="kdenlive:clipname"/>
  <property name="kdenlive:clip_type">1</property>
  <property name="kdenlive:folderid">313</property>
  <property name="kdenlive:id">317</property>
  <property name="kdenlive:file_size">45193756</property>
  <property name="kdenlive:file_hash">7d29f6a8e52f35c55e3956233372098d</property>
  <property name="kdenlive:audio_max0">249</property>
 </producer>
 <producer id="producer245" in="00:00:00.000" out="00:03:04.250">
  <property name="length">11056</property>
  <property name="eof">pause</property>
  <property name="resource">audio/music/Warmbody/The Big Ten/variations/The Big Ten | No Lead Guitar.wav</property>
  <property name="meta.media.nb_streams">1</property>
  <property name="meta.media.0.stream.type">audio</property>
  <property name="meta.media.0.codec.sample_fmt">s32</property>
  <property name="meta.media.0.codec.sample_rate">44100</property>
  <property name="meta.media.0.codec.channels">2</property>
  <property name="meta.media.0.codec.name">pcm_s24le</property>
  <property name="meta.media.0.codec.long_name">PCM signed 24-bit little-endian</property>
  <property name="meta.media.0.codec.bit_rate">2116800</property>
  <property name="meta.attr.encoded_by.markup">Logic Pro X</property>
  <property name="meta.attr.date.markup">2017-06-08</property>
  <property name="meta.attr.creation_time.markup">17:10:47</property>
  <property name="meta.attr.time_reference.markup">158760000</property>
  <property name="meta.attr.umid.markup">0x00000000000000000000000000000000000000000000000000000000A200AAFA29A23A358059595BFF7F00004694620501000000B051595BFF7F0000ECFE8894</property>
  <property name="seekable">1</property>
  <property name="audio_index">0</property>
  <property name="video_index">-1</property>
  <property name="mute_on_pause">1</property>
  <property name="mlt_service">avformat</property>
  <property name="kdenlive:clipname"/>
  <property name="kdenlive:clip_type">1</property>
  <property name="kdenlive:folderid">313</property>
  <property name="kdenlive:id">318</property>
  <property name="kdenlive:file_size">48756532</property>
  <property name="kdenlive:file_hash">b541b20c3f4abb03dfccd8828b824a90</property>
  <property name="kdenlive:audio_max0">252</property>
 </producer>
 <producer id="producer247" in="00:00:00.000" out="00:02:03.750">
  <property name="length">7426</property>
  <property name="eof">pause</property>
  <property name="resource">audio/normalized/basics.wav</property>
  <property name="meta.media.nb_streams">1</property>
  <property name="meta.media.0.stream.type">audio</property>
  <property name="meta.media.0.codec.sample_fmt">s16</property>
  <property name="meta.media.0.codec.sample_rate">48000</property>
  <property name="meta.media.0.codec.channels">2</property>
  <property name="meta.media.0.codec.name">pcm_s16le</property>
  <property name="meta.media.0.codec.long_name">PCM signed 16-bit little-endian</property>
  <property name="meta.media.0.codec.bit_rate">1536000</property>
  <property name="seekable">1</property>
  <property name="audio_index">0</property>
  <property name="video_index">-1</property>
  <property name="mute_on_pause">1</property>
  <property name="mlt_service">avformat</property>
  <property name="kdenlive:clipname"/>
  <property name="kdenlive:clip_type">1</property>
  <property name="kdenlive:folderid">319</property>
  <property name="kdenlive:id">320</property>
  <property name="kdenlive:file_size">23762088</property>
  <property name="kdenlive:file_hash">534bb743ef707dab0466976fcb5c5d92</property>
  <property name="kdenlive:audio_max0">134</property>
 </producer>
 <producer id="producer248" in="00:00:00.000" out="00:06:27.300">
  <property name="length">23239</property>
  <property name="eof">pause</property>
  <property name="resource">audio/normalized/deletion.wav</property>
  <property name="meta.media.nb_streams">1</property>
  <property name="meta.media.0.stream.type">audio</property>
  <property name="meta.media.0.codec.sample_fmt">s16</property>
  <property name="meta.media.0.codec.sample_rate">48000</property>
  <property name="meta.media.0.codec.channels">2</property>
  <property name="meta.media.0.codec.name">pcm_s16le</property>
  <property name="meta.media.0.codec.long_name">PCM signed 16-bit little-endian</property>
  <property name="meta.media.0.codec.bit_rate">1536000</property>
  <property name="seekable">1</property>
  <property name="audio_index">0</property>
  <property name="video_index">-1</property>
  <property name="mute_on_pause">1</property>
  <property name="mlt_service">avformat</property>
  <property name="kdenlive:clipname"/>
  <property name="kdenlive:clip_type">1</property>
  <property name="kdenlive:folderid">319</property>
  <property name="kdenlive:id">321</property>
  <property name="kdenlive:file_size">74363308</property>
  <property name="kdenlive:file_hash">ccbcb14ee71229498d962b0f2891d6fe</property>
  <property name="kdenlive:audio_max0">138</property>
 </producer>
 <producer id="producer249" in="00:00:00.000" out="00:00:35.283">
  <property name="length">2118</property>
  <property name="eof">pause</property>
  <property name="resource">audio/normalized/fever.wav</property>
  <property name="meta.media.nb_streams">1</property>
  <property name="meta.media.0.stream.type">audio</property>
  <property name="meta.media.0.codec.sample_fmt">s16</property>
  <property name="meta.media.0.codec.sample_rate">48000</property>
  <property name="meta.media.0.codec.channels">2</property>
  <property name="meta.media.0.codec.name">pcm_s16le</property>
  <property name="meta.media.0.codec.long_name">PCM signed 16-bit little-endian</property>
  <property name="meta.media.0.codec.bit_rate">1536000</property>
  <property name="seekable">1</property>
  <property name="audio_index">0</property>
  <property name="video_index">-1</property>
  <property name="mute_on_pause">1</property>
  <property name="mlt_service">avformat</property>
  <property name="kdenlive:clipname"/>
  <property name="kdenlive:clip_type">1</property>
  <property name="kdenlive:folderid">319</property>
  <property name="kdenlive:id">322</property>
  <property name="kdenlive:file_size">6776200</property>
  <property name="kdenlive:file_hash">7a997f6338e1984242e8a179c15df8e3</property>
  <property name="kdenlive:audio_max0">121</property>
 </producer>
 <producer id="producer250" in="00:00:00.000" out="00:01:43.850">
  <property name="length">6232</property>
  <property name="eof">pause</property>
  <property name="resource">audio/normalized/insertion.wav</property>
  <property name="meta.media.nb_streams">1</property>
  <property name="meta.media.0.stream.type">audio</property>
  <property name="meta.media.0.codec.sample_fmt">s16</property>
  <property name="meta.media.0.codec.sample_rate">48000</property>
  <property name="meta.media.0.codec.channels">2</property>
  <property name="meta.media.0.codec.name">pcm_s16le</property>
  <property name="meta.media.0.codec.long_name">PCM signed 16-bit little-endian</property>
  <property name="meta.media.0.codec.bit_rate">1536000</property>
  <property name="seekable">1</property>
  <property name="audio_index">0</property>
  <property name="video_index">-1</property>
  <property name="mute_on_pause">1</property>
  <property name="mlt_service">avformat</property>
  <property name="kdenlive:clipname"/>
  <property name="kdenlive:clip_type">1</property>
  <property name="kdenlive:folderid">319</property>
  <property name="kdenlive:id">323</property>
  <property name="kdenlive:file_size">19941004</property>
  <property name="kdenlive:file_hash">13af1a99d6b5f410c94e473697053898</property>
  <property name="kdenlive:audio_max0">125</property>
 </producer>
 <producer id="producer251" in="00:00:00.000" out="00:01:45.133">
  <property name="length">6309</property>
  <property name="eof">pause</property>
  <property name="resource">audio/normalized/intro.wav</property>
  <property name="meta.media.nb_streams">1</property>
  <property name="meta.media.0.stream.type">audio</property>
  <property name="meta.media.0.codec.sample_fmt">s16</property>
  <property name="meta.media.0.codec.sample_rate">48000</property>
  <property name="meta.media.0.codec.channels">2</property>
  <property name="meta.media.0.codec.name">pcm_s16le</property>
  <property name="meta.media.0.codec.long_name">PCM signed 16-bit little-endian</property>
  <property name="meta.media.0.codec.bit_rate">1536000</property>
  <property name="seekable">1</property>
  <property name="audio_index">0</property>
  <property name="video_index">-1</property>
  <property name="mute_on_pause">1</property>
  <property name="mlt_service">avformat</property>
  <property name="kdenlive:clipname"/>
  <property name="kdenlive:clip_type">1</property>
  <property name="kdenlive:folderid">319</property>
  <property name="kdenlive:id">324</property>
  <property name="kdenlive:file_size">20189772</property>
  <property name="kdenlive:file_hash">1b6d3c38f279dce6ea7f637fd9a6927c</property>
  <property name="kdenlive:audio_max0">125</property>
 </producer>
 <producer id="producer252" in="00:00:00.000" out="00:00:35.500">
  <property name="length">2131</property>
  <property name="eof">pause</property>
  <property name="resource">audio/normalized/search.wav</property>
  <property name="meta.media.nb_streams">1</property>
  <property name="meta.media.0.stream.type">audio</property>
  <property name="meta.media.0.codec.sample_fmt">s16</property>
  <property name="meta.media.0.codec.sample_rate">48000</property>
  <property name="meta.media.0.codec.channels">2</property>
  <property name="meta.media.0.codec.name">pcm_s16le</property>
  <property name="meta.media.0.codec.long_name">PCM signed 16-bit little-endian</property>
  <property name="meta.media.0.codec.bit_rate">1536000</property>
  <property name="seekable">1</property>
  <property name="audio_index">0</property>
  <property name="video_index">-1</property>
  <property name="mute_on_pause">1</property>
  <property name="mlt_service">avformat</property>
  <property name="kdenlive:clipname"/>
  <property name="kdenlive:clip_type">1</property>
  <property name="kdenlive:folderid">319</property>
  <property name="kdenlive:id">325</property>
  <property name="kdenlive:file_size">6820428</property>
  <property name="kdenlive:file_hash">8156294f73d502ffa60998cdab1ba8f4</property>
  <property name="kdenlive:audio_max0">135</property>
 </producer>
 <producer id="producer253" in="00:00:00.000" out="00:02:03.750">
  <property name="length">7426</property>
  <property name="eof">pause</property>
  <property name="resource">audio/raw/basics.wav</property>
  <property name="meta.media.nb_streams">1</property>
  <property name="meta.media.0.stream.type">audio</property>
  <property name="meta.media.0.codec.sample_fmt">s16</property>
  <property name="meta.media.0.codec.sample_rate">48000</property>
  <property name="meta.media.0.codec.channels">2</property>
  <property name="meta.media.0.codec.name">pcm_s16le</property>
  <property name="meta.media.0.codec.long_name">PCM signed 16-bit little-endian</property>
  <property name="meta.media.0.codec.bit_rate">1536000</property>
  <property name="seekable">1</property>
  <property name="audio_index">0</property>
  <property name="video_index">-1</property>
  <property name="mute_on_pause">1</property>
  <property name="mlt_service">avformat</property>
  <property name="kdenlive:clipname"/>
  <property name="kdenlive:clip_type">1</property>
  <property name="kdenlive:folderid">326</property>
  <property name="kdenlive:id">327</property>
  <property name="kdenlive:file_size">23762088</property>
  <property name="kdenlive:file_hash">e83ec4c010b0d02b53d42615074ebfcc</property>
  <property name="kdenlive:audio_max0">134</property>
 </producer>
 <producer id="producer254" in="00:00:00.000" out="00:06:27.300">
  <property name="length">23239</property>
  <property name="eof">pause</property>
  <property name="resource">audio/raw/deletion.wav</property>
  <property name="meta.media.nb_streams">1</property>
  <property name="meta.media.0.stream.type">audio</property>
  <property name="meta.media.0.codec.sample_fmt">s16</property>
  <property name="meta.media.0.codec.sample_rate">48000</property>
  <property name="meta.media.0.codec.channels">2</property>
  <property name="meta.media.0.codec.name">pcm_s16le</property>
  <property name="meta.media.0.codec.long_name">PCM signed 16-bit little-endian</property>
  <property name="meta.media.0.codec.bit_rate">1536000</property>
  <property name="seekable">1</property>
  <property name="audio_index">0</property>
  <property name="video_index">-1</property>
  <property name="mute_on_pause">1</property>
  <property name="mlt_service">avformat</property>
  <property name="kdenlive:clipname"/>
  <property name="kdenlive:clip_type">1</property>
  <property name="kdenlive:folderid">326</property>
  <property name="kdenlive:id">328</property>
  <property name="kdenlive:file_size">74363308</property>
  <property name="kdenlive:file_hash">d7f7bc0d6cb8e9e766d71a184689d024</property>
  <property name="kdenlive:audio_max0">142</property>
 </producer>
 <producer id="producer255" in="00:00:00.000" out="00:00:35.283">
  <property name="length">2118</property>
  <property name="eof">pause</property>
  <property name="resource">audio/raw/fever.wav</property>
  <property name="meta.media.nb_streams">1</property>
  <property name="meta.media.0.stream.type">audio</property>
  <property name="meta.media.0.codec.sample_fmt">s16</property>
  <property name="meta.media.0.codec.sample_rate">48000</property>
  <property name="meta.media.0.codec.channels">2</property>
  <property name="meta.media.0.codec.name">pcm_s16le</property>
  <property name="meta.media.0.codec.long_name">PCM signed 16-bit little-endian</property>
  <property name="meta.media.0.codec.bit_rate">1536000</property>
  <property name="seekable">1</property>
  <property name="audio_index">0</property>
  <property name="video_index">-1</property>
  <property name="mute_on_pause">1</property>
  <property name="mlt_service">avformat</property>
  <property name="kdenlive:clipname"/>
  <property name="kdenlive:clip_type">1</property>
  <property name="kdenlive:folderid">326</property>
  <property name="kdenlive:id">329</property>
  <property name="kdenlive:file_size">6776200</property>
  <property name="kdenlive:file_hash">a74143fcfb49bfcb2e9b556a90203bcd</property>
  <property name="kdenlive:audio_max0">179</property>
 </producer>
 <producer id="producer256" in="00:00:00.000" out="00:01:43.850">
  <property name="length">6232</property>
  <property name="eof">pause</property>
  <property name="resource">audio/raw/insertion.wav</property>
  <property name="meta.media.nb_streams">1</property>
  <property name="meta.media.0.stream.type">audio</property>
  <property name="meta.media.0.codec.sample_fmt">s16</property>
  <property name="meta.media.0.codec.sample_rate">48000</property>
  <property name="meta.media.0.codec.channels">2</property>
  <property name="meta.media.0.codec.name">pcm_s16le</property>
  <property name="meta.media.0.codec.long_name">PCM signed 16-bit little-endian</property>
  <property name="meta.media.0.codec.bit_rate">1536000</property>
  <property name="seekable">1</property>
  <property name="audio_index">0</property>
  <property name="video_index">-1</property>
  <property name="mute_on_pause">1</property>
  <property name="mlt_service">avformat</property>
  <property name="kdenlive:clipname"/>
  <property name="kdenlive:clip_type">1</property>
  <property name="kdenlive:folderid">326</property>
  <property name="kdenlive:id">330</property>
  <property name="kdenlive:file_size">19941004</property>
  <property name="kdenlive:file_hash">950f01478aef82ec6b1f63fa3bc4c588</property>
  <property name="kdenlive:audio_max0">127</property>
 </producer>
 <producer id="producer261" in="00:00:00.000" out="00:01:45.133">
  <property name="length">6309</property>
  <property name="eof">pause</property>
  <property name="resource">audio/raw/intro.wav</property>
  <property name="meta.media.nb_streams">1</property>
  <property name="meta.media.0.stream.type">audio</property>
  <property name="meta.media.0.codec.sample_fmt">s16</property>
  <property name="meta.media.0.codec.sample_rate">48000</property>
  <property name="meta.media.0.codec.channels">2</property>
  <property name="meta.media.0.codec.name">pcm_s16le</property>
  <property name="meta.media.0.codec.long_name">PCM signed 16-bit little-endian</property>
  <property name="meta.media.0.codec.bit_rate">1536000</property>
  <property name="seekable">1</property>
  <property name="audio_index">0</property>
  <property name="video_index">-1</property>
  <property name="mute_on_pause">1</property>
  <property name="mlt_service">avformat</property>
  <property name="kdenlive:clipname"/>
  <property name="kdenlive:clip_type">1</property>
  <property name="kdenlive:folderid">326</property>
  <property name="kdenlive:id">331</property>
  <property name="kdenlive:file_size">20189772</property>
  <property name="kdenlive:file_hash">e42af7a9204977c2b6018d5cea46db1a</property>
  <property name="kdenlive:audio_max0">118</property>
 </producer>
 <producer id="producer266" in="00:00:00.000" out="00:00:35.500">
  <property name="length">2131</property>
  <property name="eof">pause</property>
  <property name="resource">audio/raw/search.wav</property>
  <property name="meta.media.nb_streams">1</property>
  <property name="meta.media.0.stream.type">audio</property>
  <property name="meta.media.0.codec.sample_fmt">s16</property>
  <property name="meta.media.0.codec.sample_rate">48000</property>
  <property name="meta.media.0.codec.channels">2</property>
  <property name="meta.media.0.codec.name">pcm_s16le</property>
  <property name="meta.media.0.codec.long_name">PCM signed 16-bit little-endian</property>
  <property name="meta.media.0.codec.bit_rate">1536000</property>
  <property name="seekable">1</property>
  <property name="audio_index">0</property>
  <property name="video_index">-1</property>
  <property name="mute_on_pause">1</property>
  <property name="mlt_service">avformat</property>
  <property name="kdenlive:clipname"/>
  <property name="kdenlive:clip_type">1</property>
  <property name="kdenlive:folderid">326</property>
  <property name="kdenlive:id">332</property>
  <property name="kdenlive:file_size">6820428</property>
  <property name="kdenlive:file_hash">b6cd9d03ff10e88880643f4ef7c0b2e0</property>
  <property name="kdenlive:audio_max0">137</property>
 </producer>
 <producer id="producer257" in="00:00:00.000" out="00:00:37.417">
  <property name="length">2246</property>
  <property name="eof">pause</property>
  <property name="resource">/home/xiaoxiae/.cache/kdenlive/proxy/9588cc3998d2148bdf53f21e302538f8.mkv</property>
  <property name="meta.media.nb_streams">1</property>
  <property name="meta.media.0.stream.type">video</property>
  <property name="meta.media.0.stream.frame_rate">60</property>
  <property name="meta.media.0.stream.sample_aspect_ratio">0</property>
  <property name="meta.media.0.codec.width">640</property>
  <property name="meta.media.0.codec.height">360</property>
  <property name="meta.media.0.codec.rotate">0</property>
  <property name="meta.media.0.codec.pix_fmt">yuvj420p</property>
  <property name="meta.media.0.codec.sample_aspect_ratio">0</property>
  <property name="meta.media.0.codec.colorspace">601</property>
  <property name="meta.media.0.codec.name">mjpeg</property>
  <property name="meta.media.0.codec.long_name">MJPEG (Motion JPEG)</property>
  <property name="meta.media.0.codec.bit_rate">0</property>
  <property name="meta.attr.0.stream.HANDLER_NAME.markup">VideoHandler</property>
  <property name="meta.attr.0.stream.VENDOR_ID.markup">[0][0][0][0]</property>
  <property name="meta.attr.0.stream.ENCODER.markup">Lavc60.3.100 mjpeg</property>
  <property name="meta.attr.0.stream.DURATION.markup">00:00:37.434000000</property>
  <property name="meta.attr.COMMENT.markup">Rendered with Manim Community v0.17.2</property>
  <property name="meta.attr.MAJOR_BRAND.markup">isom</property>
  <property name="meta.attr.MINOR_VERSION.markup">512</property>
  <property name="meta.attr.COMPATIBLE_BRANDS.markup">isomiso2avc1mp41</property>
  <property name="meta.attr.ENCODER.markup">Lavf60.3.100</property>
  <property name="seekable">1</property>
  <property name="meta.media.sample_aspect_num">1</property>
  <property name="meta.media.sample_aspect_den">1</property>
  <property name="aspect_ratio">1</property>
  <property name="format">3</property>
  <property name="audio_index">-1</property>
  <property name="video_index">0</property>
  <property name="mute_on_pause">0</property>
  <property name="mlt_service">avformat-novalidate</property>
  <property name="kdenlive:clipname">Basics.mp4</property>
  <property name="kdenlive:clip_type">2</property>
  <property name="kdenlive:folderid">333</property>
  <property name="kdenlive:id">334</property>
  <property name="kdenlive:file_size">3916089</property>
  <property name="kdenlive:file_hash">9588cc3998d2148bdf53f21e302538f8</property>
  <property name="kdenlive:proxy">/home/xiaoxiae/.cache/kdenlive/proxy/9588cc3998d2148bdf53f21e302538f8.mkv</property>
  <property name="kdenlive:originalurl">video/Basics.mp4</property>
  <property name="kdenlive:original.mlt_type">producer</property>
  <property name="kdenlive:original.in">00:00:00.000</property>
  <property name="kdenlive:original.out">00:00:37.417</property>
  <property name="kdenlive:original.length">2246</property>
  <property name="kdenlive:original.eof">pause</property>
  <property name="kdenlive:original.resource">video/Basics.mp4</property>
  <property name="kdenlive:original.meta.media.nb_streams">1</property>
  <property name="kdenlive:original.meta.media.0.stream.type">video</property>
  <property name="kdenlive:original.meta.media.0.stream.frame_rate">60</property>
  <property name="kdenlive:original.meta.media.0.stream.sample_aspect_ratio">0</property>
  <property name="kdenlive:original.meta.media.0.codec.width">3840</property>
  <property name="kdenlive:original.meta.media.0.codec.height">2160</property>
  <property name="kdenlive:original.meta.media.0.codec.rotate">0</property>
  <property name="kdenlive:original.meta.media.0.codec.pix_fmt">yuv420p</property>
  <property name="kdenlive:original.meta.media.0.codec.sample_aspect_ratio">0</property>
  <property name="kdenlive:original.meta.media.0.codec.colorspace">709</property>
  <property name="kdenlive:original.meta.media.0.codec.name">h264</property>
  <property name="kdenlive:original.meta.media.0.codec.long_name">H.264 / AVC / MPEG-4 AVC / MPEG-4 part 10</property>
  <property name="kdenlive:original.meta.media.0.codec.bit_rate">831044</property>
  <property name="kdenlive:original.meta.attr.0.stream.handler_name.markup">VideoHandler</property>
  <property name="kdenlive:original.meta.attr.0.stream.vendor_id.markup">[0][0][0][0]</property>
  <property name="kdenlive:original.meta.attr.0.stream.encoder.markup">Lavc60.3.100 libx264</property>
  <property name="kdenlive:original.meta.attr.major_brand.markup">isom</property>
  <property name="kdenlive:original.meta.attr.minor_version.markup">512</property>
  <property name="kdenlive:original.meta.attr.compatible_brands.markup">isomiso2avc1mp41</property>
  <property name="kdenlive:original.meta.attr.encoder.markup">Lavf60.3.100</property>
  <property name="kdenlive:original.meta.attr.comment.markup">Rendered with Manim Community v0.17.2</property>
  <property name="kdenlive:original.seekable">1</property>
  <property name="kdenlive:original.width">3840</property>
  <property name="kdenlive:original.height">2160</property>
  <property name="kdenlive:original.meta.media.sample_aspect_num">1</property>
  <property name="kdenlive:original.meta.media.sample_aspect_den">1</property>
  <property name="kdenlive:original.aspect_ratio">1</property>
  <property name="kdenlive:original.format">3</property>
  <property name="kdenlive:original.audio_index">-1</property>
  <property name="kdenlive:original.video_index">0</property>
  <property name="kdenlive:original.mute_on_pause">0</property>
  <property name="kdenlive:original.mlt_service">avformat-novalidate</property>
  <property name="kdenlive:original.meta.media.frame_rate_num">60</property>
  <property name="kdenlive:original.meta.media.frame_rate_den">1</property>
  <property name="kdenlive:original.meta.media.colorspace">709</property>
  <property name="kdenlive:original.meta.media.color_trc">2</property>
  <property name="kdenlive:original.meta.media.has_b_frames">2</property>
  <property name="kdenlive:original.meta.media.width">3840</property>
  <property name="kdenlive:original.meta.media.height">2160</property>
  <property name="kdenlive:original.meta.media.color_range">mpeg</property>
  <property name="kdenlive:original.meta.media.top_field_first">0</property>
  <property name="kdenlive:original.meta.media.progressive">1</property>
  <property name="kdenlive:original.kdenlive:clip_type">2</property>
  <property name="kdenlive:original.kdenlive:folderid">333</property>
  <property name="kdenlive:original.kdenlive:id">334</property>
  <property name="kdenlive:original.kdenlive:file_size">3916089</property>
  <property name="kdenlive:original.kdenlive:file_hash">9588cc3998d2148bdf53f21e302538f8</property>
  <property name="kdenlive:original.backup">1</property>
  <property name="meta.media.frame_rate_num">60</property>
  <property name="meta.media.frame_rate_den">1</property>
  <property name="meta.media.colorspace">601</property>
  <property name="meta.media.color_trc">2</property>
  <property name="meta.media.has_b_frames">0</property>
  <property name="meta.media.width">640</property>
  <property name="meta.media.height">360</property>
  <property name="meta.media.color_range">full</property>
  <property name="meta.media.top_field_first">0</property>
  <property name="meta.media.progressive">1</property>
 </producer>
 <producer id="producer258" in="00:00:00.000" out="00:00:01.983">
  <property name="length">120</property>
  <property name="eof">pause</property>
  <property name="resource">/home/xiaoxiae/.cache/kdenlive/proxy/e1d1eb8553ed5fb90a27fe7196134ec6.mkv</property>
  <property name="meta.media.nb_streams">1</property>
  <property name="meta.media.0.stream.type">video</property>
  <property name="meta.media.0.stream.frame_rate">60</property>
  <property name="meta.media.0.stream.sample_aspect_ratio">0</property>
  <property name="meta.media.0.codec.width">640</property>
  <property name="meta.media.0.codec.height">360</property>
  <property name="meta.media.0.codec.rotate">0</property>
  <property name="meta.media.0.codec.pix_fmt">yuvj420p</property>
  <property name="meta.media.0.codec.sample_aspect_ratio">0</property>
  <property name="meta.media.0.codec.colorspace">601</property>
  <property name="meta.media.0.codec.name">mjpeg</property>
  <property name="meta.media.0.codec.long_name">MJPEG (Motion JPEG)</property>
  <property name="meta.media.0.codec.bit_rate">0</property>
  <property name="meta.attr.0.stream.HANDLER_NAME.markup">VideoHandler</property>
  <property name="meta.attr.0.stream.VENDOR_ID.markup">[0][0][0][0]</property>
  <property name="meta.attr.0.stream.ENCODER.markup">Lavc60.3.100 mjpeg</property>
  <property name="meta.attr.0.stream.DURATION.markup">00:00:02.000000000</property>
  <property name="meta.attr.COMMENT.markup">Rendered with Manim Community v0.17.2</property>
  <property name="meta.attr.MAJOR_BRAND.markup">isom</property>
  <property name="meta.attr.MINOR_VERSION.markup">512</property>
  <property name="meta.attr.COMPATIBLE_BRANDS.markup">isomiso2avc1mp41</property>
  <property name="meta.attr.ENCODER.markup">Lavf60.3.100</property>
  <property name="seekable">1</property>
  <property name="meta.media.sample_aspect_num">1</property>
  <property name="meta.media.sample_aspect_den">1</property>
  <property name="aspect_ratio">1</property>
  <property name="format">3</property>
  <property name="audio_index">-1</property>
  <property name="video_index">0</property>
  <property name="mute_on_pause">0</property>
  <property name="mlt_service">avformat-novalidate</property>
  <property name="kdenlive:clipname">Benchmark.mp4</property>
  <property name="kdenlive:clip_type">2</property>
  <property name="kdenlive:folderid">333</property>
  <property name="kdenlive:id">335</property>
  <property name="kdenlive:file_size">36696</property>
  <property name="kdenlive:file_hash">e1d1eb8553ed5fb90a27fe7196134ec6</property>
  <property name="kdenlive:proxy">/home/xiaoxiae/.cache/kdenlive/proxy/e1d1eb8553ed5fb90a27fe7196134ec6.mkv</property>
  <property name="kdenlive:originalurl">video/Benchmark.mp4</property>
  <property name="kdenlive:original.mlt_type">producer</property>
  <property name="kdenlive:original.in">00:00:00.000</property>
  <property name="kdenlive:original.out">00:00:01.983</property>
  <property name="kdenlive:original.length">120</property>
  <property name="kdenlive:original.eof">pause</property>
  <property name="kdenlive:original.resource">video/Benchmark.mp4</property>
  <property name="kdenlive:original.meta.media.nb_streams">1</property>
  <property name="kdenlive:original.meta.media.0.stream.type">video</property>
  <property name="kdenlive:original.meta.media.0.stream.frame_rate">60</property>
  <property name="kdenlive:original.meta.media.0.stream.sample_aspect_ratio">0</property>
  <property name="kdenlive:original.meta.media.0.codec.width">3840</property>
  <property name="kdenlive:original.meta.media.0.codec.height">2160</property>
  <property name="kdenlive:original.meta.media.0.codec.rotate">0</property>
  <property name="kdenlive:original.meta.media.0.codec.pix_fmt">yuv420p</property>
  <property name="kdenlive:original.meta.media.0.codec.sample_aspect_ratio">0</property>
  <property name="kdenlive:original.meta.media.0.codec.colorspace">709</property>
  <property name="kdenlive:original.meta.media.0.codec.name">h264</property>
  <property name="kdenlive:original.meta.media.0.codec.long_name">H.264 / AVC / MPEG-4 AVC / MPEG-4 part 10</property>
  <property name="kdenlive:original.meta.media.0.codec.bit_rate">137396</property>
  <property name="kdenlive:original.meta.attr.0.stream.handler_name.markup">VideoHandler</property>
  <property name="kdenlive:original.meta.attr.0.stream.vendor_id.markup">[0][0][0][0]</property>
  <property name="kdenlive:original.meta.attr.0.stream.encoder.markup">Lavc60.3.100 libx264</property>
  <property name="kdenlive:original.meta.attr.major_brand.markup">isom</property>
  <property name="kdenlive:original.meta.attr.minor_version.markup">512</property>
  <property name="kdenlive:original.meta.attr.compatible_brands.markup">isomiso2avc1mp41</property>
  <property name="kdenlive:original.meta.attr.encoder.markup">Lavf60.3.100</property>
  <property name="kdenlive:original.meta.attr.comment.markup">Rendered with Manim Community v0.17.2</property>
  <property name="kdenlive:original.seekable">1</property>
  <property name="kdenlive:original.width">3840</property>
  <property name="kdenlive:original.height">2160</property>
  <property name="kdenlive:original.meta.media.sample_aspect_num">1</property>
  <property name="kdenlive:original.meta.media.sample_aspect_den">1</property>
  <property name="kdenlive:original.aspect_ratio">1</property>
  <property name="kdenlive:original.format">3</property>
  <property name="kdenlive:original.audio_index">-1</property>
  <property name="kdenlive:original.video_index">0</property>
  <property name="kdenlive:original.mute_on_pause">0</property>
  <property name="kdenlive:original.mlt_service">avformat-novalidate</property>
  <property name="kdenlive:original.meta.media.frame_rate_num">60</property>
  <property name="kdenlive:original.meta.media.frame_rate_den">1</property>
  <property name="kdenlive:original.meta.media.colorspace">709</property>
  <property name="kdenlive:original.meta.media.color_trc">2</property>
  <property name="kdenlive:original.meta.media.has_b_frames">2</property>
  <property name="kdenlive:original.meta.media.width">3840</property>
  <property name="kdenlive:original.meta.media.height">2160</property>
  <property name="kdenlive:original.meta.media.color_range">mpeg</property>
  <property name="kdenlive:original.meta.media.top_field_first">0</property>
  <property name="kdenlive:original.meta.media.progressive">1</property>
  <property name="kdenlive:original.kdenlive:clip_type">2</property>
  <property name="kdenlive:original.kdenlive:folderid">333</property>
  <property name="kdenlive:original.kdenlive:id">335</property>
  <property name="kdenlive:original.kdenlive:file_size">36696</property>
  <property name="kdenlive:original.kdenlive:file_hash">e1d1eb8553ed5fb90a27fe7196134ec6</property>
  <property name="kdenlive:original.backup">1</property>
  <property name="meta.media.frame_rate_num">60</property>
  <property name="meta.media.frame_rate_den">1</property>
  <property name="meta.media.colorspace">601</property>
  <property name="meta.media.color_trc">2</property>
  <property name="meta.media.has_b_frames">0</property>
  <property name="meta.media.width">640</property>
  <property name="meta.media.height">360</property>
  <property name="meta.media.color_range">full</property>
  <property name="meta.media.top_field_first">0</property>
  <property name="meta.media.progressive">1</property>
 </producer>
 <producer id="producer259" in="00:00:00.000" out="00:00:30.767">
  <property name="length">1847</property>
  <property name="eof">pause</property>
  <property name="resource">/home/xiaoxiae/.cache/kdenlive/proxy/cdc4c994216112346e33609679458f01.mkv</property>
  <property name="meta.media.nb_streams">1</property>
  <property name="meta.media.0.stream.type">video</property>
  <property name="meta.media.0.stream.frame_rate">60</property>
  <property name="meta.media.0.stream.sample_aspect_ratio">0</property>
  <property name="meta.media.0.codec.width">640</property>
  <property name="meta.media.0.codec.height">360</property>
  <property name="meta.media.0.codec.rotate">0</property>
  <property name="meta.media.0.codec.pix_fmt">yuvj420p</property>
  <property name="meta.media.0.codec.sample_aspect_ratio">0</property>
  <property name="meta.media.0.codec.colorspace">601</property>
  <property name="meta.media.0.codec.name">mjpeg</property>
  <property name="meta.media.0.codec.long_name">MJPEG (Motion JPEG)</property>
  <property name="meta.media.0.codec.bit_rate">0</property>
  <property name="meta.attr.0.stream.HANDLER_NAME.markup">VideoHandler</property>
  <property name="meta.attr.0.stream.VENDOR_ID.markup">[0][0][0][0]</property>
  <property name="meta.attr.0.stream.ENCODER.markup">Lavc60.3.100 mjpeg</property>
  <property name="meta.attr.0.stream.DURATION.markup">00:00:30.784000000</property>
  <property name="meta.attr.COMMENT.markup">Rendered with Manim Community v0.17.2</property>
  <property name="meta.attr.MAJOR_BRAND.markup">isom</property>
  <property name="meta.attr.MINOR_VERSION.markup">512</property>
  <property name="meta.attr.COMPATIBLE_BRANDS.markup">isomiso2avc1mp41</property>
  <property name="meta.attr.ENCODER.markup">Lavf60.3.100</property>
  <property name="seekable">1</property>
  <property name="meta.media.sample_aspect_num">1</property>
  <property name="meta.media.sample_aspect_den">1</property>
  <property name="aspect_ratio">1</property>
  <property name="format">3</property>
  <property name="audio_index">-1</property>
  <property name="video_index">0</property>
  <property name="mute_on_pause">0</property>
  <property name="mlt_service">avformat-novalidate</property>
  <property name="kdenlive:clipname">Insertion.mp4</property>
  <property name="kdenlive:clip_type">2</property>
  <property name="kdenlive:folderid">333</property>
  <property name="kdenlive:id">336</property>
  <property name="kdenlive:file_size">5392077</property>
  <property name="kdenlive:file_hash">cdc4c994216112346e33609679458f01</property>
  <property name="kdenlive:proxy">/home/xiaoxiae/.cache/kdenlive/proxy/cdc4c994216112346e33609679458f01.mkv</property>
  <property name="kdenlive:originalurl">video/Insertion.mp4</property>
  <property name="kdenlive:original.mlt_type">producer</property>
  <property name="kdenlive:original.in">00:00:00.000</property>
  <property name="kdenlive:original.out">00:00:30.767</property>
  <property name="kdenlive:original.length">1847</property>
  <property name="kdenlive:original.eof">pause</property>
  <property name="kdenlive:original.resource">video/Insertion.mp4</property>
  <property name="kdenlive:original.meta.media.nb_streams">1</property>
  <property name="kdenlive:original.meta.media.0.stream.type">video</property>
  <property name="kdenlive:original.meta.media.0.stream.frame_rate">60</property>
  <property name="kdenlive:original.meta.media.0.stream.sample_aspect_ratio">0</property>
  <property name="kdenlive:original.meta.media.0.codec.width">3840</property>
  <property name="kdenlive:original.meta.media.0.codec.height">2160</property>
  <property name="kdenlive:original.meta.media.0.codec.rotate">0</property>
  <property name="kdenlive:original.meta.media.0.codec.pix_fmt">yuv420p</property>
  <property name="kdenlive:original.meta.media.0.codec.sample_aspect_ratio">0</property>
  <property name="kdenlive:original.meta.media.0.codec.colorspace">709</property>
  <property name="kdenlive:original.meta.media.0.codec.name">h264</property>
  <property name="kdenlive:original.meta.media.0.codec.long_name">H.264 / AVC / MPEG-4 AVC / MPEG-4 part 10</property>
  <property name="kdenlive:original.meta.media.0.codec.bit_rate">1395581</property>
  <property name="kdenlive:original.meta.attr.0.stream.handler_name.markup">VideoHandler</property>
  <property name="kdenlive:original.meta.attr.0.stream.vendor_id.markup">[0][0][0][0]</property>
  <property name="kdenlive:original.meta.attr.0.stream.encoder.markup">Lavc60.3.100 libx264</property>
  <property name="kdenlive:original.meta.attr.major_brand.markup">isom</property>
  <property name="kdenlive:original.meta.attr.minor_version.markup">512</property>
  <property name="kdenlive:original.meta.attr.compatible_brands.markup">isomiso2avc1mp41</property>
  <property name="kdenlive:original.meta.attr.encoder.markup">Lavf60.3.100</property>
  <property name="kdenlive:original.meta.attr.comment.markup">Rendered with Manim Community v0.17.2</property>
  <property name="kdenlive:original.seekable">1</property>
  <property name="kdenlive:original.width">3840</property>
  <property name="kdenlive:original.height">2160</property>
  <property name="kdenlive:original.meta.media.sample_aspect_num">1</property>
  <property name="kdenlive:original.meta.media.sample_aspect_den">1</property>
  <property name="kdenlive:original.aspect_ratio">1</property>
  <property name="kdenlive:original.format">3</property>
  <property name="kdenlive:original.audio_index">-1</property>
  <property name="kdenlive:original.video_index">0</property>
  <property name="kdenlive:original.mute_on_pause">0</property>
  <property name="kdenlive:original.mlt_service">avformat-novalidate</property>
  <property name="kdenlive:original.meta.media.frame_rate_num">60</property>
  <property name="kdenlive:original.meta.media.frame_rate_den">1</property>
  <property name="kdenlive:original.meta.media.colorspace">709</property>
  <property name="kdenlive:original.meta.media.color_trc">2</property>
  <property name="kdenlive:original.meta.media.has_b_frames">2</property>
  <property name="kdenlive:original.meta.media.width">3840</property>
  <property name="kdenlive:original.meta.media.height">2160</property>
  <property name="kdenlive:original.meta.media.color_range">mpeg</property>
  <property name="kdenlive:original.meta.media.top_field_first">0</property>
  <property name="kdenlive:original.meta.media.progressive">1</property>
  <property name="kdenlive:original.kdenlive:clip_type">2</property>
  <property name="kdenlive:original.kdenlive:folderid">333</property>
  <property name="kdenlive:original.kdenlive:id">338</property>
  <property name="kdenlive:original.kdenlive:file_size">5392077</property>
  <property name="kdenlive:original.kdenlive:file_hash">cdc4c994216112346e33609679458f01</property>
  <property name="kdenlive:original.backup">1</property>
  <property name="meta.media.frame_rate_num">60</property>
  <property name="meta.media.frame_rate_den">1</property>
  <property name="meta.media.colorspace">601</property>
  <property name="meta.media.color_trc">2</property>
  <property name="meta.media.has_b_frames">0</property>
  <property name="meta.media.width">640</property>
  <property name="meta.media.height">360</property>
  <property name="meta.media.color_range">full</property>
  <property name="meta.media.top_field_first">0</property>
  <property name="meta.media.progressive">1</property>
 </producer>
 <producer id="producer260" in="00:00:00.000" out="00:00:40.333">
  <property name="length">2421</property>
  <property name="eof">pause</property>
  <property name="resource">/home/xiaoxiae/.cache/kdenlive/proxy/fc35d97eb1f5ba9154d3a16ac78fed12.mkv</property>
  <property name="meta.media.nb_streams">1</property>
  <property name="meta.media.0.stream.type">video</property>
  <property name="meta.media.0.stream.frame_rate">60</property>
  <property name="meta.media.0.stream.sample_aspect_ratio">0</property>
  <property name="meta.media.0.codec.width">640</property>
  <property name="meta.media.0.codec.height">360</property>
  <property name="meta.media.0.codec.rotate">0</property>
  <property name="meta.media.0.codec.pix_fmt">yuvj420p</property>
  <property name="meta.media.0.codec.sample_aspect_ratio">0</property>
  <property name="meta.media.0.codec.colorspace">601</property>
  <property name="meta.media.0.codec.name">mjpeg</property>
  <property name="meta.media.0.codec.long_name">MJPEG (Motion JPEG)</property>
  <property name="meta.media.0.codec.bit_rate">0</property>
  <property name="meta.attr.0.stream.HANDLER_NAME.markup">VideoHandler</property>
  <property name="meta.attr.0.stream.VENDOR_ID.markup">[0][0][0][0]</property>
  <property name="meta.attr.0.stream.ENCODER.markup">Lavc60.3.100 mjpeg</property>
  <property name="meta.attr.0.stream.DURATION.markup">00:00:40.350000000</property>
  <property name="meta.attr.COMMENT.markup">Rendered with Manim Community v0.17.2</property>
  <property name="meta.attr.MAJOR_BRAND.markup">isom</property>
  <property name="meta.attr.MINOR_VERSION.markup">512</property>
  <property name="meta.attr.COMPATIBLE_BRANDS.markup">isomiso2avc1mp41</property>
  <property name="meta.attr.ENCODER.markup">Lavf60.3.100</property>
  <property name="seekable">1</property>
  <property name="meta.media.sample_aspect_num">1</property>
  <property name="meta.media.sample_aspect_den">1</property>
  <property name="aspect_ratio">1</property>
  <property name="format">3</property>
  <property name="audio_index">-1</property>
  <property name="video_index">0</property>
  <property name="mute_on_pause">0</property>
  <property name="mlt_service">avformat-novalidate</property>
  <property name="kdenlive:clipname">Intro.mp4</property>
  <property name="kdenlive:clip_type">2</property>
  <property name="kdenlive:folderid">333</property>
  <property name="kdenlive:id">337</property>
  <property name="kdenlive:file_size">6450563</property>
  <property name="kdenlive:file_hash">fc35d97eb1f5ba9154d3a16ac78fed12</property>
  <property name="kdenlive:proxy">/home/xiaoxiae/.cache/kdenlive/proxy/fc35d97eb1f5ba9154d3a16ac78fed12.mkv</property>
  <property name="kdenlive:originalurl">video/Intro.mp4</property>
  <property name="kdenlive:original.mlt_type">producer</property>
  <property name="kdenlive:original.in">00:00:00.000</property>
  <property name="kdenlive:original.out">00:00:40.333</property>
  <property name="kdenlive:original.length">2421</property>
  <property name="kdenlive:original.eof">pause</property>
  <property name="kdenlive:original.resource">video/Intro.mp4</property>
  <property name="kdenlive:original.meta.media.nb_streams">1</property>
  <property name="kdenlive:original.meta.media.0.stream.type">video</property>
  <property name="kdenlive:original.meta.media.0.stream.frame_rate">60</property>
  <property name="kdenlive:original.meta.media.0.stream.sample_aspect_ratio">0</property>
  <property name="kdenlive:original.meta.media.0.codec.width">3840</property>
  <property name="kdenlive:original.meta.media.0.codec.height">2160</property>
  <property name="kdenlive:original.meta.media.0.codec.rotate">0</property>
  <property name="kdenlive:original.meta.media.0.codec.pix_fmt">yuv420p</property>
  <property name="kdenlive:original.meta.media.0.codec.sample_aspect_ratio">0</property>
  <property name="kdenlive:original.meta.media.0.codec.colorspace">709</property>
  <property name="kdenlive:original.meta.media.0.codec.name">h264</property>
  <property name="kdenlive:original.meta.media.0.codec.long_name">H.264 / AVC / MPEG-4 AVC / MPEG-4 part 10</property>
  <property name="kdenlive:original.meta.media.0.codec.bit_rate">1273379</property>
  <property name="kdenlive:original.meta.attr.0.stream.handler_name.markup">VideoHandler</property>
  <property name="kdenlive:original.meta.attr.0.stream.vendor_id.markup">[0][0][0][0]</property>
  <property name="kdenlive:original.meta.attr.0.stream.encoder.markup">Lavc60.3.100 libx264</property>
  <property name="kdenlive:original.meta.attr.major_brand.markup">isom</property>
  <property name="kdenlive:original.meta.attr.minor_version.markup">512</property>
  <property name="kdenlive:original.meta.attr.compatible_brands.markup">isomiso2avc1mp41</property>
  <property name="kdenlive:original.meta.attr.encoder.markup">Lavf60.3.100</property>
  <property name="kdenlive:original.meta.attr.comment.markup">Rendered with Manim Community v0.17.2</property>
  <property name="kdenlive:original.seekable">1</property>
  <property name="kdenlive:original.width">3840</property>
  <property name="kdenlive:original.height">2160</property>
  <property name="kdenlive:original.meta.media.sample_aspect_num">1</property>
  <property name="kdenlive:original.meta.media.sample_aspect_den">1</property>
  <property name="kdenlive:original.aspect_ratio">1</property>
  <property name="kdenlive:original.format">3</property>
  <property name="kdenlive:original.audio_index">-1</property>
  <property name="kdenlive:original.video_index">0</property>
  <property name="kdenlive:original.mute_on_pause">0</property>
  <property name="kdenlive:original.mlt_service">avformat-novalidate</property>
  <property name="kdenlive:original.meta.media.frame_rate_num">60</property>
  <property name="kdenlive:original.meta.media.frame_rate_den">1</property>
  <property name="kdenlive:original.meta.media.colorspace">709</property>
  <property name="kdenlive:original.meta.media.color_trc">2</property>
  <property name="kdenlive:original.meta.media.has_b_frames">2</property>
  <property name="kdenlive:original.meta.media.width">3840</property>
  <property name="kdenlive:original.meta.media.height">2160</property>
  <property name="kdenlive:original.meta.media.color_range">mpeg</property>
  <property name="kdenlive:original.meta.media.top_field_first">0</property>
  <property name="kdenlive:original.meta.media.progressive">1</property>
  <property name="kdenlive:original.kdenlive:clip_type">2</property>
  <property name="kdenlive:original.kdenlive:folderid">333</property>
  <property name="kdenlive:original.kdenlive:id">339</property>
  <property name="kdenlive:original.kdenlive:file_size">6450563</property>
  <property name="kdenlive:original.kdenlive:file_hash">fc35d97eb1f5ba9154d3a16ac78fed12</property>
  <property name="kdenlive:original.backup">1</property>
  <property name="meta.media.frame_rate_num">60</property>
  <property name="meta.media.frame_rate_den">1</property>
  <property name="meta.media.colorspace">601</property>
  <property name="meta.media.color_trc">2</property>
  <property name="meta.media.has_b_frames">0</property>
  <property name="meta.media.width">640</property>
  <property name="meta.media.height">360</property>
  <property name="meta.media.color_range">full</property>
  <property name="meta.media.top_field_first">0</property>
  <property name="meta.media.progressive">1</property>
 </producer>
 <producer id="producer262" in="00:00:00.000" out="00:00:23.983">
  <property name="length">1440</property>
  <property name="eof">pause</property>
  <property name="resource">/home/xiaoxiae/.cache/kdenlive/proxy/84f5a70524c08e67dfebe4179ef1da5a.mkv</property>
  <property name="meta.media.nb_streams">1</property>
  <property name="meta.media.0.stream.type">video</property>
  <property name="meta.media.0.stream.frame_rate">60</property>
  <property name="meta.media.0.stream.sample_aspect_ratio">0</property>
  <property name="meta.media.0.codec.width">640</property>
  <property name="meta.media.0.codec.height">360</property>
  <property name="meta.media.0.codec.rotate">0</property>
  <property name="meta.media.0.codec.pix_fmt">yuvj420p</property>
  <property name="meta.media.0.codec.sample_aspect_ratio">0</property>
  <property name="meta.media.0.codec.colorspace">601</property>
  <property name="meta.media.0.codec.name">mjpeg</property>
  <property name="meta.media.0.codec.long_name">MJPEG (Motion JPEG)</property>
  <property name="meta.media.0.codec.bit_rate">0</property>
  <property name="meta.attr.0.stream.HANDLER_NAME.markup">VideoHandler</property>
  <property name="meta.attr.0.stream.VENDOR_ID.markup">[0][0][0][0]</property>
  <property name="meta.attr.0.stream.ENCODER.markup">Lavc60.3.100 mjpeg</property>
  <property name="meta.attr.0.stream.DURATION.markup">00:00:24.000000000</property>
  <property name="meta.attr.COMMENT.markup">Rendered with Manim Community v0.17.2</property>
  <property name="meta.attr.MAJOR_BRAND.markup">isom</property>
  <property name="meta.attr.MINOR_VERSION.markup">512</property>
  <property name="meta.attr.COMPATIBLE_BRANDS.markup">isomiso2avc1mp41</property>
  <property name="meta.attr.ENCODER.markup">Lavf60.3.100</property>
  <property name="seekable">1</property>
  <property name="meta.media.sample_aspect_num">1</property>
  <property name="meta.media.sample_aspect_den">1</property>
  <property name="aspect_ratio">1</property>
  <property name="format">3</property>
  <property name="audio_index">-1</property>
  <property name="video_index">0</property>
  <property name="mute_on_pause">0</property>
  <property name="mlt_service">avformat-novalidate</property>
  <property name="kdenlive:clipname">Search.mp4</property>
  <property name="kdenlive:clip_type">2</property>
  <property name="kdenlive:folderid">333</property>
  <property name="kdenlive:id">338</property>
  <property name="kdenlive:file_size">2629782</property>
  <property name="kdenlive:file_hash">84f5a70524c08e67dfebe4179ef1da5a</property>
  <property name="kdenlive:proxy">/home/xiaoxiae/.cache/kdenlive/proxy/84f5a70524c08e67dfebe4179ef1da5a.mkv</property>
  <property name="kdenlive:originalurl">video/Search.mp4</property>
  <property name="kdenlive:original.mlt_type">producer</property>
  <property name="kdenlive:original.in">00:00:00.000</property>
  <property name="kdenlive:original.out">00:00:23.983</property>
  <property name="kdenlive:original.length">1440</property>
  <property name="kdenlive:original.eof">pause</property>
  <property name="kdenlive:original.resource">video/Search.mp4</property>
  <property name="kdenlive:original.meta.media.nb_streams">1</property>
  <property name="kdenlive:original.meta.media.0.stream.type">video</property>
  <property name="kdenlive:original.meta.media.0.stream.frame_rate">60</property>
  <property name="kdenlive:original.meta.media.0.stream.sample_aspect_ratio">0</property>
  <property name="kdenlive:original.meta.media.0.codec.width">3840</property>
  <property name="kdenlive:original.meta.media.0.codec.height">2160</property>
  <property name="kdenlive:original.meta.media.0.codec.rotate">0</property>
  <property name="kdenlive:original.meta.media.0.codec.pix_fmt">yuv420p</property>
  <property name="kdenlive:original.meta.media.0.codec.sample_aspect_ratio">0</property>
  <property name="kdenlive:original.meta.media.0.codec.colorspace">709</property>
  <property name="kdenlive:original.meta.media.0.codec.name">h264</property>
  <property name="kdenlive:original.meta.media.0.codec.long_name">H.264 / AVC / MPEG-4 AVC / MPEG-4 part 10</property>
  <property name="kdenlive:original.meta.media.0.codec.bit_rate">870687</property>
  <property name="kdenlive:original.meta.attr.0.stream.handler_name.markup">VideoHandler</property>
  <property name="kdenlive:original.meta.attr.0.stream.vendor_id.markup">[0][0][0][0]</property>
  <property name="kdenlive:original.meta.attr.0.stream.encoder.markup">Lavc60.3.100 libx264</property>
  <property name="kdenlive:original.meta.attr.major_brand.markup">isom</property>
  <property name="kdenlive:original.meta.attr.minor_version.markup">512</property>
  <property name="kdenlive:original.meta.attr.compatible_brands.markup">isomiso2avc1mp41</property>
  <property name="kdenlive:original.meta.attr.encoder.markup">Lavf60.3.100</property>
  <property name="kdenlive:original.meta.attr.comment.markup">Rendered with Manim Community v0.17.2</property>
  <property name="kdenlive:original.seekable">1</property>
  <property name="kdenlive:original.width">3840</property>
  <property name="kdenlive:original.height">2160</property>
  <property name="kdenlive:original.meta.media.sample_aspect_num">1</property>
  <property name="kdenlive:original.meta.media.sample_aspect_den">1</property>
  <property name="kdenlive:original.aspect_ratio">1</property>
  <property name="kdenlive:original.format">3</property>
  <property name="kdenlive:original.audio_index">-1</property>
  <property name="kdenlive:original.video_index">0</property>
  <property name="kdenlive:original.mute_on_pause">0</property>
  <property name="kdenlive:original.mlt_service">avformat-novalidate</property>
  <property name="kdenlive:original.meta.media.frame_rate_num">60</property>
  <property name="kdenlive:original.meta.media.frame_rate_den">1</property>
  <property name="kdenlive:original.meta.media.colorspace">709</property>
  <property name="kdenlive:original.meta.media.color_trc">2</property>
  <property name="kdenlive:original.meta.media.has_b_frames">2</property>
  <property name="kdenlive:original.meta.media.width">3840</property>
  <property name="kdenlive:original.meta.media.height">2160</property>
  <property name="kdenlive:original.meta.media.color_range">mpeg</property>
  <property name="kdenlive:original.meta.media.top_field_first">0</property>
  <property name="kdenlive:original.meta.media.progressive">1</property>
  <property name="kdenlive:original.kdenlive:clip_type">2</property>
  <property name="kdenlive:original.kdenlive:folderid">333</property>
  <property name="kdenlive:original.kdenlive:id">340</property>
  <property name="kdenlive:original.kdenlive:file_size">2629782</property>
  <property name="kdenlive:original.kdenlive:file_hash">84f5a70524c08e67dfebe4179ef1da5a</property>
  <property name="kdenlive:original.backup">1</property>
  <property name="meta.media.frame_rate_num">60</property>
  <property name="meta.media.frame_rate_den">1</property>
  <property name="meta.media.colorspace">601</property>
  <property name="meta.media.color_trc">2</property>
  <property name="meta.media.has_b_frames">0</property>
  <property name="meta.media.width">640</property>
  <property name="meta.media.height">360</property>
  <property name="meta.media.color_range">full</property>
  <property name="meta.media.top_field_first">0</property>
  <property name="meta.media.progressive">1</property>
 </producer>
 <producer id="producer263" in="00:00:00.000" out="00:00:21.467">
  <property name="length">1289</property>
  <property name="eof">pause</property>
  <property name="resource">/home/xiaoxiae/.cache/kdenlive/proxy/6098b0cceac92ee6cf38796e71332931.mkv</property>
  <property name="meta.media.nb_streams">1</property>
  <property name="meta.media.0.stream.type">video</property>
  <property name="meta.media.0.stream.frame_rate">60</property>
  <property name="meta.media.0.stream.sample_aspect_ratio">0</property>
  <property name="meta.media.0.codec.width">640</property>
  <property name="meta.media.0.codec.height">360</property>
  <property name="meta.media.0.codec.rotate">0</property>
  <property name="meta.media.0.codec.pix_fmt">yuvj420p</property>
  <property name="meta.media.0.codec.sample_aspect_ratio">0</property>
  <property name="meta.media.0.codec.colorspace">601</property>
  <property name="meta.media.0.codec.name">mjpeg</property>
  <property name="meta.media.0.codec.long_name">MJPEG (Motion JPEG)</property>
  <property name="meta.media.0.codec.bit_rate">0</property>
  <property name="meta.attr.0.stream.HANDLER_NAME.markup">VideoHandler</property>
  <property name="meta.attr.0.stream.VENDOR_ID.markup">[0][0][0][0]</property>
  <property name="meta.attr.0.stream.ENCODER.markup">Lavc60.3.100 mjpeg</property>
  <property name="meta.attr.0.stream.DURATION.markup">00:00:21.484000000</property>
  <property name="meta.attr.COMMENT.markup">Rendered with Manim Community v0.17.2</property>
  <property name="meta.attr.MAJOR_BRAND.markup">isom</property>
  <property name="meta.attr.MINOR_VERSION.markup">512</property>
  <property name="meta.attr.COMPATIBLE_BRANDS.markup">isomiso2avc1mp41</property>
  <property name="meta.attr.ENCODER.markup">Lavf60.3.100</property>
  <property name="seekable">1</property>
  <property name="meta.media.sample_aspect_num">1</property>
  <property name="meta.media.sample_aspect_den">1</property>
  <property name="aspect_ratio">1</property>
  <property name="format">3</property>
  <property name="audio_index">-1</property>
  <property name="video_index">0</property>
  <property name="mute_on_pause">0</property>
  <property name="mlt_service">avformat-novalidate</property>
  <property name="kdenlive:clipname">SelectingAB.mp4</property>
  <property name="kdenlive:clip_type">2</property>
  <property name="kdenlive:folderid">333</property>
  <property name="kdenlive:id">339</property>
  <property name="kdenlive:file_size">4373699</property>
  <property name="kdenlive:file_hash">6098b0cceac92ee6cf38796e71332931</property>
  <property name="kdenlive:proxy">/home/xiaoxiae/.cache/kdenlive/proxy/6098b0cceac92ee6cf38796e71332931.mkv</property>
  <property name="kdenlive:originalurl">video/SelectingAB.mp4</property>
  <property name="kdenlive:original.mlt_type">producer</property>
  <property name="kdenlive:original.in">00:00:00.000</property>
  <property name="kdenlive:original.out">00:00:21.467</property>
  <property name="kdenlive:original.length">1289</property>
  <property name="kdenlive:original.eof">pause</property>
  <property name="kdenlive:original.resource">video/SelectingAB.mp4</property>
  <property name="kdenlive:original.meta.media.nb_streams">1</property>
  <property name="kdenlive:original.meta.media.0.stream.type">video</property>
  <property name="kdenlive:original.meta.media.0.stream.frame_rate">60</property>
  <property name="kdenlive:original.meta.media.0.stream.sample_aspect_ratio">0</property>
  <property name="kdenlive:original.meta.media.0.codec.width">3840</property>
  <property name="kdenlive:original.meta.media.0.codec.height">2160</property>
  <property name="kdenlive:original.meta.media.0.codec.rotate">0</property>
  <property name="kdenlive:original.meta.media.0.codec.pix_fmt">yuv420p</property>
  <property name="kdenlive:original.meta.media.0.codec.sample_aspect_ratio">0</property>
  <property name="kdenlive:original.meta.media.0.codec.colorspace">709</property>
  <property name="kdenlive:original.meta.media.0.codec.name">h264</property>
  <property name="kdenlive:original.meta.media.0.codec.long_name">H.264 / AVC / MPEG-4 AVC / MPEG-4 part 10</property>
  <property name="kdenlive:original.meta.media.0.codec.bit_rate">1623351</property>
  <property name="kdenlive:original.meta.attr.0.stream.handler_name.markup">VideoHandler</property>
  <property name="kdenlive:original.meta.attr.0.stream.vendor_id.markup">[0][0][0][0]</property>
  <property name="kdenlive:original.meta.attr.0.stream.encoder.markup">Lavc60.3.100 libx264</property>
  <property name="kdenlive:original.meta.attr.major_brand.markup">isom</property>
  <property name="kdenlive:original.meta.attr.minor_version.markup">512</property>
  <property name="kdenlive:original.meta.attr.compatible_brands.markup">isomiso2avc1mp41</property>
  <property name="kdenlive:original.meta.attr.encoder.markup">Lavf60.3.100</property>
  <property name="kdenlive:original.meta.attr.comment.markup">Rendered with Manim Community v0.17.2</property>
  <property name="kdenlive:original.seekable">1</property>
  <property name="kdenlive:original.width">3840</property>
  <property name="kdenlive:original.height">2160</property>
  <property name="kdenlive:original.meta.media.sample_aspect_num">1</property>
  <property name="kdenlive:original.meta.media.sample_aspect_den">1</property>
  <property name="kdenlive:original.aspect_ratio">1</property>
  <property name="kdenlive:original.format">3</property>
  <property name="kdenlive:original.audio_index">-1</property>
  <property name="kdenlive:original.video_index">0</property>
  <property name="kdenlive:original.mute_on_pause">0</property>
  <property name="kdenlive:original.mlt_service">avformat-novalidate</property>
  <property name="kdenlive:original.meta.media.frame_rate_num">60</property>
  <property name="kdenlive:original.meta.media.frame_rate_den">1</property>
  <property name="kdenlive:original.meta.media.colorspace">709</property>
  <property name="kdenlive:original.meta.media.color_trc">2</property>
  <property name="kdenlive:original.meta.media.has_b_frames">2</property>
  <property name="kdenlive:original.meta.media.width">3840</property>
  <property name="kdenlive:original.meta.media.height">2160</property>
  <property name="kdenlive:original.meta.media.color_range">mpeg</property>
  <property name="kdenlive:original.meta.media.top_field_first">0</property>
  <property name="kdenlive:original.meta.media.progressive">1</property>
  <property name="kdenlive:original.kdenlive:clip_type">2</property>
  <property name="kdenlive:original.kdenlive:folderid">333</property>
  <property name="kdenlive:original.kdenlive:id">341</property>
  <property name="kdenlive:original.kdenlive:file_size">4373699</property>
  <property name="kdenlive:original.kdenlive:file_hash">6098b0cceac92ee6cf38796e71332931</property>
  <property name="kdenlive:original.backup">1</property>
  <property name="meta.media.frame_rate_num">60</property>
  <property name="meta.media.frame_rate_den">1</property>
  <property name="meta.media.colorspace">601</property>
  <property name="meta.media.color_trc">2</property>
  <property name="meta.media.has_b_frames">0</property>
  <property name="meta.media.width">640</property>
  <property name="meta.media.height">360</property>
  <property name="meta.media.color_range">full</property>
  <property name="meta.media.top_field_first">0</property>
  <property name="meta.media.progressive">1</property>
 </producer>
 <producer id="producer264" in="00:00:00.000" out="00:00:09.483">
  <property name="length">570</property>
  <property name="eof">pause</property>
  <property name="resource">/home/xiaoxiae/.cache/kdenlive/proxy/45bf386913a736956dcc72b681796eab.mkv</property>
  <property name="meta.media.nb_streams">1</property>
  <property name="meta.media.0.stream.type">video</property>
  <property name="meta.media.0.stream.frame_rate">60</property>
  <property name="meta.media.0.stream.sample_aspect_ratio">0</property>
  <property name="meta.media.0.codec.width">640</property>
  <property name="meta.media.0.codec.height">360</property>
  <property name="meta.media.0.codec.rotate">0</property>
  <property name="meta.media.0.codec.pix_fmt">yuvj420p</property>
  <property name="meta.media.0.codec.sample_aspect_ratio">0</property>
  <property name="meta.media.0.codec.colorspace">601</property>
  <property name="meta.media.0.codec.name">mjpeg</property>
  <property name="meta.media.0.codec.long_name">MJPEG (Motion JPEG)</property>
  <property name="meta.media.0.codec.bit_rate">0</property>
  <property name="meta.attr.0.stream.HANDLER_NAME.markup">VideoHandler</property>
  <property name="meta.attr.0.stream.VENDOR_ID.markup">[0][0][0][0]</property>
  <property name="meta.attr.0.stream.ENCODER.markup">Lavc60.3.100 mjpeg</property>
  <property name="meta.attr.0.stream.DURATION.markup">00:00:09.500000000</property>
  <property name="meta.attr.COMMENT.markup">Rendered with Manim Community v0.17.2</property>
  <property name="meta.attr.MAJOR_BRAND.markup">isom</property>
  <property name="meta.attr.MINOR_VERSION.markup">512</property>
  <property name="meta.attr.COMPATIBLE_BRANDS.markup">isomiso2avc1mp41</property>
  <property name="meta.attr.ENCODER.markup">Lavf60.3.100</property>
  <property name="seekable">1</property>
  <property name="meta.media.sample_aspect_num">1</property>
  <property name="meta.media.sample_aspect_den">1</property>
  <property name="aspect_ratio">1</property>
  <property name="format">3</property>
  <property name="audio_index">-1</property>
  <property name="video_index">0</property>
  <property name="mute_on_pause">0</property>
  <property name="mlt_service">avformat-novalidate</property>
  <property name="kdenlive:clipname">Summary.mp4</property>
  <property name="kdenlive:clip_type">2</property>
  <property name="kdenlive:folderid">333</property>
  <property name="kdenlive:id">340</property>
  <property name="kdenlive:file_size">703421</property>
  <property name="kdenlive:file_hash">45bf386913a736956dcc72b681796eab</property>
  <property name="kdenlive:proxy">/home/xiaoxiae/.cache/kdenlive/proxy/45bf386913a736956dcc72b681796eab.mkv</property>
  <property name="kdenlive:originalurl">video/Summary.mp4</property>
  <property name="kdenlive:original.mlt_type">producer</property>
  <property name="kdenlive:original.in">00:00:00.000</property>
  <property name="kdenlive:original.out">00:00:09.483</property>
  <property name="kdenlive:original.length">570</property>
  <property name="kdenlive:original.eof">pause</property>
  <property name="kdenlive:original.resource">video/Summary.mp4</property>
  <property name="kdenlive:original.meta.media.nb_streams">1</property>
  <property name="kdenlive:original.meta.media.0.stream.type">video</property>
  <property name="kdenlive:original.meta.media.0.stream.frame_rate">60</property>
  <property name="kdenlive:original.meta.media.0.stream.sample_aspect_ratio">0</property>
  <property name="kdenlive:original.meta.media.0.codec.width">3840</property>
  <property name="kdenlive:original.meta.media.0.codec.height">2160</property>
  <property name="kdenlive:original.meta.media.0.codec.rotate">0</property>
  <property name="kdenlive:original.meta.media.0.codec.pix_fmt">yuv420p</property>
  <property name="kdenlive:original.meta.media.0.codec.sample_aspect_ratio">0</property>
  <property name="kdenlive:original.meta.media.0.codec.colorspace">709</property>
  <property name="kdenlive:original.meta.media.0.codec.name">h264</property>
  <property name="kdenlive:original.meta.media.0.codec.long_name">H.264 / AVC / MPEG-4 AVC / MPEG-4 part 10</property>
  <property name="kdenlive:original.meta.media.0.codec.bit_rate">585877</property>
  <property name="kdenlive:original.meta.attr.0.stream.handler_name.markup">VideoHandler</property>
  <property name="kdenlive:original.meta.attr.0.stream.vendor_id.markup">[0][0][0][0]</property>
  <property name="kdenlive:original.meta.attr.0.stream.encoder.markup">Lavc60.3.100 libx264</property>
  <property name="kdenlive:original.meta.attr.major_brand.markup">isom</property>
  <property name="kdenlive:original.meta.attr.minor_version.markup">512</property>
  <property name="kdenlive:original.meta.attr.compatible_brands.markup">isomiso2avc1mp41</property>
  <property name="kdenlive:original.meta.attr.encoder.markup">Lavf60.3.100</property>
  <property name="kdenlive:original.meta.attr.comment.markup">Rendered with Manim Community v0.17.2</property>
  <property name="kdenlive:original.seekable">1</property>
  <property name="kdenlive:original.width">3840</property>
  <property name="kdenlive:original.height">2160</property>
  <property name="kdenlive:original.meta.media.sample_aspect_num">1</property>
  <property name="kdenlive:original.meta.media.sample_aspect_den">1</property>
  <property name="kdenlive:original.aspect_ratio">1</property>
  <property name="kdenlive:original.format">3</property>
  <property name="kdenlive:original.audio_index">-1</property>
  <property name="kdenlive:original.video_index">0</property>
  <property name="kdenlive:original.mute_on_pause">0</property>
  <property name="kdenlive:original.mlt_service">avformat-novalidate</property>
  <property name="kdenlive:original.meta.media.frame_rate_num">60</property>
  <property name="kdenlive:original.meta.media.frame_rate_den">1</property>
  <property name="kdenlive:original.meta.media.colorspace">709</property>
  <property name="kdenlive:original.meta.media.color_trc">2</property>
  <property name="kdenlive:original.meta.media.has_b_frames">2</property>
  <property name="kdenlive:original.meta.media.width">3840</property>
  <property name="kdenlive:original.meta.media.height">2160</property>
  <property name="kdenlive:original.meta.media.color_range">mpeg</property>
  <property name="kdenlive:original.meta.media.top_field_first">0</property>
  <property name="kdenlive:original.meta.media.progressive">1</property>
  <property name="kdenlive:original.kdenlive:clip_type">2</property>
  <property name="kdenlive:original.kdenlive:folderid">333</property>
  <property name="kdenlive:original.kdenlive:id">342</property>
  <property name="kdenlive:original.kdenlive:file_size">703421</property>
  <property name="kdenlive:original.kdenlive:file_hash">45bf386913a736956dcc72b681796eab</property>
  <property name="kdenlive:original.backup">1</property>
  <property name="meta.media.frame_rate_num">60</property>
  <property name="meta.media.frame_rate_den">1</property>
  <property name="meta.media.colorspace">601</property>
  <property name="meta.media.color_trc">2</property>
  <property name="meta.media.has_b_frames">0</property>
  <property name="meta.media.width">640</property>
  <property name="meta.media.height">360</property>
  <property name="meta.media.color_range">full</property>
  <property name="meta.media.top_field_first">0</property>
  <property name="meta.media.progressive">1</property>
 </producer>
 <producer id="producer265" in="00:00:00.000" out="00:00:00.983">
  <property name="length">60</property>
  <property name="eof">pause</property>
  <property name="resource">/home/xiaoxiae/.cache/kdenlive/proxy/c2bce47086c0c69484e8a73969faecc8.mkv</property>
  <property name="meta.media.nb_streams">1</property>
  <property name="meta.media.0.stream.type">video</property>
  <property name="meta.media.0.stream.frame_rate">60</property>
  <property name="meta.media.0.stream.sample_aspect_ratio">0</property>
  <property name="meta.media.0.codec.width">640</property>
  <property name="meta.media.0.codec.height">360</property>
  <property name="meta.media.0.codec.rotate">0</property>
  <property name="meta.media.0.codec.pix_fmt">yuvj420p</property>
  <property name="meta.media.0.codec.sample_aspect_ratio">0</property>
  <property name="meta.media.0.codec.colorspace">601</property>
  <property name="meta.media.0.codec.name">mjpeg</property>
  <property name="meta.media.0.codec.long_name">MJPEG (Motion JPEG)</property>
  <property name="meta.media.0.codec.bit_rate">0</property>
  <property name="meta.attr.0.stream.HANDLER_NAME.markup">VideoHandler</property>
  <property name="meta.attr.0.stream.VENDOR_ID.markup">[0][0][0][0]</property>
  <property name="meta.attr.0.stream.ENCODER.markup">Lavc60.3.100 mjpeg</property>
  <property name="meta.attr.0.stream.DURATION.markup">00:00:01.000000000</property>
  <property name="meta.attr.COMMENT.markup">Rendered with Manim Community v0.17.2</property>
  <property name="meta.attr.MAJOR_BRAND.markup">isom</property>
  <property name="meta.attr.MINOR_VERSION.markup">512</property>
  <property name="meta.attr.COMPATIBLE_BRANDS.markup">isomiso2avc1mp41</property>
  <property name="meta.attr.ENCODER.markup">Lavf60.3.100</property>
  <property name="seekable">1</property>
  <property name="meta.media.sample_aspect_num">1</property>
  <property name="meta.media.sample_aspect_den">1</property>
  <property name="aspect_ratio">1</property>
  <property name="format">3</property>
  <property name="audio_index">-1</property>
  <property name="video_index">0</property>
  <property name="mute_on_pause">0</property>
  <property name="mlt_service">avformat-novalidate</property>
  <property name="kdenlive:clipname">Thumbnail.mp4</property>
  <property name="kdenlive:clip_type">2</property>
  <property name="kdenlive:folderid">333</property>
  <property name="kdenlive:id">341</property>
  <property name="kdenlive:file_size">143525</property>
  <property name="kdenlive:file_hash">c2bce47086c0c69484e8a73969faecc8</property>
  <property name="kdenlive:proxy">/home/xiaoxiae/.cache/kdenlive/proxy/c2bce47086c0c69484e8a73969faecc8.mkv</property>
  <property name="kdenlive:originalurl">video/Thumbnail.mp4</property>
  <property name="kdenlive:original.mlt_type">producer</property>
  <property name="kdenlive:original.in">00:00:00.000</property>
  <property name="kdenlive:original.out">00:00:00.983</property>
  <property name="kdenlive:original.length">60</property>
  <property name="kdenlive:original.eof">pause</property>
  <property name="kdenlive:original.resource">video/Thumbnail.mp4</property>
  <property name="kdenlive:original.meta.media.nb_streams">1</property>
  <property name="kdenlive:original.meta.media.0.stream.type">video</property>
  <property name="kdenlive:original.meta.media.0.stream.frame_rate">60</property>
  <property name="kdenlive:original.meta.media.0.stream.sample_aspect_ratio">0</property>
  <property name="kdenlive:original.meta.media.0.codec.width">3840</property>
  <property name="kdenlive:original.meta.media.0.codec.height">2160</property>
  <property name="kdenlive:original.meta.media.0.codec.rotate">0</property>
  <property name="kdenlive:original.meta.media.0.codec.pix_fmt">yuv420p</property>
  <property name="kdenlive:original.meta.media.0.codec.sample_aspect_ratio">0</property>
  <property name="kdenlive:original.meta.media.0.codec.colorspace">709</property>
  <property name="kdenlive:original.meta.media.0.codec.name">h264</property>
  <property name="kdenlive:original.meta.media.0.codec.long_name">H.264 / AVC / MPEG-4 AVC / MPEG-4 part 10</property>
  <property name="kdenlive:original.meta.media.0.codec.bit_rate">1135152</property>
  <property name="kdenlive:original.meta.attr.0.stream.handler_name.markup">VideoHandler</property>
  <property name="kdenlive:original.meta.attr.0.stream.vendor_id.markup">[0][0][0][0]</property>
  <property name="kdenlive:original.meta.attr.0.stream.encoder.markup">Lavc60.3.100 libx264</property>
  <property name="kdenlive:original.meta.attr.major_brand.markup">isom</property>
  <property name="kdenlive:original.meta.attr.minor_version.markup">512</property>
  <property name="kdenlive:original.meta.attr.compatible_brands.markup">isomiso2avc1mp41</property>
  <property name="kdenlive:original.meta.attr.encoder.markup">Lavf60.3.100</property>
  <property name="kdenlive:original.meta.attr.comment.markup">Rendered with Manim Community v0.17.2</property>
  <property name="kdenlive:original.seekable">1</property>
  <property name="kdenlive:original.width">3840</property>
  <property name="kdenlive:original.height">2160</property>
  <property name="kdenlive:original.meta.media.sample_aspect_num">1</property>
  <property name="kdenlive:original.meta.media.sample_aspect_den">1</property>
  <property name="kdenlive:original.aspect_ratio">1</property>
  <property name="kdenlive:original.format">3</property>
  <property name="kdenlive:original.audio_index">-1</property>
  <property name="kdenlive:original.video_index">0</property>
  <property name="kdenlive:original.mute_on_pause">0</property>
  <property name="kdenlive:original.mlt_service">avformat-novalidate</property>
  <property name="kdenlive:original.meta.media.frame_rate_num">60</property>
  <property name="kdenlive:original.meta.media.frame_rate_den">1</property>
  <property name="kdenlive:original.meta.media.colorspace">709</property>
  <property name="kdenlive:original.meta.media.color_trc">2</property>
  <property name="kdenlive:original.meta.media.has_b_frames">2</property>
  <property name="kdenlive:original.meta.media.width">3840</property>
  <property name="kdenlive:original.meta.media.height">2160</property>
  <property name="kdenlive:original.meta.media.color_range">mpeg</property>
  <property name="kdenlive:original.meta.media.top_field_first">0</property>
  <property name="kdenlive:original.meta.media.progressive">1</property>
  <property name="kdenlive:original.kdenlive:clip_type">2</property>
  <property name="kdenlive:original.kdenlive:folderid">333</property>
  <property name="kdenlive:original.kdenlive:id">343</property>
  <property name="kdenlive:original.kdenlive:file_size">143525</property>
  <property name="kdenlive:original.kdenlive:file_hash">c2bce47086c0c69484e8a73969faecc8</property>
  <property name="kdenlive:original.backup">1</property>
  <property name="meta.media.frame_rate_num">60</property>
  <property name="meta.media.frame_rate_den">1</property>
  <property name="meta.media.colorspace">601</property>
  <property name="meta.media.color_trc">2</property>
  <property name="meta.media.has_b_frames">0</property>
  <property name="meta.media.width">640</property>
  <property name="meta.media.height">360</property>
  <property name="meta.media.color_range">full</property>
  <property name="meta.media.top_field_first">0</property>
  <property name="meta.media.progressive">1</property>
 </producer>
 <producer id="producer267" in="00:00:00.000" out="00:00:01.983">
  <property name="length">120</property>
  <property name="eof">pause</property>
  <property name="resource">/home/xiaoxiae/.cache/kdenlive/proxy/d7dbe6b3d8711896db854adefcd19c17.mkv</property>
  <property name="meta.media.nb_streams">1</property>
  <property name="meta.media.0.stream.type">video</property>
  <property name="meta.media.0.stream.frame_rate">60</property>
  <property name="meta.media.0.stream.sample_aspect_ratio">0</property>
  <property name="meta.media.0.codec.width">640</property>
  <property name="meta.media.0.codec.height">360</property>
  <property name="meta.media.0.codec.rotate">0</property>
  <property name="meta.media.0.codec.pix_fmt">yuvj420p</property>
  <property name="meta.media.0.codec.sample_aspect_ratio">0</property>
  <property name="meta.media.0.codec.colorspace">601</property>
  <property name="meta.media.0.codec.name">mjpeg</property>
  <property name="meta.media.0.codec.long_name">MJPEG (Motion JPEG)</property>
  <property name="meta.media.0.codec.bit_rate">0</property>
  <property name="meta.attr.0.stream.HANDLER_NAME.markup">VideoHandler</property>
  <property name="meta.attr.0.stream.VENDOR_ID.markup">[0][0][0][0]</property>
  <property name="meta.attr.0.stream.ENCODER.markup">Lavc60.3.100 mjpeg</property>
  <property name="meta.attr.0.stream.DURATION.markup">00:00:02.000000000</property>
  <property name="meta.attr.COMMENT.markup">Rendered with Manim Community v0.17.2</property>
  <property name="meta.attr.MAJOR_BRAND.markup">isom</property>
  <property name="meta.attr.MINOR_VERSION.markup">512</property>
  <property name="meta.attr.COMPATIBLE_BRANDS.markup">isomiso2avc1mp41</property>
  <property name="meta.attr.ENCODER.markup">Lavf60.3.100</property>
  <property name="seekable">1</property>
  <property name="meta.media.sample_aspect_num">1</property>
  <property name="meta.media.sample_aspect_den">1</property>
  <property name="aspect_ratio">1</property>
  <property name="format">3</property>
  <property name="audio_index">-1</property>
  <property name="video_index">0</property>
  <property name="mute_on_pause">0</property>
  <property name="mlt_service">avformat-novalidate</property>
  <property name="kdenlive:clipname">1.mp4</property>
  <property name="kdenlive:clip_type">2</property>
  <property name="kdenlive:folderid">344</property>
  <property name="kdenlive:id">342</property>
  <property name="kdenlive:file_size">192674</property>
  <property name="kdenlive:file_hash">d7dbe6b3d8711896db854adefcd19c17</property>
  <property name="kdenlive:proxy">/home/xiaoxiae/.cache/kdenlive/proxy/d7dbe6b3d8711896db854adefcd19c17.mkv</property>
  <property name="kdenlive:originalurl">video/Basics/1.mp4</property>
  <property name="kdenlive:original.mlt_type">producer</property>
  <property name="kdenlive:original.in">00:00:00.000</property>
  <property name="kdenlive:original.out">00:00:01.983</property>
  <property name="kdenlive:original.length">120</property>
  <property name="kdenlive:original.eof">pause</property>
  <property name="kdenlive:original.resource">video/Basics/1.mp4</property>
  <property name="kdenlive:original.meta.media.nb_streams">1</property>
  <property name="kdenlive:original.meta.media.0.stream.type">video</property>
  <property name="kdenlive:original.meta.media.0.stream.frame_rate">60</property>
  <property name="kdenlive:original.meta.media.0.stream.sample_aspect_ratio">0</property>
  <property name="kdenlive:original.meta.media.0.codec.width">3840</property>
  <property name="kdenlive:original.meta.media.0.codec.height">2160</property>
  <property name="kdenlive:original.meta.media.0.codec.rotate">0</property>
  <property name="kdenlive:original.meta.media.0.codec.pix_fmt">yuv420p</property>
  <property name="kdenlive:original.meta.media.0.codec.sample_aspect_ratio">0</property>
  <property name="kdenlive:original.meta.media.0.codec.colorspace">709</property>
  <property name="kdenlive:original.meta.media.0.codec.name">h264</property>
  <property name="kdenlive:original.meta.media.0.codec.long_name">H.264 / AVC / MPEG-4 AVC / MPEG-4 part 10</property>
  <property name="kdenlive:original.meta.media.0.codec.bit_rate">761260</property>
  <property name="kdenlive:original.meta.attr.0.stream.handler_name.markup">VideoHandler</property>
  <property name="kdenlive:original.meta.attr.0.stream.vendor_id.markup">[0][0][0][0]</property>
  <property name="kdenlive:original.meta.attr.0.stream.encoder.markup">Lavc60.3.100 libx264</property>
  <property name="kdenlive:original.meta.attr.major_brand.markup">isom</property>
  <property name="kdenlive:original.meta.attr.minor_version.markup">512</property>
  <property name="kdenlive:original.meta.attr.compatible_brands.markup">isomiso2avc1mp41</property>
  <property name="kdenlive:original.meta.attr.encoder.markup">Lavf60.3.100</property>
  <property name="kdenlive:original.meta.attr.comment.markup">Rendered with Manim Community v0.17.2</property>
  <property name="kdenlive:original.seekable">1</property>
  <property name="kdenlive:original.width">3840</property>
  <property name="kdenlive:original.height">2160</property>
  <property name="kdenlive:original.meta.media.sample_aspect_num">1</property>
  <property name="kdenlive:original.meta.media.sample_aspect_den">1</property>
  <property name="kdenlive:original.aspect_ratio">1</property>
  <property name="kdenlive:original.format">3</property>
  <property name="kdenlive:original.audio_index">-1</property>
  <property name="kdenlive:original.video_index">0</property>
  <property name="kdenlive:original.mute_on_pause">0</property>
  <property name="kdenlive:original.mlt_service">avformat-novalidate</property>
  <property name="kdenlive:original.meta.media.frame_rate_num">60</property>
  <property name="kdenlive:original.meta.media.frame_rate_den">1</property>
  <property name="kdenlive:original.meta.media.colorspace">709</property>
  <property name="kdenlive:original.meta.media.color_trc">2</property>
  <property name="kdenlive:original.meta.media.has_b_frames">2</property>
  <property name="kdenlive:original.meta.media.width">3840</property>
  <property name="kdenlive:original.meta.media.height">2160</property>
  <property name="kdenlive:original.meta.media.color_range">mpeg</property>
  <property name="kdenlive:original.meta.media.top_field_first">0</property>
  <property name="kdenlive:original.meta.media.progressive">1</property>
  <property name="kdenlive:original.kdenlive:clip_type">2</property>
  <property name="kdenlive:original.kdenlive:folderid">344</property>
  <property name="kdenlive:original.kdenlive:id">345</property>
  <property name="kdenlive:original.kdenlive:file_size">192674</property>
  <property name="kdenlive:original.kdenlive:file_hash">d7dbe6b3d8711896db854adefcd19c17</property>
  <property name="kdenlive:original.backup">1</property>
  <property name="meta.media.frame_rate_num">60</property>
  <property name="meta.media.frame_rate_den">1</property>
  <property name="meta.media.colorspace">601</property>
  <property name="meta.media.color_trc">2</property>
  <property name="meta.media.has_b_frames">0</property>
  <property name="meta.media.width">640</property>
  <property name="meta.media.height">360</property>
  <property name="meta.media.color_range">full</property>
  <property name="meta.media.top_field_first">0</property>
  <property name="meta.media.progressive">1</property>
 </producer>
 <producer id="producer268" in="00:00:00.000" out="00:00:00.983">
  <property name="length">60</property>
  <property name="eof">pause</property>
  <property name="resource">/home/xiaoxiae/.cache/kdenlive/proxy/dc7cad03560eb77537069f4963e288aa.mkv</property>
  <property name="meta.media.nb_streams">1</property>
  <property name="meta.media.0.stream.type">video</property>
  <property name="meta.media.0.stream.frame_rate">60</property>
  <property name="meta.media.0.stream.sample_aspect_ratio">0</property>
  <property name="meta.media.0.codec.width">640</property>
  <property name="meta.media.0.codec.height">360</property>
  <property name="meta.media.0.codec.rotate">0</property>
  <property name="meta.media.0.codec.pix_fmt">yuvj420p</property>
  <property name="meta.media.0.codec.sample_aspect_ratio">0</property>
  <property name="meta.media.0.codec.colorspace">601</property>
  <property name="meta.media.0.codec.name">mjpeg</property>
  <property name="meta.media.0.codec.long_name">MJPEG (Motion JPEG)</property>
  <property name="meta.media.0.codec.bit_rate">0</property>
  <property name="meta.attr.0.stream.HANDLER_NAME.markup">VideoHandler</property>
  <property name="meta.attr.0.stream.VENDOR_ID.markup">[0][0][0][0]</property>
  <property name="meta.attr.0.stream.ENCODER.markup">Lavc60.3.100 mjpeg</property>
  <property name="meta.attr.0.stream.DURATION.markup">00:00:01.000000000</property>
  <property name="meta.attr.COMMENT.markup">Rendered with Manim Community v0.17.2</property>
  <property name="meta.attr.MAJOR_BRAND.markup">isom</property>
  <property name="meta.attr.MINOR_VERSION.markup">512</property>
  <property name="meta.attr.COMPATIBLE_BRANDS.markup">isomiso2avc1mp41</property>
  <property name="meta.attr.ENCODER.markup">Lavf60.3.100</property>
  <property name="seekable">1</property>
  <property name="meta.media.sample_aspect_num">1</property>
  <property name="meta.media.sample_aspect_den">1</property>
  <property name="aspect_ratio">1</property>
  <property name="format">3</property>
  <property name="audio_index">-1</property>
  <property name="video_index">0</property>
  <property name="mute_on_pause">0</property>
  <property name="mlt_service">avformat-novalidate</property>
  <property name="kdenlive:clipname">10.mp4</property>
  <property name="kdenlive:clip_type">2</property>
  <property name="kdenlive:folderid">344</property>
  <property name="kdenlive:id">343</property>
  <property name="kdenlive:file_size">71103</property>
  <property name="kdenlive:file_hash">dc7cad03560eb77537069f4963e288aa</property>
  <property name="kdenlive:proxy">/home/xiaoxiae/.cache/kdenlive/proxy/dc7cad03560eb77537069f4963e288aa.mkv</property>
  <property name="kdenlive:originalurl">video/Basics/10.mp4</property>
  <property name="kdenlive:original.mlt_type">producer</property>
  <property name="kdenlive:original.in">00:00:00.000</property>
  <property name="kdenlive:original.out">00:00:00.983</property>
  <property name="kdenlive:original.length">60</property>
  <property name="kdenlive:original.eof">pause</property>
  <property name="kdenlive:original.resource">video/Basics/10.mp4</property>
  <property name="kdenlive:original.meta.media.nb_streams">1</property>
  <property name="kdenlive:original.meta.media.0.stream.type">video</property>
  <property name="kdenlive:original.meta.media.0.stream.frame_rate">60</property>
  <property name="kdenlive:original.meta.media.0.stream.sample_aspect_ratio">0</property>
  <property name="kdenlive:original.meta.media.0.codec.width">3840</property>
  <property name="kdenlive:original.meta.media.0.codec.height">2160</property>
  <property name="kdenlive:original.meta.media.0.codec.rotate">0</property>
  <property name="kdenlive:original.meta.media.0.codec.pix_fmt">yuv420p</property>
  <property name="kdenlive:original.meta.media.0.codec.sample_aspect_ratio">0</property>
  <property name="kdenlive:original.meta.media.0.codec.colorspace">709</property>
  <property name="kdenlive:original.meta.media.0.codec.name">h264</property>
  <property name="kdenlive:original.meta.media.0.codec.long_name">H.264 / AVC / MPEG-4 AVC / MPEG-4 part 10</property>
  <property name="kdenlive:original.meta.media.0.codec.bit_rate">555776</property>
  <property name="kdenlive:original.meta.attr.0.stream.handler_name.markup">VideoHandler</property>
  <property name="kdenlive:original.meta.attr.0.stream.vendor_id.markup">[0][0][0][0]</property>
  <property name="kdenlive:original.meta.attr.0.stream.encoder.markup">Lavc60.3.100 libx264</property>
  <property name="kdenlive:original.meta.attr.major_brand.markup">isom</property>
  <property name="kdenlive:original.meta.attr.minor_version.markup">512</property>
  <property name="kdenlive:original.meta.attr.compatible_brands.markup">isomiso2avc1mp41</property>
  <property name="kdenlive:original.meta.attr.encoder.markup">Lavf60.3.100</property>
  <property name="kdenlive:original.meta.attr.comment.markup">Rendered with Manim Community v0.17.2</property>
  <property name="kdenlive:original.seekable">1</property>
  <property name="kdenlive:original.width">3840</property>
  <property name="kdenlive:original.height">2160</property>
  <property name="kdenlive:original.meta.media.sample_aspect_num">1</property>
  <property name="kdenlive:original.meta.media.sample_aspect_den">1</property>
  <property name="kdenlive:original.aspect_ratio">1</property>
  <property name="kdenlive:original.format">3</property>
  <property name="kdenlive:original.audio_index">-1</property>
  <property name="kdenlive:original.video_index">0</property>
  <property name="kdenlive:original.mute_on_pause">0</property>
  <property name="kdenlive:original.mlt_service">avformat-novalidate</property>
  <property name="kdenlive:original.meta.media.frame_rate_num">60</property>
  <property name="kdenlive:original.meta.media.frame_rate_den">1</property>
  <property name="kdenlive:original.meta.media.colorspace">709</property>
  <property name="kdenlive:original.meta.media.color_trc">2</property>
  <property name="kdenlive:original.meta.media.has_b_frames">2</property>
  <property name="kdenlive:original.meta.media.width">3840</property>
  <property name="kdenlive:original.meta.media.height">2160</property>
  <property name="kdenlive:original.meta.media.color_range">mpeg</property>
  <property name="kdenlive:original.meta.media.top_field_first">0</property>
  <property name="kdenlive:original.meta.media.progressive">1</property>
  <property name="kdenlive:original.kdenlive:clip_type">2</property>
  <property name="kdenlive:original.kdenlive:folderid">344</property>
  <property name="kdenlive:original.kdenlive:id">346</property>
  <property name="kdenlive:original.kdenlive:file_size">71103</property>
  <property name="kdenlive:original.kdenlive:file_hash">dc7cad03560eb77537069f4963e288aa</property>
  <property name="kdenlive:original.backup">1</property>
  <property name="meta.media.frame_rate_num">60</property>
  <property name="meta.media.frame_rate_den">1</property>
  <property name="meta.media.colorspace">601</property>
  <property name="meta.media.color_trc">2</property>
  <property name="meta.media.has_b_frames">0</property>
  <property name="meta.media.width">640</property>
  <property name="meta.media.height">360</property>
  <property name="meta.media.color_range">full</property>
  <property name="meta.media.top_field_first">0</property>
  <property name="meta.media.progressive">1</property>
 </producer>
 <producer id="producer271" in="00:00:00.000" out="00:00:00.983">
  <property name="length">60</property>
  <property name="eof">pause</property>
  <property name="resource">/home/xiaoxiae/.cache/kdenlive/proxy/0a86e4df414f12e460cfcd35222f7add.mkv</property>
  <property name="meta.media.nb_streams">1</property>
  <property name="meta.media.0.stream.type">video</property>
  <property name="meta.media.0.stream.frame_rate">60</property>
  <property name="meta.media.0.stream.sample_aspect_ratio">0</property>
  <property name="meta.media.0.codec.width">640</property>
  <property name="meta.media.0.codec.height">360</property>
  <property name="meta.media.0.codec.rotate">0</property>
  <property name="meta.media.0.codec.pix_fmt">yuvj420p</property>
  <property name="meta.media.0.codec.sample_aspect_ratio">0</property>
  <property name="meta.media.0.codec.colorspace">601</property>
  <property name="meta.media.0.codec.name">mjpeg</property>
  <property name="meta.media.0.codec.long_name">MJPEG (Motion JPEG)</property>
  <property name="meta.media.0.codec.bit_rate">0</property>
  <property name="meta.attr.0.stream.HANDLER_NAME.markup">VideoHandler</property>
  <property name="meta.attr.0.stream.VENDOR_ID.markup">[0][0][0][0]</property>
  <property name="meta.attr.0.stream.ENCODER.markup">Lavc60.3.100 mjpeg</property>
  <property name="meta.attr.0.stream.DURATION.markup">00:00:01.000000000</property>
  <property name="meta.attr.COMMENT.markup">Rendered with Manim Community v0.17.2</property>
  <property name="meta.attr.MAJOR_BRAND.markup">isom</property>
  <property name="meta.attr.MINOR_VERSION.markup">512</property>
  <property name="meta.attr.COMPATIBLE_BRANDS.markup">isomiso2avc1mp41</property>
  <property name="meta.attr.ENCODER.markup">Lavf60.3.100</property>
  <property name="seekable">1</property>
  <property name="meta.media.sample_aspect_num">1</property>
  <property name="meta.media.sample_aspect_den">1</property>
  <property name="aspect_ratio">1</property>
  <property name="format">3</property>
  <property name="audio_index">-1</property>
  <property name="video_index">0</property>
  <property name="mute_on_pause">0</property>
  <property name="mlt_service">avformat-novalidate</property>
  <property name="kdenlive:clipname">11.mp4</property>
  <property name="kdenlive:clip_type">2</property>
  <property name="kdenlive:folderid">344</property>
  <property name="kdenlive:id">345</property>
  <property name="kdenlive:file_size">150362</property>
  <property name="kdenlive:file_hash">0a86e4df414f12e460cfcd35222f7add</property>
  <property name="kdenlive:proxy">/home/xiaoxiae/.cache/kdenlive/proxy/0a86e4df414f12e460cfcd35222f7add.mkv</property>
  <property name="kdenlive:originalurl">video/Basics/11.mp4</property>
  <property name="kdenlive:original.mlt_type">producer</property>
  <property name="kdenlive:original.in">00:00:00.000</property>
  <property name="kdenlive:original.out">00:00:00.983</property>
  <property name="kdenlive:original.length">60</property>
  <property name="kdenlive:original.eof">pause</property>
  <property name="kdenlive:original.resource">video/Basics/11.mp4</property>
  <property name="kdenlive:original.meta.media.nb_streams">1</property>
  <property name="kdenlive:original.meta.media.0.stream.type">video</property>
  <property name="kdenlive:original.meta.media.0.stream.frame_rate">60</property>
  <property name="kdenlive:original.meta.media.0.stream.sample_aspect_ratio">0</property>
  <property name="kdenlive:original.meta.media.0.codec.width">3840</property>
  <property name="kdenlive:original.meta.media.0.codec.height">2160</property>
  <property name="kdenlive:original.meta.media.0.codec.rotate">0</property>
  <property name="kdenlive:original.meta.media.0.codec.pix_fmt">yuv420p</property>
  <property name="kdenlive:original.meta.media.0.codec.sample_aspect_ratio">0</property>
  <property name="kdenlive:original.meta.media.0.codec.colorspace">709</property>
  <property name="kdenlive:original.meta.media.0.codec.name">h264</property>
  <property name="kdenlive:original.meta.media.0.codec.long_name">H.264 / AVC / MPEG-4 AVC / MPEG-4 part 10</property>
  <property name="kdenlive:original.meta.media.0.codec.bit_rate">1189848</property>
  <property name="kdenlive:original.meta.attr.0.stream.handler_name.markup">VideoHandler</property>
  <property name="kdenlive:original.meta.attr.0.stream.vendor_id.markup">[0][0][0][0]</property>
  <property name="kdenlive:original.meta.attr.0.stream.encoder.markup">Lavc60.3.100 libx264</property>
  <property name="kdenlive:original.meta.attr.major_brand.markup">isom</property>
  <property name="kdenlive:original.meta.attr.minor_version.markup">512</property>
  <property name="kdenlive:original.meta.attr.compatible_brands.markup">isomiso2avc1mp41</property>
  <property name="kdenlive:original.meta.attr.encoder.markup">Lavf60.3.100</property>
  <property name="kdenlive:original.meta.attr.comment.markup">Rendered with Manim Community v0.17.2</property>
  <property name="kdenlive:original.seekable">1</property>
  <property name="kdenlive:original.width">3840</property>
  <property name="kdenlive:original.height">2160</property>
  <property name="kdenlive:original.meta.media.sample_aspect_num">1</property>
  <property name="kdenlive:original.meta.media.sample_aspect_den">1</property>
  <property name="kdenlive:original.aspect_ratio">1</property>
  <property name="kdenlive:original.format">3</property>
  <property name="kdenlive:original.audio_index">-1</property>
  <property name="kdenlive:original.video_index">0</property>
  <property name="kdenlive:original.mute_on_pause">0</property>
  <property name="kdenlive:original.mlt_service">avformat-novalidate</property>
  <property name="kdenlive:original.meta.media.frame_rate_num">60</property>
  <property name="kdenlive:original.meta.media.frame_rate_den">1</property>
  <property name="kdenlive:original.meta.media.colorspace">709</property>
  <property name="kdenlive:original.meta.media.color_trc">2</property>
  <property name="kdenlive:original.meta.media.has_b_frames">2</property>
  <property name="kdenlive:original.meta.media.width">3840</property>
  <property name="kdenlive:original.meta.media.height">2160</property>
  <property name="kdenlive:original.meta.media.color_range">mpeg</property>
  <property name="kdenlive:original.meta.media.top_field_first">0</property>
  <property name="kdenlive:original.meta.media.progressive">1</property>
  <property name="kdenlive:original.kdenlive:clip_type">2</property>
  <property name="kdenlive:original.kdenlive:folderid">344</property>
  <property name="kdenlive:original.kdenlive:id">347</property>
  <property name="kdenlive:original.kdenlive:file_size">150362</property>
  <property name="kdenlive:original.kdenlive:file_hash">0a86e4df414f12e460cfcd35222f7add</property>
  <property name="kdenlive:original.backup">1</property>
  <property name="meta.media.frame_rate_num">60</property>
  <property name="meta.media.frame_rate_den">1</property>
  <property name="meta.media.colorspace">601</property>
  <property name="meta.media.color_trc">2</property>
  <property name="meta.media.has_b_frames">0</property>
  <property name="meta.media.width">640</property>
  <property name="meta.media.height">360</property>
  <property name="meta.media.color_range">full</property>
  <property name="meta.media.top_field_first">0</property>
  <property name="meta.media.progressive">1</property>
 </producer>
 <producer id="producer269" in="00:00:00.000" out="00:00:00.983">
  <property name="length">60</property>
  <property name="eof">pause</property>
  <property name="resource">/home/xiaoxiae/.cache/kdenlive/proxy/df22b6ed6b80d76958c0d796432a547b.mkv</property>
  <property name="meta.media.nb_streams">1</property>
  <property name="meta.media.0.stream.type">video</property>
  <property name="meta.media.0.stream.frame_rate">60</property>
  <property name="meta.media.0.stream.sample_aspect_ratio">0</property>
  <property name="meta.media.0.codec.width">640</property>
  <property name="meta.media.0.codec.height">360</property>
  <property name="meta.media.0.codec.rotate">0</property>
  <property name="meta.media.0.codec.pix_fmt">yuvj420p</property>
  <property name="meta.media.0.codec.sample_aspect_ratio">0</property>
  <property name="meta.media.0.codec.colorspace">601</property>
  <property name="meta.media.0.codec.name">mjpeg</property>
  <property name="meta.media.0.codec.long_name">MJPEG (Motion JPEG)</property>
  <property name="meta.media.0.codec.bit_rate">0</property>
  <property name="meta.attr.0.stream.HANDLER_NAME.markup">VideoHandler</property>
  <property name="meta.attr.0.stream.VENDOR_ID.markup">[0][0][0][0]</property>
  <property name="meta.attr.0.stream.ENCODER.markup">Lavc60.3.100 mjpeg</property>
  <property name="meta.attr.0.stream.DURATION.markup">00:00:01.000000000</property>
  <property name="meta.attr.COMMENT.markup">Rendered with Manim Community v0.17.2</property>
  <property name="meta.attr.MAJOR_BRAND.markup">isom</property>
  <property name="meta.attr.MINOR_VERSION.markup">512</property>
  <property name="meta.attr.COMPATIBLE_BRANDS.markup">isomiso2avc1mp41</property>
  <property name="meta.attr.ENCODER.markup">Lavf60.3.100</property>
  <property name="seekable">1</property>
  <property name="meta.media.sample_aspect_num">1</property>
  <property name="meta.media.sample_aspect_den">1</property>
  <property name="aspect_ratio">1</property>
  <property name="format">3</property>
  <property name="audio_index">-1</property>
  <property name="video_index">0</property>
  <property name="mute_on_pause">0</property>
  <property name="mlt_service">avformat-novalidate</property>
  <property name="kdenlive:clipname">12.mp4</property>
  <property name="kdenlive:clip_type">2</property>
  <property name="kdenlive:folderid">344</property>
  <property name="kdenlive:id">346</property>
  <property name="kdenlive:file_size">129557</property>
  <property name="kdenlive:file_hash">df22b6ed6b80d76958c0d796432a547b</property>
  <property name="kdenlive:proxy">/home/xiaoxiae/.cache/kdenlive/proxy/df22b6ed6b80d76958c0d796432a547b.mkv</property>
  <property name="kdenlive:originalurl">video/Basics/12.mp4</property>
  <property name="kdenlive:original.mlt_type">producer</property>
  <property name="kdenlive:original.in">00:00:00.000</property>
  <property name="kdenlive:original.out">00:00:00.983</property>
  <property name="kdenlive:original.length">60</property>
  <property name="kdenlive:original.eof">pause</property>
  <property name="kdenlive:original.resource">video/Basics/12.mp4</property>
  <property name="kdenlive:original.meta.media.nb_streams">1</property>
  <property name="kdenlive:original.meta.media.0.stream.type">video</property>
  <property name="kdenlive:original.meta.media.0.stream.frame_rate">60</property>
  <property name="kdenlive:original.meta.media.0.stream.sample_aspect_ratio">0</property>
  <property name="kdenlive:original.meta.media.0.codec.width">3840</property>
  <property name="kdenlive:original.meta.media.0.codec.height">2160</property>
  <property name="kdenlive:original.meta.media.0.codec.rotate">0</property>
  <property name="kdenlive:original.meta.media.0.codec.pix_fmt">yuv420p</property>
  <property name="kdenlive:original.meta.media.0.codec.sample_aspect_ratio">0</property>
  <property name="kdenlive:original.meta.media.0.codec.colorspace">709</property>
  <property name="kdenlive:original.meta.media.0.codec.name">h264</property>
  <property name="kdenlive:original.meta.media.0.codec.long_name">H.264 / AVC / MPEG-4 AVC / MPEG-4 part 10</property>
  <property name="kdenlive:original.meta.media.0.codec.bit_rate">1023920</property>
  <property name="kdenlive:original.meta.attr.0.stream.handler_name.markup">VideoHandler</property>
  <property name="kdenlive:original.meta.attr.0.stream.vendor_id.markup">[0][0][0][0]</property>
  <property name="kdenlive:original.meta.attr.0.stream.encoder.markup">Lavc60.3.100 libx264</property>
  <property name="kdenlive:original.meta.attr.major_brand.markup">isom</property>
  <property name="kdenlive:original.meta.attr.minor_version.markup">512</property>
  <property name="kdenlive:original.meta.attr.compatible_brands.markup">isomiso2avc1mp41</property>
  <property name="kdenlive:original.meta.attr.encoder.markup">Lavf60.3.100</property>
  <property name="kdenlive:original.meta.attr.comment.markup">Rendered with Manim Community v0.17.2</property>
  <property name="kdenlive:original.seekable">1</property>
  <property name="kdenlive:original.width">3840</property>
  <property name="kdenlive:original.height">2160</property>
  <property name="kdenlive:original.meta.media.sample_aspect_num">1</property>
  <property name="kdenlive:original.meta.media.sample_aspect_den">1</property>
  <property name="kdenlive:original.aspect_ratio">1</property>
  <property name="kdenlive:original.format">3</property>
  <property name="kdenlive:original.audio_index">-1</property>
  <property name="kdenlive:original.video_index">0</property>
  <property name="kdenlive:original.mute_on_pause">0</property>
  <property name="kdenlive:original.mlt_service">avformat-novalidate</property>
  <property name="kdenlive:original.meta.media.frame_rate_num">60</property>
  <property name="kdenlive:original.meta.media.frame_rate_den">1</property>
  <property name="kdenlive:original.meta.media.colorspace">709</property>
  <property name="kdenlive:original.meta.media.color_trc">2</property>
  <property name="kdenlive:original.meta.media.has_b_frames">2</property>
  <property name="kdenlive:original.meta.media.width">3840</property>
  <property name="kdenlive:original.meta.media.height">2160</property>
  <property name="kdenlive:original.meta.media.color_range">mpeg</property>
  <property name="kdenlive:original.meta.media.top_field_first">0</property>
  <property name="kdenlive:original.meta.media.progressive">1</property>
  <property name="kdenlive:original.kdenlive:clip_type">2</property>
  <property name="kdenlive:original.kdenlive:folderid">344</property>
  <property name="kdenlive:original.kdenlive:id">348</property>
  <property name="kdenlive:original.kdenlive:file_size">129557</property>
  <property name="kdenlive:original.kdenlive:file_hash">df22b6ed6b80d76958c0d796432a547b</property>
  <property name="kdenlive:original.backup">1</property>
  <property name="meta.media.frame_rate_num">60</property>
  <property name="meta.media.frame_rate_den">1</property>
  <property name="meta.media.colorspace">601</property>
  <property name="meta.media.color_trc">2</property>
  <property name="meta.media.has_b_frames">0</property>
  <property name="meta.media.width">640</property>
  <property name="meta.media.height">360</property>
  <property name="meta.media.color_range">full</property>
  <property name="meta.media.top_field_first">0</property>
  <property name="meta.media.progressive">1</property>
 </producer>
 <producer id="producer270" in="00:00:00.000" out="00:00:01.483">
  <property name="length">90</property>
  <property name="eof">pause</property>
  <property name="resource">/home/xiaoxiae/.cache/kdenlive/proxy/416ccbbc731005926cd50f3e28f8df2e.mkv</property>
  <property name="meta.media.nb_streams">1</property>
  <property name="meta.media.0.stream.type">video</property>
  <property name="meta.media.0.stream.frame_rate">60</property>
  <property name="meta.media.0.stream.sample_aspect_ratio">0</property>
  <property name="meta.media.0.codec.width">640</property>
  <property name="meta.media.0.codec.height">360</property>
  <property name="meta.media.0.codec.rotate">0</property>
  <property name="meta.media.0.codec.pix_fmt">yuvj420p</property>
  <property name="meta.media.0.codec.sample_aspect_ratio">0</property>
  <property name="meta.media.0.codec.colorspace">601</property>
  <property name="meta.media.0.codec.name">mjpeg</property>
  <property name="meta.media.0.codec.long_name">MJPEG (Motion JPEG)</property>
  <property name="meta.media.0.codec.bit_rate">0</property>
  <property name="meta.attr.0.stream.HANDLER_NAME.markup">VideoHandler</property>
  <property name="meta.attr.0.stream.VENDOR_ID.markup">[0][0][0][0]</property>
  <property name="meta.attr.0.stream.ENCODER.markup">Lavc60.3.100 mjpeg</property>
  <property name="meta.attr.0.stream.DURATION.markup">00:00:01.500000000</property>
  <property name="meta.attr.COMMENT.markup">Rendered with Manim Community v0.17.2</property>
  <property name="meta.attr.MAJOR_BRAND.markup">isom</property>
  <property name="meta.attr.MINOR_VERSION.markup">512</property>
  <property name="meta.attr.COMPATIBLE_BRANDS.markup">isomiso2avc1mp41</property>
  <property name="meta.attr.ENCODER.markup">Lavf60.3.100</property>
  <property name="seekable">1</property>
  <property name="meta.media.sample_aspect_num">1</property>
  <property name="meta.media.sample_aspect_den">1</property>
  <property name="aspect_ratio">1</property>
  <property name="format">3</property>
  <property name="audio_index">-1</property>
  <property name="video_index">0</property>
  <property name="mute_on_pause">0</property>
  <property name="mlt_service">avformat-novalidate</property>
  <property name="kdenlive:clipname">13.mp4</property>
  <property name="kdenlive:clip_type">2</property>
  <property name="kdenlive:folderid">344</property>
  <property name="kdenlive:id">347</property>
  <property name="kdenlive:file_size">125482</property>
  <property name="kdenlive:file_hash">416ccbbc731005926cd50f3e28f8df2e</property>
  <property name="kdenlive:proxy">/home/xiaoxiae/.cache/kdenlive/proxy/416ccbbc731005926cd50f3e28f8df2e.mkv</property>
  <property name="kdenlive:originalurl">video/Basics/13.mp4</property>
  <property name="kdenlive:original.mlt_type">producer</property>
  <property name="kdenlive:original.in">00:00:00.000</property>
  <property name="kdenlive:original.out">00:00:01.483</property>
  <property name="kdenlive:original.length">90</property>
  <property name="kdenlive:original.eof">pause</property>
  <property name="kdenlive:original.resource">video/Basics/13.mp4</property>
  <property name="kdenlive:original.meta.media.nb_streams">1</property>
  <property name="kdenlive:original.meta.media.0.stream.type">video</property>
  <property name="kdenlive:original.meta.media.0.stream.frame_rate">60</property>
  <property name="kdenlive:original.meta.media.0.stream.sample_aspect_ratio">0</property>
  <property name="kdenlive:original.meta.media.0.codec.width">3840</property>
  <property name="kdenlive:original.meta.media.0.codec.height">2160</property>
  <property name="kdenlive:original.meta.media.0.codec.rotate">0</property>
  <property name="kdenlive:original.meta.media.0.codec.pix_fmt">yuv420p</property>
  <property name="kdenlive:original.meta.media.0.codec.sample_aspect_ratio">0</property>
  <property name="kdenlive:original.meta.media.0.codec.colorspace">709</property>
  <property name="kdenlive:original.meta.media.0.codec.name">h264</property>
  <property name="kdenlive:original.meta.media.0.codec.long_name">H.264 / AVC / MPEG-4 AVC / MPEG-4 part 10</property>
  <property name="kdenlive:original.meta.media.0.codec.bit_rate">658576</property>
  <property name="kdenlive:original.meta.attr.0.stream.handler_name.markup">VideoHandler</property>
  <property name="kdenlive:original.meta.attr.0.stream.vendor_id.markup">[0][0][0][0]</property>
  <property name="kdenlive:original.meta.attr.0.stream.encoder.markup">Lavc60.3.100 libx264</property>
  <property name="kdenlive:original.meta.attr.major_brand.markup">isom</property>
  <property name="kdenlive:original.meta.attr.minor_version.markup">512</property>
  <property name="kdenlive:original.meta.attr.compatible_brands.markup">isomiso2avc1mp41</property>
  <property name="kdenlive:original.meta.attr.encoder.markup">Lavf60.3.100</property>
  <property name="kdenlive:original.meta.attr.comment.markup">Rendered with Manim Community v0.17.2</property>
  <property name="kdenlive:original.seekable">1</property>
  <property name="kdenlive:original.width">3840</property>
  <property name="kdenlive:original.height">2160</property>
  <property name="kdenlive:original.meta.media.sample_aspect_num">1</property>
  <property name="kdenlive:original.meta.media.sample_aspect_den">1</property>
  <property name="kdenlive:original.aspect_ratio">1</property>
  <property name="kdenlive:original.format">3</property>
  <property name="kdenlive:original.audio_index">-1</property>
  <property name="kdenlive:original.video_index">0</property>
  <property name="kdenlive:original.mute_on_pause">0</property>
  <property name="kdenlive:original.mlt_service">avformat-novalidate</property>
  <property name="kdenlive:original.meta.media.frame_rate_num">60</property>
  <property name="kdenlive:original.meta.media.frame_rate_den">1</property>
  <property name="kdenlive:original.meta.media.colorspace">709</property>
  <property name="kdenlive:original.meta.media.color_trc">2</property>
  <property name="kdenlive:original.meta.media.has_b_frames">2</property>
  <property name="kdenlive:original.meta.media.width">3840</property>
  <property name="kdenlive:original.meta.media.height">2160</property>
  <property name="kdenlive:original.meta.media.color_range">mpeg</property>
  <property name="kdenlive:original.meta.media.top_field_first">0</property>
  <property name="kdenlive:original.meta.media.progressive">1</property>
  <property name="kdenlive:original.kdenlive:clip_type">2</property>
  <property name="kdenlive:original.kdenlive:folderid">344</property>
  <property name="kdenlive:original.kdenlive:id">349</property>
  <property name="kdenlive:original.kdenlive:file_size">125482</property>
  <property name="kdenlive:original.kdenlive:file_hash">416ccbbc731005926cd50f3e28f8df2e</property>
  <property name="kdenlive:original.backup">1</property>
  <property name="meta.media.frame_rate_num">60</property>
  <property name="meta.media.frame_rate_den">1</property>
  <property name="meta.media.colorspace">601</property>
  <property name="meta.media.color_trc">2</property>
  <property name="meta.media.has_b_frames">0</property>
  <property name="meta.media.width">640</property>
  <property name="meta.media.height">360</property>
  <property name="meta.media.color_range">full</property>
  <property name="meta.media.top_field_first">0</property>
  <property name="meta.media.progressive">1</property>
 </producer>
 <producer id="producer273" in="00:00:00.000" out="00:00:01.083">
  <property name="length">66</property>
  <property name="eof">pause</property>
  <property name="resource">/home/xiaoxiae/.cache/kdenlive/proxy/5aa9e6dc3e82eaaa5ff00916ffb0e735.mkv</property>
  <property name="meta.media.nb_streams">1</property>
  <property name="meta.media.0.stream.type">video</property>
  <property name="meta.media.0.stream.frame_rate">60</property>
  <property name="meta.media.0.stream.sample_aspect_ratio">0</property>
  <property name="meta.media.0.codec.width">640</property>
  <property name="meta.media.0.codec.height">360</property>
  <property name="meta.media.0.codec.rotate">0</property>
  <property name="meta.media.0.codec.pix_fmt">yuvj420p</property>
  <property name="meta.media.0.codec.sample_aspect_ratio">0</property>
  <property name="meta.media.0.codec.colorspace">601</property>
  <property name="meta.media.0.codec.name">mjpeg</property>
  <property name="meta.media.0.codec.long_name">MJPEG (Motion JPEG)</property>
  <property name="meta.media.0.codec.bit_rate">0</property>
  <property name="meta.attr.0.stream.HANDLER_NAME.markup">VideoHandler</property>
  <property name="meta.attr.0.stream.VENDOR_ID.markup">[0][0][0][0]</property>
  <property name="meta.attr.0.stream.ENCODER.markup">Lavc60.3.100 mjpeg</property>
  <property name="meta.attr.0.stream.DURATION.markup">00:00:01.100000000</property>
  <property name="meta.attr.COMMENT.markup">Rendered with Manim Community v0.17.2</property>
  <property name="meta.attr.MAJOR_BRAND.markup">isom</property>
  <property name="meta.attr.MINOR_VERSION.markup">512</property>
  <property name="meta.attr.COMPATIBLE_BRANDS.markup">isomiso2avc1mp41</property>
  <property name="meta.attr.ENCODER.markup">Lavf60.3.100</property>
  <property name="seekable">1</property>
  <property name="meta.media.sample_aspect_num">1</property>
  <property name="meta.media.sample_aspect_den">1</property>
  <property name="aspect_ratio">1</property>
  <property name="format">3</property>
  <property name="audio_index">-1</property>
  <property name="video_index">0</property>
  <property name="mute_on_pause">0</property>
  <property name="mlt_service">avformat-novalidate</property>
  <property name="kdenlive:clipname">14.mp4</property>
  <property name="kdenlive:clip_type">2</property>
  <property name="kdenlive:folderid">344</property>
  <property name="kdenlive:id">348</property>
  <property name="kdenlive:file_size">64589</property>
  <property name="kdenlive:file_hash">5aa9e6dc3e82eaaa5ff00916ffb0e735</property>
  <property name="kdenlive:proxy">/home/xiaoxiae/.cache/kdenlive/proxy/5aa9e6dc3e82eaaa5ff00916ffb0e735.mkv</property>
  <property name="kdenlive:originalurl">video/Basics/14.mp4</property>
  <property name="kdenlive:original.mlt_type">producer</property>
  <property name="kdenlive:original.in">00:00:00.000</property>
  <property name="kdenlive:original.out">00:00:01.083</property>
  <property name="kdenlive:original.length">66</property>
  <property name="kdenlive:original.eof">pause</property>
  <property name="kdenlive:original.resource">video/Basics/14.mp4</property>
  <property name="kdenlive:original.meta.media.nb_streams">1</property>
  <property name="kdenlive:original.meta.media.0.stream.type">video</property>
  <property name="kdenlive:original.meta.media.0.stream.frame_rate">60</property>
  <property name="kdenlive:original.meta.media.0.stream.sample_aspect_ratio">0</property>
  <property name="kdenlive:original.meta.media.0.codec.width">3840</property>
  <property name="kdenlive:original.meta.media.0.codec.height">2160</property>
  <property name="kdenlive:original.meta.media.0.codec.rotate">0</property>
  <property name="kdenlive:original.meta.media.0.codec.pix_fmt">yuv420p</property>
  <property name="kdenlive:original.meta.media.0.codec.sample_aspect_ratio">0</property>
  <property name="kdenlive:original.meta.media.0.codec.colorspace">709</property>
  <property name="kdenlive:original.meta.media.0.codec.name">h264</property>
  <property name="kdenlive:original.meta.media.0.codec.long_name">H.264 / AVC / MPEG-4 AVC / MPEG-4 part 10</property>
  <property name="kdenlive:original.meta.media.0.codec.bit_rate">457294</property>
  <property name="kdenlive:original.meta.attr.0.stream.handler_name.markup">VideoHandler</property>
  <property name="kdenlive:original.meta.attr.0.stream.vendor_id.markup">[0][0][0][0]</property>
  <property name="kdenlive:original.meta.attr.0.stream.encoder.markup">Lavc60.3.100 libx264</property>
  <property name="kdenlive:original.meta.attr.major_brand.markup">isom</property>
  <property name="kdenlive:original.meta.attr.minor_version.markup">512</property>
  <property name="kdenlive:original.meta.attr.compatible_brands.markup">isomiso2avc1mp41</property>
  <property name="kdenlive:original.meta.attr.encoder.markup">Lavf60.3.100</property>
  <property name="kdenlive:original.meta.attr.comment.markup">Rendered with Manim Community v0.17.2</property>
  <property name="kdenlive:original.seekable">1</property>
  <property name="kdenlive:original.width">3840</property>
  <property name="kdenlive:original.height">2160</property>
  <property name="kdenlive:original.meta.media.sample_aspect_num">1</property>
  <property name="kdenlive:original.meta.media.sample_aspect_den">1</property>
  <property name="kdenlive:original.aspect_ratio">1</property>
  <property name="kdenlive:original.format">3</property>
  <property name="kdenlive:original.audio_index">-1</property>
  <property name="kdenlive:original.video_index">0</property>
  <property name="kdenlive:original.mute_on_pause">0</property>
  <property name="kdenlive:original.mlt_service">avformat-novalidate</property>
  <property name="kdenlive:original.meta.media.frame_rate_num">60</property>
  <property name="kdenlive:original.meta.media.frame_rate_den">1</property>
  <property name="kdenlive:original.meta.media.colorspace">709</property>
  <property name="kdenlive:original.meta.media.color_trc">2</property>
  <property name="kdenlive:original.meta.media.has_b_frames">2</property>
  <property name="kdenlive:original.meta.media.width">3840</property>
  <property name="kdenlive:original.meta.media.height">2160</property>
  <property name="kdenlive:original.meta.media.color_range">mpeg</property>
  <property name="kdenlive:original.meta.media.top_field_first">0</property>
  <property name="kdenlive:original.meta.media.progressive">1</property>
  <property name="kdenlive:original.kdenlive:clip_type">2</property>
  <property name="kdenlive:original.kdenlive:folderid">344</property>
  <property name="kdenlive:original.kdenlive:id">350</property>
  <property name="kdenlive:original.kdenlive:file_size">64589</property>
  <property name="kdenlive:original.kdenlive:file_hash">5aa9e6dc3e82eaaa5ff00916ffb0e735</property>
  <property name="kdenlive:original.backup">1</property>
  <property name="meta.media.frame_rate_num">60</property>
  <property name="meta.media.frame_rate_den">1</property>
  <property name="meta.media.colorspace">601</property>
  <property name="meta.media.color_trc">2</property>
  <property name="meta.media.has_b_frames">0</property>
  <property name="meta.media.width">640</property>
  <property name="meta.media.height">360</property>
  <property name="meta.media.color_range">full</property>
  <property name="meta.media.top_field_first">0</property>
  <property name="meta.media.progressive">1</property>
 </producer>
 <producer id="producer274" in="00:00:00.000" out="00:00:00.983">
  <property name="length">60</property>
  <property name="eof">pause</property>
  <property name="resource">/home/xiaoxiae/.cache/kdenlive/proxy/42555a87fe15f36b2231585f56609ded.mkv</property>
  <property name="meta.media.nb_streams">1</property>
  <property name="meta.media.0.stream.type">video</property>
  <property name="meta.media.0.stream.frame_rate">60</property>
  <property name="meta.media.0.stream.sample_aspect_ratio">0</property>
  <property name="meta.media.0.codec.width">640</property>
  <property name="meta.media.0.codec.height">360</property>
  <property name="meta.media.0.codec.rotate">0</property>
  <property name="meta.media.0.codec.pix_fmt">yuvj420p</property>
  <property name="meta.media.0.codec.sample_aspect_ratio">0</property>
  <property name="meta.media.0.codec.colorspace">601</property>
  <property name="meta.media.0.codec.name">mjpeg</property>
  <property name="meta.media.0.codec.long_name">MJPEG (Motion JPEG)</property>
  <property name="meta.media.0.codec.bit_rate">0</property>
  <property name="meta.attr.0.stream.HANDLER_NAME.markup">VideoHandler</property>
  <property name="meta.attr.0.stream.VENDOR_ID.markup">[0][0][0][0]</property>
  <property name="meta.attr.0.stream.ENCODER.markup">Lavc60.3.100 mjpeg</property>
  <property name="meta.attr.0.stream.DURATION.markup">00:00:01.000000000</property>
  <property name="meta.attr.COMMENT.markup">Rendered with Manim Community v0.17.2</property>
  <property name="meta.attr.MAJOR_BRAND.markup">isom</property>
  <property name="meta.attr.MINOR_VERSION.markup">512</property>
  <property name="meta.attr.COMPATIBLE_BRANDS.markup">isomiso2avc1mp41</property>
  <property name="meta.attr.ENCODER.markup">Lavf60.3.100</property>
  <property name="seekable">1</property>
  <property name="meta.media.sample_aspect_num">1</property>
  <property name="meta.media.sample_aspect_den">1</property>
  <property name="aspect_ratio">1</property>
  <property name="format">3</property>
  <property name="audio_index">-1</property>
  <property name="video_index">0</property>
  <property name="mute_on_pause">0</property>
  <property name="mlt_service">avformat-novalidate</property>
  <property name="kdenlive:clipname">15.mp4</property>
  <property name="kdenlive:clip_type">2</property>
  <property name="kdenlive:folderid">344</property>
  <property name="kdenlive:id">349</property>
  <property name="kdenlive:file_size">72490</property>
  <property name="kdenlive:file_hash">42555a87fe15f36b2231585f56609ded</property>
  <property name="kdenlive:proxy">/home/xiaoxiae/.cache/kdenlive/proxy/42555a87fe15f36b2231585f56609ded.mkv</property>
  <property name="kdenlive:originalurl">video/Basics/15.mp4</property>
  <property name="kdenlive:original.mlt_type">producer</property>
  <property name="kdenlive:original.in">00:00:00.000</property>
  <property name="kdenlive:original.out">00:00:00.983</property>
  <property name="kdenlive:original.length">60</property>
  <property name="kdenlive:original.eof">pause</property>
  <property name="kdenlive:original.resource">video/Basics/15.mp4</property>
  <property name="kdenlive:original.meta.media.nb_streams">1</property>
  <property name="kdenlive:original.meta.media.0.stream.type">video</property>
  <property name="kdenlive:original.meta.media.0.stream.frame_rate">60</property>
  <property name="kdenlive:original.meta.media.0.stream.sample_aspect_ratio">0</property>
  <property name="kdenlive:original.meta.media.0.codec.width">3840</property>
  <property name="kdenlive:original.meta.media.0.codec.height">2160</property>
  <property name="kdenlive:original.meta.media.0.codec.rotate">0</property>
  <property name="kdenlive:original.meta.media.0.codec.pix_fmt">yuv420p</property>
  <property name="kdenlive:original.meta.media.0.codec.sample_aspect_ratio">0</property>
  <property name="kdenlive:original.meta.media.0.codec.colorspace">709</property>
  <property name="kdenlive:original.meta.media.0.codec.name">h264</property>
  <property name="kdenlive:original.meta.media.0.codec.long_name">H.264 / AVC / MPEG-4 AVC / MPEG-4 part 10</property>
  <property name="kdenlive:original.meta.media.0.codec.bit_rate">566872</property>
  <property name="kdenlive:original.meta.attr.0.stream.handler_name.markup">VideoHandler</property>
  <property name="kdenlive:original.meta.attr.0.stream.vendor_id.markup">[0][0][0][0]</property>
  <property name="kdenlive:original.meta.attr.0.stream.encoder.markup">Lavc60.3.100 libx264</property>
  <property name="kdenlive:original.meta.attr.major_brand.markup">isom</property>
  <property name="kdenlive:original.meta.attr.minor_version.markup">512</property>
  <property name="kdenlive:original.meta.attr.compatible_brands.markup">isomiso2avc1mp41</property>
  <property name="kdenlive:original.meta.attr.encoder.markup">Lavf60.3.100</property>
  <property name="kdenlive:original.meta.attr.comment.markup">Rendered with Manim Community v0.17.2</property>
  <property name="kdenlive:original.seekable">1</property>
  <property name="kdenlive:original.width">3840</property>
  <property name="kdenlive:original.height">2160</property>
  <property name="kdenlive:original.meta.media.sample_aspect_num">1</property>
  <property name="kdenlive:original.meta.media.sample_aspect_den">1</property>
  <property name="kdenlive:original.aspect_ratio">1</property>
  <property name="kdenlive:original.format">3</property>
  <property name="kdenlive:original.audio_index">-1</property>
  <property name="kdenlive:original.video_index">0</property>
  <property name="kdenlive:original.mute_on_pause">0</property>
  <property name="kdenlive:original.mlt_service">avformat-novalidate</property>
  <property name="kdenlive:original.meta.media.frame_rate_num">60</property>
  <property name="kdenlive:original.meta.media.frame_rate_den">1</property>
  <property name="kdenlive:original.meta.media.colorspace">709</property>
  <property name="kdenlive:original.meta.media.color_trc">2</property>
  <property name="kdenlive:original.meta.media.has_b_frames">2</property>
  <property name="kdenlive:original.meta.media.width">3840</property>
  <property name="kdenlive:original.meta.media.height">2160</property>
  <property name="kdenlive:original.meta.media.color_range">mpeg</property>
  <property name="kdenlive:original.meta.media.top_field_first">0</property>
  <property name="kdenlive:original.meta.media.progressive">1</property>
  <property name="kdenlive:original.kdenlive:clip_type">2</property>
  <property name="kdenlive:original.kdenlive:folderid">344</property>
  <property name="kdenlive:original.kdenlive:id">351</property>
  <property name="kdenlive:original.kdenlive:file_size">72490</property>
  <property name="kdenlive:original.kdenlive:file_hash">42555a87fe15f36b2231585f56609ded</property>
  <property name="kdenlive:original.backup">1</property>
  <property name="meta.media.frame_rate_num">60</property>
  <property name="meta.media.frame_rate_den">1</property>
  <property name="meta.media.colorspace">601</property>
  <property name="meta.media.color_trc">2</property>
  <property name="meta.media.has_b_frames">0</property>
  <property name="meta.media.width">640</property>
  <property name="meta.media.height">360</property>
  <property name="meta.media.color_range">full</property>
  <property name="meta.media.top_field_first">0</property>
  <property name="meta.media.progressive">1</property>
 </producer>
 <producer id="producer275" in="00:00:00.000" out="00:00:00.983">
  <property name="length">60</property>
  <property name="eof">pause</property>
  <property name="resource">/home/xiaoxiae/.cache/kdenlive/proxy/c456a7437537e724dfc42ef76cdbab12.mkv</property>
  <property name="meta.media.nb_streams">1</property>
  <property name="meta.media.0.stream.type">video</property>
  <property name="meta.media.0.stream.frame_rate">60</property>
  <property name="meta.media.0.stream.sample_aspect_ratio">0</property>
  <property name="meta.media.0.codec.width">640</property>
  <property name="meta.media.0.codec.height">360</property>
  <property name="meta.media.0.codec.rotate">0</property>
  <property name="meta.media.0.codec.pix_fmt">yuvj420p</property>
  <property name="meta.media.0.codec.sample_aspect_ratio">0</property>
  <property name="meta.media.0.codec.colorspace">601</property>
  <property name="meta.media.0.codec.name">mjpeg</property>
  <property name="meta.media.0.codec.long_name">MJPEG (Motion JPEG)</property>
  <property name="meta.media.0.codec.bit_rate">0</property>
  <property name="meta.attr.0.stream.HANDLER_NAME.markup">VideoHandler</property>
  <property name="meta.attr.0.stream.VENDOR_ID.markup">[0][0][0][0]</property>
  <property name="meta.attr.0.stream.ENCODER.markup">Lavc60.3.100 mjpeg</property>
  <property name="meta.attr.0.stream.DURATION.markup">00:00:01.000000000</property>
  <property name="meta.attr.COMMENT.markup">Rendered with Manim Community v0.17.2</property>
  <property name="meta.attr.MAJOR_BRAND.markup">isom</property>
  <property name="meta.attr.MINOR_VERSION.markup">512</property>
  <property name="meta.attr.COMPATIBLE_BRANDS.markup">isomiso2avc1mp41</property>
  <property name="meta.attr.ENCODER.markup">Lavf60.3.100</property>
  <property name="seekable">1</property>
  <property name="meta.media.sample_aspect_num">1</property>
  <property name="meta.media.sample_aspect_den">1</property>
  <property name="aspect_ratio">1</property>
  <property name="format">3</property>
  <property name="audio_index">-1</property>
  <property name="video_index">0</property>
  <property name="mute_on_pause">0</property>
  <property name="mlt_service">avformat-novalidate</property>
  <property name="kdenlive:clipname">16.mp4</property>
  <property name="kdenlive:clip_type">2</property>
  <property name="kdenlive:folderid">344</property>
  <property name="kdenlive:id">350</property>
  <property name="kdenlive:file_size">76890</property>
  <property name="kdenlive:file_hash">c456a7437537e724dfc42ef76cdbab12</property>
  <property name="kdenlive:proxy">/home/xiaoxiae/.cache/kdenlive/proxy/c456a7437537e724dfc42ef76cdbab12.mkv</property>
  <property name="kdenlive:originalurl">video/Basics/16.mp4</property>
  <property name="kdenlive:original.mlt_type">producer</property>
  <property name="kdenlive:original.in">00:00:00.000</property>
  <property name="kdenlive:original.out">00:00:00.983</property>
  <property name="kdenlive:original.length">60</property>
  <property name="kdenlive:original.eof">pause</property>
  <property name="kdenlive:original.resource">video/Basics/16.mp4</property>
  <property name="kdenlive:original.meta.media.nb_streams">1</property>
  <property name="kdenlive:original.meta.media.0.stream.type">video</property>
  <property name="kdenlive:original.meta.media.0.stream.frame_rate">60</property>
  <property name="kdenlive:original.meta.media.0.stream.sample_aspect_ratio">0</property>
  <property name="kdenlive:original.meta.media.0.codec.width">3840</property>
  <property name="kdenlive:original.meta.media.0.codec.height">2160</property>
  <property name="kdenlive:original.meta.media.0.codec.rotate">0</property>
  <property name="kdenlive:original.meta.media.0.codec.pix_fmt">yuv420p</property>
  <property name="kdenlive:original.meta.media.0.codec.sample_aspect_ratio">0</property>
  <property name="kdenlive:original.meta.media.0.codec.colorspace">709</property>
  <property name="kdenlive:original.meta.media.0.codec.name">h264</property>
  <property name="kdenlive:original.meta.media.0.codec.long_name">H.264 / AVC / MPEG-4 AVC / MPEG-4 part 10</property>
  <property name="kdenlive:original.meta.media.0.codec.bit_rate">602072</property>
  <property name="kdenlive:original.meta.attr.0.stream.handler_name.markup">VideoHandler</property>
  <property name="kdenlive:original.meta.attr.0.stream.vendor_id.markup">[0][0][0][0]</property>
  <property name="kdenlive:original.meta.attr.0.stream.encoder.markup">Lavc60.3.100 libx264</property>
  <property name="kdenlive:original.meta.attr.major_brand.markup">isom</property>
  <property name="kdenlive:original.meta.attr.minor_version.markup">512</property>
  <property name="kdenlive:original.meta.attr.compatible_brands.markup">isomiso2avc1mp41</property>
  <property name="kdenlive:original.meta.attr.encoder.markup">Lavf60.3.100</property>
  <property name="kdenlive:original.meta.attr.comment.markup">Rendered with Manim Community v0.17.2</property>
  <property name="kdenlive:original.seekable">1</property>
  <property name="kdenlive:original.width">3840</property>
  <property name="kdenlive:original.height">2160</property>
  <property name="kdenlive:original.meta.media.sample_aspect_num">1</property>
  <property name="kdenlive:original.meta.media.sample_aspect_den">1</property>
  <property name="kdenlive:original.aspect_ratio">1</property>
  <property name="kdenlive:original.format">3</property>
  <property name="kdenlive:original.audio_index">-1</property>
  <property name="kdenlive:original.video_index">0</property>
  <property name="kdenlive:original.mute_on_pause">0</property>
  <property name="kdenlive:original.mlt_service">avformat-novalidate</property>
  <property name="kdenlive:original.meta.media.frame_rate_num">60</property>
  <property name="kdenlive:original.meta.media.frame_rate_den">1</property>
  <property name="kdenlive:original.meta.media.colorspace">709</property>
  <property name="kdenlive:original.meta.media.color_trc">2</property>
  <property name="kdenlive:original.meta.media.has_b_frames">2</property>
  <property name="kdenlive:original.meta.media.width">3840</property>
  <property name="kdenlive:original.meta.media.height">2160</property>
  <property name="kdenlive:original.meta.media.color_range">mpeg</property>
  <property name="kdenlive:original.meta.media.top_field_first">0</property>
  <property name="kdenlive:original.meta.media.progressive">1</property>
  <property name="kdenlive:original.kdenlive:clip_type">2</property>
  <property name="kdenlive:original.kdenlive:folderid">344</property>
  <property name="kdenlive:original.kdenlive:id">352</property>
  <property name="kdenlive:original.kdenlive:file_size">76890</property>
  <property name="kdenlive:original.kdenlive:file_hash">c456a7437537e724dfc42ef76cdbab12</property>
  <property name="kdenlive:original.backup">1</property>
  <property name="meta.media.frame_rate_num">60</property>
  <property name="meta.media.frame_rate_den">1</property>
  <property name="meta.media.colorspace">601</property>
  <property name="meta.media.color_trc">2</property>
  <property name="meta.media.has_b_frames">0</property>
  <property name="meta.media.width">640</property>
  <property name="meta.media.height">360</property>
  <property name="meta.media.color_range">full</property>
  <property name="meta.media.top_field_first">0</property>
  <property name="meta.media.progressive">1</property>
 </producer>
 <producer id="producer276" in="00:00:00.000" out="00:00:01.483">
  <property name="length">90</property>
  <property name="eof">pause</property>
  <property name="resource">/home/xiaoxiae/.cache/kdenlive/proxy/681e060776f37bb0ec17d5782ec55aca.mkv</property>
  <property name="meta.media.nb_streams">1</property>
  <property name="meta.media.0.stream.type">video</property>
  <property name="meta.media.0.stream.frame_rate">60</property>
  <property name="meta.media.0.stream.sample_aspect_ratio">0</property>
  <property name="meta.media.0.codec.width">640</property>
  <property name="meta.media.0.codec.height">360</property>
  <property name="meta.media.0.codec.rotate">0</property>
  <property name="meta.media.0.codec.pix_fmt">yuvj420p</property>
  <property name="meta.media.0.codec.sample_aspect_ratio">0</property>
  <property name="meta.media.0.codec.colorspace">601</property>
  <property name="meta.media.0.codec.name">mjpeg</property>
  <property name="meta.media.0.codec.long_name">MJPEG (Motion JPEG)</property>
  <property name="meta.media.0.codec.bit_rate">0</property>
  <property name="meta.attr.0.stream.HANDLER_NAME.markup">VideoHandler</property>
  <property name="meta.attr.0.stream.VENDOR_ID.markup">[0][0][0][0]</property>
  <property name="meta.attr.0.stream.ENCODER.markup">Lavc60.3.100 mjpeg</property>
  <property name="meta.attr.0.stream.DURATION.markup">00:00:01.500000000</property>
  <property name="meta.attr.COMMENT.markup">Rendered with Manim Community v0.17.2</property>
  <property name="meta.attr.MAJOR_BRAND.markup">isom</property>
  <property name="meta.attr.MINOR_VERSION.markup">512</property>
  <property name="meta.attr.COMPATIBLE_BRANDS.markup">isomiso2avc1mp41</property>
  <property name="meta.attr.ENCODER.markup">Lavf60.3.100</property>
  <property name="seekable">1</property>
  <property name="meta.media.sample_aspect_num">1</property>
  <property name="meta.media.sample_aspect_den">1</property>
  <property name="aspect_ratio">1</property>
  <property name="format">3</property>
  <property name="audio_index">-1</property>
  <property name="video_index">0</property>
  <property name="mute_on_pause">0</property>
  <property name="mlt_service">avformat-novalidate</property>
  <property name="kdenlive:clipname">17.mp4</property>
  <property name="kdenlive:clip_type">2</property>
  <property name="kdenlive:folderid">344</property>
  <property name="kdenlive:id">351</property>
  <property name="kdenlive:file_size">94654</property>
  <property name="kdenlive:file_hash">681e060776f37bb0ec17d5782ec55aca</property>
  <property name="kdenlive:proxy">/home/xiaoxiae/.cache/kdenlive/proxy/681e060776f37bb0ec17d5782ec55aca.mkv</property>
  <property name="kdenlive:originalurl">video/Basics/17.mp4</property>
  <property name="kdenlive:original.mlt_type">producer</property>
  <property name="kdenlive:original.in">00:00:00.000</property>
  <property name="kdenlive:original.out">00:00:01.483</property>
  <property name="kdenlive:original.length">90</property>
  <property name="kdenlive:original.eof">pause</property>
  <property name="kdenlive:original.resource">video/Basics/17.mp4</property>
  <property name="kdenlive:original.meta.media.nb_streams">1</property>
  <property name="kdenlive:original.meta.media.0.stream.type">video</property>
  <property name="kdenlive:original.meta.media.0.stream.frame_rate">60</property>
  <property name="kdenlive:original.meta.media.0.stream.sample_aspect_ratio">0</property>
  <property name="kdenlive:original.meta.media.0.codec.width">3840</property>
  <property name="kdenlive:original.meta.media.0.codec.height">2160</property>
  <property name="kdenlive:original.meta.media.0.codec.rotate">0</property>
  <property name="kdenlive:original.meta.media.0.codec.pix_fmt">yuv420p</property>
  <property name="kdenlive:original.meta.media.0.codec.sample_aspect_ratio">0</property>
  <property name="kdenlive:original.meta.media.0.codec.colorspace">709</property>
  <property name="kdenlive:original.meta.media.0.codec.name">h264</property>
  <property name="kdenlive:original.meta.media.0.codec.long_name">H.264 / AVC / MPEG-4 AVC / MPEG-4 part 10</property>
  <property name="kdenlive:original.meta.media.0.codec.bit_rate">494160</property>
  <property name="kdenlive:original.meta.attr.0.stream.handler_name.markup">VideoHandler</property>
  <property name="kdenlive:original.meta.attr.0.stream.vendor_id.markup">[0][0][0][0]</property>
  <property name="kdenlive:original.meta.attr.0.stream.encoder.markup">Lavc60.3.100 libx264</property>
  <property name="kdenlive:original.meta.attr.major_brand.markup">isom</property>
  <property name="kdenlive:original.meta.attr.minor_version.markup">512</property>
  <property name="kdenlive:original.meta.attr.compatible_brands.markup">isomiso2avc1mp41</property>
  <property name="kdenlive:original.meta.attr.encoder.markup">Lavf60.3.100</property>
  <property name="kdenlive:original.meta.attr.comment.markup">Rendered with Manim Community v0.17.2</property>
  <property name="kdenlive:original.seekable">1</property>
  <property name="kdenlive:original.width">3840</property>
  <property name="kdenlive:original.height">2160</property>
  <property name="kdenlive:original.meta.media.sample_aspect_num">1</property>
  <property name="kdenlive:original.meta.media.sample_aspect_den">1</property>
  <property name="kdenlive:original.aspect_ratio">1</property>
  <property name="kdenlive:original.format">3</property>
  <property name="kdenlive:original.audio_index">-1</property>
  <property name="kdenlive:original.video_index">0</property>
  <property name="kdenlive:original.mute_on_pause">0</property>
  <property name="kdenlive:original.mlt_service">avformat-novalidate</property>
  <property name="kdenlive:original.meta.media.frame_rate_num">60</property>
  <property name="kdenlive:original.meta.media.frame_rate_den">1</property>
  <property name="kdenlive:original.meta.media.colorspace">709</property>
  <property name="kdenlive:original.meta.media.color_trc">2</property>
  <property name="kdenlive:original.meta.media.has_b_frames">2</property>
  <property name="kdenlive:original.meta.media.width">3840</property>
  <property name="kdenlive:original.meta.media.height">2160</property>
  <property name="kdenlive:original.meta.media.color_range">mpeg</property>
  <property name="kdenlive:original.meta.media.top_field_first">0</property>
  <property name="kdenlive:original.meta.media.progressive">1</property>
  <property name="kdenlive:original.kdenlive:clip_type">2</property>
  <property name="kdenlive:original.kdenlive:folderid">344</property>
  <property name="kdenlive:original.kdenlive:id">353</property>
  <property name="kdenlive:original.kdenlive:file_size">94654</property>
  <property name="kdenlive:original.kdenlive:file_hash">681e060776f37bb0ec17d5782ec55aca</property>
  <property name="kdenlive:original.backup">1</property>
  <property name="meta.media.frame_rate_num">60</property>
  <property name="meta.media.frame_rate_den">1</property>
  <property name="meta.media.colorspace">601</property>
  <property name="meta.media.color_trc">2</property>
  <property name="meta.media.has_b_frames">0</property>
  <property name="meta.media.width">640</property>
  <property name="meta.media.height">360</property>
  <property name="meta.media.color_range">full</property>
  <property name="meta.media.top_field_first">0</property>
  <property name="meta.media.progressive">1</property>
 </producer>
 <producer id="producer277" in="00:00:00.000" out="00:00:00.983">
  <property name="length">60</property>
  <property name="eof">pause</property>
  <property name="resource">/home/xiaoxiae/.cache/kdenlive/proxy/b15426ffd4479468aeee31d3b1a430d3.mkv</property>
  <property name="meta.media.nb_streams">1</property>
  <property name="meta.media.0.stream.type">video</property>
  <property name="meta.media.0.stream.frame_rate">60</property>
  <property name="meta.media.0.stream.sample_aspect_ratio">0</property>
  <property name="meta.media.0.codec.width">640</property>
  <property name="meta.media.0.codec.height">360</property>
  <property name="meta.media.0.codec.rotate">0</property>
  <property name="meta.media.0.codec.pix_fmt">yuvj420p</property>
  <property name="meta.media.0.codec.sample_aspect_ratio">0</property>
  <property name="meta.media.0.codec.colorspace">601</property>
  <property name="meta.media.0.codec.name">mjpeg</property>
  <property name="meta.media.0.codec.long_name">MJPEG (Motion JPEG)</property>
  <property name="meta.media.0.codec.bit_rate">0</property>
  <property name="meta.attr.0.stream.HANDLER_NAME.markup">VideoHandler</property>
  <property name="meta.attr.0.stream.VENDOR_ID.markup">[0][0][0][0]</property>
  <property name="meta.attr.0.stream.ENCODER.markup">Lavc60.3.100 mjpeg</property>
  <property name="meta.attr.0.stream.DURATION.markup">00:00:01.000000000</property>
  <property name="meta.attr.COMMENT.markup">Rendered with Manim Community v0.17.2</property>
  <property name="meta.attr.MAJOR_BRAND.markup">isom</property>
  <property name="meta.attr.MINOR_VERSION.markup">512</property>
  <property name="meta.attr.COMPATIBLE_BRANDS.markup">isomiso2avc1mp41</property>
  <property name="meta.attr.ENCODER.markup">Lavf60.3.100</property>
  <property name="seekable">1</property>
  <property name="meta.media.sample_aspect_num">1</property>
  <property name="meta.media.sample_aspect_den">1</property>
  <property name="aspect_ratio">1</property>
  <property name="format">3</property>
  <property name="audio_index">-1</property>
  <property name="video_index">0</property>
  <property name="mute_on_pause">0</property>
  <property name="mlt_service">avformat-novalidate</property>
  <property name="kdenlive:clipname">18.mp4</property>
  <property name="kdenlive:clip_type">2</property>
  <property name="kdenlive:folderid">344</property>
  <property name="kdenlive:id">352</property>
  <property name="kdenlive:file_size">140188</property>
  <property name="kdenlive:file_hash">b15426ffd4479468aeee31d3b1a430d3</property>
  <property name="kdenlive:proxy">/home/xiaoxiae/.cache/kdenlive/proxy/b15426ffd4479468aeee31d3b1a430d3.mkv</property>
  <property name="kdenlive:originalurl">video/Basics/18.mp4</property>
  <property name="kdenlive:original.mlt_type">producer</property>
  <property name="kdenlive:original.in">00:00:00.000</property>
  <property name="kdenlive:original.out">00:00:00.983</property>
  <property name="kdenlive:original.length">60</property>
  <property name="kdenlive:original.eof">pause</property>
  <property name="kdenlive:original.resource">video/Basics/18.mp4</property>
  <property name="kdenlive:original.meta.media.nb_streams">1</property>
  <property name="kdenlive:original.meta.media.0.stream.type">video</property>
  <property name="kdenlive:original.meta.media.0.stream.frame_rate">60</property>
  <property name="kdenlive:original.meta.media.0.stream.sample_aspect_ratio">0</property>
  <property name="kdenlive:original.meta.media.0.codec.width">3840</property>
  <property name="kdenlive:original.meta.media.0.codec.height">2160</property>
  <property name="kdenlive:original.meta.media.0.codec.rotate">0</property>
  <property name="kdenlive:original.meta.media.0.codec.pix_fmt">yuv420p</property>
  <property name="kdenlive:original.meta.media.0.codec.sample_aspect_ratio">0</property>
  <property name="kdenlive:original.meta.media.0.codec.colorspace">709</property>
  <property name="kdenlive:original.meta.media.0.codec.name">h264</property>
  <property name="kdenlive:original.meta.media.0.codec.long_name">H.264 / AVC / MPEG-4 AVC / MPEG-4 part 10</property>
  <property name="kdenlive:original.meta.media.0.codec.bit_rate">1108520</property>
  <property name="kdenlive:original.meta.attr.0.stream.handler_name.markup">VideoHandler</property>
  <property name="kdenlive:original.meta.attr.0.stream.vendor_id.markup">[0][0][0][0]</property>
  <property name="kdenlive:original.meta.attr.0.stream.encoder.markup">Lavc60.3.100 libx264</property>
  <property name="kdenlive:original.meta.attr.major_brand.markup">isom</property>
  <property name="kdenlive:original.meta.attr.minor_version.markup">512</property>
  <property name="kdenlive:original.meta.attr.compatible_brands.markup">isomiso2avc1mp41</property>
  <property name="kdenlive:original.meta.attr.encoder.markup">Lavf60.3.100</property>
  <property name="kdenlive:original.meta.attr.comment.markup">Rendered with Manim Community v0.17.2</property>
  <property name="kdenlive:original.seekable">1</property>
  <property name="kdenlive:original.width">3840</property>
  <property name="kdenlive:original.height">2160</property>
  <property name="kdenlive:original.meta.media.sample_aspect_num">1</property>
  <property name="kdenlive:original.meta.media.sample_aspect_den">1</property>
  <property name="kdenlive:original.aspect_ratio">1</property>
  <property name="kdenlive:original.format">3</property>
  <property name="kdenlive:original.audio_index">-1</property>
  <property name="kdenlive:original.video_index">0</property>
  <property name="kdenlive:original.mute_on_pause">0</property>
  <property name="kdenlive:original.mlt_service">avformat-novalidate</property>
  <property name="kdenlive:original.meta.media.frame_rate_num">60</property>
  <property name="kdenlive:original.meta.media.frame_rate_den">1</property>
  <property name="kdenlive:original.meta.media.colorspace">709</property>
  <property name="kdenlive:original.meta.media.color_trc">2</property>
  <property name="kdenlive:original.meta.media.has_b_frames">2</property>
  <property name="kdenlive:original.meta.media.width">3840</property>
  <property name="kdenlive:original.meta.media.height">2160</property>
  <property name="kdenlive:original.meta.media.color_range">mpeg</property>
  <property name="kdenlive:original.meta.media.top_field_first">0</property>
  <property name="kdenlive:original.meta.media.progressive">1</property>
  <property name="kdenlive:original.kdenlive:clip_type">2</property>
  <property name="kdenlive:original.kdenlive:folderid">344</property>
  <property name="kdenlive:original.kdenlive:id">354</property>
  <property name="kdenlive:original.kdenlive:file_size">140188</property>
  <property name="kdenlive:original.kdenlive:file_hash">b15426ffd4479468aeee31d3b1a430d3</property>
  <property name="kdenlive:original.backup">1</property>
  <property name="meta.media.frame_rate_num">60</property>
  <property name="meta.media.frame_rate_den">1</property>
  <property name="meta.media.colorspace">601</property>
  <property name="meta.media.color_trc">2</property>
  <property name="meta.media.has_b_frames">0</property>
  <property name="meta.media.width">640</property>
  <property name="meta.media.height">360</property>
  <property name="meta.media.color_range">full</property>
  <property name="meta.media.top_field_first">0</property>
  <property name="meta.media.progressive">1</property>
 </producer>
 <producer id="producer278" in="00:00:00.000" out="00:00:00.983">
  <property name="length">60</property>
  <property name="eof">pause</property>
  <property name="resource">/home/xiaoxiae/.cache/kdenlive/proxy/b26c21ecbfe543c1308f9b24fa7c0a5f.mkv</property>
  <property name="meta.media.nb_streams">1</property>
  <property name="meta.media.0.stream.type">video</property>
  <property name="meta.media.0.stream.frame_rate">60</property>
  <property name="meta.media.0.stream.sample_aspect_ratio">0</property>
  <property name="meta.media.0.codec.width">640</property>
  <property name="meta.media.0.codec.height">360</property>
  <property name="meta.media.0.codec.rotate">0</property>
  <property name="meta.media.0.codec.pix_fmt">yuvj420p</property>
  <property name="meta.media.0.codec.sample_aspect_ratio">0</property>
  <property name="meta.media.0.codec.colorspace">601</property>
  <property name="meta.media.0.codec.name">mjpeg</property>
  <property name="meta.media.0.codec.long_name">MJPEG (Motion JPEG)</property>
  <property name="meta.media.0.codec.bit_rate">0</property>
  <property name="meta.attr.0.stream.HANDLER_NAME.markup">VideoHandler</property>
  <property name="meta.attr.0.stream.VENDOR_ID.markup">[0][0][0][0]</property>
  <property name="meta.attr.0.stream.ENCODER.markup">Lavc60.3.100 mjpeg</property>
  <property name="meta.attr.0.stream.DURATION.markup">00:00:01.000000000</property>
  <property name="meta.attr.COMMENT.markup">Rendered with Manim Community v0.17.2</property>
  <property name="meta.attr.MAJOR_BRAND.markup">isom</property>
  <property name="meta.attr.MINOR_VERSION.markup">512</property>
  <property name="meta.attr.COMPATIBLE_BRANDS.markup">isomiso2avc1mp41</property>
  <property name="meta.attr.ENCODER.markup">Lavf60.3.100</property>
  <property name="seekable">1</property>
  <property name="meta.media.sample_aspect_num">1</property>
  <property name="meta.media.sample_aspect_den">1</property>
  <property name="aspect_ratio">1</property>
  <property name="format">3</property>
  <property name="audio_index">-1</property>
  <property name="video_index">0</property>
  <property name="mute_on_pause">0</property>
  <property name="mlt_service">avformat-novalidate</property>
  <property name="kdenlive:clipname">19.mp4</property>
  <property name="kdenlive:clip_type">2</property>
  <property name="kdenlive:folderid">344</property>
  <property name="kdenlive:id">353</property>
  <property name="kdenlive:file_size">96553</property>
  <property name="kdenlive:file_hash">b26c21ecbfe543c1308f9b24fa7c0a5f</property>
  <property name="kdenlive:proxy">/home/xiaoxiae/.cache/kdenlive/proxy/b26c21ecbfe543c1308f9b24fa7c0a5f.mkv</property>
  <property name="kdenlive:originalurl">video/Basics/19.mp4</property>
  <property name="kdenlive:original.mlt_type">producer</property>
  <property name="kdenlive:original.in">00:00:00.000</property>
  <property name="kdenlive:original.out">00:00:00.983</property>
  <property name="kdenlive:original.length">60</property>
  <property name="kdenlive:original.eof">pause</property>
  <property name="kdenlive:original.resource">video/Basics/19.mp4</property>
  <property name="kdenlive:original.meta.media.nb_streams">1</property>
  <property name="kdenlive:original.meta.media.0.stream.type">video</property>
  <property name="kdenlive:original.meta.media.0.stream.frame_rate">60</property>
  <property name="kdenlive:original.meta.media.0.stream.sample_aspect_ratio">0</property>
  <property name="kdenlive:original.meta.media.0.codec.width">3840</property>
  <property name="kdenlive:original.meta.media.0.codec.height">2160</property>
  <property name="kdenlive:original.meta.media.0.codec.rotate">0</property>
  <property name="kdenlive:original.meta.media.0.codec.pix_fmt">yuv420p</property>
  <property name="kdenlive:original.meta.media.0.codec.sample_aspect_ratio">0</property>
  <property name="kdenlive:original.meta.media.0.codec.colorspace">709</property>
  <property name="kdenlive:original.meta.media.0.codec.name">h264</property>
  <property name="kdenlive:original.meta.media.0.codec.long_name">H.264 / AVC / MPEG-4 AVC / MPEG-4 part 10</property>
  <property name="kdenlive:original.meta.media.0.codec.bit_rate">759376</property>
  <property name="kdenlive:original.meta.attr.0.stream.handler_name.markup">VideoHandler</property>
  <property name="kdenlive:original.meta.attr.0.stream.vendor_id.markup">[0][0][0][0]</property>
  <property name="kdenlive:original.meta.attr.0.stream.encoder.markup">Lavc60.3.100 libx264</property>
  <property name="kdenlive:original.meta.attr.major_brand.markup">isom</property>
  <property name="kdenlive:original.meta.attr.minor_version.markup">512</property>
  <property name="kdenlive:original.meta.attr.compatible_brands.markup">isomiso2avc1mp41</property>
  <property name="kdenlive:original.meta.attr.encoder.markup">Lavf60.3.100</property>
  <property name="kdenlive:original.meta.attr.comment.markup">Rendered with Manim Community v0.17.2</property>
  <property name="kdenlive:original.seekable">1</property>
  <property name="kdenlive:original.width">3840</property>
  <property name="kdenlive:original.height">2160</property>
  <property name="kdenlive:original.meta.media.sample_aspect_num">1</property>
  <property name="kdenlive:original.meta.media.sample_aspect_den">1</property>
  <property name="kdenlive:original.aspect_ratio">1</property>
  <property name="kdenlive:original.format">3</property>
  <property name="kdenlive:original.audio_index">-1</property>
  <property name="kdenlive:original.video_index">0</property>
  <property name="kdenlive:original.mute_on_pause">0</property>
  <property name="kdenlive:original.mlt_service">avformat-novalidate</property>
  <property name="kdenlive:original.meta.media.frame_rate_num">60</property>
  <property name="kdenlive:original.meta.media.frame_rate_den">1</property>
  <property name="kdenlive:original.meta.media.colorspace">709</property>
  <property name="kdenlive:original.meta.media.color_trc">2</property>
  <property name="kdenlive:original.meta.media.has_b_frames">2</property>
  <property name="kdenlive:original.meta.media.width">3840</property>
  <property name="kdenlive:original.meta.media.height">2160</property>
  <property name="kdenlive:original.meta.media.color_range">mpeg</property>
  <property name="kdenlive:original.meta.media.top_field_first">0</property>
  <property name="kdenlive:original.meta.media.progressive">1</property>
  <property name="kdenlive:original.kdenlive:clip_type">2</property>
  <property name="kdenlive:original.kdenlive:folderid">344</property>
  <property name="kdenlive:original.kdenlive:id">355</property>
  <property name="kdenlive:original.kdenlive:file_size">96553</property>
  <property name="kdenlive:original.kdenlive:file_hash">b26c21ecbfe543c1308f9b24fa7c0a5f</property>
  <property name="kdenlive:original.backup">1</property>
  <property name="meta.media.frame_rate_num">60</property>
  <property name="meta.media.frame_rate_den">1</property>
  <property name="meta.media.colorspace">601</property>
  <property name="meta.media.color_trc">2</property>
  <property name="meta.media.has_b_frames">0</property>
  <property name="meta.media.width">640</property>
  <property name="meta.media.height">360</property>
  <property name="meta.media.color_range">full</property>
  <property name="meta.media.top_field_first">0</property>
  <property name="meta.media.progressive">1</property>
 </producer>
 <producer id="producer279" in="00:00:00.000" out="00:00:01.317">
  <property name="length">80</property>
  <property name="eof">pause</property>
  <property name="resource">/home/xiaoxiae/.cache/kdenlive/proxy/a17ec532fdf67dbc9ce7dc28b66b4bc3.mkv</property>
  <property name="meta.media.nb_streams">1</property>
  <property name="meta.media.0.stream.type">video</property>
  <property name="meta.media.0.stream.frame_rate">60</property>
  <property name="meta.media.0.stream.sample_aspect_ratio">0</property>
  <property name="meta.media.0.codec.width">640</property>
  <property name="meta.media.0.codec.height">360</property>
  <property name="meta.media.0.codec.rotate">0</property>
  <property name="meta.media.0.codec.pix_fmt">yuvj420p</property>
  <property name="meta.media.0.codec.sample_aspect_ratio">0</property>
  <property name="meta.media.0.codec.colorspace">601</property>
  <property name="meta.media.0.codec.name">mjpeg</property>
  <property name="meta.media.0.codec.long_name">MJPEG (Motion JPEG)</property>
  <property name="meta.media.0.codec.bit_rate">0</property>
  <property name="meta.attr.0.stream.HANDLER_NAME.markup">VideoHandler</property>
  <property name="meta.attr.0.stream.VENDOR_ID.markup">[0][0][0][0]</property>
  <property name="meta.attr.0.stream.ENCODER.markup">Lavc60.3.100 mjpeg</property>
  <property name="meta.attr.0.stream.DURATION.markup">00:00:01.334000000</property>
  <property name="meta.attr.COMMENT.markup">Rendered with Manim Community v0.17.2</property>
  <property name="meta.attr.MAJOR_BRAND.markup">isom</property>
  <property name="meta.attr.MINOR_VERSION.markup">512</property>
  <property name="meta.attr.COMPATIBLE_BRANDS.markup">isomiso2avc1mp41</property>
  <property name="meta.attr.ENCODER.markup">Lavf60.3.100</property>
  <property name="seekable">1</property>
  <property name="meta.media.sample_aspect_num">1</property>
  <property name="meta.media.sample_aspect_den">1</property>
  <property name="aspect_ratio">1</property>
  <property name="format">3</property>
  <property name="audio_index">-1</property>
  <property name="video_index">0</property>
  <property name="mute_on_pause">0</property>
  <property name="mlt_service">avformat-novalidate</property>
  <property name="kdenlive:clipname">2.mp4</property>
  <property name="kdenlive:clip_type">2</property>
  <property name="kdenlive:folderid">344</property>
  <property name="kdenlive:id">354</property>
  <property name="kdenlive:file_size">160156</property>
  <property name="kdenlive:file_hash">a17ec532fdf67dbc9ce7dc28b66b4bc3</property>
  <property name="kdenlive:proxy">/home/xiaoxiae/.cache/kdenlive/proxy/a17ec532fdf67dbc9ce7dc28b66b4bc3.mkv</property>
  <property name="kdenlive:originalurl">video/Basics/2.mp4</property>
  <property name="kdenlive:original.mlt_type">producer</property>
  <property name="kdenlive:original.in">00:00:00.000</property>
  <property name="kdenlive:original.out">00:00:01.317</property>
  <property name="kdenlive:original.length">80</property>
  <property name="kdenlive:original.eof">pause</property>
  <property name="kdenlive:original.resource">video/Basics/2.mp4</property>
  <property name="kdenlive:original.meta.media.nb_streams">1</property>
  <property name="kdenlive:original.meta.media.0.stream.type">video</property>
  <property name="kdenlive:original.meta.media.0.stream.frame_rate">60</property>
  <property name="kdenlive:original.meta.media.0.stream.sample_aspect_ratio">0</property>
  <property name="kdenlive:original.meta.media.0.codec.width">3840</property>
  <property name="kdenlive:original.meta.media.0.codec.height">2160</property>
  <property name="kdenlive:original.meta.media.0.codec.rotate">0</property>
  <property name="kdenlive:original.meta.media.0.codec.pix_fmt">yuv420p</property>
  <property name="kdenlive:original.meta.media.0.codec.sample_aspect_ratio">0</property>
  <property name="kdenlive:original.meta.media.0.codec.colorspace">709</property>
  <property name="kdenlive:original.meta.media.0.codec.name">h264</property>
  <property name="kdenlive:original.meta.media.0.codec.long_name">H.264 / AVC / MPEG-4 AVC / MPEG-4 part 10</property>
  <property name="kdenlive:original.meta.media.0.codec.bit_rate">949710</property>
  <property name="kdenlive:original.meta.attr.0.stream.handler_name.markup">VideoHandler</property>
  <property name="kdenlive:original.meta.attr.0.stream.vendor_id.markup">[0][0][0][0]</property>
  <property name="kdenlive:original.meta.attr.0.stream.encoder.markup">Lavc60.3.100 libx264</property>
  <property name="kdenlive:original.meta.attr.major_brand.markup">isom</property>
  <property name="kdenlive:original.meta.attr.minor_version.markup">512</property>
  <property name="kdenlive:original.meta.attr.compatible_brands.markup">isomiso2avc1mp41</property>
  <property name="kdenlive:original.meta.attr.encoder.markup">Lavf60.3.100</property>
  <property name="kdenlive:original.meta.attr.comment.markup">Rendered with Manim Community v0.17.2</property>
  <property name="kdenlive:original.seekable">1</property>
  <property name="kdenlive:original.width">3840</property>
  <property name="kdenlive:original.height">2160</property>
  <property name="kdenlive:original.meta.media.sample_aspect_num">1</property>
  <property name="kdenlive:original.meta.media.sample_aspect_den">1</property>
  <property name="kdenlive:original.aspect_ratio">1</property>
  <property name="kdenlive:original.format">3</property>
  <property name="kdenlive:original.audio_index">-1</property>
  <property name="kdenlive:original.video_index">0</property>
  <property name="kdenlive:original.mute_on_pause">0</property>
  <property name="kdenlive:original.mlt_service">avformat-novalidate</property>
  <property name="kdenlive:original.meta.media.frame_rate_num">60</property>
  <property name="kdenlive:original.meta.media.frame_rate_den">1</property>
  <property name="kdenlive:original.meta.media.colorspace">709</property>
  <property name="kdenlive:original.meta.media.color_trc">2</property>
  <property name="kdenlive:original.meta.media.has_b_frames">2</property>
  <property name="kdenlive:original.meta.media.width">3840</property>
  <property name="kdenlive:original.meta.media.height">2160</property>
  <property name="kdenlive:original.meta.media.color_range">mpeg</property>
  <property name="kdenlive:original.meta.media.top_field_first">0</property>
  <property name="kdenlive:original.meta.media.progressive">1</property>
  <property name="kdenlive:original.kdenlive:clip_type">2</property>
  <property name="kdenlive:original.kdenlive:folderid">344</property>
  <property name="kdenlive:original.kdenlive:id">356</property>
  <property name="kdenlive:original.kdenlive:file_size">160156</property>
  <property name="kdenlive:original.kdenlive:file_hash">a17ec532fdf67dbc9ce7dc28b66b4bc3</property>
  <property name="kdenlive:original.backup">1</property>
  <property name="meta.media.frame_rate_num">60</property>
  <property name="meta.media.frame_rate_den">1</property>
  <property name="meta.media.colorspace">601</property>
  <property name="meta.media.color_trc">2</property>
  <property name="meta.media.has_b_frames">0</property>
  <property name="meta.media.width">640</property>
  <property name="meta.media.height">360</property>
  <property name="meta.media.color_range">full</property>
  <property name="meta.media.top_field_first">0</property>
  <property name="meta.media.progressive">1</property>
 </producer>
 <producer id="producer280" in="00:00:00.000" out="00:00:00.983">
  <property name="length">60</property>
  <property name="eof">pause</property>
  <property name="resource">/home/xiaoxiae/.cache/kdenlive/proxy/4e7fc7be117bb203bebea57c43a16bc7.mkv</property>
  <property name="meta.media.nb_streams">1</property>
  <property name="meta.media.0.stream.type">video</property>
  <property name="meta.media.0.stream.frame_rate">60</property>
  <property name="meta.media.0.stream.sample_aspect_ratio">0</property>
  <property name="meta.media.0.codec.width">640</property>
  <property name="meta.media.0.codec.height">360</property>
  <property name="meta.media.0.codec.rotate">0</property>
  <property name="meta.media.0.codec.pix_fmt">yuvj420p</property>
  <property name="meta.media.0.codec.sample_aspect_ratio">0</property>
  <property name="meta.media.0.codec.colorspace">601</property>
  <property name="meta.media.0.codec.name">mjpeg</property>
  <property name="meta.media.0.codec.long_name">MJPEG (Motion JPEG)</property>
  <property name="meta.media.0.codec.bit_rate">0</property>
  <property name="meta.attr.0.stream.HANDLER_NAME.markup">VideoHandler</property>
  <property name="meta.attr.0.stream.VENDOR_ID.markup">[0][0][0][0]</property>
  <property name="meta.attr.0.stream.ENCODER.markup">Lavc60.3.100 mjpeg</property>
  <property name="meta.attr.0.stream.DURATION.markup">00:00:01.000000000</property>
  <property name="meta.attr.COMMENT.markup">Rendered with Manim Community v0.17.2</property>
  <property name="meta.attr.MAJOR_BRAND.markup">isom</property>
  <property name="meta.attr.MINOR_VERSION.markup">512</property>
  <property name="meta.attr.COMPATIBLE_BRANDS.markup">isomiso2avc1mp41</property>
  <property name="meta.attr.ENCODER.markup">Lavf60.3.100</property>
  <property name="seekable">1</property>
  <property name="meta.media.sample_aspect_num">1</property>
  <property name="meta.media.sample_aspect_den">1</property>
  <property name="aspect_ratio">1</property>
  <property name="format">3</property>
  <property name="audio_index">-1</property>
  <property name="video_index">0</property>
  <property name="mute_on_pause">0</property>
  <property name="mlt_service">avformat-novalidate</property>
  <property name="kdenlive:clipname">20.mp4</property>
  <property name="kdenlive:clip_type">2</property>
  <property name="kdenlive:folderid">344</property>
  <property name="kdenlive:id">355</property>
  <property name="kdenlive:file_size">64114</property>
  <property name="kdenlive:file_hash">4e7fc7be117bb203bebea57c43a16bc7</property>
  <property name="kdenlive:proxy">/home/xiaoxiae/.cache/kdenlive/proxy/4e7fc7be117bb203bebea57c43a16bc7.mkv</property>
  <property name="kdenlive:originalurl">video/Basics/20.mp4</property>
  <property name="kdenlive:original.mlt_type">producer</property>
  <property name="kdenlive:original.in">00:00:00.000</property>
  <property name="kdenlive:original.out">00:00:00.983</property>
  <property name="kdenlive:original.length">60</property>
  <property name="kdenlive:original.eof">pause</property>
  <property name="kdenlive:original.resource">video/Basics/20.mp4</property>
  <property name="kdenlive:original.meta.media.nb_streams">1</property>
  <property name="kdenlive:original.meta.media.0.stream.type">video</property>
  <property name="kdenlive:original.meta.media.0.stream.frame_rate">60</property>
  <property name="kdenlive:original.meta.media.0.stream.sample_aspect_ratio">0</property>
  <property name="kdenlive:original.meta.media.0.codec.width">3840</property>
  <property name="kdenlive:original.meta.media.0.codec.height">2160</property>
  <property name="kdenlive:original.meta.media.0.codec.rotate">0</property>
  <property name="kdenlive:original.meta.media.0.codec.pix_fmt">yuv420p</property>
  <property name="kdenlive:original.meta.media.0.codec.sample_aspect_ratio">0</property>
  <property name="kdenlive:original.meta.media.0.codec.colorspace">709</property>
  <property name="kdenlive:original.meta.media.0.codec.name">h264</property>
  <property name="kdenlive:original.meta.media.0.codec.long_name">H.264 / AVC / MPEG-4 AVC / MPEG-4 part 10</property>
  <property name="kdenlive:original.meta.media.0.codec.bit_rate">499864</property>
  <property name="kdenlive:original.meta.attr.0.stream.handler_name.markup">VideoHandler</property>
  <property name="kdenlive:original.meta.attr.0.stream.vendor_id.markup">[0][0][0][0]</property>
  <property name="kdenlive:original.meta.attr.0.stream.encoder.markup">Lavc60.3.100 libx264</property>
  <property name="kdenlive:original.meta.attr.major_brand.markup">isom</property>
  <property name="kdenlive:original.meta.attr.minor_version.markup">512</property>
  <property name="kdenlive:original.meta.attr.compatible_brands.markup">isomiso2avc1mp41</property>
  <property name="kdenlive:original.meta.attr.encoder.markup">Lavf60.3.100</property>
  <property name="kdenlive:original.meta.attr.comment.markup">Rendered with Manim Community v0.17.2</property>
  <property name="kdenlive:original.seekable">1</property>
  <property name="kdenlive:original.width">3840</property>
  <property name="kdenlive:original.height">2160</property>
  <property name="kdenlive:original.meta.media.sample_aspect_num">1</property>
  <property name="kdenlive:original.meta.media.sample_aspect_den">1</property>
  <property name="kdenlive:original.aspect_ratio">1</property>
  <property name="kdenlive:original.format">3</property>
  <property name="kdenlive:original.audio_index">-1</property>
  <property name="kdenlive:original.video_index">0</property>
  <property name="kdenlive:original.mute_on_pause">0</property>
  <property name="kdenlive:original.mlt_service">avformat-novalidate</property>
  <property name="kdenlive:original.meta.media.frame_rate_num">60</property>
  <property name="kdenlive:original.meta.media.frame_rate_den">1</property>
  <property name="kdenlive:original.meta.media.colorspace">709</property>
  <property name="kdenlive:original.meta.media.color_trc">2</property>
  <property name="kdenlive:original.meta.media.has_b_frames">2</property>
  <property name="kdenlive:original.meta.media.width">3840</property>
  <property name="kdenlive:original.meta.media.height">2160</property>
  <property name="kdenlive:original.meta.media.color_range">mpeg</property>
  <property name="kdenlive:original.meta.media.top_field_first">0</property>
  <property name="kdenlive:original.meta.media.progressive">1</property>
  <property name="kdenlive:original.kdenlive:clip_type">2</property>
  <property name="kdenlive:original.kdenlive:folderid">344</property>
  <property name="kdenlive:original.kdenlive:id">357</property>
  <property name="kdenlive:original.kdenlive:file_size">64114</property>
  <property name="kdenlive:original.kdenlive:file_hash">4e7fc7be117bb203bebea57c43a16bc7</property>
  <property name="kdenlive:original.backup">1</property>
  <property name="meta.media.frame_rate_num">60</property>
  <property name="meta.media.frame_rate_den">1</property>
  <property name="meta.media.colorspace">601</property>
  <property name="meta.media.color_trc">2</property>
  <property name="meta.media.has_b_frames">0</property>
  <property name="meta.media.width">640</property>
  <property name="meta.media.height">360</property>
  <property name="meta.media.color_range">full</property>
  <property name="meta.media.top_field_first">0</property>
  <property name="meta.media.progressive">1</property>
 </producer>
 <producer id="producer282" in="00:00:00.000" out="00:00:01.483">
  <property name="length">90</property>
  <property name="eof">pause</property>
  <property name="resource">/home/xiaoxiae/.cache/kdenlive/proxy/52c987c00dde3293fbe083198b4630b5.mkv</property>
  <property name="meta.media.nb_streams">1</property>
  <property name="meta.media.0.stream.type">video</property>
  <property name="meta.media.0.stream.frame_rate">60</property>
  <property name="meta.media.0.stream.sample_aspect_ratio">0</property>
  <property name="meta.media.0.codec.width">640</property>
  <property name="meta.media.0.codec.height">360</property>
  <property name="meta.media.0.codec.rotate">0</property>
  <property name="meta.media.0.codec.pix_fmt">yuvj420p</property>
  <property name="meta.media.0.codec.sample_aspect_ratio">0</property>
  <property name="meta.media.0.codec.colorspace">601</property>
  <property name="meta.media.0.codec.name">mjpeg</property>
  <property name="meta.media.0.codec.long_name">MJPEG (Motion JPEG)</property>
  <property name="meta.media.0.codec.bit_rate">0</property>
  <property name="meta.attr.0.stream.HANDLER_NAME.markup">VideoHandler</property>
  <property name="meta.attr.0.stream.VENDOR_ID.markup">[0][0][0][0]</property>
  <property name="meta.attr.0.stream.ENCODER.markup">Lavc60.3.100 mjpeg</property>
  <property name="meta.attr.0.stream.DURATION.markup">00:00:01.500000000</property>
  <property name="meta.attr.COMMENT.markup">Rendered with Manim Community v0.17.2</property>
  <property name="meta.attr.MAJOR_BRAND.markup">isom</property>
  <property name="meta.attr.MINOR_VERSION.markup">512</property>
  <property name="meta.attr.COMPATIBLE_BRANDS.markup">isomiso2avc1mp41</property>
  <property name="meta.attr.ENCODER.markup">Lavf60.3.100</property>
  <property name="seekable">1</property>
  <property name="meta.media.sample_aspect_num">1</property>
  <property name="meta.media.sample_aspect_den">1</property>
  <property name="aspect_ratio">1</property>
  <property name="format">3</property>
  <property name="audio_index">-1</property>
  <property name="video_index">0</property>
  <property name="mute_on_pause">0</property>
  <property name="mlt_service">avformat-novalidate</property>
  <property name="kdenlive:clipname">21.mp4</property>
  <property name="kdenlive:clip_type">2</property>
  <property name="kdenlive:folderid">344</property>
  <property name="kdenlive:id">356</property>
  <property name="kdenlive:file_size">187072</property>
  <property name="kdenlive:file_hash">52c987c00dde3293fbe083198b4630b5</property>
  <property name="kdenlive:proxy">/home/xiaoxiae/.cache/kdenlive/proxy/52c987c00dde3293fbe083198b4630b5.mkv</property>
  <property name="kdenlive:originalurl">video/Basics/21.mp4</property>
  <property name="kdenlive:original.mlt_type">producer</property>
  <property name="kdenlive:original.in">00:00:00.000</property>
  <property name="kdenlive:original.out">00:00:01.483</property>
  <property name="kdenlive:original.length">90</property>
  <property name="kdenlive:original.eof">pause</property>
  <property name="kdenlive:original.resource">video/Basics/21.mp4</property>
  <property name="kdenlive:original.meta.media.nb_streams">1</property>
  <property name="kdenlive:original.meta.media.0.stream.type">video</property>
  <property name="kdenlive:original.meta.media.0.stream.frame_rate">60</property>
  <property name="kdenlive:original.meta.media.0.stream.sample_aspect_ratio">0</property>
  <property name="kdenlive:original.meta.media.0.codec.width">3840</property>
  <property name="kdenlive:original.meta.media.0.codec.height">2160</property>
  <property name="kdenlive:original.meta.media.0.codec.rotate">0</property>
  <property name="kdenlive:original.meta.media.0.codec.pix_fmt">yuv420p</property>
  <property name="kdenlive:original.meta.media.0.codec.sample_aspect_ratio">0</property>
  <property name="kdenlive:original.meta.media.0.codec.colorspace">709</property>
  <property name="kdenlive:original.meta.media.0.codec.name">h264</property>
  <property name="kdenlive:original.meta.media.0.codec.long_name">H.264 / AVC / MPEG-4 AVC / MPEG-4 part 10</property>
  <property name="kdenlive:original.meta.media.0.codec.bit_rate">987098</property>
  <property name="kdenlive:original.meta.attr.0.stream.handler_name.markup">VideoHandler</property>
  <property name="kdenlive:original.meta.attr.0.stream.vendor_id.markup">[0][0][0][0]</property>
  <property name="kdenlive:original.meta.attr.0.stream.encoder.markup">Lavc60.3.100 libx264</property>
  <property name="kdenlive:original.meta.attr.major_brand.markup">isom</property>
  <property name="kdenlive:original.meta.attr.minor_version.markup">512</property>
  <property name="kdenlive:original.meta.attr.compatible_brands.markup">isomiso2avc1mp41</property>
  <property name="kdenlive:original.meta.attr.encoder.markup">Lavf60.3.100</property>
  <property name="kdenlive:original.meta.attr.comment.markup">Rendered with Manim Community v0.17.2</property>
  <property name="kdenlive:original.seekable">1</property>
  <property name="kdenlive:original.width">3840</property>
  <property name="kdenlive:original.height">2160</property>
  <property name="kdenlive:original.meta.media.sample_aspect_num">1</property>
  <property name="kdenlive:original.meta.media.sample_aspect_den">1</property>
  <property name="kdenlive:original.aspect_ratio">1</property>
  <property name="kdenlive:original.format">3</property>
  <property name="kdenlive:original.audio_index">-1</property>
  <property name="kdenlive:original.video_index">0</property>
  <property name="kdenlive:original.mute_on_pause">0</property>
  <property name="kdenlive:original.mlt_service">avformat-novalidate</property>
  <property name="kdenlive:original.meta.media.frame_rate_num">60</property>
  <property name="kdenlive:original.meta.media.frame_rate_den">1</property>
  <property name="kdenlive:original.meta.media.colorspace">709</property>
  <property name="kdenlive:original.meta.media.color_trc">2</property>
  <property name="kdenlive:original.meta.media.has_b_frames">2</property>
  <property name="kdenlive:original.meta.media.width">3840</property>
  <property name="kdenlive:original.meta.media.height">2160</property>
  <property name="kdenlive:original.meta.media.color_range">mpeg</property>
  <property name="kdenlive:original.meta.media.top_field_first">0</property>
  <property name="kdenlive:original.meta.media.progressive">1</property>
  <property name="kdenlive:original.kdenlive:clip_type">2</property>
  <property name="kdenlive:original.kdenlive:folderid">344</property>
  <property name="kdenlive:original.kdenlive:id">358</property>
  <property name="kdenlive:original.kdenlive:file_size">187072</property>
  <property name="kdenlive:original.kdenlive:file_hash">52c987c00dde3293fbe083198b4630b5</property>
  <property name="kdenlive:original.backup">1</property>
  <property name="meta.media.frame_rate_num">60</property>
  <property name="meta.media.frame_rate_den">1</property>
  <property name="meta.media.colorspace">601</property>
  <property name="meta.media.color_trc">2</property>
  <property name="meta.media.has_b_frames">0</property>
  <property name="meta.media.width">640</property>
  <property name="meta.media.height">360</property>
  <property name="meta.media.color_range">full</property>
  <property name="meta.media.top_field_first">0</property>
  <property name="meta.media.progressive">1</property>
 </producer>
 <producer id="producer281" in="00:00:00.000" out="00:00:01.483">
  <property name="length">90</property>
  <property name="eof">pause</property>
  <property name="resource">/home/xiaoxiae/.cache/kdenlive/proxy/81a4ab415fdf5c31ce4ea6c43341b891.mkv</property>
  <property name="meta.media.nb_streams">1</property>
  <property name="meta.media.0.stream.type">video</property>
  <property name="meta.media.0.stream.frame_rate">60</property>
  <property name="meta.media.0.stream.sample_aspect_ratio">0</property>
  <property name="meta.media.0.codec.width">640</property>
  <property name="meta.media.0.codec.height">360</property>
  <property name="meta.media.0.codec.rotate">0</property>
  <property name="meta.media.0.codec.pix_fmt">yuvj420p</property>
  <property name="meta.media.0.codec.sample_aspect_ratio">0</property>
  <property name="meta.media.0.codec.colorspace">601</property>
  <property name="meta.media.0.codec.name">mjpeg</property>
  <property name="meta.media.0.codec.long_name">MJPEG (Motion JPEG)</property>
  <property name="meta.media.0.codec.bit_rate">0</property>
  <property name="meta.attr.0.stream.HANDLER_NAME.markup">VideoHandler</property>
  <property name="meta.attr.0.stream.VENDOR_ID.markup">[0][0][0][0]</property>
  <property name="meta.attr.0.stream.ENCODER.markup">Lavc60.3.100 mjpeg</property>
  <property name="meta.attr.0.stream.DURATION.markup">00:00:01.500000000</property>
  <property name="meta.attr.COMMENT.markup">Rendered with Manim Community v0.17.2</property>
  <property name="meta.attr.MAJOR_BRAND.markup">isom</property>
  <property name="meta.attr.MINOR_VERSION.markup">512</property>
  <property name="meta.attr.COMPATIBLE_BRANDS.markup">isomiso2avc1mp41</property>
  <property name="meta.attr.ENCODER.markup">Lavf60.3.100</property>
  <property name="seekable">1</property>
  <property name="meta.media.sample_aspect_num">1</property>
  <property name="meta.media.sample_aspect_den">1</property>
  <property name="aspect_ratio">1</property>
  <property name="format">3</property>
  <property name="audio_index">-1</property>
  <property name="video_index">0</property>
  <property name="mute_on_pause">0</property>
  <property name="mlt_service">avformat-novalidate</property>
  <property name="kdenlive:clipname">22.mp4</property>
  <property name="kdenlive:clip_type">2</property>
  <property name="kdenlive:folderid">344</property>
  <property name="kdenlive:id">357</property>
  <property name="kdenlive:file_size">421554</property>
  <property name="kdenlive:file_hash">81a4ab415fdf5c31ce4ea6c43341b891</property>
  <property name="kdenlive:proxy">/home/xiaoxiae/.cache/kdenlive/proxy/81a4ab415fdf5c31ce4ea6c43341b891.mkv</property>
  <property name="kdenlive:originalurl">video/Basics/22.mp4</property>
  <property name="kdenlive:original.mlt_type">producer</property>
  <property name="kdenlive:original.in">00:00:00.000</property>
  <property name="kdenlive:original.out">00:00:01.483</property>
  <property name="kdenlive:original.length">90</property>
  <property name="kdenlive:original.eof">pause</property>
  <property name="kdenlive:original.resource">video/Basics/22.mp4</property>
  <property name="kdenlive:original.meta.media.nb_streams">1</property>
  <property name="kdenlive:original.meta.media.0.stream.type">video</property>
  <property name="kdenlive:original.meta.media.0.stream.frame_rate">60</property>
  <property name="kdenlive:original.meta.media.0.stream.sample_aspect_ratio">0</property>
  <property name="kdenlive:original.meta.media.0.codec.width">3840</property>
  <property name="kdenlive:original.meta.media.0.codec.height">2160</property>
  <property name="kdenlive:original.meta.media.0.codec.rotate">0</property>
  <property name="kdenlive:original.meta.media.0.codec.pix_fmt">yuv420p</property>
  <property name="kdenlive:original.meta.media.0.codec.sample_aspect_ratio">0</property>
  <property name="kdenlive:original.meta.media.0.codec.colorspace">709</property>
  <property name="kdenlive:original.meta.media.0.codec.name">h264</property>
  <property name="kdenlive:original.meta.media.0.codec.long_name">H.264 / AVC / MPEG-4 AVC / MPEG-4 part 10</property>
  <property name="kdenlive:original.meta.media.0.codec.bit_rate">2238480</property>
  <property name="kdenlive:original.meta.attr.0.stream.handler_name.markup">VideoHandler</property>
  <property name="kdenlive:original.meta.attr.0.stream.vendor_id.markup">[0][0][0][0]</property>
  <property name="kdenlive:original.meta.attr.0.stream.encoder.markup">Lavc60.3.100 libx264</property>
  <property name="kdenlive:original.meta.attr.major_brand.markup">isom</property>
  <property name="kdenlive:original.meta.attr.minor_version.markup">512</property>
  <property name="kdenlive:original.meta.attr.compatible_brands.markup">isomiso2avc1mp41</property>
  <property name="kdenlive:original.meta.attr.encoder.markup">Lavf60.3.100</property>
  <property name="kdenlive:original.meta.attr.comment.markup">Rendered with Manim Community v0.17.2</property>
  <property name="kdenlive:original.seekable">1</property>
  <property name="kdenlive:original.width">3840</property>
  <property name="kdenlive:original.height">2160</property>
  <property name="kdenlive:original.meta.media.sample_aspect_num">1</property>
  <property name="kdenlive:original.meta.media.sample_aspect_den">1</property>
  <property name="kdenlive:original.aspect_ratio">1</property>
  <property name="kdenlive:original.format">3</property>
  <property name="kdenlive:original.audio_index">-1</property>
  <property name="kdenlive:original.video_index">0</property>
  <property name="kdenlive:original.mute_on_pause">0</property>
  <property name="kdenlive:original.mlt_service">avformat-novalidate</property>
  <property name="kdenlive:original.meta.media.frame_rate_num">60</property>
  <property name="kdenlive:original.meta.media.frame_rate_den">1</property>
  <property name="kdenlive:original.meta.media.colorspace">709</property>
  <property name="kdenlive:original.meta.media.color_trc">2</property>
  <property name="kdenlive:original.meta.media.has_b_frames">2</property>
  <property name="kdenlive:original.meta.media.width">3840</property>
  <property name="kdenlive:original.meta.media.height">2160</property>
  <property name="kdenlive:original.meta.media.color_range">mpeg</property>
  <property name="kdenlive:original.meta.media.top_field_first">0</property>
  <property name="kdenlive:original.meta.media.progressive">1</property>
  <property name="kdenlive:original.kdenlive:clip_type">2</property>
  <property name="kdenlive:original.kdenlive:folderid">344</property>
  <property name="kdenlive:original.kdenlive:id">359</property>
  <property name="kdenlive:original.kdenlive:file_size">421554</property>
  <property name="kdenlive:original.kdenlive:file_hash">81a4ab415fdf5c31ce4ea6c43341b891</property>
  <property name="kdenlive:original.backup">1</property>
  <property name="meta.media.frame_rate_num">60</property>
  <property name="meta.media.frame_rate_den">1</property>
  <property name="meta.media.colorspace">601</property>
  <property name="meta.media.color_trc">2</property>
  <property name="meta.media.has_b_frames">0</property>
  <property name="meta.media.width">640</property>
  <property name="meta.media.height">360</property>
  <property name="meta.media.color_range">full</property>
  <property name="meta.media.top_field_first">0</property>
  <property name="meta.media.progressive">1</property>
 </producer>
 <producer id="producer283" in="00:00:00.000" out="00:00:00.983">
  <property name="length">60</property>
  <property name="eof">pause</property>
  <property name="resource">/home/xiaoxiae/.cache/kdenlive/proxy/e862b3f5db5ab0da11fe170ffcbde460.mkv</property>
  <property name="meta.media.nb_streams">1</property>
  <property name="meta.media.0.stream.type">video</property>
  <property name="meta.media.0.stream.frame_rate">60</property>
  <property name="meta.media.0.stream.sample_aspect_ratio">0</property>
  <property name="meta.media.0.codec.width">640</property>
  <property name="meta.media.0.codec.height">360</property>
  <property name="meta.media.0.codec.rotate">0</property>
  <property name="meta.media.0.codec.pix_fmt">yuvj420p</property>
  <property name="meta.media.0.codec.sample_aspect_ratio">0</property>
  <property name="meta.media.0.codec.colorspace">601</property>
  <property name="meta.media.0.codec.name">mjpeg</property>
  <property name="meta.media.0.codec.long_name">MJPEG (Motion JPEG)</property>
  <property name="meta.media.0.codec.bit_rate">0</property>
  <property name="meta.attr.0.stream.HANDLER_NAME.markup">VideoHandler</property>
  <property name="meta.attr.0.stream.VENDOR_ID.markup">[0][0][0][0]</property>
  <property name="meta.attr.0.stream.ENCODER.markup">Lavc60.3.100 mjpeg</property>
  <property name="meta.attr.0.stream.DURATION.markup">00:00:01.000000000</property>
  <property name="meta.attr.COMMENT.markup">Rendered with Manim Community v0.17.2</property>
  <property name="meta.attr.MAJOR_BRAND.markup">isom</property>
  <property name="meta.attr.MINOR_VERSION.markup">512</property>
  <property name="meta.attr.COMPATIBLE_BRANDS.markup">isomiso2avc1mp41</property>
  <property name="meta.attr.ENCODER.markup">Lavf60.3.100</property>
  <property name="seekable">1</property>
  <property name="meta.media.sample_aspect_num">1</property>
  <property name="meta.media.sample_aspect_den">1</property>
  <property name="aspect_ratio">1</property>
  <property name="format">3</property>
  <property name="audio_index">-1</property>
  <property name="video_index">0</property>
  <property name="mute_on_pause">0</property>
  <property name="mlt_service">avformat-novalidate</property>
  <property name="kdenlive:clipname">23.mp4</property>
  <property name="kdenlive:clip_type">2</property>
  <property name="kdenlive:folderid">344</property>
  <property name="kdenlive:id">358</property>
  <property name="kdenlive:file_size">107047</property>
  <property name="kdenlive:file_hash">e862b3f5db5ab0da11fe170ffcbde460</property>
  <property name="kdenlive:proxy">/home/xiaoxiae/.cache/kdenlive/proxy/e862b3f5db5ab0da11fe170ffcbde460.mkv</property>
  <property name="kdenlive:originalurl">video/Basics/23.mp4</property>
  <property name="kdenlive:original.mlt_type">producer</property>
  <property name="kdenlive:original.in">00:00:00.000</property>
  <property name="kdenlive:original.out">00:00:00.983</property>
  <property name="kdenlive:original.length">60</property>
  <property name="kdenlive:original.eof">pause</property>
  <property name="kdenlive:original.resource">video/Basics/23.mp4</property>
  <property name="kdenlive:original.meta.media.nb_streams">1</property>
  <property name="kdenlive:original.meta.media.0.stream.type">video</property>
  <property name="kdenlive:original.meta.media.0.stream.frame_rate">60</property>
  <property name="kdenlive:original.meta.media.0.stream.sample_aspect_ratio">0</property>
  <property name="kdenlive:original.meta.media.0.codec.width">3840</property>
  <property name="kdenlive:original.meta.media.0.codec.height">2160</property>
  <property name="kdenlive:original.meta.media.0.codec.rotate">0</property>
  <property name="kdenlive:original.meta.media.0.codec.pix_fmt">yuv420p</property>
  <property name="kdenlive:original.meta.media.0.codec.sample_aspect_ratio">0</property>
  <property name="kdenlive:original.meta.media.0.codec.colorspace">709</property>
  <property name="kdenlive:original.meta.media.0.codec.name">h264</property>
  <property name="kdenlive:original.meta.media.0.codec.long_name">H.264 / AVC / MPEG-4 AVC / MPEG-4 part 10</property>
  <property name="kdenlive:original.meta.media.0.codec.bit_rate">843328</property>
  <property name="kdenlive:original.meta.attr.0.stream.handler_name.markup">VideoHandler</property>
  <property name="kdenlive:original.meta.attr.0.stream.vendor_id.markup">[0][0][0][0]</property>
  <property name="kdenlive:original.meta.attr.0.stream.encoder.markup">Lavc60.3.100 libx264</property>
  <property name="kdenlive:original.meta.attr.major_brand.markup">isom</property>
  <property name="kdenlive:original.meta.attr.minor_version.markup">512</property>
  <property name="kdenlive:original.meta.attr.compatible_brands.markup">isomiso2avc1mp41</property>
  <property name="kdenlive:original.meta.attr.encoder.markup">Lavf60.3.100</property>
  <property name="kdenlive:original.meta.attr.comment.markup">Rendered with Manim Community v0.17.2</property>
  <property name="kdenlive:original.seekable">1</property>
  <property name="kdenlive:original.width">3840</property>
  <property name="kdenlive:original.height">2160</property>
  <property name="kdenlive:original.meta.media.sample_aspect_num">1</property>
  <property name="kdenlive:original.meta.media.sample_aspect_den">1</property>
  <property name="kdenlive:original.aspect_ratio">1</property>
  <property name="kdenlive:original.format">3</property>
  <property name="kdenlive:original.audio_index">-1</property>
  <property name="kdenlive:original.video_index">0</property>
  <property name="kdenlive:original.mute_on_pause">0</property>
  <property name="kdenlive:original.mlt_service">avformat-novalidate</property>
  <property name="kdenlive:original.meta.media.frame_rate_num">60</property>
  <property name="kdenlive:original.meta.media.frame_rate_den">1</property>
  <property name="kdenlive:original.meta.media.colorspace">709</property>
  <property name="kdenlive:original.meta.media.color_trc">2</property>
  <property name="kdenlive:original.meta.media.has_b_frames">2</property>
  <property name="kdenlive:original.meta.media.width">3840</property>
  <property name="kdenlive:original.meta.media.height">2160</property>
  <property name="kdenlive:original.meta.media.color_range">mpeg</property>
  <property name="kdenlive:original.meta.media.top_field_first">0</property>
  <property name="kdenlive:original.meta.media.progressive">1</property>
  <property name="kdenlive:original.kdenlive:clip_type">2</property>
  <property name="kdenlive:original.kdenlive:folderid">344</property>
  <property name="kdenlive:original.kdenlive:id">360</property>
  <property name="kdenlive:original.kdenlive:file_size">107047</property>
  <property name="kdenlive:original.kdenlive:file_hash">e862b3f5db5ab0da11fe170ffcbde460</property>
  <property name="kdenlive:original.backup">1</property>
  <property name="meta.media.frame_rate_num">60</property>
  <property name="meta.media.frame_rate_den">1</property>
  <property name="meta.media.colorspace">601</property>
  <property name="meta.media.color_trc">2</property>
  <property name="meta.media.has_b_frames">0</property>
  <property name="meta.media.width">640</property>
  <property name="meta.media.height">360</property>
  <property name="meta.media.color_range">full</property>
  <property name="meta.media.top_field_first">0</property>
  <property name="meta.media.progressive">1</property>
 </producer>
 <producer id="producer284" in="00:00:00.000" out="00:00:00.983">
  <property name="length">60</property>
  <property name="eof">pause</property>
  <property name="resource">/home/xiaoxiae/.cache/kdenlive/proxy/f44b75e8c168ff184062019d502967ab.mkv</property>
  <property name="meta.media.nb_streams">1</property>
  <property name="meta.media.0.stream.type">video</property>
  <property name="meta.media.0.stream.frame_rate">60</property>
  <property name="meta.media.0.stream.sample_aspect_ratio">0</property>
  <property name="meta.media.0.codec.width">640</property>
  <property name="meta.media.0.codec.height">360</property>
  <property name="meta.media.0.codec.rotate">0</property>
  <property name="meta.media.0.codec.pix_fmt">yuvj420p</property>
  <property name="meta.media.0.codec.sample_aspect_ratio">0</property>
  <property name="meta.media.0.codec.colorspace">601</property>
  <property name="meta.media.0.codec.name">mjpeg</property>
  <property name="meta.media.0.codec.long_name">MJPEG (Motion JPEG)</property>
  <property name="meta.media.0.codec.bit_rate">0</property>
  <property name="meta.attr.0.stream.HANDLER_NAME.markup">VideoHandler</property>
  <property name="meta.attr.0.stream.VENDOR_ID.markup">[0][0][0][0]</property>
  <property name="meta.attr.0.stream.ENCODER.markup">Lavc60.3.100 mjpeg</property>
  <property name="meta.attr.0.stream.DURATION.markup">00:00:01.000000000</property>
  <property name="meta.attr.COMMENT.markup">Rendered with Manim Community v0.17.2</property>
  <property name="meta.attr.MAJOR_BRAND.markup">isom</property>
  <property name="meta.attr.MINOR_VERSION.markup">512</property>
  <property name="meta.attr.COMPATIBLE_BRANDS.markup">isomiso2avc1mp41</property>
  <property name="meta.attr.ENCODER.markup">Lavf60.3.100</property>
  <property name="seekable">1</property>
  <property name="meta.media.sample_aspect_num">1</property>
  <property name="meta.media.sample_aspect_den">1</property>
  <property name="aspect_ratio">1</property>
  <property name="format">3</property>
  <property name="audio_index">-1</property>
  <property name="video_index">0</property>
  <property name="mute_on_pause">0</property>
  <property name="mlt_service">avformat-novalidate</property>
  <property name="kdenlive:clipname">24.mp4</property>
  <property name="kdenlive:clip_type">2</property>
  <property name="kdenlive:folderid">344</property>
  <property name="kdenlive:id">359</property>
  <property name="kdenlive:file_size">88403</property>
  <property name="kdenlive:file_hash">f44b75e8c168ff184062019d502967ab</property>
  <property name="kdenlive:proxy">/home/xiaoxiae/.cache/kdenlive/proxy/f44b75e8c168ff184062019d502967ab.mkv</property>
  <property name="kdenlive:originalurl">video/Basics/24.mp4</property>
  <property name="kdenlive:original.mlt_type">producer</property>
  <property name="kdenlive:original.in">00:00:00.000</property>
  <property name="kdenlive:original.out">00:00:00.983</property>
  <property name="kdenlive:original.length">60</property>
  <property name="kdenlive:original.eof">pause</property>
  <property name="kdenlive:original.resource">video/Basics/24.mp4</property>
  <property name="kdenlive:original.meta.media.nb_streams">1</property>
  <property name="kdenlive:original.meta.media.0.stream.type">video</property>
  <property name="kdenlive:original.meta.media.0.stream.frame_rate">60</property>
  <property name="kdenlive:original.meta.media.0.stream.sample_aspect_ratio">0</property>
  <property name="kdenlive:original.meta.media.0.codec.width">3840</property>
  <property name="kdenlive:original.meta.media.0.codec.height">2160</property>
  <property name="kdenlive:original.meta.media.0.codec.rotate">0</property>
  <property name="kdenlive:original.meta.media.0.codec.pix_fmt">yuv420p</property>
  <property name="kdenlive:original.meta.media.0.codec.sample_aspect_ratio">0</property>
  <property name="kdenlive:original.meta.media.0.codec.colorspace">709</property>
  <property name="kdenlive:original.meta.media.0.codec.name">h264</property>
  <property name="kdenlive:original.meta.media.0.codec.long_name">H.264 / AVC / MPEG-4 AVC / MPEG-4 part 10</property>
  <property name="kdenlive:original.meta.media.0.codec.bit_rate">694176</property>
  <property name="kdenlive:original.meta.attr.0.stream.handler_name.markup">VideoHandler</property>
  <property name="kdenlive:original.meta.attr.0.stream.vendor_id.markup">[0][0][0][0]</property>
  <property name="kdenlive:original.meta.attr.0.stream.encoder.markup">Lavc60.3.100 libx264</property>
  <property name="kdenlive:original.meta.attr.major_brand.markup">isom</property>
  <property name="kdenlive:original.meta.attr.minor_version.markup">512</property>
  <property name="kdenlive:original.meta.attr.compatible_brands.markup">isomiso2avc1mp41</property>
  <property name="kdenlive:original.meta.attr.encoder.markup">Lavf60.3.100</property>
  <property name="kdenlive:original.meta.attr.comment.markup">Rendered with Manim Community v0.17.2</property>
  <property name="kdenlive:original.seekable">1</property>
  <property name="kdenlive:original.width">3840</property>
  <property name="kdenlive:original.height">2160</property>
  <property name="kdenlive:original.meta.media.sample_aspect_num">1</property>
  <property name="kdenlive:original.meta.media.sample_aspect_den">1</property>
  <property name="kdenlive:original.aspect_ratio">1</property>
  <property name="kdenlive:original.format">3</property>
  <property name="kdenlive:original.audio_index">-1</property>
  <property name="kdenlive:original.video_index">0</property>
  <property name="kdenlive:original.mute_on_pause">0</property>
  <property name="kdenlive:original.mlt_service">avformat-novalidate</property>
  <property name="kdenlive:original.meta.media.frame_rate_num">60</property>
  <property name="kdenlive:original.meta.media.frame_rate_den">1</property>
  <property name="kdenlive:original.meta.media.colorspace">709</property>
  <property name="kdenlive:original.meta.media.color_trc">2</property>
  <property name="kdenlive:original.meta.media.has_b_frames">2</property>
  <property name="kdenlive:original.meta.media.width">3840</property>
  <property name="kdenlive:original.meta.media.height">2160</property>
  <property name="kdenlive:original.meta.media.color_range">mpeg</property>
  <property name="kdenlive:original.meta.media.top_field_first">0</property>
  <property name="kdenlive:original.meta.media.progressive">1</property>
  <property name="kdenlive:original.kdenlive:clip_type">2</property>
  <property name="kdenlive:original.kdenlive:folderid">344</property>
  <property name="kdenlive:original.kdenlive:id">361</property>
  <property name="kdenlive:original.kdenlive:file_size">88403</property>
  <property name="kdenlive:original.kdenlive:file_hash">f44b75e8c168ff184062019d502967ab</property>
  <property name="kdenlive:original.backup">1</property>
  <property name="meta.media.frame_rate_num">60</property>
  <property name="meta.media.frame_rate_den">1</property>
  <property name="meta.media.colorspace">601</property>
  <property name="meta.media.color_trc">2</property>
  <property name="meta.media.has_b_frames">0</property>
  <property name="meta.media.width">640</property>
  <property name="meta.media.height">360</property>
  <property name="meta.media.color_range">full</property>
  <property name="meta.media.top_field_first">0</property>
  <property name="meta.media.progressive">1</property>
 </producer>
 <producer id="producer286" in="00:00:00.000" out="00:00:00.983">
  <property name="length">60</property>
  <property name="eof">pause</property>
  <property name="resource">/home/xiaoxiae/.cache/kdenlive/proxy/da823a49a14f63cf1d1d1794f6a17321.mkv</property>
  <property name="meta.media.nb_streams">1</property>
  <property name="meta.media.0.stream.type">video</property>
  <property name="meta.media.0.stream.frame_rate">60</property>
  <property name="meta.media.0.stream.sample_aspect_ratio">0</property>
  <property name="meta.media.0.codec.width">640</property>
  <property name="meta.media.0.codec.height">360</property>
  <property name="meta.media.0.codec.rotate">0</property>
  <property name="meta.media.0.codec.pix_fmt">yuvj420p</property>
  <property name="meta.media.0.codec.sample_aspect_ratio">0</property>
  <property name="meta.media.0.codec.colorspace">601</property>
  <property name="meta.media.0.codec.name">mjpeg</property>
  <property name="meta.media.0.codec.long_name">MJPEG (Motion JPEG)</property>
  <property name="meta.media.0.codec.bit_rate">0</property>
  <property name="meta.attr.0.stream.HANDLER_NAME.markup">VideoHandler</property>
  <property name="meta.attr.0.stream.VENDOR_ID.markup">[0][0][0][0]</property>
  <property name="meta.attr.0.stream.ENCODER.markup">Lavc60.3.100 mjpeg</property>
  <property name="meta.attr.0.stream.DURATION.markup">00:00:01.000000000</property>
  <property name="meta.attr.COMMENT.markup">Rendered with Manim Community v0.17.2</property>
  <property name="meta.attr.MAJOR_BRAND.markup">isom</property>
  <property name="meta.attr.MINOR_VERSION.markup">512</property>
  <property name="meta.attr.COMPATIBLE_BRANDS.markup">isomiso2avc1mp41</property>
  <property name="meta.attr.ENCODER.markup">Lavf60.3.100</property>
  <property name="seekable">1</property>
  <property name="meta.media.sample_aspect_num">1</property>
  <property name="meta.media.sample_aspect_den">1</property>
  <property name="aspect_ratio">1</property>
  <property name="format">3</property>
  <property name="audio_index">-1</property>
  <property name="video_index">0</property>
  <property name="mute_on_pause">0</property>
  <property name="mlt_service">avformat-novalidate</property>
  <property name="kdenlive:clipname">25.mp4</property>
  <property name="kdenlive:clip_type">2</property>
  <property name="kdenlive:folderid">344</property>
  <property name="kdenlive:id">360</property>
  <property name="kdenlive:file_size">87555</property>
  <property name="kdenlive:file_hash">da823a49a14f63cf1d1d1794f6a17321</property>
  <property name="kdenlive:proxy">/home/xiaoxiae/.cache/kdenlive/proxy/da823a49a14f63cf1d1d1794f6a17321.mkv</property>
  <property name="kdenlive:originalurl">video/Basics/25.mp4</property>
  <property name="kdenlive:original.mlt_type">producer</property>
  <property name="kdenlive:original.in">00:00:00.000</property>
  <property name="kdenlive:original.out">00:00:00.983</property>
  <property name="kdenlive:original.length">60</property>
  <property name="kdenlive:original.eof">pause</property>
  <property name="kdenlive:original.resource">video/Basics/25.mp4</property>
  <property name="kdenlive:original.meta.media.nb_streams">1</property>
  <property name="kdenlive:original.meta.media.0.stream.type">video</property>
  <property name="kdenlive:original.meta.media.0.stream.frame_rate">60</property>
  <property name="kdenlive:original.meta.media.0.stream.sample_aspect_ratio">0</property>
  <property name="kdenlive:original.meta.media.0.codec.width">3840</property>
  <property name="kdenlive:original.meta.media.0.codec.height">2160</property>
  <property name="kdenlive:original.meta.media.0.codec.rotate">0</property>
  <property name="kdenlive:original.meta.media.0.codec.pix_fmt">yuv420p</property>
  <property name="kdenlive:original.meta.media.0.codec.sample_aspect_ratio">0</property>
  <property name="kdenlive:original.meta.media.0.codec.colorspace">709</property>
  <property name="kdenlive:original.meta.media.0.codec.name">h264</property>
  <property name="kdenlive:original.meta.media.0.codec.long_name">H.264 / AVC / MPEG-4 AVC / MPEG-4 part 10</property>
  <property name="kdenlive:original.meta.media.0.codec.bit_rate">687392</property>
  <property name="kdenlive:original.meta.attr.0.stream.handler_name.markup">VideoHandler</property>
  <property name="kdenlive:original.meta.attr.0.stream.vendor_id.markup">[0][0][0][0]</property>
  <property name="kdenlive:original.meta.attr.0.stream.encoder.markup">Lavc60.3.100 libx264</property>
  <property name="kdenlive:original.meta.attr.major_brand.markup">isom</property>
  <property name="kdenlive:original.meta.attr.minor_version.markup">512</property>
  <property name="kdenlive:original.meta.attr.compatible_brands.markup">isomiso2avc1mp41</property>
  <property name="kdenlive:original.meta.attr.encoder.markup">Lavf60.3.100</property>
  <property name="kdenlive:original.meta.attr.comment.markup">Rendered with Manim Community v0.17.2</property>
  <property name="kdenlive:original.seekable">1</property>
  <property name="kdenlive:original.width">3840</property>
  <property name="kdenlive:original.height">2160</property>
  <property name="kdenlive:original.meta.media.sample_aspect_num">1</property>
  <property name="kdenlive:original.meta.media.sample_aspect_den">1</property>
  <property name="kdenlive:original.aspect_ratio">1</property>
  <property name="kdenlive:original.format">3</property>
  <property name="kdenlive:original.audio_index">-1</property>
  <property name="kdenlive:original.video_index">0</property>
  <property name="kdenlive:original.mute_on_pause">0</property>
  <property name="kdenlive:original.mlt_service">avformat-novalidate</property>
  <property name="kdenlive:original.meta.media.frame_rate_num">60</property>
  <property name="kdenlive:original.meta.media.frame_rate_den">1</property>
  <property name="kdenlive:original.meta.media.colorspace">709</property>
  <property name="kdenlive:original.meta.media.color_trc">2</property>
  <property name="kdenlive:original.meta.media.has_b_frames">2</property>
  <property name="kdenlive:original.meta.media.width">3840</property>
  <property name="kdenlive:original.meta.media.height">2160</property>
  <property name="kdenlive:original.meta.media.color_range">mpeg</property>
  <property name="kdenlive:original.meta.media.top_field_first">0</property>
  <property name="kdenlive:original.meta.media.progressive">1</property>
  <property name="kdenlive:original.kdenlive:clip_type">2</property>
  <property name="kdenlive:original.kdenlive:folderid">344</property>
  <property name="kdenlive:original.kdenlive:id">362</property>
  <property name="kdenlive:original.kdenlive:file_size">87555</property>
  <property name="kdenlive:original.kdenlive:file_hash">da823a49a14f63cf1d1d1794f6a17321</property>
  <property name="kdenlive:original.backup">1</property>
  <property name="meta.media.frame_rate_num">60</property>
  <property name="meta.media.frame_rate_den">1</property>
  <property name="meta.media.colorspace">601</property>
  <property name="meta.media.color_trc">2</property>
  <property name="meta.media.has_b_frames">0</property>
  <property name="meta.media.width">640</property>
  <property name="meta.media.height">360</property>
  <property name="meta.media.color_range">full</property>
  <property name="meta.media.top_field_first">0</property>
  <property name="meta.media.progressive">1</property>
 </producer>
 <producer id="producer285" in="00:00:00.000" out="00:00:00.983">
  <property name="length">60</property>
  <property name="eof">pause</property>
  <property name="resource">/home/xiaoxiae/.cache/kdenlive/proxy/2474618b91ee52016c692ce1cf7787e4.mkv</property>
  <property name="meta.media.nb_streams">1</property>
  <property name="meta.media.0.stream.type">video</property>
  <property name="meta.media.0.stream.frame_rate">60</property>
  <property name="meta.media.0.stream.sample_aspect_ratio">0</property>
  <property name="meta.media.0.codec.width">640</property>
  <property name="meta.media.0.codec.height">360</property>
  <property name="meta.media.0.codec.rotate">0</property>
  <property name="meta.media.0.codec.pix_fmt">yuvj420p</property>
  <property name="meta.media.0.codec.sample_aspect_ratio">0</property>
  <property name="meta.media.0.codec.colorspace">601</property>
  <property name="meta.media.0.codec.name">mjpeg</property>
  <property name="meta.media.0.codec.long_name">MJPEG (Motion JPEG)</property>
  <property name="meta.media.0.codec.bit_rate">0</property>
  <property name="meta.attr.0.stream.HANDLER_NAME.markup">VideoHandler</property>
  <property name="meta.attr.0.stream.VENDOR_ID.markup">[0][0][0][0]</property>
  <property name="meta.attr.0.stream.ENCODER.markup">Lavc60.3.100 mjpeg</property>
  <property name="meta.attr.0.stream.DURATION.markup">00:00:01.000000000</property>
  <property name="meta.attr.COMMENT.markup">Rendered with Manim Community v0.17.2</property>
  <property name="meta.attr.MAJOR_BRAND.markup">isom</property>
  <property name="meta.attr.MINOR_VERSION.markup">512</property>
  <property name="meta.attr.COMPATIBLE_BRANDS.markup">isomiso2avc1mp41</property>
  <property name="meta.attr.ENCODER.markup">Lavf60.3.100</property>
  <property name="seekable">1</property>
  <property name="meta.media.sample_aspect_num">1</property>
  <property name="meta.media.sample_aspect_den">1</property>
  <property name="aspect_ratio">1</property>
  <property name="format">3</property>
  <property name="audio_index">-1</property>
  <property name="video_index">0</property>
  <property name="mute_on_pause">0</property>
  <property name="mlt_service">avformat-novalidate</property>
  <property name="kdenlive:clipname">26.mp4</property>
  <property name="kdenlive:clip_type">2</property>
  <property name="kdenlive:folderid">344</property>
  <property name="kdenlive:id">361</property>
  <property name="kdenlive:file_size">91204</property>
  <property name="kdenlive:file_hash">2474618b91ee52016c692ce1cf7787e4</property>
  <property name="kdenlive:proxy">/home/xiaoxiae/.cache/kdenlive/proxy/2474618b91ee52016c692ce1cf7787e4.mkv</property>
  <property name="kdenlive:originalurl">video/Basics/26.mp4</property>
  <property name="kdenlive:original.mlt_type">producer</property>
  <property name="kdenlive:original.in">00:00:00.000</property>
  <property name="kdenlive:original.out">00:00:00.983</property>
  <property name="kdenlive:original.length">60</property>
  <property name="kdenlive:original.eof">pause</property>
  <property name="kdenlive:original.resource">video/Basics/26.mp4</property>
  <property name="kdenlive:original.meta.media.nb_streams">1</property>
  <property name="kdenlive:original.meta.media.0.stream.type">video</property>
  <property name="kdenlive:original.meta.media.0.stream.frame_rate">60</property>
  <property name="kdenlive:original.meta.media.0.stream.sample_aspect_ratio">0</property>
  <property name="kdenlive:original.meta.media.0.codec.width">3840</property>
  <property name="kdenlive:original.meta.media.0.codec.height">2160</property>
  <property name="kdenlive:original.meta.media.0.codec.rotate">0</property>
  <property name="kdenlive:original.meta.media.0.codec.pix_fmt">yuv420p</property>
  <property name="kdenlive:original.meta.media.0.codec.sample_aspect_ratio">0</property>
  <property name="kdenlive:original.meta.media.0.codec.colorspace">709</property>
  <property name="kdenlive:original.meta.media.0.codec.name">h264</property>
  <property name="kdenlive:original.meta.media.0.codec.long_name">H.264 / AVC / MPEG-4 AVC / MPEG-4 part 10</property>
  <property name="kdenlive:original.meta.media.0.codec.bit_rate">716584</property>
  <property name="kdenlive:original.meta.attr.0.stream.handler_name.markup">VideoHandler</property>
  <property name="kdenlive:original.meta.attr.0.stream.vendor_id.markup">[0][0][0][0]</property>
  <property name="kdenlive:original.meta.attr.0.stream.encoder.markup">Lavc60.3.100 libx264</property>
  <property name="kdenlive:original.meta.attr.major_brand.markup">isom</property>
  <property name="kdenlive:original.meta.attr.minor_version.markup">512</property>
  <property name="kdenlive:original.meta.attr.compatible_brands.markup">isomiso2avc1mp41</property>
  <property name="kdenlive:original.meta.attr.encoder.markup">Lavf60.3.100</property>
  <property name="kdenlive:original.meta.attr.comment.markup">Rendered with Manim Community v0.17.2</property>
  <property name="kdenlive:original.seekable">1</property>
  <property name="kdenlive:original.width">3840</property>
  <property name="kdenlive:original.height">2160</property>
  <property name="kdenlive:original.meta.media.sample_aspect_num">1</property>
  <property name="kdenlive:original.meta.media.sample_aspect_den">1</property>
  <property name="kdenlive:original.aspect_ratio">1</property>
  <property name="kdenlive:original.format">3</property>
  <property name="kdenlive:original.audio_index">-1</property>
  <property name="kdenlive:original.video_index">0</property>
  <property name="kdenlive:original.mute_on_pause">0</property>
  <property name="kdenlive:original.mlt_service">avformat-novalidate</property>
  <property name="kdenlive:original.meta.media.frame_rate_num">60</property>
  <property name="kdenlive:original.meta.media.frame_rate_den">1</property>
  <property name="kdenlive:original.meta.media.colorspace">709</property>
  <property name="kdenlive:original.meta.media.color_trc">2</property>
  <property name="kdenlive:original.meta.media.has_b_frames">2</property>
  <property name="kdenlive:original.meta.media.width">3840</property>
  <property name="kdenlive:original.meta.media.height">2160</property>
  <property name="kdenlive:original.meta.media.color_range">mpeg</property>
  <property name="kdenlive:original.meta.media.top_field_first">0</property>
  <property name="kdenlive:original.meta.media.progressive">1</property>
  <property name="kdenlive:original.kdenlive:clip_type">2</property>
  <property name="kdenlive:original.kdenlive:folderid">344</property>
  <property name="kdenlive:original.kdenlive:id">363</property>
  <property name="kdenlive:original.kdenlive:file_size">91204</property>
  <property name="kdenlive:original.kdenlive:file_hash">2474618b91ee52016c692ce1cf7787e4</property>
  <property name="kdenlive:original.backup">1</property>
  <property name="meta.media.frame_rate_num">60</property>
  <property name="meta.media.frame_rate_den">1</property>
  <property name="meta.media.colorspace">601</property>
  <property name="meta.media.color_trc">2</property>
  <property name="meta.media.has_b_frames">0</property>
  <property name="meta.media.width">640</property>
  <property name="meta.media.height">360</property>
  <property name="meta.media.color_range">full</property>
  <property name="meta.media.top_field_first">0</property>
  <property name="meta.media.progressive">1</property>
 </producer>
 <producer id="producer287" in="00:00:00.000" out="00:00:00.983">
  <property name="length">60</property>
  <property name="eof">pause</property>
  <property name="resource">/home/xiaoxiae/.cache/kdenlive/proxy/978c63d4f8e0f682ba8598b2b9213628.mkv</property>
  <property name="meta.media.nb_streams">1</property>
  <property name="meta.media.0.stream.type">video</property>
  <property name="meta.media.0.stream.frame_rate">60</property>
  <property name="meta.media.0.stream.sample_aspect_ratio">0</property>
  <property name="meta.media.0.codec.width">640</property>
  <property name="meta.media.0.codec.height">360</property>
  <property name="meta.media.0.codec.rotate">0</property>
  <property name="meta.media.0.codec.pix_fmt">yuvj420p</property>
  <property name="meta.media.0.codec.sample_aspect_ratio">0</property>
  <property name="meta.media.0.codec.colorspace">601</property>
  <property name="meta.media.0.codec.name">mjpeg</property>
  <property name="meta.media.0.codec.long_name">MJPEG (Motion JPEG)</property>
  <property name="meta.media.0.codec.bit_rate">0</property>
  <property name="meta.attr.0.stream.HANDLER_NAME.markup">VideoHandler</property>
  <property name="meta.attr.0.stream.VENDOR_ID.markup">[0][0][0][0]</property>
  <property name="meta.attr.0.stream.ENCODER.markup">Lavc60.3.100 mjpeg</property>
  <property name="meta.attr.0.stream.DURATION.markup">00:00:01.000000000</property>
  <property name="meta.attr.COMMENT.markup">Rendered with Manim Community v0.17.2</property>
  <property name="meta.attr.MAJOR_BRAND.markup">isom</property>
  <property name="meta.attr.MINOR_VERSION.markup">512</property>
  <property name="meta.attr.COMPATIBLE_BRANDS.markup">isomiso2avc1mp41</property>
  <property name="meta.attr.ENCODER.markup">Lavf60.3.100</property>
  <property name="seekable">1</property>
  <property name="meta.media.sample_aspect_num">1</property>
  <property name="meta.media.sample_aspect_den">1</property>
  <property name="aspect_ratio">1</property>
  <property name="format">3</property>
  <property name="audio_index">-1</property>
  <property name="video_index">0</property>
  <property name="mute_on_pause">0</property>
  <property name="mlt_service">avformat-novalidate</property>
  <property name="kdenlive:clipname">27.mp4</property>
  <property name="kdenlive:clip_type">2</property>
  <property name="kdenlive:folderid">344</property>
  <property name="kdenlive:id">362</property>
  <property name="kdenlive:file_size">87804</property>
  <property name="kdenlive:file_hash">978c63d4f8e0f682ba8598b2b9213628</property>
  <property name="kdenlive:proxy">/home/xiaoxiae/.cache/kdenlive/proxy/978c63d4f8e0f682ba8598b2b9213628.mkv</property>
  <property name="kdenlive:originalurl">video/Basics/27.mp4</property>
  <property name="kdenlive:original.mlt_type">producer</property>
  <property name="kdenlive:original.in">00:00:00.000</property>
  <property name="kdenlive:original.out">00:00:00.983</property>
  <property name="kdenlive:original.length">60</property>
  <property name="kdenlive:original.eof">pause</property>
  <property name="kdenlive:original.resource">video/Basics/27.mp4</property>
  <property name="kdenlive:original.meta.media.nb_streams">1</property>
  <property name="kdenlive:original.meta.media.0.stream.type">video</property>
  <property name="kdenlive:original.meta.media.0.stream.frame_rate">60</property>
  <property name="kdenlive:original.meta.media.0.stream.sample_aspect_ratio">0</property>
  <property name="kdenlive:original.meta.media.0.codec.width">3840</property>
  <property name="kdenlive:original.meta.media.0.codec.height">2160</property>
  <property name="kdenlive:original.meta.media.0.codec.rotate">0</property>
  <property name="kdenlive:original.meta.media.0.codec.pix_fmt">yuv420p</property>
  <property name="kdenlive:original.meta.media.0.codec.sample_aspect_ratio">0</property>
  <property name="kdenlive:original.meta.media.0.codec.colorspace">709</property>
  <property name="kdenlive:original.meta.media.0.codec.name">h264</property>
  <property name="kdenlive:original.meta.media.0.codec.long_name">H.264 / AVC / MPEG-4 AVC / MPEG-4 part 10</property>
  <property name="kdenlive:original.meta.media.0.codec.bit_rate">689384</property>
  <property name="kdenlive:original.meta.attr.0.stream.handler_name.markup">VideoHandler</property>
  <property name="kdenlive:original.meta.attr.0.stream.vendor_id.markup">[0][0][0][0]</property>
  <property name="kdenlive:original.meta.attr.0.stream.encoder.markup">Lavc60.3.100 libx264</property>
  <property name="kdenlive:original.meta.attr.major_brand.markup">isom</property>
  <property name="kdenlive:original.meta.attr.minor_version.markup">512</property>
  <property name="kdenlive:original.meta.attr.compatible_brands.markup">isomiso2avc1mp41</property>
  <property name="kdenlive:original.meta.attr.encoder.markup">Lavf60.3.100</property>
  <property name="kdenlive:original.meta.attr.comment.markup">Rendered with Manim Community v0.17.2</property>
  <property name="kdenlive:original.seekable">1</property>
  <property name="kdenlive:original.width">3840</property>
  <property name="kdenlive:original.height">2160</property>
  <property name="kdenlive:original.meta.media.sample_aspect_num">1</property>
  <property name="kdenlive:original.meta.media.sample_aspect_den">1</property>
  <property name="kdenlive:original.aspect_ratio">1</property>
  <property name="kdenlive:original.format">3</property>
  <property name="kdenlive:original.audio_index">-1</property>
  <property name="kdenlive:original.video_index">0</property>
  <property name="kdenlive:original.mute_on_pause">0</property>
  <property name="kdenlive:original.mlt_service">avformat-novalidate</property>
  <property name="kdenlive:original.meta.media.frame_rate_num">60</property>
  <property name="kdenlive:original.meta.media.frame_rate_den">1</property>
  <property name="kdenlive:original.meta.media.colorspace">709</property>
  <property name="kdenlive:original.meta.media.color_trc">2</property>
  <property name="kdenlive:original.meta.media.has_b_frames">2</property>
  <property name="kdenlive:original.meta.media.width">3840</property>
  <property name="kdenlive:original.meta.media.height">2160</property>
  <property name="kdenlive:original.meta.media.color_range">mpeg</property>
  <property name="kdenlive:original.meta.media.top_field_first">0</property>
  <property name="kdenlive:original.meta.media.progressive">1</property>
  <property name="kdenlive:original.kdenlive:clip_type">2</property>
  <property name="kdenlive:original.kdenlive:folderid">344</property>
  <property name="kdenlive:original.kdenlive:id">364</property>
  <property name="kdenlive:original.kdenlive:file_size">87804</property>
  <property name="kdenlive:original.kdenlive:file_hash">978c63d4f8e0f682ba8598b2b9213628</property>
  <property name="kdenlive:original.backup">1</property>
  <property name="meta.media.frame_rate_num">60</property>
  <property name="meta.media.frame_rate_den">1</property>
  <property name="meta.media.colorspace">601</property>
  <property name="meta.media.color_trc">2</property>
  <property name="meta.media.has_b_frames">0</property>
  <property name="meta.media.width">640</property>
  <property name="meta.media.height">360</property>
  <property name="meta.media.color_range">full</property>
  <property name="meta.media.top_field_first">0</property>
  <property name="meta.media.progressive">1</property>
 </producer>
 <producer id="producer288" in="00:00:00.000" out="00:00:00.983">
  <property name="length">60</property>
  <property name="eof">pause</property>
  <property name="resource">/home/xiaoxiae/.cache/kdenlive/proxy/fca56e22721bdf64d69f85f8e61152e6.mkv</property>
  <property name="meta.media.nb_streams">1</property>
  <property name="meta.media.0.stream.type">video</property>
  <property name="meta.media.0.stream.frame_rate">60</property>
  <property name="meta.media.0.stream.sample_aspect_ratio">0</property>
  <property name="meta.media.0.codec.width">640</property>
  <property name="meta.media.0.codec.height">360</property>
  <property name="meta.media.0.codec.rotate">0</property>
  <property name="meta.media.0.codec.pix_fmt">yuvj420p</property>
  <property name="meta.media.0.codec.sample_aspect_ratio">0</property>
  <property name="meta.media.0.codec.colorspace">601</property>
  <property name="meta.media.0.codec.name">mjpeg</property>
  <property name="meta.media.0.codec.long_name">MJPEG (Motion JPEG)</property>
  <property name="meta.media.0.codec.bit_rate">0</property>
  <property name="meta.attr.0.stream.HANDLER_NAME.markup">VideoHandler</property>
  <property name="meta.attr.0.stream.VENDOR_ID.markup">[0][0][0][0]</property>
  <property name="meta.attr.0.stream.ENCODER.markup">Lavc60.3.100 mjpeg</property>
  <property name="meta.attr.0.stream.DURATION.markup">00:00:01.000000000</property>
  <property name="meta.attr.COMMENT.markup">Rendered with Manim Community v0.17.2</property>
  <property name="meta.attr.MAJOR_BRAND.markup">isom</property>
  <property name="meta.attr.MINOR_VERSION.markup">512</property>
  <property name="meta.attr.COMPATIBLE_BRANDS.markup">isomiso2avc1mp41</property>
  <property name="meta.attr.ENCODER.markup">Lavf60.3.100</property>
  <property name="seekable">1</property>
  <property name="meta.media.sample_aspect_num">1</property>
  <property name="meta.media.sample_aspect_den">1</property>
  <property name="aspect_ratio">1</property>
  <property name="format">3</property>
  <property name="audio_index">-1</property>
  <property name="video_index">0</property>
  <property name="mute_on_pause">0</property>
  <property name="mlt_service">avformat-novalidate</property>
  <property name="kdenlive:clipname">28.mp4</property>
  <property name="kdenlive:clip_type">2</property>
  <property name="kdenlive:folderid">344</property>
  <property name="kdenlive:id">363</property>
  <property name="kdenlive:file_size">94246</property>
  <property name="kdenlive:file_hash">fca56e22721bdf64d69f85f8e61152e6</property>
  <property name="kdenlive:proxy">/home/xiaoxiae/.cache/kdenlive/proxy/fca56e22721bdf64d69f85f8e61152e6.mkv</property>
  <property name="kdenlive:originalurl">video/Basics/28.mp4</property>
  <property name="kdenlive:original.mlt_type">producer</property>
  <property name="kdenlive:original.in">00:00:00.000</property>
  <property name="kdenlive:original.out">00:00:00.983</property>
  <property name="kdenlive:original.length">60</property>
  <property name="kdenlive:original.eof">pause</property>
  <property name="kdenlive:original.resource">video/Basics/28.mp4</property>
  <property name="kdenlive:original.meta.media.nb_streams">1</property>
  <property name="kdenlive:original.meta.media.0.stream.type">video</property>
  <property name="kdenlive:original.meta.media.0.stream.frame_rate">60</property>
  <property name="kdenlive:original.meta.media.0.stream.sample_aspect_ratio">0</property>
  <property name="kdenlive:original.meta.media.0.codec.width">3840</property>
  <property name="kdenlive:original.meta.media.0.codec.height">2160</property>
  <property name="kdenlive:original.meta.media.0.codec.rotate">0</property>
  <property name="kdenlive:original.meta.media.0.codec.pix_fmt">yuv420p</property>
  <property name="kdenlive:original.meta.media.0.codec.sample_aspect_ratio">0</property>
  <property name="kdenlive:original.meta.media.0.codec.colorspace">709</property>
  <property name="kdenlive:original.meta.media.0.codec.name">h264</property>
  <property name="kdenlive:original.meta.media.0.codec.long_name">H.264 / AVC / MPEG-4 AVC / MPEG-4 part 10</property>
  <property name="kdenlive:original.meta.media.0.codec.bit_rate">741048</property>
  <property name="kdenlive:original.meta.attr.0.stream.handler_name.markup">VideoHandler</property>
  <property name="kdenlive:original.meta.attr.0.stream.vendor_id.markup">[0][0][0][0]</property>
  <property name="kdenlive:original.meta.attr.0.stream.encoder.markup">Lavc60.3.100 libx264</property>
  <property name="kdenlive:original.meta.attr.major_brand.markup">isom</property>
  <property name="kdenlive:original.meta.attr.minor_version.markup">512</property>
  <property name="kdenlive:original.meta.attr.compatible_brands.markup">isomiso2avc1mp41</property>
  <property name="kdenlive:original.meta.attr.encoder.markup">Lavf60.3.100</property>
  <property name="kdenlive:original.meta.attr.comment.markup">Rendered with Manim Community v0.17.2</property>
  <property name="kdenlive:original.seekable">1</property>
  <property name="kdenlive:original.width">3840</property>
  <property name="kdenlive:original.height">2160</property>
  <property name="kdenlive:original.meta.media.sample_aspect_num">1</property>
  <property name="kdenlive:original.meta.media.sample_aspect_den">1</property>
  <property name="kdenlive:original.aspect_ratio">1</property>
  <property name="kdenlive:original.format">3</property>
  <property name="kdenlive:original.audio_index">-1</property>
  <property name="kdenlive:original.video_index">0</property>
  <property name="kdenlive:original.mute_on_pause">0</property>
  <property name="kdenlive:original.mlt_service">avformat-novalidate</property>
  <property name="kdenlive:original.meta.media.frame_rate_num">60</property>
  <property name="kdenlive:original.meta.media.frame_rate_den">1</property>
  <property name="kdenlive:original.meta.media.colorspace">709</property>
  <property name="kdenlive:original.meta.media.color_trc">2</property>
  <property name="kdenlive:original.meta.media.has_b_frames">2</property>
  <property name="kdenlive:original.meta.media.width">3840</property>
  <property name="kdenlive:original.meta.media.height">2160</property>
  <property name="kdenlive:original.meta.media.color_range">mpeg</property>
  <property name="kdenlive:original.meta.media.top_field_first">0</property>
  <property name="kdenlive:original.meta.media.progressive">1</property>
  <property name="kdenlive:original.kdenlive:clip_type">2</property>
  <property name="kdenlive:original.kdenlive:folderid">344</property>
  <property name="kdenlive:original.kdenlive:id">365</property>
  <property name="kdenlive:original.kdenlive:file_size">94246</property>
  <property name="kdenlive:original.kdenlive:file_hash">fca56e22721bdf64d69f85f8e61152e6</property>
  <property name="kdenlive:original.backup">1</property>
  <property name="meta.media.frame_rate_num">60</property>
  <property name="meta.media.frame_rate_den">1</property>
  <property name="meta.media.colorspace">601</property>
  <property name="meta.media.color_trc">2</property>
  <property name="meta.media.has_b_frames">0</property>
  <property name="meta.media.width">640</property>
  <property name="meta.media.height">360</property>
  <property name="meta.media.color_range">full</property>
  <property name="meta.media.top_field_first">0</property>
  <property name="meta.media.progressive">1</property>
 </producer>
 <producer id="producer289" in="00:00:00.000" out="00:00:00.983">
  <property name="length">60</property>
  <property name="eof">pause</property>
  <property name="resource">/home/xiaoxiae/.cache/kdenlive/proxy/c7bb7eb01887eda09ecb6351f0ea63c0.mkv</property>
  <property name="meta.media.nb_streams">1</property>
  <property name="meta.media.0.stream.type">video</property>
  <property name="meta.media.0.stream.frame_rate">60</property>
  <property name="meta.media.0.stream.sample_aspect_ratio">0</property>
  <property name="meta.media.0.codec.width">640</property>
  <property name="meta.media.0.codec.height">360</property>
  <property name="meta.media.0.codec.rotate">0</property>
  <property name="meta.media.0.codec.pix_fmt">yuvj420p</property>
  <property name="meta.media.0.codec.sample_aspect_ratio">0</property>
  <property name="meta.media.0.codec.colorspace">601</property>
  <property name="meta.media.0.codec.name">mjpeg</property>
  <property name="meta.media.0.codec.long_name">MJPEG (Motion JPEG)</property>
  <property name="meta.media.0.codec.bit_rate">0</property>
  <property name="meta.attr.0.stream.HANDLER_NAME.markup">VideoHandler</property>
  <property name="meta.attr.0.stream.VENDOR_ID.markup">[0][0][0][0]</property>
  <property name="meta.attr.0.stream.ENCODER.markup">Lavc60.3.100 mjpeg</property>
  <property name="meta.attr.0.stream.DURATION.markup">00:00:01.000000000</property>
  <property name="meta.attr.COMMENT.markup">Rendered with Manim Community v0.17.2</property>
  <property name="meta.attr.MAJOR_BRAND.markup">isom</property>
  <property name="meta.attr.MINOR_VERSION.markup">512</property>
  <property name="meta.attr.COMPATIBLE_BRANDS.markup">isomiso2avc1mp41</property>
  <property name="meta.attr.ENCODER.markup">Lavf60.3.100</property>
  <property name="seekable">1</property>
  <property name="meta.media.sample_aspect_num">1</property>
  <property name="meta.media.sample_aspect_den">1</property>
  <property name="aspect_ratio">1</property>
  <property name="format">3</property>
  <property name="audio_index">-1</property>
  <property name="video_index">0</property>
  <property name="mute_on_pause">0</property>
  <property name="mlt_service">avformat-novalidate</property>
  <property name="kdenlive:clipname">29.mp4</property>
  <property name="kdenlive:clip_type">2</property>
  <property name="kdenlive:folderid">344</property>
  <property name="kdenlive:id">364</property>
  <property name="kdenlive:file_size">89601</property>
  <property name="kdenlive:file_hash">c7bb7eb01887eda09ecb6351f0ea63c0</property>
  <property name="kdenlive:proxy">/home/xiaoxiae/.cache/kdenlive/proxy/c7bb7eb01887eda09ecb6351f0ea63c0.mkv</property>
  <property name="kdenlive:originalurl">video/Basics/29.mp4</property>
  <property name="kdenlive:original.mlt_type">producer</property>
  <property name="kdenlive:original.in">00:00:00.000</property>
  <property name="kdenlive:original.out">00:00:00.983</property>
  <property name="kdenlive:original.length">60</property>
  <property name="kdenlive:original.eof">pause</property>
  <property name="kdenlive:original.resource">video/Basics/29.mp4</property>
  <property name="kdenlive:original.meta.media.nb_streams">1</property>
  <property name="kdenlive:original.meta.media.0.stream.type">video</property>
  <property name="kdenlive:original.meta.media.0.stream.frame_rate">60</property>
  <property name="kdenlive:original.meta.media.0.stream.sample_aspect_ratio">0</property>
  <property name="kdenlive:original.meta.media.0.codec.width">3840</property>
  <property name="kdenlive:original.meta.media.0.codec.height">2160</property>
  <property name="kdenlive:original.meta.media.0.codec.rotate">0</property>
  <property name="kdenlive:original.meta.media.0.codec.pix_fmt">yuv420p</property>
  <property name="kdenlive:original.meta.media.0.codec.sample_aspect_ratio">0</property>
  <property name="kdenlive:original.meta.media.0.codec.colorspace">709</property>
  <property name="kdenlive:original.meta.media.0.codec.name">h264</property>
  <property name="kdenlive:original.meta.media.0.codec.long_name">H.264 / AVC / MPEG-4 AVC / MPEG-4 part 10</property>
  <property name="kdenlive:original.meta.media.0.codec.bit_rate">703760</property>
  <property name="kdenlive:original.meta.attr.0.stream.handler_name.markup">VideoHandler</property>
  <property name="kdenlive:original.meta.attr.0.stream.vendor_id.markup">[0][0][0][0]</property>
  <property name="kdenlive:original.meta.attr.0.stream.encoder.markup">Lavc60.3.100 libx264</property>
  <property name="kdenlive:original.meta.attr.major_brand.markup">isom</property>
  <property name="kdenlive:original.meta.attr.minor_version.markup">512</property>
  <property name="kdenlive:original.meta.attr.compatible_brands.markup">isomiso2avc1mp41</property>
  <property name="kdenlive:original.meta.attr.encoder.markup">Lavf60.3.100</property>
  <property name="kdenlive:original.meta.attr.comment.markup">Rendered with Manim Community v0.17.2</property>
  <property name="kdenlive:original.seekable">1</property>
  <property name="kdenlive:original.width">3840</property>
  <property name="kdenlive:original.height">2160</property>
  <property name="kdenlive:original.meta.media.sample_aspect_num">1</property>
  <property name="kdenlive:original.meta.media.sample_aspect_den">1</property>
  <property name="kdenlive:original.aspect_ratio">1</property>
  <property name="kdenlive:original.format">3</property>
  <property name="kdenlive:original.audio_index">-1</property>
  <property name="kdenlive:original.video_index">0</property>
  <property name="kdenlive:original.mute_on_pause">0</property>
  <property name="kdenlive:original.mlt_service">avformat-novalidate</property>
  <property name="kdenlive:original.meta.media.frame_rate_num">60</property>
  <property name="kdenlive:original.meta.media.frame_rate_den">1</property>
  <property name="kdenlive:original.meta.media.colorspace">709</property>
  <property name="kdenlive:original.meta.media.color_trc">2</property>
  <property name="kdenlive:original.meta.media.has_b_frames">2</property>
  <property name="kdenlive:original.meta.media.width">3840</property>
  <property name="kdenlive:original.meta.media.height">2160</property>
  <property name="kdenlive:original.meta.media.color_range">mpeg</property>
  <property name="kdenlive:original.meta.media.top_field_first">0</property>
  <property name="kdenlive:original.meta.media.progressive">1</property>
  <property name="kdenlive:original.kdenlive:clip_type">2</property>
  <property name="kdenlive:original.kdenlive:folderid">344</property>
  <property name="kdenlive:original.kdenlive:id">366</property>
  <property name="kdenlive:original.kdenlive:file_size">89601</property>
  <property name="kdenlive:original.kdenlive:file_hash">c7bb7eb01887eda09ecb6351f0ea63c0</property>
  <property name="kdenlive:original.backup">1</property>
  <property name="meta.media.frame_rate_num">60</property>
  <property name="meta.media.frame_rate_den">1</property>
  <property name="meta.media.colorspace">601</property>
  <property name="meta.media.color_trc">2</property>
  <property name="meta.media.has_b_frames">0</property>
  <property name="meta.media.width">640</property>
  <property name="meta.media.height">360</property>
  <property name="meta.media.color_range">full</property>
  <property name="meta.media.top_field_first">0</property>
  <property name="meta.media.progressive">1</property>
 </producer>
 <producer id="producer290" in="00:00:00.000" out="00:00:00.983">
  <property name="length">60</property>
  <property name="eof">pause</property>
  <property name="resource">/home/xiaoxiae/.cache/kdenlive/proxy/a6571261caf3b789acedc07bcebbcb5a.mkv</property>
  <property name="meta.media.nb_streams">1</property>
  <property name="meta.media.0.stream.type">video</property>
  <property name="meta.media.0.stream.frame_rate">60</property>
  <property name="meta.media.0.stream.sample_aspect_ratio">0</property>
  <property name="meta.media.0.codec.width">640</property>
  <property name="meta.media.0.codec.height">360</property>
  <property name="meta.media.0.codec.rotate">0</property>
  <property name="meta.media.0.codec.pix_fmt">yuvj420p</property>
  <property name="meta.media.0.codec.sample_aspect_ratio">0</property>
  <property name="meta.media.0.codec.colorspace">601</property>
  <property name="meta.media.0.codec.name">mjpeg</property>
  <property name="meta.media.0.codec.long_name">MJPEG (Motion JPEG)</property>
  <property name="meta.media.0.codec.bit_rate">0</property>
  <property name="meta.attr.0.stream.HANDLER_NAME.markup">VideoHandler</property>
  <property name="meta.attr.0.stream.VENDOR_ID.markup">[0][0][0][0]</property>
  <property name="meta.attr.0.stream.ENCODER.markup">Lavc60.3.100 mjpeg</property>
  <property name="meta.attr.0.stream.DURATION.markup">00:00:01.000000000</property>
  <property name="meta.attr.COMMENT.markup">Rendered with Manim Community v0.17.2</property>
  <property name="meta.attr.MAJOR_BRAND.markup">isom</property>
  <property name="meta.attr.MINOR_VERSION.markup">512</property>
  <property name="meta.attr.COMPATIBLE_BRANDS.markup">isomiso2avc1mp41</property>
  <property name="meta.attr.ENCODER.markup">Lavf60.3.100</property>
  <property name="seekable">1</property>
  <property name="meta.media.sample_aspect_num">1</property>
  <property name="meta.media.sample_aspect_den">1</property>
  <property name="aspect_ratio">1</property>
  <property name="format">3</property>
  <property name="audio_index">-1</property>
  <property name="video_index">0</property>
  <property name="mute_on_pause">0</property>
  <property name="mlt_service">avformat-novalidate</property>
  <property name="kdenlive:clipname">3.mp4</property>
  <property name="kdenlive:clip_type">2</property>
  <property name="kdenlive:folderid">344</property>
  <property name="kdenlive:id">365</property>
  <property name="kdenlive:file_size">86769</property>
  <property name="kdenlive:file_hash">a6571261caf3b789acedc07bcebbcb5a</property>
  <property name="kdenlive:proxy">/home/xiaoxiae/.cache/kdenlive/proxy/a6571261caf3b789acedc07bcebbcb5a.mkv</property>
  <property name="kdenlive:originalurl">video/Basics/3.mp4</property>
  <property name="kdenlive:original.mlt_type">producer</property>
  <property name="kdenlive:original.in">00:00:00.000</property>
  <property name="kdenlive:original.out">00:00:00.983</property>
  <property name="kdenlive:original.length">60</property>
  <property name="kdenlive:original.eof">pause</property>
  <property name="kdenlive:original.resource">video/Basics/3.mp4</property>
  <property name="kdenlive:original.meta.media.nb_streams">1</property>
  <property name="kdenlive:original.meta.media.0.stream.type">video</property>
  <property name="kdenlive:original.meta.media.0.stream.frame_rate">60</property>
  <property name="kdenlive:original.meta.media.0.stream.sample_aspect_ratio">0</property>
  <property name="kdenlive:original.meta.media.0.codec.width">3840</property>
  <property name="kdenlive:original.meta.media.0.codec.height">2160</property>
  <property name="kdenlive:original.meta.media.0.codec.rotate">0</property>
  <property name="kdenlive:original.meta.media.0.codec.pix_fmt">yuv420p</property>
  <property name="kdenlive:original.meta.media.0.codec.sample_aspect_ratio">0</property>
  <property name="kdenlive:original.meta.media.0.codec.colorspace">709</property>
  <property name="kdenlive:original.meta.media.0.codec.name">h264</property>
  <property name="kdenlive:original.meta.media.0.codec.long_name">H.264 / AVC / MPEG-4 AVC / MPEG-4 part 10</property>
  <property name="kdenlive:original.meta.media.0.codec.bit_rate">681040</property>
  <property name="kdenlive:original.meta.attr.0.stream.handler_name.markup">VideoHandler</property>
  <property name="kdenlive:original.meta.attr.0.stream.vendor_id.markup">[0][0][0][0]</property>
  <property name="kdenlive:original.meta.attr.0.stream.encoder.markup">Lavc60.3.100 libx264</property>
  <property name="kdenlive:original.meta.attr.major_brand.markup">isom</property>
  <property name="kdenlive:original.meta.attr.minor_version.markup">512</property>
  <property name="kdenlive:original.meta.attr.compatible_brands.markup">isomiso2avc1mp41</property>
  <property name="kdenlive:original.meta.attr.encoder.markup">Lavf60.3.100</property>
  <property name="kdenlive:original.meta.attr.comment.markup">Rendered with Manim Community v0.17.2</property>
  <property name="kdenlive:original.seekable">1</property>
  <property name="kdenlive:original.width">3840</property>
  <property name="kdenlive:original.height">2160</property>
  <property name="kdenlive:original.meta.media.sample_aspect_num">1</property>
  <property name="kdenlive:original.meta.media.sample_aspect_den">1</property>
  <property name="kdenlive:original.aspect_ratio">1</property>
  <property name="kdenlive:original.format">3</property>
  <property name="kdenlive:original.audio_index">-1</property>
  <property name="kdenlive:original.video_index">0</property>
  <property name="kdenlive:original.mute_on_pause">0</property>
  <property name="kdenlive:original.mlt_service">avformat-novalidate</property>
  <property name="kdenlive:original.meta.media.frame_rate_num">60</property>
  <property name="kdenlive:original.meta.media.frame_rate_den">1</property>
  <property name="kdenlive:original.meta.media.colorspace">709</property>
  <property name="kdenlive:original.meta.media.color_trc">2</property>
  <property name="kdenlive:original.meta.media.has_b_frames">2</property>
  <property name="kdenlive:original.meta.media.width">3840</property>
  <property name="kdenlive:original.meta.media.height">2160</property>
  <property name="kdenlive:original.meta.media.color_range">mpeg</property>
  <property name="kdenlive:original.meta.media.top_field_first">0</property>
  <property name="kdenlive:original.meta.media.progressive">1</property>
  <property name="kdenlive:original.kdenlive:clip_type">2</property>
  <property name="kdenlive:original.kdenlive:folderid">344</property>
  <property name="kdenlive:original.kdenlive:id">367</property>
  <property name="kdenlive:original.kdenlive:file_size">86769</property>
  <property name="kdenlive:original.kdenlive:file_hash">a6571261caf3b789acedc07bcebbcb5a</property>
  <property name="kdenlive:original.backup">1</property>
  <property name="meta.media.frame_rate_num">60</property>
  <property name="meta.media.frame_rate_den">1</property>
  <property name="meta.media.colorspace">601</property>
  <property name="meta.media.color_trc">2</property>
  <property name="meta.media.has_b_frames">0</property>
  <property name="meta.media.width">640</property>
  <property name="meta.media.height">360</property>
  <property name="meta.media.color_range">full</property>
  <property name="meta.media.top_field_first">0</property>
  <property name="meta.media.progressive">1</property>
 </producer>
 <producer id="producer292" in="00:00:00.000" out="00:00:00.983">
  <property name="length">60</property>
  <property name="eof">pause</property>
  <property name="resource">/home/xiaoxiae/.cache/kdenlive/proxy/bf3ff13b6da485be4e985ebf05518b9a.mkv</property>
  <property name="meta.media.nb_streams">1</property>
  <property name="meta.media.0.stream.type">video</property>
  <property name="meta.media.0.stream.frame_rate">60</property>
  <property name="meta.media.0.stream.sample_aspect_ratio">0</property>
  <property name="meta.media.0.codec.width">640</property>
  <property name="meta.media.0.codec.height">360</property>
  <property name="meta.media.0.codec.rotate">0</property>
  <property name="meta.media.0.codec.pix_fmt">yuvj420p</property>
  <property name="meta.media.0.codec.sample_aspect_ratio">0</property>
  <property name="meta.media.0.codec.colorspace">601</property>
  <property name="meta.media.0.codec.name">mjpeg</property>
  <property name="meta.media.0.codec.long_name">MJPEG (Motion JPEG)</property>
  <property name="meta.media.0.codec.bit_rate">0</property>
  <property name="meta.attr.0.stream.HANDLER_NAME.markup">VideoHandler</property>
  <property name="meta.attr.0.stream.VENDOR_ID.markup">[0][0][0][0]</property>
  <property name="meta.attr.0.stream.ENCODER.markup">Lavc60.3.100 mjpeg</property>
  <property name="meta.attr.0.stream.DURATION.markup">00:00:01.000000000</property>
  <property name="meta.attr.COMMENT.markup">Rendered with Manim Community v0.17.2</property>
  <property name="meta.attr.MAJOR_BRAND.markup">isom</property>
  <property name="meta.attr.MINOR_VERSION.markup">512</property>
  <property name="meta.attr.COMPATIBLE_BRANDS.markup">isomiso2avc1mp41</property>
  <property name="meta.attr.ENCODER.markup">Lavf60.3.100</property>
  <property name="seekable">1</property>
  <property name="meta.media.sample_aspect_num">1</property>
  <property name="meta.media.sample_aspect_den">1</property>
  <property name="aspect_ratio">1</property>
  <property name="format">3</property>
  <property name="audio_index">-1</property>
  <property name="video_index">0</property>
  <property name="mute_on_pause">0</property>
  <property name="mlt_service">avformat-novalidate</property>
  <property name="kdenlive:clipname">30.mp4</property>
  <property name="kdenlive:clip_type">2</property>
  <property name="kdenlive:folderid">344</property>
  <property name="kdenlive:id">366</property>
  <property name="kdenlive:file_size">108683</property>
  <property name="kdenlive:file_hash">bf3ff13b6da485be4e985ebf05518b9a</property>
  <property name="kdenlive:proxy">/home/xiaoxiae/.cache/kdenlive/proxy/bf3ff13b6da485be4e985ebf05518b9a.mkv</property>
  <property name="kdenlive:originalurl">video/Basics/30.mp4</property>
  <property name="kdenlive:original.mlt_type">producer</property>
  <property name="kdenlive:original.in">00:00:00.000</property>
  <property name="kdenlive:original.out">00:00:00.983</property>
  <property name="kdenlive:original.length">60</property>
  <property name="kdenlive:original.eof">pause</property>
  <property name="kdenlive:original.resource">video/Basics/30.mp4</property>
  <property name="kdenlive:original.meta.media.nb_streams">1</property>
  <property name="kdenlive:original.meta.media.0.stream.type">video</property>
  <property name="kdenlive:original.meta.media.0.stream.frame_rate">60</property>
  <property name="kdenlive:original.meta.media.0.stream.sample_aspect_ratio">0</property>
  <property name="kdenlive:original.meta.media.0.codec.width">3840</property>
  <property name="kdenlive:original.meta.media.0.codec.height">2160</property>
  <property name="kdenlive:original.meta.media.0.codec.rotate">0</property>
  <property name="kdenlive:original.meta.media.0.codec.pix_fmt">yuv420p</property>
  <property name="kdenlive:original.meta.media.0.codec.sample_aspect_ratio">0</property>
  <property name="kdenlive:original.meta.media.0.codec.colorspace">709</property>
  <property name="kdenlive:original.meta.media.0.codec.name">h264</property>
  <property name="kdenlive:original.meta.media.0.codec.long_name">H.264 / AVC / MPEG-4 AVC / MPEG-4 part 10</property>
  <property name="kdenlive:original.meta.media.0.codec.bit_rate">856416</property>
  <property name="kdenlive:original.meta.attr.0.stream.handler_name.markup">VideoHandler</property>
  <property name="kdenlive:original.meta.attr.0.stream.vendor_id.markup">[0][0][0][0]</property>
  <property name="kdenlive:original.meta.attr.0.stream.encoder.markup">Lavc60.3.100 libx264</property>
  <property name="kdenlive:original.meta.attr.major_brand.markup">isom</property>
  <property name="kdenlive:original.meta.attr.minor_version.markup">512</property>
  <property name="kdenlive:original.meta.attr.compatible_brands.markup">isomiso2avc1mp41</property>
  <property name="kdenlive:original.meta.attr.encoder.markup">Lavf60.3.100</property>
  <property name="kdenlive:original.meta.attr.comment.markup">Rendered with Manim Community v0.17.2</property>
  <property name="kdenlive:original.seekable">1</property>
  <property name="kdenlive:original.width">3840</property>
  <property name="kdenlive:original.height">2160</property>
  <property name="kdenlive:original.meta.media.sample_aspect_num">1</property>
  <property name="kdenlive:original.meta.media.sample_aspect_den">1</property>
  <property name="kdenlive:original.aspect_ratio">1</property>
  <property name="kdenlive:original.format">3</property>
  <property name="kdenlive:original.audio_index">-1</property>
  <property name="kdenlive:original.video_index">0</property>
  <property name="kdenlive:original.mute_on_pause">0</property>
  <property name="kdenlive:original.mlt_service">avformat-novalidate</property>
  <property name="kdenlive:original.meta.media.frame_rate_num">60</property>
  <property name="kdenlive:original.meta.media.frame_rate_den">1</property>
  <property name="kdenlive:original.meta.media.colorspace">709</property>
  <property name="kdenlive:original.meta.media.color_trc">2</property>
  <property name="kdenlive:original.meta.media.has_b_frames">2</property>
  <property name="kdenlive:original.meta.media.width">3840</property>
  <property name="kdenlive:original.meta.media.height">2160</property>
  <property name="kdenlive:original.meta.media.color_range">mpeg</property>
  <property name="kdenlive:original.meta.media.top_field_first">0</property>
  <property name="kdenlive:original.meta.media.progressive">1</property>
  <property name="kdenlive:original.kdenlive:clip_type">2</property>
  <property name="kdenlive:original.kdenlive:folderid">344</property>
  <property name="kdenlive:original.kdenlive:id">368</property>
  <property name="kdenlive:original.kdenlive:file_size">108683</property>
  <property name="kdenlive:original.kdenlive:file_hash">bf3ff13b6da485be4e985ebf05518b9a</property>
  <property name="kdenlive:original.backup">1</property>
  <property name="meta.media.frame_rate_num">60</property>
  <property name="meta.media.frame_rate_den">1</property>
  <property name="meta.media.colorspace">601</property>
  <property name="meta.media.color_trc">2</property>
  <property name="meta.media.has_b_frames">0</property>
  <property name="meta.media.width">640</property>
  <property name="meta.media.height">360</property>
  <property name="meta.media.color_range">full</property>
  <property name="meta.media.top_field_first">0</property>
  <property name="meta.media.progressive">1</property>
 </producer>
 <producer id="producer291" in="00:00:00.000" out="00:00:00.983">
  <property name="length">60</property>
  <property name="eof">pause</property>
  <property name="resource">/home/xiaoxiae/.cache/kdenlive/proxy/644c8d2118fd83516fca12febbbd50b6.mkv</property>
  <property name="meta.media.nb_streams">1</property>
  <property name="meta.media.0.stream.type">video</property>
  <property name="meta.media.0.stream.frame_rate">60</property>
  <property name="meta.media.0.stream.sample_aspect_ratio">0</property>
  <property name="meta.media.0.codec.width">640</property>
  <property name="meta.media.0.codec.height">360</property>
  <property name="meta.media.0.codec.rotate">0</property>
  <property name="meta.media.0.codec.pix_fmt">yuvj420p</property>
  <property name="meta.media.0.codec.sample_aspect_ratio">0</property>
  <property name="meta.media.0.codec.colorspace">601</property>
  <property name="meta.media.0.codec.name">mjpeg</property>
  <property name="meta.media.0.codec.long_name">MJPEG (Motion JPEG)</property>
  <property name="meta.media.0.codec.bit_rate">0</property>
  <property name="meta.attr.0.stream.HANDLER_NAME.markup">VideoHandler</property>
  <property name="meta.attr.0.stream.VENDOR_ID.markup">[0][0][0][0]</property>
  <property name="meta.attr.0.stream.ENCODER.markup">Lavc60.3.100 mjpeg</property>
  <property name="meta.attr.0.stream.DURATION.markup">00:00:01.000000000</property>
  <property name="meta.attr.COMMENT.markup">Rendered with Manim Community v0.17.2</property>
  <property name="meta.attr.MAJOR_BRAND.markup">isom</property>
  <property name="meta.attr.MINOR_VERSION.markup">512</property>
  <property name="meta.attr.COMPATIBLE_BRANDS.markup">isomiso2avc1mp41</property>
  <property name="meta.attr.ENCODER.markup">Lavf60.3.100</property>
  <property name="seekable">1</property>
  <property name="meta.media.sample_aspect_num">1</property>
  <property name="meta.media.sample_aspect_den">1</property>
  <property name="aspect_ratio">1</property>
  <property name="format">3</property>
  <property name="audio_index">-1</property>
  <property name="video_index">0</property>
  <property name="mute_on_pause">0</property>
  <property name="mlt_service">avformat-novalidate</property>
  <property name="kdenlive:clipname">31.mp4</property>
  <property name="kdenlive:clip_type">2</property>
  <property name="kdenlive:folderid">344</property>
  <property name="kdenlive:id">367</property>
  <property name="kdenlive:file_size">125179</property>
  <property name="kdenlive:file_hash">644c8d2118fd83516fca12febbbd50b6</property>
  <property name="kdenlive:proxy">/home/xiaoxiae/.cache/kdenlive/proxy/644c8d2118fd83516fca12febbbd50b6.mkv</property>
  <property name="kdenlive:originalurl">video/Basics/31.mp4</property>
  <property name="kdenlive:original.mlt_type">producer</property>
  <property name="kdenlive:original.in">00:00:00.000</property>
  <property name="kdenlive:original.out">00:00:00.983</property>
  <property name="kdenlive:original.length">60</property>
  <property name="kdenlive:original.eof">pause</property>
  <property name="kdenlive:original.resource">video/Basics/31.mp4</property>
  <property name="kdenlive:original.meta.media.nb_streams">1</property>
  <property name="kdenlive:original.meta.media.0.stream.type">video</property>
  <property name="kdenlive:original.meta.media.0.stream.frame_rate">60</property>
  <property name="kdenlive:original.meta.media.0.stream.sample_aspect_ratio">0</property>
  <property name="kdenlive:original.meta.media.0.codec.width">3840</property>
  <property name="kdenlive:original.meta.media.0.codec.height">2160</property>
  <property name="kdenlive:original.meta.media.0.codec.rotate">0</property>
  <property name="kdenlive:original.meta.media.0.codec.pix_fmt">yuv420p</property>
  <property name="kdenlive:original.meta.media.0.codec.sample_aspect_ratio">0</property>
  <property name="kdenlive:original.meta.media.0.codec.colorspace">709</property>
  <property name="kdenlive:original.meta.media.0.codec.name">h264</property>
  <property name="kdenlive:original.meta.media.0.codec.long_name">H.264 / AVC / MPEG-4 AVC / MPEG-4 part 10</property>
  <property name="kdenlive:original.meta.media.0.codec.bit_rate">988384</property>
  <property name="kdenlive:original.meta.attr.0.stream.handler_name.markup">VideoHandler</property>
  <property name="kdenlive:original.meta.attr.0.stream.vendor_id.markup">[0][0][0][0]</property>
  <property name="kdenlive:original.meta.attr.0.stream.encoder.markup">Lavc60.3.100 libx264</property>
  <property name="kdenlive:original.meta.attr.major_brand.markup">isom</property>
  <property name="kdenlive:original.meta.attr.minor_version.markup">512</property>
  <property name="kdenlive:original.meta.attr.compatible_brands.markup">isomiso2avc1mp41</property>
  <property name="kdenlive:original.meta.attr.encoder.markup">Lavf60.3.100</property>
  <property name="kdenlive:original.meta.attr.comment.markup">Rendered with Manim Community v0.17.2</property>
  <property name="kdenlive:original.seekable">1</property>
  <property name="kdenlive:original.width">3840</property>
  <property name="kdenlive:original.height">2160</property>
  <property name="kdenlive:original.meta.media.sample_aspect_num">1</property>
  <property name="kdenlive:original.meta.media.sample_aspect_den">1</property>
  <property name="kdenlive:original.aspect_ratio">1</property>
  <property name="kdenlive:original.format">3</property>
  <property name="kdenlive:original.audio_index">-1</property>
  <property name="kdenlive:original.video_index">0</property>
  <property name="kdenlive:original.mute_on_pause">0</property>
  <property name="kdenlive:original.mlt_service">avformat-novalidate</property>
  <property name="kdenlive:original.meta.media.frame_rate_num">60</property>
  <property name="kdenlive:original.meta.media.frame_rate_den">1</property>
  <property name="kdenlive:original.meta.media.colorspace">709</property>
  <property name="kdenlive:original.meta.media.color_trc">2</property>
  <property name="kdenlive:original.meta.media.has_b_frames">2</property>
  <property name="kdenlive:original.meta.media.width">3840</property>
  <property name="kdenlive:original.meta.media.height">2160</property>
  <property name="kdenlive:original.meta.media.color_range">mpeg</property>
  <property name="kdenlive:original.meta.media.top_field_first">0</property>
  <property name="kdenlive:original.meta.media.progressive">1</property>
  <property name="kdenlive:original.kdenlive:clip_type">2</property>
  <property name="kdenlive:original.kdenlive:folderid">344</property>
  <property name="kdenlive:original.kdenlive:id">369</property>
  <property name="kdenlive:original.kdenlive:file_size">125179</property>
  <property name="kdenlive:original.kdenlive:file_hash">644c8d2118fd83516fca12febbbd50b6</property>
  <property name="kdenlive:original.backup">1</property>
  <property name="meta.media.frame_rate_num">60</property>
  <property name="meta.media.frame_rate_den">1</property>
  <property name="meta.media.colorspace">601</property>
  <property name="meta.media.color_trc">2</property>
  <property name="meta.media.has_b_frames">0</property>
  <property name="meta.media.width">640</property>
  <property name="meta.media.height">360</property>
  <property name="meta.media.color_range">full</property>
  <property name="meta.media.top_field_first">0</property>
  <property name="meta.media.progressive">1</property>
 </producer>
 <producer id="producer293" in="00:00:00.000" out="00:00:00.983">
  <property name="length">60</property>
  <property name="eof">pause</property>
  <property name="resource">/home/xiaoxiae/.cache/kdenlive/proxy/db91fe50960ba7772cd2ccd0a8ead45f.mkv</property>
  <property name="meta.media.nb_streams">1</property>
  <property name="meta.media.0.stream.type">video</property>
  <property name="meta.media.0.stream.frame_rate">60</property>
  <property name="meta.media.0.stream.sample_aspect_ratio">0</property>
  <property name="meta.media.0.codec.width">640</property>
  <property name="meta.media.0.codec.height">360</property>
  <property name="meta.media.0.codec.rotate">0</property>
  <property name="meta.media.0.codec.pix_fmt">yuvj420p</property>
  <property name="meta.media.0.codec.sample_aspect_ratio">0</property>
  <property name="meta.media.0.codec.colorspace">601</property>
  <property name="meta.media.0.codec.name">mjpeg</property>
  <property name="meta.media.0.codec.long_name">MJPEG (Motion JPEG)</property>
  <property name="meta.media.0.codec.bit_rate">0</property>
  <property name="meta.attr.0.stream.HANDLER_NAME.markup">VideoHandler</property>
  <property name="meta.attr.0.stream.VENDOR_ID.markup">[0][0][0][0]</property>
  <property name="meta.attr.0.stream.ENCODER.markup">Lavc60.3.100 mjpeg</property>
  <property name="meta.attr.0.stream.DURATION.markup">00:00:01.000000000</property>
  <property name="meta.attr.COMMENT.markup">Rendered with Manim Community v0.17.2</property>
  <property name="meta.attr.MAJOR_BRAND.markup">isom</property>
  <property name="meta.attr.MINOR_VERSION.markup">512</property>
  <property name="meta.attr.COMPATIBLE_BRANDS.markup">isomiso2avc1mp41</property>
  <property name="meta.attr.ENCODER.markup">Lavf60.3.100</property>
  <property name="seekable">1</property>
  <property name="meta.media.sample_aspect_num">1</property>
  <property name="meta.media.sample_aspect_den">1</property>
  <property name="aspect_ratio">1</property>
  <property name="format">3</property>
  <property name="audio_index">-1</property>
  <property name="video_index">0</property>
  <property name="mute_on_pause">0</property>
  <property name="mlt_service">avformat-novalidate</property>
  <property name="kdenlive:clipname">32.mp4</property>
  <property name="kdenlive:clip_type">2</property>
  <property name="kdenlive:folderid">344</property>
  <property name="kdenlive:id">368</property>
  <property name="kdenlive:file_size">125125</property>
  <property name="kdenlive:file_hash">db91fe50960ba7772cd2ccd0a8ead45f</property>
  <property name="kdenlive:proxy">/home/xiaoxiae/.cache/kdenlive/proxy/db91fe50960ba7772cd2ccd0a8ead45f.mkv</property>
  <property name="kdenlive:originalurl">video/Basics/32.mp4</property>
  <property name="kdenlive:original.mlt_type">producer</property>
  <property name="kdenlive:original.in">00:00:00.000</property>
  <property name="kdenlive:original.out">00:00:00.983</property>
  <property name="kdenlive:original.length">60</property>
  <property name="kdenlive:original.eof">pause</property>
  <property name="kdenlive:original.resource">video/Basics/32.mp4</property>
  <property name="kdenlive:original.meta.media.nb_streams">1</property>
  <property name="kdenlive:original.meta.media.0.stream.type">video</property>
  <property name="kdenlive:original.meta.media.0.stream.frame_rate">60</property>
  <property name="kdenlive:original.meta.media.0.stream.sample_aspect_ratio">0</property>
  <property name="kdenlive:original.meta.media.0.codec.width">3840</property>
  <property name="kdenlive:original.meta.media.0.codec.height">2160</property>
  <property name="kdenlive:original.meta.media.0.codec.rotate">0</property>
  <property name="kdenlive:original.meta.media.0.codec.pix_fmt">yuv420p</property>
  <property name="kdenlive:original.meta.media.0.codec.sample_aspect_ratio">0</property>
  <property name="kdenlive:original.meta.media.0.codec.colorspace">709</property>
  <property name="kdenlive:original.meta.media.0.codec.name">h264</property>
  <property name="kdenlive:original.meta.media.0.codec.long_name">H.264 / AVC / MPEG-4 AVC / MPEG-4 part 10</property>
  <property name="kdenlive:original.meta.media.0.codec.bit_rate">987952</property>
  <property name="kdenlive:original.meta.attr.0.stream.handler_name.markup">VideoHandler</property>
  <property name="kdenlive:original.meta.attr.0.stream.vendor_id.markup">[0][0][0][0]</property>
  <property name="kdenlive:original.meta.attr.0.stream.encoder.markup">Lavc60.3.100 libx264</property>
  <property name="kdenlive:original.meta.attr.major_brand.markup">isom</property>
  <property name="kdenlive:original.meta.attr.minor_version.markup">512</property>
  <property name="kdenlive:original.meta.attr.compatible_brands.markup">isomiso2avc1mp41</property>
  <property name="kdenlive:original.meta.attr.encoder.markup">Lavf60.3.100</property>
  <property name="kdenlive:original.meta.attr.comment.markup">Rendered with Manim Community v0.17.2</property>
  <property name="kdenlive:original.seekable">1</property>
  <property name="kdenlive:original.width">3840</property>
  <property name="kdenlive:original.height">2160</property>
  <property name="kdenlive:original.meta.media.sample_aspect_num">1</property>
  <property name="kdenlive:original.meta.media.sample_aspect_den">1</property>
  <property name="kdenlive:original.aspect_ratio">1</property>
  <property name="kdenlive:original.format">3</property>
  <property name="kdenlive:original.audio_index">-1</property>
  <property name="kdenlive:original.video_index">0</property>
  <property name="kdenlive:original.mute_on_pause">0</property>
  <property name="kdenlive:original.mlt_service">avformat-novalidate</property>
  <property name="kdenlive:original.meta.media.frame_rate_num">60</property>
  <property name="kdenlive:original.meta.media.frame_rate_den">1</property>
  <property name="kdenlive:original.meta.media.colorspace">709</property>
  <property name="kdenlive:original.meta.media.color_trc">2</property>
  <property name="kdenlive:original.meta.media.has_b_frames">2</property>
  <property name="kdenlive:original.meta.media.width">3840</property>
  <property name="kdenlive:original.meta.media.height">2160</property>
  <property name="kdenlive:original.meta.media.color_range">mpeg</property>
  <property name="kdenlive:original.meta.media.top_field_first">0</property>
  <property name="kdenlive:original.meta.media.progressive">1</property>
  <property name="kdenlive:original.kdenlive:clip_type">2</property>
  <property name="kdenlive:original.kdenlive:folderid">344</property>
  <property name="kdenlive:original.kdenlive:id">370</property>
  <property name="kdenlive:original.kdenlive:file_size">125125</property>
  <property name="kdenlive:original.kdenlive:file_hash">db91fe50960ba7772cd2ccd0a8ead45f</property>
  <property name="kdenlive:original.backup">1</property>
  <property name="meta.media.frame_rate_num">60</property>
  <property name="meta.media.frame_rate_den">1</property>
  <property name="meta.media.colorspace">601</property>
  <property name="meta.media.color_trc">2</property>
  <property name="meta.media.has_b_frames">0</property>
  <property name="meta.media.width">640</property>
  <property name="meta.media.height">360</property>
  <property name="meta.media.color_range">full</property>
  <property name="meta.media.top_field_first">0</property>
  <property name="meta.media.progressive">1</property>
 </producer>
 <producer id="producer294" in="00:00:00.000" out="00:00:00.983">
  <property name="length">60</property>
  <property name="eof">pause</property>
  <property name="resource">/home/xiaoxiae/.cache/kdenlive/proxy/f3da8b352bd115a0334a74a100ecf1b8.mkv</property>
  <property name="meta.media.nb_streams">1</property>
  <property name="meta.media.0.stream.type">video</property>
  <property name="meta.media.0.stream.frame_rate">60</property>
  <property name="meta.media.0.stream.sample_aspect_ratio">0</property>
  <property name="meta.media.0.codec.width">640</property>
  <property name="meta.media.0.codec.height">360</property>
  <property name="meta.media.0.codec.rotate">0</property>
  <property name="meta.media.0.codec.pix_fmt">yuvj420p</property>
  <property name="meta.media.0.codec.sample_aspect_ratio">0</property>
  <property name="meta.media.0.codec.colorspace">601</property>
  <property name="meta.media.0.codec.name">mjpeg</property>
  <property name="meta.media.0.codec.long_name">MJPEG (Motion JPEG)</property>
  <property name="meta.media.0.codec.bit_rate">0</property>
  <property name="meta.attr.0.stream.HANDLER_NAME.markup">VideoHandler</property>
  <property name="meta.attr.0.stream.VENDOR_ID.markup">[0][0][0][0]</property>
  <property name="meta.attr.0.stream.ENCODER.markup">Lavc60.3.100 mjpeg</property>
  <property name="meta.attr.0.stream.DURATION.markup">00:00:01.000000000</property>
  <property name="meta.attr.COMMENT.markup">Rendered with Manim Community v0.17.2</property>
  <property name="meta.attr.MAJOR_BRAND.markup">isom</property>
  <property name="meta.attr.MINOR_VERSION.markup">512</property>
  <property name="meta.attr.COMPATIBLE_BRANDS.markup">isomiso2avc1mp41</property>
  <property name="meta.attr.ENCODER.markup">Lavf60.3.100</property>
  <property name="seekable">1</property>
  <property name="meta.media.sample_aspect_num">1</property>
  <property name="meta.media.sample_aspect_den">1</property>
  <property name="aspect_ratio">1</property>
  <property name="format">3</property>
  <property name="audio_index">-1</property>
  <property name="video_index">0</property>
  <property name="mute_on_pause">0</property>
  <property name="mlt_service">avformat-novalidate</property>
  <property name="kdenlive:clipname">33.mp4</property>
  <property name="kdenlive:clip_type">2</property>
  <property name="kdenlive:folderid">344</property>
  <property name="kdenlive:id">369</property>
  <property name="kdenlive:file_size">130103</property>
  <property name="kdenlive:file_hash">f3da8b352bd115a0334a74a100ecf1b8</property>
  <property name="kdenlive:proxy">/home/xiaoxiae/.cache/kdenlive/proxy/f3da8b352bd115a0334a74a100ecf1b8.mkv</property>
  <property name="kdenlive:originalurl">video/Basics/33.mp4</property>
  <property name="kdenlive:original.mlt_type">producer</property>
  <property name="kdenlive:original.in">00:00:00.000</property>
  <property name="kdenlive:original.out">00:00:00.983</property>
  <property name="kdenlive:original.length">60</property>
  <property name="kdenlive:original.eof">pause</property>
  <property name="kdenlive:original.resource">video/Basics/33.mp4</property>
  <property name="kdenlive:original.meta.media.nb_streams">1</property>
  <property name="kdenlive:original.meta.media.0.stream.type">video</property>
  <property name="kdenlive:original.meta.media.0.stream.frame_rate">60</property>
  <property name="kdenlive:original.meta.media.0.stream.sample_aspect_ratio">0</property>
  <property name="kdenlive:original.meta.media.0.codec.width">3840</property>
  <property name="kdenlive:original.meta.media.0.codec.height">2160</property>
  <property name="kdenlive:original.meta.media.0.codec.rotate">0</property>
  <property name="kdenlive:original.meta.media.0.codec.pix_fmt">yuv420p</property>
  <property name="kdenlive:original.meta.media.0.codec.sample_aspect_ratio">0</property>
  <property name="kdenlive:original.meta.media.0.codec.colorspace">709</property>
  <property name="kdenlive:original.meta.media.0.codec.name">h264</property>
  <property name="kdenlive:original.meta.media.0.codec.long_name">H.264 / AVC / MPEG-4 AVC / MPEG-4 part 10</property>
  <property name="kdenlive:original.meta.media.0.codec.bit_rate">1027776</property>
  <property name="kdenlive:original.meta.attr.0.stream.handler_name.markup">VideoHandler</property>
  <property name="kdenlive:original.meta.attr.0.stream.vendor_id.markup">[0][0][0][0]</property>
  <property name="kdenlive:original.meta.attr.0.stream.encoder.markup">Lavc60.3.100 libx264</property>
  <property name="kdenlive:original.meta.attr.major_brand.markup">isom</property>
  <property name="kdenlive:original.meta.attr.minor_version.markup">512</property>
  <property name="kdenlive:original.meta.attr.compatible_brands.markup">isomiso2avc1mp41</property>
  <property name="kdenlive:original.meta.attr.encoder.markup">Lavf60.3.100</property>
  <property name="kdenlive:original.meta.attr.comment.markup">Rendered with Manim Community v0.17.2</property>
  <property name="kdenlive:original.seekable">1</property>
  <property name="kdenlive:original.width">3840</property>
  <property name="kdenlive:original.height">2160</property>
  <property name="kdenlive:original.meta.media.sample_aspect_num">1</property>
  <property name="kdenlive:original.meta.media.sample_aspect_den">1</property>
  <property name="kdenlive:original.aspect_ratio">1</property>
  <property name="kdenlive:original.format">3</property>
  <property name="kdenlive:original.audio_index">-1</property>
  <property name="kdenlive:original.video_index">0</property>
  <property name="kdenlive:original.mute_on_pause">0</property>
  <property name="kdenlive:original.mlt_service">avformat-novalidate</property>
  <property name="kdenlive:original.meta.media.frame_rate_num">60</property>
  <property name="kdenlive:original.meta.media.frame_rate_den">1</property>
  <property name="kdenlive:original.meta.media.colorspace">709</property>
  <property name="kdenlive:original.meta.media.color_trc">2</property>
  <property name="kdenlive:original.meta.media.has_b_frames">2</property>
  <property name="kdenlive:original.meta.media.width">3840</property>
  <property name="kdenlive:original.meta.media.height">2160</property>
  <property name="kdenlive:original.meta.media.color_range">mpeg</property>
  <property name="kdenlive:original.meta.media.top_field_first">0</property>
  <property name="kdenlive:original.meta.media.progressive">1</property>
  <property name="kdenlive:original.kdenlive:clip_type">2</property>
  <property name="kdenlive:original.kdenlive:folderid">344</property>
  <property name="kdenlive:original.kdenlive:id">371</property>
  <property name="kdenlive:original.kdenlive:file_size">130103</property>
  <property name="kdenlive:original.kdenlive:file_hash">f3da8b352bd115a0334a74a100ecf1b8</property>
  <property name="kdenlive:original.backup">1</property>
  <property name="meta.media.frame_rate_num">60</property>
  <property name="meta.media.frame_rate_den">1</property>
  <property name="meta.media.colorspace">601</property>
  <property name="meta.media.color_trc">2</property>
  <property name="meta.media.has_b_frames">0</property>
  <property name="meta.media.width">640</property>
  <property name="meta.media.height">360</property>
  <property name="meta.media.color_range">full</property>
  <property name="meta.media.top_field_first">0</property>
  <property name="meta.media.progressive">1</property>
 </producer>
 <producer id="producer295" in="00:00:00.000" out="00:00:00.983">
  <property name="length">60</property>
  <property name="eof">pause</property>
  <property name="resource">/home/xiaoxiae/.cache/kdenlive/proxy/44a226f2ccbdb5fc9546225fc25ec0aa.mkv</property>
  <property name="meta.media.nb_streams">1</property>
  <property name="meta.media.0.stream.type">video</property>
  <property name="meta.media.0.stream.frame_rate">60</property>
  <property name="meta.media.0.stream.sample_aspect_ratio">0</property>
  <property name="meta.media.0.codec.width">640</property>
  <property name="meta.media.0.codec.height">360</property>
  <property name="meta.media.0.codec.rotate">0</property>
  <property name="meta.media.0.codec.pix_fmt">yuvj420p</property>
  <property name="meta.media.0.codec.sample_aspect_ratio">0</property>
  <property name="meta.media.0.codec.colorspace">601</property>
  <property name="meta.media.0.codec.name">mjpeg</property>
  <property name="meta.media.0.codec.long_name">MJPEG (Motion JPEG)</property>
  <property name="meta.media.0.codec.bit_rate">0</property>
  <property name="meta.attr.0.stream.HANDLER_NAME.markup">VideoHandler</property>
  <property name="meta.attr.0.stream.VENDOR_ID.markup">[0][0][0][0]</property>
  <property name="meta.attr.0.stream.ENCODER.markup">Lavc60.3.100 mjpeg</property>
  <property name="meta.attr.0.stream.DURATION.markup">00:00:01.000000000</property>
  <property name="meta.attr.COMMENT.markup">Rendered with Manim Community v0.17.2</property>
  <property name="meta.attr.MAJOR_BRAND.markup">isom</property>
  <property name="meta.attr.MINOR_VERSION.markup">512</property>
  <property name="meta.attr.COMPATIBLE_BRANDS.markup">isomiso2avc1mp41</property>
  <property name="meta.attr.ENCODER.markup">Lavf60.3.100</property>
  <property name="seekable">1</property>
  <property name="meta.media.sample_aspect_num">1</property>
  <property name="meta.media.sample_aspect_den">1</property>
  <property name="aspect_ratio">1</property>
  <property name="format">3</property>
  <property name="audio_index">-1</property>
  <property name="video_index">0</property>
  <property name="mute_on_pause">0</property>
  <property name="mlt_service">avformat-novalidate</property>
  <property name="kdenlive:clipname">34.mp4</property>
  <property name="kdenlive:clip_type">2</property>
  <property name="kdenlive:folderid">344</property>
  <property name="kdenlive:id">370</property>
  <property name="kdenlive:file_size">110928</property>
  <property name="kdenlive:file_hash">44a226f2ccbdb5fc9546225fc25ec0aa</property>
  <property name="kdenlive:proxy">/home/xiaoxiae/.cache/kdenlive/proxy/44a226f2ccbdb5fc9546225fc25ec0aa.mkv</property>
  <property name="kdenlive:originalurl">video/Basics/34.mp4</property>
  <property name="kdenlive:original.mlt_type">producer</property>
  <property name="kdenlive:original.in">00:00:00.000</property>
  <property name="kdenlive:original.out">00:00:00.983</property>
  <property name="kdenlive:original.length">60</property>
  <property name="kdenlive:original.eof">pause</property>
  <property name="kdenlive:original.resource">video/Basics/34.mp4</property>
  <property name="kdenlive:original.meta.media.nb_streams">1</property>
  <property name="kdenlive:original.meta.media.0.stream.type">video</property>
  <property name="kdenlive:original.meta.media.0.stream.frame_rate">60</property>
  <property name="kdenlive:original.meta.media.0.stream.sample_aspect_ratio">0</property>
  <property name="kdenlive:original.meta.media.0.codec.width">3840</property>
  <property name="kdenlive:original.meta.media.0.codec.height">2160</property>
  <property name="kdenlive:original.meta.media.0.codec.rotate">0</property>
  <property name="kdenlive:original.meta.media.0.codec.pix_fmt">yuv420p</property>
  <property name="kdenlive:original.meta.media.0.codec.sample_aspect_ratio">0</property>
  <property name="kdenlive:original.meta.media.0.codec.colorspace">709</property>
  <property name="kdenlive:original.meta.media.0.codec.name">h264</property>
  <property name="kdenlive:original.meta.media.0.codec.long_name">H.264 / AVC / MPEG-4 AVC / MPEG-4 part 10</property>
  <property name="kdenlive:original.meta.media.0.codec.bit_rate">874312</property>
  <property name="kdenlive:original.meta.attr.0.stream.handler_name.markup">VideoHandler</property>
  <property name="kdenlive:original.meta.attr.0.stream.vendor_id.markup">[0][0][0][0]</property>
  <property name="kdenlive:original.meta.attr.0.stream.encoder.markup">Lavc60.3.100 libx264</property>
  <property name="kdenlive:original.meta.attr.major_brand.markup">isom</property>
  <property name="kdenlive:original.meta.attr.minor_version.markup">512</property>
  <property name="kdenlive:original.meta.attr.compatible_brands.markup">isomiso2avc1mp41</property>
  <property name="kdenlive:original.meta.attr.encoder.markup">Lavf60.3.100</property>
  <property name="kdenlive:original.meta.attr.comment.markup">Rendered with Manim Community v0.17.2</property>
  <property name="kdenlive:original.seekable">1</property>
  <property name="kdenlive:original.width">3840</property>
  <property name="kdenlive:original.height">2160</property>
  <property name="kdenlive:original.meta.media.sample_aspect_num">1</property>
  <property name="kdenlive:original.meta.media.sample_aspect_den">1</property>
  <property name="kdenlive:original.aspect_ratio">1</property>
  <property name="kdenlive:original.format">3</property>
  <property name="kdenlive:original.audio_index">-1</property>
  <property name="kdenlive:original.video_index">0</property>
  <property name="kdenlive:original.mute_on_pause">0</property>
  <property name="kdenlive:original.mlt_service">avformat-novalidate</property>
  <property name="kdenlive:original.meta.media.frame_rate_num">60</property>
  <property name="kdenlive:original.meta.media.frame_rate_den">1</property>
  <property name="kdenlive:original.meta.media.colorspace">709</property>
  <property name="kdenlive:original.meta.media.color_trc">2</property>
  <property name="kdenlive:original.meta.media.has_b_frames">2</property>
  <property name="kdenlive:original.meta.media.width">3840</property>
  <property name="kdenlive:original.meta.media.height">2160</property>
  <property name="kdenlive:original.meta.media.color_range">mpeg</property>
  <property name="kdenlive:original.meta.media.top_field_first">0</property>
  <property name="kdenlive:original.meta.media.progressive">1</property>
  <property name="kdenlive:original.kdenlive:clip_type">2</property>
  <property name="kdenlive:original.kdenlive:folderid">344</property>
  <property name="kdenlive:original.kdenlive:id">372</property>
  <property name="kdenlive:original.kdenlive:file_size">110928</property>
  <property name="kdenlive:original.kdenlive:file_hash">44a226f2ccbdb5fc9546225fc25ec0aa</property>
  <property name="kdenlive:original.backup">1</property>
  <property name="meta.media.frame_rate_num">60</property>
  <property name="meta.media.frame_rate_den">1</property>
  <property name="meta.media.colorspace">601</property>
  <property name="meta.media.color_trc">2</property>
  <property name="meta.media.has_b_frames">0</property>
  <property name="meta.media.width">640</property>
  <property name="meta.media.height">360</property>
  <property name="meta.media.color_range">full</property>
  <property name="meta.media.top_field_first">0</property>
  <property name="meta.media.progressive">1</property>
 </producer>
 <producer id="producer296" in="00:00:00.000" out="00:00:00.983">
  <property name="length">60</property>
  <property name="eof">pause</property>
  <property name="resource">/home/xiaoxiae/.cache/kdenlive/proxy/f656ea6e4d6c9e56a6d125a567f15ac5.mkv</property>
  <property name="meta.media.nb_streams">1</property>
  <property name="meta.media.0.stream.type">video</property>
  <property name="meta.media.0.stream.frame_rate">60</property>
  <property name="meta.media.0.stream.sample_aspect_ratio">0</property>
  <property name="meta.media.0.codec.width">640</property>
  <property name="meta.media.0.codec.height">360</property>
  <property name="meta.media.0.codec.rotate">0</property>
  <property name="meta.media.0.codec.pix_fmt">yuvj420p</property>
  <property name="meta.media.0.codec.sample_aspect_ratio">0</property>
  <property name="meta.media.0.codec.colorspace">601</property>
  <property name="meta.media.0.codec.name">mjpeg</property>
  <property name="meta.media.0.codec.long_name">MJPEG (Motion JPEG)</property>
  <property name="meta.media.0.codec.bit_rate">0</property>
  <property name="meta.attr.0.stream.HANDLER_NAME.markup">VideoHandler</property>
  <property name="meta.attr.0.stream.VENDOR_ID.markup">[0][0][0][0]</property>
  <property name="meta.attr.0.stream.ENCODER.markup">Lavc60.3.100 mjpeg</property>
  <property name="meta.attr.0.stream.DURATION.markup">00:00:01.000000000</property>
  <property name="meta.attr.COMMENT.markup">Rendered with Manim Community v0.17.2</property>
  <property name="meta.attr.MAJOR_BRAND.markup">isom</property>
  <property name="meta.attr.MINOR_VERSION.markup">512</property>
  <property name="meta.attr.COMPATIBLE_BRANDS.markup">isomiso2avc1mp41</property>
  <property name="meta.attr.ENCODER.markup">Lavf60.3.100</property>
  <property name="seekable">1</property>
  <property name="meta.media.sample_aspect_num">1</property>
  <property name="meta.media.sample_aspect_den">1</property>
  <property name="aspect_ratio">1</property>
  <property name="format">3</property>
  <property name="audio_index">-1</property>
  <property name="video_index">0</property>
  <property name="mute_on_pause">0</property>
  <property name="mlt_service">avformat-novalidate</property>
  <property name="kdenlive:clipname">4.mp4</property>
  <property name="kdenlive:clip_type">2</property>
  <property name="kdenlive:folderid">344</property>
  <property name="kdenlive:id">371</property>
  <property name="kdenlive:file_size">97948</property>
  <property name="kdenlive:file_hash">f656ea6e4d6c9e56a6d125a567f15ac5</property>
  <property name="kdenlive:proxy">/home/xiaoxiae/.cache/kdenlive/proxy/f656ea6e4d6c9e56a6d125a567f15ac5.mkv</property>
  <property name="kdenlive:originalurl">video/Basics/4.mp4</property>
  <property name="kdenlive:original.mlt_type">producer</property>
  <property name="kdenlive:original.in">00:00:00.000</property>
  <property name="kdenlive:original.out">00:00:00.983</property>
  <property name="kdenlive:original.length">60</property>
  <property name="kdenlive:original.eof">pause</property>
  <property name="kdenlive:original.resource">video/Basics/4.mp4</property>
  <property name="kdenlive:original.meta.media.nb_streams">1</property>
  <property name="kdenlive:original.meta.media.0.stream.type">video</property>
  <property name="kdenlive:original.meta.media.0.stream.frame_rate">60</property>
  <property name="kdenlive:original.meta.media.0.stream.sample_aspect_ratio">0</property>
  <property name="kdenlive:original.meta.media.0.codec.width">3840</property>
  <property name="kdenlive:original.meta.media.0.codec.height">2160</property>
  <property name="kdenlive:original.meta.media.0.codec.rotate">0</property>
  <property name="kdenlive:original.meta.media.0.codec.pix_fmt">yuv420p</property>
  <property name="kdenlive:original.meta.media.0.codec.sample_aspect_ratio">0</property>
  <property name="kdenlive:original.meta.media.0.codec.colorspace">709</property>
  <property name="kdenlive:original.meta.media.0.codec.name">h264</property>
  <property name="kdenlive:original.meta.media.0.codec.long_name">H.264 / AVC / MPEG-4 AVC / MPEG-4 part 10</property>
  <property name="kdenlive:original.meta.media.0.codec.bit_rate">770472</property>
  <property name="kdenlive:original.meta.attr.0.stream.handler_name.markup">VideoHandler</property>
  <property name="kdenlive:original.meta.attr.0.stream.vendor_id.markup">[0][0][0][0]</property>
  <property name="kdenlive:original.meta.attr.0.stream.encoder.markup">Lavc60.3.100 libx264</property>
  <property name="kdenlive:original.meta.attr.major_brand.markup">isom</property>
  <property name="kdenlive:original.meta.attr.minor_version.markup">512</property>
  <property name="kdenlive:original.meta.attr.compatible_brands.markup">isomiso2avc1mp41</property>
  <property name="kdenlive:original.meta.attr.encoder.markup">Lavf60.3.100</property>
  <property name="kdenlive:original.meta.attr.comment.markup">Rendered with Manim Community v0.17.2</property>
  <property name="kdenlive:original.seekable">1</property>
  <property name="kdenlive:original.width">3840</property>
  <property name="kdenlive:original.height">2160</property>
  <property name="kdenlive:original.meta.media.sample_aspect_num">1</property>
  <property name="kdenlive:original.meta.media.sample_aspect_den">1</property>
  <property name="kdenlive:original.aspect_ratio">1</property>
  <property name="kdenlive:original.format">3</property>
  <property name="kdenlive:original.audio_index">-1</property>
  <property name="kdenlive:original.video_index">0</property>
  <property name="kdenlive:original.mute_on_pause">0</property>
  <property name="kdenlive:original.mlt_service">avformat-novalidate</property>
  <property name="kdenlive:original.meta.media.frame_rate_num">60</property>
  <property name="kdenlive:original.meta.media.frame_rate_den">1</property>
  <property name="kdenlive:original.meta.media.colorspace">709</property>
  <property name="kdenlive:original.meta.media.color_trc">2</property>
  <property name="kdenlive:original.meta.media.has_b_frames">2</property>
  <property name="kdenlive:original.meta.media.width">3840</property>
  <property name="kdenlive:original.meta.media.height">2160</property>
  <property name="kdenlive:original.meta.media.color_range">mpeg</property>
  <property name="kdenlive:original.meta.media.top_field_first">0</property>
  <property name="kdenlive:original.meta.media.progressive">1</property>
  <property name="kdenlive:original.kdenlive:clip_type">2</property>
  <property name="kdenlive:original.kdenlive:folderid">344</property>
  <property name="kdenlive:original.kdenlive:id">373</property>
  <property name="kdenlive:original.kdenlive:file_size">97948</property>
  <property name="kdenlive:original.kdenlive:file_hash">f656ea6e4d6c9e56a6d125a567f15ac5</property>
  <property name="kdenlive:original.backup">1</property>
  <property name="meta.media.frame_rate_num">60</property>
  <property name="meta.media.frame_rate_den">1</property>
  <property name="meta.media.colorspace">601</property>
  <property name="meta.media.color_trc">2</property>
  <property name="meta.media.has_b_frames">0</property>
  <property name="meta.media.width">640</property>
  <property name="meta.media.height">360</property>
  <property name="meta.media.color_range">full</property>
  <property name="meta.media.top_field_first">0</property>
  <property name="meta.media.progressive">1</property>
 </producer>
 <producer id="producer297" in="00:00:00.000" out="00:00:00.983">
  <property name="length">60</property>
  <property name="eof">pause</property>
  <property name="resource">/home/xiaoxiae/.cache/kdenlive/proxy/1ac7c5890506bc14721339886ec7751e.mkv</property>
  <property name="meta.media.nb_streams">1</property>
  <property name="meta.media.0.stream.type">video</property>
  <property name="meta.media.0.stream.frame_rate">60</property>
  <property name="meta.media.0.stream.sample_aspect_ratio">0</property>
  <property name="meta.media.0.codec.width">640</property>
  <property name="meta.media.0.codec.height">360</property>
  <property name="meta.media.0.codec.rotate">0</property>
  <property name="meta.media.0.codec.pix_fmt">yuvj420p</property>
  <property name="meta.media.0.codec.sample_aspect_ratio">0</property>
  <property name="meta.media.0.codec.colorspace">601</property>
  <property name="meta.media.0.codec.name">mjpeg</property>
  <property name="meta.media.0.codec.long_name">MJPEG (Motion JPEG)</property>
  <property name="meta.media.0.codec.bit_rate">0</property>
  <property name="meta.attr.0.stream.HANDLER_NAME.markup">VideoHandler</property>
  <property name="meta.attr.0.stream.VENDOR_ID.markup">[0][0][0][0]</property>
  <property name="meta.attr.0.stream.ENCODER.markup">Lavc60.3.100 mjpeg</property>
  <property name="meta.attr.0.stream.DURATION.markup">00:00:01.000000000</property>
  <property name="meta.attr.COMMENT.markup">Rendered with Manim Community v0.17.2</property>
  <property name="meta.attr.MAJOR_BRAND.markup">isom</property>
  <property name="meta.attr.MINOR_VERSION.markup">512</property>
  <property name="meta.attr.COMPATIBLE_BRANDS.markup">isomiso2avc1mp41</property>
  <property name="meta.attr.ENCODER.markup">Lavf60.3.100</property>
  <property name="seekable">1</property>
  <property name="meta.media.sample_aspect_num">1</property>
  <property name="meta.media.sample_aspect_den">1</property>
  <property name="aspect_ratio">1</property>
  <property name="format">3</property>
  <property name="audio_index">-1</property>
  <property name="video_index">0</property>
  <property name="mute_on_pause">0</property>
  <property name="mlt_service">avformat-novalidate</property>
  <property name="kdenlive:clipname">5.mp4</property>
  <property name="kdenlive:clip_type">2</property>
  <property name="kdenlive:folderid">344</property>
  <property name="kdenlive:id">372</property>
  <property name="kdenlive:file_size">47140</property>
  <property name="kdenlive:file_hash">1ac7c5890506bc14721339886ec7751e</property>
  <property name="kdenlive:proxy">/home/xiaoxiae/.cache/kdenlive/proxy/1ac7c5890506bc14721339886ec7751e.mkv</property>
  <property name="kdenlive:originalurl">video/Basics/5.mp4</property>
  <property name="kdenlive:original.mlt_type">producer</property>
  <property name="kdenlive:original.in">00:00:00.000</property>
  <property name="kdenlive:original.out">00:00:00.983</property>
  <property name="kdenlive:original.length">60</property>
  <property name="kdenlive:original.eof">pause</property>
  <property name="kdenlive:original.resource">video/Basics/5.mp4</property>
  <property name="kdenlive:original.meta.media.nb_streams">1</property>
  <property name="kdenlive:original.meta.media.0.stream.type">video</property>
  <property name="kdenlive:original.meta.media.0.stream.frame_rate">60</property>
  <property name="kdenlive:original.meta.media.0.stream.sample_aspect_ratio">0</property>
  <property name="kdenlive:original.meta.media.0.codec.width">3840</property>
  <property name="kdenlive:original.meta.media.0.codec.height">2160</property>
  <property name="kdenlive:original.meta.media.0.codec.rotate">0</property>
  <property name="kdenlive:original.meta.media.0.codec.pix_fmt">yuv420p</property>
  <property name="kdenlive:original.meta.media.0.codec.sample_aspect_ratio">0</property>
  <property name="kdenlive:original.meta.media.0.codec.colorspace">709</property>
  <property name="kdenlive:original.meta.media.0.codec.name">h264</property>
  <property name="kdenlive:original.meta.media.0.codec.long_name">H.264 / AVC / MPEG-4 AVC / MPEG-4 part 10</property>
  <property name="kdenlive:original.meta.media.0.codec.bit_rate">364072</property>
  <property name="kdenlive:original.meta.attr.0.stream.handler_name.markup">VideoHandler</property>
  <property name="kdenlive:original.meta.attr.0.stream.vendor_id.markup">[0][0][0][0]</property>
  <property name="kdenlive:original.meta.attr.0.stream.encoder.markup">Lavc60.3.100 libx264</property>
  <property name="kdenlive:original.meta.attr.major_brand.markup">isom</property>
  <property name="kdenlive:original.meta.attr.minor_version.markup">512</property>
  <property name="kdenlive:original.meta.attr.compatible_brands.markup">isomiso2avc1mp41</property>
  <property name="kdenlive:original.meta.attr.encoder.markup">Lavf60.3.100</property>
  <property name="kdenlive:original.meta.attr.comment.markup">Rendered with Manim Community v0.17.2</property>
  <property name="kdenlive:original.seekable">1</property>
  <property name="kdenlive:original.width">3840</property>
  <property name="kdenlive:original.height">2160</property>
  <property name="kdenlive:original.meta.media.sample_aspect_num">1</property>
  <property name="kdenlive:original.meta.media.sample_aspect_den">1</property>
  <property name="kdenlive:original.aspect_ratio">1</property>
  <property name="kdenlive:original.format">3</property>
  <property name="kdenlive:original.audio_index">-1</property>
  <property name="kdenlive:original.video_index">0</property>
  <property name="kdenlive:original.mute_on_pause">0</property>
  <property name="kdenlive:original.mlt_service">avformat-novalidate</property>
  <property name="kdenlive:original.meta.media.frame_rate_num">60</property>
  <property name="kdenlive:original.meta.media.frame_rate_den">1</property>
  <property name="kdenlive:original.meta.media.colorspace">709</property>
  <property name="kdenlive:original.meta.media.color_trc">2</property>
  <property name="kdenlive:original.meta.media.has_b_frames">2</property>
  <property name="kdenlive:original.meta.media.width">3840</property>
  <property name="kdenlive:original.meta.media.height">2160</property>
  <property name="kdenlive:original.meta.media.color_range">mpeg</property>
  <property name="kdenlive:original.meta.media.top_field_first">0</property>
  <property name="kdenlive:original.meta.media.progressive">1</property>
  <property name="kdenlive:original.kdenlive:clip_type">2</property>
  <property name="kdenlive:original.kdenlive:folderid">344</property>
  <property name="kdenlive:original.kdenlive:id">374</property>
  <property name="kdenlive:original.kdenlive:file_size">47140</property>
  <property name="kdenlive:original.kdenlive:file_hash">1ac7c5890506bc14721339886ec7751e</property>
  <property name="kdenlive:original.backup">1</property>
  <property name="meta.media.frame_rate_num">60</property>
  <property name="meta.media.frame_rate_den">1</property>
  <property name="meta.media.colorspace">601</property>
  <property name="meta.media.color_trc">2</property>
  <property name="meta.media.has_b_frames">0</property>
  <property name="meta.media.width">640</property>
  <property name="meta.media.height">360</property>
  <property name="meta.media.color_range">full</property>
  <property name="meta.media.top_field_first">0</property>
  <property name="meta.media.progressive">1</property>
 </producer>
 <producer id="producer298" in="00:00:00.000" out="00:00:00.983">
  <property name="length">60</property>
  <property name="eof">pause</property>
  <property name="resource">/home/xiaoxiae/.cache/kdenlive/proxy/0f737cb7b436110e15715e71adc14406.mkv</property>
  <property name="meta.media.nb_streams">1</property>
  <property name="meta.media.0.stream.type">video</property>
  <property name="meta.media.0.stream.frame_rate">60</property>
  <property name="meta.media.0.stream.sample_aspect_ratio">0</property>
  <property name="meta.media.0.codec.width">640</property>
  <property name="meta.media.0.codec.height">360</property>
  <property name="meta.media.0.codec.rotate">0</property>
  <property name="meta.media.0.codec.pix_fmt">yuvj420p</property>
  <property name="meta.media.0.codec.sample_aspect_ratio">0</property>
  <property name="meta.media.0.codec.colorspace">601</property>
  <property name="meta.media.0.codec.name">mjpeg</property>
  <property name="meta.media.0.codec.long_name">MJPEG (Motion JPEG)</property>
  <property name="meta.media.0.codec.bit_rate">0</property>
  <property name="meta.attr.0.stream.HANDLER_NAME.markup">VideoHandler</property>
  <property name="meta.attr.0.stream.VENDOR_ID.markup">[0][0][0][0]</property>
  <property name="meta.attr.0.stream.ENCODER.markup">Lavc60.3.100 mjpeg</property>
  <property name="meta.attr.0.stream.DURATION.markup">00:00:01.000000000</property>
  <property name="meta.attr.COMMENT.markup">Rendered with Manim Community v0.17.2</property>
  <property name="meta.attr.MAJOR_BRAND.markup">isom</property>
  <property name="meta.attr.MINOR_VERSION.markup">512</property>
  <property name="meta.attr.COMPATIBLE_BRANDS.markup">isomiso2avc1mp41</property>
  <property name="meta.attr.ENCODER.markup">Lavf60.3.100</property>
  <property name="seekable">1</property>
  <property name="meta.media.sample_aspect_num">1</property>
  <property name="meta.media.sample_aspect_den">1</property>
  <property name="aspect_ratio">1</property>
  <property name="format">3</property>
  <property name="audio_index">-1</property>
  <property name="video_index">0</property>
  <property name="mute_on_pause">0</property>
  <property name="mlt_service">avformat-novalidate</property>
  <property name="kdenlive:clipname">6.mp4</property>
  <property name="kdenlive:clip_type">2</property>
  <property name="kdenlive:folderid">344</property>
  <property name="kdenlive:id">373</property>
  <property name="kdenlive:file_size">85993</property>
  <property name="kdenlive:file_hash">0f737cb7b436110e15715e71adc14406</property>
  <property name="kdenlive:proxy">/home/xiaoxiae/.cache/kdenlive/proxy/0f737cb7b436110e15715e71adc14406.mkv</property>
  <property name="kdenlive:originalurl">video/Basics/6.mp4</property>
  <property name="kdenlive:original.mlt_type">producer</property>
  <property name="kdenlive:original.in">00:00:00.000</property>
  <property name="kdenlive:original.out">00:00:00.983</property>
  <property name="kdenlive:original.length">60</property>
  <property name="kdenlive:original.eof">pause</property>
  <property name="kdenlive:original.resource">video/Basics/6.mp4</property>
  <property name="kdenlive:original.meta.media.nb_streams">1</property>
  <property name="kdenlive:original.meta.media.0.stream.type">video</property>
  <property name="kdenlive:original.meta.media.0.stream.frame_rate">60</property>
  <property name="kdenlive:original.meta.media.0.stream.sample_aspect_ratio">0</property>
  <property name="kdenlive:original.meta.media.0.codec.width">3840</property>
  <property name="kdenlive:original.meta.media.0.codec.height">2160</property>
  <property name="kdenlive:original.meta.media.0.codec.rotate">0</property>
  <property name="kdenlive:original.meta.media.0.codec.pix_fmt">yuv420p</property>
  <property name="kdenlive:original.meta.media.0.codec.sample_aspect_ratio">0</property>
  <property name="kdenlive:original.meta.media.0.codec.colorspace">709</property>
  <property name="kdenlive:original.meta.media.0.codec.name">h264</property>
  <property name="kdenlive:original.meta.media.0.codec.long_name">H.264 / AVC / MPEG-4 AVC / MPEG-4 part 10</property>
  <property name="kdenlive:original.meta.media.0.codec.bit_rate">674896</property>
  <property name="kdenlive:original.meta.attr.0.stream.handler_name.markup">VideoHandler</property>
  <property name="kdenlive:original.meta.attr.0.stream.vendor_id.markup">[0][0][0][0]</property>
  <property name="kdenlive:original.meta.attr.0.stream.encoder.markup">Lavc60.3.100 libx264</property>
  <property name="kdenlive:original.meta.attr.major_brand.markup">isom</property>
  <property name="kdenlive:original.meta.attr.minor_version.markup">512</property>
  <property name="kdenlive:original.meta.attr.compatible_brands.markup">isomiso2avc1mp41</property>
  <property name="kdenlive:original.meta.attr.encoder.markup">Lavf60.3.100</property>
  <property name="kdenlive:original.meta.attr.comment.markup">Rendered with Manim Community v0.17.2</property>
  <property name="kdenlive:original.seekable">1</property>
  <property name="kdenlive:original.width">3840</property>
  <property name="kdenlive:original.height">2160</property>
  <property name="kdenlive:original.meta.media.sample_aspect_num">1</property>
  <property name="kdenlive:original.meta.media.sample_aspect_den">1</property>
  <property name="kdenlive:original.aspect_ratio">1</property>
  <property name="kdenlive:original.format">3</property>
  <property name="kdenlive:original.audio_index">-1</property>
  <property name="kdenlive:original.video_index">0</property>
  <property name="kdenlive:original.mute_on_pause">0</property>
  <property name="kdenlive:original.mlt_service">avformat-novalidate</property>
  <property name="kdenlive:original.meta.media.frame_rate_num">60</property>
  <property name="kdenlive:original.meta.media.frame_rate_den">1</property>
  <property name="kdenlive:original.meta.media.colorspace">709</property>
  <property name="kdenlive:original.meta.media.color_trc">2</property>
  <property name="kdenlive:original.meta.media.has_b_frames">2</property>
  <property name="kdenlive:original.meta.media.width">3840</property>
  <property name="kdenlive:original.meta.media.height">2160</property>
  <property name="kdenlive:original.meta.media.color_range">mpeg</property>
  <property name="kdenlive:original.meta.media.top_field_first">0</property>
  <property name="kdenlive:original.meta.media.progressive">1</property>
  <property name="kdenlive:original.kdenlive:clip_type">2</property>
  <property name="kdenlive:original.kdenlive:folderid">344</property>
  <property name="kdenlive:original.kdenlive:id">375</property>
  <property name="kdenlive:original.kdenlive:file_size">85993</property>
  <property name="kdenlive:original.kdenlive:file_hash">0f737cb7b436110e15715e71adc14406</property>
  <property name="kdenlive:original.backup">1</property>
  <property name="meta.media.frame_rate_num">60</property>
  <property name="meta.media.frame_rate_den">1</property>
  <property name="meta.media.colorspace">601</property>
  <property name="meta.media.color_trc">2</property>
  <property name="meta.media.has_b_frames">0</property>
  <property name="meta.media.width">640</property>
  <property name="meta.media.height">360</property>
  <property name="meta.media.color_range">full</property>
  <property name="meta.media.top_field_first">0</property>
  <property name="meta.media.progressive">1</property>
 </producer>
 <producer id="producer299" in="00:00:00.000" out="00:00:00.983">
  <property name="length">60</property>
  <property name="eof">pause</property>
  <property name="resource">/home/xiaoxiae/.cache/kdenlive/proxy/54f5efc31a62a5d0b20792fbbe3e84be.mkv</property>
  <property name="meta.media.nb_streams">1</property>
  <property name="meta.media.0.stream.type">video</property>
  <property name="meta.media.0.stream.frame_rate">60</property>
  <property name="meta.media.0.stream.sample_aspect_ratio">0</property>
  <property name="meta.media.0.codec.width">640</property>
  <property name="meta.media.0.codec.height">360</property>
  <property name="meta.media.0.codec.rotate">0</property>
  <property name="meta.media.0.codec.pix_fmt">yuvj420p</property>
  <property name="meta.media.0.codec.sample_aspect_ratio">0</property>
  <property name="meta.media.0.codec.colorspace">601</property>
  <property name="meta.media.0.codec.name">mjpeg</property>
  <property name="meta.media.0.codec.long_name">MJPEG (Motion JPEG)</property>
  <property name="meta.media.0.codec.bit_rate">0</property>
  <property name="meta.attr.0.stream.HANDLER_NAME.markup">VideoHandler</property>
  <property name="meta.attr.0.stream.VENDOR_ID.markup">[0][0][0][0]</property>
  <property name="meta.attr.0.stream.ENCODER.markup">Lavc60.3.100 mjpeg</property>
  <property name="meta.attr.0.stream.DURATION.markup">00:00:01.000000000</property>
  <property name="meta.attr.COMMENT.markup">Rendered with Manim Community v0.17.2</property>
  <property name="meta.attr.MAJOR_BRAND.markup">isom</property>
  <property name="meta.attr.MINOR_VERSION.markup">512</property>
  <property name="meta.attr.COMPATIBLE_BRANDS.markup">isomiso2avc1mp41</property>
  <property name="meta.attr.ENCODER.markup">Lavf60.3.100</property>
  <property name="seekable">1</property>
  <property name="meta.media.sample_aspect_num">1</property>
  <property name="meta.media.sample_aspect_den">1</property>
  <property name="aspect_ratio">1</property>
  <property name="format">3</property>
  <property name="audio_index">-1</property>
  <property name="video_index">0</property>
  <property name="mute_on_pause">0</property>
  <property name="mlt_service">avformat-novalidate</property>
  <property name="kdenlive:clipname">7.mp4</property>
  <property name="kdenlive:clip_type">2</property>
  <property name="kdenlive:folderid">344</property>
  <property name="kdenlive:id">374</property>
  <property name="kdenlive:file_size">156754</property>
  <property name="kdenlive:file_hash">54f5efc31a62a5d0b20792fbbe3e84be</property>
  <property name="kdenlive:proxy">/home/xiaoxiae/.cache/kdenlive/proxy/54f5efc31a62a5d0b20792fbbe3e84be.mkv</property>
  <property name="kdenlive:originalurl">video/Basics/7.mp4</property>
  <property name="kdenlive:original.mlt_type">producer</property>
  <property name="kdenlive:original.in">00:00:00.000</property>
  <property name="kdenlive:original.out">00:00:00.983</property>
  <property name="kdenlive:original.length">60</property>
  <property name="kdenlive:original.eof">pause</property>
  <property name="kdenlive:original.resource">video/Basics/7.mp4</property>
  <property name="kdenlive:original.meta.media.nb_streams">1</property>
  <property name="kdenlive:original.meta.media.0.stream.type">video</property>
  <property name="kdenlive:original.meta.media.0.stream.frame_rate">60</property>
  <property name="kdenlive:original.meta.media.0.stream.sample_aspect_ratio">0</property>
  <property name="kdenlive:original.meta.media.0.codec.width">3840</property>
  <property name="kdenlive:original.meta.media.0.codec.height">2160</property>
  <property name="kdenlive:original.meta.media.0.codec.rotate">0</property>
  <property name="kdenlive:original.meta.media.0.codec.pix_fmt">yuv420p</property>
  <property name="kdenlive:original.meta.media.0.codec.sample_aspect_ratio">0</property>
  <property name="kdenlive:original.meta.media.0.codec.colorspace">709</property>
  <property name="kdenlive:original.meta.media.0.codec.name">h264</property>
  <property name="kdenlive:original.meta.media.0.codec.long_name">H.264 / AVC / MPEG-4 AVC / MPEG-4 part 10</property>
  <property name="kdenlive:original.meta.media.0.codec.bit_rate">1241368</property>
  <property name="kdenlive:original.meta.attr.0.stream.handler_name.markup">VideoHandler</property>
  <property name="kdenlive:original.meta.attr.0.stream.vendor_id.markup">[0][0][0][0]</property>
  <property name="kdenlive:original.meta.attr.0.stream.encoder.markup">Lavc60.3.100 libx264</property>
  <property name="kdenlive:original.meta.attr.major_brand.markup">isom</property>
  <property name="kdenlive:original.meta.attr.minor_version.markup">512</property>
  <property name="kdenlive:original.meta.attr.compatible_brands.markup">isomiso2avc1mp41</property>
  <property name="kdenlive:original.meta.attr.encoder.markup">Lavf60.3.100</property>
  <property name="kdenlive:original.meta.attr.comment.markup">Rendered with Manim Community v0.17.2</property>
  <property name="kdenlive:original.seekable">1</property>
  <property name="kdenlive:original.width">3840</property>
  <property name="kdenlive:original.height">2160</property>
  <property name="kdenlive:original.meta.media.sample_aspect_num">1</property>
  <property name="kdenlive:original.meta.media.sample_aspect_den">1</property>
  <property name="kdenlive:original.aspect_ratio">1</property>
  <property name="kdenlive:original.format">3</property>
  <property name="kdenlive:original.audio_index">-1</property>
  <property name="kdenlive:original.video_index">0</property>
  <property name="kdenlive:original.mute_on_pause">0</property>
  <property name="kdenlive:original.mlt_service">avformat-novalidate</property>
  <property name="kdenlive:original.meta.media.frame_rate_num">60</property>
  <property name="kdenlive:original.meta.media.frame_rate_den">1</property>
  <property name="kdenlive:original.meta.media.colorspace">709</property>
  <property name="kdenlive:original.meta.media.color_trc">2</property>
  <property name="kdenlive:original.meta.media.has_b_frames">2</property>
  <property name="kdenlive:original.meta.media.width">3840</property>
  <property name="kdenlive:original.meta.media.height">2160</property>
  <property name="kdenlive:original.meta.media.color_range">mpeg</property>
  <property name="kdenlive:original.meta.media.top_field_first">0</property>
  <property name="kdenlive:original.meta.media.progressive">1</property>
  <property name="kdenlive:original.kdenlive:clip_type">2</property>
  <property name="kdenlive:original.kdenlive:folderid">344</property>
  <property name="kdenlive:original.kdenlive:id">376</property>
  <property name="kdenlive:original.kdenlive:file_size">156754</property>
  <property name="kdenlive:original.kdenlive:file_hash">54f5efc31a62a5d0b20792fbbe3e84be</property>
  <property name="kdenlive:original.backup">1</property>
  <property name="meta.media.frame_rate_num">60</property>
  <property name="meta.media.frame_rate_den">1</property>
  <property name="meta.media.colorspace">601</property>
  <property name="meta.media.color_trc">2</property>
  <property name="meta.media.has_b_frames">0</property>
  <property name="meta.media.width">640</property>
  <property name="meta.media.height">360</property>
  <property name="meta.media.color_range">full</property>
  <property name="meta.media.top_field_first">0</property>
  <property name="meta.media.progressive">1</property>
 </producer>
 <producer id="producer300" in="00:00:00.000" out="00:00:00.983">
  <property name="length">60</property>
  <property name="eof">pause</property>
  <property name="resource">/home/xiaoxiae/.cache/kdenlive/proxy/c42717ac55f9ed3370e2f77bb6736d30.mkv</property>
  <property name="meta.media.nb_streams">1</property>
  <property name="meta.media.0.stream.type">video</property>
  <property name="meta.media.0.stream.frame_rate">60</property>
  <property name="meta.media.0.stream.sample_aspect_ratio">0</property>
  <property name="meta.media.0.codec.width">640</property>
  <property name="meta.media.0.codec.height">360</property>
  <property name="meta.media.0.codec.rotate">0</property>
  <property name="meta.media.0.codec.pix_fmt">yuvj420p</property>
  <property name="meta.media.0.codec.sample_aspect_ratio">0</property>
  <property name="meta.media.0.codec.colorspace">601</property>
  <property name="meta.media.0.codec.name">mjpeg</property>
  <property name="meta.media.0.codec.long_name">MJPEG (Motion JPEG)</property>
  <property name="meta.media.0.codec.bit_rate">0</property>
  <property name="meta.attr.0.stream.HANDLER_NAME.markup">VideoHandler</property>
  <property name="meta.attr.0.stream.VENDOR_ID.markup">[0][0][0][0]</property>
  <property name="meta.attr.0.stream.ENCODER.markup">Lavc60.3.100 mjpeg</property>
  <property name="meta.attr.0.stream.DURATION.markup">00:00:01.000000000</property>
  <property name="meta.attr.COMMENT.markup">Rendered with Manim Community v0.17.2</property>
  <property name="meta.attr.MAJOR_BRAND.markup">isom</property>
  <property name="meta.attr.MINOR_VERSION.markup">512</property>
  <property name="meta.attr.COMPATIBLE_BRANDS.markup">isomiso2avc1mp41</property>
  <property name="meta.attr.ENCODER.markup">Lavf60.3.100</property>
  <property name="seekable">1</property>
  <property name="meta.media.sample_aspect_num">1</property>
  <property name="meta.media.sample_aspect_den">1</property>
  <property name="aspect_ratio">1</property>
  <property name="format">3</property>
  <property name="audio_index">-1</property>
  <property name="video_index">0</property>
  <property name="mute_on_pause">0</property>
  <property name="mlt_service">avformat-novalidate</property>
  <property name="kdenlive:clipname">8.mp4</property>
  <property name="kdenlive:clip_type">2</property>
  <property name="kdenlive:folderid">344</property>
  <property name="kdenlive:id">375</property>
  <property name="kdenlive:file_size">101567</property>
  <property name="kdenlive:file_hash">c42717ac55f9ed3370e2f77bb6736d30</property>
  <property name="kdenlive:proxy">/home/xiaoxiae/.cache/kdenlive/proxy/c42717ac55f9ed3370e2f77bb6736d30.mkv</property>
  <property name="kdenlive:originalurl">video/Basics/8.mp4</property>
  <property name="kdenlive:original.mlt_type">producer</property>
  <property name="kdenlive:original.in">00:00:00.000</property>
  <property name="kdenlive:original.out">00:00:00.983</property>
  <property name="kdenlive:original.length">60</property>
  <property name="kdenlive:original.eof">pause</property>
  <property name="kdenlive:original.resource">video/Basics/8.mp4</property>
  <property name="kdenlive:original.meta.media.nb_streams">1</property>
  <property name="kdenlive:original.meta.media.0.stream.type">video</property>
  <property name="kdenlive:original.meta.media.0.stream.frame_rate">60</property>
  <property name="kdenlive:original.meta.media.0.stream.sample_aspect_ratio">0</property>
  <property name="kdenlive:original.meta.media.0.codec.width">3840</property>
  <property name="kdenlive:original.meta.media.0.codec.height">2160</property>
  <property name="kdenlive:original.meta.media.0.codec.rotate">0</property>
  <property name="kdenlive:original.meta.media.0.codec.pix_fmt">yuv420p</property>
  <property name="kdenlive:original.meta.media.0.codec.sample_aspect_ratio">0</property>
  <property name="kdenlive:original.meta.media.0.codec.colorspace">709</property>
  <property name="kdenlive:original.meta.media.0.codec.name">h264</property>
  <property name="kdenlive:original.meta.media.0.codec.long_name">H.264 / AVC / MPEG-4 AVC / MPEG-4 part 10</property>
  <property name="kdenlive:original.meta.media.0.codec.bit_rate">799488</property>
  <property name="kdenlive:original.meta.attr.0.stream.handler_name.markup">VideoHandler</property>
  <property name="kdenlive:original.meta.attr.0.stream.vendor_id.markup">[0][0][0][0]</property>
  <property name="kdenlive:original.meta.attr.0.stream.encoder.markup">Lavc60.3.100 libx264</property>
  <property name="kdenlive:original.meta.attr.major_brand.markup">isom</property>
  <property name="kdenlive:original.meta.attr.minor_version.markup">512</property>
  <property name="kdenlive:original.meta.attr.compatible_brands.markup">isomiso2avc1mp41</property>
  <property name="kdenlive:original.meta.attr.encoder.markup">Lavf60.3.100</property>
  <property name="kdenlive:original.meta.attr.comment.markup">Rendered with Manim Community v0.17.2</property>
  <property name="kdenlive:original.seekable">1</property>
  <property name="kdenlive:original.width">3840</property>
  <property name="kdenlive:original.height">2160</property>
  <property name="kdenlive:original.meta.media.sample_aspect_num">1</property>
  <property name="kdenlive:original.meta.media.sample_aspect_den">1</property>
  <property name="kdenlive:original.aspect_ratio">1</property>
  <property name="kdenlive:original.format">3</property>
  <property name="kdenlive:original.audio_index">-1</property>
  <property name="kdenlive:original.video_index">0</property>
  <property name="kdenlive:original.mute_on_pause">0</property>
  <property name="kdenlive:original.mlt_service">avformat-novalidate</property>
  <property name="kdenlive:original.meta.media.frame_rate_num">60</property>
  <property name="kdenlive:original.meta.media.frame_rate_den">1</property>
  <property name="kdenlive:original.meta.media.colorspace">709</property>
  <property name="kdenlive:original.meta.media.color_trc">2</property>
  <property name="kdenlive:original.meta.media.has_b_frames">2</property>
  <property name="kdenlive:original.meta.media.width">3840</property>
  <property name="kdenlive:original.meta.media.height">2160</property>
  <property name="kdenlive:original.meta.media.color_range">mpeg</property>
  <property name="kdenlive:original.meta.media.top_field_first">0</property>
  <property name="kdenlive:original.meta.media.progressive">1</property>
  <property name="kdenlive:original.kdenlive:clip_type">2</property>
  <property name="kdenlive:original.kdenlive:folderid">344</property>
  <property name="kdenlive:original.kdenlive:id">377</property>
  <property name="kdenlive:original.kdenlive:file_size">101567</property>
  <property name="kdenlive:original.kdenlive:file_hash">c42717ac55f9ed3370e2f77bb6736d30</property>
  <property name="kdenlive:original.backup">1</property>
  <property name="meta.media.frame_rate_num">60</property>
  <property name="meta.media.frame_rate_den">1</property>
  <property name="meta.media.colorspace">601</property>
  <property name="meta.media.color_trc">2</property>
  <property name="meta.media.has_b_frames">0</property>
  <property name="meta.media.width">640</property>
  <property name="meta.media.height">360</property>
  <property name="meta.media.color_range">full</property>
  <property name="meta.media.top_field_first">0</property>
  <property name="meta.media.progressive">1</property>
 </producer>
 <producer id="producer301" in="00:00:00.000" out="00:00:00.983">
  <property name="length">60</property>
  <property name="eof">pause</property>
  <property name="resource">/home/xiaoxiae/.cache/kdenlive/proxy/fbfb1bcf34ea9a8b145afa03e351ac03.mkv</property>
  <property name="meta.media.nb_streams">1</property>
  <property name="meta.media.0.stream.type">video</property>
  <property name="meta.media.0.stream.frame_rate">60</property>
  <property name="meta.media.0.stream.sample_aspect_ratio">0</property>
  <property name="meta.media.0.codec.width">640</property>
  <property name="meta.media.0.codec.height">360</property>
  <property name="meta.media.0.codec.rotate">0</property>
  <property name="meta.media.0.codec.pix_fmt">yuvj420p</property>
  <property name="meta.media.0.codec.sample_aspect_ratio">0</property>
  <property name="meta.media.0.codec.colorspace">601</property>
  <property name="meta.media.0.codec.name">mjpeg</property>
  <property name="meta.media.0.codec.long_name">MJPEG (Motion JPEG)</property>
  <property name="meta.media.0.codec.bit_rate">0</property>
  <property name="meta.attr.0.stream.HANDLER_NAME.markup">VideoHandler</property>
  <property name="meta.attr.0.stream.VENDOR_ID.markup">[0][0][0][0]</property>
  <property name="meta.attr.0.stream.ENCODER.markup">Lavc60.3.100 mjpeg</property>
  <property name="meta.attr.0.stream.DURATION.markup">00:00:01.000000000</property>
  <property name="meta.attr.COMMENT.markup">Rendered with Manim Community v0.17.2</property>
  <property name="meta.attr.MAJOR_BRAND.markup">isom</property>
  <property name="meta.attr.MINOR_VERSION.markup">512</property>
  <property name="meta.attr.COMPATIBLE_BRANDS.markup">isomiso2avc1mp41</property>
  <property name="meta.attr.ENCODER.markup">Lavf60.3.100</property>
  <property name="seekable">1</property>
  <property name="meta.media.sample_aspect_num">1</property>
  <property name="meta.media.sample_aspect_den">1</property>
  <property name="aspect_ratio">1</property>
  <property name="format">3</property>
  <property name="audio_index">-1</property>
  <property name="video_index">0</property>
  <property name="mute_on_pause">0</property>
  <property name="mlt_service">avformat-novalidate</property>
  <property name="kdenlive:clipname">9.mp4</property>
  <property name="kdenlive:clip_type">2</property>
  <property name="kdenlive:folderid">344</property>
  <property name="kdenlive:id">376</property>
  <property name="kdenlive:file_size">75479</property>
  <property name="kdenlive:file_hash">fbfb1bcf34ea9a8b145afa03e351ac03</property>
  <property name="kdenlive:proxy">/home/xiaoxiae/.cache/kdenlive/proxy/fbfb1bcf34ea9a8b145afa03e351ac03.mkv</property>
  <property name="kdenlive:originalurl">video/Basics/9.mp4</property>
  <property name="kdenlive:original.mlt_type">producer</property>
  <property name="kdenlive:original.in">00:00:00.000</property>
  <property name="kdenlive:original.out">00:00:00.983</property>
  <property name="kdenlive:original.length">60</property>
  <property name="kdenlive:original.eof">pause</property>
  <property name="kdenlive:original.resource">video/Basics/9.mp4</property>
  <property name="kdenlive:original.meta.media.nb_streams">1</property>
  <property name="kdenlive:original.meta.media.0.stream.type">video</property>
  <property name="kdenlive:original.meta.media.0.stream.frame_rate">60</property>
  <property name="kdenlive:original.meta.media.0.stream.sample_aspect_ratio">0</property>
  <property name="kdenlive:original.meta.media.0.codec.width">3840</property>
  <property name="kdenlive:original.meta.media.0.codec.height">2160</property>
  <property name="kdenlive:original.meta.media.0.codec.rotate">0</property>
  <property name="kdenlive:original.meta.media.0.codec.pix_fmt">yuv420p</property>
  <property name="kdenlive:original.meta.media.0.codec.sample_aspect_ratio">0</property>
  <property name="kdenlive:original.meta.media.0.codec.colorspace">709</property>
  <property name="kdenlive:original.meta.media.0.codec.name">h264</property>
  <property name="kdenlive:original.meta.media.0.codec.long_name">H.264 / AVC / MPEG-4 AVC / MPEG-4 part 10</property>
  <property name="kdenlive:original.meta.media.0.codec.bit_rate">590784</property>
  <property name="kdenlive:original.meta.attr.0.stream.handler_name.markup">VideoHandler</property>
  <property name="kdenlive:original.meta.attr.0.stream.vendor_id.markup">[0][0][0][0]</property>
  <property name="kdenlive:original.meta.attr.0.stream.encoder.markup">Lavc60.3.100 libx264</property>
  <property name="kdenlive:original.meta.attr.major_brand.markup">isom</property>
  <property name="kdenlive:original.meta.attr.minor_version.markup">512</property>
  <property name="kdenlive:original.meta.attr.compatible_brands.markup">isomiso2avc1mp41</property>
  <property name="kdenlive:original.meta.attr.encoder.markup">Lavf60.3.100</property>
  <property name="kdenlive:original.meta.attr.comment.markup">Rendered with Manim Community v0.17.2</property>
  <property name="kdenlive:original.seekable">1</property>
  <property name="kdenlive:original.width">3840</property>
  <property name="kdenlive:original.height">2160</property>
  <property name="kdenlive:original.meta.media.sample_aspect_num">1</property>
  <property name="kdenlive:original.meta.media.sample_aspect_den">1</property>
  <property name="kdenlive:original.aspect_ratio">1</property>
  <property name="kdenlive:original.format">3</property>
  <property name="kdenlive:original.audio_index">-1</property>
  <property name="kdenlive:original.video_index">0</property>
  <property name="kdenlive:original.mute_on_pause">0</property>
  <property name="kdenlive:original.mlt_service">avformat-novalidate</property>
  <property name="kdenlive:original.meta.media.frame_rate_num">60</property>
  <property name="kdenlive:original.meta.media.frame_rate_den">1</property>
  <property name="kdenlive:original.meta.media.colorspace">709</property>
  <property name="kdenlive:original.meta.media.color_trc">2</property>
  <property name="kdenlive:original.meta.media.has_b_frames">2</property>
  <property name="kdenlive:original.meta.media.width">3840</property>
  <property name="kdenlive:original.meta.media.height">2160</property>
  <property name="kdenlive:original.meta.media.color_range">mpeg</property>
  <property name="kdenlive:original.meta.media.top_field_first">0</property>
  <property name="kdenlive:original.meta.media.progressive">1</property>
  <property name="kdenlive:original.kdenlive:clip_type">2</property>
  <property name="kdenlive:original.kdenlive:folderid">344</property>
  <property name="kdenlive:original.kdenlive:id">378</property>
  <property name="kdenlive:original.kdenlive:file_size">75479</property>
  <property name="kdenlive:original.kdenlive:file_hash">fbfb1bcf34ea9a8b145afa03e351ac03</property>
  <property name="kdenlive:original.backup">1</property>
  <property name="meta.media.frame_rate_num">60</property>
  <property name="meta.media.frame_rate_den">1</property>
  <property name="meta.media.colorspace">601</property>
  <property name="meta.media.color_trc">2</property>
  <property name="meta.media.has_b_frames">0</property>
  <property name="meta.media.width">640</property>
  <property name="meta.media.height">360</property>
  <property name="meta.media.color_range">full</property>
  <property name="meta.media.top_field_first">0</property>
  <property name="meta.media.progressive">1</property>
 </producer>
 <producer id="producer507" in="00:00:00.000" out="00:00:00.983">
  <property name="length">60</property>
  <property name="eof">pause</property>
  <property name="resource">/home/xiaoxiae/.cache/kdenlive/proxy/05c9fce9d7c84c0d336cf1bb0ccc16ce.mkv</property>
  <property name="meta.media.nb_streams">1</property>
  <property name="meta.media.0.stream.type">video</property>
  <property name="meta.media.0.stream.frame_rate">60</property>
  <property name="meta.media.0.stream.sample_aspect_ratio">0</property>
  <property name="meta.media.0.codec.width">640</property>
  <property name="meta.media.0.codec.height">360</property>
  <property name="meta.media.0.codec.rotate">0</property>
  <property name="meta.media.0.codec.pix_fmt">yuvj420p</property>
  <property name="meta.media.0.codec.sample_aspect_ratio">0</property>
  <property name="meta.media.0.codec.colorspace">601</property>
  <property name="meta.media.0.codec.name">mjpeg</property>
  <property name="meta.media.0.codec.long_name">MJPEG (Motion JPEG)</property>
  <property name="meta.media.0.codec.bit_rate">0</property>
  <property name="meta.attr.0.stream.HANDLER_NAME.markup">VideoHandler</property>
  <property name="meta.attr.0.stream.VENDOR_ID.markup">[0][0][0][0]</property>
  <property name="meta.attr.0.stream.ENCODER.markup">Lavc60.3.100 mjpeg</property>
  <property name="meta.attr.0.stream.DURATION.markup">00:00:01.000000000</property>
  <property name="meta.attr.COMMENT.markup">Rendered with Manim Community v0.17.2</property>
  <property name="meta.attr.MAJOR_BRAND.markup">isom</property>
  <property name="meta.attr.MINOR_VERSION.markup">512</property>
  <property name="meta.attr.COMPATIBLE_BRANDS.markup">isomiso2avc1mp41</property>
  <property name="meta.attr.ENCODER.markup">Lavf60.3.100</property>
  <property name="seekable">1</property>
  <property name="meta.media.sample_aspect_num">1</property>
  <property name="meta.media.sample_aspect_den">1</property>
  <property name="aspect_ratio">1</property>
  <property name="format">3</property>
  <property name="audio_index">-1</property>
  <property name="video_index">0</property>
  <property name="mute_on_pause">0</property>
  <property name="mlt_service">avformat-novalidate</property>
  <property name="kdenlive:clipname">1.mp4</property>
  <property name="kdenlive:clip_type">2</property>
  <property name="kdenlive:folderid">379</property>
  <property name="kdenlive:id">377</property>
  <property name="kdenlive:file_size">18722</property>
  <property name="kdenlive:file_hash">05c9fce9d7c84c0d336cf1bb0ccc16ce</property>
  <property name="kdenlive:proxy">/home/xiaoxiae/.cache/kdenlive/proxy/05c9fce9d7c84c0d336cf1bb0ccc16ce.mkv</property>
  <property name="kdenlive:originalurl">video/Benchmark/1.mp4</property>
  <property name="kdenlive:original.mlt_type">producer</property>
  <property name="kdenlive:original.in">0</property>
  <property name="kdenlive:original.out">59</property>
  <property name="kdenlive:original.length">60</property>
  <property name="kdenlive:original.eof">pause</property>
  <property name="kdenlive:original.resource">video/Benchmark/1.mp4</property>
  <property name="kdenlive:original.meta.media.nb_streams">1</property>
  <property name="kdenlive:original.meta.media.0.stream.type">video</property>
  <property name="kdenlive:original.meta.media.0.stream.frame_rate">60</property>
  <property name="kdenlive:original.meta.media.0.stream.sample_aspect_ratio">0</property>
  <property name="kdenlive:original.meta.media.0.codec.width">3840</property>
  <property name="kdenlive:original.meta.media.0.codec.height">2160</property>
  <property name="kdenlive:original.meta.media.0.codec.rotate">0</property>
  <property name="kdenlive:original.meta.media.0.codec.pix_fmt">yuv420p</property>
  <property name="kdenlive:original.meta.media.0.codec.sample_aspect_ratio">0</property>
  <property name="kdenlive:original.meta.media.0.codec.colorspace">709</property>
  <property name="kdenlive:original.meta.media.0.codec.name">h264</property>
  <property name="kdenlive:original.meta.media.0.codec.long_name">H.264 / AVC / MPEG-4 AVC / MPEG-4 part 10</property>
  <property name="kdenlive:original.meta.media.0.codec.bit_rate">136728</property>
  <property name="kdenlive:original.meta.attr.0.stream.handler_name.markup">VideoHandler</property>
  <property name="kdenlive:original.meta.attr.0.stream.vendor_id.markup">[0][0][0][0]</property>
  <property name="kdenlive:original.meta.attr.0.stream.encoder.markup">Lavc60.3.100 libx264</property>
  <property name="kdenlive:original.meta.attr.major_brand.markup">isom</property>
  <property name="kdenlive:original.meta.attr.minor_version.markup">512</property>
  <property name="kdenlive:original.meta.attr.compatible_brands.markup">isomiso2avc1mp41</property>
  <property name="kdenlive:original.meta.attr.encoder.markup">Lavf60.3.100</property>
  <property name="kdenlive:original.meta.attr.comment.markup">Rendered with Manim Community v0.17.2</property>
  <property name="kdenlive:original.seekable">1</property>
  <property name="kdenlive:original.width">3840</property>
  <property name="kdenlive:original.height">2160</property>
  <property name="kdenlive:original.meta.media.sample_aspect_num">1</property>
  <property name="kdenlive:original.meta.media.sample_aspect_den">1</property>
  <property name="kdenlive:original.aspect_ratio">1</property>
  <property name="kdenlive:original.format">3</property>
  <property name="kdenlive:original.audio_index">-1</property>
  <property name="kdenlive:original.video_index">0</property>
  <property name="kdenlive:original.mute_on_pause">0</property>
  <property name="kdenlive:original.mlt_service">avformat</property>
  <property name="kdenlive:original.kdenlive:clip_type">2</property>
  <property name="kdenlive:original.kdenlive:folderid">379</property>
  <property name="kdenlive:original.kdenlive:id">380</property>
  <property name="kdenlive:original.kdenlive:file_size">18722</property>
  <property name="kdenlive:original.kdenlive:file_hash">05c9fce9d7c84c0d336cf1bb0ccc16ce</property>
  <property name="kdenlive:original.meta.media.frame_rate_num">60</property>
  <property name="kdenlive:original.meta.media.frame_rate_den">1</property>
  <property name="kdenlive:original.meta.media.colorspace">709</property>
  <property name="kdenlive:original.meta.media.color_trc">2</property>
  <property name="kdenlive:original.meta.media.has_b_frames">2</property>
  <property name="kdenlive:original.meta.media.width">3840</property>
  <property name="kdenlive:original.meta.media.height">2160</property>
  <property name="kdenlive:original.meta.media.color_range">mpeg</property>
  <property name="kdenlive:original.meta.media.top_field_first">0</property>
  <property name="kdenlive:original.meta.media.progressive">1</property>
  <property name="kdenlive:original.backup">1</property>
  <property name="meta.media.frame_rate_num">60</property>
  <property name="meta.media.frame_rate_den">1</property>
  <property name="meta.media.colorspace">601</property>
  <property name="meta.media.color_trc">2</property>
  <property name="meta.media.has_b_frames">0</property>
  <property name="meta.media.width">640</property>
  <property name="meta.media.height">360</property>
  <property name="meta.media.color_range">full</property>
  <property name="meta.media.top_field_first">0</property>
  <property name="meta.media.progressive">1</property>
 </producer>
 <producer id="producer508" in="00:00:00.000" out="00:00:00.983">
  <property name="length">60</property>
  <property name="eof">pause</property>
  <property name="resource">/home/xiaoxiae/.cache/kdenlive/proxy/51b3ff52ec6a51fc9eccb7ebff1bccdd.mkv</property>
  <property name="meta.media.nb_streams">1</property>
  <property name="meta.media.0.stream.type">video</property>
  <property name="meta.media.0.stream.frame_rate">60</property>
  <property name="meta.media.0.stream.sample_aspect_ratio">0</property>
  <property name="meta.media.0.codec.width">640</property>
  <property name="meta.media.0.codec.height">360</property>
  <property name="meta.media.0.codec.rotate">0</property>
  <property name="meta.media.0.codec.pix_fmt">yuvj420p</property>
  <property name="meta.media.0.codec.sample_aspect_ratio">0</property>
  <property name="meta.media.0.codec.colorspace">601</property>
  <property name="meta.media.0.codec.name">mjpeg</property>
  <property name="meta.media.0.codec.long_name">MJPEG (Motion JPEG)</property>
  <property name="meta.media.0.codec.bit_rate">0</property>
  <property name="meta.attr.0.stream.HANDLER_NAME.markup">VideoHandler</property>
  <property name="meta.attr.0.stream.VENDOR_ID.markup">[0][0][0][0]</property>
  <property name="meta.attr.0.stream.ENCODER.markup">Lavc60.3.100 mjpeg</property>
  <property name="meta.attr.0.stream.DURATION.markup">00:00:01.000000000</property>
  <property name="meta.attr.COMMENT.markup">Rendered with Manim Community v0.17.2</property>
  <property name="meta.attr.MAJOR_BRAND.markup">isom</property>
  <property name="meta.attr.MINOR_VERSION.markup">512</property>
  <property name="meta.attr.COMPATIBLE_BRANDS.markup">isomiso2avc1mp41</property>
  <property name="meta.attr.ENCODER.markup">Lavf60.3.100</property>
  <property name="seekable">1</property>
  <property name="meta.media.sample_aspect_num">1</property>
  <property name="meta.media.sample_aspect_den">1</property>
  <property name="aspect_ratio">1</property>
  <property name="format">3</property>
  <property name="audio_index">-1</property>
  <property name="video_index">0</property>
  <property name="mute_on_pause">0</property>
  <property name="mlt_service">avformat-novalidate</property>
  <property name="kdenlive:clipname">2.mp4</property>
  <property name="kdenlive:clip_type">2</property>
  <property name="kdenlive:folderid">379</property>
  <property name="kdenlive:id">378</property>
  <property name="kdenlive:file_size">18811</property>
  <property name="kdenlive:file_hash">51b3ff52ec6a51fc9eccb7ebff1bccdd</property>
  <property name="kdenlive:proxy">/home/xiaoxiae/.cache/kdenlive/proxy/51b3ff52ec6a51fc9eccb7ebff1bccdd.mkv</property>
  <property name="kdenlive:originalurl">video/Benchmark/2.mp4</property>
  <property name="kdenlive:original.mlt_type">producer</property>
  <property name="kdenlive:original.in">0</property>
  <property name="kdenlive:original.out">59</property>
  <property name="kdenlive:original.length">60</property>
  <property name="kdenlive:original.eof">pause</property>
  <property name="kdenlive:original.resource">video/Benchmark/2.mp4</property>
  <property name="kdenlive:original.meta.media.nb_streams">1</property>
  <property name="kdenlive:original.meta.media.0.stream.type">video</property>
  <property name="kdenlive:original.meta.media.0.stream.frame_rate">60</property>
  <property name="kdenlive:original.meta.media.0.stream.sample_aspect_ratio">0</property>
  <property name="kdenlive:original.meta.media.0.codec.width">3840</property>
  <property name="kdenlive:original.meta.media.0.codec.height">2160</property>
  <property name="kdenlive:original.meta.media.0.codec.rotate">0</property>
  <property name="kdenlive:original.meta.media.0.codec.pix_fmt">yuv420p</property>
  <property name="kdenlive:original.meta.media.0.codec.sample_aspect_ratio">0</property>
  <property name="kdenlive:original.meta.media.0.codec.colorspace">709</property>
  <property name="kdenlive:original.meta.media.0.codec.name">h264</property>
  <property name="kdenlive:original.meta.media.0.codec.long_name">H.264 / AVC / MPEG-4 AVC / MPEG-4 part 10</property>
  <property name="kdenlive:original.meta.media.0.codec.bit_rate">137440</property>
  <property name="kdenlive:original.meta.attr.0.stream.handler_name.markup">VideoHandler</property>
  <property name="kdenlive:original.meta.attr.0.stream.vendor_id.markup">[0][0][0][0]</property>
  <property name="kdenlive:original.meta.attr.0.stream.encoder.markup">Lavc60.3.100 libx264</property>
  <property name="kdenlive:original.meta.attr.major_brand.markup">isom</property>
  <property name="kdenlive:original.meta.attr.minor_version.markup">512</property>
  <property name="kdenlive:original.meta.attr.compatible_brands.markup">isomiso2avc1mp41</property>
  <property name="kdenlive:original.meta.attr.encoder.markup">Lavf60.3.100</property>
  <property name="kdenlive:original.meta.attr.comment.markup">Rendered with Manim Community v0.17.2</property>
  <property name="kdenlive:original.seekable">1</property>
  <property name="kdenlive:original.width">3840</property>
  <property name="kdenlive:original.height">2160</property>
  <property name="kdenlive:original.meta.media.sample_aspect_num">1</property>
  <property name="kdenlive:original.meta.media.sample_aspect_den">1</property>
  <property name="kdenlive:original.aspect_ratio">1</property>
  <property name="kdenlive:original.format">3</property>
  <property name="kdenlive:original.audio_index">-1</property>
  <property name="kdenlive:original.video_index">0</property>
  <property name="kdenlive:original.mute_on_pause">0</property>
  <property name="kdenlive:original.mlt_service">avformat</property>
  <property name="kdenlive:original.kdenlive:clip_type">2</property>
  <property name="kdenlive:original.kdenlive:folderid">379</property>
  <property name="kdenlive:original.kdenlive:id">381</property>
  <property name="kdenlive:original.kdenlive:file_size">18811</property>
  <property name="kdenlive:original.kdenlive:file_hash">51b3ff52ec6a51fc9eccb7ebff1bccdd</property>
  <property name="kdenlive:original.meta.media.frame_rate_num">60</property>
  <property name="kdenlive:original.meta.media.frame_rate_den">1</property>
  <property name="kdenlive:original.meta.media.colorspace">709</property>
  <property name="kdenlive:original.meta.media.color_trc">2</property>
  <property name="kdenlive:original.meta.media.has_b_frames">2</property>
  <property name="kdenlive:original.meta.media.width">3840</property>
  <property name="kdenlive:original.meta.media.height">2160</property>
  <property name="kdenlive:original.meta.media.color_range">mpeg</property>
  <property name="kdenlive:original.meta.media.top_field_first">0</property>
  <property name="kdenlive:original.meta.media.progressive">1</property>
  <property name="kdenlive:original.backup">1</property>
  <property name="meta.media.frame_rate_num">60</property>
  <property name="meta.media.frame_rate_den">1</property>
  <property name="meta.media.colorspace">601</property>
  <property name="meta.media.color_trc">2</property>
  <property name="meta.media.has_b_frames">0</property>
  <property name="meta.media.width">640</property>
  <property name="meta.media.height">360</property>
  <property name="meta.media.color_range">full</property>
  <property name="meta.media.top_field_first">0</property>
  <property name="meta.media.progressive">1</property>
 </producer>
 <producer id="producer302" in="00:00:00.000" out="00:00:00.983">
  <property name="length">60</property>
  <property name="eof">pause</property>
  <property name="resource">/home/xiaoxiae/.cache/kdenlive/proxy/d9d6c29bcd8b48b09c360d2466c21e7f.mkv</property>
  <property name="meta.media.nb_streams">1</property>
  <property name="meta.media.0.stream.type">video</property>
  <property name="meta.media.0.stream.frame_rate">60</property>
  <property name="meta.media.0.stream.sample_aspect_ratio">0</property>
  <property name="meta.media.0.codec.width">640</property>
  <property name="meta.media.0.codec.height">360</property>
  <property name="meta.media.0.codec.rotate">0</property>
  <property name="meta.media.0.codec.pix_fmt">yuvj420p</property>
  <property name="meta.media.0.codec.sample_aspect_ratio">0</property>
  <property name="meta.media.0.codec.colorspace">601</property>
  <property name="meta.media.0.codec.name">mjpeg</property>
  <property name="meta.media.0.codec.long_name">MJPEG (Motion JPEG)</property>
  <property name="meta.media.0.codec.bit_rate">0</property>
  <property name="meta.attr.0.stream.HANDLER_NAME.markup">VideoHandler</property>
  <property name="meta.attr.0.stream.VENDOR_ID.markup">[0][0][0][0]</property>
  <property name="meta.attr.0.stream.ENCODER.markup">Lavc60.3.100 mjpeg</property>
  <property name="meta.attr.0.stream.DURATION.markup">00:00:01.000000000</property>
  <property name="meta.attr.COMMENT.markup">Rendered with Manim Community v0.17.2</property>
  <property name="meta.attr.MAJOR_BRAND.markup">isom</property>
  <property name="meta.attr.MINOR_VERSION.markup">512</property>
  <property name="meta.attr.COMPATIBLE_BRANDS.markup">isomiso2avc1mp41</property>
  <property name="meta.attr.ENCODER.markup">Lavf60.3.100</property>
  <property name="seekable">1</property>
  <property name="meta.media.sample_aspect_num">1</property>
  <property name="meta.media.sample_aspect_den">1</property>
  <property name="aspect_ratio">1</property>
  <property name="format">3</property>
  <property name="audio_index">-1</property>
  <property name="video_index">0</property>
  <property name="mute_on_pause">0</property>
  <property name="mlt_service">avformat-novalidate</property>
  <property name="kdenlive:clipname">1.mp4</property>
  <property name="kdenlive:clip_type">2</property>
  <property name="kdenlive:folderid">488</property>
  <property name="kdenlive:id">380</property>
  <property name="kdenlive:file_size">171404</property>
  <property name="kdenlive:file_hash">d9d6c29bcd8b48b09c360d2466c21e7f</property>
  <property name="kdenlive:proxy">/home/xiaoxiae/.cache/kdenlive/proxy/d9d6c29bcd8b48b09c360d2466c21e7f.mkv</property>
  <property name="kdenlive:originalurl">video/Insertion/1.mp4</property>
  <property name="kdenlive:original.mlt_type">producer</property>
  <property name="kdenlive:original.in">00:00:00.000</property>
  <property name="kdenlive:original.out">00:00:00.983</property>
  <property name="kdenlive:original.length">60</property>
  <property name="kdenlive:original.eof">pause</property>
  <property name="kdenlive:original.resource">video/Insertion/1.mp4</property>
  <property name="kdenlive:original.meta.media.nb_streams">1</property>
  <property name="kdenlive:original.meta.media.0.stream.type">video</property>
  <property name="kdenlive:original.meta.media.0.stream.frame_rate">60</property>
  <property name="kdenlive:original.meta.media.0.stream.sample_aspect_ratio">0</property>
  <property name="kdenlive:original.meta.media.0.codec.width">3840</property>
  <property name="kdenlive:original.meta.media.0.codec.height">2160</property>
  <property name="kdenlive:original.meta.media.0.codec.rotate">0</property>
  <property name="kdenlive:original.meta.media.0.codec.pix_fmt">yuv420p</property>
  <property name="kdenlive:original.meta.media.0.codec.sample_aspect_ratio">0</property>
  <property name="kdenlive:original.meta.media.0.codec.colorspace">709</property>
  <property name="kdenlive:original.meta.media.0.codec.name">h264</property>
  <property name="kdenlive:original.meta.media.0.codec.long_name">H.264 / AVC / MPEG-4 AVC / MPEG-4 part 10</property>
  <property name="kdenlive:original.meta.media.0.codec.bit_rate">1359208</property>
  <property name="kdenlive:original.meta.attr.0.stream.handler_name.markup">VideoHandler</property>
  <property name="kdenlive:original.meta.attr.0.stream.vendor_id.markup">[0][0][0][0]</property>
  <property name="kdenlive:original.meta.attr.0.stream.encoder.markup">Lavc60.3.100 libx264</property>
  <property name="kdenlive:original.meta.attr.major_brand.markup">isom</property>
  <property name="kdenlive:original.meta.attr.minor_version.markup">512</property>
  <property name="kdenlive:original.meta.attr.compatible_brands.markup">isomiso2avc1mp41</property>
  <property name="kdenlive:original.meta.attr.encoder.markup">Lavf60.3.100</property>
  <property name="kdenlive:original.meta.attr.comment.markup">Rendered with Manim Community v0.17.2</property>
  <property name="kdenlive:original.seekable">1</property>
  <property name="kdenlive:original.width">3840</property>
  <property name="kdenlive:original.height">2160</property>
  <property name="kdenlive:original.meta.media.sample_aspect_num">1</property>
  <property name="kdenlive:original.meta.media.sample_aspect_den">1</property>
  <property name="kdenlive:original.aspect_ratio">1</property>
  <property name="kdenlive:original.format">3</property>
  <property name="kdenlive:original.audio_index">-1</property>
  <property name="kdenlive:original.video_index">0</property>
  <property name="kdenlive:original.mute_on_pause">0</property>
  <property name="kdenlive:original.mlt_service">avformat-novalidate</property>
  <property name="kdenlive:original.meta.media.frame_rate_num">60</property>
  <property name="kdenlive:original.meta.media.frame_rate_den">1</property>
  <property name="kdenlive:original.meta.media.colorspace">709</property>
  <property name="kdenlive:original.meta.media.color_trc">2</property>
  <property name="kdenlive:original.meta.media.has_b_frames">2</property>
  <property name="kdenlive:original.meta.media.width">3840</property>
  <property name="kdenlive:original.meta.media.height">2160</property>
  <property name="kdenlive:original.meta.media.color_range">mpeg</property>
  <property name="kdenlive:original.meta.media.top_field_first">0</property>
  <property name="kdenlive:original.meta.media.progressive">1</property>
  <property name="kdenlive:original.kdenlive:clip_type">2</property>
  <property name="kdenlive:original.kdenlive:folderid">488</property>
  <property name="kdenlive:original.kdenlive:id">489</property>
  <property name="kdenlive:original.kdenlive:file_size">171404</property>
  <property name="kdenlive:original.kdenlive:file_hash">d9d6c29bcd8b48b09c360d2466c21e7f</property>
  <property name="kdenlive:original.backup">1</property>
  <property name="meta.media.frame_rate_num">60</property>
  <property name="meta.media.frame_rate_den">1</property>
  <property name="meta.media.colorspace">601</property>
  <property name="meta.media.color_trc">2</property>
  <property name="meta.media.has_b_frames">0</property>
  <property name="meta.media.width">640</property>
  <property name="meta.media.height">360</property>
  <property name="meta.media.color_range">full</property>
  <property name="meta.media.top_field_first">0</property>
  <property name="meta.media.progressive">1</property>
 </producer>
 <producer id="producer303" in="00:00:00.000" out="00:00:00.183">
  <property name="length">12</property>
  <property name="eof">pause</property>
  <property name="resource">/home/xiaoxiae/.cache/kdenlive/proxy/e7b5a642957cd159892c0e7e428fd6fe.mkv</property>
  <property name="meta.media.nb_streams">1</property>
  <property name="meta.media.0.stream.type">video</property>
  <property name="meta.media.0.stream.frame_rate">60</property>
  <property name="meta.media.0.stream.sample_aspect_ratio">0</property>
  <property name="meta.media.0.codec.width">640</property>
  <property name="meta.media.0.codec.height">360</property>
  <property name="meta.media.0.codec.rotate">0</property>
  <property name="meta.media.0.codec.pix_fmt">yuvj420p</property>
  <property name="meta.media.0.codec.sample_aspect_ratio">0</property>
  <property name="meta.media.0.codec.colorspace">601</property>
  <property name="meta.media.0.codec.name">mjpeg</property>
  <property name="meta.media.0.codec.long_name">MJPEG (Motion JPEG)</property>
  <property name="meta.media.0.codec.bit_rate">0</property>
  <property name="meta.attr.0.stream.HANDLER_NAME.markup">VideoHandler</property>
  <property name="meta.attr.0.stream.VENDOR_ID.markup">[0][0][0][0]</property>
  <property name="meta.attr.0.stream.ENCODER.markup">Lavc60.3.100 mjpeg</property>
  <property name="meta.attr.0.stream.DURATION.markup">00:00:00.200000000</property>
  <property name="meta.attr.COMMENT.markup">Rendered with Manim Community v0.17.2</property>
  <property name="meta.attr.MAJOR_BRAND.markup">isom</property>
  <property name="meta.attr.MINOR_VERSION.markup">512</property>
  <property name="meta.attr.COMPATIBLE_BRANDS.markup">isomiso2avc1mp41</property>
  <property name="meta.attr.ENCODER.markup">Lavf60.3.100</property>
  <property name="seekable">1</property>
  <property name="meta.media.sample_aspect_num">1</property>
  <property name="meta.media.sample_aspect_den">1</property>
  <property name="aspect_ratio">1</property>
  <property name="format">3</property>
  <property name="audio_index">-1</property>
  <property name="video_index">0</property>
  <property name="mute_on_pause">0</property>
  <property name="mlt_service">avformat-novalidate</property>
  <property name="kdenlive:clipname">10.mp4</property>
  <property name="kdenlive:clip_type">2</property>
  <property name="kdenlive:folderid">488</property>
  <property name="kdenlive:id">381</property>
  <property name="kdenlive:file_size">36672</property>
  <property name="kdenlive:file_hash">e7b5a642957cd159892c0e7e428fd6fe</property>
  <property name="kdenlive:proxy">/home/xiaoxiae/.cache/kdenlive/proxy/e7b5a642957cd159892c0e7e428fd6fe.mkv</property>
  <property name="kdenlive:originalurl">video/Insertion/10.mp4</property>
  <property name="kdenlive:original.mlt_type">producer</property>
  <property name="kdenlive:original.in">00:00:00.000</property>
  <property name="kdenlive:original.out">00:00:00.183</property>
  <property name="kdenlive:original.length">12</property>
  <property name="kdenlive:original.eof">pause</property>
  <property name="kdenlive:original.resource">video/Insertion/10.mp4</property>
  <property name="kdenlive:original.meta.media.nb_streams">1</property>
  <property name="kdenlive:original.meta.media.0.stream.type">video</property>
  <property name="kdenlive:original.meta.media.0.stream.frame_rate">60</property>
  <property name="kdenlive:original.meta.media.0.stream.sample_aspect_ratio">0</property>
  <property name="kdenlive:original.meta.media.0.codec.width">3840</property>
  <property name="kdenlive:original.meta.media.0.codec.height">2160</property>
  <property name="kdenlive:original.meta.media.0.codec.rotate">0</property>
  <property name="kdenlive:original.meta.media.0.codec.pix_fmt">yuv420p</property>
  <property name="kdenlive:original.meta.media.0.codec.sample_aspect_ratio">0</property>
  <property name="kdenlive:original.meta.media.0.codec.colorspace">709</property>
  <property name="kdenlive:original.meta.media.0.codec.name">h264</property>
  <property name="kdenlive:original.meta.media.0.codec.long_name">H.264 / AVC / MPEG-4 AVC / MPEG-4 part 10</property>
  <property name="kdenlive:original.meta.media.0.codec.bit_rate">1424680</property>
  <property name="kdenlive:original.meta.attr.0.stream.handler_name.markup">VideoHandler</property>
  <property name="kdenlive:original.meta.attr.0.stream.vendor_id.markup">[0][0][0][0]</property>
  <property name="kdenlive:original.meta.attr.0.stream.encoder.markup">Lavc60.3.100 libx264</property>
  <property name="kdenlive:original.meta.attr.major_brand.markup">isom</property>
  <property name="kdenlive:original.meta.attr.minor_version.markup">512</property>
  <property name="kdenlive:original.meta.attr.compatible_brands.markup">isomiso2avc1mp41</property>
  <property name="kdenlive:original.meta.attr.encoder.markup">Lavf60.3.100</property>
  <property name="kdenlive:original.meta.attr.comment.markup">Rendered with Manim Community v0.17.2</property>
  <property name="kdenlive:original.seekable">1</property>
  <property name="kdenlive:original.width">3840</property>
  <property name="kdenlive:original.height">2160</property>
  <property name="kdenlive:original.meta.media.sample_aspect_num">1</property>
  <property name="kdenlive:original.meta.media.sample_aspect_den">1</property>
  <property name="kdenlive:original.aspect_ratio">1</property>
  <property name="kdenlive:original.format">3</property>
  <property name="kdenlive:original.audio_index">-1</property>
  <property name="kdenlive:original.video_index">0</property>
  <property name="kdenlive:original.mute_on_pause">0</property>
  <property name="kdenlive:original.mlt_service">avformat-novalidate</property>
  <property name="kdenlive:original.meta.media.frame_rate_num">60</property>
  <property name="kdenlive:original.meta.media.frame_rate_den">1</property>
  <property name="kdenlive:original.meta.media.colorspace">709</property>
  <property name="kdenlive:original.meta.media.color_trc">2</property>
  <property name="kdenlive:original.meta.media.has_b_frames">2</property>
  <property name="kdenlive:original.meta.media.width">3840</property>
  <property name="kdenlive:original.meta.media.height">2160</property>
  <property name="kdenlive:original.meta.media.color_range">mpeg</property>
  <property name="kdenlive:original.meta.media.top_field_first">0</property>
  <property name="kdenlive:original.meta.media.progressive">1</property>
  <property name="kdenlive:original.kdenlive:clip_type">2</property>
  <property name="kdenlive:original.kdenlive:folderid">488</property>
  <property name="kdenlive:original.kdenlive:id">490</property>
  <property name="kdenlive:original.kdenlive:file_size">36672</property>
  <property name="kdenlive:original.kdenlive:file_hash">e7b5a642957cd159892c0e7e428fd6fe</property>
  <property name="kdenlive:original.backup">1</property>
  <property name="meta.media.frame_rate_num">60</property>
  <property name="meta.media.frame_rate_den">1</property>
  <property name="meta.media.colorspace">601</property>
  <property name="meta.media.color_trc">2</property>
  <property name="meta.media.has_b_frames">0</property>
  <property name="meta.media.width">640</property>
  <property name="meta.media.height">360</property>
  <property name="meta.media.color_range">full</property>
  <property name="meta.media.top_field_first">0</property>
  <property name="meta.media.progressive">1</property>
 </producer>
 <producer id="producer304" in="00:00:00.000" out="00:00:00.183">
  <property name="length">12</property>
  <property name="eof">pause</property>
  <property name="resource">/home/xiaoxiae/.cache/kdenlive/proxy/b7c80d8b199b11be04ae88513e32a337.mkv</property>
  <property name="meta.media.nb_streams">1</property>
  <property name="meta.media.0.stream.type">video</property>
  <property name="meta.media.0.stream.frame_rate">60</property>
  <property name="meta.media.0.stream.sample_aspect_ratio">0</property>
  <property name="meta.media.0.codec.width">640</property>
  <property name="meta.media.0.codec.height">360</property>
  <property name="meta.media.0.codec.rotate">0</property>
  <property name="meta.media.0.codec.pix_fmt">yuvj420p</property>
  <property name="meta.media.0.codec.sample_aspect_ratio">0</property>
  <property name="meta.media.0.codec.colorspace">601</property>
  <property name="meta.media.0.codec.name">mjpeg</property>
  <property name="meta.media.0.codec.long_name">MJPEG (Motion JPEG)</property>
  <property name="meta.media.0.codec.bit_rate">0</property>
  <property name="meta.attr.0.stream.HANDLER_NAME.markup">VideoHandler</property>
  <property name="meta.attr.0.stream.VENDOR_ID.markup">[0][0][0][0]</property>
  <property name="meta.attr.0.stream.ENCODER.markup">Lavc60.3.100 mjpeg</property>
  <property name="meta.attr.0.stream.DURATION.markup">00:00:00.200000000</property>
  <property name="meta.attr.COMMENT.markup">Rendered with Manim Community v0.17.2</property>
  <property name="meta.attr.MAJOR_BRAND.markup">isom</property>
  <property name="meta.attr.MINOR_VERSION.markup">512</property>
  <property name="meta.attr.COMPATIBLE_BRANDS.markup">isomiso2avc1mp41</property>
  <property name="meta.attr.ENCODER.markup">Lavf60.3.100</property>
  <property name="seekable">1</property>
  <property name="meta.media.sample_aspect_num">1</property>
  <property name="meta.media.sample_aspect_den">1</property>
  <property name="aspect_ratio">1</property>
  <property name="format">3</property>
  <property name="audio_index">-1</property>
  <property name="video_index">0</property>
  <property name="mute_on_pause">0</property>
  <property name="mlt_service">avformat-novalidate</property>
  <property name="kdenlive:clipname">11.mp4</property>
  <property name="kdenlive:clip_type">2</property>
  <property name="kdenlive:folderid">488</property>
  <property name="kdenlive:id">382</property>
  <property name="kdenlive:file_size">38839</property>
  <property name="kdenlive:file_hash">b7c80d8b199b11be04ae88513e32a337</property>
  <property name="kdenlive:proxy">/home/xiaoxiae/.cache/kdenlive/proxy/b7c80d8b199b11be04ae88513e32a337.mkv</property>
  <property name="kdenlive:originalurl">video/Insertion/11.mp4</property>
  <property name="kdenlive:original.mlt_type">producer</property>
  <property name="kdenlive:original.in">00:00:00.000</property>
  <property name="kdenlive:original.out">00:00:00.183</property>
  <property name="kdenlive:original.length">12</property>
  <property name="kdenlive:original.eof">pause</property>
  <property name="kdenlive:original.resource">video/Insertion/11.mp4</property>
  <property name="kdenlive:original.meta.media.nb_streams">1</property>
  <property name="kdenlive:original.meta.media.0.stream.type">video</property>
  <property name="kdenlive:original.meta.media.0.stream.frame_rate">60</property>
  <property name="kdenlive:original.meta.media.0.stream.sample_aspect_ratio">0</property>
  <property name="kdenlive:original.meta.media.0.codec.width">3840</property>
  <property name="kdenlive:original.meta.media.0.codec.height">2160</property>
  <property name="kdenlive:original.meta.media.0.codec.rotate">0</property>
  <property name="kdenlive:original.meta.media.0.codec.pix_fmt">yuv420p</property>
  <property name="kdenlive:original.meta.media.0.codec.sample_aspect_ratio">0</property>
  <property name="kdenlive:original.meta.media.0.codec.colorspace">709</property>
  <property name="kdenlive:original.meta.media.0.codec.name">h264</property>
  <property name="kdenlive:original.meta.media.0.codec.long_name">H.264 / AVC / MPEG-4 AVC / MPEG-4 part 10</property>
  <property name="kdenlive:original.meta.media.0.codec.bit_rate">1513600</property>
  <property name="kdenlive:original.meta.attr.0.stream.handler_name.markup">VideoHandler</property>
  <property name="kdenlive:original.meta.attr.0.stream.vendor_id.markup">[0][0][0][0]</property>
  <property name="kdenlive:original.meta.attr.0.stream.encoder.markup">Lavc60.3.100 libx264</property>
  <property name="kdenlive:original.meta.attr.major_brand.markup">isom</property>
  <property name="kdenlive:original.meta.attr.minor_version.markup">512</property>
  <property name="kdenlive:original.meta.attr.compatible_brands.markup">isomiso2avc1mp41</property>
  <property name="kdenlive:original.meta.attr.encoder.markup">Lavf60.3.100</property>
  <property name="kdenlive:original.meta.attr.comment.markup">Rendered with Manim Community v0.17.2</property>
  <property name="kdenlive:original.seekable">1</property>
  <property name="kdenlive:original.width">3840</property>
  <property name="kdenlive:original.height">2160</property>
  <property name="kdenlive:original.meta.media.sample_aspect_num">1</property>
  <property name="kdenlive:original.meta.media.sample_aspect_den">1</property>
  <property name="kdenlive:original.aspect_ratio">1</property>
  <property name="kdenlive:original.format">3</property>
  <property name="kdenlive:original.audio_index">-1</property>
  <property name="kdenlive:original.video_index">0</property>
  <property name="kdenlive:original.mute_on_pause">0</property>
  <property name="kdenlive:original.mlt_service">avformat-novalidate</property>
  <property name="kdenlive:original.meta.media.frame_rate_num">60</property>
  <property name="kdenlive:original.meta.media.frame_rate_den">1</property>
  <property name="kdenlive:original.meta.media.colorspace">709</property>
  <property name="kdenlive:original.meta.media.color_trc">2</property>
  <property name="kdenlive:original.meta.media.has_b_frames">2</property>
  <property name="kdenlive:original.meta.media.width">3840</property>
  <property name="kdenlive:original.meta.media.height">2160</property>
  <property name="kdenlive:original.meta.media.color_range">mpeg</property>
  <property name="kdenlive:original.meta.media.top_field_first">0</property>
  <property name="kdenlive:original.meta.media.progressive">1</property>
  <property name="kdenlive:original.kdenlive:clip_type">2</property>
  <property name="kdenlive:original.kdenlive:folderid">488</property>
  <property name="kdenlive:original.kdenlive:id">491</property>
  <property name="kdenlive:original.kdenlive:file_size">38839</property>
  <property name="kdenlive:original.kdenlive:file_hash">b7c80d8b199b11be04ae88513e32a337</property>
  <property name="kdenlive:original.backup">1</property>
  <property name="meta.media.frame_rate_num">60</property>
  <property name="meta.media.frame_rate_den">1</property>
  <property name="meta.media.colorspace">601</property>
  <property name="meta.media.color_trc">2</property>
  <property name="meta.media.has_b_frames">0</property>
  <property name="meta.media.width">640</property>
  <property name="meta.media.height">360</property>
  <property name="meta.media.color_range">full</property>
  <property name="meta.media.top_field_first">0</property>
  <property name="meta.media.progressive">1</property>
 </producer>
 <producer id="producer305" in="00:00:00.000" out="00:00:00.117">
  <property name="length">8</property>
  <property name="eof">pause</property>
  <property name="resource">/home/xiaoxiae/.cache/kdenlive/proxy/7d14b5b3016e21f79c760cb61b875343.mkv</property>
  <property name="meta.media.nb_streams">1</property>
  <property name="meta.media.0.stream.type">video</property>
  <property name="meta.media.0.stream.frame_rate">60</property>
  <property name="meta.media.0.stream.sample_aspect_ratio">0</property>
  <property name="meta.media.0.codec.width">640</property>
  <property name="meta.media.0.codec.height">360</property>
  <property name="meta.media.0.codec.rotate">0</property>
  <property name="meta.media.0.codec.pix_fmt">yuvj420p</property>
  <property name="meta.media.0.codec.sample_aspect_ratio">0</property>
  <property name="meta.media.0.codec.colorspace">601</property>
  <property name="meta.media.0.codec.name">mjpeg</property>
  <property name="meta.media.0.codec.long_name">MJPEG (Motion JPEG)</property>
  <property name="meta.media.0.codec.bit_rate">0</property>
  <property name="meta.attr.0.stream.HANDLER_NAME.markup">VideoHandler</property>
  <property name="meta.attr.0.stream.VENDOR_ID.markup">[0][0][0][0]</property>
  <property name="meta.attr.0.stream.ENCODER.markup">Lavc60.3.100 mjpeg</property>
  <property name="meta.attr.0.stream.DURATION.markup">00:00:00.134000000</property>
  <property name="meta.attr.COMMENT.markup">Rendered with Manim Community v0.17.2</property>
  <property name="meta.attr.MAJOR_BRAND.markup">isom</property>
  <property name="meta.attr.MINOR_VERSION.markup">512</property>
  <property name="meta.attr.COMPATIBLE_BRANDS.markup">isomiso2avc1mp41</property>
  <property name="meta.attr.ENCODER.markup">Lavf60.3.100</property>
  <property name="seekable">1</property>
  <property name="meta.media.sample_aspect_num">1</property>
  <property name="meta.media.sample_aspect_den">1</property>
  <property name="aspect_ratio">1</property>
  <property name="format">3</property>
  <property name="audio_index">-1</property>
  <property name="video_index">0</property>
  <property name="mute_on_pause">0</property>
  <property name="mlt_service">avformat-novalidate</property>
  <property name="kdenlive:clipname">12.mp4</property>
  <property name="kdenlive:clip_type">2</property>
  <property name="kdenlive:folderid">488</property>
  <property name="kdenlive:id">383</property>
  <property name="kdenlive:file_size">34453</property>
  <property name="kdenlive:file_hash">7d14b5b3016e21f79c760cb61b875343</property>
  <property name="kdenlive:proxy">/home/xiaoxiae/.cache/kdenlive/proxy/7d14b5b3016e21f79c760cb61b875343.mkv</property>
  <property name="kdenlive:originalurl">video/Insertion/12.mp4</property>
  <property name="kdenlive:original.mlt_type">producer</property>
  <property name="kdenlive:original.in">00:00:00.000</property>
  <property name="kdenlive:original.out">00:00:00.117</property>
  <property name="kdenlive:original.length">8</property>
  <property name="kdenlive:original.eof">pause</property>
  <property name="kdenlive:original.resource">video/Insertion/12.mp4</property>
  <property name="kdenlive:original.meta.media.nb_streams">1</property>
  <property name="kdenlive:original.meta.media.0.stream.type">video</property>
  <property name="kdenlive:original.meta.media.0.stream.frame_rate">60</property>
  <property name="kdenlive:original.meta.media.0.stream.sample_aspect_ratio">0</property>
  <property name="kdenlive:original.meta.media.0.codec.width">3840</property>
  <property name="kdenlive:original.meta.media.0.codec.height">2160</property>
  <property name="kdenlive:original.meta.media.0.codec.rotate">0</property>
  <property name="kdenlive:original.meta.media.0.codec.pix_fmt">yuv420p</property>
  <property name="kdenlive:original.meta.media.0.codec.sample_aspect_ratio">0</property>
  <property name="kdenlive:original.meta.media.0.codec.colorspace">709</property>
  <property name="kdenlive:original.meta.media.0.codec.name">h264</property>
  <property name="kdenlive:original.meta.media.0.codec.long_name">H.264 / AVC / MPEG-4 AVC / MPEG-4 part 10</property>
  <property name="kdenlive:original.meta.media.0.codec.bit_rate">2006280</property>
  <property name="kdenlive:original.meta.attr.0.stream.handler_name.markup">VideoHandler</property>
  <property name="kdenlive:original.meta.attr.0.stream.vendor_id.markup">[0][0][0][0]</property>
  <property name="kdenlive:original.meta.attr.0.stream.encoder.markup">Lavc60.3.100 libx264</property>
  <property name="kdenlive:original.meta.attr.major_brand.markup">isom</property>
  <property name="kdenlive:original.meta.attr.minor_version.markup">512</property>
  <property name="kdenlive:original.meta.attr.compatible_brands.markup">isomiso2avc1mp41</property>
  <property name="kdenlive:original.meta.attr.encoder.markup">Lavf60.3.100</property>
  <property name="kdenlive:original.meta.attr.comment.markup">Rendered with Manim Community v0.17.2</property>
  <property name="kdenlive:original.seekable">1</property>
  <property name="kdenlive:original.width">3840</property>
  <property name="kdenlive:original.height">2160</property>
  <property name="kdenlive:original.meta.media.sample_aspect_num">1</property>
  <property name="kdenlive:original.meta.media.sample_aspect_den">1</property>
  <property name="kdenlive:original.aspect_ratio">1</property>
  <property name="kdenlive:original.format">3</property>
  <property name="kdenlive:original.audio_index">-1</property>
  <property name="kdenlive:original.video_index">0</property>
  <property name="kdenlive:original.mute_on_pause">0</property>
  <property name="kdenlive:original.mlt_service">avformat-novalidate</property>
  <property name="kdenlive:original.meta.media.frame_rate_num">60</property>
  <property name="kdenlive:original.meta.media.frame_rate_den">1</property>
  <property name="kdenlive:original.meta.media.colorspace">709</property>
  <property name="kdenlive:original.meta.media.color_trc">2</property>
  <property name="kdenlive:original.meta.media.has_b_frames">2</property>
  <property name="kdenlive:original.meta.media.width">3840</property>
  <property name="kdenlive:original.meta.media.height">2160</property>
  <property name="kdenlive:original.meta.media.color_range">mpeg</property>
  <property name="kdenlive:original.meta.media.top_field_first">0</property>
  <property name="kdenlive:original.meta.media.progressive">1</property>
  <property name="kdenlive:original.kdenlive:clip_type">2</property>
  <property name="kdenlive:original.kdenlive:folderid">488</property>
  <property name="kdenlive:original.kdenlive:id">492</property>
  <property name="kdenlive:original.kdenlive:file_size">34453</property>
  <property name="kdenlive:original.kdenlive:file_hash">7d14b5b3016e21f79c760cb61b875343</property>
  <property name="kdenlive:original.backup">1</property>
  <property name="meta.media.frame_rate_num">60</property>
  <property name="meta.media.frame_rate_den">1</property>
  <property name="meta.media.colorspace">601</property>
  <property name="meta.media.color_trc">2</property>
  <property name="meta.media.has_b_frames">0</property>
  <property name="meta.media.width">640</property>
  <property name="meta.media.height">360</property>
  <property name="meta.media.color_range">full</property>
  <property name="meta.media.top_field_first">0</property>
  <property name="meta.media.progressive">1</property>
 </producer>
 <producer id="producer307" in="00:00:00.000" out="00:00:00.117">
  <property name="length">8</property>
  <property name="eof">pause</property>
  <property name="resource">/home/xiaoxiae/.cache/kdenlive/proxy/a4eb0c8f86d6295dce6c5eddec6734d6.mkv</property>
  <property name="meta.media.nb_streams">1</property>
  <property name="meta.media.0.stream.type">video</property>
  <property name="meta.media.0.stream.frame_rate">60</property>
  <property name="meta.media.0.stream.sample_aspect_ratio">0</property>
  <property name="meta.media.0.codec.width">640</property>
  <property name="meta.media.0.codec.height">360</property>
  <property name="meta.media.0.codec.rotate">0</property>
  <property name="meta.media.0.codec.pix_fmt">yuvj420p</property>
  <property name="meta.media.0.codec.sample_aspect_ratio">0</property>
  <property name="meta.media.0.codec.colorspace">601</property>
  <property name="meta.media.0.codec.name">mjpeg</property>
  <property name="meta.media.0.codec.long_name">MJPEG (Motion JPEG)</property>
  <property name="meta.media.0.codec.bit_rate">0</property>
  <property name="meta.attr.0.stream.HANDLER_NAME.markup">VideoHandler</property>
  <property name="meta.attr.0.stream.VENDOR_ID.markup">[0][0][0][0]</property>
  <property name="meta.attr.0.stream.ENCODER.markup">Lavc60.3.100 mjpeg</property>
  <property name="meta.attr.0.stream.DURATION.markup">00:00:00.134000000</property>
  <property name="meta.attr.COMMENT.markup">Rendered with Manim Community v0.17.2</property>
  <property name="meta.attr.MAJOR_BRAND.markup">isom</property>
  <property name="meta.attr.MINOR_VERSION.markup">512</property>
  <property name="meta.attr.COMPATIBLE_BRANDS.markup">isomiso2avc1mp41</property>
  <property name="meta.attr.ENCODER.markup">Lavf60.3.100</property>
  <property name="seekable">1</property>
  <property name="meta.media.sample_aspect_num">1</property>
  <property name="meta.media.sample_aspect_den">1</property>
  <property name="aspect_ratio">1</property>
  <property name="format">3</property>
  <property name="audio_index">-1</property>
  <property name="video_index">0</property>
  <property name="mute_on_pause">0</property>
  <property name="mlt_service">avformat-novalidate</property>
  <property name="kdenlive:clipname">13.mp4</property>
  <property name="kdenlive:clip_type">2</property>
  <property name="kdenlive:folderid">488</property>
  <property name="kdenlive:id">384</property>
  <property name="kdenlive:file_size">34051</property>
  <property name="kdenlive:file_hash">a4eb0c8f86d6295dce6c5eddec6734d6</property>
  <property name="kdenlive:proxy">/home/xiaoxiae/.cache/kdenlive/proxy/a4eb0c8f86d6295dce6c5eddec6734d6.mkv</property>
  <property name="kdenlive:originalurl">video/Insertion/13.mp4</property>
  <property name="kdenlive:original.mlt_type">producer</property>
  <property name="kdenlive:original.in">00:00:00.000</property>
  <property name="kdenlive:original.out">00:00:00.117</property>
  <property name="kdenlive:original.length">8</property>
  <property name="kdenlive:original.eof">pause</property>
  <property name="kdenlive:original.resource">video/Insertion/13.mp4</property>
  <property name="kdenlive:original.meta.media.nb_streams">1</property>
  <property name="kdenlive:original.meta.media.0.stream.type">video</property>
  <property name="kdenlive:original.meta.media.0.stream.frame_rate">60</property>
  <property name="kdenlive:original.meta.media.0.stream.sample_aspect_ratio">0</property>
  <property name="kdenlive:original.meta.media.0.codec.width">3840</property>
  <property name="kdenlive:original.meta.media.0.codec.height">2160</property>
  <property name="kdenlive:original.meta.media.0.codec.rotate">0</property>
  <property name="kdenlive:original.meta.media.0.codec.pix_fmt">yuv420p</property>
  <property name="kdenlive:original.meta.media.0.codec.sample_aspect_ratio">0</property>
  <property name="kdenlive:original.meta.media.0.codec.colorspace">709</property>
  <property name="kdenlive:original.meta.media.0.codec.name">h264</property>
  <property name="kdenlive:original.meta.media.0.codec.long_name">H.264 / AVC / MPEG-4 AVC / MPEG-4 part 10</property>
  <property name="kdenlive:original.meta.media.0.codec.bit_rate">1982160</property>
  <property name="kdenlive:original.meta.attr.0.stream.handler_name.markup">VideoHandler</property>
  <property name="kdenlive:original.meta.attr.0.stream.vendor_id.markup">[0][0][0][0]</property>
  <property name="kdenlive:original.meta.attr.0.stream.encoder.markup">Lavc60.3.100 libx264</property>
  <property name="kdenlive:original.meta.attr.major_brand.markup">isom</property>
  <property name="kdenlive:original.meta.attr.minor_version.markup">512</property>
  <property name="kdenlive:original.meta.attr.compatible_brands.markup">isomiso2avc1mp41</property>
  <property name="kdenlive:original.meta.attr.encoder.markup">Lavf60.3.100</property>
  <property name="kdenlive:original.meta.attr.comment.markup">Rendered with Manim Community v0.17.2</property>
  <property name="kdenlive:original.seekable">1</property>
  <property name="kdenlive:original.width">3840</property>
  <property name="kdenlive:original.height">2160</property>
  <property name="kdenlive:original.meta.media.sample_aspect_num">1</property>
  <property name="kdenlive:original.meta.media.sample_aspect_den">1</property>
  <property name="kdenlive:original.aspect_ratio">1</property>
  <property name="kdenlive:original.format">3</property>
  <property name="kdenlive:original.audio_index">-1</property>
  <property name="kdenlive:original.video_index">0</property>
  <property name="kdenlive:original.mute_on_pause">0</property>
  <property name="kdenlive:original.mlt_service">avformat-novalidate</property>
  <property name="kdenlive:original.meta.media.frame_rate_num">60</property>
  <property name="kdenlive:original.meta.media.frame_rate_den">1</property>
  <property name="kdenlive:original.meta.media.colorspace">709</property>
  <property name="kdenlive:original.meta.media.color_trc">2</property>
  <property name="kdenlive:original.meta.media.has_b_frames">2</property>
  <property name="kdenlive:original.meta.media.width">3840</property>
  <property name="kdenlive:original.meta.media.height">2160</property>
  <property name="kdenlive:original.meta.media.color_range">mpeg</property>
  <property name="kdenlive:original.meta.media.top_field_first">0</property>
  <property name="kdenlive:original.meta.media.progressive">1</property>
  <property name="kdenlive:original.kdenlive:clip_type">2</property>
  <property name="kdenlive:original.kdenlive:folderid">488</property>
  <property name="kdenlive:original.kdenlive:id">493</property>
  <property name="kdenlive:original.kdenlive:file_size">34051</property>
  <property name="kdenlive:original.kdenlive:file_hash">a4eb0c8f86d6295dce6c5eddec6734d6</property>
  <property name="kdenlive:original.backup">1</property>
  <property name="meta.media.frame_rate_num">60</property>
  <property name="meta.media.frame_rate_den">1</property>
  <property name="meta.media.colorspace">601</property>
  <property name="meta.media.color_trc">2</property>
  <property name="meta.media.has_b_frames">0</property>
  <property name="meta.media.width">640</property>
  <property name="meta.media.height">360</property>
  <property name="meta.media.color_range">full</property>
  <property name="meta.media.top_field_first">0</property>
  <property name="meta.media.progressive">1</property>
 </producer>
 <producer id="producer306" in="00:00:00.000" out="00:00:00.117">
  <property name="length">8</property>
  <property name="eof">pause</property>
  <property name="resource">/home/xiaoxiae/.cache/kdenlive/proxy/acc2020b6d1a30088f5b66ed62a92c67.mkv</property>
  <property name="meta.media.nb_streams">1</property>
  <property name="meta.media.0.stream.type">video</property>
  <property name="meta.media.0.stream.frame_rate">60</property>
  <property name="meta.media.0.stream.sample_aspect_ratio">0</property>
  <property name="meta.media.0.codec.width">640</property>
  <property name="meta.media.0.codec.height">360</property>
  <property name="meta.media.0.codec.rotate">0</property>
  <property name="meta.media.0.codec.pix_fmt">yuvj420p</property>
  <property name="meta.media.0.codec.sample_aspect_ratio">0</property>
  <property name="meta.media.0.codec.colorspace">601</property>
  <property name="meta.media.0.codec.name">mjpeg</property>
  <property name="meta.media.0.codec.long_name">MJPEG (Motion JPEG)</property>
  <property name="meta.media.0.codec.bit_rate">0</property>
  <property name="meta.attr.0.stream.HANDLER_NAME.markup">VideoHandler</property>
  <property name="meta.attr.0.stream.VENDOR_ID.markup">[0][0][0][0]</property>
  <property name="meta.attr.0.stream.ENCODER.markup">Lavc60.3.100 mjpeg</property>
  <property name="meta.attr.0.stream.DURATION.markup">00:00:00.134000000</property>
  <property name="meta.attr.COMMENT.markup">Rendered with Manim Community v0.17.2</property>
  <property name="meta.attr.MAJOR_BRAND.markup">isom</property>
  <property name="meta.attr.MINOR_VERSION.markup">512</property>
  <property name="meta.attr.COMPATIBLE_BRANDS.markup">isomiso2avc1mp41</property>
  <property name="meta.attr.ENCODER.markup">Lavf60.3.100</property>
  <property name="seekable">1</property>
  <property name="meta.media.sample_aspect_num">1</property>
  <property name="meta.media.sample_aspect_den">1</property>
  <property name="aspect_ratio">1</property>
  <property name="format">3</property>
  <property name="audio_index">-1</property>
  <property name="video_index">0</property>
  <property name="mute_on_pause">0</property>
  <property name="mlt_service">avformat-novalidate</property>
  <property name="kdenlive:clipname">14.mp4</property>
  <property name="kdenlive:clip_type">2</property>
  <property name="kdenlive:folderid">488</property>
  <property name="kdenlive:id">385</property>
  <property name="kdenlive:file_size">35415</property>
  <property name="kdenlive:file_hash">acc2020b6d1a30088f5b66ed62a92c67</property>
  <property name="kdenlive:proxy">/home/xiaoxiae/.cache/kdenlive/proxy/acc2020b6d1a30088f5b66ed62a92c67.mkv</property>
  <property name="kdenlive:originalurl">video/Insertion/14.mp4</property>
  <property name="kdenlive:original.mlt_type">producer</property>
  <property name="kdenlive:original.in">00:00:00.000</property>
  <property name="kdenlive:original.out">00:00:00.117</property>
  <property name="kdenlive:original.length">8</property>
  <property name="kdenlive:original.eof">pause</property>
  <property name="kdenlive:original.resource">video/Insertion/14.mp4</property>
  <property name="kdenlive:original.meta.media.nb_streams">1</property>
  <property name="kdenlive:original.meta.media.0.stream.type">video</property>
  <property name="kdenlive:original.meta.media.0.stream.frame_rate">60</property>
  <property name="kdenlive:original.meta.media.0.stream.sample_aspect_ratio">0</property>
  <property name="kdenlive:original.meta.media.0.codec.width">3840</property>
  <property name="kdenlive:original.meta.media.0.codec.height">2160</property>
  <property name="kdenlive:original.meta.media.0.codec.rotate">0</property>
  <property name="kdenlive:original.meta.media.0.codec.pix_fmt">yuv420p</property>
  <property name="kdenlive:original.meta.media.0.codec.sample_aspect_ratio">0</property>
  <property name="kdenlive:original.meta.media.0.codec.colorspace">709</property>
  <property name="kdenlive:original.meta.media.0.codec.name">h264</property>
  <property name="kdenlive:original.meta.media.0.codec.long_name">H.264 / AVC / MPEG-4 AVC / MPEG-4 part 10</property>
  <property name="kdenlive:original.meta.media.0.codec.bit_rate">2064480</property>
  <property name="kdenlive:original.meta.attr.0.stream.handler_name.markup">VideoHandler</property>
  <property name="kdenlive:original.meta.attr.0.stream.vendor_id.markup">[0][0][0][0]</property>
  <property name="kdenlive:original.meta.attr.0.stream.encoder.markup">Lavc60.3.100 libx264</property>
  <property name="kdenlive:original.meta.attr.major_brand.markup">isom</property>
  <property name="kdenlive:original.meta.attr.minor_version.markup">512</property>
  <property name="kdenlive:original.meta.attr.compatible_brands.markup">isomiso2avc1mp41</property>
  <property name="kdenlive:original.meta.attr.encoder.markup">Lavf60.3.100</property>
  <property name="kdenlive:original.meta.attr.comment.markup">Rendered with Manim Community v0.17.2</property>
  <property name="kdenlive:original.seekable">1</property>
  <property name="kdenlive:original.width">3840</property>
  <property name="kdenlive:original.height">2160</property>
  <property name="kdenlive:original.meta.media.sample_aspect_num">1</property>
  <property name="kdenlive:original.meta.media.sample_aspect_den">1</property>
  <property name="kdenlive:original.aspect_ratio">1</property>
  <property name="kdenlive:original.format">3</property>
  <property name="kdenlive:original.audio_index">-1</property>
  <property name="kdenlive:original.video_index">0</property>
  <property name="kdenlive:original.mute_on_pause">0</property>
  <property name="kdenlive:original.mlt_service">avformat-novalidate</property>
  <property name="kdenlive:original.meta.media.frame_rate_num">60</property>
  <property name="kdenlive:original.meta.media.frame_rate_den">1</property>
  <property name="kdenlive:original.meta.media.colorspace">709</property>
  <property name="kdenlive:original.meta.media.color_trc">2</property>
  <property name="kdenlive:original.meta.media.has_b_frames">2</property>
  <property name="kdenlive:original.meta.media.width">3840</property>
  <property name="kdenlive:original.meta.media.height">2160</property>
  <property name="kdenlive:original.meta.media.color_range">mpeg</property>
  <property name="kdenlive:original.meta.media.top_field_first">0</property>
  <property name="kdenlive:original.meta.media.progressive">1</property>
  <property name="kdenlive:original.kdenlive:clip_type">2</property>
  <property name="kdenlive:original.kdenlive:folderid">488</property>
  <property name="kdenlive:original.kdenlive:id">494</property>
  <property name="kdenlive:original.kdenlive:file_size">35415</property>
  <property name="kdenlive:original.kdenlive:file_hash">acc2020b6d1a30088f5b66ed62a92c67</property>
  <property name="kdenlive:original.backup">1</property>
  <property name="meta.media.frame_rate_num">60</property>
  <property name="meta.media.frame_rate_den">1</property>
  <property name="meta.media.colorspace">601</property>
  <property name="meta.media.color_trc">2</property>
  <property name="meta.media.has_b_frames">0</property>
  <property name="meta.media.width">640</property>
  <property name="meta.media.height">360</property>
  <property name="meta.media.color_range">full</property>
  <property name="meta.media.top_field_first">0</property>
  <property name="meta.media.progressive">1</property>
 </producer>
 <producer id="producer308" in="00:00:00.000" out="00:00:00.117">
  <property name="length">8</property>
  <property name="eof">pause</property>
  <property name="resource">/home/xiaoxiae/.cache/kdenlive/proxy/0bd12012fd1ae47bd2faa35c5b7c3246.mkv</property>
  <property name="meta.media.nb_streams">1</property>
  <property name="meta.media.0.stream.type">video</property>
  <property name="meta.media.0.stream.frame_rate">60</property>
  <property name="meta.media.0.stream.sample_aspect_ratio">0</property>
  <property name="meta.media.0.codec.width">640</property>
  <property name="meta.media.0.codec.height">360</property>
  <property name="meta.media.0.codec.rotate">0</property>
  <property name="meta.media.0.codec.pix_fmt">yuvj420p</property>
  <property name="meta.media.0.codec.sample_aspect_ratio">0</property>
  <property name="meta.media.0.codec.colorspace">601</property>
  <property name="meta.media.0.codec.name">mjpeg</property>
  <property name="meta.media.0.codec.long_name">MJPEG (Motion JPEG)</property>
  <property name="meta.media.0.codec.bit_rate">0</property>
  <property name="meta.attr.0.stream.HANDLER_NAME.markup">VideoHandler</property>
  <property name="meta.attr.0.stream.VENDOR_ID.markup">[0][0][0][0]</property>
  <property name="meta.attr.0.stream.ENCODER.markup">Lavc60.3.100 mjpeg</property>
  <property name="meta.attr.0.stream.DURATION.markup">00:00:00.134000000</property>
  <property name="meta.attr.COMMENT.markup">Rendered with Manim Community v0.17.2</property>
  <property name="meta.attr.MAJOR_BRAND.markup">isom</property>
  <property name="meta.attr.MINOR_VERSION.markup">512</property>
  <property name="meta.attr.COMPATIBLE_BRANDS.markup">isomiso2avc1mp41</property>
  <property name="meta.attr.ENCODER.markup">Lavf60.3.100</property>
  <property name="seekable">1</property>
  <property name="meta.media.sample_aspect_num">1</property>
  <property name="meta.media.sample_aspect_den">1</property>
  <property name="aspect_ratio">1</property>
  <property name="format">3</property>
  <property name="audio_index">-1</property>
  <property name="video_index">0</property>
  <property name="mute_on_pause">0</property>
  <property name="mlt_service">avformat-novalidate</property>
  <property name="kdenlive:clipname">15.mp4</property>
  <property name="kdenlive:clip_type">2</property>
  <property name="kdenlive:folderid">488</property>
  <property name="kdenlive:id">386</property>
  <property name="kdenlive:file_size">34386</property>
  <property name="kdenlive:file_hash">0bd12012fd1ae47bd2faa35c5b7c3246</property>
  <property name="kdenlive:proxy">/home/xiaoxiae/.cache/kdenlive/proxy/0bd12012fd1ae47bd2faa35c5b7c3246.mkv</property>
  <property name="kdenlive:originalurl">video/Insertion/15.mp4</property>
  <property name="kdenlive:original.mlt_type">producer</property>
  <property name="kdenlive:original.in">00:00:00.000</property>
  <property name="kdenlive:original.out">00:00:00.117</property>
  <property name="kdenlive:original.length">8</property>
  <property name="kdenlive:original.eof">pause</property>
  <property name="kdenlive:original.resource">video/Insertion/15.mp4</property>
  <property name="kdenlive:original.meta.media.nb_streams">1</property>
  <property name="kdenlive:original.meta.media.0.stream.type">video</property>
  <property name="kdenlive:original.meta.media.0.stream.frame_rate">60</property>
  <property name="kdenlive:original.meta.media.0.stream.sample_aspect_ratio">0</property>
  <property name="kdenlive:original.meta.media.0.codec.width">3840</property>
  <property name="kdenlive:original.meta.media.0.codec.height">2160</property>
  <property name="kdenlive:original.meta.media.0.codec.rotate">0</property>
  <property name="kdenlive:original.meta.media.0.codec.pix_fmt">yuv420p</property>
  <property name="kdenlive:original.meta.media.0.codec.sample_aspect_ratio">0</property>
  <property name="kdenlive:original.meta.media.0.codec.colorspace">709</property>
  <property name="kdenlive:original.meta.media.0.codec.name">h264</property>
  <property name="kdenlive:original.meta.media.0.codec.long_name">H.264 / AVC / MPEG-4 AVC / MPEG-4 part 10</property>
  <property name="kdenlive:original.meta.media.0.codec.bit_rate">2003220</property>
  <property name="kdenlive:original.meta.attr.0.stream.handler_name.markup">VideoHandler</property>
  <property name="kdenlive:original.meta.attr.0.stream.vendor_id.markup">[0][0][0][0]</property>
  <property name="kdenlive:original.meta.attr.0.stream.encoder.markup">Lavc60.3.100 libx264</property>
  <property name="kdenlive:original.meta.attr.major_brand.markup">isom</property>
  <property name="kdenlive:original.meta.attr.minor_version.markup">512</property>
  <property name="kdenlive:original.meta.attr.compatible_brands.markup">isomiso2avc1mp41</property>
  <property name="kdenlive:original.meta.attr.encoder.markup">Lavf60.3.100</property>
  <property name="kdenlive:original.meta.attr.comment.markup">Rendered with Manim Community v0.17.2</property>
  <property name="kdenlive:original.seekable">1</property>
  <property name="kdenlive:original.width">3840</property>
  <property name="kdenlive:original.height">2160</property>
  <property name="kdenlive:original.meta.media.sample_aspect_num">1</property>
  <property name="kdenlive:original.meta.media.sample_aspect_den">1</property>
  <property name="kdenlive:original.aspect_ratio">1</property>
  <property name="kdenlive:original.format">3</property>
  <property name="kdenlive:original.audio_index">-1</property>
  <property name="kdenlive:original.video_index">0</property>
  <property name="kdenlive:original.mute_on_pause">0</property>
  <property name="kdenlive:original.mlt_service">avformat-novalidate</property>
  <property name="kdenlive:original.meta.media.frame_rate_num">60</property>
  <property name="kdenlive:original.meta.media.frame_rate_den">1</property>
  <property name="kdenlive:original.meta.media.colorspace">709</property>
  <property name="kdenlive:original.meta.media.color_trc">2</property>
  <property name="kdenlive:original.meta.media.has_b_frames">2</property>
  <property name="kdenlive:original.meta.media.width">3840</property>
  <property name="kdenlive:original.meta.media.height">2160</property>
  <property name="kdenlive:original.meta.media.color_range">mpeg</property>
  <property name="kdenlive:original.meta.media.top_field_first">0</property>
  <property name="kdenlive:original.meta.media.progressive">1</property>
  <property name="kdenlive:original.kdenlive:clip_type">2</property>
  <property name="kdenlive:original.kdenlive:folderid">488</property>
  <property name="kdenlive:original.kdenlive:id">495</property>
  <property name="kdenlive:original.kdenlive:file_size">34386</property>
  <property name="kdenlive:original.kdenlive:file_hash">0bd12012fd1ae47bd2faa35c5b7c3246</property>
  <property name="kdenlive:original.backup">1</property>
  <property name="meta.media.frame_rate_num">60</property>
  <property name="meta.media.frame_rate_den">1</property>
  <property name="meta.media.colorspace">601</property>
  <property name="meta.media.color_trc">2</property>
  <property name="meta.media.has_b_frames">0</property>
  <property name="meta.media.width">640</property>
  <property name="meta.media.height">360</property>
  <property name="meta.media.color_range">full</property>
  <property name="meta.media.top_field_first">0</property>
  <property name="meta.media.progressive">1</property>
 </producer>
 <producer id="producer309" in="00:00:00.000" out="00:00:00.117">
  <property name="length">8</property>
  <property name="eof">pause</property>
  <property name="resource">/home/xiaoxiae/.cache/kdenlive/proxy/83a598c778c5f8bb9e49bdac28e34c44.mkv</property>
  <property name="meta.media.nb_streams">1</property>
  <property name="meta.media.0.stream.type">video</property>
  <property name="meta.media.0.stream.frame_rate">60</property>
  <property name="meta.media.0.stream.sample_aspect_ratio">0</property>
  <property name="meta.media.0.codec.width">640</property>
  <property name="meta.media.0.codec.height">360</property>
  <property name="meta.media.0.codec.rotate">0</property>
  <property name="meta.media.0.codec.pix_fmt">yuvj420p</property>
  <property name="meta.media.0.codec.sample_aspect_ratio">0</property>
  <property name="meta.media.0.codec.colorspace">601</property>
  <property name="meta.media.0.codec.name">mjpeg</property>
  <property name="meta.media.0.codec.long_name">MJPEG (Motion JPEG)</property>
  <property name="meta.media.0.codec.bit_rate">0</property>
  <property name="meta.attr.0.stream.HANDLER_NAME.markup">VideoHandler</property>
  <property name="meta.attr.0.stream.VENDOR_ID.markup">[0][0][0][0]</property>
  <property name="meta.attr.0.stream.ENCODER.markup">Lavc60.3.100 mjpeg</property>
  <property name="meta.attr.0.stream.DURATION.markup">00:00:00.134000000</property>
  <property name="meta.attr.COMMENT.markup">Rendered with Manim Community v0.17.2</property>
  <property name="meta.attr.MAJOR_BRAND.markup">isom</property>
  <property name="meta.attr.MINOR_VERSION.markup">512</property>
  <property name="meta.attr.COMPATIBLE_BRANDS.markup">isomiso2avc1mp41</property>
  <property name="meta.attr.ENCODER.markup">Lavf60.3.100</property>
  <property name="seekable">1</property>
  <property name="meta.media.sample_aspect_num">1</property>
  <property name="meta.media.sample_aspect_den">1</property>
  <property name="aspect_ratio">1</property>
  <property name="format">3</property>
  <property name="audio_index">-1</property>
  <property name="video_index">0</property>
  <property name="mute_on_pause">0</property>
  <property name="mlt_service">avformat-novalidate</property>
  <property name="kdenlive:clipname">16.mp4</property>
  <property name="kdenlive:clip_type">2</property>
  <property name="kdenlive:folderid">488</property>
  <property name="kdenlive:id">387</property>
  <property name="kdenlive:file_size">34025</property>
  <property name="kdenlive:file_hash">83a598c778c5f8bb9e49bdac28e34c44</property>
  <property name="kdenlive:proxy">/home/xiaoxiae/.cache/kdenlive/proxy/83a598c778c5f8bb9e49bdac28e34c44.mkv</property>
  <property name="kdenlive:originalurl">video/Insertion/16.mp4</property>
  <property name="kdenlive:original.mlt_type">producer</property>
  <property name="kdenlive:original.in">00:00:00.000</property>
  <property name="kdenlive:original.out">00:00:00.117</property>
  <property name="kdenlive:original.length">8</property>
  <property name="kdenlive:original.eof">pause</property>
  <property name="kdenlive:original.resource">video/Insertion/16.mp4</property>
  <property name="kdenlive:original.meta.media.nb_streams">1</property>
  <property name="kdenlive:original.meta.media.0.stream.type">video</property>
  <property name="kdenlive:original.meta.media.0.stream.frame_rate">60</property>
  <property name="kdenlive:original.meta.media.0.stream.sample_aspect_ratio">0</property>
  <property name="kdenlive:original.meta.media.0.codec.width">3840</property>
  <property name="kdenlive:original.meta.media.0.codec.height">2160</property>
  <property name="kdenlive:original.meta.media.0.codec.rotate">0</property>
  <property name="kdenlive:original.meta.media.0.codec.pix_fmt">yuv420p</property>
  <property name="kdenlive:original.meta.media.0.codec.sample_aspect_ratio">0</property>
  <property name="kdenlive:original.meta.media.0.codec.colorspace">709</property>
  <property name="kdenlive:original.meta.media.0.codec.name">h264</property>
  <property name="kdenlive:original.meta.media.0.codec.long_name">H.264 / AVC / MPEG-4 AVC / MPEG-4 part 10</property>
  <property name="kdenlive:original.meta.media.0.codec.bit_rate">1981560</property>
  <property name="kdenlive:original.meta.attr.0.stream.handler_name.markup">VideoHandler</property>
  <property name="kdenlive:original.meta.attr.0.stream.vendor_id.markup">[0][0][0][0]</property>
  <property name="kdenlive:original.meta.attr.0.stream.encoder.markup">Lavc60.3.100 libx264</property>
  <property name="kdenlive:original.meta.attr.major_brand.markup">isom</property>
  <property name="kdenlive:original.meta.attr.minor_version.markup">512</property>
  <property name="kdenlive:original.meta.attr.compatible_brands.markup">isomiso2avc1mp41</property>
  <property name="kdenlive:original.meta.attr.encoder.markup">Lavf60.3.100</property>
  <property name="kdenlive:original.meta.attr.comment.markup">Rendered with Manim Community v0.17.2</property>
  <property name="kdenlive:original.seekable">1</property>
  <property name="kdenlive:original.width">3840</property>
  <property name="kdenlive:original.height">2160</property>
  <property name="kdenlive:original.meta.media.sample_aspect_num">1</property>
  <property name="kdenlive:original.meta.media.sample_aspect_den">1</property>
  <property name="kdenlive:original.aspect_ratio">1</property>
  <property name="kdenlive:original.format">3</property>
  <property name="kdenlive:original.audio_index">-1</property>
  <property name="kdenlive:original.video_index">0</property>
  <property name="kdenlive:original.mute_on_pause">0</property>
  <property name="kdenlive:original.mlt_service">avformat-novalidate</property>
  <property name="kdenlive:original.meta.media.frame_rate_num">60</property>
  <property name="kdenlive:original.meta.media.frame_rate_den">1</property>
  <property name="kdenlive:original.meta.media.colorspace">709</property>
  <property name="kdenlive:original.meta.media.color_trc">2</property>
  <property name="kdenlive:original.meta.media.has_b_frames">2</property>
  <property name="kdenlive:original.meta.media.width">3840</property>
  <property name="kdenlive:original.meta.media.height">2160</property>
  <property name="kdenlive:original.meta.media.color_range">mpeg</property>
  <property name="kdenlive:original.meta.media.top_field_first">0</property>
  <property name="kdenlive:original.meta.media.progressive">1</property>
  <property name="kdenlive:original.kdenlive:clip_type">2</property>
  <property name="kdenlive:original.kdenlive:folderid">488</property>
  <property name="kdenlive:original.kdenlive:id">496</property>
  <property name="kdenlive:original.kdenlive:file_size">34025</property>
  <property name="kdenlive:original.kdenlive:file_hash">83a598c778c5f8bb9e49bdac28e34c44</property>
  <property name="kdenlive:original.backup">1</property>
  <property name="meta.media.frame_rate_num">60</property>
  <property name="meta.media.frame_rate_den">1</property>
  <property name="meta.media.colorspace">601</property>
  <property name="meta.media.color_trc">2</property>
  <property name="meta.media.has_b_frames">0</property>
  <property name="meta.media.width">640</property>
  <property name="meta.media.height">360</property>
  <property name="meta.media.color_range">full</property>
  <property name="meta.media.top_field_first">0</property>
  <property name="meta.media.progressive">1</property>
 </producer>
 <producer id="producer310" in="00:00:00.000" out="00:00:00.117">
  <property name="length">8</property>
  <property name="eof">pause</property>
  <property name="resource">/home/xiaoxiae/.cache/kdenlive/proxy/0bc35f4527ec13f204ee244f41787f4b.mkv</property>
  <property name="meta.media.nb_streams">1</property>
  <property name="meta.media.0.stream.type">video</property>
  <property name="meta.media.0.stream.frame_rate">60</property>
  <property name="meta.media.0.stream.sample_aspect_ratio">0</property>
  <property name="meta.media.0.codec.width">640</property>
  <property name="meta.media.0.codec.height">360</property>
  <property name="meta.media.0.codec.rotate">0</property>
  <property name="meta.media.0.codec.pix_fmt">yuvj420p</property>
  <property name="meta.media.0.codec.sample_aspect_ratio">0</property>
  <property name="meta.media.0.codec.colorspace">601</property>
  <property name="meta.media.0.codec.name">mjpeg</property>
  <property name="meta.media.0.codec.long_name">MJPEG (Motion JPEG)</property>
  <property name="meta.media.0.codec.bit_rate">0</property>
  <property name="meta.attr.0.stream.HANDLER_NAME.markup">VideoHandler</property>
  <property name="meta.attr.0.stream.VENDOR_ID.markup">[0][0][0][0]</property>
  <property name="meta.attr.0.stream.ENCODER.markup">Lavc60.3.100 mjpeg</property>
  <property name="meta.attr.0.stream.DURATION.markup">00:00:00.134000000</property>
  <property name="meta.attr.COMMENT.markup">Rendered with Manim Community v0.17.2</property>
  <property name="meta.attr.MAJOR_BRAND.markup">isom</property>
  <property name="meta.attr.MINOR_VERSION.markup">512</property>
  <property name="meta.attr.COMPATIBLE_BRANDS.markup">isomiso2avc1mp41</property>
  <property name="meta.attr.ENCODER.markup">Lavf60.3.100</property>
  <property name="seekable">1</property>
  <property name="meta.media.sample_aspect_num">1</property>
  <property name="meta.media.sample_aspect_den">1</property>
  <property name="aspect_ratio">1</property>
  <property name="format">3</property>
  <property name="audio_index">-1</property>
  <property name="video_index">0</property>
  <property name="mute_on_pause">0</property>
  <property name="mlt_service">avformat-novalidate</property>
  <property name="kdenlive:clipname">17.mp4</property>
  <property name="kdenlive:clip_type">2</property>
  <property name="kdenlive:folderid">488</property>
  <property name="kdenlive:id">388</property>
  <property name="kdenlive:file_size">34550</property>
  <property name="kdenlive:file_hash">0bc35f4527ec13f204ee244f41787f4b</property>
  <property name="kdenlive:proxy">/home/xiaoxiae/.cache/kdenlive/proxy/0bc35f4527ec13f204ee244f41787f4b.mkv</property>
  <property name="kdenlive:originalurl">video/Insertion/17.mp4</property>
  <property name="kdenlive:original.mlt_type">producer</property>
  <property name="kdenlive:original.in">00:00:00.000</property>
  <property name="kdenlive:original.out">00:00:00.117</property>
  <property name="kdenlive:original.length">8</property>
  <property name="kdenlive:original.eof">pause</property>
  <property name="kdenlive:original.resource">video/Insertion/17.mp4</property>
  <property name="kdenlive:original.meta.media.nb_streams">1</property>
  <property name="kdenlive:original.meta.media.0.stream.type">video</property>
  <property name="kdenlive:original.meta.media.0.stream.frame_rate">60</property>
  <property name="kdenlive:original.meta.media.0.stream.sample_aspect_ratio">0</property>
  <property name="kdenlive:original.meta.media.0.codec.width">3840</property>
  <property name="kdenlive:original.meta.media.0.codec.height">2160</property>
  <property name="kdenlive:original.meta.media.0.codec.rotate">0</property>
  <property name="kdenlive:original.meta.media.0.codec.pix_fmt">yuv420p</property>
  <property name="kdenlive:original.meta.media.0.codec.sample_aspect_ratio">0</property>
  <property name="kdenlive:original.meta.media.0.codec.colorspace">709</property>
  <property name="kdenlive:original.meta.media.0.codec.name">h264</property>
  <property name="kdenlive:original.meta.media.0.codec.long_name">H.264 / AVC / MPEG-4 AVC / MPEG-4 part 10</property>
  <property name="kdenlive:original.meta.media.0.codec.bit_rate">2012100</property>
  <property name="kdenlive:original.meta.attr.0.stream.handler_name.markup">VideoHandler</property>
  <property name="kdenlive:original.meta.attr.0.stream.vendor_id.markup">[0][0][0][0]</property>
  <property name="kdenlive:original.meta.attr.0.stream.encoder.markup">Lavc60.3.100 libx264</property>
  <property name="kdenlive:original.meta.attr.major_brand.markup">isom</property>
  <property name="kdenlive:original.meta.attr.minor_version.markup">512</property>
  <property name="kdenlive:original.meta.attr.compatible_brands.markup">isomiso2avc1mp41</property>
  <property name="kdenlive:original.meta.attr.encoder.markup">Lavf60.3.100</property>
  <property name="kdenlive:original.meta.attr.comment.markup">Rendered with Manim Community v0.17.2</property>
  <property name="kdenlive:original.seekable">1</property>
  <property name="kdenlive:original.width">3840</property>
  <property name="kdenlive:original.height">2160</property>
  <property name="kdenlive:original.meta.media.sample_aspect_num">1</property>
  <property name="kdenlive:original.meta.media.sample_aspect_den">1</property>
  <property name="kdenlive:original.aspect_ratio">1</property>
  <property name="kdenlive:original.format">3</property>
  <property name="kdenlive:original.audio_index">-1</property>
  <property name="kdenlive:original.video_index">0</property>
  <property name="kdenlive:original.mute_on_pause">0</property>
  <property name="kdenlive:original.mlt_service">avformat-novalidate</property>
  <property name="kdenlive:original.meta.media.frame_rate_num">60</property>
  <property name="kdenlive:original.meta.media.frame_rate_den">1</property>
  <property name="kdenlive:original.meta.media.colorspace">709</property>
  <property name="kdenlive:original.meta.media.color_trc">2</property>
  <property name="kdenlive:original.meta.media.has_b_frames">2</property>
  <property name="kdenlive:original.meta.media.width">3840</property>
  <property name="kdenlive:original.meta.media.height">2160</property>
  <property name="kdenlive:original.meta.media.color_range">mpeg</property>
  <property name="kdenlive:original.meta.media.top_field_first">0</property>
  <property name="kdenlive:original.meta.media.progressive">1</property>
  <property name="kdenlive:original.kdenlive:clip_type">2</property>
  <property name="kdenlive:original.kdenlive:folderid">488</property>
  <property name="kdenlive:original.kdenlive:id">497</property>
  <property name="kdenlive:original.kdenlive:file_size">34550</property>
  <property name="kdenlive:original.kdenlive:file_hash">0bc35f4527ec13f204ee244f41787f4b</property>
  <property name="kdenlive:original.backup">1</property>
  <property name="meta.media.frame_rate_num">60</property>
  <property name="meta.media.frame_rate_den">1</property>
  <property name="meta.media.colorspace">601</property>
  <property name="meta.media.color_trc">2</property>
  <property name="meta.media.has_b_frames">0</property>
  <property name="meta.media.width">640</property>
  <property name="meta.media.height">360</property>
  <property name="meta.media.color_range">full</property>
  <property name="meta.media.top_field_first">0</property>
  <property name="meta.media.progressive">1</property>
 </producer>
 <producer id="producer311" in="00:00:00.000" out="00:00:01.983">
  <property name="length">120</property>
  <property name="eof">pause</property>
  <property name="resource">/home/xiaoxiae/.cache/kdenlive/proxy/9fcc1e4263a7a2a4ef64c8fb7311ec63.mkv</property>
  <property name="meta.media.nb_streams">1</property>
  <property name="meta.media.0.stream.type">video</property>
  <property name="meta.media.0.stream.frame_rate">60</property>
  <property name="meta.media.0.stream.sample_aspect_ratio">0</property>
  <property name="meta.media.0.codec.width">640</property>
  <property name="meta.media.0.codec.height">360</property>
  <property name="meta.media.0.codec.rotate">0</property>
  <property name="meta.media.0.codec.pix_fmt">yuvj420p</property>
  <property name="meta.media.0.codec.sample_aspect_ratio">0</property>
  <property name="meta.media.0.codec.colorspace">601</property>
  <property name="meta.media.0.codec.name">mjpeg</property>
  <property name="meta.media.0.codec.long_name">MJPEG (Motion JPEG)</property>
  <property name="meta.media.0.codec.bit_rate">0</property>
  <property name="meta.attr.0.stream.HANDLER_NAME.markup">VideoHandler</property>
  <property name="meta.attr.0.stream.VENDOR_ID.markup">[0][0][0][0]</property>
  <property name="meta.attr.0.stream.ENCODER.markup">Lavc60.3.100 mjpeg</property>
  <property name="meta.attr.0.stream.DURATION.markup">00:00:02.000000000</property>
  <property name="meta.attr.COMMENT.markup">Rendered with Manim Community v0.17.2</property>
  <property name="meta.attr.MAJOR_BRAND.markup">isom</property>
  <property name="meta.attr.MINOR_VERSION.markup">512</property>
  <property name="meta.attr.COMPATIBLE_BRANDS.markup">isomiso2avc1mp41</property>
  <property name="meta.attr.ENCODER.markup">Lavf60.3.100</property>
  <property name="seekable">1</property>
  <property name="meta.media.sample_aspect_num">1</property>
  <property name="meta.media.sample_aspect_den">1</property>
  <property name="aspect_ratio">1</property>
  <property name="format">3</property>
  <property name="audio_index">-1</property>
  <property name="video_index">0</property>
  <property name="mute_on_pause">0</property>
  <property name="mlt_service">avformat-novalidate</property>
  <property name="kdenlive:clipname">18.mp4</property>
  <property name="kdenlive:clip_type">2</property>
  <property name="kdenlive:folderid">488</property>
  <property name="kdenlive:id">389</property>
  <property name="kdenlive:file_size">168538</property>
  <property name="kdenlive:file_hash">9fcc1e4263a7a2a4ef64c8fb7311ec63</property>
  <property name="kdenlive:proxy">/home/xiaoxiae/.cache/kdenlive/proxy/9fcc1e4263a7a2a4ef64c8fb7311ec63.mkv</property>
  <property name="kdenlive:originalurl">video/Insertion/18.mp4</property>
  <property name="kdenlive:original.mlt_type">producer</property>
  <property name="kdenlive:original.in">00:00:00.000</property>
  <property name="kdenlive:original.out">00:00:01.983</property>
  <property name="kdenlive:original.length">120</property>
  <property name="kdenlive:original.eof">pause</property>
  <property name="kdenlive:original.resource">video/Insertion/18.mp4</property>
  <property name="kdenlive:original.meta.media.nb_streams">1</property>
  <property name="kdenlive:original.meta.media.0.stream.type">video</property>
  <property name="kdenlive:original.meta.media.0.stream.frame_rate">60</property>
  <property name="kdenlive:original.meta.media.0.stream.sample_aspect_ratio">0</property>
  <property name="kdenlive:original.meta.media.0.codec.width">3840</property>
  <property name="kdenlive:original.meta.media.0.codec.height">2160</property>
  <property name="kdenlive:original.meta.media.0.codec.rotate">0</property>
  <property name="kdenlive:original.meta.media.0.codec.pix_fmt">yuv420p</property>
  <property name="kdenlive:original.meta.media.0.codec.sample_aspect_ratio">0</property>
  <property name="kdenlive:original.meta.media.0.codec.colorspace">709</property>
  <property name="kdenlive:original.meta.media.0.codec.name">h264</property>
  <property name="kdenlive:original.meta.media.0.codec.long_name">H.264 / AVC / MPEG-4 AVC / MPEG-4 part 10</property>
  <property name="kdenlive:original.meta.media.0.codec.bit_rate">664716</property>
  <property name="kdenlive:original.meta.attr.0.stream.handler_name.markup">VideoHandler</property>
  <property name="kdenlive:original.meta.attr.0.stream.vendor_id.markup">[0][0][0][0]</property>
  <property name="kdenlive:original.meta.attr.0.stream.encoder.markup">Lavc60.3.100 libx264</property>
  <property name="kdenlive:original.meta.attr.major_brand.markup">isom</property>
  <property name="kdenlive:original.meta.attr.minor_version.markup">512</property>
  <property name="kdenlive:original.meta.attr.compatible_brands.markup">isomiso2avc1mp41</property>
  <property name="kdenlive:original.meta.attr.encoder.markup">Lavf60.3.100</property>
  <property name="kdenlive:original.meta.attr.comment.markup">Rendered with Manim Community v0.17.2</property>
  <property name="kdenlive:original.seekable">1</property>
  <property name="kdenlive:original.width">3840</property>
  <property name="kdenlive:original.height">2160</property>
  <property name="kdenlive:original.meta.media.sample_aspect_num">1</property>
  <property name="kdenlive:original.meta.media.sample_aspect_den">1</property>
  <property name="kdenlive:original.aspect_ratio">1</property>
  <property name="kdenlive:original.format">3</property>
  <property name="kdenlive:original.audio_index">-1</property>
  <property name="kdenlive:original.video_index">0</property>
  <property name="kdenlive:original.mute_on_pause">0</property>
  <property name="kdenlive:original.mlt_service">avformat-novalidate</property>
  <property name="kdenlive:original.meta.media.frame_rate_num">60</property>
  <property name="kdenlive:original.meta.media.frame_rate_den">1</property>
  <property name="kdenlive:original.meta.media.colorspace">709</property>
  <property name="kdenlive:original.meta.media.color_trc">2</property>
  <property name="kdenlive:original.meta.media.has_b_frames">2</property>
  <property name="kdenlive:original.meta.media.width">3840</property>
  <property name="kdenlive:original.meta.media.height">2160</property>
  <property name="kdenlive:original.meta.media.color_range">mpeg</property>
  <property name="kdenlive:original.meta.media.top_field_first">0</property>
  <property name="kdenlive:original.meta.media.progressive">1</property>
  <property name="kdenlive:original.kdenlive:clip_type">2</property>
  <property name="kdenlive:original.kdenlive:folderid">488</property>
  <property name="kdenlive:original.kdenlive:id">498</property>
  <property name="kdenlive:original.kdenlive:file_size">168538</property>
  <property name="kdenlive:original.kdenlive:file_hash">9fcc1e4263a7a2a4ef64c8fb7311ec63</property>
  <property name="kdenlive:original.backup">1</property>
  <property name="meta.media.frame_rate_num">60</property>
  <property name="meta.media.frame_rate_den">1</property>
  <property name="meta.media.colorspace">601</property>
  <property name="meta.media.color_trc">2</property>
  <property name="meta.media.has_b_frames">0</property>
  <property name="meta.media.width">640</property>
  <property name="meta.media.height">360</property>
  <property name="meta.media.color_range">full</property>
  <property name="meta.media.top_field_first">0</property>
  <property name="meta.media.progressive">1</property>
 </producer>
 <producer id="producer312" in="00:00:00.000" out="00:00:00.983">
  <property name="length">60</property>
  <property name="eof">pause</property>
  <property name="resource">/home/xiaoxiae/.cache/kdenlive/proxy/54a159880e280a5da8d2b69bc662979c.mkv</property>
  <property name="meta.media.nb_streams">1</property>
  <property name="meta.media.0.stream.type">video</property>
  <property name="meta.media.0.stream.frame_rate">60</property>
  <property name="meta.media.0.stream.sample_aspect_ratio">0</property>
  <property name="meta.media.0.codec.width">640</property>
  <property name="meta.media.0.codec.height">360</property>
  <property name="meta.media.0.codec.rotate">0</property>
  <property name="meta.media.0.codec.pix_fmt">yuvj420p</property>
  <property name="meta.media.0.codec.sample_aspect_ratio">0</property>
  <property name="meta.media.0.codec.colorspace">601</property>
  <property name="meta.media.0.codec.name">mjpeg</property>
  <property name="meta.media.0.codec.long_name">MJPEG (Motion JPEG)</property>
  <property name="meta.media.0.codec.bit_rate">0</property>
  <property name="meta.attr.0.stream.HANDLER_NAME.markup">VideoHandler</property>
  <property name="meta.attr.0.stream.VENDOR_ID.markup">[0][0][0][0]</property>
  <property name="meta.attr.0.stream.ENCODER.markup">Lavc60.3.100 mjpeg</property>
  <property name="meta.attr.0.stream.DURATION.markup">00:00:01.000000000</property>
  <property name="meta.attr.COMMENT.markup">Rendered with Manim Community v0.17.2</property>
  <property name="meta.attr.MAJOR_BRAND.markup">isom</property>
  <property name="meta.attr.MINOR_VERSION.markup">512</property>
  <property name="meta.attr.COMPATIBLE_BRANDS.markup">isomiso2avc1mp41</property>
  <property name="meta.attr.ENCODER.markup">Lavf60.3.100</property>
  <property name="seekable">1</property>
  <property name="meta.media.sample_aspect_num">1</property>
  <property name="meta.media.sample_aspect_den">1</property>
  <property name="aspect_ratio">1</property>
  <property name="format">3</property>
  <property name="audio_index">-1</property>
  <property name="video_index">0</property>
  <property name="mute_on_pause">0</property>
  <property name="mlt_service">avformat-novalidate</property>
  <property name="kdenlive:clipname">19.mp4</property>
  <property name="kdenlive:clip_type">2</property>
  <property name="kdenlive:folderid">488</property>
  <property name="kdenlive:id">390</property>
  <property name="kdenlive:file_size">142060</property>
  <property name="kdenlive:file_hash">54a159880e280a5da8d2b69bc662979c</property>
  <property name="kdenlive:proxy">/home/xiaoxiae/.cache/kdenlive/proxy/54a159880e280a5da8d2b69bc662979c.mkv</property>
  <property name="kdenlive:originalurl">video/Insertion/19.mp4</property>
  <property name="kdenlive:original.mlt_type">producer</property>
  <property name="kdenlive:original.in">00:00:00.000</property>
  <property name="kdenlive:original.out">00:00:00.983</property>
  <property name="kdenlive:original.length">60</property>
  <property name="kdenlive:original.eof">pause</property>
  <property name="kdenlive:original.resource">video/Insertion/19.mp4</property>
  <property name="kdenlive:original.meta.media.nb_streams">1</property>
  <property name="kdenlive:original.meta.media.0.stream.type">video</property>
  <property name="kdenlive:original.meta.media.0.stream.frame_rate">60</property>
  <property name="kdenlive:original.meta.media.0.stream.sample_aspect_ratio">0</property>
  <property name="kdenlive:original.meta.media.0.codec.width">3840</property>
  <property name="kdenlive:original.meta.media.0.codec.height">2160</property>
  <property name="kdenlive:original.meta.media.0.codec.rotate">0</property>
  <property name="kdenlive:original.meta.media.0.codec.pix_fmt">yuv420p</property>
  <property name="kdenlive:original.meta.media.0.codec.sample_aspect_ratio">0</property>
  <property name="kdenlive:original.meta.media.0.codec.colorspace">709</property>
  <property name="kdenlive:original.meta.media.0.codec.name">h264</property>
  <property name="kdenlive:original.meta.media.0.codec.long_name">H.264 / AVC / MPEG-4 AVC / MPEG-4 part 10</property>
  <property name="kdenlive:original.meta.media.0.codec.bit_rate">1123752</property>
  <property name="kdenlive:original.meta.attr.0.stream.handler_name.markup">VideoHandler</property>
  <property name="kdenlive:original.meta.attr.0.stream.vendor_id.markup">[0][0][0][0]</property>
  <property name="kdenlive:original.meta.attr.0.stream.encoder.markup">Lavc60.3.100 libx264</property>
  <property name="kdenlive:original.meta.attr.major_brand.markup">isom</property>
  <property name="kdenlive:original.meta.attr.minor_version.markup">512</property>
  <property name="kdenlive:original.meta.attr.compatible_brands.markup">isomiso2avc1mp41</property>
  <property name="kdenlive:original.meta.attr.encoder.markup">Lavf60.3.100</property>
  <property name="kdenlive:original.meta.attr.comment.markup">Rendered with Manim Community v0.17.2</property>
  <property name="kdenlive:original.seekable">1</property>
  <property name="kdenlive:original.width">3840</property>
  <property name="kdenlive:original.height">2160</property>
  <property name="kdenlive:original.meta.media.sample_aspect_num">1</property>
  <property name="kdenlive:original.meta.media.sample_aspect_den">1</property>
  <property name="kdenlive:original.aspect_ratio">1</property>
  <property name="kdenlive:original.format">3</property>
  <property name="kdenlive:original.audio_index">-1</property>
  <property name="kdenlive:original.video_index">0</property>
  <property name="kdenlive:original.mute_on_pause">0</property>
  <property name="kdenlive:original.mlt_service">avformat-novalidate</property>
  <property name="kdenlive:original.meta.media.frame_rate_num">60</property>
  <property name="kdenlive:original.meta.media.frame_rate_den">1</property>
  <property name="kdenlive:original.meta.media.colorspace">709</property>
  <property name="kdenlive:original.meta.media.color_trc">2</property>
  <property name="kdenlive:original.meta.media.has_b_frames">2</property>
  <property name="kdenlive:original.meta.media.width">3840</property>
  <property name="kdenlive:original.meta.media.height">2160</property>
  <property name="kdenlive:original.meta.media.color_range">mpeg</property>
  <property name="kdenlive:original.meta.media.top_field_first">0</property>
  <property name="kdenlive:original.meta.media.progressive">1</property>
  <property name="kdenlive:original.kdenlive:clip_type">2</property>
  <property name="kdenlive:original.kdenlive:folderid">488</property>
  <property name="kdenlive:original.kdenlive:id">499</property>
  <property name="kdenlive:original.kdenlive:file_size">142060</property>
  <property name="kdenlive:original.kdenlive:file_hash">54a159880e280a5da8d2b69bc662979c</property>
  <property name="kdenlive:original.backup">1</property>
  <property name="meta.media.frame_rate_num">60</property>
  <property name="meta.media.frame_rate_den">1</property>
  <property name="meta.media.colorspace">601</property>
  <property name="meta.media.color_trc">2</property>
  <property name="meta.media.has_b_frames">0</property>
  <property name="meta.media.width">640</property>
  <property name="meta.media.height">360</property>
  <property name="meta.media.color_range">full</property>
  <property name="meta.media.top_field_first">0</property>
  <property name="meta.media.progressive">1</property>
 </producer>
 <producer id="producer313" in="00:00:00.000" out="00:00:00.983">
  <property name="length">60</property>
  <property name="eof">pause</property>
  <property name="resource">/home/xiaoxiae/.cache/kdenlive/proxy/304c58c5f380b96547ae2ac348e5e7e8.mkv</property>
  <property name="meta.media.nb_streams">1</property>
  <property name="meta.media.0.stream.type">video</property>
  <property name="meta.media.0.stream.frame_rate">60</property>
  <property name="meta.media.0.stream.sample_aspect_ratio">0</property>
  <property name="meta.media.0.codec.width">640</property>
  <property name="meta.media.0.codec.height">360</property>
  <property name="meta.media.0.codec.rotate">0</property>
  <property name="meta.media.0.codec.pix_fmt">yuvj420p</property>
  <property name="meta.media.0.codec.sample_aspect_ratio">0</property>
  <property name="meta.media.0.codec.colorspace">601</property>
  <property name="meta.media.0.codec.name">mjpeg</property>
  <property name="meta.media.0.codec.long_name">MJPEG (Motion JPEG)</property>
  <property name="meta.media.0.codec.bit_rate">0</property>
  <property name="meta.attr.0.stream.HANDLER_NAME.markup">VideoHandler</property>
  <property name="meta.attr.0.stream.VENDOR_ID.markup">[0][0][0][0]</property>
  <property name="meta.attr.0.stream.ENCODER.markup">Lavc60.3.100 mjpeg</property>
  <property name="meta.attr.0.stream.DURATION.markup">00:00:01.000000000</property>
  <property name="meta.attr.COMMENT.markup">Rendered with Manim Community v0.17.2</property>
  <property name="meta.attr.MAJOR_BRAND.markup">isom</property>
  <property name="meta.attr.MINOR_VERSION.markup">512</property>
  <property name="meta.attr.COMPATIBLE_BRANDS.markup">isomiso2avc1mp41</property>
  <property name="meta.attr.ENCODER.markup">Lavf60.3.100</property>
  <property name="seekable">1</property>
  <property name="meta.media.sample_aspect_num">1</property>
  <property name="meta.media.sample_aspect_den">1</property>
  <property name="aspect_ratio">1</property>
  <property name="format">3</property>
  <property name="audio_index">-1</property>
  <property name="video_index">0</property>
  <property name="mute_on_pause">0</property>
  <property name="mlt_service">avformat-novalidate</property>
  <property name="kdenlive:clipname">2.mp4</property>
  <property name="kdenlive:clip_type">2</property>
  <property name="kdenlive:folderid">488</property>
  <property name="kdenlive:id">391</property>
  <property name="kdenlive:file_size">69107</property>
  <property name="kdenlive:file_hash">304c58c5f380b96547ae2ac348e5e7e8</property>
  <property name="kdenlive:proxy">/home/xiaoxiae/.cache/kdenlive/proxy/304c58c5f380b96547ae2ac348e5e7e8.mkv</property>
  <property name="kdenlive:originalurl">video/Insertion/2.mp4</property>
  <property name="kdenlive:original.mlt_type">producer</property>
  <property name="kdenlive:original.in">00:00:00.000</property>
  <property name="kdenlive:original.out">00:00:00.983</property>
  <property name="kdenlive:original.length">60</property>
  <property name="kdenlive:original.eof">pause</property>
  <property name="kdenlive:original.resource">video/Insertion/2.mp4</property>
  <property name="kdenlive:original.meta.media.nb_streams">1</property>
  <property name="kdenlive:original.meta.media.0.stream.type">video</property>
  <property name="kdenlive:original.meta.media.0.stream.frame_rate">60</property>
  <property name="kdenlive:original.meta.media.0.stream.sample_aspect_ratio">0</property>
  <property name="kdenlive:original.meta.media.0.codec.width">3840</property>
  <property name="kdenlive:original.meta.media.0.codec.height">2160</property>
  <property name="kdenlive:original.meta.media.0.codec.rotate">0</property>
  <property name="kdenlive:original.meta.media.0.codec.pix_fmt">yuv420p</property>
  <property name="kdenlive:original.meta.media.0.codec.sample_aspect_ratio">0</property>
  <property name="kdenlive:original.meta.media.0.codec.colorspace">709</property>
  <property name="kdenlive:original.meta.media.0.codec.name">h264</property>
  <property name="kdenlive:original.meta.media.0.codec.long_name">H.264 / AVC / MPEG-4 AVC / MPEG-4 part 10</property>
  <property name="kdenlive:original.meta.media.0.codec.bit_rate">539808</property>
  <property name="kdenlive:original.meta.attr.0.stream.handler_name.markup">VideoHandler</property>
  <property name="kdenlive:original.meta.attr.0.stream.vendor_id.markup">[0][0][0][0]</property>
  <property name="kdenlive:original.meta.attr.0.stream.encoder.markup">Lavc60.3.100 libx264</property>
  <property name="kdenlive:original.meta.attr.major_brand.markup">isom</property>
  <property name="kdenlive:original.meta.attr.minor_version.markup">512</property>
  <property name="kdenlive:original.meta.attr.compatible_brands.markup">isomiso2avc1mp41</property>
  <property name="kdenlive:original.meta.attr.encoder.markup">Lavf60.3.100</property>
  <property name="kdenlive:original.meta.attr.comment.markup">Rendered with Manim Community v0.17.2</property>
  <property name="kdenlive:original.seekable">1</property>
  <property name="kdenlive:original.width">3840</property>
  <property name="kdenlive:original.height">2160</property>
  <property name="kdenlive:original.meta.media.sample_aspect_num">1</property>
  <property name="kdenlive:original.meta.media.sample_aspect_den">1</property>
  <property name="kdenlive:original.aspect_ratio">1</property>
  <property name="kdenlive:original.format">3</property>
  <property name="kdenlive:original.audio_index">-1</property>
  <property name="kdenlive:original.video_index">0</property>
  <property name="kdenlive:original.mute_on_pause">0</property>
  <property name="kdenlive:original.mlt_service">avformat-novalidate</property>
  <property name="kdenlive:original.meta.media.frame_rate_num">60</property>
  <property name="kdenlive:original.meta.media.frame_rate_den">1</property>
  <property name="kdenlive:original.meta.media.colorspace">709</property>
  <property name="kdenlive:original.meta.media.color_trc">2</property>
  <property name="kdenlive:original.meta.media.has_b_frames">2</property>
  <property name="kdenlive:original.meta.media.width">3840</property>
  <property name="kdenlive:original.meta.media.height">2160</property>
  <property name="kdenlive:original.meta.media.color_range">mpeg</property>
  <property name="kdenlive:original.meta.media.top_field_first">0</property>
  <property name="kdenlive:original.meta.media.progressive">1</property>
  <property name="kdenlive:original.kdenlive:clip_type">2</property>
  <property name="kdenlive:original.kdenlive:folderid">488</property>
  <property name="kdenlive:original.kdenlive:id">500</property>
  <property name="kdenlive:original.kdenlive:file_size">69107</property>
  <property name="kdenlive:original.kdenlive:file_hash">304c58c5f380b96547ae2ac348e5e7e8</property>
  <property name="kdenlive:original.backup">1</property>
  <property name="meta.media.frame_rate_num">60</property>
  <property name="meta.media.frame_rate_den">1</property>
  <property name="meta.media.colorspace">601</property>
  <property name="meta.media.color_trc">2</property>
  <property name="meta.media.has_b_frames">0</property>
  <property name="meta.media.width">640</property>
  <property name="meta.media.height">360</property>
  <property name="meta.media.color_range">full</property>
  <property name="meta.media.top_field_first">0</property>
  <property name="meta.media.progressive">1</property>
 </producer>
 <producer id="producer315" in="00:00:00.000" out="00:00:00.983">
  <property name="length">60</property>
  <property name="eof">pause</property>
  <property name="resource">/home/xiaoxiae/.cache/kdenlive/proxy/02938f9f1f89febcf7071146205ad613.mkv</property>
  <property name="meta.media.nb_streams">1</property>
  <property name="meta.media.0.stream.type">video</property>
  <property name="meta.media.0.stream.frame_rate">60</property>
  <property name="meta.media.0.stream.sample_aspect_ratio">0</property>
  <property name="meta.media.0.codec.width">640</property>
  <property name="meta.media.0.codec.height">360</property>
  <property name="meta.media.0.codec.rotate">0</property>
  <property name="meta.media.0.codec.pix_fmt">yuvj420p</property>
  <property name="meta.media.0.codec.sample_aspect_ratio">0</property>
  <property name="meta.media.0.codec.colorspace">601</property>
  <property name="meta.media.0.codec.name">mjpeg</property>
  <property name="meta.media.0.codec.long_name">MJPEG (Motion JPEG)</property>
  <property name="meta.media.0.codec.bit_rate">0</property>
  <property name="meta.attr.0.stream.HANDLER_NAME.markup">VideoHandler</property>
  <property name="meta.attr.0.stream.VENDOR_ID.markup">[0][0][0][0]</property>
  <property name="meta.attr.0.stream.ENCODER.markup">Lavc60.3.100 mjpeg</property>
  <property name="meta.attr.0.stream.DURATION.markup">00:00:01.000000000</property>
  <property name="meta.attr.COMMENT.markup">Rendered with Manim Community v0.17.2</property>
  <property name="meta.attr.MAJOR_BRAND.markup">isom</property>
  <property name="meta.attr.MINOR_VERSION.markup">512</property>
  <property name="meta.attr.COMPATIBLE_BRANDS.markup">isomiso2avc1mp41</property>
  <property name="meta.attr.ENCODER.markup">Lavf60.3.100</property>
  <property name="seekable">1</property>
  <property name="meta.media.sample_aspect_num">1</property>
  <property name="meta.media.sample_aspect_den">1</property>
  <property name="aspect_ratio">1</property>
  <property name="format">3</property>
  <property name="audio_index">-1</property>
  <property name="video_index">0</property>
  <property name="mute_on_pause">0</property>
  <property name="mlt_service">avformat-novalidate</property>
  <property name="kdenlive:clipname">20.mp4</property>
  <property name="kdenlive:clip_type">2</property>
  <property name="kdenlive:folderid">488</property>
  <property name="kdenlive:id">392</property>
  <property name="kdenlive:file_size">102571</property>
  <property name="kdenlive:file_hash">02938f9f1f89febcf7071146205ad613</property>
  <property name="kdenlive:proxy">/home/xiaoxiae/.cache/kdenlive/proxy/02938f9f1f89febcf7071146205ad613.mkv</property>
  <property name="kdenlive:originalurl">video/Insertion/20.mp4</property>
  <property name="kdenlive:original.mlt_type">producer</property>
  <property name="kdenlive:original.in">00:00:00.000</property>
  <property name="kdenlive:original.out">00:00:00.983</property>
  <property name="kdenlive:original.length">60</property>
  <property name="kdenlive:original.eof">pause</property>
  <property name="kdenlive:original.resource">video/Insertion/20.mp4</property>
  <property name="kdenlive:original.meta.media.nb_streams">1</property>
  <property name="kdenlive:original.meta.media.0.stream.type">video</property>
  <property name="kdenlive:original.meta.media.0.stream.frame_rate">60</property>
  <property name="kdenlive:original.meta.media.0.stream.sample_aspect_ratio">0</property>
  <property name="kdenlive:original.meta.media.0.codec.width">3840</property>
  <property name="kdenlive:original.meta.media.0.codec.height">2160</property>
  <property name="kdenlive:original.meta.media.0.codec.rotate">0</property>
  <property name="kdenlive:original.meta.media.0.codec.pix_fmt">yuv420p</property>
  <property name="kdenlive:original.meta.media.0.codec.sample_aspect_ratio">0</property>
  <property name="kdenlive:original.meta.media.0.codec.colorspace">709</property>
  <property name="kdenlive:original.meta.media.0.codec.name">h264</property>
  <property name="kdenlive:original.meta.media.0.codec.long_name">H.264 / AVC / MPEG-4 AVC / MPEG-4 part 10</property>
  <property name="kdenlive:original.meta.media.0.codec.bit_rate">807520</property>
  <property name="kdenlive:original.meta.attr.0.stream.handler_name.markup">VideoHandler</property>
  <property name="kdenlive:original.meta.attr.0.stream.vendor_id.markup">[0][0][0][0]</property>
  <property name="kdenlive:original.meta.attr.0.stream.encoder.markup">Lavc60.3.100 libx264</property>
  <property name="kdenlive:original.meta.attr.major_brand.markup">isom</property>
  <property name="kdenlive:original.meta.attr.minor_version.markup">512</property>
  <property name="kdenlive:original.meta.attr.compatible_brands.markup">isomiso2avc1mp41</property>
  <property name="kdenlive:original.meta.attr.encoder.markup">Lavf60.3.100</property>
  <property name="kdenlive:original.meta.attr.comment.markup">Rendered with Manim Community v0.17.2</property>
  <property name="kdenlive:original.seekable">1</property>
  <property name="kdenlive:original.width">3840</property>
  <property name="kdenlive:original.height">2160</property>
  <property name="kdenlive:original.meta.media.sample_aspect_num">1</property>
  <property name="kdenlive:original.meta.media.sample_aspect_den">1</property>
  <property name="kdenlive:original.aspect_ratio">1</property>
  <property name="kdenlive:original.format">3</property>
  <property name="kdenlive:original.audio_index">-1</property>
  <property name="kdenlive:original.video_index">0</property>
  <property name="kdenlive:original.mute_on_pause">0</property>
  <property name="kdenlive:original.mlt_service">avformat-novalidate</property>
  <property name="kdenlive:original.meta.media.frame_rate_num">60</property>
  <property name="kdenlive:original.meta.media.frame_rate_den">1</property>
  <property name="kdenlive:original.meta.media.colorspace">709</property>
  <property name="kdenlive:original.meta.media.color_trc">2</property>
  <property name="kdenlive:original.meta.media.has_b_frames">2</property>
  <property name="kdenlive:original.meta.media.width">3840</property>
  <property name="kdenlive:original.meta.media.height">2160</property>
  <property name="kdenlive:original.meta.media.color_range">mpeg</property>
  <property name="kdenlive:original.meta.media.top_field_first">0</property>
  <property name="kdenlive:original.meta.media.progressive">1</property>
  <property name="kdenlive:original.kdenlive:clip_type">2</property>
  <property name="kdenlive:original.kdenlive:folderid">488</property>
  <property name="kdenlive:original.kdenlive:id">501</property>
  <property name="kdenlive:original.kdenlive:file_size">102571</property>
  <property name="kdenlive:original.kdenlive:file_hash">02938f9f1f89febcf7071146205ad613</property>
  <property name="kdenlive:original.backup">1</property>
  <property name="meta.media.frame_rate_num">60</property>
  <property name="meta.media.frame_rate_den">1</property>
  <property name="meta.media.colorspace">601</property>
  <property name="meta.media.color_trc">2</property>
  <property name="meta.media.has_b_frames">0</property>
  <property name="meta.media.width">640</property>
  <property name="meta.media.height">360</property>
  <property name="meta.media.color_range">full</property>
  <property name="meta.media.top_field_first">0</property>
  <property name="meta.media.progressive">1</property>
 </producer>
 <producer id="producer314" in="00:00:00.000" out="00:00:02.233">
  <property name="length">135</property>
  <property name="eof">pause</property>
  <property name="resource">/home/xiaoxiae/.cache/kdenlive/proxy/ee81d2e476f9ed3b2c9612272521ca6c.mkv</property>
  <property name="meta.media.nb_streams">1</property>
  <property name="meta.media.0.stream.type">video</property>
  <property name="meta.media.0.stream.frame_rate">60</property>
  <property name="meta.media.0.stream.sample_aspect_ratio">0</property>
  <property name="meta.media.0.codec.width">640</property>
  <property name="meta.media.0.codec.height">360</property>
  <property name="meta.media.0.codec.rotate">0</property>
  <property name="meta.media.0.codec.pix_fmt">yuvj420p</property>
  <property name="meta.media.0.codec.sample_aspect_ratio">0</property>
  <property name="meta.media.0.codec.colorspace">601</property>
  <property name="meta.media.0.codec.name">mjpeg</property>
  <property name="meta.media.0.codec.long_name">MJPEG (Motion JPEG)</property>
  <property name="meta.media.0.codec.bit_rate">0</property>
  <property name="meta.attr.0.stream.HANDLER_NAME.markup">VideoHandler</property>
  <property name="meta.attr.0.stream.VENDOR_ID.markup">[0][0][0][0]</property>
  <property name="meta.attr.0.stream.ENCODER.markup">Lavc60.3.100 mjpeg</property>
  <property name="meta.attr.0.stream.DURATION.markup">00:00:02.250000000</property>
  <property name="meta.attr.COMMENT.markup">Rendered with Manim Community v0.17.2</property>
  <property name="meta.attr.MAJOR_BRAND.markup">isom</property>
  <property name="meta.attr.MINOR_VERSION.markup">512</property>
  <property name="meta.attr.COMPATIBLE_BRANDS.markup">isomiso2avc1mp41</property>
  <property name="meta.attr.ENCODER.markup">Lavf60.3.100</property>
  <property name="seekable">1</property>
  <property name="meta.media.sample_aspect_num">1</property>
  <property name="meta.media.sample_aspect_den">1</property>
  <property name="aspect_ratio">1</property>
  <property name="format">3</property>
  <property name="audio_index">-1</property>
  <property name="video_index">0</property>
  <property name="mute_on_pause">0</property>
  <property name="mlt_service">avformat-novalidate</property>
  <property name="kdenlive:clipname">21.mp4</property>
  <property name="kdenlive:clip_type">2</property>
  <property name="kdenlive:folderid">488</property>
  <property name="kdenlive:id">393</property>
  <property name="kdenlive:file_size">279114</property>
  <property name="kdenlive:file_hash">ee81d2e476f9ed3b2c9612272521ca6c</property>
  <property name="kdenlive:proxy">/home/xiaoxiae/.cache/kdenlive/proxy/ee81d2e476f9ed3b2c9612272521ca6c.mkv</property>
  <property name="kdenlive:originalurl">video/Insertion/21.mp4</property>
  <property name="kdenlive:original.mlt_type">producer</property>
  <property name="kdenlive:original.in">00:00:00.000</property>
  <property name="kdenlive:original.out">00:00:02.233</property>
  <property name="kdenlive:original.length">135</property>
  <property name="kdenlive:original.eof">pause</property>
  <property name="kdenlive:original.resource">video/Insertion/21.mp4</property>
  <property name="kdenlive:original.meta.media.nb_streams">1</property>
  <property name="kdenlive:original.meta.media.0.stream.type">video</property>
  <property name="kdenlive:original.meta.media.0.stream.frame_rate">60</property>
  <property name="kdenlive:original.meta.media.0.stream.sample_aspect_ratio">0</property>
  <property name="kdenlive:original.meta.media.0.codec.width">3840</property>
  <property name="kdenlive:original.meta.media.0.codec.height">2160</property>
  <property name="kdenlive:original.meta.media.0.codec.rotate">0</property>
  <property name="kdenlive:original.meta.media.0.codec.pix_fmt">yuv420p</property>
  <property name="kdenlive:original.meta.media.0.codec.sample_aspect_ratio">0</property>
  <property name="kdenlive:original.meta.media.0.codec.colorspace">709</property>
  <property name="kdenlive:original.meta.media.0.codec.name">h264</property>
  <property name="kdenlive:original.meta.media.0.codec.long_name">H.264 / AVC / MPEG-4 AVC / MPEG-4 part 10</property>
  <property name="kdenlive:original.meta.media.0.codec.bit_rate">983434</property>
  <property name="kdenlive:original.meta.attr.0.stream.handler_name.markup">VideoHandler</property>
  <property name="kdenlive:original.meta.attr.0.stream.vendor_id.markup">[0][0][0][0]</property>
  <property name="kdenlive:original.meta.attr.0.stream.encoder.markup">Lavc60.3.100 libx264</property>
  <property name="kdenlive:original.meta.attr.major_brand.markup">isom</property>
  <property name="kdenlive:original.meta.attr.minor_version.markup">512</property>
  <property name="kdenlive:original.meta.attr.compatible_brands.markup">isomiso2avc1mp41</property>
  <property name="kdenlive:original.meta.attr.encoder.markup">Lavf60.3.100</property>
  <property name="kdenlive:original.meta.attr.comment.markup">Rendered with Manim Community v0.17.2</property>
  <property name="kdenlive:original.seekable">1</property>
  <property name="kdenlive:original.width">3840</property>
  <property name="kdenlive:original.height">2160</property>
  <property name="kdenlive:original.meta.media.sample_aspect_num">1</property>
  <property name="kdenlive:original.meta.media.sample_aspect_den">1</property>
  <property name="kdenlive:original.aspect_ratio">1</property>
  <property name="kdenlive:original.format">3</property>
  <property name="kdenlive:original.audio_index">-1</property>
  <property name="kdenlive:original.video_index">0</property>
  <property name="kdenlive:original.mute_on_pause">0</property>
  <property name="kdenlive:original.mlt_service">avformat-novalidate</property>
  <property name="kdenlive:original.meta.media.frame_rate_num">60</property>
  <property name="kdenlive:original.meta.media.frame_rate_den">1</property>
  <property name="kdenlive:original.meta.media.colorspace">709</property>
  <property name="kdenlive:original.meta.media.color_trc">2</property>
  <property name="kdenlive:original.meta.media.has_b_frames">2</property>
  <property name="kdenlive:original.meta.media.width">3840</property>
  <property name="kdenlive:original.meta.media.height">2160</property>
  <property name="kdenlive:original.meta.media.color_range">mpeg</property>
  <property name="kdenlive:original.meta.media.top_field_first">0</property>
  <property name="kdenlive:original.meta.media.progressive">1</property>
  <property name="kdenlive:original.kdenlive:clip_type">2</property>
  <property name="kdenlive:original.kdenlive:folderid">488</property>
  <property name="kdenlive:original.kdenlive:id">502</property>
  <property name="kdenlive:original.kdenlive:file_size">279114</property>
  <property name="kdenlive:original.kdenlive:file_hash">ee81d2e476f9ed3b2c9612272521ca6c</property>
  <property name="kdenlive:original.backup">1</property>
  <property name="meta.media.frame_rate_num">60</property>
  <property name="meta.media.frame_rate_den">1</property>
  <property name="meta.media.colorspace">601</property>
  <property name="meta.media.color_trc">2</property>
  <property name="meta.media.has_b_frames">0</property>
  <property name="meta.media.width">640</property>
  <property name="meta.media.height">360</property>
  <property name="meta.media.color_range">full</property>
  <property name="meta.media.top_field_first">0</property>
  <property name="meta.media.progressive">1</property>
 </producer>
 <producer id="producer316" in="00:00:00.000" out="00:00:00.983">
  <property name="length">60</property>
  <property name="eof">pause</property>
  <property name="resource">/home/xiaoxiae/.cache/kdenlive/proxy/b138839360e6865d4a6fbc868444b355.mkv</property>
  <property name="meta.media.nb_streams">1</property>
  <property name="meta.media.0.stream.type">video</property>
  <property name="meta.media.0.stream.frame_rate">60</property>
  <property name="meta.media.0.stream.sample_aspect_ratio">0</property>
  <property name="meta.media.0.codec.width">640</property>
  <property name="meta.media.0.codec.height">360</property>
  <property name="meta.media.0.codec.rotate">0</property>
  <property name="meta.media.0.codec.pix_fmt">yuvj420p</property>
  <property name="meta.media.0.codec.sample_aspect_ratio">0</property>
  <property name="meta.media.0.codec.colorspace">601</property>
  <property name="meta.media.0.codec.name">mjpeg</property>
  <property name="meta.media.0.codec.long_name">MJPEG (Motion JPEG)</property>
  <property name="meta.media.0.codec.bit_rate">0</property>
  <property name="meta.attr.0.stream.HANDLER_NAME.markup">VideoHandler</property>
  <property name="meta.attr.0.stream.VENDOR_ID.markup">[0][0][0][0]</property>
  <property name="meta.attr.0.stream.ENCODER.markup">Lavc60.3.100 mjpeg</property>
  <property name="meta.attr.0.stream.DURATION.markup">00:00:01.000000000</property>
  <property name="meta.attr.COMMENT.markup">Rendered with Manim Community v0.17.2</property>
  <property name="meta.attr.MAJOR_BRAND.markup">isom</property>
  <property name="meta.attr.MINOR_VERSION.markup">512</property>
  <property name="meta.attr.COMPATIBLE_BRANDS.markup">isomiso2avc1mp41</property>
  <property name="meta.attr.ENCODER.markup">Lavf60.3.100</property>
  <property name="seekable">1</property>
  <property name="meta.media.sample_aspect_num">1</property>
  <property name="meta.media.sample_aspect_den">1</property>
  <property name="aspect_ratio">1</property>
  <property name="format">3</property>
  <property name="audio_index">-1</property>
  <property name="video_index">0</property>
  <property name="mute_on_pause">0</property>
  <property name="mlt_service">avformat-novalidate</property>
  <property name="kdenlive:clipname">22.mp4</property>
  <property name="kdenlive:clip_type">2</property>
  <property name="kdenlive:folderid">488</property>
  <property name="kdenlive:id">394</property>
  <property name="kdenlive:file_size">98658</property>
  <property name="kdenlive:file_hash">b138839360e6865d4a6fbc868444b355</property>
  <property name="kdenlive:proxy">/home/xiaoxiae/.cache/kdenlive/proxy/b138839360e6865d4a6fbc868444b355.mkv</property>
  <property name="kdenlive:originalurl">video/Insertion/22.mp4</property>
  <property name="kdenlive:original.mlt_type">producer</property>
  <property name="kdenlive:original.in">00:00:00.000</property>
  <property name="kdenlive:original.out">00:00:00.983</property>
  <property name="kdenlive:original.length">60</property>
  <property name="kdenlive:original.eof">pause</property>
  <property name="kdenlive:original.resource">video/Insertion/22.mp4</property>
  <property name="kdenlive:original.meta.media.nb_streams">1</property>
  <property name="kdenlive:original.meta.media.0.stream.type">video</property>
  <property name="kdenlive:original.meta.media.0.stream.frame_rate">60</property>
  <property name="kdenlive:original.meta.media.0.stream.sample_aspect_ratio">0</property>
  <property name="kdenlive:original.meta.media.0.codec.width">3840</property>
  <property name="kdenlive:original.meta.media.0.codec.height">2160</property>
  <property name="kdenlive:original.meta.media.0.codec.rotate">0</property>
  <property name="kdenlive:original.meta.media.0.codec.pix_fmt">yuv420p</property>
  <property name="kdenlive:original.meta.media.0.codec.sample_aspect_ratio">0</property>
  <property name="kdenlive:original.meta.media.0.codec.colorspace">709</property>
  <property name="kdenlive:original.meta.media.0.codec.name">h264</property>
  <property name="kdenlive:original.meta.media.0.codec.long_name">H.264 / AVC / MPEG-4 AVC / MPEG-4 part 10</property>
  <property name="kdenlive:original.meta.media.0.codec.bit_rate">776216</property>
  <property name="kdenlive:original.meta.attr.0.stream.handler_name.markup">VideoHandler</property>
  <property name="kdenlive:original.meta.attr.0.stream.vendor_id.markup">[0][0][0][0]</property>
  <property name="kdenlive:original.meta.attr.0.stream.encoder.markup">Lavc60.3.100 libx264</property>
  <property name="kdenlive:original.meta.attr.major_brand.markup">isom</property>
  <property name="kdenlive:original.meta.attr.minor_version.markup">512</property>
  <property name="kdenlive:original.meta.attr.compatible_brands.markup">isomiso2avc1mp41</property>
  <property name="kdenlive:original.meta.attr.encoder.markup">Lavf60.3.100</property>
  <property name="kdenlive:original.meta.attr.comment.markup">Rendered with Manim Community v0.17.2</property>
  <property name="kdenlive:original.seekable">1</property>
  <property name="kdenlive:original.width">3840</property>
  <property name="kdenlive:original.height">2160</property>
  <property name="kdenlive:original.meta.media.sample_aspect_num">1</property>
  <property name="kdenlive:original.meta.media.sample_aspect_den">1</property>
  <property name="kdenlive:original.aspect_ratio">1</property>
  <property name="kdenlive:original.format">3</property>
  <property name="kdenlive:original.audio_index">-1</property>
  <property name="kdenlive:original.video_index">0</property>
  <property name="kdenlive:original.mute_on_pause">0</property>
  <property name="kdenlive:original.mlt_service">avformat-novalidate</property>
  <property name="kdenlive:original.meta.media.frame_rate_num">60</property>
  <property name="kdenlive:original.meta.media.frame_rate_den">1</property>
  <property name="kdenlive:original.meta.media.colorspace">709</property>
  <property name="kdenlive:original.meta.media.color_trc">2</property>
  <property name="kdenlive:original.meta.media.has_b_frames">2</property>
  <property name="kdenlive:original.meta.media.width">3840</property>
  <property name="kdenlive:original.meta.media.height">2160</property>
  <property name="kdenlive:original.meta.media.color_range">mpeg</property>
  <property name="kdenlive:original.meta.media.top_field_first">0</property>
  <property name="kdenlive:original.meta.media.progressive">1</property>
  <property name="kdenlive:original.kdenlive:clip_type">2</property>
  <property name="kdenlive:original.kdenlive:folderid">488</property>
  <property name="kdenlive:original.kdenlive:id">503</property>
  <property name="kdenlive:original.kdenlive:file_size">98658</property>
  <property name="kdenlive:original.kdenlive:file_hash">b138839360e6865d4a6fbc868444b355</property>
  <property name="kdenlive:original.backup">1</property>
  <property name="meta.media.frame_rate_num">60</property>
  <property name="meta.media.frame_rate_den">1</property>
  <property name="meta.media.colorspace">601</property>
  <property name="meta.media.color_trc">2</property>
  <property name="meta.media.has_b_frames">0</property>
  <property name="meta.media.width">640</property>
  <property name="meta.media.height">360</property>
  <property name="meta.media.color_range">full</property>
  <property name="meta.media.top_field_first">0</property>
  <property name="meta.media.progressive">1</property>
 </producer>
 <producer id="producer317" in="00:00:00.000" out="00:00:00.983">
  <property name="length">60</property>
  <property name="eof">pause</property>
  <property name="resource">/home/xiaoxiae/.cache/kdenlive/proxy/e79aac85319b1ab9b2b3cdc33111907c.mkv</property>
  <property name="meta.media.nb_streams">1</property>
  <property name="meta.media.0.stream.type">video</property>
  <property name="meta.media.0.stream.frame_rate">60</property>
  <property name="meta.media.0.stream.sample_aspect_ratio">0</property>
  <property name="meta.media.0.codec.width">640</property>
  <property name="meta.media.0.codec.height">360</property>
  <property name="meta.media.0.codec.rotate">0</property>
  <property name="meta.media.0.codec.pix_fmt">yuvj420p</property>
  <property name="meta.media.0.codec.sample_aspect_ratio">0</property>
  <property name="meta.media.0.codec.colorspace">601</property>
  <property name="meta.media.0.codec.name">mjpeg</property>
  <property name="meta.media.0.codec.long_name">MJPEG (Motion JPEG)</property>
  <property name="meta.media.0.codec.bit_rate">0</property>
  <property name="meta.attr.0.stream.HANDLER_NAME.markup">VideoHandler</property>
  <property name="meta.attr.0.stream.VENDOR_ID.markup">[0][0][0][0]</property>
  <property name="meta.attr.0.stream.ENCODER.markup">Lavc60.3.100 mjpeg</property>
  <property name="meta.attr.0.stream.DURATION.markup">00:00:01.000000000</property>
  <property name="meta.attr.COMMENT.markup">Rendered with Manim Community v0.17.2</property>
  <property name="meta.attr.MAJOR_BRAND.markup">isom</property>
  <property name="meta.attr.MINOR_VERSION.markup">512</property>
  <property name="meta.attr.COMPATIBLE_BRANDS.markup">isomiso2avc1mp41</property>
  <property name="meta.attr.ENCODER.markup">Lavf60.3.100</property>
  <property name="seekable">1</property>
  <property name="meta.media.sample_aspect_num">1</property>
  <property name="meta.media.sample_aspect_den">1</property>
  <property name="aspect_ratio">1</property>
  <property name="format">3</property>
  <property name="audio_index">-1</property>
  <property name="video_index">0</property>
  <property name="mute_on_pause">0</property>
  <property name="mlt_service">avformat-novalidate</property>
  <property name="kdenlive:clipname">23.mp4</property>
  <property name="kdenlive:clip_type">2</property>
  <property name="kdenlive:folderid">488</property>
  <property name="kdenlive:id">395</property>
  <property name="kdenlive:file_size">105120</property>
  <property name="kdenlive:file_hash">e79aac85319b1ab9b2b3cdc33111907c</property>
  <property name="kdenlive:proxy">/home/xiaoxiae/.cache/kdenlive/proxy/e79aac85319b1ab9b2b3cdc33111907c.mkv</property>
  <property name="kdenlive:originalurl">video/Insertion/23.mp4</property>
  <property name="kdenlive:original.mlt_type">producer</property>
  <property name="kdenlive:original.in">00:00:00.000</property>
  <property name="kdenlive:original.out">00:00:00.983</property>
  <property name="kdenlive:original.length">60</property>
  <property name="kdenlive:original.eof">pause</property>
  <property name="kdenlive:original.resource">video/Insertion/23.mp4</property>
  <property name="kdenlive:original.meta.media.nb_streams">1</property>
  <property name="kdenlive:original.meta.media.0.stream.type">video</property>
  <property name="kdenlive:original.meta.media.0.stream.frame_rate">60</property>
  <property name="kdenlive:original.meta.media.0.stream.sample_aspect_ratio">0</property>
  <property name="kdenlive:original.meta.media.0.codec.width">3840</property>
  <property name="kdenlive:original.meta.media.0.codec.height">2160</property>
  <property name="kdenlive:original.meta.media.0.codec.rotate">0</property>
  <property name="kdenlive:original.meta.media.0.codec.pix_fmt">yuv420p</property>
  <property name="kdenlive:original.meta.media.0.codec.sample_aspect_ratio">0</property>
  <property name="kdenlive:original.meta.media.0.codec.colorspace">709</property>
  <property name="kdenlive:original.meta.media.0.codec.name">h264</property>
  <property name="kdenlive:original.meta.media.0.codec.long_name">H.264 / AVC / MPEG-4 AVC / MPEG-4 part 10</property>
  <property name="kdenlive:original.meta.media.0.codec.bit_rate">827912</property>
  <property name="kdenlive:original.meta.attr.0.stream.handler_name.markup">VideoHandler</property>
  <property name="kdenlive:original.meta.attr.0.stream.vendor_id.markup">[0][0][0][0]</property>
  <property name="kdenlive:original.meta.attr.0.stream.encoder.markup">Lavc60.3.100 libx264</property>
  <property name="kdenlive:original.meta.attr.major_brand.markup">isom</property>
  <property name="kdenlive:original.meta.attr.minor_version.markup">512</property>
  <property name="kdenlive:original.meta.attr.compatible_brands.markup">isomiso2avc1mp41</property>
  <property name="kdenlive:original.meta.attr.encoder.markup">Lavf60.3.100</property>
  <property name="kdenlive:original.meta.attr.comment.markup">Rendered with Manim Community v0.17.2</property>
  <property name="kdenlive:original.seekable">1</property>
  <property name="kdenlive:original.width">3840</property>
  <property name="kdenlive:original.height">2160</property>
  <property name="kdenlive:original.meta.media.sample_aspect_num">1</property>
  <property name="kdenlive:original.meta.media.sample_aspect_den">1</property>
  <property name="kdenlive:original.aspect_ratio">1</property>
  <property name="kdenlive:original.format">3</property>
  <property name="kdenlive:original.audio_index">-1</property>
  <property name="kdenlive:original.video_index">0</property>
  <property name="kdenlive:original.mute_on_pause">0</property>
  <property name="kdenlive:original.mlt_service">avformat-novalidate</property>
  <property name="kdenlive:original.meta.media.frame_rate_num">60</property>
  <property name="kdenlive:original.meta.media.frame_rate_den">1</property>
  <property name="kdenlive:original.meta.media.colorspace">709</property>
  <property name="kdenlive:original.meta.media.color_trc">2</property>
  <property name="kdenlive:original.meta.media.has_b_frames">2</property>
  <property name="kdenlive:original.meta.media.width">3840</property>
  <property name="kdenlive:original.meta.media.height">2160</property>
  <property name="kdenlive:original.meta.media.color_range">mpeg</property>
  <property name="kdenlive:original.meta.media.top_field_first">0</property>
  <property name="kdenlive:original.meta.media.progressive">1</property>
  <property name="kdenlive:original.kdenlive:clip_type">2</property>
  <property name="kdenlive:original.kdenlive:folderid">488</property>
  <property name="kdenlive:original.kdenlive:id">504</property>
  <property name="kdenlive:original.kdenlive:file_size">105120</property>
  <property name="kdenlive:original.kdenlive:file_hash">e79aac85319b1ab9b2b3cdc33111907c</property>
  <property name="kdenlive:original.backup">1</property>
  <property name="meta.media.frame_rate_num">60</property>
  <property name="meta.media.frame_rate_den">1</property>
  <property name="meta.media.colorspace">601</property>
  <property name="meta.media.color_trc">2</property>
  <property name="meta.media.has_b_frames">0</property>
  <property name="meta.media.width">640</property>
  <property name="meta.media.height">360</property>
  <property name="meta.media.color_range">full</property>
  <property name="meta.media.top_field_first">0</property>
  <property name="meta.media.progressive">1</property>
 </producer>
 <producer id="producer318" in="00:00:00.000" out="00:00:00.983">
  <property name="length">60</property>
  <property name="eof">pause</property>
  <property name="resource">/home/xiaoxiae/.cache/kdenlive/proxy/28f5a240a60a26d931484d465afff02e.mkv</property>
  <property name="meta.media.nb_streams">1</property>
  <property name="meta.media.0.stream.type">video</property>
  <property name="meta.media.0.stream.frame_rate">60</property>
  <property name="meta.media.0.stream.sample_aspect_ratio">0</property>
  <property name="meta.media.0.codec.width">640</property>
  <property name="meta.media.0.codec.height">360</property>
  <property name="meta.media.0.codec.rotate">0</property>
  <property name="meta.media.0.codec.pix_fmt">yuvj420p</property>
  <property name="meta.media.0.codec.sample_aspect_ratio">0</property>
  <property name="meta.media.0.codec.colorspace">601</property>
  <property name="meta.media.0.codec.name">mjpeg</property>
  <property name="meta.media.0.codec.long_name">MJPEG (Motion JPEG)</property>
  <property name="meta.media.0.codec.bit_rate">0</property>
  <property name="meta.attr.0.stream.HANDLER_NAME.markup">VideoHandler</property>
  <property name="meta.attr.0.stream.VENDOR_ID.markup">[0][0][0][0]</property>
  <property name="meta.attr.0.stream.ENCODER.markup">Lavc60.3.100 mjpeg</property>
  <property name="meta.attr.0.stream.DURATION.markup">00:00:01.000000000</property>
  <property name="meta.attr.COMMENT.markup">Rendered with Manim Community v0.17.2</property>
  <property name="meta.attr.MAJOR_BRAND.markup">isom</property>
  <property name="meta.attr.MINOR_VERSION.markup">512</property>
  <property name="meta.attr.COMPATIBLE_BRANDS.markup">isomiso2avc1mp41</property>
  <property name="meta.attr.ENCODER.markup">Lavf60.3.100</property>
  <property name="seekable">1</property>
  <property name="meta.media.sample_aspect_num">1</property>
  <property name="meta.media.sample_aspect_den">1</property>
  <property name="aspect_ratio">1</property>
  <property name="format">3</property>
  <property name="audio_index">-1</property>
  <property name="video_index">0</property>
  <property name="mute_on_pause">0</property>
  <property name="mlt_service">avformat-novalidate</property>
  <property name="kdenlive:clipname">24.mp4</property>
  <property name="kdenlive:clip_type">2</property>
  <property name="kdenlive:folderid">488</property>
  <property name="kdenlive:id">396</property>
  <property name="kdenlive:file_size">73513</property>
  <property name="kdenlive:file_hash">28f5a240a60a26d931484d465afff02e</property>
  <property name="kdenlive:proxy">/home/xiaoxiae/.cache/kdenlive/proxy/28f5a240a60a26d931484d465afff02e.mkv</property>
  <property name="kdenlive:originalurl">video/Insertion/24.mp4</property>
  <property name="kdenlive:original.mlt_type">producer</property>
  <property name="kdenlive:original.in">00:00:00.000</property>
  <property name="kdenlive:original.out">00:00:00.983</property>
  <property name="kdenlive:original.length">60</property>
  <property name="kdenlive:original.eof">pause</property>
  <property name="kdenlive:original.resource">video/Insertion/24.mp4</property>
  <property name="kdenlive:original.meta.media.nb_streams">1</property>
  <property name="kdenlive:original.meta.media.0.stream.type">video</property>
  <property name="kdenlive:original.meta.media.0.stream.frame_rate">60</property>
  <property name="kdenlive:original.meta.media.0.stream.sample_aspect_ratio">0</property>
  <property name="kdenlive:original.meta.media.0.codec.width">3840</property>
  <property name="kdenlive:original.meta.media.0.codec.height">2160</property>
  <property name="kdenlive:original.meta.media.0.codec.rotate">0</property>
  <property name="kdenlive:original.meta.media.0.codec.pix_fmt">yuv420p</property>
  <property name="kdenlive:original.meta.media.0.codec.sample_aspect_ratio">0</property>
  <property name="kdenlive:original.meta.media.0.codec.colorspace">709</property>
  <property name="kdenlive:original.meta.media.0.codec.name">h264</property>
  <property name="kdenlive:original.meta.media.0.codec.long_name">H.264 / AVC / MPEG-4 AVC / MPEG-4 part 10</property>
  <property name="kdenlive:original.meta.media.0.codec.bit_rate">575056</property>
  <property name="kdenlive:original.meta.attr.0.stream.handler_name.markup">VideoHandler</property>
  <property name="kdenlive:original.meta.attr.0.stream.vendor_id.markup">[0][0][0][0]</property>
  <property name="kdenlive:original.meta.attr.0.stream.encoder.markup">Lavc60.3.100 libx264</property>
  <property name="kdenlive:original.meta.attr.major_brand.markup">isom</property>
  <property name="kdenlive:original.meta.attr.minor_version.markup">512</property>
  <property name="kdenlive:original.meta.attr.compatible_brands.markup">isomiso2avc1mp41</property>
  <property name="kdenlive:original.meta.attr.encoder.markup">Lavf60.3.100</property>
  <property name="kdenlive:original.meta.attr.comment.markup">Rendered with Manim Community v0.17.2</property>
  <property name="kdenlive:original.seekable">1</property>
  <property name="kdenlive:original.width">3840</property>
  <property name="kdenlive:original.height">2160</property>
  <property name="kdenlive:original.meta.media.sample_aspect_num">1</property>
  <property name="kdenlive:original.meta.media.sample_aspect_den">1</property>
  <property name="kdenlive:original.aspect_ratio">1</property>
  <property name="kdenlive:original.format">3</property>
  <property name="kdenlive:original.audio_index">-1</property>
  <property name="kdenlive:original.video_index">0</property>
  <property name="kdenlive:original.mute_on_pause">0</property>
  <property name="kdenlive:original.mlt_service">avformat-novalidate</property>
  <property name="kdenlive:original.meta.media.frame_rate_num">60</property>
  <property name="kdenlive:original.meta.media.frame_rate_den">1</property>
  <property name="kdenlive:original.meta.media.colorspace">709</property>
  <property name="kdenlive:original.meta.media.color_trc">2</property>
  <property name="kdenlive:original.meta.media.has_b_frames">2</property>
  <property name="kdenlive:original.meta.media.width">3840</property>
  <property name="kdenlive:original.meta.media.height">2160</property>
  <property name="kdenlive:original.meta.media.color_range">mpeg</property>
  <property name="kdenlive:original.meta.media.top_field_first">0</property>
  <property name="kdenlive:original.meta.media.progressive">1</property>
  <property name="kdenlive:original.kdenlive:clip_type">2</property>
  <property name="kdenlive:original.kdenlive:folderid">488</property>
  <property name="kdenlive:original.kdenlive:id">505</property>
  <property name="kdenlive:original.kdenlive:file_size">73513</property>
  <property name="kdenlive:original.kdenlive:file_hash">28f5a240a60a26d931484d465afff02e</property>
  <property name="kdenlive:original.backup">1</property>
  <property name="meta.media.frame_rate_num">60</property>
  <property name="meta.media.frame_rate_den">1</property>
  <property name="meta.media.colorspace">601</property>
  <property name="meta.media.color_trc">2</property>
  <property name="meta.media.has_b_frames">0</property>
  <property name="meta.media.width">640</property>
  <property name="meta.media.height">360</property>
  <property name="meta.media.color_range">full</property>
  <property name="meta.media.top_field_first">0</property>
  <property name="meta.media.progressive">1</property>
 </producer>
 <producer id="producer319" in="00:00:00.000" out="00:00:01.483">
  <property name="length">90</property>
  <property name="eof">pause</property>
  <property name="resource">/home/xiaoxiae/.cache/kdenlive/proxy/bc147e28174224ce9ebd2f10cac43758.mkv</property>
  <property name="meta.media.nb_streams">1</property>
  <property name="meta.media.0.stream.type">video</property>
  <property name="meta.media.0.stream.frame_rate">60</property>
  <property name="meta.media.0.stream.sample_aspect_ratio">0</property>
  <property name="meta.media.0.codec.width">640</property>
  <property name="meta.media.0.codec.height">360</property>
  <property name="meta.media.0.codec.rotate">0</property>
  <property name="meta.media.0.codec.pix_fmt">yuvj420p</property>
  <property name="meta.media.0.codec.sample_aspect_ratio">0</property>
  <property name="meta.media.0.codec.colorspace">601</property>
  <property name="meta.media.0.codec.name">mjpeg</property>
  <property name="meta.media.0.codec.long_name">MJPEG (Motion JPEG)</property>
  <property name="meta.media.0.codec.bit_rate">0</property>
  <property name="meta.attr.0.stream.HANDLER_NAME.markup">VideoHandler</property>
  <property name="meta.attr.0.stream.VENDOR_ID.markup">[0][0][0][0]</property>
  <property name="meta.attr.0.stream.ENCODER.markup">Lavc60.3.100 mjpeg</property>
  <property name="meta.attr.0.stream.DURATION.markup">00:00:01.500000000</property>
  <property name="meta.attr.COMMENT.markup">Rendered with Manim Community v0.17.2</property>
  <property name="meta.attr.MAJOR_BRAND.markup">isom</property>
  <property name="meta.attr.MINOR_VERSION.markup">512</property>
  <property name="meta.attr.COMPATIBLE_BRANDS.markup">isomiso2avc1mp41</property>
  <property name="meta.attr.ENCODER.markup">Lavf60.3.100</property>
  <property name="seekable">1</property>
  <property name="meta.media.sample_aspect_num">1</property>
  <property name="meta.media.sample_aspect_den">1</property>
  <property name="aspect_ratio">1</property>
  <property name="format">3</property>
  <property name="audio_index">-1</property>
  <property name="video_index">0</property>
  <property name="mute_on_pause">0</property>
  <property name="mlt_service">avformat-novalidate</property>
  <property name="kdenlive:clipname">25.mp4</property>
  <property name="kdenlive:clip_type">2</property>
  <property name="kdenlive:folderid">488</property>
  <property name="kdenlive:id">397</property>
  <property name="kdenlive:file_size">217882</property>
  <property name="kdenlive:file_hash">bc147e28174224ce9ebd2f10cac43758</property>
  <property name="kdenlive:proxy">/home/xiaoxiae/.cache/kdenlive/proxy/bc147e28174224ce9ebd2f10cac43758.mkv</property>
  <property name="kdenlive:originalurl">video/Insertion/25.mp4</property>
  <property name="kdenlive:original.mlt_type">producer</property>
  <property name="kdenlive:original.in">00:00:00.000</property>
  <property name="kdenlive:original.out">00:00:01.483</property>
  <property name="kdenlive:original.length">90</property>
  <property name="kdenlive:original.eof">pause</property>
  <property name="kdenlive:original.resource">video/Insertion/25.mp4</property>
  <property name="kdenlive:original.meta.media.nb_streams">1</property>
  <property name="kdenlive:original.meta.media.0.stream.type">video</property>
  <property name="kdenlive:original.meta.media.0.stream.frame_rate">60</property>
  <property name="kdenlive:original.meta.media.0.stream.sample_aspect_ratio">0</property>
  <property name="kdenlive:original.meta.media.0.codec.width">3840</property>
  <property name="kdenlive:original.meta.media.0.codec.height">2160</property>
  <property name="kdenlive:original.meta.media.0.codec.rotate">0</property>
  <property name="kdenlive:original.meta.media.0.codec.pix_fmt">yuv420p</property>
  <property name="kdenlive:original.meta.media.0.codec.sample_aspect_ratio">0</property>
  <property name="kdenlive:original.meta.media.0.codec.colorspace">709</property>
  <property name="kdenlive:original.meta.media.0.codec.name">h264</property>
  <property name="kdenlive:original.meta.media.0.codec.long_name">H.264 / AVC / MPEG-4 AVC / MPEG-4 part 10</property>
  <property name="kdenlive:original.meta.media.0.codec.bit_rate">1151461</property>
  <property name="kdenlive:original.meta.attr.0.stream.handler_name.markup">VideoHandler</property>
  <property name="kdenlive:original.meta.attr.0.stream.vendor_id.markup">[0][0][0][0]</property>
  <property name="kdenlive:original.meta.attr.0.stream.encoder.markup">Lavc60.3.100 libx264</property>
  <property name="kdenlive:original.meta.attr.major_brand.markup">isom</property>
  <property name="kdenlive:original.meta.attr.minor_version.markup">512</property>
  <property name="kdenlive:original.meta.attr.compatible_brands.markup">isomiso2avc1mp41</property>
  <property name="kdenlive:original.meta.attr.encoder.markup">Lavf60.3.100</property>
  <property name="kdenlive:original.meta.attr.comment.markup">Rendered with Manim Community v0.17.2</property>
  <property name="kdenlive:original.seekable">1</property>
  <property name="kdenlive:original.width">3840</property>
  <property name="kdenlive:original.height">2160</property>
  <property name="kdenlive:original.meta.media.sample_aspect_num">1</property>
  <property name="kdenlive:original.meta.media.sample_aspect_den">1</property>
  <property name="kdenlive:original.aspect_ratio">1</property>
  <property name="kdenlive:original.format">3</property>
  <property name="kdenlive:original.audio_index">-1</property>
  <property name="kdenlive:original.video_index">0</property>
  <property name="kdenlive:original.mute_on_pause">0</property>
  <property name="kdenlive:original.mlt_service">avformat-novalidate</property>
  <property name="kdenlive:original.meta.media.frame_rate_num">60</property>
  <property name="kdenlive:original.meta.media.frame_rate_den">1</property>
  <property name="kdenlive:original.meta.media.colorspace">709</property>
  <property name="kdenlive:original.meta.media.color_trc">2</property>
  <property name="kdenlive:original.meta.media.has_b_frames">2</property>
  <property name="kdenlive:original.meta.media.width">3840</property>
  <property name="kdenlive:original.meta.media.height">2160</property>
  <property name="kdenlive:original.meta.media.color_range">mpeg</property>
  <property name="kdenlive:original.meta.media.top_field_first">0</property>
  <property name="kdenlive:original.meta.media.progressive">1</property>
  <property name="kdenlive:original.kdenlive:clip_type">2</property>
  <property name="kdenlive:original.kdenlive:folderid">488</property>
  <property name="kdenlive:original.kdenlive:id">506</property>
  <property name="kdenlive:original.kdenlive:file_size">217882</property>
  <property name="kdenlive:original.kdenlive:file_hash">bc147e28174224ce9ebd2f10cac43758</property>
  <property name="kdenlive:original.backup">1</property>
  <property name="meta.media.frame_rate_num">60</property>
  <property name="meta.media.frame_rate_den">1</property>
  <property name="meta.media.colorspace">601</property>
  <property name="meta.media.color_trc">2</property>
  <property name="meta.media.has_b_frames">0</property>
  <property name="meta.media.width">640</property>
  <property name="meta.media.height">360</property>
  <property name="meta.media.color_range">full</property>
  <property name="meta.media.top_field_first">0</property>
  <property name="meta.media.progressive">1</property>
 </producer>
 <producer id="producer320" in="00:00:00.000" out="00:00:00.983">
  <property name="length">60</property>
  <property name="eof">pause</property>
  <property name="resource">/home/xiaoxiae/.cache/kdenlive/proxy/9c2203de614f1890c885157f94f77173.mkv</property>
  <property name="meta.media.nb_streams">1</property>
  <property name="meta.media.0.stream.type">video</property>
  <property name="meta.media.0.stream.frame_rate">60</property>
  <property name="meta.media.0.stream.sample_aspect_ratio">0</property>
  <property name="meta.media.0.codec.width">640</property>
  <property name="meta.media.0.codec.height">360</property>
  <property name="meta.media.0.codec.rotate">0</property>
  <property name="meta.media.0.codec.pix_fmt">yuvj420p</property>
  <property name="meta.media.0.codec.sample_aspect_ratio">0</property>
  <property name="meta.media.0.codec.colorspace">601</property>
  <property name="meta.media.0.codec.name">mjpeg</property>
  <property name="meta.media.0.codec.long_name">MJPEG (Motion JPEG)</property>
  <property name="meta.media.0.codec.bit_rate">0</property>
  <property name="meta.attr.0.stream.HANDLER_NAME.markup">VideoHandler</property>
  <property name="meta.attr.0.stream.VENDOR_ID.markup">[0][0][0][0]</property>
  <property name="meta.attr.0.stream.ENCODER.markup">Lavc60.3.100 mjpeg</property>
  <property name="meta.attr.0.stream.DURATION.markup">00:00:01.000000000</property>
  <property name="meta.attr.COMMENT.markup">Rendered with Manim Community v0.17.2</property>
  <property name="meta.attr.MAJOR_BRAND.markup">isom</property>
  <property name="meta.attr.MINOR_VERSION.markup">512</property>
  <property name="meta.attr.COMPATIBLE_BRANDS.markup">isomiso2avc1mp41</property>
  <property name="meta.attr.ENCODER.markup">Lavf60.3.100</property>
  <property name="seekable">1</property>
  <property name="meta.media.sample_aspect_num">1</property>
  <property name="meta.media.sample_aspect_den">1</property>
  <property name="aspect_ratio">1</property>
  <property name="format">3</property>
  <property name="audio_index">-1</property>
  <property name="video_index">0</property>
  <property name="mute_on_pause">0</property>
  <property name="mlt_service">avformat-novalidate</property>
  <property name="kdenlive:clipname">26.mp4</property>
  <property name="kdenlive:clip_type">2</property>
  <property name="kdenlive:folderid">488</property>
  <property name="kdenlive:id">398</property>
  <property name="kdenlive:file_size">78848</property>
  <property name="kdenlive:file_hash">9c2203de614f1890c885157f94f77173</property>
  <property name="kdenlive:proxy">/home/xiaoxiae/.cache/kdenlive/proxy/9c2203de614f1890c885157f94f77173.mkv</property>
  <property name="kdenlive:originalurl">video/Insertion/26.mp4</property>
  <property name="kdenlive:original.mlt_type">producer</property>
  <property name="kdenlive:original.in">00:00:00.000</property>
  <property name="kdenlive:original.out">00:00:00.983</property>
  <property name="kdenlive:original.length">60</property>
  <property name="kdenlive:original.eof">pause</property>
  <property name="kdenlive:original.resource">video/Insertion/26.mp4</property>
  <property name="kdenlive:original.meta.media.nb_streams">1</property>
  <property name="kdenlive:original.meta.media.0.stream.type">video</property>
  <property name="kdenlive:original.meta.media.0.stream.frame_rate">60</property>
  <property name="kdenlive:original.meta.media.0.stream.sample_aspect_ratio">0</property>
  <property name="kdenlive:original.meta.media.0.codec.width">3840</property>
  <property name="kdenlive:original.meta.media.0.codec.height">2160</property>
  <property name="kdenlive:original.meta.media.0.codec.rotate">0</property>
  <property name="kdenlive:original.meta.media.0.codec.pix_fmt">yuv420p</property>
  <property name="kdenlive:original.meta.media.0.codec.sample_aspect_ratio">0</property>
  <property name="kdenlive:original.meta.media.0.codec.colorspace">709</property>
  <property name="kdenlive:original.meta.media.0.codec.name">h264</property>
  <property name="kdenlive:original.meta.media.0.codec.long_name">H.264 / AVC / MPEG-4 AVC / MPEG-4 part 10</property>
  <property name="kdenlive:original.meta.media.0.codec.bit_rate">617736</property>
  <property name="kdenlive:original.meta.attr.0.stream.handler_name.markup">VideoHandler</property>
  <property name="kdenlive:original.meta.attr.0.stream.vendor_id.markup">[0][0][0][0]</property>
  <property name="kdenlive:original.meta.attr.0.stream.encoder.markup">Lavc60.3.100 libx264</property>
  <property name="kdenlive:original.meta.attr.major_brand.markup">isom</property>
  <property name="kdenlive:original.meta.attr.minor_version.markup">512</property>
  <property name="kdenlive:original.meta.attr.compatible_brands.markup">isomiso2avc1mp41</property>
  <property name="kdenlive:original.meta.attr.encoder.markup">Lavf60.3.100</property>
  <property name="kdenlive:original.meta.attr.comment.markup">Rendered with Manim Community v0.17.2</property>
  <property name="kdenlive:original.seekable">1</property>
  <property name="kdenlive:original.width">3840</property>
  <property name="kdenlive:original.height">2160</property>
  <property name="kdenlive:original.meta.media.sample_aspect_num">1</property>
  <property name="kdenlive:original.meta.media.sample_aspect_den">1</property>
  <property name="kdenlive:original.aspect_ratio">1</property>
  <property name="kdenlive:original.format">3</property>
  <property name="kdenlive:original.audio_index">-1</property>
  <property name="kdenlive:original.video_index">0</property>
  <property name="kdenlive:original.mute_on_pause">0</property>
  <property name="kdenlive:original.mlt_service">avformat-novalidate</property>
  <property name="kdenlive:original.meta.media.frame_rate_num">60</property>
  <property name="kdenlive:original.meta.media.frame_rate_den">1</property>
  <property name="kdenlive:original.meta.media.colorspace">709</property>
  <property name="kdenlive:original.meta.media.color_trc">2</property>
  <property name="kdenlive:original.meta.media.has_b_frames">2</property>
  <property name="kdenlive:original.meta.media.width">3840</property>
  <property name="kdenlive:original.meta.media.height">2160</property>
  <property name="kdenlive:original.meta.media.color_range">mpeg</property>
  <property name="kdenlive:original.meta.media.top_field_first">0</property>
  <property name="kdenlive:original.meta.media.progressive">1</property>
  <property name="kdenlive:original.kdenlive:clip_type">2</property>
  <property name="kdenlive:original.kdenlive:folderid">488</property>
  <property name="kdenlive:original.kdenlive:id">507</property>
  <property name="kdenlive:original.kdenlive:file_size">78848</property>
  <property name="kdenlive:original.kdenlive:file_hash">9c2203de614f1890c885157f94f77173</property>
  <property name="kdenlive:original.backup">1</property>
  <property name="meta.media.frame_rate_num">60</property>
  <property name="meta.media.frame_rate_den">1</property>
  <property name="meta.media.colorspace">601</property>
  <property name="meta.media.color_trc">2</property>
  <property name="meta.media.has_b_frames">0</property>
  <property name="meta.media.width">640</property>
  <property name="meta.media.height">360</property>
  <property name="meta.media.color_range">full</property>
  <property name="meta.media.top_field_first">0</property>
  <property name="meta.media.progressive">1</property>
 </producer>
 <producer id="producer321" in="00:00:00.000" out="00:00:01.483">
  <property name="length">90</property>
  <property name="eof">pause</property>
  <property name="resource">/home/xiaoxiae/.cache/kdenlive/proxy/6cd2d6da9d16a29a13998360d2beb85e.mkv</property>
  <property name="meta.media.nb_streams">1</property>
  <property name="meta.media.0.stream.type">video</property>
  <property name="meta.media.0.stream.frame_rate">60</property>
  <property name="meta.media.0.stream.sample_aspect_ratio">0</property>
  <property name="meta.media.0.codec.width">640</property>
  <property name="meta.media.0.codec.height">360</property>
  <property name="meta.media.0.codec.rotate">0</property>
  <property name="meta.media.0.codec.pix_fmt">yuvj420p</property>
  <property name="meta.media.0.codec.sample_aspect_ratio">0</property>
  <property name="meta.media.0.codec.colorspace">601</property>
  <property name="meta.media.0.codec.name">mjpeg</property>
  <property name="meta.media.0.codec.long_name">MJPEG (Motion JPEG)</property>
  <property name="meta.media.0.codec.bit_rate">0</property>
  <property name="meta.attr.0.stream.HANDLER_NAME.markup">VideoHandler</property>
  <property name="meta.attr.0.stream.VENDOR_ID.markup">[0][0][0][0]</property>
  <property name="meta.attr.0.stream.ENCODER.markup">Lavc60.3.100 mjpeg</property>
  <property name="meta.attr.0.stream.DURATION.markup">00:00:01.500000000</property>
  <property name="meta.attr.COMMENT.markup">Rendered with Manim Community v0.17.2</property>
  <property name="meta.attr.MAJOR_BRAND.markup">isom</property>
  <property name="meta.attr.MINOR_VERSION.markup">512</property>
  <property name="meta.attr.COMPATIBLE_BRANDS.markup">isomiso2avc1mp41</property>
  <property name="meta.attr.ENCODER.markup">Lavf60.3.100</property>
  <property name="seekable">1</property>
  <property name="meta.media.sample_aspect_num">1</property>
  <property name="meta.media.sample_aspect_den">1</property>
  <property name="aspect_ratio">1</property>
  <property name="format">3</property>
  <property name="audio_index">-1</property>
  <property name="video_index">0</property>
  <property name="mute_on_pause">0</property>
  <property name="mlt_service">avformat-novalidate</property>
  <property name="kdenlive:clipname">27.mp4</property>
  <property name="kdenlive:clip_type">2</property>
  <property name="kdenlive:folderid">488</property>
  <property name="kdenlive:id">399</property>
  <property name="kdenlive:file_size">242101</property>
  <property name="kdenlive:file_hash">6cd2d6da9d16a29a13998360d2beb85e</property>
  <property name="kdenlive:proxy">/home/xiaoxiae/.cache/kdenlive/proxy/6cd2d6da9d16a29a13998360d2beb85e.mkv</property>
  <property name="kdenlive:originalurl">video/Insertion/27.mp4</property>
  <property name="kdenlive:original.mlt_type">producer</property>
  <property name="kdenlive:original.in">00:00:00.000</property>
  <property name="kdenlive:original.out">00:00:01.483</property>
  <property name="kdenlive:original.length">90</property>
  <property name="kdenlive:original.eof">pause</property>
  <property name="kdenlive:original.resource">video/Insertion/27.mp4</property>
  <property name="kdenlive:original.meta.media.nb_streams">1</property>
  <property name="kdenlive:original.meta.media.0.stream.type">video</property>
  <property name="kdenlive:original.meta.media.0.stream.frame_rate">60</property>
  <property name="kdenlive:original.meta.media.0.stream.sample_aspect_ratio">0</property>
  <property name="kdenlive:original.meta.media.0.codec.width">3840</property>
  <property name="kdenlive:original.meta.media.0.codec.height">2160</property>
  <property name="kdenlive:original.meta.media.0.codec.rotate">0</property>
  <property name="kdenlive:original.meta.media.0.codec.pix_fmt">yuv420p</property>
  <property name="kdenlive:original.meta.media.0.codec.sample_aspect_ratio">0</property>
  <property name="kdenlive:original.meta.media.0.codec.colorspace">709</property>
  <property name="kdenlive:original.meta.media.0.codec.name">h264</property>
  <property name="kdenlive:original.meta.media.0.codec.long_name">H.264 / AVC / MPEG-4 AVC / MPEG-4 part 10</property>
  <property name="kdenlive:original.meta.media.0.codec.bit_rate">1280672</property>
  <property name="kdenlive:original.meta.attr.0.stream.handler_name.markup">VideoHandler</property>
  <property name="kdenlive:original.meta.attr.0.stream.vendor_id.markup">[0][0][0][0]</property>
  <property name="kdenlive:original.meta.attr.0.stream.encoder.markup">Lavc60.3.100 libx264</property>
  <property name="kdenlive:original.meta.attr.major_brand.markup">isom</property>
  <property name="kdenlive:original.meta.attr.minor_version.markup">512</property>
  <property name="kdenlive:original.meta.attr.compatible_brands.markup">isomiso2avc1mp41</property>
  <property name="kdenlive:original.meta.attr.encoder.markup">Lavf60.3.100</property>
  <property name="kdenlive:original.meta.attr.comment.markup">Rendered with Manim Community v0.17.2</property>
  <property name="kdenlive:original.seekable">1</property>
  <property name="kdenlive:original.width">3840</property>
  <property name="kdenlive:original.height">2160</property>
  <property name="kdenlive:original.meta.media.sample_aspect_num">1</property>
  <property name="kdenlive:original.meta.media.sample_aspect_den">1</property>
  <property name="kdenlive:original.aspect_ratio">1</property>
  <property name="kdenlive:original.format">3</property>
  <property name="kdenlive:original.audio_index">-1</property>
  <property name="kdenlive:original.video_index">0</property>
  <property name="kdenlive:original.mute_on_pause">0</property>
  <property name="kdenlive:original.mlt_service">avformat-novalidate</property>
  <property name="kdenlive:original.meta.media.frame_rate_num">60</property>
  <property name="kdenlive:original.meta.media.frame_rate_den">1</property>
  <property name="kdenlive:original.meta.media.colorspace">709</property>
  <property name="kdenlive:original.meta.media.color_trc">2</property>
  <property name="kdenlive:original.meta.media.has_b_frames">2</property>
  <property name="kdenlive:original.meta.media.width">3840</property>
  <property name="kdenlive:original.meta.media.height">2160</property>
  <property name="kdenlive:original.meta.media.color_range">mpeg</property>
  <property name="kdenlive:original.meta.media.top_field_first">0</property>
  <property name="kdenlive:original.meta.media.progressive">1</property>
  <property name="kdenlive:original.kdenlive:clip_type">2</property>
  <property name="kdenlive:original.kdenlive:folderid">488</property>
  <property name="kdenlive:original.kdenlive:id">508</property>
  <property name="kdenlive:original.kdenlive:file_size">242101</property>
  <property name="kdenlive:original.kdenlive:file_hash">6cd2d6da9d16a29a13998360d2beb85e</property>
  <property name="kdenlive:original.backup">1</property>
  <property name="meta.media.frame_rate_num">60</property>
  <property name="meta.media.frame_rate_den">1</property>
  <property name="meta.media.colorspace">601</property>
  <property name="meta.media.color_trc">2</property>
  <property name="meta.media.has_b_frames">0</property>
  <property name="meta.media.width">640</property>
  <property name="meta.media.height">360</property>
  <property name="meta.media.color_range">full</property>
  <property name="meta.media.top_field_first">0</property>
  <property name="meta.media.progressive">1</property>
 </producer>
 <producer id="producer322" in="00:00:00.000" out="00:00:00.983">
  <property name="length">60</property>
  <property name="eof">pause</property>
  <property name="resource">/home/xiaoxiae/.cache/kdenlive/proxy/0b98d4c623ce8d4a58d7a65153cae5f4.mkv</property>
  <property name="meta.media.nb_streams">1</property>
  <property name="meta.media.0.stream.type">video</property>
  <property name="meta.media.0.stream.frame_rate">60</property>
  <property name="meta.media.0.stream.sample_aspect_ratio">0</property>
  <property name="meta.media.0.codec.width">640</property>
  <property name="meta.media.0.codec.height">360</property>
  <property name="meta.media.0.codec.rotate">0</property>
  <property name="meta.media.0.codec.pix_fmt">yuvj420p</property>
  <property name="meta.media.0.codec.sample_aspect_ratio">0</property>
  <property name="meta.media.0.codec.colorspace">601</property>
  <property name="meta.media.0.codec.name">mjpeg</property>
  <property name="meta.media.0.codec.long_name">MJPEG (Motion JPEG)</property>
  <property name="meta.media.0.codec.bit_rate">0</property>
  <property name="meta.attr.0.stream.HANDLER_NAME.markup">VideoHandler</property>
  <property name="meta.attr.0.stream.VENDOR_ID.markup">[0][0][0][0]</property>
  <property name="meta.attr.0.stream.ENCODER.markup">Lavc60.3.100 mjpeg</property>
  <property name="meta.attr.0.stream.DURATION.markup">00:00:01.000000000</property>
  <property name="meta.attr.COMMENT.markup">Rendered with Manim Community v0.17.2</property>
  <property name="meta.attr.MAJOR_BRAND.markup">isom</property>
  <property name="meta.attr.MINOR_VERSION.markup">512</property>
  <property name="meta.attr.COMPATIBLE_BRANDS.markup">isomiso2avc1mp41</property>
  <property name="meta.attr.ENCODER.markup">Lavf60.3.100</property>
  <property name="seekable">1</property>
  <property name="meta.media.sample_aspect_num">1</property>
  <property name="meta.media.sample_aspect_den">1</property>
  <property name="aspect_ratio">1</property>
  <property name="format">3</property>
  <property name="audio_index">-1</property>
  <property name="video_index">0</property>
  <property name="mute_on_pause">0</property>
  <property name="mlt_service">avformat-novalidate</property>
  <property name="kdenlive:clipname">28.mp4</property>
  <property name="kdenlive:clip_type">2</property>
  <property name="kdenlive:folderid">488</property>
  <property name="kdenlive:id">400</property>
  <property name="kdenlive:file_size">115431</property>
  <property name="kdenlive:file_hash">0b98d4c623ce8d4a58d7a65153cae5f4</property>
  <property name="kdenlive:proxy">/home/xiaoxiae/.cache/kdenlive/proxy/0b98d4c623ce8d4a58d7a65153cae5f4.mkv</property>
  <property name="kdenlive:originalurl">video/Insertion/28.mp4</property>
  <property name="kdenlive:original.mlt_type">producer</property>
  <property name="kdenlive:original.in">00:00:00.000</property>
  <property name="kdenlive:original.out">00:00:00.983</property>
  <property name="kdenlive:original.length">60</property>
  <property name="kdenlive:original.eof">pause</property>
  <property name="kdenlive:original.resource">video/Insertion/28.mp4</property>
  <property name="kdenlive:original.meta.media.nb_streams">1</property>
  <property name="kdenlive:original.meta.media.0.stream.type">video</property>
  <property name="kdenlive:original.meta.media.0.stream.frame_rate">60</property>
  <property name="kdenlive:original.meta.media.0.stream.sample_aspect_ratio">0</property>
  <property name="kdenlive:original.meta.media.0.codec.width">3840</property>
  <property name="kdenlive:original.meta.media.0.codec.height">2160</property>
  <property name="kdenlive:original.meta.media.0.codec.rotate">0</property>
  <property name="kdenlive:original.meta.media.0.codec.pix_fmt">yuv420p</property>
  <property name="kdenlive:original.meta.media.0.codec.sample_aspect_ratio">0</property>
  <property name="kdenlive:original.meta.media.0.codec.colorspace">709</property>
  <property name="kdenlive:original.meta.media.0.codec.name">h264</property>
  <property name="kdenlive:original.meta.media.0.codec.long_name">H.264 / AVC / MPEG-4 AVC / MPEG-4 part 10</property>
  <property name="kdenlive:original.meta.media.0.codec.bit_rate">910400</property>
  <property name="kdenlive:original.meta.attr.0.stream.handler_name.markup">VideoHandler</property>
  <property name="kdenlive:original.meta.attr.0.stream.vendor_id.markup">[0][0][0][0]</property>
  <property name="kdenlive:original.meta.attr.0.stream.encoder.markup">Lavc60.3.100 libx264</property>
  <property name="kdenlive:original.meta.attr.major_brand.markup">isom</property>
  <property name="kdenlive:original.meta.attr.minor_version.markup">512</property>
  <property name="kdenlive:original.meta.attr.compatible_brands.markup">isomiso2avc1mp41</property>
  <property name="kdenlive:original.meta.attr.encoder.markup">Lavf60.3.100</property>
  <property name="kdenlive:original.meta.attr.comment.markup">Rendered with Manim Community v0.17.2</property>
  <property name="kdenlive:original.seekable">1</property>
  <property name="kdenlive:original.width">3840</property>
  <property name="kdenlive:original.height">2160</property>
  <property name="kdenlive:original.meta.media.sample_aspect_num">1</property>
  <property name="kdenlive:original.meta.media.sample_aspect_den">1</property>
  <property name="kdenlive:original.aspect_ratio">1</property>
  <property name="kdenlive:original.format">3</property>
  <property name="kdenlive:original.audio_index">-1</property>
  <property name="kdenlive:original.video_index">0</property>
  <property name="kdenlive:original.mute_on_pause">0</property>
  <property name="kdenlive:original.mlt_service">avformat-novalidate</property>
  <property name="kdenlive:original.meta.media.frame_rate_num">60</property>
  <property name="kdenlive:original.meta.media.frame_rate_den">1</property>
  <property name="kdenlive:original.meta.media.colorspace">709</property>
  <property name="kdenlive:original.meta.media.color_trc">2</property>
  <property name="kdenlive:original.meta.media.has_b_frames">2</property>
  <property name="kdenlive:original.meta.media.width">3840</property>
  <property name="kdenlive:original.meta.media.height">2160</property>
  <property name="kdenlive:original.meta.media.color_range">mpeg</property>
  <property name="kdenlive:original.meta.media.top_field_first">0</property>
  <property name="kdenlive:original.meta.media.progressive">1</property>
  <property name="kdenlive:original.kdenlive:clip_type">2</property>
  <property name="kdenlive:original.kdenlive:folderid">488</property>
  <property name="kdenlive:original.kdenlive:id">509</property>
  <property name="kdenlive:original.kdenlive:file_size">115431</property>
  <property name="kdenlive:original.kdenlive:file_hash">0b98d4c623ce8d4a58d7a65153cae5f4</property>
  <property name="kdenlive:original.backup">1</property>
  <property name="meta.media.frame_rate_num">60</property>
  <property name="meta.media.frame_rate_den">1</property>
  <property name="meta.media.colorspace">601</property>
  <property name="meta.media.color_trc">2</property>
  <property name="meta.media.has_b_frames">0</property>
  <property name="meta.media.width">640</property>
  <property name="meta.media.height">360</property>
  <property name="meta.media.color_range">full</property>
  <property name="meta.media.top_field_first">0</property>
  <property name="meta.media.progressive">1</property>
 </producer>
 <producer id="producer324" in="00:00:00.000" out="00:00:01.333">
  <property name="length">81</property>
  <property name="eof">pause</property>
  <property name="resource">/home/xiaoxiae/.cache/kdenlive/proxy/2ac9b7f6b6e34928d3685601286bdc1e.mkv</property>
  <property name="meta.media.nb_streams">1</property>
  <property name="meta.media.0.stream.type">video</property>
  <property name="meta.media.0.stream.frame_rate">60</property>
  <property name="meta.media.0.stream.sample_aspect_ratio">0</property>
  <property name="meta.media.0.codec.width">640</property>
  <property name="meta.media.0.codec.height">360</property>
  <property name="meta.media.0.codec.rotate">0</property>
  <property name="meta.media.0.codec.pix_fmt">yuvj420p</property>
  <property name="meta.media.0.codec.sample_aspect_ratio">0</property>
  <property name="meta.media.0.codec.colorspace">601</property>
  <property name="meta.media.0.codec.name">mjpeg</property>
  <property name="meta.media.0.codec.long_name">MJPEG (Motion JPEG)</property>
  <property name="meta.media.0.codec.bit_rate">0</property>
  <property name="meta.attr.0.stream.HANDLER_NAME.markup">VideoHandler</property>
  <property name="meta.attr.0.stream.VENDOR_ID.markup">[0][0][0][0]</property>
  <property name="meta.attr.0.stream.ENCODER.markup">Lavc60.3.100 mjpeg</property>
  <property name="meta.attr.0.stream.DURATION.markup">00:00:01.350000000</property>
  <property name="meta.attr.COMMENT.markup">Rendered with Manim Community v0.17.2</property>
  <property name="meta.attr.MAJOR_BRAND.markup">isom</property>
  <property name="meta.attr.MINOR_VERSION.markup">512</property>
  <property name="meta.attr.COMPATIBLE_BRANDS.markup">isomiso2avc1mp41</property>
  <property name="meta.attr.ENCODER.markup">Lavf60.3.100</property>
  <property name="seekable">1</property>
  <property name="meta.media.sample_aspect_num">1</property>
  <property name="meta.media.sample_aspect_den">1</property>
  <property name="aspect_ratio">1</property>
  <property name="format">3</property>
  <property name="audio_index">-1</property>
  <property name="video_index">0</property>
  <property name="mute_on_pause">0</property>
  <property name="mlt_service">avformat-novalidate</property>
  <property name="kdenlive:clipname">29.mp4</property>
  <property name="kdenlive:clip_type">2</property>
  <property name="kdenlive:folderid">488</property>
  <property name="kdenlive:id">401</property>
  <property name="kdenlive:file_size">295266</property>
  <property name="kdenlive:file_hash">2ac9b7f6b6e34928d3685601286bdc1e</property>
  <property name="kdenlive:proxy">/home/xiaoxiae/.cache/kdenlive/proxy/2ac9b7f6b6e34928d3685601286bdc1e.mkv</property>
  <property name="kdenlive:originalurl">video/Insertion/29.mp4</property>
  <property name="kdenlive:original.mlt_type">producer</property>
  <property name="kdenlive:original.in">00:00:00.000</property>
  <property name="kdenlive:original.out">00:00:01.333</property>
  <property name="kdenlive:original.length">81</property>
  <property name="kdenlive:original.eof">pause</property>
  <property name="kdenlive:original.resource">video/Insertion/29.mp4</property>
  <property name="kdenlive:original.meta.media.nb_streams">1</property>
  <property name="kdenlive:original.meta.media.0.stream.type">video</property>
  <property name="kdenlive:original.meta.media.0.stream.frame_rate">60</property>
  <property name="kdenlive:original.meta.media.0.stream.sample_aspect_ratio">0</property>
  <property name="kdenlive:original.meta.media.0.codec.width">3840</property>
  <property name="kdenlive:original.meta.media.0.codec.height">2160</property>
  <property name="kdenlive:original.meta.media.0.codec.rotate">0</property>
  <property name="kdenlive:original.meta.media.0.codec.pix_fmt">yuv420p</property>
  <property name="kdenlive:original.meta.media.0.codec.sample_aspect_ratio">0</property>
  <property name="kdenlive:original.meta.media.0.codec.colorspace">709</property>
  <property name="kdenlive:original.meta.media.0.codec.name">h264</property>
  <property name="kdenlive:original.meta.media.0.codec.long_name">H.264 / AVC / MPEG-4 AVC / MPEG-4 part 10</property>
  <property name="kdenlive:original.meta.media.0.codec.bit_rate">1738518</property>
  <property name="kdenlive:original.meta.attr.0.stream.handler_name.markup">VideoHandler</property>
  <property name="kdenlive:original.meta.attr.0.stream.vendor_id.markup">[0][0][0][0]</property>
  <property name="kdenlive:original.meta.attr.0.stream.encoder.markup">Lavc60.3.100 libx264</property>
  <property name="kdenlive:original.meta.attr.major_brand.markup">isom</property>
  <property name="kdenlive:original.meta.attr.minor_version.markup">512</property>
  <property name="kdenlive:original.meta.attr.compatible_brands.markup">isomiso2avc1mp41</property>
  <property name="kdenlive:original.meta.attr.encoder.markup">Lavf60.3.100</property>
  <property name="kdenlive:original.meta.attr.comment.markup">Rendered with Manim Community v0.17.2</property>
  <property name="kdenlive:original.seekable">1</property>
  <property name="kdenlive:original.width">3840</property>
  <property name="kdenlive:original.height">2160</property>
  <property name="kdenlive:original.meta.media.sample_aspect_num">1</property>
  <property name="kdenlive:original.meta.media.sample_aspect_den">1</property>
  <property name="kdenlive:original.aspect_ratio">1</property>
  <property name="kdenlive:original.format">3</property>
  <property name="kdenlive:original.audio_index">-1</property>
  <property name="kdenlive:original.video_index">0</property>
  <property name="kdenlive:original.mute_on_pause">0</property>
  <property name="kdenlive:original.mlt_service">avformat-novalidate</property>
  <property name="kdenlive:original.meta.media.frame_rate_num">60</property>
  <property name="kdenlive:original.meta.media.frame_rate_den">1</property>
  <property name="kdenlive:original.meta.media.colorspace">709</property>
  <property name="kdenlive:original.meta.media.color_trc">2</property>
  <property name="kdenlive:original.meta.media.has_b_frames">2</property>
  <property name="kdenlive:original.meta.media.width">3840</property>
  <property name="kdenlive:original.meta.media.height">2160</property>
  <property name="kdenlive:original.meta.media.color_range">mpeg</property>
  <property name="kdenlive:original.meta.media.top_field_first">0</property>
  <property name="kdenlive:original.meta.media.progressive">1</property>
  <property name="kdenlive:original.kdenlive:clip_type">2</property>
  <property name="kdenlive:original.kdenlive:folderid">488</property>
  <property name="kdenlive:original.kdenlive:id">510</property>
  <property name="kdenlive:original.kdenlive:file_size">295266</property>
  <property name="kdenlive:original.kdenlive:file_hash">2ac9b7f6b6e34928d3685601286bdc1e</property>
  <property name="kdenlive:original.backup">1</property>
  <property name="meta.media.frame_rate_num">60</property>
  <property name="meta.media.frame_rate_den">1</property>
  <property name="meta.media.colorspace">601</property>
  <property name="meta.media.color_trc">2</property>
  <property name="meta.media.has_b_frames">0</property>
  <property name="meta.media.width">640</property>
  <property name="meta.media.height">360</property>
  <property name="meta.media.color_range">full</property>
  <property name="meta.media.top_field_first">0</property>
  <property name="meta.media.progressive">1</property>
 </producer>
 <producer id="producer323" in="00:00:00.000" out="00:00:00.183">
  <property name="length">12</property>
  <property name="eof">pause</property>
  <property name="resource">/home/xiaoxiae/.cache/kdenlive/proxy/9d6a74ba10cde65a72d26c4905c1c482.mkv</property>
  <property name="meta.media.nb_streams">1</property>
  <property name="meta.media.0.stream.type">video</property>
  <property name="meta.media.0.stream.frame_rate">60</property>
  <property name="meta.media.0.stream.sample_aspect_ratio">0</property>
  <property name="meta.media.0.codec.width">640</property>
  <property name="meta.media.0.codec.height">360</property>
  <property name="meta.media.0.codec.rotate">0</property>
  <property name="meta.media.0.codec.pix_fmt">yuvj420p</property>
  <property name="meta.media.0.codec.sample_aspect_ratio">0</property>
  <property name="meta.media.0.codec.colorspace">601</property>
  <property name="meta.media.0.codec.name">mjpeg</property>
  <property name="meta.media.0.codec.long_name">MJPEG (Motion JPEG)</property>
  <property name="meta.media.0.codec.bit_rate">0</property>
  <property name="meta.attr.0.stream.HANDLER_NAME.markup">VideoHandler</property>
  <property name="meta.attr.0.stream.VENDOR_ID.markup">[0][0][0][0]</property>
  <property name="meta.attr.0.stream.ENCODER.markup">Lavc60.3.100 mjpeg</property>
  <property name="meta.attr.0.stream.DURATION.markup">00:00:00.200000000</property>
  <property name="meta.attr.COMMENT.markup">Rendered with Manim Community v0.17.2</property>
  <property name="meta.attr.MAJOR_BRAND.markup">isom</property>
  <property name="meta.attr.MINOR_VERSION.markup">512</property>
  <property name="meta.attr.COMPATIBLE_BRANDS.markup">isomiso2avc1mp41</property>
  <property name="meta.attr.ENCODER.markup">Lavf60.3.100</property>
  <property name="seekable">1</property>
  <property name="meta.media.sample_aspect_num">1</property>
  <property name="meta.media.sample_aspect_den">1</property>
  <property name="aspect_ratio">1</property>
  <property name="format">3</property>
  <property name="audio_index">-1</property>
  <property name="video_index">0</property>
  <property name="mute_on_pause">0</property>
  <property name="mlt_service">avformat-novalidate</property>
  <property name="kdenlive:clipname">3.mp4</property>
  <property name="kdenlive:clip_type">2</property>
  <property name="kdenlive:folderid">488</property>
  <property name="kdenlive:id">402</property>
  <property name="kdenlive:file_size">46053</property>
  <property name="kdenlive:file_hash">9d6a74ba10cde65a72d26c4905c1c482</property>
  <property name="kdenlive:proxy">/home/xiaoxiae/.cache/kdenlive/proxy/9d6a74ba10cde65a72d26c4905c1c482.mkv</property>
  <property name="kdenlive:originalurl">video/Insertion/3.mp4</property>
  <property name="kdenlive:original.mlt_type">producer</property>
  <property name="kdenlive:original.in">00:00:00.000</property>
  <property name="kdenlive:original.out">00:00:00.183</property>
  <property name="kdenlive:original.length">12</property>
  <property name="kdenlive:original.eof">pause</property>
  <property name="kdenlive:original.resource">video/Insertion/3.mp4</property>
  <property name="kdenlive:original.meta.media.nb_streams">1</property>
  <property name="kdenlive:original.meta.media.0.stream.type">video</property>
  <property name="kdenlive:original.meta.media.0.stream.frame_rate">60</property>
  <property name="kdenlive:original.meta.media.0.stream.sample_aspect_ratio">0</property>
  <property name="kdenlive:original.meta.media.0.codec.width">3840</property>
  <property name="kdenlive:original.meta.media.0.codec.height">2160</property>
  <property name="kdenlive:original.meta.media.0.codec.rotate">0</property>
  <property name="kdenlive:original.meta.media.0.codec.pix_fmt">yuv420p</property>
  <property name="kdenlive:original.meta.media.0.codec.sample_aspect_ratio">0</property>
  <property name="kdenlive:original.meta.media.0.codec.colorspace">709</property>
  <property name="kdenlive:original.meta.media.0.codec.name">h264</property>
  <property name="kdenlive:original.meta.media.0.codec.long_name">H.264 / AVC / MPEG-4 AVC / MPEG-4 part 10</property>
  <property name="kdenlive:original.meta.media.0.codec.bit_rate">1799600</property>
  <property name="kdenlive:original.meta.attr.0.stream.handler_name.markup">VideoHandler</property>
  <property name="kdenlive:original.meta.attr.0.stream.vendor_id.markup">[0][0][0][0]</property>
  <property name="kdenlive:original.meta.attr.0.stream.encoder.markup">Lavc60.3.100 libx264</property>
  <property name="kdenlive:original.meta.attr.major_brand.markup">isom</property>
  <property name="kdenlive:original.meta.attr.minor_version.markup">512</property>
  <property name="kdenlive:original.meta.attr.compatible_brands.markup">isomiso2avc1mp41</property>
  <property name="kdenlive:original.meta.attr.encoder.markup">Lavf60.3.100</property>
  <property name="kdenlive:original.meta.attr.comment.markup">Rendered with Manim Community v0.17.2</property>
  <property name="kdenlive:original.seekable">1</property>
  <property name="kdenlive:original.width">3840</property>
  <property name="kdenlive:original.height">2160</property>
  <property name="kdenlive:original.meta.media.sample_aspect_num">1</property>
  <property name="kdenlive:original.meta.media.sample_aspect_den">1</property>
  <property name="kdenlive:original.aspect_ratio">1</property>
  <property name="kdenlive:original.format">3</property>
  <property name="kdenlive:original.audio_index">-1</property>
  <property name="kdenlive:original.video_index">0</property>
  <property name="kdenlive:original.mute_on_pause">0</property>
  <property name="kdenlive:original.mlt_service">avformat-novalidate</property>
  <property name="kdenlive:original.meta.media.frame_rate_num">60</property>
  <property name="kdenlive:original.meta.media.frame_rate_den">1</property>
  <property name="kdenlive:original.meta.media.colorspace">709</property>
  <property name="kdenlive:original.meta.media.color_trc">2</property>
  <property name="kdenlive:original.meta.media.has_b_frames">2</property>
  <property name="kdenlive:original.meta.media.width">3840</property>
  <property name="kdenlive:original.meta.media.height">2160</property>
  <property name="kdenlive:original.meta.media.color_range">mpeg</property>
  <property name="kdenlive:original.meta.media.top_field_first">0</property>
  <property name="kdenlive:original.meta.media.progressive">1</property>
  <property name="kdenlive:original.kdenlive:clip_type">2</property>
  <property name="kdenlive:original.kdenlive:folderid">488</property>
  <property name="kdenlive:original.kdenlive:id">511</property>
  <property name="kdenlive:original.kdenlive:file_size">46053</property>
  <property name="kdenlive:original.kdenlive:file_hash">9d6a74ba10cde65a72d26c4905c1c482</property>
  <property name="kdenlive:original.backup">1</property>
  <property name="meta.media.frame_rate_num">60</property>
  <property name="meta.media.frame_rate_den">1</property>
  <property name="meta.media.colorspace">601</property>
  <property name="meta.media.color_trc">2</property>
  <property name="meta.media.has_b_frames">0</property>
  <property name="meta.media.width">640</property>
  <property name="meta.media.height">360</property>
  <property name="meta.media.color_range">full</property>
  <property name="meta.media.top_field_first">0</property>
  <property name="meta.media.progressive">1</property>
 </producer>
 <producer id="producer326" in="00:00:00.000" out="00:00:00.983">
  <property name="length">60</property>
  <property name="eof">pause</property>
  <property name="resource">/home/xiaoxiae/.cache/kdenlive/proxy/fc57d25443b4885b6732633c731ad674.mkv</property>
  <property name="meta.media.nb_streams">1</property>
  <property name="meta.media.0.stream.type">video</property>
  <property name="meta.media.0.stream.frame_rate">60</property>
  <property name="meta.media.0.stream.sample_aspect_ratio">0</property>
  <property name="meta.media.0.codec.width">640</property>
  <property name="meta.media.0.codec.height">360</property>
  <property name="meta.media.0.codec.rotate">0</property>
  <property name="meta.media.0.codec.pix_fmt">yuvj420p</property>
  <property name="meta.media.0.codec.sample_aspect_ratio">0</property>
  <property name="meta.media.0.codec.colorspace">601</property>
  <property name="meta.media.0.codec.name">mjpeg</property>
  <property name="meta.media.0.codec.long_name">MJPEG (Motion JPEG)</property>
  <property name="meta.media.0.codec.bit_rate">0</property>
  <property name="meta.attr.0.stream.HANDLER_NAME.markup">VideoHandler</property>
  <property name="meta.attr.0.stream.VENDOR_ID.markup">[0][0][0][0]</property>
  <property name="meta.attr.0.stream.ENCODER.markup">Lavc60.3.100 mjpeg</property>
  <property name="meta.attr.0.stream.DURATION.markup">00:00:01.000000000</property>
  <property name="meta.attr.COMMENT.markup">Rendered with Manim Community v0.17.2</property>
  <property name="meta.attr.MAJOR_BRAND.markup">isom</property>
  <property name="meta.attr.MINOR_VERSION.markup">512</property>
  <property name="meta.attr.COMPATIBLE_BRANDS.markup">isomiso2avc1mp41</property>
  <property name="meta.attr.ENCODER.markup">Lavf60.3.100</property>
  <property name="seekable">1</property>
  <property name="meta.media.sample_aspect_num">1</property>
  <property name="meta.media.sample_aspect_den">1</property>
  <property name="aspect_ratio">1</property>
  <property name="format">3</property>
  <property name="audio_index">-1</property>
  <property name="video_index">0</property>
  <property name="mute_on_pause">0</property>
  <property name="mlt_service">avformat-novalidate</property>
  <property name="kdenlive:clipname">30.mp4</property>
  <property name="kdenlive:clip_type">2</property>
  <property name="kdenlive:folderid">488</property>
  <property name="kdenlive:id">403</property>
  <property name="kdenlive:file_size">129833</property>
  <property name="kdenlive:file_hash">fc57d25443b4885b6732633c731ad674</property>
  <property name="kdenlive:proxy">/home/xiaoxiae/.cache/kdenlive/proxy/fc57d25443b4885b6732633c731ad674.mkv</property>
  <property name="kdenlive:originalurl">video/Insertion/30.mp4</property>
  <property name="kdenlive:original.mlt_type">producer</property>
  <property name="kdenlive:original.in">00:00:00.000</property>
  <property name="kdenlive:original.out">00:00:00.983</property>
  <property name="kdenlive:original.length">60</property>
  <property name="kdenlive:original.eof">pause</property>
  <property name="kdenlive:original.resource">video/Insertion/30.mp4</property>
  <property name="kdenlive:original.meta.media.nb_streams">1</property>
  <property name="kdenlive:original.meta.media.0.stream.type">video</property>
  <property name="kdenlive:original.meta.media.0.stream.frame_rate">60</property>
  <property name="kdenlive:original.meta.media.0.stream.sample_aspect_ratio">0</property>
  <property name="kdenlive:original.meta.media.0.codec.width">3840</property>
  <property name="kdenlive:original.meta.media.0.codec.height">2160</property>
  <property name="kdenlive:original.meta.media.0.codec.rotate">0</property>
  <property name="kdenlive:original.meta.media.0.codec.pix_fmt">yuv420p</property>
  <property name="kdenlive:original.meta.media.0.codec.sample_aspect_ratio">0</property>
  <property name="kdenlive:original.meta.media.0.codec.colorspace">709</property>
  <property name="kdenlive:original.meta.media.0.codec.name">h264</property>
  <property name="kdenlive:original.meta.media.0.codec.long_name">H.264 / AVC / MPEG-4 AVC / MPEG-4 part 10</property>
  <property name="kdenlive:original.meta.media.0.codec.bit_rate">1025744</property>
  <property name="kdenlive:original.meta.attr.0.stream.handler_name.markup">VideoHandler</property>
  <property name="kdenlive:original.meta.attr.0.stream.vendor_id.markup">[0][0][0][0]</property>
  <property name="kdenlive:original.meta.attr.0.stream.encoder.markup">Lavc60.3.100 libx264</property>
  <property name="kdenlive:original.meta.attr.major_brand.markup">isom</property>
  <property name="kdenlive:original.meta.attr.minor_version.markup">512</property>
  <property name="kdenlive:original.meta.attr.compatible_brands.markup">isomiso2avc1mp41</property>
  <property name="kdenlive:original.meta.attr.encoder.markup">Lavf60.3.100</property>
  <property name="kdenlive:original.meta.attr.comment.markup">Rendered with Manim Community v0.17.2</property>
  <property name="kdenlive:original.seekable">1</property>
  <property name="kdenlive:original.width">3840</property>
  <property name="kdenlive:original.height">2160</property>
  <property name="kdenlive:original.meta.media.sample_aspect_num">1</property>
  <property name="kdenlive:original.meta.media.sample_aspect_den">1</property>
  <property name="kdenlive:original.aspect_ratio">1</property>
  <property name="kdenlive:original.format">3</property>
  <property name="kdenlive:original.audio_index">-1</property>
  <property name="kdenlive:original.video_index">0</property>
  <property name="kdenlive:original.mute_on_pause">0</property>
  <property name="kdenlive:original.mlt_service">avformat-novalidate</property>
  <property name="kdenlive:original.meta.media.frame_rate_num">60</property>
  <property name="kdenlive:original.meta.media.frame_rate_den">1</property>
  <property name="kdenlive:original.meta.media.colorspace">709</property>
  <property name="kdenlive:original.meta.media.color_trc">2</property>
  <property name="kdenlive:original.meta.media.has_b_frames">2</property>
  <property name="kdenlive:original.meta.media.width">3840</property>
  <property name="kdenlive:original.meta.media.height">2160</property>
  <property name="kdenlive:original.meta.media.color_range">mpeg</property>
  <property name="kdenlive:original.meta.media.top_field_first">0</property>
  <property name="kdenlive:original.meta.media.progressive">1</property>
  <property name="kdenlive:original.kdenlive:clip_type">2</property>
  <property name="kdenlive:original.kdenlive:folderid">488</property>
  <property name="kdenlive:original.kdenlive:id">512</property>
  <property name="kdenlive:original.kdenlive:file_size">129833</property>
  <property name="kdenlive:original.kdenlive:file_hash">fc57d25443b4885b6732633c731ad674</property>
  <property name="kdenlive:original.backup">1</property>
  <property name="meta.media.frame_rate_num">60</property>
  <property name="meta.media.frame_rate_den">1</property>
  <property name="meta.media.colorspace">601</property>
  <property name="meta.media.color_trc">2</property>
  <property name="meta.media.has_b_frames">0</property>
  <property name="meta.media.width">640</property>
  <property name="meta.media.height">360</property>
  <property name="meta.media.color_range">full</property>
  <property name="meta.media.top_field_first">0</property>
  <property name="meta.media.progressive">1</property>
 </producer>
 <producer id="producer325" in="00:00:00.000" out="00:00:01.333">
  <property name="length">81</property>
  <property name="eof">pause</property>
  <property name="resource">/home/xiaoxiae/.cache/kdenlive/proxy/5d9cb8860fc5e00c4c8ba51707827cae.mkv</property>
  <property name="meta.media.nb_streams">1</property>
  <property name="meta.media.0.stream.type">video</property>
  <property name="meta.media.0.stream.frame_rate">60</property>
  <property name="meta.media.0.stream.sample_aspect_ratio">0</property>
  <property name="meta.media.0.codec.width">640</property>
  <property name="meta.media.0.codec.height">360</property>
  <property name="meta.media.0.codec.rotate">0</property>
  <property name="meta.media.0.codec.pix_fmt">yuvj420p</property>
  <property name="meta.media.0.codec.sample_aspect_ratio">0</property>
  <property name="meta.media.0.codec.colorspace">601</property>
  <property name="meta.media.0.codec.name">mjpeg</property>
  <property name="meta.media.0.codec.long_name">MJPEG (Motion JPEG)</property>
  <property name="meta.media.0.codec.bit_rate">0</property>
  <property name="meta.attr.0.stream.HANDLER_NAME.markup">VideoHandler</property>
  <property name="meta.attr.0.stream.VENDOR_ID.markup">[0][0][0][0]</property>
  <property name="meta.attr.0.stream.ENCODER.markup">Lavc60.3.100 mjpeg</property>
  <property name="meta.attr.0.stream.DURATION.markup">00:00:01.350000000</property>
  <property name="meta.attr.COMMENT.markup">Rendered with Manim Community v0.17.2</property>
  <property name="meta.attr.MAJOR_BRAND.markup">isom</property>
  <property name="meta.attr.MINOR_VERSION.markup">512</property>
  <property name="meta.attr.COMPATIBLE_BRANDS.markup">isomiso2avc1mp41</property>
  <property name="meta.attr.ENCODER.markup">Lavf60.3.100</property>
  <property name="seekable">1</property>
  <property name="meta.media.sample_aspect_num">1</property>
  <property name="meta.media.sample_aspect_den">1</property>
  <property name="aspect_ratio">1</property>
  <property name="format">3</property>
  <property name="audio_index">-1</property>
  <property name="video_index">0</property>
  <property name="mute_on_pause">0</property>
  <property name="mlt_service">avformat-novalidate</property>
  <property name="kdenlive:clipname">31.mp4</property>
  <property name="kdenlive:clip_type">2</property>
  <property name="kdenlive:folderid">488</property>
  <property name="kdenlive:id">404</property>
  <property name="kdenlive:file_size">454240</property>
  <property name="kdenlive:file_hash">5d9cb8860fc5e00c4c8ba51707827cae</property>
  <property name="kdenlive:proxy">/home/xiaoxiae/.cache/kdenlive/proxy/5d9cb8860fc5e00c4c8ba51707827cae.mkv</property>
  <property name="kdenlive:originalurl">video/Insertion/31.mp4</property>
  <property name="kdenlive:original.mlt_type">producer</property>
  <property name="kdenlive:original.in">00:00:00.000</property>
  <property name="kdenlive:original.out">00:00:01.333</property>
  <property name="kdenlive:original.length">81</property>
  <property name="kdenlive:original.eof">pause</property>
  <property name="kdenlive:original.resource">video/Insertion/31.mp4</property>
  <property name="kdenlive:original.meta.media.nb_streams">1</property>
  <property name="kdenlive:original.meta.media.0.stream.type">video</property>
  <property name="kdenlive:original.meta.media.0.stream.frame_rate">60</property>
  <property name="kdenlive:original.meta.media.0.stream.sample_aspect_ratio">0</property>
  <property name="kdenlive:original.meta.media.0.codec.width">3840</property>
  <property name="kdenlive:original.meta.media.0.codec.height">2160</property>
  <property name="kdenlive:original.meta.media.0.codec.rotate">0</property>
  <property name="kdenlive:original.meta.media.0.codec.pix_fmt">yuv420p</property>
  <property name="kdenlive:original.meta.media.0.codec.sample_aspect_ratio">0</property>
  <property name="kdenlive:original.meta.media.0.codec.colorspace">709</property>
  <property name="kdenlive:original.meta.media.0.codec.name">h264</property>
  <property name="kdenlive:original.meta.media.0.codec.long_name">H.264 / AVC / MPEG-4 AVC / MPEG-4 part 10</property>
  <property name="kdenlive:original.meta.media.0.codec.bit_rate">2680586</property>
  <property name="kdenlive:original.meta.attr.0.stream.handler_name.markup">VideoHandler</property>
  <property name="kdenlive:original.meta.attr.0.stream.vendor_id.markup">[0][0][0][0]</property>
  <property name="kdenlive:original.meta.attr.0.stream.encoder.markup">Lavc60.3.100 libx264</property>
  <property name="kdenlive:original.meta.attr.major_brand.markup">isom</property>
  <property name="kdenlive:original.meta.attr.minor_version.markup">512</property>
  <property name="kdenlive:original.meta.attr.compatible_brands.markup">isomiso2avc1mp41</property>
  <property name="kdenlive:original.meta.attr.encoder.markup">Lavf60.3.100</property>
  <property name="kdenlive:original.meta.attr.comment.markup">Rendered with Manim Community v0.17.2</property>
  <property name="kdenlive:original.seekable">1</property>
  <property name="kdenlive:original.width">3840</property>
  <property name="kdenlive:original.height">2160</property>
  <property name="kdenlive:original.meta.media.sample_aspect_num">1</property>
  <property name="kdenlive:original.meta.media.sample_aspect_den">1</property>
  <property name="kdenlive:original.aspect_ratio">1</property>
  <property name="kdenlive:original.format">3</property>
  <property name="kdenlive:original.audio_index">-1</property>
  <property name="kdenlive:original.video_index">0</property>
  <property name="kdenlive:original.mute_on_pause">0</property>
  <property name="kdenlive:original.mlt_service">avformat-novalidate</property>
  <property name="kdenlive:original.meta.media.frame_rate_num">60</property>
  <property name="kdenlive:original.meta.media.frame_rate_den">1</property>
  <property name="kdenlive:original.meta.media.colorspace">709</property>
  <property name="kdenlive:original.meta.media.color_trc">2</property>
  <property name="kdenlive:original.meta.media.has_b_frames">2</property>
  <property name="kdenlive:original.meta.media.width">3840</property>
  <property name="kdenlive:original.meta.media.height">2160</property>
  <property name="kdenlive:original.meta.media.color_range">mpeg</property>
  <property name="kdenlive:original.meta.media.top_field_first">0</property>
  <property name="kdenlive:original.meta.media.progressive">1</property>
  <property name="kdenlive:original.kdenlive:clip_type">2</property>
  <property name="kdenlive:original.kdenlive:folderid">488</property>
  <property name="kdenlive:original.kdenlive:id">513</property>
  <property name="kdenlive:original.kdenlive:file_size">454240</property>
  <property name="kdenlive:original.kdenlive:file_hash">5d9cb8860fc5e00c4c8ba51707827cae</property>
  <property name="kdenlive:original.backup">1</property>
  <property name="meta.media.frame_rate_num">60</property>
  <property name="meta.media.frame_rate_den">1</property>
  <property name="meta.media.colorspace">601</property>
  <property name="meta.media.color_trc">2</property>
  <property name="meta.media.has_b_frames">0</property>
  <property name="meta.media.width">640</property>
  <property name="meta.media.height">360</property>
  <property name="meta.media.color_range">full</property>
  <property name="meta.media.top_field_first">0</property>
  <property name="meta.media.progressive">1</property>
 </producer>
 <producer id="producer327" in="00:00:00.000" out="00:00:00.983">
  <property name="length">60</property>
  <property name="eof">pause</property>
  <property name="resource">/home/xiaoxiae/.cache/kdenlive/proxy/24813d83c418d4d9874e0787efcfdfae.mkv</property>
  <property name="meta.media.nb_streams">1</property>
  <property name="meta.media.0.stream.type">video</property>
  <property name="meta.media.0.stream.frame_rate">60</property>
  <property name="meta.media.0.stream.sample_aspect_ratio">0</property>
  <property name="meta.media.0.codec.width">640</property>
  <property name="meta.media.0.codec.height">360</property>
  <property name="meta.media.0.codec.rotate">0</property>
  <property name="meta.media.0.codec.pix_fmt">yuvj420p</property>
  <property name="meta.media.0.codec.sample_aspect_ratio">0</property>
  <property name="meta.media.0.codec.colorspace">601</property>
  <property name="meta.media.0.codec.name">mjpeg</property>
  <property name="meta.media.0.codec.long_name">MJPEG (Motion JPEG)</property>
  <property name="meta.media.0.codec.bit_rate">0</property>
  <property name="meta.attr.0.stream.HANDLER_NAME.markup">VideoHandler</property>
  <property name="meta.attr.0.stream.VENDOR_ID.markup">[0][0][0][0]</property>
  <property name="meta.attr.0.stream.ENCODER.markup">Lavc60.3.100 mjpeg</property>
  <property name="meta.attr.0.stream.DURATION.markup">00:00:01.000000000</property>
  <property name="meta.attr.COMMENT.markup">Rendered with Manim Community v0.17.2</property>
  <property name="meta.attr.MAJOR_BRAND.markup">isom</property>
  <property name="meta.attr.MINOR_VERSION.markup">512</property>
  <property name="meta.attr.COMPATIBLE_BRANDS.markup">isomiso2avc1mp41</property>
  <property name="meta.attr.ENCODER.markup">Lavf60.3.100</property>
  <property name="seekable">1</property>
  <property name="meta.media.sample_aspect_num">1</property>
  <property name="meta.media.sample_aspect_den">1</property>
  <property name="aspect_ratio">1</property>
  <property name="format">3</property>
  <property name="audio_index">-1</property>
  <property name="video_index">0</property>
  <property name="mute_on_pause">0</property>
  <property name="mlt_service">avformat-novalidate</property>
  <property name="kdenlive:clipname">32.mp4</property>
  <property name="kdenlive:clip_type">2</property>
  <property name="kdenlive:folderid">488</property>
  <property name="kdenlive:id">405</property>
  <property name="kdenlive:file_size">536843</property>
  <property name="kdenlive:file_hash">24813d83c418d4d9874e0787efcfdfae</property>
  <property name="kdenlive:proxy">/home/xiaoxiae/.cache/kdenlive/proxy/24813d83c418d4d9874e0787efcfdfae.mkv</property>
  <property name="kdenlive:originalurl">video/Insertion/32.mp4</property>
  <property name="kdenlive:original.mlt_type">producer</property>
  <property name="kdenlive:original.in">00:00:00.000</property>
  <property name="kdenlive:original.out">00:00:00.983</property>
  <property name="kdenlive:original.length">60</property>
  <property name="kdenlive:original.eof">pause</property>
  <property name="kdenlive:original.resource">video/Insertion/32.mp4</property>
  <property name="kdenlive:original.meta.media.nb_streams">1</property>
  <property name="kdenlive:original.meta.media.0.stream.type">video</property>
  <property name="kdenlive:original.meta.media.0.stream.frame_rate">60</property>
  <property name="kdenlive:original.meta.media.0.stream.sample_aspect_ratio">0</property>
  <property name="kdenlive:original.meta.media.0.codec.width">3840</property>
  <property name="kdenlive:original.meta.media.0.codec.height">2160</property>
  <property name="kdenlive:original.meta.media.0.codec.rotate">0</property>
  <property name="kdenlive:original.meta.media.0.codec.pix_fmt">yuv420p</property>
  <property name="kdenlive:original.meta.media.0.codec.sample_aspect_ratio">0</property>
  <property name="kdenlive:original.meta.media.0.codec.colorspace">709</property>
  <property name="kdenlive:original.meta.media.0.codec.name">h264</property>
  <property name="kdenlive:original.meta.media.0.codec.long_name">H.264 / AVC / MPEG-4 AVC / MPEG-4 part 10</property>
  <property name="kdenlive:original.meta.media.0.codec.bit_rate">4283872</property>
  <property name="kdenlive:original.meta.attr.0.stream.handler_name.markup">VideoHandler</property>
  <property name="kdenlive:original.meta.attr.0.stream.vendor_id.markup">[0][0][0][0]</property>
  <property name="kdenlive:original.meta.attr.0.stream.encoder.markup">Lavc60.3.100 libx264</property>
  <property name="kdenlive:original.meta.attr.major_brand.markup">isom</property>
  <property name="kdenlive:original.meta.attr.minor_version.markup">512</property>
  <property name="kdenlive:original.meta.attr.compatible_brands.markup">isomiso2avc1mp41</property>
  <property name="kdenlive:original.meta.attr.encoder.markup">Lavf60.3.100</property>
  <property name="kdenlive:original.meta.attr.comment.markup">Rendered with Manim Community v0.17.2</property>
  <property name="kdenlive:original.seekable">1</property>
  <property name="kdenlive:original.width">3840</property>
  <property name="kdenlive:original.height">2160</property>
  <property name="kdenlive:original.meta.media.sample_aspect_num">1</property>
  <property name="kdenlive:original.meta.media.sample_aspect_den">1</property>
  <property name="kdenlive:original.aspect_ratio">1</property>
  <property name="kdenlive:original.format">3</property>
  <property name="kdenlive:original.audio_index">-1</property>
  <property name="kdenlive:original.video_index">0</property>
  <property name="kdenlive:original.mute_on_pause">0</property>
  <property name="kdenlive:original.mlt_service">avformat-novalidate</property>
  <property name="kdenlive:original.meta.media.frame_rate_num">60</property>
  <property name="kdenlive:original.meta.media.frame_rate_den">1</property>
  <property name="kdenlive:original.meta.media.colorspace">709</property>
  <property name="kdenlive:original.meta.media.color_trc">2</property>
  <property name="kdenlive:original.meta.media.has_b_frames">2</property>
  <property name="kdenlive:original.meta.media.width">3840</property>
  <property name="kdenlive:original.meta.media.height">2160</property>
  <property name="kdenlive:original.meta.media.color_range">mpeg</property>
  <property name="kdenlive:original.meta.media.top_field_first">0</property>
  <property name="kdenlive:original.meta.media.progressive">1</property>
  <property name="kdenlive:original.kdenlive:clip_type">2</property>
  <property name="kdenlive:original.kdenlive:folderid">488</property>
  <property name="kdenlive:original.kdenlive:id">514</property>
  <property name="kdenlive:original.kdenlive:file_size">536843</property>
  <property name="kdenlive:original.kdenlive:file_hash">24813d83c418d4d9874e0787efcfdfae</property>
  <property name="kdenlive:original.backup">1</property>
  <property name="meta.media.frame_rate_num">60</property>
  <property name="meta.media.frame_rate_den">1</property>
  <property name="meta.media.colorspace">601</property>
  <property name="meta.media.color_trc">2</property>
  <property name="meta.media.has_b_frames">0</property>
  <property name="meta.media.width">640</property>
  <property name="meta.media.height">360</property>
  <property name="meta.media.color_range">full</property>
  <property name="meta.media.top_field_first">0</property>
  <property name="meta.media.progressive">1</property>
 </producer>
 <producer id="producer328" in="00:00:00.000" out="00:00:00.983">
  <property name="length">60</property>
  <property name="eof">pause</property>
  <property name="resource">/home/xiaoxiae/.cache/kdenlive/proxy/6a59e25ec85e5ae6692219b022d33f80.mkv</property>
  <property name="meta.media.nb_streams">1</property>
  <property name="meta.media.0.stream.type">video</property>
  <property name="meta.media.0.stream.frame_rate">60</property>
  <property name="meta.media.0.stream.sample_aspect_ratio">0</property>
  <property name="meta.media.0.codec.width">640</property>
  <property name="meta.media.0.codec.height">360</property>
  <property name="meta.media.0.codec.rotate">0</property>
  <property name="meta.media.0.codec.pix_fmt">yuvj420p</property>
  <property name="meta.media.0.codec.sample_aspect_ratio">0</property>
  <property name="meta.media.0.codec.colorspace">601</property>
  <property name="meta.media.0.codec.name">mjpeg</property>
  <property name="meta.media.0.codec.long_name">MJPEG (Motion JPEG)</property>
  <property name="meta.media.0.codec.bit_rate">0</property>
  <property name="meta.attr.0.stream.HANDLER_NAME.markup">VideoHandler</property>
  <property name="meta.attr.0.stream.VENDOR_ID.markup">[0][0][0][0]</property>
  <property name="meta.attr.0.stream.ENCODER.markup">Lavc60.3.100 mjpeg</property>
  <property name="meta.attr.0.stream.DURATION.markup">00:00:01.000000000</property>
  <property name="meta.attr.COMMENT.markup">Rendered with Manim Community v0.17.2</property>
  <property name="meta.attr.MAJOR_BRAND.markup">isom</property>
  <property name="meta.attr.MINOR_VERSION.markup">512</property>
  <property name="meta.attr.COMPATIBLE_BRANDS.markup">isomiso2avc1mp41</property>
  <property name="meta.attr.ENCODER.markup">Lavf60.3.100</property>
  <property name="seekable">1</property>
  <property name="meta.media.sample_aspect_num">1</property>
  <property name="meta.media.sample_aspect_den">1</property>
  <property name="aspect_ratio">1</property>
  <property name="format">3</property>
  <property name="audio_index">-1</property>
  <property name="video_index">0</property>
  <property name="mute_on_pause">0</property>
  <property name="mlt_service">avformat-novalidate</property>
  <property name="kdenlive:clipname">33.mp4</property>
  <property name="kdenlive:clip_type">2</property>
  <property name="kdenlive:folderid">488</property>
  <property name="kdenlive:id">406</property>
  <property name="kdenlive:file_size">84255</property>
  <property name="kdenlive:file_hash">6a59e25ec85e5ae6692219b022d33f80</property>
  <property name="kdenlive:proxy">/home/xiaoxiae/.cache/kdenlive/proxy/6a59e25ec85e5ae6692219b022d33f80.mkv</property>
  <property name="kdenlive:originalurl">video/Insertion/33.mp4</property>
  <property name="kdenlive:original.mlt_type">producer</property>
  <property name="kdenlive:original.in">00:00:00.000</property>
  <property name="kdenlive:original.out">00:00:00.983</property>
  <property name="kdenlive:original.length">60</property>
  <property name="kdenlive:original.eof">pause</property>
  <property name="kdenlive:original.resource">video/Insertion/33.mp4</property>
  <property name="kdenlive:original.meta.media.nb_streams">1</property>
  <property name="kdenlive:original.meta.media.0.stream.type">video</property>
  <property name="kdenlive:original.meta.media.0.stream.frame_rate">60</property>
  <property name="kdenlive:original.meta.media.0.stream.sample_aspect_ratio">0</property>
  <property name="kdenlive:original.meta.media.0.codec.width">3840</property>
  <property name="kdenlive:original.meta.media.0.codec.height">2160</property>
  <property name="kdenlive:original.meta.media.0.codec.rotate">0</property>
  <property name="kdenlive:original.meta.media.0.codec.pix_fmt">yuv420p</property>
  <property name="kdenlive:original.meta.media.0.codec.sample_aspect_ratio">0</property>
  <property name="kdenlive:original.meta.media.0.codec.colorspace">709</property>
  <property name="kdenlive:original.meta.media.0.codec.name">h264</property>
  <property name="kdenlive:original.meta.media.0.codec.long_name">H.264 / AVC / MPEG-4 AVC / MPEG-4 part 10</property>
  <property name="kdenlive:original.meta.media.0.codec.bit_rate">660992</property>
  <property name="kdenlive:original.meta.attr.0.stream.handler_name.markup">VideoHandler</property>
  <property name="kdenlive:original.meta.attr.0.stream.vendor_id.markup">[0][0][0][0]</property>
  <property name="kdenlive:original.meta.attr.0.stream.encoder.markup">Lavc60.3.100 libx264</property>
  <property name="kdenlive:original.meta.attr.major_brand.markup">isom</property>
  <property name="kdenlive:original.meta.attr.minor_version.markup">512</property>
  <property name="kdenlive:original.meta.attr.compatible_brands.markup">isomiso2avc1mp41</property>
  <property name="kdenlive:original.meta.attr.encoder.markup">Lavf60.3.100</property>
  <property name="kdenlive:original.meta.attr.comment.markup">Rendered with Manim Community v0.17.2</property>
  <property name="kdenlive:original.seekable">1</property>
  <property name="kdenlive:original.width">3840</property>
  <property name="kdenlive:original.height">2160</property>
  <property name="kdenlive:original.meta.media.sample_aspect_num">1</property>
  <property name="kdenlive:original.meta.media.sample_aspect_den">1</property>
  <property name="kdenlive:original.aspect_ratio">1</property>
  <property name="kdenlive:original.format">3</property>
  <property name="kdenlive:original.audio_index">-1</property>
  <property name="kdenlive:original.video_index">0</property>
  <property name="kdenlive:original.mute_on_pause">0</property>
  <property name="kdenlive:original.mlt_service">avformat-novalidate</property>
  <property name="kdenlive:original.meta.media.frame_rate_num">60</property>
  <property name="kdenlive:original.meta.media.frame_rate_den">1</property>
  <property name="kdenlive:original.meta.media.colorspace">709</property>
  <property name="kdenlive:original.meta.media.color_trc">2</property>
  <property name="kdenlive:original.meta.media.has_b_frames">2</property>
  <property name="kdenlive:original.meta.media.width">3840</property>
  <property name="kdenlive:original.meta.media.height">2160</property>
  <property name="kdenlive:original.meta.media.color_range">mpeg</property>
  <property name="kdenlive:original.meta.media.top_field_first">0</property>
  <property name="kdenlive:original.meta.media.progressive">1</property>
  <property name="kdenlive:original.kdenlive:clip_type">2</property>
  <property name="kdenlive:original.kdenlive:folderid">488</property>
  <property name="kdenlive:original.kdenlive:id">515</property>
  <property name="kdenlive:original.kdenlive:file_size">84255</property>
  <property name="kdenlive:original.kdenlive:file_hash">6a59e25ec85e5ae6692219b022d33f80</property>
  <property name="kdenlive:original.backup">1</property>
  <property name="meta.media.frame_rate_num">60</property>
  <property name="meta.media.frame_rate_den">1</property>
  <property name="meta.media.colorspace">601</property>
  <property name="meta.media.color_trc">2</property>
  <property name="meta.media.has_b_frames">0</property>
  <property name="meta.media.width">640</property>
  <property name="meta.media.height">360</property>
  <property name="meta.media.color_range">full</property>
  <property name="meta.media.top_field_first">0</property>
  <property name="meta.media.progressive">1</property>
 </producer>
 <producer id="producer329" in="00:00:00.000" out="00:00:00.983">
  <property name="length">60</property>
  <property name="eof">pause</property>
  <property name="resource">/home/xiaoxiae/.cache/kdenlive/proxy/530bee20c5b9232c31990eb32199cb77.mkv</property>
  <property name="meta.media.nb_streams">1</property>
  <property name="meta.media.0.stream.type">video</property>
  <property name="meta.media.0.stream.frame_rate">60</property>
  <property name="meta.media.0.stream.sample_aspect_ratio">0</property>
  <property name="meta.media.0.codec.width">640</property>
  <property name="meta.media.0.codec.height">360</property>
  <property name="meta.media.0.codec.rotate">0</property>
  <property name="meta.media.0.codec.pix_fmt">yuvj420p</property>
  <property name="meta.media.0.codec.sample_aspect_ratio">0</property>
  <property name="meta.media.0.codec.colorspace">601</property>
  <property name="meta.media.0.codec.name">mjpeg</property>
  <property name="meta.media.0.codec.long_name">MJPEG (Motion JPEG)</property>
  <property name="meta.media.0.codec.bit_rate">0</property>
  <property name="meta.attr.0.stream.HANDLER_NAME.markup">VideoHandler</property>
  <property name="meta.attr.0.stream.VENDOR_ID.markup">[0][0][0][0]</property>
  <property name="meta.attr.0.stream.ENCODER.markup">Lavc60.3.100 mjpeg</property>
  <property name="meta.attr.0.stream.DURATION.markup">00:00:01.000000000</property>
  <property name="meta.attr.COMMENT.markup">Rendered with Manim Community v0.17.2</property>
  <property name="meta.attr.MAJOR_BRAND.markup">isom</property>
  <property name="meta.attr.MINOR_VERSION.markup">512</property>
  <property name="meta.attr.COMPATIBLE_BRANDS.markup">isomiso2avc1mp41</property>
  <property name="meta.attr.ENCODER.markup">Lavf60.3.100</property>
  <property name="seekable">1</property>
  <property name="meta.media.sample_aspect_num">1</property>
  <property name="meta.media.sample_aspect_den">1</property>
  <property name="aspect_ratio">1</property>
  <property name="format">3</property>
  <property name="audio_index">-1</property>
  <property name="video_index">0</property>
  <property name="mute_on_pause">0</property>
  <property name="mlt_service">avformat-novalidate</property>
  <property name="kdenlive:clipname">34.mp4</property>
  <property name="kdenlive:clip_type">2</property>
  <property name="kdenlive:folderid">488</property>
  <property name="kdenlive:id">407</property>
  <property name="kdenlive:file_size">80754</property>
  <property name="kdenlive:file_hash">530bee20c5b9232c31990eb32199cb77</property>
  <property name="kdenlive:proxy">/home/xiaoxiae/.cache/kdenlive/proxy/530bee20c5b9232c31990eb32199cb77.mkv</property>
  <property name="kdenlive:originalurl">video/Insertion/34.mp4</property>
  <property name="kdenlive:original.mlt_type">producer</property>
  <property name="kdenlive:original.in">00:00:00.000</property>
  <property name="kdenlive:original.out">00:00:00.983</property>
  <property name="kdenlive:original.length">60</property>
  <property name="kdenlive:original.eof">pause</property>
  <property name="kdenlive:original.resource">video/Insertion/34.mp4</property>
  <property name="kdenlive:original.meta.media.nb_streams">1</property>
  <property name="kdenlive:original.meta.media.0.stream.type">video</property>
  <property name="kdenlive:original.meta.media.0.stream.frame_rate">60</property>
  <property name="kdenlive:original.meta.media.0.stream.sample_aspect_ratio">0</property>
  <property name="kdenlive:original.meta.media.0.codec.width">3840</property>
  <property name="kdenlive:original.meta.media.0.codec.height">2160</property>
  <property name="kdenlive:original.meta.media.0.codec.rotate">0</property>
  <property name="kdenlive:original.meta.media.0.codec.pix_fmt">yuv420p</property>
  <property name="kdenlive:original.meta.media.0.codec.sample_aspect_ratio">0</property>
  <property name="kdenlive:original.meta.media.0.codec.colorspace">709</property>
  <property name="kdenlive:original.meta.media.0.codec.name">h264</property>
  <property name="kdenlive:original.meta.media.0.codec.long_name">H.264 / AVC / MPEG-4 AVC / MPEG-4 part 10</property>
  <property name="kdenlive:original.meta.media.0.codec.bit_rate">632984</property>
  <property name="kdenlive:original.meta.attr.0.stream.handler_name.markup">VideoHandler</property>
  <property name="kdenlive:original.meta.attr.0.stream.vendor_id.markup">[0][0][0][0]</property>
  <property name="kdenlive:original.meta.attr.0.stream.encoder.markup">Lavc60.3.100 libx264</property>
  <property name="kdenlive:original.meta.attr.major_brand.markup">isom</property>
  <property name="kdenlive:original.meta.attr.minor_version.markup">512</property>
  <property name="kdenlive:original.meta.attr.compatible_brands.markup">isomiso2avc1mp41</property>
  <property name="kdenlive:original.meta.attr.encoder.markup">Lavf60.3.100</property>
  <property name="kdenlive:original.meta.attr.comment.markup">Rendered with Manim Community v0.17.2</property>
  <property name="kdenlive:original.seekable">1</property>
  <property name="kdenlive:original.width">3840</property>
  <property name="kdenlive:original.height">2160</property>
  <property name="kdenlive:original.meta.media.sample_aspect_num">1</property>
  <property name="kdenlive:original.meta.media.sample_aspect_den">1</property>
  <property name="kdenlive:original.aspect_ratio">1</property>
  <property name="kdenlive:original.format">3</property>
  <property name="kdenlive:original.audio_index">-1</property>
  <property name="kdenlive:original.video_index">0</property>
  <property name="kdenlive:original.mute_on_pause">0</property>
  <property name="kdenlive:original.mlt_service">avformat-novalidate</property>
  <property name="kdenlive:original.meta.media.frame_rate_num">60</property>
  <property name="kdenlive:original.meta.media.frame_rate_den">1</property>
  <property name="kdenlive:original.meta.media.colorspace">709</property>
  <property name="kdenlive:original.meta.media.color_trc">2</property>
  <property name="kdenlive:original.meta.media.has_b_frames">2</property>
  <property name="kdenlive:original.meta.media.width">3840</property>
  <property name="kdenlive:original.meta.media.height">2160</property>
  <property name="kdenlive:original.meta.media.color_range">mpeg</property>
  <property name="kdenlive:original.meta.media.top_field_first">0</property>
  <property name="kdenlive:original.meta.media.progressive">1</property>
  <property name="kdenlive:original.kdenlive:clip_type">2</property>
  <property name="kdenlive:original.kdenlive:folderid">488</property>
  <property name="kdenlive:original.kdenlive:id">516</property>
  <property name="kdenlive:original.kdenlive:file_size">80754</property>
  <property name="kdenlive:original.kdenlive:file_hash">530bee20c5b9232c31990eb32199cb77</property>
  <property name="kdenlive:original.backup">1</property>
  <property name="meta.media.frame_rate_num">60</property>
  <property name="meta.media.frame_rate_den">1</property>
  <property name="meta.media.colorspace">601</property>
  <property name="meta.media.color_trc">2</property>
  <property name="meta.media.has_b_frames">0</property>
  <property name="meta.media.width">640</property>
  <property name="meta.media.height">360</property>
  <property name="meta.media.color_range">full</property>
  <property name="meta.media.top_field_first">0</property>
  <property name="meta.media.progressive">1</property>
 </producer>
 <producer id="producer330" in="00:00:00.000" out="00:00:00.983">
  <property name="length">60</property>
  <property name="eof">pause</property>
  <property name="resource">/home/xiaoxiae/.cache/kdenlive/proxy/17a780c130413d425468d5144c1a9d36.mkv</property>
  <property name="meta.media.nb_streams">1</property>
  <property name="meta.media.0.stream.type">video</property>
  <property name="meta.media.0.stream.frame_rate">60</property>
  <property name="meta.media.0.stream.sample_aspect_ratio">0</property>
  <property name="meta.media.0.codec.width">640</property>
  <property name="meta.media.0.codec.height">360</property>
  <property name="meta.media.0.codec.rotate">0</property>
  <property name="meta.media.0.codec.pix_fmt">yuvj420p</property>
  <property name="meta.media.0.codec.sample_aspect_ratio">0</property>
  <property name="meta.media.0.codec.colorspace">601</property>
  <property name="meta.media.0.codec.name">mjpeg</property>
  <property name="meta.media.0.codec.long_name">MJPEG (Motion JPEG)</property>
  <property name="meta.media.0.codec.bit_rate">0</property>
  <property name="meta.attr.0.stream.HANDLER_NAME.markup">VideoHandler</property>
  <property name="meta.attr.0.stream.VENDOR_ID.markup">[0][0][0][0]</property>
  <property name="meta.attr.0.stream.ENCODER.markup">Lavc60.3.100 mjpeg</property>
  <property name="meta.attr.0.stream.DURATION.markup">00:00:01.000000000</property>
  <property name="meta.attr.COMMENT.markup">Rendered with Manim Community v0.17.2</property>
  <property name="meta.attr.MAJOR_BRAND.markup">isom</property>
  <property name="meta.attr.MINOR_VERSION.markup">512</property>
  <property name="meta.attr.COMPATIBLE_BRANDS.markup">isomiso2avc1mp41</property>
  <property name="meta.attr.ENCODER.markup">Lavf60.3.100</property>
  <property name="seekable">1</property>
  <property name="meta.media.sample_aspect_num">1</property>
  <property name="meta.media.sample_aspect_den">1</property>
  <property name="aspect_ratio">1</property>
  <property name="format">3</property>
  <property name="audio_index">-1</property>
  <property name="video_index">0</property>
  <property name="mute_on_pause">0</property>
  <property name="mlt_service">avformat-novalidate</property>
  <property name="kdenlive:clipname">35.mp4</property>
  <property name="kdenlive:clip_type">2</property>
  <property name="kdenlive:folderid">488</property>
  <property name="kdenlive:id">408</property>
  <property name="kdenlive:file_size">95865</property>
  <property name="kdenlive:file_hash">17a780c130413d425468d5144c1a9d36</property>
  <property name="kdenlive:proxy">/home/xiaoxiae/.cache/kdenlive/proxy/17a780c130413d425468d5144c1a9d36.mkv</property>
  <property name="kdenlive:originalurl">video/Insertion/35.mp4</property>
  <property name="kdenlive:original.mlt_type">producer</property>
  <property name="kdenlive:original.in">00:00:00.000</property>
  <property name="kdenlive:original.out">00:00:00.983</property>
  <property name="kdenlive:original.length">60</property>
  <property name="kdenlive:original.eof">pause</property>
  <property name="kdenlive:original.resource">video/Insertion/35.mp4</property>
  <property name="kdenlive:original.meta.media.nb_streams">1</property>
  <property name="kdenlive:original.meta.media.0.stream.type">video</property>
  <property name="kdenlive:original.meta.media.0.stream.frame_rate">60</property>
  <property name="kdenlive:original.meta.media.0.stream.sample_aspect_ratio">0</property>
  <property name="kdenlive:original.meta.media.0.codec.width">3840</property>
  <property name="kdenlive:original.meta.media.0.codec.height">2160</property>
  <property name="kdenlive:original.meta.media.0.codec.rotate">0</property>
  <property name="kdenlive:original.meta.media.0.codec.pix_fmt">yuv420p</property>
  <property name="kdenlive:original.meta.media.0.codec.sample_aspect_ratio">0</property>
  <property name="kdenlive:original.meta.media.0.codec.colorspace">709</property>
  <property name="kdenlive:original.meta.media.0.codec.name">h264</property>
  <property name="kdenlive:original.meta.media.0.codec.long_name">H.264 / AVC / MPEG-4 AVC / MPEG-4 part 10</property>
  <property name="kdenlive:original.meta.media.0.codec.bit_rate">753872</property>
  <property name="kdenlive:original.meta.attr.0.stream.handler_name.markup">VideoHandler</property>
  <property name="kdenlive:original.meta.attr.0.stream.vendor_id.markup">[0][0][0][0]</property>
  <property name="kdenlive:original.meta.attr.0.stream.encoder.markup">Lavc60.3.100 libx264</property>
  <property name="kdenlive:original.meta.attr.major_brand.markup">isom</property>
  <property name="kdenlive:original.meta.attr.minor_version.markup">512</property>
  <property name="kdenlive:original.meta.attr.compatible_brands.markup">isomiso2avc1mp41</property>
  <property name="kdenlive:original.meta.attr.encoder.markup">Lavf60.3.100</property>
  <property name="kdenlive:original.meta.attr.comment.markup">Rendered with Manim Community v0.17.2</property>
  <property name="kdenlive:original.seekable">1</property>
  <property name="kdenlive:original.width">3840</property>
  <property name="kdenlive:original.height">2160</property>
  <property name="kdenlive:original.meta.media.sample_aspect_num">1</property>
  <property name="kdenlive:original.meta.media.sample_aspect_den">1</property>
  <property name="kdenlive:original.aspect_ratio">1</property>
  <property name="kdenlive:original.format">3</property>
  <property name="kdenlive:original.audio_index">-1</property>
  <property name="kdenlive:original.video_index">0</property>
  <property name="kdenlive:original.mute_on_pause">0</property>
  <property name="kdenlive:original.mlt_service">avformat-novalidate</property>
  <property name="kdenlive:original.meta.media.frame_rate_num">60</property>
  <property name="kdenlive:original.meta.media.frame_rate_den">1</property>
  <property name="kdenlive:original.meta.media.colorspace">709</property>
  <property name="kdenlive:original.meta.media.color_trc">2</property>
  <property name="kdenlive:original.meta.media.has_b_frames">2</property>
  <property name="kdenlive:original.meta.media.width">3840</property>
  <property name="kdenlive:original.meta.media.height">2160</property>
  <property name="kdenlive:original.meta.media.color_range">mpeg</property>
  <property name="kdenlive:original.meta.media.top_field_first">0</property>
  <property name="kdenlive:original.meta.media.progressive">1</property>
  <property name="kdenlive:original.kdenlive:clip_type">2</property>
  <property name="kdenlive:original.kdenlive:folderid">488</property>
  <property name="kdenlive:original.kdenlive:id">517</property>
  <property name="kdenlive:original.kdenlive:file_size">95865</property>
  <property name="kdenlive:original.kdenlive:file_hash">17a780c130413d425468d5144c1a9d36</property>
  <property name="kdenlive:original.backup">1</property>
  <property name="meta.media.frame_rate_num">60</property>
  <property name="meta.media.frame_rate_den">1</property>
  <property name="meta.media.colorspace">601</property>
  <property name="meta.media.color_trc">2</property>
  <property name="meta.media.has_b_frames">0</property>
  <property name="meta.media.width">640</property>
  <property name="meta.media.height">360</property>
  <property name="meta.media.color_range">full</property>
  <property name="meta.media.top_field_first">0</property>
  <property name="meta.media.progressive">1</property>
 </producer>
 <producer id="producer331" in="00:00:00.000" out="00:00:00.983">
  <property name="length">60</property>
  <property name="eof">pause</property>
  <property name="resource">/home/xiaoxiae/.cache/kdenlive/proxy/a3531c9f1c83dc189dd069b01aaffee1.mkv</property>
  <property name="meta.media.nb_streams">1</property>
  <property name="meta.media.0.stream.type">video</property>
  <property name="meta.media.0.stream.frame_rate">60</property>
  <property name="meta.media.0.stream.sample_aspect_ratio">0</property>
  <property name="meta.media.0.codec.width">640</property>
  <property name="meta.media.0.codec.height">360</property>
  <property name="meta.media.0.codec.rotate">0</property>
  <property name="meta.media.0.codec.pix_fmt">yuvj420p</property>
  <property name="meta.media.0.codec.sample_aspect_ratio">0</property>
  <property name="meta.media.0.codec.colorspace">601</property>
  <property name="meta.media.0.codec.name">mjpeg</property>
  <property name="meta.media.0.codec.long_name">MJPEG (Motion JPEG)</property>
  <property name="meta.media.0.codec.bit_rate">0</property>
  <property name="meta.attr.0.stream.HANDLER_NAME.markup">VideoHandler</property>
  <property name="meta.attr.0.stream.VENDOR_ID.markup">[0][0][0][0]</property>
  <property name="meta.attr.0.stream.ENCODER.markup">Lavc60.3.100 mjpeg</property>
  <property name="meta.attr.0.stream.DURATION.markup">00:00:01.000000000</property>
  <property name="meta.attr.COMMENT.markup">Rendered with Manim Community v0.17.2</property>
  <property name="meta.attr.MAJOR_BRAND.markup">isom</property>
  <property name="meta.attr.MINOR_VERSION.markup">512</property>
  <property name="meta.attr.COMPATIBLE_BRANDS.markup">isomiso2avc1mp41</property>
  <property name="meta.attr.ENCODER.markup">Lavf60.3.100</property>
  <property name="seekable">1</property>
  <property name="meta.media.sample_aspect_num">1</property>
  <property name="meta.media.sample_aspect_den">1</property>
  <property name="aspect_ratio">1</property>
  <property name="format">3</property>
  <property name="audio_index">-1</property>
  <property name="video_index">0</property>
  <property name="mute_on_pause">0</property>
  <property name="mlt_service">avformat-novalidate</property>
  <property name="kdenlive:clipname">36.mp4</property>
  <property name="kdenlive:clip_type">2</property>
  <property name="kdenlive:folderid">488</property>
  <property name="kdenlive:id">409</property>
  <property name="kdenlive:file_size">465268</property>
  <property name="kdenlive:file_hash">a3531c9f1c83dc189dd069b01aaffee1</property>
  <property name="kdenlive:proxy">/home/xiaoxiae/.cache/kdenlive/proxy/a3531c9f1c83dc189dd069b01aaffee1.mkv</property>
  <property name="kdenlive:originalurl">video/Insertion/36.mp4</property>
  <property name="kdenlive:original.mlt_type">producer</property>
  <property name="kdenlive:original.in">00:00:00.000</property>
  <property name="kdenlive:original.out">00:00:00.983</property>
  <property name="kdenlive:original.length">60</property>
  <property name="kdenlive:original.eof">pause</property>
  <property name="kdenlive:original.resource">video/Insertion/36.mp4</property>
  <property name="kdenlive:original.meta.media.nb_streams">1</property>
  <property name="kdenlive:original.meta.media.0.stream.type">video</property>
  <property name="kdenlive:original.meta.media.0.stream.frame_rate">60</property>
  <property name="kdenlive:original.meta.media.0.stream.sample_aspect_ratio">0</property>
  <property name="kdenlive:original.meta.media.0.codec.width">3840</property>
  <property name="kdenlive:original.meta.media.0.codec.height">2160</property>
  <property name="kdenlive:original.meta.media.0.codec.rotate">0</property>
  <property name="kdenlive:original.meta.media.0.codec.pix_fmt">yuv420p</property>
  <property name="kdenlive:original.meta.media.0.codec.sample_aspect_ratio">0</property>
  <property name="kdenlive:original.meta.media.0.codec.colorspace">709</property>
  <property name="kdenlive:original.meta.media.0.codec.name">h264</property>
  <property name="kdenlive:original.meta.media.0.codec.long_name">H.264 / AVC / MPEG-4 AVC / MPEG-4 part 10</property>
  <property name="kdenlive:original.meta.media.0.codec.bit_rate">3711272</property>
  <property name="kdenlive:original.meta.attr.0.stream.handler_name.markup">VideoHandler</property>
  <property name="kdenlive:original.meta.attr.0.stream.vendor_id.markup">[0][0][0][0]</property>
  <property name="kdenlive:original.meta.attr.0.stream.encoder.markup">Lavc60.3.100 libx264</property>
  <property name="kdenlive:original.meta.attr.major_brand.markup">isom</property>
  <property name="kdenlive:original.meta.attr.minor_version.markup">512</property>
  <property name="kdenlive:original.meta.attr.compatible_brands.markup">isomiso2avc1mp41</property>
  <property name="kdenlive:original.meta.attr.encoder.markup">Lavf60.3.100</property>
  <property name="kdenlive:original.meta.attr.comment.markup">Rendered with Manim Community v0.17.2</property>
  <property name="kdenlive:original.seekable">1</property>
  <property name="kdenlive:original.width">3840</property>
  <property name="kdenlive:original.height">2160</property>
  <property name="kdenlive:original.meta.media.sample_aspect_num">1</property>
  <property name="kdenlive:original.meta.media.sample_aspect_den">1</property>
  <property name="kdenlive:original.aspect_ratio">1</property>
  <property name="kdenlive:original.format">3</property>
  <property name="kdenlive:original.audio_index">-1</property>
  <property name="kdenlive:original.video_index">0</property>
  <property name="kdenlive:original.mute_on_pause">0</property>
  <property name="kdenlive:original.mlt_service">avformat-novalidate</property>
  <property name="kdenlive:original.meta.media.frame_rate_num">60</property>
  <property name="kdenlive:original.meta.media.frame_rate_den">1</property>
  <property name="kdenlive:original.meta.media.colorspace">709</property>
  <property name="kdenlive:original.meta.media.color_trc">2</property>
  <property name="kdenlive:original.meta.media.has_b_frames">2</property>
  <property name="kdenlive:original.meta.media.width">3840</property>
  <property name="kdenlive:original.meta.media.height">2160</property>
  <property name="kdenlive:original.meta.media.color_range">mpeg</property>
  <property name="kdenlive:original.meta.media.top_field_first">0</property>
  <property name="kdenlive:original.meta.media.progressive">1</property>
  <property name="kdenlive:original.kdenlive:clip_type">2</property>
  <property name="kdenlive:original.kdenlive:folderid">488</property>
  <property name="kdenlive:original.kdenlive:id">518</property>
  <property name="kdenlive:original.kdenlive:file_size">465268</property>
  <property name="kdenlive:original.kdenlive:file_hash">a3531c9f1c83dc189dd069b01aaffee1</property>
  <property name="kdenlive:original.backup">1</property>
  <property name="meta.media.frame_rate_num">60</property>
  <property name="meta.media.frame_rate_den">1</property>
  <property name="meta.media.colorspace">601</property>
  <property name="meta.media.color_trc">2</property>
  <property name="meta.media.has_b_frames">0</property>
  <property name="meta.media.width">640</property>
  <property name="meta.media.height">360</property>
  <property name="meta.media.color_range">full</property>
  <property name="meta.media.top_field_first">0</property>
  <property name="meta.media.progressive">1</property>
 </producer>
 <producer id="producer332" in="00:00:00.000" out="00:00:01.483">
  <property name="length">90</property>
  <property name="eof">pause</property>
  <property name="resource">/home/xiaoxiae/.cache/kdenlive/proxy/d96153891c2ca29d7b16c6d76d6a322a.mkv</property>
  <property name="meta.media.nb_streams">1</property>
  <property name="meta.media.0.stream.type">video</property>
  <property name="meta.media.0.stream.frame_rate">60</property>
  <property name="meta.media.0.stream.sample_aspect_ratio">0</property>
  <property name="meta.media.0.codec.width">640</property>
  <property name="meta.media.0.codec.height">360</property>
  <property name="meta.media.0.codec.rotate">0</property>
  <property name="meta.media.0.codec.pix_fmt">yuvj420p</property>
  <property name="meta.media.0.codec.sample_aspect_ratio">0</property>
  <property name="meta.media.0.codec.colorspace">601</property>
  <property name="meta.media.0.codec.name">mjpeg</property>
  <property name="meta.media.0.codec.long_name">MJPEG (Motion JPEG)</property>
  <property name="meta.media.0.codec.bit_rate">0</property>
  <property name="meta.attr.0.stream.HANDLER_NAME.markup">VideoHandler</property>
  <property name="meta.attr.0.stream.VENDOR_ID.markup">[0][0][0][0]</property>
  <property name="meta.attr.0.stream.ENCODER.markup">Lavc60.3.100 mjpeg</property>
  <property name="meta.attr.0.stream.DURATION.markup">00:00:01.500000000</property>
  <property name="meta.attr.COMMENT.markup">Rendered with Manim Community v0.17.2</property>
  <property name="meta.attr.MAJOR_BRAND.markup">isom</property>
  <property name="meta.attr.MINOR_VERSION.markup">512</property>
  <property name="meta.attr.COMPATIBLE_BRANDS.markup">isomiso2avc1mp41</property>
  <property name="meta.attr.ENCODER.markup">Lavf60.3.100</property>
  <property name="seekable">1</property>
  <property name="meta.media.sample_aspect_num">1</property>
  <property name="meta.media.sample_aspect_den">1</property>
  <property name="aspect_ratio">1</property>
  <property name="format">3</property>
  <property name="audio_index">-1</property>
  <property name="video_index">0</property>
  <property name="mute_on_pause">0</property>
  <property name="mlt_service">avformat-novalidate</property>
  <property name="kdenlive:clipname">37.mp4</property>
  <property name="kdenlive:clip_type">2</property>
  <property name="kdenlive:folderid">488</property>
  <property name="kdenlive:id">410</property>
  <property name="kdenlive:file_size">112858</property>
  <property name="kdenlive:file_hash">d96153891c2ca29d7b16c6d76d6a322a</property>
  <property name="kdenlive:proxy">/home/xiaoxiae/.cache/kdenlive/proxy/d96153891c2ca29d7b16c6d76d6a322a.mkv</property>
  <property name="kdenlive:originalurl">video/Insertion/37.mp4</property>
  <property name="kdenlive:original.mlt_type">producer</property>
  <property name="kdenlive:original.in">00:00:00.000</property>
  <property name="kdenlive:original.out">00:00:01.483</property>
  <property name="kdenlive:original.length">90</property>
  <property name="kdenlive:original.eof">pause</property>
  <property name="kdenlive:original.resource">video/Insertion/37.mp4</property>
  <property name="kdenlive:original.meta.media.nb_streams">1</property>
  <property name="kdenlive:original.meta.media.0.stream.type">video</property>
  <property name="kdenlive:original.meta.media.0.stream.frame_rate">60</property>
  <property name="kdenlive:original.meta.media.0.stream.sample_aspect_ratio">0</property>
  <property name="kdenlive:original.meta.media.0.codec.width">3840</property>
  <property name="kdenlive:original.meta.media.0.codec.height">2160</property>
  <property name="kdenlive:original.meta.media.0.codec.rotate">0</property>
  <property name="kdenlive:original.meta.media.0.codec.pix_fmt">yuv420p</property>
  <property name="kdenlive:original.meta.media.0.codec.sample_aspect_ratio">0</property>
  <property name="kdenlive:original.meta.media.0.codec.colorspace">709</property>
  <property name="kdenlive:original.meta.media.0.codec.name">h264</property>
  <property name="kdenlive:original.meta.media.0.codec.long_name">H.264 / AVC / MPEG-4 AVC / MPEG-4 part 10</property>
  <property name="kdenlive:original.meta.media.0.codec.bit_rate">591248</property>
  <property name="kdenlive:original.meta.attr.0.stream.handler_name.markup">VideoHandler</property>
  <property name="kdenlive:original.meta.attr.0.stream.vendor_id.markup">[0][0][0][0]</property>
  <property name="kdenlive:original.meta.attr.0.stream.encoder.markup">Lavc60.3.100 libx264</property>
  <property name="kdenlive:original.meta.attr.major_brand.markup">isom</property>
  <property name="kdenlive:original.meta.attr.minor_version.markup">512</property>
  <property name="kdenlive:original.meta.attr.compatible_brands.markup">isomiso2avc1mp41</property>
  <property name="kdenlive:original.meta.attr.encoder.markup">Lavf60.3.100</property>
  <property name="kdenlive:original.meta.attr.comment.markup">Rendered with Manim Community v0.17.2</property>
  <property name="kdenlive:original.seekable">1</property>
  <property name="kdenlive:original.width">3840</property>
  <property name="kdenlive:original.height">2160</property>
  <property name="kdenlive:original.meta.media.sample_aspect_num">1</property>
  <property name="kdenlive:original.meta.media.sample_aspect_den">1</property>
  <property name="kdenlive:original.aspect_ratio">1</property>
  <property name="kdenlive:original.format">3</property>
  <property name="kdenlive:original.audio_index">-1</property>
  <property name="kdenlive:original.video_index">0</property>
  <property name="kdenlive:original.mute_on_pause">0</property>
  <property name="kdenlive:original.mlt_service">avformat-novalidate</property>
  <property name="kdenlive:original.meta.media.frame_rate_num">60</property>
  <property name="kdenlive:original.meta.media.frame_rate_den">1</property>
  <property name="kdenlive:original.meta.media.colorspace">709</property>
  <property name="kdenlive:original.meta.media.color_trc">2</property>
  <property name="kdenlive:original.meta.media.has_b_frames">2</property>
  <property name="kdenlive:original.meta.media.width">3840</property>
  <property name="kdenlive:original.meta.media.height">2160</property>
  <property name="kdenlive:original.meta.media.color_range">mpeg</property>
  <property name="kdenlive:original.meta.media.top_field_first">0</property>
  <property name="kdenlive:original.meta.media.progressive">1</property>
  <property name="kdenlive:original.kdenlive:clip_type">2</property>
  <property name="kdenlive:original.kdenlive:folderid">488</property>
  <property name="kdenlive:original.kdenlive:id">519</property>
  <property name="kdenlive:original.kdenlive:file_size">112858</property>
  <property name="kdenlive:original.kdenlive:file_hash">d96153891c2ca29d7b16c6d76d6a322a</property>
  <property name="kdenlive:original.backup">1</property>
  <property name="meta.media.frame_rate_num">60</property>
  <property name="meta.media.frame_rate_den">1</property>
  <property name="meta.media.colorspace">601</property>
  <property name="meta.media.color_trc">2</property>
  <property name="meta.media.has_b_frames">0</property>
  <property name="meta.media.width">640</property>
  <property name="meta.media.height">360</property>
  <property name="meta.media.color_range">full</property>
  <property name="meta.media.top_field_first">0</property>
  <property name="meta.media.progressive">1</property>
 </producer>
 <producer id="producer333" in="00:00:00.000" out="00:00:00.983">
  <property name="length">60</property>
  <property name="eof">pause</property>
  <property name="resource">/home/xiaoxiae/.cache/kdenlive/proxy/5c4fbcb5a7e2894b960d0fd91cfaf428.mkv</property>
  <property name="meta.media.nb_streams">1</property>
  <property name="meta.media.0.stream.type">video</property>
  <property name="meta.media.0.stream.frame_rate">60</property>
  <property name="meta.media.0.stream.sample_aspect_ratio">0</property>
  <property name="meta.media.0.codec.width">640</property>
  <property name="meta.media.0.codec.height">360</property>
  <property name="meta.media.0.codec.rotate">0</property>
  <property name="meta.media.0.codec.pix_fmt">yuvj420p</property>
  <property name="meta.media.0.codec.sample_aspect_ratio">0</property>
  <property name="meta.media.0.codec.colorspace">601</property>
  <property name="meta.media.0.codec.name">mjpeg</property>
  <property name="meta.media.0.codec.long_name">MJPEG (Motion JPEG)</property>
  <property name="meta.media.0.codec.bit_rate">0</property>
  <property name="meta.attr.0.stream.HANDLER_NAME.markup">VideoHandler</property>
  <property name="meta.attr.0.stream.VENDOR_ID.markup">[0][0][0][0]</property>
  <property name="meta.attr.0.stream.ENCODER.markup">Lavc60.3.100 mjpeg</property>
  <property name="meta.attr.0.stream.DURATION.markup">00:00:01.000000000</property>
  <property name="meta.attr.COMMENT.markup">Rendered with Manim Community v0.17.2</property>
  <property name="meta.attr.MAJOR_BRAND.markup">isom</property>
  <property name="meta.attr.MINOR_VERSION.markup">512</property>
  <property name="meta.attr.COMPATIBLE_BRANDS.markup">isomiso2avc1mp41</property>
  <property name="meta.attr.ENCODER.markup">Lavf60.3.100</property>
  <property name="seekable">1</property>
  <property name="meta.media.sample_aspect_num">1</property>
  <property name="meta.media.sample_aspect_den">1</property>
  <property name="aspect_ratio">1</property>
  <property name="format">3</property>
  <property name="audio_index">-1</property>
  <property name="video_index">0</property>
  <property name="mute_on_pause">0</property>
  <property name="mlt_service">avformat-novalidate</property>
  <property name="kdenlive:clipname">38.mp4</property>
  <property name="kdenlive:clip_type">2</property>
  <property name="kdenlive:folderid">488</property>
  <property name="kdenlive:id">411</property>
  <property name="kdenlive:file_size">561251</property>
  <property name="kdenlive:file_hash">5c4fbcb5a7e2894b960d0fd91cfaf428</property>
  <property name="kdenlive:proxy">/home/xiaoxiae/.cache/kdenlive/proxy/5c4fbcb5a7e2894b960d0fd91cfaf428.mkv</property>
  <property name="kdenlive:originalurl">video/Insertion/38.mp4</property>
  <property name="kdenlive:original.mlt_type">producer</property>
  <property name="kdenlive:original.in">00:00:00.000</property>
  <property name="kdenlive:original.out">00:00:00.983</property>
  <property name="kdenlive:original.length">60</property>
  <property name="kdenlive:original.eof">pause</property>
  <property name="kdenlive:original.resource">video/Insertion/38.mp4</property>
  <property name="kdenlive:original.meta.media.nb_streams">1</property>
  <property name="kdenlive:original.meta.media.0.stream.type">video</property>
  <property name="kdenlive:original.meta.media.0.stream.frame_rate">60</property>
  <property name="kdenlive:original.meta.media.0.stream.sample_aspect_ratio">0</property>
  <property name="kdenlive:original.meta.media.0.codec.width">3840</property>
  <property name="kdenlive:original.meta.media.0.codec.height">2160</property>
  <property name="kdenlive:original.meta.media.0.codec.rotate">0</property>
  <property name="kdenlive:original.meta.media.0.codec.pix_fmt">yuv420p</property>
  <property name="kdenlive:original.meta.media.0.codec.sample_aspect_ratio">0</property>
  <property name="kdenlive:original.meta.media.0.codec.colorspace">709</property>
  <property name="kdenlive:original.meta.media.0.codec.name">h264</property>
  <property name="kdenlive:original.meta.media.0.codec.long_name">H.264 / AVC / MPEG-4 AVC / MPEG-4 part 10</property>
  <property name="kdenlive:original.meta.media.0.codec.bit_rate">4477856</property>
  <property name="kdenlive:original.meta.attr.0.stream.handler_name.markup">VideoHandler</property>
  <property name="kdenlive:original.meta.attr.0.stream.vendor_id.markup">[0][0][0][0]</property>
  <property name="kdenlive:original.meta.attr.0.stream.encoder.markup">Lavc60.3.100 libx264</property>
  <property name="kdenlive:original.meta.attr.major_brand.markup">isom</property>
  <property name="kdenlive:original.meta.attr.minor_version.markup">512</property>
  <property name="kdenlive:original.meta.attr.compatible_brands.markup">isomiso2avc1mp41</property>
  <property name="kdenlive:original.meta.attr.encoder.markup">Lavf60.3.100</property>
  <property name="kdenlive:original.meta.attr.comment.markup">Rendered with Manim Community v0.17.2</property>
  <property name="kdenlive:original.seekable">1</property>
  <property name="kdenlive:original.width">3840</property>
  <property name="kdenlive:original.height">2160</property>
  <property name="kdenlive:original.meta.media.sample_aspect_num">1</property>
  <property name="kdenlive:original.meta.media.sample_aspect_den">1</property>
  <property name="kdenlive:original.aspect_ratio">1</property>
  <property name="kdenlive:original.format">3</property>
  <property name="kdenlive:original.audio_index">-1</property>
  <property name="kdenlive:original.video_index">0</property>
  <property name="kdenlive:original.mute_on_pause">0</property>
  <property name="kdenlive:original.mlt_service">avformat-novalidate</property>
  <property name="kdenlive:original.meta.media.frame_rate_num">60</property>
  <property name="kdenlive:original.meta.media.frame_rate_den">1</property>
  <property name="kdenlive:original.meta.media.colorspace">709</property>
  <property name="kdenlive:original.meta.media.color_trc">2</property>
  <property name="kdenlive:original.meta.media.has_b_frames">2</property>
  <property name="kdenlive:original.meta.media.width">3840</property>
  <property name="kdenlive:original.meta.media.height">2160</property>
  <property name="kdenlive:original.meta.media.color_range">mpeg</property>
  <property name="kdenlive:original.meta.media.top_field_first">0</property>
  <property name="kdenlive:original.meta.media.progressive">1</property>
  <property name="kdenlive:original.kdenlive:clip_type">2</property>
  <property name="kdenlive:original.kdenlive:folderid">488</property>
  <property name="kdenlive:original.kdenlive:id">520</property>
  <property name="kdenlive:original.kdenlive:file_size">561251</property>
  <property name="kdenlive:original.kdenlive:file_hash">5c4fbcb5a7e2894b960d0fd91cfaf428</property>
  <property name="kdenlive:original.backup">1</property>
  <property name="meta.media.frame_rate_num">60</property>
  <property name="meta.media.frame_rate_den">1</property>
  <property name="meta.media.colorspace">601</property>
  <property name="meta.media.color_trc">2</property>
  <property name="meta.media.has_b_frames">0</property>
  <property name="meta.media.width">640</property>
  <property name="meta.media.height">360</property>
  <property name="meta.media.color_range">full</property>
  <property name="meta.media.top_field_first">0</property>
  <property name="meta.media.progressive">1</property>
 </producer>
 <producer id="producer334" in="00:00:00.000" out="00:00:00.983">
  <property name="length">60</property>
  <property name="eof">pause</property>
  <property name="resource">/home/xiaoxiae/.cache/kdenlive/proxy/047d37f5b8a6fdede850a74ebf18afba.mkv</property>
  <property name="meta.media.nb_streams">1</property>
  <property name="meta.media.0.stream.type">video</property>
  <property name="meta.media.0.stream.frame_rate">60</property>
  <property name="meta.media.0.stream.sample_aspect_ratio">0</property>
  <property name="meta.media.0.codec.width">640</property>
  <property name="meta.media.0.codec.height">360</property>
  <property name="meta.media.0.codec.rotate">0</property>
  <property name="meta.media.0.codec.pix_fmt">yuvj420p</property>
  <property name="meta.media.0.codec.sample_aspect_ratio">0</property>
  <property name="meta.media.0.codec.colorspace">601</property>
  <property name="meta.media.0.codec.name">mjpeg</property>
  <property name="meta.media.0.codec.long_name">MJPEG (Motion JPEG)</property>
  <property name="meta.media.0.codec.bit_rate">0</property>
  <property name="meta.attr.0.stream.HANDLER_NAME.markup">VideoHandler</property>
  <property name="meta.attr.0.stream.VENDOR_ID.markup">[0][0][0][0]</property>
  <property name="meta.attr.0.stream.ENCODER.markup">Lavc60.3.100 mjpeg</property>
  <property name="meta.attr.0.stream.DURATION.markup">00:00:01.000000000</property>
  <property name="meta.attr.COMMENT.markup">Rendered with Manim Community v0.17.2</property>
  <property name="meta.attr.MAJOR_BRAND.markup">isom</property>
  <property name="meta.attr.MINOR_VERSION.markup">512</property>
  <property name="meta.attr.COMPATIBLE_BRANDS.markup">isomiso2avc1mp41</property>
  <property name="meta.attr.ENCODER.markup">Lavf60.3.100</property>
  <property name="seekable">1</property>
  <property name="meta.media.sample_aspect_num">1</property>
  <property name="meta.media.sample_aspect_den">1</property>
  <property name="aspect_ratio">1</property>
  <property name="format">3</property>
  <property name="audio_index">-1</property>
  <property name="video_index">0</property>
  <property name="mute_on_pause">0</property>
  <property name="mlt_service">avformat-novalidate</property>
  <property name="kdenlive:clipname">39.mp4</property>
  <property name="kdenlive:clip_type">2</property>
  <property name="kdenlive:folderid">488</property>
  <property name="kdenlive:id">412</property>
  <property name="kdenlive:file_size">80985</property>
  <property name="kdenlive:file_hash">047d37f5b8a6fdede850a74ebf18afba</property>
  <property name="kdenlive:proxy">/home/xiaoxiae/.cache/kdenlive/proxy/047d37f5b8a6fdede850a74ebf18afba.mkv</property>
  <property name="kdenlive:originalurl">video/Insertion/39.mp4</property>
  <property name="kdenlive:original.mlt_type">producer</property>
  <property name="kdenlive:original.in">00:00:00.000</property>
  <property name="kdenlive:original.out">00:00:00.983</property>
  <property name="kdenlive:original.length">60</property>
  <property name="kdenlive:original.eof">pause</property>
  <property name="kdenlive:original.resource">video/Insertion/39.mp4</property>
  <property name="kdenlive:original.meta.media.nb_streams">1</property>
  <property name="kdenlive:original.meta.media.0.stream.type">video</property>
  <property name="kdenlive:original.meta.media.0.stream.frame_rate">60</property>
  <property name="kdenlive:original.meta.media.0.stream.sample_aspect_ratio">0</property>
  <property name="kdenlive:original.meta.media.0.codec.width">3840</property>
  <property name="kdenlive:original.meta.media.0.codec.height">2160</property>
  <property name="kdenlive:original.meta.media.0.codec.rotate">0</property>
  <property name="kdenlive:original.meta.media.0.codec.pix_fmt">yuv420p</property>
  <property name="kdenlive:original.meta.media.0.codec.sample_aspect_ratio">0</property>
  <property name="kdenlive:original.meta.media.0.codec.colorspace">709</property>
  <property name="kdenlive:original.meta.media.0.codec.name">h264</property>
  <property name="kdenlive:original.meta.media.0.codec.long_name">H.264 / AVC / MPEG-4 AVC / MPEG-4 part 10</property>
  <property name="kdenlive:original.meta.media.0.codec.bit_rate">634768</property>
  <property name="kdenlive:original.meta.attr.0.stream.handler_name.markup">VideoHandler</property>
  <property name="kdenlive:original.meta.attr.0.stream.vendor_id.markup">[0][0][0][0]</property>
  <property name="kdenlive:original.meta.attr.0.stream.encoder.markup">Lavc60.3.100 libx264</property>
  <property name="kdenlive:original.meta.attr.major_brand.markup">isom</property>
  <property name="kdenlive:original.meta.attr.minor_version.markup">512</property>
  <property name="kdenlive:original.meta.attr.compatible_brands.markup">isomiso2avc1mp41</property>
  <property name="kdenlive:original.meta.attr.encoder.markup">Lavf60.3.100</property>
  <property name="kdenlive:original.meta.attr.comment.markup">Rendered with Manim Community v0.17.2</property>
  <property name="kdenlive:original.seekable">1</property>
  <property name="kdenlive:original.width">3840</property>
  <property name="kdenlive:original.height">2160</property>
  <property name="kdenlive:original.meta.media.sample_aspect_num">1</property>
  <property name="kdenlive:original.meta.media.sample_aspect_den">1</property>
  <property name="kdenlive:original.aspect_ratio">1</property>
  <property name="kdenlive:original.format">3</property>
  <property name="kdenlive:original.audio_index">-1</property>
  <property name="kdenlive:original.video_index">0</property>
  <property name="kdenlive:original.mute_on_pause">0</property>
  <property name="kdenlive:original.mlt_service">avformat-novalidate</property>
  <property name="kdenlive:original.meta.media.frame_rate_num">60</property>
  <property name="kdenlive:original.meta.media.frame_rate_den">1</property>
  <property name="kdenlive:original.meta.media.colorspace">709</property>
  <property name="kdenlive:original.meta.media.color_trc">2</property>
  <property name="kdenlive:original.meta.media.has_b_frames">2</property>
  <property name="kdenlive:original.meta.media.width">3840</property>
  <property name="kdenlive:original.meta.media.height">2160</property>
  <property name="kdenlive:original.meta.media.color_range">mpeg</property>
  <property name="kdenlive:original.meta.media.top_field_first">0</property>
  <property name="kdenlive:original.meta.media.progressive">1</property>
  <property name="kdenlive:original.kdenlive:clip_type">2</property>
  <property name="kdenlive:original.kdenlive:folderid">488</property>
  <property name="kdenlive:original.kdenlive:id">521</property>
  <property name="kdenlive:original.kdenlive:file_size">80985</property>
  <property name="kdenlive:original.kdenlive:file_hash">047d37f5b8a6fdede850a74ebf18afba</property>
  <property name="kdenlive:original.backup">1</property>
  <property name="meta.media.frame_rate_num">60</property>
  <property name="meta.media.frame_rate_den">1</property>
  <property name="meta.media.colorspace">601</property>
  <property name="meta.media.color_trc">2</property>
  <property name="meta.media.has_b_frames">0</property>
  <property name="meta.media.width">640</property>
  <property name="meta.media.height">360</property>
  <property name="meta.media.color_range">full</property>
  <property name="meta.media.top_field_first">0</property>
  <property name="meta.media.progressive">1</property>
 </producer>
 <producer id="producer335" in="00:00:00.000" out="00:00:00.183">
  <property name="length">12</property>
  <property name="eof">pause</property>
  <property name="resource">/home/xiaoxiae/.cache/kdenlive/proxy/071c3e9781dd6908cdf6b53d914d06ac.mkv</property>
  <property name="meta.media.nb_streams">1</property>
  <property name="meta.media.0.stream.type">video</property>
  <property name="meta.media.0.stream.frame_rate">60</property>
  <property name="meta.media.0.stream.sample_aspect_ratio">0</property>
  <property name="meta.media.0.codec.width">640</property>
  <property name="meta.media.0.codec.height">360</property>
  <property name="meta.media.0.codec.rotate">0</property>
  <property name="meta.media.0.codec.pix_fmt">yuvj420p</property>
  <property name="meta.media.0.codec.sample_aspect_ratio">0</property>
  <property name="meta.media.0.codec.colorspace">601</property>
  <property name="meta.media.0.codec.name">mjpeg</property>
  <property name="meta.media.0.codec.long_name">MJPEG (Motion JPEG)</property>
  <property name="meta.media.0.codec.bit_rate">0</property>
  <property name="meta.attr.0.stream.HANDLER_NAME.markup">VideoHandler</property>
  <property name="meta.attr.0.stream.VENDOR_ID.markup">[0][0][0][0]</property>
  <property name="meta.attr.0.stream.ENCODER.markup">Lavc60.3.100 mjpeg</property>
  <property name="meta.attr.0.stream.DURATION.markup">00:00:00.200000000</property>
  <property name="meta.attr.COMMENT.markup">Rendered with Manim Community v0.17.2</property>
  <property name="meta.attr.MAJOR_BRAND.markup">isom</property>
  <property name="meta.attr.MINOR_VERSION.markup">512</property>
  <property name="meta.attr.COMPATIBLE_BRANDS.markup">isomiso2avc1mp41</property>
  <property name="meta.attr.ENCODER.markup">Lavf60.3.100</property>
  <property name="seekable">1</property>
  <property name="meta.media.sample_aspect_num">1</property>
  <property name="meta.media.sample_aspect_den">1</property>
  <property name="aspect_ratio">1</property>
  <property name="format">3</property>
  <property name="audio_index">-1</property>
  <property name="video_index">0</property>
  <property name="mute_on_pause">0</property>
  <property name="mlt_service">avformat-novalidate</property>
  <property name="kdenlive:clipname">4.mp4</property>
  <property name="kdenlive:clip_type">2</property>
  <property name="kdenlive:folderid">488</property>
  <property name="kdenlive:id">413</property>
  <property name="kdenlive:file_size">54863</property>
  <property name="kdenlive:file_hash">071c3e9781dd6908cdf6b53d914d06ac</property>
  <property name="kdenlive:proxy">/home/xiaoxiae/.cache/kdenlive/proxy/071c3e9781dd6908cdf6b53d914d06ac.mkv</property>
  <property name="kdenlive:originalurl">video/Insertion/4.mp4</property>
  <property name="kdenlive:original.mlt_type">producer</property>
  <property name="kdenlive:original.in">00:00:00.000</property>
  <property name="kdenlive:original.out">00:00:00.183</property>
  <property name="kdenlive:original.length">12</property>
  <property name="kdenlive:original.eof">pause</property>
  <property name="kdenlive:original.resource">video/Insertion/4.mp4</property>
  <property name="kdenlive:original.meta.media.nb_streams">1</property>
  <property name="kdenlive:original.meta.media.0.stream.type">video</property>
  <property name="kdenlive:original.meta.media.0.stream.frame_rate">60</property>
  <property name="kdenlive:original.meta.media.0.stream.sample_aspect_ratio">0</property>
  <property name="kdenlive:original.meta.media.0.codec.width">3840</property>
  <property name="kdenlive:original.meta.media.0.codec.height">2160</property>
  <property name="kdenlive:original.meta.media.0.codec.rotate">0</property>
  <property name="kdenlive:original.meta.media.0.codec.pix_fmt">yuv420p</property>
  <property name="kdenlive:original.meta.media.0.codec.sample_aspect_ratio">0</property>
  <property name="kdenlive:original.meta.media.0.codec.colorspace">709</property>
  <property name="kdenlive:original.meta.media.0.codec.name">h264</property>
  <property name="kdenlive:original.meta.media.0.codec.long_name">H.264 / AVC / MPEG-4 AVC / MPEG-4 part 10</property>
  <property name="kdenlive:original.meta.media.0.codec.bit_rate">2152960</property>
  <property name="kdenlive:original.meta.attr.0.stream.handler_name.markup">VideoHandler</property>
  <property name="kdenlive:original.meta.attr.0.stream.vendor_id.markup">[0][0][0][0]</property>
  <property name="kdenlive:original.meta.attr.0.stream.encoder.markup">Lavc60.3.100 libx264</property>
  <property name="kdenlive:original.meta.attr.major_brand.markup">isom</property>
  <property name="kdenlive:original.meta.attr.minor_version.markup">512</property>
  <property name="kdenlive:original.meta.attr.compatible_brands.markup">isomiso2avc1mp41</property>
  <property name="kdenlive:original.meta.attr.encoder.markup">Lavf60.3.100</property>
  <property name="kdenlive:original.meta.attr.comment.markup">Rendered with Manim Community v0.17.2</property>
  <property name="kdenlive:original.seekable">1</property>
  <property name="kdenlive:original.width">3840</property>
  <property name="kdenlive:original.height">2160</property>
  <property name="kdenlive:original.meta.media.sample_aspect_num">1</property>
  <property name="kdenlive:original.meta.media.sample_aspect_den">1</property>
  <property name="kdenlive:original.aspect_ratio">1</property>
  <property name="kdenlive:original.format">3</property>
  <property name="kdenlive:original.audio_index">-1</property>
  <property name="kdenlive:original.video_index">0</property>
  <property name="kdenlive:original.mute_on_pause">0</property>
  <property name="kdenlive:original.mlt_service">avformat-novalidate</property>
  <property name="kdenlive:original.meta.media.frame_rate_num">60</property>
  <property name="kdenlive:original.meta.media.frame_rate_den">1</property>
  <property name="kdenlive:original.meta.media.colorspace">709</property>
  <property name="kdenlive:original.meta.media.color_trc">2</property>
  <property name="kdenlive:original.meta.media.has_b_frames">2</property>
  <property name="kdenlive:original.meta.media.width">3840</property>
  <property name="kdenlive:original.meta.media.height">2160</property>
  <property name="kdenlive:original.meta.media.color_range">mpeg</property>
  <property name="kdenlive:original.meta.media.top_field_first">0</property>
  <property name="kdenlive:original.meta.media.progressive">1</property>
  <property name="kdenlive:original.kdenlive:clip_type">2</property>
  <property name="kdenlive:original.kdenlive:folderid">488</property>
  <property name="kdenlive:original.kdenlive:id">522</property>
  <property name="kdenlive:original.kdenlive:file_size">54863</property>
  <property name="kdenlive:original.kdenlive:file_hash">071c3e9781dd6908cdf6b53d914d06ac</property>
  <property name="kdenlive:original.backup">1</property>
  <property name="meta.media.frame_rate_num">60</property>
  <property name="meta.media.frame_rate_den">1</property>
  <property name="meta.media.colorspace">601</property>
  <property name="meta.media.color_trc">2</property>
  <property name="meta.media.has_b_frames">0</property>
  <property name="meta.media.width">640</property>
  <property name="meta.media.height">360</property>
  <property name="meta.media.color_range">full</property>
  <property name="meta.media.top_field_first">0</property>
  <property name="meta.media.progressive">1</property>
 </producer>
 <producer id="producer336" in="00:00:00.000" out="00:00:00.117">
  <property name="length">8</property>
  <property name="eof">pause</property>
  <property name="resource">/home/xiaoxiae/.cache/kdenlive/proxy/01679bea1a2ec4196239ee867f6892e5.mkv</property>
  <property name="meta.media.nb_streams">1</property>
  <property name="meta.media.0.stream.type">video</property>
  <property name="meta.media.0.stream.frame_rate">60</property>
  <property name="meta.media.0.stream.sample_aspect_ratio">0</property>
  <property name="meta.media.0.codec.width">640</property>
  <property name="meta.media.0.codec.height">360</property>
  <property name="meta.media.0.codec.rotate">0</property>
  <property name="meta.media.0.codec.pix_fmt">yuvj420p</property>
  <property name="meta.media.0.codec.sample_aspect_ratio">0</property>
  <property name="meta.media.0.codec.colorspace">601</property>
  <property name="meta.media.0.codec.name">mjpeg</property>
  <property name="meta.media.0.codec.long_name">MJPEG (Motion JPEG)</property>
  <property name="meta.media.0.codec.bit_rate">0</property>
  <property name="meta.attr.0.stream.HANDLER_NAME.markup">VideoHandler</property>
  <property name="meta.attr.0.stream.VENDOR_ID.markup">[0][0][0][0]</property>
  <property name="meta.attr.0.stream.ENCODER.markup">Lavc60.3.100 mjpeg</property>
  <property name="meta.attr.0.stream.DURATION.markup">00:00:00.134000000</property>
  <property name="meta.attr.COMMENT.markup">Rendered with Manim Community v0.17.2</property>
  <property name="meta.attr.MAJOR_BRAND.markup">isom</property>
  <property name="meta.attr.MINOR_VERSION.markup">512</property>
  <property name="meta.attr.COMPATIBLE_BRANDS.markup">isomiso2avc1mp41</property>
  <property name="meta.attr.ENCODER.markup">Lavf60.3.100</property>
  <property name="seekable">1</property>
  <property name="meta.media.sample_aspect_num">1</property>
  <property name="meta.media.sample_aspect_den">1</property>
  <property name="aspect_ratio">1</property>
  <property name="format">3</property>
  <property name="audio_index">-1</property>
  <property name="video_index">0</property>
  <property name="mute_on_pause">0</property>
  <property name="mlt_service">avformat-novalidate</property>
  <property name="kdenlive:clipname">5.mp4</property>
  <property name="kdenlive:clip_type">2</property>
  <property name="kdenlive:folderid">488</property>
  <property name="kdenlive:id">414</property>
  <property name="kdenlive:file_size">51052</property>
  <property name="kdenlive:file_hash">01679bea1a2ec4196239ee867f6892e5</property>
  <property name="kdenlive:proxy">/home/xiaoxiae/.cache/kdenlive/proxy/01679bea1a2ec4196239ee867f6892e5.mkv</property>
  <property name="kdenlive:originalurl">video/Insertion/5.mp4</property>
  <property name="kdenlive:original.mlt_type">producer</property>
  <property name="kdenlive:original.in">00:00:00.000</property>
  <property name="kdenlive:original.out">00:00:00.117</property>
  <property name="kdenlive:original.length">8</property>
  <property name="kdenlive:original.eof">pause</property>
  <property name="kdenlive:original.resource">video/Insertion/5.mp4</property>
  <property name="kdenlive:original.meta.media.nb_streams">1</property>
  <property name="kdenlive:original.meta.media.0.stream.type">video</property>
  <property name="kdenlive:original.meta.media.0.stream.frame_rate">60</property>
  <property name="kdenlive:original.meta.media.0.stream.sample_aspect_ratio">0</property>
  <property name="kdenlive:original.meta.media.0.codec.width">3840</property>
  <property name="kdenlive:original.meta.media.0.codec.height">2160</property>
  <property name="kdenlive:original.meta.media.0.codec.rotate">0</property>
  <property name="kdenlive:original.meta.media.0.codec.pix_fmt">yuv420p</property>
  <property name="kdenlive:original.meta.media.0.codec.sample_aspect_ratio">0</property>
  <property name="kdenlive:original.meta.media.0.codec.colorspace">709</property>
  <property name="kdenlive:original.meta.media.0.codec.name">h264</property>
  <property name="kdenlive:original.meta.media.0.codec.long_name">H.264 / AVC / MPEG-4 AVC / MPEG-4 part 10</property>
  <property name="kdenlive:original.meta.media.0.codec.bit_rate">3004140</property>
  <property name="kdenlive:original.meta.attr.0.stream.handler_name.markup">VideoHandler</property>
  <property name="kdenlive:original.meta.attr.0.stream.vendor_id.markup">[0][0][0][0]</property>
  <property name="kdenlive:original.meta.attr.0.stream.encoder.markup">Lavc60.3.100 libx264</property>
  <property name="kdenlive:original.meta.attr.major_brand.markup">isom</property>
  <property name="kdenlive:original.meta.attr.minor_version.markup">512</property>
  <property name="kdenlive:original.meta.attr.compatible_brands.markup">isomiso2avc1mp41</property>
  <property name="kdenlive:original.meta.attr.encoder.markup">Lavf60.3.100</property>
  <property name="kdenlive:original.meta.attr.comment.markup">Rendered with Manim Community v0.17.2</property>
  <property name="kdenlive:original.seekable">1</property>
  <property name="kdenlive:original.width">3840</property>
  <property name="kdenlive:original.height">2160</property>
  <property name="kdenlive:original.meta.media.sample_aspect_num">1</property>
  <property name="kdenlive:original.meta.media.sample_aspect_den">1</property>
  <property name="kdenlive:original.aspect_ratio">1</property>
  <property name="kdenlive:original.format">3</property>
  <property name="kdenlive:original.audio_index">-1</property>
  <property name="kdenlive:original.video_index">0</property>
  <property name="kdenlive:original.mute_on_pause">0</property>
  <property name="kdenlive:original.mlt_service">avformat-novalidate</property>
  <property name="kdenlive:original.meta.media.frame_rate_num">60</property>
  <property name="kdenlive:original.meta.media.frame_rate_den">1</property>
  <property name="kdenlive:original.meta.media.colorspace">709</property>
  <property name="kdenlive:original.meta.media.color_trc">2</property>
  <property name="kdenlive:original.meta.media.has_b_frames">2</property>
  <property name="kdenlive:original.meta.media.width">3840</property>
  <property name="kdenlive:original.meta.media.height">2160</property>
  <property name="kdenlive:original.meta.media.color_range">mpeg</property>
  <property name="kdenlive:original.meta.media.top_field_first">0</property>
  <property name="kdenlive:original.meta.media.progressive">1</property>
  <property name="kdenlive:original.kdenlive:clip_type">2</property>
  <property name="kdenlive:original.kdenlive:folderid">488</property>
  <property name="kdenlive:original.kdenlive:id">523</property>
  <property name="kdenlive:original.kdenlive:file_size">51052</property>
  <property name="kdenlive:original.kdenlive:file_hash">01679bea1a2ec4196239ee867f6892e5</property>
  <property name="kdenlive:original.backup">1</property>
  <property name="meta.media.frame_rate_num">60</property>
  <property name="meta.media.frame_rate_den">1</property>
  <property name="meta.media.colorspace">601</property>
  <property name="meta.media.color_trc">2</property>
  <property name="meta.media.has_b_frames">0</property>
  <property name="meta.media.width">640</property>
  <property name="meta.media.height">360</property>
  <property name="meta.media.color_range">full</property>
  <property name="meta.media.top_field_first">0</property>
  <property name="meta.media.progressive">1</property>
 </producer>
 <producer id="producer338" in="00:00:00.000" out="00:00:00.117">
  <property name="length">8</property>
  <property name="eof">pause</property>
  <property name="resource">/home/xiaoxiae/.cache/kdenlive/proxy/c0840ec989d595e0be1e7897b3d2234f.mkv</property>
  <property name="meta.media.nb_streams">1</property>
  <property name="meta.media.0.stream.type">video</property>
  <property name="meta.media.0.stream.frame_rate">60</property>
  <property name="meta.media.0.stream.sample_aspect_ratio">0</property>
  <property name="meta.media.0.codec.width">640</property>
  <property name="meta.media.0.codec.height">360</property>
  <property name="meta.media.0.codec.rotate">0</property>
  <property name="meta.media.0.codec.pix_fmt">yuvj420p</property>
  <property name="meta.media.0.codec.sample_aspect_ratio">0</property>
  <property name="meta.media.0.codec.colorspace">601</property>
  <property name="meta.media.0.codec.name">mjpeg</property>
  <property name="meta.media.0.codec.long_name">MJPEG (Motion JPEG)</property>
  <property name="meta.media.0.codec.bit_rate">0</property>
  <property name="meta.attr.0.stream.HANDLER_NAME.markup">VideoHandler</property>
  <property name="meta.attr.0.stream.VENDOR_ID.markup">[0][0][0][0]</property>
  <property name="meta.attr.0.stream.ENCODER.markup">Lavc60.3.100 mjpeg</property>
  <property name="meta.attr.0.stream.DURATION.markup">00:00:00.134000000</property>
  <property name="meta.attr.COMMENT.markup">Rendered with Manim Community v0.17.2</property>
  <property name="meta.attr.MAJOR_BRAND.markup">isom</property>
  <property name="meta.attr.MINOR_VERSION.markup">512</property>
  <property name="meta.attr.COMPATIBLE_BRANDS.markup">isomiso2avc1mp41</property>
  <property name="meta.attr.ENCODER.markup">Lavf60.3.100</property>
  <property name="seekable">1</property>
  <property name="meta.media.sample_aspect_num">1</property>
  <property name="meta.media.sample_aspect_den">1</property>
  <property name="aspect_ratio">1</property>
  <property name="format">3</property>
  <property name="audio_index">-1</property>
  <property name="video_index">0</property>
  <property name="mute_on_pause">0</property>
  <property name="mlt_service">avformat-novalidate</property>
  <property name="kdenlive:clipname">6.mp4</property>
  <property name="kdenlive:clip_type">2</property>
  <property name="kdenlive:folderid">488</property>
  <property name="kdenlive:id">415</property>
  <property name="kdenlive:file_size">46986</property>
  <property name="kdenlive:file_hash">c0840ec989d595e0be1e7897b3d2234f</property>
  <property name="kdenlive:proxy">/home/xiaoxiae/.cache/kdenlive/proxy/c0840ec989d595e0be1e7897b3d2234f.mkv</property>
  <property name="kdenlive:originalurl">video/Insertion/6.mp4</property>
  <property name="kdenlive:original.mlt_type">producer</property>
  <property name="kdenlive:original.in">00:00:00.000</property>
  <property name="kdenlive:original.out">00:00:00.117</property>
  <property name="kdenlive:original.length">8</property>
  <property name="kdenlive:original.eof">pause</property>
  <property name="kdenlive:original.resource">video/Insertion/6.mp4</property>
  <property name="kdenlive:original.meta.media.nb_streams">1</property>
  <property name="kdenlive:original.meta.media.0.stream.type">video</property>
  <property name="kdenlive:original.meta.media.0.stream.frame_rate">60</property>
  <property name="kdenlive:original.meta.media.0.stream.sample_aspect_ratio">0</property>
  <property name="kdenlive:original.meta.media.0.codec.width">3840</property>
  <property name="kdenlive:original.meta.media.0.codec.height">2160</property>
  <property name="kdenlive:original.meta.media.0.codec.rotate">0</property>
  <property name="kdenlive:original.meta.media.0.codec.pix_fmt">yuv420p</property>
  <property name="kdenlive:original.meta.media.0.codec.sample_aspect_ratio">0</property>
  <property name="kdenlive:original.meta.media.0.codec.colorspace">709</property>
  <property name="kdenlive:original.meta.media.0.codec.name">h264</property>
  <property name="kdenlive:original.meta.media.0.codec.long_name">H.264 / AVC / MPEG-4 AVC / MPEG-4 part 10</property>
  <property name="kdenlive:original.meta.media.0.codec.bit_rate">2759220</property>
  <property name="kdenlive:original.meta.attr.0.stream.handler_name.markup">VideoHandler</property>
  <property name="kdenlive:original.meta.attr.0.stream.vendor_id.markup">[0][0][0][0]</property>
  <property name="kdenlive:original.meta.attr.0.stream.encoder.markup">Lavc60.3.100 libx264</property>
  <property name="kdenlive:original.meta.attr.major_brand.markup">isom</property>
  <property name="kdenlive:original.meta.attr.minor_version.markup">512</property>
  <property name="kdenlive:original.meta.attr.compatible_brands.markup">isomiso2avc1mp41</property>
  <property name="kdenlive:original.meta.attr.encoder.markup">Lavf60.3.100</property>
  <property name="kdenlive:original.meta.attr.comment.markup">Rendered with Manim Community v0.17.2</property>
  <property name="kdenlive:original.seekable">1</property>
  <property name="kdenlive:original.width">3840</property>
  <property name="kdenlive:original.height">2160</property>
  <property name="kdenlive:original.meta.media.sample_aspect_num">1</property>
  <property name="kdenlive:original.meta.media.sample_aspect_den">1</property>
  <property name="kdenlive:original.aspect_ratio">1</property>
  <property name="kdenlive:original.format">3</property>
  <property name="kdenlive:original.audio_index">-1</property>
  <property name="kdenlive:original.video_index">0</property>
  <property name="kdenlive:original.mute_on_pause">0</property>
  <property name="kdenlive:original.mlt_service">avformat-novalidate</property>
  <property name="kdenlive:original.meta.media.frame_rate_num">60</property>
  <property name="kdenlive:original.meta.media.frame_rate_den">1</property>
  <property name="kdenlive:original.meta.media.colorspace">709</property>
  <property name="kdenlive:original.meta.media.color_trc">2</property>
  <property name="kdenlive:original.meta.media.has_b_frames">2</property>
  <property name="kdenlive:original.meta.media.width">3840</property>
  <property name="kdenlive:original.meta.media.height">2160</property>
  <property name="kdenlive:original.meta.media.color_range">mpeg</property>
  <property name="kdenlive:original.meta.media.top_field_first">0</property>
  <property name="kdenlive:original.meta.media.progressive">1</property>
  <property name="kdenlive:original.kdenlive:clip_type">2</property>
  <property name="kdenlive:original.kdenlive:folderid">488</property>
  <property name="kdenlive:original.kdenlive:id">524</property>
  <property name="kdenlive:original.kdenlive:file_size">46986</property>
  <property name="kdenlive:original.kdenlive:file_hash">c0840ec989d595e0be1e7897b3d2234f</property>
  <property name="kdenlive:original.backup">1</property>
  <property name="meta.media.frame_rate_num">60</property>
  <property name="meta.media.frame_rate_den">1</property>
  <property name="meta.media.colorspace">601</property>
  <property name="meta.media.color_trc">2</property>
  <property name="meta.media.has_b_frames">0</property>
  <property name="meta.media.width">640</property>
  <property name="meta.media.height">360</property>
  <property name="meta.media.color_range">full</property>
  <property name="meta.media.top_field_first">0</property>
  <property name="meta.media.progressive">1</property>
 </producer>
 <producer id="producer337" in="00:00:00.000" out="00:00:00.117">
  <property name="length">8</property>
  <property name="eof">pause</property>
  <property name="resource">/home/xiaoxiae/.cache/kdenlive/proxy/28abeb686168d4123f5c3a93f190eeea.mkv</property>
  <property name="meta.media.nb_streams">1</property>
  <property name="meta.media.0.stream.type">video</property>
  <property name="meta.media.0.stream.frame_rate">60</property>
  <property name="meta.media.0.stream.sample_aspect_ratio">0</property>
  <property name="meta.media.0.codec.width">640</property>
  <property name="meta.media.0.codec.height">360</property>
  <property name="meta.media.0.codec.rotate">0</property>
  <property name="meta.media.0.codec.pix_fmt">yuvj420p</property>
  <property name="meta.media.0.codec.sample_aspect_ratio">0</property>
  <property name="meta.media.0.codec.colorspace">601</property>
  <property name="meta.media.0.codec.name">mjpeg</property>
  <property name="meta.media.0.codec.long_name">MJPEG (Motion JPEG)</property>
  <property name="meta.media.0.codec.bit_rate">0</property>
  <property name="meta.attr.0.stream.HANDLER_NAME.markup">VideoHandler</property>
  <property name="meta.attr.0.stream.VENDOR_ID.markup">[0][0][0][0]</property>
  <property name="meta.attr.0.stream.ENCODER.markup">Lavc60.3.100 mjpeg</property>
  <property name="meta.attr.0.stream.DURATION.markup">00:00:00.134000000</property>
  <property name="meta.attr.COMMENT.markup">Rendered with Manim Community v0.17.2</property>
  <property name="meta.attr.MAJOR_BRAND.markup">isom</property>
  <property name="meta.attr.MINOR_VERSION.markup">512</property>
  <property name="meta.attr.COMPATIBLE_BRANDS.markup">isomiso2avc1mp41</property>
  <property name="meta.attr.ENCODER.markup">Lavf60.3.100</property>
  <property name="seekable">1</property>
  <property name="meta.media.sample_aspect_num">1</property>
  <property name="meta.media.sample_aspect_den">1</property>
  <property name="aspect_ratio">1</property>
  <property name="format">3</property>
  <property name="audio_index">-1</property>
  <property name="video_index">0</property>
  <property name="mute_on_pause">0</property>
  <property name="mlt_service">avformat-novalidate</property>
  <property name="kdenlive:clipname">7.mp4</property>
  <property name="kdenlive:clip_type">2</property>
  <property name="kdenlive:folderid">488</property>
  <property name="kdenlive:id">416</property>
  <property name="kdenlive:file_size">50130</property>
  <property name="kdenlive:file_hash">28abeb686168d4123f5c3a93f190eeea</property>
  <property name="kdenlive:proxy">/home/xiaoxiae/.cache/kdenlive/proxy/28abeb686168d4123f5c3a93f190eeea.mkv</property>
  <property name="kdenlive:originalurl">video/Insertion/7.mp4</property>
  <property name="kdenlive:original.mlt_type">producer</property>
  <property name="kdenlive:original.in">00:00:00.000</property>
  <property name="kdenlive:original.out">00:00:00.117</property>
  <property name="kdenlive:original.length">8</property>
  <property name="kdenlive:original.eof">pause</property>
  <property name="kdenlive:original.resource">video/Insertion/7.mp4</property>
  <property name="kdenlive:original.meta.media.nb_streams">1</property>
  <property name="kdenlive:original.meta.media.0.stream.type">video</property>
  <property name="kdenlive:original.meta.media.0.stream.frame_rate">60</property>
  <property name="kdenlive:original.meta.media.0.stream.sample_aspect_ratio">0</property>
  <property name="kdenlive:original.meta.media.0.codec.width">3840</property>
  <property name="kdenlive:original.meta.media.0.codec.height">2160</property>
  <property name="kdenlive:original.meta.media.0.codec.rotate">0</property>
  <property name="kdenlive:original.meta.media.0.codec.pix_fmt">yuv420p</property>
  <property name="kdenlive:original.meta.media.0.codec.sample_aspect_ratio">0</property>
  <property name="kdenlive:original.meta.media.0.codec.colorspace">709</property>
  <property name="kdenlive:original.meta.media.0.codec.name">h264</property>
  <property name="kdenlive:original.meta.media.0.codec.long_name">H.264 / AVC / MPEG-4 AVC / MPEG-4 part 10</property>
  <property name="kdenlive:original.meta.media.0.codec.bit_rate">2947860</property>
  <property name="kdenlive:original.meta.attr.0.stream.handler_name.markup">VideoHandler</property>
  <property name="kdenlive:original.meta.attr.0.stream.vendor_id.markup">[0][0][0][0]</property>
  <property name="kdenlive:original.meta.attr.0.stream.encoder.markup">Lavc60.3.100 libx264</property>
  <property name="kdenlive:original.meta.attr.major_brand.markup">isom</property>
  <property name="kdenlive:original.meta.attr.minor_version.markup">512</property>
  <property name="kdenlive:original.meta.attr.compatible_brands.markup">isomiso2avc1mp41</property>
  <property name="kdenlive:original.meta.attr.encoder.markup">Lavf60.3.100</property>
  <property name="kdenlive:original.meta.attr.comment.markup">Rendered with Manim Community v0.17.2</property>
  <property name="kdenlive:original.seekable">1</property>
  <property name="kdenlive:original.width">3840</property>
  <property name="kdenlive:original.height">2160</property>
  <property name="kdenlive:original.meta.media.sample_aspect_num">1</property>
  <property name="kdenlive:original.meta.media.sample_aspect_den">1</property>
  <property name="kdenlive:original.aspect_ratio">1</property>
  <property name="kdenlive:original.format">3</property>
  <property name="kdenlive:original.audio_index">-1</property>
  <property name="kdenlive:original.video_index">0</property>
  <property name="kdenlive:original.mute_on_pause">0</property>
  <property name="kdenlive:original.mlt_service">avformat-novalidate</property>
  <property name="kdenlive:original.meta.media.frame_rate_num">60</property>
  <property name="kdenlive:original.meta.media.frame_rate_den">1</property>
  <property name="kdenlive:original.meta.media.colorspace">709</property>
  <property name="kdenlive:original.meta.media.color_trc">2</property>
  <property name="kdenlive:original.meta.media.has_b_frames">2</property>
  <property name="kdenlive:original.meta.media.width">3840</property>
  <property name="kdenlive:original.meta.media.height">2160</property>
  <property name="kdenlive:original.meta.media.color_range">mpeg</property>
  <property name="kdenlive:original.meta.media.top_field_first">0</property>
  <property name="kdenlive:original.meta.media.progressive">1</property>
  <property name="kdenlive:original.kdenlive:clip_type">2</property>
  <property name="kdenlive:original.kdenlive:folderid">488</property>
  <property name="kdenlive:original.kdenlive:id">525</property>
  <property name="kdenlive:original.kdenlive:file_size">50130</property>
  <property name="kdenlive:original.kdenlive:file_hash">28abeb686168d4123f5c3a93f190eeea</property>
  <property name="kdenlive:original.backup">1</property>
  <property name="meta.media.frame_rate_num">60</property>
  <property name="meta.media.frame_rate_den">1</property>
  <property name="meta.media.colorspace">601</property>
  <property name="meta.media.color_trc">2</property>
  <property name="meta.media.has_b_frames">0</property>
  <property name="meta.media.width">640</property>
  <property name="meta.media.height">360</property>
  <property name="meta.media.color_range">full</property>
  <property name="meta.media.top_field_first">0</property>
  <property name="meta.media.progressive">1</property>
 </producer>
 <producer id="producer339" in="00:00:00.000" out="00:00:00.117">
  <property name="length">8</property>
  <property name="eof">pause</property>
  <property name="resource">/home/xiaoxiae/.cache/kdenlive/proxy/efffeddb8e946035eeee14adf01cab89.mkv</property>
  <property name="meta.media.nb_streams">1</property>
  <property name="meta.media.0.stream.type">video</property>
  <property name="meta.media.0.stream.frame_rate">60</property>
  <property name="meta.media.0.stream.sample_aspect_ratio">0</property>
  <property name="meta.media.0.codec.width">640</property>
  <property name="meta.media.0.codec.height">360</property>
  <property name="meta.media.0.codec.rotate">0</property>
  <property name="meta.media.0.codec.pix_fmt">yuvj420p</property>
  <property name="meta.media.0.codec.sample_aspect_ratio">0</property>
  <property name="meta.media.0.codec.colorspace">601</property>
  <property name="meta.media.0.codec.name">mjpeg</property>
  <property name="meta.media.0.codec.long_name">MJPEG (Motion JPEG)</property>
  <property name="meta.media.0.codec.bit_rate">0</property>
  <property name="meta.attr.0.stream.HANDLER_NAME.markup">VideoHandler</property>
  <property name="meta.attr.0.stream.VENDOR_ID.markup">[0][0][0][0]</property>
  <property name="meta.attr.0.stream.ENCODER.markup">Lavc60.3.100 mjpeg</property>
  <property name="meta.attr.0.stream.DURATION.markup">00:00:00.134000000</property>
  <property name="meta.attr.COMMENT.markup">Rendered with Manim Community v0.17.2</property>
  <property name="meta.attr.MAJOR_BRAND.markup">isom</property>
  <property name="meta.attr.MINOR_VERSION.markup">512</property>
  <property name="meta.attr.COMPATIBLE_BRANDS.markup">isomiso2avc1mp41</property>
  <property name="meta.attr.ENCODER.markup">Lavf60.3.100</property>
  <property name="seekable">1</property>
  <property name="meta.media.sample_aspect_num">1</property>
  <property name="meta.media.sample_aspect_den">1</property>
  <property name="aspect_ratio">1</property>
  <property name="format">3</property>
  <property name="audio_index">-1</property>
  <property name="video_index">0</property>
  <property name="mute_on_pause">0</property>
  <property name="mlt_service">avformat-novalidate</property>
  <property name="kdenlive:clipname">8.mp4</property>
  <property name="kdenlive:clip_type">2</property>
  <property name="kdenlive:folderid">488</property>
  <property name="kdenlive:id">417</property>
  <property name="kdenlive:file_size">53002</property>
  <property name="kdenlive:file_hash">efffeddb8e946035eeee14adf01cab89</property>
  <property name="kdenlive:proxy">/home/xiaoxiae/.cache/kdenlive/proxy/efffeddb8e946035eeee14adf01cab89.mkv</property>
  <property name="kdenlive:originalurl">video/Insertion/8.mp4</property>
  <property name="kdenlive:original.mlt_type">producer</property>
  <property name="kdenlive:original.in">00:00:00.000</property>
  <property name="kdenlive:original.out">00:00:00.117</property>
  <property name="kdenlive:original.length">8</property>
  <property name="kdenlive:original.eof">pause</property>
  <property name="kdenlive:original.resource">video/Insertion/8.mp4</property>
  <property name="kdenlive:original.meta.media.nb_streams">1</property>
  <property name="kdenlive:original.meta.media.0.stream.type">video</property>
  <property name="kdenlive:original.meta.media.0.stream.frame_rate">60</property>
  <property name="kdenlive:original.meta.media.0.stream.sample_aspect_ratio">0</property>
  <property name="kdenlive:original.meta.media.0.codec.width">3840</property>
  <property name="kdenlive:original.meta.media.0.codec.height">2160</property>
  <property name="kdenlive:original.meta.media.0.codec.rotate">0</property>
  <property name="kdenlive:original.meta.media.0.codec.pix_fmt">yuv420p</property>
  <property name="kdenlive:original.meta.media.0.codec.sample_aspect_ratio">0</property>
  <property name="kdenlive:original.meta.media.0.codec.colorspace">709</property>
  <property name="kdenlive:original.meta.media.0.codec.name">h264</property>
  <property name="kdenlive:original.meta.media.0.codec.long_name">H.264 / AVC / MPEG-4 AVC / MPEG-4 part 10</property>
  <property name="kdenlive:original.meta.media.0.codec.bit_rate">3119700</property>
  <property name="kdenlive:original.meta.attr.0.stream.handler_name.markup">VideoHandler</property>
  <property name="kdenlive:original.meta.attr.0.stream.vendor_id.markup">[0][0][0][0]</property>
  <property name="kdenlive:original.meta.attr.0.stream.encoder.markup">Lavc60.3.100 libx264</property>
  <property name="kdenlive:original.meta.attr.major_brand.markup">isom</property>
  <property name="kdenlive:original.meta.attr.minor_version.markup">512</property>
  <property name="kdenlive:original.meta.attr.compatible_brands.markup">isomiso2avc1mp41</property>
  <property name="kdenlive:original.meta.attr.encoder.markup">Lavf60.3.100</property>
  <property name="kdenlive:original.meta.attr.comment.markup">Rendered with Manim Community v0.17.2</property>
  <property name="kdenlive:original.seekable">1</property>
  <property name="kdenlive:original.width">3840</property>
  <property name="kdenlive:original.height">2160</property>
  <property name="kdenlive:original.meta.media.sample_aspect_num">1</property>
  <property name="kdenlive:original.meta.media.sample_aspect_den">1</property>
  <property name="kdenlive:original.aspect_ratio">1</property>
  <property name="kdenlive:original.format">3</property>
  <property name="kdenlive:original.audio_index">-1</property>
  <property name="kdenlive:original.video_index">0</property>
  <property name="kdenlive:original.mute_on_pause">0</property>
  <property name="kdenlive:original.mlt_service">avformat-novalidate</property>
  <property name="kdenlive:original.meta.media.frame_rate_num">60</property>
  <property name="kdenlive:original.meta.media.frame_rate_den">1</property>
  <property name="kdenlive:original.meta.media.colorspace">709</property>
  <property name="kdenlive:original.meta.media.color_trc">2</property>
  <property name="kdenlive:original.meta.media.has_b_frames">2</property>
  <property name="kdenlive:original.meta.media.width">3840</property>
  <property name="kdenlive:original.meta.media.height">2160</property>
  <property name="kdenlive:original.meta.media.color_range">mpeg</property>
  <property name="kdenlive:original.meta.media.top_field_first">0</property>
  <property name="kdenlive:original.meta.media.progressive">1</property>
  <property name="kdenlive:original.kdenlive:clip_type">2</property>
  <property name="kdenlive:original.kdenlive:folderid">488</property>
  <property name="kdenlive:original.kdenlive:id">526</property>
  <property name="kdenlive:original.kdenlive:file_size">53002</property>
  <property name="kdenlive:original.kdenlive:file_hash">efffeddb8e946035eeee14adf01cab89</property>
  <property name="kdenlive:original.backup">1</property>
  <property name="meta.media.frame_rate_num">60</property>
  <property name="meta.media.frame_rate_den">1</property>
  <property name="meta.media.colorspace">601</property>
  <property name="meta.media.color_trc">2</property>
  <property name="meta.media.has_b_frames">0</property>
  <property name="meta.media.width">640</property>
  <property name="meta.media.height">360</property>
  <property name="meta.media.color_range">full</property>
  <property name="meta.media.top_field_first">0</property>
  <property name="meta.media.progressive">1</property>
 </producer>
 <producer id="producer341" in="00:00:00.000" out="00:00:00.183">
  <property name="length">12</property>
  <property name="eof">pause</property>
  <property name="resource">/home/xiaoxiae/.cache/kdenlive/proxy/5978ae6d3338e87cc47fc4797e503c97.mkv</property>
  <property name="meta.media.nb_streams">1</property>
  <property name="meta.media.0.stream.type">video</property>
  <property name="meta.media.0.stream.frame_rate">60</property>
  <property name="meta.media.0.stream.sample_aspect_ratio">0</property>
  <property name="meta.media.0.codec.width">640</property>
  <property name="meta.media.0.codec.height">360</property>
  <property name="meta.media.0.codec.rotate">0</property>
  <property name="meta.media.0.codec.pix_fmt">yuvj420p</property>
  <property name="meta.media.0.codec.sample_aspect_ratio">0</property>
  <property name="meta.media.0.codec.colorspace">601</property>
  <property name="meta.media.0.codec.name">mjpeg</property>
  <property name="meta.media.0.codec.long_name">MJPEG (Motion JPEG)</property>
  <property name="meta.media.0.codec.bit_rate">0</property>
  <property name="meta.attr.0.stream.HANDLER_NAME.markup">VideoHandler</property>
  <property name="meta.attr.0.stream.VENDOR_ID.markup">[0][0][0][0]</property>
  <property name="meta.attr.0.stream.ENCODER.markup">Lavc60.3.100 mjpeg</property>
  <property name="meta.attr.0.stream.DURATION.markup">00:00:00.200000000</property>
  <property name="meta.attr.COMMENT.markup">Rendered with Manim Community v0.17.2</property>
  <property name="meta.attr.MAJOR_BRAND.markup">isom</property>
  <property name="meta.attr.MINOR_VERSION.markup">512</property>
  <property name="meta.attr.COMPATIBLE_BRANDS.markup">isomiso2avc1mp41</property>
  <property name="meta.attr.ENCODER.markup">Lavf60.3.100</property>
  <property name="seekable">1</property>
  <property name="meta.media.sample_aspect_num">1</property>
  <property name="meta.media.sample_aspect_den">1</property>
  <property name="aspect_ratio">1</property>
  <property name="format">3</property>
  <property name="audio_index">-1</property>
  <property name="video_index">0</property>
  <property name="mute_on_pause">0</property>
  <property name="mlt_service">avformat-novalidate</property>
  <property name="kdenlive:clipname">9.mp4</property>
  <property name="kdenlive:clip_type">2</property>
  <property name="kdenlive:folderid">488</property>
  <property name="kdenlive:id">418</property>
  <property name="kdenlive:file_size">79084</property>
  <property name="kdenlive:file_hash">5978ae6d3338e87cc47fc4797e503c97</property>
  <property name="kdenlive:proxy">/home/xiaoxiae/.cache/kdenlive/proxy/5978ae6d3338e87cc47fc4797e503c97.mkv</property>
  <property name="kdenlive:originalurl">video/Insertion/9.mp4</property>
  <property name="kdenlive:original.mlt_type">producer</property>
  <property name="kdenlive:original.in">00:00:00.000</property>
  <property name="kdenlive:original.out">00:00:00.183</property>
  <property name="kdenlive:original.length">12</property>
  <property name="kdenlive:original.eof">pause</property>
  <property name="kdenlive:original.resource">video/Insertion/9.mp4</property>
  <property name="kdenlive:original.meta.media.nb_streams">1</property>
  <property name="kdenlive:original.meta.media.0.stream.type">video</property>
  <property name="kdenlive:original.meta.media.0.stream.frame_rate">60</property>
  <property name="kdenlive:original.meta.media.0.stream.sample_aspect_ratio">0</property>
  <property name="kdenlive:original.meta.media.0.codec.width">3840</property>
  <property name="kdenlive:original.meta.media.0.codec.height">2160</property>
  <property name="kdenlive:original.meta.media.0.codec.rotate">0</property>
  <property name="kdenlive:original.meta.media.0.codec.pix_fmt">yuv420p</property>
  <property name="kdenlive:original.meta.media.0.codec.sample_aspect_ratio">0</property>
  <property name="kdenlive:original.meta.media.0.codec.colorspace">709</property>
  <property name="kdenlive:original.meta.media.0.codec.name">h264</property>
  <property name="kdenlive:original.meta.media.0.codec.long_name">H.264 / AVC / MPEG-4 AVC / MPEG-4 part 10</property>
  <property name="kdenlive:original.meta.media.0.codec.bit_rate">3121160</property>
  <property name="kdenlive:original.meta.attr.0.stream.handler_name.markup">VideoHandler</property>
  <property name="kdenlive:original.meta.attr.0.stream.vendor_id.markup">[0][0][0][0]</property>
  <property name="kdenlive:original.meta.attr.0.stream.encoder.markup">Lavc60.3.100 libx264</property>
  <property name="kdenlive:original.meta.attr.major_brand.markup">isom</property>
  <property name="kdenlive:original.meta.attr.minor_version.markup">512</property>
  <property name="kdenlive:original.meta.attr.compatible_brands.markup">isomiso2avc1mp41</property>
  <property name="kdenlive:original.meta.attr.encoder.markup">Lavf60.3.100</property>
  <property name="kdenlive:original.meta.attr.comment.markup">Rendered with Manim Community v0.17.2</property>
  <property name="kdenlive:original.seekable">1</property>
  <property name="kdenlive:original.width">3840</property>
  <property name="kdenlive:original.height">2160</property>
  <property name="kdenlive:original.meta.media.sample_aspect_num">1</property>
  <property name="kdenlive:original.meta.media.sample_aspect_den">1</property>
  <property name="kdenlive:original.aspect_ratio">1</property>
  <property name="kdenlive:original.format">3</property>
  <property name="kdenlive:original.audio_index">-1</property>
  <property name="kdenlive:original.video_index">0</property>
  <property name="kdenlive:original.mute_on_pause">0</property>
  <property name="kdenlive:original.mlt_service">avformat-novalidate</property>
  <property name="kdenlive:original.meta.media.frame_rate_num">60</property>
  <property name="kdenlive:original.meta.media.frame_rate_den">1</property>
  <property name="kdenlive:original.meta.media.colorspace">709</property>
  <property name="kdenlive:original.meta.media.color_trc">2</property>
  <property name="kdenlive:original.meta.media.has_b_frames">2</property>
  <property name="kdenlive:original.meta.media.width">3840</property>
  <property name="kdenlive:original.meta.media.height">2160</property>
  <property name="kdenlive:original.meta.media.color_range">mpeg</property>
  <property name="kdenlive:original.meta.media.top_field_first">0</property>
  <property name="kdenlive:original.meta.media.progressive">1</property>
  <property name="kdenlive:original.kdenlive:clip_type">2</property>
  <property name="kdenlive:original.kdenlive:folderid">488</property>
  <property name="kdenlive:original.kdenlive:id">527</property>
  <property name="kdenlive:original.kdenlive:file_size">79084</property>
  <property name="kdenlive:original.kdenlive:file_hash">5978ae6d3338e87cc47fc4797e503c97</property>
  <property name="kdenlive:original.backup">1</property>
  <property name="meta.media.frame_rate_num">60</property>
  <property name="meta.media.frame_rate_den">1</property>
  <property name="meta.media.colorspace">601</property>
  <property name="meta.media.color_trc">2</property>
  <property name="meta.media.has_b_frames">0</property>
  <property name="meta.media.width">640</property>
  <property name="meta.media.height">360</property>
  <property name="meta.media.color_range">full</property>
  <property name="meta.media.top_field_first">0</property>
  <property name="meta.media.progressive">1</property>
 </producer>
 <producer id="producer340" in="00:00:00.000" out="00:00:01.983">
  <property name="length">120</property>
  <property name="eof">pause</property>
  <property name="resource">/home/xiaoxiae/.cache/kdenlive/proxy/8b92cccf3f4d0214bd7f158dcbd21ae1.mkv</property>
  <property name="meta.media.nb_streams">1</property>
  <property name="meta.media.0.stream.type">video</property>
  <property name="meta.media.0.stream.frame_rate">60</property>
  <property name="meta.media.0.stream.sample_aspect_ratio">0</property>
  <property name="meta.media.0.codec.width">640</property>
  <property name="meta.media.0.codec.height">360</property>
  <property name="meta.media.0.codec.rotate">0</property>
  <property name="meta.media.0.codec.pix_fmt">yuvj420p</property>
  <property name="meta.media.0.codec.sample_aspect_ratio">0</property>
  <property name="meta.media.0.codec.colorspace">601</property>
  <property name="meta.media.0.codec.name">mjpeg</property>
  <property name="meta.media.0.codec.long_name">MJPEG (Motion JPEG)</property>
  <property name="meta.media.0.codec.bit_rate">0</property>
  <property name="meta.attr.0.stream.HANDLER_NAME.markup">VideoHandler</property>
  <property name="meta.attr.0.stream.VENDOR_ID.markup">[0][0][0][0]</property>
  <property name="meta.attr.0.stream.ENCODER.markup">Lavc60.3.100 mjpeg</property>
  <property name="meta.attr.0.stream.DURATION.markup">00:00:02.000000000</property>
  <property name="meta.attr.COMMENT.markup">Rendered with Manim Community v0.17.2</property>
  <property name="meta.attr.MAJOR_BRAND.markup">isom</property>
  <property name="meta.attr.MINOR_VERSION.markup">512</property>
  <property name="meta.attr.COMPATIBLE_BRANDS.markup">isomiso2avc1mp41</property>
  <property name="meta.attr.ENCODER.markup">Lavf60.3.100</property>
  <property name="seekable">1</property>
  <property name="meta.media.sample_aspect_num">1</property>
  <property name="meta.media.sample_aspect_den">1</property>
  <property name="aspect_ratio">1</property>
  <property name="format">3</property>
  <property name="audio_index">-1</property>
  <property name="video_index">0</property>
  <property name="mute_on_pause">0</property>
  <property name="mlt_service">avformat-novalidate</property>
  <property name="kdenlive:clipname">1.mp4</property>
  <property name="kdenlive:clip_type">2</property>
  <property name="kdenlive:folderid">528</property>
  <property name="kdenlive:id">419</property>
  <property name="kdenlive:file_size">189459</property>
  <property name="kdenlive:file_hash">8b92cccf3f4d0214bd7f158dcbd21ae1</property>
  <property name="kdenlive:proxy">/home/xiaoxiae/.cache/kdenlive/proxy/8b92cccf3f4d0214bd7f158dcbd21ae1.mkv</property>
  <property name="kdenlive:originalurl">video/Intro/1.mp4</property>
  <property name="kdenlive:original.mlt_type">producer</property>
  <property name="kdenlive:original.in">00:00:00.000</property>
  <property name="kdenlive:original.out">00:00:01.983</property>
  <property name="kdenlive:original.length">120</property>
  <property name="kdenlive:original.eof">pause</property>
  <property name="kdenlive:original.resource">video/Intro/1.mp4</property>
  <property name="kdenlive:original.meta.media.nb_streams">1</property>
  <property name="kdenlive:original.meta.media.0.stream.type">video</property>
  <property name="kdenlive:original.meta.media.0.stream.frame_rate">60</property>
  <property name="kdenlive:original.meta.media.0.stream.sample_aspect_ratio">0</property>
  <property name="kdenlive:original.meta.media.0.codec.width">3840</property>
  <property name="kdenlive:original.meta.media.0.codec.height">2160</property>
  <property name="kdenlive:original.meta.media.0.codec.rotate">0</property>
  <property name="kdenlive:original.meta.media.0.codec.pix_fmt">yuv420p</property>
  <property name="kdenlive:original.meta.media.0.codec.sample_aspect_ratio">0</property>
  <property name="kdenlive:original.meta.media.0.codec.colorspace">709</property>
  <property name="kdenlive:original.meta.media.0.codec.name">h264</property>
  <property name="kdenlive:original.meta.media.0.codec.long_name">H.264 / AVC / MPEG-4 AVC / MPEG-4 part 10</property>
  <property name="kdenlive:original.meta.media.0.codec.bit_rate">748400</property>
  <property name="kdenlive:original.meta.attr.0.stream.handler_name.markup">VideoHandler</property>
  <property name="kdenlive:original.meta.attr.0.stream.vendor_id.markup">[0][0][0][0]</property>
  <property name="kdenlive:original.meta.attr.0.stream.encoder.markup">Lavc60.3.100 libx264</property>
  <property name="kdenlive:original.meta.attr.major_brand.markup">isom</property>
  <property name="kdenlive:original.meta.attr.minor_version.markup">512</property>
  <property name="kdenlive:original.meta.attr.compatible_brands.markup">isomiso2avc1mp41</property>
  <property name="kdenlive:original.meta.attr.encoder.markup">Lavf60.3.100</property>
  <property name="kdenlive:original.meta.attr.comment.markup">Rendered with Manim Community v0.17.2</property>
  <property name="kdenlive:original.seekable">1</property>
  <property name="kdenlive:original.width">3840</property>
  <property name="kdenlive:original.height">2160</property>
  <property name="kdenlive:original.meta.media.sample_aspect_num">1</property>
  <property name="kdenlive:original.meta.media.sample_aspect_den">1</property>
  <property name="kdenlive:original.aspect_ratio">1</property>
  <property name="kdenlive:original.format">3</property>
  <property name="kdenlive:original.audio_index">-1</property>
  <property name="kdenlive:original.video_index">0</property>
  <property name="kdenlive:original.mute_on_pause">0</property>
  <property name="kdenlive:original.mlt_service">avformat-novalidate</property>
  <property name="kdenlive:original.meta.media.frame_rate_num">60</property>
  <property name="kdenlive:original.meta.media.frame_rate_den">1</property>
  <property name="kdenlive:original.meta.media.colorspace">709</property>
  <property name="kdenlive:original.meta.media.color_trc">2</property>
  <property name="kdenlive:original.meta.media.has_b_frames">2</property>
  <property name="kdenlive:original.meta.media.width">3840</property>
  <property name="kdenlive:original.meta.media.height">2160</property>
  <property name="kdenlive:original.meta.media.color_range">mpeg</property>
  <property name="kdenlive:original.meta.media.top_field_first">0</property>
  <property name="kdenlive:original.meta.media.progressive">1</property>
  <property name="kdenlive:original.kdenlive:clip_type">2</property>
  <property name="kdenlive:original.kdenlive:folderid">528</property>
  <property name="kdenlive:original.kdenlive:id">529</property>
  <property name="kdenlive:original.kdenlive:file_size">189459</property>
  <property name="kdenlive:original.kdenlive:file_hash">8b92cccf3f4d0214bd7f158dcbd21ae1</property>
  <property name="kdenlive:original.backup">1</property>
  <property name="meta.media.frame_rate_num">60</property>
  <property name="meta.media.frame_rate_den">1</property>
  <property name="meta.media.colorspace">601</property>
  <property name="meta.media.color_trc">2</property>
  <property name="meta.media.has_b_frames">0</property>
  <property name="meta.media.width">640</property>
  <property name="meta.media.height">360</property>
  <property name="meta.media.color_range">full</property>
  <property name="meta.media.top_field_first">0</property>
  <property name="meta.media.progressive">1</property>
 </producer>
 <producer id="producer342" in="00:00:00.000" out="00:00:00.983">
  <property name="length">60</property>
  <property name="eof">pause</property>
  <property name="resource">/home/xiaoxiae/.cache/kdenlive/proxy/e9b069a1398137706e48a08c4928c7c0.mkv</property>
  <property name="meta.media.nb_streams">1</property>
  <property name="meta.media.0.stream.type">video</property>
  <property name="meta.media.0.stream.frame_rate">60</property>
  <property name="meta.media.0.stream.sample_aspect_ratio">0</property>
  <property name="meta.media.0.codec.width">640</property>
  <property name="meta.media.0.codec.height">360</property>
  <property name="meta.media.0.codec.rotate">0</property>
  <property name="meta.media.0.codec.pix_fmt">yuvj420p</property>
  <property name="meta.media.0.codec.sample_aspect_ratio">0</property>
  <property name="meta.media.0.codec.colorspace">601</property>
  <property name="meta.media.0.codec.name">mjpeg</property>
  <property name="meta.media.0.codec.long_name">MJPEG (Motion JPEG)</property>
  <property name="meta.media.0.codec.bit_rate">0</property>
  <property name="meta.attr.0.stream.HANDLER_NAME.markup">VideoHandler</property>
  <property name="meta.attr.0.stream.VENDOR_ID.markup">[0][0][0][0]</property>
  <property name="meta.attr.0.stream.ENCODER.markup">Lavc60.3.100 mjpeg</property>
  <property name="meta.attr.0.stream.DURATION.markup">00:00:01.000000000</property>
  <property name="meta.attr.COMMENT.markup">Rendered with Manim Community v0.17.2</property>
  <property name="meta.attr.MAJOR_BRAND.markup">isom</property>
  <property name="meta.attr.MINOR_VERSION.markup">512</property>
  <property name="meta.attr.COMPATIBLE_BRANDS.markup">isomiso2avc1mp41</property>
  <property name="meta.attr.ENCODER.markup">Lavf60.3.100</property>
  <property name="seekable">1</property>
  <property name="meta.media.sample_aspect_num">1</property>
  <property name="meta.media.sample_aspect_den">1</property>
  <property name="aspect_ratio">1</property>
  <property name="format">3</property>
  <property name="audio_index">-1</property>
  <property name="video_index">0</property>
  <property name="mute_on_pause">0</property>
  <property name="mlt_service">avformat-novalidate</property>
  <property name="kdenlive:clipname">10.mp4</property>
  <property name="kdenlive:clip_type">2</property>
  <property name="kdenlive:folderid">528</property>
  <property name="kdenlive:id">420</property>
  <property name="kdenlive:file_size">81031</property>
  <property name="kdenlive:file_hash">e9b069a1398137706e48a08c4928c7c0</property>
  <property name="kdenlive:proxy">/home/xiaoxiae/.cache/kdenlive/proxy/e9b069a1398137706e48a08c4928c7c0.mkv</property>
  <property name="kdenlive:originalurl">video/Intro/10.mp4</property>
  <property name="kdenlive:original.mlt_type">producer</property>
  <property name="kdenlive:original.in">00:00:00.000</property>
  <property name="kdenlive:original.out">00:00:00.983</property>
  <property name="kdenlive:original.length">60</property>
  <property name="kdenlive:original.eof">pause</property>
  <property name="kdenlive:original.resource">video/Intro/10.mp4</property>
  <property name="kdenlive:original.meta.media.nb_streams">1</property>
  <property name="kdenlive:original.meta.media.0.stream.type">video</property>
  <property name="kdenlive:original.meta.media.0.stream.frame_rate">60</property>
  <property name="kdenlive:original.meta.media.0.stream.sample_aspect_ratio">0</property>
  <property name="kdenlive:original.meta.media.0.codec.width">3840</property>
  <property name="kdenlive:original.meta.media.0.codec.height">2160</property>
  <property name="kdenlive:original.meta.media.0.codec.rotate">0</property>
  <property name="kdenlive:original.meta.media.0.codec.pix_fmt">yuv420p</property>
  <property name="kdenlive:original.meta.media.0.codec.sample_aspect_ratio">0</property>
  <property name="kdenlive:original.meta.media.0.codec.colorspace">709</property>
  <property name="kdenlive:original.meta.media.0.codec.name">h264</property>
  <property name="kdenlive:original.meta.media.0.codec.long_name">H.264 / AVC / MPEG-4 AVC / MPEG-4 part 10</property>
  <property name="kdenlive:original.meta.media.0.codec.bit_rate">635328</property>
  <property name="kdenlive:original.meta.attr.0.stream.handler_name.markup">VideoHandler</property>
  <property name="kdenlive:original.meta.attr.0.stream.vendor_id.markup">[0][0][0][0]</property>
  <property name="kdenlive:original.meta.attr.0.stream.encoder.markup">Lavc60.3.100 libx264</property>
  <property name="kdenlive:original.meta.attr.major_brand.markup">isom</property>
  <property name="kdenlive:original.meta.attr.minor_version.markup">512</property>
  <property name="kdenlive:original.meta.attr.compatible_brands.markup">isomiso2avc1mp41</property>
  <property name="kdenlive:original.meta.attr.encoder.markup">Lavf60.3.100</property>
  <property name="kdenlive:original.meta.attr.comment.markup">Rendered with Manim Community v0.17.2</property>
  <property name="kdenlive:original.seekable">1</property>
  <property name="kdenlive:original.width">3840</property>
  <property name="kdenlive:original.height">2160</property>
  <property name="kdenlive:original.meta.media.sample_aspect_num">1</property>
  <property name="kdenlive:original.meta.media.sample_aspect_den">1</property>
  <property name="kdenlive:original.aspect_ratio">1</property>
  <property name="kdenlive:original.format">3</property>
  <property name="kdenlive:original.audio_index">-1</property>
  <property name="kdenlive:original.video_index">0</property>
  <property name="kdenlive:original.mute_on_pause">0</property>
  <property name="kdenlive:original.mlt_service">avformat-novalidate</property>
  <property name="kdenlive:original.meta.media.frame_rate_num">60</property>
  <property name="kdenlive:original.meta.media.frame_rate_den">1</property>
  <property name="kdenlive:original.meta.media.colorspace">709</property>
  <property name="kdenlive:original.meta.media.color_trc">2</property>
  <property name="kdenlive:original.meta.media.has_b_frames">2</property>
  <property name="kdenlive:original.meta.media.width">3840</property>
  <property name="kdenlive:original.meta.media.height">2160</property>
  <property name="kdenlive:original.meta.media.color_range">mpeg</property>
  <property name="kdenlive:original.meta.media.top_field_first">0</property>
  <property name="kdenlive:original.meta.media.progressive">1</property>
  <property name="kdenlive:original.kdenlive:clip_type">2</property>
  <property name="kdenlive:original.kdenlive:folderid">528</property>
  <property name="kdenlive:original.kdenlive:id">530</property>
  <property name="kdenlive:original.kdenlive:file_size">81031</property>
  <property name="kdenlive:original.kdenlive:file_hash">e9b069a1398137706e48a08c4928c7c0</property>
  <property name="kdenlive:original.backup">1</property>
  <property name="meta.media.frame_rate_num">60</property>
  <property name="meta.media.frame_rate_den">1</property>
  <property name="meta.media.colorspace">601</property>
  <property name="meta.media.color_trc">2</property>
  <property name="meta.media.has_b_frames">0</property>
  <property name="meta.media.width">640</property>
  <property name="meta.media.height">360</property>
  <property name="meta.media.color_range">full</property>
  <property name="meta.media.top_field_first">0</property>
  <property name="meta.media.progressive">1</property>
 </producer>
 <producer id="producer344" in="00:00:00.000" out="00:00:00.983">
  <property name="length">60</property>
  <property name="eof">pause</property>
  <property name="resource">/home/xiaoxiae/.cache/kdenlive/proxy/e29974581129966c933b4f08890a34aa.mkv</property>
  <property name="meta.media.nb_streams">1</property>
  <property name="meta.media.0.stream.type">video</property>
  <property name="meta.media.0.stream.frame_rate">60</property>
  <property name="meta.media.0.stream.sample_aspect_ratio">0</property>
  <property name="meta.media.0.codec.width">640</property>
  <property name="meta.media.0.codec.height">360</property>
  <property name="meta.media.0.codec.rotate">0</property>
  <property name="meta.media.0.codec.pix_fmt">yuvj420p</property>
  <property name="meta.media.0.codec.sample_aspect_ratio">0</property>
  <property name="meta.media.0.codec.colorspace">601</property>
  <property name="meta.media.0.codec.name">mjpeg</property>
  <property name="meta.media.0.codec.long_name">MJPEG (Motion JPEG)</property>
  <property name="meta.media.0.codec.bit_rate">0</property>
  <property name="meta.attr.0.stream.HANDLER_NAME.markup">VideoHandler</property>
  <property name="meta.attr.0.stream.VENDOR_ID.markup">[0][0][0][0]</property>
  <property name="meta.attr.0.stream.ENCODER.markup">Lavc60.3.100 mjpeg</property>
  <property name="meta.attr.0.stream.DURATION.markup">00:00:01.000000000</property>
  <property name="meta.attr.COMMENT.markup">Rendered with Manim Community v0.17.2</property>
  <property name="meta.attr.MAJOR_BRAND.markup">isom</property>
  <property name="meta.attr.MINOR_VERSION.markup">512</property>
  <property name="meta.attr.COMPATIBLE_BRANDS.markup">isomiso2avc1mp41</property>
  <property name="meta.attr.ENCODER.markup">Lavf60.3.100</property>
  <property name="seekable">1</property>
  <property name="meta.media.sample_aspect_num">1</property>
  <property name="meta.media.sample_aspect_den">1</property>
  <property name="aspect_ratio">1</property>
  <property name="format">3</property>
  <property name="audio_index">-1</property>
  <property name="video_index">0</property>
  <property name="mute_on_pause">0</property>
  <property name="mlt_service">avformat-novalidate</property>
  <property name="kdenlive:clipname">11.mp4</property>
  <property name="kdenlive:clip_type">2</property>
  <property name="kdenlive:folderid">528</property>
  <property name="kdenlive:id">421</property>
  <property name="kdenlive:file_size">66317</property>
  <property name="kdenlive:file_hash">e29974581129966c933b4f08890a34aa</property>
  <property name="kdenlive:proxy">/home/xiaoxiae/.cache/kdenlive/proxy/e29974581129966c933b4f08890a34aa.mkv</property>
  <property name="kdenlive:originalurl">video/Intro/11.mp4</property>
  <property name="kdenlive:original.mlt_type">producer</property>
  <property name="kdenlive:original.in">00:00:00.000</property>
  <property name="kdenlive:original.out">00:00:00.983</property>
  <property name="kdenlive:original.length">60</property>
  <property name="kdenlive:original.eof">pause</property>
  <property name="kdenlive:original.resource">video/Intro/11.mp4</property>
  <property name="kdenlive:original.meta.media.nb_streams">1</property>
  <property name="kdenlive:original.meta.media.0.stream.type">video</property>
  <property name="kdenlive:original.meta.media.0.stream.frame_rate">60</property>
  <property name="kdenlive:original.meta.media.0.stream.sample_aspect_ratio">0</property>
  <property name="kdenlive:original.meta.media.0.codec.width">3840</property>
  <property name="kdenlive:original.meta.media.0.codec.height">2160</property>
  <property name="kdenlive:original.meta.media.0.codec.rotate">0</property>
  <property name="kdenlive:original.meta.media.0.codec.pix_fmt">yuv420p</property>
  <property name="kdenlive:original.meta.media.0.codec.sample_aspect_ratio">0</property>
  <property name="kdenlive:original.meta.media.0.codec.colorspace">709</property>
  <property name="kdenlive:original.meta.media.0.codec.name">h264</property>
  <property name="kdenlive:original.meta.media.0.codec.long_name">H.264 / AVC / MPEG-4 AVC / MPEG-4 part 10</property>
  <property name="kdenlive:original.meta.media.0.codec.bit_rate">517488</property>
  <property name="kdenlive:original.meta.attr.0.stream.handler_name.markup">VideoHandler</property>
  <property name="kdenlive:original.meta.attr.0.stream.vendor_id.markup">[0][0][0][0]</property>
  <property name="kdenlive:original.meta.attr.0.stream.encoder.markup">Lavc60.3.100 libx264</property>
  <property name="kdenlive:original.meta.attr.major_brand.markup">isom</property>
  <property name="kdenlive:original.meta.attr.minor_version.markup">512</property>
  <property name="kdenlive:original.meta.attr.compatible_brands.markup">isomiso2avc1mp41</property>
  <property name="kdenlive:original.meta.attr.encoder.markup">Lavf60.3.100</property>
  <property name="kdenlive:original.meta.attr.comment.markup">Rendered with Manim Community v0.17.2</property>
  <property name="kdenlive:original.seekable">1</property>
  <property name="kdenlive:original.width">3840</property>
  <property name="kdenlive:original.height">2160</property>
  <property name="kdenlive:original.meta.media.sample_aspect_num">1</property>
  <property name="kdenlive:original.meta.media.sample_aspect_den">1</property>
  <property name="kdenlive:original.aspect_ratio">1</property>
  <property name="kdenlive:original.format">3</property>
  <property name="kdenlive:original.audio_index">-1</property>
  <property name="kdenlive:original.video_index">0</property>
  <property name="kdenlive:original.mute_on_pause">0</property>
  <property name="kdenlive:original.mlt_service">avformat-novalidate</property>
  <property name="kdenlive:original.meta.media.frame_rate_num">60</property>
  <property name="kdenlive:original.meta.media.frame_rate_den">1</property>
  <property name="kdenlive:original.meta.media.colorspace">709</property>
  <property name="kdenlive:original.meta.media.color_trc">2</property>
  <property name="kdenlive:original.meta.media.has_b_frames">2</property>
  <property name="kdenlive:original.meta.media.width">3840</property>
  <property name="kdenlive:original.meta.media.height">2160</property>
  <property name="kdenlive:original.meta.media.color_range">mpeg</property>
  <property name="kdenlive:original.meta.media.top_field_first">0</property>
  <property name="kdenlive:original.meta.media.progressive">1</property>
  <property name="kdenlive:original.kdenlive:clip_type">2</property>
  <property name="kdenlive:original.kdenlive:folderid">528</property>
  <property name="kdenlive:original.kdenlive:id">531</property>
  <property name="kdenlive:original.kdenlive:file_size">66317</property>
  <property name="kdenlive:original.kdenlive:file_hash">e29974581129966c933b4f08890a34aa</property>
  <property name="kdenlive:original.backup">1</property>
  <property name="meta.media.frame_rate_num">60</property>
  <property name="meta.media.frame_rate_den">1</property>
  <property name="meta.media.colorspace">601</property>
  <property name="meta.media.color_trc">2</property>
  <property name="meta.media.has_b_frames">0</property>
  <property name="meta.media.width">640</property>
  <property name="meta.media.height">360</property>
  <property name="meta.media.color_range">full</property>
  <property name="meta.media.top_field_first">0</property>
  <property name="meta.media.progressive">1</property>
 </producer>
 <producer id="producer343" in="00:00:00.000" out="00:00:00.983">
  <property name="length">60</property>
  <property name="eof">pause</property>
  <property name="resource">/home/xiaoxiae/.cache/kdenlive/proxy/2e1239884f8d15a2a8ad05ae35f57f5e.mkv</property>
  <property name="meta.media.nb_streams">1</property>
  <property name="meta.media.0.stream.type">video</property>
  <property name="meta.media.0.stream.frame_rate">60</property>
  <property name="meta.media.0.stream.sample_aspect_ratio">0</property>
  <property name="meta.media.0.codec.width">640</property>
  <property name="meta.media.0.codec.height">360</property>
  <property name="meta.media.0.codec.rotate">0</property>
  <property name="meta.media.0.codec.pix_fmt">yuvj420p</property>
  <property name="meta.media.0.codec.sample_aspect_ratio">0</property>
  <property name="meta.media.0.codec.colorspace">601</property>
  <property name="meta.media.0.codec.name">mjpeg</property>
  <property name="meta.media.0.codec.long_name">MJPEG (Motion JPEG)</property>
  <property name="meta.media.0.codec.bit_rate">0</property>
  <property name="meta.attr.0.stream.HANDLER_NAME.markup">VideoHandler</property>
  <property name="meta.attr.0.stream.VENDOR_ID.markup">[0][0][0][0]</property>
  <property name="meta.attr.0.stream.ENCODER.markup">Lavc60.3.100 mjpeg</property>
  <property name="meta.attr.0.stream.DURATION.markup">00:00:01.000000000</property>
  <property name="meta.attr.COMMENT.markup">Rendered with Manim Community v0.17.2</property>
  <property name="meta.attr.MAJOR_BRAND.markup">isom</property>
  <property name="meta.attr.MINOR_VERSION.markup">512</property>
  <property name="meta.attr.COMPATIBLE_BRANDS.markup">isomiso2avc1mp41</property>
  <property name="meta.attr.ENCODER.markup">Lavf60.3.100</property>
  <property name="seekable">1</property>
  <property name="meta.media.sample_aspect_num">1</property>
  <property name="meta.media.sample_aspect_den">1</property>
  <property name="aspect_ratio">1</property>
  <property name="format">3</property>
  <property name="audio_index">-1</property>
  <property name="video_index">0</property>
  <property name="mute_on_pause">0</property>
  <property name="mlt_service">avformat-novalidate</property>
  <property name="kdenlive:clipname">12.mp4</property>
  <property name="kdenlive:clip_type">2</property>
  <property name="kdenlive:folderid">528</property>
  <property name="kdenlive:id">422</property>
  <property name="kdenlive:file_size">150764</property>
  <property name="kdenlive:file_hash">2e1239884f8d15a2a8ad05ae35f57f5e</property>
  <property name="kdenlive:proxy">/home/xiaoxiae/.cache/kdenlive/proxy/2e1239884f8d15a2a8ad05ae35f57f5e.mkv</property>
  <property name="kdenlive:originalurl">video/Intro/12.mp4</property>
  <property name="kdenlive:original.mlt_type">producer</property>
  <property name="kdenlive:original.in">00:00:00.000</property>
  <property name="kdenlive:original.out">00:00:00.983</property>
  <property name="kdenlive:original.length">60</property>
  <property name="kdenlive:original.eof">pause</property>
  <property name="kdenlive:original.resource">video/Intro/12.mp4</property>
  <property name="kdenlive:original.meta.media.nb_streams">1</property>
  <property name="kdenlive:original.meta.media.0.stream.type">video</property>
  <property name="kdenlive:original.meta.media.0.stream.frame_rate">60</property>
  <property name="kdenlive:original.meta.media.0.stream.sample_aspect_ratio">0</property>
  <property name="kdenlive:original.meta.media.0.codec.width">3840</property>
  <property name="kdenlive:original.meta.media.0.codec.height">2160</property>
  <property name="kdenlive:original.meta.media.0.codec.rotate">0</property>
  <property name="kdenlive:original.meta.media.0.codec.pix_fmt">yuv420p</property>
  <property name="kdenlive:original.meta.media.0.codec.sample_aspect_ratio">0</property>
  <property name="kdenlive:original.meta.media.0.codec.colorspace">709</property>
  <property name="kdenlive:original.meta.media.0.codec.name">h264</property>
  <property name="kdenlive:original.meta.media.0.codec.long_name">H.264 / AVC / MPEG-4 AVC / MPEG-4 part 10</property>
  <property name="kdenlive:original.meta.media.0.codec.bit_rate">1193320</property>
  <property name="kdenlive:original.meta.attr.0.stream.handler_name.markup">VideoHandler</property>
  <property name="kdenlive:original.meta.attr.0.stream.vendor_id.markup">[0][0][0][0]</property>
  <property name="kdenlive:original.meta.attr.0.stream.encoder.markup">Lavc60.3.100 libx264</property>
  <property name="kdenlive:original.meta.attr.major_brand.markup">isom</property>
  <property name="kdenlive:original.meta.attr.minor_version.markup">512</property>
  <property name="kdenlive:original.meta.attr.compatible_brands.markup">isomiso2avc1mp41</property>
  <property name="kdenlive:original.meta.attr.encoder.markup">Lavf60.3.100</property>
  <property name="kdenlive:original.meta.attr.comment.markup">Rendered with Manim Community v0.17.2</property>
  <property name="kdenlive:original.seekable">1</property>
  <property name="kdenlive:original.width">3840</property>
  <property name="kdenlive:original.height">2160</property>
  <property name="kdenlive:original.meta.media.sample_aspect_num">1</property>
  <property name="kdenlive:original.meta.media.sample_aspect_den">1</property>
  <property name="kdenlive:original.aspect_ratio">1</property>
  <property name="kdenlive:original.format">3</property>
  <property name="kdenlive:original.audio_index">-1</property>
  <property name="kdenlive:original.video_index">0</property>
  <property name="kdenlive:original.mute_on_pause">0</property>
  <property name="kdenlive:original.mlt_service">avformat-novalidate</property>
  <property name="kdenlive:original.meta.media.frame_rate_num">60</property>
  <property name="kdenlive:original.meta.media.frame_rate_den">1</property>
  <property name="kdenlive:original.meta.media.colorspace">709</property>
  <property name="kdenlive:original.meta.media.color_trc">2</property>
  <property name="kdenlive:original.meta.media.has_b_frames">2</property>
  <property name="kdenlive:original.meta.media.width">3840</property>
  <property name="kdenlive:original.meta.media.height">2160</property>
  <property name="kdenlive:original.meta.media.color_range">mpeg</property>
  <property name="kdenlive:original.meta.media.top_field_first">0</property>
  <property name="kdenlive:original.meta.media.progressive">1</property>
  <property name="kdenlive:original.kdenlive:clip_type">2</property>
  <property name="kdenlive:original.kdenlive:folderid">528</property>
  <property name="kdenlive:original.kdenlive:id">532</property>
  <property name="kdenlive:original.kdenlive:file_size">150764</property>
  <property name="kdenlive:original.kdenlive:file_hash">2e1239884f8d15a2a8ad05ae35f57f5e</property>
  <property name="kdenlive:original.backup">1</property>
  <property name="meta.media.frame_rate_num">60</property>
  <property name="meta.media.frame_rate_den">1</property>
  <property name="meta.media.colorspace">601</property>
  <property name="meta.media.color_trc">2</property>
  <property name="meta.media.has_b_frames">0</property>
  <property name="meta.media.width">640</property>
  <property name="meta.media.height">360</property>
  <property name="meta.media.color_range">full</property>
  <property name="meta.media.top_field_first">0</property>
  <property name="meta.media.progressive">1</property>
 </producer>
 <producer id="producer347" in="00:00:00.000" out="00:00:00.983">
  <property name="length">60</property>
  <property name="eof">pause</property>
  <property name="resource">/home/xiaoxiae/.cache/kdenlive/proxy/5cdb988946902d19163e18bb1bce26ea.mkv</property>
  <property name="meta.media.nb_streams">1</property>
  <property name="meta.media.0.stream.type">video</property>
  <property name="meta.media.0.stream.frame_rate">60</property>
  <property name="meta.media.0.stream.sample_aspect_ratio">0</property>
  <property name="meta.media.0.codec.width">640</property>
  <property name="meta.media.0.codec.height">360</property>
  <property name="meta.media.0.codec.rotate">0</property>
  <property name="meta.media.0.codec.pix_fmt">yuvj420p</property>
  <property name="meta.media.0.codec.sample_aspect_ratio">0</property>
  <property name="meta.media.0.codec.colorspace">601</property>
  <property name="meta.media.0.codec.name">mjpeg</property>
  <property name="meta.media.0.codec.long_name">MJPEG (Motion JPEG)</property>
  <property name="meta.media.0.codec.bit_rate">0</property>
  <property name="meta.attr.0.stream.HANDLER_NAME.markup">VideoHandler</property>
  <property name="meta.attr.0.stream.VENDOR_ID.markup">[0][0][0][0]</property>
  <property name="meta.attr.0.stream.ENCODER.markup">Lavc60.3.100 mjpeg</property>
  <property name="meta.attr.0.stream.DURATION.markup">00:00:01.000000000</property>
  <property name="meta.attr.COMMENT.markup">Rendered with Manim Community v0.17.2</property>
  <property name="meta.attr.MAJOR_BRAND.markup">isom</property>
  <property name="meta.attr.MINOR_VERSION.markup">512</property>
  <property name="meta.attr.COMPATIBLE_BRANDS.markup">isomiso2avc1mp41</property>
  <property name="meta.attr.ENCODER.markup">Lavf60.3.100</property>
  <property name="seekable">1</property>
  <property name="meta.media.sample_aspect_num">1</property>
  <property name="meta.media.sample_aspect_den">1</property>
  <property name="aspect_ratio">1</property>
  <property name="format">3</property>
  <property name="audio_index">-1</property>
  <property name="video_index">0</property>
  <property name="mute_on_pause">0</property>
  <property name="mlt_service">avformat-novalidate</property>
  <property name="kdenlive:clipname">13.mp4</property>
  <property name="kdenlive:clip_type">2</property>
  <property name="kdenlive:folderid">528</property>
  <property name="kdenlive:id">423</property>
  <property name="kdenlive:file_size">71400</property>
  <property name="kdenlive:file_hash">5cdb988946902d19163e18bb1bce26ea</property>
  <property name="kdenlive:proxy">/home/xiaoxiae/.cache/kdenlive/proxy/5cdb988946902d19163e18bb1bce26ea.mkv</property>
  <property name="kdenlive:originalurl">video/Intro/13.mp4</property>
  <property name="kdenlive:original.mlt_type">producer</property>
  <property name="kdenlive:original.in">00:00:00.000</property>
  <property name="kdenlive:original.out">00:00:00.983</property>
  <property name="kdenlive:original.length">60</property>
  <property name="kdenlive:original.eof">pause</property>
  <property name="kdenlive:original.resource">video/Intro/13.mp4</property>
  <property name="kdenlive:original.meta.media.nb_streams">1</property>
  <property name="kdenlive:original.meta.media.0.stream.type">video</property>
  <property name="kdenlive:original.meta.media.0.stream.frame_rate">60</property>
  <property name="kdenlive:original.meta.media.0.stream.sample_aspect_ratio">0</property>
  <property name="kdenlive:original.meta.media.0.codec.width">3840</property>
  <property name="kdenlive:original.meta.media.0.codec.height">2160</property>
  <property name="kdenlive:original.meta.media.0.codec.rotate">0</property>
  <property name="kdenlive:original.meta.media.0.codec.pix_fmt">yuv420p</property>
  <property name="kdenlive:original.meta.media.0.codec.sample_aspect_ratio">0</property>
  <property name="kdenlive:original.meta.media.0.codec.colorspace">709</property>
  <property name="kdenlive:original.meta.media.0.codec.name">h264</property>
  <property name="kdenlive:original.meta.media.0.codec.long_name">H.264 / AVC / MPEG-4 AVC / MPEG-4 part 10</property>
  <property name="kdenlive:original.meta.media.0.codec.bit_rate">558152</property>
  <property name="kdenlive:original.meta.attr.0.stream.handler_name.markup">VideoHandler</property>
  <property name="kdenlive:original.meta.attr.0.stream.vendor_id.markup">[0][0][0][0]</property>
  <property name="kdenlive:original.meta.attr.0.stream.encoder.markup">Lavc60.3.100 libx264</property>
  <property name="kdenlive:original.meta.attr.major_brand.markup">isom</property>
  <property name="kdenlive:original.meta.attr.minor_version.markup">512</property>
  <property name="kdenlive:original.meta.attr.compatible_brands.markup">isomiso2avc1mp41</property>
  <property name="kdenlive:original.meta.attr.encoder.markup">Lavf60.3.100</property>
  <property name="kdenlive:original.meta.attr.comment.markup">Rendered with Manim Community v0.17.2</property>
  <property name="kdenlive:original.seekable">1</property>
  <property name="kdenlive:original.width">3840</property>
  <property name="kdenlive:original.height">2160</property>
  <property name="kdenlive:original.meta.media.sample_aspect_num">1</property>
  <property name="kdenlive:original.meta.media.sample_aspect_den">1</property>
  <property name="kdenlive:original.aspect_ratio">1</property>
  <property name="kdenlive:original.format">3</property>
  <property name="kdenlive:original.audio_index">-1</property>
  <property name="kdenlive:original.video_index">0</property>
  <property name="kdenlive:original.mute_on_pause">0</property>
  <property name="kdenlive:original.mlt_service">avformat-novalidate</property>
  <property name="kdenlive:original.meta.media.frame_rate_num">60</property>
  <property name="kdenlive:original.meta.media.frame_rate_den">1</property>
  <property name="kdenlive:original.meta.media.colorspace">709</property>
  <property name="kdenlive:original.meta.media.color_trc">2</property>
  <property name="kdenlive:original.meta.media.has_b_frames">2</property>
  <property name="kdenlive:original.meta.media.width">3840</property>
  <property name="kdenlive:original.meta.media.height">2160</property>
  <property name="kdenlive:original.meta.media.color_range">mpeg</property>
  <property name="kdenlive:original.meta.media.top_field_first">0</property>
  <property name="kdenlive:original.meta.media.progressive">1</property>
  <property name="kdenlive:original.kdenlive:clip_type">2</property>
  <property name="kdenlive:original.kdenlive:folderid">528</property>
  <property name="kdenlive:original.kdenlive:id">533</property>
  <property name="kdenlive:original.kdenlive:file_size">71400</property>
  <property name="kdenlive:original.kdenlive:file_hash">5cdb988946902d19163e18bb1bce26ea</property>
  <property name="kdenlive:original.backup">1</property>
  <property name="meta.media.frame_rate_num">60</property>
  <property name="meta.media.frame_rate_den">1</property>
  <property name="meta.media.colorspace">601</property>
  <property name="meta.media.color_trc">2</property>
  <property name="meta.media.has_b_frames">0</property>
  <property name="meta.media.width">640</property>
  <property name="meta.media.height">360</property>
  <property name="meta.media.color_range">full</property>
  <property name="meta.media.top_field_first">0</property>
  <property name="meta.media.progressive">1</property>
 </producer>
 <producer id="producer345" in="00:00:00.000" out="00:00:00.983">
  <property name="length">60</property>
  <property name="eof">pause</property>
  <property name="resource">/home/xiaoxiae/.cache/kdenlive/proxy/cb3314deb5d9fb11b4bdae3d273aca9e.mkv</property>
  <property name="meta.media.nb_streams">1</property>
  <property name="meta.media.0.stream.type">video</property>
  <property name="meta.media.0.stream.frame_rate">60</property>
  <property name="meta.media.0.stream.sample_aspect_ratio">0</property>
  <property name="meta.media.0.codec.width">640</property>
  <property name="meta.media.0.codec.height">360</property>
  <property name="meta.media.0.codec.rotate">0</property>
  <property name="meta.media.0.codec.pix_fmt">yuvj420p</property>
  <property name="meta.media.0.codec.sample_aspect_ratio">0</property>
  <property name="meta.media.0.codec.colorspace">601</property>
  <property name="meta.media.0.codec.name">mjpeg</property>
  <property name="meta.media.0.codec.long_name">MJPEG (Motion JPEG)</property>
  <property name="meta.media.0.codec.bit_rate">0</property>
  <property name="meta.attr.0.stream.HANDLER_NAME.markup">VideoHandler</property>
  <property name="meta.attr.0.stream.VENDOR_ID.markup">[0][0][0][0]</property>
  <property name="meta.attr.0.stream.ENCODER.markup">Lavc60.3.100 mjpeg</property>
  <property name="meta.attr.0.stream.DURATION.markup">00:00:01.000000000</property>
  <property name="meta.attr.COMMENT.markup">Rendered with Manim Community v0.17.2</property>
  <property name="meta.attr.MAJOR_BRAND.markup">isom</property>
  <property name="meta.attr.MINOR_VERSION.markup">512</property>
  <property name="meta.attr.COMPATIBLE_BRANDS.markup">isomiso2avc1mp41</property>
  <property name="meta.attr.ENCODER.markup">Lavf60.3.100</property>
  <property name="seekable">1</property>
  <property name="meta.media.sample_aspect_num">1</property>
  <property name="meta.media.sample_aspect_den">1</property>
  <property name="aspect_ratio">1</property>
  <property name="format">3</property>
  <property name="audio_index">-1</property>
  <property name="video_index">0</property>
  <property name="mute_on_pause">0</property>
  <property name="mlt_service">avformat-novalidate</property>
  <property name="kdenlive:clipname">14.mp4</property>
  <property name="kdenlive:clip_type">2</property>
  <property name="kdenlive:folderid">528</property>
  <property name="kdenlive:id">424</property>
  <property name="kdenlive:file_size">137335</property>
  <property name="kdenlive:file_hash">cb3314deb5d9fb11b4bdae3d273aca9e</property>
  <property name="kdenlive:proxy">/home/xiaoxiae/.cache/kdenlive/proxy/cb3314deb5d9fb11b4bdae3d273aca9e.mkv</property>
  <property name="kdenlive:originalurl">video/Intro/14.mp4</property>
  <property name="kdenlive:original.mlt_type">producer</property>
  <property name="kdenlive:original.in">00:00:00.000</property>
  <property name="kdenlive:original.out">00:00:00.983</property>
  <property name="kdenlive:original.length">60</property>
  <property name="kdenlive:original.eof">pause</property>
  <property name="kdenlive:original.resource">video/Intro/14.mp4</property>
  <property name="kdenlive:original.meta.media.nb_streams">1</property>
  <property name="kdenlive:original.meta.media.0.stream.type">video</property>
  <property name="kdenlive:original.meta.media.0.stream.frame_rate">60</property>
  <property name="kdenlive:original.meta.media.0.stream.sample_aspect_ratio">0</property>
  <property name="kdenlive:original.meta.media.0.codec.width">3840</property>
  <property name="kdenlive:original.meta.media.0.codec.height">2160</property>
  <property name="kdenlive:original.meta.media.0.codec.rotate">0</property>
  <property name="kdenlive:original.meta.media.0.codec.pix_fmt">yuv420p</property>
  <property name="kdenlive:original.meta.media.0.codec.sample_aspect_ratio">0</property>
  <property name="kdenlive:original.meta.media.0.codec.colorspace">709</property>
  <property name="kdenlive:original.meta.media.0.codec.name">h264</property>
  <property name="kdenlive:original.meta.media.0.codec.long_name">H.264 / AVC / MPEG-4 AVC / MPEG-4 part 10</property>
  <property name="kdenlive:original.meta.media.0.codec.bit_rate">1086208</property>
  <property name="kdenlive:original.meta.attr.0.stream.handler_name.markup">VideoHandler</property>
  <property name="kdenlive:original.meta.attr.0.stream.vendor_id.markup">[0][0][0][0]</property>
  <property name="kdenlive:original.meta.attr.0.stream.encoder.markup">Lavc60.3.100 libx264</property>
  <property name="kdenlive:original.meta.attr.major_brand.markup">isom</property>
  <property name="kdenlive:original.meta.attr.minor_version.markup">512</property>
  <property name="kdenlive:original.meta.attr.compatible_brands.markup">isomiso2avc1mp41</property>
  <property name="kdenlive:original.meta.attr.encoder.markup">Lavf60.3.100</property>
  <property name="kdenlive:original.meta.attr.comment.markup">Rendered with Manim Community v0.17.2</property>
  <property name="kdenlive:original.seekable">1</property>
  <property name="kdenlive:original.width">3840</property>
  <property name="kdenlive:original.height">2160</property>
  <property name="kdenlive:original.meta.media.sample_aspect_num">1</property>
  <property name="kdenlive:original.meta.media.sample_aspect_den">1</property>
  <property name="kdenlive:original.aspect_ratio">1</property>
  <property name="kdenlive:original.format">3</property>
  <property name="kdenlive:original.audio_index">-1</property>
  <property name="kdenlive:original.video_index">0</property>
  <property name="kdenlive:original.mute_on_pause">0</property>
  <property name="kdenlive:original.mlt_service">avformat-novalidate</property>
  <property name="kdenlive:original.meta.media.frame_rate_num">60</property>
  <property name="kdenlive:original.meta.media.frame_rate_den">1</property>
  <property name="kdenlive:original.meta.media.colorspace">709</property>
  <property name="kdenlive:original.meta.media.color_trc">2</property>
  <property name="kdenlive:original.meta.media.has_b_frames">2</property>
  <property name="kdenlive:original.meta.media.width">3840</property>
  <property name="kdenlive:original.meta.media.height">2160</property>
  <property name="kdenlive:original.meta.media.color_range">mpeg</property>
  <property name="kdenlive:original.meta.media.top_field_first">0</property>
  <property name="kdenlive:original.meta.media.progressive">1</property>
  <property name="kdenlive:original.kdenlive:clip_type">2</property>
  <property name="kdenlive:original.kdenlive:folderid">528</property>
  <property name="kdenlive:original.kdenlive:id">534</property>
  <property name="kdenlive:original.kdenlive:file_size">137335</property>
  <property name="kdenlive:original.kdenlive:file_hash">cb3314deb5d9fb11b4bdae3d273aca9e</property>
  <property name="kdenlive:original.backup">1</property>
  <property name="meta.media.frame_rate_num">60</property>
  <property name="meta.media.frame_rate_den">1</property>
  <property name="meta.media.colorspace">601</property>
  <property name="meta.media.color_trc">2</property>
  <property name="meta.media.has_b_frames">0</property>
  <property name="meta.media.width">640</property>
  <property name="meta.media.height">360</property>
  <property name="meta.media.color_range">full</property>
  <property name="meta.media.top_field_first">0</property>
  <property name="meta.media.progressive">1</property>
 </producer>
 <producer id="producer346" in="00:00:00.000" out="00:00:00.983">
  <property name="length">60</property>
  <property name="eof">pause</property>
  <property name="resource">/home/xiaoxiae/.cache/kdenlive/proxy/5dd8c4618b98363212d4289d184bd02e.mkv</property>
  <property name="meta.media.nb_streams">1</property>
  <property name="meta.media.0.stream.type">video</property>
  <property name="meta.media.0.stream.frame_rate">60</property>
  <property name="meta.media.0.stream.sample_aspect_ratio">0</property>
  <property name="meta.media.0.codec.width">640</property>
  <property name="meta.media.0.codec.height">360</property>
  <property name="meta.media.0.codec.rotate">0</property>
  <property name="meta.media.0.codec.pix_fmt">yuvj420p</property>
  <property name="meta.media.0.codec.sample_aspect_ratio">0</property>
  <property name="meta.media.0.codec.colorspace">601</property>
  <property name="meta.media.0.codec.name">mjpeg</property>
  <property name="meta.media.0.codec.long_name">MJPEG (Motion JPEG)</property>
  <property name="meta.media.0.codec.bit_rate">0</property>
  <property name="meta.attr.0.stream.HANDLER_NAME.markup">VideoHandler</property>
  <property name="meta.attr.0.stream.VENDOR_ID.markup">[0][0][0][0]</property>
  <property name="meta.attr.0.stream.ENCODER.markup">Lavc60.3.100 mjpeg</property>
  <property name="meta.attr.0.stream.DURATION.markup">00:00:01.000000000</property>
  <property name="meta.attr.COMMENT.markup">Rendered with Manim Community v0.17.2</property>
  <property name="meta.attr.MAJOR_BRAND.markup">isom</property>
  <property name="meta.attr.MINOR_VERSION.markup">512</property>
  <property name="meta.attr.COMPATIBLE_BRANDS.markup">isomiso2avc1mp41</property>
  <property name="meta.attr.ENCODER.markup">Lavf60.3.100</property>
  <property name="seekable">1</property>
  <property name="meta.media.sample_aspect_num">1</property>
  <property name="meta.media.sample_aspect_den">1</property>
  <property name="aspect_ratio">1</property>
  <property name="format">3</property>
  <property name="audio_index">-1</property>
  <property name="video_index">0</property>
  <property name="mute_on_pause">0</property>
  <property name="mlt_service">avformat-novalidate</property>
  <property name="kdenlive:clipname">15.mp4</property>
  <property name="kdenlive:clip_type">2</property>
  <property name="kdenlive:folderid">528</property>
  <property name="kdenlive:id">425</property>
  <property name="kdenlive:file_size">83839</property>
  <property name="kdenlive:file_hash">5dd8c4618b98363212d4289d184bd02e</property>
  <property name="kdenlive:proxy">/home/xiaoxiae/.cache/kdenlive/proxy/5dd8c4618b98363212d4289d184bd02e.mkv</property>
  <property name="kdenlive:originalurl">video/Intro/15.mp4</property>
  <property name="kdenlive:original.mlt_type">producer</property>
  <property name="kdenlive:original.in">00:00:00.000</property>
  <property name="kdenlive:original.out">00:00:00.983</property>
  <property name="kdenlive:original.length">60</property>
  <property name="kdenlive:original.eof">pause</property>
  <property name="kdenlive:original.resource">video/Intro/15.mp4</property>
  <property name="kdenlive:original.meta.media.nb_streams">1</property>
  <property name="kdenlive:original.meta.media.0.stream.type">video</property>
  <property name="kdenlive:original.meta.media.0.stream.frame_rate">60</property>
  <property name="kdenlive:original.meta.media.0.stream.sample_aspect_ratio">0</property>
  <property name="kdenlive:original.meta.media.0.codec.width">3840</property>
  <property name="kdenlive:original.meta.media.0.codec.height">2160</property>
  <property name="kdenlive:original.meta.media.0.codec.rotate">0</property>
  <property name="kdenlive:original.meta.media.0.codec.pix_fmt">yuv420p</property>
  <property name="kdenlive:original.meta.media.0.codec.sample_aspect_ratio">0</property>
  <property name="kdenlive:original.meta.media.0.codec.colorspace">709</property>
  <property name="kdenlive:original.meta.media.0.codec.name">h264</property>
  <property name="kdenlive:original.meta.media.0.codec.long_name">H.264 / AVC / MPEG-4 AVC / MPEG-4 part 10</property>
  <property name="kdenlive:original.meta.media.0.codec.bit_rate">657856</property>
  <property name="kdenlive:original.meta.attr.0.stream.handler_name.markup">VideoHandler</property>
  <property name="kdenlive:original.meta.attr.0.stream.vendor_id.markup">[0][0][0][0]</property>
  <property name="kdenlive:original.meta.attr.0.stream.encoder.markup">Lavc60.3.100 libx264</property>
  <property name="kdenlive:original.meta.attr.major_brand.markup">isom</property>
  <property name="kdenlive:original.meta.attr.minor_version.markup">512</property>
  <property name="kdenlive:original.meta.attr.compatible_brands.markup">isomiso2avc1mp41</property>
  <property name="kdenlive:original.meta.attr.encoder.markup">Lavf60.3.100</property>
  <property name="kdenlive:original.meta.attr.comment.markup">Rendered with Manim Community v0.17.2</property>
  <property name="kdenlive:original.seekable">1</property>
  <property name="kdenlive:original.width">3840</property>
  <property name="kdenlive:original.height">2160</property>
  <property name="kdenlive:original.meta.media.sample_aspect_num">1</property>
  <property name="kdenlive:original.meta.media.sample_aspect_den">1</property>
  <property name="kdenlive:original.aspect_ratio">1</property>
  <property name="kdenlive:original.format">3</property>
  <property name="kdenlive:original.audio_index">-1</property>
  <property name="kdenlive:original.video_index">0</property>
  <property name="kdenlive:original.mute_on_pause">0</property>
  <property name="kdenlive:original.mlt_service">avformat-novalidate</property>
  <property name="kdenlive:original.meta.media.frame_rate_num">60</property>
  <property name="kdenlive:original.meta.media.frame_rate_den">1</property>
  <property name="kdenlive:original.meta.media.colorspace">709</property>
  <property name="kdenlive:original.meta.media.color_trc">2</property>
  <property name="kdenlive:original.meta.media.has_b_frames">2</property>
  <property name="kdenlive:original.meta.media.width">3840</property>
  <property name="kdenlive:original.meta.media.height">2160</property>
  <property name="kdenlive:original.meta.media.color_range">mpeg</property>
  <property name="kdenlive:original.meta.media.top_field_first">0</property>
  <property name="kdenlive:original.meta.media.progressive">1</property>
  <property name="kdenlive:original.kdenlive:clip_type">2</property>
  <property name="kdenlive:original.kdenlive:folderid">528</property>
  <property name="kdenlive:original.kdenlive:id">535</property>
  <property name="kdenlive:original.kdenlive:file_size">83839</property>
  <property name="kdenlive:original.kdenlive:file_hash">5dd8c4618b98363212d4289d184bd02e</property>
  <property name="kdenlive:original.backup">1</property>
  <property name="meta.media.frame_rate_num">60</property>
  <property name="meta.media.frame_rate_den">1</property>
  <property name="meta.media.colorspace">601</property>
  <property name="meta.media.color_trc">2</property>
  <property name="meta.media.has_b_frames">0</property>
  <property name="meta.media.width">640</property>
  <property name="meta.media.height">360</property>
  <property name="meta.media.color_range">full</property>
  <property name="meta.media.top_field_first">0</property>
  <property name="meta.media.progressive">1</property>
 </producer>
 <producer id="producer348" in="00:00:00.000" out="00:00:00.983">
  <property name="length">60</property>
  <property name="eof">pause</property>
  <property name="resource">/home/xiaoxiae/.cache/kdenlive/proxy/b5c5fd6ab602edc6d78d2043a50d3760.mkv</property>
  <property name="meta.media.nb_streams">1</property>
  <property name="meta.media.0.stream.type">video</property>
  <property name="meta.media.0.stream.frame_rate">60</property>
  <property name="meta.media.0.stream.sample_aspect_ratio">0</property>
  <property name="meta.media.0.codec.width">640</property>
  <property name="meta.media.0.codec.height">360</property>
  <property name="meta.media.0.codec.rotate">0</property>
  <property name="meta.media.0.codec.pix_fmt">yuvj420p</property>
  <property name="meta.media.0.codec.sample_aspect_ratio">0</property>
  <property name="meta.media.0.codec.colorspace">601</property>
  <property name="meta.media.0.codec.name">mjpeg</property>
  <property name="meta.media.0.codec.long_name">MJPEG (Motion JPEG)</property>
  <property name="meta.media.0.codec.bit_rate">0</property>
  <property name="meta.attr.0.stream.HANDLER_NAME.markup">VideoHandler</property>
  <property name="meta.attr.0.stream.VENDOR_ID.markup">[0][0][0][0]</property>
  <property name="meta.attr.0.stream.ENCODER.markup">Lavc60.3.100 mjpeg</property>
  <property name="meta.attr.0.stream.DURATION.markup">00:00:01.000000000</property>
  <property name="meta.attr.COMMENT.markup">Rendered with Manim Community v0.17.2</property>
  <property name="meta.attr.MAJOR_BRAND.markup">isom</property>
  <property name="meta.attr.MINOR_VERSION.markup">512</property>
  <property name="meta.attr.COMPATIBLE_BRANDS.markup">isomiso2avc1mp41</property>
  <property name="meta.attr.ENCODER.markup">Lavf60.3.100</property>
  <property name="seekable">1</property>
  <property name="meta.media.sample_aspect_num">1</property>
  <property name="meta.media.sample_aspect_den">1</property>
  <property name="aspect_ratio">1</property>
  <property name="format">3</property>
  <property name="audio_index">-1</property>
  <property name="video_index">0</property>
  <property name="mute_on_pause">0</property>
  <property name="mlt_service">avformat-novalidate</property>
  <property name="kdenlive:clipname">16.mp4</property>
  <property name="kdenlive:clip_type">2</property>
  <property name="kdenlive:folderid">528</property>
  <property name="kdenlive:id">426</property>
  <property name="kdenlive:file_size">65308</property>
  <property name="kdenlive:file_hash">b5c5fd6ab602edc6d78d2043a50d3760</property>
  <property name="kdenlive:proxy">/home/xiaoxiae/.cache/kdenlive/proxy/b5c5fd6ab602edc6d78d2043a50d3760.mkv</property>
  <property name="kdenlive:originalurl">video/Intro/16.mp4</property>
  <property name="kdenlive:original.mlt_type">producer</property>
  <property name="kdenlive:original.in">00:00:00.000</property>
  <property name="kdenlive:original.out">00:00:00.983</property>
  <property name="kdenlive:original.length">60</property>
  <property name="kdenlive:original.eof">pause</property>
  <property name="kdenlive:original.resource">video/Intro/16.mp4</property>
  <property name="kdenlive:original.meta.media.nb_streams">1</property>
  <property name="kdenlive:original.meta.media.0.stream.type">video</property>
  <property name="kdenlive:original.meta.media.0.stream.frame_rate">60</property>
  <property name="kdenlive:original.meta.media.0.stream.sample_aspect_ratio">0</property>
  <property name="kdenlive:original.meta.media.0.codec.width">3840</property>
  <property name="kdenlive:original.meta.media.0.codec.height">2160</property>
  <property name="kdenlive:original.meta.media.0.codec.rotate">0</property>
  <property name="kdenlive:original.meta.media.0.codec.pix_fmt">yuv420p</property>
  <property name="kdenlive:original.meta.media.0.codec.sample_aspect_ratio">0</property>
  <property name="kdenlive:original.meta.media.0.codec.colorspace">709</property>
  <property name="kdenlive:original.meta.media.0.codec.name">h264</property>
  <property name="kdenlive:original.meta.media.0.codec.long_name">H.264 / AVC / MPEG-4 AVC / MPEG-4 part 10</property>
  <property name="kdenlive:original.meta.media.0.codec.bit_rate">509416</property>
  <property name="kdenlive:original.meta.attr.0.stream.handler_name.markup">VideoHandler</property>
  <property name="kdenlive:original.meta.attr.0.stream.vendor_id.markup">[0][0][0][0]</property>
  <property name="kdenlive:original.meta.attr.0.stream.encoder.markup">Lavc60.3.100 libx264</property>
  <property name="kdenlive:original.meta.attr.major_brand.markup">isom</property>
  <property name="kdenlive:original.meta.attr.minor_version.markup">512</property>
  <property name="kdenlive:original.meta.attr.compatible_brands.markup">isomiso2avc1mp41</property>
  <property name="kdenlive:original.meta.attr.encoder.markup">Lavf60.3.100</property>
  <property name="kdenlive:original.meta.attr.comment.markup">Rendered with Manim Community v0.17.2</property>
  <property name="kdenlive:original.seekable">1</property>
  <property name="kdenlive:original.width">3840</property>
  <property name="kdenlive:original.height">2160</property>
  <property name="kdenlive:original.meta.media.sample_aspect_num">1</property>
  <property name="kdenlive:original.meta.media.sample_aspect_den">1</property>
  <property name="kdenlive:original.aspect_ratio">1</property>
  <property name="kdenlive:original.format">3</property>
  <property name="kdenlive:original.audio_index">-1</property>
  <property name="kdenlive:original.video_index">0</property>
  <property name="kdenlive:original.mute_on_pause">0</property>
  <property name="kdenlive:original.mlt_service">avformat-novalidate</property>
  <property name="kdenlive:original.meta.media.frame_rate_num">60</property>
  <property name="kdenlive:original.meta.media.frame_rate_den">1</property>
  <property name="kdenlive:original.meta.media.colorspace">709</property>
  <property name="kdenlive:original.meta.media.color_trc">2</property>
  <property name="kdenlive:original.meta.media.has_b_frames">2</property>
  <property name="kdenlive:original.meta.media.width">3840</property>
  <property name="kdenlive:original.meta.media.height">2160</property>
  <property name="kdenlive:original.meta.media.color_range">mpeg</property>
  <property name="kdenlive:original.meta.media.top_field_first">0</property>
  <property name="kdenlive:original.meta.media.progressive">1</property>
  <property name="kdenlive:original.kdenlive:clip_type">2</property>
  <property name="kdenlive:original.kdenlive:folderid">528</property>
  <property name="kdenlive:original.kdenlive:id">536</property>
  <property name="kdenlive:original.kdenlive:file_size">65308</property>
  <property name="kdenlive:original.kdenlive:file_hash">b5c5fd6ab602edc6d78d2043a50d3760</property>
  <property name="kdenlive:original.backup">1</property>
  <property name="meta.media.frame_rate_num">60</property>
  <property name="meta.media.frame_rate_den">1</property>
  <property name="meta.media.colorspace">601</property>
  <property name="meta.media.color_trc">2</property>
  <property name="meta.media.has_b_frames">0</property>
  <property name="meta.media.width">640</property>
  <property name="meta.media.height">360</property>
  <property name="meta.media.color_range">full</property>
  <property name="meta.media.top_field_first">0</property>
  <property name="meta.media.progressive">1</property>
 </producer>
 <producer id="producer350" in="00:00:00.000" out="00:00:00.983">
  <property name="length">60</property>
  <property name="eof">pause</property>
  <property name="resource">/home/xiaoxiae/.cache/kdenlive/proxy/e1760e2e2f196983f516a2b294d5a5d6.mkv</property>
  <property name="meta.media.nb_streams">1</property>
  <property name="meta.media.0.stream.type">video</property>
  <property name="meta.media.0.stream.frame_rate">60</property>
  <property name="meta.media.0.stream.sample_aspect_ratio">0</property>
  <property name="meta.media.0.codec.width">640</property>
  <property name="meta.media.0.codec.height">360</property>
  <property name="meta.media.0.codec.rotate">0</property>
  <property name="meta.media.0.codec.pix_fmt">yuvj420p</property>
  <property name="meta.media.0.codec.sample_aspect_ratio">0</property>
  <property name="meta.media.0.codec.colorspace">601</property>
  <property name="meta.media.0.codec.name">mjpeg</property>
  <property name="meta.media.0.codec.long_name">MJPEG (Motion JPEG)</property>
  <property name="meta.media.0.codec.bit_rate">0</property>
  <property name="meta.attr.0.stream.HANDLER_NAME.markup">VideoHandler</property>
  <property name="meta.attr.0.stream.VENDOR_ID.markup">[0][0][0][0]</property>
  <property name="meta.attr.0.stream.ENCODER.markup">Lavc60.3.100 mjpeg</property>
  <property name="meta.attr.0.stream.DURATION.markup">00:00:01.000000000</property>
  <property name="meta.attr.COMMENT.markup">Rendered with Manim Community v0.17.2</property>
  <property name="meta.attr.MAJOR_BRAND.markup">isom</property>
  <property name="meta.attr.MINOR_VERSION.markup">512</property>
  <property name="meta.attr.COMPATIBLE_BRANDS.markup">isomiso2avc1mp41</property>
  <property name="meta.attr.ENCODER.markup">Lavf60.3.100</property>
  <property name="seekable">1</property>
  <property name="meta.media.sample_aspect_num">1</property>
  <property name="meta.media.sample_aspect_den">1</property>
  <property name="aspect_ratio">1</property>
  <property name="format">3</property>
  <property name="audio_index">-1</property>
  <property name="video_index">0</property>
  <property name="mute_on_pause">0</property>
  <property name="mlt_service">avformat-novalidate</property>
  <property name="kdenlive:clipname">17.mp4</property>
  <property name="kdenlive:clip_type">2</property>
  <property name="kdenlive:folderid">528</property>
  <property name="kdenlive:id">427</property>
  <property name="kdenlive:file_size">145764</property>
  <property name="kdenlive:file_hash">e1760e2e2f196983f516a2b294d5a5d6</property>
  <property name="kdenlive:proxy">/home/xiaoxiae/.cache/kdenlive/proxy/e1760e2e2f196983f516a2b294d5a5d6.mkv</property>
  <property name="kdenlive:originalurl">video/Intro/17.mp4</property>
  <property name="kdenlive:original.mlt_type">producer</property>
  <property name="kdenlive:original.in">00:00:00.000</property>
  <property name="kdenlive:original.out">00:00:00.983</property>
  <property name="kdenlive:original.length">60</property>
  <property name="kdenlive:original.eof">pause</property>
  <property name="kdenlive:original.resource">video/Intro/17.mp4</property>
  <property name="kdenlive:original.meta.media.nb_streams">1</property>
  <property name="kdenlive:original.meta.media.0.stream.type">video</property>
  <property name="kdenlive:original.meta.media.0.stream.frame_rate">60</property>
  <property name="kdenlive:original.meta.media.0.stream.sample_aspect_ratio">0</property>
  <property name="kdenlive:original.meta.media.0.codec.width">3840</property>
  <property name="kdenlive:original.meta.media.0.codec.height">2160</property>
  <property name="kdenlive:original.meta.media.0.codec.rotate">0</property>
  <property name="kdenlive:original.meta.media.0.codec.pix_fmt">yuv420p</property>
  <property name="kdenlive:original.meta.media.0.codec.sample_aspect_ratio">0</property>
  <property name="kdenlive:original.meta.media.0.codec.colorspace">709</property>
  <property name="kdenlive:original.meta.media.0.codec.name">h264</property>
  <property name="kdenlive:original.meta.media.0.codec.long_name">H.264 / AVC / MPEG-4 AVC / MPEG-4 part 10</property>
  <property name="kdenlive:original.meta.media.0.codec.bit_rate">1153192</property>
  <property name="kdenlive:original.meta.attr.0.stream.handler_name.markup">VideoHandler</property>
  <property name="kdenlive:original.meta.attr.0.stream.vendor_id.markup">[0][0][0][0]</property>
  <property name="kdenlive:original.meta.attr.0.stream.encoder.markup">Lavc60.3.100 libx264</property>
  <property name="kdenlive:original.meta.attr.major_brand.markup">isom</property>
  <property name="kdenlive:original.meta.attr.minor_version.markup">512</property>
  <property name="kdenlive:original.meta.attr.compatible_brands.markup">isomiso2avc1mp41</property>
  <property name="kdenlive:original.meta.attr.encoder.markup">Lavf60.3.100</property>
  <property name="kdenlive:original.meta.attr.comment.markup">Rendered with Manim Community v0.17.2</property>
  <property name="kdenlive:original.seekable">1</property>
  <property name="kdenlive:original.width">3840</property>
  <property name="kdenlive:original.height">2160</property>
  <property name="kdenlive:original.meta.media.sample_aspect_num">1</property>
  <property name="kdenlive:original.meta.media.sample_aspect_den">1</property>
  <property name="kdenlive:original.aspect_ratio">1</property>
  <property name="kdenlive:original.format">3</property>
  <property name="kdenlive:original.audio_index">-1</property>
  <property name="kdenlive:original.video_index">0</property>
  <property name="kdenlive:original.mute_on_pause">0</property>
  <property name="kdenlive:original.mlt_service">avformat-novalidate</property>
  <property name="kdenlive:original.meta.media.frame_rate_num">60</property>
  <property name="kdenlive:original.meta.media.frame_rate_den">1</property>
  <property name="kdenlive:original.meta.media.colorspace">709</property>
  <property name="kdenlive:original.meta.media.color_trc">2</property>
  <property name="kdenlive:original.meta.media.has_b_frames">2</property>
  <property name="kdenlive:original.meta.media.width">3840</property>
  <property name="kdenlive:original.meta.media.height">2160</property>
  <property name="kdenlive:original.meta.media.color_range">mpeg</property>
  <property name="kdenlive:original.meta.media.top_field_first">0</property>
  <property name="kdenlive:original.meta.media.progressive">1</property>
  <property name="kdenlive:original.kdenlive:clip_type">2</property>
  <property name="kdenlive:original.kdenlive:folderid">528</property>
  <property name="kdenlive:original.kdenlive:id">537</property>
  <property name="kdenlive:original.kdenlive:file_size">145764</property>
  <property name="kdenlive:original.kdenlive:file_hash">e1760e2e2f196983f516a2b294d5a5d6</property>
  <property name="kdenlive:original.backup">1</property>
  <property name="meta.media.frame_rate_num">60</property>
  <property name="meta.media.frame_rate_den">1</property>
  <property name="meta.media.colorspace">601</property>
  <property name="meta.media.color_trc">2</property>
  <property name="meta.media.has_b_frames">0</property>
  <property name="meta.media.width">640</property>
  <property name="meta.media.height">360</property>
  <property name="meta.media.color_range">full</property>
  <property name="meta.media.top_field_first">0</property>
  <property name="meta.media.progressive">1</property>
 </producer>
 <producer id="producer351" in="00:00:00.000" out="00:00:00.983">
  <property name="length">60</property>
  <property name="eof">pause</property>
  <property name="resource">/home/xiaoxiae/.cache/kdenlive/proxy/08ec4c368cccded6f63b78f1b2f38512.mkv</property>
  <property name="meta.media.nb_streams">1</property>
  <property name="meta.media.0.stream.type">video</property>
  <property name="meta.media.0.stream.frame_rate">60</property>
  <property name="meta.media.0.stream.sample_aspect_ratio">0</property>
  <property name="meta.media.0.codec.width">640</property>
  <property name="meta.media.0.codec.height">360</property>
  <property name="meta.media.0.codec.rotate">0</property>
  <property name="meta.media.0.codec.pix_fmt">yuvj420p</property>
  <property name="meta.media.0.codec.sample_aspect_ratio">0</property>
  <property name="meta.media.0.codec.colorspace">601</property>
  <property name="meta.media.0.codec.name">mjpeg</property>
  <property name="meta.media.0.codec.long_name">MJPEG (Motion JPEG)</property>
  <property name="meta.media.0.codec.bit_rate">0</property>
  <property name="meta.attr.0.stream.HANDLER_NAME.markup">VideoHandler</property>
  <property name="meta.attr.0.stream.VENDOR_ID.markup">[0][0][0][0]</property>
  <property name="meta.attr.0.stream.ENCODER.markup">Lavc60.3.100 mjpeg</property>
  <property name="meta.attr.0.stream.DURATION.markup">00:00:01.000000000</property>
  <property name="meta.attr.COMMENT.markup">Rendered with Manim Community v0.17.2</property>
  <property name="meta.attr.MAJOR_BRAND.markup">isom</property>
  <property name="meta.attr.MINOR_VERSION.markup">512</property>
  <property name="meta.attr.COMPATIBLE_BRANDS.markup">isomiso2avc1mp41</property>
  <property name="meta.attr.ENCODER.markup">Lavf60.3.100</property>
  <property name="seekable">1</property>
  <property name="meta.media.sample_aspect_num">1</property>
  <property name="meta.media.sample_aspect_den">1</property>
  <property name="aspect_ratio">1</property>
  <property name="format">3</property>
  <property name="audio_index">-1</property>
  <property name="video_index">0</property>
  <property name="mute_on_pause">0</property>
  <property name="mlt_service">avformat-novalidate</property>
  <property name="kdenlive:clipname">18.mp4</property>
  <property name="kdenlive:clip_type">2</property>
  <property name="kdenlive:folderid">528</property>
  <property name="kdenlive:id">428</property>
  <property name="kdenlive:file_size">402711</property>
  <property name="kdenlive:file_hash">08ec4c368cccded6f63b78f1b2f38512</property>
  <property name="kdenlive:proxy">/home/xiaoxiae/.cache/kdenlive/proxy/08ec4c368cccded6f63b78f1b2f38512.mkv</property>
  <property name="kdenlive:originalurl">video/Intro/18.mp4</property>
  <property name="kdenlive:original.mlt_type">producer</property>
  <property name="kdenlive:original.in">00:00:00.000</property>
  <property name="kdenlive:original.out">00:00:00.983</property>
  <property name="kdenlive:original.length">60</property>
  <property name="kdenlive:original.eof">pause</property>
  <property name="kdenlive:original.resource">video/Intro/18.mp4</property>
  <property name="kdenlive:original.meta.media.nb_streams">1</property>
  <property name="kdenlive:original.meta.media.0.stream.type">video</property>
  <property name="kdenlive:original.meta.media.0.stream.frame_rate">60</property>
  <property name="kdenlive:original.meta.media.0.stream.sample_aspect_ratio">0</property>
  <property name="kdenlive:original.meta.media.0.codec.width">3840</property>
  <property name="kdenlive:original.meta.media.0.codec.height">2160</property>
  <property name="kdenlive:original.meta.media.0.codec.rotate">0</property>
  <property name="kdenlive:original.meta.media.0.codec.pix_fmt">yuv420p</property>
  <property name="kdenlive:original.meta.media.0.codec.sample_aspect_ratio">0</property>
  <property name="kdenlive:original.meta.media.0.codec.colorspace">709</property>
  <property name="kdenlive:original.meta.media.0.codec.name">h264</property>
  <property name="kdenlive:original.meta.media.0.codec.long_name">H.264 / AVC / MPEG-4 AVC / MPEG-4 part 10</property>
  <property name="kdenlive:original.meta.media.0.codec.bit_rate">3210880</property>
  <property name="kdenlive:original.meta.attr.0.stream.handler_name.markup">VideoHandler</property>
  <property name="kdenlive:original.meta.attr.0.stream.vendor_id.markup">[0][0][0][0]</property>
  <property name="kdenlive:original.meta.attr.0.stream.encoder.markup">Lavc60.3.100 libx264</property>
  <property name="kdenlive:original.meta.attr.major_brand.markup">isom</property>
  <property name="kdenlive:original.meta.attr.minor_version.markup">512</property>
  <property name="kdenlive:original.meta.attr.compatible_brands.markup">isomiso2avc1mp41</property>
  <property name="kdenlive:original.meta.attr.encoder.markup">Lavf60.3.100</property>
  <property name="kdenlive:original.meta.attr.comment.markup">Rendered with Manim Community v0.17.2</property>
  <property name="kdenlive:original.seekable">1</property>
  <property name="kdenlive:original.width">3840</property>
  <property name="kdenlive:original.height">2160</property>
  <property name="kdenlive:original.meta.media.sample_aspect_num">1</property>
  <property name="kdenlive:original.meta.media.sample_aspect_den">1</property>
  <property name="kdenlive:original.aspect_ratio">1</property>
  <property name="kdenlive:original.format">3</property>
  <property name="kdenlive:original.audio_index">-1</property>
  <property name="kdenlive:original.video_index">0</property>
  <property name="kdenlive:original.mute_on_pause">0</property>
  <property name="kdenlive:original.mlt_service">avformat-novalidate</property>
  <property name="kdenlive:original.meta.media.frame_rate_num">60</property>
  <property name="kdenlive:original.meta.media.frame_rate_den">1</property>
  <property name="kdenlive:original.meta.media.colorspace">709</property>
  <property name="kdenlive:original.meta.media.color_trc">2</property>
  <property name="kdenlive:original.meta.media.has_b_frames">2</property>
  <property name="kdenlive:original.meta.media.width">3840</property>
  <property name="kdenlive:original.meta.media.height">2160</property>
  <property name="kdenlive:original.meta.media.color_range">mpeg</property>
  <property name="kdenlive:original.meta.media.top_field_first">0</property>
  <property name="kdenlive:original.meta.media.progressive">1</property>
  <property name="kdenlive:original.kdenlive:clip_type">2</property>
  <property name="kdenlive:original.kdenlive:folderid">528</property>
  <property name="kdenlive:original.kdenlive:id">538</property>
  <property name="kdenlive:original.kdenlive:file_size">402711</property>
  <property name="kdenlive:original.kdenlive:file_hash">08ec4c368cccded6f63b78f1b2f38512</property>
  <property name="kdenlive:original.backup">1</property>
  <property name="meta.media.frame_rate_num">60</property>
  <property name="meta.media.frame_rate_den">1</property>
  <property name="meta.media.colorspace">601</property>
  <property name="meta.media.color_trc">2</property>
  <property name="meta.media.has_b_frames">0</property>
  <property name="meta.media.width">640</property>
  <property name="meta.media.height">360</property>
  <property name="meta.media.color_range">full</property>
  <property name="meta.media.top_field_first">0</property>
  <property name="meta.media.progressive">1</property>
 </producer>
 <producer id="producer349" in="00:00:00.000" out="00:00:00.983">
  <property name="length">60</property>
  <property name="eof">pause</property>
  <property name="resource">/home/xiaoxiae/.cache/kdenlive/proxy/d9da4465ea356a642602c520073630a9.mkv</property>
  <property name="meta.media.nb_streams">1</property>
  <property name="meta.media.0.stream.type">video</property>
  <property name="meta.media.0.stream.frame_rate">60</property>
  <property name="meta.media.0.stream.sample_aspect_ratio">0</property>
  <property name="meta.media.0.codec.width">640</property>
  <property name="meta.media.0.codec.height">360</property>
  <property name="meta.media.0.codec.rotate">0</property>
  <property name="meta.media.0.codec.pix_fmt">yuvj420p</property>
  <property name="meta.media.0.codec.sample_aspect_ratio">0</property>
  <property name="meta.media.0.codec.colorspace">601</property>
  <property name="meta.media.0.codec.name">mjpeg</property>
  <property name="meta.media.0.codec.long_name">MJPEG (Motion JPEG)</property>
  <property name="meta.media.0.codec.bit_rate">0</property>
  <property name="meta.attr.0.stream.HANDLER_NAME.markup">VideoHandler</property>
  <property name="meta.attr.0.stream.VENDOR_ID.markup">[0][0][0][0]</property>
  <property name="meta.attr.0.stream.ENCODER.markup">Lavc60.3.100 mjpeg</property>
  <property name="meta.attr.0.stream.DURATION.markup">00:00:01.000000000</property>
  <property name="meta.attr.COMMENT.markup">Rendered with Manim Community v0.17.2</property>
  <property name="meta.attr.MAJOR_BRAND.markup">isom</property>
  <property name="meta.attr.MINOR_VERSION.markup">512</property>
  <property name="meta.attr.COMPATIBLE_BRANDS.markup">isomiso2avc1mp41</property>
  <property name="meta.attr.ENCODER.markup">Lavf60.3.100</property>
  <property name="seekable">1</property>
  <property name="meta.media.sample_aspect_num">1</property>
  <property name="meta.media.sample_aspect_den">1</property>
  <property name="aspect_ratio">1</property>
  <property name="format">3</property>
  <property name="audio_index">-1</property>
  <property name="video_index">0</property>
  <property name="mute_on_pause">0</property>
  <property name="mlt_service">avformat-novalidate</property>
  <property name="kdenlive:clipname">19.mp4</property>
  <property name="kdenlive:clip_type">2</property>
  <property name="kdenlive:folderid">528</property>
  <property name="kdenlive:id">429</property>
  <property name="kdenlive:file_size">58406</property>
  <property name="kdenlive:file_hash">d9da4465ea356a642602c520073630a9</property>
  <property name="kdenlive:proxy">/home/xiaoxiae/.cache/kdenlive/proxy/d9da4465ea356a642602c520073630a9.mkv</property>
  <property name="kdenlive:originalurl">video/Intro/19.mp4</property>
  <property name="kdenlive:original.mlt_type">producer</property>
  <property name="kdenlive:original.in">00:00:00.000</property>
  <property name="kdenlive:original.out">00:00:00.983</property>
  <property name="kdenlive:original.length">60</property>
  <property name="kdenlive:original.eof">pause</property>
  <property name="kdenlive:original.resource">video/Intro/19.mp4</property>
  <property name="kdenlive:original.meta.media.nb_streams">1</property>
  <property name="kdenlive:original.meta.media.0.stream.type">video</property>
  <property name="kdenlive:original.meta.media.0.stream.frame_rate">60</property>
  <property name="kdenlive:original.meta.media.0.stream.sample_aspect_ratio">0</property>
  <property name="kdenlive:original.meta.media.0.codec.width">3840</property>
  <property name="kdenlive:original.meta.media.0.codec.height">2160</property>
  <property name="kdenlive:original.meta.media.0.codec.rotate">0</property>
  <property name="kdenlive:original.meta.media.0.codec.pix_fmt">yuv420p</property>
  <property name="kdenlive:original.meta.media.0.codec.sample_aspect_ratio">0</property>
  <property name="kdenlive:original.meta.media.0.codec.colorspace">709</property>
  <property name="kdenlive:original.meta.media.0.codec.name">h264</property>
  <property name="kdenlive:original.meta.media.0.codec.long_name">H.264 / AVC / MPEG-4 AVC / MPEG-4 part 10</property>
  <property name="kdenlive:original.meta.media.0.codec.bit_rate">454200</property>
  <property name="kdenlive:original.meta.attr.0.stream.handler_name.markup">VideoHandler</property>
  <property name="kdenlive:original.meta.attr.0.stream.vendor_id.markup">[0][0][0][0]</property>
  <property name="kdenlive:original.meta.attr.0.stream.encoder.markup">Lavc60.3.100 libx264</property>
  <property name="kdenlive:original.meta.attr.major_brand.markup">isom</property>
  <property name="kdenlive:original.meta.attr.minor_version.markup">512</property>
  <property name="kdenlive:original.meta.attr.compatible_brands.markup">isomiso2avc1mp41</property>
  <property name="kdenlive:original.meta.attr.encoder.markup">Lavf60.3.100</property>
  <property name="kdenlive:original.meta.attr.comment.markup">Rendered with Manim Community v0.17.2</property>
  <property name="kdenlive:original.seekable">1</property>
  <property name="kdenlive:original.width">3840</property>
  <property name="kdenlive:original.height">2160</property>
  <property name="kdenlive:original.meta.media.sample_aspect_num">1</property>
  <property name="kdenlive:original.meta.media.sample_aspect_den">1</property>
  <property name="kdenlive:original.aspect_ratio">1</property>
  <property name="kdenlive:original.format">3</property>
  <property name="kdenlive:original.audio_index">-1</property>
  <property name="kdenlive:original.video_index">0</property>
  <property name="kdenlive:original.mute_on_pause">0</property>
  <property name="kdenlive:original.mlt_service">avformat-novalidate</property>
  <property name="kdenlive:original.meta.media.frame_rate_num">60</property>
  <property name="kdenlive:original.meta.media.frame_rate_den">1</property>
  <property name="kdenlive:original.meta.media.colorspace">709</property>
  <property name="kdenlive:original.meta.media.color_trc">2</property>
  <property name="kdenlive:original.meta.media.has_b_frames">2</property>
  <property name="kdenlive:original.meta.media.width">3840</property>
  <property name="kdenlive:original.meta.media.height">2160</property>
  <property name="kdenlive:original.meta.media.color_range">mpeg</property>
  <property name="kdenlive:original.meta.media.top_field_first">0</property>
  <property name="kdenlive:original.meta.media.progressive">1</property>
  <property name="kdenlive:original.kdenlive:clip_type">2</property>
  <property name="kdenlive:original.kdenlive:folderid">528</property>
  <property name="kdenlive:original.kdenlive:id">539</property>
  <property name="kdenlive:original.kdenlive:file_size">58406</property>
  <property name="kdenlive:original.kdenlive:file_hash">d9da4465ea356a642602c520073630a9</property>
  <property name="kdenlive:original.backup">1</property>
  <property name="meta.media.frame_rate_num">60</property>
  <property name="meta.media.frame_rate_den">1</property>
  <property name="meta.media.colorspace">601</property>
  <property name="meta.media.color_trc">2</property>
  <property name="meta.media.has_b_frames">0</property>
  <property name="meta.media.width">640</property>
  <property name="meta.media.height">360</property>
  <property name="meta.media.color_range">full</property>
  <property name="meta.media.top_field_first">0</property>
  <property name="meta.media.progressive">1</property>
 </producer>
 <producer id="producer352" in="00:00:00.000" out="00:00:01.483">
  <property name="length">90</property>
  <property name="eof">pause</property>
  <property name="resource">/home/xiaoxiae/.cache/kdenlive/proxy/7e109612d249e63bc8a5528b4c1371c1.mkv</property>
  <property name="meta.media.nb_streams">1</property>
  <property name="meta.media.0.stream.type">video</property>
  <property name="meta.media.0.stream.frame_rate">60</property>
  <property name="meta.media.0.stream.sample_aspect_ratio">0</property>
  <property name="meta.media.0.codec.width">640</property>
  <property name="meta.media.0.codec.height">360</property>
  <property name="meta.media.0.codec.rotate">0</property>
  <property name="meta.media.0.codec.pix_fmt">yuvj420p</property>
  <property name="meta.media.0.codec.sample_aspect_ratio">0</property>
  <property name="meta.media.0.codec.colorspace">601</property>
  <property name="meta.media.0.codec.name">mjpeg</property>
  <property name="meta.media.0.codec.long_name">MJPEG (Motion JPEG)</property>
  <property name="meta.media.0.codec.bit_rate">0</property>
  <property name="meta.attr.0.stream.HANDLER_NAME.markup">VideoHandler</property>
  <property name="meta.attr.0.stream.VENDOR_ID.markup">[0][0][0][0]</property>
  <property name="meta.attr.0.stream.ENCODER.markup">Lavc60.3.100 mjpeg</property>
  <property name="meta.attr.0.stream.DURATION.markup">00:00:01.500000000</property>
  <property name="meta.attr.COMMENT.markup">Rendered with Manim Community v0.17.2</property>
  <property name="meta.attr.MAJOR_BRAND.markup">isom</property>
  <property name="meta.attr.MINOR_VERSION.markup">512</property>
  <property name="meta.attr.COMPATIBLE_BRANDS.markup">isomiso2avc1mp41</property>
  <property name="meta.attr.ENCODER.markup">Lavf60.3.100</property>
  <property name="seekable">1</property>
  <property name="meta.media.sample_aspect_num">1</property>
  <property name="meta.media.sample_aspect_den">1</property>
  <property name="aspect_ratio">1</property>
  <property name="format">3</property>
  <property name="audio_index">-1</property>
  <property name="video_index">0</property>
  <property name="mute_on_pause">0</property>
  <property name="mlt_service">avformat-novalidate</property>
  <property name="kdenlive:clipname">2.mp4</property>
  <property name="kdenlive:clip_type">2</property>
  <property name="kdenlive:folderid">528</property>
  <property name="kdenlive:id">430</property>
  <property name="kdenlive:file_size">512115</property>
  <property name="kdenlive:file_hash">7e109612d249e63bc8a5528b4c1371c1</property>
  <property name="kdenlive:proxy">/home/xiaoxiae/.cache/kdenlive/proxy/7e109612d249e63bc8a5528b4c1371c1.mkv</property>
  <property name="kdenlive:originalurl">video/Intro/2.mp4</property>
  <property name="kdenlive:original.mlt_type">producer</property>
  <property name="kdenlive:original.in">00:00:00.000</property>
  <property name="kdenlive:original.out">00:00:01.483</property>
  <property name="kdenlive:original.length">90</property>
  <property name="kdenlive:original.eof">pause</property>
  <property name="kdenlive:original.resource">video/Intro/2.mp4</property>
  <property name="kdenlive:original.meta.media.nb_streams">1</property>
  <property name="kdenlive:original.meta.media.0.stream.type">video</property>
  <property name="kdenlive:original.meta.media.0.stream.frame_rate">60</property>
  <property name="kdenlive:original.meta.media.0.stream.sample_aspect_ratio">0</property>
  <property name="kdenlive:original.meta.media.0.codec.width">3840</property>
  <property name="kdenlive:original.meta.media.0.codec.height">2160</property>
  <property name="kdenlive:original.meta.media.0.codec.rotate">0</property>
  <property name="kdenlive:original.meta.media.0.codec.pix_fmt">yuv420p</property>
  <property name="kdenlive:original.meta.media.0.codec.sample_aspect_ratio">0</property>
  <property name="kdenlive:original.meta.media.0.codec.colorspace">709</property>
  <property name="kdenlive:original.meta.media.0.codec.name">h264</property>
  <property name="kdenlive:original.meta.media.0.codec.long_name">H.264 / AVC / MPEG-4 AVC / MPEG-4 part 10</property>
  <property name="kdenlive:original.meta.media.0.codec.bit_rate">2721514</property>
  <property name="kdenlive:original.meta.attr.0.stream.handler_name.markup">VideoHandler</property>
  <property name="kdenlive:original.meta.attr.0.stream.vendor_id.markup">[0][0][0][0]</property>
  <property name="kdenlive:original.meta.attr.0.stream.encoder.markup">Lavc60.3.100 libx264</property>
  <property name="kdenlive:original.meta.attr.major_brand.markup">isom</property>
  <property name="kdenlive:original.meta.attr.minor_version.markup">512</property>
  <property name="kdenlive:original.meta.attr.compatible_brands.markup">isomiso2avc1mp41</property>
  <property name="kdenlive:original.meta.attr.encoder.markup">Lavf60.3.100</property>
  <property name="kdenlive:original.meta.attr.comment.markup">Rendered with Manim Community v0.17.2</property>
  <property name="kdenlive:original.seekable">1</property>
  <property name="kdenlive:original.width">3840</property>
  <property name="kdenlive:original.height">2160</property>
  <property name="kdenlive:original.meta.media.sample_aspect_num">1</property>
  <property name="kdenlive:original.meta.media.sample_aspect_den">1</property>
  <property name="kdenlive:original.aspect_ratio">1</property>
  <property name="kdenlive:original.format">3</property>
  <property name="kdenlive:original.audio_index">-1</property>
  <property name="kdenlive:original.video_index">0</property>
  <property name="kdenlive:original.mute_on_pause">0</property>
  <property name="kdenlive:original.mlt_service">avformat-novalidate</property>
  <property name="kdenlive:original.meta.media.frame_rate_num">60</property>
  <property name="kdenlive:original.meta.media.frame_rate_den">1</property>
  <property name="kdenlive:original.meta.media.colorspace">709</property>
  <property name="kdenlive:original.meta.media.color_trc">2</property>
  <property name="kdenlive:original.meta.media.has_b_frames">2</property>
  <property name="kdenlive:original.meta.media.width">3840</property>
  <property name="kdenlive:original.meta.media.height">2160</property>
  <property name="kdenlive:original.meta.media.color_range">mpeg</property>
  <property name="kdenlive:original.meta.media.top_field_first">0</property>
  <property name="kdenlive:original.meta.media.progressive">1</property>
  <property name="kdenlive:original.kdenlive:clip_type">2</property>
  <property name="kdenlive:original.kdenlive:folderid">528</property>
  <property name="kdenlive:original.kdenlive:id">540</property>
  <property name="kdenlive:original.kdenlive:file_size">512115</property>
  <property name="kdenlive:original.kdenlive:file_hash">7e109612d249e63bc8a5528b4c1371c1</property>
  <property name="kdenlive:original.backup">1</property>
  <property name="meta.media.frame_rate_num">60</property>
  <property name="meta.media.frame_rate_den">1</property>
  <property name="meta.media.colorspace">601</property>
  <property name="meta.media.color_trc">2</property>
  <property name="meta.media.has_b_frames">0</property>
  <property name="meta.media.width">640</property>
  <property name="meta.media.height">360</property>
  <property name="meta.media.color_range">full</property>
  <property name="meta.media.top_field_first">0</property>
  <property name="meta.media.progressive">1</property>
 </producer>
 <producer id="producer353" in="00:00:00.000" out="00:00:00.983">
  <property name="length">60</property>
  <property name="eof">pause</property>
  <property name="resource">/home/xiaoxiae/.cache/kdenlive/proxy/3635b86975c247ccd43eb5234beeeef3.mkv</property>
  <property name="meta.media.nb_streams">1</property>
  <property name="meta.media.0.stream.type">video</property>
  <property name="meta.media.0.stream.frame_rate">60</property>
  <property name="meta.media.0.stream.sample_aspect_ratio">0</property>
  <property name="meta.media.0.codec.width">640</property>
  <property name="meta.media.0.codec.height">360</property>
  <property name="meta.media.0.codec.rotate">0</property>
  <property name="meta.media.0.codec.pix_fmt">yuvj420p</property>
  <property name="meta.media.0.codec.sample_aspect_ratio">0</property>
  <property name="meta.media.0.codec.colorspace">601</property>
  <property name="meta.media.0.codec.name">mjpeg</property>
  <property name="meta.media.0.codec.long_name">MJPEG (Motion JPEG)</property>
  <property name="meta.media.0.codec.bit_rate">0</property>
  <property name="meta.attr.0.stream.HANDLER_NAME.markup">VideoHandler</property>
  <property name="meta.attr.0.stream.VENDOR_ID.markup">[0][0][0][0]</property>
  <property name="meta.attr.0.stream.ENCODER.markup">Lavc60.3.100 mjpeg</property>
  <property name="meta.attr.0.stream.DURATION.markup">00:00:01.000000000</property>
  <property name="meta.attr.COMMENT.markup">Rendered with Manim Community v0.17.2</property>
  <property name="meta.attr.MAJOR_BRAND.markup">isom</property>
  <property name="meta.attr.MINOR_VERSION.markup">512</property>
  <property name="meta.attr.COMPATIBLE_BRANDS.markup">isomiso2avc1mp41</property>
  <property name="meta.attr.ENCODER.markup">Lavf60.3.100</property>
  <property name="seekable">1</property>
  <property name="meta.media.sample_aspect_num">1</property>
  <property name="meta.media.sample_aspect_den">1</property>
  <property name="aspect_ratio">1</property>
  <property name="format">3</property>
  <property name="audio_index">-1</property>
  <property name="video_index">0</property>
  <property name="mute_on_pause">0</property>
  <property name="mlt_service">avformat-novalidate</property>
  <property name="kdenlive:clipname">20.mp4</property>
  <property name="kdenlive:clip_type">2</property>
  <property name="kdenlive:folderid">528</property>
  <property name="kdenlive:id">431</property>
  <property name="kdenlive:file_size">102860</property>
  <property name="kdenlive:file_hash">3635b86975c247ccd43eb5234beeeef3</property>
  <property name="kdenlive:proxy">/home/xiaoxiae/.cache/kdenlive/proxy/3635b86975c247ccd43eb5234beeeef3.mkv</property>
  <property name="kdenlive:originalurl">video/Intro/20.mp4</property>
  <property name="kdenlive:original.mlt_type">producer</property>
  <property name="kdenlive:original.in">00:00:00.000</property>
  <property name="kdenlive:original.out">00:00:00.983</property>
  <property name="kdenlive:original.length">60</property>
  <property name="kdenlive:original.eof">pause</property>
  <property name="kdenlive:original.resource">video/Intro/20.mp4</property>
  <property name="kdenlive:original.meta.media.nb_streams">1</property>
  <property name="kdenlive:original.meta.media.0.stream.type">video</property>
  <property name="kdenlive:original.meta.media.0.stream.frame_rate">60</property>
  <property name="kdenlive:original.meta.media.0.stream.sample_aspect_ratio">0</property>
  <property name="kdenlive:original.meta.media.0.codec.width">3840</property>
  <property name="kdenlive:original.meta.media.0.codec.height">2160</property>
  <property name="kdenlive:original.meta.media.0.codec.rotate">0</property>
  <property name="kdenlive:original.meta.media.0.codec.pix_fmt">yuv420p</property>
  <property name="kdenlive:original.meta.media.0.codec.sample_aspect_ratio">0</property>
  <property name="kdenlive:original.meta.media.0.codec.colorspace">709</property>
  <property name="kdenlive:original.meta.media.0.codec.name">h264</property>
  <property name="kdenlive:original.meta.media.0.codec.long_name">H.264 / AVC / MPEG-4 AVC / MPEG-4 part 10</property>
  <property name="kdenlive:original.meta.media.0.codec.bit_rate">809896</property>
  <property name="kdenlive:original.meta.attr.0.stream.handler_name.markup">VideoHandler</property>
  <property name="kdenlive:original.meta.attr.0.stream.vendor_id.markup">[0][0][0][0]</property>
  <property name="kdenlive:original.meta.attr.0.stream.encoder.markup">Lavc60.3.100 libx264</property>
  <property name="kdenlive:original.meta.attr.major_brand.markup">isom</property>
  <property name="kdenlive:original.meta.attr.minor_version.markup">512</property>
  <property name="kdenlive:original.meta.attr.compatible_brands.markup">isomiso2avc1mp41</property>
  <property name="kdenlive:original.meta.attr.encoder.markup">Lavf60.3.100</property>
  <property name="kdenlive:original.meta.attr.comment.markup">Rendered with Manim Community v0.17.2</property>
  <property name="kdenlive:original.seekable">1</property>
  <property name="kdenlive:original.width">3840</property>
  <property name="kdenlive:original.height">2160</property>
  <property name="kdenlive:original.meta.media.sample_aspect_num">1</property>
  <property name="kdenlive:original.meta.media.sample_aspect_den">1</property>
  <property name="kdenlive:original.aspect_ratio">1</property>
  <property name="kdenlive:original.format">3</property>
  <property name="kdenlive:original.audio_index">-1</property>
  <property name="kdenlive:original.video_index">0</property>
  <property name="kdenlive:original.mute_on_pause">0</property>
  <property name="kdenlive:original.mlt_service">avformat-novalidate</property>
  <property name="kdenlive:original.meta.media.frame_rate_num">60</property>
  <property name="kdenlive:original.meta.media.frame_rate_den">1</property>
  <property name="kdenlive:original.meta.media.colorspace">709</property>
  <property name="kdenlive:original.meta.media.color_trc">2</property>
  <property name="kdenlive:original.meta.media.has_b_frames">2</property>
  <property name="kdenlive:original.meta.media.width">3840</property>
  <property name="kdenlive:original.meta.media.height">2160</property>
  <property name="kdenlive:original.meta.media.color_range">mpeg</property>
  <property name="kdenlive:original.meta.media.top_field_first">0</property>
  <property name="kdenlive:original.meta.media.progressive">1</property>
  <property name="kdenlive:original.kdenlive:clip_type">2</property>
  <property name="kdenlive:original.kdenlive:folderid">528</property>
  <property name="kdenlive:original.kdenlive:id">541</property>
  <property name="kdenlive:original.kdenlive:file_size">102860</property>
  <property name="kdenlive:original.kdenlive:file_hash">3635b86975c247ccd43eb5234beeeef3</property>
  <property name="kdenlive:original.backup">1</property>
  <property name="meta.media.frame_rate_num">60</property>
  <property name="meta.media.frame_rate_den">1</property>
  <property name="meta.media.colorspace">601</property>
  <property name="meta.media.color_trc">2</property>
  <property name="meta.media.has_b_frames">0</property>
  <property name="meta.media.width">640</property>
  <property name="meta.media.height">360</property>
  <property name="meta.media.color_range">full</property>
  <property name="meta.media.top_field_first">0</property>
  <property name="meta.media.progressive">1</property>
 </producer>
 <producer id="producer354" in="00:00:00.000" out="00:00:00.983">
  <property name="length">60</property>
  <property name="eof">pause</property>
  <property name="resource">/home/xiaoxiae/.cache/kdenlive/proxy/28e5504ee10ea5fee60be7f7489d4450.mkv</property>
  <property name="meta.media.nb_streams">1</property>
  <property name="meta.media.0.stream.type">video</property>
  <property name="meta.media.0.stream.frame_rate">60</property>
  <property name="meta.media.0.stream.sample_aspect_ratio">0</property>
  <property name="meta.media.0.codec.width">640</property>
  <property name="meta.media.0.codec.height">360</property>
  <property name="meta.media.0.codec.rotate">0</property>
  <property name="meta.media.0.codec.pix_fmt">yuvj420p</property>
  <property name="meta.media.0.codec.sample_aspect_ratio">0</property>
  <property name="meta.media.0.codec.colorspace">601</property>
  <property name="meta.media.0.codec.name">mjpeg</property>
  <property name="meta.media.0.codec.long_name">MJPEG (Motion JPEG)</property>
  <property name="meta.media.0.codec.bit_rate">0</property>
  <property name="meta.attr.0.stream.HANDLER_NAME.markup">VideoHandler</property>
  <property name="meta.attr.0.stream.VENDOR_ID.markup">[0][0][0][0]</property>
  <property name="meta.attr.0.stream.ENCODER.markup">Lavc60.3.100 mjpeg</property>
  <property name="meta.attr.0.stream.DURATION.markup">00:00:01.000000000</property>
  <property name="meta.attr.COMMENT.markup">Rendered with Manim Community v0.17.2</property>
  <property name="meta.attr.MAJOR_BRAND.markup">isom</property>
  <property name="meta.attr.MINOR_VERSION.markup">512</property>
  <property name="meta.attr.COMPATIBLE_BRANDS.markup">isomiso2avc1mp41</property>
  <property name="meta.attr.ENCODER.markup">Lavf60.3.100</property>
  <property name="seekable">1</property>
  <property name="meta.media.sample_aspect_num">1</property>
  <property name="meta.media.sample_aspect_den">1</property>
  <property name="aspect_ratio">1</property>
  <property name="format">3</property>
  <property name="audio_index">-1</property>
  <property name="video_index">0</property>
  <property name="mute_on_pause">0</property>
  <property name="mlt_service">avformat-novalidate</property>
  <property name="kdenlive:clipname">21.mp4</property>
  <property name="kdenlive:clip_type">2</property>
  <property name="kdenlive:folderid">528</property>
  <property name="kdenlive:id">432</property>
  <property name="kdenlive:file_size">60881</property>
  <property name="kdenlive:file_hash">28e5504ee10ea5fee60be7f7489d4450</property>
  <property name="kdenlive:proxy">/home/xiaoxiae/.cache/kdenlive/proxy/28e5504ee10ea5fee60be7f7489d4450.mkv</property>
  <property name="kdenlive:originalurl">video/Intro/21.mp4</property>
  <property name="kdenlive:original.mlt_type">producer</property>
  <property name="kdenlive:original.in">00:00:00.000</property>
  <property name="kdenlive:original.out">00:00:00.983</property>
  <property name="kdenlive:original.length">60</property>
  <property name="kdenlive:original.eof">pause</property>
  <property name="kdenlive:original.resource">video/Intro/21.mp4</property>
  <property name="kdenlive:original.meta.media.nb_streams">1</property>
  <property name="kdenlive:original.meta.media.0.stream.type">video</property>
  <property name="kdenlive:original.meta.media.0.stream.frame_rate">60</property>
  <property name="kdenlive:original.meta.media.0.stream.sample_aspect_ratio">0</property>
  <property name="kdenlive:original.meta.media.0.codec.width">3840</property>
  <property name="kdenlive:original.meta.media.0.codec.height">2160</property>
  <property name="kdenlive:original.meta.media.0.codec.rotate">0</property>
  <property name="kdenlive:original.meta.media.0.codec.pix_fmt">yuv420p</property>
  <property name="kdenlive:original.meta.media.0.codec.sample_aspect_ratio">0</property>
  <property name="kdenlive:original.meta.media.0.codec.colorspace">709</property>
  <property name="kdenlive:original.meta.media.0.codec.name">h264</property>
  <property name="kdenlive:original.meta.media.0.codec.long_name">H.264 / AVC / MPEG-4 AVC / MPEG-4 part 10</property>
  <property name="kdenlive:original.meta.media.0.codec.bit_rate">474000</property>
  <property name="kdenlive:original.meta.attr.0.stream.handler_name.markup">VideoHandler</property>
  <property name="kdenlive:original.meta.attr.0.stream.vendor_id.markup">[0][0][0][0]</property>
  <property name="kdenlive:original.meta.attr.0.stream.encoder.markup">Lavc60.3.100 libx264</property>
  <property name="kdenlive:original.meta.attr.major_brand.markup">isom</property>
  <property name="kdenlive:original.meta.attr.minor_version.markup">512</property>
  <property name="kdenlive:original.meta.attr.compatible_brands.markup">isomiso2avc1mp41</property>
  <property name="kdenlive:original.meta.attr.encoder.markup">Lavf60.3.100</property>
  <property name="kdenlive:original.meta.attr.comment.markup">Rendered with Manim Community v0.17.2</property>
  <property name="kdenlive:original.seekable">1</property>
  <property name="kdenlive:original.width">3840</property>
  <property name="kdenlive:original.height">2160</property>
  <property name="kdenlive:original.meta.media.sample_aspect_num">1</property>
  <property name="kdenlive:original.meta.media.sample_aspect_den">1</property>
  <property name="kdenlive:original.aspect_ratio">1</property>
  <property name="kdenlive:original.format">3</property>
  <property name="kdenlive:original.audio_index">-1</property>
  <property name="kdenlive:original.video_index">0</property>
  <property name="kdenlive:original.mute_on_pause">0</property>
  <property name="kdenlive:original.mlt_service">avformat-novalidate</property>
  <property name="kdenlive:original.meta.media.frame_rate_num">60</property>
  <property name="kdenlive:original.meta.media.frame_rate_den">1</property>
  <property name="kdenlive:original.meta.media.colorspace">709</property>
  <property name="kdenlive:original.meta.media.color_trc">2</property>
  <property name="kdenlive:original.meta.media.has_b_frames">2</property>
  <property name="kdenlive:original.meta.media.width">3840</property>
  <property name="kdenlive:original.meta.media.height">2160</property>
  <property name="kdenlive:original.meta.media.color_range">mpeg</property>
  <property name="kdenlive:original.meta.media.top_field_first">0</property>
  <property name="kdenlive:original.meta.media.progressive">1</property>
  <property name="kdenlive:original.kdenlive:clip_type">2</property>
  <property name="kdenlive:original.kdenlive:folderid">528</property>
  <property name="kdenlive:original.kdenlive:id">542</property>
  <property name="kdenlive:original.kdenlive:file_size">60881</property>
  <property name="kdenlive:original.kdenlive:file_hash">28e5504ee10ea5fee60be7f7489d4450</property>
  <property name="kdenlive:original.backup">1</property>
  <property name="meta.media.frame_rate_num">60</property>
  <property name="meta.media.frame_rate_den">1</property>
  <property name="meta.media.colorspace">601</property>
  <property name="meta.media.color_trc">2</property>
  <property name="meta.media.has_b_frames">0</property>
  <property name="meta.media.width">640</property>
  <property name="meta.media.height">360</property>
  <property name="meta.media.color_range">full</property>
  <property name="meta.media.top_field_first">0</property>
  <property name="meta.media.progressive">1</property>
 </producer>
 <producer id="producer355" in="00:00:00.000" out="00:00:00.983">
  <property name="length">60</property>
  <property name="eof">pause</property>
  <property name="resource">/home/xiaoxiae/.cache/kdenlive/proxy/0f6edc0b9dba143346f5c551d9b61080.mkv</property>
  <property name="meta.media.nb_streams">1</property>
  <property name="meta.media.0.stream.type">video</property>
  <property name="meta.media.0.stream.frame_rate">60</property>
  <property name="meta.media.0.stream.sample_aspect_ratio">0</property>
  <property name="meta.media.0.codec.width">640</property>
  <property name="meta.media.0.codec.height">360</property>
  <property name="meta.media.0.codec.rotate">0</property>
  <property name="meta.media.0.codec.pix_fmt">yuvj420p</property>
  <property name="meta.media.0.codec.sample_aspect_ratio">0</property>
  <property name="meta.media.0.codec.colorspace">601</property>
  <property name="meta.media.0.codec.name">mjpeg</property>
  <property name="meta.media.0.codec.long_name">MJPEG (Motion JPEG)</property>
  <property name="meta.media.0.codec.bit_rate">0</property>
  <property name="meta.attr.0.stream.HANDLER_NAME.markup">VideoHandler</property>
  <property name="meta.attr.0.stream.VENDOR_ID.markup">[0][0][0][0]</property>
  <property name="meta.attr.0.stream.ENCODER.markup">Lavc60.3.100 mjpeg</property>
  <property name="meta.attr.0.stream.DURATION.markup">00:00:01.000000000</property>
  <property name="meta.attr.COMMENT.markup">Rendered with Manim Community v0.17.2</property>
  <property name="meta.attr.MAJOR_BRAND.markup">isom</property>
  <property name="meta.attr.MINOR_VERSION.markup">512</property>
  <property name="meta.attr.COMPATIBLE_BRANDS.markup">isomiso2avc1mp41</property>
  <property name="meta.attr.ENCODER.markup">Lavf60.3.100</property>
  <property name="seekable">1</property>
  <property name="meta.media.sample_aspect_num">1</property>
  <property name="meta.media.sample_aspect_den">1</property>
  <property name="aspect_ratio">1</property>
  <property name="format">3</property>
  <property name="audio_index">-1</property>
  <property name="video_index">0</property>
  <property name="mute_on_pause">0</property>
  <property name="mlt_service">avformat-novalidate</property>
  <property name="kdenlive:clipname">22.mp4</property>
  <property name="kdenlive:clip_type">2</property>
  <property name="kdenlive:folderid">528</property>
  <property name="kdenlive:id">433</property>
  <property name="kdenlive:file_size">108808</property>
  <property name="kdenlive:file_hash">0f6edc0b9dba143346f5c551d9b61080</property>
  <property name="kdenlive:proxy">/home/xiaoxiae/.cache/kdenlive/proxy/0f6edc0b9dba143346f5c551d9b61080.mkv</property>
  <property name="kdenlive:originalurl">video/Intro/22.mp4</property>
  <property name="kdenlive:original.mlt_type">producer</property>
  <property name="kdenlive:original.in">00:00:00.000</property>
  <property name="kdenlive:original.out">00:00:00.983</property>
  <property name="kdenlive:original.length">60</property>
  <property name="kdenlive:original.eof">pause</property>
  <property name="kdenlive:original.resource">video/Intro/22.mp4</property>
  <property name="kdenlive:original.meta.media.nb_streams">1</property>
  <property name="kdenlive:original.meta.media.0.stream.type">video</property>
  <property name="kdenlive:original.meta.media.0.stream.frame_rate">60</property>
  <property name="kdenlive:original.meta.media.0.stream.sample_aspect_ratio">0</property>
  <property name="kdenlive:original.meta.media.0.codec.width">3840</property>
  <property name="kdenlive:original.meta.media.0.codec.height">2160</property>
  <property name="kdenlive:original.meta.media.0.codec.rotate">0</property>
  <property name="kdenlive:original.meta.media.0.codec.pix_fmt">yuv420p</property>
  <property name="kdenlive:original.meta.media.0.codec.sample_aspect_ratio">0</property>
  <property name="kdenlive:original.meta.media.0.codec.colorspace">709</property>
  <property name="kdenlive:original.meta.media.0.codec.name">h264</property>
  <property name="kdenlive:original.meta.media.0.codec.long_name">H.264 / AVC / MPEG-4 AVC / MPEG-4 part 10</property>
  <property name="kdenlive:original.meta.media.0.codec.bit_rate">857416</property>
  <property name="kdenlive:original.meta.attr.0.stream.handler_name.markup">VideoHandler</property>
  <property name="kdenlive:original.meta.attr.0.stream.vendor_id.markup">[0][0][0][0]</property>
  <property name="kdenlive:original.meta.attr.0.stream.encoder.markup">Lavc60.3.100 libx264</property>
  <property name="kdenlive:original.meta.attr.major_brand.markup">isom</property>
  <property name="kdenlive:original.meta.attr.minor_version.markup">512</property>
  <property name="kdenlive:original.meta.attr.compatible_brands.markup">isomiso2avc1mp41</property>
  <property name="kdenlive:original.meta.attr.encoder.markup">Lavf60.3.100</property>
  <property name="kdenlive:original.meta.attr.comment.markup">Rendered with Manim Community v0.17.2</property>
  <property name="kdenlive:original.seekable">1</property>
  <property name="kdenlive:original.width">3840</property>
  <property name="kdenlive:original.height">2160</property>
  <property name="kdenlive:original.meta.media.sample_aspect_num">1</property>
  <property name="kdenlive:original.meta.media.sample_aspect_den">1</property>
  <property name="kdenlive:original.aspect_ratio">1</property>
  <property name="kdenlive:original.format">3</property>
  <property name="kdenlive:original.audio_index">-1</property>
  <property name="kdenlive:original.video_index">0</property>
  <property name="kdenlive:original.mute_on_pause">0</property>
  <property name="kdenlive:original.mlt_service">avformat-novalidate</property>
  <property name="kdenlive:original.meta.media.frame_rate_num">60</property>
  <property name="kdenlive:original.meta.media.frame_rate_den">1</property>
  <property name="kdenlive:original.meta.media.colorspace">709</property>
  <property name="kdenlive:original.meta.media.color_trc">2</property>
  <property name="kdenlive:original.meta.media.has_b_frames">2</property>
  <property name="kdenlive:original.meta.media.width">3840</property>
  <property name="kdenlive:original.meta.media.height">2160</property>
  <property name="kdenlive:original.meta.media.color_range">mpeg</property>
  <property name="kdenlive:original.meta.media.top_field_first">0</property>
  <property name="kdenlive:original.meta.media.progressive">1</property>
  <property name="kdenlive:original.kdenlive:clip_type">2</property>
  <property name="kdenlive:original.kdenlive:folderid">528</property>
  <property name="kdenlive:original.kdenlive:id">543</property>
  <property name="kdenlive:original.kdenlive:file_size">108808</property>
  <property name="kdenlive:original.kdenlive:file_hash">0f6edc0b9dba143346f5c551d9b61080</property>
  <property name="kdenlive:original.backup">1</property>
  <property name="meta.media.frame_rate_num">60</property>
  <property name="meta.media.frame_rate_den">1</property>
  <property name="meta.media.colorspace">601</property>
  <property name="meta.media.color_trc">2</property>
  <property name="meta.media.has_b_frames">0</property>
  <property name="meta.media.width">640</property>
  <property name="meta.media.height">360</property>
  <property name="meta.media.color_range">full</property>
  <property name="meta.media.top_field_first">0</property>
  <property name="meta.media.progressive">1</property>
 </producer>
 <producer id="producer356" in="00:00:00.000" out="00:00:00.983">
  <property name="length">60</property>
  <property name="eof">pause</property>
  <property name="resource">/home/xiaoxiae/.cache/kdenlive/proxy/f4af2d57a1a6e97843d8add48d18accc.mkv</property>
  <property name="meta.media.nb_streams">1</property>
  <property name="meta.media.0.stream.type">video</property>
  <property name="meta.media.0.stream.frame_rate">60</property>
  <property name="meta.media.0.stream.sample_aspect_ratio">0</property>
  <property name="meta.media.0.codec.width">640</property>
  <property name="meta.media.0.codec.height">360</property>
  <property name="meta.media.0.codec.rotate">0</property>
  <property name="meta.media.0.codec.pix_fmt">yuvj420p</property>
  <property name="meta.media.0.codec.sample_aspect_ratio">0</property>
  <property name="meta.media.0.codec.colorspace">601</property>
  <property name="meta.media.0.codec.name">mjpeg</property>
  <property name="meta.media.0.codec.long_name">MJPEG (Motion JPEG)</property>
  <property name="meta.media.0.codec.bit_rate">0</property>
  <property name="meta.attr.0.stream.HANDLER_NAME.markup">VideoHandler</property>
  <property name="meta.attr.0.stream.VENDOR_ID.markup">[0][0][0][0]</property>
  <property name="meta.attr.0.stream.ENCODER.markup">Lavc60.3.100 mjpeg</property>
  <property name="meta.attr.0.stream.DURATION.markup">00:00:01.000000000</property>
  <property name="meta.attr.COMMENT.markup">Rendered with Manim Community v0.17.2</property>
  <property name="meta.attr.MAJOR_BRAND.markup">isom</property>
  <property name="meta.attr.MINOR_VERSION.markup">512</property>
  <property name="meta.attr.COMPATIBLE_BRANDS.markup">isomiso2avc1mp41</property>
  <property name="meta.attr.ENCODER.markup">Lavf60.3.100</property>
  <property name="seekable">1</property>
  <property name="meta.media.sample_aspect_num">1</property>
  <property name="meta.media.sample_aspect_den">1</property>
  <property name="aspect_ratio">1</property>
  <property name="format">3</property>
  <property name="audio_index">-1</property>
  <property name="video_index">0</property>
  <property name="mute_on_pause">0</property>
  <property name="mlt_service">avformat-novalidate</property>
  <property name="kdenlive:clipname">23.mp4</property>
  <property name="kdenlive:clip_type">2</property>
  <property name="kdenlive:folderid">528</property>
  <property name="kdenlive:id">434</property>
  <property name="kdenlive:file_size">58603</property>
  <property name="kdenlive:file_hash">f4af2d57a1a6e97843d8add48d18accc</property>
  <property name="kdenlive:proxy">/home/xiaoxiae/.cache/kdenlive/proxy/f4af2d57a1a6e97843d8add48d18accc.mkv</property>
  <property name="kdenlive:originalurl">video/Intro/23.mp4</property>
  <property name="kdenlive:original.mlt_type">producer</property>
  <property name="kdenlive:original.in">00:00:00.000</property>
  <property name="kdenlive:original.out">00:00:00.983</property>
  <property name="kdenlive:original.length">60</property>
  <property name="kdenlive:original.eof">pause</property>
  <property name="kdenlive:original.resource">video/Intro/23.mp4</property>
  <property name="kdenlive:original.meta.media.nb_streams">1</property>
  <property name="kdenlive:original.meta.media.0.stream.type">video</property>
  <property name="kdenlive:original.meta.media.0.stream.frame_rate">60</property>
  <property name="kdenlive:original.meta.media.0.stream.sample_aspect_ratio">0</property>
  <property name="kdenlive:original.meta.media.0.codec.width">3840</property>
  <property name="kdenlive:original.meta.media.0.codec.height">2160</property>
  <property name="kdenlive:original.meta.media.0.codec.rotate">0</property>
  <property name="kdenlive:original.meta.media.0.codec.pix_fmt">yuv420p</property>
  <property name="kdenlive:original.meta.media.0.codec.sample_aspect_ratio">0</property>
  <property name="kdenlive:original.meta.media.0.codec.colorspace">709</property>
  <property name="kdenlive:original.meta.media.0.codec.name">h264</property>
  <property name="kdenlive:original.meta.media.0.codec.long_name">H.264 / AVC / MPEG-4 AVC / MPEG-4 part 10</property>
  <property name="kdenlive:original.meta.media.0.codec.bit_rate">455776</property>
  <property name="kdenlive:original.meta.attr.0.stream.handler_name.markup">VideoHandler</property>
  <property name="kdenlive:original.meta.attr.0.stream.vendor_id.markup">[0][0][0][0]</property>
  <property name="kdenlive:original.meta.attr.0.stream.encoder.markup">Lavc60.3.100 libx264</property>
  <property name="kdenlive:original.meta.attr.major_brand.markup">isom</property>
  <property name="kdenlive:original.meta.attr.minor_version.markup">512</property>
  <property name="kdenlive:original.meta.attr.compatible_brands.markup">isomiso2avc1mp41</property>
  <property name="kdenlive:original.meta.attr.encoder.markup">Lavf60.3.100</property>
  <property name="kdenlive:original.meta.attr.comment.markup">Rendered with Manim Community v0.17.2</property>
  <property name="kdenlive:original.seekable">1</property>
  <property name="kdenlive:original.width">3840</property>
  <property name="kdenlive:original.height">2160</property>
  <property name="kdenlive:original.meta.media.sample_aspect_num">1</property>
  <property name="kdenlive:original.meta.media.sample_aspect_den">1</property>
  <property name="kdenlive:original.aspect_ratio">1</property>
  <property name="kdenlive:original.format">3</property>
  <property name="kdenlive:original.audio_index">-1</property>
  <property name="kdenlive:original.video_index">0</property>
  <property name="kdenlive:original.mute_on_pause">0</property>
  <property name="kdenlive:original.mlt_service">avformat-novalidate</property>
  <property name="kdenlive:original.meta.media.frame_rate_num">60</property>
  <property name="kdenlive:original.meta.media.frame_rate_den">1</property>
  <property name="kdenlive:original.meta.media.colorspace">709</property>
  <property name="kdenlive:original.meta.media.color_trc">2</property>
  <property name="kdenlive:original.meta.media.has_b_frames">2</property>
  <property name="kdenlive:original.meta.media.width">3840</property>
  <property name="kdenlive:original.meta.media.height">2160</property>
  <property name="kdenlive:original.meta.media.color_range">mpeg</property>
  <property name="kdenlive:original.meta.media.top_field_first">0</property>
  <property name="kdenlive:original.meta.media.progressive">1</property>
  <property name="kdenlive:original.kdenlive:clip_type">2</property>
  <property name="kdenlive:original.kdenlive:folderid">528</property>
  <property name="kdenlive:original.kdenlive:id">544</property>
  <property name="kdenlive:original.kdenlive:file_size">58603</property>
  <property name="kdenlive:original.kdenlive:file_hash">f4af2d57a1a6e97843d8add48d18accc</property>
  <property name="kdenlive:original.backup">1</property>
  <property name="meta.media.frame_rate_num">60</property>
  <property name="meta.media.frame_rate_den">1</property>
  <property name="meta.media.colorspace">601</property>
  <property name="meta.media.color_trc">2</property>
  <property name="meta.media.has_b_frames">0</property>
  <property name="meta.media.width">640</property>
  <property name="meta.media.height">360</property>
  <property name="meta.media.color_range">full</property>
  <property name="meta.media.top_field_first">0</property>
  <property name="meta.media.progressive">1</property>
 </producer>
 <producer id="producer357" in="00:00:00.000" out="00:00:00.983">
  <property name="length">60</property>
  <property name="eof">pause</property>
  <property name="resource">/home/xiaoxiae/.cache/kdenlive/proxy/073db0504cd7ae8d36367a78b5948b99.mkv</property>
  <property name="meta.media.nb_streams">1</property>
  <property name="meta.media.0.stream.type">video</property>
  <property name="meta.media.0.stream.frame_rate">60</property>
  <property name="meta.media.0.stream.sample_aspect_ratio">0</property>
  <property name="meta.media.0.codec.width">640</property>
  <property name="meta.media.0.codec.height">360</property>
  <property name="meta.media.0.codec.rotate">0</property>
  <property name="meta.media.0.codec.pix_fmt">yuvj420p</property>
  <property name="meta.media.0.codec.sample_aspect_ratio">0</property>
  <property name="meta.media.0.codec.colorspace">601</property>
  <property name="meta.media.0.codec.name">mjpeg</property>
  <property name="meta.media.0.codec.long_name">MJPEG (Motion JPEG)</property>
  <property name="meta.media.0.codec.bit_rate">0</property>
  <property name="meta.attr.0.stream.HANDLER_NAME.markup">VideoHandler</property>
  <property name="meta.attr.0.stream.VENDOR_ID.markup">[0][0][0][0]</property>
  <property name="meta.attr.0.stream.ENCODER.markup">Lavc60.3.100 mjpeg</property>
  <property name="meta.attr.0.stream.DURATION.markup">00:00:01.000000000</property>
  <property name="meta.attr.COMMENT.markup">Rendered with Manim Community v0.17.2</property>
  <property name="meta.attr.MAJOR_BRAND.markup">isom</property>
  <property name="meta.attr.MINOR_VERSION.markup">512</property>
  <property name="meta.attr.COMPATIBLE_BRANDS.markup">isomiso2avc1mp41</property>
  <property name="meta.attr.ENCODER.markup">Lavf60.3.100</property>
  <property name="seekable">1</property>
  <property name="meta.media.sample_aspect_num">1</property>
  <property name="meta.media.sample_aspect_den">1</property>
  <property name="aspect_ratio">1</property>
  <property name="format">3</property>
  <property name="audio_index">-1</property>
  <property name="video_index">0</property>
  <property name="mute_on_pause">0</property>
  <property name="mlt_service">avformat-novalidate</property>
  <property name="kdenlive:clipname">24.mp4</property>
  <property name="kdenlive:clip_type">2</property>
  <property name="kdenlive:folderid">528</property>
  <property name="kdenlive:id">435</property>
  <property name="kdenlive:file_size">107488</property>
  <property name="kdenlive:file_hash">073db0504cd7ae8d36367a78b5948b99</property>
  <property name="kdenlive:proxy">/home/xiaoxiae/.cache/kdenlive/proxy/073db0504cd7ae8d36367a78b5948b99.mkv</property>
  <property name="kdenlive:originalurl">video/Intro/24.mp4</property>
  <property name="kdenlive:original.mlt_type">producer</property>
  <property name="kdenlive:original.in">00:00:00.000</property>
  <property name="kdenlive:original.out">00:00:00.983</property>
  <property name="kdenlive:original.length">60</property>
  <property name="kdenlive:original.eof">pause</property>
  <property name="kdenlive:original.resource">video/Intro/24.mp4</property>
  <property name="kdenlive:original.meta.media.nb_streams">1</property>
  <property name="kdenlive:original.meta.media.0.stream.type">video</property>
  <property name="kdenlive:original.meta.media.0.stream.frame_rate">60</property>
  <property name="kdenlive:original.meta.media.0.stream.sample_aspect_ratio">0</property>
  <property name="kdenlive:original.meta.media.0.codec.width">3840</property>
  <property name="kdenlive:original.meta.media.0.codec.height">2160</property>
  <property name="kdenlive:original.meta.media.0.codec.rotate">0</property>
  <property name="kdenlive:original.meta.media.0.codec.pix_fmt">yuv420p</property>
  <property name="kdenlive:original.meta.media.0.codec.sample_aspect_ratio">0</property>
  <property name="kdenlive:original.meta.media.0.codec.colorspace">709</property>
  <property name="kdenlive:original.meta.media.0.codec.name">h264</property>
  <property name="kdenlive:original.meta.media.0.codec.long_name">H.264 / AVC / MPEG-4 AVC / MPEG-4 part 10</property>
  <property name="kdenlive:original.meta.media.0.codec.bit_rate">847048</property>
  <property name="kdenlive:original.meta.attr.0.stream.handler_name.markup">VideoHandler</property>
  <property name="kdenlive:original.meta.attr.0.stream.vendor_id.markup">[0][0][0][0]</property>
  <property name="kdenlive:original.meta.attr.0.stream.encoder.markup">Lavc60.3.100 libx264</property>
  <property name="kdenlive:original.meta.attr.major_brand.markup">isom</property>
  <property name="kdenlive:original.meta.attr.minor_version.markup">512</property>
  <property name="kdenlive:original.meta.attr.compatible_brands.markup">isomiso2avc1mp41</property>
  <property name="kdenlive:original.meta.attr.encoder.markup">Lavf60.3.100</property>
  <property name="kdenlive:original.meta.attr.comment.markup">Rendered with Manim Community v0.17.2</property>
  <property name="kdenlive:original.seekable">1</property>
  <property name="kdenlive:original.width">3840</property>
  <property name="kdenlive:original.height">2160</property>
  <property name="kdenlive:original.meta.media.sample_aspect_num">1</property>
  <property name="kdenlive:original.meta.media.sample_aspect_den">1</property>
  <property name="kdenlive:original.aspect_ratio">1</property>
  <property name="kdenlive:original.format">3</property>
  <property name="kdenlive:original.audio_index">-1</property>
  <property name="kdenlive:original.video_index">0</property>
  <property name="kdenlive:original.mute_on_pause">0</property>
  <property name="kdenlive:original.mlt_service">avformat-novalidate</property>
  <property name="kdenlive:original.meta.media.frame_rate_num">60</property>
  <property name="kdenlive:original.meta.media.frame_rate_den">1</property>
  <property name="kdenlive:original.meta.media.colorspace">709</property>
  <property name="kdenlive:original.meta.media.color_trc">2</property>
  <property name="kdenlive:original.meta.media.has_b_frames">2</property>
  <property name="kdenlive:original.meta.media.width">3840</property>
  <property name="kdenlive:original.meta.media.height">2160</property>
  <property name="kdenlive:original.meta.media.color_range">mpeg</property>
  <property name="kdenlive:original.meta.media.top_field_first">0</property>
  <property name="kdenlive:original.meta.media.progressive">1</property>
  <property name="kdenlive:original.kdenlive:clip_type">2</property>
  <property name="kdenlive:original.kdenlive:folderid">528</property>
  <property name="kdenlive:original.kdenlive:id">545</property>
  <property name="kdenlive:original.kdenlive:file_size">107488</property>
  <property name="kdenlive:original.kdenlive:file_hash">073db0504cd7ae8d36367a78b5948b99</property>
  <property name="kdenlive:original.backup">1</property>
  <property name="meta.media.frame_rate_num">60</property>
  <property name="meta.media.frame_rate_den">1</property>
  <property name="meta.media.colorspace">601</property>
  <property name="meta.media.color_trc">2</property>
  <property name="meta.media.has_b_frames">0</property>
  <property name="meta.media.width">640</property>
  <property name="meta.media.height">360</property>
  <property name="meta.media.color_range">full</property>
  <property name="meta.media.top_field_first">0</property>
  <property name="meta.media.progressive">1</property>
 </producer>
 <producer id="producer358" in="00:00:00.000" out="00:00:00.983">
  <property name="length">60</property>
  <property name="eof">pause</property>
  <property name="resource">/home/xiaoxiae/.cache/kdenlive/proxy/15e070acdbf788cb9dd002e08056a00f.mkv</property>
  <property name="meta.media.nb_streams">1</property>
  <property name="meta.media.0.stream.type">video</property>
  <property name="meta.media.0.stream.frame_rate">60</property>
  <property name="meta.media.0.stream.sample_aspect_ratio">0</property>
  <property name="meta.media.0.codec.width">640</property>
  <property name="meta.media.0.codec.height">360</property>
  <property name="meta.media.0.codec.rotate">0</property>
  <property name="meta.media.0.codec.pix_fmt">yuvj420p</property>
  <property name="meta.media.0.codec.sample_aspect_ratio">0</property>
  <property name="meta.media.0.codec.colorspace">601</property>
  <property name="meta.media.0.codec.name">mjpeg</property>
  <property name="meta.media.0.codec.long_name">MJPEG (Motion JPEG)</property>
  <property name="meta.media.0.codec.bit_rate">0</property>
  <property name="meta.attr.0.stream.HANDLER_NAME.markup">VideoHandler</property>
  <property name="meta.attr.0.stream.VENDOR_ID.markup">[0][0][0][0]</property>
  <property name="meta.attr.0.stream.ENCODER.markup">Lavc60.3.100 mjpeg</property>
  <property name="meta.attr.0.stream.DURATION.markup">00:00:01.000000000</property>
  <property name="meta.attr.COMMENT.markup">Rendered with Manim Community v0.17.2</property>
  <property name="meta.attr.MAJOR_BRAND.markup">isom</property>
  <property name="meta.attr.MINOR_VERSION.markup">512</property>
  <property name="meta.attr.COMPATIBLE_BRANDS.markup">isomiso2avc1mp41</property>
  <property name="meta.attr.ENCODER.markup">Lavf60.3.100</property>
  <property name="seekable">1</property>
  <property name="meta.media.sample_aspect_num">1</property>
  <property name="meta.media.sample_aspect_den">1</property>
  <property name="aspect_ratio">1</property>
  <property name="format">3</property>
  <property name="audio_index">-1</property>
  <property name="video_index">0</property>
  <property name="mute_on_pause">0</property>
  <property name="mlt_service">avformat-novalidate</property>
  <property name="kdenlive:clipname">25.mp4</property>
  <property name="kdenlive:clip_type">2</property>
  <property name="kdenlive:folderid">528</property>
  <property name="kdenlive:id">436</property>
  <property name="kdenlive:file_size">67854</property>
  <property name="kdenlive:file_hash">15e070acdbf788cb9dd002e08056a00f</property>
  <property name="kdenlive:proxy">/home/xiaoxiae/.cache/kdenlive/proxy/15e070acdbf788cb9dd002e08056a00f.mkv</property>
  <property name="kdenlive:originalurl">video/Intro/25.mp4</property>
  <property name="kdenlive:original.mlt_type">producer</property>
  <property name="kdenlive:original.in">00:00:00.000</property>
  <property name="kdenlive:original.out">00:00:00.983</property>
  <property name="kdenlive:original.length">60</property>
  <property name="kdenlive:original.eof">pause</property>
  <property name="kdenlive:original.resource">video/Intro/25.mp4</property>
  <property name="kdenlive:original.meta.media.nb_streams">1</property>
  <property name="kdenlive:original.meta.media.0.stream.type">video</property>
  <property name="kdenlive:original.meta.media.0.stream.frame_rate">60</property>
  <property name="kdenlive:original.meta.media.0.stream.sample_aspect_ratio">0</property>
  <property name="kdenlive:original.meta.media.0.codec.width">3840</property>
  <property name="kdenlive:original.meta.media.0.codec.height">2160</property>
  <property name="kdenlive:original.meta.media.0.codec.rotate">0</property>
  <property name="kdenlive:original.meta.media.0.codec.pix_fmt">yuv420p</property>
  <property name="kdenlive:original.meta.media.0.codec.sample_aspect_ratio">0</property>
  <property name="kdenlive:original.meta.media.0.codec.colorspace">709</property>
  <property name="kdenlive:original.meta.media.0.codec.name">h264</property>
  <property name="kdenlive:original.meta.media.0.codec.long_name">H.264 / AVC / MPEG-4 AVC / MPEG-4 part 10</property>
  <property name="kdenlive:original.meta.media.0.codec.bit_rate">529912</property>
  <property name="kdenlive:original.meta.attr.0.stream.handler_name.markup">VideoHandler</property>
  <property name="kdenlive:original.meta.attr.0.stream.vendor_id.markup">[0][0][0][0]</property>
  <property name="kdenlive:original.meta.attr.0.stream.encoder.markup">Lavc60.3.100 libx264</property>
  <property name="kdenlive:original.meta.attr.major_brand.markup">isom</property>
  <property name="kdenlive:original.meta.attr.minor_version.markup">512</property>
  <property name="kdenlive:original.meta.attr.compatible_brands.markup">isomiso2avc1mp41</property>
  <property name="kdenlive:original.meta.attr.encoder.markup">Lavf60.3.100</property>
  <property name="kdenlive:original.meta.attr.comment.markup">Rendered with Manim Community v0.17.2</property>
  <property name="kdenlive:original.seekable">1</property>
  <property name="kdenlive:original.width">3840</property>
  <property name="kdenlive:original.height">2160</property>
  <property name="kdenlive:original.meta.media.sample_aspect_num">1</property>
  <property name="kdenlive:original.meta.media.sample_aspect_den">1</property>
  <property name="kdenlive:original.aspect_ratio">1</property>
  <property name="kdenlive:original.format">3</property>
  <property name="kdenlive:original.audio_index">-1</property>
  <property name="kdenlive:original.video_index">0</property>
  <property name="kdenlive:original.mute_on_pause">0</property>
  <property name="kdenlive:original.mlt_service">avformat-novalidate</property>
  <property name="kdenlive:original.meta.media.frame_rate_num">60</property>
  <property name="kdenlive:original.meta.media.frame_rate_den">1</property>
  <property name="kdenlive:original.meta.media.colorspace">709</property>
  <property name="kdenlive:original.meta.media.color_trc">2</property>
  <property name="kdenlive:original.meta.media.has_b_frames">2</property>
  <property name="kdenlive:original.meta.media.width">3840</property>
  <property name="kdenlive:original.meta.media.height">2160</property>
  <property name="kdenlive:original.meta.media.color_range">mpeg</property>
  <property name="kdenlive:original.meta.media.top_field_first">0</property>
  <property name="kdenlive:original.meta.media.progressive">1</property>
  <property name="kdenlive:original.kdenlive:clip_type">2</property>
  <property name="kdenlive:original.kdenlive:folderid">528</property>
  <property name="kdenlive:original.kdenlive:id">546</property>
  <property name="kdenlive:original.kdenlive:file_size">67854</property>
  <property name="kdenlive:original.kdenlive:file_hash">15e070acdbf788cb9dd002e08056a00f</property>
  <property name="kdenlive:original.backup">1</property>
  <property name="meta.media.frame_rate_num">60</property>
  <property name="meta.media.frame_rate_den">1</property>
  <property name="meta.media.colorspace">601</property>
  <property name="meta.media.color_trc">2</property>
  <property name="meta.media.has_b_frames">0</property>
  <property name="meta.media.width">640</property>
  <property name="meta.media.height">360</property>
  <property name="meta.media.color_range">full</property>
  <property name="meta.media.top_field_first">0</property>
  <property name="meta.media.progressive">1</property>
 </producer>
 <producer id="producer359" in="00:00:00.000" out="00:00:00.983">
  <property name="length">60</property>
  <property name="eof">pause</property>
  <property name="resource">/home/xiaoxiae/.cache/kdenlive/proxy/5aea77cf056ec5c9ba1dbb6661ac3f90.mkv</property>
  <property name="meta.media.nb_streams">1</property>
  <property name="meta.media.0.stream.type">video</property>
  <property name="meta.media.0.stream.frame_rate">60</property>
  <property name="meta.media.0.stream.sample_aspect_ratio">0</property>
  <property name="meta.media.0.codec.width">640</property>
  <property name="meta.media.0.codec.height">360</property>
  <property name="meta.media.0.codec.rotate">0</property>
  <property name="meta.media.0.codec.pix_fmt">yuvj420p</property>
  <property name="meta.media.0.codec.sample_aspect_ratio">0</property>
  <property name="meta.media.0.codec.colorspace">601</property>
  <property name="meta.media.0.codec.name">mjpeg</property>
  <property name="meta.media.0.codec.long_name">MJPEG (Motion JPEG)</property>
  <property name="meta.media.0.codec.bit_rate">0</property>
  <property name="meta.attr.0.stream.HANDLER_NAME.markup">VideoHandler</property>
  <property name="meta.attr.0.stream.VENDOR_ID.markup">[0][0][0][0]</property>
  <property name="meta.attr.0.stream.ENCODER.markup">Lavc60.3.100 mjpeg</property>
  <property name="meta.attr.0.stream.DURATION.markup">00:00:01.000000000</property>
  <property name="meta.attr.COMMENT.markup">Rendered with Manim Community v0.17.2</property>
  <property name="meta.attr.MAJOR_BRAND.markup">isom</property>
  <property name="meta.attr.MINOR_VERSION.markup">512</property>
  <property name="meta.attr.COMPATIBLE_BRANDS.markup">isomiso2avc1mp41</property>
  <property name="meta.attr.ENCODER.markup">Lavf60.3.100</property>
  <property name="seekable">1</property>
  <property name="meta.media.sample_aspect_num">1</property>
  <property name="meta.media.sample_aspect_den">1</property>
  <property name="aspect_ratio">1</property>
  <property name="format">3</property>
  <property name="audio_index">-1</property>
  <property name="video_index">0</property>
  <property name="mute_on_pause">0</property>
  <property name="mlt_service">avformat-novalidate</property>
  <property name="kdenlive:clipname">26.mp4</property>
  <property name="kdenlive:clip_type">2</property>
  <property name="kdenlive:folderid">528</property>
  <property name="kdenlive:id">437</property>
  <property name="kdenlive:file_size">340777</property>
  <property name="kdenlive:file_hash">5aea77cf056ec5c9ba1dbb6661ac3f90</property>
  <property name="kdenlive:proxy">/home/xiaoxiae/.cache/kdenlive/proxy/5aea77cf056ec5c9ba1dbb6661ac3f90.mkv</property>
  <property name="kdenlive:originalurl">video/Intro/26.mp4</property>
  <property name="kdenlive:original.mlt_type">producer</property>
  <property name="kdenlive:original.in">00:00:00.000</property>
  <property name="kdenlive:original.out">00:00:00.983</property>
  <property name="kdenlive:original.length">60</property>
  <property name="kdenlive:original.eof">pause</property>
  <property name="kdenlive:original.resource">video/Intro/26.mp4</property>
  <property name="kdenlive:original.meta.media.nb_streams">1</property>
  <property name="kdenlive:original.meta.media.0.stream.type">video</property>
  <property name="kdenlive:original.meta.media.0.stream.frame_rate">60</property>
  <property name="kdenlive:original.meta.media.0.stream.sample_aspect_ratio">0</property>
  <property name="kdenlive:original.meta.media.0.codec.width">3840</property>
  <property name="kdenlive:original.meta.media.0.codec.height">2160</property>
  <property name="kdenlive:original.meta.media.0.codec.rotate">0</property>
  <property name="kdenlive:original.meta.media.0.codec.pix_fmt">yuv420p</property>
  <property name="kdenlive:original.meta.media.0.codec.sample_aspect_ratio">0</property>
  <property name="kdenlive:original.meta.media.0.codec.colorspace">709</property>
  <property name="kdenlive:original.meta.media.0.codec.name">h264</property>
  <property name="kdenlive:original.meta.media.0.codec.long_name">H.264 / AVC / MPEG-4 AVC / MPEG-4 part 10</property>
  <property name="kdenlive:original.meta.media.0.codec.bit_rate">2715344</property>
  <property name="kdenlive:original.meta.attr.0.stream.handler_name.markup">VideoHandler</property>
  <property name="kdenlive:original.meta.attr.0.stream.vendor_id.markup">[0][0][0][0]</property>
  <property name="kdenlive:original.meta.attr.0.stream.encoder.markup">Lavc60.3.100 libx264</property>
  <property name="kdenlive:original.meta.attr.major_brand.markup">isom</property>
  <property name="kdenlive:original.meta.attr.minor_version.markup">512</property>
  <property name="kdenlive:original.meta.attr.compatible_brands.markup">isomiso2avc1mp41</property>
  <property name="kdenlive:original.meta.attr.encoder.markup">Lavf60.3.100</property>
  <property name="kdenlive:original.meta.attr.comment.markup">Rendered with Manim Community v0.17.2</property>
  <property name="kdenlive:original.seekable">1</property>
  <property name="kdenlive:original.width">3840</property>
  <property name="kdenlive:original.height">2160</property>
  <property name="kdenlive:original.meta.media.sample_aspect_num">1</property>
  <property name="kdenlive:original.meta.media.sample_aspect_den">1</property>
  <property name="kdenlive:original.aspect_ratio">1</property>
  <property name="kdenlive:original.format">3</property>
  <property name="kdenlive:original.audio_index">-1</property>
  <property name="kdenlive:original.video_index">0</property>
  <property name="kdenlive:original.mute_on_pause">0</property>
  <property name="kdenlive:original.mlt_service">avformat-novalidate</property>
  <property name="kdenlive:original.meta.media.frame_rate_num">60</property>
  <property name="kdenlive:original.meta.media.frame_rate_den">1</property>
  <property name="kdenlive:original.meta.media.colorspace">709</property>
  <property name="kdenlive:original.meta.media.color_trc">2</property>
  <property name="kdenlive:original.meta.media.has_b_frames">2</property>
  <property name="kdenlive:original.meta.media.width">3840</property>
  <property name="kdenlive:original.meta.media.height">2160</property>
  <property name="kdenlive:original.meta.media.color_range">mpeg</property>
  <property name="kdenlive:original.meta.media.top_field_first">0</property>
  <property name="kdenlive:original.meta.media.progressive">1</property>
  <property name="kdenlive:original.kdenlive:clip_type">2</property>
  <property name="kdenlive:original.kdenlive:folderid">528</property>
  <property name="kdenlive:original.kdenlive:id">547</property>
  <property name="kdenlive:original.kdenlive:file_size">340777</property>
  <property name="kdenlive:original.kdenlive:file_hash">5aea77cf056ec5c9ba1dbb6661ac3f90</property>
  <property name="kdenlive:original.backup">1</property>
  <property name="meta.media.frame_rate_num">60</property>
  <property name="meta.media.frame_rate_den">1</property>
  <property name="meta.media.colorspace">601</property>
  <property name="meta.media.color_trc">2</property>
  <property name="meta.media.has_b_frames">0</property>
  <property name="meta.media.width">640</property>
  <property name="meta.media.height">360</property>
  <property name="meta.media.color_range">full</property>
  <property name="meta.media.top_field_first">0</property>
  <property name="meta.media.progressive">1</property>
 </producer>
 <producer id="producer360" in="00:00:00.000" out="00:00:00.983">
  <property name="length">60</property>
  <property name="eof">pause</property>
  <property name="resource">/home/xiaoxiae/.cache/kdenlive/proxy/55bb98b36f3d7b86bd0e98b9db3ec80e.mkv</property>
  <property name="meta.media.nb_streams">1</property>
  <property name="meta.media.0.stream.type">video</property>
  <property name="meta.media.0.stream.frame_rate">60</property>
  <property name="meta.media.0.stream.sample_aspect_ratio">0</property>
  <property name="meta.media.0.codec.width">640</property>
  <property name="meta.media.0.codec.height">360</property>
  <property name="meta.media.0.codec.rotate">0</property>
  <property name="meta.media.0.codec.pix_fmt">yuvj420p</property>
  <property name="meta.media.0.codec.sample_aspect_ratio">0</property>
  <property name="meta.media.0.codec.colorspace">601</property>
  <property name="meta.media.0.codec.name">mjpeg</property>
  <property name="meta.media.0.codec.long_name">MJPEG (Motion JPEG)</property>
  <property name="meta.media.0.codec.bit_rate">0</property>
  <property name="meta.attr.0.stream.HANDLER_NAME.markup">VideoHandler</property>
  <property name="meta.attr.0.stream.VENDOR_ID.markup">[0][0][0][0]</property>
  <property name="meta.attr.0.stream.ENCODER.markup">Lavc60.3.100 mjpeg</property>
  <property name="meta.attr.0.stream.DURATION.markup">00:00:01.000000000</property>
  <property name="meta.attr.COMMENT.markup">Rendered with Manim Community v0.17.2</property>
  <property name="meta.attr.MAJOR_BRAND.markup">isom</property>
  <property name="meta.attr.MINOR_VERSION.markup">512</property>
  <property name="meta.attr.COMPATIBLE_BRANDS.markup">isomiso2avc1mp41</property>
  <property name="meta.attr.ENCODER.markup">Lavf60.3.100</property>
  <property name="seekable">1</property>
  <property name="meta.media.sample_aspect_num">1</property>
  <property name="meta.media.sample_aspect_den">1</property>
  <property name="aspect_ratio">1</property>
  <property name="format">3</property>
  <property name="audio_index">-1</property>
  <property name="video_index">0</property>
  <property name="mute_on_pause">0</property>
  <property name="mlt_service">avformat-novalidate</property>
  <property name="kdenlive:clipname">27.mp4</property>
  <property name="kdenlive:clip_type">2</property>
  <property name="kdenlive:folderid">528</property>
  <property name="kdenlive:id">438</property>
  <property name="kdenlive:file_size">501019</property>
  <property name="kdenlive:file_hash">55bb98b36f3d7b86bd0e98b9db3ec80e</property>
  <property name="kdenlive:proxy">/home/xiaoxiae/.cache/kdenlive/proxy/55bb98b36f3d7b86bd0e98b9db3ec80e.mkv</property>
  <property name="kdenlive:originalurl">video/Intro/27.mp4</property>
  <property name="kdenlive:original.mlt_type">producer</property>
  <property name="kdenlive:original.in">00:00:00.000</property>
  <property name="kdenlive:original.out">00:00:00.983</property>
  <property name="kdenlive:original.length">60</property>
  <property name="kdenlive:original.eof">pause</property>
  <property name="kdenlive:original.resource">video/Intro/27.mp4</property>
  <property name="kdenlive:original.meta.media.nb_streams">1</property>
  <property name="kdenlive:original.meta.media.0.stream.type">video</property>
  <property name="kdenlive:original.meta.media.0.stream.frame_rate">60</property>
  <property name="kdenlive:original.meta.media.0.stream.sample_aspect_ratio">0</property>
  <property name="kdenlive:original.meta.media.0.codec.width">3840</property>
  <property name="kdenlive:original.meta.media.0.codec.height">2160</property>
  <property name="kdenlive:original.meta.media.0.codec.rotate">0</property>
  <property name="kdenlive:original.meta.media.0.codec.pix_fmt">yuv420p</property>
  <property name="kdenlive:original.meta.media.0.codec.sample_aspect_ratio">0</property>
  <property name="kdenlive:original.meta.media.0.codec.colorspace">709</property>
  <property name="kdenlive:original.meta.media.0.codec.name">h264</property>
  <property name="kdenlive:original.meta.media.0.codec.long_name">H.264 / AVC / MPEG-4 AVC / MPEG-4 part 10</property>
  <property name="kdenlive:original.meta.media.0.codec.bit_rate">3996704</property>
  <property name="kdenlive:original.meta.attr.0.stream.handler_name.markup">VideoHandler</property>
  <property name="kdenlive:original.meta.attr.0.stream.vendor_id.markup">[0][0][0][0]</property>
  <property name="kdenlive:original.meta.attr.0.stream.encoder.markup">Lavc60.3.100 libx264</property>
  <property name="kdenlive:original.meta.attr.major_brand.markup">isom</property>
  <property name="kdenlive:original.meta.attr.minor_version.markup">512</property>
  <property name="kdenlive:original.meta.attr.compatible_brands.markup">isomiso2avc1mp41</property>
  <property name="kdenlive:original.meta.attr.encoder.markup">Lavf60.3.100</property>
  <property name="kdenlive:original.meta.attr.comment.markup">Rendered with Manim Community v0.17.2</property>
  <property name="kdenlive:original.seekable">1</property>
  <property name="kdenlive:original.width">3840</property>
  <property name="kdenlive:original.height">2160</property>
  <property name="kdenlive:original.meta.media.sample_aspect_num">1</property>
  <property name="kdenlive:original.meta.media.sample_aspect_den">1</property>
  <property name="kdenlive:original.aspect_ratio">1</property>
  <property name="kdenlive:original.format">3</property>
  <property name="kdenlive:original.audio_index">-1</property>
  <property name="kdenlive:original.video_index">0</property>
  <property name="kdenlive:original.mute_on_pause">0</property>
  <property name="kdenlive:original.mlt_service">avformat-novalidate</property>
  <property name="kdenlive:original.meta.media.frame_rate_num">60</property>
  <property name="kdenlive:original.meta.media.frame_rate_den">1</property>
  <property name="kdenlive:original.meta.media.colorspace">709</property>
  <property name="kdenlive:original.meta.media.color_trc">2</property>
  <property name="kdenlive:original.meta.media.has_b_frames">2</property>
  <property name="kdenlive:original.meta.media.width">3840</property>
  <property name="kdenlive:original.meta.media.height">2160</property>
  <property name="kdenlive:original.meta.media.color_range">mpeg</property>
  <property name="kdenlive:original.meta.media.top_field_first">0</property>
  <property name="kdenlive:original.meta.media.progressive">1</property>
  <property name="kdenlive:original.kdenlive:clip_type">2</property>
  <property name="kdenlive:original.kdenlive:folderid">528</property>
  <property name="kdenlive:original.kdenlive:id">548</property>
  <property name="kdenlive:original.kdenlive:file_size">501019</property>
  <property name="kdenlive:original.kdenlive:file_hash">55bb98b36f3d7b86bd0e98b9db3ec80e</property>
  <property name="kdenlive:original.backup">1</property>
  <property name="meta.media.frame_rate_num">60</property>
  <property name="meta.media.frame_rate_den">1</property>
  <property name="meta.media.colorspace">601</property>
  <property name="meta.media.color_trc">2</property>
  <property name="meta.media.has_b_frames">0</property>
  <property name="meta.media.width">640</property>
  <property name="meta.media.height">360</property>
  <property name="meta.media.color_range">full</property>
  <property name="meta.media.top_field_first">0</property>
  <property name="meta.media.progressive">1</property>
 </producer>
 <producer id="producer361" in="00:00:00.000" out="00:00:01.483">
  <property name="length">90</property>
  <property name="eof">pause</property>
  <property name="resource">/home/xiaoxiae/.cache/kdenlive/proxy/5e27e1f4a04fc21f7fb9b4c60cf8a05b.mkv</property>
  <property name="meta.media.nb_streams">1</property>
  <property name="meta.media.0.stream.type">video</property>
  <property name="meta.media.0.stream.frame_rate">60</property>
  <property name="meta.media.0.stream.sample_aspect_ratio">0</property>
  <property name="meta.media.0.codec.width">640</property>
  <property name="meta.media.0.codec.height">360</property>
  <property name="meta.media.0.codec.rotate">0</property>
  <property name="meta.media.0.codec.pix_fmt">yuvj420p</property>
  <property name="meta.media.0.codec.sample_aspect_ratio">0</property>
  <property name="meta.media.0.codec.colorspace">601</property>
  <property name="meta.media.0.codec.name">mjpeg</property>
  <property name="meta.media.0.codec.long_name">MJPEG (Motion JPEG)</property>
  <property name="meta.media.0.codec.bit_rate">0</property>
  <property name="meta.attr.0.stream.HANDLER_NAME.markup">VideoHandler</property>
  <property name="meta.attr.0.stream.VENDOR_ID.markup">[0][0][0][0]</property>
  <property name="meta.attr.0.stream.ENCODER.markup">Lavc60.3.100 mjpeg</property>
  <property name="meta.attr.0.stream.DURATION.markup">00:00:01.500000000</property>
  <property name="meta.attr.COMMENT.markup">Rendered with Manim Community v0.17.2</property>
  <property name="meta.attr.MAJOR_BRAND.markup">isom</property>
  <property name="meta.attr.MINOR_VERSION.markup">512</property>
  <property name="meta.attr.COMPATIBLE_BRANDS.markup">isomiso2avc1mp41</property>
  <property name="meta.attr.ENCODER.markup">Lavf60.3.100</property>
  <property name="seekable">1</property>
  <property name="meta.media.sample_aspect_num">1</property>
  <property name="meta.media.sample_aspect_den">1</property>
  <property name="aspect_ratio">1</property>
  <property name="format">3</property>
  <property name="audio_index">-1</property>
  <property name="video_index">0</property>
  <property name="mute_on_pause">0</property>
  <property name="mlt_service">avformat-novalidate</property>
  <property name="kdenlive:clipname">28.mp4</property>
  <property name="kdenlive:clip_type">2</property>
  <property name="kdenlive:folderid">528</property>
  <property name="kdenlive:id">439</property>
  <property name="kdenlive:file_size">329253</property>
  <property name="kdenlive:file_hash">5e27e1f4a04fc21f7fb9b4c60cf8a05b</property>
  <property name="kdenlive:proxy">/home/xiaoxiae/.cache/kdenlive/proxy/5e27e1f4a04fc21f7fb9b4c60cf8a05b.mkv</property>
  <property name="kdenlive:originalurl">video/Intro/28.mp4</property>
  <property name="kdenlive:original.mlt_type">producer</property>
  <property name="kdenlive:original.in">00:00:00.000</property>
  <property name="kdenlive:original.out">00:00:01.483</property>
  <property name="kdenlive:original.length">90</property>
  <property name="kdenlive:original.eof">pause</property>
  <property name="kdenlive:original.resource">video/Intro/28.mp4</property>
  <property name="kdenlive:original.meta.media.nb_streams">1</property>
  <property name="kdenlive:original.meta.media.0.stream.type">video</property>
  <property name="kdenlive:original.meta.media.0.stream.frame_rate">60</property>
  <property name="kdenlive:original.meta.media.0.stream.sample_aspect_ratio">0</property>
  <property name="kdenlive:original.meta.media.0.codec.width">3840</property>
  <property name="kdenlive:original.meta.media.0.codec.height">2160</property>
  <property name="kdenlive:original.meta.media.0.codec.rotate">0</property>
  <property name="kdenlive:original.meta.media.0.codec.pix_fmt">yuv420p</property>
  <property name="kdenlive:original.meta.media.0.codec.sample_aspect_ratio">0</property>
  <property name="kdenlive:original.meta.media.0.codec.colorspace">709</property>
  <property name="kdenlive:original.meta.media.0.codec.name">h264</property>
  <property name="kdenlive:original.meta.media.0.codec.long_name">H.264 / AVC / MPEG-4 AVC / MPEG-4 part 10</property>
  <property name="kdenlive:original.meta.media.0.codec.bit_rate">1745397</property>
  <property name="kdenlive:original.meta.attr.0.stream.handler_name.markup">VideoHandler</property>
  <property name="kdenlive:original.meta.attr.0.stream.vendor_id.markup">[0][0][0][0]</property>
  <property name="kdenlive:original.meta.attr.0.stream.encoder.markup">Lavc60.3.100 libx264</property>
  <property name="kdenlive:original.meta.attr.major_brand.markup">isom</property>
  <property name="kdenlive:original.meta.attr.minor_version.markup">512</property>
  <property name="kdenlive:original.meta.attr.compatible_brands.markup">isomiso2avc1mp41</property>
  <property name="kdenlive:original.meta.attr.encoder.markup">Lavf60.3.100</property>
  <property name="kdenlive:original.meta.attr.comment.markup">Rendered with Manim Community v0.17.2</property>
  <property name="kdenlive:original.seekable">1</property>
  <property name="kdenlive:original.width">3840</property>
  <property name="kdenlive:original.height">2160</property>
  <property name="kdenlive:original.meta.media.sample_aspect_num">1</property>
  <property name="kdenlive:original.meta.media.sample_aspect_den">1</property>
  <property name="kdenlive:original.aspect_ratio">1</property>
  <property name="kdenlive:original.format">3</property>
  <property name="kdenlive:original.audio_index">-1</property>
  <property name="kdenlive:original.video_index">0</property>
  <property name="kdenlive:original.mute_on_pause">0</property>
  <property name="kdenlive:original.mlt_service">avformat-novalidate</property>
  <property name="kdenlive:original.meta.media.frame_rate_num">60</property>
  <property name="kdenlive:original.meta.media.frame_rate_den">1</property>
  <property name="kdenlive:original.meta.media.colorspace">709</property>
  <property name="kdenlive:original.meta.media.color_trc">2</property>
  <property name="kdenlive:original.meta.media.has_b_frames">2</property>
  <property name="kdenlive:original.meta.media.width">3840</property>
  <property name="kdenlive:original.meta.media.height">2160</property>
  <property name="kdenlive:original.meta.media.color_range">mpeg</property>
  <property name="kdenlive:original.meta.media.top_field_first">0</property>
  <property name="kdenlive:original.meta.media.progressive">1</property>
  <property name="kdenlive:original.kdenlive:clip_type">2</property>
  <property name="kdenlive:original.kdenlive:folderid">528</property>
  <property name="kdenlive:original.kdenlive:id">549</property>
  <property name="kdenlive:original.kdenlive:file_size">329253</property>
  <property name="kdenlive:original.kdenlive:file_hash">5e27e1f4a04fc21f7fb9b4c60cf8a05b</property>
  <property name="kdenlive:original.backup">1</property>
  <property name="meta.media.frame_rate_num">60</property>
  <property name="meta.media.frame_rate_den">1</property>
  <property name="meta.media.colorspace">601</property>
  <property name="meta.media.color_trc">2</property>
  <property name="meta.media.has_b_frames">0</property>
  <property name="meta.media.width">640</property>
  <property name="meta.media.height">360</property>
  <property name="meta.media.color_range">full</property>
  <property name="meta.media.top_field_first">0</property>
  <property name="meta.media.progressive">1</property>
 </producer>
 <producer id="producer363" in="00:00:00.000" out="00:00:01.483">
  <property name="length">90</property>
  <property name="eof">pause</property>
  <property name="resource">/home/xiaoxiae/.cache/kdenlive/proxy/f78bcc685686b3c8d18dafca38789c18.mkv</property>
  <property name="meta.media.nb_streams">1</property>
  <property name="meta.media.0.stream.type">video</property>
  <property name="meta.media.0.stream.frame_rate">60</property>
  <property name="meta.media.0.stream.sample_aspect_ratio">0</property>
  <property name="meta.media.0.codec.width">640</property>
  <property name="meta.media.0.codec.height">360</property>
  <property name="meta.media.0.codec.rotate">0</property>
  <property name="meta.media.0.codec.pix_fmt">yuvj420p</property>
  <property name="meta.media.0.codec.sample_aspect_ratio">0</property>
  <property name="meta.media.0.codec.colorspace">601</property>
  <property name="meta.media.0.codec.name">mjpeg</property>
  <property name="meta.media.0.codec.long_name">MJPEG (Motion JPEG)</property>
  <property name="meta.media.0.codec.bit_rate">0</property>
  <property name="meta.attr.0.stream.HANDLER_NAME.markup">VideoHandler</property>
  <property name="meta.attr.0.stream.VENDOR_ID.markup">[0][0][0][0]</property>
  <property name="meta.attr.0.stream.ENCODER.markup">Lavc60.3.100 mjpeg</property>
  <property name="meta.attr.0.stream.DURATION.markup">00:00:01.500000000</property>
  <property name="meta.attr.COMMENT.markup">Rendered with Manim Community v0.17.2</property>
  <property name="meta.attr.MAJOR_BRAND.markup">isom</property>
  <property name="meta.attr.MINOR_VERSION.markup">512</property>
  <property name="meta.attr.COMPATIBLE_BRANDS.markup">isomiso2avc1mp41</property>
  <property name="meta.attr.ENCODER.markup">Lavf60.3.100</property>
  <property name="seekable">1</property>
  <property name="meta.media.sample_aspect_num">1</property>
  <property name="meta.media.sample_aspect_den">1</property>
  <property name="aspect_ratio">1</property>
  <property name="format">3</property>
  <property name="audio_index">-1</property>
  <property name="video_index">0</property>
  <property name="mute_on_pause">0</property>
  <property name="mlt_service">avformat-novalidate</property>
  <property name="kdenlive:clipname">29.mp4</property>
  <property name="kdenlive:clip_type">2</property>
  <property name="kdenlive:folderid">528</property>
  <property name="kdenlive:id">440</property>
  <property name="kdenlive:file_size">317638</property>
  <property name="kdenlive:file_hash">f78bcc685686b3c8d18dafca38789c18</property>
  <property name="kdenlive:proxy">/home/xiaoxiae/.cache/kdenlive/proxy/f78bcc685686b3c8d18dafca38789c18.mkv</property>
  <property name="kdenlive:originalurl">video/Intro/29.mp4</property>
  <property name="kdenlive:original.mlt_type">producer</property>
  <property name="kdenlive:original.in">00:00:00.000</property>
  <property name="kdenlive:original.out">00:00:01.483</property>
  <property name="kdenlive:original.length">90</property>
  <property name="kdenlive:original.eof">pause</property>
  <property name="kdenlive:original.resource">video/Intro/29.mp4</property>
  <property name="kdenlive:original.meta.media.nb_streams">1</property>
  <property name="kdenlive:original.meta.media.0.stream.type">video</property>
  <property name="kdenlive:original.meta.media.0.stream.frame_rate">60</property>
  <property name="kdenlive:original.meta.media.0.stream.sample_aspect_ratio">0</property>
  <property name="kdenlive:original.meta.media.0.codec.width">3840</property>
  <property name="kdenlive:original.meta.media.0.codec.height">2160</property>
  <property name="kdenlive:original.meta.media.0.codec.rotate">0</property>
  <property name="kdenlive:original.meta.media.0.codec.pix_fmt">yuv420p</property>
  <property name="kdenlive:original.meta.media.0.codec.sample_aspect_ratio">0</property>
  <property name="kdenlive:original.meta.media.0.codec.colorspace">709</property>
  <property name="kdenlive:original.meta.media.0.codec.name">h264</property>
  <property name="kdenlive:original.meta.media.0.codec.long_name">H.264 / AVC / MPEG-4 AVC / MPEG-4 part 10</property>
  <property name="kdenlive:original.meta.media.0.codec.bit_rate">1683493</property>
  <property name="kdenlive:original.meta.attr.0.stream.handler_name.markup">VideoHandler</property>
  <property name="kdenlive:original.meta.attr.0.stream.vendor_id.markup">[0][0][0][0]</property>
  <property name="kdenlive:original.meta.attr.0.stream.encoder.markup">Lavc60.3.100 libx264</property>
  <property name="kdenlive:original.meta.attr.major_brand.markup">isom</property>
  <property name="kdenlive:original.meta.attr.minor_version.markup">512</property>
  <property name="kdenlive:original.meta.attr.compatible_brands.markup">isomiso2avc1mp41</property>
  <property name="kdenlive:original.meta.attr.encoder.markup">Lavf60.3.100</property>
  <property name="kdenlive:original.meta.attr.comment.markup">Rendered with Manim Community v0.17.2</property>
  <property name="kdenlive:original.seekable">1</property>
  <property name="kdenlive:original.width">3840</property>
  <property name="kdenlive:original.height">2160</property>
  <property name="kdenlive:original.meta.media.sample_aspect_num">1</property>
  <property name="kdenlive:original.meta.media.sample_aspect_den">1</property>
  <property name="kdenlive:original.aspect_ratio">1</property>
  <property name="kdenlive:original.format">3</property>
  <property name="kdenlive:original.audio_index">-1</property>
  <property name="kdenlive:original.video_index">0</property>
  <property name="kdenlive:original.mute_on_pause">0</property>
  <property name="kdenlive:original.mlt_service">avformat-novalidate</property>
  <property name="kdenlive:original.meta.media.frame_rate_num">60</property>
  <property name="kdenlive:original.meta.media.frame_rate_den">1</property>
  <property name="kdenlive:original.meta.media.colorspace">709</property>
  <property name="kdenlive:original.meta.media.color_trc">2</property>
  <property name="kdenlive:original.meta.media.has_b_frames">2</property>
  <property name="kdenlive:original.meta.media.width">3840</property>
  <property name="kdenlive:original.meta.media.height">2160</property>
  <property name="kdenlive:original.meta.media.color_range">mpeg</property>
  <property name="kdenlive:original.meta.media.top_field_first">0</property>
  <property name="kdenlive:original.meta.media.progressive">1</property>
  <property name="kdenlive:original.kdenlive:clip_type">2</property>
  <property name="kdenlive:original.kdenlive:folderid">528</property>
  <property name="kdenlive:original.kdenlive:id">550</property>
  <property name="kdenlive:original.kdenlive:file_size">317638</property>
  <property name="kdenlive:original.kdenlive:file_hash">f78bcc685686b3c8d18dafca38789c18</property>
  <property name="kdenlive:original.backup">1</property>
  <property name="meta.media.frame_rate_num">60</property>
  <property name="meta.media.frame_rate_den">1</property>
  <property name="meta.media.colorspace">601</property>
  <property name="meta.media.color_trc">2</property>
  <property name="meta.media.has_b_frames">0</property>
  <property name="meta.media.width">640</property>
  <property name="meta.media.height">360</property>
  <property name="meta.media.color_range">full</property>
  <property name="meta.media.top_field_first">0</property>
  <property name="meta.media.progressive">1</property>
 </producer>
 <producer id="producer362" in="00:00:00.000" out="00:00:01.083">
  <property name="length">66</property>
  <property name="eof">pause</property>
  <property name="resource">/home/xiaoxiae/.cache/kdenlive/proxy/acd78e5cec8f665a9526095b78682145.mkv</property>
  <property name="meta.media.nb_streams">1</property>
  <property name="meta.media.0.stream.type">video</property>
  <property name="meta.media.0.stream.frame_rate">60</property>
  <property name="meta.media.0.stream.sample_aspect_ratio">0</property>
  <property name="meta.media.0.codec.width">640</property>
  <property name="meta.media.0.codec.height">360</property>
  <property name="meta.media.0.codec.rotate">0</property>
  <property name="meta.media.0.codec.pix_fmt">yuvj420p</property>
  <property name="meta.media.0.codec.sample_aspect_ratio">0</property>
  <property name="meta.media.0.codec.colorspace">601</property>
  <property name="meta.media.0.codec.name">mjpeg</property>
  <property name="meta.media.0.codec.long_name">MJPEG (Motion JPEG)</property>
  <property name="meta.media.0.codec.bit_rate">0</property>
  <property name="meta.attr.0.stream.HANDLER_NAME.markup">VideoHandler</property>
  <property name="meta.attr.0.stream.VENDOR_ID.markup">[0][0][0][0]</property>
  <property name="meta.attr.0.stream.ENCODER.markup">Lavc60.3.100 mjpeg</property>
  <property name="meta.attr.0.stream.DURATION.markup">00:00:01.100000000</property>
  <property name="meta.attr.COMMENT.markup">Rendered with Manim Community v0.17.2</property>
  <property name="meta.attr.MAJOR_BRAND.markup">isom</property>
  <property name="meta.attr.MINOR_VERSION.markup">512</property>
  <property name="meta.attr.COMPATIBLE_BRANDS.markup">isomiso2avc1mp41</property>
  <property name="meta.attr.ENCODER.markup">Lavf60.3.100</property>
  <property name="seekable">1</property>
  <property name="meta.media.sample_aspect_num">1</property>
  <property name="meta.media.sample_aspect_den">1</property>
  <property name="aspect_ratio">1</property>
  <property name="format">3</property>
  <property name="audio_index">-1</property>
  <property name="video_index">0</property>
  <property name="mute_on_pause">0</property>
  <property name="mlt_service">avformat-novalidate</property>
  <property name="kdenlive:clipname">3.mp4</property>
  <property name="kdenlive:clip_type">2</property>
  <property name="kdenlive:folderid">528</property>
  <property name="kdenlive:id">441</property>
  <property name="kdenlive:file_size">142029</property>
  <property name="kdenlive:file_hash">acd78e5cec8f665a9526095b78682145</property>
  <property name="kdenlive:proxy">/home/xiaoxiae/.cache/kdenlive/proxy/acd78e5cec8f665a9526095b78682145.mkv</property>
  <property name="kdenlive:originalurl">video/Intro/3.mp4</property>
  <property name="kdenlive:original.mlt_type">producer</property>
  <property name="kdenlive:original.in">00:00:00.000</property>
  <property name="kdenlive:original.out">00:00:01.083</property>
  <property name="kdenlive:original.length">66</property>
  <property name="kdenlive:original.eof">pause</property>
  <property name="kdenlive:original.resource">video/Intro/3.mp4</property>
  <property name="kdenlive:original.meta.media.nb_streams">1</property>
  <property name="kdenlive:original.meta.media.0.stream.type">video</property>
  <property name="kdenlive:original.meta.media.0.stream.frame_rate">60</property>
  <property name="kdenlive:original.meta.media.0.stream.sample_aspect_ratio">0</property>
  <property name="kdenlive:original.meta.media.0.codec.width">3840</property>
  <property name="kdenlive:original.meta.media.0.codec.height">2160</property>
  <property name="kdenlive:original.meta.media.0.codec.rotate">0</property>
  <property name="kdenlive:original.meta.media.0.codec.pix_fmt">yuv420p</property>
  <property name="kdenlive:original.meta.media.0.codec.sample_aspect_ratio">0</property>
  <property name="kdenlive:original.meta.media.0.codec.colorspace">709</property>
  <property name="kdenlive:original.meta.media.0.codec.name">h264</property>
  <property name="kdenlive:original.meta.media.0.codec.long_name">H.264 / AVC / MPEG-4 AVC / MPEG-4 part 10</property>
  <property name="kdenlive:original.meta.media.0.codec.bit_rate">1020494</property>
  <property name="kdenlive:original.meta.attr.0.stream.handler_name.markup">VideoHandler</property>
  <property name="kdenlive:original.meta.attr.0.stream.vendor_id.markup">[0][0][0][0]</property>
  <property name="kdenlive:original.meta.attr.0.stream.encoder.markup">Lavc60.3.100 libx264</property>
  <property name="kdenlive:original.meta.attr.major_brand.markup">isom</property>
  <property name="kdenlive:original.meta.attr.minor_version.markup">512</property>
  <property name="kdenlive:original.meta.attr.compatible_brands.markup">isomiso2avc1mp41</property>
  <property name="kdenlive:original.meta.attr.encoder.markup">Lavf60.3.100</property>
  <property name="kdenlive:original.meta.attr.comment.markup">Rendered with Manim Community v0.17.2</property>
  <property name="kdenlive:original.seekable">1</property>
  <property name="kdenlive:original.width">3840</property>
  <property name="kdenlive:original.height">2160</property>
  <property name="kdenlive:original.meta.media.sample_aspect_num">1</property>
  <property name="kdenlive:original.meta.media.sample_aspect_den">1</property>
  <property name="kdenlive:original.aspect_ratio">1</property>
  <property name="kdenlive:original.format">3</property>
  <property name="kdenlive:original.audio_index">-1</property>
  <property name="kdenlive:original.video_index">0</property>
  <property name="kdenlive:original.mute_on_pause">0</property>
  <property name="kdenlive:original.mlt_service">avformat-novalidate</property>
  <property name="kdenlive:original.meta.media.frame_rate_num">60</property>
  <property name="kdenlive:original.meta.media.frame_rate_den">1</property>
  <property name="kdenlive:original.meta.media.colorspace">709</property>
  <property name="kdenlive:original.meta.media.color_trc">2</property>
  <property name="kdenlive:original.meta.media.has_b_frames">2</property>
  <property name="kdenlive:original.meta.media.width">3840</property>
  <property name="kdenlive:original.meta.media.height">2160</property>
  <property name="kdenlive:original.meta.media.color_range">mpeg</property>
  <property name="kdenlive:original.meta.media.top_field_first">0</property>
  <property name="kdenlive:original.meta.media.progressive">1</property>
  <property name="kdenlive:original.kdenlive:clip_type">2</property>
  <property name="kdenlive:original.kdenlive:folderid">528</property>
  <property name="kdenlive:original.kdenlive:id">551</property>
  <property name="kdenlive:original.kdenlive:file_size">142029</property>
  <property name="kdenlive:original.kdenlive:file_hash">acd78e5cec8f665a9526095b78682145</property>
  <property name="kdenlive:original.backup">1</property>
  <property name="meta.media.frame_rate_num">60</property>
  <property name="meta.media.frame_rate_den">1</property>
  <property name="meta.media.colorspace">601</property>
  <property name="meta.media.color_trc">2</property>
  <property name="meta.media.has_b_frames">0</property>
  <property name="meta.media.width">640</property>
  <property name="meta.media.height">360</property>
  <property name="meta.media.color_range">full</property>
  <property name="meta.media.top_field_first">0</property>
  <property name="meta.media.progressive">1</property>
 </producer>
 <producer id="producer364" in="00:00:00.000" out="00:00:01.483">
  <property name="length">90</property>
  <property name="eof">pause</property>
  <property name="resource">/home/xiaoxiae/.cache/kdenlive/proxy/0a82a303cc3420bb618819e27f396276.mkv</property>
  <property name="meta.media.nb_streams">1</property>
  <property name="meta.media.0.stream.type">video</property>
  <property name="meta.media.0.stream.frame_rate">60</property>
  <property name="meta.media.0.stream.sample_aspect_ratio">0</property>
  <property name="meta.media.0.codec.width">640</property>
  <property name="meta.media.0.codec.height">360</property>
  <property name="meta.media.0.codec.rotate">0</property>
  <property name="meta.media.0.codec.pix_fmt">yuvj420p</property>
  <property name="meta.media.0.codec.sample_aspect_ratio">0</property>
  <property name="meta.media.0.codec.colorspace">601</property>
  <property name="meta.media.0.codec.name">mjpeg</property>
  <property name="meta.media.0.codec.long_name">MJPEG (Motion JPEG)</property>
  <property name="meta.media.0.codec.bit_rate">0</property>
  <property name="meta.attr.0.stream.HANDLER_NAME.markup">VideoHandler</property>
  <property name="meta.attr.0.stream.VENDOR_ID.markup">[0][0][0][0]</property>
  <property name="meta.attr.0.stream.ENCODER.markup">Lavc60.3.100 mjpeg</property>
  <property name="meta.attr.0.stream.DURATION.markup">00:00:01.500000000</property>
  <property name="meta.attr.COMMENT.markup">Rendered with Manim Community v0.17.2</property>
  <property name="meta.attr.MAJOR_BRAND.markup">isom</property>
  <property name="meta.attr.MINOR_VERSION.markup">512</property>
  <property name="meta.attr.COMPATIBLE_BRANDS.markup">isomiso2avc1mp41</property>
  <property name="meta.attr.ENCODER.markup">Lavf60.3.100</property>
  <property name="seekable">1</property>
  <property name="meta.media.sample_aspect_num">1</property>
  <property name="meta.media.sample_aspect_den">1</property>
  <property name="aspect_ratio">1</property>
  <property name="format">3</property>
  <property name="audio_index">-1</property>
  <property name="video_index">0</property>
  <property name="mute_on_pause">0</property>
  <property name="mlt_service">avformat-novalidate</property>
  <property name="kdenlive:clipname">30.mp4</property>
  <property name="kdenlive:clip_type">2</property>
  <property name="kdenlive:folderid">528</property>
  <property name="kdenlive:id">442</property>
  <property name="kdenlive:file_size">285397</property>
  <property name="kdenlive:file_hash">0a82a303cc3420bb618819e27f396276</property>
  <property name="kdenlive:proxy">/home/xiaoxiae/.cache/kdenlive/proxy/0a82a303cc3420bb618819e27f396276.mkv</property>
  <property name="kdenlive:originalurl">video/Intro/30.mp4</property>
  <property name="kdenlive:original.mlt_type">producer</property>
  <property name="kdenlive:original.in">00:00:00.000</property>
  <property name="kdenlive:original.out">00:00:01.483</property>
  <property name="kdenlive:original.length">90</property>
  <property name="kdenlive:original.eof">pause</property>
  <property name="kdenlive:original.resource">video/Intro/30.mp4</property>
  <property name="kdenlive:original.meta.media.nb_streams">1</property>
  <property name="kdenlive:original.meta.media.0.stream.type">video</property>
  <property name="kdenlive:original.meta.media.0.stream.frame_rate">60</property>
  <property name="kdenlive:original.meta.media.0.stream.sample_aspect_ratio">0</property>
  <property name="kdenlive:original.meta.media.0.codec.width">3840</property>
  <property name="kdenlive:original.meta.media.0.codec.height">2160</property>
  <property name="kdenlive:original.meta.media.0.codec.rotate">0</property>
  <property name="kdenlive:original.meta.media.0.codec.pix_fmt">yuv420p</property>
  <property name="kdenlive:original.meta.media.0.codec.sample_aspect_ratio">0</property>
  <property name="kdenlive:original.meta.media.0.codec.colorspace">709</property>
  <property name="kdenlive:original.meta.media.0.codec.name">h264</property>
  <property name="kdenlive:original.meta.media.0.codec.long_name">H.264 / AVC / MPEG-4 AVC / MPEG-4 part 10</property>
  <property name="kdenlive:original.meta.media.0.codec.bit_rate">1511456</property>
  <property name="kdenlive:original.meta.attr.0.stream.handler_name.markup">VideoHandler</property>
  <property name="kdenlive:original.meta.attr.0.stream.vendor_id.markup">[0][0][0][0]</property>
  <property name="kdenlive:original.meta.attr.0.stream.encoder.markup">Lavc60.3.100 libx264</property>
  <property name="kdenlive:original.meta.attr.major_brand.markup">isom</property>
  <property name="kdenlive:original.meta.attr.minor_version.markup">512</property>
  <property name="kdenlive:original.meta.attr.compatible_brands.markup">isomiso2avc1mp41</property>
  <property name="kdenlive:original.meta.attr.encoder.markup">Lavf60.3.100</property>
  <property name="kdenlive:original.meta.attr.comment.markup">Rendered with Manim Community v0.17.2</property>
  <property name="kdenlive:original.seekable">1</property>
  <property name="kdenlive:original.width">3840</property>
  <property name="kdenlive:original.height">2160</property>
  <property name="kdenlive:original.meta.media.sample_aspect_num">1</property>
  <property name="kdenlive:original.meta.media.sample_aspect_den">1</property>
  <property name="kdenlive:original.aspect_ratio">1</property>
  <property name="kdenlive:original.format">3</property>
  <property name="kdenlive:original.audio_index">-1</property>
  <property name="kdenlive:original.video_index">0</property>
  <property name="kdenlive:original.mute_on_pause">0</property>
  <property name="kdenlive:original.mlt_service">avformat-novalidate</property>
  <property name="kdenlive:original.meta.media.frame_rate_num">60</property>
  <property name="kdenlive:original.meta.media.frame_rate_den">1</property>
  <property name="kdenlive:original.meta.media.colorspace">709</property>
  <property name="kdenlive:original.meta.media.color_trc">2</property>
  <property name="kdenlive:original.meta.media.has_b_frames">2</property>
  <property name="kdenlive:original.meta.media.width">3840</property>
  <property name="kdenlive:original.meta.media.height">2160</property>
  <property name="kdenlive:original.meta.media.color_range">mpeg</property>
  <property name="kdenlive:original.meta.media.top_field_first">0</property>
  <property name="kdenlive:original.meta.media.progressive">1</property>
  <property name="kdenlive:original.kdenlive:clip_type">2</property>
  <property name="kdenlive:original.kdenlive:folderid">528</property>
  <property name="kdenlive:original.kdenlive:id">552</property>
  <property name="kdenlive:original.kdenlive:file_size">285397</property>
  <property name="kdenlive:original.kdenlive:file_hash">0a82a303cc3420bb618819e27f396276</property>
  <property name="kdenlive:original.backup">1</property>
  <property name="meta.media.frame_rate_num">60</property>
  <property name="meta.media.frame_rate_den">1</property>
  <property name="meta.media.colorspace">601</property>
  <property name="meta.media.color_trc">2</property>
  <property name="meta.media.has_b_frames">0</property>
  <property name="meta.media.width">640</property>
  <property name="meta.media.height">360</property>
  <property name="meta.media.color_range">full</property>
  <property name="meta.media.top_field_first">0</property>
  <property name="meta.media.progressive">1</property>
 </producer>
 <producer id="producer365" in="00:00:00.000" out="00:00:00.983">
  <property name="length">60</property>
  <property name="eof">pause</property>
  <property name="resource">/home/xiaoxiae/.cache/kdenlive/proxy/b9c75d656db4521720391bac61cad2f9.mkv</property>
  <property name="meta.media.nb_streams">1</property>
  <property name="meta.media.0.stream.type">video</property>
  <property name="meta.media.0.stream.frame_rate">60</property>
  <property name="meta.media.0.stream.sample_aspect_ratio">0</property>
  <property name="meta.media.0.codec.width">640</property>
  <property name="meta.media.0.codec.height">360</property>
  <property name="meta.media.0.codec.rotate">0</property>
  <property name="meta.media.0.codec.pix_fmt">yuvj420p</property>
  <property name="meta.media.0.codec.sample_aspect_ratio">0</property>
  <property name="meta.media.0.codec.colorspace">601</property>
  <property name="meta.media.0.codec.name">mjpeg</property>
  <property name="meta.media.0.codec.long_name">MJPEG (Motion JPEG)</property>
  <property name="meta.media.0.codec.bit_rate">0</property>
  <property name="meta.attr.0.stream.HANDLER_NAME.markup">VideoHandler</property>
  <property name="meta.attr.0.stream.VENDOR_ID.markup">[0][0][0][0]</property>
  <property name="meta.attr.0.stream.ENCODER.markup">Lavc60.3.100 mjpeg</property>
  <property name="meta.attr.0.stream.DURATION.markup">00:00:01.000000000</property>
  <property name="meta.attr.COMMENT.markup">Rendered with Manim Community v0.17.2</property>
  <property name="meta.attr.MAJOR_BRAND.markup">isom</property>
  <property name="meta.attr.MINOR_VERSION.markup">512</property>
  <property name="meta.attr.COMPATIBLE_BRANDS.markup">isomiso2avc1mp41</property>
  <property name="meta.attr.ENCODER.markup">Lavf60.3.100</property>
  <property name="seekable">1</property>
  <property name="meta.media.sample_aspect_num">1</property>
  <property name="meta.media.sample_aspect_den">1</property>
  <property name="aspect_ratio">1</property>
  <property name="format">3</property>
  <property name="audio_index">-1</property>
  <property name="video_index">0</property>
  <property name="mute_on_pause">0</property>
  <property name="mlt_service">avformat-novalidate</property>
  <property name="kdenlive:clipname">31.mp4</property>
  <property name="kdenlive:clip_type">2</property>
  <property name="kdenlive:folderid">528</property>
  <property name="kdenlive:id">443</property>
  <property name="kdenlive:file_size">109182</property>
  <property name="kdenlive:file_hash">b9c75d656db4521720391bac61cad2f9</property>
  <property name="kdenlive:proxy">/home/xiaoxiae/.cache/kdenlive/proxy/b9c75d656db4521720391bac61cad2f9.mkv</property>
  <property name="kdenlive:originalurl">video/Intro/31.mp4</property>
  <property name="kdenlive:original.mlt_type">producer</property>
  <property name="kdenlive:original.in">00:00:00.000</property>
  <property name="kdenlive:original.out">00:00:00.983</property>
  <property name="kdenlive:original.length">60</property>
  <property name="kdenlive:original.eof">pause</property>
  <property name="kdenlive:original.resource">video/Intro/31.mp4</property>
  <property name="kdenlive:original.meta.media.nb_streams">1</property>
  <property name="kdenlive:original.meta.media.0.stream.type">video</property>
  <property name="kdenlive:original.meta.media.0.stream.frame_rate">60</property>
  <property name="kdenlive:original.meta.media.0.stream.sample_aspect_ratio">0</property>
  <property name="kdenlive:original.meta.media.0.codec.width">3840</property>
  <property name="kdenlive:original.meta.media.0.codec.height">2160</property>
  <property name="kdenlive:original.meta.media.0.codec.rotate">0</property>
  <property name="kdenlive:original.meta.media.0.codec.pix_fmt">yuv420p</property>
  <property name="kdenlive:original.meta.media.0.codec.sample_aspect_ratio">0</property>
  <property name="kdenlive:original.meta.media.0.codec.colorspace">709</property>
  <property name="kdenlive:original.meta.media.0.codec.name">h264</property>
  <property name="kdenlive:original.meta.media.0.codec.long_name">H.264 / AVC / MPEG-4 AVC / MPEG-4 part 10</property>
  <property name="kdenlive:original.meta.media.0.codec.bit_rate">860600</property>
  <property name="kdenlive:original.meta.attr.0.stream.handler_name.markup">VideoHandler</property>
  <property name="kdenlive:original.meta.attr.0.stream.vendor_id.markup">[0][0][0][0]</property>
  <property name="kdenlive:original.meta.attr.0.stream.encoder.markup">Lavc60.3.100 libx264</property>
  <property name="kdenlive:original.meta.attr.major_brand.markup">isom</property>
  <property name="kdenlive:original.meta.attr.minor_version.markup">512</property>
  <property name="kdenlive:original.meta.attr.compatible_brands.markup">isomiso2avc1mp41</property>
  <property name="kdenlive:original.meta.attr.encoder.markup">Lavf60.3.100</property>
  <property name="kdenlive:original.meta.attr.comment.markup">Rendered with Manim Community v0.17.2</property>
  <property name="kdenlive:original.seekable">1</property>
  <property name="kdenlive:original.width">3840</property>
  <property name="kdenlive:original.height">2160</property>
  <property name="kdenlive:original.meta.media.sample_aspect_num">1</property>
  <property name="kdenlive:original.meta.media.sample_aspect_den">1</property>
  <property name="kdenlive:original.aspect_ratio">1</property>
  <property name="kdenlive:original.format">3</property>
  <property name="kdenlive:original.audio_index">-1</property>
  <property name="kdenlive:original.video_index">0</property>
  <property name="kdenlive:original.mute_on_pause">0</property>
  <property name="kdenlive:original.mlt_service">avformat-novalidate</property>
  <property name="kdenlive:original.meta.media.frame_rate_num">60</property>
  <property name="kdenlive:original.meta.media.frame_rate_den">1</property>
  <property name="kdenlive:original.meta.media.colorspace">709</property>
  <property name="kdenlive:original.meta.media.color_trc">2</property>
  <property name="kdenlive:original.meta.media.has_b_frames">2</property>
  <property name="kdenlive:original.meta.media.width">3840</property>
  <property name="kdenlive:original.meta.media.height">2160</property>
  <property name="kdenlive:original.meta.media.color_range">mpeg</property>
  <property name="kdenlive:original.meta.media.top_field_first">0</property>
  <property name="kdenlive:original.meta.media.progressive">1</property>
  <property name="kdenlive:original.kdenlive:clip_type">2</property>
  <property name="kdenlive:original.kdenlive:folderid">528</property>
  <property name="kdenlive:original.kdenlive:id">553</property>
  <property name="kdenlive:original.kdenlive:file_size">109182</property>
  <property name="kdenlive:original.kdenlive:file_hash">b9c75d656db4521720391bac61cad2f9</property>
  <property name="kdenlive:original.backup">1</property>
  <property name="meta.media.frame_rate_num">60</property>
  <property name="meta.media.frame_rate_den">1</property>
  <property name="meta.media.colorspace">601</property>
  <property name="meta.media.color_trc">2</property>
  <property name="meta.media.has_b_frames">0</property>
  <property name="meta.media.width">640</property>
  <property name="meta.media.height">360</property>
  <property name="meta.media.color_range">full</property>
  <property name="meta.media.top_field_first">0</property>
  <property name="meta.media.progressive">1</property>
 </producer>
 <producer id="producer366" in="00:00:00.000" out="00:00:00.983">
  <property name="length">60</property>
  <property name="eof">pause</property>
  <property name="resource">/home/xiaoxiae/.cache/kdenlive/proxy/f8e0a1c93d6890394dcfed1e1cdbd0bc.mkv</property>
  <property name="meta.media.nb_streams">1</property>
  <property name="meta.media.0.stream.type">video</property>
  <property name="meta.media.0.stream.frame_rate">60</property>
  <property name="meta.media.0.stream.sample_aspect_ratio">0</property>
  <property name="meta.media.0.codec.width">640</property>
  <property name="meta.media.0.codec.height">360</property>
  <property name="meta.media.0.codec.rotate">0</property>
  <property name="meta.media.0.codec.pix_fmt">yuvj420p</property>
  <property name="meta.media.0.codec.sample_aspect_ratio">0</property>
  <property name="meta.media.0.codec.colorspace">601</property>
  <property name="meta.media.0.codec.name">mjpeg</property>
  <property name="meta.media.0.codec.long_name">MJPEG (Motion JPEG)</property>
  <property name="meta.media.0.codec.bit_rate">0</property>
  <property name="meta.attr.0.stream.HANDLER_NAME.markup">VideoHandler</property>
  <property name="meta.attr.0.stream.VENDOR_ID.markup">[0][0][0][0]</property>
  <property name="meta.attr.0.stream.ENCODER.markup">Lavc60.3.100 mjpeg</property>
  <property name="meta.attr.0.stream.DURATION.markup">00:00:01.000000000</property>
  <property name="meta.attr.COMMENT.markup">Rendered with Manim Community v0.17.2</property>
  <property name="meta.attr.MAJOR_BRAND.markup">isom</property>
  <property name="meta.attr.MINOR_VERSION.markup">512</property>
  <property name="meta.attr.COMPATIBLE_BRANDS.markup">isomiso2avc1mp41</property>
  <property name="meta.attr.ENCODER.markup">Lavf60.3.100</property>
  <property name="seekable">1</property>
  <property name="meta.media.sample_aspect_num">1</property>
  <property name="meta.media.sample_aspect_den">1</property>
  <property name="aspect_ratio">1</property>
  <property name="format">3</property>
  <property name="audio_index">-1</property>
  <property name="video_index">0</property>
  <property name="mute_on_pause">0</property>
  <property name="mlt_service">avformat-novalidate</property>
  <property name="kdenlive:clipname">32.mp4</property>
  <property name="kdenlive:clip_type">2</property>
  <property name="kdenlive:folderid">528</property>
  <property name="kdenlive:id">444</property>
  <property name="kdenlive:file_size">126199</property>
  <property name="kdenlive:file_hash">f8e0a1c93d6890394dcfed1e1cdbd0bc</property>
  <property name="kdenlive:proxy">/home/xiaoxiae/.cache/kdenlive/proxy/f8e0a1c93d6890394dcfed1e1cdbd0bc.mkv</property>
  <property name="kdenlive:originalurl">video/Intro/32.mp4</property>
  <property name="kdenlive:original.mlt_type">producer</property>
  <property name="kdenlive:original.in">00:00:00.000</property>
  <property name="kdenlive:original.out">00:00:00.983</property>
  <property name="kdenlive:original.length">60</property>
  <property name="kdenlive:original.eof">pause</property>
  <property name="kdenlive:original.resource">video/Intro/32.mp4</property>
  <property name="kdenlive:original.meta.media.nb_streams">1</property>
  <property name="kdenlive:original.meta.media.0.stream.type">video</property>
  <property name="kdenlive:original.meta.media.0.stream.frame_rate">60</property>
  <property name="kdenlive:original.meta.media.0.stream.sample_aspect_ratio">0</property>
  <property name="kdenlive:original.meta.media.0.codec.width">3840</property>
  <property name="kdenlive:original.meta.media.0.codec.height">2160</property>
  <property name="kdenlive:original.meta.media.0.codec.rotate">0</property>
  <property name="kdenlive:original.meta.media.0.codec.pix_fmt">yuv420p</property>
  <property name="kdenlive:original.meta.media.0.codec.sample_aspect_ratio">0</property>
  <property name="kdenlive:original.meta.media.0.codec.colorspace">709</property>
  <property name="kdenlive:original.meta.media.0.codec.name">h264</property>
  <property name="kdenlive:original.meta.media.0.codec.long_name">H.264 / AVC / MPEG-4 AVC / MPEG-4 part 10</property>
  <property name="kdenlive:original.meta.media.0.codec.bit_rate">996672</property>
  <property name="kdenlive:original.meta.attr.0.stream.handler_name.markup">VideoHandler</property>
  <property name="kdenlive:original.meta.attr.0.stream.vendor_id.markup">[0][0][0][0]</property>
  <property name="kdenlive:original.meta.attr.0.stream.encoder.markup">Lavc60.3.100 libx264</property>
  <property name="kdenlive:original.meta.attr.major_brand.markup">isom</property>
  <property name="kdenlive:original.meta.attr.minor_version.markup">512</property>
  <property name="kdenlive:original.meta.attr.compatible_brands.markup">isomiso2avc1mp41</property>
  <property name="kdenlive:original.meta.attr.encoder.markup">Lavf60.3.100</property>
  <property name="kdenlive:original.meta.attr.comment.markup">Rendered with Manim Community v0.17.2</property>
  <property name="kdenlive:original.seekable">1</property>
  <property name="kdenlive:original.width">3840</property>
  <property name="kdenlive:original.height">2160</property>
  <property name="kdenlive:original.meta.media.sample_aspect_num">1</property>
  <property name="kdenlive:original.meta.media.sample_aspect_den">1</property>
  <property name="kdenlive:original.aspect_ratio">1</property>
  <property name="kdenlive:original.format">3</property>
  <property name="kdenlive:original.audio_index">-1</property>
  <property name="kdenlive:original.video_index">0</property>
  <property name="kdenlive:original.mute_on_pause">0</property>
  <property name="kdenlive:original.mlt_service">avformat-novalidate</property>
  <property name="kdenlive:original.meta.media.frame_rate_num">60</property>
  <property name="kdenlive:original.meta.media.frame_rate_den">1</property>
  <property name="kdenlive:original.meta.media.colorspace">709</property>
  <property name="kdenlive:original.meta.media.color_trc">2</property>
  <property name="kdenlive:original.meta.media.has_b_frames">2</property>
  <property name="kdenlive:original.meta.media.width">3840</property>
  <property name="kdenlive:original.meta.media.height">2160</property>
  <property name="kdenlive:original.meta.media.color_range">mpeg</property>
  <property name="kdenlive:original.meta.media.top_field_first">0</property>
  <property name="kdenlive:original.meta.media.progressive">1</property>
  <property name="kdenlive:original.kdenlive:clip_type">2</property>
  <property name="kdenlive:original.kdenlive:folderid">528</property>
  <property name="kdenlive:original.kdenlive:id">554</property>
  <property name="kdenlive:original.kdenlive:file_size">126199</property>
  <property name="kdenlive:original.kdenlive:file_hash">f8e0a1c93d6890394dcfed1e1cdbd0bc</property>
  <property name="kdenlive:original.backup">1</property>
  <property name="meta.media.frame_rate_num">60</property>
  <property name="meta.media.frame_rate_den">1</property>
  <property name="meta.media.colorspace">601</property>
  <property name="meta.media.color_trc">2</property>
  <property name="meta.media.has_b_frames">0</property>
  <property name="meta.media.width">640</property>
  <property name="meta.media.height">360</property>
  <property name="meta.media.color_range">full</property>
  <property name="meta.media.top_field_first">0</property>
  <property name="meta.media.progressive">1</property>
 </producer>
 <producer id="producer367" in="00:00:00.000" out="00:00:01.483">
  <property name="length">90</property>
  <property name="eof">pause</property>
  <property name="resource">/home/xiaoxiae/.cache/kdenlive/proxy/da0d574f17afc3da9b1376b385845c6a.mkv</property>
  <property name="meta.media.nb_streams">1</property>
  <property name="meta.media.0.stream.type">video</property>
  <property name="meta.media.0.stream.frame_rate">60</property>
  <property name="meta.media.0.stream.sample_aspect_ratio">0</property>
  <property name="meta.media.0.codec.width">640</property>
  <property name="meta.media.0.codec.height">360</property>
  <property name="meta.media.0.codec.rotate">0</property>
  <property name="meta.media.0.codec.pix_fmt">yuvj420p</property>
  <property name="meta.media.0.codec.sample_aspect_ratio">0</property>
  <property name="meta.media.0.codec.colorspace">601</property>
  <property name="meta.media.0.codec.name">mjpeg</property>
  <property name="meta.media.0.codec.long_name">MJPEG (Motion JPEG)</property>
  <property name="meta.media.0.codec.bit_rate">0</property>
  <property name="meta.attr.0.stream.HANDLER_NAME.markup">VideoHandler</property>
  <property name="meta.attr.0.stream.VENDOR_ID.markup">[0][0][0][0]</property>
  <property name="meta.attr.0.stream.ENCODER.markup">Lavc60.3.100 mjpeg</property>
  <property name="meta.attr.0.stream.DURATION.markup">00:00:01.500000000</property>
  <property name="meta.attr.COMMENT.markup">Rendered with Manim Community v0.17.2</property>
  <property name="meta.attr.MAJOR_BRAND.markup">isom</property>
  <property name="meta.attr.MINOR_VERSION.markup">512</property>
  <property name="meta.attr.COMPATIBLE_BRANDS.markup">isomiso2avc1mp41</property>
  <property name="meta.attr.ENCODER.markup">Lavf60.3.100</property>
  <property name="seekable">1</property>
  <property name="meta.media.sample_aspect_num">1</property>
  <property name="meta.media.sample_aspect_den">1</property>
  <property name="aspect_ratio">1</property>
  <property name="format">3</property>
  <property name="audio_index">-1</property>
  <property name="video_index">0</property>
  <property name="mute_on_pause">0</property>
  <property name="mlt_service">avformat-novalidate</property>
  <property name="kdenlive:clipname">33.mp4</property>
  <property name="kdenlive:clip_type">2</property>
  <property name="kdenlive:folderid">528</property>
  <property name="kdenlive:id">445</property>
  <property name="kdenlive:file_size">169663</property>
  <property name="kdenlive:file_hash">da0d574f17afc3da9b1376b385845c6a</property>
  <property name="kdenlive:proxy">/home/xiaoxiae/.cache/kdenlive/proxy/da0d574f17afc3da9b1376b385845c6a.mkv</property>
  <property name="kdenlive:originalurl">video/Intro/33.mp4</property>
  <property name="kdenlive:original.mlt_type">producer</property>
  <property name="kdenlive:original.in">00:00:00.000</property>
  <property name="kdenlive:original.out">00:00:01.483</property>
  <property name="kdenlive:original.length">90</property>
  <property name="kdenlive:original.eof">pause</property>
  <property name="kdenlive:original.resource">video/Intro/33.mp4</property>
  <property name="kdenlive:original.meta.media.nb_streams">1</property>
  <property name="kdenlive:original.meta.media.0.stream.type">video</property>
  <property name="kdenlive:original.meta.media.0.stream.frame_rate">60</property>
  <property name="kdenlive:original.meta.media.0.stream.sample_aspect_ratio">0</property>
  <property name="kdenlive:original.meta.media.0.codec.width">3840</property>
  <property name="kdenlive:original.meta.media.0.codec.height">2160</property>
  <property name="kdenlive:original.meta.media.0.codec.rotate">0</property>
  <property name="kdenlive:original.meta.media.0.codec.pix_fmt">yuv420p</property>
  <property name="kdenlive:original.meta.media.0.codec.sample_aspect_ratio">0</property>
  <property name="kdenlive:original.meta.media.0.codec.colorspace">709</property>
  <property name="kdenlive:original.meta.media.0.codec.name">h264</property>
  <property name="kdenlive:original.meta.media.0.codec.long_name">H.264 / AVC / MPEG-4 AVC / MPEG-4 part 10</property>
  <property name="kdenlive:original.meta.media.0.codec.bit_rate">894293</property>
  <property name="kdenlive:original.meta.attr.0.stream.handler_name.markup">VideoHandler</property>
  <property name="kdenlive:original.meta.attr.0.stream.vendor_id.markup">[0][0][0][0]</property>
  <property name="kdenlive:original.meta.attr.0.stream.encoder.markup">Lavc60.3.100 libx264</property>
  <property name="kdenlive:original.meta.attr.major_brand.markup">isom</property>
  <property name="kdenlive:original.meta.attr.minor_version.markup">512</property>
  <property name="kdenlive:original.meta.attr.compatible_brands.markup">isomiso2avc1mp41</property>
  <property name="kdenlive:original.meta.attr.encoder.markup">Lavf60.3.100</property>
  <property name="kdenlive:original.meta.attr.comment.markup">Rendered with Manim Community v0.17.2</property>
  <property name="kdenlive:original.seekable">1</property>
  <property name="kdenlive:original.width">3840</property>
  <property name="kdenlive:original.height">2160</property>
  <property name="kdenlive:original.meta.media.sample_aspect_num">1</property>
  <property name="kdenlive:original.meta.media.sample_aspect_den">1</property>
  <property name="kdenlive:original.aspect_ratio">1</property>
  <property name="kdenlive:original.format">3</property>
  <property name="kdenlive:original.audio_index">-1</property>
  <property name="kdenlive:original.video_index">0</property>
  <property name="kdenlive:original.mute_on_pause">0</property>
  <property name="kdenlive:original.mlt_service">avformat-novalidate</property>
  <property name="kdenlive:original.meta.media.frame_rate_num">60</property>
  <property name="kdenlive:original.meta.media.frame_rate_den">1</property>
  <property name="kdenlive:original.meta.media.colorspace">709</property>
  <property name="kdenlive:original.meta.media.color_trc">2</property>
  <property name="kdenlive:original.meta.media.has_b_frames">2</property>
  <property name="kdenlive:original.meta.media.width">3840</property>
  <property name="kdenlive:original.meta.media.height">2160</property>
  <property name="kdenlive:original.meta.media.color_range">mpeg</property>
  <property name="kdenlive:original.meta.media.top_field_first">0</property>
  <property name="kdenlive:original.meta.media.progressive">1</property>
  <property name="kdenlive:original.kdenlive:clip_type">2</property>
  <property name="kdenlive:original.kdenlive:folderid">528</property>
  <property name="kdenlive:original.kdenlive:id">555</property>
  <property name="kdenlive:original.kdenlive:file_size">169663</property>
  <property name="kdenlive:original.kdenlive:file_hash">da0d574f17afc3da9b1376b385845c6a</property>
  <property name="kdenlive:original.backup">1</property>
  <property name="meta.media.frame_rate_num">60</property>
  <property name="meta.media.frame_rate_den">1</property>
  <property name="meta.media.colorspace">601</property>
  <property name="meta.media.color_trc">2</property>
  <property name="meta.media.has_b_frames">0</property>
  <property name="meta.media.width">640</property>
  <property name="meta.media.height">360</property>
  <property name="meta.media.color_range">full</property>
  <property name="meta.media.top_field_first">0</property>
  <property name="meta.media.progressive">1</property>
 </producer>
 <producer id="producer368" in="00:00:00.000" out="00:00:00.983">
  <property name="length">60</property>
  <property name="eof">pause</property>
  <property name="resource">/home/xiaoxiae/.cache/kdenlive/proxy/1b5548fe20198d595c5d6141a489d919.mkv</property>
  <property name="meta.media.nb_streams">1</property>
  <property name="meta.media.0.stream.type">video</property>
  <property name="meta.media.0.stream.frame_rate">60</property>
  <property name="meta.media.0.stream.sample_aspect_ratio">0</property>
  <property name="meta.media.0.codec.width">640</property>
  <property name="meta.media.0.codec.height">360</property>
  <property name="meta.media.0.codec.rotate">0</property>
  <property name="meta.media.0.codec.pix_fmt">yuvj420p</property>
  <property name="meta.media.0.codec.sample_aspect_ratio">0</property>
  <property name="meta.media.0.codec.colorspace">601</property>
  <property name="meta.media.0.codec.name">mjpeg</property>
  <property name="meta.media.0.codec.long_name">MJPEG (Motion JPEG)</property>
  <property name="meta.media.0.codec.bit_rate">0</property>
  <property name="meta.attr.0.stream.HANDLER_NAME.markup">VideoHandler</property>
  <property name="meta.attr.0.stream.VENDOR_ID.markup">[0][0][0][0]</property>
  <property name="meta.attr.0.stream.ENCODER.markup">Lavc60.3.100 mjpeg</property>
  <property name="meta.attr.0.stream.DURATION.markup">00:00:01.000000000</property>
  <property name="meta.attr.COMMENT.markup">Rendered with Manim Community v0.17.2</property>
  <property name="meta.attr.MAJOR_BRAND.markup">isom</property>
  <property name="meta.attr.MINOR_VERSION.markup">512</property>
  <property name="meta.attr.COMPATIBLE_BRANDS.markup">isomiso2avc1mp41</property>
  <property name="meta.attr.ENCODER.markup">Lavf60.3.100</property>
  <property name="seekable">1</property>
  <property name="meta.media.sample_aspect_num">1</property>
  <property name="meta.media.sample_aspect_den">1</property>
  <property name="aspect_ratio">1</property>
  <property name="format">3</property>
  <property name="audio_index">-1</property>
  <property name="video_index">0</property>
  <property name="mute_on_pause">0</property>
  <property name="mlt_service">avformat-novalidate</property>
  <property name="kdenlive:clipname">34.mp4</property>
  <property name="kdenlive:clip_type">2</property>
  <property name="kdenlive:folderid">528</property>
  <property name="kdenlive:id">446</property>
  <property name="kdenlive:file_size">264529</property>
  <property name="kdenlive:file_hash">1b5548fe20198d595c5d6141a489d919</property>
  <property name="kdenlive:proxy">/home/xiaoxiae/.cache/kdenlive/proxy/1b5548fe20198d595c5d6141a489d919.mkv</property>
  <property name="kdenlive:originalurl">video/Intro/34.mp4</property>
  <property name="kdenlive:original.mlt_type">producer</property>
  <property name="kdenlive:original.in">00:00:00.000</property>
  <property name="kdenlive:original.out">00:00:00.983</property>
  <property name="kdenlive:original.length">60</property>
  <property name="kdenlive:original.eof">pause</property>
  <property name="kdenlive:original.resource">video/Intro/34.mp4</property>
  <property name="kdenlive:original.meta.media.nb_streams">1</property>
  <property name="kdenlive:original.meta.media.0.stream.type">video</property>
  <property name="kdenlive:original.meta.media.0.stream.frame_rate">60</property>
  <property name="kdenlive:original.meta.media.0.stream.sample_aspect_ratio">0</property>
  <property name="kdenlive:original.meta.media.0.codec.width">3840</property>
  <property name="kdenlive:original.meta.media.0.codec.height">2160</property>
  <property name="kdenlive:original.meta.media.0.codec.rotate">0</property>
  <property name="kdenlive:original.meta.media.0.codec.pix_fmt">yuv420p</property>
  <property name="kdenlive:original.meta.media.0.codec.sample_aspect_ratio">0</property>
  <property name="kdenlive:original.meta.media.0.codec.colorspace">709</property>
  <property name="kdenlive:original.meta.media.0.codec.name">h264</property>
  <property name="kdenlive:original.meta.media.0.codec.long_name">H.264 / AVC / MPEG-4 AVC / MPEG-4 part 10</property>
  <property name="kdenlive:original.meta.media.0.codec.bit_rate">2105008</property>
  <property name="kdenlive:original.meta.attr.0.stream.handler_name.markup">VideoHandler</property>
  <property name="kdenlive:original.meta.attr.0.stream.vendor_id.markup">[0][0][0][0]</property>
  <property name="kdenlive:original.meta.attr.0.stream.encoder.markup">Lavc60.3.100 libx264</property>
  <property name="kdenlive:original.meta.attr.major_brand.markup">isom</property>
  <property name="kdenlive:original.meta.attr.minor_version.markup">512</property>
  <property name="kdenlive:original.meta.attr.compatible_brands.markup">isomiso2avc1mp41</property>
  <property name="kdenlive:original.meta.attr.encoder.markup">Lavf60.3.100</property>
  <property name="kdenlive:original.meta.attr.comment.markup">Rendered with Manim Community v0.17.2</property>
  <property name="kdenlive:original.seekable">1</property>
  <property name="kdenlive:original.width">3840</property>
  <property name="kdenlive:original.height">2160</property>
  <property name="kdenlive:original.meta.media.sample_aspect_num">1</property>
  <property name="kdenlive:original.meta.media.sample_aspect_den">1</property>
  <property name="kdenlive:original.aspect_ratio">1</property>
  <property name="kdenlive:original.format">3</property>
  <property name="kdenlive:original.audio_index">-1</property>
  <property name="kdenlive:original.video_index">0</property>
  <property name="kdenlive:original.mute_on_pause">0</property>
  <property name="kdenlive:original.mlt_service">avformat-novalidate</property>
  <property name="kdenlive:original.meta.media.frame_rate_num">60</property>
  <property name="kdenlive:original.meta.media.frame_rate_den">1</property>
  <property name="kdenlive:original.meta.media.colorspace">709</property>
  <property name="kdenlive:original.meta.media.color_trc">2</property>
  <property name="kdenlive:original.meta.media.has_b_frames">2</property>
  <property name="kdenlive:original.meta.media.width">3840</property>
  <property name="kdenlive:original.meta.media.height">2160</property>
  <property name="kdenlive:original.meta.media.color_range">mpeg</property>
  <property name="kdenlive:original.meta.media.top_field_first">0</property>
  <property name="kdenlive:original.meta.media.progressive">1</property>
  <property name="kdenlive:original.kdenlive:clip_type">2</property>
  <property name="kdenlive:original.kdenlive:folderid">528</property>
  <property name="kdenlive:original.kdenlive:id">556</property>
  <property name="kdenlive:original.kdenlive:file_size">264529</property>
  <property name="kdenlive:original.kdenlive:file_hash">1b5548fe20198d595c5d6141a489d919</property>
  <property name="kdenlive:original.backup">1</property>
  <property name="meta.media.frame_rate_num">60</property>
  <property name="meta.media.frame_rate_den">1</property>
  <property name="meta.media.colorspace">601</property>
  <property name="meta.media.color_trc">2</property>
  <property name="meta.media.has_b_frames">0</property>
  <property name="meta.media.width">640</property>
  <property name="meta.media.height">360</property>
  <property name="meta.media.color_range">full</property>
  <property name="meta.media.top_field_first">0</property>
  <property name="meta.media.progressive">1</property>
 </producer>
 <producer id="producer369" in="00:00:00.000" out="00:00:00.983">
  <property name="length">60</property>
  <property name="eof">pause</property>
  <property name="resource">/home/xiaoxiae/.cache/kdenlive/proxy/d8db75265835fa39a70c636dd76194b9.mkv</property>
  <property name="meta.media.nb_streams">1</property>
  <property name="meta.media.0.stream.type">video</property>
  <property name="meta.media.0.stream.frame_rate">60</property>
  <property name="meta.media.0.stream.sample_aspect_ratio">0</property>
  <property name="meta.media.0.codec.width">640</property>
  <property name="meta.media.0.codec.height">360</property>
  <property name="meta.media.0.codec.rotate">0</property>
  <property name="meta.media.0.codec.pix_fmt">yuvj420p</property>
  <property name="meta.media.0.codec.sample_aspect_ratio">0</property>
  <property name="meta.media.0.codec.colorspace">601</property>
  <property name="meta.media.0.codec.name">mjpeg</property>
  <property name="meta.media.0.codec.long_name">MJPEG (Motion JPEG)</property>
  <property name="meta.media.0.codec.bit_rate">0</property>
  <property name="meta.attr.0.stream.HANDLER_NAME.markup">VideoHandler</property>
  <property name="meta.attr.0.stream.VENDOR_ID.markup">[0][0][0][0]</property>
  <property name="meta.attr.0.stream.ENCODER.markup">Lavc60.3.100 mjpeg</property>
  <property name="meta.attr.0.stream.DURATION.markup">00:00:01.000000000</property>
  <property name="meta.attr.COMMENT.markup">Rendered with Manim Community v0.17.2</property>
  <property name="meta.attr.MAJOR_BRAND.markup">isom</property>
  <property name="meta.attr.MINOR_VERSION.markup">512</property>
  <property name="meta.attr.COMPATIBLE_BRANDS.markup">isomiso2avc1mp41</property>
  <property name="meta.attr.ENCODER.markup">Lavf60.3.100</property>
  <property name="seekable">1</property>
  <property name="meta.media.sample_aspect_num">1</property>
  <property name="meta.media.sample_aspect_den">1</property>
  <property name="aspect_ratio">1</property>
  <property name="format">3</property>
  <property name="audio_index">-1</property>
  <property name="video_index">0</property>
  <property name="mute_on_pause">0</property>
  <property name="mlt_service">avformat-novalidate</property>
  <property name="kdenlive:clipname">35.mp4</property>
  <property name="kdenlive:clip_type">2</property>
  <property name="kdenlive:folderid">528</property>
  <property name="kdenlive:id">447</property>
  <property name="kdenlive:file_size">447479</property>
  <property name="kdenlive:file_hash">d8db75265835fa39a70c636dd76194b9</property>
  <property name="kdenlive:proxy">/home/xiaoxiae/.cache/kdenlive/proxy/d8db75265835fa39a70c636dd76194b9.mkv</property>
  <property name="kdenlive:originalurl">video/Intro/35.mp4</property>
  <property name="kdenlive:original.mlt_type">producer</property>
  <property name="kdenlive:original.in">00:00:00.000</property>
  <property name="kdenlive:original.out">00:00:00.983</property>
  <property name="kdenlive:original.length">60</property>
  <property name="kdenlive:original.eof">pause</property>
  <property name="kdenlive:original.resource">video/Intro/35.mp4</property>
  <property name="kdenlive:original.meta.media.nb_streams">1</property>
  <property name="kdenlive:original.meta.media.0.stream.type">video</property>
  <property name="kdenlive:original.meta.media.0.stream.frame_rate">60</property>
  <property name="kdenlive:original.meta.media.0.stream.sample_aspect_ratio">0</property>
  <property name="kdenlive:original.meta.media.0.codec.width">3840</property>
  <property name="kdenlive:original.meta.media.0.codec.height">2160</property>
  <property name="kdenlive:original.meta.media.0.codec.rotate">0</property>
  <property name="kdenlive:original.meta.media.0.codec.pix_fmt">yuv420p</property>
  <property name="kdenlive:original.meta.media.0.codec.sample_aspect_ratio">0</property>
  <property name="kdenlive:original.meta.media.0.codec.colorspace">709</property>
  <property name="kdenlive:original.meta.media.0.codec.name">h264</property>
  <property name="kdenlive:original.meta.media.0.codec.long_name">H.264 / AVC / MPEG-4 AVC / MPEG-4 part 10</property>
  <property name="kdenlive:original.meta.media.0.codec.bit_rate">3568576</property>
  <property name="kdenlive:original.meta.attr.0.stream.handler_name.markup">VideoHandler</property>
  <property name="kdenlive:original.meta.attr.0.stream.vendor_id.markup">[0][0][0][0]</property>
  <property name="kdenlive:original.meta.attr.0.stream.encoder.markup">Lavc60.3.100 libx264</property>
  <property name="kdenlive:original.meta.attr.major_brand.markup">isom</property>
  <property name="kdenlive:original.meta.attr.minor_version.markup">512</property>
  <property name="kdenlive:original.meta.attr.compatible_brands.markup">isomiso2avc1mp41</property>
  <property name="kdenlive:original.meta.attr.encoder.markup">Lavf60.3.100</property>
  <property name="kdenlive:original.meta.attr.comment.markup">Rendered with Manim Community v0.17.2</property>
  <property name="kdenlive:original.seekable">1</property>
  <property name="kdenlive:original.width">3840</property>
  <property name="kdenlive:original.height">2160</property>
  <property name="kdenlive:original.meta.media.sample_aspect_num">1</property>
  <property name="kdenlive:original.meta.media.sample_aspect_den">1</property>
  <property name="kdenlive:original.aspect_ratio">1</property>
  <property name="kdenlive:original.format">3</property>
  <property name="kdenlive:original.audio_index">-1</property>
  <property name="kdenlive:original.video_index">0</property>
  <property name="kdenlive:original.mute_on_pause">0</property>
  <property name="kdenlive:original.mlt_service">avformat-novalidate</property>
  <property name="kdenlive:original.meta.media.frame_rate_num">60</property>
  <property name="kdenlive:original.meta.media.frame_rate_den">1</property>
  <property name="kdenlive:original.meta.media.colorspace">709</property>
  <property name="kdenlive:original.meta.media.color_trc">2</property>
  <property name="kdenlive:original.meta.media.has_b_frames">2</property>
  <property name="kdenlive:original.meta.media.width">3840</property>
  <property name="kdenlive:original.meta.media.height">2160</property>
  <property name="kdenlive:original.meta.media.color_range">mpeg</property>
  <property name="kdenlive:original.meta.media.top_field_first">0</property>
  <property name="kdenlive:original.meta.media.progressive">1</property>
  <property name="kdenlive:original.kdenlive:clip_type">2</property>
  <property name="kdenlive:original.kdenlive:folderid">528</property>
  <property name="kdenlive:original.kdenlive:id">557</property>
  <property name="kdenlive:original.kdenlive:file_size">447479</property>
  <property name="kdenlive:original.kdenlive:file_hash">d8db75265835fa39a70c636dd76194b9</property>
  <property name="kdenlive:original.backup">1</property>
  <property name="meta.media.frame_rate_num">60</property>
  <property name="meta.media.frame_rate_den">1</property>
  <property name="meta.media.colorspace">601</property>
  <property name="meta.media.color_trc">2</property>
  <property name="meta.media.has_b_frames">0</property>
  <property name="meta.media.width">640</property>
  <property name="meta.media.height">360</property>
  <property name="meta.media.color_range">full</property>
  <property name="meta.media.top_field_first">0</property>
  <property name="meta.media.progressive">1</property>
 </producer>
 <producer id="producer370" in="00:00:00.000" out="00:00:00.983">
  <property name="length">60</property>
  <property name="eof">pause</property>
  <property name="resource">/home/xiaoxiae/.cache/kdenlive/proxy/8d757714121fb973c4458971388a52ea.mkv</property>
  <property name="meta.media.nb_streams">1</property>
  <property name="meta.media.0.stream.type">video</property>
  <property name="meta.media.0.stream.frame_rate">60</property>
  <property name="meta.media.0.stream.sample_aspect_ratio">0</property>
  <property name="meta.media.0.codec.width">640</property>
  <property name="meta.media.0.codec.height">360</property>
  <property name="meta.media.0.codec.rotate">0</property>
  <property name="meta.media.0.codec.pix_fmt">yuvj420p</property>
  <property name="meta.media.0.codec.sample_aspect_ratio">0</property>
  <property name="meta.media.0.codec.colorspace">601</property>
  <property name="meta.media.0.codec.name">mjpeg</property>
  <property name="meta.media.0.codec.long_name">MJPEG (Motion JPEG)</property>
  <property name="meta.media.0.codec.bit_rate">0</property>
  <property name="meta.attr.0.stream.HANDLER_NAME.markup">VideoHandler</property>
  <property name="meta.attr.0.stream.VENDOR_ID.markup">[0][0][0][0]</property>
  <property name="meta.attr.0.stream.ENCODER.markup">Lavc60.3.100 mjpeg</property>
  <property name="meta.attr.0.stream.DURATION.markup">00:00:01.000000000</property>
  <property name="meta.attr.COMMENT.markup">Rendered with Manim Community v0.17.2</property>
  <property name="meta.attr.MAJOR_BRAND.markup">isom</property>
  <property name="meta.attr.MINOR_VERSION.markup">512</property>
  <property name="meta.attr.COMPATIBLE_BRANDS.markup">isomiso2avc1mp41</property>
  <property name="meta.attr.ENCODER.markup">Lavf60.3.100</property>
  <property name="seekable">1</property>
  <property name="meta.media.sample_aspect_num">1</property>
  <property name="meta.media.sample_aspect_den">1</property>
  <property name="aspect_ratio">1</property>
  <property name="format">3</property>
  <property name="audio_index">-1</property>
  <property name="video_index">0</property>
  <property name="mute_on_pause">0</property>
  <property name="mlt_service">avformat-novalidate</property>
  <property name="kdenlive:clipname">36.mp4</property>
  <property name="kdenlive:clip_type">2</property>
  <property name="kdenlive:folderid">528</property>
  <property name="kdenlive:id">448</property>
  <property name="kdenlive:file_size">17960</property>
  <property name="kdenlive:file_hash">8d757714121fb973c4458971388a52ea</property>
  <property name="kdenlive:proxy">/home/xiaoxiae/.cache/kdenlive/proxy/8d757714121fb973c4458971388a52ea.mkv</property>
  <property name="kdenlive:originalurl">video/Intro/36.mp4</property>
  <property name="kdenlive:original.mlt_type">producer</property>
  <property name="kdenlive:original.in">00:00:00.000</property>
  <property name="kdenlive:original.out">00:00:00.983</property>
  <property name="kdenlive:original.length">60</property>
  <property name="kdenlive:original.eof">pause</property>
  <property name="kdenlive:original.resource">video/Intro/36.mp4</property>
  <property name="kdenlive:original.meta.media.nb_streams">1</property>
  <property name="kdenlive:original.meta.media.0.stream.type">video</property>
  <property name="kdenlive:original.meta.media.0.stream.frame_rate">60</property>
  <property name="kdenlive:original.meta.media.0.stream.sample_aspect_ratio">0</property>
  <property name="kdenlive:original.meta.media.0.codec.width">3840</property>
  <property name="kdenlive:original.meta.media.0.codec.height">2160</property>
  <property name="kdenlive:original.meta.media.0.codec.rotate">0</property>
  <property name="kdenlive:original.meta.media.0.codec.pix_fmt">yuv420p</property>
  <property name="kdenlive:original.meta.media.0.codec.sample_aspect_ratio">0</property>
  <property name="kdenlive:original.meta.media.0.codec.colorspace">709</property>
  <property name="kdenlive:original.meta.media.0.codec.name">h264</property>
  <property name="kdenlive:original.meta.media.0.codec.long_name">H.264 / AVC / MPEG-4 AVC / MPEG-4 part 10</property>
  <property name="kdenlive:original.meta.media.0.codec.bit_rate">130632</property>
  <property name="kdenlive:original.meta.attr.0.stream.handler_name.markup">VideoHandler</property>
  <property name="kdenlive:original.meta.attr.0.stream.vendor_id.markup">[0][0][0][0]</property>
  <property name="kdenlive:original.meta.attr.0.stream.encoder.markup">Lavc60.3.100 libx264</property>
  <property name="kdenlive:original.meta.attr.major_brand.markup">isom</property>
  <property name="kdenlive:original.meta.attr.minor_version.markup">512</property>
  <property name="kdenlive:original.meta.attr.compatible_brands.markup">isomiso2avc1mp41</property>
  <property name="kdenlive:original.meta.attr.encoder.markup">Lavf60.3.100</property>
  <property name="kdenlive:original.meta.attr.comment.markup">Rendered with Manim Community v0.17.2</property>
  <property name="kdenlive:original.seekable">1</property>
  <property name="kdenlive:original.width">3840</property>
  <property name="kdenlive:original.height">2160</property>
  <property name="kdenlive:original.meta.media.sample_aspect_num">1</property>
  <property name="kdenlive:original.meta.media.sample_aspect_den">1</property>
  <property name="kdenlive:original.aspect_ratio">1</property>
  <property name="kdenlive:original.format">3</property>
  <property name="kdenlive:original.audio_index">-1</property>
  <property name="kdenlive:original.video_index">0</property>
  <property name="kdenlive:original.mute_on_pause">0</property>
  <property name="kdenlive:original.mlt_service">avformat-novalidate</property>
  <property name="kdenlive:original.meta.media.frame_rate_num">60</property>
  <property name="kdenlive:original.meta.media.frame_rate_den">1</property>
  <property name="kdenlive:original.meta.media.colorspace">709</property>
  <property name="kdenlive:original.meta.media.color_trc">2</property>
  <property name="kdenlive:original.meta.media.has_b_frames">2</property>
  <property name="kdenlive:original.meta.media.width">3840</property>
  <property name="kdenlive:original.meta.media.height">2160</property>
  <property name="kdenlive:original.meta.media.color_range">mpeg</property>
  <property name="kdenlive:original.meta.media.top_field_first">0</property>
  <property name="kdenlive:original.meta.media.progressive">1</property>
  <property name="kdenlive:original.kdenlive:clip_type">2</property>
  <property name="kdenlive:original.kdenlive:folderid">528</property>
  <property name="kdenlive:original.kdenlive:id">558</property>
  <property name="kdenlive:original.kdenlive:file_size">17960</property>
  <property name="kdenlive:original.kdenlive:file_hash">8d757714121fb973c4458971388a52ea</property>
  <property name="kdenlive:original.backup">1</property>
  <property name="meta.media.frame_rate_num">60</property>
  <property name="meta.media.frame_rate_den">1</property>
  <property name="meta.media.colorspace">601</property>
  <property name="meta.media.color_trc">2</property>
  <property name="meta.media.has_b_frames">0</property>
  <property name="meta.media.width">640</property>
  <property name="meta.media.height">360</property>
  <property name="meta.media.color_range">full</property>
  <property name="meta.media.top_field_first">0</property>
  <property name="meta.media.progressive">1</property>
 </producer>
 <producer id="producer371" in="00:00:00.000" out="00:00:00.983">
  <property name="length">60</property>
  <property name="eof">pause</property>
  <property name="resource">/home/xiaoxiae/.cache/kdenlive/proxy/9cba873cc7e785795b40c232b242686c.mkv</property>
  <property name="meta.media.nb_streams">1</property>
  <property name="meta.media.0.stream.type">video</property>
  <property name="meta.media.0.stream.frame_rate">60</property>
  <property name="meta.media.0.stream.sample_aspect_ratio">0</property>
  <property name="meta.media.0.codec.width">640</property>
  <property name="meta.media.0.codec.height">360</property>
  <property name="meta.media.0.codec.rotate">0</property>
  <property name="meta.media.0.codec.pix_fmt">yuvj420p</property>
  <property name="meta.media.0.codec.sample_aspect_ratio">0</property>
  <property name="meta.media.0.codec.colorspace">601</property>
  <property name="meta.media.0.codec.name">mjpeg</property>
  <property name="meta.media.0.codec.long_name">MJPEG (Motion JPEG)</property>
  <property name="meta.media.0.codec.bit_rate">0</property>
  <property name="meta.attr.0.stream.HANDLER_NAME.markup">VideoHandler</property>
  <property name="meta.attr.0.stream.VENDOR_ID.markup">[0][0][0][0]</property>
  <property name="meta.attr.0.stream.ENCODER.markup">Lavc60.3.100 mjpeg</property>
  <property name="meta.attr.0.stream.DURATION.markup">00:00:01.000000000</property>
  <property name="meta.attr.COMMENT.markup">Rendered with Manim Community v0.17.2</property>
  <property name="meta.attr.MAJOR_BRAND.markup">isom</property>
  <property name="meta.attr.MINOR_VERSION.markup">512</property>
  <property name="meta.attr.COMPATIBLE_BRANDS.markup">isomiso2avc1mp41</property>
  <property name="meta.attr.ENCODER.markup">Lavf60.3.100</property>
  <property name="seekable">1</property>
  <property name="meta.media.sample_aspect_num">1</property>
  <property name="meta.media.sample_aspect_den">1</property>
  <property name="aspect_ratio">1</property>
  <property name="format">3</property>
  <property name="audio_index">-1</property>
  <property name="video_index">0</property>
  <property name="mute_on_pause">0</property>
  <property name="mlt_service">avformat-novalidate</property>
  <property name="kdenlive:clipname">4.mp4</property>
  <property name="kdenlive:clip_type">2</property>
  <property name="kdenlive:folderid">528</property>
  <property name="kdenlive:id">449</property>
  <property name="kdenlive:file_size">142461</property>
  <property name="kdenlive:file_hash">9cba873cc7e785795b40c232b242686c</property>
  <property name="kdenlive:proxy">/home/xiaoxiae/.cache/kdenlive/proxy/9cba873cc7e785795b40c232b242686c.mkv</property>
  <property name="kdenlive:originalurl">video/Intro/4.mp4</property>
  <property name="kdenlive:original.mlt_type">producer</property>
  <property name="kdenlive:original.in">00:00:00.000</property>
  <property name="kdenlive:original.out">00:00:00.983</property>
  <property name="kdenlive:original.length">60</property>
  <property name="kdenlive:original.eof">pause</property>
  <property name="kdenlive:original.resource">video/Intro/4.mp4</property>
  <property name="kdenlive:original.meta.media.nb_streams">1</property>
  <property name="kdenlive:original.meta.media.0.stream.type">video</property>
  <property name="kdenlive:original.meta.media.0.stream.frame_rate">60</property>
  <property name="kdenlive:original.meta.media.0.stream.sample_aspect_ratio">0</property>
  <property name="kdenlive:original.meta.media.0.codec.width">3840</property>
  <property name="kdenlive:original.meta.media.0.codec.height">2160</property>
  <property name="kdenlive:original.meta.media.0.codec.rotate">0</property>
  <property name="kdenlive:original.meta.media.0.codec.pix_fmt">yuv420p</property>
  <property name="kdenlive:original.meta.media.0.codec.sample_aspect_ratio">0</property>
  <property name="kdenlive:original.meta.media.0.codec.colorspace">709</property>
  <property name="kdenlive:original.meta.media.0.codec.name">h264</property>
  <property name="kdenlive:original.meta.media.0.codec.long_name">H.264 / AVC / MPEG-4 AVC / MPEG-4 part 10</property>
  <property name="kdenlive:original.meta.media.0.codec.bit_rate">1126640</property>
  <property name="kdenlive:original.meta.attr.0.stream.handler_name.markup">VideoHandler</property>
  <property name="kdenlive:original.meta.attr.0.stream.vendor_id.markup">[0][0][0][0]</property>
  <property name="kdenlive:original.meta.attr.0.stream.encoder.markup">Lavc60.3.100 libx264</property>
  <property name="kdenlive:original.meta.attr.major_brand.markup">isom</property>
  <property name="kdenlive:original.meta.attr.minor_version.markup">512</property>
  <property name="kdenlive:original.meta.attr.compatible_brands.markup">isomiso2avc1mp41</property>
  <property name="kdenlive:original.meta.attr.encoder.markup">Lavf60.3.100</property>
  <property name="kdenlive:original.meta.attr.comment.markup">Rendered with Manim Community v0.17.2</property>
  <property name="kdenlive:original.seekable">1</property>
  <property name="kdenlive:original.width">3840</property>
  <property name="kdenlive:original.height">2160</property>
  <property name="kdenlive:original.meta.media.sample_aspect_num">1</property>
  <property name="kdenlive:original.meta.media.sample_aspect_den">1</property>
  <property name="kdenlive:original.aspect_ratio">1</property>
  <property name="kdenlive:original.format">3</property>
  <property name="kdenlive:original.audio_index">-1</property>
  <property name="kdenlive:original.video_index">0</property>
  <property name="kdenlive:original.mute_on_pause">0</property>
  <property name="kdenlive:original.mlt_service">avformat-novalidate</property>
  <property name="kdenlive:original.meta.media.frame_rate_num">60</property>
  <property name="kdenlive:original.meta.media.frame_rate_den">1</property>
  <property name="kdenlive:original.meta.media.colorspace">709</property>
  <property name="kdenlive:original.meta.media.color_trc">2</property>
  <property name="kdenlive:original.meta.media.has_b_frames">2</property>
  <property name="kdenlive:original.meta.media.width">3840</property>
  <property name="kdenlive:original.meta.media.height">2160</property>
  <property name="kdenlive:original.meta.media.color_range">mpeg</property>
  <property name="kdenlive:original.meta.media.top_field_first">0</property>
  <property name="kdenlive:original.meta.media.progressive">1</property>
  <property name="kdenlive:original.kdenlive:clip_type">2</property>
  <property name="kdenlive:original.kdenlive:folderid">528</property>
  <property name="kdenlive:original.kdenlive:id">559</property>
  <property name="kdenlive:original.kdenlive:file_size">142461</property>
  <property name="kdenlive:original.kdenlive:file_hash">9cba873cc7e785795b40c232b242686c</property>
  <property name="kdenlive:original.backup">1</property>
  <property name="meta.media.frame_rate_num">60</property>
  <property name="meta.media.frame_rate_den">1</property>
  <property name="meta.media.colorspace">601</property>
  <property name="meta.media.color_trc">2</property>
  <property name="meta.media.has_b_frames">0</property>
  <property name="meta.media.width">640</property>
  <property name="meta.media.height">360</property>
  <property name="meta.media.color_range">full</property>
  <property name="meta.media.top_field_first">0</property>
  <property name="meta.media.progressive">1</property>
 </producer>
 <producer id="producer372" in="00:00:00.000" out="00:00:01.733">
  <property name="length">105</property>
  <property name="eof">pause</property>
  <property name="resource">/home/xiaoxiae/.cache/kdenlive/proxy/e7c290a365939e829163ea5ea86b2abc.mkv</property>
  <property name="meta.media.nb_streams">1</property>
  <property name="meta.media.0.stream.type">video</property>
  <property name="meta.media.0.stream.frame_rate">60</property>
  <property name="meta.media.0.stream.sample_aspect_ratio">0</property>
  <property name="meta.media.0.codec.width">640</property>
  <property name="meta.media.0.codec.height">360</property>
  <property name="meta.media.0.codec.rotate">0</property>
  <property name="meta.media.0.codec.pix_fmt">yuvj420p</property>
  <property name="meta.media.0.codec.sample_aspect_ratio">0</property>
  <property name="meta.media.0.codec.colorspace">601</property>
  <property name="meta.media.0.codec.name">mjpeg</property>
  <property name="meta.media.0.codec.long_name">MJPEG (Motion JPEG)</property>
  <property name="meta.media.0.codec.bit_rate">0</property>
  <property name="meta.attr.0.stream.HANDLER_NAME.markup">VideoHandler</property>
  <property name="meta.attr.0.stream.VENDOR_ID.markup">[0][0][0][0]</property>
  <property name="meta.attr.0.stream.ENCODER.markup">Lavc60.3.100 mjpeg</property>
  <property name="meta.attr.0.stream.DURATION.markup">00:00:01.750000000</property>
  <property name="meta.attr.COMMENT.markup">Rendered with Manim Community v0.17.2</property>
  <property name="meta.attr.MAJOR_BRAND.markup">isom</property>
  <property name="meta.attr.MINOR_VERSION.markup">512</property>
  <property name="meta.attr.COMPATIBLE_BRANDS.markup">isomiso2avc1mp41</property>
  <property name="meta.attr.ENCODER.markup">Lavf60.3.100</property>
  <property name="seekable">1</property>
  <property name="meta.media.sample_aspect_num">1</property>
  <property name="meta.media.sample_aspect_den">1</property>
  <property name="aspect_ratio">1</property>
  <property name="format">3</property>
  <property name="audio_index">-1</property>
  <property name="video_index">0</property>
  <property name="mute_on_pause">0</property>
  <property name="mlt_service">avformat-novalidate</property>
  <property name="kdenlive:clipname">5.mp4</property>
  <property name="kdenlive:clip_type">2</property>
  <property name="kdenlive:folderid">528</property>
  <property name="kdenlive:id">450</property>
  <property name="kdenlive:file_size">207099</property>
  <property name="kdenlive:file_hash">e7c290a365939e829163ea5ea86b2abc</property>
  <property name="kdenlive:proxy">/home/xiaoxiae/.cache/kdenlive/proxy/e7c290a365939e829163ea5ea86b2abc.mkv</property>
  <property name="kdenlive:originalurl">video/Intro/5.mp4</property>
  <property name="kdenlive:original.mlt_type">producer</property>
  <property name="kdenlive:original.in">00:00:00.000</property>
  <property name="kdenlive:original.out">00:00:01.733</property>
  <property name="kdenlive:original.length">105</property>
  <property name="kdenlive:original.eof">pause</property>
  <property name="kdenlive:original.resource">video/Intro/5.mp4</property>
  <property name="kdenlive:original.meta.media.nb_streams">1</property>
  <property name="kdenlive:original.meta.media.0.stream.type">video</property>
  <property name="kdenlive:original.meta.media.0.stream.frame_rate">60</property>
  <property name="kdenlive:original.meta.media.0.stream.sample_aspect_ratio">0</property>
  <property name="kdenlive:original.meta.media.0.codec.width">3840</property>
  <property name="kdenlive:original.meta.media.0.codec.height">2160</property>
  <property name="kdenlive:original.meta.media.0.codec.rotate">0</property>
  <property name="kdenlive:original.meta.media.0.codec.pix_fmt">yuv420p</property>
  <property name="kdenlive:original.meta.media.0.codec.sample_aspect_ratio">0</property>
  <property name="kdenlive:original.meta.media.0.codec.colorspace">709</property>
  <property name="kdenlive:original.meta.media.0.codec.name">h264</property>
  <property name="kdenlive:original.meta.media.0.codec.long_name">H.264 / AVC / MPEG-4 AVC / MPEG-4 part 10</property>
  <property name="kdenlive:original.meta.media.0.codec.bit_rate">936777</property>
  <property name="kdenlive:original.meta.attr.0.stream.handler_name.markup">VideoHandler</property>
  <property name="kdenlive:original.meta.attr.0.stream.vendor_id.markup">[0][0][0][0]</property>
  <property name="kdenlive:original.meta.attr.0.stream.encoder.markup">Lavc60.3.100 libx264</property>
  <property name="kdenlive:original.meta.attr.major_brand.markup">isom</property>
  <property name="kdenlive:original.meta.attr.minor_version.markup">512</property>
  <property name="kdenlive:original.meta.attr.compatible_brands.markup">isomiso2avc1mp41</property>
  <property name="kdenlive:original.meta.attr.encoder.markup">Lavf60.3.100</property>
  <property name="kdenlive:original.meta.attr.comment.markup">Rendered with Manim Community v0.17.2</property>
  <property name="kdenlive:original.seekable">1</property>
  <property name="kdenlive:original.width">3840</property>
  <property name="kdenlive:original.height">2160</property>
  <property name="kdenlive:original.meta.media.sample_aspect_num">1</property>
  <property name="kdenlive:original.meta.media.sample_aspect_den">1</property>
  <property name="kdenlive:original.aspect_ratio">1</property>
  <property name="kdenlive:original.format">3</property>
  <property name="kdenlive:original.audio_index">-1</property>
  <property name="kdenlive:original.video_index">0</property>
  <property name="kdenlive:original.mute_on_pause">0</property>
  <property name="kdenlive:original.mlt_service">avformat-novalidate</property>
  <property name="kdenlive:original.meta.media.frame_rate_num">60</property>
  <property name="kdenlive:original.meta.media.frame_rate_den">1</property>
  <property name="kdenlive:original.meta.media.colorspace">709</property>
  <property name="kdenlive:original.meta.media.color_trc">2</property>
  <property name="kdenlive:original.meta.media.has_b_frames">2</property>
  <property name="kdenlive:original.meta.media.width">3840</property>
  <property name="kdenlive:original.meta.media.height">2160</property>
  <property name="kdenlive:original.meta.media.color_range">mpeg</property>
  <property name="kdenlive:original.meta.media.top_field_first">0</property>
  <property name="kdenlive:original.meta.media.progressive">1</property>
  <property name="kdenlive:original.kdenlive:clip_type">2</property>
  <property name="kdenlive:original.kdenlive:folderid">528</property>
  <property name="kdenlive:original.kdenlive:id">560</property>
  <property name="kdenlive:original.kdenlive:file_size">207099</property>
  <property name="kdenlive:original.kdenlive:file_hash">e7c290a365939e829163ea5ea86b2abc</property>
  <property name="kdenlive:original.backup">1</property>
  <property name="meta.media.frame_rate_num">60</property>
  <property name="meta.media.frame_rate_den">1</property>
  <property name="meta.media.colorspace">601</property>
  <property name="meta.media.color_trc">2</property>
  <property name="meta.media.has_b_frames">0</property>
  <property name="meta.media.width">640</property>
  <property name="meta.media.height">360</property>
  <property name="meta.media.color_range">full</property>
  <property name="meta.media.top_field_first">0</property>
  <property name="meta.media.progressive">1</property>
 </producer>
 <producer id="producer373" in="00:00:00.000" out="00:00:00.983">
  <property name="length">60</property>
  <property name="eof">pause</property>
  <property name="resource">/home/xiaoxiae/.cache/kdenlive/proxy/62e95a43bb6cdf7f74bc8c4d75d3ae67.mkv</property>
  <property name="meta.media.nb_streams">1</property>
  <property name="meta.media.0.stream.type">video</property>
  <property name="meta.media.0.stream.frame_rate">60</property>
  <property name="meta.media.0.stream.sample_aspect_ratio">0</property>
  <property name="meta.media.0.codec.width">640</property>
  <property name="meta.media.0.codec.height">360</property>
  <property name="meta.media.0.codec.rotate">0</property>
  <property name="meta.media.0.codec.pix_fmt">yuvj420p</property>
  <property name="meta.media.0.codec.sample_aspect_ratio">0</property>
  <property name="meta.media.0.codec.colorspace">601</property>
  <property name="meta.media.0.codec.name">mjpeg</property>
  <property name="meta.media.0.codec.long_name">MJPEG (Motion JPEG)</property>
  <property name="meta.media.0.codec.bit_rate">0</property>
  <property name="meta.attr.0.stream.HANDLER_NAME.markup">VideoHandler</property>
  <property name="meta.attr.0.stream.VENDOR_ID.markup">[0][0][0][0]</property>
  <property name="meta.attr.0.stream.ENCODER.markup">Lavc60.3.100 mjpeg</property>
  <property name="meta.attr.0.stream.DURATION.markup">00:00:01.000000000</property>
  <property name="meta.attr.COMMENT.markup">Rendered with Manim Community v0.17.2</property>
  <property name="meta.attr.MAJOR_BRAND.markup">isom</property>
  <property name="meta.attr.MINOR_VERSION.markup">512</property>
  <property name="meta.attr.COMPATIBLE_BRANDS.markup">isomiso2avc1mp41</property>
  <property name="meta.attr.ENCODER.markup">Lavf60.3.100</property>
  <property name="seekable">1</property>
  <property name="meta.media.sample_aspect_num">1</property>
  <property name="meta.media.sample_aspect_den">1</property>
  <property name="aspect_ratio">1</property>
  <property name="format">3</property>
  <property name="audio_index">-1</property>
  <property name="video_index">0</property>
  <property name="mute_on_pause">0</property>
  <property name="mlt_service">avformat-novalidate</property>
  <property name="kdenlive:clipname">6.mp4</property>
  <property name="kdenlive:clip_type">2</property>
  <property name="kdenlive:folderid">528</property>
  <property name="kdenlive:id">451</property>
  <property name="kdenlive:file_size">328709</property>
  <property name="kdenlive:file_hash">62e95a43bb6cdf7f74bc8c4d75d3ae67</property>
  <property name="kdenlive:proxy">/home/xiaoxiae/.cache/kdenlive/proxy/62e95a43bb6cdf7f74bc8c4d75d3ae67.mkv</property>
  <property name="kdenlive:originalurl">video/Intro/6.mp4</property>
  <property name="kdenlive:original.mlt_type">producer</property>
  <property name="kdenlive:original.in">00:00:00.000</property>
  <property name="kdenlive:original.out">00:00:00.983</property>
  <property name="kdenlive:original.length">60</property>
  <property name="kdenlive:original.eof">pause</property>
  <property name="kdenlive:original.resource">video/Intro/6.mp4</property>
  <property name="kdenlive:original.meta.media.nb_streams">1</property>
  <property name="kdenlive:original.meta.media.0.stream.type">video</property>
  <property name="kdenlive:original.meta.media.0.stream.frame_rate">60</property>
  <property name="kdenlive:original.meta.media.0.stream.sample_aspect_ratio">0</property>
  <property name="kdenlive:original.meta.media.0.codec.width">3840</property>
  <property name="kdenlive:original.meta.media.0.codec.height">2160</property>
  <property name="kdenlive:original.meta.media.0.codec.rotate">0</property>
  <property name="kdenlive:original.meta.media.0.codec.pix_fmt">yuv420p</property>
  <property name="kdenlive:original.meta.media.0.codec.sample_aspect_ratio">0</property>
  <property name="kdenlive:original.meta.media.0.codec.colorspace">709</property>
  <property name="kdenlive:original.meta.media.0.codec.name">h264</property>
  <property name="kdenlive:original.meta.media.0.codec.long_name">H.264 / AVC / MPEG-4 AVC / MPEG-4 part 10</property>
  <property name="kdenlive:original.meta.media.0.codec.bit_rate">2618800</property>
  <property name="kdenlive:original.meta.attr.0.stream.handler_name.markup">VideoHandler</property>
  <property name="kdenlive:original.meta.attr.0.stream.vendor_id.markup">[0][0][0][0]</property>
  <property name="kdenlive:original.meta.attr.0.stream.encoder.markup">Lavc60.3.100 libx264</property>
  <property name="kdenlive:original.meta.attr.major_brand.markup">isom</property>
  <property name="kdenlive:original.meta.attr.minor_version.markup">512</property>
  <property name="kdenlive:original.meta.attr.compatible_brands.markup">isomiso2avc1mp41</property>
  <property name="kdenlive:original.meta.attr.encoder.markup">Lavf60.3.100</property>
  <property name="kdenlive:original.meta.attr.comment.markup">Rendered with Manim Community v0.17.2</property>
  <property name="kdenlive:original.seekable">1</property>
  <property name="kdenlive:original.width">3840</property>
  <property name="kdenlive:original.height">2160</property>
  <property name="kdenlive:original.meta.media.sample_aspect_num">1</property>
  <property name="kdenlive:original.meta.media.sample_aspect_den">1</property>
  <property name="kdenlive:original.aspect_ratio">1</property>
  <property name="kdenlive:original.format">3</property>
  <property name="kdenlive:original.audio_index">-1</property>
  <property name="kdenlive:original.video_index">0</property>
  <property name="kdenlive:original.mute_on_pause">0</property>
  <property name="kdenlive:original.mlt_service">avformat-novalidate</property>
  <property name="kdenlive:original.meta.media.frame_rate_num">60</property>
  <property name="kdenlive:original.meta.media.frame_rate_den">1</property>
  <property name="kdenlive:original.meta.media.colorspace">709</property>
  <property name="kdenlive:original.meta.media.color_trc">2</property>
  <property name="kdenlive:original.meta.media.has_b_frames">2</property>
  <property name="kdenlive:original.meta.media.width">3840</property>
  <property name="kdenlive:original.meta.media.height">2160</property>
  <property name="kdenlive:original.meta.media.color_range">mpeg</property>
  <property name="kdenlive:original.meta.media.top_field_first">0</property>
  <property name="kdenlive:original.meta.media.progressive">1</property>
  <property name="kdenlive:original.kdenlive:clip_type">2</property>
  <property name="kdenlive:original.kdenlive:folderid">528</property>
  <property name="kdenlive:original.kdenlive:id">561</property>
  <property name="kdenlive:original.kdenlive:file_size">328709</property>
  <property name="kdenlive:original.kdenlive:file_hash">62e95a43bb6cdf7f74bc8c4d75d3ae67</property>
  <property name="kdenlive:original.backup">1</property>
  <property name="meta.media.frame_rate_num">60</property>
  <property name="meta.media.frame_rate_den">1</property>
  <property name="meta.media.colorspace">601</property>
  <property name="meta.media.color_trc">2</property>
  <property name="meta.media.has_b_frames">0</property>
  <property name="meta.media.width">640</property>
  <property name="meta.media.height">360</property>
  <property name="meta.media.color_range">full</property>
  <property name="meta.media.top_field_first">0</property>
  <property name="meta.media.progressive">1</property>
 </producer>
 <producer id="producer375" in="00:00:00.000" out="00:00:00.983">
  <property name="length">60</property>
  <property name="eof">pause</property>
  <property name="resource">/home/xiaoxiae/.cache/kdenlive/proxy/5c302b448367704efb10a43497e8787c.mkv</property>
  <property name="meta.media.nb_streams">1</property>
  <property name="meta.media.0.stream.type">video</property>
  <property name="meta.media.0.stream.frame_rate">60</property>
  <property name="meta.media.0.stream.sample_aspect_ratio">0</property>
  <property name="meta.media.0.codec.width">640</property>
  <property name="meta.media.0.codec.height">360</property>
  <property name="meta.media.0.codec.rotate">0</property>
  <property name="meta.media.0.codec.pix_fmt">yuvj420p</property>
  <property name="meta.media.0.codec.sample_aspect_ratio">0</property>
  <property name="meta.media.0.codec.colorspace">601</property>
  <property name="meta.media.0.codec.name">mjpeg</property>
  <property name="meta.media.0.codec.long_name">MJPEG (Motion JPEG)</property>
  <property name="meta.media.0.codec.bit_rate">0</property>
  <property name="meta.attr.0.stream.HANDLER_NAME.markup">VideoHandler</property>
  <property name="meta.attr.0.stream.VENDOR_ID.markup">[0][0][0][0]</property>
  <property name="meta.attr.0.stream.ENCODER.markup">Lavc60.3.100 mjpeg</property>
  <property name="meta.attr.0.stream.DURATION.markup">00:00:01.000000000</property>
  <property name="meta.attr.COMMENT.markup">Rendered with Manim Community v0.17.2</property>
  <property name="meta.attr.MAJOR_BRAND.markup">isom</property>
  <property name="meta.attr.MINOR_VERSION.markup">512</property>
  <property name="meta.attr.COMPATIBLE_BRANDS.markup">isomiso2avc1mp41</property>
  <property name="meta.attr.ENCODER.markup">Lavf60.3.100</property>
  <property name="seekable">1</property>
  <property name="meta.media.sample_aspect_num">1</property>
  <property name="meta.media.sample_aspect_den">1</property>
  <property name="aspect_ratio">1</property>
  <property name="format">3</property>
  <property name="audio_index">-1</property>
  <property name="video_index">0</property>
  <property name="mute_on_pause">0</property>
  <property name="mlt_service">avformat-novalidate</property>
  <property name="kdenlive:clipname">7.mp4</property>
  <property name="kdenlive:clip_type">2</property>
  <property name="kdenlive:folderid">528</property>
  <property name="kdenlive:id">452</property>
  <property name="kdenlive:file_size">66469</property>
  <property name="kdenlive:file_hash">5c302b448367704efb10a43497e8787c</property>
  <property name="kdenlive:proxy">/home/xiaoxiae/.cache/kdenlive/proxy/5c302b448367704efb10a43497e8787c.mkv</property>
  <property name="kdenlive:originalurl">video/Intro/7.mp4</property>
  <property name="kdenlive:original.mlt_type">producer</property>
  <property name="kdenlive:original.in">00:00:00.000</property>
  <property name="kdenlive:original.out">00:00:00.983</property>
  <property name="kdenlive:original.length">60</property>
  <property name="kdenlive:original.eof">pause</property>
  <property name="kdenlive:original.resource">video/Intro/7.mp4</property>
  <property name="kdenlive:original.meta.media.nb_streams">1</property>
  <property name="kdenlive:original.meta.media.0.stream.type">video</property>
  <property name="kdenlive:original.meta.media.0.stream.frame_rate">60</property>
  <property name="kdenlive:original.meta.media.0.stream.sample_aspect_ratio">0</property>
  <property name="kdenlive:original.meta.media.0.codec.width">3840</property>
  <property name="kdenlive:original.meta.media.0.codec.height">2160</property>
  <property name="kdenlive:original.meta.media.0.codec.rotate">0</property>
  <property name="kdenlive:original.meta.media.0.codec.pix_fmt">yuv420p</property>
  <property name="kdenlive:original.meta.media.0.codec.sample_aspect_ratio">0</property>
  <property name="kdenlive:original.meta.media.0.codec.colorspace">709</property>
  <property name="kdenlive:original.meta.media.0.codec.name">h264</property>
  <property name="kdenlive:original.meta.media.0.codec.long_name">H.264 / AVC / MPEG-4 AVC / MPEG-4 part 10</property>
  <property name="kdenlive:original.meta.media.0.codec.bit_rate">518704</property>
  <property name="kdenlive:original.meta.attr.0.stream.handler_name.markup">VideoHandler</property>
  <property name="kdenlive:original.meta.attr.0.stream.vendor_id.markup">[0][0][0][0]</property>
  <property name="kdenlive:original.meta.attr.0.stream.encoder.markup">Lavc60.3.100 libx264</property>
  <property name="kdenlive:original.meta.attr.major_brand.markup">isom</property>
  <property name="kdenlive:original.meta.attr.minor_version.markup">512</property>
  <property name="kdenlive:original.meta.attr.compatible_brands.markup">isomiso2avc1mp41</property>
  <property name="kdenlive:original.meta.attr.encoder.markup">Lavf60.3.100</property>
  <property name="kdenlive:original.meta.attr.comment.markup">Rendered with Manim Community v0.17.2</property>
  <property name="kdenlive:original.seekable">1</property>
  <property name="kdenlive:original.width">3840</property>
  <property name="kdenlive:original.height">2160</property>
  <property name="kdenlive:original.meta.media.sample_aspect_num">1</property>
  <property name="kdenlive:original.meta.media.sample_aspect_den">1</property>
  <property name="kdenlive:original.aspect_ratio">1</property>
  <property name="kdenlive:original.format">3</property>
  <property name="kdenlive:original.audio_index">-1</property>
  <property name="kdenlive:original.video_index">0</property>
  <property name="kdenlive:original.mute_on_pause">0</property>
  <property name="kdenlive:original.mlt_service">avformat-novalidate</property>
  <property name="kdenlive:original.meta.media.frame_rate_num">60</property>
  <property name="kdenlive:original.meta.media.frame_rate_den">1</property>
  <property name="kdenlive:original.meta.media.colorspace">709</property>
  <property name="kdenlive:original.meta.media.color_trc">2</property>
  <property name="kdenlive:original.meta.media.has_b_frames">2</property>
  <property name="kdenlive:original.meta.media.width">3840</property>
  <property name="kdenlive:original.meta.media.height">2160</property>
  <property name="kdenlive:original.meta.media.color_range">mpeg</property>
  <property name="kdenlive:original.meta.media.top_field_first">0</property>
  <property name="kdenlive:original.meta.media.progressive">1</property>
  <property name="kdenlive:original.kdenlive:clip_type">2</property>
  <property name="kdenlive:original.kdenlive:folderid">528</property>
  <property name="kdenlive:original.kdenlive:id">562</property>
  <property name="kdenlive:original.kdenlive:file_size">66469</property>
  <property name="kdenlive:original.kdenlive:file_hash">5c302b448367704efb10a43497e8787c</property>
  <property name="kdenlive:original.backup">1</property>
  <property name="meta.media.frame_rate_num">60</property>
  <property name="meta.media.frame_rate_den">1</property>
  <property name="meta.media.colorspace">601</property>
  <property name="meta.media.color_trc">2</property>
  <property name="meta.media.has_b_frames">0</property>
  <property name="meta.media.width">640</property>
  <property name="meta.media.height">360</property>
  <property name="meta.media.color_range">full</property>
  <property name="meta.media.top_field_first">0</property>
  <property name="meta.media.progressive">1</property>
 </producer>
 <producer id="producer374" in="00:00:00.000" out="00:00:00.983">
  <property name="length">60</property>
  <property name="eof">pause</property>
  <property name="resource">/home/xiaoxiae/.cache/kdenlive/proxy/3ab8df48e48039209c742fea3fe6230b.mkv</property>
  <property name="meta.media.nb_streams">1</property>
  <property name="meta.media.0.stream.type">video</property>
  <property name="meta.media.0.stream.frame_rate">60</property>
  <property name="meta.media.0.stream.sample_aspect_ratio">0</property>
  <property name="meta.media.0.codec.width">640</property>
  <property name="meta.media.0.codec.height">360</property>
  <property name="meta.media.0.codec.rotate">0</property>
  <property name="meta.media.0.codec.pix_fmt">yuvj420p</property>
  <property name="meta.media.0.codec.sample_aspect_ratio">0</property>
  <property name="meta.media.0.codec.colorspace">601</property>
  <property name="meta.media.0.codec.name">mjpeg</property>
  <property name="meta.media.0.codec.long_name">MJPEG (Motion JPEG)</property>
  <property name="meta.media.0.codec.bit_rate">0</property>
  <property name="meta.attr.0.stream.HANDLER_NAME.markup">VideoHandler</property>
  <property name="meta.attr.0.stream.VENDOR_ID.markup">[0][0][0][0]</property>
  <property name="meta.attr.0.stream.ENCODER.markup">Lavc60.3.100 mjpeg</property>
  <property name="meta.attr.0.stream.DURATION.markup">00:00:01.000000000</property>
  <property name="meta.attr.COMMENT.markup">Rendered with Manim Community v0.17.2</property>
  <property name="meta.attr.MAJOR_BRAND.markup">isom</property>
  <property name="meta.attr.MINOR_VERSION.markup">512</property>
  <property name="meta.attr.COMPATIBLE_BRANDS.markup">isomiso2avc1mp41</property>
  <property name="meta.attr.ENCODER.markup">Lavf60.3.100</property>
  <property name="seekable">1</property>
  <property name="meta.media.sample_aspect_num">1</property>
  <property name="meta.media.sample_aspect_den">1</property>
  <property name="aspect_ratio">1</property>
  <property name="format">3</property>
  <property name="audio_index">-1</property>
  <property name="video_index">0</property>
  <property name="mute_on_pause">0</property>
  <property name="mlt_service">avformat-novalidate</property>
  <property name="kdenlive:clipname">8.mp4</property>
  <property name="kdenlive:clip_type">2</property>
  <property name="kdenlive:folderid">528</property>
  <property name="kdenlive:id">453</property>
  <property name="kdenlive:file_size">88898</property>
  <property name="kdenlive:file_hash">3ab8df48e48039209c742fea3fe6230b</property>
  <property name="kdenlive:proxy">/home/xiaoxiae/.cache/kdenlive/proxy/3ab8df48e48039209c742fea3fe6230b.mkv</property>
  <property name="kdenlive:originalurl">video/Intro/8.mp4</property>
  <property name="kdenlive:original.mlt_type">producer</property>
  <property name="kdenlive:original.in">00:00:00.000</property>
  <property name="kdenlive:original.out">00:00:00.983</property>
  <property name="kdenlive:original.length">60</property>
  <property name="kdenlive:original.eof">pause</property>
  <property name="kdenlive:original.resource">video/Intro/8.mp4</property>
  <property name="kdenlive:original.meta.media.nb_streams">1</property>
  <property name="kdenlive:original.meta.media.0.stream.type">video</property>
  <property name="kdenlive:original.meta.media.0.stream.frame_rate">60</property>
  <property name="kdenlive:original.meta.media.0.stream.sample_aspect_ratio">0</property>
  <property name="kdenlive:original.meta.media.0.codec.width">3840</property>
  <property name="kdenlive:original.meta.media.0.codec.height">2160</property>
  <property name="kdenlive:original.meta.media.0.codec.rotate">0</property>
  <property name="kdenlive:original.meta.media.0.codec.pix_fmt">yuv420p</property>
  <property name="kdenlive:original.meta.media.0.codec.sample_aspect_ratio">0</property>
  <property name="kdenlive:original.meta.media.0.codec.colorspace">709</property>
  <property name="kdenlive:original.meta.media.0.codec.name">h264</property>
  <property name="kdenlive:original.meta.media.0.codec.long_name">H.264 / AVC / MPEG-4 AVC / MPEG-4 part 10</property>
  <property name="kdenlive:original.meta.media.0.codec.bit_rate">698072</property>
  <property name="kdenlive:original.meta.attr.0.stream.handler_name.markup">VideoHandler</property>
  <property name="kdenlive:original.meta.attr.0.stream.vendor_id.markup">[0][0][0][0]</property>
  <property name="kdenlive:original.meta.attr.0.stream.encoder.markup">Lavc60.3.100 libx264</property>
  <property name="kdenlive:original.meta.attr.major_brand.markup">isom</property>
  <property name="kdenlive:original.meta.attr.minor_version.markup">512</property>
  <property name="kdenlive:original.meta.attr.compatible_brands.markup">isomiso2avc1mp41</property>
  <property name="kdenlive:original.meta.attr.encoder.markup">Lavf60.3.100</property>
  <property name="kdenlive:original.meta.attr.comment.markup">Rendered with Manim Community v0.17.2</property>
  <property name="kdenlive:original.seekable">1</property>
  <property name="kdenlive:original.width">3840</property>
  <property name="kdenlive:original.height">2160</property>
  <property name="kdenlive:original.meta.media.sample_aspect_num">1</property>
  <property name="kdenlive:original.meta.media.sample_aspect_den">1</property>
  <property name="kdenlive:original.aspect_ratio">1</property>
  <property name="kdenlive:original.format">3</property>
  <property name="kdenlive:original.audio_index">-1</property>
  <property name="kdenlive:original.video_index">0</property>
  <property name="kdenlive:original.mute_on_pause">0</property>
  <property name="kdenlive:original.mlt_service">avformat-novalidate</property>
  <property name="kdenlive:original.meta.media.frame_rate_num">60</property>
  <property name="kdenlive:original.meta.media.frame_rate_den">1</property>
  <property name="kdenlive:original.meta.media.colorspace">709</property>
  <property name="kdenlive:original.meta.media.color_trc">2</property>
  <property name="kdenlive:original.meta.media.has_b_frames">2</property>
  <property name="kdenlive:original.meta.media.width">3840</property>
  <property name="kdenlive:original.meta.media.height">2160</property>
  <property name="kdenlive:original.meta.media.color_range">mpeg</property>
  <property name="kdenlive:original.meta.media.top_field_first">0</property>
  <property name="kdenlive:original.meta.media.progressive">1</property>
  <property name="kdenlive:original.kdenlive:clip_type">2</property>
  <property name="kdenlive:original.kdenlive:folderid">528</property>
  <property name="kdenlive:original.kdenlive:id">563</property>
  <property name="kdenlive:original.kdenlive:file_size">88898</property>
  <property name="kdenlive:original.kdenlive:file_hash">3ab8df48e48039209c742fea3fe6230b</property>
  <property name="kdenlive:original.backup">1</property>
  <property name="meta.media.frame_rate_num">60</property>
  <property name="meta.media.frame_rate_den">1</property>
  <property name="meta.media.colorspace">601</property>
  <property name="meta.media.color_trc">2</property>
  <property name="meta.media.has_b_frames">0</property>
  <property name="meta.media.width">640</property>
  <property name="meta.media.height">360</property>
  <property name="meta.media.color_range">full</property>
  <property name="meta.media.top_field_first">0</property>
  <property name="meta.media.progressive">1</property>
 </producer>
 <producer id="producer376" in="00:00:00.000" out="00:00:00.983">
  <property name="length">60</property>
  <property name="eof">pause</property>
  <property name="resource">/home/xiaoxiae/.cache/kdenlive/proxy/6c6c689df9d6bb60931861e92b5775e4.mkv</property>
  <property name="meta.media.nb_streams">1</property>
  <property name="meta.media.0.stream.type">video</property>
  <property name="meta.media.0.stream.frame_rate">60</property>
  <property name="meta.media.0.stream.sample_aspect_ratio">0</property>
  <property name="meta.media.0.codec.width">640</property>
  <property name="meta.media.0.codec.height">360</property>
  <property name="meta.media.0.codec.rotate">0</property>
  <property name="meta.media.0.codec.pix_fmt">yuvj420p</property>
  <property name="meta.media.0.codec.sample_aspect_ratio">0</property>
  <property name="meta.media.0.codec.colorspace">601</property>
  <property name="meta.media.0.codec.name">mjpeg</property>
  <property name="meta.media.0.codec.long_name">MJPEG (Motion JPEG)</property>
  <property name="meta.media.0.codec.bit_rate">0</property>
  <property name="meta.attr.0.stream.HANDLER_NAME.markup">VideoHandler</property>
  <property name="meta.attr.0.stream.VENDOR_ID.markup">[0][0][0][0]</property>
  <property name="meta.attr.0.stream.ENCODER.markup">Lavc60.3.100 mjpeg</property>
  <property name="meta.attr.0.stream.DURATION.markup">00:00:01.000000000</property>
  <property name="meta.attr.COMMENT.markup">Rendered with Manim Community v0.17.2</property>
  <property name="meta.attr.MAJOR_BRAND.markup">isom</property>
  <property name="meta.attr.MINOR_VERSION.markup">512</property>
  <property name="meta.attr.COMPATIBLE_BRANDS.markup">isomiso2avc1mp41</property>
  <property name="meta.attr.ENCODER.markup">Lavf60.3.100</property>
  <property name="seekable">1</property>
  <property name="meta.media.sample_aspect_num">1</property>
  <property name="meta.media.sample_aspect_den">1</property>
  <property name="aspect_ratio">1</property>
  <property name="format">3</property>
  <property name="audio_index">-1</property>
  <property name="video_index">0</property>
  <property name="mute_on_pause">0</property>
  <property name="mlt_service">avformat-novalidate</property>
  <property name="kdenlive:clipname">9.mp4</property>
  <property name="kdenlive:clip_type">2</property>
  <property name="kdenlive:folderid">528</property>
  <property name="kdenlive:id">454</property>
  <property name="kdenlive:file_size">125417</property>
  <property name="kdenlive:file_hash">6c6c689df9d6bb60931861e92b5775e4</property>
  <property name="kdenlive:proxy">/home/xiaoxiae/.cache/kdenlive/proxy/6c6c689df9d6bb60931861e92b5775e4.mkv</property>
  <property name="kdenlive:originalurl">video/Intro/9.mp4</property>
  <property name="kdenlive:original.mlt_type">producer</property>
  <property name="kdenlive:original.in">00:00:00.000</property>
  <property name="kdenlive:original.out">00:00:00.983</property>
  <property name="kdenlive:original.length">60</property>
  <property name="kdenlive:original.eof">pause</property>
  <property name="kdenlive:original.resource">video/Intro/9.mp4</property>
  <property name="kdenlive:original.meta.media.nb_streams">1</property>
  <property name="kdenlive:original.meta.media.0.stream.type">video</property>
  <property name="kdenlive:original.meta.media.0.stream.frame_rate">60</property>
  <property name="kdenlive:original.meta.media.0.stream.sample_aspect_ratio">0</property>
  <property name="kdenlive:original.meta.media.0.codec.width">3840</property>
  <property name="kdenlive:original.meta.media.0.codec.height">2160</property>
  <property name="kdenlive:original.meta.media.0.codec.rotate">0</property>
  <property name="kdenlive:original.meta.media.0.codec.pix_fmt">yuv420p</property>
  <property name="kdenlive:original.meta.media.0.codec.sample_aspect_ratio">0</property>
  <property name="kdenlive:original.meta.media.0.codec.colorspace">709</property>
  <property name="kdenlive:original.meta.media.0.codec.name">h264</property>
  <property name="kdenlive:original.meta.media.0.codec.long_name">H.264 / AVC / MPEG-4 AVC / MPEG-4 part 10</property>
  <property name="kdenlive:original.meta.media.0.codec.bit_rate">990544</property>
  <property name="kdenlive:original.meta.attr.0.stream.handler_name.markup">VideoHandler</property>
  <property name="kdenlive:original.meta.attr.0.stream.vendor_id.markup">[0][0][0][0]</property>
  <property name="kdenlive:original.meta.attr.0.stream.encoder.markup">Lavc60.3.100 libx264</property>
  <property name="kdenlive:original.meta.attr.major_brand.markup">isom</property>
  <property name="kdenlive:original.meta.attr.minor_version.markup">512</property>
  <property name="kdenlive:original.meta.attr.compatible_brands.markup">isomiso2avc1mp41</property>
  <property name="kdenlive:original.meta.attr.encoder.markup">Lavf60.3.100</property>
  <property name="kdenlive:original.meta.attr.comment.markup">Rendered with Manim Community v0.17.2</property>
  <property name="kdenlive:original.seekable">1</property>
  <property name="kdenlive:original.width">3840</property>
  <property name="kdenlive:original.height">2160</property>
  <property name="kdenlive:original.meta.media.sample_aspect_num">1</property>
  <property name="kdenlive:original.meta.media.sample_aspect_den">1</property>
  <property name="kdenlive:original.aspect_ratio">1</property>
  <property name="kdenlive:original.format">3</property>
  <property name="kdenlive:original.audio_index">-1</property>
  <property name="kdenlive:original.video_index">0</property>
  <property name="kdenlive:original.mute_on_pause">0</property>
  <property name="kdenlive:original.mlt_service">avformat-novalidate</property>
  <property name="kdenlive:original.meta.media.frame_rate_num">60</property>
  <property name="kdenlive:original.meta.media.frame_rate_den">1</property>
  <property name="kdenlive:original.meta.media.colorspace">709</property>
  <property name="kdenlive:original.meta.media.color_trc">2</property>
  <property name="kdenlive:original.meta.media.has_b_frames">2</property>
  <property name="kdenlive:original.meta.media.width">3840</property>
  <property name="kdenlive:original.meta.media.height">2160</property>
  <property name="kdenlive:original.meta.media.color_range">mpeg</property>
  <property name="kdenlive:original.meta.media.top_field_first">0</property>
  <property name="kdenlive:original.meta.media.progressive">1</property>
  <property name="kdenlive:original.kdenlive:clip_type">2</property>
  <property name="kdenlive:original.kdenlive:folderid">528</property>
  <property name="kdenlive:original.kdenlive:id">564</property>
  <property name="kdenlive:original.kdenlive:file_size">125417</property>
  <property name="kdenlive:original.kdenlive:file_hash">6c6c689df9d6bb60931861e92b5775e4</property>
  <property name="kdenlive:original.backup">1</property>
  <property name="meta.media.frame_rate_num">60</property>
  <property name="meta.media.frame_rate_den">1</property>
  <property name="meta.media.colorspace">601</property>
  <property name="meta.media.color_trc">2</property>
  <property name="meta.media.has_b_frames">0</property>
  <property name="meta.media.width">640</property>
  <property name="meta.media.height">360</property>
  <property name="meta.media.color_range">full</property>
  <property name="meta.media.top_field_first">0</property>
  <property name="meta.media.progressive">1</property>
 </producer>
 <producer id="producer377" in="00:00:00.000" out="00:00:02.483">
  <property name="length">150</property>
  <property name="eof">pause</property>
  <property name="resource">/home/xiaoxiae/.cache/kdenlive/proxy/378e2acb3eb878e6c93615f6e6e1ba3b.mkv</property>
  <property name="meta.media.nb_streams">1</property>
  <property name="meta.media.0.stream.type">video</property>
  <property name="meta.media.0.stream.frame_rate">60</property>
  <property name="meta.media.0.stream.sample_aspect_ratio">0</property>
  <property name="meta.media.0.codec.width">640</property>
  <property name="meta.media.0.codec.height">360</property>
  <property name="meta.media.0.codec.rotate">0</property>
  <property name="meta.media.0.codec.pix_fmt">yuvj420p</property>
  <property name="meta.media.0.codec.sample_aspect_ratio">0</property>
  <property name="meta.media.0.codec.colorspace">601</property>
  <property name="meta.media.0.codec.name">mjpeg</property>
  <property name="meta.media.0.codec.long_name">MJPEG (Motion JPEG)</property>
  <property name="meta.media.0.codec.bit_rate">0</property>
  <property name="meta.attr.0.stream.HANDLER_NAME.markup">VideoHandler</property>
  <property name="meta.attr.0.stream.VENDOR_ID.markup">[0][0][0][0]</property>
  <property name="meta.attr.0.stream.ENCODER.markup">Lavc60.3.100 mjpeg</property>
  <property name="meta.attr.0.stream.DURATION.markup">00:00:02.500000000</property>
  <property name="meta.attr.COMMENT.markup">Rendered with Manim Community v0.17.2</property>
  <property name="meta.attr.MAJOR_BRAND.markup">isom</property>
  <property name="meta.attr.MINOR_VERSION.markup">512</property>
  <property name="meta.attr.COMPATIBLE_BRANDS.markup">isomiso2avc1mp41</property>
  <property name="meta.attr.ENCODER.markup">Lavf60.3.100</property>
  <property name="seekable">1</property>
  <property name="meta.media.sample_aspect_num">1</property>
  <property name="meta.media.sample_aspect_den">1</property>
  <property name="aspect_ratio">1</property>
  <property name="format">3</property>
  <property name="audio_index">-1</property>
  <property name="video_index">0</property>
  <property name="mute_on_pause">0</property>
  <property name="mlt_service">avformat-novalidate</property>
  <property name="kdenlive:clipname">1.mp4</property>
  <property name="kdenlive:clip_type">2</property>
  <property name="kdenlive:folderid">565</property>
  <property name="kdenlive:id">455</property>
  <property name="kdenlive:file_size">200728</property>
  <property name="kdenlive:file_hash">378e2acb3eb878e6c93615f6e6e1ba3b</property>
  <property name="kdenlive:proxy">/home/xiaoxiae/.cache/kdenlive/proxy/378e2acb3eb878e6c93615f6e6e1ba3b.mkv</property>
  <property name="kdenlive:originalurl">video/Search/1.mp4</property>
  <property name="kdenlive:original.mlt_type">producer</property>
  <property name="kdenlive:original.in">00:00:00.000</property>
  <property name="kdenlive:original.out">00:00:02.483</property>
  <property name="kdenlive:original.length">150</property>
  <property name="kdenlive:original.eof">pause</property>
  <property name="kdenlive:original.resource">video/Search/1.mp4</property>
  <property name="kdenlive:original.meta.media.nb_streams">1</property>
  <property name="kdenlive:original.meta.media.0.stream.type">video</property>
  <property name="kdenlive:original.meta.media.0.stream.frame_rate">60</property>
  <property name="kdenlive:original.meta.media.0.stream.sample_aspect_ratio">0</property>
  <property name="kdenlive:original.meta.media.0.codec.width">3840</property>
  <property name="kdenlive:original.meta.media.0.codec.height">2160</property>
  <property name="kdenlive:original.meta.media.0.codec.rotate">0</property>
  <property name="kdenlive:original.meta.media.0.codec.pix_fmt">yuv420p</property>
  <property name="kdenlive:original.meta.media.0.codec.sample_aspect_ratio">0</property>
  <property name="kdenlive:original.meta.media.0.codec.colorspace">709</property>
  <property name="kdenlive:original.meta.media.0.codec.name">h264</property>
  <property name="kdenlive:original.meta.media.0.codec.long_name">H.264 / AVC / MPEG-4 AVC / MPEG-4 part 10</property>
  <property name="kdenlive:original.meta.media.0.codec.bit_rate">633628</property>
  <property name="kdenlive:original.meta.attr.0.stream.handler_name.markup">VideoHandler</property>
  <property name="kdenlive:original.meta.attr.0.stream.vendor_id.markup">[0][0][0][0]</property>
  <property name="kdenlive:original.meta.attr.0.stream.encoder.markup">Lavc60.3.100 libx264</property>
  <property name="kdenlive:original.meta.attr.major_brand.markup">isom</property>
  <property name="kdenlive:original.meta.attr.minor_version.markup">512</property>
  <property name="kdenlive:original.meta.attr.compatible_brands.markup">isomiso2avc1mp41</property>
  <property name="kdenlive:original.meta.attr.encoder.markup">Lavf60.3.100</property>
  <property name="kdenlive:original.meta.attr.comment.markup">Rendered with Manim Community v0.17.2</property>
  <property name="kdenlive:original.seekable">1</property>
  <property name="kdenlive:original.width">3840</property>
  <property name="kdenlive:original.height">2160</property>
  <property name="kdenlive:original.meta.media.sample_aspect_num">1</property>
  <property name="kdenlive:original.meta.media.sample_aspect_den">1</property>
  <property name="kdenlive:original.aspect_ratio">1</property>
  <property name="kdenlive:original.format">3</property>
  <property name="kdenlive:original.audio_index">-1</property>
  <property name="kdenlive:original.video_index">0</property>
  <property name="kdenlive:original.mute_on_pause">0</property>
  <property name="kdenlive:original.mlt_service">avformat-novalidate</property>
  <property name="kdenlive:original.meta.media.frame_rate_num">60</property>
  <property name="kdenlive:original.meta.media.frame_rate_den">1</property>
  <property name="kdenlive:original.meta.media.colorspace">709</property>
  <property name="kdenlive:original.meta.media.color_trc">2</property>
  <property name="kdenlive:original.meta.media.has_b_frames">2</property>
  <property name="kdenlive:original.meta.media.width">3840</property>
  <property name="kdenlive:original.meta.media.height">2160</property>
  <property name="kdenlive:original.meta.media.color_range">mpeg</property>
  <property name="kdenlive:original.meta.media.top_field_first">0</property>
  <property name="kdenlive:original.meta.media.progressive">1</property>
  <property name="kdenlive:original.kdenlive:clip_type">2</property>
  <property name="kdenlive:original.kdenlive:folderid">565</property>
  <property name="kdenlive:original.kdenlive:id">566</property>
  <property name="kdenlive:original.kdenlive:file_size">200728</property>
  <property name="kdenlive:original.kdenlive:file_hash">378e2acb3eb878e6c93615f6e6e1ba3b</property>
  <property name="kdenlive:original.backup">1</property>
  <property name="meta.media.frame_rate_num">60</property>
  <property name="meta.media.frame_rate_den">1</property>
  <property name="meta.media.colorspace">601</property>
  <property name="meta.media.color_trc">2</property>
  <property name="meta.media.has_b_frames">0</property>
  <property name="meta.media.width">640</property>
  <property name="meta.media.height">360</property>
  <property name="meta.media.color_range">full</property>
  <property name="meta.media.top_field_first">0</property>
  <property name="meta.media.progressive">1</property>
 </producer>
 <producer id="producer378" in="00:00:00.000" out="00:00:00.983">
  <property name="length">60</property>
  <property name="eof">pause</property>
  <property name="resource">/home/xiaoxiae/.cache/kdenlive/proxy/21b5c798fa1dfbd7897dd47e86c6a0a0.mkv</property>
  <property name="meta.media.nb_streams">1</property>
  <property name="meta.media.0.stream.type">video</property>
  <property name="meta.media.0.stream.frame_rate">60</property>
  <property name="meta.media.0.stream.sample_aspect_ratio">0</property>
  <property name="meta.media.0.codec.width">640</property>
  <property name="meta.media.0.codec.height">360</property>
  <property name="meta.media.0.codec.rotate">0</property>
  <property name="meta.media.0.codec.pix_fmt">yuvj420p</property>
  <property name="meta.media.0.codec.sample_aspect_ratio">0</property>
  <property name="meta.media.0.codec.colorspace">601</property>
  <property name="meta.media.0.codec.name">mjpeg</property>
  <property name="meta.media.0.codec.long_name">MJPEG (Motion JPEG)</property>
  <property name="meta.media.0.codec.bit_rate">0</property>
  <property name="meta.attr.0.stream.HANDLER_NAME.markup">VideoHandler</property>
  <property name="meta.attr.0.stream.VENDOR_ID.markup">[0][0][0][0]</property>
  <property name="meta.attr.0.stream.ENCODER.markup">Lavc60.3.100 mjpeg</property>
  <property name="meta.attr.0.stream.DURATION.markup">00:00:01.000000000</property>
  <property name="meta.attr.COMMENT.markup">Rendered with Manim Community v0.17.2</property>
  <property name="meta.attr.MAJOR_BRAND.markup">isom</property>
  <property name="meta.attr.MINOR_VERSION.markup">512</property>
  <property name="meta.attr.COMPATIBLE_BRANDS.markup">isomiso2avc1mp41</property>
  <property name="meta.attr.ENCODER.markup">Lavf60.3.100</property>
  <property name="seekable">1</property>
  <property name="meta.media.sample_aspect_num">1</property>
  <property name="meta.media.sample_aspect_den">1</property>
  <property name="aspect_ratio">1</property>
  <property name="format">3</property>
  <property name="audio_index">-1</property>
  <property name="video_index">0</property>
  <property name="mute_on_pause">0</property>
  <property name="mlt_service">avformat-novalidate</property>
  <property name="kdenlive:clipname">10.mp4</property>
  <property name="kdenlive:clip_type">2</property>
  <property name="kdenlive:folderid">565</property>
  <property name="kdenlive:id">456</property>
  <property name="kdenlive:file_size">64850</property>
  <property name="kdenlive:file_hash">21b5c798fa1dfbd7897dd47e86c6a0a0</property>
  <property name="kdenlive:proxy">/home/xiaoxiae/.cache/kdenlive/proxy/21b5c798fa1dfbd7897dd47e86c6a0a0.mkv</property>
  <property name="kdenlive:originalurl">video/Search/10.mp4</property>
  <property name="kdenlive:original.mlt_type">producer</property>
  <property name="kdenlive:original.in">00:00:00.000</property>
  <property name="kdenlive:original.out">00:00:00.983</property>
  <property name="kdenlive:original.length">60</property>
  <property name="kdenlive:original.eof">pause</property>
  <property name="kdenlive:original.resource">video/Search/10.mp4</property>
  <property name="kdenlive:original.meta.media.nb_streams">1</property>
  <property name="kdenlive:original.meta.media.0.stream.type">video</property>
  <property name="kdenlive:original.meta.media.0.stream.frame_rate">60</property>
  <property name="kdenlive:original.meta.media.0.stream.sample_aspect_ratio">0</property>
  <property name="kdenlive:original.meta.media.0.codec.width">3840</property>
  <property name="kdenlive:original.meta.media.0.codec.height">2160</property>
  <property name="kdenlive:original.meta.media.0.codec.rotate">0</property>
  <property name="kdenlive:original.meta.media.0.codec.pix_fmt">yuv420p</property>
  <property name="kdenlive:original.meta.media.0.codec.sample_aspect_ratio">0</property>
  <property name="kdenlive:original.meta.media.0.codec.colorspace">709</property>
  <property name="kdenlive:original.meta.media.0.codec.name">h264</property>
  <property name="kdenlive:original.meta.media.0.codec.long_name">H.264 / AVC / MPEG-4 AVC / MPEG-4 part 10</property>
  <property name="kdenlive:original.meta.media.0.codec.bit_rate">505752</property>
  <property name="kdenlive:original.meta.attr.0.stream.handler_name.markup">VideoHandler</property>
  <property name="kdenlive:original.meta.attr.0.stream.vendor_id.markup">[0][0][0][0]</property>
  <property name="kdenlive:original.meta.attr.0.stream.encoder.markup">Lavc60.3.100 libx264</property>
  <property name="kdenlive:original.meta.attr.major_brand.markup">isom</property>
  <property name="kdenlive:original.meta.attr.minor_version.markup">512</property>
  <property name="kdenlive:original.meta.attr.compatible_brands.markup">isomiso2avc1mp41</property>
  <property name="kdenlive:original.meta.attr.encoder.markup">Lavf60.3.100</property>
  <property name="kdenlive:original.meta.attr.comment.markup">Rendered with Manim Community v0.17.2</property>
  <property name="kdenlive:original.seekable">1</property>
  <property name="kdenlive:original.width">3840</property>
  <property name="kdenlive:original.height">2160</property>
  <property name="kdenlive:original.meta.media.sample_aspect_num">1</property>
  <property name="kdenlive:original.meta.media.sample_aspect_den">1</property>
  <property name="kdenlive:original.aspect_ratio">1</property>
  <property name="kdenlive:original.format">3</property>
  <property name="kdenlive:original.audio_index">-1</property>
  <property name="kdenlive:original.video_index">0</property>
  <property name="kdenlive:original.mute_on_pause">0</property>
  <property name="kdenlive:original.mlt_service">avformat-novalidate</property>
  <property name="kdenlive:original.meta.media.frame_rate_num">60</property>
  <property name="kdenlive:original.meta.media.frame_rate_den">1</property>
  <property name="kdenlive:original.meta.media.colorspace">709</property>
  <property name="kdenlive:original.meta.media.color_trc">2</property>
  <property name="kdenlive:original.meta.media.has_b_frames">2</property>
  <property name="kdenlive:original.meta.media.width">3840</property>
  <property name="kdenlive:original.meta.media.height">2160</property>
  <property name="kdenlive:original.meta.media.color_range">mpeg</property>
  <property name="kdenlive:original.meta.media.top_field_first">0</property>
  <property name="kdenlive:original.meta.media.progressive">1</property>
  <property name="kdenlive:original.kdenlive:clip_type">2</property>
  <property name="kdenlive:original.kdenlive:folderid">565</property>
  <property name="kdenlive:original.kdenlive:id">567</property>
  <property name="kdenlive:original.kdenlive:file_size">64850</property>
  <property name="kdenlive:original.kdenlive:file_hash">21b5c798fa1dfbd7897dd47e86c6a0a0</property>
  <property name="kdenlive:original.backup">1</property>
  <property name="meta.media.frame_rate_num">60</property>
  <property name="meta.media.frame_rate_den">1</property>
  <property name="meta.media.colorspace">601</property>
  <property name="meta.media.color_trc">2</property>
  <property name="meta.media.has_b_frames">0</property>
  <property name="meta.media.width">640</property>
  <property name="meta.media.height">360</property>
  <property name="meta.media.color_range">full</property>
  <property name="meta.media.top_field_first">0</property>
  <property name="meta.media.progressive">1</property>
 </producer>
 <producer id="producer379" in="00:00:00.000" out="00:00:00.983">
  <property name="length">60</property>
  <property name="eof">pause</property>
  <property name="resource">/home/xiaoxiae/.cache/kdenlive/proxy/89b4977c7979c0e6e436140be9e402c5.mkv</property>
  <property name="meta.media.nb_streams">1</property>
  <property name="meta.media.0.stream.type">video</property>
  <property name="meta.media.0.stream.frame_rate">60</property>
  <property name="meta.media.0.stream.sample_aspect_ratio">0</property>
  <property name="meta.media.0.codec.width">640</property>
  <property name="meta.media.0.codec.height">360</property>
  <property name="meta.media.0.codec.rotate">0</property>
  <property name="meta.media.0.codec.pix_fmt">yuvj420p</property>
  <property name="meta.media.0.codec.sample_aspect_ratio">0</property>
  <property name="meta.media.0.codec.colorspace">601</property>
  <property name="meta.media.0.codec.name">mjpeg</property>
  <property name="meta.media.0.codec.long_name">MJPEG (Motion JPEG)</property>
  <property name="meta.media.0.codec.bit_rate">0</property>
  <property name="meta.attr.0.stream.HANDLER_NAME.markup">VideoHandler</property>
  <property name="meta.attr.0.stream.VENDOR_ID.markup">[0][0][0][0]</property>
  <property name="meta.attr.0.stream.ENCODER.markup">Lavc60.3.100 mjpeg</property>
  <property name="meta.attr.0.stream.DURATION.markup">00:00:01.000000000</property>
  <property name="meta.attr.COMMENT.markup">Rendered with Manim Community v0.17.2</property>
  <property name="meta.attr.MAJOR_BRAND.markup">isom</property>
  <property name="meta.attr.MINOR_VERSION.markup">512</property>
  <property name="meta.attr.COMPATIBLE_BRANDS.markup">isomiso2avc1mp41</property>
  <property name="meta.attr.ENCODER.markup">Lavf60.3.100</property>
  <property name="seekable">1</property>
  <property name="meta.media.sample_aspect_num">1</property>
  <property name="meta.media.sample_aspect_den">1</property>
  <property name="aspect_ratio">1</property>
  <property name="format">3</property>
  <property name="audio_index">-1</property>
  <property name="video_index">0</property>
  <property name="mute_on_pause">0</property>
  <property name="mlt_service">avformat-novalidate</property>
  <property name="kdenlive:clipname">11.mp4</property>
  <property name="kdenlive:clip_type">2</property>
  <property name="kdenlive:folderid">565</property>
  <property name="kdenlive:id">457</property>
  <property name="kdenlive:file_size">64765</property>
  <property name="kdenlive:file_hash">89b4977c7979c0e6e436140be9e402c5</property>
  <property name="kdenlive:proxy">/home/xiaoxiae/.cache/kdenlive/proxy/89b4977c7979c0e6e436140be9e402c5.mkv</property>
  <property name="kdenlive:originalurl">video/Search/11.mp4</property>
  <property name="kdenlive:original.mlt_type">producer</property>
  <property name="kdenlive:original.in">00:00:00.000</property>
  <property name="kdenlive:original.out">00:00:00.983</property>
  <property name="kdenlive:original.length">60</property>
  <property name="kdenlive:original.eof">pause</property>
  <property name="kdenlive:original.resource">video/Search/11.mp4</property>
  <property name="kdenlive:original.meta.media.nb_streams">1</property>
  <property name="kdenlive:original.meta.media.0.stream.type">video</property>
  <property name="kdenlive:original.meta.media.0.stream.frame_rate">60</property>
  <property name="kdenlive:original.meta.media.0.stream.sample_aspect_ratio">0</property>
  <property name="kdenlive:original.meta.media.0.codec.width">3840</property>
  <property name="kdenlive:original.meta.media.0.codec.height">2160</property>
  <property name="kdenlive:original.meta.media.0.codec.rotate">0</property>
  <property name="kdenlive:original.meta.media.0.codec.pix_fmt">yuv420p</property>
  <property name="kdenlive:original.meta.media.0.codec.sample_aspect_ratio">0</property>
  <property name="kdenlive:original.meta.media.0.codec.colorspace">709</property>
  <property name="kdenlive:original.meta.media.0.codec.name">h264</property>
  <property name="kdenlive:original.meta.media.0.codec.long_name">H.264 / AVC / MPEG-4 AVC / MPEG-4 part 10</property>
  <property name="kdenlive:original.meta.media.0.codec.bit_rate">505328</property>
  <property name="kdenlive:original.meta.attr.0.stream.handler_name.markup">VideoHandler</property>
  <property name="kdenlive:original.meta.attr.0.stream.vendor_id.markup">[0][0][0][0]</property>
  <property name="kdenlive:original.meta.attr.0.stream.encoder.markup">Lavc60.3.100 libx264</property>
  <property name="kdenlive:original.meta.attr.major_brand.markup">isom</property>
  <property name="kdenlive:original.meta.attr.minor_version.markup">512</property>
  <property name="kdenlive:original.meta.attr.compatible_brands.markup">isomiso2avc1mp41</property>
  <property name="kdenlive:original.meta.attr.encoder.markup">Lavf60.3.100</property>
  <property name="kdenlive:original.meta.attr.comment.markup">Rendered with Manim Community v0.17.2</property>
  <property name="kdenlive:original.seekable">1</property>
  <property name="kdenlive:original.width">3840</property>
  <property name="kdenlive:original.height">2160</property>
  <property name="kdenlive:original.meta.media.sample_aspect_num">1</property>
  <property name="kdenlive:original.meta.media.sample_aspect_den">1</property>
  <property name="kdenlive:original.aspect_ratio">1</property>
  <property name="kdenlive:original.format">3</property>
  <property name="kdenlive:original.audio_index">-1</property>
  <property name="kdenlive:original.video_index">0</property>
  <property name="kdenlive:original.mute_on_pause">0</property>
  <property name="kdenlive:original.mlt_service">avformat-novalidate</property>
  <property name="kdenlive:original.meta.media.frame_rate_num">60</property>
  <property name="kdenlive:original.meta.media.frame_rate_den">1</property>
  <property name="kdenlive:original.meta.media.colorspace">709</property>
  <property name="kdenlive:original.meta.media.color_trc">2</property>
  <property name="kdenlive:original.meta.media.has_b_frames">2</property>
  <property name="kdenlive:original.meta.media.width">3840</property>
  <property name="kdenlive:original.meta.media.height">2160</property>
  <property name="kdenlive:original.meta.media.color_range">mpeg</property>
  <property name="kdenlive:original.meta.media.top_field_first">0</property>
  <property name="kdenlive:original.meta.media.progressive">1</property>
  <property name="kdenlive:original.kdenlive:clip_type">2</property>
  <property name="kdenlive:original.kdenlive:folderid">565</property>
  <property name="kdenlive:original.kdenlive:id">568</property>
  <property name="kdenlive:original.kdenlive:file_size">64765</property>
  <property name="kdenlive:original.kdenlive:file_hash">89b4977c7979c0e6e436140be9e402c5</property>
  <property name="kdenlive:original.backup">1</property>
  <property name="meta.media.frame_rate_num">60</property>
  <property name="meta.media.frame_rate_den">1</property>
  <property name="meta.media.colorspace">601</property>
  <property name="meta.media.color_trc">2</property>
  <property name="meta.media.has_b_frames">0</property>
  <property name="meta.media.width">640</property>
  <property name="meta.media.height">360</property>
  <property name="meta.media.color_range">full</property>
  <property name="meta.media.top_field_first">0</property>
  <property name="meta.media.progressive">1</property>
 </producer>
 <producer id="producer380" in="00:00:00.000" out="00:00:00.650">
  <property name="length">40</property>
  <property name="eof">pause</property>
  <property name="resource">/home/xiaoxiae/.cache/kdenlive/proxy/b1b81afe9a923ed199a7cc2a1de23a1f.mkv</property>
  <property name="meta.media.nb_streams">1</property>
  <property name="meta.media.0.stream.type">video</property>
  <property name="meta.media.0.stream.frame_rate">60</property>
  <property name="meta.media.0.stream.sample_aspect_ratio">0</property>
  <property name="meta.media.0.codec.width">640</property>
  <property name="meta.media.0.codec.height">360</property>
  <property name="meta.media.0.codec.rotate">0</property>
  <property name="meta.media.0.codec.pix_fmt">yuvj420p</property>
  <property name="meta.media.0.codec.sample_aspect_ratio">0</property>
  <property name="meta.media.0.codec.colorspace">601</property>
  <property name="meta.media.0.codec.name">mjpeg</property>
  <property name="meta.media.0.codec.long_name">MJPEG (Motion JPEG)</property>
  <property name="meta.media.0.codec.bit_rate">0</property>
  <property name="meta.attr.0.stream.HANDLER_NAME.markup">VideoHandler</property>
  <property name="meta.attr.0.stream.VENDOR_ID.markup">[0][0][0][0]</property>
  <property name="meta.attr.0.stream.ENCODER.markup">Lavc60.3.100 mjpeg</property>
  <property name="meta.attr.0.stream.DURATION.markup">00:00:00.667000000</property>
  <property name="meta.attr.COMMENT.markup">Rendered with Manim Community v0.17.2</property>
  <property name="meta.attr.MAJOR_BRAND.markup">isom</property>
  <property name="meta.attr.MINOR_VERSION.markup">512</property>
  <property name="meta.attr.COMPATIBLE_BRANDS.markup">isomiso2avc1mp41</property>
  <property name="meta.attr.ENCODER.markup">Lavf60.3.100</property>
  <property name="seekable">1</property>
  <property name="meta.media.sample_aspect_num">1</property>
  <property name="meta.media.sample_aspect_den">1</property>
  <property name="aspect_ratio">1</property>
  <property name="format">3</property>
  <property name="audio_index">-1</property>
  <property name="video_index">0</property>
  <property name="mute_on_pause">0</property>
  <property name="mlt_service">avformat-novalidate</property>
  <property name="kdenlive:clipname">12.mp4</property>
  <property name="kdenlive:clip_type">2</property>
  <property name="kdenlive:folderid">565</property>
  <property name="kdenlive:id">458</property>
  <property name="kdenlive:file_size">58014</property>
  <property name="kdenlive:file_hash">b1b81afe9a923ed199a7cc2a1de23a1f</property>
  <property name="kdenlive:proxy">/home/xiaoxiae/.cache/kdenlive/proxy/b1b81afe9a923ed199a7cc2a1de23a1f.mkv</property>
  <property name="kdenlive:originalurl">video/Search/12.mp4</property>
  <property name="kdenlive:original.mlt_type">producer</property>
  <property name="kdenlive:original.in">00:00:00.000</property>
  <property name="kdenlive:original.out">00:00:00.650</property>
  <property name="kdenlive:original.length">40</property>
  <property name="kdenlive:original.eof">pause</property>
  <property name="kdenlive:original.resource">video/Search/12.mp4</property>
  <property name="kdenlive:original.meta.media.nb_streams">1</property>
  <property name="kdenlive:original.meta.media.0.stream.type">video</property>
  <property name="kdenlive:original.meta.media.0.stream.frame_rate">60</property>
  <property name="kdenlive:original.meta.media.0.stream.sample_aspect_ratio">0</property>
  <property name="kdenlive:original.meta.media.0.codec.width">3840</property>
  <property name="kdenlive:original.meta.media.0.codec.height">2160</property>
  <property name="kdenlive:original.meta.media.0.codec.rotate">0</property>
  <property name="kdenlive:original.meta.media.0.codec.pix_fmt">yuv420p</property>
  <property name="kdenlive:original.meta.media.0.codec.sample_aspect_ratio">0</property>
  <property name="kdenlive:original.meta.media.0.codec.colorspace">709</property>
  <property name="kdenlive:original.meta.media.0.codec.name">h264</property>
  <property name="kdenlive:original.meta.media.0.codec.long_name">H.264 / AVC / MPEG-4 AVC / MPEG-4 part 10</property>
  <property name="kdenlive:original.meta.media.0.codec.bit_rate">679668</property>
  <property name="kdenlive:original.meta.attr.0.stream.handler_name.markup">VideoHandler</property>
  <property name="kdenlive:original.meta.attr.0.stream.vendor_id.markup">[0][0][0][0]</property>
  <property name="kdenlive:original.meta.attr.0.stream.encoder.markup">Lavc60.3.100 libx264</property>
  <property name="kdenlive:original.meta.attr.major_brand.markup">isom</property>
  <property name="kdenlive:original.meta.attr.minor_version.markup">512</property>
  <property name="kdenlive:original.meta.attr.compatible_brands.markup">isomiso2avc1mp41</property>
  <property name="kdenlive:original.meta.attr.encoder.markup">Lavf60.3.100</property>
  <property name="kdenlive:original.meta.attr.comment.markup">Rendered with Manim Community v0.17.2</property>
  <property name="kdenlive:original.seekable">1</property>
  <property name="kdenlive:original.width">3840</property>
  <property name="kdenlive:original.height">2160</property>
  <property name="kdenlive:original.meta.media.sample_aspect_num">1</property>
  <property name="kdenlive:original.meta.media.sample_aspect_den">1</property>
  <property name="kdenlive:original.aspect_ratio">1</property>
  <property name="kdenlive:original.format">3</property>
  <property name="kdenlive:original.audio_index">-1</property>
  <property name="kdenlive:original.video_index">0</property>
  <property name="kdenlive:original.mute_on_pause">0</property>
  <property name="kdenlive:original.mlt_service">avformat-novalidate</property>
  <property name="kdenlive:original.meta.media.frame_rate_num">60</property>
  <property name="kdenlive:original.meta.media.frame_rate_den">1</property>
  <property name="kdenlive:original.meta.media.colorspace">709</property>
  <property name="kdenlive:original.meta.media.color_trc">2</property>
  <property name="kdenlive:original.meta.media.has_b_frames">2</property>
  <property name="kdenlive:original.meta.media.width">3840</property>
  <property name="kdenlive:original.meta.media.height">2160</property>
  <property name="kdenlive:original.meta.media.color_range">mpeg</property>
  <property name="kdenlive:original.meta.media.top_field_first">0</property>
  <property name="kdenlive:original.meta.media.progressive">1</property>
  <property name="kdenlive:original.kdenlive:clip_type">2</property>
  <property name="kdenlive:original.kdenlive:folderid">565</property>
  <property name="kdenlive:original.kdenlive:id">569</property>
  <property name="kdenlive:original.kdenlive:file_size">58014</property>
  <property name="kdenlive:original.kdenlive:file_hash">b1b81afe9a923ed199a7cc2a1de23a1f</property>
  <property name="kdenlive:original.backup">1</property>
  <property name="meta.media.frame_rate_num">60</property>
  <property name="meta.media.frame_rate_den">1</property>
  <property name="meta.media.colorspace">601</property>
  <property name="meta.media.color_trc">2</property>
  <property name="meta.media.has_b_frames">0</property>
  <property name="meta.media.width">640</property>
  <property name="meta.media.height">360</property>
  <property name="meta.media.color_range">full</property>
  <property name="meta.media.top_field_first">0</property>
  <property name="meta.media.progressive">1</property>
 </producer>
 <producer id="producer381" in="00:00:00.000" out="00:00:00.650">
  <property name="length">40</property>
  <property name="eof">pause</property>
  <property name="resource">/home/xiaoxiae/.cache/kdenlive/proxy/35603057cfeae4fa8d58d5d9040f30ab.mkv</property>
  <property name="meta.media.nb_streams">1</property>
  <property name="meta.media.0.stream.type">video</property>
  <property name="meta.media.0.stream.frame_rate">60</property>
  <property name="meta.media.0.stream.sample_aspect_ratio">0</property>
  <property name="meta.media.0.codec.width">640</property>
  <property name="meta.media.0.codec.height">360</property>
  <property name="meta.media.0.codec.rotate">0</property>
  <property name="meta.media.0.codec.pix_fmt">yuvj420p</property>
  <property name="meta.media.0.codec.sample_aspect_ratio">0</property>
  <property name="meta.media.0.codec.colorspace">601</property>
  <property name="meta.media.0.codec.name">mjpeg</property>
  <property name="meta.media.0.codec.long_name">MJPEG (Motion JPEG)</property>
  <property name="meta.media.0.codec.bit_rate">0</property>
  <property name="meta.attr.0.stream.HANDLER_NAME.markup">VideoHandler</property>
  <property name="meta.attr.0.stream.VENDOR_ID.markup">[0][0][0][0]</property>
  <property name="meta.attr.0.stream.ENCODER.markup">Lavc60.3.100 mjpeg</property>
  <property name="meta.attr.0.stream.DURATION.markup">00:00:00.667000000</property>
  <property name="meta.attr.COMMENT.markup">Rendered with Manim Community v0.17.2</property>
  <property name="meta.attr.MAJOR_BRAND.markup">isom</property>
  <property name="meta.attr.MINOR_VERSION.markup">512</property>
  <property name="meta.attr.COMPATIBLE_BRANDS.markup">isomiso2avc1mp41</property>
  <property name="meta.attr.ENCODER.markup">Lavf60.3.100</property>
  <property name="seekable">1</property>
  <property name="meta.media.sample_aspect_num">1</property>
  <property name="meta.media.sample_aspect_den">1</property>
  <property name="aspect_ratio">1</property>
  <property name="format">3</property>
  <property name="audio_index">-1</property>
  <property name="video_index">0</property>
  <property name="mute_on_pause">0</property>
  <property name="mlt_service">avformat-novalidate</property>
  <property name="kdenlive:clipname">13.mp4</property>
  <property name="kdenlive:clip_type">2</property>
  <property name="kdenlive:folderid">565</property>
  <property name="kdenlive:id">459</property>
  <property name="kdenlive:file_size">55771</property>
  <property name="kdenlive:file_hash">35603057cfeae4fa8d58d5d9040f30ab</property>
  <property name="kdenlive:proxy">/home/xiaoxiae/.cache/kdenlive/proxy/35603057cfeae4fa8d58d5d9040f30ab.mkv</property>
  <property name="kdenlive:originalurl">video/Search/13.mp4</property>
  <property name="kdenlive:original.mlt_type">producer</property>
  <property name="kdenlive:original.in">00:00:00.000</property>
  <property name="kdenlive:original.out">00:00:00.650</property>
  <property name="kdenlive:original.length">40</property>
  <property name="kdenlive:original.eof">pause</property>
  <property name="kdenlive:original.resource">video/Search/13.mp4</property>
  <property name="kdenlive:original.meta.media.nb_streams">1</property>
  <property name="kdenlive:original.meta.media.0.stream.type">video</property>
  <property name="kdenlive:original.meta.media.0.stream.frame_rate">60</property>
  <property name="kdenlive:original.meta.media.0.stream.sample_aspect_ratio">0</property>
  <property name="kdenlive:original.meta.media.0.codec.width">3840</property>
  <property name="kdenlive:original.meta.media.0.codec.height">2160</property>
  <property name="kdenlive:original.meta.media.0.codec.rotate">0</property>
  <property name="kdenlive:original.meta.media.0.codec.pix_fmt">yuv420p</property>
  <property name="kdenlive:original.meta.media.0.codec.sample_aspect_ratio">0</property>
  <property name="kdenlive:original.meta.media.0.codec.colorspace">709</property>
  <property name="kdenlive:original.meta.media.0.codec.name">h264</property>
  <property name="kdenlive:original.meta.media.0.codec.long_name">H.264 / AVC / MPEG-4 AVC / MPEG-4 part 10</property>
  <property name="kdenlive:original.meta.media.0.codec.bit_rate">652752</property>
  <property name="kdenlive:original.meta.attr.0.stream.handler_name.markup">VideoHandler</property>
  <property name="kdenlive:original.meta.attr.0.stream.vendor_id.markup">[0][0][0][0]</property>
  <property name="kdenlive:original.meta.attr.0.stream.encoder.markup">Lavc60.3.100 libx264</property>
  <property name="kdenlive:original.meta.attr.major_brand.markup">isom</property>
  <property name="kdenlive:original.meta.attr.minor_version.markup">512</property>
  <property name="kdenlive:original.meta.attr.compatible_brands.markup">isomiso2avc1mp41</property>
  <property name="kdenlive:original.meta.attr.encoder.markup">Lavf60.3.100</property>
  <property name="kdenlive:original.meta.attr.comment.markup">Rendered with Manim Community v0.17.2</property>
  <property name="kdenlive:original.seekable">1</property>
  <property name="kdenlive:original.width">3840</property>
  <property name="kdenlive:original.height">2160</property>
  <property name="kdenlive:original.meta.media.sample_aspect_num">1</property>
  <property name="kdenlive:original.meta.media.sample_aspect_den">1</property>
  <property name="kdenlive:original.aspect_ratio">1</property>
  <property name="kdenlive:original.format">3</property>
  <property name="kdenlive:original.audio_index">-1</property>
  <property name="kdenlive:original.video_index">0</property>
  <property name="kdenlive:original.mute_on_pause">0</property>
  <property name="kdenlive:original.mlt_service">avformat-novalidate</property>
  <property name="kdenlive:original.meta.media.frame_rate_num">60</property>
  <property name="kdenlive:original.meta.media.frame_rate_den">1</property>
  <property name="kdenlive:original.meta.media.colorspace">709</property>
  <property name="kdenlive:original.meta.media.color_trc">2</property>
  <property name="kdenlive:original.meta.media.has_b_frames">2</property>
  <property name="kdenlive:original.meta.media.width">3840</property>
  <property name="kdenlive:original.meta.media.height">2160</property>
  <property name="kdenlive:original.meta.media.color_range">mpeg</property>
  <property name="kdenlive:original.meta.media.top_field_first">0</property>
  <property name="kdenlive:original.meta.media.progressive">1</property>
  <property name="kdenlive:original.kdenlive:clip_type">2</property>
  <property name="kdenlive:original.kdenlive:folderid">565</property>
  <property name="kdenlive:original.kdenlive:id">570</property>
  <property name="kdenlive:original.kdenlive:file_size">55771</property>
  <property name="kdenlive:original.kdenlive:file_hash">35603057cfeae4fa8d58d5d9040f30ab</property>
  <property name="kdenlive:original.backup">1</property>
  <property name="meta.media.frame_rate_num">60</property>
  <property name="meta.media.frame_rate_den">1</property>
  <property name="meta.media.colorspace">601</property>
  <property name="meta.media.color_trc">2</property>
  <property name="meta.media.has_b_frames">0</property>
  <property name="meta.media.width">640</property>
  <property name="meta.media.height">360</property>
  <property name="meta.media.color_range">full</property>
  <property name="meta.media.top_field_first">0</property>
  <property name="meta.media.progressive">1</property>
 </producer>
 <producer id="producer382" in="00:00:00.000" out="00:00:00.650">
  <property name="length">40</property>
  <property name="eof">pause</property>
  <property name="resource">/home/xiaoxiae/.cache/kdenlive/proxy/f45d3d3bdd5a0352059216edab050376.mkv</property>
  <property name="meta.media.nb_streams">1</property>
  <property name="meta.media.0.stream.type">video</property>
  <property name="meta.media.0.stream.frame_rate">60</property>
  <property name="meta.media.0.stream.sample_aspect_ratio">0</property>
  <property name="meta.media.0.codec.width">640</property>
  <property name="meta.media.0.codec.height">360</property>
  <property name="meta.media.0.codec.rotate">0</property>
  <property name="meta.media.0.codec.pix_fmt">yuvj420p</property>
  <property name="meta.media.0.codec.sample_aspect_ratio">0</property>
  <property name="meta.media.0.codec.colorspace">601</property>
  <property name="meta.media.0.codec.name">mjpeg</property>
  <property name="meta.media.0.codec.long_name">MJPEG (Motion JPEG)</property>
  <property name="meta.media.0.codec.bit_rate">0</property>
  <property name="meta.attr.0.stream.HANDLER_NAME.markup">VideoHandler</property>
  <property name="meta.attr.0.stream.VENDOR_ID.markup">[0][0][0][0]</property>
  <property name="meta.attr.0.stream.ENCODER.markup">Lavc60.3.100 mjpeg</property>
  <property name="meta.attr.0.stream.DURATION.markup">00:00:00.667000000</property>
  <property name="meta.attr.COMMENT.markup">Rendered with Manim Community v0.17.2</property>
  <property name="meta.attr.MAJOR_BRAND.markup">isom</property>
  <property name="meta.attr.MINOR_VERSION.markup">512</property>
  <property name="meta.attr.COMPATIBLE_BRANDS.markup">isomiso2avc1mp41</property>
  <property name="meta.attr.ENCODER.markup">Lavf60.3.100</property>
  <property name="seekable">1</property>
  <property name="meta.media.sample_aspect_num">1</property>
  <property name="meta.media.sample_aspect_den">1</property>
  <property name="aspect_ratio">1</property>
  <property name="format">3</property>
  <property name="audio_index">-1</property>
  <property name="video_index">0</property>
  <property name="mute_on_pause">0</property>
  <property name="mlt_service">avformat-novalidate</property>
  <property name="kdenlive:clipname">14.mp4</property>
  <property name="kdenlive:clip_type">2</property>
  <property name="kdenlive:folderid">565</property>
  <property name="kdenlive:id">460</property>
  <property name="kdenlive:file_size">57515</property>
  <property name="kdenlive:file_hash">f45d3d3bdd5a0352059216edab050376</property>
  <property name="kdenlive:proxy">/home/xiaoxiae/.cache/kdenlive/proxy/f45d3d3bdd5a0352059216edab050376.mkv</property>
  <property name="kdenlive:originalurl">video/Search/14.mp4</property>
  <property name="kdenlive:original.mlt_type">producer</property>
  <property name="kdenlive:original.in">00:00:00.000</property>
  <property name="kdenlive:original.out">00:00:00.650</property>
  <property name="kdenlive:original.length">40</property>
  <property name="kdenlive:original.eof">pause</property>
  <property name="kdenlive:original.resource">video/Search/14.mp4</property>
  <property name="kdenlive:original.meta.media.nb_streams">1</property>
  <property name="kdenlive:original.meta.media.0.stream.type">video</property>
  <property name="kdenlive:original.meta.media.0.stream.frame_rate">60</property>
  <property name="kdenlive:original.meta.media.0.stream.sample_aspect_ratio">0</property>
  <property name="kdenlive:original.meta.media.0.codec.width">3840</property>
  <property name="kdenlive:original.meta.media.0.codec.height">2160</property>
  <property name="kdenlive:original.meta.media.0.codec.rotate">0</property>
  <property name="kdenlive:original.meta.media.0.codec.pix_fmt">yuv420p</property>
  <property name="kdenlive:original.meta.media.0.codec.sample_aspect_ratio">0</property>
  <property name="kdenlive:original.meta.media.0.codec.colorspace">709</property>
  <property name="kdenlive:original.meta.media.0.codec.name">h264</property>
  <property name="kdenlive:original.meta.media.0.codec.long_name">H.264 / AVC / MPEG-4 AVC / MPEG-4 part 10</property>
  <property name="kdenlive:original.meta.media.0.codec.bit_rate">673488</property>
  <property name="kdenlive:original.meta.attr.0.stream.handler_name.markup">VideoHandler</property>
  <property name="kdenlive:original.meta.attr.0.stream.vendor_id.markup">[0][0][0][0]</property>
  <property name="kdenlive:original.meta.attr.0.stream.encoder.markup">Lavc60.3.100 libx264</property>
  <property name="kdenlive:original.meta.attr.major_brand.markup">isom</property>
  <property name="kdenlive:original.meta.attr.minor_version.markup">512</property>
  <property name="kdenlive:original.meta.attr.compatible_brands.markup">isomiso2avc1mp41</property>
  <property name="kdenlive:original.meta.attr.encoder.markup">Lavf60.3.100</property>
  <property name="kdenlive:original.meta.attr.comment.markup">Rendered with Manim Community v0.17.2</property>
  <property name="kdenlive:original.seekable">1</property>
  <property name="kdenlive:original.width">3840</property>
  <property name="kdenlive:original.height">2160</property>
  <property name="kdenlive:original.meta.media.sample_aspect_num">1</property>
  <property name="kdenlive:original.meta.media.sample_aspect_den">1</property>
  <property name="kdenlive:original.aspect_ratio">1</property>
  <property name="kdenlive:original.format">3</property>
  <property name="kdenlive:original.audio_index">-1</property>
  <property name="kdenlive:original.video_index">0</property>
  <property name="kdenlive:original.mute_on_pause">0</property>
  <property name="kdenlive:original.mlt_service">avformat-novalidate</property>
  <property name="kdenlive:original.meta.media.frame_rate_num">60</property>
  <property name="kdenlive:original.meta.media.frame_rate_den">1</property>
  <property name="kdenlive:original.meta.media.colorspace">709</property>
  <property name="kdenlive:original.meta.media.color_trc">2</property>
  <property name="kdenlive:original.meta.media.has_b_frames">2</property>
  <property name="kdenlive:original.meta.media.width">3840</property>
  <property name="kdenlive:original.meta.media.height">2160</property>
  <property name="kdenlive:original.meta.media.color_range">mpeg</property>
  <property name="kdenlive:original.meta.media.top_field_first">0</property>
  <property name="kdenlive:original.meta.media.progressive">1</property>
  <property name="kdenlive:original.kdenlive:clip_type">2</property>
  <property name="kdenlive:original.kdenlive:folderid">565</property>
  <property name="kdenlive:original.kdenlive:id">571</property>
  <property name="kdenlive:original.kdenlive:file_size">57515</property>
  <property name="kdenlive:original.kdenlive:file_hash">f45d3d3bdd5a0352059216edab050376</property>
  <property name="kdenlive:original.backup">1</property>
  <property name="meta.media.frame_rate_num">60</property>
  <property name="meta.media.frame_rate_den">1</property>
  <property name="meta.media.colorspace">601</property>
  <property name="meta.media.color_trc">2</property>
  <property name="meta.media.has_b_frames">0</property>
  <property name="meta.media.width">640</property>
  <property name="meta.media.height">360</property>
  <property name="meta.media.color_range">full</property>
  <property name="meta.media.top_field_first">0</property>
  <property name="meta.media.progressive">1</property>
 </producer>
 <producer id="producer383" in="00:00:00.000" out="00:00:01.483">
  <property name="length">90</property>
  <property name="eof">pause</property>
  <property name="resource">/home/xiaoxiae/.cache/kdenlive/proxy/d0365d01e293443579f0a5de09df857b.mkv</property>
  <property name="meta.media.nb_streams">1</property>
  <property name="meta.media.0.stream.type">video</property>
  <property name="meta.media.0.stream.frame_rate">60</property>
  <property name="meta.media.0.stream.sample_aspect_ratio">0</property>
  <property name="meta.media.0.codec.width">640</property>
  <property name="meta.media.0.codec.height">360</property>
  <property name="meta.media.0.codec.rotate">0</property>
  <property name="meta.media.0.codec.pix_fmt">yuvj420p</property>
  <property name="meta.media.0.codec.sample_aspect_ratio">0</property>
  <property name="meta.media.0.codec.colorspace">601</property>
  <property name="meta.media.0.codec.name">mjpeg</property>
  <property name="meta.media.0.codec.long_name">MJPEG (Motion JPEG)</property>
  <property name="meta.media.0.codec.bit_rate">0</property>
  <property name="meta.attr.0.stream.HANDLER_NAME.markup">VideoHandler</property>
  <property name="meta.attr.0.stream.VENDOR_ID.markup">[0][0][0][0]</property>
  <property name="meta.attr.0.stream.ENCODER.markup">Lavc60.3.100 mjpeg</property>
  <property name="meta.attr.0.stream.DURATION.markup">00:00:01.500000000</property>
  <property name="meta.attr.COMMENT.markup">Rendered with Manim Community v0.17.2</property>
  <property name="meta.attr.MAJOR_BRAND.markup">isom</property>
  <property name="meta.attr.MINOR_VERSION.markup">512</property>
  <property name="meta.attr.COMPATIBLE_BRANDS.markup">isomiso2avc1mp41</property>
  <property name="meta.attr.ENCODER.markup">Lavf60.3.100</property>
  <property name="seekable">1</property>
  <property name="meta.media.sample_aspect_num">1</property>
  <property name="meta.media.sample_aspect_den">1</property>
  <property name="aspect_ratio">1</property>
  <property name="format">3</property>
  <property name="audio_index">-1</property>
  <property name="video_index">0</property>
  <property name="mute_on_pause">0</property>
  <property name="mlt_service">avformat-novalidate</property>
  <property name="kdenlive:clipname">15.mp4</property>
  <property name="kdenlive:clip_type">2</property>
  <property name="kdenlive:folderid">565</property>
  <property name="kdenlive:id">461</property>
  <property name="kdenlive:file_size">174476</property>
  <property name="kdenlive:file_hash">d0365d01e293443579f0a5de09df857b</property>
  <property name="kdenlive:proxy">/home/xiaoxiae/.cache/kdenlive/proxy/d0365d01e293443579f0a5de09df857b.mkv</property>
  <property name="kdenlive:originalurl">video/Search/15.mp4</property>
  <property name="kdenlive:original.mlt_type">producer</property>
  <property name="kdenlive:original.in">00:00:00.000</property>
  <property name="kdenlive:original.out">00:00:01.483</property>
  <property name="kdenlive:original.length">90</property>
  <property name="kdenlive:original.eof">pause</property>
  <property name="kdenlive:original.resource">video/Search/15.mp4</property>
  <property name="kdenlive:original.meta.media.nb_streams">1</property>
  <property name="kdenlive:original.meta.media.0.stream.type">video</property>
  <property name="kdenlive:original.meta.media.0.stream.frame_rate">60</property>
  <property name="kdenlive:original.meta.media.0.stream.sample_aspect_ratio">0</property>
  <property name="kdenlive:original.meta.media.0.codec.width">3840</property>
  <property name="kdenlive:original.meta.media.0.codec.height">2160</property>
  <property name="kdenlive:original.meta.media.0.codec.rotate">0</property>
  <property name="kdenlive:original.meta.media.0.codec.pix_fmt">yuv420p</property>
  <property name="kdenlive:original.meta.media.0.codec.sample_aspect_ratio">0</property>
  <property name="kdenlive:original.meta.media.0.codec.colorspace">709</property>
  <property name="kdenlive:original.meta.media.0.codec.name">h264</property>
  <property name="kdenlive:original.meta.media.0.codec.long_name">H.264 / AVC / MPEG-4 AVC / MPEG-4 part 10</property>
  <property name="kdenlive:original.meta.media.0.codec.bit_rate">920090</property>
  <property name="kdenlive:original.meta.attr.0.stream.handler_name.markup">VideoHandler</property>
  <property name="kdenlive:original.meta.attr.0.stream.vendor_id.markup">[0][0][0][0]</property>
  <property name="kdenlive:original.meta.attr.0.stream.encoder.markup">Lavc60.3.100 libx264</property>
  <property name="kdenlive:original.meta.attr.major_brand.markup">isom</property>
  <property name="kdenlive:original.meta.attr.minor_version.markup">512</property>
  <property name="kdenlive:original.meta.attr.compatible_brands.markup">isomiso2avc1mp41</property>
  <property name="kdenlive:original.meta.attr.encoder.markup">Lavf60.3.100</property>
  <property name="kdenlive:original.meta.attr.comment.markup">Rendered with Manim Community v0.17.2</property>
  <property name="kdenlive:original.seekable">1</property>
  <property name="kdenlive:original.width">3840</property>
  <property name="kdenlive:original.height">2160</property>
  <property name="kdenlive:original.meta.media.sample_aspect_num">1</property>
  <property name="kdenlive:original.meta.media.sample_aspect_den">1</property>
  <property name="kdenlive:original.aspect_ratio">1</property>
  <property name="kdenlive:original.format">3</property>
  <property name="kdenlive:original.audio_index">-1</property>
  <property name="kdenlive:original.video_index">0</property>
  <property name="kdenlive:original.mute_on_pause">0</property>
  <property name="kdenlive:original.mlt_service">avformat-novalidate</property>
  <property name="kdenlive:original.meta.media.frame_rate_num">60</property>
  <property name="kdenlive:original.meta.media.frame_rate_den">1</property>
  <property name="kdenlive:original.meta.media.colorspace">709</property>
  <property name="kdenlive:original.meta.media.color_trc">2</property>
  <property name="kdenlive:original.meta.media.has_b_frames">2</property>
  <property name="kdenlive:original.meta.media.width">3840</property>
  <property name="kdenlive:original.meta.media.height">2160</property>
  <property name="kdenlive:original.meta.media.color_range">mpeg</property>
  <property name="kdenlive:original.meta.media.top_field_first">0</property>
  <property name="kdenlive:original.meta.media.progressive">1</property>
  <property name="kdenlive:original.kdenlive:clip_type">2</property>
  <property name="kdenlive:original.kdenlive:folderid">565</property>
  <property name="kdenlive:original.kdenlive:id">572</property>
  <property name="kdenlive:original.kdenlive:file_size">174476</property>
  <property name="kdenlive:original.kdenlive:file_hash">d0365d01e293443579f0a5de09df857b</property>
  <property name="kdenlive:original.backup">1</property>
  <property name="meta.media.frame_rate_num">60</property>
  <property name="meta.media.frame_rate_den">1</property>
  <property name="meta.media.colorspace">601</property>
  <property name="meta.media.color_trc">2</property>
  <property name="meta.media.has_b_frames">0</property>
  <property name="meta.media.width">640</property>
  <property name="meta.media.height">360</property>
  <property name="meta.media.color_range">full</property>
  <property name="meta.media.top_field_first">0</property>
  <property name="meta.media.progressive">1</property>
 </producer>
 <producer id="producer384" in="00:00:00.000" out="00:00:00.983">
  <property name="length">60</property>
  <property name="eof">pause</property>
  <property name="resource">/home/xiaoxiae/.cache/kdenlive/proxy/dad4701af3b39b6a41bd7dbe1de823ba.mkv</property>
  <property name="meta.media.nb_streams">1</property>
  <property name="meta.media.0.stream.type">video</property>
  <property name="meta.media.0.stream.frame_rate">60</property>
  <property name="meta.media.0.stream.sample_aspect_ratio">0</property>
  <property name="meta.media.0.codec.width">640</property>
  <property name="meta.media.0.codec.height">360</property>
  <property name="meta.media.0.codec.rotate">0</property>
  <property name="meta.media.0.codec.pix_fmt">yuvj420p</property>
  <property name="meta.media.0.codec.sample_aspect_ratio">0</property>
  <property name="meta.media.0.codec.colorspace">601</property>
  <property name="meta.media.0.codec.name">mjpeg</property>
  <property name="meta.media.0.codec.long_name">MJPEG (Motion JPEG)</property>
  <property name="meta.media.0.codec.bit_rate">0</property>
  <property name="meta.attr.0.stream.HANDLER_NAME.markup">VideoHandler</property>
  <property name="meta.attr.0.stream.VENDOR_ID.markup">[0][0][0][0]</property>
  <property name="meta.attr.0.stream.ENCODER.markup">Lavc60.3.100 mjpeg</property>
  <property name="meta.attr.0.stream.DURATION.markup">00:00:01.000000000</property>
  <property name="meta.attr.COMMENT.markup">Rendered with Manim Community v0.17.2</property>
  <property name="meta.attr.MAJOR_BRAND.markup">isom</property>
  <property name="meta.attr.MINOR_VERSION.markup">512</property>
  <property name="meta.attr.COMPATIBLE_BRANDS.markup">isomiso2avc1mp41</property>
  <property name="meta.attr.ENCODER.markup">Lavf60.3.100</property>
  <property name="seekable">1</property>
  <property name="meta.media.sample_aspect_num">1</property>
  <property name="meta.media.sample_aspect_den">1</property>
  <property name="aspect_ratio">1</property>
  <property name="format">3</property>
  <property name="audio_index">-1</property>
  <property name="video_index">0</property>
  <property name="mute_on_pause">0</property>
  <property name="mlt_service">avformat-novalidate</property>
  <property name="kdenlive:clipname">16.mp4</property>
  <property name="kdenlive:clip_type">2</property>
  <property name="kdenlive:folderid">565</property>
  <property name="kdenlive:id">462</property>
  <property name="kdenlive:file_size">66924</property>
  <property name="kdenlive:file_hash">dad4701af3b39b6a41bd7dbe1de823ba</property>
  <property name="kdenlive:proxy">/home/xiaoxiae/.cache/kdenlive/proxy/dad4701af3b39b6a41bd7dbe1de823ba.mkv</property>
  <property name="kdenlive:originalurl">video/Search/16.mp4</property>
  <property name="kdenlive:original.mlt_type">producer</property>
  <property name="kdenlive:original.in">00:00:00.000</property>
  <property name="kdenlive:original.out">00:00:00.983</property>
  <property name="kdenlive:original.length">60</property>
  <property name="kdenlive:original.eof">pause</property>
  <property name="kdenlive:original.resource">video/Search/16.mp4</property>
  <property name="kdenlive:original.meta.media.nb_streams">1</property>
  <property name="kdenlive:original.meta.media.0.stream.type">video</property>
  <property name="kdenlive:original.meta.media.0.stream.frame_rate">60</property>
  <property name="kdenlive:original.meta.media.0.stream.sample_aspect_ratio">0</property>
  <property name="kdenlive:original.meta.media.0.codec.width">3840</property>
  <property name="kdenlive:original.meta.media.0.codec.height">2160</property>
  <property name="kdenlive:original.meta.media.0.codec.rotate">0</property>
  <property name="kdenlive:original.meta.media.0.codec.pix_fmt">yuv420p</property>
  <property name="kdenlive:original.meta.media.0.codec.sample_aspect_ratio">0</property>
  <property name="kdenlive:original.meta.media.0.codec.colorspace">709</property>
  <property name="kdenlive:original.meta.media.0.codec.name">h264</property>
  <property name="kdenlive:original.meta.media.0.codec.long_name">H.264 / AVC / MPEG-4 AVC / MPEG-4 part 10</property>
  <property name="kdenlive:original.meta.media.0.codec.bit_rate">522344</property>
  <property name="kdenlive:original.meta.attr.0.stream.handler_name.markup">VideoHandler</property>
  <property name="kdenlive:original.meta.attr.0.stream.vendor_id.markup">[0][0][0][0]</property>
  <property name="kdenlive:original.meta.attr.0.stream.encoder.markup">Lavc60.3.100 libx264</property>
  <property name="kdenlive:original.meta.attr.major_brand.markup">isom</property>
  <property name="kdenlive:original.meta.attr.minor_version.markup">512</property>
  <property name="kdenlive:original.meta.attr.compatible_brands.markup">isomiso2avc1mp41</property>
  <property name="kdenlive:original.meta.attr.encoder.markup">Lavf60.3.100</property>
  <property name="kdenlive:original.meta.attr.comment.markup">Rendered with Manim Community v0.17.2</property>
  <property name="kdenlive:original.seekable">1</property>
  <property name="kdenlive:original.width">3840</property>
  <property name="kdenlive:original.height">2160</property>
  <property name="kdenlive:original.meta.media.sample_aspect_num">1</property>
  <property name="kdenlive:original.meta.media.sample_aspect_den">1</property>
  <property name="kdenlive:original.aspect_ratio">1</property>
  <property name="kdenlive:original.format">3</property>
  <property name="kdenlive:original.audio_index">-1</property>
  <property name="kdenlive:original.video_index">0</property>
  <property name="kdenlive:original.mute_on_pause">0</property>
  <property name="kdenlive:original.mlt_service">avformat-novalidate</property>
  <property name="kdenlive:original.meta.media.frame_rate_num">60</property>
  <property name="kdenlive:original.meta.media.frame_rate_den">1</property>
  <property name="kdenlive:original.meta.media.colorspace">709</property>
  <property name="kdenlive:original.meta.media.color_trc">2</property>
  <property name="kdenlive:original.meta.media.has_b_frames">2</property>
  <property name="kdenlive:original.meta.media.width">3840</property>
  <property name="kdenlive:original.meta.media.height">2160</property>
  <property name="kdenlive:original.meta.media.color_range">mpeg</property>
  <property name="kdenlive:original.meta.media.top_field_first">0</property>
  <property name="kdenlive:original.meta.media.progressive">1</property>
  <property name="kdenlive:original.kdenlive:clip_type">2</property>
  <property name="kdenlive:original.kdenlive:folderid">565</property>
  <property name="kdenlive:original.kdenlive:id">573</property>
  <property name="kdenlive:original.kdenlive:file_size">66924</property>
  <property name="kdenlive:original.kdenlive:file_hash">dad4701af3b39b6a41bd7dbe1de823ba</property>
  <property name="kdenlive:original.backup">1</property>
  <property name="meta.media.frame_rate_num">60</property>
  <property name="meta.media.frame_rate_den">1</property>
  <property name="meta.media.colorspace">601</property>
  <property name="meta.media.color_trc">2</property>
  <property name="meta.media.has_b_frames">0</property>
  <property name="meta.media.width">640</property>
  <property name="meta.media.height">360</property>
  <property name="meta.media.color_range">full</property>
  <property name="meta.media.top_field_first">0</property>
  <property name="meta.media.progressive">1</property>
 </producer>
 <producer id="producer385" in="00:00:00.000" out="00:00:00.483">
  <property name="length">30</property>
  <property name="eof">pause</property>
  <property name="resource">/home/xiaoxiae/.cache/kdenlive/proxy/35ebe392b30ff8f9ec134378d5fc408d.mkv</property>
  <property name="meta.media.nb_streams">1</property>
  <property name="meta.media.0.stream.type">video</property>
  <property name="meta.media.0.stream.frame_rate">60</property>
  <property name="meta.media.0.stream.sample_aspect_ratio">0</property>
  <property name="meta.media.0.codec.width">640</property>
  <property name="meta.media.0.codec.height">360</property>
  <property name="meta.media.0.codec.rotate">0</property>
  <property name="meta.media.0.codec.pix_fmt">yuvj420p</property>
  <property name="meta.media.0.codec.sample_aspect_ratio">0</property>
  <property name="meta.media.0.codec.colorspace">601</property>
  <property name="meta.media.0.codec.name">mjpeg</property>
  <property name="meta.media.0.codec.long_name">MJPEG (Motion JPEG)</property>
  <property name="meta.media.0.codec.bit_rate">0</property>
  <property name="meta.attr.0.stream.HANDLER_NAME.markup">VideoHandler</property>
  <property name="meta.attr.0.stream.VENDOR_ID.markup">[0][0][0][0]</property>
  <property name="meta.attr.0.stream.ENCODER.markup">Lavc60.3.100 mjpeg</property>
  <property name="meta.attr.0.stream.DURATION.markup">00:00:00.500000000</property>
  <property name="meta.attr.COMMENT.markup">Rendered with Manim Community v0.17.2</property>
  <property name="meta.attr.MAJOR_BRAND.markup">isom</property>
  <property name="meta.attr.MINOR_VERSION.markup">512</property>
  <property name="meta.attr.COMPATIBLE_BRANDS.markup">isomiso2avc1mp41</property>
  <property name="meta.attr.ENCODER.markup">Lavf60.3.100</property>
  <property name="seekable">1</property>
  <property name="meta.media.sample_aspect_num">1</property>
  <property name="meta.media.sample_aspect_den">1</property>
  <property name="aspect_ratio">1</property>
  <property name="format">3</property>
  <property name="audio_index">-1</property>
  <property name="video_index">0</property>
  <property name="mute_on_pause">0</property>
  <property name="mlt_service">avformat-novalidate</property>
  <property name="kdenlive:clipname">17.mp4</property>
  <property name="kdenlive:clip_type">2</property>
  <property name="kdenlive:folderid">565</property>
  <property name="kdenlive:id">463</property>
  <property name="kdenlive:file_size">59001</property>
  <property name="kdenlive:file_hash">35ebe392b30ff8f9ec134378d5fc408d</property>
  <property name="kdenlive:proxy">/home/xiaoxiae/.cache/kdenlive/proxy/35ebe392b30ff8f9ec134378d5fc408d.mkv</property>
  <property name="kdenlive:originalurl">video/Search/17.mp4</property>
  <property name="kdenlive:original.mlt_type">producer</property>
  <property name="kdenlive:original.in">00:00:00.000</property>
  <property name="kdenlive:original.out">00:00:00.483</property>
  <property name="kdenlive:original.length">30</property>
  <property name="kdenlive:original.eof">pause</property>
  <property name="kdenlive:original.resource">video/Search/17.mp4</property>
  <property name="kdenlive:original.meta.media.nb_streams">1</property>
  <property name="kdenlive:original.meta.media.0.stream.type">video</property>
  <property name="kdenlive:original.meta.media.0.stream.frame_rate">60</property>
  <property name="kdenlive:original.meta.media.0.stream.sample_aspect_ratio">0</property>
  <property name="kdenlive:original.meta.media.0.codec.width">3840</property>
  <property name="kdenlive:original.meta.media.0.codec.height">2160</property>
  <property name="kdenlive:original.meta.media.0.codec.rotate">0</property>
  <property name="kdenlive:original.meta.media.0.codec.pix_fmt">yuv420p</property>
  <property name="kdenlive:original.meta.media.0.codec.sample_aspect_ratio">0</property>
  <property name="kdenlive:original.meta.media.0.codec.colorspace">709</property>
  <property name="kdenlive:original.meta.media.0.codec.name">h264</property>
  <property name="kdenlive:original.meta.media.0.codec.long_name">H.264 / AVC / MPEG-4 AVC / MPEG-4 part 10</property>
  <property name="kdenlive:original.meta.media.0.codec.bit_rate">923552</property>
  <property name="kdenlive:original.meta.attr.0.stream.handler_name.markup">VideoHandler</property>
  <property name="kdenlive:original.meta.attr.0.stream.vendor_id.markup">[0][0][0][0]</property>
  <property name="kdenlive:original.meta.attr.0.stream.encoder.markup">Lavc60.3.100 libx264</property>
  <property name="kdenlive:original.meta.attr.major_brand.markup">isom</property>
  <property name="kdenlive:original.meta.attr.minor_version.markup">512</property>
  <property name="kdenlive:original.meta.attr.compatible_brands.markup">isomiso2avc1mp41</property>
  <property name="kdenlive:original.meta.attr.encoder.markup">Lavf60.3.100</property>
  <property name="kdenlive:original.meta.attr.comment.markup">Rendered with Manim Community v0.17.2</property>
  <property name="kdenlive:original.seekable">1</property>
  <property name="kdenlive:original.width">3840</property>
  <property name="kdenlive:original.height">2160</property>
  <property name="kdenlive:original.meta.media.sample_aspect_num">1</property>
  <property name="kdenlive:original.meta.media.sample_aspect_den">1</property>
  <property name="kdenlive:original.aspect_ratio">1</property>
  <property name="kdenlive:original.format">3</property>
  <property name="kdenlive:original.audio_index">-1</property>
  <property name="kdenlive:original.video_index">0</property>
  <property name="kdenlive:original.mute_on_pause">0</property>
  <property name="kdenlive:original.mlt_service">avformat-novalidate</property>
  <property name="kdenlive:original.meta.media.frame_rate_num">60</property>
  <property name="kdenlive:original.meta.media.frame_rate_den">1</property>
  <property name="kdenlive:original.meta.media.colorspace">709</property>
  <property name="kdenlive:original.meta.media.color_trc">2</property>
  <property name="kdenlive:original.meta.media.has_b_frames">2</property>
  <property name="kdenlive:original.meta.media.width">3840</property>
  <property name="kdenlive:original.meta.media.height">2160</property>
  <property name="kdenlive:original.meta.media.color_range">mpeg</property>
  <property name="kdenlive:original.meta.media.top_field_first">0</property>
  <property name="kdenlive:original.meta.media.progressive">1</property>
  <property name="kdenlive:original.kdenlive:clip_type">2</property>
  <property name="kdenlive:original.kdenlive:folderid">565</property>
  <property name="kdenlive:original.kdenlive:id">574</property>
  <property name="kdenlive:original.kdenlive:file_size">59001</property>
  <property name="kdenlive:original.kdenlive:file_hash">35ebe392b30ff8f9ec134378d5fc408d</property>
  <property name="kdenlive:original.backup">1</property>
  <property name="meta.media.frame_rate_num">60</property>
  <property name="meta.media.frame_rate_den">1</property>
  <property name="meta.media.colorspace">601</property>
  <property name="meta.media.color_trc">2</property>
  <property name="meta.media.has_b_frames">0</property>
  <property name="meta.media.width">640</property>
  <property name="meta.media.height">360</property>
  <property name="meta.media.color_range">full</property>
  <property name="meta.media.top_field_first">0</property>
  <property name="meta.media.progressive">1</property>
 </producer>
 <producer id="producer386" in="00:00:00.000" out="00:00:00.483">
  <property name="length">30</property>
  <property name="eof">pause</property>
  <property name="resource">/home/xiaoxiae/.cache/kdenlive/proxy/48439b4ae5190f8e7d4f30d5eb5f99b9.mkv</property>
  <property name="meta.media.nb_streams">1</property>
  <property name="meta.media.0.stream.type">video</property>
  <property name="meta.media.0.stream.frame_rate">60</property>
  <property name="meta.media.0.stream.sample_aspect_ratio">0</property>
  <property name="meta.media.0.codec.width">640</property>
  <property name="meta.media.0.codec.height">360</property>
  <property name="meta.media.0.codec.rotate">0</property>
  <property name="meta.media.0.codec.pix_fmt">yuvj420p</property>
  <property name="meta.media.0.codec.sample_aspect_ratio">0</property>
  <property name="meta.media.0.codec.colorspace">601</property>
  <property name="meta.media.0.codec.name">mjpeg</property>
  <property name="meta.media.0.codec.long_name">MJPEG (Motion JPEG)</property>
  <property name="meta.media.0.codec.bit_rate">0</property>
  <property name="meta.attr.0.stream.HANDLER_NAME.markup">VideoHandler</property>
  <property name="meta.attr.0.stream.VENDOR_ID.markup">[0][0][0][0]</property>
  <property name="meta.attr.0.stream.ENCODER.markup">Lavc60.3.100 mjpeg</property>
  <property name="meta.attr.0.stream.DURATION.markup">00:00:00.500000000</property>
  <property name="meta.attr.COMMENT.markup">Rendered with Manim Community v0.17.2</property>
  <property name="meta.attr.MAJOR_BRAND.markup">isom</property>
  <property name="meta.attr.MINOR_VERSION.markup">512</property>
  <property name="meta.attr.COMPATIBLE_BRANDS.markup">isomiso2avc1mp41</property>
  <property name="meta.attr.ENCODER.markup">Lavf60.3.100</property>
  <property name="seekable">1</property>
  <property name="meta.media.sample_aspect_num">1</property>
  <property name="meta.media.sample_aspect_den">1</property>
  <property name="aspect_ratio">1</property>
  <property name="format">3</property>
  <property name="audio_index">-1</property>
  <property name="video_index">0</property>
  <property name="mute_on_pause">0</property>
  <property name="mlt_service">avformat-novalidate</property>
  <property name="kdenlive:clipname">18.mp4</property>
  <property name="kdenlive:clip_type">2</property>
  <property name="kdenlive:folderid">565</property>
  <property name="kdenlive:id">464</property>
  <property name="kdenlive:file_size">74043</property>
  <property name="kdenlive:file_hash">48439b4ae5190f8e7d4f30d5eb5f99b9</property>
  <property name="kdenlive:proxy">/home/xiaoxiae/.cache/kdenlive/proxy/48439b4ae5190f8e7d4f30d5eb5f99b9.mkv</property>
  <property name="kdenlive:originalurl">video/Search/18.mp4</property>
  <property name="kdenlive:original.mlt_type">producer</property>
  <property name="kdenlive:original.in">00:00:00.000</property>
  <property name="kdenlive:original.out">00:00:00.483</property>
  <property name="kdenlive:original.length">30</property>
  <property name="kdenlive:original.eof">pause</property>
  <property name="kdenlive:original.resource">video/Search/18.mp4</property>
  <property name="kdenlive:original.meta.media.nb_streams">1</property>
  <property name="kdenlive:original.meta.media.0.stream.type">video</property>
  <property name="kdenlive:original.meta.media.0.stream.frame_rate">60</property>
  <property name="kdenlive:original.meta.media.0.stream.sample_aspect_ratio">0</property>
  <property name="kdenlive:original.meta.media.0.codec.width">3840</property>
  <property name="kdenlive:original.meta.media.0.codec.height">2160</property>
  <property name="kdenlive:original.meta.media.0.codec.rotate">0</property>
  <property name="kdenlive:original.meta.media.0.codec.pix_fmt">yuv420p</property>
  <property name="kdenlive:original.meta.media.0.codec.sample_aspect_ratio">0</property>
  <property name="kdenlive:original.meta.media.0.codec.colorspace">709</property>
  <property name="kdenlive:original.meta.media.0.codec.name">h264</property>
  <property name="kdenlive:original.meta.media.0.codec.long_name">H.264 / AVC / MPEG-4 AVC / MPEG-4 part 10</property>
  <property name="kdenlive:original.meta.media.0.codec.bit_rate">1164736</property>
  <property name="kdenlive:original.meta.attr.0.stream.handler_name.markup">VideoHandler</property>
  <property name="kdenlive:original.meta.attr.0.stream.vendor_id.markup">[0][0][0][0]</property>
  <property name="kdenlive:original.meta.attr.0.stream.encoder.markup">Lavc60.3.100 libx264</property>
  <property name="kdenlive:original.meta.attr.major_brand.markup">isom</property>
  <property name="kdenlive:original.meta.attr.minor_version.markup">512</property>
  <property name="kdenlive:original.meta.attr.compatible_brands.markup">isomiso2avc1mp41</property>
  <property name="kdenlive:original.meta.attr.encoder.markup">Lavf60.3.100</property>
  <property name="kdenlive:original.meta.attr.comment.markup">Rendered with Manim Community v0.17.2</property>
  <property name="kdenlive:original.seekable">1</property>
  <property name="kdenlive:original.width">3840</property>
  <property name="kdenlive:original.height">2160</property>
  <property name="kdenlive:original.meta.media.sample_aspect_num">1</property>
  <property name="kdenlive:original.meta.media.sample_aspect_den">1</property>
  <property name="kdenlive:original.aspect_ratio">1</property>
  <property name="kdenlive:original.format">3</property>
  <property name="kdenlive:original.audio_index">-1</property>
  <property name="kdenlive:original.video_index">0</property>
  <property name="kdenlive:original.mute_on_pause">0</property>
  <property name="kdenlive:original.mlt_service">avformat-novalidate</property>
  <property name="kdenlive:original.meta.media.frame_rate_num">60</property>
  <property name="kdenlive:original.meta.media.frame_rate_den">1</property>
  <property name="kdenlive:original.meta.media.colorspace">709</property>
  <property name="kdenlive:original.meta.media.color_trc">2</property>
  <property name="kdenlive:original.meta.media.has_b_frames">2</property>
  <property name="kdenlive:original.meta.media.width">3840</property>
  <property name="kdenlive:original.meta.media.height">2160</property>
  <property name="kdenlive:original.meta.media.color_range">mpeg</property>
  <property name="kdenlive:original.meta.media.top_field_first">0</property>
  <property name="kdenlive:original.meta.media.progressive">1</property>
  <property name="kdenlive:original.kdenlive:clip_type">2</property>
  <property name="kdenlive:original.kdenlive:folderid">565</property>
  <property name="kdenlive:original.kdenlive:id">575</property>
  <property name="kdenlive:original.kdenlive:file_size">74043</property>
  <property name="kdenlive:original.kdenlive:file_hash">48439b4ae5190f8e7d4f30d5eb5f99b9</property>
  <property name="kdenlive:original.backup">1</property>
  <property name="meta.media.frame_rate_num">60</property>
  <property name="meta.media.frame_rate_den">1</property>
  <property name="meta.media.colorspace">601</property>
  <property name="meta.media.color_trc">2</property>
  <property name="meta.media.has_b_frames">0</property>
  <property name="meta.media.width">640</property>
  <property name="meta.media.height">360</property>
  <property name="meta.media.color_range">full</property>
  <property name="meta.media.top_field_first">0</property>
  <property name="meta.media.progressive">1</property>
 </producer>
 <producer id="producer387" in="00:00:00.000" out="00:00:00.317">
  <property name="length">20</property>
  <property name="eof">pause</property>
  <property name="resource">/home/xiaoxiae/.cache/kdenlive/proxy/f2562922f2db4740d398c4939e92a7e5.mkv</property>
  <property name="meta.media.nb_streams">1</property>
  <property name="meta.media.0.stream.type">video</property>
  <property name="meta.media.0.stream.frame_rate">60</property>
  <property name="meta.media.0.stream.sample_aspect_ratio">0</property>
  <property name="meta.media.0.codec.width">640</property>
  <property name="meta.media.0.codec.height">360</property>
  <property name="meta.media.0.codec.rotate">0</property>
  <property name="meta.media.0.codec.pix_fmt">yuvj420p</property>
  <property name="meta.media.0.codec.sample_aspect_ratio">0</property>
  <property name="meta.media.0.codec.colorspace">601</property>
  <property name="meta.media.0.codec.name">mjpeg</property>
  <property name="meta.media.0.codec.long_name">MJPEG (Motion JPEG)</property>
  <property name="meta.media.0.codec.bit_rate">0</property>
  <property name="meta.attr.0.stream.HANDLER_NAME.markup">VideoHandler</property>
  <property name="meta.attr.0.stream.VENDOR_ID.markup">[0][0][0][0]</property>
  <property name="meta.attr.0.stream.ENCODER.markup">Lavc60.3.100 mjpeg</property>
  <property name="meta.attr.0.stream.DURATION.markup">00:00:00.334000000</property>
  <property name="meta.attr.COMMENT.markup">Rendered with Manim Community v0.17.2</property>
  <property name="meta.attr.MAJOR_BRAND.markup">isom</property>
  <property name="meta.attr.MINOR_VERSION.markup">512</property>
  <property name="meta.attr.COMPATIBLE_BRANDS.markup">isomiso2avc1mp41</property>
  <property name="meta.attr.ENCODER.markup">Lavf60.3.100</property>
  <property name="seekable">1</property>
  <property name="meta.media.sample_aspect_num">1</property>
  <property name="meta.media.sample_aspect_den">1</property>
  <property name="aspect_ratio">1</property>
  <property name="format">3</property>
  <property name="audio_index">-1</property>
  <property name="video_index">0</property>
  <property name="mute_on_pause">0</property>
  <property name="mlt_service">avformat-novalidate</property>
  <property name="kdenlive:clipname">19.mp4</property>
  <property name="kdenlive:clip_type">2</property>
  <property name="kdenlive:folderid">565</property>
  <property name="kdenlive:id">465</property>
  <property name="kdenlive:file_size">66447</property>
  <property name="kdenlive:file_hash">f2562922f2db4740d398c4939e92a7e5</property>
  <property name="kdenlive:proxy">/home/xiaoxiae/.cache/kdenlive/proxy/f2562922f2db4740d398c4939e92a7e5.mkv</property>
  <property name="kdenlive:originalurl">video/Search/19.mp4</property>
  <property name="kdenlive:original.mlt_type">producer</property>
  <property name="kdenlive:original.in">00:00:00.000</property>
  <property name="kdenlive:original.out">00:00:00.317</property>
  <property name="kdenlive:original.length">20</property>
  <property name="kdenlive:original.eof">pause</property>
  <property name="kdenlive:original.resource">video/Search/19.mp4</property>
  <property name="kdenlive:original.meta.media.nb_streams">1</property>
  <property name="kdenlive:original.meta.media.0.stream.type">video</property>
  <property name="kdenlive:original.meta.media.0.stream.frame_rate">60</property>
  <property name="kdenlive:original.meta.media.0.stream.sample_aspect_ratio">0</property>
  <property name="kdenlive:original.meta.media.0.codec.width">3840</property>
  <property name="kdenlive:original.meta.media.0.codec.height">2160</property>
  <property name="kdenlive:original.meta.media.0.codec.rotate">0</property>
  <property name="kdenlive:original.meta.media.0.codec.pix_fmt">yuv420p</property>
  <property name="kdenlive:original.meta.media.0.codec.sample_aspect_ratio">0</property>
  <property name="kdenlive:original.meta.media.0.codec.colorspace">709</property>
  <property name="kdenlive:original.meta.media.0.codec.name">h264</property>
  <property name="kdenlive:original.meta.media.0.codec.long_name">H.264 / AVC / MPEG-4 AVC / MPEG-4 part 10</property>
  <property name="kdenlive:original.meta.media.0.codec.bit_rate">1567296</property>
  <property name="kdenlive:original.meta.attr.0.stream.handler_name.markup">VideoHandler</property>
  <property name="kdenlive:original.meta.attr.0.stream.vendor_id.markup">[0][0][0][0]</property>
  <property name="kdenlive:original.meta.attr.0.stream.encoder.markup">Lavc60.3.100 libx264</property>
  <property name="kdenlive:original.meta.attr.major_brand.markup">isom</property>
  <property name="kdenlive:original.meta.attr.minor_version.markup">512</property>
  <property name="kdenlive:original.meta.attr.compatible_brands.markup">isomiso2avc1mp41</property>
  <property name="kdenlive:original.meta.attr.encoder.markup">Lavf60.3.100</property>
  <property name="kdenlive:original.meta.attr.comment.markup">Rendered with Manim Community v0.17.2</property>
  <property name="kdenlive:original.seekable">1</property>
  <property name="kdenlive:original.width">3840</property>
  <property name="kdenlive:original.height">2160</property>
  <property name="kdenlive:original.meta.media.sample_aspect_num">1</property>
  <property name="kdenlive:original.meta.media.sample_aspect_den">1</property>
  <property name="kdenlive:original.aspect_ratio">1</property>
  <property name="kdenlive:original.format">3</property>
  <property name="kdenlive:original.audio_index">-1</property>
  <property name="kdenlive:original.video_index">0</property>
  <property name="kdenlive:original.mute_on_pause">0</property>
  <property name="kdenlive:original.mlt_service">avformat-novalidate</property>
  <property name="kdenlive:original.meta.media.frame_rate_num">60</property>
  <property name="kdenlive:original.meta.media.frame_rate_den">1</property>
  <property name="kdenlive:original.meta.media.colorspace">709</property>
  <property name="kdenlive:original.meta.media.color_trc">2</property>
  <property name="kdenlive:original.meta.media.has_b_frames">2</property>
  <property name="kdenlive:original.meta.media.width">3840</property>
  <property name="kdenlive:original.meta.media.height">2160</property>
  <property name="kdenlive:original.meta.media.color_range">mpeg</property>
  <property name="kdenlive:original.meta.media.top_field_first">0</property>
  <property name="kdenlive:original.meta.media.progressive">1</property>
  <property name="kdenlive:original.kdenlive:clip_type">2</property>
  <property name="kdenlive:original.kdenlive:folderid">565</property>
  <property name="kdenlive:original.kdenlive:id">576</property>
  <property name="kdenlive:original.kdenlive:file_size">66447</property>
  <property name="kdenlive:original.kdenlive:file_hash">f2562922f2db4740d398c4939e92a7e5</property>
  <property name="kdenlive:original.backup">1</property>
  <property name="meta.media.frame_rate_num">60</property>
  <property name="meta.media.frame_rate_den">1</property>
  <property name="meta.media.colorspace">601</property>
  <property name="meta.media.color_trc">2</property>
  <property name="meta.media.has_b_frames">0</property>
  <property name="meta.media.width">640</property>
  <property name="meta.media.height">360</property>
  <property name="meta.media.color_range">full</property>
  <property name="meta.media.top_field_first">0</property>
  <property name="meta.media.progressive">1</property>
 </producer>
 <producer id="producer388" in="00:00:00.000" out="00:00:00.983">
  <property name="length">60</property>
  <property name="eof">pause</property>
  <property name="resource">/home/xiaoxiae/.cache/kdenlive/proxy/85b61749720780aaed023a90fd99d49d.mkv</property>
  <property name="meta.media.nb_streams">1</property>
  <property name="meta.media.0.stream.type">video</property>
  <property name="meta.media.0.stream.frame_rate">60</property>
  <property name="meta.media.0.stream.sample_aspect_ratio">0</property>
  <property name="meta.media.0.codec.width">640</property>
  <property name="meta.media.0.codec.height">360</property>
  <property name="meta.media.0.codec.rotate">0</property>
  <property name="meta.media.0.codec.pix_fmt">yuvj420p</property>
  <property name="meta.media.0.codec.sample_aspect_ratio">0</property>
  <property name="meta.media.0.codec.colorspace">601</property>
  <property name="meta.media.0.codec.name">mjpeg</property>
  <property name="meta.media.0.codec.long_name">MJPEG (Motion JPEG)</property>
  <property name="meta.media.0.codec.bit_rate">0</property>
  <property name="meta.attr.0.stream.HANDLER_NAME.markup">VideoHandler</property>
  <property name="meta.attr.0.stream.VENDOR_ID.markup">[0][0][0][0]</property>
  <property name="meta.attr.0.stream.ENCODER.markup">Lavc60.3.100 mjpeg</property>
  <property name="meta.attr.0.stream.DURATION.markup">00:00:01.000000000</property>
  <property name="meta.attr.COMMENT.markup">Rendered with Manim Community v0.17.2</property>
  <property name="meta.attr.MAJOR_BRAND.markup">isom</property>
  <property name="meta.attr.MINOR_VERSION.markup">512</property>
  <property name="meta.attr.COMPATIBLE_BRANDS.markup">isomiso2avc1mp41</property>
  <property name="meta.attr.ENCODER.markup">Lavf60.3.100</property>
  <property name="seekable">1</property>
  <property name="meta.media.sample_aspect_num">1</property>
  <property name="meta.media.sample_aspect_den">1</property>
  <property name="aspect_ratio">1</property>
  <property name="format">3</property>
  <property name="audio_index">-1</property>
  <property name="video_index">0</property>
  <property name="mute_on_pause">0</property>
  <property name="mlt_service">avformat-novalidate</property>
  <property name="kdenlive:clipname">2.mp4</property>
  <property name="kdenlive:clip_type">2</property>
  <property name="kdenlive:folderid">565</property>
  <property name="kdenlive:id">466</property>
  <property name="kdenlive:file_size">66602</property>
  <property name="kdenlive:file_hash">85b61749720780aaed023a90fd99d49d</property>
  <property name="kdenlive:proxy">/home/xiaoxiae/.cache/kdenlive/proxy/85b61749720780aaed023a90fd99d49d.mkv</property>
  <property name="kdenlive:originalurl">video/Search/2.mp4</property>
  <property name="kdenlive:original.mlt_type">producer</property>
  <property name="kdenlive:original.in">00:00:00.000</property>
  <property name="kdenlive:original.out">00:00:00.983</property>
  <property name="kdenlive:original.length">60</property>
  <property name="kdenlive:original.eof">pause</property>
  <property name="kdenlive:original.resource">video/Search/2.mp4</property>
  <property name="kdenlive:original.meta.media.nb_streams">1</property>
  <property name="kdenlive:original.meta.media.0.stream.type">video</property>
  <property name="kdenlive:original.meta.media.0.stream.frame_rate">60</property>
  <property name="kdenlive:original.meta.media.0.stream.sample_aspect_ratio">0</property>
  <property name="kdenlive:original.meta.media.0.codec.width">3840</property>
  <property name="kdenlive:original.meta.media.0.codec.height">2160</property>
  <property name="kdenlive:original.meta.media.0.codec.rotate">0</property>
  <property name="kdenlive:original.meta.media.0.codec.pix_fmt">yuv420p</property>
  <property name="kdenlive:original.meta.media.0.codec.sample_aspect_ratio">0</property>
  <property name="kdenlive:original.meta.media.0.codec.colorspace">709</property>
  <property name="kdenlive:original.meta.media.0.codec.name">h264</property>
  <property name="kdenlive:original.meta.media.0.codec.long_name">H.264 / AVC / MPEG-4 AVC / MPEG-4 part 10</property>
  <property name="kdenlive:original.meta.media.0.codec.bit_rate">519768</property>
  <property name="kdenlive:original.meta.attr.0.stream.handler_name.markup">VideoHandler</property>
  <property name="kdenlive:original.meta.attr.0.stream.vendor_id.markup">[0][0][0][0]</property>
  <property name="kdenlive:original.meta.attr.0.stream.encoder.markup">Lavc60.3.100 libx264</property>
  <property name="kdenlive:original.meta.attr.major_brand.markup">isom</property>
  <property name="kdenlive:original.meta.attr.minor_version.markup">512</property>
  <property name="kdenlive:original.meta.attr.compatible_brands.markup">isomiso2avc1mp41</property>
  <property name="kdenlive:original.meta.attr.encoder.markup">Lavf60.3.100</property>
  <property name="kdenlive:original.meta.attr.comment.markup">Rendered with Manim Community v0.17.2</property>
  <property name="kdenlive:original.seekable">1</property>
  <property name="kdenlive:original.width">3840</property>
  <property name="kdenlive:original.height">2160</property>
  <property name="kdenlive:original.meta.media.sample_aspect_num">1</property>
  <property name="kdenlive:original.meta.media.sample_aspect_den">1</property>
  <property name="kdenlive:original.aspect_ratio">1</property>
  <property name="kdenlive:original.format">3</property>
  <property name="kdenlive:original.audio_index">-1</property>
  <property name="kdenlive:original.video_index">0</property>
  <property name="kdenlive:original.mute_on_pause">0</property>
  <property name="kdenlive:original.mlt_service">avformat-novalidate</property>
  <property name="kdenlive:original.meta.media.frame_rate_num">60</property>
  <property name="kdenlive:original.meta.media.frame_rate_den">1</property>
  <property name="kdenlive:original.meta.media.colorspace">709</property>
  <property name="kdenlive:original.meta.media.color_trc">2</property>
  <property name="kdenlive:original.meta.media.has_b_frames">2</property>
  <property name="kdenlive:original.meta.media.width">3840</property>
  <property name="kdenlive:original.meta.media.height">2160</property>
  <property name="kdenlive:original.meta.media.color_range">mpeg</property>
  <property name="kdenlive:original.meta.media.top_field_first">0</property>
  <property name="kdenlive:original.meta.media.progressive">1</property>
  <property name="kdenlive:original.kdenlive:clip_type">2</property>
  <property name="kdenlive:original.kdenlive:folderid">565</property>
  <property name="kdenlive:original.kdenlive:id">577</property>
  <property name="kdenlive:original.kdenlive:file_size">66602</property>
  <property name="kdenlive:original.kdenlive:file_hash">85b61749720780aaed023a90fd99d49d</property>
  <property name="kdenlive:original.backup">1</property>
  <property name="meta.media.frame_rate_num">60</property>
  <property name="meta.media.frame_rate_den">1</property>
  <property name="meta.media.colorspace">601</property>
  <property name="meta.media.color_trc">2</property>
  <property name="meta.media.has_b_frames">0</property>
  <property name="meta.media.width">640</property>
  <property name="meta.media.height">360</property>
  <property name="meta.media.color_range">full</property>
  <property name="meta.media.top_field_first">0</property>
  <property name="meta.media.progressive">1</property>
 </producer>
 <producer id="producer389" in="00:00:00.000" out="00:00:00.317">
  <property name="length">20</property>
  <property name="eof">pause</property>
  <property name="resource">/home/xiaoxiae/.cache/kdenlive/proxy/ab1d1d6c7fd5508ae0fe0c5a5016df30.mkv</property>
  <property name="meta.media.nb_streams">1</property>
  <property name="meta.media.0.stream.type">video</property>
  <property name="meta.media.0.stream.frame_rate">60</property>
  <property name="meta.media.0.stream.sample_aspect_ratio">0</property>
  <property name="meta.media.0.codec.width">640</property>
  <property name="meta.media.0.codec.height">360</property>
  <property name="meta.media.0.codec.rotate">0</property>
  <property name="meta.media.0.codec.pix_fmt">yuvj420p</property>
  <property name="meta.media.0.codec.sample_aspect_ratio">0</property>
  <property name="meta.media.0.codec.colorspace">601</property>
  <property name="meta.media.0.codec.name">mjpeg</property>
  <property name="meta.media.0.codec.long_name">MJPEG (Motion JPEG)</property>
  <property name="meta.media.0.codec.bit_rate">0</property>
  <property name="meta.attr.0.stream.HANDLER_NAME.markup">VideoHandler</property>
  <property name="meta.attr.0.stream.VENDOR_ID.markup">[0][0][0][0]</property>
  <property name="meta.attr.0.stream.ENCODER.markup">Lavc60.3.100 mjpeg</property>
  <property name="meta.attr.0.stream.DURATION.markup">00:00:00.334000000</property>
  <property name="meta.attr.COMMENT.markup">Rendered with Manim Community v0.17.2</property>
  <property name="meta.attr.MAJOR_BRAND.markup">isom</property>
  <property name="meta.attr.MINOR_VERSION.markup">512</property>
  <property name="meta.attr.COMPATIBLE_BRANDS.markup">isomiso2avc1mp41</property>
  <property name="meta.attr.ENCODER.markup">Lavf60.3.100</property>
  <property name="seekable">1</property>
  <property name="meta.media.sample_aspect_num">1</property>
  <property name="meta.media.sample_aspect_den">1</property>
  <property name="aspect_ratio">1</property>
  <property name="format">3</property>
  <property name="audio_index">-1</property>
  <property name="video_index">0</property>
  <property name="mute_on_pause">0</property>
  <property name="mlt_service">avformat-novalidate</property>
  <property name="kdenlive:clipname">20.mp4</property>
  <property name="kdenlive:clip_type">2</property>
  <property name="kdenlive:folderid">565</property>
  <property name="kdenlive:id">467</property>
  <property name="kdenlive:file_size">62890</property>
  <property name="kdenlive:file_hash">ab1d1d6c7fd5508ae0fe0c5a5016df30</property>
  <property name="kdenlive:proxy">/home/xiaoxiae/.cache/kdenlive/proxy/ab1d1d6c7fd5508ae0fe0c5a5016df30.mkv</property>
  <property name="kdenlive:originalurl">video/Search/20.mp4</property>
  <property name="kdenlive:original.mlt_type">producer</property>
  <property name="kdenlive:original.in">00:00:00.000</property>
  <property name="kdenlive:original.out">00:00:00.317</property>
  <property name="kdenlive:original.length">20</property>
  <property name="kdenlive:original.eof">pause</property>
  <property name="kdenlive:original.resource">video/Search/20.mp4</property>
  <property name="kdenlive:original.meta.media.nb_streams">1</property>
  <property name="kdenlive:original.meta.media.0.stream.type">video</property>
  <property name="kdenlive:original.meta.media.0.stream.frame_rate">60</property>
  <property name="kdenlive:original.meta.media.0.stream.sample_aspect_ratio">0</property>
  <property name="kdenlive:original.meta.media.0.codec.width">3840</property>
  <property name="kdenlive:original.meta.media.0.codec.height">2160</property>
  <property name="kdenlive:original.meta.media.0.codec.rotate">0</property>
  <property name="kdenlive:original.meta.media.0.codec.pix_fmt">yuv420p</property>
  <property name="kdenlive:original.meta.media.0.codec.sample_aspect_ratio">0</property>
  <property name="kdenlive:original.meta.media.0.codec.colorspace">709</property>
  <property name="kdenlive:original.meta.media.0.codec.name">h264</property>
  <property name="kdenlive:original.meta.media.0.codec.long_name">H.264 / AVC / MPEG-4 AVC / MPEG-4 part 10</property>
  <property name="kdenlive:original.meta.media.0.codec.bit_rate">1482312</property>
  <property name="kdenlive:original.meta.attr.0.stream.handler_name.markup">VideoHandler</property>
  <property name="kdenlive:original.meta.attr.0.stream.vendor_id.markup">[0][0][0][0]</property>
  <property name="kdenlive:original.meta.attr.0.stream.encoder.markup">Lavc60.3.100 libx264</property>
  <property name="kdenlive:original.meta.attr.major_brand.markup">isom</property>
  <property name="kdenlive:original.meta.attr.minor_version.markup">512</property>
  <property name="kdenlive:original.meta.attr.compatible_brands.markup">isomiso2avc1mp41</property>
  <property name="kdenlive:original.meta.attr.encoder.markup">Lavf60.3.100</property>
  <property name="kdenlive:original.meta.attr.comment.markup">Rendered with Manim Community v0.17.2</property>
  <property name="kdenlive:original.seekable">1</property>
  <property name="kdenlive:original.width">3840</property>
  <property name="kdenlive:original.height">2160</property>
  <property name="kdenlive:original.meta.media.sample_aspect_num">1</property>
  <property name="kdenlive:original.meta.media.sample_aspect_den">1</property>
  <property name="kdenlive:original.aspect_ratio">1</property>
  <property name="kdenlive:original.format">3</property>
  <property name="kdenlive:original.audio_index">-1</property>
  <property name="kdenlive:original.video_index">0</property>
  <property name="kdenlive:original.mute_on_pause">0</property>
  <property name="kdenlive:original.mlt_service">avformat-novalidate</property>
  <property name="kdenlive:original.meta.media.frame_rate_num">60</property>
  <property name="kdenlive:original.meta.media.frame_rate_den">1</property>
  <property name="kdenlive:original.meta.media.colorspace">709</property>
  <property name="kdenlive:original.meta.media.color_trc">2</property>
  <property name="kdenlive:original.meta.media.has_b_frames">2</property>
  <property name="kdenlive:original.meta.media.width">3840</property>
  <property name="kdenlive:original.meta.media.height">2160</property>
  <property name="kdenlive:original.meta.media.color_range">mpeg</property>
  <property name="kdenlive:original.meta.media.top_field_first">0</property>
  <property name="kdenlive:original.meta.media.progressive">1</property>
  <property name="kdenlive:original.kdenlive:clip_type">2</property>
  <property name="kdenlive:original.kdenlive:folderid">565</property>
  <property name="kdenlive:original.kdenlive:id">578</property>
  <property name="kdenlive:original.kdenlive:file_size">62890</property>
  <property name="kdenlive:original.kdenlive:file_hash">ab1d1d6c7fd5508ae0fe0c5a5016df30</property>
  <property name="kdenlive:original.backup">1</property>
  <property name="meta.media.frame_rate_num">60</property>
  <property name="meta.media.frame_rate_den">1</property>
  <property name="meta.media.colorspace">601</property>
  <property name="meta.media.color_trc">2</property>
  <property name="meta.media.has_b_frames">0</property>
  <property name="meta.media.width">640</property>
  <property name="meta.media.height">360</property>
  <property name="meta.media.color_range">full</property>
  <property name="meta.media.top_field_first">0</property>
  <property name="meta.media.progressive">1</property>
 </producer>
 <producer id="producer390" in="00:00:00.000" out="00:00:00.317">
  <property name="length">20</property>
  <property name="eof">pause</property>
  <property name="resource">/home/xiaoxiae/.cache/kdenlive/proxy/db34653ab55185973255b0ff57cf2ac7.mkv</property>
  <property name="meta.media.nb_streams">1</property>
  <property name="meta.media.0.stream.type">video</property>
  <property name="meta.media.0.stream.frame_rate">60</property>
  <property name="meta.media.0.stream.sample_aspect_ratio">0</property>
  <property name="meta.media.0.codec.width">640</property>
  <property name="meta.media.0.codec.height">360</property>
  <property name="meta.media.0.codec.rotate">0</property>
  <property name="meta.media.0.codec.pix_fmt">yuvj420p</property>
  <property name="meta.media.0.codec.sample_aspect_ratio">0</property>
  <property name="meta.media.0.codec.colorspace">601</property>
  <property name="meta.media.0.codec.name">mjpeg</property>
  <property name="meta.media.0.codec.long_name">MJPEG (Motion JPEG)</property>
  <property name="meta.media.0.codec.bit_rate">0</property>
  <property name="meta.attr.0.stream.HANDLER_NAME.markup">VideoHandler</property>
  <property name="meta.attr.0.stream.VENDOR_ID.markup">[0][0][0][0]</property>
  <property name="meta.attr.0.stream.ENCODER.markup">Lavc60.3.100 mjpeg</property>
  <property name="meta.attr.0.stream.DURATION.markup">00:00:00.334000000</property>
  <property name="meta.attr.COMMENT.markup">Rendered with Manim Community v0.17.2</property>
  <property name="meta.attr.MAJOR_BRAND.markup">isom</property>
  <property name="meta.attr.MINOR_VERSION.markup">512</property>
  <property name="meta.attr.COMPATIBLE_BRANDS.markup">isomiso2avc1mp41</property>
  <property name="meta.attr.ENCODER.markup">Lavf60.3.100</property>
  <property name="seekable">1</property>
  <property name="meta.media.sample_aspect_num">1</property>
  <property name="meta.media.sample_aspect_den">1</property>
  <property name="aspect_ratio">1</property>
  <property name="format">3</property>
  <property name="audio_index">-1</property>
  <property name="video_index">0</property>
  <property name="mute_on_pause">0</property>
  <property name="mlt_service">avformat-novalidate</property>
  <property name="kdenlive:clipname">21.mp4</property>
  <property name="kdenlive:clip_type">2</property>
  <property name="kdenlive:folderid">565</property>
  <property name="kdenlive:id">468</property>
  <property name="kdenlive:file_size">64429</property>
  <property name="kdenlive:file_hash">db34653ab55185973255b0ff57cf2ac7</property>
  <property name="kdenlive:proxy">/home/xiaoxiae/.cache/kdenlive/proxy/db34653ab55185973255b0ff57cf2ac7.mkv</property>
  <property name="kdenlive:originalurl">video/Search/21.mp4</property>
  <property name="kdenlive:original.mlt_type">producer</property>
  <property name="kdenlive:original.in">00:00:00.000</property>
  <property name="kdenlive:original.out">00:00:00.317</property>
  <property name="kdenlive:original.length">20</property>
  <property name="kdenlive:original.eof">pause</property>
  <property name="kdenlive:original.resource">video/Search/21.mp4</property>
  <property name="kdenlive:original.meta.media.nb_streams">1</property>
  <property name="kdenlive:original.meta.media.0.stream.type">video</property>
  <property name="kdenlive:original.meta.media.0.stream.frame_rate">60</property>
  <property name="kdenlive:original.meta.media.0.stream.sample_aspect_ratio">0</property>
  <property name="kdenlive:original.meta.media.0.codec.width">3840</property>
  <property name="kdenlive:original.meta.media.0.codec.height">2160</property>
  <property name="kdenlive:original.meta.media.0.codec.rotate">0</property>
  <property name="kdenlive:original.meta.media.0.codec.pix_fmt">yuv420p</property>
  <property name="kdenlive:original.meta.media.0.codec.sample_aspect_ratio">0</property>
  <property name="kdenlive:original.meta.media.0.codec.colorspace">709</property>
  <property name="kdenlive:original.meta.media.0.codec.name">h264</property>
  <property name="kdenlive:original.meta.media.0.codec.long_name">H.264 / AVC / MPEG-4 AVC / MPEG-4 part 10</property>
  <property name="kdenlive:original.meta.media.0.codec.bit_rate">1519056</property>
  <property name="kdenlive:original.meta.attr.0.stream.handler_name.markup">VideoHandler</property>
  <property name="kdenlive:original.meta.attr.0.stream.vendor_id.markup">[0][0][0][0]</property>
  <property name="kdenlive:original.meta.attr.0.stream.encoder.markup">Lavc60.3.100 libx264</property>
  <property name="kdenlive:original.meta.attr.major_brand.markup">isom</property>
  <property name="kdenlive:original.meta.attr.minor_version.markup">512</property>
  <property name="kdenlive:original.meta.attr.compatible_brands.markup">isomiso2avc1mp41</property>
  <property name="kdenlive:original.meta.attr.encoder.markup">Lavf60.3.100</property>
  <property name="kdenlive:original.meta.attr.comment.markup">Rendered with Manim Community v0.17.2</property>
  <property name="kdenlive:original.seekable">1</property>
  <property name="kdenlive:original.width">3840</property>
  <property name="kdenlive:original.height">2160</property>
  <property name="kdenlive:original.meta.media.sample_aspect_num">1</property>
  <property name="kdenlive:original.meta.media.sample_aspect_den">1</property>
  <property name="kdenlive:original.aspect_ratio">1</property>
  <property name="kdenlive:original.format">3</property>
  <property name="kdenlive:original.audio_index">-1</property>
  <property name="kdenlive:original.video_index">0</property>
  <property name="kdenlive:original.mute_on_pause">0</property>
  <property name="kdenlive:original.mlt_service">avformat-novalidate</property>
  <property name="kdenlive:original.meta.media.frame_rate_num">60</property>
  <property name="kdenlive:original.meta.media.frame_rate_den">1</property>
  <property name="kdenlive:original.meta.media.colorspace">709</property>
  <property name="kdenlive:original.meta.media.color_trc">2</property>
  <property name="kdenlive:original.meta.media.has_b_frames">2</property>
  <property name="kdenlive:original.meta.media.width">3840</property>
  <property name="kdenlive:original.meta.media.height">2160</property>
  <property name="kdenlive:original.meta.media.color_range">mpeg</property>
  <property name="kdenlive:original.meta.media.top_field_first">0</property>
  <property name="kdenlive:original.meta.media.progressive">1</property>
  <property name="kdenlive:original.kdenlive:clip_type">2</property>
  <property name="kdenlive:original.kdenlive:folderid">565</property>
  <property name="kdenlive:original.kdenlive:id">579</property>
  <property name="kdenlive:original.kdenlive:file_size">64429</property>
  <property name="kdenlive:original.kdenlive:file_hash">db34653ab55185973255b0ff57cf2ac7</property>
  <property name="kdenlive:original.backup">1</property>
  <property name="meta.media.frame_rate_num">60</property>
  <property name="meta.media.frame_rate_den">1</property>
  <property name="meta.media.colorspace">601</property>
  <property name="meta.media.color_trc">2</property>
  <property name="meta.media.has_b_frames">0</property>
  <property name="meta.media.width">640</property>
  <property name="meta.media.height">360</property>
  <property name="meta.media.color_range">full</property>
  <property name="meta.media.top_field_first">0</property>
  <property name="meta.media.progressive">1</property>
 </producer>
 <producer id="producer392" in="00:00:00.000" out="00:00:00.317">
  <property name="length">20</property>
  <property name="eof">pause</property>
  <property name="resource">/home/xiaoxiae/.cache/kdenlive/proxy/ee91f7dba9da79e1fa55a59444d3e20e.mkv</property>
  <property name="meta.media.nb_streams">1</property>
  <property name="meta.media.0.stream.type">video</property>
  <property name="meta.media.0.stream.frame_rate">60</property>
  <property name="meta.media.0.stream.sample_aspect_ratio">0</property>
  <property name="meta.media.0.codec.width">640</property>
  <property name="meta.media.0.codec.height">360</property>
  <property name="meta.media.0.codec.rotate">0</property>
  <property name="meta.media.0.codec.pix_fmt">yuvj420p</property>
  <property name="meta.media.0.codec.sample_aspect_ratio">0</property>
  <property name="meta.media.0.codec.colorspace">601</property>
  <property name="meta.media.0.codec.name">mjpeg</property>
  <property name="meta.media.0.codec.long_name">MJPEG (Motion JPEG)</property>
  <property name="meta.media.0.codec.bit_rate">0</property>
  <property name="meta.attr.0.stream.HANDLER_NAME.markup">VideoHandler</property>
  <property name="meta.attr.0.stream.VENDOR_ID.markup">[0][0][0][0]</property>
  <property name="meta.attr.0.stream.ENCODER.markup">Lavc60.3.100 mjpeg</property>
  <property name="meta.attr.0.stream.DURATION.markup">00:00:00.334000000</property>
  <property name="meta.attr.COMMENT.markup">Rendered with Manim Community v0.17.2</property>
  <property name="meta.attr.MAJOR_BRAND.markup">isom</property>
  <property name="meta.attr.MINOR_VERSION.markup">512</property>
  <property name="meta.attr.COMPATIBLE_BRANDS.markup">isomiso2avc1mp41</property>
  <property name="meta.attr.ENCODER.markup">Lavf60.3.100</property>
  <property name="seekable">1</property>
  <property name="meta.media.sample_aspect_num">1</property>
  <property name="meta.media.sample_aspect_den">1</property>
  <property name="aspect_ratio">1</property>
  <property name="format">3</property>
  <property name="audio_index">-1</property>
  <property name="video_index">0</property>
  <property name="mute_on_pause">0</property>
  <property name="mlt_service">avformat-novalidate</property>
  <property name="kdenlive:clipname">22.mp4</property>
  <property name="kdenlive:clip_type">2</property>
  <property name="kdenlive:folderid">565</property>
  <property name="kdenlive:id">469</property>
  <property name="kdenlive:file_size">75510</property>
  <property name="kdenlive:file_hash">ee91f7dba9da79e1fa55a59444d3e20e</property>
  <property name="kdenlive:proxy">/home/xiaoxiae/.cache/kdenlive/proxy/ee91f7dba9da79e1fa55a59444d3e20e.mkv</property>
  <property name="kdenlive:originalurl">video/Search/22.mp4</property>
  <property name="kdenlive:original.mlt_type">producer</property>
  <property name="kdenlive:original.in">00:00:00.000</property>
  <property name="kdenlive:original.out">00:00:00.317</property>
  <property name="kdenlive:original.length">20</property>
  <property name="kdenlive:original.eof">pause</property>
  <property name="kdenlive:original.resource">video/Search/22.mp4</property>
  <property name="kdenlive:original.meta.media.nb_streams">1</property>
  <property name="kdenlive:original.meta.media.0.stream.type">video</property>
  <property name="kdenlive:original.meta.media.0.stream.frame_rate">60</property>
  <property name="kdenlive:original.meta.media.0.stream.sample_aspect_ratio">0</property>
  <property name="kdenlive:original.meta.media.0.codec.width">3840</property>
  <property name="kdenlive:original.meta.media.0.codec.height">2160</property>
  <property name="kdenlive:original.meta.media.0.codec.rotate">0</property>
  <property name="kdenlive:original.meta.media.0.codec.pix_fmt">yuv420p</property>
  <property name="kdenlive:original.meta.media.0.codec.sample_aspect_ratio">0</property>
  <property name="kdenlive:original.meta.media.0.codec.colorspace">709</property>
  <property name="kdenlive:original.meta.media.0.codec.name">h264</property>
  <property name="kdenlive:original.meta.media.0.codec.long_name">H.264 / AVC / MPEG-4 AVC / MPEG-4 part 10</property>
  <property name="kdenlive:original.meta.media.0.codec.bit_rate">1784616</property>
  <property name="kdenlive:original.meta.attr.0.stream.handler_name.markup">VideoHandler</property>
  <property name="kdenlive:original.meta.attr.0.stream.vendor_id.markup">[0][0][0][0]</property>
  <property name="kdenlive:original.meta.attr.0.stream.encoder.markup">Lavc60.3.100 libx264</property>
  <property name="kdenlive:original.meta.attr.major_brand.markup">isom</property>
  <property name="kdenlive:original.meta.attr.minor_version.markup">512</property>
  <property name="kdenlive:original.meta.attr.compatible_brands.markup">isomiso2avc1mp41</property>
  <property name="kdenlive:original.meta.attr.encoder.markup">Lavf60.3.100</property>
  <property name="kdenlive:original.meta.attr.comment.markup">Rendered with Manim Community v0.17.2</property>
  <property name="kdenlive:original.seekable">1</property>
  <property name="kdenlive:original.width">3840</property>
  <property name="kdenlive:original.height">2160</property>
  <property name="kdenlive:original.meta.media.sample_aspect_num">1</property>
  <property name="kdenlive:original.meta.media.sample_aspect_den">1</property>
  <property name="kdenlive:original.aspect_ratio">1</property>
  <property name="kdenlive:original.format">3</property>
  <property name="kdenlive:original.audio_index">-1</property>
  <property name="kdenlive:original.video_index">0</property>
  <property name="kdenlive:original.mute_on_pause">0</property>
  <property name="kdenlive:original.mlt_service">avformat-novalidate</property>
  <property name="kdenlive:original.meta.media.frame_rate_num">60</property>
  <property name="kdenlive:original.meta.media.frame_rate_den">1</property>
  <property name="kdenlive:original.meta.media.colorspace">709</property>
  <property name="kdenlive:original.meta.media.color_trc">2</property>
  <property name="kdenlive:original.meta.media.has_b_frames">2</property>
  <property name="kdenlive:original.meta.media.width">3840</property>
  <property name="kdenlive:original.meta.media.height">2160</property>
  <property name="kdenlive:original.meta.media.color_range">mpeg</property>
  <property name="kdenlive:original.meta.media.top_field_first">0</property>
  <property name="kdenlive:original.meta.media.progressive">1</property>
  <property name="kdenlive:original.kdenlive:clip_type">2</property>
  <property name="kdenlive:original.kdenlive:folderid">565</property>
  <property name="kdenlive:original.kdenlive:id">580</property>
  <property name="kdenlive:original.kdenlive:file_size">75510</property>
  <property name="kdenlive:original.kdenlive:file_hash">ee91f7dba9da79e1fa55a59444d3e20e</property>
  <property name="kdenlive:original.backup">1</property>
  <property name="meta.media.frame_rate_num">60</property>
  <property name="meta.media.frame_rate_den">1</property>
  <property name="meta.media.colorspace">601</property>
  <property name="meta.media.color_trc">2</property>
  <property name="meta.media.has_b_frames">0</property>
  <property name="meta.media.width">640</property>
  <property name="meta.media.height">360</property>
  <property name="meta.media.color_range">full</property>
  <property name="meta.media.top_field_first">0</property>
  <property name="meta.media.progressive">1</property>
 </producer>
 <producer id="producer391" in="00:00:00.000" out="00:00:00.483">
  <property name="length">30</property>
  <property name="eof">pause</property>
  <property name="resource">/home/xiaoxiae/.cache/kdenlive/proxy/ee9a53cef52e5d4fca0761b840e08e3f.mkv</property>
  <property name="meta.media.nb_streams">1</property>
  <property name="meta.media.0.stream.type">video</property>
  <property name="meta.media.0.stream.frame_rate">60</property>
  <property name="meta.media.0.stream.sample_aspect_ratio">0</property>
  <property name="meta.media.0.codec.width">640</property>
  <property name="meta.media.0.codec.height">360</property>
  <property name="meta.media.0.codec.rotate">0</property>
  <property name="meta.media.0.codec.pix_fmt">yuvj420p</property>
  <property name="meta.media.0.codec.sample_aspect_ratio">0</property>
  <property name="meta.media.0.codec.colorspace">601</property>
  <property name="meta.media.0.codec.name">mjpeg</property>
  <property name="meta.media.0.codec.long_name">MJPEG (Motion JPEG)</property>
  <property name="meta.media.0.codec.bit_rate">0</property>
  <property name="meta.attr.0.stream.HANDLER_NAME.markup">VideoHandler</property>
  <property name="meta.attr.0.stream.VENDOR_ID.markup">[0][0][0][0]</property>
  <property name="meta.attr.0.stream.ENCODER.markup">Lavc60.3.100 mjpeg</property>
  <property name="meta.attr.0.stream.DURATION.markup">00:00:00.500000000</property>
  <property name="meta.attr.COMMENT.markup">Rendered with Manim Community v0.17.2</property>
  <property name="meta.attr.MAJOR_BRAND.markup">isom</property>
  <property name="meta.attr.MINOR_VERSION.markup">512</property>
  <property name="meta.attr.COMPATIBLE_BRANDS.markup">isomiso2avc1mp41</property>
  <property name="meta.attr.ENCODER.markup">Lavf60.3.100</property>
  <property name="seekable">1</property>
  <property name="meta.media.sample_aspect_num">1</property>
  <property name="meta.media.sample_aspect_den">1</property>
  <property name="aspect_ratio">1</property>
  <property name="format">3</property>
  <property name="audio_index">-1</property>
  <property name="video_index">0</property>
  <property name="mute_on_pause">0</property>
  <property name="mlt_service">avformat-novalidate</property>
  <property name="kdenlive:clipname">23.mp4</property>
  <property name="kdenlive:clip_type">2</property>
  <property name="kdenlive:folderid">565</property>
  <property name="kdenlive:id">470</property>
  <property name="kdenlive:file_size">131813</property>
  <property name="kdenlive:file_hash">ee9a53cef52e5d4fca0761b840e08e3f</property>
  <property name="kdenlive:proxy">/home/xiaoxiae/.cache/kdenlive/proxy/ee9a53cef52e5d4fca0761b840e08e3f.mkv</property>
  <property name="kdenlive:originalurl">video/Search/23.mp4</property>
  <property name="kdenlive:original.mlt_type">producer</property>
  <property name="kdenlive:original.in">00:00:00.000</property>
  <property name="kdenlive:original.out">00:00:00.483</property>
  <property name="kdenlive:original.length">30</property>
  <property name="kdenlive:original.eof">pause</property>
  <property name="kdenlive:original.resource">video/Search/23.mp4</property>
  <property name="kdenlive:original.meta.media.nb_streams">1</property>
  <property name="kdenlive:original.meta.media.0.stream.type">video</property>
  <property name="kdenlive:original.meta.media.0.stream.frame_rate">60</property>
  <property name="kdenlive:original.meta.media.0.stream.sample_aspect_ratio">0</property>
  <property name="kdenlive:original.meta.media.0.codec.width">3840</property>
  <property name="kdenlive:original.meta.media.0.codec.height">2160</property>
  <property name="kdenlive:original.meta.media.0.codec.rotate">0</property>
  <property name="kdenlive:original.meta.media.0.codec.pix_fmt">yuv420p</property>
  <property name="kdenlive:original.meta.media.0.codec.sample_aspect_ratio">0</property>
  <property name="kdenlive:original.meta.media.0.codec.colorspace">709</property>
  <property name="kdenlive:original.meta.media.0.codec.name">h264</property>
  <property name="kdenlive:original.meta.media.0.codec.long_name">H.264 / AVC / MPEG-4 AVC / MPEG-4 part 10</property>
  <property name="kdenlive:original.meta.media.0.codec.bit_rate">2088800</property>
  <property name="kdenlive:original.meta.attr.0.stream.handler_name.markup">VideoHandler</property>
  <property name="kdenlive:original.meta.attr.0.stream.vendor_id.markup">[0][0][0][0]</property>
  <property name="kdenlive:original.meta.attr.0.stream.encoder.markup">Lavc60.3.100 libx264</property>
  <property name="kdenlive:original.meta.attr.major_brand.markup">isom</property>
  <property name="kdenlive:original.meta.attr.minor_version.markup">512</property>
  <property name="kdenlive:original.meta.attr.compatible_brands.markup">isomiso2avc1mp41</property>
  <property name="kdenlive:original.meta.attr.encoder.markup">Lavf60.3.100</property>
  <property name="kdenlive:original.meta.attr.comment.markup">Rendered with Manim Community v0.17.2</property>
  <property name="kdenlive:original.seekable">1</property>
  <property name="kdenlive:original.width">3840</property>
  <property name="kdenlive:original.height">2160</property>
  <property name="kdenlive:original.meta.media.sample_aspect_num">1</property>
  <property name="kdenlive:original.meta.media.sample_aspect_den">1</property>
  <property name="kdenlive:original.aspect_ratio">1</property>
  <property name="kdenlive:original.format">3</property>
  <property name="kdenlive:original.audio_index">-1</property>
  <property name="kdenlive:original.video_index">0</property>
  <property name="kdenlive:original.mute_on_pause">0</property>
  <property name="kdenlive:original.mlt_service">avformat-novalidate</property>
  <property name="kdenlive:original.meta.media.frame_rate_num">60</property>
  <property name="kdenlive:original.meta.media.frame_rate_den">1</property>
  <property name="kdenlive:original.meta.media.colorspace">709</property>
  <property name="kdenlive:original.meta.media.color_trc">2</property>
  <property name="kdenlive:original.meta.media.has_b_frames">2</property>
  <property name="kdenlive:original.meta.media.width">3840</property>
  <property name="kdenlive:original.meta.media.height">2160</property>
  <property name="kdenlive:original.meta.media.color_range">mpeg</property>
  <property name="kdenlive:original.meta.media.top_field_first">0</property>
  <property name="kdenlive:original.meta.media.progressive">1</property>
  <property name="kdenlive:original.kdenlive:clip_type">2</property>
  <property name="kdenlive:original.kdenlive:folderid">565</property>
  <property name="kdenlive:original.kdenlive:id">581</property>
  <property name="kdenlive:original.kdenlive:file_size">131813</property>
  <property name="kdenlive:original.kdenlive:file_hash">ee9a53cef52e5d4fca0761b840e08e3f</property>
  <property name="kdenlive:original.backup">1</property>
  <property name="meta.media.frame_rate_num">60</property>
  <property name="meta.media.frame_rate_den">1</property>
  <property name="meta.media.colorspace">601</property>
  <property name="meta.media.color_trc">2</property>
  <property name="meta.media.has_b_frames">0</property>
  <property name="meta.media.width">640</property>
  <property name="meta.media.height">360</property>
  <property name="meta.media.color_range">full</property>
  <property name="meta.media.top_field_first">0</property>
  <property name="meta.media.progressive">1</property>
 </producer>
 <producer id="producer393" in="00:00:00.000" out="00:00:00.483">
  <property name="length">30</property>
  <property name="eof">pause</property>
  <property name="resource">/home/xiaoxiae/.cache/kdenlive/proxy/e3671452d415e4fdabee49541d426b51.mkv</property>
  <property name="meta.media.nb_streams">1</property>
  <property name="meta.media.0.stream.type">video</property>
  <property name="meta.media.0.stream.frame_rate">60</property>
  <property name="meta.media.0.stream.sample_aspect_ratio">0</property>
  <property name="meta.media.0.codec.width">640</property>
  <property name="meta.media.0.codec.height">360</property>
  <property name="meta.media.0.codec.rotate">0</property>
  <property name="meta.media.0.codec.pix_fmt">yuvj420p</property>
  <property name="meta.media.0.codec.sample_aspect_ratio">0</property>
  <property name="meta.media.0.codec.colorspace">601</property>
  <property name="meta.media.0.codec.name">mjpeg</property>
  <property name="meta.media.0.codec.long_name">MJPEG (Motion JPEG)</property>
  <property name="meta.media.0.codec.bit_rate">0</property>
  <property name="meta.attr.0.stream.HANDLER_NAME.markup">VideoHandler</property>
  <property name="meta.attr.0.stream.VENDOR_ID.markup">[0][0][0][0]</property>
  <property name="meta.attr.0.stream.ENCODER.markup">Lavc60.3.100 mjpeg</property>
  <property name="meta.attr.0.stream.DURATION.markup">00:00:00.500000000</property>
  <property name="meta.attr.COMMENT.markup">Rendered with Manim Community v0.17.2</property>
  <property name="meta.attr.MAJOR_BRAND.markup">isom</property>
  <property name="meta.attr.MINOR_VERSION.markup">512</property>
  <property name="meta.attr.COMPATIBLE_BRANDS.markup">isomiso2avc1mp41</property>
  <property name="meta.attr.ENCODER.markup">Lavf60.3.100</property>
  <property name="seekable">1</property>
  <property name="meta.media.sample_aspect_num">1</property>
  <property name="meta.media.sample_aspect_den">1</property>
  <property name="aspect_ratio">1</property>
  <property name="format">3</property>
  <property name="audio_index">-1</property>
  <property name="video_index">0</property>
  <property name="mute_on_pause">0</property>
  <property name="mlt_service">avformat-novalidate</property>
  <property name="kdenlive:clipname">24.mp4</property>
  <property name="kdenlive:clip_type">2</property>
  <property name="kdenlive:folderid">565</property>
  <property name="kdenlive:id">471</property>
  <property name="kdenlive:file_size">47453</property>
  <property name="kdenlive:file_hash">e3671452d415e4fdabee49541d426b51</property>
  <property name="kdenlive:proxy">/home/xiaoxiae/.cache/kdenlive/proxy/e3671452d415e4fdabee49541d426b51.mkv</property>
  <property name="kdenlive:originalurl">video/Search/24.mp4</property>
  <property name="kdenlive:original.mlt_type">producer</property>
  <property name="kdenlive:original.in">00:00:00.000</property>
  <property name="kdenlive:original.out">00:00:00.483</property>
  <property name="kdenlive:original.length">30</property>
  <property name="kdenlive:original.eof">pause</property>
  <property name="kdenlive:original.resource">video/Search/24.mp4</property>
  <property name="kdenlive:original.meta.media.nb_streams">1</property>
  <property name="kdenlive:original.meta.media.0.stream.type">video</property>
  <property name="kdenlive:original.meta.media.0.stream.frame_rate">60</property>
  <property name="kdenlive:original.meta.media.0.stream.sample_aspect_ratio">0</property>
  <property name="kdenlive:original.meta.media.0.codec.width">3840</property>
  <property name="kdenlive:original.meta.media.0.codec.height">2160</property>
  <property name="kdenlive:original.meta.media.0.codec.rotate">0</property>
  <property name="kdenlive:original.meta.media.0.codec.pix_fmt">yuv420p</property>
  <property name="kdenlive:original.meta.media.0.codec.sample_aspect_ratio">0</property>
  <property name="kdenlive:original.meta.media.0.codec.colorspace">709</property>
  <property name="kdenlive:original.meta.media.0.codec.name">h264</property>
  <property name="kdenlive:original.meta.media.0.codec.long_name">H.264 / AVC / MPEG-4 AVC / MPEG-4 part 10</property>
  <property name="kdenlive:original.meta.media.0.codec.bit_rate">738912</property>
  <property name="kdenlive:original.meta.attr.0.stream.handler_name.markup">VideoHandler</property>
  <property name="kdenlive:original.meta.attr.0.stream.vendor_id.markup">[0][0][0][0]</property>
  <property name="kdenlive:original.meta.attr.0.stream.encoder.markup">Lavc60.3.100 libx264</property>
  <property name="kdenlive:original.meta.attr.major_brand.markup">isom</property>
  <property name="kdenlive:original.meta.attr.minor_version.markup">512</property>
  <property name="kdenlive:original.meta.attr.compatible_brands.markup">isomiso2avc1mp41</property>
  <property name="kdenlive:original.meta.attr.encoder.markup">Lavf60.3.100</property>
  <property name="kdenlive:original.meta.attr.comment.markup">Rendered with Manim Community v0.17.2</property>
  <property name="kdenlive:original.seekable">1</property>
  <property name="kdenlive:original.width">3840</property>
  <property name="kdenlive:original.height">2160</property>
  <property name="kdenlive:original.meta.media.sample_aspect_num">1</property>
  <property name="kdenlive:original.meta.media.sample_aspect_den">1</property>
  <property name="kdenlive:original.aspect_ratio">1</property>
  <property name="kdenlive:original.format">3</property>
  <property name="kdenlive:original.audio_index">-1</property>
  <property name="kdenlive:original.video_index">0</property>
  <property name="kdenlive:original.mute_on_pause">0</property>
  <property name="kdenlive:original.mlt_service">avformat-novalidate</property>
  <property name="kdenlive:original.meta.media.frame_rate_num">60</property>
  <property name="kdenlive:original.meta.media.frame_rate_den">1</property>
  <property name="kdenlive:original.meta.media.colorspace">709</property>
  <property name="kdenlive:original.meta.media.color_trc">2</property>
  <property name="kdenlive:original.meta.media.has_b_frames">2</property>
  <property name="kdenlive:original.meta.media.width">3840</property>
  <property name="kdenlive:original.meta.media.height">2160</property>
  <property name="kdenlive:original.meta.media.color_range">mpeg</property>
  <property name="kdenlive:original.meta.media.top_field_first">0</property>
  <property name="kdenlive:original.meta.media.progressive">1</property>
  <property name="kdenlive:original.kdenlive:clip_type">2</property>
  <property name="kdenlive:original.kdenlive:folderid">565</property>
  <property name="kdenlive:original.kdenlive:id">582</property>
  <property name="kdenlive:original.kdenlive:file_size">47453</property>
  <property name="kdenlive:original.kdenlive:file_hash">e3671452d415e4fdabee49541d426b51</property>
  <property name="kdenlive:original.backup">1</property>
  <property name="meta.media.frame_rate_num">60</property>
  <property name="meta.media.frame_rate_den">1</property>
  <property name="meta.media.colorspace">601</property>
  <property name="meta.media.color_trc">2</property>
  <property name="meta.media.has_b_frames">0</property>
  <property name="meta.media.width">640</property>
  <property name="meta.media.height">360</property>
  <property name="meta.media.color_range">full</property>
  <property name="meta.media.top_field_first">0</property>
  <property name="meta.media.progressive">1</property>
 </producer>
 <producer id="producer394" in="00:00:00.000" out="00:00:00.483">
  <property name="length">30</property>
  <property name="eof">pause</property>
  <property name="resource">/home/xiaoxiae/.cache/kdenlive/proxy/9369939f75a028f01485ccfcf1001e7c.mkv</property>
  <property name="meta.media.nb_streams">1</property>
  <property name="meta.media.0.stream.type">video</property>
  <property name="meta.media.0.stream.frame_rate">60</property>
  <property name="meta.media.0.stream.sample_aspect_ratio">0</property>
  <property name="meta.media.0.codec.width">640</property>
  <property name="meta.media.0.codec.height">360</property>
  <property name="meta.media.0.codec.rotate">0</property>
  <property name="meta.media.0.codec.pix_fmt">yuvj420p</property>
  <property name="meta.media.0.codec.sample_aspect_ratio">0</property>
  <property name="meta.media.0.codec.colorspace">601</property>
  <property name="meta.media.0.codec.name">mjpeg</property>
  <property name="meta.media.0.codec.long_name">MJPEG (Motion JPEG)</property>
  <property name="meta.media.0.codec.bit_rate">0</property>
  <property name="meta.attr.0.stream.HANDLER_NAME.markup">VideoHandler</property>
  <property name="meta.attr.0.stream.VENDOR_ID.markup">[0][0][0][0]</property>
  <property name="meta.attr.0.stream.ENCODER.markup">Lavc60.3.100 mjpeg</property>
  <property name="meta.attr.0.stream.DURATION.markup">00:00:00.500000000</property>
  <property name="meta.attr.COMMENT.markup">Rendered with Manim Community v0.17.2</property>
  <property name="meta.attr.MAJOR_BRAND.markup">isom</property>
  <property name="meta.attr.MINOR_VERSION.markup">512</property>
  <property name="meta.attr.COMPATIBLE_BRANDS.markup">isomiso2avc1mp41</property>
  <property name="meta.attr.ENCODER.markup">Lavf60.3.100</property>
  <property name="seekable">1</property>
  <property name="meta.media.sample_aspect_num">1</property>
  <property name="meta.media.sample_aspect_den">1</property>
  <property name="aspect_ratio">1</property>
  <property name="format">3</property>
  <property name="audio_index">-1</property>
  <property name="video_index">0</property>
  <property name="mute_on_pause">0</property>
  <property name="mlt_service">avformat-novalidate</property>
  <property name="kdenlive:clipname">25.mp4</property>
  <property name="kdenlive:clip_type">2</property>
  <property name="kdenlive:folderid">565</property>
  <property name="kdenlive:id">472</property>
  <property name="kdenlive:file_size">49017</property>
  <property name="kdenlive:file_hash">9369939f75a028f01485ccfcf1001e7c</property>
  <property name="kdenlive:proxy">/home/xiaoxiae/.cache/kdenlive/proxy/9369939f75a028f01485ccfcf1001e7c.mkv</property>
  <property name="kdenlive:originalurl">video/Search/25.mp4</property>
  <property name="kdenlive:original.mlt_type">producer</property>
  <property name="kdenlive:original.in">00:00:00.000</property>
  <property name="kdenlive:original.out">00:00:00.483</property>
  <property name="kdenlive:original.length">30</property>
  <property name="kdenlive:original.eof">pause</property>
  <property name="kdenlive:original.resource">video/Search/25.mp4</property>
  <property name="kdenlive:original.meta.media.nb_streams">1</property>
  <property name="kdenlive:original.meta.media.0.stream.type">video</property>
  <property name="kdenlive:original.meta.media.0.stream.frame_rate">60</property>
  <property name="kdenlive:original.meta.media.0.stream.sample_aspect_ratio">0</property>
  <property name="kdenlive:original.meta.media.0.codec.width">3840</property>
  <property name="kdenlive:original.meta.media.0.codec.height">2160</property>
  <property name="kdenlive:original.meta.media.0.codec.rotate">0</property>
  <property name="kdenlive:original.meta.media.0.codec.pix_fmt">yuv420p</property>
  <property name="kdenlive:original.meta.media.0.codec.sample_aspect_ratio">0</property>
  <property name="kdenlive:original.meta.media.0.codec.colorspace">709</property>
  <property name="kdenlive:original.meta.media.0.codec.name">h264</property>
  <property name="kdenlive:original.meta.media.0.codec.long_name">H.264 / AVC / MPEG-4 AVC / MPEG-4 part 10</property>
  <property name="kdenlive:original.meta.media.0.codec.bit_rate">764320</property>
  <property name="kdenlive:original.meta.attr.0.stream.handler_name.markup">VideoHandler</property>
  <property name="kdenlive:original.meta.attr.0.stream.vendor_id.markup">[0][0][0][0]</property>
  <property name="kdenlive:original.meta.attr.0.stream.encoder.markup">Lavc60.3.100 libx264</property>
  <property name="kdenlive:original.meta.attr.major_brand.markup">isom</property>
  <property name="kdenlive:original.meta.attr.minor_version.markup">512</property>
  <property name="kdenlive:original.meta.attr.compatible_brands.markup">isomiso2avc1mp41</property>
  <property name="kdenlive:original.meta.attr.encoder.markup">Lavf60.3.100</property>
  <property name="kdenlive:original.meta.attr.comment.markup">Rendered with Manim Community v0.17.2</property>
  <property name="kdenlive:original.seekable">1</property>
  <property name="kdenlive:original.width">3840</property>
  <property name="kdenlive:original.height">2160</property>
  <property name="kdenlive:original.meta.media.sample_aspect_num">1</property>
  <property name="kdenlive:original.meta.media.sample_aspect_den">1</property>
  <property name="kdenlive:original.aspect_ratio">1</property>
  <property name="kdenlive:original.format">3</property>
  <property name="kdenlive:original.audio_index">-1</property>
  <property name="kdenlive:original.video_index">0</property>
  <property name="kdenlive:original.mute_on_pause">0</property>
  <property name="kdenlive:original.mlt_service">avformat-novalidate</property>
  <property name="kdenlive:original.meta.media.frame_rate_num">60</property>
  <property name="kdenlive:original.meta.media.frame_rate_den">1</property>
  <property name="kdenlive:original.meta.media.colorspace">709</property>
  <property name="kdenlive:original.meta.media.color_trc">2</property>
  <property name="kdenlive:original.meta.media.has_b_frames">2</property>
  <property name="kdenlive:original.meta.media.width">3840</property>
  <property name="kdenlive:original.meta.media.height">2160</property>
  <property name="kdenlive:original.meta.media.color_range">mpeg</property>
  <property name="kdenlive:original.meta.media.top_field_first">0</property>
  <property name="kdenlive:original.meta.media.progressive">1</property>
  <property name="kdenlive:original.kdenlive:clip_type">2</property>
  <property name="kdenlive:original.kdenlive:folderid">565</property>
  <property name="kdenlive:original.kdenlive:id">583</property>
  <property name="kdenlive:original.kdenlive:file_size">49017</property>
  <property name="kdenlive:original.kdenlive:file_hash">9369939f75a028f01485ccfcf1001e7c</property>
  <property name="kdenlive:original.backup">1</property>
  <property name="meta.media.frame_rate_num">60</property>
  <property name="meta.media.frame_rate_den">1</property>
  <property name="meta.media.colorspace">601</property>
  <property name="meta.media.color_trc">2</property>
  <property name="meta.media.has_b_frames">0</property>
  <property name="meta.media.width">640</property>
  <property name="meta.media.height">360</property>
  <property name="meta.media.color_range">full</property>
  <property name="meta.media.top_field_first">0</property>
  <property name="meta.media.progressive">1</property>
 </producer>
 <producer id="producer395" in="00:00:00.000" out="00:00:00.317">
  <property name="length">20</property>
  <property name="eof">pause</property>
  <property name="resource">/home/xiaoxiae/.cache/kdenlive/proxy/02dc590827e8aad82322155cb84c57a6.mkv</property>
  <property name="meta.media.nb_streams">1</property>
  <property name="meta.media.0.stream.type">video</property>
  <property name="meta.media.0.stream.frame_rate">60</property>
  <property name="meta.media.0.stream.sample_aspect_ratio">0</property>
  <property name="meta.media.0.codec.width">640</property>
  <property name="meta.media.0.codec.height">360</property>
  <property name="meta.media.0.codec.rotate">0</property>
  <property name="meta.media.0.codec.pix_fmt">yuvj420p</property>
  <property name="meta.media.0.codec.sample_aspect_ratio">0</property>
  <property name="meta.media.0.codec.colorspace">601</property>
  <property name="meta.media.0.codec.name">mjpeg</property>
  <property name="meta.media.0.codec.long_name">MJPEG (Motion JPEG)</property>
  <property name="meta.media.0.codec.bit_rate">0</property>
  <property name="meta.attr.0.stream.HANDLER_NAME.markup">VideoHandler</property>
  <property name="meta.attr.0.stream.VENDOR_ID.markup">[0][0][0][0]</property>
  <property name="meta.attr.0.stream.ENCODER.markup">Lavc60.3.100 mjpeg</property>
  <property name="meta.attr.0.stream.DURATION.markup">00:00:00.334000000</property>
  <property name="meta.attr.COMMENT.markup">Rendered with Manim Community v0.17.2</property>
  <property name="meta.attr.MAJOR_BRAND.markup">isom</property>
  <property name="meta.attr.MINOR_VERSION.markup">512</property>
  <property name="meta.attr.COMPATIBLE_BRANDS.markup">isomiso2avc1mp41</property>
  <property name="meta.attr.ENCODER.markup">Lavf60.3.100</property>
  <property name="seekable">1</property>
  <property name="meta.media.sample_aspect_num">1</property>
  <property name="meta.media.sample_aspect_den">1</property>
  <property name="aspect_ratio">1</property>
  <property name="format">3</property>
  <property name="audio_index">-1</property>
  <property name="video_index">0</property>
  <property name="mute_on_pause">0</property>
  <property name="mlt_service">avformat-novalidate</property>
  <property name="kdenlive:clipname">26.mp4</property>
  <property name="kdenlive:clip_type">2</property>
  <property name="kdenlive:folderid">565</property>
  <property name="kdenlive:id">473</property>
  <property name="kdenlive:file_size">45163</property>
  <property name="kdenlive:file_hash">02dc590827e8aad82322155cb84c57a6</property>
  <property name="kdenlive:proxy">/home/xiaoxiae/.cache/kdenlive/proxy/02dc590827e8aad82322155cb84c57a6.mkv</property>
  <property name="kdenlive:originalurl">video/Search/26.mp4</property>
  <property name="kdenlive:original.mlt_type">producer</property>
  <property name="kdenlive:original.in">00:00:00.000</property>
  <property name="kdenlive:original.out">00:00:00.317</property>
  <property name="kdenlive:original.length">20</property>
  <property name="kdenlive:original.eof">pause</property>
  <property name="kdenlive:original.resource">video/Search/26.mp4</property>
  <property name="kdenlive:original.meta.media.nb_streams">1</property>
  <property name="kdenlive:original.meta.media.0.stream.type">video</property>
  <property name="kdenlive:original.meta.media.0.stream.frame_rate">60</property>
  <property name="kdenlive:original.meta.media.0.stream.sample_aspect_ratio">0</property>
  <property name="kdenlive:original.meta.media.0.codec.width">3840</property>
  <property name="kdenlive:original.meta.media.0.codec.height">2160</property>
  <property name="kdenlive:original.meta.media.0.codec.rotate">0</property>
  <property name="kdenlive:original.meta.media.0.codec.pix_fmt">yuv420p</property>
  <property name="kdenlive:original.meta.media.0.codec.sample_aspect_ratio">0</property>
  <property name="kdenlive:original.meta.media.0.codec.colorspace">709</property>
  <property name="kdenlive:original.meta.media.0.codec.name">h264</property>
  <property name="kdenlive:original.meta.media.0.codec.long_name">H.264 / AVC / MPEG-4 AVC / MPEG-4 part 10</property>
  <property name="kdenlive:original.meta.media.0.codec.bit_rate">1056288</property>
  <property name="kdenlive:original.meta.attr.0.stream.handler_name.markup">VideoHandler</property>
  <property name="kdenlive:original.meta.attr.0.stream.vendor_id.markup">[0][0][0][0]</property>
  <property name="kdenlive:original.meta.attr.0.stream.encoder.markup">Lavc60.3.100 libx264</property>
  <property name="kdenlive:original.meta.attr.major_brand.markup">isom</property>
  <property name="kdenlive:original.meta.attr.minor_version.markup">512</property>
  <property name="kdenlive:original.meta.attr.compatible_brands.markup">isomiso2avc1mp41</property>
  <property name="kdenlive:original.meta.attr.encoder.markup">Lavf60.3.100</property>
  <property name="kdenlive:original.meta.attr.comment.markup">Rendered with Manim Community v0.17.2</property>
  <property name="kdenlive:original.seekable">1</property>
  <property name="kdenlive:original.width">3840</property>
  <property name="kdenlive:original.height">2160</property>
  <property name="kdenlive:original.meta.media.sample_aspect_num">1</property>
  <property name="kdenlive:original.meta.media.sample_aspect_den">1</property>
  <property name="kdenlive:original.aspect_ratio">1</property>
  <property name="kdenlive:original.format">3</property>
  <property name="kdenlive:original.audio_index">-1</property>
  <property name="kdenlive:original.video_index">0</property>
  <property name="kdenlive:original.mute_on_pause">0</property>
  <property name="kdenlive:original.mlt_service">avformat-novalidate</property>
  <property name="kdenlive:original.meta.media.frame_rate_num">60</property>
  <property name="kdenlive:original.meta.media.frame_rate_den">1</property>
  <property name="kdenlive:original.meta.media.colorspace">709</property>
  <property name="kdenlive:original.meta.media.color_trc">2</property>
  <property name="kdenlive:original.meta.media.has_b_frames">2</property>
  <property name="kdenlive:original.meta.media.width">3840</property>
  <property name="kdenlive:original.meta.media.height">2160</property>
  <property name="kdenlive:original.meta.media.color_range">mpeg</property>
  <property name="kdenlive:original.meta.media.top_field_first">0</property>
  <property name="kdenlive:original.meta.media.progressive">1</property>
  <property name="kdenlive:original.kdenlive:clip_type">2</property>
  <property name="kdenlive:original.kdenlive:folderid">565</property>
  <property name="kdenlive:original.kdenlive:id">584</property>
  <property name="kdenlive:original.kdenlive:file_size">45163</property>
  <property name="kdenlive:original.kdenlive:file_hash">02dc590827e8aad82322155cb84c57a6</property>
  <property name="kdenlive:original.backup">1</property>
  <property name="meta.media.frame_rate_num">60</property>
  <property name="meta.media.frame_rate_den">1</property>
  <property name="meta.media.colorspace">601</property>
  <property name="meta.media.color_trc">2</property>
  <property name="meta.media.has_b_frames">0</property>
  <property name="meta.media.width">640</property>
  <property name="meta.media.height">360</property>
  <property name="meta.media.color_range">full</property>
  <property name="meta.media.top_field_first">0</property>
  <property name="meta.media.progressive">1</property>
 </producer>
 <producer id="producer396" in="00:00:00.000" out="00:00:00.317">
  <property name="length">20</property>
  <property name="eof">pause</property>
  <property name="resource">/home/xiaoxiae/.cache/kdenlive/proxy/8f4e23fac0cae2bd6af0206ed7ed00da.mkv</property>
  <property name="meta.media.nb_streams">1</property>
  <property name="meta.media.0.stream.type">video</property>
  <property name="meta.media.0.stream.frame_rate">60</property>
  <property name="meta.media.0.stream.sample_aspect_ratio">0</property>
  <property name="meta.media.0.codec.width">640</property>
  <property name="meta.media.0.codec.height">360</property>
  <property name="meta.media.0.codec.rotate">0</property>
  <property name="meta.media.0.codec.pix_fmt">yuvj420p</property>
  <property name="meta.media.0.codec.sample_aspect_ratio">0</property>
  <property name="meta.media.0.codec.colorspace">601</property>
  <property name="meta.media.0.codec.name">mjpeg</property>
  <property name="meta.media.0.codec.long_name">MJPEG (Motion JPEG)</property>
  <property name="meta.media.0.codec.bit_rate">0</property>
  <property name="meta.attr.0.stream.HANDLER_NAME.markup">VideoHandler</property>
  <property name="meta.attr.0.stream.VENDOR_ID.markup">[0][0][0][0]</property>
  <property name="meta.attr.0.stream.ENCODER.markup">Lavc60.3.100 mjpeg</property>
  <property name="meta.attr.0.stream.DURATION.markup">00:00:00.334000000</property>
  <property name="meta.attr.COMMENT.markup">Rendered with Manim Community v0.17.2</property>
  <property name="meta.attr.MAJOR_BRAND.markup">isom</property>
  <property name="meta.attr.MINOR_VERSION.markup">512</property>
  <property name="meta.attr.COMPATIBLE_BRANDS.markup">isomiso2avc1mp41</property>
  <property name="meta.attr.ENCODER.markup">Lavf60.3.100</property>
  <property name="seekable">1</property>
  <property name="meta.media.sample_aspect_num">1</property>
  <property name="meta.media.sample_aspect_den">1</property>
  <property name="aspect_ratio">1</property>
  <property name="format">3</property>
  <property name="audio_index">-1</property>
  <property name="video_index">0</property>
  <property name="mute_on_pause">0</property>
  <property name="mlt_service">avformat-novalidate</property>
  <property name="kdenlive:clipname">27.mp4</property>
  <property name="kdenlive:clip_type">2</property>
  <property name="kdenlive:folderid">565</property>
  <property name="kdenlive:id">474</property>
  <property name="kdenlive:file_size">43087</property>
  <property name="kdenlive:file_hash">8f4e23fac0cae2bd6af0206ed7ed00da</property>
  <property name="kdenlive:proxy">/home/xiaoxiae/.cache/kdenlive/proxy/8f4e23fac0cae2bd6af0206ed7ed00da.mkv</property>
  <property name="kdenlive:originalurl">video/Search/27.mp4</property>
  <property name="kdenlive:original.mlt_type">producer</property>
  <property name="kdenlive:original.in">00:00:00.000</property>
  <property name="kdenlive:original.out">00:00:00.317</property>
  <property name="kdenlive:original.length">20</property>
  <property name="kdenlive:original.eof">pause</property>
  <property name="kdenlive:original.resource">video/Search/27.mp4</property>
  <property name="kdenlive:original.meta.media.nb_streams">1</property>
  <property name="kdenlive:original.meta.media.0.stream.type">video</property>
  <property name="kdenlive:original.meta.media.0.stream.frame_rate">60</property>
  <property name="kdenlive:original.meta.media.0.stream.sample_aspect_ratio">0</property>
  <property name="kdenlive:original.meta.media.0.codec.width">3840</property>
  <property name="kdenlive:original.meta.media.0.codec.height">2160</property>
  <property name="kdenlive:original.meta.media.0.codec.rotate">0</property>
  <property name="kdenlive:original.meta.media.0.codec.pix_fmt">yuv420p</property>
  <property name="kdenlive:original.meta.media.0.codec.sample_aspect_ratio">0</property>
  <property name="kdenlive:original.meta.media.0.codec.colorspace">709</property>
  <property name="kdenlive:original.meta.media.0.codec.name">h264</property>
  <property name="kdenlive:original.meta.media.0.codec.long_name">H.264 / AVC / MPEG-4 AVC / MPEG-4 part 10</property>
  <property name="kdenlive:original.meta.media.0.codec.bit_rate">1006656</property>
  <property name="kdenlive:original.meta.attr.0.stream.handler_name.markup">VideoHandler</property>
  <property name="kdenlive:original.meta.attr.0.stream.vendor_id.markup">[0][0][0][0]</property>
  <property name="kdenlive:original.meta.attr.0.stream.encoder.markup">Lavc60.3.100 libx264</property>
  <property name="kdenlive:original.meta.attr.major_brand.markup">isom</property>
  <property name="kdenlive:original.meta.attr.minor_version.markup">512</property>
  <property name="kdenlive:original.meta.attr.compatible_brands.markup">isomiso2avc1mp41</property>
  <property name="kdenlive:original.meta.attr.encoder.markup">Lavf60.3.100</property>
  <property name="kdenlive:original.meta.attr.comment.markup">Rendered with Manim Community v0.17.2</property>
  <property name="kdenlive:original.seekable">1</property>
  <property name="kdenlive:original.width">3840</property>
  <property name="kdenlive:original.height">2160</property>
  <property name="kdenlive:original.meta.media.sample_aspect_num">1</property>
  <property name="kdenlive:original.meta.media.sample_aspect_den">1</property>
  <property name="kdenlive:original.aspect_ratio">1</property>
  <property name="kdenlive:original.format">3</property>
  <property name="kdenlive:original.audio_index">-1</property>
  <property name="kdenlive:original.video_index">0</property>
  <property name="kdenlive:original.mute_on_pause">0</property>
  <property name="kdenlive:original.mlt_service">avformat-novalidate</property>
  <property name="kdenlive:original.meta.media.frame_rate_num">60</property>
  <property name="kdenlive:original.meta.media.frame_rate_den">1</property>
  <property name="kdenlive:original.meta.media.colorspace">709</property>
  <property name="kdenlive:original.meta.media.color_trc">2</property>
  <property name="kdenlive:original.meta.media.has_b_frames">2</property>
  <property name="kdenlive:original.meta.media.width">3840</property>
  <property name="kdenlive:original.meta.media.height">2160</property>
  <property name="kdenlive:original.meta.media.color_range">mpeg</property>
  <property name="kdenlive:original.meta.media.top_field_first">0</property>
  <property name="kdenlive:original.meta.media.progressive">1</property>
  <property name="kdenlive:original.kdenlive:clip_type">2</property>
  <property name="kdenlive:original.kdenlive:folderid">565</property>
  <property name="kdenlive:original.kdenlive:id">585</property>
  <property name="kdenlive:original.kdenlive:file_size">43087</property>
  <property name="kdenlive:original.kdenlive:file_hash">8f4e23fac0cae2bd6af0206ed7ed00da</property>
  <property name="kdenlive:original.backup">1</property>
  <property name="meta.media.frame_rate_num">60</property>
  <property name="meta.media.frame_rate_den">1</property>
  <property name="meta.media.colorspace">601</property>
  <property name="meta.media.color_trc">2</property>
  <property name="meta.media.has_b_frames">0</property>
  <property name="meta.media.width">640</property>
  <property name="meta.media.height">360</property>
  <property name="meta.media.color_range">full</property>
  <property name="meta.media.top_field_first">0</property>
  <property name="meta.media.progressive">1</property>
 </producer>
 <producer id="producer397" in="00:00:00.000" out="00:00:00.317">
  <property name="length">20</property>
  <property name="eof">pause</property>
  <property name="resource">/home/xiaoxiae/.cache/kdenlive/proxy/6c721bb5a18c3a3074c8c7a29f235254.mkv</property>
  <property name="meta.media.nb_streams">1</property>
  <property name="meta.media.0.stream.type">video</property>
  <property name="meta.media.0.stream.frame_rate">60</property>
  <property name="meta.media.0.stream.sample_aspect_ratio">0</property>
  <property name="meta.media.0.codec.width">640</property>
  <property name="meta.media.0.codec.height">360</property>
  <property name="meta.media.0.codec.rotate">0</property>
  <property name="meta.media.0.codec.pix_fmt">yuvj420p</property>
  <property name="meta.media.0.codec.sample_aspect_ratio">0</property>
  <property name="meta.media.0.codec.colorspace">601</property>
  <property name="meta.media.0.codec.name">mjpeg</property>
  <property name="meta.media.0.codec.long_name">MJPEG (Motion JPEG)</property>
  <property name="meta.media.0.codec.bit_rate">0</property>
  <property name="meta.attr.0.stream.HANDLER_NAME.markup">VideoHandler</property>
  <property name="meta.attr.0.stream.VENDOR_ID.markup">[0][0][0][0]</property>
  <property name="meta.attr.0.stream.ENCODER.markup">Lavc60.3.100 mjpeg</property>
  <property name="meta.attr.0.stream.DURATION.markup">00:00:00.334000000</property>
  <property name="meta.attr.COMMENT.markup">Rendered with Manim Community v0.17.2</property>
  <property name="meta.attr.MAJOR_BRAND.markup">isom</property>
  <property name="meta.attr.MINOR_VERSION.markup">512</property>
  <property name="meta.attr.COMPATIBLE_BRANDS.markup">isomiso2avc1mp41</property>
  <property name="meta.attr.ENCODER.markup">Lavf60.3.100</property>
  <property name="seekable">1</property>
  <property name="meta.media.sample_aspect_num">1</property>
  <property name="meta.media.sample_aspect_den">1</property>
  <property name="aspect_ratio">1</property>
  <property name="format">3</property>
  <property name="audio_index">-1</property>
  <property name="video_index">0</property>
  <property name="mute_on_pause">0</property>
  <property name="mlt_service">avformat-novalidate</property>
  <property name="kdenlive:clipname">28.mp4</property>
  <property name="kdenlive:clip_type">2</property>
  <property name="kdenlive:folderid">565</property>
  <property name="kdenlive:id">475</property>
  <property name="kdenlive:file_size">43621</property>
  <property name="kdenlive:file_hash">6c721bb5a18c3a3074c8c7a29f235254</property>
  <property name="kdenlive:proxy">/home/xiaoxiae/.cache/kdenlive/proxy/6c721bb5a18c3a3074c8c7a29f235254.mkv</property>
  <property name="kdenlive:originalurl">video/Search/28.mp4</property>
  <property name="kdenlive:original.mlt_type">producer</property>
  <property name="kdenlive:original.in">00:00:00.000</property>
  <property name="kdenlive:original.out">00:00:00.317</property>
  <property name="kdenlive:original.length">20</property>
  <property name="kdenlive:original.eof">pause</property>
  <property name="kdenlive:original.resource">video/Search/28.mp4</property>
  <property name="kdenlive:original.meta.media.nb_streams">1</property>
  <property name="kdenlive:original.meta.media.0.stream.type">video</property>
  <property name="kdenlive:original.meta.media.0.stream.frame_rate">60</property>
  <property name="kdenlive:original.meta.media.0.stream.sample_aspect_ratio">0</property>
  <property name="kdenlive:original.meta.media.0.codec.width">3840</property>
  <property name="kdenlive:original.meta.media.0.codec.height">2160</property>
  <property name="kdenlive:original.meta.media.0.codec.rotate">0</property>
  <property name="kdenlive:original.meta.media.0.codec.pix_fmt">yuv420p</property>
  <property name="kdenlive:original.meta.media.0.codec.sample_aspect_ratio">0</property>
  <property name="kdenlive:original.meta.media.0.codec.colorspace">709</property>
  <property name="kdenlive:original.meta.media.0.codec.name">h264</property>
  <property name="kdenlive:original.meta.media.0.codec.long_name">H.264 / AVC / MPEG-4 AVC / MPEG-4 part 10</property>
  <property name="kdenlive:original.meta.media.0.codec.bit_rate">1019280</property>
  <property name="kdenlive:original.meta.attr.0.stream.handler_name.markup">VideoHandler</property>
  <property name="kdenlive:original.meta.attr.0.stream.vendor_id.markup">[0][0][0][0]</property>
  <property name="kdenlive:original.meta.attr.0.stream.encoder.markup">Lavc60.3.100 libx264</property>
  <property name="kdenlive:original.meta.attr.major_brand.markup">isom</property>
  <property name="kdenlive:original.meta.attr.minor_version.markup">512</property>
  <property name="kdenlive:original.meta.attr.compatible_brands.markup">isomiso2avc1mp41</property>
  <property name="kdenlive:original.meta.attr.encoder.markup">Lavf60.3.100</property>
  <property name="kdenlive:original.meta.attr.comment.markup">Rendered with Manim Community v0.17.2</property>
  <property name="kdenlive:original.seekable">1</property>
  <property name="kdenlive:original.width">3840</property>
  <property name="kdenlive:original.height">2160</property>
  <property name="kdenlive:original.meta.media.sample_aspect_num">1</property>
  <property name="kdenlive:original.meta.media.sample_aspect_den">1</property>
  <property name="kdenlive:original.aspect_ratio">1</property>
  <property name="kdenlive:original.format">3</property>
  <property name="kdenlive:original.audio_index">-1</property>
  <property name="kdenlive:original.video_index">0</property>
  <property name="kdenlive:original.mute_on_pause">0</property>
  <property name="kdenlive:original.mlt_service">avformat-novalidate</property>
  <property name="kdenlive:original.meta.media.frame_rate_num">60</property>
  <property name="kdenlive:original.meta.media.frame_rate_den">1</property>
  <property name="kdenlive:original.meta.media.colorspace">709</property>
  <property name="kdenlive:original.meta.media.color_trc">2</property>
  <property name="kdenlive:original.meta.media.has_b_frames">2</property>
  <property name="kdenlive:original.meta.media.width">3840</property>
  <property name="kdenlive:original.meta.media.height">2160</property>
  <property name="kdenlive:original.meta.media.color_range">mpeg</property>
  <property name="kdenlive:original.meta.media.top_field_first">0</property>
  <property name="kdenlive:original.meta.media.progressive">1</property>
  <property name="kdenlive:original.kdenlive:clip_type">2</property>
  <property name="kdenlive:original.kdenlive:folderid">565</property>
  <property name="kdenlive:original.kdenlive:id">586</property>
  <property name="kdenlive:original.kdenlive:file_size">43621</property>
  <property name="kdenlive:original.kdenlive:file_hash">6c721bb5a18c3a3074c8c7a29f235254</property>
  <property name="kdenlive:original.backup">1</property>
  <property name="meta.media.frame_rate_num">60</property>
  <property name="meta.media.frame_rate_den">1</property>
  <property name="meta.media.colorspace">601</property>
  <property name="meta.media.color_trc">2</property>
  <property name="meta.media.has_b_frames">0</property>
  <property name="meta.media.width">640</property>
  <property name="meta.media.height">360</property>
  <property name="meta.media.color_range">full</property>
  <property name="meta.media.top_field_first">0</property>
  <property name="meta.media.progressive">1</property>
 </producer>
 <producer id="producer398" in="00:00:00.000" out="00:00:00.317">
  <property name="length">20</property>
  <property name="eof">pause</property>
  <property name="resource">/home/xiaoxiae/.cache/kdenlive/proxy/777e1e4c3bf710cf78cdb324f63129a8.mkv</property>
  <property name="meta.media.nb_streams">1</property>
  <property name="meta.media.0.stream.type">video</property>
  <property name="meta.media.0.stream.frame_rate">60</property>
  <property name="meta.media.0.stream.sample_aspect_ratio">0</property>
  <property name="meta.media.0.codec.width">640</property>
  <property name="meta.media.0.codec.height">360</property>
  <property name="meta.media.0.codec.rotate">0</property>
  <property name="meta.media.0.codec.pix_fmt">yuvj420p</property>
  <property name="meta.media.0.codec.sample_aspect_ratio">0</property>
  <property name="meta.media.0.codec.colorspace">601</property>
  <property name="meta.media.0.codec.name">mjpeg</property>
  <property name="meta.media.0.codec.long_name">MJPEG (Motion JPEG)</property>
  <property name="meta.media.0.codec.bit_rate">0</property>
  <property name="meta.attr.0.stream.HANDLER_NAME.markup">VideoHandler</property>
  <property name="meta.attr.0.stream.VENDOR_ID.markup">[0][0][0][0]</property>
  <property name="meta.attr.0.stream.ENCODER.markup">Lavc60.3.100 mjpeg</property>
  <property name="meta.attr.0.stream.DURATION.markup">00:00:00.334000000</property>
  <property name="meta.attr.COMMENT.markup">Rendered with Manim Community v0.17.2</property>
  <property name="meta.attr.MAJOR_BRAND.markup">isom</property>
  <property name="meta.attr.MINOR_VERSION.markup">512</property>
  <property name="meta.attr.COMPATIBLE_BRANDS.markup">isomiso2avc1mp41</property>
  <property name="meta.attr.ENCODER.markup">Lavf60.3.100</property>
  <property name="seekable">1</property>
  <property name="meta.media.sample_aspect_num">1</property>
  <property name="meta.media.sample_aspect_den">1</property>
  <property name="aspect_ratio">1</property>
  <property name="format">3</property>
  <property name="audio_index">-1</property>
  <property name="video_index">0</property>
  <property name="mute_on_pause">0</property>
  <property name="mlt_service">avformat-novalidate</property>
  <property name="kdenlive:clipname">29.mp4</property>
  <property name="kdenlive:clip_type">2</property>
  <property name="kdenlive:folderid">565</property>
  <property name="kdenlive:id">476</property>
  <property name="kdenlive:file_size">43581</property>
  <property name="kdenlive:file_hash">777e1e4c3bf710cf78cdb324f63129a8</property>
  <property name="kdenlive:proxy">/home/xiaoxiae/.cache/kdenlive/proxy/777e1e4c3bf710cf78cdb324f63129a8.mkv</property>
  <property name="kdenlive:originalurl">video/Search/29.mp4</property>
  <property name="kdenlive:original.mlt_type">producer</property>
  <property name="kdenlive:original.in">00:00:00.000</property>
  <property name="kdenlive:original.out">00:00:00.317</property>
  <property name="kdenlive:original.length">20</property>
  <property name="kdenlive:original.eof">pause</property>
  <property name="kdenlive:original.resource">video/Search/29.mp4</property>
  <property name="kdenlive:original.meta.media.nb_streams">1</property>
  <property name="kdenlive:original.meta.media.0.stream.type">video</property>
  <property name="kdenlive:original.meta.media.0.stream.frame_rate">60</property>
  <property name="kdenlive:original.meta.media.0.stream.sample_aspect_ratio">0</property>
  <property name="kdenlive:original.meta.media.0.codec.width">3840</property>
  <property name="kdenlive:original.meta.media.0.codec.height">2160</property>
  <property name="kdenlive:original.meta.media.0.codec.rotate">0</property>
  <property name="kdenlive:original.meta.media.0.codec.pix_fmt">yuv420p</property>
  <property name="kdenlive:original.meta.media.0.codec.sample_aspect_ratio">0</property>
  <property name="kdenlive:original.meta.media.0.codec.colorspace">709</property>
  <property name="kdenlive:original.meta.media.0.codec.name">h264</property>
  <property name="kdenlive:original.meta.media.0.codec.long_name">H.264 / AVC / MPEG-4 AVC / MPEG-4 part 10</property>
  <property name="kdenlive:original.meta.media.0.codec.bit_rate">1018512</property>
  <property name="kdenlive:original.meta.attr.0.stream.handler_name.markup">VideoHandler</property>
  <property name="kdenlive:original.meta.attr.0.stream.vendor_id.markup">[0][0][0][0]</property>
  <property name="kdenlive:original.meta.attr.0.stream.encoder.markup">Lavc60.3.100 libx264</property>
  <property name="kdenlive:original.meta.attr.major_brand.markup">isom</property>
  <property name="kdenlive:original.meta.attr.minor_version.markup">512</property>
  <property name="kdenlive:original.meta.attr.compatible_brands.markup">isomiso2avc1mp41</property>
  <property name="kdenlive:original.meta.attr.encoder.markup">Lavf60.3.100</property>
  <property name="kdenlive:original.meta.attr.comment.markup">Rendered with Manim Community v0.17.2</property>
  <property name="kdenlive:original.seekable">1</property>
  <property name="kdenlive:original.width">3840</property>
  <property name="kdenlive:original.height">2160</property>
  <property name="kdenlive:original.meta.media.sample_aspect_num">1</property>
  <property name="kdenlive:original.meta.media.sample_aspect_den">1</property>
  <property name="kdenlive:original.aspect_ratio">1</property>
  <property name="kdenlive:original.format">3</property>
  <property name="kdenlive:original.audio_index">-1</property>
  <property name="kdenlive:original.video_index">0</property>
  <property name="kdenlive:original.mute_on_pause">0</property>
  <property name="kdenlive:original.mlt_service">avformat-novalidate</property>
  <property name="kdenlive:original.meta.media.frame_rate_num">60</property>
  <property name="kdenlive:original.meta.media.frame_rate_den">1</property>
  <property name="kdenlive:original.meta.media.colorspace">709</property>
  <property name="kdenlive:original.meta.media.color_trc">2</property>
  <property name="kdenlive:original.meta.media.has_b_frames">2</property>
  <property name="kdenlive:original.meta.media.width">3840</property>
  <property name="kdenlive:original.meta.media.height">2160</property>
  <property name="kdenlive:original.meta.media.color_range">mpeg</property>
  <property name="kdenlive:original.meta.media.top_field_first">0</property>
  <property name="kdenlive:original.meta.media.progressive">1</property>
  <property name="kdenlive:original.kdenlive:clip_type">2</property>
  <property name="kdenlive:original.kdenlive:folderid">565</property>
  <property name="kdenlive:original.kdenlive:id">587</property>
  <property name="kdenlive:original.kdenlive:file_size">43581</property>
  <property name="kdenlive:original.kdenlive:file_hash">777e1e4c3bf710cf78cdb324f63129a8</property>
  <property name="kdenlive:original.backup">1</property>
  <property name="meta.media.frame_rate_num">60</property>
  <property name="meta.media.frame_rate_den">1</property>
  <property name="meta.media.colorspace">601</property>
  <property name="meta.media.color_trc">2</property>
  <property name="meta.media.has_b_frames">0</property>
  <property name="meta.media.width">640</property>
  <property name="meta.media.height">360</property>
  <property name="meta.media.color_range">full</property>
  <property name="meta.media.top_field_first">0</property>
  <property name="meta.media.progressive">1</property>
 </producer>
 <producer id="producer399" in="00:00:00.000" out="00:00:00.983">
  <property name="length">60</property>
  <property name="eof">pause</property>
  <property name="resource">/home/xiaoxiae/.cache/kdenlive/proxy/f47ca0d7dc81fa1fb5a0db4025fc4b8b.mkv</property>
  <property name="meta.media.nb_streams">1</property>
  <property name="meta.media.0.stream.type">video</property>
  <property name="meta.media.0.stream.frame_rate">60</property>
  <property name="meta.media.0.stream.sample_aspect_ratio">0</property>
  <property name="meta.media.0.codec.width">640</property>
  <property name="meta.media.0.codec.height">360</property>
  <property name="meta.media.0.codec.rotate">0</property>
  <property name="meta.media.0.codec.pix_fmt">yuvj420p</property>
  <property name="meta.media.0.codec.sample_aspect_ratio">0</property>
  <property name="meta.media.0.codec.colorspace">601</property>
  <property name="meta.media.0.codec.name">mjpeg</property>
  <property name="meta.media.0.codec.long_name">MJPEG (Motion JPEG)</property>
  <property name="meta.media.0.codec.bit_rate">0</property>
  <property name="meta.attr.0.stream.HANDLER_NAME.markup">VideoHandler</property>
  <property name="meta.attr.0.stream.VENDOR_ID.markup">[0][0][0][0]</property>
  <property name="meta.attr.0.stream.ENCODER.markup">Lavc60.3.100 mjpeg</property>
  <property name="meta.attr.0.stream.DURATION.markup">00:00:01.000000000</property>
  <property name="meta.attr.COMMENT.markup">Rendered with Manim Community v0.17.2</property>
  <property name="meta.attr.MAJOR_BRAND.markup">isom</property>
  <property name="meta.attr.MINOR_VERSION.markup">512</property>
  <property name="meta.attr.COMPATIBLE_BRANDS.markup">isomiso2avc1mp41</property>
  <property name="meta.attr.ENCODER.markup">Lavf60.3.100</property>
  <property name="seekable">1</property>
  <property name="meta.media.sample_aspect_num">1</property>
  <property name="meta.media.sample_aspect_den">1</property>
  <property name="aspect_ratio">1</property>
  <property name="format">3</property>
  <property name="audio_index">-1</property>
  <property name="video_index">0</property>
  <property name="mute_on_pause">0</property>
  <property name="mlt_service">avformat-novalidate</property>
  <property name="kdenlive:clipname">3.mp4</property>
  <property name="kdenlive:clip_type">2</property>
  <property name="kdenlive:folderid">565</property>
  <property name="kdenlive:id">477</property>
  <property name="kdenlive:file_size">77027</property>
  <property name="kdenlive:file_hash">f47ca0d7dc81fa1fb5a0db4025fc4b8b</property>
  <property name="kdenlive:proxy">/home/xiaoxiae/.cache/kdenlive/proxy/f47ca0d7dc81fa1fb5a0db4025fc4b8b.mkv</property>
  <property name="kdenlive:originalurl">video/Search/3.mp4</property>
  <property name="kdenlive:original.mlt_type">producer</property>
  <property name="kdenlive:original.in">00:00:00.000</property>
  <property name="kdenlive:original.out">00:00:00.983</property>
  <property name="kdenlive:original.length">60</property>
  <property name="kdenlive:original.eof">pause</property>
  <property name="kdenlive:original.resource">video/Search/3.mp4</property>
  <property name="kdenlive:original.meta.media.nb_streams">1</property>
  <property name="kdenlive:original.meta.media.0.stream.type">video</property>
  <property name="kdenlive:original.meta.media.0.stream.frame_rate">60</property>
  <property name="kdenlive:original.meta.media.0.stream.sample_aspect_ratio">0</property>
  <property name="kdenlive:original.meta.media.0.codec.width">3840</property>
  <property name="kdenlive:original.meta.media.0.codec.height">2160</property>
  <property name="kdenlive:original.meta.media.0.codec.rotate">0</property>
  <property name="kdenlive:original.meta.media.0.codec.pix_fmt">yuv420p</property>
  <property name="kdenlive:original.meta.media.0.codec.sample_aspect_ratio">0</property>
  <property name="kdenlive:original.meta.media.0.codec.colorspace">709</property>
  <property name="kdenlive:original.meta.media.0.codec.name">h264</property>
  <property name="kdenlive:original.meta.media.0.codec.long_name">H.264 / AVC / MPEG-4 AVC / MPEG-4 part 10</property>
  <property name="kdenlive:original.meta.media.0.codec.bit_rate">603168</property>
  <property name="kdenlive:original.meta.attr.0.stream.handler_name.markup">VideoHandler</property>
  <property name="kdenlive:original.meta.attr.0.stream.vendor_id.markup">[0][0][0][0]</property>
  <property name="kdenlive:original.meta.attr.0.stream.encoder.markup">Lavc60.3.100 libx264</property>
  <property name="kdenlive:original.meta.attr.major_brand.markup">isom</property>
  <property name="kdenlive:original.meta.attr.minor_version.markup">512</property>
  <property name="kdenlive:original.meta.attr.compatible_brands.markup">isomiso2avc1mp41</property>
  <property name="kdenlive:original.meta.attr.encoder.markup">Lavf60.3.100</property>
  <property name="kdenlive:original.meta.attr.comment.markup">Rendered with Manim Community v0.17.2</property>
  <property name="kdenlive:original.seekable">1</property>
  <property name="kdenlive:original.width">3840</property>
  <property name="kdenlive:original.height">2160</property>
  <property name="kdenlive:original.meta.media.sample_aspect_num">1</property>
  <property name="kdenlive:original.meta.media.sample_aspect_den">1</property>
  <property name="kdenlive:original.aspect_ratio">1</property>
  <property name="kdenlive:original.format">3</property>
  <property name="kdenlive:original.audio_index">-1</property>
  <property name="kdenlive:original.video_index">0</property>
  <property name="kdenlive:original.mute_on_pause">0</property>
  <property name="kdenlive:original.mlt_service">avformat-novalidate</property>
  <property name="kdenlive:original.meta.media.frame_rate_num">60</property>
  <property name="kdenlive:original.meta.media.frame_rate_den">1</property>
  <property name="kdenlive:original.meta.media.colorspace">709</property>
  <property name="kdenlive:original.meta.media.color_trc">2</property>
  <property name="kdenlive:original.meta.media.has_b_frames">2</property>
  <property name="kdenlive:original.meta.media.width">3840</property>
  <property name="kdenlive:original.meta.media.height">2160</property>
  <property name="kdenlive:original.meta.media.color_range">mpeg</property>
  <property name="kdenlive:original.meta.media.top_field_first">0</property>
  <property name="kdenlive:original.meta.media.progressive">1</property>
  <property name="kdenlive:original.kdenlive:clip_type">2</property>
  <property name="kdenlive:original.kdenlive:folderid">565</property>
  <property name="kdenlive:original.kdenlive:id">588</property>
  <property name="kdenlive:original.kdenlive:file_size">77027</property>
  <property name="kdenlive:original.kdenlive:file_hash">f47ca0d7dc81fa1fb5a0db4025fc4b8b</property>
  <property name="kdenlive:original.backup">1</property>
  <property name="meta.media.frame_rate_num">60</property>
  <property name="meta.media.frame_rate_den">1</property>
  <property name="meta.media.colorspace">601</property>
  <property name="meta.media.color_trc">2</property>
  <property name="meta.media.has_b_frames">0</property>
  <property name="meta.media.width">640</property>
  <property name="meta.media.height">360</property>
  <property name="meta.media.color_range">full</property>
  <property name="meta.media.top_field_first">0</property>
  <property name="meta.media.progressive">1</property>
 </producer>
 <producer id="producer400" in="00:00:00.000" out="00:00:00.317">
  <property name="length">20</property>
  <property name="eof">pause</property>
  <property name="resource">/home/xiaoxiae/.cache/kdenlive/proxy/9140be04ec5c5c4b25700dae242a15c5.mkv</property>
  <property name="meta.media.nb_streams">1</property>
  <property name="meta.media.0.stream.type">video</property>
  <property name="meta.media.0.stream.frame_rate">60</property>
  <property name="meta.media.0.stream.sample_aspect_ratio">0</property>
  <property name="meta.media.0.codec.width">640</property>
  <property name="meta.media.0.codec.height">360</property>
  <property name="meta.media.0.codec.rotate">0</property>
  <property name="meta.media.0.codec.pix_fmt">yuvj420p</property>
  <property name="meta.media.0.codec.sample_aspect_ratio">0</property>
  <property name="meta.media.0.codec.colorspace">601</property>
  <property name="meta.media.0.codec.name">mjpeg</property>
  <property name="meta.media.0.codec.long_name">MJPEG (Motion JPEG)</property>
  <property name="meta.media.0.codec.bit_rate">0</property>
  <property name="meta.attr.0.stream.HANDLER_NAME.markup">VideoHandler</property>
  <property name="meta.attr.0.stream.VENDOR_ID.markup">[0][0][0][0]</property>
  <property name="meta.attr.0.stream.ENCODER.markup">Lavc60.3.100 mjpeg</property>
  <property name="meta.attr.0.stream.DURATION.markup">00:00:00.334000000</property>
  <property name="meta.attr.COMMENT.markup">Rendered with Manim Community v0.17.2</property>
  <property name="meta.attr.MAJOR_BRAND.markup">isom</property>
  <property name="meta.attr.MINOR_VERSION.markup">512</property>
  <property name="meta.attr.COMPATIBLE_BRANDS.markup">isomiso2avc1mp41</property>
  <property name="meta.attr.ENCODER.markup">Lavf60.3.100</property>
  <property name="seekable">1</property>
  <property name="meta.media.sample_aspect_num">1</property>
  <property name="meta.media.sample_aspect_den">1</property>
  <property name="aspect_ratio">1</property>
  <property name="format">3</property>
  <property name="audio_index">-1</property>
  <property name="video_index">0</property>
  <property name="mute_on_pause">0</property>
  <property name="mlt_service">avformat-novalidate</property>
  <property name="kdenlive:clipname">30.mp4</property>
  <property name="kdenlive:clip_type">2</property>
  <property name="kdenlive:folderid">565</property>
  <property name="kdenlive:id">478</property>
  <property name="kdenlive:file_size">42768</property>
  <property name="kdenlive:file_hash">9140be04ec5c5c4b25700dae242a15c5</property>
  <property name="kdenlive:proxy">/home/xiaoxiae/.cache/kdenlive/proxy/9140be04ec5c5c4b25700dae242a15c5.mkv</property>
  <property name="kdenlive:originalurl">video/Search/30.mp4</property>
  <property name="kdenlive:original.mlt_type">producer</property>
  <property name="kdenlive:original.in">00:00:00.000</property>
  <property name="kdenlive:original.out">00:00:00.317</property>
  <property name="kdenlive:original.length">20</property>
  <property name="kdenlive:original.eof">pause</property>
  <property name="kdenlive:original.resource">video/Search/30.mp4</property>
  <property name="kdenlive:original.meta.media.nb_streams">1</property>
  <property name="kdenlive:original.meta.media.0.stream.type">video</property>
  <property name="kdenlive:original.meta.media.0.stream.frame_rate">60</property>
  <property name="kdenlive:original.meta.media.0.stream.sample_aspect_ratio">0</property>
  <property name="kdenlive:original.meta.media.0.codec.width">3840</property>
  <property name="kdenlive:original.meta.media.0.codec.height">2160</property>
  <property name="kdenlive:original.meta.media.0.codec.rotate">0</property>
  <property name="kdenlive:original.meta.media.0.codec.pix_fmt">yuv420p</property>
  <property name="kdenlive:original.meta.media.0.codec.sample_aspect_ratio">0</property>
  <property name="kdenlive:original.meta.media.0.codec.colorspace">709</property>
  <property name="kdenlive:original.meta.media.0.codec.name">h264</property>
  <property name="kdenlive:original.meta.media.0.codec.long_name">H.264 / AVC / MPEG-4 AVC / MPEG-4 part 10</property>
  <property name="kdenlive:original.meta.media.0.codec.bit_rate">999000</property>
  <property name="kdenlive:original.meta.attr.0.stream.handler_name.markup">VideoHandler</property>
  <property name="kdenlive:original.meta.attr.0.stream.vendor_id.markup">[0][0][0][0]</property>
  <property name="kdenlive:original.meta.attr.0.stream.encoder.markup">Lavc60.3.100 libx264</property>
  <property name="kdenlive:original.meta.attr.major_brand.markup">isom</property>
  <property name="kdenlive:original.meta.attr.minor_version.markup">512</property>
  <property name="kdenlive:original.meta.attr.compatible_brands.markup">isomiso2avc1mp41</property>
  <property name="kdenlive:original.meta.attr.encoder.markup">Lavf60.3.100</property>
  <property name="kdenlive:original.meta.attr.comment.markup">Rendered with Manim Community v0.17.2</property>
  <property name="kdenlive:original.seekable">1</property>
  <property name="kdenlive:original.width">3840</property>
  <property name="kdenlive:original.height">2160</property>
  <property name="kdenlive:original.meta.media.sample_aspect_num">1</property>
  <property name="kdenlive:original.meta.media.sample_aspect_den">1</property>
  <property name="kdenlive:original.aspect_ratio">1</property>
  <property name="kdenlive:original.format">3</property>
  <property name="kdenlive:original.audio_index">-1</property>
  <property name="kdenlive:original.video_index">0</property>
  <property name="kdenlive:original.mute_on_pause">0</property>
  <property name="kdenlive:original.mlt_service">avformat-novalidate</property>
  <property name="kdenlive:original.meta.media.frame_rate_num">60</property>
  <property name="kdenlive:original.meta.media.frame_rate_den">1</property>
  <property name="kdenlive:original.meta.media.colorspace">709</property>
  <property name="kdenlive:original.meta.media.color_trc">2</property>
  <property name="kdenlive:original.meta.media.has_b_frames">2</property>
  <property name="kdenlive:original.meta.media.width">3840</property>
  <property name="kdenlive:original.meta.media.height">2160</property>
  <property name="kdenlive:original.meta.media.color_range">mpeg</property>
  <property name="kdenlive:original.meta.media.top_field_first">0</property>
  <property name="kdenlive:original.meta.media.progressive">1</property>
  <property name="kdenlive:original.kdenlive:clip_type">2</property>
  <property name="kdenlive:original.kdenlive:folderid">565</property>
  <property name="kdenlive:original.kdenlive:id">589</property>
  <property name="kdenlive:original.kdenlive:file_size">42768</property>
  <property name="kdenlive:original.kdenlive:file_hash">9140be04ec5c5c4b25700dae242a15c5</property>
  <property name="kdenlive:original.backup">1</property>
  <property name="meta.media.frame_rate_num">60</property>
  <property name="meta.media.frame_rate_den">1</property>
  <property name="meta.media.colorspace">601</property>
  <property name="meta.media.color_trc">2</property>
  <property name="meta.media.has_b_frames">0</property>
  <property name="meta.media.width">640</property>
  <property name="meta.media.height">360</property>
  <property name="meta.media.color_range">full</property>
  <property name="meta.media.top_field_first">0</property>
  <property name="meta.media.progressive">1</property>
 </producer>
 <producer id="producer401" in="00:00:00.000" out="00:00:00.317">
  <property name="length">20</property>
  <property name="eof">pause</property>
  <property name="resource">/home/xiaoxiae/.cache/kdenlive/proxy/a5d2eea93145e22c05700b06057072ee.mkv</property>
  <property name="meta.media.nb_streams">1</property>
  <property name="meta.media.0.stream.type">video</property>
  <property name="meta.media.0.stream.frame_rate">60</property>
  <property name="meta.media.0.stream.sample_aspect_ratio">0</property>
  <property name="meta.media.0.codec.width">640</property>
  <property name="meta.media.0.codec.height">360</property>
  <property name="meta.media.0.codec.rotate">0</property>
  <property name="meta.media.0.codec.pix_fmt">yuvj420p</property>
  <property name="meta.media.0.codec.sample_aspect_ratio">0</property>
  <property name="meta.media.0.codec.colorspace">601</property>
  <property name="meta.media.0.codec.name">mjpeg</property>
  <property name="meta.media.0.codec.long_name">MJPEG (Motion JPEG)</property>
  <property name="meta.media.0.codec.bit_rate">0</property>
  <property name="meta.attr.0.stream.HANDLER_NAME.markup">VideoHandler</property>
  <property name="meta.attr.0.stream.VENDOR_ID.markup">[0][0][0][0]</property>
  <property name="meta.attr.0.stream.ENCODER.markup">Lavc60.3.100 mjpeg</property>
  <property name="meta.attr.0.stream.DURATION.markup">00:00:00.334000000</property>
  <property name="meta.attr.COMMENT.markup">Rendered with Manim Community v0.17.2</property>
  <property name="meta.attr.MAJOR_BRAND.markup">isom</property>
  <property name="meta.attr.MINOR_VERSION.markup">512</property>
  <property name="meta.attr.COMPATIBLE_BRANDS.markup">isomiso2avc1mp41</property>
  <property name="meta.attr.ENCODER.markup">Lavf60.3.100</property>
  <property name="seekable">1</property>
  <property name="meta.media.sample_aspect_num">1</property>
  <property name="meta.media.sample_aspect_den">1</property>
  <property name="aspect_ratio">1</property>
  <property name="format">3</property>
  <property name="audio_index">-1</property>
  <property name="video_index">0</property>
  <property name="mute_on_pause">0</property>
  <property name="mlt_service">avformat-novalidate</property>
  <property name="kdenlive:clipname">31.mp4</property>
  <property name="kdenlive:clip_type">2</property>
  <property name="kdenlive:folderid">565</property>
  <property name="kdenlive:id">479</property>
  <property name="kdenlive:file_size">44830</property>
  <property name="kdenlive:file_hash">a5d2eea93145e22c05700b06057072ee</property>
  <property name="kdenlive:proxy">/home/xiaoxiae/.cache/kdenlive/proxy/a5d2eea93145e22c05700b06057072ee.mkv</property>
  <property name="kdenlive:originalurl">video/Search/31.mp4</property>
  <property name="kdenlive:original.mlt_type">producer</property>
  <property name="kdenlive:original.in">00:00:00.000</property>
  <property name="kdenlive:original.out">00:00:00.317</property>
  <property name="kdenlive:original.length">20</property>
  <property name="kdenlive:original.eof">pause</property>
  <property name="kdenlive:original.resource">video/Search/31.mp4</property>
  <property name="kdenlive:original.meta.media.nb_streams">1</property>
  <property name="kdenlive:original.meta.media.0.stream.type">video</property>
  <property name="kdenlive:original.meta.media.0.stream.frame_rate">60</property>
  <property name="kdenlive:original.meta.media.0.stream.sample_aspect_ratio">0</property>
  <property name="kdenlive:original.meta.media.0.codec.width">3840</property>
  <property name="kdenlive:original.meta.media.0.codec.height">2160</property>
  <property name="kdenlive:original.meta.media.0.codec.rotate">0</property>
  <property name="kdenlive:original.meta.media.0.codec.pix_fmt">yuv420p</property>
  <property name="kdenlive:original.meta.media.0.codec.sample_aspect_ratio">0</property>
  <property name="kdenlive:original.meta.media.0.codec.colorspace">709</property>
  <property name="kdenlive:original.meta.media.0.codec.name">h264</property>
  <property name="kdenlive:original.meta.media.0.codec.long_name">H.264 / AVC / MPEG-4 AVC / MPEG-4 part 10</property>
  <property name="kdenlive:original.meta.media.0.codec.bit_rate">1048680</property>
  <property name="kdenlive:original.meta.attr.0.stream.handler_name.markup">VideoHandler</property>
  <property name="kdenlive:original.meta.attr.0.stream.vendor_id.markup">[0][0][0][0]</property>
  <property name="kdenlive:original.meta.attr.0.stream.encoder.markup">Lavc60.3.100 libx264</property>
  <property name="kdenlive:original.meta.attr.major_brand.markup">isom</property>
  <property name="kdenlive:original.meta.attr.minor_version.markup">512</property>
  <property name="kdenlive:original.meta.attr.compatible_brands.markup">isomiso2avc1mp41</property>
  <property name="kdenlive:original.meta.attr.encoder.markup">Lavf60.3.100</property>
  <property name="kdenlive:original.meta.attr.comment.markup">Rendered with Manim Community v0.17.2</property>
  <property name="kdenlive:original.seekable">1</property>
  <property name="kdenlive:original.width">3840</property>
  <property name="kdenlive:original.height">2160</property>
  <property name="kdenlive:original.meta.media.sample_aspect_num">1</property>
  <property name="kdenlive:original.meta.media.sample_aspect_den">1</property>
  <property name="kdenlive:original.aspect_ratio">1</property>
  <property name="kdenlive:original.format">3</property>
  <property name="kdenlive:original.audio_index">-1</property>
  <property name="kdenlive:original.video_index">0</property>
  <property name="kdenlive:original.mute_on_pause">0</property>
  <property name="kdenlive:original.mlt_service">avformat-novalidate</property>
  <property name="kdenlive:original.meta.media.frame_rate_num">60</property>
  <property name="kdenlive:original.meta.media.frame_rate_den">1</property>
  <property name="kdenlive:original.meta.media.colorspace">709</property>
  <property name="kdenlive:original.meta.media.color_trc">2</property>
  <property name="kdenlive:original.meta.media.has_b_frames">2</property>
  <property name="kdenlive:original.meta.media.width">3840</property>
  <property name="kdenlive:original.meta.media.height">2160</property>
  <property name="kdenlive:original.meta.media.color_range">mpeg</property>
  <property name="kdenlive:original.meta.media.top_field_first">0</property>
  <property name="kdenlive:original.meta.media.progressive">1</property>
  <property name="kdenlive:original.kdenlive:clip_type">2</property>
  <property name="kdenlive:original.kdenlive:folderid">565</property>
  <property name="kdenlive:original.kdenlive:id">590</property>
  <property name="kdenlive:original.kdenlive:file_size">44830</property>
  <property name="kdenlive:original.kdenlive:file_hash">a5d2eea93145e22c05700b06057072ee</property>
  <property name="kdenlive:original.backup">1</property>
  <property name="meta.media.frame_rate_num">60</property>
  <property name="meta.media.frame_rate_den">1</property>
  <property name="meta.media.colorspace">601</property>
  <property name="meta.media.color_trc">2</property>
  <property name="meta.media.has_b_frames">0</property>
  <property name="meta.media.width">640</property>
  <property name="meta.media.height">360</property>
  <property name="meta.media.color_range">full</property>
  <property name="meta.media.top_field_first">0</property>
  <property name="meta.media.progressive">1</property>
 </producer>
 <producer id="producer402" in="00:00:00.000" out="00:00:01.483">
  <property name="length">90</property>
  <property name="eof">pause</property>
  <property name="resource">/home/xiaoxiae/.cache/kdenlive/proxy/bfe33b2fec058f3dc0af168fd34d1696.mkv</property>
  <property name="meta.media.nb_streams">1</property>
  <property name="meta.media.0.stream.type">video</property>
  <property name="meta.media.0.stream.frame_rate">60</property>
  <property name="meta.media.0.stream.sample_aspect_ratio">0</property>
  <property name="meta.media.0.codec.width">640</property>
  <property name="meta.media.0.codec.height">360</property>
  <property name="meta.media.0.codec.rotate">0</property>
  <property name="meta.media.0.codec.pix_fmt">yuvj420p</property>
  <property name="meta.media.0.codec.sample_aspect_ratio">0</property>
  <property name="meta.media.0.codec.colorspace">601</property>
  <property name="meta.media.0.codec.name">mjpeg</property>
  <property name="meta.media.0.codec.long_name">MJPEG (Motion JPEG)</property>
  <property name="meta.media.0.codec.bit_rate">0</property>
  <property name="meta.attr.0.stream.HANDLER_NAME.markup">VideoHandler</property>
  <property name="meta.attr.0.stream.VENDOR_ID.markup">[0][0][0][0]</property>
  <property name="meta.attr.0.stream.ENCODER.markup">Lavc60.3.100 mjpeg</property>
  <property name="meta.attr.0.stream.DURATION.markup">00:00:01.500000000</property>
  <property name="meta.attr.COMMENT.markup">Rendered with Manim Community v0.17.2</property>
  <property name="meta.attr.MAJOR_BRAND.markup">isom</property>
  <property name="meta.attr.MINOR_VERSION.markup">512</property>
  <property name="meta.attr.COMPATIBLE_BRANDS.markup">isomiso2avc1mp41</property>
  <property name="meta.attr.ENCODER.markup">Lavf60.3.100</property>
  <property name="seekable">1</property>
  <property name="meta.media.sample_aspect_num">1</property>
  <property name="meta.media.sample_aspect_den">1</property>
  <property name="aspect_ratio">1</property>
  <property name="format">3</property>
  <property name="audio_index">-1</property>
  <property name="video_index">0</property>
  <property name="mute_on_pause">0</property>
  <property name="mlt_service">avformat-novalidate</property>
  <property name="kdenlive:clipname">32.mp4</property>
  <property name="kdenlive:clip_type">2</property>
  <property name="kdenlive:folderid">565</property>
  <property name="kdenlive:id">480</property>
  <property name="kdenlive:file_size">174705</property>
  <property name="kdenlive:file_hash">bfe33b2fec058f3dc0af168fd34d1696</property>
  <property name="kdenlive:proxy">/home/xiaoxiae/.cache/kdenlive/proxy/bfe33b2fec058f3dc0af168fd34d1696.mkv</property>
  <property name="kdenlive:originalurl">video/Search/32.mp4</property>
  <property name="kdenlive:original.mlt_type">producer</property>
  <property name="kdenlive:original.in">00:00:00.000</property>
  <property name="kdenlive:original.out">00:00:01.483</property>
  <property name="kdenlive:original.length">90</property>
  <property name="kdenlive:original.eof">pause</property>
  <property name="kdenlive:original.resource">video/Search/32.mp4</property>
  <property name="kdenlive:original.meta.media.nb_streams">1</property>
  <property name="kdenlive:original.meta.media.0.stream.type">video</property>
  <property name="kdenlive:original.meta.media.0.stream.frame_rate">60</property>
  <property name="kdenlive:original.meta.media.0.stream.sample_aspect_ratio">0</property>
  <property name="kdenlive:original.meta.media.0.codec.width">3840</property>
  <property name="kdenlive:original.meta.media.0.codec.height">2160</property>
  <property name="kdenlive:original.meta.media.0.codec.rotate">0</property>
  <property name="kdenlive:original.meta.media.0.codec.pix_fmt">yuv420p</property>
  <property name="kdenlive:original.meta.media.0.codec.sample_aspect_ratio">0</property>
  <property name="kdenlive:original.meta.media.0.codec.colorspace">709</property>
  <property name="kdenlive:original.meta.media.0.codec.name">h264</property>
  <property name="kdenlive:original.meta.media.0.codec.long_name">H.264 / AVC / MPEG-4 AVC / MPEG-4 part 10</property>
  <property name="kdenlive:original.meta.media.0.codec.bit_rate">921312</property>
  <property name="kdenlive:original.meta.attr.0.stream.handler_name.markup">VideoHandler</property>
  <property name="kdenlive:original.meta.attr.0.stream.vendor_id.markup">[0][0][0][0]</property>
  <property name="kdenlive:original.meta.attr.0.stream.encoder.markup">Lavc60.3.100 libx264</property>
  <property name="kdenlive:original.meta.attr.major_brand.markup">isom</property>
  <property name="kdenlive:original.meta.attr.minor_version.markup">512</property>
  <property name="kdenlive:original.meta.attr.compatible_brands.markup">isomiso2avc1mp41</property>
  <property name="kdenlive:original.meta.attr.encoder.markup">Lavf60.3.100</property>
  <property name="kdenlive:original.meta.attr.comment.markup">Rendered with Manim Community v0.17.2</property>
  <property name="kdenlive:original.seekable">1</property>
  <property name="kdenlive:original.width">3840</property>
  <property name="kdenlive:original.height">2160</property>
  <property name="kdenlive:original.meta.media.sample_aspect_num">1</property>
  <property name="kdenlive:original.meta.media.sample_aspect_den">1</property>
  <property name="kdenlive:original.aspect_ratio">1</property>
  <property name="kdenlive:original.format">3</property>
  <property name="kdenlive:original.audio_index">-1</property>
  <property name="kdenlive:original.video_index">0</property>
  <property name="kdenlive:original.mute_on_pause">0</property>
  <property name="kdenlive:original.mlt_service">avformat-novalidate</property>
  <property name="kdenlive:original.meta.media.frame_rate_num">60</property>
  <property name="kdenlive:original.meta.media.frame_rate_den">1</property>
  <property name="kdenlive:original.meta.media.colorspace">709</property>
  <property name="kdenlive:original.meta.media.color_trc">2</property>
  <property name="kdenlive:original.meta.media.has_b_frames">2</property>
  <property name="kdenlive:original.meta.media.width">3840</property>
  <property name="kdenlive:original.meta.media.height">2160</property>
  <property name="kdenlive:original.meta.media.color_range">mpeg</property>
  <property name="kdenlive:original.meta.media.top_field_first">0</property>
  <property name="kdenlive:original.meta.media.progressive">1</property>
  <property name="kdenlive:original.kdenlive:clip_type">2</property>
  <property name="kdenlive:original.kdenlive:folderid">565</property>
  <property name="kdenlive:original.kdenlive:id">591</property>
  <property name="kdenlive:original.kdenlive:file_size">174705</property>
  <property name="kdenlive:original.kdenlive:file_hash">bfe33b2fec058f3dc0af168fd34d1696</property>
  <property name="kdenlive:original.backup">1</property>
  <property name="meta.media.frame_rate_num">60</property>
  <property name="meta.media.frame_rate_den">1</property>
  <property name="meta.media.colorspace">601</property>
  <property name="meta.media.color_trc">2</property>
  <property name="meta.media.has_b_frames">0</property>
  <property name="meta.media.width">640</property>
  <property name="meta.media.height">360</property>
  <property name="meta.media.color_range">full</property>
  <property name="meta.media.top_field_first">0</property>
  <property name="meta.media.progressive">1</property>
 </producer>
 <producer id="producer403" in="00:00:00.000" out="00:00:00.983">
  <property name="length">60</property>
  <property name="eof">pause</property>
  <property name="resource">/home/xiaoxiae/.cache/kdenlive/proxy/6b0a1b955ed45264a010d61af9237cdf.mkv</property>
  <property name="meta.media.nb_streams">1</property>
  <property name="meta.media.0.stream.type">video</property>
  <property name="meta.media.0.stream.frame_rate">60</property>
  <property name="meta.media.0.stream.sample_aspect_ratio">0</property>
  <property name="meta.media.0.codec.width">640</property>
  <property name="meta.media.0.codec.height">360</property>
  <property name="meta.media.0.codec.rotate">0</property>
  <property name="meta.media.0.codec.pix_fmt">yuvj420p</property>
  <property name="meta.media.0.codec.sample_aspect_ratio">0</property>
  <property name="meta.media.0.codec.colorspace">601</property>
  <property name="meta.media.0.codec.name">mjpeg</property>
  <property name="meta.media.0.codec.long_name">MJPEG (Motion JPEG)</property>
  <property name="meta.media.0.codec.bit_rate">0</property>
  <property name="meta.attr.0.stream.HANDLER_NAME.markup">VideoHandler</property>
  <property name="meta.attr.0.stream.VENDOR_ID.markup">[0][0][0][0]</property>
  <property name="meta.attr.0.stream.ENCODER.markup">Lavc60.3.100 mjpeg</property>
  <property name="meta.attr.0.stream.DURATION.markup">00:00:01.000000000</property>
  <property name="meta.attr.COMMENT.markup">Rendered with Manim Community v0.17.2</property>
  <property name="meta.attr.MAJOR_BRAND.markup">isom</property>
  <property name="meta.attr.MINOR_VERSION.markup">512</property>
  <property name="meta.attr.COMPATIBLE_BRANDS.markup">isomiso2avc1mp41</property>
  <property name="meta.attr.ENCODER.markup">Lavf60.3.100</property>
  <property name="seekable">1</property>
  <property name="meta.media.sample_aspect_num">1</property>
  <property name="meta.media.sample_aspect_den">1</property>
  <property name="aspect_ratio">1</property>
  <property name="format">3</property>
  <property name="audio_index">-1</property>
  <property name="video_index">0</property>
  <property name="mute_on_pause">0</property>
  <property name="mlt_service">avformat-novalidate</property>
  <property name="kdenlive:clipname">33.mp4</property>
  <property name="kdenlive:clip_type">2</property>
  <property name="kdenlive:folderid">565</property>
  <property name="kdenlive:id">481</property>
  <property name="kdenlive:file_size">63708</property>
  <property name="kdenlive:file_hash">6b0a1b955ed45264a010d61af9237cdf</property>
  <property name="kdenlive:proxy">/home/xiaoxiae/.cache/kdenlive/proxy/6b0a1b955ed45264a010d61af9237cdf.mkv</property>
  <property name="kdenlive:originalurl">video/Search/33.mp4</property>
  <property name="kdenlive:original.mlt_type">producer</property>
  <property name="kdenlive:original.in">00:00:00.000</property>
  <property name="kdenlive:original.out">00:00:00.983</property>
  <property name="kdenlive:original.length">60</property>
  <property name="kdenlive:original.eof">pause</property>
  <property name="kdenlive:original.resource">video/Search/33.mp4</property>
  <property name="kdenlive:original.meta.media.nb_streams">1</property>
  <property name="kdenlive:original.meta.media.0.stream.type">video</property>
  <property name="kdenlive:original.meta.media.0.stream.frame_rate">60</property>
  <property name="kdenlive:original.meta.media.0.stream.sample_aspect_ratio">0</property>
  <property name="kdenlive:original.meta.media.0.codec.width">3840</property>
  <property name="kdenlive:original.meta.media.0.codec.height">2160</property>
  <property name="kdenlive:original.meta.media.0.codec.rotate">0</property>
  <property name="kdenlive:original.meta.media.0.codec.pix_fmt">yuv420p</property>
  <property name="kdenlive:original.meta.media.0.codec.sample_aspect_ratio">0</property>
  <property name="kdenlive:original.meta.media.0.codec.colorspace">709</property>
  <property name="kdenlive:original.meta.media.0.codec.name">h264</property>
  <property name="kdenlive:original.meta.media.0.codec.long_name">H.264 / AVC / MPEG-4 AVC / MPEG-4 part 10</property>
  <property name="kdenlive:original.meta.media.0.codec.bit_rate">496552</property>
  <property name="kdenlive:original.meta.attr.0.stream.handler_name.markup">VideoHandler</property>
  <property name="kdenlive:original.meta.attr.0.stream.vendor_id.markup">[0][0][0][0]</property>
  <property name="kdenlive:original.meta.attr.0.stream.encoder.markup">Lavc60.3.100 libx264</property>
  <property name="kdenlive:original.meta.attr.major_brand.markup">isom</property>
  <property name="kdenlive:original.meta.attr.minor_version.markup">512</property>
  <property name="kdenlive:original.meta.attr.compatible_brands.markup">isomiso2avc1mp41</property>
  <property name="kdenlive:original.meta.attr.encoder.markup">Lavf60.3.100</property>
  <property name="kdenlive:original.meta.attr.comment.markup">Rendered with Manim Community v0.17.2</property>
  <property name="kdenlive:original.seekable">1</property>
  <property name="kdenlive:original.width">3840</property>
  <property name="kdenlive:original.height">2160</property>
  <property name="kdenlive:original.meta.media.sample_aspect_num">1</property>
  <property name="kdenlive:original.meta.media.sample_aspect_den">1</property>
  <property name="kdenlive:original.aspect_ratio">1</property>
  <property name="kdenlive:original.format">3</property>
  <property name="kdenlive:original.audio_index">-1</property>
  <property name="kdenlive:original.video_index">0</property>
  <property name="kdenlive:original.mute_on_pause">0</property>
  <property name="kdenlive:original.mlt_service">avformat-novalidate</property>
  <property name="kdenlive:original.meta.media.frame_rate_num">60</property>
  <property name="kdenlive:original.meta.media.frame_rate_den">1</property>
  <property name="kdenlive:original.meta.media.colorspace">709</property>
  <property name="kdenlive:original.meta.media.color_trc">2</property>
  <property name="kdenlive:original.meta.media.has_b_frames">2</property>
  <property name="kdenlive:original.meta.media.width">3840</property>
  <property name="kdenlive:original.meta.media.height">2160</property>
  <property name="kdenlive:original.meta.media.color_range">mpeg</property>
  <property name="kdenlive:original.meta.media.top_field_first">0</property>
  <property name="kdenlive:original.meta.media.progressive">1</property>
  <property name="kdenlive:original.kdenlive:clip_type">2</property>
  <property name="kdenlive:original.kdenlive:folderid">565</property>
  <property name="kdenlive:original.kdenlive:id">592</property>
  <property name="kdenlive:original.kdenlive:file_size">63708</property>
  <property name="kdenlive:original.kdenlive:file_hash">6b0a1b955ed45264a010d61af9237cdf</property>
  <property name="kdenlive:original.backup">1</property>
  <property name="meta.media.frame_rate_num">60</property>
  <property name="meta.media.frame_rate_den">1</property>
  <property name="meta.media.colorspace">601</property>
  <property name="meta.media.color_trc">2</property>
  <property name="meta.media.has_b_frames">0</property>
  <property name="meta.media.width">640</property>
  <property name="meta.media.height">360</property>
  <property name="meta.media.color_range">full</property>
  <property name="meta.media.top_field_first">0</property>
  <property name="meta.media.progressive">1</property>
 </producer>
 <producer id="producer404" in="00:00:00.000" out="00:00:00.983">
  <property name="length">60</property>
  <property name="eof">pause</property>
  <property name="resource">/home/xiaoxiae/.cache/kdenlive/proxy/20f8c6cb7fd0887ee7bb8d49d5210544.mkv</property>
  <property name="meta.media.nb_streams">1</property>
  <property name="meta.media.0.stream.type">video</property>
  <property name="meta.media.0.stream.frame_rate">60</property>
  <property name="meta.media.0.stream.sample_aspect_ratio">0</property>
  <property name="meta.media.0.codec.width">640</property>
  <property name="meta.media.0.codec.height">360</property>
  <property name="meta.media.0.codec.rotate">0</property>
  <property name="meta.media.0.codec.pix_fmt">yuvj420p</property>
  <property name="meta.media.0.codec.sample_aspect_ratio">0</property>
  <property name="meta.media.0.codec.colorspace">601</property>
  <property name="meta.media.0.codec.name">mjpeg</property>
  <property name="meta.media.0.codec.long_name">MJPEG (Motion JPEG)</property>
  <property name="meta.media.0.codec.bit_rate">0</property>
  <property name="meta.attr.0.stream.HANDLER_NAME.markup">VideoHandler</property>
  <property name="meta.attr.0.stream.VENDOR_ID.markup">[0][0][0][0]</property>
  <property name="meta.attr.0.stream.ENCODER.markup">Lavc60.3.100 mjpeg</property>
  <property name="meta.attr.0.stream.DURATION.markup">00:00:01.000000000</property>
  <property name="meta.attr.COMMENT.markup">Rendered with Manim Community v0.17.2</property>
  <property name="meta.attr.MAJOR_BRAND.markup">isom</property>
  <property name="meta.attr.MINOR_VERSION.markup">512</property>
  <property name="meta.attr.COMPATIBLE_BRANDS.markup">isomiso2avc1mp41</property>
  <property name="meta.attr.ENCODER.markup">Lavf60.3.100</property>
  <property name="seekable">1</property>
  <property name="meta.media.sample_aspect_num">1</property>
  <property name="meta.media.sample_aspect_den">1</property>
  <property name="aspect_ratio">1</property>
  <property name="format">3</property>
  <property name="audio_index">-1</property>
  <property name="video_index">0</property>
  <property name="mute_on_pause">0</property>
  <property name="mlt_service">avformat-novalidate</property>
  <property name="kdenlive:clipname">4.mp4</property>
  <property name="kdenlive:clip_type">2</property>
  <property name="kdenlive:folderid">565</property>
  <property name="kdenlive:id">482</property>
  <property name="kdenlive:file_size">93878</property>
  <property name="kdenlive:file_hash">20f8c6cb7fd0887ee7bb8d49d5210544</property>
  <property name="kdenlive:proxy">/home/xiaoxiae/.cache/kdenlive/proxy/20f8c6cb7fd0887ee7bb8d49d5210544.mkv</property>
  <property name="kdenlive:originalurl">video/Search/4.mp4</property>
  <property name="kdenlive:original.mlt_type">producer</property>
  <property name="kdenlive:original.in">00:00:00.000</property>
  <property name="kdenlive:original.out">00:00:00.983</property>
  <property name="kdenlive:original.length">60</property>
  <property name="kdenlive:original.eof">pause</property>
  <property name="kdenlive:original.resource">video/Search/4.mp4</property>
  <property name="kdenlive:original.meta.media.nb_streams">1</property>
  <property name="kdenlive:original.meta.media.0.stream.type">video</property>
  <property name="kdenlive:original.meta.media.0.stream.frame_rate">60</property>
  <property name="kdenlive:original.meta.media.0.stream.sample_aspect_ratio">0</property>
  <property name="kdenlive:original.meta.media.0.codec.width">3840</property>
  <property name="kdenlive:original.meta.media.0.codec.height">2160</property>
  <property name="kdenlive:original.meta.media.0.codec.rotate">0</property>
  <property name="kdenlive:original.meta.media.0.codec.pix_fmt">yuv420p</property>
  <property name="kdenlive:original.meta.media.0.codec.sample_aspect_ratio">0</property>
  <property name="kdenlive:original.meta.media.0.codec.colorspace">709</property>
  <property name="kdenlive:original.meta.media.0.codec.name">h264</property>
  <property name="kdenlive:original.meta.media.0.codec.long_name">H.264 / AVC / MPEG-4 AVC / MPEG-4 part 10</property>
  <property name="kdenlive:original.meta.media.0.codec.bit_rate">738168</property>
  <property name="kdenlive:original.meta.attr.0.stream.handler_name.markup">VideoHandler</property>
  <property name="kdenlive:original.meta.attr.0.stream.vendor_id.markup">[0][0][0][0]</property>
  <property name="kdenlive:original.meta.attr.0.stream.encoder.markup">Lavc60.3.100 libx264</property>
  <property name="kdenlive:original.meta.attr.major_brand.markup">isom</property>
  <property name="kdenlive:original.meta.attr.minor_version.markup">512</property>
  <property name="kdenlive:original.meta.attr.compatible_brands.markup">isomiso2avc1mp41</property>
  <property name="kdenlive:original.meta.attr.encoder.markup">Lavf60.3.100</property>
  <property name="kdenlive:original.meta.attr.comment.markup">Rendered with Manim Community v0.17.2</property>
  <property name="kdenlive:original.seekable">1</property>
  <property name="kdenlive:original.width">3840</property>
  <property name="kdenlive:original.height">2160</property>
  <property name="kdenlive:original.meta.media.sample_aspect_num">1</property>
  <property name="kdenlive:original.meta.media.sample_aspect_den">1</property>
  <property name="kdenlive:original.aspect_ratio">1</property>
  <property name="kdenlive:original.format">3</property>
  <property name="kdenlive:original.audio_index">-1</property>
  <property name="kdenlive:original.video_index">0</property>
  <property name="kdenlive:original.mute_on_pause">0</property>
  <property name="kdenlive:original.mlt_service">avformat-novalidate</property>
  <property name="kdenlive:original.meta.media.frame_rate_num">60</property>
  <property name="kdenlive:original.meta.media.frame_rate_den">1</property>
  <property name="kdenlive:original.meta.media.colorspace">709</property>
  <property name="kdenlive:original.meta.media.color_trc">2</property>
  <property name="kdenlive:original.meta.media.has_b_frames">2</property>
  <property name="kdenlive:original.meta.media.width">3840</property>
  <property name="kdenlive:original.meta.media.height">2160</property>
  <property name="kdenlive:original.meta.media.color_range">mpeg</property>
  <property name="kdenlive:original.meta.media.top_field_first">0</property>
  <property name="kdenlive:original.meta.media.progressive">1</property>
  <property name="kdenlive:original.kdenlive:clip_type">2</property>
  <property name="kdenlive:original.kdenlive:folderid">565</property>
  <property name="kdenlive:original.kdenlive:id">593</property>
  <property name="kdenlive:original.kdenlive:file_size">93878</property>
  <property name="kdenlive:original.kdenlive:file_hash">20f8c6cb7fd0887ee7bb8d49d5210544</property>
  <property name="kdenlive:original.backup">1</property>
  <property name="meta.media.frame_rate_num">60</property>
  <property name="meta.media.frame_rate_den">1</property>
  <property name="meta.media.colorspace">601</property>
  <property name="meta.media.color_trc">2</property>
  <property name="meta.media.has_b_frames">0</property>
  <property name="meta.media.width">640</property>
  <property name="meta.media.height">360</property>
  <property name="meta.media.color_range">full</property>
  <property name="meta.media.top_field_first">0</property>
  <property name="meta.media.progressive">1</property>
 </producer>
 <producer id="producer405" in="00:00:00.000" out="00:00:00.650">
  <property name="length">40</property>
  <property name="eof">pause</property>
  <property name="resource">/home/xiaoxiae/.cache/kdenlive/proxy/a273b5a59ad716761783cf23aacabef4.mkv</property>
  <property name="meta.media.nb_streams">1</property>
  <property name="meta.media.0.stream.type">video</property>
  <property name="meta.media.0.stream.frame_rate">60</property>
  <property name="meta.media.0.stream.sample_aspect_ratio">0</property>
  <property name="meta.media.0.codec.width">640</property>
  <property name="meta.media.0.codec.height">360</property>
  <property name="meta.media.0.codec.rotate">0</property>
  <property name="meta.media.0.codec.pix_fmt">yuvj420p</property>
  <property name="meta.media.0.codec.sample_aspect_ratio">0</property>
  <property name="meta.media.0.codec.colorspace">601</property>
  <property name="meta.media.0.codec.name">mjpeg</property>
  <property name="meta.media.0.codec.long_name">MJPEG (Motion JPEG)</property>
  <property name="meta.media.0.codec.bit_rate">0</property>
  <property name="meta.attr.0.stream.HANDLER_NAME.markup">VideoHandler</property>
  <property name="meta.attr.0.stream.VENDOR_ID.markup">[0][0][0][0]</property>
  <property name="meta.attr.0.stream.ENCODER.markup">Lavc60.3.100 mjpeg</property>
  <property name="meta.attr.0.stream.DURATION.markup">00:00:00.667000000</property>
  <property name="meta.attr.COMMENT.markup">Rendered with Manim Community v0.17.2</property>
  <property name="meta.attr.MAJOR_BRAND.markup">isom</property>
  <property name="meta.attr.MINOR_VERSION.markup">512</property>
  <property name="meta.attr.COMPATIBLE_BRANDS.markup">isomiso2avc1mp41</property>
  <property name="meta.attr.ENCODER.markup">Lavf60.3.100</property>
  <property name="seekable">1</property>
  <property name="meta.media.sample_aspect_num">1</property>
  <property name="meta.media.sample_aspect_den">1</property>
  <property name="aspect_ratio">1</property>
  <property name="format">3</property>
  <property name="audio_index">-1</property>
  <property name="video_index">0</property>
  <property name="mute_on_pause">0</property>
  <property name="mlt_service">avformat-novalidate</property>
  <property name="kdenlive:clipname">5.mp4</property>
  <property name="kdenlive:clip_type">2</property>
  <property name="kdenlive:folderid">565</property>
  <property name="kdenlive:id">483</property>
  <property name="kdenlive:file_size">85282</property>
  <property name="kdenlive:file_hash">a273b5a59ad716761783cf23aacabef4</property>
  <property name="kdenlive:proxy">/home/xiaoxiae/.cache/kdenlive/proxy/a273b5a59ad716761783cf23aacabef4.mkv</property>
  <property name="kdenlive:originalurl">video/Search/5.mp4</property>
  <property name="kdenlive:original.mlt_type">producer</property>
  <property name="kdenlive:original.in">00:00:00.000</property>
  <property name="kdenlive:original.out">00:00:00.650</property>
  <property name="kdenlive:original.length">40</property>
  <property name="kdenlive:original.eof">pause</property>
  <property name="kdenlive:original.resource">video/Search/5.mp4</property>
  <property name="kdenlive:original.meta.media.nb_streams">1</property>
  <property name="kdenlive:original.meta.media.0.stream.type">video</property>
  <property name="kdenlive:original.meta.media.0.stream.frame_rate">60</property>
  <property name="kdenlive:original.meta.media.0.stream.sample_aspect_ratio">0</property>
  <property name="kdenlive:original.meta.media.0.codec.width">3840</property>
  <property name="kdenlive:original.meta.media.0.codec.height">2160</property>
  <property name="kdenlive:original.meta.media.0.codec.rotate">0</property>
  <property name="kdenlive:original.meta.media.0.codec.pix_fmt">yuv420p</property>
  <property name="kdenlive:original.meta.media.0.codec.sample_aspect_ratio">0</property>
  <property name="kdenlive:original.meta.media.0.codec.colorspace">709</property>
  <property name="kdenlive:original.meta.media.0.codec.name">h264</property>
  <property name="kdenlive:original.meta.media.0.codec.long_name">H.264 / AVC / MPEG-4 AVC / MPEG-4 part 10</property>
  <property name="kdenlive:original.meta.media.0.codec.bit_rate">1006692</property>
  <property name="kdenlive:original.meta.attr.0.stream.handler_name.markup">VideoHandler</property>
  <property name="kdenlive:original.meta.attr.0.stream.vendor_id.markup">[0][0][0][0]</property>
  <property name="kdenlive:original.meta.attr.0.stream.encoder.markup">Lavc60.3.100 libx264</property>
  <property name="kdenlive:original.meta.attr.major_brand.markup">isom</property>
  <property name="kdenlive:original.meta.attr.minor_version.markup">512</property>
  <property name="kdenlive:original.meta.attr.compatible_brands.markup">isomiso2avc1mp41</property>
  <property name="kdenlive:original.meta.attr.encoder.markup">Lavf60.3.100</property>
  <property name="kdenlive:original.meta.attr.comment.markup">Rendered with Manim Community v0.17.2</property>
  <property name="kdenlive:original.seekable">1</property>
  <property name="kdenlive:original.width">3840</property>
  <property name="kdenlive:original.height">2160</property>
  <property name="kdenlive:original.meta.media.sample_aspect_num">1</property>
  <property name="kdenlive:original.meta.media.sample_aspect_den">1</property>
  <property name="kdenlive:original.aspect_ratio">1</property>
  <property name="kdenlive:original.format">3</property>
  <property name="kdenlive:original.audio_index">-1</property>
  <property name="kdenlive:original.video_index">0</property>
  <property name="kdenlive:original.mute_on_pause">0</property>
  <property name="kdenlive:original.mlt_service">avformat-novalidate</property>
  <property name="kdenlive:original.meta.media.frame_rate_num">60</property>
  <property name="kdenlive:original.meta.media.frame_rate_den">1</property>
  <property name="kdenlive:original.meta.media.colorspace">709</property>
  <property name="kdenlive:original.meta.media.color_trc">2</property>
  <property name="kdenlive:original.meta.media.has_b_frames">2</property>
  <property name="kdenlive:original.meta.media.width">3840</property>
  <property name="kdenlive:original.meta.media.height">2160</property>
  <property name="kdenlive:original.meta.media.color_range">mpeg</property>
  <property name="kdenlive:original.meta.media.top_field_first">0</property>
  <property name="kdenlive:original.meta.media.progressive">1</property>
  <property name="kdenlive:original.kdenlive:clip_type">2</property>
  <property name="kdenlive:original.kdenlive:folderid">565</property>
  <property name="kdenlive:original.kdenlive:id">594</property>
  <property name="kdenlive:original.kdenlive:file_size">85282</property>
  <property name="kdenlive:original.kdenlive:file_hash">a273b5a59ad716761783cf23aacabef4</property>
  <property name="kdenlive:original.backup">1</property>
  <property name="meta.media.frame_rate_num">60</property>
  <property name="meta.media.frame_rate_den">1</property>
  <property name="meta.media.colorspace">601</property>
  <property name="meta.media.color_trc">2</property>
  <property name="meta.media.has_b_frames">0</property>
  <property name="meta.media.width">640</property>
  <property name="meta.media.height">360</property>
  <property name="meta.media.color_range">full</property>
  <property name="meta.media.top_field_first">0</property>
  <property name="meta.media.progressive">1</property>
 </producer>
 <producer id="producer406" in="00:00:00.000" out="00:00:00.650">
  <property name="length">40</property>
  <property name="eof">pause</property>
  <property name="resource">/home/xiaoxiae/.cache/kdenlive/proxy/4422370af46ef72957d03909c15fbf2c.mkv</property>
  <property name="meta.media.nb_streams">1</property>
  <property name="meta.media.0.stream.type">video</property>
  <property name="meta.media.0.stream.frame_rate">60</property>
  <property name="meta.media.0.stream.sample_aspect_ratio">0</property>
  <property name="meta.media.0.codec.width">640</property>
  <property name="meta.media.0.codec.height">360</property>
  <property name="meta.media.0.codec.rotate">0</property>
  <property name="meta.media.0.codec.pix_fmt">yuvj420p</property>
  <property name="meta.media.0.codec.sample_aspect_ratio">0</property>
  <property name="meta.media.0.codec.colorspace">601</property>
  <property name="meta.media.0.codec.name">mjpeg</property>
  <property name="meta.media.0.codec.long_name">MJPEG (Motion JPEG)</property>
  <property name="meta.media.0.codec.bit_rate">0</property>
  <property name="meta.attr.0.stream.HANDLER_NAME.markup">VideoHandler</property>
  <property name="meta.attr.0.stream.VENDOR_ID.markup">[0][0][0][0]</property>
  <property name="meta.attr.0.stream.ENCODER.markup">Lavc60.3.100 mjpeg</property>
  <property name="meta.attr.0.stream.DURATION.markup">00:00:00.667000000</property>
  <property name="meta.attr.COMMENT.markup">Rendered with Manim Community v0.17.2</property>
  <property name="meta.attr.MAJOR_BRAND.markup">isom</property>
  <property name="meta.attr.MINOR_VERSION.markup">512</property>
  <property name="meta.attr.COMPATIBLE_BRANDS.markup">isomiso2avc1mp41</property>
  <property name="meta.attr.ENCODER.markup">Lavf60.3.100</property>
  <property name="seekable">1</property>
  <property name="meta.media.sample_aspect_num">1</property>
  <property name="meta.media.sample_aspect_den">1</property>
  <property name="aspect_ratio">1</property>
  <property name="format">3</property>
  <property name="audio_index">-1</property>
  <property name="video_index">0</property>
  <property name="mute_on_pause">0</property>
  <property name="mlt_service">avformat-novalidate</property>
  <property name="kdenlive:clipname">6.mp4</property>
  <property name="kdenlive:clip_type">2</property>
  <property name="kdenlive:folderid">565</property>
  <property name="kdenlive:id">484</property>
  <property name="kdenlive:file_size">79868</property>
  <property name="kdenlive:file_hash">4422370af46ef72957d03909c15fbf2c</property>
  <property name="kdenlive:proxy">/home/xiaoxiae/.cache/kdenlive/proxy/4422370af46ef72957d03909c15fbf2c.mkv</property>
  <property name="kdenlive:originalurl">video/Search/6.mp4</property>
  <property name="kdenlive:original.mlt_type">producer</property>
  <property name="kdenlive:original.in">00:00:00.000</property>
  <property name="kdenlive:original.out">00:00:00.650</property>
  <property name="kdenlive:original.length">40</property>
  <property name="kdenlive:original.eof">pause</property>
  <property name="kdenlive:original.resource">video/Search/6.mp4</property>
  <property name="kdenlive:original.meta.media.nb_streams">1</property>
  <property name="kdenlive:original.meta.media.0.stream.type">video</property>
  <property name="kdenlive:original.meta.media.0.stream.frame_rate">60</property>
  <property name="kdenlive:original.meta.media.0.stream.sample_aspect_ratio">0</property>
  <property name="kdenlive:original.meta.media.0.codec.width">3840</property>
  <property name="kdenlive:original.meta.media.0.codec.height">2160</property>
  <property name="kdenlive:original.meta.media.0.codec.rotate">0</property>
  <property name="kdenlive:original.meta.media.0.codec.pix_fmt">yuv420p</property>
  <property name="kdenlive:original.meta.media.0.codec.sample_aspect_ratio">0</property>
  <property name="kdenlive:original.meta.media.0.codec.colorspace">709</property>
  <property name="kdenlive:original.meta.media.0.codec.name">h264</property>
  <property name="kdenlive:original.meta.media.0.codec.long_name">H.264 / AVC / MPEG-4 AVC / MPEG-4 part 10</property>
  <property name="kdenlive:original.meta.media.0.codec.bit_rate">941724</property>
  <property name="kdenlive:original.meta.attr.0.stream.handler_name.markup">VideoHandler</property>
  <property name="kdenlive:original.meta.attr.0.stream.vendor_id.markup">[0][0][0][0]</property>
  <property name="kdenlive:original.meta.attr.0.stream.encoder.markup">Lavc60.3.100 libx264</property>
  <property name="kdenlive:original.meta.attr.major_brand.markup">isom</property>
  <property name="kdenlive:original.meta.attr.minor_version.markup">512</property>
  <property name="kdenlive:original.meta.attr.compatible_brands.markup">isomiso2avc1mp41</property>
  <property name="kdenlive:original.meta.attr.encoder.markup">Lavf60.3.100</property>
  <property name="kdenlive:original.meta.attr.comment.markup">Rendered with Manim Community v0.17.2</property>
  <property name="kdenlive:original.seekable">1</property>
  <property name="kdenlive:original.width">3840</property>
  <property name="kdenlive:original.height">2160</property>
  <property name="kdenlive:original.meta.media.sample_aspect_num">1</property>
  <property name="kdenlive:original.meta.media.sample_aspect_den">1</property>
  <property name="kdenlive:original.aspect_ratio">1</property>
  <property name="kdenlive:original.format">3</property>
  <property name="kdenlive:original.audio_index">-1</property>
  <property name="kdenlive:original.video_index">0</property>
  <property name="kdenlive:original.mute_on_pause">0</property>
  <property name="kdenlive:original.mlt_service">avformat-novalidate</property>
  <property name="kdenlive:original.meta.media.frame_rate_num">60</property>
  <property name="kdenlive:original.meta.media.frame_rate_den">1</property>
  <property name="kdenlive:original.meta.media.colorspace">709</property>
  <property name="kdenlive:original.meta.media.color_trc">2</property>
  <property name="kdenlive:original.meta.media.has_b_frames">2</property>
  <property name="kdenlive:original.meta.media.width">3840</property>
  <property name="kdenlive:original.meta.media.height">2160</property>
  <property name="kdenlive:original.meta.media.color_range">mpeg</property>
  <property name="kdenlive:original.meta.media.top_field_first">0</property>
  <property name="kdenlive:original.meta.media.progressive">1</property>
  <property name="kdenlive:original.kdenlive:clip_type">2</property>
  <property name="kdenlive:original.kdenlive:folderid">565</property>
  <property name="kdenlive:original.kdenlive:id">595</property>
  <property name="kdenlive:original.kdenlive:file_size">79868</property>
  <property name="kdenlive:original.kdenlive:file_hash">4422370af46ef72957d03909c15fbf2c</property>
  <property name="kdenlive:original.backup">1</property>
  <property name="meta.media.frame_rate_num">60</property>
  <property name="meta.media.frame_rate_den">1</property>
  <property name="meta.media.colorspace">601</property>
  <property name="meta.media.color_trc">2</property>
  <property name="meta.media.has_b_frames">0</property>
  <property name="meta.media.width">640</property>
  <property name="meta.media.height">360</property>
  <property name="meta.media.color_range">full</property>
  <property name="meta.media.top_field_first">0</property>
  <property name="meta.media.progressive">1</property>
 </producer>
 <producer id="producer407" in="00:00:00.000" out="00:00:00.650">
  <property name="length">40</property>
  <property name="eof">pause</property>
  <property name="resource">/home/xiaoxiae/.cache/kdenlive/proxy/4b25e0ace9719584e2ace22e00df1231.mkv</property>
  <property name="meta.media.nb_streams">1</property>
  <property name="meta.media.0.stream.type">video</property>
  <property name="meta.media.0.stream.frame_rate">60</property>
  <property name="meta.media.0.stream.sample_aspect_ratio">0</property>
  <property name="meta.media.0.codec.width">640</property>
  <property name="meta.media.0.codec.height">360</property>
  <property name="meta.media.0.codec.rotate">0</property>
  <property name="meta.media.0.codec.pix_fmt">yuvj420p</property>
  <property name="meta.media.0.codec.sample_aspect_ratio">0</property>
  <property name="meta.media.0.codec.colorspace">601</property>
  <property name="meta.media.0.codec.name">mjpeg</property>
  <property name="meta.media.0.codec.long_name">MJPEG (Motion JPEG)</property>
  <property name="meta.media.0.codec.bit_rate">0</property>
  <property name="meta.attr.0.stream.HANDLER_NAME.markup">VideoHandler</property>
  <property name="meta.attr.0.stream.VENDOR_ID.markup">[0][0][0][0]</property>
  <property name="meta.attr.0.stream.ENCODER.markup">Lavc60.3.100 mjpeg</property>
  <property name="meta.attr.0.stream.DURATION.markup">00:00:00.667000000</property>
  <property name="meta.attr.COMMENT.markup">Rendered with Manim Community v0.17.2</property>
  <property name="meta.attr.MAJOR_BRAND.markup">isom</property>
  <property name="meta.attr.MINOR_VERSION.markup">512</property>
  <property name="meta.attr.COMPATIBLE_BRANDS.markup">isomiso2avc1mp41</property>
  <property name="meta.attr.ENCODER.markup">Lavf60.3.100</property>
  <property name="seekable">1</property>
  <property name="meta.media.sample_aspect_num">1</property>
  <property name="meta.media.sample_aspect_den">1</property>
  <property name="aspect_ratio">1</property>
  <property name="format">3</property>
  <property name="audio_index">-1</property>
  <property name="video_index">0</property>
  <property name="mute_on_pause">0</property>
  <property name="mlt_service">avformat-novalidate</property>
  <property name="kdenlive:clipname">7.mp4</property>
  <property name="kdenlive:clip_type">2</property>
  <property name="kdenlive:folderid">565</property>
  <property name="kdenlive:id">485</property>
  <property name="kdenlive:file_size">82558</property>
  <property name="kdenlive:file_hash">4b25e0ace9719584e2ace22e00df1231</property>
  <property name="kdenlive:proxy">/home/xiaoxiae/.cache/kdenlive/proxy/4b25e0ace9719584e2ace22e00df1231.mkv</property>
  <property name="kdenlive:originalurl">video/Search/7.mp4</property>
  <property name="kdenlive:original.mlt_type">producer</property>
  <property name="kdenlive:original.in">00:00:00.000</property>
  <property name="kdenlive:original.out">00:00:00.650</property>
  <property name="kdenlive:original.length">40</property>
  <property name="kdenlive:original.eof">pause</property>
  <property name="kdenlive:original.resource">video/Search/7.mp4</property>
  <property name="kdenlive:original.meta.media.nb_streams">1</property>
  <property name="kdenlive:original.meta.media.0.stream.type">video</property>
  <property name="kdenlive:original.meta.media.0.stream.frame_rate">60</property>
  <property name="kdenlive:original.meta.media.0.stream.sample_aspect_ratio">0</property>
  <property name="kdenlive:original.meta.media.0.codec.width">3840</property>
  <property name="kdenlive:original.meta.media.0.codec.height">2160</property>
  <property name="kdenlive:original.meta.media.0.codec.rotate">0</property>
  <property name="kdenlive:original.meta.media.0.codec.pix_fmt">yuv420p</property>
  <property name="kdenlive:original.meta.media.0.codec.sample_aspect_ratio">0</property>
  <property name="kdenlive:original.meta.media.0.codec.colorspace">709</property>
  <property name="kdenlive:original.meta.media.0.codec.name">h264</property>
  <property name="kdenlive:original.meta.media.0.codec.long_name">H.264 / AVC / MPEG-4 AVC / MPEG-4 part 10</property>
  <property name="kdenlive:original.meta.media.0.codec.bit_rate">974100</property>
  <property name="kdenlive:original.meta.attr.0.stream.handler_name.markup">VideoHandler</property>
  <property name="kdenlive:original.meta.attr.0.stream.vendor_id.markup">[0][0][0][0]</property>
  <property name="kdenlive:original.meta.attr.0.stream.encoder.markup">Lavc60.3.100 libx264</property>
  <property name="kdenlive:original.meta.attr.major_brand.markup">isom</property>
  <property name="kdenlive:original.meta.attr.minor_version.markup">512</property>
  <property name="kdenlive:original.meta.attr.compatible_brands.markup">isomiso2avc1mp41</property>
  <property name="kdenlive:original.meta.attr.encoder.markup">Lavf60.3.100</property>
  <property name="kdenlive:original.meta.attr.comment.markup">Rendered with Manim Community v0.17.2</property>
  <property name="kdenlive:original.seekable">1</property>
  <property name="kdenlive:original.width">3840</property>
  <property name="kdenlive:original.height">2160</property>
  <property name="kdenlive:original.meta.media.sample_aspect_num">1</property>
  <property name="kdenlive:original.meta.media.sample_aspect_den">1</property>
  <property name="kdenlive:original.aspect_ratio">1</property>
  <property name="kdenlive:original.format">3</property>
  <property name="kdenlive:original.audio_index">-1</property>
  <property name="kdenlive:original.video_index">0</property>
  <property name="kdenlive:original.mute_on_pause">0</property>
  <property name="kdenlive:original.mlt_service">avformat-novalidate</property>
  <property name="kdenlive:original.meta.media.frame_rate_num">60</property>
  <property name="kdenlive:original.meta.media.frame_rate_den">1</property>
  <property name="kdenlive:original.meta.media.colorspace">709</property>
  <property name="kdenlive:original.meta.media.color_trc">2</property>
  <property name="kdenlive:original.meta.media.has_b_frames">2</property>
  <property name="kdenlive:original.meta.media.width">3840</property>
  <property name="kdenlive:original.meta.media.height">2160</property>
  <property name="kdenlive:original.meta.media.color_range">mpeg</property>
  <property name="kdenlive:original.meta.media.top_field_first">0</property>
  <property name="kdenlive:original.meta.media.progressive">1</property>
  <property name="kdenlive:original.kdenlive:clip_type">2</property>
  <property name="kdenlive:original.kdenlive:folderid">565</property>
  <property name="kdenlive:original.kdenlive:id">596</property>
  <property name="kdenlive:original.kdenlive:file_size">82558</property>
  <property name="kdenlive:original.kdenlive:file_hash">4b25e0ace9719584e2ace22e00df1231</property>
  <property name="kdenlive:original.backup">1</property>
  <property name="meta.media.frame_rate_num">60</property>
  <property name="meta.media.frame_rate_den">1</property>
  <property name="meta.media.colorspace">601</property>
  <property name="meta.media.color_trc">2</property>
  <property name="meta.media.has_b_frames">0</property>
  <property name="meta.media.width">640</property>
  <property name="meta.media.height">360</property>
  <property name="meta.media.color_range">full</property>
  <property name="meta.media.top_field_first">0</property>
  <property name="meta.media.progressive">1</property>
 </producer>
 <producer id="producer408" in="00:00:00.000" out="00:00:00.650">
  <property name="length">40</property>
  <property name="eof">pause</property>
  <property name="resource">/home/xiaoxiae/.cache/kdenlive/proxy/5f400135a5f458b1efaf60655172a57c.mkv</property>
  <property name="meta.media.nb_streams">1</property>
  <property name="meta.media.0.stream.type">video</property>
  <property name="meta.media.0.stream.frame_rate">60</property>
  <property name="meta.media.0.stream.sample_aspect_ratio">0</property>
  <property name="meta.media.0.codec.width">640</property>
  <property name="meta.media.0.codec.height">360</property>
  <property name="meta.media.0.codec.rotate">0</property>
  <property name="meta.media.0.codec.pix_fmt">yuvj420p</property>
  <property name="meta.media.0.codec.sample_aspect_ratio">0</property>
  <property name="meta.media.0.codec.colorspace">601</property>
  <property name="meta.media.0.codec.name">mjpeg</property>
  <property name="meta.media.0.codec.long_name">MJPEG (Motion JPEG)</property>
  <property name="meta.media.0.codec.bit_rate">0</property>
  <property name="meta.attr.0.stream.HANDLER_NAME.markup">VideoHandler</property>
  <property name="meta.attr.0.stream.VENDOR_ID.markup">[0][0][0][0]</property>
  <property name="meta.attr.0.stream.ENCODER.markup">Lavc60.3.100 mjpeg</property>
  <property name="meta.attr.0.stream.DURATION.markup">00:00:00.667000000</property>
  <property name="meta.attr.COMMENT.markup">Rendered with Manim Community v0.17.2</property>
  <property name="meta.attr.MAJOR_BRAND.markup">isom</property>
  <property name="meta.attr.MINOR_VERSION.markup">512</property>
  <property name="meta.attr.COMPATIBLE_BRANDS.markup">isomiso2avc1mp41</property>
  <property name="meta.attr.ENCODER.markup">Lavf60.3.100</property>
  <property name="seekable">1</property>
  <property name="meta.media.sample_aspect_num">1</property>
  <property name="meta.media.sample_aspect_den">1</property>
  <property name="aspect_ratio">1</property>
  <property name="format">3</property>
  <property name="audio_index">-1</property>
  <property name="video_index">0</property>
  <property name="mute_on_pause">0</property>
  <property name="mlt_service">avformat-novalidate</property>
  <property name="kdenlive:clipname">8.mp4</property>
  <property name="kdenlive:clip_type">2</property>
  <property name="kdenlive:folderid">565</property>
  <property name="kdenlive:id">486</property>
  <property name="kdenlive:file_size">97136</property>
  <property name="kdenlive:file_hash">5f400135a5f458b1efaf60655172a57c</property>
  <property name="kdenlive:proxy">/home/xiaoxiae/.cache/kdenlive/proxy/5f400135a5f458b1efaf60655172a57c.mkv</property>
  <property name="kdenlive:originalurl">video/Search/8.mp4</property>
  <property name="kdenlive:original.mlt_type">producer</property>
  <property name="kdenlive:original.in">00:00:00.000</property>
  <property name="kdenlive:original.out">00:00:00.650</property>
  <property name="kdenlive:original.length">40</property>
  <property name="kdenlive:original.eof">pause</property>
  <property name="kdenlive:original.resource">video/Search/8.mp4</property>
  <property name="kdenlive:original.meta.media.nb_streams">1</property>
  <property name="kdenlive:original.meta.media.0.stream.type">video</property>
  <property name="kdenlive:original.meta.media.0.stream.frame_rate">60</property>
  <property name="kdenlive:original.meta.media.0.stream.sample_aspect_ratio">0</property>
  <property name="kdenlive:original.meta.media.0.codec.width">3840</property>
  <property name="kdenlive:original.meta.media.0.codec.height">2160</property>
  <property name="kdenlive:original.meta.media.0.codec.rotate">0</property>
  <property name="kdenlive:original.meta.media.0.codec.pix_fmt">yuv420p</property>
  <property name="kdenlive:original.meta.media.0.codec.sample_aspect_ratio">0</property>
  <property name="kdenlive:original.meta.media.0.codec.colorspace">709</property>
  <property name="kdenlive:original.meta.media.0.codec.name">h264</property>
  <property name="kdenlive:original.meta.media.0.codec.long_name">H.264 / AVC / MPEG-4 AVC / MPEG-4 part 10</property>
  <property name="kdenlive:original.meta.media.0.codec.bit_rate">1149132</property>
  <property name="kdenlive:original.meta.attr.0.stream.handler_name.markup">VideoHandler</property>
  <property name="kdenlive:original.meta.attr.0.stream.vendor_id.markup">[0][0][0][0]</property>
  <property name="kdenlive:original.meta.attr.0.stream.encoder.markup">Lavc60.3.100 libx264</property>
  <property name="kdenlive:original.meta.attr.major_brand.markup">isom</property>
  <property name="kdenlive:original.meta.attr.minor_version.markup">512</property>
  <property name="kdenlive:original.meta.attr.compatible_brands.markup">isomiso2avc1mp41</property>
  <property name="kdenlive:original.meta.attr.encoder.markup">Lavf60.3.100</property>
  <property name="kdenlive:original.meta.attr.comment.markup">Rendered with Manim Community v0.17.2</property>
  <property name="kdenlive:original.seekable">1</property>
  <property name="kdenlive:original.width">3840</property>
  <property name="kdenlive:original.height">2160</property>
  <property name="kdenlive:original.meta.media.sample_aspect_num">1</property>
  <property name="kdenlive:original.meta.media.sample_aspect_den">1</property>
  <property name="kdenlive:original.aspect_ratio">1</property>
  <property name="kdenlive:original.format">3</property>
  <property name="kdenlive:original.audio_index">-1</property>
  <property name="kdenlive:original.video_index">0</property>
  <property name="kdenlive:original.mute_on_pause">0</property>
  <property name="kdenlive:original.mlt_service">avformat-novalidate</property>
  <property name="kdenlive:original.meta.media.frame_rate_num">60</property>
  <property name="kdenlive:original.meta.media.frame_rate_den">1</property>
  <property name="kdenlive:original.meta.media.colorspace">709</property>
  <property name="kdenlive:original.meta.media.color_trc">2</property>
  <property name="kdenlive:original.meta.media.has_b_frames">2</property>
  <property name="kdenlive:original.meta.media.width">3840</property>
  <property name="kdenlive:original.meta.media.height">2160</property>
  <property name="kdenlive:original.meta.media.color_range">mpeg</property>
  <property name="kdenlive:original.meta.media.top_field_first">0</property>
  <property name="kdenlive:original.meta.media.progressive">1</property>
  <property name="kdenlive:original.kdenlive:clip_type">2</property>
  <property name="kdenlive:original.kdenlive:folderid">565</property>
  <property name="kdenlive:original.kdenlive:id">597</property>
  <property name="kdenlive:original.kdenlive:file_size">97136</property>
  <property name="kdenlive:original.kdenlive:file_hash">5f400135a5f458b1efaf60655172a57c</property>
  <property name="kdenlive:original.backup">1</property>
  <property name="meta.media.frame_rate_num">60</property>
  <property name="meta.media.frame_rate_den">1</property>
  <property name="meta.media.colorspace">601</property>
  <property name="meta.media.color_trc">2</property>
  <property name="meta.media.has_b_frames">0</property>
  <property name="meta.media.width">640</property>
  <property name="meta.media.height">360</property>
  <property name="meta.media.color_range">full</property>
  <property name="meta.media.top_field_first">0</property>
  <property name="meta.media.progressive">1</property>
 </producer>
 <producer id="producer409" in="00:00:00.000" out="00:00:00.983">
  <property name="length">60</property>
  <property name="eof">pause</property>
  <property name="resource">/home/xiaoxiae/.cache/kdenlive/proxy/5ab8a286666f257cbbca676c4f8320dd.mkv</property>
  <property name="meta.media.nb_streams">1</property>
  <property name="meta.media.0.stream.type">video</property>
  <property name="meta.media.0.stream.frame_rate">60</property>
  <property name="meta.media.0.stream.sample_aspect_ratio">0</property>
  <property name="meta.media.0.codec.width">640</property>
  <property name="meta.media.0.codec.height">360</property>
  <property name="meta.media.0.codec.rotate">0</property>
  <property name="meta.media.0.codec.pix_fmt">yuvj420p</property>
  <property name="meta.media.0.codec.sample_aspect_ratio">0</property>
  <property name="meta.media.0.codec.colorspace">601</property>
  <property name="meta.media.0.codec.name">mjpeg</property>
  <property name="meta.media.0.codec.long_name">MJPEG (Motion JPEG)</property>
  <property name="meta.media.0.codec.bit_rate">0</property>
  <property name="meta.attr.0.stream.HANDLER_NAME.markup">VideoHandler</property>
  <property name="meta.attr.0.stream.VENDOR_ID.markup">[0][0][0][0]</property>
  <property name="meta.attr.0.stream.ENCODER.markup">Lavc60.3.100 mjpeg</property>
  <property name="meta.attr.0.stream.DURATION.markup">00:00:01.000000000</property>
  <property name="meta.attr.COMMENT.markup">Rendered with Manim Community v0.17.2</property>
  <property name="meta.attr.MAJOR_BRAND.markup">isom</property>
  <property name="meta.attr.MINOR_VERSION.markup">512</property>
  <property name="meta.attr.COMPATIBLE_BRANDS.markup">isomiso2avc1mp41</property>
  <property name="meta.attr.ENCODER.markup">Lavf60.3.100</property>
  <property name="seekable">1</property>
  <property name="meta.media.sample_aspect_num">1</property>
  <property name="meta.media.sample_aspect_den">1</property>
  <property name="aspect_ratio">1</property>
  <property name="format">3</property>
  <property name="audio_index">-1</property>
  <property name="video_index">0</property>
  <property name="mute_on_pause">0</property>
  <property name="mlt_service">avformat-novalidate</property>
  <property name="kdenlive:clipname">9.mp4</property>
  <property name="kdenlive:clip_type">2</property>
  <property name="kdenlive:folderid">565</property>
  <property name="kdenlive:id">487</property>
  <property name="kdenlive:file_size">200363</property>
  <property name="kdenlive:file_hash">5ab8a286666f257cbbca676c4f8320dd</property>
  <property name="kdenlive:proxy">/home/xiaoxiae/.cache/kdenlive/proxy/5ab8a286666f257cbbca676c4f8320dd.mkv</property>
  <property name="kdenlive:originalurl">video/Search/9.mp4</property>
  <property name="kdenlive:original.mlt_type">producer</property>
  <property name="kdenlive:original.in">00:00:00.000</property>
  <property name="kdenlive:original.out">00:00:00.983</property>
  <property name="kdenlive:original.length">60</property>
  <property name="kdenlive:original.eof">pause</property>
  <property name="kdenlive:original.resource">video/Search/9.mp4</property>
  <property name="kdenlive:original.meta.media.nb_streams">1</property>
  <property name="kdenlive:original.meta.media.0.stream.type">video</property>
  <property name="kdenlive:original.meta.media.0.stream.frame_rate">60</property>
  <property name="kdenlive:original.meta.media.0.stream.sample_aspect_ratio">0</property>
  <property name="kdenlive:original.meta.media.0.codec.width">3840</property>
  <property name="kdenlive:original.meta.media.0.codec.height">2160</property>
  <property name="kdenlive:original.meta.media.0.codec.rotate">0</property>
  <property name="kdenlive:original.meta.media.0.codec.pix_fmt">yuv420p</property>
  <property name="kdenlive:original.meta.media.0.codec.sample_aspect_ratio">0</property>
  <property name="kdenlive:original.meta.media.0.codec.colorspace">709</property>
  <property name="kdenlive:original.meta.media.0.codec.name">h264</property>
  <property name="kdenlive:original.meta.media.0.codec.long_name">H.264 / AVC / MPEG-4 AVC / MPEG-4 part 10</property>
  <property name="kdenlive:original.meta.media.0.codec.bit_rate">1589856</property>
  <property name="kdenlive:original.meta.attr.0.stream.handler_name.markup">VideoHandler</property>
  <property name="kdenlive:original.meta.attr.0.stream.vendor_id.markup">[0][0][0][0]</property>
  <property name="kdenlive:original.meta.attr.0.stream.encoder.markup">Lavc60.3.100 libx264</property>
  <property name="kdenlive:original.meta.attr.major_brand.markup">isom</property>
  <property name="kdenlive:original.meta.attr.minor_version.markup">512</property>
  <property name="kdenlive:original.meta.attr.compatible_brands.markup">isomiso2avc1mp41</property>
  <property name="kdenlive:original.meta.attr.encoder.markup">Lavf60.3.100</property>
  <property name="kdenlive:original.meta.attr.comment.markup">Rendered with Manim Community v0.17.2</property>
  <property name="kdenlive:original.seekable">1</property>
  <property name="kdenlive:original.width">3840</property>
  <property name="kdenlive:original.height">2160</property>
  <property name="kdenlive:original.meta.media.sample_aspect_num">1</property>
  <property name="kdenlive:original.meta.media.sample_aspect_den">1</property>
  <property name="kdenlive:original.aspect_ratio">1</property>
  <property name="kdenlive:original.format">3</property>
  <property name="kdenlive:original.audio_index">-1</property>
  <property name="kdenlive:original.video_index">0</property>
  <property name="kdenlive:original.mute_on_pause">0</property>
  <property name="kdenlive:original.mlt_service">avformat-novalidate</property>
  <property name="kdenlive:original.meta.media.frame_rate_num">60</property>
  <property name="kdenlive:original.meta.media.frame_rate_den">1</property>
  <property name="kdenlive:original.meta.media.colorspace">709</property>
  <property name="kdenlive:original.meta.media.color_trc">2</property>
  <property name="kdenlive:original.meta.media.has_b_frames">2</property>
  <property name="kdenlive:original.meta.media.width">3840</property>
  <property name="kdenlive:original.meta.media.height">2160</property>
  <property name="kdenlive:original.meta.media.color_range">mpeg</property>
  <property name="kdenlive:original.meta.media.top_field_first">0</property>
  <property name="kdenlive:original.meta.media.progressive">1</property>
  <property name="kdenlive:original.kdenlive:clip_type">2</property>
  <property name="kdenlive:original.kdenlive:folderid">565</property>
  <property name="kdenlive:original.kdenlive:id">598</property>
  <property name="kdenlive:original.kdenlive:file_size">200363</property>
  <property name="kdenlive:original.kdenlive:file_hash">5ab8a286666f257cbbca676c4f8320dd</property>
  <property name="kdenlive:original.backup">1</property>
  <property name="meta.media.frame_rate_num">60</property>
  <property name="meta.media.frame_rate_den">1</property>
  <property name="meta.media.colorspace">601</property>
  <property name="meta.media.color_trc">2</property>
  <property name="meta.media.has_b_frames">0</property>
  <property name="meta.media.width">640</property>
  <property name="meta.media.height">360</property>
  <property name="meta.media.color_range">full</property>
  <property name="meta.media.top_field_first">0</property>
  <property name="meta.media.progressive">1</property>
 </producer>
 <producer id="producer410" in="00:00:00.000" out="00:00:00.983">
  <property name="length">60</property>
  <property name="eof">pause</property>
  <property name="resource">/home/xiaoxiae/.cache/kdenlive/proxy/ee4781a2d191069bbbd64a60e2e4ca3e.mkv</property>
  <property name="meta.media.nb_streams">1</property>
  <property name="meta.media.0.stream.type">video</property>
  <property name="meta.media.0.stream.frame_rate">60</property>
  <property name="meta.media.0.stream.sample_aspect_ratio">0</property>
  <property name="meta.media.0.codec.width">640</property>
  <property name="meta.media.0.codec.height">360</property>
  <property name="meta.media.0.codec.rotate">0</property>
  <property name="meta.media.0.codec.pix_fmt">yuvj420p</property>
  <property name="meta.media.0.codec.sample_aspect_ratio">0</property>
  <property name="meta.media.0.codec.colorspace">601</property>
  <property name="meta.media.0.codec.name">mjpeg</property>
  <property name="meta.media.0.codec.long_name">MJPEG (Motion JPEG)</property>
  <property name="meta.media.0.codec.bit_rate">0</property>
  <property name="meta.attr.0.stream.HANDLER_NAME.markup">VideoHandler</property>
  <property name="meta.attr.0.stream.VENDOR_ID.markup">[0][0][0][0]</property>
  <property name="meta.attr.0.stream.ENCODER.markup">Lavc60.3.100 mjpeg</property>
  <property name="meta.attr.0.stream.DURATION.markup">00:00:01.000000000</property>
  <property name="meta.attr.COMMENT.markup">Rendered with Manim Community v0.17.2</property>
  <property name="meta.attr.MAJOR_BRAND.markup">isom</property>
  <property name="meta.attr.MINOR_VERSION.markup">512</property>
  <property name="meta.attr.COMPATIBLE_BRANDS.markup">isomiso2avc1mp41</property>
  <property name="meta.attr.ENCODER.markup">Lavf60.3.100</property>
  <property name="seekable">1</property>
  <property name="meta.media.sample_aspect_num">1</property>
  <property name="meta.media.sample_aspect_den">1</property>
  <property name="aspect_ratio">1</property>
  <property name="format">3</property>
  <property name="audio_index">-1</property>
  <property name="video_index">0</property>
  <property name="mute_on_pause">0</property>
  <property name="mlt_service">avformat-novalidate</property>
  <property name="kdenlive:clipname">1.mp4</property>
  <property name="kdenlive:clip_type">2</property>
  <property name="kdenlive:folderid">599</property>
  <property name="kdenlive:id">489</property>
  <property name="kdenlive:file_size">153164</property>
  <property name="kdenlive:file_hash">ee4781a2d191069bbbd64a60e2e4ca3e</property>
  <property name="kdenlive:proxy">/home/xiaoxiae/.cache/kdenlive/proxy/ee4781a2d191069bbbd64a60e2e4ca3e.mkv</property>
  <property name="kdenlive:originalurl">video/SelectingAB/1.mp4</property>
  <property name="kdenlive:original.mlt_type">producer</property>
  <property name="kdenlive:original.in">00:00:00.000</property>
  <property name="kdenlive:original.out">00:00:00.983</property>
  <property name="kdenlive:original.length">60</property>
  <property name="kdenlive:original.eof">pause</property>
  <property name="kdenlive:original.resource">video/SelectingAB/1.mp4</property>
  <property name="kdenlive:original.meta.media.nb_streams">1</property>
  <property name="kdenlive:original.meta.media.0.stream.type">video</property>
  <property name="kdenlive:original.meta.media.0.stream.frame_rate">60</property>
  <property name="kdenlive:original.meta.media.0.stream.sample_aspect_ratio">0</property>
  <property name="kdenlive:original.meta.media.0.codec.width">3840</property>
  <property name="kdenlive:original.meta.media.0.codec.height">2160</property>
  <property name="kdenlive:original.meta.media.0.codec.rotate">0</property>
  <property name="kdenlive:original.meta.media.0.codec.pix_fmt">yuv420p</property>
  <property name="kdenlive:original.meta.media.0.codec.sample_aspect_ratio">0</property>
  <property name="kdenlive:original.meta.media.0.codec.colorspace">709</property>
  <property name="kdenlive:original.meta.media.0.codec.name">h264</property>
  <property name="kdenlive:original.meta.media.0.codec.long_name">H.264 / AVC / MPEG-4 AVC / MPEG-4 part 10</property>
  <property name="kdenlive:original.meta.media.0.codec.bit_rate">1213416</property>
  <property name="kdenlive:original.meta.attr.0.stream.handler_name.markup">VideoHandler</property>
  <property name="kdenlive:original.meta.attr.0.stream.vendor_id.markup">[0][0][0][0]</property>
  <property name="kdenlive:original.meta.attr.0.stream.encoder.markup">Lavc60.3.100 libx264</property>
  <property name="kdenlive:original.meta.attr.major_brand.markup">isom</property>
  <property name="kdenlive:original.meta.attr.minor_version.markup">512</property>
  <property name="kdenlive:original.meta.attr.compatible_brands.markup">isomiso2avc1mp41</property>
  <property name="kdenlive:original.meta.attr.encoder.markup">Lavf60.3.100</property>
  <property name="kdenlive:original.meta.attr.comment.markup">Rendered with Manim Community v0.17.2</property>
  <property name="kdenlive:original.seekable">1</property>
  <property name="kdenlive:original.width">3840</property>
  <property name="kdenlive:original.height">2160</property>
  <property name="kdenlive:original.meta.media.sample_aspect_num">1</property>
  <property name="kdenlive:original.meta.media.sample_aspect_den">1</property>
  <property name="kdenlive:original.aspect_ratio">1</property>
  <property name="kdenlive:original.format">3</property>
  <property name="kdenlive:original.audio_index">-1</property>
  <property name="kdenlive:original.video_index">0</property>
  <property name="kdenlive:original.mute_on_pause">0</property>
  <property name="kdenlive:original.mlt_service">avformat-novalidate</property>
  <property name="kdenlive:original.meta.media.frame_rate_num">60</property>
  <property name="kdenlive:original.meta.media.frame_rate_den">1</property>
  <property name="kdenlive:original.meta.media.colorspace">709</property>
  <property name="kdenlive:original.meta.media.color_trc">2</property>
  <property name="kdenlive:original.meta.media.has_b_frames">2</property>
  <property name="kdenlive:original.meta.media.width">3840</property>
  <property name="kdenlive:original.meta.media.height">2160</property>
  <property name="kdenlive:original.meta.media.color_range">mpeg</property>
  <property name="kdenlive:original.meta.media.top_field_first">0</property>
  <property name="kdenlive:original.meta.media.progressive">1</property>
  <property name="kdenlive:original.kdenlive:clip_type">2</property>
  <property name="kdenlive:original.kdenlive:folderid">599</property>
  <property name="kdenlive:original.kdenlive:id">600</property>
  <property name="kdenlive:original.kdenlive:file_size">153164</property>
  <property name="kdenlive:original.kdenlive:file_hash">ee4781a2d191069bbbd64a60e2e4ca3e</property>
  <property name="kdenlive:original.backup">1</property>
  <property name="meta.media.frame_rate_num">60</property>
  <property name="meta.media.frame_rate_den">1</property>
  <property name="meta.media.colorspace">601</property>
  <property name="meta.media.color_trc">2</property>
  <property name="meta.media.has_b_frames">0</property>
  <property name="meta.media.width">640</property>
  <property name="meta.media.height">360</property>
  <property name="meta.media.color_range">full</property>
  <property name="meta.media.top_field_first">0</property>
  <property name="meta.media.progressive">1</property>
 </producer>
 <producer id="producer411" in="00:00:00.000" out="00:00:00.983">
  <property name="length">60</property>
  <property name="eof">pause</property>
  <property name="resource">/home/xiaoxiae/.cache/kdenlive/proxy/5be5edef6525cd3b6bfe9ec5a2c4bfa7.mkv</property>
  <property name="meta.media.nb_streams">1</property>
  <property name="meta.media.0.stream.type">video</property>
  <property name="meta.media.0.stream.frame_rate">60</property>
  <property name="meta.media.0.stream.sample_aspect_ratio">0</property>
  <property name="meta.media.0.codec.width">640</property>
  <property name="meta.media.0.codec.height">360</property>
  <property name="meta.media.0.codec.rotate">0</property>
  <property name="meta.media.0.codec.pix_fmt">yuvj420p</property>
  <property name="meta.media.0.codec.sample_aspect_ratio">0</property>
  <property name="meta.media.0.codec.colorspace">601</property>
  <property name="meta.media.0.codec.name">mjpeg</property>
  <property name="meta.media.0.codec.long_name">MJPEG (Motion JPEG)</property>
  <property name="meta.media.0.codec.bit_rate">0</property>
  <property name="meta.attr.0.stream.HANDLER_NAME.markup">VideoHandler</property>
  <property name="meta.attr.0.stream.VENDOR_ID.markup">[0][0][0][0]</property>
  <property name="meta.attr.0.stream.ENCODER.markup">Lavc60.3.100 mjpeg</property>
  <property name="meta.attr.0.stream.DURATION.markup">00:00:01.000000000</property>
  <property name="meta.attr.COMMENT.markup">Rendered with Manim Community v0.17.2</property>
  <property name="meta.attr.MAJOR_BRAND.markup">isom</property>
  <property name="meta.attr.MINOR_VERSION.markup">512</property>
  <property name="meta.attr.COMPATIBLE_BRANDS.markup">isomiso2avc1mp41</property>
  <property name="meta.attr.ENCODER.markup">Lavf60.3.100</property>
  <property name="seekable">1</property>
  <property name="meta.media.sample_aspect_num">1</property>
  <property name="meta.media.sample_aspect_den">1</property>
  <property name="aspect_ratio">1</property>
  <property name="format">3</property>
  <property name="audio_index">-1</property>
  <property name="video_index">0</property>
  <property name="mute_on_pause">0</property>
  <property name="mlt_service">avformat-novalidate</property>
  <property name="kdenlive:clipname">10.mp4</property>
  <property name="kdenlive:clip_type">2</property>
  <property name="kdenlive:folderid">599</property>
  <property name="kdenlive:id">490</property>
  <property name="kdenlive:file_size">75476</property>
  <property name="kdenlive:file_hash">5be5edef6525cd3b6bfe9ec5a2c4bfa7</property>
  <property name="kdenlive:proxy">/home/xiaoxiae/.cache/kdenlive/proxy/5be5edef6525cd3b6bfe9ec5a2c4bfa7.mkv</property>
  <property name="kdenlive:originalurl">video/SelectingAB/10.mp4</property>
  <property name="kdenlive:original.mlt_type">producer</property>
  <property name="kdenlive:original.in">00:00:00.000</property>
  <property name="kdenlive:original.out">00:00:00.983</property>
  <property name="kdenlive:original.length">60</property>
  <property name="kdenlive:original.eof">pause</property>
  <property name="kdenlive:original.resource">video/SelectingAB/10.mp4</property>
  <property name="kdenlive:original.meta.media.nb_streams">1</property>
  <property name="kdenlive:original.meta.media.0.stream.type">video</property>
  <property name="kdenlive:original.meta.media.0.stream.frame_rate">60</property>
  <property name="kdenlive:original.meta.media.0.stream.sample_aspect_ratio">0</property>
  <property name="kdenlive:original.meta.media.0.codec.width">3840</property>
  <property name="kdenlive:original.meta.media.0.codec.height">2160</property>
  <property name="kdenlive:original.meta.media.0.codec.rotate">0</property>
  <property name="kdenlive:original.meta.media.0.codec.pix_fmt">yuv420p</property>
  <property name="kdenlive:original.meta.media.0.codec.sample_aspect_ratio">0</property>
  <property name="kdenlive:original.meta.media.0.codec.colorspace">709</property>
  <property name="kdenlive:original.meta.media.0.codec.name">h264</property>
  <property name="kdenlive:original.meta.media.0.codec.long_name">H.264 / AVC / MPEG-4 AVC / MPEG-4 part 10</property>
  <property name="kdenlive:original.meta.media.0.codec.bit_rate">590888</property>
  <property name="kdenlive:original.meta.attr.0.stream.handler_name.markup">VideoHandler</property>
  <property name="kdenlive:original.meta.attr.0.stream.vendor_id.markup">[0][0][0][0]</property>
  <property name="kdenlive:original.meta.attr.0.stream.encoder.markup">Lavc60.3.100 libx264</property>
  <property name="kdenlive:original.meta.attr.major_brand.markup">isom</property>
  <property name="kdenlive:original.meta.attr.minor_version.markup">512</property>
  <property name="kdenlive:original.meta.attr.compatible_brands.markup">isomiso2avc1mp41</property>
  <property name="kdenlive:original.meta.attr.encoder.markup">Lavf60.3.100</property>
  <property name="kdenlive:original.meta.attr.comment.markup">Rendered with Manim Community v0.17.2</property>
  <property name="kdenlive:original.seekable">1</property>
  <property name="kdenlive:original.width">3840</property>
  <property name="kdenlive:original.height">2160</property>
  <property name="kdenlive:original.meta.media.sample_aspect_num">1</property>
  <property name="kdenlive:original.meta.media.sample_aspect_den">1</property>
  <property name="kdenlive:original.aspect_ratio">1</property>
  <property name="kdenlive:original.format">3</property>
  <property name="kdenlive:original.audio_index">-1</property>
  <property name="kdenlive:original.video_index">0</property>
  <property name="kdenlive:original.mute_on_pause">0</property>
  <property name="kdenlive:original.mlt_service">avformat-novalidate</property>
  <property name="kdenlive:original.meta.media.frame_rate_num">60</property>
  <property name="kdenlive:original.meta.media.frame_rate_den">1</property>
  <property name="kdenlive:original.meta.media.colorspace">709</property>
  <property name="kdenlive:original.meta.media.color_trc">2</property>
  <property name="kdenlive:original.meta.media.has_b_frames">2</property>
  <property name="kdenlive:original.meta.media.width">3840</property>
  <property name="kdenlive:original.meta.media.height">2160</property>
  <property name="kdenlive:original.meta.media.color_range">mpeg</property>
  <property name="kdenlive:original.meta.media.top_field_first">0</property>
  <property name="kdenlive:original.meta.media.progressive">1</property>
  <property name="kdenlive:original.kdenlive:clip_type">2</property>
  <property name="kdenlive:original.kdenlive:folderid">599</property>
  <property name="kdenlive:original.kdenlive:id">601</property>
  <property name="kdenlive:original.kdenlive:file_size">75476</property>
  <property name="kdenlive:original.kdenlive:file_hash">5be5edef6525cd3b6bfe9ec5a2c4bfa7</property>
  <property name="kdenlive:original.backup">1</property>
  <property name="meta.media.frame_rate_num">60</property>
  <property name="meta.media.frame_rate_den">1</property>
  <property name="meta.media.colorspace">601</property>
  <property name="meta.media.color_trc">2</property>
  <property name="meta.media.has_b_frames">0</property>
  <property name="meta.media.width">640</property>
  <property name="meta.media.height">360</property>
  <property name="meta.media.color_range">full</property>
  <property name="meta.media.top_field_first">0</property>
  <property name="meta.media.progressive">1</property>
 </producer>
 <producer id="producer413" in="00:00:00.000" out="00:00:00.983">
  <property name="length">60</property>
  <property name="eof">pause</property>
  <property name="resource">/home/xiaoxiae/.cache/kdenlive/proxy/64118a2404b8a013efa7cde404bccc0b.mkv</property>
  <property name="meta.media.nb_streams">1</property>
  <property name="meta.media.0.stream.type">video</property>
  <property name="meta.media.0.stream.frame_rate">60</property>
  <property name="meta.media.0.stream.sample_aspect_ratio">0</property>
  <property name="meta.media.0.codec.width">640</property>
  <property name="meta.media.0.codec.height">360</property>
  <property name="meta.media.0.codec.rotate">0</property>
  <property name="meta.media.0.codec.pix_fmt">yuvj420p</property>
  <property name="meta.media.0.codec.sample_aspect_ratio">0</property>
  <property name="meta.media.0.codec.colorspace">601</property>
  <property name="meta.media.0.codec.name">mjpeg</property>
  <property name="meta.media.0.codec.long_name">MJPEG (Motion JPEG)</property>
  <property name="meta.media.0.codec.bit_rate">0</property>
  <property name="meta.attr.0.stream.HANDLER_NAME.markup">VideoHandler</property>
  <property name="meta.attr.0.stream.VENDOR_ID.markup">[0][0][0][0]</property>
  <property name="meta.attr.0.stream.ENCODER.markup">Lavc60.3.100 mjpeg</property>
  <property name="meta.attr.0.stream.DURATION.markup">00:00:01.000000000</property>
  <property name="meta.attr.COMMENT.markup">Rendered with Manim Community v0.17.2</property>
  <property name="meta.attr.MAJOR_BRAND.markup">isom</property>
  <property name="meta.attr.MINOR_VERSION.markup">512</property>
  <property name="meta.attr.COMPATIBLE_BRANDS.markup">isomiso2avc1mp41</property>
  <property name="meta.attr.ENCODER.markup">Lavf60.3.100</property>
  <property name="seekable">1</property>
  <property name="meta.media.sample_aspect_num">1</property>
  <property name="meta.media.sample_aspect_den">1</property>
  <property name="aspect_ratio">1</property>
  <property name="format">3</property>
  <property name="audio_index">-1</property>
  <property name="video_index">0</property>
  <property name="mute_on_pause">0</property>
  <property name="mlt_service">avformat-novalidate</property>
  <property name="kdenlive:clipname">11.mp4</property>
  <property name="kdenlive:clip_type">2</property>
  <property name="kdenlive:folderid">599</property>
  <property name="kdenlive:id">491</property>
  <property name="kdenlive:file_size">106308</property>
  <property name="kdenlive:file_hash">64118a2404b8a013efa7cde404bccc0b</property>
  <property name="kdenlive:proxy">/home/xiaoxiae/.cache/kdenlive/proxy/64118a2404b8a013efa7cde404bccc0b.mkv</property>
  <property name="kdenlive:originalurl">video/SelectingAB/11.mp4</property>
  <property name="kdenlive:original.mlt_type">producer</property>
  <property name="kdenlive:original.in">00:00:00.000</property>
  <property name="kdenlive:original.out">00:00:00.983</property>
  <property name="kdenlive:original.length">60</property>
  <property name="kdenlive:original.eof">pause</property>
  <property name="kdenlive:original.resource">video/SelectingAB/11.mp4</property>
  <property name="kdenlive:original.meta.media.nb_streams">1</property>
  <property name="kdenlive:original.meta.media.0.stream.type">video</property>
  <property name="kdenlive:original.meta.media.0.stream.frame_rate">60</property>
  <property name="kdenlive:original.meta.media.0.stream.sample_aspect_ratio">0</property>
  <property name="kdenlive:original.meta.media.0.codec.width">3840</property>
  <property name="kdenlive:original.meta.media.0.codec.height">2160</property>
  <property name="kdenlive:original.meta.media.0.codec.rotate">0</property>
  <property name="kdenlive:original.meta.media.0.codec.pix_fmt">yuv420p</property>
  <property name="kdenlive:original.meta.media.0.codec.sample_aspect_ratio">0</property>
  <property name="kdenlive:original.meta.media.0.codec.colorspace">709</property>
  <property name="kdenlive:original.meta.media.0.codec.name">h264</property>
  <property name="kdenlive:original.meta.media.0.codec.long_name">H.264 / AVC / MPEG-4 AVC / MPEG-4 part 10</property>
  <property name="kdenlive:original.meta.media.0.codec.bit_rate">837416</property>
  <property name="kdenlive:original.meta.attr.0.stream.handler_name.markup">VideoHandler</property>
  <property name="kdenlive:original.meta.attr.0.stream.vendor_id.markup">[0][0][0][0]</property>
  <property name="kdenlive:original.meta.attr.0.stream.encoder.markup">Lavc60.3.100 libx264</property>
  <property name="kdenlive:original.meta.attr.major_brand.markup">isom</property>
  <property name="kdenlive:original.meta.attr.minor_version.markup">512</property>
  <property name="kdenlive:original.meta.attr.compatible_brands.markup">isomiso2avc1mp41</property>
  <property name="kdenlive:original.meta.attr.encoder.markup">Lavf60.3.100</property>
  <property name="kdenlive:original.meta.attr.comment.markup">Rendered with Manim Community v0.17.2</property>
  <property name="kdenlive:original.seekable">1</property>
  <property name="kdenlive:original.width">3840</property>
  <property name="kdenlive:original.height">2160</property>
  <property name="kdenlive:original.meta.media.sample_aspect_num">1</property>
  <property name="kdenlive:original.meta.media.sample_aspect_den">1</property>
  <property name="kdenlive:original.aspect_ratio">1</property>
  <property name="kdenlive:original.format">3</property>
  <property name="kdenlive:original.audio_index">-1</property>
  <property name="kdenlive:original.video_index">0</property>
  <property name="kdenlive:original.mute_on_pause">0</property>
  <property name="kdenlive:original.mlt_service">avformat-novalidate</property>
  <property name="kdenlive:original.meta.media.frame_rate_num">60</property>
  <property name="kdenlive:original.meta.media.frame_rate_den">1</property>
  <property name="kdenlive:original.meta.media.colorspace">709</property>
  <property name="kdenlive:original.meta.media.color_trc">2</property>
  <property name="kdenlive:original.meta.media.has_b_frames">2</property>
  <property name="kdenlive:original.meta.media.width">3840</property>
  <property name="kdenlive:original.meta.media.height">2160</property>
  <property name="kdenlive:original.meta.media.color_range">mpeg</property>
  <property name="kdenlive:original.meta.media.top_field_first">0</property>
  <property name="kdenlive:original.meta.media.progressive">1</property>
  <property name="kdenlive:original.kdenlive:clip_type">2</property>
  <property name="kdenlive:original.kdenlive:folderid">599</property>
  <property name="kdenlive:original.kdenlive:id">602</property>
  <property name="kdenlive:original.kdenlive:file_size">106308</property>
  <property name="kdenlive:original.kdenlive:file_hash">64118a2404b8a013efa7cde404bccc0b</property>
  <property name="kdenlive:original.backup">1</property>
  <property name="meta.media.frame_rate_num">60</property>
  <property name="meta.media.frame_rate_den">1</property>
  <property name="meta.media.colorspace">601</property>
  <property name="meta.media.color_trc">2</property>
  <property name="meta.media.has_b_frames">0</property>
  <property name="meta.media.width">640</property>
  <property name="meta.media.height">360</property>
  <property name="meta.media.color_range">full</property>
  <property name="meta.media.top_field_first">0</property>
  <property name="meta.media.progressive">1</property>
 </producer>
 <producer id="producer412" in="00:00:00.000" out="00:00:00.983">
  <property name="length">60</property>
  <property name="eof">pause</property>
  <property name="resource">/home/xiaoxiae/.cache/kdenlive/proxy/79c19828077949630a48b8171413859c.mkv</property>
  <property name="meta.media.nb_streams">1</property>
  <property name="meta.media.0.stream.type">video</property>
  <property name="meta.media.0.stream.frame_rate">60</property>
  <property name="meta.media.0.stream.sample_aspect_ratio">0</property>
  <property name="meta.media.0.codec.width">640</property>
  <property name="meta.media.0.codec.height">360</property>
  <property name="meta.media.0.codec.rotate">0</property>
  <property name="meta.media.0.codec.pix_fmt">yuvj420p</property>
  <property name="meta.media.0.codec.sample_aspect_ratio">0</property>
  <property name="meta.media.0.codec.colorspace">601</property>
  <property name="meta.media.0.codec.name">mjpeg</property>
  <property name="meta.media.0.codec.long_name">MJPEG (Motion JPEG)</property>
  <property name="meta.media.0.codec.bit_rate">0</property>
  <property name="meta.attr.0.stream.HANDLER_NAME.markup">VideoHandler</property>
  <property name="meta.attr.0.stream.VENDOR_ID.markup">[0][0][0][0]</property>
  <property name="meta.attr.0.stream.ENCODER.markup">Lavc60.3.100 mjpeg</property>
  <property name="meta.attr.0.stream.DURATION.markup">00:00:01.000000000</property>
  <property name="meta.attr.COMMENT.markup">Rendered with Manim Community v0.17.2</property>
  <property name="meta.attr.MAJOR_BRAND.markup">isom</property>
  <property name="meta.attr.MINOR_VERSION.markup">512</property>
  <property name="meta.attr.COMPATIBLE_BRANDS.markup">isomiso2avc1mp41</property>
  <property name="meta.attr.ENCODER.markup">Lavf60.3.100</property>
  <property name="seekable">1</property>
  <property name="meta.media.sample_aspect_num">1</property>
  <property name="meta.media.sample_aspect_den">1</property>
  <property name="aspect_ratio">1</property>
  <property name="format">3</property>
  <property name="audio_index">-1</property>
  <property name="video_index">0</property>
  <property name="mute_on_pause">0</property>
  <property name="mlt_service">avformat-novalidate</property>
  <property name="kdenlive:clipname">12.mp4</property>
  <property name="kdenlive:clip_type">2</property>
  <property name="kdenlive:folderid">599</property>
  <property name="kdenlive:id">492</property>
  <property name="kdenlive:file_size">432315</property>
  <property name="kdenlive:file_hash">79c19828077949630a48b8171413859c</property>
  <property name="kdenlive:proxy">/home/xiaoxiae/.cache/kdenlive/proxy/79c19828077949630a48b8171413859c.mkv</property>
  <property name="kdenlive:originalurl">video/SelectingAB/12.mp4</property>
  <property name="kdenlive:original.mlt_type">producer</property>
  <property name="kdenlive:original.in">00:00:00.000</property>
  <property name="kdenlive:original.out">00:00:00.983</property>
  <property name="kdenlive:original.length">60</property>
  <property name="kdenlive:original.eof">pause</property>
  <property name="kdenlive:original.resource">video/SelectingAB/12.mp4</property>
  <property name="kdenlive:original.meta.media.nb_streams">1</property>
  <property name="kdenlive:original.meta.media.0.stream.type">video</property>
  <property name="kdenlive:original.meta.media.0.stream.frame_rate">60</property>
  <property name="kdenlive:original.meta.media.0.stream.sample_aspect_ratio">0</property>
  <property name="kdenlive:original.meta.media.0.codec.width">3840</property>
  <property name="kdenlive:original.meta.media.0.codec.height">2160</property>
  <property name="kdenlive:original.meta.media.0.codec.rotate">0</property>
  <property name="kdenlive:original.meta.media.0.codec.pix_fmt">yuv420p</property>
  <property name="kdenlive:original.meta.media.0.codec.sample_aspect_ratio">0</property>
  <property name="kdenlive:original.meta.media.0.codec.colorspace">709</property>
  <property name="kdenlive:original.meta.media.0.codec.name">h264</property>
  <property name="kdenlive:original.meta.media.0.codec.long_name">H.264 / AVC / MPEG-4 AVC / MPEG-4 part 10</property>
  <property name="kdenlive:original.meta.media.0.codec.bit_rate">3447328</property>
  <property name="kdenlive:original.meta.attr.0.stream.handler_name.markup">VideoHandler</property>
  <property name="kdenlive:original.meta.attr.0.stream.vendor_id.markup">[0][0][0][0]</property>
  <property name="kdenlive:original.meta.attr.0.stream.encoder.markup">Lavc60.3.100 libx264</property>
  <property name="kdenlive:original.meta.attr.major_brand.markup">isom</property>
  <property name="kdenlive:original.meta.attr.minor_version.markup">512</property>
  <property name="kdenlive:original.meta.attr.compatible_brands.markup">isomiso2avc1mp41</property>
  <property name="kdenlive:original.meta.attr.encoder.markup">Lavf60.3.100</property>
  <property name="kdenlive:original.meta.attr.comment.markup">Rendered with Manim Community v0.17.2</property>
  <property name="kdenlive:original.seekable">1</property>
  <property name="kdenlive:original.width">3840</property>
  <property name="kdenlive:original.height">2160</property>
  <property name="kdenlive:original.meta.media.sample_aspect_num">1</property>
  <property name="kdenlive:original.meta.media.sample_aspect_den">1</property>
  <property name="kdenlive:original.aspect_ratio">1</property>
  <property name="kdenlive:original.format">3</property>
  <property name="kdenlive:original.audio_index">-1</property>
  <property name="kdenlive:original.video_index">0</property>
  <property name="kdenlive:original.mute_on_pause">0</property>
  <property name="kdenlive:original.mlt_service">avformat-novalidate</property>
  <property name="kdenlive:original.meta.media.frame_rate_num">60</property>
  <property name="kdenlive:original.meta.media.frame_rate_den">1</property>
  <property name="kdenlive:original.meta.media.colorspace">709</property>
  <property name="kdenlive:original.meta.media.color_trc">2</property>
  <property name="kdenlive:original.meta.media.has_b_frames">2</property>
  <property name="kdenlive:original.meta.media.width">3840</property>
  <property name="kdenlive:original.meta.media.height">2160</property>
  <property name="kdenlive:original.meta.media.color_range">mpeg</property>
  <property name="kdenlive:original.meta.media.top_field_first">0</property>
  <property name="kdenlive:original.meta.media.progressive">1</property>
  <property name="kdenlive:original.kdenlive:clip_type">2</property>
  <property name="kdenlive:original.kdenlive:folderid">599</property>
  <property name="kdenlive:original.kdenlive:id">603</property>
  <property name="kdenlive:original.kdenlive:file_size">432315</property>
  <property name="kdenlive:original.kdenlive:file_hash">79c19828077949630a48b8171413859c</property>
  <property name="kdenlive:original.backup">1</property>
  <property name="meta.media.frame_rate_num">60</property>
  <property name="meta.media.frame_rate_den">1</property>
  <property name="meta.media.colorspace">601</property>
  <property name="meta.media.color_trc">2</property>
  <property name="meta.media.has_b_frames">0</property>
  <property name="meta.media.width">640</property>
  <property name="meta.media.height">360</property>
  <property name="meta.media.color_range">full</property>
  <property name="meta.media.top_field_first">0</property>
  <property name="meta.media.progressive">1</property>
 </producer>
 <producer id="producer414" in="00:00:00.000" out="00:00:00.983">
  <property name="length">60</property>
  <property name="eof">pause</property>
  <property name="resource">/home/xiaoxiae/.cache/kdenlive/proxy/b3c8062a40373f3cd39ff8a725741cec.mkv</property>
  <property name="meta.media.nb_streams">1</property>
  <property name="meta.media.0.stream.type">video</property>
  <property name="meta.media.0.stream.frame_rate">60</property>
  <property name="meta.media.0.stream.sample_aspect_ratio">0</property>
  <property name="meta.media.0.codec.width">640</property>
  <property name="meta.media.0.codec.height">360</property>
  <property name="meta.media.0.codec.rotate">0</property>
  <property name="meta.media.0.codec.pix_fmt">yuvj420p</property>
  <property name="meta.media.0.codec.sample_aspect_ratio">0</property>
  <property name="meta.media.0.codec.colorspace">601</property>
  <property name="meta.media.0.codec.name">mjpeg</property>
  <property name="meta.media.0.codec.long_name">MJPEG (Motion JPEG)</property>
  <property name="meta.media.0.codec.bit_rate">0</property>
  <property name="meta.attr.0.stream.HANDLER_NAME.markup">VideoHandler</property>
  <property name="meta.attr.0.stream.VENDOR_ID.markup">[0][0][0][0]</property>
  <property name="meta.attr.0.stream.ENCODER.markup">Lavc60.3.100 mjpeg</property>
  <property name="meta.attr.0.stream.DURATION.markup">00:00:01.000000000</property>
  <property name="meta.attr.COMMENT.markup">Rendered with Manim Community v0.17.2</property>
  <property name="meta.attr.MAJOR_BRAND.markup">isom</property>
  <property name="meta.attr.MINOR_VERSION.markup">512</property>
  <property name="meta.attr.COMPATIBLE_BRANDS.markup">isomiso2avc1mp41</property>
  <property name="meta.attr.ENCODER.markup">Lavf60.3.100</property>
  <property name="seekable">1</property>
  <property name="meta.media.sample_aspect_num">1</property>
  <property name="meta.media.sample_aspect_den">1</property>
  <property name="aspect_ratio">1</property>
  <property name="format">3</property>
  <property name="audio_index">-1</property>
  <property name="video_index">0</property>
  <property name="mute_on_pause">0</property>
  <property name="mlt_service">avformat-novalidate</property>
  <property name="kdenlive:clipname">13.mp4</property>
  <property name="kdenlive:clip_type">2</property>
  <property name="kdenlive:folderid">599</property>
  <property name="kdenlive:id">493</property>
  <property name="kdenlive:file_size">66191</property>
  <property name="kdenlive:file_hash">b3c8062a40373f3cd39ff8a725741cec</property>
  <property name="kdenlive:proxy">/home/xiaoxiae/.cache/kdenlive/proxy/b3c8062a40373f3cd39ff8a725741cec.mkv</property>
  <property name="kdenlive:originalurl">video/SelectingAB/13.mp4</property>
  <property name="kdenlive:original.mlt_type">producer</property>
  <property name="kdenlive:original.in">00:00:00.000</property>
  <property name="kdenlive:original.out">00:00:00.983</property>
  <property name="kdenlive:original.length">60</property>
  <property name="kdenlive:original.eof">pause</property>
  <property name="kdenlive:original.resource">video/SelectingAB/13.mp4</property>
  <property name="kdenlive:original.meta.media.nb_streams">1</property>
  <property name="kdenlive:original.meta.media.0.stream.type">video</property>
  <property name="kdenlive:original.meta.media.0.stream.frame_rate">60</property>
  <property name="kdenlive:original.meta.media.0.stream.sample_aspect_ratio">0</property>
  <property name="kdenlive:original.meta.media.0.codec.width">3840</property>
  <property name="kdenlive:original.meta.media.0.codec.height">2160</property>
  <property name="kdenlive:original.meta.media.0.codec.rotate">0</property>
  <property name="kdenlive:original.meta.media.0.codec.pix_fmt">yuv420p</property>
  <property name="kdenlive:original.meta.media.0.codec.sample_aspect_ratio">0</property>
  <property name="kdenlive:original.meta.media.0.codec.colorspace">709</property>
  <property name="kdenlive:original.meta.media.0.codec.name">h264</property>
  <property name="kdenlive:original.meta.media.0.codec.long_name">H.264 / AVC / MPEG-4 AVC / MPEG-4 part 10</property>
  <property name="kdenlive:original.meta.media.0.codec.bit_rate">516480</property>
  <property name="kdenlive:original.meta.attr.0.stream.handler_name.markup">VideoHandler</property>
  <property name="kdenlive:original.meta.attr.0.stream.vendor_id.markup">[0][0][0][0]</property>
  <property name="kdenlive:original.meta.attr.0.stream.encoder.markup">Lavc60.3.100 libx264</property>
  <property name="kdenlive:original.meta.attr.major_brand.markup">isom</property>
  <property name="kdenlive:original.meta.attr.minor_version.markup">512</property>
  <property name="kdenlive:original.meta.attr.compatible_brands.markup">isomiso2avc1mp41</property>
  <property name="kdenlive:original.meta.attr.encoder.markup">Lavf60.3.100</property>
  <property name="kdenlive:original.meta.attr.comment.markup">Rendered with Manim Community v0.17.2</property>
  <property name="kdenlive:original.seekable">1</property>
  <property name="kdenlive:original.width">3840</property>
  <property name="kdenlive:original.height">2160</property>
  <property name="kdenlive:original.meta.media.sample_aspect_num">1</property>
  <property name="kdenlive:original.meta.media.sample_aspect_den">1</property>
  <property name="kdenlive:original.aspect_ratio">1</property>
  <property name="kdenlive:original.format">3</property>
  <property name="kdenlive:original.audio_index">-1</property>
  <property name="kdenlive:original.video_index">0</property>
  <property name="kdenlive:original.mute_on_pause">0</property>
  <property name="kdenlive:original.mlt_service">avformat-novalidate</property>
  <property name="kdenlive:original.meta.media.frame_rate_num">60</property>
  <property name="kdenlive:original.meta.media.frame_rate_den">1</property>
  <property name="kdenlive:original.meta.media.colorspace">709</property>
  <property name="kdenlive:original.meta.media.color_trc">2</property>
  <property name="kdenlive:original.meta.media.has_b_frames">2</property>
  <property name="kdenlive:original.meta.media.width">3840</property>
  <property name="kdenlive:original.meta.media.height">2160</property>
  <property name="kdenlive:original.meta.media.color_range">mpeg</property>
  <property name="kdenlive:original.meta.media.top_field_first">0</property>
  <property name="kdenlive:original.meta.media.progressive">1</property>
  <property name="kdenlive:original.kdenlive:clip_type">2</property>
  <property name="kdenlive:original.kdenlive:folderid">599</property>
  <property name="kdenlive:original.kdenlive:id">604</property>
  <property name="kdenlive:original.kdenlive:file_size">66191</property>
  <property name="kdenlive:original.kdenlive:file_hash">b3c8062a40373f3cd39ff8a725741cec</property>
  <property name="kdenlive:original.backup">1</property>
  <property name="meta.media.frame_rate_num">60</property>
  <property name="meta.media.frame_rate_den">1</property>
  <property name="meta.media.colorspace">601</property>
  <property name="meta.media.color_trc">2</property>
  <property name="meta.media.has_b_frames">0</property>
  <property name="meta.media.width">640</property>
  <property name="meta.media.height">360</property>
  <property name="meta.media.color_range">full</property>
  <property name="meta.media.top_field_first">0</property>
  <property name="meta.media.progressive">1</property>
 </producer>
 <producer id="producer415" in="00:00:00.000" out="00:00:00.983">
  <property name="length">60</property>
  <property name="eof">pause</property>
  <property name="resource">/home/xiaoxiae/.cache/kdenlive/proxy/bbf4051409b26d90011bff1d45486b54.mkv</property>
  <property name="meta.media.nb_streams">1</property>
  <property name="meta.media.0.stream.type">video</property>
  <property name="meta.media.0.stream.frame_rate">60</property>
  <property name="meta.media.0.stream.sample_aspect_ratio">0</property>
  <property name="meta.media.0.codec.width">640</property>
  <property name="meta.media.0.codec.height">360</property>
  <property name="meta.media.0.codec.rotate">0</property>
  <property name="meta.media.0.codec.pix_fmt">yuvj420p</property>
  <property name="meta.media.0.codec.sample_aspect_ratio">0</property>
  <property name="meta.media.0.codec.colorspace">601</property>
  <property name="meta.media.0.codec.name">mjpeg</property>
  <property name="meta.media.0.codec.long_name">MJPEG (Motion JPEG)</property>
  <property name="meta.media.0.codec.bit_rate">0</property>
  <property name="meta.attr.0.stream.HANDLER_NAME.markup">VideoHandler</property>
  <property name="meta.attr.0.stream.VENDOR_ID.markup">[0][0][0][0]</property>
  <property name="meta.attr.0.stream.ENCODER.markup">Lavc60.3.100 mjpeg</property>
  <property name="meta.attr.0.stream.DURATION.markup">00:00:01.000000000</property>
  <property name="meta.attr.COMMENT.markup">Rendered with Manim Community v0.17.2</property>
  <property name="meta.attr.MAJOR_BRAND.markup">isom</property>
  <property name="meta.attr.MINOR_VERSION.markup">512</property>
  <property name="meta.attr.COMPATIBLE_BRANDS.markup">isomiso2avc1mp41</property>
  <property name="meta.attr.ENCODER.markup">Lavf60.3.100</property>
  <property name="seekable">1</property>
  <property name="meta.media.sample_aspect_num">1</property>
  <property name="meta.media.sample_aspect_den">1</property>
  <property name="aspect_ratio">1</property>
  <property name="format">3</property>
  <property name="audio_index">-1</property>
  <property name="video_index">0</property>
  <property name="mute_on_pause">0</property>
  <property name="mlt_service">avformat-novalidate</property>
  <property name="kdenlive:clipname">14.mp4</property>
  <property name="kdenlive:clip_type">2</property>
  <property name="kdenlive:folderid">599</property>
  <property name="kdenlive:id">494</property>
  <property name="kdenlive:file_size">63856</property>
  <property name="kdenlive:file_hash">bbf4051409b26d90011bff1d45486b54</property>
  <property name="kdenlive:proxy">/home/xiaoxiae/.cache/kdenlive/proxy/bbf4051409b26d90011bff1d45486b54.mkv</property>
  <property name="kdenlive:originalurl">video/SelectingAB/14.mp4</property>
  <property name="kdenlive:original.mlt_type">producer</property>
  <property name="kdenlive:original.in">00:00:00.000</property>
  <property name="kdenlive:original.out">00:00:00.983</property>
  <property name="kdenlive:original.length">60</property>
  <property name="kdenlive:original.eof">pause</property>
  <property name="kdenlive:original.resource">video/SelectingAB/14.mp4</property>
  <property name="kdenlive:original.meta.media.nb_streams">1</property>
  <property name="kdenlive:original.meta.media.0.stream.type">video</property>
  <property name="kdenlive:original.meta.media.0.stream.frame_rate">60</property>
  <property name="kdenlive:original.meta.media.0.stream.sample_aspect_ratio">0</property>
  <property name="kdenlive:original.meta.media.0.codec.width">3840</property>
  <property name="kdenlive:original.meta.media.0.codec.height">2160</property>
  <property name="kdenlive:original.meta.media.0.codec.rotate">0</property>
  <property name="kdenlive:original.meta.media.0.codec.pix_fmt">yuv420p</property>
  <property name="kdenlive:original.meta.media.0.codec.sample_aspect_ratio">0</property>
  <property name="kdenlive:original.meta.media.0.codec.colorspace">709</property>
  <property name="kdenlive:original.meta.media.0.codec.name">h264</property>
  <property name="kdenlive:original.meta.media.0.codec.long_name">H.264 / AVC / MPEG-4 AVC / MPEG-4 part 10</property>
  <property name="kdenlive:original.meta.media.0.codec.bit_rate">497800</property>
  <property name="kdenlive:original.meta.attr.0.stream.handler_name.markup">VideoHandler</property>
  <property name="kdenlive:original.meta.attr.0.stream.vendor_id.markup">[0][0][0][0]</property>
  <property name="kdenlive:original.meta.attr.0.stream.encoder.markup">Lavc60.3.100 libx264</property>
  <property name="kdenlive:original.meta.attr.major_brand.markup">isom</property>
  <property name="kdenlive:original.meta.attr.minor_version.markup">512</property>
  <property name="kdenlive:original.meta.attr.compatible_brands.markup">isomiso2avc1mp41</property>
  <property name="kdenlive:original.meta.attr.encoder.markup">Lavf60.3.100</property>
  <property name="kdenlive:original.meta.attr.comment.markup">Rendered with Manim Community v0.17.2</property>
  <property name="kdenlive:original.seekable">1</property>
  <property name="kdenlive:original.width">3840</property>
  <property name="kdenlive:original.height">2160</property>
  <property name="kdenlive:original.meta.media.sample_aspect_num">1</property>
  <property name="kdenlive:original.meta.media.sample_aspect_den">1</property>
  <property name="kdenlive:original.aspect_ratio">1</property>
  <property name="kdenlive:original.format">3</property>
  <property name="kdenlive:original.audio_index">-1</property>
  <property name="kdenlive:original.video_index">0</property>
  <property name="kdenlive:original.mute_on_pause">0</property>
  <property name="kdenlive:original.mlt_service">avformat-novalidate</property>
  <property name="kdenlive:original.meta.media.frame_rate_num">60</property>
  <property name="kdenlive:original.meta.media.frame_rate_den">1</property>
  <property name="kdenlive:original.meta.media.colorspace">709</property>
  <property name="kdenlive:original.meta.media.color_trc">2</property>
  <property name="kdenlive:original.meta.media.has_b_frames">2</property>
  <property name="kdenlive:original.meta.media.width">3840</property>
  <property name="kdenlive:original.meta.media.height">2160</property>
  <property name="kdenlive:original.meta.media.color_range">mpeg</property>
  <property name="kdenlive:original.meta.media.top_field_first">0</property>
  <property name="kdenlive:original.meta.media.progressive">1</property>
  <property name="kdenlive:original.kdenlive:clip_type">2</property>
  <property name="kdenlive:original.kdenlive:folderid">599</property>
  <property name="kdenlive:original.kdenlive:id">605</property>
  <property name="kdenlive:original.kdenlive:file_size">63856</property>
  <property name="kdenlive:original.kdenlive:file_hash">bbf4051409b26d90011bff1d45486b54</property>
  <property name="kdenlive:original.backup">1</property>
  <property name="meta.media.frame_rate_num">60</property>
  <property name="meta.media.frame_rate_den">1</property>
  <property name="meta.media.colorspace">601</property>
  <property name="meta.media.color_trc">2</property>
  <property name="meta.media.has_b_frames">0</property>
  <property name="meta.media.width">640</property>
  <property name="meta.media.height">360</property>
  <property name="meta.media.color_range">full</property>
  <property name="meta.media.top_field_first">0</property>
  <property name="meta.media.progressive">1</property>
 </producer>
 <producer id="producer416" in="00:00:00.000" out="00:00:01.233">
  <property name="length">75</property>
  <property name="eof">pause</property>
  <property name="resource">/home/xiaoxiae/.cache/kdenlive/proxy/1189d7342a0e24c6fedbe5becff9e258.mkv</property>
  <property name="meta.media.nb_streams">1</property>
  <property name="meta.media.0.stream.type">video</property>
  <property name="meta.media.0.stream.frame_rate">60</property>
  <property name="meta.media.0.stream.sample_aspect_ratio">0</property>
  <property name="meta.media.0.codec.width">640</property>
  <property name="meta.media.0.codec.height">360</property>
  <property name="meta.media.0.codec.rotate">0</property>
  <property name="meta.media.0.codec.pix_fmt">yuvj420p</property>
  <property name="meta.media.0.codec.sample_aspect_ratio">0</property>
  <property name="meta.media.0.codec.colorspace">601</property>
  <property name="meta.media.0.codec.name">mjpeg</property>
  <property name="meta.media.0.codec.long_name">MJPEG (Motion JPEG)</property>
  <property name="meta.media.0.codec.bit_rate">0</property>
  <property name="meta.attr.0.stream.HANDLER_NAME.markup">VideoHandler</property>
  <property name="meta.attr.0.stream.VENDOR_ID.markup">[0][0][0][0]</property>
  <property name="meta.attr.0.stream.ENCODER.markup">Lavc60.3.100 mjpeg</property>
  <property name="meta.attr.0.stream.DURATION.markup">00:00:01.250000000</property>
  <property name="meta.attr.COMMENT.markup">Rendered with Manim Community v0.17.2</property>
  <property name="meta.attr.MAJOR_BRAND.markup">isom</property>
  <property name="meta.attr.MINOR_VERSION.markup">512</property>
  <property name="meta.attr.COMPATIBLE_BRANDS.markup">isomiso2avc1mp41</property>
  <property name="meta.attr.ENCODER.markup">Lavf60.3.100</property>
  <property name="seekable">1</property>
  <property name="meta.media.sample_aspect_num">1</property>
  <property name="meta.media.sample_aspect_den">1</property>
  <property name="aspect_ratio">1</property>
  <property name="format">3</property>
  <property name="audio_index">-1</property>
  <property name="video_index">0</property>
  <property name="mute_on_pause">0</property>
  <property name="mlt_service">avformat-novalidate</property>
  <property name="kdenlive:clipname">15.mp4</property>
  <property name="kdenlive:clip_type">2</property>
  <property name="kdenlive:folderid">599</property>
  <property name="kdenlive:id">495</property>
  <property name="kdenlive:file_size">407038</property>
  <property name="kdenlive:file_hash">1189d7342a0e24c6fedbe5becff9e258</property>
  <property name="kdenlive:proxy">/home/xiaoxiae/.cache/kdenlive/proxy/1189d7342a0e24c6fedbe5becff9e258.mkv</property>
  <property name="kdenlive:originalurl">video/SelectingAB/15.mp4</property>
  <property name="kdenlive:original.mlt_type">producer</property>
  <property name="kdenlive:original.in">00:00:00.000</property>
  <property name="kdenlive:original.out">00:00:01.233</property>
  <property name="kdenlive:original.length">75</property>
  <property name="kdenlive:original.eof">pause</property>
  <property name="kdenlive:original.resource">video/SelectingAB/15.mp4</property>
  <property name="kdenlive:original.meta.media.nb_streams">1</property>
  <property name="kdenlive:original.meta.media.0.stream.type">video</property>
  <property name="kdenlive:original.meta.media.0.stream.frame_rate">60</property>
  <property name="kdenlive:original.meta.media.0.stream.sample_aspect_ratio">0</property>
  <property name="kdenlive:original.meta.media.0.codec.width">3840</property>
  <property name="kdenlive:original.meta.media.0.codec.height">2160</property>
  <property name="kdenlive:original.meta.media.0.codec.rotate">0</property>
  <property name="kdenlive:original.meta.media.0.codec.pix_fmt">yuv420p</property>
  <property name="kdenlive:original.meta.media.0.codec.sample_aspect_ratio">0</property>
  <property name="kdenlive:original.meta.media.0.codec.colorspace">709</property>
  <property name="kdenlive:original.meta.media.0.codec.name">h264</property>
  <property name="kdenlive:original.meta.media.0.codec.long_name">H.264 / AVC / MPEG-4 AVC / MPEG-4 part 10</property>
  <property name="kdenlive:original.meta.media.0.codec.bit_rate">2595552</property>
  <property name="kdenlive:original.meta.attr.0.stream.handler_name.markup">VideoHandler</property>
  <property name="kdenlive:original.meta.attr.0.stream.vendor_id.markup">[0][0][0][0]</property>
  <property name="kdenlive:original.meta.attr.0.stream.encoder.markup">Lavc60.3.100 libx264</property>
  <property name="kdenlive:original.meta.attr.major_brand.markup">isom</property>
  <property name="kdenlive:original.meta.attr.minor_version.markup">512</property>
  <property name="kdenlive:original.meta.attr.compatible_brands.markup">isomiso2avc1mp41</property>
  <property name="kdenlive:original.meta.attr.encoder.markup">Lavf60.3.100</property>
  <property name="kdenlive:original.meta.attr.comment.markup">Rendered with Manim Community v0.17.2</property>
  <property name="kdenlive:original.seekable">1</property>
  <property name="kdenlive:original.width">3840</property>
  <property name="kdenlive:original.height">2160</property>
  <property name="kdenlive:original.meta.media.sample_aspect_num">1</property>
  <property name="kdenlive:original.meta.media.sample_aspect_den">1</property>
  <property name="kdenlive:original.aspect_ratio">1</property>
  <property name="kdenlive:original.format">3</property>
  <property name="kdenlive:original.audio_index">-1</property>
  <property name="kdenlive:original.video_index">0</property>
  <property name="kdenlive:original.mute_on_pause">0</property>
  <property name="kdenlive:original.mlt_service">avformat-novalidate</property>
  <property name="kdenlive:original.meta.media.frame_rate_num">60</property>
  <property name="kdenlive:original.meta.media.frame_rate_den">1</property>
  <property name="kdenlive:original.meta.media.colorspace">709</property>
  <property name="kdenlive:original.meta.media.color_trc">2</property>
  <property name="kdenlive:original.meta.media.has_b_frames">2</property>
  <property name="kdenlive:original.meta.media.width">3840</property>
  <property name="kdenlive:original.meta.media.height">2160</property>
  <property name="kdenlive:original.meta.media.color_range">mpeg</property>
  <property name="kdenlive:original.meta.media.top_field_first">0</property>
  <property name="kdenlive:original.meta.media.progressive">1</property>
  <property name="kdenlive:original.kdenlive:clip_type">2</property>
  <property name="kdenlive:original.kdenlive:folderid">599</property>
  <property name="kdenlive:original.kdenlive:id">606</property>
  <property name="kdenlive:original.kdenlive:file_size">407038</property>
  <property name="kdenlive:original.kdenlive:file_hash">1189d7342a0e24c6fedbe5becff9e258</property>
  <property name="kdenlive:original.backup">1</property>
  <property name="meta.media.frame_rate_num">60</property>
  <property name="meta.media.frame_rate_den">1</property>
  <property name="meta.media.colorspace">601</property>
  <property name="meta.media.color_trc">2</property>
  <property name="meta.media.has_b_frames">0</property>
  <property name="meta.media.width">640</property>
  <property name="meta.media.height">360</property>
  <property name="meta.media.color_range">full</property>
  <property name="meta.media.top_field_first">0</property>
  <property name="meta.media.progressive">1</property>
 </producer>
 <producer id="producer417" in="00:00:00.000" out="00:00:02.067">
  <property name="length">125</property>
  <property name="eof">pause</property>
  <property name="resource">/home/xiaoxiae/.cache/kdenlive/proxy/a973b4e37d00d6b485631ebaf3583f30.mkv</property>
  <property name="meta.media.nb_streams">1</property>
  <property name="meta.media.0.stream.type">video</property>
  <property name="meta.media.0.stream.frame_rate">60</property>
  <property name="meta.media.0.stream.sample_aspect_ratio">0</property>
  <property name="meta.media.0.codec.width">640</property>
  <property name="meta.media.0.codec.height">360</property>
  <property name="meta.media.0.codec.rotate">0</property>
  <property name="meta.media.0.codec.pix_fmt">yuvj420p</property>
  <property name="meta.media.0.codec.sample_aspect_ratio">0</property>
  <property name="meta.media.0.codec.colorspace">601</property>
  <property name="meta.media.0.codec.name">mjpeg</property>
  <property name="meta.media.0.codec.long_name">MJPEG (Motion JPEG)</property>
  <property name="meta.media.0.codec.bit_rate">0</property>
  <property name="meta.attr.0.stream.HANDLER_NAME.markup">VideoHandler</property>
  <property name="meta.attr.0.stream.VENDOR_ID.markup">[0][0][0][0]</property>
  <property name="meta.attr.0.stream.ENCODER.markup">Lavc60.3.100 mjpeg</property>
  <property name="meta.attr.0.stream.DURATION.markup">00:00:02.084000000</property>
  <property name="meta.attr.COMMENT.markup">Rendered with Manim Community v0.17.2</property>
  <property name="meta.attr.MAJOR_BRAND.markup">isom</property>
  <property name="meta.attr.MINOR_VERSION.markup">512</property>
  <property name="meta.attr.COMPATIBLE_BRANDS.markup">isomiso2avc1mp41</property>
  <property name="meta.attr.ENCODER.markup">Lavf60.3.100</property>
  <property name="seekable">1</property>
  <property name="meta.media.sample_aspect_num">1</property>
  <property name="meta.media.sample_aspect_den">1</property>
  <property name="aspect_ratio">1</property>
  <property name="format">3</property>
  <property name="audio_index">-1</property>
  <property name="video_index">0</property>
  <property name="mute_on_pause">0</property>
  <property name="mlt_service">avformat-novalidate</property>
  <property name="kdenlive:clipname">16.mp4</property>
  <property name="kdenlive:clip_type">2</property>
  <property name="kdenlive:folderid">599</property>
  <property name="kdenlive:id">496</property>
  <property name="kdenlive:file_size">165110</property>
  <property name="kdenlive:file_hash">a973b4e37d00d6b485631ebaf3583f30</property>
  <property name="kdenlive:proxy">/home/xiaoxiae/.cache/kdenlive/proxy/a973b4e37d00d6b485631ebaf3583f30.mkv</property>
  <property name="kdenlive:originalurl">video/SelectingAB/16.mp4</property>
  <property name="kdenlive:original.mlt_type">producer</property>
  <property name="kdenlive:original.in">00:00:00.000</property>
  <property name="kdenlive:original.out">00:00:02.067</property>
  <property name="kdenlive:original.length">125</property>
  <property name="kdenlive:original.eof">pause</property>
  <property name="kdenlive:original.resource">video/SelectingAB/16.mp4</property>
  <property name="kdenlive:original.meta.media.nb_streams">1</property>
  <property name="kdenlive:original.meta.media.0.stream.type">video</property>
  <property name="kdenlive:original.meta.media.0.stream.frame_rate">60</property>
  <property name="kdenlive:original.meta.media.0.stream.sample_aspect_ratio">0</property>
  <property name="kdenlive:original.meta.media.0.codec.width">3840</property>
  <property name="kdenlive:original.meta.media.0.codec.height">2160</property>
  <property name="kdenlive:original.meta.media.0.codec.rotate">0</property>
  <property name="kdenlive:original.meta.media.0.codec.pix_fmt">yuv420p</property>
  <property name="kdenlive:original.meta.media.0.codec.sample_aspect_ratio">0</property>
  <property name="kdenlive:original.meta.media.0.codec.colorspace">709</property>
  <property name="kdenlive:original.meta.media.0.codec.name">h264</property>
  <property name="kdenlive:original.meta.media.0.codec.long_name">H.264 / AVC / MPEG-4 AVC / MPEG-4 part 10</property>
  <property name="kdenlive:original.meta.media.0.codec.bit_rate">624733</property>
  <property name="kdenlive:original.meta.attr.0.stream.handler_name.markup">VideoHandler</property>
  <property name="kdenlive:original.meta.attr.0.stream.vendor_id.markup">[0][0][0][0]</property>
  <property name="kdenlive:original.meta.attr.0.stream.encoder.markup">Lavc60.3.100 libx264</property>
  <property name="kdenlive:original.meta.attr.major_brand.markup">isom</property>
  <property name="kdenlive:original.meta.attr.minor_version.markup">512</property>
  <property name="kdenlive:original.meta.attr.compatible_brands.markup">isomiso2avc1mp41</property>
  <property name="kdenlive:original.meta.attr.encoder.markup">Lavf60.3.100</property>
  <property name="kdenlive:original.meta.attr.comment.markup">Rendered with Manim Community v0.17.2</property>
  <property name="kdenlive:original.seekable">1</property>
  <property name="kdenlive:original.width">3840</property>
  <property name="kdenlive:original.height">2160</property>
  <property name="kdenlive:original.meta.media.sample_aspect_num">1</property>
  <property name="kdenlive:original.meta.media.sample_aspect_den">1</property>
  <property name="kdenlive:original.aspect_ratio">1</property>
  <property name="kdenlive:original.format">3</property>
  <property name="kdenlive:original.audio_index">-1</property>
  <property name="kdenlive:original.video_index">0</property>
  <property name="kdenlive:original.mute_on_pause">0</property>
  <property name="kdenlive:original.mlt_service">avformat-novalidate</property>
  <property name="kdenlive:original.meta.media.frame_rate_num">60</property>
  <property name="kdenlive:original.meta.media.frame_rate_den">1</property>
  <property name="kdenlive:original.meta.media.colorspace">709</property>
  <property name="kdenlive:original.meta.media.color_trc">2</property>
  <property name="kdenlive:original.meta.media.has_b_frames">2</property>
  <property name="kdenlive:original.meta.media.width">3840</property>
  <property name="kdenlive:original.meta.media.height">2160</property>
  <property name="kdenlive:original.meta.media.color_range">mpeg</property>
  <property name="kdenlive:original.meta.media.top_field_first">0</property>
  <property name="kdenlive:original.meta.media.progressive">1</property>
  <property name="kdenlive:original.kdenlive:clip_type">2</property>
  <property name="kdenlive:original.kdenlive:folderid">599</property>
  <property name="kdenlive:original.kdenlive:id">607</property>
  <property name="kdenlive:original.kdenlive:file_size">165110</property>
  <property name="kdenlive:original.kdenlive:file_hash">a973b4e37d00d6b485631ebaf3583f30</property>
  <property name="kdenlive:original.backup">1</property>
  <property name="meta.media.frame_rate_num">60</property>
  <property name="meta.media.frame_rate_den">1</property>
  <property name="meta.media.colorspace">601</property>
  <property name="meta.media.color_trc">2</property>
  <property name="meta.media.has_b_frames">0</property>
  <property name="meta.media.width">640</property>
  <property name="meta.media.height">360</property>
  <property name="meta.media.color_range">full</property>
  <property name="meta.media.top_field_first">0</property>
  <property name="meta.media.progressive">1</property>
 </producer>
 <producer id="producer418" in="00:00:00.000" out="00:00:01.633">
  <property name="length">99</property>
  <property name="eof">pause</property>
  <property name="resource">/home/xiaoxiae/.cache/kdenlive/proxy/9cb548a864e5bd96ad04c102b07e57cf.mkv</property>
  <property name="meta.media.nb_streams">1</property>
  <property name="meta.media.0.stream.type">video</property>
  <property name="meta.media.0.stream.frame_rate">60</property>
  <property name="meta.media.0.stream.sample_aspect_ratio">0</property>
  <property name="meta.media.0.codec.width">640</property>
  <property name="meta.media.0.codec.height">360</property>
  <property name="meta.media.0.codec.rotate">0</property>
  <property name="meta.media.0.codec.pix_fmt">yuvj420p</property>
  <property name="meta.media.0.codec.sample_aspect_ratio">0</property>
  <property name="meta.media.0.codec.colorspace">601</property>
  <property name="meta.media.0.codec.name">mjpeg</property>
  <property name="meta.media.0.codec.long_name">MJPEG (Motion JPEG)</property>
  <property name="meta.media.0.codec.bit_rate">0</property>
  <property name="meta.attr.0.stream.HANDLER_NAME.markup">VideoHandler</property>
  <property name="meta.attr.0.stream.VENDOR_ID.markup">[0][0][0][0]</property>
  <property name="meta.attr.0.stream.ENCODER.markup">Lavc60.3.100 mjpeg</property>
  <property name="meta.attr.0.stream.DURATION.markup">00:00:01.650000000</property>
  <property name="meta.attr.COMMENT.markup">Rendered with Manim Community v0.17.2</property>
  <property name="meta.attr.MAJOR_BRAND.markup">isom</property>
  <property name="meta.attr.MINOR_VERSION.markup">512</property>
  <property name="meta.attr.COMPATIBLE_BRANDS.markup">isomiso2avc1mp41</property>
  <property name="meta.attr.ENCODER.markup">Lavf60.3.100</property>
  <property name="seekable">1</property>
  <property name="meta.media.sample_aspect_num">1</property>
  <property name="meta.media.sample_aspect_den">1</property>
  <property name="aspect_ratio">1</property>
  <property name="format">3</property>
  <property name="audio_index">-1</property>
  <property name="video_index">0</property>
  <property name="mute_on_pause">0</property>
  <property name="mlt_service">avformat-novalidate</property>
  <property name="kdenlive:clipname">17.mp4</property>
  <property name="kdenlive:clip_type">2</property>
  <property name="kdenlive:folderid">599</property>
  <property name="kdenlive:id">497</property>
  <property name="kdenlive:file_size">835047</property>
  <property name="kdenlive:file_hash">9cb548a864e5bd96ad04c102b07e57cf</property>
  <property name="kdenlive:proxy">/home/xiaoxiae/.cache/kdenlive/proxy/9cb548a864e5bd96ad04c102b07e57cf.mkv</property>
  <property name="kdenlive:originalurl">video/SelectingAB/17.mp4</property>
  <property name="kdenlive:original.mlt_type">producer</property>
  <property name="kdenlive:original.in">00:00:00.000</property>
  <property name="kdenlive:original.out">00:00:01.633</property>
  <property name="kdenlive:original.length">99</property>
  <property name="kdenlive:original.eof">pause</property>
  <property name="kdenlive:original.resource">video/SelectingAB/17.mp4</property>
  <property name="kdenlive:original.meta.media.nb_streams">1</property>
  <property name="kdenlive:original.meta.media.0.stream.type">video</property>
  <property name="kdenlive:original.meta.media.0.stream.frame_rate">60</property>
  <property name="kdenlive:original.meta.media.0.stream.sample_aspect_ratio">0</property>
  <property name="kdenlive:original.meta.media.0.codec.width">3840</property>
  <property name="kdenlive:original.meta.media.0.codec.height">2160</property>
  <property name="kdenlive:original.meta.media.0.codec.rotate">0</property>
  <property name="kdenlive:original.meta.media.0.codec.pix_fmt">yuv420p</property>
  <property name="kdenlive:original.meta.media.0.codec.sample_aspect_ratio">0</property>
  <property name="kdenlive:original.meta.media.0.codec.colorspace">709</property>
  <property name="kdenlive:original.meta.media.0.codec.name">h264</property>
  <property name="kdenlive:original.meta.media.0.codec.long_name">H.264 / AVC / MPEG-4 AVC / MPEG-4 part 10</property>
  <property name="kdenlive:original.meta.media.0.codec.bit_rate">4039311</property>
  <property name="kdenlive:original.meta.attr.0.stream.handler_name.markup">VideoHandler</property>
  <property name="kdenlive:original.meta.attr.0.stream.vendor_id.markup">[0][0][0][0]</property>
  <property name="kdenlive:original.meta.attr.0.stream.encoder.markup">Lavc60.3.100 libx264</property>
  <property name="kdenlive:original.meta.attr.major_brand.markup">isom</property>
  <property name="kdenlive:original.meta.attr.minor_version.markup">512</property>
  <property name="kdenlive:original.meta.attr.compatible_brands.markup">isomiso2avc1mp41</property>
  <property name="kdenlive:original.meta.attr.encoder.markup">Lavf60.3.100</property>
  <property name="kdenlive:original.meta.attr.comment.markup">Rendered with Manim Community v0.17.2</property>
  <property name="kdenlive:original.seekable">1</property>
  <property name="kdenlive:original.width">3840</property>
  <property name="kdenlive:original.height">2160</property>
  <property name="kdenlive:original.meta.media.sample_aspect_num">1</property>
  <property name="kdenlive:original.meta.media.sample_aspect_den">1</property>
  <property name="kdenlive:original.aspect_ratio">1</property>
  <property name="kdenlive:original.format">3</property>
  <property name="kdenlive:original.audio_index">-1</property>
  <property name="kdenlive:original.video_index">0</property>
  <property name="kdenlive:original.mute_on_pause">0</property>
  <property name="kdenlive:original.mlt_service">avformat-novalidate</property>
  <property name="kdenlive:original.meta.media.frame_rate_num">60</property>
  <property name="kdenlive:original.meta.media.frame_rate_den">1</property>
  <property name="kdenlive:original.meta.media.colorspace">709</property>
  <property name="kdenlive:original.meta.media.color_trc">2</property>
  <property name="kdenlive:original.meta.media.has_b_frames">2</property>
  <property name="kdenlive:original.meta.media.width">3840</property>
  <property name="kdenlive:original.meta.media.height">2160</property>
  <property name="kdenlive:original.meta.media.color_range">mpeg</property>
  <property name="kdenlive:original.meta.media.top_field_first">0</property>
  <property name="kdenlive:original.meta.media.progressive">1</property>
  <property name="kdenlive:original.kdenlive:clip_type">2</property>
  <property name="kdenlive:original.kdenlive:folderid">599</property>
  <property name="kdenlive:original.kdenlive:id">608</property>
  <property name="kdenlive:original.kdenlive:file_size">835047</property>
  <property name="kdenlive:original.kdenlive:file_hash">9cb548a864e5bd96ad04c102b07e57cf</property>
  <property name="kdenlive:original.backup">1</property>
  <property name="meta.media.frame_rate_num">60</property>
  <property name="meta.media.frame_rate_den">1</property>
  <property name="meta.media.colorspace">601</property>
  <property name="meta.media.color_trc">2</property>
  <property name="meta.media.has_b_frames">0</property>
  <property name="meta.media.width">640</property>
  <property name="meta.media.height">360</property>
  <property name="meta.media.color_range">full</property>
  <property name="meta.media.top_field_first">0</property>
  <property name="meta.media.progressive">1</property>
 </producer>
 <producer id="producer419" in="00:00:00.000" out="00:00:00.983">
  <property name="length">60</property>
  <property name="eof">pause</property>
  <property name="resource">/home/xiaoxiae/.cache/kdenlive/proxy/1adf55896ecc0489d65380d4c8d71e3a.mkv</property>
  <property name="meta.media.nb_streams">1</property>
  <property name="meta.media.0.stream.type">video</property>
  <property name="meta.media.0.stream.frame_rate">60</property>
  <property name="meta.media.0.stream.sample_aspect_ratio">0</property>
  <property name="meta.media.0.codec.width">640</property>
  <property name="meta.media.0.codec.height">360</property>
  <property name="meta.media.0.codec.rotate">0</property>
  <property name="meta.media.0.codec.pix_fmt">yuvj420p</property>
  <property name="meta.media.0.codec.sample_aspect_ratio">0</property>
  <property name="meta.media.0.codec.colorspace">601</property>
  <property name="meta.media.0.codec.name">mjpeg</property>
  <property name="meta.media.0.codec.long_name">MJPEG (Motion JPEG)</property>
  <property name="meta.media.0.codec.bit_rate">0</property>
  <property name="meta.attr.0.stream.HANDLER_NAME.markup">VideoHandler</property>
  <property name="meta.attr.0.stream.VENDOR_ID.markup">[0][0][0][0]</property>
  <property name="meta.attr.0.stream.ENCODER.markup">Lavc60.3.100 mjpeg</property>
  <property name="meta.attr.0.stream.DURATION.markup">00:00:01.000000000</property>
  <property name="meta.attr.COMMENT.markup">Rendered with Manim Community v0.17.2</property>
  <property name="meta.attr.MAJOR_BRAND.markup">isom</property>
  <property name="meta.attr.MINOR_VERSION.markup">512</property>
  <property name="meta.attr.COMPATIBLE_BRANDS.markup">isomiso2avc1mp41</property>
  <property name="meta.attr.ENCODER.markup">Lavf60.3.100</property>
  <property name="seekable">1</property>
  <property name="meta.media.sample_aspect_num">1</property>
  <property name="meta.media.sample_aspect_den">1</property>
  <property name="aspect_ratio">1</property>
  <property name="format">3</property>
  <property name="audio_index">-1</property>
  <property name="video_index">0</property>
  <property name="mute_on_pause">0</property>
  <property name="mlt_service">avformat-novalidate</property>
  <property name="kdenlive:clipname">18.mp4</property>
  <property name="kdenlive:clip_type">2</property>
  <property name="kdenlive:folderid">599</property>
  <property name="kdenlive:id">498</property>
  <property name="kdenlive:file_size">766635</property>
  <property name="kdenlive:file_hash">1adf55896ecc0489d65380d4c8d71e3a</property>
  <property name="kdenlive:proxy">/home/xiaoxiae/.cache/kdenlive/proxy/1adf55896ecc0489d65380d4c8d71e3a.mkv</property>
  <property name="kdenlive:originalurl">video/SelectingAB/18.mp4</property>
  <property name="kdenlive:original.mlt_type">producer</property>
  <property name="kdenlive:original.in">00:00:00.000</property>
  <property name="kdenlive:original.out">00:00:00.983</property>
  <property name="kdenlive:original.length">60</property>
  <property name="kdenlive:original.eof">pause</property>
  <property name="kdenlive:original.resource">video/SelectingAB/18.mp4</property>
  <property name="kdenlive:original.meta.media.nb_streams">1</property>
  <property name="kdenlive:original.meta.media.0.stream.type">video</property>
  <property name="kdenlive:original.meta.media.0.stream.frame_rate">60</property>
  <property name="kdenlive:original.meta.media.0.stream.sample_aspect_ratio">0</property>
  <property name="kdenlive:original.meta.media.0.codec.width">3840</property>
  <property name="kdenlive:original.meta.media.0.codec.height">2160</property>
  <property name="kdenlive:original.meta.media.0.codec.rotate">0</property>
  <property name="kdenlive:original.meta.media.0.codec.pix_fmt">yuv420p</property>
  <property name="kdenlive:original.meta.media.0.codec.sample_aspect_ratio">0</property>
  <property name="kdenlive:original.meta.media.0.codec.colorspace">709</property>
  <property name="kdenlive:original.meta.media.0.codec.name">h264</property>
  <property name="kdenlive:original.meta.media.0.codec.long_name">H.264 / AVC / MPEG-4 AVC / MPEG-4 part 10</property>
  <property name="kdenlive:original.meta.media.0.codec.bit_rate">6122272</property>
  <property name="kdenlive:original.meta.attr.0.stream.handler_name.markup">VideoHandler</property>
  <property name="kdenlive:original.meta.attr.0.stream.vendor_id.markup">[0][0][0][0]</property>
  <property name="kdenlive:original.meta.attr.0.stream.encoder.markup">Lavc60.3.100 libx264</property>
  <property name="kdenlive:original.meta.attr.major_brand.markup">isom</property>
  <property name="kdenlive:original.meta.attr.minor_version.markup">512</property>
  <property name="kdenlive:original.meta.attr.compatible_brands.markup">isomiso2avc1mp41</property>
  <property name="kdenlive:original.meta.attr.encoder.markup">Lavf60.3.100</property>
  <property name="kdenlive:original.meta.attr.comment.markup">Rendered with Manim Community v0.17.2</property>
  <property name="kdenlive:original.seekable">1</property>
  <property name="kdenlive:original.width">3840</property>
  <property name="kdenlive:original.height">2160</property>
  <property name="kdenlive:original.meta.media.sample_aspect_num">1</property>
  <property name="kdenlive:original.meta.media.sample_aspect_den">1</property>
  <property name="kdenlive:original.aspect_ratio">1</property>
  <property name="kdenlive:original.format">3</property>
  <property name="kdenlive:original.audio_index">-1</property>
  <property name="kdenlive:original.video_index">0</property>
  <property name="kdenlive:original.mute_on_pause">0</property>
  <property name="kdenlive:original.mlt_service">avformat-novalidate</property>
  <property name="kdenlive:original.meta.media.frame_rate_num">60</property>
  <property name="kdenlive:original.meta.media.frame_rate_den">1</property>
  <property name="kdenlive:original.meta.media.colorspace">709</property>
  <property name="kdenlive:original.meta.media.color_trc">2</property>
  <property name="kdenlive:original.meta.media.has_b_frames">2</property>
  <property name="kdenlive:original.meta.media.width">3840</property>
  <property name="kdenlive:original.meta.media.height">2160</property>
  <property name="kdenlive:original.meta.media.color_range">mpeg</property>
  <property name="kdenlive:original.meta.media.top_field_first">0</property>
  <property name="kdenlive:original.meta.media.progressive">1</property>
  <property name="kdenlive:original.kdenlive:clip_type">2</property>
  <property name="kdenlive:original.kdenlive:folderid">599</property>
  <property name="kdenlive:original.kdenlive:id">609</property>
  <property name="kdenlive:original.kdenlive:file_size">766635</property>
  <property name="kdenlive:original.kdenlive:file_hash">1adf55896ecc0489d65380d4c8d71e3a</property>
  <property name="kdenlive:original.backup">1</property>
  <property name="meta.media.frame_rate_num">60</property>
  <property name="meta.media.frame_rate_den">1</property>
  <property name="meta.media.colorspace">601</property>
  <property name="meta.media.color_trc">2</property>
  <property name="meta.media.has_b_frames">0</property>
  <property name="meta.media.width">640</property>
  <property name="meta.media.height">360</property>
  <property name="meta.media.color_range">full</property>
  <property name="meta.media.top_field_first">0</property>
  <property name="meta.media.progressive">1</property>
 </producer>
 <producer id="producer420" in="00:00:00.000" out="00:00:00.983">
  <property name="length">60</property>
  <property name="eof">pause</property>
  <property name="resource">/home/xiaoxiae/.cache/kdenlive/proxy/ca43190868d89b23e86274e1ddf2df25.mkv</property>
  <property name="meta.media.nb_streams">1</property>
  <property name="meta.media.0.stream.type">video</property>
  <property name="meta.media.0.stream.frame_rate">60</property>
  <property name="meta.media.0.stream.sample_aspect_ratio">0</property>
  <property name="meta.media.0.codec.width">640</property>
  <property name="meta.media.0.codec.height">360</property>
  <property name="meta.media.0.codec.rotate">0</property>
  <property name="meta.media.0.codec.pix_fmt">yuvj420p</property>
  <property name="meta.media.0.codec.sample_aspect_ratio">0</property>
  <property name="meta.media.0.codec.colorspace">601</property>
  <property name="meta.media.0.codec.name">mjpeg</property>
  <property name="meta.media.0.codec.long_name">MJPEG (Motion JPEG)</property>
  <property name="meta.media.0.codec.bit_rate">0</property>
  <property name="meta.attr.0.stream.HANDLER_NAME.markup">VideoHandler</property>
  <property name="meta.attr.0.stream.VENDOR_ID.markup">[0][0][0][0]</property>
  <property name="meta.attr.0.stream.ENCODER.markup">Lavc60.3.100 mjpeg</property>
  <property name="meta.attr.0.stream.DURATION.markup">00:00:01.000000000</property>
  <property name="meta.attr.COMMENT.markup">Rendered with Manim Community v0.17.2</property>
  <property name="meta.attr.MAJOR_BRAND.markup">isom</property>
  <property name="meta.attr.MINOR_VERSION.markup">512</property>
  <property name="meta.attr.COMPATIBLE_BRANDS.markup">isomiso2avc1mp41</property>
  <property name="meta.attr.ENCODER.markup">Lavf60.3.100</property>
  <property name="seekable">1</property>
  <property name="meta.media.sample_aspect_num">1</property>
  <property name="meta.media.sample_aspect_den">1</property>
  <property name="aspect_ratio">1</property>
  <property name="format">3</property>
  <property name="audio_index">-1</property>
  <property name="video_index">0</property>
  <property name="mute_on_pause">0</property>
  <property name="mlt_service">avformat-novalidate</property>
  <property name="kdenlive:clipname">19.mp4</property>
  <property name="kdenlive:clip_type">2</property>
  <property name="kdenlive:folderid">599</property>
  <property name="kdenlive:id">499</property>
  <property name="kdenlive:file_size">120419</property>
  <property name="kdenlive:file_hash">ca43190868d89b23e86274e1ddf2df25</property>
  <property name="kdenlive:proxy">/home/xiaoxiae/.cache/kdenlive/proxy/ca43190868d89b23e86274e1ddf2df25.mkv</property>
  <property name="kdenlive:originalurl">video/SelectingAB/19.mp4</property>
  <property name="kdenlive:original.mlt_type">producer</property>
  <property name="kdenlive:original.in">00:00:00.000</property>
  <property name="kdenlive:original.out">00:00:00.983</property>
  <property name="kdenlive:original.length">60</property>
  <property name="kdenlive:original.eof">pause</property>
  <property name="kdenlive:original.resource">video/SelectingAB/19.mp4</property>
  <property name="kdenlive:original.meta.media.nb_streams">1</property>
  <property name="kdenlive:original.meta.media.0.stream.type">video</property>
  <property name="kdenlive:original.meta.media.0.stream.frame_rate">60</property>
  <property name="kdenlive:original.meta.media.0.stream.sample_aspect_ratio">0</property>
  <property name="kdenlive:original.meta.media.0.codec.width">3840</property>
  <property name="kdenlive:original.meta.media.0.codec.height">2160</property>
  <property name="kdenlive:original.meta.media.0.codec.rotate">0</property>
  <property name="kdenlive:original.meta.media.0.codec.pix_fmt">yuv420p</property>
  <property name="kdenlive:original.meta.media.0.codec.sample_aspect_ratio">0</property>
  <property name="kdenlive:original.meta.media.0.codec.colorspace">709</property>
  <property name="kdenlive:original.meta.media.0.codec.name">h264</property>
  <property name="kdenlive:original.meta.media.0.codec.long_name">H.264 / AVC / MPEG-4 AVC / MPEG-4 part 10</property>
  <property name="kdenlive:original.meta.media.0.codec.bit_rate">950368</property>
  <property name="kdenlive:original.meta.attr.0.stream.handler_name.markup">VideoHandler</property>
  <property name="kdenlive:original.meta.attr.0.stream.vendor_id.markup">[0][0][0][0]</property>
  <property name="kdenlive:original.meta.attr.0.stream.encoder.markup">Lavc60.3.100 libx264</property>
  <property name="kdenlive:original.meta.attr.major_brand.markup">isom</property>
  <property name="kdenlive:original.meta.attr.minor_version.markup">512</property>
  <property name="kdenlive:original.meta.attr.compatible_brands.markup">isomiso2avc1mp41</property>
  <property name="kdenlive:original.meta.attr.encoder.markup">Lavf60.3.100</property>
  <property name="kdenlive:original.meta.attr.comment.markup">Rendered with Manim Community v0.17.2</property>
  <property name="kdenlive:original.seekable">1</property>
  <property name="kdenlive:original.width">3840</property>
  <property name="kdenlive:original.height">2160</property>
  <property name="kdenlive:original.meta.media.sample_aspect_num">1</property>
  <property name="kdenlive:original.meta.media.sample_aspect_den">1</property>
  <property name="kdenlive:original.aspect_ratio">1</property>
  <property name="kdenlive:original.format">3</property>
  <property name="kdenlive:original.audio_index">-1</property>
  <property name="kdenlive:original.video_index">0</property>
  <property name="kdenlive:original.mute_on_pause">0</property>
  <property name="kdenlive:original.mlt_service">avformat-novalidate</property>
  <property name="kdenlive:original.meta.media.frame_rate_num">60</property>
  <property name="kdenlive:original.meta.media.frame_rate_den">1</property>
  <property name="kdenlive:original.meta.media.colorspace">709</property>
  <property name="kdenlive:original.meta.media.color_trc">2</property>
  <property name="kdenlive:original.meta.media.has_b_frames">2</property>
  <property name="kdenlive:original.meta.media.width">3840</property>
  <property name="kdenlive:original.meta.media.height">2160</property>
  <property name="kdenlive:original.meta.media.color_range">mpeg</property>
  <property name="kdenlive:original.meta.media.top_field_first">0</property>
  <property name="kdenlive:original.meta.media.progressive">1</property>
  <property name="kdenlive:original.kdenlive:clip_type">2</property>
  <property name="kdenlive:original.kdenlive:folderid">599</property>
  <property name="kdenlive:original.kdenlive:id">610</property>
  <property name="kdenlive:original.kdenlive:file_size">120419</property>
  <property name="kdenlive:original.kdenlive:file_hash">ca43190868d89b23e86274e1ddf2df25</property>
  <property name="kdenlive:original.backup">1</property>
  <property name="meta.media.frame_rate_num">60</property>
  <property name="meta.media.frame_rate_den">1</property>
  <property name="meta.media.colorspace">601</property>
  <property name="meta.media.color_trc">2</property>
  <property name="meta.media.has_b_frames">0</property>
  <property name="meta.media.width">640</property>
  <property name="meta.media.height">360</property>
  <property name="meta.media.color_range">full</property>
  <property name="meta.media.top_field_first">0</property>
  <property name="meta.media.progressive">1</property>
 </producer>
 <producer id="producer421" in="00:00:00.000" out="00:00:00.983">
  <property name="length">60</property>
  <property name="eof">pause</property>
  <property name="resource">/home/xiaoxiae/.cache/kdenlive/proxy/0010cd1644afb0df50e95fdbf443700d.mkv</property>
  <property name="meta.media.nb_streams">1</property>
  <property name="meta.media.0.stream.type">video</property>
  <property name="meta.media.0.stream.frame_rate">60</property>
  <property name="meta.media.0.stream.sample_aspect_ratio">0</property>
  <property name="meta.media.0.codec.width">640</property>
  <property name="meta.media.0.codec.height">360</property>
  <property name="meta.media.0.codec.rotate">0</property>
  <property name="meta.media.0.codec.pix_fmt">yuvj420p</property>
  <property name="meta.media.0.codec.sample_aspect_ratio">0</property>
  <property name="meta.media.0.codec.colorspace">601</property>
  <property name="meta.media.0.codec.name">mjpeg</property>
  <property name="meta.media.0.codec.long_name">MJPEG (Motion JPEG)</property>
  <property name="meta.media.0.codec.bit_rate">0</property>
  <property name="meta.attr.0.stream.HANDLER_NAME.markup">VideoHandler</property>
  <property name="meta.attr.0.stream.VENDOR_ID.markup">[0][0][0][0]</property>
  <property name="meta.attr.0.stream.ENCODER.markup">Lavc60.3.100 mjpeg</property>
  <property name="meta.attr.0.stream.DURATION.markup">00:00:01.000000000</property>
  <property name="meta.attr.COMMENT.markup">Rendered with Manim Community v0.17.2</property>
  <property name="meta.attr.MAJOR_BRAND.markup">isom</property>
  <property name="meta.attr.MINOR_VERSION.markup">512</property>
  <property name="meta.attr.COMPATIBLE_BRANDS.markup">isomiso2avc1mp41</property>
  <property name="meta.attr.ENCODER.markup">Lavf60.3.100</property>
  <property name="seekable">1</property>
  <property name="meta.media.sample_aspect_num">1</property>
  <property name="meta.media.sample_aspect_den">1</property>
  <property name="aspect_ratio">1</property>
  <property name="format">3</property>
  <property name="audio_index">-1</property>
  <property name="video_index">0</property>
  <property name="mute_on_pause">0</property>
  <property name="mlt_service">avformat-novalidate</property>
  <property name="kdenlive:clipname">2.mp4</property>
  <property name="kdenlive:clip_type">2</property>
  <property name="kdenlive:folderid">599</property>
  <property name="kdenlive:id">500</property>
  <property name="kdenlive:file_size">251405</property>
  <property name="kdenlive:file_hash">0010cd1644afb0df50e95fdbf443700d</property>
  <property name="kdenlive:proxy">/home/xiaoxiae/.cache/kdenlive/proxy/0010cd1644afb0df50e95fdbf443700d.mkv</property>
  <property name="kdenlive:originalurl">video/SelectingAB/2.mp4</property>
  <property name="kdenlive:original.mlt_type">producer</property>
  <property name="kdenlive:original.in">00:00:00.000</property>
  <property name="kdenlive:original.out">00:00:00.983</property>
  <property name="kdenlive:original.length">60</property>
  <property name="kdenlive:original.eof">pause</property>
  <property name="kdenlive:original.resource">video/SelectingAB/2.mp4</property>
  <property name="kdenlive:original.meta.media.nb_streams">1</property>
  <property name="kdenlive:original.meta.media.0.stream.type">video</property>
  <property name="kdenlive:original.meta.media.0.stream.frame_rate">60</property>
  <property name="kdenlive:original.meta.media.0.stream.sample_aspect_ratio">0</property>
  <property name="kdenlive:original.meta.media.0.codec.width">3840</property>
  <property name="kdenlive:original.meta.media.0.codec.height">2160</property>
  <property name="kdenlive:original.meta.media.0.codec.rotate">0</property>
  <property name="kdenlive:original.meta.media.0.codec.pix_fmt">yuv420p</property>
  <property name="kdenlive:original.meta.media.0.codec.sample_aspect_ratio">0</property>
  <property name="kdenlive:original.meta.media.0.codec.colorspace">709</property>
  <property name="kdenlive:original.meta.media.0.codec.name">h264</property>
  <property name="kdenlive:original.meta.media.0.codec.long_name">H.264 / AVC / MPEG-4 AVC / MPEG-4 part 10</property>
  <property name="kdenlive:original.meta.media.0.codec.bit_rate">2000240</property>
  <property name="kdenlive:original.meta.attr.0.stream.handler_name.markup">VideoHandler</property>
  <property name="kdenlive:original.meta.attr.0.stream.vendor_id.markup">[0][0][0][0]</property>
  <property name="kdenlive:original.meta.attr.0.stream.encoder.markup">Lavc60.3.100 libx264</property>
  <property name="kdenlive:original.meta.attr.major_brand.markup">isom</property>
  <property name="kdenlive:original.meta.attr.minor_version.markup">512</property>
  <property name="kdenlive:original.meta.attr.compatible_brands.markup">isomiso2avc1mp41</property>
  <property name="kdenlive:original.meta.attr.encoder.markup">Lavf60.3.100</property>
  <property name="kdenlive:original.meta.attr.comment.markup">Rendered with Manim Community v0.17.2</property>
  <property name="kdenlive:original.seekable">1</property>
  <property name="kdenlive:original.width">3840</property>
  <property name="kdenlive:original.height">2160</property>
  <property name="kdenlive:original.meta.media.sample_aspect_num">1</property>
  <property name="kdenlive:original.meta.media.sample_aspect_den">1</property>
  <property name="kdenlive:original.aspect_ratio">1</property>
  <property name="kdenlive:original.format">3</property>
  <property name="kdenlive:original.audio_index">-1</property>
  <property name="kdenlive:original.video_index">0</property>
  <property name="kdenlive:original.mute_on_pause">0</property>
  <property name="kdenlive:original.mlt_service">avformat-novalidate</property>
  <property name="kdenlive:original.meta.media.frame_rate_num">60</property>
  <property name="kdenlive:original.meta.media.frame_rate_den">1</property>
  <property name="kdenlive:original.meta.media.colorspace">709</property>
  <property name="kdenlive:original.meta.media.color_trc">2</property>
  <property name="kdenlive:original.meta.media.has_b_frames">2</property>
  <property name="kdenlive:original.meta.media.width">3840</property>
  <property name="kdenlive:original.meta.media.height">2160</property>
  <property name="kdenlive:original.meta.media.color_range">mpeg</property>
  <property name="kdenlive:original.meta.media.top_field_first">0</property>
  <property name="kdenlive:original.meta.media.progressive">1</property>
  <property name="kdenlive:original.kdenlive:clip_type">2</property>
  <property name="kdenlive:original.kdenlive:folderid">599</property>
  <property name="kdenlive:original.kdenlive:id">611</property>
  <property name="kdenlive:original.kdenlive:file_size">251405</property>
  <property name="kdenlive:original.kdenlive:file_hash">0010cd1644afb0df50e95fdbf443700d</property>
  <property name="kdenlive:original.backup">1</property>
  <property name="meta.media.frame_rate_num">60</property>
  <property name="meta.media.frame_rate_den">1</property>
  <property name="meta.media.colorspace">601</property>
  <property name="meta.media.color_trc">2</property>
  <property name="meta.media.has_b_frames">0</property>
  <property name="meta.media.width">640</property>
  <property name="meta.media.height">360</property>
  <property name="meta.media.color_range">full</property>
  <property name="meta.media.top_field_first">0</property>
  <property name="meta.media.progressive">1</property>
 </producer>
 <producer id="producer422" in="00:00:00.000" out="00:00:00.983">
  <property name="length">60</property>
  <property name="eof">pause</property>
  <property name="resource">/home/xiaoxiae/.cache/kdenlive/proxy/d76550e874e1436812404ed30140e546.mkv</property>
  <property name="meta.media.nb_streams">1</property>
  <property name="meta.media.0.stream.type">video</property>
  <property name="meta.media.0.stream.frame_rate">60</property>
  <property name="meta.media.0.stream.sample_aspect_ratio">0</property>
  <property name="meta.media.0.codec.width">640</property>
  <property name="meta.media.0.codec.height">360</property>
  <property name="meta.media.0.codec.rotate">0</property>
  <property name="meta.media.0.codec.pix_fmt">yuvj420p</property>
  <property name="meta.media.0.codec.sample_aspect_ratio">0</property>
  <property name="meta.media.0.codec.colorspace">601</property>
  <property name="meta.media.0.codec.name">mjpeg</property>
  <property name="meta.media.0.codec.long_name">MJPEG (Motion JPEG)</property>
  <property name="meta.media.0.codec.bit_rate">0</property>
  <property name="meta.attr.0.stream.HANDLER_NAME.markup">VideoHandler</property>
  <property name="meta.attr.0.stream.VENDOR_ID.markup">[0][0][0][0]</property>
  <property name="meta.attr.0.stream.ENCODER.markup">Lavc60.3.100 mjpeg</property>
  <property name="meta.attr.0.stream.DURATION.markup">00:00:01.000000000</property>
  <property name="meta.attr.COMMENT.markup">Rendered with Manim Community v0.17.2</property>
  <property name="meta.attr.MAJOR_BRAND.markup">isom</property>
  <property name="meta.attr.MINOR_VERSION.markup">512</property>
  <property name="meta.attr.COMPATIBLE_BRANDS.markup">isomiso2avc1mp41</property>
  <property name="meta.attr.ENCODER.markup">Lavf60.3.100</property>
  <property name="seekable">1</property>
  <property name="meta.media.sample_aspect_num">1</property>
  <property name="meta.media.sample_aspect_den">1</property>
  <property name="aspect_ratio">1</property>
  <property name="format">3</property>
  <property name="audio_index">-1</property>
  <property name="video_index">0</property>
  <property name="mute_on_pause">0</property>
  <property name="mlt_service">avformat-novalidate</property>
  <property name="kdenlive:clipname">3.mp4</property>
  <property name="kdenlive:clip_type">2</property>
  <property name="kdenlive:folderid">599</property>
  <property name="kdenlive:id">501</property>
  <property name="kdenlive:file_size">205208</property>
  <property name="kdenlive:file_hash">d76550e874e1436812404ed30140e546</property>
  <property name="kdenlive:proxy">/home/xiaoxiae/.cache/kdenlive/proxy/d76550e874e1436812404ed30140e546.mkv</property>
  <property name="kdenlive:originalurl">video/SelectingAB/3.mp4</property>
  <property name="kdenlive:original.mlt_type">producer</property>
  <property name="kdenlive:original.in">00:00:00.000</property>
  <property name="kdenlive:original.out">00:00:00.983</property>
  <property name="kdenlive:original.length">60</property>
  <property name="kdenlive:original.eof">pause</property>
  <property name="kdenlive:original.resource">video/SelectingAB/3.mp4</property>
  <property name="kdenlive:original.meta.media.nb_streams">1</property>
  <property name="kdenlive:original.meta.media.0.stream.type">video</property>
  <property name="kdenlive:original.meta.media.0.stream.frame_rate">60</property>
  <property name="kdenlive:original.meta.media.0.stream.sample_aspect_ratio">0</property>
  <property name="kdenlive:original.meta.media.0.codec.width">3840</property>
  <property name="kdenlive:original.meta.media.0.codec.height">2160</property>
  <property name="kdenlive:original.meta.media.0.codec.rotate">0</property>
  <property name="kdenlive:original.meta.media.0.codec.pix_fmt">yuv420p</property>
  <property name="kdenlive:original.meta.media.0.codec.sample_aspect_ratio">0</property>
  <property name="kdenlive:original.meta.media.0.codec.colorspace">709</property>
  <property name="kdenlive:original.meta.media.0.codec.name">h264</property>
  <property name="kdenlive:original.meta.media.0.codec.long_name">H.264 / AVC / MPEG-4 AVC / MPEG-4 part 10</property>
  <property name="kdenlive:original.meta.media.0.codec.bit_rate">1629896</property>
  <property name="kdenlive:original.meta.attr.0.stream.handler_name.markup">VideoHandler</property>
  <property name="kdenlive:original.meta.attr.0.stream.vendor_id.markup">[0][0][0][0]</property>
  <property name="kdenlive:original.meta.attr.0.stream.encoder.markup">Lavc60.3.100 libx264</property>
  <property name="kdenlive:original.meta.attr.major_brand.markup">isom</property>
  <property name="kdenlive:original.meta.attr.minor_version.markup">512</property>
  <property name="kdenlive:original.meta.attr.compatible_brands.markup">isomiso2avc1mp41</property>
  <property name="kdenlive:original.meta.attr.encoder.markup">Lavf60.3.100</property>
  <property name="kdenlive:original.meta.attr.comment.markup">Rendered with Manim Community v0.17.2</property>
  <property name="kdenlive:original.seekable">1</property>
  <property name="kdenlive:original.width">3840</property>
  <property name="kdenlive:original.height">2160</property>
  <property name="kdenlive:original.meta.media.sample_aspect_num">1</property>
  <property name="kdenlive:original.meta.media.sample_aspect_den">1</property>
  <property name="kdenlive:original.aspect_ratio">1</property>
  <property name="kdenlive:original.format">3</property>
  <property name="kdenlive:original.audio_index">-1</property>
  <property name="kdenlive:original.video_index">0</property>
  <property name="kdenlive:original.mute_on_pause">0</property>
  <property name="kdenlive:original.mlt_service">avformat-novalidate</property>
  <property name="kdenlive:original.meta.media.frame_rate_num">60</property>
  <property name="kdenlive:original.meta.media.frame_rate_den">1</property>
  <property name="kdenlive:original.meta.media.colorspace">709</property>
  <property name="kdenlive:original.meta.media.color_trc">2</property>
  <property name="kdenlive:original.meta.media.has_b_frames">2</property>
  <property name="kdenlive:original.meta.media.width">3840</property>
  <property name="kdenlive:original.meta.media.height">2160</property>
  <property name="kdenlive:original.meta.media.color_range">mpeg</property>
  <property name="kdenlive:original.meta.media.top_field_first">0</property>
  <property name="kdenlive:original.meta.media.progressive">1</property>
  <property name="kdenlive:original.kdenlive:clip_type">2</property>
  <property name="kdenlive:original.kdenlive:folderid">599</property>
  <property name="kdenlive:original.kdenlive:id">612</property>
  <property name="kdenlive:original.kdenlive:file_size">205208</property>
  <property name="kdenlive:original.kdenlive:file_hash">d76550e874e1436812404ed30140e546</property>
  <property name="kdenlive:original.backup">1</property>
  <property name="meta.media.frame_rate_num">60</property>
  <property name="meta.media.frame_rate_den">1</property>
  <property name="meta.media.colorspace">601</property>
  <property name="meta.media.color_trc">2</property>
  <property name="meta.media.has_b_frames">0</property>
  <property name="meta.media.width">640</property>
  <property name="meta.media.height">360</property>
  <property name="meta.media.color_range">full</property>
  <property name="meta.media.top_field_first">0</property>
  <property name="meta.media.progressive">1</property>
 </producer>
 <producer id="producer423" in="00:00:00.000" out="00:00:01.483">
  <property name="length">90</property>
  <property name="eof">pause</property>
  <property name="resource">/home/xiaoxiae/.cache/kdenlive/proxy/8012fa06e889e408e6dab14cb0387967.mkv</property>
  <property name="meta.media.nb_streams">1</property>
  <property name="meta.media.0.stream.type">video</property>
  <property name="meta.media.0.stream.frame_rate">60</property>
  <property name="meta.media.0.stream.sample_aspect_ratio">0</property>
  <property name="meta.media.0.codec.width">640</property>
  <property name="meta.media.0.codec.height">360</property>
  <property name="meta.media.0.codec.rotate">0</property>
  <property name="meta.media.0.codec.pix_fmt">yuvj420p</property>
  <property name="meta.media.0.codec.sample_aspect_ratio">0</property>
  <property name="meta.media.0.codec.colorspace">601</property>
  <property name="meta.media.0.codec.name">mjpeg</property>
  <property name="meta.media.0.codec.long_name">MJPEG (Motion JPEG)</property>
  <property name="meta.media.0.codec.bit_rate">0</property>
  <property name="meta.attr.0.stream.HANDLER_NAME.markup">VideoHandler</property>
  <property name="meta.attr.0.stream.VENDOR_ID.markup">[0][0][0][0]</property>
  <property name="meta.attr.0.stream.ENCODER.markup">Lavc60.3.100 mjpeg</property>
  <property name="meta.attr.0.stream.DURATION.markup">00:00:01.500000000</property>
  <property name="meta.attr.COMMENT.markup">Rendered with Manim Community v0.17.2</property>
  <property name="meta.attr.MAJOR_BRAND.markup">isom</property>
  <property name="meta.attr.MINOR_VERSION.markup">512</property>
  <property name="meta.attr.COMPATIBLE_BRANDS.markup">isomiso2avc1mp41</property>
  <property name="meta.attr.ENCODER.markup">Lavf60.3.100</property>
  <property name="seekable">1</property>
  <property name="meta.media.sample_aspect_num">1</property>
  <property name="meta.media.sample_aspect_den">1</property>
  <property name="aspect_ratio">1</property>
  <property name="format">3</property>
  <property name="audio_index">-1</property>
  <property name="video_index">0</property>
  <property name="mute_on_pause">0</property>
  <property name="mlt_service">avformat-novalidate</property>
  <property name="kdenlive:clipname">4.mp4</property>
  <property name="kdenlive:clip_type">2</property>
  <property name="kdenlive:folderid">599</property>
  <property name="kdenlive:id">502</property>
  <property name="kdenlive:file_size">141244</property>
  <property name="kdenlive:file_hash">8012fa06e889e408e6dab14cb0387967</property>
  <property name="kdenlive:proxy">/home/xiaoxiae/.cache/kdenlive/proxy/8012fa06e889e408e6dab14cb0387967.mkv</property>
  <property name="kdenlive:originalurl">video/SelectingAB/4.mp4</property>
  <property name="kdenlive:original.mlt_type">producer</property>
  <property name="kdenlive:original.in">00:00:00.000</property>
  <property name="kdenlive:original.out">00:00:01.483</property>
  <property name="kdenlive:original.length">90</property>
  <property name="kdenlive:original.eof">pause</property>
  <property name="kdenlive:original.resource">video/SelectingAB/4.mp4</property>
  <property name="kdenlive:original.meta.media.nb_streams">1</property>
  <property name="kdenlive:original.meta.media.0.stream.type">video</property>
  <property name="kdenlive:original.meta.media.0.stream.frame_rate">60</property>
  <property name="kdenlive:original.meta.media.0.stream.sample_aspect_ratio">0</property>
  <property name="kdenlive:original.meta.media.0.codec.width">3840</property>
  <property name="kdenlive:original.meta.media.0.codec.height">2160</property>
  <property name="kdenlive:original.meta.media.0.codec.rotate">0</property>
  <property name="kdenlive:original.meta.media.0.codec.pix_fmt">yuv420p</property>
  <property name="kdenlive:original.meta.media.0.codec.sample_aspect_ratio">0</property>
  <property name="kdenlive:original.meta.media.0.codec.colorspace">709</property>
  <property name="kdenlive:original.meta.media.0.codec.name">h264</property>
  <property name="kdenlive:original.meta.media.0.codec.long_name">H.264 / AVC / MPEG-4 AVC / MPEG-4 part 10</property>
  <property name="kdenlive:original.meta.media.0.codec.bit_rate">743024</property>
  <property name="kdenlive:original.meta.attr.0.stream.handler_name.markup">VideoHandler</property>
  <property name="kdenlive:original.meta.attr.0.stream.vendor_id.markup">[0][0][0][0]</property>
  <property name="kdenlive:original.meta.attr.0.stream.encoder.markup">Lavc60.3.100 libx264</property>
  <property name="kdenlive:original.meta.attr.major_brand.markup">isom</property>
  <property name="kdenlive:original.meta.attr.minor_version.markup">512</property>
  <property name="kdenlive:original.meta.attr.compatible_brands.markup">isomiso2avc1mp41</property>
  <property name="kdenlive:original.meta.attr.encoder.markup">Lavf60.3.100</property>
  <property name="kdenlive:original.meta.attr.comment.markup">Rendered with Manim Community v0.17.2</property>
  <property name="kdenlive:original.seekable">1</property>
  <property name="kdenlive:original.width">3840</property>
  <property name="kdenlive:original.height">2160</property>
  <property name="kdenlive:original.meta.media.sample_aspect_num">1</property>
  <property name="kdenlive:original.meta.media.sample_aspect_den">1</property>
  <property name="kdenlive:original.aspect_ratio">1</property>
  <property name="kdenlive:original.format">3</property>
  <property name="kdenlive:original.audio_index">-1</property>
  <property name="kdenlive:original.video_index">0</property>
  <property name="kdenlive:original.mute_on_pause">0</property>
  <property name="kdenlive:original.mlt_service">avformat-novalidate</property>
  <property name="kdenlive:original.meta.media.frame_rate_num">60</property>
  <property name="kdenlive:original.meta.media.frame_rate_den">1</property>
  <property name="kdenlive:original.meta.media.colorspace">709</property>
  <property name="kdenlive:original.meta.media.color_trc">2</property>
  <property name="kdenlive:original.meta.media.has_b_frames">2</property>
  <property name="kdenlive:original.meta.media.width">3840</property>
  <property name="kdenlive:original.meta.media.height">2160</property>
  <property name="kdenlive:original.meta.media.color_range">mpeg</property>
  <property name="kdenlive:original.meta.media.top_field_first">0</property>
  <property name="kdenlive:original.meta.media.progressive">1</property>
  <property name="kdenlive:original.kdenlive:clip_type">2</property>
  <property name="kdenlive:original.kdenlive:folderid">599</property>
  <property name="kdenlive:original.kdenlive:id">613</property>
  <property name="kdenlive:original.kdenlive:file_size">141244</property>
  <property name="kdenlive:original.kdenlive:file_hash">8012fa06e889e408e6dab14cb0387967</property>
  <property name="kdenlive:original.backup">1</property>
  <property name="meta.media.frame_rate_num">60</property>
  <property name="meta.media.frame_rate_den">1</property>
  <property name="meta.media.colorspace">601</property>
  <property name="meta.media.color_trc">2</property>
  <property name="meta.media.has_b_frames">0</property>
  <property name="meta.media.width">640</property>
  <property name="meta.media.height">360</property>
  <property name="meta.media.color_range">full</property>
  <property name="meta.media.top_field_first">0</property>
  <property name="meta.media.progressive">1</property>
 </producer>
 <producer id="producer424" in="00:00:00.000" out="00:00:00.983">
  <property name="length">60</property>
  <property name="eof">pause</property>
  <property name="resource">/home/xiaoxiae/.cache/kdenlive/proxy/679d7125a15a68a65330ee8cf3733767.mkv</property>
  <property name="meta.media.nb_streams">1</property>
  <property name="meta.media.0.stream.type">video</property>
  <property name="meta.media.0.stream.frame_rate">60</property>
  <property name="meta.media.0.stream.sample_aspect_ratio">0</property>
  <property name="meta.media.0.codec.width">640</property>
  <property name="meta.media.0.codec.height">360</property>
  <property name="meta.media.0.codec.rotate">0</property>
  <property name="meta.media.0.codec.pix_fmt">yuvj420p</property>
  <property name="meta.media.0.codec.sample_aspect_ratio">0</property>
  <property name="meta.media.0.codec.colorspace">601</property>
  <property name="meta.media.0.codec.name">mjpeg</property>
  <property name="meta.media.0.codec.long_name">MJPEG (Motion JPEG)</property>
  <property name="meta.media.0.codec.bit_rate">0</property>
  <property name="meta.attr.0.stream.HANDLER_NAME.markup">VideoHandler</property>
  <property name="meta.attr.0.stream.VENDOR_ID.markup">[0][0][0][0]</property>
  <property name="meta.attr.0.stream.ENCODER.markup">Lavc60.3.100 mjpeg</property>
  <property name="meta.attr.0.stream.DURATION.markup">00:00:01.000000000</property>
  <property name="meta.attr.COMMENT.markup">Rendered with Manim Community v0.17.2</property>
  <property name="meta.attr.MAJOR_BRAND.markup">isom</property>
  <property name="meta.attr.MINOR_VERSION.markup">512</property>
  <property name="meta.attr.COMPATIBLE_BRANDS.markup">isomiso2avc1mp41</property>
  <property name="meta.attr.ENCODER.markup">Lavf60.3.100</property>
  <property name="seekable">1</property>
  <property name="meta.media.sample_aspect_num">1</property>
  <property name="meta.media.sample_aspect_den">1</property>
  <property name="aspect_ratio">1</property>
  <property name="format">3</property>
  <property name="audio_index">-1</property>
  <property name="video_index">0</property>
  <property name="mute_on_pause">0</property>
  <property name="mlt_service">avformat-novalidate</property>
  <property name="kdenlive:clipname">5.mp4</property>
  <property name="kdenlive:clip_type">2</property>
  <property name="kdenlive:folderid">599</property>
  <property name="kdenlive:id">503</property>
  <property name="kdenlive:file_size">368060</property>
  <property name="kdenlive:file_hash">679d7125a15a68a65330ee8cf3733767</property>
  <property name="kdenlive:proxy">/home/xiaoxiae/.cache/kdenlive/proxy/679d7125a15a68a65330ee8cf3733767.mkv</property>
  <property name="kdenlive:originalurl">video/SelectingAB/5.mp4</property>
  <property name="kdenlive:original.mlt_type">producer</property>
  <property name="kdenlive:original.in">00:00:00.000</property>
  <property name="kdenlive:original.out">00:00:00.983</property>
  <property name="kdenlive:original.length">60</property>
  <property name="kdenlive:original.eof">pause</property>
  <property name="kdenlive:original.resource">video/SelectingAB/5.mp4</property>
  <property name="kdenlive:original.meta.media.nb_streams">1</property>
  <property name="kdenlive:original.meta.media.0.stream.type">video</property>
  <property name="kdenlive:original.meta.media.0.stream.frame_rate">60</property>
  <property name="kdenlive:original.meta.media.0.stream.sample_aspect_ratio">0</property>
  <property name="kdenlive:original.meta.media.0.codec.width">3840</property>
  <property name="kdenlive:original.meta.media.0.codec.height">2160</property>
  <property name="kdenlive:original.meta.media.0.codec.rotate">0</property>
  <property name="kdenlive:original.meta.media.0.codec.pix_fmt">yuv420p</property>
  <property name="kdenlive:original.meta.media.0.codec.sample_aspect_ratio">0</property>
  <property name="kdenlive:original.meta.media.0.codec.colorspace">709</property>
  <property name="kdenlive:original.meta.media.0.codec.name">h264</property>
  <property name="kdenlive:original.meta.media.0.codec.long_name">H.264 / AVC / MPEG-4 AVC / MPEG-4 part 10</property>
  <property name="kdenlive:original.meta.media.0.codec.bit_rate">2932840</property>
  <property name="kdenlive:original.meta.attr.0.stream.handler_name.markup">VideoHandler</property>
  <property name="kdenlive:original.meta.attr.0.stream.vendor_id.markup">[0][0][0][0]</property>
  <property name="kdenlive:original.meta.attr.0.stream.encoder.markup">Lavc60.3.100 libx264</property>
  <property name="kdenlive:original.meta.attr.major_brand.markup">isom</property>
  <property name="kdenlive:original.meta.attr.minor_version.markup">512</property>
  <property name="kdenlive:original.meta.attr.compatible_brands.markup">isomiso2avc1mp41</property>
  <property name="kdenlive:original.meta.attr.encoder.markup">Lavf60.3.100</property>
  <property name="kdenlive:original.meta.attr.comment.markup">Rendered with Manim Community v0.17.2</property>
  <property name="kdenlive:original.seekable">1</property>
  <property name="kdenlive:original.width">3840</property>
  <property name="kdenlive:original.height">2160</property>
  <property name="kdenlive:original.meta.media.sample_aspect_num">1</property>
  <property name="kdenlive:original.meta.media.sample_aspect_den">1</property>
  <property name="kdenlive:original.aspect_ratio">1</property>
  <property name="kdenlive:original.format">3</property>
  <property name="kdenlive:original.audio_index">-1</property>
  <property name="kdenlive:original.video_index">0</property>
  <property name="kdenlive:original.mute_on_pause">0</property>
  <property name="kdenlive:original.mlt_service">avformat-novalidate</property>
  <property name="kdenlive:original.meta.media.frame_rate_num">60</property>
  <property name="kdenlive:original.meta.media.frame_rate_den">1</property>
  <property name="kdenlive:original.meta.media.colorspace">709</property>
  <property name="kdenlive:original.meta.media.color_trc">2</property>
  <property name="kdenlive:original.meta.media.has_b_frames">2</property>
  <property name="kdenlive:original.meta.media.width">3840</property>
  <property name="kdenlive:original.meta.media.height">2160</property>
  <property name="kdenlive:original.meta.media.color_range">mpeg</property>
  <property name="kdenlive:original.meta.media.top_field_first">0</property>
  <property name="kdenlive:original.meta.media.progressive">1</property>
  <property name="kdenlive:original.kdenlive:clip_type">2</property>
  <property name="kdenlive:original.kdenlive:folderid">599</property>
  <property name="kdenlive:original.kdenlive:id">614</property>
  <property name="kdenlive:original.kdenlive:file_size">368060</property>
  <property name="kdenlive:original.kdenlive:file_hash">679d7125a15a68a65330ee8cf3733767</property>
  <property name="kdenlive:original.backup">1</property>
  <property name="meta.media.frame_rate_num">60</property>
  <property name="meta.media.frame_rate_den">1</property>
  <property name="meta.media.colorspace">601</property>
  <property name="meta.media.color_trc">2</property>
  <property name="meta.media.has_b_frames">0</property>
  <property name="meta.media.width">640</property>
  <property name="meta.media.height">360</property>
  <property name="meta.media.color_range">full</property>
  <property name="meta.media.top_field_first">0</property>
  <property name="meta.media.progressive">1</property>
 </producer>
 <producer id="producer425" in="00:00:00.000" out="00:00:00.983">
  <property name="length">60</property>
  <property name="eof">pause</property>
  <property name="resource">/home/xiaoxiae/.cache/kdenlive/proxy/d95d7ccff628179ffe80fd64a01f2676.mkv</property>
  <property name="meta.media.nb_streams">1</property>
  <property name="meta.media.0.stream.type">video</property>
  <property name="meta.media.0.stream.frame_rate">60</property>
  <property name="meta.media.0.stream.sample_aspect_ratio">0</property>
  <property name="meta.media.0.codec.width">640</property>
  <property name="meta.media.0.codec.height">360</property>
  <property name="meta.media.0.codec.rotate">0</property>
  <property name="meta.media.0.codec.pix_fmt">yuvj420p</property>
  <property name="meta.media.0.codec.sample_aspect_ratio">0</property>
  <property name="meta.media.0.codec.colorspace">601</property>
  <property name="meta.media.0.codec.name">mjpeg</property>
  <property name="meta.media.0.codec.long_name">MJPEG (Motion JPEG)</property>
  <property name="meta.media.0.codec.bit_rate">0</property>
  <property name="meta.attr.0.stream.HANDLER_NAME.markup">VideoHandler</property>
  <property name="meta.attr.0.stream.VENDOR_ID.markup">[0][0][0][0]</property>
  <property name="meta.attr.0.stream.ENCODER.markup">Lavc60.3.100 mjpeg</property>
  <property name="meta.attr.0.stream.DURATION.markup">00:00:01.000000000</property>
  <property name="meta.attr.COMMENT.markup">Rendered with Manim Community v0.17.2</property>
  <property name="meta.attr.MAJOR_BRAND.markup">isom</property>
  <property name="meta.attr.MINOR_VERSION.markup">512</property>
  <property name="meta.attr.COMPATIBLE_BRANDS.markup">isomiso2avc1mp41</property>
  <property name="meta.attr.ENCODER.markup">Lavf60.3.100</property>
  <property name="seekable">1</property>
  <property name="meta.media.sample_aspect_num">1</property>
  <property name="meta.media.sample_aspect_den">1</property>
  <property name="aspect_ratio">1</property>
  <property name="format">3</property>
  <property name="audio_index">-1</property>
  <property name="video_index">0</property>
  <property name="mute_on_pause">0</property>
  <property name="mlt_service">avformat-novalidate</property>
  <property name="kdenlive:clipname">6.mp4</property>
  <property name="kdenlive:clip_type">2</property>
  <property name="kdenlive:folderid">599</property>
  <property name="kdenlive:id">504</property>
  <property name="kdenlive:file_size">55772</property>
  <property name="kdenlive:file_hash">d95d7ccff628179ffe80fd64a01f2676</property>
  <property name="kdenlive:proxy">/home/xiaoxiae/.cache/kdenlive/proxy/d95d7ccff628179ffe80fd64a01f2676.mkv</property>
  <property name="kdenlive:originalurl">video/SelectingAB/6.mp4</property>
  <property name="kdenlive:original.mlt_type">producer</property>
  <property name="kdenlive:original.in">00:00:00.000</property>
  <property name="kdenlive:original.out">00:00:00.983</property>
  <property name="kdenlive:original.length">60</property>
  <property name="kdenlive:original.eof">pause</property>
  <property name="kdenlive:original.resource">video/SelectingAB/6.mp4</property>
  <property name="kdenlive:original.meta.media.nb_streams">1</property>
  <property name="kdenlive:original.meta.media.0.stream.type">video</property>
  <property name="kdenlive:original.meta.media.0.stream.frame_rate">60</property>
  <property name="kdenlive:original.meta.media.0.stream.sample_aspect_ratio">0</property>
  <property name="kdenlive:original.meta.media.0.codec.width">3840</property>
  <property name="kdenlive:original.meta.media.0.codec.height">2160</property>
  <property name="kdenlive:original.meta.media.0.codec.rotate">0</property>
  <property name="kdenlive:original.meta.media.0.codec.pix_fmt">yuv420p</property>
  <property name="kdenlive:original.meta.media.0.codec.sample_aspect_ratio">0</property>
  <property name="kdenlive:original.meta.media.0.codec.colorspace">709</property>
  <property name="kdenlive:original.meta.media.0.codec.name">h264</property>
  <property name="kdenlive:original.meta.media.0.codec.long_name">H.264 / AVC / MPEG-4 AVC / MPEG-4 part 10</property>
  <property name="kdenlive:original.meta.media.0.codec.bit_rate">433896</property>
  <property name="kdenlive:original.meta.attr.0.stream.handler_name.markup">VideoHandler</property>
  <property name="kdenlive:original.meta.attr.0.stream.vendor_id.markup">[0][0][0][0]</property>
  <property name="kdenlive:original.meta.attr.0.stream.encoder.markup">Lavc60.3.100 libx264</property>
  <property name="kdenlive:original.meta.attr.major_brand.markup">isom</property>
  <property name="kdenlive:original.meta.attr.minor_version.markup">512</property>
  <property name="kdenlive:original.meta.attr.compatible_brands.markup">isomiso2avc1mp41</property>
  <property name="kdenlive:original.meta.attr.encoder.markup">Lavf60.3.100</property>
  <property name="kdenlive:original.meta.attr.comment.markup">Rendered with Manim Community v0.17.2</property>
  <property name="kdenlive:original.seekable">1</property>
  <property name="kdenlive:original.width">3840</property>
  <property name="kdenlive:original.height">2160</property>
  <property name="kdenlive:original.meta.media.sample_aspect_num">1</property>
  <property name="kdenlive:original.meta.media.sample_aspect_den">1</property>
  <property name="kdenlive:original.aspect_ratio">1</property>
  <property name="kdenlive:original.format">3</property>
  <property name="kdenlive:original.audio_index">-1</property>
  <property name="kdenlive:original.video_index">0</property>
  <property name="kdenlive:original.mute_on_pause">0</property>
  <property name="kdenlive:original.mlt_service">avformat-novalidate</property>
  <property name="kdenlive:original.meta.media.frame_rate_num">60</property>
  <property name="kdenlive:original.meta.media.frame_rate_den">1</property>
  <property name="kdenlive:original.meta.media.colorspace">709</property>
  <property name="kdenlive:original.meta.media.color_trc">2</property>
  <property name="kdenlive:original.meta.media.has_b_frames">2</property>
  <property name="kdenlive:original.meta.media.width">3840</property>
  <property name="kdenlive:original.meta.media.height">2160</property>
  <property name="kdenlive:original.meta.media.color_range">mpeg</property>
  <property name="kdenlive:original.meta.media.top_field_first">0</property>
  <property name="kdenlive:original.meta.media.progressive">1</property>
  <property name="kdenlive:original.kdenlive:clip_type">2</property>
  <property name="kdenlive:original.kdenlive:folderid">599</property>
  <property name="kdenlive:original.kdenlive:id">615</property>
  <property name="kdenlive:original.kdenlive:file_size">55772</property>
  <property name="kdenlive:original.kdenlive:file_hash">d95d7ccff628179ffe80fd64a01f2676</property>
  <property name="kdenlive:original.backup">1</property>
  <property name="meta.media.frame_rate_num">60</property>
  <property name="meta.media.frame_rate_den">1</property>
  <property name="meta.media.colorspace">601</property>
  <property name="meta.media.color_trc">2</property>
  <property name="meta.media.has_b_frames">0</property>
  <property name="meta.media.width">640</property>
  <property name="meta.media.height">360</property>
  <property name="meta.media.color_range">full</property>
  <property name="meta.media.top_field_first">0</property>
  <property name="meta.media.progressive">1</property>
 </producer>
 <producer id="producer426" in="00:00:00.000" out="00:00:00.983">
  <property name="length">60</property>
  <property name="eof">pause</property>
  <property name="resource">/home/xiaoxiae/.cache/kdenlive/proxy/e579d3b76ac05f2690bd91ed09d7523a.mkv</property>
  <property name="meta.media.nb_streams">1</property>
  <property name="meta.media.0.stream.type">video</property>
  <property name="meta.media.0.stream.frame_rate">60</property>
  <property name="meta.media.0.stream.sample_aspect_ratio">0</property>
  <property name="meta.media.0.codec.width">640</property>
  <property name="meta.media.0.codec.height">360</property>
  <property name="meta.media.0.codec.rotate">0</property>
  <property name="meta.media.0.codec.pix_fmt">yuvj420p</property>
  <property name="meta.media.0.codec.sample_aspect_ratio">0</property>
  <property name="meta.media.0.codec.colorspace">601</property>
  <property name="meta.media.0.codec.name">mjpeg</property>
  <property name="meta.media.0.codec.long_name">MJPEG (Motion JPEG)</property>
  <property name="meta.media.0.codec.bit_rate">0</property>
  <property name="meta.attr.0.stream.HANDLER_NAME.markup">VideoHandler</property>
  <property name="meta.attr.0.stream.VENDOR_ID.markup">[0][0][0][0]</property>
  <property name="meta.attr.0.stream.ENCODER.markup">Lavc60.3.100 mjpeg</property>
  <property name="meta.attr.0.stream.DURATION.markup">00:00:01.000000000</property>
  <property name="meta.attr.COMMENT.markup">Rendered with Manim Community v0.17.2</property>
  <property name="meta.attr.MAJOR_BRAND.markup">isom</property>
  <property name="meta.attr.MINOR_VERSION.markup">512</property>
  <property name="meta.attr.COMPATIBLE_BRANDS.markup">isomiso2avc1mp41</property>
  <property name="meta.attr.ENCODER.markup">Lavf60.3.100</property>
  <property name="seekable">1</property>
  <property name="meta.media.sample_aspect_num">1</property>
  <property name="meta.media.sample_aspect_den">1</property>
  <property name="aspect_ratio">1</property>
  <property name="format">3</property>
  <property name="audio_index">-1</property>
  <property name="video_index">0</property>
  <property name="mute_on_pause">0</property>
  <property name="mlt_service">avformat-novalidate</property>
  <property name="kdenlive:clipname">7.mp4</property>
  <property name="kdenlive:clip_type">2</property>
  <property name="kdenlive:folderid">599</property>
  <property name="kdenlive:id">505</property>
  <property name="kdenlive:file_size">60701</property>
  <property name="kdenlive:file_hash">e579d3b76ac05f2690bd91ed09d7523a</property>
  <property name="kdenlive:proxy">/home/xiaoxiae/.cache/kdenlive/proxy/e579d3b76ac05f2690bd91ed09d7523a.mkv</property>
  <property name="kdenlive:originalurl">video/SelectingAB/7.mp4</property>
  <property name="kdenlive:original.mlt_type">producer</property>
  <property name="kdenlive:original.in">00:00:00.000</property>
  <property name="kdenlive:original.out">00:00:00.983</property>
  <property name="kdenlive:original.length">60</property>
  <property name="kdenlive:original.eof">pause</property>
  <property name="kdenlive:original.resource">video/SelectingAB/7.mp4</property>
  <property name="kdenlive:original.meta.media.nb_streams">1</property>
  <property name="kdenlive:original.meta.media.0.stream.type">video</property>
  <property name="kdenlive:original.meta.media.0.stream.frame_rate">60</property>
  <property name="kdenlive:original.meta.media.0.stream.sample_aspect_ratio">0</property>
  <property name="kdenlive:original.meta.media.0.codec.width">3840</property>
  <property name="kdenlive:original.meta.media.0.codec.height">2160</property>
  <property name="kdenlive:original.meta.media.0.codec.rotate">0</property>
  <property name="kdenlive:original.meta.media.0.codec.pix_fmt">yuv420p</property>
  <property name="kdenlive:original.meta.media.0.codec.sample_aspect_ratio">0</property>
  <property name="kdenlive:original.meta.media.0.codec.colorspace">709</property>
  <property name="kdenlive:original.meta.media.0.codec.name">h264</property>
  <property name="kdenlive:original.meta.media.0.codec.long_name">H.264 / AVC / MPEG-4 AVC / MPEG-4 part 10</property>
  <property name="kdenlive:original.meta.media.0.codec.bit_rate">472560</property>
  <property name="kdenlive:original.meta.attr.0.stream.handler_name.markup">VideoHandler</property>
  <property name="kdenlive:original.meta.attr.0.stream.vendor_id.markup">[0][0][0][0]</property>
  <property name="kdenlive:original.meta.attr.0.stream.encoder.markup">Lavc60.3.100 libx264</property>
  <property name="kdenlive:original.meta.attr.major_brand.markup">isom</property>
  <property name="kdenlive:original.meta.attr.minor_version.markup">512</property>
  <property name="kdenlive:original.meta.attr.compatible_brands.markup">isomiso2avc1mp41</property>
  <property name="kdenlive:original.meta.attr.encoder.markup">Lavf60.3.100</property>
  <property name="kdenlive:original.meta.attr.comment.markup">Rendered with Manim Community v0.17.2</property>
  <property name="kdenlive:original.seekable">1</property>
  <property name="kdenlive:original.width">3840</property>
  <property name="kdenlive:original.height">2160</property>
  <property name="kdenlive:original.meta.media.sample_aspect_num">1</property>
  <property name="kdenlive:original.meta.media.sample_aspect_den">1</property>
  <property name="kdenlive:original.aspect_ratio">1</property>
  <property name="kdenlive:original.format">3</property>
  <property name="kdenlive:original.audio_index">-1</property>
  <property name="kdenlive:original.video_index">0</property>
  <property name="kdenlive:original.mute_on_pause">0</property>
  <property name="kdenlive:original.mlt_service">avformat-novalidate</property>
  <property name="kdenlive:original.meta.media.frame_rate_num">60</property>
  <property name="kdenlive:original.meta.media.frame_rate_den">1</property>
  <property name="kdenlive:original.meta.media.colorspace">709</property>
  <property name="kdenlive:original.meta.media.color_trc">2</property>
  <property name="kdenlive:original.meta.media.has_b_frames">2</property>
  <property name="kdenlive:original.meta.media.width">3840</property>
  <property name="kdenlive:original.meta.media.height">2160</property>
  <property name="kdenlive:original.meta.media.color_range">mpeg</property>
  <property name="kdenlive:original.meta.media.top_field_first">0</property>
  <property name="kdenlive:original.meta.media.progressive">1</property>
  <property name="kdenlive:original.kdenlive:clip_type">2</property>
  <property name="kdenlive:original.kdenlive:folderid">599</property>
  <property name="kdenlive:original.kdenlive:id">616</property>
  <property name="kdenlive:original.kdenlive:file_size">60701</property>
  <property name="kdenlive:original.kdenlive:file_hash">e579d3b76ac05f2690bd91ed09d7523a</property>
  <property name="kdenlive:original.backup">1</property>
  <property name="meta.media.frame_rate_num">60</property>
  <property name="meta.media.frame_rate_den">1</property>
  <property name="meta.media.colorspace">601</property>
  <property name="meta.media.color_trc">2</property>
  <property name="meta.media.has_b_frames">0</property>
  <property name="meta.media.width">640</property>
  <property name="meta.media.height">360</property>
  <property name="meta.media.color_range">full</property>
  <property name="meta.media.top_field_first">0</property>
  <property name="meta.media.progressive">1</property>
 </producer>
 <producer id="producer427" in="00:00:00.000" out="00:00:00.983">
  <property name="length">60</property>
  <property name="eof">pause</property>
  <property name="resource">/home/xiaoxiae/.cache/kdenlive/proxy/13dbda35921d1db7385417baeb7a7552.mkv</property>
  <property name="meta.media.nb_streams">1</property>
  <property name="meta.media.0.stream.type">video</property>
  <property name="meta.media.0.stream.frame_rate">60</property>
  <property name="meta.media.0.stream.sample_aspect_ratio">0</property>
  <property name="meta.media.0.codec.width">640</property>
  <property name="meta.media.0.codec.height">360</property>
  <property name="meta.media.0.codec.rotate">0</property>
  <property name="meta.media.0.codec.pix_fmt">yuvj420p</property>
  <property name="meta.media.0.codec.sample_aspect_ratio">0</property>
  <property name="meta.media.0.codec.colorspace">601</property>
  <property name="meta.media.0.codec.name">mjpeg</property>
  <property name="meta.media.0.codec.long_name">MJPEG (Motion JPEG)</property>
  <property name="meta.media.0.codec.bit_rate">0</property>
  <property name="meta.attr.0.stream.HANDLER_NAME.markup">VideoHandler</property>
  <property name="meta.attr.0.stream.VENDOR_ID.markup">[0][0][0][0]</property>
  <property name="meta.attr.0.stream.ENCODER.markup">Lavc60.3.100 mjpeg</property>
  <property name="meta.attr.0.stream.DURATION.markup">00:00:01.000000000</property>
  <property name="meta.attr.COMMENT.markup">Rendered with Manim Community v0.17.2</property>
  <property name="meta.attr.MAJOR_BRAND.markup">isom</property>
  <property name="meta.attr.MINOR_VERSION.markup">512</property>
  <property name="meta.attr.COMPATIBLE_BRANDS.markup">isomiso2avc1mp41</property>
  <property name="meta.attr.ENCODER.markup">Lavf60.3.100</property>
  <property name="seekable">1</property>
  <property name="meta.media.sample_aspect_num">1</property>
  <property name="meta.media.sample_aspect_den">1</property>
  <property name="aspect_ratio">1</property>
  <property name="format">3</property>
  <property name="audio_index">-1</property>
  <property name="video_index">0</property>
  <property name="mute_on_pause">0</property>
  <property name="mlt_service">avformat-novalidate</property>
  <property name="kdenlive:clipname">8.mp4</property>
  <property name="kdenlive:clip_type">2</property>
  <property name="kdenlive:folderid">599</property>
  <property name="kdenlive:id">506</property>
  <property name="kdenlive:file_size">71120</property>
  <property name="kdenlive:file_hash">13dbda35921d1db7385417baeb7a7552</property>
  <property name="kdenlive:proxy">/home/xiaoxiae/.cache/kdenlive/proxy/13dbda35921d1db7385417baeb7a7552.mkv</property>
  <property name="kdenlive:originalurl">video/SelectingAB/8.mp4</property>
  <property name="kdenlive:original.mlt_type">producer</property>
  <property name="kdenlive:original.in">00:00:00.000</property>
  <property name="kdenlive:original.out">00:00:00.983</property>
  <property name="kdenlive:original.length">60</property>
  <property name="kdenlive:original.eof">pause</property>
  <property name="kdenlive:original.resource">video/SelectingAB/8.mp4</property>
  <property name="kdenlive:original.meta.media.nb_streams">1</property>
  <property name="kdenlive:original.meta.media.0.stream.type">video</property>
  <property name="kdenlive:original.meta.media.0.stream.frame_rate">60</property>
  <property name="kdenlive:original.meta.media.0.stream.sample_aspect_ratio">0</property>
  <property name="kdenlive:original.meta.media.0.codec.width">3840</property>
  <property name="kdenlive:original.meta.media.0.codec.height">2160</property>
  <property name="kdenlive:original.meta.media.0.codec.rotate">0</property>
  <property name="kdenlive:original.meta.media.0.codec.pix_fmt">yuv420p</property>
  <property name="kdenlive:original.meta.media.0.codec.sample_aspect_ratio">0</property>
  <property name="kdenlive:original.meta.media.0.codec.colorspace">709</property>
  <property name="kdenlive:original.meta.media.0.codec.name">h264</property>
  <property name="kdenlive:original.meta.media.0.codec.long_name">H.264 / AVC / MPEG-4 AVC / MPEG-4 part 10</property>
  <property name="kdenlive:original.meta.media.0.codec.bit_rate">556872</property>
  <property name="kdenlive:original.meta.attr.0.stream.handler_name.markup">VideoHandler</property>
  <property name="kdenlive:original.meta.attr.0.stream.vendor_id.markup">[0][0][0][0]</property>
  <property name="kdenlive:original.meta.attr.0.stream.encoder.markup">Lavc60.3.100 libx264</property>
  <property name="kdenlive:original.meta.attr.major_brand.markup">isom</property>
  <property name="kdenlive:original.meta.attr.minor_version.markup">512</property>
  <property name="kdenlive:original.meta.attr.compatible_brands.markup">isomiso2avc1mp41</property>
  <property name="kdenlive:original.meta.attr.encoder.markup">Lavf60.3.100</property>
  <property name="kdenlive:original.meta.attr.comment.markup">Rendered with Manim Community v0.17.2</property>
  <property name="kdenlive:original.seekable">1</property>
  <property name="kdenlive:original.width">3840</property>
  <property name="kdenlive:original.height">2160</property>
  <property name="kdenlive:original.meta.media.sample_aspect_num">1</property>
  <property name="kdenlive:original.meta.media.sample_aspect_den">1</property>
  <property name="kdenlive:original.aspect_ratio">1</property>
  <property name="kdenlive:original.format">3</property>
  <property name="kdenlive:original.audio_index">-1</property>
  <property name="kdenlive:original.video_index">0</property>
  <property name="kdenlive:original.mute_on_pause">0</property>
  <property name="kdenlive:original.mlt_service">avformat-novalidate</property>
  <property name="kdenlive:original.meta.media.frame_rate_num">60</property>
  <property name="kdenlive:original.meta.media.frame_rate_den">1</property>
  <property name="kdenlive:original.meta.media.colorspace">709</property>
  <property name="kdenlive:original.meta.media.color_trc">2</property>
  <property name="kdenlive:original.meta.media.has_b_frames">2</property>
  <property name="kdenlive:original.meta.media.width">3840</property>
  <property name="kdenlive:original.meta.media.height">2160</property>
  <property name="kdenlive:original.meta.media.color_range">mpeg</property>
  <property name="kdenlive:original.meta.media.top_field_first">0</property>
  <property name="kdenlive:original.meta.media.progressive">1</property>
  <property name="kdenlive:original.kdenlive:clip_type">2</property>
  <property name="kdenlive:original.kdenlive:folderid">599</property>
  <property name="kdenlive:original.kdenlive:id">617</property>
  <property name="kdenlive:original.kdenlive:file_size">71120</property>
  <property name="kdenlive:original.kdenlive:file_hash">13dbda35921d1db7385417baeb7a7552</property>
  <property name="kdenlive:original.backup">1</property>
  <property name="meta.media.frame_rate_num">60</property>
  <property name="meta.media.frame_rate_den">1</property>
  <property name="meta.media.colorspace">601</property>
  <property name="meta.media.color_trc">2</property>
  <property name="meta.media.has_b_frames">0</property>
  <property name="meta.media.width">640</property>
  <property name="meta.media.height">360</property>
  <property name="meta.media.color_range">full</property>
  <property name="meta.media.top_field_first">0</property>
  <property name="meta.media.progressive">1</property>
 </producer>
 <producer id="producer428" in="00:00:00.000" out="00:00:00.983">
  <property name="length">60</property>
  <property name="eof">pause</property>
  <property name="resource">/home/xiaoxiae/.cache/kdenlive/proxy/dd074da46f6b43b17130c1e2ea895964.mkv</property>
  <property name="meta.media.nb_streams">1</property>
  <property name="meta.media.0.stream.type">video</property>
  <property name="meta.media.0.stream.frame_rate">60</property>
  <property name="meta.media.0.stream.sample_aspect_ratio">0</property>
  <property name="meta.media.0.codec.width">640</property>
  <property name="meta.media.0.codec.height">360</property>
  <property name="meta.media.0.codec.rotate">0</property>
  <property name="meta.media.0.codec.pix_fmt">yuvj420p</property>
  <property name="meta.media.0.codec.sample_aspect_ratio">0</property>
  <property name="meta.media.0.codec.colorspace">601</property>
  <property name="meta.media.0.codec.name">mjpeg</property>
  <property name="meta.media.0.codec.long_name">MJPEG (Motion JPEG)</property>
  <property name="meta.media.0.codec.bit_rate">0</property>
  <property name="meta.attr.0.stream.HANDLER_NAME.markup">VideoHandler</property>
  <property name="meta.attr.0.stream.VENDOR_ID.markup">[0][0][0][0]</property>
  <property name="meta.attr.0.stream.ENCODER.markup">Lavc60.3.100 mjpeg</property>
  <property name="meta.attr.0.stream.DURATION.markup">00:00:01.000000000</property>
  <property name="meta.attr.COMMENT.markup">Rendered with Manim Community v0.17.2</property>
  <property name="meta.attr.MAJOR_BRAND.markup">isom</property>
  <property name="meta.attr.MINOR_VERSION.markup">512</property>
  <property name="meta.attr.COMPATIBLE_BRANDS.markup">isomiso2avc1mp41</property>
  <property name="meta.attr.ENCODER.markup">Lavf60.3.100</property>
  <property name="seekable">1</property>
  <property name="meta.media.sample_aspect_num">1</property>
  <property name="meta.media.sample_aspect_den">1</property>
  <property name="aspect_ratio">1</property>
  <property name="format">3</property>
  <property name="audio_index">-1</property>
  <property name="video_index">0</property>
  <property name="mute_on_pause">0</property>
  <property name="mlt_service">avformat-novalidate</property>
  <property name="kdenlive:clipname">9.mp4</property>
  <property name="kdenlive:clip_type">2</property>
  <property name="kdenlive:folderid">599</property>
  <property name="kdenlive:id">507</property>
  <property name="kdenlive:file_size">44303</property>
  <property name="kdenlive:file_hash">dd074da46f6b43b17130c1e2ea895964</property>
  <property name="kdenlive:proxy">/home/xiaoxiae/.cache/kdenlive/proxy/dd074da46f6b43b17130c1e2ea895964.mkv</property>
  <property name="kdenlive:originalurl">video/SelectingAB/9.mp4</property>
  <property name="kdenlive:original.mlt_type">producer</property>
  <property name="kdenlive:original.in">00:00:00.000</property>
  <property name="kdenlive:original.out">00:00:00.983</property>
  <property name="kdenlive:original.length">60</property>
  <property name="kdenlive:original.eof">pause</property>
  <property name="kdenlive:original.resource">video/SelectingAB/9.mp4</property>
  <property name="kdenlive:original.meta.media.nb_streams">1</property>
  <property name="kdenlive:original.meta.media.0.stream.type">video</property>
  <property name="kdenlive:original.meta.media.0.stream.frame_rate">60</property>
  <property name="kdenlive:original.meta.media.0.stream.sample_aspect_ratio">0</property>
  <property name="kdenlive:original.meta.media.0.codec.width">3840</property>
  <property name="kdenlive:original.meta.media.0.codec.height">2160</property>
  <property name="kdenlive:original.meta.media.0.codec.rotate">0</property>
  <property name="kdenlive:original.meta.media.0.codec.pix_fmt">yuv420p</property>
  <property name="kdenlive:original.meta.media.0.codec.sample_aspect_ratio">0</property>
  <property name="kdenlive:original.meta.media.0.codec.colorspace">709</property>
  <property name="kdenlive:original.meta.media.0.codec.name">h264</property>
  <property name="kdenlive:original.meta.media.0.codec.long_name">H.264 / AVC / MPEG-4 AVC / MPEG-4 part 10</property>
  <property name="kdenlive:original.meta.media.0.codec.bit_rate">341440</property>
  <property name="kdenlive:original.meta.attr.0.stream.handler_name.markup">VideoHandler</property>
  <property name="kdenlive:original.meta.attr.0.stream.vendor_id.markup">[0][0][0][0]</property>
  <property name="kdenlive:original.meta.attr.0.stream.encoder.markup">Lavc60.3.100 libx264</property>
  <property name="kdenlive:original.meta.attr.major_brand.markup">isom</property>
  <property name="kdenlive:original.meta.attr.minor_version.markup">512</property>
  <property name="kdenlive:original.meta.attr.compatible_brands.markup">isomiso2avc1mp41</property>
  <property name="kdenlive:original.meta.attr.encoder.markup">Lavf60.3.100</property>
  <property name="kdenlive:original.meta.attr.comment.markup">Rendered with Manim Community v0.17.2</property>
  <property name="kdenlive:original.seekable">1</property>
  <property name="kdenlive:original.width">3840</property>
  <property name="kdenlive:original.height">2160</property>
  <property name="kdenlive:original.meta.media.sample_aspect_num">1</property>
  <property name="kdenlive:original.meta.media.sample_aspect_den">1</property>
  <property name="kdenlive:original.aspect_ratio">1</property>
  <property name="kdenlive:original.format">3</property>
  <property name="kdenlive:original.audio_index">-1</property>
  <property name="kdenlive:original.video_index">0</property>
  <property name="kdenlive:original.mute_on_pause">0</property>
  <property name="kdenlive:original.mlt_service">avformat-novalidate</property>
  <property name="kdenlive:original.meta.media.frame_rate_num">60</property>
  <property name="kdenlive:original.meta.media.frame_rate_den">1</property>
  <property name="kdenlive:original.meta.media.colorspace">709</property>
  <property name="kdenlive:original.meta.media.color_trc">2</property>
  <property name="kdenlive:original.meta.media.has_b_frames">2</property>
  <property name="kdenlive:original.meta.media.width">3840</property>
  <property name="kdenlive:original.meta.media.height">2160</property>
  <property name="kdenlive:original.meta.media.color_range">mpeg</property>
  <property name="kdenlive:original.meta.media.top_field_first">0</property>
  <property name="kdenlive:original.meta.media.progressive">1</property>
  <property name="kdenlive:original.kdenlive:clip_type">2</property>
  <property name="kdenlive:original.kdenlive:folderid">599</property>
  <property name="kdenlive:original.kdenlive:id">618</property>
  <property name="kdenlive:original.kdenlive:file_size">44303</property>
  <property name="kdenlive:original.kdenlive:file_hash">dd074da46f6b43b17130c1e2ea895964</property>
  <property name="kdenlive:original.backup">1</property>
  <property name="meta.media.frame_rate_num">60</property>
  <property name="meta.media.frame_rate_den">1</property>
  <property name="meta.media.colorspace">601</property>
  <property name="meta.media.color_trc">2</property>
  <property name="meta.media.has_b_frames">0</property>
  <property name="meta.media.width">640</property>
  <property name="meta.media.height">360</property>
  <property name="meta.media.color_range">full</property>
  <property name="meta.media.top_field_first">0</property>
  <property name="meta.media.progressive">1</property>
 </producer>
 <producer id="producer429" in="00:00:00.000" out="00:00:00.983">
  <property name="length">60</property>
  <property name="eof">pause</property>
  <property name="resource">/home/xiaoxiae/.cache/kdenlive/proxy/b4b95bb71e8e21b699fa6cdf36507ca9.mkv</property>
  <property name="meta.media.nb_streams">1</property>
  <property name="meta.media.0.stream.type">video</property>
  <property name="meta.media.0.stream.frame_rate">60</property>
  <property name="meta.media.0.stream.sample_aspect_ratio">0</property>
  <property name="meta.media.0.codec.width">640</property>
  <property name="meta.media.0.codec.height">360</property>
  <property name="meta.media.0.codec.rotate">0</property>
  <property name="meta.media.0.codec.pix_fmt">yuvj420p</property>
  <property name="meta.media.0.codec.sample_aspect_ratio">0</property>
  <property name="meta.media.0.codec.colorspace">601</property>
  <property name="meta.media.0.codec.name">mjpeg</property>
  <property name="meta.media.0.codec.long_name">MJPEG (Motion JPEG)</property>
  <property name="meta.media.0.codec.bit_rate">0</property>
  <property name="meta.attr.0.stream.HANDLER_NAME.markup">VideoHandler</property>
  <property name="meta.attr.0.stream.VENDOR_ID.markup">[0][0][0][0]</property>
  <property name="meta.attr.0.stream.ENCODER.markup">Lavc60.3.100 mjpeg</property>
  <property name="meta.attr.0.stream.DURATION.markup">00:00:01.000000000</property>
  <property name="meta.attr.COMMENT.markup">Rendered with Manim Community v0.17.2</property>
  <property name="meta.attr.MAJOR_BRAND.markup">isom</property>
  <property name="meta.attr.MINOR_VERSION.markup">512</property>
  <property name="meta.attr.COMPATIBLE_BRANDS.markup">isomiso2avc1mp41</property>
  <property name="meta.attr.ENCODER.markup">Lavf60.3.100</property>
  <property name="seekable">1</property>
  <property name="meta.media.sample_aspect_num">1</property>
  <property name="meta.media.sample_aspect_den">1</property>
  <property name="aspect_ratio">1</property>
  <property name="format">3</property>
  <property name="audio_index">-1</property>
  <property name="video_index">0</property>
  <property name="mute_on_pause">0</property>
  <property name="mlt_service">avformat-novalidate</property>
  <property name="kdenlive:clipname">1.mp4</property>
  <property name="kdenlive:clip_type">2</property>
  <property name="kdenlive:folderid">619</property>
  <property name="kdenlive:id">508</property>
  <property name="kdenlive:file_size">33100</property>
  <property name="kdenlive:file_hash">b4b95bb71e8e21b699fa6cdf36507ca9</property>
  <property name="kdenlive:proxy">/home/xiaoxiae/.cache/kdenlive/proxy/b4b95bb71e8e21b699fa6cdf36507ca9.mkv</property>
  <property name="kdenlive:originalurl">video/Summary/1.mp4</property>
  <property name="kdenlive:original.mlt_type">producer</property>
  <property name="kdenlive:original.in">00:00:00.000</property>
  <property name="kdenlive:original.out">00:00:00.983</property>
  <property name="kdenlive:original.length">60</property>
  <property name="kdenlive:original.eof">pause</property>
  <property name="kdenlive:original.resource">video/Summary/1.mp4</property>
  <property name="kdenlive:original.meta.media.nb_streams">1</property>
  <property name="kdenlive:original.meta.media.0.stream.type">video</property>
  <property name="kdenlive:original.meta.media.0.stream.frame_rate">60</property>
  <property name="kdenlive:original.meta.media.0.stream.sample_aspect_ratio">0</property>
  <property name="kdenlive:original.meta.media.0.codec.width">3840</property>
  <property name="kdenlive:original.meta.media.0.codec.height">2160</property>
  <property name="kdenlive:original.meta.media.0.codec.rotate">0</property>
  <property name="kdenlive:original.meta.media.0.codec.pix_fmt">yuv420p</property>
  <property name="kdenlive:original.meta.media.0.codec.sample_aspect_ratio">0</property>
  <property name="kdenlive:original.meta.media.0.codec.colorspace">709</property>
  <property name="kdenlive:original.meta.media.0.codec.name">h264</property>
  <property name="kdenlive:original.meta.media.0.codec.long_name">H.264 / AVC / MPEG-4 AVC / MPEG-4 part 10</property>
  <property name="kdenlive:original.meta.media.0.codec.bit_rate">252008</property>
  <property name="kdenlive:original.meta.attr.0.stream.handler_name.markup">VideoHandler</property>
  <property name="kdenlive:original.meta.attr.0.stream.vendor_id.markup">[0][0][0][0]</property>
  <property name="kdenlive:original.meta.attr.0.stream.encoder.markup">Lavc60.3.100 libx264</property>
  <property name="kdenlive:original.meta.attr.major_brand.markup">isom</property>
  <property name="kdenlive:original.meta.attr.minor_version.markup">512</property>
  <property name="kdenlive:original.meta.attr.compatible_brands.markup">isomiso2avc1mp41</property>
  <property name="kdenlive:original.meta.attr.encoder.markup">Lavf60.3.100</property>
  <property name="kdenlive:original.meta.attr.comment.markup">Rendered with Manim Community v0.17.2</property>
  <property name="kdenlive:original.seekable">1</property>
  <property name="kdenlive:original.width">3840</property>
  <property name="kdenlive:original.height">2160</property>
  <property name="kdenlive:original.meta.media.sample_aspect_num">1</property>
  <property name="kdenlive:original.meta.media.sample_aspect_den">1</property>
  <property name="kdenlive:original.aspect_ratio">1</property>
  <property name="kdenlive:original.format">3</property>
  <property name="kdenlive:original.audio_index">-1</property>
  <property name="kdenlive:original.video_index">0</property>
  <property name="kdenlive:original.mute_on_pause">0</property>
  <property name="kdenlive:original.mlt_service">avformat-novalidate</property>
  <property name="kdenlive:original.meta.media.frame_rate_num">60</property>
  <property name="kdenlive:original.meta.media.frame_rate_den">1</property>
  <property name="kdenlive:original.meta.media.colorspace">709</property>
  <property name="kdenlive:original.meta.media.color_trc">2</property>
  <property name="kdenlive:original.meta.media.has_b_frames">2</property>
  <property name="kdenlive:original.meta.media.width">3840</property>
  <property name="kdenlive:original.meta.media.height">2160</property>
  <property name="kdenlive:original.meta.media.color_range">mpeg</property>
  <property name="kdenlive:original.meta.media.top_field_first">0</property>
  <property name="kdenlive:original.meta.media.progressive">1</property>
  <property name="kdenlive:original.kdenlive:clip_type">2</property>
  <property name="kdenlive:original.kdenlive:folderid">619</property>
  <property name="kdenlive:original.kdenlive:id">620</property>
  <property name="kdenlive:original.kdenlive:file_size">33100</property>
  <property name="kdenlive:original.kdenlive:file_hash">b4b95bb71e8e21b699fa6cdf36507ca9</property>
  <property name="kdenlive:original.backup">1</property>
  <property name="meta.media.frame_rate_num">60</property>
  <property name="meta.media.frame_rate_den">1</property>
  <property name="meta.media.colorspace">601</property>
  <property name="meta.media.color_trc">2</property>
  <property name="meta.media.has_b_frames">0</property>
  <property name="meta.media.width">640</property>
  <property name="meta.media.height">360</property>
  <property name="meta.media.color_range">full</property>
  <property name="meta.media.top_field_first">0</property>
  <property name="meta.media.progressive">1</property>
 </producer>
 <producer id="producer430" in="00:00:00.000" out="00:00:00.983">
  <property name="length">60</property>
  <property name="eof">pause</property>
  <property name="resource">/home/xiaoxiae/.cache/kdenlive/proxy/fbeb4898ad72526bef6be2dda9b82bea.mkv</property>
  <property name="meta.media.nb_streams">1</property>
  <property name="meta.media.0.stream.type">video</property>
  <property name="meta.media.0.stream.frame_rate">60</property>
  <property name="meta.media.0.stream.sample_aspect_ratio">0</property>
  <property name="meta.media.0.codec.width">640</property>
  <property name="meta.media.0.codec.height">360</property>
  <property name="meta.media.0.codec.rotate">0</property>
  <property name="meta.media.0.codec.pix_fmt">yuvj420p</property>
  <property name="meta.media.0.codec.sample_aspect_ratio">0</property>
  <property name="meta.media.0.codec.colorspace">601</property>
  <property name="meta.media.0.codec.name">mjpeg</property>
  <property name="meta.media.0.codec.long_name">MJPEG (Motion JPEG)</property>
  <property name="meta.media.0.codec.bit_rate">0</property>
  <property name="meta.attr.0.stream.HANDLER_NAME.markup">VideoHandler</property>
  <property name="meta.attr.0.stream.VENDOR_ID.markup">[0][0][0][0]</property>
  <property name="meta.attr.0.stream.ENCODER.markup">Lavc60.3.100 mjpeg</property>
  <property name="meta.attr.0.stream.DURATION.markup">00:00:01.000000000</property>
  <property name="meta.attr.COMMENT.markup">Rendered with Manim Community v0.17.2</property>
  <property name="meta.attr.MAJOR_BRAND.markup">isom</property>
  <property name="meta.attr.MINOR_VERSION.markup">512</property>
  <property name="meta.attr.COMPATIBLE_BRANDS.markup">isomiso2avc1mp41</property>
  <property name="meta.attr.ENCODER.markup">Lavf60.3.100</property>
  <property name="seekable">1</property>
  <property name="meta.media.sample_aspect_num">1</property>
  <property name="meta.media.sample_aspect_den">1</property>
  <property name="aspect_ratio">1</property>
  <property name="format">3</property>
  <property name="audio_index">-1</property>
  <property name="video_index">0</property>
  <property name="mute_on_pause">0</property>
  <property name="mlt_service">avformat-novalidate</property>
  <property name="kdenlive:clipname">2.mp4</property>
  <property name="kdenlive:clip_type">2</property>
  <property name="kdenlive:folderid">619</property>
  <property name="kdenlive:id">509</property>
  <property name="kdenlive:file_size">41255</property>
  <property name="kdenlive:file_hash">fbeb4898ad72526bef6be2dda9b82bea</property>
  <property name="kdenlive:proxy">/home/xiaoxiae/.cache/kdenlive/proxy/fbeb4898ad72526bef6be2dda9b82bea.mkv</property>
  <property name="kdenlive:originalurl">video/Summary/2.mp4</property>
  <property name="kdenlive:original.mlt_type">producer</property>
  <property name="kdenlive:original.in">00:00:00.000</property>
  <property name="kdenlive:original.out">00:00:00.983</property>
  <property name="kdenlive:original.length">60</property>
  <property name="kdenlive:original.eof">pause</property>
  <property name="kdenlive:original.resource">video/Summary/2.mp4</property>
  <property name="kdenlive:original.meta.media.nb_streams">1</property>
  <property name="kdenlive:original.meta.media.0.stream.type">video</property>
  <property name="kdenlive:original.meta.media.0.stream.frame_rate">60</property>
  <property name="kdenlive:original.meta.media.0.stream.sample_aspect_ratio">0</property>
  <property name="kdenlive:original.meta.media.0.codec.width">3840</property>
  <property name="kdenlive:original.meta.media.0.codec.height">2160</property>
  <property name="kdenlive:original.meta.media.0.codec.rotate">0</property>
  <property name="kdenlive:original.meta.media.0.codec.pix_fmt">yuv420p</property>
  <property name="kdenlive:original.meta.media.0.codec.sample_aspect_ratio">0</property>
  <property name="kdenlive:original.meta.media.0.codec.colorspace">709</property>
  <property name="kdenlive:original.meta.media.0.codec.name">h264</property>
  <property name="kdenlive:original.meta.media.0.codec.long_name">H.264 / AVC / MPEG-4 AVC / MPEG-4 part 10</property>
  <property name="kdenlive:original.meta.media.0.codec.bit_rate">316992</property>
  <property name="kdenlive:original.meta.attr.0.stream.handler_name.markup">VideoHandler</property>
  <property name="kdenlive:original.meta.attr.0.stream.vendor_id.markup">[0][0][0][0]</property>
  <property name="kdenlive:original.meta.attr.0.stream.encoder.markup">Lavc60.3.100 libx264</property>
  <property name="kdenlive:original.meta.attr.major_brand.markup">isom</property>
  <property name="kdenlive:original.meta.attr.minor_version.markup">512</property>
  <property name="kdenlive:original.meta.attr.compatible_brands.markup">isomiso2avc1mp41</property>
  <property name="kdenlive:original.meta.attr.encoder.markup">Lavf60.3.100</property>
  <property name="kdenlive:original.meta.attr.comment.markup">Rendered with Manim Community v0.17.2</property>
  <property name="kdenlive:original.seekable">1</property>
  <property name="kdenlive:original.width">3840</property>
  <property name="kdenlive:original.height">2160</property>
  <property name="kdenlive:original.meta.media.sample_aspect_num">1</property>
  <property name="kdenlive:original.meta.media.sample_aspect_den">1</property>
  <property name="kdenlive:original.aspect_ratio">1</property>
  <property name="kdenlive:original.format">3</property>
  <property name="kdenlive:original.audio_index">-1</property>
  <property name="kdenlive:original.video_index">0</property>
  <property name="kdenlive:original.mute_on_pause">0</property>
  <property name="kdenlive:original.mlt_service">avformat-novalidate</property>
  <property name="kdenlive:original.meta.media.frame_rate_num">60</property>
  <property name="kdenlive:original.meta.media.frame_rate_den">1</property>
  <property name="kdenlive:original.meta.media.colorspace">709</property>
  <property name="kdenlive:original.meta.media.color_trc">2</property>
  <property name="kdenlive:original.meta.media.has_b_frames">2</property>
  <property name="kdenlive:original.meta.media.width">3840</property>
  <property name="kdenlive:original.meta.media.height">2160</property>
  <property name="kdenlive:original.meta.media.color_range">mpeg</property>
  <property name="kdenlive:original.meta.media.top_field_first">0</property>
  <property name="kdenlive:original.meta.media.progressive">1</property>
  <property name="kdenlive:original.kdenlive:clip_type">2</property>
  <property name="kdenlive:original.kdenlive:folderid">619</property>
  <property name="kdenlive:original.kdenlive:id">621</property>
  <property name="kdenlive:original.kdenlive:file_size">41255</property>
  <property name="kdenlive:original.kdenlive:file_hash">fbeb4898ad72526bef6be2dda9b82bea</property>
  <property name="kdenlive:original.backup">1</property>
  <property name="meta.media.frame_rate_num">60</property>
  <property name="meta.media.frame_rate_den">1</property>
  <property name="meta.media.colorspace">601</property>
  <property name="meta.media.color_trc">2</property>
  <property name="meta.media.has_b_frames">0</property>
  <property name="meta.media.width">640</property>
  <property name="meta.media.height">360</property>
  <property name="meta.media.color_range">full</property>
  <property name="meta.media.top_field_first">0</property>
  <property name="meta.media.progressive">1</property>
 </producer>
 <producer id="producer431" in="00:00:00.000" out="00:00:01.483">
  <property name="length">90</property>
  <property name="eof">pause</property>
  <property name="resource">/home/xiaoxiae/.cache/kdenlive/proxy/2c28a20a598f6280a0605e613c06c736.mkv</property>
  <property name="meta.media.nb_streams">1</property>
  <property name="meta.media.0.stream.type">video</property>
  <property name="meta.media.0.stream.frame_rate">60</property>
  <property name="meta.media.0.stream.sample_aspect_ratio">0</property>
  <property name="meta.media.0.codec.width">640</property>
  <property name="meta.media.0.codec.height">360</property>
  <property name="meta.media.0.codec.rotate">0</property>
  <property name="meta.media.0.codec.pix_fmt">yuvj420p</property>
  <property name="meta.media.0.codec.sample_aspect_ratio">0</property>
  <property name="meta.media.0.codec.colorspace">601</property>
  <property name="meta.media.0.codec.name">mjpeg</property>
  <property name="meta.media.0.codec.long_name">MJPEG (Motion JPEG)</property>
  <property name="meta.media.0.codec.bit_rate">0</property>
  <property name="meta.attr.0.stream.HANDLER_NAME.markup">VideoHandler</property>
  <property name="meta.attr.0.stream.VENDOR_ID.markup">[0][0][0][0]</property>
  <property name="meta.attr.0.stream.ENCODER.markup">Lavc60.3.100 mjpeg</property>
  <property name="meta.attr.0.stream.DURATION.markup">00:00:01.500000000</property>
  <property name="meta.attr.COMMENT.markup">Rendered with Manim Community v0.17.2</property>
  <property name="meta.attr.MAJOR_BRAND.markup">isom</property>
  <property name="meta.attr.MINOR_VERSION.markup">512</property>
  <property name="meta.attr.COMPATIBLE_BRANDS.markup">isomiso2avc1mp41</property>
  <property name="meta.attr.ENCODER.markup">Lavf60.3.100</property>
  <property name="seekable">1</property>
  <property name="meta.media.sample_aspect_num">1</property>
  <property name="meta.media.sample_aspect_den">1</property>
  <property name="aspect_ratio">1</property>
  <property name="format">3</property>
  <property name="audio_index">-1</property>
  <property name="video_index">0</property>
  <property name="mute_on_pause">0</property>
  <property name="mlt_service">avformat-novalidate</property>
  <property name="kdenlive:clipname">3.mp4</property>
  <property name="kdenlive:clip_type">2</property>
  <property name="kdenlive:folderid">619</property>
  <property name="kdenlive:id">510</property>
  <property name="kdenlive:file_size">106322</property>
  <property name="kdenlive:file_hash">2c28a20a598f6280a0605e613c06c736</property>
  <property name="kdenlive:proxy">/home/xiaoxiae/.cache/kdenlive/proxy/2c28a20a598f6280a0605e613c06c736.mkv</property>
  <property name="kdenlive:originalurl">video/Summary/3.mp4</property>
  <property name="kdenlive:original.mlt_type">producer</property>
  <property name="kdenlive:original.in">00:00:00.000</property>
  <property name="kdenlive:original.out">00:00:01.483</property>
  <property name="kdenlive:original.length">90</property>
  <property name="kdenlive:original.eof">pause</property>
  <property name="kdenlive:original.resource">video/Summary/3.mp4</property>
  <property name="kdenlive:original.meta.media.nb_streams">1</property>
  <property name="kdenlive:original.meta.media.0.stream.type">video</property>
  <property name="kdenlive:original.meta.media.0.stream.frame_rate">60</property>
  <property name="kdenlive:original.meta.media.0.stream.sample_aspect_ratio">0</property>
  <property name="kdenlive:original.meta.media.0.codec.width">3840</property>
  <property name="kdenlive:original.meta.media.0.codec.height">2160</property>
  <property name="kdenlive:original.meta.media.0.codec.rotate">0</property>
  <property name="kdenlive:original.meta.media.0.codec.pix_fmt">yuv420p</property>
  <property name="kdenlive:original.meta.media.0.codec.sample_aspect_ratio">0</property>
  <property name="kdenlive:original.meta.media.0.codec.colorspace">709</property>
  <property name="kdenlive:original.meta.media.0.codec.name">h264</property>
  <property name="kdenlive:original.meta.media.0.codec.long_name">H.264 / AVC / MPEG-4 AVC / MPEG-4 part 10</property>
  <property name="kdenlive:original.meta.media.0.codec.bit_rate">556389</property>
  <property name="kdenlive:original.meta.attr.0.stream.handler_name.markup">VideoHandler</property>
  <property name="kdenlive:original.meta.attr.0.stream.vendor_id.markup">[0][0][0][0]</property>
  <property name="kdenlive:original.meta.attr.0.stream.encoder.markup">Lavc60.3.100 libx264</property>
  <property name="kdenlive:original.meta.attr.major_brand.markup">isom</property>
  <property name="kdenlive:original.meta.attr.minor_version.markup">512</property>
  <property name="kdenlive:original.meta.attr.compatible_brands.markup">isomiso2avc1mp41</property>
  <property name="kdenlive:original.meta.attr.encoder.markup">Lavf60.3.100</property>
  <property name="kdenlive:original.meta.attr.comment.markup">Rendered with Manim Community v0.17.2</property>
  <property name="kdenlive:original.seekable">1</property>
  <property name="kdenlive:original.width">3840</property>
  <property name="kdenlive:original.height">2160</property>
  <property name="kdenlive:original.meta.media.sample_aspect_num">1</property>
  <property name="kdenlive:original.meta.media.sample_aspect_den">1</property>
  <property name="kdenlive:original.aspect_ratio">1</property>
  <property name="kdenlive:original.format">3</property>
  <property name="kdenlive:original.audio_index">-1</property>
  <property name="kdenlive:original.video_index">0</property>
  <property name="kdenlive:original.mute_on_pause">0</property>
  <property name="kdenlive:original.mlt_service">avformat-novalidate</property>
  <property name="kdenlive:original.meta.media.frame_rate_num">60</property>
  <property name="kdenlive:original.meta.media.frame_rate_den">1</property>
  <property name="kdenlive:original.meta.media.colorspace">709</property>
  <property name="kdenlive:original.meta.media.color_trc">2</property>
  <property name="kdenlive:original.meta.media.has_b_frames">2</property>
  <property name="kdenlive:original.meta.media.width">3840</property>
  <property name="kdenlive:original.meta.media.height">2160</property>
  <property name="kdenlive:original.meta.media.color_range">mpeg</property>
  <property name="kdenlive:original.meta.media.top_field_first">0</property>
  <property name="kdenlive:original.meta.media.progressive">1</property>
  <property name="kdenlive:original.kdenlive:clip_type">2</property>
  <property name="kdenlive:original.kdenlive:folderid">619</property>
  <property name="kdenlive:original.kdenlive:id">622</property>
  <property name="kdenlive:original.kdenlive:file_size">106322</property>
  <property name="kdenlive:original.kdenlive:file_hash">2c28a20a598f6280a0605e613c06c736</property>
  <property name="kdenlive:original.backup">1</property>
  <property name="meta.media.frame_rate_num">60</property>
  <property name="meta.media.frame_rate_den">1</property>
  <property name="meta.media.colorspace">601</property>
  <property name="meta.media.color_trc">2</property>
  <property name="meta.media.has_b_frames">0</property>
  <property name="meta.media.width">640</property>
  <property name="meta.media.height">360</property>
  <property name="meta.media.color_range">full</property>
  <property name="meta.media.top_field_first">0</property>
  <property name="meta.media.progressive">1</property>
 </producer>
 <producer id="producer432" in="00:00:00.000" out="00:00:00.983">
  <property name="length">60</property>
  <property name="eof">pause</property>
  <property name="resource">/home/xiaoxiae/.cache/kdenlive/proxy/3f692708397a8a8b0fafc7b04f016768.mkv</property>
  <property name="meta.media.nb_streams">1</property>
  <property name="meta.media.0.stream.type">video</property>
  <property name="meta.media.0.stream.frame_rate">60</property>
  <property name="meta.media.0.stream.sample_aspect_ratio">0</property>
  <property name="meta.media.0.codec.width">640</property>
  <property name="meta.media.0.codec.height">360</property>
  <property name="meta.media.0.codec.rotate">0</property>
  <property name="meta.media.0.codec.pix_fmt">yuvj420p</property>
  <property name="meta.media.0.codec.sample_aspect_ratio">0</property>
  <property name="meta.media.0.codec.colorspace">601</property>
  <property name="meta.media.0.codec.name">mjpeg</property>
  <property name="meta.media.0.codec.long_name">MJPEG (Motion JPEG)</property>
  <property name="meta.media.0.codec.bit_rate">0</property>
  <property name="meta.attr.0.stream.HANDLER_NAME.markup">VideoHandler</property>
  <property name="meta.attr.0.stream.VENDOR_ID.markup">[0][0][0][0]</property>
  <property name="meta.attr.0.stream.ENCODER.markup">Lavc60.3.100 mjpeg</property>
  <property name="meta.attr.0.stream.DURATION.markup">00:00:01.000000000</property>
  <property name="meta.attr.COMMENT.markup">Rendered with Manim Community v0.17.2</property>
  <property name="meta.attr.MAJOR_BRAND.markup">isom</property>
  <property name="meta.attr.MINOR_VERSION.markup">512</property>
  <property name="meta.attr.COMPATIBLE_BRANDS.markup">isomiso2avc1mp41</property>
  <property name="meta.attr.ENCODER.markup">Lavf60.3.100</property>
  <property name="seekable">1</property>
  <property name="meta.media.sample_aspect_num">1</property>
  <property name="meta.media.sample_aspect_den">1</property>
  <property name="aspect_ratio">1</property>
  <property name="format">3</property>
  <property name="audio_index">-1</property>
  <property name="video_index">0</property>
  <property name="mute_on_pause">0</property>
  <property name="mlt_service">avformat-novalidate</property>
  <property name="kdenlive:clipname">4.mp4</property>
  <property name="kdenlive:clip_type">2</property>
  <property name="kdenlive:folderid">619</property>
  <property name="kdenlive:id">511</property>
  <property name="kdenlive:file_size">62156</property>
  <property name="kdenlive:file_hash">3f692708397a8a8b0fafc7b04f016768</property>
  <property name="kdenlive:proxy">/home/xiaoxiae/.cache/kdenlive/proxy/3f692708397a8a8b0fafc7b04f016768.mkv</property>
  <property name="kdenlive:originalurl">video/Summary/4.mp4</property>
  <property name="kdenlive:original.mlt_type">producer</property>
  <property name="kdenlive:original.in">00:00:00.000</property>
  <property name="kdenlive:original.out">00:00:00.983</property>
  <property name="kdenlive:original.length">60</property>
  <property name="kdenlive:original.eof">pause</property>
  <property name="kdenlive:original.resource">video/Summary/4.mp4</property>
  <property name="kdenlive:original.meta.media.nb_streams">1</property>
  <property name="kdenlive:original.meta.media.0.stream.type">video</property>
  <property name="kdenlive:original.meta.media.0.stream.frame_rate">60</property>
  <property name="kdenlive:original.meta.media.0.stream.sample_aspect_ratio">0</property>
  <property name="kdenlive:original.meta.media.0.codec.width">3840</property>
  <property name="kdenlive:original.meta.media.0.codec.height">2160</property>
  <property name="kdenlive:original.meta.media.0.codec.rotate">0</property>
  <property name="kdenlive:original.meta.media.0.codec.pix_fmt">yuv420p</property>
  <property name="kdenlive:original.meta.media.0.codec.sample_aspect_ratio">0</property>
  <property name="kdenlive:original.meta.media.0.codec.colorspace">709</property>
  <property name="kdenlive:original.meta.media.0.codec.name">h264</property>
  <property name="kdenlive:original.meta.media.0.codec.long_name">H.264 / AVC / MPEG-4 AVC / MPEG-4 part 10</property>
  <property name="kdenlive:original.meta.media.0.codec.bit_rate">484200</property>
  <property name="kdenlive:original.meta.attr.0.stream.handler_name.markup">VideoHandler</property>
  <property name="kdenlive:original.meta.attr.0.stream.vendor_id.markup">[0][0][0][0]</property>
  <property name="kdenlive:original.meta.attr.0.stream.encoder.markup">Lavc60.3.100 libx264</property>
  <property name="kdenlive:original.meta.attr.major_brand.markup">isom</property>
  <property name="kdenlive:original.meta.attr.minor_version.markup">512</property>
  <property name="kdenlive:original.meta.attr.compatible_brands.markup">isomiso2avc1mp41</property>
  <property name="kdenlive:original.meta.attr.encoder.markup">Lavf60.3.100</property>
  <property name="kdenlive:original.meta.attr.comment.markup">Rendered with Manim Community v0.17.2</property>
  <property name="kdenlive:original.seekable">1</property>
  <property name="kdenlive:original.width">3840</property>
  <property name="kdenlive:original.height">2160</property>
  <property name="kdenlive:original.meta.media.sample_aspect_num">1</property>
  <property name="kdenlive:original.meta.media.sample_aspect_den">1</property>
  <property name="kdenlive:original.aspect_ratio">1</property>
  <property name="kdenlive:original.format">3</property>
  <property name="kdenlive:original.audio_index">-1</property>
  <property name="kdenlive:original.video_index">0</property>
  <property name="kdenlive:original.mute_on_pause">0</property>
  <property name="kdenlive:original.mlt_service">avformat-novalidate</property>
  <property name="kdenlive:original.meta.media.frame_rate_num">60</property>
  <property name="kdenlive:original.meta.media.frame_rate_den">1</property>
  <property name="kdenlive:original.meta.media.colorspace">709</property>
  <property name="kdenlive:original.meta.media.color_trc">2</property>
  <property name="kdenlive:original.meta.media.has_b_frames">2</property>
  <property name="kdenlive:original.meta.media.width">3840</property>
  <property name="kdenlive:original.meta.media.height">2160</property>
  <property name="kdenlive:original.meta.media.color_range">mpeg</property>
  <property name="kdenlive:original.meta.media.top_field_first">0</property>
  <property name="kdenlive:original.meta.media.progressive">1</property>
  <property name="kdenlive:original.kdenlive:clip_type">2</property>
  <property name="kdenlive:original.kdenlive:folderid">619</property>
  <property name="kdenlive:original.kdenlive:id">623</property>
  <property name="kdenlive:original.kdenlive:file_size">62156</property>
  <property name="kdenlive:original.kdenlive:file_hash">3f692708397a8a8b0fafc7b04f016768</property>
  <property name="kdenlive:original.backup">1</property>
  <property name="meta.media.frame_rate_num">60</property>
  <property name="meta.media.frame_rate_den">1</property>
  <property name="meta.media.colorspace">601</property>
  <property name="meta.media.color_trc">2</property>
  <property name="meta.media.has_b_frames">0</property>
  <property name="meta.media.width">640</property>
  <property name="meta.media.height">360</property>
  <property name="meta.media.color_range">full</property>
  <property name="meta.media.top_field_first">0</property>
  <property name="meta.media.progressive">1</property>
 </producer>
 <producer id="producer433" in="00:00:00.000" out="00:00:01.483">
  <property name="length">90</property>
  <property name="eof">pause</property>
  <property name="resource">/home/xiaoxiae/.cache/kdenlive/proxy/c18926365d91f3e8c5a387b7be36b85e.mkv</property>
  <property name="meta.media.nb_streams">1</property>
  <property name="meta.media.0.stream.type">video</property>
  <property name="meta.media.0.stream.frame_rate">60</property>
  <property name="meta.media.0.stream.sample_aspect_ratio">0</property>
  <property name="meta.media.0.codec.width">640</property>
  <property name="meta.media.0.codec.height">360</property>
  <property name="meta.media.0.codec.rotate">0</property>
  <property name="meta.media.0.codec.pix_fmt">yuvj420p</property>
  <property name="meta.media.0.codec.sample_aspect_ratio">0</property>
  <property name="meta.media.0.codec.colorspace">601</property>
  <property name="meta.media.0.codec.name">mjpeg</property>
  <property name="meta.media.0.codec.long_name">MJPEG (Motion JPEG)</property>
  <property name="meta.media.0.codec.bit_rate">0</property>
  <property name="meta.attr.0.stream.HANDLER_NAME.markup">VideoHandler</property>
  <property name="meta.attr.0.stream.VENDOR_ID.markup">[0][0][0][0]</property>
  <property name="meta.attr.0.stream.ENCODER.markup">Lavc60.3.100 mjpeg</property>
  <property name="meta.attr.0.stream.DURATION.markup">00:00:01.500000000</property>
  <property name="meta.attr.COMMENT.markup">Rendered with Manim Community v0.17.2</property>
  <property name="meta.attr.MAJOR_BRAND.markup">isom</property>
  <property name="meta.attr.MINOR_VERSION.markup">512</property>
  <property name="meta.attr.COMPATIBLE_BRANDS.markup">isomiso2avc1mp41</property>
  <property name="meta.attr.ENCODER.markup">Lavf60.3.100</property>
  <property name="seekable">1</property>
  <property name="meta.media.sample_aspect_num">1</property>
  <property name="meta.media.sample_aspect_den">1</property>
  <property name="aspect_ratio">1</property>
  <property name="format">3</property>
  <property name="audio_index">-1</property>
  <property name="video_index">0</property>
  <property name="mute_on_pause">0</property>
  <property name="mlt_service">avformat-novalidate</property>
  <property name="kdenlive:clipname">5.mp4</property>
  <property name="kdenlive:clip_type">2</property>
  <property name="kdenlive:folderid">619</property>
  <property name="kdenlive:id">512</property>
  <property name="kdenlive:file_size">123973</property>
  <property name="kdenlive:file_hash">c18926365d91f3e8c5a387b7be36b85e</property>
  <property name="kdenlive:proxy">/home/xiaoxiae/.cache/kdenlive/proxy/c18926365d91f3e8c5a387b7be36b85e.mkv</property>
  <property name="kdenlive:originalurl">video/Summary/5.mp4</property>
  <property name="kdenlive:original.mlt_type">producer</property>
  <property name="kdenlive:original.in">00:00:00.000</property>
  <property name="kdenlive:original.out">00:00:01.483</property>
  <property name="kdenlive:original.length">90</property>
  <property name="kdenlive:original.eof">pause</property>
  <property name="kdenlive:original.resource">video/Summary/5.mp4</property>
  <property name="kdenlive:original.meta.media.nb_streams">1</property>
  <property name="kdenlive:original.meta.media.0.stream.type">video</property>
  <property name="kdenlive:original.meta.media.0.stream.frame_rate">60</property>
  <property name="kdenlive:original.meta.media.0.stream.sample_aspect_ratio">0</property>
  <property name="kdenlive:original.meta.media.0.codec.width">3840</property>
  <property name="kdenlive:original.meta.media.0.codec.height">2160</property>
  <property name="kdenlive:original.meta.media.0.codec.rotate">0</property>
  <property name="kdenlive:original.meta.media.0.codec.pix_fmt">yuv420p</property>
  <property name="kdenlive:original.meta.media.0.codec.sample_aspect_ratio">0</property>
  <property name="kdenlive:original.meta.media.0.codec.colorspace">709</property>
  <property name="kdenlive:original.meta.media.0.codec.name">h264</property>
  <property name="kdenlive:original.meta.media.0.codec.long_name">H.264 / AVC / MPEG-4 AVC / MPEG-4 part 10</property>
  <property name="kdenlive:original.meta.media.0.codec.bit_rate">650528</property>
  <property name="kdenlive:original.meta.attr.0.stream.handler_name.markup">VideoHandler</property>
  <property name="kdenlive:original.meta.attr.0.stream.vendor_id.markup">[0][0][0][0]</property>
  <property name="kdenlive:original.meta.attr.0.stream.encoder.markup">Lavc60.3.100 libx264</property>
  <property name="kdenlive:original.meta.attr.major_brand.markup">isom</property>
  <property name="kdenlive:original.meta.attr.minor_version.markup">512</property>
  <property name="kdenlive:original.meta.attr.compatible_brands.markup">isomiso2avc1mp41</property>
  <property name="kdenlive:original.meta.attr.encoder.markup">Lavf60.3.100</property>
  <property name="kdenlive:original.meta.attr.comment.markup">Rendered with Manim Community v0.17.2</property>
  <property name="kdenlive:original.seekable">1</property>
  <property name="kdenlive:original.width">3840</property>
  <property name="kdenlive:original.height">2160</property>
  <property name="kdenlive:original.meta.media.sample_aspect_num">1</property>
  <property name="kdenlive:original.meta.media.sample_aspect_den">1</property>
  <property name="kdenlive:original.aspect_ratio">1</property>
  <property name="kdenlive:original.format">3</property>
  <property name="kdenlive:original.audio_index">-1</property>
  <property name="kdenlive:original.video_index">0</property>
  <property name="kdenlive:original.mute_on_pause">0</property>
  <property name="kdenlive:original.mlt_service">avformat-novalidate</property>
  <property name="kdenlive:original.meta.media.frame_rate_num">60</property>
  <property name="kdenlive:original.meta.media.frame_rate_den">1</property>
  <property name="kdenlive:original.meta.media.colorspace">709</property>
  <property name="kdenlive:original.meta.media.color_trc">2</property>
  <property name="kdenlive:original.meta.media.has_b_frames">2</property>
  <property name="kdenlive:original.meta.media.width">3840</property>
  <property name="kdenlive:original.meta.media.height">2160</property>
  <property name="kdenlive:original.meta.media.color_range">mpeg</property>
  <property name="kdenlive:original.meta.media.top_field_first">0</property>
  <property name="kdenlive:original.meta.media.progressive">1</property>
  <property name="kdenlive:original.kdenlive:clip_type">2</property>
  <property name="kdenlive:original.kdenlive:folderid">619</property>
  <property name="kdenlive:original.kdenlive:id">624</property>
  <property name="kdenlive:original.kdenlive:file_size">123973</property>
  <property name="kdenlive:original.kdenlive:file_hash">c18926365d91f3e8c5a387b7be36b85e</property>
  <property name="kdenlive:original.backup">1</property>
  <property name="meta.media.frame_rate_num">60</property>
  <property name="meta.media.frame_rate_den">1</property>
  <property name="meta.media.colorspace">601</property>
  <property name="meta.media.color_trc">2</property>
  <property name="meta.media.has_b_frames">0</property>
  <property name="meta.media.width">640</property>
  <property name="meta.media.height">360</property>
  <property name="meta.media.color_range">full</property>
  <property name="meta.media.top_field_first">0</property>
  <property name="meta.media.progressive">1</property>
 </producer>
 <producer id="producer435" in="00:00:00.000" out="00:00:00.983">
  <property name="length">60</property>
  <property name="eof">pause</property>
  <property name="resource">/home/xiaoxiae/.cache/kdenlive/proxy/67cecacdadacafb65bd4dfc49704d704.mkv</property>
  <property name="meta.media.nb_streams">1</property>
  <property name="meta.media.0.stream.type">video</property>
  <property name="meta.media.0.stream.frame_rate">60</property>
  <property name="meta.media.0.stream.sample_aspect_ratio">0</property>
  <property name="meta.media.0.codec.width">640</property>
  <property name="meta.media.0.codec.height">360</property>
  <property name="meta.media.0.codec.rotate">0</property>
  <property name="meta.media.0.codec.pix_fmt">yuvj420p</property>
  <property name="meta.media.0.codec.sample_aspect_ratio">0</property>
  <property name="meta.media.0.codec.colorspace">601</property>
  <property name="meta.media.0.codec.name">mjpeg</property>
  <property name="meta.media.0.codec.long_name">MJPEG (Motion JPEG)</property>
  <property name="meta.media.0.codec.bit_rate">0</property>
  <property name="meta.attr.0.stream.HANDLER_NAME.markup">VideoHandler</property>
  <property name="meta.attr.0.stream.VENDOR_ID.markup">[0][0][0][0]</property>
  <property name="meta.attr.0.stream.ENCODER.markup">Lavc60.3.100 mjpeg</property>
  <property name="meta.attr.0.stream.DURATION.markup">00:00:01.000000000</property>
  <property name="meta.attr.COMMENT.markup">Rendered with Manim Community v0.17.2</property>
  <property name="meta.attr.MAJOR_BRAND.markup">isom</property>
  <property name="meta.attr.MINOR_VERSION.markup">512</property>
  <property name="meta.attr.COMPATIBLE_BRANDS.markup">isomiso2avc1mp41</property>
  <property name="meta.attr.ENCODER.markup">Lavf60.3.100</property>
  <property name="seekable">1</property>
  <property name="meta.media.sample_aspect_num">1</property>
  <property name="meta.media.sample_aspect_den">1</property>
  <property name="aspect_ratio">1</property>
  <property name="format">3</property>
  <property name="audio_index">-1</property>
  <property name="video_index">0</property>
  <property name="mute_on_pause">0</property>
  <property name="mlt_service">avformat-novalidate</property>
  <property name="kdenlive:clipname">6.mp4</property>
  <property name="kdenlive:clip_type">2</property>
  <property name="kdenlive:folderid">619</property>
  <property name="kdenlive:id">513</property>
  <property name="kdenlive:file_size">78526</property>
  <property name="kdenlive:file_hash">67cecacdadacafb65bd4dfc49704d704</property>
  <property name="kdenlive:proxy">/home/xiaoxiae/.cache/kdenlive/proxy/67cecacdadacafb65bd4dfc49704d704.mkv</property>
  <property name="kdenlive:originalurl">video/Summary/6.mp4</property>
  <property name="kdenlive:original.mlt_type">producer</property>
  <property name="kdenlive:original.in">00:00:00.000</property>
  <property name="kdenlive:original.out">00:00:00.983</property>
  <property name="kdenlive:original.length">60</property>
  <property name="kdenlive:original.eof">pause</property>
  <property name="kdenlive:original.resource">video/Summary/6.mp4</property>
  <property name="kdenlive:original.meta.media.nb_streams">1</property>
  <property name="kdenlive:original.meta.media.0.stream.type">video</property>
  <property name="kdenlive:original.meta.media.0.stream.frame_rate">60</property>
  <property name="kdenlive:original.meta.media.0.stream.sample_aspect_ratio">0</property>
  <property name="kdenlive:original.meta.media.0.codec.width">3840</property>
  <property name="kdenlive:original.meta.media.0.codec.height">2160</property>
  <property name="kdenlive:original.meta.media.0.codec.rotate">0</property>
  <property name="kdenlive:original.meta.media.0.codec.pix_fmt">yuv420p</property>
  <property name="kdenlive:original.meta.media.0.codec.sample_aspect_ratio">0</property>
  <property name="kdenlive:original.meta.media.0.codec.colorspace">709</property>
  <property name="kdenlive:original.meta.media.0.codec.name">h264</property>
  <property name="kdenlive:original.meta.media.0.codec.long_name">H.264 / AVC / MPEG-4 AVC / MPEG-4 part 10</property>
  <property name="kdenlive:original.meta.media.0.codec.bit_rate">615160</property>
  <property name="kdenlive:original.meta.attr.0.stream.handler_name.markup">VideoHandler</property>
  <property name="kdenlive:original.meta.attr.0.stream.vendor_id.markup">[0][0][0][0]</property>
  <property name="kdenlive:original.meta.attr.0.stream.encoder.markup">Lavc60.3.100 libx264</property>
  <property name="kdenlive:original.meta.attr.major_brand.markup">isom</property>
  <property name="kdenlive:original.meta.attr.minor_version.markup">512</property>
  <property name="kdenlive:original.meta.attr.compatible_brands.markup">isomiso2avc1mp41</property>
  <property name="kdenlive:original.meta.attr.encoder.markup">Lavf60.3.100</property>
  <property name="kdenlive:original.meta.attr.comment.markup">Rendered with Manim Community v0.17.2</property>
  <property name="kdenlive:original.seekable">1</property>
  <property name="kdenlive:original.width">3840</property>
  <property name="kdenlive:original.height">2160</property>
  <property name="kdenlive:original.meta.media.sample_aspect_num">1</property>
  <property name="kdenlive:original.meta.media.sample_aspect_den">1</property>
  <property name="kdenlive:original.aspect_ratio">1</property>
  <property name="kdenlive:original.format">3</property>
  <property name="kdenlive:original.audio_index">-1</property>
  <property name="kdenlive:original.video_index">0</property>
  <property name="kdenlive:original.mute_on_pause">0</property>
  <property name="kdenlive:original.mlt_service">avformat-novalidate</property>
  <property name="kdenlive:original.meta.media.frame_rate_num">60</property>
  <property name="kdenlive:original.meta.media.frame_rate_den">1</property>
  <property name="kdenlive:original.meta.media.colorspace">709</property>
  <property name="kdenlive:original.meta.media.color_trc">2</property>
  <property name="kdenlive:original.meta.media.has_b_frames">2</property>
  <property name="kdenlive:original.meta.media.width">3840</property>
  <property name="kdenlive:original.meta.media.height">2160</property>
  <property name="kdenlive:original.meta.media.color_range">mpeg</property>
  <property name="kdenlive:original.meta.media.top_field_first">0</property>
  <property name="kdenlive:original.meta.media.progressive">1</property>
  <property name="kdenlive:original.kdenlive:clip_type">2</property>
  <property name="kdenlive:original.kdenlive:folderid">619</property>
  <property name="kdenlive:original.kdenlive:id">625</property>
  <property name="kdenlive:original.kdenlive:file_size">78526</property>
  <property name="kdenlive:original.kdenlive:file_hash">67cecacdadacafb65bd4dfc49704d704</property>
  <property name="kdenlive:original.backup">1</property>
  <property name="meta.media.frame_rate_num">60</property>
  <property name="meta.media.frame_rate_den">1</property>
  <property name="meta.media.colorspace">601</property>
  <property name="meta.media.color_trc">2</property>
  <property name="meta.media.has_b_frames">0</property>
  <property name="meta.media.width">640</property>
  <property name="meta.media.height">360</property>
  <property name="meta.media.color_range">full</property>
  <property name="meta.media.top_field_first">0</property>
  <property name="meta.media.progressive">1</property>
 </producer>
 <producer id="producer434" in="00:00:00.000" out="00:00:01.483">
  <property name="length">90</property>
  <property name="eof">pause</property>
  <property name="resource">/home/xiaoxiae/.cache/kdenlive/proxy/a0be4764f6db1cc92088ed9b3f1c537b.mkv</property>
  <property name="meta.media.nb_streams">1</property>
  <property name="meta.media.0.stream.type">video</property>
  <property name="meta.media.0.stream.frame_rate">60</property>
  <property name="meta.media.0.stream.sample_aspect_ratio">0</property>
  <property name="meta.media.0.codec.width">640</property>
  <property name="meta.media.0.codec.height">360</property>
  <property name="meta.media.0.codec.rotate">0</property>
  <property name="meta.media.0.codec.pix_fmt">yuvj420p</property>
  <property name="meta.media.0.codec.sample_aspect_ratio">0</property>
  <property name="meta.media.0.codec.colorspace">601</property>
  <property name="meta.media.0.codec.name">mjpeg</property>
  <property name="meta.media.0.codec.long_name">MJPEG (Motion JPEG)</property>
  <property name="meta.media.0.codec.bit_rate">0</property>
  <property name="meta.attr.0.stream.HANDLER_NAME.markup">VideoHandler</property>
  <property name="meta.attr.0.stream.VENDOR_ID.markup">[0][0][0][0]</property>
  <property name="meta.attr.0.stream.ENCODER.markup">Lavc60.3.100 mjpeg</property>
  <property name="meta.attr.0.stream.DURATION.markup">00:00:01.500000000</property>
  <property name="meta.attr.COMMENT.markup">Rendered with Manim Community v0.17.2</property>
  <property name="meta.attr.MAJOR_BRAND.markup">isom</property>
  <property name="meta.attr.MINOR_VERSION.markup">512</property>
  <property name="meta.attr.COMPATIBLE_BRANDS.markup">isomiso2avc1mp41</property>
  <property name="meta.attr.ENCODER.markup">Lavf60.3.100</property>
  <property name="seekable">1</property>
  <property name="meta.media.sample_aspect_num">1</property>
  <property name="meta.media.sample_aspect_den">1</property>
  <property name="aspect_ratio">1</property>
  <property name="format">3</property>
  <property name="audio_index">-1</property>
  <property name="video_index">0</property>
  <property name="mute_on_pause">0</property>
  <property name="mlt_service">avformat-novalidate</property>
  <property name="kdenlive:clipname">7.mp4</property>
  <property name="kdenlive:clip_type">2</property>
  <property name="kdenlive:folderid">619</property>
  <property name="kdenlive:id">514</property>
  <property name="kdenlive:file_size">168601</property>
  <property name="kdenlive:file_hash">a0be4764f6db1cc92088ed9b3f1c537b</property>
  <property name="kdenlive:proxy">/home/xiaoxiae/.cache/kdenlive/proxy/a0be4764f6db1cc92088ed9b3f1c537b.mkv</property>
  <property name="kdenlive:originalurl">video/Summary/7.mp4</property>
  <property name="kdenlive:original.mlt_type">producer</property>
  <property name="kdenlive:original.in">00:00:00.000</property>
  <property name="kdenlive:original.out">00:00:01.483</property>
  <property name="kdenlive:original.length">90</property>
  <property name="kdenlive:original.eof">pause</property>
  <property name="kdenlive:original.resource">video/Summary/7.mp4</property>
  <property name="kdenlive:original.meta.media.nb_streams">1</property>
  <property name="kdenlive:original.meta.media.0.stream.type">video</property>
  <property name="kdenlive:original.meta.media.0.stream.frame_rate">60</property>
  <property name="kdenlive:original.meta.media.0.stream.sample_aspect_ratio">0</property>
  <property name="kdenlive:original.meta.media.0.codec.width">3840</property>
  <property name="kdenlive:original.meta.media.0.codec.height">2160</property>
  <property name="kdenlive:original.meta.media.0.codec.rotate">0</property>
  <property name="kdenlive:original.meta.media.0.codec.pix_fmt">yuv420p</property>
  <property name="kdenlive:original.meta.media.0.codec.sample_aspect_ratio">0</property>
  <property name="kdenlive:original.meta.media.0.codec.colorspace">709</property>
  <property name="kdenlive:original.meta.media.0.codec.name">h264</property>
  <property name="kdenlive:original.meta.media.0.codec.long_name">H.264 / AVC / MPEG-4 AVC / MPEG-4 part 10</property>
  <property name="kdenlive:original.meta.media.0.codec.bit_rate">888544</property>
  <property name="kdenlive:original.meta.attr.0.stream.handler_name.markup">VideoHandler</property>
  <property name="kdenlive:original.meta.attr.0.stream.vendor_id.markup">[0][0][0][0]</property>
  <property name="kdenlive:original.meta.attr.0.stream.encoder.markup">Lavc60.3.100 libx264</property>
  <property name="kdenlive:original.meta.attr.major_brand.markup">isom</property>
  <property name="kdenlive:original.meta.attr.minor_version.markup">512</property>
  <property name="kdenlive:original.meta.attr.compatible_brands.markup">isomiso2avc1mp41</property>
  <property name="kdenlive:original.meta.attr.encoder.markup">Lavf60.3.100</property>
  <property name="kdenlive:original.meta.attr.comment.markup">Rendered with Manim Community v0.17.2</property>
  <property name="kdenlive:original.seekable">1</property>
  <property name="kdenlive:original.width">3840</property>
  <property name="kdenlive:original.height">2160</property>
  <property name="kdenlive:original.meta.media.sample_aspect_num">1</property>
  <property name="kdenlive:original.meta.media.sample_aspect_den">1</property>
  <property name="kdenlive:original.aspect_ratio">1</property>
  <property name="kdenlive:original.format">3</property>
  <property name="kdenlive:original.audio_index">-1</property>
  <property name="kdenlive:original.video_index">0</property>
  <property name="kdenlive:original.mute_on_pause">0</property>
  <property name="kdenlive:original.mlt_service">avformat-novalidate</property>
  <property name="kdenlive:original.meta.media.frame_rate_num">60</property>
  <property name="kdenlive:original.meta.media.frame_rate_den">1</property>
  <property name="kdenlive:original.meta.media.colorspace">709</property>
  <property name="kdenlive:original.meta.media.color_trc">2</property>
  <property name="kdenlive:original.meta.media.has_b_frames">2</property>
  <property name="kdenlive:original.meta.media.width">3840</property>
  <property name="kdenlive:original.meta.media.height">2160</property>
  <property name="kdenlive:original.meta.media.color_range">mpeg</property>
  <property name="kdenlive:original.meta.media.top_field_first">0</property>
  <property name="kdenlive:original.meta.media.progressive">1</property>
  <property name="kdenlive:original.kdenlive:clip_type">2</property>
  <property name="kdenlive:original.kdenlive:folderid">619</property>
  <property name="kdenlive:original.kdenlive:id">626</property>
  <property name="kdenlive:original.kdenlive:file_size">168601</property>
  <property name="kdenlive:original.kdenlive:file_hash">a0be4764f6db1cc92088ed9b3f1c537b</property>
  <property name="kdenlive:original.backup">1</property>
  <property name="meta.media.frame_rate_num">60</property>
  <property name="meta.media.frame_rate_den">1</property>
  <property name="meta.media.colorspace">601</property>
  <property name="meta.media.color_trc">2</property>
  <property name="meta.media.has_b_frames">0</property>
  <property name="meta.media.width">640</property>
  <property name="meta.media.height">360</property>
  <property name="meta.media.color_range">full</property>
  <property name="meta.media.top_field_first">0</property>
  <property name="meta.media.progressive">1</property>
 </producer>
 <producer id="producer436" in="00:00:00.000" out="00:00:00.983">
  <property name="length">60</property>
  <property name="eof">pause</property>
  <property name="resource">/home/xiaoxiae/.cache/kdenlive/proxy/c54190cc77fa524d719b8c62fb892fb0.mkv</property>
  <property name="meta.media.nb_streams">1</property>
  <property name="meta.media.0.stream.type">video</property>
  <property name="meta.media.0.stream.frame_rate">60</property>
  <property name="meta.media.0.stream.sample_aspect_ratio">0</property>
  <property name="meta.media.0.codec.width">640</property>
  <property name="meta.media.0.codec.height">360</property>
  <property name="meta.media.0.codec.rotate">0</property>
  <property name="meta.media.0.codec.pix_fmt">yuvj420p</property>
  <property name="meta.media.0.codec.sample_aspect_ratio">0</property>
  <property name="meta.media.0.codec.colorspace">601</property>
  <property name="meta.media.0.codec.name">mjpeg</property>
  <property name="meta.media.0.codec.long_name">MJPEG (Motion JPEG)</property>
  <property name="meta.media.0.codec.bit_rate">0</property>
  <property name="meta.attr.0.stream.HANDLER_NAME.markup">VideoHandler</property>
  <property name="meta.attr.0.stream.VENDOR_ID.markup">[0][0][0][0]</property>
  <property name="meta.attr.0.stream.ENCODER.markup">Lavc60.3.100 mjpeg</property>
  <property name="meta.attr.0.stream.DURATION.markup">00:00:01.000000000</property>
  <property name="meta.attr.COMMENT.markup">Rendered with Manim Community v0.17.2</property>
  <property name="meta.attr.MAJOR_BRAND.markup">isom</property>
  <property name="meta.attr.MINOR_VERSION.markup">512</property>
  <property name="meta.attr.COMPATIBLE_BRANDS.markup">isomiso2avc1mp41</property>
  <property name="meta.attr.ENCODER.markup">Lavf60.3.100</property>
  <property name="seekable">1</property>
  <property name="meta.media.sample_aspect_num">1</property>
  <property name="meta.media.sample_aspect_den">1</property>
  <property name="aspect_ratio">1</property>
  <property name="format">3</property>
  <property name="audio_index">-1</property>
  <property name="video_index">0</property>
  <property name="mute_on_pause">0</property>
  <property name="mlt_service">avformat-novalidate</property>
  <property name="kdenlive:clipname">8.mp4</property>
  <property name="kdenlive:clip_type">2</property>
  <property name="kdenlive:folderid">619</property>
  <property name="kdenlive:id">515</property>
  <property name="kdenlive:file_size">95605</property>
  <property name="kdenlive:file_hash">c54190cc77fa524d719b8c62fb892fb0</property>
  <property name="kdenlive:proxy">/home/xiaoxiae/.cache/kdenlive/proxy/c54190cc77fa524d719b8c62fb892fb0.mkv</property>
  <property name="kdenlive:originalurl">video/Summary/8.mp4</property>
  <property name="kdenlive:original.mlt_type">producer</property>
  <property name="kdenlive:original.in">00:00:00.000</property>
  <property name="kdenlive:original.out">00:00:00.983</property>
  <property name="kdenlive:original.length">60</property>
  <property name="kdenlive:original.eof">pause</property>
  <property name="kdenlive:original.resource">video/Summary/8.mp4</property>
  <property name="kdenlive:original.meta.media.nb_streams">1</property>
  <property name="kdenlive:original.meta.media.0.stream.type">video</property>
  <property name="kdenlive:original.meta.media.0.stream.frame_rate">60</property>
  <property name="kdenlive:original.meta.media.0.stream.sample_aspect_ratio">0</property>
  <property name="kdenlive:original.meta.media.0.codec.width">3840</property>
  <property name="kdenlive:original.meta.media.0.codec.height">2160</property>
  <property name="kdenlive:original.meta.media.0.codec.rotate">0</property>
  <property name="kdenlive:original.meta.media.0.codec.pix_fmt">yuv420p</property>
  <property name="kdenlive:original.meta.media.0.codec.sample_aspect_ratio">0</property>
  <property name="kdenlive:original.meta.media.0.codec.colorspace">709</property>
  <property name="kdenlive:original.meta.media.0.codec.name">h264</property>
  <property name="kdenlive:original.meta.media.0.codec.long_name">H.264 / AVC / MPEG-4 AVC / MPEG-4 part 10</property>
  <property name="kdenlive:original.meta.media.0.codec.bit_rate">751792</property>
  <property name="kdenlive:original.meta.attr.0.stream.handler_name.markup">VideoHandler</property>
  <property name="kdenlive:original.meta.attr.0.stream.vendor_id.markup">[0][0][0][0]</property>
  <property name="kdenlive:original.meta.attr.0.stream.encoder.markup">Lavc60.3.100 libx264</property>
  <property name="kdenlive:original.meta.attr.major_brand.markup">isom</property>
  <property name="kdenlive:original.meta.attr.minor_version.markup">512</property>
  <property name="kdenlive:original.meta.attr.compatible_brands.markup">isomiso2avc1mp41</property>
  <property name="kdenlive:original.meta.attr.encoder.markup">Lavf60.3.100</property>
  <property name="kdenlive:original.meta.attr.comment.markup">Rendered with Manim Community v0.17.2</property>
  <property name="kdenlive:original.seekable">1</property>
  <property name="kdenlive:original.width">3840</property>
  <property name="kdenlive:original.height">2160</property>
  <property name="kdenlive:original.meta.media.sample_aspect_num">1</property>
  <property name="kdenlive:original.meta.media.sample_aspect_den">1</property>
  <property name="kdenlive:original.aspect_ratio">1</property>
  <property name="kdenlive:original.format">3</property>
  <property name="kdenlive:original.audio_index">-1</property>
  <property name="kdenlive:original.video_index">0</property>
  <property name="kdenlive:original.mute_on_pause">0</property>
  <property name="kdenlive:original.mlt_service">avformat-novalidate</property>
  <property name="kdenlive:original.meta.media.frame_rate_num">60</property>
  <property name="kdenlive:original.meta.media.frame_rate_den">1</property>
  <property name="kdenlive:original.meta.media.colorspace">709</property>
  <property name="kdenlive:original.meta.media.color_trc">2</property>
  <property name="kdenlive:original.meta.media.has_b_frames">2</property>
  <property name="kdenlive:original.meta.media.width">3840</property>
  <property name="kdenlive:original.meta.media.height">2160</property>
  <property name="kdenlive:original.meta.media.color_range">mpeg</property>
  <property name="kdenlive:original.meta.media.top_field_first">0</property>
  <property name="kdenlive:original.meta.media.progressive">1</property>
  <property name="kdenlive:original.kdenlive:clip_type">2</property>
  <property name="kdenlive:original.kdenlive:folderid">619</property>
  <property name="kdenlive:original.kdenlive:id">627</property>
  <property name="kdenlive:original.kdenlive:file_size">95605</property>
  <property name="kdenlive:original.kdenlive:file_hash">c54190cc77fa524d719b8c62fb892fb0</property>
  <property name="kdenlive:original.backup">1</property>
  <property name="meta.media.frame_rate_num">60</property>
  <property name="meta.media.frame_rate_den">1</property>
  <property name="meta.media.colorspace">601</property>
  <property name="meta.media.color_trc">2</property>
  <property name="meta.media.has_b_frames">0</property>
  <property name="meta.media.width">640</property>
  <property name="meta.media.height">360</property>
  <property name="meta.media.color_range">full</property>
  <property name="meta.media.top_field_first">0</property>
  <property name="meta.media.progressive">1</property>
 </producer>
 <producer id="producer509" in="00:00:00.000" out="00:00:00.983">
  <property name="length">60</property>
  <property name="eof">pause</property>
  <property name="resource">/home/xiaoxiae/.cache/kdenlive/proxy/be00645e6d0910fe2dc5db014da966c2.mkv</property>
  <property name="meta.media.nb_streams">1</property>
  <property name="meta.media.0.stream.type">video</property>
  <property name="meta.media.0.stream.frame_rate">60</property>
  <property name="meta.media.0.stream.sample_aspect_ratio">0</property>
  <property name="meta.media.0.codec.width">640</property>
  <property name="meta.media.0.codec.height">360</property>
  <property name="meta.media.0.codec.rotate">0</property>
  <property name="meta.media.0.codec.pix_fmt">yuvj420p</property>
  <property name="meta.media.0.codec.sample_aspect_ratio">0</property>
  <property name="meta.media.0.codec.colorspace">601</property>
  <property name="meta.media.0.codec.name">mjpeg</property>
  <property name="meta.media.0.codec.long_name">MJPEG (Motion JPEG)</property>
  <property name="meta.media.0.codec.bit_rate">0</property>
  <property name="meta.attr.0.stream.HANDLER_NAME.markup">VideoHandler</property>
  <property name="meta.attr.0.stream.VENDOR_ID.markup">[0][0][0][0]</property>
  <property name="meta.attr.0.stream.ENCODER.markup">Lavc60.3.100 mjpeg</property>
  <property name="meta.attr.0.stream.DURATION.markup">00:00:01.000000000</property>
  <property name="meta.attr.COMMENT.markup">Rendered with Manim Community v0.17.2</property>
  <property name="meta.attr.MAJOR_BRAND.markup">isom</property>
  <property name="meta.attr.MINOR_VERSION.markup">512</property>
  <property name="meta.attr.COMPATIBLE_BRANDS.markup">isomiso2avc1mp41</property>
  <property name="meta.attr.ENCODER.markup">Lavf60.3.100</property>
  <property name="seekable">1</property>
  <property name="meta.media.sample_aspect_num">1</property>
  <property name="meta.media.sample_aspect_den">1</property>
  <property name="aspect_ratio">1</property>
  <property name="format">3</property>
  <property name="audio_index">-1</property>
  <property name="video_index">0</property>
  <property name="mute_on_pause">0</property>
  <property name="mlt_service">avformat-novalidate</property>
  <property name="kdenlive:clipname">1.mp4</property>
  <property name="kdenlive:clip_type">2</property>
  <property name="kdenlive:folderid">628</property>
  <property name="kdenlive:id">516</property>
  <property name="kdenlive:file_size">143486</property>
  <property name="kdenlive:file_hash">be00645e6d0910fe2dc5db014da966c2</property>
  <property name="kdenlive:proxy">/home/xiaoxiae/.cache/kdenlive/proxy/be00645e6d0910fe2dc5db014da966c2.mkv</property>
  <property name="kdenlive:originalurl">video/Thumbnail/1.mp4</property>
  <property name="kdenlive:original.mlt_type">producer</property>
  <property name="kdenlive:original.in">0</property>
  <property name="kdenlive:original.out">59</property>
  <property name="kdenlive:original.length">60</property>
  <property name="kdenlive:original.eof">pause</property>
  <property name="kdenlive:original.resource">video/Thumbnail/1.mp4</property>
  <property name="kdenlive:original.meta.media.nb_streams">1</property>
  <property name="kdenlive:original.meta.media.0.stream.type">video</property>
  <property name="kdenlive:original.meta.media.0.stream.frame_rate">60</property>
  <property name="kdenlive:original.meta.media.0.stream.sample_aspect_ratio">0</property>
  <property name="kdenlive:original.meta.media.0.codec.width">3840</property>
  <property name="kdenlive:original.meta.media.0.codec.height">2160</property>
  <property name="kdenlive:original.meta.media.0.codec.rotate">0</property>
  <property name="kdenlive:original.meta.media.0.codec.pix_fmt">yuv420p</property>
  <property name="kdenlive:original.meta.media.0.codec.sample_aspect_ratio">0</property>
  <property name="kdenlive:original.meta.media.0.codec.colorspace">709</property>
  <property name="kdenlive:original.meta.media.0.codec.name">h264</property>
  <property name="kdenlive:original.meta.media.0.codec.long_name">H.264 / AVC / MPEG-4 AVC / MPEG-4 part 10</property>
  <property name="kdenlive:original.meta.media.0.codec.bit_rate">1134840</property>
  <property name="kdenlive:original.meta.attr.0.stream.handler_name.markup">VideoHandler</property>
  <property name="kdenlive:original.meta.attr.0.stream.vendor_id.markup">[0][0][0][0]</property>
  <property name="kdenlive:original.meta.attr.0.stream.encoder.markup">Lavc60.3.100 libx264</property>
  <property name="kdenlive:original.meta.attr.major_brand.markup">isom</property>
  <property name="kdenlive:original.meta.attr.minor_version.markup">512</property>
  <property name="kdenlive:original.meta.attr.compatible_brands.markup">isomiso2avc1mp41</property>
  <property name="kdenlive:original.meta.attr.encoder.markup">Lavf60.3.100</property>
  <property name="kdenlive:original.meta.attr.comment.markup">Rendered with Manim Community v0.17.2</property>
  <property name="kdenlive:original.seekable">1</property>
  <property name="kdenlive:original.width">3840</property>
  <property name="kdenlive:original.height">2160</property>
  <property name="kdenlive:original.meta.media.sample_aspect_num">1</property>
  <property name="kdenlive:original.meta.media.sample_aspect_den">1</property>
  <property name="kdenlive:original.aspect_ratio">1</property>
  <property name="kdenlive:original.format">3</property>
  <property name="kdenlive:original.audio_index">-1</property>
  <property name="kdenlive:original.video_index">0</property>
  <property name="kdenlive:original.mute_on_pause">0</property>
  <property name="kdenlive:original.mlt_service">avformat</property>
  <property name="kdenlive:original.kdenlive:clip_type">2</property>
  <property name="kdenlive:original.kdenlive:folderid">628</property>
  <property name="kdenlive:original.kdenlive:id">629</property>
  <property name="kdenlive:original.kdenlive:file_size">143486</property>
  <property name="kdenlive:original.kdenlive:file_hash">be00645e6d0910fe2dc5db014da966c2</property>
  <property name="kdenlive:original.meta.media.frame_rate_num">60</property>
  <property name="kdenlive:original.meta.media.frame_rate_den">1</property>
  <property name="kdenlive:original.meta.media.colorspace">709</property>
  <property name="kdenlive:original.meta.media.color_trc">2</property>
  <property name="kdenlive:original.meta.media.has_b_frames">2</property>
  <property name="kdenlive:original.meta.media.width">3840</property>
  <property name="kdenlive:original.meta.media.height">2160</property>
  <property name="kdenlive:original.meta.media.color_range">mpeg</property>
  <property name="kdenlive:original.meta.media.top_field_first">0</property>
  <property name="kdenlive:original.meta.media.progressive">1</property>
  <property name="kdenlive:original.backup">1</property>
  <property name="meta.media.frame_rate_num">60</property>
  <property name="meta.media.frame_rate_den">1</property>
  <property name="meta.media.colorspace">601</property>
  <property name="meta.media.color_trc">2</property>
  <property name="meta.media.has_b_frames">0</property>
  <property name="meta.media.width">640</property>
  <property name="meta.media.height">360</property>
  <property name="meta.media.color_range">full</property>
  <property name="meta.media.top_field_first">0</property>
  <property name="meta.media.progressive">1</property>
 </producer>
 <producer id="producer439" in="00:00:00.000" out="00:00:11.817">
  <property name="length">710</property>
  <property name="eof">pause</property>
  <property name="resource">/home/xiaoxiae/.cache/kdenlive/proxy/ca86de73f49a6685d714bf96c3da3c0b.mkv</property>
  <property name="meta.media.nb_streams">1</property>
  <property name="meta.media.0.stream.type">video</property>
  <property name="meta.media.0.stream.frame_rate">60</property>
  <property name="meta.media.0.stream.sample_aspect_ratio">0</property>
  <property name="meta.media.0.codec.width">640</property>
  <property name="meta.media.0.codec.height">360</property>
  <property name="meta.media.0.codec.rotate">0</property>
  <property name="meta.media.0.codec.pix_fmt">yuvj420p</property>
  <property name="meta.media.0.codec.sample_aspect_ratio">0</property>
  <property name="meta.media.0.codec.colorspace">601</property>
  <property name="meta.media.0.codec.name">mjpeg</property>
  <property name="meta.media.0.codec.long_name">MJPEG (Motion JPEG)</property>
  <property name="meta.media.0.codec.bit_rate">0</property>
  <property name="meta.attr.0.stream.HANDLER_NAME.markup">VideoHandler</property>
  <property name="meta.attr.0.stream.VENDOR_ID.markup">[0][0][0][0]</property>
  <property name="meta.attr.0.stream.ENCODER.markup">Lavc60.3.100 mjpeg</property>
  <property name="meta.attr.0.stream.DURATION.markup">00:00:11.834000000</property>
  <property name="meta.attr.COMMENT.markup">Rendered with Manim Community v0.17.2</property>
  <property name="meta.attr.MAJOR_BRAND.markup">isom</property>
  <property name="meta.attr.MINOR_VERSION.markup">512</property>
  <property name="meta.attr.COMPATIBLE_BRANDS.markup">isomiso2avc1mp41</property>
  <property name="meta.attr.ENCODER.markup">Lavf60.3.100</property>
  <property name="seekable">1</property>
  <property name="meta.media.sample_aspect_num">1</property>
  <property name="meta.media.sample_aspect_den">1</property>
  <property name="aspect_ratio">1</property>
  <property name="format">3</property>
  <property name="audio_index">-1</property>
  <property name="video_index">0</property>
  <property name="mute_on_pause">0</property>
  <property name="mlt_service">avformat-novalidate</property>
  <property name="kdenlive:clipname">Fever.mp4</property>
  <property name="kdenlive:clip_type">2</property>
  <property name="kdenlive:folderid">333</property>
  <property name="kdenlive:id">517</property>
  <property name="kdenlive:file_size">1715173</property>
  <property name="kdenlive:file_hash">ca86de73f49a6685d714bf96c3da3c0b</property>
  <property name="kdenlive:proxy">/home/xiaoxiae/.cache/kdenlive/proxy/ca86de73f49a6685d714bf96c3da3c0b.mkv</property>
  <property name="kdenlive:originalurl">video/Fever.mp4</property>
  <property name="kdenlive:original.mlt_type">producer</property>
  <property name="kdenlive:original.in">0</property>
  <property name="kdenlive:original.out">709</property>
  <property name="kdenlive:original.length">710</property>
  <property name="kdenlive:original.eof">pause</property>
  <property name="kdenlive:original.resource">video/Fever.mp4</property>
  <property name="kdenlive:original.meta.media.nb_streams">1</property>
  <property name="kdenlive:original.meta.media.0.stream.type">video</property>
  <property name="kdenlive:original.meta.media.0.stream.frame_rate">60</property>
  <property name="kdenlive:original.meta.media.0.stream.sample_aspect_ratio">0</property>
  <property name="kdenlive:original.meta.media.0.codec.width">3840</property>
  <property name="kdenlive:original.meta.media.0.codec.height">2160</property>
  <property name="kdenlive:original.meta.media.0.codec.rotate">0</property>
  <property name="kdenlive:original.meta.media.0.codec.pix_fmt">yuv420p</property>
  <property name="kdenlive:original.meta.media.0.codec.sample_aspect_ratio">0</property>
  <property name="kdenlive:original.meta.media.0.codec.colorspace">709</property>
  <property name="kdenlive:original.meta.media.0.codec.name">h264</property>
  <property name="kdenlive:original.meta.media.0.codec.long_name">H.264 / AVC / MPEG-4 AVC / MPEG-4 part 10</property>
  <property name="kdenlive:original.meta.media.0.codec.bit_rate">1153521</property>
  <property name="kdenlive:original.meta.attr.0.stream.handler_name.markup">VideoHandler</property>
  <property name="kdenlive:original.meta.attr.0.stream.vendor_id.markup">[0][0][0][0]</property>
  <property name="kdenlive:original.meta.attr.0.stream.encoder.markup">Lavc60.3.100 libx264</property>
  <property name="kdenlive:original.meta.attr.major_brand.markup">isom</property>
  <property name="kdenlive:original.meta.attr.minor_version.markup">512</property>
  <property name="kdenlive:original.meta.attr.compatible_brands.markup">isomiso2avc1mp41</property>
  <property name="kdenlive:original.meta.attr.encoder.markup">Lavf60.3.100</property>
  <property name="kdenlive:original.meta.attr.comment.markup">Rendered with Manim Community v0.17.2</property>
  <property name="kdenlive:original.seekable">1</property>
  <property name="kdenlive:original.width">3840</property>
  <property name="kdenlive:original.height">2160</property>
  <property name="kdenlive:original.meta.media.sample_aspect_num">1</property>
  <property name="kdenlive:original.meta.media.sample_aspect_den">1</property>
  <property name="kdenlive:original.aspect_ratio">1</property>
  <property name="kdenlive:original.format">3</property>
  <property name="kdenlive:original.audio_index">-1</property>
  <property name="kdenlive:original.video_index">0</property>
  <property name="kdenlive:original.mute_on_pause">0</property>
  <property name="kdenlive:original.mlt_service">avformat-novalidate</property>
  <property name="kdenlive:original.meta.media.frame_rate_num">60</property>
  <property name="kdenlive:original.meta.media.frame_rate_den">1</property>
  <property name="kdenlive:original.meta.media.colorspace">709</property>
  <property name="kdenlive:original.meta.media.color_trc">2</property>
  <property name="kdenlive:original.meta.media.has_b_frames">2</property>
  <property name="kdenlive:original.meta.media.width">3840</property>
  <property name="kdenlive:original.meta.media.height">2160</property>
  <property name="kdenlive:original.meta.media.color_range">mpeg</property>
  <property name="kdenlive:original.meta.media.top_field_first">0</property>
  <property name="kdenlive:original.meta.media.progressive">1</property>
  <property name="kdenlive:original.kdenlive:clip_type">2</property>
  <property name="kdenlive:original.kdenlive:folderid">333</property>
  <property name="kdenlive:original.kdenlive:id">630</property>
  <property name="kdenlive:original.kdenlive:file_size">1715173</property>
  <property name="kdenlive:original.kdenlive:file_hash">ca86de73f49a6685d714bf96c3da3c0b</property>
  <property name="kdenlive:original.backup">1</property>
  <property name="meta.media.frame_rate_num">60</property>
  <property name="meta.media.frame_rate_den">1</property>
  <property name="meta.media.colorspace">601</property>
  <property name="meta.media.color_trc">2</property>
  <property name="meta.media.has_b_frames">0</property>
  <property name="meta.media.width">640</property>
  <property name="meta.media.height">360</property>
  <property name="meta.media.color_range">full</property>
  <property name="meta.media.top_field_first">0</property>
  <property name="meta.media.progressive">1</property>
 </producer>
 <producer id="producer437" in="00:00:00.000" out="00:00:00.983">
  <property name="length">60</property>
  <property name="eof">pause</property>
  <property name="resource">/home/xiaoxiae/.cache/kdenlive/proxy/39e6bc83273cc5b61b6c5ca4a116c27a.mkv</property>
  <property name="meta.media.nb_streams">1</property>
  <property name="meta.media.0.stream.type">video</property>
  <property name="meta.media.0.stream.frame_rate">60</property>
  <property name="meta.media.0.stream.sample_aspect_ratio">0</property>
  <property name="meta.media.0.codec.width">640</property>
  <property name="meta.media.0.codec.height">360</property>
  <property name="meta.media.0.codec.rotate">0</property>
  <property name="meta.media.0.codec.pix_fmt">yuvj420p</property>
  <property name="meta.media.0.codec.sample_aspect_ratio">0</property>
  <property name="meta.media.0.codec.colorspace">601</property>
  <property name="meta.media.0.codec.name">mjpeg</property>
  <property name="meta.media.0.codec.long_name">MJPEG (Motion JPEG)</property>
  <property name="meta.media.0.codec.bit_rate">0</property>
  <property name="meta.attr.0.stream.HANDLER_NAME.markup">VideoHandler</property>
  <property name="meta.attr.0.stream.VENDOR_ID.markup">[0][0][0][0]</property>
  <property name="meta.attr.0.stream.ENCODER.markup">Lavc60.3.100 mjpeg</property>
  <property name="meta.attr.0.stream.DURATION.markup">00:00:01.000000000</property>
  <property name="meta.attr.COMMENT.markup">Rendered with Manim Community v0.17.2</property>
  <property name="meta.attr.MAJOR_BRAND.markup">isom</property>
  <property name="meta.attr.MINOR_VERSION.markup">512</property>
  <property name="meta.attr.COMPATIBLE_BRANDS.markup">isomiso2avc1mp41</property>
  <property name="meta.attr.ENCODER.markup">Lavf60.3.100</property>
  <property name="seekable">1</property>
  <property name="meta.media.sample_aspect_num">1</property>
  <property name="meta.media.sample_aspect_den">1</property>
  <property name="aspect_ratio">1</property>
  <property name="format">3</property>
  <property name="audio_index">-1</property>
  <property name="video_index">0</property>
  <property name="mute_on_pause">0</property>
  <property name="mlt_service">avformat-novalidate</property>
  <property name="kdenlive:clipname">1.mp4</property>
  <property name="kdenlive:clip_type">2</property>
  <property name="kdenlive:folderid">631</property>
  <property name="kdenlive:id">518</property>
  <property name="kdenlive:file_size">74936</property>
  <property name="kdenlive:file_hash">39e6bc83273cc5b61b6c5ca4a116c27a</property>
  <property name="kdenlive:proxy">/home/xiaoxiae/.cache/kdenlive/proxy/39e6bc83273cc5b61b6c5ca4a116c27a.mkv</property>
  <property name="kdenlive:originalurl">video/Fever/1.mp4</property>
  <property name="kdenlive:original.mlt_type">producer</property>
  <property name="kdenlive:original.in">0</property>
  <property name="kdenlive:original.out">59</property>
  <property name="kdenlive:original.length">60</property>
  <property name="kdenlive:original.eof">pause</property>
  <property name="kdenlive:original.resource">video/Fever/1.mp4</property>
  <property name="kdenlive:original.meta.media.nb_streams">1</property>
  <property name="kdenlive:original.meta.media.0.stream.type">video</property>
  <property name="kdenlive:original.meta.media.0.stream.frame_rate">60</property>
  <property name="kdenlive:original.meta.media.0.stream.sample_aspect_ratio">0</property>
  <property name="kdenlive:original.meta.media.0.codec.width">3840</property>
  <property name="kdenlive:original.meta.media.0.codec.height">2160</property>
  <property name="kdenlive:original.meta.media.0.codec.rotate">0</property>
  <property name="kdenlive:original.meta.media.0.codec.pix_fmt">yuv420p</property>
  <property name="kdenlive:original.meta.media.0.codec.sample_aspect_ratio">0</property>
  <property name="kdenlive:original.meta.media.0.codec.colorspace">709</property>
  <property name="kdenlive:original.meta.media.0.codec.name">h264</property>
  <property name="kdenlive:original.meta.media.0.codec.long_name">H.264 / AVC / MPEG-4 AVC / MPEG-4 part 10</property>
  <property name="kdenlive:original.meta.media.0.codec.bit_rate">586760</property>
  <property name="kdenlive:original.meta.attr.0.stream.handler_name.markup">VideoHandler</property>
  <property name="kdenlive:original.meta.attr.0.stream.vendor_id.markup">[0][0][0][0]</property>
  <property name="kdenlive:original.meta.attr.0.stream.encoder.markup">Lavc60.3.100 libx264</property>
  <property name="kdenlive:original.meta.attr.major_brand.markup">isom</property>
  <property name="kdenlive:original.meta.attr.minor_version.markup">512</property>
  <property name="kdenlive:original.meta.attr.compatible_brands.markup">isomiso2avc1mp41</property>
  <property name="kdenlive:original.meta.attr.encoder.markup">Lavf60.3.100</property>
  <property name="kdenlive:original.meta.attr.comment.markup">Rendered with Manim Community v0.17.2</property>
  <property name="kdenlive:original.seekable">1</property>
  <property name="kdenlive:original.width">3840</property>
  <property name="kdenlive:original.height">2160</property>
  <property name="kdenlive:original.meta.media.sample_aspect_num">1</property>
  <property name="kdenlive:original.meta.media.sample_aspect_den">1</property>
  <property name="kdenlive:original.aspect_ratio">1</property>
  <property name="kdenlive:original.format">3</property>
  <property name="kdenlive:original.audio_index">-1</property>
  <property name="kdenlive:original.video_index">0</property>
  <property name="kdenlive:original.mute_on_pause">0</property>
  <property name="kdenlive:original.mlt_service">avformat-novalidate</property>
  <property name="kdenlive:original.meta.media.frame_rate_num">60</property>
  <property name="kdenlive:original.meta.media.frame_rate_den">1</property>
  <property name="kdenlive:original.meta.media.colorspace">709</property>
  <property name="kdenlive:original.meta.media.color_trc">2</property>
  <property name="kdenlive:original.meta.media.has_b_frames">2</property>
  <property name="kdenlive:original.meta.media.width">3840</property>
  <property name="kdenlive:original.meta.media.height">2160</property>
  <property name="kdenlive:original.meta.media.color_range">mpeg</property>
  <property name="kdenlive:original.meta.media.top_field_first">0</property>
  <property name="kdenlive:original.meta.media.progressive">1</property>
  <property name="kdenlive:original.kdenlive:clip_type">2</property>
  <property name="kdenlive:original.kdenlive:folderid">631</property>
  <property name="kdenlive:original.kdenlive:id">632</property>
  <property name="kdenlive:original.kdenlive:file_size">74936</property>
  <property name="kdenlive:original.kdenlive:file_hash">39e6bc83273cc5b61b6c5ca4a116c27a</property>
  <property name="kdenlive:original.backup">1</property>
  <property name="meta.media.frame_rate_num">60</property>
  <property name="meta.media.frame_rate_den">1</property>
  <property name="meta.media.colorspace">601</property>
  <property name="meta.media.color_trc">2</property>
  <property name="meta.media.has_b_frames">0</property>
  <property name="meta.media.width">640</property>
  <property name="meta.media.height">360</property>
  <property name="meta.media.color_range">full</property>
  <property name="meta.media.top_field_first">0</property>
  <property name="meta.media.progressive">1</property>
 </producer>
 <producer id="producer438" in="00:00:00.000" out="00:00:00.983">
  <property name="length">60</property>
  <property name="eof">pause</property>
  <property name="resource">/home/xiaoxiae/.cache/kdenlive/proxy/e54b7a0722cde715ffdef3abad04ee16.mkv</property>
  <property name="meta.media.nb_streams">1</property>
  <property name="meta.media.0.stream.type">video</property>
  <property name="meta.media.0.stream.frame_rate">60</property>
  <property name="meta.media.0.stream.sample_aspect_ratio">0</property>
  <property name="meta.media.0.codec.width">640</property>
  <property name="meta.media.0.codec.height">360</property>
  <property name="meta.media.0.codec.rotate">0</property>
  <property name="meta.media.0.codec.pix_fmt">yuvj420p</property>
  <property name="meta.media.0.codec.sample_aspect_ratio">0</property>
  <property name="meta.media.0.codec.colorspace">601</property>
  <property name="meta.media.0.codec.name">mjpeg</property>
  <property name="meta.media.0.codec.long_name">MJPEG (Motion JPEG)</property>
  <property name="meta.media.0.codec.bit_rate">0</property>
  <property name="meta.attr.0.stream.HANDLER_NAME.markup">VideoHandler</property>
  <property name="meta.attr.0.stream.VENDOR_ID.markup">[0][0][0][0]</property>
  <property name="meta.attr.0.stream.ENCODER.markup">Lavc60.3.100 mjpeg</property>
  <property name="meta.attr.0.stream.DURATION.markup">00:00:01.000000000</property>
  <property name="meta.attr.COMMENT.markup">Rendered with Manim Community v0.17.2</property>
  <property name="meta.attr.MAJOR_BRAND.markup">isom</property>
  <property name="meta.attr.MINOR_VERSION.markup">512</property>
  <property name="meta.attr.COMPATIBLE_BRANDS.markup">isomiso2avc1mp41</property>
  <property name="meta.attr.ENCODER.markup">Lavf60.3.100</property>
  <property name="seekable">1</property>
  <property name="meta.media.sample_aspect_num">1</property>
  <property name="meta.media.sample_aspect_den">1</property>
  <property name="aspect_ratio">1</property>
  <property name="format">3</property>
  <property name="audio_index">-1</property>
  <property name="video_index">0</property>
  <property name="mute_on_pause">0</property>
  <property name="mlt_service">avformat-novalidate</property>
  <property name="kdenlive:clipname">10.mp4</property>
  <property name="kdenlive:clip_type">2</property>
  <property name="kdenlive:folderid">631</property>
  <property name="kdenlive:id">519</property>
  <property name="kdenlive:file_size">94847</property>
  <property name="kdenlive:file_hash">e54b7a0722cde715ffdef3abad04ee16</property>
  <property name="kdenlive:proxy">/home/xiaoxiae/.cache/kdenlive/proxy/e54b7a0722cde715ffdef3abad04ee16.mkv</property>
  <property name="kdenlive:originalurl">video/Fever/10.mp4</property>
  <property name="kdenlive:original.mlt_type">producer</property>
  <property name="kdenlive:original.in">0</property>
  <property name="kdenlive:original.out">59</property>
  <property name="kdenlive:original.length">60</property>
  <property name="kdenlive:original.eof">pause</property>
  <property name="kdenlive:original.resource">video/Fever/10.mp4</property>
  <property name="kdenlive:original.meta.media.nb_streams">1</property>
  <property name="kdenlive:original.meta.media.0.stream.type">video</property>
  <property name="kdenlive:original.meta.media.0.stream.frame_rate">60</property>
  <property name="kdenlive:original.meta.media.0.stream.sample_aspect_ratio">0</property>
  <property name="kdenlive:original.meta.media.0.codec.width">3840</property>
  <property name="kdenlive:original.meta.media.0.codec.height">2160</property>
  <property name="kdenlive:original.meta.media.0.codec.rotate">0</property>
  <property name="kdenlive:original.meta.media.0.codec.pix_fmt">yuv420p</property>
  <property name="kdenlive:original.meta.media.0.codec.sample_aspect_ratio">0</property>
  <property name="kdenlive:original.meta.media.0.codec.colorspace">709</property>
  <property name="kdenlive:original.meta.media.0.codec.name">h264</property>
  <property name="kdenlive:original.meta.media.0.codec.long_name">H.264 / AVC / MPEG-4 AVC / MPEG-4 part 10</property>
  <property name="kdenlive:original.meta.media.0.codec.bit_rate">745728</property>
  <property name="kdenlive:original.meta.attr.0.stream.handler_name.markup">VideoHandler</property>
  <property name="kdenlive:original.meta.attr.0.stream.vendor_id.markup">[0][0][0][0]</property>
  <property name="kdenlive:original.meta.attr.0.stream.encoder.markup">Lavc60.3.100 libx264</property>
  <property name="kdenlive:original.meta.attr.major_brand.markup">isom</property>
  <property name="kdenlive:original.meta.attr.minor_version.markup">512</property>
  <property name="kdenlive:original.meta.attr.compatible_brands.markup">isomiso2avc1mp41</property>
  <property name="kdenlive:original.meta.attr.encoder.markup">Lavf60.3.100</property>
  <property name="kdenlive:original.meta.attr.comment.markup">Rendered with Manim Community v0.17.2</property>
  <property name="kdenlive:original.seekable">1</property>
  <property name="kdenlive:original.width">3840</property>
  <property name="kdenlive:original.height">2160</property>
  <property name="kdenlive:original.meta.media.sample_aspect_num">1</property>
  <property name="kdenlive:original.meta.media.sample_aspect_den">1</property>
  <property name="kdenlive:original.aspect_ratio">1</property>
  <property name="kdenlive:original.format">3</property>
  <property name="kdenlive:original.audio_index">-1</property>
  <property name="kdenlive:original.video_index">0</property>
  <property name="kdenlive:original.mute_on_pause">0</property>
  <property name="kdenlive:original.mlt_service">avformat-novalidate</property>
  <property name="kdenlive:original.meta.media.frame_rate_num">60</property>
  <property name="kdenlive:original.meta.media.frame_rate_den">1</property>
  <property name="kdenlive:original.meta.media.colorspace">709</property>
  <property name="kdenlive:original.meta.media.color_trc">2</property>
  <property name="kdenlive:original.meta.media.has_b_frames">2</property>
  <property name="kdenlive:original.meta.media.width">3840</property>
  <property name="kdenlive:original.meta.media.height">2160</property>
  <property name="kdenlive:original.meta.media.color_range">mpeg</property>
  <property name="kdenlive:original.meta.media.top_field_first">0</property>
  <property name="kdenlive:original.meta.media.progressive">1</property>
  <property name="kdenlive:original.kdenlive:clip_type">2</property>
  <property name="kdenlive:original.kdenlive:folderid">631</property>
  <property name="kdenlive:original.kdenlive:id">633</property>
  <property name="kdenlive:original.kdenlive:file_size">94847</property>
  <property name="kdenlive:original.kdenlive:file_hash">e54b7a0722cde715ffdef3abad04ee16</property>
  <property name="kdenlive:original.backup">1</property>
  <property name="meta.media.frame_rate_num">60</property>
  <property name="meta.media.frame_rate_den">1</property>
  <property name="meta.media.colorspace">601</property>
  <property name="meta.media.color_trc">2</property>
  <property name="meta.media.has_b_frames">0</property>
  <property name="meta.media.width">640</property>
  <property name="meta.media.height">360</property>
  <property name="meta.media.color_range">full</property>
  <property name="meta.media.top_field_first">0</property>
  <property name="meta.media.progressive">1</property>
 </producer>
 <producer id="producer440" in="00:00:00.000" out="00:00:00.983">
  <property name="length">60</property>
  <property name="eof">pause</property>
  <property name="resource">/home/xiaoxiae/.cache/kdenlive/proxy/b7f97e74ea718a8a3ebe096cef6cbc96.mkv</property>
  <property name="meta.media.nb_streams">1</property>
  <property name="meta.media.0.stream.type">video</property>
  <property name="meta.media.0.stream.frame_rate">60</property>
  <property name="meta.media.0.stream.sample_aspect_ratio">0</property>
  <property name="meta.media.0.codec.width">640</property>
  <property name="meta.media.0.codec.height">360</property>
  <property name="meta.media.0.codec.rotate">0</property>
  <property name="meta.media.0.codec.pix_fmt">yuvj420p</property>
  <property name="meta.media.0.codec.sample_aspect_ratio">0</property>
  <property name="meta.media.0.codec.colorspace">601</property>
  <property name="meta.media.0.codec.name">mjpeg</property>
  <property name="meta.media.0.codec.long_name">MJPEG (Motion JPEG)</property>
  <property name="meta.media.0.codec.bit_rate">0</property>
  <property name="meta.attr.0.stream.HANDLER_NAME.markup">VideoHandler</property>
  <property name="meta.attr.0.stream.VENDOR_ID.markup">[0][0][0][0]</property>
  <property name="meta.attr.0.stream.ENCODER.markup">Lavc60.3.100 mjpeg</property>
  <property name="meta.attr.0.stream.DURATION.markup">00:00:01.000000000</property>
  <property name="meta.attr.COMMENT.markup">Rendered with Manim Community v0.17.2</property>
  <property name="meta.attr.MAJOR_BRAND.markup">isom</property>
  <property name="meta.attr.MINOR_VERSION.markup">512</property>
  <property name="meta.attr.COMPATIBLE_BRANDS.markup">isomiso2avc1mp41</property>
  <property name="meta.attr.ENCODER.markup">Lavf60.3.100</property>
  <property name="seekable">1</property>
  <property name="meta.media.sample_aspect_num">1</property>
  <property name="meta.media.sample_aspect_den">1</property>
  <property name="aspect_ratio">1</property>
  <property name="format">3</property>
  <property name="audio_index">-1</property>
  <property name="video_index">0</property>
  <property name="mute_on_pause">0</property>
  <property name="mlt_service">avformat-novalidate</property>
  <property name="kdenlive:clipname">11.mp4</property>
  <property name="kdenlive:clip_type">2</property>
  <property name="kdenlive:folderid">631</property>
  <property name="kdenlive:id">520</property>
  <property name="kdenlive:file_size">285795</property>
  <property name="kdenlive:file_hash">b7f97e74ea718a8a3ebe096cef6cbc96</property>
  <property name="kdenlive:proxy">/home/xiaoxiae/.cache/kdenlive/proxy/b7f97e74ea718a8a3ebe096cef6cbc96.mkv</property>
  <property name="kdenlive:originalurl">video/Fever/11.mp4</property>
  <property name="kdenlive:original.mlt_type">producer</property>
  <property name="kdenlive:original.in">0</property>
  <property name="kdenlive:original.out">59</property>
  <property name="kdenlive:original.length">60</property>
  <property name="kdenlive:original.eof">pause</property>
  <property name="kdenlive:original.resource">video/Fever/11.mp4</property>
  <property name="kdenlive:original.meta.media.nb_streams">1</property>
  <property name="kdenlive:original.meta.media.0.stream.type">video</property>
  <property name="kdenlive:original.meta.media.0.stream.frame_rate">60</property>
  <property name="kdenlive:original.meta.media.0.stream.sample_aspect_ratio">0</property>
  <property name="kdenlive:original.meta.media.0.codec.width">3840</property>
  <property name="kdenlive:original.meta.media.0.codec.height">2160</property>
  <property name="kdenlive:original.meta.media.0.codec.rotate">0</property>
  <property name="kdenlive:original.meta.media.0.codec.pix_fmt">yuv420p</property>
  <property name="kdenlive:original.meta.media.0.codec.sample_aspect_ratio">0</property>
  <property name="kdenlive:original.meta.media.0.codec.colorspace">709</property>
  <property name="kdenlive:original.meta.media.0.codec.name">h264</property>
  <property name="kdenlive:original.meta.media.0.codec.long_name">H.264 / AVC / MPEG-4 AVC / MPEG-4 part 10</property>
  <property name="kdenlive:original.meta.media.0.codec.bit_rate">2273376</property>
  <property name="kdenlive:original.meta.attr.0.stream.handler_name.markup">VideoHandler</property>
  <property name="kdenlive:original.meta.attr.0.stream.vendor_id.markup">[0][0][0][0]</property>
  <property name="kdenlive:original.meta.attr.0.stream.encoder.markup">Lavc60.3.100 libx264</property>
  <property name="kdenlive:original.meta.attr.major_brand.markup">isom</property>
  <property name="kdenlive:original.meta.attr.minor_version.markup">512</property>
  <property name="kdenlive:original.meta.attr.compatible_brands.markup">isomiso2avc1mp41</property>
  <property name="kdenlive:original.meta.attr.encoder.markup">Lavf60.3.100</property>
  <property name="kdenlive:original.meta.attr.comment.markup">Rendered with Manim Community v0.17.2</property>
  <property name="kdenlive:original.seekable">1</property>
  <property name="kdenlive:original.width">3840</property>
  <property name="kdenlive:original.height">2160</property>
  <property name="kdenlive:original.meta.media.sample_aspect_num">1</property>
  <property name="kdenlive:original.meta.media.sample_aspect_den">1</property>
  <property name="kdenlive:original.aspect_ratio">1</property>
  <property name="kdenlive:original.format">3</property>
  <property name="kdenlive:original.audio_index">-1</property>
  <property name="kdenlive:original.video_index">0</property>
  <property name="kdenlive:original.mute_on_pause">0</property>
  <property name="kdenlive:original.mlt_service">avformat-novalidate</property>
  <property name="kdenlive:original.meta.media.frame_rate_num">60</property>
  <property name="kdenlive:original.meta.media.frame_rate_den">1</property>
  <property name="kdenlive:original.meta.media.colorspace">709</property>
  <property name="kdenlive:original.meta.media.color_trc">2</property>
  <property name="kdenlive:original.meta.media.has_b_frames">2</property>
  <property name="kdenlive:original.meta.media.width">3840</property>
  <property name="kdenlive:original.meta.media.height">2160</property>
  <property name="kdenlive:original.meta.media.color_range">mpeg</property>
  <property name="kdenlive:original.meta.media.top_field_first">0</property>
  <property name="kdenlive:original.meta.media.progressive">1</property>
  <property name="kdenlive:original.kdenlive:clip_type">2</property>
  <property name="kdenlive:original.kdenlive:folderid">631</property>
  <property name="kdenlive:original.kdenlive:id">634</property>
  <property name="kdenlive:original.kdenlive:file_size">285795</property>
  <property name="kdenlive:original.kdenlive:file_hash">b7f97e74ea718a8a3ebe096cef6cbc96</property>
  <property name="kdenlive:original.backup">1</property>
  <property name="meta.media.frame_rate_num">60</property>
  <property name="meta.media.frame_rate_den">1</property>
  <property name="meta.media.colorspace">601</property>
  <property name="meta.media.color_trc">2</property>
  <property name="meta.media.has_b_frames">0</property>
  <property name="meta.media.width">640</property>
  <property name="meta.media.height">360</property>
  <property name="meta.media.color_range">full</property>
  <property name="meta.media.top_field_first">0</property>
  <property name="meta.media.progressive">1</property>
 </producer>
 <producer id="producer441" in="00:00:00.000" out="00:00:00.983">
  <property name="length">60</property>
  <property name="eof">pause</property>
  <property name="resource">/home/xiaoxiae/.cache/kdenlive/proxy/1d3d5b75854f2998b43d370340f6035e.mkv</property>
  <property name="meta.media.nb_streams">1</property>
  <property name="meta.media.0.stream.type">video</property>
  <property name="meta.media.0.stream.frame_rate">60</property>
  <property name="meta.media.0.stream.sample_aspect_ratio">0</property>
  <property name="meta.media.0.codec.width">640</property>
  <property name="meta.media.0.codec.height">360</property>
  <property name="meta.media.0.codec.rotate">0</property>
  <property name="meta.media.0.codec.pix_fmt">yuvj420p</property>
  <property name="meta.media.0.codec.sample_aspect_ratio">0</property>
  <property name="meta.media.0.codec.colorspace">601</property>
  <property name="meta.media.0.codec.name">mjpeg</property>
  <property name="meta.media.0.codec.long_name">MJPEG (Motion JPEG)</property>
  <property name="meta.media.0.codec.bit_rate">0</property>
  <property name="meta.attr.0.stream.HANDLER_NAME.markup">VideoHandler</property>
  <property name="meta.attr.0.stream.VENDOR_ID.markup">[0][0][0][0]</property>
  <property name="meta.attr.0.stream.ENCODER.markup">Lavc60.3.100 mjpeg</property>
  <property name="meta.attr.0.stream.DURATION.markup">00:00:01.000000000</property>
  <property name="meta.attr.COMMENT.markup">Rendered with Manim Community v0.17.2</property>
  <property name="meta.attr.MAJOR_BRAND.markup">isom</property>
  <property name="meta.attr.MINOR_VERSION.markup">512</property>
  <property name="meta.attr.COMPATIBLE_BRANDS.markup">isomiso2avc1mp41</property>
  <property name="meta.attr.ENCODER.markup">Lavf60.3.100</property>
  <property name="seekable">1</property>
  <property name="meta.media.sample_aspect_num">1</property>
  <property name="meta.media.sample_aspect_den">1</property>
  <property name="aspect_ratio">1</property>
  <property name="format">3</property>
  <property name="audio_index">-1</property>
  <property name="video_index">0</property>
  <property name="mute_on_pause">0</property>
  <property name="mlt_service">avformat-novalidate</property>
  <property name="kdenlive:clipname">12.mp4</property>
  <property name="kdenlive:clip_type">2</property>
  <property name="kdenlive:folderid">631</property>
  <property name="kdenlive:id">521</property>
  <property name="kdenlive:file_size">83921</property>
  <property name="kdenlive:file_hash">1d3d5b75854f2998b43d370340f6035e</property>
  <property name="kdenlive:proxy">/home/xiaoxiae/.cache/kdenlive/proxy/1d3d5b75854f2998b43d370340f6035e.mkv</property>
  <property name="kdenlive:originalurl">video/Fever/12.mp4</property>
  <property name="kdenlive:original.mlt_type">producer</property>
  <property name="kdenlive:original.in">0</property>
  <property name="kdenlive:original.out">59</property>
  <property name="kdenlive:original.length">60</property>
  <property name="kdenlive:original.eof">pause</property>
  <property name="kdenlive:original.resource">video/Fever/12.mp4</property>
  <property name="kdenlive:original.meta.media.nb_streams">1</property>
  <property name="kdenlive:original.meta.media.0.stream.type">video</property>
  <property name="kdenlive:original.meta.media.0.stream.frame_rate">60</property>
  <property name="kdenlive:original.meta.media.0.stream.sample_aspect_ratio">0</property>
  <property name="kdenlive:original.meta.media.0.codec.width">3840</property>
  <property name="kdenlive:original.meta.media.0.codec.height">2160</property>
  <property name="kdenlive:original.meta.media.0.codec.rotate">0</property>
  <property name="kdenlive:original.meta.media.0.codec.pix_fmt">yuv420p</property>
  <property name="kdenlive:original.meta.media.0.codec.sample_aspect_ratio">0</property>
  <property name="kdenlive:original.meta.media.0.codec.colorspace">709</property>
  <property name="kdenlive:original.meta.media.0.codec.name">h264</property>
  <property name="kdenlive:original.meta.media.0.codec.long_name">H.264 / AVC / MPEG-4 AVC / MPEG-4 part 10</property>
  <property name="kdenlive:original.meta.media.0.codec.bit_rate">658320</property>
  <property name="kdenlive:original.meta.attr.0.stream.handler_name.markup">VideoHandler</property>
  <property name="kdenlive:original.meta.attr.0.stream.vendor_id.markup">[0][0][0][0]</property>
  <property name="kdenlive:original.meta.attr.0.stream.encoder.markup">Lavc60.3.100 libx264</property>
  <property name="kdenlive:original.meta.attr.major_brand.markup">isom</property>
  <property name="kdenlive:original.meta.attr.minor_version.markup">512</property>
  <property name="kdenlive:original.meta.attr.compatible_brands.markup">isomiso2avc1mp41</property>
  <property name="kdenlive:original.meta.attr.encoder.markup">Lavf60.3.100</property>
  <property name="kdenlive:original.meta.attr.comment.markup">Rendered with Manim Community v0.17.2</property>
  <property name="kdenlive:original.seekable">1</property>
  <property name="kdenlive:original.width">3840</property>
  <property name="kdenlive:original.height">2160</property>
  <property name="kdenlive:original.meta.media.sample_aspect_num">1</property>
  <property name="kdenlive:original.meta.media.sample_aspect_den">1</property>
  <property name="kdenlive:original.aspect_ratio">1</property>
  <property name="kdenlive:original.format">3</property>
  <property name="kdenlive:original.audio_index">-1</property>
  <property name="kdenlive:original.video_index">0</property>
  <property name="kdenlive:original.mute_on_pause">0</property>
  <property name="kdenlive:original.mlt_service">avformat-novalidate</property>
  <property name="kdenlive:original.meta.media.frame_rate_num">60</property>
  <property name="kdenlive:original.meta.media.frame_rate_den">1</property>
  <property name="kdenlive:original.meta.media.colorspace">709</property>
  <property name="kdenlive:original.meta.media.color_trc">2</property>
  <property name="kdenlive:original.meta.media.has_b_frames">2</property>
  <property name="kdenlive:original.meta.media.width">3840</property>
  <property name="kdenlive:original.meta.media.height">2160</property>
  <property name="kdenlive:original.meta.media.color_range">mpeg</property>
  <property name="kdenlive:original.meta.media.top_field_first">0</property>
  <property name="kdenlive:original.meta.media.progressive">1</property>
  <property name="kdenlive:original.kdenlive:clip_type">2</property>
  <property name="kdenlive:original.kdenlive:folderid">631</property>
  <property name="kdenlive:original.kdenlive:id">635</property>
  <property name="kdenlive:original.kdenlive:file_size">83921</property>
  <property name="kdenlive:original.kdenlive:file_hash">1d3d5b75854f2998b43d370340f6035e</property>
  <property name="kdenlive:original.backup">1</property>
  <property name="meta.media.frame_rate_num">60</property>
  <property name="meta.media.frame_rate_den">1</property>
  <property name="meta.media.colorspace">601</property>
  <property name="meta.media.color_trc">2</property>
  <property name="meta.media.has_b_frames">0</property>
  <property name="meta.media.width">640</property>
  <property name="meta.media.height">360</property>
  <property name="meta.media.color_range">full</property>
  <property name="meta.media.top_field_first">0</property>
  <property name="meta.media.progressive">1</property>
 </producer>
 <producer id="producer442" in="00:00:00.000" out="00:00:00.983">
  <property name="length">60</property>
  <property name="eof">pause</property>
  <property name="resource">/home/xiaoxiae/.cache/kdenlive/proxy/809ad38324ae412959973361b24a6300.mkv</property>
  <property name="meta.media.nb_streams">1</property>
  <property name="meta.media.0.stream.type">video</property>
  <property name="meta.media.0.stream.frame_rate">60</property>
  <property name="meta.media.0.stream.sample_aspect_ratio">0</property>
  <property name="meta.media.0.codec.width">640</property>
  <property name="meta.media.0.codec.height">360</property>
  <property name="meta.media.0.codec.rotate">0</property>
  <property name="meta.media.0.codec.pix_fmt">yuvj420p</property>
  <property name="meta.media.0.codec.sample_aspect_ratio">0</property>
  <property name="meta.media.0.codec.colorspace">601</property>
  <property name="meta.media.0.codec.name">mjpeg</property>
  <property name="meta.media.0.codec.long_name">MJPEG (Motion JPEG)</property>
  <property name="meta.media.0.codec.bit_rate">0</property>
  <property name="meta.attr.0.stream.HANDLER_NAME.markup">VideoHandler</property>
  <property name="meta.attr.0.stream.VENDOR_ID.markup">[0][0][0][0]</property>
  <property name="meta.attr.0.stream.ENCODER.markup">Lavc60.3.100 mjpeg</property>
  <property name="meta.attr.0.stream.DURATION.markup">00:00:01.000000000</property>
  <property name="meta.attr.COMMENT.markup">Rendered with Manim Community v0.17.2</property>
  <property name="meta.attr.MAJOR_BRAND.markup">isom</property>
  <property name="meta.attr.MINOR_VERSION.markup">512</property>
  <property name="meta.attr.COMPATIBLE_BRANDS.markup">isomiso2avc1mp41</property>
  <property name="meta.attr.ENCODER.markup">Lavf60.3.100</property>
  <property name="seekable">1</property>
  <property name="meta.media.sample_aspect_num">1</property>
  <property name="meta.media.sample_aspect_den">1</property>
  <property name="aspect_ratio">1</property>
  <property name="format">3</property>
  <property name="audio_index">-1</property>
  <property name="video_index">0</property>
  <property name="mute_on_pause">0</property>
  <property name="mlt_service">avformat-novalidate</property>
  <property name="kdenlive:clipname">2.mp4</property>
  <property name="kdenlive:clip_type">2</property>
  <property name="kdenlive:folderid">631</property>
  <property name="kdenlive:id">522</property>
  <property name="kdenlive:file_size">51788</property>
  <property name="kdenlive:file_hash">809ad38324ae412959973361b24a6300</property>
  <property name="kdenlive:proxy">/home/xiaoxiae/.cache/kdenlive/proxy/809ad38324ae412959973361b24a6300.mkv</property>
  <property name="kdenlive:originalurl">video/Fever/2.mp4</property>
  <property name="kdenlive:original.mlt_type">producer</property>
  <property name="kdenlive:original.in">0</property>
  <property name="kdenlive:original.out">59</property>
  <property name="kdenlive:original.length">60</property>
  <property name="kdenlive:original.eof">pause</property>
  <property name="kdenlive:original.resource">video/Fever/2.mp4</property>
  <property name="kdenlive:original.meta.media.nb_streams">1</property>
  <property name="kdenlive:original.meta.media.0.stream.type">video</property>
  <property name="kdenlive:original.meta.media.0.stream.frame_rate">60</property>
  <property name="kdenlive:original.meta.media.0.stream.sample_aspect_ratio">0</property>
  <property name="kdenlive:original.meta.media.0.codec.width">3840</property>
  <property name="kdenlive:original.meta.media.0.codec.height">2160</property>
  <property name="kdenlive:original.meta.media.0.codec.rotate">0</property>
  <property name="kdenlive:original.meta.media.0.codec.pix_fmt">yuv420p</property>
  <property name="kdenlive:original.meta.media.0.codec.sample_aspect_ratio">0</property>
  <property name="kdenlive:original.meta.media.0.codec.colorspace">709</property>
  <property name="kdenlive:original.meta.media.0.codec.name">h264</property>
  <property name="kdenlive:original.meta.media.0.codec.long_name">H.264 / AVC / MPEG-4 AVC / MPEG-4 part 10</property>
  <property name="kdenlive:original.meta.media.0.codec.bit_rate">401256</property>
  <property name="kdenlive:original.meta.attr.0.stream.handler_name.markup">VideoHandler</property>
  <property name="kdenlive:original.meta.attr.0.stream.vendor_id.markup">[0][0][0][0]</property>
  <property name="kdenlive:original.meta.attr.0.stream.encoder.markup">Lavc60.3.100 libx264</property>
  <property name="kdenlive:original.meta.attr.major_brand.markup">isom</property>
  <property name="kdenlive:original.meta.attr.minor_version.markup">512</property>
  <property name="kdenlive:original.meta.attr.compatible_brands.markup">isomiso2avc1mp41</property>
  <property name="kdenlive:original.meta.attr.encoder.markup">Lavf60.3.100</property>
  <property name="kdenlive:original.meta.attr.comment.markup">Rendered with Manim Community v0.17.2</property>
  <property name="kdenlive:original.seekable">1</property>
  <property name="kdenlive:original.width">3840</property>
  <property name="kdenlive:original.height">2160</property>
  <property name="kdenlive:original.meta.media.sample_aspect_num">1</property>
  <property name="kdenlive:original.meta.media.sample_aspect_den">1</property>
  <property name="kdenlive:original.aspect_ratio">1</property>
  <property name="kdenlive:original.format">3</property>
  <property name="kdenlive:original.audio_index">-1</property>
  <property name="kdenlive:original.video_index">0</property>
  <property name="kdenlive:original.mute_on_pause">0</property>
  <property name="kdenlive:original.mlt_service">avformat-novalidate</property>
  <property name="kdenlive:original.meta.media.frame_rate_num">60</property>
  <property name="kdenlive:original.meta.media.frame_rate_den">1</property>
  <property name="kdenlive:original.meta.media.colorspace">709</property>
  <property name="kdenlive:original.meta.media.color_trc">2</property>
  <property name="kdenlive:original.meta.media.has_b_frames">2</property>
  <property name="kdenlive:original.meta.media.width">3840</property>
  <property name="kdenlive:original.meta.media.height">2160</property>
  <property name="kdenlive:original.meta.media.color_range">mpeg</property>
  <property name="kdenlive:original.meta.media.top_field_first">0</property>
  <property name="kdenlive:original.meta.media.progressive">1</property>
  <property name="kdenlive:original.kdenlive:clip_type">2</property>
  <property name="kdenlive:original.kdenlive:folderid">631</property>
  <property name="kdenlive:original.kdenlive:id">636</property>
  <property name="kdenlive:original.kdenlive:file_size">51788</property>
  <property name="kdenlive:original.kdenlive:file_hash">809ad38324ae412959973361b24a6300</property>
  <property name="kdenlive:original.backup">1</property>
  <property name="meta.media.frame_rate_num">60</property>
  <property name="meta.media.frame_rate_den">1</property>
  <property name="meta.media.colorspace">601</property>
  <property name="meta.media.color_trc">2</property>
  <property name="meta.media.has_b_frames">0</property>
  <property name="meta.media.width">640</property>
  <property name="meta.media.height">360</property>
  <property name="meta.media.color_range">full</property>
  <property name="meta.media.top_field_first">0</property>
  <property name="meta.media.progressive">1</property>
 </producer>
 <producer id="producer445" in="00:00:00.000" out="00:00:00.983">
  <property name="length">60</property>
  <property name="eof">pause</property>
  <property name="resource">/home/xiaoxiae/.cache/kdenlive/proxy/92fb96fc256fb05ea7f54c028df3a9fe.mkv</property>
  <property name="meta.media.nb_streams">1</property>
  <property name="meta.media.0.stream.type">video</property>
  <property name="meta.media.0.stream.frame_rate">60</property>
  <property name="meta.media.0.stream.sample_aspect_ratio">0</property>
  <property name="meta.media.0.codec.width">640</property>
  <property name="meta.media.0.codec.height">360</property>
  <property name="meta.media.0.codec.rotate">0</property>
  <property name="meta.media.0.codec.pix_fmt">yuvj420p</property>
  <property name="meta.media.0.codec.sample_aspect_ratio">0</property>
  <property name="meta.media.0.codec.colorspace">601</property>
  <property name="meta.media.0.codec.name">mjpeg</property>
  <property name="meta.media.0.codec.long_name">MJPEG (Motion JPEG)</property>
  <property name="meta.media.0.codec.bit_rate">0</property>
  <property name="meta.attr.0.stream.HANDLER_NAME.markup">VideoHandler</property>
  <property name="meta.attr.0.stream.VENDOR_ID.markup">[0][0][0][0]</property>
  <property name="meta.attr.0.stream.ENCODER.markup">Lavc60.3.100 mjpeg</property>
  <property name="meta.attr.0.stream.DURATION.markup">00:00:01.000000000</property>
  <property name="meta.attr.COMMENT.markup">Rendered with Manim Community v0.17.2</property>
  <property name="meta.attr.MAJOR_BRAND.markup">isom</property>
  <property name="meta.attr.MINOR_VERSION.markup">512</property>
  <property name="meta.attr.COMPATIBLE_BRANDS.markup">isomiso2avc1mp41</property>
  <property name="meta.attr.ENCODER.markup">Lavf60.3.100</property>
  <property name="seekable">1</property>
  <property name="meta.media.sample_aspect_num">1</property>
  <property name="meta.media.sample_aspect_den">1</property>
  <property name="aspect_ratio">1</property>
  <property name="format">3</property>
  <property name="audio_index">-1</property>
  <property name="video_index">0</property>
  <property name="mute_on_pause">0</property>
  <property name="mlt_service">avformat-novalidate</property>
  <property name="kdenlive:clipname">3.mp4</property>
  <property name="kdenlive:clip_type">2</property>
  <property name="kdenlive:folderid">631</property>
  <property name="kdenlive:id">523</property>
  <property name="kdenlive:file_size">223945</property>
  <property name="kdenlive:file_hash">92fb96fc256fb05ea7f54c028df3a9fe</property>
  <property name="kdenlive:proxy">/home/xiaoxiae/.cache/kdenlive/proxy/92fb96fc256fb05ea7f54c028df3a9fe.mkv</property>
  <property name="kdenlive:originalurl">video/Fever/3.mp4</property>
  <property name="kdenlive:original.mlt_type">producer</property>
  <property name="kdenlive:original.in">0</property>
  <property name="kdenlive:original.out">59</property>
  <property name="kdenlive:original.length">60</property>
  <property name="kdenlive:original.eof">pause</property>
  <property name="kdenlive:original.resource">video/Fever/3.mp4</property>
  <property name="kdenlive:original.meta.media.nb_streams">1</property>
  <property name="kdenlive:original.meta.media.0.stream.type">video</property>
  <property name="kdenlive:original.meta.media.0.stream.frame_rate">60</property>
  <property name="kdenlive:original.meta.media.0.stream.sample_aspect_ratio">0</property>
  <property name="kdenlive:original.meta.media.0.codec.width">3840</property>
  <property name="kdenlive:original.meta.media.0.codec.height">2160</property>
  <property name="kdenlive:original.meta.media.0.codec.rotate">0</property>
  <property name="kdenlive:original.meta.media.0.codec.pix_fmt">yuv420p</property>
  <property name="kdenlive:original.meta.media.0.codec.sample_aspect_ratio">0</property>
  <property name="kdenlive:original.meta.media.0.codec.colorspace">709</property>
  <property name="kdenlive:original.meta.media.0.codec.name">h264</property>
  <property name="kdenlive:original.meta.media.0.codec.long_name">H.264 / AVC / MPEG-4 AVC / MPEG-4 part 10</property>
  <property name="kdenlive:original.meta.media.0.codec.bit_rate">1779664</property>
  <property name="kdenlive:original.meta.attr.0.stream.handler_name.markup">VideoHandler</property>
  <property name="kdenlive:original.meta.attr.0.stream.vendor_id.markup">[0][0][0][0]</property>
  <property name="kdenlive:original.meta.attr.0.stream.encoder.markup">Lavc60.3.100 libx264</property>
  <property name="kdenlive:original.meta.attr.major_brand.markup">isom</property>
  <property name="kdenlive:original.meta.attr.minor_version.markup">512</property>
  <property name="kdenlive:original.meta.attr.compatible_brands.markup">isomiso2avc1mp41</property>
  <property name="kdenlive:original.meta.attr.encoder.markup">Lavf60.3.100</property>
  <property name="kdenlive:original.meta.attr.comment.markup">Rendered with Manim Community v0.17.2</property>
  <property name="kdenlive:original.seekable">1</property>
  <property name="kdenlive:original.width">3840</property>
  <property name="kdenlive:original.height">2160</property>
  <property name="kdenlive:original.meta.media.sample_aspect_num">1</property>
  <property name="kdenlive:original.meta.media.sample_aspect_den">1</property>
  <property name="kdenlive:original.aspect_ratio">1</property>
  <property name="kdenlive:original.format">3</property>
  <property name="kdenlive:original.audio_index">-1</property>
  <property name="kdenlive:original.video_index">0</property>
  <property name="kdenlive:original.mute_on_pause">0</property>
  <property name="kdenlive:original.mlt_service">avformat-novalidate</property>
  <property name="kdenlive:original.meta.media.frame_rate_num">60</property>
  <property name="kdenlive:original.meta.media.frame_rate_den">1</property>
  <property name="kdenlive:original.meta.media.colorspace">709</property>
  <property name="kdenlive:original.meta.media.color_trc">2</property>
  <property name="kdenlive:original.meta.media.has_b_frames">2</property>
  <property name="kdenlive:original.meta.media.width">3840</property>
  <property name="kdenlive:original.meta.media.height">2160</property>
  <property name="kdenlive:original.meta.media.color_range">mpeg</property>
  <property name="kdenlive:original.meta.media.top_field_first">0</property>
  <property name="kdenlive:original.meta.media.progressive">1</property>
  <property name="kdenlive:original.kdenlive:clip_type">2</property>
  <property name="kdenlive:original.kdenlive:folderid">631</property>
  <property name="kdenlive:original.kdenlive:id">637</property>
  <property name="kdenlive:original.kdenlive:file_size">223945</property>
  <property name="kdenlive:original.kdenlive:file_hash">92fb96fc256fb05ea7f54c028df3a9fe</property>
  <property name="kdenlive:original.backup">1</property>
  <property name="meta.media.frame_rate_num">60</property>
  <property name="meta.media.frame_rate_den">1</property>
  <property name="meta.media.colorspace">601</property>
  <property name="meta.media.color_trc">2</property>
  <property name="meta.media.has_b_frames">0</property>
  <property name="meta.media.width">640</property>
  <property name="meta.media.height">360</property>
  <property name="meta.media.color_range">full</property>
  <property name="meta.media.top_field_first">0</property>
  <property name="meta.media.progressive">1</property>
 </producer>
 <producer id="producer443" in="00:00:00.000" out="00:00:00.983">
  <property name="length">60</property>
  <property name="eof">pause</property>
  <property name="resource">/home/xiaoxiae/.cache/kdenlive/proxy/5b4d168c0e59b9848aeae97c7e8c244b.mkv</property>
  <property name="meta.media.nb_streams">1</property>
  <property name="meta.media.0.stream.type">video</property>
  <property name="meta.media.0.stream.frame_rate">60</property>
  <property name="meta.media.0.stream.sample_aspect_ratio">0</property>
  <property name="meta.media.0.codec.width">640</property>
  <property name="meta.media.0.codec.height">360</property>
  <property name="meta.media.0.codec.rotate">0</property>
  <property name="meta.media.0.codec.pix_fmt">yuvj420p</property>
  <property name="meta.media.0.codec.sample_aspect_ratio">0</property>
  <property name="meta.media.0.codec.colorspace">601</property>
  <property name="meta.media.0.codec.name">mjpeg</property>
  <property name="meta.media.0.codec.long_name">MJPEG (Motion JPEG)</property>
  <property name="meta.media.0.codec.bit_rate">0</property>
  <property name="meta.attr.0.stream.HANDLER_NAME.markup">VideoHandler</property>
  <property name="meta.attr.0.stream.VENDOR_ID.markup">[0][0][0][0]</property>
  <property name="meta.attr.0.stream.ENCODER.markup">Lavc60.3.100 mjpeg</property>
  <property name="meta.attr.0.stream.DURATION.markup">00:00:01.000000000</property>
  <property name="meta.attr.COMMENT.markup">Rendered with Manim Community v0.17.2</property>
  <property name="meta.attr.MAJOR_BRAND.markup">isom</property>
  <property name="meta.attr.MINOR_VERSION.markup">512</property>
  <property name="meta.attr.COMPATIBLE_BRANDS.markup">isomiso2avc1mp41</property>
  <property name="meta.attr.ENCODER.markup">Lavf60.3.100</property>
  <property name="seekable">1</property>
  <property name="meta.media.sample_aspect_num">1</property>
  <property name="meta.media.sample_aspect_den">1</property>
  <property name="aspect_ratio">1</property>
  <property name="format">3</property>
  <property name="audio_index">-1</property>
  <property name="video_index">0</property>
  <property name="mute_on_pause">0</property>
  <property name="mlt_service">avformat-novalidate</property>
  <property name="kdenlive:clipname">4.mp4</property>
  <property name="kdenlive:clip_type">2</property>
  <property name="kdenlive:folderid">631</property>
  <property name="kdenlive:id">524</property>
  <property name="kdenlive:file_size">162380</property>
  <property name="kdenlive:file_hash">5b4d168c0e59b9848aeae97c7e8c244b</property>
  <property name="kdenlive:proxy">/home/xiaoxiae/.cache/kdenlive/proxy/5b4d168c0e59b9848aeae97c7e8c244b.mkv</property>
  <property name="kdenlive:originalurl">video/Fever/4.mp4</property>
  <property name="kdenlive:original.mlt_type">producer</property>
  <property name="kdenlive:original.in">0</property>
  <property name="kdenlive:original.out">59</property>
  <property name="kdenlive:original.length">60</property>
  <property name="kdenlive:original.eof">pause</property>
  <property name="kdenlive:original.resource">video/Fever/4.mp4</property>
  <property name="kdenlive:original.meta.media.nb_streams">1</property>
  <property name="kdenlive:original.meta.media.0.stream.type">video</property>
  <property name="kdenlive:original.meta.media.0.stream.frame_rate">60</property>
  <property name="kdenlive:original.meta.media.0.stream.sample_aspect_ratio">0</property>
  <property name="kdenlive:original.meta.media.0.codec.width">3840</property>
  <property name="kdenlive:original.meta.media.0.codec.height">2160</property>
  <property name="kdenlive:original.meta.media.0.codec.rotate">0</property>
  <property name="kdenlive:original.meta.media.0.codec.pix_fmt">yuv420p</property>
  <property name="kdenlive:original.meta.media.0.codec.sample_aspect_ratio">0</property>
  <property name="kdenlive:original.meta.media.0.codec.colorspace">709</property>
  <property name="kdenlive:original.meta.media.0.codec.name">h264</property>
  <property name="kdenlive:original.meta.media.0.codec.long_name">H.264 / AVC / MPEG-4 AVC / MPEG-4 part 10</property>
  <property name="kdenlive:original.meta.media.0.codec.bit_rate">1287528</property>
  <property name="kdenlive:original.meta.attr.0.stream.handler_name.markup">VideoHandler</property>
  <property name="kdenlive:original.meta.attr.0.stream.vendor_id.markup">[0][0][0][0]</property>
  <property name="kdenlive:original.meta.attr.0.stream.encoder.markup">Lavc60.3.100 libx264</property>
  <property name="kdenlive:original.meta.attr.major_brand.markup">isom</property>
  <property name="kdenlive:original.meta.attr.minor_version.markup">512</property>
  <property name="kdenlive:original.meta.attr.compatible_brands.markup">isomiso2avc1mp41</property>
  <property name="kdenlive:original.meta.attr.encoder.markup">Lavf60.3.100</property>
  <property name="kdenlive:original.meta.attr.comment.markup">Rendered with Manim Community v0.17.2</property>
  <property name="kdenlive:original.seekable">1</property>
  <property name="kdenlive:original.width">3840</property>
  <property name="kdenlive:original.height">2160</property>
  <property name="kdenlive:original.meta.media.sample_aspect_num">1</property>
  <property name="kdenlive:original.meta.media.sample_aspect_den">1</property>
  <property name="kdenlive:original.aspect_ratio">1</property>
  <property name="kdenlive:original.format">3</property>
  <property name="kdenlive:original.audio_index">-1</property>
  <property name="kdenlive:original.video_index">0</property>
  <property name="kdenlive:original.mute_on_pause">0</property>
  <property name="kdenlive:original.mlt_service">avformat-novalidate</property>
  <property name="kdenlive:original.meta.media.frame_rate_num">60</property>
  <property name="kdenlive:original.meta.media.frame_rate_den">1</property>
  <property name="kdenlive:original.meta.media.colorspace">709</property>
  <property name="kdenlive:original.meta.media.color_trc">2</property>
  <property name="kdenlive:original.meta.media.has_b_frames">2</property>
  <property name="kdenlive:original.meta.media.width">3840</property>
  <property name="kdenlive:original.meta.media.height">2160</property>
  <property name="kdenlive:original.meta.media.color_range">mpeg</property>
  <property name="kdenlive:original.meta.media.top_field_first">0</property>
  <property name="kdenlive:original.meta.media.progressive">1</property>
  <property name="kdenlive:original.kdenlive:clip_type">2</property>
  <property name="kdenlive:original.kdenlive:folderid">631</property>
  <property name="kdenlive:original.kdenlive:id">638</property>
  <property name="kdenlive:original.kdenlive:file_size">162380</property>
  <property name="kdenlive:original.kdenlive:file_hash">5b4d168c0e59b9848aeae97c7e8c244b</property>
  <property name="kdenlive:original.backup">1</property>
  <property name="meta.media.frame_rate_num">60</property>
  <property name="meta.media.frame_rate_den">1</property>
  <property name="meta.media.colorspace">601</property>
  <property name="meta.media.color_trc">2</property>
  <property name="meta.media.has_b_frames">0</property>
  <property name="meta.media.width">640</property>
  <property name="meta.media.height">360</property>
  <property name="meta.media.color_range">full</property>
  <property name="meta.media.top_field_first">0</property>
  <property name="meta.media.progressive">1</property>
 </producer>
 <producer id="producer444" in="00:00:00.000" out="00:00:00.983">
  <property name="length">60</property>
  <property name="eof">pause</property>
  <property name="resource">/home/xiaoxiae/.cache/kdenlive/proxy/59e22dbe11072c4915cfba872efe7a00.mkv</property>
  <property name="meta.media.nb_streams">1</property>
  <property name="meta.media.0.stream.type">video</property>
  <property name="meta.media.0.stream.frame_rate">60</property>
  <property name="meta.media.0.stream.sample_aspect_ratio">0</property>
  <property name="meta.media.0.codec.width">640</property>
  <property name="meta.media.0.codec.height">360</property>
  <property name="meta.media.0.codec.rotate">0</property>
  <property name="meta.media.0.codec.pix_fmt">yuvj420p</property>
  <property name="meta.media.0.codec.sample_aspect_ratio">0</property>
  <property name="meta.media.0.codec.colorspace">601</property>
  <property name="meta.media.0.codec.name">mjpeg</property>
  <property name="meta.media.0.codec.long_name">MJPEG (Motion JPEG)</property>
  <property name="meta.media.0.codec.bit_rate">0</property>
  <property name="meta.attr.0.stream.HANDLER_NAME.markup">VideoHandler</property>
  <property name="meta.attr.0.stream.VENDOR_ID.markup">[0][0][0][0]</property>
  <property name="meta.attr.0.stream.ENCODER.markup">Lavc60.3.100 mjpeg</property>
  <property name="meta.attr.0.stream.DURATION.markup">00:00:01.000000000</property>
  <property name="meta.attr.COMMENT.markup">Rendered with Manim Community v0.17.2</property>
  <property name="meta.attr.MAJOR_BRAND.markup">isom</property>
  <property name="meta.attr.MINOR_VERSION.markup">512</property>
  <property name="meta.attr.COMPATIBLE_BRANDS.markup">isomiso2avc1mp41</property>
  <property name="meta.attr.ENCODER.markup">Lavf60.3.100</property>
  <property name="seekable">1</property>
  <property name="meta.media.sample_aspect_num">1</property>
  <property name="meta.media.sample_aspect_den">1</property>
  <property name="aspect_ratio">1</property>
  <property name="format">3</property>
  <property name="audio_index">-1</property>
  <property name="video_index">0</property>
  <property name="mute_on_pause">0</property>
  <property name="mlt_service">avformat-novalidate</property>
  <property name="kdenlive:clipname">5.mp4</property>
  <property name="kdenlive:clip_type">2</property>
  <property name="kdenlive:folderid">631</property>
  <property name="kdenlive:id">525</property>
  <property name="kdenlive:file_size">61585</property>
  <property name="kdenlive:file_hash">59e22dbe11072c4915cfba872efe7a00</property>
  <property name="kdenlive:proxy">/home/xiaoxiae/.cache/kdenlive/proxy/59e22dbe11072c4915cfba872efe7a00.mkv</property>
  <property name="kdenlive:originalurl">video/Fever/5.mp4</property>
  <property name="kdenlive:original.mlt_type">producer</property>
  <property name="kdenlive:original.in">0</property>
  <property name="kdenlive:original.out">59</property>
  <property name="kdenlive:original.length">60</property>
  <property name="kdenlive:original.eof">pause</property>
  <property name="kdenlive:original.resource">video/Fever/5.mp4</property>
  <property name="kdenlive:original.meta.media.nb_streams">1</property>
  <property name="kdenlive:original.meta.media.0.stream.type">video</property>
  <property name="kdenlive:original.meta.media.0.stream.frame_rate">60</property>
  <property name="kdenlive:original.meta.media.0.stream.sample_aspect_ratio">0</property>
  <property name="kdenlive:original.meta.media.0.codec.width">3840</property>
  <property name="kdenlive:original.meta.media.0.codec.height">2160</property>
  <property name="kdenlive:original.meta.media.0.codec.rotate">0</property>
  <property name="kdenlive:original.meta.media.0.codec.pix_fmt">yuv420p</property>
  <property name="kdenlive:original.meta.media.0.codec.sample_aspect_ratio">0</property>
  <property name="kdenlive:original.meta.media.0.codec.colorspace">709</property>
  <property name="kdenlive:original.meta.media.0.codec.name">h264</property>
  <property name="kdenlive:original.meta.media.0.codec.long_name">H.264 / AVC / MPEG-4 AVC / MPEG-4 part 10</property>
  <property name="kdenlive:original.meta.media.0.codec.bit_rate">479632</property>
  <property name="kdenlive:original.meta.attr.0.stream.handler_name.markup">VideoHandler</property>
  <property name="kdenlive:original.meta.attr.0.stream.vendor_id.markup">[0][0][0][0]</property>
  <property name="kdenlive:original.meta.attr.0.stream.encoder.markup">Lavc60.3.100 libx264</property>
  <property name="kdenlive:original.meta.attr.major_brand.markup">isom</property>
  <property name="kdenlive:original.meta.attr.minor_version.markup">512</property>
  <property name="kdenlive:original.meta.attr.compatible_brands.markup">isomiso2avc1mp41</property>
  <property name="kdenlive:original.meta.attr.encoder.markup">Lavf60.3.100</property>
  <property name="kdenlive:original.meta.attr.comment.markup">Rendered with Manim Community v0.17.2</property>
  <property name="kdenlive:original.seekable">1</property>
  <property name="kdenlive:original.width">3840</property>
  <property name="kdenlive:original.height">2160</property>
  <property name="kdenlive:original.meta.media.sample_aspect_num">1</property>
  <property name="kdenlive:original.meta.media.sample_aspect_den">1</property>
  <property name="kdenlive:original.aspect_ratio">1</property>
  <property name="kdenlive:original.format">3</property>
  <property name="kdenlive:original.audio_index">-1</property>
  <property name="kdenlive:original.video_index">0</property>
  <property name="kdenlive:original.mute_on_pause">0</property>
  <property name="kdenlive:original.mlt_service">avformat-novalidate</property>
  <property name="kdenlive:original.meta.media.frame_rate_num">60</property>
  <property name="kdenlive:original.meta.media.frame_rate_den">1</property>
  <property name="kdenlive:original.meta.media.colorspace">709</property>
  <property name="kdenlive:original.meta.media.color_trc">2</property>
  <property name="kdenlive:original.meta.media.has_b_frames">2</property>
  <property name="kdenlive:original.meta.media.width">3840</property>
  <property name="kdenlive:original.meta.media.height">2160</property>
  <property name="kdenlive:original.meta.media.color_range">mpeg</property>
  <property name="kdenlive:original.meta.media.top_field_first">0</property>
  <property name="kdenlive:original.meta.media.progressive">1</property>
  <property name="kdenlive:original.kdenlive:clip_type">2</property>
  <property name="kdenlive:original.kdenlive:folderid">631</property>
  <property name="kdenlive:original.kdenlive:id">639</property>
  <property name="kdenlive:original.kdenlive:file_size">61585</property>
  <property name="kdenlive:original.kdenlive:file_hash">59e22dbe11072c4915cfba872efe7a00</property>
  <property name="kdenlive:original.backup">1</property>
  <property name="meta.media.frame_rate_num">60</property>
  <property name="meta.media.frame_rate_den">1</property>
  <property name="meta.media.colorspace">601</property>
  <property name="meta.media.color_trc">2</property>
  <property name="meta.media.has_b_frames">0</property>
  <property name="meta.media.width">640</property>
  <property name="meta.media.height">360</property>
  <property name="meta.media.color_range">full</property>
  <property name="meta.media.top_field_first">0</property>
  <property name="meta.media.progressive">1</property>
 </producer>
 <producer id="producer446" in="00:00:00.000" out="00:00:01.483">
  <property name="length">90</property>
  <property name="eof">pause</property>
  <property name="resource">/home/xiaoxiae/.cache/kdenlive/proxy/4165b26fa8a417217043752bdd8e647b.mkv</property>
  <property name="meta.media.nb_streams">1</property>
  <property name="meta.media.0.stream.type">video</property>
  <property name="meta.media.0.stream.frame_rate">60</property>
  <property name="meta.media.0.stream.sample_aspect_ratio">0</property>
  <property name="meta.media.0.codec.width">640</property>
  <property name="meta.media.0.codec.height">360</property>
  <property name="meta.media.0.codec.rotate">0</property>
  <property name="meta.media.0.codec.pix_fmt">yuvj420p</property>
  <property name="meta.media.0.codec.sample_aspect_ratio">0</property>
  <property name="meta.media.0.codec.colorspace">601</property>
  <property name="meta.media.0.codec.name">mjpeg</property>
  <property name="meta.media.0.codec.long_name">MJPEG (Motion JPEG)</property>
  <property name="meta.media.0.codec.bit_rate">0</property>
  <property name="meta.attr.0.stream.HANDLER_NAME.markup">VideoHandler</property>
  <property name="meta.attr.0.stream.VENDOR_ID.markup">[0][0][0][0]</property>
  <property name="meta.attr.0.stream.ENCODER.markup">Lavc60.3.100 mjpeg</property>
  <property name="meta.attr.0.stream.DURATION.markup">00:00:01.500000000</property>
  <property name="meta.attr.COMMENT.markup">Rendered with Manim Community v0.17.2</property>
  <property name="meta.attr.MAJOR_BRAND.markup">isom</property>
  <property name="meta.attr.MINOR_VERSION.markup">512</property>
  <property name="meta.attr.COMPATIBLE_BRANDS.markup">isomiso2avc1mp41</property>
  <property name="meta.attr.ENCODER.markup">Lavf60.3.100</property>
  <property name="seekable">1</property>
  <property name="meta.media.sample_aspect_num">1</property>
  <property name="meta.media.sample_aspect_den">1</property>
  <property name="aspect_ratio">1</property>
  <property name="format">3</property>
  <property name="audio_index">-1</property>
  <property name="video_index">0</property>
  <property name="mute_on_pause">0</property>
  <property name="mlt_service">avformat-novalidate</property>
  <property name="kdenlive:clipname">6.mp4</property>
  <property name="kdenlive:clip_type">2</property>
  <property name="kdenlive:folderid">631</property>
  <property name="kdenlive:id">526</property>
  <property name="kdenlive:file_size">190562</property>
  <property name="kdenlive:file_hash">4165b26fa8a417217043752bdd8e647b</property>
  <property name="kdenlive:proxy">/home/xiaoxiae/.cache/kdenlive/proxy/4165b26fa8a417217043752bdd8e647b.mkv</property>
  <property name="kdenlive:originalurl">video/Fever/6.mp4</property>
  <property name="kdenlive:original.mlt_type">producer</property>
  <property name="kdenlive:original.in">0</property>
  <property name="kdenlive:original.out">89</property>
  <property name="kdenlive:original.length">90</property>
  <property name="kdenlive:original.eof">pause</property>
  <property name="kdenlive:original.resource">video/Fever/6.mp4</property>
  <property name="kdenlive:original.meta.media.nb_streams">1</property>
  <property name="kdenlive:original.meta.media.0.stream.type">video</property>
  <property name="kdenlive:original.meta.media.0.stream.frame_rate">60</property>
  <property name="kdenlive:original.meta.media.0.stream.sample_aspect_ratio">0</property>
  <property name="kdenlive:original.meta.media.0.codec.width">3840</property>
  <property name="kdenlive:original.meta.media.0.codec.height">2160</property>
  <property name="kdenlive:original.meta.media.0.codec.rotate">0</property>
  <property name="kdenlive:original.meta.media.0.codec.pix_fmt">yuv420p</property>
  <property name="kdenlive:original.meta.media.0.codec.sample_aspect_ratio">0</property>
  <property name="kdenlive:original.meta.media.0.codec.colorspace">709</property>
  <property name="kdenlive:original.meta.media.0.codec.name">h264</property>
  <property name="kdenlive:original.meta.media.0.codec.long_name">H.264 / AVC / MPEG-4 AVC / MPEG-4 part 10</property>
  <property name="kdenlive:original.meta.media.0.codec.bit_rate">1006010</property>
  <property name="kdenlive:original.meta.attr.0.stream.handler_name.markup">VideoHandler</property>
  <property name="kdenlive:original.meta.attr.0.stream.vendor_id.markup">[0][0][0][0]</property>
  <property name="kdenlive:original.meta.attr.0.stream.encoder.markup">Lavc60.3.100 libx264</property>
  <property name="kdenlive:original.meta.attr.major_brand.markup">isom</property>
  <property name="kdenlive:original.meta.attr.minor_version.markup">512</property>
  <property name="kdenlive:original.meta.attr.compatible_brands.markup">isomiso2avc1mp41</property>
  <property name="kdenlive:original.meta.attr.encoder.markup">Lavf60.3.100</property>
  <property name="kdenlive:original.meta.attr.comment.markup">Rendered with Manim Community v0.17.2</property>
  <property name="kdenlive:original.seekable">1</property>
  <property name="kdenlive:original.width">3840</property>
  <property name="kdenlive:original.height">2160</property>
  <property name="kdenlive:original.meta.media.sample_aspect_num">1</property>
  <property name="kdenlive:original.meta.media.sample_aspect_den">1</property>
  <property name="kdenlive:original.aspect_ratio">1</property>
  <property name="kdenlive:original.format">3</property>
  <property name="kdenlive:original.audio_index">-1</property>
  <property name="kdenlive:original.video_index">0</property>
  <property name="kdenlive:original.mute_on_pause">0</property>
  <property name="kdenlive:original.mlt_service">avformat-novalidate</property>
  <property name="kdenlive:original.meta.media.frame_rate_num">60</property>
  <property name="kdenlive:original.meta.media.frame_rate_den">1</property>
  <property name="kdenlive:original.meta.media.colorspace">709</property>
  <property name="kdenlive:original.meta.media.color_trc">2</property>
  <property name="kdenlive:original.meta.media.has_b_frames">2</property>
  <property name="kdenlive:original.meta.media.width">3840</property>
  <property name="kdenlive:original.meta.media.height">2160</property>
  <property name="kdenlive:original.meta.media.color_range">mpeg</property>
  <property name="kdenlive:original.meta.media.top_field_first">0</property>
  <property name="kdenlive:original.meta.media.progressive">1</property>
  <property name="kdenlive:original.kdenlive:clip_type">2</property>
  <property name="kdenlive:original.kdenlive:folderid">631</property>
  <property name="kdenlive:original.kdenlive:id">640</property>
  <property name="kdenlive:original.kdenlive:file_size">190562</property>
  <property name="kdenlive:original.kdenlive:file_hash">4165b26fa8a417217043752bdd8e647b</property>
  <property name="kdenlive:original.backup">1</property>
  <property name="meta.media.frame_rate_num">60</property>
  <property name="meta.media.frame_rate_den">1</property>
  <property name="meta.media.colorspace">601</property>
  <property name="meta.media.color_trc">2</property>
  <property name="meta.media.has_b_frames">0</property>
  <property name="meta.media.width">640</property>
  <property name="meta.media.height">360</property>
  <property name="meta.media.color_range">full</property>
  <property name="meta.media.top_field_first">0</property>
  <property name="meta.media.progressive">1</property>
 </producer>
 <producer id="producer447" in="00:00:00.000" out="00:00:00.983">
  <property name="length">60</property>
  <property name="eof">pause</property>
  <property name="resource">/home/xiaoxiae/.cache/kdenlive/proxy/dd500a8f68a3efbff35f39ec6b161367.mkv</property>
  <property name="meta.media.nb_streams">1</property>
  <property name="meta.media.0.stream.type">video</property>
  <property name="meta.media.0.stream.frame_rate">60</property>
  <property name="meta.media.0.stream.sample_aspect_ratio">0</property>
  <property name="meta.media.0.codec.width">640</property>
  <property name="meta.media.0.codec.height">360</property>
  <property name="meta.media.0.codec.rotate">0</property>
  <property name="meta.media.0.codec.pix_fmt">yuvj420p</property>
  <property name="meta.media.0.codec.sample_aspect_ratio">0</property>
  <property name="meta.media.0.codec.colorspace">601</property>
  <property name="meta.media.0.codec.name">mjpeg</property>
  <property name="meta.media.0.codec.long_name">MJPEG (Motion JPEG)</property>
  <property name="meta.media.0.codec.bit_rate">0</property>
  <property name="meta.attr.0.stream.HANDLER_NAME.markup">VideoHandler</property>
  <property name="meta.attr.0.stream.VENDOR_ID.markup">[0][0][0][0]</property>
  <property name="meta.attr.0.stream.ENCODER.markup">Lavc60.3.100 mjpeg</property>
  <property name="meta.attr.0.stream.DURATION.markup">00:00:01.000000000</property>
  <property name="meta.attr.COMMENT.markup">Rendered with Manim Community v0.17.2</property>
  <property name="meta.attr.MAJOR_BRAND.markup">isom</property>
  <property name="meta.attr.MINOR_VERSION.markup">512</property>
  <property name="meta.attr.COMPATIBLE_BRANDS.markup">isomiso2avc1mp41</property>
  <property name="meta.attr.ENCODER.markup">Lavf60.3.100</property>
  <property name="seekable">1</property>
  <property name="meta.media.sample_aspect_num">1</property>
  <property name="meta.media.sample_aspect_den">1</property>
  <property name="aspect_ratio">1</property>
  <property name="format">3</property>
  <property name="audio_index">-1</property>
  <property name="video_index">0</property>
  <property name="mute_on_pause">0</property>
  <property name="mlt_service">avformat-novalidate</property>
  <property name="kdenlive:clipname">7.mp4</property>
  <property name="kdenlive:clip_type">2</property>
  <property name="kdenlive:folderid">631</property>
  <property name="kdenlive:id">527</property>
  <property name="kdenlive:file_size">357611</property>
  <property name="kdenlive:file_hash">dd500a8f68a3efbff35f39ec6b161367</property>
  <property name="kdenlive:proxy">/home/xiaoxiae/.cache/kdenlive/proxy/dd500a8f68a3efbff35f39ec6b161367.mkv</property>
  <property name="kdenlive:originalurl">video/Fever/7.mp4</property>
  <property name="kdenlive:original.mlt_type">producer</property>
  <property name="kdenlive:original.in">0</property>
  <property name="kdenlive:original.out">59</property>
  <property name="kdenlive:original.length">60</property>
  <property name="kdenlive:original.eof">pause</property>
  <property name="kdenlive:original.resource">video/Fever/7.mp4</property>
  <property name="kdenlive:original.meta.media.nb_streams">1</property>
  <property name="kdenlive:original.meta.media.0.stream.type">video</property>
  <property name="kdenlive:original.meta.media.0.stream.frame_rate">60</property>
  <property name="kdenlive:original.meta.media.0.stream.sample_aspect_ratio">0</property>
  <property name="kdenlive:original.meta.media.0.codec.width">3840</property>
  <property name="kdenlive:original.meta.media.0.codec.height">2160</property>
  <property name="kdenlive:original.meta.media.0.codec.rotate">0</property>
  <property name="kdenlive:original.meta.media.0.codec.pix_fmt">yuv420p</property>
  <property name="kdenlive:original.meta.media.0.codec.sample_aspect_ratio">0</property>
  <property name="kdenlive:original.meta.media.0.codec.colorspace">709</property>
  <property name="kdenlive:original.meta.media.0.codec.name">h264</property>
  <property name="kdenlive:original.meta.media.0.codec.long_name">H.264 / AVC / MPEG-4 AVC / MPEG-4 part 10</property>
  <property name="kdenlive:original.meta.media.0.codec.bit_rate">2848160</property>
  <property name="kdenlive:original.meta.attr.0.stream.handler_name.markup">VideoHandler</property>
  <property name="kdenlive:original.meta.attr.0.stream.vendor_id.markup">[0][0][0][0]</property>
  <property name="kdenlive:original.meta.attr.0.stream.encoder.markup">Lavc60.3.100 libx264</property>
  <property name="kdenlive:original.meta.attr.major_brand.markup">isom</property>
  <property name="kdenlive:original.meta.attr.minor_version.markup">512</property>
  <property name="kdenlive:original.meta.attr.compatible_brands.markup">isomiso2avc1mp41</property>
  <property name="kdenlive:original.meta.attr.encoder.markup">Lavf60.3.100</property>
  <property name="kdenlive:original.meta.attr.comment.markup">Rendered with Manim Community v0.17.2</property>
  <property name="kdenlive:original.seekable">1</property>
  <property name="kdenlive:original.width">3840</property>
  <property name="kdenlive:original.height">2160</property>
  <property name="kdenlive:original.meta.media.sample_aspect_num">1</property>
  <property name="kdenlive:original.meta.media.sample_aspect_den">1</property>
  <property name="kdenlive:original.aspect_ratio">1</property>
  <property name="kdenlive:original.format">3</property>
  <property name="kdenlive:original.audio_index">-1</property>
  <property name="kdenlive:original.video_index">0</property>
  <property name="kdenlive:original.mute_on_pause">0</property>
  <property name="kdenlive:original.mlt_service">avformat-novalidate</property>
  <property name="kdenlive:original.meta.media.frame_rate_num">60</property>
  <property name="kdenlive:original.meta.media.frame_rate_den">1</property>
  <property name="kdenlive:original.meta.media.colorspace">709</property>
  <property name="kdenlive:original.meta.media.color_trc">2</property>
  <property name="kdenlive:original.meta.media.has_b_frames">2</property>
  <property name="kdenlive:original.meta.media.width">3840</property>
  <property name="kdenlive:original.meta.media.height">2160</property>
  <property name="kdenlive:original.meta.media.color_range">mpeg</property>
  <property name="kdenlive:original.meta.media.top_field_first">0</property>
  <property name="kdenlive:original.meta.media.progressive">1</property>
  <property name="kdenlive:original.kdenlive:clip_type">2</property>
  <property name="kdenlive:original.kdenlive:folderid">631</property>
  <property name="kdenlive:original.kdenlive:id">641</property>
  <property name="kdenlive:original.kdenlive:file_size">357611</property>
  <property name="kdenlive:original.kdenlive:file_hash">dd500a8f68a3efbff35f39ec6b161367</property>
  <property name="kdenlive:original.backup">1</property>
  <property name="meta.media.frame_rate_num">60</property>
  <property name="meta.media.frame_rate_den">1</property>
  <property name="meta.media.colorspace">601</property>
  <property name="meta.media.color_trc">2</property>
  <property name="meta.media.has_b_frames">0</property>
  <property name="meta.media.width">640</property>
  <property name="meta.media.height">360</property>
  <property name="meta.media.color_range">full</property>
  <property name="meta.media.top_field_first">0</property>
  <property name="meta.media.progressive">1</property>
 </producer>
 <producer id="producer448" in="00:00:00.000" out="00:00:00.983">
  <property name="length">60</property>
  <property name="eof">pause</property>
  <property name="resource">/home/xiaoxiae/.cache/kdenlive/proxy/92a77a7963352755f208f0c89b487b0a.mkv</property>
  <property name="meta.media.nb_streams">1</property>
  <property name="meta.media.0.stream.type">video</property>
  <property name="meta.media.0.stream.frame_rate">60</property>
  <property name="meta.media.0.stream.sample_aspect_ratio">0</property>
  <property name="meta.media.0.codec.width">640</property>
  <property name="meta.media.0.codec.height">360</property>
  <property name="meta.media.0.codec.rotate">0</property>
  <property name="meta.media.0.codec.pix_fmt">yuvj420p</property>
  <property name="meta.media.0.codec.sample_aspect_ratio">0</property>
  <property name="meta.media.0.codec.colorspace">601</property>
  <property name="meta.media.0.codec.name">mjpeg</property>
  <property name="meta.media.0.codec.long_name">MJPEG (Motion JPEG)</property>
  <property name="meta.media.0.codec.bit_rate">0</property>
  <property name="meta.attr.0.stream.HANDLER_NAME.markup">VideoHandler</property>
  <property name="meta.attr.0.stream.VENDOR_ID.markup">[0][0][0][0]</property>
  <property name="meta.attr.0.stream.ENCODER.markup">Lavc60.3.100 mjpeg</property>
  <property name="meta.attr.0.stream.DURATION.markup">00:00:01.000000000</property>
  <property name="meta.attr.COMMENT.markup">Rendered with Manim Community v0.17.2</property>
  <property name="meta.attr.MAJOR_BRAND.markup">isom</property>
  <property name="meta.attr.MINOR_VERSION.markup">512</property>
  <property name="meta.attr.COMPATIBLE_BRANDS.markup">isomiso2avc1mp41</property>
  <property name="meta.attr.ENCODER.markup">Lavf60.3.100</property>
  <property name="seekable">1</property>
  <property name="meta.media.sample_aspect_num">1</property>
  <property name="meta.media.sample_aspect_den">1</property>
  <property name="aspect_ratio">1</property>
  <property name="format">3</property>
  <property name="audio_index">-1</property>
  <property name="video_index">0</property>
  <property name="mute_on_pause">0</property>
  <property name="mlt_service">avformat-novalidate</property>
  <property name="kdenlive:clipname">8.mp4</property>
  <property name="kdenlive:clip_type">2</property>
  <property name="kdenlive:folderid">631</property>
  <property name="kdenlive:id">529</property>
  <property name="kdenlive:file_size">81085</property>
  <property name="kdenlive:file_hash">92a77a7963352755f208f0c89b487b0a</property>
  <property name="kdenlive:proxy">/home/xiaoxiae/.cache/kdenlive/proxy/92a77a7963352755f208f0c89b487b0a.mkv</property>
  <property name="kdenlive:originalurl">video/Fever/8.mp4</property>
  <property name="kdenlive:original.mlt_type">producer</property>
  <property name="kdenlive:original.in">0</property>
  <property name="kdenlive:original.out">59</property>
  <property name="kdenlive:original.length">60</property>
  <property name="kdenlive:original.eof">pause</property>
  <property name="kdenlive:original.resource">video/Fever/8.mp4</property>
  <property name="kdenlive:original.meta.media.nb_streams">1</property>
  <property name="kdenlive:original.meta.media.0.stream.type">video</property>
  <property name="kdenlive:original.meta.media.0.stream.frame_rate">60</property>
  <property name="kdenlive:original.meta.media.0.stream.sample_aspect_ratio">0</property>
  <property name="kdenlive:original.meta.media.0.codec.width">3840</property>
  <property name="kdenlive:original.meta.media.0.codec.height">2160</property>
  <property name="kdenlive:original.meta.media.0.codec.rotate">0</property>
  <property name="kdenlive:original.meta.media.0.codec.pix_fmt">yuv420p</property>
  <property name="kdenlive:original.meta.media.0.codec.sample_aspect_ratio">0</property>
  <property name="kdenlive:original.meta.media.0.codec.colorspace">709</property>
  <property name="kdenlive:original.meta.media.0.codec.name">h264</property>
  <property name="kdenlive:original.meta.media.0.codec.long_name">H.264 / AVC / MPEG-4 AVC / MPEG-4 part 10</property>
  <property name="kdenlive:original.meta.media.0.codec.bit_rate">635632</property>
  <property name="kdenlive:original.meta.attr.0.stream.handler_name.markup">VideoHandler</property>
  <property name="kdenlive:original.meta.attr.0.stream.vendor_id.markup">[0][0][0][0]</property>
  <property name="kdenlive:original.meta.attr.0.stream.encoder.markup">Lavc60.3.100 libx264</property>
  <property name="kdenlive:original.meta.attr.major_brand.markup">isom</property>
  <property name="kdenlive:original.meta.attr.minor_version.markup">512</property>
  <property name="kdenlive:original.meta.attr.compatible_brands.markup">isomiso2avc1mp41</property>
  <property name="kdenlive:original.meta.attr.encoder.markup">Lavf60.3.100</property>
  <property name="kdenlive:original.meta.attr.comment.markup">Rendered with Manim Community v0.17.2</property>
  <property name="kdenlive:original.seekable">1</property>
  <property name="kdenlive:original.width">3840</property>
  <property name="kdenlive:original.height">2160</property>
  <property name="kdenlive:original.meta.media.sample_aspect_num">1</property>
  <property name="kdenlive:original.meta.media.sample_aspect_den">1</property>
  <property name="kdenlive:original.aspect_ratio">1</property>
  <property name="kdenlive:original.format">3</property>
  <property name="kdenlive:original.audio_index">-1</property>
  <property name="kdenlive:original.video_index">0</property>
  <property name="kdenlive:original.mute_on_pause">0</property>
  <property name="kdenlive:original.mlt_service">avformat-novalidate</property>
  <property name="kdenlive:original.meta.media.frame_rate_num">60</property>
  <property name="kdenlive:original.meta.media.frame_rate_den">1</property>
  <property name="kdenlive:original.meta.media.colorspace">709</property>
  <property name="kdenlive:original.meta.media.color_trc">2</property>
  <property name="kdenlive:original.meta.media.has_b_frames">2</property>
  <property name="kdenlive:original.meta.media.width">3840</property>
  <property name="kdenlive:original.meta.media.height">2160</property>
  <property name="kdenlive:original.meta.media.color_range">mpeg</property>
  <property name="kdenlive:original.meta.media.top_field_first">0</property>
  <property name="kdenlive:original.meta.media.progressive">1</property>
  <property name="kdenlive:original.kdenlive:clip_type">2</property>
  <property name="kdenlive:original.kdenlive:folderid">631</property>
  <property name="kdenlive:original.kdenlive:id">642</property>
  <property name="kdenlive:original.kdenlive:file_size">81085</property>
  <property name="kdenlive:original.kdenlive:file_hash">92a77a7963352755f208f0c89b487b0a</property>
  <property name="kdenlive:original.backup">1</property>
  <property name="meta.media.frame_rate_num">60</property>
  <property name="meta.media.frame_rate_den">1</property>
  <property name="meta.media.colorspace">601</property>
  <property name="meta.media.color_trc">2</property>
  <property name="meta.media.has_b_frames">0</property>
  <property name="meta.media.width">640</property>
  <property name="meta.media.height">360</property>
  <property name="meta.media.color_range">full</property>
  <property name="meta.media.top_field_first">0</property>
  <property name="meta.media.progressive">1</property>
 </producer>
 <producer id="producer450" in="00:00:00.000" out="00:00:00.317">
  <property name="length">20</property>
  <property name="eof">pause</property>
  <property name="resource">/home/xiaoxiae/.cache/kdenlive/proxy/94c11b2f81e7d0961af343179d54fc55.mkv</property>
  <property name="meta.media.nb_streams">1</property>
  <property name="meta.media.0.stream.type">video</property>
  <property name="meta.media.0.stream.frame_rate">60</property>
  <property name="meta.media.0.stream.sample_aspect_ratio">0</property>
  <property name="meta.media.0.codec.width">640</property>
  <property name="meta.media.0.codec.height">360</property>
  <property name="meta.media.0.codec.rotate">0</property>
  <property name="meta.media.0.codec.pix_fmt">yuvj420p</property>
  <property name="meta.media.0.codec.sample_aspect_ratio">0</property>
  <property name="meta.media.0.codec.colorspace">601</property>
  <property name="meta.media.0.codec.name">mjpeg</property>
  <property name="meta.media.0.codec.long_name">MJPEG (Motion JPEG)</property>
  <property name="meta.media.0.codec.bit_rate">0</property>
  <property name="meta.attr.0.stream.HANDLER_NAME.markup">VideoHandler</property>
  <property name="meta.attr.0.stream.VENDOR_ID.markup">[0][0][0][0]</property>
  <property name="meta.attr.0.stream.ENCODER.markup">Lavc60.3.100 mjpeg</property>
  <property name="meta.attr.0.stream.DURATION.markup">00:00:00.334000000</property>
  <property name="meta.attr.COMMENT.markup">Rendered with Manim Community v0.17.2</property>
  <property name="meta.attr.MAJOR_BRAND.markup">isom</property>
  <property name="meta.attr.MINOR_VERSION.markup">512</property>
  <property name="meta.attr.COMPATIBLE_BRANDS.markup">isomiso2avc1mp41</property>
  <property name="meta.attr.ENCODER.markup">Lavf60.3.100</property>
  <property name="seekable">1</property>
  <property name="meta.media.sample_aspect_num">1</property>
  <property name="meta.media.sample_aspect_den">1</property>
  <property name="aspect_ratio">1</property>
  <property name="format">3</property>
  <property name="audio_index">-1</property>
  <property name="video_index">0</property>
  <property name="mute_on_pause">0</property>
  <property name="mlt_service">avformat-novalidate</property>
  <property name="kdenlive:clipname">9.mp4</property>
  <property name="kdenlive:clip_type">2</property>
  <property name="kdenlive:folderid">631</property>
  <property name="kdenlive:id">530</property>
  <property name="kdenlive:file_size">56299</property>
  <property name="kdenlive:file_hash">94c11b2f81e7d0961af343179d54fc55</property>
  <property name="kdenlive:proxy">/home/xiaoxiae/.cache/kdenlive/proxy/94c11b2f81e7d0961af343179d54fc55.mkv</property>
  <property name="kdenlive:originalurl">video/Fever/9.mp4</property>
  <property name="kdenlive:original.mlt_type">producer</property>
  <property name="kdenlive:original.in">0</property>
  <property name="kdenlive:original.out">19</property>
  <property name="kdenlive:original.length">20</property>
  <property name="kdenlive:original.eof">pause</property>
  <property name="kdenlive:original.resource">video/Fever/9.mp4</property>
  <property name="kdenlive:original.meta.media.nb_streams">1</property>
  <property name="kdenlive:original.meta.media.0.stream.type">video</property>
  <property name="kdenlive:original.meta.media.0.stream.frame_rate">60</property>
  <property name="kdenlive:original.meta.media.0.stream.sample_aspect_ratio">0</property>
  <property name="kdenlive:original.meta.media.0.codec.width">3840</property>
  <property name="kdenlive:original.meta.media.0.codec.height">2160</property>
  <property name="kdenlive:original.meta.media.0.codec.rotate">0</property>
  <property name="kdenlive:original.meta.media.0.codec.pix_fmt">yuv420p</property>
  <property name="kdenlive:original.meta.media.0.codec.sample_aspect_ratio">0</property>
  <property name="kdenlive:original.meta.media.0.codec.colorspace">709</property>
  <property name="kdenlive:original.meta.media.0.codec.name">h264</property>
  <property name="kdenlive:original.meta.media.0.codec.long_name">H.264 / AVC / MPEG-4 AVC / MPEG-4 part 10</property>
  <property name="kdenlive:original.meta.media.0.codec.bit_rate">1323552</property>
  <property name="kdenlive:original.meta.attr.0.stream.handler_name.markup">VideoHandler</property>
  <property name="kdenlive:original.meta.attr.0.stream.vendor_id.markup">[0][0][0][0]</property>
  <property name="kdenlive:original.meta.attr.0.stream.encoder.markup">Lavc60.3.100 libx264</property>
  <property name="kdenlive:original.meta.attr.major_brand.markup">isom</property>
  <property name="kdenlive:original.meta.attr.minor_version.markup">512</property>
  <property name="kdenlive:original.meta.attr.compatible_brands.markup">isomiso2avc1mp41</property>
  <property name="kdenlive:original.meta.attr.encoder.markup">Lavf60.3.100</property>
  <property name="kdenlive:original.meta.attr.comment.markup">Rendered with Manim Community v0.17.2</property>
  <property name="kdenlive:original.seekable">1</property>
  <property name="kdenlive:original.width">3840</property>
  <property name="kdenlive:original.height">2160</property>
  <property name="kdenlive:original.meta.media.sample_aspect_num">1</property>
  <property name="kdenlive:original.meta.media.sample_aspect_den">1</property>
  <property name="kdenlive:original.aspect_ratio">1</property>
  <property name="kdenlive:original.format">3</property>
  <property name="kdenlive:original.audio_index">-1</property>
  <property name="kdenlive:original.video_index">0</property>
  <property name="kdenlive:original.mute_on_pause">0</property>
  <property name="kdenlive:original.mlt_service">avformat-novalidate</property>
  <property name="kdenlive:original.meta.media.frame_rate_num">60</property>
  <property name="kdenlive:original.meta.media.frame_rate_den">1</property>
  <property name="kdenlive:original.meta.media.colorspace">709</property>
  <property name="kdenlive:original.meta.media.color_trc">2</property>
  <property name="kdenlive:original.meta.media.has_b_frames">2</property>
  <property name="kdenlive:original.meta.media.width">3840</property>
  <property name="kdenlive:original.meta.media.height">2160</property>
  <property name="kdenlive:original.meta.media.color_range">mpeg</property>
  <property name="kdenlive:original.meta.media.top_field_first">0</property>
  <property name="kdenlive:original.meta.media.progressive">1</property>
  <property name="kdenlive:original.kdenlive:clip_type">2</property>
  <property name="kdenlive:original.kdenlive:folderid">631</property>
  <property name="kdenlive:original.kdenlive:id">643</property>
  <property name="kdenlive:original.kdenlive:file_size">56299</property>
  <property name="kdenlive:original.kdenlive:file_hash">94c11b2f81e7d0961af343179d54fc55</property>
  <property name="kdenlive:original.backup">1</property>
  <property name="meta.media.frame_rate_num">60</property>
  <property name="meta.media.frame_rate_den">1</property>
  <property name="meta.media.colorspace">601</property>
  <property name="meta.media.color_trc">2</property>
  <property name="meta.media.has_b_frames">0</property>
  <property name="meta.media.width">640</property>
  <property name="meta.media.height">360</property>
  <property name="meta.media.color_range">full</property>
  <property name="meta.media.top_field_first">0</property>
  <property name="meta.media.progressive">1</property>
 </producer>
 <producer id="producer506" in="00:00:00.000" out="00:00:04.983">
  <property name="length">00:00:05.000</property>
  <property name="eof">pause</property>
  <property name="resource">assets/bee-creation.svg</property>
  <property name="ttl">25</property>
  <property name="aspect_ratio">1</property>
  <property name="progressive">1</property>
  <property name="seekable">1</property>
  <property name="format">2</property>
  <property name="meta.media.width">744</property>
  <property name="meta.media.height">1052</property>
  <property name="mlt_service">qimage</property>
  <property name="kdenlive:clipname"/>
  <property name="kdenlive:duration">00:00:05.000</property>
  <property name="kdenlive:folderid">644</property>
  <property name="kdenlive:clip_type">2</property>
  <property name="kdenlive:id">531</property>
  <property name="kdenlive:file_size">720119</property>
  <property name="kdenlive:file_hash">702702494ecff3f9955df9815adde6cd</property>
 </producer>
 <producer id="producer499" in="00:00:00.000" out="00:00:04.983">
  <property name="length">00:00:05.000</property>
  <property name="eof">pause</property>
  <property name="resource">assets/bee.svg</property>
  <property name="ttl">25</property>
  <property name="aspect_ratio">1</property>
  <property name="progressive">1</property>
  <property name="seekable">1</property>
  <property name="format">2</property>
  <property name="meta.media.width">69</property>
  <property name="meta.media.height">56</property>
  <property name="mlt_service">qimage</property>
  <property name="kdenlive:clipname"/>
  <property name="kdenlive:duration">00:00:05.000</property>
  <property name="kdenlive:folderid">644</property>
  <property name="kdenlive:clip_type">2</property>
  <property name="kdenlive:id">532</property>
  <property name="kdenlive:file_size">27576</property>
  <property name="kdenlive:file_hash">cd25bc00d08f43ab0a4cb682bb17e37a</property>
 </producer>
 <producer id="producer501" in="00:00:00.000" out="00:00:04.983">
  <property name="length">00:00:05.000</property>
  <property name="eof">pause</property>
  <property name="resource">assets/cache_line.svg</property>
  <property name="ttl">25</property>
  <property name="aspect_ratio">1</property>
  <property name="progressive">1</property>
  <property name="seekable">1</property>
  <property name="format">2</property>
  <property name="meta.media.width">285</property>
  <property name="meta.media.height">388</property>
  <property name="mlt_service">qimage</property>
  <property name="kdenlive:clipname"/>
  <property name="kdenlive:duration">00:00:05.000</property>
  <property name="kdenlive:folderid">644</property>
  <property name="kdenlive:clip_type">2</property>
  <property name="kdenlive:id">533</property>
  <property name="kdenlive:file_size">8633</property>
  <property name="kdenlive:file_hash">dc7720715930699568e60d60e870fb42</property>
 </producer>
 <producer id="producer502" in="00:00:00.000" out="00:00:04.983">
  <property name="length">00:00:05.000</property>
  <property name="eof">pause</property>
  <property name="resource">assets/cpu.svg</property>
  <property name="ttl">25</property>
  <property name="aspect_ratio">1</property>
  <property name="progressive">1</property>
  <property name="seekable">1</property>
  <property name="format">2</property>
  <property name="meta.media.width">300</property>
  <property name="meta.media.height">299</property>
  <property name="mlt_service">qimage</property>
  <property name="kdenlive:clipname"/>
  <property name="kdenlive:duration">00:00:05.000</property>
  <property name="kdenlive:folderid">644</property>
  <property name="kdenlive:clip_type">2</property>
  <property name="kdenlive:id">534</property>
  <property name="kdenlive:file_size">7537</property>
  <property name="kdenlive:file_hash">7598fed1767226d49eb5a1087890e997</property>
 </producer>
 <producer id="producer503" in="00:00:00.000" out="00:00:04.983">
  <property name="length">00:00:05.000</property>
  <property name="eof">pause</property>
  <property name="resource">assets/fire.png</property>
  <property name="ttl">25</property>
  <property name="aspect_ratio">1</property>
  <property name="progressive">1</property>
  <property name="seekable">1</property>
  <property name="format">2</property>
  <property name="meta.media.width">240</property>
  <property name="meta.media.height">240</property>
  <property name="mlt_service">qimage</property>
  <property name="kdenlive:clipname"/>
  <property name="kdenlive:duration">00:00:05.000</property>
  <property name="kdenlive:folderid">644</property>
  <property name="kdenlive:clip_type">2</property>
  <property name="kdenlive:id">535</property>
  <property name="kdenlive:file_size">16573</property>
  <property name="kdenlive:file_hash">e712f19a93717cff59d4e4e5ab89a6a0</property>
 </producer>
 <producer id="producer272" in="00:00:00.000" out="00:00:10.150">
  <property name="length">610</property>
  <property name="eof">pause</property>
  <property name="resource">audio/fire.wav</property>
  <property name="meta.media.nb_streams">1</property>
  <property name="meta.media.0.stream.type">audio</property>
  <property name="meta.media.0.codec.sample_fmt">s16</property>
  <property name="meta.media.0.codec.sample_rate">44100</property>
  <property name="meta.media.0.codec.channels">2</property>
  <property name="meta.media.0.codec.name">pcm_s16le</property>
  <property name="meta.media.0.codec.long_name">PCM signed 16-bit little-endian</property>
  <property name="meta.media.0.codec.bit_rate">1411200</property>
  <property name="seekable">1</property>
  <property name="audio_index">0</property>
  <property name="video_index">-1</property>
  <property name="mute_on_pause">1</property>
  <property name="mlt_service">avformat</property>
  <property name="kdenlive:clipname"/>
  <property name="kdenlive:clip_type">1</property>
  <property name="kdenlive:folderid">2</property>
  <property name="kdenlive:id">536</property>
  <property name="kdenlive:file_size">1792044</property>
  <property name="kdenlive:file_hash">9a70f3b1b2da581e2f918efa03966e66</property>
  <property name="kdenlive:audio_max0">185</property>
 </producer>
 <producer id="producer504" in="00:00:00.000" out="00:12:32.850">
  <property name="length">00:12:32.867</property>
  <property name="eof">pause</property>
  <property name="resource">assets/green.png</property>
  <property name="ttl">25</property>
  <property name="aspect_ratio">1</property>
  <property name="progressive">1</property>
  <property name="seekable">1</property>
  <property name="format">2</property>
  <property name="meta.media.width">323</property>
  <property name="meta.media.height">323</property>
  <property name="mlt_service">qimage</property>
  <property name="kdenlive:clipname"/>
  <property name="kdenlive:duration">00:00:05.000</property>
  <property name="kdenlive:folderid">644</property>
  <property name="kdenlive:clip_type">2</property>
  <property name="kdenlive:id">537</property>
  <property name="kdenlive:file_size">1265</property>
  <property name="kdenlive:file_hash">2943e97da7fed77032f8cf7b387d37a6</property>
 </producer>
 <producer id="producer505" in="00:00:00.000" out="00:04:00.367">
  <property name="length">00:04:00.383</property>
  <property name="eof">pause</property>
  <property name="resource">assets/black.png</property>
  <property name="ttl">25</property>
  <property name="aspect_ratio">1</property>
  <property name="progressive">1</property>
  <property name="seekable">1</property>
  <property name="format">2</property>
  <property name="meta.media.width">260</property>
  <property name="meta.media.height">260</property>
  <property name="mlt_service">qimage</property>
  <property name="kdenlive:clipname"/>
  <property name="kdenlive:duration">00:00:05.000</property>
  <property name="kdenlive:folderid">644</property>
  <property name="kdenlive:clip_type">2</property>
  <property name="kdenlive:id">538</property>
  <property name="kdenlive:file_size">919</property>
  <property name="kdenlive:file_hash">4bdf04d5d7dbcdf4a43109e6dbfe78ec</property>
 </producer>
 <producer id="producer449" in="00:00:00.000" out="00:00:00.983">
  <property name="length">60</property>
  <property name="eof">pause</property>
  <property name="resource">/home/xiaoxiae/.cache/kdenlive/proxy/f7148f0d1a1edf7a6d5732d3102ca2e9.mkv</property>
  <property name="meta.media.nb_streams">1</property>
  <property name="meta.media.0.stream.type">video</property>
  <property name="meta.media.0.stream.frame_rate">60</property>
  <property name="meta.media.0.stream.sample_aspect_ratio">0</property>
  <property name="meta.media.0.codec.width">640</property>
  <property name="meta.media.0.codec.height">360</property>
  <property name="meta.media.0.codec.rotate">0</property>
  <property name="meta.media.0.codec.pix_fmt">yuvj420p</property>
  <property name="meta.media.0.codec.sample_aspect_ratio">0</property>
  <property name="meta.media.0.codec.colorspace">601</property>
  <property name="meta.media.0.codec.name">mjpeg</property>
  <property name="meta.media.0.codec.long_name">MJPEG (Motion JPEG)</property>
  <property name="meta.media.0.codec.bit_rate">0</property>
  <property name="meta.attr.0.stream.HANDLER_NAME.markup">VideoHandler</property>
  <property name="meta.attr.0.stream.VENDOR_ID.markup">[0][0][0][0]</property>
  <property name="meta.attr.0.stream.ENCODER.markup">Lavc60.3.100 mjpeg</property>
  <property name="meta.attr.0.stream.DURATION.markup">00:00:01.000000000</property>
  <property name="meta.attr.COMMENT.markup">Rendered with Manim Community v0.17.2</property>
  <property name="meta.attr.MAJOR_BRAND.markup">isom</property>
  <property name="meta.attr.MINOR_VERSION.markup">512</property>
  <property name="meta.attr.COMPATIBLE_BRANDS.markup">isomiso2avc1mp41</property>
  <property name="meta.attr.ENCODER.markup">Lavf60.3.100</property>
  <property name="seekable">1</property>
  <property name="meta.media.sample_aspect_num">1</property>
  <property name="meta.media.sample_aspect_den">1</property>
  <property name="aspect_ratio">1</property>
  <property name="format">3</property>
  <property name="audio_index">-1</property>
  <property name="video_index">0</property>
  <property name="mute_on_pause">0</property>
  <property name="mlt_service">avformat-novalidate</property>
  <property name="kdenlive:clipname">1.mp4</property>
  <property name="kdenlive:clip_type">2</property>
  <property name="kdenlive:folderid">653</property>
  <property name="kdenlive:id">539</property>
  <property name="kdenlive:file_size">164940</property>
  <property name="kdenlive:file_hash">f7148f0d1a1edf7a6d5732d3102ca2e9</property>
  <property name="kdenlive:proxy">/home/xiaoxiae/.cache/kdenlive/proxy/f7148f0d1a1edf7a6d5732d3102ca2e9.mkv</property>
  <property name="kdenlive:originalurl">video/Deletion/1.mp4</property>
  <property name="kdenlive:original.mlt_type">producer</property>
  <property name="kdenlive:original.in">0</property>
  <property name="kdenlive:original.out">59</property>
  <property name="kdenlive:original.length">60</property>
  <property name="kdenlive:original.eof">pause</property>
  <property name="kdenlive:original.resource">video/Deletion/1.mp4</property>
  <property name="kdenlive:original.meta.media.nb_streams">1</property>
  <property name="kdenlive:original.meta.media.0.stream.type">video</property>
  <property name="kdenlive:original.meta.media.0.stream.frame_rate">60</property>
  <property name="kdenlive:original.meta.media.0.stream.sample_aspect_ratio">0</property>
  <property name="kdenlive:original.meta.media.0.codec.width">3840</property>
  <property name="kdenlive:original.meta.media.0.codec.height">2160</property>
  <property name="kdenlive:original.meta.media.0.codec.rotate">0</property>
  <property name="kdenlive:original.meta.media.0.codec.pix_fmt">yuv420p</property>
  <property name="kdenlive:original.meta.media.0.codec.sample_aspect_ratio">0</property>
  <property name="kdenlive:original.meta.media.0.codec.colorspace">709</property>
  <property name="kdenlive:original.meta.media.0.codec.name">h264</property>
  <property name="kdenlive:original.meta.media.0.codec.long_name">H.264 / AVC / MPEG-4 AVC / MPEG-4 part 10</property>
  <property name="kdenlive:original.meta.media.0.codec.bit_rate">1308072</property>
  <property name="kdenlive:original.meta.attr.0.stream.handler_name.markup">VideoHandler</property>
  <property name="kdenlive:original.meta.attr.0.stream.vendor_id.markup">[0][0][0][0]</property>
  <property name="kdenlive:original.meta.attr.0.stream.encoder.markup">Lavc60.3.100 libx264</property>
  <property name="kdenlive:original.meta.attr.major_brand.markup">isom</property>
  <property name="kdenlive:original.meta.attr.minor_version.markup">512</property>
  <property name="kdenlive:original.meta.attr.compatible_brands.markup">isomiso2avc1mp41</property>
  <property name="kdenlive:original.meta.attr.encoder.markup">Lavf60.3.100</property>
  <property name="kdenlive:original.meta.attr.comment.markup">Rendered with Manim Community v0.17.2</property>
  <property name="kdenlive:original.seekable">1</property>
  <property name="kdenlive:original.width">3840</property>
  <property name="kdenlive:original.height">2160</property>
  <property name="kdenlive:original.meta.media.sample_aspect_num">1</property>
  <property name="kdenlive:original.meta.media.sample_aspect_den">1</property>
  <property name="kdenlive:original.aspect_ratio">1</property>
  <property name="kdenlive:original.format">3</property>
  <property name="kdenlive:original.audio_index">-1</property>
  <property name="kdenlive:original.video_index">0</property>
  <property name="kdenlive:original.mute_on_pause">0</property>
  <property name="kdenlive:original.mlt_service">avformat-novalidate</property>
  <property name="kdenlive:original.meta.media.frame_rate_num">60</property>
  <property name="kdenlive:original.meta.media.frame_rate_den">1</property>
  <property name="kdenlive:original.meta.media.colorspace">709</property>
  <property name="kdenlive:original.meta.media.color_trc">2</property>
  <property name="kdenlive:original.meta.media.has_b_frames">2</property>
  <property name="kdenlive:original.meta.media.width">3840</property>
  <property name="kdenlive:original.meta.media.height">2160</property>
  <property name="kdenlive:original.meta.media.color_range">mpeg</property>
  <property name="kdenlive:original.meta.media.top_field_first">0</property>
  <property name="kdenlive:original.meta.media.progressive">1</property>
  <property name="kdenlive:original.kdenlive:clip_type">2</property>
  <property name="kdenlive:original.kdenlive:folderid">653</property>
  <property name="kdenlive:original.kdenlive:id">654</property>
  <property name="kdenlive:original.kdenlive:file_size">164940</property>
  <property name="kdenlive:original.kdenlive:file_hash">f7148f0d1a1edf7a6d5732d3102ca2e9</property>
  <property name="kdenlive:original.backup">1</property>
  <property name="meta.media.frame_rate_num">60</property>
  <property name="meta.media.frame_rate_den">1</property>
  <property name="meta.media.colorspace">601</property>
  <property name="meta.media.color_trc">2</property>
  <property name="meta.media.has_b_frames">0</property>
  <property name="meta.media.width">640</property>
  <property name="meta.media.height">360</property>
  <property name="meta.media.color_range">full</property>
  <property name="meta.media.top_field_first">0</property>
  <property name="meta.media.progressive">1</property>
 </producer>
 <producer id="producer451" in="00:00:00.000" out="00:00:00.117">
  <property name="length">8</property>
  <property name="eof">pause</property>
  <property name="resource">/home/xiaoxiae/.cache/kdenlive/proxy/c21120f705835df976ed6aceab39ac24.mkv</property>
  <property name="meta.media.nb_streams">1</property>
  <property name="meta.media.0.stream.type">video</property>
  <property name="meta.media.0.stream.frame_rate">60</property>
  <property name="meta.media.0.stream.sample_aspect_ratio">0</property>
  <property name="meta.media.0.codec.width">640</property>
  <property name="meta.media.0.codec.height">360</property>
  <property name="meta.media.0.codec.rotate">0</property>
  <property name="meta.media.0.codec.pix_fmt">yuvj420p</property>
  <property name="meta.media.0.codec.sample_aspect_ratio">0</property>
  <property name="meta.media.0.codec.colorspace">601</property>
  <property name="meta.media.0.codec.name">mjpeg</property>
  <property name="meta.media.0.codec.long_name">MJPEG (Motion JPEG)</property>
  <property name="meta.media.0.codec.bit_rate">0</property>
  <property name="meta.attr.0.stream.HANDLER_NAME.markup">VideoHandler</property>
  <property name="meta.attr.0.stream.VENDOR_ID.markup">[0][0][0][0]</property>
  <property name="meta.attr.0.stream.ENCODER.markup">Lavc60.3.100 mjpeg</property>
  <property name="meta.attr.0.stream.DURATION.markup">00:00:00.134000000</property>
  <property name="meta.attr.COMMENT.markup">Rendered with Manim Community v0.17.2</property>
  <property name="meta.attr.MAJOR_BRAND.markup">isom</property>
  <property name="meta.attr.MINOR_VERSION.markup">512</property>
  <property name="meta.attr.COMPATIBLE_BRANDS.markup">isomiso2avc1mp41</property>
  <property name="meta.attr.ENCODER.markup">Lavf60.3.100</property>
  <property name="seekable">1</property>
  <property name="meta.media.sample_aspect_num">1</property>
  <property name="meta.media.sample_aspect_den">1</property>
  <property name="aspect_ratio">1</property>
  <property name="format">3</property>
  <property name="audio_index">-1</property>
  <property name="video_index">0</property>
  <property name="mute_on_pause">0</property>
  <property name="mlt_service">avformat-novalidate</property>
  <property name="kdenlive:clipname">10.mp4</property>
  <property name="kdenlive:clip_type">2</property>
  <property name="kdenlive:folderid">653</property>
  <property name="kdenlive:id">540</property>
  <property name="kdenlive:file_size">45829</property>
  <property name="kdenlive:file_hash">c21120f705835df976ed6aceab39ac24</property>
  <property name="kdenlive:proxy">/home/xiaoxiae/.cache/kdenlive/proxy/c21120f705835df976ed6aceab39ac24.mkv</property>
  <property name="kdenlive:originalurl">video/Deletion/10.mp4</property>
  <property name="kdenlive:original.mlt_type">producer</property>
  <property name="kdenlive:original.in">0</property>
  <property name="kdenlive:original.out">7</property>
  <property name="kdenlive:original.length">8</property>
  <property name="kdenlive:original.eof">pause</property>
  <property name="kdenlive:original.resource">video/Deletion/10.mp4</property>
  <property name="kdenlive:original.meta.media.nb_streams">1</property>
  <property name="kdenlive:original.meta.media.0.stream.type">video</property>
  <property name="kdenlive:original.meta.media.0.stream.frame_rate">60</property>
  <property name="kdenlive:original.meta.media.0.stream.sample_aspect_ratio">0</property>
  <property name="kdenlive:original.meta.media.0.codec.width">3840</property>
  <property name="kdenlive:original.meta.media.0.codec.height">2160</property>
  <property name="kdenlive:original.meta.media.0.codec.rotate">0</property>
  <property name="kdenlive:original.meta.media.0.codec.pix_fmt">yuv420p</property>
  <property name="kdenlive:original.meta.media.0.codec.sample_aspect_ratio">0</property>
  <property name="kdenlive:original.meta.media.0.codec.colorspace">709</property>
  <property name="kdenlive:original.meta.media.0.codec.name">h264</property>
  <property name="kdenlive:original.meta.media.0.codec.long_name">H.264 / AVC / MPEG-4 AVC / MPEG-4 part 10</property>
  <property name="kdenlive:original.meta.media.0.codec.bit_rate">2689800</property>
  <property name="kdenlive:original.meta.attr.0.stream.handler_name.markup">VideoHandler</property>
  <property name="kdenlive:original.meta.attr.0.stream.vendor_id.markup">[0][0][0][0]</property>
  <property name="kdenlive:original.meta.attr.0.stream.encoder.markup">Lavc60.3.100 libx264</property>
  <property name="kdenlive:original.meta.attr.major_brand.markup">isom</property>
  <property name="kdenlive:original.meta.attr.minor_version.markup">512</property>
  <property name="kdenlive:original.meta.attr.compatible_brands.markup">isomiso2avc1mp41</property>
  <property name="kdenlive:original.meta.attr.encoder.markup">Lavf60.3.100</property>
  <property name="kdenlive:original.meta.attr.comment.markup">Rendered with Manim Community v0.17.2</property>
  <property name="kdenlive:original.seekable">1</property>
  <property name="kdenlive:original.width">3840</property>
  <property name="kdenlive:original.height">2160</property>
  <property name="kdenlive:original.meta.media.sample_aspect_num">1</property>
  <property name="kdenlive:original.meta.media.sample_aspect_den">1</property>
  <property name="kdenlive:original.aspect_ratio">1</property>
  <property name="kdenlive:original.format">3</property>
  <property name="kdenlive:original.audio_index">-1</property>
  <property name="kdenlive:original.video_index">0</property>
  <property name="kdenlive:original.mute_on_pause">0</property>
  <property name="kdenlive:original.mlt_service">avformat-novalidate</property>
  <property name="kdenlive:original.meta.media.frame_rate_num">60</property>
  <property name="kdenlive:original.meta.media.frame_rate_den">1</property>
  <property name="kdenlive:original.meta.media.colorspace">709</property>
  <property name="kdenlive:original.meta.media.color_trc">2</property>
  <property name="kdenlive:original.meta.media.has_b_frames">2</property>
  <property name="kdenlive:original.meta.media.width">3840</property>
  <property name="kdenlive:original.meta.media.height">2160</property>
  <property name="kdenlive:original.meta.media.color_range">mpeg</property>
  <property name="kdenlive:original.meta.media.top_field_first">0</property>
  <property name="kdenlive:original.meta.media.progressive">1</property>
  <property name="kdenlive:original.kdenlive:clip_type">2</property>
  <property name="kdenlive:original.kdenlive:folderid">653</property>
  <property name="kdenlive:original.kdenlive:id">655</property>
  <property name="kdenlive:original.kdenlive:file_size">45829</property>
  <property name="kdenlive:original.kdenlive:file_hash">c21120f705835df976ed6aceab39ac24</property>
  <property name="kdenlive:original.backup">1</property>
  <property name="meta.media.frame_rate_num">60</property>
  <property name="meta.media.frame_rate_den">1</property>
  <property name="meta.media.colorspace">601</property>
  <property name="meta.media.color_trc">2</property>
  <property name="meta.media.has_b_frames">0</property>
  <property name="meta.media.width">640</property>
  <property name="meta.media.height">360</property>
  <property name="meta.media.color_range">full</property>
  <property name="meta.media.top_field_first">0</property>
  <property name="meta.media.progressive">1</property>
 </producer>
 <producer id="producer452" in="00:00:00.000" out="00:00:00.117">
  <property name="length">8</property>
  <property name="eof">pause</property>
  <property name="resource">/home/xiaoxiae/.cache/kdenlive/proxy/1dc3a170c7054c42fc5c28093cd24ac6.mkv</property>
  <property name="meta.media.nb_streams">1</property>
  <property name="meta.media.0.stream.type">video</property>
  <property name="meta.media.0.stream.frame_rate">60</property>
  <property name="meta.media.0.stream.sample_aspect_ratio">0</property>
  <property name="meta.media.0.codec.width">640</property>
  <property name="meta.media.0.codec.height">360</property>
  <property name="meta.media.0.codec.rotate">0</property>
  <property name="meta.media.0.codec.pix_fmt">yuvj420p</property>
  <property name="meta.media.0.codec.sample_aspect_ratio">0</property>
  <property name="meta.media.0.codec.colorspace">601</property>
  <property name="meta.media.0.codec.name">mjpeg</property>
  <property name="meta.media.0.codec.long_name">MJPEG (Motion JPEG)</property>
  <property name="meta.media.0.codec.bit_rate">0</property>
  <property name="meta.attr.0.stream.HANDLER_NAME.markup">VideoHandler</property>
  <property name="meta.attr.0.stream.VENDOR_ID.markup">[0][0][0][0]</property>
  <property name="meta.attr.0.stream.ENCODER.markup">Lavc60.3.100 mjpeg</property>
  <property name="meta.attr.0.stream.DURATION.markup">00:00:00.134000000</property>
  <property name="meta.attr.COMMENT.markup">Rendered with Manim Community v0.17.2</property>
  <property name="meta.attr.MAJOR_BRAND.markup">isom</property>
  <property name="meta.attr.MINOR_VERSION.markup">512</property>
  <property name="meta.attr.COMPATIBLE_BRANDS.markup">isomiso2avc1mp41</property>
  <property name="meta.attr.ENCODER.markup">Lavf60.3.100</property>
  <property name="seekable">1</property>
  <property name="meta.media.sample_aspect_num">1</property>
  <property name="meta.media.sample_aspect_den">1</property>
  <property name="aspect_ratio">1</property>
  <property name="format">3</property>
  <property name="audio_index">-1</property>
  <property name="video_index">0</property>
  <property name="mute_on_pause">0</property>
  <property name="mlt_service">avformat-novalidate</property>
  <property name="kdenlive:clipname">11.mp4</property>
  <property name="kdenlive:clip_type">2</property>
  <property name="kdenlive:folderid">653</property>
  <property name="kdenlive:id">541</property>
  <property name="kdenlive:file_size">42880</property>
  <property name="kdenlive:file_hash">1dc3a170c7054c42fc5c28093cd24ac6</property>
  <property name="kdenlive:proxy">/home/xiaoxiae/.cache/kdenlive/proxy/1dc3a170c7054c42fc5c28093cd24ac6.mkv</property>
  <property name="kdenlive:originalurl">video/Deletion/11.mp4</property>
  <property name="kdenlive:original.mlt_type">producer</property>
  <property name="kdenlive:original.in">0</property>
  <property name="kdenlive:original.out">7</property>
  <property name="kdenlive:original.length">8</property>
  <property name="kdenlive:original.eof">pause</property>
  <property name="kdenlive:original.resource">video/Deletion/11.mp4</property>
  <property name="kdenlive:original.meta.media.nb_streams">1</property>
  <property name="kdenlive:original.meta.media.0.stream.type">video</property>
  <property name="kdenlive:original.meta.media.0.stream.frame_rate">60</property>
  <property name="kdenlive:original.meta.media.0.stream.sample_aspect_ratio">0</property>
  <property name="kdenlive:original.meta.media.0.codec.width">3840</property>
  <property name="kdenlive:original.meta.media.0.codec.height">2160</property>
  <property name="kdenlive:original.meta.media.0.codec.rotate">0</property>
  <property name="kdenlive:original.meta.media.0.codec.pix_fmt">yuv420p</property>
  <property name="kdenlive:original.meta.media.0.codec.sample_aspect_ratio">0</property>
  <property name="kdenlive:original.meta.media.0.codec.colorspace">709</property>
  <property name="kdenlive:original.meta.media.0.codec.name">h264</property>
  <property name="kdenlive:original.meta.media.0.codec.long_name">H.264 / AVC / MPEG-4 AVC / MPEG-4 part 10</property>
  <property name="kdenlive:original.meta.media.0.codec.bit_rate">2511900</property>
  <property name="kdenlive:original.meta.attr.0.stream.handler_name.markup">VideoHandler</property>
  <property name="kdenlive:original.meta.attr.0.stream.vendor_id.markup">[0][0][0][0]</property>
  <property name="kdenlive:original.meta.attr.0.stream.encoder.markup">Lavc60.3.100 libx264</property>
  <property name="kdenlive:original.meta.attr.major_brand.markup">isom</property>
  <property name="kdenlive:original.meta.attr.minor_version.markup">512</property>
  <property name="kdenlive:original.meta.attr.compatible_brands.markup">isomiso2avc1mp41</property>
  <property name="kdenlive:original.meta.attr.encoder.markup">Lavf60.3.100</property>
  <property name="kdenlive:original.meta.attr.comment.markup">Rendered with Manim Community v0.17.2</property>
  <property name="kdenlive:original.seekable">1</property>
  <property name="kdenlive:original.width">3840</property>
  <property name="kdenlive:original.height">2160</property>
  <property name="kdenlive:original.meta.media.sample_aspect_num">1</property>
  <property name="kdenlive:original.meta.media.sample_aspect_den">1</property>
  <property name="kdenlive:original.aspect_ratio">1</property>
  <property name="kdenlive:original.format">3</property>
  <property name="kdenlive:original.audio_index">-1</property>
  <property name="kdenlive:original.video_index">0</property>
  <property name="kdenlive:original.mute_on_pause">0</property>
  <property name="kdenlive:original.mlt_service">avformat-novalidate</property>
  <property name="kdenlive:original.meta.media.frame_rate_num">60</property>
  <property name="kdenlive:original.meta.media.frame_rate_den">1</property>
  <property name="kdenlive:original.meta.media.colorspace">709</property>
  <property name="kdenlive:original.meta.media.color_trc">2</property>
  <property name="kdenlive:original.meta.media.has_b_frames">2</property>
  <property name="kdenlive:original.meta.media.width">3840</property>
  <property name="kdenlive:original.meta.media.height">2160</property>
  <property name="kdenlive:original.meta.media.color_range">mpeg</property>
  <property name="kdenlive:original.meta.media.top_field_first">0</property>
  <property name="kdenlive:original.meta.media.progressive">1</property>
  <property name="kdenlive:original.kdenlive:clip_type">2</property>
  <property name="kdenlive:original.kdenlive:folderid">653</property>
  <property name="kdenlive:original.kdenlive:id">656</property>
  <property name="kdenlive:original.kdenlive:file_size">42880</property>
  <property name="kdenlive:original.kdenlive:file_hash">1dc3a170c7054c42fc5c28093cd24ac6</property>
  <property name="kdenlive:original.backup">1</property>
  <property name="meta.media.frame_rate_num">60</property>
  <property name="meta.media.frame_rate_den">1</property>
  <property name="meta.media.colorspace">601</property>
  <property name="meta.media.color_trc">2</property>
  <property name="meta.media.has_b_frames">0</property>
  <property name="meta.media.width">640</property>
  <property name="meta.media.height">360</property>
  <property name="meta.media.color_range">full</property>
  <property name="meta.media.top_field_first">0</property>
  <property name="meta.media.progressive">1</property>
 </producer>
 <producer id="producer453" in="00:00:00.000" out="00:00:00.117">
  <property name="length">8</property>
  <property name="eof">pause</property>
  <property name="resource">/home/xiaoxiae/.cache/kdenlive/proxy/c07c3f6429b711010a131c1ff5ecf421.mkv</property>
  <property name="meta.media.nb_streams">1</property>
  <property name="meta.media.0.stream.type">video</property>
  <property name="meta.media.0.stream.frame_rate">60</property>
  <property name="meta.media.0.stream.sample_aspect_ratio">0</property>
  <property name="meta.media.0.codec.width">640</property>
  <property name="meta.media.0.codec.height">360</property>
  <property name="meta.media.0.codec.rotate">0</property>
  <property name="meta.media.0.codec.pix_fmt">yuvj420p</property>
  <property name="meta.media.0.codec.sample_aspect_ratio">0</property>
  <property name="meta.media.0.codec.colorspace">601</property>
  <property name="meta.media.0.codec.name">mjpeg</property>
  <property name="meta.media.0.codec.long_name">MJPEG (Motion JPEG)</property>
  <property name="meta.media.0.codec.bit_rate">0</property>
  <property name="meta.attr.0.stream.HANDLER_NAME.markup">VideoHandler</property>
  <property name="meta.attr.0.stream.VENDOR_ID.markup">[0][0][0][0]</property>
  <property name="meta.attr.0.stream.ENCODER.markup">Lavc60.3.100 mjpeg</property>
  <property name="meta.attr.0.stream.DURATION.markup">00:00:00.134000000</property>
  <property name="meta.attr.COMMENT.markup">Rendered with Manim Community v0.17.2</property>
  <property name="meta.attr.MAJOR_BRAND.markup">isom</property>
  <property name="meta.attr.MINOR_VERSION.markup">512</property>
  <property name="meta.attr.COMPATIBLE_BRANDS.markup">isomiso2avc1mp41</property>
  <property name="meta.attr.ENCODER.markup">Lavf60.3.100</property>
  <property name="seekable">1</property>
  <property name="meta.media.sample_aspect_num">1</property>
  <property name="meta.media.sample_aspect_den">1</property>
  <property name="aspect_ratio">1</property>
  <property name="format">3</property>
  <property name="audio_index">-1</property>
  <property name="video_index">0</property>
  <property name="mute_on_pause">0</property>
  <property name="mlt_service">avformat-novalidate</property>
  <property name="kdenlive:clipname">12.mp4</property>
  <property name="kdenlive:clip_type">2</property>
  <property name="kdenlive:folderid">653</property>
  <property name="kdenlive:id">542</property>
  <property name="kdenlive:file_size">44160</property>
  <property name="kdenlive:file_hash">c07c3f6429b711010a131c1ff5ecf421</property>
  <property name="kdenlive:proxy">/home/xiaoxiae/.cache/kdenlive/proxy/c07c3f6429b711010a131c1ff5ecf421.mkv</property>
  <property name="kdenlive:originalurl">video/Deletion/12.mp4</property>
  <property name="kdenlive:original.mlt_type">producer</property>
  <property name="kdenlive:original.in">0</property>
  <property name="kdenlive:original.out">7</property>
  <property name="kdenlive:original.length">8</property>
  <property name="kdenlive:original.eof">pause</property>
  <property name="kdenlive:original.resource">video/Deletion/12.mp4</property>
  <property name="kdenlive:original.meta.media.nb_streams">1</property>
  <property name="kdenlive:original.meta.media.0.stream.type">video</property>
  <property name="kdenlive:original.meta.media.0.stream.frame_rate">60</property>
  <property name="kdenlive:original.meta.media.0.stream.sample_aspect_ratio">0</property>
  <property name="kdenlive:original.meta.media.0.codec.width">3840</property>
  <property name="kdenlive:original.meta.media.0.codec.height">2160</property>
  <property name="kdenlive:original.meta.media.0.codec.rotate">0</property>
  <property name="kdenlive:original.meta.media.0.codec.pix_fmt">yuv420p</property>
  <property name="kdenlive:original.meta.media.0.codec.sample_aspect_ratio">0</property>
  <property name="kdenlive:original.meta.media.0.codec.colorspace">709</property>
  <property name="kdenlive:original.meta.media.0.codec.name">h264</property>
  <property name="kdenlive:original.meta.media.0.codec.long_name">H.264 / AVC / MPEG-4 AVC / MPEG-4 part 10</property>
  <property name="kdenlive:original.meta.media.0.codec.bit_rate">2589180</property>
  <property name="kdenlive:original.meta.attr.0.stream.handler_name.markup">VideoHandler</property>
  <property name="kdenlive:original.meta.attr.0.stream.vendor_id.markup">[0][0][0][0]</property>
  <property name="kdenlive:original.meta.attr.0.stream.encoder.markup">Lavc60.3.100 libx264</property>
  <property name="kdenlive:original.meta.attr.major_brand.markup">isom</property>
  <property name="kdenlive:original.meta.attr.minor_version.markup">512</property>
  <property name="kdenlive:original.meta.attr.compatible_brands.markup">isomiso2avc1mp41</property>
  <property name="kdenlive:original.meta.attr.encoder.markup">Lavf60.3.100</property>
  <property name="kdenlive:original.meta.attr.comment.markup">Rendered with Manim Community v0.17.2</property>
  <property name="kdenlive:original.seekable">1</property>
  <property name="kdenlive:original.width">3840</property>
  <property name="kdenlive:original.height">2160</property>
  <property name="kdenlive:original.meta.media.sample_aspect_num">1</property>
  <property name="kdenlive:original.meta.media.sample_aspect_den">1</property>
  <property name="kdenlive:original.aspect_ratio">1</property>
  <property name="kdenlive:original.format">3</property>
  <property name="kdenlive:original.audio_index">-1</property>
  <property name="kdenlive:original.video_index">0</property>
  <property name="kdenlive:original.mute_on_pause">0</property>
  <property name="kdenlive:original.mlt_service">avformat-novalidate</property>
  <property name="kdenlive:original.meta.media.frame_rate_num">60</property>
  <property name="kdenlive:original.meta.media.frame_rate_den">1</property>
  <property name="kdenlive:original.meta.media.colorspace">709</property>
  <property name="kdenlive:original.meta.media.color_trc">2</property>
  <property name="kdenlive:original.meta.media.has_b_frames">2</property>
  <property name="kdenlive:original.meta.media.width">3840</property>
  <property name="kdenlive:original.meta.media.height">2160</property>
  <property name="kdenlive:original.meta.media.color_range">mpeg</property>
  <property name="kdenlive:original.meta.media.top_field_first">0</property>
  <property name="kdenlive:original.meta.media.progressive">1</property>
  <property name="kdenlive:original.kdenlive:clip_type">2</property>
  <property name="kdenlive:original.kdenlive:folderid">653</property>
  <property name="kdenlive:original.kdenlive:id">657</property>
  <property name="kdenlive:original.kdenlive:file_size">44160</property>
  <property name="kdenlive:original.kdenlive:file_hash">c07c3f6429b711010a131c1ff5ecf421</property>
  <property name="kdenlive:original.backup">1</property>
  <property name="meta.media.frame_rate_num">60</property>
  <property name="meta.media.frame_rate_den">1</property>
  <property name="meta.media.colorspace">601</property>
  <property name="meta.media.color_trc">2</property>
  <property name="meta.media.has_b_frames">0</property>
  <property name="meta.media.width">640</property>
  <property name="meta.media.height">360</property>
  <property name="meta.media.color_range">full</property>
  <property name="meta.media.top_field_first">0</property>
  <property name="meta.media.progressive">1</property>
 </producer>
 <producer id="producer454" in="00:00:00.000" out="00:00:00.117">
  <property name="length">8</property>
  <property name="eof">pause</property>
  <property name="resource">/home/xiaoxiae/.cache/kdenlive/proxy/d1d58486adaa43d89d22b49b52ac95b4.mkv</property>
  <property name="meta.media.nb_streams">1</property>
  <property name="meta.media.0.stream.type">video</property>
  <property name="meta.media.0.stream.frame_rate">60</property>
  <property name="meta.media.0.stream.sample_aspect_ratio">0</property>
  <property name="meta.media.0.codec.width">640</property>
  <property name="meta.media.0.codec.height">360</property>
  <property name="meta.media.0.codec.rotate">0</property>
  <property name="meta.media.0.codec.pix_fmt">yuvj420p</property>
  <property name="meta.media.0.codec.sample_aspect_ratio">0</property>
  <property name="meta.media.0.codec.colorspace">601</property>
  <property name="meta.media.0.codec.name">mjpeg</property>
  <property name="meta.media.0.codec.long_name">MJPEG (Motion JPEG)</property>
  <property name="meta.media.0.codec.bit_rate">0</property>
  <property name="meta.attr.0.stream.HANDLER_NAME.markup">VideoHandler</property>
  <property name="meta.attr.0.stream.VENDOR_ID.markup">[0][0][0][0]</property>
  <property name="meta.attr.0.stream.ENCODER.markup">Lavc60.3.100 mjpeg</property>
  <property name="meta.attr.0.stream.DURATION.markup">00:00:00.134000000</property>
  <property name="meta.attr.COMMENT.markup">Rendered with Manim Community v0.17.2</property>
  <property name="meta.attr.MAJOR_BRAND.markup">isom</property>
  <property name="meta.attr.MINOR_VERSION.markup">512</property>
  <property name="meta.attr.COMPATIBLE_BRANDS.markup">isomiso2avc1mp41</property>
  <property name="meta.attr.ENCODER.markup">Lavf60.3.100</property>
  <property name="seekable">1</property>
  <property name="meta.media.sample_aspect_num">1</property>
  <property name="meta.media.sample_aspect_den">1</property>
  <property name="aspect_ratio">1</property>
  <property name="format">3</property>
  <property name="audio_index">-1</property>
  <property name="video_index">0</property>
  <property name="mute_on_pause">0</property>
  <property name="mlt_service">avformat-novalidate</property>
  <property name="kdenlive:clipname">13.mp4</property>
  <property name="kdenlive:clip_type">2</property>
  <property name="kdenlive:folderid">653</property>
  <property name="kdenlive:id">543</property>
  <property name="kdenlive:file_size">45440</property>
  <property name="kdenlive:file_hash">d1d58486adaa43d89d22b49b52ac95b4</property>
  <property name="kdenlive:proxy">/home/xiaoxiae/.cache/kdenlive/proxy/d1d58486adaa43d89d22b49b52ac95b4.mkv</property>
  <property name="kdenlive:originalurl">video/Deletion/13.mp4</property>
  <property name="kdenlive:original.mlt_type">producer</property>
  <property name="kdenlive:original.in">0</property>
  <property name="kdenlive:original.out">7</property>
  <property name="kdenlive:original.length">8</property>
  <property name="kdenlive:original.eof">pause</property>
  <property name="kdenlive:original.resource">video/Deletion/13.mp4</property>
  <property name="kdenlive:original.meta.media.nb_streams">1</property>
  <property name="kdenlive:original.meta.media.0.stream.type">video</property>
  <property name="kdenlive:original.meta.media.0.stream.frame_rate">60</property>
  <property name="kdenlive:original.meta.media.0.stream.sample_aspect_ratio">0</property>
  <property name="kdenlive:original.meta.media.0.codec.width">3840</property>
  <property name="kdenlive:original.meta.media.0.codec.height">2160</property>
  <property name="kdenlive:original.meta.media.0.codec.rotate">0</property>
  <property name="kdenlive:original.meta.media.0.codec.pix_fmt">yuv420p</property>
  <property name="kdenlive:original.meta.media.0.codec.sample_aspect_ratio">0</property>
  <property name="kdenlive:original.meta.media.0.codec.colorspace">709</property>
  <property name="kdenlive:original.meta.media.0.codec.name">h264</property>
  <property name="kdenlive:original.meta.media.0.codec.long_name">H.264 / AVC / MPEG-4 AVC / MPEG-4 part 10</property>
  <property name="kdenlive:original.meta.media.0.codec.bit_rate">2665500</property>
  <property name="kdenlive:original.meta.attr.0.stream.handler_name.markup">VideoHandler</property>
  <property name="kdenlive:original.meta.attr.0.stream.vendor_id.markup">[0][0][0][0]</property>
  <property name="kdenlive:original.meta.attr.0.stream.encoder.markup">Lavc60.3.100 libx264</property>
  <property name="kdenlive:original.meta.attr.major_brand.markup">isom</property>
  <property name="kdenlive:original.meta.attr.minor_version.markup">512</property>
  <property name="kdenlive:original.meta.attr.compatible_brands.markup">isomiso2avc1mp41</property>
  <property name="kdenlive:original.meta.attr.encoder.markup">Lavf60.3.100</property>
  <property name="kdenlive:original.meta.attr.comment.markup">Rendered with Manim Community v0.17.2</property>
  <property name="kdenlive:original.seekable">1</property>
  <property name="kdenlive:original.width">3840</property>
  <property name="kdenlive:original.height">2160</property>
  <property name="kdenlive:original.meta.media.sample_aspect_num">1</property>
  <property name="kdenlive:original.meta.media.sample_aspect_den">1</property>
  <property name="kdenlive:original.aspect_ratio">1</property>
  <property name="kdenlive:original.format">3</property>
  <property name="kdenlive:original.audio_index">-1</property>
  <property name="kdenlive:original.video_index">0</property>
  <property name="kdenlive:original.mute_on_pause">0</property>
  <property name="kdenlive:original.mlt_service">avformat-novalidate</property>
  <property name="kdenlive:original.meta.media.frame_rate_num">60</property>
  <property name="kdenlive:original.meta.media.frame_rate_den">1</property>
  <property name="kdenlive:original.meta.media.colorspace">709</property>
  <property name="kdenlive:original.meta.media.color_trc">2</property>
  <property name="kdenlive:original.meta.media.has_b_frames">2</property>
  <property name="kdenlive:original.meta.media.width">3840</property>
  <property name="kdenlive:original.meta.media.height">2160</property>
  <property name="kdenlive:original.meta.media.color_range">mpeg</property>
  <property name="kdenlive:original.meta.media.top_field_first">0</property>
  <property name="kdenlive:original.meta.media.progressive">1</property>
  <property name="kdenlive:original.kdenlive:clip_type">2</property>
  <property name="kdenlive:original.kdenlive:folderid">653</property>
  <property name="kdenlive:original.kdenlive:id">658</property>
  <property name="kdenlive:original.kdenlive:file_size">45440</property>
  <property name="kdenlive:original.kdenlive:file_hash">d1d58486adaa43d89d22b49b52ac95b4</property>
  <property name="kdenlive:original.backup">1</property>
  <property name="meta.media.frame_rate_num">60</property>
  <property name="meta.media.frame_rate_den">1</property>
  <property name="meta.media.colorspace">601</property>
  <property name="meta.media.color_trc">2</property>
  <property name="meta.media.has_b_frames">0</property>
  <property name="meta.media.width">640</property>
  <property name="meta.media.height">360</property>
  <property name="meta.media.color_range">full</property>
  <property name="meta.media.top_field_first">0</property>
  <property name="meta.media.progressive">1</property>
 </producer>
 <producer id="producer455" in="00:00:00.000" out="00:00:00.183">
  <property name="length">12</property>
  <property name="eof">pause</property>
  <property name="resource">/home/xiaoxiae/.cache/kdenlive/proxy/1f3d05659e9085640ab2f887f2701d3a.mkv</property>
  <property name="meta.media.nb_streams">1</property>
  <property name="meta.media.0.stream.type">video</property>
  <property name="meta.media.0.stream.frame_rate">60</property>
  <property name="meta.media.0.stream.sample_aspect_ratio">0</property>
  <property name="meta.media.0.codec.width">640</property>
  <property name="meta.media.0.codec.height">360</property>
  <property name="meta.media.0.codec.rotate">0</property>
  <property name="meta.media.0.codec.pix_fmt">yuvj420p</property>
  <property name="meta.media.0.codec.sample_aspect_ratio">0</property>
  <property name="meta.media.0.codec.colorspace">601</property>
  <property name="meta.media.0.codec.name">mjpeg</property>
  <property name="meta.media.0.codec.long_name">MJPEG (Motion JPEG)</property>
  <property name="meta.media.0.codec.bit_rate">0</property>
  <property name="meta.attr.0.stream.HANDLER_NAME.markup">VideoHandler</property>
  <property name="meta.attr.0.stream.VENDOR_ID.markup">[0][0][0][0]</property>
  <property name="meta.attr.0.stream.ENCODER.markup">Lavc60.3.100 mjpeg</property>
  <property name="meta.attr.0.stream.DURATION.markup">00:00:00.200000000</property>
  <property name="meta.attr.COMMENT.markup">Rendered with Manim Community v0.17.2</property>
  <property name="meta.attr.MAJOR_BRAND.markup">isom</property>
  <property name="meta.attr.MINOR_VERSION.markup">512</property>
  <property name="meta.attr.COMPATIBLE_BRANDS.markup">isomiso2avc1mp41</property>
  <property name="meta.attr.ENCODER.markup">Lavf60.3.100</property>
  <property name="seekable">1</property>
  <property name="meta.media.sample_aspect_num">1</property>
  <property name="meta.media.sample_aspect_den">1</property>
  <property name="aspect_ratio">1</property>
  <property name="format">3</property>
  <property name="audio_index">-1</property>
  <property name="video_index">0</property>
  <property name="mute_on_pause">0</property>
  <property name="mlt_service">avformat-novalidate</property>
  <property name="kdenlive:clipname">14.mp4</property>
  <property name="kdenlive:clip_type">2</property>
  <property name="kdenlive:folderid">653</property>
  <property name="kdenlive:id">544</property>
  <property name="kdenlive:file_size">66408</property>
  <property name="kdenlive:file_hash">1f3d05659e9085640ab2f887f2701d3a</property>
  <property name="kdenlive:proxy">/home/xiaoxiae/.cache/kdenlive/proxy/1f3d05659e9085640ab2f887f2701d3a.mkv</property>
  <property name="kdenlive:originalurl">video/Deletion/14.mp4</property>
  <property name="kdenlive:original.mlt_type">producer</property>
  <property name="kdenlive:original.in">0</property>
  <property name="kdenlive:original.out">11</property>
  <property name="kdenlive:original.length">12</property>
  <property name="kdenlive:original.eof">pause</property>
  <property name="kdenlive:original.resource">video/Deletion/14.mp4</property>
  <property name="kdenlive:original.meta.media.nb_streams">1</property>
  <property name="kdenlive:original.meta.media.0.stream.type">video</property>
  <property name="kdenlive:original.meta.media.0.stream.frame_rate">60</property>
  <property name="kdenlive:original.meta.media.0.stream.sample_aspect_ratio">0</property>
  <property name="kdenlive:original.meta.media.0.codec.width">3840</property>
  <property name="kdenlive:original.meta.media.0.codec.height">2160</property>
  <property name="kdenlive:original.meta.media.0.codec.rotate">0</property>
  <property name="kdenlive:original.meta.media.0.codec.pix_fmt">yuv420p</property>
  <property name="kdenlive:original.meta.media.0.codec.sample_aspect_ratio">0</property>
  <property name="kdenlive:original.meta.media.0.codec.colorspace">709</property>
  <property name="kdenlive:original.meta.media.0.codec.name">h264</property>
  <property name="kdenlive:original.meta.media.0.codec.long_name">H.264 / AVC / MPEG-4 AVC / MPEG-4 part 10</property>
  <property name="kdenlive:original.meta.media.0.codec.bit_rate">2615400</property>
  <property name="kdenlive:original.meta.attr.0.stream.handler_name.markup">VideoHandler</property>
  <property name="kdenlive:original.meta.attr.0.stream.vendor_id.markup">[0][0][0][0]</property>
  <property name="kdenlive:original.meta.attr.0.stream.encoder.markup">Lavc60.3.100 libx264</property>
  <property name="kdenlive:original.meta.attr.major_brand.markup">isom</property>
  <property name="kdenlive:original.meta.attr.minor_version.markup">512</property>
  <property name="kdenlive:original.meta.attr.compatible_brands.markup">isomiso2avc1mp41</property>
  <property name="kdenlive:original.meta.attr.encoder.markup">Lavf60.3.100</property>
  <property name="kdenlive:original.meta.attr.comment.markup">Rendered with Manim Community v0.17.2</property>
  <property name="kdenlive:original.seekable">1</property>
  <property name="kdenlive:original.width">3840</property>
  <property name="kdenlive:original.height">2160</property>
  <property name="kdenlive:original.meta.media.sample_aspect_num">1</property>
  <property name="kdenlive:original.meta.media.sample_aspect_den">1</property>
  <property name="kdenlive:original.aspect_ratio">1</property>
  <property name="kdenlive:original.format">3</property>
  <property name="kdenlive:original.audio_index">-1</property>
  <property name="kdenlive:original.video_index">0</property>
  <property name="kdenlive:original.mute_on_pause">0</property>
  <property name="kdenlive:original.mlt_service">avformat-novalidate</property>
  <property name="kdenlive:original.meta.media.frame_rate_num">60</property>
  <property name="kdenlive:original.meta.media.frame_rate_den">1</property>
  <property name="kdenlive:original.meta.media.colorspace">709</property>
  <property name="kdenlive:original.meta.media.color_trc">2</property>
  <property name="kdenlive:original.meta.media.has_b_frames">2</property>
  <property name="kdenlive:original.meta.media.width">3840</property>
  <property name="kdenlive:original.meta.media.height">2160</property>
  <property name="kdenlive:original.meta.media.color_range">mpeg</property>
  <property name="kdenlive:original.meta.media.top_field_first">0</property>
  <property name="kdenlive:original.meta.media.progressive">1</property>
  <property name="kdenlive:original.kdenlive:clip_type">2</property>
  <property name="kdenlive:original.kdenlive:folderid">653</property>
  <property name="kdenlive:original.kdenlive:id">659</property>
  <property name="kdenlive:original.kdenlive:file_size">66408</property>
  <property name="kdenlive:original.kdenlive:file_hash">1f3d05659e9085640ab2f887f2701d3a</property>
  <property name="kdenlive:original.backup">1</property>
  <property name="meta.media.frame_rate_num">60</property>
  <property name="meta.media.frame_rate_den">1</property>
  <property name="meta.media.colorspace">601</property>
  <property name="meta.media.color_trc">2</property>
  <property name="meta.media.has_b_frames">0</property>
  <property name="meta.media.width">640</property>
  <property name="meta.media.height">360</property>
  <property name="meta.media.color_range">full</property>
  <property name="meta.media.top_field_first">0</property>
  <property name="meta.media.progressive">1</property>
 </producer>
 <producer id="producer456" in="00:00:00.000" out="00:00:00.183">
  <property name="length">12</property>
  <property name="eof">pause</property>
  <property name="resource">/home/xiaoxiae/.cache/kdenlive/proxy/672e4ba9bbc7b6860b54084abd43d943.mkv</property>
  <property name="meta.media.nb_streams">1</property>
  <property name="meta.media.0.stream.type">video</property>
  <property name="meta.media.0.stream.frame_rate">60</property>
  <property name="meta.media.0.stream.sample_aspect_ratio">0</property>
  <property name="meta.media.0.codec.width">640</property>
  <property name="meta.media.0.codec.height">360</property>
  <property name="meta.media.0.codec.rotate">0</property>
  <property name="meta.media.0.codec.pix_fmt">yuvj420p</property>
  <property name="meta.media.0.codec.sample_aspect_ratio">0</property>
  <property name="meta.media.0.codec.colorspace">601</property>
  <property name="meta.media.0.codec.name">mjpeg</property>
  <property name="meta.media.0.codec.long_name">MJPEG (Motion JPEG)</property>
  <property name="meta.media.0.codec.bit_rate">0</property>
  <property name="meta.attr.0.stream.HANDLER_NAME.markup">VideoHandler</property>
  <property name="meta.attr.0.stream.VENDOR_ID.markup">[0][0][0][0]</property>
  <property name="meta.attr.0.stream.ENCODER.markup">Lavc60.3.100 mjpeg</property>
  <property name="meta.attr.0.stream.DURATION.markup">00:00:00.200000000</property>
  <property name="meta.attr.COMMENT.markup">Rendered with Manim Community v0.17.2</property>
  <property name="meta.attr.MAJOR_BRAND.markup">isom</property>
  <property name="meta.attr.MINOR_VERSION.markup">512</property>
  <property name="meta.attr.COMPATIBLE_BRANDS.markup">isomiso2avc1mp41</property>
  <property name="meta.attr.ENCODER.markup">Lavf60.3.100</property>
  <property name="seekable">1</property>
  <property name="meta.media.sample_aspect_num">1</property>
  <property name="meta.media.sample_aspect_den">1</property>
  <property name="aspect_ratio">1</property>
  <property name="format">3</property>
  <property name="audio_index">-1</property>
  <property name="video_index">0</property>
  <property name="mute_on_pause">0</property>
  <property name="mlt_service">avformat-novalidate</property>
  <property name="kdenlive:clipname">15.mp4</property>
  <property name="kdenlive:clip_type">2</property>
  <property name="kdenlive:folderid">653</property>
  <property name="kdenlive:id">545</property>
  <property name="kdenlive:file_size">35210</property>
  <property name="kdenlive:file_hash">672e4ba9bbc7b6860b54084abd43d943</property>
  <property name="kdenlive:proxy">/home/xiaoxiae/.cache/kdenlive/proxy/672e4ba9bbc7b6860b54084abd43d943.mkv</property>
  <property name="kdenlive:originalurl">video/Deletion/15.mp4</property>
  <property name="kdenlive:original.mlt_type">producer</property>
  <property name="kdenlive:original.in">0</property>
  <property name="kdenlive:original.out">11</property>
  <property name="kdenlive:original.length">12</property>
  <property name="kdenlive:original.eof">pause</property>
  <property name="kdenlive:original.resource">video/Deletion/15.mp4</property>
  <property name="kdenlive:original.meta.media.nb_streams">1</property>
  <property name="kdenlive:original.meta.media.0.stream.type">video</property>
  <property name="kdenlive:original.meta.media.0.stream.frame_rate">60</property>
  <property name="kdenlive:original.meta.media.0.stream.sample_aspect_ratio">0</property>
  <property name="kdenlive:original.meta.media.0.codec.width">3840</property>
  <property name="kdenlive:original.meta.media.0.codec.height">2160</property>
  <property name="kdenlive:original.meta.media.0.codec.rotate">0</property>
  <property name="kdenlive:original.meta.media.0.codec.pix_fmt">yuv420p</property>
  <property name="kdenlive:original.meta.media.0.codec.sample_aspect_ratio">0</property>
  <property name="kdenlive:original.meta.media.0.codec.colorspace">709</property>
  <property name="kdenlive:original.meta.media.0.codec.name">h264</property>
  <property name="kdenlive:original.meta.media.0.codec.long_name">H.264 / AVC / MPEG-4 AVC / MPEG-4 part 10</property>
  <property name="kdenlive:original.meta.media.0.codec.bit_rate">1365880</property>
  <property name="kdenlive:original.meta.attr.0.stream.handler_name.markup">VideoHandler</property>
  <property name="kdenlive:original.meta.attr.0.stream.vendor_id.markup">[0][0][0][0]</property>
  <property name="kdenlive:original.meta.attr.0.stream.encoder.markup">Lavc60.3.100 libx264</property>
  <property name="kdenlive:original.meta.attr.major_brand.markup">isom</property>
  <property name="kdenlive:original.meta.attr.minor_version.markup">512</property>
  <property name="kdenlive:original.meta.attr.compatible_brands.markup">isomiso2avc1mp41</property>
  <property name="kdenlive:original.meta.attr.encoder.markup">Lavf60.3.100</property>
  <property name="kdenlive:original.meta.attr.comment.markup">Rendered with Manim Community v0.17.2</property>
  <property name="kdenlive:original.seekable">1</property>
  <property name="kdenlive:original.width">3840</property>
  <property name="kdenlive:original.height">2160</property>
  <property name="kdenlive:original.meta.media.sample_aspect_num">1</property>
  <property name="kdenlive:original.meta.media.sample_aspect_den">1</property>
  <property name="kdenlive:original.aspect_ratio">1</property>
  <property name="kdenlive:original.format">3</property>
  <property name="kdenlive:original.audio_index">-1</property>
  <property name="kdenlive:original.video_index">0</property>
  <property name="kdenlive:original.mute_on_pause">0</property>
  <property name="kdenlive:original.mlt_service">avformat-novalidate</property>
  <property name="kdenlive:original.meta.media.frame_rate_num">60</property>
  <property name="kdenlive:original.meta.media.frame_rate_den">1</property>
  <property name="kdenlive:original.meta.media.colorspace">709</property>
  <property name="kdenlive:original.meta.media.color_trc">2</property>
  <property name="kdenlive:original.meta.media.has_b_frames">2</property>
  <property name="kdenlive:original.meta.media.width">3840</property>
  <property name="kdenlive:original.meta.media.height">2160</property>
  <property name="kdenlive:original.meta.media.color_range">mpeg</property>
  <property name="kdenlive:original.meta.media.top_field_first">0</property>
  <property name="kdenlive:original.meta.media.progressive">1</property>
  <property name="kdenlive:original.kdenlive:clip_type">2</property>
  <property name="kdenlive:original.kdenlive:folderid">653</property>
  <property name="kdenlive:original.kdenlive:id">660</property>
  <property name="kdenlive:original.kdenlive:file_size">35210</property>
  <property name="kdenlive:original.kdenlive:file_hash">672e4ba9bbc7b6860b54084abd43d943</property>
  <property name="kdenlive:original.backup">1</property>
  <property name="meta.media.frame_rate_num">60</property>
  <property name="meta.media.frame_rate_den">1</property>
  <property name="meta.media.colorspace">601</property>
  <property name="meta.media.color_trc">2</property>
  <property name="meta.media.has_b_frames">0</property>
  <property name="meta.media.width">640</property>
  <property name="meta.media.height">360</property>
  <property name="meta.media.color_range">full</property>
  <property name="meta.media.top_field_first">0</property>
  <property name="meta.media.progressive">1</property>
 </producer>
 <producer id="producer457" in="00:00:00.000" out="00:00:00.183">
  <property name="length">12</property>
  <property name="eof">pause</property>
  <property name="resource">/home/xiaoxiae/.cache/kdenlive/proxy/0c24bc9ca8ee883cfd859cd0c3d823b3.mkv</property>
  <property name="meta.media.nb_streams">1</property>
  <property name="meta.media.0.stream.type">video</property>
  <property name="meta.media.0.stream.frame_rate">60</property>
  <property name="meta.media.0.stream.sample_aspect_ratio">0</property>
  <property name="meta.media.0.codec.width">640</property>
  <property name="meta.media.0.codec.height">360</property>
  <property name="meta.media.0.codec.rotate">0</property>
  <property name="meta.media.0.codec.pix_fmt">yuvj420p</property>
  <property name="meta.media.0.codec.sample_aspect_ratio">0</property>
  <property name="meta.media.0.codec.colorspace">601</property>
  <property name="meta.media.0.codec.name">mjpeg</property>
  <property name="meta.media.0.codec.long_name">MJPEG (Motion JPEG)</property>
  <property name="meta.media.0.codec.bit_rate">0</property>
  <property name="meta.attr.0.stream.HANDLER_NAME.markup">VideoHandler</property>
  <property name="meta.attr.0.stream.VENDOR_ID.markup">[0][0][0][0]</property>
  <property name="meta.attr.0.stream.ENCODER.markup">Lavc60.3.100 mjpeg</property>
  <property name="meta.attr.0.stream.DURATION.markup">00:00:00.200000000</property>
  <property name="meta.attr.COMMENT.markup">Rendered with Manim Community v0.17.2</property>
  <property name="meta.attr.MAJOR_BRAND.markup">isom</property>
  <property name="meta.attr.MINOR_VERSION.markup">512</property>
  <property name="meta.attr.COMPATIBLE_BRANDS.markup">isomiso2avc1mp41</property>
  <property name="meta.attr.ENCODER.markup">Lavf60.3.100</property>
  <property name="seekable">1</property>
  <property name="meta.media.sample_aspect_num">1</property>
  <property name="meta.media.sample_aspect_den">1</property>
  <property name="aspect_ratio">1</property>
  <property name="format">3</property>
  <property name="audio_index">-1</property>
  <property name="video_index">0</property>
  <property name="mute_on_pause">0</property>
  <property name="mlt_service">avformat-novalidate</property>
  <property name="kdenlive:clipname">16.mp4</property>
  <property name="kdenlive:clip_type">2</property>
  <property name="kdenlive:folderid">653</property>
  <property name="kdenlive:id">546</property>
  <property name="kdenlive:file_size">36202</property>
  <property name="kdenlive:file_hash">0c24bc9ca8ee883cfd859cd0c3d823b3</property>
  <property name="kdenlive:proxy">/home/xiaoxiae/.cache/kdenlive/proxy/0c24bc9ca8ee883cfd859cd0c3d823b3.mkv</property>
  <property name="kdenlive:originalurl">video/Deletion/16.mp4</property>
  <property name="kdenlive:original.mlt_type">producer</property>
  <property name="kdenlive:original.in">0</property>
  <property name="kdenlive:original.out">11</property>
  <property name="kdenlive:original.length">12</property>
  <property name="kdenlive:original.eof">pause</property>
  <property name="kdenlive:original.resource">video/Deletion/16.mp4</property>
  <property name="kdenlive:original.meta.media.nb_streams">1</property>
  <property name="kdenlive:original.meta.media.0.stream.type">video</property>
  <property name="kdenlive:original.meta.media.0.stream.frame_rate">60</property>
  <property name="kdenlive:original.meta.media.0.stream.sample_aspect_ratio">0</property>
  <property name="kdenlive:original.meta.media.0.codec.width">3840</property>
  <property name="kdenlive:original.meta.media.0.codec.height">2160</property>
  <property name="kdenlive:original.meta.media.0.codec.rotate">0</property>
  <property name="kdenlive:original.meta.media.0.codec.pix_fmt">yuv420p</property>
  <property name="kdenlive:original.meta.media.0.codec.sample_aspect_ratio">0</property>
  <property name="kdenlive:original.meta.media.0.codec.colorspace">709</property>
  <property name="kdenlive:original.meta.media.0.codec.name">h264</property>
  <property name="kdenlive:original.meta.media.0.codec.long_name">H.264 / AVC / MPEG-4 AVC / MPEG-4 part 10</property>
  <property name="kdenlive:original.meta.media.0.codec.bit_rate">1406200</property>
  <property name="kdenlive:original.meta.attr.0.stream.handler_name.markup">VideoHandler</property>
  <property name="kdenlive:original.meta.attr.0.stream.vendor_id.markup">[0][0][0][0]</property>
  <property name="kdenlive:original.meta.attr.0.stream.encoder.markup">Lavc60.3.100 libx264</property>
  <property name="kdenlive:original.meta.attr.major_brand.markup">isom</property>
  <property name="kdenlive:original.meta.attr.minor_version.markup">512</property>
  <property name="kdenlive:original.meta.attr.compatible_brands.markup">isomiso2avc1mp41</property>
  <property name="kdenlive:original.meta.attr.encoder.markup">Lavf60.3.100</property>
  <property name="kdenlive:original.meta.attr.comment.markup">Rendered with Manim Community v0.17.2</property>
  <property name="kdenlive:original.seekable">1</property>
  <property name="kdenlive:original.width">3840</property>
  <property name="kdenlive:original.height">2160</property>
  <property name="kdenlive:original.meta.media.sample_aspect_num">1</property>
  <property name="kdenlive:original.meta.media.sample_aspect_den">1</property>
  <property name="kdenlive:original.aspect_ratio">1</property>
  <property name="kdenlive:original.format">3</property>
  <property name="kdenlive:original.audio_index">-1</property>
  <property name="kdenlive:original.video_index">0</property>
  <property name="kdenlive:original.mute_on_pause">0</property>
  <property name="kdenlive:original.mlt_service">avformat-novalidate</property>
  <property name="kdenlive:original.meta.media.frame_rate_num">60</property>
  <property name="kdenlive:original.meta.media.frame_rate_den">1</property>
  <property name="kdenlive:original.meta.media.colorspace">709</property>
  <property name="kdenlive:original.meta.media.color_trc">2</property>
  <property name="kdenlive:original.meta.media.has_b_frames">2</property>
  <property name="kdenlive:original.meta.media.width">3840</property>
  <property name="kdenlive:original.meta.media.height">2160</property>
  <property name="kdenlive:original.meta.media.color_range">mpeg</property>
  <property name="kdenlive:original.meta.media.top_field_first">0</property>
  <property name="kdenlive:original.meta.media.progressive">1</property>
  <property name="kdenlive:original.kdenlive:clip_type">2</property>
  <property name="kdenlive:original.kdenlive:folderid">653</property>
  <property name="kdenlive:original.kdenlive:id">661</property>
  <property name="kdenlive:original.kdenlive:file_size">36202</property>
  <property name="kdenlive:original.kdenlive:file_hash">0c24bc9ca8ee883cfd859cd0c3d823b3</property>
  <property name="kdenlive:original.backup">1</property>
  <property name="meta.media.frame_rate_num">60</property>
  <property name="meta.media.frame_rate_den">1</property>
  <property name="meta.media.colorspace">601</property>
  <property name="meta.media.color_trc">2</property>
  <property name="meta.media.has_b_frames">0</property>
  <property name="meta.media.width">640</property>
  <property name="meta.media.height">360</property>
  <property name="meta.media.color_range">full</property>
  <property name="meta.media.top_field_first">0</property>
  <property name="meta.media.progressive">1</property>
 </producer>
 <producer id="producer459" in="00:00:00.000" out="00:00:00.117">
  <property name="length">8</property>
  <property name="eof">pause</property>
  <property name="resource">/home/xiaoxiae/.cache/kdenlive/proxy/2014fdb1cefe2242cba662935d455371.mkv</property>
  <property name="meta.media.nb_streams">1</property>
  <property name="meta.media.0.stream.type">video</property>
  <property name="meta.media.0.stream.frame_rate">60</property>
  <property name="meta.media.0.stream.sample_aspect_ratio">0</property>
  <property name="meta.media.0.codec.width">640</property>
  <property name="meta.media.0.codec.height">360</property>
  <property name="meta.media.0.codec.rotate">0</property>
  <property name="meta.media.0.codec.pix_fmt">yuvj420p</property>
  <property name="meta.media.0.codec.sample_aspect_ratio">0</property>
  <property name="meta.media.0.codec.colorspace">601</property>
  <property name="meta.media.0.codec.name">mjpeg</property>
  <property name="meta.media.0.codec.long_name">MJPEG (Motion JPEG)</property>
  <property name="meta.media.0.codec.bit_rate">0</property>
  <property name="meta.attr.0.stream.HANDLER_NAME.markup">VideoHandler</property>
  <property name="meta.attr.0.stream.VENDOR_ID.markup">[0][0][0][0]</property>
  <property name="meta.attr.0.stream.ENCODER.markup">Lavc60.3.100 mjpeg</property>
  <property name="meta.attr.0.stream.DURATION.markup">00:00:00.134000000</property>
  <property name="meta.attr.COMMENT.markup">Rendered with Manim Community v0.17.2</property>
  <property name="meta.attr.MAJOR_BRAND.markup">isom</property>
  <property name="meta.attr.MINOR_VERSION.markup">512</property>
  <property name="meta.attr.COMPATIBLE_BRANDS.markup">isomiso2avc1mp41</property>
  <property name="meta.attr.ENCODER.markup">Lavf60.3.100</property>
  <property name="seekable">1</property>
  <property name="meta.media.sample_aspect_num">1</property>
  <property name="meta.media.sample_aspect_den">1</property>
  <property name="aspect_ratio">1</property>
  <property name="format">3</property>
  <property name="audio_index">-1</property>
  <property name="video_index">0</property>
  <property name="mute_on_pause">0</property>
  <property name="mlt_service">avformat-novalidate</property>
  <property name="kdenlive:clipname">17.mp4</property>
  <property name="kdenlive:clip_type">2</property>
  <property name="kdenlive:folderid">653</property>
  <property name="kdenlive:id">547</property>
  <property name="kdenlive:file_size">33201</property>
  <property name="kdenlive:file_hash">2014fdb1cefe2242cba662935d455371</property>
  <property name="kdenlive:proxy">/home/xiaoxiae/.cache/kdenlive/proxy/2014fdb1cefe2242cba662935d455371.mkv</property>
  <property name="kdenlive:originalurl">video/Deletion/17.mp4</property>
  <property name="kdenlive:original.mlt_type">producer</property>
  <property name="kdenlive:original.in">0</property>
  <property name="kdenlive:original.out">7</property>
  <property name="kdenlive:original.length">8</property>
  <property name="kdenlive:original.eof">pause</property>
  <property name="kdenlive:original.resource">video/Deletion/17.mp4</property>
  <property name="kdenlive:original.meta.media.nb_streams">1</property>
  <property name="kdenlive:original.meta.media.0.stream.type">video</property>
  <property name="kdenlive:original.meta.media.0.stream.frame_rate">60</property>
  <property name="kdenlive:original.meta.media.0.stream.sample_aspect_ratio">0</property>
  <property name="kdenlive:original.meta.media.0.codec.width">3840</property>
  <property name="kdenlive:original.meta.media.0.codec.height">2160</property>
  <property name="kdenlive:original.meta.media.0.codec.rotate">0</property>
  <property name="kdenlive:original.meta.media.0.codec.pix_fmt">yuv420p</property>
  <property name="kdenlive:original.meta.media.0.codec.sample_aspect_ratio">0</property>
  <property name="kdenlive:original.meta.media.0.codec.colorspace">709</property>
  <property name="kdenlive:original.meta.media.0.codec.name">h264</property>
  <property name="kdenlive:original.meta.media.0.codec.long_name">H.264 / AVC / MPEG-4 AVC / MPEG-4 part 10</property>
  <property name="kdenlive:original.meta.media.0.codec.bit_rate">1931160</property>
  <property name="kdenlive:original.meta.attr.0.stream.handler_name.markup">VideoHandler</property>
  <property name="kdenlive:original.meta.attr.0.stream.vendor_id.markup">[0][0][0][0]</property>
  <property name="kdenlive:original.meta.attr.0.stream.encoder.markup">Lavc60.3.100 libx264</property>
  <property name="kdenlive:original.meta.attr.major_brand.markup">isom</property>
  <property name="kdenlive:original.meta.attr.minor_version.markup">512</property>
  <property name="kdenlive:original.meta.attr.compatible_brands.markup">isomiso2avc1mp41</property>
  <property name="kdenlive:original.meta.attr.encoder.markup">Lavf60.3.100</property>
  <property name="kdenlive:original.meta.attr.comment.markup">Rendered with Manim Community v0.17.2</property>
  <property name="kdenlive:original.seekable">1</property>
  <property name="kdenlive:original.width">3840</property>
  <property name="kdenlive:original.height">2160</property>
  <property name="kdenlive:original.meta.media.sample_aspect_num">1</property>
  <property name="kdenlive:original.meta.media.sample_aspect_den">1</property>
  <property name="kdenlive:original.aspect_ratio">1</property>
  <property name="kdenlive:original.format">3</property>
  <property name="kdenlive:original.audio_index">-1</property>
  <property name="kdenlive:original.video_index">0</property>
  <property name="kdenlive:original.mute_on_pause">0</property>
  <property name="kdenlive:original.mlt_service">avformat-novalidate</property>
  <property name="kdenlive:original.meta.media.frame_rate_num">60</property>
  <property name="kdenlive:original.meta.media.frame_rate_den">1</property>
  <property name="kdenlive:original.meta.media.colorspace">709</property>
  <property name="kdenlive:original.meta.media.color_trc">2</property>
  <property name="kdenlive:original.meta.media.has_b_frames">2</property>
  <property name="kdenlive:original.meta.media.width">3840</property>
  <property name="kdenlive:original.meta.media.height">2160</property>
  <property name="kdenlive:original.meta.media.color_range">mpeg</property>
  <property name="kdenlive:original.meta.media.top_field_first">0</property>
  <property name="kdenlive:original.meta.media.progressive">1</property>
  <property name="kdenlive:original.kdenlive:clip_type">2</property>
  <property name="kdenlive:original.kdenlive:folderid">653</property>
  <property name="kdenlive:original.kdenlive:id">662</property>
  <property name="kdenlive:original.kdenlive:file_size">33201</property>
  <property name="kdenlive:original.kdenlive:file_hash">2014fdb1cefe2242cba662935d455371</property>
  <property name="kdenlive:original.backup">1</property>
  <property name="meta.media.frame_rate_num">60</property>
  <property name="meta.media.frame_rate_den">1</property>
  <property name="meta.media.colorspace">601</property>
  <property name="meta.media.color_trc">2</property>
  <property name="meta.media.has_b_frames">0</property>
  <property name="meta.media.width">640</property>
  <property name="meta.media.height">360</property>
  <property name="meta.media.color_range">full</property>
  <property name="meta.media.top_field_first">0</property>
  <property name="meta.media.progressive">1</property>
 </producer>
 <producer id="producer458" in="00:00:00.000" out="00:00:00.117">
  <property name="length">8</property>
  <property name="eof">pause</property>
  <property name="resource">/home/xiaoxiae/.cache/kdenlive/proxy/7df37bda19d9a970c92fe4a7c478db4b.mkv</property>
  <property name="meta.media.nb_streams">1</property>
  <property name="meta.media.0.stream.type">video</property>
  <property name="meta.media.0.stream.frame_rate">60</property>
  <property name="meta.media.0.stream.sample_aspect_ratio">0</property>
  <property name="meta.media.0.codec.width">640</property>
  <property name="meta.media.0.codec.height">360</property>
  <property name="meta.media.0.codec.rotate">0</property>
  <property name="meta.media.0.codec.pix_fmt">yuvj420p</property>
  <property name="meta.media.0.codec.sample_aspect_ratio">0</property>
  <property name="meta.media.0.codec.colorspace">601</property>
  <property name="meta.media.0.codec.name">mjpeg</property>
  <property name="meta.media.0.codec.long_name">MJPEG (Motion JPEG)</property>
  <property name="meta.media.0.codec.bit_rate">0</property>
  <property name="meta.attr.0.stream.HANDLER_NAME.markup">VideoHandler</property>
  <property name="meta.attr.0.stream.VENDOR_ID.markup">[0][0][0][0]</property>
  <property name="meta.attr.0.stream.ENCODER.markup">Lavc60.3.100 mjpeg</property>
  <property name="meta.attr.0.stream.DURATION.markup">00:00:00.134000000</property>
  <property name="meta.attr.COMMENT.markup">Rendered with Manim Community v0.17.2</property>
  <property name="meta.attr.MAJOR_BRAND.markup">isom</property>
  <property name="meta.attr.MINOR_VERSION.markup">512</property>
  <property name="meta.attr.COMPATIBLE_BRANDS.markup">isomiso2avc1mp41</property>
  <property name="meta.attr.ENCODER.markup">Lavf60.3.100</property>
  <property name="seekable">1</property>
  <property name="meta.media.sample_aspect_num">1</property>
  <property name="meta.media.sample_aspect_den">1</property>
  <property name="aspect_ratio">1</property>
  <property name="format">3</property>
  <property name="audio_index">-1</property>
  <property name="video_index">0</property>
  <property name="mute_on_pause">0</property>
  <property name="mlt_service">avformat-novalidate</property>
  <property name="kdenlive:clipname">18.mp4</property>
  <property name="kdenlive:clip_type">2</property>
  <property name="kdenlive:folderid">653</property>
  <property name="kdenlive:id">548</property>
  <property name="kdenlive:file_size">31805</property>
  <property name="kdenlive:file_hash">7df37bda19d9a970c92fe4a7c478db4b</property>
  <property name="kdenlive:proxy">/home/xiaoxiae/.cache/kdenlive/proxy/7df37bda19d9a970c92fe4a7c478db4b.mkv</property>
  <property name="kdenlive:originalurl">video/Deletion/18.mp4</property>
  <property name="kdenlive:original.mlt_type">producer</property>
  <property name="kdenlive:original.in">0</property>
  <property name="kdenlive:original.out">7</property>
  <property name="kdenlive:original.length">8</property>
  <property name="kdenlive:original.eof">pause</property>
  <property name="kdenlive:original.resource">video/Deletion/18.mp4</property>
  <property name="kdenlive:original.meta.media.nb_streams">1</property>
  <property name="kdenlive:original.meta.media.0.stream.type">video</property>
  <property name="kdenlive:original.meta.media.0.stream.frame_rate">60</property>
  <property name="kdenlive:original.meta.media.0.stream.sample_aspect_ratio">0</property>
  <property name="kdenlive:original.meta.media.0.codec.width">3840</property>
  <property name="kdenlive:original.meta.media.0.codec.height">2160</property>
  <property name="kdenlive:original.meta.media.0.codec.rotate">0</property>
  <property name="kdenlive:original.meta.media.0.codec.pix_fmt">yuv420p</property>
  <property name="kdenlive:original.meta.media.0.codec.sample_aspect_ratio">0</property>
  <property name="kdenlive:original.meta.media.0.codec.colorspace">709</property>
  <property name="kdenlive:original.meta.media.0.codec.name">h264</property>
  <property name="kdenlive:original.meta.media.0.codec.long_name">H.264 / AVC / MPEG-4 AVC / MPEG-4 part 10</property>
  <property name="kdenlive:original.meta.media.0.codec.bit_rate">1847400</property>
  <property name="kdenlive:original.meta.attr.0.stream.handler_name.markup">VideoHandler</property>
  <property name="kdenlive:original.meta.attr.0.stream.vendor_id.markup">[0][0][0][0]</property>
  <property name="kdenlive:original.meta.attr.0.stream.encoder.markup">Lavc60.3.100 libx264</property>
  <property name="kdenlive:original.meta.attr.major_brand.markup">isom</property>
  <property name="kdenlive:original.meta.attr.minor_version.markup">512</property>
  <property name="kdenlive:original.meta.attr.compatible_brands.markup">isomiso2avc1mp41</property>
  <property name="kdenlive:original.meta.attr.encoder.markup">Lavf60.3.100</property>
  <property name="kdenlive:original.meta.attr.comment.markup">Rendered with Manim Community v0.17.2</property>
  <property name="kdenlive:original.seekable">1</property>
  <property name="kdenlive:original.width">3840</property>
  <property name="kdenlive:original.height">2160</property>
  <property name="kdenlive:original.meta.media.sample_aspect_num">1</property>
  <property name="kdenlive:original.meta.media.sample_aspect_den">1</property>
  <property name="kdenlive:original.aspect_ratio">1</property>
  <property name="kdenlive:original.format">3</property>
  <property name="kdenlive:original.audio_index">-1</property>
  <property name="kdenlive:original.video_index">0</property>
  <property name="kdenlive:original.mute_on_pause">0</property>
  <property name="kdenlive:original.mlt_service">avformat-novalidate</property>
  <property name="kdenlive:original.meta.media.frame_rate_num">60</property>
  <property name="kdenlive:original.meta.media.frame_rate_den">1</property>
  <property name="kdenlive:original.meta.media.colorspace">709</property>
  <property name="kdenlive:original.meta.media.color_trc">2</property>
  <property name="kdenlive:original.meta.media.has_b_frames">2</property>
  <property name="kdenlive:original.meta.media.width">3840</property>
  <property name="kdenlive:original.meta.media.height">2160</property>
  <property name="kdenlive:original.meta.media.color_range">mpeg</property>
  <property name="kdenlive:original.meta.media.top_field_first">0</property>
  <property name="kdenlive:original.meta.media.progressive">1</property>
  <property name="kdenlive:original.kdenlive:clip_type">2</property>
  <property name="kdenlive:original.kdenlive:folderid">653</property>
  <property name="kdenlive:original.kdenlive:id">663</property>
  <property name="kdenlive:original.kdenlive:file_size">31805</property>
  <property name="kdenlive:original.kdenlive:file_hash">7df37bda19d9a970c92fe4a7c478db4b</property>
  <property name="kdenlive:original.backup">1</property>
  <property name="meta.media.frame_rate_num">60</property>
  <property name="meta.media.frame_rate_den">1</property>
  <property name="meta.media.colorspace">601</property>
  <property name="meta.media.color_trc">2</property>
  <property name="meta.media.has_b_frames">0</property>
  <property name="meta.media.width">640</property>
  <property name="meta.media.height">360</property>
  <property name="meta.media.color_range">full</property>
  <property name="meta.media.top_field_first">0</property>
  <property name="meta.media.progressive">1</property>
 </producer>
 <producer id="producer461" in="00:00:00.000" out="00:00:00.117">
  <property name="length">8</property>
  <property name="eof">pause</property>
  <property name="resource">/home/xiaoxiae/.cache/kdenlive/proxy/9ea1f68d060bbc40510dbebac1c102ca.mkv</property>
  <property name="meta.media.nb_streams">1</property>
  <property name="meta.media.0.stream.type">video</property>
  <property name="meta.media.0.stream.frame_rate">60</property>
  <property name="meta.media.0.stream.sample_aspect_ratio">0</property>
  <property name="meta.media.0.codec.width">640</property>
  <property name="meta.media.0.codec.height">360</property>
  <property name="meta.media.0.codec.rotate">0</property>
  <property name="meta.media.0.codec.pix_fmt">yuvj420p</property>
  <property name="meta.media.0.codec.sample_aspect_ratio">0</property>
  <property name="meta.media.0.codec.colorspace">601</property>
  <property name="meta.media.0.codec.name">mjpeg</property>
  <property name="meta.media.0.codec.long_name">MJPEG (Motion JPEG)</property>
  <property name="meta.media.0.codec.bit_rate">0</property>
  <property name="meta.attr.0.stream.HANDLER_NAME.markup">VideoHandler</property>
  <property name="meta.attr.0.stream.VENDOR_ID.markup">[0][0][0][0]</property>
  <property name="meta.attr.0.stream.ENCODER.markup">Lavc60.3.100 mjpeg</property>
  <property name="meta.attr.0.stream.DURATION.markup">00:00:00.134000000</property>
  <property name="meta.attr.COMMENT.markup">Rendered with Manim Community v0.17.2</property>
  <property name="meta.attr.MAJOR_BRAND.markup">isom</property>
  <property name="meta.attr.MINOR_VERSION.markup">512</property>
  <property name="meta.attr.COMPATIBLE_BRANDS.markup">isomiso2avc1mp41</property>
  <property name="meta.attr.ENCODER.markup">Lavf60.3.100</property>
  <property name="seekable">1</property>
  <property name="meta.media.sample_aspect_num">1</property>
  <property name="meta.media.sample_aspect_den">1</property>
  <property name="aspect_ratio">1</property>
  <property name="format">3</property>
  <property name="audio_index">-1</property>
  <property name="video_index">0</property>
  <property name="mute_on_pause">0</property>
  <property name="mlt_service">avformat-novalidate</property>
  <property name="kdenlive:clipname">19.mp4</property>
  <property name="kdenlive:clip_type">2</property>
  <property name="kdenlive:folderid">653</property>
  <property name="kdenlive:id">549</property>
  <property name="kdenlive:file_size">32861</property>
  <property name="kdenlive:file_hash">9ea1f68d060bbc40510dbebac1c102ca</property>
  <property name="kdenlive:proxy">/home/xiaoxiae/.cache/kdenlive/proxy/9ea1f68d060bbc40510dbebac1c102ca.mkv</property>
  <property name="kdenlive:originalurl">video/Deletion/19.mp4</property>
  <property name="kdenlive:original.mlt_type">producer</property>
  <property name="kdenlive:original.in">0</property>
  <property name="kdenlive:original.out">7</property>
  <property name="kdenlive:original.length">8</property>
  <property name="kdenlive:original.eof">pause</property>
  <property name="kdenlive:original.resource">video/Deletion/19.mp4</property>
  <property name="kdenlive:original.meta.media.nb_streams">1</property>
  <property name="kdenlive:original.meta.media.0.stream.type">video</property>
  <property name="kdenlive:original.meta.media.0.stream.frame_rate">60</property>
  <property name="kdenlive:original.meta.media.0.stream.sample_aspect_ratio">0</property>
  <property name="kdenlive:original.meta.media.0.codec.width">3840</property>
  <property name="kdenlive:original.meta.media.0.codec.height">2160</property>
  <property name="kdenlive:original.meta.media.0.codec.rotate">0</property>
  <property name="kdenlive:original.meta.media.0.codec.pix_fmt">yuv420p</property>
  <property name="kdenlive:original.meta.media.0.codec.sample_aspect_ratio">0</property>
  <property name="kdenlive:original.meta.media.0.codec.colorspace">709</property>
  <property name="kdenlive:original.meta.media.0.codec.name">h264</property>
  <property name="kdenlive:original.meta.media.0.codec.long_name">H.264 / AVC / MPEG-4 AVC / MPEG-4 part 10</property>
  <property name="kdenlive:original.meta.media.0.codec.bit_rate">1911240</property>
  <property name="kdenlive:original.meta.attr.0.stream.handler_name.markup">VideoHandler</property>
  <property name="kdenlive:original.meta.attr.0.stream.vendor_id.markup">[0][0][0][0]</property>
  <property name="kdenlive:original.meta.attr.0.stream.encoder.markup">Lavc60.3.100 libx264</property>
  <property name="kdenlive:original.meta.attr.major_brand.markup">isom</property>
  <property name="kdenlive:original.meta.attr.minor_version.markup">512</property>
  <property name="kdenlive:original.meta.attr.compatible_brands.markup">isomiso2avc1mp41</property>
  <property name="kdenlive:original.meta.attr.encoder.markup">Lavf60.3.100</property>
  <property name="kdenlive:original.meta.attr.comment.markup">Rendered with Manim Community v0.17.2</property>
  <property name="kdenlive:original.seekable">1</property>
  <property name="kdenlive:original.width">3840</property>
  <property name="kdenlive:original.height">2160</property>
  <property name="kdenlive:original.meta.media.sample_aspect_num">1</property>
  <property name="kdenlive:original.meta.media.sample_aspect_den">1</property>
  <property name="kdenlive:original.aspect_ratio">1</property>
  <property name="kdenlive:original.format">3</property>
  <property name="kdenlive:original.audio_index">-1</property>
  <property name="kdenlive:original.video_index">0</property>
  <property name="kdenlive:original.mute_on_pause">0</property>
  <property name="kdenlive:original.mlt_service">avformat-novalidate</property>
  <property name="kdenlive:original.meta.media.frame_rate_num">60</property>
  <property name="kdenlive:original.meta.media.frame_rate_den">1</property>
  <property name="kdenlive:original.meta.media.colorspace">709</property>
  <property name="kdenlive:original.meta.media.color_trc">2</property>
  <property name="kdenlive:original.meta.media.has_b_frames">2</property>
  <property name="kdenlive:original.meta.media.width">3840</property>
  <property name="kdenlive:original.meta.media.height">2160</property>
  <property name="kdenlive:original.meta.media.color_range">mpeg</property>
  <property name="kdenlive:original.meta.media.top_field_first">0</property>
  <property name="kdenlive:original.meta.media.progressive">1</property>
  <property name="kdenlive:original.kdenlive:clip_type">2</property>
  <property name="kdenlive:original.kdenlive:folderid">653</property>
  <property name="kdenlive:original.kdenlive:id">664</property>
  <property name="kdenlive:original.kdenlive:file_size">32861</property>
  <property name="kdenlive:original.kdenlive:file_hash">9ea1f68d060bbc40510dbebac1c102ca</property>
  <property name="kdenlive:original.backup">1</property>
  <property name="meta.media.frame_rate_num">60</property>
  <property name="meta.media.frame_rate_den">1</property>
  <property name="meta.media.colorspace">601</property>
  <property name="meta.media.color_trc">2</property>
  <property name="meta.media.has_b_frames">0</property>
  <property name="meta.media.width">640</property>
  <property name="meta.media.height">360</property>
  <property name="meta.media.color_range">full</property>
  <property name="meta.media.top_field_first">0</property>
  <property name="meta.media.progressive">1</property>
 </producer>
 <producer id="producer460" in="00:00:00.000" out="00:00:00.983">
  <property name="length">60</property>
  <property name="eof">pause</property>
  <property name="resource">/home/xiaoxiae/.cache/kdenlive/proxy/8453bf92cfaa7621cf6ef84242eacf65.mkv</property>
  <property name="meta.media.nb_streams">1</property>
  <property name="meta.media.0.stream.type">video</property>
  <property name="meta.media.0.stream.frame_rate">60</property>
  <property name="meta.media.0.stream.sample_aspect_ratio">0</property>
  <property name="meta.media.0.codec.width">640</property>
  <property name="meta.media.0.codec.height">360</property>
  <property name="meta.media.0.codec.rotate">0</property>
  <property name="meta.media.0.codec.pix_fmt">yuvj420p</property>
  <property name="meta.media.0.codec.sample_aspect_ratio">0</property>
  <property name="meta.media.0.codec.colorspace">601</property>
  <property name="meta.media.0.codec.name">mjpeg</property>
  <property name="meta.media.0.codec.long_name">MJPEG (Motion JPEG)</property>
  <property name="meta.media.0.codec.bit_rate">0</property>
  <property name="meta.attr.0.stream.HANDLER_NAME.markup">VideoHandler</property>
  <property name="meta.attr.0.stream.VENDOR_ID.markup">[0][0][0][0]</property>
  <property name="meta.attr.0.stream.ENCODER.markup">Lavc60.3.100 mjpeg</property>
  <property name="meta.attr.0.stream.DURATION.markup">00:00:01.000000000</property>
  <property name="meta.attr.COMMENT.markup">Rendered with Manim Community v0.17.2</property>
  <property name="meta.attr.MAJOR_BRAND.markup">isom</property>
  <property name="meta.attr.MINOR_VERSION.markup">512</property>
  <property name="meta.attr.COMPATIBLE_BRANDS.markup">isomiso2avc1mp41</property>
  <property name="meta.attr.ENCODER.markup">Lavf60.3.100</property>
  <property name="seekable">1</property>
  <property name="meta.media.sample_aspect_num">1</property>
  <property name="meta.media.sample_aspect_den">1</property>
  <property name="aspect_ratio">1</property>
  <property name="format">3</property>
  <property name="audio_index">-1</property>
  <property name="video_index">0</property>
  <property name="mute_on_pause">0</property>
  <property name="mlt_service">avformat-novalidate</property>
  <property name="kdenlive:clipname">2.mp4</property>
  <property name="kdenlive:clip_type">2</property>
  <property name="kdenlive:folderid">653</property>
  <property name="kdenlive:id">550</property>
  <property name="kdenlive:file_size">76412</property>
  <property name="kdenlive:file_hash">8453bf92cfaa7621cf6ef84242eacf65</property>
  <property name="kdenlive:proxy">/home/xiaoxiae/.cache/kdenlive/proxy/8453bf92cfaa7621cf6ef84242eacf65.mkv</property>
  <property name="kdenlive:originalurl">video/Deletion/2.mp4</property>
  <property name="kdenlive:original.mlt_type">producer</property>
  <property name="kdenlive:original.in">0</property>
  <property name="kdenlive:original.out">59</property>
  <property name="kdenlive:original.length">60</property>
  <property name="kdenlive:original.eof">pause</property>
  <property name="kdenlive:original.resource">video/Deletion/2.mp4</property>
  <property name="kdenlive:original.meta.media.nb_streams">1</property>
  <property name="kdenlive:original.meta.media.0.stream.type">video</property>
  <property name="kdenlive:original.meta.media.0.stream.frame_rate">60</property>
  <property name="kdenlive:original.meta.media.0.stream.sample_aspect_ratio">0</property>
  <property name="kdenlive:original.meta.media.0.codec.width">3840</property>
  <property name="kdenlive:original.meta.media.0.codec.height">2160</property>
  <property name="kdenlive:original.meta.media.0.codec.rotate">0</property>
  <property name="kdenlive:original.meta.media.0.codec.pix_fmt">yuv420p</property>
  <property name="kdenlive:original.meta.media.0.codec.sample_aspect_ratio">0</property>
  <property name="kdenlive:original.meta.media.0.codec.colorspace">709</property>
  <property name="kdenlive:original.meta.media.0.codec.name">h264</property>
  <property name="kdenlive:original.meta.media.0.codec.long_name">H.264 / AVC / MPEG-4 AVC / MPEG-4 part 10</property>
  <property name="kdenlive:original.meta.media.0.codec.bit_rate">598248</property>
  <property name="kdenlive:original.meta.attr.0.stream.handler_name.markup">VideoHandler</property>
  <property name="kdenlive:original.meta.attr.0.stream.vendor_id.markup">[0][0][0][0]</property>
  <property name="kdenlive:original.meta.attr.0.stream.encoder.markup">Lavc60.3.100 libx264</property>
  <property name="kdenlive:original.meta.attr.major_brand.markup">isom</property>
  <property name="kdenlive:original.meta.attr.minor_version.markup">512</property>
  <property name="kdenlive:original.meta.attr.compatible_brands.markup">isomiso2avc1mp41</property>
  <property name="kdenlive:original.meta.attr.encoder.markup">Lavf60.3.100</property>
  <property name="kdenlive:original.meta.attr.comment.markup">Rendered with Manim Community v0.17.2</property>
  <property name="kdenlive:original.seekable">1</property>
  <property name="kdenlive:original.width">3840</property>
  <property name="kdenlive:original.height">2160</property>
  <property name="kdenlive:original.meta.media.sample_aspect_num">1</property>
  <property name="kdenlive:original.meta.media.sample_aspect_den">1</property>
  <property name="kdenlive:original.aspect_ratio">1</property>
  <property name="kdenlive:original.format">3</property>
  <property name="kdenlive:original.audio_index">-1</property>
  <property name="kdenlive:original.video_index">0</property>
  <property name="kdenlive:original.mute_on_pause">0</property>
  <property name="kdenlive:original.mlt_service">avformat-novalidate</property>
  <property name="kdenlive:original.meta.media.frame_rate_num">60</property>
  <property name="kdenlive:original.meta.media.frame_rate_den">1</property>
  <property name="kdenlive:original.meta.media.colorspace">709</property>
  <property name="kdenlive:original.meta.media.color_trc">2</property>
  <property name="kdenlive:original.meta.media.has_b_frames">2</property>
  <property name="kdenlive:original.meta.media.width">3840</property>
  <property name="kdenlive:original.meta.media.height">2160</property>
  <property name="kdenlive:original.meta.media.color_range">mpeg</property>
  <property name="kdenlive:original.meta.media.top_field_first">0</property>
  <property name="kdenlive:original.meta.media.progressive">1</property>
  <property name="kdenlive:original.kdenlive:clip_type">2</property>
  <property name="kdenlive:original.kdenlive:folderid">653</property>
  <property name="kdenlive:original.kdenlive:id">665</property>
  <property name="kdenlive:original.kdenlive:file_size">76412</property>
  <property name="kdenlive:original.kdenlive:file_hash">8453bf92cfaa7621cf6ef84242eacf65</property>
  <property name="kdenlive:original.backup">1</property>
  <property name="meta.media.frame_rate_num">60</property>
  <property name="meta.media.frame_rate_den">1</property>
  <property name="meta.media.colorspace">601</property>
  <property name="meta.media.color_trc">2</property>
  <property name="meta.media.has_b_frames">0</property>
  <property name="meta.media.width">640</property>
  <property name="meta.media.height">360</property>
  <property name="meta.media.color_range">full</property>
  <property name="meta.media.top_field_first">0</property>
  <property name="meta.media.progressive">1</property>
 </producer>
 <producer id="producer462" in="00:00:00.000" out="00:00:01.483">
  <property name="length">90</property>
  <property name="eof">pause</property>
  <property name="resource">/home/xiaoxiae/.cache/kdenlive/proxy/137b906cf24546bbb74562f278c96af0.mkv</property>
  <property name="meta.media.nb_streams">1</property>
  <property name="meta.media.0.stream.type">video</property>
  <property name="meta.media.0.stream.frame_rate">60</property>
  <property name="meta.media.0.stream.sample_aspect_ratio">0</property>
  <property name="meta.media.0.codec.width">640</property>
  <property name="meta.media.0.codec.height">360</property>
  <property name="meta.media.0.codec.rotate">0</property>
  <property name="meta.media.0.codec.pix_fmt">yuvj420p</property>
  <property name="meta.media.0.codec.sample_aspect_ratio">0</property>
  <property name="meta.media.0.codec.colorspace">601</property>
  <property name="meta.media.0.codec.name">mjpeg</property>
  <property name="meta.media.0.codec.long_name">MJPEG (Motion JPEG)</property>
  <property name="meta.media.0.codec.bit_rate">0</property>
  <property name="meta.attr.0.stream.HANDLER_NAME.markup">VideoHandler</property>
  <property name="meta.attr.0.stream.VENDOR_ID.markup">[0][0][0][0]</property>
  <property name="meta.attr.0.stream.ENCODER.markup">Lavc60.3.100 mjpeg</property>
  <property name="meta.attr.0.stream.DURATION.markup">00:00:01.500000000</property>
  <property name="meta.attr.COMMENT.markup">Rendered with Manim Community v0.17.2</property>
  <property name="meta.attr.MAJOR_BRAND.markup">isom</property>
  <property name="meta.attr.MINOR_VERSION.markup">512</property>
  <property name="meta.attr.COMPATIBLE_BRANDS.markup">isomiso2avc1mp41</property>
  <property name="meta.attr.ENCODER.markup">Lavf60.3.100</property>
  <property name="seekable">1</property>
  <property name="meta.media.sample_aspect_num">1</property>
  <property name="meta.media.sample_aspect_den">1</property>
  <property name="aspect_ratio">1</property>
  <property name="format">3</property>
  <property name="audio_index">-1</property>
  <property name="video_index">0</property>
  <property name="mute_on_pause">0</property>
  <property name="mlt_service">avformat-novalidate</property>
  <property name="kdenlive:clipname">20.mp4</property>
  <property name="kdenlive:clip_type">2</property>
  <property name="kdenlive:folderid">653</property>
  <property name="kdenlive:id">551</property>
  <property name="kdenlive:file_size">127763</property>
  <property name="kdenlive:file_hash">137b906cf24546bbb74562f278c96af0</property>
  <property name="kdenlive:proxy">/home/xiaoxiae/.cache/kdenlive/proxy/137b906cf24546bbb74562f278c96af0.mkv</property>
  <property name="kdenlive:originalurl">video/Deletion/20.mp4</property>
  <property name="kdenlive:original.mlt_type">producer</property>
  <property name="kdenlive:original.in">0</property>
  <property name="kdenlive:original.out">89</property>
  <property name="kdenlive:original.length">90</property>
  <property name="kdenlive:original.eof">pause</property>
  <property name="kdenlive:original.resource">video/Deletion/20.mp4</property>
  <property name="kdenlive:original.meta.media.nb_streams">1</property>
  <property name="kdenlive:original.meta.media.0.stream.type">video</property>
  <property name="kdenlive:original.meta.media.0.stream.frame_rate">60</property>
  <property name="kdenlive:original.meta.media.0.stream.sample_aspect_ratio">0</property>
  <property name="kdenlive:original.meta.media.0.codec.width">3840</property>
  <property name="kdenlive:original.meta.media.0.codec.height">2160</property>
  <property name="kdenlive:original.meta.media.0.codec.rotate">0</property>
  <property name="kdenlive:original.meta.media.0.codec.pix_fmt">yuv420p</property>
  <property name="kdenlive:original.meta.media.0.codec.sample_aspect_ratio">0</property>
  <property name="kdenlive:original.meta.media.0.codec.colorspace">709</property>
  <property name="kdenlive:original.meta.media.0.codec.name">h264</property>
  <property name="kdenlive:original.meta.media.0.codec.long_name">H.264 / AVC / MPEG-4 AVC / MPEG-4 part 10</property>
  <property name="kdenlive:original.meta.media.0.codec.bit_rate">670741</property>
  <property name="kdenlive:original.meta.attr.0.stream.handler_name.markup">VideoHandler</property>
  <property name="kdenlive:original.meta.attr.0.stream.vendor_id.markup">[0][0][0][0]</property>
  <property name="kdenlive:original.meta.attr.0.stream.encoder.markup">Lavc60.3.100 libx264</property>
  <property name="kdenlive:original.meta.attr.major_brand.markup">isom</property>
  <property name="kdenlive:original.meta.attr.minor_version.markup">512</property>
  <property name="kdenlive:original.meta.attr.compatible_brands.markup">isomiso2avc1mp41</property>
  <property name="kdenlive:original.meta.attr.encoder.markup">Lavf60.3.100</property>
  <property name="kdenlive:original.meta.attr.comment.markup">Rendered with Manim Community v0.17.2</property>
  <property name="kdenlive:original.seekable">1</property>
  <property name="kdenlive:original.width">3840</property>
  <property name="kdenlive:original.height">2160</property>
  <property name="kdenlive:original.meta.media.sample_aspect_num">1</property>
  <property name="kdenlive:original.meta.media.sample_aspect_den">1</property>
  <property name="kdenlive:original.aspect_ratio">1</property>
  <property name="kdenlive:original.format">3</property>
  <property name="kdenlive:original.audio_index">-1</property>
  <property name="kdenlive:original.video_index">0</property>
  <property name="kdenlive:original.mute_on_pause">0</property>
  <property name="kdenlive:original.mlt_service">avformat-novalidate</property>
  <property name="kdenlive:original.meta.media.frame_rate_num">60</property>
  <property name="kdenlive:original.meta.media.frame_rate_den">1</property>
  <property name="kdenlive:original.meta.media.colorspace">709</property>
  <property name="kdenlive:original.meta.media.color_trc">2</property>
  <property name="kdenlive:original.meta.media.has_b_frames">2</property>
  <property name="kdenlive:original.meta.media.width">3840</property>
  <property name="kdenlive:original.meta.media.height">2160</property>
  <property name="kdenlive:original.meta.media.color_range">mpeg</property>
  <property name="kdenlive:original.meta.media.top_field_first">0</property>
  <property name="kdenlive:original.meta.media.progressive">1</property>
  <property name="kdenlive:original.kdenlive:clip_type">2</property>
  <property name="kdenlive:original.kdenlive:folderid">653</property>
  <property name="kdenlive:original.kdenlive:id">666</property>
  <property name="kdenlive:original.kdenlive:file_size">127763</property>
  <property name="kdenlive:original.kdenlive:file_hash">137b906cf24546bbb74562f278c96af0</property>
  <property name="kdenlive:original.backup">1</property>
  <property name="meta.media.frame_rate_num">60</property>
  <property name="meta.media.frame_rate_den">1</property>
  <property name="meta.media.colorspace">601</property>
  <property name="meta.media.color_trc">2</property>
  <property name="meta.media.has_b_frames">0</property>
  <property name="meta.media.width">640</property>
  <property name="meta.media.height">360</property>
  <property name="meta.media.color_range">full</property>
  <property name="meta.media.top_field_first">0</property>
  <property name="meta.media.progressive">1</property>
 </producer>
 <producer id="producer464" in="00:00:00.000" out="00:00:00.983">
  <property name="length">60</property>
  <property name="eof">pause</property>
  <property name="resource">/home/xiaoxiae/.cache/kdenlive/proxy/ba36f1ba9fc7f9ba31abe3824886a4b8.mkv</property>
  <property name="meta.media.nb_streams">1</property>
  <property name="meta.media.0.stream.type">video</property>
  <property name="meta.media.0.stream.frame_rate">60</property>
  <property name="meta.media.0.stream.sample_aspect_ratio">0</property>
  <property name="meta.media.0.codec.width">640</property>
  <property name="meta.media.0.codec.height">360</property>
  <property name="meta.media.0.codec.rotate">0</property>
  <property name="meta.media.0.codec.pix_fmt">yuvj420p</property>
  <property name="meta.media.0.codec.sample_aspect_ratio">0</property>
  <property name="meta.media.0.codec.colorspace">601</property>
  <property name="meta.media.0.codec.name">mjpeg</property>
  <property name="meta.media.0.codec.long_name">MJPEG (Motion JPEG)</property>
  <property name="meta.media.0.codec.bit_rate">0</property>
  <property name="meta.attr.0.stream.HANDLER_NAME.markup">VideoHandler</property>
  <property name="meta.attr.0.stream.VENDOR_ID.markup">[0][0][0][0]</property>
  <property name="meta.attr.0.stream.ENCODER.markup">Lavc60.3.100 mjpeg</property>
  <property name="meta.attr.0.stream.DURATION.markup">00:00:01.000000000</property>
  <property name="meta.attr.COMMENT.markup">Rendered with Manim Community v0.17.2</property>
  <property name="meta.attr.MAJOR_BRAND.markup">isom</property>
  <property name="meta.attr.MINOR_VERSION.markup">512</property>
  <property name="meta.attr.COMPATIBLE_BRANDS.markup">isomiso2avc1mp41</property>
  <property name="meta.attr.ENCODER.markup">Lavf60.3.100</property>
  <property name="seekable">1</property>
  <property name="meta.media.sample_aspect_num">1</property>
  <property name="meta.media.sample_aspect_den">1</property>
  <property name="aspect_ratio">1</property>
  <property name="format">3</property>
  <property name="audio_index">-1</property>
  <property name="video_index">0</property>
  <property name="mute_on_pause">0</property>
  <property name="mlt_service">avformat-novalidate</property>
  <property name="kdenlive:clipname">21.mp4</property>
  <property name="kdenlive:clip_type">2</property>
  <property name="kdenlive:folderid">653</property>
  <property name="kdenlive:id">552</property>
  <property name="kdenlive:file_size">188463</property>
  <property name="kdenlive:file_hash">ba36f1ba9fc7f9ba31abe3824886a4b8</property>
  <property name="kdenlive:proxy">/home/xiaoxiae/.cache/kdenlive/proxy/ba36f1ba9fc7f9ba31abe3824886a4b8.mkv</property>
  <property name="kdenlive:originalurl">video/Deletion/21.mp4</property>
  <property name="kdenlive:original.mlt_type">producer</property>
  <property name="kdenlive:original.in">0</property>
  <property name="kdenlive:original.out">59</property>
  <property name="kdenlive:original.length">60</property>
  <property name="kdenlive:original.eof">pause</property>
  <property name="kdenlive:original.resource">video/Deletion/21.mp4</property>
  <property name="kdenlive:original.meta.media.nb_streams">1</property>
  <property name="kdenlive:original.meta.media.0.stream.type">video</property>
  <property name="kdenlive:original.meta.media.0.stream.frame_rate">60</property>
  <property name="kdenlive:original.meta.media.0.stream.sample_aspect_ratio">0</property>
  <property name="kdenlive:original.meta.media.0.codec.width">3840</property>
  <property name="kdenlive:original.meta.media.0.codec.height">2160</property>
  <property name="kdenlive:original.meta.media.0.codec.rotate">0</property>
  <property name="kdenlive:original.meta.media.0.codec.pix_fmt">yuv420p</property>
  <property name="kdenlive:original.meta.media.0.codec.sample_aspect_ratio">0</property>
  <property name="kdenlive:original.meta.media.0.codec.colorspace">709</property>
  <property name="kdenlive:original.meta.media.0.codec.name">h264</property>
  <property name="kdenlive:original.meta.media.0.codec.long_name">H.264 / AVC / MPEG-4 AVC / MPEG-4 part 10</property>
  <property name="kdenlive:original.meta.media.0.codec.bit_rate">1495552</property>
  <property name="kdenlive:original.meta.attr.0.stream.handler_name.markup">VideoHandler</property>
  <property name="kdenlive:original.meta.attr.0.stream.vendor_id.markup">[0][0][0][0]</property>
  <property name="kdenlive:original.meta.attr.0.stream.encoder.markup">Lavc60.3.100 libx264</property>
  <property name="kdenlive:original.meta.attr.major_brand.markup">isom</property>
  <property name="kdenlive:original.meta.attr.minor_version.markup">512</property>
  <property name="kdenlive:original.meta.attr.compatible_brands.markup">isomiso2avc1mp41</property>
  <property name="kdenlive:original.meta.attr.encoder.markup">Lavf60.3.100</property>
  <property name="kdenlive:original.meta.attr.comment.markup">Rendered with Manim Community v0.17.2</property>
  <property name="kdenlive:original.seekable">1</property>
  <property name="kdenlive:original.width">3840</property>
  <property name="kdenlive:original.height">2160</property>
  <property name="kdenlive:original.meta.media.sample_aspect_num">1</property>
  <property name="kdenlive:original.meta.media.sample_aspect_den">1</property>
  <property name="kdenlive:original.aspect_ratio">1</property>
  <property name="kdenlive:original.format">3</property>
  <property name="kdenlive:original.audio_index">-1</property>
  <property name="kdenlive:original.video_index">0</property>
  <property name="kdenlive:original.mute_on_pause">0</property>
  <property name="kdenlive:original.mlt_service">avformat-novalidate</property>
  <property name="kdenlive:original.meta.media.frame_rate_num">60</property>
  <property name="kdenlive:original.meta.media.frame_rate_den">1</property>
  <property name="kdenlive:original.meta.media.colorspace">709</property>
  <property name="kdenlive:original.meta.media.color_trc">2</property>
  <property name="kdenlive:original.meta.media.has_b_frames">2</property>
  <property name="kdenlive:original.meta.media.width">3840</property>
  <property name="kdenlive:original.meta.media.height">2160</property>
  <property name="kdenlive:original.meta.media.color_range">mpeg</property>
  <property name="kdenlive:original.meta.media.top_field_first">0</property>
  <property name="kdenlive:original.meta.media.progressive">1</property>
  <property name="kdenlive:original.kdenlive:clip_type">2</property>
  <property name="kdenlive:original.kdenlive:folderid">653</property>
  <property name="kdenlive:original.kdenlive:id">667</property>
  <property name="kdenlive:original.kdenlive:file_size">188463</property>
  <property name="kdenlive:original.kdenlive:file_hash">ba36f1ba9fc7f9ba31abe3824886a4b8</property>
  <property name="kdenlive:original.backup">1</property>
  <property name="meta.media.frame_rate_num">60</property>
  <property name="meta.media.frame_rate_den">1</property>
  <property name="meta.media.colorspace">601</property>
  <property name="meta.media.color_trc">2</property>
  <property name="meta.media.has_b_frames">0</property>
  <property name="meta.media.width">640</property>
  <property name="meta.media.height">360</property>
  <property name="meta.media.color_range">full</property>
  <property name="meta.media.top_field_first">0</property>
  <property name="meta.media.progressive">1</property>
 </producer>
 <producer id="producer463" in="00:00:00.000" out="00:00:00.983">
  <property name="length">60</property>
  <property name="eof">pause</property>
  <property name="resource">/home/xiaoxiae/.cache/kdenlive/proxy/f6627bae12d5bf56cb0e6fb882e48a0f.mkv</property>
  <property name="meta.media.nb_streams">1</property>
  <property name="meta.media.0.stream.type">video</property>
  <property name="meta.media.0.stream.frame_rate">60</property>
  <property name="meta.media.0.stream.sample_aspect_ratio">0</property>
  <property name="meta.media.0.codec.width">640</property>
  <property name="meta.media.0.codec.height">360</property>
  <property name="meta.media.0.codec.rotate">0</property>
  <property name="meta.media.0.codec.pix_fmt">yuvj420p</property>
  <property name="meta.media.0.codec.sample_aspect_ratio">0</property>
  <property name="meta.media.0.codec.colorspace">601</property>
  <property name="meta.media.0.codec.name">mjpeg</property>
  <property name="meta.media.0.codec.long_name">MJPEG (Motion JPEG)</property>
  <property name="meta.media.0.codec.bit_rate">0</property>
  <property name="meta.attr.0.stream.HANDLER_NAME.markup">VideoHandler</property>
  <property name="meta.attr.0.stream.VENDOR_ID.markup">[0][0][0][0]</property>
  <property name="meta.attr.0.stream.ENCODER.markup">Lavc60.3.100 mjpeg</property>
  <property name="meta.attr.0.stream.DURATION.markup">00:00:01.000000000</property>
  <property name="meta.attr.COMMENT.markup">Rendered with Manim Community v0.17.2</property>
  <property name="meta.attr.MAJOR_BRAND.markup">isom</property>
  <property name="meta.attr.MINOR_VERSION.markup">512</property>
  <property name="meta.attr.COMPATIBLE_BRANDS.markup">isomiso2avc1mp41</property>
  <property name="meta.attr.ENCODER.markup">Lavf60.3.100</property>
  <property name="seekable">1</property>
  <property name="meta.media.sample_aspect_num">1</property>
  <property name="meta.media.sample_aspect_den">1</property>
  <property name="aspect_ratio">1</property>
  <property name="format">3</property>
  <property name="audio_index">-1</property>
  <property name="video_index">0</property>
  <property name="mute_on_pause">0</property>
  <property name="mlt_service">avformat-novalidate</property>
  <property name="kdenlive:clipname">22.mp4</property>
  <property name="kdenlive:clip_type">2</property>
  <property name="kdenlive:folderid">653</property>
  <property name="kdenlive:id">553</property>
  <property name="kdenlive:file_size">76298</property>
  <property name="kdenlive:file_hash">f6627bae12d5bf56cb0e6fb882e48a0f</property>
  <property name="kdenlive:proxy">/home/xiaoxiae/.cache/kdenlive/proxy/f6627bae12d5bf56cb0e6fb882e48a0f.mkv</property>
  <property name="kdenlive:originalurl">video/Deletion/22.mp4</property>
  <property name="kdenlive:original.mlt_type">producer</property>
  <property name="kdenlive:original.in">0</property>
  <property name="kdenlive:original.out">59</property>
  <property name="kdenlive:original.length">60</property>
  <property name="kdenlive:original.eof">pause</property>
  <property name="kdenlive:original.resource">video/Deletion/22.mp4</property>
  <property name="kdenlive:original.meta.media.nb_streams">1</property>
  <property name="kdenlive:original.meta.media.0.stream.type">video</property>
  <property name="kdenlive:original.meta.media.0.stream.frame_rate">60</property>
  <property name="kdenlive:original.meta.media.0.stream.sample_aspect_ratio">0</property>
  <property name="kdenlive:original.meta.media.0.codec.width">3840</property>
  <property name="kdenlive:original.meta.media.0.codec.height">2160</property>
  <property name="kdenlive:original.meta.media.0.codec.rotate">0</property>
  <property name="kdenlive:original.meta.media.0.codec.pix_fmt">yuv420p</property>
  <property name="kdenlive:original.meta.media.0.codec.sample_aspect_ratio">0</property>
  <property name="kdenlive:original.meta.media.0.codec.colorspace">709</property>
  <property name="kdenlive:original.meta.media.0.codec.name">h264</property>
  <property name="kdenlive:original.meta.media.0.codec.long_name">H.264 / AVC / MPEG-4 AVC / MPEG-4 part 10</property>
  <property name="kdenlive:original.meta.media.0.codec.bit_rate">597336</property>
  <property name="kdenlive:original.meta.attr.0.stream.handler_name.markup">VideoHandler</property>
  <property name="kdenlive:original.meta.attr.0.stream.vendor_id.markup">[0][0][0][0]</property>
  <property name="kdenlive:original.meta.attr.0.stream.encoder.markup">Lavc60.3.100 libx264</property>
  <property name="kdenlive:original.meta.attr.major_brand.markup">isom</property>
  <property name="kdenlive:original.meta.attr.minor_version.markup">512</property>
  <property name="kdenlive:original.meta.attr.compatible_brands.markup">isomiso2avc1mp41</property>
  <property name="kdenlive:original.meta.attr.encoder.markup">Lavf60.3.100</property>
  <property name="kdenlive:original.meta.attr.comment.markup">Rendered with Manim Community v0.17.2</property>
  <property name="kdenlive:original.seekable">1</property>
  <property name="kdenlive:original.width">3840</property>
  <property name="kdenlive:original.height">2160</property>
  <property name="kdenlive:original.meta.media.sample_aspect_num">1</property>
  <property name="kdenlive:original.meta.media.sample_aspect_den">1</property>
  <property name="kdenlive:original.aspect_ratio">1</property>
  <property name="kdenlive:original.format">3</property>
  <property name="kdenlive:original.audio_index">-1</property>
  <property name="kdenlive:original.video_index">0</property>
  <property name="kdenlive:original.mute_on_pause">0</property>
  <property name="kdenlive:original.mlt_service">avformat-novalidate</property>
  <property name="kdenlive:original.meta.media.frame_rate_num">60</property>
  <property name="kdenlive:original.meta.media.frame_rate_den">1</property>
  <property name="kdenlive:original.meta.media.colorspace">709</property>
  <property name="kdenlive:original.meta.media.color_trc">2</property>
  <property name="kdenlive:original.meta.media.has_b_frames">2</property>
  <property name="kdenlive:original.meta.media.width">3840</property>
  <property name="kdenlive:original.meta.media.height">2160</property>
  <property name="kdenlive:original.meta.media.color_range">mpeg</property>
  <property name="kdenlive:original.meta.media.top_field_first">0</property>
  <property name="kdenlive:original.meta.media.progressive">1</property>
  <property name="kdenlive:original.kdenlive:clip_type">2</property>
  <property name="kdenlive:original.kdenlive:folderid">653</property>
  <property name="kdenlive:original.kdenlive:id">668</property>
  <property name="kdenlive:original.kdenlive:file_size">76298</property>
  <property name="kdenlive:original.kdenlive:file_hash">f6627bae12d5bf56cb0e6fb882e48a0f</property>
  <property name="kdenlive:original.backup">1</property>
  <property name="meta.media.frame_rate_num">60</property>
  <property name="meta.media.frame_rate_den">1</property>
  <property name="meta.media.colorspace">601</property>
  <property name="meta.media.color_trc">2</property>
  <property name="meta.media.has_b_frames">0</property>
  <property name="meta.media.width">640</property>
  <property name="meta.media.height">360</property>
  <property name="meta.media.color_range">full</property>
  <property name="meta.media.top_field_first">0</property>
  <property name="meta.media.progressive">1</property>
 </producer>
 <producer id="producer465" in="00:00:00.000" out="00:00:00.983">
  <property name="length">60</property>
  <property name="eof">pause</property>
  <property name="resource">/home/xiaoxiae/.cache/kdenlive/proxy/5f09cb9ebffcac60d8afeaa33979f526.mkv</property>
  <property name="meta.media.nb_streams">1</property>
  <property name="meta.media.0.stream.type">video</property>
  <property name="meta.media.0.stream.frame_rate">60</property>
  <property name="meta.media.0.stream.sample_aspect_ratio">0</property>
  <property name="meta.media.0.codec.width">640</property>
  <property name="meta.media.0.codec.height">360</property>
  <property name="meta.media.0.codec.rotate">0</property>
  <property name="meta.media.0.codec.pix_fmt">yuvj420p</property>
  <property name="meta.media.0.codec.sample_aspect_ratio">0</property>
  <property name="meta.media.0.codec.colorspace">601</property>
  <property name="meta.media.0.codec.name">mjpeg</property>
  <property name="meta.media.0.codec.long_name">MJPEG (Motion JPEG)</property>
  <property name="meta.media.0.codec.bit_rate">0</property>
  <property name="meta.attr.0.stream.HANDLER_NAME.markup">VideoHandler</property>
  <property name="meta.attr.0.stream.VENDOR_ID.markup">[0][0][0][0]</property>
  <property name="meta.attr.0.stream.ENCODER.markup">Lavc60.3.100 mjpeg</property>
  <property name="meta.attr.0.stream.DURATION.markup">00:00:01.000000000</property>
  <property name="meta.attr.COMMENT.markup">Rendered with Manim Community v0.17.2</property>
  <property name="meta.attr.MAJOR_BRAND.markup">isom</property>
  <property name="meta.attr.MINOR_VERSION.markup">512</property>
  <property name="meta.attr.COMPATIBLE_BRANDS.markup">isomiso2avc1mp41</property>
  <property name="meta.attr.ENCODER.markup">Lavf60.3.100</property>
  <property name="seekable">1</property>
  <property name="meta.media.sample_aspect_num">1</property>
  <property name="meta.media.sample_aspect_den">1</property>
  <property name="aspect_ratio">1</property>
  <property name="format">3</property>
  <property name="audio_index">-1</property>
  <property name="video_index">0</property>
  <property name="mute_on_pause">0</property>
  <property name="mlt_service">avformat-novalidate</property>
  <property name="kdenlive:clipname">23.mp4</property>
  <property name="kdenlive:clip_type">2</property>
  <property name="kdenlive:folderid">653</property>
  <property name="kdenlive:id">554</property>
  <property name="kdenlive:file_size">75385</property>
  <property name="kdenlive:file_hash">5f09cb9ebffcac60d8afeaa33979f526</property>
  <property name="kdenlive:proxy">/home/xiaoxiae/.cache/kdenlive/proxy/5f09cb9ebffcac60d8afeaa33979f526.mkv</property>
  <property name="kdenlive:originalurl">video/Deletion/23.mp4</property>
  <property name="kdenlive:original.mlt_type">producer</property>
  <property name="kdenlive:original.in">0</property>
  <property name="kdenlive:original.out">59</property>
  <property name="kdenlive:original.length">60</property>
  <property name="kdenlive:original.eof">pause</property>
  <property name="kdenlive:original.resource">video/Deletion/23.mp4</property>
  <property name="kdenlive:original.meta.media.nb_streams">1</property>
  <property name="kdenlive:original.meta.media.0.stream.type">video</property>
  <property name="kdenlive:original.meta.media.0.stream.frame_rate">60</property>
  <property name="kdenlive:original.meta.media.0.stream.sample_aspect_ratio">0</property>
  <property name="kdenlive:original.meta.media.0.codec.width">3840</property>
  <property name="kdenlive:original.meta.media.0.codec.height">2160</property>
  <property name="kdenlive:original.meta.media.0.codec.rotate">0</property>
  <property name="kdenlive:original.meta.media.0.codec.pix_fmt">yuv420p</property>
  <property name="kdenlive:original.meta.media.0.codec.sample_aspect_ratio">0</property>
  <property name="kdenlive:original.meta.media.0.codec.colorspace">709</property>
  <property name="kdenlive:original.meta.media.0.codec.name">h264</property>
  <property name="kdenlive:original.meta.media.0.codec.long_name">H.264 / AVC / MPEG-4 AVC / MPEG-4 part 10</property>
  <property name="kdenlive:original.meta.media.0.codec.bit_rate">590032</property>
  <property name="kdenlive:original.meta.attr.0.stream.handler_name.markup">VideoHandler</property>
  <property name="kdenlive:original.meta.attr.0.stream.vendor_id.markup">[0][0][0][0]</property>
  <property name="kdenlive:original.meta.attr.0.stream.encoder.markup">Lavc60.3.100 libx264</property>
  <property name="kdenlive:original.meta.attr.major_brand.markup">isom</property>
  <property name="kdenlive:original.meta.attr.minor_version.markup">512</property>
  <property name="kdenlive:original.meta.attr.compatible_brands.markup">isomiso2avc1mp41</property>
  <property name="kdenlive:original.meta.attr.encoder.markup">Lavf60.3.100</property>
  <property name="kdenlive:original.meta.attr.comment.markup">Rendered with Manim Community v0.17.2</property>
  <property name="kdenlive:original.seekable">1</property>
  <property name="kdenlive:original.width">3840</property>
  <property name="kdenlive:original.height">2160</property>
  <property name="kdenlive:original.meta.media.sample_aspect_num">1</property>
  <property name="kdenlive:original.meta.media.sample_aspect_den">1</property>
  <property name="kdenlive:original.aspect_ratio">1</property>
  <property name="kdenlive:original.format">3</property>
  <property name="kdenlive:original.audio_index">-1</property>
  <property name="kdenlive:original.video_index">0</property>
  <property name="kdenlive:original.mute_on_pause">0</property>
  <property name="kdenlive:original.mlt_service">avformat-novalidate</property>
  <property name="kdenlive:original.meta.media.frame_rate_num">60</property>
  <property name="kdenlive:original.meta.media.frame_rate_den">1</property>
  <property name="kdenlive:original.meta.media.colorspace">709</property>
  <property name="kdenlive:original.meta.media.color_trc">2</property>
  <property name="kdenlive:original.meta.media.has_b_frames">2</property>
  <property name="kdenlive:original.meta.media.width">3840</property>
  <property name="kdenlive:original.meta.media.height">2160</property>
  <property name="kdenlive:original.meta.media.color_range">mpeg</property>
  <property name="kdenlive:original.meta.media.top_field_first">0</property>
  <property name="kdenlive:original.meta.media.progressive">1</property>
  <property name="kdenlive:original.kdenlive:clip_type">2</property>
  <property name="kdenlive:original.kdenlive:folderid">653</property>
  <property name="kdenlive:original.kdenlive:id">669</property>
  <property name="kdenlive:original.kdenlive:file_size">75385</property>
  <property name="kdenlive:original.kdenlive:file_hash">5f09cb9ebffcac60d8afeaa33979f526</property>
  <property name="kdenlive:original.backup">1</property>
  <property name="meta.media.frame_rate_num">60</property>
  <property name="meta.media.frame_rate_den">1</property>
  <property name="meta.media.colorspace">601</property>
  <property name="meta.media.color_trc">2</property>
  <property name="meta.media.has_b_frames">0</property>
  <property name="meta.media.width">640</property>
  <property name="meta.media.height">360</property>
  <property name="meta.media.color_range">full</property>
  <property name="meta.media.top_field_first">0</property>
  <property name="meta.media.progressive">1</property>
 </producer>
 <producer id="producer466" in="00:00:00.000" out="00:00:00.983">
  <property name="length">60</property>
  <property name="eof">pause</property>
  <property name="resource">/home/xiaoxiae/.cache/kdenlive/proxy/0c6343ae02826ed05fc26e63a4814eea.mkv</property>
  <property name="meta.media.nb_streams">1</property>
  <property name="meta.media.0.stream.type">video</property>
  <property name="meta.media.0.stream.frame_rate">60</property>
  <property name="meta.media.0.stream.sample_aspect_ratio">0</property>
  <property name="meta.media.0.codec.width">640</property>
  <property name="meta.media.0.codec.height">360</property>
  <property name="meta.media.0.codec.rotate">0</property>
  <property name="meta.media.0.codec.pix_fmt">yuvj420p</property>
  <property name="meta.media.0.codec.sample_aspect_ratio">0</property>
  <property name="meta.media.0.codec.colorspace">601</property>
  <property name="meta.media.0.codec.name">mjpeg</property>
  <property name="meta.media.0.codec.long_name">MJPEG (Motion JPEG)</property>
  <property name="meta.media.0.codec.bit_rate">0</property>
  <property name="meta.attr.0.stream.HANDLER_NAME.markup">VideoHandler</property>
  <property name="meta.attr.0.stream.VENDOR_ID.markup">[0][0][0][0]</property>
  <property name="meta.attr.0.stream.ENCODER.markup">Lavc60.3.100 mjpeg</property>
  <property name="meta.attr.0.stream.DURATION.markup">00:00:01.000000000</property>
  <property name="meta.attr.COMMENT.markup">Rendered with Manim Community v0.17.2</property>
  <property name="meta.attr.MAJOR_BRAND.markup">isom</property>
  <property name="meta.attr.MINOR_VERSION.markup">512</property>
  <property name="meta.attr.COMPATIBLE_BRANDS.markup">isomiso2avc1mp41</property>
  <property name="meta.attr.ENCODER.markup">Lavf60.3.100</property>
  <property name="seekable">1</property>
  <property name="meta.media.sample_aspect_num">1</property>
  <property name="meta.media.sample_aspect_den">1</property>
  <property name="aspect_ratio">1</property>
  <property name="format">3</property>
  <property name="audio_index">-1</property>
  <property name="video_index">0</property>
  <property name="mute_on_pause">0</property>
  <property name="mlt_service">avformat-novalidate</property>
  <property name="kdenlive:clipname">24.mp4</property>
  <property name="kdenlive:clip_type">2</property>
  <property name="kdenlive:folderid">653</property>
  <property name="kdenlive:id">555</property>
  <property name="kdenlive:file_size">145977</property>
  <property name="kdenlive:file_hash">0c6343ae02826ed05fc26e63a4814eea</property>
  <property name="kdenlive:proxy">/home/xiaoxiae/.cache/kdenlive/proxy/0c6343ae02826ed05fc26e63a4814eea.mkv</property>
  <property name="kdenlive:originalurl">video/Deletion/24.mp4</property>
  <property name="kdenlive:original.mlt_type">producer</property>
  <property name="kdenlive:original.in">0</property>
  <property name="kdenlive:original.out">59</property>
  <property name="kdenlive:original.length">60</property>
  <property name="kdenlive:original.eof">pause</property>
  <property name="kdenlive:original.resource">video/Deletion/24.mp4</property>
  <property name="kdenlive:original.meta.media.nb_streams">1</property>
  <property name="kdenlive:original.meta.media.0.stream.type">video</property>
  <property name="kdenlive:original.meta.media.0.stream.frame_rate">60</property>
  <property name="kdenlive:original.meta.media.0.stream.sample_aspect_ratio">0</property>
  <property name="kdenlive:original.meta.media.0.codec.width">3840</property>
  <property name="kdenlive:original.meta.media.0.codec.height">2160</property>
  <property name="kdenlive:original.meta.media.0.codec.rotate">0</property>
  <property name="kdenlive:original.meta.media.0.codec.pix_fmt">yuv420p</property>
  <property name="kdenlive:original.meta.media.0.codec.sample_aspect_ratio">0</property>
  <property name="kdenlive:original.meta.media.0.codec.colorspace">709</property>
  <property name="kdenlive:original.meta.media.0.codec.name">h264</property>
  <property name="kdenlive:original.meta.media.0.codec.long_name">H.264 / AVC / MPEG-4 AVC / MPEG-4 part 10</property>
  <property name="kdenlive:original.meta.media.0.codec.bit_rate">1154896</property>
  <property name="kdenlive:original.meta.attr.0.stream.handler_name.markup">VideoHandler</property>
  <property name="kdenlive:original.meta.attr.0.stream.vendor_id.markup">[0][0][0][0]</property>
  <property name="kdenlive:original.meta.attr.0.stream.encoder.markup">Lavc60.3.100 libx264</property>
  <property name="kdenlive:original.meta.attr.major_brand.markup">isom</property>
  <property name="kdenlive:original.meta.attr.minor_version.markup">512</property>
  <property name="kdenlive:original.meta.attr.compatible_brands.markup">isomiso2avc1mp41</property>
  <property name="kdenlive:original.meta.attr.encoder.markup">Lavf60.3.100</property>
  <property name="kdenlive:original.meta.attr.comment.markup">Rendered with Manim Community v0.17.2</property>
  <property name="kdenlive:original.seekable">1</property>
  <property name="kdenlive:original.width">3840</property>
  <property name="kdenlive:original.height">2160</property>
  <property name="kdenlive:original.meta.media.sample_aspect_num">1</property>
  <property name="kdenlive:original.meta.media.sample_aspect_den">1</property>
  <property name="kdenlive:original.aspect_ratio">1</property>
  <property name="kdenlive:original.format">3</property>
  <property name="kdenlive:original.audio_index">-1</property>
  <property name="kdenlive:original.video_index">0</property>
  <property name="kdenlive:original.mute_on_pause">0</property>
  <property name="kdenlive:original.mlt_service">avformat-novalidate</property>
  <property name="kdenlive:original.meta.media.frame_rate_num">60</property>
  <property name="kdenlive:original.meta.media.frame_rate_den">1</property>
  <property name="kdenlive:original.meta.media.colorspace">709</property>
  <property name="kdenlive:original.meta.media.color_trc">2</property>
  <property name="kdenlive:original.meta.media.has_b_frames">2</property>
  <property name="kdenlive:original.meta.media.width">3840</property>
  <property name="kdenlive:original.meta.media.height">2160</property>
  <property name="kdenlive:original.meta.media.color_range">mpeg</property>
  <property name="kdenlive:original.meta.media.top_field_first">0</property>
  <property name="kdenlive:original.meta.media.progressive">1</property>
  <property name="kdenlive:original.kdenlive:clip_type">2</property>
  <property name="kdenlive:original.kdenlive:folderid">653</property>
  <property name="kdenlive:original.kdenlive:id">670</property>
  <property name="kdenlive:original.kdenlive:file_size">145977</property>
  <property name="kdenlive:original.kdenlive:file_hash">0c6343ae02826ed05fc26e63a4814eea</property>
  <property name="kdenlive:original.backup">1</property>
  <property name="meta.media.frame_rate_num">60</property>
  <property name="meta.media.frame_rate_den">1</property>
  <property name="meta.media.colorspace">601</property>
  <property name="meta.media.color_trc">2</property>
  <property name="meta.media.has_b_frames">0</property>
  <property name="meta.media.width">640</property>
  <property name="meta.media.height">360</property>
  <property name="meta.media.color_range">full</property>
  <property name="meta.media.top_field_first">0</property>
  <property name="meta.media.progressive">1</property>
 </producer>
 <producer id="producer467" in="00:00:00.000" out="00:00:00.983">
  <property name="length">60</property>
  <property name="eof">pause</property>
  <property name="resource">/home/xiaoxiae/.cache/kdenlive/proxy/d9a54ee586e6a85ae7aac8ccfa4f0a48.mkv</property>
  <property name="meta.media.nb_streams">1</property>
  <property name="meta.media.0.stream.type">video</property>
  <property name="meta.media.0.stream.frame_rate">60</property>
  <property name="meta.media.0.stream.sample_aspect_ratio">0</property>
  <property name="meta.media.0.codec.width">640</property>
  <property name="meta.media.0.codec.height">360</property>
  <property name="meta.media.0.codec.rotate">0</property>
  <property name="meta.media.0.codec.pix_fmt">yuvj420p</property>
  <property name="meta.media.0.codec.sample_aspect_ratio">0</property>
  <property name="meta.media.0.codec.colorspace">601</property>
  <property name="meta.media.0.codec.name">mjpeg</property>
  <property name="meta.media.0.codec.long_name">MJPEG (Motion JPEG)</property>
  <property name="meta.media.0.codec.bit_rate">0</property>
  <property name="meta.attr.0.stream.HANDLER_NAME.markup">VideoHandler</property>
  <property name="meta.attr.0.stream.VENDOR_ID.markup">[0][0][0][0]</property>
  <property name="meta.attr.0.stream.ENCODER.markup">Lavc60.3.100 mjpeg</property>
  <property name="meta.attr.0.stream.DURATION.markup">00:00:01.000000000</property>
  <property name="meta.attr.COMMENT.markup">Rendered with Manim Community v0.17.2</property>
  <property name="meta.attr.MAJOR_BRAND.markup">isom</property>
  <property name="meta.attr.MINOR_VERSION.markup">512</property>
  <property name="meta.attr.COMPATIBLE_BRANDS.markup">isomiso2avc1mp41</property>
  <property name="meta.attr.ENCODER.markup">Lavf60.3.100</property>
  <property name="seekable">1</property>
  <property name="meta.media.sample_aspect_num">1</property>
  <property name="meta.media.sample_aspect_den">1</property>
  <property name="aspect_ratio">1</property>
  <property name="format">3</property>
  <property name="audio_index">-1</property>
  <property name="video_index">0</property>
  <property name="mute_on_pause">0</property>
  <property name="mlt_service">avformat-novalidate</property>
  <property name="kdenlive:clipname">25.mp4</property>
  <property name="kdenlive:clip_type">2</property>
  <property name="kdenlive:folderid">653</property>
  <property name="kdenlive:id">556</property>
  <property name="kdenlive:file_size">101594</property>
  <property name="kdenlive:file_hash">d9a54ee586e6a85ae7aac8ccfa4f0a48</property>
  <property name="kdenlive:proxy">/home/xiaoxiae/.cache/kdenlive/proxy/d9a54ee586e6a85ae7aac8ccfa4f0a48.mkv</property>
  <property name="kdenlive:originalurl">video/Deletion/25.mp4</property>
  <property name="kdenlive:original.mlt_type">producer</property>
  <property name="kdenlive:original.in">0</property>
  <property name="kdenlive:original.out">59</property>
  <property name="kdenlive:original.length">60</property>
  <property name="kdenlive:original.eof">pause</property>
  <property name="kdenlive:original.resource">video/Deletion/25.mp4</property>
  <property name="kdenlive:original.meta.media.nb_streams">1</property>
  <property name="kdenlive:original.meta.media.0.stream.type">video</property>
  <property name="kdenlive:original.meta.media.0.stream.frame_rate">60</property>
  <property name="kdenlive:original.meta.media.0.stream.sample_aspect_ratio">0</property>
  <property name="kdenlive:original.meta.media.0.codec.width">3840</property>
  <property name="kdenlive:original.meta.media.0.codec.height">2160</property>
  <property name="kdenlive:original.meta.media.0.codec.rotate">0</property>
  <property name="kdenlive:original.meta.media.0.codec.pix_fmt">yuv420p</property>
  <property name="kdenlive:original.meta.media.0.codec.sample_aspect_ratio">0</property>
  <property name="kdenlive:original.meta.media.0.codec.colorspace">709</property>
  <property name="kdenlive:original.meta.media.0.codec.name">h264</property>
  <property name="kdenlive:original.meta.media.0.codec.long_name">H.264 / AVC / MPEG-4 AVC / MPEG-4 part 10</property>
  <property name="kdenlive:original.meta.media.0.codec.bit_rate">799640</property>
  <property name="kdenlive:original.meta.attr.0.stream.handler_name.markup">VideoHandler</property>
  <property name="kdenlive:original.meta.attr.0.stream.vendor_id.markup">[0][0][0][0]</property>
  <property name="kdenlive:original.meta.attr.0.stream.encoder.markup">Lavc60.3.100 libx264</property>
  <property name="kdenlive:original.meta.attr.major_brand.markup">isom</property>
  <property name="kdenlive:original.meta.attr.minor_version.markup">512</property>
  <property name="kdenlive:original.meta.attr.compatible_brands.markup">isomiso2avc1mp41</property>
  <property name="kdenlive:original.meta.attr.encoder.markup">Lavf60.3.100</property>
  <property name="kdenlive:original.meta.attr.comment.markup">Rendered with Manim Community v0.17.2</property>
  <property name="kdenlive:original.seekable">1</property>
  <property name="kdenlive:original.width">3840</property>
  <property name="kdenlive:original.height">2160</property>
  <property name="kdenlive:original.meta.media.sample_aspect_num">1</property>
  <property name="kdenlive:original.meta.media.sample_aspect_den">1</property>
  <property name="kdenlive:original.aspect_ratio">1</property>
  <property name="kdenlive:original.format">3</property>
  <property name="kdenlive:original.audio_index">-1</property>
  <property name="kdenlive:original.video_index">0</property>
  <property name="kdenlive:original.mute_on_pause">0</property>
  <property name="kdenlive:original.mlt_service">avformat-novalidate</property>
  <property name="kdenlive:original.meta.media.frame_rate_num">60</property>
  <property name="kdenlive:original.meta.media.frame_rate_den">1</property>
  <property name="kdenlive:original.meta.media.colorspace">709</property>
  <property name="kdenlive:original.meta.media.color_trc">2</property>
  <property name="kdenlive:original.meta.media.has_b_frames">2</property>
  <property name="kdenlive:original.meta.media.width">3840</property>
  <property name="kdenlive:original.meta.media.height">2160</property>
  <property name="kdenlive:original.meta.media.color_range">mpeg</property>
  <property name="kdenlive:original.meta.media.top_field_first">0</property>
  <property name="kdenlive:original.meta.media.progressive">1</property>
  <property name="kdenlive:original.kdenlive:clip_type">2</property>
  <property name="kdenlive:original.kdenlive:folderid">653</property>
  <property name="kdenlive:original.kdenlive:id">671</property>
  <property name="kdenlive:original.kdenlive:file_size">101594</property>
  <property name="kdenlive:original.kdenlive:file_hash">d9a54ee586e6a85ae7aac8ccfa4f0a48</property>
  <property name="kdenlive:original.backup">1</property>
  <property name="meta.media.frame_rate_num">60</property>
  <property name="meta.media.frame_rate_den">1</property>
  <property name="meta.media.colorspace">601</property>
  <property name="meta.media.color_trc">2</property>
  <property name="meta.media.has_b_frames">0</property>
  <property name="meta.media.width">640</property>
  <property name="meta.media.height">360</property>
  <property name="meta.media.color_range">full</property>
  <property name="meta.media.top_field_first">0</property>
  <property name="meta.media.progressive">1</property>
 </producer>
 <producer id="producer468" in="00:00:00.000" out="00:00:00.983">
  <property name="length">60</property>
  <property name="eof">pause</property>
  <property name="resource">/home/xiaoxiae/.cache/kdenlive/proxy/961e736a8269c16b9303c9aeb5df06ae.mkv</property>
  <property name="meta.media.nb_streams">1</property>
  <property name="meta.media.0.stream.type">video</property>
  <property name="meta.media.0.stream.frame_rate">60</property>
  <property name="meta.media.0.stream.sample_aspect_ratio">0</property>
  <property name="meta.media.0.codec.width">640</property>
  <property name="meta.media.0.codec.height">360</property>
  <property name="meta.media.0.codec.rotate">0</property>
  <property name="meta.media.0.codec.pix_fmt">yuvj420p</property>
  <property name="meta.media.0.codec.sample_aspect_ratio">0</property>
  <property name="meta.media.0.codec.colorspace">601</property>
  <property name="meta.media.0.codec.name">mjpeg</property>
  <property name="meta.media.0.codec.long_name">MJPEG (Motion JPEG)</property>
  <property name="meta.media.0.codec.bit_rate">0</property>
  <property name="meta.attr.0.stream.HANDLER_NAME.markup">VideoHandler</property>
  <property name="meta.attr.0.stream.VENDOR_ID.markup">[0][0][0][0]</property>
  <property name="meta.attr.0.stream.ENCODER.markup">Lavc60.3.100 mjpeg</property>
  <property name="meta.attr.0.stream.DURATION.markup">00:00:01.000000000</property>
  <property name="meta.attr.COMMENT.markup">Rendered with Manim Community v0.17.2</property>
  <property name="meta.attr.MAJOR_BRAND.markup">isom</property>
  <property name="meta.attr.MINOR_VERSION.markup">512</property>
  <property name="meta.attr.COMPATIBLE_BRANDS.markup">isomiso2avc1mp41</property>
  <property name="meta.attr.ENCODER.markup">Lavf60.3.100</property>
  <property name="seekable">1</property>
  <property name="meta.media.sample_aspect_num">1</property>
  <property name="meta.media.sample_aspect_den">1</property>
  <property name="aspect_ratio">1</property>
  <property name="format">3</property>
  <property name="audio_index">-1</property>
  <property name="video_index">0</property>
  <property name="mute_on_pause">0</property>
  <property name="mlt_service">avformat-novalidate</property>
  <property name="kdenlive:clipname">26.mp4</property>
  <property name="kdenlive:clip_type">2</property>
  <property name="kdenlive:folderid">653</property>
  <property name="kdenlive:id">557</property>
  <property name="kdenlive:file_size">61892</property>
  <property name="kdenlive:file_hash">961e736a8269c16b9303c9aeb5df06ae</property>
  <property name="kdenlive:proxy">/home/xiaoxiae/.cache/kdenlive/proxy/961e736a8269c16b9303c9aeb5df06ae.mkv</property>
  <property name="kdenlive:originalurl">video/Deletion/26.mp4</property>
  <property name="kdenlive:original.mlt_type">producer</property>
  <property name="kdenlive:original.in">0</property>
  <property name="kdenlive:original.out">59</property>
  <property name="kdenlive:original.length">60</property>
  <property name="kdenlive:original.eof">pause</property>
  <property name="kdenlive:original.resource">video/Deletion/26.mp4</property>
  <property name="kdenlive:original.meta.media.nb_streams">1</property>
  <property name="kdenlive:original.meta.media.0.stream.type">video</property>
  <property name="kdenlive:original.meta.media.0.stream.frame_rate">60</property>
  <property name="kdenlive:original.meta.media.0.stream.sample_aspect_ratio">0</property>
  <property name="kdenlive:original.meta.media.0.codec.width">3840</property>
  <property name="kdenlive:original.meta.media.0.codec.height">2160</property>
  <property name="kdenlive:original.meta.media.0.codec.rotate">0</property>
  <property name="kdenlive:original.meta.media.0.codec.pix_fmt">yuv420p</property>
  <property name="kdenlive:original.meta.media.0.codec.sample_aspect_ratio">0</property>
  <property name="kdenlive:original.meta.media.0.codec.colorspace">709</property>
  <property name="kdenlive:original.meta.media.0.codec.name">h264</property>
  <property name="kdenlive:original.meta.media.0.codec.long_name">H.264 / AVC / MPEG-4 AVC / MPEG-4 part 10</property>
  <property name="kdenlive:original.meta.media.0.codec.bit_rate">482088</property>
  <property name="kdenlive:original.meta.attr.0.stream.handler_name.markup">VideoHandler</property>
  <property name="kdenlive:original.meta.attr.0.stream.vendor_id.markup">[0][0][0][0]</property>
  <property name="kdenlive:original.meta.attr.0.stream.encoder.markup">Lavc60.3.100 libx264</property>
  <property name="kdenlive:original.meta.attr.major_brand.markup">isom</property>
  <property name="kdenlive:original.meta.attr.minor_version.markup">512</property>
  <property name="kdenlive:original.meta.attr.compatible_brands.markup">isomiso2avc1mp41</property>
  <property name="kdenlive:original.meta.attr.encoder.markup">Lavf60.3.100</property>
  <property name="kdenlive:original.meta.attr.comment.markup">Rendered with Manim Community v0.17.2</property>
  <property name="kdenlive:original.seekable">1</property>
  <property name="kdenlive:original.width">3840</property>
  <property name="kdenlive:original.height">2160</property>
  <property name="kdenlive:original.meta.media.sample_aspect_num">1</property>
  <property name="kdenlive:original.meta.media.sample_aspect_den">1</property>
  <property name="kdenlive:original.aspect_ratio">1</property>
  <property name="kdenlive:original.format">3</property>
  <property name="kdenlive:original.audio_index">-1</property>
  <property name="kdenlive:original.video_index">0</property>
  <property name="kdenlive:original.mute_on_pause">0</property>
  <property name="kdenlive:original.mlt_service">avformat-novalidate</property>
  <property name="kdenlive:original.meta.media.frame_rate_num">60</property>
  <property name="kdenlive:original.meta.media.frame_rate_den">1</property>
  <property name="kdenlive:original.meta.media.colorspace">709</property>
  <property name="kdenlive:original.meta.media.color_trc">2</property>
  <property name="kdenlive:original.meta.media.has_b_frames">2</property>
  <property name="kdenlive:original.meta.media.width">3840</property>
  <property name="kdenlive:original.meta.media.height">2160</property>
  <property name="kdenlive:original.meta.media.color_range">mpeg</property>
  <property name="kdenlive:original.meta.media.top_field_first">0</property>
  <property name="kdenlive:original.meta.media.progressive">1</property>
  <property name="kdenlive:original.kdenlive:clip_type">2</property>
  <property name="kdenlive:original.kdenlive:folderid">653</property>
  <property name="kdenlive:original.kdenlive:id">672</property>
  <property name="kdenlive:original.kdenlive:file_size">61892</property>
  <property name="kdenlive:original.kdenlive:file_hash">961e736a8269c16b9303c9aeb5df06ae</property>
  <property name="kdenlive:original.backup">1</property>
  <property name="meta.media.frame_rate_num">60</property>
  <property name="meta.media.frame_rate_den">1</property>
  <property name="meta.media.colorspace">601</property>
  <property name="meta.media.color_trc">2</property>
  <property name="meta.media.has_b_frames">0</property>
  <property name="meta.media.width">640</property>
  <property name="meta.media.height">360</property>
  <property name="meta.media.color_range">full</property>
  <property name="meta.media.top_field_first">0</property>
  <property name="meta.media.progressive">1</property>
 </producer>
 <producer id="producer469" in="00:00:00.000" out="00:00:00.983">
  <property name="length">60</property>
  <property name="eof">pause</property>
  <property name="resource">/home/xiaoxiae/.cache/kdenlive/proxy/ebbcce4c22e814accb12eb044c51000e.mkv</property>
  <property name="meta.media.nb_streams">1</property>
  <property name="meta.media.0.stream.type">video</property>
  <property name="meta.media.0.stream.frame_rate">60</property>
  <property name="meta.media.0.stream.sample_aspect_ratio">0</property>
  <property name="meta.media.0.codec.width">640</property>
  <property name="meta.media.0.codec.height">360</property>
  <property name="meta.media.0.codec.rotate">0</property>
  <property name="meta.media.0.codec.pix_fmt">yuvj420p</property>
  <property name="meta.media.0.codec.sample_aspect_ratio">0</property>
  <property name="meta.media.0.codec.colorspace">601</property>
  <property name="meta.media.0.codec.name">mjpeg</property>
  <property name="meta.media.0.codec.long_name">MJPEG (Motion JPEG)</property>
  <property name="meta.media.0.codec.bit_rate">0</property>
  <property name="meta.attr.0.stream.HANDLER_NAME.markup">VideoHandler</property>
  <property name="meta.attr.0.stream.VENDOR_ID.markup">[0][0][0][0]</property>
  <property name="meta.attr.0.stream.ENCODER.markup">Lavc60.3.100 mjpeg</property>
  <property name="meta.attr.0.stream.DURATION.markup">00:00:01.000000000</property>
  <property name="meta.attr.COMMENT.markup">Rendered with Manim Community v0.17.2</property>
  <property name="meta.attr.MAJOR_BRAND.markup">isom</property>
  <property name="meta.attr.MINOR_VERSION.markup">512</property>
  <property name="meta.attr.COMPATIBLE_BRANDS.markup">isomiso2avc1mp41</property>
  <property name="meta.attr.ENCODER.markup">Lavf60.3.100</property>
  <property name="seekable">1</property>
  <property name="meta.media.sample_aspect_num">1</property>
  <property name="meta.media.sample_aspect_den">1</property>
  <property name="aspect_ratio">1</property>
  <property name="format">3</property>
  <property name="audio_index">-1</property>
  <property name="video_index">0</property>
  <property name="mute_on_pause">0</property>
  <property name="mlt_service">avformat-novalidate</property>
  <property name="kdenlive:clipname">27.mp4</property>
  <property name="kdenlive:clip_type">2</property>
  <property name="kdenlive:folderid">653</property>
  <property name="kdenlive:id">558</property>
  <property name="kdenlive:file_size">119686</property>
  <property name="kdenlive:file_hash">ebbcce4c22e814accb12eb044c51000e</property>
  <property name="kdenlive:proxy">/home/xiaoxiae/.cache/kdenlive/proxy/ebbcce4c22e814accb12eb044c51000e.mkv</property>
  <property name="kdenlive:originalurl">video/Deletion/27.mp4</property>
  <property name="kdenlive:original.mlt_type">producer</property>
  <property name="kdenlive:original.in">0</property>
  <property name="kdenlive:original.out">59</property>
  <property name="kdenlive:original.length">60</property>
  <property name="kdenlive:original.eof">pause</property>
  <property name="kdenlive:original.resource">video/Deletion/27.mp4</property>
  <property name="kdenlive:original.meta.media.nb_streams">1</property>
  <property name="kdenlive:original.meta.media.0.stream.type">video</property>
  <property name="kdenlive:original.meta.media.0.stream.frame_rate">60</property>
  <property name="kdenlive:original.meta.media.0.stream.sample_aspect_ratio">0</property>
  <property name="kdenlive:original.meta.media.0.codec.width">3840</property>
  <property name="kdenlive:original.meta.media.0.codec.height">2160</property>
  <property name="kdenlive:original.meta.media.0.codec.rotate">0</property>
  <property name="kdenlive:original.meta.media.0.codec.pix_fmt">yuv420p</property>
  <property name="kdenlive:original.meta.media.0.codec.sample_aspect_ratio">0</property>
  <property name="kdenlive:original.meta.media.0.codec.colorspace">709</property>
  <property name="kdenlive:original.meta.media.0.codec.name">h264</property>
  <property name="kdenlive:original.meta.media.0.codec.long_name">H.264 / AVC / MPEG-4 AVC / MPEG-4 part 10</property>
  <property name="kdenlive:original.meta.media.0.codec.bit_rate">944440</property>
  <property name="kdenlive:original.meta.attr.0.stream.handler_name.markup">VideoHandler</property>
  <property name="kdenlive:original.meta.attr.0.stream.vendor_id.markup">[0][0][0][0]</property>
  <property name="kdenlive:original.meta.attr.0.stream.encoder.markup">Lavc60.3.100 libx264</property>
  <property name="kdenlive:original.meta.attr.major_brand.markup">isom</property>
  <property name="kdenlive:original.meta.attr.minor_version.markup">512</property>
  <property name="kdenlive:original.meta.attr.compatible_brands.markup">isomiso2avc1mp41</property>
  <property name="kdenlive:original.meta.attr.encoder.markup">Lavf60.3.100</property>
  <property name="kdenlive:original.meta.attr.comment.markup">Rendered with Manim Community v0.17.2</property>
  <property name="kdenlive:original.seekable">1</property>
  <property name="kdenlive:original.width">3840</property>
  <property name="kdenlive:original.height">2160</property>
  <property name="kdenlive:original.meta.media.sample_aspect_num">1</property>
  <property name="kdenlive:original.meta.media.sample_aspect_den">1</property>
  <property name="kdenlive:original.aspect_ratio">1</property>
  <property name="kdenlive:original.format">3</property>
  <property name="kdenlive:original.audio_index">-1</property>
  <property name="kdenlive:original.video_index">0</property>
  <property name="kdenlive:original.mute_on_pause">0</property>
  <property name="kdenlive:original.mlt_service">avformat-novalidate</property>
  <property name="kdenlive:original.meta.media.frame_rate_num">60</property>
  <property name="kdenlive:original.meta.media.frame_rate_den">1</property>
  <property name="kdenlive:original.meta.media.colorspace">709</property>
  <property name="kdenlive:original.meta.media.color_trc">2</property>
  <property name="kdenlive:original.meta.media.has_b_frames">2</property>
  <property name="kdenlive:original.meta.media.width">3840</property>
  <property name="kdenlive:original.meta.media.height">2160</property>
  <property name="kdenlive:original.meta.media.color_range">mpeg</property>
  <property name="kdenlive:original.meta.media.top_field_first">0</property>
  <property name="kdenlive:original.meta.media.progressive">1</property>
  <property name="kdenlive:original.kdenlive:clip_type">2</property>
  <property name="kdenlive:original.kdenlive:folderid">653</property>
  <property name="kdenlive:original.kdenlive:id">673</property>
  <property name="kdenlive:original.kdenlive:file_size">119686</property>
  <property name="kdenlive:original.kdenlive:file_hash">ebbcce4c22e814accb12eb044c51000e</property>
  <property name="kdenlive:original.backup">1</property>
  <property name="meta.media.frame_rate_num">60</property>
  <property name="meta.media.frame_rate_den">1</property>
  <property name="meta.media.colorspace">601</property>
  <property name="meta.media.color_trc">2</property>
  <property name="meta.media.has_b_frames">0</property>
  <property name="meta.media.width">640</property>
  <property name="meta.media.height">360</property>
  <property name="meta.media.color_range">full</property>
  <property name="meta.media.top_field_first">0</property>
  <property name="meta.media.progressive">1</property>
 </producer>
 <producer id="producer470" in="00:00:00.000" out="00:00:00.983">
  <property name="length">60</property>
  <property name="eof">pause</property>
  <property name="resource">/home/xiaoxiae/.cache/kdenlive/proxy/6c58776caff5177799d7d0e319f4f81c.mkv</property>
  <property name="meta.media.nb_streams">1</property>
  <property name="meta.media.0.stream.type">video</property>
  <property name="meta.media.0.stream.frame_rate">60</property>
  <property name="meta.media.0.stream.sample_aspect_ratio">0</property>
  <property name="meta.media.0.codec.width">640</property>
  <property name="meta.media.0.codec.height">360</property>
  <property name="meta.media.0.codec.rotate">0</property>
  <property name="meta.media.0.codec.pix_fmt">yuvj420p</property>
  <property name="meta.media.0.codec.sample_aspect_ratio">0</property>
  <property name="meta.media.0.codec.colorspace">601</property>
  <property name="meta.media.0.codec.name">mjpeg</property>
  <property name="meta.media.0.codec.long_name">MJPEG (Motion JPEG)</property>
  <property name="meta.media.0.codec.bit_rate">0</property>
  <property name="meta.attr.0.stream.HANDLER_NAME.markup">VideoHandler</property>
  <property name="meta.attr.0.stream.VENDOR_ID.markup">[0][0][0][0]</property>
  <property name="meta.attr.0.stream.ENCODER.markup">Lavc60.3.100 mjpeg</property>
  <property name="meta.attr.0.stream.DURATION.markup">00:00:01.000000000</property>
  <property name="meta.attr.COMMENT.markup">Rendered with Manim Community v0.17.2</property>
  <property name="meta.attr.MAJOR_BRAND.markup">isom</property>
  <property name="meta.attr.MINOR_VERSION.markup">512</property>
  <property name="meta.attr.COMPATIBLE_BRANDS.markup">isomiso2avc1mp41</property>
  <property name="meta.attr.ENCODER.markup">Lavf60.3.100</property>
  <property name="seekable">1</property>
  <property name="meta.media.sample_aspect_num">1</property>
  <property name="meta.media.sample_aspect_den">1</property>
  <property name="aspect_ratio">1</property>
  <property name="format">3</property>
  <property name="audio_index">-1</property>
  <property name="video_index">0</property>
  <property name="mute_on_pause">0</property>
  <property name="mlt_service">avformat-novalidate</property>
  <property name="kdenlive:clipname">28.mp4</property>
  <property name="kdenlive:clip_type">2</property>
  <property name="kdenlive:folderid">653</property>
  <property name="kdenlive:id">559</property>
  <property name="kdenlive:file_size">72583</property>
  <property name="kdenlive:file_hash">6c58776caff5177799d7d0e319f4f81c</property>
  <property name="kdenlive:proxy">/home/xiaoxiae/.cache/kdenlive/proxy/6c58776caff5177799d7d0e319f4f81c.mkv</property>
  <property name="kdenlive:originalurl">video/Deletion/28.mp4</property>
  <property name="kdenlive:original.mlt_type">producer</property>
  <property name="kdenlive:original.in">0</property>
  <property name="kdenlive:original.out">59</property>
  <property name="kdenlive:original.length">60</property>
  <property name="kdenlive:original.eof">pause</property>
  <property name="kdenlive:original.resource">video/Deletion/28.mp4</property>
  <property name="kdenlive:original.meta.media.nb_streams">1</property>
  <property name="kdenlive:original.meta.media.0.stream.type">video</property>
  <property name="kdenlive:original.meta.media.0.stream.frame_rate">60</property>
  <property name="kdenlive:original.meta.media.0.stream.sample_aspect_ratio">0</property>
  <property name="kdenlive:original.meta.media.0.codec.width">3840</property>
  <property name="kdenlive:original.meta.media.0.codec.height">2160</property>
  <property name="kdenlive:original.meta.media.0.codec.rotate">0</property>
  <property name="kdenlive:original.meta.media.0.codec.pix_fmt">yuv420p</property>
  <property name="kdenlive:original.meta.media.0.codec.sample_aspect_ratio">0</property>
  <property name="kdenlive:original.meta.media.0.codec.colorspace">709</property>
  <property name="kdenlive:original.meta.media.0.codec.name">h264</property>
  <property name="kdenlive:original.meta.media.0.codec.long_name">H.264 / AVC / MPEG-4 AVC / MPEG-4 part 10</property>
  <property name="kdenlive:original.meta.media.0.codec.bit_rate">567616</property>
  <property name="kdenlive:original.meta.attr.0.stream.handler_name.markup">VideoHandler</property>
  <property name="kdenlive:original.meta.attr.0.stream.vendor_id.markup">[0][0][0][0]</property>
  <property name="kdenlive:original.meta.attr.0.stream.encoder.markup">Lavc60.3.100 libx264</property>
  <property name="kdenlive:original.meta.attr.major_brand.markup">isom</property>
  <property name="kdenlive:original.meta.attr.minor_version.markup">512</property>
  <property name="kdenlive:original.meta.attr.compatible_brands.markup">isomiso2avc1mp41</property>
  <property name="kdenlive:original.meta.attr.encoder.markup">Lavf60.3.100</property>
  <property name="kdenlive:original.meta.attr.comment.markup">Rendered with Manim Community v0.17.2</property>
  <property name="kdenlive:original.seekable">1</property>
  <property name="kdenlive:original.width">3840</property>
  <property name="kdenlive:original.height">2160</property>
  <property name="kdenlive:original.meta.media.sample_aspect_num">1</property>
  <property name="kdenlive:original.meta.media.sample_aspect_den">1</property>
  <property name="kdenlive:original.aspect_ratio">1</property>
  <property name="kdenlive:original.format">3</property>
  <property name="kdenlive:original.audio_index">-1</property>
  <property name="kdenlive:original.video_index">0</property>
  <property name="kdenlive:original.mute_on_pause">0</property>
  <property name="kdenlive:original.mlt_service">avformat-novalidate</property>
  <property name="kdenlive:original.meta.media.frame_rate_num">60</property>
  <property name="kdenlive:original.meta.media.frame_rate_den">1</property>
  <property name="kdenlive:original.meta.media.colorspace">709</property>
  <property name="kdenlive:original.meta.media.color_trc">2</property>
  <property name="kdenlive:original.meta.media.has_b_frames">2</property>
  <property name="kdenlive:original.meta.media.width">3840</property>
  <property name="kdenlive:original.meta.media.height">2160</property>
  <property name="kdenlive:original.meta.media.color_range">mpeg</property>
  <property name="kdenlive:original.meta.media.top_field_first">0</property>
  <property name="kdenlive:original.meta.media.progressive">1</property>
  <property name="kdenlive:original.kdenlive:clip_type">2</property>
  <property name="kdenlive:original.kdenlive:folderid">653</property>
  <property name="kdenlive:original.kdenlive:id">674</property>
  <property name="kdenlive:original.kdenlive:file_size">72583</property>
  <property name="kdenlive:original.kdenlive:file_hash">6c58776caff5177799d7d0e319f4f81c</property>
  <property name="kdenlive:original.backup">1</property>
  <property name="meta.media.frame_rate_num">60</property>
  <property name="meta.media.frame_rate_den">1</property>
  <property name="meta.media.colorspace">601</property>
  <property name="meta.media.color_trc">2</property>
  <property name="meta.media.has_b_frames">0</property>
  <property name="meta.media.width">640</property>
  <property name="meta.media.height">360</property>
  <property name="meta.media.color_range">full</property>
  <property name="meta.media.top_field_first">0</property>
  <property name="meta.media.progressive">1</property>
 </producer>
 <producer id="producer471" in="00:00:00.000" out="00:00:00.983">
  <property name="length">60</property>
  <property name="eof">pause</property>
  <property name="resource">/home/xiaoxiae/.cache/kdenlive/proxy/8a23e6d2beabbb78110c62a5eedaf18c.mkv</property>
  <property name="meta.media.nb_streams">1</property>
  <property name="meta.media.0.stream.type">video</property>
  <property name="meta.media.0.stream.frame_rate">60</property>
  <property name="meta.media.0.stream.sample_aspect_ratio">0</property>
  <property name="meta.media.0.codec.width">640</property>
  <property name="meta.media.0.codec.height">360</property>
  <property name="meta.media.0.codec.rotate">0</property>
  <property name="meta.media.0.codec.pix_fmt">yuvj420p</property>
  <property name="meta.media.0.codec.sample_aspect_ratio">0</property>
  <property name="meta.media.0.codec.colorspace">601</property>
  <property name="meta.media.0.codec.name">mjpeg</property>
  <property name="meta.media.0.codec.long_name">MJPEG (Motion JPEG)</property>
  <property name="meta.media.0.codec.bit_rate">0</property>
  <property name="meta.attr.0.stream.HANDLER_NAME.markup">VideoHandler</property>
  <property name="meta.attr.0.stream.VENDOR_ID.markup">[0][0][0][0]</property>
  <property name="meta.attr.0.stream.ENCODER.markup">Lavc60.3.100 mjpeg</property>
  <property name="meta.attr.0.stream.DURATION.markup">00:00:01.000000000</property>
  <property name="meta.attr.COMMENT.markup">Rendered with Manim Community v0.17.2</property>
  <property name="meta.attr.MAJOR_BRAND.markup">isom</property>
  <property name="meta.attr.MINOR_VERSION.markup">512</property>
  <property name="meta.attr.COMPATIBLE_BRANDS.markup">isomiso2avc1mp41</property>
  <property name="meta.attr.ENCODER.markup">Lavf60.3.100</property>
  <property name="seekable">1</property>
  <property name="meta.media.sample_aspect_num">1</property>
  <property name="meta.media.sample_aspect_den">1</property>
  <property name="aspect_ratio">1</property>
  <property name="format">3</property>
  <property name="audio_index">-1</property>
  <property name="video_index">0</property>
  <property name="mute_on_pause">0</property>
  <property name="mlt_service">avformat-novalidate</property>
  <property name="kdenlive:clipname">29.mp4</property>
  <property name="kdenlive:clip_type">2</property>
  <property name="kdenlive:folderid">653</property>
  <property name="kdenlive:id">560</property>
  <property name="kdenlive:file_size">91600</property>
  <property name="kdenlive:file_hash">8a23e6d2beabbb78110c62a5eedaf18c</property>
  <property name="kdenlive:proxy">/home/xiaoxiae/.cache/kdenlive/proxy/8a23e6d2beabbb78110c62a5eedaf18c.mkv</property>
  <property name="kdenlive:originalurl">video/Deletion/29.mp4</property>
  <property name="kdenlive:original.mlt_type">producer</property>
  <property name="kdenlive:original.in">0</property>
  <property name="kdenlive:original.out">59</property>
  <property name="kdenlive:original.length">60</property>
  <property name="kdenlive:original.eof">pause</property>
  <property name="kdenlive:original.resource">video/Deletion/29.mp4</property>
  <property name="kdenlive:original.meta.media.nb_streams">1</property>
  <property name="kdenlive:original.meta.media.0.stream.type">video</property>
  <property name="kdenlive:original.meta.media.0.stream.frame_rate">60</property>
  <property name="kdenlive:original.meta.media.0.stream.sample_aspect_ratio">0</property>
  <property name="kdenlive:original.meta.media.0.codec.width">3840</property>
  <property name="kdenlive:original.meta.media.0.codec.height">2160</property>
  <property name="kdenlive:original.meta.media.0.codec.rotate">0</property>
  <property name="kdenlive:original.meta.media.0.codec.pix_fmt">yuv420p</property>
  <property name="kdenlive:original.meta.media.0.codec.sample_aspect_ratio">0</property>
  <property name="kdenlive:original.meta.media.0.codec.colorspace">709</property>
  <property name="kdenlive:original.meta.media.0.codec.name">h264</property>
  <property name="kdenlive:original.meta.media.0.codec.long_name">H.264 / AVC / MPEG-4 AVC / MPEG-4 part 10</property>
  <property name="kdenlive:original.meta.media.0.codec.bit_rate">719880</property>
  <property name="kdenlive:original.meta.attr.0.stream.handler_name.markup">VideoHandler</property>
  <property name="kdenlive:original.meta.attr.0.stream.vendor_id.markup">[0][0][0][0]</property>
  <property name="kdenlive:original.meta.attr.0.stream.encoder.markup">Lavc60.3.100 libx264</property>
  <property name="kdenlive:original.meta.attr.major_brand.markup">isom</property>
  <property name="kdenlive:original.meta.attr.minor_version.markup">512</property>
  <property name="kdenlive:original.meta.attr.compatible_brands.markup">isomiso2avc1mp41</property>
  <property name="kdenlive:original.meta.attr.encoder.markup">Lavf60.3.100</property>
  <property name="kdenlive:original.meta.attr.comment.markup">Rendered with Manim Community v0.17.2</property>
  <property name="kdenlive:original.seekable">1</property>
  <property name="kdenlive:original.width">3840</property>
  <property name="kdenlive:original.height">2160</property>
  <property name="kdenlive:original.meta.media.sample_aspect_num">1</property>
  <property name="kdenlive:original.meta.media.sample_aspect_den">1</property>
  <property name="kdenlive:original.aspect_ratio">1</property>
  <property name="kdenlive:original.format">3</property>
  <property name="kdenlive:original.audio_index">-1</property>
  <property name="kdenlive:original.video_index">0</property>
  <property name="kdenlive:original.mute_on_pause">0</property>
  <property name="kdenlive:original.mlt_service">avformat-novalidate</property>
  <property name="kdenlive:original.meta.media.frame_rate_num">60</property>
  <property name="kdenlive:original.meta.media.frame_rate_den">1</property>
  <property name="kdenlive:original.meta.media.colorspace">709</property>
  <property name="kdenlive:original.meta.media.color_trc">2</property>
  <property name="kdenlive:original.meta.media.has_b_frames">2</property>
  <property name="kdenlive:original.meta.media.width">3840</property>
  <property name="kdenlive:original.meta.media.height">2160</property>
  <property name="kdenlive:original.meta.media.color_range">mpeg</property>
  <property name="kdenlive:original.meta.media.top_field_first">0</property>
  <property name="kdenlive:original.meta.media.progressive">1</property>
  <property name="kdenlive:original.kdenlive:clip_type">2</property>
  <property name="kdenlive:original.kdenlive:folderid">653</property>
  <property name="kdenlive:original.kdenlive:id">675</property>
  <property name="kdenlive:original.kdenlive:file_size">91600</property>
  <property name="kdenlive:original.kdenlive:file_hash">8a23e6d2beabbb78110c62a5eedaf18c</property>
  <property name="kdenlive:original.backup">1</property>
  <property name="meta.media.frame_rate_num">60</property>
  <property name="meta.media.frame_rate_den">1</property>
  <property name="meta.media.colorspace">601</property>
  <property name="meta.media.color_trc">2</property>
  <property name="meta.media.has_b_frames">0</property>
  <property name="meta.media.width">640</property>
  <property name="meta.media.height">360</property>
  <property name="meta.media.color_range">full</property>
  <property name="meta.media.top_field_first">0</property>
  <property name="meta.media.progressive">1</property>
 </producer>
 <producer id="producer472" in="00:00:00.000" out="00:00:00.183">
  <property name="length">12</property>
  <property name="eof">pause</property>
  <property name="resource">/home/xiaoxiae/.cache/kdenlive/proxy/b26a92282e95ad779fe1c0b71b596c60.mkv</property>
  <property name="meta.media.nb_streams">1</property>
  <property name="meta.media.0.stream.type">video</property>
  <property name="meta.media.0.stream.frame_rate">60</property>
  <property name="meta.media.0.stream.sample_aspect_ratio">0</property>
  <property name="meta.media.0.codec.width">640</property>
  <property name="meta.media.0.codec.height">360</property>
  <property name="meta.media.0.codec.rotate">0</property>
  <property name="meta.media.0.codec.pix_fmt">yuvj420p</property>
  <property name="meta.media.0.codec.sample_aspect_ratio">0</property>
  <property name="meta.media.0.codec.colorspace">601</property>
  <property name="meta.media.0.codec.name">mjpeg</property>
  <property name="meta.media.0.codec.long_name">MJPEG (Motion JPEG)</property>
  <property name="meta.media.0.codec.bit_rate">0</property>
  <property name="meta.attr.0.stream.HANDLER_NAME.markup">VideoHandler</property>
  <property name="meta.attr.0.stream.VENDOR_ID.markup">[0][0][0][0]</property>
  <property name="meta.attr.0.stream.ENCODER.markup">Lavc60.3.100 mjpeg</property>
  <property name="meta.attr.0.stream.DURATION.markup">00:00:00.200000000</property>
  <property name="meta.attr.COMMENT.markup">Rendered with Manim Community v0.17.2</property>
  <property name="meta.attr.MAJOR_BRAND.markup">isom</property>
  <property name="meta.attr.MINOR_VERSION.markup">512</property>
  <property name="meta.attr.COMPATIBLE_BRANDS.markup">isomiso2avc1mp41</property>
  <property name="meta.attr.ENCODER.markup">Lavf60.3.100</property>
  <property name="seekable">1</property>
  <property name="meta.media.sample_aspect_num">1</property>
  <property name="meta.media.sample_aspect_den">1</property>
  <property name="aspect_ratio">1</property>
  <property name="format">3</property>
  <property name="audio_index">-1</property>
  <property name="video_index">0</property>
  <property name="mute_on_pause">0</property>
  <property name="mlt_service">avformat-novalidate</property>
  <property name="kdenlive:clipname">3.mp4</property>
  <property name="kdenlive:clip_type">2</property>
  <property name="kdenlive:folderid">653</property>
  <property name="kdenlive:id">561</property>
  <property name="kdenlive:file_size">50521</property>
  <property name="kdenlive:file_hash">b26a92282e95ad779fe1c0b71b596c60</property>
  <property name="kdenlive:proxy">/home/xiaoxiae/.cache/kdenlive/proxy/b26a92282e95ad779fe1c0b71b596c60.mkv</property>
  <property name="kdenlive:originalurl">video/Deletion/3.mp4</property>
  <property name="kdenlive:original.mlt_type">producer</property>
  <property name="kdenlive:original.in">0</property>
  <property name="kdenlive:original.out">11</property>
  <property name="kdenlive:original.length">12</property>
  <property name="kdenlive:original.eof">pause</property>
  <property name="kdenlive:original.resource">video/Deletion/3.mp4</property>
  <property name="kdenlive:original.meta.media.nb_streams">1</property>
  <property name="kdenlive:original.meta.media.0.stream.type">video</property>
  <property name="kdenlive:original.meta.media.0.stream.frame_rate">60</property>
  <property name="kdenlive:original.meta.media.0.stream.sample_aspect_ratio">0</property>
  <property name="kdenlive:original.meta.media.0.codec.width">3840</property>
  <property name="kdenlive:original.meta.media.0.codec.height">2160</property>
  <property name="kdenlive:original.meta.media.0.codec.rotate">0</property>
  <property name="kdenlive:original.meta.media.0.codec.pix_fmt">yuv420p</property>
  <property name="kdenlive:original.meta.media.0.codec.sample_aspect_ratio">0</property>
  <property name="kdenlive:original.meta.media.0.codec.colorspace">709</property>
  <property name="kdenlive:original.meta.media.0.codec.name">h264</property>
  <property name="kdenlive:original.meta.media.0.codec.long_name">H.264 / AVC / MPEG-4 AVC / MPEG-4 part 10</property>
  <property name="kdenlive:original.meta.media.0.codec.bit_rate">1978960</property>
  <property name="kdenlive:original.meta.attr.0.stream.handler_name.markup">VideoHandler</property>
  <property name="kdenlive:original.meta.attr.0.stream.vendor_id.markup">[0][0][0][0]</property>
  <property name="kdenlive:original.meta.attr.0.stream.encoder.markup">Lavc60.3.100 libx264</property>
  <property name="kdenlive:original.meta.attr.major_brand.markup">isom</property>
  <property name="kdenlive:original.meta.attr.minor_version.markup">512</property>
  <property name="kdenlive:original.meta.attr.compatible_brands.markup">isomiso2avc1mp41</property>
  <property name="kdenlive:original.meta.attr.encoder.markup">Lavf60.3.100</property>
  <property name="kdenlive:original.meta.attr.comment.markup">Rendered with Manim Community v0.17.2</property>
  <property name="kdenlive:original.seekable">1</property>
  <property name="kdenlive:original.width">3840</property>
  <property name="kdenlive:original.height">2160</property>
  <property name="kdenlive:original.meta.media.sample_aspect_num">1</property>
  <property name="kdenlive:original.meta.media.sample_aspect_den">1</property>
  <property name="kdenlive:original.aspect_ratio">1</property>
  <property name="kdenlive:original.format">3</property>
  <property name="kdenlive:original.audio_index">-1</property>
  <property name="kdenlive:original.video_index">0</property>
  <property name="kdenlive:original.mute_on_pause">0</property>
  <property name="kdenlive:original.mlt_service">avformat-novalidate</property>
  <property name="kdenlive:original.meta.media.frame_rate_num">60</property>
  <property name="kdenlive:original.meta.media.frame_rate_den">1</property>
  <property name="kdenlive:original.meta.media.colorspace">709</property>
  <property name="kdenlive:original.meta.media.color_trc">2</property>
  <property name="kdenlive:original.meta.media.has_b_frames">2</property>
  <property name="kdenlive:original.meta.media.width">3840</property>
  <property name="kdenlive:original.meta.media.height">2160</property>
  <property name="kdenlive:original.meta.media.color_range">mpeg</property>
  <property name="kdenlive:original.meta.media.top_field_first">0</property>
  <property name="kdenlive:original.meta.media.progressive">1</property>
  <property name="kdenlive:original.kdenlive:clip_type">2</property>
  <property name="kdenlive:original.kdenlive:folderid">653</property>
  <property name="kdenlive:original.kdenlive:id">676</property>
  <property name="kdenlive:original.kdenlive:file_size">50521</property>
  <property name="kdenlive:original.kdenlive:file_hash">b26a92282e95ad779fe1c0b71b596c60</property>
  <property name="kdenlive:original.backup">1</property>
  <property name="meta.media.frame_rate_num">60</property>
  <property name="meta.media.frame_rate_den">1</property>
  <property name="meta.media.colorspace">601</property>
  <property name="meta.media.color_trc">2</property>
  <property name="meta.media.has_b_frames">0</property>
  <property name="meta.media.width">640</property>
  <property name="meta.media.height">360</property>
  <property name="meta.media.color_range">full</property>
  <property name="meta.media.top_field_first">0</property>
  <property name="meta.media.progressive">1</property>
 </producer>
 <producer id="producer473" in="00:00:00.000" out="00:00:00.983">
  <property name="length">60</property>
  <property name="eof">pause</property>
  <property name="resource">/home/xiaoxiae/.cache/kdenlive/proxy/8dbca50b9f7e7f8e5ab6d8865b7fcf22.mkv</property>
  <property name="meta.media.nb_streams">1</property>
  <property name="meta.media.0.stream.type">video</property>
  <property name="meta.media.0.stream.frame_rate">60</property>
  <property name="meta.media.0.stream.sample_aspect_ratio">0</property>
  <property name="meta.media.0.codec.width">640</property>
  <property name="meta.media.0.codec.height">360</property>
  <property name="meta.media.0.codec.rotate">0</property>
  <property name="meta.media.0.codec.pix_fmt">yuvj420p</property>
  <property name="meta.media.0.codec.sample_aspect_ratio">0</property>
  <property name="meta.media.0.codec.colorspace">601</property>
  <property name="meta.media.0.codec.name">mjpeg</property>
  <property name="meta.media.0.codec.long_name">MJPEG (Motion JPEG)</property>
  <property name="meta.media.0.codec.bit_rate">0</property>
  <property name="meta.attr.0.stream.HANDLER_NAME.markup">VideoHandler</property>
  <property name="meta.attr.0.stream.VENDOR_ID.markup">[0][0][0][0]</property>
  <property name="meta.attr.0.stream.ENCODER.markup">Lavc60.3.100 mjpeg</property>
  <property name="meta.attr.0.stream.DURATION.markup">00:00:01.000000000</property>
  <property name="meta.attr.COMMENT.markup">Rendered with Manim Community v0.17.2</property>
  <property name="meta.attr.MAJOR_BRAND.markup">isom</property>
  <property name="meta.attr.MINOR_VERSION.markup">512</property>
  <property name="meta.attr.COMPATIBLE_BRANDS.markup">isomiso2avc1mp41</property>
  <property name="meta.attr.ENCODER.markup">Lavf60.3.100</property>
  <property name="seekable">1</property>
  <property name="meta.media.sample_aspect_num">1</property>
  <property name="meta.media.sample_aspect_den">1</property>
  <property name="aspect_ratio">1</property>
  <property name="format">3</property>
  <property name="audio_index">-1</property>
  <property name="video_index">0</property>
  <property name="mute_on_pause">0</property>
  <property name="mlt_service">avformat-novalidate</property>
  <property name="kdenlive:clipname">30.mp4</property>
  <property name="kdenlive:clip_type">2</property>
  <property name="kdenlive:folderid">653</property>
  <property name="kdenlive:id">562</property>
  <property name="kdenlive:file_size">145905</property>
  <property name="kdenlive:file_hash">8dbca50b9f7e7f8e5ab6d8865b7fcf22</property>
  <property name="kdenlive:proxy">/home/xiaoxiae/.cache/kdenlive/proxy/8dbca50b9f7e7f8e5ab6d8865b7fcf22.mkv</property>
  <property name="kdenlive:originalurl">video/Deletion/30.mp4</property>
  <property name="kdenlive:original.mlt_type">producer</property>
  <property name="kdenlive:original.in">0</property>
  <property name="kdenlive:original.out">59</property>
  <property name="kdenlive:original.length">60</property>
  <property name="kdenlive:original.eof">pause</property>
  <property name="kdenlive:original.resource">video/Deletion/30.mp4</property>
  <property name="kdenlive:original.meta.media.nb_streams">1</property>
  <property name="kdenlive:original.meta.media.0.stream.type">video</property>
  <property name="kdenlive:original.meta.media.0.stream.frame_rate">60</property>
  <property name="kdenlive:original.meta.media.0.stream.sample_aspect_ratio">0</property>
  <property name="kdenlive:original.meta.media.0.codec.width">3840</property>
  <property name="kdenlive:original.meta.media.0.codec.height">2160</property>
  <property name="kdenlive:original.meta.media.0.codec.rotate">0</property>
  <property name="kdenlive:original.meta.media.0.codec.pix_fmt">yuv420p</property>
  <property name="kdenlive:original.meta.media.0.codec.sample_aspect_ratio">0</property>
  <property name="kdenlive:original.meta.media.0.codec.colorspace">709</property>
  <property name="kdenlive:original.meta.media.0.codec.name">h264</property>
  <property name="kdenlive:original.meta.media.0.codec.long_name">H.264 / AVC / MPEG-4 AVC / MPEG-4 part 10</property>
  <property name="kdenlive:original.meta.media.0.codec.bit_rate">1154448</property>
  <property name="kdenlive:original.meta.attr.0.stream.handler_name.markup">VideoHandler</property>
  <property name="kdenlive:original.meta.attr.0.stream.vendor_id.markup">[0][0][0][0]</property>
  <property name="kdenlive:original.meta.attr.0.stream.encoder.markup">Lavc60.3.100 libx264</property>
  <property name="kdenlive:original.meta.attr.major_brand.markup">isom</property>
  <property name="kdenlive:original.meta.attr.minor_version.markup">512</property>
  <property name="kdenlive:original.meta.attr.compatible_brands.markup">isomiso2avc1mp41</property>
  <property name="kdenlive:original.meta.attr.encoder.markup">Lavf60.3.100</property>
  <property name="kdenlive:original.meta.attr.comment.markup">Rendered with Manim Community v0.17.2</property>
  <property name="kdenlive:original.seekable">1</property>
  <property name="kdenlive:original.width">3840</property>
  <property name="kdenlive:original.height">2160</property>
  <property name="kdenlive:original.meta.media.sample_aspect_num">1</property>
  <property name="kdenlive:original.meta.media.sample_aspect_den">1</property>
  <property name="kdenlive:original.aspect_ratio">1</property>
  <property name="kdenlive:original.format">3</property>
  <property name="kdenlive:original.audio_index">-1</property>
  <property name="kdenlive:original.video_index">0</property>
  <property name="kdenlive:original.mute_on_pause">0</property>
  <property name="kdenlive:original.mlt_service">avformat-novalidate</property>
  <property name="kdenlive:original.meta.media.frame_rate_num">60</property>
  <property name="kdenlive:original.meta.media.frame_rate_den">1</property>
  <property name="kdenlive:original.meta.media.colorspace">709</property>
  <property name="kdenlive:original.meta.media.color_trc">2</property>
  <property name="kdenlive:original.meta.media.has_b_frames">2</property>
  <property name="kdenlive:original.meta.media.width">3840</property>
  <property name="kdenlive:original.meta.media.height">2160</property>
  <property name="kdenlive:original.meta.media.color_range">mpeg</property>
  <property name="kdenlive:original.meta.media.top_field_first">0</property>
  <property name="kdenlive:original.meta.media.progressive">1</property>
  <property name="kdenlive:original.kdenlive:clip_type">2</property>
  <property name="kdenlive:original.kdenlive:folderid">653</property>
  <property name="kdenlive:original.kdenlive:id">677</property>
  <property name="kdenlive:original.kdenlive:file_size">145905</property>
  <property name="kdenlive:original.kdenlive:file_hash">8dbca50b9f7e7f8e5ab6d8865b7fcf22</property>
  <property name="kdenlive:original.backup">1</property>
  <property name="meta.media.frame_rate_num">60</property>
  <property name="meta.media.frame_rate_den">1</property>
  <property name="meta.media.colorspace">601</property>
  <property name="meta.media.color_trc">2</property>
  <property name="meta.media.has_b_frames">0</property>
  <property name="meta.media.width">640</property>
  <property name="meta.media.height">360</property>
  <property name="meta.media.color_range">full</property>
  <property name="meta.media.top_field_first">0</property>
  <property name="meta.media.progressive">1</property>
 </producer>
 <producer id="producer474" in="00:00:00.000" out="00:00:01.483">
  <property name="length">90</property>
  <property name="eof">pause</property>
  <property name="resource">/home/xiaoxiae/.cache/kdenlive/proxy/11d83a81bac23f7f938bb0960a156c74.mkv</property>
  <property name="meta.media.nb_streams">1</property>
  <property name="meta.media.0.stream.type">video</property>
  <property name="meta.media.0.stream.frame_rate">60</property>
  <property name="meta.media.0.stream.sample_aspect_ratio">0</property>
  <property name="meta.media.0.codec.width">640</property>
  <property name="meta.media.0.codec.height">360</property>
  <property name="meta.media.0.codec.rotate">0</property>
  <property name="meta.media.0.codec.pix_fmt">yuvj420p</property>
  <property name="meta.media.0.codec.sample_aspect_ratio">0</property>
  <property name="meta.media.0.codec.colorspace">601</property>
  <property name="meta.media.0.codec.name">mjpeg</property>
  <property name="meta.media.0.codec.long_name">MJPEG (Motion JPEG)</property>
  <property name="meta.media.0.codec.bit_rate">0</property>
  <property name="meta.attr.0.stream.HANDLER_NAME.markup">VideoHandler</property>
  <property name="meta.attr.0.stream.VENDOR_ID.markup">[0][0][0][0]</property>
  <property name="meta.attr.0.stream.ENCODER.markup">Lavc60.3.100 mjpeg</property>
  <property name="meta.attr.0.stream.DURATION.markup">00:00:01.500000000</property>
  <property name="meta.attr.COMMENT.markup">Rendered with Manim Community v0.17.2</property>
  <property name="meta.attr.MAJOR_BRAND.markup">isom</property>
  <property name="meta.attr.MINOR_VERSION.markup">512</property>
  <property name="meta.attr.COMPATIBLE_BRANDS.markup">isomiso2avc1mp41</property>
  <property name="meta.attr.ENCODER.markup">Lavf60.3.100</property>
  <property name="seekable">1</property>
  <property name="meta.media.sample_aspect_num">1</property>
  <property name="meta.media.sample_aspect_den">1</property>
  <property name="aspect_ratio">1</property>
  <property name="format">3</property>
  <property name="audio_index">-1</property>
  <property name="video_index">0</property>
  <property name="mute_on_pause">0</property>
  <property name="mlt_service">avformat-novalidate</property>
  <property name="kdenlive:clipname">31.mp4</property>
  <property name="kdenlive:clip_type">2</property>
  <property name="kdenlive:folderid">653</property>
  <property name="kdenlive:id">563</property>
  <property name="kdenlive:file_size">171907</property>
  <property name="kdenlive:file_hash">11d83a81bac23f7f938bb0960a156c74</property>
  <property name="kdenlive:proxy">/home/xiaoxiae/.cache/kdenlive/proxy/11d83a81bac23f7f938bb0960a156c74.mkv</property>
  <property name="kdenlive:originalurl">video/Deletion/31.mp4</property>
  <property name="kdenlive:original.mlt_type">producer</property>
  <property name="kdenlive:original.in">0</property>
  <property name="kdenlive:original.out">89</property>
  <property name="kdenlive:original.length">90</property>
  <property name="kdenlive:original.eof">pause</property>
  <property name="kdenlive:original.resource">video/Deletion/31.mp4</property>
  <property name="kdenlive:original.meta.media.nb_streams">1</property>
  <property name="kdenlive:original.meta.media.0.stream.type">video</property>
  <property name="kdenlive:original.meta.media.0.stream.frame_rate">60</property>
  <property name="kdenlive:original.meta.media.0.stream.sample_aspect_ratio">0</property>
  <property name="kdenlive:original.meta.media.0.codec.width">3840</property>
  <property name="kdenlive:original.meta.media.0.codec.height">2160</property>
  <property name="kdenlive:original.meta.media.0.codec.rotate">0</property>
  <property name="kdenlive:original.meta.media.0.codec.pix_fmt">yuv420p</property>
  <property name="kdenlive:original.meta.media.0.codec.sample_aspect_ratio">0</property>
  <property name="kdenlive:original.meta.media.0.codec.colorspace">709</property>
  <property name="kdenlive:original.meta.media.0.codec.name">h264</property>
  <property name="kdenlive:original.meta.media.0.codec.long_name">H.264 / AVC / MPEG-4 AVC / MPEG-4 part 10</property>
  <property name="kdenlive:original.meta.media.0.codec.bit_rate">906176</property>
  <property name="kdenlive:original.meta.attr.0.stream.handler_name.markup">VideoHandler</property>
  <property name="kdenlive:original.meta.attr.0.stream.vendor_id.markup">[0][0][0][0]</property>
  <property name="kdenlive:original.meta.attr.0.stream.encoder.markup">Lavc60.3.100 libx264</property>
  <property name="kdenlive:original.meta.attr.major_brand.markup">isom</property>
  <property name="kdenlive:original.meta.attr.minor_version.markup">512</property>
  <property name="kdenlive:original.meta.attr.compatible_brands.markup">isomiso2avc1mp41</property>
  <property name="kdenlive:original.meta.attr.encoder.markup">Lavf60.3.100</property>
  <property name="kdenlive:original.meta.attr.comment.markup">Rendered with Manim Community v0.17.2</property>
  <property name="kdenlive:original.seekable">1</property>
  <property name="kdenlive:original.width">3840</property>
  <property name="kdenlive:original.height">2160</property>
  <property name="kdenlive:original.meta.media.sample_aspect_num">1</property>
  <property name="kdenlive:original.meta.media.sample_aspect_den">1</property>
  <property name="kdenlive:original.aspect_ratio">1</property>
  <property name="kdenlive:original.format">3</property>
  <property name="kdenlive:original.audio_index">-1</property>
  <property name="kdenlive:original.video_index">0</property>
  <property name="kdenlive:original.mute_on_pause">0</property>
  <property name="kdenlive:original.mlt_service">avformat-novalidate</property>
  <property name="kdenlive:original.meta.media.frame_rate_num">60</property>
  <property name="kdenlive:original.meta.media.frame_rate_den">1</property>
  <property name="kdenlive:original.meta.media.colorspace">709</property>
  <property name="kdenlive:original.meta.media.color_trc">2</property>
  <property name="kdenlive:original.meta.media.has_b_frames">2</property>
  <property name="kdenlive:original.meta.media.width">3840</property>
  <property name="kdenlive:original.meta.media.height">2160</property>
  <property name="kdenlive:original.meta.media.color_range">mpeg</property>
  <property name="kdenlive:original.meta.media.top_field_first">0</property>
  <property name="kdenlive:original.meta.media.progressive">1</property>
  <property name="kdenlive:original.kdenlive:clip_type">2</property>
  <property name="kdenlive:original.kdenlive:folderid">653</property>
  <property name="kdenlive:original.kdenlive:id">678</property>
  <property name="kdenlive:original.kdenlive:file_size">171907</property>
  <property name="kdenlive:original.kdenlive:file_hash">11d83a81bac23f7f938bb0960a156c74</property>
  <property name="kdenlive:original.backup">1</property>
  <property name="meta.media.frame_rate_num">60</property>
  <property name="meta.media.frame_rate_den">1</property>
  <property name="meta.media.colorspace">601</property>
  <property name="meta.media.color_trc">2</property>
  <property name="meta.media.has_b_frames">0</property>
  <property name="meta.media.width">640</property>
  <property name="meta.media.height">360</property>
  <property name="meta.media.color_range">full</property>
  <property name="meta.media.top_field_first">0</property>
  <property name="meta.media.progressive">1</property>
 </producer>
 <producer id="producer477" in="00:00:00.000" out="00:00:00.983">
  <property name="length">60</property>
  <property name="eof">pause</property>
  <property name="resource">/home/xiaoxiae/.cache/kdenlive/proxy/c61bf56e1b779519eb74946b9a03d2bc.mkv</property>
  <property name="meta.media.nb_streams">1</property>
  <property name="meta.media.0.stream.type">video</property>
  <property name="meta.media.0.stream.frame_rate">60</property>
  <property name="meta.media.0.stream.sample_aspect_ratio">0</property>
  <property name="meta.media.0.codec.width">640</property>
  <property name="meta.media.0.codec.height">360</property>
  <property name="meta.media.0.codec.rotate">0</property>
  <property name="meta.media.0.codec.pix_fmt">yuvj420p</property>
  <property name="meta.media.0.codec.sample_aspect_ratio">0</property>
  <property name="meta.media.0.codec.colorspace">601</property>
  <property name="meta.media.0.codec.name">mjpeg</property>
  <property name="meta.media.0.codec.long_name">MJPEG (Motion JPEG)</property>
  <property name="meta.media.0.codec.bit_rate">0</property>
  <property name="meta.attr.0.stream.HANDLER_NAME.markup">VideoHandler</property>
  <property name="meta.attr.0.stream.VENDOR_ID.markup">[0][0][0][0]</property>
  <property name="meta.attr.0.stream.ENCODER.markup">Lavc60.3.100 mjpeg</property>
  <property name="meta.attr.0.stream.DURATION.markup">00:00:01.000000000</property>
  <property name="meta.attr.COMMENT.markup">Rendered with Manim Community v0.17.2</property>
  <property name="meta.attr.MAJOR_BRAND.markup">isom</property>
  <property name="meta.attr.MINOR_VERSION.markup">512</property>
  <property name="meta.attr.COMPATIBLE_BRANDS.markup">isomiso2avc1mp41</property>
  <property name="meta.attr.ENCODER.markup">Lavf60.3.100</property>
  <property name="seekable">1</property>
  <property name="meta.media.sample_aspect_num">1</property>
  <property name="meta.media.sample_aspect_den">1</property>
  <property name="aspect_ratio">1</property>
  <property name="format">3</property>
  <property name="audio_index">-1</property>
  <property name="video_index">0</property>
  <property name="mute_on_pause">0</property>
  <property name="mlt_service">avformat-novalidate</property>
  <property name="kdenlive:clipname">32.mp4</property>
  <property name="kdenlive:clip_type">2</property>
  <property name="kdenlive:folderid">653</property>
  <property name="kdenlive:id">564</property>
  <property name="kdenlive:file_size">75175</property>
  <property name="kdenlive:file_hash">c61bf56e1b779519eb74946b9a03d2bc</property>
  <property name="kdenlive:proxy">/home/xiaoxiae/.cache/kdenlive/proxy/c61bf56e1b779519eb74946b9a03d2bc.mkv</property>
  <property name="kdenlive:originalurl">video/Deletion/32.mp4</property>
  <property name="kdenlive:original.mlt_type">producer</property>
  <property name="kdenlive:original.in">0</property>
  <property name="kdenlive:original.out">59</property>
  <property name="kdenlive:original.length">60</property>
  <property name="kdenlive:original.eof">pause</property>
  <property name="kdenlive:original.resource">video/Deletion/32.mp4</property>
  <property name="kdenlive:original.meta.media.nb_streams">1</property>
  <property name="kdenlive:original.meta.media.0.stream.type">video</property>
  <property name="kdenlive:original.meta.media.0.stream.frame_rate">60</property>
  <property name="kdenlive:original.meta.media.0.stream.sample_aspect_ratio">0</property>
  <property name="kdenlive:original.meta.media.0.codec.width">3840</property>
  <property name="kdenlive:original.meta.media.0.codec.height">2160</property>
  <property name="kdenlive:original.meta.media.0.codec.rotate">0</property>
  <property name="kdenlive:original.meta.media.0.codec.pix_fmt">yuv420p</property>
  <property name="kdenlive:original.meta.media.0.codec.sample_aspect_ratio">0</property>
  <property name="kdenlive:original.meta.media.0.codec.colorspace">709</property>
  <property name="kdenlive:original.meta.media.0.codec.name">h264</property>
  <property name="kdenlive:original.meta.media.0.codec.long_name">H.264 / AVC / MPEG-4 AVC / MPEG-4 part 10</property>
  <property name="kdenlive:original.meta.media.0.codec.bit_rate">588352</property>
  <property name="kdenlive:original.meta.attr.0.stream.handler_name.markup">VideoHandler</property>
  <property name="kdenlive:original.meta.attr.0.stream.vendor_id.markup">[0][0][0][0]</property>
  <property name="kdenlive:original.meta.attr.0.stream.encoder.markup">Lavc60.3.100 libx264</property>
  <property name="kdenlive:original.meta.attr.major_brand.markup">isom</property>
  <property name="kdenlive:original.meta.attr.minor_version.markup">512</property>
  <property name="kdenlive:original.meta.attr.compatible_brands.markup">isomiso2avc1mp41</property>
  <property name="kdenlive:original.meta.attr.encoder.markup">Lavf60.3.100</property>
  <property name="kdenlive:original.meta.attr.comment.markup">Rendered with Manim Community v0.17.2</property>
  <property name="kdenlive:original.seekable">1</property>
  <property name="kdenlive:original.width">3840</property>
  <property name="kdenlive:original.height">2160</property>
  <property name="kdenlive:original.meta.media.sample_aspect_num">1</property>
  <property name="kdenlive:original.meta.media.sample_aspect_den">1</property>
  <property name="kdenlive:original.aspect_ratio">1</property>
  <property name="kdenlive:original.format">3</property>
  <property name="kdenlive:original.audio_index">-1</property>
  <property name="kdenlive:original.video_index">0</property>
  <property name="kdenlive:original.mute_on_pause">0</property>
  <property name="kdenlive:original.mlt_service">avformat-novalidate</property>
  <property name="kdenlive:original.meta.media.frame_rate_num">60</property>
  <property name="kdenlive:original.meta.media.frame_rate_den">1</property>
  <property name="kdenlive:original.meta.media.colorspace">709</property>
  <property name="kdenlive:original.meta.media.color_trc">2</property>
  <property name="kdenlive:original.meta.media.has_b_frames">2</property>
  <property name="kdenlive:original.meta.media.width">3840</property>
  <property name="kdenlive:original.meta.media.height">2160</property>
  <property name="kdenlive:original.meta.media.color_range">mpeg</property>
  <property name="kdenlive:original.meta.media.top_field_first">0</property>
  <property name="kdenlive:original.meta.media.progressive">1</property>
  <property name="kdenlive:original.kdenlive:clip_type">2</property>
  <property name="kdenlive:original.kdenlive:folderid">653</property>
  <property name="kdenlive:original.kdenlive:id">679</property>
  <property name="kdenlive:original.kdenlive:file_size">75175</property>
  <property name="kdenlive:original.kdenlive:file_hash">c61bf56e1b779519eb74946b9a03d2bc</property>
  <property name="kdenlive:original.backup">1</property>
  <property name="meta.media.frame_rate_num">60</property>
  <property name="meta.media.frame_rate_den">1</property>
  <property name="meta.media.colorspace">601</property>
  <property name="meta.media.color_trc">2</property>
  <property name="meta.media.has_b_frames">0</property>
  <property name="meta.media.width">640</property>
  <property name="meta.media.height">360</property>
  <property name="meta.media.color_range">full</property>
  <property name="meta.media.top_field_first">0</property>
  <property name="meta.media.progressive">1</property>
 </producer>
 <producer id="producer475" in="00:00:00.000" out="00:00:00.983">
  <property name="length">60</property>
  <property name="eof">pause</property>
  <property name="resource">/home/xiaoxiae/.cache/kdenlive/proxy/239d58d1a46d89623554495767fcb60f.mkv</property>
  <property name="meta.media.nb_streams">1</property>
  <property name="meta.media.0.stream.type">video</property>
  <property name="meta.media.0.stream.frame_rate">60</property>
  <property name="meta.media.0.stream.sample_aspect_ratio">0</property>
  <property name="meta.media.0.codec.width">640</property>
  <property name="meta.media.0.codec.height">360</property>
  <property name="meta.media.0.codec.rotate">0</property>
  <property name="meta.media.0.codec.pix_fmt">yuvj420p</property>
  <property name="meta.media.0.codec.sample_aspect_ratio">0</property>
  <property name="meta.media.0.codec.colorspace">601</property>
  <property name="meta.media.0.codec.name">mjpeg</property>
  <property name="meta.media.0.codec.long_name">MJPEG (Motion JPEG)</property>
  <property name="meta.media.0.codec.bit_rate">0</property>
  <property name="meta.attr.0.stream.HANDLER_NAME.markup">VideoHandler</property>
  <property name="meta.attr.0.stream.VENDOR_ID.markup">[0][0][0][0]</property>
  <property name="meta.attr.0.stream.ENCODER.markup">Lavc60.3.100 mjpeg</property>
  <property name="meta.attr.0.stream.DURATION.markup">00:00:01.000000000</property>
  <property name="meta.attr.COMMENT.markup">Rendered with Manim Community v0.17.2</property>
  <property name="meta.attr.MAJOR_BRAND.markup">isom</property>
  <property name="meta.attr.MINOR_VERSION.markup">512</property>
  <property name="meta.attr.COMPATIBLE_BRANDS.markup">isomiso2avc1mp41</property>
  <property name="meta.attr.ENCODER.markup">Lavf60.3.100</property>
  <property name="seekable">1</property>
  <property name="meta.media.sample_aspect_num">1</property>
  <property name="meta.media.sample_aspect_den">1</property>
  <property name="aspect_ratio">1</property>
  <property name="format">3</property>
  <property name="audio_index">-1</property>
  <property name="video_index">0</property>
  <property name="mute_on_pause">0</property>
  <property name="mlt_service">avformat-novalidate</property>
  <property name="kdenlive:clipname">33.mp4</property>
  <property name="kdenlive:clip_type">2</property>
  <property name="kdenlive:folderid">653</property>
  <property name="kdenlive:id">566</property>
  <property name="kdenlive:file_size">437114</property>
  <property name="kdenlive:file_hash">239d58d1a46d89623554495767fcb60f</property>
  <property name="kdenlive:proxy">/home/xiaoxiae/.cache/kdenlive/proxy/239d58d1a46d89623554495767fcb60f.mkv</property>
  <property name="kdenlive:originalurl">video/Deletion/33.mp4</property>
  <property name="kdenlive:original.mlt_type">producer</property>
  <property name="kdenlive:original.in">0</property>
  <property name="kdenlive:original.out">59</property>
  <property name="kdenlive:original.length">60</property>
  <property name="kdenlive:original.eof">pause</property>
  <property name="kdenlive:original.resource">video/Deletion/33.mp4</property>
  <property name="kdenlive:original.meta.media.nb_streams">1</property>
  <property name="kdenlive:original.meta.media.0.stream.type">video</property>
  <property name="kdenlive:original.meta.media.0.stream.frame_rate">60</property>
  <property name="kdenlive:original.meta.media.0.stream.sample_aspect_ratio">0</property>
  <property name="kdenlive:original.meta.media.0.codec.width">3840</property>
  <property name="kdenlive:original.meta.media.0.codec.height">2160</property>
  <property name="kdenlive:original.meta.media.0.codec.rotate">0</property>
  <property name="kdenlive:original.meta.media.0.codec.pix_fmt">yuv420p</property>
  <property name="kdenlive:original.meta.media.0.codec.sample_aspect_ratio">0</property>
  <property name="kdenlive:original.meta.media.0.codec.colorspace">709</property>
  <property name="kdenlive:original.meta.media.0.codec.name">h264</property>
  <property name="kdenlive:original.meta.media.0.codec.long_name">H.264 / AVC / MPEG-4 AVC / MPEG-4 part 10</property>
  <property name="kdenlive:original.meta.media.0.codec.bit_rate">3485400</property>
  <property name="kdenlive:original.meta.attr.0.stream.handler_name.markup">VideoHandler</property>
  <property name="kdenlive:original.meta.attr.0.stream.vendor_id.markup">[0][0][0][0]</property>
  <property name="kdenlive:original.meta.attr.0.stream.encoder.markup">Lavc60.3.100 libx264</property>
  <property name="kdenlive:original.meta.attr.major_brand.markup">isom</property>
  <property name="kdenlive:original.meta.attr.minor_version.markup">512</property>
  <property name="kdenlive:original.meta.attr.compatible_brands.markup">isomiso2avc1mp41</property>
  <property name="kdenlive:original.meta.attr.encoder.markup">Lavf60.3.100</property>
  <property name="kdenlive:original.meta.attr.comment.markup">Rendered with Manim Community v0.17.2</property>
  <property name="kdenlive:original.seekable">1</property>
  <property name="kdenlive:original.width">3840</property>
  <property name="kdenlive:original.height">2160</property>
  <property name="kdenlive:original.meta.media.sample_aspect_num">1</property>
  <property name="kdenlive:original.meta.media.sample_aspect_den">1</property>
  <property name="kdenlive:original.aspect_ratio">1</property>
  <property name="kdenlive:original.format">3</property>
  <property name="kdenlive:original.audio_index">-1</property>
  <property name="kdenlive:original.video_index">0</property>
  <property name="kdenlive:original.mute_on_pause">0</property>
  <property name="kdenlive:original.mlt_service">avformat-novalidate</property>
  <property name="kdenlive:original.meta.media.frame_rate_num">60</property>
  <property name="kdenlive:original.meta.media.frame_rate_den">1</property>
  <property name="kdenlive:original.meta.media.colorspace">709</property>
  <property name="kdenlive:original.meta.media.color_trc">2</property>
  <property name="kdenlive:original.meta.media.has_b_frames">2</property>
  <property name="kdenlive:original.meta.media.width">3840</property>
  <property name="kdenlive:original.meta.media.height">2160</property>
  <property name="kdenlive:original.meta.media.color_range">mpeg</property>
  <property name="kdenlive:original.meta.media.top_field_first">0</property>
  <property name="kdenlive:original.meta.media.progressive">1</property>
  <property name="kdenlive:original.kdenlive:clip_type">2</property>
  <property name="kdenlive:original.kdenlive:folderid">653</property>
  <property name="kdenlive:original.kdenlive:id">680</property>
  <property name="kdenlive:original.kdenlive:file_size">437114</property>
  <property name="kdenlive:original.kdenlive:file_hash">239d58d1a46d89623554495767fcb60f</property>
  <property name="kdenlive:original.backup">1</property>
  <property name="meta.media.frame_rate_num">60</property>
  <property name="meta.media.frame_rate_den">1</property>
  <property name="meta.media.colorspace">601</property>
  <property name="meta.media.color_trc">2</property>
  <property name="meta.media.has_b_frames">0</property>
  <property name="meta.media.width">640</property>
  <property name="meta.media.height">360</property>
  <property name="meta.media.color_range">full</property>
  <property name="meta.media.top_field_first">0</property>
  <property name="meta.media.progressive">1</property>
 </producer>
 <producer id="producer476" in="00:00:00.000" out="00:00:00.983">
  <property name="length">60</property>
  <property name="eof">pause</property>
  <property name="resource">/home/xiaoxiae/.cache/kdenlive/proxy/fe9a19e906e467466af0fe2cd42f99c0.mkv</property>
  <property name="meta.media.nb_streams">1</property>
  <property name="meta.media.0.stream.type">video</property>
  <property name="meta.media.0.stream.frame_rate">60</property>
  <property name="meta.media.0.stream.sample_aspect_ratio">0</property>
  <property name="meta.media.0.codec.width">640</property>
  <property name="meta.media.0.codec.height">360</property>
  <property name="meta.media.0.codec.rotate">0</property>
  <property name="meta.media.0.codec.pix_fmt">yuvj420p</property>
  <property name="meta.media.0.codec.sample_aspect_ratio">0</property>
  <property name="meta.media.0.codec.colorspace">601</property>
  <property name="meta.media.0.codec.name">mjpeg</property>
  <property name="meta.media.0.codec.long_name">MJPEG (Motion JPEG)</property>
  <property name="meta.media.0.codec.bit_rate">0</property>
  <property name="meta.attr.0.stream.HANDLER_NAME.markup">VideoHandler</property>
  <property name="meta.attr.0.stream.VENDOR_ID.markup">[0][0][0][0]</property>
  <property name="meta.attr.0.stream.ENCODER.markup">Lavc60.3.100 mjpeg</property>
  <property name="meta.attr.0.stream.DURATION.markup">00:00:01.000000000</property>
  <property name="meta.attr.COMMENT.markup">Rendered with Manim Community v0.17.2</property>
  <property name="meta.attr.MAJOR_BRAND.markup">isom</property>
  <property name="meta.attr.MINOR_VERSION.markup">512</property>
  <property name="meta.attr.COMPATIBLE_BRANDS.markup">isomiso2avc1mp41</property>
  <property name="meta.attr.ENCODER.markup">Lavf60.3.100</property>
  <property name="seekable">1</property>
  <property name="meta.media.sample_aspect_num">1</property>
  <property name="meta.media.sample_aspect_den">1</property>
  <property name="aspect_ratio">1</property>
  <property name="format">3</property>
  <property name="audio_index">-1</property>
  <property name="video_index">0</property>
  <property name="mute_on_pause">0</property>
  <property name="mlt_service">avformat-novalidate</property>
  <property name="kdenlive:clipname">34.mp4</property>
  <property name="kdenlive:clip_type">2</property>
  <property name="kdenlive:folderid">653</property>
  <property name="kdenlive:id">567</property>
  <property name="kdenlive:file_size">80903</property>
  <property name="kdenlive:file_hash">fe9a19e906e467466af0fe2cd42f99c0</property>
  <property name="kdenlive:proxy">/home/xiaoxiae/.cache/kdenlive/proxy/fe9a19e906e467466af0fe2cd42f99c0.mkv</property>
  <property name="kdenlive:originalurl">video/Deletion/34.mp4</property>
  <property name="kdenlive:original.mlt_type">producer</property>
  <property name="kdenlive:original.in">0</property>
  <property name="kdenlive:original.out">59</property>
  <property name="kdenlive:original.length">60</property>
  <property name="kdenlive:original.eof">pause</property>
  <property name="kdenlive:original.resource">video/Deletion/34.mp4</property>
  <property name="kdenlive:original.meta.media.nb_streams">1</property>
  <property name="kdenlive:original.meta.media.0.stream.type">video</property>
  <property name="kdenlive:original.meta.media.0.stream.frame_rate">60</property>
  <property name="kdenlive:original.meta.media.0.stream.sample_aspect_ratio">0</property>
  <property name="kdenlive:original.meta.media.0.codec.width">3840</property>
  <property name="kdenlive:original.meta.media.0.codec.height">2160</property>
  <property name="kdenlive:original.meta.media.0.codec.rotate">0</property>
  <property name="kdenlive:original.meta.media.0.codec.pix_fmt">yuv420p</property>
  <property name="kdenlive:original.meta.media.0.codec.sample_aspect_ratio">0</property>
  <property name="kdenlive:original.meta.media.0.codec.colorspace">709</property>
  <property name="kdenlive:original.meta.media.0.codec.name">h264</property>
  <property name="kdenlive:original.meta.media.0.codec.long_name">H.264 / AVC / MPEG-4 AVC / MPEG-4 part 10</property>
  <property name="kdenlive:original.meta.media.0.codec.bit_rate">634176</property>
  <property name="kdenlive:original.meta.attr.0.stream.handler_name.markup">VideoHandler</property>
  <property name="kdenlive:original.meta.attr.0.stream.vendor_id.markup">[0][0][0][0]</property>
  <property name="kdenlive:original.meta.attr.0.stream.encoder.markup">Lavc60.3.100 libx264</property>
  <property name="kdenlive:original.meta.attr.major_brand.markup">isom</property>
  <property name="kdenlive:original.meta.attr.minor_version.markup">512</property>
  <property name="kdenlive:original.meta.attr.compatible_brands.markup">isomiso2avc1mp41</property>
  <property name="kdenlive:original.meta.attr.encoder.markup">Lavf60.3.100</property>
  <property name="kdenlive:original.meta.attr.comment.markup">Rendered with Manim Community v0.17.2</property>
  <property name="kdenlive:original.seekable">1</property>
  <property name="kdenlive:original.width">3840</property>
  <property name="kdenlive:original.height">2160</property>
  <property name="kdenlive:original.meta.media.sample_aspect_num">1</property>
  <property name="kdenlive:original.meta.media.sample_aspect_den">1</property>
  <property name="kdenlive:original.aspect_ratio">1</property>
  <property name="kdenlive:original.format">3</property>
  <property name="kdenlive:original.audio_index">-1</property>
  <property name="kdenlive:original.video_index">0</property>
  <property name="kdenlive:original.mute_on_pause">0</property>
  <property name="kdenlive:original.mlt_service">avformat-novalidate</property>
  <property name="kdenlive:original.meta.media.frame_rate_num">60</property>
  <property name="kdenlive:original.meta.media.frame_rate_den">1</property>
  <property name="kdenlive:original.meta.media.colorspace">709</property>
  <property name="kdenlive:original.meta.media.color_trc">2</property>
  <property name="kdenlive:original.meta.media.has_b_frames">2</property>
  <property name="kdenlive:original.meta.media.width">3840</property>
  <property name="kdenlive:original.meta.media.height">2160</property>
  <property name="kdenlive:original.meta.media.color_range">mpeg</property>
  <property name="kdenlive:original.meta.media.top_field_first">0</property>
  <property name="kdenlive:original.meta.media.progressive">1</property>
  <property name="kdenlive:original.kdenlive:clip_type">2</property>
  <property name="kdenlive:original.kdenlive:folderid">653</property>
  <property name="kdenlive:original.kdenlive:id">681</property>
  <property name="kdenlive:original.kdenlive:file_size">80903</property>
  <property name="kdenlive:original.kdenlive:file_hash">fe9a19e906e467466af0fe2cd42f99c0</property>
  <property name="kdenlive:original.backup">1</property>
  <property name="meta.media.frame_rate_num">60</property>
  <property name="meta.media.frame_rate_den">1</property>
  <property name="meta.media.colorspace">601</property>
  <property name="meta.media.color_trc">2</property>
  <property name="meta.media.has_b_frames">0</property>
  <property name="meta.media.width">640</property>
  <property name="meta.media.height">360</property>
  <property name="meta.media.color_range">full</property>
  <property name="meta.media.top_field_first">0</property>
  <property name="meta.media.progressive">1</property>
 </producer>
 <producer id="producer478" in="00:00:00.000" out="00:00:01.483">
  <property name="length">90</property>
  <property name="eof">pause</property>
  <property name="resource">/home/xiaoxiae/.cache/kdenlive/proxy/29d0230bf82c4a0775cfe30f34249d0e.mkv</property>
  <property name="meta.media.nb_streams">1</property>
  <property name="meta.media.0.stream.type">video</property>
  <property name="meta.media.0.stream.frame_rate">60</property>
  <property name="meta.media.0.stream.sample_aspect_ratio">0</property>
  <property name="meta.media.0.codec.width">640</property>
  <property name="meta.media.0.codec.height">360</property>
  <property name="meta.media.0.codec.rotate">0</property>
  <property name="meta.media.0.codec.pix_fmt">yuvj420p</property>
  <property name="meta.media.0.codec.sample_aspect_ratio">0</property>
  <property name="meta.media.0.codec.colorspace">601</property>
  <property name="meta.media.0.codec.name">mjpeg</property>
  <property name="meta.media.0.codec.long_name">MJPEG (Motion JPEG)</property>
  <property name="meta.media.0.codec.bit_rate">0</property>
  <property name="meta.attr.0.stream.HANDLER_NAME.markup">VideoHandler</property>
  <property name="meta.attr.0.stream.VENDOR_ID.markup">[0][0][0][0]</property>
  <property name="meta.attr.0.stream.ENCODER.markup">Lavc60.3.100 mjpeg</property>
  <property name="meta.attr.0.stream.DURATION.markup">00:00:01.500000000</property>
  <property name="meta.attr.COMMENT.markup">Rendered with Manim Community v0.17.2</property>
  <property name="meta.attr.MAJOR_BRAND.markup">isom</property>
  <property name="meta.attr.MINOR_VERSION.markup">512</property>
  <property name="meta.attr.COMPATIBLE_BRANDS.markup">isomiso2avc1mp41</property>
  <property name="meta.attr.ENCODER.markup">Lavf60.3.100</property>
  <property name="seekable">1</property>
  <property name="meta.media.sample_aspect_num">1</property>
  <property name="meta.media.sample_aspect_den">1</property>
  <property name="aspect_ratio">1</property>
  <property name="format">3</property>
  <property name="audio_index">-1</property>
  <property name="video_index">0</property>
  <property name="mute_on_pause">0</property>
  <property name="mlt_service">avformat-novalidate</property>
  <property name="kdenlive:clipname">35.mp4</property>
  <property name="kdenlive:clip_type">2</property>
  <property name="kdenlive:folderid">653</property>
  <property name="kdenlive:id">568</property>
  <property name="kdenlive:file_size">258157</property>
  <property name="kdenlive:file_hash">29d0230bf82c4a0775cfe30f34249d0e</property>
  <property name="kdenlive:proxy">/home/xiaoxiae/.cache/kdenlive/proxy/29d0230bf82c4a0775cfe30f34249d0e.mkv</property>
  <property name="kdenlive:originalurl">video/Deletion/35.mp4</property>
  <property name="kdenlive:original.mlt_type">producer</property>
  <property name="kdenlive:original.in">0</property>
  <property name="kdenlive:original.out">89</property>
  <property name="kdenlive:original.length">90</property>
  <property name="kdenlive:original.eof">pause</property>
  <property name="kdenlive:original.resource">video/Deletion/35.mp4</property>
  <property name="kdenlive:original.meta.media.nb_streams">1</property>
  <property name="kdenlive:original.meta.media.0.stream.type">video</property>
  <property name="kdenlive:original.meta.media.0.stream.frame_rate">60</property>
  <property name="kdenlive:original.meta.media.0.stream.sample_aspect_ratio">0</property>
  <property name="kdenlive:original.meta.media.0.codec.width">3840</property>
  <property name="kdenlive:original.meta.media.0.codec.height">2160</property>
  <property name="kdenlive:original.meta.media.0.codec.rotate">0</property>
  <property name="kdenlive:original.meta.media.0.codec.pix_fmt">yuv420p</property>
  <property name="kdenlive:original.meta.media.0.codec.sample_aspect_ratio">0</property>
  <property name="kdenlive:original.meta.media.0.codec.colorspace">709</property>
  <property name="kdenlive:original.meta.media.0.codec.name">h264</property>
  <property name="kdenlive:original.meta.media.0.codec.long_name">H.264 / AVC / MPEG-4 AVC / MPEG-4 part 10</property>
  <property name="kdenlive:original.meta.media.0.codec.bit_rate">1366773</property>
  <property name="kdenlive:original.meta.attr.0.stream.handler_name.markup">VideoHandler</property>
  <property name="kdenlive:original.meta.attr.0.stream.vendor_id.markup">[0][0][0][0]</property>
  <property name="kdenlive:original.meta.attr.0.stream.encoder.markup">Lavc60.3.100 libx264</property>
  <property name="kdenlive:original.meta.attr.major_brand.markup">isom</property>
  <property name="kdenlive:original.meta.attr.minor_version.markup">512</property>
  <property name="kdenlive:original.meta.attr.compatible_brands.markup">isomiso2avc1mp41</property>
  <property name="kdenlive:original.meta.attr.encoder.markup">Lavf60.3.100</property>
  <property name="kdenlive:original.meta.attr.comment.markup">Rendered with Manim Community v0.17.2</property>
  <property name="kdenlive:original.seekable">1</property>
  <property name="kdenlive:original.width">3840</property>
  <property name="kdenlive:original.height">2160</property>
  <property name="kdenlive:original.meta.media.sample_aspect_num">1</property>
  <property name="kdenlive:original.meta.media.sample_aspect_den">1</property>
  <property name="kdenlive:original.aspect_ratio">1</property>
  <property name="kdenlive:original.format">3</property>
  <property name="kdenlive:original.audio_index">-1</property>
  <property name="kdenlive:original.video_index">0</property>
  <property name="kdenlive:original.mute_on_pause">0</property>
  <property name="kdenlive:original.mlt_service">avformat-novalidate</property>
  <property name="kdenlive:original.meta.media.frame_rate_num">60</property>
  <property name="kdenlive:original.meta.media.frame_rate_den">1</property>
  <property name="kdenlive:original.meta.media.colorspace">709</property>
  <property name="kdenlive:original.meta.media.color_trc">2</property>
  <property name="kdenlive:original.meta.media.has_b_frames">2</property>
  <property name="kdenlive:original.meta.media.width">3840</property>
  <property name="kdenlive:original.meta.media.height">2160</property>
  <property name="kdenlive:original.meta.media.color_range">mpeg</property>
  <property name="kdenlive:original.meta.media.top_field_first">0</property>
  <property name="kdenlive:original.meta.media.progressive">1</property>
  <property name="kdenlive:original.kdenlive:clip_type">2</property>
  <property name="kdenlive:original.kdenlive:folderid">653</property>
  <property name="kdenlive:original.kdenlive:id">682</property>
  <property name="kdenlive:original.kdenlive:file_size">258157</property>
  <property name="kdenlive:original.kdenlive:file_hash">29d0230bf82c4a0775cfe30f34249d0e</property>
  <property name="kdenlive:original.backup">1</property>
  <property name="meta.media.frame_rate_num">60</property>
  <property name="meta.media.frame_rate_den">1</property>
  <property name="meta.media.colorspace">601</property>
  <property name="meta.media.color_trc">2</property>
  <property name="meta.media.has_b_frames">0</property>
  <property name="meta.media.width">640</property>
  <property name="meta.media.height">360</property>
  <property name="meta.media.color_range">full</property>
  <property name="meta.media.top_field_first">0</property>
  <property name="meta.media.progressive">1</property>
 </producer>
 <producer id="producer479" in="00:00:00.000" out="00:00:00.983">
  <property name="length">60</property>
  <property name="eof">pause</property>
  <property name="resource">/home/xiaoxiae/.cache/kdenlive/proxy/755ba6e82aeca20655d9854d2decc9b9.mkv</property>
  <property name="meta.media.nb_streams">1</property>
  <property name="meta.media.0.stream.type">video</property>
  <property name="meta.media.0.stream.frame_rate">60</property>
  <property name="meta.media.0.stream.sample_aspect_ratio">0</property>
  <property name="meta.media.0.codec.width">640</property>
  <property name="meta.media.0.codec.height">360</property>
  <property name="meta.media.0.codec.rotate">0</property>
  <property name="meta.media.0.codec.pix_fmt">yuvj420p</property>
  <property name="meta.media.0.codec.sample_aspect_ratio">0</property>
  <property name="meta.media.0.codec.colorspace">601</property>
  <property name="meta.media.0.codec.name">mjpeg</property>
  <property name="meta.media.0.codec.long_name">MJPEG (Motion JPEG)</property>
  <property name="meta.media.0.codec.bit_rate">0</property>
  <property name="meta.attr.0.stream.HANDLER_NAME.markup">VideoHandler</property>
  <property name="meta.attr.0.stream.VENDOR_ID.markup">[0][0][0][0]</property>
  <property name="meta.attr.0.stream.ENCODER.markup">Lavc60.3.100 mjpeg</property>
  <property name="meta.attr.0.stream.DURATION.markup">00:00:01.000000000</property>
  <property name="meta.attr.COMMENT.markup">Rendered with Manim Community v0.17.2</property>
  <property name="meta.attr.MAJOR_BRAND.markup">isom</property>
  <property name="meta.attr.MINOR_VERSION.markup">512</property>
  <property name="meta.attr.COMPATIBLE_BRANDS.markup">isomiso2avc1mp41</property>
  <property name="meta.attr.ENCODER.markup">Lavf60.3.100</property>
  <property name="seekable">1</property>
  <property name="meta.media.sample_aspect_num">1</property>
  <property name="meta.media.sample_aspect_den">1</property>
  <property name="aspect_ratio">1</property>
  <property name="format">3</property>
  <property name="audio_index">-1</property>
  <property name="video_index">0</property>
  <property name="mute_on_pause">0</property>
  <property name="mlt_service">avformat-novalidate</property>
  <property name="kdenlive:clipname">36.mp4</property>
  <property name="kdenlive:clip_type">2</property>
  <property name="kdenlive:folderid">653</property>
  <property name="kdenlive:id">569</property>
  <property name="kdenlive:file_size">105655</property>
  <property name="kdenlive:file_hash">755ba6e82aeca20655d9854d2decc9b9</property>
  <property name="kdenlive:proxy">/home/xiaoxiae/.cache/kdenlive/proxy/755ba6e82aeca20655d9854d2decc9b9.mkv</property>
  <property name="kdenlive:originalurl">video/Deletion/36.mp4</property>
  <property name="kdenlive:original.mlt_type">producer</property>
  <property name="kdenlive:original.in">0</property>
  <property name="kdenlive:original.out">59</property>
  <property name="kdenlive:original.length">60</property>
  <property name="kdenlive:original.eof">pause</property>
  <property name="kdenlive:original.resource">video/Deletion/36.mp4</property>
  <property name="kdenlive:original.meta.media.nb_streams">1</property>
  <property name="kdenlive:original.meta.media.0.stream.type">video</property>
  <property name="kdenlive:original.meta.media.0.stream.frame_rate">60</property>
  <property name="kdenlive:original.meta.media.0.stream.sample_aspect_ratio">0</property>
  <property name="kdenlive:original.meta.media.0.codec.width">3840</property>
  <property name="kdenlive:original.meta.media.0.codec.height">2160</property>
  <property name="kdenlive:original.meta.media.0.codec.rotate">0</property>
  <property name="kdenlive:original.meta.media.0.codec.pix_fmt">yuv420p</property>
  <property name="kdenlive:original.meta.media.0.codec.sample_aspect_ratio">0</property>
  <property name="kdenlive:original.meta.media.0.codec.colorspace">709</property>
  <property name="kdenlive:original.meta.media.0.codec.name">h264</property>
  <property name="kdenlive:original.meta.media.0.codec.long_name">H.264 / AVC / MPEG-4 AVC / MPEG-4 part 10</property>
  <property name="kdenlive:original.meta.media.0.codec.bit_rate">832192</property>
  <property name="kdenlive:original.meta.attr.0.stream.handler_name.markup">VideoHandler</property>
  <property name="kdenlive:original.meta.attr.0.stream.vendor_id.markup">[0][0][0][0]</property>
  <property name="kdenlive:original.meta.attr.0.stream.encoder.markup">Lavc60.3.100 libx264</property>
  <property name="kdenlive:original.meta.attr.major_brand.markup">isom</property>
  <property name="kdenlive:original.meta.attr.minor_version.markup">512</property>
  <property name="kdenlive:original.meta.attr.compatible_brands.markup">isomiso2avc1mp41</property>
  <property name="kdenlive:original.meta.attr.encoder.markup">Lavf60.3.100</property>
  <property name="kdenlive:original.meta.attr.comment.markup">Rendered with Manim Community v0.17.2</property>
  <property name="kdenlive:original.seekable">1</property>
  <property name="kdenlive:original.width">3840</property>
  <property name="kdenlive:original.height">2160</property>
  <property name="kdenlive:original.meta.media.sample_aspect_num">1</property>
  <property name="kdenlive:original.meta.media.sample_aspect_den">1</property>
  <property name="kdenlive:original.aspect_ratio">1</property>
  <property name="kdenlive:original.format">3</property>
  <property name="kdenlive:original.audio_index">-1</property>
  <property name="kdenlive:original.video_index">0</property>
  <property name="kdenlive:original.mute_on_pause">0</property>
  <property name="kdenlive:original.mlt_service">avformat-novalidate</property>
  <property name="kdenlive:original.meta.media.frame_rate_num">60</property>
  <property name="kdenlive:original.meta.media.frame_rate_den">1</property>
  <property name="kdenlive:original.meta.media.colorspace">709</property>
  <property name="kdenlive:original.meta.media.color_trc">2</property>
  <property name="kdenlive:original.meta.media.has_b_frames">2</property>
  <property name="kdenlive:original.meta.media.width">3840</property>
  <property name="kdenlive:original.meta.media.height">2160</property>
  <property name="kdenlive:original.meta.media.color_range">mpeg</property>
  <property name="kdenlive:original.meta.media.top_field_first">0</property>
  <property name="kdenlive:original.meta.media.progressive">1</property>
  <property name="kdenlive:original.kdenlive:clip_type">2</property>
  <property name="kdenlive:original.kdenlive:folderid">653</property>
  <property name="kdenlive:original.kdenlive:id">683</property>
  <property name="kdenlive:original.kdenlive:file_size">105655</property>
  <property name="kdenlive:original.kdenlive:file_hash">755ba6e82aeca20655d9854d2decc9b9</property>
  <property name="kdenlive:original.backup">1</property>
  <property name="meta.media.frame_rate_num">60</property>
  <property name="meta.media.frame_rate_den">1</property>
  <property name="meta.media.colorspace">601</property>
  <property name="meta.media.color_trc">2</property>
  <property name="meta.media.has_b_frames">0</property>
  <property name="meta.media.width">640</property>
  <property name="meta.media.height">360</property>
  <property name="meta.media.color_range">full</property>
  <property name="meta.media.top_field_first">0</property>
  <property name="meta.media.progressive">1</property>
 </producer>
 <producer id="producer480" in="00:00:00.000" out="00:00:00.983">
  <property name="length">60</property>
  <property name="eof">pause</property>
  <property name="resource">/home/xiaoxiae/.cache/kdenlive/proxy/c760c4b3d9bde1ceb7229d9ce70728b5.mkv</property>
  <property name="meta.media.nb_streams">1</property>
  <property name="meta.media.0.stream.type">video</property>
  <property name="meta.media.0.stream.frame_rate">60</property>
  <property name="meta.media.0.stream.sample_aspect_ratio">0</property>
  <property name="meta.media.0.codec.width">640</property>
  <property name="meta.media.0.codec.height">360</property>
  <property name="meta.media.0.codec.rotate">0</property>
  <property name="meta.media.0.codec.pix_fmt">yuvj420p</property>
  <property name="meta.media.0.codec.sample_aspect_ratio">0</property>
  <property name="meta.media.0.codec.colorspace">601</property>
  <property name="meta.media.0.codec.name">mjpeg</property>
  <property name="meta.media.0.codec.long_name">MJPEG (Motion JPEG)</property>
  <property name="meta.media.0.codec.bit_rate">0</property>
  <property name="meta.attr.0.stream.HANDLER_NAME.markup">VideoHandler</property>
  <property name="meta.attr.0.stream.VENDOR_ID.markup">[0][0][0][0]</property>
  <property name="meta.attr.0.stream.ENCODER.markup">Lavc60.3.100 mjpeg</property>
  <property name="meta.attr.0.stream.DURATION.markup">00:00:01.000000000</property>
  <property name="meta.attr.COMMENT.markup">Rendered with Manim Community v0.17.2</property>
  <property name="meta.attr.MAJOR_BRAND.markup">isom</property>
  <property name="meta.attr.MINOR_VERSION.markup">512</property>
  <property name="meta.attr.COMPATIBLE_BRANDS.markup">isomiso2avc1mp41</property>
  <property name="meta.attr.ENCODER.markup">Lavf60.3.100</property>
  <property name="seekable">1</property>
  <property name="meta.media.sample_aspect_num">1</property>
  <property name="meta.media.sample_aspect_den">1</property>
  <property name="aspect_ratio">1</property>
  <property name="format">3</property>
  <property name="audio_index">-1</property>
  <property name="video_index">0</property>
  <property name="mute_on_pause">0</property>
  <property name="mlt_service">avformat-novalidate</property>
  <property name="kdenlive:clipname">37.mp4</property>
  <property name="kdenlive:clip_type">2</property>
  <property name="kdenlive:folderid">653</property>
  <property name="kdenlive:id">570</property>
  <property name="kdenlive:file_size">91211</property>
  <property name="kdenlive:file_hash">c760c4b3d9bde1ceb7229d9ce70728b5</property>
  <property name="kdenlive:proxy">/home/xiaoxiae/.cache/kdenlive/proxy/c760c4b3d9bde1ceb7229d9ce70728b5.mkv</property>
  <property name="kdenlive:originalurl">video/Deletion/37.mp4</property>
  <property name="kdenlive:original.mlt_type">producer</property>
  <property name="kdenlive:original.in">0</property>
  <property name="kdenlive:original.out">59</property>
  <property name="kdenlive:original.length">60</property>
  <property name="kdenlive:original.eof">pause</property>
  <property name="kdenlive:original.resource">video/Deletion/37.mp4</property>
  <property name="kdenlive:original.meta.media.nb_streams">1</property>
  <property name="kdenlive:original.meta.media.0.stream.type">video</property>
  <property name="kdenlive:original.meta.media.0.stream.frame_rate">60</property>
  <property name="kdenlive:original.meta.media.0.stream.sample_aspect_ratio">0</property>
  <property name="kdenlive:original.meta.media.0.codec.width">3840</property>
  <property name="kdenlive:original.meta.media.0.codec.height">2160</property>
  <property name="kdenlive:original.meta.media.0.codec.rotate">0</property>
  <property name="kdenlive:original.meta.media.0.codec.pix_fmt">yuv420p</property>
  <property name="kdenlive:original.meta.media.0.codec.sample_aspect_ratio">0</property>
  <property name="kdenlive:original.meta.media.0.codec.colorspace">709</property>
  <property name="kdenlive:original.meta.media.0.codec.name">h264</property>
  <property name="kdenlive:original.meta.media.0.codec.long_name">H.264 / AVC / MPEG-4 AVC / MPEG-4 part 10</property>
  <property name="kdenlive:original.meta.media.0.codec.bit_rate">716640</property>
  <property name="kdenlive:original.meta.attr.0.stream.handler_name.markup">VideoHandler</property>
  <property name="kdenlive:original.meta.attr.0.stream.vendor_id.markup">[0][0][0][0]</property>
  <property name="kdenlive:original.meta.attr.0.stream.encoder.markup">Lavc60.3.100 libx264</property>
  <property name="kdenlive:original.meta.attr.major_brand.markup">isom</property>
  <property name="kdenlive:original.meta.attr.minor_version.markup">512</property>
  <property name="kdenlive:original.meta.attr.compatible_brands.markup">isomiso2avc1mp41</property>
  <property name="kdenlive:original.meta.attr.encoder.markup">Lavf60.3.100</property>
  <property name="kdenlive:original.meta.attr.comment.markup">Rendered with Manim Community v0.17.2</property>
  <property name="kdenlive:original.seekable">1</property>
  <property name="kdenlive:original.width">3840</property>
  <property name="kdenlive:original.height">2160</property>
  <property name="kdenlive:original.meta.media.sample_aspect_num">1</property>
  <property name="kdenlive:original.meta.media.sample_aspect_den">1</property>
  <property name="kdenlive:original.aspect_ratio">1</property>
  <property name="kdenlive:original.format">3</property>
  <property name="kdenlive:original.audio_index">-1</property>
  <property name="kdenlive:original.video_index">0</property>
  <property name="kdenlive:original.mute_on_pause">0</property>
  <property name="kdenlive:original.mlt_service">avformat-novalidate</property>
  <property name="kdenlive:original.meta.media.frame_rate_num">60</property>
  <property name="kdenlive:original.meta.media.frame_rate_den">1</property>
  <property name="kdenlive:original.meta.media.colorspace">709</property>
  <property name="kdenlive:original.meta.media.color_trc">2</property>
  <property name="kdenlive:original.meta.media.has_b_frames">2</property>
  <property name="kdenlive:original.meta.media.width">3840</property>
  <property name="kdenlive:original.meta.media.height">2160</property>
  <property name="kdenlive:original.meta.media.color_range">mpeg</property>
  <property name="kdenlive:original.meta.media.top_field_first">0</property>
  <property name="kdenlive:original.meta.media.progressive">1</property>
  <property name="kdenlive:original.kdenlive:clip_type">2</property>
  <property name="kdenlive:original.kdenlive:folderid">653</property>
  <property name="kdenlive:original.kdenlive:id">684</property>
  <property name="kdenlive:original.kdenlive:file_size">91211</property>
  <property name="kdenlive:original.kdenlive:file_hash">c760c4b3d9bde1ceb7229d9ce70728b5</property>
  <property name="kdenlive:original.backup">1</property>
  <property name="meta.media.frame_rate_num">60</property>
  <property name="meta.media.frame_rate_den">1</property>
  <property name="meta.media.colorspace">601</property>
  <property name="meta.media.color_trc">2</property>
  <property name="meta.media.has_b_frames">0</property>
  <property name="meta.media.width">640</property>
  <property name="meta.media.height">360</property>
  <property name="meta.media.color_range">full</property>
  <property name="meta.media.top_field_first">0</property>
  <property name="meta.media.progressive">1</property>
 </producer>
 <producer id="producer481" in="00:00:00.000" out="00:00:00.983">
  <property name="length">60</property>
  <property name="eof">pause</property>
  <property name="resource">/home/xiaoxiae/.cache/kdenlive/proxy/a25f5db7cc2389a5251ede94c0f7f8b9.mkv</property>
  <property name="meta.media.nb_streams">1</property>
  <property name="meta.media.0.stream.type">video</property>
  <property name="meta.media.0.stream.frame_rate">60</property>
  <property name="meta.media.0.stream.sample_aspect_ratio">0</property>
  <property name="meta.media.0.codec.width">640</property>
  <property name="meta.media.0.codec.height">360</property>
  <property name="meta.media.0.codec.rotate">0</property>
  <property name="meta.media.0.codec.pix_fmt">yuvj420p</property>
  <property name="meta.media.0.codec.sample_aspect_ratio">0</property>
  <property name="meta.media.0.codec.colorspace">601</property>
  <property name="meta.media.0.codec.name">mjpeg</property>
  <property name="meta.media.0.codec.long_name">MJPEG (Motion JPEG)</property>
  <property name="meta.media.0.codec.bit_rate">0</property>
  <property name="meta.attr.0.stream.HANDLER_NAME.markup">VideoHandler</property>
  <property name="meta.attr.0.stream.VENDOR_ID.markup">[0][0][0][0]</property>
  <property name="meta.attr.0.stream.ENCODER.markup">Lavc60.3.100 mjpeg</property>
  <property name="meta.attr.0.stream.DURATION.markup">00:00:01.000000000</property>
  <property name="meta.attr.COMMENT.markup">Rendered with Manim Community v0.17.2</property>
  <property name="meta.attr.MAJOR_BRAND.markup">isom</property>
  <property name="meta.attr.MINOR_VERSION.markup">512</property>
  <property name="meta.attr.COMPATIBLE_BRANDS.markup">isomiso2avc1mp41</property>
  <property name="meta.attr.ENCODER.markup">Lavf60.3.100</property>
  <property name="seekable">1</property>
  <property name="meta.media.sample_aspect_num">1</property>
  <property name="meta.media.sample_aspect_den">1</property>
  <property name="aspect_ratio">1</property>
  <property name="format">3</property>
  <property name="audio_index">-1</property>
  <property name="video_index">0</property>
  <property name="mute_on_pause">0</property>
  <property name="mlt_service">avformat-novalidate</property>
  <property name="kdenlive:clipname">38.mp4</property>
  <property name="kdenlive:clip_type">2</property>
  <property name="kdenlive:folderid">653</property>
  <property name="kdenlive:id">571</property>
  <property name="kdenlive:file_size">145224</property>
  <property name="kdenlive:file_hash">a25f5db7cc2389a5251ede94c0f7f8b9</property>
  <property name="kdenlive:proxy">/home/xiaoxiae/.cache/kdenlive/proxy/a25f5db7cc2389a5251ede94c0f7f8b9.mkv</property>
  <property name="kdenlive:originalurl">video/Deletion/38.mp4</property>
  <property name="kdenlive:original.mlt_type">producer</property>
  <property name="kdenlive:original.in">0</property>
  <property name="kdenlive:original.out">59</property>
  <property name="kdenlive:original.length">60</property>
  <property name="kdenlive:original.eof">pause</property>
  <property name="kdenlive:original.resource">video/Deletion/38.mp4</property>
  <property name="kdenlive:original.meta.media.nb_streams">1</property>
  <property name="kdenlive:original.meta.media.0.stream.type">video</property>
  <property name="kdenlive:original.meta.media.0.stream.frame_rate">60</property>
  <property name="kdenlive:original.meta.media.0.stream.sample_aspect_ratio">0</property>
  <property name="kdenlive:original.meta.media.0.codec.width">3840</property>
  <property name="kdenlive:original.meta.media.0.codec.height">2160</property>
  <property name="kdenlive:original.meta.media.0.codec.rotate">0</property>
  <property name="kdenlive:original.meta.media.0.codec.pix_fmt">yuv420p</property>
  <property name="kdenlive:original.meta.media.0.codec.sample_aspect_ratio">0</property>
  <property name="kdenlive:original.meta.media.0.codec.colorspace">709</property>
  <property name="kdenlive:original.meta.media.0.codec.name">h264</property>
  <property name="kdenlive:original.meta.media.0.codec.long_name">H.264 / AVC / MPEG-4 AVC / MPEG-4 part 10</property>
  <property name="kdenlive:original.meta.media.0.codec.bit_rate">1148744</property>
  <property name="kdenlive:original.meta.attr.0.stream.handler_name.markup">VideoHandler</property>
  <property name="kdenlive:original.meta.attr.0.stream.vendor_id.markup">[0][0][0][0]</property>
  <property name="kdenlive:original.meta.attr.0.stream.encoder.markup">Lavc60.3.100 libx264</property>
  <property name="kdenlive:original.meta.attr.major_brand.markup">isom</property>
  <property name="kdenlive:original.meta.attr.minor_version.markup">512</property>
  <property name="kdenlive:original.meta.attr.compatible_brands.markup">isomiso2avc1mp41</property>
  <property name="kdenlive:original.meta.attr.encoder.markup">Lavf60.3.100</property>
  <property name="kdenlive:original.meta.attr.comment.markup">Rendered with Manim Community v0.17.2</property>
  <property name="kdenlive:original.seekable">1</property>
  <property name="kdenlive:original.width">3840</property>
  <property name="kdenlive:original.height">2160</property>
  <property name="kdenlive:original.meta.media.sample_aspect_num">1</property>
  <property name="kdenlive:original.meta.media.sample_aspect_den">1</property>
  <property name="kdenlive:original.aspect_ratio">1</property>
  <property name="kdenlive:original.format">3</property>
  <property name="kdenlive:original.audio_index">-1</property>
  <property name="kdenlive:original.video_index">0</property>
  <property name="kdenlive:original.mute_on_pause">0</property>
  <property name="kdenlive:original.mlt_service">avformat-novalidate</property>
  <property name="kdenlive:original.meta.media.frame_rate_num">60</property>
  <property name="kdenlive:original.meta.media.frame_rate_den">1</property>
  <property name="kdenlive:original.meta.media.colorspace">709</property>
  <property name="kdenlive:original.meta.media.color_trc">2</property>
  <property name="kdenlive:original.meta.media.has_b_frames">2</property>
  <property name="kdenlive:original.meta.media.width">3840</property>
  <property name="kdenlive:original.meta.media.height">2160</property>
  <property name="kdenlive:original.meta.media.color_range">mpeg</property>
  <property name="kdenlive:original.meta.media.top_field_first">0</property>
  <property name="kdenlive:original.meta.media.progressive">1</property>
  <property name="kdenlive:original.kdenlive:clip_type">2</property>
  <property name="kdenlive:original.kdenlive:folderid">653</property>
  <property name="kdenlive:original.kdenlive:id">685</property>
  <property name="kdenlive:original.kdenlive:file_size">145224</property>
  <property name="kdenlive:original.kdenlive:file_hash">a25f5db7cc2389a5251ede94c0f7f8b9</property>
  <property name="kdenlive:original.backup">1</property>
  <property name="meta.media.frame_rate_num">60</property>
  <property name="meta.media.frame_rate_den">1</property>
  <property name="meta.media.colorspace">601</property>
  <property name="meta.media.color_trc">2</property>
  <property name="meta.media.has_b_frames">0</property>
  <property name="meta.media.width">640</property>
  <property name="meta.media.height">360</property>
  <property name="meta.media.color_range">full</property>
  <property name="meta.media.top_field_first">0</property>
  <property name="meta.media.progressive">1</property>
 </producer>
 <producer id="producer482" in="00:00:00.000" out="00:00:01.383">
  <property name="length">84</property>
  <property name="eof">pause</property>
  <property name="resource">/home/xiaoxiae/.cache/kdenlive/proxy/6045f7877b688416f554626cf27f8459.mkv</property>
  <property name="meta.media.nb_streams">1</property>
  <property name="meta.media.0.stream.type">video</property>
  <property name="meta.media.0.stream.frame_rate">60</property>
  <property name="meta.media.0.stream.sample_aspect_ratio">0</property>
  <property name="meta.media.0.codec.width">640</property>
  <property name="meta.media.0.codec.height">360</property>
  <property name="meta.media.0.codec.rotate">0</property>
  <property name="meta.media.0.codec.pix_fmt">yuvj420p</property>
  <property name="meta.media.0.codec.sample_aspect_ratio">0</property>
  <property name="meta.media.0.codec.colorspace">601</property>
  <property name="meta.media.0.codec.name">mjpeg</property>
  <property name="meta.media.0.codec.long_name">MJPEG (Motion JPEG)</property>
  <property name="meta.media.0.codec.bit_rate">0</property>
  <property name="meta.attr.0.stream.HANDLER_NAME.markup">VideoHandler</property>
  <property name="meta.attr.0.stream.VENDOR_ID.markup">[0][0][0][0]</property>
  <property name="meta.attr.0.stream.ENCODER.markup">Lavc60.3.100 mjpeg</property>
  <property name="meta.attr.0.stream.DURATION.markup">00:00:01.400000000</property>
  <property name="meta.attr.COMMENT.markup">Rendered with Manim Community v0.17.2</property>
  <property name="meta.attr.MAJOR_BRAND.markup">isom</property>
  <property name="meta.attr.MINOR_VERSION.markup">512</property>
  <property name="meta.attr.COMPATIBLE_BRANDS.markup">isomiso2avc1mp41</property>
  <property name="meta.attr.ENCODER.markup">Lavf60.3.100</property>
  <property name="seekable">1</property>
  <property name="meta.media.sample_aspect_num">1</property>
  <property name="meta.media.sample_aspect_den">1</property>
  <property name="aspect_ratio">1</property>
  <property name="format">3</property>
  <property name="audio_index">-1</property>
  <property name="video_index">0</property>
  <property name="mute_on_pause">0</property>
  <property name="mlt_service">avformat-novalidate</property>
  <property name="kdenlive:clipname">39.mp4</property>
  <property name="kdenlive:clip_type">2</property>
  <property name="kdenlive:folderid">653</property>
  <property name="kdenlive:id">572</property>
  <property name="kdenlive:file_size">206631</property>
  <property name="kdenlive:file_hash">6045f7877b688416f554626cf27f8459</property>
  <property name="kdenlive:proxy">/home/xiaoxiae/.cache/kdenlive/proxy/6045f7877b688416f554626cf27f8459.mkv</property>
  <property name="kdenlive:originalurl">video/Deletion/39.mp4</property>
  <property name="kdenlive:original.mlt_type">producer</property>
  <property name="kdenlive:original.in">0</property>
  <property name="kdenlive:original.out">83</property>
  <property name="kdenlive:original.length">84</property>
  <property name="kdenlive:original.eof">pause</property>
  <property name="kdenlive:original.resource">video/Deletion/39.mp4</property>
  <property name="kdenlive:original.meta.media.nb_streams">1</property>
  <property name="kdenlive:original.meta.media.0.stream.type">video</property>
  <property name="kdenlive:original.meta.media.0.stream.frame_rate">60</property>
  <property name="kdenlive:original.meta.media.0.stream.sample_aspect_ratio">0</property>
  <property name="kdenlive:original.meta.media.0.codec.width">3840</property>
  <property name="kdenlive:original.meta.media.0.codec.height">2160</property>
  <property name="kdenlive:original.meta.media.0.codec.rotate">0</property>
  <property name="kdenlive:original.meta.media.0.codec.pix_fmt">yuv420p</property>
  <property name="kdenlive:original.meta.media.0.codec.sample_aspect_ratio">0</property>
  <property name="kdenlive:original.meta.media.0.codec.colorspace">709</property>
  <property name="kdenlive:original.meta.media.0.codec.name">h264</property>
  <property name="kdenlive:original.meta.media.0.codec.long_name">H.264 / AVC / MPEG-4 AVC / MPEG-4 part 10</property>
  <property name="kdenlive:original.meta.media.0.codec.bit_rate">1169782</property>
  <property name="kdenlive:original.meta.attr.0.stream.handler_name.markup">VideoHandler</property>
  <property name="kdenlive:original.meta.attr.0.stream.vendor_id.markup">[0][0][0][0]</property>
  <property name="kdenlive:original.meta.attr.0.stream.encoder.markup">Lavc60.3.100 libx264</property>
  <property name="kdenlive:original.meta.attr.major_brand.markup">isom</property>
  <property name="kdenlive:original.meta.attr.minor_version.markup">512</property>
  <property name="kdenlive:original.meta.attr.compatible_brands.markup">isomiso2avc1mp41</property>
  <property name="kdenlive:original.meta.attr.encoder.markup">Lavf60.3.100</property>
  <property name="kdenlive:original.meta.attr.comment.markup">Rendered with Manim Community v0.17.2</property>
  <property name="kdenlive:original.seekable">1</property>
  <property name="kdenlive:original.width">3840</property>
  <property name="kdenlive:original.height">2160</property>
  <property name="kdenlive:original.meta.media.sample_aspect_num">1</property>
  <property name="kdenlive:original.meta.media.sample_aspect_den">1</property>
  <property name="kdenlive:original.aspect_ratio">1</property>
  <property name="kdenlive:original.format">3</property>
  <property name="kdenlive:original.audio_index">-1</property>
  <property name="kdenlive:original.video_index">0</property>
  <property name="kdenlive:original.mute_on_pause">0</property>
  <property name="kdenlive:original.mlt_service">avformat-novalidate</property>
  <property name="kdenlive:original.meta.media.frame_rate_num">60</property>
  <property name="kdenlive:original.meta.media.frame_rate_den">1</property>
  <property name="kdenlive:original.meta.media.colorspace">709</property>
  <property name="kdenlive:original.meta.media.color_trc">2</property>
  <property name="kdenlive:original.meta.media.has_b_frames">2</property>
  <property name="kdenlive:original.meta.media.width">3840</property>
  <property name="kdenlive:original.meta.media.height">2160</property>
  <property name="kdenlive:original.meta.media.color_range">mpeg</property>
  <property name="kdenlive:original.meta.media.top_field_first">0</property>
  <property name="kdenlive:original.meta.media.progressive">1</property>
  <property name="kdenlive:original.kdenlive:clip_type">2</property>
  <property name="kdenlive:original.kdenlive:folderid">653</property>
  <property name="kdenlive:original.kdenlive:id">686</property>
  <property name="kdenlive:original.kdenlive:file_size">206631</property>
  <property name="kdenlive:original.kdenlive:file_hash">6045f7877b688416f554626cf27f8459</property>
  <property name="kdenlive:original.backup">1</property>
  <property name="meta.media.frame_rate_num">60</property>
  <property name="meta.media.frame_rate_den">1</property>
  <property name="meta.media.colorspace">601</property>
  <property name="meta.media.color_trc">2</property>
  <property name="meta.media.has_b_frames">0</property>
  <property name="meta.media.width">640</property>
  <property name="meta.media.height">360</property>
  <property name="meta.media.color_range">full</property>
  <property name="meta.media.top_field_first">0</property>
  <property name="meta.media.progressive">1</property>
 </producer>
 <producer id="producer483" in="00:00:00.000" out="00:00:00.183">
  <property name="length">12</property>
  <property name="eof">pause</property>
  <property name="resource">/home/xiaoxiae/.cache/kdenlive/proxy/d46d88f2d12a2ed0b74d3db506b97e9b.mkv</property>
  <property name="meta.media.nb_streams">1</property>
  <property name="meta.media.0.stream.type">video</property>
  <property name="meta.media.0.stream.frame_rate">60</property>
  <property name="meta.media.0.stream.sample_aspect_ratio">0</property>
  <property name="meta.media.0.codec.width">640</property>
  <property name="meta.media.0.codec.height">360</property>
  <property name="meta.media.0.codec.rotate">0</property>
  <property name="meta.media.0.codec.pix_fmt">yuvj420p</property>
  <property name="meta.media.0.codec.sample_aspect_ratio">0</property>
  <property name="meta.media.0.codec.colorspace">601</property>
  <property name="meta.media.0.codec.name">mjpeg</property>
  <property name="meta.media.0.codec.long_name">MJPEG (Motion JPEG)</property>
  <property name="meta.media.0.codec.bit_rate">0</property>
  <property name="meta.attr.0.stream.HANDLER_NAME.markup">VideoHandler</property>
  <property name="meta.attr.0.stream.VENDOR_ID.markup">[0][0][0][0]</property>
  <property name="meta.attr.0.stream.ENCODER.markup">Lavc60.3.100 mjpeg</property>
  <property name="meta.attr.0.stream.DURATION.markup">00:00:00.200000000</property>
  <property name="meta.attr.COMMENT.markup">Rendered with Manim Community v0.17.2</property>
  <property name="meta.attr.MAJOR_BRAND.markup">isom</property>
  <property name="meta.attr.MINOR_VERSION.markup">512</property>
  <property name="meta.attr.COMPATIBLE_BRANDS.markup">isomiso2avc1mp41</property>
  <property name="meta.attr.ENCODER.markup">Lavf60.3.100</property>
  <property name="seekable">1</property>
  <property name="meta.media.sample_aspect_num">1</property>
  <property name="meta.media.sample_aspect_den">1</property>
  <property name="aspect_ratio">1</property>
  <property name="format">3</property>
  <property name="audio_index">-1</property>
  <property name="video_index">0</property>
  <property name="mute_on_pause">0</property>
  <property name="mlt_service">avformat-novalidate</property>
  <property name="kdenlive:clipname">4.mp4</property>
  <property name="kdenlive:clip_type">2</property>
  <property name="kdenlive:folderid">653</property>
  <property name="kdenlive:id">573</property>
  <property name="kdenlive:file_size">70900</property>
  <property name="kdenlive:file_hash">d46d88f2d12a2ed0b74d3db506b97e9b</property>
  <property name="kdenlive:proxy">/home/xiaoxiae/.cache/kdenlive/proxy/d46d88f2d12a2ed0b74d3db506b97e9b.mkv</property>
  <property name="kdenlive:originalurl">video/Deletion/4.mp4</property>
  <property name="kdenlive:original.mlt_type">producer</property>
  <property name="kdenlive:original.in">0</property>
  <property name="kdenlive:original.out">11</property>
  <property name="kdenlive:original.length">12</property>
  <property name="kdenlive:original.eof">pause</property>
  <property name="kdenlive:original.resource">video/Deletion/4.mp4</property>
  <property name="kdenlive:original.meta.media.nb_streams">1</property>
  <property name="kdenlive:original.meta.media.0.stream.type">video</property>
  <property name="kdenlive:original.meta.media.0.stream.frame_rate">60</property>
  <property name="kdenlive:original.meta.media.0.stream.sample_aspect_ratio">0</property>
  <property name="kdenlive:original.meta.media.0.codec.width">3840</property>
  <property name="kdenlive:original.meta.media.0.codec.height">2160</property>
  <property name="kdenlive:original.meta.media.0.codec.rotate">0</property>
  <property name="kdenlive:original.meta.media.0.codec.pix_fmt">yuv420p</property>
  <property name="kdenlive:original.meta.media.0.codec.sample_aspect_ratio">0</property>
  <property name="kdenlive:original.meta.media.0.codec.colorspace">709</property>
  <property name="kdenlive:original.meta.media.0.codec.name">h264</property>
  <property name="kdenlive:original.meta.media.0.codec.long_name">H.264 / AVC / MPEG-4 AVC / MPEG-4 part 10</property>
  <property name="kdenlive:original.meta.media.0.codec.bit_rate">2794120</property>
  <property name="kdenlive:original.meta.attr.0.stream.handler_name.markup">VideoHandler</property>
  <property name="kdenlive:original.meta.attr.0.stream.vendor_id.markup">[0][0][0][0]</property>
  <property name="kdenlive:original.meta.attr.0.stream.encoder.markup">Lavc60.3.100 libx264</property>
  <property name="kdenlive:original.meta.attr.major_brand.markup">isom</property>
  <property name="kdenlive:original.meta.attr.minor_version.markup">512</property>
  <property name="kdenlive:original.meta.attr.compatible_brands.markup">isomiso2avc1mp41</property>
  <property name="kdenlive:original.meta.attr.encoder.markup">Lavf60.3.100</property>
  <property name="kdenlive:original.meta.attr.comment.markup">Rendered with Manim Community v0.17.2</property>
  <property name="kdenlive:original.seekable">1</property>
  <property name="kdenlive:original.width">3840</property>
  <property name="kdenlive:original.height">2160</property>
  <property name="kdenlive:original.meta.media.sample_aspect_num">1</property>
  <property name="kdenlive:original.meta.media.sample_aspect_den">1</property>
  <property name="kdenlive:original.aspect_ratio">1</property>
  <property name="kdenlive:original.format">3</property>
  <property name="kdenlive:original.audio_index">-1</property>
  <property name="kdenlive:original.video_index">0</property>
  <property name="kdenlive:original.mute_on_pause">0</property>
  <property name="kdenlive:original.mlt_service">avformat-novalidate</property>
  <property name="kdenlive:original.meta.media.frame_rate_num">60</property>
  <property name="kdenlive:original.meta.media.frame_rate_den">1</property>
  <property name="kdenlive:original.meta.media.colorspace">709</property>
  <property name="kdenlive:original.meta.media.color_trc">2</property>
  <property name="kdenlive:original.meta.media.has_b_frames">2</property>
  <property name="kdenlive:original.meta.media.width">3840</property>
  <property name="kdenlive:original.meta.media.height">2160</property>
  <property name="kdenlive:original.meta.media.color_range">mpeg</property>
  <property name="kdenlive:original.meta.media.top_field_first">0</property>
  <property name="kdenlive:original.meta.media.progressive">1</property>
  <property name="kdenlive:original.kdenlive:clip_type">2</property>
  <property name="kdenlive:original.kdenlive:folderid">653</property>
  <property name="kdenlive:original.kdenlive:id">687</property>
  <property name="kdenlive:original.kdenlive:file_size">70900</property>
  <property name="kdenlive:original.kdenlive:file_hash">d46d88f2d12a2ed0b74d3db506b97e9b</property>
  <property name="kdenlive:original.backup">1</property>
  <property name="meta.media.frame_rate_num">60</property>
  <property name="meta.media.frame_rate_den">1</property>
  <property name="meta.media.colorspace">601</property>
  <property name="meta.media.color_trc">2</property>
  <property name="meta.media.has_b_frames">0</property>
  <property name="meta.media.width">640</property>
  <property name="meta.media.height">360</property>
  <property name="meta.media.color_range">full</property>
  <property name="meta.media.top_field_first">0</property>
  <property name="meta.media.progressive">1</property>
 </producer>
 <producer id="producer485" in="00:00:00.000" out="00:00:00.983">
  <property name="length">60</property>
  <property name="eof">pause</property>
  <property name="resource">/home/xiaoxiae/.cache/kdenlive/proxy/4b220bb6c0d6d3448dadb03601c2c6a0.mkv</property>
  <property name="meta.media.nb_streams">1</property>
  <property name="meta.media.0.stream.type">video</property>
  <property name="meta.media.0.stream.frame_rate">60</property>
  <property name="meta.media.0.stream.sample_aspect_ratio">0</property>
  <property name="meta.media.0.codec.width">640</property>
  <property name="meta.media.0.codec.height">360</property>
  <property name="meta.media.0.codec.rotate">0</property>
  <property name="meta.media.0.codec.pix_fmt">yuvj420p</property>
  <property name="meta.media.0.codec.sample_aspect_ratio">0</property>
  <property name="meta.media.0.codec.colorspace">601</property>
  <property name="meta.media.0.codec.name">mjpeg</property>
  <property name="meta.media.0.codec.long_name">MJPEG (Motion JPEG)</property>
  <property name="meta.media.0.codec.bit_rate">0</property>
  <property name="meta.attr.0.stream.HANDLER_NAME.markup">VideoHandler</property>
  <property name="meta.attr.0.stream.VENDOR_ID.markup">[0][0][0][0]</property>
  <property name="meta.attr.0.stream.ENCODER.markup">Lavc60.3.100 mjpeg</property>
  <property name="meta.attr.0.stream.DURATION.markup">00:00:01.000000000</property>
  <property name="meta.attr.COMMENT.markup">Rendered with Manim Community v0.17.2</property>
  <property name="meta.attr.MAJOR_BRAND.markup">isom</property>
  <property name="meta.attr.MINOR_VERSION.markup">512</property>
  <property name="meta.attr.COMPATIBLE_BRANDS.markup">isomiso2avc1mp41</property>
  <property name="meta.attr.ENCODER.markup">Lavf60.3.100</property>
  <property name="seekable">1</property>
  <property name="meta.media.sample_aspect_num">1</property>
  <property name="meta.media.sample_aspect_den">1</property>
  <property name="aspect_ratio">1</property>
  <property name="format">3</property>
  <property name="audio_index">-1</property>
  <property name="video_index">0</property>
  <property name="mute_on_pause">0</property>
  <property name="mlt_service">avformat-novalidate</property>
  <property name="kdenlive:clipname">40.mp4</property>
  <property name="kdenlive:clip_type">2</property>
  <property name="kdenlive:folderid">653</property>
  <property name="kdenlive:id">574</property>
  <property name="kdenlive:file_size">87399</property>
  <property name="kdenlive:file_hash">4b220bb6c0d6d3448dadb03601c2c6a0</property>
  <property name="kdenlive:proxy">/home/xiaoxiae/.cache/kdenlive/proxy/4b220bb6c0d6d3448dadb03601c2c6a0.mkv</property>
  <property name="kdenlive:originalurl">video/Deletion/40.mp4</property>
  <property name="kdenlive:original.mlt_type">producer</property>
  <property name="kdenlive:original.in">0</property>
  <property name="kdenlive:original.out">59</property>
  <property name="kdenlive:original.length">60</property>
  <property name="kdenlive:original.eof">pause</property>
  <property name="kdenlive:original.resource">video/Deletion/40.mp4</property>
  <property name="kdenlive:original.meta.media.nb_streams">1</property>
  <property name="kdenlive:original.meta.media.0.stream.type">video</property>
  <property name="kdenlive:original.meta.media.0.stream.frame_rate">60</property>
  <property name="kdenlive:original.meta.media.0.stream.sample_aspect_ratio">0</property>
  <property name="kdenlive:original.meta.media.0.codec.width">3840</property>
  <property name="kdenlive:original.meta.media.0.codec.height">2160</property>
  <property name="kdenlive:original.meta.media.0.codec.rotate">0</property>
  <property name="kdenlive:original.meta.media.0.codec.pix_fmt">yuv420p</property>
  <property name="kdenlive:original.meta.media.0.codec.sample_aspect_ratio">0</property>
  <property name="kdenlive:original.meta.media.0.codec.colorspace">709</property>
  <property name="kdenlive:original.meta.media.0.codec.name">h264</property>
  <property name="kdenlive:original.meta.media.0.codec.long_name">H.264 / AVC / MPEG-4 AVC / MPEG-4 part 10</property>
  <property name="kdenlive:original.meta.media.0.codec.bit_rate">686144</property>
  <property name="kdenlive:original.meta.attr.0.stream.handler_name.markup">VideoHandler</property>
  <property name="kdenlive:original.meta.attr.0.stream.vendor_id.markup">[0][0][0][0]</property>
  <property name="kdenlive:original.meta.attr.0.stream.encoder.markup">Lavc60.3.100 libx264</property>
  <property name="kdenlive:original.meta.attr.major_brand.markup">isom</property>
  <property name="kdenlive:original.meta.attr.minor_version.markup">512</property>
  <property name="kdenlive:original.meta.attr.compatible_brands.markup">isomiso2avc1mp41</property>
  <property name="kdenlive:original.meta.attr.encoder.markup">Lavf60.3.100</property>
  <property name="kdenlive:original.meta.attr.comment.markup">Rendered with Manim Community v0.17.2</property>
  <property name="kdenlive:original.seekable">1</property>
  <property name="kdenlive:original.width">3840</property>
  <property name="kdenlive:original.height">2160</property>
  <property name="kdenlive:original.meta.media.sample_aspect_num">1</property>
  <property name="kdenlive:original.meta.media.sample_aspect_den">1</property>
  <property name="kdenlive:original.aspect_ratio">1</property>
  <property name="kdenlive:original.format">3</property>
  <property name="kdenlive:original.audio_index">-1</property>
  <property name="kdenlive:original.video_index">0</property>
  <property name="kdenlive:original.mute_on_pause">0</property>
  <property name="kdenlive:original.mlt_service">avformat-novalidate</property>
  <property name="kdenlive:original.meta.media.frame_rate_num">60</property>
  <property name="kdenlive:original.meta.media.frame_rate_den">1</property>
  <property name="kdenlive:original.meta.media.colorspace">709</property>
  <property name="kdenlive:original.meta.media.color_trc">2</property>
  <property name="kdenlive:original.meta.media.has_b_frames">2</property>
  <property name="kdenlive:original.meta.media.width">3840</property>
  <property name="kdenlive:original.meta.media.height">2160</property>
  <property name="kdenlive:original.meta.media.color_range">mpeg</property>
  <property name="kdenlive:original.meta.media.top_field_first">0</property>
  <property name="kdenlive:original.meta.media.progressive">1</property>
  <property name="kdenlive:original.kdenlive:clip_type">2</property>
  <property name="kdenlive:original.kdenlive:folderid">653</property>
  <property name="kdenlive:original.kdenlive:id">688</property>
  <property name="kdenlive:original.kdenlive:file_size">87399</property>
  <property name="kdenlive:original.kdenlive:file_hash">4b220bb6c0d6d3448dadb03601c2c6a0</property>
  <property name="kdenlive:original.backup">1</property>
  <property name="meta.media.frame_rate_num">60</property>
  <property name="meta.media.frame_rate_den">1</property>
  <property name="meta.media.colorspace">601</property>
  <property name="meta.media.color_trc">2</property>
  <property name="meta.media.has_b_frames">0</property>
  <property name="meta.media.width">640</property>
  <property name="meta.media.height">360</property>
  <property name="meta.media.color_range">full</property>
  <property name="meta.media.top_field_first">0</property>
  <property name="meta.media.progressive">1</property>
 </producer>
 <producer id="producer484" in="00:00:00.000" out="00:00:00.983">
  <property name="length">60</property>
  <property name="eof">pause</property>
  <property name="resource">/home/xiaoxiae/.cache/kdenlive/proxy/961dbe40ca9eac8a8b6965d9c8c2de58.mkv</property>
  <property name="meta.media.nb_streams">1</property>
  <property name="meta.media.0.stream.type">video</property>
  <property name="meta.media.0.stream.frame_rate">60</property>
  <property name="meta.media.0.stream.sample_aspect_ratio">0</property>
  <property name="meta.media.0.codec.width">640</property>
  <property name="meta.media.0.codec.height">360</property>
  <property name="meta.media.0.codec.rotate">0</property>
  <property name="meta.media.0.codec.pix_fmt">yuvj420p</property>
  <property name="meta.media.0.codec.sample_aspect_ratio">0</property>
  <property name="meta.media.0.codec.colorspace">601</property>
  <property name="meta.media.0.codec.name">mjpeg</property>
  <property name="meta.media.0.codec.long_name">MJPEG (Motion JPEG)</property>
  <property name="meta.media.0.codec.bit_rate">0</property>
  <property name="meta.attr.0.stream.HANDLER_NAME.markup">VideoHandler</property>
  <property name="meta.attr.0.stream.VENDOR_ID.markup">[0][0][0][0]</property>
  <property name="meta.attr.0.stream.ENCODER.markup">Lavc60.3.100 mjpeg</property>
  <property name="meta.attr.0.stream.DURATION.markup">00:00:01.000000000</property>
  <property name="meta.attr.COMMENT.markup">Rendered with Manim Community v0.17.2</property>
  <property name="meta.attr.MAJOR_BRAND.markup">isom</property>
  <property name="meta.attr.MINOR_VERSION.markup">512</property>
  <property name="meta.attr.COMPATIBLE_BRANDS.markup">isomiso2avc1mp41</property>
  <property name="meta.attr.ENCODER.markup">Lavf60.3.100</property>
  <property name="seekable">1</property>
  <property name="meta.media.sample_aspect_num">1</property>
  <property name="meta.media.sample_aspect_den">1</property>
  <property name="aspect_ratio">1</property>
  <property name="format">3</property>
  <property name="audio_index">-1</property>
  <property name="video_index">0</property>
  <property name="mute_on_pause">0</property>
  <property name="mlt_service">avformat-novalidate</property>
  <property name="kdenlive:clipname">41.mp4</property>
  <property name="kdenlive:clip_type">2</property>
  <property name="kdenlive:folderid">653</property>
  <property name="kdenlive:id">575</property>
  <property name="kdenlive:file_size">153526</property>
  <property name="kdenlive:file_hash">961dbe40ca9eac8a8b6965d9c8c2de58</property>
  <property name="kdenlive:proxy">/home/xiaoxiae/.cache/kdenlive/proxy/961dbe40ca9eac8a8b6965d9c8c2de58.mkv</property>
  <property name="kdenlive:originalurl">video/Deletion/41.mp4</property>
  <property name="kdenlive:original.mlt_type">producer</property>
  <property name="kdenlive:original.in">0</property>
  <property name="kdenlive:original.out">59</property>
  <property name="kdenlive:original.length">60</property>
  <property name="kdenlive:original.eof">pause</property>
  <property name="kdenlive:original.resource">video/Deletion/41.mp4</property>
  <property name="kdenlive:original.meta.media.nb_streams">1</property>
  <property name="kdenlive:original.meta.media.0.stream.type">video</property>
  <property name="kdenlive:original.meta.media.0.stream.frame_rate">60</property>
  <property name="kdenlive:original.meta.media.0.stream.sample_aspect_ratio">0</property>
  <property name="kdenlive:original.meta.media.0.codec.width">3840</property>
  <property name="kdenlive:original.meta.media.0.codec.height">2160</property>
  <property name="kdenlive:original.meta.media.0.codec.rotate">0</property>
  <property name="kdenlive:original.meta.media.0.codec.pix_fmt">yuv420p</property>
  <property name="kdenlive:original.meta.media.0.codec.sample_aspect_ratio">0</property>
  <property name="kdenlive:original.meta.media.0.codec.colorspace">709</property>
  <property name="kdenlive:original.meta.media.0.codec.name">h264</property>
  <property name="kdenlive:original.meta.media.0.codec.long_name">H.264 / AVC / MPEG-4 AVC / MPEG-4 part 10</property>
  <property name="kdenlive:original.meta.media.0.codec.bit_rate">1215160</property>
  <property name="kdenlive:original.meta.attr.0.stream.handler_name.markup">VideoHandler</property>
  <property name="kdenlive:original.meta.attr.0.stream.vendor_id.markup">[0][0][0][0]</property>
  <property name="kdenlive:original.meta.attr.0.stream.encoder.markup">Lavc60.3.100 libx264</property>
  <property name="kdenlive:original.meta.attr.major_brand.markup">isom</property>
  <property name="kdenlive:original.meta.attr.minor_version.markup">512</property>
  <property name="kdenlive:original.meta.attr.compatible_brands.markup">isomiso2avc1mp41</property>
  <property name="kdenlive:original.meta.attr.encoder.markup">Lavf60.3.100</property>
  <property name="kdenlive:original.meta.attr.comment.markup">Rendered with Manim Community v0.17.2</property>
  <property name="kdenlive:original.seekable">1</property>
  <property name="kdenlive:original.width">3840</property>
  <property name="kdenlive:original.height">2160</property>
  <property name="kdenlive:original.meta.media.sample_aspect_num">1</property>
  <property name="kdenlive:original.meta.media.sample_aspect_den">1</property>
  <property name="kdenlive:original.aspect_ratio">1</property>
  <property name="kdenlive:original.format">3</property>
  <property name="kdenlive:original.audio_index">-1</property>
  <property name="kdenlive:original.video_index">0</property>
  <property name="kdenlive:original.mute_on_pause">0</property>
  <property name="kdenlive:original.mlt_service">avformat-novalidate</property>
  <property name="kdenlive:original.meta.media.frame_rate_num">60</property>
  <property name="kdenlive:original.meta.media.frame_rate_den">1</property>
  <property name="kdenlive:original.meta.media.colorspace">709</property>
  <property name="kdenlive:original.meta.media.color_trc">2</property>
  <property name="kdenlive:original.meta.media.has_b_frames">2</property>
  <property name="kdenlive:original.meta.media.width">3840</property>
  <property name="kdenlive:original.meta.media.height">2160</property>
  <property name="kdenlive:original.meta.media.color_range">mpeg</property>
  <property name="kdenlive:original.meta.media.top_field_first">0</property>
  <property name="kdenlive:original.meta.media.progressive">1</property>
  <property name="kdenlive:original.kdenlive:clip_type">2</property>
  <property name="kdenlive:original.kdenlive:folderid">653</property>
  <property name="kdenlive:original.kdenlive:id">689</property>
  <property name="kdenlive:original.kdenlive:file_size">153526</property>
  <property name="kdenlive:original.kdenlive:file_hash">961dbe40ca9eac8a8b6965d9c8c2de58</property>
  <property name="kdenlive:original.backup">1</property>
  <property name="meta.media.frame_rate_num">60</property>
  <property name="meta.media.frame_rate_den">1</property>
  <property name="meta.media.colorspace">601</property>
  <property name="meta.media.color_trc">2</property>
  <property name="meta.media.has_b_frames">0</property>
  <property name="meta.media.width">640</property>
  <property name="meta.media.height">360</property>
  <property name="meta.media.color_range">full</property>
  <property name="meta.media.top_field_first">0</property>
  <property name="meta.media.progressive">1</property>
 </producer>
 <producer id="producer486" in="00:00:00.000" out="00:00:01.483">
  <property name="length">90</property>
  <property name="eof">pause</property>
  <property name="resource">/home/xiaoxiae/.cache/kdenlive/proxy/50fe3721b975a7dc1d02b701a214d814.mkv</property>
  <property name="meta.media.nb_streams">1</property>
  <property name="meta.media.0.stream.type">video</property>
  <property name="meta.media.0.stream.frame_rate">60</property>
  <property name="meta.media.0.stream.sample_aspect_ratio">0</property>
  <property name="meta.media.0.codec.width">640</property>
  <property name="meta.media.0.codec.height">360</property>
  <property name="meta.media.0.codec.rotate">0</property>
  <property name="meta.media.0.codec.pix_fmt">yuvj420p</property>
  <property name="meta.media.0.codec.sample_aspect_ratio">0</property>
  <property name="meta.media.0.codec.colorspace">601</property>
  <property name="meta.media.0.codec.name">mjpeg</property>
  <property name="meta.media.0.codec.long_name">MJPEG (Motion JPEG)</property>
  <property name="meta.media.0.codec.bit_rate">0</property>
  <property name="meta.attr.0.stream.HANDLER_NAME.markup">VideoHandler</property>
  <property name="meta.attr.0.stream.VENDOR_ID.markup">[0][0][0][0]</property>
  <property name="meta.attr.0.stream.ENCODER.markup">Lavc60.3.100 mjpeg</property>
  <property name="meta.attr.0.stream.DURATION.markup">00:00:01.500000000</property>
  <property name="meta.attr.COMMENT.markup">Rendered with Manim Community v0.17.2</property>
  <property name="meta.attr.MAJOR_BRAND.markup">isom</property>
  <property name="meta.attr.MINOR_VERSION.markup">512</property>
  <property name="meta.attr.COMPATIBLE_BRANDS.markup">isomiso2avc1mp41</property>
  <property name="meta.attr.ENCODER.markup">Lavf60.3.100</property>
  <property name="seekable">1</property>
  <property name="meta.media.sample_aspect_num">1</property>
  <property name="meta.media.sample_aspect_den">1</property>
  <property name="aspect_ratio">1</property>
  <property name="format">3</property>
  <property name="audio_index">-1</property>
  <property name="video_index">0</property>
  <property name="mute_on_pause">0</property>
  <property name="mlt_service">avformat-novalidate</property>
  <property name="kdenlive:clipname">42.mp4</property>
  <property name="kdenlive:clip_type">2</property>
  <property name="kdenlive:folderid">653</property>
  <property name="kdenlive:id">576</property>
  <property name="kdenlive:file_size">165589</property>
  <property name="kdenlive:file_hash">50fe3721b975a7dc1d02b701a214d814</property>
  <property name="kdenlive:proxy">/home/xiaoxiae/.cache/kdenlive/proxy/50fe3721b975a7dc1d02b701a214d814.mkv</property>
  <property name="kdenlive:originalurl">video/Deletion/42.mp4</property>
  <property name="kdenlive:original.mlt_type">producer</property>
  <property name="kdenlive:original.in">0</property>
  <property name="kdenlive:original.out">89</property>
  <property name="kdenlive:original.length">90</property>
  <property name="kdenlive:original.eof">pause</property>
  <property name="kdenlive:original.resource">video/Deletion/42.mp4</property>
  <property name="kdenlive:original.meta.media.nb_streams">1</property>
  <property name="kdenlive:original.meta.media.0.stream.type">video</property>
  <property name="kdenlive:original.meta.media.0.stream.frame_rate">60</property>
  <property name="kdenlive:original.meta.media.0.stream.sample_aspect_ratio">0</property>
  <property name="kdenlive:original.meta.media.0.codec.width">3840</property>
  <property name="kdenlive:original.meta.media.0.codec.height">2160</property>
  <property name="kdenlive:original.meta.media.0.codec.rotate">0</property>
  <property name="kdenlive:original.meta.media.0.codec.pix_fmt">yuv420p</property>
  <property name="kdenlive:original.meta.media.0.codec.sample_aspect_ratio">0</property>
  <property name="kdenlive:original.meta.media.0.codec.colorspace">709</property>
  <property name="kdenlive:original.meta.media.0.codec.name">h264</property>
  <property name="kdenlive:original.meta.media.0.codec.long_name">H.264 / AVC / MPEG-4 AVC / MPEG-4 part 10</property>
  <property name="kdenlive:original.meta.media.0.codec.bit_rate">872480</property>
  <property name="kdenlive:original.meta.attr.0.stream.handler_name.markup">VideoHandler</property>
  <property name="kdenlive:original.meta.attr.0.stream.vendor_id.markup">[0][0][0][0]</property>
  <property name="kdenlive:original.meta.attr.0.stream.encoder.markup">Lavc60.3.100 libx264</property>
  <property name="kdenlive:original.meta.attr.major_brand.markup">isom</property>
  <property name="kdenlive:original.meta.attr.minor_version.markup">512</property>
  <property name="kdenlive:original.meta.attr.compatible_brands.markup">isomiso2avc1mp41</property>
  <property name="kdenlive:original.meta.attr.encoder.markup">Lavf60.3.100</property>
  <property name="kdenlive:original.meta.attr.comment.markup">Rendered with Manim Community v0.17.2</property>
  <property name="kdenlive:original.seekable">1</property>
  <property name="kdenlive:original.width">3840</property>
  <property name="kdenlive:original.height">2160</property>
  <property name="kdenlive:original.meta.media.sample_aspect_num">1</property>
  <property name="kdenlive:original.meta.media.sample_aspect_den">1</property>
  <property name="kdenlive:original.aspect_ratio">1</property>
  <property name="kdenlive:original.format">3</property>
  <property name="kdenlive:original.audio_index">-1</property>
  <property name="kdenlive:original.video_index">0</property>
  <property name="kdenlive:original.mute_on_pause">0</property>
  <property name="kdenlive:original.mlt_service">avformat-novalidate</property>
  <property name="kdenlive:original.meta.media.frame_rate_num">60</property>
  <property name="kdenlive:original.meta.media.frame_rate_den">1</property>
  <property name="kdenlive:original.meta.media.colorspace">709</property>
  <property name="kdenlive:original.meta.media.color_trc">2</property>
  <property name="kdenlive:original.meta.media.has_b_frames">2</property>
  <property name="kdenlive:original.meta.media.width">3840</property>
  <property name="kdenlive:original.meta.media.height">2160</property>
  <property name="kdenlive:original.meta.media.color_range">mpeg</property>
  <property name="kdenlive:original.meta.media.top_field_first">0</property>
  <property name="kdenlive:original.meta.media.progressive">1</property>
  <property name="kdenlive:original.kdenlive:clip_type">2</property>
  <property name="kdenlive:original.kdenlive:folderid">653</property>
  <property name="kdenlive:original.kdenlive:id">690</property>
  <property name="kdenlive:original.kdenlive:file_size">165589</property>
  <property name="kdenlive:original.kdenlive:file_hash">50fe3721b975a7dc1d02b701a214d814</property>
  <property name="kdenlive:original.backup">1</property>
  <property name="meta.media.frame_rate_num">60</property>
  <property name="meta.media.frame_rate_den">1</property>
  <property name="meta.media.colorspace">601</property>
  <property name="meta.media.color_trc">2</property>
  <property name="meta.media.has_b_frames">0</property>
  <property name="meta.media.width">640</property>
  <property name="meta.media.height">360</property>
  <property name="meta.media.color_range">full</property>
  <property name="meta.media.top_field_first">0</property>
  <property name="meta.media.progressive">1</property>
 </producer>
 <producer id="producer487" in="00:00:00.000" out="00:00:00.983">
  <property name="length">60</property>
  <property name="eof">pause</property>
  <property name="resource">/home/xiaoxiae/.cache/kdenlive/proxy/a58c76f07eb11807469cf555ea35a8d9.mkv</property>
  <property name="meta.media.nb_streams">1</property>
  <property name="meta.media.0.stream.type">video</property>
  <property name="meta.media.0.stream.frame_rate">60</property>
  <property name="meta.media.0.stream.sample_aspect_ratio">0</property>
  <property name="meta.media.0.codec.width">640</property>
  <property name="meta.media.0.codec.height">360</property>
  <property name="meta.media.0.codec.rotate">0</property>
  <property name="meta.media.0.codec.pix_fmt">yuvj420p</property>
  <property name="meta.media.0.codec.sample_aspect_ratio">0</property>
  <property name="meta.media.0.codec.colorspace">601</property>
  <property name="meta.media.0.codec.name">mjpeg</property>
  <property name="meta.media.0.codec.long_name">MJPEG (Motion JPEG)</property>
  <property name="meta.media.0.codec.bit_rate">0</property>
  <property name="meta.attr.0.stream.HANDLER_NAME.markup">VideoHandler</property>
  <property name="meta.attr.0.stream.VENDOR_ID.markup">[0][0][0][0]</property>
  <property name="meta.attr.0.stream.ENCODER.markup">Lavc60.3.100 mjpeg</property>
  <property name="meta.attr.0.stream.DURATION.markup">00:00:01.000000000</property>
  <property name="meta.attr.COMMENT.markup">Rendered with Manim Community v0.17.2</property>
  <property name="meta.attr.MAJOR_BRAND.markup">isom</property>
  <property name="meta.attr.MINOR_VERSION.markup">512</property>
  <property name="meta.attr.COMPATIBLE_BRANDS.markup">isomiso2avc1mp41</property>
  <property name="meta.attr.ENCODER.markup">Lavf60.3.100</property>
  <property name="seekable">1</property>
  <property name="meta.media.sample_aspect_num">1</property>
  <property name="meta.media.sample_aspect_den">1</property>
  <property name="aspect_ratio">1</property>
  <property name="format">3</property>
  <property name="audio_index">-1</property>
  <property name="video_index">0</property>
  <property name="mute_on_pause">0</property>
  <property name="mlt_service">avformat-novalidate</property>
  <property name="kdenlive:clipname">43.mp4</property>
  <property name="kdenlive:clip_type">2</property>
  <property name="kdenlive:folderid">653</property>
  <property name="kdenlive:id">577</property>
  <property name="kdenlive:file_size">74528</property>
  <property name="kdenlive:file_hash">a58c76f07eb11807469cf555ea35a8d9</property>
  <property name="kdenlive:proxy">/home/xiaoxiae/.cache/kdenlive/proxy/a58c76f07eb11807469cf555ea35a8d9.mkv</property>
  <property name="kdenlive:originalurl">video/Deletion/43.mp4</property>
  <property name="kdenlive:original.mlt_type">producer</property>
  <property name="kdenlive:original.in">0</property>
  <property name="kdenlive:original.out">59</property>
  <property name="kdenlive:original.length">60</property>
  <property name="kdenlive:original.eof">pause</property>
  <property name="kdenlive:original.resource">video/Deletion/43.mp4</property>
  <property name="kdenlive:original.meta.media.nb_streams">1</property>
  <property name="kdenlive:original.meta.media.0.stream.type">video</property>
  <property name="kdenlive:original.meta.media.0.stream.frame_rate">60</property>
  <property name="kdenlive:original.meta.media.0.stream.sample_aspect_ratio">0</property>
  <property name="kdenlive:original.meta.media.0.codec.width">3840</property>
  <property name="kdenlive:original.meta.media.0.codec.height">2160</property>
  <property name="kdenlive:original.meta.media.0.codec.rotate">0</property>
  <property name="kdenlive:original.meta.media.0.codec.pix_fmt">yuv420p</property>
  <property name="kdenlive:original.meta.media.0.codec.sample_aspect_ratio">0</property>
  <property name="kdenlive:original.meta.media.0.codec.colorspace">709</property>
  <property name="kdenlive:original.meta.media.0.codec.name">h264</property>
  <property name="kdenlive:original.meta.media.0.codec.long_name">H.264 / AVC / MPEG-4 AVC / MPEG-4 part 10</property>
  <property name="kdenlive:original.meta.media.0.codec.bit_rate">583176</property>
  <property name="kdenlive:original.meta.attr.0.stream.handler_name.markup">VideoHandler</property>
  <property name="kdenlive:original.meta.attr.0.stream.vendor_id.markup">[0][0][0][0]</property>
  <property name="kdenlive:original.meta.attr.0.stream.encoder.markup">Lavc60.3.100 libx264</property>
  <property name="kdenlive:original.meta.attr.major_brand.markup">isom</property>
  <property name="kdenlive:original.meta.attr.minor_version.markup">512</property>
  <property name="kdenlive:original.meta.attr.compatible_brands.markup">isomiso2avc1mp41</property>
  <property name="kdenlive:original.meta.attr.encoder.markup">Lavf60.3.100</property>
  <property name="kdenlive:original.meta.attr.comment.markup">Rendered with Manim Community v0.17.2</property>
  <property name="kdenlive:original.seekable">1</property>
  <property name="kdenlive:original.width">3840</property>
  <property name="kdenlive:original.height">2160</property>
  <property name="kdenlive:original.meta.media.sample_aspect_num">1</property>
  <property name="kdenlive:original.meta.media.sample_aspect_den">1</property>
  <property name="kdenlive:original.aspect_ratio">1</property>
  <property name="kdenlive:original.format">3</property>
  <property name="kdenlive:original.audio_index">-1</property>
  <property name="kdenlive:original.video_index">0</property>
  <property name="kdenlive:original.mute_on_pause">0</property>
  <property name="kdenlive:original.mlt_service">avformat-novalidate</property>
  <property name="kdenlive:original.meta.media.frame_rate_num">60</property>
  <property name="kdenlive:original.meta.media.frame_rate_den">1</property>
  <property name="kdenlive:original.meta.media.colorspace">709</property>
  <property name="kdenlive:original.meta.media.color_trc">2</property>
  <property name="kdenlive:original.meta.media.has_b_frames">2</property>
  <property name="kdenlive:original.meta.media.width">3840</property>
  <property name="kdenlive:original.meta.media.height">2160</property>
  <property name="kdenlive:original.meta.media.color_range">mpeg</property>
  <property name="kdenlive:original.meta.media.top_field_first">0</property>
  <property name="kdenlive:original.meta.media.progressive">1</property>
  <property name="kdenlive:original.kdenlive:clip_type">2</property>
  <property name="kdenlive:original.kdenlive:folderid">653</property>
  <property name="kdenlive:original.kdenlive:id">691</property>
  <property name="kdenlive:original.kdenlive:file_size">74528</property>
  <property name="kdenlive:original.kdenlive:file_hash">a58c76f07eb11807469cf555ea35a8d9</property>
  <property name="kdenlive:original.backup">1</property>
  <property name="meta.media.frame_rate_num">60</property>
  <property name="meta.media.frame_rate_den">1</property>
  <property name="meta.media.colorspace">601</property>
  <property name="meta.media.color_trc">2</property>
  <property name="meta.media.has_b_frames">0</property>
  <property name="meta.media.width">640</property>
  <property name="meta.media.height">360</property>
  <property name="meta.media.color_range">full</property>
  <property name="meta.media.top_field_first">0</property>
  <property name="meta.media.progressive">1</property>
 </producer>
 <producer id="producer488" in="00:00:00.000" out="00:00:00.983">
  <property name="length">60</property>
  <property name="eof">pause</property>
  <property name="resource">/home/xiaoxiae/.cache/kdenlive/proxy/624a750aa206452d15c2b482f29ab9dc.mkv</property>
  <property name="meta.media.nb_streams">1</property>
  <property name="meta.media.0.stream.type">video</property>
  <property name="meta.media.0.stream.frame_rate">60</property>
  <property name="meta.media.0.stream.sample_aspect_ratio">0</property>
  <property name="meta.media.0.codec.width">640</property>
  <property name="meta.media.0.codec.height">360</property>
  <property name="meta.media.0.codec.rotate">0</property>
  <property name="meta.media.0.codec.pix_fmt">yuvj420p</property>
  <property name="meta.media.0.codec.sample_aspect_ratio">0</property>
  <property name="meta.media.0.codec.colorspace">601</property>
  <property name="meta.media.0.codec.name">mjpeg</property>
  <property name="meta.media.0.codec.long_name">MJPEG (Motion JPEG)</property>
  <property name="meta.media.0.codec.bit_rate">0</property>
  <property name="meta.attr.0.stream.HANDLER_NAME.markup">VideoHandler</property>
  <property name="meta.attr.0.stream.VENDOR_ID.markup">[0][0][0][0]</property>
  <property name="meta.attr.0.stream.ENCODER.markup">Lavc60.3.100 mjpeg</property>
  <property name="meta.attr.0.stream.DURATION.markup">00:00:01.000000000</property>
  <property name="meta.attr.COMMENT.markup">Rendered with Manim Community v0.17.2</property>
  <property name="meta.attr.MAJOR_BRAND.markup">isom</property>
  <property name="meta.attr.MINOR_VERSION.markup">512</property>
  <property name="meta.attr.COMPATIBLE_BRANDS.markup">isomiso2avc1mp41</property>
  <property name="meta.attr.ENCODER.markup">Lavf60.3.100</property>
  <property name="seekable">1</property>
  <property name="meta.media.sample_aspect_num">1</property>
  <property name="meta.media.sample_aspect_den">1</property>
  <property name="aspect_ratio">1</property>
  <property name="format">3</property>
  <property name="audio_index">-1</property>
  <property name="video_index">0</property>
  <property name="mute_on_pause">0</property>
  <property name="mlt_service">avformat-novalidate</property>
  <property name="kdenlive:clipname">44.mp4</property>
  <property name="kdenlive:clip_type">2</property>
  <property name="kdenlive:folderid">653</property>
  <property name="kdenlive:id">578</property>
  <property name="kdenlive:file_size">97482</property>
  <property name="kdenlive:file_hash">624a750aa206452d15c2b482f29ab9dc</property>
  <property name="kdenlive:proxy">/home/xiaoxiae/.cache/kdenlive/proxy/624a750aa206452d15c2b482f29ab9dc.mkv</property>
  <property name="kdenlive:originalurl">video/Deletion/44.mp4</property>
  <property name="kdenlive:original.mlt_type">producer</property>
  <property name="kdenlive:original.in">0</property>
  <property name="kdenlive:original.out">59</property>
  <property name="kdenlive:original.length">60</property>
  <property name="kdenlive:original.eof">pause</property>
  <property name="kdenlive:original.resource">video/Deletion/44.mp4</property>
  <property name="kdenlive:original.meta.media.nb_streams">1</property>
  <property name="kdenlive:original.meta.media.0.stream.type">video</property>
  <property name="kdenlive:original.meta.media.0.stream.frame_rate">60</property>
  <property name="kdenlive:original.meta.media.0.stream.sample_aspect_ratio">0</property>
  <property name="kdenlive:original.meta.media.0.codec.width">3840</property>
  <property name="kdenlive:original.meta.media.0.codec.height">2160</property>
  <property name="kdenlive:original.meta.media.0.codec.rotate">0</property>
  <property name="kdenlive:original.meta.media.0.codec.pix_fmt">yuv420p</property>
  <property name="kdenlive:original.meta.media.0.codec.sample_aspect_ratio">0</property>
  <property name="kdenlive:original.meta.media.0.codec.colorspace">709</property>
  <property name="kdenlive:original.meta.media.0.codec.name">h264</property>
  <property name="kdenlive:original.meta.media.0.codec.long_name">H.264 / AVC / MPEG-4 AVC / MPEG-4 part 10</property>
  <property name="kdenlive:original.meta.media.0.codec.bit_rate">766808</property>
  <property name="kdenlive:original.meta.attr.0.stream.handler_name.markup">VideoHandler</property>
  <property name="kdenlive:original.meta.attr.0.stream.vendor_id.markup">[0][0][0][0]</property>
  <property name="kdenlive:original.meta.attr.0.stream.encoder.markup">Lavc60.3.100 libx264</property>
  <property name="kdenlive:original.meta.attr.major_brand.markup">isom</property>
  <property name="kdenlive:original.meta.attr.minor_version.markup">512</property>
  <property name="kdenlive:original.meta.attr.compatible_brands.markup">isomiso2avc1mp41</property>
  <property name="kdenlive:original.meta.attr.encoder.markup">Lavf60.3.100</property>
  <property name="kdenlive:original.meta.attr.comment.markup">Rendered with Manim Community v0.17.2</property>
  <property name="kdenlive:original.seekable">1</property>
  <property name="kdenlive:original.width">3840</property>
  <property name="kdenlive:original.height">2160</property>
  <property name="kdenlive:original.meta.media.sample_aspect_num">1</property>
  <property name="kdenlive:original.meta.media.sample_aspect_den">1</property>
  <property name="kdenlive:original.aspect_ratio">1</property>
  <property name="kdenlive:original.format">3</property>
  <property name="kdenlive:original.audio_index">-1</property>
  <property name="kdenlive:original.video_index">0</property>
  <property name="kdenlive:original.mute_on_pause">0</property>
  <property name="kdenlive:original.mlt_service">avformat-novalidate</property>
  <property name="kdenlive:original.meta.media.frame_rate_num">60</property>
  <property name="kdenlive:original.meta.media.frame_rate_den">1</property>
  <property name="kdenlive:original.meta.media.colorspace">709</property>
  <property name="kdenlive:original.meta.media.color_trc">2</property>
  <property name="kdenlive:original.meta.media.has_b_frames">2</property>
  <property name="kdenlive:original.meta.media.width">3840</property>
  <property name="kdenlive:original.meta.media.height">2160</property>
  <property name="kdenlive:original.meta.media.color_range">mpeg</property>
  <property name="kdenlive:original.meta.media.top_field_first">0</property>
  <property name="kdenlive:original.meta.media.progressive">1</property>
  <property name="kdenlive:original.kdenlive:clip_type">2</property>
  <property name="kdenlive:original.kdenlive:folderid">653</property>
  <property name="kdenlive:original.kdenlive:id">692</property>
  <property name="kdenlive:original.kdenlive:file_size">97482</property>
  <property name="kdenlive:original.kdenlive:file_hash">624a750aa206452d15c2b482f29ab9dc</property>
  <property name="kdenlive:original.backup">1</property>
  <property name="meta.media.frame_rate_num">60</property>
  <property name="meta.media.frame_rate_den">1</property>
  <property name="meta.media.colorspace">601</property>
  <property name="meta.media.color_trc">2</property>
  <property name="meta.media.has_b_frames">0</property>
  <property name="meta.media.width">640</property>
  <property name="meta.media.height">360</property>
  <property name="meta.media.color_range">full</property>
  <property name="meta.media.top_field_first">0</property>
  <property name="meta.media.progressive">1</property>
 </producer>
 <producer id="producer489" in="00:00:00.000" out="00:00:00.983">
  <property name="length">60</property>
  <property name="eof">pause</property>
  <property name="resource">/home/xiaoxiae/.cache/kdenlive/proxy/cb273ba9ef394272539d960ceb1d33f4.mkv</property>
  <property name="meta.media.nb_streams">1</property>
  <property name="meta.media.0.stream.type">video</property>
  <property name="meta.media.0.stream.frame_rate">60</property>
  <property name="meta.media.0.stream.sample_aspect_ratio">0</property>
  <property name="meta.media.0.codec.width">640</property>
  <property name="meta.media.0.codec.height">360</property>
  <property name="meta.media.0.codec.rotate">0</property>
  <property name="meta.media.0.codec.pix_fmt">yuvj420p</property>
  <property name="meta.media.0.codec.sample_aspect_ratio">0</property>
  <property name="meta.media.0.codec.colorspace">601</property>
  <property name="meta.media.0.codec.name">mjpeg</property>
  <property name="meta.media.0.codec.long_name">MJPEG (Motion JPEG)</property>
  <property name="meta.media.0.codec.bit_rate">0</property>
  <property name="meta.attr.0.stream.HANDLER_NAME.markup">VideoHandler</property>
  <property name="meta.attr.0.stream.VENDOR_ID.markup">[0][0][0][0]</property>
  <property name="meta.attr.0.stream.ENCODER.markup">Lavc60.3.100 mjpeg</property>
  <property name="meta.attr.0.stream.DURATION.markup">00:00:01.000000000</property>
  <property name="meta.attr.COMMENT.markup">Rendered with Manim Community v0.17.2</property>
  <property name="meta.attr.MAJOR_BRAND.markup">isom</property>
  <property name="meta.attr.MINOR_VERSION.markup">512</property>
  <property name="meta.attr.COMPATIBLE_BRANDS.markup">isomiso2avc1mp41</property>
  <property name="meta.attr.ENCODER.markup">Lavf60.3.100</property>
  <property name="seekable">1</property>
  <property name="meta.media.sample_aspect_num">1</property>
  <property name="meta.media.sample_aspect_den">1</property>
  <property name="aspect_ratio">1</property>
  <property name="format">3</property>
  <property name="audio_index">-1</property>
  <property name="video_index">0</property>
  <property name="mute_on_pause">0</property>
  <property name="mlt_service">avformat-novalidate</property>
  <property name="kdenlive:clipname">45.mp4</property>
  <property name="kdenlive:clip_type">2</property>
  <property name="kdenlive:folderid">653</property>
  <property name="kdenlive:id">579</property>
  <property name="kdenlive:file_size">183384</property>
  <property name="kdenlive:file_hash">cb273ba9ef394272539d960ceb1d33f4</property>
  <property name="kdenlive:proxy">/home/xiaoxiae/.cache/kdenlive/proxy/cb273ba9ef394272539d960ceb1d33f4.mkv</property>
  <property name="kdenlive:originalurl">video/Deletion/45.mp4</property>
  <property name="kdenlive:original.mlt_type">producer</property>
  <property name="kdenlive:original.in">0</property>
  <property name="kdenlive:original.out">59</property>
  <property name="kdenlive:original.length">60</property>
  <property name="kdenlive:original.eof">pause</property>
  <property name="kdenlive:original.resource">video/Deletion/45.mp4</property>
  <property name="kdenlive:original.meta.media.nb_streams">1</property>
  <property name="kdenlive:original.meta.media.0.stream.type">video</property>
  <property name="kdenlive:original.meta.media.0.stream.frame_rate">60</property>
  <property name="kdenlive:original.meta.media.0.stream.sample_aspect_ratio">0</property>
  <property name="kdenlive:original.meta.media.0.codec.width">3840</property>
  <property name="kdenlive:original.meta.media.0.codec.height">2160</property>
  <property name="kdenlive:original.meta.media.0.codec.rotate">0</property>
  <property name="kdenlive:original.meta.media.0.codec.pix_fmt">yuv420p</property>
  <property name="kdenlive:original.meta.media.0.codec.sample_aspect_ratio">0</property>
  <property name="kdenlive:original.meta.media.0.codec.colorspace">709</property>
  <property name="kdenlive:original.meta.media.0.codec.name">h264</property>
  <property name="kdenlive:original.meta.media.0.codec.long_name">H.264 / AVC / MPEG-4 AVC / MPEG-4 part 10</property>
  <property name="kdenlive:original.meta.media.0.codec.bit_rate">1454088</property>
  <property name="kdenlive:original.meta.attr.0.stream.handler_name.markup">VideoHandler</property>
  <property name="kdenlive:original.meta.attr.0.stream.vendor_id.markup">[0][0][0][0]</property>
  <property name="kdenlive:original.meta.attr.0.stream.encoder.markup">Lavc60.3.100 libx264</property>
  <property name="kdenlive:original.meta.attr.major_brand.markup">isom</property>
  <property name="kdenlive:original.meta.attr.minor_version.markup">512</property>
  <property name="kdenlive:original.meta.attr.compatible_brands.markup">isomiso2avc1mp41</property>
  <property name="kdenlive:original.meta.attr.encoder.markup">Lavf60.3.100</property>
  <property name="kdenlive:original.meta.attr.comment.markup">Rendered with Manim Community v0.17.2</property>
  <property name="kdenlive:original.seekable">1</property>
  <property name="kdenlive:original.width">3840</property>
  <property name="kdenlive:original.height">2160</property>
  <property name="kdenlive:original.meta.media.sample_aspect_num">1</property>
  <property name="kdenlive:original.meta.media.sample_aspect_den">1</property>
  <property name="kdenlive:original.aspect_ratio">1</property>
  <property name="kdenlive:original.format">3</property>
  <property name="kdenlive:original.audio_index">-1</property>
  <property name="kdenlive:original.video_index">0</property>
  <property name="kdenlive:original.mute_on_pause">0</property>
  <property name="kdenlive:original.mlt_service">avformat-novalidate</property>
  <property name="kdenlive:original.meta.media.frame_rate_num">60</property>
  <property name="kdenlive:original.meta.media.frame_rate_den">1</property>
  <property name="kdenlive:original.meta.media.colorspace">709</property>
  <property name="kdenlive:original.meta.media.color_trc">2</property>
  <property name="kdenlive:original.meta.media.has_b_frames">2</property>
  <property name="kdenlive:original.meta.media.width">3840</property>
  <property name="kdenlive:original.meta.media.height">2160</property>
  <property name="kdenlive:original.meta.media.color_range">mpeg</property>
  <property name="kdenlive:original.meta.media.top_field_first">0</property>
  <property name="kdenlive:original.meta.media.progressive">1</property>
  <property name="kdenlive:original.kdenlive:clip_type">2</property>
  <property name="kdenlive:original.kdenlive:folderid">653</property>
  <property name="kdenlive:original.kdenlive:id">693</property>
  <property name="kdenlive:original.kdenlive:file_size">183384</property>
  <property name="kdenlive:original.kdenlive:file_hash">cb273ba9ef394272539d960ceb1d33f4</property>
  <property name="kdenlive:original.backup">1</property>
  <property name="meta.media.frame_rate_num">60</property>
  <property name="meta.media.frame_rate_den">1</property>
  <property name="meta.media.colorspace">601</property>
  <property name="meta.media.color_trc">2</property>
  <property name="meta.media.has_b_frames">0</property>
  <property name="meta.media.width">640</property>
  <property name="meta.media.height">360</property>
  <property name="meta.media.color_range">full</property>
  <property name="meta.media.top_field_first">0</property>
  <property name="meta.media.progressive">1</property>
 </producer>
 <producer id="producer490" in="00:00:00.000" out="00:00:00.983">
  <property name="length">60</property>
  <property name="eof">pause</property>
  <property name="resource">/home/xiaoxiae/.cache/kdenlive/proxy/b036066a6da779ddfbf64d14f7b83d89.mkv</property>
  <property name="meta.media.nb_streams">1</property>
  <property name="meta.media.0.stream.type">video</property>
  <property name="meta.media.0.stream.frame_rate">60</property>
  <property name="meta.media.0.stream.sample_aspect_ratio">0</property>
  <property name="meta.media.0.codec.width">640</property>
  <property name="meta.media.0.codec.height">360</property>
  <property name="meta.media.0.codec.rotate">0</property>
  <property name="meta.media.0.codec.pix_fmt">yuvj420p</property>
  <property name="meta.media.0.codec.sample_aspect_ratio">0</property>
  <property name="meta.media.0.codec.colorspace">601</property>
  <property name="meta.media.0.codec.name">mjpeg</property>
  <property name="meta.media.0.codec.long_name">MJPEG (Motion JPEG)</property>
  <property name="meta.media.0.codec.bit_rate">0</property>
  <property name="meta.attr.0.stream.HANDLER_NAME.markup">VideoHandler</property>
  <property name="meta.attr.0.stream.VENDOR_ID.markup">[0][0][0][0]</property>
  <property name="meta.attr.0.stream.ENCODER.markup">Lavc60.3.100 mjpeg</property>
  <property name="meta.attr.0.stream.DURATION.markup">00:00:01.000000000</property>
  <property name="meta.attr.COMMENT.markup">Rendered with Manim Community v0.17.2</property>
  <property name="meta.attr.MAJOR_BRAND.markup">isom</property>
  <property name="meta.attr.MINOR_VERSION.markup">512</property>
  <property name="meta.attr.COMPATIBLE_BRANDS.markup">isomiso2avc1mp41</property>
  <property name="meta.attr.ENCODER.markup">Lavf60.3.100</property>
  <property name="seekable">1</property>
  <property name="meta.media.sample_aspect_num">1</property>
  <property name="meta.media.sample_aspect_den">1</property>
  <property name="aspect_ratio">1</property>
  <property name="format">3</property>
  <property name="audio_index">-1</property>
  <property name="video_index">0</property>
  <property name="mute_on_pause">0</property>
  <property name="mlt_service">avformat-novalidate</property>
  <property name="kdenlive:clipname">46.mp4</property>
  <property name="kdenlive:clip_type">2</property>
  <property name="kdenlive:folderid">653</property>
  <property name="kdenlive:id">580</property>
  <property name="kdenlive:file_size">570975</property>
  <property name="kdenlive:file_hash">b036066a6da779ddfbf64d14f7b83d89</property>
  <property name="kdenlive:proxy">/home/xiaoxiae/.cache/kdenlive/proxy/b036066a6da779ddfbf64d14f7b83d89.mkv</property>
  <property name="kdenlive:originalurl">video/Deletion/46.mp4</property>
  <property name="kdenlive:original.mlt_type">producer</property>
  <property name="kdenlive:original.in">0</property>
  <property name="kdenlive:original.out">59</property>
  <property name="kdenlive:original.length">60</property>
  <property name="kdenlive:original.eof">pause</property>
  <property name="kdenlive:original.resource">video/Deletion/46.mp4</property>
  <property name="kdenlive:original.meta.media.nb_streams">1</property>
  <property name="kdenlive:original.meta.media.0.stream.type">video</property>
  <property name="kdenlive:original.meta.media.0.stream.frame_rate">60</property>
  <property name="kdenlive:original.meta.media.0.stream.sample_aspect_ratio">0</property>
  <property name="kdenlive:original.meta.media.0.codec.width">3840</property>
  <property name="kdenlive:original.meta.media.0.codec.height">2160</property>
  <property name="kdenlive:original.meta.media.0.codec.rotate">0</property>
  <property name="kdenlive:original.meta.media.0.codec.pix_fmt">yuv420p</property>
  <property name="kdenlive:original.meta.media.0.codec.sample_aspect_ratio">0</property>
  <property name="kdenlive:original.meta.media.0.codec.colorspace">709</property>
  <property name="kdenlive:original.meta.media.0.codec.name">h264</property>
  <property name="kdenlive:original.meta.media.0.codec.long_name">H.264 / AVC / MPEG-4 AVC / MPEG-4 part 10</property>
  <property name="kdenlive:original.meta.media.0.codec.bit_rate">4556544</property>
  <property name="kdenlive:original.meta.attr.0.stream.handler_name.markup">VideoHandler</property>
  <property name="kdenlive:original.meta.attr.0.stream.vendor_id.markup">[0][0][0][0]</property>
  <property name="kdenlive:original.meta.attr.0.stream.encoder.markup">Lavc60.3.100 libx264</property>
  <property name="kdenlive:original.meta.attr.major_brand.markup">isom</property>
  <property name="kdenlive:original.meta.attr.minor_version.markup">512</property>
  <property name="kdenlive:original.meta.attr.compatible_brands.markup">isomiso2avc1mp41</property>
  <property name="kdenlive:original.meta.attr.encoder.markup">Lavf60.3.100</property>
  <property name="kdenlive:original.meta.attr.comment.markup">Rendered with Manim Community v0.17.2</property>
  <property name="kdenlive:original.seekable">1</property>
  <property name="kdenlive:original.width">3840</property>
  <property name="kdenlive:original.height">2160</property>
  <property name="kdenlive:original.meta.media.sample_aspect_num">1</property>
  <property name="kdenlive:original.meta.media.sample_aspect_den">1</property>
  <property name="kdenlive:original.aspect_ratio">1</property>
  <property name="kdenlive:original.format">3</property>
  <property name="kdenlive:original.audio_index">-1</property>
  <property name="kdenlive:original.video_index">0</property>
  <property name="kdenlive:original.mute_on_pause">0</property>
  <property name="kdenlive:original.mlt_service">avformat-novalidate</property>
  <property name="kdenlive:original.meta.media.frame_rate_num">60</property>
  <property name="kdenlive:original.meta.media.frame_rate_den">1</property>
  <property name="kdenlive:original.meta.media.colorspace">709</property>
  <property name="kdenlive:original.meta.media.color_trc">2</property>
  <property name="kdenlive:original.meta.media.has_b_frames">2</property>
  <property name="kdenlive:original.meta.media.width">3840</property>
  <property name="kdenlive:original.meta.media.height">2160</property>
  <property name="kdenlive:original.meta.media.color_range">mpeg</property>
  <property name="kdenlive:original.meta.media.top_field_first">0</property>
  <property name="kdenlive:original.meta.media.progressive">1</property>
  <property name="kdenlive:original.kdenlive:clip_type">2</property>
  <property name="kdenlive:original.kdenlive:folderid">653</property>
  <property name="kdenlive:original.kdenlive:id">694</property>
  <property name="kdenlive:original.kdenlive:file_size">570975</property>
  <property name="kdenlive:original.kdenlive:file_hash">b036066a6da779ddfbf64d14f7b83d89</property>
  <property name="kdenlive:original.backup">1</property>
  <property name="meta.media.frame_rate_num">60</property>
  <property name="meta.media.frame_rate_den">1</property>
  <property name="meta.media.colorspace">601</property>
  <property name="meta.media.color_trc">2</property>
  <property name="meta.media.has_b_frames">0</property>
  <property name="meta.media.width">640</property>
  <property name="meta.media.height">360</property>
  <property name="meta.media.color_range">full</property>
  <property name="meta.media.top_field_first">0</property>
  <property name="meta.media.progressive">1</property>
 </producer>
 <producer id="producer491" in="00:00:00.000" out="00:00:00.983">
  <property name="length">60</property>
  <property name="eof">pause</property>
  <property name="resource">/home/xiaoxiae/.cache/kdenlive/proxy/f0906e9cff0f93251d94f826d11aa63e.mkv</property>
  <property name="meta.media.nb_streams">1</property>
  <property name="meta.media.0.stream.type">video</property>
  <property name="meta.media.0.stream.frame_rate">60</property>
  <property name="meta.media.0.stream.sample_aspect_ratio">0</property>
  <property name="meta.media.0.codec.width">640</property>
  <property name="meta.media.0.codec.height">360</property>
  <property name="meta.media.0.codec.rotate">0</property>
  <property name="meta.media.0.codec.pix_fmt">yuvj420p</property>
  <property name="meta.media.0.codec.sample_aspect_ratio">0</property>
  <property name="meta.media.0.codec.colorspace">601</property>
  <property name="meta.media.0.codec.name">mjpeg</property>
  <property name="meta.media.0.codec.long_name">MJPEG (Motion JPEG)</property>
  <property name="meta.media.0.codec.bit_rate">0</property>
  <property name="meta.attr.0.stream.HANDLER_NAME.markup">VideoHandler</property>
  <property name="meta.attr.0.stream.VENDOR_ID.markup">[0][0][0][0]</property>
  <property name="meta.attr.0.stream.ENCODER.markup">Lavc60.3.100 mjpeg</property>
  <property name="meta.attr.0.stream.DURATION.markup">00:00:01.000000000</property>
  <property name="meta.attr.COMMENT.markup">Rendered with Manim Community v0.17.2</property>
  <property name="meta.attr.MAJOR_BRAND.markup">isom</property>
  <property name="meta.attr.MINOR_VERSION.markup">512</property>
  <property name="meta.attr.COMPATIBLE_BRANDS.markup">isomiso2avc1mp41</property>
  <property name="meta.attr.ENCODER.markup">Lavf60.3.100</property>
  <property name="seekable">1</property>
  <property name="meta.media.sample_aspect_num">1</property>
  <property name="meta.media.sample_aspect_den">1</property>
  <property name="aspect_ratio">1</property>
  <property name="format">3</property>
  <property name="audio_index">-1</property>
  <property name="video_index">0</property>
  <property name="mute_on_pause">0</property>
  <property name="mlt_service">avformat-novalidate</property>
  <property name="kdenlive:clipname">47.mp4</property>
  <property name="kdenlive:clip_type">2</property>
  <property name="kdenlive:folderid">653</property>
  <property name="kdenlive:id">581</property>
  <property name="kdenlive:file_size">135842</property>
  <property name="kdenlive:file_hash">f0906e9cff0f93251d94f826d11aa63e</property>
  <property name="kdenlive:proxy">/home/xiaoxiae/.cache/kdenlive/proxy/f0906e9cff0f93251d94f826d11aa63e.mkv</property>
  <property name="kdenlive:originalurl">video/Deletion/47.mp4</property>
  <property name="kdenlive:original.mlt_type">producer</property>
  <property name="kdenlive:original.in">0</property>
  <property name="kdenlive:original.out">59</property>
  <property name="kdenlive:original.length">60</property>
  <property name="kdenlive:original.eof">pause</property>
  <property name="kdenlive:original.resource">video/Deletion/47.mp4</property>
  <property name="kdenlive:original.meta.media.nb_streams">1</property>
  <property name="kdenlive:original.meta.media.0.stream.type">video</property>
  <property name="kdenlive:original.meta.media.0.stream.frame_rate">60</property>
  <property name="kdenlive:original.meta.media.0.stream.sample_aspect_ratio">0</property>
  <property name="kdenlive:original.meta.media.0.codec.width">3840</property>
  <property name="kdenlive:original.meta.media.0.codec.height">2160</property>
  <property name="kdenlive:original.meta.media.0.codec.rotate">0</property>
  <property name="kdenlive:original.meta.media.0.codec.pix_fmt">yuv420p</property>
  <property name="kdenlive:original.meta.media.0.codec.sample_aspect_ratio">0</property>
  <property name="kdenlive:original.meta.media.0.codec.colorspace">709</property>
  <property name="kdenlive:original.meta.media.0.codec.name">h264</property>
  <property name="kdenlive:original.meta.media.0.codec.long_name">H.264 / AVC / MPEG-4 AVC / MPEG-4 part 10</property>
  <property name="kdenlive:original.meta.media.0.codec.bit_rate">1073688</property>
  <property name="kdenlive:original.meta.attr.0.stream.handler_name.markup">VideoHandler</property>
  <property name="kdenlive:original.meta.attr.0.stream.vendor_id.markup">[0][0][0][0]</property>
  <property name="kdenlive:original.meta.attr.0.stream.encoder.markup">Lavc60.3.100 libx264</property>
  <property name="kdenlive:original.meta.attr.major_brand.markup">isom</property>
  <property name="kdenlive:original.meta.attr.minor_version.markup">512</property>
  <property name="kdenlive:original.meta.attr.compatible_brands.markup">isomiso2avc1mp41</property>
  <property name="kdenlive:original.meta.attr.encoder.markup">Lavf60.3.100</property>
  <property name="kdenlive:original.meta.attr.comment.markup">Rendered with Manim Community v0.17.2</property>
  <property name="kdenlive:original.seekable">1</property>
  <property name="kdenlive:original.width">3840</property>
  <property name="kdenlive:original.height">2160</property>
  <property name="kdenlive:original.meta.media.sample_aspect_num">1</property>
  <property name="kdenlive:original.meta.media.sample_aspect_den">1</property>
  <property name="kdenlive:original.aspect_ratio">1</property>
  <property name="kdenlive:original.format">3</property>
  <property name="kdenlive:original.audio_index">-1</property>
  <property name="kdenlive:original.video_index">0</property>
  <property name="kdenlive:original.mute_on_pause">0</property>
  <property name="kdenlive:original.mlt_service">avformat-novalidate</property>
  <property name="kdenlive:original.meta.media.frame_rate_num">60</property>
  <property name="kdenlive:original.meta.media.frame_rate_den">1</property>
  <property name="kdenlive:original.meta.media.colorspace">709</property>
  <property name="kdenlive:original.meta.media.color_trc">2</property>
  <property name="kdenlive:original.meta.media.has_b_frames">2</property>
  <property name="kdenlive:original.meta.media.width">3840</property>
  <property name="kdenlive:original.meta.media.height">2160</property>
  <property name="kdenlive:original.meta.media.color_range">mpeg</property>
  <property name="kdenlive:original.meta.media.top_field_first">0</property>
  <property name="kdenlive:original.meta.media.progressive">1</property>
  <property name="kdenlive:original.kdenlive:clip_type">2</property>
  <property name="kdenlive:original.kdenlive:folderid">653</property>
  <property name="kdenlive:original.kdenlive:id">695</property>
  <property name="kdenlive:original.kdenlive:file_size">135842</property>
  <property name="kdenlive:original.kdenlive:file_hash">f0906e9cff0f93251d94f826d11aa63e</property>
  <property name="kdenlive:original.backup">1</property>
  <property name="meta.media.frame_rate_num">60</property>
  <property name="meta.media.frame_rate_den">1</property>
  <property name="meta.media.colorspace">601</property>
  <property name="meta.media.color_trc">2</property>
  <property name="meta.media.has_b_frames">0</property>
  <property name="meta.media.width">640</property>
  <property name="meta.media.height">360</property>
  <property name="meta.media.color_range">full</property>
  <property name="meta.media.top_field_first">0</property>
  <property name="meta.media.progressive">1</property>
 </producer>
 <producer id="producer492" in="00:00:00.000" out="00:00:00.983">
  <property name="length">60</property>
  <property name="eof">pause</property>
  <property name="resource">/home/xiaoxiae/.cache/kdenlive/proxy/175a1b805619e4499a3de98375b32535.mkv</property>
  <property name="meta.media.nb_streams">1</property>
  <property name="meta.media.0.stream.type">video</property>
  <property name="meta.media.0.stream.frame_rate">60</property>
  <property name="meta.media.0.stream.sample_aspect_ratio">0</property>
  <property name="meta.media.0.codec.width">640</property>
  <property name="meta.media.0.codec.height">360</property>
  <property name="meta.media.0.codec.rotate">0</property>
  <property name="meta.media.0.codec.pix_fmt">yuvj420p</property>
  <property name="meta.media.0.codec.sample_aspect_ratio">0</property>
  <property name="meta.media.0.codec.colorspace">601</property>
  <property name="meta.media.0.codec.name">mjpeg</property>
  <property name="meta.media.0.codec.long_name">MJPEG (Motion JPEG)</property>
  <property name="meta.media.0.codec.bit_rate">0</property>
  <property name="meta.attr.0.stream.HANDLER_NAME.markup">VideoHandler</property>
  <property name="meta.attr.0.stream.VENDOR_ID.markup">[0][0][0][0]</property>
  <property name="meta.attr.0.stream.ENCODER.markup">Lavc60.3.100 mjpeg</property>
  <property name="meta.attr.0.stream.DURATION.markup">00:00:01.000000000</property>
  <property name="meta.attr.COMMENT.markup">Rendered with Manim Community v0.17.2</property>
  <property name="meta.attr.MAJOR_BRAND.markup">isom</property>
  <property name="meta.attr.MINOR_VERSION.markup">512</property>
  <property name="meta.attr.COMPATIBLE_BRANDS.markup">isomiso2avc1mp41</property>
  <property name="meta.attr.ENCODER.markup">Lavf60.3.100</property>
  <property name="seekable">1</property>
  <property name="meta.media.sample_aspect_num">1</property>
  <property name="meta.media.sample_aspect_den">1</property>
  <property name="aspect_ratio">1</property>
  <property name="format">3</property>
  <property name="audio_index">-1</property>
  <property name="video_index">0</property>
  <property name="mute_on_pause">0</property>
  <property name="mlt_service">avformat-novalidate</property>
  <property name="kdenlive:clipname">48.mp4</property>
  <property name="kdenlive:clip_type">2</property>
  <property name="kdenlive:folderid">653</property>
  <property name="kdenlive:id">582</property>
  <property name="kdenlive:file_size">142893</property>
  <property name="kdenlive:file_hash">175a1b805619e4499a3de98375b32535</property>
  <property name="kdenlive:proxy">/home/xiaoxiae/.cache/kdenlive/proxy/175a1b805619e4499a3de98375b32535.mkv</property>
  <property name="kdenlive:originalurl">video/Deletion/48.mp4</property>
  <property name="kdenlive:original.mlt_type">producer</property>
  <property name="kdenlive:original.in">0</property>
  <property name="kdenlive:original.out">59</property>
  <property name="kdenlive:original.length">60</property>
  <property name="kdenlive:original.eof">pause</property>
  <property name="kdenlive:original.resource">video/Deletion/48.mp4</property>
  <property name="kdenlive:original.meta.media.nb_streams">1</property>
  <property name="kdenlive:original.meta.media.0.stream.type">video</property>
  <property name="kdenlive:original.meta.media.0.stream.frame_rate">60</property>
  <property name="kdenlive:original.meta.media.0.stream.sample_aspect_ratio">0</property>
  <property name="kdenlive:original.meta.media.0.codec.width">3840</property>
  <property name="kdenlive:original.meta.media.0.codec.height">2160</property>
  <property name="kdenlive:original.meta.media.0.codec.rotate">0</property>
  <property name="kdenlive:original.meta.media.0.codec.pix_fmt">yuv420p</property>
  <property name="kdenlive:original.meta.media.0.codec.sample_aspect_ratio">0</property>
  <property name="kdenlive:original.meta.media.0.codec.colorspace">709</property>
  <property name="kdenlive:original.meta.media.0.codec.name">h264</property>
  <property name="kdenlive:original.meta.media.0.codec.long_name">H.264 / AVC / MPEG-4 AVC / MPEG-4 part 10</property>
  <property name="kdenlive:original.meta.media.0.codec.bit_rate">1130096</property>
  <property name="kdenlive:original.meta.attr.0.stream.handler_name.markup">VideoHandler</property>
  <property name="kdenlive:original.meta.attr.0.stream.vendor_id.markup">[0][0][0][0]</property>
  <property name="kdenlive:original.meta.attr.0.stream.encoder.markup">Lavc60.3.100 libx264</property>
  <property name="kdenlive:original.meta.attr.major_brand.markup">isom</property>
  <property name="kdenlive:original.meta.attr.minor_version.markup">512</property>
  <property name="kdenlive:original.meta.attr.compatible_brands.markup">isomiso2avc1mp41</property>
  <property name="kdenlive:original.meta.attr.encoder.markup">Lavf60.3.100</property>
  <property name="kdenlive:original.meta.attr.comment.markup">Rendered with Manim Community v0.17.2</property>
  <property name="kdenlive:original.seekable">1</property>
  <property name="kdenlive:original.width">3840</property>
  <property name="kdenlive:original.height">2160</property>
  <property name="kdenlive:original.meta.media.sample_aspect_num">1</property>
  <property name="kdenlive:original.meta.media.sample_aspect_den">1</property>
  <property name="kdenlive:original.aspect_ratio">1</property>
  <property name="kdenlive:original.format">3</property>
  <property name="kdenlive:original.audio_index">-1</property>
  <property name="kdenlive:original.video_index">0</property>
  <property name="kdenlive:original.mute_on_pause">0</property>
  <property name="kdenlive:original.mlt_service">avformat-novalidate</property>
  <property name="kdenlive:original.meta.media.frame_rate_num">60</property>
  <property name="kdenlive:original.meta.media.frame_rate_den">1</property>
  <property name="kdenlive:original.meta.media.colorspace">709</property>
  <property name="kdenlive:original.meta.media.color_trc">2</property>
  <property name="kdenlive:original.meta.media.has_b_frames">2</property>
  <property name="kdenlive:original.meta.media.width">3840</property>
  <property name="kdenlive:original.meta.media.height">2160</property>
  <property name="kdenlive:original.meta.media.color_range">mpeg</property>
  <property name="kdenlive:original.meta.media.top_field_first">0</property>
  <property name="kdenlive:original.meta.media.progressive">1</property>
  <property name="kdenlive:original.kdenlive:clip_type">2</property>
  <property name="kdenlive:original.kdenlive:folderid">653</property>
  <property name="kdenlive:original.kdenlive:id">696</property>
  <property name="kdenlive:original.kdenlive:file_size">142893</property>
  <property name="kdenlive:original.kdenlive:file_hash">175a1b805619e4499a3de98375b32535</property>
  <property name="kdenlive:original.backup">1</property>
  <property name="meta.media.frame_rate_num">60</property>
  <property name="meta.media.frame_rate_den">1</property>
  <property name="meta.media.colorspace">601</property>
  <property name="meta.media.color_trc">2</property>
  <property name="meta.media.has_b_frames">0</property>
  <property name="meta.media.width">640</property>
  <property name="meta.media.height">360</property>
  <property name="meta.media.color_range">full</property>
  <property name="meta.media.top_field_first">0</property>
  <property name="meta.media.progressive">1</property>
 </producer>
 <producer id="producer494" in="00:00:00.000" out="00:00:00.983">
  <property name="length">60</property>
  <property name="eof">pause</property>
  <property name="resource">/home/xiaoxiae/.cache/kdenlive/proxy/9cfa2a577a72439b39fd82b120fbf32d.mkv</property>
  <property name="meta.media.nb_streams">1</property>
  <property name="meta.media.0.stream.type">video</property>
  <property name="meta.media.0.stream.frame_rate">60</property>
  <property name="meta.media.0.stream.sample_aspect_ratio">0</property>
  <property name="meta.media.0.codec.width">640</property>
  <property name="meta.media.0.codec.height">360</property>
  <property name="meta.media.0.codec.rotate">0</property>
  <property name="meta.media.0.codec.pix_fmt">yuvj420p</property>
  <property name="meta.media.0.codec.sample_aspect_ratio">0</property>
  <property name="meta.media.0.codec.colorspace">601</property>
  <property name="meta.media.0.codec.name">mjpeg</property>
  <property name="meta.media.0.codec.long_name">MJPEG (Motion JPEG)</property>
  <property name="meta.media.0.codec.bit_rate">0</property>
  <property name="meta.attr.0.stream.HANDLER_NAME.markup">VideoHandler</property>
  <property name="meta.attr.0.stream.VENDOR_ID.markup">[0][0][0][0]</property>
  <property name="meta.attr.0.stream.ENCODER.markup">Lavc60.3.100 mjpeg</property>
  <property name="meta.attr.0.stream.DURATION.markup">00:00:01.000000000</property>
  <property name="meta.attr.COMMENT.markup">Rendered with Manim Community v0.17.2</property>
  <property name="meta.attr.MAJOR_BRAND.markup">isom</property>
  <property name="meta.attr.MINOR_VERSION.markup">512</property>
  <property name="meta.attr.COMPATIBLE_BRANDS.markup">isomiso2avc1mp41</property>
  <property name="meta.attr.ENCODER.markup">Lavf60.3.100</property>
  <property name="seekable">1</property>
  <property name="meta.media.sample_aspect_num">1</property>
  <property name="meta.media.sample_aspect_den">1</property>
  <property name="aspect_ratio">1</property>
  <property name="format">3</property>
  <property name="audio_index">-1</property>
  <property name="video_index">0</property>
  <property name="mute_on_pause">0</property>
  <property name="mlt_service">avformat-novalidate</property>
  <property name="kdenlive:clipname">49.mp4</property>
  <property name="kdenlive:clip_type">2</property>
  <property name="kdenlive:folderid">653</property>
  <property name="kdenlive:id">583</property>
  <property name="kdenlive:file_size">394137</property>
  <property name="kdenlive:file_hash">9cfa2a577a72439b39fd82b120fbf32d</property>
  <property name="kdenlive:proxy">/home/xiaoxiae/.cache/kdenlive/proxy/9cfa2a577a72439b39fd82b120fbf32d.mkv</property>
  <property name="kdenlive:originalurl">video/Deletion/49.mp4</property>
  <property name="kdenlive:original.mlt_type">producer</property>
  <property name="kdenlive:original.in">0</property>
  <property name="kdenlive:original.out">59</property>
  <property name="kdenlive:original.length">60</property>
  <property name="kdenlive:original.eof">pause</property>
  <property name="kdenlive:original.resource">video/Deletion/49.mp4</property>
  <property name="kdenlive:original.meta.media.nb_streams">1</property>
  <property name="kdenlive:original.meta.media.0.stream.type">video</property>
  <property name="kdenlive:original.meta.media.0.stream.frame_rate">60</property>
  <property name="kdenlive:original.meta.media.0.stream.sample_aspect_ratio">0</property>
  <property name="kdenlive:original.meta.media.0.codec.width">3840</property>
  <property name="kdenlive:original.meta.media.0.codec.height">2160</property>
  <property name="kdenlive:original.meta.media.0.codec.rotate">0</property>
  <property name="kdenlive:original.meta.media.0.codec.pix_fmt">yuv420p</property>
  <property name="kdenlive:original.meta.media.0.codec.sample_aspect_ratio">0</property>
  <property name="kdenlive:original.meta.media.0.codec.colorspace">709</property>
  <property name="kdenlive:original.meta.media.0.codec.name">h264</property>
  <property name="kdenlive:original.meta.media.0.codec.long_name">H.264 / AVC / MPEG-4 AVC / MPEG-4 part 10</property>
  <property name="kdenlive:original.meta.media.0.codec.bit_rate">3141936</property>
  <property name="kdenlive:original.meta.attr.0.stream.handler_name.markup">VideoHandler</property>
  <property name="kdenlive:original.meta.attr.0.stream.vendor_id.markup">[0][0][0][0]</property>
  <property name="kdenlive:original.meta.attr.0.stream.encoder.markup">Lavc60.3.100 libx264</property>
  <property name="kdenlive:original.meta.attr.major_brand.markup">isom</property>
  <property name="kdenlive:original.meta.attr.minor_version.markup">512</property>
  <property name="kdenlive:original.meta.attr.compatible_brands.markup">isomiso2avc1mp41</property>
  <property name="kdenlive:original.meta.attr.encoder.markup">Lavf60.3.100</property>
  <property name="kdenlive:original.meta.attr.comment.markup">Rendered with Manim Community v0.17.2</property>
  <property name="kdenlive:original.seekable">1</property>
  <property name="kdenlive:original.width">3840</property>
  <property name="kdenlive:original.height">2160</property>
  <property name="kdenlive:original.meta.media.sample_aspect_num">1</property>
  <property name="kdenlive:original.meta.media.sample_aspect_den">1</property>
  <property name="kdenlive:original.aspect_ratio">1</property>
  <property name="kdenlive:original.format">3</property>
  <property name="kdenlive:original.audio_index">-1</property>
  <property name="kdenlive:original.video_index">0</property>
  <property name="kdenlive:original.mute_on_pause">0</property>
  <property name="kdenlive:original.mlt_service">avformat-novalidate</property>
  <property name="kdenlive:original.meta.media.frame_rate_num">60</property>
  <property name="kdenlive:original.meta.media.frame_rate_den">1</property>
  <property name="kdenlive:original.meta.media.colorspace">709</property>
  <property name="kdenlive:original.meta.media.color_trc">2</property>
  <property name="kdenlive:original.meta.media.has_b_frames">2</property>
  <property name="kdenlive:original.meta.media.width">3840</property>
  <property name="kdenlive:original.meta.media.height">2160</property>
  <property name="kdenlive:original.meta.media.color_range">mpeg</property>
  <property name="kdenlive:original.meta.media.top_field_first">0</property>
  <property name="kdenlive:original.meta.media.progressive">1</property>
  <property name="kdenlive:original.kdenlive:clip_type">2</property>
  <property name="kdenlive:original.kdenlive:folderid">653</property>
  <property name="kdenlive:original.kdenlive:id">697</property>
  <property name="kdenlive:original.kdenlive:file_size">394137</property>
  <property name="kdenlive:original.kdenlive:file_hash">9cfa2a577a72439b39fd82b120fbf32d</property>
  <property name="kdenlive:original.backup">1</property>
  <property name="meta.media.frame_rate_num">60</property>
  <property name="meta.media.frame_rate_den">1</property>
  <property name="meta.media.colorspace">601</property>
  <property name="meta.media.color_trc">2</property>
  <property name="meta.media.has_b_frames">0</property>
  <property name="meta.media.width">640</property>
  <property name="meta.media.height">360</property>
  <property name="meta.media.color_range">full</property>
  <property name="meta.media.top_field_first">0</property>
  <property name="meta.media.progressive">1</property>
 </producer>
 <producer id="producer495" in="00:00:00.000" out="00:00:00.117">
  <property name="length">8</property>
  <property name="eof">pause</property>
  <property name="resource">/home/xiaoxiae/.cache/kdenlive/proxy/45bb1d50ba499c246c662172c71044e8.mkv</property>
  <property name="meta.media.nb_streams">1</property>
  <property name="meta.media.0.stream.type">video</property>
  <property name="meta.media.0.stream.frame_rate">60</property>
  <property name="meta.media.0.stream.sample_aspect_ratio">0</property>
  <property name="meta.media.0.codec.width">640</property>
  <property name="meta.media.0.codec.height">360</property>
  <property name="meta.media.0.codec.rotate">0</property>
  <property name="meta.media.0.codec.pix_fmt">yuvj420p</property>
  <property name="meta.media.0.codec.sample_aspect_ratio">0</property>
  <property name="meta.media.0.codec.colorspace">601</property>
  <property name="meta.media.0.codec.name">mjpeg</property>
  <property name="meta.media.0.codec.long_name">MJPEG (Motion JPEG)</property>
  <property name="meta.media.0.codec.bit_rate">0</property>
  <property name="meta.attr.0.stream.HANDLER_NAME.markup">VideoHandler</property>
  <property name="meta.attr.0.stream.VENDOR_ID.markup">[0][0][0][0]</property>
  <property name="meta.attr.0.stream.ENCODER.markup">Lavc60.3.100 mjpeg</property>
  <property name="meta.attr.0.stream.DURATION.markup">00:00:00.134000000</property>
  <property name="meta.attr.COMMENT.markup">Rendered with Manim Community v0.17.2</property>
  <property name="meta.attr.MAJOR_BRAND.markup">isom</property>
  <property name="meta.attr.MINOR_VERSION.markup">512</property>
  <property name="meta.attr.COMPATIBLE_BRANDS.markup">isomiso2avc1mp41</property>
  <property name="meta.attr.ENCODER.markup">Lavf60.3.100</property>
  <property name="seekable">1</property>
  <property name="meta.media.sample_aspect_num">1</property>
  <property name="meta.media.sample_aspect_den">1</property>
  <property name="aspect_ratio">1</property>
  <property name="format">3</property>
  <property name="audio_index">-1</property>
  <property name="video_index">0</property>
  <property name="mute_on_pause">0</property>
  <property name="mlt_service">avformat-novalidate</property>
  <property name="kdenlive:clipname">5.mp4</property>
  <property name="kdenlive:clip_type">2</property>
  <property name="kdenlive:folderid">653</property>
  <property name="kdenlive:id">584</property>
  <property name="kdenlive:file_size">63234</property>
  <property name="kdenlive:file_hash">45bb1d50ba499c246c662172c71044e8</property>
  <property name="kdenlive:proxy">/home/xiaoxiae/.cache/kdenlive/proxy/45bb1d50ba499c246c662172c71044e8.mkv</property>
  <property name="kdenlive:originalurl">video/Deletion/5.mp4</property>
  <property name="kdenlive:original.mlt_type">producer</property>
  <property name="kdenlive:original.in">0</property>
  <property name="kdenlive:original.out">7</property>
  <property name="kdenlive:original.length">8</property>
  <property name="kdenlive:original.eof">pause</property>
  <property name="kdenlive:original.resource">video/Deletion/5.mp4</property>
  <property name="kdenlive:original.meta.media.nb_streams">1</property>
  <property name="kdenlive:original.meta.media.0.stream.type">video</property>
  <property name="kdenlive:original.meta.media.0.stream.frame_rate">60</property>
  <property name="kdenlive:original.meta.media.0.stream.sample_aspect_ratio">0</property>
  <property name="kdenlive:original.meta.media.0.codec.width">3840</property>
  <property name="kdenlive:original.meta.media.0.codec.height">2160</property>
  <property name="kdenlive:original.meta.media.0.codec.rotate">0</property>
  <property name="kdenlive:original.meta.media.0.codec.pix_fmt">yuv420p</property>
  <property name="kdenlive:original.meta.media.0.codec.sample_aspect_ratio">0</property>
  <property name="kdenlive:original.meta.media.0.codec.colorspace">709</property>
  <property name="kdenlive:original.meta.media.0.codec.name">h264</property>
  <property name="kdenlive:original.meta.media.0.codec.long_name">H.264 / AVC / MPEG-4 AVC / MPEG-4 part 10</property>
  <property name="kdenlive:original.meta.media.0.codec.bit_rate">3733620</property>
  <property name="kdenlive:original.meta.attr.0.stream.handler_name.markup">VideoHandler</property>
  <property name="kdenlive:original.meta.attr.0.stream.vendor_id.markup">[0][0][0][0]</property>
  <property name="kdenlive:original.meta.attr.0.stream.encoder.markup">Lavc60.3.100 libx264</property>
  <property name="kdenlive:original.meta.attr.major_brand.markup">isom</property>
  <property name="kdenlive:original.meta.attr.minor_version.markup">512</property>
  <property name="kdenlive:original.meta.attr.compatible_brands.markup">isomiso2avc1mp41</property>
  <property name="kdenlive:original.meta.attr.encoder.markup">Lavf60.3.100</property>
  <property name="kdenlive:original.meta.attr.comment.markup">Rendered with Manim Community v0.17.2</property>
  <property name="kdenlive:original.seekable">1</property>
  <property name="kdenlive:original.width">3840</property>
  <property name="kdenlive:original.height">2160</property>
  <property name="kdenlive:original.meta.media.sample_aspect_num">1</property>
  <property name="kdenlive:original.meta.media.sample_aspect_den">1</property>
  <property name="kdenlive:original.aspect_ratio">1</property>
  <property name="kdenlive:original.format">3</property>
  <property name="kdenlive:original.audio_index">-1</property>
  <property name="kdenlive:original.video_index">0</property>
  <property name="kdenlive:original.mute_on_pause">0</property>
  <property name="kdenlive:original.mlt_service">avformat-novalidate</property>
  <property name="kdenlive:original.meta.media.frame_rate_num">60</property>
  <property name="kdenlive:original.meta.media.frame_rate_den">1</property>
  <property name="kdenlive:original.meta.media.colorspace">709</property>
  <property name="kdenlive:original.meta.media.color_trc">2</property>
  <property name="kdenlive:original.meta.media.has_b_frames">2</property>
  <property name="kdenlive:original.meta.media.width">3840</property>
  <property name="kdenlive:original.meta.media.height">2160</property>
  <property name="kdenlive:original.meta.media.color_range">mpeg</property>
  <property name="kdenlive:original.meta.media.top_field_first">0</property>
  <property name="kdenlive:original.meta.media.progressive">1</property>
  <property name="kdenlive:original.kdenlive:clip_type">2</property>
  <property name="kdenlive:original.kdenlive:folderid">653</property>
  <property name="kdenlive:original.kdenlive:id">698</property>
  <property name="kdenlive:original.kdenlive:file_size">63234</property>
  <property name="kdenlive:original.kdenlive:file_hash">45bb1d50ba499c246c662172c71044e8</property>
  <property name="kdenlive:original.backup">1</property>
  <property name="meta.media.frame_rate_num">60</property>
  <property name="meta.media.frame_rate_den">1</property>
  <property name="meta.media.colorspace">601</property>
  <property name="meta.media.color_trc">2</property>
  <property name="meta.media.has_b_frames">0</property>
  <property name="meta.media.width">640</property>
  <property name="meta.media.height">360</property>
  <property name="meta.media.color_range">full</property>
  <property name="meta.media.top_field_first">0</property>
  <property name="meta.media.progressive">1</property>
 </producer>
 <producer id="producer493" in="00:00:00.000" out="00:00:00.983">
  <property name="length">60</property>
  <property name="eof">pause</property>
  <property name="resource">/home/xiaoxiae/.cache/kdenlive/proxy/ee6893dcedeae0f551600898ff916bb5.mkv</property>
  <property name="meta.media.nb_streams">1</property>
  <property name="meta.media.0.stream.type">video</property>
  <property name="meta.media.0.stream.frame_rate">60</property>
  <property name="meta.media.0.stream.sample_aspect_ratio">0</property>
  <property name="meta.media.0.codec.width">640</property>
  <property name="meta.media.0.codec.height">360</property>
  <property name="meta.media.0.codec.rotate">0</property>
  <property name="meta.media.0.codec.pix_fmt">yuvj420p</property>
  <property name="meta.media.0.codec.sample_aspect_ratio">0</property>
  <property name="meta.media.0.codec.colorspace">601</property>
  <property name="meta.media.0.codec.name">mjpeg</property>
  <property name="meta.media.0.codec.long_name">MJPEG (Motion JPEG)</property>
  <property name="meta.media.0.codec.bit_rate">0</property>
  <property name="meta.attr.0.stream.HANDLER_NAME.markup">VideoHandler</property>
  <property name="meta.attr.0.stream.VENDOR_ID.markup">[0][0][0][0]</property>
  <property name="meta.attr.0.stream.ENCODER.markup">Lavc60.3.100 mjpeg</property>
  <property name="meta.attr.0.stream.DURATION.markup">00:00:01.000000000</property>
  <property name="meta.attr.COMMENT.markup">Rendered with Manim Community v0.17.2</property>
  <property name="meta.attr.MAJOR_BRAND.markup">isom</property>
  <property name="meta.attr.MINOR_VERSION.markup">512</property>
  <property name="meta.attr.COMPATIBLE_BRANDS.markup">isomiso2avc1mp41</property>
  <property name="meta.attr.ENCODER.markup">Lavf60.3.100</property>
  <property name="seekable">1</property>
  <property name="meta.media.sample_aspect_num">1</property>
  <property name="meta.media.sample_aspect_den">1</property>
  <property name="aspect_ratio">1</property>
  <property name="format">3</property>
  <property name="audio_index">-1</property>
  <property name="video_index">0</property>
  <property name="mute_on_pause">0</property>
  <property name="mlt_service">avformat-novalidate</property>
  <property name="kdenlive:clipname">50.mp4</property>
  <property name="kdenlive:clip_type">2</property>
  <property name="kdenlive:folderid">653</property>
  <property name="kdenlive:id">585</property>
  <property name="kdenlive:file_size">64101</property>
  <property name="kdenlive:file_hash">ee6893dcedeae0f551600898ff916bb5</property>
  <property name="kdenlive:proxy">/home/xiaoxiae/.cache/kdenlive/proxy/ee6893dcedeae0f551600898ff916bb5.mkv</property>
  <property name="kdenlive:originalurl">video/Deletion/50.mp4</property>
  <property name="kdenlive:original.mlt_type">producer</property>
  <property name="kdenlive:original.in">0</property>
  <property name="kdenlive:original.out">59</property>
  <property name="kdenlive:original.length">60</property>
  <property name="kdenlive:original.eof">pause</property>
  <property name="kdenlive:original.resource">video/Deletion/50.mp4</property>
  <property name="kdenlive:original.meta.media.nb_streams">1</property>
  <property name="kdenlive:original.meta.media.0.stream.type">video</property>
  <property name="kdenlive:original.meta.media.0.stream.frame_rate">60</property>
  <property name="kdenlive:original.meta.media.0.stream.sample_aspect_ratio">0</property>
  <property name="kdenlive:original.meta.media.0.codec.width">3840</property>
  <property name="kdenlive:original.meta.media.0.codec.height">2160</property>
  <property name="kdenlive:original.meta.media.0.codec.rotate">0</property>
  <property name="kdenlive:original.meta.media.0.codec.pix_fmt">yuv420p</property>
  <property name="kdenlive:original.meta.media.0.codec.sample_aspect_ratio">0</property>
  <property name="kdenlive:original.meta.media.0.codec.colorspace">709</property>
  <property name="kdenlive:original.meta.media.0.codec.name">h264</property>
  <property name="kdenlive:original.meta.media.0.codec.long_name">H.264 / AVC / MPEG-4 AVC / MPEG-4 part 10</property>
  <property name="kdenlive:original.meta.media.0.codec.bit_rate">499696</property>
  <property name="kdenlive:original.meta.attr.0.stream.handler_name.markup">VideoHandler</property>
  <property name="kdenlive:original.meta.attr.0.stream.vendor_id.markup">[0][0][0][0]</property>
  <property name="kdenlive:original.meta.attr.0.stream.encoder.markup">Lavc60.3.100 libx264</property>
  <property name="kdenlive:original.meta.attr.major_brand.markup">isom</property>
  <property name="kdenlive:original.meta.attr.minor_version.markup">512</property>
  <property name="kdenlive:original.meta.attr.compatible_brands.markup">isomiso2avc1mp41</property>
  <property name="kdenlive:original.meta.attr.encoder.markup">Lavf60.3.100</property>
  <property name="kdenlive:original.meta.attr.comment.markup">Rendered with Manim Community v0.17.2</property>
  <property name="kdenlive:original.seekable">1</property>
  <property name="kdenlive:original.width">3840</property>
  <property name="kdenlive:original.height">2160</property>
  <property name="kdenlive:original.meta.media.sample_aspect_num">1</property>
  <property name="kdenlive:original.meta.media.sample_aspect_den">1</property>
  <property name="kdenlive:original.aspect_ratio">1</property>
  <property name="kdenlive:original.format">3</property>
  <property name="kdenlive:original.audio_index">-1</property>
  <property name="kdenlive:original.video_index">0</property>
  <property name="kdenlive:original.mute_on_pause">0</property>
  <property name="kdenlive:original.mlt_service">avformat-novalidate</property>
  <property name="kdenlive:original.meta.media.frame_rate_num">60</property>
  <property name="kdenlive:original.meta.media.frame_rate_den">1</property>
  <property name="kdenlive:original.meta.media.colorspace">709</property>
  <property name="kdenlive:original.meta.media.color_trc">2</property>
  <property name="kdenlive:original.meta.media.has_b_frames">2</property>
  <property name="kdenlive:original.meta.media.width">3840</property>
  <property name="kdenlive:original.meta.media.height">2160</property>
  <property name="kdenlive:original.meta.media.color_range">mpeg</property>
  <property name="kdenlive:original.meta.media.top_field_first">0</property>
  <property name="kdenlive:original.meta.media.progressive">1</property>
  <property name="kdenlive:original.kdenlive:clip_type">2</property>
  <property name="kdenlive:original.kdenlive:folderid">653</property>
  <property name="kdenlive:original.kdenlive:id">699</property>
  <property name="kdenlive:original.kdenlive:file_size">64101</property>
  <property name="kdenlive:original.kdenlive:file_hash">ee6893dcedeae0f551600898ff916bb5</property>
  <property name="kdenlive:original.backup">1</property>
  <property name="meta.media.frame_rate_num">60</property>
  <property name="meta.media.frame_rate_den">1</property>
  <property name="meta.media.colorspace">601</property>
  <property name="meta.media.color_trc">2</property>
  <property name="meta.media.has_b_frames">0</property>
  <property name="meta.media.width">640</property>
  <property name="meta.media.height">360</property>
  <property name="meta.media.color_range">full</property>
  <property name="meta.media.top_field_first">0</property>
  <property name="meta.media.progressive">1</property>
 </producer>
 <producer id="producer496" in="00:00:00.000" out="00:00:00.117">
  <property name="length">8</property>
  <property name="eof">pause</property>
  <property name="resource">/home/xiaoxiae/.cache/kdenlive/proxy/325da54ee00c3c7bb4cd4300197fdfd5.mkv</property>
  <property name="meta.media.nb_streams">1</property>
  <property name="meta.media.0.stream.type">video</property>
  <property name="meta.media.0.stream.frame_rate">60</property>
  <property name="meta.media.0.stream.sample_aspect_ratio">0</property>
  <property name="meta.media.0.codec.width">640</property>
  <property name="meta.media.0.codec.height">360</property>
  <property name="meta.media.0.codec.rotate">0</property>
  <property name="meta.media.0.codec.pix_fmt">yuvj420p</property>
  <property name="meta.media.0.codec.sample_aspect_ratio">0</property>
  <property name="meta.media.0.codec.colorspace">601</property>
  <property name="meta.media.0.codec.name">mjpeg</property>
  <property name="meta.media.0.codec.long_name">MJPEG (Motion JPEG)</property>
  <property name="meta.media.0.codec.bit_rate">0</property>
  <property name="meta.attr.0.stream.HANDLER_NAME.markup">VideoHandler</property>
  <property name="meta.attr.0.stream.VENDOR_ID.markup">[0][0][0][0]</property>
  <property name="meta.attr.0.stream.ENCODER.markup">Lavc60.3.100 mjpeg</property>
  <property name="meta.attr.0.stream.DURATION.markup">00:00:00.134000000</property>
  <property name="meta.attr.COMMENT.markup">Rendered with Manim Community v0.17.2</property>
  <property name="meta.attr.MAJOR_BRAND.markup">isom</property>
  <property name="meta.attr.MINOR_VERSION.markup">512</property>
  <property name="meta.attr.COMPATIBLE_BRANDS.markup">isomiso2avc1mp41</property>
  <property name="meta.attr.ENCODER.markup">Lavf60.3.100</property>
  <property name="seekable">1</property>
  <property name="meta.media.sample_aspect_num">1</property>
  <property name="meta.media.sample_aspect_den">1</property>
  <property name="aspect_ratio">1</property>
  <property name="format">3</property>
  <property name="audio_index">-1</property>
  <property name="video_index">0</property>
  <property name="mute_on_pause">0</property>
  <property name="mlt_service">avformat-novalidate</property>
  <property name="kdenlive:clipname">6.mp4</property>
  <property name="kdenlive:clip_type">2</property>
  <property name="kdenlive:folderid">653</property>
  <property name="kdenlive:id">586</property>
  <property name="kdenlive:file_size">70871</property>
  <property name="kdenlive:file_hash">325da54ee00c3c7bb4cd4300197fdfd5</property>
  <property name="kdenlive:proxy">/home/xiaoxiae/.cache/kdenlive/proxy/325da54ee00c3c7bb4cd4300197fdfd5.mkv</property>
  <property name="kdenlive:originalurl">video/Deletion/6.mp4</property>
  <property name="kdenlive:original.mlt_type">producer</property>
  <property name="kdenlive:original.in">0</property>
  <property name="kdenlive:original.out">7</property>
  <property name="kdenlive:original.length">8</property>
  <property name="kdenlive:original.eof">pause</property>
  <property name="kdenlive:original.resource">video/Deletion/6.mp4</property>
  <property name="kdenlive:original.meta.media.nb_streams">1</property>
  <property name="kdenlive:original.meta.media.0.stream.type">video</property>
  <property name="kdenlive:original.meta.media.0.stream.frame_rate">60</property>
  <property name="kdenlive:original.meta.media.0.stream.sample_aspect_ratio">0</property>
  <property name="kdenlive:original.meta.media.0.codec.width">3840</property>
  <property name="kdenlive:original.meta.media.0.codec.height">2160</property>
  <property name="kdenlive:original.meta.media.0.codec.rotate">0</property>
  <property name="kdenlive:original.meta.media.0.codec.pix_fmt">yuv420p</property>
  <property name="kdenlive:original.meta.media.0.codec.sample_aspect_ratio">0</property>
  <property name="kdenlive:original.meta.media.0.codec.colorspace">709</property>
  <property name="kdenlive:original.meta.media.0.codec.name">h264</property>
  <property name="kdenlive:original.meta.media.0.codec.long_name">H.264 / AVC / MPEG-4 AVC / MPEG-4 part 10</property>
  <property name="kdenlive:original.meta.media.0.codec.bit_rate">4191840</property>
  <property name="kdenlive:original.meta.attr.0.stream.handler_name.markup">VideoHandler</property>
  <property name="kdenlive:original.meta.attr.0.stream.vendor_id.markup">[0][0][0][0]</property>
  <property name="kdenlive:original.meta.attr.0.stream.encoder.markup">Lavc60.3.100 libx264</property>
  <property name="kdenlive:original.meta.attr.major_brand.markup">isom</property>
  <property name="kdenlive:original.meta.attr.minor_version.markup">512</property>
  <property name="kdenlive:original.meta.attr.compatible_brands.markup">isomiso2avc1mp41</property>
  <property name="kdenlive:original.meta.attr.encoder.markup">Lavf60.3.100</property>
  <property name="kdenlive:original.meta.attr.comment.markup">Rendered with Manim Community v0.17.2</property>
  <property name="kdenlive:original.seekable">1</property>
  <property name="kdenlive:original.width">3840</property>
  <property name="kdenlive:original.height">2160</property>
  <property name="kdenlive:original.meta.media.sample_aspect_num">1</property>
  <property name="kdenlive:original.meta.media.sample_aspect_den">1</property>
  <property name="kdenlive:original.aspect_ratio">1</property>
  <property name="kdenlive:original.format">3</property>
  <property name="kdenlive:original.audio_index">-1</property>
  <property name="kdenlive:original.video_index">0</property>
  <property name="kdenlive:original.mute_on_pause">0</property>
  <property name="kdenlive:original.mlt_service">avformat-novalidate</property>
  <property name="kdenlive:original.meta.media.frame_rate_num">60</property>
  <property name="kdenlive:original.meta.media.frame_rate_den">1</property>
  <property name="kdenlive:original.meta.media.colorspace">709</property>
  <property name="kdenlive:original.meta.media.color_trc">2</property>
  <property name="kdenlive:original.meta.media.has_b_frames">2</property>
  <property name="kdenlive:original.meta.media.width">3840</property>
  <property name="kdenlive:original.meta.media.height">2160</property>
  <property name="kdenlive:original.meta.media.color_range">mpeg</property>
  <property name="kdenlive:original.meta.media.top_field_first">0</property>
  <property name="kdenlive:original.meta.media.progressive">1</property>
  <property name="kdenlive:original.kdenlive:clip_type">2</property>
  <property name="kdenlive:original.kdenlive:folderid">653</property>
  <property name="kdenlive:original.kdenlive:id">700</property>
  <property name="kdenlive:original.kdenlive:file_size">70871</property>
  <property name="kdenlive:original.kdenlive:file_hash">325da54ee00c3c7bb4cd4300197fdfd5</property>
  <property name="kdenlive:original.backup">1</property>
  <property name="meta.media.frame_rate_num">60</property>
  <property name="meta.media.frame_rate_den">1</property>
  <property name="meta.media.colorspace">601</property>
  <property name="meta.media.color_trc">2</property>
  <property name="meta.media.has_b_frames">0</property>
  <property name="meta.media.width">640</property>
  <property name="meta.media.height">360</property>
  <property name="meta.media.color_range">full</property>
  <property name="meta.media.top_field_first">0</property>
  <property name="meta.media.progressive">1</property>
 </producer>
 <producer id="producer497" in="00:00:00.000" out="00:00:00.183">
  <property name="length">12</property>
  <property name="eof">pause</property>
  <property name="resource">/home/xiaoxiae/.cache/kdenlive/proxy/e11ceda0220cfec415d46263d9327775.mkv</property>
  <property name="meta.media.nb_streams">1</property>
  <property name="meta.media.0.stream.type">video</property>
  <property name="meta.media.0.stream.frame_rate">60</property>
  <property name="meta.media.0.stream.sample_aspect_ratio">0</property>
  <property name="meta.media.0.codec.width">640</property>
  <property name="meta.media.0.codec.height">360</property>
  <property name="meta.media.0.codec.rotate">0</property>
  <property name="meta.media.0.codec.pix_fmt">yuvj420p</property>
  <property name="meta.media.0.codec.sample_aspect_ratio">0</property>
  <property name="meta.media.0.codec.colorspace">601</property>
  <property name="meta.media.0.codec.name">mjpeg</property>
  <property name="meta.media.0.codec.long_name">MJPEG (Motion JPEG)</property>
  <property name="meta.media.0.codec.bit_rate">0</property>
  <property name="meta.attr.0.stream.HANDLER_NAME.markup">VideoHandler</property>
  <property name="meta.attr.0.stream.VENDOR_ID.markup">[0][0][0][0]</property>
  <property name="meta.attr.0.stream.ENCODER.markup">Lavc60.3.100 mjpeg</property>
  <property name="meta.attr.0.stream.DURATION.markup">00:00:00.200000000</property>
  <property name="meta.attr.COMMENT.markup">Rendered with Manim Community v0.17.2</property>
  <property name="meta.attr.MAJOR_BRAND.markup">isom</property>
  <property name="meta.attr.MINOR_VERSION.markup">512</property>
  <property name="meta.attr.COMPATIBLE_BRANDS.markup">isomiso2avc1mp41</property>
  <property name="meta.attr.ENCODER.markup">Lavf60.3.100</property>
  <property name="seekable">1</property>
  <property name="meta.media.sample_aspect_num">1</property>
  <property name="meta.media.sample_aspect_den">1</property>
  <property name="aspect_ratio">1</property>
  <property name="format">3</property>
  <property name="audio_index">-1</property>
  <property name="video_index">0</property>
  <property name="mute_on_pause">0</property>
  <property name="mlt_service">avformat-novalidate</property>
  <property name="kdenlive:clipname">7.mp4</property>
  <property name="kdenlive:clip_type">2</property>
  <property name="kdenlive:folderid">653</property>
  <property name="kdenlive:id">587</property>
  <property name="kdenlive:file_size">97669</property>
  <property name="kdenlive:file_hash">e11ceda0220cfec415d46263d9327775</property>
  <property name="kdenlive:proxy">/home/xiaoxiae/.cache/kdenlive/proxy/e11ceda0220cfec415d46263d9327775.mkv</property>
  <property name="kdenlive:originalurl">video/Deletion/7.mp4</property>
  <property name="kdenlive:original.mlt_type">producer</property>
  <property name="kdenlive:original.in">0</property>
  <property name="kdenlive:original.out">11</property>
  <property name="kdenlive:original.length">12</property>
  <property name="kdenlive:original.eof">pause</property>
  <property name="kdenlive:original.resource">video/Deletion/7.mp4</property>
  <property name="kdenlive:original.meta.media.nb_streams">1</property>
  <property name="kdenlive:original.meta.media.0.stream.type">video</property>
  <property name="kdenlive:original.meta.media.0.stream.frame_rate">60</property>
  <property name="kdenlive:original.meta.media.0.stream.sample_aspect_ratio">0</property>
  <property name="kdenlive:original.meta.media.0.codec.width">3840</property>
  <property name="kdenlive:original.meta.media.0.codec.height">2160</property>
  <property name="kdenlive:original.meta.media.0.codec.rotate">0</property>
  <property name="kdenlive:original.meta.media.0.codec.pix_fmt">yuv420p</property>
  <property name="kdenlive:original.meta.media.0.codec.sample_aspect_ratio">0</property>
  <property name="kdenlive:original.meta.media.0.codec.colorspace">709</property>
  <property name="kdenlive:original.meta.media.0.codec.name">h264</property>
  <property name="kdenlive:original.meta.media.0.codec.long_name">H.264 / AVC / MPEG-4 AVC / MPEG-4 part 10</property>
  <property name="kdenlive:original.meta.media.0.codec.bit_rate">3864560</property>
  <property name="kdenlive:original.meta.attr.0.stream.handler_name.markup">VideoHandler</property>
  <property name="kdenlive:original.meta.attr.0.stream.vendor_id.markup">[0][0][0][0]</property>
  <property name="kdenlive:original.meta.attr.0.stream.encoder.markup">Lavc60.3.100 libx264</property>
  <property name="kdenlive:original.meta.attr.major_brand.markup">isom</property>
  <property name="kdenlive:original.meta.attr.minor_version.markup">512</property>
  <property name="kdenlive:original.meta.attr.compatible_brands.markup">isomiso2avc1mp41</property>
  <property name="kdenlive:original.meta.attr.encoder.markup">Lavf60.3.100</property>
  <property name="kdenlive:original.meta.attr.comment.markup">Rendered with Manim Community v0.17.2</property>
  <property name="kdenlive:original.seekable">1</property>
  <property name="kdenlive:original.width">3840</property>
  <property name="kdenlive:original.height">2160</property>
  <property name="kdenlive:original.meta.media.sample_aspect_num">1</property>
  <property name="kdenlive:original.meta.media.sample_aspect_den">1</property>
  <property name="kdenlive:original.aspect_ratio">1</property>
  <property name="kdenlive:original.format">3</property>
  <property name="kdenlive:original.audio_index">-1</property>
  <property name="kdenlive:original.video_index">0</property>
  <property name="kdenlive:original.mute_on_pause">0</property>
  <property name="kdenlive:original.mlt_service">avformat-novalidate</property>
  <property name="kdenlive:original.meta.media.frame_rate_num">60</property>
  <property name="kdenlive:original.meta.media.frame_rate_den">1</property>
  <property name="kdenlive:original.meta.media.colorspace">709</property>
  <property name="kdenlive:original.meta.media.color_trc">2</property>
  <property name="kdenlive:original.meta.media.has_b_frames">2</property>
  <property name="kdenlive:original.meta.media.width">3840</property>
  <property name="kdenlive:original.meta.media.height">2160</property>
  <property name="kdenlive:original.meta.media.color_range">mpeg</property>
  <property name="kdenlive:original.meta.media.top_field_first">0</property>
  <property name="kdenlive:original.meta.media.progressive">1</property>
  <property name="kdenlive:original.kdenlive:clip_type">2</property>
  <property name="kdenlive:original.kdenlive:folderid">653</property>
  <property name="kdenlive:original.kdenlive:id">701</property>
  <property name="kdenlive:original.kdenlive:file_size">97669</property>
  <property name="kdenlive:original.kdenlive:file_hash">e11ceda0220cfec415d46263d9327775</property>
  <property name="kdenlive:original.backup">1</property>
  <property name="meta.media.frame_rate_num">60</property>
  <property name="meta.media.frame_rate_den">1</property>
  <property name="meta.media.colorspace">601</property>
  <property name="meta.media.color_trc">2</property>
  <property name="meta.media.has_b_frames">0</property>
  <property name="meta.media.width">640</property>
  <property name="meta.media.height">360</property>
  <property name="meta.media.color_range">full</property>
  <property name="meta.media.top_field_first">0</property>
  <property name="meta.media.progressive">1</property>
 </producer>
 <producer id="producer498" in="00:00:00.000" out="00:00:00.183">
  <property name="length">12</property>
  <property name="eof">pause</property>
  <property name="resource">/home/xiaoxiae/.cache/kdenlive/proxy/2b26ba6187e76bf67d2fb24bd4312334.mkv</property>
  <property name="meta.media.nb_streams">1</property>
  <property name="meta.media.0.stream.type">video</property>
  <property name="meta.media.0.stream.frame_rate">60</property>
  <property name="meta.media.0.stream.sample_aspect_ratio">0</property>
  <property name="meta.media.0.codec.width">640</property>
  <property name="meta.media.0.codec.height">360</property>
  <property name="meta.media.0.codec.rotate">0</property>
  <property name="meta.media.0.codec.pix_fmt">yuvj420p</property>
  <property name="meta.media.0.codec.sample_aspect_ratio">0</property>
  <property name="meta.media.0.codec.colorspace">601</property>
  <property name="meta.media.0.codec.name">mjpeg</property>
  <property name="meta.media.0.codec.long_name">MJPEG (Motion JPEG)</property>
  <property name="meta.media.0.codec.bit_rate">0</property>
  <property name="meta.attr.0.stream.HANDLER_NAME.markup">VideoHandler</property>
  <property name="meta.attr.0.stream.VENDOR_ID.markup">[0][0][0][0]</property>
  <property name="meta.attr.0.stream.ENCODER.markup">Lavc60.3.100 mjpeg</property>
  <property name="meta.attr.0.stream.DURATION.markup">00:00:00.200000000</property>
  <property name="meta.attr.COMMENT.markup">Rendered with Manim Community v0.17.2</property>
  <property name="meta.attr.MAJOR_BRAND.markup">isom</property>
  <property name="meta.attr.MINOR_VERSION.markup">512</property>
  <property name="meta.attr.COMPATIBLE_BRANDS.markup">isomiso2avc1mp41</property>
  <property name="meta.attr.ENCODER.markup">Lavf60.3.100</property>
  <property name="seekable">1</property>
  <property name="meta.media.sample_aspect_num">1</property>
  <property name="meta.media.sample_aspect_den">1</property>
  <property name="aspect_ratio">1</property>
  <property name="format">3</property>
  <property name="audio_index">-1</property>
  <property name="video_index">0</property>
  <property name="mute_on_pause">0</property>
  <property name="mlt_service">avformat-novalidate</property>
  <property name="kdenlive:clipname">8.mp4</property>
  <property name="kdenlive:clip_type">2</property>
  <property name="kdenlive:folderid">653</property>
  <property name="kdenlive:id">588</property>
  <property name="kdenlive:file_size">43120</property>
  <property name="kdenlive:file_hash">2b26ba6187e76bf67d2fb24bd4312334</property>
  <property name="kdenlive:proxy">/home/xiaoxiae/.cache/kdenlive/proxy/2b26ba6187e76bf67d2fb24bd4312334.mkv</property>
  <property name="kdenlive:originalurl">video/Deletion/8.mp4</property>
  <property name="kdenlive:original.mlt_type">producer</property>
  <property name="kdenlive:original.in">0</property>
  <property name="kdenlive:original.out">11</property>
  <property name="kdenlive:original.length">12</property>
  <property name="kdenlive:original.eof">pause</property>
  <property name="kdenlive:original.resource">video/Deletion/8.mp4</property>
  <property name="kdenlive:original.meta.media.nb_streams">1</property>
  <property name="kdenlive:original.meta.media.0.stream.type">video</property>
  <property name="kdenlive:original.meta.media.0.stream.frame_rate">60</property>
  <property name="kdenlive:original.meta.media.0.stream.sample_aspect_ratio">0</property>
  <property name="kdenlive:original.meta.media.0.codec.width">3840</property>
  <property name="kdenlive:original.meta.media.0.codec.height">2160</property>
  <property name="kdenlive:original.meta.media.0.codec.rotate">0</property>
  <property name="kdenlive:original.meta.media.0.codec.pix_fmt">yuv420p</property>
  <property name="kdenlive:original.meta.media.0.codec.sample_aspect_ratio">0</property>
  <property name="kdenlive:original.meta.media.0.codec.colorspace">709</property>
  <property name="kdenlive:original.meta.media.0.codec.name">h264</property>
  <property name="kdenlive:original.meta.media.0.codec.long_name">H.264 / AVC / MPEG-4 AVC / MPEG-4 part 10</property>
  <property name="kdenlive:original.meta.media.0.codec.bit_rate">1682600</property>
  <property name="kdenlive:original.meta.attr.0.stream.handler_name.markup">VideoHandler</property>
  <property name="kdenlive:original.meta.attr.0.stream.vendor_id.markup">[0][0][0][0]</property>
  <property name="kdenlive:original.meta.attr.0.stream.encoder.markup">Lavc60.3.100 libx264</property>
  <property name="kdenlive:original.meta.attr.major_brand.markup">isom</property>
  <property name="kdenlive:original.meta.attr.minor_version.markup">512</property>
  <property name="kdenlive:original.meta.attr.compatible_brands.markup">isomiso2avc1mp41</property>
  <property name="kdenlive:original.meta.attr.encoder.markup">Lavf60.3.100</property>
  <property name="kdenlive:original.meta.attr.comment.markup">Rendered with Manim Community v0.17.2</property>
  <property name="kdenlive:original.seekable">1</property>
  <property name="kdenlive:original.width">3840</property>
  <property name="kdenlive:original.height">2160</property>
  <property name="kdenlive:original.meta.media.sample_aspect_num">1</property>
  <property name="kdenlive:original.meta.media.sample_aspect_den">1</property>
  <property name="kdenlive:original.aspect_ratio">1</property>
  <property name="kdenlive:original.format">3</property>
  <property name="kdenlive:original.audio_index">-1</property>
  <property name="kdenlive:original.video_index">0</property>
  <property name="kdenlive:original.mute_on_pause">0</property>
  <property name="kdenlive:original.mlt_service">avformat-novalidate</property>
  <property name="kdenlive:original.meta.media.frame_rate_num">60</property>
  <property name="kdenlive:original.meta.media.frame_rate_den">1</property>
  <property name="kdenlive:original.meta.media.colorspace">709</property>
  <property name="kdenlive:original.meta.media.color_trc">2</property>
  <property name="kdenlive:original.meta.media.has_b_frames">2</property>
  <property name="kdenlive:original.meta.media.width">3840</property>
  <property name="kdenlive:original.meta.media.height">2160</property>
  <property name="kdenlive:original.meta.media.color_range">mpeg</property>
  <property name="kdenlive:original.meta.media.top_field_first">0</property>
  <property name="kdenlive:original.meta.media.progressive">1</property>
  <property name="kdenlive:original.kdenlive:clip_type">2</property>
  <property name="kdenlive:original.kdenlive:folderid">653</property>
  <property name="kdenlive:original.kdenlive:id">702</property>
  <property name="kdenlive:original.kdenlive:file_size">43120</property>
  <property name="kdenlive:original.kdenlive:file_hash">2b26ba6187e76bf67d2fb24bd4312334</property>
  <property name="kdenlive:original.backup">1</property>
  <property name="meta.media.frame_rate_num">60</property>
  <property name="meta.media.frame_rate_den">1</property>
  <property name="meta.media.colorspace">601</property>
  <property name="meta.media.color_trc">2</property>
  <property name="meta.media.has_b_frames">0</property>
  <property name="meta.media.width">640</property>
  <property name="meta.media.height">360</property>
  <property name="meta.media.color_range">full</property>
  <property name="meta.media.top_field_first">0</property>
  <property name="meta.media.progressive">1</property>
 </producer>
 <producer id="producer500" in="00:00:00.000" out="00:00:00.183">
  <property name="length">12</property>
  <property name="eof">pause</property>
  <property name="resource">/home/xiaoxiae/.cache/kdenlive/proxy/0cfead1c1b169568e217bf4f89bd51ec.mkv</property>
  <property name="meta.media.nb_streams">1</property>
  <property name="meta.media.0.stream.type">video</property>
  <property name="meta.media.0.stream.frame_rate">60</property>
  <property name="meta.media.0.stream.sample_aspect_ratio">0</property>
  <property name="meta.media.0.codec.width">640</property>
  <property name="meta.media.0.codec.height">360</property>
  <property name="meta.media.0.codec.rotate">0</property>
  <property name="meta.media.0.codec.pix_fmt">yuvj420p</property>
  <property name="meta.media.0.codec.sample_aspect_ratio">0</property>
  <property name="meta.media.0.codec.colorspace">601</property>
  <property name="meta.media.0.codec.name">mjpeg</property>
  <property name="meta.media.0.codec.long_name">MJPEG (Motion JPEG)</property>
  <property name="meta.media.0.codec.bit_rate">0</property>
  <property name="meta.attr.0.stream.HANDLER_NAME.markup">VideoHandler</property>
  <property name="meta.attr.0.stream.VENDOR_ID.markup">[0][0][0][0]</property>
  <property name="meta.attr.0.stream.ENCODER.markup">Lavc60.3.100 mjpeg</property>
  <property name="meta.attr.0.stream.DURATION.markup">00:00:00.200000000</property>
  <property name="meta.attr.COMMENT.markup">Rendered with Manim Community v0.17.2</property>
  <property name="meta.attr.MAJOR_BRAND.markup">isom</property>
  <property name="meta.attr.MINOR_VERSION.markup">512</property>
  <property name="meta.attr.COMPATIBLE_BRANDS.markup">isomiso2avc1mp41</property>
  <property name="meta.attr.ENCODER.markup">Lavf60.3.100</property>
  <property name="seekable">1</property>
  <property name="meta.media.sample_aspect_num">1</property>
  <property name="meta.media.sample_aspect_den">1</property>
  <property name="aspect_ratio">1</property>
  <property name="format">3</property>
  <property name="audio_index">-1</property>
  <property name="video_index">0</property>
  <property name="mute_on_pause">0</property>
  <property name="mlt_service">avformat-novalidate</property>
  <property name="kdenlive:clipname">9.mp4</property>
  <property name="kdenlive:clip_type">2</property>
  <property name="kdenlive:folderid">653</property>
  <property name="kdenlive:id">589</property>
  <property name="kdenlive:file_size">49174</property>
  <property name="kdenlive:file_hash">0cfead1c1b169568e217bf4f89bd51ec</property>
  <property name="kdenlive:proxy">/home/xiaoxiae/.cache/kdenlive/proxy/0cfead1c1b169568e217bf4f89bd51ec.mkv</property>
  <property name="kdenlive:originalurl">video/Deletion/9.mp4</property>
  <property name="kdenlive:original.mlt_type">producer</property>
  <property name="kdenlive:original.in">0</property>
  <property name="kdenlive:original.out">11</property>
  <property name="kdenlive:original.length">12</property>
  <property name="kdenlive:original.eof">pause</property>
  <property name="kdenlive:original.resource">video/Deletion/9.mp4</property>
  <property name="kdenlive:original.meta.media.nb_streams">1</property>
  <property name="kdenlive:original.meta.media.0.stream.type">video</property>
  <property name="kdenlive:original.meta.media.0.stream.frame_rate">60</property>
  <property name="kdenlive:original.meta.media.0.stream.sample_aspect_ratio">0</property>
  <property name="kdenlive:original.meta.media.0.codec.width">3840</property>
  <property name="kdenlive:original.meta.media.0.codec.height">2160</property>
  <property name="kdenlive:original.meta.media.0.codec.rotate">0</property>
  <property name="kdenlive:original.meta.media.0.codec.pix_fmt">yuv420p</property>
  <property name="kdenlive:original.meta.media.0.codec.sample_aspect_ratio">0</property>
  <property name="kdenlive:original.meta.media.0.codec.colorspace">709</property>
  <property name="kdenlive:original.meta.media.0.codec.name">h264</property>
  <property name="kdenlive:original.meta.media.0.codec.long_name">H.264 / AVC / MPEG-4 AVC / MPEG-4 part 10</property>
  <property name="kdenlive:original.meta.media.0.codec.bit_rate">1924760</property>
  <property name="kdenlive:original.meta.attr.0.stream.handler_name.markup">VideoHandler</property>
  <property name="kdenlive:original.meta.attr.0.stream.vendor_id.markup">[0][0][0][0]</property>
  <property name="kdenlive:original.meta.attr.0.stream.encoder.markup">Lavc60.3.100 libx264</property>
  <property name="kdenlive:original.meta.attr.major_brand.markup">isom</property>
  <property name="kdenlive:original.meta.attr.minor_version.markup">512</property>
  <property name="kdenlive:original.meta.attr.compatible_brands.markup">isomiso2avc1mp41</property>
  <property name="kdenlive:original.meta.attr.encoder.markup">Lavf60.3.100</property>
  <property name="kdenlive:original.meta.attr.comment.markup">Rendered with Manim Community v0.17.2</property>
  <property name="kdenlive:original.seekable">1</property>
  <property name="kdenlive:original.width">3840</property>
  <property name="kdenlive:original.height">2160</property>
  <property name="kdenlive:original.meta.media.sample_aspect_num">1</property>
  <property name="kdenlive:original.meta.media.sample_aspect_den">1</property>
  <property name="kdenlive:original.aspect_ratio">1</property>
  <property name="kdenlive:original.format">3</property>
  <property name="kdenlive:original.audio_index">-1</property>
  <property name="kdenlive:original.video_index">0</property>
  <property name="kdenlive:original.mute_on_pause">0</property>
  <property name="kdenlive:original.mlt_service">avformat-novalidate</property>
  <property name="kdenlive:original.meta.media.frame_rate_num">60</property>
  <property name="kdenlive:original.meta.media.frame_rate_den">1</property>
  <property name="kdenlive:original.meta.media.colorspace">709</property>
  <property name="kdenlive:original.meta.media.color_trc">2</property>
  <property name="kdenlive:original.meta.media.has_b_frames">2</property>
  <property name="kdenlive:original.meta.media.width">3840</property>
  <property name="kdenlive:original.meta.media.height">2160</property>
  <property name="kdenlive:original.meta.media.color_range">mpeg</property>
  <property name="kdenlive:original.meta.media.top_field_first">0</property>
  <property name="kdenlive:original.meta.media.progressive">1</property>
  <property name="kdenlive:original.kdenlive:clip_type">2</property>
  <property name="kdenlive:original.kdenlive:folderid">653</property>
  <property name="kdenlive:original.kdenlive:id">703</property>
  <property name="kdenlive:original.kdenlive:file_size">49174</property>
  <property name="kdenlive:original.kdenlive:file_hash">0cfead1c1b169568e217bf4f89bd51ec</property>
  <property name="kdenlive:original.backup">1</property>
  <property name="meta.media.frame_rate_num">60</property>
  <property name="meta.media.frame_rate_den">1</property>
  <property name="meta.media.colorspace">601</property>
  <property name="meta.media.color_trc">2</property>
  <property name="meta.media.has_b_frames">0</property>
  <property name="meta.media.width">640</property>
  <property name="meta.media.height">360</property>
  <property name="meta.media.color_range">full</property>
  <property name="meta.media.top_field_first">0</property>
  <property name="meta.media.progressive">1</property>
 </producer>
 <playlist id="main_bin">
  <property name="kdenlive:folder.-1.2">audio</property>
  <property name="kdenlive:folder.-1.333">video</property>
  <property name="kdenlive:folder.-1.644">assets</property>
  <property name="kdenlive:folder.2.3">music</property>
  <property name="kdenlive:folder.2.319">normalized</property>
  <property name="kdenlive:folder.2.326">raw</property>
  <property name="kdenlive:folder.333.344">Basics</property>
  <property name="kdenlive:folder.333.379">Benchmark</property>
  <property name="kdenlive:folder.333.488">Insertion</property>
  <property name="kdenlive:folder.333.528">Intro</property>
  <property name="kdenlive:folder.333.565">Search</property>
  <property name="kdenlive:folder.333.599">SelectingAB</property>
  <property name="kdenlive:folder.333.619">Summary</property>
  <property name="kdenlive:folder.333.628">Thumbnail</property>
  <property name="kdenlive:folder.333.631">Fever</property>
  <property name="kdenlive:folder.333.653">Deletion</property>
  <property name="kdenlive:folder.3.5">Bodytonic</property>
  <property name="kdenlive:folder.3.128">Nursery</property>
  <property name="kdenlive:folder.3.305">Warmbody</property>
  <property name="kdenlive:folder.5.6">A Simple Blur</property>
  <property name="kdenlive:folder.5.21">Are We Loose Yet</property>
  <property name="kdenlive:folder.5.34">Astrisx</property>
  <property name="kdenlive:folder.5.48">Cases to Rest</property>
  <property name="kdenlive:folder.5.65">Inamorata</property>
  <property name="kdenlive:folder.5.75">Mind Body Mind</property>
  <property name="kdenlive:folder.5.82">Partly Sage</property>
  <property name="kdenlive:folder.5.96">Soothe</property>
  <property name="kdenlive:folder.5.111">Thannoid</property>
  <property name="kdenlive:folder.128.129">A Little Powder *</property>
  <property name="kdenlive:folder.128.147">Blood Petal</property>
  <property name="kdenlive:folder.128.155">Brass Buttons</property>
  <property name="kdenlive:folder.128.163">Corner Aisle</property>
  <property name="kdenlive:folder.128.170">Cradle Rock</property>
  <property name="kdenlive:folder.128.178">Craypaper Wrapper</property>
  <property name="kdenlive:folder.128.186">Darklit Carpet</property>
  <property name="kdenlive:folder.128.201">Lick Stick *</property>
  <property name="kdenlive:folder.128.217">Maisie Dreamer *</property>
  <property name="kdenlive:folder.128.235">Maisie Lee</property>
  <property name="kdenlive:folder.128.248">Night Light *</property>
  <property name="kdenlive:folder.128.258">Petaluma</property>
  <property name="kdenlive:folder.128.267">Stuffed Monster</property>
  <property name="kdenlive:folder.128.275">The Callow *</property>
  <property name="kdenlive:folder.128.284">ZigZag Heart *</property>
  <property name="kdenlive:folder.305.306">The Big Ten</property>
  <property name="kdenlive:folder.6.8">stems</property>
  <property name="kdenlive:folder.6.13">variations</property>
  <property name="kdenlive:folder.21.23">stems</property>
  <property name="kdenlive:folder.21.28">variations</property>
  <property name="kdenlive:folder.34.36">stems</property>
  <property name="kdenlive:folder.34.42">variations</property>
  <property name="kdenlive:folder.48.50">stems</property>
  <property name="kdenlive:folder.48.58">variations</property>
  <property name="kdenlive:folder.65.67">stems</property>
  <property name="kdenlive:folder.65.71">variations</property>
  <property name="kdenlive:folder.75.77">variations</property>
  <property name="kdenlive:folder.82.84">stems</property>
  <property name="kdenlive:folder.82.90">variations</property>
  <property name="kdenlive:folder.96.98">stems</property>
  <property name="kdenlive:folder.96.104">variations</property>
  <property name="kdenlive:folder.111.114">stems</property>
  <property name="kdenlive:folder.111.120">variations</property>
  <property name="kdenlive:folder.129.131">stems</property>
  <property name="kdenlive:folder.129.138">variations</property>
  <property name="kdenlive:folder.147.149">stems</property>
  <property name="kdenlive:folder.155.157">stems</property>
  <property name="kdenlive:folder.163.165">stems</property>
  <property name="kdenlive:folder.170.172">stems</property>
  <property name="kdenlive:folder.178.180">stems</property>
  <property name="kdenlive:folder.186.188">stems</property>
  <property name="kdenlive:folder.186.194">variations</property>
  <property name="kdenlive:folder.201.203">stems</property>
  <property name="kdenlive:folder.201.211">variations</property>
  <property name="kdenlive:folder.217.219">stems</property>
  <property name="kdenlive:folder.217.227">variations</property>
  <property name="kdenlive:folder.235.237">stems</property>
  <property name="kdenlive:folder.235.241">variations</property>
  <property name="kdenlive:folder.248.251">stems</property>
  <property name="kdenlive:folder.258.260">stems</property>
  <property name="kdenlive:folder.267.269">stems</property>
  <property name="kdenlive:folder.275.278">stems</property>
  <property name="kdenlive:folder.284.287">stems</property>
  <property name="kdenlive:folder.284.294">variations</property>
  <property name="kdenlive:folder.306.308">stems</property>
  <property name="kdenlive:folder.306.313">variations</property>
  <property name="kdenlive:docproperties.activeTrack">4</property>
  <property name="kdenlive:docproperties.audioChannels">2</property>
  <property name="kdenlive:docproperties.audioTarget">-1</property>
  <property name="kdenlive:docproperties.compositing">1</property>
  <property name="kdenlive:docproperties.disablepreview">0</property>
  <property name="kdenlive:docproperties.documentid">1680524422909</property>
  <property name="kdenlive:docproperties.enableTimelineZone">0</property>
  <property name="kdenlive:docproperties.enableexternalproxy">0</property>
  <property name="kdenlive:docproperties.enableproxy">1</property>
  <property name="kdenlive:docproperties.externalproxyparams">./;GL;.LRV;./;GX;.MP4;./;GP;.LRV;./;GP;.MP4</property>
  <property name="kdenlive:docproperties.generateimageproxy">0</property>
  <property name="kdenlive:docproperties.generateproxy">1</property>
  <property name="kdenlive:docproperties.groups">[
]
</property>
  <property name="kdenlive:docproperties.guidesCategories">[
    {
        "color": "#9b59b6",
        "comment": "Category 1",
        "index": 0
    },
    {
        "color": "#3daee9",
        "comment": "Category 2",
        "index": 1
    },
    {
        "color": "#1abc9c",
        "comment": "Category 3",
        "index": 2
    },
    {
        "color": "#1cdc9a",
        "comment": "Category 4",
        "index": 3
    },
    {
        "color": "#c9ce3b",
        "comment": "Category 5",
        "index": 4
    },
    {
        "color": "#fdbc4b",
        "comment": "Category 6",
        "index": 5
    },
    {
        "color": "#f39c1f",
        "comment": "Category 7",
        "index": 6
    },
    {
        "color": "#f47750",
        "comment": "Category 8",
        "index": 7
    },
    {
        "color": "#da4453",
        "comment": "Category 9",
        "index": 8
    }
]
</property>
  <property name="kdenlive:docproperties.kdenliveversion">22.12.3</property>
  <property name="kdenlive:docproperties.position">1748</property>
  <property name="kdenlive:docproperties.previewextension"/>
  <property name="kdenlive:docproperties.previewparameters"/>
  <property name="kdenlive:docproperties.profile">uhd_2160p_60</property>
  <property name="kdenlive:docproperties.proxyextension"/>
  <property name="kdenlive:docproperties.proxyimageminsize">2000</property>
  <property name="kdenlive:docproperties.proxyimagesize">800</property>
  <property name="kdenlive:docproperties.proxyminsize">1000</property>
  <property name="kdenlive:docproperties.proxyparams"/>
  <property name="kdenlive:docproperties.proxyresize">640</property>
  <property name="kdenlive:docproperties.rendercategory">Generic (HD for web, mobile devices...)</property>
  <property name="kdenlive:docproperties.rendercustomquality">-1</property>
  <property name="kdenlive:docproperties.renderendguide">-1</property>
  <property name="kdenlive:docproperties.renderexportaudio">0</property>
  <property name="kdenlive:docproperties.rendermode">1</property>
  <property name="kdenlive:docproperties.renderplay">0</property>
  <property name="kdenlive:docproperties.renderpreview">0</property>
  <property name="kdenlive:docproperties.renderprofile">MP4-H264/AAC</property>
  <property name="kdenlive:docproperties.renderratio">1</property>
  <property name="kdenlive:docproperties.renderrescale">0</property>
  <property name="kdenlive:docproperties.renderrescaleheight">540</property>
  <property name="kdenlive:docproperties.renderrescalewidth">960</property>
  <property name="kdenlive:docproperties.renderspeed">6</property>
  <property name="kdenlive:docproperties.renderstartguide">-1</property>
  <property name="kdenlive:docproperties.rendertcoverlay">0</property>
  <property name="kdenlive:docproperties.rendertctype">-1</property>
  <property name="kdenlive:docproperties.rendertwopass">0</property>
  <property name="kdenlive:docproperties.renderurl">/home/xiaoxiae/part.mp4</property>
  <property name="kdenlive:docproperties.scrollPos">0</property>
  <property name="kdenlive:docproperties.seekOffset">30000</property>
  <property name="kdenlive:docproperties.version">1.04</property>
  <property name="kdenlive:docproperties.verticalzoom">1</property>
  <property name="kdenlive:docproperties.videoTarget">-1</property>
  <property name="kdenlive:docproperties.zonein">1525</property>
  <property name="kdenlive:docproperties.zoneout">1894</property>
  <property name="kdenlive:docproperties.zoom">6</property>
  <property name="kdenlive:expandedFolders">306;599;319;644;333;326;653;5;111;313</property>
  <property name="kdenlive:documentnotes"/>
  <property name="xml_retain">1</property>
  <entry producer="producer3" in="00:00:00.000" out="00:02:12.333"/>
  <entry producer="producer0" in="00:00:00.000" out="00:04:06.350"/>
  <entry producer="producer1" in="00:00:00.000" out="00:03:48.850"/>
  <entry producer="producer2" in="00:00:00.000" out="00:04:09.667"/>
  <entry producer="producer4" in="00:00:00.000" out="00:03:52.567"/>
  <entry producer="producer6" in="00:00:00.000" out="00:02:59.067"/>
  <entry producer="producer5" in="00:00:00.000" out="00:04:36.350"/>
  <entry producer="producer7" in="00:00:00.000" out="00:02:26.800"/>
  <entry producer="producer8" in="00:00:00.000" out="00:04:12.717"/>
  <entry producer="producer9" in="00:00:00.000" out="00:02:29.533"/>
  <entry producer="producer10" in="00:00:00.000" out="00:03:59.983"/>
  <entry producer="producer11" in="00:00:00.000" out="00:01:30.617"/>
  <entry producer="producer12" in="00:00:00.000" out="00:01:09.983"/>
  <entry producer="producer13" in="00:00:00.000" out="00:04:00.450"/>
  <entry producer="producer14" in="00:00:00.000" out="00:03:57.767"/>
  <entry producer="producer16" in="00:00:00.000" out="00:03:57.767"/>
  <entry producer="producer15" in="00:00:00.000" out="00:03:54.800"/>
  <entry producer="producer18" in="00:00:00.000" out="00:03:53.317"/>
  <entry producer="producer19" in="00:00:00.000" out="00:00:19.983"/>
  <entry producer="producer17" in="00:00:00.000" out="00:01:07.250"/>
  <entry producer="producer20" in="00:00:00.000" out="00:03:23.600"/>
  <entry producer="producer21" in="00:00:00.000" out="00:03:16.350"/>
  <entry producer="producer22" in="00:00:00.000" out="00:00:38.167"/>
  <entry producer="producer23" in="00:00:00.000" out="00:02:43.333"/>
  <entry producer="producer24" in="00:00:00.000" out="00:02:40.500"/>
  <entry producer="producer25" in="00:00:00.000" out="00:02:39.017"/>
  <entry producer="producer26" in="00:00:00.000" out="00:02:38.267"/>
  <entry producer="producer27" in="00:00:00.000" out="00:02:30.100"/>
  <entry producer="producer28" in="00:00:00.000" out="00:02:30.100"/>
  <entry producer="producer29" in="00:00:00.000" out="00:00:25.067"/>
  <entry producer="producer30" in="00:00:00.000" out="00:02:41.583"/>
  <entry producer="producer31" in="00:00:00.000" out="00:02:06.450"/>
  <entry producer="producer32" in="00:00:00.000" out="00:01:58.583"/>
  <entry producer="producer33" in="00:00:00.000" out="00:00:37.583"/>
  <entry producer="producer34" in="00:00:00.000" out="00:03:05.433"/>
  <entry producer="producer35" in="00:00:00.000" out="00:02:51.650"/>
  <entry producer="producer37" in="00:00:00.000" out="00:01:32.133"/>
  <entry producer="producer36" in="00:00:00.000" out="00:03:00.567"/>
  <entry producer="producer38" in="00:00:00.000" out="00:02:59.067"/>
  <entry producer="producer40" in="00:00:00.000" out="00:02:56.850"/>
  <entry producer="producer39" in="00:00:00.000" out="00:02:48.667"/>
  <entry producer="producer41" in="00:00:00.000" out="00:02:50.150"/>
  <entry producer="producer43" in="00:00:00.000" out="00:00:38.167"/>
  <entry producer="producer42" in="00:00:00.000" out="00:01:50.900"/>
  <entry producer="producer44" in="00:00:00.000" out="00:02:25.433"/>
  <entry producer="producer45" in="00:00:00.000" out="00:01:57.100"/>
  <entry producer="producer46" in="00:00:00.000" out="00:00:47.250"/>
  <entry producer="producer47" in="00:00:00.000" out="00:00:47.250"/>
  <entry producer="producer48" in="00:00:00.000" out="00:01:51.950"/>
  <entry producer="producer49" in="00:00:00.000" out="00:01:47.733"/>
  <entry producer="producer50" in="00:00:00.000" out="00:01:41.800"/>
  <entry producer="producer51" in="00:00:00.000" out="00:01:45.517"/>
  <entry producer="producer53" in="00:00:00.000" out="00:00:57.833"/>
  <entry producer="producer52" in="00:00:00.000" out="00:00:57.833"/>
  <entry producer="producer54" in="00:00:00.000" out="00:01:51.417"/>
  <entry producer="producer55" in="00:00:00.000" out="00:02:29.933"/>
  <entry producer="producer56" in="00:00:00.000" out="00:00:47.883"/>
  <entry producer="producer57" in="00:00:00.000" out="00:00:21.500"/>
  <entry producer="producer58" in="00:00:00.000" out="00:00:30.900"/>
  <entry producer="producer60" in="00:00:00.000" out="00:01:20.617"/>
  <entry producer="producer59" in="00:00:00.000" out="00:02:29.983"/>
  <entry producer="producer61" in="00:00:00.000" out="00:02:27.867"/>
  <entry producer="producer62" in="00:00:00.000" out="00:02:27.867"/>
  <entry producer="producer63" in="00:00:00.000" out="00:02:27.867"/>
  <entry producer="producer64" in="00:00:00.000" out="00:02:27.117"/>
  <entry producer="producer65" in="00:00:00.000" out="00:02:25.633"/>
  <entry producer="producer66" in="00:00:00.000" out="00:01:10.900"/>
  <entry producer="producer67" in="00:00:00.000" out="00:00:33.433"/>
  <entry producer="producer68" in="00:00:00.000" out="00:01:59.983"/>
  <entry producer="producer70" in="00:00:00.000" out="00:02:03.617"/>
  <entry producer="producer69" in="00:00:00.000" out="00:01:56.117"/>
  <entry producer="producer71" in="00:00:00.000" out="00:04:05.433"/>
  <entry producer="producer72" in="00:00:00.000" out="00:04:01.483"/>
  <entry producer="producer73" in="00:00:00.000" out="00:03:46.633"/>
  <entry producer="producer74" in="00:00:00.000" out="00:03:58.517"/>
  <entry producer="producer75" in="00:00:00.000" out="00:04:00.000"/>
  <entry producer="producer76" in="00:00:00.000" out="00:03:47.367"/>
  <entry producer="producer77" in="00:00:00.000" out="00:00:58.167"/>
  <entry producer="producer78" in="00:00:00.000" out="00:00:30.900"/>
  <entry producer="producer79" in="00:00:00.000" out="00:03:25.433"/>
  <entry producer="producer80" in="00:00:00.000" out="00:02:45.200"/>
  <entry producer="producer81" in="00:00:00.000" out="00:03:21.800"/>
  <entry producer="producer83" in="00:00:00.000" out="00:04:05.433"/>
  <entry producer="producer82" in="00:00:00.000" out="00:03:07.250"/>
  <entry producer="producer84" in="00:00:00.000" out="00:03:03.167"/>
  <entry producer="producer85" in="00:00:00.000" out="00:02:59.067"/>
  <entry producer="producer87" in="00:00:00.000" out="00:02:58.333"/>
  <entry producer="producer86" in="00:00:00.000" out="00:02:59.817"/>
  <entry producer="producer89" in="00:00:00.000" out="00:02:56.100"/>
  <entry producer="producer88" in="00:00:00.000" out="00:02:56.100"/>
  <entry producer="producer91" in="00:00:00.000" out="00:01:21.800"/>
  <entry producer="producer90" in="00:00:00.000" out="00:00:36.350"/>
  <entry producer="producer92" in="00:00:00.000" out="00:00:38.283"/>
  <entry producer="producer93" in="00:00:00.000" out="00:03:07.250"/>
  <entry producer="producer94" in="00:00:00.000" out="00:02:32.717"/>
  <entry producer="producer95" in="00:00:00.000" out="00:01:50.900"/>
  <entry producer="producer96" in="00:00:00.000" out="00:01:21.800"/>
  <entry producer="producer98" in="00:00:00.000" out="00:02:54.767"/>
  <entry producer="producer97" in="00:00:00.000" out="00:02:53.133"/>
  <entry producer="producer99" in="00:00:00.000" out="00:02:50.900"/>
  <entry producer="producer100" in="00:00:00.000" out="00:02:49.417"/>
  <entry producer="producer102" in="00:00:00.000" out="00:02:39.750"/>
  <entry producer="producer101" in="00:00:00.000" out="00:02:47.183"/>
  <entry producer="producer103" in="00:00:00.000" out="00:02:33.067"/>
  <entry producer="producer104" in="00:00:00.000" out="00:00:56.450"/>
  <entry producer="producer106" in="00:00:00.000" out="00:00:56.450"/>
  <entry producer="producer105" in="00:00:00.000" out="00:00:31.350"/>
  <entry producer="producer107" in="00:00:00.000" out="00:02:25.267"/>
  <entry producer="producer108" in="00:00:00.000" out="00:01:36.000"/>
  <entry producer="producer111" in="00:00:00.000" out="00:00:52.967"/>
  <entry producer="producer109" in="00:00:00.000" out="00:00:46.483"/>
  <entry producer="producer112" in="00:00:00.000" out="00:00:46.483"/>
  <entry producer="producer110" in="00:00:00.000" out="00:03:46.850"/>
  <entry producer="producer115" in="00:00:00.000" out="00:03:46.850"/>
  <entry producer="producer113" in="00:00:00.000" out="00:03:46.850"/>
  <entry producer="producer114" in="00:00:00.000" out="00:03:46.850"/>
  <entry producer="producer116" in="00:00:00.000" out="00:03:46.850"/>
  <entry producer="producer117" in="00:00:00.000" out="00:03:46.850"/>
  <entry producer="producer119" in="00:00:00.000" out="00:02:55.883"/>
  <entry producer="producer118" in="00:00:00.000" out="00:02:55.883"/>
  <entry producer="producer120" in="00:00:00.000" out="00:02:55.883"/>
  <entry producer="producer121" in="00:00:00.000" out="00:02:55.883"/>
  <entry producer="producer122" in="00:00:00.000" out="00:02:55.883"/>
  <entry producer="producer123" in="00:00:00.000" out="00:02:55.883"/>
  <entry producer="producer124" in="00:00:00.000" out="00:03:56.233"/>
  <entry producer="producer125" in="00:00:00.000" out="00:03:56.233"/>
  <entry producer="producer126" in="00:00:00.000" out="00:03:56.233"/>
  <entry producer="producer127" in="00:00:00.000" out="00:03:56.233"/>
  <entry producer="producer128" in="00:00:00.000" out="00:03:56.233"/>
  <entry producer="producer129" in="00:00:00.000" out="00:04:02.983"/>
  <entry producer="producer130" in="00:00:00.000" out="00:04:02.983"/>
  <entry producer="producer131" in="00:00:00.000" out="00:04:02.983"/>
  <entry producer="producer132" in="00:00:00.000" out="00:04:02.983"/>
  <entry producer="producer133" in="00:00:00.000" out="00:04:02.983"/>
  <entry producer="producer134" in="00:00:00.000" out="00:04:02.983"/>
  <entry producer="producer135" in="00:00:00.000" out="00:03:25.100"/>
  <entry producer="producer137" in="00:00:00.000" out="00:03:25.100"/>
  <entry producer="producer136" in="00:00:00.000" out="00:03:25.100"/>
  <entry producer="producer138" in="00:00:00.000" out="00:03:25.100"/>
  <entry producer="producer140" in="00:00:00.000" out="00:03:25.100"/>
  <entry producer="producer139" in="00:00:00.000" out="00:03:25.100"/>
  <entry producer="producer141" in="00:00:00.000" out="00:02:48.300"/>
  <entry producer="producer143" in="00:00:00.000" out="00:02:48.300"/>
  <entry producer="producer142" in="00:00:00.000" out="00:02:48.300"/>
  <entry producer="producer144" in="00:00:00.000" out="00:02:48.300"/>
  <entry producer="producer145" in="00:00:00.000" out="00:02:48.300"/>
  <entry producer="producer146" in="00:00:00.000" out="00:02:48.300"/>
  <entry producer="producer147" in="00:00:00.000" out="00:01:01.933"/>
  <entry producer="producer148" in="00:00:00.000" out="00:02:37.867"/>
  <entry producer="producer149" in="00:00:00.000" out="00:02:48.300"/>
  <entry producer="producer150" in="00:00:00.000" out="00:00:50.633"/>
  <entry producer="producer151" in="00:00:00.000" out="00:01:00.900"/>
  <entry producer="producer152" in="00:00:00.000" out="00:02:48.300"/>
  <entry producer="producer153" in="00:00:00.000" out="00:02:38.850"/>
  <entry producer="producer154" in="00:00:00.000" out="00:02:38.850"/>
  <entry producer="producer155" in="00:00:00.000" out="00:02:38.850"/>
  <entry producer="producer156" in="00:00:00.000" out="00:02:38.850"/>
  <entry producer="producer158" in="00:00:00.000" out="00:02:38.850"/>
  <entry producer="producer157" in="00:00:00.000" out="00:02:38.850"/>
  <entry producer="producer159" in="00:00:00.000" out="00:02:38.850"/>
  <entry producer="producer160" in="00:00:00.000" out="00:02:38.850"/>
  <entry producer="producer161" in="00:00:00.000" out="00:01:00.450"/>
  <entry producer="producer162" in="00:00:00.000" out="00:00:29.933"/>
  <entry producer="producer163" in="00:00:00.000" out="00:05:00.500"/>
  <entry producer="producer165" in="00:00:00.000" out="00:00:39.167"/>
  <entry producer="producer164" in="00:00:00.000" out="00:00:41.733"/>
  <entry producer="producer166" in="00:00:00.000" out="00:02:33.067"/>
  <entry producer="producer167" in="00:00:00.000" out="00:02:33.067"/>
  <entry producer="producer168" in="00:00:00.000" out="00:02:33.067"/>
  <entry producer="producer169" in="00:00:00.000" out="00:02:33.067"/>
  <entry producer="producer170" in="00:00:00.000" out="00:02:33.067"/>
  <entry producer="producer171" in="00:00:00.000" out="00:02:33.067"/>
  <entry producer="producer172" in="00:00:00.000" out="00:02:33.067"/>
  <entry producer="producer173" in="00:00:00.000" out="00:02:33.067"/>
  <entry producer="producer174" in="00:00:00.000" out="00:00:47.150"/>
  <entry producer="producer176" in="00:00:00.000" out="00:00:29.733"/>
  <entry producer="producer175" in="00:00:00.000" out="00:00:29.733"/>
  <entry producer="producer177" in="00:00:00.000" out="00:01:19.317"/>
  <entry producer="producer178" in="00:00:00.000" out="00:02:31.783"/>
  <entry producer="producer179" in="00:00:00.000" out="00:01:56.350"/>
  <entry producer="producer180" in="00:00:00.000" out="00:01:56.350"/>
  <entry producer="producer181" in="00:00:00.000" out="00:01:56.417"/>
  <entry producer="producer182" in="00:00:00.000" out="00:01:56.417"/>
  <entry producer="producer183" in="00:00:00.000" out="00:01:56.417"/>
  <entry producer="producer184" in="00:00:00.000" out="00:01:56.417"/>
  <entry producer="producer185" in="00:00:00.000" out="00:01:09.500"/>
  <entry producer="producer187" in="00:00:00.000" out="00:01:09.500"/>
  <entry producer="producer186" in="00:00:00.000" out="00:00:42.817"/>
  <entry producer="producer188" in="00:00:00.000" out="00:01:25.383"/>
  <entry producer="producer190" in="00:00:00.000" out="00:01:43.467"/>
  <entry producer="producer189" in="00:00:00.000" out="00:01:11.617"/>
  <entry producer="producer191" in="00:00:00.000" out="00:04:25.100"/>
  <entry producer="producer193" in="00:00:00.000" out="00:04:25.100"/>
  <entry producer="producer192" in="00:00:00.000" out="00:04:25.100"/>
  <entry producer="producer194" in="00:00:00.000" out="00:04:25.100"/>
  <entry producer="producer196" in="00:00:00.000" out="00:04:25.100"/>
  <entry producer="producer195" in="00:00:00.000" out="00:04:25.100"/>
  <entry producer="producer197" in="00:00:00.000" out="00:04:25.100"/>
  <entry producer="producer199" in="00:00:00.000" out="00:04:25.100"/>
  <entry producer="producer198" in="00:00:00.000" out="00:04:24.500"/>
  <entry producer="producer200" in="00:00:00.000" out="00:04:24.500"/>
  <entry producer="producer201" in="00:00:00.000" out="00:04:24.500"/>
  <entry producer="producer202" in="00:00:00.000" out="00:04:24.500"/>
  <entry producer="producer203" in="00:00:00.000" out="00:04:24.500"/>
  <entry producer="producer204" in="00:00:00.000" out="00:04:24.500"/>
  <entry producer="producer207" in="00:00:00.000" out="00:04:24.500"/>
  <entry producer="producer205" in="00:00:00.000" out="00:03:38.550"/>
  <entry producer="producer206" in="00:00:00.000" out="00:03:38.550"/>
  <entry producer="producer208" in="00:00:00.000" out="00:03:38.550"/>
  <entry producer="producer209" in="00:00:00.000" out="00:03:38.550"/>
  <entry producer="producer210" in="00:00:00.000" out="00:03:38.550"/>
  <entry producer="producer213" in="00:00:00.000" out="00:03:38.550"/>
  <entry producer="producer212" in="00:00:00.000" out="00:03:42.833"/>
  <entry producer="producer211" in="00:00:00.000" out="00:03:42.833"/>
  <entry producer="producer214" in="00:00:00.000" out="00:03:42.833"/>
  <entry producer="producer215" in="00:00:00.000" out="00:03:42.833"/>
  <entry producer="producer216" in="00:00:00.000" out="00:03:42.833"/>
  <entry producer="producer217" in="00:00:00.000" out="00:03:42.833"/>
  <entry producer="producer218" in="00:00:00.000" out="00:03:42.833"/>
  <entry producer="producer219" in="00:00:00.000" out="00:03:20.783"/>
  <entry producer="producer220" in="00:00:00.000" out="00:02:54.650"/>
  <entry producer="producer221" in="00:00:00.000" out="00:02:54.650"/>
  <entry producer="producer222" in="00:00:00.000" out="00:02:54.650"/>
  <entry producer="producer223" in="00:00:00.000" out="00:02:54.650"/>
  <entry producer="producer224" in="00:00:00.000" out="00:02:54.650"/>
  <entry producer="producer225" in="00:00:00.000" out="00:02:54.650"/>
  <entry producer="producer226" in="00:00:00.000" out="00:02:54.650"/>
  <entry producer="producer227" in="00:00:00.000" out="00:00:34.850"/>
  <entry producer="producer228" in="00:00:00.000" out="00:00:34.850"/>
  <entry producer="producer229" in="00:00:00.000" out="00:02:54.450"/>
  <entry producer="producer231" in="00:00:00.000" out="00:02:50.950"/>
  <entry producer="producer230" in="00:00:00.000" out="00:02:21.833"/>
  <entry producer="producer232" in="00:00:00.000" out="00:02:21.833"/>
  <entry producer="producer235" in="00:00:00.000" out="00:01:46.833"/>
  <entry producer="producer233" in="00:00:00.000" out="00:01:42.650"/>
  <entry producer="producer234" in="00:00:00.000" out="00:03:20.783"/>
  <entry producer="producer236" in="00:00:00.000" out="00:02:17.033"/>
  <entry producer="producer238" in="00:00:00.000" out="00:03:04.250"/>
  <entry producer="producer237" in="00:00:00.000" out="00:03:01.283"/>
  <entry producer="producer239" in="00:00:00.000" out="00:03:02.033"/>
  <entry producer="producer241" in="00:00:00.000" out="00:03:00.550"/>
  <entry producer="producer242" in="00:00:00.000" out="00:03:00.550"/>
  <entry producer="producer240" in="00:00:00.000" out="00:00:47.200"/>
  <entry producer="producer243" in="00:00:00.000" out="00:00:26.533"/>
  <entry producer="producer244" in="00:00:00.000" out="00:01:29.467"/>
  <entry producer="producer246" in="00:00:00.000" out="00:02:50.783"/>
  <entry producer="producer245" in="00:00:00.000" out="00:03:04.250"/>
  <entry producer="producer247" in="00:00:00.000" out="00:02:03.750"/>
  <entry producer="producer248" in="00:00:00.000" out="00:06:27.300"/>
  <entry producer="producer249" in="00:00:00.000" out="00:00:35.283"/>
  <entry producer="producer250" in="00:00:00.000" out="00:01:43.850"/>
  <entry producer="producer251" in="00:00:00.000" out="00:01:45.133"/>
  <entry producer="producer252" in="00:00:00.000" out="00:00:35.500"/>
  <entry producer="producer253" in="00:00:00.000" out="00:02:03.750"/>
  <entry producer="producer254" in="00:00:00.000" out="00:06:27.300"/>
  <entry producer="producer255" in="00:00:00.000" out="00:00:35.283"/>
  <entry producer="producer256" in="00:00:00.000" out="00:01:43.850"/>
  <entry producer="producer261" in="00:00:00.000" out="00:01:45.133"/>
  <entry producer="producer266" in="00:00:00.000" out="00:00:35.500"/>
  <entry producer="producer257" in="00:00:00.000" out="00:00:37.417"/>
  <entry producer="producer258" in="00:00:00.000" out="00:00:01.983"/>
  <entry producer="producer259" in="00:00:00.000" out="00:00:30.767"/>
  <entry producer="producer260" in="00:00:00.000" out="00:00:40.333"/>
  <entry producer="producer262" in="00:00:00.000" out="00:00:23.983"/>
  <entry producer="producer263" in="00:00:00.000" out="00:00:21.467"/>
  <entry producer="producer264" in="00:00:00.000" out="00:00:09.483"/>
  <entry producer="producer265" in="00:00:00.000" out="00:00:00.983"/>
  <entry producer="producer267" in="00:00:00.000" out="00:00:01.983"/>
  <entry producer="producer268" in="00:00:00.000" out="00:00:00.983"/>
  <entry producer="producer271" in="00:00:00.000" out="00:00:00.983"/>
  <entry producer="producer269" in="00:00:00.000" out="00:00:00.983"/>
  <entry producer="producer270" in="00:00:00.000" out="00:00:01.483"/>
  <entry producer="producer273" in="00:00:00.000" out="00:00:01.083"/>
  <entry producer="producer274" in="00:00:00.000" out="00:00:00.983"/>
  <entry producer="producer275" in="00:00:00.000" out="00:00:00.983"/>
  <entry producer="producer276" in="00:00:00.000" out="00:00:01.483"/>
  <entry producer="producer277" in="00:00:00.000" out="00:00:00.983"/>
  <entry producer="producer278" in="00:00:00.000" out="00:00:00.983"/>
  <entry producer="producer279" in="00:00:00.000" out="00:00:01.317"/>
  <entry producer="producer280" in="00:00:00.000" out="00:00:00.983"/>
  <entry producer="producer282" in="00:00:00.000" out="00:00:01.483"/>
  <entry producer="producer281" in="00:00:00.000" out="00:00:01.483"/>
  <entry producer="producer283" in="00:00:00.000" out="00:00:00.983"/>
  <entry producer="producer284" in="00:00:00.000" out="00:00:00.983"/>
  <entry producer="producer286" in="00:00:00.000" out="00:00:00.983"/>
  <entry producer="producer285" in="00:00:00.000" out="00:00:00.983"/>
  <entry producer="producer287" in="00:00:00.000" out="00:00:00.983"/>
  <entry producer="producer288" in="00:00:00.000" out="00:00:00.983"/>
  <entry producer="producer289" in="00:00:00.000" out="00:00:00.983"/>
  <entry producer="producer290" in="00:00:00.000" out="00:00:00.983"/>
  <entry producer="producer292" in="00:00:00.000" out="00:00:00.983"/>
  <entry producer="producer291" in="00:00:00.000" out="00:00:00.983"/>
  <entry producer="producer293" in="00:00:00.000" out="00:00:00.983"/>
  <entry producer="producer294" in="00:00:00.000" out="00:00:00.983"/>
  <entry producer="producer295" in="00:00:00.000" out="00:00:00.983"/>
  <entry producer="producer296" in="00:00:00.000" out="00:00:00.983"/>
  <entry producer="producer297" in="00:00:00.000" out="00:00:00.983"/>
  <entry producer="producer298" in="00:00:00.000" out="00:00:00.983"/>
  <entry producer="producer299" in="00:00:00.000" out="00:00:00.983"/>
  <entry producer="producer300" in="00:00:00.000" out="00:00:00.983"/>
  <entry producer="producer301" in="00:00:00.000" out="00:00:00.983"/>
  <entry producer="producer507" in="00:00:00.000" out="00:00:00.983"/>
  <entry producer="producer508" in="00:00:00.000" out="00:00:00.983"/>
  <entry producer="producer302" in="00:00:00.000" out="00:00:00.983"/>
  <entry producer="producer303" in="00:00:00.000" out="00:00:00.183"/>
  <entry producer="producer304" in="00:00:00.000" out="00:00:00.183"/>
  <entry producer="producer305" in="00:00:00.000" out="00:00:00.117"/>
  <entry producer="producer307" in="00:00:00.000" out="00:00:00.117"/>
  <entry producer="producer306" in="00:00:00.000" out="00:00:00.117"/>
  <entry producer="producer308" in="00:00:00.000" out="00:00:00.117"/>
  <entry producer="producer309" in="00:00:00.000" out="00:00:00.117"/>
  <entry producer="producer310" in="00:00:00.000" out="00:00:00.117"/>
  <entry producer="producer311" in="00:00:00.000" out="00:00:01.983"/>
  <entry producer="producer312" in="00:00:00.000" out="00:00:00.983"/>
  <entry producer="producer313" in="00:00:00.000" out="00:00:00.983"/>
  <entry producer="producer315" in="00:00:00.000" out="00:00:00.983"/>
  <entry producer="producer314" in="00:00:00.000" out="00:00:02.233"/>
  <entry producer="producer316" in="00:00:00.000" out="00:00:00.983"/>
  <entry producer="producer317" in="00:00:00.000" out="00:00:00.983"/>
  <entry producer="producer318" in="00:00:00.000" out="00:00:00.983"/>
  <entry producer="producer319" in="00:00:00.000" out="00:00:01.483"/>
  <entry producer="producer320" in="00:00:00.000" out="00:00:00.983"/>
  <entry producer="producer321" in="00:00:00.000" out="00:00:01.483"/>
  <entry producer="producer322" in="00:00:00.000" out="00:00:00.983"/>
  <entry producer="producer324" in="00:00:00.000" out="00:00:01.333"/>
  <entry producer="producer323" in="00:00:00.000" out="00:00:00.183"/>
  <entry producer="producer326" in="00:00:00.000" out="00:00:00.983"/>
  <entry producer="producer325" in="00:00:00.000" out="00:00:01.333"/>
  <entry producer="producer327" in="00:00:00.000" out="00:00:00.983"/>
  <entry producer="producer328" in="00:00:00.000" out="00:00:00.983"/>
  <entry producer="producer329" in="00:00:00.000" out="00:00:00.983"/>
  <entry producer="producer330" in="00:00:00.000" out="00:00:00.983"/>
  <entry producer="producer331" in="00:00:00.000" out="00:00:00.983"/>
  <entry producer="producer332" in="00:00:00.000" out="00:00:01.483"/>
  <entry producer="producer333" in="00:00:00.000" out="00:00:00.983"/>
  <entry producer="producer334" in="00:00:00.000" out="00:00:00.983"/>
  <entry producer="producer335" in="00:00:00.000" out="00:00:00.183"/>
  <entry producer="producer336" in="00:00:00.000" out="00:00:00.117"/>
  <entry producer="producer338" in="00:00:00.000" out="00:00:00.117"/>
  <entry producer="producer337" in="00:00:00.000" out="00:00:00.117"/>
  <entry producer="producer339" in="00:00:00.000" out="00:00:00.117"/>
  <entry producer="producer341" in="00:00:00.000" out="00:00:00.183"/>
  <entry producer="producer340" in="00:00:00.000" out="00:00:01.983"/>
  <entry producer="producer342" in="00:00:00.000" out="00:00:00.983"/>
  <entry producer="producer344" in="00:00:00.000" out="00:00:00.983"/>
  <entry producer="producer343" in="00:00:00.000" out="00:00:00.983"/>
  <entry producer="producer347" in="00:00:00.000" out="00:00:00.983"/>
  <entry producer="producer345" in="00:00:00.000" out="00:00:00.983"/>
  <entry producer="producer346" in="00:00:00.000" out="00:00:00.983"/>
  <entry producer="producer348" in="00:00:00.000" out="00:00:00.983"/>
  <entry producer="producer350" in="00:00:00.000" out="00:00:00.983"/>
  <entry producer="producer351" in="00:00:00.000" out="00:00:00.983"/>
  <entry producer="producer349" in="00:00:00.000" out="00:00:00.983"/>
  <entry producer="producer352" in="00:00:00.000" out="00:00:01.483"/>
  <entry producer="producer353" in="00:00:00.000" out="00:00:00.983"/>
  <entry producer="producer354" in="00:00:00.000" out="00:00:00.983"/>
  <entry producer="producer355" in="00:00:00.000" out="00:00:00.983"/>
  <entry producer="producer356" in="00:00:00.000" out="00:00:00.983"/>
  <entry producer="producer357" in="00:00:00.000" out="00:00:00.983"/>
  <entry producer="producer358" in="00:00:00.000" out="00:00:00.983"/>
  <entry producer="producer359" in="00:00:00.000" out="00:00:00.983"/>
  <entry producer="producer360" in="00:00:00.000" out="00:00:00.983"/>
  <entry producer="producer361" in="00:00:00.000" out="00:00:01.483"/>
  <entry producer="producer363" in="00:00:00.000" out="00:00:01.483"/>
  <entry producer="producer362" in="00:00:00.000" out="00:00:01.083"/>
  <entry producer="producer364" in="00:00:00.000" out="00:00:01.483"/>
  <entry producer="producer365" in="00:00:00.000" out="00:00:00.983"/>
  <entry producer="producer366" in="00:00:00.000" out="00:00:00.983"/>
  <entry producer="producer367" in="00:00:00.000" out="00:00:01.483"/>
  <entry producer="producer368" in="00:00:00.000" out="00:00:00.983"/>
  <entry producer="producer369" in="00:00:00.000" out="00:00:00.983"/>
  <entry producer="producer370" in="00:00:00.000" out="00:00:00.983"/>
  <entry producer="producer371" in="00:00:00.000" out="00:00:00.983"/>
  <entry producer="producer372" in="00:00:00.000" out="00:00:01.733"/>
  <entry producer="producer373" in="00:00:00.000" out="00:00:00.983"/>
  <entry producer="producer375" in="00:00:00.000" out="00:00:00.983"/>
  <entry producer="producer374" in="00:00:00.000" out="00:00:00.983"/>
  <entry producer="producer376" in="00:00:00.000" out="00:00:00.983"/>
  <entry producer="producer377" in="00:00:00.000" out="00:00:02.483"/>
  <entry producer="producer378" in="00:00:00.000" out="00:00:00.983"/>
  <entry producer="producer379" in="00:00:00.000" out="00:00:00.983"/>
  <entry producer="producer380" in="00:00:00.000" out="00:00:00.650"/>
  <entry producer="producer381" in="00:00:00.000" out="00:00:00.650"/>
  <entry producer="producer382" in="00:00:00.000" out="00:00:00.650"/>
  <entry producer="producer383" in="00:00:00.000" out="00:00:01.483"/>
  <entry producer="producer384" in="00:00:00.000" out="00:00:00.983"/>
  <entry producer="producer385" in="00:00:00.000" out="00:00:00.483"/>
  <entry producer="producer386" in="00:00:00.000" out="00:00:00.483"/>
  <entry producer="producer387" in="00:00:00.000" out="00:00:00.317"/>
  <entry producer="producer388" in="00:00:00.000" out="00:00:00.983"/>
  <entry producer="producer389" in="00:00:00.000" out="00:00:00.317"/>
  <entry producer="producer390" in="00:00:00.000" out="00:00:00.317"/>
  <entry producer="producer392" in="00:00:00.000" out="00:00:00.317"/>
  <entry producer="producer391" in="00:00:00.000" out="00:00:00.483"/>
  <entry producer="producer393" in="00:00:00.000" out="00:00:00.483"/>
  <entry producer="producer394" in="00:00:00.000" out="00:00:00.483"/>
  <entry producer="producer395" in="00:00:00.000" out="00:00:00.317"/>
  <entry producer="producer396" in="00:00:00.000" out="00:00:00.317"/>
  <entry producer="producer397" in="00:00:00.000" out="00:00:00.317"/>
  <entry producer="producer398" in="00:00:00.000" out="00:00:00.317"/>
  <entry producer="producer399" in="00:00:00.000" out="00:00:00.983"/>
  <entry producer="producer400" in="00:00:00.000" out="00:00:00.317"/>
  <entry producer="producer401" in="00:00:00.000" out="00:00:00.317"/>
  <entry producer="producer402" in="00:00:00.000" out="00:00:01.483"/>
  <entry producer="producer403" in="00:00:00.000" out="00:00:00.983"/>
  <entry producer="producer404" in="00:00:00.000" out="00:00:00.983"/>
  <entry producer="producer405" in="00:00:00.000" out="00:00:00.650"/>
  <entry producer="producer406" in="00:00:00.000" out="00:00:00.650"/>
  <entry producer="producer407" in="00:00:00.000" out="00:00:00.650"/>
  <entry producer="producer408" in="00:00:00.000" out="00:00:00.650"/>
  <entry producer="producer409" in="00:00:00.000" out="00:00:00.983"/>
  <entry producer="producer410" in="00:00:00.000" out="00:00:00.983"/>
  <entry producer="producer411" in="00:00:00.000" out="00:00:00.983"/>
  <entry producer="producer413" in="00:00:00.000" out="00:00:00.983"/>
  <entry producer="producer412" in="00:00:00.000" out="00:00:00.983"/>
  <entry producer="producer414" in="00:00:00.000" out="00:00:00.983"/>
  <entry producer="producer415" in="00:00:00.000" out="00:00:00.983"/>
  <entry producer="producer416" in="00:00:00.000" out="00:00:01.233"/>
  <entry producer="producer417" in="00:00:00.000" out="00:00:02.067"/>
  <entry producer="producer418" in="00:00:00.000" out="00:00:01.633"/>
  <entry producer="producer419" in="00:00:00.000" out="00:00:00.983"/>
  <entry producer="producer420" in="00:00:00.000" out="00:00:00.983"/>
  <entry producer="producer421" in="00:00:00.000" out="00:00:00.983"/>
  <entry producer="producer422" in="00:00:00.000" out="00:00:00.983"/>
  <entry producer="producer423" in="00:00:00.000" out="00:00:01.483"/>
  <entry producer="producer424" in="00:00:00.000" out="00:00:00.983"/>
  <entry producer="producer425" in="00:00:00.000" out="00:00:00.983"/>
  <entry producer="producer426" in="00:00:00.000" out="00:00:00.983"/>
  <entry producer="producer427" in="00:00:00.000" out="00:00:00.983"/>
  <entry producer="producer428" in="00:00:00.000" out="00:00:00.983"/>
  <entry producer="producer429" in="00:00:00.000" out="00:00:00.983"/>
  <entry producer="producer430" in="00:00:00.000" out="00:00:00.983"/>
  <entry producer="producer431" in="00:00:00.000" out="00:00:01.483"/>
  <entry producer="producer432" in="00:00:00.000" out="00:00:00.983"/>
  <entry producer="producer433" in="00:00:00.000" out="00:00:01.483"/>
  <entry producer="producer435" in="00:00:00.000" out="00:00:00.983"/>
  <entry producer="producer434" in="00:00:00.000" out="00:00:01.483"/>
  <entry producer="producer436" in="00:00:00.000" out="00:00:00.983"/>
  <entry producer="producer509" in="00:00:00.000" out="00:00:00.983"/>
  <entry producer="producer439" in="00:00:00.000" out="00:00:11.817"/>
  <entry producer="producer437" in="00:00:00.000" out="00:00:00.983"/>
  <entry producer="producer438" in="00:00:00.000" out="00:00:00.983"/>
  <entry producer="producer440" in="00:00:00.000" out="00:00:00.983"/>
  <entry producer="producer441" in="00:00:00.000" out="00:00:00.983"/>
  <entry producer="producer442" in="00:00:00.000" out="00:00:00.983"/>
  <entry producer="producer445" in="00:00:00.000" out="00:00:00.983"/>
  <entry producer="producer443" in="00:00:00.000" out="00:00:00.983"/>
  <entry producer="producer444" in="00:00:00.000" out="00:00:00.983"/>
  <entry producer="producer446" in="00:00:00.000" out="00:00:01.483"/>
  <entry producer="producer447" in="00:00:00.000" out="00:00:00.983"/>
  <entry producer="producer448" in="00:00:00.000" out="00:00:00.983"/>
  <entry producer="producer450" in="00:00:00.000" out="00:00:00.317"/>
  <entry producer="producer506" in="00:00:00.000" out="00:00:04.983"/>
  <entry producer="producer499" in="00:00:00.000" out="00:00:04.983"/>
  <entry producer="producer501" in="00:00:00.000" out="00:00:04.983"/>
  <entry producer="producer502" in="00:00:00.000" out="00:00:04.983"/>
  <entry producer="producer503" in="00:00:00.000" out="00:00:04.983"/>
  <entry producer="producer272" in="00:00:00.000" out="00:00:10.150"/>
  <entry producer="producer504" in="00:00:00.000" out="00:12:32.850"/>
  <entry producer="producer505" in="00:00:00.000" out="00:04:00.367"/>
  <entry producer="producer449" in="00:00:00.000" out="00:00:00.983"/>
  <entry producer="producer451" in="00:00:00.000" out="00:00:00.117"/>
  <entry producer="producer452" in="00:00:00.000" out="00:00:00.117"/>
  <entry producer="producer453" in="00:00:00.000" out="00:00:00.117"/>
  <entry producer="producer454" in="00:00:00.000" out="00:00:00.117"/>
  <entry producer="producer455" in="00:00:00.000" out="00:00:00.183"/>
  <entry producer="producer456" in="00:00:00.000" out="00:00:00.183"/>
  <entry producer="producer457" in="00:00:00.000" out="00:00:00.183"/>
  <entry producer="producer459" in="00:00:00.000" out="00:00:00.117"/>
  <entry producer="producer458" in="00:00:00.000" out="00:00:00.117"/>
  <entry producer="producer461" in="00:00:00.000" out="00:00:00.117"/>
  <entry producer="producer460" in="00:00:00.000" out="00:00:00.983"/>
  <entry producer="producer462" in="00:00:00.000" out="00:00:01.483"/>
  <entry producer="producer464" in="00:00:00.000" out="00:00:00.983"/>
  <entry producer="producer463" in="00:00:00.000" out="00:00:00.983"/>
  <entry producer="producer465" in="00:00:00.000" out="00:00:00.983"/>
  <entry producer="producer466" in="00:00:00.000" out="00:00:00.983"/>
  <entry producer="producer467" in="00:00:00.000" out="00:00:00.983"/>
  <entry producer="producer468" in="00:00:00.000" out="00:00:00.983"/>
  <entry producer="producer469" in="00:00:00.000" out="00:00:00.983"/>
  <entry producer="producer470" in="00:00:00.000" out="00:00:00.983"/>
  <entry producer="producer471" in="00:00:00.000" out="00:00:00.983"/>
  <entry producer="producer472" in="00:00:00.000" out="00:00:00.183"/>
  <entry producer="producer473" in="00:00:00.000" out="00:00:00.983"/>
  <entry producer="producer474" in="00:00:00.000" out="00:00:01.483"/>
  <entry producer="producer477" in="00:00:00.000" out="00:00:00.983"/>
  <entry producer="producer475" in="00:00:00.000" out="00:00:00.983"/>
  <entry producer="producer476" in="00:00:00.000" out="00:00:00.983"/>
  <entry producer="producer478" in="00:00:00.000" out="00:00:01.483"/>
  <entry producer="producer479" in="00:00:00.000" out="00:00:00.983"/>
  <entry producer="producer480" in="00:00:00.000" out="00:00:00.983"/>
  <entry producer="producer481" in="00:00:00.000" out="00:00:00.983"/>
  <entry producer="producer482" in="00:00:00.000" out="00:00:01.383"/>
  <entry producer="producer483" in="00:00:00.000" out="00:00:00.183"/>
  <entry producer="producer485" in="00:00:00.000" out="00:00:00.983"/>
  <entry producer="producer484" in="00:00:00.000" out="00:00:00.983"/>
  <entry producer="producer486" in="00:00:00.000" out="00:00:01.483"/>
  <entry producer="producer487" in="00:00:00.000" out="00:00:00.983"/>
  <entry producer="producer488" in="00:00:00.000" out="00:00:00.983"/>
  <entry producer="producer489" in="00:00:00.000" out="00:00:00.983"/>
  <entry producer="producer490" in="00:00:00.000" out="00:00:00.983"/>
  <entry producer="producer491" in="00:00:00.000" out="00:00:00.983"/>
  <entry producer="producer492" in="00:00:00.000" out="00:00:00.983"/>
  <entry producer="producer494" in="00:00:00.000" out="00:00:00.983"/>
  <entry producer="producer495" in="00:00:00.000" out="00:00:00.117"/>
  <entry producer="producer493" in="00:00:00.000" out="00:00:00.983"/>
  <entry producer="producer496" in="00:00:00.000" out="00:00:00.117"/>
  <entry producer="producer497" in="00:00:00.000" out="00:00:00.183"/>
  <entry producer="producer498" in="00:00:00.000" out="00:00:00.183"/>
  <entry producer="producer500" in="00:00:00.000" out="00:00:00.183"/>
 </playlist>
 <producer id="black_track" in="00:00:00.000" out="00:17:33.583">
  <property name="length">2147483647</property>
  <property name="eof">continue</property>
  <property name="resource">black</property>
  <property name="aspect_ratio">1</property>
  <property name="mlt_service">color</property>
  <property name="mlt_image_format">rgba</property>
  <property name="set.test_audio">0</property>
 </producer>
 <producer id="producer510" in="00:00:00.000" out="00:00:10.150">
  <property name="length">610</property>
  <property name="eof">pause</property>
  <property name="resource">audio/fire.wav</property>
  <property name="audio_index">0</property>
  <property name="video_index">-1</property>
  <property name="mute_on_pause">0</property>
  <property name="mlt_service">avformat-novalidate</property>
  <property name="meta.media.nb_streams">1</property>
  <property name="meta.media.0.stream.type">audio</property>
  <property name="meta.media.0.codec.sample_fmt">s16</property>
  <property name="meta.media.0.codec.sample_rate">44100</property>
  <property name="meta.media.0.codec.channels">2</property>
  <property name="meta.media.0.codec.name">pcm_s16le</property>
  <property name="meta.media.0.codec.long_name">PCM signed 16-bit little-endian</property>
  <property name="meta.media.0.codec.bit_rate">1411200</property>
  <property name="seekable">1</property>
  <property name="kdenlive:clipname"/>
  <property name="kdenlive:clip_type">1</property>
  <property name="kdenlive:folderid">2</property>
  <property name="kdenlive:id">536</property>
  <property name="kdenlive:file_size">1792044</property>
  <property name="kdenlive:file_hash">9a70f3b1b2da581e2f918efa03966e66</property>
  <property name="kdenlive:audio_max0">185</property>
  <property name="xml">was here</property>
  <property name="set.test_audio">0</property>
  <property name="set.test_image">1</property>
 </producer>
 <producer id="producer511" in="00:00:00.000" out="00:03:05.433">
  <property name="length">11127</property>
  <property name="eof">pause</property>
  <property name="resource">audio/music/Bodytonic/Cases to Rest/Cases to Rest.wav</property>
  <property name="audio_index">0</property>
  <property name="video_index">-1</property>
  <property name="mute_on_pause">0</property>
  <property name="mlt_service">avformat-novalidate</property>
  <property name="meta.media.nb_streams">1</property>
  <property name="meta.media.0.stream.type">audio</property>
  <property name="meta.media.0.codec.sample_fmt">s32</property>
  <property name="meta.media.0.codec.sample_rate">44100</property>
  <property name="meta.media.0.codec.channels">2</property>
  <property name="meta.media.0.codec.name">pcm_s24le</property>
  <property name="meta.media.0.codec.long_name">PCM signed 24-bit little-endian</property>
  <property name="meta.media.0.codec.bit_rate">2116800</property>
  <property name="meta.attr.encoded_by.markup">Logic Pro X</property>
  <property name="meta.attr.date.markup">2017-07-16</property>
  <property name="meta.attr.creation_time.markup">13:55:21</property>
  <property name="meta.attr.time_reference.markup">158760000</property>
  <property name="meta.attr.umid.markup">0x00000000000000000000000000000000000000000000000000000000EE00CDDB768CEBF380697352FF7F00004684480E01000000B0617352FF7F0000ECEE1AD9</property>
  <property name="seekable">1</property>
  <property name="kdenlive:clipname"/>
  <property name="kdenlive:clip_type">1</property>
  <property name="kdenlive:folderid">48</property>
  <property name="kdenlive:id">49</property>
  <property name="kdenlive:file_size">49072094</property>
  <property name="kdenlive:file_hash">59499b3efe0b0020ff2318ae70d3c5af</property>
  <property name="kdenlive:audio_max0">249</property>
  <property name="xml">was here</property>
  <property name="set.test_audio">0</property>
  <property name="set.test_image">1</property>
 </producer>
 <producer id="producer512" in="00:00:00.000" out="00:03:03.167">
  <property name="length">10991</property>
  <property name="eof">pause</property>
  <property name="resource">audio/music/Bodytonic/Thannoid/Thannoid.wav</property>
  <property name="audio_index">0</property>
  <property name="video_index">-1</property>
  <property name="mute_on_pause">0</property>
  <property name="mlt_service">avformat-novalidate</property>
  <property name="meta.media.nb_streams">1</property>
  <property name="meta.media.0.stream.type">audio</property>
  <property name="meta.media.0.codec.sample_fmt">s32</property>
  <property name="meta.media.0.codec.sample_rate">44100</property>
  <property name="meta.media.0.codec.channels">2</property>
  <property name="meta.media.0.codec.name">pcm_s24le</property>
  <property name="meta.media.0.codec.long_name">PCM signed 24-bit little-endian</property>
  <property name="meta.media.0.codec.bit_rate">2116800</property>
  <property name="meta.attr.encoded_by.markup">Logic Pro X</property>
  <property name="meta.attr.date.markup">2017-06-08</property>
  <property name="meta.attr.creation_time.markup">11:58:37</property>
  <property name="meta.attr.time_reference.markup">158760000</property>
  <property name="meta.attr.umid.markup">0x00000000000000000000000000000000000000000000000000000000A200AAFA29A23A358059595BFF7F00004694620501000000B051595BFF7F0000ECFE8894</property>
  <property name="seekable">1</property>
  <property name="kdenlive:clipname"/>
  <property name="kdenlive:clip_type">1</property>
  <property name="kdenlive:folderid">111</property>
  <property name="kdenlive:id">113</property>
  <property name="kdenlive:file_size">48470638</property>
  <property name="kdenlive:file_hash">d01b2267fd4c82a6c4e00c53126f5078</property>
  <property name="kdenlive:audio_max0">253</property>
  <property name="xml">was here</property>
  <property name="set.test_audio">0</property>
  <property name="set.test_image">1</property>
 </producer>
 <playlist id="playlist0">
  <property name="kdenlive:audio_track">1</property>
  <blank length="00:00:08.167"/>
  <entry producer="producer510" in="00:00:00.000" out="00:00:03.250">
   <property name="kdenlive:id">536</property>
   <filter id="filter0" out="00:00:00.183">
    <property name="window">75</property>
    <property name="max_gain">20dB</property>
    <property name="mlt_service">volume</property>
    <property name="kdenlive_id">fadein</property>
    <property name="gain">0</property>
    <property name="end">1</property>
    <property name="kdenlive:collapsed">0</property>
   </filter>
   <filter id="filter1">
    <property name="window">75</property>
    <property name="max_gain">20dB</property>
    <property name="level">00:00:00.000=-11</property>
    <property name="mlt_service">volume</property>
    <property name="kdenlive_id">volume</property>
    <property name="kdenlive:collapsed">0</property>
   </filter>
   <filter id="filter2" in="00:00:02.983" out="00:00:03.250">
    <property name="window">75</property>
    <property name="max_gain">20dB</property>
    <property name="mlt_service">volume</property>
    <property name="kdenlive_id">fadeout</property>
    <property name="gain">1</property>
    <property name="end">0</property>
   </filter>
  </entry>
  <blank length="00:01:32.850"/>
  <entry producer="producer511" in="00:01:18.467" out="00:01:21.667">
   <property name="kdenlive:id">49</property>
   <filter id="filter3">
    <property name="window">75</property>
    <property name="max_gain">20dB</property>
    <property name="level">00:01:18.467=-31</property>
    <property name="mlt_service">volume</property>
    <property name="kdenlive_id">volume</property>
    <property name="kdenlive:collapsed">0</property>
   </filter>
   <filter id="filter4" in="00:01:18.467" out="00:01:19.050">
    <property name="window">75</property>
    <property name="max_gain">20dB</property>
    <property name="mlt_service">volume</property>
    <property name="kdenlive_id">fadein</property>
    <property name="gain">0</property>
    <property name="end">1</property>
    <property name="kdenlive:collapsed">0</property>
   </filter>
   <filter id="filter5" in="00:01:21.317" out="00:01:21.667">
    <property name="window">75</property>
    <property name="max_gain">20dB</property>
    <property name="mlt_service">volume</property>
    <property name="kdenlive_id">fadeout</property>
    <property name="gain">1</property>
    <property name="end">0</property>
    <property name="kdenlive:collapsed">0</property>
   </filter>
  </entry>
  <blank length="00:00:01.450"/>
  <entry producer="producer511" in="00:01:23.133" out="00:02:06.367">
   <property name="kdenlive:id">49</property>
   <filter id="filter6">
    <property name="window">75</property>
    <property name="max_gain">20dB</property>
    <property name="level">00:01:23.133=-31</property>
    <property name="mlt_service">volume</property>
    <property name="kdenlive_id">volume</property>
    <property name="kdenlive:collapsed">0</property>
   </filter>
   <filter id="filter7" in="00:01:23.133" out="00:01:23.383">
    <property name="window">75</property>
    <property name="max_gain">20dB</property>
    <property name="mlt_service">volume</property>
    <property name="kdenlive_id">fadein</property>
    <property name="gain">0</property>
    <property name="end">1</property>
    <property name="kdenlive:collapsed">0</property>
   </filter>
   <filter id="filter8" in="00:02:05.817" out="00:02:06.367">
    <property name="window">75</property>
    <property name="max_gain">20dB</property>
    <property name="mlt_service">volume</property>
    <property name="kdenlive_id">fadeout</property>
    <property name="gain">1</property>
    <property name="end">0</property>
   </filter>
  </entry>
  <blank length="00:03:10.483"/>
  <entry producer="producer512" in="00:01:10.050" out="00:02:41.233">
   <property name="kdenlive:id">113</property>
   <filter id="filter9">
    <property name="window">75</property>
    <property name="max_gain">20dB</property>
    <property name="level">00:01:10.050=-32</property>
    <property name="mlt_service">volume</property>
    <property name="kdenlive_id">volume</property>
    <property name="kdenlive:collapsed">0</property>
   </filter>
   <filter id="filter10" in="00:01:10.050" out="00:01:10.867">
    <property name="window">75</property>
    <property name="max_gain">20dB</property>
    <property name="mlt_service">volume</property>
    <property name="kdenlive_id">fadein</property>
    <property name="gain">0</property>
    <property name="end">1</property>
    <property name="kdenlive:collapsed">0</property>
   </filter>
   <filter id="filter11" in="00:02:40.417" out="00:02:41.233">
    <property name="window">75</property>
    <property name="max_gain">20dB</property>
    <property name="mlt_service">volume</property>
    <property name="kdenlive_id">fadeout</property>
    <property name="gain">1</property>
    <property name="end">0</property>
   </filter>
  </entry>
 </playlist>
 <playlist id="playlist1">
  <property name="kdenlive:audio_track">1</property>
 </playlist>
 <tractor id="tractor0" in="00:00:00.000" out="00:07:13.867">
  <property name="kdenlive:audio_track">1</property>
  <property name="kdenlive:trackheight">67</property>
  <property name="kdenlive:timeline_active">1</property>
  <property name="kdenlive:collapsed">0</property>
  <property name="kdenlive:thumbs_format"/>
  <property name="kdenlive:audio_rec"/>
  <track hide="video" producer="playlist0"/>
  <track hide="video" producer="playlist1"/>
  <filter id="filter12">
   <property name="window">75</property>
   <property name="max_gain">20dB</property>
   <property name="mlt_service">volume</property>
   <property name="internal_added">237</property>
   <property name="disable">1</property>
  </filter>
  <filter id="filter13">
   <property name="channel">-1</property>
   <property name="mlt_service">panner</property>
   <property name="internal_added">237</property>
   <property name="start">0.5</property>
   <property name="disable">1</property>
  </filter>
  <filter id="filter14">
   <property name="iec_scale">0</property>
   <property name="mlt_service">audiolevel</property>
   <property name="dbpeak">1</property>
   <property name="disable">1</property>
  </filter>
 </tractor>
 <producer id="producer513" in="00:00:00.000" out="00:00:47.200">
  <property name="length">2833</property>
  <property name="eof">pause</property>
  <property name="resource">audio/music/Warmbody/The Big Ten/variations/The Big Ten | 1 Min.wav</property>
  <property name="audio_index">0</property>
  <property name="video_index">-1</property>
  <property name="mute_on_pause">0</property>
  <property name="mlt_service">avformat-novalidate</property>
  <property name="meta.media.nb_streams">1</property>
  <property name="meta.media.0.stream.type">audio</property>
  <property name="meta.media.0.codec.sample_fmt">s32</property>
  <property name="meta.media.0.codec.sample_rate">44100</property>
  <property name="meta.media.0.codec.channels">2</property>
  <property name="meta.media.0.codec.name">pcm_s24le</property>
  <property name="meta.media.0.codec.long_name">PCM signed 24-bit little-endian</property>
  <property name="meta.media.0.codec.bit_rate">2116800</property>
  <property name="meta.attr.encoded_by.markup">Logic Pro X</property>
  <property name="meta.attr.date.markup">2017-06-08</property>
  <property name="meta.attr.creation_time.markup">17:13:36</property>
  <property name="meta.attr.time_reference.markup">164832787</property>
  <property name="meta.attr.umid.markup">0x00000000000000000000000000000000000000000000000000000000A200AAFA29A23A358059595BFF7F00004694620501000000B051595BFF7F0000ECFE8894</property>
  <property name="seekable">1</property>
  <property name="kdenlive:clipname"/>
  <property name="kdenlive:clip_type">1</property>
  <property name="kdenlive:folderid">313</property>
  <property name="kdenlive:id">314</property>
  <property name="kdenlive:file_size">12493318</property>
  <property name="kdenlive:file_hash">2091cf3dd8b094a161ab8f5fcfa1443c</property>
  <property name="kdenlive:audio_max0">245</property>
  <property name="xml">was here</property>
  <property name="set.test_audio">0</property>
  <property name="set.test_image">1</property>
 </producer>
 <producer id="producer514" in="00:00:00.000" out="00:03:05.433">
  <property name="length">11127</property>
  <property name="eof">pause</property>
  <property name="resource">audio/music/Bodytonic/Cases to Rest/Cases to Rest.wav</property>
  <property name="audio_index">0</property>
  <property name="video_index">-1</property>
  <property name="mute_on_pause">0</property>
  <property name="mlt_service">avformat-novalidate</property>
  <property name="meta.media.nb_streams">1</property>
  <property name="meta.media.0.stream.type">audio</property>
  <property name="meta.media.0.codec.sample_fmt">s32</property>
  <property name="meta.media.0.codec.sample_rate">44100</property>
  <property name="meta.media.0.codec.channels">2</property>
  <property name="meta.media.0.codec.name">pcm_s24le</property>
  <property name="meta.media.0.codec.long_name">PCM signed 24-bit little-endian</property>
  <property name="meta.media.0.codec.bit_rate">2116800</property>
  <property name="meta.attr.encoded_by.markup">Logic Pro X</property>
  <property name="meta.attr.date.markup">2017-07-16</property>
  <property name="meta.attr.creation_time.markup">13:55:21</property>
  <property name="meta.attr.time_reference.markup">158760000</property>
  <property name="meta.attr.umid.markup">0x00000000000000000000000000000000000000000000000000000000EE00CDDB768CEBF380697352FF7F00004684480E01000000B0617352FF7F0000ECEE1AD9</property>
  <property name="seekable">1</property>
  <property name="kdenlive:clipname"/>
  <property name="kdenlive:clip_type">1</property>
  <property name="kdenlive:folderid">48</property>
  <property name="kdenlive:id">49</property>
  <property name="kdenlive:file_size">49072094</property>
  <property name="kdenlive:file_hash">59499b3efe0b0020ff2318ae70d3c5af</property>
  <property name="kdenlive:audio_max0">249</property>
  <property name="xml">was here</property>
  <property name="set.test_audio">0</property>
  <property name="set.test_image">1</property>
 </producer>
 <producer id="producer515" in="00:00:00.000" out="00:03:03.167">
  <property name="length">10991</property>
  <property name="eof">pause</property>
  <property name="resource">audio/music/Bodytonic/Thannoid/Thannoid.wav</property>
  <property name="audio_index">0</property>
  <property name="video_index">-1</property>
  <property name="mute_on_pause">0</property>
  <property name="mlt_service">avformat-novalidate</property>
  <property name="meta.media.nb_streams">1</property>
  <property name="meta.media.0.stream.type">audio</property>
  <property name="meta.media.0.codec.sample_fmt">s32</property>
  <property name="meta.media.0.codec.sample_rate">44100</property>
  <property name="meta.media.0.codec.channels">2</property>
  <property name="meta.media.0.codec.name">pcm_s24le</property>
  <property name="meta.media.0.codec.long_name">PCM signed 24-bit little-endian</property>
  <property name="meta.media.0.codec.bit_rate">2116800</property>
  <property name="meta.attr.encoded_by.markup">Logic Pro X</property>
  <property name="meta.attr.date.markup">2017-06-08</property>
  <property name="meta.attr.creation_time.markup">11:58:37</property>
  <property name="meta.attr.time_reference.markup">158760000</property>
  <property name="meta.attr.umid.markup">0x00000000000000000000000000000000000000000000000000000000A200AAFA29A23A358059595BFF7F00004694620501000000B051595BFF7F0000ECFE8894</property>
  <property name="seekable">1</property>
  <property name="kdenlive:clipname"/>
  <property name="kdenlive:clip_type">1</property>
  <property name="kdenlive:folderid">111</property>
  <property name="kdenlive:id">113</property>
  <property name="kdenlive:file_size">48470638</property>
  <property name="kdenlive:file_hash">d01b2267fd4c82a6c4e00c53126f5078</property>
  <property name="kdenlive:audio_max0">253</property>
  <property name="xml">was here</property>
  <property name="set.test_audio">0</property>
  <property name="set.test_image">1</property>
 </producer>
 <playlist id="playlist2">
  <property name="kdenlive:audio_track">1</property>
  <entry producer="producer513" in="00:00:00.000" out="00:00:27.150">
   <property name="kdenlive:id">314</property>
   <filter id="filter15">
    <property name="window">75</property>
    <property name="max_gain">20dB</property>
    <property name="level">00:00:00.000=-31</property>
    <property name="mlt_service">volume</property>
    <property name="kdenlive_id">volume</property>
    <property name="kdenlive:collapsed">0</property>
   </filter>
   <filter id="filter16" in="00:00:22.850" out="00:00:27.150">
    <property name="window">75</property>
    <property name="max_gain">20dB</property>
    <property name="mlt_service">volume</property>
    <property name="kdenlive_id">fadeout</property>
    <property name="gain">1</property>
    <property name="end">0</property>
    <property name="kdenlive:collapsed">0</property>
   </filter>
  </entry>
  <blank length="00:00:03.067"/>
  <entry producer="producer514" in="00:00:00.000" out="00:01:14.650">
   <property name="kdenlive:id">49</property>
   <filter id="filter17" out="00:00:01.200">
    <property name="window">75</property>
    <property name="max_gain">20dB</property>
    <property name="mlt_service">volume</property>
    <property name="kdenlive_id">fadein</property>
    <property name="gain">0</property>
    <property name="end">1</property>
    <property name="kdenlive:collapsed">0</property>
   </filter>
   <filter id="filter18">
    <property name="window">75</property>
    <property name="max_gain">20dB</property>
    <property name="level">00:00:00.000=-31</property>
    <property name="mlt_service">volume</property>
    <property name="kdenlive_id">volume</property>
    <property name="kdenlive:collapsed">0</property>
   </filter>
   <filter id="filter19" in="00:01:13.567" out="00:01:14.650">
    <property name="window">75</property>
    <property name="max_gain">20dB</property>
    <property name="mlt_service">volume</property>
    <property name="kdenlive_id">fadeout</property>
    <property name="gain">1</property>
    <property name="end">0</property>
    <property name="kdenlive:collapsed">0</property>
   </filter>
  </entry>
  <blank length="00:00:46.617"/>
  <entry producer="producer514" in="00:01:57.933" out="00:02:45.650">
   <property name="kdenlive:id">49</property>
   <filter id="filter20">
    <property name="window">75</property>
    <property name="max_gain">20dB</property>
    <property name="level">00:01:57.933=-34</property>
    <property name="mlt_service">volume</property>
    <property name="kdenlive_id">volume</property>
    <property name="kdenlive:collapsed">0</property>
   </filter>
   <filter id="filter21" in="00:01:57.933" out="00:01:58.483">
    <property name="window">75</property>
    <property name="max_gain">20dB</property>
    <property name="mlt_service">volume</property>
    <property name="kdenlive_id">fadein</property>
    <property name="gain">0</property>
    <property name="end">1</property>
    <property name="kdenlive:collapsed">0</property>
   </filter>
   <filter id="filter22" in="00:02:44.367" out="00:02:45.650">
    <property name="window">75</property>
    <property name="max_gain">20dB</property>
    <property name="mlt_service">volume</property>
    <property name="kdenlive_id">fadeout</property>
    <property name="gain">1</property>
    <property name="end">0</property>
    <property name="kdenlive:collapsed">0</property>
   </filter>
  </entry>
  <blank length="00:00:01.867"/>
  <entry producer="producer515" in="00:00:01.783" out="00:02:23.933">
   <property name="kdenlive:id">113</property>
   <filter id="filter23" in="00:00:01.783" out="00:00:02.200">
    <property name="window">75</property>
    <property name="max_gain">20dB</property>
    <property name="mlt_service">volume</property>
    <property name="kdenlive_id">fadein</property>
    <property name="gain">0</property>
    <property name="end">1</property>
    <property name="kdenlive:collapsed">0</property>
   </filter>
   <filter id="filter24">
    <property name="window">75</property>
    <property name="max_gain">20dB</property>
    <property name="level">00:00:01.783=-32</property>
    <property name="mlt_service">volume</property>
    <property name="kdenlive_id">volume</property>
    <property name="kdenlive:collapsed">0</property>
   </filter>
   <filter id="filter25" in="00:02:22.533" out="00:02:23.933">
    <property name="window">75</property>
    <property name="max_gain">20dB</property>
    <property name="mlt_service">volume</property>
    <property name="kdenlive_id">fadeout</property>
    <property name="gain">1</property>
    <property name="end">0</property>
    <property name="kdenlive:collapsed">0</property>
   </filter>
  </entry>
  <blank length="00:01:29.800"/>
  <entry producer="producer515" in="00:01:10.050" out="00:03:02.150">
   <property name="kdenlive:id">113</property>
   <filter id="filter26">
    <property name="window">75</property>
    <property name="max_gain">20dB</property>
    <property name="level">00:01:10.050=-32</property>
    <property name="mlt_service">volume</property>
    <property name="kdenlive_id">volume</property>
    <property name="kdenlive:collapsed">0</property>
   </filter>
   <filter id="filter27" in="00:01:10.050" out="00:01:10.867">
    <property name="window">75</property>
    <property name="max_gain">20dB</property>
    <property name="mlt_service">volume</property>
    <property name="kdenlive_id">fadein</property>
    <property name="gain">0</property>
    <property name="end">1</property>
    <property name="kdenlive:collapsed">0</property>
   </filter>
  </entry>
 </playlist>
 <playlist id="playlist3">
  <property name="kdenlive:audio_track">1</property>
 </playlist>
 <tractor id="tractor1" in="00:00:00.000" out="00:09:05.183">
  <property name="kdenlive:audio_track">1</property>
  <property name="kdenlive:trackheight">67</property>
  <property name="kdenlive:timeline_active">1</property>
  <property name="kdenlive:collapsed">0</property>
  <property name="kdenlive:thumbs_format"/>
  <property name="kdenlive:audio_rec"/>
  <track hide="video" producer="playlist2"/>
  <track hide="video" producer="playlist3"/>
  <filter id="filter28">
   <property name="window">75</property>
   <property name="max_gain">20dB</property>
   <property name="mlt_service">volume</property>
   <property name="internal_added">237</property>
   <property name="disable">1</property>
  </filter>
  <filter id="filter29">
   <property name="channel">-1</property>
   <property name="mlt_service">panner</property>
   <property name="internal_added">237</property>
   <property name="start">0.5</property>
   <property name="disable">1</property>
  </filter>
  <filter id="filter30">
   <property name="iec_scale">0</property>
   <property name="mlt_service">audiolevel</property>
   <property name="dbpeak">1</property>
   <property name="disable">1</property>
  </filter>
 </tractor>
 <producer id="producer516" in="00:00:00.000" out="00:00:35.283">
  <property name="length">2118</property>
  <property name="eof">pause</property>
  <property name="resource">audio/raw/fever.wav</property>
  <property name="audio_index">0</property>
  <property name="video_index">-1</property>
  <property name="mute_on_pause">0</property>
  <property name="mlt_service">avformat-novalidate</property>
  <property name="meta.media.nb_streams">1</property>
  <property name="meta.media.0.stream.type">audio</property>
  <property name="meta.media.0.codec.sample_fmt">s16</property>
  <property name="meta.media.0.codec.sample_rate">48000</property>
  <property name="meta.media.0.codec.channels">2</property>
  <property name="meta.media.0.codec.name">pcm_s16le</property>
  <property name="meta.media.0.codec.long_name">PCM signed 16-bit little-endian</property>
  <property name="meta.media.0.codec.bit_rate">1536000</property>
  <property name="seekable">1</property>
  <property name="kdenlive:clipname"/>
  <property name="kdenlive:clip_type">1</property>
  <property name="kdenlive:folderid">326</property>
  <property name="kdenlive:id">329</property>
  <property name="kdenlive:file_size">6776200</property>
  <property name="kdenlive:file_hash">a74143fcfb49bfcb2e9b556a90203bcd</property>
  <property name="kdenlive:audio_max0">179</property>
  <property name="xml">was here</property>
  <property name="set.test_audio">0</property>
  <property name="set.test_image">1</property>
 </producer>
 <producer id="producer517" in="00:00:00.000" out="00:01:45.133">
  <property name="length">6309</property>
  <property name="eof">pause</property>
  <property name="resource">audio/raw/intro.wav</property>
  <property name="audio_index">0</property>
  <property name="video_index">-1</property>
  <property name="mute_on_pause">0</property>
  <property name="mlt_service">avformat-novalidate</property>
  <property name="meta.media.nb_streams">1</property>
  <property name="meta.media.0.stream.type">audio</property>
  <property name="meta.media.0.codec.sample_fmt">s16</property>
  <property name="meta.media.0.codec.sample_rate">48000</property>
  <property name="meta.media.0.codec.channels">2</property>
  <property name="meta.media.0.codec.name">pcm_s16le</property>
  <property name="meta.media.0.codec.long_name">PCM signed 16-bit little-endian</property>
  <property name="meta.media.0.codec.bit_rate">1536000</property>
  <property name="seekable">1</property>
  <property name="kdenlive:clipname"/>
  <property name="kdenlive:clip_type">1</property>
  <property name="kdenlive:folderid">326</property>
  <property name="kdenlive:id">331</property>
  <property name="kdenlive:file_size">20189772</property>
  <property name="kdenlive:file_hash">e42af7a9204977c2b6018d5cea46db1a</property>
  <property name="kdenlive:audio_max0">118</property>
  <property name="xml">was here</property>
  <property name="set.test_audio">0</property>
  <property name="set.test_image">1</property>
 </producer>
 <producer id="producer518" in="00:00:00.000" out="00:02:03.750">
  <property name="length">7426</property>
  <property name="eof">pause</property>
  <property name="resource">audio/raw/basics.wav</property>
  <property name="audio_index">0</property>
  <property name="video_index">-1</property>
  <property name="mute_on_pause">0</property>
  <property name="mlt_service">avformat-novalidate</property>
  <property name="meta.media.nb_streams">1</property>
  <property name="meta.media.0.stream.type">audio</property>
  <property name="meta.media.0.codec.sample_fmt">s16</property>
  <property name="meta.media.0.codec.sample_rate">48000</property>
  <property name="meta.media.0.codec.channels">2</property>
  <property name="meta.media.0.codec.name">pcm_s16le</property>
  <property name="meta.media.0.codec.long_name">PCM signed 16-bit little-endian</property>
  <property name="meta.media.0.codec.bit_rate">1536000</property>
  <property name="seekable">1</property>
  <property name="kdenlive:clipname"/>
  <property name="kdenlive:clip_type">1</property>
  <property name="kdenlive:folderid">326</property>
  <property name="kdenlive:id">327</property>
  <property name="kdenlive:file_size">23762088</property>
  <property name="kdenlive:file_hash">e83ec4c010b0d02b53d42615074ebfcc</property>
  <property name="kdenlive:audio_max0">134</property>
  <property name="xml">was here</property>
  <property name="set.test_audio">0</property>
  <property name="set.test_image">1</property>
 </producer>
 <producer id="producer519" in="00:00:00.000" out="00:00:35.500">
  <property name="length">2131</property>
  <property name="eof">pause</property>
  <property name="resource">audio/normalized/search.wav</property>
  <property name="audio_index">0</property>
  <property name="video_index">-1</property>
  <property name="mute_on_pause">0</property>
  <property name="mlt_service">avformat-novalidate</property>
  <property name="meta.media.nb_streams">1</property>
  <property name="meta.media.0.stream.type">audio</property>
  <property name="meta.media.0.codec.sample_fmt">s16</property>
  <property name="meta.media.0.codec.sample_rate">48000</property>
  <property name="meta.media.0.codec.channels">2</property>
  <property name="meta.media.0.codec.name">pcm_s16le</property>
  <property name="meta.media.0.codec.long_name">PCM signed 16-bit little-endian</property>
  <property name="meta.media.0.codec.bit_rate">1536000</property>
  <property name="seekable">1</property>
  <property name="kdenlive:clipname"/>
  <property name="kdenlive:clip_type">1</property>
  <property name="kdenlive:folderid">319</property>
  <property name="kdenlive:id">325</property>
  <property name="kdenlive:file_size">6820428</property>
  <property name="kdenlive:file_hash">8156294f73d502ffa60998cdab1ba8f4</property>
  <property name="kdenlive:audio_max0">135</property>
  <property name="xml">was here</property>
  <property name="set.test_audio">0</property>
  <property name="set.test_image">1</property>
 </producer>
 <producer id="producer520" in="00:00:00.000" out="00:01:43.850">
  <property name="length">6232</property>
  <property name="eof">pause</property>
  <property name="resource">audio/normalized/insertion.wav</property>
  <property name="audio_index">0</property>
  <property name="video_index">-1</property>
  <property name="mute_on_pause">0</property>
  <property name="mlt_service">avformat-novalidate</property>
  <property name="meta.media.nb_streams">1</property>
  <property name="meta.media.0.stream.type">audio</property>
  <property name="meta.media.0.codec.sample_fmt">s16</property>
  <property name="meta.media.0.codec.sample_rate">48000</property>
  <property name="meta.media.0.codec.channels">2</property>
  <property name="meta.media.0.codec.name">pcm_s16le</property>
  <property name="meta.media.0.codec.long_name">PCM signed 16-bit little-endian</property>
  <property name="meta.media.0.codec.bit_rate">1536000</property>
  <property name="seekable">1</property>
  <property name="kdenlive:clipname"/>
  <property name="kdenlive:clip_type">1</property>
  <property name="kdenlive:folderid">319</property>
  <property name="kdenlive:id">323</property>
  <property name="kdenlive:file_size">19941004</property>
  <property name="kdenlive:file_hash">13af1a99d6b5f410c94e473697053898</property>
  <property name="kdenlive:audio_max0">125</property>
  <property name="xml">was here</property>
  <property name="set.test_audio">0</property>
  <property name="set.test_image">1</property>
 </producer>
 <producer id="producer521" in="00:00:00.000" out="00:06:27.300">
  <property name="length">23239</property>
  <property name="eof">pause</property>
  <property name="resource">audio/normalized/deletion.wav</property>
  <property name="audio_index">0</property>
  <property name="video_index">-1</property>
  <property name="mute_on_pause">0</property>
  <property name="mlt_service">avformat-novalidate</property>
  <property name="meta.media.nb_streams">1</property>
  <property name="meta.media.0.stream.type">audio</property>
  <property name="meta.media.0.codec.sample_fmt">s16</property>
  <property name="meta.media.0.codec.sample_rate">48000</property>
  <property name="meta.media.0.codec.channels">2</property>
  <property name="meta.media.0.codec.name">pcm_s16le</property>
  <property name="meta.media.0.codec.long_name">PCM signed 16-bit little-endian</property>
  <property name="meta.media.0.codec.bit_rate">1536000</property>
  <property name="seekable">1</property>
  <property name="kdenlive:clipname"/>
  <property name="kdenlive:clip_type">1</property>
  <property name="kdenlive:folderid">319</property>
  <property name="kdenlive:id">321</property>
  <property name="kdenlive:file_size">74363308</property>
  <property name="kdenlive:file_hash">ccbcb14ee71229498d962b0f2891d6fe</property>
  <property name="kdenlive:audio_max0">138</property>
  <property name="xml">was here</property>
  <property name="set.test_audio">0</property>
  <property name="set.test_image">1</property>
 </producer>
 <playlist id="playlist4">
  <property name="kdenlive:audio_track">1</property>
  <entry producer="producer516" in="00:00:01.150" out="00:00:02.733">
   <property name="kdenlive:id">329</property>
  </entry>
  <entry producer="producer516" in="00:00:03.100" out="00:00:08.900">
   <property name="kdenlive:id">329</property>
  </entry>
  <blank length="00:00:00.333"/>
  <entry producer="producer516" in="00:00:12.167" out="00:00:23.150">
   <property name="kdenlive:id">329</property>
  </entry>
  <blank length="00:00:00.100"/>
  <entry producer="producer516" in="00:00:25.700" out="00:00:29.133">
   <property name="kdenlive:id">329</property>
  </entry>
  <entry producer="producer516" in="00:00:29.150" out="00:00:34.000">
   <property name="kdenlive:id">329</property>
   <filter id="filter31" in="00:00:29.117" out="00:00:34.000">
    <property name="window">75</property>
    <property name="max_gain">20dB</property>
    <property name="mlt_service">volume</property>
    <property name="kdenlive_id">fadeout</property>
    <property name="gain">1</property>
    <property name="end">0</property>
   </filter>
  </entry>
  <blank length="00:00:00.883"/>
  <entry producer="producer517" in="00:00:16.283" out="00:00:23.283">
   <property name="kdenlive:id">331</property>
  </entry>
  <blank length="00:00:00.583"/>
  <entry producer="producer517" in="00:00:23.883" out="00:00:28.167">
   <property name="kdenlive:id">331</property>
  </entry>
  <blank length="00:00:00.267"/>
  <entry producer="producer517" in="00:00:30.117" out="00:00:34.350">
   <property name="kdenlive:id">331</property>
  </entry>
  <blank length="00:00:00.333"/>
  <entry producer="producer517" in="00:00:34.367" out="00:00:42.000">
   <property name="kdenlive:id">331</property>
  </entry>
  <blank length="00:00:02.200"/>
  <entry producer="producer517" in="00:00:43.083" out="00:00:44.500">
   <property name="kdenlive:id">331</property>
  </entry>
  <blank length="00:00:00.383"/>
  <entry producer="producer517" in="00:00:44.900" out="00:00:47.717">
   <property name="kdenlive:id">331</property>
  </entry>
  <blank length="00:00:01.650"/>
  <entry producer="producer517" in="00:00:48.033" out="00:00:51.250">
   <property name="kdenlive:id">331</property>
  </entry>
  <blank length="00:00:00.933"/>
  <entry producer="producer517" in="00:00:53.083" out="00:00:58.900">
   <property name="kdenlive:id">331</property>
  </entry>
  <entry producer="producer517" in="00:01:04.817" out="00:01:08.300">
   <property name="kdenlive:id">331</property>
  </entry>
  <blank length="00:00:03.800"/>
  <entry producer="producer517" in="00:01:08.317" out="00:01:09.600">
   <property name="kdenlive:id">331</property>
  </entry>
  <blank length="00:00:00.950"/>
  <entry producer="producer517" in="00:01:10.567" out="00:01:13.350">
   <property name="kdenlive:id">331</property>
  </entry>
  <entry producer="producer517" in="00:01:14.817" out="00:01:17.400">
   <property name="kdenlive:id">331</property>
  </entry>
  <blank length="00:00:00.767"/>
  <entry producer="producer517" in="00:01:18.183" out="00:01:25.767">
   <property name="kdenlive:id">331</property>
  </entry>
  <blank length="00:00:00.417"/>
  <entry producer="producer517" in="00:01:27.183" out="00:01:30.283">
   <property name="kdenlive:id">331</property>
  </entry>
  <entry producer="producer517" in="00:01:30.300" out="00:01:31.633">
   <property name="kdenlive:id">331</property>
  </entry>
  <entry producer="producer517" in="00:01:31.950" out="00:01:37.067">
   <property name="kdenlive:id">331</property>
  </entry>
  <blank length="00:00:01.350"/>
  <entry producer="producer518" in="00:00:03.433" out="00:00:12.400">
   <property name="kdenlive:id">327</property>
  </entry>
  <blank length="00:00:00.783"/>
  <entry producer="producer518" in="00:00:14.833" out="00:00:16.183">
   <property name="kdenlive:id">327</property>
  </entry>
  <blank length="00:00:00.200"/>
  <entry producer="producer518" in="00:00:16.400" out="00:00:25.317">
   <property name="kdenlive:id">327</property>
  </entry>
  <blank length="00:00:02.683"/>
  <entry producer="producer518" in="00:00:26.717" out="00:00:30.767">
   <property name="kdenlive:id">327</property>
  </entry>
  <blank length="00:00:00.417"/>
  <entry producer="producer518" in="00:00:34.583" out="00:00:38.900">
   <property name="kdenlive:id">327</property>
  </entry>
  <blank length="00:00:00.300"/>
  <entry producer="producer518" in="00:00:39.217" out="00:00:43.217">
   <property name="kdenlive:id">327</property>
  </entry>
  <blank length="00:00:00.750"/>
  <entry producer="producer518" in="00:00:44.567" out="00:00:46.250">
   <property name="kdenlive:id">327</property>
  </entry>
  <blank length="00:00:00.433"/>
  <entry producer="producer518" in="00:00:46.700" out="00:00:47.467">
   <property name="kdenlive:id">327</property>
  </entry>
  <entry producer="producer518" in="00:00:50.267" out="00:00:55.450">
   <property name="kdenlive:id">327</property>
  </entry>
  <blank length="00:00:00.433"/>
  <entry producer="producer518" in="00:00:55.900" out="00:01:00.117">
   <property name="kdenlive:id">327</property>
  </entry>
  <blank length="00:00:00.417"/>
  <entry producer="producer518" in="00:01:03.733" out="00:01:07.150">
   <property name="kdenlive:id">327</property>
  </entry>
  <blank length="00:00:01.217"/>
  <entry producer="producer518" in="00:01:12.117" out="00:01:25.483">
   <property name="kdenlive:id">327</property>
  </entry>
  <blank length="00:00:00.633"/>
  <entry producer="producer518" in="00:01:26.233" out="00:01:27.017">
   <property name="kdenlive:id">327</property>
  </entry>
  <entry producer="producer518" in="00:01:30.750" out="00:01:34.283">
   <property name="kdenlive:id">327</property>
  </entry>
  <blank length="00:00:00.450"/>
  <entry producer="producer518" in="00:01:34.750" out="00:01:35.967">
   <property name="kdenlive:id">327</property>
  </entry>
  <blank length="00:00:00.183"/>
  <entry producer="producer518" in="00:01:36.167" out="00:01:40.317">
   <property name="kdenlive:id">327</property>
  </entry>
  <blank length="00:00:00.517"/>
  <entry producer="producer518" in="00:01:42.567" out="00:01:44.400">
   <property name="kdenlive:id">327</property>
  </entry>
  <blank length="00:00:00.300"/>
  <entry producer="producer518" in="00:01:50.333" out="00:01:53.550">
   <property name="kdenlive:id">327</property>
  </entry>
  <blank length="00:00:00.533"/>
  <entry producer="producer518" in="00:01:55.050" out="00:02:02.783">
   <property name="kdenlive:id">327</property>
  </entry>
  <blank length="00:00:00.433"/>
  <entry producer="producer519" in="00:00:01.667" out="00:00:04.717">
   <property name="kdenlive:id">325</property>
  </entry>
  <entry producer="producer519" in="00:00:05.100" out="00:00:08.150">
   <property name="kdenlive:id">325</property>
  </entry>
  <blank length="00:00:00.617"/>
  <entry producer="producer519" in="00:00:09.767" out="00:00:16.150">
   <property name="kdenlive:id">325</property>
  </entry>
  <blank length="00:00:02.050"/>
  <entry producer="producer519" in="00:00:16.167" out="00:00:20.650">
   <property name="kdenlive:id">325</property>
  </entry>
  <blank length="00:00:02.400"/>
  <entry producer="producer519" in="00:00:21.650" out="00:00:23.600">
   <property name="kdenlive:id">325</property>
  </entry>
  <blank length="00:00:00.733"/>
  <entry producer="producer519" in="00:00:24.200" out="00:00:27.250">
   <property name="kdenlive:id">325</property>
  </entry>
  <blank length="00:00:06.550"/>
  <entry producer="producer519" in="00:00:28.333" out="00:00:34.533">
   <property name="kdenlive:id">325</property>
  </entry>
  <blank length="00:00:01.067"/>
  <entry producer="producer520" in="00:00:03.650" out="00:00:05.833">
   <property name="kdenlive:id">323</property>
  </entry>
  <entry producer="producer520" in="00:00:07.667" out="00:00:08.967">
   <property name="kdenlive:id">323</property>
  </entry>
  <blank length="00:00:00.367"/>
  <entry producer="producer520" in="00:00:09.867" out="00:00:13.317">
   <property name="kdenlive:id">323</property>
   <filter id="filter32" in="00:00:13.250" out="00:00:13.317">
    <property name="window">75</property>
    <property name="max_gain">20dB</property>
    <property name="mlt_service">volume</property>
    <property name="kdenlive_id">fadeout</property>
    <property name="gain">1</property>
    <property name="end">0</property>
   </filter>
  </entry>
  <entry producer="producer520" in="00:00:13.333" out="00:00:13.400">
   <property name="kdenlive:id">323</property>
   <filter id="filter33" in="00:00:13.333" out="00:00:13.383">
    <property name="window">75</property>
    <property name="max_gain">20dB</property>
    <property name="mlt_service">volume</property>
    <property name="kdenlive_id">fadein</property>
    <property name="gain">0</property>
    <property name="end">1</property>
    <property name="kdenlive:collapsed">0</property>
   </filter>
   <filter id="filter34" in="00:00:13.367" out="00:00:13.400">
    <property name="window">75</property>
    <property name="max_gain">20dB</property>
    <property name="mlt_service">volume</property>
    <property name="kdenlive_id">fadeout</property>
    <property name="gain">1</property>
    <property name="end">0</property>
    <property name="kdenlive:collapsed">0</property>
   </filter>
  </entry>
  <entry producer="producer520" in="00:00:13.417" out="00:00:14.450">
   <property name="kdenlive:id">323</property>
   <filter id="filter35" in="00:00:13.417" out="00:00:13.450">
    <property name="window">75</property>
    <property name="max_gain">20dB</property>
    <property name="mlt_service">volume</property>
    <property name="kdenlive_id">fadein</property>
    <property name="gain">0</property>
    <property name="end">1</property>
   </filter>
  </entry>
  <blank length="00:00:00.417"/>
  <entry producer="producer520" in="00:00:17.100" out="00:00:21.217">
   <property name="kdenlive:id">323</property>
  </entry>
  <blank length="00:00:00.633"/>
  <entry producer="producer520" in="00:00:22.217" out="00:00:23.600">
   <property name="kdenlive:id">323</property>
  </entry>
  <blank length="00:00:00.300"/>
  <entry producer="producer520" in="00:00:25.017" out="00:00:27.483">
   <property name="kdenlive:id">323</property>
  </entry>
  <entry producer="producer520" in="00:00:28.933" out="00:00:31.317">
   <property name="kdenlive:id">323</property>
  </entry>
  <blank length="00:00:00.017"/>
  <entry producer="producer520" in="00:00:34.017" out="00:00:36.083">
   <property name="kdenlive:id">323</property>
  </entry>
  <blank length="00:00:00.350"/>
  <entry producer="producer520" in="00:00:36.450" out="00:00:39.100">
   <property name="kdenlive:id">323</property>
  </entry>
  <blank length="00:00:02.617"/>
  <entry producer="producer520" in="00:00:49.567" out="00:00:52.783">
   <property name="kdenlive:id">323</property>
  </entry>
  <entry producer="producer520" in="00:01:03.250" out="00:01:12.933">
   <property name="kdenlive:id">323</property>
  </entry>
  <blank length="00:00:00.900"/>
  <entry producer="producer520" in="00:01:13.850" out="00:01:17.650">
   <property name="kdenlive:id">323</property>
  </entry>
  <blank length="00:00:09.767"/>
  <entry producer="producer520" in="00:01:18.917" out="00:01:23.833">
   <property name="kdenlive:id">323</property>
  </entry>
  <blank length="00:00:00.483"/>
  <entry producer="producer520" in="00:01:24.617" out="00:01:34.367">
   <property name="kdenlive:id">323</property>
  </entry>
  <blank length="00:00:00.600"/>
  <entry producer="producer520" in="00:01:35.800" out="00:01:42.650">
   <property name="kdenlive:id">323</property>
  </entry>
  <blank length="00:00:01.600"/>
  <entry producer="producer520" in="00:01:42.667" out="00:01:42.833">
   <property name="kdenlive:id">323</property>
  </entry>
  <entry producer="producer521" in="00:00:00.733" out="00:00:05.333">
   <property name="kdenlive:id">321</property>
  </entry>
  <blank length="00:00:00.417"/>
  <entry producer="producer521" in="00:00:05.767" out="00:00:09.733">
   <property name="kdenlive:id">321</property>
  </entry>
  <blank length="00:00:01.433"/>
  <entry producer="producer520" in="00:01:42.667" out="00:01:42.833">
   <property name="kdenlive:id">323</property>
  </entry>
  <entry producer="producer521" in="00:00:10.767" out="00:00:18.817">
   <property name="kdenlive:id">321</property>
  </entry>
  <entry producer="producer521" in="00:00:20.317" out="00:00:26.650">
   <property name="kdenlive:id">321</property>
  </entry>
  <blank length="00:00:00.583"/>
  <entry producer="producer521" in="00:00:27.250" out="00:00:30.183">
   <property name="kdenlive:id">321</property>
  </entry>
  <blank length="00:00:02.350"/>
  <entry producer="producer521" in="00:00:30.200" out="00:00:30.350">
   <property name="kdenlive:id">321</property>
  </entry>
  <entry producer="producer521" in="00:00:31.233" out="00:00:39.017">
   <property name="kdenlive:id">321</property>
  </entry>
  <blank length="00:00:00.733"/>
  <entry producer="producer521" in="00:00:40.267" out="00:00:42.700">
   <property name="kdenlive:id">321</property>
  </entry>
  <entry producer="producer521" in="00:01:08.600" out="00:01:13.333">
   <property name="kdenlive:id">321</property>
  </entry>
  <blank length="00:00:00.683"/>
  <entry producer="producer521" in="00:01:17.650" out="00:01:21.033">
   <property name="kdenlive:id">321</property>
  </entry>
  <blank length="00:00:00.533"/>
  <entry producer="producer521" in="00:01:28.650" out="00:01:28.683">
   <property name="kdenlive:id">321</property>
  </entry>
  <entry producer="producer521" in="00:01:28.700" out="00:01:33.983">
   <property name="kdenlive:id">321</property>
  </entry>
  <blank length="00:00:00.883"/>
  <entry producer="producer521" in="00:01:35.217" out="00:01:39.517">
   <property name="kdenlive:id">321</property>
  </entry>
  <entry producer="producer521" in="00:01:39.533" out="00:01:39.650">
   <property name="kdenlive:id">321</property>
  </entry>
  <entry producer="producer521" in="00:01:44.700" out="00:01:50.833">
   <property name="kdenlive:id">321</property>
  </entry>
  <entry producer="producer521" in="00:01:51.350" out="00:01:56.767">
   <property name="kdenlive:id">321</property>
  </entry>
  <blank length="00:00:00.533"/>
  <entry producer="producer521" in="00:01:56.783" out="00:01:56.850">
   <property name="kdenlive:id">321</property>
  </entry>
  <entry producer="producer521" in="00:01:59.350" out="00:02:01.150">
   <property name="kdenlive:id">321</property>
  </entry>
  <blank length="00:00:00.683"/>
  <entry producer="producer521" in="00:02:01.167" out="00:02:01.250">
   <property name="kdenlive:id">321</property>
  </entry>
  <entry producer="producer521" in="00:02:02.483" out="00:02:06.600">
   <property name="kdenlive:id">321</property>
  </entry>
  <blank length="00:00:00.117"/>
  <entry producer="producer521" in="00:02:01.167" out="00:02:01.250">
   <property name="kdenlive:id">321</property>
  </entry>
  <entry producer="producer521" in="00:02:10.317" out="00:02:13.300">
   <property name="kdenlive:id">321</property>
   <filter id="filter36" in="00:02:13.233" out="00:02:13.300">
    <property name="window">75</property>
    <property name="max_gain">20dB</property>
    <property name="mlt_service">volume</property>
    <property name="kdenlive_id">fadeout</property>
    <property name="gain">1</property>
    <property name="end">0</property>
   </filter>
  </entry>
  <blank length="00:00:00.500"/>
  <entry producer="producer521" in="00:02:13.817" out="00:02:14.900">
   <property name="kdenlive:id">321</property>
  </entry>
  <blank length="00:00:01.383"/>
  <entry producer="producer521" in="00:02:14.917" out="00:02:15.150">
   <property name="kdenlive:id">321</property>
  </entry>
  <entry producer="producer521" in="00:02:16.000" out="00:02:23.683">
   <property name="kdenlive:id">321</property>
  </entry>
  <blank length="00:00:01.050"/>
  <entry producer="producer521" in="00:02:23.700" out="00:02:23.767">
   <property name="kdenlive:id">321</property>
  </entry>
  <entry producer="producer521" in="00:02:25.600" out="00:02:28.317">
   <property name="kdenlive:id">321</property>
  </entry>
  <blank length="00:00:00.867"/>
  <entry producer="producer521" in="00:02:29.000" out="00:02:29.750">
   <property name="kdenlive:id">321</property>
  </entry>
  <entry producer="producer521" in="00:02:30.000" out="00:02:34.317">
   <property name="kdenlive:id">321</property>
  </entry>
  <blank length="00:00:00.383"/>
  <entry producer="producer521" in="00:02:34.333" out="00:02:34.433">
   <property name="kdenlive:id">321</property>
  </entry>
  <entry producer="producer521" in="00:02:35.433" out="00:02:39.783">
   <property name="kdenlive:id">321</property>
  </entry>
  <entry producer="producer521" in="00:02:42.933" out="00:02:45.083">
   <property name="kdenlive:id">321</property>
  </entry>
  <blank length="00:00:00.367"/>
  <entry producer="producer521" in="00:02:52.167" out="00:02:55.633">
   <property name="kdenlive:id">321</property>
  </entry>
  <entry producer="producer521" in="00:03:00.733" out="00:03:07.467">
   <property name="kdenlive:id">321</property>
  </entry>
  <entry producer="producer521" in="00:03:11.833" out="00:03:14.683">
   <property name="kdenlive:id">321</property>
  </entry>
  <blank length="00:00:01.400"/>
  <entry producer="producer521" in="00:03:14.700" out="00:03:14.767">
   <property name="kdenlive:id">321</property>
  </entry>
  <entry producer="producer521" in="00:03:19.967" out="00:03:28.000">
   <property name="kdenlive:id">321</property>
  </entry>
  <blank length="00:00:00.250"/>
  <entry producer="producer521" in="00:03:35.667" out="00:03:41.700">
   <property name="kdenlive:id">321</property>
  </entry>
  <blank length="00:00:00.350"/>
  <entry producer="producer521" in="00:03:54.017" out="00:03:58.383">
   <property name="kdenlive:id">321</property>
  </entry>
  <blank length="00:00:00.583"/>
  <entry producer="producer521" in="00:03:58.983" out="00:04:01.200">
   <property name="kdenlive:id">321</property>
  </entry>
  <blank length="00:00:00.400"/>
  <entry producer="producer521" in="00:04:01.217" out="00:04:02.467">
   <property name="kdenlive:id">321</property>
  </entry>
  <blank length="00:00:00.733"/>
  <entry producer="producer521" in="00:04:08.400" out="00:04:14.100">
   <property name="kdenlive:id">321</property>
  </entry>
  <blank length="00:00:00.367"/>
  <entry producer="producer521" in="00:04:14.117" out="00:04:14.233">
   <property name="kdenlive:id">321</property>
  </entry>
  <entry producer="producer521" in="00:04:15.000" out="00:04:16.200">
   <property name="kdenlive:id">321</property>
  </entry>
  <entry producer="producer521" in="00:04:16.783" out="00:04:23.350">
   <property name="kdenlive:id">321</property>
  </entry>
  <blank length="00:00:00.417"/>
  <entry producer="producer521" in="00:04:24.283" out="00:04:27.917">
   <property name="kdenlive:id">321</property>
  </entry>
  <blank length="00:00:00.267"/>
  <entry producer="producer521" in="00:04:30.067" out="00:04:33.300">
   <property name="kdenlive:id">321</property>
  </entry>
  <blank length="00:00:00.800"/>
  <entry producer="producer521" in="00:04:34.117" out="00:04:39.483">
   <property name="kdenlive:id">321</property>
  </entry>
  <entry producer="producer521" in="00:04:39.583" out="00:04:40.383">
   <property name="kdenlive:id">321</property>
  </entry>
  <blank length="00:00:00.467"/>
  <entry producer="producer521" in="00:04:40.783" out="00:04:42.600">
   <property name="kdenlive:id">321</property>
  </entry>
  <blank length="00:00:00.300"/>
  <entry producer="producer521" in="00:04:46.533" out="00:04:49.333">
   <property name="kdenlive:id">321</property>
  </entry>
  <entry producer="producer521" in="00:04:49.800" out="00:04:51.483">
   <property name="kdenlive:id">321</property>
  </entry>
  <blank length="00:00:00.133"/>
  <entry producer="producer521" in="00:04:55.300" out="00:05:03.317">
   <property name="kdenlive:id">321</property>
  </entry>
  <blank length="00:00:00.750"/>
  <entry producer="producer521" in="00:05:03.333" out="00:05:03.433">
   <property name="kdenlive:id">321</property>
  </entry>
  <entry producer="producer521" in="00:05:07.317" out="00:05:07.867">
   <property name="kdenlive:id">321</property>
  </entry>
  <entry producer="producer521" in="00:05:07.883" out="00:05:10.450">
   <property name="kdenlive:id">321</property>
  </entry>
  <blank length="00:00:00.300"/>
  <entry producer="producer521" in="00:05:13.350" out="00:05:18.750">
   <property name="kdenlive:id">321</property>
  </entry>
  <blank length="00:00:00.133"/>
  <entry producer="producer521" in="00:05:23.583" out="00:05:26.017">
   <property name="kdenlive:id">321</property>
  </entry>
  <blank length="00:00:00.667"/>
  <entry producer="producer521" in="00:05:39.733" out="00:05:47.850">
   <property name="kdenlive:id">321</property>
  </entry>
  <blank length="00:00:00.233"/>
  <entry producer="producer521" in="00:05:48.433" out="00:05:48.483">
   <property name="kdenlive:id">321</property>
  </entry>
  <entry producer="producer521" in="00:05:48.500" out="00:05:52.583">
   <property name="kdenlive:id">321</property>
  </entry>
  <blank length="00:00:01.683"/>
  <entry producer="producer521" in="00:06:12.817" out="00:06:23.100">
   <property name="kdenlive:id">321</property>
  </entry>
 </playlist>
 <playlist id="playlist5">
  <property name="kdenlive:audio_track">1</property>
 </playlist>
 <tractor id="tractor2" in="00:00:00.000" out="00:09:13.567">
  <property name="kdenlive:audio_track">1</property>
  <property name="kdenlive:trackheight">67</property>
  <property name="kdenlive:timeline_active">1</property>
  <property name="kdenlive:collapsed">0</property>
  <property name="kdenlive:thumbs_format"/>
  <property name="kdenlive:audio_rec"/>
  <track hide="video" producer="playlist4"/>
  <track hide="video" producer="playlist5"/>
  <filter id="filter37">
   <property name="window">75</property>
   <property name="max_gain">20dB</property>
   <property name="mlt_service">volume</property>
   <property name="internal_added">237</property>
   <property name="disable">1</property>
  </filter>
  <filter id="filter38">
   <property name="channel">-1</property>
   <property name="mlt_service">panner</property>
   <property name="internal_added">237</property>
   <property name="start">0.5</property>
   <property name="disable">1</property>
  </filter>
  <filter id="filter39">
   <property name="iec_scale">0</property>
   <property name="mlt_service">audiolevel</property>
   <property name="dbpeak">1</property>
   <property name="disable">1</property>
  </filter>
 </tractor>
 <playlist id="playlist6">
  <entry producer="producer504" in="00:00:00.000" out="00:09:13.567">
   <property name="kdenlive:id">537</property>
   <filter id="filter40">
    <property name="rotate_center">1</property>
    <property name="mlt_service">qtblend</property>
    <property name="kdenlive_id">qtblend</property>
    <property name="rect">00:00:00.000=-2386 -1247 8565 5450 1.000000</property>
    <property name="rotation">00:00:00.000=0</property>
    <property name="compositing">0</property>
    <property name="distort">0</property>
    <property name="kdenlive:collapsed">0</property>
   </filter>
  </entry>
 </playlist>
 <playlist id="playlist7"/>
 <tractor id="tractor3" in="00:00:00.000" out="00:09:13.567">
  <property name="kdenlive:trackheight">67</property>
  <property name="kdenlive:timeline_active">1</property>
  <property name="kdenlive:collapsed">0</property>
  <property name="kdenlive:thumbs_format"/>
  <property name="kdenlive:audio_rec"/>
  <track hide="audio" producer="playlist6"/>
  <track hide="audio" producer="playlist7"/>
 </tractor>
 <producer id="producer522" in="00:00:00.000" out="00:00:00.983">
  <property name="length">60</property>
  <property name="eof">pause</property>
  <property name="resource">/home/xiaoxiae/.cache/kdenlive/proxy/39e6bc83273cc5b61b6c5ca4a116c27a.mkv</property>
  <property name="audio_index">-1</property>
  <property name="video_index">0</property>
  <property name="mute_on_pause">0</property>
  <property name="mlt_service">avformat-novalidate</property>
  <property name="meta.media.nb_streams">1</property>
  <property name="meta.media.0.stream.type">video</property>
  <property name="meta.media.0.stream.frame_rate">60</property>
  <property name="meta.media.0.stream.sample_aspect_ratio">0</property>
  <property name="meta.media.0.codec.width">640</property>
  <property name="meta.media.0.codec.height">360</property>
  <property name="meta.media.0.codec.rotate">0</property>
  <property name="meta.media.0.codec.pix_fmt">yuvj420p</property>
  <property name="meta.media.0.codec.sample_aspect_ratio">0</property>
  <property name="meta.media.0.codec.colorspace">601</property>
  <property name="meta.media.0.codec.name">mjpeg</property>
  <property name="meta.media.0.codec.long_name">MJPEG (Motion JPEG)</property>
  <property name="meta.media.0.codec.bit_rate">0</property>
  <property name="meta.attr.0.stream.HANDLER_NAME.markup">VideoHandler</property>
  <property name="meta.attr.0.stream.VENDOR_ID.markup">[0][0][0][0]</property>
  <property name="meta.attr.0.stream.ENCODER.markup">Lavc60.3.100 mjpeg</property>
  <property name="meta.attr.0.stream.DURATION.markup">00:00:01.000000000</property>
  <property name="meta.attr.COMMENT.markup">Rendered with Manim Community v0.17.2</property>
  <property name="meta.attr.MAJOR_BRAND.markup">isom</property>
  <property name="meta.attr.MINOR_VERSION.markup">512</property>
  <property name="meta.attr.COMPATIBLE_BRANDS.markup">isomiso2avc1mp41</property>
  <property name="meta.attr.ENCODER.markup">Lavf60.3.100</property>
  <property name="seekable">1</property>
  <property name="meta.media.sample_aspect_num">1</property>
  <property name="meta.media.sample_aspect_den">1</property>
  <property name="aspect_ratio">1</property>
  <property name="format">3</property>
  <property name="kdenlive:clipname">1.mp4</property>
  <property name="kdenlive:clip_type">2</property>
  <property name="kdenlive:folderid">631</property>
  <property name="kdenlive:id">518</property>
  <property name="kdenlive:file_size">74936</property>
  <property name="kdenlive:file_hash">39e6bc83273cc5b61b6c5ca4a116c27a</property>
  <property name="kdenlive:proxy">/home/xiaoxiae/.cache/kdenlive/proxy/39e6bc83273cc5b61b6c5ca4a116c27a.mkv</property>
  <property name="kdenlive:originalurl">video/Fever/1.mp4</property>
  <property name="kdenlive:original.mlt_type">producer</property>
  <property name="kdenlive:original.in">0</property>
  <property name="kdenlive:original.out">59</property>
  <property name="kdenlive:original.length">60</property>
  <property name="kdenlive:original.eof">pause</property>
  <property name="kdenlive:original.resource">video/Fever/1.mp4</property>
  <property name="kdenlive:original.meta.media.nb_streams">1</property>
  <property name="kdenlive:original.meta.media.0.stream.type">video</property>
  <property name="kdenlive:original.meta.media.0.stream.frame_rate">60</property>
  <property name="kdenlive:original.meta.media.0.stream.sample_aspect_ratio">0</property>
  <property name="kdenlive:original.meta.media.0.codec.width">3840</property>
  <property name="kdenlive:original.meta.media.0.codec.height">2160</property>
  <property name="kdenlive:original.meta.media.0.codec.rotate">0</property>
  <property name="kdenlive:original.meta.media.0.codec.pix_fmt">yuv420p</property>
  <property name="kdenlive:original.meta.media.0.codec.sample_aspect_ratio">0</property>
  <property name="kdenlive:original.meta.media.0.codec.colorspace">709</property>
  <property name="kdenlive:original.meta.media.0.codec.name">h264</property>
  <property name="kdenlive:original.meta.media.0.codec.long_name">H.264 / AVC / MPEG-4 AVC / MPEG-4 part 10</property>
  <property name="kdenlive:original.meta.media.0.codec.bit_rate">586760</property>
  <property name="kdenlive:original.meta.attr.0.stream.handler_name.markup">VideoHandler</property>
  <property name="kdenlive:original.meta.attr.0.stream.vendor_id.markup">[0][0][0][0]</property>
  <property name="kdenlive:original.meta.attr.0.stream.encoder.markup">Lavc60.3.100 libx264</property>
  <property name="kdenlive:original.meta.attr.major_brand.markup">isom</property>
  <property name="kdenlive:original.meta.attr.minor_version.markup">512</property>
  <property name="kdenlive:original.meta.attr.compatible_brands.markup">isomiso2avc1mp41</property>
  <property name="kdenlive:original.meta.attr.encoder.markup">Lavf60.3.100</property>
  <property name="kdenlive:original.meta.attr.comment.markup">Rendered with Manim Community v0.17.2</property>
  <property name="kdenlive:original.seekable">1</property>
  <property name="kdenlive:original.width">3840</property>
  <property name="kdenlive:original.height">2160</property>
  <property name="kdenlive:original.meta.media.sample_aspect_num">1</property>
  <property name="kdenlive:original.meta.media.sample_aspect_den">1</property>
  <property name="kdenlive:original.aspect_ratio">1</property>
  <property name="kdenlive:original.format">3</property>
  <property name="kdenlive:original.audio_index">-1</property>
  <property name="kdenlive:original.video_index">0</property>
  <property name="kdenlive:original.mute_on_pause">0</property>
  <property name="kdenlive:original.mlt_service">avformat-novalidate</property>
  <property name="kdenlive:original.meta.media.frame_rate_num">60</property>
  <property name="kdenlive:original.meta.media.frame_rate_den">1</property>
  <property name="kdenlive:original.meta.media.colorspace">709</property>
  <property name="kdenlive:original.meta.media.color_trc">2</property>
  <property name="kdenlive:original.meta.media.has_b_frames">2</property>
  <property name="kdenlive:original.meta.media.width">3840</property>
  <property name="kdenlive:original.meta.media.height">2160</property>
  <property name="kdenlive:original.meta.media.color_range">mpeg</property>
  <property name="kdenlive:original.meta.media.top_field_first">0</property>
  <property name="kdenlive:original.meta.media.progressive">1</property>
  <property name="kdenlive:original.kdenlive:clip_type">2</property>
  <property name="kdenlive:original.kdenlive:folderid">631</property>
  <property name="kdenlive:original.kdenlive:id">632</property>
  <property name="kdenlive:original.kdenlive:file_size">74936</property>
  <property name="kdenlive:original.kdenlive:file_hash">39e6bc83273cc5b61b6c5ca4a116c27a</property>
  <property name="kdenlive:original.backup">1</property>
  <property name="xml">was here</property>
  <property name="meta.media.frame_rate_num">60</property>
  <property name="meta.media.frame_rate_den">1</property>
  <property name="meta.media.colorspace">601</property>
  <property name="meta.media.color_trc">2</property>
  <property name="meta.media.has_b_frames">0</property>
  <property name="meta.media.width">640</property>
  <property name="meta.media.height">360</property>
  <property name="meta.media.color_range">full</property>
  <property name="meta.media.top_field_first">0</property>
  <property name="meta.media.progressive">1</property>
  <property name="set.test_audio">1</property>
  <property name="set.test_image">0</property>
 </producer>
 <producer id="producer523" in="00:00:00.000" out="00:00:00.983">
  <property name="length">60</property>
  <property name="eof">pause</property>
  <property name="resource">/home/xiaoxiae/.cache/kdenlive/proxy/809ad38324ae412959973361b24a6300.mkv</property>
  <property name="audio_index">-1</property>
  <property name="video_index">0</property>
  <property name="mute_on_pause">0</property>
  <property name="mlt_service">avformat-novalidate</property>
  <property name="meta.media.nb_streams">1</property>
  <property name="meta.media.0.stream.type">video</property>
  <property name="meta.media.0.stream.frame_rate">60</property>
  <property name="meta.media.0.stream.sample_aspect_ratio">0</property>
  <property name="meta.media.0.codec.width">640</property>
  <property name="meta.media.0.codec.height">360</property>
  <property name="meta.media.0.codec.rotate">0</property>
  <property name="meta.media.0.codec.pix_fmt">yuvj420p</property>
  <property name="meta.media.0.codec.sample_aspect_ratio">0</property>
  <property name="meta.media.0.codec.colorspace">601</property>
  <property name="meta.media.0.codec.name">mjpeg</property>
  <property name="meta.media.0.codec.long_name">MJPEG (Motion JPEG)</property>
  <property name="meta.media.0.codec.bit_rate">0</property>
  <property name="meta.attr.0.stream.HANDLER_NAME.markup">VideoHandler</property>
  <property name="meta.attr.0.stream.VENDOR_ID.markup">[0][0][0][0]</property>
  <property name="meta.attr.0.stream.ENCODER.markup">Lavc60.3.100 mjpeg</property>
  <property name="meta.attr.0.stream.DURATION.markup">00:00:01.000000000</property>
  <property name="meta.attr.COMMENT.markup">Rendered with Manim Community v0.17.2</property>
  <property name="meta.attr.MAJOR_BRAND.markup">isom</property>
  <property name="meta.attr.MINOR_VERSION.markup">512</property>
  <property name="meta.attr.COMPATIBLE_BRANDS.markup">isomiso2avc1mp41</property>
  <property name="meta.attr.ENCODER.markup">Lavf60.3.100</property>
  <property name="seekable">1</property>
  <property name="meta.media.sample_aspect_num">1</property>
  <property name="meta.media.sample_aspect_den">1</property>
  <property name="aspect_ratio">1</property>
  <property name="format">3</property>
  <property name="kdenlive:clipname">2.mp4</property>
  <property name="kdenlive:clip_type">2</property>
  <property name="kdenlive:folderid">631</property>
  <property name="kdenlive:id">522</property>
  <property name="kdenlive:file_size">51788</property>
  <property name="kdenlive:file_hash">809ad38324ae412959973361b24a6300</property>
  <property name="kdenlive:proxy">/home/xiaoxiae/.cache/kdenlive/proxy/809ad38324ae412959973361b24a6300.mkv</property>
  <property name="kdenlive:originalurl">video/Fever/2.mp4</property>
  <property name="kdenlive:original.mlt_type">producer</property>
  <property name="kdenlive:original.in">0</property>
  <property name="kdenlive:original.out">59</property>
  <property name="kdenlive:original.length">60</property>
  <property name="kdenlive:original.eof">pause</property>
  <property name="kdenlive:original.resource">video/Fever/2.mp4</property>
  <property name="kdenlive:original.meta.media.nb_streams">1</property>
  <property name="kdenlive:original.meta.media.0.stream.type">video</property>
  <property name="kdenlive:original.meta.media.0.stream.frame_rate">60</property>
  <property name="kdenlive:original.meta.media.0.stream.sample_aspect_ratio">0</property>
  <property name="kdenlive:original.meta.media.0.codec.width">3840</property>
  <property name="kdenlive:original.meta.media.0.codec.height">2160</property>
  <property name="kdenlive:original.meta.media.0.codec.rotate">0</property>
  <property name="kdenlive:original.meta.media.0.codec.pix_fmt">yuv420p</property>
  <property name="kdenlive:original.meta.media.0.codec.sample_aspect_ratio">0</property>
  <property name="kdenlive:original.meta.media.0.codec.colorspace">709</property>
  <property name="kdenlive:original.meta.media.0.codec.name">h264</property>
  <property name="kdenlive:original.meta.media.0.codec.long_name">H.264 / AVC / MPEG-4 AVC / MPEG-4 part 10</property>
  <property name="kdenlive:original.meta.media.0.codec.bit_rate">401256</property>
  <property name="kdenlive:original.meta.attr.0.stream.handler_name.markup">VideoHandler</property>
  <property name="kdenlive:original.meta.attr.0.stream.vendor_id.markup">[0][0][0][0]</property>
  <property name="kdenlive:original.meta.attr.0.stream.encoder.markup">Lavc60.3.100 libx264</property>
  <property name="kdenlive:original.meta.attr.major_brand.markup">isom</property>
  <property name="kdenlive:original.meta.attr.minor_version.markup">512</property>
  <property name="kdenlive:original.meta.attr.compatible_brands.markup">isomiso2avc1mp41</property>
  <property name="kdenlive:original.meta.attr.encoder.markup">Lavf60.3.100</property>
  <property name="kdenlive:original.meta.attr.comment.markup">Rendered with Manim Community v0.17.2</property>
  <property name="kdenlive:original.seekable">1</property>
  <property name="kdenlive:original.width">3840</property>
  <property name="kdenlive:original.height">2160</property>
  <property name="kdenlive:original.meta.media.sample_aspect_num">1</property>
  <property name="kdenlive:original.meta.media.sample_aspect_den">1</property>
  <property name="kdenlive:original.aspect_ratio">1</property>
  <property name="kdenlive:original.format">3</property>
  <property name="kdenlive:original.audio_index">-1</property>
  <property name="kdenlive:original.video_index">0</property>
  <property name="kdenlive:original.mute_on_pause">0</property>
  <property name="kdenlive:original.mlt_service">avformat-novalidate</property>
  <property name="kdenlive:original.meta.media.frame_rate_num">60</property>
  <property name="kdenlive:original.meta.media.frame_rate_den">1</property>
  <property name="kdenlive:original.meta.media.colorspace">709</property>
  <property name="kdenlive:original.meta.media.color_trc">2</property>
  <property name="kdenlive:original.meta.media.has_b_frames">2</property>
  <property name="kdenlive:original.meta.media.width">3840</property>
  <property name="kdenlive:original.meta.media.height">2160</property>
  <property name="kdenlive:original.meta.media.color_range">mpeg</property>
  <property name="kdenlive:original.meta.media.top_field_first">0</property>
  <property name="kdenlive:original.meta.media.progressive">1</property>
  <property name="kdenlive:original.kdenlive:clip_type">2</property>
  <property name="kdenlive:original.kdenlive:folderid">631</property>
  <property name="kdenlive:original.kdenlive:id">636</property>
  <property name="kdenlive:original.kdenlive:file_size">51788</property>
  <property name="kdenlive:original.kdenlive:file_hash">809ad38324ae412959973361b24a6300</property>
  <property name="kdenlive:original.backup">1</property>
  <property name="xml">was here</property>
  <property name="meta.media.frame_rate_num">60</property>
  <property name="meta.media.frame_rate_den">1</property>
  <property name="meta.media.colorspace">601</property>
  <property name="meta.media.color_trc">2</property>
  <property name="meta.media.has_b_frames">0</property>
  <property name="meta.media.width">640</property>
  <property name="meta.media.height">360</property>
  <property name="meta.media.color_range">full</property>
  <property name="meta.media.top_field_first">0</property>
  <property name="meta.media.progressive">1</property>
  <property name="set.test_audio">1</property>
  <property name="set.test_image">0</property>
 </producer>
 <producer id="producer524" in="00:00:00.000" out="00:00:00.983">
  <property name="length">60</property>
  <property name="eof">pause</property>
  <property name="resource">/home/xiaoxiae/.cache/kdenlive/proxy/92fb96fc256fb05ea7f54c028df3a9fe.mkv</property>
  <property name="audio_index">-1</property>
  <property name="video_index">0</property>
  <property name="mute_on_pause">0</property>
  <property name="mlt_service">avformat-novalidate</property>
  <property name="meta.media.nb_streams">1</property>
  <property name="meta.media.0.stream.type">video</property>
  <property name="meta.media.0.stream.frame_rate">60</property>
  <property name="meta.media.0.stream.sample_aspect_ratio">0</property>
  <property name="meta.media.0.codec.width">640</property>
  <property name="meta.media.0.codec.height">360</property>
  <property name="meta.media.0.codec.rotate">0</property>
  <property name="meta.media.0.codec.pix_fmt">yuvj420p</property>
  <property name="meta.media.0.codec.sample_aspect_ratio">0</property>
  <property name="meta.media.0.codec.colorspace">601</property>
  <property name="meta.media.0.codec.name">mjpeg</property>
  <property name="meta.media.0.codec.long_name">MJPEG (Motion JPEG)</property>
  <property name="meta.media.0.codec.bit_rate">0</property>
  <property name="meta.attr.0.stream.HANDLER_NAME.markup">VideoHandler</property>
  <property name="meta.attr.0.stream.VENDOR_ID.markup">[0][0][0][0]</property>
  <property name="meta.attr.0.stream.ENCODER.markup">Lavc60.3.100 mjpeg</property>
  <property name="meta.attr.0.stream.DURATION.markup">00:00:01.000000000</property>
  <property name="meta.attr.COMMENT.markup">Rendered with Manim Community v0.17.2</property>
  <property name="meta.attr.MAJOR_BRAND.markup">isom</property>
  <property name="meta.attr.MINOR_VERSION.markup">512</property>
  <property name="meta.attr.COMPATIBLE_BRANDS.markup">isomiso2avc1mp41</property>
  <property name="meta.attr.ENCODER.markup">Lavf60.3.100</property>
  <property name="seekable">1</property>
  <property name="meta.media.sample_aspect_num">1</property>
  <property name="meta.media.sample_aspect_den">1</property>
  <property name="aspect_ratio">1</property>
  <property name="format">3</property>
  <property name="kdenlive:clipname">3.mp4</property>
  <property name="kdenlive:clip_type">2</property>
  <property name="kdenlive:folderid">631</property>
  <property name="kdenlive:id">523</property>
  <property name="kdenlive:file_size">223945</property>
  <property name="kdenlive:file_hash">92fb96fc256fb05ea7f54c028df3a9fe</property>
  <property name="kdenlive:proxy">/home/xiaoxiae/.cache/kdenlive/proxy/92fb96fc256fb05ea7f54c028df3a9fe.mkv</property>
  <property name="kdenlive:originalurl">video/Fever/3.mp4</property>
  <property name="kdenlive:original.mlt_type">producer</property>
  <property name="kdenlive:original.in">0</property>
  <property name="kdenlive:original.out">59</property>
  <property name="kdenlive:original.length">60</property>
  <property name="kdenlive:original.eof">pause</property>
  <property name="kdenlive:original.resource">video/Fever/3.mp4</property>
  <property name="kdenlive:original.meta.media.nb_streams">1</property>
  <property name="kdenlive:original.meta.media.0.stream.type">video</property>
  <property name="kdenlive:original.meta.media.0.stream.frame_rate">60</property>
  <property name="kdenlive:original.meta.media.0.stream.sample_aspect_ratio">0</property>
  <property name="kdenlive:original.meta.media.0.codec.width">3840</property>
  <property name="kdenlive:original.meta.media.0.codec.height">2160</property>
  <property name="kdenlive:original.meta.media.0.codec.rotate">0</property>
  <property name="kdenlive:original.meta.media.0.codec.pix_fmt">yuv420p</property>
  <property name="kdenlive:original.meta.media.0.codec.sample_aspect_ratio">0</property>
  <property name="kdenlive:original.meta.media.0.codec.colorspace">709</property>
  <property name="kdenlive:original.meta.media.0.codec.name">h264</property>
  <property name="kdenlive:original.meta.media.0.codec.long_name">H.264 / AVC / MPEG-4 AVC / MPEG-4 part 10</property>
  <property name="kdenlive:original.meta.media.0.codec.bit_rate">1779664</property>
  <property name="kdenlive:original.meta.attr.0.stream.handler_name.markup">VideoHandler</property>
  <property name="kdenlive:original.meta.attr.0.stream.vendor_id.markup">[0][0][0][0]</property>
  <property name="kdenlive:original.meta.attr.0.stream.encoder.markup">Lavc60.3.100 libx264</property>
  <property name="kdenlive:original.meta.attr.major_brand.markup">isom</property>
  <property name="kdenlive:original.meta.attr.minor_version.markup">512</property>
  <property name="kdenlive:original.meta.attr.compatible_brands.markup">isomiso2avc1mp41</property>
  <property name="kdenlive:original.meta.attr.encoder.markup">Lavf60.3.100</property>
  <property name="kdenlive:original.meta.attr.comment.markup">Rendered with Manim Community v0.17.2</property>
  <property name="kdenlive:original.seekable">1</property>
  <property name="kdenlive:original.width">3840</property>
  <property name="kdenlive:original.height">2160</property>
  <property name="kdenlive:original.meta.media.sample_aspect_num">1</property>
  <property name="kdenlive:original.meta.media.sample_aspect_den">1</property>
  <property name="kdenlive:original.aspect_ratio">1</property>
  <property name="kdenlive:original.format">3</property>
  <property name="kdenlive:original.audio_index">-1</property>
  <property name="kdenlive:original.video_index">0</property>
  <property name="kdenlive:original.mute_on_pause">0</property>
  <property name="kdenlive:original.mlt_service">avformat-novalidate</property>
  <property name="kdenlive:original.meta.media.frame_rate_num">60</property>
  <property name="kdenlive:original.meta.media.frame_rate_den">1</property>
  <property name="kdenlive:original.meta.media.colorspace">709</property>
  <property name="kdenlive:original.meta.media.color_trc">2</property>
  <property name="kdenlive:original.meta.media.has_b_frames">2</property>
  <property name="kdenlive:original.meta.media.width">3840</property>
  <property name="kdenlive:original.meta.media.height">2160</property>
  <property name="kdenlive:original.meta.media.color_range">mpeg</property>
  <property name="kdenlive:original.meta.media.top_field_first">0</property>
  <property name="kdenlive:original.meta.media.progressive">1</property>
  <property name="kdenlive:original.kdenlive:clip_type">2</property>
  <property name="kdenlive:original.kdenlive:folderid">631</property>
  <property name="kdenlive:original.kdenlive:id">637</property>
  <property name="kdenlive:original.kdenlive:file_size">223945</property>
  <property name="kdenlive:original.kdenlive:file_hash">92fb96fc256fb05ea7f54c028df3a9fe</property>
  <property name="kdenlive:original.backup">1</property>
  <property name="xml">was here</property>
  <property name="meta.media.frame_rate_num">60</property>
  <property name="meta.media.frame_rate_den">1</property>
  <property name="meta.media.colorspace">601</property>
  <property name="meta.media.color_trc">2</property>
  <property name="meta.media.has_b_frames">0</property>
  <property name="meta.media.width">640</property>
  <property name="meta.media.height">360</property>
  <property name="meta.media.color_range">full</property>
  <property name="meta.media.top_field_first">0</property>
  <property name="meta.media.progressive">1</property>
  <property name="set.test_audio">1</property>
  <property name="set.test_image">0</property>
 </producer>
 <producer id="producer525" in="00:00:00.000" out="00:00:00.983">
  <property name="length">60</property>
  <property name="eof">pause</property>
  <property name="resource">/home/xiaoxiae/.cache/kdenlive/proxy/5b4d168c0e59b9848aeae97c7e8c244b.mkv</property>
  <property name="audio_index">-1</property>
  <property name="video_index">0</property>
  <property name="mute_on_pause">0</property>
  <property name="mlt_service">avformat-novalidate</property>
  <property name="meta.media.nb_streams">1</property>
  <property name="meta.media.0.stream.type">video</property>
  <property name="meta.media.0.stream.frame_rate">60</property>
  <property name="meta.media.0.stream.sample_aspect_ratio">0</property>
  <property name="meta.media.0.codec.width">640</property>
  <property name="meta.media.0.codec.height">360</property>
  <property name="meta.media.0.codec.rotate">0</property>
  <property name="meta.media.0.codec.pix_fmt">yuvj420p</property>
  <property name="meta.media.0.codec.sample_aspect_ratio">0</property>
  <property name="meta.media.0.codec.colorspace">601</property>
  <property name="meta.media.0.codec.name">mjpeg</property>
  <property name="meta.media.0.codec.long_name">MJPEG (Motion JPEG)</property>
  <property name="meta.media.0.codec.bit_rate">0</property>
  <property name="meta.attr.0.stream.HANDLER_NAME.markup">VideoHandler</property>
  <property name="meta.attr.0.stream.VENDOR_ID.markup">[0][0][0][0]</property>
  <property name="meta.attr.0.stream.ENCODER.markup">Lavc60.3.100 mjpeg</property>
  <property name="meta.attr.0.stream.DURATION.markup">00:00:01.000000000</property>
  <property name="meta.attr.COMMENT.markup">Rendered with Manim Community v0.17.2</property>
  <property name="meta.attr.MAJOR_BRAND.markup">isom</property>
  <property name="meta.attr.MINOR_VERSION.markup">512</property>
  <property name="meta.attr.COMPATIBLE_BRANDS.markup">isomiso2avc1mp41</property>
  <property name="meta.attr.ENCODER.markup">Lavf60.3.100</property>
  <property name="seekable">1</property>
  <property name="meta.media.sample_aspect_num">1</property>
  <property name="meta.media.sample_aspect_den">1</property>
  <property name="aspect_ratio">1</property>
  <property name="format">3</property>
  <property name="kdenlive:clipname">4.mp4</property>
  <property name="kdenlive:clip_type">2</property>
  <property name="kdenlive:folderid">631</property>
  <property name="kdenlive:id">524</property>
  <property name="kdenlive:file_size">162380</property>
  <property name="kdenlive:file_hash">5b4d168c0e59b9848aeae97c7e8c244b</property>
  <property name="kdenlive:proxy">/home/xiaoxiae/.cache/kdenlive/proxy/5b4d168c0e59b9848aeae97c7e8c244b.mkv</property>
  <property name="kdenlive:originalurl">video/Fever/4.mp4</property>
  <property name="kdenlive:original.mlt_type">producer</property>
  <property name="kdenlive:original.in">0</property>
  <property name="kdenlive:original.out">59</property>
  <property name="kdenlive:original.length">60</property>
  <property name="kdenlive:original.eof">pause</property>
  <property name="kdenlive:original.resource">video/Fever/4.mp4</property>
  <property name="kdenlive:original.meta.media.nb_streams">1</property>
  <property name="kdenlive:original.meta.media.0.stream.type">video</property>
  <property name="kdenlive:original.meta.media.0.stream.frame_rate">60</property>
  <property name="kdenlive:original.meta.media.0.stream.sample_aspect_ratio">0</property>
  <property name="kdenlive:original.meta.media.0.codec.width">3840</property>
  <property name="kdenlive:original.meta.media.0.codec.height">2160</property>
  <property name="kdenlive:original.meta.media.0.codec.rotate">0</property>
  <property name="kdenlive:original.meta.media.0.codec.pix_fmt">yuv420p</property>
  <property name="kdenlive:original.meta.media.0.codec.sample_aspect_ratio">0</property>
  <property name="kdenlive:original.meta.media.0.codec.colorspace">709</property>
  <property name="kdenlive:original.meta.media.0.codec.name">h264</property>
  <property name="kdenlive:original.meta.media.0.codec.long_name">H.264 / AVC / MPEG-4 AVC / MPEG-4 part 10</property>
  <property name="kdenlive:original.meta.media.0.codec.bit_rate">1287528</property>
  <property name="kdenlive:original.meta.attr.0.stream.handler_name.markup">VideoHandler</property>
  <property name="kdenlive:original.meta.attr.0.stream.vendor_id.markup">[0][0][0][0]</property>
  <property name="kdenlive:original.meta.attr.0.stream.encoder.markup">Lavc60.3.100 libx264</property>
  <property name="kdenlive:original.meta.attr.major_brand.markup">isom</property>
  <property name="kdenlive:original.meta.attr.minor_version.markup">512</property>
  <property name="kdenlive:original.meta.attr.compatible_brands.markup">isomiso2avc1mp41</property>
  <property name="kdenlive:original.meta.attr.encoder.markup">Lavf60.3.100</property>
  <property name="kdenlive:original.meta.attr.comment.markup">Rendered with Manim Community v0.17.2</property>
  <property name="kdenlive:original.seekable">1</property>
  <property name="kdenlive:original.width">3840</property>
  <property name="kdenlive:original.height">2160</property>
  <property name="kdenlive:original.meta.media.sample_aspect_num">1</property>
  <property name="kdenlive:original.meta.media.sample_aspect_den">1</property>
  <property name="kdenlive:original.aspect_ratio">1</property>
  <property name="kdenlive:original.format">3</property>
  <property name="kdenlive:original.audio_index">-1</property>
  <property name="kdenlive:original.video_index">0</property>
  <property name="kdenlive:original.mute_on_pause">0</property>
  <property name="kdenlive:original.mlt_service">avformat-novalidate</property>
  <property name="kdenlive:original.meta.media.frame_rate_num">60</property>
  <property name="kdenlive:original.meta.media.frame_rate_den">1</property>
  <property name="kdenlive:original.meta.media.colorspace">709</property>
  <property name="kdenlive:original.meta.media.color_trc">2</property>
  <property name="kdenlive:original.meta.media.has_b_frames">2</property>
  <property name="kdenlive:original.meta.media.width">3840</property>
  <property name="kdenlive:original.meta.media.height">2160</property>
  <property name="kdenlive:original.meta.media.color_range">mpeg</property>
  <property name="kdenlive:original.meta.media.top_field_first">0</property>
  <property name="kdenlive:original.meta.media.progressive">1</property>
  <property name="kdenlive:original.kdenlive:clip_type">2</property>
  <property name="kdenlive:original.kdenlive:folderid">631</property>
  <property name="kdenlive:original.kdenlive:id">638</property>
  <property name="kdenlive:original.kdenlive:file_size">162380</property>
  <property name="kdenlive:original.kdenlive:file_hash">5b4d168c0e59b9848aeae97c7e8c244b</property>
  <property name="kdenlive:original.backup">1</property>
  <property name="xml">was here</property>
  <property name="meta.media.frame_rate_num">60</property>
  <property name="meta.media.frame_rate_den">1</property>
  <property name="meta.media.colorspace">601</property>
  <property name="meta.media.color_trc">2</property>
  <property name="meta.media.has_b_frames">0</property>
  <property name="meta.media.width">640</property>
  <property name="meta.media.height">360</property>
  <property name="meta.media.color_range">full</property>
  <property name="meta.media.top_field_first">0</property>
  <property name="meta.media.progressive">1</property>
  <property name="set.test_audio">1</property>
  <property name="set.test_image">0</property>
 </producer>
 <producer id="producer526" in="00:00:00.000" out="00:00:09.983">
  <property name="length">600</property>
  <property name="eof">pause</property>
  <property name="resource">0.100000:/home/xiaoxiae/.cache/kdenlive/proxy/59e22dbe11072c4915cfba872efe7a00.mkv</property>
  <property name="aspect_ratio">1</property>
  <property name="meta.media.nb_streams">1</property>
  <property name="meta.media.0.stream.type">video</property>
  <property name="meta.media.0.stream.frame_rate">60</property>
  <property name="meta.media.0.stream.sample_aspect_ratio">0</property>
  <property name="meta.media.0.codec.width">640</property>
  <property name="meta.media.0.codec.height">360</property>
  <property name="meta.media.0.codec.rotate">0</property>
  <property name="meta.media.0.codec.pix_fmt">yuvj420p</property>
  <property name="meta.media.0.codec.sample_aspect_ratio">0</property>
  <property name="meta.media.0.codec.colorspace">601</property>
  <property name="meta.media.0.codec.name">mjpeg</property>
  <property name="meta.media.0.codec.long_name">MJPEG (Motion JPEG)</property>
  <property name="meta.media.0.codec.bit_rate">0</property>
  <property name="meta.attr.0.stream.HANDLER_NAME.markup">VideoHandler</property>
  <property name="meta.attr.0.stream.VENDOR_ID.markup">[0][0][0][0]</property>
  <property name="meta.attr.0.stream.ENCODER.markup">Lavc60.3.100 mjpeg</property>
  <property name="meta.attr.0.stream.DURATION.markup">00:00:01.000000000</property>
  <property name="meta.attr.COMMENT.markup">Rendered with Manim Community v0.17.2</property>
  <property name="meta.attr.MAJOR_BRAND.markup">isom</property>
  <property name="meta.attr.MINOR_VERSION.markup">512</property>
  <property name="meta.attr.COMPATIBLE_BRANDS.markup">isomiso2avc1mp41</property>
  <property name="meta.attr.ENCODER.markup">Lavf60.3.100</property>
  <property name="seekable">1</property>
  <property name="meta.media.sample_aspect_num">1</property>
  <property name="meta.media.sample_aspect_den">1</property>
  <property name="format">3</property>
  <property name="audio_index">-1</property>
  <property name="video_index">0</property>
  <property name="mute_on_pause">1</property>
  <property name="warp_speed">0.1</property>
  <property name="warp_resource">/home/xiaoxiae/.cache/kdenlive/proxy/59e22dbe11072c4915cfba872efe7a00.mkv</property>
  <property name="mlt_service">timewarp</property>
  <property name="kdenlive:proxy">/home/xiaoxiae/.cache/kdenlive/proxy/59e22dbe11072c4915cfba872efe7a00.mkv</property>
  <property name="kdenlive:originalurl">video/Fever/5.mp4</property>
  <property name="set.test_audio">1</property>
  <property name="set.test_image">0</property>
  <property name="kdenlive:id">525</property>
  <property name="warp_pitch">0</property>
  <property name="meta.media.frame_rate_num">60</property>
  <property name="meta.media.frame_rate_den">1</property>
  <property name="meta.media.colorspace">601</property>
  <property name="meta.media.color_trc">2</property>
  <property name="meta.media.has_b_frames">0</property>
  <property name="meta.media.width">640</property>
  <property name="meta.media.height">360</property>
  <property name="meta.media.color_range">full</property>
  <property name="meta.media.top_field_first">0</property>
  <property name="meta.media.progressive">1</property>
 </producer>
 <producer id="producer527" in="00:00:00.000" out="00:00:01.483">
  <property name="length">90</property>
  <property name="eof">pause</property>
  <property name="resource">/home/xiaoxiae/.cache/kdenlive/proxy/4165b26fa8a417217043752bdd8e647b.mkv</property>
  <property name="audio_index">-1</property>
  <property name="video_index">0</property>
  <property name="mute_on_pause">0</property>
  <property name="mlt_service">avformat-novalidate</property>
  <property name="meta.media.nb_streams">1</property>
  <property name="meta.media.0.stream.type">video</property>
  <property name="meta.media.0.stream.frame_rate">60</property>
  <property name="meta.media.0.stream.sample_aspect_ratio">0</property>
  <property name="meta.media.0.codec.width">640</property>
  <property name="meta.media.0.codec.height">360</property>
  <property name="meta.media.0.codec.rotate">0</property>
  <property name="meta.media.0.codec.pix_fmt">yuvj420p</property>
  <property name="meta.media.0.codec.sample_aspect_ratio">0</property>
  <property name="meta.media.0.codec.colorspace">601</property>
  <property name="meta.media.0.codec.name">mjpeg</property>
  <property name="meta.media.0.codec.long_name">MJPEG (Motion JPEG)</property>
  <property name="meta.media.0.codec.bit_rate">0</property>
  <property name="meta.attr.0.stream.HANDLER_NAME.markup">VideoHandler</property>
  <property name="meta.attr.0.stream.VENDOR_ID.markup">[0][0][0][0]</property>
  <property name="meta.attr.0.stream.ENCODER.markup">Lavc60.3.100 mjpeg</property>
  <property name="meta.attr.0.stream.DURATION.markup">00:00:01.500000000</property>
  <property name="meta.attr.COMMENT.markup">Rendered with Manim Community v0.17.2</property>
  <property name="meta.attr.MAJOR_BRAND.markup">isom</property>
  <property name="meta.attr.MINOR_VERSION.markup">512</property>
  <property name="meta.attr.COMPATIBLE_BRANDS.markup">isomiso2avc1mp41</property>
  <property name="meta.attr.ENCODER.markup">Lavf60.3.100</property>
  <property name="seekable">1</property>
  <property name="meta.media.sample_aspect_num">1</property>
  <property name="meta.media.sample_aspect_den">1</property>
  <property name="aspect_ratio">1</property>
  <property name="format">3</property>
  <property name="kdenlive:clipname">6.mp4</property>
  <property name="kdenlive:clip_type">2</property>
  <property name="kdenlive:folderid">631</property>
  <property name="kdenlive:id">526</property>
  <property name="kdenlive:file_size">190562</property>
  <property name="kdenlive:file_hash">4165b26fa8a417217043752bdd8e647b</property>
  <property name="kdenlive:proxy">/home/xiaoxiae/.cache/kdenlive/proxy/4165b26fa8a417217043752bdd8e647b.mkv</property>
  <property name="kdenlive:originalurl">video/Fever/6.mp4</property>
  <property name="kdenlive:original.mlt_type">producer</property>
  <property name="kdenlive:original.in">0</property>
  <property name="kdenlive:original.out">89</property>
  <property name="kdenlive:original.length">90</property>
  <property name="kdenlive:original.eof">pause</property>
  <property name="kdenlive:original.resource">video/Fever/6.mp4</property>
  <property name="kdenlive:original.meta.media.nb_streams">1</property>
  <property name="kdenlive:original.meta.media.0.stream.type">video</property>
  <property name="kdenlive:original.meta.media.0.stream.frame_rate">60</property>
  <property name="kdenlive:original.meta.media.0.stream.sample_aspect_ratio">0</property>
  <property name="kdenlive:original.meta.media.0.codec.width">3840</property>
  <property name="kdenlive:original.meta.media.0.codec.height">2160</property>
  <property name="kdenlive:original.meta.media.0.codec.rotate">0</property>
  <property name="kdenlive:original.meta.media.0.codec.pix_fmt">yuv420p</property>
  <property name="kdenlive:original.meta.media.0.codec.sample_aspect_ratio">0</property>
  <property name="kdenlive:original.meta.media.0.codec.colorspace">709</property>
  <property name="kdenlive:original.meta.media.0.codec.name">h264</property>
  <property name="kdenlive:original.meta.media.0.codec.long_name">H.264 / AVC / MPEG-4 AVC / MPEG-4 part 10</property>
  <property name="kdenlive:original.meta.media.0.codec.bit_rate">1006010</property>
  <property name="kdenlive:original.meta.attr.0.stream.handler_name.markup">VideoHandler</property>
  <property name="kdenlive:original.meta.attr.0.stream.vendor_id.markup">[0][0][0][0]</property>
  <property name="kdenlive:original.meta.attr.0.stream.encoder.markup">Lavc60.3.100 libx264</property>
  <property name="kdenlive:original.meta.attr.major_brand.markup">isom</property>
  <property name="kdenlive:original.meta.attr.minor_version.markup">512</property>
  <property name="kdenlive:original.meta.attr.compatible_brands.markup">isomiso2avc1mp41</property>
  <property name="kdenlive:original.meta.attr.encoder.markup">Lavf60.3.100</property>
  <property name="kdenlive:original.meta.attr.comment.markup">Rendered with Manim Community v0.17.2</property>
  <property name="kdenlive:original.seekable">1</property>
  <property name="kdenlive:original.width">3840</property>
  <property name="kdenlive:original.height">2160</property>
  <property name="kdenlive:original.meta.media.sample_aspect_num">1</property>
  <property name="kdenlive:original.meta.media.sample_aspect_den">1</property>
  <property name="kdenlive:original.aspect_ratio">1</property>
  <property name="kdenlive:original.format">3</property>
  <property name="kdenlive:original.audio_index">-1</property>
  <property name="kdenlive:original.video_index">0</property>
  <property name="kdenlive:original.mute_on_pause">0</property>
  <property name="kdenlive:original.mlt_service">avformat-novalidate</property>
  <property name="kdenlive:original.meta.media.frame_rate_num">60</property>
  <property name="kdenlive:original.meta.media.frame_rate_den">1</property>
  <property name="kdenlive:original.meta.media.colorspace">709</property>
  <property name="kdenlive:original.meta.media.color_trc">2</property>
  <property name="kdenlive:original.meta.media.has_b_frames">2</property>
  <property name="kdenlive:original.meta.media.width">3840</property>
  <property name="kdenlive:original.meta.media.height">2160</property>
  <property name="kdenlive:original.meta.media.color_range">mpeg</property>
  <property name="kdenlive:original.meta.media.top_field_first">0</property>
  <property name="kdenlive:original.meta.media.progressive">1</property>
  <property name="kdenlive:original.kdenlive:clip_type">2</property>
  <property name="kdenlive:original.kdenlive:folderid">631</property>
  <property name="kdenlive:original.kdenlive:id">640</property>
  <property name="kdenlive:original.kdenlive:file_size">190562</property>
  <property name="kdenlive:original.kdenlive:file_hash">4165b26fa8a417217043752bdd8e647b</property>
  <property name="kdenlive:original.backup">1</property>
  <property name="xml">was here</property>
  <property name="meta.media.frame_rate_num">60</property>
  <property name="meta.media.frame_rate_den">1</property>
  <property name="meta.media.colorspace">601</property>
  <property name="meta.media.color_trc">2</property>
  <property name="meta.media.has_b_frames">0</property>
  <property name="meta.media.width">640</property>
  <property name="meta.media.height">360</property>
  <property name="meta.media.color_range">full</property>
  <property name="meta.media.top_field_first">0</property>
  <property name="meta.media.progressive">1</property>
  <property name="set.test_audio">1</property>
  <property name="set.test_image">0</property>
 </producer>
 <producer id="producer528" in="00:00:00.000" out="00:00:00.983">
  <property name="length">60</property>
  <property name="eof">pause</property>
  <property name="resource">/home/xiaoxiae/.cache/kdenlive/proxy/dd500a8f68a3efbff35f39ec6b161367.mkv</property>
  <property name="audio_index">-1</property>
  <property name="video_index">0</property>
  <property name="mute_on_pause">0</property>
  <property name="mlt_service">avformat-novalidate</property>
  <property name="meta.media.nb_streams">1</property>
  <property name="meta.media.0.stream.type">video</property>
  <property name="meta.media.0.stream.frame_rate">60</property>
  <property name="meta.media.0.stream.sample_aspect_ratio">0</property>
  <property name="meta.media.0.codec.width">640</property>
  <property name="meta.media.0.codec.height">360</property>
  <property name="meta.media.0.codec.rotate">0</property>
  <property name="meta.media.0.codec.pix_fmt">yuvj420p</property>
  <property name="meta.media.0.codec.sample_aspect_ratio">0</property>
  <property name="meta.media.0.codec.colorspace">601</property>
  <property name="meta.media.0.codec.name">mjpeg</property>
  <property name="meta.media.0.codec.long_name">MJPEG (Motion JPEG)</property>
  <property name="meta.media.0.codec.bit_rate">0</property>
  <property name="meta.attr.0.stream.HANDLER_NAME.markup">VideoHandler</property>
  <property name="meta.attr.0.stream.VENDOR_ID.markup">[0][0][0][0]</property>
  <property name="meta.attr.0.stream.ENCODER.markup">Lavc60.3.100 mjpeg</property>
  <property name="meta.attr.0.stream.DURATION.markup">00:00:01.000000000</property>
  <property name="meta.attr.COMMENT.markup">Rendered with Manim Community v0.17.2</property>
  <property name="meta.attr.MAJOR_BRAND.markup">isom</property>
  <property name="meta.attr.MINOR_VERSION.markup">512</property>
  <property name="meta.attr.COMPATIBLE_BRANDS.markup">isomiso2avc1mp41</property>
  <property name="meta.attr.ENCODER.markup">Lavf60.3.100</property>
  <property name="seekable">1</property>
  <property name="meta.media.sample_aspect_num">1</property>
  <property name="meta.media.sample_aspect_den">1</property>
  <property name="aspect_ratio">1</property>
  <property name="format">3</property>
  <property name="kdenlive:clipname">7.mp4</property>
  <property name="kdenlive:clip_type">2</property>
  <property name="kdenlive:folderid">631</property>
  <property name="kdenlive:id">527</property>
  <property name="kdenlive:file_size">357611</property>
  <property name="kdenlive:file_hash">dd500a8f68a3efbff35f39ec6b161367</property>
  <property name="kdenlive:proxy">/home/xiaoxiae/.cache/kdenlive/proxy/dd500a8f68a3efbff35f39ec6b161367.mkv</property>
  <property name="kdenlive:originalurl">video/Fever/7.mp4</property>
  <property name="kdenlive:original.mlt_type">producer</property>
  <property name="kdenlive:original.in">0</property>
  <property name="kdenlive:original.out">59</property>
  <property name="kdenlive:original.length">60</property>
  <property name="kdenlive:original.eof">pause</property>
  <property name="kdenlive:original.resource">video/Fever/7.mp4</property>
  <property name="kdenlive:original.meta.media.nb_streams">1</property>
  <property name="kdenlive:original.meta.media.0.stream.type">video</property>
  <property name="kdenlive:original.meta.media.0.stream.frame_rate">60</property>
  <property name="kdenlive:original.meta.media.0.stream.sample_aspect_ratio">0</property>
  <property name="kdenlive:original.meta.media.0.codec.width">3840</property>
  <property name="kdenlive:original.meta.media.0.codec.height">2160</property>
  <property name="kdenlive:original.meta.media.0.codec.rotate">0</property>
  <property name="kdenlive:original.meta.media.0.codec.pix_fmt">yuv420p</property>
  <property name="kdenlive:original.meta.media.0.codec.sample_aspect_ratio">0</property>
  <property name="kdenlive:original.meta.media.0.codec.colorspace">709</property>
  <property name="kdenlive:original.meta.media.0.codec.name">h264</property>
  <property name="kdenlive:original.meta.media.0.codec.long_name">H.264 / AVC / MPEG-4 AVC / MPEG-4 part 10</property>
  <property name="kdenlive:original.meta.media.0.codec.bit_rate">2848160</property>
  <property name="kdenlive:original.meta.attr.0.stream.handler_name.markup">VideoHandler</property>
  <property name="kdenlive:original.meta.attr.0.stream.vendor_id.markup">[0][0][0][0]</property>
  <property name="kdenlive:original.meta.attr.0.stream.encoder.markup">Lavc60.3.100 libx264</property>
  <property name="kdenlive:original.meta.attr.major_brand.markup">isom</property>
  <property name="kdenlive:original.meta.attr.minor_version.markup">512</property>
  <property name="kdenlive:original.meta.attr.compatible_brands.markup">isomiso2avc1mp41</property>
  <property name="kdenlive:original.meta.attr.encoder.markup">Lavf60.3.100</property>
  <property name="kdenlive:original.meta.attr.comment.markup">Rendered with Manim Community v0.17.2</property>
  <property name="kdenlive:original.seekable">1</property>
  <property name="kdenlive:original.width">3840</property>
  <property name="kdenlive:original.height">2160</property>
  <property name="kdenlive:original.meta.media.sample_aspect_num">1</property>
  <property name="kdenlive:original.meta.media.sample_aspect_den">1</property>
  <property name="kdenlive:original.aspect_ratio">1</property>
  <property name="kdenlive:original.format">3</property>
  <property name="kdenlive:original.audio_index">-1</property>
  <property name="kdenlive:original.video_index">0</property>
  <property name="kdenlive:original.mute_on_pause">0</property>
  <property name="kdenlive:original.mlt_service">avformat-novalidate</property>
  <property name="kdenlive:original.meta.media.frame_rate_num">60</property>
  <property name="kdenlive:original.meta.media.frame_rate_den">1</property>
  <property name="kdenlive:original.meta.media.colorspace">709</property>
  <property name="kdenlive:original.meta.media.color_trc">2</property>
  <property name="kdenlive:original.meta.media.has_b_frames">2</property>
  <property name="kdenlive:original.meta.media.width">3840</property>
  <property name="kdenlive:original.meta.media.height">2160</property>
  <property name="kdenlive:original.meta.media.color_range">mpeg</property>
  <property name="kdenlive:original.meta.media.top_field_first">0</property>
  <property name="kdenlive:original.meta.media.progressive">1</property>
  <property name="kdenlive:original.kdenlive:clip_type">2</property>
  <property name="kdenlive:original.kdenlive:folderid">631</property>
  <property name="kdenlive:original.kdenlive:id">641</property>
  <property name="kdenlive:original.kdenlive:file_size">357611</property>
  <property name="kdenlive:original.kdenlive:file_hash">dd500a8f68a3efbff35f39ec6b161367</property>
  <property name="kdenlive:original.backup">1</property>
  <property name="xml">was here</property>
  <property name="meta.media.frame_rate_num">60</property>
  <property name="meta.media.frame_rate_den">1</property>
  <property name="meta.media.colorspace">601</property>
  <property name="meta.media.color_trc">2</property>
  <property name="meta.media.has_b_frames">0</property>
  <property name="meta.media.width">640</property>
  <property name="meta.media.height">360</property>
  <property name="meta.media.color_range">full</property>
  <property name="meta.media.top_field_first">0</property>
  <property name="meta.media.progressive">1</property>
  <property name="set.test_audio">1</property>
  <property name="set.test_image">0</property>
 </producer>
 <producer id="producer529" in="00:00:00.000" out="00:00:00.317">
  <property name="length">20</property>
  <property name="eof">pause</property>
  <property name="resource">/home/xiaoxiae/.cache/kdenlive/proxy/94c11b2f81e7d0961af343179d54fc55.mkv</property>
  <property name="audio_index">-1</property>
  <property name="video_index">0</property>
  <property name="mute_on_pause">0</property>
  <property name="mlt_service">avformat-novalidate</property>
  <property name="meta.media.nb_streams">1</property>
  <property name="meta.media.0.stream.type">video</property>
  <property name="meta.media.0.stream.frame_rate">60</property>
  <property name="meta.media.0.stream.sample_aspect_ratio">0</property>
  <property name="meta.media.0.codec.width">640</property>
  <property name="meta.media.0.codec.height">360</property>
  <property name="meta.media.0.codec.rotate">0</property>
  <property name="meta.media.0.codec.pix_fmt">yuvj420p</property>
  <property name="meta.media.0.codec.sample_aspect_ratio">0</property>
  <property name="meta.media.0.codec.colorspace">601</property>
  <property name="meta.media.0.codec.name">mjpeg</property>
  <property name="meta.media.0.codec.long_name">MJPEG (Motion JPEG)</property>
  <property name="meta.media.0.codec.bit_rate">0</property>
  <property name="meta.attr.0.stream.HANDLER_NAME.markup">VideoHandler</property>
  <property name="meta.attr.0.stream.VENDOR_ID.markup">[0][0][0][0]</property>
  <property name="meta.attr.0.stream.ENCODER.markup">Lavc60.3.100 mjpeg</property>
  <property name="meta.attr.0.stream.DURATION.markup">00:00:00.334000000</property>
  <property name="meta.attr.COMMENT.markup">Rendered with Manim Community v0.17.2</property>
  <property name="meta.attr.MAJOR_BRAND.markup">isom</property>
  <property name="meta.attr.MINOR_VERSION.markup">512</property>
  <property name="meta.attr.COMPATIBLE_BRANDS.markup">isomiso2avc1mp41</property>
  <property name="meta.attr.ENCODER.markup">Lavf60.3.100</property>
  <property name="seekable">1</property>
  <property name="meta.media.sample_aspect_num">1</property>
  <property name="meta.media.sample_aspect_den">1</property>
  <property name="aspect_ratio">1</property>
  <property name="format">3</property>
  <property name="kdenlive:clipname">9.mp4</property>
  <property name="kdenlive:clip_type">2</property>
  <property name="kdenlive:folderid">631</property>
  <property name="kdenlive:id">530</property>
  <property name="kdenlive:file_size">56299</property>
  <property name="kdenlive:file_hash">94c11b2f81e7d0961af343179d54fc55</property>
  <property name="kdenlive:proxy">/home/xiaoxiae/.cache/kdenlive/proxy/94c11b2f81e7d0961af343179d54fc55.mkv</property>
  <property name="kdenlive:originalurl">video/Fever/9.mp4</property>
  <property name="kdenlive:original.mlt_type">producer</property>
  <property name="kdenlive:original.in">0</property>
  <property name="kdenlive:original.out">19</property>
  <property name="kdenlive:original.length">20</property>
  <property name="kdenlive:original.eof">pause</property>
  <property name="kdenlive:original.resource">video/Fever/9.mp4</property>
  <property name="kdenlive:original.meta.media.nb_streams">1</property>
  <property name="kdenlive:original.meta.media.0.stream.type">video</property>
  <property name="kdenlive:original.meta.media.0.stream.frame_rate">60</property>
  <property name="kdenlive:original.meta.media.0.stream.sample_aspect_ratio">0</property>
  <property name="kdenlive:original.meta.media.0.codec.width">3840</property>
  <property name="kdenlive:original.meta.media.0.codec.height">2160</property>
  <property name="kdenlive:original.meta.media.0.codec.rotate">0</property>
  <property name="kdenlive:original.meta.media.0.codec.pix_fmt">yuv420p</property>
  <property name="kdenlive:original.meta.media.0.codec.sample_aspect_ratio">0</property>
  <property name="kdenlive:original.meta.media.0.codec.colorspace">709</property>
  <property name="kdenlive:original.meta.media.0.codec.name">h264</property>
  <property name="kdenlive:original.meta.media.0.codec.long_name">H.264 / AVC / MPEG-4 AVC / MPEG-4 part 10</property>
  <property name="kdenlive:original.meta.media.0.codec.bit_rate">1323552</property>
  <property name="kdenlive:original.meta.attr.0.stream.handler_name.markup">VideoHandler</property>
  <property name="kdenlive:original.meta.attr.0.stream.vendor_id.markup">[0][0][0][0]</property>
  <property name="kdenlive:original.meta.attr.0.stream.encoder.markup">Lavc60.3.100 libx264</property>
  <property name="kdenlive:original.meta.attr.major_brand.markup">isom</property>
  <property name="kdenlive:original.meta.attr.minor_version.markup">512</property>
  <property name="kdenlive:original.meta.attr.compatible_brands.markup">isomiso2avc1mp41</property>
  <property name="kdenlive:original.meta.attr.encoder.markup">Lavf60.3.100</property>
  <property name="kdenlive:original.meta.attr.comment.markup">Rendered with Manim Community v0.17.2</property>
  <property name="kdenlive:original.seekable">1</property>
  <property name="kdenlive:original.width">3840</property>
  <property name="kdenlive:original.height">2160</property>
  <property name="kdenlive:original.meta.media.sample_aspect_num">1</property>
  <property name="kdenlive:original.meta.media.sample_aspect_den">1</property>
  <property name="kdenlive:original.aspect_ratio">1</property>
  <property name="kdenlive:original.format">3</property>
  <property name="kdenlive:original.audio_index">-1</property>
  <property name="kdenlive:original.video_index">0</property>
  <property name="kdenlive:original.mute_on_pause">0</property>
  <property name="kdenlive:original.mlt_service">avformat-novalidate</property>
  <property name="kdenlive:original.meta.media.frame_rate_num">60</property>
  <property name="kdenlive:original.meta.media.frame_rate_den">1</property>
  <property name="kdenlive:original.meta.media.colorspace">709</property>
  <property name="kdenlive:original.meta.media.color_trc">2</property>
  <property name="kdenlive:original.meta.media.has_b_frames">2</property>
  <property name="kdenlive:original.meta.media.width">3840</property>
  <property name="kdenlive:original.meta.media.height">2160</property>
  <property name="kdenlive:original.meta.media.color_range">mpeg</property>
  <property name="kdenlive:original.meta.media.top_field_first">0</property>
  <property name="kdenlive:original.meta.media.progressive">1</property>
  <property name="kdenlive:original.kdenlive:clip_type">2</property>
  <property name="kdenlive:original.kdenlive:folderid">631</property>
  <property name="kdenlive:original.kdenlive:id">643</property>
  <property name="kdenlive:original.kdenlive:file_size">56299</property>
  <property name="kdenlive:original.kdenlive:file_hash">94c11b2f81e7d0961af343179d54fc55</property>
  <property name="kdenlive:original.backup">1</property>
  <property name="xml">was here</property>
  <property name="meta.media.frame_rate_num">60</property>
  <property name="meta.media.frame_rate_den">1</property>
  <property name="meta.media.colorspace">601</property>
  <property name="meta.media.color_trc">2</property>
  <property name="meta.media.has_b_frames">0</property>
  <property name="meta.media.width">640</property>
  <property name="meta.media.height">360</property>
  <property name="meta.media.color_range">full</property>
  <property name="meta.media.top_field_first">0</property>
  <property name="meta.media.progressive">1</property>
  <property name="set.test_audio">1</property>
  <property name="set.test_image">0</property>
 </producer>
 <producer id="producer530" in="00:00:00.000" out="00:00:00.983">
  <property name="length">60</property>
  <property name="eof">pause</property>
  <property name="resource">/home/xiaoxiae/.cache/kdenlive/proxy/e54b7a0722cde715ffdef3abad04ee16.mkv</property>
  <property name="audio_index">-1</property>
  <property name="video_index">0</property>
  <property name="mute_on_pause">0</property>
  <property name="mlt_service">avformat-novalidate</property>
  <property name="meta.media.nb_streams">1</property>
  <property name="meta.media.0.stream.type">video</property>
  <property name="meta.media.0.stream.frame_rate">60</property>
  <property name="meta.media.0.stream.sample_aspect_ratio">0</property>
  <property name="meta.media.0.codec.width">640</property>
  <property name="meta.media.0.codec.height">360</property>
  <property name="meta.media.0.codec.rotate">0</property>
  <property name="meta.media.0.codec.pix_fmt">yuvj420p</property>
  <property name="meta.media.0.codec.sample_aspect_ratio">0</property>
  <property name="meta.media.0.codec.colorspace">601</property>
  <property name="meta.media.0.codec.name">mjpeg</property>
  <property name="meta.media.0.codec.long_name">MJPEG (Motion JPEG)</property>
  <property name="meta.media.0.codec.bit_rate">0</property>
  <property name="meta.attr.0.stream.HANDLER_NAME.markup">VideoHandler</property>
  <property name="meta.attr.0.stream.VENDOR_ID.markup">[0][0][0][0]</property>
  <property name="meta.attr.0.stream.ENCODER.markup">Lavc60.3.100 mjpeg</property>
  <property name="meta.attr.0.stream.DURATION.markup">00:00:01.000000000</property>
  <property name="meta.attr.COMMENT.markup">Rendered with Manim Community v0.17.2</property>
  <property name="meta.attr.MAJOR_BRAND.markup">isom</property>
  <property name="meta.attr.MINOR_VERSION.markup">512</property>
  <property name="meta.attr.COMPATIBLE_BRANDS.markup">isomiso2avc1mp41</property>
  <property name="meta.attr.ENCODER.markup">Lavf60.3.100</property>
  <property name="seekable">1</property>
  <property name="meta.media.sample_aspect_num">1</property>
  <property name="meta.media.sample_aspect_den">1</property>
  <property name="aspect_ratio">1</property>
  <property name="format">3</property>
  <property name="kdenlive:clipname">10.mp4</property>
  <property name="kdenlive:clip_type">2</property>
  <property name="kdenlive:folderid">631</property>
  <property name="kdenlive:id">519</property>
  <property name="kdenlive:file_size">94847</property>
  <property name="kdenlive:file_hash">e54b7a0722cde715ffdef3abad04ee16</property>
  <property name="kdenlive:proxy">/home/xiaoxiae/.cache/kdenlive/proxy/e54b7a0722cde715ffdef3abad04ee16.mkv</property>
  <property name="kdenlive:originalurl">video/Fever/10.mp4</property>
  <property name="kdenlive:original.mlt_type">producer</property>
  <property name="kdenlive:original.in">0</property>
  <property name="kdenlive:original.out">59</property>
  <property name="kdenlive:original.length">60</property>
  <property name="kdenlive:original.eof">pause</property>
  <property name="kdenlive:original.resource">video/Fever/10.mp4</property>
  <property name="kdenlive:original.meta.media.nb_streams">1</property>
  <property name="kdenlive:original.meta.media.0.stream.type">video</property>
  <property name="kdenlive:original.meta.media.0.stream.frame_rate">60</property>
  <property name="kdenlive:original.meta.media.0.stream.sample_aspect_ratio">0</property>
  <property name="kdenlive:original.meta.media.0.codec.width">3840</property>
  <property name="kdenlive:original.meta.media.0.codec.height">2160</property>
  <property name="kdenlive:original.meta.media.0.codec.rotate">0</property>
  <property name="kdenlive:original.meta.media.0.codec.pix_fmt">yuv420p</property>
  <property name="kdenlive:original.meta.media.0.codec.sample_aspect_ratio">0</property>
  <property name="kdenlive:original.meta.media.0.codec.colorspace">709</property>
  <property name="kdenlive:original.meta.media.0.codec.name">h264</property>
  <property name="kdenlive:original.meta.media.0.codec.long_name">H.264 / AVC / MPEG-4 AVC / MPEG-4 part 10</property>
  <property name="kdenlive:original.meta.media.0.codec.bit_rate">745728</property>
  <property name="kdenlive:original.meta.attr.0.stream.handler_name.markup">VideoHandler</property>
  <property name="kdenlive:original.meta.attr.0.stream.vendor_id.markup">[0][0][0][0]</property>
  <property name="kdenlive:original.meta.attr.0.stream.encoder.markup">Lavc60.3.100 libx264</property>
  <property name="kdenlive:original.meta.attr.major_brand.markup">isom</property>
  <property name="kdenlive:original.meta.attr.minor_version.markup">512</property>
  <property name="kdenlive:original.meta.attr.compatible_brands.markup">isomiso2avc1mp41</property>
  <property name="kdenlive:original.meta.attr.encoder.markup">Lavf60.3.100</property>
  <property name="kdenlive:original.meta.attr.comment.markup">Rendered with Manim Community v0.17.2</property>
  <property name="kdenlive:original.seekable">1</property>
  <property name="kdenlive:original.width">3840</property>
  <property name="kdenlive:original.height">2160</property>
  <property name="kdenlive:original.meta.media.sample_aspect_num">1</property>
  <property name="kdenlive:original.meta.media.sample_aspect_den">1</property>
  <property name="kdenlive:original.aspect_ratio">1</property>
  <property name="kdenlive:original.format">3</property>
  <property name="kdenlive:original.audio_index">-1</property>
  <property name="kdenlive:original.video_index">0</property>
  <property name="kdenlive:original.mute_on_pause">0</property>
  <property name="kdenlive:original.mlt_service">avformat-novalidate</property>
  <property name="kdenlive:original.meta.media.frame_rate_num">60</property>
  <property name="kdenlive:original.meta.media.frame_rate_den">1</property>
  <property name="kdenlive:original.meta.media.colorspace">709</property>
  <property name="kdenlive:original.meta.media.color_trc">2</property>
  <property name="kdenlive:original.meta.media.has_b_frames">2</property>
  <property name="kdenlive:original.meta.media.width">3840</property>
  <property name="kdenlive:original.meta.media.height">2160</property>
  <property name="kdenlive:original.meta.media.color_range">mpeg</property>
  <property name="kdenlive:original.meta.media.top_field_first">0</property>
  <property name="kdenlive:original.meta.media.progressive">1</property>
  <property name="kdenlive:original.kdenlive:clip_type">2</property>
  <property name="kdenlive:original.kdenlive:folderid">631</property>
  <property name="kdenlive:original.kdenlive:id">633</property>
  <property name="kdenlive:original.kdenlive:file_size">94847</property>
  <property name="kdenlive:original.kdenlive:file_hash">e54b7a0722cde715ffdef3abad04ee16</property>
  <property name="kdenlive:original.backup">1</property>
  <property name="xml">was here</property>
  <property name="meta.media.frame_rate_num">60</property>
  <property name="meta.media.frame_rate_den">1</property>
  <property name="meta.media.colorspace">601</property>
  <property name="meta.media.color_trc">2</property>
  <property name="meta.media.has_b_frames">0</property>
  <property name="meta.media.width">640</property>
  <property name="meta.media.height">360</property>
  <property name="meta.media.color_range">full</property>
  <property name="meta.media.top_field_first">0</property>
  <property name="meta.media.progressive">1</property>
  <property name="set.test_audio">1</property>
  <property name="set.test_image">0</property>
 </producer>
 <producer id="producer531" in="00:00:00.000" out="00:00:00.983">
  <property name="length">60</property>
  <property name="eof">pause</property>
  <property name="resource">/home/xiaoxiae/.cache/kdenlive/proxy/b7f97e74ea718a8a3ebe096cef6cbc96.mkv</property>
  <property name="audio_index">-1</property>
  <property name="video_index">0</property>
  <property name="mute_on_pause">0</property>
  <property name="mlt_service">avformat-novalidate</property>
  <property name="meta.media.nb_streams">1</property>
  <property name="meta.media.0.stream.type">video</property>
  <property name="meta.media.0.stream.frame_rate">60</property>
  <property name="meta.media.0.stream.sample_aspect_ratio">0</property>
  <property name="meta.media.0.codec.width">640</property>
  <property name="meta.media.0.codec.height">360</property>
  <property name="meta.media.0.codec.rotate">0</property>
  <property name="meta.media.0.codec.pix_fmt">yuvj420p</property>
  <property name="meta.media.0.codec.sample_aspect_ratio">0</property>
  <property name="meta.media.0.codec.colorspace">601</property>
  <property name="meta.media.0.codec.name">mjpeg</property>
  <property name="meta.media.0.codec.long_name">MJPEG (Motion JPEG)</property>
  <property name="meta.media.0.codec.bit_rate">0</property>
  <property name="meta.attr.0.stream.HANDLER_NAME.markup">VideoHandler</property>
  <property name="meta.attr.0.stream.VENDOR_ID.markup">[0][0][0][0]</property>
  <property name="meta.attr.0.stream.ENCODER.markup">Lavc60.3.100 mjpeg</property>
  <property name="meta.attr.0.stream.DURATION.markup">00:00:01.000000000</property>
  <property name="meta.attr.COMMENT.markup">Rendered with Manim Community v0.17.2</property>
  <property name="meta.attr.MAJOR_BRAND.markup">isom</property>
  <property name="meta.attr.MINOR_VERSION.markup">512</property>
  <property name="meta.attr.COMPATIBLE_BRANDS.markup">isomiso2avc1mp41</property>
  <property name="meta.attr.ENCODER.markup">Lavf60.3.100</property>
  <property name="seekable">1</property>
  <property name="meta.media.sample_aspect_num">1</property>
  <property name="meta.media.sample_aspect_den">1</property>
  <property name="aspect_ratio">1</property>
  <property name="format">3</property>
  <property name="kdenlive:clipname">11.mp4</property>
  <property name="kdenlive:clip_type">2</property>
  <property name="kdenlive:folderid">631</property>
  <property name="kdenlive:id">520</property>
  <property name="kdenlive:file_size">285795</property>
  <property name="kdenlive:file_hash">b7f97e74ea718a8a3ebe096cef6cbc96</property>
  <property name="kdenlive:proxy">/home/xiaoxiae/.cache/kdenlive/proxy/b7f97e74ea718a8a3ebe096cef6cbc96.mkv</property>
  <property name="kdenlive:originalurl">video/Fever/11.mp4</property>
  <property name="kdenlive:original.mlt_type">producer</property>
  <property name="kdenlive:original.in">0</property>
  <property name="kdenlive:original.out">59</property>
  <property name="kdenlive:original.length">60</property>
  <property name="kdenlive:original.eof">pause</property>
  <property name="kdenlive:original.resource">video/Fever/11.mp4</property>
  <property name="kdenlive:original.meta.media.nb_streams">1</property>
  <property name="kdenlive:original.meta.media.0.stream.type">video</property>
  <property name="kdenlive:original.meta.media.0.stream.frame_rate">60</property>
  <property name="kdenlive:original.meta.media.0.stream.sample_aspect_ratio">0</property>
  <property name="kdenlive:original.meta.media.0.codec.width">3840</property>
  <property name="kdenlive:original.meta.media.0.codec.height">2160</property>
  <property name="kdenlive:original.meta.media.0.codec.rotate">0</property>
  <property name="kdenlive:original.meta.media.0.codec.pix_fmt">yuv420p</property>
  <property name="kdenlive:original.meta.media.0.codec.sample_aspect_ratio">0</property>
  <property name="kdenlive:original.meta.media.0.codec.colorspace">709</property>
  <property name="kdenlive:original.meta.media.0.codec.name">h264</property>
  <property name="kdenlive:original.meta.media.0.codec.long_name">H.264 / AVC / MPEG-4 AVC / MPEG-4 part 10</property>
  <property name="kdenlive:original.meta.media.0.codec.bit_rate">2273376</property>
  <property name="kdenlive:original.meta.attr.0.stream.handler_name.markup">VideoHandler</property>
  <property name="kdenlive:original.meta.attr.0.stream.vendor_id.markup">[0][0][0][0]</property>
  <property name="kdenlive:original.meta.attr.0.stream.encoder.markup">Lavc60.3.100 libx264</property>
  <property name="kdenlive:original.meta.attr.major_brand.markup">isom</property>
  <property name="kdenlive:original.meta.attr.minor_version.markup">512</property>
  <property name="kdenlive:original.meta.attr.compatible_brands.markup">isomiso2avc1mp41</property>
  <property name="kdenlive:original.meta.attr.encoder.markup">Lavf60.3.100</property>
  <property name="kdenlive:original.meta.attr.comment.markup">Rendered with Manim Community v0.17.2</property>
  <property name="kdenlive:original.seekable">1</property>
  <property name="kdenlive:original.width">3840</property>
  <property name="kdenlive:original.height">2160</property>
  <property name="kdenlive:original.meta.media.sample_aspect_num">1</property>
  <property name="kdenlive:original.meta.media.sample_aspect_den">1</property>
  <property name="kdenlive:original.aspect_ratio">1</property>
  <property name="kdenlive:original.format">3</property>
  <property name="kdenlive:original.audio_index">-1</property>
  <property name="kdenlive:original.video_index">0</property>
  <property name="kdenlive:original.mute_on_pause">0</property>
  <property name="kdenlive:original.mlt_service">avformat-novalidate</property>
  <property name="kdenlive:original.meta.media.frame_rate_num">60</property>
  <property name="kdenlive:original.meta.media.frame_rate_den">1</property>
  <property name="kdenlive:original.meta.media.colorspace">709</property>
  <property name="kdenlive:original.meta.media.color_trc">2</property>
  <property name="kdenlive:original.meta.media.has_b_frames">2</property>
  <property name="kdenlive:original.meta.media.width">3840</property>
  <property name="kdenlive:original.meta.media.height">2160</property>
  <property name="kdenlive:original.meta.media.color_range">mpeg</property>
  <property name="kdenlive:original.meta.media.top_field_first">0</property>
  <property name="kdenlive:original.meta.media.progressive">1</property>
  <property name="kdenlive:original.kdenlive:clip_type">2</property>
  <property name="kdenlive:original.kdenlive:folderid">631</property>
  <property name="kdenlive:original.kdenlive:id">634</property>
  <property name="kdenlive:original.kdenlive:file_size">285795</property>
  <property name="kdenlive:original.kdenlive:file_hash">b7f97e74ea718a8a3ebe096cef6cbc96</property>
  <property name="kdenlive:original.backup">1</property>
  <property name="xml">was here</property>
  <property name="meta.media.frame_rate_num">60</property>
  <property name="meta.media.frame_rate_den">1</property>
  <property name="meta.media.colorspace">601</property>
  <property name="meta.media.color_trc">2</property>
  <property name="meta.media.has_b_frames">0</property>
  <property name="meta.media.width">640</property>
  <property name="meta.media.height">360</property>
  <property name="meta.media.color_range">full</property>
  <property name="meta.media.top_field_first">0</property>
  <property name="meta.media.progressive">1</property>
  <property name="set.test_audio">1</property>
  <property name="set.test_image">0</property>
 </producer>
 <producer id="producer532" in="00:00:00.000" out="00:00:01.983">
  <property name="length">120</property>
  <property name="eof">pause</property>
  <property name="resource">/home/xiaoxiae/.cache/kdenlive/proxy/8b92cccf3f4d0214bd7f158dcbd21ae1.mkv</property>
  <property name="audio_index">-1</property>
  <property name="video_index">0</property>
  <property name="mute_on_pause">0</property>
  <property name="mlt_service">avformat-novalidate</property>
  <property name="meta.media.nb_streams">1</property>
  <property name="meta.media.0.stream.type">video</property>
  <property name="meta.media.0.stream.frame_rate">60</property>
  <property name="meta.media.0.stream.sample_aspect_ratio">0</property>
  <property name="meta.media.0.codec.width">640</property>
  <property name="meta.media.0.codec.height">360</property>
  <property name="meta.media.0.codec.rotate">0</property>
  <property name="meta.media.0.codec.pix_fmt">yuvj420p</property>
  <property name="meta.media.0.codec.sample_aspect_ratio">0</property>
  <property name="meta.media.0.codec.colorspace">601</property>
  <property name="meta.media.0.codec.name">mjpeg</property>
  <property name="meta.media.0.codec.long_name">MJPEG (Motion JPEG)</property>
  <property name="meta.media.0.codec.bit_rate">0</property>
  <property name="meta.attr.0.stream.HANDLER_NAME.markup">VideoHandler</property>
  <property name="meta.attr.0.stream.VENDOR_ID.markup">[0][0][0][0]</property>
  <property name="meta.attr.0.stream.ENCODER.markup">Lavc60.3.100 mjpeg</property>
  <property name="meta.attr.0.stream.DURATION.markup">00:00:02.000000000</property>
  <property name="meta.attr.COMMENT.markup">Rendered with Manim Community v0.17.2</property>
  <property name="meta.attr.MAJOR_BRAND.markup">isom</property>
  <property name="meta.attr.MINOR_VERSION.markup">512</property>
  <property name="meta.attr.COMPATIBLE_BRANDS.markup">isomiso2avc1mp41</property>
  <property name="meta.attr.ENCODER.markup">Lavf60.3.100</property>
  <property name="seekable">1</property>
  <property name="meta.media.sample_aspect_num">1</property>
  <property name="meta.media.sample_aspect_den">1</property>
  <property name="aspect_ratio">1</property>
  <property name="format">3</property>
  <property name="kdenlive:clipname">1.mp4</property>
  <property name="kdenlive:clip_type">2</property>
  <property name="kdenlive:folderid">528</property>
  <property name="kdenlive:id">419</property>
  <property name="kdenlive:file_size">189459</property>
  <property name="kdenlive:file_hash">8b92cccf3f4d0214bd7f158dcbd21ae1</property>
  <property name="kdenlive:proxy">/home/xiaoxiae/.cache/kdenlive/proxy/8b92cccf3f4d0214bd7f158dcbd21ae1.mkv</property>
  <property name="kdenlive:originalurl">video/Intro/1.mp4</property>
  <property name="kdenlive:original.mlt_type">producer</property>
  <property name="kdenlive:original.in">00:00:00.000</property>
  <property name="kdenlive:original.out">00:00:01.983</property>
  <property name="kdenlive:original.length">120</property>
  <property name="kdenlive:original.eof">pause</property>
  <property name="kdenlive:original.resource">video/Intro/1.mp4</property>
  <property name="kdenlive:original.meta.media.nb_streams">1</property>
  <property name="kdenlive:original.meta.media.0.stream.type">video</property>
  <property name="kdenlive:original.meta.media.0.stream.frame_rate">60</property>
  <property name="kdenlive:original.meta.media.0.stream.sample_aspect_ratio">0</property>
  <property name="kdenlive:original.meta.media.0.codec.width">3840</property>
  <property name="kdenlive:original.meta.media.0.codec.height">2160</property>
  <property name="kdenlive:original.meta.media.0.codec.rotate">0</property>
  <property name="kdenlive:original.meta.media.0.codec.pix_fmt">yuv420p</property>
  <property name="kdenlive:original.meta.media.0.codec.sample_aspect_ratio">0</property>
  <property name="kdenlive:original.meta.media.0.codec.colorspace">709</property>
  <property name="kdenlive:original.meta.media.0.codec.name">h264</property>
  <property name="kdenlive:original.meta.media.0.codec.long_name">H.264 / AVC / MPEG-4 AVC / MPEG-4 part 10</property>
  <property name="kdenlive:original.meta.media.0.codec.bit_rate">748400</property>
  <property name="kdenlive:original.meta.attr.0.stream.handler_name.markup">VideoHandler</property>
  <property name="kdenlive:original.meta.attr.0.stream.vendor_id.markup">[0][0][0][0]</property>
  <property name="kdenlive:original.meta.attr.0.stream.encoder.markup">Lavc60.3.100 libx264</property>
  <property name="kdenlive:original.meta.attr.major_brand.markup">isom</property>
  <property name="kdenlive:original.meta.attr.minor_version.markup">512</property>
  <property name="kdenlive:original.meta.attr.compatible_brands.markup">isomiso2avc1mp41</property>
  <property name="kdenlive:original.meta.attr.encoder.markup">Lavf60.3.100</property>
  <property name="kdenlive:original.meta.attr.comment.markup">Rendered with Manim Community v0.17.2</property>
  <property name="kdenlive:original.seekable">1</property>
  <property name="kdenlive:original.width">3840</property>
  <property name="kdenlive:original.height">2160</property>
  <property name="kdenlive:original.meta.media.sample_aspect_num">1</property>
  <property name="kdenlive:original.meta.media.sample_aspect_den">1</property>
  <property name="kdenlive:original.aspect_ratio">1</property>
  <property name="kdenlive:original.format">3</property>
  <property name="kdenlive:original.audio_index">-1</property>
  <property name="kdenlive:original.video_index">0</property>
  <property name="kdenlive:original.mute_on_pause">0</property>
  <property name="kdenlive:original.mlt_service">avformat-novalidate</property>
  <property name="kdenlive:original.meta.media.frame_rate_num">60</property>
  <property name="kdenlive:original.meta.media.frame_rate_den">1</property>
  <property name="kdenlive:original.meta.media.colorspace">709</property>
  <property name="kdenlive:original.meta.media.color_trc">2</property>
  <property name="kdenlive:original.meta.media.has_b_frames">2</property>
  <property name="kdenlive:original.meta.media.width">3840</property>
  <property name="kdenlive:original.meta.media.height">2160</property>
  <property name="kdenlive:original.meta.media.color_range">mpeg</property>
  <property name="kdenlive:original.meta.media.top_field_first">0</property>
  <property name="kdenlive:original.meta.media.progressive">1</property>
  <property name="kdenlive:original.kdenlive:clip_type">2</property>
  <property name="kdenlive:original.kdenlive:folderid">528</property>
  <property name="kdenlive:original.kdenlive:id">529</property>
  <property name="kdenlive:original.kdenlive:file_size">189459</property>
  <property name="kdenlive:original.kdenlive:file_hash">8b92cccf3f4d0214bd7f158dcbd21ae1</property>
  <property name="kdenlive:original.backup">1</property>
  <property name="xml">was here</property>
  <property name="meta.media.frame_rate_num">60</property>
  <property name="meta.media.frame_rate_den">1</property>
  <property name="meta.media.colorspace">601</property>
  <property name="meta.media.color_trc">2</property>
  <property name="meta.media.has_b_frames">0</property>
  <property name="meta.media.width">640</property>
  <property name="meta.media.height">360</property>
  <property name="meta.media.color_range">full</property>
  <property name="meta.media.top_field_first">0</property>
  <property name="meta.media.progressive">1</property>
  <property name="set.test_audio">1</property>
  <property name="set.test_image">0</property>
 </producer>
 <producer id="producer533" in="00:00:00.000" out="00:00:01.483">
  <property name="length">90</property>
  <property name="eof">pause</property>
  <property name="resource">/home/xiaoxiae/.cache/kdenlive/proxy/7e109612d249e63bc8a5528b4c1371c1.mkv</property>
  <property name="audio_index">-1</property>
  <property name="video_index">0</property>
  <property name="mute_on_pause">0</property>
  <property name="mlt_service">avformat-novalidate</property>
  <property name="meta.media.nb_streams">1</property>
  <property name="meta.media.0.stream.type">video</property>
  <property name="meta.media.0.stream.frame_rate">60</property>
  <property name="meta.media.0.stream.sample_aspect_ratio">0</property>
  <property name="meta.media.0.codec.width">640</property>
  <property name="meta.media.0.codec.height">360</property>
  <property name="meta.media.0.codec.rotate">0</property>
  <property name="meta.media.0.codec.pix_fmt">yuvj420p</property>
  <property name="meta.media.0.codec.sample_aspect_ratio">0</property>
  <property name="meta.media.0.codec.colorspace">601</property>
  <property name="meta.media.0.codec.name">mjpeg</property>
  <property name="meta.media.0.codec.long_name">MJPEG (Motion JPEG)</property>
  <property name="meta.media.0.codec.bit_rate">0</property>
  <property name="meta.attr.0.stream.HANDLER_NAME.markup">VideoHandler</property>
  <property name="meta.attr.0.stream.VENDOR_ID.markup">[0][0][0][0]</property>
  <property name="meta.attr.0.stream.ENCODER.markup">Lavc60.3.100 mjpeg</property>
  <property name="meta.attr.0.stream.DURATION.markup">00:00:01.500000000</property>
  <property name="meta.attr.COMMENT.markup">Rendered with Manim Community v0.17.2</property>
  <property name="meta.attr.MAJOR_BRAND.markup">isom</property>
  <property name="meta.attr.MINOR_VERSION.markup">512</property>
  <property name="meta.attr.COMPATIBLE_BRANDS.markup">isomiso2avc1mp41</property>
  <property name="meta.attr.ENCODER.markup">Lavf60.3.100</property>
  <property name="seekable">1</property>
  <property name="meta.media.sample_aspect_num">1</property>
  <property name="meta.media.sample_aspect_den">1</property>
  <property name="aspect_ratio">1</property>
  <property name="format">3</property>
  <property name="kdenlive:clipname">2.mp4</property>
  <property name="kdenlive:clip_type">2</property>
  <property name="kdenlive:folderid">528</property>
  <property name="kdenlive:id">430</property>
  <property name="kdenlive:file_size">512115</property>
  <property name="kdenlive:file_hash">7e109612d249e63bc8a5528b4c1371c1</property>
  <property name="kdenlive:proxy">/home/xiaoxiae/.cache/kdenlive/proxy/7e109612d249e63bc8a5528b4c1371c1.mkv</property>
  <property name="kdenlive:originalurl">video/Intro/2.mp4</property>
  <property name="kdenlive:original.mlt_type">producer</property>
  <property name="kdenlive:original.in">00:00:00.000</property>
  <property name="kdenlive:original.out">00:00:01.483</property>
  <property name="kdenlive:original.length">90</property>
  <property name="kdenlive:original.eof">pause</property>
  <property name="kdenlive:original.resource">video/Intro/2.mp4</property>
  <property name="kdenlive:original.meta.media.nb_streams">1</property>
  <property name="kdenlive:original.meta.media.0.stream.type">video</property>
  <property name="kdenlive:original.meta.media.0.stream.frame_rate">60</property>
  <property name="kdenlive:original.meta.media.0.stream.sample_aspect_ratio">0</property>
  <property name="kdenlive:original.meta.media.0.codec.width">3840</property>
  <property name="kdenlive:original.meta.media.0.codec.height">2160</property>
  <property name="kdenlive:original.meta.media.0.codec.rotate">0</property>
  <property name="kdenlive:original.meta.media.0.codec.pix_fmt">yuv420p</property>
  <property name="kdenlive:original.meta.media.0.codec.sample_aspect_ratio">0</property>
  <property name="kdenlive:original.meta.media.0.codec.colorspace">709</property>
  <property name="kdenlive:original.meta.media.0.codec.name">h264</property>
  <property name="kdenlive:original.meta.media.0.codec.long_name">H.264 / AVC / MPEG-4 AVC / MPEG-4 part 10</property>
  <property name="kdenlive:original.meta.media.0.codec.bit_rate">2721514</property>
  <property name="kdenlive:original.meta.attr.0.stream.handler_name.markup">VideoHandler</property>
  <property name="kdenlive:original.meta.attr.0.stream.vendor_id.markup">[0][0][0][0]</property>
  <property name="kdenlive:original.meta.attr.0.stream.encoder.markup">Lavc60.3.100 libx264</property>
  <property name="kdenlive:original.meta.attr.major_brand.markup">isom</property>
  <property name="kdenlive:original.meta.attr.minor_version.markup">512</property>
  <property name="kdenlive:original.meta.attr.compatible_brands.markup">isomiso2avc1mp41</property>
  <property name="kdenlive:original.meta.attr.encoder.markup">Lavf60.3.100</property>
  <property name="kdenlive:original.meta.attr.comment.markup">Rendered with Manim Community v0.17.2</property>
  <property name="kdenlive:original.seekable">1</property>
  <property name="kdenlive:original.width">3840</property>
  <property name="kdenlive:original.height">2160</property>
  <property name="kdenlive:original.meta.media.sample_aspect_num">1</property>
  <property name="kdenlive:original.meta.media.sample_aspect_den">1</property>
  <property name="kdenlive:original.aspect_ratio">1</property>
  <property name="kdenlive:original.format">3</property>
  <property name="kdenlive:original.audio_index">-1</property>
  <property name="kdenlive:original.video_index">0</property>
  <property name="kdenlive:original.mute_on_pause">0</property>
  <property name="kdenlive:original.mlt_service">avformat-novalidate</property>
  <property name="kdenlive:original.meta.media.frame_rate_num">60</property>
  <property name="kdenlive:original.meta.media.frame_rate_den">1</property>
  <property name="kdenlive:original.meta.media.colorspace">709</property>
  <property name="kdenlive:original.meta.media.color_trc">2</property>
  <property name="kdenlive:original.meta.media.has_b_frames">2</property>
  <property name="kdenlive:original.meta.media.width">3840</property>
  <property name="kdenlive:original.meta.media.height">2160</property>
  <property name="kdenlive:original.meta.media.color_range">mpeg</property>
  <property name="kdenlive:original.meta.media.top_field_first">0</property>
  <property name="kdenlive:original.meta.media.progressive">1</property>
  <property name="kdenlive:original.kdenlive:clip_type">2</property>
  <property name="kdenlive:original.kdenlive:folderid">528</property>
  <property name="kdenlive:original.kdenlive:id">540</property>
  <property name="kdenlive:original.kdenlive:file_size">512115</property>
  <property name="kdenlive:original.kdenlive:file_hash">7e109612d249e63bc8a5528b4c1371c1</property>
  <property name="kdenlive:original.backup">1</property>
  <property name="xml">was here</property>
  <property name="meta.media.frame_rate_num">60</property>
  <property name="meta.media.frame_rate_den">1</property>
  <property name="meta.media.colorspace">601</property>
  <property name="meta.media.color_trc">2</property>
  <property name="meta.media.has_b_frames">0</property>
  <property name="meta.media.width">640</property>
  <property name="meta.media.height">360</property>
  <property name="meta.media.color_range">full</property>
  <property name="meta.media.top_field_first">0</property>
  <property name="meta.media.progressive">1</property>
  <property name="set.test_audio">1</property>
  <property name="set.test_image">0</property>
 </producer>
 <producer id="producer534" in="00:00:00.000" out="00:00:01.083">
  <property name="length">66</property>
  <property name="eof">pause</property>
  <property name="resource">/home/xiaoxiae/.cache/kdenlive/proxy/acd78e5cec8f665a9526095b78682145.mkv</property>
  <property name="audio_index">-1</property>
  <property name="video_index">0</property>
  <property name="mute_on_pause">0</property>
  <property name="mlt_service">avformat-novalidate</property>
  <property name="meta.media.nb_streams">1</property>
  <property name="meta.media.0.stream.type">video</property>
  <property name="meta.media.0.stream.frame_rate">60</property>
  <property name="meta.media.0.stream.sample_aspect_ratio">0</property>
  <property name="meta.media.0.codec.width">640</property>
  <property name="meta.media.0.codec.height">360</property>
  <property name="meta.media.0.codec.rotate">0</property>
  <property name="meta.media.0.codec.pix_fmt">yuvj420p</property>
  <property name="meta.media.0.codec.sample_aspect_ratio">0</property>
  <property name="meta.media.0.codec.colorspace">601</property>
  <property name="meta.media.0.codec.name">mjpeg</property>
  <property name="meta.media.0.codec.long_name">MJPEG (Motion JPEG)</property>
  <property name="meta.media.0.codec.bit_rate">0</property>
  <property name="meta.attr.0.stream.HANDLER_NAME.markup">VideoHandler</property>
  <property name="meta.attr.0.stream.VENDOR_ID.markup">[0][0][0][0]</property>
  <property name="meta.attr.0.stream.ENCODER.markup">Lavc60.3.100 mjpeg</property>
  <property name="meta.attr.0.stream.DURATION.markup">00:00:01.100000000</property>
  <property name="meta.attr.COMMENT.markup">Rendered with Manim Community v0.17.2</property>
  <property name="meta.attr.MAJOR_BRAND.markup">isom</property>
  <property name="meta.attr.MINOR_VERSION.markup">512</property>
  <property name="meta.attr.COMPATIBLE_BRANDS.markup">isomiso2avc1mp41</property>
  <property name="meta.attr.ENCODER.markup">Lavf60.3.100</property>
  <property name="seekable">1</property>
  <property name="meta.media.sample_aspect_num">1</property>
  <property name="meta.media.sample_aspect_den">1</property>
  <property name="aspect_ratio">1</property>
  <property name="format">3</property>
  <property name="kdenlive:clipname">3.mp4</property>
  <property name="kdenlive:clip_type">2</property>
  <property name="kdenlive:folderid">528</property>
  <property name="kdenlive:id">441</property>
  <property name="kdenlive:file_size">142029</property>
  <property name="kdenlive:file_hash">acd78e5cec8f665a9526095b78682145</property>
  <property name="kdenlive:proxy">/home/xiaoxiae/.cache/kdenlive/proxy/acd78e5cec8f665a9526095b78682145.mkv</property>
  <property name="kdenlive:originalurl">video/Intro/3.mp4</property>
  <property name="kdenlive:original.mlt_type">producer</property>
  <property name="kdenlive:original.in">00:00:00.000</property>
  <property name="kdenlive:original.out">00:00:01.083</property>
  <property name="kdenlive:original.length">66</property>
  <property name="kdenlive:original.eof">pause</property>
  <property name="kdenlive:original.resource">video/Intro/3.mp4</property>
  <property name="kdenlive:original.meta.media.nb_streams">1</property>
  <property name="kdenlive:original.meta.media.0.stream.type">video</property>
  <property name="kdenlive:original.meta.media.0.stream.frame_rate">60</property>
  <property name="kdenlive:original.meta.media.0.stream.sample_aspect_ratio">0</property>
  <property name="kdenlive:original.meta.media.0.codec.width">3840</property>
  <property name="kdenlive:original.meta.media.0.codec.height">2160</property>
  <property name="kdenlive:original.meta.media.0.codec.rotate">0</property>
  <property name="kdenlive:original.meta.media.0.codec.pix_fmt">yuv420p</property>
  <property name="kdenlive:original.meta.media.0.codec.sample_aspect_ratio">0</property>
  <property name="kdenlive:original.meta.media.0.codec.colorspace">709</property>
  <property name="kdenlive:original.meta.media.0.codec.name">h264</property>
  <property name="kdenlive:original.meta.media.0.codec.long_name">H.264 / AVC / MPEG-4 AVC / MPEG-4 part 10</property>
  <property name="kdenlive:original.meta.media.0.codec.bit_rate">1020494</property>
  <property name="kdenlive:original.meta.attr.0.stream.handler_name.markup">VideoHandler</property>
  <property name="kdenlive:original.meta.attr.0.stream.vendor_id.markup">[0][0][0][0]</property>
  <property name="kdenlive:original.meta.attr.0.stream.encoder.markup">Lavc60.3.100 libx264</property>
  <property name="kdenlive:original.meta.attr.major_brand.markup">isom</property>
  <property name="kdenlive:original.meta.attr.minor_version.markup">512</property>
  <property name="kdenlive:original.meta.attr.compatible_brands.markup">isomiso2avc1mp41</property>
  <property name="kdenlive:original.meta.attr.encoder.markup">Lavf60.3.100</property>
  <property name="kdenlive:original.meta.attr.comment.markup">Rendered with Manim Community v0.17.2</property>
  <property name="kdenlive:original.seekable">1</property>
  <property name="kdenlive:original.width">3840</property>
  <property name="kdenlive:original.height">2160</property>
  <property name="kdenlive:original.meta.media.sample_aspect_num">1</property>
  <property name="kdenlive:original.meta.media.sample_aspect_den">1</property>
  <property name="kdenlive:original.aspect_ratio">1</property>
  <property name="kdenlive:original.format">3</property>
  <property name="kdenlive:original.audio_index">-1</property>
  <property name="kdenlive:original.video_index">0</property>
  <property name="kdenlive:original.mute_on_pause">0</property>
  <property name="kdenlive:original.mlt_service">avformat-novalidate</property>
  <property name="kdenlive:original.meta.media.frame_rate_num">60</property>
  <property name="kdenlive:original.meta.media.frame_rate_den">1</property>
  <property name="kdenlive:original.meta.media.colorspace">709</property>
  <property name="kdenlive:original.meta.media.color_trc">2</property>
  <property name="kdenlive:original.meta.media.has_b_frames">2</property>
  <property name="kdenlive:original.meta.media.width">3840</property>
  <property name="kdenlive:original.meta.media.height">2160</property>
  <property name="kdenlive:original.meta.media.color_range">mpeg</property>
  <property name="kdenlive:original.meta.media.top_field_first">0</property>
  <property name="kdenlive:original.meta.media.progressive">1</property>
  <property name="kdenlive:original.kdenlive:clip_type">2</property>
  <property name="kdenlive:original.kdenlive:folderid">528</property>
  <property name="kdenlive:original.kdenlive:id">551</property>
  <property name="kdenlive:original.kdenlive:file_size">142029</property>
  <property name="kdenlive:original.kdenlive:file_hash">acd78e5cec8f665a9526095b78682145</property>
  <property name="kdenlive:original.backup">1</property>
  <property name="xml">was here</property>
  <property name="meta.media.frame_rate_num">60</property>
  <property name="meta.media.frame_rate_den">1</property>
  <property name="meta.media.colorspace">601</property>
  <property name="meta.media.color_trc">2</property>
  <property name="meta.media.has_b_frames">0</property>
  <property name="meta.media.width">640</property>
  <property name="meta.media.height">360</property>
  <property name="meta.media.color_range">full</property>
  <property name="meta.media.top_field_first">0</property>
  <property name="meta.media.progressive">1</property>
  <property name="set.test_audio">1</property>
  <property name="set.test_image">0</property>
 </producer>
 <producer id="producer535" in="00:00:00.000" out="00:00:00.983">
  <property name="length">60</property>
  <property name="eof">pause</property>
  <property name="resource">/home/xiaoxiae/.cache/kdenlive/proxy/9cba873cc7e785795b40c232b242686c.mkv</property>
  <property name="audio_index">-1</property>
  <property name="video_index">0</property>
  <property name="mute_on_pause">0</property>
  <property name="mlt_service">avformat-novalidate</property>
  <property name="meta.media.nb_streams">1</property>
  <property name="meta.media.0.stream.type">video</property>
  <property name="meta.media.0.stream.frame_rate">60</property>
  <property name="meta.media.0.stream.sample_aspect_ratio">0</property>
  <property name="meta.media.0.codec.width">640</property>
  <property name="meta.media.0.codec.height">360</property>
  <property name="meta.media.0.codec.rotate">0</property>
  <property name="meta.media.0.codec.pix_fmt">yuvj420p</property>
  <property name="meta.media.0.codec.sample_aspect_ratio">0</property>
  <property name="meta.media.0.codec.colorspace">601</property>
  <property name="meta.media.0.codec.name">mjpeg</property>
  <property name="meta.media.0.codec.long_name">MJPEG (Motion JPEG)</property>
  <property name="meta.media.0.codec.bit_rate">0</property>
  <property name="meta.attr.0.stream.HANDLER_NAME.markup">VideoHandler</property>
  <property name="meta.attr.0.stream.VENDOR_ID.markup">[0][0][0][0]</property>
  <property name="meta.attr.0.stream.ENCODER.markup">Lavc60.3.100 mjpeg</property>
  <property name="meta.attr.0.stream.DURATION.markup">00:00:01.000000000</property>
  <property name="meta.attr.COMMENT.markup">Rendered with Manim Community v0.17.2</property>
  <property name="meta.attr.MAJOR_BRAND.markup">isom</property>
  <property name="meta.attr.MINOR_VERSION.markup">512</property>
  <property name="meta.attr.COMPATIBLE_BRANDS.markup">isomiso2avc1mp41</property>
  <property name="meta.attr.ENCODER.markup">Lavf60.3.100</property>
  <property name="seekable">1</property>
  <property name="meta.media.sample_aspect_num">1</property>
  <property name="meta.media.sample_aspect_den">1</property>
  <property name="aspect_ratio">1</property>
  <property name="format">3</property>
  <property name="kdenlive:clipname">4.mp4</property>
  <property name="kdenlive:clip_type">2</property>
  <property name="kdenlive:folderid">528</property>
  <property name="kdenlive:id">449</property>
  <property name="kdenlive:file_size">142461</property>
  <property name="kdenlive:file_hash">9cba873cc7e785795b40c232b242686c</property>
  <property name="kdenlive:proxy">/home/xiaoxiae/.cache/kdenlive/proxy/9cba873cc7e785795b40c232b242686c.mkv</property>
  <property name="kdenlive:originalurl">video/Intro/4.mp4</property>
  <property name="kdenlive:original.mlt_type">producer</property>
  <property name="kdenlive:original.in">00:00:00.000</property>
  <property name="kdenlive:original.out">00:00:00.983</property>
  <property name="kdenlive:original.length">60</property>
  <property name="kdenlive:original.eof">pause</property>
  <property name="kdenlive:original.resource">video/Intro/4.mp4</property>
  <property name="kdenlive:original.meta.media.nb_streams">1</property>
  <property name="kdenlive:original.meta.media.0.stream.type">video</property>
  <property name="kdenlive:original.meta.media.0.stream.frame_rate">60</property>
  <property name="kdenlive:original.meta.media.0.stream.sample_aspect_ratio">0</property>
  <property name="kdenlive:original.meta.media.0.codec.width">3840</property>
  <property name="kdenlive:original.meta.media.0.codec.height">2160</property>
  <property name="kdenlive:original.meta.media.0.codec.rotate">0</property>
  <property name="kdenlive:original.meta.media.0.codec.pix_fmt">yuv420p</property>
  <property name="kdenlive:original.meta.media.0.codec.sample_aspect_ratio">0</property>
  <property name="kdenlive:original.meta.media.0.codec.colorspace">709</property>
  <property name="kdenlive:original.meta.media.0.codec.name">h264</property>
  <property name="kdenlive:original.meta.media.0.codec.long_name">H.264 / AVC / MPEG-4 AVC / MPEG-4 part 10</property>
  <property name="kdenlive:original.meta.media.0.codec.bit_rate">1126640</property>
  <property name="kdenlive:original.meta.attr.0.stream.handler_name.markup">VideoHandler</property>
  <property name="kdenlive:original.meta.attr.0.stream.vendor_id.markup">[0][0][0][0]</property>
  <property name="kdenlive:original.meta.attr.0.stream.encoder.markup">Lavc60.3.100 libx264</property>
  <property name="kdenlive:original.meta.attr.major_brand.markup">isom</property>
  <property name="kdenlive:original.meta.attr.minor_version.markup">512</property>
  <property name="kdenlive:original.meta.attr.compatible_brands.markup">isomiso2avc1mp41</property>
  <property name="kdenlive:original.meta.attr.encoder.markup">Lavf60.3.100</property>
  <property name="kdenlive:original.meta.attr.comment.markup">Rendered with Manim Community v0.17.2</property>
  <property name="kdenlive:original.seekable">1</property>
  <property name="kdenlive:original.width">3840</property>
  <property name="kdenlive:original.height">2160</property>
  <property name="kdenlive:original.meta.media.sample_aspect_num">1</property>
  <property name="kdenlive:original.meta.media.sample_aspect_den">1</property>
  <property name="kdenlive:original.aspect_ratio">1</property>
  <property name="kdenlive:original.format">3</property>
  <property name="kdenlive:original.audio_index">-1</property>
  <property name="kdenlive:original.video_index">0</property>
  <property name="kdenlive:original.mute_on_pause">0</property>
  <property name="kdenlive:original.mlt_service">avformat-novalidate</property>
  <property name="kdenlive:original.meta.media.frame_rate_num">60</property>
  <property name="kdenlive:original.meta.media.frame_rate_den">1</property>
  <property name="kdenlive:original.meta.media.colorspace">709</property>
  <property name="kdenlive:original.meta.media.color_trc">2</property>
  <property name="kdenlive:original.meta.media.has_b_frames">2</property>
  <property name="kdenlive:original.meta.media.width">3840</property>
  <property name="kdenlive:original.meta.media.height">2160</property>
  <property name="kdenlive:original.meta.media.color_range">mpeg</property>
  <property name="kdenlive:original.meta.media.top_field_first">0</property>
  <property name="kdenlive:original.meta.media.progressive">1</property>
  <property name="kdenlive:original.kdenlive:clip_type">2</property>
  <property name="kdenlive:original.kdenlive:folderid">528</property>
  <property name="kdenlive:original.kdenlive:id">559</property>
  <property name="kdenlive:original.kdenlive:file_size">142461</property>
  <property name="kdenlive:original.kdenlive:file_hash">9cba873cc7e785795b40c232b242686c</property>
  <property name="kdenlive:original.backup">1</property>
  <property name="xml">was here</property>
  <property name="meta.media.frame_rate_num">60</property>
  <property name="meta.media.frame_rate_den">1</property>
  <property name="meta.media.colorspace">601</property>
  <property name="meta.media.color_trc">2</property>
  <property name="meta.media.has_b_frames">0</property>
  <property name="meta.media.width">640</property>
  <property name="meta.media.height">360</property>
  <property name="meta.media.color_range">full</property>
  <property name="meta.media.top_field_first">0</property>
  <property name="meta.media.progressive">1</property>
  <property name="set.test_audio">1</property>
  <property name="set.test_image">0</property>
 </producer>
 <producer id="producer536" in="00:00:00.000" out="00:00:01.733">
  <property name="length">105</property>
  <property name="eof">pause</property>
  <property name="resource">/home/xiaoxiae/.cache/kdenlive/proxy/e7c290a365939e829163ea5ea86b2abc.mkv</property>
  <property name="audio_index">-1</property>
  <property name="video_index">0</property>
  <property name="mute_on_pause">0</property>
  <property name="mlt_service">avformat-novalidate</property>
  <property name="meta.media.nb_streams">1</property>
  <property name="meta.media.0.stream.type">video</property>
  <property name="meta.media.0.stream.frame_rate">60</property>
  <property name="meta.media.0.stream.sample_aspect_ratio">0</property>
  <property name="meta.media.0.codec.width">640</property>
  <property name="meta.media.0.codec.height">360</property>
  <property name="meta.media.0.codec.rotate">0</property>
  <property name="meta.media.0.codec.pix_fmt">yuvj420p</property>
  <property name="meta.media.0.codec.sample_aspect_ratio">0</property>
  <property name="meta.media.0.codec.colorspace">601</property>
  <property name="meta.media.0.codec.name">mjpeg</property>
  <property name="meta.media.0.codec.long_name">MJPEG (Motion JPEG)</property>
  <property name="meta.media.0.codec.bit_rate">0</property>
  <property name="meta.attr.0.stream.HANDLER_NAME.markup">VideoHandler</property>
  <property name="meta.attr.0.stream.VENDOR_ID.markup">[0][0][0][0]</property>
  <property name="meta.attr.0.stream.ENCODER.markup">Lavc60.3.100 mjpeg</property>
  <property name="meta.attr.0.stream.DURATION.markup">00:00:01.750000000</property>
  <property name="meta.attr.COMMENT.markup">Rendered with Manim Community v0.17.2</property>
  <property name="meta.attr.MAJOR_BRAND.markup">isom</property>
  <property name="meta.attr.MINOR_VERSION.markup">512</property>
  <property name="meta.attr.COMPATIBLE_BRANDS.markup">isomiso2avc1mp41</property>
  <property name="meta.attr.ENCODER.markup">Lavf60.3.100</property>
  <property name="seekable">1</property>
  <property name="meta.media.sample_aspect_num">1</property>
  <property name="meta.media.sample_aspect_den">1</property>
  <property name="aspect_ratio">1</property>
  <property name="format">3</property>
  <property name="kdenlive:clipname">5.mp4</property>
  <property name="kdenlive:clip_type">2</property>
  <property name="kdenlive:folderid">528</property>
  <property name="kdenlive:id">450</property>
  <property name="kdenlive:file_size">207099</property>
  <property name="kdenlive:file_hash">e7c290a365939e829163ea5ea86b2abc</property>
  <property name="kdenlive:proxy">/home/xiaoxiae/.cache/kdenlive/proxy/e7c290a365939e829163ea5ea86b2abc.mkv</property>
  <property name="kdenlive:originalurl">video/Intro/5.mp4</property>
  <property name="kdenlive:original.mlt_type">producer</property>
  <property name="kdenlive:original.in">00:00:00.000</property>
  <property name="kdenlive:original.out">00:00:01.733</property>
  <property name="kdenlive:original.length">105</property>
  <property name="kdenlive:original.eof">pause</property>
  <property name="kdenlive:original.resource">video/Intro/5.mp4</property>
  <property name="kdenlive:original.meta.media.nb_streams">1</property>
  <property name="kdenlive:original.meta.media.0.stream.type">video</property>
  <property name="kdenlive:original.meta.media.0.stream.frame_rate">60</property>
  <property name="kdenlive:original.meta.media.0.stream.sample_aspect_ratio">0</property>
  <property name="kdenlive:original.meta.media.0.codec.width">3840</property>
  <property name="kdenlive:original.meta.media.0.codec.height">2160</property>
  <property name="kdenlive:original.meta.media.0.codec.rotate">0</property>
  <property name="kdenlive:original.meta.media.0.codec.pix_fmt">yuv420p</property>
  <property name="kdenlive:original.meta.media.0.codec.sample_aspect_ratio">0</property>
  <property name="kdenlive:original.meta.media.0.codec.colorspace">709</property>
  <property name="kdenlive:original.meta.media.0.codec.name">h264</property>
  <property name="kdenlive:original.meta.media.0.codec.long_name">H.264 / AVC / MPEG-4 AVC / MPEG-4 part 10</property>
  <property name="kdenlive:original.meta.media.0.codec.bit_rate">936777</property>
  <property name="kdenlive:original.meta.attr.0.stream.handler_name.markup">VideoHandler</property>
  <property name="kdenlive:original.meta.attr.0.stream.vendor_id.markup">[0][0][0][0]</property>
  <property name="kdenlive:original.meta.attr.0.stream.encoder.markup">Lavc60.3.100 libx264</property>
  <property name="kdenlive:original.meta.attr.major_brand.markup">isom</property>
  <property name="kdenlive:original.meta.attr.minor_version.markup">512</property>
  <property name="kdenlive:original.meta.attr.compatible_brands.markup">isomiso2avc1mp41</property>
  <property name="kdenlive:original.meta.attr.encoder.markup">Lavf60.3.100</property>
  <property name="kdenlive:original.meta.attr.comment.markup">Rendered with Manim Community v0.17.2</property>
  <property name="kdenlive:original.seekable">1</property>
  <property name="kdenlive:original.width">3840</property>
  <property name="kdenlive:original.height">2160</property>
  <property name="kdenlive:original.meta.media.sample_aspect_num">1</property>
  <property name="kdenlive:original.meta.media.sample_aspect_den">1</property>
  <property name="kdenlive:original.aspect_ratio">1</property>
  <property name="kdenlive:original.format">3</property>
  <property name="kdenlive:original.audio_index">-1</property>
  <property name="kdenlive:original.video_index">0</property>
  <property name="kdenlive:original.mute_on_pause">0</property>
  <property name="kdenlive:original.mlt_service">avformat-novalidate</property>
  <property name="kdenlive:original.meta.media.frame_rate_num">60</property>
  <property name="kdenlive:original.meta.media.frame_rate_den">1</property>
  <property name="kdenlive:original.meta.media.colorspace">709</property>
  <property name="kdenlive:original.meta.media.color_trc">2</property>
  <property name="kdenlive:original.meta.media.has_b_frames">2</property>
  <property name="kdenlive:original.meta.media.width">3840</property>
  <property name="kdenlive:original.meta.media.height">2160</property>
  <property name="kdenlive:original.meta.media.color_range">mpeg</property>
  <property name="kdenlive:original.meta.media.top_field_first">0</property>
  <property name="kdenlive:original.meta.media.progressive">1</property>
  <property name="kdenlive:original.kdenlive:clip_type">2</property>
  <property name="kdenlive:original.kdenlive:folderid">528</property>
  <property name="kdenlive:original.kdenlive:id">560</property>
  <property name="kdenlive:original.kdenlive:file_size">207099</property>
  <property name="kdenlive:original.kdenlive:file_hash">e7c290a365939e829163ea5ea86b2abc</property>
  <property name="kdenlive:original.backup">1</property>
  <property name="xml">was here</property>
  <property name="meta.media.frame_rate_num">60</property>
  <property name="meta.media.frame_rate_den">1</property>
  <property name="meta.media.colorspace">601</property>
  <property name="meta.media.color_trc">2</property>
  <property name="meta.media.has_b_frames">0</property>
  <property name="meta.media.width">640</property>
  <property name="meta.media.height">360</property>
  <property name="meta.media.color_range">full</property>
  <property name="meta.media.top_field_first">0</property>
  <property name="meta.media.progressive">1</property>
  <property name="set.test_audio">1</property>
  <property name="set.test_image">0</property>
 </producer>
 <producer id="producer537" in="00:00:00.000" out="00:00:00.983">
  <property name="length">60</property>
  <property name="eof">pause</property>
  <property name="resource">/home/xiaoxiae/.cache/kdenlive/proxy/62e95a43bb6cdf7f74bc8c4d75d3ae67.mkv</property>
  <property name="audio_index">-1</property>
  <property name="video_index">0</property>
  <property name="mute_on_pause">0</property>
  <property name="mlt_service">avformat-novalidate</property>
  <property name="meta.media.nb_streams">1</property>
  <property name="meta.media.0.stream.type">video</property>
  <property name="meta.media.0.stream.frame_rate">60</property>
  <property name="meta.media.0.stream.sample_aspect_ratio">0</property>
  <property name="meta.media.0.codec.width">640</property>
  <property name="meta.media.0.codec.height">360</property>
  <property name="meta.media.0.codec.rotate">0</property>
  <property name="meta.media.0.codec.pix_fmt">yuvj420p</property>
  <property name="meta.media.0.codec.sample_aspect_ratio">0</property>
  <property name="meta.media.0.codec.colorspace">601</property>
  <property name="meta.media.0.codec.name">mjpeg</property>
  <property name="meta.media.0.codec.long_name">MJPEG (Motion JPEG)</property>
  <property name="meta.media.0.codec.bit_rate">0</property>
  <property name="meta.attr.0.stream.HANDLER_NAME.markup">VideoHandler</property>
  <property name="meta.attr.0.stream.VENDOR_ID.markup">[0][0][0][0]</property>
  <property name="meta.attr.0.stream.ENCODER.markup">Lavc60.3.100 mjpeg</property>
  <property name="meta.attr.0.stream.DURATION.markup">00:00:01.000000000</property>
  <property name="meta.attr.COMMENT.markup">Rendered with Manim Community v0.17.2</property>
  <property name="meta.attr.MAJOR_BRAND.markup">isom</property>
  <property name="meta.attr.MINOR_VERSION.markup">512</property>
  <property name="meta.attr.COMPATIBLE_BRANDS.markup">isomiso2avc1mp41</property>
  <property name="meta.attr.ENCODER.markup">Lavf60.3.100</property>
  <property name="seekable">1</property>
  <property name="meta.media.sample_aspect_num">1</property>
  <property name="meta.media.sample_aspect_den">1</property>
  <property name="aspect_ratio">1</property>
  <property name="format">3</property>
  <property name="kdenlive:clipname">6.mp4</property>
  <property name="kdenlive:clip_type">2</property>
  <property name="kdenlive:folderid">528</property>
  <property name="kdenlive:id">451</property>
  <property name="kdenlive:file_size">328709</property>
  <property name="kdenlive:file_hash">62e95a43bb6cdf7f74bc8c4d75d3ae67</property>
  <property name="kdenlive:proxy">/home/xiaoxiae/.cache/kdenlive/proxy/62e95a43bb6cdf7f74bc8c4d75d3ae67.mkv</property>
  <property name="kdenlive:originalurl">video/Intro/6.mp4</property>
  <property name="kdenlive:original.mlt_type">producer</property>
  <property name="kdenlive:original.in">00:00:00.000</property>
  <property name="kdenlive:original.out">00:00:00.983</property>
  <property name="kdenlive:original.length">60</property>
  <property name="kdenlive:original.eof">pause</property>
  <property name="kdenlive:original.resource">video/Intro/6.mp4</property>
  <property name="kdenlive:original.meta.media.nb_streams">1</property>
  <property name="kdenlive:original.meta.media.0.stream.type">video</property>
  <property name="kdenlive:original.meta.media.0.stream.frame_rate">60</property>
  <property name="kdenlive:original.meta.media.0.stream.sample_aspect_ratio">0</property>
  <property name="kdenlive:original.meta.media.0.codec.width">3840</property>
  <property name="kdenlive:original.meta.media.0.codec.height">2160</property>
  <property name="kdenlive:original.meta.media.0.codec.rotate">0</property>
  <property name="kdenlive:original.meta.media.0.codec.pix_fmt">yuv420p</property>
  <property name="kdenlive:original.meta.media.0.codec.sample_aspect_ratio">0</property>
  <property name="kdenlive:original.meta.media.0.codec.colorspace">709</property>
  <property name="kdenlive:original.meta.media.0.codec.name">h264</property>
  <property name="kdenlive:original.meta.media.0.codec.long_name">H.264 / AVC / MPEG-4 AVC / MPEG-4 part 10</property>
  <property name="kdenlive:original.meta.media.0.codec.bit_rate">2618800</property>
  <property name="kdenlive:original.meta.attr.0.stream.handler_name.markup">VideoHandler</property>
  <property name="kdenlive:original.meta.attr.0.stream.vendor_id.markup">[0][0][0][0]</property>
  <property name="kdenlive:original.meta.attr.0.stream.encoder.markup">Lavc60.3.100 libx264</property>
  <property name="kdenlive:original.meta.attr.major_brand.markup">isom</property>
  <property name="kdenlive:original.meta.attr.minor_version.markup">512</property>
  <property name="kdenlive:original.meta.attr.compatible_brands.markup">isomiso2avc1mp41</property>
  <property name="kdenlive:original.meta.attr.encoder.markup">Lavf60.3.100</property>
  <property name="kdenlive:original.meta.attr.comment.markup">Rendered with Manim Community v0.17.2</property>
  <property name="kdenlive:original.seekable">1</property>
  <property name="kdenlive:original.width">3840</property>
  <property name="kdenlive:original.height">2160</property>
  <property name="kdenlive:original.meta.media.sample_aspect_num">1</property>
  <property name="kdenlive:original.meta.media.sample_aspect_den">1</property>
  <property name="kdenlive:original.aspect_ratio">1</property>
  <property name="kdenlive:original.format">3</property>
  <property name="kdenlive:original.audio_index">-1</property>
  <property name="kdenlive:original.video_index">0</property>
  <property name="kdenlive:original.mute_on_pause">0</property>
  <property name="kdenlive:original.mlt_service">avformat-novalidate</property>
  <property name="kdenlive:original.meta.media.frame_rate_num">60</property>
  <property name="kdenlive:original.meta.media.frame_rate_den">1</property>
  <property name="kdenlive:original.meta.media.colorspace">709</property>
  <property name="kdenlive:original.meta.media.color_trc">2</property>
  <property name="kdenlive:original.meta.media.has_b_frames">2</property>
  <property name="kdenlive:original.meta.media.width">3840</property>
  <property name="kdenlive:original.meta.media.height">2160</property>
  <property name="kdenlive:original.meta.media.color_range">mpeg</property>
  <property name="kdenlive:original.meta.media.top_field_first">0</property>
  <property name="kdenlive:original.meta.media.progressive">1</property>
  <property name="kdenlive:original.kdenlive:clip_type">2</property>
  <property name="kdenlive:original.kdenlive:folderid">528</property>
  <property name="kdenlive:original.kdenlive:id">561</property>
  <property name="kdenlive:original.kdenlive:file_size">328709</property>
  <property name="kdenlive:original.kdenlive:file_hash">62e95a43bb6cdf7f74bc8c4d75d3ae67</property>
  <property name="kdenlive:original.backup">1</property>
  <property name="xml">was here</property>
  <property name="meta.media.frame_rate_num">60</property>
  <property name="meta.media.frame_rate_den">1</property>
  <property name="meta.media.colorspace">601</property>
  <property name="meta.media.color_trc">2</property>
  <property name="meta.media.has_b_frames">0</property>
  <property name="meta.media.width">640</property>
  <property name="meta.media.height">360</property>
  <property name="meta.media.color_range">full</property>
  <property name="meta.media.top_field_first">0</property>
  <property name="meta.media.progressive">1</property>
  <property name="set.test_audio">1</property>
  <property name="set.test_image">0</property>
 </producer>
 <producer id="producer538" in="00:00:00.000" out="00:00:00.983">
  <property name="length">60</property>
  <property name="eof">pause</property>
  <property name="resource">/home/xiaoxiae/.cache/kdenlive/proxy/5c302b448367704efb10a43497e8787c.mkv</property>
  <property name="audio_index">-1</property>
  <property name="video_index">0</property>
  <property name="mute_on_pause">0</property>
  <property name="mlt_service">avformat-novalidate</property>
  <property name="meta.media.nb_streams">1</property>
  <property name="meta.media.0.stream.type">video</property>
  <property name="meta.media.0.stream.frame_rate">60</property>
  <property name="meta.media.0.stream.sample_aspect_ratio">0</property>
  <property name="meta.media.0.codec.width">640</property>
  <property name="meta.media.0.codec.height">360</property>
  <property name="meta.media.0.codec.rotate">0</property>
  <property name="meta.media.0.codec.pix_fmt">yuvj420p</property>
  <property name="meta.media.0.codec.sample_aspect_ratio">0</property>
  <property name="meta.media.0.codec.colorspace">601</property>
  <property name="meta.media.0.codec.name">mjpeg</property>
  <property name="meta.media.0.codec.long_name">MJPEG (Motion JPEG)</property>
  <property name="meta.media.0.codec.bit_rate">0</property>
  <property name="meta.attr.0.stream.HANDLER_NAME.markup">VideoHandler</property>
  <property name="meta.attr.0.stream.VENDOR_ID.markup">[0][0][0][0]</property>
  <property name="meta.attr.0.stream.ENCODER.markup">Lavc60.3.100 mjpeg</property>
  <property name="meta.attr.0.stream.DURATION.markup">00:00:01.000000000</property>
  <property name="meta.attr.COMMENT.markup">Rendered with Manim Community v0.17.2</property>
  <property name="meta.attr.MAJOR_BRAND.markup">isom</property>
  <property name="meta.attr.MINOR_VERSION.markup">512</property>
  <property name="meta.attr.COMPATIBLE_BRANDS.markup">isomiso2avc1mp41</property>
  <property name="meta.attr.ENCODER.markup">Lavf60.3.100</property>
  <property name="seekable">1</property>
  <property name="meta.media.sample_aspect_num">1</property>
  <property name="meta.media.sample_aspect_den">1</property>
  <property name="aspect_ratio">1</property>
  <property name="format">3</property>
  <property name="kdenlive:clipname">7.mp4</property>
  <property name="kdenlive:clip_type">2</property>
  <property name="kdenlive:folderid">528</property>
  <property name="kdenlive:id">452</property>
  <property name="kdenlive:file_size">66469</property>
  <property name="kdenlive:file_hash">5c302b448367704efb10a43497e8787c</property>
  <property name="kdenlive:proxy">/home/xiaoxiae/.cache/kdenlive/proxy/5c302b448367704efb10a43497e8787c.mkv</property>
  <property name="kdenlive:originalurl">video/Intro/7.mp4</property>
  <property name="kdenlive:original.mlt_type">producer</property>
  <property name="kdenlive:original.in">00:00:00.000</property>
  <property name="kdenlive:original.out">00:00:00.983</property>
  <property name="kdenlive:original.length">60</property>
  <property name="kdenlive:original.eof">pause</property>
  <property name="kdenlive:original.resource">video/Intro/7.mp4</property>
  <property name="kdenlive:original.meta.media.nb_streams">1</property>
  <property name="kdenlive:original.meta.media.0.stream.type">video</property>
  <property name="kdenlive:original.meta.media.0.stream.frame_rate">60</property>
  <property name="kdenlive:original.meta.media.0.stream.sample_aspect_ratio">0</property>
  <property name="kdenlive:original.meta.media.0.codec.width">3840</property>
  <property name="kdenlive:original.meta.media.0.codec.height">2160</property>
  <property name="kdenlive:original.meta.media.0.codec.rotate">0</property>
  <property name="kdenlive:original.meta.media.0.codec.pix_fmt">yuv420p</property>
  <property name="kdenlive:original.meta.media.0.codec.sample_aspect_ratio">0</property>
  <property name="kdenlive:original.meta.media.0.codec.colorspace">709</property>
  <property name="kdenlive:original.meta.media.0.codec.name">h264</property>
  <property name="kdenlive:original.meta.media.0.codec.long_name">H.264 / AVC / MPEG-4 AVC / MPEG-4 part 10</property>
  <property name="kdenlive:original.meta.media.0.codec.bit_rate">518704</property>
  <property name="kdenlive:original.meta.attr.0.stream.handler_name.markup">VideoHandler</property>
  <property name="kdenlive:original.meta.attr.0.stream.vendor_id.markup">[0][0][0][0]</property>
  <property name="kdenlive:original.meta.attr.0.stream.encoder.markup">Lavc60.3.100 libx264</property>
  <property name="kdenlive:original.meta.attr.major_brand.markup">isom</property>
  <property name="kdenlive:original.meta.attr.minor_version.markup">512</property>
  <property name="kdenlive:original.meta.attr.compatible_brands.markup">isomiso2avc1mp41</property>
  <property name="kdenlive:original.meta.attr.encoder.markup">Lavf60.3.100</property>
  <property name="kdenlive:original.meta.attr.comment.markup">Rendered with Manim Community v0.17.2</property>
  <property name="kdenlive:original.seekable">1</property>
  <property name="kdenlive:original.width">3840</property>
  <property name="kdenlive:original.height">2160</property>
  <property name="kdenlive:original.meta.media.sample_aspect_num">1</property>
  <property name="kdenlive:original.meta.media.sample_aspect_den">1</property>
  <property name="kdenlive:original.aspect_ratio">1</property>
  <property name="kdenlive:original.format">3</property>
  <property name="kdenlive:original.audio_index">-1</property>
  <property name="kdenlive:original.video_index">0</property>
  <property name="kdenlive:original.mute_on_pause">0</property>
  <property name="kdenlive:original.mlt_service">avformat-novalidate</property>
  <property name="kdenlive:original.meta.media.frame_rate_num">60</property>
  <property name="kdenlive:original.meta.media.frame_rate_den">1</property>
  <property name="kdenlive:original.meta.media.colorspace">709</property>
  <property name="kdenlive:original.meta.media.color_trc">2</property>
  <property name="kdenlive:original.meta.media.has_b_frames">2</property>
  <property name="kdenlive:original.meta.media.width">3840</property>
  <property name="kdenlive:original.meta.media.height">2160</property>
  <property name="kdenlive:original.meta.media.color_range">mpeg</property>
  <property name="kdenlive:original.meta.media.top_field_first">0</property>
  <property name="kdenlive:original.meta.media.progressive">1</property>
  <property name="kdenlive:original.kdenlive:clip_type">2</property>
  <property name="kdenlive:original.kdenlive:folderid">528</property>
  <property name="kdenlive:original.kdenlive:id">562</property>
  <property name="kdenlive:original.kdenlive:file_size">66469</property>
  <property name="kdenlive:original.kdenlive:file_hash">5c302b448367704efb10a43497e8787c</property>
  <property name="kdenlive:original.backup">1</property>
  <property name="xml">was here</property>
  <property name="meta.media.frame_rate_num">60</property>
  <property name="meta.media.frame_rate_den">1</property>
  <property name="meta.media.colorspace">601</property>
  <property name="meta.media.color_trc">2</property>
  <property name="meta.media.has_b_frames">0</property>
  <property name="meta.media.width">640</property>
  <property name="meta.media.height">360</property>
  <property name="meta.media.color_range">full</property>
  <property name="meta.media.top_field_first">0</property>
  <property name="meta.media.progressive">1</property>
  <property name="set.test_audio">1</property>
  <property name="set.test_image">0</property>
 </producer>
 <producer id="producer539" in="00:00:00.000" out="00:00:00.983">
  <property name="length">60</property>
  <property name="eof">pause</property>
  <property name="resource">/home/xiaoxiae/.cache/kdenlive/proxy/3ab8df48e48039209c742fea3fe6230b.mkv</property>
  <property name="audio_index">-1</property>
  <property name="video_index">0</property>
  <property name="mute_on_pause">0</property>
  <property name="mlt_service">avformat-novalidate</property>
  <property name="meta.media.nb_streams">1</property>
  <property name="meta.media.0.stream.type">video</property>
  <property name="meta.media.0.stream.frame_rate">60</property>
  <property name="meta.media.0.stream.sample_aspect_ratio">0</property>
  <property name="meta.media.0.codec.width">640</property>
  <property name="meta.media.0.codec.height">360</property>
  <property name="meta.media.0.codec.rotate">0</property>
  <property name="meta.media.0.codec.pix_fmt">yuvj420p</property>
  <property name="meta.media.0.codec.sample_aspect_ratio">0</property>
  <property name="meta.media.0.codec.colorspace">601</property>
  <property name="meta.media.0.codec.name">mjpeg</property>
  <property name="meta.media.0.codec.long_name">MJPEG (Motion JPEG)</property>
  <property name="meta.media.0.codec.bit_rate">0</property>
  <property name="meta.attr.0.stream.HANDLER_NAME.markup">VideoHandler</property>
  <property name="meta.attr.0.stream.VENDOR_ID.markup">[0][0][0][0]</property>
  <property name="meta.attr.0.stream.ENCODER.markup">Lavc60.3.100 mjpeg</property>
  <property name="meta.attr.0.stream.DURATION.markup">00:00:01.000000000</property>
  <property name="meta.attr.COMMENT.markup">Rendered with Manim Community v0.17.2</property>
  <property name="meta.attr.MAJOR_BRAND.markup">isom</property>
  <property name="meta.attr.MINOR_VERSION.markup">512</property>
  <property name="meta.attr.COMPATIBLE_BRANDS.markup">isomiso2avc1mp41</property>
  <property name="meta.attr.ENCODER.markup">Lavf60.3.100</property>
  <property name="seekable">1</property>
  <property name="meta.media.sample_aspect_num">1</property>
  <property name="meta.media.sample_aspect_den">1</property>
  <property name="aspect_ratio">1</property>
  <property name="format">3</property>
  <property name="kdenlive:clipname">8.mp4</property>
  <property name="kdenlive:clip_type">2</property>
  <property name="kdenlive:folderid">528</property>
  <property name="kdenlive:id">453</property>
  <property name="kdenlive:file_size">88898</property>
  <property name="kdenlive:file_hash">3ab8df48e48039209c742fea3fe6230b</property>
  <property name="kdenlive:proxy">/home/xiaoxiae/.cache/kdenlive/proxy/3ab8df48e48039209c742fea3fe6230b.mkv</property>
  <property name="kdenlive:originalurl">video/Intro/8.mp4</property>
  <property name="kdenlive:original.mlt_type">producer</property>
  <property name="kdenlive:original.in">00:00:00.000</property>
  <property name="kdenlive:original.out">00:00:00.983</property>
  <property name="kdenlive:original.length">60</property>
  <property name="kdenlive:original.eof">pause</property>
  <property name="kdenlive:original.resource">video/Intro/8.mp4</property>
  <property name="kdenlive:original.meta.media.nb_streams">1</property>
  <property name="kdenlive:original.meta.media.0.stream.type">video</property>
  <property name="kdenlive:original.meta.media.0.stream.frame_rate">60</property>
  <property name="kdenlive:original.meta.media.0.stream.sample_aspect_ratio">0</property>
  <property name="kdenlive:original.meta.media.0.codec.width">3840</property>
  <property name="kdenlive:original.meta.media.0.codec.height">2160</property>
  <property name="kdenlive:original.meta.media.0.codec.rotate">0</property>
  <property name="kdenlive:original.meta.media.0.codec.pix_fmt">yuv420p</property>
  <property name="kdenlive:original.meta.media.0.codec.sample_aspect_ratio">0</property>
  <property name="kdenlive:original.meta.media.0.codec.colorspace">709</property>
  <property name="kdenlive:original.meta.media.0.codec.name">h264</property>
  <property name="kdenlive:original.meta.media.0.codec.long_name">H.264 / AVC / MPEG-4 AVC / MPEG-4 part 10</property>
  <property name="kdenlive:original.meta.media.0.codec.bit_rate">698072</property>
  <property name="kdenlive:original.meta.attr.0.stream.handler_name.markup">VideoHandler</property>
  <property name="kdenlive:original.meta.attr.0.stream.vendor_id.markup">[0][0][0][0]</property>
  <property name="kdenlive:original.meta.attr.0.stream.encoder.markup">Lavc60.3.100 libx264</property>
  <property name="kdenlive:original.meta.attr.major_brand.markup">isom</property>
  <property name="kdenlive:original.meta.attr.minor_version.markup">512</property>
  <property name="kdenlive:original.meta.attr.compatible_brands.markup">isomiso2avc1mp41</property>
  <property name="kdenlive:original.meta.attr.encoder.markup">Lavf60.3.100</property>
  <property name="kdenlive:original.meta.attr.comment.markup">Rendered with Manim Community v0.17.2</property>
  <property name="kdenlive:original.seekable">1</property>
  <property name="kdenlive:original.width">3840</property>
  <property name="kdenlive:original.height">2160</property>
  <property name="kdenlive:original.meta.media.sample_aspect_num">1</property>
  <property name="kdenlive:original.meta.media.sample_aspect_den">1</property>
  <property name="kdenlive:original.aspect_ratio">1</property>
  <property name="kdenlive:original.format">3</property>
  <property name="kdenlive:original.audio_index">-1</property>
  <property name="kdenlive:original.video_index">0</property>
  <property name="kdenlive:original.mute_on_pause">0</property>
  <property name="kdenlive:original.mlt_service">avformat-novalidate</property>
  <property name="kdenlive:original.meta.media.frame_rate_num">60</property>
  <property name="kdenlive:original.meta.media.frame_rate_den">1</property>
  <property name="kdenlive:original.meta.media.colorspace">709</property>
  <property name="kdenlive:original.meta.media.color_trc">2</property>
  <property name="kdenlive:original.meta.media.has_b_frames">2</property>
  <property name="kdenlive:original.meta.media.width">3840</property>
  <property name="kdenlive:original.meta.media.height">2160</property>
  <property name="kdenlive:original.meta.media.color_range">mpeg</property>
  <property name="kdenlive:original.meta.media.top_field_first">0</property>
  <property name="kdenlive:original.meta.media.progressive">1</property>
  <property name="kdenlive:original.kdenlive:clip_type">2</property>
  <property name="kdenlive:original.kdenlive:folderid">528</property>
  <property name="kdenlive:original.kdenlive:id">563</property>
  <property name="kdenlive:original.kdenlive:file_size">88898</property>
  <property name="kdenlive:original.kdenlive:file_hash">3ab8df48e48039209c742fea3fe6230b</property>
  <property name="kdenlive:original.backup">1</property>
  <property name="xml">was here</property>
  <property name="meta.media.frame_rate_num">60</property>
  <property name="meta.media.frame_rate_den">1</property>
  <property name="meta.media.colorspace">601</property>
  <property name="meta.media.color_trc">2</property>
  <property name="meta.media.has_b_frames">0</property>
  <property name="meta.media.width">640</property>
  <property name="meta.media.height">360</property>
  <property name="meta.media.color_range">full</property>
  <property name="meta.media.top_field_first">0</property>
  <property name="meta.media.progressive">1</property>
  <property name="set.test_audio">1</property>
  <property name="set.test_image">0</property>
 </producer>
 <producer id="producer540" in="00:00:00.000" out="00:00:00.983">
  <property name="length">60</property>
  <property name="eof">pause</property>
  <property name="resource">/home/xiaoxiae/.cache/kdenlive/proxy/6c6c689df9d6bb60931861e92b5775e4.mkv</property>
  <property name="audio_index">-1</property>
  <property name="video_index">0</property>
  <property name="mute_on_pause">0</property>
  <property name="mlt_service">avformat-novalidate</property>
  <property name="meta.media.nb_streams">1</property>
  <property name="meta.media.0.stream.type">video</property>
  <property name="meta.media.0.stream.frame_rate">60</property>
  <property name="meta.media.0.stream.sample_aspect_ratio">0</property>
  <property name="meta.media.0.codec.width">640</property>
  <property name="meta.media.0.codec.height">360</property>
  <property name="meta.media.0.codec.rotate">0</property>
  <property name="meta.media.0.codec.pix_fmt">yuvj420p</property>
  <property name="meta.media.0.codec.sample_aspect_ratio">0</property>
  <property name="meta.media.0.codec.colorspace">601</property>
  <property name="meta.media.0.codec.name">mjpeg</property>
  <property name="meta.media.0.codec.long_name">MJPEG (Motion JPEG)</property>
  <property name="meta.media.0.codec.bit_rate">0</property>
  <property name="meta.attr.0.stream.HANDLER_NAME.markup">VideoHandler</property>
  <property name="meta.attr.0.stream.VENDOR_ID.markup">[0][0][0][0]</property>
  <property name="meta.attr.0.stream.ENCODER.markup">Lavc60.3.100 mjpeg</property>
  <property name="meta.attr.0.stream.DURATION.markup">00:00:01.000000000</property>
  <property name="meta.attr.COMMENT.markup">Rendered with Manim Community v0.17.2</property>
  <property name="meta.attr.MAJOR_BRAND.markup">isom</property>
  <property name="meta.attr.MINOR_VERSION.markup">512</property>
  <property name="meta.attr.COMPATIBLE_BRANDS.markup">isomiso2avc1mp41</property>
  <property name="meta.attr.ENCODER.markup">Lavf60.3.100</property>
  <property name="seekable">1</property>
  <property name="meta.media.sample_aspect_num">1</property>
  <property name="meta.media.sample_aspect_den">1</property>
  <property name="aspect_ratio">1</property>
  <property name="format">3</property>
  <property name="kdenlive:clipname">9.mp4</property>
  <property name="kdenlive:clip_type">2</property>
  <property name="kdenlive:folderid">528</property>
  <property name="kdenlive:id">454</property>
  <property name="kdenlive:file_size">125417</property>
  <property name="kdenlive:file_hash">6c6c689df9d6bb60931861e92b5775e4</property>
  <property name="kdenlive:proxy">/home/xiaoxiae/.cache/kdenlive/proxy/6c6c689df9d6bb60931861e92b5775e4.mkv</property>
  <property name="kdenlive:originalurl">video/Intro/9.mp4</property>
  <property name="kdenlive:original.mlt_type">producer</property>
  <property name="kdenlive:original.in">00:00:00.000</property>
  <property name="kdenlive:original.out">00:00:00.983</property>
  <property name="kdenlive:original.length">60</property>
  <property name="kdenlive:original.eof">pause</property>
  <property name="kdenlive:original.resource">video/Intro/9.mp4</property>
  <property name="kdenlive:original.meta.media.nb_streams">1</property>
  <property name="kdenlive:original.meta.media.0.stream.type">video</property>
  <property name="kdenlive:original.meta.media.0.stream.frame_rate">60</property>
  <property name="kdenlive:original.meta.media.0.stream.sample_aspect_ratio">0</property>
  <property name="kdenlive:original.meta.media.0.codec.width">3840</property>
  <property name="kdenlive:original.meta.media.0.codec.height">2160</property>
  <property name="kdenlive:original.meta.media.0.codec.rotate">0</property>
  <property name="kdenlive:original.meta.media.0.codec.pix_fmt">yuv420p</property>
  <property name="kdenlive:original.meta.media.0.codec.sample_aspect_ratio">0</property>
  <property name="kdenlive:original.meta.media.0.codec.colorspace">709</property>
  <property name="kdenlive:original.meta.media.0.codec.name">h264</property>
  <property name="kdenlive:original.meta.media.0.codec.long_name">H.264 / AVC / MPEG-4 AVC / MPEG-4 part 10</property>
  <property name="kdenlive:original.meta.media.0.codec.bit_rate">990544</property>
  <property name="kdenlive:original.meta.attr.0.stream.handler_name.markup">VideoHandler</property>
  <property name="kdenlive:original.meta.attr.0.stream.vendor_id.markup">[0][0][0][0]</property>
  <property name="kdenlive:original.meta.attr.0.stream.encoder.markup">Lavc60.3.100 libx264</property>
  <property name="kdenlive:original.meta.attr.major_brand.markup">isom</property>
  <property name="kdenlive:original.meta.attr.minor_version.markup">512</property>
  <property name="kdenlive:original.meta.attr.compatible_brands.markup">isomiso2avc1mp41</property>
  <property name="kdenlive:original.meta.attr.encoder.markup">Lavf60.3.100</property>
  <property name="kdenlive:original.meta.attr.comment.markup">Rendered with Manim Community v0.17.2</property>
  <property name="kdenlive:original.seekable">1</property>
  <property name="kdenlive:original.width">3840</property>
  <property name="kdenlive:original.height">2160</property>
  <property name="kdenlive:original.meta.media.sample_aspect_num">1</property>
  <property name="kdenlive:original.meta.media.sample_aspect_den">1</property>
  <property name="kdenlive:original.aspect_ratio">1</property>
  <property name="kdenlive:original.format">3</property>
  <property name="kdenlive:original.audio_index">-1</property>
  <property name="kdenlive:original.video_index">0</property>
  <property name="kdenlive:original.mute_on_pause">0</property>
  <property name="kdenlive:original.mlt_service">avformat-novalidate</property>
  <property name="kdenlive:original.meta.media.frame_rate_num">60</property>
  <property name="kdenlive:original.meta.media.frame_rate_den">1</property>
  <property name="kdenlive:original.meta.media.colorspace">709</property>
  <property name="kdenlive:original.meta.media.color_trc">2</property>
  <property name="kdenlive:original.meta.media.has_b_frames">2</property>
  <property name="kdenlive:original.meta.media.width">3840</property>
  <property name="kdenlive:original.meta.media.height">2160</property>
  <property name="kdenlive:original.meta.media.color_range">mpeg</property>
  <property name="kdenlive:original.meta.media.top_field_first">0</property>
  <property name="kdenlive:original.meta.media.progressive">1</property>
  <property name="kdenlive:original.kdenlive:clip_type">2</property>
  <property name="kdenlive:original.kdenlive:folderid">528</property>
  <property name="kdenlive:original.kdenlive:id">564</property>
  <property name="kdenlive:original.kdenlive:file_size">125417</property>
  <property name="kdenlive:original.kdenlive:file_hash">6c6c689df9d6bb60931861e92b5775e4</property>
  <property name="kdenlive:original.backup">1</property>
  <property name="xml">was here</property>
  <property name="meta.media.frame_rate_num">60</property>
  <property name="meta.media.frame_rate_den">1</property>
  <property name="meta.media.colorspace">601</property>
  <property name="meta.media.color_trc">2</property>
  <property name="meta.media.has_b_frames">0</property>
  <property name="meta.media.width">640</property>
  <property name="meta.media.height">360</property>
  <property name="meta.media.color_range">full</property>
  <property name="meta.media.top_field_first">0</property>
  <property name="meta.media.progressive">1</property>
  <property name="set.test_audio">1</property>
  <property name="set.test_image">0</property>
 </producer>
 <producer id="producer541" in="00:00:00.000" out="00:00:00.983">
  <property name="length">60</property>
  <property name="eof">pause</property>
  <property name="resource">/home/xiaoxiae/.cache/kdenlive/proxy/e9b069a1398137706e48a08c4928c7c0.mkv</property>
  <property name="audio_index">-1</property>
  <property name="video_index">0</property>
  <property name="mute_on_pause">0</property>
  <property name="mlt_service">avformat-novalidate</property>
  <property name="meta.media.nb_streams">1</property>
  <property name="meta.media.0.stream.type">video</property>
  <property name="meta.media.0.stream.frame_rate">60</property>
  <property name="meta.media.0.stream.sample_aspect_ratio">0</property>
  <property name="meta.media.0.codec.width">640</property>
  <property name="meta.media.0.codec.height">360</property>
  <property name="meta.media.0.codec.rotate">0</property>
  <property name="meta.media.0.codec.pix_fmt">yuvj420p</property>
  <property name="meta.media.0.codec.sample_aspect_ratio">0</property>
  <property name="meta.media.0.codec.colorspace">601</property>
  <property name="meta.media.0.codec.name">mjpeg</property>
  <property name="meta.media.0.codec.long_name">MJPEG (Motion JPEG)</property>
  <property name="meta.media.0.codec.bit_rate">0</property>
  <property name="meta.attr.0.stream.HANDLER_NAME.markup">VideoHandler</property>
  <property name="meta.attr.0.stream.VENDOR_ID.markup">[0][0][0][0]</property>
  <property name="meta.attr.0.stream.ENCODER.markup">Lavc60.3.100 mjpeg</property>
  <property name="meta.attr.0.stream.DURATION.markup">00:00:01.000000000</property>
  <property name="meta.attr.COMMENT.markup">Rendered with Manim Community v0.17.2</property>
  <property name="meta.attr.MAJOR_BRAND.markup">isom</property>
  <property name="meta.attr.MINOR_VERSION.markup">512</property>
  <property name="meta.attr.COMPATIBLE_BRANDS.markup">isomiso2avc1mp41</property>
  <property name="meta.attr.ENCODER.markup">Lavf60.3.100</property>
  <property name="seekable">1</property>
  <property name="meta.media.sample_aspect_num">1</property>
  <property name="meta.media.sample_aspect_den">1</property>
  <property name="aspect_ratio">1</property>
  <property name="format">3</property>
  <property name="kdenlive:clipname">10.mp4</property>
  <property name="kdenlive:clip_type">2</property>
  <property name="kdenlive:folderid">528</property>
  <property name="kdenlive:id">420</property>
  <property name="kdenlive:file_size">81031</property>
  <property name="kdenlive:file_hash">e9b069a1398137706e48a08c4928c7c0</property>
  <property name="kdenlive:proxy">/home/xiaoxiae/.cache/kdenlive/proxy/e9b069a1398137706e48a08c4928c7c0.mkv</property>
  <property name="kdenlive:originalurl">video/Intro/10.mp4</property>
  <property name="kdenlive:original.mlt_type">producer</property>
  <property name="kdenlive:original.in">00:00:00.000</property>
  <property name="kdenlive:original.out">00:00:00.983</property>
  <property name="kdenlive:original.length">60</property>
  <property name="kdenlive:original.eof">pause</property>
  <property name="kdenlive:original.resource">video/Intro/10.mp4</property>
  <property name="kdenlive:original.meta.media.nb_streams">1</property>
  <property name="kdenlive:original.meta.media.0.stream.type">video</property>
  <property name="kdenlive:original.meta.media.0.stream.frame_rate">60</property>
  <property name="kdenlive:original.meta.media.0.stream.sample_aspect_ratio">0</property>
  <property name="kdenlive:original.meta.media.0.codec.width">3840</property>
  <property name="kdenlive:original.meta.media.0.codec.height">2160</property>
  <property name="kdenlive:original.meta.media.0.codec.rotate">0</property>
  <property name="kdenlive:original.meta.media.0.codec.pix_fmt">yuv420p</property>
  <property name="kdenlive:original.meta.media.0.codec.sample_aspect_ratio">0</property>
  <property name="kdenlive:original.meta.media.0.codec.colorspace">709</property>
  <property name="kdenlive:original.meta.media.0.codec.name">h264</property>
  <property name="kdenlive:original.meta.media.0.codec.long_name">H.264 / AVC / MPEG-4 AVC / MPEG-4 part 10</property>
  <property name="kdenlive:original.meta.media.0.codec.bit_rate">635328</property>
  <property name="kdenlive:original.meta.attr.0.stream.handler_name.markup">VideoHandler</property>
  <property name="kdenlive:original.meta.attr.0.stream.vendor_id.markup">[0][0][0][0]</property>
  <property name="kdenlive:original.meta.attr.0.stream.encoder.markup">Lavc60.3.100 libx264</property>
  <property name="kdenlive:original.meta.attr.major_brand.markup">isom</property>
  <property name="kdenlive:original.meta.attr.minor_version.markup">512</property>
  <property name="kdenlive:original.meta.attr.compatible_brands.markup">isomiso2avc1mp41</property>
  <property name="kdenlive:original.meta.attr.encoder.markup">Lavf60.3.100</property>
  <property name="kdenlive:original.meta.attr.comment.markup">Rendered with Manim Community v0.17.2</property>
  <property name="kdenlive:original.seekable">1</property>
  <property name="kdenlive:original.width">3840</property>
  <property name="kdenlive:original.height">2160</property>
  <property name="kdenlive:original.meta.media.sample_aspect_num">1</property>
  <property name="kdenlive:original.meta.media.sample_aspect_den">1</property>
  <property name="kdenlive:original.aspect_ratio">1</property>
  <property name="kdenlive:original.format">3</property>
  <property name="kdenlive:original.audio_index">-1</property>
  <property name="kdenlive:original.video_index">0</property>
  <property name="kdenlive:original.mute_on_pause">0</property>
  <property name="kdenlive:original.mlt_service">avformat-novalidate</property>
  <property name="kdenlive:original.meta.media.frame_rate_num">60</property>
  <property name="kdenlive:original.meta.media.frame_rate_den">1</property>
  <property name="kdenlive:original.meta.media.colorspace">709</property>
  <property name="kdenlive:original.meta.media.color_trc">2</property>
  <property name="kdenlive:original.meta.media.has_b_frames">2</property>
  <property name="kdenlive:original.meta.media.width">3840</property>
  <property name="kdenlive:original.meta.media.height">2160</property>
  <property name="kdenlive:original.meta.media.color_range">mpeg</property>
  <property name="kdenlive:original.meta.media.top_field_first">0</property>
  <property name="kdenlive:original.meta.media.progressive">1</property>
  <property name="kdenlive:original.kdenlive:clip_type">2</property>
  <property name="kdenlive:original.kdenlive:folderid">528</property>
  <property name="kdenlive:original.kdenlive:id">530</property>
  <property name="kdenlive:original.kdenlive:file_size">81031</property>
  <property name="kdenlive:original.kdenlive:file_hash">e9b069a1398137706e48a08c4928c7c0</property>
  <property name="kdenlive:original.backup">1</property>
  <property name="xml">was here</property>
  <property name="meta.media.frame_rate_num">60</property>
  <property name="meta.media.frame_rate_den">1</property>
  <property name="meta.media.colorspace">601</property>
  <property name="meta.media.color_trc">2</property>
  <property name="meta.media.has_b_frames">0</property>
  <property name="meta.media.width">640</property>
  <property name="meta.media.height">360</property>
  <property name="meta.media.color_range">full</property>
  <property name="meta.media.top_field_first">0</property>
  <property name="meta.media.progressive">1</property>
  <property name="set.test_audio">1</property>
  <property name="set.test_image">0</property>
 </producer>
 <producer id="producer542" in="00:00:00.000" out="00:00:00.983">
  <property name="length">60</property>
  <property name="eof">pause</property>
  <property name="resource">/home/xiaoxiae/.cache/kdenlive/proxy/e29974581129966c933b4f08890a34aa.mkv</property>
  <property name="audio_index">-1</property>
  <property name="video_index">0</property>
  <property name="mute_on_pause">0</property>
  <property name="mlt_service">avformat-novalidate</property>
  <property name="meta.media.nb_streams">1</property>
  <property name="meta.media.0.stream.type">video</property>
  <property name="meta.media.0.stream.frame_rate">60</property>
  <property name="meta.media.0.stream.sample_aspect_ratio">0</property>
  <property name="meta.media.0.codec.width">640</property>
  <property name="meta.media.0.codec.height">360</property>
  <property name="meta.media.0.codec.rotate">0</property>
  <property name="meta.media.0.codec.pix_fmt">yuvj420p</property>
  <property name="meta.media.0.codec.sample_aspect_ratio">0</property>
  <property name="meta.media.0.codec.colorspace">601</property>
  <property name="meta.media.0.codec.name">mjpeg</property>
  <property name="meta.media.0.codec.long_name">MJPEG (Motion JPEG)</property>
  <property name="meta.media.0.codec.bit_rate">0</property>
  <property name="meta.attr.0.stream.HANDLER_NAME.markup">VideoHandler</property>
  <property name="meta.attr.0.stream.VENDOR_ID.markup">[0][0][0][0]</property>
  <property name="meta.attr.0.stream.ENCODER.markup">Lavc60.3.100 mjpeg</property>
  <property name="meta.attr.0.stream.DURATION.markup">00:00:01.000000000</property>
  <property name="meta.attr.COMMENT.markup">Rendered with Manim Community v0.17.2</property>
  <property name="meta.attr.MAJOR_BRAND.markup">isom</property>
  <property name="meta.attr.MINOR_VERSION.markup">512</property>
  <property name="meta.attr.COMPATIBLE_BRANDS.markup">isomiso2avc1mp41</property>
  <property name="meta.attr.ENCODER.markup">Lavf60.3.100</property>
  <property name="seekable">1</property>
  <property name="meta.media.sample_aspect_num">1</property>
  <property name="meta.media.sample_aspect_den">1</property>
  <property name="aspect_ratio">1</property>
  <property name="format">3</property>
  <property name="kdenlive:clipname">11.mp4</property>
  <property name="kdenlive:clip_type">2</property>
  <property name="kdenlive:folderid">528</property>
  <property name="kdenlive:id">421</property>
  <property name="kdenlive:file_size">66317</property>
  <property name="kdenlive:file_hash">e29974581129966c933b4f08890a34aa</property>
  <property name="kdenlive:proxy">/home/xiaoxiae/.cache/kdenlive/proxy/e29974581129966c933b4f08890a34aa.mkv</property>
  <property name="kdenlive:originalurl">video/Intro/11.mp4</property>
  <property name="kdenlive:original.mlt_type">producer</property>
  <property name="kdenlive:original.in">00:00:00.000</property>
  <property name="kdenlive:original.out">00:00:00.983</property>
  <property name="kdenlive:original.length">60</property>
  <property name="kdenlive:original.eof">pause</property>
  <property name="kdenlive:original.resource">video/Intro/11.mp4</property>
  <property name="kdenlive:original.meta.media.nb_streams">1</property>
  <property name="kdenlive:original.meta.media.0.stream.type">video</property>
  <property name="kdenlive:original.meta.media.0.stream.frame_rate">60</property>
  <property name="kdenlive:original.meta.media.0.stream.sample_aspect_ratio">0</property>
  <property name="kdenlive:original.meta.media.0.codec.width">3840</property>
  <property name="kdenlive:original.meta.media.0.codec.height">2160</property>
  <property name="kdenlive:original.meta.media.0.codec.rotate">0</property>
  <property name="kdenlive:original.meta.media.0.codec.pix_fmt">yuv420p</property>
  <property name="kdenlive:original.meta.media.0.codec.sample_aspect_ratio">0</property>
  <property name="kdenlive:original.meta.media.0.codec.colorspace">709</property>
  <property name="kdenlive:original.meta.media.0.codec.name">h264</property>
  <property name="kdenlive:original.meta.media.0.codec.long_name">H.264 / AVC / MPEG-4 AVC / MPEG-4 part 10</property>
  <property name="kdenlive:original.meta.media.0.codec.bit_rate">517488</property>
  <property name="kdenlive:original.meta.attr.0.stream.handler_name.markup">VideoHandler</property>
  <property name="kdenlive:original.meta.attr.0.stream.vendor_id.markup">[0][0][0][0]</property>
  <property name="kdenlive:original.meta.attr.0.stream.encoder.markup">Lavc60.3.100 libx264</property>
  <property name="kdenlive:original.meta.attr.major_brand.markup">isom</property>
  <property name="kdenlive:original.meta.attr.minor_version.markup">512</property>
  <property name="kdenlive:original.meta.attr.compatible_brands.markup">isomiso2avc1mp41</property>
  <property name="kdenlive:original.meta.attr.encoder.markup">Lavf60.3.100</property>
  <property name="kdenlive:original.meta.attr.comment.markup">Rendered with Manim Community v0.17.2</property>
  <property name="kdenlive:original.seekable">1</property>
  <property name="kdenlive:original.width">3840</property>
  <property name="kdenlive:original.height">2160</property>
  <property name="kdenlive:original.meta.media.sample_aspect_num">1</property>
  <property name="kdenlive:original.meta.media.sample_aspect_den">1</property>
  <property name="kdenlive:original.aspect_ratio">1</property>
  <property name="kdenlive:original.format">3</property>
  <property name="kdenlive:original.audio_index">-1</property>
  <property name="kdenlive:original.video_index">0</property>
  <property name="kdenlive:original.mute_on_pause">0</property>
  <property name="kdenlive:original.mlt_service">avformat-novalidate</property>
  <property name="kdenlive:original.meta.media.frame_rate_num">60</property>
  <property name="kdenlive:original.meta.media.frame_rate_den">1</property>
  <property name="kdenlive:original.meta.media.colorspace">709</property>
  <property name="kdenlive:original.meta.media.color_trc">2</property>
  <property name="kdenlive:original.meta.media.has_b_frames">2</property>
  <property name="kdenlive:original.meta.media.width">3840</property>
  <property name="kdenlive:original.meta.media.height">2160</property>
  <property name="kdenlive:original.meta.media.color_range">mpeg</property>
  <property name="kdenlive:original.meta.media.top_field_first">0</property>
  <property name="kdenlive:original.meta.media.progressive">1</property>
  <property name="kdenlive:original.kdenlive:clip_type">2</property>
  <property name="kdenlive:original.kdenlive:folderid">528</property>
  <property name="kdenlive:original.kdenlive:id">531</property>
  <property name="kdenlive:original.kdenlive:file_size">66317</property>
  <property name="kdenlive:original.kdenlive:file_hash">e29974581129966c933b4f08890a34aa</property>
  <property name="kdenlive:original.backup">1</property>
  <property name="xml">was here</property>
  <property name="meta.media.frame_rate_num">60</property>
  <property name="meta.media.frame_rate_den">1</property>
  <property name="meta.media.colorspace">601</property>
  <property name="meta.media.color_trc">2</property>
  <property name="meta.media.has_b_frames">0</property>
  <property name="meta.media.width">640</property>
  <property name="meta.media.height">360</property>
  <property name="meta.media.color_range">full</property>
  <property name="meta.media.top_field_first">0</property>
  <property name="meta.media.progressive">1</property>
  <property name="set.test_audio">1</property>
  <property name="set.test_image">0</property>
 </producer>
 <producer id="producer543" in="00:00:00.000" out="00:00:00.983">
  <property name="length">60</property>
  <property name="eof">pause</property>
  <property name="resource">/home/xiaoxiae/.cache/kdenlive/proxy/2e1239884f8d15a2a8ad05ae35f57f5e.mkv</property>
  <property name="audio_index">-1</property>
  <property name="video_index">0</property>
  <property name="mute_on_pause">0</property>
  <property name="mlt_service">avformat-novalidate</property>
  <property name="meta.media.nb_streams">1</property>
  <property name="meta.media.0.stream.type">video</property>
  <property name="meta.media.0.stream.frame_rate">60</property>
  <property name="meta.media.0.stream.sample_aspect_ratio">0</property>
  <property name="meta.media.0.codec.width">640</property>
  <property name="meta.media.0.codec.height">360</property>
  <property name="meta.media.0.codec.rotate">0</property>
  <property name="meta.media.0.codec.pix_fmt">yuvj420p</property>
  <property name="meta.media.0.codec.sample_aspect_ratio">0</property>
  <property name="meta.media.0.codec.colorspace">601</property>
  <property name="meta.media.0.codec.name">mjpeg</property>
  <property name="meta.media.0.codec.long_name">MJPEG (Motion JPEG)</property>
  <property name="meta.media.0.codec.bit_rate">0</property>
  <property name="meta.attr.0.stream.HANDLER_NAME.markup">VideoHandler</property>
  <property name="meta.attr.0.stream.VENDOR_ID.markup">[0][0][0][0]</property>
  <property name="meta.attr.0.stream.ENCODER.markup">Lavc60.3.100 mjpeg</property>
  <property name="meta.attr.0.stream.DURATION.markup">00:00:01.000000000</property>
  <property name="meta.attr.COMMENT.markup">Rendered with Manim Community v0.17.2</property>
  <property name="meta.attr.MAJOR_BRAND.markup">isom</property>
  <property name="meta.attr.MINOR_VERSION.markup">512</property>
  <property name="meta.attr.COMPATIBLE_BRANDS.markup">isomiso2avc1mp41</property>
  <property name="meta.attr.ENCODER.markup">Lavf60.3.100</property>
  <property name="seekable">1</property>
  <property name="meta.media.sample_aspect_num">1</property>
  <property name="meta.media.sample_aspect_den">1</property>
  <property name="aspect_ratio">1</property>
  <property name="format">3</property>
  <property name="kdenlive:clipname">12.mp4</property>
  <property name="kdenlive:clip_type">2</property>
  <property name="kdenlive:folderid">528</property>
  <property name="kdenlive:id">422</property>
  <property name="kdenlive:file_size">150764</property>
  <property name="kdenlive:file_hash">2e1239884f8d15a2a8ad05ae35f57f5e</property>
  <property name="kdenlive:proxy">/home/xiaoxiae/.cache/kdenlive/proxy/2e1239884f8d15a2a8ad05ae35f57f5e.mkv</property>
  <property name="kdenlive:originalurl">video/Intro/12.mp4</property>
  <property name="kdenlive:original.mlt_type">producer</property>
  <property name="kdenlive:original.in">00:00:00.000</property>
  <property name="kdenlive:original.out">00:00:00.983</property>
  <property name="kdenlive:original.length">60</property>
  <property name="kdenlive:original.eof">pause</property>
  <property name="kdenlive:original.resource">video/Intro/12.mp4</property>
  <property name="kdenlive:original.meta.media.nb_streams">1</property>
  <property name="kdenlive:original.meta.media.0.stream.type">video</property>
  <property name="kdenlive:original.meta.media.0.stream.frame_rate">60</property>
  <property name="kdenlive:original.meta.media.0.stream.sample_aspect_ratio">0</property>
  <property name="kdenlive:original.meta.media.0.codec.width">3840</property>
  <property name="kdenlive:original.meta.media.0.codec.height">2160</property>
  <property name="kdenlive:original.meta.media.0.codec.rotate">0</property>
  <property name="kdenlive:original.meta.media.0.codec.pix_fmt">yuv420p</property>
  <property name="kdenlive:original.meta.media.0.codec.sample_aspect_ratio">0</property>
  <property name="kdenlive:original.meta.media.0.codec.colorspace">709</property>
  <property name="kdenlive:original.meta.media.0.codec.name">h264</property>
  <property name="kdenlive:original.meta.media.0.codec.long_name">H.264 / AVC / MPEG-4 AVC / MPEG-4 part 10</property>
  <property name="kdenlive:original.meta.media.0.codec.bit_rate">1193320</property>
  <property name="kdenlive:original.meta.attr.0.stream.handler_name.markup">VideoHandler</property>
  <property name="kdenlive:original.meta.attr.0.stream.vendor_id.markup">[0][0][0][0]</property>
  <property name="kdenlive:original.meta.attr.0.stream.encoder.markup">Lavc60.3.100 libx264</property>
  <property name="kdenlive:original.meta.attr.major_brand.markup">isom</property>
  <property name="kdenlive:original.meta.attr.minor_version.markup">512</property>
  <property name="kdenlive:original.meta.attr.compatible_brands.markup">isomiso2avc1mp41</property>
  <property name="kdenlive:original.meta.attr.encoder.markup">Lavf60.3.100</property>
  <property name="kdenlive:original.meta.attr.comment.markup">Rendered with Manim Community v0.17.2</property>
  <property name="kdenlive:original.seekable">1</property>
  <property name="kdenlive:original.width">3840</property>
  <property name="kdenlive:original.height">2160</property>
  <property name="kdenlive:original.meta.media.sample_aspect_num">1</property>
  <property name="kdenlive:original.meta.media.sample_aspect_den">1</property>
  <property name="kdenlive:original.aspect_ratio">1</property>
  <property name="kdenlive:original.format">3</property>
  <property name="kdenlive:original.audio_index">-1</property>
  <property name="kdenlive:original.video_index">0</property>
  <property name="kdenlive:original.mute_on_pause">0</property>
  <property name="kdenlive:original.mlt_service">avformat-novalidate</property>
  <property name="kdenlive:original.meta.media.frame_rate_num">60</property>
  <property name="kdenlive:original.meta.media.frame_rate_den">1</property>
  <property name="kdenlive:original.meta.media.colorspace">709</property>
  <property name="kdenlive:original.meta.media.color_trc">2</property>
  <property name="kdenlive:original.meta.media.has_b_frames">2</property>
  <property name="kdenlive:original.meta.media.width">3840</property>
  <property name="kdenlive:original.meta.media.height">2160</property>
  <property name="kdenlive:original.meta.media.color_range">mpeg</property>
  <property name="kdenlive:original.meta.media.top_field_first">0</property>
  <property name="kdenlive:original.meta.media.progressive">1</property>
  <property name="kdenlive:original.kdenlive:clip_type">2</property>
  <property name="kdenlive:original.kdenlive:folderid">528</property>
  <property name="kdenlive:original.kdenlive:id">532</property>
  <property name="kdenlive:original.kdenlive:file_size">150764</property>
  <property name="kdenlive:original.kdenlive:file_hash">2e1239884f8d15a2a8ad05ae35f57f5e</property>
  <property name="kdenlive:original.backup">1</property>
  <property name="xml">was here</property>
  <property name="meta.media.frame_rate_num">60</property>
  <property name="meta.media.frame_rate_den">1</property>
  <property name="meta.media.colorspace">601</property>
  <property name="meta.media.color_trc">2</property>
  <property name="meta.media.has_b_frames">0</property>
  <property name="meta.media.width">640</property>
  <property name="meta.media.height">360</property>
  <property name="meta.media.color_range">full</property>
  <property name="meta.media.top_field_first">0</property>
  <property name="meta.media.progressive">1</property>
  <property name="set.test_audio">1</property>
  <property name="set.test_image">0</property>
 </producer>
 <producer id="producer544" in="00:00:00.000" out="00:00:00.983">
  <property name="length">60</property>
  <property name="eof">pause</property>
  <property name="resource">/home/xiaoxiae/.cache/kdenlive/proxy/5cdb988946902d19163e18bb1bce26ea.mkv</property>
  <property name="audio_index">-1</property>
  <property name="video_index">0</property>
  <property name="mute_on_pause">0</property>
  <property name="mlt_service">avformat-novalidate</property>
  <property name="meta.media.nb_streams">1</property>
  <property name="meta.media.0.stream.type">video</property>
  <property name="meta.media.0.stream.frame_rate">60</property>
  <property name="meta.media.0.stream.sample_aspect_ratio">0</property>
  <property name="meta.media.0.codec.width">640</property>
  <property name="meta.media.0.codec.height">360</property>
  <property name="meta.media.0.codec.rotate">0</property>
  <property name="meta.media.0.codec.pix_fmt">yuvj420p</property>
  <property name="meta.media.0.codec.sample_aspect_ratio">0</property>
  <property name="meta.media.0.codec.colorspace">601</property>
  <property name="meta.media.0.codec.name">mjpeg</property>
  <property name="meta.media.0.codec.long_name">MJPEG (Motion JPEG)</property>
  <property name="meta.media.0.codec.bit_rate">0</property>
  <property name="meta.attr.0.stream.HANDLER_NAME.markup">VideoHandler</property>
  <property name="meta.attr.0.stream.VENDOR_ID.markup">[0][0][0][0]</property>
  <property name="meta.attr.0.stream.ENCODER.markup">Lavc60.3.100 mjpeg</property>
  <property name="meta.attr.0.stream.DURATION.markup">00:00:01.000000000</property>
  <property name="meta.attr.COMMENT.markup">Rendered with Manim Community v0.17.2</property>
  <property name="meta.attr.MAJOR_BRAND.markup">isom</property>
  <property name="meta.attr.MINOR_VERSION.markup">512</property>
  <property name="meta.attr.COMPATIBLE_BRANDS.markup">isomiso2avc1mp41</property>
  <property name="meta.attr.ENCODER.markup">Lavf60.3.100</property>
  <property name="seekable">1</property>
  <property name="meta.media.sample_aspect_num">1</property>
  <property name="meta.media.sample_aspect_den">1</property>
  <property name="aspect_ratio">1</property>
  <property name="format">3</property>
  <property name="kdenlive:clipname">13.mp4</property>
  <property name="kdenlive:clip_type">2</property>
  <property name="kdenlive:folderid">528</property>
  <property name="kdenlive:id">423</property>
  <property name="kdenlive:file_size">71400</property>
  <property name="kdenlive:file_hash">5cdb988946902d19163e18bb1bce26ea</property>
  <property name="kdenlive:proxy">/home/xiaoxiae/.cache/kdenlive/proxy/5cdb988946902d19163e18bb1bce26ea.mkv</property>
  <property name="kdenlive:originalurl">video/Intro/13.mp4</property>
  <property name="kdenlive:original.mlt_type">producer</property>
  <property name="kdenlive:original.in">00:00:00.000</property>
  <property name="kdenlive:original.out">00:00:00.983</property>
  <property name="kdenlive:original.length">60</property>
  <property name="kdenlive:original.eof">pause</property>
  <property name="kdenlive:original.resource">video/Intro/13.mp4</property>
  <property name="kdenlive:original.meta.media.nb_streams">1</property>
  <property name="kdenlive:original.meta.media.0.stream.type">video</property>
  <property name="kdenlive:original.meta.media.0.stream.frame_rate">60</property>
  <property name="kdenlive:original.meta.media.0.stream.sample_aspect_ratio">0</property>
  <property name="kdenlive:original.meta.media.0.codec.width">3840</property>
  <property name="kdenlive:original.meta.media.0.codec.height">2160</property>
  <property name="kdenlive:original.meta.media.0.codec.rotate">0</property>
  <property name="kdenlive:original.meta.media.0.codec.pix_fmt">yuv420p</property>
  <property name="kdenlive:original.meta.media.0.codec.sample_aspect_ratio">0</property>
  <property name="kdenlive:original.meta.media.0.codec.colorspace">709</property>
  <property name="kdenlive:original.meta.media.0.codec.name">h264</property>
  <property name="kdenlive:original.meta.media.0.codec.long_name">H.264 / AVC / MPEG-4 AVC / MPEG-4 part 10</property>
  <property name="kdenlive:original.meta.media.0.codec.bit_rate">558152</property>
  <property name="kdenlive:original.meta.attr.0.stream.handler_name.markup">VideoHandler</property>
  <property name="kdenlive:original.meta.attr.0.stream.vendor_id.markup">[0][0][0][0]</property>
  <property name="kdenlive:original.meta.attr.0.stream.encoder.markup">Lavc60.3.100 libx264</property>
  <property name="kdenlive:original.meta.attr.major_brand.markup">isom</property>
  <property name="kdenlive:original.meta.attr.minor_version.markup">512</property>
  <property name="kdenlive:original.meta.attr.compatible_brands.markup">isomiso2avc1mp41</property>
  <property name="kdenlive:original.meta.attr.encoder.markup">Lavf60.3.100</property>
  <property name="kdenlive:original.meta.attr.comment.markup">Rendered with Manim Community v0.17.2</property>
  <property name="kdenlive:original.seekable">1</property>
  <property name="kdenlive:original.width">3840</property>
  <property name="kdenlive:original.height">2160</property>
  <property name="kdenlive:original.meta.media.sample_aspect_num">1</property>
  <property name="kdenlive:original.meta.media.sample_aspect_den">1</property>
  <property name="kdenlive:original.aspect_ratio">1</property>
  <property name="kdenlive:original.format">3</property>
  <property name="kdenlive:original.audio_index">-1</property>
  <property name="kdenlive:original.video_index">0</property>
  <property name="kdenlive:original.mute_on_pause">0</property>
  <property name="kdenlive:original.mlt_service">avformat-novalidate</property>
  <property name="kdenlive:original.meta.media.frame_rate_num">60</property>
  <property name="kdenlive:original.meta.media.frame_rate_den">1</property>
  <property name="kdenlive:original.meta.media.colorspace">709</property>
  <property name="kdenlive:original.meta.media.color_trc">2</property>
  <property name="kdenlive:original.meta.media.has_b_frames">2</property>
  <property name="kdenlive:original.meta.media.width">3840</property>
  <property name="kdenlive:original.meta.media.height">2160</property>
  <property name="kdenlive:original.meta.media.color_range">mpeg</property>
  <property name="kdenlive:original.meta.media.top_field_first">0</property>
  <property name="kdenlive:original.meta.media.progressive">1</property>
  <property name="kdenlive:original.kdenlive:clip_type">2</property>
  <property name="kdenlive:original.kdenlive:folderid">528</property>
  <property name="kdenlive:original.kdenlive:id">533</property>
  <property name="kdenlive:original.kdenlive:file_size">71400</property>
  <property name="kdenlive:original.kdenlive:file_hash">5cdb988946902d19163e18bb1bce26ea</property>
  <property name="kdenlive:original.backup">1</property>
  <property name="xml">was here</property>
  <property name="meta.media.frame_rate_num">60</property>
  <property name="meta.media.frame_rate_den">1</property>
  <property name="meta.media.colorspace">601</property>
  <property name="meta.media.color_trc">2</property>
  <property name="meta.media.has_b_frames">0</property>
  <property name="meta.media.width">640</property>
  <property name="meta.media.height">360</property>
  <property name="meta.media.color_range">full</property>
  <property name="meta.media.top_field_first">0</property>
  <property name="meta.media.progressive">1</property>
  <property name="set.test_audio">1</property>
  <property name="set.test_image">0</property>
 </producer>
 <producer id="producer545" in="00:00:00.000" out="00:00:00.983">
  <property name="length">60</property>
  <property name="eof">pause</property>
  <property name="resource">/home/xiaoxiae/.cache/kdenlive/proxy/cb3314deb5d9fb11b4bdae3d273aca9e.mkv</property>
  <property name="audio_index">-1</property>
  <property name="video_index">0</property>
  <property name="mute_on_pause">0</property>
  <property name="mlt_service">avformat-novalidate</property>
  <property name="meta.media.nb_streams">1</property>
  <property name="meta.media.0.stream.type">video</property>
  <property name="meta.media.0.stream.frame_rate">60</property>
  <property name="meta.media.0.stream.sample_aspect_ratio">0</property>
  <property name="meta.media.0.codec.width">640</property>
  <property name="meta.media.0.codec.height">360</property>
  <property name="meta.media.0.codec.rotate">0</property>
  <property name="meta.media.0.codec.pix_fmt">yuvj420p</property>
  <property name="meta.media.0.codec.sample_aspect_ratio">0</property>
  <property name="meta.media.0.codec.colorspace">601</property>
  <property name="meta.media.0.codec.name">mjpeg</property>
  <property name="meta.media.0.codec.long_name">MJPEG (Motion JPEG)</property>
  <property name="meta.media.0.codec.bit_rate">0</property>
  <property name="meta.attr.0.stream.HANDLER_NAME.markup">VideoHandler</property>
  <property name="meta.attr.0.stream.VENDOR_ID.markup">[0][0][0][0]</property>
  <property name="meta.attr.0.stream.ENCODER.markup">Lavc60.3.100 mjpeg</property>
  <property name="meta.attr.0.stream.DURATION.markup">00:00:01.000000000</property>
  <property name="meta.attr.COMMENT.markup">Rendered with Manim Community v0.17.2</property>
  <property name="meta.attr.MAJOR_BRAND.markup">isom</property>
  <property name="meta.attr.MINOR_VERSION.markup">512</property>
  <property name="meta.attr.COMPATIBLE_BRANDS.markup">isomiso2avc1mp41</property>
  <property name="meta.attr.ENCODER.markup">Lavf60.3.100</property>
  <property name="seekable">1</property>
  <property name="meta.media.sample_aspect_num">1</property>
  <property name="meta.media.sample_aspect_den">1</property>
  <property name="aspect_ratio">1</property>
  <property name="format">3</property>
  <property name="kdenlive:clipname">14.mp4</property>
  <property name="kdenlive:clip_type">2</property>
  <property name="kdenlive:folderid">528</property>
  <property name="kdenlive:id">424</property>
  <property name="kdenlive:file_size">137335</property>
  <property name="kdenlive:file_hash">cb3314deb5d9fb11b4bdae3d273aca9e</property>
  <property name="kdenlive:proxy">/home/xiaoxiae/.cache/kdenlive/proxy/cb3314deb5d9fb11b4bdae3d273aca9e.mkv</property>
  <property name="kdenlive:originalurl">video/Intro/14.mp4</property>
  <property name="kdenlive:original.mlt_type">producer</property>
  <property name="kdenlive:original.in">00:00:00.000</property>
  <property name="kdenlive:original.out">00:00:00.983</property>
  <property name="kdenlive:original.length">60</property>
  <property name="kdenlive:original.eof">pause</property>
  <property name="kdenlive:original.resource">video/Intro/14.mp4</property>
  <property name="kdenlive:original.meta.media.nb_streams">1</property>
  <property name="kdenlive:original.meta.media.0.stream.type">video</property>
  <property name="kdenlive:original.meta.media.0.stream.frame_rate">60</property>
  <property name="kdenlive:original.meta.media.0.stream.sample_aspect_ratio">0</property>
  <property name="kdenlive:original.meta.media.0.codec.width">3840</property>
  <property name="kdenlive:original.meta.media.0.codec.height">2160</property>
  <property name="kdenlive:original.meta.media.0.codec.rotate">0</property>
  <property name="kdenlive:original.meta.media.0.codec.pix_fmt">yuv420p</property>
  <property name="kdenlive:original.meta.media.0.codec.sample_aspect_ratio">0</property>
  <property name="kdenlive:original.meta.media.0.codec.colorspace">709</property>
  <property name="kdenlive:original.meta.media.0.codec.name">h264</property>
  <property name="kdenlive:original.meta.media.0.codec.long_name">H.264 / AVC / MPEG-4 AVC / MPEG-4 part 10</property>
  <property name="kdenlive:original.meta.media.0.codec.bit_rate">1086208</property>
  <property name="kdenlive:original.meta.attr.0.stream.handler_name.markup">VideoHandler</property>
  <property name="kdenlive:original.meta.attr.0.stream.vendor_id.markup">[0][0][0][0]</property>
  <property name="kdenlive:original.meta.attr.0.stream.encoder.markup">Lavc60.3.100 libx264</property>
  <property name="kdenlive:original.meta.attr.major_brand.markup">isom</property>
  <property name="kdenlive:original.meta.attr.minor_version.markup">512</property>
  <property name="kdenlive:original.meta.attr.compatible_brands.markup">isomiso2avc1mp41</property>
  <property name="kdenlive:original.meta.attr.encoder.markup">Lavf60.3.100</property>
  <property name="kdenlive:original.meta.attr.comment.markup">Rendered with Manim Community v0.17.2</property>
  <property name="kdenlive:original.seekable">1</property>
  <property name="kdenlive:original.width">3840</property>
  <property name="kdenlive:original.height">2160</property>
  <property name="kdenlive:original.meta.media.sample_aspect_num">1</property>
  <property name="kdenlive:original.meta.media.sample_aspect_den">1</property>
  <property name="kdenlive:original.aspect_ratio">1</property>
  <property name="kdenlive:original.format">3</property>
  <property name="kdenlive:original.audio_index">-1</property>
  <property name="kdenlive:original.video_index">0</property>
  <property name="kdenlive:original.mute_on_pause">0</property>
  <property name="kdenlive:original.mlt_service">avformat-novalidate</property>
  <property name="kdenlive:original.meta.media.frame_rate_num">60</property>
  <property name="kdenlive:original.meta.media.frame_rate_den">1</property>
  <property name="kdenlive:original.meta.media.colorspace">709</property>
  <property name="kdenlive:original.meta.media.color_trc">2</property>
  <property name="kdenlive:original.meta.media.has_b_frames">2</property>
  <property name="kdenlive:original.meta.media.width">3840</property>
  <property name="kdenlive:original.meta.media.height">2160</property>
  <property name="kdenlive:original.meta.media.color_range">mpeg</property>
  <property name="kdenlive:original.meta.media.top_field_first">0</property>
  <property name="kdenlive:original.meta.media.progressive">1</property>
  <property name="kdenlive:original.kdenlive:clip_type">2</property>
  <property name="kdenlive:original.kdenlive:folderid">528</property>
  <property name="kdenlive:original.kdenlive:id">534</property>
  <property name="kdenlive:original.kdenlive:file_size">137335</property>
  <property name="kdenlive:original.kdenlive:file_hash">cb3314deb5d9fb11b4bdae3d273aca9e</property>
  <property name="kdenlive:original.backup">1</property>
  <property name="xml">was here</property>
  <property name="meta.media.frame_rate_num">60</property>
  <property name="meta.media.frame_rate_den">1</property>
  <property name="meta.media.colorspace">601</property>
  <property name="meta.media.color_trc">2</property>
  <property name="meta.media.has_b_frames">0</property>
  <property name="meta.media.width">640</property>
  <property name="meta.media.height">360</property>
  <property name="meta.media.color_range">full</property>
  <property name="meta.media.top_field_first">0</property>
  <property name="meta.media.progressive">1</property>
  <property name="set.test_audio">1</property>
  <property name="set.test_image">0</property>
 </producer>
 <producer id="producer546" in="00:00:00.000" out="00:00:00.983">
  <property name="length">60</property>
  <property name="eof">pause</property>
  <property name="resource">/home/xiaoxiae/.cache/kdenlive/proxy/5dd8c4618b98363212d4289d184bd02e.mkv</property>
  <property name="audio_index">-1</property>
  <property name="video_index">0</property>
  <property name="mute_on_pause">0</property>
  <property name="mlt_service">avformat-novalidate</property>
  <property name="meta.media.nb_streams">1</property>
  <property name="meta.media.0.stream.type">video</property>
  <property name="meta.media.0.stream.frame_rate">60</property>
  <property name="meta.media.0.stream.sample_aspect_ratio">0</property>
  <property name="meta.media.0.codec.width">640</property>
  <property name="meta.media.0.codec.height">360</property>
  <property name="meta.media.0.codec.rotate">0</property>
  <property name="meta.media.0.codec.pix_fmt">yuvj420p</property>
  <property name="meta.media.0.codec.sample_aspect_ratio">0</property>
  <property name="meta.media.0.codec.colorspace">601</property>
  <property name="meta.media.0.codec.name">mjpeg</property>
  <property name="meta.media.0.codec.long_name">MJPEG (Motion JPEG)</property>
  <property name="meta.media.0.codec.bit_rate">0</property>
  <property name="meta.attr.0.stream.HANDLER_NAME.markup">VideoHandler</property>
  <property name="meta.attr.0.stream.VENDOR_ID.markup">[0][0][0][0]</property>
  <property name="meta.attr.0.stream.ENCODER.markup">Lavc60.3.100 mjpeg</property>
  <property name="meta.attr.0.stream.DURATION.markup">00:00:01.000000000</property>
  <property name="meta.attr.COMMENT.markup">Rendered with Manim Community v0.17.2</property>
  <property name="meta.attr.MAJOR_BRAND.markup">isom</property>
  <property name="meta.attr.MINOR_VERSION.markup">512</property>
  <property name="meta.attr.COMPATIBLE_BRANDS.markup">isomiso2avc1mp41</property>
  <property name="meta.attr.ENCODER.markup">Lavf60.3.100</property>
  <property name="seekable">1</property>
  <property name="meta.media.sample_aspect_num">1</property>
  <property name="meta.media.sample_aspect_den">1</property>
  <property name="aspect_ratio">1</property>
  <property name="format">3</property>
  <property name="kdenlive:clipname">15.mp4</property>
  <property name="kdenlive:clip_type">2</property>
  <property name="kdenlive:folderid">528</property>
  <property name="kdenlive:id">425</property>
  <property name="kdenlive:file_size">83839</property>
  <property name="kdenlive:file_hash">5dd8c4618b98363212d4289d184bd02e</property>
  <property name="kdenlive:proxy">/home/xiaoxiae/.cache/kdenlive/proxy/5dd8c4618b98363212d4289d184bd02e.mkv</property>
  <property name="kdenlive:originalurl">video/Intro/15.mp4</property>
  <property name="kdenlive:original.mlt_type">producer</property>
  <property name="kdenlive:original.in">00:00:00.000</property>
  <property name="kdenlive:original.out">00:00:00.983</property>
  <property name="kdenlive:original.length">60</property>
  <property name="kdenlive:original.eof">pause</property>
  <property name="kdenlive:original.resource">video/Intro/15.mp4</property>
  <property name="kdenlive:original.meta.media.nb_streams">1</property>
  <property name="kdenlive:original.meta.media.0.stream.type">video</property>
  <property name="kdenlive:original.meta.media.0.stream.frame_rate">60</property>
  <property name="kdenlive:original.meta.media.0.stream.sample_aspect_ratio">0</property>
  <property name="kdenlive:original.meta.media.0.codec.width">3840</property>
  <property name="kdenlive:original.meta.media.0.codec.height">2160</property>
  <property name="kdenlive:original.meta.media.0.codec.rotate">0</property>
  <property name="kdenlive:original.meta.media.0.codec.pix_fmt">yuv420p</property>
  <property name="kdenlive:original.meta.media.0.codec.sample_aspect_ratio">0</property>
  <property name="kdenlive:original.meta.media.0.codec.colorspace">709</property>
  <property name="kdenlive:original.meta.media.0.codec.name">h264</property>
  <property name="kdenlive:original.meta.media.0.codec.long_name">H.264 / AVC / MPEG-4 AVC / MPEG-4 part 10</property>
  <property name="kdenlive:original.meta.media.0.codec.bit_rate">657856</property>
  <property name="kdenlive:original.meta.attr.0.stream.handler_name.markup">VideoHandler</property>
  <property name="kdenlive:original.meta.attr.0.stream.vendor_id.markup">[0][0][0][0]</property>
  <property name="kdenlive:original.meta.attr.0.stream.encoder.markup">Lavc60.3.100 libx264</property>
  <property name="kdenlive:original.meta.attr.major_brand.markup">isom</property>
  <property name="kdenlive:original.meta.attr.minor_version.markup">512</property>
  <property name="kdenlive:original.meta.attr.compatible_brands.markup">isomiso2avc1mp41</property>
  <property name="kdenlive:original.meta.attr.encoder.markup">Lavf60.3.100</property>
  <property name="kdenlive:original.meta.attr.comment.markup">Rendered with Manim Community v0.17.2</property>
  <property name="kdenlive:original.seekable">1</property>
  <property name="kdenlive:original.width">3840</property>
  <property name="kdenlive:original.height">2160</property>
  <property name="kdenlive:original.meta.media.sample_aspect_num">1</property>
  <property name="kdenlive:original.meta.media.sample_aspect_den">1</property>
  <property name="kdenlive:original.aspect_ratio">1</property>
  <property name="kdenlive:original.format">3</property>
  <property name="kdenlive:original.audio_index">-1</property>
  <property name="kdenlive:original.video_index">0</property>
  <property name="kdenlive:original.mute_on_pause">0</property>
  <property name="kdenlive:original.mlt_service">avformat-novalidate</property>
  <property name="kdenlive:original.meta.media.frame_rate_num">60</property>
  <property name="kdenlive:original.meta.media.frame_rate_den">1</property>
  <property name="kdenlive:original.meta.media.colorspace">709</property>
  <property name="kdenlive:original.meta.media.color_trc">2</property>
  <property name="kdenlive:original.meta.media.has_b_frames">2</property>
  <property name="kdenlive:original.meta.media.width">3840</property>
  <property name="kdenlive:original.meta.media.height">2160</property>
  <property name="kdenlive:original.meta.media.color_range">mpeg</property>
  <property name="kdenlive:original.meta.media.top_field_first">0</property>
  <property name="kdenlive:original.meta.media.progressive">1</property>
  <property name="kdenlive:original.kdenlive:clip_type">2</property>
  <property name="kdenlive:original.kdenlive:folderid">528</property>
  <property name="kdenlive:original.kdenlive:id">535</property>
  <property name="kdenlive:original.kdenlive:file_size">83839</property>
  <property name="kdenlive:original.kdenlive:file_hash">5dd8c4618b98363212d4289d184bd02e</property>
  <property name="kdenlive:original.backup">1</property>
  <property name="xml">was here</property>
  <property name="meta.media.frame_rate_num">60</property>
  <property name="meta.media.frame_rate_den">1</property>
  <property name="meta.media.colorspace">601</property>
  <property name="meta.media.color_trc">2</property>
  <property name="meta.media.has_b_frames">0</property>
  <property name="meta.media.width">640</property>
  <property name="meta.media.height">360</property>
  <property name="meta.media.color_range">full</property>
  <property name="meta.media.top_field_first">0</property>
  <property name="meta.media.progressive">1</property>
  <property name="set.test_audio">1</property>
  <property name="set.test_image">0</property>
 </producer>
 <producer id="producer547" in="00:00:00.000" out="00:00:00.983">
  <property name="length">60</property>
  <property name="eof">pause</property>
  <property name="resource">/home/xiaoxiae/.cache/kdenlive/proxy/b5c5fd6ab602edc6d78d2043a50d3760.mkv</property>
  <property name="audio_index">-1</property>
  <property name="video_index">0</property>
  <property name="mute_on_pause">0</property>
  <property name="mlt_service">avformat-novalidate</property>
  <property name="meta.media.nb_streams">1</property>
  <property name="meta.media.0.stream.type">video</property>
  <property name="meta.media.0.stream.frame_rate">60</property>
  <property name="meta.media.0.stream.sample_aspect_ratio">0</property>
  <property name="meta.media.0.codec.width">640</property>
  <property name="meta.media.0.codec.height">360</property>
  <property name="meta.media.0.codec.rotate">0</property>
  <property name="meta.media.0.codec.pix_fmt">yuvj420p</property>
  <property name="meta.media.0.codec.sample_aspect_ratio">0</property>
  <property name="meta.media.0.codec.colorspace">601</property>
  <property name="meta.media.0.codec.name">mjpeg</property>
  <property name="meta.media.0.codec.long_name">MJPEG (Motion JPEG)</property>
  <property name="meta.media.0.codec.bit_rate">0</property>
  <property name="meta.attr.0.stream.HANDLER_NAME.markup">VideoHandler</property>
  <property name="meta.attr.0.stream.VENDOR_ID.markup">[0][0][0][0]</property>
  <property name="meta.attr.0.stream.ENCODER.markup">Lavc60.3.100 mjpeg</property>
  <property name="meta.attr.0.stream.DURATION.markup">00:00:01.000000000</property>
  <property name="meta.attr.COMMENT.markup">Rendered with Manim Community v0.17.2</property>
  <property name="meta.attr.MAJOR_BRAND.markup">isom</property>
  <property name="meta.attr.MINOR_VERSION.markup">512</property>
  <property name="meta.attr.COMPATIBLE_BRANDS.markup">isomiso2avc1mp41</property>
  <property name="meta.attr.ENCODER.markup">Lavf60.3.100</property>
  <property name="seekable">1</property>
  <property name="meta.media.sample_aspect_num">1</property>
  <property name="meta.media.sample_aspect_den">1</property>
  <property name="aspect_ratio">1</property>
  <property name="format">3</property>
  <property name="kdenlive:clipname">16.mp4</property>
  <property name="kdenlive:clip_type">2</property>
  <property name="kdenlive:folderid">528</property>
  <property name="kdenlive:id">426</property>
  <property name="kdenlive:file_size">65308</property>
  <property name="kdenlive:file_hash">b5c5fd6ab602edc6d78d2043a50d3760</property>
  <property name="kdenlive:proxy">/home/xiaoxiae/.cache/kdenlive/proxy/b5c5fd6ab602edc6d78d2043a50d3760.mkv</property>
  <property name="kdenlive:originalurl">video/Intro/16.mp4</property>
  <property name="kdenlive:original.mlt_type">producer</property>
  <property name="kdenlive:original.in">00:00:00.000</property>
  <property name="kdenlive:original.out">00:00:00.983</property>
  <property name="kdenlive:original.length">60</property>
  <property name="kdenlive:original.eof">pause</property>
  <property name="kdenlive:original.resource">video/Intro/16.mp4</property>
  <property name="kdenlive:original.meta.media.nb_streams">1</property>
  <property name="kdenlive:original.meta.media.0.stream.type">video</property>
  <property name="kdenlive:original.meta.media.0.stream.frame_rate">60</property>
  <property name="kdenlive:original.meta.media.0.stream.sample_aspect_ratio">0</property>
  <property name="kdenlive:original.meta.media.0.codec.width">3840</property>
  <property name="kdenlive:original.meta.media.0.codec.height">2160</property>
  <property name="kdenlive:original.meta.media.0.codec.rotate">0</property>
  <property name="kdenlive:original.meta.media.0.codec.pix_fmt">yuv420p</property>
  <property name="kdenlive:original.meta.media.0.codec.sample_aspect_ratio">0</property>
  <property name="kdenlive:original.meta.media.0.codec.colorspace">709</property>
  <property name="kdenlive:original.meta.media.0.codec.name">h264</property>
  <property name="kdenlive:original.meta.media.0.codec.long_name">H.264 / AVC / MPEG-4 AVC / MPEG-4 part 10</property>
  <property name="kdenlive:original.meta.media.0.codec.bit_rate">509416</property>
  <property name="kdenlive:original.meta.attr.0.stream.handler_name.markup">VideoHandler</property>
  <property name="kdenlive:original.meta.attr.0.stream.vendor_id.markup">[0][0][0][0]</property>
  <property name="kdenlive:original.meta.attr.0.stream.encoder.markup">Lavc60.3.100 libx264</property>
  <property name="kdenlive:original.meta.attr.major_brand.markup">isom</property>
  <property name="kdenlive:original.meta.attr.minor_version.markup">512</property>
  <property name="kdenlive:original.meta.attr.compatible_brands.markup">isomiso2avc1mp41</property>
  <property name="kdenlive:original.meta.attr.encoder.markup">Lavf60.3.100</property>
  <property name="kdenlive:original.meta.attr.comment.markup">Rendered with Manim Community v0.17.2</property>
  <property name="kdenlive:original.seekable">1</property>
  <property name="kdenlive:original.width">3840</property>
  <property name="kdenlive:original.height">2160</property>
  <property name="kdenlive:original.meta.media.sample_aspect_num">1</property>
  <property name="kdenlive:original.meta.media.sample_aspect_den">1</property>
  <property name="kdenlive:original.aspect_ratio">1</property>
  <property name="kdenlive:original.format">3</property>
  <property name="kdenlive:original.audio_index">-1</property>
  <property name="kdenlive:original.video_index">0</property>
  <property name="kdenlive:original.mute_on_pause">0</property>
  <property name="kdenlive:original.mlt_service">avformat-novalidate</property>
  <property name="kdenlive:original.meta.media.frame_rate_num">60</property>
  <property name="kdenlive:original.meta.media.frame_rate_den">1</property>
  <property name="kdenlive:original.meta.media.colorspace">709</property>
  <property name="kdenlive:original.meta.media.color_trc">2</property>
  <property name="kdenlive:original.meta.media.has_b_frames">2</property>
  <property name="kdenlive:original.meta.media.width">3840</property>
  <property name="kdenlive:original.meta.media.height">2160</property>
  <property name="kdenlive:original.meta.media.color_range">mpeg</property>
  <property name="kdenlive:original.meta.media.top_field_first">0</property>
  <property name="kdenlive:original.meta.media.progressive">1</property>
  <property name="kdenlive:original.kdenlive:clip_type">2</property>
  <property name="kdenlive:original.kdenlive:folderid">528</property>
  <property name="kdenlive:original.kdenlive:id">536</property>
  <property name="kdenlive:original.kdenlive:file_size">65308</property>
  <property name="kdenlive:original.kdenlive:file_hash">b5c5fd6ab602edc6d78d2043a50d3760</property>
  <property name="kdenlive:original.backup">1</property>
  <property name="xml">was here</property>
  <property name="meta.media.frame_rate_num">60</property>
  <property name="meta.media.frame_rate_den">1</property>
  <property name="meta.media.colorspace">601</property>
  <property name="meta.media.color_trc">2</property>
  <property name="meta.media.has_b_frames">0</property>
  <property name="meta.media.width">640</property>
  <property name="meta.media.height">360</property>
  <property name="meta.media.color_range">full</property>
  <property name="meta.media.top_field_first">0</property>
  <property name="meta.media.progressive">1</property>
  <property name="set.test_audio">1</property>
  <property name="set.test_image">0</property>
 </producer>
 <producer id="producer548" in="00:00:00.000" out="00:00:00.983">
  <property name="length">60</property>
  <property name="eof">pause</property>
  <property name="resource">/home/xiaoxiae/.cache/kdenlive/proxy/e1760e2e2f196983f516a2b294d5a5d6.mkv</property>
  <property name="audio_index">-1</property>
  <property name="video_index">0</property>
  <property name="mute_on_pause">0</property>
  <property name="mlt_service">avformat-novalidate</property>
  <property name="meta.media.nb_streams">1</property>
  <property name="meta.media.0.stream.type">video</property>
  <property name="meta.media.0.stream.frame_rate">60</property>
  <property name="meta.media.0.stream.sample_aspect_ratio">0</property>
  <property name="meta.media.0.codec.width">640</property>
  <property name="meta.media.0.codec.height">360</property>
  <property name="meta.media.0.codec.rotate">0</property>
  <property name="meta.media.0.codec.pix_fmt">yuvj420p</property>
  <property name="meta.media.0.codec.sample_aspect_ratio">0</property>
  <property name="meta.media.0.codec.colorspace">601</property>
  <property name="meta.media.0.codec.name">mjpeg</property>
  <property name="meta.media.0.codec.long_name">MJPEG (Motion JPEG)</property>
  <property name="meta.media.0.codec.bit_rate">0</property>
  <property name="meta.attr.0.stream.HANDLER_NAME.markup">VideoHandler</property>
  <property name="meta.attr.0.stream.VENDOR_ID.markup">[0][0][0][0]</property>
  <property name="meta.attr.0.stream.ENCODER.markup">Lavc60.3.100 mjpeg</property>
  <property name="meta.attr.0.stream.DURATION.markup">00:00:01.000000000</property>
  <property name="meta.attr.COMMENT.markup">Rendered with Manim Community v0.17.2</property>
  <property name="meta.attr.MAJOR_BRAND.markup">isom</property>
  <property name="meta.attr.MINOR_VERSION.markup">512</property>
  <property name="meta.attr.COMPATIBLE_BRANDS.markup">isomiso2avc1mp41</property>
  <property name="meta.attr.ENCODER.markup">Lavf60.3.100</property>
  <property name="seekable">1</property>
  <property name="meta.media.sample_aspect_num">1</property>
  <property name="meta.media.sample_aspect_den">1</property>
  <property name="aspect_ratio">1</property>
  <property name="format">3</property>
  <property name="kdenlive:clipname">17.mp4</property>
  <property name="kdenlive:clip_type">2</property>
  <property name="kdenlive:folderid">528</property>
  <property name="kdenlive:id">427</property>
  <property name="kdenlive:file_size">145764</property>
  <property name="kdenlive:file_hash">e1760e2e2f196983f516a2b294d5a5d6</property>
  <property name="kdenlive:proxy">/home/xiaoxiae/.cache/kdenlive/proxy/e1760e2e2f196983f516a2b294d5a5d6.mkv</property>
  <property name="kdenlive:originalurl">video/Intro/17.mp4</property>
  <property name="kdenlive:original.mlt_type">producer</property>
  <property name="kdenlive:original.in">00:00:00.000</property>
  <property name="kdenlive:original.out">00:00:00.983</property>
  <property name="kdenlive:original.length">60</property>
  <property name="kdenlive:original.eof">pause</property>
  <property name="kdenlive:original.resource">video/Intro/17.mp4</property>
  <property name="kdenlive:original.meta.media.nb_streams">1</property>
  <property name="kdenlive:original.meta.media.0.stream.type">video</property>
  <property name="kdenlive:original.meta.media.0.stream.frame_rate">60</property>
  <property name="kdenlive:original.meta.media.0.stream.sample_aspect_ratio">0</property>
  <property name="kdenlive:original.meta.media.0.codec.width">3840</property>
  <property name="kdenlive:original.meta.media.0.codec.height">2160</property>
  <property name="kdenlive:original.meta.media.0.codec.rotate">0</property>
  <property name="kdenlive:original.meta.media.0.codec.pix_fmt">yuv420p</property>
  <property name="kdenlive:original.meta.media.0.codec.sample_aspect_ratio">0</property>
  <property name="kdenlive:original.meta.media.0.codec.colorspace">709</property>
  <property name="kdenlive:original.meta.media.0.codec.name">h264</property>
  <property name="kdenlive:original.meta.media.0.codec.long_name">H.264 / AVC / MPEG-4 AVC / MPEG-4 part 10</property>
  <property name="kdenlive:original.meta.media.0.codec.bit_rate">1153192</property>
  <property name="kdenlive:original.meta.attr.0.stream.handler_name.markup">VideoHandler</property>
  <property name="kdenlive:original.meta.attr.0.stream.vendor_id.markup">[0][0][0][0]</property>
  <property name="kdenlive:original.meta.attr.0.stream.encoder.markup">Lavc60.3.100 libx264</property>
  <property name="kdenlive:original.meta.attr.major_brand.markup">isom</property>
  <property name="kdenlive:original.meta.attr.minor_version.markup">512</property>
  <property name="kdenlive:original.meta.attr.compatible_brands.markup">isomiso2avc1mp41</property>
  <property name="kdenlive:original.meta.attr.encoder.markup">Lavf60.3.100</property>
  <property name="kdenlive:original.meta.attr.comment.markup">Rendered with Manim Community v0.17.2</property>
  <property name="kdenlive:original.seekable">1</property>
  <property name="kdenlive:original.width">3840</property>
  <property name="kdenlive:original.height">2160</property>
  <property name="kdenlive:original.meta.media.sample_aspect_num">1</property>
  <property name="kdenlive:original.meta.media.sample_aspect_den">1</property>
  <property name="kdenlive:original.aspect_ratio">1</property>
  <property name="kdenlive:original.format">3</property>
  <property name="kdenlive:original.audio_index">-1</property>
  <property name="kdenlive:original.video_index">0</property>
  <property name="kdenlive:original.mute_on_pause">0</property>
  <property name="kdenlive:original.mlt_service">avformat-novalidate</property>
  <property name="kdenlive:original.meta.media.frame_rate_num">60</property>
  <property name="kdenlive:original.meta.media.frame_rate_den">1</property>
  <property name="kdenlive:original.meta.media.colorspace">709</property>
  <property name="kdenlive:original.meta.media.color_trc">2</property>
  <property name="kdenlive:original.meta.media.has_b_frames">2</property>
  <property name="kdenlive:original.meta.media.width">3840</property>
  <property name="kdenlive:original.meta.media.height">2160</property>
  <property name="kdenlive:original.meta.media.color_range">mpeg</property>
  <property name="kdenlive:original.meta.media.top_field_first">0</property>
  <property name="kdenlive:original.meta.media.progressive">1</property>
  <property name="kdenlive:original.kdenlive:clip_type">2</property>
  <property name="kdenlive:original.kdenlive:folderid">528</property>
  <property name="kdenlive:original.kdenlive:id">537</property>
  <property name="kdenlive:original.kdenlive:file_size">145764</property>
  <property name="kdenlive:original.kdenlive:file_hash">e1760e2e2f196983f516a2b294d5a5d6</property>
  <property name="kdenlive:original.backup">1</property>
  <property name="xml">was here</property>
  <property name="meta.media.frame_rate_num">60</property>
  <property name="meta.media.frame_rate_den">1</property>
  <property name="meta.media.colorspace">601</property>
  <property name="meta.media.color_trc">2</property>
  <property name="meta.media.has_b_frames">0</property>
  <property name="meta.media.width">640</property>
  <property name="meta.media.height">360</property>
  <property name="meta.media.color_range">full</property>
  <property name="meta.media.top_field_first">0</property>
  <property name="meta.media.progressive">1</property>
  <property name="set.test_audio">1</property>
  <property name="set.test_image">0</property>
 </producer>
 <producer id="producer549" in="00:00:00.000" out="00:00:00.983">
  <property name="length">60</property>
  <property name="eof">pause</property>
  <property name="resource">/home/xiaoxiae/.cache/kdenlive/proxy/08ec4c368cccded6f63b78f1b2f38512.mkv</property>
  <property name="audio_index">-1</property>
  <property name="video_index">0</property>
  <property name="mute_on_pause">0</property>
  <property name="mlt_service">avformat-novalidate</property>
  <property name="meta.media.nb_streams">1</property>
  <property name="meta.media.0.stream.type">video</property>
  <property name="meta.media.0.stream.frame_rate">60</property>
  <property name="meta.media.0.stream.sample_aspect_ratio">0</property>
  <property name="meta.media.0.codec.width">640</property>
  <property name="meta.media.0.codec.height">360</property>
  <property name="meta.media.0.codec.rotate">0</property>
  <property name="meta.media.0.codec.pix_fmt">yuvj420p</property>
  <property name="meta.media.0.codec.sample_aspect_ratio">0</property>
  <property name="meta.media.0.codec.colorspace">601</property>
  <property name="meta.media.0.codec.name">mjpeg</property>
  <property name="meta.media.0.codec.long_name">MJPEG (Motion JPEG)</property>
  <property name="meta.media.0.codec.bit_rate">0</property>
  <property name="meta.attr.0.stream.HANDLER_NAME.markup">VideoHandler</property>
  <property name="meta.attr.0.stream.VENDOR_ID.markup">[0][0][0][0]</property>
  <property name="meta.attr.0.stream.ENCODER.markup">Lavc60.3.100 mjpeg</property>
  <property name="meta.attr.0.stream.DURATION.markup">00:00:01.000000000</property>
  <property name="meta.attr.COMMENT.markup">Rendered with Manim Community v0.17.2</property>
  <property name="meta.attr.MAJOR_BRAND.markup">isom</property>
  <property name="meta.attr.MINOR_VERSION.markup">512</property>
  <property name="meta.attr.COMPATIBLE_BRANDS.markup">isomiso2avc1mp41</property>
  <property name="meta.attr.ENCODER.markup">Lavf60.3.100</property>
  <property name="seekable">1</property>
  <property name="meta.media.sample_aspect_num">1</property>
  <property name="meta.media.sample_aspect_den">1</property>
  <property name="aspect_ratio">1</property>
  <property name="format">3</property>
  <property name="kdenlive:clipname">18.mp4</property>
  <property name="kdenlive:clip_type">2</property>
  <property name="kdenlive:folderid">528</property>
  <property name="kdenlive:id">428</property>
  <property name="kdenlive:file_size">402711</property>
  <property name="kdenlive:file_hash">08ec4c368cccded6f63b78f1b2f38512</property>
  <property name="kdenlive:proxy">/home/xiaoxiae/.cache/kdenlive/proxy/08ec4c368cccded6f63b78f1b2f38512.mkv</property>
  <property name="kdenlive:originalurl">video/Intro/18.mp4</property>
  <property name="kdenlive:original.mlt_type">producer</property>
  <property name="kdenlive:original.in">00:00:00.000</property>
  <property name="kdenlive:original.out">00:00:00.983</property>
  <property name="kdenlive:original.length">60</property>
  <property name="kdenlive:original.eof">pause</property>
  <property name="kdenlive:original.resource">video/Intro/18.mp4</property>
  <property name="kdenlive:original.meta.media.nb_streams">1</property>
  <property name="kdenlive:original.meta.media.0.stream.type">video</property>
  <property name="kdenlive:original.meta.media.0.stream.frame_rate">60</property>
  <property name="kdenlive:original.meta.media.0.stream.sample_aspect_ratio">0</property>
  <property name="kdenlive:original.meta.media.0.codec.width">3840</property>
  <property name="kdenlive:original.meta.media.0.codec.height">2160</property>
  <property name="kdenlive:original.meta.media.0.codec.rotate">0</property>
  <property name="kdenlive:original.meta.media.0.codec.pix_fmt">yuv420p</property>
  <property name="kdenlive:original.meta.media.0.codec.sample_aspect_ratio">0</property>
  <property name="kdenlive:original.meta.media.0.codec.colorspace">709</property>
  <property name="kdenlive:original.meta.media.0.codec.name">h264</property>
  <property name="kdenlive:original.meta.media.0.codec.long_name">H.264 / AVC / MPEG-4 AVC / MPEG-4 part 10</property>
  <property name="kdenlive:original.meta.media.0.codec.bit_rate">3210880</property>
  <property name="kdenlive:original.meta.attr.0.stream.handler_name.markup">VideoHandler</property>
  <property name="kdenlive:original.meta.attr.0.stream.vendor_id.markup">[0][0][0][0]</property>
  <property name="kdenlive:original.meta.attr.0.stream.encoder.markup">Lavc60.3.100 libx264</property>
  <property name="kdenlive:original.meta.attr.major_brand.markup">isom</property>
  <property name="kdenlive:original.meta.attr.minor_version.markup">512</property>
  <property name="kdenlive:original.meta.attr.compatible_brands.markup">isomiso2avc1mp41</property>
  <property name="kdenlive:original.meta.attr.encoder.markup">Lavf60.3.100</property>
  <property name="kdenlive:original.meta.attr.comment.markup">Rendered with Manim Community v0.17.2</property>
  <property name="kdenlive:original.seekable">1</property>
  <property name="kdenlive:original.width">3840</property>
  <property name="kdenlive:original.height">2160</property>
  <property name="kdenlive:original.meta.media.sample_aspect_num">1</property>
  <property name="kdenlive:original.meta.media.sample_aspect_den">1</property>
  <property name="kdenlive:original.aspect_ratio">1</property>
  <property name="kdenlive:original.format">3</property>
  <property name="kdenlive:original.audio_index">-1</property>
  <property name="kdenlive:original.video_index">0</property>
  <property name="kdenlive:original.mute_on_pause">0</property>
  <property name="kdenlive:original.mlt_service">avformat-novalidate</property>
  <property name="kdenlive:original.meta.media.frame_rate_num">60</property>
  <property name="kdenlive:original.meta.media.frame_rate_den">1</property>
  <property name="kdenlive:original.meta.media.colorspace">709</property>
  <property name="kdenlive:original.meta.media.color_trc">2</property>
  <property name="kdenlive:original.meta.media.has_b_frames">2</property>
  <property name="kdenlive:original.meta.media.width">3840</property>
  <property name="kdenlive:original.meta.media.height">2160</property>
  <property name="kdenlive:original.meta.media.color_range">mpeg</property>
  <property name="kdenlive:original.meta.media.top_field_first">0</property>
  <property name="kdenlive:original.meta.media.progressive">1</property>
  <property name="kdenlive:original.kdenlive:clip_type">2</property>
  <property name="kdenlive:original.kdenlive:folderid">528</property>
  <property name="kdenlive:original.kdenlive:id">538</property>
  <property name="kdenlive:original.kdenlive:file_size">402711</property>
  <property name="kdenlive:original.kdenlive:file_hash">08ec4c368cccded6f63b78f1b2f38512</property>
  <property name="kdenlive:original.backup">1</property>
  <property name="xml">was here</property>
  <property name="meta.media.frame_rate_num">60</property>
  <property name="meta.media.frame_rate_den">1</property>
  <property name="meta.media.colorspace">601</property>
  <property name="meta.media.color_trc">2</property>
  <property name="meta.media.has_b_frames">0</property>
  <property name="meta.media.width">640</property>
  <property name="meta.media.height">360</property>
  <property name="meta.media.color_range">full</property>
  <property name="meta.media.top_field_first">0</property>
  <property name="meta.media.progressive">1</property>
  <property name="set.test_audio">1</property>
  <property name="set.test_image">0</property>
 </producer>
 <producer id="producer550" in="00:00:00.000" out="00:00:00.983">
  <property name="length">60</property>
  <property name="eof">pause</property>
  <property name="resource">/home/xiaoxiae/.cache/kdenlive/proxy/d9da4465ea356a642602c520073630a9.mkv</property>
  <property name="audio_index">-1</property>
  <property name="video_index">0</property>
  <property name="mute_on_pause">0</property>
  <property name="mlt_service">avformat-novalidate</property>
  <property name="meta.media.nb_streams">1</property>
  <property name="meta.media.0.stream.type">video</property>
  <property name="meta.media.0.stream.frame_rate">60</property>
  <property name="meta.media.0.stream.sample_aspect_ratio">0</property>
  <property name="meta.media.0.codec.width">640</property>
  <property name="meta.media.0.codec.height">360</property>
  <property name="meta.media.0.codec.rotate">0</property>
  <property name="meta.media.0.codec.pix_fmt">yuvj420p</property>
  <property name="meta.media.0.codec.sample_aspect_ratio">0</property>
  <property name="meta.media.0.codec.colorspace">601</property>
  <property name="meta.media.0.codec.name">mjpeg</property>
  <property name="meta.media.0.codec.long_name">MJPEG (Motion JPEG)</property>
  <property name="meta.media.0.codec.bit_rate">0</property>
  <property name="meta.attr.0.stream.HANDLER_NAME.markup">VideoHandler</property>
  <property name="meta.attr.0.stream.VENDOR_ID.markup">[0][0][0][0]</property>
  <property name="meta.attr.0.stream.ENCODER.markup">Lavc60.3.100 mjpeg</property>
  <property name="meta.attr.0.stream.DURATION.markup">00:00:01.000000000</property>
  <property name="meta.attr.COMMENT.markup">Rendered with Manim Community v0.17.2</property>
  <property name="meta.attr.MAJOR_BRAND.markup">isom</property>
  <property name="meta.attr.MINOR_VERSION.markup">512</property>
  <property name="meta.attr.COMPATIBLE_BRANDS.markup">isomiso2avc1mp41</property>
  <property name="meta.attr.ENCODER.markup">Lavf60.3.100</property>
  <property name="seekable">1</property>
  <property name="meta.media.sample_aspect_num">1</property>
  <property name="meta.media.sample_aspect_den">1</property>
  <property name="aspect_ratio">1</property>
  <property name="format">3</property>
  <property name="kdenlive:clipname">19.mp4</property>
  <property name="kdenlive:clip_type">2</property>
  <property name="kdenlive:folderid">528</property>
  <property name="kdenlive:id">429</property>
  <property name="kdenlive:file_size">58406</property>
  <property name="kdenlive:file_hash">d9da4465ea356a642602c520073630a9</property>
  <property name="kdenlive:proxy">/home/xiaoxiae/.cache/kdenlive/proxy/d9da4465ea356a642602c520073630a9.mkv</property>
  <property name="kdenlive:originalurl">video/Intro/19.mp4</property>
  <property name="kdenlive:original.mlt_type">producer</property>
  <property name="kdenlive:original.in">00:00:00.000</property>
  <property name="kdenlive:original.out">00:00:00.983</property>
  <property name="kdenlive:original.length">60</property>
  <property name="kdenlive:original.eof">pause</property>
  <property name="kdenlive:original.resource">video/Intro/19.mp4</property>
  <property name="kdenlive:original.meta.media.nb_streams">1</property>
  <property name="kdenlive:original.meta.media.0.stream.type">video</property>
  <property name="kdenlive:original.meta.media.0.stream.frame_rate">60</property>
  <property name="kdenlive:original.meta.media.0.stream.sample_aspect_ratio">0</property>
  <property name="kdenlive:original.meta.media.0.codec.width">3840</property>
  <property name="kdenlive:original.meta.media.0.codec.height">2160</property>
  <property name="kdenlive:original.meta.media.0.codec.rotate">0</property>
  <property name="kdenlive:original.meta.media.0.codec.pix_fmt">yuv420p</property>
  <property name="kdenlive:original.meta.media.0.codec.sample_aspect_ratio">0</property>
  <property name="kdenlive:original.meta.media.0.codec.colorspace">709</property>
  <property name="kdenlive:original.meta.media.0.codec.name">h264</property>
  <property name="kdenlive:original.meta.media.0.codec.long_name">H.264 / AVC / MPEG-4 AVC / MPEG-4 part 10</property>
  <property name="kdenlive:original.meta.media.0.codec.bit_rate">454200</property>
  <property name="kdenlive:original.meta.attr.0.stream.handler_name.markup">VideoHandler</property>
  <property name="kdenlive:original.meta.attr.0.stream.vendor_id.markup">[0][0][0][0]</property>
  <property name="kdenlive:original.meta.attr.0.stream.encoder.markup">Lavc60.3.100 libx264</property>
  <property name="kdenlive:original.meta.attr.major_brand.markup">isom</property>
  <property name="kdenlive:original.meta.attr.minor_version.markup">512</property>
  <property name="kdenlive:original.meta.attr.compatible_brands.markup">isomiso2avc1mp41</property>
  <property name="kdenlive:original.meta.attr.encoder.markup">Lavf60.3.100</property>
  <property name="kdenlive:original.meta.attr.comment.markup">Rendered with Manim Community v0.17.2</property>
  <property name="kdenlive:original.seekable">1</property>
  <property name="kdenlive:original.width">3840</property>
  <property name="kdenlive:original.height">2160</property>
  <property name="kdenlive:original.meta.media.sample_aspect_num">1</property>
  <property name="kdenlive:original.meta.media.sample_aspect_den">1</property>
  <property name="kdenlive:original.aspect_ratio">1</property>
  <property name="kdenlive:original.format">3</property>
  <property name="kdenlive:original.audio_index">-1</property>
  <property name="kdenlive:original.video_index">0</property>
  <property name="kdenlive:original.mute_on_pause">0</property>
  <property name="kdenlive:original.mlt_service">avformat-novalidate</property>
  <property name="kdenlive:original.meta.media.frame_rate_num">60</property>
  <property name="kdenlive:original.meta.media.frame_rate_den">1</property>
  <property name="kdenlive:original.meta.media.colorspace">709</property>
  <property name="kdenlive:original.meta.media.color_trc">2</property>
  <property name="kdenlive:original.meta.media.has_b_frames">2</property>
  <property name="kdenlive:original.meta.media.width">3840</property>
  <property name="kdenlive:original.meta.media.height">2160</property>
  <property name="kdenlive:original.meta.media.color_range">mpeg</property>
  <property name="kdenlive:original.meta.media.top_field_first">0</property>
  <property name="kdenlive:original.meta.media.progressive">1</property>
  <property name="kdenlive:original.kdenlive:clip_type">2</property>
  <property name="kdenlive:original.kdenlive:folderid">528</property>
  <property name="kdenlive:original.kdenlive:id">539</property>
  <property name="kdenlive:original.kdenlive:file_size">58406</property>
  <property name="kdenlive:original.kdenlive:file_hash">d9da4465ea356a642602c520073630a9</property>
  <property name="kdenlive:original.backup">1</property>
  <property name="xml">was here</property>
  <property name="meta.media.frame_rate_num">60</property>
  <property name="meta.media.frame_rate_den">1</property>
  <property name="meta.media.colorspace">601</property>
  <property name="meta.media.color_trc">2</property>
  <property name="meta.media.has_b_frames">0</property>
  <property name="meta.media.width">640</property>
  <property name="meta.media.height">360</property>
  <property name="meta.media.color_range">full</property>
  <property name="meta.media.top_field_first">0</property>
  <property name="meta.media.progressive">1</property>
  <property name="set.test_audio">1</property>
  <property name="set.test_image">0</property>
 </producer>
 <producer id="producer551" in="00:00:00.000" out="00:00:00.983">
  <property name="length">60</property>
  <property name="eof">pause</property>
  <property name="resource">/home/xiaoxiae/.cache/kdenlive/proxy/3635b86975c247ccd43eb5234beeeef3.mkv</property>
  <property name="audio_index">-1</property>
  <property name="video_index">0</property>
  <property name="mute_on_pause">0</property>
  <property name="mlt_service">avformat-novalidate</property>
  <property name="meta.media.nb_streams">1</property>
  <property name="meta.media.0.stream.type">video</property>
  <property name="meta.media.0.stream.frame_rate">60</property>
  <property name="meta.media.0.stream.sample_aspect_ratio">0</property>
  <property name="meta.media.0.codec.width">640</property>
  <property name="meta.media.0.codec.height">360</property>
  <property name="meta.media.0.codec.rotate">0</property>
  <property name="meta.media.0.codec.pix_fmt">yuvj420p</property>
  <property name="meta.media.0.codec.sample_aspect_ratio">0</property>
  <property name="meta.media.0.codec.colorspace">601</property>
  <property name="meta.media.0.codec.name">mjpeg</property>
  <property name="meta.media.0.codec.long_name">MJPEG (Motion JPEG)</property>
  <property name="meta.media.0.codec.bit_rate">0</property>
  <property name="meta.attr.0.stream.HANDLER_NAME.markup">VideoHandler</property>
  <property name="meta.attr.0.stream.VENDOR_ID.markup">[0][0][0][0]</property>
  <property name="meta.attr.0.stream.ENCODER.markup">Lavc60.3.100 mjpeg</property>
  <property name="meta.attr.0.stream.DURATION.markup">00:00:01.000000000</property>
  <property name="meta.attr.COMMENT.markup">Rendered with Manim Community v0.17.2</property>
  <property name="meta.attr.MAJOR_BRAND.markup">isom</property>
  <property name="meta.attr.MINOR_VERSION.markup">512</property>
  <property name="meta.attr.COMPATIBLE_BRANDS.markup">isomiso2avc1mp41</property>
  <property name="meta.attr.ENCODER.markup">Lavf60.3.100</property>
  <property name="seekable">1</property>
  <property name="meta.media.sample_aspect_num">1</property>
  <property name="meta.media.sample_aspect_den">1</property>
  <property name="aspect_ratio">1</property>
  <property name="format">3</property>
  <property name="kdenlive:clipname">20.mp4</property>
  <property name="kdenlive:clip_type">2</property>
  <property name="kdenlive:folderid">528</property>
  <property name="kdenlive:id">431</property>
  <property name="kdenlive:file_size">102860</property>
  <property name="kdenlive:file_hash">3635b86975c247ccd43eb5234beeeef3</property>
  <property name="kdenlive:proxy">/home/xiaoxiae/.cache/kdenlive/proxy/3635b86975c247ccd43eb5234beeeef3.mkv</property>
  <property name="kdenlive:originalurl">video/Intro/20.mp4</property>
  <property name="kdenlive:original.mlt_type">producer</property>
  <property name="kdenlive:original.in">00:00:00.000</property>
  <property name="kdenlive:original.out">00:00:00.983</property>
  <property name="kdenlive:original.length">60</property>
  <property name="kdenlive:original.eof">pause</property>
  <property name="kdenlive:original.resource">video/Intro/20.mp4</property>
  <property name="kdenlive:original.meta.media.nb_streams">1</property>
  <property name="kdenlive:original.meta.media.0.stream.type">video</property>
  <property name="kdenlive:original.meta.media.0.stream.frame_rate">60</property>
  <property name="kdenlive:original.meta.media.0.stream.sample_aspect_ratio">0</property>
  <property name="kdenlive:original.meta.media.0.codec.width">3840</property>
  <property name="kdenlive:original.meta.media.0.codec.height">2160</property>
  <property name="kdenlive:original.meta.media.0.codec.rotate">0</property>
  <property name="kdenlive:original.meta.media.0.codec.pix_fmt">yuv420p</property>
  <property name="kdenlive:original.meta.media.0.codec.sample_aspect_ratio">0</property>
  <property name="kdenlive:original.meta.media.0.codec.colorspace">709</property>
  <property name="kdenlive:original.meta.media.0.codec.name">h264</property>
  <property name="kdenlive:original.meta.media.0.codec.long_name">H.264 / AVC / MPEG-4 AVC / MPEG-4 part 10</property>
  <property name="kdenlive:original.meta.media.0.codec.bit_rate">809896</property>
  <property name="kdenlive:original.meta.attr.0.stream.handler_name.markup">VideoHandler</property>
  <property name="kdenlive:original.meta.attr.0.stream.vendor_id.markup">[0][0][0][0]</property>
  <property name="kdenlive:original.meta.attr.0.stream.encoder.markup">Lavc60.3.100 libx264</property>
  <property name="kdenlive:original.meta.attr.major_brand.markup">isom</property>
  <property name="kdenlive:original.meta.attr.minor_version.markup">512</property>
  <property name="kdenlive:original.meta.attr.compatible_brands.markup">isomiso2avc1mp41</property>
  <property name="kdenlive:original.meta.attr.encoder.markup">Lavf60.3.100</property>
  <property name="kdenlive:original.meta.attr.comment.markup">Rendered with Manim Community v0.17.2</property>
  <property name="kdenlive:original.seekable">1</property>
  <property name="kdenlive:original.width">3840</property>
  <property name="kdenlive:original.height">2160</property>
  <property name="kdenlive:original.meta.media.sample_aspect_num">1</property>
  <property name="kdenlive:original.meta.media.sample_aspect_den">1</property>
  <property name="kdenlive:original.aspect_ratio">1</property>
  <property name="kdenlive:original.format">3</property>
  <property name="kdenlive:original.audio_index">-1</property>
  <property name="kdenlive:original.video_index">0</property>
  <property name="kdenlive:original.mute_on_pause">0</property>
  <property name="kdenlive:original.mlt_service">avformat-novalidate</property>
  <property name="kdenlive:original.meta.media.frame_rate_num">60</property>
  <property name="kdenlive:original.meta.media.frame_rate_den">1</property>
  <property name="kdenlive:original.meta.media.colorspace">709</property>
  <property name="kdenlive:original.meta.media.color_trc">2</property>
  <property name="kdenlive:original.meta.media.has_b_frames">2</property>
  <property name="kdenlive:original.meta.media.width">3840</property>
  <property name="kdenlive:original.meta.media.height">2160</property>
  <property name="kdenlive:original.meta.media.color_range">mpeg</property>
  <property name="kdenlive:original.meta.media.top_field_first">0</property>
  <property name="kdenlive:original.meta.media.progressive">1</property>
  <property name="kdenlive:original.kdenlive:clip_type">2</property>
  <property name="kdenlive:original.kdenlive:folderid">528</property>
  <property name="kdenlive:original.kdenlive:id">541</property>
  <property name="kdenlive:original.kdenlive:file_size">102860</property>
  <property name="kdenlive:original.kdenlive:file_hash">3635b86975c247ccd43eb5234beeeef3</property>
  <property name="kdenlive:original.backup">1</property>
  <property name="xml">was here</property>
  <property name="meta.media.frame_rate_num">60</property>
  <property name="meta.media.frame_rate_den">1</property>
  <property name="meta.media.colorspace">601</property>
  <property name="meta.media.color_trc">2</property>
  <property name="meta.media.has_b_frames">0</property>
  <property name="meta.media.width">640</property>
  <property name="meta.media.height">360</property>
  <property name="meta.media.color_range">full</property>
  <property name="meta.media.top_field_first">0</property>
  <property name="meta.media.progressive">1</property>
  <property name="set.test_audio">1</property>
  <property name="set.test_image">0</property>
 </producer>
 <producer id="producer552" in="00:00:00.000" out="00:00:00.983">
  <property name="length">60</property>
  <property name="eof">pause</property>
  <property name="resource">/home/xiaoxiae/.cache/kdenlive/proxy/28e5504ee10ea5fee60be7f7489d4450.mkv</property>
  <property name="audio_index">-1</property>
  <property name="video_index">0</property>
  <property name="mute_on_pause">0</property>
  <property name="mlt_service">avformat-novalidate</property>
  <property name="meta.media.nb_streams">1</property>
  <property name="meta.media.0.stream.type">video</property>
  <property name="meta.media.0.stream.frame_rate">60</property>
  <property name="meta.media.0.stream.sample_aspect_ratio">0</property>
  <property name="meta.media.0.codec.width">640</property>
  <property name="meta.media.0.codec.height">360</property>
  <property name="meta.media.0.codec.rotate">0</property>
  <property name="meta.media.0.codec.pix_fmt">yuvj420p</property>
  <property name="meta.media.0.codec.sample_aspect_ratio">0</property>
  <property name="meta.media.0.codec.colorspace">601</property>
  <property name="meta.media.0.codec.name">mjpeg</property>
  <property name="meta.media.0.codec.long_name">MJPEG (Motion JPEG)</property>
  <property name="meta.media.0.codec.bit_rate">0</property>
  <property name="meta.attr.0.stream.HANDLER_NAME.markup">VideoHandler</property>
  <property name="meta.attr.0.stream.VENDOR_ID.markup">[0][0][0][0]</property>
  <property name="meta.attr.0.stream.ENCODER.markup">Lavc60.3.100 mjpeg</property>
  <property name="meta.attr.0.stream.DURATION.markup">00:00:01.000000000</property>
  <property name="meta.attr.COMMENT.markup">Rendered with Manim Community v0.17.2</property>
  <property name="meta.attr.MAJOR_BRAND.markup">isom</property>
  <property name="meta.attr.MINOR_VERSION.markup">512</property>
  <property name="meta.attr.COMPATIBLE_BRANDS.markup">isomiso2avc1mp41</property>
  <property name="meta.attr.ENCODER.markup">Lavf60.3.100</property>
  <property name="seekable">1</property>
  <property name="meta.media.sample_aspect_num">1</property>
  <property name="meta.media.sample_aspect_den">1</property>
  <property name="aspect_ratio">1</property>
  <property name="format">3</property>
  <property name="kdenlive:clipname">21.mp4</property>
  <property name="kdenlive:clip_type">2</property>
  <property name="kdenlive:folderid">528</property>
  <property name="kdenlive:id">432</property>
  <property name="kdenlive:file_size">60881</property>
  <property name="kdenlive:file_hash">28e5504ee10ea5fee60be7f7489d4450</property>
  <property name="kdenlive:proxy">/home/xiaoxiae/.cache/kdenlive/proxy/28e5504ee10ea5fee60be7f7489d4450.mkv</property>
  <property name="kdenlive:originalurl">video/Intro/21.mp4</property>
  <property name="kdenlive:original.mlt_type">producer</property>
  <property name="kdenlive:original.in">00:00:00.000</property>
  <property name="kdenlive:original.out">00:00:00.983</property>
  <property name="kdenlive:original.length">60</property>
  <property name="kdenlive:original.eof">pause</property>
  <property name="kdenlive:original.resource">video/Intro/21.mp4</property>
  <property name="kdenlive:original.meta.media.nb_streams">1</property>
  <property name="kdenlive:original.meta.media.0.stream.type">video</property>
  <property name="kdenlive:original.meta.media.0.stream.frame_rate">60</property>
  <property name="kdenlive:original.meta.media.0.stream.sample_aspect_ratio">0</property>
  <property name="kdenlive:original.meta.media.0.codec.width">3840</property>
  <property name="kdenlive:original.meta.media.0.codec.height">2160</property>
  <property name="kdenlive:original.meta.media.0.codec.rotate">0</property>
  <property name="kdenlive:original.meta.media.0.codec.pix_fmt">yuv420p</property>
  <property name="kdenlive:original.meta.media.0.codec.sample_aspect_ratio">0</property>
  <property name="kdenlive:original.meta.media.0.codec.colorspace">709</property>
  <property name="kdenlive:original.meta.media.0.codec.name">h264</property>
  <property name="kdenlive:original.meta.media.0.codec.long_name">H.264 / AVC / MPEG-4 AVC / MPEG-4 part 10</property>
  <property name="kdenlive:original.meta.media.0.codec.bit_rate">474000</property>
  <property name="kdenlive:original.meta.attr.0.stream.handler_name.markup">VideoHandler</property>
  <property name="kdenlive:original.meta.attr.0.stream.vendor_id.markup">[0][0][0][0]</property>
  <property name="kdenlive:original.meta.attr.0.stream.encoder.markup">Lavc60.3.100 libx264</property>
  <property name="kdenlive:original.meta.attr.major_brand.markup">isom</property>
  <property name="kdenlive:original.meta.attr.minor_version.markup">512</property>
  <property name="kdenlive:original.meta.attr.compatible_brands.markup">isomiso2avc1mp41</property>
  <property name="kdenlive:original.meta.attr.encoder.markup">Lavf60.3.100</property>
  <property name="kdenlive:original.meta.attr.comment.markup">Rendered with Manim Community v0.17.2</property>
  <property name="kdenlive:original.seekable">1</property>
  <property name="kdenlive:original.width">3840</property>
  <property name="kdenlive:original.height">2160</property>
  <property name="kdenlive:original.meta.media.sample_aspect_num">1</property>
  <property name="kdenlive:original.meta.media.sample_aspect_den">1</property>
  <property name="kdenlive:original.aspect_ratio">1</property>
  <property name="kdenlive:original.format">3</property>
  <property name="kdenlive:original.audio_index">-1</property>
  <property name="kdenlive:original.video_index">0</property>
  <property name="kdenlive:original.mute_on_pause">0</property>
  <property name="kdenlive:original.mlt_service">avformat-novalidate</property>
  <property name="kdenlive:original.meta.media.frame_rate_num">60</property>
  <property name="kdenlive:original.meta.media.frame_rate_den">1</property>
  <property name="kdenlive:original.meta.media.colorspace">709</property>
  <property name="kdenlive:original.meta.media.color_trc">2</property>
  <property name="kdenlive:original.meta.media.has_b_frames">2</property>
  <property name="kdenlive:original.meta.media.width">3840</property>
  <property name="kdenlive:original.meta.media.height">2160</property>
  <property name="kdenlive:original.meta.media.color_range">mpeg</property>
  <property name="kdenlive:original.meta.media.top_field_first">0</property>
  <property name="kdenlive:original.meta.media.progressive">1</property>
  <property name="kdenlive:original.kdenlive:clip_type">2</property>
  <property name="kdenlive:original.kdenlive:folderid">528</property>
  <property name="kdenlive:original.kdenlive:id">542</property>
  <property name="kdenlive:original.kdenlive:file_size">60881</property>
  <property name="kdenlive:original.kdenlive:file_hash">28e5504ee10ea5fee60be7f7489d4450</property>
  <property name="kdenlive:original.backup">1</property>
  <property name="xml">was here</property>
  <property name="meta.media.frame_rate_num">60</property>
  <property name="meta.media.frame_rate_den">1</property>
  <property name="meta.media.colorspace">601</property>
  <property name="meta.media.color_trc">2</property>
  <property name="meta.media.has_b_frames">0</property>
  <property name="meta.media.width">640</property>
  <property name="meta.media.height">360</property>
  <property name="meta.media.color_range">full</property>
  <property name="meta.media.top_field_first">0</property>
  <property name="meta.media.progressive">1</property>
  <property name="set.test_audio">1</property>
  <property name="set.test_image">0</property>
 </producer>
 <producer id="producer553" in="00:00:00.000" out="00:00:00.983">
  <property name="length">60</property>
  <property name="eof">pause</property>
  <property name="resource">/home/xiaoxiae/.cache/kdenlive/proxy/0f6edc0b9dba143346f5c551d9b61080.mkv</property>
  <property name="audio_index">-1</property>
  <property name="video_index">0</property>
  <property name="mute_on_pause">0</property>
  <property name="mlt_service">avformat-novalidate</property>
  <property name="meta.media.nb_streams">1</property>
  <property name="meta.media.0.stream.type">video</property>
  <property name="meta.media.0.stream.frame_rate">60</property>
  <property name="meta.media.0.stream.sample_aspect_ratio">0</property>
  <property name="meta.media.0.codec.width">640</property>
  <property name="meta.media.0.codec.height">360</property>
  <property name="meta.media.0.codec.rotate">0</property>
  <property name="meta.media.0.codec.pix_fmt">yuvj420p</property>
  <property name="meta.media.0.codec.sample_aspect_ratio">0</property>
  <property name="meta.media.0.codec.colorspace">601</property>
  <property name="meta.media.0.codec.name">mjpeg</property>
  <property name="meta.media.0.codec.long_name">MJPEG (Motion JPEG)</property>
  <property name="meta.media.0.codec.bit_rate">0</property>
  <property name="meta.attr.0.stream.HANDLER_NAME.markup">VideoHandler</property>
  <property name="meta.attr.0.stream.VENDOR_ID.markup">[0][0][0][0]</property>
  <property name="meta.attr.0.stream.ENCODER.markup">Lavc60.3.100 mjpeg</property>
  <property name="meta.attr.0.stream.DURATION.markup">00:00:01.000000000</property>
  <property name="meta.attr.COMMENT.markup">Rendered with Manim Community v0.17.2</property>
  <property name="meta.attr.MAJOR_BRAND.markup">isom</property>
  <property name="meta.attr.MINOR_VERSION.markup">512</property>
  <property name="meta.attr.COMPATIBLE_BRANDS.markup">isomiso2avc1mp41</property>
  <property name="meta.attr.ENCODER.markup">Lavf60.3.100</property>
  <property name="seekable">1</property>
  <property name="meta.media.sample_aspect_num">1</property>
  <property name="meta.media.sample_aspect_den">1</property>
  <property name="aspect_ratio">1</property>
  <property name="format">3</property>
  <property name="kdenlive:clipname">22.mp4</property>
  <property name="kdenlive:clip_type">2</property>
  <property name="kdenlive:folderid">528</property>
  <property name="kdenlive:id">433</property>
  <property name="kdenlive:file_size">108808</property>
  <property name="kdenlive:file_hash">0f6edc0b9dba143346f5c551d9b61080</property>
  <property name="kdenlive:proxy">/home/xiaoxiae/.cache/kdenlive/proxy/0f6edc0b9dba143346f5c551d9b61080.mkv</property>
  <property name="kdenlive:originalurl">video/Intro/22.mp4</property>
  <property name="kdenlive:original.mlt_type">producer</property>
  <property name="kdenlive:original.in">00:00:00.000</property>
  <property name="kdenlive:original.out">00:00:00.983</property>
  <property name="kdenlive:original.length">60</property>
  <property name="kdenlive:original.eof">pause</property>
  <property name="kdenlive:original.resource">video/Intro/22.mp4</property>
  <property name="kdenlive:original.meta.media.nb_streams">1</property>
  <property name="kdenlive:original.meta.media.0.stream.type">video</property>
  <property name="kdenlive:original.meta.media.0.stream.frame_rate">60</property>
  <property name="kdenlive:original.meta.media.0.stream.sample_aspect_ratio">0</property>
  <property name="kdenlive:original.meta.media.0.codec.width">3840</property>
  <property name="kdenlive:original.meta.media.0.codec.height">2160</property>
  <property name="kdenlive:original.meta.media.0.codec.rotate">0</property>
  <property name="kdenlive:original.meta.media.0.codec.pix_fmt">yuv420p</property>
  <property name="kdenlive:original.meta.media.0.codec.sample_aspect_ratio">0</property>
  <property name="kdenlive:original.meta.media.0.codec.colorspace">709</property>
  <property name="kdenlive:original.meta.media.0.codec.name">h264</property>
  <property name="kdenlive:original.meta.media.0.codec.long_name">H.264 / AVC / MPEG-4 AVC / MPEG-4 part 10</property>
  <property name="kdenlive:original.meta.media.0.codec.bit_rate">857416</property>
  <property name="kdenlive:original.meta.attr.0.stream.handler_name.markup">VideoHandler</property>
  <property name="kdenlive:original.meta.attr.0.stream.vendor_id.markup">[0][0][0][0]</property>
  <property name="kdenlive:original.meta.attr.0.stream.encoder.markup">Lavc60.3.100 libx264</property>
  <property name="kdenlive:original.meta.attr.major_brand.markup">isom</property>
  <property name="kdenlive:original.meta.attr.minor_version.markup">512</property>
  <property name="kdenlive:original.meta.attr.compatible_brands.markup">isomiso2avc1mp41</property>
  <property name="kdenlive:original.meta.attr.encoder.markup">Lavf60.3.100</property>
  <property name="kdenlive:original.meta.attr.comment.markup">Rendered with Manim Community v0.17.2</property>
  <property name="kdenlive:original.seekable">1</property>
  <property name="kdenlive:original.width">3840</property>
  <property name="kdenlive:original.height">2160</property>
  <property name="kdenlive:original.meta.media.sample_aspect_num">1</property>
  <property name="kdenlive:original.meta.media.sample_aspect_den">1</property>
  <property name="kdenlive:original.aspect_ratio">1</property>
  <property name="kdenlive:original.format">3</property>
  <property name="kdenlive:original.audio_index">-1</property>
  <property name="kdenlive:original.video_index">0</property>
  <property name="kdenlive:original.mute_on_pause">0</property>
  <property name="kdenlive:original.mlt_service">avformat-novalidate</property>
  <property name="kdenlive:original.meta.media.frame_rate_num">60</property>
  <property name="kdenlive:original.meta.media.frame_rate_den">1</property>
  <property name="kdenlive:original.meta.media.colorspace">709</property>
  <property name="kdenlive:original.meta.media.color_trc">2</property>
  <property name="kdenlive:original.meta.media.has_b_frames">2</property>
  <property name="kdenlive:original.meta.media.width">3840</property>
  <property name="kdenlive:original.meta.media.height">2160</property>
  <property name="kdenlive:original.meta.media.color_range">mpeg</property>
  <property name="kdenlive:original.meta.media.top_field_first">0</property>
  <property name="kdenlive:original.meta.media.progressive">1</property>
  <property name="kdenlive:original.kdenlive:clip_type">2</property>
  <property name="kdenlive:original.kdenlive:folderid">528</property>
  <property name="kdenlive:original.kdenlive:id">543</property>
  <property name="kdenlive:original.kdenlive:file_size">108808</property>
  <property name="kdenlive:original.kdenlive:file_hash">0f6edc0b9dba143346f5c551d9b61080</property>
  <property name="kdenlive:original.backup">1</property>
  <property name="xml">was here</property>
  <property name="meta.media.frame_rate_num">60</property>
  <property name="meta.media.frame_rate_den">1</property>
  <property name="meta.media.colorspace">601</property>
  <property name="meta.media.color_trc">2</property>
  <property name="meta.media.has_b_frames">0</property>
  <property name="meta.media.width">640</property>
  <property name="meta.media.height">360</property>
  <property name="meta.media.color_range">full</property>
  <property name="meta.media.top_field_first">0</property>
  <property name="meta.media.progressive">1</property>
  <property name="set.test_audio">1</property>
  <property name="set.test_image">0</property>
 </producer>
 <producer id="producer554" in="00:00:00.000" out="00:00:00.983">
  <property name="length">60</property>
  <property name="eof">pause</property>
  <property name="resource">/home/xiaoxiae/.cache/kdenlive/proxy/f4af2d57a1a6e97843d8add48d18accc.mkv</property>
  <property name="audio_index">-1</property>
  <property name="video_index">0</property>
  <property name="mute_on_pause">0</property>
  <property name="mlt_service">avformat-novalidate</property>
  <property name="meta.media.nb_streams">1</property>
  <property name="meta.media.0.stream.type">video</property>
  <property name="meta.media.0.stream.frame_rate">60</property>
  <property name="meta.media.0.stream.sample_aspect_ratio">0</property>
  <property name="meta.media.0.codec.width">640</property>
  <property name="meta.media.0.codec.height">360</property>
  <property name="meta.media.0.codec.rotate">0</property>
  <property name="meta.media.0.codec.pix_fmt">yuvj420p</property>
  <property name="meta.media.0.codec.sample_aspect_ratio">0</property>
  <property name="meta.media.0.codec.colorspace">601</property>
  <property name="meta.media.0.codec.name">mjpeg</property>
  <property name="meta.media.0.codec.long_name">MJPEG (Motion JPEG)</property>
  <property name="meta.media.0.codec.bit_rate">0</property>
  <property name="meta.attr.0.stream.HANDLER_NAME.markup">VideoHandler</property>
  <property name="meta.attr.0.stream.VENDOR_ID.markup">[0][0][0][0]</property>
  <property name="meta.attr.0.stream.ENCODER.markup">Lavc60.3.100 mjpeg</property>
  <property name="meta.attr.0.stream.DURATION.markup">00:00:01.000000000</property>
  <property name="meta.attr.COMMENT.markup">Rendered with Manim Community v0.17.2</property>
  <property name="meta.attr.MAJOR_BRAND.markup">isom</property>
  <property name="meta.attr.MINOR_VERSION.markup">512</property>
  <property name="meta.attr.COMPATIBLE_BRANDS.markup">isomiso2avc1mp41</property>
  <property name="meta.attr.ENCODER.markup">Lavf60.3.100</property>
  <property name="seekable">1</property>
  <property name="meta.media.sample_aspect_num">1</property>
  <property name="meta.media.sample_aspect_den">1</property>
  <property name="aspect_ratio">1</property>
  <property name="format">3</property>
  <property name="kdenlive:clipname">23.mp4</property>
  <property name="kdenlive:clip_type">2</property>
  <property name="kdenlive:folderid">528</property>
  <property name="kdenlive:id">434</property>
  <property name="kdenlive:file_size">58603</property>
  <property name="kdenlive:file_hash">f4af2d57a1a6e97843d8add48d18accc</property>
  <property name="kdenlive:proxy">/home/xiaoxiae/.cache/kdenlive/proxy/f4af2d57a1a6e97843d8add48d18accc.mkv</property>
  <property name="kdenlive:originalurl">video/Intro/23.mp4</property>
  <property name="kdenlive:original.mlt_type">producer</property>
  <property name="kdenlive:original.in">00:00:00.000</property>
  <property name="kdenlive:original.out">00:00:00.983</property>
  <property name="kdenlive:original.length">60</property>
  <property name="kdenlive:original.eof">pause</property>
  <property name="kdenlive:original.resource">video/Intro/23.mp4</property>
  <property name="kdenlive:original.meta.media.nb_streams">1</property>
  <property name="kdenlive:original.meta.media.0.stream.type">video</property>
  <property name="kdenlive:original.meta.media.0.stream.frame_rate">60</property>
  <property name="kdenlive:original.meta.media.0.stream.sample_aspect_ratio">0</property>
  <property name="kdenlive:original.meta.media.0.codec.width">3840</property>
  <property name="kdenlive:original.meta.media.0.codec.height">2160</property>
  <property name="kdenlive:original.meta.media.0.codec.rotate">0</property>
  <property name="kdenlive:original.meta.media.0.codec.pix_fmt">yuv420p</property>
  <property name="kdenlive:original.meta.media.0.codec.sample_aspect_ratio">0</property>
  <property name="kdenlive:original.meta.media.0.codec.colorspace">709</property>
  <property name="kdenlive:original.meta.media.0.codec.name">h264</property>
  <property name="kdenlive:original.meta.media.0.codec.long_name">H.264 / AVC / MPEG-4 AVC / MPEG-4 part 10</property>
  <property name="kdenlive:original.meta.media.0.codec.bit_rate">455776</property>
  <property name="kdenlive:original.meta.attr.0.stream.handler_name.markup">VideoHandler</property>
  <property name="kdenlive:original.meta.attr.0.stream.vendor_id.markup">[0][0][0][0]</property>
  <property name="kdenlive:original.meta.attr.0.stream.encoder.markup">Lavc60.3.100 libx264</property>
  <property name="kdenlive:original.meta.attr.major_brand.markup">isom</property>
  <property name="kdenlive:original.meta.attr.minor_version.markup">512</property>
  <property name="kdenlive:original.meta.attr.compatible_brands.markup">isomiso2avc1mp41</property>
  <property name="kdenlive:original.meta.attr.encoder.markup">Lavf60.3.100</property>
  <property name="kdenlive:original.meta.attr.comment.markup">Rendered with Manim Community v0.17.2</property>
  <property name="kdenlive:original.seekable">1</property>
  <property name="kdenlive:original.width">3840</property>
  <property name="kdenlive:original.height">2160</property>
  <property name="kdenlive:original.meta.media.sample_aspect_num">1</property>
  <property name="kdenlive:original.meta.media.sample_aspect_den">1</property>
  <property name="kdenlive:original.aspect_ratio">1</property>
  <property name="kdenlive:original.format">3</property>
  <property name="kdenlive:original.audio_index">-1</property>
  <property name="kdenlive:original.video_index">0</property>
  <property name="kdenlive:original.mute_on_pause">0</property>
  <property name="kdenlive:original.mlt_service">avformat-novalidate</property>
  <property name="kdenlive:original.meta.media.frame_rate_num">60</property>
  <property name="kdenlive:original.meta.media.frame_rate_den">1</property>
  <property name="kdenlive:original.meta.media.colorspace">709</property>
  <property name="kdenlive:original.meta.media.color_trc">2</property>
  <property name="kdenlive:original.meta.media.has_b_frames">2</property>
  <property name="kdenlive:original.meta.media.width">3840</property>
  <property name="kdenlive:original.meta.media.height">2160</property>
  <property name="kdenlive:original.meta.media.color_range">mpeg</property>
  <property name="kdenlive:original.meta.media.top_field_first">0</property>
  <property name="kdenlive:original.meta.media.progressive">1</property>
  <property name="kdenlive:original.kdenlive:clip_type">2</property>
  <property name="kdenlive:original.kdenlive:folderid">528</property>
  <property name="kdenlive:original.kdenlive:id">544</property>
  <property name="kdenlive:original.kdenlive:file_size">58603</property>
  <property name="kdenlive:original.kdenlive:file_hash">f4af2d57a1a6e97843d8add48d18accc</property>
  <property name="kdenlive:original.backup">1</property>
  <property name="xml">was here</property>
  <property name="meta.media.frame_rate_num">60</property>
  <property name="meta.media.frame_rate_den">1</property>
  <property name="meta.media.colorspace">601</property>
  <property name="meta.media.color_trc">2</property>
  <property name="meta.media.has_b_frames">0</property>
  <property name="meta.media.width">640</property>
  <property name="meta.media.height">360</property>
  <property name="meta.media.color_range">full</property>
  <property name="meta.media.top_field_first">0</property>
  <property name="meta.media.progressive">1</property>
  <property name="set.test_audio">1</property>
  <property name="set.test_image">0</property>
 </producer>
 <producer id="producer555" in="00:00:00.000" out="00:00:00.983">
  <property name="length">60</property>
  <property name="eof">pause</property>
  <property name="resource">/home/xiaoxiae/.cache/kdenlive/proxy/073db0504cd7ae8d36367a78b5948b99.mkv</property>
  <property name="audio_index">-1</property>
  <property name="video_index">0</property>
  <property name="mute_on_pause">0</property>
  <property name="mlt_service">avformat-novalidate</property>
  <property name="meta.media.nb_streams">1</property>
  <property name="meta.media.0.stream.type">video</property>
  <property name="meta.media.0.stream.frame_rate">60</property>
  <property name="meta.media.0.stream.sample_aspect_ratio">0</property>
  <property name="meta.media.0.codec.width">640</property>
  <property name="meta.media.0.codec.height">360</property>
  <property name="meta.media.0.codec.rotate">0</property>
  <property name="meta.media.0.codec.pix_fmt">yuvj420p</property>
  <property name="meta.media.0.codec.sample_aspect_ratio">0</property>
  <property name="meta.media.0.codec.colorspace">601</property>
  <property name="meta.media.0.codec.name">mjpeg</property>
  <property name="meta.media.0.codec.long_name">MJPEG (Motion JPEG)</property>
  <property name="meta.media.0.codec.bit_rate">0</property>
  <property name="meta.attr.0.stream.HANDLER_NAME.markup">VideoHandler</property>
  <property name="meta.attr.0.stream.VENDOR_ID.markup">[0][0][0][0]</property>
  <property name="meta.attr.0.stream.ENCODER.markup">Lavc60.3.100 mjpeg</property>
  <property name="meta.attr.0.stream.DURATION.markup">00:00:01.000000000</property>
  <property name="meta.attr.COMMENT.markup">Rendered with Manim Community v0.17.2</property>
  <property name="meta.attr.MAJOR_BRAND.markup">isom</property>
  <property name="meta.attr.MINOR_VERSION.markup">512</property>
  <property name="meta.attr.COMPATIBLE_BRANDS.markup">isomiso2avc1mp41</property>
  <property name="meta.attr.ENCODER.markup">Lavf60.3.100</property>
  <property name="seekable">1</property>
  <property name="meta.media.sample_aspect_num">1</property>
  <property name="meta.media.sample_aspect_den">1</property>
  <property name="aspect_ratio">1</property>
  <property name="format">3</property>
  <property name="kdenlive:clipname">24.mp4</property>
  <property name="kdenlive:clip_type">2</property>
  <property name="kdenlive:folderid">528</property>
  <property name="kdenlive:id">435</property>
  <property name="kdenlive:file_size">107488</property>
  <property name="kdenlive:file_hash">073db0504cd7ae8d36367a78b5948b99</property>
  <property name="kdenlive:proxy">/home/xiaoxiae/.cache/kdenlive/proxy/073db0504cd7ae8d36367a78b5948b99.mkv</property>
  <property name="kdenlive:originalurl">video/Intro/24.mp4</property>
  <property name="kdenlive:original.mlt_type">producer</property>
  <property name="kdenlive:original.in">00:00:00.000</property>
  <property name="kdenlive:original.out">00:00:00.983</property>
  <property name="kdenlive:original.length">60</property>
  <property name="kdenlive:original.eof">pause</property>
  <property name="kdenlive:original.resource">video/Intro/24.mp4</property>
  <property name="kdenlive:original.meta.media.nb_streams">1</property>
  <property name="kdenlive:original.meta.media.0.stream.type">video</property>
  <property name="kdenlive:original.meta.media.0.stream.frame_rate">60</property>
  <property name="kdenlive:original.meta.media.0.stream.sample_aspect_ratio">0</property>
  <property name="kdenlive:original.meta.media.0.codec.width">3840</property>
  <property name="kdenlive:original.meta.media.0.codec.height">2160</property>
  <property name="kdenlive:original.meta.media.0.codec.rotate">0</property>
  <property name="kdenlive:original.meta.media.0.codec.pix_fmt">yuv420p</property>
  <property name="kdenlive:original.meta.media.0.codec.sample_aspect_ratio">0</property>
  <property name="kdenlive:original.meta.media.0.codec.colorspace">709</property>
  <property name="kdenlive:original.meta.media.0.codec.name">h264</property>
  <property name="kdenlive:original.meta.media.0.codec.long_name">H.264 / AVC / MPEG-4 AVC / MPEG-4 part 10</property>
  <property name="kdenlive:original.meta.media.0.codec.bit_rate">847048</property>
  <property name="kdenlive:original.meta.attr.0.stream.handler_name.markup">VideoHandler</property>
  <property name="kdenlive:original.meta.attr.0.stream.vendor_id.markup">[0][0][0][0]</property>
  <property name="kdenlive:original.meta.attr.0.stream.encoder.markup">Lavc60.3.100 libx264</property>
  <property name="kdenlive:original.meta.attr.major_brand.markup">isom</property>
  <property name="kdenlive:original.meta.attr.minor_version.markup">512</property>
  <property name="kdenlive:original.meta.attr.compatible_brands.markup">isomiso2avc1mp41</property>
  <property name="kdenlive:original.meta.attr.encoder.markup">Lavf60.3.100</property>
  <property name="kdenlive:original.meta.attr.comment.markup">Rendered with Manim Community v0.17.2</property>
  <property name="kdenlive:original.seekable">1</property>
  <property name="kdenlive:original.width">3840</property>
  <property name="kdenlive:original.height">2160</property>
  <property name="kdenlive:original.meta.media.sample_aspect_num">1</property>
  <property name="kdenlive:original.meta.media.sample_aspect_den">1</property>
  <property name="kdenlive:original.aspect_ratio">1</property>
  <property name="kdenlive:original.format">3</property>
  <property name="kdenlive:original.audio_index">-1</property>
  <property name="kdenlive:original.video_index">0</property>
  <property name="kdenlive:original.mute_on_pause">0</property>
  <property name="kdenlive:original.mlt_service">avformat-novalidate</property>
  <property name="kdenlive:original.meta.media.frame_rate_num">60</property>
  <property name="kdenlive:original.meta.media.frame_rate_den">1</property>
  <property name="kdenlive:original.meta.media.colorspace">709</property>
  <property name="kdenlive:original.meta.media.color_trc">2</property>
  <property name="kdenlive:original.meta.media.has_b_frames">2</property>
  <property name="kdenlive:original.meta.media.width">3840</property>
  <property name="kdenlive:original.meta.media.height">2160</property>
  <property name="kdenlive:original.meta.media.color_range">mpeg</property>
  <property name="kdenlive:original.meta.media.top_field_first">0</property>
  <property name="kdenlive:original.meta.media.progressive">1</property>
  <property name="kdenlive:original.kdenlive:clip_type">2</property>
  <property name="kdenlive:original.kdenlive:folderid">528</property>
  <property name="kdenlive:original.kdenlive:id">545</property>
  <property name="kdenlive:original.kdenlive:file_size">107488</property>
  <property name="kdenlive:original.kdenlive:file_hash">073db0504cd7ae8d36367a78b5948b99</property>
  <property name="kdenlive:original.backup">1</property>
  <property name="xml">was here</property>
  <property name="meta.media.frame_rate_num">60</property>
  <property name="meta.media.frame_rate_den">1</property>
  <property name="meta.media.colorspace">601</property>
  <property name="meta.media.color_trc">2</property>
  <property name="meta.media.has_b_frames">0</property>
  <property name="meta.media.width">640</property>
  <property name="meta.media.height">360</property>
  <property name="meta.media.color_range">full</property>
  <property name="meta.media.top_field_first">0</property>
  <property name="meta.media.progressive">1</property>
  <property name="set.test_audio">1</property>
  <property name="set.test_image">0</property>
 </producer>
 <producer id="producer556" in="00:00:00.000" out="00:00:00.983">
  <property name="length">60</property>
  <property name="eof">pause</property>
  <property name="resource">/home/xiaoxiae/.cache/kdenlive/proxy/15e070acdbf788cb9dd002e08056a00f.mkv</property>
  <property name="audio_index">-1</property>
  <property name="video_index">0</property>
  <property name="mute_on_pause">0</property>
  <property name="mlt_service">avformat-novalidate</property>
  <property name="meta.media.nb_streams">1</property>
  <property name="meta.media.0.stream.type">video</property>
  <property name="meta.media.0.stream.frame_rate">60</property>
  <property name="meta.media.0.stream.sample_aspect_ratio">0</property>
  <property name="meta.media.0.codec.width">640</property>
  <property name="meta.media.0.codec.height">360</property>
  <property name="meta.media.0.codec.rotate">0</property>
  <property name="meta.media.0.codec.pix_fmt">yuvj420p</property>
  <property name="meta.media.0.codec.sample_aspect_ratio">0</property>
  <property name="meta.media.0.codec.colorspace">601</property>
  <property name="meta.media.0.codec.name">mjpeg</property>
  <property name="meta.media.0.codec.long_name">MJPEG (Motion JPEG)</property>
  <property name="meta.media.0.codec.bit_rate">0</property>
  <property name="meta.attr.0.stream.HANDLER_NAME.markup">VideoHandler</property>
  <property name="meta.attr.0.stream.VENDOR_ID.markup">[0][0][0][0]</property>
  <property name="meta.attr.0.stream.ENCODER.markup">Lavc60.3.100 mjpeg</property>
  <property name="meta.attr.0.stream.DURATION.markup">00:00:01.000000000</property>
  <property name="meta.attr.COMMENT.markup">Rendered with Manim Community v0.17.2</property>
  <property name="meta.attr.MAJOR_BRAND.markup">isom</property>
  <property name="meta.attr.MINOR_VERSION.markup">512</property>
  <property name="meta.attr.COMPATIBLE_BRANDS.markup">isomiso2avc1mp41</property>
  <property name="meta.attr.ENCODER.markup">Lavf60.3.100</property>
  <property name="seekable">1</property>
  <property name="meta.media.sample_aspect_num">1</property>
  <property name="meta.media.sample_aspect_den">1</property>
  <property name="aspect_ratio">1</property>
  <property name="format">3</property>
  <property name="kdenlive:clipname">25.mp4</property>
  <property name="kdenlive:clip_type">2</property>
  <property name="kdenlive:folderid">528</property>
  <property name="kdenlive:id">436</property>
  <property name="kdenlive:file_size">67854</property>
  <property name="kdenlive:file_hash">15e070acdbf788cb9dd002e08056a00f</property>
  <property name="kdenlive:proxy">/home/xiaoxiae/.cache/kdenlive/proxy/15e070acdbf788cb9dd002e08056a00f.mkv</property>
  <property name="kdenlive:originalurl">video/Intro/25.mp4</property>
  <property name="kdenlive:original.mlt_type">producer</property>
  <property name="kdenlive:original.in">00:00:00.000</property>
  <property name="kdenlive:original.out">00:00:00.983</property>
  <property name="kdenlive:original.length">60</property>
  <property name="kdenlive:original.eof">pause</property>
  <property name="kdenlive:original.resource">video/Intro/25.mp4</property>
  <property name="kdenlive:original.meta.media.nb_streams">1</property>
  <property name="kdenlive:original.meta.media.0.stream.type">video</property>
  <property name="kdenlive:original.meta.media.0.stream.frame_rate">60</property>
  <property name="kdenlive:original.meta.media.0.stream.sample_aspect_ratio">0</property>
  <property name="kdenlive:original.meta.media.0.codec.width">3840</property>
  <property name="kdenlive:original.meta.media.0.codec.height">2160</property>
  <property name="kdenlive:original.meta.media.0.codec.rotate">0</property>
  <property name="kdenlive:original.meta.media.0.codec.pix_fmt">yuv420p</property>
  <property name="kdenlive:original.meta.media.0.codec.sample_aspect_ratio">0</property>
  <property name="kdenlive:original.meta.media.0.codec.colorspace">709</property>
  <property name="kdenlive:original.meta.media.0.codec.name">h264</property>
  <property name="kdenlive:original.meta.media.0.codec.long_name">H.264 / AVC / MPEG-4 AVC / MPEG-4 part 10</property>
  <property name="kdenlive:original.meta.media.0.codec.bit_rate">529912</property>
  <property name="kdenlive:original.meta.attr.0.stream.handler_name.markup">VideoHandler</property>
  <property name="kdenlive:original.meta.attr.0.stream.vendor_id.markup">[0][0][0][0]</property>
  <property name="kdenlive:original.meta.attr.0.stream.encoder.markup">Lavc60.3.100 libx264</property>
  <property name="kdenlive:original.meta.attr.major_brand.markup">isom</property>
  <property name="kdenlive:original.meta.attr.minor_version.markup">512</property>
  <property name="kdenlive:original.meta.attr.compatible_brands.markup">isomiso2avc1mp41</property>
  <property name="kdenlive:original.meta.attr.encoder.markup">Lavf60.3.100</property>
  <property name="kdenlive:original.meta.attr.comment.markup">Rendered with Manim Community v0.17.2</property>
  <property name="kdenlive:original.seekable">1</property>
  <property name="kdenlive:original.width">3840</property>
  <property name="kdenlive:original.height">2160</property>
  <property name="kdenlive:original.meta.media.sample_aspect_num">1</property>
  <property name="kdenlive:original.meta.media.sample_aspect_den">1</property>
  <property name="kdenlive:original.aspect_ratio">1</property>
  <property name="kdenlive:original.format">3</property>
  <property name="kdenlive:original.audio_index">-1</property>
  <property name="kdenlive:original.video_index">0</property>
  <property name="kdenlive:original.mute_on_pause">0</property>
  <property name="kdenlive:original.mlt_service">avformat-novalidate</property>
  <property name="kdenlive:original.meta.media.frame_rate_num">60</property>
  <property name="kdenlive:original.meta.media.frame_rate_den">1</property>
  <property name="kdenlive:original.meta.media.colorspace">709</property>
  <property name="kdenlive:original.meta.media.color_trc">2</property>
  <property name="kdenlive:original.meta.media.has_b_frames">2</property>
  <property name="kdenlive:original.meta.media.width">3840</property>
  <property name="kdenlive:original.meta.media.height">2160</property>
  <property name="kdenlive:original.meta.media.color_range">mpeg</property>
  <property name="kdenlive:original.meta.media.top_field_first">0</property>
  <property name="kdenlive:original.meta.media.progressive">1</property>
  <property name="kdenlive:original.kdenlive:clip_type">2</property>
  <property name="kdenlive:original.kdenlive:folderid">528</property>
  <property name="kdenlive:original.kdenlive:id">546</property>
  <property name="kdenlive:original.kdenlive:file_size">67854</property>
  <property name="kdenlive:original.kdenlive:file_hash">15e070acdbf788cb9dd002e08056a00f</property>
  <property name="kdenlive:original.backup">1</property>
  <property name="xml">was here</property>
  <property name="meta.media.frame_rate_num">60</property>
  <property name="meta.media.frame_rate_den">1</property>
  <property name="meta.media.colorspace">601</property>
  <property name="meta.media.color_trc">2</property>
  <property name="meta.media.has_b_frames">0</property>
  <property name="meta.media.width">640</property>
  <property name="meta.media.height">360</property>
  <property name="meta.media.color_range">full</property>
  <property name="meta.media.top_field_first">0</property>
  <property name="meta.media.progressive">1</property>
  <property name="set.test_audio">1</property>
  <property name="set.test_image">0</property>
 </producer>
 <producer id="producer557" in="00:00:00.000" out="00:00:00.983">
  <property name="length">60</property>
  <property name="eof">pause</property>
  <property name="resource">/home/xiaoxiae/.cache/kdenlive/proxy/5aea77cf056ec5c9ba1dbb6661ac3f90.mkv</property>
  <property name="audio_index">-1</property>
  <property name="video_index">0</property>
  <property name="mute_on_pause">0</property>
  <property name="mlt_service">avformat-novalidate</property>
  <property name="meta.media.nb_streams">1</property>
  <property name="meta.media.0.stream.type">video</property>
  <property name="meta.media.0.stream.frame_rate">60</property>
  <property name="meta.media.0.stream.sample_aspect_ratio">0</property>
  <property name="meta.media.0.codec.width">640</property>
  <property name="meta.media.0.codec.height">360</property>
  <property name="meta.media.0.codec.rotate">0</property>
  <property name="meta.media.0.codec.pix_fmt">yuvj420p</property>
  <property name="meta.media.0.codec.sample_aspect_ratio">0</property>
  <property name="meta.media.0.codec.colorspace">601</property>
  <property name="meta.media.0.codec.name">mjpeg</property>
  <property name="meta.media.0.codec.long_name">MJPEG (Motion JPEG)</property>
  <property name="meta.media.0.codec.bit_rate">0</property>
  <property name="meta.attr.0.stream.HANDLER_NAME.markup">VideoHandler</property>
  <property name="meta.attr.0.stream.VENDOR_ID.markup">[0][0][0][0]</property>
  <property name="meta.attr.0.stream.ENCODER.markup">Lavc60.3.100 mjpeg</property>
  <property name="meta.attr.0.stream.DURATION.markup">00:00:01.000000000</property>
  <property name="meta.attr.COMMENT.markup">Rendered with Manim Community v0.17.2</property>
  <property name="meta.attr.MAJOR_BRAND.markup">isom</property>
  <property name="meta.attr.MINOR_VERSION.markup">512</property>
  <property name="meta.attr.COMPATIBLE_BRANDS.markup">isomiso2avc1mp41</property>
  <property name="meta.attr.ENCODER.markup">Lavf60.3.100</property>
  <property name="seekable">1</property>
  <property name="meta.media.sample_aspect_num">1</property>
  <property name="meta.media.sample_aspect_den">1</property>
  <property name="aspect_ratio">1</property>
  <property name="format">3</property>
  <property name="kdenlive:clipname">26.mp4</property>
  <property name="kdenlive:clip_type">2</property>
  <property name="kdenlive:folderid">528</property>
  <property name="kdenlive:id">437</property>
  <property name="kdenlive:file_size">340777</property>
  <property name="kdenlive:file_hash">5aea77cf056ec5c9ba1dbb6661ac3f90</property>
  <property name="kdenlive:proxy">/home/xiaoxiae/.cache/kdenlive/proxy/5aea77cf056ec5c9ba1dbb6661ac3f90.mkv</property>
  <property name="kdenlive:originalurl">video/Intro/26.mp4</property>
  <property name="kdenlive:original.mlt_type">producer</property>
  <property name="kdenlive:original.in">00:00:00.000</property>
  <property name="kdenlive:original.out">00:00:00.983</property>
  <property name="kdenlive:original.length">60</property>
  <property name="kdenlive:original.eof">pause</property>
  <property name="kdenlive:original.resource">video/Intro/26.mp4</property>
  <property name="kdenlive:original.meta.media.nb_streams">1</property>
  <property name="kdenlive:original.meta.media.0.stream.type">video</property>
  <property name="kdenlive:original.meta.media.0.stream.frame_rate">60</property>
  <property name="kdenlive:original.meta.media.0.stream.sample_aspect_ratio">0</property>
  <property name="kdenlive:original.meta.media.0.codec.width">3840</property>
  <property name="kdenlive:original.meta.media.0.codec.height">2160</property>
  <property name="kdenlive:original.meta.media.0.codec.rotate">0</property>
  <property name="kdenlive:original.meta.media.0.codec.pix_fmt">yuv420p</property>
  <property name="kdenlive:original.meta.media.0.codec.sample_aspect_ratio">0</property>
  <property name="kdenlive:original.meta.media.0.codec.colorspace">709</property>
  <property name="kdenlive:original.meta.media.0.codec.name">h264</property>
  <property name="kdenlive:original.meta.media.0.codec.long_name">H.264 / AVC / MPEG-4 AVC / MPEG-4 part 10</property>
  <property name="kdenlive:original.meta.media.0.codec.bit_rate">2715344</property>
  <property name="kdenlive:original.meta.attr.0.stream.handler_name.markup">VideoHandler</property>
  <property name="kdenlive:original.meta.attr.0.stream.vendor_id.markup">[0][0][0][0]</property>
  <property name="kdenlive:original.meta.attr.0.stream.encoder.markup">Lavc60.3.100 libx264</property>
  <property name="kdenlive:original.meta.attr.major_brand.markup">isom</property>
  <property name="kdenlive:original.meta.attr.minor_version.markup">512</property>
  <property name="kdenlive:original.meta.attr.compatible_brands.markup">isomiso2avc1mp41</property>
  <property name="kdenlive:original.meta.attr.encoder.markup">Lavf60.3.100</property>
  <property name="kdenlive:original.meta.attr.comment.markup">Rendered with Manim Community v0.17.2</property>
  <property name="kdenlive:original.seekable">1</property>
  <property name="kdenlive:original.width">3840</property>
  <property name="kdenlive:original.height">2160</property>
  <property name="kdenlive:original.meta.media.sample_aspect_num">1</property>
  <property name="kdenlive:original.meta.media.sample_aspect_den">1</property>
  <property name="kdenlive:original.aspect_ratio">1</property>
  <property name="kdenlive:original.format">3</property>
  <property name="kdenlive:original.audio_index">-1</property>
  <property name="kdenlive:original.video_index">0</property>
  <property name="kdenlive:original.mute_on_pause">0</property>
  <property name="kdenlive:original.mlt_service">avformat-novalidate</property>
  <property name="kdenlive:original.meta.media.frame_rate_num">60</property>
  <property name="kdenlive:original.meta.media.frame_rate_den">1</property>
  <property name="kdenlive:original.meta.media.colorspace">709</property>
  <property name="kdenlive:original.meta.media.color_trc">2</property>
  <property name="kdenlive:original.meta.media.has_b_frames">2</property>
  <property name="kdenlive:original.meta.media.width">3840</property>
  <property name="kdenlive:original.meta.media.height">2160</property>
  <property name="kdenlive:original.meta.media.color_range">mpeg</property>
  <property name="kdenlive:original.meta.media.top_field_first">0</property>
  <property name="kdenlive:original.meta.media.progressive">1</property>
  <property name="kdenlive:original.kdenlive:clip_type">2</property>
  <property name="kdenlive:original.kdenlive:folderid">528</property>
  <property name="kdenlive:original.kdenlive:id">547</property>
  <property name="kdenlive:original.kdenlive:file_size">340777</property>
  <property name="kdenlive:original.kdenlive:file_hash">5aea77cf056ec5c9ba1dbb6661ac3f90</property>
  <property name="kdenlive:original.backup">1</property>
  <property name="xml">was here</property>
  <property name="meta.media.frame_rate_num">60</property>
  <property name="meta.media.frame_rate_den">1</property>
  <property name="meta.media.colorspace">601</property>
  <property name="meta.media.color_trc">2</property>
  <property name="meta.media.has_b_frames">0</property>
  <property name="meta.media.width">640</property>
  <property name="meta.media.height">360</property>
  <property name="meta.media.color_range">full</property>
  <property name="meta.media.top_field_first">0</property>
  <property name="meta.media.progressive">1</property>
  <property name="set.test_audio">1</property>
  <property name="set.test_image">0</property>
 </producer>
 <producer id="producer558" in="00:00:00.000" out="00:00:00.983">
  <property name="length">60</property>
  <property name="eof">pause</property>
  <property name="resource">/home/xiaoxiae/.cache/kdenlive/proxy/55bb98b36f3d7b86bd0e98b9db3ec80e.mkv</property>
  <property name="audio_index">-1</property>
  <property name="video_index">0</property>
  <property name="mute_on_pause">0</property>
  <property name="mlt_service">avformat-novalidate</property>
  <property name="meta.media.nb_streams">1</property>
  <property name="meta.media.0.stream.type">video</property>
  <property name="meta.media.0.stream.frame_rate">60</property>
  <property name="meta.media.0.stream.sample_aspect_ratio">0</property>
  <property name="meta.media.0.codec.width">640</property>
  <property name="meta.media.0.codec.height">360</property>
  <property name="meta.media.0.codec.rotate">0</property>
  <property name="meta.media.0.codec.pix_fmt">yuvj420p</property>
  <property name="meta.media.0.codec.sample_aspect_ratio">0</property>
  <property name="meta.media.0.codec.colorspace">601</property>
  <property name="meta.media.0.codec.name">mjpeg</property>
  <property name="meta.media.0.codec.long_name">MJPEG (Motion JPEG)</property>
  <property name="meta.media.0.codec.bit_rate">0</property>
  <property name="meta.attr.0.stream.HANDLER_NAME.markup">VideoHandler</property>
  <property name="meta.attr.0.stream.VENDOR_ID.markup">[0][0][0][0]</property>
  <property name="meta.attr.0.stream.ENCODER.markup">Lavc60.3.100 mjpeg</property>
  <property name="meta.attr.0.stream.DURATION.markup">00:00:01.000000000</property>
  <property name="meta.attr.COMMENT.markup">Rendered with Manim Community v0.17.2</property>
  <property name="meta.attr.MAJOR_BRAND.markup">isom</property>
  <property name="meta.attr.MINOR_VERSION.markup">512</property>
  <property name="meta.attr.COMPATIBLE_BRANDS.markup">isomiso2avc1mp41</property>
  <property name="meta.attr.ENCODER.markup">Lavf60.3.100</property>
  <property name="seekable">1</property>
  <property name="meta.media.sample_aspect_num">1</property>
  <property name="meta.media.sample_aspect_den">1</property>
  <property name="aspect_ratio">1</property>
  <property name="format">3</property>
  <property name="kdenlive:clipname">27.mp4</property>
  <property name="kdenlive:clip_type">2</property>
  <property name="kdenlive:folderid">528</property>
  <property name="kdenlive:id">438</property>
  <property name="kdenlive:file_size">501019</property>
  <property name="kdenlive:file_hash">55bb98b36f3d7b86bd0e98b9db3ec80e</property>
  <property name="kdenlive:proxy">/home/xiaoxiae/.cache/kdenlive/proxy/55bb98b36f3d7b86bd0e98b9db3ec80e.mkv</property>
  <property name="kdenlive:originalurl">video/Intro/27.mp4</property>
  <property name="kdenlive:original.mlt_type">producer</property>
  <property name="kdenlive:original.in">00:00:00.000</property>
  <property name="kdenlive:original.out">00:00:00.983</property>
  <property name="kdenlive:original.length">60</property>
  <property name="kdenlive:original.eof">pause</property>
  <property name="kdenlive:original.resource">video/Intro/27.mp4</property>
  <property name="kdenlive:original.meta.media.nb_streams">1</property>
  <property name="kdenlive:original.meta.media.0.stream.type">video</property>
  <property name="kdenlive:original.meta.media.0.stream.frame_rate">60</property>
  <property name="kdenlive:original.meta.media.0.stream.sample_aspect_ratio">0</property>
  <property name="kdenlive:original.meta.media.0.codec.width">3840</property>
  <property name="kdenlive:original.meta.media.0.codec.height">2160</property>
  <property name="kdenlive:original.meta.media.0.codec.rotate">0</property>
  <property name="kdenlive:original.meta.media.0.codec.pix_fmt">yuv420p</property>
  <property name="kdenlive:original.meta.media.0.codec.sample_aspect_ratio">0</property>
  <property name="kdenlive:original.meta.media.0.codec.colorspace">709</property>
  <property name="kdenlive:original.meta.media.0.codec.name">h264</property>
  <property name="kdenlive:original.meta.media.0.codec.long_name">H.264 / AVC / MPEG-4 AVC / MPEG-4 part 10</property>
  <property name="kdenlive:original.meta.media.0.codec.bit_rate">3996704</property>
  <property name="kdenlive:original.meta.attr.0.stream.handler_name.markup">VideoHandler</property>
  <property name="kdenlive:original.meta.attr.0.stream.vendor_id.markup">[0][0][0][0]</property>
  <property name="kdenlive:original.meta.attr.0.stream.encoder.markup">Lavc60.3.100 libx264</property>
  <property name="kdenlive:original.meta.attr.major_brand.markup">isom</property>
  <property name="kdenlive:original.meta.attr.minor_version.markup">512</property>
  <property name="kdenlive:original.meta.attr.compatible_brands.markup">isomiso2avc1mp41</property>
  <property name="kdenlive:original.meta.attr.encoder.markup">Lavf60.3.100</property>
  <property name="kdenlive:original.meta.attr.comment.markup">Rendered with Manim Community v0.17.2</property>
  <property name="kdenlive:original.seekable">1</property>
  <property name="kdenlive:original.width">3840</property>
  <property name="kdenlive:original.height">2160</property>
  <property name="kdenlive:original.meta.media.sample_aspect_num">1</property>
  <property name="kdenlive:original.meta.media.sample_aspect_den">1</property>
  <property name="kdenlive:original.aspect_ratio">1</property>
  <property name="kdenlive:original.format">3</property>
  <property name="kdenlive:original.audio_index">-1</property>
  <property name="kdenlive:original.video_index">0</property>
  <property name="kdenlive:original.mute_on_pause">0</property>
  <property name="kdenlive:original.mlt_service">avformat-novalidate</property>
  <property name="kdenlive:original.meta.media.frame_rate_num">60</property>
  <property name="kdenlive:original.meta.media.frame_rate_den">1</property>
  <property name="kdenlive:original.meta.media.colorspace">709</property>
  <property name="kdenlive:original.meta.media.color_trc">2</property>
  <property name="kdenlive:original.meta.media.has_b_frames">2</property>
  <property name="kdenlive:original.meta.media.width">3840</property>
  <property name="kdenlive:original.meta.media.height">2160</property>
  <property name="kdenlive:original.meta.media.color_range">mpeg</property>
  <property name="kdenlive:original.meta.media.top_field_first">0</property>
  <property name="kdenlive:original.meta.media.progressive">1</property>
  <property name="kdenlive:original.kdenlive:clip_type">2</property>
  <property name="kdenlive:original.kdenlive:folderid">528</property>
  <property name="kdenlive:original.kdenlive:id">548</property>
  <property name="kdenlive:original.kdenlive:file_size">501019</property>
  <property name="kdenlive:original.kdenlive:file_hash">55bb98b36f3d7b86bd0e98b9db3ec80e</property>
  <property name="kdenlive:original.backup">1</property>
  <property name="xml">was here</property>
  <property name="meta.media.frame_rate_num">60</property>
  <property name="meta.media.frame_rate_den">1</property>
  <property name="meta.media.colorspace">601</property>
  <property name="meta.media.color_trc">2</property>
  <property name="meta.media.has_b_frames">0</property>
  <property name="meta.media.width">640</property>
  <property name="meta.media.height">360</property>
  <property name="meta.media.color_range">full</property>
  <property name="meta.media.top_field_first">0</property>
  <property name="meta.media.progressive">1</property>
  <property name="set.test_audio">1</property>
  <property name="set.test_image">0</property>
 </producer>
 <producer id="producer559" in="00:00:00.000" out="00:00:01.483">
  <property name="length">90</property>
  <property name="eof">pause</property>
  <property name="resource">/home/xiaoxiae/.cache/kdenlive/proxy/5e27e1f4a04fc21f7fb9b4c60cf8a05b.mkv</property>
  <property name="audio_index">-1</property>
  <property name="video_index">0</property>
  <property name="mute_on_pause">0</property>
  <property name="mlt_service">avformat-novalidate</property>
  <property name="meta.media.nb_streams">1</property>
  <property name="meta.media.0.stream.type">video</property>
  <property name="meta.media.0.stream.frame_rate">60</property>
  <property name="meta.media.0.stream.sample_aspect_ratio">0</property>
  <property name="meta.media.0.codec.width">640</property>
  <property name="meta.media.0.codec.height">360</property>
  <property name="meta.media.0.codec.rotate">0</property>
  <property name="meta.media.0.codec.pix_fmt">yuvj420p</property>
  <property name="meta.media.0.codec.sample_aspect_ratio">0</property>
  <property name="meta.media.0.codec.colorspace">601</property>
  <property name="meta.media.0.codec.name">mjpeg</property>
  <property name="meta.media.0.codec.long_name">MJPEG (Motion JPEG)</property>
  <property name="meta.media.0.codec.bit_rate">0</property>
  <property name="meta.attr.0.stream.HANDLER_NAME.markup">VideoHandler</property>
  <property name="meta.attr.0.stream.VENDOR_ID.markup">[0][0][0][0]</property>
  <property name="meta.attr.0.stream.ENCODER.markup">Lavc60.3.100 mjpeg</property>
  <property name="meta.attr.0.stream.DURATION.markup">00:00:01.500000000</property>
  <property name="meta.attr.COMMENT.markup">Rendered with Manim Community v0.17.2</property>
  <property name="meta.attr.MAJOR_BRAND.markup">isom</property>
  <property name="meta.attr.MINOR_VERSION.markup">512</property>
  <property name="meta.attr.COMPATIBLE_BRANDS.markup">isomiso2avc1mp41</property>
  <property name="meta.attr.ENCODER.markup">Lavf60.3.100</property>
  <property name="seekable">1</property>
  <property name="meta.media.sample_aspect_num">1</property>
  <property name="meta.media.sample_aspect_den">1</property>
  <property name="aspect_ratio">1</property>
  <property name="format">3</property>
  <property name="kdenlive:clipname">28.mp4</property>
  <property name="kdenlive:clip_type">2</property>
  <property name="kdenlive:folderid">528</property>
  <property name="kdenlive:id">439</property>
  <property name="kdenlive:file_size">329253</property>
  <property name="kdenlive:file_hash">5e27e1f4a04fc21f7fb9b4c60cf8a05b</property>
  <property name="kdenlive:proxy">/home/xiaoxiae/.cache/kdenlive/proxy/5e27e1f4a04fc21f7fb9b4c60cf8a05b.mkv</property>
  <property name="kdenlive:originalurl">video/Intro/28.mp4</property>
  <property name="kdenlive:original.mlt_type">producer</property>
  <property name="kdenlive:original.in">00:00:00.000</property>
  <property name="kdenlive:original.out">00:00:01.483</property>
  <property name="kdenlive:original.length">90</property>
  <property name="kdenlive:original.eof">pause</property>
  <property name="kdenlive:original.resource">video/Intro/28.mp4</property>
  <property name="kdenlive:original.meta.media.nb_streams">1</property>
  <property name="kdenlive:original.meta.media.0.stream.type">video</property>
  <property name="kdenlive:original.meta.media.0.stream.frame_rate">60</property>
  <property name="kdenlive:original.meta.media.0.stream.sample_aspect_ratio">0</property>
  <property name="kdenlive:original.meta.media.0.codec.width">3840</property>
  <property name="kdenlive:original.meta.media.0.codec.height">2160</property>
  <property name="kdenlive:original.meta.media.0.codec.rotate">0</property>
  <property name="kdenlive:original.meta.media.0.codec.pix_fmt">yuv420p</property>
  <property name="kdenlive:original.meta.media.0.codec.sample_aspect_ratio">0</property>
  <property name="kdenlive:original.meta.media.0.codec.colorspace">709</property>
  <property name="kdenlive:original.meta.media.0.codec.name">h264</property>
  <property name="kdenlive:original.meta.media.0.codec.long_name">H.264 / AVC / MPEG-4 AVC / MPEG-4 part 10</property>
  <property name="kdenlive:original.meta.media.0.codec.bit_rate">1745397</property>
  <property name="kdenlive:original.meta.attr.0.stream.handler_name.markup">VideoHandler</property>
  <property name="kdenlive:original.meta.attr.0.stream.vendor_id.markup">[0][0][0][0]</property>
  <property name="kdenlive:original.meta.attr.0.stream.encoder.markup">Lavc60.3.100 libx264</property>
  <property name="kdenlive:original.meta.attr.major_brand.markup">isom</property>
  <property name="kdenlive:original.meta.attr.minor_version.markup">512</property>
  <property name="kdenlive:original.meta.attr.compatible_brands.markup">isomiso2avc1mp41</property>
  <property name="kdenlive:original.meta.attr.encoder.markup">Lavf60.3.100</property>
  <property name="kdenlive:original.meta.attr.comment.markup">Rendered with Manim Community v0.17.2</property>
  <property name="kdenlive:original.seekable">1</property>
  <property name="kdenlive:original.width">3840</property>
  <property name="kdenlive:original.height">2160</property>
  <property name="kdenlive:original.meta.media.sample_aspect_num">1</property>
  <property name="kdenlive:original.meta.media.sample_aspect_den">1</property>
  <property name="kdenlive:original.aspect_ratio">1</property>
  <property name="kdenlive:original.format">3</property>
  <property name="kdenlive:original.audio_index">-1</property>
  <property name="kdenlive:original.video_index">0</property>
  <property name="kdenlive:original.mute_on_pause">0</property>
  <property name="kdenlive:original.mlt_service">avformat-novalidate</property>
  <property name="kdenlive:original.meta.media.frame_rate_num">60</property>
  <property name="kdenlive:original.meta.media.frame_rate_den">1</property>
  <property name="kdenlive:original.meta.media.colorspace">709</property>
  <property name="kdenlive:original.meta.media.color_trc">2</property>
  <property name="kdenlive:original.meta.media.has_b_frames">2</property>
  <property name="kdenlive:original.meta.media.width">3840</property>
  <property name="kdenlive:original.meta.media.height">2160</property>
  <property name="kdenlive:original.meta.media.color_range">mpeg</property>
  <property name="kdenlive:original.meta.media.top_field_first">0</property>
  <property name="kdenlive:original.meta.media.progressive">1</property>
  <property name="kdenlive:original.kdenlive:clip_type">2</property>
  <property name="kdenlive:original.kdenlive:folderid">528</property>
  <property name="kdenlive:original.kdenlive:id">549</property>
  <property name="kdenlive:original.kdenlive:file_size">329253</property>
  <property name="kdenlive:original.kdenlive:file_hash">5e27e1f4a04fc21f7fb9b4c60cf8a05b</property>
  <property name="kdenlive:original.backup">1</property>
  <property name="xml">was here</property>
  <property name="meta.media.frame_rate_num">60</property>
  <property name="meta.media.frame_rate_den">1</property>
  <property name="meta.media.colorspace">601</property>
  <property name="meta.media.color_trc">2</property>
  <property name="meta.media.has_b_frames">0</property>
  <property name="meta.media.width">640</property>
  <property name="meta.media.height">360</property>
  <property name="meta.media.color_range">full</property>
  <property name="meta.media.top_field_first">0</property>
  <property name="meta.media.progressive">1</property>
  <property name="set.test_audio">1</property>
  <property name="set.test_image">0</property>
 </producer>
 <producer id="producer560" in="00:00:00.000" out="00:00:01.483">
  <property name="length">90</property>
  <property name="eof">pause</property>
  <property name="resource">/home/xiaoxiae/.cache/kdenlive/proxy/f78bcc685686b3c8d18dafca38789c18.mkv</property>
  <property name="audio_index">-1</property>
  <property name="video_index">0</property>
  <property name="mute_on_pause">0</property>
  <property name="mlt_service">avformat-novalidate</property>
  <property name="meta.media.nb_streams">1</property>
  <property name="meta.media.0.stream.type">video</property>
  <property name="meta.media.0.stream.frame_rate">60</property>
  <property name="meta.media.0.stream.sample_aspect_ratio">0</property>
  <property name="meta.media.0.codec.width">640</property>
  <property name="meta.media.0.codec.height">360</property>
  <property name="meta.media.0.codec.rotate">0</property>
  <property name="meta.media.0.codec.pix_fmt">yuvj420p</property>
  <property name="meta.media.0.codec.sample_aspect_ratio">0</property>
  <property name="meta.media.0.codec.colorspace">601</property>
  <property name="meta.media.0.codec.name">mjpeg</property>
  <property name="meta.media.0.codec.long_name">MJPEG (Motion JPEG)</property>
  <property name="meta.media.0.codec.bit_rate">0</property>
  <property name="meta.attr.0.stream.HANDLER_NAME.markup">VideoHandler</property>
  <property name="meta.attr.0.stream.VENDOR_ID.markup">[0][0][0][0]</property>
  <property name="meta.attr.0.stream.ENCODER.markup">Lavc60.3.100 mjpeg</property>
  <property name="meta.attr.0.stream.DURATION.markup">00:00:01.500000000</property>
  <property name="meta.attr.COMMENT.markup">Rendered with Manim Community v0.17.2</property>
  <property name="meta.attr.MAJOR_BRAND.markup">isom</property>
  <property name="meta.attr.MINOR_VERSION.markup">512</property>
  <property name="meta.attr.COMPATIBLE_BRANDS.markup">isomiso2avc1mp41</property>
  <property name="meta.attr.ENCODER.markup">Lavf60.3.100</property>
  <property name="seekable">1</property>
  <property name="meta.media.sample_aspect_num">1</property>
  <property name="meta.media.sample_aspect_den">1</property>
  <property name="aspect_ratio">1</property>
  <property name="format">3</property>
  <property name="kdenlive:clipname">29.mp4</property>
  <property name="kdenlive:clip_type">2</property>
  <property name="kdenlive:folderid">528</property>
  <property name="kdenlive:id">440</property>
  <property name="kdenlive:file_size">317638</property>
  <property name="kdenlive:file_hash">f78bcc685686b3c8d18dafca38789c18</property>
  <property name="kdenlive:proxy">/home/xiaoxiae/.cache/kdenlive/proxy/f78bcc685686b3c8d18dafca38789c18.mkv</property>
  <property name="kdenlive:originalurl">video/Intro/29.mp4</property>
  <property name="kdenlive:original.mlt_type">producer</property>
  <property name="kdenlive:original.in">00:00:00.000</property>
  <property name="kdenlive:original.out">00:00:01.483</property>
  <property name="kdenlive:original.length">90</property>
  <property name="kdenlive:original.eof">pause</property>
  <property name="kdenlive:original.resource">video/Intro/29.mp4</property>
  <property name="kdenlive:original.meta.media.nb_streams">1</property>
  <property name="kdenlive:original.meta.media.0.stream.type">video</property>
  <property name="kdenlive:original.meta.media.0.stream.frame_rate">60</property>
  <property name="kdenlive:original.meta.media.0.stream.sample_aspect_ratio">0</property>
  <property name="kdenlive:original.meta.media.0.codec.width">3840</property>
  <property name="kdenlive:original.meta.media.0.codec.height">2160</property>
  <property name="kdenlive:original.meta.media.0.codec.rotate">0</property>
  <property name="kdenlive:original.meta.media.0.codec.pix_fmt">yuv420p</property>
  <property name="kdenlive:original.meta.media.0.codec.sample_aspect_ratio">0</property>
  <property name="kdenlive:original.meta.media.0.codec.colorspace">709</property>
  <property name="kdenlive:original.meta.media.0.codec.name">h264</property>
  <property name="kdenlive:original.meta.media.0.codec.long_name">H.264 / AVC / MPEG-4 AVC / MPEG-4 part 10</property>
  <property name="kdenlive:original.meta.media.0.codec.bit_rate">1683493</property>
  <property name="kdenlive:original.meta.attr.0.stream.handler_name.markup">VideoHandler</property>
  <property name="kdenlive:original.meta.attr.0.stream.vendor_id.markup">[0][0][0][0]</property>
  <property name="kdenlive:original.meta.attr.0.stream.encoder.markup">Lavc60.3.100 libx264</property>
  <property name="kdenlive:original.meta.attr.major_brand.markup">isom</property>
  <property name="kdenlive:original.meta.attr.minor_version.markup">512</property>
  <property name="kdenlive:original.meta.attr.compatible_brands.markup">isomiso2avc1mp41</property>
  <property name="kdenlive:original.meta.attr.encoder.markup">Lavf60.3.100</property>
  <property name="kdenlive:original.meta.attr.comment.markup">Rendered with Manim Community v0.17.2</property>
  <property name="kdenlive:original.seekable">1</property>
  <property name="kdenlive:original.width">3840</property>
  <property name="kdenlive:original.height">2160</property>
  <property name="kdenlive:original.meta.media.sample_aspect_num">1</property>
  <property name="kdenlive:original.meta.media.sample_aspect_den">1</property>
  <property name="kdenlive:original.aspect_ratio">1</property>
  <property name="kdenlive:original.format">3</property>
  <property name="kdenlive:original.audio_index">-1</property>
  <property name="kdenlive:original.video_index">0</property>
  <property name="kdenlive:original.mute_on_pause">0</property>
  <property name="kdenlive:original.mlt_service">avformat-novalidate</property>
  <property name="kdenlive:original.meta.media.frame_rate_num">60</property>
  <property name="kdenlive:original.meta.media.frame_rate_den">1</property>
  <property name="kdenlive:original.meta.media.colorspace">709</property>
  <property name="kdenlive:original.meta.media.color_trc">2</property>
  <property name="kdenlive:original.meta.media.has_b_frames">2</property>
  <property name="kdenlive:original.meta.media.width">3840</property>
  <property name="kdenlive:original.meta.media.height">2160</property>
  <property name="kdenlive:original.meta.media.color_range">mpeg</property>
  <property name="kdenlive:original.meta.media.top_field_first">0</property>
  <property name="kdenlive:original.meta.media.progressive">1</property>
  <property name="kdenlive:original.kdenlive:clip_type">2</property>
  <property name="kdenlive:original.kdenlive:folderid">528</property>
  <property name="kdenlive:original.kdenlive:id">550</property>
  <property name="kdenlive:original.kdenlive:file_size">317638</property>
  <property name="kdenlive:original.kdenlive:file_hash">f78bcc685686b3c8d18dafca38789c18</property>
  <property name="kdenlive:original.backup">1</property>
  <property name="xml">was here</property>
  <property name="meta.media.frame_rate_num">60</property>
  <property name="meta.media.frame_rate_den">1</property>
  <property name="meta.media.colorspace">601</property>
  <property name="meta.media.color_trc">2</property>
  <property name="meta.media.has_b_frames">0</property>
  <property name="meta.media.width">640</property>
  <property name="meta.media.height">360</property>
  <property name="meta.media.color_range">full</property>
  <property name="meta.media.top_field_first">0</property>
  <property name="meta.media.progressive">1</property>
  <property name="set.test_audio">1</property>
  <property name="set.test_image">0</property>
 </producer>
 <producer id="producer561" in="00:00:00.000" out="00:00:01.483">
  <property name="length">90</property>
  <property name="eof">pause</property>
  <property name="resource">/home/xiaoxiae/.cache/kdenlive/proxy/0a82a303cc3420bb618819e27f396276.mkv</property>
  <property name="audio_index">-1</property>
  <property name="video_index">0</property>
  <property name="mute_on_pause">0</property>
  <property name="mlt_service">avformat-novalidate</property>
  <property name="meta.media.nb_streams">1</property>
  <property name="meta.media.0.stream.type">video</property>
  <property name="meta.media.0.stream.frame_rate">60</property>
  <property name="meta.media.0.stream.sample_aspect_ratio">0</property>
  <property name="meta.media.0.codec.width">640</property>
  <property name="meta.media.0.codec.height">360</property>
  <property name="meta.media.0.codec.rotate">0</property>
  <property name="meta.media.0.codec.pix_fmt">yuvj420p</property>
  <property name="meta.media.0.codec.sample_aspect_ratio">0</property>
  <property name="meta.media.0.codec.colorspace">601</property>
  <property name="meta.media.0.codec.name">mjpeg</property>
  <property name="meta.media.0.codec.long_name">MJPEG (Motion JPEG)</property>
  <property name="meta.media.0.codec.bit_rate">0</property>
  <property name="meta.attr.0.stream.HANDLER_NAME.markup">VideoHandler</property>
  <property name="meta.attr.0.stream.VENDOR_ID.markup">[0][0][0][0]</property>
  <property name="meta.attr.0.stream.ENCODER.markup">Lavc60.3.100 mjpeg</property>
  <property name="meta.attr.0.stream.DURATION.markup">00:00:01.500000000</property>
  <property name="meta.attr.COMMENT.markup">Rendered with Manim Community v0.17.2</property>
  <property name="meta.attr.MAJOR_BRAND.markup">isom</property>
  <property name="meta.attr.MINOR_VERSION.markup">512</property>
  <property name="meta.attr.COMPATIBLE_BRANDS.markup">isomiso2avc1mp41</property>
  <property name="meta.attr.ENCODER.markup">Lavf60.3.100</property>
  <property name="seekable">1</property>
  <property name="meta.media.sample_aspect_num">1</property>
  <property name="meta.media.sample_aspect_den">1</property>
  <property name="aspect_ratio">1</property>
  <property name="format">3</property>
  <property name="kdenlive:clipname">30.mp4</property>
  <property name="kdenlive:clip_type">2</property>
  <property name="kdenlive:folderid">528</property>
  <property name="kdenlive:id">442</property>
  <property name="kdenlive:file_size">285397</property>
  <property name="kdenlive:file_hash">0a82a303cc3420bb618819e27f396276</property>
  <property name="kdenlive:proxy">/home/xiaoxiae/.cache/kdenlive/proxy/0a82a303cc3420bb618819e27f396276.mkv</property>
  <property name="kdenlive:originalurl">video/Intro/30.mp4</property>
  <property name="kdenlive:original.mlt_type">producer</property>
  <property name="kdenlive:original.in">00:00:00.000</property>
  <property name="kdenlive:original.out">00:00:01.483</property>
  <property name="kdenlive:original.length">90</property>
  <property name="kdenlive:original.eof">pause</property>
  <property name="kdenlive:original.resource">video/Intro/30.mp4</property>
  <property name="kdenlive:original.meta.media.nb_streams">1</property>
  <property name="kdenlive:original.meta.media.0.stream.type">video</property>
  <property name="kdenlive:original.meta.media.0.stream.frame_rate">60</property>
  <property name="kdenlive:original.meta.media.0.stream.sample_aspect_ratio">0</property>
  <property name="kdenlive:original.meta.media.0.codec.width">3840</property>
  <property name="kdenlive:original.meta.media.0.codec.height">2160</property>
  <property name="kdenlive:original.meta.media.0.codec.rotate">0</property>
  <property name="kdenlive:original.meta.media.0.codec.pix_fmt">yuv420p</property>
  <property name="kdenlive:original.meta.media.0.codec.sample_aspect_ratio">0</property>
  <property name="kdenlive:original.meta.media.0.codec.colorspace">709</property>
  <property name="kdenlive:original.meta.media.0.codec.name">h264</property>
  <property name="kdenlive:original.meta.media.0.codec.long_name">H.264 / AVC / MPEG-4 AVC / MPEG-4 part 10</property>
  <property name="kdenlive:original.meta.media.0.codec.bit_rate">1511456</property>
  <property name="kdenlive:original.meta.attr.0.stream.handler_name.markup">VideoHandler</property>
  <property name="kdenlive:original.meta.attr.0.stream.vendor_id.markup">[0][0][0][0]</property>
  <property name="kdenlive:original.meta.attr.0.stream.encoder.markup">Lavc60.3.100 libx264</property>
  <property name="kdenlive:original.meta.attr.major_brand.markup">isom</property>
  <property name="kdenlive:original.meta.attr.minor_version.markup">512</property>
  <property name="kdenlive:original.meta.attr.compatible_brands.markup">isomiso2avc1mp41</property>
  <property name="kdenlive:original.meta.attr.encoder.markup">Lavf60.3.100</property>
  <property name="kdenlive:original.meta.attr.comment.markup">Rendered with Manim Community v0.17.2</property>
  <property name="kdenlive:original.seekable">1</property>
  <property name="kdenlive:original.width">3840</property>
  <property name="kdenlive:original.height">2160</property>
  <property name="kdenlive:original.meta.media.sample_aspect_num">1</property>
  <property name="kdenlive:original.meta.media.sample_aspect_den">1</property>
  <property name="kdenlive:original.aspect_ratio">1</property>
  <property name="kdenlive:original.format">3</property>
  <property name="kdenlive:original.audio_index">-1</property>
  <property name="kdenlive:original.video_index">0</property>
  <property name="kdenlive:original.mute_on_pause">0</property>
  <property name="kdenlive:original.mlt_service">avformat-novalidate</property>
  <property name="kdenlive:original.meta.media.frame_rate_num">60</property>
  <property name="kdenlive:original.meta.media.frame_rate_den">1</property>
  <property name="kdenlive:original.meta.media.colorspace">709</property>
  <property name="kdenlive:original.meta.media.color_trc">2</property>
  <property name="kdenlive:original.meta.media.has_b_frames">2</property>
  <property name="kdenlive:original.meta.media.width">3840</property>
  <property name="kdenlive:original.meta.media.height">2160</property>
  <property name="kdenlive:original.meta.media.color_range">mpeg</property>
  <property name="kdenlive:original.meta.media.top_field_first">0</property>
  <property name="kdenlive:original.meta.media.progressive">1</property>
  <property name="kdenlive:original.kdenlive:clip_type">2</property>
  <property name="kdenlive:original.kdenlive:folderid">528</property>
  <property name="kdenlive:original.kdenlive:id">552</property>
  <property name="kdenlive:original.kdenlive:file_size">285397</property>
  <property name="kdenlive:original.kdenlive:file_hash">0a82a303cc3420bb618819e27f396276</property>
  <property name="kdenlive:original.backup">1</property>
  <property name="xml">was here</property>
  <property name="meta.media.frame_rate_num">60</property>
  <property name="meta.media.frame_rate_den">1</property>
  <property name="meta.media.colorspace">601</property>
  <property name="meta.media.color_trc">2</property>
  <property name="meta.media.has_b_frames">0</property>
  <property name="meta.media.width">640</property>
  <property name="meta.media.height">360</property>
  <property name="meta.media.color_range">full</property>
  <property name="meta.media.top_field_first">0</property>
  <property name="meta.media.progressive">1</property>
  <property name="set.test_audio">1</property>
  <property name="set.test_image">0</property>
 </producer>
 <producer id="producer562" in="00:00:00.000" out="00:00:00.983">
  <property name="length">60</property>
  <property name="eof">pause</property>
  <property name="resource">/home/xiaoxiae/.cache/kdenlive/proxy/b9c75d656db4521720391bac61cad2f9.mkv</property>
  <property name="audio_index">-1</property>
  <property name="video_index">0</property>
  <property name="mute_on_pause">0</property>
  <property name="mlt_service">avformat-novalidate</property>
  <property name="meta.media.nb_streams">1</property>
  <property name="meta.media.0.stream.type">video</property>
  <property name="meta.media.0.stream.frame_rate">60</property>
  <property name="meta.media.0.stream.sample_aspect_ratio">0</property>
  <property name="meta.media.0.codec.width">640</property>
  <property name="meta.media.0.codec.height">360</property>
  <property name="meta.media.0.codec.rotate">0</property>
  <property name="meta.media.0.codec.pix_fmt">yuvj420p</property>
  <property name="meta.media.0.codec.sample_aspect_ratio">0</property>
  <property name="meta.media.0.codec.colorspace">601</property>
  <property name="meta.media.0.codec.name">mjpeg</property>
  <property name="meta.media.0.codec.long_name">MJPEG (Motion JPEG)</property>
  <property name="meta.media.0.codec.bit_rate">0</property>
  <property name="meta.attr.0.stream.HANDLER_NAME.markup">VideoHandler</property>
  <property name="meta.attr.0.stream.VENDOR_ID.markup">[0][0][0][0]</property>
  <property name="meta.attr.0.stream.ENCODER.markup">Lavc60.3.100 mjpeg</property>
  <property name="meta.attr.0.stream.DURATION.markup">00:00:01.000000000</property>
  <property name="meta.attr.COMMENT.markup">Rendered with Manim Community v0.17.2</property>
  <property name="meta.attr.MAJOR_BRAND.markup">isom</property>
  <property name="meta.attr.MINOR_VERSION.markup">512</property>
  <property name="meta.attr.COMPATIBLE_BRANDS.markup">isomiso2avc1mp41</property>
  <property name="meta.attr.ENCODER.markup">Lavf60.3.100</property>
  <property name="seekable">1</property>
  <property name="meta.media.sample_aspect_num">1</property>
  <property name="meta.media.sample_aspect_den">1</property>
  <property name="aspect_ratio">1</property>
  <property name="format">3</property>
  <property name="kdenlive:clipname">31.mp4</property>
  <property name="kdenlive:clip_type">2</property>
  <property name="kdenlive:folderid">528</property>
  <property name="kdenlive:id">443</property>
  <property name="kdenlive:file_size">109182</property>
  <property name="kdenlive:file_hash">b9c75d656db4521720391bac61cad2f9</property>
  <property name="kdenlive:proxy">/home/xiaoxiae/.cache/kdenlive/proxy/b9c75d656db4521720391bac61cad2f9.mkv</property>
  <property name="kdenlive:originalurl">video/Intro/31.mp4</property>
  <property name="kdenlive:original.mlt_type">producer</property>
  <property name="kdenlive:original.in">00:00:00.000</property>
  <property name="kdenlive:original.out">00:00:00.983</property>
  <property name="kdenlive:original.length">60</property>
  <property name="kdenlive:original.eof">pause</property>
  <property name="kdenlive:original.resource">video/Intro/31.mp4</property>
  <property name="kdenlive:original.meta.media.nb_streams">1</property>
  <property name="kdenlive:original.meta.media.0.stream.type">video</property>
  <property name="kdenlive:original.meta.media.0.stream.frame_rate">60</property>
  <property name="kdenlive:original.meta.media.0.stream.sample_aspect_ratio">0</property>
  <property name="kdenlive:original.meta.media.0.codec.width">3840</property>
  <property name="kdenlive:original.meta.media.0.codec.height">2160</property>
  <property name="kdenlive:original.meta.media.0.codec.rotate">0</property>
  <property name="kdenlive:original.meta.media.0.codec.pix_fmt">yuv420p</property>
  <property name="kdenlive:original.meta.media.0.codec.sample_aspect_ratio">0</property>
  <property name="kdenlive:original.meta.media.0.codec.colorspace">709</property>
  <property name="kdenlive:original.meta.media.0.codec.name">h264</property>
  <property name="kdenlive:original.meta.media.0.codec.long_name">H.264 / AVC / MPEG-4 AVC / MPEG-4 part 10</property>
  <property name="kdenlive:original.meta.media.0.codec.bit_rate">860600</property>
  <property name="kdenlive:original.meta.attr.0.stream.handler_name.markup">VideoHandler</property>
  <property name="kdenlive:original.meta.attr.0.stream.vendor_id.markup">[0][0][0][0]</property>
  <property name="kdenlive:original.meta.attr.0.stream.encoder.markup">Lavc60.3.100 libx264</property>
  <property name="kdenlive:original.meta.attr.major_brand.markup">isom</property>
  <property name="kdenlive:original.meta.attr.minor_version.markup">512</property>
  <property name="kdenlive:original.meta.attr.compatible_brands.markup">isomiso2avc1mp41</property>
  <property name="kdenlive:original.meta.attr.encoder.markup">Lavf60.3.100</property>
  <property name="kdenlive:original.meta.attr.comment.markup">Rendered with Manim Community v0.17.2</property>
  <property name="kdenlive:original.seekable">1</property>
  <property name="kdenlive:original.width">3840</property>
  <property name="kdenlive:original.height">2160</property>
  <property name="kdenlive:original.meta.media.sample_aspect_num">1</property>
  <property name="kdenlive:original.meta.media.sample_aspect_den">1</property>
  <property name="kdenlive:original.aspect_ratio">1</property>
  <property name="kdenlive:original.format">3</property>
  <property name="kdenlive:original.audio_index">-1</property>
  <property name="kdenlive:original.video_index">0</property>
  <property name="kdenlive:original.mute_on_pause">0</property>
  <property name="kdenlive:original.mlt_service">avformat-novalidate</property>
  <property name="kdenlive:original.meta.media.frame_rate_num">60</property>
  <property name="kdenlive:original.meta.media.frame_rate_den">1</property>
  <property name="kdenlive:original.meta.media.colorspace">709</property>
  <property name="kdenlive:original.meta.media.color_trc">2</property>
  <property name="kdenlive:original.meta.media.has_b_frames">2</property>
  <property name="kdenlive:original.meta.media.width">3840</property>
  <property name="kdenlive:original.meta.media.height">2160</property>
  <property name="kdenlive:original.meta.media.color_range">mpeg</property>
  <property name="kdenlive:original.meta.media.top_field_first">0</property>
  <property name="kdenlive:original.meta.media.progressive">1</property>
  <property name="kdenlive:original.kdenlive:clip_type">2</property>
  <property name="kdenlive:original.kdenlive:folderid">528</property>
  <property name="kdenlive:original.kdenlive:id">553</property>
  <property name="kdenlive:original.kdenlive:file_size">109182</property>
  <property name="kdenlive:original.kdenlive:file_hash">b9c75d656db4521720391bac61cad2f9</property>
  <property name="kdenlive:original.backup">1</property>
  <property name="xml">was here</property>
  <property name="meta.media.frame_rate_num">60</property>
  <property name="meta.media.frame_rate_den">1</property>
  <property name="meta.media.colorspace">601</property>
  <property name="meta.media.color_trc">2</property>
  <property name="meta.media.has_b_frames">0</property>
  <property name="meta.media.width">640</property>
  <property name="meta.media.height">360</property>
  <property name="meta.media.color_range">full</property>
  <property name="meta.media.top_field_first">0</property>
  <property name="meta.media.progressive">1</property>
  <property name="set.test_audio">1</property>
  <property name="set.test_image">0</property>
 </producer>
 <producer id="producer563" in="00:00:00.000" out="00:00:00.983">
  <property name="length">60</property>
  <property name="eof">pause</property>
  <property name="resource">/home/xiaoxiae/.cache/kdenlive/proxy/f8e0a1c93d6890394dcfed1e1cdbd0bc.mkv</property>
  <property name="audio_index">-1</property>
  <property name="video_index">0</property>
  <property name="mute_on_pause">0</property>
  <property name="mlt_service">avformat-novalidate</property>
  <property name="meta.media.nb_streams">1</property>
  <property name="meta.media.0.stream.type">video</property>
  <property name="meta.media.0.stream.frame_rate">60</property>
  <property name="meta.media.0.stream.sample_aspect_ratio">0</property>
  <property name="meta.media.0.codec.width">640</property>
  <property name="meta.media.0.codec.height">360</property>
  <property name="meta.media.0.codec.rotate">0</property>
  <property name="meta.media.0.codec.pix_fmt">yuvj420p</property>
  <property name="meta.media.0.codec.sample_aspect_ratio">0</property>
  <property name="meta.media.0.codec.colorspace">601</property>
  <property name="meta.media.0.codec.name">mjpeg</property>
  <property name="meta.media.0.codec.long_name">MJPEG (Motion JPEG)</property>
  <property name="meta.media.0.codec.bit_rate">0</property>
  <property name="meta.attr.0.stream.HANDLER_NAME.markup">VideoHandler</property>
  <property name="meta.attr.0.stream.VENDOR_ID.markup">[0][0][0][0]</property>
  <property name="meta.attr.0.stream.ENCODER.markup">Lavc60.3.100 mjpeg</property>
  <property name="meta.attr.0.stream.DURATION.markup">00:00:01.000000000</property>
  <property name="meta.attr.COMMENT.markup">Rendered with Manim Community v0.17.2</property>
  <property name="meta.attr.MAJOR_BRAND.markup">isom</property>
  <property name="meta.attr.MINOR_VERSION.markup">512</property>
  <property name="meta.attr.COMPATIBLE_BRANDS.markup">isomiso2avc1mp41</property>
  <property name="meta.attr.ENCODER.markup">Lavf60.3.100</property>
  <property name="seekable">1</property>
  <property name="meta.media.sample_aspect_num">1</property>
  <property name="meta.media.sample_aspect_den">1</property>
  <property name="aspect_ratio">1</property>
  <property name="format">3</property>
  <property name="kdenlive:clipname">32.mp4</property>
  <property name="kdenlive:clip_type">2</property>
  <property name="kdenlive:folderid">528</property>
  <property name="kdenlive:id">444</property>
  <property name="kdenlive:file_size">126199</property>
  <property name="kdenlive:file_hash">f8e0a1c93d6890394dcfed1e1cdbd0bc</property>
  <property name="kdenlive:proxy">/home/xiaoxiae/.cache/kdenlive/proxy/f8e0a1c93d6890394dcfed1e1cdbd0bc.mkv</property>
  <property name="kdenlive:originalurl">video/Intro/32.mp4</property>
  <property name="kdenlive:original.mlt_type">producer</property>
  <property name="kdenlive:original.in">00:00:00.000</property>
  <property name="kdenlive:original.out">00:00:00.983</property>
  <property name="kdenlive:original.length">60</property>
  <property name="kdenlive:original.eof">pause</property>
  <property name="kdenlive:original.resource">video/Intro/32.mp4</property>
  <property name="kdenlive:original.meta.media.nb_streams">1</property>
  <property name="kdenlive:original.meta.media.0.stream.type">video</property>
  <property name="kdenlive:original.meta.media.0.stream.frame_rate">60</property>
  <property name="kdenlive:original.meta.media.0.stream.sample_aspect_ratio">0</property>
  <property name="kdenlive:original.meta.media.0.codec.width">3840</property>
  <property name="kdenlive:original.meta.media.0.codec.height">2160</property>
  <property name="kdenlive:original.meta.media.0.codec.rotate">0</property>
  <property name="kdenlive:original.meta.media.0.codec.pix_fmt">yuv420p</property>
  <property name="kdenlive:original.meta.media.0.codec.sample_aspect_ratio">0</property>
  <property name="kdenlive:original.meta.media.0.codec.colorspace">709</property>
  <property name="kdenlive:original.meta.media.0.codec.name">h264</property>
  <property name="kdenlive:original.meta.media.0.codec.long_name">H.264 / AVC / MPEG-4 AVC / MPEG-4 part 10</property>
  <property name="kdenlive:original.meta.media.0.codec.bit_rate">996672</property>
  <property name="kdenlive:original.meta.attr.0.stream.handler_name.markup">VideoHandler</property>
  <property name="kdenlive:original.meta.attr.0.stream.vendor_id.markup">[0][0][0][0]</property>
  <property name="kdenlive:original.meta.attr.0.stream.encoder.markup">Lavc60.3.100 libx264</property>
  <property name="kdenlive:original.meta.attr.major_brand.markup">isom</property>
  <property name="kdenlive:original.meta.attr.minor_version.markup">512</property>
  <property name="kdenlive:original.meta.attr.compatible_brands.markup">isomiso2avc1mp41</property>
  <property name="kdenlive:original.meta.attr.encoder.markup">Lavf60.3.100</property>
  <property name="kdenlive:original.meta.attr.comment.markup">Rendered with Manim Community v0.17.2</property>
  <property name="kdenlive:original.seekable">1</property>
  <property name="kdenlive:original.width">3840</property>
  <property name="kdenlive:original.height">2160</property>
  <property name="kdenlive:original.meta.media.sample_aspect_num">1</property>
  <property name="kdenlive:original.meta.media.sample_aspect_den">1</property>
  <property name="kdenlive:original.aspect_ratio">1</property>
  <property name="kdenlive:original.format">3</property>
  <property name="kdenlive:original.audio_index">-1</property>
  <property name="kdenlive:original.video_index">0</property>
  <property name="kdenlive:original.mute_on_pause">0</property>
  <property name="kdenlive:original.mlt_service">avformat-novalidate</property>
  <property name="kdenlive:original.meta.media.frame_rate_num">60</property>
  <property name="kdenlive:original.meta.media.frame_rate_den">1</property>
  <property name="kdenlive:original.meta.media.colorspace">709</property>
  <property name="kdenlive:original.meta.media.color_trc">2</property>
  <property name="kdenlive:original.meta.media.has_b_frames">2</property>
  <property name="kdenlive:original.meta.media.width">3840</property>
  <property name="kdenlive:original.meta.media.height">2160</property>
  <property name="kdenlive:original.meta.media.color_range">mpeg</property>
  <property name="kdenlive:original.meta.media.top_field_first">0</property>
  <property name="kdenlive:original.meta.media.progressive">1</property>
  <property name="kdenlive:original.kdenlive:clip_type">2</property>
  <property name="kdenlive:original.kdenlive:folderid">528</property>
  <property name="kdenlive:original.kdenlive:id">554</property>
  <property name="kdenlive:original.kdenlive:file_size">126199</property>
  <property name="kdenlive:original.kdenlive:file_hash">f8e0a1c93d6890394dcfed1e1cdbd0bc</property>
  <property name="kdenlive:original.backup">1</property>
  <property name="xml">was here</property>
  <property name="meta.media.frame_rate_num">60</property>
  <property name="meta.media.frame_rate_den">1</property>
  <property name="meta.media.colorspace">601</property>
  <property name="meta.media.color_trc">2</property>
  <property name="meta.media.has_b_frames">0</property>
  <property name="meta.media.width">640</property>
  <property name="meta.media.height">360</property>
  <property name="meta.media.color_range">full</property>
  <property name="meta.media.top_field_first">0</property>
  <property name="meta.media.progressive">1</property>
  <property name="set.test_audio">1</property>
  <property name="set.test_image">0</property>
 </producer>
 <producer id="producer564" in="00:00:00.000" out="00:00:01.483">
  <property name="length">90</property>
  <property name="eof">pause</property>
  <property name="resource">/home/xiaoxiae/.cache/kdenlive/proxy/da0d574f17afc3da9b1376b385845c6a.mkv</property>
  <property name="audio_index">-1</property>
  <property name="video_index">0</property>
  <property name="mute_on_pause">0</property>
  <property name="mlt_service">avformat-novalidate</property>
  <property name="meta.media.nb_streams">1</property>
  <property name="meta.media.0.stream.type">video</property>
  <property name="meta.media.0.stream.frame_rate">60</property>
  <property name="meta.media.0.stream.sample_aspect_ratio">0</property>
  <property name="meta.media.0.codec.width">640</property>
  <property name="meta.media.0.codec.height">360</property>
  <property name="meta.media.0.codec.rotate">0</property>
  <property name="meta.media.0.codec.pix_fmt">yuvj420p</property>
  <property name="meta.media.0.codec.sample_aspect_ratio">0</property>
  <property name="meta.media.0.codec.colorspace">601</property>
  <property name="meta.media.0.codec.name">mjpeg</property>
  <property name="meta.media.0.codec.long_name">MJPEG (Motion JPEG)</property>
  <property name="meta.media.0.codec.bit_rate">0</property>
  <property name="meta.attr.0.stream.HANDLER_NAME.markup">VideoHandler</property>
  <property name="meta.attr.0.stream.VENDOR_ID.markup">[0][0][0][0]</property>
  <property name="meta.attr.0.stream.ENCODER.markup">Lavc60.3.100 mjpeg</property>
  <property name="meta.attr.0.stream.DURATION.markup">00:00:01.500000000</property>
  <property name="meta.attr.COMMENT.markup">Rendered with Manim Community v0.17.2</property>
  <property name="meta.attr.MAJOR_BRAND.markup">isom</property>
  <property name="meta.attr.MINOR_VERSION.markup">512</property>
  <property name="meta.attr.COMPATIBLE_BRANDS.markup">isomiso2avc1mp41</property>
  <property name="meta.attr.ENCODER.markup">Lavf60.3.100</property>
  <property name="seekable">1</property>
  <property name="meta.media.sample_aspect_num">1</property>
  <property name="meta.media.sample_aspect_den">1</property>
  <property name="aspect_ratio">1</property>
  <property name="format">3</property>
  <property name="kdenlive:clipname">33.mp4</property>
  <property name="kdenlive:clip_type">2</property>
  <property name="kdenlive:folderid">528</property>
  <property name="kdenlive:id">445</property>
  <property name="kdenlive:file_size">169663</property>
  <property name="kdenlive:file_hash">da0d574f17afc3da9b1376b385845c6a</property>
  <property name="kdenlive:proxy">/home/xiaoxiae/.cache/kdenlive/proxy/da0d574f17afc3da9b1376b385845c6a.mkv</property>
  <property name="kdenlive:originalurl">video/Intro/33.mp4</property>
  <property name="kdenlive:original.mlt_type">producer</property>
  <property name="kdenlive:original.in">00:00:00.000</property>
  <property name="kdenlive:original.out">00:00:01.483</property>
  <property name="kdenlive:original.length">90</property>
  <property name="kdenlive:original.eof">pause</property>
  <property name="kdenlive:original.resource">video/Intro/33.mp4</property>
  <property name="kdenlive:original.meta.media.nb_streams">1</property>
  <property name="kdenlive:original.meta.media.0.stream.type">video</property>
  <property name="kdenlive:original.meta.media.0.stream.frame_rate">60</property>
  <property name="kdenlive:original.meta.media.0.stream.sample_aspect_ratio">0</property>
  <property name="kdenlive:original.meta.media.0.codec.width">3840</property>
  <property name="kdenlive:original.meta.media.0.codec.height">2160</property>
  <property name="kdenlive:original.meta.media.0.codec.rotate">0</property>
  <property name="kdenlive:original.meta.media.0.codec.pix_fmt">yuv420p</property>
  <property name="kdenlive:original.meta.media.0.codec.sample_aspect_ratio">0</property>
  <property name="kdenlive:original.meta.media.0.codec.colorspace">709</property>
  <property name="kdenlive:original.meta.media.0.codec.name">h264</property>
  <property name="kdenlive:original.meta.media.0.codec.long_name">H.264 / AVC / MPEG-4 AVC / MPEG-4 part 10</property>
  <property name="kdenlive:original.meta.media.0.codec.bit_rate">894293</property>
  <property name="kdenlive:original.meta.attr.0.stream.handler_name.markup">VideoHandler</property>
  <property name="kdenlive:original.meta.attr.0.stream.vendor_id.markup">[0][0][0][0]</property>
  <property name="kdenlive:original.meta.attr.0.stream.encoder.markup">Lavc60.3.100 libx264</property>
  <property name="kdenlive:original.meta.attr.major_brand.markup">isom</property>
  <property name="kdenlive:original.meta.attr.minor_version.markup">512</property>
  <property name="kdenlive:original.meta.attr.compatible_brands.markup">isomiso2avc1mp41</property>
  <property name="kdenlive:original.meta.attr.encoder.markup">Lavf60.3.100</property>
  <property name="kdenlive:original.meta.attr.comment.markup">Rendered with Manim Community v0.17.2</property>
  <property name="kdenlive:original.seekable">1</property>
  <property name="kdenlive:original.width">3840</property>
  <property name="kdenlive:original.height">2160</property>
  <property name="kdenlive:original.meta.media.sample_aspect_num">1</property>
  <property name="kdenlive:original.meta.media.sample_aspect_den">1</property>
  <property name="kdenlive:original.aspect_ratio">1</property>
  <property name="kdenlive:original.format">3</property>
  <property name="kdenlive:original.audio_index">-1</property>
  <property name="kdenlive:original.video_index">0</property>
  <property name="kdenlive:original.mute_on_pause">0</property>
  <property name="kdenlive:original.mlt_service">avformat-novalidate</property>
  <property name="kdenlive:original.meta.media.frame_rate_num">60</property>
  <property name="kdenlive:original.meta.media.frame_rate_den">1</property>
  <property name="kdenlive:original.meta.media.colorspace">709</property>
  <property name="kdenlive:original.meta.media.color_trc">2</property>
  <property name="kdenlive:original.meta.media.has_b_frames">2</property>
  <property name="kdenlive:original.meta.media.width">3840</property>
  <property name="kdenlive:original.meta.media.height">2160</property>
  <property name="kdenlive:original.meta.media.color_range">mpeg</property>
  <property name="kdenlive:original.meta.media.top_field_first">0</property>
  <property name="kdenlive:original.meta.media.progressive">1</property>
  <property name="kdenlive:original.kdenlive:clip_type">2</property>
  <property name="kdenlive:original.kdenlive:folderid">528</property>
  <property name="kdenlive:original.kdenlive:id">555</property>
  <property name="kdenlive:original.kdenlive:file_size">169663</property>
  <property name="kdenlive:original.kdenlive:file_hash">da0d574f17afc3da9b1376b385845c6a</property>
  <property name="kdenlive:original.backup">1</property>
  <property name="xml">was here</property>
  <property name="meta.media.frame_rate_num">60</property>
  <property name="meta.media.frame_rate_den">1</property>
  <property name="meta.media.colorspace">601</property>
  <property name="meta.media.color_trc">2</property>
  <property name="meta.media.has_b_frames">0</property>
  <property name="meta.media.width">640</property>
  <property name="meta.media.height">360</property>
  <property name="meta.media.color_range">full</property>
  <property name="meta.media.top_field_first">0</property>
  <property name="meta.media.progressive">1</property>
  <property name="set.test_audio">1</property>
  <property name="set.test_image">0</property>
 </producer>
 <producer id="producer565" in="00:00:00.000" out="00:00:00.983">
  <property name="length">60</property>
  <property name="eof">pause</property>
  <property name="resource">/home/xiaoxiae/.cache/kdenlive/proxy/1b5548fe20198d595c5d6141a489d919.mkv</property>
  <property name="audio_index">-1</property>
  <property name="video_index">0</property>
  <property name="mute_on_pause">0</property>
  <property name="mlt_service">avformat-novalidate</property>
  <property name="meta.media.nb_streams">1</property>
  <property name="meta.media.0.stream.type">video</property>
  <property name="meta.media.0.stream.frame_rate">60</property>
  <property name="meta.media.0.stream.sample_aspect_ratio">0</property>
  <property name="meta.media.0.codec.width">640</property>
  <property name="meta.media.0.codec.height">360</property>
  <property name="meta.media.0.codec.rotate">0</property>
  <property name="meta.media.0.codec.pix_fmt">yuvj420p</property>
  <property name="meta.media.0.codec.sample_aspect_ratio">0</property>
  <property name="meta.media.0.codec.colorspace">601</property>
  <property name="meta.media.0.codec.name">mjpeg</property>
  <property name="meta.media.0.codec.long_name">MJPEG (Motion JPEG)</property>
  <property name="meta.media.0.codec.bit_rate">0</property>
  <property name="meta.attr.0.stream.HANDLER_NAME.markup">VideoHandler</property>
  <property name="meta.attr.0.stream.VENDOR_ID.markup">[0][0][0][0]</property>
  <property name="meta.attr.0.stream.ENCODER.markup">Lavc60.3.100 mjpeg</property>
  <property name="meta.attr.0.stream.DURATION.markup">00:00:01.000000000</property>
  <property name="meta.attr.COMMENT.markup">Rendered with Manim Community v0.17.2</property>
  <property name="meta.attr.MAJOR_BRAND.markup">isom</property>
  <property name="meta.attr.MINOR_VERSION.markup">512</property>
  <property name="meta.attr.COMPATIBLE_BRANDS.markup">isomiso2avc1mp41</property>
  <property name="meta.attr.ENCODER.markup">Lavf60.3.100</property>
  <property name="seekable">1</property>
  <property name="meta.media.sample_aspect_num">1</property>
  <property name="meta.media.sample_aspect_den">1</property>
  <property name="aspect_ratio">1</property>
  <property name="format">3</property>
  <property name="kdenlive:clipname">34.mp4</property>
  <property name="kdenlive:clip_type">2</property>
  <property name="kdenlive:folderid">528</property>
  <property name="kdenlive:id">446</property>
  <property name="kdenlive:file_size">264529</property>
  <property name="kdenlive:file_hash">1b5548fe20198d595c5d6141a489d919</property>
  <property name="kdenlive:proxy">/home/xiaoxiae/.cache/kdenlive/proxy/1b5548fe20198d595c5d6141a489d919.mkv</property>
  <property name="kdenlive:originalurl">video/Intro/34.mp4</property>
  <property name="kdenlive:original.mlt_type">producer</property>
  <property name="kdenlive:original.in">00:00:00.000</property>
  <property name="kdenlive:original.out">00:00:00.983</property>
  <property name="kdenlive:original.length">60</property>
  <property name="kdenlive:original.eof">pause</property>
  <property name="kdenlive:original.resource">video/Intro/34.mp4</property>
  <property name="kdenlive:original.meta.media.nb_streams">1</property>
  <property name="kdenlive:original.meta.media.0.stream.type">video</property>
  <property name="kdenlive:original.meta.media.0.stream.frame_rate">60</property>
  <property name="kdenlive:original.meta.media.0.stream.sample_aspect_ratio">0</property>
  <property name="kdenlive:original.meta.media.0.codec.width">3840</property>
  <property name="kdenlive:original.meta.media.0.codec.height">2160</property>
  <property name="kdenlive:original.meta.media.0.codec.rotate">0</property>
  <property name="kdenlive:original.meta.media.0.codec.pix_fmt">yuv420p</property>
  <property name="kdenlive:original.meta.media.0.codec.sample_aspect_ratio">0</property>
  <property name="kdenlive:original.meta.media.0.codec.colorspace">709</property>
  <property name="kdenlive:original.meta.media.0.codec.name">h264</property>
  <property name="kdenlive:original.meta.media.0.codec.long_name">H.264 / AVC / MPEG-4 AVC / MPEG-4 part 10</property>
  <property name="kdenlive:original.meta.media.0.codec.bit_rate">2105008</property>
  <property name="kdenlive:original.meta.attr.0.stream.handler_name.markup">VideoHandler</property>
  <property name="kdenlive:original.meta.attr.0.stream.vendor_id.markup">[0][0][0][0]</property>
  <property name="kdenlive:original.meta.attr.0.stream.encoder.markup">Lavc60.3.100 libx264</property>
  <property name="kdenlive:original.meta.attr.major_brand.markup">isom</property>
  <property name="kdenlive:original.meta.attr.minor_version.markup">512</property>
  <property name="kdenlive:original.meta.attr.compatible_brands.markup">isomiso2avc1mp41</property>
  <property name="kdenlive:original.meta.attr.encoder.markup">Lavf60.3.100</property>
  <property name="kdenlive:original.meta.attr.comment.markup">Rendered with Manim Community v0.17.2</property>
  <property name="kdenlive:original.seekable">1</property>
  <property name="kdenlive:original.width">3840</property>
  <property name="kdenlive:original.height">2160</property>
  <property name="kdenlive:original.meta.media.sample_aspect_num">1</property>
  <property name="kdenlive:original.meta.media.sample_aspect_den">1</property>
  <property name="kdenlive:original.aspect_ratio">1</property>
  <property name="kdenlive:original.format">3</property>
  <property name="kdenlive:original.audio_index">-1</property>
  <property name="kdenlive:original.video_index">0</property>
  <property name="kdenlive:original.mute_on_pause">0</property>
  <property name="kdenlive:original.mlt_service">avformat-novalidate</property>
  <property name="kdenlive:original.meta.media.frame_rate_num">60</property>
  <property name="kdenlive:original.meta.media.frame_rate_den">1</property>
  <property name="kdenlive:original.meta.media.colorspace">709</property>
  <property name="kdenlive:original.meta.media.color_trc">2</property>
  <property name="kdenlive:original.meta.media.has_b_frames">2</property>
  <property name="kdenlive:original.meta.media.width">3840</property>
  <property name="kdenlive:original.meta.media.height">2160</property>
  <property name="kdenlive:original.meta.media.color_range">mpeg</property>
  <property name="kdenlive:original.meta.media.top_field_first">0</property>
  <property name="kdenlive:original.meta.media.progressive">1</property>
  <property name="kdenlive:original.kdenlive:clip_type">2</property>
  <property name="kdenlive:original.kdenlive:folderid">528</property>
  <property name="kdenlive:original.kdenlive:id">556</property>
  <property name="kdenlive:original.kdenlive:file_size">264529</property>
  <property name="kdenlive:original.kdenlive:file_hash">1b5548fe20198d595c5d6141a489d919</property>
  <property name="kdenlive:original.backup">1</property>
  <property name="xml">was here</property>
  <property name="meta.media.frame_rate_num">60</property>
  <property name="meta.media.frame_rate_den">1</property>
  <property name="meta.media.colorspace">601</property>
  <property name="meta.media.color_trc">2</property>
  <property name="meta.media.has_b_frames">0</property>
  <property name="meta.media.width">640</property>
  <property name="meta.media.height">360</property>
  <property name="meta.media.color_range">full</property>
  <property name="meta.media.top_field_first">0</property>
  <property name="meta.media.progressive">1</property>
  <property name="set.test_audio">1</property>
  <property name="set.test_image">0</property>
 </producer>
 <producer id="producer566" in="00:00:00.000" out="00:00:00.983">
  <property name="length">60</property>
  <property name="eof">pause</property>
  <property name="resource">/home/xiaoxiae/.cache/kdenlive/proxy/d8db75265835fa39a70c636dd76194b9.mkv</property>
  <property name="audio_index">-1</property>
  <property name="video_index">0</property>
  <property name="mute_on_pause">0</property>
  <property name="mlt_service">avformat-novalidate</property>
  <property name="meta.media.nb_streams">1</property>
  <property name="meta.media.0.stream.type">video</property>
  <property name="meta.media.0.stream.frame_rate">60</property>
  <property name="meta.media.0.stream.sample_aspect_ratio">0</property>
  <property name="meta.media.0.codec.width">640</property>
  <property name="meta.media.0.codec.height">360</property>
  <property name="meta.media.0.codec.rotate">0</property>
  <property name="meta.media.0.codec.pix_fmt">yuvj420p</property>
  <property name="meta.media.0.codec.sample_aspect_ratio">0</property>
  <property name="meta.media.0.codec.colorspace">601</property>
  <property name="meta.media.0.codec.name">mjpeg</property>
  <property name="meta.media.0.codec.long_name">MJPEG (Motion JPEG)</property>
  <property name="meta.media.0.codec.bit_rate">0</property>
  <property name="meta.attr.0.stream.HANDLER_NAME.markup">VideoHandler</property>
  <property name="meta.attr.0.stream.VENDOR_ID.markup">[0][0][0][0]</property>
  <property name="meta.attr.0.stream.ENCODER.markup">Lavc60.3.100 mjpeg</property>
  <property name="meta.attr.0.stream.DURATION.markup">00:00:01.000000000</property>
  <property name="meta.attr.COMMENT.markup">Rendered with Manim Community v0.17.2</property>
  <property name="meta.attr.MAJOR_BRAND.markup">isom</property>
  <property name="meta.attr.MINOR_VERSION.markup">512</property>
  <property name="meta.attr.COMPATIBLE_BRANDS.markup">isomiso2avc1mp41</property>
  <property name="meta.attr.ENCODER.markup">Lavf60.3.100</property>
  <property name="seekable">1</property>
  <property name="meta.media.sample_aspect_num">1</property>
  <property name="meta.media.sample_aspect_den">1</property>
  <property name="aspect_ratio">1</property>
  <property name="format">3</property>
  <property name="kdenlive:clipname">35.mp4</property>
  <property name="kdenlive:clip_type">2</property>
  <property name="kdenlive:folderid">528</property>
  <property name="kdenlive:id">447</property>
  <property name="kdenlive:file_size">447479</property>
  <property name="kdenlive:file_hash">d8db75265835fa39a70c636dd76194b9</property>
  <property name="kdenlive:proxy">/home/xiaoxiae/.cache/kdenlive/proxy/d8db75265835fa39a70c636dd76194b9.mkv</property>
  <property name="kdenlive:originalurl">video/Intro/35.mp4</property>
  <property name="kdenlive:original.mlt_type">producer</property>
  <property name="kdenlive:original.in">00:00:00.000</property>
  <property name="kdenlive:original.out">00:00:00.983</property>
  <property name="kdenlive:original.length">60</property>
  <property name="kdenlive:original.eof">pause</property>
  <property name="kdenlive:original.resource">video/Intro/35.mp4</property>
  <property name="kdenlive:original.meta.media.nb_streams">1</property>
  <property name="kdenlive:original.meta.media.0.stream.type">video</property>
  <property name="kdenlive:original.meta.media.0.stream.frame_rate">60</property>
  <property name="kdenlive:original.meta.media.0.stream.sample_aspect_ratio">0</property>
  <property name="kdenlive:original.meta.media.0.codec.width">3840</property>
  <property name="kdenlive:original.meta.media.0.codec.height">2160</property>
  <property name="kdenlive:original.meta.media.0.codec.rotate">0</property>
  <property name="kdenlive:original.meta.media.0.codec.pix_fmt">yuv420p</property>
  <property name="kdenlive:original.meta.media.0.codec.sample_aspect_ratio">0</property>
  <property name="kdenlive:original.meta.media.0.codec.colorspace">709</property>
  <property name="kdenlive:original.meta.media.0.codec.name">h264</property>
  <property name="kdenlive:original.meta.media.0.codec.long_name">H.264 / AVC / MPEG-4 AVC / MPEG-4 part 10</property>
  <property name="kdenlive:original.meta.media.0.codec.bit_rate">3568576</property>
  <property name="kdenlive:original.meta.attr.0.stream.handler_name.markup">VideoHandler</property>
  <property name="kdenlive:original.meta.attr.0.stream.vendor_id.markup">[0][0][0][0]</property>
  <property name="kdenlive:original.meta.attr.0.stream.encoder.markup">Lavc60.3.100 libx264</property>
  <property name="kdenlive:original.meta.attr.major_brand.markup">isom</property>
  <property name="kdenlive:original.meta.attr.minor_version.markup">512</property>
  <property name="kdenlive:original.meta.attr.compatible_brands.markup">isomiso2avc1mp41</property>
  <property name="kdenlive:original.meta.attr.encoder.markup">Lavf60.3.100</property>
  <property name="kdenlive:original.meta.attr.comment.markup">Rendered with Manim Community v0.17.2</property>
  <property name="kdenlive:original.seekable">1</property>
  <property name="kdenlive:original.width">3840</property>
  <property name="kdenlive:original.height">2160</property>
  <property name="kdenlive:original.meta.media.sample_aspect_num">1</property>
  <property name="kdenlive:original.meta.media.sample_aspect_den">1</property>
  <property name="kdenlive:original.aspect_ratio">1</property>
  <property name="kdenlive:original.format">3</property>
  <property name="kdenlive:original.audio_index">-1</property>
  <property name="kdenlive:original.video_index">0</property>
  <property name="kdenlive:original.mute_on_pause">0</property>
  <property name="kdenlive:original.mlt_service">avformat-novalidate</property>
  <property name="kdenlive:original.meta.media.frame_rate_num">60</property>
  <property name="kdenlive:original.meta.media.frame_rate_den">1</property>
  <property name="kdenlive:original.meta.media.colorspace">709</property>
  <property name="kdenlive:original.meta.media.color_trc">2</property>
  <property name="kdenlive:original.meta.media.has_b_frames">2</property>
  <property name="kdenlive:original.meta.media.width">3840</property>
  <property name="kdenlive:original.meta.media.height">2160</property>
  <property name="kdenlive:original.meta.media.color_range">mpeg</property>
  <property name="kdenlive:original.meta.media.top_field_first">0</property>
  <property name="kdenlive:original.meta.media.progressive">1</property>
  <property name="kdenlive:original.kdenlive:clip_type">2</property>
  <property name="kdenlive:original.kdenlive:folderid">528</property>
  <property name="kdenlive:original.kdenlive:id">557</property>
  <property name="kdenlive:original.kdenlive:file_size">447479</property>
  <property name="kdenlive:original.kdenlive:file_hash">d8db75265835fa39a70c636dd76194b9</property>
  <property name="kdenlive:original.backup">1</property>
  <property name="xml">was here</property>
  <property name="meta.media.frame_rate_num">60</property>
  <property name="meta.media.frame_rate_den">1</property>
  <property name="meta.media.colorspace">601</property>
  <property name="meta.media.color_trc">2</property>
  <property name="meta.media.has_b_frames">0</property>
  <property name="meta.media.width">640</property>
  <property name="meta.media.height">360</property>
  <property name="meta.media.color_range">full</property>
  <property name="meta.media.top_field_first">0</property>
  <property name="meta.media.progressive">1</property>
  <property name="set.test_audio">1</property>
  <property name="set.test_image">0</property>
 </producer>
 <producer id="producer567" in="00:00:00.000" out="00:00:01.983">
  <property name="length">120</property>
  <property name="eof">pause</property>
  <property name="resource">/home/xiaoxiae/.cache/kdenlive/proxy/d7dbe6b3d8711896db854adefcd19c17.mkv</property>
  <property name="audio_index">-1</property>
  <property name="video_index">0</property>
  <property name="mute_on_pause">0</property>
  <property name="mlt_service">avformat-novalidate</property>
  <property name="meta.media.nb_streams">1</property>
  <property name="meta.media.0.stream.type">video</property>
  <property name="meta.media.0.stream.frame_rate">60</property>
  <property name="meta.media.0.stream.sample_aspect_ratio">0</property>
  <property name="meta.media.0.codec.width">640</property>
  <property name="meta.media.0.codec.height">360</property>
  <property name="meta.media.0.codec.rotate">0</property>
  <property name="meta.media.0.codec.pix_fmt">yuvj420p</property>
  <property name="meta.media.0.codec.sample_aspect_ratio">0</property>
  <property name="meta.media.0.codec.colorspace">601</property>
  <property name="meta.media.0.codec.name">mjpeg</property>
  <property name="meta.media.0.codec.long_name">MJPEG (Motion JPEG)</property>
  <property name="meta.media.0.codec.bit_rate">0</property>
  <property name="meta.attr.0.stream.HANDLER_NAME.markup">VideoHandler</property>
  <property name="meta.attr.0.stream.VENDOR_ID.markup">[0][0][0][0]</property>
  <property name="meta.attr.0.stream.ENCODER.markup">Lavc60.3.100 mjpeg</property>
  <property name="meta.attr.0.stream.DURATION.markup">00:00:02.000000000</property>
  <property name="meta.attr.COMMENT.markup">Rendered with Manim Community v0.17.2</property>
  <property name="meta.attr.MAJOR_BRAND.markup">isom</property>
  <property name="meta.attr.MINOR_VERSION.markup">512</property>
  <property name="meta.attr.COMPATIBLE_BRANDS.markup">isomiso2avc1mp41</property>
  <property name="meta.attr.ENCODER.markup">Lavf60.3.100</property>
  <property name="seekable">1</property>
  <property name="meta.media.sample_aspect_num">1</property>
  <property name="meta.media.sample_aspect_den">1</property>
  <property name="aspect_ratio">1</property>
  <property name="format">3</property>
  <property name="kdenlive:clipname">1.mp4</property>
  <property name="kdenlive:clip_type">2</property>
  <property name="kdenlive:folderid">344</property>
  <property name="kdenlive:id">342</property>
  <property name="kdenlive:file_size">192674</property>
  <property name="kdenlive:file_hash">d7dbe6b3d8711896db854adefcd19c17</property>
  <property name="kdenlive:proxy">/home/xiaoxiae/.cache/kdenlive/proxy/d7dbe6b3d8711896db854adefcd19c17.mkv</property>
  <property name="kdenlive:originalurl">video/Basics/1.mp4</property>
  <property name="kdenlive:original.mlt_type">producer</property>
  <property name="kdenlive:original.in">00:00:00.000</property>
  <property name="kdenlive:original.out">00:00:01.983</property>
  <property name="kdenlive:original.length">120</property>
  <property name="kdenlive:original.eof">pause</property>
  <property name="kdenlive:original.resource">video/Basics/1.mp4</property>
  <property name="kdenlive:original.meta.media.nb_streams">1</property>
  <property name="kdenlive:original.meta.media.0.stream.type">video</property>
  <property name="kdenlive:original.meta.media.0.stream.frame_rate">60</property>
  <property name="kdenlive:original.meta.media.0.stream.sample_aspect_ratio">0</property>
  <property name="kdenlive:original.meta.media.0.codec.width">3840</property>
  <property name="kdenlive:original.meta.media.0.codec.height">2160</property>
  <property name="kdenlive:original.meta.media.0.codec.rotate">0</property>
  <property name="kdenlive:original.meta.media.0.codec.pix_fmt">yuv420p</property>
  <property name="kdenlive:original.meta.media.0.codec.sample_aspect_ratio">0</property>
  <property name="kdenlive:original.meta.media.0.codec.colorspace">709</property>
  <property name="kdenlive:original.meta.media.0.codec.name">h264</property>
  <property name="kdenlive:original.meta.media.0.codec.long_name">H.264 / AVC / MPEG-4 AVC / MPEG-4 part 10</property>
  <property name="kdenlive:original.meta.media.0.codec.bit_rate">761260</property>
  <property name="kdenlive:original.meta.attr.0.stream.handler_name.markup">VideoHandler</property>
  <property name="kdenlive:original.meta.attr.0.stream.vendor_id.markup">[0][0][0][0]</property>
  <property name="kdenlive:original.meta.attr.0.stream.encoder.markup">Lavc60.3.100 libx264</property>
  <property name="kdenlive:original.meta.attr.major_brand.markup">isom</property>
  <property name="kdenlive:original.meta.attr.minor_version.markup">512</property>
  <property name="kdenlive:original.meta.attr.compatible_brands.markup">isomiso2avc1mp41</property>
  <property name="kdenlive:original.meta.attr.encoder.markup">Lavf60.3.100</property>
  <property name="kdenlive:original.meta.attr.comment.markup">Rendered with Manim Community v0.17.2</property>
  <property name="kdenlive:original.seekable">1</property>
  <property name="kdenlive:original.width">3840</property>
  <property name="kdenlive:original.height">2160</property>
  <property name="kdenlive:original.meta.media.sample_aspect_num">1</property>
  <property name="kdenlive:original.meta.media.sample_aspect_den">1</property>
  <property name="kdenlive:original.aspect_ratio">1</property>
  <property name="kdenlive:original.format">3</property>
  <property name="kdenlive:original.audio_index">-1</property>
  <property name="kdenlive:original.video_index">0</property>
  <property name="kdenlive:original.mute_on_pause">0</property>
  <property name="kdenlive:original.mlt_service">avformat-novalidate</property>
  <property name="kdenlive:original.meta.media.frame_rate_num">60</property>
  <property name="kdenlive:original.meta.media.frame_rate_den">1</property>
  <property name="kdenlive:original.meta.media.colorspace">709</property>
  <property name="kdenlive:original.meta.media.color_trc">2</property>
  <property name="kdenlive:original.meta.media.has_b_frames">2</property>
  <property name="kdenlive:original.meta.media.width">3840</property>
  <property name="kdenlive:original.meta.media.height">2160</property>
  <property name="kdenlive:original.meta.media.color_range">mpeg</property>
  <property name="kdenlive:original.meta.media.top_field_first">0</property>
  <property name="kdenlive:original.meta.media.progressive">1</property>
  <property name="kdenlive:original.kdenlive:clip_type">2</property>
  <property name="kdenlive:original.kdenlive:folderid">344</property>
  <property name="kdenlive:original.kdenlive:id">345</property>
  <property name="kdenlive:original.kdenlive:file_size">192674</property>
  <property name="kdenlive:original.kdenlive:file_hash">d7dbe6b3d8711896db854adefcd19c17</property>
  <property name="kdenlive:original.backup">1</property>
  <property name="xml">was here</property>
  <property name="meta.media.frame_rate_num">60</property>
  <property name="meta.media.frame_rate_den">1</property>
  <property name="meta.media.colorspace">601</property>
  <property name="meta.media.color_trc">2</property>
  <property name="meta.media.has_b_frames">0</property>
  <property name="meta.media.width">640</property>
  <property name="meta.media.height">360</property>
  <property name="meta.media.color_range">full</property>
  <property name="meta.media.top_field_first">0</property>
  <property name="meta.media.progressive">1</property>
  <property name="set.test_audio">1</property>
  <property name="set.test_image">0</property>
 </producer>
 <producer id="producer568" in="00:00:00.000" out="00:00:01.317">
  <property name="length">80</property>
  <property name="eof">pause</property>
  <property name="resource">/home/xiaoxiae/.cache/kdenlive/proxy/a17ec532fdf67dbc9ce7dc28b66b4bc3.mkv</property>
  <property name="audio_index">-1</property>
  <property name="video_index">0</property>
  <property name="mute_on_pause">0</property>
  <property name="mlt_service">avformat-novalidate</property>
  <property name="meta.media.nb_streams">1</property>
  <property name="meta.media.0.stream.type">video</property>
  <property name="meta.media.0.stream.frame_rate">60</property>
  <property name="meta.media.0.stream.sample_aspect_ratio">0</property>
  <property name="meta.media.0.codec.width">640</property>
  <property name="meta.media.0.codec.height">360</property>
  <property name="meta.media.0.codec.rotate">0</property>
  <property name="meta.media.0.codec.pix_fmt">yuvj420p</property>
  <property name="meta.media.0.codec.sample_aspect_ratio">0</property>
  <property name="meta.media.0.codec.colorspace">601</property>
  <property name="meta.media.0.codec.name">mjpeg</property>
  <property name="meta.media.0.codec.long_name">MJPEG (Motion JPEG)</property>
  <property name="meta.media.0.codec.bit_rate">0</property>
  <property name="meta.attr.0.stream.HANDLER_NAME.markup">VideoHandler</property>
  <property name="meta.attr.0.stream.VENDOR_ID.markup">[0][0][0][0]</property>
  <property name="meta.attr.0.stream.ENCODER.markup">Lavc60.3.100 mjpeg</property>
  <property name="meta.attr.0.stream.DURATION.markup">00:00:01.334000000</property>
  <property name="meta.attr.COMMENT.markup">Rendered with Manim Community v0.17.2</property>
  <property name="meta.attr.MAJOR_BRAND.markup">isom</property>
  <property name="meta.attr.MINOR_VERSION.markup">512</property>
  <property name="meta.attr.COMPATIBLE_BRANDS.markup">isomiso2avc1mp41</property>
  <property name="meta.attr.ENCODER.markup">Lavf60.3.100</property>
  <property name="seekable">1</property>
  <property name="meta.media.sample_aspect_num">1</property>
  <property name="meta.media.sample_aspect_den">1</property>
  <property name="aspect_ratio">1</property>
  <property name="format">3</property>
  <property name="kdenlive:clipname">2.mp4</property>
  <property name="kdenlive:clip_type">2</property>
  <property name="kdenlive:folderid">344</property>
  <property name="kdenlive:id">354</property>
  <property name="kdenlive:file_size">160156</property>
  <property name="kdenlive:file_hash">a17ec532fdf67dbc9ce7dc28b66b4bc3</property>
  <property name="kdenlive:proxy">/home/xiaoxiae/.cache/kdenlive/proxy/a17ec532fdf67dbc9ce7dc28b66b4bc3.mkv</property>
  <property name="kdenlive:originalurl">video/Basics/2.mp4</property>
  <property name="kdenlive:original.mlt_type">producer</property>
  <property name="kdenlive:original.in">00:00:00.000</property>
  <property name="kdenlive:original.out">00:00:01.317</property>
  <property name="kdenlive:original.length">80</property>
  <property name="kdenlive:original.eof">pause</property>
  <property name="kdenlive:original.resource">video/Basics/2.mp4</property>
  <property name="kdenlive:original.meta.media.nb_streams">1</property>
  <property name="kdenlive:original.meta.media.0.stream.type">video</property>
  <property name="kdenlive:original.meta.media.0.stream.frame_rate">60</property>
  <property name="kdenlive:original.meta.media.0.stream.sample_aspect_ratio">0</property>
  <property name="kdenlive:original.meta.media.0.codec.width">3840</property>
  <property name="kdenlive:original.meta.media.0.codec.height">2160</property>
  <property name="kdenlive:original.meta.media.0.codec.rotate">0</property>
  <property name="kdenlive:original.meta.media.0.codec.pix_fmt">yuv420p</property>
  <property name="kdenlive:original.meta.media.0.codec.sample_aspect_ratio">0</property>
  <property name="kdenlive:original.meta.media.0.codec.colorspace">709</property>
  <property name="kdenlive:original.meta.media.0.codec.name">h264</property>
  <property name="kdenlive:original.meta.media.0.codec.long_name">H.264 / AVC / MPEG-4 AVC / MPEG-4 part 10</property>
  <property name="kdenlive:original.meta.media.0.codec.bit_rate">949710</property>
  <property name="kdenlive:original.meta.attr.0.stream.handler_name.markup">VideoHandler</property>
  <property name="kdenlive:original.meta.attr.0.stream.vendor_id.markup">[0][0][0][0]</property>
  <property name="kdenlive:original.meta.attr.0.stream.encoder.markup">Lavc60.3.100 libx264</property>
  <property name="kdenlive:original.meta.attr.major_brand.markup">isom</property>
  <property name="kdenlive:original.meta.attr.minor_version.markup">512</property>
  <property name="kdenlive:original.meta.attr.compatible_brands.markup">isomiso2avc1mp41</property>
  <property name="kdenlive:original.meta.attr.encoder.markup">Lavf60.3.100</property>
  <property name="kdenlive:original.meta.attr.comment.markup">Rendered with Manim Community v0.17.2</property>
  <property name="kdenlive:original.seekable">1</property>
  <property name="kdenlive:original.width">3840</property>
  <property name="kdenlive:original.height">2160</property>
  <property name="kdenlive:original.meta.media.sample_aspect_num">1</property>
  <property name="kdenlive:original.meta.media.sample_aspect_den">1</property>
  <property name="kdenlive:original.aspect_ratio">1</property>
  <property name="kdenlive:original.format">3</property>
  <property name="kdenlive:original.audio_index">-1</property>
  <property name="kdenlive:original.video_index">0</property>
  <property name="kdenlive:original.mute_on_pause">0</property>
  <property name="kdenlive:original.mlt_service">avformat-novalidate</property>
  <property name="kdenlive:original.meta.media.frame_rate_num">60</property>
  <property name="kdenlive:original.meta.media.frame_rate_den">1</property>
  <property name="kdenlive:original.meta.media.colorspace">709</property>
  <property name="kdenlive:original.meta.media.color_trc">2</property>
  <property name="kdenlive:original.meta.media.has_b_frames">2</property>
  <property name="kdenlive:original.meta.media.width">3840</property>
  <property name="kdenlive:original.meta.media.height">2160</property>
  <property name="kdenlive:original.meta.media.color_range">mpeg</property>
  <property name="kdenlive:original.meta.media.top_field_first">0</property>
  <property name="kdenlive:original.meta.media.progressive">1</property>
  <property name="kdenlive:original.kdenlive:clip_type">2</property>
  <property name="kdenlive:original.kdenlive:folderid">344</property>
  <property name="kdenlive:original.kdenlive:id">356</property>
  <property name="kdenlive:original.kdenlive:file_size">160156</property>
  <property name="kdenlive:original.kdenlive:file_hash">a17ec532fdf67dbc9ce7dc28b66b4bc3</property>
  <property name="kdenlive:original.backup">1</property>
  <property name="xml">was here</property>
  <property name="meta.media.frame_rate_num">60</property>
  <property name="meta.media.frame_rate_den">1</property>
  <property name="meta.media.colorspace">601</property>
  <property name="meta.media.color_trc">2</property>
  <property name="meta.media.has_b_frames">0</property>
  <property name="meta.media.width">640</property>
  <property name="meta.media.height">360</property>
  <property name="meta.media.color_range">full</property>
  <property name="meta.media.top_field_first">0</property>
  <property name="meta.media.progressive">1</property>
  <property name="set.test_audio">1</property>
  <property name="set.test_image">0</property>
 </producer>
 <producer id="producer569" in="00:00:00.000" out="00:00:00.983">
  <property name="length">60</property>
  <property name="eof">pause</property>
  <property name="resource">/home/xiaoxiae/.cache/kdenlive/proxy/a6571261caf3b789acedc07bcebbcb5a.mkv</property>
  <property name="audio_index">-1</property>
  <property name="video_index">0</property>
  <property name="mute_on_pause">0</property>
  <property name="mlt_service">avformat-novalidate</property>
  <property name="meta.media.nb_streams">1</property>
  <property name="meta.media.0.stream.type">video</property>
  <property name="meta.media.0.stream.frame_rate">60</property>
  <property name="meta.media.0.stream.sample_aspect_ratio">0</property>
  <property name="meta.media.0.codec.width">640</property>
  <property name="meta.media.0.codec.height">360</property>
  <property name="meta.media.0.codec.rotate">0</property>
  <property name="meta.media.0.codec.pix_fmt">yuvj420p</property>
  <property name="meta.media.0.codec.sample_aspect_ratio">0</property>
  <property name="meta.media.0.codec.colorspace">601</property>
  <property name="meta.media.0.codec.name">mjpeg</property>
  <property name="meta.media.0.codec.long_name">MJPEG (Motion JPEG)</property>
  <property name="meta.media.0.codec.bit_rate">0</property>
  <property name="meta.attr.0.stream.HANDLER_NAME.markup">VideoHandler</property>
  <property name="meta.attr.0.stream.VENDOR_ID.markup">[0][0][0][0]</property>
  <property name="meta.attr.0.stream.ENCODER.markup">Lavc60.3.100 mjpeg</property>
  <property name="meta.attr.0.stream.DURATION.markup">00:00:01.000000000</property>
  <property name="meta.attr.COMMENT.markup">Rendered with Manim Community v0.17.2</property>
  <property name="meta.attr.MAJOR_BRAND.markup">isom</property>
  <property name="meta.attr.MINOR_VERSION.markup">512</property>
  <property name="meta.attr.COMPATIBLE_BRANDS.markup">isomiso2avc1mp41</property>
  <property name="meta.attr.ENCODER.markup">Lavf60.3.100</property>
  <property name="seekable">1</property>
  <property name="meta.media.sample_aspect_num">1</property>
  <property name="meta.media.sample_aspect_den">1</property>
  <property name="aspect_ratio">1</property>
  <property name="format">3</property>
  <property name="kdenlive:clipname">3.mp4</property>
  <property name="kdenlive:clip_type">2</property>
  <property name="kdenlive:folderid">344</property>
  <property name="kdenlive:id">365</property>
  <property name="kdenlive:file_size">86769</property>
  <property name="kdenlive:file_hash">a6571261caf3b789acedc07bcebbcb5a</property>
  <property name="kdenlive:proxy">/home/xiaoxiae/.cache/kdenlive/proxy/a6571261caf3b789acedc07bcebbcb5a.mkv</property>
  <property name="kdenlive:originalurl">video/Basics/3.mp4</property>
  <property name="kdenlive:original.mlt_type">producer</property>
  <property name="kdenlive:original.in">00:00:00.000</property>
  <property name="kdenlive:original.out">00:00:00.983</property>
  <property name="kdenlive:original.length">60</property>
  <property name="kdenlive:original.eof">pause</property>
  <property name="kdenlive:original.resource">video/Basics/3.mp4</property>
  <property name="kdenlive:original.meta.media.nb_streams">1</property>
  <property name="kdenlive:original.meta.media.0.stream.type">video</property>
  <property name="kdenlive:original.meta.media.0.stream.frame_rate">60</property>
  <property name="kdenlive:original.meta.media.0.stream.sample_aspect_ratio">0</property>
  <property name="kdenlive:original.meta.media.0.codec.width">3840</property>
  <property name="kdenlive:original.meta.media.0.codec.height">2160</property>
  <property name="kdenlive:original.meta.media.0.codec.rotate">0</property>
  <property name="kdenlive:original.meta.media.0.codec.pix_fmt">yuv420p</property>
  <property name="kdenlive:original.meta.media.0.codec.sample_aspect_ratio">0</property>
  <property name="kdenlive:original.meta.media.0.codec.colorspace">709</property>
  <property name="kdenlive:original.meta.media.0.codec.name">h264</property>
  <property name="kdenlive:original.meta.media.0.codec.long_name">H.264 / AVC / MPEG-4 AVC / MPEG-4 part 10</property>
  <property name="kdenlive:original.meta.media.0.codec.bit_rate">681040</property>
  <property name="kdenlive:original.meta.attr.0.stream.handler_name.markup">VideoHandler</property>
  <property name="kdenlive:original.meta.attr.0.stream.vendor_id.markup">[0][0][0][0]</property>
  <property name="kdenlive:original.meta.attr.0.stream.encoder.markup">Lavc60.3.100 libx264</property>
  <property name="kdenlive:original.meta.attr.major_brand.markup">isom</property>
  <property name="kdenlive:original.meta.attr.minor_version.markup">512</property>
  <property name="kdenlive:original.meta.attr.compatible_brands.markup">isomiso2avc1mp41</property>
  <property name="kdenlive:original.meta.attr.encoder.markup">Lavf60.3.100</property>
  <property name="kdenlive:original.meta.attr.comment.markup">Rendered with Manim Community v0.17.2</property>
  <property name="kdenlive:original.seekable">1</property>
  <property name="kdenlive:original.width">3840</property>
  <property name="kdenlive:original.height">2160</property>
  <property name="kdenlive:original.meta.media.sample_aspect_num">1</property>
  <property name="kdenlive:original.meta.media.sample_aspect_den">1</property>
  <property name="kdenlive:original.aspect_ratio">1</property>
  <property name="kdenlive:original.format">3</property>
  <property name="kdenlive:original.audio_index">-1</property>
  <property name="kdenlive:original.video_index">0</property>
  <property name="kdenlive:original.mute_on_pause">0</property>
  <property name="kdenlive:original.mlt_service">avformat-novalidate</property>
  <property name="kdenlive:original.meta.media.frame_rate_num">60</property>
  <property name="kdenlive:original.meta.media.frame_rate_den">1</property>
  <property name="kdenlive:original.meta.media.colorspace">709</property>
  <property name="kdenlive:original.meta.media.color_trc">2</property>
  <property name="kdenlive:original.meta.media.has_b_frames">2</property>
  <property name="kdenlive:original.meta.media.width">3840</property>
  <property name="kdenlive:original.meta.media.height">2160</property>
  <property name="kdenlive:original.meta.media.color_range">mpeg</property>
  <property name="kdenlive:original.meta.media.top_field_first">0</property>
  <property name="kdenlive:original.meta.media.progressive">1</property>
  <property name="kdenlive:original.kdenlive:clip_type">2</property>
  <property name="kdenlive:original.kdenlive:folderid">344</property>
  <property name="kdenlive:original.kdenlive:id">367</property>
  <property name="kdenlive:original.kdenlive:file_size">86769</property>
  <property name="kdenlive:original.kdenlive:file_hash">a6571261caf3b789acedc07bcebbcb5a</property>
  <property name="kdenlive:original.backup">1</property>
  <property name="xml">was here</property>
  <property name="meta.media.frame_rate_num">60</property>
  <property name="meta.media.frame_rate_den">1</property>
  <property name="meta.media.colorspace">601</property>
  <property name="meta.media.color_trc">2</property>
  <property name="meta.media.has_b_frames">0</property>
  <property name="meta.media.width">640</property>
  <property name="meta.media.height">360</property>
  <property name="meta.media.color_range">full</property>
  <property name="meta.media.top_field_first">0</property>
  <property name="meta.media.progressive">1</property>
  <property name="set.test_audio">1</property>
  <property name="set.test_image">0</property>
 </producer>
 <producer id="producer570" in="00:00:00.000" out="00:00:00.983">
  <property name="length">60</property>
  <property name="eof">pause</property>
  <property name="resource">/home/xiaoxiae/.cache/kdenlive/proxy/f656ea6e4d6c9e56a6d125a567f15ac5.mkv</property>
  <property name="audio_index">-1</property>
  <property name="video_index">0</property>
  <property name="mute_on_pause">0</property>
  <property name="mlt_service">avformat-novalidate</property>
  <property name="meta.media.nb_streams">1</property>
  <property name="meta.media.0.stream.type">video</property>
  <property name="meta.media.0.stream.frame_rate">60</property>
  <property name="meta.media.0.stream.sample_aspect_ratio">0</property>
  <property name="meta.media.0.codec.width">640</property>
  <property name="meta.media.0.codec.height">360</property>
  <property name="meta.media.0.codec.rotate">0</property>
  <property name="meta.media.0.codec.pix_fmt">yuvj420p</property>
  <property name="meta.media.0.codec.sample_aspect_ratio">0</property>
  <property name="meta.media.0.codec.colorspace">601</property>
  <property name="meta.media.0.codec.name">mjpeg</property>
  <property name="meta.media.0.codec.long_name">MJPEG (Motion JPEG)</property>
  <property name="meta.media.0.codec.bit_rate">0</property>
  <property name="meta.attr.0.stream.HANDLER_NAME.markup">VideoHandler</property>
  <property name="meta.attr.0.stream.VENDOR_ID.markup">[0][0][0][0]</property>
  <property name="meta.attr.0.stream.ENCODER.markup">Lavc60.3.100 mjpeg</property>
  <property name="meta.attr.0.stream.DURATION.markup">00:00:01.000000000</property>
  <property name="meta.attr.COMMENT.markup">Rendered with Manim Community v0.17.2</property>
  <property name="meta.attr.MAJOR_BRAND.markup">isom</property>
  <property name="meta.attr.MINOR_VERSION.markup">512</property>
  <property name="meta.attr.COMPATIBLE_BRANDS.markup">isomiso2avc1mp41</property>
  <property name="meta.attr.ENCODER.markup">Lavf60.3.100</property>
  <property name="seekable">1</property>
  <property name="meta.media.sample_aspect_num">1</property>
  <property name="meta.media.sample_aspect_den">1</property>
  <property name="aspect_ratio">1</property>
  <property name="format">3</property>
  <property name="kdenlive:clipname">4.mp4</property>
  <property name="kdenlive:clip_type">2</property>
  <property name="kdenlive:folderid">344</property>
  <property name="kdenlive:id">371</property>
  <property name="kdenlive:file_size">97948</property>
  <property name="kdenlive:file_hash">f656ea6e4d6c9e56a6d125a567f15ac5</property>
  <property name="kdenlive:proxy">/home/xiaoxiae/.cache/kdenlive/proxy/f656ea6e4d6c9e56a6d125a567f15ac5.mkv</property>
  <property name="kdenlive:originalurl">video/Basics/4.mp4</property>
  <property name="kdenlive:original.mlt_type">producer</property>
  <property name="kdenlive:original.in">00:00:00.000</property>
  <property name="kdenlive:original.out">00:00:00.983</property>
  <property name="kdenlive:original.length">60</property>
  <property name="kdenlive:original.eof">pause</property>
  <property name="kdenlive:original.resource">video/Basics/4.mp4</property>
  <property name="kdenlive:original.meta.media.nb_streams">1</property>
  <property name="kdenlive:original.meta.media.0.stream.type">video</property>
  <property name="kdenlive:original.meta.media.0.stream.frame_rate">60</property>
  <property name="kdenlive:original.meta.media.0.stream.sample_aspect_ratio">0</property>
  <property name="kdenlive:original.meta.media.0.codec.width">3840</property>
  <property name="kdenlive:original.meta.media.0.codec.height">2160</property>
  <property name="kdenlive:original.meta.media.0.codec.rotate">0</property>
  <property name="kdenlive:original.meta.media.0.codec.pix_fmt">yuv420p</property>
  <property name="kdenlive:original.meta.media.0.codec.sample_aspect_ratio">0</property>
  <property name="kdenlive:original.meta.media.0.codec.colorspace">709</property>
  <property name="kdenlive:original.meta.media.0.codec.name">h264</property>
  <property name="kdenlive:original.meta.media.0.codec.long_name">H.264 / AVC / MPEG-4 AVC / MPEG-4 part 10</property>
  <property name="kdenlive:original.meta.media.0.codec.bit_rate">770472</property>
  <property name="kdenlive:original.meta.attr.0.stream.handler_name.markup">VideoHandler</property>
  <property name="kdenlive:original.meta.attr.0.stream.vendor_id.markup">[0][0][0][0]</property>
  <property name="kdenlive:original.meta.attr.0.stream.encoder.markup">Lavc60.3.100 libx264</property>
  <property name="kdenlive:original.meta.attr.major_brand.markup">isom</property>
  <property name="kdenlive:original.meta.attr.minor_version.markup">512</property>
  <property name="kdenlive:original.meta.attr.compatible_brands.markup">isomiso2avc1mp41</property>
  <property name="kdenlive:original.meta.attr.encoder.markup">Lavf60.3.100</property>
  <property name="kdenlive:original.meta.attr.comment.markup">Rendered with Manim Community v0.17.2</property>
  <property name="kdenlive:original.seekable">1</property>
  <property name="kdenlive:original.width">3840</property>
  <property name="kdenlive:original.height">2160</property>
  <property name="kdenlive:original.meta.media.sample_aspect_num">1</property>
  <property name="kdenlive:original.meta.media.sample_aspect_den">1</property>
  <property name="kdenlive:original.aspect_ratio">1</property>
  <property name="kdenlive:original.format">3</property>
  <property name="kdenlive:original.audio_index">-1</property>
  <property name="kdenlive:original.video_index">0</property>
  <property name="kdenlive:original.mute_on_pause">0</property>
  <property name="kdenlive:original.mlt_service">avformat-novalidate</property>
  <property name="kdenlive:original.meta.media.frame_rate_num">60</property>
  <property name="kdenlive:original.meta.media.frame_rate_den">1</property>
  <property name="kdenlive:original.meta.media.colorspace">709</property>
  <property name="kdenlive:original.meta.media.color_trc">2</property>
  <property name="kdenlive:original.meta.media.has_b_frames">2</property>
  <property name="kdenlive:original.meta.media.width">3840</property>
  <property name="kdenlive:original.meta.media.height">2160</property>
  <property name="kdenlive:original.meta.media.color_range">mpeg</property>
  <property name="kdenlive:original.meta.media.top_field_first">0</property>
  <property name="kdenlive:original.meta.media.progressive">1</property>
  <property name="kdenlive:original.kdenlive:clip_type">2</property>
  <property name="kdenlive:original.kdenlive:folderid">344</property>
  <property name="kdenlive:original.kdenlive:id">373</property>
  <property name="kdenlive:original.kdenlive:file_size">97948</property>
  <property name="kdenlive:original.kdenlive:file_hash">f656ea6e4d6c9e56a6d125a567f15ac5</property>
  <property name="kdenlive:original.backup">1</property>
  <property name="xml">was here</property>
  <property name="meta.media.frame_rate_num">60</property>
  <property name="meta.media.frame_rate_den">1</property>
  <property name="meta.media.colorspace">601</property>
  <property name="meta.media.color_trc">2</property>
  <property name="meta.media.has_b_frames">0</property>
  <property name="meta.media.width">640</property>
  <property name="meta.media.height">360</property>
  <property name="meta.media.color_range">full</property>
  <property name="meta.media.top_field_first">0</property>
  <property name="meta.media.progressive">1</property>
  <property name="set.test_audio">1</property>
  <property name="set.test_image">0</property>
 </producer>
 <producer id="producer571" in="00:00:00.000" out="00:00:00.983">
  <property name="length">60</property>
  <property name="eof">pause</property>
  <property name="resource">/home/xiaoxiae/.cache/kdenlive/proxy/1ac7c5890506bc14721339886ec7751e.mkv</property>
  <property name="audio_index">-1</property>
  <property name="video_index">0</property>
  <property name="mute_on_pause">0</property>
  <property name="mlt_service">avformat-novalidate</property>
  <property name="meta.media.nb_streams">1</property>
  <property name="meta.media.0.stream.type">video</property>
  <property name="meta.media.0.stream.frame_rate">60</property>
  <property name="meta.media.0.stream.sample_aspect_ratio">0</property>
  <property name="meta.media.0.codec.width">640</property>
  <property name="meta.media.0.codec.height">360</property>
  <property name="meta.media.0.codec.rotate">0</property>
  <property name="meta.media.0.codec.pix_fmt">yuvj420p</property>
  <property name="meta.media.0.codec.sample_aspect_ratio">0</property>
  <property name="meta.media.0.codec.colorspace">601</property>
  <property name="meta.media.0.codec.name">mjpeg</property>
  <property name="meta.media.0.codec.long_name">MJPEG (Motion JPEG)</property>
  <property name="meta.media.0.codec.bit_rate">0</property>
  <property name="meta.attr.0.stream.HANDLER_NAME.markup">VideoHandler</property>
  <property name="meta.attr.0.stream.VENDOR_ID.markup">[0][0][0][0]</property>
  <property name="meta.attr.0.stream.ENCODER.markup">Lavc60.3.100 mjpeg</property>
  <property name="meta.attr.0.stream.DURATION.markup">00:00:01.000000000</property>
  <property name="meta.attr.COMMENT.markup">Rendered with Manim Community v0.17.2</property>
  <property name="meta.attr.MAJOR_BRAND.markup">isom</property>
  <property name="meta.attr.MINOR_VERSION.markup">512</property>
  <property name="meta.attr.COMPATIBLE_BRANDS.markup">isomiso2avc1mp41</property>
  <property name="meta.attr.ENCODER.markup">Lavf60.3.100</property>
  <property name="seekable">1</property>
  <property name="meta.media.sample_aspect_num">1</property>
  <property name="meta.media.sample_aspect_den">1</property>
  <property name="aspect_ratio">1</property>
  <property name="format">3</property>
  <property name="kdenlive:clipname">5.mp4</property>
  <property name="kdenlive:clip_type">2</property>
  <property name="kdenlive:folderid">344</property>
  <property name="kdenlive:id">372</property>
  <property name="kdenlive:file_size">47140</property>
  <property name="kdenlive:file_hash">1ac7c5890506bc14721339886ec7751e</property>
  <property name="kdenlive:proxy">/home/xiaoxiae/.cache/kdenlive/proxy/1ac7c5890506bc14721339886ec7751e.mkv</property>
  <property name="kdenlive:originalurl">video/Basics/5.mp4</property>
  <property name="kdenlive:original.mlt_type">producer</property>
  <property name="kdenlive:original.in">00:00:00.000</property>
  <property name="kdenlive:original.out">00:00:00.983</property>
  <property name="kdenlive:original.length">60</property>
  <property name="kdenlive:original.eof">pause</property>
  <property name="kdenlive:original.resource">video/Basics/5.mp4</property>
  <property name="kdenlive:original.meta.media.nb_streams">1</property>
  <property name="kdenlive:original.meta.media.0.stream.type">video</property>
  <property name="kdenlive:original.meta.media.0.stream.frame_rate">60</property>
  <property name="kdenlive:original.meta.media.0.stream.sample_aspect_ratio">0</property>
  <property name="kdenlive:original.meta.media.0.codec.width">3840</property>
  <property name="kdenlive:original.meta.media.0.codec.height">2160</property>
  <property name="kdenlive:original.meta.media.0.codec.rotate">0</property>
  <property name="kdenlive:original.meta.media.0.codec.pix_fmt">yuv420p</property>
  <property name="kdenlive:original.meta.media.0.codec.sample_aspect_ratio">0</property>
  <property name="kdenlive:original.meta.media.0.codec.colorspace">709</property>
  <property name="kdenlive:original.meta.media.0.codec.name">h264</property>
  <property name="kdenlive:original.meta.media.0.codec.long_name">H.264 / AVC / MPEG-4 AVC / MPEG-4 part 10</property>
  <property name="kdenlive:original.meta.media.0.codec.bit_rate">364072</property>
  <property name="kdenlive:original.meta.attr.0.stream.handler_name.markup">VideoHandler</property>
  <property name="kdenlive:original.meta.attr.0.stream.vendor_id.markup">[0][0][0][0]</property>
  <property name="kdenlive:original.meta.attr.0.stream.encoder.markup">Lavc60.3.100 libx264</property>
  <property name="kdenlive:original.meta.attr.major_brand.markup">isom</property>
  <property name="kdenlive:original.meta.attr.minor_version.markup">512</property>
  <property name="kdenlive:original.meta.attr.compatible_brands.markup">isomiso2avc1mp41</property>
  <property name="kdenlive:original.meta.attr.encoder.markup">Lavf60.3.100</property>
  <property name="kdenlive:original.meta.attr.comment.markup">Rendered with Manim Community v0.17.2</property>
  <property name="kdenlive:original.seekable">1</property>
  <property name="kdenlive:original.width">3840</property>
  <property name="kdenlive:original.height">2160</property>
  <property name="kdenlive:original.meta.media.sample_aspect_num">1</property>
  <property name="kdenlive:original.meta.media.sample_aspect_den">1</property>
  <property name="kdenlive:original.aspect_ratio">1</property>
  <property name="kdenlive:original.format">3</property>
  <property name="kdenlive:original.audio_index">-1</property>
  <property name="kdenlive:original.video_index">0</property>
  <property name="kdenlive:original.mute_on_pause">0</property>
  <property name="kdenlive:original.mlt_service">avformat-novalidate</property>
  <property name="kdenlive:original.meta.media.frame_rate_num">60</property>
  <property name="kdenlive:original.meta.media.frame_rate_den">1</property>
  <property name="kdenlive:original.meta.media.colorspace">709</property>
  <property name="kdenlive:original.meta.media.color_trc">2</property>
  <property name="kdenlive:original.meta.media.has_b_frames">2</property>
  <property name="kdenlive:original.meta.media.width">3840</property>
  <property name="kdenlive:original.meta.media.height">2160</property>
  <property name="kdenlive:original.meta.media.color_range">mpeg</property>
  <property name="kdenlive:original.meta.media.top_field_first">0</property>
  <property name="kdenlive:original.meta.media.progressive">1</property>
  <property name="kdenlive:original.kdenlive:clip_type">2</property>
  <property name="kdenlive:original.kdenlive:folderid">344</property>
  <property name="kdenlive:original.kdenlive:id">374</property>
  <property name="kdenlive:original.kdenlive:file_size">47140</property>
  <property name="kdenlive:original.kdenlive:file_hash">1ac7c5890506bc14721339886ec7751e</property>
  <property name="kdenlive:original.backup">1</property>
  <property name="xml">was here</property>
  <property name="meta.media.frame_rate_num">60</property>
  <property name="meta.media.frame_rate_den">1</property>
  <property name="meta.media.colorspace">601</property>
  <property name="meta.media.color_trc">2</property>
  <property name="meta.media.has_b_frames">0</property>
  <property name="meta.media.width">640</property>
  <property name="meta.media.height">360</property>
  <property name="meta.media.color_range">full</property>
  <property name="meta.media.top_field_first">0</property>
  <property name="meta.media.progressive">1</property>
  <property name="set.test_audio">1</property>
  <property name="set.test_image">0</property>
 </producer>
 <producer id="producer572" in="00:00:00.000" out="00:00:00.983">
  <property name="length">60</property>
  <property name="eof">pause</property>
  <property name="resource">/home/xiaoxiae/.cache/kdenlive/proxy/0f737cb7b436110e15715e71adc14406.mkv</property>
  <property name="audio_index">-1</property>
  <property name="video_index">0</property>
  <property name="mute_on_pause">0</property>
  <property name="mlt_service">avformat-novalidate</property>
  <property name="meta.media.nb_streams">1</property>
  <property name="meta.media.0.stream.type">video</property>
  <property name="meta.media.0.stream.frame_rate">60</property>
  <property name="meta.media.0.stream.sample_aspect_ratio">0</property>
  <property name="meta.media.0.codec.width">640</property>
  <property name="meta.media.0.codec.height">360</property>
  <property name="meta.media.0.codec.rotate">0</property>
  <property name="meta.media.0.codec.pix_fmt">yuvj420p</property>
  <property name="meta.media.0.codec.sample_aspect_ratio">0</property>
  <property name="meta.media.0.codec.colorspace">601</property>
  <property name="meta.media.0.codec.name">mjpeg</property>
  <property name="meta.media.0.codec.long_name">MJPEG (Motion JPEG)</property>
  <property name="meta.media.0.codec.bit_rate">0</property>
  <property name="meta.attr.0.stream.HANDLER_NAME.markup">VideoHandler</property>
  <property name="meta.attr.0.stream.VENDOR_ID.markup">[0][0][0][0]</property>
  <property name="meta.attr.0.stream.ENCODER.markup">Lavc60.3.100 mjpeg</property>
  <property name="meta.attr.0.stream.DURATION.markup">00:00:01.000000000</property>
  <property name="meta.attr.COMMENT.markup">Rendered with Manim Community v0.17.2</property>
  <property name="meta.attr.MAJOR_BRAND.markup">isom</property>
  <property name="meta.attr.MINOR_VERSION.markup">512</property>
  <property name="meta.attr.COMPATIBLE_BRANDS.markup">isomiso2avc1mp41</property>
  <property name="meta.attr.ENCODER.markup">Lavf60.3.100</property>
  <property name="seekable">1</property>
  <property name="meta.media.sample_aspect_num">1</property>
  <property name="meta.media.sample_aspect_den">1</property>
  <property name="aspect_ratio">1</property>
  <property name="format">3</property>
  <property name="kdenlive:clipname">6.mp4</property>
  <property name="kdenlive:clip_type">2</property>
  <property name="kdenlive:folderid">344</property>
  <property name="kdenlive:id">373</property>
  <property name="kdenlive:file_size">85993</property>
  <property name="kdenlive:file_hash">0f737cb7b436110e15715e71adc14406</property>
  <property name="kdenlive:proxy">/home/xiaoxiae/.cache/kdenlive/proxy/0f737cb7b436110e15715e71adc14406.mkv</property>
  <property name="kdenlive:originalurl">video/Basics/6.mp4</property>
  <property name="kdenlive:original.mlt_type">producer</property>
  <property name="kdenlive:original.in">00:00:00.000</property>
  <property name="kdenlive:original.out">00:00:00.983</property>
  <property name="kdenlive:original.length">60</property>
  <property name="kdenlive:original.eof">pause</property>
  <property name="kdenlive:original.resource">video/Basics/6.mp4</property>
  <property name="kdenlive:original.meta.media.nb_streams">1</property>
  <property name="kdenlive:original.meta.media.0.stream.type">video</property>
  <property name="kdenlive:original.meta.media.0.stream.frame_rate">60</property>
  <property name="kdenlive:original.meta.media.0.stream.sample_aspect_ratio">0</property>
  <property name="kdenlive:original.meta.media.0.codec.width">3840</property>
  <property name="kdenlive:original.meta.media.0.codec.height">2160</property>
  <property name="kdenlive:original.meta.media.0.codec.rotate">0</property>
  <property name="kdenlive:original.meta.media.0.codec.pix_fmt">yuv420p</property>
  <property name="kdenlive:original.meta.media.0.codec.sample_aspect_ratio">0</property>
  <property name="kdenlive:original.meta.media.0.codec.colorspace">709</property>
  <property name="kdenlive:original.meta.media.0.codec.name">h264</property>
  <property name="kdenlive:original.meta.media.0.codec.long_name">H.264 / AVC / MPEG-4 AVC / MPEG-4 part 10</property>
  <property name="kdenlive:original.meta.media.0.codec.bit_rate">674896</property>
  <property name="kdenlive:original.meta.attr.0.stream.handler_name.markup">VideoHandler</property>
  <property name="kdenlive:original.meta.attr.0.stream.vendor_id.markup">[0][0][0][0]</property>
  <property name="kdenlive:original.meta.attr.0.stream.encoder.markup">Lavc60.3.100 libx264</property>
  <property name="kdenlive:original.meta.attr.major_brand.markup">isom</property>
  <property name="kdenlive:original.meta.attr.minor_version.markup">512</property>
  <property name="kdenlive:original.meta.attr.compatible_brands.markup">isomiso2avc1mp41</property>
  <property name="kdenlive:original.meta.attr.encoder.markup">Lavf60.3.100</property>
  <property name="kdenlive:original.meta.attr.comment.markup">Rendered with Manim Community v0.17.2</property>
  <property name="kdenlive:original.seekable">1</property>
  <property name="kdenlive:original.width">3840</property>
  <property name="kdenlive:original.height">2160</property>
  <property name="kdenlive:original.meta.media.sample_aspect_num">1</property>
  <property name="kdenlive:original.meta.media.sample_aspect_den">1</property>
  <property name="kdenlive:original.aspect_ratio">1</property>
  <property name="kdenlive:original.format">3</property>
  <property name="kdenlive:original.audio_index">-1</property>
  <property name="kdenlive:original.video_index">0</property>
  <property name="kdenlive:original.mute_on_pause">0</property>
  <property name="kdenlive:original.mlt_service">avformat-novalidate</property>
  <property name="kdenlive:original.meta.media.frame_rate_num">60</property>
  <property name="kdenlive:original.meta.media.frame_rate_den">1</property>
  <property name="kdenlive:original.meta.media.colorspace">709</property>
  <property name="kdenlive:original.meta.media.color_trc">2</property>
  <property name="kdenlive:original.meta.media.has_b_frames">2</property>
  <property name="kdenlive:original.meta.media.width">3840</property>
  <property name="kdenlive:original.meta.media.height">2160</property>
  <property name="kdenlive:original.meta.media.color_range">mpeg</property>
  <property name="kdenlive:original.meta.media.top_field_first">0</property>
  <property name="kdenlive:original.meta.media.progressive">1</property>
  <property name="kdenlive:original.kdenlive:clip_type">2</property>
  <property name="kdenlive:original.kdenlive:folderid">344</property>
  <property name="kdenlive:original.kdenlive:id">375</property>
  <property name="kdenlive:original.kdenlive:file_size">85993</property>
  <property name="kdenlive:original.kdenlive:file_hash">0f737cb7b436110e15715e71adc14406</property>
  <property name="kdenlive:original.backup">1</property>
  <property name="xml">was here</property>
  <property name="meta.media.frame_rate_num">60</property>
  <property name="meta.media.frame_rate_den">1</property>
  <property name="meta.media.colorspace">601</property>
  <property name="meta.media.color_trc">2</property>
  <property name="meta.media.has_b_frames">0</property>
  <property name="meta.media.width">640</property>
  <property name="meta.media.height">360</property>
  <property name="meta.media.color_range">full</property>
  <property name="meta.media.top_field_first">0</property>
  <property name="meta.media.progressive">1</property>
  <property name="set.test_audio">1</property>
  <property name="set.test_image">0</property>
 </producer>
 <producer id="producer573" in="00:00:00.000" out="00:00:00.983">
  <property name="length">60</property>
  <property name="eof">pause</property>
  <property name="resource">/home/xiaoxiae/.cache/kdenlive/proxy/54f5efc31a62a5d0b20792fbbe3e84be.mkv</property>
  <property name="audio_index">-1</property>
  <property name="video_index">0</property>
  <property name="mute_on_pause">0</property>
  <property name="mlt_service">avformat-novalidate</property>
  <property name="meta.media.nb_streams">1</property>
  <property name="meta.media.0.stream.type">video</property>
  <property name="meta.media.0.stream.frame_rate">60</property>
  <property name="meta.media.0.stream.sample_aspect_ratio">0</property>
  <property name="meta.media.0.codec.width">640</property>
  <property name="meta.media.0.codec.height">360</property>
  <property name="meta.media.0.codec.rotate">0</property>
  <property name="meta.media.0.codec.pix_fmt">yuvj420p</property>
  <property name="meta.media.0.codec.sample_aspect_ratio">0</property>
  <property name="meta.media.0.codec.colorspace">601</property>
  <property name="meta.media.0.codec.name">mjpeg</property>
  <property name="meta.media.0.codec.long_name">MJPEG (Motion JPEG)</property>
  <property name="meta.media.0.codec.bit_rate">0</property>
  <property name="meta.attr.0.stream.HANDLER_NAME.markup">VideoHandler</property>
  <property name="meta.attr.0.stream.VENDOR_ID.markup">[0][0][0][0]</property>
  <property name="meta.attr.0.stream.ENCODER.markup">Lavc60.3.100 mjpeg</property>
  <property name="meta.attr.0.stream.DURATION.markup">00:00:01.000000000</property>
  <property name="meta.attr.COMMENT.markup">Rendered with Manim Community v0.17.2</property>
  <property name="meta.attr.MAJOR_BRAND.markup">isom</property>
  <property name="meta.attr.MINOR_VERSION.markup">512</property>
  <property name="meta.attr.COMPATIBLE_BRANDS.markup">isomiso2avc1mp41</property>
  <property name="meta.attr.ENCODER.markup">Lavf60.3.100</property>
  <property name="seekable">1</property>
  <property name="meta.media.sample_aspect_num">1</property>
  <property name="meta.media.sample_aspect_den">1</property>
  <property name="aspect_ratio">1</property>
  <property name="format">3</property>
  <property name="kdenlive:clipname">7.mp4</property>
  <property name="kdenlive:clip_type">2</property>
  <property name="kdenlive:folderid">344</property>
  <property name="kdenlive:id">374</property>
  <property name="kdenlive:file_size">156754</property>
  <property name="kdenlive:file_hash">54f5efc31a62a5d0b20792fbbe3e84be</property>
  <property name="kdenlive:proxy">/home/xiaoxiae/.cache/kdenlive/proxy/54f5efc31a62a5d0b20792fbbe3e84be.mkv</property>
  <property name="kdenlive:originalurl">video/Basics/7.mp4</property>
  <property name="kdenlive:original.mlt_type">producer</property>
  <property name="kdenlive:original.in">00:00:00.000</property>
  <property name="kdenlive:original.out">00:00:00.983</property>
  <property name="kdenlive:original.length">60</property>
  <property name="kdenlive:original.eof">pause</property>
  <property name="kdenlive:original.resource">video/Basics/7.mp4</property>
  <property name="kdenlive:original.meta.media.nb_streams">1</property>
  <property name="kdenlive:original.meta.media.0.stream.type">video</property>
  <property name="kdenlive:original.meta.media.0.stream.frame_rate">60</property>
  <property name="kdenlive:original.meta.media.0.stream.sample_aspect_ratio">0</property>
  <property name="kdenlive:original.meta.media.0.codec.width">3840</property>
  <property name="kdenlive:original.meta.media.0.codec.height">2160</property>
  <property name="kdenlive:original.meta.media.0.codec.rotate">0</property>
  <property name="kdenlive:original.meta.media.0.codec.pix_fmt">yuv420p</property>
  <property name="kdenlive:original.meta.media.0.codec.sample_aspect_ratio">0</property>
  <property name="kdenlive:original.meta.media.0.codec.colorspace">709</property>
  <property name="kdenlive:original.meta.media.0.codec.name">h264</property>
  <property name="kdenlive:original.meta.media.0.codec.long_name">H.264 / AVC / MPEG-4 AVC / MPEG-4 part 10</property>
  <property name="kdenlive:original.meta.media.0.codec.bit_rate">1241368</property>
  <property name="kdenlive:original.meta.attr.0.stream.handler_name.markup">VideoHandler</property>
  <property name="kdenlive:original.meta.attr.0.stream.vendor_id.markup">[0][0][0][0]</property>
  <property name="kdenlive:original.meta.attr.0.stream.encoder.markup">Lavc60.3.100 libx264</property>
  <property name="kdenlive:original.meta.attr.major_brand.markup">isom</property>
  <property name="kdenlive:original.meta.attr.minor_version.markup">512</property>
  <property name="kdenlive:original.meta.attr.compatible_brands.markup">isomiso2avc1mp41</property>
  <property name="kdenlive:original.meta.attr.encoder.markup">Lavf60.3.100</property>
  <property name="kdenlive:original.meta.attr.comment.markup">Rendered with Manim Community v0.17.2</property>
  <property name="kdenlive:original.seekable">1</property>
  <property name="kdenlive:original.width">3840</property>
  <property name="kdenlive:original.height">2160</property>
  <property name="kdenlive:original.meta.media.sample_aspect_num">1</property>
  <property name="kdenlive:original.meta.media.sample_aspect_den">1</property>
  <property name="kdenlive:original.aspect_ratio">1</property>
  <property name="kdenlive:original.format">3</property>
  <property name="kdenlive:original.audio_index">-1</property>
  <property name="kdenlive:original.video_index">0</property>
  <property name="kdenlive:original.mute_on_pause">0</property>
  <property name="kdenlive:original.mlt_service">avformat-novalidate</property>
  <property name="kdenlive:original.meta.media.frame_rate_num">60</property>
  <property name="kdenlive:original.meta.media.frame_rate_den">1</property>
  <property name="kdenlive:original.meta.media.colorspace">709</property>
  <property name="kdenlive:original.meta.media.color_trc">2</property>
  <property name="kdenlive:original.meta.media.has_b_frames">2</property>
  <property name="kdenlive:original.meta.media.width">3840</property>
  <property name="kdenlive:original.meta.media.height">2160</property>
  <property name="kdenlive:original.meta.media.color_range">mpeg</property>
  <property name="kdenlive:original.meta.media.top_field_first">0</property>
  <property name="kdenlive:original.meta.media.progressive">1</property>
  <property name="kdenlive:original.kdenlive:clip_type">2</property>
  <property name="kdenlive:original.kdenlive:folderid">344</property>
  <property name="kdenlive:original.kdenlive:id">376</property>
  <property name="kdenlive:original.kdenlive:file_size">156754</property>
  <property name="kdenlive:original.kdenlive:file_hash">54f5efc31a62a5d0b20792fbbe3e84be</property>
  <property name="kdenlive:original.backup">1</property>
  <property name="xml">was here</property>
  <property name="meta.media.frame_rate_num">60</property>
  <property name="meta.media.frame_rate_den">1</property>
  <property name="meta.media.colorspace">601</property>
  <property name="meta.media.color_trc">2</property>
  <property name="meta.media.has_b_frames">0</property>
  <property name="meta.media.width">640</property>
  <property name="meta.media.height">360</property>
  <property name="meta.media.color_range">full</property>
  <property name="meta.media.top_field_first">0</property>
  <property name="meta.media.progressive">1</property>
  <property name="set.test_audio">1</property>
  <property name="set.test_image">0</property>
 </producer>
 <producer id="producer574" in="00:00:00.000" out="00:00:00.983">
  <property name="length">60</property>
  <property name="eof">pause</property>
  <property name="resource">/home/xiaoxiae/.cache/kdenlive/proxy/c42717ac55f9ed3370e2f77bb6736d30.mkv</property>
  <property name="audio_index">-1</property>
  <property name="video_index">0</property>
  <property name="mute_on_pause">0</property>
  <property name="mlt_service">avformat-novalidate</property>
  <property name="meta.media.nb_streams">1</property>
  <property name="meta.media.0.stream.type">video</property>
  <property name="meta.media.0.stream.frame_rate">60</property>
  <property name="meta.media.0.stream.sample_aspect_ratio">0</property>
  <property name="meta.media.0.codec.width">640</property>
  <property name="meta.media.0.codec.height">360</property>
  <property name="meta.media.0.codec.rotate">0</property>
  <property name="meta.media.0.codec.pix_fmt">yuvj420p</property>
  <property name="meta.media.0.codec.sample_aspect_ratio">0</property>
  <property name="meta.media.0.codec.colorspace">601</property>
  <property name="meta.media.0.codec.name">mjpeg</property>
  <property name="meta.media.0.codec.long_name">MJPEG (Motion JPEG)</property>
  <property name="meta.media.0.codec.bit_rate">0</property>
  <property name="meta.attr.0.stream.HANDLER_NAME.markup">VideoHandler</property>
  <property name="meta.attr.0.stream.VENDOR_ID.markup">[0][0][0][0]</property>
  <property name="meta.attr.0.stream.ENCODER.markup">Lavc60.3.100 mjpeg</property>
  <property name="meta.attr.0.stream.DURATION.markup">00:00:01.000000000</property>
  <property name="meta.attr.COMMENT.markup">Rendered with Manim Community v0.17.2</property>
  <property name="meta.attr.MAJOR_BRAND.markup">isom</property>
  <property name="meta.attr.MINOR_VERSION.markup">512</property>
  <property name="meta.attr.COMPATIBLE_BRANDS.markup">isomiso2avc1mp41</property>
  <property name="meta.attr.ENCODER.markup">Lavf60.3.100</property>
  <property name="seekable">1</property>
  <property name="meta.media.sample_aspect_num">1</property>
  <property name="meta.media.sample_aspect_den">1</property>
  <property name="aspect_ratio">1</property>
  <property name="format">3</property>
  <property name="kdenlive:clipname">8.mp4</property>
  <property name="kdenlive:clip_type">2</property>
  <property name="kdenlive:folderid">344</property>
  <property name="kdenlive:id">375</property>
  <property name="kdenlive:file_size">101567</property>
  <property name="kdenlive:file_hash">c42717ac55f9ed3370e2f77bb6736d30</property>
  <property name="kdenlive:proxy">/home/xiaoxiae/.cache/kdenlive/proxy/c42717ac55f9ed3370e2f77bb6736d30.mkv</property>
  <property name="kdenlive:originalurl">video/Basics/8.mp4</property>
  <property name="kdenlive:original.mlt_type">producer</property>
  <property name="kdenlive:original.in">00:00:00.000</property>
  <property name="kdenlive:original.out">00:00:00.983</property>
  <property name="kdenlive:original.length">60</property>
  <property name="kdenlive:original.eof">pause</property>
  <property name="kdenlive:original.resource">video/Basics/8.mp4</property>
  <property name="kdenlive:original.meta.media.nb_streams">1</property>
  <property name="kdenlive:original.meta.media.0.stream.type">video</property>
  <property name="kdenlive:original.meta.media.0.stream.frame_rate">60</property>
  <property name="kdenlive:original.meta.media.0.stream.sample_aspect_ratio">0</property>
  <property name="kdenlive:original.meta.media.0.codec.width">3840</property>
  <property name="kdenlive:original.meta.media.0.codec.height">2160</property>
  <property name="kdenlive:original.meta.media.0.codec.rotate">0</property>
  <property name="kdenlive:original.meta.media.0.codec.pix_fmt">yuv420p</property>
  <property name="kdenlive:original.meta.media.0.codec.sample_aspect_ratio">0</property>
  <property name="kdenlive:original.meta.media.0.codec.colorspace">709</property>
  <property name="kdenlive:original.meta.media.0.codec.name">h264</property>
  <property name="kdenlive:original.meta.media.0.codec.long_name">H.264 / AVC / MPEG-4 AVC / MPEG-4 part 10</property>
  <property name="kdenlive:original.meta.media.0.codec.bit_rate">799488</property>
  <property name="kdenlive:original.meta.attr.0.stream.handler_name.markup">VideoHandler</property>
  <property name="kdenlive:original.meta.attr.0.stream.vendor_id.markup">[0][0][0][0]</property>
  <property name="kdenlive:original.meta.attr.0.stream.encoder.markup">Lavc60.3.100 libx264</property>
  <property name="kdenlive:original.meta.attr.major_brand.markup">isom</property>
  <property name="kdenlive:original.meta.attr.minor_version.markup">512</property>
  <property name="kdenlive:original.meta.attr.compatible_brands.markup">isomiso2avc1mp41</property>
  <property name="kdenlive:original.meta.attr.encoder.markup">Lavf60.3.100</property>
  <property name="kdenlive:original.meta.attr.comment.markup">Rendered with Manim Community v0.17.2</property>
  <property name="kdenlive:original.seekable">1</property>
  <property name="kdenlive:original.width">3840</property>
  <property name="kdenlive:original.height">2160</property>
  <property name="kdenlive:original.meta.media.sample_aspect_num">1</property>
  <property name="kdenlive:original.meta.media.sample_aspect_den">1</property>
  <property name="kdenlive:original.aspect_ratio">1</property>
  <property name="kdenlive:original.format">3</property>
  <property name="kdenlive:original.audio_index">-1</property>
  <property name="kdenlive:original.video_index">0</property>
  <property name="kdenlive:original.mute_on_pause">0</property>
  <property name="kdenlive:original.mlt_service">avformat-novalidate</property>
  <property name="kdenlive:original.meta.media.frame_rate_num">60</property>
  <property name="kdenlive:original.meta.media.frame_rate_den">1</property>
  <property name="kdenlive:original.meta.media.colorspace">709</property>
  <property name="kdenlive:original.meta.media.color_trc">2</property>
  <property name="kdenlive:original.meta.media.has_b_frames">2</property>
  <property name="kdenlive:original.meta.media.width">3840</property>
  <property name="kdenlive:original.meta.media.height">2160</property>
  <property name="kdenlive:original.meta.media.color_range">mpeg</property>
  <property name="kdenlive:original.meta.media.top_field_first">0</property>
  <property name="kdenlive:original.meta.media.progressive">1</property>
  <property name="kdenlive:original.kdenlive:clip_type">2</property>
  <property name="kdenlive:original.kdenlive:folderid">344</property>
  <property name="kdenlive:original.kdenlive:id">377</property>
  <property name="kdenlive:original.kdenlive:file_size">101567</property>
  <property name="kdenlive:original.kdenlive:file_hash">c42717ac55f9ed3370e2f77bb6736d30</property>
  <property name="kdenlive:original.backup">1</property>
  <property name="xml">was here</property>
  <property name="meta.media.frame_rate_num">60</property>
  <property name="meta.media.frame_rate_den">1</property>
  <property name="meta.media.colorspace">601</property>
  <property name="meta.media.color_trc">2</property>
  <property name="meta.media.has_b_frames">0</property>
  <property name="meta.media.width">640</property>
  <property name="meta.media.height">360</property>
  <property name="meta.media.color_range">full</property>
  <property name="meta.media.top_field_first">0</property>
  <property name="meta.media.progressive">1</property>
  <property name="set.test_audio">1</property>
  <property name="set.test_image">0</property>
 </producer>
 <producer id="producer575" in="00:00:00.000" out="00:00:00.983">
  <property name="length">60</property>
  <property name="eof">pause</property>
  <property name="resource">/home/xiaoxiae/.cache/kdenlive/proxy/fbfb1bcf34ea9a8b145afa03e351ac03.mkv</property>
  <property name="audio_index">-1</property>
  <property name="video_index">0</property>
  <property name="mute_on_pause">0</property>
  <property name="mlt_service">avformat-novalidate</property>
  <property name="meta.media.nb_streams">1</property>
  <property name="meta.media.0.stream.type">video</property>
  <property name="meta.media.0.stream.frame_rate">60</property>
  <property name="meta.media.0.stream.sample_aspect_ratio">0</property>
  <property name="meta.media.0.codec.width">640</property>
  <property name="meta.media.0.codec.height">360</property>
  <property name="meta.media.0.codec.rotate">0</property>
  <property name="meta.media.0.codec.pix_fmt">yuvj420p</property>
  <property name="meta.media.0.codec.sample_aspect_ratio">0</property>
  <property name="meta.media.0.codec.colorspace">601</property>
  <property name="meta.media.0.codec.name">mjpeg</property>
  <property name="meta.media.0.codec.long_name">MJPEG (Motion JPEG)</property>
  <property name="meta.media.0.codec.bit_rate">0</property>
  <property name="meta.attr.0.stream.HANDLER_NAME.markup">VideoHandler</property>
  <property name="meta.attr.0.stream.VENDOR_ID.markup">[0][0][0][0]</property>
  <property name="meta.attr.0.stream.ENCODER.markup">Lavc60.3.100 mjpeg</property>
  <property name="meta.attr.0.stream.DURATION.markup">00:00:01.000000000</property>
  <property name="meta.attr.COMMENT.markup">Rendered with Manim Community v0.17.2</property>
  <property name="meta.attr.MAJOR_BRAND.markup">isom</property>
  <property name="meta.attr.MINOR_VERSION.markup">512</property>
  <property name="meta.attr.COMPATIBLE_BRANDS.markup">isomiso2avc1mp41</property>
  <property name="meta.attr.ENCODER.markup">Lavf60.3.100</property>
  <property name="seekable">1</property>
  <property name="meta.media.sample_aspect_num">1</property>
  <property name="meta.media.sample_aspect_den">1</property>
  <property name="aspect_ratio">1</property>
  <property name="format">3</property>
  <property name="kdenlive:clipname">9.mp4</property>
  <property name="kdenlive:clip_type">2</property>
  <property name="kdenlive:folderid">344</property>
  <property name="kdenlive:id">376</property>
  <property name="kdenlive:file_size">75479</property>
  <property name="kdenlive:file_hash">fbfb1bcf34ea9a8b145afa03e351ac03</property>
  <property name="kdenlive:proxy">/home/xiaoxiae/.cache/kdenlive/proxy/fbfb1bcf34ea9a8b145afa03e351ac03.mkv</property>
  <property name="kdenlive:originalurl">video/Basics/9.mp4</property>
  <property name="kdenlive:original.mlt_type">producer</property>
  <property name="kdenlive:original.in">00:00:00.000</property>
  <property name="kdenlive:original.out">00:00:00.983</property>
  <property name="kdenlive:original.length">60</property>
  <property name="kdenlive:original.eof">pause</property>
  <property name="kdenlive:original.resource">video/Basics/9.mp4</property>
  <property name="kdenlive:original.meta.media.nb_streams">1</property>
  <property name="kdenlive:original.meta.media.0.stream.type">video</property>
  <property name="kdenlive:original.meta.media.0.stream.frame_rate">60</property>
  <property name="kdenlive:original.meta.media.0.stream.sample_aspect_ratio">0</property>
  <property name="kdenlive:original.meta.media.0.codec.width">3840</property>
  <property name="kdenlive:original.meta.media.0.codec.height">2160</property>
  <property name="kdenlive:original.meta.media.0.codec.rotate">0</property>
  <property name="kdenlive:original.meta.media.0.codec.pix_fmt">yuv420p</property>
  <property name="kdenlive:original.meta.media.0.codec.sample_aspect_ratio">0</property>
  <property name="kdenlive:original.meta.media.0.codec.colorspace">709</property>
  <property name="kdenlive:original.meta.media.0.codec.name">h264</property>
  <property name="kdenlive:original.meta.media.0.codec.long_name">H.264 / AVC / MPEG-4 AVC / MPEG-4 part 10</property>
  <property name="kdenlive:original.meta.media.0.codec.bit_rate">590784</property>
  <property name="kdenlive:original.meta.attr.0.stream.handler_name.markup">VideoHandler</property>
  <property name="kdenlive:original.meta.attr.0.stream.vendor_id.markup">[0][0][0][0]</property>
  <property name="kdenlive:original.meta.attr.0.stream.encoder.markup">Lavc60.3.100 libx264</property>
  <property name="kdenlive:original.meta.attr.major_brand.markup">isom</property>
  <property name="kdenlive:original.meta.attr.minor_version.markup">512</property>
  <property name="kdenlive:original.meta.attr.compatible_brands.markup">isomiso2avc1mp41</property>
  <property name="kdenlive:original.meta.attr.encoder.markup">Lavf60.3.100</property>
  <property name="kdenlive:original.meta.attr.comment.markup">Rendered with Manim Community v0.17.2</property>
  <property name="kdenlive:original.seekable">1</property>
  <property name="kdenlive:original.width">3840</property>
  <property name="kdenlive:original.height">2160</property>
  <property name="kdenlive:original.meta.media.sample_aspect_num">1</property>
  <property name="kdenlive:original.meta.media.sample_aspect_den">1</property>
  <property name="kdenlive:original.aspect_ratio">1</property>
  <property name="kdenlive:original.format">3</property>
  <property name="kdenlive:original.audio_index">-1</property>
  <property name="kdenlive:original.video_index">0</property>
  <property name="kdenlive:original.mute_on_pause">0</property>
  <property name="kdenlive:original.mlt_service">avformat-novalidate</property>
  <property name="kdenlive:original.meta.media.frame_rate_num">60</property>
  <property name="kdenlive:original.meta.media.frame_rate_den">1</property>
  <property name="kdenlive:original.meta.media.colorspace">709</property>
  <property name="kdenlive:original.meta.media.color_trc">2</property>
  <property name="kdenlive:original.meta.media.has_b_frames">2</property>
  <property name="kdenlive:original.meta.media.width">3840</property>
  <property name="kdenlive:original.meta.media.height">2160</property>
  <property name="kdenlive:original.meta.media.color_range">mpeg</property>
  <property name="kdenlive:original.meta.media.top_field_first">0</property>
  <property name="kdenlive:original.meta.media.progressive">1</property>
  <property name="kdenlive:original.kdenlive:clip_type">2</property>
  <property name="kdenlive:original.kdenlive:folderid">344</property>
  <property name="kdenlive:original.kdenlive:id">378</property>
  <property name="kdenlive:original.kdenlive:file_size">75479</property>
  <property name="kdenlive:original.kdenlive:file_hash">fbfb1bcf34ea9a8b145afa03e351ac03</property>
  <property name="kdenlive:original.backup">1</property>
  <property name="xml">was here</property>
  <property name="meta.media.frame_rate_num">60</property>
  <property name="meta.media.frame_rate_den">1</property>
  <property name="meta.media.colorspace">601</property>
  <property name="meta.media.color_trc">2</property>
  <property name="meta.media.has_b_frames">0</property>
  <property name="meta.media.width">640</property>
  <property name="meta.media.height">360</property>
  <property name="meta.media.color_range">full</property>
  <property name="meta.media.top_field_first">0</property>
  <property name="meta.media.progressive">1</property>
  <property name="set.test_audio">1</property>
  <property name="set.test_image">0</property>
 </producer>
 <producer id="producer576" in="00:00:00.000" out="00:00:00.983">
  <property name="length">60</property>
  <property name="eof">pause</property>
  <property name="resource">/home/xiaoxiae/.cache/kdenlive/proxy/dc7cad03560eb77537069f4963e288aa.mkv</property>
  <property name="audio_index">-1</property>
  <property name="video_index">0</property>
  <property name="mute_on_pause">0</property>
  <property name="mlt_service">avformat-novalidate</property>
  <property name="meta.media.nb_streams">1</property>
  <property name="meta.media.0.stream.type">video</property>
  <property name="meta.media.0.stream.frame_rate">60</property>
  <property name="meta.media.0.stream.sample_aspect_ratio">0</property>
  <property name="meta.media.0.codec.width">640</property>
  <property name="meta.media.0.codec.height">360</property>
  <property name="meta.media.0.codec.rotate">0</property>
  <property name="meta.media.0.codec.pix_fmt">yuvj420p</property>
  <property name="meta.media.0.codec.sample_aspect_ratio">0</property>
  <property name="meta.media.0.codec.colorspace">601</property>
  <property name="meta.media.0.codec.name">mjpeg</property>
  <property name="meta.media.0.codec.long_name">MJPEG (Motion JPEG)</property>
  <property name="meta.media.0.codec.bit_rate">0</property>
  <property name="meta.attr.0.stream.HANDLER_NAME.markup">VideoHandler</property>
  <property name="meta.attr.0.stream.VENDOR_ID.markup">[0][0][0][0]</property>
  <property name="meta.attr.0.stream.ENCODER.markup">Lavc60.3.100 mjpeg</property>
  <property name="meta.attr.0.stream.DURATION.markup">00:00:01.000000000</property>
  <property name="meta.attr.COMMENT.markup">Rendered with Manim Community v0.17.2</property>
  <property name="meta.attr.MAJOR_BRAND.markup">isom</property>
  <property name="meta.attr.MINOR_VERSION.markup">512</property>
  <property name="meta.attr.COMPATIBLE_BRANDS.markup">isomiso2avc1mp41</property>
  <property name="meta.attr.ENCODER.markup">Lavf60.3.100</property>
  <property name="seekable">1</property>
  <property name="meta.media.sample_aspect_num">1</property>
  <property name="meta.media.sample_aspect_den">1</property>
  <property name="aspect_ratio">1</property>
  <property name="format">3</property>
  <property name="kdenlive:clipname">10.mp4</property>
  <property name="kdenlive:clip_type">2</property>
  <property name="kdenlive:folderid">344</property>
  <property name="kdenlive:id">343</property>
  <property name="kdenlive:file_size">71103</property>
  <property name="kdenlive:file_hash">dc7cad03560eb77537069f4963e288aa</property>
  <property name="kdenlive:proxy">/home/xiaoxiae/.cache/kdenlive/proxy/dc7cad03560eb77537069f4963e288aa.mkv</property>
  <property name="kdenlive:originalurl">video/Basics/10.mp4</property>
  <property name="kdenlive:original.mlt_type">producer</property>
  <property name="kdenlive:original.in">00:00:00.000</property>
  <property name="kdenlive:original.out">00:00:00.983</property>
  <property name="kdenlive:original.length">60</property>
  <property name="kdenlive:original.eof">pause</property>
  <property name="kdenlive:original.resource">video/Basics/10.mp4</property>
  <property name="kdenlive:original.meta.media.nb_streams">1</property>
  <property name="kdenlive:original.meta.media.0.stream.type">video</property>
  <property name="kdenlive:original.meta.media.0.stream.frame_rate">60</property>
  <property name="kdenlive:original.meta.media.0.stream.sample_aspect_ratio">0</property>
  <property name="kdenlive:original.meta.media.0.codec.width">3840</property>
  <property name="kdenlive:original.meta.media.0.codec.height">2160</property>
  <property name="kdenlive:original.meta.media.0.codec.rotate">0</property>
  <property name="kdenlive:original.meta.media.0.codec.pix_fmt">yuv420p</property>
  <property name="kdenlive:original.meta.media.0.codec.sample_aspect_ratio">0</property>
  <property name="kdenlive:original.meta.media.0.codec.colorspace">709</property>
  <property name="kdenlive:original.meta.media.0.codec.name">h264</property>
  <property name="kdenlive:original.meta.media.0.codec.long_name">H.264 / AVC / MPEG-4 AVC / MPEG-4 part 10</property>
  <property name="kdenlive:original.meta.media.0.codec.bit_rate">555776</property>
  <property name="kdenlive:original.meta.attr.0.stream.handler_name.markup">VideoHandler</property>
  <property name="kdenlive:original.meta.attr.0.stream.vendor_id.markup">[0][0][0][0]</property>
  <property name="kdenlive:original.meta.attr.0.stream.encoder.markup">Lavc60.3.100 libx264</property>
  <property name="kdenlive:original.meta.attr.major_brand.markup">isom</property>
  <property name="kdenlive:original.meta.attr.minor_version.markup">512</property>
  <property name="kdenlive:original.meta.attr.compatible_brands.markup">isomiso2avc1mp41</property>
  <property name="kdenlive:original.meta.attr.encoder.markup">Lavf60.3.100</property>
  <property name="kdenlive:original.meta.attr.comment.markup">Rendered with Manim Community v0.17.2</property>
  <property name="kdenlive:original.seekable">1</property>
  <property name="kdenlive:original.width">3840</property>
  <property name="kdenlive:original.height">2160</property>
  <property name="kdenlive:original.meta.media.sample_aspect_num">1</property>
  <property name="kdenlive:original.meta.media.sample_aspect_den">1</property>
  <property name="kdenlive:original.aspect_ratio">1</property>
  <property name="kdenlive:original.format">3</property>
  <property name="kdenlive:original.audio_index">-1</property>
  <property name="kdenlive:original.video_index">0</property>
  <property name="kdenlive:original.mute_on_pause">0</property>
  <property name="kdenlive:original.mlt_service">avformat-novalidate</property>
  <property name="kdenlive:original.meta.media.frame_rate_num">60</property>
  <property name="kdenlive:original.meta.media.frame_rate_den">1</property>
  <property name="kdenlive:original.meta.media.colorspace">709</property>
  <property name="kdenlive:original.meta.media.color_trc">2</property>
  <property name="kdenlive:original.meta.media.has_b_frames">2</property>
  <property name="kdenlive:original.meta.media.width">3840</property>
  <property name="kdenlive:original.meta.media.height">2160</property>
  <property name="kdenlive:original.meta.media.color_range">mpeg</property>
  <property name="kdenlive:original.meta.media.top_field_first">0</property>
  <property name="kdenlive:original.meta.media.progressive">1</property>
  <property name="kdenlive:original.kdenlive:clip_type">2</property>
  <property name="kdenlive:original.kdenlive:folderid">344</property>
  <property name="kdenlive:original.kdenlive:id">346</property>
  <property name="kdenlive:original.kdenlive:file_size">71103</property>
  <property name="kdenlive:original.kdenlive:file_hash">dc7cad03560eb77537069f4963e288aa</property>
  <property name="kdenlive:original.backup">1</property>
  <property name="xml">was here</property>
  <property name="meta.media.frame_rate_num">60</property>
  <property name="meta.media.frame_rate_den">1</property>
  <property name="meta.media.colorspace">601</property>
  <property name="meta.media.color_trc">2</property>
  <property name="meta.media.has_b_frames">0</property>
  <property name="meta.media.width">640</property>
  <property name="meta.media.height">360</property>
  <property name="meta.media.color_range">full</property>
  <property name="meta.media.top_field_first">0</property>
  <property name="meta.media.progressive">1</property>
  <property name="set.test_audio">1</property>
  <property name="set.test_image">0</property>
 </producer>
 <producer id="producer577" in="00:00:00.000" out="00:00:00.983">
  <property name="length">60</property>
  <property name="eof">pause</property>
  <property name="resource">/home/xiaoxiae/.cache/kdenlive/proxy/0a86e4df414f12e460cfcd35222f7add.mkv</property>
  <property name="audio_index">-1</property>
  <property name="video_index">0</property>
  <property name="mute_on_pause">0</property>
  <property name="mlt_service">avformat-novalidate</property>
  <property name="meta.media.nb_streams">1</property>
  <property name="meta.media.0.stream.type">video</property>
  <property name="meta.media.0.stream.frame_rate">60</property>
  <property name="meta.media.0.stream.sample_aspect_ratio">0</property>
  <property name="meta.media.0.codec.width">640</property>
  <property name="meta.media.0.codec.height">360</property>
  <property name="meta.media.0.codec.rotate">0</property>
  <property name="meta.media.0.codec.pix_fmt">yuvj420p</property>
  <property name="meta.media.0.codec.sample_aspect_ratio">0</property>
  <property name="meta.media.0.codec.colorspace">601</property>
  <property name="meta.media.0.codec.name">mjpeg</property>
  <property name="meta.media.0.codec.long_name">MJPEG (Motion JPEG)</property>
  <property name="meta.media.0.codec.bit_rate">0</property>
  <property name="meta.attr.0.stream.HANDLER_NAME.markup">VideoHandler</property>
  <property name="meta.attr.0.stream.VENDOR_ID.markup">[0][0][0][0]</property>
  <property name="meta.attr.0.stream.ENCODER.markup">Lavc60.3.100 mjpeg</property>
  <property name="meta.attr.0.stream.DURATION.markup">00:00:01.000000000</property>
  <property name="meta.attr.COMMENT.markup">Rendered with Manim Community v0.17.2</property>
  <property name="meta.attr.MAJOR_BRAND.markup">isom</property>
  <property name="meta.attr.MINOR_VERSION.markup">512</property>
  <property name="meta.attr.COMPATIBLE_BRANDS.markup">isomiso2avc1mp41</property>
  <property name="meta.attr.ENCODER.markup">Lavf60.3.100</property>
  <property name="seekable">1</property>
  <property name="meta.media.sample_aspect_num">1</property>
  <property name="meta.media.sample_aspect_den">1</property>
  <property name="aspect_ratio">1</property>
  <property name="format">3</property>
  <property name="kdenlive:clipname">11.mp4</property>
  <property name="kdenlive:clip_type">2</property>
  <property name="kdenlive:folderid">344</property>
  <property name="kdenlive:id">345</property>
  <property name="kdenlive:file_size">150362</property>
  <property name="kdenlive:file_hash">0a86e4df414f12e460cfcd35222f7add</property>
  <property name="kdenlive:proxy">/home/xiaoxiae/.cache/kdenlive/proxy/0a86e4df414f12e460cfcd35222f7add.mkv</property>
  <property name="kdenlive:originalurl">video/Basics/11.mp4</property>
  <property name="kdenlive:original.mlt_type">producer</property>
  <property name="kdenlive:original.in">00:00:00.000</property>
  <property name="kdenlive:original.out">00:00:00.983</property>
  <property name="kdenlive:original.length">60</property>
  <property name="kdenlive:original.eof">pause</property>
  <property name="kdenlive:original.resource">video/Basics/11.mp4</property>
  <property name="kdenlive:original.meta.media.nb_streams">1</property>
  <property name="kdenlive:original.meta.media.0.stream.type">video</property>
  <property name="kdenlive:original.meta.media.0.stream.frame_rate">60</property>
  <property name="kdenlive:original.meta.media.0.stream.sample_aspect_ratio">0</property>
  <property name="kdenlive:original.meta.media.0.codec.width">3840</property>
  <property name="kdenlive:original.meta.media.0.codec.height">2160</property>
  <property name="kdenlive:original.meta.media.0.codec.rotate">0</property>
  <property name="kdenlive:original.meta.media.0.codec.pix_fmt">yuv420p</property>
  <property name="kdenlive:original.meta.media.0.codec.sample_aspect_ratio">0</property>
  <property name="kdenlive:original.meta.media.0.codec.colorspace">709</property>
  <property name="kdenlive:original.meta.media.0.codec.name">h264</property>
  <property name="kdenlive:original.meta.media.0.codec.long_name">H.264 / AVC / MPEG-4 AVC / MPEG-4 part 10</property>
  <property name="kdenlive:original.meta.media.0.codec.bit_rate">1189848</property>
  <property name="kdenlive:original.meta.attr.0.stream.handler_name.markup">VideoHandler</property>
  <property name="kdenlive:original.meta.attr.0.stream.vendor_id.markup">[0][0][0][0]</property>
  <property name="kdenlive:original.meta.attr.0.stream.encoder.markup">Lavc60.3.100 libx264</property>
  <property name="kdenlive:original.meta.attr.major_brand.markup">isom</property>
  <property name="kdenlive:original.meta.attr.minor_version.markup">512</property>
  <property name="kdenlive:original.meta.attr.compatible_brands.markup">isomiso2avc1mp41</property>
  <property name="kdenlive:original.meta.attr.encoder.markup">Lavf60.3.100</property>
  <property name="kdenlive:original.meta.attr.comment.markup">Rendered with Manim Community v0.17.2</property>
  <property name="kdenlive:original.seekable">1</property>
  <property name="kdenlive:original.width">3840</property>
  <property name="kdenlive:original.height">2160</property>
  <property name="kdenlive:original.meta.media.sample_aspect_num">1</property>
  <property name="kdenlive:original.meta.media.sample_aspect_den">1</property>
  <property name="kdenlive:original.aspect_ratio">1</property>
  <property name="kdenlive:original.format">3</property>
  <property name="kdenlive:original.audio_index">-1</property>
  <property name="kdenlive:original.video_index">0</property>
  <property name="kdenlive:original.mute_on_pause">0</property>
  <property name="kdenlive:original.mlt_service">avformat-novalidate</property>
  <property name="kdenlive:original.meta.media.frame_rate_num">60</property>
  <property name="kdenlive:original.meta.media.frame_rate_den">1</property>
  <property name="kdenlive:original.meta.media.colorspace">709</property>
  <property name="kdenlive:original.meta.media.color_trc">2</property>
  <property name="kdenlive:original.meta.media.has_b_frames">2</property>
  <property name="kdenlive:original.meta.media.width">3840</property>
  <property name="kdenlive:original.meta.media.height">2160</property>
  <property name="kdenlive:original.meta.media.color_range">mpeg</property>
  <property name="kdenlive:original.meta.media.top_field_first">0</property>
  <property name="kdenlive:original.meta.media.progressive">1</property>
  <property name="kdenlive:original.kdenlive:clip_type">2</property>
  <property name="kdenlive:original.kdenlive:folderid">344</property>
  <property name="kdenlive:original.kdenlive:id">347</property>
  <property name="kdenlive:original.kdenlive:file_size">150362</property>
  <property name="kdenlive:original.kdenlive:file_hash">0a86e4df414f12e460cfcd35222f7add</property>
  <property name="kdenlive:original.backup">1</property>
  <property name="xml">was here</property>
  <property name="meta.media.frame_rate_num">60</property>
  <property name="meta.media.frame_rate_den">1</property>
  <property name="meta.media.colorspace">601</property>
  <property name="meta.media.color_trc">2</property>
  <property name="meta.media.has_b_frames">0</property>
  <property name="meta.media.width">640</property>
  <property name="meta.media.height">360</property>
  <property name="meta.media.color_range">full</property>
  <property name="meta.media.top_field_first">0</property>
  <property name="meta.media.progressive">1</property>
  <property name="set.test_audio">1</property>
  <property name="set.test_image">0</property>
 </producer>
 <producer id="producer578" in="00:00:00.000" out="00:00:00.983">
  <property name="length">60</property>
  <property name="eof">pause</property>
  <property name="resource">/home/xiaoxiae/.cache/kdenlive/proxy/df22b6ed6b80d76958c0d796432a547b.mkv</property>
  <property name="audio_index">-1</property>
  <property name="video_index">0</property>
  <property name="mute_on_pause">0</property>
  <property name="mlt_service">avformat-novalidate</property>
  <property name="meta.media.nb_streams">1</property>
  <property name="meta.media.0.stream.type">video</property>
  <property name="meta.media.0.stream.frame_rate">60</property>
  <property name="meta.media.0.stream.sample_aspect_ratio">0</property>
  <property name="meta.media.0.codec.width">640</property>
  <property name="meta.media.0.codec.height">360</property>
  <property name="meta.media.0.codec.rotate">0</property>
  <property name="meta.media.0.codec.pix_fmt">yuvj420p</property>
  <property name="meta.media.0.codec.sample_aspect_ratio">0</property>
  <property name="meta.media.0.codec.colorspace">601</property>
  <property name="meta.media.0.codec.name">mjpeg</property>
  <property name="meta.media.0.codec.long_name">MJPEG (Motion JPEG)</property>
  <property name="meta.media.0.codec.bit_rate">0</property>
  <property name="meta.attr.0.stream.HANDLER_NAME.markup">VideoHandler</property>
  <property name="meta.attr.0.stream.VENDOR_ID.markup">[0][0][0][0]</property>
  <property name="meta.attr.0.stream.ENCODER.markup">Lavc60.3.100 mjpeg</property>
  <property name="meta.attr.0.stream.DURATION.markup">00:00:01.000000000</property>
  <property name="meta.attr.COMMENT.markup">Rendered with Manim Community v0.17.2</property>
  <property name="meta.attr.MAJOR_BRAND.markup">isom</property>
  <property name="meta.attr.MINOR_VERSION.markup">512</property>
  <property name="meta.attr.COMPATIBLE_BRANDS.markup">isomiso2avc1mp41</property>
  <property name="meta.attr.ENCODER.markup">Lavf60.3.100</property>
  <property name="seekable">1</property>
  <property name="meta.media.sample_aspect_num">1</property>
  <property name="meta.media.sample_aspect_den">1</property>
  <property name="aspect_ratio">1</property>
  <property name="format">3</property>
  <property name="kdenlive:clipname">12.mp4</property>
  <property name="kdenlive:clip_type">2</property>
  <property name="kdenlive:folderid">344</property>
  <property name="kdenlive:id">346</property>
  <property name="kdenlive:file_size">129557</property>
  <property name="kdenlive:file_hash">df22b6ed6b80d76958c0d796432a547b</property>
  <property name="kdenlive:proxy">/home/xiaoxiae/.cache/kdenlive/proxy/df22b6ed6b80d76958c0d796432a547b.mkv</property>
  <property name="kdenlive:originalurl">video/Basics/12.mp4</property>
  <property name="kdenlive:original.mlt_type">producer</property>
  <property name="kdenlive:original.in">00:00:00.000</property>
  <property name="kdenlive:original.out">00:00:00.983</property>
  <property name="kdenlive:original.length">60</property>
  <property name="kdenlive:original.eof">pause</property>
  <property name="kdenlive:original.resource">video/Basics/12.mp4</property>
  <property name="kdenlive:original.meta.media.nb_streams">1</property>
  <property name="kdenlive:original.meta.media.0.stream.type">video</property>
  <property name="kdenlive:original.meta.media.0.stream.frame_rate">60</property>
  <property name="kdenlive:original.meta.media.0.stream.sample_aspect_ratio">0</property>
  <property name="kdenlive:original.meta.media.0.codec.width">3840</property>
  <property name="kdenlive:original.meta.media.0.codec.height">2160</property>
  <property name="kdenlive:original.meta.media.0.codec.rotate">0</property>
  <property name="kdenlive:original.meta.media.0.codec.pix_fmt">yuv420p</property>
  <property name="kdenlive:original.meta.media.0.codec.sample_aspect_ratio">0</property>
  <property name="kdenlive:original.meta.media.0.codec.colorspace">709</property>
  <property name="kdenlive:original.meta.media.0.codec.name">h264</property>
  <property name="kdenlive:original.meta.media.0.codec.long_name">H.264 / AVC / MPEG-4 AVC / MPEG-4 part 10</property>
  <property name="kdenlive:original.meta.media.0.codec.bit_rate">1023920</property>
  <property name="kdenlive:original.meta.attr.0.stream.handler_name.markup">VideoHandler</property>
  <property name="kdenlive:original.meta.attr.0.stream.vendor_id.markup">[0][0][0][0]</property>
  <property name="kdenlive:original.meta.attr.0.stream.encoder.markup">Lavc60.3.100 libx264</property>
  <property name="kdenlive:original.meta.attr.major_brand.markup">isom</property>
  <property name="kdenlive:original.meta.attr.minor_version.markup">512</property>
  <property name="kdenlive:original.meta.attr.compatible_brands.markup">isomiso2avc1mp41</property>
  <property name="kdenlive:original.meta.attr.encoder.markup">Lavf60.3.100</property>
  <property name="kdenlive:original.meta.attr.comment.markup">Rendered with Manim Community v0.17.2</property>
  <property name="kdenlive:original.seekable">1</property>
  <property name="kdenlive:original.width">3840</property>
  <property name="kdenlive:original.height">2160</property>
  <property name="kdenlive:original.meta.media.sample_aspect_num">1</property>
  <property name="kdenlive:original.meta.media.sample_aspect_den">1</property>
  <property name="kdenlive:original.aspect_ratio">1</property>
  <property name="kdenlive:original.format">3</property>
  <property name="kdenlive:original.audio_index">-1</property>
  <property name="kdenlive:original.video_index">0</property>
  <property name="kdenlive:original.mute_on_pause">0</property>
  <property name="kdenlive:original.mlt_service">avformat-novalidate</property>
  <property name="kdenlive:original.meta.media.frame_rate_num">60</property>
  <property name="kdenlive:original.meta.media.frame_rate_den">1</property>
  <property name="kdenlive:original.meta.media.colorspace">709</property>
  <property name="kdenlive:original.meta.media.color_trc">2</property>
  <property name="kdenlive:original.meta.media.has_b_frames">2</property>
  <property name="kdenlive:original.meta.media.width">3840</property>
  <property name="kdenlive:original.meta.media.height">2160</property>
  <property name="kdenlive:original.meta.media.color_range">mpeg</property>
  <property name="kdenlive:original.meta.media.top_field_first">0</property>
  <property name="kdenlive:original.meta.media.progressive">1</property>
  <property name="kdenlive:original.kdenlive:clip_type">2</property>
  <property name="kdenlive:original.kdenlive:folderid">344</property>
  <property name="kdenlive:original.kdenlive:id">348</property>
  <property name="kdenlive:original.kdenlive:file_size">129557</property>
  <property name="kdenlive:original.kdenlive:file_hash">df22b6ed6b80d76958c0d796432a547b</property>
  <property name="kdenlive:original.backup">1</property>
  <property name="xml">was here</property>
  <property name="meta.media.frame_rate_num">60</property>
  <property name="meta.media.frame_rate_den">1</property>
  <property name="meta.media.colorspace">601</property>
  <property name="meta.media.color_trc">2</property>
  <property name="meta.media.has_b_frames">0</property>
  <property name="meta.media.width">640</property>
  <property name="meta.media.height">360</property>
  <property name="meta.media.color_range">full</property>
  <property name="meta.media.top_field_first">0</property>
  <property name="meta.media.progressive">1</property>
  <property name="set.test_audio">1</property>
  <property name="set.test_image">0</property>
 </producer>
 <producer id="producer579" in="00:00:00.000" out="00:00:01.483">
  <property name="length">90</property>
  <property name="eof">pause</property>
  <property name="resource">/home/xiaoxiae/.cache/kdenlive/proxy/416ccbbc731005926cd50f3e28f8df2e.mkv</property>
  <property name="audio_index">-1</property>
  <property name="video_index">0</property>
  <property name="mute_on_pause">0</property>
  <property name="mlt_service">avformat-novalidate</property>
  <property name="meta.media.nb_streams">1</property>
  <property name="meta.media.0.stream.type">video</property>
  <property name="meta.media.0.stream.frame_rate">60</property>
  <property name="meta.media.0.stream.sample_aspect_ratio">0</property>
  <property name="meta.media.0.codec.width">640</property>
  <property name="meta.media.0.codec.height">360</property>
  <property name="meta.media.0.codec.rotate">0</property>
  <property name="meta.media.0.codec.pix_fmt">yuvj420p</property>
  <property name="meta.media.0.codec.sample_aspect_ratio">0</property>
  <property name="meta.media.0.codec.colorspace">601</property>
  <property name="meta.media.0.codec.name">mjpeg</property>
  <property name="meta.media.0.codec.long_name">MJPEG (Motion JPEG)</property>
  <property name="meta.media.0.codec.bit_rate">0</property>
  <property name="meta.attr.0.stream.HANDLER_NAME.markup">VideoHandler</property>
  <property name="meta.attr.0.stream.VENDOR_ID.markup">[0][0][0][0]</property>
  <property name="meta.attr.0.stream.ENCODER.markup">Lavc60.3.100 mjpeg</property>
  <property name="meta.attr.0.stream.DURATION.markup">00:00:01.500000000</property>
  <property name="meta.attr.COMMENT.markup">Rendered with Manim Community v0.17.2</property>
  <property name="meta.attr.MAJOR_BRAND.markup">isom</property>
  <property name="meta.attr.MINOR_VERSION.markup">512</property>
  <property name="meta.attr.COMPATIBLE_BRANDS.markup">isomiso2avc1mp41</property>
  <property name="meta.attr.ENCODER.markup">Lavf60.3.100</property>
  <property name="seekable">1</property>
  <property name="meta.media.sample_aspect_num">1</property>
  <property name="meta.media.sample_aspect_den">1</property>
  <property name="aspect_ratio">1</property>
  <property name="format">3</property>
  <property name="kdenlive:clipname">13.mp4</property>
  <property name="kdenlive:clip_type">2</property>
  <property name="kdenlive:folderid">344</property>
  <property name="kdenlive:id">347</property>
  <property name="kdenlive:file_size">125482</property>
  <property name="kdenlive:file_hash">416ccbbc731005926cd50f3e28f8df2e</property>
  <property name="kdenlive:proxy">/home/xiaoxiae/.cache/kdenlive/proxy/416ccbbc731005926cd50f3e28f8df2e.mkv</property>
  <property name="kdenlive:originalurl">video/Basics/13.mp4</property>
  <property name="kdenlive:original.mlt_type">producer</property>
  <property name="kdenlive:original.in">00:00:00.000</property>
  <property name="kdenlive:original.out">00:00:01.483</property>
  <property name="kdenlive:original.length">90</property>
  <property name="kdenlive:original.eof">pause</property>
  <property name="kdenlive:original.resource">video/Basics/13.mp4</property>
  <property name="kdenlive:original.meta.media.nb_streams">1</property>
  <property name="kdenlive:original.meta.media.0.stream.type">video</property>
  <property name="kdenlive:original.meta.media.0.stream.frame_rate">60</property>
  <property name="kdenlive:original.meta.media.0.stream.sample_aspect_ratio">0</property>
  <property name="kdenlive:original.meta.media.0.codec.width">3840</property>
  <property name="kdenlive:original.meta.media.0.codec.height">2160</property>
  <property name="kdenlive:original.meta.media.0.codec.rotate">0</property>
  <property name="kdenlive:original.meta.media.0.codec.pix_fmt">yuv420p</property>
  <property name="kdenlive:original.meta.media.0.codec.sample_aspect_ratio">0</property>
  <property name="kdenlive:original.meta.media.0.codec.colorspace">709</property>
  <property name="kdenlive:original.meta.media.0.codec.name">h264</property>
  <property name="kdenlive:original.meta.media.0.codec.long_name">H.264 / AVC / MPEG-4 AVC / MPEG-4 part 10</property>
  <property name="kdenlive:original.meta.media.0.codec.bit_rate">658576</property>
  <property name="kdenlive:original.meta.attr.0.stream.handler_name.markup">VideoHandler</property>
  <property name="kdenlive:original.meta.attr.0.stream.vendor_id.markup">[0][0][0][0]</property>
  <property name="kdenlive:original.meta.attr.0.stream.encoder.markup">Lavc60.3.100 libx264</property>
  <property name="kdenlive:original.meta.attr.major_brand.markup">isom</property>
  <property name="kdenlive:original.meta.attr.minor_version.markup">512</property>
  <property name="kdenlive:original.meta.attr.compatible_brands.markup">isomiso2avc1mp41</property>
  <property name="kdenlive:original.meta.attr.encoder.markup">Lavf60.3.100</property>
  <property name="kdenlive:original.meta.attr.comment.markup">Rendered with Manim Community v0.17.2</property>
  <property name="kdenlive:original.seekable">1</property>
  <property name="kdenlive:original.width">3840</property>
  <property name="kdenlive:original.height">2160</property>
  <property name="kdenlive:original.meta.media.sample_aspect_num">1</property>
  <property name="kdenlive:original.meta.media.sample_aspect_den">1</property>
  <property name="kdenlive:original.aspect_ratio">1</property>
  <property name="kdenlive:original.format">3</property>
  <property name="kdenlive:original.audio_index">-1</property>
  <property name="kdenlive:original.video_index">0</property>
  <property name="kdenlive:original.mute_on_pause">0</property>
  <property name="kdenlive:original.mlt_service">avformat-novalidate</property>
  <property name="kdenlive:original.meta.media.frame_rate_num">60</property>
  <property name="kdenlive:original.meta.media.frame_rate_den">1</property>
  <property name="kdenlive:original.meta.media.colorspace">709</property>
  <property name="kdenlive:original.meta.media.color_trc">2</property>
  <property name="kdenlive:original.meta.media.has_b_frames">2</property>
  <property name="kdenlive:original.meta.media.width">3840</property>
  <property name="kdenlive:original.meta.media.height">2160</property>
  <property name="kdenlive:original.meta.media.color_range">mpeg</property>
  <property name="kdenlive:original.meta.media.top_field_first">0</property>
  <property name="kdenlive:original.meta.media.progressive">1</property>
  <property name="kdenlive:original.kdenlive:clip_type">2</property>
  <property name="kdenlive:original.kdenlive:folderid">344</property>
  <property name="kdenlive:original.kdenlive:id">349</property>
  <property name="kdenlive:original.kdenlive:file_size">125482</property>
  <property name="kdenlive:original.kdenlive:file_hash">416ccbbc731005926cd50f3e28f8df2e</property>
  <property name="kdenlive:original.backup">1</property>
  <property name="xml">was here</property>
  <property name="meta.media.frame_rate_num">60</property>
  <property name="meta.media.frame_rate_den">1</property>
  <property name="meta.media.colorspace">601</property>
  <property name="meta.media.color_trc">2</property>
  <property name="meta.media.has_b_frames">0</property>
  <property name="meta.media.width">640</property>
  <property name="meta.media.height">360</property>
  <property name="meta.media.color_range">full</property>
  <property name="meta.media.top_field_first">0</property>
  <property name="meta.media.progressive">1</property>
  <property name="set.test_audio">1</property>
  <property name="set.test_image">0</property>
 </producer>
 <producer id="producer580" in="00:00:00.000" out="00:00:01.083">
  <property name="length">66</property>
  <property name="eof">pause</property>
  <property name="resource">/home/xiaoxiae/.cache/kdenlive/proxy/5aa9e6dc3e82eaaa5ff00916ffb0e735.mkv</property>
  <property name="audio_index">-1</property>
  <property name="video_index">0</property>
  <property name="mute_on_pause">0</property>
  <property name="mlt_service">avformat-novalidate</property>
  <property name="meta.media.nb_streams">1</property>
  <property name="meta.media.0.stream.type">video</property>
  <property name="meta.media.0.stream.frame_rate">60</property>
  <property name="meta.media.0.stream.sample_aspect_ratio">0</property>
  <property name="meta.media.0.codec.width">640</property>
  <property name="meta.media.0.codec.height">360</property>
  <property name="meta.media.0.codec.rotate">0</property>
  <property name="meta.media.0.codec.pix_fmt">yuvj420p</property>
  <property name="meta.media.0.codec.sample_aspect_ratio">0</property>
  <property name="meta.media.0.codec.colorspace">601</property>
  <property name="meta.media.0.codec.name">mjpeg</property>
  <property name="meta.media.0.codec.long_name">MJPEG (Motion JPEG)</property>
  <property name="meta.media.0.codec.bit_rate">0</property>
  <property name="meta.attr.0.stream.HANDLER_NAME.markup">VideoHandler</property>
  <property name="meta.attr.0.stream.VENDOR_ID.markup">[0][0][0][0]</property>
  <property name="meta.attr.0.stream.ENCODER.markup">Lavc60.3.100 mjpeg</property>
  <property name="meta.attr.0.stream.DURATION.markup">00:00:01.100000000</property>
  <property name="meta.attr.COMMENT.markup">Rendered with Manim Community v0.17.2</property>
  <property name="meta.attr.MAJOR_BRAND.markup">isom</property>
  <property name="meta.attr.MINOR_VERSION.markup">512</property>
  <property name="meta.attr.COMPATIBLE_BRANDS.markup">isomiso2avc1mp41</property>
  <property name="meta.attr.ENCODER.markup">Lavf60.3.100</property>
  <property name="seekable">1</property>
  <property name="meta.media.sample_aspect_num">1</property>
  <property name="meta.media.sample_aspect_den">1</property>
  <property name="aspect_ratio">1</property>
  <property name="format">3</property>
  <property name="kdenlive:clipname">14.mp4</property>
  <property name="kdenlive:clip_type">2</property>
  <property name="kdenlive:folderid">344</property>
  <property name="kdenlive:id">348</property>
  <property name="kdenlive:file_size">64589</property>
  <property name="kdenlive:file_hash">5aa9e6dc3e82eaaa5ff00916ffb0e735</property>
  <property name="kdenlive:proxy">/home/xiaoxiae/.cache/kdenlive/proxy/5aa9e6dc3e82eaaa5ff00916ffb0e735.mkv</property>
  <property name="kdenlive:originalurl">video/Basics/14.mp4</property>
  <property name="kdenlive:original.mlt_type">producer</property>
  <property name="kdenlive:original.in">00:00:00.000</property>
  <property name="kdenlive:original.out">00:00:01.083</property>
  <property name="kdenlive:original.length">66</property>
  <property name="kdenlive:original.eof">pause</property>
  <property name="kdenlive:original.resource">video/Basics/14.mp4</property>
  <property name="kdenlive:original.meta.media.nb_streams">1</property>
  <property name="kdenlive:original.meta.media.0.stream.type">video</property>
  <property name="kdenlive:original.meta.media.0.stream.frame_rate">60</property>
  <property name="kdenlive:original.meta.media.0.stream.sample_aspect_ratio">0</property>
  <property name="kdenlive:original.meta.media.0.codec.width">3840</property>
  <property name="kdenlive:original.meta.media.0.codec.height">2160</property>
  <property name="kdenlive:original.meta.media.0.codec.rotate">0</property>
  <property name="kdenlive:original.meta.media.0.codec.pix_fmt">yuv420p</property>
  <property name="kdenlive:original.meta.media.0.codec.sample_aspect_ratio">0</property>
  <property name="kdenlive:original.meta.media.0.codec.colorspace">709</property>
  <property name="kdenlive:original.meta.media.0.codec.name">h264</property>
  <property name="kdenlive:original.meta.media.0.codec.long_name">H.264 / AVC / MPEG-4 AVC / MPEG-4 part 10</property>
  <property name="kdenlive:original.meta.media.0.codec.bit_rate">457294</property>
  <property name="kdenlive:original.meta.attr.0.stream.handler_name.markup">VideoHandler</property>
  <property name="kdenlive:original.meta.attr.0.stream.vendor_id.markup">[0][0][0][0]</property>
  <property name="kdenlive:original.meta.attr.0.stream.encoder.markup">Lavc60.3.100 libx264</property>
  <property name="kdenlive:original.meta.attr.major_brand.markup">isom</property>
  <property name="kdenlive:original.meta.attr.minor_version.markup">512</property>
  <property name="kdenlive:original.meta.attr.compatible_brands.markup">isomiso2avc1mp41</property>
  <property name="kdenlive:original.meta.attr.encoder.markup">Lavf60.3.100</property>
  <property name="kdenlive:original.meta.attr.comment.markup">Rendered with Manim Community v0.17.2</property>
  <property name="kdenlive:original.seekable">1</property>
  <property name="kdenlive:original.width">3840</property>
  <property name="kdenlive:original.height">2160</property>
  <property name="kdenlive:original.meta.media.sample_aspect_num">1</property>
  <property name="kdenlive:original.meta.media.sample_aspect_den">1</property>
  <property name="kdenlive:original.aspect_ratio">1</property>
  <property name="kdenlive:original.format">3</property>
  <property name="kdenlive:original.audio_index">-1</property>
  <property name="kdenlive:original.video_index">0</property>
  <property name="kdenlive:original.mute_on_pause">0</property>
  <property name="kdenlive:original.mlt_service">avformat-novalidate</property>
  <property name="kdenlive:original.meta.media.frame_rate_num">60</property>
  <property name="kdenlive:original.meta.media.frame_rate_den">1</property>
  <property name="kdenlive:original.meta.media.colorspace">709</property>
  <property name="kdenlive:original.meta.media.color_trc">2</property>
  <property name="kdenlive:original.meta.media.has_b_frames">2</property>
  <property name="kdenlive:original.meta.media.width">3840</property>
  <property name="kdenlive:original.meta.media.height">2160</property>
  <property name="kdenlive:original.meta.media.color_range">mpeg</property>
  <property name="kdenlive:original.meta.media.top_field_first">0</property>
  <property name="kdenlive:original.meta.media.progressive">1</property>
  <property name="kdenlive:original.kdenlive:clip_type">2</property>
  <property name="kdenlive:original.kdenlive:folderid">344</property>
  <property name="kdenlive:original.kdenlive:id">350</property>
  <property name="kdenlive:original.kdenlive:file_size">64589</property>
  <property name="kdenlive:original.kdenlive:file_hash">5aa9e6dc3e82eaaa5ff00916ffb0e735</property>
  <property name="kdenlive:original.backup">1</property>
  <property name="xml">was here</property>
  <property name="meta.media.frame_rate_num">60</property>
  <property name="meta.media.frame_rate_den">1</property>
  <property name="meta.media.colorspace">601</property>
  <property name="meta.media.color_trc">2</property>
  <property name="meta.media.has_b_frames">0</property>
  <property name="meta.media.width">640</property>
  <property name="meta.media.height">360</property>
  <property name="meta.media.color_range">full</property>
  <property name="meta.media.top_field_first">0</property>
  <property name="meta.media.progressive">1</property>
  <property name="set.test_audio">1</property>
  <property name="set.test_image">0</property>
 </producer>
 <producer id="producer581" in="00:00:00.000" out="00:00:00.983">
  <property name="length">60</property>
  <property name="eof">pause</property>
  <property name="resource">/home/xiaoxiae/.cache/kdenlive/proxy/42555a87fe15f36b2231585f56609ded.mkv</property>
  <property name="audio_index">-1</property>
  <property name="video_index">0</property>
  <property name="mute_on_pause">0</property>
  <property name="mlt_service">avformat-novalidate</property>
  <property name="meta.media.nb_streams">1</property>
  <property name="meta.media.0.stream.type">video</property>
  <property name="meta.media.0.stream.frame_rate">60</property>
  <property name="meta.media.0.stream.sample_aspect_ratio">0</property>
  <property name="meta.media.0.codec.width">640</property>
  <property name="meta.media.0.codec.height">360</property>
  <property name="meta.media.0.codec.rotate">0</property>
  <property name="meta.media.0.codec.pix_fmt">yuvj420p</property>
  <property name="meta.media.0.codec.sample_aspect_ratio">0</property>
  <property name="meta.media.0.codec.colorspace">601</property>
  <property name="meta.media.0.codec.name">mjpeg</property>
  <property name="meta.media.0.codec.long_name">MJPEG (Motion JPEG)</property>
  <property name="meta.media.0.codec.bit_rate">0</property>
  <property name="meta.attr.0.stream.HANDLER_NAME.markup">VideoHandler</property>
  <property name="meta.attr.0.stream.VENDOR_ID.markup">[0][0][0][0]</property>
  <property name="meta.attr.0.stream.ENCODER.markup">Lavc60.3.100 mjpeg</property>
  <property name="meta.attr.0.stream.DURATION.markup">00:00:01.000000000</property>
  <property name="meta.attr.COMMENT.markup">Rendered with Manim Community v0.17.2</property>
  <property name="meta.attr.MAJOR_BRAND.markup">isom</property>
  <property name="meta.attr.MINOR_VERSION.markup">512</property>
  <property name="meta.attr.COMPATIBLE_BRANDS.markup">isomiso2avc1mp41</property>
  <property name="meta.attr.ENCODER.markup">Lavf60.3.100</property>
  <property name="seekable">1</property>
  <property name="meta.media.sample_aspect_num">1</property>
  <property name="meta.media.sample_aspect_den">1</property>
  <property name="aspect_ratio">1</property>
  <property name="format">3</property>
  <property name="kdenlive:clipname">15.mp4</property>
  <property name="kdenlive:clip_type">2</property>
  <property name="kdenlive:folderid">344</property>
  <property name="kdenlive:id">349</property>
  <property name="kdenlive:file_size">72490</property>
  <property name="kdenlive:file_hash">42555a87fe15f36b2231585f56609ded</property>
  <property name="kdenlive:proxy">/home/xiaoxiae/.cache/kdenlive/proxy/42555a87fe15f36b2231585f56609ded.mkv</property>
  <property name="kdenlive:originalurl">video/Basics/15.mp4</property>
  <property name="kdenlive:original.mlt_type">producer</property>
  <property name="kdenlive:original.in">00:00:00.000</property>
  <property name="kdenlive:original.out">00:00:00.983</property>
  <property name="kdenlive:original.length">60</property>
  <property name="kdenlive:original.eof">pause</property>
  <property name="kdenlive:original.resource">video/Basics/15.mp4</property>
  <property name="kdenlive:original.meta.media.nb_streams">1</property>
  <property name="kdenlive:original.meta.media.0.stream.type">video</property>
  <property name="kdenlive:original.meta.media.0.stream.frame_rate">60</property>
  <property name="kdenlive:original.meta.media.0.stream.sample_aspect_ratio">0</property>
  <property name="kdenlive:original.meta.media.0.codec.width">3840</property>
  <property name="kdenlive:original.meta.media.0.codec.height">2160</property>
  <property name="kdenlive:original.meta.media.0.codec.rotate">0</property>
  <property name="kdenlive:original.meta.media.0.codec.pix_fmt">yuv420p</property>
  <property name="kdenlive:original.meta.media.0.codec.sample_aspect_ratio">0</property>
  <property name="kdenlive:original.meta.media.0.codec.colorspace">709</property>
  <property name="kdenlive:original.meta.media.0.codec.name">h264</property>
  <property name="kdenlive:original.meta.media.0.codec.long_name">H.264 / AVC / MPEG-4 AVC / MPEG-4 part 10</property>
  <property name="kdenlive:original.meta.media.0.codec.bit_rate">566872</property>
  <property name="kdenlive:original.meta.attr.0.stream.handler_name.markup">VideoHandler</property>
  <property name="kdenlive:original.meta.attr.0.stream.vendor_id.markup">[0][0][0][0]</property>
  <property name="kdenlive:original.meta.attr.0.stream.encoder.markup">Lavc60.3.100 libx264</property>
  <property name="kdenlive:original.meta.attr.major_brand.markup">isom</property>
  <property name="kdenlive:original.meta.attr.minor_version.markup">512</property>
  <property name="kdenlive:original.meta.attr.compatible_brands.markup">isomiso2avc1mp41</property>
  <property name="kdenlive:original.meta.attr.encoder.markup">Lavf60.3.100</property>
  <property name="kdenlive:original.meta.attr.comment.markup">Rendered with Manim Community v0.17.2</property>
  <property name="kdenlive:original.seekable">1</property>
  <property name="kdenlive:original.width">3840</property>
  <property name="kdenlive:original.height">2160</property>
  <property name="kdenlive:original.meta.media.sample_aspect_num">1</property>
  <property name="kdenlive:original.meta.media.sample_aspect_den">1</property>
  <property name="kdenlive:original.aspect_ratio">1</property>
  <property name="kdenlive:original.format">3</property>
  <property name="kdenlive:original.audio_index">-1</property>
  <property name="kdenlive:original.video_index">0</property>
  <property name="kdenlive:original.mute_on_pause">0</property>
  <property name="kdenlive:original.mlt_service">avformat-novalidate</property>
  <property name="kdenlive:original.meta.media.frame_rate_num">60</property>
  <property name="kdenlive:original.meta.media.frame_rate_den">1</property>
  <property name="kdenlive:original.meta.media.colorspace">709</property>
  <property name="kdenlive:original.meta.media.color_trc">2</property>
  <property name="kdenlive:original.meta.media.has_b_frames">2</property>
  <property name="kdenlive:original.meta.media.width">3840</property>
  <property name="kdenlive:original.meta.media.height">2160</property>
  <property name="kdenlive:original.meta.media.color_range">mpeg</property>
  <property name="kdenlive:original.meta.media.top_field_first">0</property>
  <property name="kdenlive:original.meta.media.progressive">1</property>
  <property name="kdenlive:original.kdenlive:clip_type">2</property>
  <property name="kdenlive:original.kdenlive:folderid">344</property>
  <property name="kdenlive:original.kdenlive:id">351</property>
  <property name="kdenlive:original.kdenlive:file_size">72490</property>
  <property name="kdenlive:original.kdenlive:file_hash">42555a87fe15f36b2231585f56609ded</property>
  <property name="kdenlive:original.backup">1</property>
  <property name="xml">was here</property>
  <property name="meta.media.frame_rate_num">60</property>
  <property name="meta.media.frame_rate_den">1</property>
  <property name="meta.media.colorspace">601</property>
  <property name="meta.media.color_trc">2</property>
  <property name="meta.media.has_b_frames">0</property>
  <property name="meta.media.width">640</property>
  <property name="meta.media.height">360</property>
  <property name="meta.media.color_range">full</property>
  <property name="meta.media.top_field_first">0</property>
  <property name="meta.media.progressive">1</property>
  <property name="set.test_audio">1</property>
  <property name="set.test_image">0</property>
 </producer>
 <producer id="producer582" in="00:00:00.000" out="00:00:00.983">
  <property name="length">60</property>
  <property name="eof">pause</property>
  <property name="resource">/home/xiaoxiae/.cache/kdenlive/proxy/c456a7437537e724dfc42ef76cdbab12.mkv</property>
  <property name="audio_index">-1</property>
  <property name="video_index">0</property>
  <property name="mute_on_pause">0</property>
  <property name="mlt_service">avformat-novalidate</property>
  <property name="meta.media.nb_streams">1</property>
  <property name="meta.media.0.stream.type">video</property>
  <property name="meta.media.0.stream.frame_rate">60</property>
  <property name="meta.media.0.stream.sample_aspect_ratio">0</property>
  <property name="meta.media.0.codec.width">640</property>
  <property name="meta.media.0.codec.height">360</property>
  <property name="meta.media.0.codec.rotate">0</property>
  <property name="meta.media.0.codec.pix_fmt">yuvj420p</property>
  <property name="meta.media.0.codec.sample_aspect_ratio">0</property>
  <property name="meta.media.0.codec.colorspace">601</property>
  <property name="meta.media.0.codec.name">mjpeg</property>
  <property name="meta.media.0.codec.long_name">MJPEG (Motion JPEG)</property>
  <property name="meta.media.0.codec.bit_rate">0</property>
  <property name="meta.attr.0.stream.HANDLER_NAME.markup">VideoHandler</property>
  <property name="meta.attr.0.stream.VENDOR_ID.markup">[0][0][0][0]</property>
  <property name="meta.attr.0.stream.ENCODER.markup">Lavc60.3.100 mjpeg</property>
  <property name="meta.attr.0.stream.DURATION.markup">00:00:01.000000000</property>
  <property name="meta.attr.COMMENT.markup">Rendered with Manim Community v0.17.2</property>
  <property name="meta.attr.MAJOR_BRAND.markup">isom</property>
  <property name="meta.attr.MINOR_VERSION.markup">512</property>
  <property name="meta.attr.COMPATIBLE_BRANDS.markup">isomiso2avc1mp41</property>
  <property name="meta.attr.ENCODER.markup">Lavf60.3.100</property>
  <property name="seekable">1</property>
  <property name="meta.media.sample_aspect_num">1</property>
  <property name="meta.media.sample_aspect_den">1</property>
  <property name="aspect_ratio">1</property>
  <property name="format">3</property>
  <property name="kdenlive:clipname">16.mp4</property>
  <property name="kdenlive:clip_type">2</property>
  <property name="kdenlive:folderid">344</property>
  <property name="kdenlive:id">350</property>
  <property name="kdenlive:file_size">76890</property>
  <property name="kdenlive:file_hash">c456a7437537e724dfc42ef76cdbab12</property>
  <property name="kdenlive:proxy">/home/xiaoxiae/.cache/kdenlive/proxy/c456a7437537e724dfc42ef76cdbab12.mkv</property>
  <property name="kdenlive:originalurl">video/Basics/16.mp4</property>
  <property name="kdenlive:original.mlt_type">producer</property>
  <property name="kdenlive:original.in">00:00:00.000</property>
  <property name="kdenlive:original.out">00:00:00.983</property>
  <property name="kdenlive:original.length">60</property>
  <property name="kdenlive:original.eof">pause</property>
  <property name="kdenlive:original.resource">video/Basics/16.mp4</property>
  <property name="kdenlive:original.meta.media.nb_streams">1</property>
  <property name="kdenlive:original.meta.media.0.stream.type">video</property>
  <property name="kdenlive:original.meta.media.0.stream.frame_rate">60</property>
  <property name="kdenlive:original.meta.media.0.stream.sample_aspect_ratio">0</property>
  <property name="kdenlive:original.meta.media.0.codec.width">3840</property>
  <property name="kdenlive:original.meta.media.0.codec.height">2160</property>
  <property name="kdenlive:original.meta.media.0.codec.rotate">0</property>
  <property name="kdenlive:original.meta.media.0.codec.pix_fmt">yuv420p</property>
  <property name="kdenlive:original.meta.media.0.codec.sample_aspect_ratio">0</property>
  <property name="kdenlive:original.meta.media.0.codec.colorspace">709</property>
  <property name="kdenlive:original.meta.media.0.codec.name">h264</property>
  <property name="kdenlive:original.meta.media.0.codec.long_name">H.264 / AVC / MPEG-4 AVC / MPEG-4 part 10</property>
  <property name="kdenlive:original.meta.media.0.codec.bit_rate">602072</property>
  <property name="kdenlive:original.meta.attr.0.stream.handler_name.markup">VideoHandler</property>
  <property name="kdenlive:original.meta.attr.0.stream.vendor_id.markup">[0][0][0][0]</property>
  <property name="kdenlive:original.meta.attr.0.stream.encoder.markup">Lavc60.3.100 libx264</property>
  <property name="kdenlive:original.meta.attr.major_brand.markup">isom</property>
  <property name="kdenlive:original.meta.attr.minor_version.markup">512</property>
  <property name="kdenlive:original.meta.attr.compatible_brands.markup">isomiso2avc1mp41</property>
  <property name="kdenlive:original.meta.attr.encoder.markup">Lavf60.3.100</property>
  <property name="kdenlive:original.meta.attr.comment.markup">Rendered with Manim Community v0.17.2</property>
  <property name="kdenlive:original.seekable">1</property>
  <property name="kdenlive:original.width">3840</property>
  <property name="kdenlive:original.height">2160</property>
  <property name="kdenlive:original.meta.media.sample_aspect_num">1</property>
  <property name="kdenlive:original.meta.media.sample_aspect_den">1</property>
  <property name="kdenlive:original.aspect_ratio">1</property>
  <property name="kdenlive:original.format">3</property>
  <property name="kdenlive:original.audio_index">-1</property>
  <property name="kdenlive:original.video_index">0</property>
  <property name="kdenlive:original.mute_on_pause">0</property>
  <property name="kdenlive:original.mlt_service">avformat-novalidate</property>
  <property name="kdenlive:original.meta.media.frame_rate_num">60</property>
  <property name="kdenlive:original.meta.media.frame_rate_den">1</property>
  <property name="kdenlive:original.meta.media.colorspace">709</property>
  <property name="kdenlive:original.meta.media.color_trc">2</property>
  <property name="kdenlive:original.meta.media.has_b_frames">2</property>
  <property name="kdenlive:original.meta.media.width">3840</property>
  <property name="kdenlive:original.meta.media.height">2160</property>
  <property name="kdenlive:original.meta.media.color_range">mpeg</property>
  <property name="kdenlive:original.meta.media.top_field_first">0</property>
  <property name="kdenlive:original.meta.media.progressive">1</property>
  <property name="kdenlive:original.kdenlive:clip_type">2</property>
  <property name="kdenlive:original.kdenlive:folderid">344</property>
  <property name="kdenlive:original.kdenlive:id">352</property>
  <property name="kdenlive:original.kdenlive:file_size">76890</property>
  <property name="kdenlive:original.kdenlive:file_hash">c456a7437537e724dfc42ef76cdbab12</property>
  <property name="kdenlive:original.backup">1</property>
  <property name="xml">was here</property>
  <property name="meta.media.frame_rate_num">60</property>
  <property name="meta.media.frame_rate_den">1</property>
  <property name="meta.media.colorspace">601</property>
  <property name="meta.media.color_trc">2</property>
  <property name="meta.media.has_b_frames">0</property>
  <property name="meta.media.width">640</property>
  <property name="meta.media.height">360</property>
  <property name="meta.media.color_range">full</property>
  <property name="meta.media.top_field_first">0</property>
  <property name="meta.media.progressive">1</property>
  <property name="set.test_audio">1</property>
  <property name="set.test_image">0</property>
 </producer>
 <producer id="producer583" in="00:00:00.000" out="00:00:01.483">
  <property name="length">90</property>
  <property name="eof">pause</property>
  <property name="resource">/home/xiaoxiae/.cache/kdenlive/proxy/681e060776f37bb0ec17d5782ec55aca.mkv</property>
  <property name="audio_index">-1</property>
  <property name="video_index">0</property>
  <property name="mute_on_pause">0</property>
  <property name="mlt_service">avformat-novalidate</property>
  <property name="meta.media.nb_streams">1</property>
  <property name="meta.media.0.stream.type">video</property>
  <property name="meta.media.0.stream.frame_rate">60</property>
  <property name="meta.media.0.stream.sample_aspect_ratio">0</property>
  <property name="meta.media.0.codec.width">640</property>
  <property name="meta.media.0.codec.height">360</property>
  <property name="meta.media.0.codec.rotate">0</property>
  <property name="meta.media.0.codec.pix_fmt">yuvj420p</property>
  <property name="meta.media.0.codec.sample_aspect_ratio">0</property>
  <property name="meta.media.0.codec.colorspace">601</property>
  <property name="meta.media.0.codec.name">mjpeg</property>
  <property name="meta.media.0.codec.long_name">MJPEG (Motion JPEG)</property>
  <property name="meta.media.0.codec.bit_rate">0</property>
  <property name="meta.attr.0.stream.HANDLER_NAME.markup">VideoHandler</property>
  <property name="meta.attr.0.stream.VENDOR_ID.markup">[0][0][0][0]</property>
  <property name="meta.attr.0.stream.ENCODER.markup">Lavc60.3.100 mjpeg</property>
  <property name="meta.attr.0.stream.DURATION.markup">00:00:01.500000000</property>
  <property name="meta.attr.COMMENT.markup">Rendered with Manim Community v0.17.2</property>
  <property name="meta.attr.MAJOR_BRAND.markup">isom</property>
  <property name="meta.attr.MINOR_VERSION.markup">512</property>
  <property name="meta.attr.COMPATIBLE_BRANDS.markup">isomiso2avc1mp41</property>
  <property name="meta.attr.ENCODER.markup">Lavf60.3.100</property>
  <property name="seekable">1</property>
  <property name="meta.media.sample_aspect_num">1</property>
  <property name="meta.media.sample_aspect_den">1</property>
  <property name="aspect_ratio">1</property>
  <property name="format">3</property>
  <property name="kdenlive:clipname">17.mp4</property>
  <property name="kdenlive:clip_type">2</property>
  <property name="kdenlive:folderid">344</property>
  <property name="kdenlive:id">351</property>
  <property name="kdenlive:file_size">94654</property>
  <property name="kdenlive:file_hash">681e060776f37bb0ec17d5782ec55aca</property>
  <property name="kdenlive:proxy">/home/xiaoxiae/.cache/kdenlive/proxy/681e060776f37bb0ec17d5782ec55aca.mkv</property>
  <property name="kdenlive:originalurl">video/Basics/17.mp4</property>
  <property name="kdenlive:original.mlt_type">producer</property>
  <property name="kdenlive:original.in">00:00:00.000</property>
  <property name="kdenlive:original.out">00:00:01.483</property>
  <property name="kdenlive:original.length">90</property>
  <property name="kdenlive:original.eof">pause</property>
  <property name="kdenlive:original.resource">video/Basics/17.mp4</property>
  <property name="kdenlive:original.meta.media.nb_streams">1</property>
  <property name="kdenlive:original.meta.media.0.stream.type">video</property>
  <property name="kdenlive:original.meta.media.0.stream.frame_rate">60</property>
  <property name="kdenlive:original.meta.media.0.stream.sample_aspect_ratio">0</property>
  <property name="kdenlive:original.meta.media.0.codec.width">3840</property>
  <property name="kdenlive:original.meta.media.0.codec.height">2160</property>
  <property name="kdenlive:original.meta.media.0.codec.rotate">0</property>
  <property name="kdenlive:original.meta.media.0.codec.pix_fmt">yuv420p</property>
  <property name="kdenlive:original.meta.media.0.codec.sample_aspect_ratio">0</property>
  <property name="kdenlive:original.meta.media.0.codec.colorspace">709</property>
  <property name="kdenlive:original.meta.media.0.codec.name">h264</property>
  <property name="kdenlive:original.meta.media.0.codec.long_name">H.264 / AVC / MPEG-4 AVC / MPEG-4 part 10</property>
  <property name="kdenlive:original.meta.media.0.codec.bit_rate">494160</property>
  <property name="kdenlive:original.meta.attr.0.stream.handler_name.markup">VideoHandler</property>
  <property name="kdenlive:original.meta.attr.0.stream.vendor_id.markup">[0][0][0][0]</property>
  <property name="kdenlive:original.meta.attr.0.stream.encoder.markup">Lavc60.3.100 libx264</property>
  <property name="kdenlive:original.meta.attr.major_brand.markup">isom</property>
  <property name="kdenlive:original.meta.attr.minor_version.markup">512</property>
  <property name="kdenlive:original.meta.attr.compatible_brands.markup">isomiso2avc1mp41</property>
  <property name="kdenlive:original.meta.attr.encoder.markup">Lavf60.3.100</property>
  <property name="kdenlive:original.meta.attr.comment.markup">Rendered with Manim Community v0.17.2</property>
  <property name="kdenlive:original.seekable">1</property>
  <property name="kdenlive:original.width">3840</property>
  <property name="kdenlive:original.height">2160</property>
  <property name="kdenlive:original.meta.media.sample_aspect_num">1</property>
  <property name="kdenlive:original.meta.media.sample_aspect_den">1</property>
  <property name="kdenlive:original.aspect_ratio">1</property>
  <property name="kdenlive:original.format">3</property>
  <property name="kdenlive:original.audio_index">-1</property>
  <property name="kdenlive:original.video_index">0</property>
  <property name="kdenlive:original.mute_on_pause">0</property>
  <property name="kdenlive:original.mlt_service">avformat-novalidate</property>
  <property name="kdenlive:original.meta.media.frame_rate_num">60</property>
  <property name="kdenlive:original.meta.media.frame_rate_den">1</property>
  <property name="kdenlive:original.meta.media.colorspace">709</property>
  <property name="kdenlive:original.meta.media.color_trc">2</property>
  <property name="kdenlive:original.meta.media.has_b_frames">2</property>
  <property name="kdenlive:original.meta.media.width">3840</property>
  <property name="kdenlive:original.meta.media.height">2160</property>
  <property name="kdenlive:original.meta.media.color_range">mpeg</property>
  <property name="kdenlive:original.meta.media.top_field_first">0</property>
  <property name="kdenlive:original.meta.media.progressive">1</property>
  <property name="kdenlive:original.kdenlive:clip_type">2</property>
  <property name="kdenlive:original.kdenlive:folderid">344</property>
  <property name="kdenlive:original.kdenlive:id">353</property>
  <property name="kdenlive:original.kdenlive:file_size">94654</property>
  <property name="kdenlive:original.kdenlive:file_hash">681e060776f37bb0ec17d5782ec55aca</property>
  <property name="kdenlive:original.backup">1</property>
  <property name="xml">was here</property>
  <property name="meta.media.frame_rate_num">60</property>
  <property name="meta.media.frame_rate_den">1</property>
  <property name="meta.media.colorspace">601</property>
  <property name="meta.media.color_trc">2</property>
  <property name="meta.media.has_b_frames">0</property>
  <property name="meta.media.width">640</property>
  <property name="meta.media.height">360</property>
  <property name="meta.media.color_range">full</property>
  <property name="meta.media.top_field_first">0</property>
  <property name="meta.media.progressive">1</property>
  <property name="set.test_audio">1</property>
  <property name="set.test_image">0</property>
 </producer>
 <producer id="producer584" in="00:00:00.000" out="00:00:00.983">
  <property name="length">60</property>
  <property name="eof">pause</property>
  <property name="resource">/home/xiaoxiae/.cache/kdenlive/proxy/b15426ffd4479468aeee31d3b1a430d3.mkv</property>
  <property name="audio_index">-1</property>
  <property name="video_index">0</property>
  <property name="mute_on_pause">0</property>
  <property name="mlt_service">avformat-novalidate</property>
  <property name="meta.media.nb_streams">1</property>
  <property name="meta.media.0.stream.type">video</property>
  <property name="meta.media.0.stream.frame_rate">60</property>
  <property name="meta.media.0.stream.sample_aspect_ratio">0</property>
  <property name="meta.media.0.codec.width">640</property>
  <property name="meta.media.0.codec.height">360</property>
  <property name="meta.media.0.codec.rotate">0</property>
  <property name="meta.media.0.codec.pix_fmt">yuvj420p</property>
  <property name="meta.media.0.codec.sample_aspect_ratio">0</property>
  <property name="meta.media.0.codec.colorspace">601</property>
  <property name="meta.media.0.codec.name">mjpeg</property>
  <property name="meta.media.0.codec.long_name">MJPEG (Motion JPEG)</property>
  <property name="meta.media.0.codec.bit_rate">0</property>
  <property name="meta.attr.0.stream.HANDLER_NAME.markup">VideoHandler</property>
  <property name="meta.attr.0.stream.VENDOR_ID.markup">[0][0][0][0]</property>
  <property name="meta.attr.0.stream.ENCODER.markup">Lavc60.3.100 mjpeg</property>
  <property name="meta.attr.0.stream.DURATION.markup">00:00:01.000000000</property>
  <property name="meta.attr.COMMENT.markup">Rendered with Manim Community v0.17.2</property>
  <property name="meta.attr.MAJOR_BRAND.markup">isom</property>
  <property name="meta.attr.MINOR_VERSION.markup">512</property>
  <property name="meta.attr.COMPATIBLE_BRANDS.markup">isomiso2avc1mp41</property>
  <property name="meta.attr.ENCODER.markup">Lavf60.3.100</property>
  <property name="seekable">1</property>
  <property name="meta.media.sample_aspect_num">1</property>
  <property name="meta.media.sample_aspect_den">1</property>
  <property name="aspect_ratio">1</property>
  <property name="format">3</property>
  <property name="kdenlive:clipname">18.mp4</property>
  <property name="kdenlive:clip_type">2</property>
  <property name="kdenlive:folderid">344</property>
  <property name="kdenlive:id">352</property>
  <property name="kdenlive:file_size">140188</property>
  <property name="kdenlive:file_hash">b15426ffd4479468aeee31d3b1a430d3</property>
  <property name="kdenlive:proxy">/home/xiaoxiae/.cache/kdenlive/proxy/b15426ffd4479468aeee31d3b1a430d3.mkv</property>
  <property name="kdenlive:originalurl">video/Basics/18.mp4</property>
  <property name="kdenlive:original.mlt_type">producer</property>
  <property name="kdenlive:original.in">00:00:00.000</property>
  <property name="kdenlive:original.out">00:00:00.983</property>
  <property name="kdenlive:original.length">60</property>
  <property name="kdenlive:original.eof">pause</property>
  <property name="kdenlive:original.resource">video/Basics/18.mp4</property>
  <property name="kdenlive:original.meta.media.nb_streams">1</property>
  <property name="kdenlive:original.meta.media.0.stream.type">video</property>
  <property name="kdenlive:original.meta.media.0.stream.frame_rate">60</property>
  <property name="kdenlive:original.meta.media.0.stream.sample_aspect_ratio">0</property>
  <property name="kdenlive:original.meta.media.0.codec.width">3840</property>
  <property name="kdenlive:original.meta.media.0.codec.height">2160</property>
  <property name="kdenlive:original.meta.media.0.codec.rotate">0</property>
  <property name="kdenlive:original.meta.media.0.codec.pix_fmt">yuv420p</property>
  <property name="kdenlive:original.meta.media.0.codec.sample_aspect_ratio">0</property>
  <property name="kdenlive:original.meta.media.0.codec.colorspace">709</property>
  <property name="kdenlive:original.meta.media.0.codec.name">h264</property>
  <property name="kdenlive:original.meta.media.0.codec.long_name">H.264 / AVC / MPEG-4 AVC / MPEG-4 part 10</property>
  <property name="kdenlive:original.meta.media.0.codec.bit_rate">1108520</property>
  <property name="kdenlive:original.meta.attr.0.stream.handler_name.markup">VideoHandler</property>
  <property name="kdenlive:original.meta.attr.0.stream.vendor_id.markup">[0][0][0][0]</property>
  <property name="kdenlive:original.meta.attr.0.stream.encoder.markup">Lavc60.3.100 libx264</property>
  <property name="kdenlive:original.meta.attr.major_brand.markup">isom</property>
  <property name="kdenlive:original.meta.attr.minor_version.markup">512</property>
  <property name="kdenlive:original.meta.attr.compatible_brands.markup">isomiso2avc1mp41</property>
  <property name="kdenlive:original.meta.attr.encoder.markup">Lavf60.3.100</property>
  <property name="kdenlive:original.meta.attr.comment.markup">Rendered with Manim Community v0.17.2</property>
  <property name="kdenlive:original.seekable">1</property>
  <property name="kdenlive:original.width">3840</property>
  <property name="kdenlive:original.height">2160</property>
  <property name="kdenlive:original.meta.media.sample_aspect_num">1</property>
  <property name="kdenlive:original.meta.media.sample_aspect_den">1</property>
  <property name="kdenlive:original.aspect_ratio">1</property>
  <property name="kdenlive:original.format">3</property>
  <property name="kdenlive:original.audio_index">-1</property>
  <property name="kdenlive:original.video_index">0</property>
  <property name="kdenlive:original.mute_on_pause">0</property>
  <property name="kdenlive:original.mlt_service">avformat-novalidate</property>
  <property name="kdenlive:original.meta.media.frame_rate_num">60</property>
  <property name="kdenlive:original.meta.media.frame_rate_den">1</property>
  <property name="kdenlive:original.meta.media.colorspace">709</property>
  <property name="kdenlive:original.meta.media.color_trc">2</property>
  <property name="kdenlive:original.meta.media.has_b_frames">2</property>
  <property name="kdenlive:original.meta.media.width">3840</property>
  <property name="kdenlive:original.meta.media.height">2160</property>
  <property name="kdenlive:original.meta.media.color_range">mpeg</property>
  <property name="kdenlive:original.meta.media.top_field_first">0</property>
  <property name="kdenlive:original.meta.media.progressive">1</property>
  <property name="kdenlive:original.kdenlive:clip_type">2</property>
  <property name="kdenlive:original.kdenlive:folderid">344</property>
  <property name="kdenlive:original.kdenlive:id">354</property>
  <property name="kdenlive:original.kdenlive:file_size">140188</property>
  <property name="kdenlive:original.kdenlive:file_hash">b15426ffd4479468aeee31d3b1a430d3</property>
  <property name="kdenlive:original.backup">1</property>
  <property name="xml">was here</property>
  <property name="meta.media.frame_rate_num">60</property>
  <property name="meta.media.frame_rate_den">1</property>
  <property name="meta.media.colorspace">601</property>
  <property name="meta.media.color_trc">2</property>
  <property name="meta.media.has_b_frames">0</property>
  <property name="meta.media.width">640</property>
  <property name="meta.media.height">360</property>
  <property name="meta.media.color_range">full</property>
  <property name="meta.media.top_field_first">0</property>
  <property name="meta.media.progressive">1</property>
  <property name="set.test_audio">1</property>
  <property name="set.test_image">0</property>
 </producer>
 <producer id="producer585" in="00:00:00.000" out="00:00:00.983">
  <property name="length">60</property>
  <property name="eof">pause</property>
  <property name="resource">/home/xiaoxiae/.cache/kdenlive/proxy/b26c21ecbfe543c1308f9b24fa7c0a5f.mkv</property>
  <property name="audio_index">-1</property>
  <property name="video_index">0</property>
  <property name="mute_on_pause">0</property>
  <property name="mlt_service">avformat-novalidate</property>
  <property name="meta.media.nb_streams">1</property>
  <property name="meta.media.0.stream.type">video</property>
  <property name="meta.media.0.stream.frame_rate">60</property>
  <property name="meta.media.0.stream.sample_aspect_ratio">0</property>
  <property name="meta.media.0.codec.width">640</property>
  <property name="meta.media.0.codec.height">360</property>
  <property name="meta.media.0.codec.rotate">0</property>
  <property name="meta.media.0.codec.pix_fmt">yuvj420p</property>
  <property name="meta.media.0.codec.sample_aspect_ratio">0</property>
  <property name="meta.media.0.codec.colorspace">601</property>
  <property name="meta.media.0.codec.name">mjpeg</property>
  <property name="meta.media.0.codec.long_name">MJPEG (Motion JPEG)</property>
  <property name="meta.media.0.codec.bit_rate">0</property>
  <property name="meta.attr.0.stream.HANDLER_NAME.markup">VideoHandler</property>
  <property name="meta.attr.0.stream.VENDOR_ID.markup">[0][0][0][0]</property>
  <property name="meta.attr.0.stream.ENCODER.markup">Lavc60.3.100 mjpeg</property>
  <property name="meta.attr.0.stream.DURATION.markup">00:00:01.000000000</property>
  <property name="meta.attr.COMMENT.markup">Rendered with Manim Community v0.17.2</property>
  <property name="meta.attr.MAJOR_BRAND.markup">isom</property>
  <property name="meta.attr.MINOR_VERSION.markup">512</property>
  <property name="meta.attr.COMPATIBLE_BRANDS.markup">isomiso2avc1mp41</property>
  <property name="meta.attr.ENCODER.markup">Lavf60.3.100</property>
  <property name="seekable">1</property>
  <property name="meta.media.sample_aspect_num">1</property>
  <property name="meta.media.sample_aspect_den">1</property>
  <property name="aspect_ratio">1</property>
  <property name="format">3</property>
  <property name="kdenlive:clipname">19.mp4</property>
  <property name="kdenlive:clip_type">2</property>
  <property name="kdenlive:folderid">344</property>
  <property name="kdenlive:id">353</property>
  <property name="kdenlive:file_size">96553</property>
  <property name="kdenlive:file_hash">b26c21ecbfe543c1308f9b24fa7c0a5f</property>
  <property name="kdenlive:proxy">/home/xiaoxiae/.cache/kdenlive/proxy/b26c21ecbfe543c1308f9b24fa7c0a5f.mkv</property>
  <property name="kdenlive:originalurl">video/Basics/19.mp4</property>
  <property name="kdenlive:original.mlt_type">producer</property>
  <property name="kdenlive:original.in">00:00:00.000</property>
  <property name="kdenlive:original.out">00:00:00.983</property>
  <property name="kdenlive:original.length">60</property>
  <property name="kdenlive:original.eof">pause</property>
  <property name="kdenlive:original.resource">video/Basics/19.mp4</property>
  <property name="kdenlive:original.meta.media.nb_streams">1</property>
  <property name="kdenlive:original.meta.media.0.stream.type">video</property>
  <property name="kdenlive:original.meta.media.0.stream.frame_rate">60</property>
  <property name="kdenlive:original.meta.media.0.stream.sample_aspect_ratio">0</property>
  <property name="kdenlive:original.meta.media.0.codec.width">3840</property>
  <property name="kdenlive:original.meta.media.0.codec.height">2160</property>
  <property name="kdenlive:original.meta.media.0.codec.rotate">0</property>
  <property name="kdenlive:original.meta.media.0.codec.pix_fmt">yuv420p</property>
  <property name="kdenlive:original.meta.media.0.codec.sample_aspect_ratio">0</property>
  <property name="kdenlive:original.meta.media.0.codec.colorspace">709</property>
  <property name="kdenlive:original.meta.media.0.codec.name">h264</property>
  <property name="kdenlive:original.meta.media.0.codec.long_name">H.264 / AVC / MPEG-4 AVC / MPEG-4 part 10</property>
  <property name="kdenlive:original.meta.media.0.codec.bit_rate">759376</property>
  <property name="kdenlive:original.meta.attr.0.stream.handler_name.markup">VideoHandler</property>
  <property name="kdenlive:original.meta.attr.0.stream.vendor_id.markup">[0][0][0][0]</property>
  <property name="kdenlive:original.meta.attr.0.stream.encoder.markup">Lavc60.3.100 libx264</property>
  <property name="kdenlive:original.meta.attr.major_brand.markup">isom</property>
  <property name="kdenlive:original.meta.attr.minor_version.markup">512</property>
  <property name="kdenlive:original.meta.attr.compatible_brands.markup">isomiso2avc1mp41</property>
  <property name="kdenlive:original.meta.attr.encoder.markup">Lavf60.3.100</property>
  <property name="kdenlive:original.meta.attr.comment.markup">Rendered with Manim Community v0.17.2</property>
  <property name="kdenlive:original.seekable">1</property>
  <property name="kdenlive:original.width">3840</property>
  <property name="kdenlive:original.height">2160</property>
  <property name="kdenlive:original.meta.media.sample_aspect_num">1</property>
  <property name="kdenlive:original.meta.media.sample_aspect_den">1</property>
  <property name="kdenlive:original.aspect_ratio">1</property>
  <property name="kdenlive:original.format">3</property>
  <property name="kdenlive:original.audio_index">-1</property>
  <property name="kdenlive:original.video_index">0</property>
  <property name="kdenlive:original.mute_on_pause">0</property>
  <property name="kdenlive:original.mlt_service">avformat-novalidate</property>
  <property name="kdenlive:original.meta.media.frame_rate_num">60</property>
  <property name="kdenlive:original.meta.media.frame_rate_den">1</property>
  <property name="kdenlive:original.meta.media.colorspace">709</property>
  <property name="kdenlive:original.meta.media.color_trc">2</property>
  <property name="kdenlive:original.meta.media.has_b_frames">2</property>
  <property name="kdenlive:original.meta.media.width">3840</property>
  <property name="kdenlive:original.meta.media.height">2160</property>
  <property name="kdenlive:original.meta.media.color_range">mpeg</property>
  <property name="kdenlive:original.meta.media.top_field_first">0</property>
  <property name="kdenlive:original.meta.media.progressive">1</property>
  <property name="kdenlive:original.kdenlive:clip_type">2</property>
  <property name="kdenlive:original.kdenlive:folderid">344</property>
  <property name="kdenlive:original.kdenlive:id">355</property>
  <property name="kdenlive:original.kdenlive:file_size">96553</property>
  <property name="kdenlive:original.kdenlive:file_hash">b26c21ecbfe543c1308f9b24fa7c0a5f</property>
  <property name="kdenlive:original.backup">1</property>
  <property name="xml">was here</property>
  <property name="meta.media.frame_rate_num">60</property>
  <property name="meta.media.frame_rate_den">1</property>
  <property name="meta.media.colorspace">601</property>
  <property name="meta.media.color_trc">2</property>
  <property name="meta.media.has_b_frames">0</property>
  <property name="meta.media.width">640</property>
  <property name="meta.media.height">360</property>
  <property name="meta.media.color_range">full</property>
  <property name="meta.media.top_field_first">0</property>
  <property name="meta.media.progressive">1</property>
  <property name="set.test_audio">1</property>
  <property name="set.test_image">0</property>
 </producer>
 <producer id="producer586" in="00:00:00.000" out="00:00:00.983">
  <property name="length">60</property>
  <property name="eof">pause</property>
  <property name="resource">/home/xiaoxiae/.cache/kdenlive/proxy/4e7fc7be117bb203bebea57c43a16bc7.mkv</property>
  <property name="audio_index">-1</property>
  <property name="video_index">0</property>
  <property name="mute_on_pause">0</property>
  <property name="mlt_service">avformat-novalidate</property>
  <property name="meta.media.nb_streams">1</property>
  <property name="meta.media.0.stream.type">video</property>
  <property name="meta.media.0.stream.frame_rate">60</property>
  <property name="meta.media.0.stream.sample_aspect_ratio">0</property>
  <property name="meta.media.0.codec.width">640</property>
  <property name="meta.media.0.codec.height">360</property>
  <property name="meta.media.0.codec.rotate">0</property>
  <property name="meta.media.0.codec.pix_fmt">yuvj420p</property>
  <property name="meta.media.0.codec.sample_aspect_ratio">0</property>
  <property name="meta.media.0.codec.colorspace">601</property>
  <property name="meta.media.0.codec.name">mjpeg</property>
  <property name="meta.media.0.codec.long_name">MJPEG (Motion JPEG)</property>
  <property name="meta.media.0.codec.bit_rate">0</property>
  <property name="meta.attr.0.stream.HANDLER_NAME.markup">VideoHandler</property>
  <property name="meta.attr.0.stream.VENDOR_ID.markup">[0][0][0][0]</property>
  <property name="meta.attr.0.stream.ENCODER.markup">Lavc60.3.100 mjpeg</property>
  <property name="meta.attr.0.stream.DURATION.markup">00:00:01.000000000</property>
  <property name="meta.attr.COMMENT.markup">Rendered with Manim Community v0.17.2</property>
  <property name="meta.attr.MAJOR_BRAND.markup">isom</property>
  <property name="meta.attr.MINOR_VERSION.markup">512</property>
  <property name="meta.attr.COMPATIBLE_BRANDS.markup">isomiso2avc1mp41</property>
  <property name="meta.attr.ENCODER.markup">Lavf60.3.100</property>
  <property name="seekable">1</property>
  <property name="meta.media.sample_aspect_num">1</property>
  <property name="meta.media.sample_aspect_den">1</property>
  <property name="aspect_ratio">1</property>
  <property name="format">3</property>
  <property name="kdenlive:clipname">20.mp4</property>
  <property name="kdenlive:clip_type">2</property>
  <property name="kdenlive:folderid">344</property>
  <property name="kdenlive:id">355</property>
  <property name="kdenlive:file_size">64114</property>
  <property name="kdenlive:file_hash">4e7fc7be117bb203bebea57c43a16bc7</property>
  <property name="kdenlive:proxy">/home/xiaoxiae/.cache/kdenlive/proxy/4e7fc7be117bb203bebea57c43a16bc7.mkv</property>
  <property name="kdenlive:originalurl">video/Basics/20.mp4</property>
  <property name="kdenlive:original.mlt_type">producer</property>
  <property name="kdenlive:original.in">00:00:00.000</property>
  <property name="kdenlive:original.out">00:00:00.983</property>
  <property name="kdenlive:original.length">60</property>
  <property name="kdenlive:original.eof">pause</property>
  <property name="kdenlive:original.resource">video/Basics/20.mp4</property>
  <property name="kdenlive:original.meta.media.nb_streams">1</property>
  <property name="kdenlive:original.meta.media.0.stream.type">video</property>
  <property name="kdenlive:original.meta.media.0.stream.frame_rate">60</property>
  <property name="kdenlive:original.meta.media.0.stream.sample_aspect_ratio">0</property>
  <property name="kdenlive:original.meta.media.0.codec.width">3840</property>
  <property name="kdenlive:original.meta.media.0.codec.height">2160</property>
  <property name="kdenlive:original.meta.media.0.codec.rotate">0</property>
  <property name="kdenlive:original.meta.media.0.codec.pix_fmt">yuv420p</property>
  <property name="kdenlive:original.meta.media.0.codec.sample_aspect_ratio">0</property>
  <property name="kdenlive:original.meta.media.0.codec.colorspace">709</property>
  <property name="kdenlive:original.meta.media.0.codec.name">h264</property>
  <property name="kdenlive:original.meta.media.0.codec.long_name">H.264 / AVC / MPEG-4 AVC / MPEG-4 part 10</property>
  <property name="kdenlive:original.meta.media.0.codec.bit_rate">499864</property>
  <property name="kdenlive:original.meta.attr.0.stream.handler_name.markup">VideoHandler</property>
  <property name="kdenlive:original.meta.attr.0.stream.vendor_id.markup">[0][0][0][0]</property>
  <property name="kdenlive:original.meta.attr.0.stream.encoder.markup">Lavc60.3.100 libx264</property>
  <property name="kdenlive:original.meta.attr.major_brand.markup">isom</property>
  <property name="kdenlive:original.meta.attr.minor_version.markup">512</property>
  <property name="kdenlive:original.meta.attr.compatible_brands.markup">isomiso2avc1mp41</property>
  <property name="kdenlive:original.meta.attr.encoder.markup">Lavf60.3.100</property>
  <property name="kdenlive:original.meta.attr.comment.markup">Rendered with Manim Community v0.17.2</property>
  <property name="kdenlive:original.seekable">1</property>
  <property name="kdenlive:original.width">3840</property>
  <property name="kdenlive:original.height">2160</property>
  <property name="kdenlive:original.meta.media.sample_aspect_num">1</property>
  <property name="kdenlive:original.meta.media.sample_aspect_den">1</property>
  <property name="kdenlive:original.aspect_ratio">1</property>
  <property name="kdenlive:original.format">3</property>
  <property name="kdenlive:original.audio_index">-1</property>
  <property name="kdenlive:original.video_index">0</property>
  <property name="kdenlive:original.mute_on_pause">0</property>
  <property name="kdenlive:original.mlt_service">avformat-novalidate</property>
  <property name="kdenlive:original.meta.media.frame_rate_num">60</property>
  <property name="kdenlive:original.meta.media.frame_rate_den">1</property>
  <property name="kdenlive:original.meta.media.colorspace">709</property>
  <property name="kdenlive:original.meta.media.color_trc">2</property>
  <property name="kdenlive:original.meta.media.has_b_frames">2</property>
  <property name="kdenlive:original.meta.media.width">3840</property>
  <property name="kdenlive:original.meta.media.height">2160</property>
  <property name="kdenlive:original.meta.media.color_range">mpeg</property>
  <property name="kdenlive:original.meta.media.top_field_first">0</property>
  <property name="kdenlive:original.meta.media.progressive">1</property>
  <property name="kdenlive:original.kdenlive:clip_type">2</property>
  <property name="kdenlive:original.kdenlive:folderid">344</property>
  <property name="kdenlive:original.kdenlive:id">357</property>
  <property name="kdenlive:original.kdenlive:file_size">64114</property>
  <property name="kdenlive:original.kdenlive:file_hash">4e7fc7be117bb203bebea57c43a16bc7</property>
  <property name="kdenlive:original.backup">1</property>
  <property name="xml">was here</property>
  <property name="meta.media.frame_rate_num">60</property>
  <property name="meta.media.frame_rate_den">1</property>
  <property name="meta.media.colorspace">601</property>
  <property name="meta.media.color_trc">2</property>
  <property name="meta.media.has_b_frames">0</property>
  <property name="meta.media.width">640</property>
  <property name="meta.media.height">360</property>
  <property name="meta.media.color_range">full</property>
  <property name="meta.media.top_field_first">0</property>
  <property name="meta.media.progressive">1</property>
  <property name="set.test_audio">1</property>
  <property name="set.test_image">0</property>
 </producer>
 <producer id="producer587" in="00:00:00.000" out="00:00:01.483">
  <property name="length">90</property>
  <property name="eof">pause</property>
  <property name="resource">/home/xiaoxiae/.cache/kdenlive/proxy/52c987c00dde3293fbe083198b4630b5.mkv</property>
  <property name="audio_index">-1</property>
  <property name="video_index">0</property>
  <property name="mute_on_pause">0</property>
  <property name="mlt_service">avformat-novalidate</property>
  <property name="meta.media.nb_streams">1</property>
  <property name="meta.media.0.stream.type">video</property>
  <property name="meta.media.0.stream.frame_rate">60</property>
  <property name="meta.media.0.stream.sample_aspect_ratio">0</property>
  <property name="meta.media.0.codec.width">640</property>
  <property name="meta.media.0.codec.height">360</property>
  <property name="meta.media.0.codec.rotate">0</property>
  <property name="meta.media.0.codec.pix_fmt">yuvj420p</property>
  <property name="meta.media.0.codec.sample_aspect_ratio">0</property>
  <property name="meta.media.0.codec.colorspace">601</property>
  <property name="meta.media.0.codec.name">mjpeg</property>
  <property name="meta.media.0.codec.long_name">MJPEG (Motion JPEG)</property>
  <property name="meta.media.0.codec.bit_rate">0</property>
  <property name="meta.attr.0.stream.HANDLER_NAME.markup">VideoHandler</property>
  <property name="meta.attr.0.stream.VENDOR_ID.markup">[0][0][0][0]</property>
  <property name="meta.attr.0.stream.ENCODER.markup">Lavc60.3.100 mjpeg</property>
  <property name="meta.attr.0.stream.DURATION.markup">00:00:01.500000000</property>
  <property name="meta.attr.COMMENT.markup">Rendered with Manim Community v0.17.2</property>
  <property name="meta.attr.MAJOR_BRAND.markup">isom</property>
  <property name="meta.attr.MINOR_VERSION.markup">512</property>
  <property name="meta.attr.COMPATIBLE_BRANDS.markup">isomiso2avc1mp41</property>
  <property name="meta.attr.ENCODER.markup">Lavf60.3.100</property>
  <property name="seekable">1</property>
  <property name="meta.media.sample_aspect_num">1</property>
  <property name="meta.media.sample_aspect_den">1</property>
  <property name="aspect_ratio">1</property>
  <property name="format">3</property>
  <property name="kdenlive:clipname">21.mp4</property>
  <property name="kdenlive:clip_type">2</property>
  <property name="kdenlive:folderid">344</property>
  <property name="kdenlive:id">356</property>
  <property name="kdenlive:file_size">187072</property>
  <property name="kdenlive:file_hash">52c987c00dde3293fbe083198b4630b5</property>
  <property name="kdenlive:proxy">/home/xiaoxiae/.cache/kdenlive/proxy/52c987c00dde3293fbe083198b4630b5.mkv</property>
  <property name="kdenlive:originalurl">video/Basics/21.mp4</property>
  <property name="kdenlive:original.mlt_type">producer</property>
  <property name="kdenlive:original.in">00:00:00.000</property>
  <property name="kdenlive:original.out">00:00:01.483</property>
  <property name="kdenlive:original.length">90</property>
  <property name="kdenlive:original.eof">pause</property>
  <property name="kdenlive:original.resource">video/Basics/21.mp4</property>
  <property name="kdenlive:original.meta.media.nb_streams">1</property>
  <property name="kdenlive:original.meta.media.0.stream.type">video</property>
  <property name="kdenlive:original.meta.media.0.stream.frame_rate">60</property>
  <property name="kdenlive:original.meta.media.0.stream.sample_aspect_ratio">0</property>
  <property name="kdenlive:original.meta.media.0.codec.width">3840</property>
  <property name="kdenlive:original.meta.media.0.codec.height">2160</property>
  <property name="kdenlive:original.meta.media.0.codec.rotate">0</property>
  <property name="kdenlive:original.meta.media.0.codec.pix_fmt">yuv420p</property>
  <property name="kdenlive:original.meta.media.0.codec.sample_aspect_ratio">0</property>
  <property name="kdenlive:original.meta.media.0.codec.colorspace">709</property>
  <property name="kdenlive:original.meta.media.0.codec.name">h264</property>
  <property name="kdenlive:original.meta.media.0.codec.long_name">H.264 / AVC / MPEG-4 AVC / MPEG-4 part 10</property>
  <property name="kdenlive:original.meta.media.0.codec.bit_rate">987098</property>
  <property name="kdenlive:original.meta.attr.0.stream.handler_name.markup">VideoHandler</property>
  <property name="kdenlive:original.meta.attr.0.stream.vendor_id.markup">[0][0][0][0]</property>
  <property name="kdenlive:original.meta.attr.0.stream.encoder.markup">Lavc60.3.100 libx264</property>
  <property name="kdenlive:original.meta.attr.major_brand.markup">isom</property>
  <property name="kdenlive:original.meta.attr.minor_version.markup">512</property>
  <property name="kdenlive:original.meta.attr.compatible_brands.markup">isomiso2avc1mp41</property>
  <property name="kdenlive:original.meta.attr.encoder.markup">Lavf60.3.100</property>
  <property name="kdenlive:original.meta.attr.comment.markup">Rendered with Manim Community v0.17.2</property>
  <property name="kdenlive:original.seekable">1</property>
  <property name="kdenlive:original.width">3840</property>
  <property name="kdenlive:original.height">2160</property>
  <property name="kdenlive:original.meta.media.sample_aspect_num">1</property>
  <property name="kdenlive:original.meta.media.sample_aspect_den">1</property>
  <property name="kdenlive:original.aspect_ratio">1</property>
  <property name="kdenlive:original.format">3</property>
  <property name="kdenlive:original.audio_index">-1</property>
  <property name="kdenlive:original.video_index">0</property>
  <property name="kdenlive:original.mute_on_pause">0</property>
  <property name="kdenlive:original.mlt_service">avformat-novalidate</property>
  <property name="kdenlive:original.meta.media.frame_rate_num">60</property>
  <property name="kdenlive:original.meta.media.frame_rate_den">1</property>
  <property name="kdenlive:original.meta.media.colorspace">709</property>
  <property name="kdenlive:original.meta.media.color_trc">2</property>
  <property name="kdenlive:original.meta.media.has_b_frames">2</property>
  <property name="kdenlive:original.meta.media.width">3840</property>
  <property name="kdenlive:original.meta.media.height">2160</property>
  <property name="kdenlive:original.meta.media.color_range">mpeg</property>
  <property name="kdenlive:original.meta.media.top_field_first">0</property>
  <property name="kdenlive:original.meta.media.progressive">1</property>
  <property name="kdenlive:original.kdenlive:clip_type">2</property>
  <property name="kdenlive:original.kdenlive:folderid">344</property>
  <property name="kdenlive:original.kdenlive:id">358</property>
  <property name="kdenlive:original.kdenlive:file_size">187072</property>
  <property name="kdenlive:original.kdenlive:file_hash">52c987c00dde3293fbe083198b4630b5</property>
  <property name="kdenlive:original.backup">1</property>
  <property name="xml">was here</property>
  <property name="meta.media.frame_rate_num">60</property>
  <property name="meta.media.frame_rate_den">1</property>
  <property name="meta.media.colorspace">601</property>
  <property name="meta.media.color_trc">2</property>
  <property name="meta.media.has_b_frames">0</property>
  <property name="meta.media.width">640</property>
  <property name="meta.media.height">360</property>
  <property name="meta.media.color_range">full</property>
  <property name="meta.media.top_field_first">0</property>
  <property name="meta.media.progressive">1</property>
  <property name="set.test_audio">1</property>
  <property name="set.test_image">0</property>
 </producer>
 <producer id="producer588" in="00:00:00.000" out="00:00:01.483">
  <property name="length">90</property>
  <property name="eof">pause</property>
  <property name="resource">/home/xiaoxiae/.cache/kdenlive/proxy/81a4ab415fdf5c31ce4ea6c43341b891.mkv</property>
  <property name="audio_index">-1</property>
  <property name="video_index">0</property>
  <property name="mute_on_pause">0</property>
  <property name="mlt_service">avformat-novalidate</property>
  <property name="meta.media.nb_streams">1</property>
  <property name="meta.media.0.stream.type">video</property>
  <property name="meta.media.0.stream.frame_rate">60</property>
  <property name="meta.media.0.stream.sample_aspect_ratio">0</property>
  <property name="meta.media.0.codec.width">640</property>
  <property name="meta.media.0.codec.height">360</property>
  <property name="meta.media.0.codec.rotate">0</property>
  <property name="meta.media.0.codec.pix_fmt">yuvj420p</property>
  <property name="meta.media.0.codec.sample_aspect_ratio">0</property>
  <property name="meta.media.0.codec.colorspace">601</property>
  <property name="meta.media.0.codec.name">mjpeg</property>
  <property name="meta.media.0.codec.long_name">MJPEG (Motion JPEG)</property>
  <property name="meta.media.0.codec.bit_rate">0</property>
  <property name="meta.attr.0.stream.HANDLER_NAME.markup">VideoHandler</property>
  <property name="meta.attr.0.stream.VENDOR_ID.markup">[0][0][0][0]</property>
  <property name="meta.attr.0.stream.ENCODER.markup">Lavc60.3.100 mjpeg</property>
  <property name="meta.attr.0.stream.DURATION.markup">00:00:01.500000000</property>
  <property name="meta.attr.COMMENT.markup">Rendered with Manim Community v0.17.2</property>
  <property name="meta.attr.MAJOR_BRAND.markup">isom</property>
  <property name="meta.attr.MINOR_VERSION.markup">512</property>
  <property name="meta.attr.COMPATIBLE_BRANDS.markup">isomiso2avc1mp41</property>
  <property name="meta.attr.ENCODER.markup">Lavf60.3.100</property>
  <property name="seekable">1</property>
  <property name="meta.media.sample_aspect_num">1</property>
  <property name="meta.media.sample_aspect_den">1</property>
  <property name="aspect_ratio">1</property>
  <property name="format">3</property>
  <property name="kdenlive:clipname">22.mp4</property>
  <property name="kdenlive:clip_type">2</property>
  <property name="kdenlive:folderid">344</property>
  <property name="kdenlive:id">357</property>
  <property name="kdenlive:file_size">421554</property>
  <property name="kdenlive:file_hash">81a4ab415fdf5c31ce4ea6c43341b891</property>
  <property name="kdenlive:proxy">/home/xiaoxiae/.cache/kdenlive/proxy/81a4ab415fdf5c31ce4ea6c43341b891.mkv</property>
  <property name="kdenlive:originalurl">video/Basics/22.mp4</property>
  <property name="kdenlive:original.mlt_type">producer</property>
  <property name="kdenlive:original.in">00:00:00.000</property>
  <property name="kdenlive:original.out">00:00:01.483</property>
  <property name="kdenlive:original.length">90</property>
  <property name="kdenlive:original.eof">pause</property>
  <property name="kdenlive:original.resource">video/Basics/22.mp4</property>
  <property name="kdenlive:original.meta.media.nb_streams">1</property>
  <property name="kdenlive:original.meta.media.0.stream.type">video</property>
  <property name="kdenlive:original.meta.media.0.stream.frame_rate">60</property>
  <property name="kdenlive:original.meta.media.0.stream.sample_aspect_ratio">0</property>
  <property name="kdenlive:original.meta.media.0.codec.width">3840</property>
  <property name="kdenlive:original.meta.media.0.codec.height">2160</property>
  <property name="kdenlive:original.meta.media.0.codec.rotate">0</property>
  <property name="kdenlive:original.meta.media.0.codec.pix_fmt">yuv420p</property>
  <property name="kdenlive:original.meta.media.0.codec.sample_aspect_ratio">0</property>
  <property name="kdenlive:original.meta.media.0.codec.colorspace">709</property>
  <property name="kdenlive:original.meta.media.0.codec.name">h264</property>
  <property name="kdenlive:original.meta.media.0.codec.long_name">H.264 / AVC / MPEG-4 AVC / MPEG-4 part 10</property>
  <property name="kdenlive:original.meta.media.0.codec.bit_rate">2238480</property>
  <property name="kdenlive:original.meta.attr.0.stream.handler_name.markup">VideoHandler</property>
  <property name="kdenlive:original.meta.attr.0.stream.vendor_id.markup">[0][0][0][0]</property>
  <property name="kdenlive:original.meta.attr.0.stream.encoder.markup">Lavc60.3.100 libx264</property>
  <property name="kdenlive:original.meta.attr.major_brand.markup">isom</property>
  <property name="kdenlive:original.meta.attr.minor_version.markup">512</property>
  <property name="kdenlive:original.meta.attr.compatible_brands.markup">isomiso2avc1mp41</property>
  <property name="kdenlive:original.meta.attr.encoder.markup">Lavf60.3.100</property>
  <property name="kdenlive:original.meta.attr.comment.markup">Rendered with Manim Community v0.17.2</property>
  <property name="kdenlive:original.seekable">1</property>
  <property name="kdenlive:original.width">3840</property>
  <property name="kdenlive:original.height">2160</property>
  <property name="kdenlive:original.meta.media.sample_aspect_num">1</property>
  <property name="kdenlive:original.meta.media.sample_aspect_den">1</property>
  <property name="kdenlive:original.aspect_ratio">1</property>
  <property name="kdenlive:original.format">3</property>
  <property name="kdenlive:original.audio_index">-1</property>
  <property name="kdenlive:original.video_index">0</property>
  <property name="kdenlive:original.mute_on_pause">0</property>
  <property name="kdenlive:original.mlt_service">avformat-novalidate</property>
  <property name="kdenlive:original.meta.media.frame_rate_num">60</property>
  <property name="kdenlive:original.meta.media.frame_rate_den">1</property>
  <property name="kdenlive:original.meta.media.colorspace">709</property>
  <property name="kdenlive:original.meta.media.color_trc">2</property>
  <property name="kdenlive:original.meta.media.has_b_frames">2</property>
  <property name="kdenlive:original.meta.media.width">3840</property>
  <property name="kdenlive:original.meta.media.height">2160</property>
  <property name="kdenlive:original.meta.media.color_range">mpeg</property>
  <property name="kdenlive:original.meta.media.top_field_first">0</property>
  <property name="kdenlive:original.meta.media.progressive">1</property>
  <property name="kdenlive:original.kdenlive:clip_type">2</property>
  <property name="kdenlive:original.kdenlive:folderid">344</property>
  <property name="kdenlive:original.kdenlive:id">359</property>
  <property name="kdenlive:original.kdenlive:file_size">421554</property>
  <property name="kdenlive:original.kdenlive:file_hash">81a4ab415fdf5c31ce4ea6c43341b891</property>
  <property name="kdenlive:original.backup">1</property>
  <property name="xml">was here</property>
  <property name="meta.media.frame_rate_num">60</property>
  <property name="meta.media.frame_rate_den">1</property>
  <property name="meta.media.colorspace">601</property>
  <property name="meta.media.color_trc">2</property>
  <property name="meta.media.has_b_frames">0</property>
  <property name="meta.media.width">640</property>
  <property name="meta.media.height">360</property>
  <property name="meta.media.color_range">full</property>
  <property name="meta.media.top_field_first">0</property>
  <property name="meta.media.progressive">1</property>
  <property name="set.test_audio">1</property>
  <property name="set.test_image">0</property>
 </producer>
 <producer id="producer589" in="00:00:00.000" out="00:00:00.983">
  <property name="length">60</property>
  <property name="eof">pause</property>
  <property name="resource">/home/xiaoxiae/.cache/kdenlive/proxy/e862b3f5db5ab0da11fe170ffcbde460.mkv</property>
  <property name="audio_index">-1</property>
  <property name="video_index">0</property>
  <property name="mute_on_pause">0</property>
  <property name="mlt_service">avformat-novalidate</property>
  <property name="meta.media.nb_streams">1</property>
  <property name="meta.media.0.stream.type">video</property>
  <property name="meta.media.0.stream.frame_rate">60</property>
  <property name="meta.media.0.stream.sample_aspect_ratio">0</property>
  <property name="meta.media.0.codec.width">640</property>
  <property name="meta.media.0.codec.height">360</property>
  <property name="meta.media.0.codec.rotate">0</property>
  <property name="meta.media.0.codec.pix_fmt">yuvj420p</property>
  <property name="meta.media.0.codec.sample_aspect_ratio">0</property>
  <property name="meta.media.0.codec.colorspace">601</property>
  <property name="meta.media.0.codec.name">mjpeg</property>
  <property name="meta.media.0.codec.long_name">MJPEG (Motion JPEG)</property>
  <property name="meta.media.0.codec.bit_rate">0</property>
  <property name="meta.attr.0.stream.HANDLER_NAME.markup">VideoHandler</property>
  <property name="meta.attr.0.stream.VENDOR_ID.markup">[0][0][0][0]</property>
  <property name="meta.attr.0.stream.ENCODER.markup">Lavc60.3.100 mjpeg</property>
  <property name="meta.attr.0.stream.DURATION.markup">00:00:01.000000000</property>
  <property name="meta.attr.COMMENT.markup">Rendered with Manim Community v0.17.2</property>
  <property name="meta.attr.MAJOR_BRAND.markup">isom</property>
  <property name="meta.attr.MINOR_VERSION.markup">512</property>
  <property name="meta.attr.COMPATIBLE_BRANDS.markup">isomiso2avc1mp41</property>
  <property name="meta.attr.ENCODER.markup">Lavf60.3.100</property>
  <property name="seekable">1</property>
  <property name="meta.media.sample_aspect_num">1</property>
  <property name="meta.media.sample_aspect_den">1</property>
  <property name="aspect_ratio">1</property>
  <property name="format">3</property>
  <property name="kdenlive:clipname">23.mp4</property>
  <property name="kdenlive:clip_type">2</property>
  <property name="kdenlive:folderid">344</property>
  <property name="kdenlive:id">358</property>
  <property name="kdenlive:file_size">107047</property>
  <property name="kdenlive:file_hash">e862b3f5db5ab0da11fe170ffcbde460</property>
  <property name="kdenlive:proxy">/home/xiaoxiae/.cache/kdenlive/proxy/e862b3f5db5ab0da11fe170ffcbde460.mkv</property>
  <property name="kdenlive:originalurl">video/Basics/23.mp4</property>
  <property name="kdenlive:original.mlt_type">producer</property>
  <property name="kdenlive:original.in">00:00:00.000</property>
  <property name="kdenlive:original.out">00:00:00.983</property>
  <property name="kdenlive:original.length">60</property>
  <property name="kdenlive:original.eof">pause</property>
  <property name="kdenlive:original.resource">video/Basics/23.mp4</property>
  <property name="kdenlive:original.meta.media.nb_streams">1</property>
  <property name="kdenlive:original.meta.media.0.stream.type">video</property>
  <property name="kdenlive:original.meta.media.0.stream.frame_rate">60</property>
  <property name="kdenlive:original.meta.media.0.stream.sample_aspect_ratio">0</property>
  <property name="kdenlive:original.meta.media.0.codec.width">3840</property>
  <property name="kdenlive:original.meta.media.0.codec.height">2160</property>
  <property name="kdenlive:original.meta.media.0.codec.rotate">0</property>
  <property name="kdenlive:original.meta.media.0.codec.pix_fmt">yuv420p</property>
  <property name="kdenlive:original.meta.media.0.codec.sample_aspect_ratio">0</property>
  <property name="kdenlive:original.meta.media.0.codec.colorspace">709</property>
  <property name="kdenlive:original.meta.media.0.codec.name">h264</property>
  <property name="kdenlive:original.meta.media.0.codec.long_name">H.264 / AVC / MPEG-4 AVC / MPEG-4 part 10</property>
  <property name="kdenlive:original.meta.media.0.codec.bit_rate">843328</property>
  <property name="kdenlive:original.meta.attr.0.stream.handler_name.markup">VideoHandler</property>
  <property name="kdenlive:original.meta.attr.0.stream.vendor_id.markup">[0][0][0][0]</property>
  <property name="kdenlive:original.meta.attr.0.stream.encoder.markup">Lavc60.3.100 libx264</property>
  <property name="kdenlive:original.meta.attr.major_brand.markup">isom</property>
  <property name="kdenlive:original.meta.attr.minor_version.markup">512</property>
  <property name="kdenlive:original.meta.attr.compatible_brands.markup">isomiso2avc1mp41</property>
  <property name="kdenlive:original.meta.attr.encoder.markup">Lavf60.3.100</property>
  <property name="kdenlive:original.meta.attr.comment.markup">Rendered with Manim Community v0.17.2</property>
  <property name="kdenlive:original.seekable">1</property>
  <property name="kdenlive:original.width">3840</property>
  <property name="kdenlive:original.height">2160</property>
  <property name="kdenlive:original.meta.media.sample_aspect_num">1</property>
  <property name="kdenlive:original.meta.media.sample_aspect_den">1</property>
  <property name="kdenlive:original.aspect_ratio">1</property>
  <property name="kdenlive:original.format">3</property>
  <property name="kdenlive:original.audio_index">-1</property>
  <property name="kdenlive:original.video_index">0</property>
  <property name="kdenlive:original.mute_on_pause">0</property>
  <property name="kdenlive:original.mlt_service">avformat-novalidate</property>
  <property name="kdenlive:original.meta.media.frame_rate_num">60</property>
  <property name="kdenlive:original.meta.media.frame_rate_den">1</property>
  <property name="kdenlive:original.meta.media.colorspace">709</property>
  <property name="kdenlive:original.meta.media.color_trc">2</property>
  <property name="kdenlive:original.meta.media.has_b_frames">2</property>
  <property name="kdenlive:original.meta.media.width">3840</property>
  <property name="kdenlive:original.meta.media.height">2160</property>
  <property name="kdenlive:original.meta.media.color_range">mpeg</property>
  <property name="kdenlive:original.meta.media.top_field_first">0</property>
  <property name="kdenlive:original.meta.media.progressive">1</property>
  <property name="kdenlive:original.kdenlive:clip_type">2</property>
  <property name="kdenlive:original.kdenlive:folderid">344</property>
  <property name="kdenlive:original.kdenlive:id">360</property>
  <property name="kdenlive:original.kdenlive:file_size">107047</property>
  <property name="kdenlive:original.kdenlive:file_hash">e862b3f5db5ab0da11fe170ffcbde460</property>
  <property name="kdenlive:original.backup">1</property>
  <property name="xml">was here</property>
  <property name="meta.media.frame_rate_num">60</property>
  <property name="meta.media.frame_rate_den">1</property>
  <property name="meta.media.colorspace">601</property>
  <property name="meta.media.color_trc">2</property>
  <property name="meta.media.has_b_frames">0</property>
  <property name="meta.media.width">640</property>
  <property name="meta.media.height">360</property>
  <property name="meta.media.color_range">full</property>
  <property name="meta.media.top_field_first">0</property>
  <property name="meta.media.progressive">1</property>
  <property name="set.test_audio">1</property>
  <property name="set.test_image">0</property>
 </producer>
 <producer id="producer590" in="00:00:00.000" out="00:00:00.983">
  <property name="length">60</property>
  <property name="eof">pause</property>
  <property name="resource">/home/xiaoxiae/.cache/kdenlive/proxy/f44b75e8c168ff184062019d502967ab.mkv</property>
  <property name="audio_index">-1</property>
  <property name="video_index">0</property>
  <property name="mute_on_pause">0</property>
  <property name="mlt_service">avformat-novalidate</property>
  <property name="meta.media.nb_streams">1</property>
  <property name="meta.media.0.stream.type">video</property>
  <property name="meta.media.0.stream.frame_rate">60</property>
  <property name="meta.media.0.stream.sample_aspect_ratio">0</property>
  <property name="meta.media.0.codec.width">640</property>
  <property name="meta.media.0.codec.height">360</property>
  <property name="meta.media.0.codec.rotate">0</property>
  <property name="meta.media.0.codec.pix_fmt">yuvj420p</property>
  <property name="meta.media.0.codec.sample_aspect_ratio">0</property>
  <property name="meta.media.0.codec.colorspace">601</property>
  <property name="meta.media.0.codec.name">mjpeg</property>
  <property name="meta.media.0.codec.long_name">MJPEG (Motion JPEG)</property>
  <property name="meta.media.0.codec.bit_rate">0</property>
  <property name="meta.attr.0.stream.HANDLER_NAME.markup">VideoHandler</property>
  <property name="meta.attr.0.stream.VENDOR_ID.markup">[0][0][0][0]</property>
  <property name="meta.attr.0.stream.ENCODER.markup">Lavc60.3.100 mjpeg</property>
  <property name="meta.attr.0.stream.DURATION.markup">00:00:01.000000000</property>
  <property name="meta.attr.COMMENT.markup">Rendered with Manim Community v0.17.2</property>
  <property name="meta.attr.MAJOR_BRAND.markup">isom</property>
  <property name="meta.attr.MINOR_VERSION.markup">512</property>
  <property name="meta.attr.COMPATIBLE_BRANDS.markup">isomiso2avc1mp41</property>
  <property name="meta.attr.ENCODER.markup">Lavf60.3.100</property>
  <property name="seekable">1</property>
  <property name="meta.media.sample_aspect_num">1</property>
  <property name="meta.media.sample_aspect_den">1</property>
  <property name="aspect_ratio">1</property>
  <property name="format">3</property>
  <property name="kdenlive:clipname">24.mp4</property>
  <property name="kdenlive:clip_type">2</property>
  <property name="kdenlive:folderid">344</property>
  <property name="kdenlive:id">359</property>
  <property name="kdenlive:file_size">88403</property>
  <property name="kdenlive:file_hash">f44b75e8c168ff184062019d502967ab</property>
  <property name="kdenlive:proxy">/home/xiaoxiae/.cache/kdenlive/proxy/f44b75e8c168ff184062019d502967ab.mkv</property>
  <property name="kdenlive:originalurl">video/Basics/24.mp4</property>
  <property name="kdenlive:original.mlt_type">producer</property>
  <property name="kdenlive:original.in">00:00:00.000</property>
  <property name="kdenlive:original.out">00:00:00.983</property>
  <property name="kdenlive:original.length">60</property>
  <property name="kdenlive:original.eof">pause</property>
  <property name="kdenlive:original.resource">video/Basics/24.mp4</property>
  <property name="kdenlive:original.meta.media.nb_streams">1</property>
  <property name="kdenlive:original.meta.media.0.stream.type">video</property>
  <property name="kdenlive:original.meta.media.0.stream.frame_rate">60</property>
  <property name="kdenlive:original.meta.media.0.stream.sample_aspect_ratio">0</property>
  <property name="kdenlive:original.meta.media.0.codec.width">3840</property>
  <property name="kdenlive:original.meta.media.0.codec.height">2160</property>
  <property name="kdenlive:original.meta.media.0.codec.rotate">0</property>
  <property name="kdenlive:original.meta.media.0.codec.pix_fmt">yuv420p</property>
  <property name="kdenlive:original.meta.media.0.codec.sample_aspect_ratio">0</property>
  <property name="kdenlive:original.meta.media.0.codec.colorspace">709</property>
  <property name="kdenlive:original.meta.media.0.codec.name">h264</property>
  <property name="kdenlive:original.meta.media.0.codec.long_name">H.264 / AVC / MPEG-4 AVC / MPEG-4 part 10</property>
  <property name="kdenlive:original.meta.media.0.codec.bit_rate">694176</property>
  <property name="kdenlive:original.meta.attr.0.stream.handler_name.markup">VideoHandler</property>
  <property name="kdenlive:original.meta.attr.0.stream.vendor_id.markup">[0][0][0][0]</property>
  <property name="kdenlive:original.meta.attr.0.stream.encoder.markup">Lavc60.3.100 libx264</property>
  <property name="kdenlive:original.meta.attr.major_brand.markup">isom</property>
  <property name="kdenlive:original.meta.attr.minor_version.markup">512</property>
  <property name="kdenlive:original.meta.attr.compatible_brands.markup">isomiso2avc1mp41</property>
  <property name="kdenlive:original.meta.attr.encoder.markup">Lavf60.3.100</property>
  <property name="kdenlive:original.meta.attr.comment.markup">Rendered with Manim Community v0.17.2</property>
  <property name="kdenlive:original.seekable">1</property>
  <property name="kdenlive:original.width">3840</property>
  <property name="kdenlive:original.height">2160</property>
  <property name="kdenlive:original.meta.media.sample_aspect_num">1</property>
  <property name="kdenlive:original.meta.media.sample_aspect_den">1</property>
  <property name="kdenlive:original.aspect_ratio">1</property>
  <property name="kdenlive:original.format">3</property>
  <property name="kdenlive:original.audio_index">-1</property>
  <property name="kdenlive:original.video_index">0</property>
  <property name="kdenlive:original.mute_on_pause">0</property>
  <property name="kdenlive:original.mlt_service">avformat-novalidate</property>
  <property name="kdenlive:original.meta.media.frame_rate_num">60</property>
  <property name="kdenlive:original.meta.media.frame_rate_den">1</property>
  <property name="kdenlive:original.meta.media.colorspace">709</property>
  <property name="kdenlive:original.meta.media.color_trc">2</property>
  <property name="kdenlive:original.meta.media.has_b_frames">2</property>
  <property name="kdenlive:original.meta.media.width">3840</property>
  <property name="kdenlive:original.meta.media.height">2160</property>
  <property name="kdenlive:original.meta.media.color_range">mpeg</property>
  <property name="kdenlive:original.meta.media.top_field_first">0</property>
  <property name="kdenlive:original.meta.media.progressive">1</property>
  <property name="kdenlive:original.kdenlive:clip_type">2</property>
  <property name="kdenlive:original.kdenlive:folderid">344</property>
  <property name="kdenlive:original.kdenlive:id">361</property>
  <property name="kdenlive:original.kdenlive:file_size">88403</property>
  <property name="kdenlive:original.kdenlive:file_hash">f44b75e8c168ff184062019d502967ab</property>
  <property name="kdenlive:original.backup">1</property>
  <property name="xml">was here</property>
  <property name="meta.media.frame_rate_num">60</property>
  <property name="meta.media.frame_rate_den">1</property>
  <property name="meta.media.colorspace">601</property>
  <property name="meta.media.color_trc">2</property>
  <property name="meta.media.has_b_frames">0</property>
  <property name="meta.media.width">640</property>
  <property name="meta.media.height">360</property>
  <property name="meta.media.color_range">full</property>
  <property name="meta.media.top_field_first">0</property>
  <property name="meta.media.progressive">1</property>
  <property name="set.test_audio">1</property>
  <property name="set.test_image">0</property>
 </producer>
 <producer id="producer591" in="00:00:00.000" out="00:00:00.983">
  <property name="length">60</property>
  <property name="eof">pause</property>
  <property name="resource">/home/xiaoxiae/.cache/kdenlive/proxy/da823a49a14f63cf1d1d1794f6a17321.mkv</property>
  <property name="audio_index">-1</property>
  <property name="video_index">0</property>
  <property name="mute_on_pause">0</property>
  <property name="mlt_service">avformat-novalidate</property>
  <property name="meta.media.nb_streams">1</property>
  <property name="meta.media.0.stream.type">video</property>
  <property name="meta.media.0.stream.frame_rate">60</property>
  <property name="meta.media.0.stream.sample_aspect_ratio">0</property>
  <property name="meta.media.0.codec.width">640</property>
  <property name="meta.media.0.codec.height">360</property>
  <property name="meta.media.0.codec.rotate">0</property>
  <property name="meta.media.0.codec.pix_fmt">yuvj420p</property>
  <property name="meta.media.0.codec.sample_aspect_ratio">0</property>
  <property name="meta.media.0.codec.colorspace">601</property>
  <property name="meta.media.0.codec.name">mjpeg</property>
  <property name="meta.media.0.codec.long_name">MJPEG (Motion JPEG)</property>
  <property name="meta.media.0.codec.bit_rate">0</property>
  <property name="meta.attr.0.stream.HANDLER_NAME.markup">VideoHandler</property>
  <property name="meta.attr.0.stream.VENDOR_ID.markup">[0][0][0][0]</property>
  <property name="meta.attr.0.stream.ENCODER.markup">Lavc60.3.100 mjpeg</property>
  <property name="meta.attr.0.stream.DURATION.markup">00:00:01.000000000</property>
  <property name="meta.attr.COMMENT.markup">Rendered with Manim Community v0.17.2</property>
  <property name="meta.attr.MAJOR_BRAND.markup">isom</property>
  <property name="meta.attr.MINOR_VERSION.markup">512</property>
  <property name="meta.attr.COMPATIBLE_BRANDS.markup">isomiso2avc1mp41</property>
  <property name="meta.attr.ENCODER.markup">Lavf60.3.100</property>
  <property name="seekable">1</property>
  <property name="meta.media.sample_aspect_num">1</property>
  <property name="meta.media.sample_aspect_den">1</property>
  <property name="aspect_ratio">1</property>
  <property name="format">3</property>
  <property name="kdenlive:clipname">25.mp4</property>
  <property name="kdenlive:clip_type">2</property>
  <property name="kdenlive:folderid">344</property>
  <property name="kdenlive:id">360</property>
  <property name="kdenlive:file_size">87555</property>
  <property name="kdenlive:file_hash">da823a49a14f63cf1d1d1794f6a17321</property>
  <property name="kdenlive:proxy">/home/xiaoxiae/.cache/kdenlive/proxy/da823a49a14f63cf1d1d1794f6a17321.mkv</property>
  <property name="kdenlive:originalurl">video/Basics/25.mp4</property>
  <property name="kdenlive:original.mlt_type">producer</property>
  <property name="kdenlive:original.in">00:00:00.000</property>
  <property name="kdenlive:original.out">00:00:00.983</property>
  <property name="kdenlive:original.length">60</property>
  <property name="kdenlive:original.eof">pause</property>
  <property name="kdenlive:original.resource">video/Basics/25.mp4</property>
  <property name="kdenlive:original.meta.media.nb_streams">1</property>
  <property name="kdenlive:original.meta.media.0.stream.type">video</property>
  <property name="kdenlive:original.meta.media.0.stream.frame_rate">60</property>
  <property name="kdenlive:original.meta.media.0.stream.sample_aspect_ratio">0</property>
  <property name="kdenlive:original.meta.media.0.codec.width">3840</property>
  <property name="kdenlive:original.meta.media.0.codec.height">2160</property>
  <property name="kdenlive:original.meta.media.0.codec.rotate">0</property>
  <property name="kdenlive:original.meta.media.0.codec.pix_fmt">yuv420p</property>
  <property name="kdenlive:original.meta.media.0.codec.sample_aspect_ratio">0</property>
  <property name="kdenlive:original.meta.media.0.codec.colorspace">709</property>
  <property name="kdenlive:original.meta.media.0.codec.name">h264</property>
  <property name="kdenlive:original.meta.media.0.codec.long_name">H.264 / AVC / MPEG-4 AVC / MPEG-4 part 10</property>
  <property name="kdenlive:original.meta.media.0.codec.bit_rate">687392</property>
  <property name="kdenlive:original.meta.attr.0.stream.handler_name.markup">VideoHandler</property>
  <property name="kdenlive:original.meta.attr.0.stream.vendor_id.markup">[0][0][0][0]</property>
  <property name="kdenlive:original.meta.attr.0.stream.encoder.markup">Lavc60.3.100 libx264</property>
  <property name="kdenlive:original.meta.attr.major_brand.markup">isom</property>
  <property name="kdenlive:original.meta.attr.minor_version.markup">512</property>
  <property name="kdenlive:original.meta.attr.compatible_brands.markup">isomiso2avc1mp41</property>
  <property name="kdenlive:original.meta.attr.encoder.markup">Lavf60.3.100</property>
  <property name="kdenlive:original.meta.attr.comment.markup">Rendered with Manim Community v0.17.2</property>
  <property name="kdenlive:original.seekable">1</property>
  <property name="kdenlive:original.width">3840</property>
  <property name="kdenlive:original.height">2160</property>
  <property name="kdenlive:original.meta.media.sample_aspect_num">1</property>
  <property name="kdenlive:original.meta.media.sample_aspect_den">1</property>
  <property name="kdenlive:original.aspect_ratio">1</property>
  <property name="kdenlive:original.format">3</property>
  <property name="kdenlive:original.audio_index">-1</property>
  <property name="kdenlive:original.video_index">0</property>
  <property name="kdenlive:original.mute_on_pause">0</property>
  <property name="kdenlive:original.mlt_service">avformat-novalidate</property>
  <property name="kdenlive:original.meta.media.frame_rate_num">60</property>
  <property name="kdenlive:original.meta.media.frame_rate_den">1</property>
  <property name="kdenlive:original.meta.media.colorspace">709</property>
  <property name="kdenlive:original.meta.media.color_trc">2</property>
  <property name="kdenlive:original.meta.media.has_b_frames">2</property>
  <property name="kdenlive:original.meta.media.width">3840</property>
  <property name="kdenlive:original.meta.media.height">2160</property>
  <property name="kdenlive:original.meta.media.color_range">mpeg</property>
  <property name="kdenlive:original.meta.media.top_field_first">0</property>
  <property name="kdenlive:original.meta.media.progressive">1</property>
  <property name="kdenlive:original.kdenlive:clip_type">2</property>
  <property name="kdenlive:original.kdenlive:folderid">344</property>
  <property name="kdenlive:original.kdenlive:id">362</property>
  <property name="kdenlive:original.kdenlive:file_size">87555</property>
  <property name="kdenlive:original.kdenlive:file_hash">da823a49a14f63cf1d1d1794f6a17321</property>
  <property name="kdenlive:original.backup">1</property>
  <property name="xml">was here</property>
  <property name="meta.media.frame_rate_num">60</property>
  <property name="meta.media.frame_rate_den">1</property>
  <property name="meta.media.colorspace">601</property>
  <property name="meta.media.color_trc">2</property>
  <property name="meta.media.has_b_frames">0</property>
  <property name="meta.media.width">640</property>
  <property name="meta.media.height">360</property>
  <property name="meta.media.color_range">full</property>
  <property name="meta.media.top_field_first">0</property>
  <property name="meta.media.progressive">1</property>
  <property name="set.test_audio">1</property>
  <property name="set.test_image">0</property>
 </producer>
 <producer id="producer592" in="00:00:00.000" out="00:00:00.983">
  <property name="length">60</property>
  <property name="eof">pause</property>
  <property name="resource">/home/xiaoxiae/.cache/kdenlive/proxy/2474618b91ee52016c692ce1cf7787e4.mkv</property>
  <property name="audio_index">-1</property>
  <property name="video_index">0</property>
  <property name="mute_on_pause">0</property>
  <property name="mlt_service">avformat-novalidate</property>
  <property name="meta.media.nb_streams">1</property>
  <property name="meta.media.0.stream.type">video</property>
  <property name="meta.media.0.stream.frame_rate">60</property>
  <property name="meta.media.0.stream.sample_aspect_ratio">0</property>
  <property name="meta.media.0.codec.width">640</property>
  <property name="meta.media.0.codec.height">360</property>
  <property name="meta.media.0.codec.rotate">0</property>
  <property name="meta.media.0.codec.pix_fmt">yuvj420p</property>
  <property name="meta.media.0.codec.sample_aspect_ratio">0</property>
  <property name="meta.media.0.codec.colorspace">601</property>
  <property name="meta.media.0.codec.name">mjpeg</property>
  <property name="meta.media.0.codec.long_name">MJPEG (Motion JPEG)</property>
  <property name="meta.media.0.codec.bit_rate">0</property>
  <property name="meta.attr.0.stream.HANDLER_NAME.markup">VideoHandler</property>
  <property name="meta.attr.0.stream.VENDOR_ID.markup">[0][0][0][0]</property>
  <property name="meta.attr.0.stream.ENCODER.markup">Lavc60.3.100 mjpeg</property>
  <property name="meta.attr.0.stream.DURATION.markup">00:00:01.000000000</property>
  <property name="meta.attr.COMMENT.markup">Rendered with Manim Community v0.17.2</property>
  <property name="meta.attr.MAJOR_BRAND.markup">isom</property>
  <property name="meta.attr.MINOR_VERSION.markup">512</property>
  <property name="meta.attr.COMPATIBLE_BRANDS.markup">isomiso2avc1mp41</property>
  <property name="meta.attr.ENCODER.markup">Lavf60.3.100</property>
  <property name="seekable">1</property>
  <property name="meta.media.sample_aspect_num">1</property>
  <property name="meta.media.sample_aspect_den">1</property>
  <property name="aspect_ratio">1</property>
  <property name="format">3</property>
  <property name="kdenlive:clipname">26.mp4</property>
  <property name="kdenlive:clip_type">2</property>
  <property name="kdenlive:folderid">344</property>
  <property name="kdenlive:id">361</property>
  <property name="kdenlive:file_size">91204</property>
  <property name="kdenlive:file_hash">2474618b91ee52016c692ce1cf7787e4</property>
  <property name="kdenlive:proxy">/home/xiaoxiae/.cache/kdenlive/proxy/2474618b91ee52016c692ce1cf7787e4.mkv</property>
  <property name="kdenlive:originalurl">video/Basics/26.mp4</property>
  <property name="kdenlive:original.mlt_type">producer</property>
  <property name="kdenlive:original.in">00:00:00.000</property>
  <property name="kdenlive:original.out">00:00:00.983</property>
  <property name="kdenlive:original.length">60</property>
  <property name="kdenlive:original.eof">pause</property>
  <property name="kdenlive:original.resource">video/Basics/26.mp4</property>
  <property name="kdenlive:original.meta.media.nb_streams">1</property>
  <property name="kdenlive:original.meta.media.0.stream.type">video</property>
  <property name="kdenlive:original.meta.media.0.stream.frame_rate">60</property>
  <property name="kdenlive:original.meta.media.0.stream.sample_aspect_ratio">0</property>
  <property name="kdenlive:original.meta.media.0.codec.width">3840</property>
  <property name="kdenlive:original.meta.media.0.codec.height">2160</property>
  <property name="kdenlive:original.meta.media.0.codec.rotate">0</property>
  <property name="kdenlive:original.meta.media.0.codec.pix_fmt">yuv420p</property>
  <property name="kdenlive:original.meta.media.0.codec.sample_aspect_ratio">0</property>
  <property name="kdenlive:original.meta.media.0.codec.colorspace">709</property>
  <property name="kdenlive:original.meta.media.0.codec.name">h264</property>
  <property name="kdenlive:original.meta.media.0.codec.long_name">H.264 / AVC / MPEG-4 AVC / MPEG-4 part 10</property>
  <property name="kdenlive:original.meta.media.0.codec.bit_rate">716584</property>
  <property name="kdenlive:original.meta.attr.0.stream.handler_name.markup">VideoHandler</property>
  <property name="kdenlive:original.meta.attr.0.stream.vendor_id.markup">[0][0][0][0]</property>
  <property name="kdenlive:original.meta.attr.0.stream.encoder.markup">Lavc60.3.100 libx264</property>
  <property name="kdenlive:original.meta.attr.major_brand.markup">isom</property>
  <property name="kdenlive:original.meta.attr.minor_version.markup">512</property>
  <property name="kdenlive:original.meta.attr.compatible_brands.markup">isomiso2avc1mp41</property>
  <property name="kdenlive:original.meta.attr.encoder.markup">Lavf60.3.100</property>
  <property name="kdenlive:original.meta.attr.comment.markup">Rendered with Manim Community v0.17.2</property>
  <property name="kdenlive:original.seekable">1</property>
  <property name="kdenlive:original.width">3840</property>
  <property name="kdenlive:original.height">2160</property>
  <property name="kdenlive:original.meta.media.sample_aspect_num">1</property>
  <property name="kdenlive:original.meta.media.sample_aspect_den">1</property>
  <property name="kdenlive:original.aspect_ratio">1</property>
  <property name="kdenlive:original.format">3</property>
  <property name="kdenlive:original.audio_index">-1</property>
  <property name="kdenlive:original.video_index">0</property>
  <property name="kdenlive:original.mute_on_pause">0</property>
  <property name="kdenlive:original.mlt_service">avformat-novalidate</property>
  <property name="kdenlive:original.meta.media.frame_rate_num">60</property>
  <property name="kdenlive:original.meta.media.frame_rate_den">1</property>
  <property name="kdenlive:original.meta.media.colorspace">709</property>
  <property name="kdenlive:original.meta.media.color_trc">2</property>
  <property name="kdenlive:original.meta.media.has_b_frames">2</property>
  <property name="kdenlive:original.meta.media.width">3840</property>
  <property name="kdenlive:original.meta.media.height">2160</property>
  <property name="kdenlive:original.meta.media.color_range">mpeg</property>
  <property name="kdenlive:original.meta.media.top_field_first">0</property>
  <property name="kdenlive:original.meta.media.progressive">1</property>
  <property name="kdenlive:original.kdenlive:clip_type">2</property>
  <property name="kdenlive:original.kdenlive:folderid">344</property>
  <property name="kdenlive:original.kdenlive:id">363</property>
  <property name="kdenlive:original.kdenlive:file_size">91204</property>
  <property name="kdenlive:original.kdenlive:file_hash">2474618b91ee52016c692ce1cf7787e4</property>
  <property name="kdenlive:original.backup">1</property>
  <property name="xml">was here</property>
  <property name="meta.media.frame_rate_num">60</property>
  <property name="meta.media.frame_rate_den">1</property>
  <property name="meta.media.colorspace">601</property>
  <property name="meta.media.color_trc">2</property>
  <property name="meta.media.has_b_frames">0</property>
  <property name="meta.media.width">640</property>
  <property name="meta.media.height">360</property>
  <property name="meta.media.color_range">full</property>
  <property name="meta.media.top_field_first">0</property>
  <property name="meta.media.progressive">1</property>
  <property name="set.test_audio">1</property>
  <property name="set.test_image">0</property>
 </producer>
 <producer id="producer593" in="00:00:00.000" out="00:00:00.983">
  <property name="length">60</property>
  <property name="eof">pause</property>
  <property name="resource">/home/xiaoxiae/.cache/kdenlive/proxy/978c63d4f8e0f682ba8598b2b9213628.mkv</property>
  <property name="audio_index">-1</property>
  <property name="video_index">0</property>
  <property name="mute_on_pause">0</property>
  <property name="mlt_service">avformat-novalidate</property>
  <property name="meta.media.nb_streams">1</property>
  <property name="meta.media.0.stream.type">video</property>
  <property name="meta.media.0.stream.frame_rate">60</property>
  <property name="meta.media.0.stream.sample_aspect_ratio">0</property>
  <property name="meta.media.0.codec.width">640</property>
  <property name="meta.media.0.codec.height">360</property>
  <property name="meta.media.0.codec.rotate">0</property>
  <property name="meta.media.0.codec.pix_fmt">yuvj420p</property>
  <property name="meta.media.0.codec.sample_aspect_ratio">0</property>
  <property name="meta.media.0.codec.colorspace">601</property>
  <property name="meta.media.0.codec.name">mjpeg</property>
  <property name="meta.media.0.codec.long_name">MJPEG (Motion JPEG)</property>
  <property name="meta.media.0.codec.bit_rate">0</property>
  <property name="meta.attr.0.stream.HANDLER_NAME.markup">VideoHandler</property>
  <property name="meta.attr.0.stream.VENDOR_ID.markup">[0][0][0][0]</property>
  <property name="meta.attr.0.stream.ENCODER.markup">Lavc60.3.100 mjpeg</property>
  <property name="meta.attr.0.stream.DURATION.markup">00:00:01.000000000</property>
  <property name="meta.attr.COMMENT.markup">Rendered with Manim Community v0.17.2</property>
  <property name="meta.attr.MAJOR_BRAND.markup">isom</property>
  <property name="meta.attr.MINOR_VERSION.markup">512</property>
  <property name="meta.attr.COMPATIBLE_BRANDS.markup">isomiso2avc1mp41</property>
  <property name="meta.attr.ENCODER.markup">Lavf60.3.100</property>
  <property name="seekable">1</property>
  <property name="meta.media.sample_aspect_num">1</property>
  <property name="meta.media.sample_aspect_den">1</property>
  <property name="aspect_ratio">1</property>
  <property name="format">3</property>
  <property name="kdenlive:clipname">27.mp4</property>
  <property name="kdenlive:clip_type">2</property>
  <property name="kdenlive:folderid">344</property>
  <property name="kdenlive:id">362</property>
  <property name="kdenlive:file_size">87804</property>
  <property name="kdenlive:file_hash">978c63d4f8e0f682ba8598b2b9213628</property>
  <property name="kdenlive:proxy">/home/xiaoxiae/.cache/kdenlive/proxy/978c63d4f8e0f682ba8598b2b9213628.mkv</property>
  <property name="kdenlive:originalurl">video/Basics/27.mp4</property>
  <property name="kdenlive:original.mlt_type">producer</property>
  <property name="kdenlive:original.in">00:00:00.000</property>
  <property name="kdenlive:original.out">00:00:00.983</property>
  <property name="kdenlive:original.length">60</property>
  <property name="kdenlive:original.eof">pause</property>
  <property name="kdenlive:original.resource">video/Basics/27.mp4</property>
  <property name="kdenlive:original.meta.media.nb_streams">1</property>
  <property name="kdenlive:original.meta.media.0.stream.type">video</property>
  <property name="kdenlive:original.meta.media.0.stream.frame_rate">60</property>
  <property name="kdenlive:original.meta.media.0.stream.sample_aspect_ratio">0</property>
  <property name="kdenlive:original.meta.media.0.codec.width">3840</property>
  <property name="kdenlive:original.meta.media.0.codec.height">2160</property>
  <property name="kdenlive:original.meta.media.0.codec.rotate">0</property>
  <property name="kdenlive:original.meta.media.0.codec.pix_fmt">yuv420p</property>
  <property name="kdenlive:original.meta.media.0.codec.sample_aspect_ratio">0</property>
  <property name="kdenlive:original.meta.media.0.codec.colorspace">709</property>
  <property name="kdenlive:original.meta.media.0.codec.name">h264</property>
  <property name="kdenlive:original.meta.media.0.codec.long_name">H.264 / AVC / MPEG-4 AVC / MPEG-4 part 10</property>
  <property name="kdenlive:original.meta.media.0.codec.bit_rate">689384</property>
  <property name="kdenlive:original.meta.attr.0.stream.handler_name.markup">VideoHandler</property>
  <property name="kdenlive:original.meta.attr.0.stream.vendor_id.markup">[0][0][0][0]</property>
  <property name="kdenlive:original.meta.attr.0.stream.encoder.markup">Lavc60.3.100 libx264</property>
  <property name="kdenlive:original.meta.attr.major_brand.markup">isom</property>
  <property name="kdenlive:original.meta.attr.minor_version.markup">512</property>
  <property name="kdenlive:original.meta.attr.compatible_brands.markup">isomiso2avc1mp41</property>
  <property name="kdenlive:original.meta.attr.encoder.markup">Lavf60.3.100</property>
  <property name="kdenlive:original.meta.attr.comment.markup">Rendered with Manim Community v0.17.2</property>
  <property name="kdenlive:original.seekable">1</property>
  <property name="kdenlive:original.width">3840</property>
  <property name="kdenlive:original.height">2160</property>
  <property name="kdenlive:original.meta.media.sample_aspect_num">1</property>
  <property name="kdenlive:original.meta.media.sample_aspect_den">1</property>
  <property name="kdenlive:original.aspect_ratio">1</property>
  <property name="kdenlive:original.format">3</property>
  <property name="kdenlive:original.audio_index">-1</property>
  <property name="kdenlive:original.video_index">0</property>
  <property name="kdenlive:original.mute_on_pause">0</property>
  <property name="kdenlive:original.mlt_service">avformat-novalidate</property>
  <property name="kdenlive:original.meta.media.frame_rate_num">60</property>
  <property name="kdenlive:original.meta.media.frame_rate_den">1</property>
  <property name="kdenlive:original.meta.media.colorspace">709</property>
  <property name="kdenlive:original.meta.media.color_trc">2</property>
  <property name="kdenlive:original.meta.media.has_b_frames">2</property>
  <property name="kdenlive:original.meta.media.width">3840</property>
  <property name="kdenlive:original.meta.media.height">2160</property>
  <property name="kdenlive:original.meta.media.color_range">mpeg</property>
  <property name="kdenlive:original.meta.media.top_field_first">0</property>
  <property name="kdenlive:original.meta.media.progressive">1</property>
  <property name="kdenlive:original.kdenlive:clip_type">2</property>
  <property name="kdenlive:original.kdenlive:folderid">344</property>
  <property name="kdenlive:original.kdenlive:id">364</property>
  <property name="kdenlive:original.kdenlive:file_size">87804</property>
  <property name="kdenlive:original.kdenlive:file_hash">978c63d4f8e0f682ba8598b2b9213628</property>
  <property name="kdenlive:original.backup">1</property>
  <property name="xml">was here</property>
  <property name="meta.media.frame_rate_num">60</property>
  <property name="meta.media.frame_rate_den">1</property>
  <property name="meta.media.colorspace">601</property>
  <property name="meta.media.color_trc">2</property>
  <property name="meta.media.has_b_frames">0</property>
  <property name="meta.media.width">640</property>
  <property name="meta.media.height">360</property>
  <property name="meta.media.color_range">full</property>
  <property name="meta.media.top_field_first">0</property>
  <property name="meta.media.progressive">1</property>
  <property name="set.test_audio">1</property>
  <property name="set.test_image">0</property>
 </producer>
 <producer id="producer594" in="00:00:00.000" out="00:00:00.983">
  <property name="length">60</property>
  <property name="eof">pause</property>
  <property name="resource">/home/xiaoxiae/.cache/kdenlive/proxy/fca56e22721bdf64d69f85f8e61152e6.mkv</property>
  <property name="audio_index">-1</property>
  <property name="video_index">0</property>
  <property name="mute_on_pause">0</property>
  <property name="mlt_service">avformat-novalidate</property>
  <property name="meta.media.nb_streams">1</property>
  <property name="meta.media.0.stream.type">video</property>
  <property name="meta.media.0.stream.frame_rate">60</property>
  <property name="meta.media.0.stream.sample_aspect_ratio">0</property>
  <property name="meta.media.0.codec.width">640</property>
  <property name="meta.media.0.codec.height">360</property>
  <property name="meta.media.0.codec.rotate">0</property>
  <property name="meta.media.0.codec.pix_fmt">yuvj420p</property>
  <property name="meta.media.0.codec.sample_aspect_ratio">0</property>
  <property name="meta.media.0.codec.colorspace">601</property>
  <property name="meta.media.0.codec.name">mjpeg</property>
  <property name="meta.media.0.codec.long_name">MJPEG (Motion JPEG)</property>
  <property name="meta.media.0.codec.bit_rate">0</property>
  <property name="meta.attr.0.stream.HANDLER_NAME.markup">VideoHandler</property>
  <property name="meta.attr.0.stream.VENDOR_ID.markup">[0][0][0][0]</property>
  <property name="meta.attr.0.stream.ENCODER.markup">Lavc60.3.100 mjpeg</property>
  <property name="meta.attr.0.stream.DURATION.markup">00:00:01.000000000</property>
  <property name="meta.attr.COMMENT.markup">Rendered with Manim Community v0.17.2</property>
  <property name="meta.attr.MAJOR_BRAND.markup">isom</property>
  <property name="meta.attr.MINOR_VERSION.markup">512</property>
  <property name="meta.attr.COMPATIBLE_BRANDS.markup">isomiso2avc1mp41</property>
  <property name="meta.attr.ENCODER.markup">Lavf60.3.100</property>
  <property name="seekable">1</property>
  <property name="meta.media.sample_aspect_num">1</property>
  <property name="meta.media.sample_aspect_den">1</property>
  <property name="aspect_ratio">1</property>
  <property name="format">3</property>
  <property name="kdenlive:clipname">28.mp4</property>
  <property name="kdenlive:clip_type">2</property>
  <property name="kdenlive:folderid">344</property>
  <property name="kdenlive:id">363</property>
  <property name="kdenlive:file_size">94246</property>
  <property name="kdenlive:file_hash">fca56e22721bdf64d69f85f8e61152e6</property>
  <property name="kdenlive:proxy">/home/xiaoxiae/.cache/kdenlive/proxy/fca56e22721bdf64d69f85f8e61152e6.mkv</property>
  <property name="kdenlive:originalurl">video/Basics/28.mp4</property>
  <property name="kdenlive:original.mlt_type">producer</property>
  <property name="kdenlive:original.in">00:00:00.000</property>
  <property name="kdenlive:original.out">00:00:00.983</property>
  <property name="kdenlive:original.length">60</property>
  <property name="kdenlive:original.eof">pause</property>
  <property name="kdenlive:original.resource">video/Basics/28.mp4</property>
  <property name="kdenlive:original.meta.media.nb_streams">1</property>
  <property name="kdenlive:original.meta.media.0.stream.type">video</property>
  <property name="kdenlive:original.meta.media.0.stream.frame_rate">60</property>
  <property name="kdenlive:original.meta.media.0.stream.sample_aspect_ratio">0</property>
  <property name="kdenlive:original.meta.media.0.codec.width">3840</property>
  <property name="kdenlive:original.meta.media.0.codec.height">2160</property>
  <property name="kdenlive:original.meta.media.0.codec.rotate">0</property>
  <property name="kdenlive:original.meta.media.0.codec.pix_fmt">yuv420p</property>
  <property name="kdenlive:original.meta.media.0.codec.sample_aspect_ratio">0</property>
  <property name="kdenlive:original.meta.media.0.codec.colorspace">709</property>
  <property name="kdenlive:original.meta.media.0.codec.name">h264</property>
  <property name="kdenlive:original.meta.media.0.codec.long_name">H.264 / AVC / MPEG-4 AVC / MPEG-4 part 10</property>
  <property name="kdenlive:original.meta.media.0.codec.bit_rate">741048</property>
  <property name="kdenlive:original.meta.attr.0.stream.handler_name.markup">VideoHandler</property>
  <property name="kdenlive:original.meta.attr.0.stream.vendor_id.markup">[0][0][0][0]</property>
  <property name="kdenlive:original.meta.attr.0.stream.encoder.markup">Lavc60.3.100 libx264</property>
  <property name="kdenlive:original.meta.attr.major_brand.markup">isom</property>
  <property name="kdenlive:original.meta.attr.minor_version.markup">512</property>
  <property name="kdenlive:original.meta.attr.compatible_brands.markup">isomiso2avc1mp41</property>
  <property name="kdenlive:original.meta.attr.encoder.markup">Lavf60.3.100</property>
  <property name="kdenlive:original.meta.attr.comment.markup">Rendered with Manim Community v0.17.2</property>
  <property name="kdenlive:original.seekable">1</property>
  <property name="kdenlive:original.width">3840</property>
  <property name="kdenlive:original.height">2160</property>
  <property name="kdenlive:original.meta.media.sample_aspect_num">1</property>
  <property name="kdenlive:original.meta.media.sample_aspect_den">1</property>
  <property name="kdenlive:original.aspect_ratio">1</property>
  <property name="kdenlive:original.format">3</property>
  <property name="kdenlive:original.audio_index">-1</property>
  <property name="kdenlive:original.video_index">0</property>
  <property name="kdenlive:original.mute_on_pause">0</property>
  <property name="kdenlive:original.mlt_service">avformat-novalidate</property>
  <property name="kdenlive:original.meta.media.frame_rate_num">60</property>
  <property name="kdenlive:original.meta.media.frame_rate_den">1</property>
  <property name="kdenlive:original.meta.media.colorspace">709</property>
  <property name="kdenlive:original.meta.media.color_trc">2</property>
  <property name="kdenlive:original.meta.media.has_b_frames">2</property>
  <property name="kdenlive:original.meta.media.width">3840</property>
  <property name="kdenlive:original.meta.media.height">2160</property>
  <property name="kdenlive:original.meta.media.color_range">mpeg</property>
  <property name="kdenlive:original.meta.media.top_field_first">0</property>
  <property name="kdenlive:original.meta.media.progressive">1</property>
  <property name="kdenlive:original.kdenlive:clip_type">2</property>
  <property name="kdenlive:original.kdenlive:folderid">344</property>
  <property name="kdenlive:original.kdenlive:id">365</property>
  <property name="kdenlive:original.kdenlive:file_size">94246</property>
  <property name="kdenlive:original.kdenlive:file_hash">fca56e22721bdf64d69f85f8e61152e6</property>
  <property name="kdenlive:original.backup">1</property>
  <property name="xml">was here</property>
  <property name="meta.media.frame_rate_num">60</property>
  <property name="meta.media.frame_rate_den">1</property>
  <property name="meta.media.colorspace">601</property>
  <property name="meta.media.color_trc">2</property>
  <property name="meta.media.has_b_frames">0</property>
  <property name="meta.media.width">640</property>
  <property name="meta.media.height">360</property>
  <property name="meta.media.color_range">full</property>
  <property name="meta.media.top_field_first">0</property>
  <property name="meta.media.progressive">1</property>
  <property name="set.test_audio">1</property>
  <property name="set.test_image">0</property>
 </producer>
 <producer id="producer595" in="00:00:00.000" out="00:00:00.983">
  <property name="length">60</property>
  <property name="eof">pause</property>
  <property name="resource">/home/xiaoxiae/.cache/kdenlive/proxy/c7bb7eb01887eda09ecb6351f0ea63c0.mkv</property>
  <property name="audio_index">-1</property>
  <property name="video_index">0</property>
  <property name="mute_on_pause">0</property>
  <property name="mlt_service">avformat-novalidate</property>
  <property name="meta.media.nb_streams">1</property>
  <property name="meta.media.0.stream.type">video</property>
  <property name="meta.media.0.stream.frame_rate">60</property>
  <property name="meta.media.0.stream.sample_aspect_ratio">0</property>
  <property name="meta.media.0.codec.width">640</property>
  <property name="meta.media.0.codec.height">360</property>
  <property name="meta.media.0.codec.rotate">0</property>
  <property name="meta.media.0.codec.pix_fmt">yuvj420p</property>
  <property name="meta.media.0.codec.sample_aspect_ratio">0</property>
  <property name="meta.media.0.codec.colorspace">601</property>
  <property name="meta.media.0.codec.name">mjpeg</property>
  <property name="meta.media.0.codec.long_name">MJPEG (Motion JPEG)</property>
  <property name="meta.media.0.codec.bit_rate">0</property>
  <property name="meta.attr.0.stream.HANDLER_NAME.markup">VideoHandler</property>
  <property name="meta.attr.0.stream.VENDOR_ID.markup">[0][0][0][0]</property>
  <property name="meta.attr.0.stream.ENCODER.markup">Lavc60.3.100 mjpeg</property>
  <property name="meta.attr.0.stream.DURATION.markup">00:00:01.000000000</property>
  <property name="meta.attr.COMMENT.markup">Rendered with Manim Community v0.17.2</property>
  <property name="meta.attr.MAJOR_BRAND.markup">isom</property>
  <property name="meta.attr.MINOR_VERSION.markup">512</property>
  <property name="meta.attr.COMPATIBLE_BRANDS.markup">isomiso2avc1mp41</property>
  <property name="meta.attr.ENCODER.markup">Lavf60.3.100</property>
  <property name="seekable">1</property>
  <property name="meta.media.sample_aspect_num">1</property>
  <property name="meta.media.sample_aspect_den">1</property>
  <property name="aspect_ratio">1</property>
  <property name="format">3</property>
  <property name="kdenlive:clipname">29.mp4</property>
  <property name="kdenlive:clip_type">2</property>
  <property name="kdenlive:folderid">344</property>
  <property name="kdenlive:id">364</property>
  <property name="kdenlive:file_size">89601</property>
  <property name="kdenlive:file_hash">c7bb7eb01887eda09ecb6351f0ea63c0</property>
  <property name="kdenlive:proxy">/home/xiaoxiae/.cache/kdenlive/proxy/c7bb7eb01887eda09ecb6351f0ea63c0.mkv</property>
  <property name="kdenlive:originalurl">video/Basics/29.mp4</property>
  <property name="kdenlive:original.mlt_type">producer</property>
  <property name="kdenlive:original.in">00:00:00.000</property>
  <property name="kdenlive:original.out">00:00:00.983</property>
  <property name="kdenlive:original.length">60</property>
  <property name="kdenlive:original.eof">pause</property>
  <property name="kdenlive:original.resource">video/Basics/29.mp4</property>
  <property name="kdenlive:original.meta.media.nb_streams">1</property>
  <property name="kdenlive:original.meta.media.0.stream.type">video</property>
  <property name="kdenlive:original.meta.media.0.stream.frame_rate">60</property>
  <property name="kdenlive:original.meta.media.0.stream.sample_aspect_ratio">0</property>
  <property name="kdenlive:original.meta.media.0.codec.width">3840</property>
  <property name="kdenlive:original.meta.media.0.codec.height">2160</property>
  <property name="kdenlive:original.meta.media.0.codec.rotate">0</property>
  <property name="kdenlive:original.meta.media.0.codec.pix_fmt">yuv420p</property>
  <property name="kdenlive:original.meta.media.0.codec.sample_aspect_ratio">0</property>
  <property name="kdenlive:original.meta.media.0.codec.colorspace">709</property>
  <property name="kdenlive:original.meta.media.0.codec.name">h264</property>
  <property name="kdenlive:original.meta.media.0.codec.long_name">H.264 / AVC / MPEG-4 AVC / MPEG-4 part 10</property>
  <property name="kdenlive:original.meta.media.0.codec.bit_rate">703760</property>
  <property name="kdenlive:original.meta.attr.0.stream.handler_name.markup">VideoHandler</property>
  <property name="kdenlive:original.meta.attr.0.stream.vendor_id.markup">[0][0][0][0]</property>
  <property name="kdenlive:original.meta.attr.0.stream.encoder.markup">Lavc60.3.100 libx264</property>
  <property name="kdenlive:original.meta.attr.major_brand.markup">isom</property>
  <property name="kdenlive:original.meta.attr.minor_version.markup">512</property>
  <property name="kdenlive:original.meta.attr.compatible_brands.markup">isomiso2avc1mp41</property>
  <property name="kdenlive:original.meta.attr.encoder.markup">Lavf60.3.100</property>
  <property name="kdenlive:original.meta.attr.comment.markup">Rendered with Manim Community v0.17.2</property>
  <property name="kdenlive:original.seekable">1</property>
  <property name="kdenlive:original.width">3840</property>
  <property name="kdenlive:original.height">2160</property>
  <property name="kdenlive:original.meta.media.sample_aspect_num">1</property>
  <property name="kdenlive:original.meta.media.sample_aspect_den">1</property>
  <property name="kdenlive:original.aspect_ratio">1</property>
  <property name="kdenlive:original.format">3</property>
  <property name="kdenlive:original.audio_index">-1</property>
  <property name="kdenlive:original.video_index">0</property>
  <property name="kdenlive:original.mute_on_pause">0</property>
  <property name="kdenlive:original.mlt_service">avformat-novalidate</property>
  <property name="kdenlive:original.meta.media.frame_rate_num">60</property>
  <property name="kdenlive:original.meta.media.frame_rate_den">1</property>
  <property name="kdenlive:original.meta.media.colorspace">709</property>
  <property name="kdenlive:original.meta.media.color_trc">2</property>
  <property name="kdenlive:original.meta.media.has_b_frames">2</property>
  <property name="kdenlive:original.meta.media.width">3840</property>
  <property name="kdenlive:original.meta.media.height">2160</property>
  <property name="kdenlive:original.meta.media.color_range">mpeg</property>
  <property name="kdenlive:original.meta.media.top_field_first">0</property>
  <property name="kdenlive:original.meta.media.progressive">1</property>
  <property name="kdenlive:original.kdenlive:clip_type">2</property>
  <property name="kdenlive:original.kdenlive:folderid">344</property>
  <property name="kdenlive:original.kdenlive:id">366</property>
  <property name="kdenlive:original.kdenlive:file_size">89601</property>
  <property name="kdenlive:original.kdenlive:file_hash">c7bb7eb01887eda09ecb6351f0ea63c0</property>
  <property name="kdenlive:original.backup">1</property>
  <property name="xml">was here</property>
  <property name="meta.media.frame_rate_num">60</property>
  <property name="meta.media.frame_rate_den">1</property>
  <property name="meta.media.colorspace">601</property>
  <property name="meta.media.color_trc">2</property>
  <property name="meta.media.has_b_frames">0</property>
  <property name="meta.media.width">640</property>
  <property name="meta.media.height">360</property>
  <property name="meta.media.color_range">full</property>
  <property name="meta.media.top_field_first">0</property>
  <property name="meta.media.progressive">1</property>
  <property name="set.test_audio">1</property>
  <property name="set.test_image">0</property>
 </producer>
 <producer id="producer596" in="00:00:00.000" out="00:00:00.983">
  <property name="length">60</property>
  <property name="eof">pause</property>
  <property name="resource">/home/xiaoxiae/.cache/kdenlive/proxy/bf3ff13b6da485be4e985ebf05518b9a.mkv</property>
  <property name="audio_index">-1</property>
  <property name="video_index">0</property>
  <property name="mute_on_pause">0</property>
  <property name="mlt_service">avformat-novalidate</property>
  <property name="meta.media.nb_streams">1</property>
  <property name="meta.media.0.stream.type">video</property>
  <property name="meta.media.0.stream.frame_rate">60</property>
  <property name="meta.media.0.stream.sample_aspect_ratio">0</property>
  <property name="meta.media.0.codec.width">640</property>
  <property name="meta.media.0.codec.height">360</property>
  <property name="meta.media.0.codec.rotate">0</property>
  <property name="meta.media.0.codec.pix_fmt">yuvj420p</property>
  <property name="meta.media.0.codec.sample_aspect_ratio">0</property>
  <property name="meta.media.0.codec.colorspace">601</property>
  <property name="meta.media.0.codec.name">mjpeg</property>
  <property name="meta.media.0.codec.long_name">MJPEG (Motion JPEG)</property>
  <property name="meta.media.0.codec.bit_rate">0</property>
  <property name="meta.attr.0.stream.HANDLER_NAME.markup">VideoHandler</property>
  <property name="meta.attr.0.stream.VENDOR_ID.markup">[0][0][0][0]</property>
  <property name="meta.attr.0.stream.ENCODER.markup">Lavc60.3.100 mjpeg</property>
  <property name="meta.attr.0.stream.DURATION.markup">00:00:01.000000000</property>
  <property name="meta.attr.COMMENT.markup">Rendered with Manim Community v0.17.2</property>
  <property name="meta.attr.MAJOR_BRAND.markup">isom</property>
  <property name="meta.attr.MINOR_VERSION.markup">512</property>
  <property name="meta.attr.COMPATIBLE_BRANDS.markup">isomiso2avc1mp41</property>
  <property name="meta.attr.ENCODER.markup">Lavf60.3.100</property>
  <property name="seekable">1</property>
  <property name="meta.media.sample_aspect_num">1</property>
  <property name="meta.media.sample_aspect_den">1</property>
  <property name="aspect_ratio">1</property>
  <property name="format">3</property>
  <property name="kdenlive:clipname">30.mp4</property>
  <property name="kdenlive:clip_type">2</property>
  <property name="kdenlive:folderid">344</property>
  <property name="kdenlive:id">366</property>
  <property name="kdenlive:file_size">108683</property>
  <property name="kdenlive:file_hash">bf3ff13b6da485be4e985ebf05518b9a</property>
  <property name="kdenlive:proxy">/home/xiaoxiae/.cache/kdenlive/proxy/bf3ff13b6da485be4e985ebf05518b9a.mkv</property>
  <property name="kdenlive:originalurl">video/Basics/30.mp4</property>
  <property name="kdenlive:original.mlt_type">producer</property>
  <property name="kdenlive:original.in">00:00:00.000</property>
  <property name="kdenlive:original.out">00:00:00.983</property>
  <property name="kdenlive:original.length">60</property>
  <property name="kdenlive:original.eof">pause</property>
  <property name="kdenlive:original.resource">video/Basics/30.mp4</property>
  <property name="kdenlive:original.meta.media.nb_streams">1</property>
  <property name="kdenlive:original.meta.media.0.stream.type">video</property>
  <property name="kdenlive:original.meta.media.0.stream.frame_rate">60</property>
  <property name="kdenlive:original.meta.media.0.stream.sample_aspect_ratio">0</property>
  <property name="kdenlive:original.meta.media.0.codec.width">3840</property>
  <property name="kdenlive:original.meta.media.0.codec.height">2160</property>
  <property name="kdenlive:original.meta.media.0.codec.rotate">0</property>
  <property name="kdenlive:original.meta.media.0.codec.pix_fmt">yuv420p</property>
  <property name="kdenlive:original.meta.media.0.codec.sample_aspect_ratio">0</property>
  <property name="kdenlive:original.meta.media.0.codec.colorspace">709</property>
  <property name="kdenlive:original.meta.media.0.codec.name">h264</property>
  <property name="kdenlive:original.meta.media.0.codec.long_name">H.264 / AVC / MPEG-4 AVC / MPEG-4 part 10</property>
  <property name="kdenlive:original.meta.media.0.codec.bit_rate">856416</property>
  <property name="kdenlive:original.meta.attr.0.stream.handler_name.markup">VideoHandler</property>
  <property name="kdenlive:original.meta.attr.0.stream.vendor_id.markup">[0][0][0][0]</property>
  <property name="kdenlive:original.meta.attr.0.stream.encoder.markup">Lavc60.3.100 libx264</property>
  <property name="kdenlive:original.meta.attr.major_brand.markup">isom</property>
  <property name="kdenlive:original.meta.attr.minor_version.markup">512</property>
  <property name="kdenlive:original.meta.attr.compatible_brands.markup">isomiso2avc1mp41</property>
  <property name="kdenlive:original.meta.attr.encoder.markup">Lavf60.3.100</property>
  <property name="kdenlive:original.meta.attr.comment.markup">Rendered with Manim Community v0.17.2</property>
  <property name="kdenlive:original.seekable">1</property>
  <property name="kdenlive:original.width">3840</property>
  <property name="kdenlive:original.height">2160</property>
  <property name="kdenlive:original.meta.media.sample_aspect_num">1</property>
  <property name="kdenlive:original.meta.media.sample_aspect_den">1</property>
  <property name="kdenlive:original.aspect_ratio">1</property>
  <property name="kdenlive:original.format">3</property>
  <property name="kdenlive:original.audio_index">-1</property>
  <property name="kdenlive:original.video_index">0</property>
  <property name="kdenlive:original.mute_on_pause">0</property>
  <property name="kdenlive:original.mlt_service">avformat-novalidate</property>
  <property name="kdenlive:original.meta.media.frame_rate_num">60</property>
  <property name="kdenlive:original.meta.media.frame_rate_den">1</property>
  <property name="kdenlive:original.meta.media.colorspace">709</property>
  <property name="kdenlive:original.meta.media.color_trc">2</property>
  <property name="kdenlive:original.meta.media.has_b_frames">2</property>
  <property name="kdenlive:original.meta.media.width">3840</property>
  <property name="kdenlive:original.meta.media.height">2160</property>
  <property name="kdenlive:original.meta.media.color_range">mpeg</property>
  <property name="kdenlive:original.meta.media.top_field_first">0</property>
  <property name="kdenlive:original.meta.media.progressive">1</property>
  <property name="kdenlive:original.kdenlive:clip_type">2</property>
  <property name="kdenlive:original.kdenlive:folderid">344</property>
  <property name="kdenlive:original.kdenlive:id">368</property>
  <property name="kdenlive:original.kdenlive:file_size">108683</property>
  <property name="kdenlive:original.kdenlive:file_hash">bf3ff13b6da485be4e985ebf05518b9a</property>
  <property name="kdenlive:original.backup">1</property>
  <property name="xml">was here</property>
  <property name="meta.media.frame_rate_num">60</property>
  <property name="meta.media.frame_rate_den">1</property>
  <property name="meta.media.colorspace">601</property>
  <property name="meta.media.color_trc">2</property>
  <property name="meta.media.has_b_frames">0</property>
  <property name="meta.media.width">640</property>
  <property name="meta.media.height">360</property>
  <property name="meta.media.color_range">full</property>
  <property name="meta.media.top_field_first">0</property>
  <property name="meta.media.progressive">1</property>
  <property name="set.test_audio">1</property>
  <property name="set.test_image">0</property>
 </producer>
 <producer id="producer597" in="00:00:00.000" out="00:00:00.983">
  <property name="length">60</property>
  <property name="eof">pause</property>
  <property name="resource">/home/xiaoxiae/.cache/kdenlive/proxy/644c8d2118fd83516fca12febbbd50b6.mkv</property>
  <property name="audio_index">-1</property>
  <property name="video_index">0</property>
  <property name="mute_on_pause">0</property>
  <property name="mlt_service">avformat-novalidate</property>
  <property name="meta.media.nb_streams">1</property>
  <property name="meta.media.0.stream.type">video</property>
  <property name="meta.media.0.stream.frame_rate">60</property>
  <property name="meta.media.0.stream.sample_aspect_ratio">0</property>
  <property name="meta.media.0.codec.width">640</property>
  <property name="meta.media.0.codec.height">360</property>
  <property name="meta.media.0.codec.rotate">0</property>
  <property name="meta.media.0.codec.pix_fmt">yuvj420p</property>
  <property name="meta.media.0.codec.sample_aspect_ratio">0</property>
  <property name="meta.media.0.codec.colorspace">601</property>
  <property name="meta.media.0.codec.name">mjpeg</property>
  <property name="meta.media.0.codec.long_name">MJPEG (Motion JPEG)</property>
  <property name="meta.media.0.codec.bit_rate">0</property>
  <property name="meta.attr.0.stream.HANDLER_NAME.markup">VideoHandler</property>
  <property name="meta.attr.0.stream.VENDOR_ID.markup">[0][0][0][0]</property>
  <property name="meta.attr.0.stream.ENCODER.markup">Lavc60.3.100 mjpeg</property>
  <property name="meta.attr.0.stream.DURATION.markup">00:00:01.000000000</property>
  <property name="meta.attr.COMMENT.markup">Rendered with Manim Community v0.17.2</property>
  <property name="meta.attr.MAJOR_BRAND.markup">isom</property>
  <property name="meta.attr.MINOR_VERSION.markup">512</property>
  <property name="meta.attr.COMPATIBLE_BRANDS.markup">isomiso2avc1mp41</property>
  <property name="meta.attr.ENCODER.markup">Lavf60.3.100</property>
  <property name="seekable">1</property>
  <property name="meta.media.sample_aspect_num">1</property>
  <property name="meta.media.sample_aspect_den">1</property>
  <property name="aspect_ratio">1</property>
  <property name="format">3</property>
  <property name="kdenlive:clipname">31.mp4</property>
  <property name="kdenlive:clip_type">2</property>
  <property name="kdenlive:folderid">344</property>
  <property name="kdenlive:id">367</property>
  <property name="kdenlive:file_size">125179</property>
  <property name="kdenlive:file_hash">644c8d2118fd83516fca12febbbd50b6</property>
  <property name="kdenlive:proxy">/home/xiaoxiae/.cache/kdenlive/proxy/644c8d2118fd83516fca12febbbd50b6.mkv</property>
  <property name="kdenlive:originalurl">video/Basics/31.mp4</property>
  <property name="kdenlive:original.mlt_type">producer</property>
  <property name="kdenlive:original.in">00:00:00.000</property>
  <property name="kdenlive:original.out">00:00:00.983</property>
  <property name="kdenlive:original.length">60</property>
  <property name="kdenlive:original.eof">pause</property>
  <property name="kdenlive:original.resource">video/Basics/31.mp4</property>
  <property name="kdenlive:original.meta.media.nb_streams">1</property>
  <property name="kdenlive:original.meta.media.0.stream.type">video</property>
  <property name="kdenlive:original.meta.media.0.stream.frame_rate">60</property>
  <property name="kdenlive:original.meta.media.0.stream.sample_aspect_ratio">0</property>
  <property name="kdenlive:original.meta.media.0.codec.width">3840</property>
  <property name="kdenlive:original.meta.media.0.codec.height">2160</property>
  <property name="kdenlive:original.meta.media.0.codec.rotate">0</property>
  <property name="kdenlive:original.meta.media.0.codec.pix_fmt">yuv420p</property>
  <property name="kdenlive:original.meta.media.0.codec.sample_aspect_ratio">0</property>
  <property name="kdenlive:original.meta.media.0.codec.colorspace">709</property>
  <property name="kdenlive:original.meta.media.0.codec.name">h264</property>
  <property name="kdenlive:original.meta.media.0.codec.long_name">H.264 / AVC / MPEG-4 AVC / MPEG-4 part 10</property>
  <property name="kdenlive:original.meta.media.0.codec.bit_rate">988384</property>
  <property name="kdenlive:original.meta.attr.0.stream.handler_name.markup">VideoHandler</property>
  <property name="kdenlive:original.meta.attr.0.stream.vendor_id.markup">[0][0][0][0]</property>
  <property name="kdenlive:original.meta.attr.0.stream.encoder.markup">Lavc60.3.100 libx264</property>
  <property name="kdenlive:original.meta.attr.major_brand.markup">isom</property>
  <property name="kdenlive:original.meta.attr.minor_version.markup">512</property>
  <property name="kdenlive:original.meta.attr.compatible_brands.markup">isomiso2avc1mp41</property>
  <property name="kdenlive:original.meta.attr.encoder.markup">Lavf60.3.100</property>
  <property name="kdenlive:original.meta.attr.comment.markup">Rendered with Manim Community v0.17.2</property>
  <property name="kdenlive:original.seekable">1</property>
  <property name="kdenlive:original.width">3840</property>
  <property name="kdenlive:original.height">2160</property>
  <property name="kdenlive:original.meta.media.sample_aspect_num">1</property>
  <property name="kdenlive:original.meta.media.sample_aspect_den">1</property>
  <property name="kdenlive:original.aspect_ratio">1</property>
  <property name="kdenlive:original.format">3</property>
  <property name="kdenlive:original.audio_index">-1</property>
  <property name="kdenlive:original.video_index">0</property>
  <property name="kdenlive:original.mute_on_pause">0</property>
  <property name="kdenlive:original.mlt_service">avformat-novalidate</property>
  <property name="kdenlive:original.meta.media.frame_rate_num">60</property>
  <property name="kdenlive:original.meta.media.frame_rate_den">1</property>
  <property name="kdenlive:original.meta.media.colorspace">709</property>
  <property name="kdenlive:original.meta.media.color_trc">2</property>
  <property name="kdenlive:original.meta.media.has_b_frames">2</property>
  <property name="kdenlive:original.meta.media.width">3840</property>
  <property name="kdenlive:original.meta.media.height">2160</property>
  <property name="kdenlive:original.meta.media.color_range">mpeg</property>
  <property name="kdenlive:original.meta.media.top_field_first">0</property>
  <property name="kdenlive:original.meta.media.progressive">1</property>
  <property name="kdenlive:original.kdenlive:clip_type">2</property>
  <property name="kdenlive:original.kdenlive:folderid">344</property>
  <property name="kdenlive:original.kdenlive:id">369</property>
  <property name="kdenlive:original.kdenlive:file_size">125179</property>
  <property name="kdenlive:original.kdenlive:file_hash">644c8d2118fd83516fca12febbbd50b6</property>
  <property name="kdenlive:original.backup">1</property>
  <property name="xml">was here</property>
  <property name="meta.media.frame_rate_num">60</property>
  <property name="meta.media.frame_rate_den">1</property>
  <property name="meta.media.colorspace">601</property>
  <property name="meta.media.color_trc">2</property>
  <property name="meta.media.has_b_frames">0</property>
  <property name="meta.media.width">640</property>
  <property name="meta.media.height">360</property>
  <property name="meta.media.color_range">full</property>
  <property name="meta.media.top_field_first">0</property>
  <property name="meta.media.progressive">1</property>
  <property name="set.test_audio">1</property>
  <property name="set.test_image">0</property>
 </producer>
 <producer id="producer598" in="00:00:00.000" out="00:00:00.983">
  <property name="length">60</property>
  <property name="eof">pause</property>
  <property name="resource">/home/xiaoxiae/.cache/kdenlive/proxy/db91fe50960ba7772cd2ccd0a8ead45f.mkv</property>
  <property name="audio_index">-1</property>
  <property name="video_index">0</property>
  <property name="mute_on_pause">0</property>
  <property name="mlt_service">avformat-novalidate</property>
  <property name="meta.media.nb_streams">1</property>
  <property name="meta.media.0.stream.type">video</property>
  <property name="meta.media.0.stream.frame_rate">60</property>
  <property name="meta.media.0.stream.sample_aspect_ratio">0</property>
  <property name="meta.media.0.codec.width">640</property>
  <property name="meta.media.0.codec.height">360</property>
  <property name="meta.media.0.codec.rotate">0</property>
  <property name="meta.media.0.codec.pix_fmt">yuvj420p</property>
  <property name="meta.media.0.codec.sample_aspect_ratio">0</property>
  <property name="meta.media.0.codec.colorspace">601</property>
  <property name="meta.media.0.codec.name">mjpeg</property>
  <property name="meta.media.0.codec.long_name">MJPEG (Motion JPEG)</property>
  <property name="meta.media.0.codec.bit_rate">0</property>
  <property name="meta.attr.0.stream.HANDLER_NAME.markup">VideoHandler</property>
  <property name="meta.attr.0.stream.VENDOR_ID.markup">[0][0][0][0]</property>
  <property name="meta.attr.0.stream.ENCODER.markup">Lavc60.3.100 mjpeg</property>
  <property name="meta.attr.0.stream.DURATION.markup">00:00:01.000000000</property>
  <property name="meta.attr.COMMENT.markup">Rendered with Manim Community v0.17.2</property>
  <property name="meta.attr.MAJOR_BRAND.markup">isom</property>
  <property name="meta.attr.MINOR_VERSION.markup">512</property>
  <property name="meta.attr.COMPATIBLE_BRANDS.markup">isomiso2avc1mp41</property>
  <property name="meta.attr.ENCODER.markup">Lavf60.3.100</property>
  <property name="seekable">1</property>
  <property name="meta.media.sample_aspect_num">1</property>
  <property name="meta.media.sample_aspect_den">1</property>
  <property name="aspect_ratio">1</property>
  <property name="format">3</property>
  <property name="kdenlive:clipname">32.mp4</property>
  <property name="kdenlive:clip_type">2</property>
  <property name="kdenlive:folderid">344</property>
  <property name="kdenlive:id">368</property>
  <property name="kdenlive:file_size">125125</property>
  <property name="kdenlive:file_hash">db91fe50960ba7772cd2ccd0a8ead45f</property>
  <property name="kdenlive:proxy">/home/xiaoxiae/.cache/kdenlive/proxy/db91fe50960ba7772cd2ccd0a8ead45f.mkv</property>
  <property name="kdenlive:originalurl">video/Basics/32.mp4</property>
  <property name="kdenlive:original.mlt_type">producer</property>
  <property name="kdenlive:original.in">00:00:00.000</property>
  <property name="kdenlive:original.out">00:00:00.983</property>
  <property name="kdenlive:original.length">60</property>
  <property name="kdenlive:original.eof">pause</property>
  <property name="kdenlive:original.resource">video/Basics/32.mp4</property>
  <property name="kdenlive:original.meta.media.nb_streams">1</property>
  <property name="kdenlive:original.meta.media.0.stream.type">video</property>
  <property name="kdenlive:original.meta.media.0.stream.frame_rate">60</property>
  <property name="kdenlive:original.meta.media.0.stream.sample_aspect_ratio">0</property>
  <property name="kdenlive:original.meta.media.0.codec.width">3840</property>
  <property name="kdenlive:original.meta.media.0.codec.height">2160</property>
  <property name="kdenlive:original.meta.media.0.codec.rotate">0</property>
  <property name="kdenlive:original.meta.media.0.codec.pix_fmt">yuv420p</property>
  <property name="kdenlive:original.meta.media.0.codec.sample_aspect_ratio">0</property>
  <property name="kdenlive:original.meta.media.0.codec.colorspace">709</property>
  <property name="kdenlive:original.meta.media.0.codec.name">h264</property>
  <property name="kdenlive:original.meta.media.0.codec.long_name">H.264 / AVC / MPEG-4 AVC / MPEG-4 part 10</property>
  <property name="kdenlive:original.meta.media.0.codec.bit_rate">987952</property>
  <property name="kdenlive:original.meta.attr.0.stream.handler_name.markup">VideoHandler</property>
  <property name="kdenlive:original.meta.attr.0.stream.vendor_id.markup">[0][0][0][0]</property>
  <property name="kdenlive:original.meta.attr.0.stream.encoder.markup">Lavc60.3.100 libx264</property>
  <property name="kdenlive:original.meta.attr.major_brand.markup">isom</property>
  <property name="kdenlive:original.meta.attr.minor_version.markup">512</property>
  <property name="kdenlive:original.meta.attr.compatible_brands.markup">isomiso2avc1mp41</property>
  <property name="kdenlive:original.meta.attr.encoder.markup">Lavf60.3.100</property>
  <property name="kdenlive:original.meta.attr.comment.markup">Rendered with Manim Community v0.17.2</property>
  <property name="kdenlive:original.seekable">1</property>
  <property name="kdenlive:original.width">3840</property>
  <property name="kdenlive:original.height">2160</property>
  <property name="kdenlive:original.meta.media.sample_aspect_num">1</property>
  <property name="kdenlive:original.meta.media.sample_aspect_den">1</property>
  <property name="kdenlive:original.aspect_ratio">1</property>
  <property name="kdenlive:original.format">3</property>
  <property name="kdenlive:original.audio_index">-1</property>
  <property name="kdenlive:original.video_index">0</property>
  <property name="kdenlive:original.mute_on_pause">0</property>
  <property name="kdenlive:original.mlt_service">avformat-novalidate</property>
  <property name="kdenlive:original.meta.media.frame_rate_num">60</property>
  <property name="kdenlive:original.meta.media.frame_rate_den">1</property>
  <property name="kdenlive:original.meta.media.colorspace">709</property>
  <property name="kdenlive:original.meta.media.color_trc">2</property>
  <property name="kdenlive:original.meta.media.has_b_frames">2</property>
  <property name="kdenlive:original.meta.media.width">3840</property>
  <property name="kdenlive:original.meta.media.height">2160</property>
  <property name="kdenlive:original.meta.media.color_range">mpeg</property>
  <property name="kdenlive:original.meta.media.top_field_first">0</property>
  <property name="kdenlive:original.meta.media.progressive">1</property>
  <property name="kdenlive:original.kdenlive:clip_type">2</property>
  <property name="kdenlive:original.kdenlive:folderid">344</property>
  <property name="kdenlive:original.kdenlive:id">370</property>
  <property name="kdenlive:original.kdenlive:file_size">125125</property>
  <property name="kdenlive:original.kdenlive:file_hash">db91fe50960ba7772cd2ccd0a8ead45f</property>
  <property name="kdenlive:original.backup">1</property>
  <property name="xml">was here</property>
  <property name="meta.media.frame_rate_num">60</property>
  <property name="meta.media.frame_rate_den">1</property>
  <property name="meta.media.colorspace">601</property>
  <property name="meta.media.color_trc">2</property>
  <property name="meta.media.has_b_frames">0</property>
  <property name="meta.media.width">640</property>
  <property name="meta.media.height">360</property>
  <property name="meta.media.color_range">full</property>
  <property name="meta.media.top_field_first">0</property>
  <property name="meta.media.progressive">1</property>
  <property name="set.test_audio">1</property>
  <property name="set.test_image">0</property>
 </producer>
 <producer id="producer599" in="00:00:00.000" out="00:00:00.983">
  <property name="length">60</property>
  <property name="eof">pause</property>
  <property name="resource">/home/xiaoxiae/.cache/kdenlive/proxy/f3da8b352bd115a0334a74a100ecf1b8.mkv</property>
  <property name="audio_index">-1</property>
  <property name="video_index">0</property>
  <property name="mute_on_pause">0</property>
  <property name="mlt_service">avformat-novalidate</property>
  <property name="meta.media.nb_streams">1</property>
  <property name="meta.media.0.stream.type">video</property>
  <property name="meta.media.0.stream.frame_rate">60</property>
  <property name="meta.media.0.stream.sample_aspect_ratio">0</property>
  <property name="meta.media.0.codec.width">640</property>
  <property name="meta.media.0.codec.height">360</property>
  <property name="meta.media.0.codec.rotate">0</property>
  <property name="meta.media.0.codec.pix_fmt">yuvj420p</property>
  <property name="meta.media.0.codec.sample_aspect_ratio">0</property>
  <property name="meta.media.0.codec.colorspace">601</property>
  <property name="meta.media.0.codec.name">mjpeg</property>
  <property name="meta.media.0.codec.long_name">MJPEG (Motion JPEG)</property>
  <property name="meta.media.0.codec.bit_rate">0</property>
  <property name="meta.attr.0.stream.HANDLER_NAME.markup">VideoHandler</property>
  <property name="meta.attr.0.stream.VENDOR_ID.markup">[0][0][0][0]</property>
  <property name="meta.attr.0.stream.ENCODER.markup">Lavc60.3.100 mjpeg</property>
  <property name="meta.attr.0.stream.DURATION.markup">00:00:01.000000000</property>
  <property name="meta.attr.COMMENT.markup">Rendered with Manim Community v0.17.2</property>
  <property name="meta.attr.MAJOR_BRAND.markup">isom</property>
  <property name="meta.attr.MINOR_VERSION.markup">512</property>
  <property name="meta.attr.COMPATIBLE_BRANDS.markup">isomiso2avc1mp41</property>
  <property name="meta.attr.ENCODER.markup">Lavf60.3.100</property>
  <property name="seekable">1</property>
  <property name="meta.media.sample_aspect_num">1</property>
  <property name="meta.media.sample_aspect_den">1</property>
  <property name="aspect_ratio">1</property>
  <property name="format">3</property>
  <property name="kdenlive:clipname">33.mp4</property>
  <property name="kdenlive:clip_type">2</property>
  <property name="kdenlive:folderid">344</property>
  <property name="kdenlive:id">369</property>
  <property name="kdenlive:file_size">130103</property>
  <property name="kdenlive:file_hash">f3da8b352bd115a0334a74a100ecf1b8</property>
  <property name="kdenlive:proxy">/home/xiaoxiae/.cache/kdenlive/proxy/f3da8b352bd115a0334a74a100ecf1b8.mkv</property>
  <property name="kdenlive:originalurl">video/Basics/33.mp4</property>
  <property name="kdenlive:original.mlt_type">producer</property>
  <property name="kdenlive:original.in">00:00:00.000</property>
  <property name="kdenlive:original.out">00:00:00.983</property>
  <property name="kdenlive:original.length">60</property>
  <property name="kdenlive:original.eof">pause</property>
  <property name="kdenlive:original.resource">video/Basics/33.mp4</property>
  <property name="kdenlive:original.meta.media.nb_streams">1</property>
  <property name="kdenlive:original.meta.media.0.stream.type">video</property>
  <property name="kdenlive:original.meta.media.0.stream.frame_rate">60</property>
  <property name="kdenlive:original.meta.media.0.stream.sample_aspect_ratio">0</property>
  <property name="kdenlive:original.meta.media.0.codec.width">3840</property>
  <property name="kdenlive:original.meta.media.0.codec.height">2160</property>
  <property name="kdenlive:original.meta.media.0.codec.rotate">0</property>
  <property name="kdenlive:original.meta.media.0.codec.pix_fmt">yuv420p</property>
  <property name="kdenlive:original.meta.media.0.codec.sample_aspect_ratio">0</property>
  <property name="kdenlive:original.meta.media.0.codec.colorspace">709</property>
  <property name="kdenlive:original.meta.media.0.codec.name">h264</property>
  <property name="kdenlive:original.meta.media.0.codec.long_name">H.264 / AVC / MPEG-4 AVC / MPEG-4 part 10</property>
  <property name="kdenlive:original.meta.media.0.codec.bit_rate">1027776</property>
  <property name="kdenlive:original.meta.attr.0.stream.handler_name.markup">VideoHandler</property>
  <property name="kdenlive:original.meta.attr.0.stream.vendor_id.markup">[0][0][0][0]</property>
  <property name="kdenlive:original.meta.attr.0.stream.encoder.markup">Lavc60.3.100 libx264</property>
  <property name="kdenlive:original.meta.attr.major_brand.markup">isom</property>
  <property name="kdenlive:original.meta.attr.minor_version.markup">512</property>
  <property name="kdenlive:original.meta.attr.compatible_brands.markup">isomiso2avc1mp41</property>
  <property name="kdenlive:original.meta.attr.encoder.markup">Lavf60.3.100</property>
  <property name="kdenlive:original.meta.attr.comment.markup">Rendered with Manim Community v0.17.2</property>
  <property name="kdenlive:original.seekable">1</property>
  <property name="kdenlive:original.width">3840</property>
  <property name="kdenlive:original.height">2160</property>
  <property name="kdenlive:original.meta.media.sample_aspect_num">1</property>
  <property name="kdenlive:original.meta.media.sample_aspect_den">1</property>
  <property name="kdenlive:original.aspect_ratio">1</property>
  <property name="kdenlive:original.format">3</property>
  <property name="kdenlive:original.audio_index">-1</property>
  <property name="kdenlive:original.video_index">0</property>
  <property name="kdenlive:original.mute_on_pause">0</property>
  <property name="kdenlive:original.mlt_service">avformat-novalidate</property>
  <property name="kdenlive:original.meta.media.frame_rate_num">60</property>
  <property name="kdenlive:original.meta.media.frame_rate_den">1</property>
  <property name="kdenlive:original.meta.media.colorspace">709</property>
  <property name="kdenlive:original.meta.media.color_trc">2</property>
  <property name="kdenlive:original.meta.media.has_b_frames">2</property>
  <property name="kdenlive:original.meta.media.width">3840</property>
  <property name="kdenlive:original.meta.media.height">2160</property>
  <property name="kdenlive:original.meta.media.color_range">mpeg</property>
  <property name="kdenlive:original.meta.media.top_field_first">0</property>
  <property name="kdenlive:original.meta.media.progressive">1</property>
  <property name="kdenlive:original.kdenlive:clip_type">2</property>
  <property name="kdenlive:original.kdenlive:folderid">344</property>
  <property name="kdenlive:original.kdenlive:id">371</property>
  <property name="kdenlive:original.kdenlive:file_size">130103</property>
  <property name="kdenlive:original.kdenlive:file_hash">f3da8b352bd115a0334a74a100ecf1b8</property>
  <property name="kdenlive:original.backup">1</property>
  <property name="xml">was here</property>
  <property name="meta.media.frame_rate_num">60</property>
  <property name="meta.media.frame_rate_den">1</property>
  <property name="meta.media.colorspace">601</property>
  <property name="meta.media.color_trc">2</property>
  <property name="meta.media.has_b_frames">0</property>
  <property name="meta.media.width">640</property>
  <property name="meta.media.height">360</property>
  <property name="meta.media.color_range">full</property>
  <property name="meta.media.top_field_first">0</property>
  <property name="meta.media.progressive">1</property>
  <property name="set.test_audio">1</property>
  <property name="set.test_image">0</property>
 </producer>
 <producer id="producer600" in="00:00:00.000" out="00:00:00.983">
  <property name="length">60</property>
  <property name="eof">pause</property>
  <property name="resource">/home/xiaoxiae/.cache/kdenlive/proxy/44a226f2ccbdb5fc9546225fc25ec0aa.mkv</property>
  <property name="audio_index">-1</property>
  <property name="video_index">0</property>
  <property name="mute_on_pause">0</property>
  <property name="mlt_service">avformat-novalidate</property>
  <property name="meta.media.nb_streams">1</property>
  <property name="meta.media.0.stream.type">video</property>
  <property name="meta.media.0.stream.frame_rate">60</property>
  <property name="meta.media.0.stream.sample_aspect_ratio">0</property>
  <property name="meta.media.0.codec.width">640</property>
  <property name="meta.media.0.codec.height">360</property>
  <property name="meta.media.0.codec.rotate">0</property>
  <property name="meta.media.0.codec.pix_fmt">yuvj420p</property>
  <property name="meta.media.0.codec.sample_aspect_ratio">0</property>
  <property name="meta.media.0.codec.colorspace">601</property>
  <property name="meta.media.0.codec.name">mjpeg</property>
  <property name="meta.media.0.codec.long_name">MJPEG (Motion JPEG)</property>
  <property name="meta.media.0.codec.bit_rate">0</property>
  <property name="meta.attr.0.stream.HANDLER_NAME.markup">VideoHandler</property>
  <property name="meta.attr.0.stream.VENDOR_ID.markup">[0][0][0][0]</property>
  <property name="meta.attr.0.stream.ENCODER.markup">Lavc60.3.100 mjpeg</property>
  <property name="meta.attr.0.stream.DURATION.markup">00:00:01.000000000</property>
  <property name="meta.attr.COMMENT.markup">Rendered with Manim Community v0.17.2</property>
  <property name="meta.attr.MAJOR_BRAND.markup">isom</property>
  <property name="meta.attr.MINOR_VERSION.markup">512</property>
  <property name="meta.attr.COMPATIBLE_BRANDS.markup">isomiso2avc1mp41</property>
  <property name="meta.attr.ENCODER.markup">Lavf60.3.100</property>
  <property name="seekable">1</property>
  <property name="meta.media.sample_aspect_num">1</property>
  <property name="meta.media.sample_aspect_den">1</property>
  <property name="aspect_ratio">1</property>
  <property name="format">3</property>
  <property name="kdenlive:clipname">34.mp4</property>
  <property name="kdenlive:clip_type">2</property>
  <property name="kdenlive:folderid">344</property>
  <property name="kdenlive:id">370</property>
  <property name="kdenlive:file_size">110928</property>
  <property name="kdenlive:file_hash">44a226f2ccbdb5fc9546225fc25ec0aa</property>
  <property name="kdenlive:proxy">/home/xiaoxiae/.cache/kdenlive/proxy/44a226f2ccbdb5fc9546225fc25ec0aa.mkv</property>
  <property name="kdenlive:originalurl">video/Basics/34.mp4</property>
  <property name="kdenlive:original.mlt_type">producer</property>
  <property name="kdenlive:original.in">00:00:00.000</property>
  <property name="kdenlive:original.out">00:00:00.983</property>
  <property name="kdenlive:original.length">60</property>
  <property name="kdenlive:original.eof">pause</property>
  <property name="kdenlive:original.resource">video/Basics/34.mp4</property>
  <property name="kdenlive:original.meta.media.nb_streams">1</property>
  <property name="kdenlive:original.meta.media.0.stream.type">video</property>
  <property name="kdenlive:original.meta.media.0.stream.frame_rate">60</property>
  <property name="kdenlive:original.meta.media.0.stream.sample_aspect_ratio">0</property>
  <property name="kdenlive:original.meta.media.0.codec.width">3840</property>
  <property name="kdenlive:original.meta.media.0.codec.height">2160</property>
  <property name="kdenlive:original.meta.media.0.codec.rotate">0</property>
  <property name="kdenlive:original.meta.media.0.codec.pix_fmt">yuv420p</property>
  <property name="kdenlive:original.meta.media.0.codec.sample_aspect_ratio">0</property>
  <property name="kdenlive:original.meta.media.0.codec.colorspace">709</property>
  <property name="kdenlive:original.meta.media.0.codec.name">h264</property>
  <property name="kdenlive:original.meta.media.0.codec.long_name">H.264 / AVC / MPEG-4 AVC / MPEG-4 part 10</property>
  <property name="kdenlive:original.meta.media.0.codec.bit_rate">874312</property>
  <property name="kdenlive:original.meta.attr.0.stream.handler_name.markup">VideoHandler</property>
  <property name="kdenlive:original.meta.attr.0.stream.vendor_id.markup">[0][0][0][0]</property>
  <property name="kdenlive:original.meta.attr.0.stream.encoder.markup">Lavc60.3.100 libx264</property>
  <property name="kdenlive:original.meta.attr.major_brand.markup">isom</property>
  <property name="kdenlive:original.meta.attr.minor_version.markup">512</property>
  <property name="kdenlive:original.meta.attr.compatible_brands.markup">isomiso2avc1mp41</property>
  <property name="kdenlive:original.meta.attr.encoder.markup">Lavf60.3.100</property>
  <property name="kdenlive:original.meta.attr.comment.markup">Rendered with Manim Community v0.17.2</property>
  <property name="kdenlive:original.seekable">1</property>
  <property name="kdenlive:original.width">3840</property>
  <property name="kdenlive:original.height">2160</property>
  <property name="kdenlive:original.meta.media.sample_aspect_num">1</property>
  <property name="kdenlive:original.meta.media.sample_aspect_den">1</property>
  <property name="kdenlive:original.aspect_ratio">1</property>
  <property name="kdenlive:original.format">3</property>
  <property name="kdenlive:original.audio_index">-1</property>
  <property name="kdenlive:original.video_index">0</property>
  <property name="kdenlive:original.mute_on_pause">0</property>
  <property name="kdenlive:original.mlt_service">avformat-novalidate</property>
  <property name="kdenlive:original.meta.media.frame_rate_num">60</property>
  <property name="kdenlive:original.meta.media.frame_rate_den">1</property>
  <property name="kdenlive:original.meta.media.colorspace">709</property>
  <property name="kdenlive:original.meta.media.color_trc">2</property>
  <property name="kdenlive:original.meta.media.has_b_frames">2</property>
  <property name="kdenlive:original.meta.media.width">3840</property>
  <property name="kdenlive:original.meta.media.height">2160</property>
  <property name="kdenlive:original.meta.media.color_range">mpeg</property>
  <property name="kdenlive:original.meta.media.top_field_first">0</property>
  <property name="kdenlive:original.meta.media.progressive">1</property>
  <property name="kdenlive:original.kdenlive:clip_type">2</property>
  <property name="kdenlive:original.kdenlive:folderid">344</property>
  <property name="kdenlive:original.kdenlive:id">372</property>
  <property name="kdenlive:original.kdenlive:file_size">110928</property>
  <property name="kdenlive:original.kdenlive:file_hash">44a226f2ccbdb5fc9546225fc25ec0aa</property>
  <property name="kdenlive:original.backup">1</property>
  <property name="xml">was here</property>
  <property name="meta.media.frame_rate_num">60</property>
  <property name="meta.media.frame_rate_den">1</property>
  <property name="meta.media.colorspace">601</property>
  <property name="meta.media.color_trc">2</property>
  <property name="meta.media.has_b_frames">0</property>
  <property name="meta.media.width">640</property>
  <property name="meta.media.height">360</property>
  <property name="meta.media.color_range">full</property>
  <property name="meta.media.top_field_first">0</property>
  <property name="meta.media.progressive">1</property>
  <property name="set.test_audio">1</property>
  <property name="set.test_image">0</property>
 </producer>
 <producer id="producer601" in="00:00:00.000" out="00:00:02.483">
  <property name="length">150</property>
  <property name="eof">pause</property>
  <property name="resource">/home/xiaoxiae/.cache/kdenlive/proxy/378e2acb3eb878e6c93615f6e6e1ba3b.mkv</property>
  <property name="audio_index">-1</property>
  <property name="video_index">0</property>
  <property name="mute_on_pause">0</property>
  <property name="mlt_service">avformat-novalidate</property>
  <property name="meta.media.nb_streams">1</property>
  <property name="meta.media.0.stream.type">video</property>
  <property name="meta.media.0.stream.frame_rate">60</property>
  <property name="meta.media.0.stream.sample_aspect_ratio">0</property>
  <property name="meta.media.0.codec.width">640</property>
  <property name="meta.media.0.codec.height">360</property>
  <property name="meta.media.0.codec.rotate">0</property>
  <property name="meta.media.0.codec.pix_fmt">yuvj420p</property>
  <property name="meta.media.0.codec.sample_aspect_ratio">0</property>
  <property name="meta.media.0.codec.colorspace">601</property>
  <property name="meta.media.0.codec.name">mjpeg</property>
  <property name="meta.media.0.codec.long_name">MJPEG (Motion JPEG)</property>
  <property name="meta.media.0.codec.bit_rate">0</property>
  <property name="meta.attr.0.stream.HANDLER_NAME.markup">VideoHandler</property>
  <property name="meta.attr.0.stream.VENDOR_ID.markup">[0][0][0][0]</property>
  <property name="meta.attr.0.stream.ENCODER.markup">Lavc60.3.100 mjpeg</property>
  <property name="meta.attr.0.stream.DURATION.markup">00:00:02.500000000</property>
  <property name="meta.attr.COMMENT.markup">Rendered with Manim Community v0.17.2</property>
  <property name="meta.attr.MAJOR_BRAND.markup">isom</property>
  <property name="meta.attr.MINOR_VERSION.markup">512</property>
  <property name="meta.attr.COMPATIBLE_BRANDS.markup">isomiso2avc1mp41</property>
  <property name="meta.attr.ENCODER.markup">Lavf60.3.100</property>
  <property name="seekable">1</property>
  <property name="meta.media.sample_aspect_num">1</property>
  <property name="meta.media.sample_aspect_den">1</property>
  <property name="aspect_ratio">1</property>
  <property name="format">3</property>
  <property name="kdenlive:clipname">1.mp4</property>
  <property name="kdenlive:clip_type">2</property>
  <property name="kdenlive:folderid">565</property>
  <property name="kdenlive:id">455</property>
  <property name="kdenlive:file_size">200728</property>
  <property name="kdenlive:file_hash">378e2acb3eb878e6c93615f6e6e1ba3b</property>
  <property name="kdenlive:proxy">/home/xiaoxiae/.cache/kdenlive/proxy/378e2acb3eb878e6c93615f6e6e1ba3b.mkv</property>
  <property name="kdenlive:originalurl">video/Search/1.mp4</property>
  <property name="kdenlive:original.mlt_type">producer</property>
  <property name="kdenlive:original.in">00:00:00.000</property>
  <property name="kdenlive:original.out">00:00:02.483</property>
  <property name="kdenlive:original.length">150</property>
  <property name="kdenlive:original.eof">pause</property>
  <property name="kdenlive:original.resource">video/Search/1.mp4</property>
  <property name="kdenlive:original.meta.media.nb_streams">1</property>
  <property name="kdenlive:original.meta.media.0.stream.type">video</property>
  <property name="kdenlive:original.meta.media.0.stream.frame_rate">60</property>
  <property name="kdenlive:original.meta.media.0.stream.sample_aspect_ratio">0</property>
  <property name="kdenlive:original.meta.media.0.codec.width">3840</property>
  <property name="kdenlive:original.meta.media.0.codec.height">2160</property>
  <property name="kdenlive:original.meta.media.0.codec.rotate">0</property>
  <property name="kdenlive:original.meta.media.0.codec.pix_fmt">yuv420p</property>
  <property name="kdenlive:original.meta.media.0.codec.sample_aspect_ratio">0</property>
  <property name="kdenlive:original.meta.media.0.codec.colorspace">709</property>
  <property name="kdenlive:original.meta.media.0.codec.name">h264</property>
  <property name="kdenlive:original.meta.media.0.codec.long_name">H.264 / AVC / MPEG-4 AVC / MPEG-4 part 10</property>
  <property name="kdenlive:original.meta.media.0.codec.bit_rate">633628</property>
  <property name="kdenlive:original.meta.attr.0.stream.handler_name.markup">VideoHandler</property>
  <property name="kdenlive:original.meta.attr.0.stream.vendor_id.markup">[0][0][0][0]</property>
  <property name="kdenlive:original.meta.attr.0.stream.encoder.markup">Lavc60.3.100 libx264</property>
  <property name="kdenlive:original.meta.attr.major_brand.markup">isom</property>
  <property name="kdenlive:original.meta.attr.minor_version.markup">512</property>
  <property name="kdenlive:original.meta.attr.compatible_brands.markup">isomiso2avc1mp41</property>
  <property name="kdenlive:original.meta.attr.encoder.markup">Lavf60.3.100</property>
  <property name="kdenlive:original.meta.attr.comment.markup">Rendered with Manim Community v0.17.2</property>
  <property name="kdenlive:original.seekable">1</property>
  <property name="kdenlive:original.width">3840</property>
  <property name="kdenlive:original.height">2160</property>
  <property name="kdenlive:original.meta.media.sample_aspect_num">1</property>
  <property name="kdenlive:original.meta.media.sample_aspect_den">1</property>
  <property name="kdenlive:original.aspect_ratio">1</property>
  <property name="kdenlive:original.format">3</property>
  <property name="kdenlive:original.audio_index">-1</property>
  <property name="kdenlive:original.video_index">0</property>
  <property name="kdenlive:original.mute_on_pause">0</property>
  <property name="kdenlive:original.mlt_service">avformat-novalidate</property>
  <property name="kdenlive:original.meta.media.frame_rate_num">60</property>
  <property name="kdenlive:original.meta.media.frame_rate_den">1</property>
  <property name="kdenlive:original.meta.media.colorspace">709</property>
  <property name="kdenlive:original.meta.media.color_trc">2</property>
  <property name="kdenlive:original.meta.media.has_b_frames">2</property>
  <property name="kdenlive:original.meta.media.width">3840</property>
  <property name="kdenlive:original.meta.media.height">2160</property>
  <property name="kdenlive:original.meta.media.color_range">mpeg</property>
  <property name="kdenlive:original.meta.media.top_field_first">0</property>
  <property name="kdenlive:original.meta.media.progressive">1</property>
  <property name="kdenlive:original.kdenlive:clip_type">2</property>
  <property name="kdenlive:original.kdenlive:folderid">565</property>
  <property name="kdenlive:original.kdenlive:id">566</property>
  <property name="kdenlive:original.kdenlive:file_size">200728</property>
  <property name="kdenlive:original.kdenlive:file_hash">378e2acb3eb878e6c93615f6e6e1ba3b</property>
  <property name="kdenlive:original.backup">1</property>
  <property name="xml">was here</property>
  <property name="meta.media.frame_rate_num">60</property>
  <property name="meta.media.frame_rate_den">1</property>
  <property name="meta.media.colorspace">601</property>
  <property name="meta.media.color_trc">2</property>
  <property name="meta.media.has_b_frames">0</property>
  <property name="meta.media.width">640</property>
  <property name="meta.media.height">360</property>
  <property name="meta.media.color_range">full</property>
  <property name="meta.media.top_field_first">0</property>
  <property name="meta.media.progressive">1</property>
  <property name="set.test_audio">1</property>
  <property name="set.test_image">0</property>
 </producer>
 <producer id="producer602" in="00:00:00.000" out="00:00:00.983">
  <property name="length">60</property>
  <property name="eof">pause</property>
  <property name="resource">/home/xiaoxiae/.cache/kdenlive/proxy/85b61749720780aaed023a90fd99d49d.mkv</property>
  <property name="audio_index">-1</property>
  <property name="video_index">0</property>
  <property name="mute_on_pause">0</property>
  <property name="mlt_service">avformat-novalidate</property>
  <property name="meta.media.nb_streams">1</property>
  <property name="meta.media.0.stream.type">video</property>
  <property name="meta.media.0.stream.frame_rate">60</property>
  <property name="meta.media.0.stream.sample_aspect_ratio">0</property>
  <property name="meta.media.0.codec.width">640</property>
  <property name="meta.media.0.codec.height">360</property>
  <property name="meta.media.0.codec.rotate">0</property>
  <property name="meta.media.0.codec.pix_fmt">yuvj420p</property>
  <property name="meta.media.0.codec.sample_aspect_ratio">0</property>
  <property name="meta.media.0.codec.colorspace">601</property>
  <property name="meta.media.0.codec.name">mjpeg</property>
  <property name="meta.media.0.codec.long_name">MJPEG (Motion JPEG)</property>
  <property name="meta.media.0.codec.bit_rate">0</property>
  <property name="meta.attr.0.stream.HANDLER_NAME.markup">VideoHandler</property>
  <property name="meta.attr.0.stream.VENDOR_ID.markup">[0][0][0][0]</property>
  <property name="meta.attr.0.stream.ENCODER.markup">Lavc60.3.100 mjpeg</property>
  <property name="meta.attr.0.stream.DURATION.markup">00:00:01.000000000</property>
  <property name="meta.attr.COMMENT.markup">Rendered with Manim Community v0.17.2</property>
  <property name="meta.attr.MAJOR_BRAND.markup">isom</property>
  <property name="meta.attr.MINOR_VERSION.markup">512</property>
  <property name="meta.attr.COMPATIBLE_BRANDS.markup">isomiso2avc1mp41</property>
  <property name="meta.attr.ENCODER.markup">Lavf60.3.100</property>
  <property name="seekable">1</property>
  <property name="meta.media.sample_aspect_num">1</property>
  <property name="meta.media.sample_aspect_den">1</property>
  <property name="aspect_ratio">1</property>
  <property name="format">3</property>
  <property name="kdenlive:clipname">2.mp4</property>
  <property name="kdenlive:clip_type">2</property>
  <property name="kdenlive:folderid">565</property>
  <property name="kdenlive:id">466</property>
  <property name="kdenlive:file_size">66602</property>
  <property name="kdenlive:file_hash">85b61749720780aaed023a90fd99d49d</property>
  <property name="kdenlive:proxy">/home/xiaoxiae/.cache/kdenlive/proxy/85b61749720780aaed023a90fd99d49d.mkv</property>
  <property name="kdenlive:originalurl">video/Search/2.mp4</property>
  <property name="kdenlive:original.mlt_type">producer</property>
  <property name="kdenlive:original.in">00:00:00.000</property>
  <property name="kdenlive:original.out">00:00:00.983</property>
  <property name="kdenlive:original.length">60</property>
  <property name="kdenlive:original.eof">pause</property>
  <property name="kdenlive:original.resource">video/Search/2.mp4</property>
  <property name="kdenlive:original.meta.media.nb_streams">1</property>
  <property name="kdenlive:original.meta.media.0.stream.type">video</property>
  <property name="kdenlive:original.meta.media.0.stream.frame_rate">60</property>
  <property name="kdenlive:original.meta.media.0.stream.sample_aspect_ratio">0</property>
  <property name="kdenlive:original.meta.media.0.codec.width">3840</property>
  <property name="kdenlive:original.meta.media.0.codec.height">2160</property>
  <property name="kdenlive:original.meta.media.0.codec.rotate">0</property>
  <property name="kdenlive:original.meta.media.0.codec.pix_fmt">yuv420p</property>
  <property name="kdenlive:original.meta.media.0.codec.sample_aspect_ratio">0</property>
  <property name="kdenlive:original.meta.media.0.codec.colorspace">709</property>
  <property name="kdenlive:original.meta.media.0.codec.name">h264</property>
  <property name="kdenlive:original.meta.media.0.codec.long_name">H.264 / AVC / MPEG-4 AVC / MPEG-4 part 10</property>
  <property name="kdenlive:original.meta.media.0.codec.bit_rate">519768</property>
  <property name="kdenlive:original.meta.attr.0.stream.handler_name.markup">VideoHandler</property>
  <property name="kdenlive:original.meta.attr.0.stream.vendor_id.markup">[0][0][0][0]</property>
  <property name="kdenlive:original.meta.attr.0.stream.encoder.markup">Lavc60.3.100 libx264</property>
  <property name="kdenlive:original.meta.attr.major_brand.markup">isom</property>
  <property name="kdenlive:original.meta.attr.minor_version.markup">512</property>
  <property name="kdenlive:original.meta.attr.compatible_brands.markup">isomiso2avc1mp41</property>
  <property name="kdenlive:original.meta.attr.encoder.markup">Lavf60.3.100</property>
  <property name="kdenlive:original.meta.attr.comment.markup">Rendered with Manim Community v0.17.2</property>
  <property name="kdenlive:original.seekable">1</property>
  <property name="kdenlive:original.width">3840</property>
  <property name="kdenlive:original.height">2160</property>
  <property name="kdenlive:original.meta.media.sample_aspect_num">1</property>
  <property name="kdenlive:original.meta.media.sample_aspect_den">1</property>
  <property name="kdenlive:original.aspect_ratio">1</property>
  <property name="kdenlive:original.format">3</property>
  <property name="kdenlive:original.audio_index">-1</property>
  <property name="kdenlive:original.video_index">0</property>
  <property name="kdenlive:original.mute_on_pause">0</property>
  <property name="kdenlive:original.mlt_service">avformat-novalidate</property>
  <property name="kdenlive:original.meta.media.frame_rate_num">60</property>
  <property name="kdenlive:original.meta.media.frame_rate_den">1</property>
  <property name="kdenlive:original.meta.media.colorspace">709</property>
  <property name="kdenlive:original.meta.media.color_trc">2</property>
  <property name="kdenlive:original.meta.media.has_b_frames">2</property>
  <property name="kdenlive:original.meta.media.width">3840</property>
  <property name="kdenlive:original.meta.media.height">2160</property>
  <property name="kdenlive:original.meta.media.color_range">mpeg</property>
  <property name="kdenlive:original.meta.media.top_field_first">0</property>
  <property name="kdenlive:original.meta.media.progressive">1</property>
  <property name="kdenlive:original.kdenlive:clip_type">2</property>
  <property name="kdenlive:original.kdenlive:folderid">565</property>
  <property name="kdenlive:original.kdenlive:id">577</property>
  <property name="kdenlive:original.kdenlive:file_size">66602</property>
  <property name="kdenlive:original.kdenlive:file_hash">85b61749720780aaed023a90fd99d49d</property>
  <property name="kdenlive:original.backup">1</property>
  <property name="xml">was here</property>
  <property name="meta.media.frame_rate_num">60</property>
  <property name="meta.media.frame_rate_den">1</property>
  <property name="meta.media.colorspace">601</property>
  <property name="meta.media.color_trc">2</property>
  <property name="meta.media.has_b_frames">0</property>
  <property name="meta.media.width">640</property>
  <property name="meta.media.height">360</property>
  <property name="meta.media.color_range">full</property>
  <property name="meta.media.top_field_first">0</property>
  <property name="meta.media.progressive">1</property>
  <property name="set.test_audio">1</property>
  <property name="set.test_image">0</property>
 </producer>
 <producer id="producer603" in="00:00:00.000" out="00:00:00.983">
  <property name="length">60</property>
  <property name="eof">pause</property>
  <property name="resource">/home/xiaoxiae/.cache/kdenlive/proxy/f47ca0d7dc81fa1fb5a0db4025fc4b8b.mkv</property>
  <property name="audio_index">-1</property>
  <property name="video_index">0</property>
  <property name="mute_on_pause">0</property>
  <property name="mlt_service">avformat-novalidate</property>
  <property name="meta.media.nb_streams">1</property>
  <property name="meta.media.0.stream.type">video</property>
  <property name="meta.media.0.stream.frame_rate">60</property>
  <property name="meta.media.0.stream.sample_aspect_ratio">0</property>
  <property name="meta.media.0.codec.width">640</property>
  <property name="meta.media.0.codec.height">360</property>
  <property name="meta.media.0.codec.rotate">0</property>
  <property name="meta.media.0.codec.pix_fmt">yuvj420p</property>
  <property name="meta.media.0.codec.sample_aspect_ratio">0</property>
  <property name="meta.media.0.codec.colorspace">601</property>
  <property name="meta.media.0.codec.name">mjpeg</property>
  <property name="meta.media.0.codec.long_name">MJPEG (Motion JPEG)</property>
  <property name="meta.media.0.codec.bit_rate">0</property>
  <property name="meta.attr.0.stream.HANDLER_NAME.markup">VideoHandler</property>
  <property name="meta.attr.0.stream.VENDOR_ID.markup">[0][0][0][0]</property>
  <property name="meta.attr.0.stream.ENCODER.markup">Lavc60.3.100 mjpeg</property>
  <property name="meta.attr.0.stream.DURATION.markup">00:00:01.000000000</property>
  <property name="meta.attr.COMMENT.markup">Rendered with Manim Community v0.17.2</property>
  <property name="meta.attr.MAJOR_BRAND.markup">isom</property>
  <property name="meta.attr.MINOR_VERSION.markup">512</property>
  <property name="meta.attr.COMPATIBLE_BRANDS.markup">isomiso2avc1mp41</property>
  <property name="meta.attr.ENCODER.markup">Lavf60.3.100</property>
  <property name="seekable">1</property>
  <property name="meta.media.sample_aspect_num">1</property>
  <property name="meta.media.sample_aspect_den">1</property>
  <property name="aspect_ratio">1</property>
  <property name="format">3</property>
  <property name="kdenlive:clipname">3.mp4</property>
  <property name="kdenlive:clip_type">2</property>
  <property name="kdenlive:folderid">565</property>
  <property name="kdenlive:id">477</property>
  <property name="kdenlive:file_size">77027</property>
  <property name="kdenlive:file_hash">f47ca0d7dc81fa1fb5a0db4025fc4b8b</property>
  <property name="kdenlive:proxy">/home/xiaoxiae/.cache/kdenlive/proxy/f47ca0d7dc81fa1fb5a0db4025fc4b8b.mkv</property>
  <property name="kdenlive:originalurl">video/Search/3.mp4</property>
  <property name="kdenlive:original.mlt_type">producer</property>
  <property name="kdenlive:original.in">00:00:00.000</property>
  <property name="kdenlive:original.out">00:00:00.983</property>
  <property name="kdenlive:original.length">60</property>
  <property name="kdenlive:original.eof">pause</property>
  <property name="kdenlive:original.resource">video/Search/3.mp4</property>
  <property name="kdenlive:original.meta.media.nb_streams">1</property>
  <property name="kdenlive:original.meta.media.0.stream.type">video</property>
  <property name="kdenlive:original.meta.media.0.stream.frame_rate">60</property>
  <property name="kdenlive:original.meta.media.0.stream.sample_aspect_ratio">0</property>
  <property name="kdenlive:original.meta.media.0.codec.width">3840</property>
  <property name="kdenlive:original.meta.media.0.codec.height">2160</property>
  <property name="kdenlive:original.meta.media.0.codec.rotate">0</property>
  <property name="kdenlive:original.meta.media.0.codec.pix_fmt">yuv420p</property>
  <property name="kdenlive:original.meta.media.0.codec.sample_aspect_ratio">0</property>
  <property name="kdenlive:original.meta.media.0.codec.colorspace">709</property>
  <property name="kdenlive:original.meta.media.0.codec.name">h264</property>
  <property name="kdenlive:original.meta.media.0.codec.long_name">H.264 / AVC / MPEG-4 AVC / MPEG-4 part 10</property>
  <property name="kdenlive:original.meta.media.0.codec.bit_rate">603168</property>
  <property name="kdenlive:original.meta.attr.0.stream.handler_name.markup">VideoHandler</property>
  <property name="kdenlive:original.meta.attr.0.stream.vendor_id.markup">[0][0][0][0]</property>
  <property name="kdenlive:original.meta.attr.0.stream.encoder.markup">Lavc60.3.100 libx264</property>
  <property name="kdenlive:original.meta.attr.major_brand.markup">isom</property>
  <property name="kdenlive:original.meta.attr.minor_version.markup">512</property>
  <property name="kdenlive:original.meta.attr.compatible_brands.markup">isomiso2avc1mp41</property>
  <property name="kdenlive:original.meta.attr.encoder.markup">Lavf60.3.100</property>
  <property name="kdenlive:original.meta.attr.comment.markup">Rendered with Manim Community v0.17.2</property>
  <property name="kdenlive:original.seekable">1</property>
  <property name="kdenlive:original.width">3840</property>
  <property name="kdenlive:original.height">2160</property>
  <property name="kdenlive:original.meta.media.sample_aspect_num">1</property>
  <property name="kdenlive:original.meta.media.sample_aspect_den">1</property>
  <property name="kdenlive:original.aspect_ratio">1</property>
  <property name="kdenlive:original.format">3</property>
  <property name="kdenlive:original.audio_index">-1</property>
  <property name="kdenlive:original.video_index">0</property>
  <property name="kdenlive:original.mute_on_pause">0</property>
  <property name="kdenlive:original.mlt_service">avformat-novalidate</property>
  <property name="kdenlive:original.meta.media.frame_rate_num">60</property>
  <property name="kdenlive:original.meta.media.frame_rate_den">1</property>
  <property name="kdenlive:original.meta.media.colorspace">709</property>
  <property name="kdenlive:original.meta.media.color_trc">2</property>
  <property name="kdenlive:original.meta.media.has_b_frames">2</property>
  <property name="kdenlive:original.meta.media.width">3840</property>
  <property name="kdenlive:original.meta.media.height">2160</property>
  <property name="kdenlive:original.meta.media.color_range">mpeg</property>
  <property name="kdenlive:original.meta.media.top_field_first">0</property>
  <property name="kdenlive:original.meta.media.progressive">1</property>
  <property name="kdenlive:original.kdenlive:clip_type">2</property>
  <property name="kdenlive:original.kdenlive:folderid">565</property>
  <property name="kdenlive:original.kdenlive:id">588</property>
  <property name="kdenlive:original.kdenlive:file_size">77027</property>
  <property name="kdenlive:original.kdenlive:file_hash">f47ca0d7dc81fa1fb5a0db4025fc4b8b</property>
  <property name="kdenlive:original.backup">1</property>
  <property name="xml">was here</property>
  <property name="meta.media.frame_rate_num">60</property>
  <property name="meta.media.frame_rate_den">1</property>
  <property name="meta.media.colorspace">601</property>
  <property name="meta.media.color_trc">2</property>
  <property name="meta.media.has_b_frames">0</property>
  <property name="meta.media.width">640</property>
  <property name="meta.media.height">360</property>
  <property name="meta.media.color_range">full</property>
  <property name="meta.media.top_field_first">0</property>
  <property name="meta.media.progressive">1</property>
  <property name="set.test_audio">1</property>
  <property name="set.test_image">0</property>
 </producer>
 <producer id="producer604" in="00:00:00.000" out="00:00:00.983">
  <property name="length">60</property>
  <property name="eof">pause</property>
  <property name="resource">/home/xiaoxiae/.cache/kdenlive/proxy/20f8c6cb7fd0887ee7bb8d49d5210544.mkv</property>
  <property name="audio_index">-1</property>
  <property name="video_index">0</property>
  <property name="mute_on_pause">0</property>
  <property name="mlt_service">avformat-novalidate</property>
  <property name="meta.media.nb_streams">1</property>
  <property name="meta.media.0.stream.type">video</property>
  <property name="meta.media.0.stream.frame_rate">60</property>
  <property name="meta.media.0.stream.sample_aspect_ratio">0</property>
  <property name="meta.media.0.codec.width">640</property>
  <property name="meta.media.0.codec.height">360</property>
  <property name="meta.media.0.codec.rotate">0</property>
  <property name="meta.media.0.codec.pix_fmt">yuvj420p</property>
  <property name="meta.media.0.codec.sample_aspect_ratio">0</property>
  <property name="meta.media.0.codec.colorspace">601</property>
  <property name="meta.media.0.codec.name">mjpeg</property>
  <property name="meta.media.0.codec.long_name">MJPEG (Motion JPEG)</property>
  <property name="meta.media.0.codec.bit_rate">0</property>
  <property name="meta.attr.0.stream.HANDLER_NAME.markup">VideoHandler</property>
  <property name="meta.attr.0.stream.VENDOR_ID.markup">[0][0][0][0]</property>
  <property name="meta.attr.0.stream.ENCODER.markup">Lavc60.3.100 mjpeg</property>
  <property name="meta.attr.0.stream.DURATION.markup">00:00:01.000000000</property>
  <property name="meta.attr.COMMENT.markup">Rendered with Manim Community v0.17.2</property>
  <property name="meta.attr.MAJOR_BRAND.markup">isom</property>
  <property name="meta.attr.MINOR_VERSION.markup">512</property>
  <property name="meta.attr.COMPATIBLE_BRANDS.markup">isomiso2avc1mp41</property>
  <property name="meta.attr.ENCODER.markup">Lavf60.3.100</property>
  <property name="seekable">1</property>
  <property name="meta.media.sample_aspect_num">1</property>
  <property name="meta.media.sample_aspect_den">1</property>
  <property name="aspect_ratio">1</property>
  <property name="format">3</property>
  <property name="kdenlive:clipname">4.mp4</property>
  <property name="kdenlive:clip_type">2</property>
  <property name="kdenlive:folderid">565</property>
  <property name="kdenlive:id">482</property>
  <property name="kdenlive:file_size">93878</property>
  <property name="kdenlive:file_hash">20f8c6cb7fd0887ee7bb8d49d5210544</property>
  <property name="kdenlive:proxy">/home/xiaoxiae/.cache/kdenlive/proxy/20f8c6cb7fd0887ee7bb8d49d5210544.mkv</property>
  <property name="kdenlive:originalurl">video/Search/4.mp4</property>
  <property name="kdenlive:original.mlt_type">producer</property>
  <property name="kdenlive:original.in">00:00:00.000</property>
  <property name="kdenlive:original.out">00:00:00.983</property>
  <property name="kdenlive:original.length">60</property>
  <property name="kdenlive:original.eof">pause</property>
  <property name="kdenlive:original.resource">video/Search/4.mp4</property>
  <property name="kdenlive:original.meta.media.nb_streams">1</property>
  <property name="kdenlive:original.meta.media.0.stream.type">video</property>
  <property name="kdenlive:original.meta.media.0.stream.frame_rate">60</property>
  <property name="kdenlive:original.meta.media.0.stream.sample_aspect_ratio">0</property>
  <property name="kdenlive:original.meta.media.0.codec.width">3840</property>
  <property name="kdenlive:original.meta.media.0.codec.height">2160</property>
  <property name="kdenlive:original.meta.media.0.codec.rotate">0</property>
  <property name="kdenlive:original.meta.media.0.codec.pix_fmt">yuv420p</property>
  <property name="kdenlive:original.meta.media.0.codec.sample_aspect_ratio">0</property>
  <property name="kdenlive:original.meta.media.0.codec.colorspace">709</property>
  <property name="kdenlive:original.meta.media.0.codec.name">h264</property>
  <property name="kdenlive:original.meta.media.0.codec.long_name">H.264 / AVC / MPEG-4 AVC / MPEG-4 part 10</property>
  <property name="kdenlive:original.meta.media.0.codec.bit_rate">738168</property>
  <property name="kdenlive:original.meta.attr.0.stream.handler_name.markup">VideoHandler</property>
  <property name="kdenlive:original.meta.attr.0.stream.vendor_id.markup">[0][0][0][0]</property>
  <property name="kdenlive:original.meta.attr.0.stream.encoder.markup">Lavc60.3.100 libx264</property>
  <property name="kdenlive:original.meta.attr.major_brand.markup">isom</property>
  <property name="kdenlive:original.meta.attr.minor_version.markup">512</property>
  <property name="kdenlive:original.meta.attr.compatible_brands.markup">isomiso2avc1mp41</property>
  <property name="kdenlive:original.meta.attr.encoder.markup">Lavf60.3.100</property>
  <property name="kdenlive:original.meta.attr.comment.markup">Rendered with Manim Community v0.17.2</property>
  <property name="kdenlive:original.seekable">1</property>
  <property name="kdenlive:original.width">3840</property>
  <property name="kdenlive:original.height">2160</property>
  <property name="kdenlive:original.meta.media.sample_aspect_num">1</property>
  <property name="kdenlive:original.meta.media.sample_aspect_den">1</property>
  <property name="kdenlive:original.aspect_ratio">1</property>
  <property name="kdenlive:original.format">3</property>
  <property name="kdenlive:original.audio_index">-1</property>
  <property name="kdenlive:original.video_index">0</property>
  <property name="kdenlive:original.mute_on_pause">0</property>
  <property name="kdenlive:original.mlt_service">avformat-novalidate</property>
  <property name="kdenlive:original.meta.media.frame_rate_num">60</property>
  <property name="kdenlive:original.meta.media.frame_rate_den">1</property>
  <property name="kdenlive:original.meta.media.colorspace">709</property>
  <property name="kdenlive:original.meta.media.color_trc">2</property>
  <property name="kdenlive:original.meta.media.has_b_frames">2</property>
  <property name="kdenlive:original.meta.media.width">3840</property>
  <property name="kdenlive:original.meta.media.height">2160</property>
  <property name="kdenlive:original.meta.media.color_range">mpeg</property>
  <property name="kdenlive:original.meta.media.top_field_first">0</property>
  <property name="kdenlive:original.meta.media.progressive">1</property>
  <property name="kdenlive:original.kdenlive:clip_type">2</property>
  <property name="kdenlive:original.kdenlive:folderid">565</property>
  <property name="kdenlive:original.kdenlive:id">593</property>
  <property name="kdenlive:original.kdenlive:file_size">93878</property>
  <property name="kdenlive:original.kdenlive:file_hash">20f8c6cb7fd0887ee7bb8d49d5210544</property>
  <property name="kdenlive:original.backup">1</property>
  <property name="xml">was here</property>
  <property name="meta.media.frame_rate_num">60</property>
  <property name="meta.media.frame_rate_den">1</property>
  <property name="meta.media.colorspace">601</property>
  <property name="meta.media.color_trc">2</property>
  <property name="meta.media.has_b_frames">0</property>
  <property name="meta.media.width">640</property>
  <property name="meta.media.height">360</property>
  <property name="meta.media.color_range">full</property>
  <property name="meta.media.top_field_first">0</property>
  <property name="meta.media.progressive">1</property>
  <property name="set.test_audio">1</property>
  <property name="set.test_image">0</property>
 </producer>
 <producer id="producer605" in="00:00:00.000" out="00:00:00.650">
  <property name="length">40</property>
  <property name="eof">pause</property>
  <property name="resource">/home/xiaoxiae/.cache/kdenlive/proxy/a273b5a59ad716761783cf23aacabef4.mkv</property>
  <property name="audio_index">-1</property>
  <property name="video_index">0</property>
  <property name="mute_on_pause">0</property>
  <property name="mlt_service">avformat-novalidate</property>
  <property name="meta.media.nb_streams">1</property>
  <property name="meta.media.0.stream.type">video</property>
  <property name="meta.media.0.stream.frame_rate">60</property>
  <property name="meta.media.0.stream.sample_aspect_ratio">0</property>
  <property name="meta.media.0.codec.width">640</property>
  <property name="meta.media.0.codec.height">360</property>
  <property name="meta.media.0.codec.rotate">0</property>
  <property name="meta.media.0.codec.pix_fmt">yuvj420p</property>
  <property name="meta.media.0.codec.sample_aspect_ratio">0</property>
  <property name="meta.media.0.codec.colorspace">601</property>
  <property name="meta.media.0.codec.name">mjpeg</property>
  <property name="meta.media.0.codec.long_name">MJPEG (Motion JPEG)</property>
  <property name="meta.media.0.codec.bit_rate">0</property>
  <property name="meta.attr.0.stream.HANDLER_NAME.markup">VideoHandler</property>
  <property name="meta.attr.0.stream.VENDOR_ID.markup">[0][0][0][0]</property>
  <property name="meta.attr.0.stream.ENCODER.markup">Lavc60.3.100 mjpeg</property>
  <property name="meta.attr.0.stream.DURATION.markup">00:00:00.667000000</property>
  <property name="meta.attr.COMMENT.markup">Rendered with Manim Community v0.17.2</property>
  <property name="meta.attr.MAJOR_BRAND.markup">isom</property>
  <property name="meta.attr.MINOR_VERSION.markup">512</property>
  <property name="meta.attr.COMPATIBLE_BRANDS.markup">isomiso2avc1mp41</property>
  <property name="meta.attr.ENCODER.markup">Lavf60.3.100</property>
  <property name="seekable">1</property>
  <property name="meta.media.sample_aspect_num">1</property>
  <property name="meta.media.sample_aspect_den">1</property>
  <property name="aspect_ratio">1</property>
  <property name="format">3</property>
  <property name="kdenlive:clipname">5.mp4</property>
  <property name="kdenlive:clip_type">2</property>
  <property name="kdenlive:folderid">565</property>
  <property name="kdenlive:id">483</property>
  <property name="kdenlive:file_size">85282</property>
  <property name="kdenlive:file_hash">a273b5a59ad716761783cf23aacabef4</property>
  <property name="kdenlive:proxy">/home/xiaoxiae/.cache/kdenlive/proxy/a273b5a59ad716761783cf23aacabef4.mkv</property>
  <property name="kdenlive:originalurl">video/Search/5.mp4</property>
  <property name="kdenlive:original.mlt_type">producer</property>
  <property name="kdenlive:original.in">00:00:00.000</property>
  <property name="kdenlive:original.out">00:00:00.650</property>
  <property name="kdenlive:original.length">40</property>
  <property name="kdenlive:original.eof">pause</property>
  <property name="kdenlive:original.resource">video/Search/5.mp4</property>
  <property name="kdenlive:original.meta.media.nb_streams">1</property>
  <property name="kdenlive:original.meta.media.0.stream.type">video</property>
  <property name="kdenlive:original.meta.media.0.stream.frame_rate">60</property>
  <property name="kdenlive:original.meta.media.0.stream.sample_aspect_ratio">0</property>
  <property name="kdenlive:original.meta.media.0.codec.width">3840</property>
  <property name="kdenlive:original.meta.media.0.codec.height">2160</property>
  <property name="kdenlive:original.meta.media.0.codec.rotate">0</property>
  <property name="kdenlive:original.meta.media.0.codec.pix_fmt">yuv420p</property>
  <property name="kdenlive:original.meta.media.0.codec.sample_aspect_ratio">0</property>
  <property name="kdenlive:original.meta.media.0.codec.colorspace">709</property>
  <property name="kdenlive:original.meta.media.0.codec.name">h264</property>
  <property name="kdenlive:original.meta.media.0.codec.long_name">H.264 / AVC / MPEG-4 AVC / MPEG-4 part 10</property>
  <property name="kdenlive:original.meta.media.0.codec.bit_rate">1006692</property>
  <property name="kdenlive:original.meta.attr.0.stream.handler_name.markup">VideoHandler</property>
  <property name="kdenlive:original.meta.attr.0.stream.vendor_id.markup">[0][0][0][0]</property>
  <property name="kdenlive:original.meta.attr.0.stream.encoder.markup">Lavc60.3.100 libx264</property>
  <property name="kdenlive:original.meta.attr.major_brand.markup">isom</property>
  <property name="kdenlive:original.meta.attr.minor_version.markup">512</property>
  <property name="kdenlive:original.meta.attr.compatible_brands.markup">isomiso2avc1mp41</property>
  <property name="kdenlive:original.meta.attr.encoder.markup">Lavf60.3.100</property>
  <property name="kdenlive:original.meta.attr.comment.markup">Rendered with Manim Community v0.17.2</property>
  <property name="kdenlive:original.seekable">1</property>
  <property name="kdenlive:original.width">3840</property>
  <property name="kdenlive:original.height">2160</property>
  <property name="kdenlive:original.meta.media.sample_aspect_num">1</property>
  <property name="kdenlive:original.meta.media.sample_aspect_den">1</property>
  <property name="kdenlive:original.aspect_ratio">1</property>
  <property name="kdenlive:original.format">3</property>
  <property name="kdenlive:original.audio_index">-1</property>
  <property name="kdenlive:original.video_index">0</property>
  <property name="kdenlive:original.mute_on_pause">0</property>
  <property name="kdenlive:original.mlt_service">avformat-novalidate</property>
  <property name="kdenlive:original.meta.media.frame_rate_num">60</property>
  <property name="kdenlive:original.meta.media.frame_rate_den">1</property>
  <property name="kdenlive:original.meta.media.colorspace">709</property>
  <property name="kdenlive:original.meta.media.color_trc">2</property>
  <property name="kdenlive:original.meta.media.has_b_frames">2</property>
  <property name="kdenlive:original.meta.media.width">3840</property>
  <property name="kdenlive:original.meta.media.height">2160</property>
  <property name="kdenlive:original.meta.media.color_range">mpeg</property>
  <property name="kdenlive:original.meta.media.top_field_first">0</property>
  <property name="kdenlive:original.meta.media.progressive">1</property>
  <property name="kdenlive:original.kdenlive:clip_type">2</property>
  <property name="kdenlive:original.kdenlive:folderid">565</property>
  <property name="kdenlive:original.kdenlive:id">594</property>
  <property name="kdenlive:original.kdenlive:file_size">85282</property>
  <property name="kdenlive:original.kdenlive:file_hash">a273b5a59ad716761783cf23aacabef4</property>
  <property name="kdenlive:original.backup">1</property>
  <property name="xml">was here</property>
  <property name="meta.media.frame_rate_num">60</property>
  <property name="meta.media.frame_rate_den">1</property>
  <property name="meta.media.colorspace">601</property>
  <property name="meta.media.color_trc">2</property>
  <property name="meta.media.has_b_frames">0</property>
  <property name="meta.media.width">640</property>
  <property name="meta.media.height">360</property>
  <property name="meta.media.color_range">full</property>
  <property name="meta.media.top_field_first">0</property>
  <property name="meta.media.progressive">1</property>
  <property name="set.test_audio">1</property>
  <property name="set.test_image">0</property>
 </producer>
 <producer id="producer606" in="00:00:00.000" out="00:00:00.650">
  <property name="length">40</property>
  <property name="eof">pause</property>
  <property name="resource">/home/xiaoxiae/.cache/kdenlive/proxy/4422370af46ef72957d03909c15fbf2c.mkv</property>
  <property name="audio_index">-1</property>
  <property name="video_index">0</property>
  <property name="mute_on_pause">0</property>
  <property name="mlt_service">avformat-novalidate</property>
  <property name="meta.media.nb_streams">1</property>
  <property name="meta.media.0.stream.type">video</property>
  <property name="meta.media.0.stream.frame_rate">60</property>
  <property name="meta.media.0.stream.sample_aspect_ratio">0</property>
  <property name="meta.media.0.codec.width">640</property>
  <property name="meta.media.0.codec.height">360</property>
  <property name="meta.media.0.codec.rotate">0</property>
  <property name="meta.media.0.codec.pix_fmt">yuvj420p</property>
  <property name="meta.media.0.codec.sample_aspect_ratio">0</property>
  <property name="meta.media.0.codec.colorspace">601</property>
  <property name="meta.media.0.codec.name">mjpeg</property>
  <property name="meta.media.0.codec.long_name">MJPEG (Motion JPEG)</property>
  <property name="meta.media.0.codec.bit_rate">0</property>
  <property name="meta.attr.0.stream.HANDLER_NAME.markup">VideoHandler</property>
  <property name="meta.attr.0.stream.VENDOR_ID.markup">[0][0][0][0]</property>
  <property name="meta.attr.0.stream.ENCODER.markup">Lavc60.3.100 mjpeg</property>
  <property name="meta.attr.0.stream.DURATION.markup">00:00:00.667000000</property>
  <property name="meta.attr.COMMENT.markup">Rendered with Manim Community v0.17.2</property>
  <property name="meta.attr.MAJOR_BRAND.markup">isom</property>
  <property name="meta.attr.MINOR_VERSION.markup">512</property>
  <property name="meta.attr.COMPATIBLE_BRANDS.markup">isomiso2avc1mp41</property>
  <property name="meta.attr.ENCODER.markup">Lavf60.3.100</property>
  <property name="seekable">1</property>
  <property name="meta.media.sample_aspect_num">1</property>
  <property name="meta.media.sample_aspect_den">1</property>
  <property name="aspect_ratio">1</property>
  <property name="format">3</property>
  <property name="kdenlive:clipname">6.mp4</property>
  <property name="kdenlive:clip_type">2</property>
  <property name="kdenlive:folderid">565</property>
  <property name="kdenlive:id">484</property>
  <property name="kdenlive:file_size">79868</property>
  <property name="kdenlive:file_hash">4422370af46ef72957d03909c15fbf2c</property>
  <property name="kdenlive:proxy">/home/xiaoxiae/.cache/kdenlive/proxy/4422370af46ef72957d03909c15fbf2c.mkv</property>
  <property name="kdenlive:originalurl">video/Search/6.mp4</property>
  <property name="kdenlive:original.mlt_type">producer</property>
  <property name="kdenlive:original.in">00:00:00.000</property>
  <property name="kdenlive:original.out">00:00:00.650</property>
  <property name="kdenlive:original.length">40</property>
  <property name="kdenlive:original.eof">pause</property>
  <property name="kdenlive:original.resource">video/Search/6.mp4</property>
  <property name="kdenlive:original.meta.media.nb_streams">1</property>
  <property name="kdenlive:original.meta.media.0.stream.type">video</property>
  <property name="kdenlive:original.meta.media.0.stream.frame_rate">60</property>
  <property name="kdenlive:original.meta.media.0.stream.sample_aspect_ratio">0</property>
  <property name="kdenlive:original.meta.media.0.codec.width">3840</property>
  <property name="kdenlive:original.meta.media.0.codec.height">2160</property>
  <property name="kdenlive:original.meta.media.0.codec.rotate">0</property>
  <property name="kdenlive:original.meta.media.0.codec.pix_fmt">yuv420p</property>
  <property name="kdenlive:original.meta.media.0.codec.sample_aspect_ratio">0</property>
  <property name="kdenlive:original.meta.media.0.codec.colorspace">709</property>
  <property name="kdenlive:original.meta.media.0.codec.name">h264</property>
  <property name="kdenlive:original.meta.media.0.codec.long_name">H.264 / AVC / MPEG-4 AVC / MPEG-4 part 10</property>
  <property name="kdenlive:original.meta.media.0.codec.bit_rate">941724</property>
  <property name="kdenlive:original.meta.attr.0.stream.handler_name.markup">VideoHandler</property>
  <property name="kdenlive:original.meta.attr.0.stream.vendor_id.markup">[0][0][0][0]</property>
  <property name="kdenlive:original.meta.attr.0.stream.encoder.markup">Lavc60.3.100 libx264</property>
  <property name="kdenlive:original.meta.attr.major_brand.markup">isom</property>
  <property name="kdenlive:original.meta.attr.minor_version.markup">512</property>
  <property name="kdenlive:original.meta.attr.compatible_brands.markup">isomiso2avc1mp41</property>
  <property name="kdenlive:original.meta.attr.encoder.markup">Lavf60.3.100</property>
  <property name="kdenlive:original.meta.attr.comment.markup">Rendered with Manim Community v0.17.2</property>
  <property name="kdenlive:original.seekable">1</property>
  <property name="kdenlive:original.width">3840</property>
  <property name="kdenlive:original.height">2160</property>
  <property name="kdenlive:original.meta.media.sample_aspect_num">1</property>
  <property name="kdenlive:original.meta.media.sample_aspect_den">1</property>
  <property name="kdenlive:original.aspect_ratio">1</property>
  <property name="kdenlive:original.format">3</property>
  <property name="kdenlive:original.audio_index">-1</property>
  <property name="kdenlive:original.video_index">0</property>
  <property name="kdenlive:original.mute_on_pause">0</property>
  <property name="kdenlive:original.mlt_service">avformat-novalidate</property>
  <property name="kdenlive:original.meta.media.frame_rate_num">60</property>
  <property name="kdenlive:original.meta.media.frame_rate_den">1</property>
  <property name="kdenlive:original.meta.media.colorspace">709</property>
  <property name="kdenlive:original.meta.media.color_trc">2</property>
  <property name="kdenlive:original.meta.media.has_b_frames">2</property>
  <property name="kdenlive:original.meta.media.width">3840</property>
  <property name="kdenlive:original.meta.media.height">2160</property>
  <property name="kdenlive:original.meta.media.color_range">mpeg</property>
  <property name="kdenlive:original.meta.media.top_field_first">0</property>
  <property name="kdenlive:original.meta.media.progressive">1</property>
  <property name="kdenlive:original.kdenlive:clip_type">2</property>
  <property name="kdenlive:original.kdenlive:folderid">565</property>
  <property name="kdenlive:original.kdenlive:id">595</property>
  <property name="kdenlive:original.kdenlive:file_size">79868</property>
  <property name="kdenlive:original.kdenlive:file_hash">4422370af46ef72957d03909c15fbf2c</property>
  <property name="kdenlive:original.backup">1</property>
  <property name="xml">was here</property>
  <property name="meta.media.frame_rate_num">60</property>
  <property name="meta.media.frame_rate_den">1</property>
  <property name="meta.media.colorspace">601</property>
  <property name="meta.media.color_trc">2</property>
  <property name="meta.media.has_b_frames">0</property>
  <property name="meta.media.width">640</property>
  <property name="meta.media.height">360</property>
  <property name="meta.media.color_range">full</property>
  <property name="meta.media.top_field_first">0</property>
  <property name="meta.media.progressive">1</property>
  <property name="set.test_audio">1</property>
  <property name="set.test_image">0</property>
 </producer>
 <producer id="producer607" in="00:00:00.000" out="00:00:00.650">
  <property name="length">40</property>
  <property name="eof">pause</property>
  <property name="resource">/home/xiaoxiae/.cache/kdenlive/proxy/4b25e0ace9719584e2ace22e00df1231.mkv</property>
  <property name="audio_index">-1</property>
  <property name="video_index">0</property>
  <property name="mute_on_pause">0</property>
  <property name="mlt_service">avformat-novalidate</property>
  <property name="meta.media.nb_streams">1</property>
  <property name="meta.media.0.stream.type">video</property>
  <property name="meta.media.0.stream.frame_rate">60</property>
  <property name="meta.media.0.stream.sample_aspect_ratio">0</property>
  <property name="meta.media.0.codec.width">640</property>
  <property name="meta.media.0.codec.height">360</property>
  <property name="meta.media.0.codec.rotate">0</property>
  <property name="meta.media.0.codec.pix_fmt">yuvj420p</property>
  <property name="meta.media.0.codec.sample_aspect_ratio">0</property>
  <property name="meta.media.0.codec.colorspace">601</property>
  <property name="meta.media.0.codec.name">mjpeg</property>
  <property name="meta.media.0.codec.long_name">MJPEG (Motion JPEG)</property>
  <property name="meta.media.0.codec.bit_rate">0</property>
  <property name="meta.attr.0.stream.HANDLER_NAME.markup">VideoHandler</property>
  <property name="meta.attr.0.stream.VENDOR_ID.markup">[0][0][0][0]</property>
  <property name="meta.attr.0.stream.ENCODER.markup">Lavc60.3.100 mjpeg</property>
  <property name="meta.attr.0.stream.DURATION.markup">00:00:00.667000000</property>
  <property name="meta.attr.COMMENT.markup">Rendered with Manim Community v0.17.2</property>
  <property name="meta.attr.MAJOR_BRAND.markup">isom</property>
  <property name="meta.attr.MINOR_VERSION.markup">512</property>
  <property name="meta.attr.COMPATIBLE_BRANDS.markup">isomiso2avc1mp41</property>
  <property name="meta.attr.ENCODER.markup">Lavf60.3.100</property>
  <property name="seekable">1</property>
  <property name="meta.media.sample_aspect_num">1</property>
  <property name="meta.media.sample_aspect_den">1</property>
  <property name="aspect_ratio">1</property>
  <property name="format">3</property>
  <property name="kdenlive:clipname">7.mp4</property>
  <property name="kdenlive:clip_type">2</property>
  <property name="kdenlive:folderid">565</property>
  <property name="kdenlive:id">485</property>
  <property name="kdenlive:file_size">82558</property>
  <property name="kdenlive:file_hash">4b25e0ace9719584e2ace22e00df1231</property>
  <property name="kdenlive:proxy">/home/xiaoxiae/.cache/kdenlive/proxy/4b25e0ace9719584e2ace22e00df1231.mkv</property>
  <property name="kdenlive:originalurl">video/Search/7.mp4</property>
  <property name="kdenlive:original.mlt_type">producer</property>
  <property name="kdenlive:original.in">00:00:00.000</property>
  <property name="kdenlive:original.out">00:00:00.650</property>
  <property name="kdenlive:original.length">40</property>
  <property name="kdenlive:original.eof">pause</property>
  <property name="kdenlive:original.resource">video/Search/7.mp4</property>
  <property name="kdenlive:original.meta.media.nb_streams">1</property>
  <property name="kdenlive:original.meta.media.0.stream.type">video</property>
  <property name="kdenlive:original.meta.media.0.stream.frame_rate">60</property>
  <property name="kdenlive:original.meta.media.0.stream.sample_aspect_ratio">0</property>
  <property name="kdenlive:original.meta.media.0.codec.width">3840</property>
  <property name="kdenlive:original.meta.media.0.codec.height">2160</property>
  <property name="kdenlive:original.meta.media.0.codec.rotate">0</property>
  <property name="kdenlive:original.meta.media.0.codec.pix_fmt">yuv420p</property>
  <property name="kdenlive:original.meta.media.0.codec.sample_aspect_ratio">0</property>
  <property name="kdenlive:original.meta.media.0.codec.colorspace">709</property>
  <property name="kdenlive:original.meta.media.0.codec.name">h264</property>
  <property name="kdenlive:original.meta.media.0.codec.long_name">H.264 / AVC / MPEG-4 AVC / MPEG-4 part 10</property>
  <property name="kdenlive:original.meta.media.0.codec.bit_rate">974100</property>
  <property name="kdenlive:original.meta.attr.0.stream.handler_name.markup">VideoHandler</property>
  <property name="kdenlive:original.meta.attr.0.stream.vendor_id.markup">[0][0][0][0]</property>
  <property name="kdenlive:original.meta.attr.0.stream.encoder.markup">Lavc60.3.100 libx264</property>
  <property name="kdenlive:original.meta.attr.major_brand.markup">isom</property>
  <property name="kdenlive:original.meta.attr.minor_version.markup">512</property>
  <property name="kdenlive:original.meta.attr.compatible_brands.markup">isomiso2avc1mp41</property>
  <property name="kdenlive:original.meta.attr.encoder.markup">Lavf60.3.100</property>
  <property name="kdenlive:original.meta.attr.comment.markup">Rendered with Manim Community v0.17.2</property>
  <property name="kdenlive:original.seekable">1</property>
  <property name="kdenlive:original.width">3840</property>
  <property name="kdenlive:original.height">2160</property>
  <property name="kdenlive:original.meta.media.sample_aspect_num">1</property>
  <property name="kdenlive:original.meta.media.sample_aspect_den">1</property>
  <property name="kdenlive:original.aspect_ratio">1</property>
  <property name="kdenlive:original.format">3</property>
  <property name="kdenlive:original.audio_index">-1</property>
  <property name="kdenlive:original.video_index">0</property>
  <property name="kdenlive:original.mute_on_pause">0</property>
  <property name="kdenlive:original.mlt_service">avformat-novalidate</property>
  <property name="kdenlive:original.meta.media.frame_rate_num">60</property>
  <property name="kdenlive:original.meta.media.frame_rate_den">1</property>
  <property name="kdenlive:original.meta.media.colorspace">709</property>
  <property name="kdenlive:original.meta.media.color_trc">2</property>
  <property name="kdenlive:original.meta.media.has_b_frames">2</property>
  <property name="kdenlive:original.meta.media.width">3840</property>
  <property name="kdenlive:original.meta.media.height">2160</property>
  <property name="kdenlive:original.meta.media.color_range">mpeg</property>
  <property name="kdenlive:original.meta.media.top_field_first">0</property>
  <property name="kdenlive:original.meta.media.progressive">1</property>
  <property name="kdenlive:original.kdenlive:clip_type">2</property>
  <property name="kdenlive:original.kdenlive:folderid">565</property>
  <property name="kdenlive:original.kdenlive:id">596</property>
  <property name="kdenlive:original.kdenlive:file_size">82558</property>
  <property name="kdenlive:original.kdenlive:file_hash">4b25e0ace9719584e2ace22e00df1231</property>
  <property name="kdenlive:original.backup">1</property>
  <property name="xml">was here</property>
  <property name="meta.media.frame_rate_num">60</property>
  <property name="meta.media.frame_rate_den">1</property>
  <property name="meta.media.colorspace">601</property>
  <property name="meta.media.color_trc">2</property>
  <property name="meta.media.has_b_frames">0</property>
  <property name="meta.media.width">640</property>
  <property name="meta.media.height">360</property>
  <property name="meta.media.color_range">full</property>
  <property name="meta.media.top_field_first">0</property>
  <property name="meta.media.progressive">1</property>
  <property name="set.test_audio">1</property>
  <property name="set.test_image">0</property>
 </producer>
 <producer id="producer608" in="00:00:00.000" out="00:00:00.650">
  <property name="length">40</property>
  <property name="eof">pause</property>
  <property name="resource">/home/xiaoxiae/.cache/kdenlive/proxy/5f400135a5f458b1efaf60655172a57c.mkv</property>
  <property name="audio_index">-1</property>
  <property name="video_index">0</property>
  <property name="mute_on_pause">0</property>
  <property name="mlt_service">avformat-novalidate</property>
  <property name="meta.media.nb_streams">1</property>
  <property name="meta.media.0.stream.type">video</property>
  <property name="meta.media.0.stream.frame_rate">60</property>
  <property name="meta.media.0.stream.sample_aspect_ratio">0</property>
  <property name="meta.media.0.codec.width">640</property>
  <property name="meta.media.0.codec.height">360</property>
  <property name="meta.media.0.codec.rotate">0</property>
  <property name="meta.media.0.codec.pix_fmt">yuvj420p</property>
  <property name="meta.media.0.codec.sample_aspect_ratio">0</property>
  <property name="meta.media.0.codec.colorspace">601</property>
  <property name="meta.media.0.codec.name">mjpeg</property>
  <property name="meta.media.0.codec.long_name">MJPEG (Motion JPEG)</property>
  <property name="meta.media.0.codec.bit_rate">0</property>
  <property name="meta.attr.0.stream.HANDLER_NAME.markup">VideoHandler</property>
  <property name="meta.attr.0.stream.VENDOR_ID.markup">[0][0][0][0]</property>
  <property name="meta.attr.0.stream.ENCODER.markup">Lavc60.3.100 mjpeg</property>
  <property name="meta.attr.0.stream.DURATION.markup">00:00:00.667000000</property>
  <property name="meta.attr.COMMENT.markup">Rendered with Manim Community v0.17.2</property>
  <property name="meta.attr.MAJOR_BRAND.markup">isom</property>
  <property name="meta.attr.MINOR_VERSION.markup">512</property>
  <property name="meta.attr.COMPATIBLE_BRANDS.markup">isomiso2avc1mp41</property>
  <property name="meta.attr.ENCODER.markup">Lavf60.3.100</property>
  <property name="seekable">1</property>
  <property name="meta.media.sample_aspect_num">1</property>
  <property name="meta.media.sample_aspect_den">1</property>
  <property name="aspect_ratio">1</property>
  <property name="format">3</property>
  <property name="kdenlive:clipname">8.mp4</property>
  <property name="kdenlive:clip_type">2</property>
  <property name="kdenlive:folderid">565</property>
  <property name="kdenlive:id">486</property>
  <property name="kdenlive:file_size">97136</property>
  <property name="kdenlive:file_hash">5f400135a5f458b1efaf60655172a57c</property>
  <property name="kdenlive:proxy">/home/xiaoxiae/.cache/kdenlive/proxy/5f400135a5f458b1efaf60655172a57c.mkv</property>
  <property name="kdenlive:originalurl">video/Search/8.mp4</property>
  <property name="kdenlive:original.mlt_type">producer</property>
  <property name="kdenlive:original.in">00:00:00.000</property>
  <property name="kdenlive:original.out">00:00:00.650</property>
  <property name="kdenlive:original.length">40</property>
  <property name="kdenlive:original.eof">pause</property>
  <property name="kdenlive:original.resource">video/Search/8.mp4</property>
  <property name="kdenlive:original.meta.media.nb_streams">1</property>
  <property name="kdenlive:original.meta.media.0.stream.type">video</property>
  <property name="kdenlive:original.meta.media.0.stream.frame_rate">60</property>
  <property name="kdenlive:original.meta.media.0.stream.sample_aspect_ratio">0</property>
  <property name="kdenlive:original.meta.media.0.codec.width">3840</property>
  <property name="kdenlive:original.meta.media.0.codec.height">2160</property>
  <property name="kdenlive:original.meta.media.0.codec.rotate">0</property>
  <property name="kdenlive:original.meta.media.0.codec.pix_fmt">yuv420p</property>
  <property name="kdenlive:original.meta.media.0.codec.sample_aspect_ratio">0</property>
  <property name="kdenlive:original.meta.media.0.codec.colorspace">709</property>
  <property name="kdenlive:original.meta.media.0.codec.name">h264</property>
  <property name="kdenlive:original.meta.media.0.codec.long_name">H.264 / AVC / MPEG-4 AVC / MPEG-4 part 10</property>
  <property name="kdenlive:original.meta.media.0.codec.bit_rate">1149132</property>
  <property name="kdenlive:original.meta.attr.0.stream.handler_name.markup">VideoHandler</property>
  <property name="kdenlive:original.meta.attr.0.stream.vendor_id.markup">[0][0][0][0]</property>
  <property name="kdenlive:original.meta.attr.0.stream.encoder.markup">Lavc60.3.100 libx264</property>
  <property name="kdenlive:original.meta.attr.major_brand.markup">isom</property>
  <property name="kdenlive:original.meta.attr.minor_version.markup">512</property>
  <property name="kdenlive:original.meta.attr.compatible_brands.markup">isomiso2avc1mp41</property>
  <property name="kdenlive:original.meta.attr.encoder.markup">Lavf60.3.100</property>
  <property name="kdenlive:original.meta.attr.comment.markup">Rendered with Manim Community v0.17.2</property>
  <property name="kdenlive:original.seekable">1</property>
  <property name="kdenlive:original.width">3840</property>
  <property name="kdenlive:original.height">2160</property>
  <property name="kdenlive:original.meta.media.sample_aspect_num">1</property>
  <property name="kdenlive:original.meta.media.sample_aspect_den">1</property>
  <property name="kdenlive:original.aspect_ratio">1</property>
  <property name="kdenlive:original.format">3</property>
  <property name="kdenlive:original.audio_index">-1</property>
  <property name="kdenlive:original.video_index">0</property>
  <property name="kdenlive:original.mute_on_pause">0</property>
  <property name="kdenlive:original.mlt_service">avformat-novalidate</property>
  <property name="kdenlive:original.meta.media.frame_rate_num">60</property>
  <property name="kdenlive:original.meta.media.frame_rate_den">1</property>
  <property name="kdenlive:original.meta.media.colorspace">709</property>
  <property name="kdenlive:original.meta.media.color_trc">2</property>
  <property name="kdenlive:original.meta.media.has_b_frames">2</property>
  <property name="kdenlive:original.meta.media.width">3840</property>
  <property name="kdenlive:original.meta.media.height">2160</property>
  <property name="kdenlive:original.meta.media.color_range">mpeg</property>
  <property name="kdenlive:original.meta.media.top_field_first">0</property>
  <property name="kdenlive:original.meta.media.progressive">1</property>
  <property name="kdenlive:original.kdenlive:clip_type">2</property>
  <property name="kdenlive:original.kdenlive:folderid">565</property>
  <property name="kdenlive:original.kdenlive:id">597</property>
  <property name="kdenlive:original.kdenlive:file_size">97136</property>
  <property name="kdenlive:original.kdenlive:file_hash">5f400135a5f458b1efaf60655172a57c</property>
  <property name="kdenlive:original.backup">1</property>
  <property name="xml">was here</property>
  <property name="meta.media.frame_rate_num">60</property>
  <property name="meta.media.frame_rate_den">1</property>
  <property name="meta.media.colorspace">601</property>
  <property name="meta.media.color_trc">2</property>
  <property name="meta.media.has_b_frames">0</property>
  <property name="meta.media.width">640</property>
  <property name="meta.media.height">360</property>
  <property name="meta.media.color_range">full</property>
  <property name="meta.media.top_field_first">0</property>
  <property name="meta.media.progressive">1</property>
  <property name="set.test_audio">1</property>
  <property name="set.test_image">0</property>
 </producer>
 <producer id="producer609" in="00:00:00.000" out="00:00:00.983">
  <property name="length">60</property>
  <property name="eof">pause</property>
  <property name="resource">/home/xiaoxiae/.cache/kdenlive/proxy/5ab8a286666f257cbbca676c4f8320dd.mkv</property>
  <property name="audio_index">-1</property>
  <property name="video_index">0</property>
  <property name="mute_on_pause">0</property>
  <property name="mlt_service">avformat-novalidate</property>
  <property name="meta.media.nb_streams">1</property>
  <property name="meta.media.0.stream.type">video</property>
  <property name="meta.media.0.stream.frame_rate">60</property>
  <property name="meta.media.0.stream.sample_aspect_ratio">0</property>
  <property name="meta.media.0.codec.width">640</property>
  <property name="meta.media.0.codec.height">360</property>
  <property name="meta.media.0.codec.rotate">0</property>
  <property name="meta.media.0.codec.pix_fmt">yuvj420p</property>
  <property name="meta.media.0.codec.sample_aspect_ratio">0</property>
  <property name="meta.media.0.codec.colorspace">601</property>
  <property name="meta.media.0.codec.name">mjpeg</property>
  <property name="meta.media.0.codec.long_name">MJPEG (Motion JPEG)</property>
  <property name="meta.media.0.codec.bit_rate">0</property>
  <property name="meta.attr.0.stream.HANDLER_NAME.markup">VideoHandler</property>
  <property name="meta.attr.0.stream.VENDOR_ID.markup">[0][0][0][0]</property>
  <property name="meta.attr.0.stream.ENCODER.markup">Lavc60.3.100 mjpeg</property>
  <property name="meta.attr.0.stream.DURATION.markup">00:00:01.000000000</property>
  <property name="meta.attr.COMMENT.markup">Rendered with Manim Community v0.17.2</property>
  <property name="meta.attr.MAJOR_BRAND.markup">isom</property>
  <property name="meta.attr.MINOR_VERSION.markup">512</property>
  <property name="meta.attr.COMPATIBLE_BRANDS.markup">isomiso2avc1mp41</property>
  <property name="meta.attr.ENCODER.markup">Lavf60.3.100</property>
  <property name="seekable">1</property>
  <property name="meta.media.sample_aspect_num">1</property>
  <property name="meta.media.sample_aspect_den">1</property>
  <property name="aspect_ratio">1</property>
  <property name="format">3</property>
  <property name="kdenlive:clipname">9.mp4</property>
  <property name="kdenlive:clip_type">2</property>
  <property name="kdenlive:folderid">565</property>
  <property name="kdenlive:id">487</property>
  <property name="kdenlive:file_size">200363</property>
  <property name="kdenlive:file_hash">5ab8a286666f257cbbca676c4f8320dd</property>
  <property name="kdenlive:proxy">/home/xiaoxiae/.cache/kdenlive/proxy/5ab8a286666f257cbbca676c4f8320dd.mkv</property>
  <property name="kdenlive:originalurl">video/Search/9.mp4</property>
  <property name="kdenlive:original.mlt_type">producer</property>
  <property name="kdenlive:original.in">00:00:00.000</property>
  <property name="kdenlive:original.out">00:00:00.983</property>
  <property name="kdenlive:original.length">60</property>
  <property name="kdenlive:original.eof">pause</property>
  <property name="kdenlive:original.resource">video/Search/9.mp4</property>
  <property name="kdenlive:original.meta.media.nb_streams">1</property>
  <property name="kdenlive:original.meta.media.0.stream.type">video</property>
  <property name="kdenlive:original.meta.media.0.stream.frame_rate">60</property>
  <property name="kdenlive:original.meta.media.0.stream.sample_aspect_ratio">0</property>
  <property name="kdenlive:original.meta.media.0.codec.width">3840</property>
  <property name="kdenlive:original.meta.media.0.codec.height">2160</property>
  <property name="kdenlive:original.meta.media.0.codec.rotate">0</property>
  <property name="kdenlive:original.meta.media.0.codec.pix_fmt">yuv420p</property>
  <property name="kdenlive:original.meta.media.0.codec.sample_aspect_ratio">0</property>
  <property name="kdenlive:original.meta.media.0.codec.colorspace">709</property>
  <property name="kdenlive:original.meta.media.0.codec.name">h264</property>
  <property name="kdenlive:original.meta.media.0.codec.long_name">H.264 / AVC / MPEG-4 AVC / MPEG-4 part 10</property>
  <property name="kdenlive:original.meta.media.0.codec.bit_rate">1589856</property>
  <property name="kdenlive:original.meta.attr.0.stream.handler_name.markup">VideoHandler</property>
  <property name="kdenlive:original.meta.attr.0.stream.vendor_id.markup">[0][0][0][0]</property>
  <property name="kdenlive:original.meta.attr.0.stream.encoder.markup">Lavc60.3.100 libx264</property>
  <property name="kdenlive:original.meta.attr.major_brand.markup">isom</property>
  <property name="kdenlive:original.meta.attr.minor_version.markup">512</property>
  <property name="kdenlive:original.meta.attr.compatible_brands.markup">isomiso2avc1mp41</property>
  <property name="kdenlive:original.meta.attr.encoder.markup">Lavf60.3.100</property>
  <property name="kdenlive:original.meta.attr.comment.markup">Rendered with Manim Community v0.17.2</property>
  <property name="kdenlive:original.seekable">1</property>
  <property name="kdenlive:original.width">3840</property>
  <property name="kdenlive:original.height">2160</property>
  <property name="kdenlive:original.meta.media.sample_aspect_num">1</property>
  <property name="kdenlive:original.meta.media.sample_aspect_den">1</property>
  <property name="kdenlive:original.aspect_ratio">1</property>
  <property name="kdenlive:original.format">3</property>
  <property name="kdenlive:original.audio_index">-1</property>
  <property name="kdenlive:original.video_index">0</property>
  <property name="kdenlive:original.mute_on_pause">0</property>
  <property name="kdenlive:original.mlt_service">avformat-novalidate</property>
  <property name="kdenlive:original.meta.media.frame_rate_num">60</property>
  <property name="kdenlive:original.meta.media.frame_rate_den">1</property>
  <property name="kdenlive:original.meta.media.colorspace">709</property>
  <property name="kdenlive:original.meta.media.color_trc">2</property>
  <property name="kdenlive:original.meta.media.has_b_frames">2</property>
  <property name="kdenlive:original.meta.media.width">3840</property>
  <property name="kdenlive:original.meta.media.height">2160</property>
  <property name="kdenlive:original.meta.media.color_range">mpeg</property>
  <property name="kdenlive:original.meta.media.top_field_first">0</property>
  <property name="kdenlive:original.meta.media.progressive">1</property>
  <property name="kdenlive:original.kdenlive:clip_type">2</property>
  <property name="kdenlive:original.kdenlive:folderid">565</property>
  <property name="kdenlive:original.kdenlive:id">598</property>
  <property name="kdenlive:original.kdenlive:file_size">200363</property>
  <property name="kdenlive:original.kdenlive:file_hash">5ab8a286666f257cbbca676c4f8320dd</property>
  <property name="kdenlive:original.backup">1</property>
  <property name="xml">was here</property>
  <property name="meta.media.frame_rate_num">60</property>
  <property name="meta.media.frame_rate_den">1</property>
  <property name="meta.media.colorspace">601</property>
  <property name="meta.media.color_trc">2</property>
  <property name="meta.media.has_b_frames">0</property>
  <property name="meta.media.width">640</property>
  <property name="meta.media.height">360</property>
  <property name="meta.media.color_range">full</property>
  <property name="meta.media.top_field_first">0</property>
  <property name="meta.media.progressive">1</property>
  <property name="set.test_audio">1</property>
  <property name="set.test_image">0</property>
 </producer>
 <producer id="producer610" in="00:00:00.000" out="00:00:00.983">
  <property name="length">60</property>
  <property name="eof">pause</property>
  <property name="resource">/home/xiaoxiae/.cache/kdenlive/proxy/21b5c798fa1dfbd7897dd47e86c6a0a0.mkv</property>
  <property name="audio_index">-1</property>
  <property name="video_index">0</property>
  <property name="mute_on_pause">0</property>
  <property name="mlt_service">avformat-novalidate</property>
  <property name="meta.media.nb_streams">1</property>
  <property name="meta.media.0.stream.type">video</property>
  <property name="meta.media.0.stream.frame_rate">60</property>
  <property name="meta.media.0.stream.sample_aspect_ratio">0</property>
  <property name="meta.media.0.codec.width">640</property>
  <property name="meta.media.0.codec.height">360</property>
  <property name="meta.media.0.codec.rotate">0</property>
  <property name="meta.media.0.codec.pix_fmt">yuvj420p</property>
  <property name="meta.media.0.codec.sample_aspect_ratio">0</property>
  <property name="meta.media.0.codec.colorspace">601</property>
  <property name="meta.media.0.codec.name">mjpeg</property>
  <property name="meta.media.0.codec.long_name">MJPEG (Motion JPEG)</property>
  <property name="meta.media.0.codec.bit_rate">0</property>
  <property name="meta.attr.0.stream.HANDLER_NAME.markup">VideoHandler</property>
  <property name="meta.attr.0.stream.VENDOR_ID.markup">[0][0][0][0]</property>
  <property name="meta.attr.0.stream.ENCODER.markup">Lavc60.3.100 mjpeg</property>
  <property name="meta.attr.0.stream.DURATION.markup">00:00:01.000000000</property>
  <property name="meta.attr.COMMENT.markup">Rendered with Manim Community v0.17.2</property>
  <property name="meta.attr.MAJOR_BRAND.markup">isom</property>
  <property name="meta.attr.MINOR_VERSION.markup">512</property>
  <property name="meta.attr.COMPATIBLE_BRANDS.markup">isomiso2avc1mp41</property>
  <property name="meta.attr.ENCODER.markup">Lavf60.3.100</property>
  <property name="seekable">1</property>
  <property name="meta.media.sample_aspect_num">1</property>
  <property name="meta.media.sample_aspect_den">1</property>
  <property name="aspect_ratio">1</property>
  <property name="format">3</property>
  <property name="kdenlive:clipname">10.mp4</property>
  <property name="kdenlive:clip_type">2</property>
  <property name="kdenlive:folderid">565</property>
  <property name="kdenlive:id">456</property>
  <property name="kdenlive:file_size">64850</property>
  <property name="kdenlive:file_hash">21b5c798fa1dfbd7897dd47e86c6a0a0</property>
  <property name="kdenlive:proxy">/home/xiaoxiae/.cache/kdenlive/proxy/21b5c798fa1dfbd7897dd47e86c6a0a0.mkv</property>
  <property name="kdenlive:originalurl">video/Search/10.mp4</property>
  <property name="kdenlive:original.mlt_type">producer</property>
  <property name="kdenlive:original.in">00:00:00.000</property>
  <property name="kdenlive:original.out">00:00:00.983</property>
  <property name="kdenlive:original.length">60</property>
  <property name="kdenlive:original.eof">pause</property>
  <property name="kdenlive:original.resource">video/Search/10.mp4</property>
  <property name="kdenlive:original.meta.media.nb_streams">1</property>
  <property name="kdenlive:original.meta.media.0.stream.type">video</property>
  <property name="kdenlive:original.meta.media.0.stream.frame_rate">60</property>
  <property name="kdenlive:original.meta.media.0.stream.sample_aspect_ratio">0</property>
  <property name="kdenlive:original.meta.media.0.codec.width">3840</property>
  <property name="kdenlive:original.meta.media.0.codec.height">2160</property>
  <property name="kdenlive:original.meta.media.0.codec.rotate">0</property>
  <property name="kdenlive:original.meta.media.0.codec.pix_fmt">yuv420p</property>
  <property name="kdenlive:original.meta.media.0.codec.sample_aspect_ratio">0</property>
  <property name="kdenlive:original.meta.media.0.codec.colorspace">709</property>
  <property name="kdenlive:original.meta.media.0.codec.name">h264</property>
  <property name="kdenlive:original.meta.media.0.codec.long_name">H.264 / AVC / MPEG-4 AVC / MPEG-4 part 10</property>
  <property name="kdenlive:original.meta.media.0.codec.bit_rate">505752</property>
  <property name="kdenlive:original.meta.attr.0.stream.handler_name.markup">VideoHandler</property>
  <property name="kdenlive:original.meta.attr.0.stream.vendor_id.markup">[0][0][0][0]</property>
  <property name="kdenlive:original.meta.attr.0.stream.encoder.markup">Lavc60.3.100 libx264</property>
  <property name="kdenlive:original.meta.attr.major_brand.markup">isom</property>
  <property name="kdenlive:original.meta.attr.minor_version.markup">512</property>
  <property name="kdenlive:original.meta.attr.compatible_brands.markup">isomiso2avc1mp41</property>
  <property name="kdenlive:original.meta.attr.encoder.markup">Lavf60.3.100</property>
  <property name="kdenlive:original.meta.attr.comment.markup">Rendered with Manim Community v0.17.2</property>
  <property name="kdenlive:original.seekable">1</property>
  <property name="kdenlive:original.width">3840</property>
  <property name="kdenlive:original.height">2160</property>
  <property name="kdenlive:original.meta.media.sample_aspect_num">1</property>
  <property name="kdenlive:original.meta.media.sample_aspect_den">1</property>
  <property name="kdenlive:original.aspect_ratio">1</property>
  <property name="kdenlive:original.format">3</property>
  <property name="kdenlive:original.audio_index">-1</property>
  <property name="kdenlive:original.video_index">0</property>
  <property name="kdenlive:original.mute_on_pause">0</property>
  <property name="kdenlive:original.mlt_service">avformat-novalidate</property>
  <property name="kdenlive:original.meta.media.frame_rate_num">60</property>
  <property name="kdenlive:original.meta.media.frame_rate_den">1</property>
  <property name="kdenlive:original.meta.media.colorspace">709</property>
  <property name="kdenlive:original.meta.media.color_trc">2</property>
  <property name="kdenlive:original.meta.media.has_b_frames">2</property>
  <property name="kdenlive:original.meta.media.width">3840</property>
  <property name="kdenlive:original.meta.media.height">2160</property>
  <property name="kdenlive:original.meta.media.color_range">mpeg</property>
  <property name="kdenlive:original.meta.media.top_field_first">0</property>
  <property name="kdenlive:original.meta.media.progressive">1</property>
  <property name="kdenlive:original.kdenlive:clip_type">2</property>
  <property name="kdenlive:original.kdenlive:folderid">565</property>
  <property name="kdenlive:original.kdenlive:id">567</property>
  <property name="kdenlive:original.kdenlive:file_size">64850</property>
  <property name="kdenlive:original.kdenlive:file_hash">21b5c798fa1dfbd7897dd47e86c6a0a0</property>
  <property name="kdenlive:original.backup">1</property>
  <property name="xml">was here</property>
  <property name="meta.media.frame_rate_num">60</property>
  <property name="meta.media.frame_rate_den">1</property>
  <property name="meta.media.colorspace">601</property>
  <property name="meta.media.color_trc">2</property>
  <property name="meta.media.has_b_frames">0</property>
  <property name="meta.media.width">640</property>
  <property name="meta.media.height">360</property>
  <property name="meta.media.color_range">full</property>
  <property name="meta.media.top_field_first">0</property>
  <property name="meta.media.progressive">1</property>
  <property name="set.test_audio">1</property>
  <property name="set.test_image">0</property>
 </producer>
 <producer id="producer611" in="00:00:00.000" out="00:00:00.983">
  <property name="length">60</property>
  <property name="eof">pause</property>
  <property name="resource">/home/xiaoxiae/.cache/kdenlive/proxy/89b4977c7979c0e6e436140be9e402c5.mkv</property>
  <property name="audio_index">-1</property>
  <property name="video_index">0</property>
  <property name="mute_on_pause">0</property>
  <property name="mlt_service">avformat-novalidate</property>
  <property name="meta.media.nb_streams">1</property>
  <property name="meta.media.0.stream.type">video</property>
  <property name="meta.media.0.stream.frame_rate">60</property>
  <property name="meta.media.0.stream.sample_aspect_ratio">0</property>
  <property name="meta.media.0.codec.width">640</property>
  <property name="meta.media.0.codec.height">360</property>
  <property name="meta.media.0.codec.rotate">0</property>
  <property name="meta.media.0.codec.pix_fmt">yuvj420p</property>
  <property name="meta.media.0.codec.sample_aspect_ratio">0</property>
  <property name="meta.media.0.codec.colorspace">601</property>
  <property name="meta.media.0.codec.name">mjpeg</property>
  <property name="meta.media.0.codec.long_name">MJPEG (Motion JPEG)</property>
  <property name="meta.media.0.codec.bit_rate">0</property>
  <property name="meta.attr.0.stream.HANDLER_NAME.markup">VideoHandler</property>
  <property name="meta.attr.0.stream.VENDOR_ID.markup">[0][0][0][0]</property>
  <property name="meta.attr.0.stream.ENCODER.markup">Lavc60.3.100 mjpeg</property>
  <property name="meta.attr.0.stream.DURATION.markup">00:00:01.000000000</property>
  <property name="meta.attr.COMMENT.markup">Rendered with Manim Community v0.17.2</property>
  <property name="meta.attr.MAJOR_BRAND.markup">isom</property>
  <property name="meta.attr.MINOR_VERSION.markup">512</property>
  <property name="meta.attr.COMPATIBLE_BRANDS.markup">isomiso2avc1mp41</property>
  <property name="meta.attr.ENCODER.markup">Lavf60.3.100</property>
  <property name="seekable">1</property>
  <property name="meta.media.sample_aspect_num">1</property>
  <property name="meta.media.sample_aspect_den">1</property>
  <property name="aspect_ratio">1</property>
  <property name="format">3</property>
  <property name="kdenlive:clipname">11.mp4</property>
  <property name="kdenlive:clip_type">2</property>
  <property name="kdenlive:folderid">565</property>
  <property name="kdenlive:id">457</property>
  <property name="kdenlive:file_size">64765</property>
  <property name="kdenlive:file_hash">89b4977c7979c0e6e436140be9e402c5</property>
  <property name="kdenlive:proxy">/home/xiaoxiae/.cache/kdenlive/proxy/89b4977c7979c0e6e436140be9e402c5.mkv</property>
  <property name="kdenlive:originalurl">video/Search/11.mp4</property>
  <property name="kdenlive:original.mlt_type">producer</property>
  <property name="kdenlive:original.in">00:00:00.000</property>
  <property name="kdenlive:original.out">00:00:00.983</property>
  <property name="kdenlive:original.length">60</property>
  <property name="kdenlive:original.eof">pause</property>
  <property name="kdenlive:original.resource">video/Search/11.mp4</property>
  <property name="kdenlive:original.meta.media.nb_streams">1</property>
  <property name="kdenlive:original.meta.media.0.stream.type">video</property>
  <property name="kdenlive:original.meta.media.0.stream.frame_rate">60</property>
  <property name="kdenlive:original.meta.media.0.stream.sample_aspect_ratio">0</property>
  <property name="kdenlive:original.meta.media.0.codec.width">3840</property>
  <property name="kdenlive:original.meta.media.0.codec.height">2160</property>
  <property name="kdenlive:original.meta.media.0.codec.rotate">0</property>
  <property name="kdenlive:original.meta.media.0.codec.pix_fmt">yuv420p</property>
  <property name="kdenlive:original.meta.media.0.codec.sample_aspect_ratio">0</property>
  <property name="kdenlive:original.meta.media.0.codec.colorspace">709</property>
  <property name="kdenlive:original.meta.media.0.codec.name">h264</property>
  <property name="kdenlive:original.meta.media.0.codec.long_name">H.264 / AVC / MPEG-4 AVC / MPEG-4 part 10</property>
  <property name="kdenlive:original.meta.media.0.codec.bit_rate">505328</property>
  <property name="kdenlive:original.meta.attr.0.stream.handler_name.markup">VideoHandler</property>
  <property name="kdenlive:original.meta.attr.0.stream.vendor_id.markup">[0][0][0][0]</property>
  <property name="kdenlive:original.meta.attr.0.stream.encoder.markup">Lavc60.3.100 libx264</property>
  <property name="kdenlive:original.meta.attr.major_brand.markup">isom</property>
  <property name="kdenlive:original.meta.attr.minor_version.markup">512</property>
  <property name="kdenlive:original.meta.attr.compatible_brands.markup">isomiso2avc1mp41</property>
  <property name="kdenlive:original.meta.attr.encoder.markup">Lavf60.3.100</property>
  <property name="kdenlive:original.meta.attr.comment.markup">Rendered with Manim Community v0.17.2</property>
  <property name="kdenlive:original.seekable">1</property>
  <property name="kdenlive:original.width">3840</property>
  <property name="kdenlive:original.height">2160</property>
  <property name="kdenlive:original.meta.media.sample_aspect_num">1</property>
  <property name="kdenlive:original.meta.media.sample_aspect_den">1</property>
  <property name="kdenlive:original.aspect_ratio">1</property>
  <property name="kdenlive:original.format">3</property>
  <property name="kdenlive:original.audio_index">-1</property>
  <property name="kdenlive:original.video_index">0</property>
  <property name="kdenlive:original.mute_on_pause">0</property>
  <property name="kdenlive:original.mlt_service">avformat-novalidate</property>
  <property name="kdenlive:original.meta.media.frame_rate_num">60</property>
  <property name="kdenlive:original.meta.media.frame_rate_den">1</property>
  <property name="kdenlive:original.meta.media.colorspace">709</property>
  <property name="kdenlive:original.meta.media.color_trc">2</property>
  <property name="kdenlive:original.meta.media.has_b_frames">2</property>
  <property name="kdenlive:original.meta.media.width">3840</property>
  <property name="kdenlive:original.meta.media.height">2160</property>
  <property name="kdenlive:original.meta.media.color_range">mpeg</property>
  <property name="kdenlive:original.meta.media.top_field_first">0</property>
  <property name="kdenlive:original.meta.media.progressive">1</property>
  <property name="kdenlive:original.kdenlive:clip_type">2</property>
  <property name="kdenlive:original.kdenlive:folderid">565</property>
  <property name="kdenlive:original.kdenlive:id">568</property>
  <property name="kdenlive:original.kdenlive:file_size">64765</property>
  <property name="kdenlive:original.kdenlive:file_hash">89b4977c7979c0e6e436140be9e402c5</property>
  <property name="kdenlive:original.backup">1</property>
  <property name="xml">was here</property>
  <property name="meta.media.frame_rate_num">60</property>
  <property name="meta.media.frame_rate_den">1</property>
  <property name="meta.media.colorspace">601</property>
  <property name="meta.media.color_trc">2</property>
  <property name="meta.media.has_b_frames">0</property>
  <property name="meta.media.width">640</property>
  <property name="meta.media.height">360</property>
  <property name="meta.media.color_range">full</property>
  <property name="meta.media.top_field_first">0</property>
  <property name="meta.media.progressive">1</property>
  <property name="set.test_audio">1</property>
  <property name="set.test_image">0</property>
 </producer>
 <producer id="producer612" in="00:00:00.000" out="00:00:00.650">
  <property name="length">40</property>
  <property name="eof">pause</property>
  <property name="resource">/home/xiaoxiae/.cache/kdenlive/proxy/b1b81afe9a923ed199a7cc2a1de23a1f.mkv</property>
  <property name="audio_index">-1</property>
  <property name="video_index">0</property>
  <property name="mute_on_pause">0</property>
  <property name="mlt_service">avformat-novalidate</property>
  <property name="meta.media.nb_streams">1</property>
  <property name="meta.media.0.stream.type">video</property>
  <property name="meta.media.0.stream.frame_rate">60</property>
  <property name="meta.media.0.stream.sample_aspect_ratio">0</property>
  <property name="meta.media.0.codec.width">640</property>
  <property name="meta.media.0.codec.height">360</property>
  <property name="meta.media.0.codec.rotate">0</property>
  <property name="meta.media.0.codec.pix_fmt">yuvj420p</property>
  <property name="meta.media.0.codec.sample_aspect_ratio">0</property>
  <property name="meta.media.0.codec.colorspace">601</property>
  <property name="meta.media.0.codec.name">mjpeg</property>
  <property name="meta.media.0.codec.long_name">MJPEG (Motion JPEG)</property>
  <property name="meta.media.0.codec.bit_rate">0</property>
  <property name="meta.attr.0.stream.HANDLER_NAME.markup">VideoHandler</property>
  <property name="meta.attr.0.stream.VENDOR_ID.markup">[0][0][0][0]</property>
  <property name="meta.attr.0.stream.ENCODER.markup">Lavc60.3.100 mjpeg</property>
  <property name="meta.attr.0.stream.DURATION.markup">00:00:00.667000000</property>
  <property name="meta.attr.COMMENT.markup">Rendered with Manim Community v0.17.2</property>
  <property name="meta.attr.MAJOR_BRAND.markup">isom</property>
  <property name="meta.attr.MINOR_VERSION.markup">512</property>
  <property name="meta.attr.COMPATIBLE_BRANDS.markup">isomiso2avc1mp41</property>
  <property name="meta.attr.ENCODER.markup">Lavf60.3.100</property>
  <property name="seekable">1</property>
  <property name="meta.media.sample_aspect_num">1</property>
  <property name="meta.media.sample_aspect_den">1</property>
  <property name="aspect_ratio">1</property>
  <property name="format">3</property>
  <property name="kdenlive:clipname">12.mp4</property>
  <property name="kdenlive:clip_type">2</property>
  <property name="kdenlive:folderid">565</property>
  <property name="kdenlive:id">458</property>
  <property name="kdenlive:file_size">58014</property>
  <property name="kdenlive:file_hash">b1b81afe9a923ed199a7cc2a1de23a1f</property>
  <property name="kdenlive:proxy">/home/xiaoxiae/.cache/kdenlive/proxy/b1b81afe9a923ed199a7cc2a1de23a1f.mkv</property>
  <property name="kdenlive:originalurl">video/Search/12.mp4</property>
  <property name="kdenlive:original.mlt_type">producer</property>
  <property name="kdenlive:original.in">00:00:00.000</property>
  <property name="kdenlive:original.out">00:00:00.650</property>
  <property name="kdenlive:original.length">40</property>
  <property name="kdenlive:original.eof">pause</property>
  <property name="kdenlive:original.resource">video/Search/12.mp4</property>
  <property name="kdenlive:original.meta.media.nb_streams">1</property>
  <property name="kdenlive:original.meta.media.0.stream.type">video</property>
  <property name="kdenlive:original.meta.media.0.stream.frame_rate">60</property>
  <property name="kdenlive:original.meta.media.0.stream.sample_aspect_ratio">0</property>
  <property name="kdenlive:original.meta.media.0.codec.width">3840</property>
  <property name="kdenlive:original.meta.media.0.codec.height">2160</property>
  <property name="kdenlive:original.meta.media.0.codec.rotate">0</property>
  <property name="kdenlive:original.meta.media.0.codec.pix_fmt">yuv420p</property>
  <property name="kdenlive:original.meta.media.0.codec.sample_aspect_ratio">0</property>
  <property name="kdenlive:original.meta.media.0.codec.colorspace">709</property>
  <property name="kdenlive:original.meta.media.0.codec.name">h264</property>
  <property name="kdenlive:original.meta.media.0.codec.long_name">H.264 / AVC / MPEG-4 AVC / MPEG-4 part 10</property>
  <property name="kdenlive:original.meta.media.0.codec.bit_rate">679668</property>
  <property name="kdenlive:original.meta.attr.0.stream.handler_name.markup">VideoHandler</property>
  <property name="kdenlive:original.meta.attr.0.stream.vendor_id.markup">[0][0][0][0]</property>
  <property name="kdenlive:original.meta.attr.0.stream.encoder.markup">Lavc60.3.100 libx264</property>
  <property name="kdenlive:original.meta.attr.major_brand.markup">isom</property>
  <property name="kdenlive:original.meta.attr.minor_version.markup">512</property>
  <property name="kdenlive:original.meta.attr.compatible_brands.markup">isomiso2avc1mp41</property>
  <property name="kdenlive:original.meta.attr.encoder.markup">Lavf60.3.100</property>
  <property name="kdenlive:original.meta.attr.comment.markup">Rendered with Manim Community v0.17.2</property>
  <property name="kdenlive:original.seekable">1</property>
  <property name="kdenlive:original.width">3840</property>
  <property name="kdenlive:original.height">2160</property>
  <property name="kdenlive:original.meta.media.sample_aspect_num">1</property>
  <property name="kdenlive:original.meta.media.sample_aspect_den">1</property>
  <property name="kdenlive:original.aspect_ratio">1</property>
  <property name="kdenlive:original.format">3</property>
  <property name="kdenlive:original.audio_index">-1</property>
  <property name="kdenlive:original.video_index">0</property>
  <property name="kdenlive:original.mute_on_pause">0</property>
  <property name="kdenlive:original.mlt_service">avformat-novalidate</property>
  <property name="kdenlive:original.meta.media.frame_rate_num">60</property>
  <property name="kdenlive:original.meta.media.frame_rate_den">1</property>
  <property name="kdenlive:original.meta.media.colorspace">709</property>
  <property name="kdenlive:original.meta.media.color_trc">2</property>
  <property name="kdenlive:original.meta.media.has_b_frames">2</property>
  <property name="kdenlive:original.meta.media.width">3840</property>
  <property name="kdenlive:original.meta.media.height">2160</property>
  <property name="kdenlive:original.meta.media.color_range">mpeg</property>
  <property name="kdenlive:original.meta.media.top_field_first">0</property>
  <property name="kdenlive:original.meta.media.progressive">1</property>
  <property name="kdenlive:original.kdenlive:clip_type">2</property>
  <property name="kdenlive:original.kdenlive:folderid">565</property>
  <property name="kdenlive:original.kdenlive:id">569</property>
  <property name="kdenlive:original.kdenlive:file_size">58014</property>
  <property name="kdenlive:original.kdenlive:file_hash">b1b81afe9a923ed199a7cc2a1de23a1f</property>
  <property name="kdenlive:original.backup">1</property>
  <property name="xml">was here</property>
  <property name="meta.media.frame_rate_num">60</property>
  <property name="meta.media.frame_rate_den">1</property>
  <property name="meta.media.colorspace">601</property>
  <property name="meta.media.color_trc">2</property>
  <property name="meta.media.has_b_frames">0</property>
  <property name="meta.media.width">640</property>
  <property name="meta.media.height">360</property>
  <property name="meta.media.color_range">full</property>
  <property name="meta.media.top_field_first">0</property>
  <property name="meta.media.progressive">1</property>
  <property name="set.test_audio">1</property>
  <property name="set.test_image">0</property>
 </producer>
 <producer id="producer613" in="00:00:00.000" out="00:00:00.650">
  <property name="length">40</property>
  <property name="eof">pause</property>
  <property name="resource">/home/xiaoxiae/.cache/kdenlive/proxy/35603057cfeae4fa8d58d5d9040f30ab.mkv</property>
  <property name="audio_index">-1</property>
  <property name="video_index">0</property>
  <property name="mute_on_pause">0</property>
  <property name="mlt_service">avformat-novalidate</property>
  <property name="meta.media.nb_streams">1</property>
  <property name="meta.media.0.stream.type">video</property>
  <property name="meta.media.0.stream.frame_rate">60</property>
  <property name="meta.media.0.stream.sample_aspect_ratio">0</property>
  <property name="meta.media.0.codec.width">640</property>
  <property name="meta.media.0.codec.height">360</property>
  <property name="meta.media.0.codec.rotate">0</property>
  <property name="meta.media.0.codec.pix_fmt">yuvj420p</property>
  <property name="meta.media.0.codec.sample_aspect_ratio">0</property>
  <property name="meta.media.0.codec.colorspace">601</property>
  <property name="meta.media.0.codec.name">mjpeg</property>
  <property name="meta.media.0.codec.long_name">MJPEG (Motion JPEG)</property>
  <property name="meta.media.0.codec.bit_rate">0</property>
  <property name="meta.attr.0.stream.HANDLER_NAME.markup">VideoHandler</property>
  <property name="meta.attr.0.stream.VENDOR_ID.markup">[0][0][0][0]</property>
  <property name="meta.attr.0.stream.ENCODER.markup">Lavc60.3.100 mjpeg</property>
  <property name="meta.attr.0.stream.DURATION.markup">00:00:00.667000000</property>
  <property name="meta.attr.COMMENT.markup">Rendered with Manim Community v0.17.2</property>
  <property name="meta.attr.MAJOR_BRAND.markup">isom</property>
  <property name="meta.attr.MINOR_VERSION.markup">512</property>
  <property name="meta.attr.COMPATIBLE_BRANDS.markup">isomiso2avc1mp41</property>
  <property name="meta.attr.ENCODER.markup">Lavf60.3.100</property>
  <property name="seekable">1</property>
  <property name="meta.media.sample_aspect_num">1</property>
  <property name="meta.media.sample_aspect_den">1</property>
  <property name="aspect_ratio">1</property>
  <property name="format">3</property>
  <property name="kdenlive:clipname">13.mp4</property>
  <property name="kdenlive:clip_type">2</property>
  <property name="kdenlive:folderid">565</property>
  <property name="kdenlive:id">459</property>
  <property name="kdenlive:file_size">55771</property>
  <property name="kdenlive:file_hash">35603057cfeae4fa8d58d5d9040f30ab</property>
  <property name="kdenlive:proxy">/home/xiaoxiae/.cache/kdenlive/proxy/35603057cfeae4fa8d58d5d9040f30ab.mkv</property>
  <property name="kdenlive:originalurl">video/Search/13.mp4</property>
  <property name="kdenlive:original.mlt_type">producer</property>
  <property name="kdenlive:original.in">00:00:00.000</property>
  <property name="kdenlive:original.out">00:00:00.650</property>
  <property name="kdenlive:original.length">40</property>
  <property name="kdenlive:original.eof">pause</property>
  <property name="kdenlive:original.resource">video/Search/13.mp4</property>
  <property name="kdenlive:original.meta.media.nb_streams">1</property>
  <property name="kdenlive:original.meta.media.0.stream.type">video</property>
  <property name="kdenlive:original.meta.media.0.stream.frame_rate">60</property>
  <property name="kdenlive:original.meta.media.0.stream.sample_aspect_ratio">0</property>
  <property name="kdenlive:original.meta.media.0.codec.width">3840</property>
  <property name="kdenlive:original.meta.media.0.codec.height">2160</property>
  <property name="kdenlive:original.meta.media.0.codec.rotate">0</property>
  <property name="kdenlive:original.meta.media.0.codec.pix_fmt">yuv420p</property>
  <property name="kdenlive:original.meta.media.0.codec.sample_aspect_ratio">0</property>
  <property name="kdenlive:original.meta.media.0.codec.colorspace">709</property>
  <property name="kdenlive:original.meta.media.0.codec.name">h264</property>
  <property name="kdenlive:original.meta.media.0.codec.long_name">H.264 / AVC / MPEG-4 AVC / MPEG-4 part 10</property>
  <property name="kdenlive:original.meta.media.0.codec.bit_rate">652752</property>
  <property name="kdenlive:original.meta.attr.0.stream.handler_name.markup">VideoHandler</property>
  <property name="kdenlive:original.meta.attr.0.stream.vendor_id.markup">[0][0][0][0]</property>
  <property name="kdenlive:original.meta.attr.0.stream.encoder.markup">Lavc60.3.100 libx264</property>
  <property name="kdenlive:original.meta.attr.major_brand.markup">isom</property>
  <property name="kdenlive:original.meta.attr.minor_version.markup">512</property>
  <property name="kdenlive:original.meta.attr.compatible_brands.markup">isomiso2avc1mp41</property>
  <property name="kdenlive:original.meta.attr.encoder.markup">Lavf60.3.100</property>
  <property name="kdenlive:original.meta.attr.comment.markup">Rendered with Manim Community v0.17.2</property>
  <property name="kdenlive:original.seekable">1</property>
  <property name="kdenlive:original.width">3840</property>
  <property name="kdenlive:original.height">2160</property>
  <property name="kdenlive:original.meta.media.sample_aspect_num">1</property>
  <property name="kdenlive:original.meta.media.sample_aspect_den">1</property>
  <property name="kdenlive:original.aspect_ratio">1</property>
  <property name="kdenlive:original.format">3</property>
  <property name="kdenlive:original.audio_index">-1</property>
  <property name="kdenlive:original.video_index">0</property>
  <property name="kdenlive:original.mute_on_pause">0</property>
  <property name="kdenlive:original.mlt_service">avformat-novalidate</property>
  <property name="kdenlive:original.meta.media.frame_rate_num">60</property>
  <property name="kdenlive:original.meta.media.frame_rate_den">1</property>
  <property name="kdenlive:original.meta.media.colorspace">709</property>
  <property name="kdenlive:original.meta.media.color_trc">2</property>
  <property name="kdenlive:original.meta.media.has_b_frames">2</property>
  <property name="kdenlive:original.meta.media.width">3840</property>
  <property name="kdenlive:original.meta.media.height">2160</property>
  <property name="kdenlive:original.meta.media.color_range">mpeg</property>
  <property name="kdenlive:original.meta.media.top_field_first">0</property>
  <property name="kdenlive:original.meta.media.progressive">1</property>
  <property name="kdenlive:original.kdenlive:clip_type">2</property>
  <property name="kdenlive:original.kdenlive:folderid">565</property>
  <property name="kdenlive:original.kdenlive:id">570</property>
  <property name="kdenlive:original.kdenlive:file_size">55771</property>
  <property name="kdenlive:original.kdenlive:file_hash">35603057cfeae4fa8d58d5d9040f30ab</property>
  <property name="kdenlive:original.backup">1</property>
  <property name="xml">was here</property>
  <property name="meta.media.frame_rate_num">60</property>
  <property name="meta.media.frame_rate_den">1</property>
  <property name="meta.media.colorspace">601</property>
  <property name="meta.media.color_trc">2</property>
  <property name="meta.media.has_b_frames">0</property>
  <property name="meta.media.width">640</property>
  <property name="meta.media.height">360</property>
  <property name="meta.media.color_range">full</property>
  <property name="meta.media.top_field_first">0</property>
  <property name="meta.media.progressive">1</property>
  <property name="set.test_audio">1</property>
  <property name="set.test_image">0</property>
 </producer>
 <producer id="producer614" in="00:00:00.000" out="00:00:00.650">
  <property name="length">40</property>
  <property name="eof">pause</property>
  <property name="resource">/home/xiaoxiae/.cache/kdenlive/proxy/f45d3d3bdd5a0352059216edab050376.mkv</property>
  <property name="audio_index">-1</property>
  <property name="video_index">0</property>
  <property name="mute_on_pause">0</property>
  <property name="mlt_service">avformat-novalidate</property>
  <property name="meta.media.nb_streams">1</property>
  <property name="meta.media.0.stream.type">video</property>
  <property name="meta.media.0.stream.frame_rate">60</property>
  <property name="meta.media.0.stream.sample_aspect_ratio">0</property>
  <property name="meta.media.0.codec.width">640</property>
  <property name="meta.media.0.codec.height">360</property>
  <property name="meta.media.0.codec.rotate">0</property>
  <property name="meta.media.0.codec.pix_fmt">yuvj420p</property>
  <property name="meta.media.0.codec.sample_aspect_ratio">0</property>
  <property name="meta.media.0.codec.colorspace">601</property>
  <property name="meta.media.0.codec.name">mjpeg</property>
  <property name="meta.media.0.codec.long_name">MJPEG (Motion JPEG)</property>
  <property name="meta.media.0.codec.bit_rate">0</property>
  <property name="meta.attr.0.stream.HANDLER_NAME.markup">VideoHandler</property>
  <property name="meta.attr.0.stream.VENDOR_ID.markup">[0][0][0][0]</property>
  <property name="meta.attr.0.stream.ENCODER.markup">Lavc60.3.100 mjpeg</property>
  <property name="meta.attr.0.stream.DURATION.markup">00:00:00.667000000</property>
  <property name="meta.attr.COMMENT.markup">Rendered with Manim Community v0.17.2</property>
  <property name="meta.attr.MAJOR_BRAND.markup">isom</property>
  <property name="meta.attr.MINOR_VERSION.markup">512</property>
  <property name="meta.attr.COMPATIBLE_BRANDS.markup">isomiso2avc1mp41</property>
  <property name="meta.attr.ENCODER.markup">Lavf60.3.100</property>
  <property name="seekable">1</property>
  <property name="meta.media.sample_aspect_num">1</property>
  <property name="meta.media.sample_aspect_den">1</property>
  <property name="aspect_ratio">1</property>
  <property name="format">3</property>
  <property name="kdenlive:clipname">14.mp4</property>
  <property name="kdenlive:clip_type">2</property>
  <property name="kdenlive:folderid">565</property>
  <property name="kdenlive:id">460</property>
  <property name="kdenlive:file_size">57515</property>
  <property name="kdenlive:file_hash">f45d3d3bdd5a0352059216edab050376</property>
  <property name="kdenlive:proxy">/home/xiaoxiae/.cache/kdenlive/proxy/f45d3d3bdd5a0352059216edab050376.mkv</property>
  <property name="kdenlive:originalurl">video/Search/14.mp4</property>
  <property name="kdenlive:original.mlt_type">producer</property>
  <property name="kdenlive:original.in">00:00:00.000</property>
  <property name="kdenlive:original.out">00:00:00.650</property>
  <property name="kdenlive:original.length">40</property>
  <property name="kdenlive:original.eof">pause</property>
  <property name="kdenlive:original.resource">video/Search/14.mp4</property>
  <property name="kdenlive:original.meta.media.nb_streams">1</property>
  <property name="kdenlive:original.meta.media.0.stream.type">video</property>
  <property name="kdenlive:original.meta.media.0.stream.frame_rate">60</property>
  <property name="kdenlive:original.meta.media.0.stream.sample_aspect_ratio">0</property>
  <property name="kdenlive:original.meta.media.0.codec.width">3840</property>
  <property name="kdenlive:original.meta.media.0.codec.height">2160</property>
  <property name="kdenlive:original.meta.media.0.codec.rotate">0</property>
  <property name="kdenlive:original.meta.media.0.codec.pix_fmt">yuv420p</property>
  <property name="kdenlive:original.meta.media.0.codec.sample_aspect_ratio">0</property>
  <property name="kdenlive:original.meta.media.0.codec.colorspace">709</property>
  <property name="kdenlive:original.meta.media.0.codec.name">h264</property>
  <property name="kdenlive:original.meta.media.0.codec.long_name">H.264 / AVC / MPEG-4 AVC / MPEG-4 part 10</property>
  <property name="kdenlive:original.meta.media.0.codec.bit_rate">673488</property>
  <property name="kdenlive:original.meta.attr.0.stream.handler_name.markup">VideoHandler</property>
  <property name="kdenlive:original.meta.attr.0.stream.vendor_id.markup">[0][0][0][0]</property>
  <property name="kdenlive:original.meta.attr.0.stream.encoder.markup">Lavc60.3.100 libx264</property>
  <property name="kdenlive:original.meta.attr.major_brand.markup">isom</property>
  <property name="kdenlive:original.meta.attr.minor_version.markup">512</property>
  <property name="kdenlive:original.meta.attr.compatible_brands.markup">isomiso2avc1mp41</property>
  <property name="kdenlive:original.meta.attr.encoder.markup">Lavf60.3.100</property>
  <property name="kdenlive:original.meta.attr.comment.markup">Rendered with Manim Community v0.17.2</property>
  <property name="kdenlive:original.seekable">1</property>
  <property name="kdenlive:original.width">3840</property>
  <property name="kdenlive:original.height">2160</property>
  <property name="kdenlive:original.meta.media.sample_aspect_num">1</property>
  <property name="kdenlive:original.meta.media.sample_aspect_den">1</property>
  <property name="kdenlive:original.aspect_ratio">1</property>
  <property name="kdenlive:original.format">3</property>
  <property name="kdenlive:original.audio_index">-1</property>
  <property name="kdenlive:original.video_index">0</property>
  <property name="kdenlive:original.mute_on_pause">0</property>
  <property name="kdenlive:original.mlt_service">avformat-novalidate</property>
  <property name="kdenlive:original.meta.media.frame_rate_num">60</property>
  <property name="kdenlive:original.meta.media.frame_rate_den">1</property>
  <property name="kdenlive:original.meta.media.colorspace">709</property>
  <property name="kdenlive:original.meta.media.color_trc">2</property>
  <property name="kdenlive:original.meta.media.has_b_frames">2</property>
  <property name="kdenlive:original.meta.media.width">3840</property>
  <property name="kdenlive:original.meta.media.height">2160</property>
  <property name="kdenlive:original.meta.media.color_range">mpeg</property>
  <property name="kdenlive:original.meta.media.top_field_first">0</property>
  <property name="kdenlive:original.meta.media.progressive">1</property>
  <property name="kdenlive:original.kdenlive:clip_type">2</property>
  <property name="kdenlive:original.kdenlive:folderid">565</property>
  <property name="kdenlive:original.kdenlive:id">571</property>
  <property name="kdenlive:original.kdenlive:file_size">57515</property>
  <property name="kdenlive:original.kdenlive:file_hash">f45d3d3bdd5a0352059216edab050376</property>
  <property name="kdenlive:original.backup">1</property>
  <property name="xml">was here</property>
  <property name="meta.media.frame_rate_num">60</property>
  <property name="meta.media.frame_rate_den">1</property>
  <property name="meta.media.colorspace">601</property>
  <property name="meta.media.color_trc">2</property>
  <property name="meta.media.has_b_frames">0</property>
  <property name="meta.media.width">640</property>
  <property name="meta.media.height">360</property>
  <property name="meta.media.color_range">full</property>
  <property name="meta.media.top_field_first">0</property>
  <property name="meta.media.progressive">1</property>
  <property name="set.test_audio">1</property>
  <property name="set.test_image">0</property>
 </producer>
 <producer id="producer615" in="00:00:00.000" out="00:00:01.483">
  <property name="length">90</property>
  <property name="eof">pause</property>
  <property name="resource">/home/xiaoxiae/.cache/kdenlive/proxy/d0365d01e293443579f0a5de09df857b.mkv</property>
  <property name="audio_index">-1</property>
  <property name="video_index">0</property>
  <property name="mute_on_pause">0</property>
  <property name="mlt_service">avformat-novalidate</property>
  <property name="meta.media.nb_streams">1</property>
  <property name="meta.media.0.stream.type">video</property>
  <property name="meta.media.0.stream.frame_rate">60</property>
  <property name="meta.media.0.stream.sample_aspect_ratio">0</property>
  <property name="meta.media.0.codec.width">640</property>
  <property name="meta.media.0.codec.height">360</property>
  <property name="meta.media.0.codec.rotate">0</property>
  <property name="meta.media.0.codec.pix_fmt">yuvj420p</property>
  <property name="meta.media.0.codec.sample_aspect_ratio">0</property>
  <property name="meta.media.0.codec.colorspace">601</property>
  <property name="meta.media.0.codec.name">mjpeg</property>
  <property name="meta.media.0.codec.long_name">MJPEG (Motion JPEG)</property>
  <property name="meta.media.0.codec.bit_rate">0</property>
  <property name="meta.attr.0.stream.HANDLER_NAME.markup">VideoHandler</property>
  <property name="meta.attr.0.stream.VENDOR_ID.markup">[0][0][0][0]</property>
  <property name="meta.attr.0.stream.ENCODER.markup">Lavc60.3.100 mjpeg</property>
  <property name="meta.attr.0.stream.DURATION.markup">00:00:01.500000000</property>
  <property name="meta.attr.COMMENT.markup">Rendered with Manim Community v0.17.2</property>
  <property name="meta.attr.MAJOR_BRAND.markup">isom</property>
  <property name="meta.attr.MINOR_VERSION.markup">512</property>
  <property name="meta.attr.COMPATIBLE_BRANDS.markup">isomiso2avc1mp41</property>
  <property name="meta.attr.ENCODER.markup">Lavf60.3.100</property>
  <property name="seekable">1</property>
  <property name="meta.media.sample_aspect_num">1</property>
  <property name="meta.media.sample_aspect_den">1</property>
  <property name="aspect_ratio">1</property>
  <property name="format">3</property>
  <property name="kdenlive:clipname">15.mp4</property>
  <property name="kdenlive:clip_type">2</property>
  <property name="kdenlive:folderid">565</property>
  <property name="kdenlive:id">461</property>
  <property name="kdenlive:file_size">174476</property>
  <property name="kdenlive:file_hash">d0365d01e293443579f0a5de09df857b</property>
  <property name="kdenlive:proxy">/home/xiaoxiae/.cache/kdenlive/proxy/d0365d01e293443579f0a5de09df857b.mkv</property>
  <property name="kdenlive:originalurl">video/Search/15.mp4</property>
  <property name="kdenlive:original.mlt_type">producer</property>
  <property name="kdenlive:original.in">00:00:00.000</property>
  <property name="kdenlive:original.out">00:00:01.483</property>
  <property name="kdenlive:original.length">90</property>
  <property name="kdenlive:original.eof">pause</property>
  <property name="kdenlive:original.resource">video/Search/15.mp4</property>
  <property name="kdenlive:original.meta.media.nb_streams">1</property>
  <property name="kdenlive:original.meta.media.0.stream.type">video</property>
  <property name="kdenlive:original.meta.media.0.stream.frame_rate">60</property>
  <property name="kdenlive:original.meta.media.0.stream.sample_aspect_ratio">0</property>
  <property name="kdenlive:original.meta.media.0.codec.width">3840</property>
  <property name="kdenlive:original.meta.media.0.codec.height">2160</property>
  <property name="kdenlive:original.meta.media.0.codec.rotate">0</property>
  <property name="kdenlive:original.meta.media.0.codec.pix_fmt">yuv420p</property>
  <property name="kdenlive:original.meta.media.0.codec.sample_aspect_ratio">0</property>
  <property name="kdenlive:original.meta.media.0.codec.colorspace">709</property>
  <property name="kdenlive:original.meta.media.0.codec.name">h264</property>
  <property name="kdenlive:original.meta.media.0.codec.long_name">H.264 / AVC / MPEG-4 AVC / MPEG-4 part 10</property>
  <property name="kdenlive:original.meta.media.0.codec.bit_rate">920090</property>
  <property name="kdenlive:original.meta.attr.0.stream.handler_name.markup">VideoHandler</property>
  <property name="kdenlive:original.meta.attr.0.stream.vendor_id.markup">[0][0][0][0]</property>
  <property name="kdenlive:original.meta.attr.0.stream.encoder.markup">Lavc60.3.100 libx264</property>
  <property name="kdenlive:original.meta.attr.major_brand.markup">isom</property>
  <property name="kdenlive:original.meta.attr.minor_version.markup">512</property>
  <property name="kdenlive:original.meta.attr.compatible_brands.markup">isomiso2avc1mp41</property>
  <property name="kdenlive:original.meta.attr.encoder.markup">Lavf60.3.100</property>
  <property name="kdenlive:original.meta.attr.comment.markup">Rendered with Manim Community v0.17.2</property>
  <property name="kdenlive:original.seekable">1</property>
  <property name="kdenlive:original.width">3840</property>
  <property name="kdenlive:original.height">2160</property>
  <property name="kdenlive:original.meta.media.sample_aspect_num">1</property>
  <property name="kdenlive:original.meta.media.sample_aspect_den">1</property>
  <property name="kdenlive:original.aspect_ratio">1</property>
  <property name="kdenlive:original.format">3</property>
  <property name="kdenlive:original.audio_index">-1</property>
  <property name="kdenlive:original.video_index">0</property>
  <property name="kdenlive:original.mute_on_pause">0</property>
  <property name="kdenlive:original.mlt_service">avformat-novalidate</property>
  <property name="kdenlive:original.meta.media.frame_rate_num">60</property>
  <property name="kdenlive:original.meta.media.frame_rate_den">1</property>
  <property name="kdenlive:original.meta.media.colorspace">709</property>
  <property name="kdenlive:original.meta.media.color_trc">2</property>
  <property name="kdenlive:original.meta.media.has_b_frames">2</property>
  <property name="kdenlive:original.meta.media.width">3840</property>
  <property name="kdenlive:original.meta.media.height">2160</property>
  <property name="kdenlive:original.meta.media.color_range">mpeg</property>
  <property name="kdenlive:original.meta.media.top_field_first">0</property>
  <property name="kdenlive:original.meta.media.progressive">1</property>
  <property name="kdenlive:original.kdenlive:clip_type">2</property>
  <property name="kdenlive:original.kdenlive:folderid">565</property>
  <property name="kdenlive:original.kdenlive:id">572</property>
  <property name="kdenlive:original.kdenlive:file_size">174476</property>
  <property name="kdenlive:original.kdenlive:file_hash">d0365d01e293443579f0a5de09df857b</property>
  <property name="kdenlive:original.backup">1</property>
  <property name="xml">was here</property>
  <property name="meta.media.frame_rate_num">60</property>
  <property name="meta.media.frame_rate_den">1</property>
  <property name="meta.media.colorspace">601</property>
  <property name="meta.media.color_trc">2</property>
  <property name="meta.media.has_b_frames">0</property>
  <property name="meta.media.width">640</property>
  <property name="meta.media.height">360</property>
  <property name="meta.media.color_range">full</property>
  <property name="meta.media.top_field_first">0</property>
  <property name="meta.media.progressive">1</property>
  <property name="set.test_audio">1</property>
  <property name="set.test_image">0</property>
 </producer>
 <producer id="producer616" in="00:00:00.000" out="00:00:00.983">
  <property name="length">60</property>
  <property name="eof">pause</property>
  <property name="resource">/home/xiaoxiae/.cache/kdenlive/proxy/dad4701af3b39b6a41bd7dbe1de823ba.mkv</property>
  <property name="audio_index">-1</property>
  <property name="video_index">0</property>
  <property name="mute_on_pause">0</property>
  <property name="mlt_service">avformat-novalidate</property>
  <property name="meta.media.nb_streams">1</property>
  <property name="meta.media.0.stream.type">video</property>
  <property name="meta.media.0.stream.frame_rate">60</property>
  <property name="meta.media.0.stream.sample_aspect_ratio">0</property>
  <property name="meta.media.0.codec.width">640</property>
  <property name="meta.media.0.codec.height">360</property>
  <property name="meta.media.0.codec.rotate">0</property>
  <property name="meta.media.0.codec.pix_fmt">yuvj420p</property>
  <property name="meta.media.0.codec.sample_aspect_ratio">0</property>
  <property name="meta.media.0.codec.colorspace">601</property>
  <property name="meta.media.0.codec.name">mjpeg</property>
  <property name="meta.media.0.codec.long_name">MJPEG (Motion JPEG)</property>
  <property name="meta.media.0.codec.bit_rate">0</property>
  <property name="meta.attr.0.stream.HANDLER_NAME.markup">VideoHandler</property>
  <property name="meta.attr.0.stream.VENDOR_ID.markup">[0][0][0][0]</property>
  <property name="meta.attr.0.stream.ENCODER.markup">Lavc60.3.100 mjpeg</property>
  <property name="meta.attr.0.stream.DURATION.markup">00:00:01.000000000</property>
  <property name="meta.attr.COMMENT.markup">Rendered with Manim Community v0.17.2</property>
  <property name="meta.attr.MAJOR_BRAND.markup">isom</property>
  <property name="meta.attr.MINOR_VERSION.markup">512</property>
  <property name="meta.attr.COMPATIBLE_BRANDS.markup">isomiso2avc1mp41</property>
  <property name="meta.attr.ENCODER.markup">Lavf60.3.100</property>
  <property name="seekable">1</property>
  <property name="meta.media.sample_aspect_num">1</property>
  <property name="meta.media.sample_aspect_den">1</property>
  <property name="aspect_ratio">1</property>
  <property name="format">3</property>
  <property name="kdenlive:clipname">16.mp4</property>
  <property name="kdenlive:clip_type">2</property>
  <property name="kdenlive:folderid">565</property>
  <property name="kdenlive:id">462</property>
  <property name="kdenlive:file_size">66924</property>
  <property name="kdenlive:file_hash">dad4701af3b39b6a41bd7dbe1de823ba</property>
  <property name="kdenlive:proxy">/home/xiaoxiae/.cache/kdenlive/proxy/dad4701af3b39b6a41bd7dbe1de823ba.mkv</property>
  <property name="kdenlive:originalurl">video/Search/16.mp4</property>
  <property name="kdenlive:original.mlt_type">producer</property>
  <property name="kdenlive:original.in">00:00:00.000</property>
  <property name="kdenlive:original.out">00:00:00.983</property>
  <property name="kdenlive:original.length">60</property>
  <property name="kdenlive:original.eof">pause</property>
  <property name="kdenlive:original.resource">video/Search/16.mp4</property>
  <property name="kdenlive:original.meta.media.nb_streams">1</property>
  <property name="kdenlive:original.meta.media.0.stream.type">video</property>
  <property name="kdenlive:original.meta.media.0.stream.frame_rate">60</property>
  <property name="kdenlive:original.meta.media.0.stream.sample_aspect_ratio">0</property>
  <property name="kdenlive:original.meta.media.0.codec.width">3840</property>
  <property name="kdenlive:original.meta.media.0.codec.height">2160</property>
  <property name="kdenlive:original.meta.media.0.codec.rotate">0</property>
  <property name="kdenlive:original.meta.media.0.codec.pix_fmt">yuv420p</property>
  <property name="kdenlive:original.meta.media.0.codec.sample_aspect_ratio">0</property>
  <property name="kdenlive:original.meta.media.0.codec.colorspace">709</property>
  <property name="kdenlive:original.meta.media.0.codec.name">h264</property>
  <property name="kdenlive:original.meta.media.0.codec.long_name">H.264 / AVC / MPEG-4 AVC / MPEG-4 part 10</property>
  <property name="kdenlive:original.meta.media.0.codec.bit_rate">522344</property>
  <property name="kdenlive:original.meta.attr.0.stream.handler_name.markup">VideoHandler</property>
  <property name="kdenlive:original.meta.attr.0.stream.vendor_id.markup">[0][0][0][0]</property>
  <property name="kdenlive:original.meta.attr.0.stream.encoder.markup">Lavc60.3.100 libx264</property>
  <property name="kdenlive:original.meta.attr.major_brand.markup">isom</property>
  <property name="kdenlive:original.meta.attr.minor_version.markup">512</property>
  <property name="kdenlive:original.meta.attr.compatible_brands.markup">isomiso2avc1mp41</property>
  <property name="kdenlive:original.meta.attr.encoder.markup">Lavf60.3.100</property>
  <property name="kdenlive:original.meta.attr.comment.markup">Rendered with Manim Community v0.17.2</property>
  <property name="kdenlive:original.seekable">1</property>
  <property name="kdenlive:original.width">3840</property>
  <property name="kdenlive:original.height">2160</property>
  <property name="kdenlive:original.meta.media.sample_aspect_num">1</property>
  <property name="kdenlive:original.meta.media.sample_aspect_den">1</property>
  <property name="kdenlive:original.aspect_ratio">1</property>
  <property name="kdenlive:original.format">3</property>
  <property name="kdenlive:original.audio_index">-1</property>
  <property name="kdenlive:original.video_index">0</property>
  <property name="kdenlive:original.mute_on_pause">0</property>
  <property name="kdenlive:original.mlt_service">avformat-novalidate</property>
  <property name="kdenlive:original.meta.media.frame_rate_num">60</property>
  <property name="kdenlive:original.meta.media.frame_rate_den">1</property>
  <property name="kdenlive:original.meta.media.colorspace">709</property>
  <property name="kdenlive:original.meta.media.color_trc">2</property>
  <property name="kdenlive:original.meta.media.has_b_frames">2</property>
  <property name="kdenlive:original.meta.media.width">3840</property>
  <property name="kdenlive:original.meta.media.height">2160</property>
  <property name="kdenlive:original.meta.media.color_range">mpeg</property>
  <property name="kdenlive:original.meta.media.top_field_first">0</property>
  <property name="kdenlive:original.meta.media.progressive">1</property>
  <property name="kdenlive:original.kdenlive:clip_type">2</property>
  <property name="kdenlive:original.kdenlive:folderid">565</property>
  <property name="kdenlive:original.kdenlive:id">573</property>
  <property name="kdenlive:original.kdenlive:file_size">66924</property>
  <property name="kdenlive:original.kdenlive:file_hash">dad4701af3b39b6a41bd7dbe1de823ba</property>
  <property name="kdenlive:original.backup">1</property>
  <property name="xml">was here</property>
  <property name="meta.media.frame_rate_num">60</property>
  <property name="meta.media.frame_rate_den">1</property>
  <property name="meta.media.colorspace">601</property>
  <property name="meta.media.color_trc">2</property>
  <property name="meta.media.has_b_frames">0</property>
  <property name="meta.media.width">640</property>
  <property name="meta.media.height">360</property>
  <property name="meta.media.color_range">full</property>
  <property name="meta.media.top_field_first">0</property>
  <property name="meta.media.progressive">1</property>
  <property name="set.test_audio">1</property>
  <property name="set.test_image">0</property>
 </producer>
 <producer id="producer617" in="00:00:00.000" out="00:00:00.483">
  <property name="length">30</property>
  <property name="eof">pause</property>
  <property name="resource">/home/xiaoxiae/.cache/kdenlive/proxy/35ebe392b30ff8f9ec134378d5fc408d.mkv</property>
  <property name="audio_index">-1</property>
  <property name="video_index">0</property>
  <property name="mute_on_pause">0</property>
  <property name="mlt_service">avformat-novalidate</property>
  <property name="meta.media.nb_streams">1</property>
  <property name="meta.media.0.stream.type">video</property>
  <property name="meta.media.0.stream.frame_rate">60</property>
  <property name="meta.media.0.stream.sample_aspect_ratio">0</property>
  <property name="meta.media.0.codec.width">640</property>
  <property name="meta.media.0.codec.height">360</property>
  <property name="meta.media.0.codec.rotate">0</property>
  <property name="meta.media.0.codec.pix_fmt">yuvj420p</property>
  <property name="meta.media.0.codec.sample_aspect_ratio">0</property>
  <property name="meta.media.0.codec.colorspace">601</property>
  <property name="meta.media.0.codec.name">mjpeg</property>
  <property name="meta.media.0.codec.long_name">MJPEG (Motion JPEG)</property>
  <property name="meta.media.0.codec.bit_rate">0</property>
  <property name="meta.attr.0.stream.HANDLER_NAME.markup">VideoHandler</property>
  <property name="meta.attr.0.stream.VENDOR_ID.markup">[0][0][0][0]</property>
  <property name="meta.attr.0.stream.ENCODER.markup">Lavc60.3.100 mjpeg</property>
  <property name="meta.attr.0.stream.DURATION.markup">00:00:00.500000000</property>
  <property name="meta.attr.COMMENT.markup">Rendered with Manim Community v0.17.2</property>
  <property name="meta.attr.MAJOR_BRAND.markup">isom</property>
  <property name="meta.attr.MINOR_VERSION.markup">512</property>
  <property name="meta.attr.COMPATIBLE_BRANDS.markup">isomiso2avc1mp41</property>
  <property name="meta.attr.ENCODER.markup">Lavf60.3.100</property>
  <property name="seekable">1</property>
  <property name="meta.media.sample_aspect_num">1</property>
  <property name="meta.media.sample_aspect_den">1</property>
  <property name="aspect_ratio">1</property>
  <property name="format">3</property>
  <property name="kdenlive:clipname">17.mp4</property>
  <property name="kdenlive:clip_type">2</property>
  <property name="kdenlive:folderid">565</property>
  <property name="kdenlive:id">463</property>
  <property name="kdenlive:file_size">59001</property>
  <property name="kdenlive:file_hash">35ebe392b30ff8f9ec134378d5fc408d</property>
  <property name="kdenlive:proxy">/home/xiaoxiae/.cache/kdenlive/proxy/35ebe392b30ff8f9ec134378d5fc408d.mkv</property>
  <property name="kdenlive:originalurl">video/Search/17.mp4</property>
  <property name="kdenlive:original.mlt_type">producer</property>
  <property name="kdenlive:original.in">00:00:00.000</property>
  <property name="kdenlive:original.out">00:00:00.483</property>
  <property name="kdenlive:original.length">30</property>
  <property name="kdenlive:original.eof">pause</property>
  <property name="kdenlive:original.resource">video/Search/17.mp4</property>
  <property name="kdenlive:original.meta.media.nb_streams">1</property>
  <property name="kdenlive:original.meta.media.0.stream.type">video</property>
  <property name="kdenlive:original.meta.media.0.stream.frame_rate">60</property>
  <property name="kdenlive:original.meta.media.0.stream.sample_aspect_ratio">0</property>
  <property name="kdenlive:original.meta.media.0.codec.width">3840</property>
  <property name="kdenlive:original.meta.media.0.codec.height">2160</property>
  <property name="kdenlive:original.meta.media.0.codec.rotate">0</property>
  <property name="kdenlive:original.meta.media.0.codec.pix_fmt">yuv420p</property>
  <property name="kdenlive:original.meta.media.0.codec.sample_aspect_ratio">0</property>
  <property name="kdenlive:original.meta.media.0.codec.colorspace">709</property>
  <property name="kdenlive:original.meta.media.0.codec.name">h264</property>
  <property name="kdenlive:original.meta.media.0.codec.long_name">H.264 / AVC / MPEG-4 AVC / MPEG-4 part 10</property>
  <property name="kdenlive:original.meta.media.0.codec.bit_rate">923552</property>
  <property name="kdenlive:original.meta.attr.0.stream.handler_name.markup">VideoHandler</property>
  <property name="kdenlive:original.meta.attr.0.stream.vendor_id.markup">[0][0][0][0]</property>
  <property name="kdenlive:original.meta.attr.0.stream.encoder.markup">Lavc60.3.100 libx264</property>
  <property name="kdenlive:original.meta.attr.major_brand.markup">isom</property>
  <property name="kdenlive:original.meta.attr.minor_version.markup">512</property>
  <property name="kdenlive:original.meta.attr.compatible_brands.markup">isomiso2avc1mp41</property>
  <property name="kdenlive:original.meta.attr.encoder.markup">Lavf60.3.100</property>
  <property name="kdenlive:original.meta.attr.comment.markup">Rendered with Manim Community v0.17.2</property>
  <property name="kdenlive:original.seekable">1</property>
  <property name="kdenlive:original.width">3840</property>
  <property name="kdenlive:original.height">2160</property>
  <property name="kdenlive:original.meta.media.sample_aspect_num">1</property>
  <property name="kdenlive:original.meta.media.sample_aspect_den">1</property>
  <property name="kdenlive:original.aspect_ratio">1</property>
  <property name="kdenlive:original.format">3</property>
  <property name="kdenlive:original.audio_index">-1</property>
  <property name="kdenlive:original.video_index">0</property>
  <property name="kdenlive:original.mute_on_pause">0</property>
  <property name="kdenlive:original.mlt_service">avformat-novalidate</property>
  <property name="kdenlive:original.meta.media.frame_rate_num">60</property>
  <property name="kdenlive:original.meta.media.frame_rate_den">1</property>
  <property name="kdenlive:original.meta.media.colorspace">709</property>
  <property name="kdenlive:original.meta.media.color_trc">2</property>
  <property name="kdenlive:original.meta.media.has_b_frames">2</property>
  <property name="kdenlive:original.meta.media.width">3840</property>
  <property name="kdenlive:original.meta.media.height">2160</property>
  <property name="kdenlive:original.meta.media.color_range">mpeg</property>
  <property name="kdenlive:original.meta.media.top_field_first">0</property>
  <property name="kdenlive:original.meta.media.progressive">1</property>
  <property name="kdenlive:original.kdenlive:clip_type">2</property>
  <property name="kdenlive:original.kdenlive:folderid">565</property>
  <property name="kdenlive:original.kdenlive:id">574</property>
  <property name="kdenlive:original.kdenlive:file_size">59001</property>
  <property name="kdenlive:original.kdenlive:file_hash">35ebe392b30ff8f9ec134378d5fc408d</property>
  <property name="kdenlive:original.backup">1</property>
  <property name="xml">was here</property>
  <property name="meta.media.frame_rate_num">60</property>
  <property name="meta.media.frame_rate_den">1</property>
  <property name="meta.media.colorspace">601</property>
  <property name="meta.media.color_trc">2</property>
  <property name="meta.media.has_b_frames">0</property>
  <property name="meta.media.width">640</property>
  <property name="meta.media.height">360</property>
  <property name="meta.media.color_range">full</property>
  <property name="meta.media.top_field_first">0</property>
  <property name="meta.media.progressive">1</property>
  <property name="set.test_audio">1</property>
  <property name="set.test_image">0</property>
 </producer>
 <producer id="producer618" in="00:00:00.000" out="00:00:00.483">
  <property name="length">30</property>
  <property name="eof">pause</property>
  <property name="resource">/home/xiaoxiae/.cache/kdenlive/proxy/48439b4ae5190f8e7d4f30d5eb5f99b9.mkv</property>
  <property name="audio_index">-1</property>
  <property name="video_index">0</property>
  <property name="mute_on_pause">0</property>
  <property name="mlt_service">avformat-novalidate</property>
  <property name="meta.media.nb_streams">1</property>
  <property name="meta.media.0.stream.type">video</property>
  <property name="meta.media.0.stream.frame_rate">60</property>
  <property name="meta.media.0.stream.sample_aspect_ratio">0</property>
  <property name="meta.media.0.codec.width">640</property>
  <property name="meta.media.0.codec.height">360</property>
  <property name="meta.media.0.codec.rotate">0</property>
  <property name="meta.media.0.codec.pix_fmt">yuvj420p</property>
  <property name="meta.media.0.codec.sample_aspect_ratio">0</property>
  <property name="meta.media.0.codec.colorspace">601</property>
  <property name="meta.media.0.codec.name">mjpeg</property>
  <property name="meta.media.0.codec.long_name">MJPEG (Motion JPEG)</property>
  <property name="meta.media.0.codec.bit_rate">0</property>
  <property name="meta.attr.0.stream.HANDLER_NAME.markup">VideoHandler</property>
  <property name="meta.attr.0.stream.VENDOR_ID.markup">[0][0][0][0]</property>
  <property name="meta.attr.0.stream.ENCODER.markup">Lavc60.3.100 mjpeg</property>
  <property name="meta.attr.0.stream.DURATION.markup">00:00:00.500000000</property>
  <property name="meta.attr.COMMENT.markup">Rendered with Manim Community v0.17.2</property>
  <property name="meta.attr.MAJOR_BRAND.markup">isom</property>
  <property name="meta.attr.MINOR_VERSION.markup">512</property>
  <property name="meta.attr.COMPATIBLE_BRANDS.markup">isomiso2avc1mp41</property>
  <property name="meta.attr.ENCODER.markup">Lavf60.3.100</property>
  <property name="seekable">1</property>
  <property name="meta.media.sample_aspect_num">1</property>
  <property name="meta.media.sample_aspect_den">1</property>
  <property name="aspect_ratio">1</property>
  <property name="format">3</property>
  <property name="kdenlive:clipname">18.mp4</property>
  <property name="kdenlive:clip_type">2</property>
  <property name="kdenlive:folderid">565</property>
  <property name="kdenlive:id">464</property>
  <property name="kdenlive:file_size">74043</property>
  <property name="kdenlive:file_hash">48439b4ae5190f8e7d4f30d5eb5f99b9</property>
  <property name="kdenlive:proxy">/home/xiaoxiae/.cache/kdenlive/proxy/48439b4ae5190f8e7d4f30d5eb5f99b9.mkv</property>
  <property name="kdenlive:originalurl">video/Search/18.mp4</property>
  <property name="kdenlive:original.mlt_type">producer</property>
  <property name="kdenlive:original.in">00:00:00.000</property>
  <property name="kdenlive:original.out">00:00:00.483</property>
  <property name="kdenlive:original.length">30</property>
  <property name="kdenlive:original.eof">pause</property>
  <property name="kdenlive:original.resource">video/Search/18.mp4</property>
  <property name="kdenlive:original.meta.media.nb_streams">1</property>
  <property name="kdenlive:original.meta.media.0.stream.type">video</property>
  <property name="kdenlive:original.meta.media.0.stream.frame_rate">60</property>
  <property name="kdenlive:original.meta.media.0.stream.sample_aspect_ratio">0</property>
  <property name="kdenlive:original.meta.media.0.codec.width">3840</property>
  <property name="kdenlive:original.meta.media.0.codec.height">2160</property>
  <property name="kdenlive:original.meta.media.0.codec.rotate">0</property>
  <property name="kdenlive:original.meta.media.0.codec.pix_fmt">yuv420p</property>
  <property name="kdenlive:original.meta.media.0.codec.sample_aspect_ratio">0</property>
  <property name="kdenlive:original.meta.media.0.codec.colorspace">709</property>
  <property name="kdenlive:original.meta.media.0.codec.name">h264</property>
  <property name="kdenlive:original.meta.media.0.codec.long_name">H.264 / AVC / MPEG-4 AVC / MPEG-4 part 10</property>
  <property name="kdenlive:original.meta.media.0.codec.bit_rate">1164736</property>
  <property name="kdenlive:original.meta.attr.0.stream.handler_name.markup">VideoHandler</property>
  <property name="kdenlive:original.meta.attr.0.stream.vendor_id.markup">[0][0][0][0]</property>
  <property name="kdenlive:original.meta.attr.0.stream.encoder.markup">Lavc60.3.100 libx264</property>
  <property name="kdenlive:original.meta.attr.major_brand.markup">isom</property>
  <property name="kdenlive:original.meta.attr.minor_version.markup">512</property>
  <property name="kdenlive:original.meta.attr.compatible_brands.markup">isomiso2avc1mp41</property>
  <property name="kdenlive:original.meta.attr.encoder.markup">Lavf60.3.100</property>
  <property name="kdenlive:original.meta.attr.comment.markup">Rendered with Manim Community v0.17.2</property>
  <property name="kdenlive:original.seekable">1</property>
  <property name="kdenlive:original.width">3840</property>
  <property name="kdenlive:original.height">2160</property>
  <property name="kdenlive:original.meta.media.sample_aspect_num">1</property>
  <property name="kdenlive:original.meta.media.sample_aspect_den">1</property>
  <property name="kdenlive:original.aspect_ratio">1</property>
  <property name="kdenlive:original.format">3</property>
  <property name="kdenlive:original.audio_index">-1</property>
  <property name="kdenlive:original.video_index">0</property>
  <property name="kdenlive:original.mute_on_pause">0</property>
  <property name="kdenlive:original.mlt_service">avformat-novalidate</property>
  <property name="kdenlive:original.meta.media.frame_rate_num">60</property>
  <property name="kdenlive:original.meta.media.frame_rate_den">1</property>
  <property name="kdenlive:original.meta.media.colorspace">709</property>
  <property name="kdenlive:original.meta.media.color_trc">2</property>
  <property name="kdenlive:original.meta.media.has_b_frames">2</property>
  <property name="kdenlive:original.meta.media.width">3840</property>
  <property name="kdenlive:original.meta.media.height">2160</property>
  <property name="kdenlive:original.meta.media.color_range">mpeg</property>
  <property name="kdenlive:original.meta.media.top_field_first">0</property>
  <property name="kdenlive:original.meta.media.progressive">1</property>
  <property name="kdenlive:original.kdenlive:clip_type">2</property>
  <property name="kdenlive:original.kdenlive:folderid">565</property>
  <property name="kdenlive:original.kdenlive:id">575</property>
  <property name="kdenlive:original.kdenlive:file_size">74043</property>
  <property name="kdenlive:original.kdenlive:file_hash">48439b4ae5190f8e7d4f30d5eb5f99b9</property>
  <property name="kdenlive:original.backup">1</property>
  <property name="xml">was here</property>
  <property name="meta.media.frame_rate_num">60</property>
  <property name="meta.media.frame_rate_den">1</property>
  <property name="meta.media.colorspace">601</property>
  <property name="meta.media.color_trc">2</property>
  <property name="meta.media.has_b_frames">0</property>
  <property name="meta.media.width">640</property>
  <property name="meta.media.height">360</property>
  <property name="meta.media.color_range">full</property>
  <property name="meta.media.top_field_first">0</property>
  <property name="meta.media.progressive">1</property>
  <property name="set.test_audio">1</property>
  <property name="set.test_image">0</property>
 </producer>
 <producer id="producer619" in="00:00:00.000" out="00:00:00.317">
  <property name="length">20</property>
  <property name="eof">pause</property>
  <property name="resource">/home/xiaoxiae/.cache/kdenlive/proxy/f2562922f2db4740d398c4939e92a7e5.mkv</property>
  <property name="audio_index">-1</property>
  <property name="video_index">0</property>
  <property name="mute_on_pause">0</property>
  <property name="mlt_service">avformat-novalidate</property>
  <property name="meta.media.nb_streams">1</property>
  <property name="meta.media.0.stream.type">video</property>
  <property name="meta.media.0.stream.frame_rate">60</property>
  <property name="meta.media.0.stream.sample_aspect_ratio">0</property>
  <property name="meta.media.0.codec.width">640</property>
  <property name="meta.media.0.codec.height">360</property>
  <property name="meta.media.0.codec.rotate">0</property>
  <property name="meta.media.0.codec.pix_fmt">yuvj420p</property>
  <property name="meta.media.0.codec.sample_aspect_ratio">0</property>
  <property name="meta.media.0.codec.colorspace">601</property>
  <property name="meta.media.0.codec.name">mjpeg</property>
  <property name="meta.media.0.codec.long_name">MJPEG (Motion JPEG)</property>
  <property name="meta.media.0.codec.bit_rate">0</property>
  <property name="meta.attr.0.stream.HANDLER_NAME.markup">VideoHandler</property>
  <property name="meta.attr.0.stream.VENDOR_ID.markup">[0][0][0][0]</property>
  <property name="meta.attr.0.stream.ENCODER.markup">Lavc60.3.100 mjpeg</property>
  <property name="meta.attr.0.stream.DURATION.markup">00:00:00.334000000</property>
  <property name="meta.attr.COMMENT.markup">Rendered with Manim Community v0.17.2</property>
  <property name="meta.attr.MAJOR_BRAND.markup">isom</property>
  <property name="meta.attr.MINOR_VERSION.markup">512</property>
  <property name="meta.attr.COMPATIBLE_BRANDS.markup">isomiso2avc1mp41</property>
  <property name="meta.attr.ENCODER.markup">Lavf60.3.100</property>
  <property name="seekable">1</property>
  <property name="meta.media.sample_aspect_num">1</property>
  <property name="meta.media.sample_aspect_den">1</property>
  <property name="aspect_ratio">1</property>
  <property name="format">3</property>
  <property name="kdenlive:clipname">19.mp4</property>
  <property name="kdenlive:clip_type">2</property>
  <property name="kdenlive:folderid">565</property>
  <property name="kdenlive:id">465</property>
  <property name="kdenlive:file_size">66447</property>
  <property name="kdenlive:file_hash">f2562922f2db4740d398c4939e92a7e5</property>
  <property name="kdenlive:proxy">/home/xiaoxiae/.cache/kdenlive/proxy/f2562922f2db4740d398c4939e92a7e5.mkv</property>
  <property name="kdenlive:originalurl">video/Search/19.mp4</property>
  <property name="kdenlive:original.mlt_type">producer</property>
  <property name="kdenlive:original.in">00:00:00.000</property>
  <property name="kdenlive:original.out">00:00:00.317</property>
  <property name="kdenlive:original.length">20</property>
  <property name="kdenlive:original.eof">pause</property>
  <property name="kdenlive:original.resource">video/Search/19.mp4</property>
  <property name="kdenlive:original.meta.media.nb_streams">1</property>
  <property name="kdenlive:original.meta.media.0.stream.type">video</property>
  <property name="kdenlive:original.meta.media.0.stream.frame_rate">60</property>
  <property name="kdenlive:original.meta.media.0.stream.sample_aspect_ratio">0</property>
  <property name="kdenlive:original.meta.media.0.codec.width">3840</property>
  <property name="kdenlive:original.meta.media.0.codec.height">2160</property>
  <property name="kdenlive:original.meta.media.0.codec.rotate">0</property>
  <property name="kdenlive:original.meta.media.0.codec.pix_fmt">yuv420p</property>
  <property name="kdenlive:original.meta.media.0.codec.sample_aspect_ratio">0</property>
  <property name="kdenlive:original.meta.media.0.codec.colorspace">709</property>
  <property name="kdenlive:original.meta.media.0.codec.name">h264</property>
  <property name="kdenlive:original.meta.media.0.codec.long_name">H.264 / AVC / MPEG-4 AVC / MPEG-4 part 10</property>
  <property name="kdenlive:original.meta.media.0.codec.bit_rate">1567296</property>
  <property name="kdenlive:original.meta.attr.0.stream.handler_name.markup">VideoHandler</property>
  <property name="kdenlive:original.meta.attr.0.stream.vendor_id.markup">[0][0][0][0]</property>
  <property name="kdenlive:original.meta.attr.0.stream.encoder.markup">Lavc60.3.100 libx264</property>
  <property name="kdenlive:original.meta.attr.major_brand.markup">isom</property>
  <property name="kdenlive:original.meta.attr.minor_version.markup">512</property>
  <property name="kdenlive:original.meta.attr.compatible_brands.markup">isomiso2avc1mp41</property>
  <property name="kdenlive:original.meta.attr.encoder.markup">Lavf60.3.100</property>
  <property name="kdenlive:original.meta.attr.comment.markup">Rendered with Manim Community v0.17.2</property>
  <property name="kdenlive:original.seekable">1</property>
  <property name="kdenlive:original.width">3840</property>
  <property name="kdenlive:original.height">2160</property>
  <property name="kdenlive:original.meta.media.sample_aspect_num">1</property>
  <property name="kdenlive:original.meta.media.sample_aspect_den">1</property>
  <property name="kdenlive:original.aspect_ratio">1</property>
  <property name="kdenlive:original.format">3</property>
  <property name="kdenlive:original.audio_index">-1</property>
  <property name="kdenlive:original.video_index">0</property>
  <property name="kdenlive:original.mute_on_pause">0</property>
  <property name="kdenlive:original.mlt_service">avformat-novalidate</property>
  <property name="kdenlive:original.meta.media.frame_rate_num">60</property>
  <property name="kdenlive:original.meta.media.frame_rate_den">1</property>
  <property name="kdenlive:original.meta.media.colorspace">709</property>
  <property name="kdenlive:original.meta.media.color_trc">2</property>
  <property name="kdenlive:original.meta.media.has_b_frames">2</property>
  <property name="kdenlive:original.meta.media.width">3840</property>
  <property name="kdenlive:original.meta.media.height">2160</property>
  <property name="kdenlive:original.meta.media.color_range">mpeg</property>
  <property name="kdenlive:original.meta.media.top_field_first">0</property>
  <property name="kdenlive:original.meta.media.progressive">1</property>
  <property name="kdenlive:original.kdenlive:clip_type">2</property>
  <property name="kdenlive:original.kdenlive:folderid">565</property>
  <property name="kdenlive:original.kdenlive:id">576</property>
  <property name="kdenlive:original.kdenlive:file_size">66447</property>
  <property name="kdenlive:original.kdenlive:file_hash">f2562922f2db4740d398c4939e92a7e5</property>
  <property name="kdenlive:original.backup">1</property>
  <property name="xml">was here</property>
  <property name="meta.media.frame_rate_num">60</property>
  <property name="meta.media.frame_rate_den">1</property>
  <property name="meta.media.colorspace">601</property>
  <property name="meta.media.color_trc">2</property>
  <property name="meta.media.has_b_frames">0</property>
  <property name="meta.media.width">640</property>
  <property name="meta.media.height">360</property>
  <property name="meta.media.color_range">full</property>
  <property name="meta.media.top_field_first">0</property>
  <property name="meta.media.progressive">1</property>
  <property name="set.test_audio">1</property>
  <property name="set.test_image">0</property>
 </producer>
 <producer id="producer620" in="00:00:00.000" out="00:00:00.317">
  <property name="length">20</property>
  <property name="eof">pause</property>
  <property name="resource">/home/xiaoxiae/.cache/kdenlive/proxy/ab1d1d6c7fd5508ae0fe0c5a5016df30.mkv</property>
  <property name="audio_index">-1</property>
  <property name="video_index">0</property>
  <property name="mute_on_pause">0</property>
  <property name="mlt_service">avformat-novalidate</property>
  <property name="meta.media.nb_streams">1</property>
  <property name="meta.media.0.stream.type">video</property>
  <property name="meta.media.0.stream.frame_rate">60</property>
  <property name="meta.media.0.stream.sample_aspect_ratio">0</property>
  <property name="meta.media.0.codec.width">640</property>
  <property name="meta.media.0.codec.height">360</property>
  <property name="meta.media.0.codec.rotate">0</property>
  <property name="meta.media.0.codec.pix_fmt">yuvj420p</property>
  <property name="meta.media.0.codec.sample_aspect_ratio">0</property>
  <property name="meta.media.0.codec.colorspace">601</property>
  <property name="meta.media.0.codec.name">mjpeg</property>
  <property name="meta.media.0.codec.long_name">MJPEG (Motion JPEG)</property>
  <property name="meta.media.0.codec.bit_rate">0</property>
  <property name="meta.attr.0.stream.HANDLER_NAME.markup">VideoHandler</property>
  <property name="meta.attr.0.stream.VENDOR_ID.markup">[0][0][0][0]</property>
  <property name="meta.attr.0.stream.ENCODER.markup">Lavc60.3.100 mjpeg</property>
  <property name="meta.attr.0.stream.DURATION.markup">00:00:00.334000000</property>
  <property name="meta.attr.COMMENT.markup">Rendered with Manim Community v0.17.2</property>
  <property name="meta.attr.MAJOR_BRAND.markup">isom</property>
  <property name="meta.attr.MINOR_VERSION.markup">512</property>
  <property name="meta.attr.COMPATIBLE_BRANDS.markup">isomiso2avc1mp41</property>
  <property name="meta.attr.ENCODER.markup">Lavf60.3.100</property>
  <property name="seekable">1</property>
  <property name="meta.media.sample_aspect_num">1</property>
  <property name="meta.media.sample_aspect_den">1</property>
  <property name="aspect_ratio">1</property>
  <property name="format">3</property>
  <property name="kdenlive:clipname">20.mp4</property>
  <property name="kdenlive:clip_type">2</property>
  <property name="kdenlive:folderid">565</property>
  <property name="kdenlive:id">467</property>
  <property name="kdenlive:file_size">62890</property>
  <property name="kdenlive:file_hash">ab1d1d6c7fd5508ae0fe0c5a5016df30</property>
  <property name="kdenlive:proxy">/home/xiaoxiae/.cache/kdenlive/proxy/ab1d1d6c7fd5508ae0fe0c5a5016df30.mkv</property>
  <property name="kdenlive:originalurl">video/Search/20.mp4</property>
  <property name="kdenlive:original.mlt_type">producer</property>
  <property name="kdenlive:original.in">00:00:00.000</property>
  <property name="kdenlive:original.out">00:00:00.317</property>
  <property name="kdenlive:original.length">20</property>
  <property name="kdenlive:original.eof">pause</property>
  <property name="kdenlive:original.resource">video/Search/20.mp4</property>
  <property name="kdenlive:original.meta.media.nb_streams">1</property>
  <property name="kdenlive:original.meta.media.0.stream.type">video</property>
  <property name="kdenlive:original.meta.media.0.stream.frame_rate">60</property>
  <property name="kdenlive:original.meta.media.0.stream.sample_aspect_ratio">0</property>
  <property name="kdenlive:original.meta.media.0.codec.width">3840</property>
  <property name="kdenlive:original.meta.media.0.codec.height">2160</property>
  <property name="kdenlive:original.meta.media.0.codec.rotate">0</property>
  <property name="kdenlive:original.meta.media.0.codec.pix_fmt">yuv420p</property>
  <property name="kdenlive:original.meta.media.0.codec.sample_aspect_ratio">0</property>
  <property name="kdenlive:original.meta.media.0.codec.colorspace">709</property>
  <property name="kdenlive:original.meta.media.0.codec.name">h264</property>
  <property name="kdenlive:original.meta.media.0.codec.long_name">H.264 / AVC / MPEG-4 AVC / MPEG-4 part 10</property>
  <property name="kdenlive:original.meta.media.0.codec.bit_rate">1482312</property>
  <property name="kdenlive:original.meta.attr.0.stream.handler_name.markup">VideoHandler</property>
  <property name="kdenlive:original.meta.attr.0.stream.vendor_id.markup">[0][0][0][0]</property>
  <property name="kdenlive:original.meta.attr.0.stream.encoder.markup">Lavc60.3.100 libx264</property>
  <property name="kdenlive:original.meta.attr.major_brand.markup">isom</property>
  <property name="kdenlive:original.meta.attr.minor_version.markup">512</property>
  <property name="kdenlive:original.meta.attr.compatible_brands.markup">isomiso2avc1mp41</property>
  <property name="kdenlive:original.meta.attr.encoder.markup">Lavf60.3.100</property>
  <property name="kdenlive:original.meta.attr.comment.markup">Rendered with Manim Community v0.17.2</property>
  <property name="kdenlive:original.seekable">1</property>
  <property name="kdenlive:original.width">3840</property>
  <property name="kdenlive:original.height">2160</property>
  <property name="kdenlive:original.meta.media.sample_aspect_num">1</property>
  <property name="kdenlive:original.meta.media.sample_aspect_den">1</property>
  <property name="kdenlive:original.aspect_ratio">1</property>
  <property name="kdenlive:original.format">3</property>
  <property name="kdenlive:original.audio_index">-1</property>
  <property name="kdenlive:original.video_index">0</property>
  <property name="kdenlive:original.mute_on_pause">0</property>
  <property name="kdenlive:original.mlt_service">avformat-novalidate</property>
  <property name="kdenlive:original.meta.media.frame_rate_num">60</property>
  <property name="kdenlive:original.meta.media.frame_rate_den">1</property>
  <property name="kdenlive:original.meta.media.colorspace">709</property>
  <property name="kdenlive:original.meta.media.color_trc">2</property>
  <property name="kdenlive:original.meta.media.has_b_frames">2</property>
  <property name="kdenlive:original.meta.media.width">3840</property>
  <property name="kdenlive:original.meta.media.height">2160</property>
  <property name="kdenlive:original.meta.media.color_range">mpeg</property>
  <property name="kdenlive:original.meta.media.top_field_first">0</property>
  <property name="kdenlive:original.meta.media.progressive">1</property>
  <property name="kdenlive:original.kdenlive:clip_type">2</property>
  <property name="kdenlive:original.kdenlive:folderid">565</property>
  <property name="kdenlive:original.kdenlive:id">578</property>
  <property name="kdenlive:original.kdenlive:file_size">62890</property>
  <property name="kdenlive:original.kdenlive:file_hash">ab1d1d6c7fd5508ae0fe0c5a5016df30</property>
  <property name="kdenlive:original.backup">1</property>
  <property name="xml">was here</property>
  <property name="meta.media.frame_rate_num">60</property>
  <property name="meta.media.frame_rate_den">1</property>
  <property name="meta.media.colorspace">601</property>
  <property name="meta.media.color_trc">2</property>
  <property name="meta.media.has_b_frames">0</property>
  <property name="meta.media.width">640</property>
  <property name="meta.media.height">360</property>
  <property name="meta.media.color_range">full</property>
  <property name="meta.media.top_field_first">0</property>
  <property name="meta.media.progressive">1</property>
  <property name="set.test_audio">1</property>
  <property name="set.test_image">0</property>
 </producer>
 <producer id="producer621" in="00:00:00.000" out="00:00:00.317">
  <property name="length">20</property>
  <property name="eof">pause</property>
  <property name="resource">/home/xiaoxiae/.cache/kdenlive/proxy/db34653ab55185973255b0ff57cf2ac7.mkv</property>
  <property name="audio_index">-1</property>
  <property name="video_index">0</property>
  <property name="mute_on_pause">0</property>
  <property name="mlt_service">avformat-novalidate</property>
  <property name="meta.media.nb_streams">1</property>
  <property name="meta.media.0.stream.type">video</property>
  <property name="meta.media.0.stream.frame_rate">60</property>
  <property name="meta.media.0.stream.sample_aspect_ratio">0</property>
  <property name="meta.media.0.codec.width">640</property>
  <property name="meta.media.0.codec.height">360</property>
  <property name="meta.media.0.codec.rotate">0</property>
  <property name="meta.media.0.codec.pix_fmt">yuvj420p</property>
  <property name="meta.media.0.codec.sample_aspect_ratio">0</property>
  <property name="meta.media.0.codec.colorspace">601</property>
  <property name="meta.media.0.codec.name">mjpeg</property>
  <property name="meta.media.0.codec.long_name">MJPEG (Motion JPEG)</property>
  <property name="meta.media.0.codec.bit_rate">0</property>
  <property name="meta.attr.0.stream.HANDLER_NAME.markup">VideoHandler</property>
  <property name="meta.attr.0.stream.VENDOR_ID.markup">[0][0][0][0]</property>
  <property name="meta.attr.0.stream.ENCODER.markup">Lavc60.3.100 mjpeg</property>
  <property name="meta.attr.0.stream.DURATION.markup">00:00:00.334000000</property>
  <property name="meta.attr.COMMENT.markup">Rendered with Manim Community v0.17.2</property>
  <property name="meta.attr.MAJOR_BRAND.markup">isom</property>
  <property name="meta.attr.MINOR_VERSION.markup">512</property>
  <property name="meta.attr.COMPATIBLE_BRANDS.markup">isomiso2avc1mp41</property>
  <property name="meta.attr.ENCODER.markup">Lavf60.3.100</property>
  <property name="seekable">1</property>
  <property name="meta.media.sample_aspect_num">1</property>
  <property name="meta.media.sample_aspect_den">1</property>
  <property name="aspect_ratio">1</property>
  <property name="format">3</property>
  <property name="kdenlive:clipname">21.mp4</property>
  <property name="kdenlive:clip_type">2</property>
  <property name="kdenlive:folderid">565</property>
  <property name="kdenlive:id">468</property>
  <property name="kdenlive:file_size">64429</property>
  <property name="kdenlive:file_hash">db34653ab55185973255b0ff57cf2ac7</property>
  <property name="kdenlive:proxy">/home/xiaoxiae/.cache/kdenlive/proxy/db34653ab55185973255b0ff57cf2ac7.mkv</property>
  <property name="kdenlive:originalurl">video/Search/21.mp4</property>
  <property name="kdenlive:original.mlt_type">producer</property>
  <property name="kdenlive:original.in">00:00:00.000</property>
  <property name="kdenlive:original.out">00:00:00.317</property>
  <property name="kdenlive:original.length">20</property>
  <property name="kdenlive:original.eof">pause</property>
  <property name="kdenlive:original.resource">video/Search/21.mp4</property>
  <property name="kdenlive:original.meta.media.nb_streams">1</property>
  <property name="kdenlive:original.meta.media.0.stream.type">video</property>
  <property name="kdenlive:original.meta.media.0.stream.frame_rate">60</property>
  <property name="kdenlive:original.meta.media.0.stream.sample_aspect_ratio">0</property>
  <property name="kdenlive:original.meta.media.0.codec.width">3840</property>
  <property name="kdenlive:original.meta.media.0.codec.height">2160</property>
  <property name="kdenlive:original.meta.media.0.codec.rotate">0</property>
  <property name="kdenlive:original.meta.media.0.codec.pix_fmt">yuv420p</property>
  <property name="kdenlive:original.meta.media.0.codec.sample_aspect_ratio">0</property>
  <property name="kdenlive:original.meta.media.0.codec.colorspace">709</property>
  <property name="kdenlive:original.meta.media.0.codec.name">h264</property>
  <property name="kdenlive:original.meta.media.0.codec.long_name">H.264 / AVC / MPEG-4 AVC / MPEG-4 part 10</property>
  <property name="kdenlive:original.meta.media.0.codec.bit_rate">1519056</property>
  <property name="kdenlive:original.meta.attr.0.stream.handler_name.markup">VideoHandler</property>
  <property name="kdenlive:original.meta.attr.0.stream.vendor_id.markup">[0][0][0][0]</property>
  <property name="kdenlive:original.meta.attr.0.stream.encoder.markup">Lavc60.3.100 libx264</property>
  <property name="kdenlive:original.meta.attr.major_brand.markup">isom</property>
  <property name="kdenlive:original.meta.attr.minor_version.markup">512</property>
  <property name="kdenlive:original.meta.attr.compatible_brands.markup">isomiso2avc1mp41</property>
  <property name="kdenlive:original.meta.attr.encoder.markup">Lavf60.3.100</property>
  <property name="kdenlive:original.meta.attr.comment.markup">Rendered with Manim Community v0.17.2</property>
  <property name="kdenlive:original.seekable">1</property>
  <property name="kdenlive:original.width">3840</property>
  <property name="kdenlive:original.height">2160</property>
  <property name="kdenlive:original.meta.media.sample_aspect_num">1</property>
  <property name="kdenlive:original.meta.media.sample_aspect_den">1</property>
  <property name="kdenlive:original.aspect_ratio">1</property>
  <property name="kdenlive:original.format">3</property>
  <property name="kdenlive:original.audio_index">-1</property>
  <property name="kdenlive:original.video_index">0</property>
  <property name="kdenlive:original.mute_on_pause">0</property>
  <property name="kdenlive:original.mlt_service">avformat-novalidate</property>
  <property name="kdenlive:original.meta.media.frame_rate_num">60</property>
  <property name="kdenlive:original.meta.media.frame_rate_den">1</property>
  <property name="kdenlive:original.meta.media.colorspace">709</property>
  <property name="kdenlive:original.meta.media.color_trc">2</property>
  <property name="kdenlive:original.meta.media.has_b_frames">2</property>
  <property name="kdenlive:original.meta.media.width">3840</property>
  <property name="kdenlive:original.meta.media.height">2160</property>
  <property name="kdenlive:original.meta.media.color_range">mpeg</property>
  <property name="kdenlive:original.meta.media.top_field_first">0</property>
  <property name="kdenlive:original.meta.media.progressive">1</property>
  <property name="kdenlive:original.kdenlive:clip_type">2</property>
  <property name="kdenlive:original.kdenlive:folderid">565</property>
  <property name="kdenlive:original.kdenlive:id">579</property>
  <property name="kdenlive:original.kdenlive:file_size">64429</property>
  <property name="kdenlive:original.kdenlive:file_hash">db34653ab55185973255b0ff57cf2ac7</property>
  <property name="kdenlive:original.backup">1</property>
  <property name="xml">was here</property>
  <property name="meta.media.frame_rate_num">60</property>
  <property name="meta.media.frame_rate_den">1</property>
  <property name="meta.media.colorspace">601</property>
  <property name="meta.media.color_trc">2</property>
  <property name="meta.media.has_b_frames">0</property>
  <property name="meta.media.width">640</property>
  <property name="meta.media.height">360</property>
  <property name="meta.media.color_range">full</property>
  <property name="meta.media.top_field_first">0</property>
  <property name="meta.media.progressive">1</property>
  <property name="set.test_audio">1</property>
  <property name="set.test_image">0</property>
 </producer>
 <producer id="producer622" in="00:00:00.000" out="00:00:00.317">
  <property name="length">20</property>
  <property name="eof">pause</property>
  <property name="resource">/home/xiaoxiae/.cache/kdenlive/proxy/ee91f7dba9da79e1fa55a59444d3e20e.mkv</property>
  <property name="audio_index">-1</property>
  <property name="video_index">0</property>
  <property name="mute_on_pause">0</property>
  <property name="mlt_service">avformat-novalidate</property>
  <property name="meta.media.nb_streams">1</property>
  <property name="meta.media.0.stream.type">video</property>
  <property name="meta.media.0.stream.frame_rate">60</property>
  <property name="meta.media.0.stream.sample_aspect_ratio">0</property>
  <property name="meta.media.0.codec.width">640</property>
  <property name="meta.media.0.codec.height">360</property>
  <property name="meta.media.0.codec.rotate">0</property>
  <property name="meta.media.0.codec.pix_fmt">yuvj420p</property>
  <property name="meta.media.0.codec.sample_aspect_ratio">0</property>
  <property name="meta.media.0.codec.colorspace">601</property>
  <property name="meta.media.0.codec.name">mjpeg</property>
  <property name="meta.media.0.codec.long_name">MJPEG (Motion JPEG)</property>
  <property name="meta.media.0.codec.bit_rate">0</property>
  <property name="meta.attr.0.stream.HANDLER_NAME.markup">VideoHandler</property>
  <property name="meta.attr.0.stream.VENDOR_ID.markup">[0][0][0][0]</property>
  <property name="meta.attr.0.stream.ENCODER.markup">Lavc60.3.100 mjpeg</property>
  <property name="meta.attr.0.stream.DURATION.markup">00:00:00.334000000</property>
  <property name="meta.attr.COMMENT.markup">Rendered with Manim Community v0.17.2</property>
  <property name="meta.attr.MAJOR_BRAND.markup">isom</property>
  <property name="meta.attr.MINOR_VERSION.markup">512</property>
  <property name="meta.attr.COMPATIBLE_BRANDS.markup">isomiso2avc1mp41</property>
  <property name="meta.attr.ENCODER.markup">Lavf60.3.100</property>
  <property name="seekable">1</property>
  <property name="meta.media.sample_aspect_num">1</property>
  <property name="meta.media.sample_aspect_den">1</property>
  <property name="aspect_ratio">1</property>
  <property name="format">3</property>
  <property name="kdenlive:clipname">22.mp4</property>
  <property name="kdenlive:clip_type">2</property>
  <property name="kdenlive:folderid">565</property>
  <property name="kdenlive:id">469</property>
  <property name="kdenlive:file_size">75510</property>
  <property name="kdenlive:file_hash">ee91f7dba9da79e1fa55a59444d3e20e</property>
  <property name="kdenlive:proxy">/home/xiaoxiae/.cache/kdenlive/proxy/ee91f7dba9da79e1fa55a59444d3e20e.mkv</property>
  <property name="kdenlive:originalurl">video/Search/22.mp4</property>
  <property name="kdenlive:original.mlt_type">producer</property>
  <property name="kdenlive:original.in">00:00:00.000</property>
  <property name="kdenlive:original.out">00:00:00.317</property>
  <property name="kdenlive:original.length">20</property>
  <property name="kdenlive:original.eof">pause</property>
  <property name="kdenlive:original.resource">video/Search/22.mp4</property>
  <property name="kdenlive:original.meta.media.nb_streams">1</property>
  <property name="kdenlive:original.meta.media.0.stream.type">video</property>
  <property name="kdenlive:original.meta.media.0.stream.frame_rate">60</property>
  <property name="kdenlive:original.meta.media.0.stream.sample_aspect_ratio">0</property>
  <property name="kdenlive:original.meta.media.0.codec.width">3840</property>
  <property name="kdenlive:original.meta.media.0.codec.height">2160</property>
  <property name="kdenlive:original.meta.media.0.codec.rotate">0</property>
  <property name="kdenlive:original.meta.media.0.codec.pix_fmt">yuv420p</property>
  <property name="kdenlive:original.meta.media.0.codec.sample_aspect_ratio">0</property>
  <property name="kdenlive:original.meta.media.0.codec.colorspace">709</property>
  <property name="kdenlive:original.meta.media.0.codec.name">h264</property>
  <property name="kdenlive:original.meta.media.0.codec.long_name">H.264 / AVC / MPEG-4 AVC / MPEG-4 part 10</property>
  <property name="kdenlive:original.meta.media.0.codec.bit_rate">1784616</property>
  <property name="kdenlive:original.meta.attr.0.stream.handler_name.markup">VideoHandler</property>
  <property name="kdenlive:original.meta.attr.0.stream.vendor_id.markup">[0][0][0][0]</property>
  <property name="kdenlive:original.meta.attr.0.stream.encoder.markup">Lavc60.3.100 libx264</property>
  <property name="kdenlive:original.meta.attr.major_brand.markup">isom</property>
  <property name="kdenlive:original.meta.attr.minor_version.markup">512</property>
  <property name="kdenlive:original.meta.attr.compatible_brands.markup">isomiso2avc1mp41</property>
  <property name="kdenlive:original.meta.attr.encoder.markup">Lavf60.3.100</property>
  <property name="kdenlive:original.meta.attr.comment.markup">Rendered with Manim Community v0.17.2</property>
  <property name="kdenlive:original.seekable">1</property>
  <property name="kdenlive:original.width">3840</property>
  <property name="kdenlive:original.height">2160</property>
  <property name="kdenlive:original.meta.media.sample_aspect_num">1</property>
  <property name="kdenlive:original.meta.media.sample_aspect_den">1</property>
  <property name="kdenlive:original.aspect_ratio">1</property>
  <property name="kdenlive:original.format">3</property>
  <property name="kdenlive:original.audio_index">-1</property>
  <property name="kdenlive:original.video_index">0</property>
  <property name="kdenlive:original.mute_on_pause">0</property>
  <property name="kdenlive:original.mlt_service">avformat-novalidate</property>
  <property name="kdenlive:original.meta.media.frame_rate_num">60</property>
  <property name="kdenlive:original.meta.media.frame_rate_den">1</property>
  <property name="kdenlive:original.meta.media.colorspace">709</property>
  <property name="kdenlive:original.meta.media.color_trc">2</property>
  <property name="kdenlive:original.meta.media.has_b_frames">2</property>
  <property name="kdenlive:original.meta.media.width">3840</property>
  <property name="kdenlive:original.meta.media.height">2160</property>
  <property name="kdenlive:original.meta.media.color_range">mpeg</property>
  <property name="kdenlive:original.meta.media.top_field_first">0</property>
  <property name="kdenlive:original.meta.media.progressive">1</property>
  <property name="kdenlive:original.kdenlive:clip_type">2</property>
  <property name="kdenlive:original.kdenlive:folderid">565</property>
  <property name="kdenlive:original.kdenlive:id">580</property>
  <property name="kdenlive:original.kdenlive:file_size">75510</property>
  <property name="kdenlive:original.kdenlive:file_hash">ee91f7dba9da79e1fa55a59444d3e20e</property>
  <property name="kdenlive:original.backup">1</property>
  <property name="xml">was here</property>
  <property name="meta.media.frame_rate_num">60</property>
  <property name="meta.media.frame_rate_den">1</property>
  <property name="meta.media.colorspace">601</property>
  <property name="meta.media.color_trc">2</property>
  <property name="meta.media.has_b_frames">0</property>
  <property name="meta.media.width">640</property>
  <property name="meta.media.height">360</property>
  <property name="meta.media.color_range">full</property>
  <property name="meta.media.top_field_first">0</property>
  <property name="meta.media.progressive">1</property>
  <property name="set.test_audio">1</property>
  <property name="set.test_image">0</property>
 </producer>
 <producer id="producer623" in="00:00:00.000" out="00:00:00.483">
  <property name="length">30</property>
  <property name="eof">pause</property>
  <property name="resource">/home/xiaoxiae/.cache/kdenlive/proxy/ee9a53cef52e5d4fca0761b840e08e3f.mkv</property>
  <property name="audio_index">-1</property>
  <property name="video_index">0</property>
  <property name="mute_on_pause">0</property>
  <property name="mlt_service">avformat-novalidate</property>
  <property name="meta.media.nb_streams">1</property>
  <property name="meta.media.0.stream.type">video</property>
  <property name="meta.media.0.stream.frame_rate">60</property>
  <property name="meta.media.0.stream.sample_aspect_ratio">0</property>
  <property name="meta.media.0.codec.width">640</property>
  <property name="meta.media.0.codec.height">360</property>
  <property name="meta.media.0.codec.rotate">0</property>
  <property name="meta.media.0.codec.pix_fmt">yuvj420p</property>
  <property name="meta.media.0.codec.sample_aspect_ratio">0</property>
  <property name="meta.media.0.codec.colorspace">601</property>
  <property name="meta.media.0.codec.name">mjpeg</property>
  <property name="meta.media.0.codec.long_name">MJPEG (Motion JPEG)</property>
  <property name="meta.media.0.codec.bit_rate">0</property>
  <property name="meta.attr.0.stream.HANDLER_NAME.markup">VideoHandler</property>
  <property name="meta.attr.0.stream.VENDOR_ID.markup">[0][0][0][0]</property>
  <property name="meta.attr.0.stream.ENCODER.markup">Lavc60.3.100 mjpeg</property>
  <property name="meta.attr.0.stream.DURATION.markup">00:00:00.500000000</property>
  <property name="meta.attr.COMMENT.markup">Rendered with Manim Community v0.17.2</property>
  <property name="meta.attr.MAJOR_BRAND.markup">isom</property>
  <property name="meta.attr.MINOR_VERSION.markup">512</property>
  <property name="meta.attr.COMPATIBLE_BRANDS.markup">isomiso2avc1mp41</property>
  <property name="meta.attr.ENCODER.markup">Lavf60.3.100</property>
  <property name="seekable">1</property>
  <property name="meta.media.sample_aspect_num">1</property>
  <property name="meta.media.sample_aspect_den">1</property>
  <property name="aspect_ratio">1</property>
  <property name="format">3</property>
  <property name="kdenlive:clipname">23.mp4</property>
  <property name="kdenlive:clip_type">2</property>
  <property name="kdenlive:folderid">565</property>
  <property name="kdenlive:id">470</property>
  <property name="kdenlive:file_size">131813</property>
  <property name="kdenlive:file_hash">ee9a53cef52e5d4fca0761b840e08e3f</property>
  <property name="kdenlive:proxy">/home/xiaoxiae/.cache/kdenlive/proxy/ee9a53cef52e5d4fca0761b840e08e3f.mkv</property>
  <property name="kdenlive:originalurl">video/Search/23.mp4</property>
  <property name="kdenlive:original.mlt_type">producer</property>
  <property name="kdenlive:original.in">00:00:00.000</property>
  <property name="kdenlive:original.out">00:00:00.483</property>
  <property name="kdenlive:original.length">30</property>
  <property name="kdenlive:original.eof">pause</property>
  <property name="kdenlive:original.resource">video/Search/23.mp4</property>
  <property name="kdenlive:original.meta.media.nb_streams">1</property>
  <property name="kdenlive:original.meta.media.0.stream.type">video</property>
  <property name="kdenlive:original.meta.media.0.stream.frame_rate">60</property>
  <property name="kdenlive:original.meta.media.0.stream.sample_aspect_ratio">0</property>
  <property name="kdenlive:original.meta.media.0.codec.width">3840</property>
  <property name="kdenlive:original.meta.media.0.codec.height">2160</property>
  <property name="kdenlive:original.meta.media.0.codec.rotate">0</property>
  <property name="kdenlive:original.meta.media.0.codec.pix_fmt">yuv420p</property>
  <property name="kdenlive:original.meta.media.0.codec.sample_aspect_ratio">0</property>
  <property name="kdenlive:original.meta.media.0.codec.colorspace">709</property>
  <property name="kdenlive:original.meta.media.0.codec.name">h264</property>
  <property name="kdenlive:original.meta.media.0.codec.long_name">H.264 / AVC / MPEG-4 AVC / MPEG-4 part 10</property>
  <property name="kdenlive:original.meta.media.0.codec.bit_rate">2088800</property>
  <property name="kdenlive:original.meta.attr.0.stream.handler_name.markup">VideoHandler</property>
  <property name="kdenlive:original.meta.attr.0.stream.vendor_id.markup">[0][0][0][0]</property>
  <property name="kdenlive:original.meta.attr.0.stream.encoder.markup">Lavc60.3.100 libx264</property>
  <property name="kdenlive:original.meta.attr.major_brand.markup">isom</property>
  <property name="kdenlive:original.meta.attr.minor_version.markup">512</property>
  <property name="kdenlive:original.meta.attr.compatible_brands.markup">isomiso2avc1mp41</property>
  <property name="kdenlive:original.meta.attr.encoder.markup">Lavf60.3.100</property>
  <property name="kdenlive:original.meta.attr.comment.markup">Rendered with Manim Community v0.17.2</property>
  <property name="kdenlive:original.seekable">1</property>
  <property name="kdenlive:original.width">3840</property>
  <property name="kdenlive:original.height">2160</property>
  <property name="kdenlive:original.meta.media.sample_aspect_num">1</property>
  <property name="kdenlive:original.meta.media.sample_aspect_den">1</property>
  <property name="kdenlive:original.aspect_ratio">1</property>
  <property name="kdenlive:original.format">3</property>
  <property name="kdenlive:original.audio_index">-1</property>
  <property name="kdenlive:original.video_index">0</property>
  <property name="kdenlive:original.mute_on_pause">0</property>
  <property name="kdenlive:original.mlt_service">avformat-novalidate</property>
  <property name="kdenlive:original.meta.media.frame_rate_num">60</property>
  <property name="kdenlive:original.meta.media.frame_rate_den">1</property>
  <property name="kdenlive:original.meta.media.colorspace">709</property>
  <property name="kdenlive:original.meta.media.color_trc">2</property>
  <property name="kdenlive:original.meta.media.has_b_frames">2</property>
  <property name="kdenlive:original.meta.media.width">3840</property>
  <property name="kdenlive:original.meta.media.height">2160</property>
  <property name="kdenlive:original.meta.media.color_range">mpeg</property>
  <property name="kdenlive:original.meta.media.top_field_first">0</property>
  <property name="kdenlive:original.meta.media.progressive">1</property>
  <property name="kdenlive:original.kdenlive:clip_type">2</property>
  <property name="kdenlive:original.kdenlive:folderid">565</property>
  <property name="kdenlive:original.kdenlive:id">581</property>
  <property name="kdenlive:original.kdenlive:file_size">131813</property>
  <property name="kdenlive:original.kdenlive:file_hash">ee9a53cef52e5d4fca0761b840e08e3f</property>
  <property name="kdenlive:original.backup">1</property>
  <property name="xml">was here</property>
  <property name="meta.media.frame_rate_num">60</property>
  <property name="meta.media.frame_rate_den">1</property>
  <property name="meta.media.colorspace">601</property>
  <property name="meta.media.color_trc">2</property>
  <property name="meta.media.has_b_frames">0</property>
  <property name="meta.media.width">640</property>
  <property name="meta.media.height">360</property>
  <property name="meta.media.color_range">full</property>
  <property name="meta.media.top_field_first">0</property>
  <property name="meta.media.progressive">1</property>
  <property name="set.test_audio">1</property>
  <property name="set.test_image">0</property>
 </producer>
 <producer id="producer624" in="00:00:00.000" out="00:00:00.483">
  <property name="length">30</property>
  <property name="eof">pause</property>
  <property name="resource">/home/xiaoxiae/.cache/kdenlive/proxy/e3671452d415e4fdabee49541d426b51.mkv</property>
  <property name="audio_index">-1</property>
  <property name="video_index">0</property>
  <property name="mute_on_pause">0</property>
  <property name="mlt_service">avformat-novalidate</property>
  <property name="meta.media.nb_streams">1</property>
  <property name="meta.media.0.stream.type">video</property>
  <property name="meta.media.0.stream.frame_rate">60</property>
  <property name="meta.media.0.stream.sample_aspect_ratio">0</property>
  <property name="meta.media.0.codec.width">640</property>
  <property name="meta.media.0.codec.height">360</property>
  <property name="meta.media.0.codec.rotate">0</property>
  <property name="meta.media.0.codec.pix_fmt">yuvj420p</property>
  <property name="meta.media.0.codec.sample_aspect_ratio">0</property>
  <property name="meta.media.0.codec.colorspace">601</property>
  <property name="meta.media.0.codec.name">mjpeg</property>
  <property name="meta.media.0.codec.long_name">MJPEG (Motion JPEG)</property>
  <property name="meta.media.0.codec.bit_rate">0</property>
  <property name="meta.attr.0.stream.HANDLER_NAME.markup">VideoHandler</property>
  <property name="meta.attr.0.stream.VENDOR_ID.markup">[0][0][0][0]</property>
  <property name="meta.attr.0.stream.ENCODER.markup">Lavc60.3.100 mjpeg</property>
  <property name="meta.attr.0.stream.DURATION.markup">00:00:00.500000000</property>
  <property name="meta.attr.COMMENT.markup">Rendered with Manim Community v0.17.2</property>
  <property name="meta.attr.MAJOR_BRAND.markup">isom</property>
  <property name="meta.attr.MINOR_VERSION.markup">512</property>
  <property name="meta.attr.COMPATIBLE_BRANDS.markup">isomiso2avc1mp41</property>
  <property name="meta.attr.ENCODER.markup">Lavf60.3.100</property>
  <property name="seekable">1</property>
  <property name="meta.media.sample_aspect_num">1</property>
  <property name="meta.media.sample_aspect_den">1</property>
  <property name="aspect_ratio">1</property>
  <property name="format">3</property>
  <property name="kdenlive:clipname">24.mp4</property>
  <property name="kdenlive:clip_type">2</property>
  <property name="kdenlive:folderid">565</property>
  <property name="kdenlive:id">471</property>
  <property name="kdenlive:file_size">47453</property>
  <property name="kdenlive:file_hash">e3671452d415e4fdabee49541d426b51</property>
  <property name="kdenlive:proxy">/home/xiaoxiae/.cache/kdenlive/proxy/e3671452d415e4fdabee49541d426b51.mkv</property>
  <property name="kdenlive:originalurl">video/Search/24.mp4</property>
  <property name="kdenlive:original.mlt_type">producer</property>
  <property name="kdenlive:original.in">00:00:00.000</property>
  <property name="kdenlive:original.out">00:00:00.483</property>
  <property name="kdenlive:original.length">30</property>
  <property name="kdenlive:original.eof">pause</property>
  <property name="kdenlive:original.resource">video/Search/24.mp4</property>
  <property name="kdenlive:original.meta.media.nb_streams">1</property>
  <property name="kdenlive:original.meta.media.0.stream.type">video</property>
  <property name="kdenlive:original.meta.media.0.stream.frame_rate">60</property>
  <property name="kdenlive:original.meta.media.0.stream.sample_aspect_ratio">0</property>
  <property name="kdenlive:original.meta.media.0.codec.width">3840</property>
  <property name="kdenlive:original.meta.media.0.codec.height">2160</property>
  <property name="kdenlive:original.meta.media.0.codec.rotate">0</property>
  <property name="kdenlive:original.meta.media.0.codec.pix_fmt">yuv420p</property>
  <property name="kdenlive:original.meta.media.0.codec.sample_aspect_ratio">0</property>
  <property name="kdenlive:original.meta.media.0.codec.colorspace">709</property>
  <property name="kdenlive:original.meta.media.0.codec.name">h264</property>
  <property name="kdenlive:original.meta.media.0.codec.long_name">H.264 / AVC / MPEG-4 AVC / MPEG-4 part 10</property>
  <property name="kdenlive:original.meta.media.0.codec.bit_rate">738912</property>
  <property name="kdenlive:original.meta.attr.0.stream.handler_name.markup">VideoHandler</property>
  <property name="kdenlive:original.meta.attr.0.stream.vendor_id.markup">[0][0][0][0]</property>
  <property name="kdenlive:original.meta.attr.0.stream.encoder.markup">Lavc60.3.100 libx264</property>
  <property name="kdenlive:original.meta.attr.major_brand.markup">isom</property>
  <property name="kdenlive:original.meta.attr.minor_version.markup">512</property>
  <property name="kdenlive:original.meta.attr.compatible_brands.markup">isomiso2avc1mp41</property>
  <property name="kdenlive:original.meta.attr.encoder.markup">Lavf60.3.100</property>
  <property name="kdenlive:original.meta.attr.comment.markup">Rendered with Manim Community v0.17.2</property>
  <property name="kdenlive:original.seekable">1</property>
  <property name="kdenlive:original.width">3840</property>
  <property name="kdenlive:original.height">2160</property>
  <property name="kdenlive:original.meta.media.sample_aspect_num">1</property>
  <property name="kdenlive:original.meta.media.sample_aspect_den">1</property>
  <property name="kdenlive:original.aspect_ratio">1</property>
  <property name="kdenlive:original.format">3</property>
  <property name="kdenlive:original.audio_index">-1</property>
  <property name="kdenlive:original.video_index">0</property>
  <property name="kdenlive:original.mute_on_pause">0</property>
  <property name="kdenlive:original.mlt_service">avformat-novalidate</property>
  <property name="kdenlive:original.meta.media.frame_rate_num">60</property>
  <property name="kdenlive:original.meta.media.frame_rate_den">1</property>
  <property name="kdenlive:original.meta.media.colorspace">709</property>
  <property name="kdenlive:original.meta.media.color_trc">2</property>
  <property name="kdenlive:original.meta.media.has_b_frames">2</property>
  <property name="kdenlive:original.meta.media.width">3840</property>
  <property name="kdenlive:original.meta.media.height">2160</property>
  <property name="kdenlive:original.meta.media.color_range">mpeg</property>
  <property name="kdenlive:original.meta.media.top_field_first">0</property>
  <property name="kdenlive:original.meta.media.progressive">1</property>
  <property name="kdenlive:original.kdenlive:clip_type">2</property>
  <property name="kdenlive:original.kdenlive:folderid">565</property>
  <property name="kdenlive:original.kdenlive:id">582</property>
  <property name="kdenlive:original.kdenlive:file_size">47453</property>
  <property name="kdenlive:original.kdenlive:file_hash">e3671452d415e4fdabee49541d426b51</property>
  <property name="kdenlive:original.backup">1</property>
  <property name="xml">was here</property>
  <property name="meta.media.frame_rate_num">60</property>
  <property name="meta.media.frame_rate_den">1</property>
  <property name="meta.media.colorspace">601</property>
  <property name="meta.media.color_trc">2</property>
  <property name="meta.media.has_b_frames">0</property>
  <property name="meta.media.width">640</property>
  <property name="meta.media.height">360</property>
  <property name="meta.media.color_range">full</property>
  <property name="meta.media.top_field_first">0</property>
  <property name="meta.media.progressive">1</property>
  <property name="set.test_audio">1</property>
  <property name="set.test_image">0</property>
 </producer>
 <producer id="producer625" in="00:00:00.000" out="00:00:00.483">
  <property name="length">30</property>
  <property name="eof">pause</property>
  <property name="resource">/home/xiaoxiae/.cache/kdenlive/proxy/9369939f75a028f01485ccfcf1001e7c.mkv</property>
  <property name="audio_index">-1</property>
  <property name="video_index">0</property>
  <property name="mute_on_pause">0</property>
  <property name="mlt_service">avformat-novalidate</property>
  <property name="meta.media.nb_streams">1</property>
  <property name="meta.media.0.stream.type">video</property>
  <property name="meta.media.0.stream.frame_rate">60</property>
  <property name="meta.media.0.stream.sample_aspect_ratio">0</property>
  <property name="meta.media.0.codec.width">640</property>
  <property name="meta.media.0.codec.height">360</property>
  <property name="meta.media.0.codec.rotate">0</property>
  <property name="meta.media.0.codec.pix_fmt">yuvj420p</property>
  <property name="meta.media.0.codec.sample_aspect_ratio">0</property>
  <property name="meta.media.0.codec.colorspace">601</property>
  <property name="meta.media.0.codec.name">mjpeg</property>
  <property name="meta.media.0.codec.long_name">MJPEG (Motion JPEG)</property>
  <property name="meta.media.0.codec.bit_rate">0</property>
  <property name="meta.attr.0.stream.HANDLER_NAME.markup">VideoHandler</property>
  <property name="meta.attr.0.stream.VENDOR_ID.markup">[0][0][0][0]</property>
  <property name="meta.attr.0.stream.ENCODER.markup">Lavc60.3.100 mjpeg</property>
  <property name="meta.attr.0.stream.DURATION.markup">00:00:00.500000000</property>
  <property name="meta.attr.COMMENT.markup">Rendered with Manim Community v0.17.2</property>
  <property name="meta.attr.MAJOR_BRAND.markup">isom</property>
  <property name="meta.attr.MINOR_VERSION.markup">512</property>
  <property name="meta.attr.COMPATIBLE_BRANDS.markup">isomiso2avc1mp41</property>
  <property name="meta.attr.ENCODER.markup">Lavf60.3.100</property>
  <property name="seekable">1</property>
  <property name="meta.media.sample_aspect_num">1</property>
  <property name="meta.media.sample_aspect_den">1</property>
  <property name="aspect_ratio">1</property>
  <property name="format">3</property>
  <property name="kdenlive:clipname">25.mp4</property>
  <property name="kdenlive:clip_type">2</property>
  <property name="kdenlive:folderid">565</property>
  <property name="kdenlive:id">472</property>
  <property name="kdenlive:file_size">49017</property>
  <property name="kdenlive:file_hash">9369939f75a028f01485ccfcf1001e7c</property>
  <property name="kdenlive:proxy">/home/xiaoxiae/.cache/kdenlive/proxy/9369939f75a028f01485ccfcf1001e7c.mkv</property>
  <property name="kdenlive:originalurl">video/Search/25.mp4</property>
  <property name="kdenlive:original.mlt_type">producer</property>
  <property name="kdenlive:original.in">00:00:00.000</property>
  <property name="kdenlive:original.out">00:00:00.483</property>
  <property name="kdenlive:original.length">30</property>
  <property name="kdenlive:original.eof">pause</property>
  <property name="kdenlive:original.resource">video/Search/25.mp4</property>
  <property name="kdenlive:original.meta.media.nb_streams">1</property>
  <property name="kdenlive:original.meta.media.0.stream.type">video</property>
  <property name="kdenlive:original.meta.media.0.stream.frame_rate">60</property>
  <property name="kdenlive:original.meta.media.0.stream.sample_aspect_ratio">0</property>
  <property name="kdenlive:original.meta.media.0.codec.width">3840</property>
  <property name="kdenlive:original.meta.media.0.codec.height">2160</property>
  <property name="kdenlive:original.meta.media.0.codec.rotate">0</property>
  <property name="kdenlive:original.meta.media.0.codec.pix_fmt">yuv420p</property>
  <property name="kdenlive:original.meta.media.0.codec.sample_aspect_ratio">0</property>
  <property name="kdenlive:original.meta.media.0.codec.colorspace">709</property>
  <property name="kdenlive:original.meta.media.0.codec.name">h264</property>
  <property name="kdenlive:original.meta.media.0.codec.long_name">H.264 / AVC / MPEG-4 AVC / MPEG-4 part 10</property>
  <property name="kdenlive:original.meta.media.0.codec.bit_rate">764320</property>
  <property name="kdenlive:original.meta.attr.0.stream.handler_name.markup">VideoHandler</property>
  <property name="kdenlive:original.meta.attr.0.stream.vendor_id.markup">[0][0][0][0]</property>
  <property name="kdenlive:original.meta.attr.0.stream.encoder.markup">Lavc60.3.100 libx264</property>
  <property name="kdenlive:original.meta.attr.major_brand.markup">isom</property>
  <property name="kdenlive:original.meta.attr.minor_version.markup">512</property>
  <property name="kdenlive:original.meta.attr.compatible_brands.markup">isomiso2avc1mp41</property>
  <property name="kdenlive:original.meta.attr.encoder.markup">Lavf60.3.100</property>
  <property name="kdenlive:original.meta.attr.comment.markup">Rendered with Manim Community v0.17.2</property>
  <property name="kdenlive:original.seekable">1</property>
  <property name="kdenlive:original.width">3840</property>
  <property name="kdenlive:original.height">2160</property>
  <property name="kdenlive:original.meta.media.sample_aspect_num">1</property>
  <property name="kdenlive:original.meta.media.sample_aspect_den">1</property>
  <property name="kdenlive:original.aspect_ratio">1</property>
  <property name="kdenlive:original.format">3</property>
  <property name="kdenlive:original.audio_index">-1</property>
  <property name="kdenlive:original.video_index">0</property>
  <property name="kdenlive:original.mute_on_pause">0</property>
  <property name="kdenlive:original.mlt_service">avformat-novalidate</property>
  <property name="kdenlive:original.meta.media.frame_rate_num">60</property>
  <property name="kdenlive:original.meta.media.frame_rate_den">1</property>
  <property name="kdenlive:original.meta.media.colorspace">709</property>
  <property name="kdenlive:original.meta.media.color_trc">2</property>
  <property name="kdenlive:original.meta.media.has_b_frames">2</property>
  <property name="kdenlive:original.meta.media.width">3840</property>
  <property name="kdenlive:original.meta.media.height">2160</property>
  <property name="kdenlive:original.meta.media.color_range">mpeg</property>
  <property name="kdenlive:original.meta.media.top_field_first">0</property>
  <property name="kdenlive:original.meta.media.progressive">1</property>
  <property name="kdenlive:original.kdenlive:clip_type">2</property>
  <property name="kdenlive:original.kdenlive:folderid">565</property>
  <property name="kdenlive:original.kdenlive:id">583</property>
  <property name="kdenlive:original.kdenlive:file_size">49017</property>
  <property name="kdenlive:original.kdenlive:file_hash">9369939f75a028f01485ccfcf1001e7c</property>
  <property name="kdenlive:original.backup">1</property>
  <property name="xml">was here</property>
  <property name="meta.media.frame_rate_num">60</property>
  <property name="meta.media.frame_rate_den">1</property>
  <property name="meta.media.colorspace">601</property>
  <property name="meta.media.color_trc">2</property>
  <property name="meta.media.has_b_frames">0</property>
  <property name="meta.media.width">640</property>
  <property name="meta.media.height">360</property>
  <property name="meta.media.color_range">full</property>
  <property name="meta.media.top_field_first">0</property>
  <property name="meta.media.progressive">1</property>
  <property name="set.test_audio">1</property>
  <property name="set.test_image">0</property>
 </producer>
 <producer id="producer626" in="00:00:00.000" out="00:00:00.317">
  <property name="length">20</property>
  <property name="eof">pause</property>
  <property name="resource">/home/xiaoxiae/.cache/kdenlive/proxy/02dc590827e8aad82322155cb84c57a6.mkv</property>
  <property name="audio_index">-1</property>
  <property name="video_index">0</property>
  <property name="mute_on_pause">0</property>
  <property name="mlt_service">avformat-novalidate</property>
  <property name="meta.media.nb_streams">1</property>
  <property name="meta.media.0.stream.type">video</property>
  <property name="meta.media.0.stream.frame_rate">60</property>
  <property name="meta.media.0.stream.sample_aspect_ratio">0</property>
  <property name="meta.media.0.codec.width">640</property>
  <property name="meta.media.0.codec.height">360</property>
  <property name="meta.media.0.codec.rotate">0</property>
  <property name="meta.media.0.codec.pix_fmt">yuvj420p</property>
  <property name="meta.media.0.codec.sample_aspect_ratio">0</property>
  <property name="meta.media.0.codec.colorspace">601</property>
  <property name="meta.media.0.codec.name">mjpeg</property>
  <property name="meta.media.0.codec.long_name">MJPEG (Motion JPEG)</property>
  <property name="meta.media.0.codec.bit_rate">0</property>
  <property name="meta.attr.0.stream.HANDLER_NAME.markup">VideoHandler</property>
  <property name="meta.attr.0.stream.VENDOR_ID.markup">[0][0][0][0]</property>
  <property name="meta.attr.0.stream.ENCODER.markup">Lavc60.3.100 mjpeg</property>
  <property name="meta.attr.0.stream.DURATION.markup">00:00:00.334000000</property>
  <property name="meta.attr.COMMENT.markup">Rendered with Manim Community v0.17.2</property>
  <property name="meta.attr.MAJOR_BRAND.markup">isom</property>
  <property name="meta.attr.MINOR_VERSION.markup">512</property>
  <property name="meta.attr.COMPATIBLE_BRANDS.markup">isomiso2avc1mp41</property>
  <property name="meta.attr.ENCODER.markup">Lavf60.3.100</property>
  <property name="seekable">1</property>
  <property name="meta.media.sample_aspect_num">1</property>
  <property name="meta.media.sample_aspect_den">1</property>
  <property name="aspect_ratio">1</property>
  <property name="format">3</property>
  <property name="kdenlive:clipname">26.mp4</property>
  <property name="kdenlive:clip_type">2</property>
  <property name="kdenlive:folderid">565</property>
  <property name="kdenlive:id">473</property>
  <property name="kdenlive:file_size">45163</property>
  <property name="kdenlive:file_hash">02dc590827e8aad82322155cb84c57a6</property>
  <property name="kdenlive:proxy">/home/xiaoxiae/.cache/kdenlive/proxy/02dc590827e8aad82322155cb84c57a6.mkv</property>
  <property name="kdenlive:originalurl">video/Search/26.mp4</property>
  <property name="kdenlive:original.mlt_type">producer</property>
  <property name="kdenlive:original.in">00:00:00.000</property>
  <property name="kdenlive:original.out">00:00:00.317</property>
  <property name="kdenlive:original.length">20</property>
  <property name="kdenlive:original.eof">pause</property>
  <property name="kdenlive:original.resource">video/Search/26.mp4</property>
  <property name="kdenlive:original.meta.media.nb_streams">1</property>
  <property name="kdenlive:original.meta.media.0.stream.type">video</property>
  <property name="kdenlive:original.meta.media.0.stream.frame_rate">60</property>
  <property name="kdenlive:original.meta.media.0.stream.sample_aspect_ratio">0</property>
  <property name="kdenlive:original.meta.media.0.codec.width">3840</property>
  <property name="kdenlive:original.meta.media.0.codec.height">2160</property>
  <property name="kdenlive:original.meta.media.0.codec.rotate">0</property>
  <property name="kdenlive:original.meta.media.0.codec.pix_fmt">yuv420p</property>
  <property name="kdenlive:original.meta.media.0.codec.sample_aspect_ratio">0</property>
  <property name="kdenlive:original.meta.media.0.codec.colorspace">709</property>
  <property name="kdenlive:original.meta.media.0.codec.name">h264</property>
  <property name="kdenlive:original.meta.media.0.codec.long_name">H.264 / AVC / MPEG-4 AVC / MPEG-4 part 10</property>
  <property name="kdenlive:original.meta.media.0.codec.bit_rate">1056288</property>
  <property name="kdenlive:original.meta.attr.0.stream.handler_name.markup">VideoHandler</property>
  <property name="kdenlive:original.meta.attr.0.stream.vendor_id.markup">[0][0][0][0]</property>
  <property name="kdenlive:original.meta.attr.0.stream.encoder.markup">Lavc60.3.100 libx264</property>
  <property name="kdenlive:original.meta.attr.major_brand.markup">isom</property>
  <property name="kdenlive:original.meta.attr.minor_version.markup">512</property>
  <property name="kdenlive:original.meta.attr.compatible_brands.markup">isomiso2avc1mp41</property>
  <property name="kdenlive:original.meta.attr.encoder.markup">Lavf60.3.100</property>
  <property name="kdenlive:original.meta.attr.comment.markup">Rendered with Manim Community v0.17.2</property>
  <property name="kdenlive:original.seekable">1</property>
  <property name="kdenlive:original.width">3840</property>
  <property name="kdenlive:original.height">2160</property>
  <property name="kdenlive:original.meta.media.sample_aspect_num">1</property>
  <property name="kdenlive:original.meta.media.sample_aspect_den">1</property>
  <property name="kdenlive:original.aspect_ratio">1</property>
  <property name="kdenlive:original.format">3</property>
  <property name="kdenlive:original.audio_index">-1</property>
  <property name="kdenlive:original.video_index">0</property>
  <property name="kdenlive:original.mute_on_pause">0</property>
  <property name="kdenlive:original.mlt_service">avformat-novalidate</property>
  <property name="kdenlive:original.meta.media.frame_rate_num">60</property>
  <property name="kdenlive:original.meta.media.frame_rate_den">1</property>
  <property name="kdenlive:original.meta.media.colorspace">709</property>
  <property name="kdenlive:original.meta.media.color_trc">2</property>
  <property name="kdenlive:original.meta.media.has_b_frames">2</property>
  <property name="kdenlive:original.meta.media.width">3840</property>
  <property name="kdenlive:original.meta.media.height">2160</property>
  <property name="kdenlive:original.meta.media.color_range">mpeg</property>
  <property name="kdenlive:original.meta.media.top_field_first">0</property>
  <property name="kdenlive:original.meta.media.progressive">1</property>
  <property name="kdenlive:original.kdenlive:clip_type">2</property>
  <property name="kdenlive:original.kdenlive:folderid">565</property>
  <property name="kdenlive:original.kdenlive:id">584</property>
  <property name="kdenlive:original.kdenlive:file_size">45163</property>
  <property name="kdenlive:original.kdenlive:file_hash">02dc590827e8aad82322155cb84c57a6</property>
  <property name="kdenlive:original.backup">1</property>
  <property name="xml">was here</property>
  <property name="meta.media.frame_rate_num">60</property>
  <property name="meta.media.frame_rate_den">1</property>
  <property name="meta.media.colorspace">601</property>
  <property name="meta.media.color_trc">2</property>
  <property name="meta.media.has_b_frames">0</property>
  <property name="meta.media.width">640</property>
  <property name="meta.media.height">360</property>
  <property name="meta.media.color_range">full</property>
  <property name="meta.media.top_field_first">0</property>
  <property name="meta.media.progressive">1</property>
  <property name="set.test_audio">1</property>
  <property name="set.test_image">0</property>
 </producer>
 <producer id="producer627" in="00:00:00.000" out="00:00:00.317">
  <property name="length">20</property>
  <property name="eof">pause</property>
  <property name="resource">/home/xiaoxiae/.cache/kdenlive/proxy/8f4e23fac0cae2bd6af0206ed7ed00da.mkv</property>
  <property name="audio_index">-1</property>
  <property name="video_index">0</property>
  <property name="mute_on_pause">0</property>
  <property name="mlt_service">avformat-novalidate</property>
  <property name="meta.media.nb_streams">1</property>
  <property name="meta.media.0.stream.type">video</property>
  <property name="meta.media.0.stream.frame_rate">60</property>
  <property name="meta.media.0.stream.sample_aspect_ratio">0</property>
  <property name="meta.media.0.codec.width">640</property>
  <property name="meta.media.0.codec.height">360</property>
  <property name="meta.media.0.codec.rotate">0</property>
  <property name="meta.media.0.codec.pix_fmt">yuvj420p</property>
  <property name="meta.media.0.codec.sample_aspect_ratio">0</property>
  <property name="meta.media.0.codec.colorspace">601</property>
  <property name="meta.media.0.codec.name">mjpeg</property>
  <property name="meta.media.0.codec.long_name">MJPEG (Motion JPEG)</property>
  <property name="meta.media.0.codec.bit_rate">0</property>
  <property name="meta.attr.0.stream.HANDLER_NAME.markup">VideoHandler</property>
  <property name="meta.attr.0.stream.VENDOR_ID.markup">[0][0][0][0]</property>
  <property name="meta.attr.0.stream.ENCODER.markup">Lavc60.3.100 mjpeg</property>
  <property name="meta.attr.0.stream.DURATION.markup">00:00:00.334000000</property>
  <property name="meta.attr.COMMENT.markup">Rendered with Manim Community v0.17.2</property>
  <property name="meta.attr.MAJOR_BRAND.markup">isom</property>
  <property name="meta.attr.MINOR_VERSION.markup">512</property>
  <property name="meta.attr.COMPATIBLE_BRANDS.markup">isomiso2avc1mp41</property>
  <property name="meta.attr.ENCODER.markup">Lavf60.3.100</property>
  <property name="seekable">1</property>
  <property name="meta.media.sample_aspect_num">1</property>
  <property name="meta.media.sample_aspect_den">1</property>
  <property name="aspect_ratio">1</property>
  <property name="format">3</property>
  <property name="kdenlive:clipname">27.mp4</property>
  <property name="kdenlive:clip_type">2</property>
  <property name="kdenlive:folderid">565</property>
  <property name="kdenlive:id">474</property>
  <property name="kdenlive:file_size">43087</property>
  <property name="kdenlive:file_hash">8f4e23fac0cae2bd6af0206ed7ed00da</property>
  <property name="kdenlive:proxy">/home/xiaoxiae/.cache/kdenlive/proxy/8f4e23fac0cae2bd6af0206ed7ed00da.mkv</property>
  <property name="kdenlive:originalurl">video/Search/27.mp4</property>
  <property name="kdenlive:original.mlt_type">producer</property>
  <property name="kdenlive:original.in">00:00:00.000</property>
  <property name="kdenlive:original.out">00:00:00.317</property>
  <property name="kdenlive:original.length">20</property>
  <property name="kdenlive:original.eof">pause</property>
  <property name="kdenlive:original.resource">video/Search/27.mp4</property>
  <property name="kdenlive:original.meta.media.nb_streams">1</property>
  <property name="kdenlive:original.meta.media.0.stream.type">video</property>
  <property name="kdenlive:original.meta.media.0.stream.frame_rate">60</property>
  <property name="kdenlive:original.meta.media.0.stream.sample_aspect_ratio">0</property>
  <property name="kdenlive:original.meta.media.0.codec.width">3840</property>
  <property name="kdenlive:original.meta.media.0.codec.height">2160</property>
  <property name="kdenlive:original.meta.media.0.codec.rotate">0</property>
  <property name="kdenlive:original.meta.media.0.codec.pix_fmt">yuv420p</property>
  <property name="kdenlive:original.meta.media.0.codec.sample_aspect_ratio">0</property>
  <property name="kdenlive:original.meta.media.0.codec.colorspace">709</property>
  <property name="kdenlive:original.meta.media.0.codec.name">h264</property>
  <property name="kdenlive:original.meta.media.0.codec.long_name">H.264 / AVC / MPEG-4 AVC / MPEG-4 part 10</property>
  <property name="kdenlive:original.meta.media.0.codec.bit_rate">1006656</property>
  <property name="kdenlive:original.meta.attr.0.stream.handler_name.markup">VideoHandler</property>
  <property name="kdenlive:original.meta.attr.0.stream.vendor_id.markup">[0][0][0][0]</property>
  <property name="kdenlive:original.meta.attr.0.stream.encoder.markup">Lavc60.3.100 libx264</property>
  <property name="kdenlive:original.meta.attr.major_brand.markup">isom</property>
  <property name="kdenlive:original.meta.attr.minor_version.markup">512</property>
  <property name="kdenlive:original.meta.attr.compatible_brands.markup">isomiso2avc1mp41</property>
  <property name="kdenlive:original.meta.attr.encoder.markup">Lavf60.3.100</property>
  <property name="kdenlive:original.meta.attr.comment.markup">Rendered with Manim Community v0.17.2</property>
  <property name="kdenlive:original.seekable">1</property>
  <property name="kdenlive:original.width">3840</property>
  <property name="kdenlive:original.height">2160</property>
  <property name="kdenlive:original.meta.media.sample_aspect_num">1</property>
  <property name="kdenlive:original.meta.media.sample_aspect_den">1</property>
  <property name="kdenlive:original.aspect_ratio">1</property>
  <property name="kdenlive:original.format">3</property>
  <property name="kdenlive:original.audio_index">-1</property>
  <property name="kdenlive:original.video_index">0</property>
  <property name="kdenlive:original.mute_on_pause">0</property>
  <property name="kdenlive:original.mlt_service">avformat-novalidate</property>
  <property name="kdenlive:original.meta.media.frame_rate_num">60</property>
  <property name="kdenlive:original.meta.media.frame_rate_den">1</property>
  <property name="kdenlive:original.meta.media.colorspace">709</property>
  <property name="kdenlive:original.meta.media.color_trc">2</property>
  <property name="kdenlive:original.meta.media.has_b_frames">2</property>
  <property name="kdenlive:original.meta.media.width">3840</property>
  <property name="kdenlive:original.meta.media.height">2160</property>
  <property name="kdenlive:original.meta.media.color_range">mpeg</property>
  <property name="kdenlive:original.meta.media.top_field_first">0</property>
  <property name="kdenlive:original.meta.media.progressive">1</property>
  <property name="kdenlive:original.kdenlive:clip_type">2</property>
  <property name="kdenlive:original.kdenlive:folderid">565</property>
  <property name="kdenlive:original.kdenlive:id">585</property>
  <property name="kdenlive:original.kdenlive:file_size">43087</property>
  <property name="kdenlive:original.kdenlive:file_hash">8f4e23fac0cae2bd6af0206ed7ed00da</property>
  <property name="kdenlive:original.backup">1</property>
  <property name="xml">was here</property>
  <property name="meta.media.frame_rate_num">60</property>
  <property name="meta.media.frame_rate_den">1</property>
  <property name="meta.media.colorspace">601</property>
  <property name="meta.media.color_trc">2</property>
  <property name="meta.media.has_b_frames">0</property>
  <property name="meta.media.width">640</property>
  <property name="meta.media.height">360</property>
  <property name="meta.media.color_range">full</property>
  <property name="meta.media.top_field_first">0</property>
  <property name="meta.media.progressive">1</property>
  <property name="set.test_audio">1</property>
  <property name="set.test_image">0</property>
 </producer>
 <producer id="producer628" in="00:00:00.000" out="00:00:00.317">
  <property name="length">20</property>
  <property name="eof">pause</property>
  <property name="resource">/home/xiaoxiae/.cache/kdenlive/proxy/6c721bb5a18c3a3074c8c7a29f235254.mkv</property>
  <property name="audio_index">-1</property>
  <property name="video_index">0</property>
  <property name="mute_on_pause">0</property>
  <property name="mlt_service">avformat-novalidate</property>
  <property name="meta.media.nb_streams">1</property>
  <property name="meta.media.0.stream.type">video</property>
  <property name="meta.media.0.stream.frame_rate">60</property>
  <property name="meta.media.0.stream.sample_aspect_ratio">0</property>
  <property name="meta.media.0.codec.width">640</property>
  <property name="meta.media.0.codec.height">360</property>
  <property name="meta.media.0.codec.rotate">0</property>
  <property name="meta.media.0.codec.pix_fmt">yuvj420p</property>
  <property name="meta.media.0.codec.sample_aspect_ratio">0</property>
  <property name="meta.media.0.codec.colorspace">601</property>
  <property name="meta.media.0.codec.name">mjpeg</property>
  <property name="meta.media.0.codec.long_name">MJPEG (Motion JPEG)</property>
  <property name="meta.media.0.codec.bit_rate">0</property>
  <property name="meta.attr.0.stream.HANDLER_NAME.markup">VideoHandler</property>
  <property name="meta.attr.0.stream.VENDOR_ID.markup">[0][0][0][0]</property>
  <property name="meta.attr.0.stream.ENCODER.markup">Lavc60.3.100 mjpeg</property>
  <property name="meta.attr.0.stream.DURATION.markup">00:00:00.334000000</property>
  <property name="meta.attr.COMMENT.markup">Rendered with Manim Community v0.17.2</property>
  <property name="meta.attr.MAJOR_BRAND.markup">isom</property>
  <property name="meta.attr.MINOR_VERSION.markup">512</property>
  <property name="meta.attr.COMPATIBLE_BRANDS.markup">isomiso2avc1mp41</property>
  <property name="meta.attr.ENCODER.markup">Lavf60.3.100</property>
  <property name="seekable">1</property>
  <property name="meta.media.sample_aspect_num">1</property>
  <property name="meta.media.sample_aspect_den">1</property>
  <property name="aspect_ratio">1</property>
  <property name="format">3</property>
  <property name="kdenlive:clipname">28.mp4</property>
  <property name="kdenlive:clip_type">2</property>
  <property name="kdenlive:folderid">565</property>
  <property name="kdenlive:id">475</property>
  <property name="kdenlive:file_size">43621</property>
  <property name="kdenlive:file_hash">6c721bb5a18c3a3074c8c7a29f235254</property>
  <property name="kdenlive:proxy">/home/xiaoxiae/.cache/kdenlive/proxy/6c721bb5a18c3a3074c8c7a29f235254.mkv</property>
  <property name="kdenlive:originalurl">video/Search/28.mp4</property>
  <property name="kdenlive:original.mlt_type">producer</property>
  <property name="kdenlive:original.in">00:00:00.000</property>
  <property name="kdenlive:original.out">00:00:00.317</property>
  <property name="kdenlive:original.length">20</property>
  <property name="kdenlive:original.eof">pause</property>
  <property name="kdenlive:original.resource">video/Search/28.mp4</property>
  <property name="kdenlive:original.meta.media.nb_streams">1</property>
  <property name="kdenlive:original.meta.media.0.stream.type">video</property>
  <property name="kdenlive:original.meta.media.0.stream.frame_rate">60</property>
  <property name="kdenlive:original.meta.media.0.stream.sample_aspect_ratio">0</property>
  <property name="kdenlive:original.meta.media.0.codec.width">3840</property>
  <property name="kdenlive:original.meta.media.0.codec.height">2160</property>
  <property name="kdenlive:original.meta.media.0.codec.rotate">0</property>
  <property name="kdenlive:original.meta.media.0.codec.pix_fmt">yuv420p</property>
  <property name="kdenlive:original.meta.media.0.codec.sample_aspect_ratio">0</property>
  <property name="kdenlive:original.meta.media.0.codec.colorspace">709</property>
  <property name="kdenlive:original.meta.media.0.codec.name">h264</property>
  <property name="kdenlive:original.meta.media.0.codec.long_name">H.264 / AVC / MPEG-4 AVC / MPEG-4 part 10</property>
  <property name="kdenlive:original.meta.media.0.codec.bit_rate">1019280</property>
  <property name="kdenlive:original.meta.attr.0.stream.handler_name.markup">VideoHandler</property>
  <property name="kdenlive:original.meta.attr.0.stream.vendor_id.markup">[0][0][0][0]</property>
  <property name="kdenlive:original.meta.attr.0.stream.encoder.markup">Lavc60.3.100 libx264</property>
  <property name="kdenlive:original.meta.attr.major_brand.markup">isom</property>
  <property name="kdenlive:original.meta.attr.minor_version.markup">512</property>
  <property name="kdenlive:original.meta.attr.compatible_brands.markup">isomiso2avc1mp41</property>
  <property name="kdenlive:original.meta.attr.encoder.markup">Lavf60.3.100</property>
  <property name="kdenlive:original.meta.attr.comment.markup">Rendered with Manim Community v0.17.2</property>
  <property name="kdenlive:original.seekable">1</property>
  <property name="kdenlive:original.width">3840</property>
  <property name="kdenlive:original.height">2160</property>
  <property name="kdenlive:original.meta.media.sample_aspect_num">1</property>
  <property name="kdenlive:original.meta.media.sample_aspect_den">1</property>
  <property name="kdenlive:original.aspect_ratio">1</property>
  <property name="kdenlive:original.format">3</property>
  <property name="kdenlive:original.audio_index">-1</property>
  <property name="kdenlive:original.video_index">0</property>
  <property name="kdenlive:original.mute_on_pause">0</property>
  <property name="kdenlive:original.mlt_service">avformat-novalidate</property>
  <property name="kdenlive:original.meta.media.frame_rate_num">60</property>
  <property name="kdenlive:original.meta.media.frame_rate_den">1</property>
  <property name="kdenlive:original.meta.media.colorspace">709</property>
  <property name="kdenlive:original.meta.media.color_trc">2</property>
  <property name="kdenlive:original.meta.media.has_b_frames">2</property>
  <property name="kdenlive:original.meta.media.width">3840</property>
  <property name="kdenlive:original.meta.media.height">2160</property>
  <property name="kdenlive:original.meta.media.color_range">mpeg</property>
  <property name="kdenlive:original.meta.media.top_field_first">0</property>
  <property name="kdenlive:original.meta.media.progressive">1</property>
  <property name="kdenlive:original.kdenlive:clip_type">2</property>
  <property name="kdenlive:original.kdenlive:folderid">565</property>
  <property name="kdenlive:original.kdenlive:id">586</property>
  <property name="kdenlive:original.kdenlive:file_size">43621</property>
  <property name="kdenlive:original.kdenlive:file_hash">6c721bb5a18c3a3074c8c7a29f235254</property>
  <property name="kdenlive:original.backup">1</property>
  <property name="xml">was here</property>
  <property name="meta.media.frame_rate_num">60</property>
  <property name="meta.media.frame_rate_den">1</property>
  <property name="meta.media.colorspace">601</property>
  <property name="meta.media.color_trc">2</property>
  <property name="meta.media.has_b_frames">0</property>
  <property name="meta.media.width">640</property>
  <property name="meta.media.height">360</property>
  <property name="meta.media.color_range">full</property>
  <property name="meta.media.top_field_first">0</property>
  <property name="meta.media.progressive">1</property>
  <property name="set.test_audio">1</property>
  <property name="set.test_image">0</property>
 </producer>
 <producer id="producer629" in="00:00:00.000" out="00:00:00.317">
  <property name="length">20</property>
  <property name="eof">pause</property>
  <property name="resource">/home/xiaoxiae/.cache/kdenlive/proxy/777e1e4c3bf710cf78cdb324f63129a8.mkv</property>
  <property name="audio_index">-1</property>
  <property name="video_index">0</property>
  <property name="mute_on_pause">0</property>
  <property name="mlt_service">avformat-novalidate</property>
  <property name="meta.media.nb_streams">1</property>
  <property name="meta.media.0.stream.type">video</property>
  <property name="meta.media.0.stream.frame_rate">60</property>
  <property name="meta.media.0.stream.sample_aspect_ratio">0</property>
  <property name="meta.media.0.codec.width">640</property>
  <property name="meta.media.0.codec.height">360</property>
  <property name="meta.media.0.codec.rotate">0</property>
  <property name="meta.media.0.codec.pix_fmt">yuvj420p</property>
  <property name="meta.media.0.codec.sample_aspect_ratio">0</property>
  <property name="meta.media.0.codec.colorspace">601</property>
  <property name="meta.media.0.codec.name">mjpeg</property>
  <property name="meta.media.0.codec.long_name">MJPEG (Motion JPEG)</property>
  <property name="meta.media.0.codec.bit_rate">0</property>
  <property name="meta.attr.0.stream.HANDLER_NAME.markup">VideoHandler</property>
  <property name="meta.attr.0.stream.VENDOR_ID.markup">[0][0][0][0]</property>
  <property name="meta.attr.0.stream.ENCODER.markup">Lavc60.3.100 mjpeg</property>
  <property name="meta.attr.0.stream.DURATION.markup">00:00:00.334000000</property>
  <property name="meta.attr.COMMENT.markup">Rendered with Manim Community v0.17.2</property>
  <property name="meta.attr.MAJOR_BRAND.markup">isom</property>
  <property name="meta.attr.MINOR_VERSION.markup">512</property>
  <property name="meta.attr.COMPATIBLE_BRANDS.markup">isomiso2avc1mp41</property>
  <property name="meta.attr.ENCODER.markup">Lavf60.3.100</property>
  <property name="seekable">1</property>
  <property name="meta.media.sample_aspect_num">1</property>
  <property name="meta.media.sample_aspect_den">1</property>
  <property name="aspect_ratio">1</property>
  <property name="format">3</property>
  <property name="kdenlive:clipname">29.mp4</property>
  <property name="kdenlive:clip_type">2</property>
  <property name="kdenlive:folderid">565</property>
  <property name="kdenlive:id">476</property>
  <property name="kdenlive:file_size">43581</property>
  <property name="kdenlive:file_hash">777e1e4c3bf710cf78cdb324f63129a8</property>
  <property name="kdenlive:proxy">/home/xiaoxiae/.cache/kdenlive/proxy/777e1e4c3bf710cf78cdb324f63129a8.mkv</property>
  <property name="kdenlive:originalurl">video/Search/29.mp4</property>
  <property name="kdenlive:original.mlt_type">producer</property>
  <property name="kdenlive:original.in">00:00:00.000</property>
  <property name="kdenlive:original.out">00:00:00.317</property>
  <property name="kdenlive:original.length">20</property>
  <property name="kdenlive:original.eof">pause</property>
  <property name="kdenlive:original.resource">video/Search/29.mp4</property>
  <property name="kdenlive:original.meta.media.nb_streams">1</property>
  <property name="kdenlive:original.meta.media.0.stream.type">video</property>
  <property name="kdenlive:original.meta.media.0.stream.frame_rate">60</property>
  <property name="kdenlive:original.meta.media.0.stream.sample_aspect_ratio">0</property>
  <property name="kdenlive:original.meta.media.0.codec.width">3840</property>
  <property name="kdenlive:original.meta.media.0.codec.height">2160</property>
  <property name="kdenlive:original.meta.media.0.codec.rotate">0</property>
  <property name="kdenlive:original.meta.media.0.codec.pix_fmt">yuv420p</property>
  <property name="kdenlive:original.meta.media.0.codec.sample_aspect_ratio">0</property>
  <property name="kdenlive:original.meta.media.0.codec.colorspace">709</property>
  <property name="kdenlive:original.meta.media.0.codec.name">h264</property>
  <property name="kdenlive:original.meta.media.0.codec.long_name">H.264 / AVC / MPEG-4 AVC / MPEG-4 part 10</property>
  <property name="kdenlive:original.meta.media.0.codec.bit_rate">1018512</property>
  <property name="kdenlive:original.meta.attr.0.stream.handler_name.markup">VideoHandler</property>
  <property name="kdenlive:original.meta.attr.0.stream.vendor_id.markup">[0][0][0][0]</property>
  <property name="kdenlive:original.meta.attr.0.stream.encoder.markup">Lavc60.3.100 libx264</property>
  <property name="kdenlive:original.meta.attr.major_brand.markup">isom</property>
  <property name="kdenlive:original.meta.attr.minor_version.markup">512</property>
  <property name="kdenlive:original.meta.attr.compatible_brands.markup">isomiso2avc1mp41</property>
  <property name="kdenlive:original.meta.attr.encoder.markup">Lavf60.3.100</property>
  <property name="kdenlive:original.meta.attr.comment.markup">Rendered with Manim Community v0.17.2</property>
  <property name="kdenlive:original.seekable">1</property>
  <property name="kdenlive:original.width">3840</property>
  <property name="kdenlive:original.height">2160</property>
  <property name="kdenlive:original.meta.media.sample_aspect_num">1</property>
  <property name="kdenlive:original.meta.media.sample_aspect_den">1</property>
  <property name="kdenlive:original.aspect_ratio">1</property>
  <property name="kdenlive:original.format">3</property>
  <property name="kdenlive:original.audio_index">-1</property>
  <property name="kdenlive:original.video_index">0</property>
  <property name="kdenlive:original.mute_on_pause">0</property>
  <property name="kdenlive:original.mlt_service">avformat-novalidate</property>
  <property name="kdenlive:original.meta.media.frame_rate_num">60</property>
  <property name="kdenlive:original.meta.media.frame_rate_den">1</property>
  <property name="kdenlive:original.meta.media.colorspace">709</property>
  <property name="kdenlive:original.meta.media.color_trc">2</property>
  <property name="kdenlive:original.meta.media.has_b_frames">2</property>
  <property name="kdenlive:original.meta.media.width">3840</property>
  <property name="kdenlive:original.meta.media.height">2160</property>
  <property name="kdenlive:original.meta.media.color_range">mpeg</property>
  <property name="kdenlive:original.meta.media.top_field_first">0</property>
  <property name="kdenlive:original.meta.media.progressive">1</property>
  <property name="kdenlive:original.kdenlive:clip_type">2</property>
  <property name="kdenlive:original.kdenlive:folderid">565</property>
  <property name="kdenlive:original.kdenlive:id">587</property>
  <property name="kdenlive:original.kdenlive:file_size">43581</property>
  <property name="kdenlive:original.kdenlive:file_hash">777e1e4c3bf710cf78cdb324f63129a8</property>
  <property name="kdenlive:original.backup">1</property>
  <property name="xml">was here</property>
  <property name="meta.media.frame_rate_num">60</property>
  <property name="meta.media.frame_rate_den">1</property>
  <property name="meta.media.colorspace">601</property>
  <property name="meta.media.color_trc">2</property>
  <property name="meta.media.has_b_frames">0</property>
  <property name="meta.media.width">640</property>
  <property name="meta.media.height">360</property>
  <property name="meta.media.color_range">full</property>
  <property name="meta.media.top_field_first">0</property>
  <property name="meta.media.progressive">1</property>
  <property name="set.test_audio">1</property>
  <property name="set.test_image">0</property>
 </producer>
 <producer id="producer630" in="00:00:00.000" out="00:00:00.317">
  <property name="length">20</property>
  <property name="eof">pause</property>
  <property name="resource">/home/xiaoxiae/.cache/kdenlive/proxy/9140be04ec5c5c4b25700dae242a15c5.mkv</property>
  <property name="audio_index">-1</property>
  <property name="video_index">0</property>
  <property name="mute_on_pause">0</property>
  <property name="mlt_service">avformat-novalidate</property>
  <property name="meta.media.nb_streams">1</property>
  <property name="meta.media.0.stream.type">video</property>
  <property name="meta.media.0.stream.frame_rate">60</property>
  <property name="meta.media.0.stream.sample_aspect_ratio">0</property>
  <property name="meta.media.0.codec.width">640</property>
  <property name="meta.media.0.codec.height">360</property>
  <property name="meta.media.0.codec.rotate">0</property>
  <property name="meta.media.0.codec.pix_fmt">yuvj420p</property>
  <property name="meta.media.0.codec.sample_aspect_ratio">0</property>
  <property name="meta.media.0.codec.colorspace">601</property>
  <property name="meta.media.0.codec.name">mjpeg</property>
  <property name="meta.media.0.codec.long_name">MJPEG (Motion JPEG)</property>
  <property name="meta.media.0.codec.bit_rate">0</property>
  <property name="meta.attr.0.stream.HANDLER_NAME.markup">VideoHandler</property>
  <property name="meta.attr.0.stream.VENDOR_ID.markup">[0][0][0][0]</property>
  <property name="meta.attr.0.stream.ENCODER.markup">Lavc60.3.100 mjpeg</property>
  <property name="meta.attr.0.stream.DURATION.markup">00:00:00.334000000</property>
  <property name="meta.attr.COMMENT.markup">Rendered with Manim Community v0.17.2</property>
  <property name="meta.attr.MAJOR_BRAND.markup">isom</property>
  <property name="meta.attr.MINOR_VERSION.markup">512</property>
  <property name="meta.attr.COMPATIBLE_BRANDS.markup">isomiso2avc1mp41</property>
  <property name="meta.attr.ENCODER.markup">Lavf60.3.100</property>
  <property name="seekable">1</property>
  <property name="meta.media.sample_aspect_num">1</property>
  <property name="meta.media.sample_aspect_den">1</property>
  <property name="aspect_ratio">1</property>
  <property name="format">3</property>
  <property name="kdenlive:clipname">30.mp4</property>
  <property name="kdenlive:clip_type">2</property>
  <property name="kdenlive:folderid">565</property>
  <property name="kdenlive:id">478</property>
  <property name="kdenlive:file_size">42768</property>
  <property name="kdenlive:file_hash">9140be04ec5c5c4b25700dae242a15c5</property>
  <property name="kdenlive:proxy">/home/xiaoxiae/.cache/kdenlive/proxy/9140be04ec5c5c4b25700dae242a15c5.mkv</property>
  <property name="kdenlive:originalurl">video/Search/30.mp4</property>
  <property name="kdenlive:original.mlt_type">producer</property>
  <property name="kdenlive:original.in">00:00:00.000</property>
  <property name="kdenlive:original.out">00:00:00.317</property>
  <property name="kdenlive:original.length">20</property>
  <property name="kdenlive:original.eof">pause</property>
  <property name="kdenlive:original.resource">video/Search/30.mp4</property>
  <property name="kdenlive:original.meta.media.nb_streams">1</property>
  <property name="kdenlive:original.meta.media.0.stream.type">video</property>
  <property name="kdenlive:original.meta.media.0.stream.frame_rate">60</property>
  <property name="kdenlive:original.meta.media.0.stream.sample_aspect_ratio">0</property>
  <property name="kdenlive:original.meta.media.0.codec.width">3840</property>
  <property name="kdenlive:original.meta.media.0.codec.height">2160</property>
  <property name="kdenlive:original.meta.media.0.codec.rotate">0</property>
  <property name="kdenlive:original.meta.media.0.codec.pix_fmt">yuv420p</property>
  <property name="kdenlive:original.meta.media.0.codec.sample_aspect_ratio">0</property>
  <property name="kdenlive:original.meta.media.0.codec.colorspace">709</property>
  <property name="kdenlive:original.meta.media.0.codec.name">h264</property>
  <property name="kdenlive:original.meta.media.0.codec.long_name">H.264 / AVC / MPEG-4 AVC / MPEG-4 part 10</property>
  <property name="kdenlive:original.meta.media.0.codec.bit_rate">999000</property>
  <property name="kdenlive:original.meta.attr.0.stream.handler_name.markup">VideoHandler</property>
  <property name="kdenlive:original.meta.attr.0.stream.vendor_id.markup">[0][0][0][0]</property>
  <property name="kdenlive:original.meta.attr.0.stream.encoder.markup">Lavc60.3.100 libx264</property>
  <property name="kdenlive:original.meta.attr.major_brand.markup">isom</property>
  <property name="kdenlive:original.meta.attr.minor_version.markup">512</property>
  <property name="kdenlive:original.meta.attr.compatible_brands.markup">isomiso2avc1mp41</property>
  <property name="kdenlive:original.meta.attr.encoder.markup">Lavf60.3.100</property>
  <property name="kdenlive:original.meta.attr.comment.markup">Rendered with Manim Community v0.17.2</property>
  <property name="kdenlive:original.seekable">1</property>
  <property name="kdenlive:original.width">3840</property>
  <property name="kdenlive:original.height">2160</property>
  <property name="kdenlive:original.meta.media.sample_aspect_num">1</property>
  <property name="kdenlive:original.meta.media.sample_aspect_den">1</property>
  <property name="kdenlive:original.aspect_ratio">1</property>
  <property name="kdenlive:original.format">3</property>
  <property name="kdenlive:original.audio_index">-1</property>
  <property name="kdenlive:original.video_index">0</property>
  <property name="kdenlive:original.mute_on_pause">0</property>
  <property name="kdenlive:original.mlt_service">avformat-novalidate</property>
  <property name="kdenlive:original.meta.media.frame_rate_num">60</property>
  <property name="kdenlive:original.meta.media.frame_rate_den">1</property>
  <property name="kdenlive:original.meta.media.colorspace">709</property>
  <property name="kdenlive:original.meta.media.color_trc">2</property>
  <property name="kdenlive:original.meta.media.has_b_frames">2</property>
  <property name="kdenlive:original.meta.media.width">3840</property>
  <property name="kdenlive:original.meta.media.height">2160</property>
  <property name="kdenlive:original.meta.media.color_range">mpeg</property>
  <property name="kdenlive:original.meta.media.top_field_first">0</property>
  <property name="kdenlive:original.meta.media.progressive">1</property>
  <property name="kdenlive:original.kdenlive:clip_type">2</property>
  <property name="kdenlive:original.kdenlive:folderid">565</property>
  <property name="kdenlive:original.kdenlive:id">589</property>
  <property name="kdenlive:original.kdenlive:file_size">42768</property>
  <property name="kdenlive:original.kdenlive:file_hash">9140be04ec5c5c4b25700dae242a15c5</property>
  <property name="kdenlive:original.backup">1</property>
  <property name="xml">was here</property>
  <property name="meta.media.frame_rate_num">60</property>
  <property name="meta.media.frame_rate_den">1</property>
  <property name="meta.media.colorspace">601</property>
  <property name="meta.media.color_trc">2</property>
  <property name="meta.media.has_b_frames">0</property>
  <property name="meta.media.width">640</property>
  <property name="meta.media.height">360</property>
  <property name="meta.media.color_range">full</property>
  <property name="meta.media.top_field_first">0</property>
  <property name="meta.media.progressive">1</property>
  <property name="set.test_audio">1</property>
  <property name="set.test_image">0</property>
 </producer>
 <producer id="producer631" in="00:00:00.000" out="00:00:00.317">
  <property name="length">20</property>
  <property name="eof">pause</property>
  <property name="resource">/home/xiaoxiae/.cache/kdenlive/proxy/a5d2eea93145e22c05700b06057072ee.mkv</property>
  <property name="audio_index">-1</property>
  <property name="video_index">0</property>
  <property name="mute_on_pause">0</property>
  <property name="mlt_service">avformat-novalidate</property>
  <property name="meta.media.nb_streams">1</property>
  <property name="meta.media.0.stream.type">video</property>
  <property name="meta.media.0.stream.frame_rate">60</property>
  <property name="meta.media.0.stream.sample_aspect_ratio">0</property>
  <property name="meta.media.0.codec.width">640</property>
  <property name="meta.media.0.codec.height">360</property>
  <property name="meta.media.0.codec.rotate">0</property>
  <property name="meta.media.0.codec.pix_fmt">yuvj420p</property>
  <property name="meta.media.0.codec.sample_aspect_ratio">0</property>
  <property name="meta.media.0.codec.colorspace">601</property>
  <property name="meta.media.0.codec.name">mjpeg</property>
  <property name="meta.media.0.codec.long_name">MJPEG (Motion JPEG)</property>
  <property name="meta.media.0.codec.bit_rate">0</property>
  <property name="meta.attr.0.stream.HANDLER_NAME.markup">VideoHandler</property>
  <property name="meta.attr.0.stream.VENDOR_ID.markup">[0][0][0][0]</property>
  <property name="meta.attr.0.stream.ENCODER.markup">Lavc60.3.100 mjpeg</property>
  <property name="meta.attr.0.stream.DURATION.markup">00:00:00.334000000</property>
  <property name="meta.attr.COMMENT.markup">Rendered with Manim Community v0.17.2</property>
  <property name="meta.attr.MAJOR_BRAND.markup">isom</property>
  <property name="meta.attr.MINOR_VERSION.markup">512</property>
  <property name="meta.attr.COMPATIBLE_BRANDS.markup">isomiso2avc1mp41</property>
  <property name="meta.attr.ENCODER.markup">Lavf60.3.100</property>
  <property name="seekable">1</property>
  <property name="meta.media.sample_aspect_num">1</property>
  <property name="meta.media.sample_aspect_den">1</property>
  <property name="aspect_ratio">1</property>
  <property name="format">3</property>
  <property name="kdenlive:clipname">31.mp4</property>
  <property name="kdenlive:clip_type">2</property>
  <property name="kdenlive:folderid">565</property>
  <property name="kdenlive:id">479</property>
  <property name="kdenlive:file_size">44830</property>
  <property name="kdenlive:file_hash">a5d2eea93145e22c05700b06057072ee</property>
  <property name="kdenlive:proxy">/home/xiaoxiae/.cache/kdenlive/proxy/a5d2eea93145e22c05700b06057072ee.mkv</property>
  <property name="kdenlive:originalurl">video/Search/31.mp4</property>
  <property name="kdenlive:original.mlt_type">producer</property>
  <property name="kdenlive:original.in">00:00:00.000</property>
  <property name="kdenlive:original.out">00:00:00.317</property>
  <property name="kdenlive:original.length">20</property>
  <property name="kdenlive:original.eof">pause</property>
  <property name="kdenlive:original.resource">video/Search/31.mp4</property>
  <property name="kdenlive:original.meta.media.nb_streams">1</property>
  <property name="kdenlive:original.meta.media.0.stream.type">video</property>
  <property name="kdenlive:original.meta.media.0.stream.frame_rate">60</property>
  <property name="kdenlive:original.meta.media.0.stream.sample_aspect_ratio">0</property>
  <property name="kdenlive:original.meta.media.0.codec.width">3840</property>
  <property name="kdenlive:original.meta.media.0.codec.height">2160</property>
  <property name="kdenlive:original.meta.media.0.codec.rotate">0</property>
  <property name="kdenlive:original.meta.media.0.codec.pix_fmt">yuv420p</property>
  <property name="kdenlive:original.meta.media.0.codec.sample_aspect_ratio">0</property>
  <property name="kdenlive:original.meta.media.0.codec.colorspace">709</property>
  <property name="kdenlive:original.meta.media.0.codec.name">h264</property>
  <property name="kdenlive:original.meta.media.0.codec.long_name">H.264 / AVC / MPEG-4 AVC / MPEG-4 part 10</property>
  <property name="kdenlive:original.meta.media.0.codec.bit_rate">1048680</property>
  <property name="kdenlive:original.meta.attr.0.stream.handler_name.markup">VideoHandler</property>
  <property name="kdenlive:original.meta.attr.0.stream.vendor_id.markup">[0][0][0][0]</property>
  <property name="kdenlive:original.meta.attr.0.stream.encoder.markup">Lavc60.3.100 libx264</property>
  <property name="kdenlive:original.meta.attr.major_brand.markup">isom</property>
  <property name="kdenlive:original.meta.attr.minor_version.markup">512</property>
  <property name="kdenlive:original.meta.attr.compatible_brands.markup">isomiso2avc1mp41</property>
  <property name="kdenlive:original.meta.attr.encoder.markup">Lavf60.3.100</property>
  <property name="kdenlive:original.meta.attr.comment.markup">Rendered with Manim Community v0.17.2</property>
  <property name="kdenlive:original.seekable">1</property>
  <property name="kdenlive:original.width">3840</property>
  <property name="kdenlive:original.height">2160</property>
  <property name="kdenlive:original.meta.media.sample_aspect_num">1</property>
  <property name="kdenlive:original.meta.media.sample_aspect_den">1</property>
  <property name="kdenlive:original.aspect_ratio">1</property>
  <property name="kdenlive:original.format">3</property>
  <property name="kdenlive:original.audio_index">-1</property>
  <property name="kdenlive:original.video_index">0</property>
  <property name="kdenlive:original.mute_on_pause">0</property>
  <property name="kdenlive:original.mlt_service">avformat-novalidate</property>
  <property name="kdenlive:original.meta.media.frame_rate_num">60</property>
  <property name="kdenlive:original.meta.media.frame_rate_den">1</property>
  <property name="kdenlive:original.meta.media.colorspace">709</property>
  <property name="kdenlive:original.meta.media.color_trc">2</property>
  <property name="kdenlive:original.meta.media.has_b_frames">2</property>
  <property name="kdenlive:original.meta.media.width">3840</property>
  <property name="kdenlive:original.meta.media.height">2160</property>
  <property name="kdenlive:original.meta.media.color_range">mpeg</property>
  <property name="kdenlive:original.meta.media.top_field_first">0</property>
  <property name="kdenlive:original.meta.media.progressive">1</property>
  <property name="kdenlive:original.kdenlive:clip_type">2</property>
  <property name="kdenlive:original.kdenlive:folderid">565</property>
  <property name="kdenlive:original.kdenlive:id">590</property>
  <property name="kdenlive:original.kdenlive:file_size">44830</property>
  <property name="kdenlive:original.kdenlive:file_hash">a5d2eea93145e22c05700b06057072ee</property>
  <property name="kdenlive:original.backup">1</property>
  <property name="xml">was here</property>
  <property name="meta.media.frame_rate_num">60</property>
  <property name="meta.media.frame_rate_den">1</property>
  <property name="meta.media.colorspace">601</property>
  <property name="meta.media.color_trc">2</property>
  <property name="meta.media.has_b_frames">0</property>
  <property name="meta.media.width">640</property>
  <property name="meta.media.height">360</property>
  <property name="meta.media.color_range">full</property>
  <property name="meta.media.top_field_first">0</property>
  <property name="meta.media.progressive">1</property>
  <property name="set.test_audio">1</property>
  <property name="set.test_image">0</property>
 </producer>
 <producer id="producer632" in="00:00:00.000" out="00:00:01.483">
  <property name="length">90</property>
  <property name="eof">pause</property>
  <property name="resource">/home/xiaoxiae/.cache/kdenlive/proxy/bfe33b2fec058f3dc0af168fd34d1696.mkv</property>
  <property name="audio_index">-1</property>
  <property name="video_index">0</property>
  <property name="mute_on_pause">0</property>
  <property name="mlt_service">avformat-novalidate</property>
  <property name="meta.media.nb_streams">1</property>
  <property name="meta.media.0.stream.type">video</property>
  <property name="meta.media.0.stream.frame_rate">60</property>
  <property name="meta.media.0.stream.sample_aspect_ratio">0</property>
  <property name="meta.media.0.codec.width">640</property>
  <property name="meta.media.0.codec.height">360</property>
  <property name="meta.media.0.codec.rotate">0</property>
  <property name="meta.media.0.codec.pix_fmt">yuvj420p</property>
  <property name="meta.media.0.codec.sample_aspect_ratio">0</property>
  <property name="meta.media.0.codec.colorspace">601</property>
  <property name="meta.media.0.codec.name">mjpeg</property>
  <property name="meta.media.0.codec.long_name">MJPEG (Motion JPEG)</property>
  <property name="meta.media.0.codec.bit_rate">0</property>
  <property name="meta.attr.0.stream.HANDLER_NAME.markup">VideoHandler</property>
  <property name="meta.attr.0.stream.VENDOR_ID.markup">[0][0][0][0]</property>
  <property name="meta.attr.0.stream.ENCODER.markup">Lavc60.3.100 mjpeg</property>
  <property name="meta.attr.0.stream.DURATION.markup">00:00:01.500000000</property>
  <property name="meta.attr.COMMENT.markup">Rendered with Manim Community v0.17.2</property>
  <property name="meta.attr.MAJOR_BRAND.markup">isom</property>
  <property name="meta.attr.MINOR_VERSION.markup">512</property>
  <property name="meta.attr.COMPATIBLE_BRANDS.markup">isomiso2avc1mp41</property>
  <property name="meta.attr.ENCODER.markup">Lavf60.3.100</property>
  <property name="seekable">1</property>
  <property name="meta.media.sample_aspect_num">1</property>
  <property name="meta.media.sample_aspect_den">1</property>
  <property name="aspect_ratio">1</property>
  <property name="format">3</property>
  <property name="kdenlive:clipname">32.mp4</property>
  <property name="kdenlive:clip_type">2</property>
  <property name="kdenlive:folderid">565</property>
  <property name="kdenlive:id">480</property>
  <property name="kdenlive:file_size">174705</property>
  <property name="kdenlive:file_hash">bfe33b2fec058f3dc0af168fd34d1696</property>
  <property name="kdenlive:proxy">/home/xiaoxiae/.cache/kdenlive/proxy/bfe33b2fec058f3dc0af168fd34d1696.mkv</property>
  <property name="kdenlive:originalurl">video/Search/32.mp4</property>
  <property name="kdenlive:original.mlt_type">producer</property>
  <property name="kdenlive:original.in">00:00:00.000</property>
  <property name="kdenlive:original.out">00:00:01.483</property>
  <property name="kdenlive:original.length">90</property>
  <property name="kdenlive:original.eof">pause</property>
  <property name="kdenlive:original.resource">video/Search/32.mp4</property>
  <property name="kdenlive:original.meta.media.nb_streams">1</property>
  <property name="kdenlive:original.meta.media.0.stream.type">video</property>
  <property name="kdenlive:original.meta.media.0.stream.frame_rate">60</property>
  <property name="kdenlive:original.meta.media.0.stream.sample_aspect_ratio">0</property>
  <property name="kdenlive:original.meta.media.0.codec.width">3840</property>
  <property name="kdenlive:original.meta.media.0.codec.height">2160</property>
  <property name="kdenlive:original.meta.media.0.codec.rotate">0</property>
  <property name="kdenlive:original.meta.media.0.codec.pix_fmt">yuv420p</property>
  <property name="kdenlive:original.meta.media.0.codec.sample_aspect_ratio">0</property>
  <property name="kdenlive:original.meta.media.0.codec.colorspace">709</property>
  <property name="kdenlive:original.meta.media.0.codec.name">h264</property>
  <property name="kdenlive:original.meta.media.0.codec.long_name">H.264 / AVC / MPEG-4 AVC / MPEG-4 part 10</property>
  <property name="kdenlive:original.meta.media.0.codec.bit_rate">921312</property>
  <property name="kdenlive:original.meta.attr.0.stream.handler_name.markup">VideoHandler</property>
  <property name="kdenlive:original.meta.attr.0.stream.vendor_id.markup">[0][0][0][0]</property>
  <property name="kdenlive:original.meta.attr.0.stream.encoder.markup">Lavc60.3.100 libx264</property>
  <property name="kdenlive:original.meta.attr.major_brand.markup">isom</property>
  <property name="kdenlive:original.meta.attr.minor_version.markup">512</property>
  <property name="kdenlive:original.meta.attr.compatible_brands.markup">isomiso2avc1mp41</property>
  <property name="kdenlive:original.meta.attr.encoder.markup">Lavf60.3.100</property>
  <property name="kdenlive:original.meta.attr.comment.markup">Rendered with Manim Community v0.17.2</property>
  <property name="kdenlive:original.seekable">1</property>
  <property name="kdenlive:original.width">3840</property>
  <property name="kdenlive:original.height">2160</property>
  <property name="kdenlive:original.meta.media.sample_aspect_num">1</property>
  <property name="kdenlive:original.meta.media.sample_aspect_den">1</property>
  <property name="kdenlive:original.aspect_ratio">1</property>
  <property name="kdenlive:original.format">3</property>
  <property name="kdenlive:original.audio_index">-1</property>
  <property name="kdenlive:original.video_index">0</property>
  <property name="kdenlive:original.mute_on_pause">0</property>
  <property name="kdenlive:original.mlt_service">avformat-novalidate</property>
  <property name="kdenlive:original.meta.media.frame_rate_num">60</property>
  <property name="kdenlive:original.meta.media.frame_rate_den">1</property>
  <property name="kdenlive:original.meta.media.colorspace">709</property>
  <property name="kdenlive:original.meta.media.color_trc">2</property>
  <property name="kdenlive:original.meta.media.has_b_frames">2</property>
  <property name="kdenlive:original.meta.media.width">3840</property>
  <property name="kdenlive:original.meta.media.height">2160</property>
  <property name="kdenlive:original.meta.media.color_range">mpeg</property>
  <property name="kdenlive:original.meta.media.top_field_first">0</property>
  <property name="kdenlive:original.meta.media.progressive">1</property>
  <property name="kdenlive:original.kdenlive:clip_type">2</property>
  <property name="kdenlive:original.kdenlive:folderid">565</property>
  <property name="kdenlive:original.kdenlive:id">591</property>
  <property name="kdenlive:original.kdenlive:file_size">174705</property>
  <property name="kdenlive:original.kdenlive:file_hash">bfe33b2fec058f3dc0af168fd34d1696</property>
  <property name="kdenlive:original.backup">1</property>
  <property name="xml">was here</property>
  <property name="meta.media.frame_rate_num">60</property>
  <property name="meta.media.frame_rate_den">1</property>
  <property name="meta.media.colorspace">601</property>
  <property name="meta.media.color_trc">2</property>
  <property name="meta.media.has_b_frames">0</property>
  <property name="meta.media.width">640</property>
  <property name="meta.media.height">360</property>
  <property name="meta.media.color_range">full</property>
  <property name="meta.media.top_field_first">0</property>
  <property name="meta.media.progressive">1</property>
  <property name="set.test_audio">1</property>
  <property name="set.test_image">0</property>
 </producer>
 <producer id="producer633" in="00:00:00.000" out="00:00:00.983">
  <property name="length">60</property>
  <property name="eof">pause</property>
  <property name="resource">/home/xiaoxiae/.cache/kdenlive/proxy/d9d6c29bcd8b48b09c360d2466c21e7f.mkv</property>
  <property name="audio_index">-1</property>
  <property name="video_index">0</property>
  <property name="mute_on_pause">0</property>
  <property name="mlt_service">avformat-novalidate</property>
  <property name="meta.media.nb_streams">1</property>
  <property name="meta.media.0.stream.type">video</property>
  <property name="meta.media.0.stream.frame_rate">60</property>
  <property name="meta.media.0.stream.sample_aspect_ratio">0</property>
  <property name="meta.media.0.codec.width">640</property>
  <property name="meta.media.0.codec.height">360</property>
  <property name="meta.media.0.codec.rotate">0</property>
  <property name="meta.media.0.codec.pix_fmt">yuvj420p</property>
  <property name="meta.media.0.codec.sample_aspect_ratio">0</property>
  <property name="meta.media.0.codec.colorspace">601</property>
  <property name="meta.media.0.codec.name">mjpeg</property>
  <property name="meta.media.0.codec.long_name">MJPEG (Motion JPEG)</property>
  <property name="meta.media.0.codec.bit_rate">0</property>
  <property name="meta.attr.0.stream.HANDLER_NAME.markup">VideoHandler</property>
  <property name="meta.attr.0.stream.VENDOR_ID.markup">[0][0][0][0]</property>
  <property name="meta.attr.0.stream.ENCODER.markup">Lavc60.3.100 mjpeg</property>
  <property name="meta.attr.0.stream.DURATION.markup">00:00:01.000000000</property>
  <property name="meta.attr.COMMENT.markup">Rendered with Manim Community v0.17.2</property>
  <property name="meta.attr.MAJOR_BRAND.markup">isom</property>
  <property name="meta.attr.MINOR_VERSION.markup">512</property>
  <property name="meta.attr.COMPATIBLE_BRANDS.markup">isomiso2avc1mp41</property>
  <property name="meta.attr.ENCODER.markup">Lavf60.3.100</property>
  <property name="seekable">1</property>
  <property name="meta.media.sample_aspect_num">1</property>
  <property name="meta.media.sample_aspect_den">1</property>
  <property name="aspect_ratio">1</property>
  <property name="format">3</property>
  <property name="kdenlive:clipname">1.mp4</property>
  <property name="kdenlive:clip_type">2</property>
  <property name="kdenlive:folderid">488</property>
  <property name="kdenlive:id">380</property>
  <property name="kdenlive:file_size">171404</property>
  <property name="kdenlive:file_hash">d9d6c29bcd8b48b09c360d2466c21e7f</property>
  <property name="kdenlive:proxy">/home/xiaoxiae/.cache/kdenlive/proxy/d9d6c29bcd8b48b09c360d2466c21e7f.mkv</property>
  <property name="kdenlive:originalurl">video/Insertion/1.mp4</property>
  <property name="kdenlive:original.mlt_type">producer</property>
  <property name="kdenlive:original.in">00:00:00.000</property>
  <property name="kdenlive:original.out">00:00:00.983</property>
  <property name="kdenlive:original.length">60</property>
  <property name="kdenlive:original.eof">pause</property>
  <property name="kdenlive:original.resource">video/Insertion/1.mp4</property>
  <property name="kdenlive:original.meta.media.nb_streams">1</property>
  <property name="kdenlive:original.meta.media.0.stream.type">video</property>
  <property name="kdenlive:original.meta.media.0.stream.frame_rate">60</property>
  <property name="kdenlive:original.meta.media.0.stream.sample_aspect_ratio">0</property>
  <property name="kdenlive:original.meta.media.0.codec.width">3840</property>
  <property name="kdenlive:original.meta.media.0.codec.height">2160</property>
  <property name="kdenlive:original.meta.media.0.codec.rotate">0</property>
  <property name="kdenlive:original.meta.media.0.codec.pix_fmt">yuv420p</property>
  <property name="kdenlive:original.meta.media.0.codec.sample_aspect_ratio">0</property>
  <property name="kdenlive:original.meta.media.0.codec.colorspace">709</property>
  <property name="kdenlive:original.meta.media.0.codec.name">h264</property>
  <property name="kdenlive:original.meta.media.0.codec.long_name">H.264 / AVC / MPEG-4 AVC / MPEG-4 part 10</property>
  <property name="kdenlive:original.meta.media.0.codec.bit_rate">1359208</property>
  <property name="kdenlive:original.meta.attr.0.stream.handler_name.markup">VideoHandler</property>
  <property name="kdenlive:original.meta.attr.0.stream.vendor_id.markup">[0][0][0][0]</property>
  <property name="kdenlive:original.meta.attr.0.stream.encoder.markup">Lavc60.3.100 libx264</property>
  <property name="kdenlive:original.meta.attr.major_brand.markup">isom</property>
  <property name="kdenlive:original.meta.attr.minor_version.markup">512</property>
  <property name="kdenlive:original.meta.attr.compatible_brands.markup">isomiso2avc1mp41</property>
  <property name="kdenlive:original.meta.attr.encoder.markup">Lavf60.3.100</property>
  <property name="kdenlive:original.meta.attr.comment.markup">Rendered with Manim Community v0.17.2</property>
  <property name="kdenlive:original.seekable">1</property>
  <property name="kdenlive:original.width">3840</property>
  <property name="kdenlive:original.height">2160</property>
  <property name="kdenlive:original.meta.media.sample_aspect_num">1</property>
  <property name="kdenlive:original.meta.media.sample_aspect_den">1</property>
  <property name="kdenlive:original.aspect_ratio">1</property>
  <property name="kdenlive:original.format">3</property>
  <property name="kdenlive:original.audio_index">-1</property>
  <property name="kdenlive:original.video_index">0</property>
  <property name="kdenlive:original.mute_on_pause">0</property>
  <property name="kdenlive:original.mlt_service">avformat-novalidate</property>
  <property name="kdenlive:original.meta.media.frame_rate_num">60</property>
  <property name="kdenlive:original.meta.media.frame_rate_den">1</property>
  <property name="kdenlive:original.meta.media.colorspace">709</property>
  <property name="kdenlive:original.meta.media.color_trc">2</property>
  <property name="kdenlive:original.meta.media.has_b_frames">2</property>
  <property name="kdenlive:original.meta.media.width">3840</property>
  <property name="kdenlive:original.meta.media.height">2160</property>
  <property name="kdenlive:original.meta.media.color_range">mpeg</property>
  <property name="kdenlive:original.meta.media.top_field_first">0</property>
  <property name="kdenlive:original.meta.media.progressive">1</property>
  <property name="kdenlive:original.kdenlive:clip_type">2</property>
  <property name="kdenlive:original.kdenlive:folderid">488</property>
  <property name="kdenlive:original.kdenlive:id">489</property>
  <property name="kdenlive:original.kdenlive:file_size">171404</property>
  <property name="kdenlive:original.kdenlive:file_hash">d9d6c29bcd8b48b09c360d2466c21e7f</property>
  <property name="kdenlive:original.backup">1</property>
  <property name="xml">was here</property>
  <property name="meta.media.frame_rate_num">60</property>
  <property name="meta.media.frame_rate_den">1</property>
  <property name="meta.media.colorspace">601</property>
  <property name="meta.media.color_trc">2</property>
  <property name="meta.media.has_b_frames">0</property>
  <property name="meta.media.width">640</property>
  <property name="meta.media.height">360</property>
  <property name="meta.media.color_range">full</property>
  <property name="meta.media.top_field_first">0</property>
  <property name="meta.media.progressive">1</property>
  <property name="set.test_audio">1</property>
  <property name="set.test_image">0</property>
 </producer>
 <producer id="producer634" in="00:00:00.000" out="00:00:00.983">
  <property name="length">60</property>
  <property name="eof">pause</property>
  <property name="resource">/home/xiaoxiae/.cache/kdenlive/proxy/304c58c5f380b96547ae2ac348e5e7e8.mkv</property>
  <property name="audio_index">-1</property>
  <property name="video_index">0</property>
  <property name="mute_on_pause">0</property>
  <property name="mlt_service">avformat-novalidate</property>
  <property name="meta.media.nb_streams">1</property>
  <property name="meta.media.0.stream.type">video</property>
  <property name="meta.media.0.stream.frame_rate">60</property>
  <property name="meta.media.0.stream.sample_aspect_ratio">0</property>
  <property name="meta.media.0.codec.width">640</property>
  <property name="meta.media.0.codec.height">360</property>
  <property name="meta.media.0.codec.rotate">0</property>
  <property name="meta.media.0.codec.pix_fmt">yuvj420p</property>
  <property name="meta.media.0.codec.sample_aspect_ratio">0</property>
  <property name="meta.media.0.codec.colorspace">601</property>
  <property name="meta.media.0.codec.name">mjpeg</property>
  <property name="meta.media.0.codec.long_name">MJPEG (Motion JPEG)</property>
  <property name="meta.media.0.codec.bit_rate">0</property>
  <property name="meta.attr.0.stream.HANDLER_NAME.markup">VideoHandler</property>
  <property name="meta.attr.0.stream.VENDOR_ID.markup">[0][0][0][0]</property>
  <property name="meta.attr.0.stream.ENCODER.markup">Lavc60.3.100 mjpeg</property>
  <property name="meta.attr.0.stream.DURATION.markup">00:00:01.000000000</property>
  <property name="meta.attr.COMMENT.markup">Rendered with Manim Community v0.17.2</property>
  <property name="meta.attr.MAJOR_BRAND.markup">isom</property>
  <property name="meta.attr.MINOR_VERSION.markup">512</property>
  <property name="meta.attr.COMPATIBLE_BRANDS.markup">isomiso2avc1mp41</property>
  <property name="meta.attr.ENCODER.markup">Lavf60.3.100</property>
  <property name="seekable">1</property>
  <property name="meta.media.sample_aspect_num">1</property>
  <property name="meta.media.sample_aspect_den">1</property>
  <property name="aspect_ratio">1</property>
  <property name="format">3</property>
  <property name="kdenlive:clipname">2.mp4</property>
  <property name="kdenlive:clip_type">2</property>
  <property name="kdenlive:folderid">488</property>
  <property name="kdenlive:id">391</property>
  <property name="kdenlive:file_size">69107</property>
  <property name="kdenlive:file_hash">304c58c5f380b96547ae2ac348e5e7e8</property>
  <property name="kdenlive:proxy">/home/xiaoxiae/.cache/kdenlive/proxy/304c58c5f380b96547ae2ac348e5e7e8.mkv</property>
  <property name="kdenlive:originalurl">video/Insertion/2.mp4</property>
  <property name="kdenlive:original.mlt_type">producer</property>
  <property name="kdenlive:original.in">00:00:00.000</property>
  <property name="kdenlive:original.out">00:00:00.983</property>
  <property name="kdenlive:original.length">60</property>
  <property name="kdenlive:original.eof">pause</property>
  <property name="kdenlive:original.resource">video/Insertion/2.mp4</property>
  <property name="kdenlive:original.meta.media.nb_streams">1</property>
  <property name="kdenlive:original.meta.media.0.stream.type">video</property>
  <property name="kdenlive:original.meta.media.0.stream.frame_rate">60</property>
  <property name="kdenlive:original.meta.media.0.stream.sample_aspect_ratio">0</property>
  <property name="kdenlive:original.meta.media.0.codec.width">3840</property>
  <property name="kdenlive:original.meta.media.0.codec.height">2160</property>
  <property name="kdenlive:original.meta.media.0.codec.rotate">0</property>
  <property name="kdenlive:original.meta.media.0.codec.pix_fmt">yuv420p</property>
  <property name="kdenlive:original.meta.media.0.codec.sample_aspect_ratio">0</property>
  <property name="kdenlive:original.meta.media.0.codec.colorspace">709</property>
  <property name="kdenlive:original.meta.media.0.codec.name">h264</property>
  <property name="kdenlive:original.meta.media.0.codec.long_name">H.264 / AVC / MPEG-4 AVC / MPEG-4 part 10</property>
  <property name="kdenlive:original.meta.media.0.codec.bit_rate">539808</property>
  <property name="kdenlive:original.meta.attr.0.stream.handler_name.markup">VideoHandler</property>
  <property name="kdenlive:original.meta.attr.0.stream.vendor_id.markup">[0][0][0][0]</property>
  <property name="kdenlive:original.meta.attr.0.stream.encoder.markup">Lavc60.3.100 libx264</property>
  <property name="kdenlive:original.meta.attr.major_brand.markup">isom</property>
  <property name="kdenlive:original.meta.attr.minor_version.markup">512</property>
  <property name="kdenlive:original.meta.attr.compatible_brands.markup">isomiso2avc1mp41</property>
  <property name="kdenlive:original.meta.attr.encoder.markup">Lavf60.3.100</property>
  <property name="kdenlive:original.meta.attr.comment.markup">Rendered with Manim Community v0.17.2</property>
  <property name="kdenlive:original.seekable">1</property>
  <property name="kdenlive:original.width">3840</property>
  <property name="kdenlive:original.height">2160</property>
  <property name="kdenlive:original.meta.media.sample_aspect_num">1</property>
  <property name="kdenlive:original.meta.media.sample_aspect_den">1</property>
  <property name="kdenlive:original.aspect_ratio">1</property>
  <property name="kdenlive:original.format">3</property>
  <property name="kdenlive:original.audio_index">-1</property>
  <property name="kdenlive:original.video_index">0</property>
  <property name="kdenlive:original.mute_on_pause">0</property>
  <property name="kdenlive:original.mlt_service">avformat-novalidate</property>
  <property name="kdenlive:original.meta.media.frame_rate_num">60</property>
  <property name="kdenlive:original.meta.media.frame_rate_den">1</property>
  <property name="kdenlive:original.meta.media.colorspace">709</property>
  <property name="kdenlive:original.meta.media.color_trc">2</property>
  <property name="kdenlive:original.meta.media.has_b_frames">2</property>
  <property name="kdenlive:original.meta.media.width">3840</property>
  <property name="kdenlive:original.meta.media.height">2160</property>
  <property name="kdenlive:original.meta.media.color_range">mpeg</property>
  <property name="kdenlive:original.meta.media.top_field_first">0</property>
  <property name="kdenlive:original.meta.media.progressive">1</property>
  <property name="kdenlive:original.kdenlive:clip_type">2</property>
  <property name="kdenlive:original.kdenlive:folderid">488</property>
  <property name="kdenlive:original.kdenlive:id">500</property>
  <property name="kdenlive:original.kdenlive:file_size">69107</property>
  <property name="kdenlive:original.kdenlive:file_hash">304c58c5f380b96547ae2ac348e5e7e8</property>
  <property name="kdenlive:original.backup">1</property>
  <property name="xml">was here</property>
  <property name="meta.media.frame_rate_num">60</property>
  <property name="meta.media.frame_rate_den">1</property>
  <property name="meta.media.colorspace">601</property>
  <property name="meta.media.color_trc">2</property>
  <property name="meta.media.has_b_frames">0</property>
  <property name="meta.media.width">640</property>
  <property name="meta.media.height">360</property>
  <property name="meta.media.color_range">full</property>
  <property name="meta.media.top_field_first">0</property>
  <property name="meta.media.progressive">1</property>
  <property name="set.test_audio">1</property>
  <property name="set.test_image">0</property>
 </producer>
 <producer id="producer635" in="00:00:00.000" out="00:00:00.183">
  <property name="length">12</property>
  <property name="eof">pause</property>
  <property name="resource">/home/xiaoxiae/.cache/kdenlive/proxy/9d6a74ba10cde65a72d26c4905c1c482.mkv</property>
  <property name="audio_index">-1</property>
  <property name="video_index">0</property>
  <property name="mute_on_pause">0</property>
  <property name="mlt_service">avformat-novalidate</property>
  <property name="meta.media.nb_streams">1</property>
  <property name="meta.media.0.stream.type">video</property>
  <property name="meta.media.0.stream.frame_rate">60</property>
  <property name="meta.media.0.stream.sample_aspect_ratio">0</property>
  <property name="meta.media.0.codec.width">640</property>
  <property name="meta.media.0.codec.height">360</property>
  <property name="meta.media.0.codec.rotate">0</property>
  <property name="meta.media.0.codec.pix_fmt">yuvj420p</property>
  <property name="meta.media.0.codec.sample_aspect_ratio">0</property>
  <property name="meta.media.0.codec.colorspace">601</property>
  <property name="meta.media.0.codec.name">mjpeg</property>
  <property name="meta.media.0.codec.long_name">MJPEG (Motion JPEG)</property>
  <property name="meta.media.0.codec.bit_rate">0</property>
  <property name="meta.attr.0.stream.HANDLER_NAME.markup">VideoHandler</property>
  <property name="meta.attr.0.stream.VENDOR_ID.markup">[0][0][0][0]</property>
  <property name="meta.attr.0.stream.ENCODER.markup">Lavc60.3.100 mjpeg</property>
  <property name="meta.attr.0.stream.DURATION.markup">00:00:00.200000000</property>
  <property name="meta.attr.COMMENT.markup">Rendered with Manim Community v0.17.2</property>
  <property name="meta.attr.MAJOR_BRAND.markup">isom</property>
  <property name="meta.attr.MINOR_VERSION.markup">512</property>
  <property name="meta.attr.COMPATIBLE_BRANDS.markup">isomiso2avc1mp41</property>
  <property name="meta.attr.ENCODER.markup">Lavf60.3.100</property>
  <property name="seekable">1</property>
  <property name="meta.media.sample_aspect_num">1</property>
  <property name="meta.media.sample_aspect_den">1</property>
  <property name="aspect_ratio">1</property>
  <property name="format">3</property>
  <property name="kdenlive:clipname">3.mp4</property>
  <property name="kdenlive:clip_type">2</property>
  <property name="kdenlive:folderid">488</property>
  <property name="kdenlive:id">402</property>
  <property name="kdenlive:file_size">46053</property>
  <property name="kdenlive:file_hash">9d6a74ba10cde65a72d26c4905c1c482</property>
  <property name="kdenlive:proxy">/home/xiaoxiae/.cache/kdenlive/proxy/9d6a74ba10cde65a72d26c4905c1c482.mkv</property>
  <property name="kdenlive:originalurl">video/Insertion/3.mp4</property>
  <property name="kdenlive:original.mlt_type">producer</property>
  <property name="kdenlive:original.in">00:00:00.000</property>
  <property name="kdenlive:original.out">00:00:00.183</property>
  <property name="kdenlive:original.length">12</property>
  <property name="kdenlive:original.eof">pause</property>
  <property name="kdenlive:original.resource">video/Insertion/3.mp4</property>
  <property name="kdenlive:original.meta.media.nb_streams">1</property>
  <property name="kdenlive:original.meta.media.0.stream.type">video</property>
  <property name="kdenlive:original.meta.media.0.stream.frame_rate">60</property>
  <property name="kdenlive:original.meta.media.0.stream.sample_aspect_ratio">0</property>
  <property name="kdenlive:original.meta.media.0.codec.width">3840</property>
  <property name="kdenlive:original.meta.media.0.codec.height">2160</property>
  <property name="kdenlive:original.meta.media.0.codec.rotate">0</property>
  <property name="kdenlive:original.meta.media.0.codec.pix_fmt">yuv420p</property>
  <property name="kdenlive:original.meta.media.0.codec.sample_aspect_ratio">0</property>
  <property name="kdenlive:original.meta.media.0.codec.colorspace">709</property>
  <property name="kdenlive:original.meta.media.0.codec.name">h264</property>
  <property name="kdenlive:original.meta.media.0.codec.long_name">H.264 / AVC / MPEG-4 AVC / MPEG-4 part 10</property>
  <property name="kdenlive:original.meta.media.0.codec.bit_rate">1799600</property>
  <property name="kdenlive:original.meta.attr.0.stream.handler_name.markup">VideoHandler</property>
  <property name="kdenlive:original.meta.attr.0.stream.vendor_id.markup">[0][0][0][0]</property>
  <property name="kdenlive:original.meta.attr.0.stream.encoder.markup">Lavc60.3.100 libx264</property>
  <property name="kdenlive:original.meta.attr.major_brand.markup">isom</property>
  <property name="kdenlive:original.meta.attr.minor_version.markup">512</property>
  <property name="kdenlive:original.meta.attr.compatible_brands.markup">isomiso2avc1mp41</property>
  <property name="kdenlive:original.meta.attr.encoder.markup">Lavf60.3.100</property>
  <property name="kdenlive:original.meta.attr.comment.markup">Rendered with Manim Community v0.17.2</property>
  <property name="kdenlive:original.seekable">1</property>
  <property name="kdenlive:original.width">3840</property>
  <property name="kdenlive:original.height">2160</property>
  <property name="kdenlive:original.meta.media.sample_aspect_num">1</property>
  <property name="kdenlive:original.meta.media.sample_aspect_den">1</property>
  <property name="kdenlive:original.aspect_ratio">1</property>
  <property name="kdenlive:original.format">3</property>
  <property name="kdenlive:original.audio_index">-1</property>
  <property name="kdenlive:original.video_index">0</property>
  <property name="kdenlive:original.mute_on_pause">0</property>
  <property name="kdenlive:original.mlt_service">avformat-novalidate</property>
  <property name="kdenlive:original.meta.media.frame_rate_num">60</property>
  <property name="kdenlive:original.meta.media.frame_rate_den">1</property>
  <property name="kdenlive:original.meta.media.colorspace">709</property>
  <property name="kdenlive:original.meta.media.color_trc">2</property>
  <property name="kdenlive:original.meta.media.has_b_frames">2</property>
  <property name="kdenlive:original.meta.media.width">3840</property>
  <property name="kdenlive:original.meta.media.height">2160</property>
  <property name="kdenlive:original.meta.media.color_range">mpeg</property>
  <property name="kdenlive:original.meta.media.top_field_first">0</property>
  <property name="kdenlive:original.meta.media.progressive">1</property>
  <property name="kdenlive:original.kdenlive:clip_type">2</property>
  <property name="kdenlive:original.kdenlive:folderid">488</property>
  <property name="kdenlive:original.kdenlive:id">511</property>
  <property name="kdenlive:original.kdenlive:file_size">46053</property>
  <property name="kdenlive:original.kdenlive:file_hash">9d6a74ba10cde65a72d26c4905c1c482</property>
  <property name="kdenlive:original.backup">1</property>
  <property name="xml">was here</property>
  <property name="meta.media.frame_rate_num">60</property>
  <property name="meta.media.frame_rate_den">1</property>
  <property name="meta.media.colorspace">601</property>
  <property name="meta.media.color_trc">2</property>
  <property name="meta.media.has_b_frames">0</property>
  <property name="meta.media.width">640</property>
  <property name="meta.media.height">360</property>
  <property name="meta.media.color_range">full</property>
  <property name="meta.media.top_field_first">0</property>
  <property name="meta.media.progressive">1</property>
  <property name="set.test_audio">1</property>
  <property name="set.test_image">0</property>
 </producer>
 <producer id="producer636" in="00:00:00.000" out="00:00:00.183">
  <property name="length">12</property>
  <property name="eof">pause</property>
  <property name="resource">/home/xiaoxiae/.cache/kdenlive/proxy/071c3e9781dd6908cdf6b53d914d06ac.mkv</property>
  <property name="audio_index">-1</property>
  <property name="video_index">0</property>
  <property name="mute_on_pause">0</property>
  <property name="mlt_service">avformat-novalidate</property>
  <property name="meta.media.nb_streams">1</property>
  <property name="meta.media.0.stream.type">video</property>
  <property name="meta.media.0.stream.frame_rate">60</property>
  <property name="meta.media.0.stream.sample_aspect_ratio">0</property>
  <property name="meta.media.0.codec.width">640</property>
  <property name="meta.media.0.codec.height">360</property>
  <property name="meta.media.0.codec.rotate">0</property>
  <property name="meta.media.0.codec.pix_fmt">yuvj420p</property>
  <property name="meta.media.0.codec.sample_aspect_ratio">0</property>
  <property name="meta.media.0.codec.colorspace">601</property>
  <property name="meta.media.0.codec.name">mjpeg</property>
  <property name="meta.media.0.codec.long_name">MJPEG (Motion JPEG)</property>
  <property name="meta.media.0.codec.bit_rate">0</property>
  <property name="meta.attr.0.stream.HANDLER_NAME.markup">VideoHandler</property>
  <property name="meta.attr.0.stream.VENDOR_ID.markup">[0][0][0][0]</property>
  <property name="meta.attr.0.stream.ENCODER.markup">Lavc60.3.100 mjpeg</property>
  <property name="meta.attr.0.stream.DURATION.markup">00:00:00.200000000</property>
  <property name="meta.attr.COMMENT.markup">Rendered with Manim Community v0.17.2</property>
  <property name="meta.attr.MAJOR_BRAND.markup">isom</property>
  <property name="meta.attr.MINOR_VERSION.markup">512</property>
  <property name="meta.attr.COMPATIBLE_BRANDS.markup">isomiso2avc1mp41</property>
  <property name="meta.attr.ENCODER.markup">Lavf60.3.100</property>
  <property name="seekable">1</property>
  <property name="meta.media.sample_aspect_num">1</property>
  <property name="meta.media.sample_aspect_den">1</property>
  <property name="aspect_ratio">1</property>
  <property name="format">3</property>
  <property name="kdenlive:clipname">4.mp4</property>
  <property name="kdenlive:clip_type">2</property>
  <property name="kdenlive:folderid">488</property>
  <property name="kdenlive:id">413</property>
  <property name="kdenlive:file_size">54863</property>
  <property name="kdenlive:file_hash">071c3e9781dd6908cdf6b53d914d06ac</property>
  <property name="kdenlive:proxy">/home/xiaoxiae/.cache/kdenlive/proxy/071c3e9781dd6908cdf6b53d914d06ac.mkv</property>
  <property name="kdenlive:originalurl">video/Insertion/4.mp4</property>
  <property name="kdenlive:original.mlt_type">producer</property>
  <property name="kdenlive:original.in">00:00:00.000</property>
  <property name="kdenlive:original.out">00:00:00.183</property>
  <property name="kdenlive:original.length">12</property>
  <property name="kdenlive:original.eof">pause</property>
  <property name="kdenlive:original.resource">video/Insertion/4.mp4</property>
  <property name="kdenlive:original.meta.media.nb_streams">1</property>
  <property name="kdenlive:original.meta.media.0.stream.type">video</property>
  <property name="kdenlive:original.meta.media.0.stream.frame_rate">60</property>
  <property name="kdenlive:original.meta.media.0.stream.sample_aspect_ratio">0</property>
  <property name="kdenlive:original.meta.media.0.codec.width">3840</property>
  <property name="kdenlive:original.meta.media.0.codec.height">2160</property>
  <property name="kdenlive:original.meta.media.0.codec.rotate">0</property>
  <property name="kdenlive:original.meta.media.0.codec.pix_fmt">yuv420p</property>
  <property name="kdenlive:original.meta.media.0.codec.sample_aspect_ratio">0</property>
  <property name="kdenlive:original.meta.media.0.codec.colorspace">709</property>
  <property name="kdenlive:original.meta.media.0.codec.name">h264</property>
  <property name="kdenlive:original.meta.media.0.codec.long_name">H.264 / AVC / MPEG-4 AVC / MPEG-4 part 10</property>
  <property name="kdenlive:original.meta.media.0.codec.bit_rate">2152960</property>
  <property name="kdenlive:original.meta.attr.0.stream.handler_name.markup">VideoHandler</property>
  <property name="kdenlive:original.meta.attr.0.stream.vendor_id.markup">[0][0][0][0]</property>
  <property name="kdenlive:original.meta.attr.0.stream.encoder.markup">Lavc60.3.100 libx264</property>
  <property name="kdenlive:original.meta.attr.major_brand.markup">isom</property>
  <property name="kdenlive:original.meta.attr.minor_version.markup">512</property>
  <property name="kdenlive:original.meta.attr.compatible_brands.markup">isomiso2avc1mp41</property>
  <property name="kdenlive:original.meta.attr.encoder.markup">Lavf60.3.100</property>
  <property name="kdenlive:original.meta.attr.comment.markup">Rendered with Manim Community v0.17.2</property>
  <property name="kdenlive:original.seekable">1</property>
  <property name="kdenlive:original.width">3840</property>
  <property name="kdenlive:original.height">2160</property>
  <property name="kdenlive:original.meta.media.sample_aspect_num">1</property>
  <property name="kdenlive:original.meta.media.sample_aspect_den">1</property>
  <property name="kdenlive:original.aspect_ratio">1</property>
  <property name="kdenlive:original.format">3</property>
  <property name="kdenlive:original.audio_index">-1</property>
  <property name="kdenlive:original.video_index">0</property>
  <property name="kdenlive:original.mute_on_pause">0</property>
  <property name="kdenlive:original.mlt_service">avformat-novalidate</property>
  <property name="kdenlive:original.meta.media.frame_rate_num">60</property>
  <property name="kdenlive:original.meta.media.frame_rate_den">1</property>
  <property name="kdenlive:original.meta.media.colorspace">709</property>
  <property name="kdenlive:original.meta.media.color_trc">2</property>
  <property name="kdenlive:original.meta.media.has_b_frames">2</property>
  <property name="kdenlive:original.meta.media.width">3840</property>
  <property name="kdenlive:original.meta.media.height">2160</property>
  <property name="kdenlive:original.meta.media.color_range">mpeg</property>
  <property name="kdenlive:original.meta.media.top_field_first">0</property>
  <property name="kdenlive:original.meta.media.progressive">1</property>
  <property name="kdenlive:original.kdenlive:clip_type">2</property>
  <property name="kdenlive:original.kdenlive:folderid">488</property>
  <property name="kdenlive:original.kdenlive:id">522</property>
  <property name="kdenlive:original.kdenlive:file_size">54863</property>
  <property name="kdenlive:original.kdenlive:file_hash">071c3e9781dd6908cdf6b53d914d06ac</property>
  <property name="kdenlive:original.backup">1</property>
  <property name="xml">was here</property>
  <property name="meta.media.frame_rate_num">60</property>
  <property name="meta.media.frame_rate_den">1</property>
  <property name="meta.media.colorspace">601</property>
  <property name="meta.media.color_trc">2</property>
  <property name="meta.media.has_b_frames">0</property>
  <property name="meta.media.width">640</property>
  <property name="meta.media.height">360</property>
  <property name="meta.media.color_range">full</property>
  <property name="meta.media.top_field_first">0</property>
  <property name="meta.media.progressive">1</property>
  <property name="set.test_audio">1</property>
  <property name="set.test_image">0</property>
 </producer>
 <producer id="producer637" in="00:00:00.000" out="00:00:00.117">
  <property name="length">8</property>
  <property name="eof">pause</property>
  <property name="resource">/home/xiaoxiae/.cache/kdenlive/proxy/01679bea1a2ec4196239ee867f6892e5.mkv</property>
  <property name="audio_index">-1</property>
  <property name="video_index">0</property>
  <property name="mute_on_pause">0</property>
  <property name="mlt_service">avformat-novalidate</property>
  <property name="meta.media.nb_streams">1</property>
  <property name="meta.media.0.stream.type">video</property>
  <property name="meta.media.0.stream.frame_rate">60</property>
  <property name="meta.media.0.stream.sample_aspect_ratio">0</property>
  <property name="meta.media.0.codec.width">640</property>
  <property name="meta.media.0.codec.height">360</property>
  <property name="meta.media.0.codec.rotate">0</property>
  <property name="meta.media.0.codec.pix_fmt">yuvj420p</property>
  <property name="meta.media.0.codec.sample_aspect_ratio">0</property>
  <property name="meta.media.0.codec.colorspace">601</property>
  <property name="meta.media.0.codec.name">mjpeg</property>
  <property name="meta.media.0.codec.long_name">MJPEG (Motion JPEG)</property>
  <property name="meta.media.0.codec.bit_rate">0</property>
  <property name="meta.attr.0.stream.HANDLER_NAME.markup">VideoHandler</property>
  <property name="meta.attr.0.stream.VENDOR_ID.markup">[0][0][0][0]</property>
  <property name="meta.attr.0.stream.ENCODER.markup">Lavc60.3.100 mjpeg</property>
  <property name="meta.attr.0.stream.DURATION.markup">00:00:00.134000000</property>
  <property name="meta.attr.COMMENT.markup">Rendered with Manim Community v0.17.2</property>
  <property name="meta.attr.MAJOR_BRAND.markup">isom</property>
  <property name="meta.attr.MINOR_VERSION.markup">512</property>
  <property name="meta.attr.COMPATIBLE_BRANDS.markup">isomiso2avc1mp41</property>
  <property name="meta.attr.ENCODER.markup">Lavf60.3.100</property>
  <property name="seekable">1</property>
  <property name="meta.media.sample_aspect_num">1</property>
  <property name="meta.media.sample_aspect_den">1</property>
  <property name="aspect_ratio">1</property>
  <property name="format">3</property>
  <property name="kdenlive:clipname">5.mp4</property>
  <property name="kdenlive:clip_type">2</property>
  <property name="kdenlive:folderid">488</property>
  <property name="kdenlive:id">414</property>
  <property name="kdenlive:file_size">51052</property>
  <property name="kdenlive:file_hash">01679bea1a2ec4196239ee867f6892e5</property>
  <property name="kdenlive:proxy">/home/xiaoxiae/.cache/kdenlive/proxy/01679bea1a2ec4196239ee867f6892e5.mkv</property>
  <property name="kdenlive:originalurl">video/Insertion/5.mp4</property>
  <property name="kdenlive:original.mlt_type">producer</property>
  <property name="kdenlive:original.in">00:00:00.000</property>
  <property name="kdenlive:original.out">00:00:00.117</property>
  <property name="kdenlive:original.length">8</property>
  <property name="kdenlive:original.eof">pause</property>
  <property name="kdenlive:original.resource">video/Insertion/5.mp4</property>
  <property name="kdenlive:original.meta.media.nb_streams">1</property>
  <property name="kdenlive:original.meta.media.0.stream.type">video</property>
  <property name="kdenlive:original.meta.media.0.stream.frame_rate">60</property>
  <property name="kdenlive:original.meta.media.0.stream.sample_aspect_ratio">0</property>
  <property name="kdenlive:original.meta.media.0.codec.width">3840</property>
  <property name="kdenlive:original.meta.media.0.codec.height">2160</property>
  <property name="kdenlive:original.meta.media.0.codec.rotate">0</property>
  <property name="kdenlive:original.meta.media.0.codec.pix_fmt">yuv420p</property>
  <property name="kdenlive:original.meta.media.0.codec.sample_aspect_ratio">0</property>
  <property name="kdenlive:original.meta.media.0.codec.colorspace">709</property>
  <property name="kdenlive:original.meta.media.0.codec.name">h264</property>
  <property name="kdenlive:original.meta.media.0.codec.long_name">H.264 / AVC / MPEG-4 AVC / MPEG-4 part 10</property>
  <property name="kdenlive:original.meta.media.0.codec.bit_rate">3004140</property>
  <property name="kdenlive:original.meta.attr.0.stream.handler_name.markup">VideoHandler</property>
  <property name="kdenlive:original.meta.attr.0.stream.vendor_id.markup">[0][0][0][0]</property>
  <property name="kdenlive:original.meta.attr.0.stream.encoder.markup">Lavc60.3.100 libx264</property>
  <property name="kdenlive:original.meta.attr.major_brand.markup">isom</property>
  <property name="kdenlive:original.meta.attr.minor_version.markup">512</property>
  <property name="kdenlive:original.meta.attr.compatible_brands.markup">isomiso2avc1mp41</property>
  <property name="kdenlive:original.meta.attr.encoder.markup">Lavf60.3.100</property>
  <property name="kdenlive:original.meta.attr.comment.markup">Rendered with Manim Community v0.17.2</property>
  <property name="kdenlive:original.seekable">1</property>
  <property name="kdenlive:original.width">3840</property>
  <property name="kdenlive:original.height">2160</property>
  <property name="kdenlive:original.meta.media.sample_aspect_num">1</property>
  <property name="kdenlive:original.meta.media.sample_aspect_den">1</property>
  <property name="kdenlive:original.aspect_ratio">1</property>
  <property name="kdenlive:original.format">3</property>
  <property name="kdenlive:original.audio_index">-1</property>
  <property name="kdenlive:original.video_index">0</property>
  <property name="kdenlive:original.mute_on_pause">0</property>
  <property name="kdenlive:original.mlt_service">avformat-novalidate</property>
  <property name="kdenlive:original.meta.media.frame_rate_num">60</property>
  <property name="kdenlive:original.meta.media.frame_rate_den">1</property>
  <property name="kdenlive:original.meta.media.colorspace">709</property>
  <property name="kdenlive:original.meta.media.color_trc">2</property>
  <property name="kdenlive:original.meta.media.has_b_frames">2</property>
  <property name="kdenlive:original.meta.media.width">3840</property>
  <property name="kdenlive:original.meta.media.height">2160</property>
  <property name="kdenlive:original.meta.media.color_range">mpeg</property>
  <property name="kdenlive:original.meta.media.top_field_first">0</property>
  <property name="kdenlive:original.meta.media.progressive">1</property>
  <property name="kdenlive:original.kdenlive:clip_type">2</property>
  <property name="kdenlive:original.kdenlive:folderid">488</property>
  <property name="kdenlive:original.kdenlive:id">523</property>
  <property name="kdenlive:original.kdenlive:file_size">51052</property>
  <property name="kdenlive:original.kdenlive:file_hash">01679bea1a2ec4196239ee867f6892e5</property>
  <property name="kdenlive:original.backup">1</property>
  <property name="xml">was here</property>
  <property name="meta.media.frame_rate_num">60</property>
  <property name="meta.media.frame_rate_den">1</property>
  <property name="meta.media.colorspace">601</property>
  <property name="meta.media.color_trc">2</property>
  <property name="meta.media.has_b_frames">0</property>
  <property name="meta.media.width">640</property>
  <property name="meta.media.height">360</property>
  <property name="meta.media.color_range">full</property>
  <property name="meta.media.top_field_first">0</property>
  <property name="meta.media.progressive">1</property>
  <property name="set.test_audio">1</property>
  <property name="set.test_image">0</property>
 </producer>
 <producer id="producer638" in="00:00:00.000" out="00:00:00.117">
  <property name="length">8</property>
  <property name="eof">pause</property>
  <property name="resource">/home/xiaoxiae/.cache/kdenlive/proxy/c0840ec989d595e0be1e7897b3d2234f.mkv</property>
  <property name="audio_index">-1</property>
  <property name="video_index">0</property>
  <property name="mute_on_pause">0</property>
  <property name="mlt_service">avformat-novalidate</property>
  <property name="meta.media.nb_streams">1</property>
  <property name="meta.media.0.stream.type">video</property>
  <property name="meta.media.0.stream.frame_rate">60</property>
  <property name="meta.media.0.stream.sample_aspect_ratio">0</property>
  <property name="meta.media.0.codec.width">640</property>
  <property name="meta.media.0.codec.height">360</property>
  <property name="meta.media.0.codec.rotate">0</property>
  <property name="meta.media.0.codec.pix_fmt">yuvj420p</property>
  <property name="meta.media.0.codec.sample_aspect_ratio">0</property>
  <property name="meta.media.0.codec.colorspace">601</property>
  <property name="meta.media.0.codec.name">mjpeg</property>
  <property name="meta.media.0.codec.long_name">MJPEG (Motion JPEG)</property>
  <property name="meta.media.0.codec.bit_rate">0</property>
  <property name="meta.attr.0.stream.HANDLER_NAME.markup">VideoHandler</property>
  <property name="meta.attr.0.stream.VENDOR_ID.markup">[0][0][0][0]</property>
  <property name="meta.attr.0.stream.ENCODER.markup">Lavc60.3.100 mjpeg</property>
  <property name="meta.attr.0.stream.DURATION.markup">00:00:00.134000000</property>
  <property name="meta.attr.COMMENT.markup">Rendered with Manim Community v0.17.2</property>
  <property name="meta.attr.MAJOR_BRAND.markup">isom</property>
  <property name="meta.attr.MINOR_VERSION.markup">512</property>
  <property name="meta.attr.COMPATIBLE_BRANDS.markup">isomiso2avc1mp41</property>
  <property name="meta.attr.ENCODER.markup">Lavf60.3.100</property>
  <property name="seekable">1</property>
  <property name="meta.media.sample_aspect_num">1</property>
  <property name="meta.media.sample_aspect_den">1</property>
  <property name="aspect_ratio">1</property>
  <property name="format">3</property>
  <property name="kdenlive:clipname">6.mp4</property>
  <property name="kdenlive:clip_type">2</property>
  <property name="kdenlive:folderid">488</property>
  <property name="kdenlive:id">415</property>
  <property name="kdenlive:file_size">46986</property>
  <property name="kdenlive:file_hash">c0840ec989d595e0be1e7897b3d2234f</property>
  <property name="kdenlive:proxy">/home/xiaoxiae/.cache/kdenlive/proxy/c0840ec989d595e0be1e7897b3d2234f.mkv</property>
  <property name="kdenlive:originalurl">video/Insertion/6.mp4</property>
  <property name="kdenlive:original.mlt_type">producer</property>
  <property name="kdenlive:original.in">00:00:00.000</property>
  <property name="kdenlive:original.out">00:00:00.117</property>
  <property name="kdenlive:original.length">8</property>
  <property name="kdenlive:original.eof">pause</property>
  <property name="kdenlive:original.resource">video/Insertion/6.mp4</property>
  <property name="kdenlive:original.meta.media.nb_streams">1</property>
  <property name="kdenlive:original.meta.media.0.stream.type">video</property>
  <property name="kdenlive:original.meta.media.0.stream.frame_rate">60</property>
  <property name="kdenlive:original.meta.media.0.stream.sample_aspect_ratio">0</property>
  <property name="kdenlive:original.meta.media.0.codec.width">3840</property>
  <property name="kdenlive:original.meta.media.0.codec.height">2160</property>
  <property name="kdenlive:original.meta.media.0.codec.rotate">0</property>
  <property name="kdenlive:original.meta.media.0.codec.pix_fmt">yuv420p</property>
  <property name="kdenlive:original.meta.media.0.codec.sample_aspect_ratio">0</property>
  <property name="kdenlive:original.meta.media.0.codec.colorspace">709</property>
  <property name="kdenlive:original.meta.media.0.codec.name">h264</property>
  <property name="kdenlive:original.meta.media.0.codec.long_name">H.264 / AVC / MPEG-4 AVC / MPEG-4 part 10</property>
  <property name="kdenlive:original.meta.media.0.codec.bit_rate">2759220</property>
  <property name="kdenlive:original.meta.attr.0.stream.handler_name.markup">VideoHandler</property>
  <property name="kdenlive:original.meta.attr.0.stream.vendor_id.markup">[0][0][0][0]</property>
  <property name="kdenlive:original.meta.attr.0.stream.encoder.markup">Lavc60.3.100 libx264</property>
  <property name="kdenlive:original.meta.attr.major_brand.markup">isom</property>
  <property name="kdenlive:original.meta.attr.minor_version.markup">512</property>
  <property name="kdenlive:original.meta.attr.compatible_brands.markup">isomiso2avc1mp41</property>
  <property name="kdenlive:original.meta.attr.encoder.markup">Lavf60.3.100</property>
  <property name="kdenlive:original.meta.attr.comment.markup">Rendered with Manim Community v0.17.2</property>
  <property name="kdenlive:original.seekable">1</property>
  <property name="kdenlive:original.width">3840</property>
  <property name="kdenlive:original.height">2160</property>
  <property name="kdenlive:original.meta.media.sample_aspect_num">1</property>
  <property name="kdenlive:original.meta.media.sample_aspect_den">1</property>
  <property name="kdenlive:original.aspect_ratio">1</property>
  <property name="kdenlive:original.format">3</property>
  <property name="kdenlive:original.audio_index">-1</property>
  <property name="kdenlive:original.video_index">0</property>
  <property name="kdenlive:original.mute_on_pause">0</property>
  <property name="kdenlive:original.mlt_service">avformat-novalidate</property>
  <property name="kdenlive:original.meta.media.frame_rate_num">60</property>
  <property name="kdenlive:original.meta.media.frame_rate_den">1</property>
  <property name="kdenlive:original.meta.media.colorspace">709</property>
  <property name="kdenlive:original.meta.media.color_trc">2</property>
  <property name="kdenlive:original.meta.media.has_b_frames">2</property>
  <property name="kdenlive:original.meta.media.width">3840</property>
  <property name="kdenlive:original.meta.media.height">2160</property>
  <property name="kdenlive:original.meta.media.color_range">mpeg</property>
  <property name="kdenlive:original.meta.media.top_field_first">0</property>
  <property name="kdenlive:original.meta.media.progressive">1</property>
  <property name="kdenlive:original.kdenlive:clip_type">2</property>
  <property name="kdenlive:original.kdenlive:folderid">488</property>
  <property name="kdenlive:original.kdenlive:id">524</property>
  <property name="kdenlive:original.kdenlive:file_size">46986</property>
  <property name="kdenlive:original.kdenlive:file_hash">c0840ec989d595e0be1e7897b3d2234f</property>
  <property name="kdenlive:original.backup">1</property>
  <property name="xml">was here</property>
  <property name="meta.media.frame_rate_num">60</property>
  <property name="meta.media.frame_rate_den">1</property>
  <property name="meta.media.colorspace">601</property>
  <property name="meta.media.color_trc">2</property>
  <property name="meta.media.has_b_frames">0</property>
  <property name="meta.media.width">640</property>
  <property name="meta.media.height">360</property>
  <property name="meta.media.color_range">full</property>
  <property name="meta.media.top_field_first">0</property>
  <property name="meta.media.progressive">1</property>
  <property name="set.test_audio">1</property>
  <property name="set.test_image">0</property>
 </producer>
 <producer id="producer639" in="00:00:00.000" out="00:00:00.117">
  <property name="length">8</property>
  <property name="eof">pause</property>
  <property name="resource">/home/xiaoxiae/.cache/kdenlive/proxy/28abeb686168d4123f5c3a93f190eeea.mkv</property>
  <property name="audio_index">-1</property>
  <property name="video_index">0</property>
  <property name="mute_on_pause">0</property>
  <property name="mlt_service">avformat-novalidate</property>
  <property name="meta.media.nb_streams">1</property>
  <property name="meta.media.0.stream.type">video</property>
  <property name="meta.media.0.stream.frame_rate">60</property>
  <property name="meta.media.0.stream.sample_aspect_ratio">0</property>
  <property name="meta.media.0.codec.width">640</property>
  <property name="meta.media.0.codec.height">360</property>
  <property name="meta.media.0.codec.rotate">0</property>
  <property name="meta.media.0.codec.pix_fmt">yuvj420p</property>
  <property name="meta.media.0.codec.sample_aspect_ratio">0</property>
  <property name="meta.media.0.codec.colorspace">601</property>
  <property name="meta.media.0.codec.name">mjpeg</property>
  <property name="meta.media.0.codec.long_name">MJPEG (Motion JPEG)</property>
  <property name="meta.media.0.codec.bit_rate">0</property>
  <property name="meta.attr.0.stream.HANDLER_NAME.markup">VideoHandler</property>
  <property name="meta.attr.0.stream.VENDOR_ID.markup">[0][0][0][0]</property>
  <property name="meta.attr.0.stream.ENCODER.markup">Lavc60.3.100 mjpeg</property>
  <property name="meta.attr.0.stream.DURATION.markup">00:00:00.134000000</property>
  <property name="meta.attr.COMMENT.markup">Rendered with Manim Community v0.17.2</property>
  <property name="meta.attr.MAJOR_BRAND.markup">isom</property>
  <property name="meta.attr.MINOR_VERSION.markup">512</property>
  <property name="meta.attr.COMPATIBLE_BRANDS.markup">isomiso2avc1mp41</property>
  <property name="meta.attr.ENCODER.markup">Lavf60.3.100</property>
  <property name="seekable">1</property>
  <property name="meta.media.sample_aspect_num">1</property>
  <property name="meta.media.sample_aspect_den">1</property>
  <property name="aspect_ratio">1</property>
  <property name="format">3</property>
  <property name="kdenlive:clipname">7.mp4</property>
  <property name="kdenlive:clip_type">2</property>
  <property name="kdenlive:folderid">488</property>
  <property name="kdenlive:id">416</property>
  <property name="kdenlive:file_size">50130</property>
  <property name="kdenlive:file_hash">28abeb686168d4123f5c3a93f190eeea</property>
  <property name="kdenlive:proxy">/home/xiaoxiae/.cache/kdenlive/proxy/28abeb686168d4123f5c3a93f190eeea.mkv</property>
  <property name="kdenlive:originalurl">video/Insertion/7.mp4</property>
  <property name="kdenlive:original.mlt_type">producer</property>
  <property name="kdenlive:original.in">00:00:00.000</property>
  <property name="kdenlive:original.out">00:00:00.117</property>
  <property name="kdenlive:original.length">8</property>
  <property name="kdenlive:original.eof">pause</property>
  <property name="kdenlive:original.resource">video/Insertion/7.mp4</property>
  <property name="kdenlive:original.meta.media.nb_streams">1</property>
  <property name="kdenlive:original.meta.media.0.stream.type">video</property>
  <property name="kdenlive:original.meta.media.0.stream.frame_rate">60</property>
  <property name="kdenlive:original.meta.media.0.stream.sample_aspect_ratio">0</property>
  <property name="kdenlive:original.meta.media.0.codec.width">3840</property>
  <property name="kdenlive:original.meta.media.0.codec.height">2160</property>
  <property name="kdenlive:original.meta.media.0.codec.rotate">0</property>
  <property name="kdenlive:original.meta.media.0.codec.pix_fmt">yuv420p</property>
  <property name="kdenlive:original.meta.media.0.codec.sample_aspect_ratio">0</property>
  <property name="kdenlive:original.meta.media.0.codec.colorspace">709</property>
  <property name="kdenlive:original.meta.media.0.codec.name">h264</property>
  <property name="kdenlive:original.meta.media.0.codec.long_name">H.264 / AVC / MPEG-4 AVC / MPEG-4 part 10</property>
  <property name="kdenlive:original.meta.media.0.codec.bit_rate">2947860</property>
  <property name="kdenlive:original.meta.attr.0.stream.handler_name.markup">VideoHandler</property>
  <property name="kdenlive:original.meta.attr.0.stream.vendor_id.markup">[0][0][0][0]</property>
  <property name="kdenlive:original.meta.attr.0.stream.encoder.markup">Lavc60.3.100 libx264</property>
  <property name="kdenlive:original.meta.attr.major_brand.markup">isom</property>
  <property name="kdenlive:original.meta.attr.minor_version.markup">512</property>
  <property name="kdenlive:original.meta.attr.compatible_brands.markup">isomiso2avc1mp41</property>
  <property name="kdenlive:original.meta.attr.encoder.markup">Lavf60.3.100</property>
  <property name="kdenlive:original.meta.attr.comment.markup">Rendered with Manim Community v0.17.2</property>
  <property name="kdenlive:original.seekable">1</property>
  <property name="kdenlive:original.width">3840</property>
  <property name="kdenlive:original.height">2160</property>
  <property name="kdenlive:original.meta.media.sample_aspect_num">1</property>
  <property name="kdenlive:original.meta.media.sample_aspect_den">1</property>
  <property name="kdenlive:original.aspect_ratio">1</property>
  <property name="kdenlive:original.format">3</property>
  <property name="kdenlive:original.audio_index">-1</property>
  <property name="kdenlive:original.video_index">0</property>
  <property name="kdenlive:original.mute_on_pause">0</property>
  <property name="kdenlive:original.mlt_service">avformat-novalidate</property>
  <property name="kdenlive:original.meta.media.frame_rate_num">60</property>
  <property name="kdenlive:original.meta.media.frame_rate_den">1</property>
  <property name="kdenlive:original.meta.media.colorspace">709</property>
  <property name="kdenlive:original.meta.media.color_trc">2</property>
  <property name="kdenlive:original.meta.media.has_b_frames">2</property>
  <property name="kdenlive:original.meta.media.width">3840</property>
  <property name="kdenlive:original.meta.media.height">2160</property>
  <property name="kdenlive:original.meta.media.color_range">mpeg</property>
  <property name="kdenlive:original.meta.media.top_field_first">0</property>
  <property name="kdenlive:original.meta.media.progressive">1</property>
  <property name="kdenlive:original.kdenlive:clip_type">2</property>
  <property name="kdenlive:original.kdenlive:folderid">488</property>
  <property name="kdenlive:original.kdenlive:id">525</property>
  <property name="kdenlive:original.kdenlive:file_size">50130</property>
  <property name="kdenlive:original.kdenlive:file_hash">28abeb686168d4123f5c3a93f190eeea</property>
  <property name="kdenlive:original.backup">1</property>
  <property name="xml">was here</property>
  <property name="meta.media.frame_rate_num">60</property>
  <property name="meta.media.frame_rate_den">1</property>
  <property name="meta.media.colorspace">601</property>
  <property name="meta.media.color_trc">2</property>
  <property name="meta.media.has_b_frames">0</property>
  <property name="meta.media.width">640</property>
  <property name="meta.media.height">360</property>
  <property name="meta.media.color_range">full</property>
  <property name="meta.media.top_field_first">0</property>
  <property name="meta.media.progressive">1</property>
  <property name="set.test_audio">1</property>
  <property name="set.test_image">0</property>
 </producer>
 <producer id="producer640" in="00:00:00.000" out="00:00:00.117">
  <property name="length">8</property>
  <property name="eof">pause</property>
  <property name="resource">/home/xiaoxiae/.cache/kdenlive/proxy/efffeddb8e946035eeee14adf01cab89.mkv</property>
  <property name="audio_index">-1</property>
  <property name="video_index">0</property>
  <property name="mute_on_pause">0</property>
  <property name="mlt_service">avformat-novalidate</property>
  <property name="meta.media.nb_streams">1</property>
  <property name="meta.media.0.stream.type">video</property>
  <property name="meta.media.0.stream.frame_rate">60</property>
  <property name="meta.media.0.stream.sample_aspect_ratio">0</property>
  <property name="meta.media.0.codec.width">640</property>
  <property name="meta.media.0.codec.height">360</property>
  <property name="meta.media.0.codec.rotate">0</property>
  <property name="meta.media.0.codec.pix_fmt">yuvj420p</property>
  <property name="meta.media.0.codec.sample_aspect_ratio">0</property>
  <property name="meta.media.0.codec.colorspace">601</property>
  <property name="meta.media.0.codec.name">mjpeg</property>
  <property name="meta.media.0.codec.long_name">MJPEG (Motion JPEG)</property>
  <property name="meta.media.0.codec.bit_rate">0</property>
  <property name="meta.attr.0.stream.HANDLER_NAME.markup">VideoHandler</property>
  <property name="meta.attr.0.stream.VENDOR_ID.markup">[0][0][0][0]</property>
  <property name="meta.attr.0.stream.ENCODER.markup">Lavc60.3.100 mjpeg</property>
  <property name="meta.attr.0.stream.DURATION.markup">00:00:00.134000000</property>
  <property name="meta.attr.COMMENT.markup">Rendered with Manim Community v0.17.2</property>
  <property name="meta.attr.MAJOR_BRAND.markup">isom</property>
  <property name="meta.attr.MINOR_VERSION.markup">512</property>
  <property name="meta.attr.COMPATIBLE_BRANDS.markup">isomiso2avc1mp41</property>
  <property name="meta.attr.ENCODER.markup">Lavf60.3.100</property>
  <property name="seekable">1</property>
  <property name="meta.media.sample_aspect_num">1</property>
  <property name="meta.media.sample_aspect_den">1</property>
  <property name="aspect_ratio">1</property>
  <property name="format">3</property>
  <property name="kdenlive:clipname">8.mp4</property>
  <property name="kdenlive:clip_type">2</property>
  <property name="kdenlive:folderid">488</property>
  <property name="kdenlive:id">417</property>
  <property name="kdenlive:file_size">53002</property>
  <property name="kdenlive:file_hash">efffeddb8e946035eeee14adf01cab89</property>
  <property name="kdenlive:proxy">/home/xiaoxiae/.cache/kdenlive/proxy/efffeddb8e946035eeee14adf01cab89.mkv</property>
  <property name="kdenlive:originalurl">video/Insertion/8.mp4</property>
  <property name="kdenlive:original.mlt_type">producer</property>
  <property name="kdenlive:original.in">00:00:00.000</property>
  <property name="kdenlive:original.out">00:00:00.117</property>
  <property name="kdenlive:original.length">8</property>
  <property name="kdenlive:original.eof">pause</property>
  <property name="kdenlive:original.resource">video/Insertion/8.mp4</property>
  <property name="kdenlive:original.meta.media.nb_streams">1</property>
  <property name="kdenlive:original.meta.media.0.stream.type">video</property>
  <property name="kdenlive:original.meta.media.0.stream.frame_rate">60</property>
  <property name="kdenlive:original.meta.media.0.stream.sample_aspect_ratio">0</property>
  <property name="kdenlive:original.meta.media.0.codec.width">3840</property>
  <property name="kdenlive:original.meta.media.0.codec.height">2160</property>
  <property name="kdenlive:original.meta.media.0.codec.rotate">0</property>
  <property name="kdenlive:original.meta.media.0.codec.pix_fmt">yuv420p</property>
  <property name="kdenlive:original.meta.media.0.codec.sample_aspect_ratio">0</property>
  <property name="kdenlive:original.meta.media.0.codec.colorspace">709</property>
  <property name="kdenlive:original.meta.media.0.codec.name">h264</property>
  <property name="kdenlive:original.meta.media.0.codec.long_name">H.264 / AVC / MPEG-4 AVC / MPEG-4 part 10</property>
  <property name="kdenlive:original.meta.media.0.codec.bit_rate">3119700</property>
  <property name="kdenlive:original.meta.attr.0.stream.handler_name.markup">VideoHandler</property>
  <property name="kdenlive:original.meta.attr.0.stream.vendor_id.markup">[0][0][0][0]</property>
  <property name="kdenlive:original.meta.attr.0.stream.encoder.markup">Lavc60.3.100 libx264</property>
  <property name="kdenlive:original.meta.attr.major_brand.markup">isom</property>
  <property name="kdenlive:original.meta.attr.minor_version.markup">512</property>
  <property name="kdenlive:original.meta.attr.compatible_brands.markup">isomiso2avc1mp41</property>
  <property name="kdenlive:original.meta.attr.encoder.markup">Lavf60.3.100</property>
  <property name="kdenlive:original.meta.attr.comment.markup">Rendered with Manim Community v0.17.2</property>
  <property name="kdenlive:original.seekable">1</property>
  <property name="kdenlive:original.width">3840</property>
  <property name="kdenlive:original.height">2160</property>
  <property name="kdenlive:original.meta.media.sample_aspect_num">1</property>
  <property name="kdenlive:original.meta.media.sample_aspect_den">1</property>
  <property name="kdenlive:original.aspect_ratio">1</property>
  <property name="kdenlive:original.format">3</property>
  <property name="kdenlive:original.audio_index">-1</property>
  <property name="kdenlive:original.video_index">0</property>
  <property name="kdenlive:original.mute_on_pause">0</property>
  <property name="kdenlive:original.mlt_service">avformat-novalidate</property>
  <property name="kdenlive:original.meta.media.frame_rate_num">60</property>
  <property name="kdenlive:original.meta.media.frame_rate_den">1</property>
  <property name="kdenlive:original.meta.media.colorspace">709</property>
  <property name="kdenlive:original.meta.media.color_trc">2</property>
  <property name="kdenlive:original.meta.media.has_b_frames">2</property>
  <property name="kdenlive:original.meta.media.width">3840</property>
  <property name="kdenlive:original.meta.media.height">2160</property>
  <property name="kdenlive:original.meta.media.color_range">mpeg</property>
  <property name="kdenlive:original.meta.media.top_field_first">0</property>
  <property name="kdenlive:original.meta.media.progressive">1</property>
  <property name="kdenlive:original.kdenlive:clip_type">2</property>
  <property name="kdenlive:original.kdenlive:folderid">488</property>
  <property name="kdenlive:original.kdenlive:id">526</property>
  <property name="kdenlive:original.kdenlive:file_size">53002</property>
  <property name="kdenlive:original.kdenlive:file_hash">efffeddb8e946035eeee14adf01cab89</property>
  <property name="kdenlive:original.backup">1</property>
  <property name="xml">was here</property>
  <property name="meta.media.frame_rate_num">60</property>
  <property name="meta.media.frame_rate_den">1</property>
  <property name="meta.media.colorspace">601</property>
  <property name="meta.media.color_trc">2</property>
  <property name="meta.media.has_b_frames">0</property>
  <property name="meta.media.width">640</property>
  <property name="meta.media.height">360</property>
  <property name="meta.media.color_range">full</property>
  <property name="meta.media.top_field_first">0</property>
  <property name="meta.media.progressive">1</property>
  <property name="set.test_audio">1</property>
  <property name="set.test_image">0</property>
 </producer>
 <producer id="producer641" in="00:00:00.000" out="00:00:00.183">
  <property name="length">12</property>
  <property name="eof">pause</property>
  <property name="resource">/home/xiaoxiae/.cache/kdenlive/proxy/5978ae6d3338e87cc47fc4797e503c97.mkv</property>
  <property name="audio_index">-1</property>
  <property name="video_index">0</property>
  <property name="mute_on_pause">0</property>
  <property name="mlt_service">avformat-novalidate</property>
  <property name="meta.media.nb_streams">1</property>
  <property name="meta.media.0.stream.type">video</property>
  <property name="meta.media.0.stream.frame_rate">60</property>
  <property name="meta.media.0.stream.sample_aspect_ratio">0</property>
  <property name="meta.media.0.codec.width">640</property>
  <property name="meta.media.0.codec.height">360</property>
  <property name="meta.media.0.codec.rotate">0</property>
  <property name="meta.media.0.codec.pix_fmt">yuvj420p</property>
  <property name="meta.media.0.codec.sample_aspect_ratio">0</property>
  <property name="meta.media.0.codec.colorspace">601</property>
  <property name="meta.media.0.codec.name">mjpeg</property>
  <property name="meta.media.0.codec.long_name">MJPEG (Motion JPEG)</property>
  <property name="meta.media.0.codec.bit_rate">0</property>
  <property name="meta.attr.0.stream.HANDLER_NAME.markup">VideoHandler</property>
  <property name="meta.attr.0.stream.VENDOR_ID.markup">[0][0][0][0]</property>
  <property name="meta.attr.0.stream.ENCODER.markup">Lavc60.3.100 mjpeg</property>
  <property name="meta.attr.0.stream.DURATION.markup">00:00:00.200000000</property>
  <property name="meta.attr.COMMENT.markup">Rendered with Manim Community v0.17.2</property>
  <property name="meta.attr.MAJOR_BRAND.markup">isom</property>
  <property name="meta.attr.MINOR_VERSION.markup">512</property>
  <property name="meta.attr.COMPATIBLE_BRANDS.markup">isomiso2avc1mp41</property>
  <property name="meta.attr.ENCODER.markup">Lavf60.3.100</property>
  <property name="seekable">1</property>
  <property name="meta.media.sample_aspect_num">1</property>
  <property name="meta.media.sample_aspect_den">1</property>
  <property name="aspect_ratio">1</property>
  <property name="format">3</property>
  <property name="kdenlive:clipname">9.mp4</property>
  <property name="kdenlive:clip_type">2</property>
  <property name="kdenlive:folderid">488</property>
  <property name="kdenlive:id">418</property>
  <property name="kdenlive:file_size">79084</property>
  <property name="kdenlive:file_hash">5978ae6d3338e87cc47fc4797e503c97</property>
  <property name="kdenlive:proxy">/home/xiaoxiae/.cache/kdenlive/proxy/5978ae6d3338e87cc47fc4797e503c97.mkv</property>
  <property name="kdenlive:originalurl">video/Insertion/9.mp4</property>
  <property name="kdenlive:original.mlt_type">producer</property>
  <property name="kdenlive:original.in">00:00:00.000</property>
  <property name="kdenlive:original.out">00:00:00.183</property>
  <property name="kdenlive:original.length">12</property>
  <property name="kdenlive:original.eof">pause</property>
  <property name="kdenlive:original.resource">video/Insertion/9.mp4</property>
  <property name="kdenlive:original.meta.media.nb_streams">1</property>
  <property name="kdenlive:original.meta.media.0.stream.type">video</property>
  <property name="kdenlive:original.meta.media.0.stream.frame_rate">60</property>
  <property name="kdenlive:original.meta.media.0.stream.sample_aspect_ratio">0</property>
  <property name="kdenlive:original.meta.media.0.codec.width">3840</property>
  <property name="kdenlive:original.meta.media.0.codec.height">2160</property>
  <property name="kdenlive:original.meta.media.0.codec.rotate">0</property>
  <property name="kdenlive:original.meta.media.0.codec.pix_fmt">yuv420p</property>
  <property name="kdenlive:original.meta.media.0.codec.sample_aspect_ratio">0</property>
  <property name="kdenlive:original.meta.media.0.codec.colorspace">709</property>
  <property name="kdenlive:original.meta.media.0.codec.name">h264</property>
  <property name="kdenlive:original.meta.media.0.codec.long_name">H.264 / AVC / MPEG-4 AVC / MPEG-4 part 10</property>
  <property name="kdenlive:original.meta.media.0.codec.bit_rate">3121160</property>
  <property name="kdenlive:original.meta.attr.0.stream.handler_name.markup">VideoHandler</property>
  <property name="kdenlive:original.meta.attr.0.stream.vendor_id.markup">[0][0][0][0]</property>
  <property name="kdenlive:original.meta.attr.0.stream.encoder.markup">Lavc60.3.100 libx264</property>
  <property name="kdenlive:original.meta.attr.major_brand.markup">isom</property>
  <property name="kdenlive:original.meta.attr.minor_version.markup">512</property>
  <property name="kdenlive:original.meta.attr.compatible_brands.markup">isomiso2avc1mp41</property>
  <property name="kdenlive:original.meta.attr.encoder.markup">Lavf60.3.100</property>
  <property name="kdenlive:original.meta.attr.comment.markup">Rendered with Manim Community v0.17.2</property>
  <property name="kdenlive:original.seekable">1</property>
  <property name="kdenlive:original.width">3840</property>
  <property name="kdenlive:original.height">2160</property>
  <property name="kdenlive:original.meta.media.sample_aspect_num">1</property>
  <property name="kdenlive:original.meta.media.sample_aspect_den">1</property>
  <property name="kdenlive:original.aspect_ratio">1</property>
  <property name="kdenlive:original.format">3</property>
  <property name="kdenlive:original.audio_index">-1</property>
  <property name="kdenlive:original.video_index">0</property>
  <property name="kdenlive:original.mute_on_pause">0</property>
  <property name="kdenlive:original.mlt_service">avformat-novalidate</property>
  <property name="kdenlive:original.meta.media.frame_rate_num">60</property>
  <property name="kdenlive:original.meta.media.frame_rate_den">1</property>
  <property name="kdenlive:original.meta.media.colorspace">709</property>
  <property name="kdenlive:original.meta.media.color_trc">2</property>
  <property name="kdenlive:original.meta.media.has_b_frames">2</property>
  <property name="kdenlive:original.meta.media.width">3840</property>
  <property name="kdenlive:original.meta.media.height">2160</property>
  <property name="kdenlive:original.meta.media.color_range">mpeg</property>
  <property name="kdenlive:original.meta.media.top_field_first">0</property>
  <property name="kdenlive:original.meta.media.progressive">1</property>
  <property name="kdenlive:original.kdenlive:clip_type">2</property>
  <property name="kdenlive:original.kdenlive:folderid">488</property>
  <property name="kdenlive:original.kdenlive:id">527</property>
  <property name="kdenlive:original.kdenlive:file_size">79084</property>
  <property name="kdenlive:original.kdenlive:file_hash">5978ae6d3338e87cc47fc4797e503c97</property>
  <property name="kdenlive:original.backup">1</property>
  <property name="xml">was here</property>
  <property name="meta.media.frame_rate_num">60</property>
  <property name="meta.media.frame_rate_den">1</property>
  <property name="meta.media.colorspace">601</property>
  <property name="meta.media.color_trc">2</property>
  <property name="meta.media.has_b_frames">0</property>
  <property name="meta.media.width">640</property>
  <property name="meta.media.height">360</property>
  <property name="meta.media.color_range">full</property>
  <property name="meta.media.top_field_first">0</property>
  <property name="meta.media.progressive">1</property>
  <property name="set.test_audio">1</property>
  <property name="set.test_image">0</property>
 </producer>
 <producer id="producer642" in="00:00:00.000" out="00:00:00.183">
  <property name="length">12</property>
  <property name="eof">pause</property>
  <property name="resource">/home/xiaoxiae/.cache/kdenlive/proxy/e7b5a642957cd159892c0e7e428fd6fe.mkv</property>
  <property name="audio_index">-1</property>
  <property name="video_index">0</property>
  <property name="mute_on_pause">0</property>
  <property name="mlt_service">avformat-novalidate</property>
  <property name="meta.media.nb_streams">1</property>
  <property name="meta.media.0.stream.type">video</property>
  <property name="meta.media.0.stream.frame_rate">60</property>
  <property name="meta.media.0.stream.sample_aspect_ratio">0</property>
  <property name="meta.media.0.codec.width">640</property>
  <property name="meta.media.0.codec.height">360</property>
  <property name="meta.media.0.codec.rotate">0</property>
  <property name="meta.media.0.codec.pix_fmt">yuvj420p</property>
  <property name="meta.media.0.codec.sample_aspect_ratio">0</property>
  <property name="meta.media.0.codec.colorspace">601</property>
  <property name="meta.media.0.codec.name">mjpeg</property>
  <property name="meta.media.0.codec.long_name">MJPEG (Motion JPEG)</property>
  <property name="meta.media.0.codec.bit_rate">0</property>
  <property name="meta.attr.0.stream.HANDLER_NAME.markup">VideoHandler</property>
  <property name="meta.attr.0.stream.VENDOR_ID.markup">[0][0][0][0]</property>
  <property name="meta.attr.0.stream.ENCODER.markup">Lavc60.3.100 mjpeg</property>
  <property name="meta.attr.0.stream.DURATION.markup">00:00:00.200000000</property>
  <property name="meta.attr.COMMENT.markup">Rendered with Manim Community v0.17.2</property>
  <property name="meta.attr.MAJOR_BRAND.markup">isom</property>
  <property name="meta.attr.MINOR_VERSION.markup">512</property>
  <property name="meta.attr.COMPATIBLE_BRANDS.markup">isomiso2avc1mp41</property>
  <property name="meta.attr.ENCODER.markup">Lavf60.3.100</property>
  <property name="seekable">1</property>
  <property name="meta.media.sample_aspect_num">1</property>
  <property name="meta.media.sample_aspect_den">1</property>
  <property name="aspect_ratio">1</property>
  <property name="format">3</property>
  <property name="kdenlive:clipname">10.mp4</property>
  <property name="kdenlive:clip_type">2</property>
  <property name="kdenlive:folderid">488</property>
  <property name="kdenlive:id">381</property>
  <property name="kdenlive:file_size">36672</property>
  <property name="kdenlive:file_hash">e7b5a642957cd159892c0e7e428fd6fe</property>
  <property name="kdenlive:proxy">/home/xiaoxiae/.cache/kdenlive/proxy/e7b5a642957cd159892c0e7e428fd6fe.mkv</property>
  <property name="kdenlive:originalurl">video/Insertion/10.mp4</property>
  <property name="kdenlive:original.mlt_type">producer</property>
  <property name="kdenlive:original.in">00:00:00.000</property>
  <property name="kdenlive:original.out">00:00:00.183</property>
  <property name="kdenlive:original.length">12</property>
  <property name="kdenlive:original.eof">pause</property>
  <property name="kdenlive:original.resource">video/Insertion/10.mp4</property>
  <property name="kdenlive:original.meta.media.nb_streams">1</property>
  <property name="kdenlive:original.meta.media.0.stream.type">video</property>
  <property name="kdenlive:original.meta.media.0.stream.frame_rate">60</property>
  <property name="kdenlive:original.meta.media.0.stream.sample_aspect_ratio">0</property>
  <property name="kdenlive:original.meta.media.0.codec.width">3840</property>
  <property name="kdenlive:original.meta.media.0.codec.height">2160</property>
  <property name="kdenlive:original.meta.media.0.codec.rotate">0</property>
  <property name="kdenlive:original.meta.media.0.codec.pix_fmt">yuv420p</property>
  <property name="kdenlive:original.meta.media.0.codec.sample_aspect_ratio">0</property>
  <property name="kdenlive:original.meta.media.0.codec.colorspace">709</property>
  <property name="kdenlive:original.meta.media.0.codec.name">h264</property>
  <property name="kdenlive:original.meta.media.0.codec.long_name">H.264 / AVC / MPEG-4 AVC / MPEG-4 part 10</property>
  <property name="kdenlive:original.meta.media.0.codec.bit_rate">1424680</property>
  <property name="kdenlive:original.meta.attr.0.stream.handler_name.markup">VideoHandler</property>
  <property name="kdenlive:original.meta.attr.0.stream.vendor_id.markup">[0][0][0][0]</property>
  <property name="kdenlive:original.meta.attr.0.stream.encoder.markup">Lavc60.3.100 libx264</property>
  <property name="kdenlive:original.meta.attr.major_brand.markup">isom</property>
  <property name="kdenlive:original.meta.attr.minor_version.markup">512</property>
  <property name="kdenlive:original.meta.attr.compatible_brands.markup">isomiso2avc1mp41</property>
  <property name="kdenlive:original.meta.attr.encoder.markup">Lavf60.3.100</property>
  <property name="kdenlive:original.meta.attr.comment.markup">Rendered with Manim Community v0.17.2</property>
  <property name="kdenlive:original.seekable">1</property>
  <property name="kdenlive:original.width">3840</property>
  <property name="kdenlive:original.height">2160</property>
  <property name="kdenlive:original.meta.media.sample_aspect_num">1</property>
  <property name="kdenlive:original.meta.media.sample_aspect_den">1</property>
  <property name="kdenlive:original.aspect_ratio">1</property>
  <property name="kdenlive:original.format">3</property>
  <property name="kdenlive:original.audio_index">-1</property>
  <property name="kdenlive:original.video_index">0</property>
  <property name="kdenlive:original.mute_on_pause">0</property>
  <property name="kdenlive:original.mlt_service">avformat-novalidate</property>
  <property name="kdenlive:original.meta.media.frame_rate_num">60</property>
  <property name="kdenlive:original.meta.media.frame_rate_den">1</property>
  <property name="kdenlive:original.meta.media.colorspace">709</property>
  <property name="kdenlive:original.meta.media.color_trc">2</property>
  <property name="kdenlive:original.meta.media.has_b_frames">2</property>
  <property name="kdenlive:original.meta.media.width">3840</property>
  <property name="kdenlive:original.meta.media.height">2160</property>
  <property name="kdenlive:original.meta.media.color_range">mpeg</property>
  <property name="kdenlive:original.meta.media.top_field_first">0</property>
  <property name="kdenlive:original.meta.media.progressive">1</property>
  <property name="kdenlive:original.kdenlive:clip_type">2</property>
  <property name="kdenlive:original.kdenlive:folderid">488</property>
  <property name="kdenlive:original.kdenlive:id">490</property>
  <property name="kdenlive:original.kdenlive:file_size">36672</property>
  <property name="kdenlive:original.kdenlive:file_hash">e7b5a642957cd159892c0e7e428fd6fe</property>
  <property name="kdenlive:original.backup">1</property>
  <property name="xml">was here</property>
  <property name="meta.media.frame_rate_num">60</property>
  <property name="meta.media.frame_rate_den">1</property>
  <property name="meta.media.colorspace">601</property>
  <property name="meta.media.color_trc">2</property>
  <property name="meta.media.has_b_frames">0</property>
  <property name="meta.media.width">640</property>
  <property name="meta.media.height">360</property>
  <property name="meta.media.color_range">full</property>
  <property name="meta.media.top_field_first">0</property>
  <property name="meta.media.progressive">1</property>
  <property name="set.test_audio">1</property>
  <property name="set.test_image">0</property>
 </producer>
 <producer id="producer643" in="00:00:00.000" out="00:00:00.183">
  <property name="length">12</property>
  <property name="eof">pause</property>
  <property name="resource">/home/xiaoxiae/.cache/kdenlive/proxy/b7c80d8b199b11be04ae88513e32a337.mkv</property>
  <property name="audio_index">-1</property>
  <property name="video_index">0</property>
  <property name="mute_on_pause">0</property>
  <property name="mlt_service">avformat-novalidate</property>
  <property name="meta.media.nb_streams">1</property>
  <property name="meta.media.0.stream.type">video</property>
  <property name="meta.media.0.stream.frame_rate">60</property>
  <property name="meta.media.0.stream.sample_aspect_ratio">0</property>
  <property name="meta.media.0.codec.width">640</property>
  <property name="meta.media.0.codec.height">360</property>
  <property name="meta.media.0.codec.rotate">0</property>
  <property name="meta.media.0.codec.pix_fmt">yuvj420p</property>
  <property name="meta.media.0.codec.sample_aspect_ratio">0</property>
  <property name="meta.media.0.codec.colorspace">601</property>
  <property name="meta.media.0.codec.name">mjpeg</property>
  <property name="meta.media.0.codec.long_name">MJPEG (Motion JPEG)</property>
  <property name="meta.media.0.codec.bit_rate">0</property>
  <property name="meta.attr.0.stream.HANDLER_NAME.markup">VideoHandler</property>
  <property name="meta.attr.0.stream.VENDOR_ID.markup">[0][0][0][0]</property>
  <property name="meta.attr.0.stream.ENCODER.markup">Lavc60.3.100 mjpeg</property>
  <property name="meta.attr.0.stream.DURATION.markup">00:00:00.200000000</property>
  <property name="meta.attr.COMMENT.markup">Rendered with Manim Community v0.17.2</property>
  <property name="meta.attr.MAJOR_BRAND.markup">isom</property>
  <property name="meta.attr.MINOR_VERSION.markup">512</property>
  <property name="meta.attr.COMPATIBLE_BRANDS.markup">isomiso2avc1mp41</property>
  <property name="meta.attr.ENCODER.markup">Lavf60.3.100</property>
  <property name="seekable">1</property>
  <property name="meta.media.sample_aspect_num">1</property>
  <property name="meta.media.sample_aspect_den">1</property>
  <property name="aspect_ratio">1</property>
  <property name="format">3</property>
  <property name="kdenlive:clipname">11.mp4</property>
  <property name="kdenlive:clip_type">2</property>
  <property name="kdenlive:folderid">488</property>
  <property name="kdenlive:id">382</property>
  <property name="kdenlive:file_size">38839</property>
  <property name="kdenlive:file_hash">b7c80d8b199b11be04ae88513e32a337</property>
  <property name="kdenlive:proxy">/home/xiaoxiae/.cache/kdenlive/proxy/b7c80d8b199b11be04ae88513e32a337.mkv</property>
  <property name="kdenlive:originalurl">video/Insertion/11.mp4</property>
  <property name="kdenlive:original.mlt_type">producer</property>
  <property name="kdenlive:original.in">00:00:00.000</property>
  <property name="kdenlive:original.out">00:00:00.183</property>
  <property name="kdenlive:original.length">12</property>
  <property name="kdenlive:original.eof">pause</property>
  <property name="kdenlive:original.resource">video/Insertion/11.mp4</property>
  <property name="kdenlive:original.meta.media.nb_streams">1</property>
  <property name="kdenlive:original.meta.media.0.stream.type">video</property>
  <property name="kdenlive:original.meta.media.0.stream.frame_rate">60</property>
  <property name="kdenlive:original.meta.media.0.stream.sample_aspect_ratio">0</property>
  <property name="kdenlive:original.meta.media.0.codec.width">3840</property>
  <property name="kdenlive:original.meta.media.0.codec.height">2160</property>
  <property name="kdenlive:original.meta.media.0.codec.rotate">0</property>
  <property name="kdenlive:original.meta.media.0.codec.pix_fmt">yuv420p</property>
  <property name="kdenlive:original.meta.media.0.codec.sample_aspect_ratio">0</property>
  <property name="kdenlive:original.meta.media.0.codec.colorspace">709</property>
  <property name="kdenlive:original.meta.media.0.codec.name">h264</property>
  <property name="kdenlive:original.meta.media.0.codec.long_name">H.264 / AVC / MPEG-4 AVC / MPEG-4 part 10</property>
  <property name="kdenlive:original.meta.media.0.codec.bit_rate">1513600</property>
  <property name="kdenlive:original.meta.attr.0.stream.handler_name.markup">VideoHandler</property>
  <property name="kdenlive:original.meta.attr.0.stream.vendor_id.markup">[0][0][0][0]</property>
  <property name="kdenlive:original.meta.attr.0.stream.encoder.markup">Lavc60.3.100 libx264</property>
  <property name="kdenlive:original.meta.attr.major_brand.markup">isom</property>
  <property name="kdenlive:original.meta.attr.minor_version.markup">512</property>
  <property name="kdenlive:original.meta.attr.compatible_brands.markup">isomiso2avc1mp41</property>
  <property name="kdenlive:original.meta.attr.encoder.markup">Lavf60.3.100</property>
  <property name="kdenlive:original.meta.attr.comment.markup">Rendered with Manim Community v0.17.2</property>
  <property name="kdenlive:original.seekable">1</property>
  <property name="kdenlive:original.width">3840</property>
  <property name="kdenlive:original.height">2160</property>
  <property name="kdenlive:original.meta.media.sample_aspect_num">1</property>
  <property name="kdenlive:original.meta.media.sample_aspect_den">1</property>
  <property name="kdenlive:original.aspect_ratio">1</property>
  <property name="kdenlive:original.format">3</property>
  <property name="kdenlive:original.audio_index">-1</property>
  <property name="kdenlive:original.video_index">0</property>
  <property name="kdenlive:original.mute_on_pause">0</property>
  <property name="kdenlive:original.mlt_service">avformat-novalidate</property>
  <property name="kdenlive:original.meta.media.frame_rate_num">60</property>
  <property name="kdenlive:original.meta.media.frame_rate_den">1</property>
  <property name="kdenlive:original.meta.media.colorspace">709</property>
  <property name="kdenlive:original.meta.media.color_trc">2</property>
  <property name="kdenlive:original.meta.media.has_b_frames">2</property>
  <property name="kdenlive:original.meta.media.width">3840</property>
  <property name="kdenlive:original.meta.media.height">2160</property>
  <property name="kdenlive:original.meta.media.color_range">mpeg</property>
  <property name="kdenlive:original.meta.media.top_field_first">0</property>
  <property name="kdenlive:original.meta.media.progressive">1</property>
  <property name="kdenlive:original.kdenlive:clip_type">2</property>
  <property name="kdenlive:original.kdenlive:folderid">488</property>
  <property name="kdenlive:original.kdenlive:id">491</property>
  <property name="kdenlive:original.kdenlive:file_size">38839</property>
  <property name="kdenlive:original.kdenlive:file_hash">b7c80d8b199b11be04ae88513e32a337</property>
  <property name="kdenlive:original.backup">1</property>
  <property name="xml">was here</property>
  <property name="meta.media.frame_rate_num">60</property>
  <property name="meta.media.frame_rate_den">1</property>
  <property name="meta.media.colorspace">601</property>
  <property name="meta.media.color_trc">2</property>
  <property name="meta.media.has_b_frames">0</property>
  <property name="meta.media.width">640</property>
  <property name="meta.media.height">360</property>
  <property name="meta.media.color_range">full</property>
  <property name="meta.media.top_field_first">0</property>
  <property name="meta.media.progressive">1</property>
  <property name="set.test_audio">1</property>
  <property name="set.test_image">0</property>
 </producer>
 <producer id="producer644" in="00:00:00.000" out="00:00:00.117">
  <property name="length">8</property>
  <property name="eof">pause</property>
  <property name="resource">/home/xiaoxiae/.cache/kdenlive/proxy/7d14b5b3016e21f79c760cb61b875343.mkv</property>
  <property name="audio_index">-1</property>
  <property name="video_index">0</property>
  <property name="mute_on_pause">0</property>
  <property name="mlt_service">avformat-novalidate</property>
  <property name="meta.media.nb_streams">1</property>
  <property name="meta.media.0.stream.type">video</property>
  <property name="meta.media.0.stream.frame_rate">60</property>
  <property name="meta.media.0.stream.sample_aspect_ratio">0</property>
  <property name="meta.media.0.codec.width">640</property>
  <property name="meta.media.0.codec.height">360</property>
  <property name="meta.media.0.codec.rotate">0</property>
  <property name="meta.media.0.codec.pix_fmt">yuvj420p</property>
  <property name="meta.media.0.codec.sample_aspect_ratio">0</property>
  <property name="meta.media.0.codec.colorspace">601</property>
  <property name="meta.media.0.codec.name">mjpeg</property>
  <property name="meta.media.0.codec.long_name">MJPEG (Motion JPEG)</property>
  <property name="meta.media.0.codec.bit_rate">0</property>
  <property name="meta.attr.0.stream.HANDLER_NAME.markup">VideoHandler</property>
  <property name="meta.attr.0.stream.VENDOR_ID.markup">[0][0][0][0]</property>
  <property name="meta.attr.0.stream.ENCODER.markup">Lavc60.3.100 mjpeg</property>
  <property name="meta.attr.0.stream.DURATION.markup">00:00:00.134000000</property>
  <property name="meta.attr.COMMENT.markup">Rendered with Manim Community v0.17.2</property>
  <property name="meta.attr.MAJOR_BRAND.markup">isom</property>
  <property name="meta.attr.MINOR_VERSION.markup">512</property>
  <property name="meta.attr.COMPATIBLE_BRANDS.markup">isomiso2avc1mp41</property>
  <property name="meta.attr.ENCODER.markup">Lavf60.3.100</property>
  <property name="seekable">1</property>
  <property name="meta.media.sample_aspect_num">1</property>
  <property name="meta.media.sample_aspect_den">1</property>
  <property name="aspect_ratio">1</property>
  <property name="format">3</property>
  <property name="kdenlive:clipname">12.mp4</property>
  <property name="kdenlive:clip_type">2</property>
  <property name="kdenlive:folderid">488</property>
  <property name="kdenlive:id">383</property>
  <property name="kdenlive:file_size">34453</property>
  <property name="kdenlive:file_hash">7d14b5b3016e21f79c760cb61b875343</property>
  <property name="kdenlive:proxy">/home/xiaoxiae/.cache/kdenlive/proxy/7d14b5b3016e21f79c760cb61b875343.mkv</property>
  <property name="kdenlive:originalurl">video/Insertion/12.mp4</property>
  <property name="kdenlive:original.mlt_type">producer</property>
  <property name="kdenlive:original.in">00:00:00.000</property>
  <property name="kdenlive:original.out">00:00:00.117</property>
  <property name="kdenlive:original.length">8</property>
  <property name="kdenlive:original.eof">pause</property>
  <property name="kdenlive:original.resource">video/Insertion/12.mp4</property>
  <property name="kdenlive:original.meta.media.nb_streams">1</property>
  <property name="kdenlive:original.meta.media.0.stream.type">video</property>
  <property name="kdenlive:original.meta.media.0.stream.frame_rate">60</property>
  <property name="kdenlive:original.meta.media.0.stream.sample_aspect_ratio">0</property>
  <property name="kdenlive:original.meta.media.0.codec.width">3840</property>
  <property name="kdenlive:original.meta.media.0.codec.height">2160</property>
  <property name="kdenlive:original.meta.media.0.codec.rotate">0</property>
  <property name="kdenlive:original.meta.media.0.codec.pix_fmt">yuv420p</property>
  <property name="kdenlive:original.meta.media.0.codec.sample_aspect_ratio">0</property>
  <property name="kdenlive:original.meta.media.0.codec.colorspace">709</property>
  <property name="kdenlive:original.meta.media.0.codec.name">h264</property>
  <property name="kdenlive:original.meta.media.0.codec.long_name">H.264 / AVC / MPEG-4 AVC / MPEG-4 part 10</property>
  <property name="kdenlive:original.meta.media.0.codec.bit_rate">2006280</property>
  <property name="kdenlive:original.meta.attr.0.stream.handler_name.markup">VideoHandler</property>
  <property name="kdenlive:original.meta.attr.0.stream.vendor_id.markup">[0][0][0][0]</property>
  <property name="kdenlive:original.meta.attr.0.stream.encoder.markup">Lavc60.3.100 libx264</property>
  <property name="kdenlive:original.meta.attr.major_brand.markup">isom</property>
  <property name="kdenlive:original.meta.attr.minor_version.markup">512</property>
  <property name="kdenlive:original.meta.attr.compatible_brands.markup">isomiso2avc1mp41</property>
  <property name="kdenlive:original.meta.attr.encoder.markup">Lavf60.3.100</property>
  <property name="kdenlive:original.meta.attr.comment.markup">Rendered with Manim Community v0.17.2</property>
  <property name="kdenlive:original.seekable">1</property>
  <property name="kdenlive:original.width">3840</property>
  <property name="kdenlive:original.height">2160</property>
  <property name="kdenlive:original.meta.media.sample_aspect_num">1</property>
  <property name="kdenlive:original.meta.media.sample_aspect_den">1</property>
  <property name="kdenlive:original.aspect_ratio">1</property>
  <property name="kdenlive:original.format">3</property>
  <property name="kdenlive:original.audio_index">-1</property>
  <property name="kdenlive:original.video_index">0</property>
  <property name="kdenlive:original.mute_on_pause">0</property>
  <property name="kdenlive:original.mlt_service">avformat-novalidate</property>
  <property name="kdenlive:original.meta.media.frame_rate_num">60</property>
  <property name="kdenlive:original.meta.media.frame_rate_den">1</property>
  <property name="kdenlive:original.meta.media.colorspace">709</property>
  <property name="kdenlive:original.meta.media.color_trc">2</property>
  <property name="kdenlive:original.meta.media.has_b_frames">2</property>
  <property name="kdenlive:original.meta.media.width">3840</property>
  <property name="kdenlive:original.meta.media.height">2160</property>
  <property name="kdenlive:original.meta.media.color_range">mpeg</property>
  <property name="kdenlive:original.meta.media.top_field_first">0</property>
  <property name="kdenlive:original.meta.media.progressive">1</property>
  <property name="kdenlive:original.kdenlive:clip_type">2</property>
  <property name="kdenlive:original.kdenlive:folderid">488</property>
  <property name="kdenlive:original.kdenlive:id">492</property>
  <property name="kdenlive:original.kdenlive:file_size">34453</property>
  <property name="kdenlive:original.kdenlive:file_hash">7d14b5b3016e21f79c760cb61b875343</property>
  <property name="kdenlive:original.backup">1</property>
  <property name="xml">was here</property>
  <property name="meta.media.frame_rate_num">60</property>
  <property name="meta.media.frame_rate_den">1</property>
  <property name="meta.media.colorspace">601</property>
  <property name="meta.media.color_trc">2</property>
  <property name="meta.media.has_b_frames">0</property>
  <property name="meta.media.width">640</property>
  <property name="meta.media.height">360</property>
  <property name="meta.media.color_range">full</property>
  <property name="meta.media.top_field_first">0</property>
  <property name="meta.media.progressive">1</property>
  <property name="set.test_audio">1</property>
  <property name="set.test_image">0</property>
 </producer>
 <producer id="producer645" in="00:00:00.000" out="00:00:00.117">
  <property name="length">8</property>
  <property name="eof">pause</property>
  <property name="resource">/home/xiaoxiae/.cache/kdenlive/proxy/a4eb0c8f86d6295dce6c5eddec6734d6.mkv</property>
  <property name="audio_index">-1</property>
  <property name="video_index">0</property>
  <property name="mute_on_pause">0</property>
  <property name="mlt_service">avformat-novalidate</property>
  <property name="meta.media.nb_streams">1</property>
  <property name="meta.media.0.stream.type">video</property>
  <property name="meta.media.0.stream.frame_rate">60</property>
  <property name="meta.media.0.stream.sample_aspect_ratio">0</property>
  <property name="meta.media.0.codec.width">640</property>
  <property name="meta.media.0.codec.height">360</property>
  <property name="meta.media.0.codec.rotate">0</property>
  <property name="meta.media.0.codec.pix_fmt">yuvj420p</property>
  <property name="meta.media.0.codec.sample_aspect_ratio">0</property>
  <property name="meta.media.0.codec.colorspace">601</property>
  <property name="meta.media.0.codec.name">mjpeg</property>
  <property name="meta.media.0.codec.long_name">MJPEG (Motion JPEG)</property>
  <property name="meta.media.0.codec.bit_rate">0</property>
  <property name="meta.attr.0.stream.HANDLER_NAME.markup">VideoHandler</property>
  <property name="meta.attr.0.stream.VENDOR_ID.markup">[0][0][0][0]</property>
  <property name="meta.attr.0.stream.ENCODER.markup">Lavc60.3.100 mjpeg</property>
  <property name="meta.attr.0.stream.DURATION.markup">00:00:00.134000000</property>
  <property name="meta.attr.COMMENT.markup">Rendered with Manim Community v0.17.2</property>
  <property name="meta.attr.MAJOR_BRAND.markup">isom</property>
  <property name="meta.attr.MINOR_VERSION.markup">512</property>
  <property name="meta.attr.COMPATIBLE_BRANDS.markup">isomiso2avc1mp41</property>
  <property name="meta.attr.ENCODER.markup">Lavf60.3.100</property>
  <property name="seekable">1</property>
  <property name="meta.media.sample_aspect_num">1</property>
  <property name="meta.media.sample_aspect_den">1</property>
  <property name="aspect_ratio">1</property>
  <property name="format">3</property>
  <property name="kdenlive:clipname">13.mp4</property>
  <property name="kdenlive:clip_type">2</property>
  <property name="kdenlive:folderid">488</property>
  <property name="kdenlive:id">384</property>
  <property name="kdenlive:file_size">34051</property>
  <property name="kdenlive:file_hash">a4eb0c8f86d6295dce6c5eddec6734d6</property>
  <property name="kdenlive:proxy">/home/xiaoxiae/.cache/kdenlive/proxy/a4eb0c8f86d6295dce6c5eddec6734d6.mkv</property>
  <property name="kdenlive:originalurl">video/Insertion/13.mp4</property>
  <property name="kdenlive:original.mlt_type">producer</property>
  <property name="kdenlive:original.in">00:00:00.000</property>
  <property name="kdenlive:original.out">00:00:00.117</property>
  <property name="kdenlive:original.length">8</property>
  <property name="kdenlive:original.eof">pause</property>
  <property name="kdenlive:original.resource">video/Insertion/13.mp4</property>
  <property name="kdenlive:original.meta.media.nb_streams">1</property>
  <property name="kdenlive:original.meta.media.0.stream.type">video</property>
  <property name="kdenlive:original.meta.media.0.stream.frame_rate">60</property>
  <property name="kdenlive:original.meta.media.0.stream.sample_aspect_ratio">0</property>
  <property name="kdenlive:original.meta.media.0.codec.width">3840</property>
  <property name="kdenlive:original.meta.media.0.codec.height">2160</property>
  <property name="kdenlive:original.meta.media.0.codec.rotate">0</property>
  <property name="kdenlive:original.meta.media.0.codec.pix_fmt">yuv420p</property>
  <property name="kdenlive:original.meta.media.0.codec.sample_aspect_ratio">0</property>
  <property name="kdenlive:original.meta.media.0.codec.colorspace">709</property>
  <property name="kdenlive:original.meta.media.0.codec.name">h264</property>
  <property name="kdenlive:original.meta.media.0.codec.long_name">H.264 / AVC / MPEG-4 AVC / MPEG-4 part 10</property>
  <property name="kdenlive:original.meta.media.0.codec.bit_rate">1982160</property>
  <property name="kdenlive:original.meta.attr.0.stream.handler_name.markup">VideoHandler</property>
  <property name="kdenlive:original.meta.attr.0.stream.vendor_id.markup">[0][0][0][0]</property>
  <property name="kdenlive:original.meta.attr.0.stream.encoder.markup">Lavc60.3.100 libx264</property>
  <property name="kdenlive:original.meta.attr.major_brand.markup">isom</property>
  <property name="kdenlive:original.meta.attr.minor_version.markup">512</property>
  <property name="kdenlive:original.meta.attr.compatible_brands.markup">isomiso2avc1mp41</property>
  <property name="kdenlive:original.meta.attr.encoder.markup">Lavf60.3.100</property>
  <property name="kdenlive:original.meta.attr.comment.markup">Rendered with Manim Community v0.17.2</property>
  <property name="kdenlive:original.seekable">1</property>
  <property name="kdenlive:original.width">3840</property>
  <property name="kdenlive:original.height">2160</property>
  <property name="kdenlive:original.meta.media.sample_aspect_num">1</property>
  <property name="kdenlive:original.meta.media.sample_aspect_den">1</property>
  <property name="kdenlive:original.aspect_ratio">1</property>
  <property name="kdenlive:original.format">3</property>
  <property name="kdenlive:original.audio_index">-1</property>
  <property name="kdenlive:original.video_index">0</property>
  <property name="kdenlive:original.mute_on_pause">0</property>
  <property name="kdenlive:original.mlt_service">avformat-novalidate</property>
  <property name="kdenlive:original.meta.media.frame_rate_num">60</property>
  <property name="kdenlive:original.meta.media.frame_rate_den">1</property>
  <property name="kdenlive:original.meta.media.colorspace">709</property>
  <property name="kdenlive:original.meta.media.color_trc">2</property>
  <property name="kdenlive:original.meta.media.has_b_frames">2</property>
  <property name="kdenlive:original.meta.media.width">3840</property>
  <property name="kdenlive:original.meta.media.height">2160</property>
  <property name="kdenlive:original.meta.media.color_range">mpeg</property>
  <property name="kdenlive:original.meta.media.top_field_first">0</property>
  <property name="kdenlive:original.meta.media.progressive">1</property>
  <property name="kdenlive:original.kdenlive:clip_type">2</property>
  <property name="kdenlive:original.kdenlive:folderid">488</property>
  <property name="kdenlive:original.kdenlive:id">493</property>
  <property name="kdenlive:original.kdenlive:file_size">34051</property>
  <property name="kdenlive:original.kdenlive:file_hash">a4eb0c8f86d6295dce6c5eddec6734d6</property>
  <property name="kdenlive:original.backup">1</property>
  <property name="xml">was here</property>
  <property name="meta.media.frame_rate_num">60</property>
  <property name="meta.media.frame_rate_den">1</property>
  <property name="meta.media.colorspace">601</property>
  <property name="meta.media.color_trc">2</property>
  <property name="meta.media.has_b_frames">0</property>
  <property name="meta.media.width">640</property>
  <property name="meta.media.height">360</property>
  <property name="meta.media.color_range">full</property>
  <property name="meta.media.top_field_first">0</property>
  <property name="meta.media.progressive">1</property>
  <property name="set.test_audio">1</property>
  <property name="set.test_image">0</property>
 </producer>
 <producer id="producer646" in="00:00:00.000" out="00:00:00.117">
  <property name="length">8</property>
  <property name="eof">pause</property>
  <property name="resource">/home/xiaoxiae/.cache/kdenlive/proxy/acc2020b6d1a30088f5b66ed62a92c67.mkv</property>
  <property name="audio_index">-1</property>
  <property name="video_index">0</property>
  <property name="mute_on_pause">0</property>
  <property name="mlt_service">avformat-novalidate</property>
  <property name="meta.media.nb_streams">1</property>
  <property name="meta.media.0.stream.type">video</property>
  <property name="meta.media.0.stream.frame_rate">60</property>
  <property name="meta.media.0.stream.sample_aspect_ratio">0</property>
  <property name="meta.media.0.codec.width">640</property>
  <property name="meta.media.0.codec.height">360</property>
  <property name="meta.media.0.codec.rotate">0</property>
  <property name="meta.media.0.codec.pix_fmt">yuvj420p</property>
  <property name="meta.media.0.codec.sample_aspect_ratio">0</property>
  <property name="meta.media.0.codec.colorspace">601</property>
  <property name="meta.media.0.codec.name">mjpeg</property>
  <property name="meta.media.0.codec.long_name">MJPEG (Motion JPEG)</property>
  <property name="meta.media.0.codec.bit_rate">0</property>
  <property name="meta.attr.0.stream.HANDLER_NAME.markup">VideoHandler</property>
  <property name="meta.attr.0.stream.VENDOR_ID.markup">[0][0][0][0]</property>
  <property name="meta.attr.0.stream.ENCODER.markup">Lavc60.3.100 mjpeg</property>
  <property name="meta.attr.0.stream.DURATION.markup">00:00:00.134000000</property>
  <property name="meta.attr.COMMENT.markup">Rendered with Manim Community v0.17.2</property>
  <property name="meta.attr.MAJOR_BRAND.markup">isom</property>
  <property name="meta.attr.MINOR_VERSION.markup">512</property>
  <property name="meta.attr.COMPATIBLE_BRANDS.markup">isomiso2avc1mp41</property>
  <property name="meta.attr.ENCODER.markup">Lavf60.3.100</property>
  <property name="seekable">1</property>
  <property name="meta.media.sample_aspect_num">1</property>
  <property name="meta.media.sample_aspect_den">1</property>
  <property name="aspect_ratio">1</property>
  <property name="format">3</property>
  <property name="kdenlive:clipname">14.mp4</property>
  <property name="kdenlive:clip_type">2</property>
  <property name="kdenlive:folderid">488</property>
  <property name="kdenlive:id">385</property>
  <property name="kdenlive:file_size">35415</property>
  <property name="kdenlive:file_hash">acc2020b6d1a30088f5b66ed62a92c67</property>
  <property name="kdenlive:proxy">/home/xiaoxiae/.cache/kdenlive/proxy/acc2020b6d1a30088f5b66ed62a92c67.mkv</property>
  <property name="kdenlive:originalurl">video/Insertion/14.mp4</property>
  <property name="kdenlive:original.mlt_type">producer</property>
  <property name="kdenlive:original.in">00:00:00.000</property>
  <property name="kdenlive:original.out">00:00:00.117</property>
  <property name="kdenlive:original.length">8</property>
  <property name="kdenlive:original.eof">pause</property>
  <property name="kdenlive:original.resource">video/Insertion/14.mp4</property>
  <property name="kdenlive:original.meta.media.nb_streams">1</property>
  <property name="kdenlive:original.meta.media.0.stream.type">video</property>
  <property name="kdenlive:original.meta.media.0.stream.frame_rate">60</property>
  <property name="kdenlive:original.meta.media.0.stream.sample_aspect_ratio">0</property>
  <property name="kdenlive:original.meta.media.0.codec.width">3840</property>
  <property name="kdenlive:original.meta.media.0.codec.height">2160</property>
  <property name="kdenlive:original.meta.media.0.codec.rotate">0</property>
  <property name="kdenlive:original.meta.media.0.codec.pix_fmt">yuv420p</property>
  <property name="kdenlive:original.meta.media.0.codec.sample_aspect_ratio">0</property>
  <property name="kdenlive:original.meta.media.0.codec.colorspace">709</property>
  <property name="kdenlive:original.meta.media.0.codec.name">h264</property>
  <property name="kdenlive:original.meta.media.0.codec.long_name">H.264 / AVC / MPEG-4 AVC / MPEG-4 part 10</property>
  <property name="kdenlive:original.meta.media.0.codec.bit_rate">2064480</property>
  <property name="kdenlive:original.meta.attr.0.stream.handler_name.markup">VideoHandler</property>
  <property name="kdenlive:original.meta.attr.0.stream.vendor_id.markup">[0][0][0][0]</property>
  <property name="kdenlive:original.meta.attr.0.stream.encoder.markup">Lavc60.3.100 libx264</property>
  <property name="kdenlive:original.meta.attr.major_brand.markup">isom</property>
  <property name="kdenlive:original.meta.attr.minor_version.markup">512</property>
  <property name="kdenlive:original.meta.attr.compatible_brands.markup">isomiso2avc1mp41</property>
  <property name="kdenlive:original.meta.attr.encoder.markup">Lavf60.3.100</property>
  <property name="kdenlive:original.meta.attr.comment.markup">Rendered with Manim Community v0.17.2</property>
  <property name="kdenlive:original.seekable">1</property>
  <property name="kdenlive:original.width">3840</property>
  <property name="kdenlive:original.height">2160</property>
  <property name="kdenlive:original.meta.media.sample_aspect_num">1</property>
  <property name="kdenlive:original.meta.media.sample_aspect_den">1</property>
  <property name="kdenlive:original.aspect_ratio">1</property>
  <property name="kdenlive:original.format">3</property>
  <property name="kdenlive:original.audio_index">-1</property>
  <property name="kdenlive:original.video_index">0</property>
  <property name="kdenlive:original.mute_on_pause">0</property>
  <property name="kdenlive:original.mlt_service">avformat-novalidate</property>
  <property name="kdenlive:original.meta.media.frame_rate_num">60</property>
  <property name="kdenlive:original.meta.media.frame_rate_den">1</property>
  <property name="kdenlive:original.meta.media.colorspace">709</property>
  <property name="kdenlive:original.meta.media.color_trc">2</property>
  <property name="kdenlive:original.meta.media.has_b_frames">2</property>
  <property name="kdenlive:original.meta.media.width">3840</property>
  <property name="kdenlive:original.meta.media.height">2160</property>
  <property name="kdenlive:original.meta.media.color_range">mpeg</property>
  <property name="kdenlive:original.meta.media.top_field_first">0</property>
  <property name="kdenlive:original.meta.media.progressive">1</property>
  <property name="kdenlive:original.kdenlive:clip_type">2</property>
  <property name="kdenlive:original.kdenlive:folderid">488</property>
  <property name="kdenlive:original.kdenlive:id">494</property>
  <property name="kdenlive:original.kdenlive:file_size">35415</property>
  <property name="kdenlive:original.kdenlive:file_hash">acc2020b6d1a30088f5b66ed62a92c67</property>
  <property name="kdenlive:original.backup">1</property>
  <property name="xml">was here</property>
  <property name="meta.media.frame_rate_num">60</property>
  <property name="meta.media.frame_rate_den">1</property>
  <property name="meta.media.colorspace">601</property>
  <property name="meta.media.color_trc">2</property>
  <property name="meta.media.has_b_frames">0</property>
  <property name="meta.media.width">640</property>
  <property name="meta.media.height">360</property>
  <property name="meta.media.color_range">full</property>
  <property name="meta.media.top_field_first">0</property>
  <property name="meta.media.progressive">1</property>
  <property name="set.test_audio">1</property>
  <property name="set.test_image">0</property>
 </producer>
 <producer id="producer647" in="00:00:00.000" out="00:00:00.117">
  <property name="length">8</property>
  <property name="eof">pause</property>
  <property name="resource">/home/xiaoxiae/.cache/kdenlive/proxy/0bd12012fd1ae47bd2faa35c5b7c3246.mkv</property>
  <property name="audio_index">-1</property>
  <property name="video_index">0</property>
  <property name="mute_on_pause">0</property>
  <property name="mlt_service">avformat-novalidate</property>
  <property name="meta.media.nb_streams">1</property>
  <property name="meta.media.0.stream.type">video</property>
  <property name="meta.media.0.stream.frame_rate">60</property>
  <property name="meta.media.0.stream.sample_aspect_ratio">0</property>
  <property name="meta.media.0.codec.width">640</property>
  <property name="meta.media.0.codec.height">360</property>
  <property name="meta.media.0.codec.rotate">0</property>
  <property name="meta.media.0.codec.pix_fmt">yuvj420p</property>
  <property name="meta.media.0.codec.sample_aspect_ratio">0</property>
  <property name="meta.media.0.codec.colorspace">601</property>
  <property name="meta.media.0.codec.name">mjpeg</property>
  <property name="meta.media.0.codec.long_name">MJPEG (Motion JPEG)</property>
  <property name="meta.media.0.codec.bit_rate">0</property>
  <property name="meta.attr.0.stream.HANDLER_NAME.markup">VideoHandler</property>
  <property name="meta.attr.0.stream.VENDOR_ID.markup">[0][0][0][0]</property>
  <property name="meta.attr.0.stream.ENCODER.markup">Lavc60.3.100 mjpeg</property>
  <property name="meta.attr.0.stream.DURATION.markup">00:00:00.134000000</property>
  <property name="meta.attr.COMMENT.markup">Rendered with Manim Community v0.17.2</property>
  <property name="meta.attr.MAJOR_BRAND.markup">isom</property>
  <property name="meta.attr.MINOR_VERSION.markup">512</property>
  <property name="meta.attr.COMPATIBLE_BRANDS.markup">isomiso2avc1mp41</property>
  <property name="meta.attr.ENCODER.markup">Lavf60.3.100</property>
  <property name="seekable">1</property>
  <property name="meta.media.sample_aspect_num">1</property>
  <property name="meta.media.sample_aspect_den">1</property>
  <property name="aspect_ratio">1</property>
  <property name="format">3</property>
  <property name="kdenlive:clipname">15.mp4</property>
  <property name="kdenlive:clip_type">2</property>
  <property name="kdenlive:folderid">488</property>
  <property name="kdenlive:id">386</property>
  <property name="kdenlive:file_size">34386</property>
  <property name="kdenlive:file_hash">0bd12012fd1ae47bd2faa35c5b7c3246</property>
  <property name="kdenlive:proxy">/home/xiaoxiae/.cache/kdenlive/proxy/0bd12012fd1ae47bd2faa35c5b7c3246.mkv</property>
  <property name="kdenlive:originalurl">video/Insertion/15.mp4</property>
  <property name="kdenlive:original.mlt_type">producer</property>
  <property name="kdenlive:original.in">00:00:00.000</property>
  <property name="kdenlive:original.out">00:00:00.117</property>
  <property name="kdenlive:original.length">8</property>
  <property name="kdenlive:original.eof">pause</property>
  <property name="kdenlive:original.resource">video/Insertion/15.mp4</property>
  <property name="kdenlive:original.meta.media.nb_streams">1</property>
  <property name="kdenlive:original.meta.media.0.stream.type">video</property>
  <property name="kdenlive:original.meta.media.0.stream.frame_rate">60</property>
  <property name="kdenlive:original.meta.media.0.stream.sample_aspect_ratio">0</property>
  <property name="kdenlive:original.meta.media.0.codec.width">3840</property>
  <property name="kdenlive:original.meta.media.0.codec.height">2160</property>
  <property name="kdenlive:original.meta.media.0.codec.rotate">0</property>
  <property name="kdenlive:original.meta.media.0.codec.pix_fmt">yuv420p</property>
  <property name="kdenlive:original.meta.media.0.codec.sample_aspect_ratio">0</property>
  <property name="kdenlive:original.meta.media.0.codec.colorspace">709</property>
  <property name="kdenlive:original.meta.media.0.codec.name">h264</property>
  <property name="kdenlive:original.meta.media.0.codec.long_name">H.264 / AVC / MPEG-4 AVC / MPEG-4 part 10</property>
  <property name="kdenlive:original.meta.media.0.codec.bit_rate">2003220</property>
  <property name="kdenlive:original.meta.attr.0.stream.handler_name.markup">VideoHandler</property>
  <property name="kdenlive:original.meta.attr.0.stream.vendor_id.markup">[0][0][0][0]</property>
  <property name="kdenlive:original.meta.attr.0.stream.encoder.markup">Lavc60.3.100 libx264</property>
  <property name="kdenlive:original.meta.attr.major_brand.markup">isom</property>
  <property name="kdenlive:original.meta.attr.minor_version.markup">512</property>
  <property name="kdenlive:original.meta.attr.compatible_brands.markup">isomiso2avc1mp41</property>
  <property name="kdenlive:original.meta.attr.encoder.markup">Lavf60.3.100</property>
  <property name="kdenlive:original.meta.attr.comment.markup">Rendered with Manim Community v0.17.2</property>
  <property name="kdenlive:original.seekable">1</property>
  <property name="kdenlive:original.width">3840</property>
  <property name="kdenlive:original.height">2160</property>
  <property name="kdenlive:original.meta.media.sample_aspect_num">1</property>
  <property name="kdenlive:original.meta.media.sample_aspect_den">1</property>
  <property name="kdenlive:original.aspect_ratio">1</property>
  <property name="kdenlive:original.format">3</property>
  <property name="kdenlive:original.audio_index">-1</property>
  <property name="kdenlive:original.video_index">0</property>
  <property name="kdenlive:original.mute_on_pause">0</property>
  <property name="kdenlive:original.mlt_service">avformat-novalidate</property>
  <property name="kdenlive:original.meta.media.frame_rate_num">60</property>
  <property name="kdenlive:original.meta.media.frame_rate_den">1</property>
  <property name="kdenlive:original.meta.media.colorspace">709</property>
  <property name="kdenlive:original.meta.media.color_trc">2</property>
  <property name="kdenlive:original.meta.media.has_b_frames">2</property>
  <property name="kdenlive:original.meta.media.width">3840</property>
  <property name="kdenlive:original.meta.media.height">2160</property>
  <property name="kdenlive:original.meta.media.color_range">mpeg</property>
  <property name="kdenlive:original.meta.media.top_field_first">0</property>
  <property name="kdenlive:original.meta.media.progressive">1</property>
  <property name="kdenlive:original.kdenlive:clip_type">2</property>
  <property name="kdenlive:original.kdenlive:folderid">488</property>
  <property name="kdenlive:original.kdenlive:id">495</property>
  <property name="kdenlive:original.kdenlive:file_size">34386</property>
  <property name="kdenlive:original.kdenlive:file_hash">0bd12012fd1ae47bd2faa35c5b7c3246</property>
  <property name="kdenlive:original.backup">1</property>
  <property name="xml">was here</property>
  <property name="meta.media.frame_rate_num">60</property>
  <property name="meta.media.frame_rate_den">1</property>
  <property name="meta.media.colorspace">601</property>
  <property name="meta.media.color_trc">2</property>
  <property name="meta.media.has_b_frames">0</property>
  <property name="meta.media.width">640</property>
  <property name="meta.media.height">360</property>
  <property name="meta.media.color_range">full</property>
  <property name="meta.media.top_field_first">0</property>
  <property name="meta.media.progressive">1</property>
  <property name="set.test_audio">1</property>
  <property name="set.test_image">0</property>
 </producer>
 <producer id="producer648" in="00:00:00.000" out="00:00:00.117">
  <property name="length">8</property>
  <property name="eof">pause</property>
  <property name="resource">/home/xiaoxiae/.cache/kdenlive/proxy/83a598c778c5f8bb9e49bdac28e34c44.mkv</property>
  <property name="audio_index">-1</property>
  <property name="video_index">0</property>
  <property name="mute_on_pause">0</property>
  <property name="mlt_service">avformat-novalidate</property>
  <property name="meta.media.nb_streams">1</property>
  <property name="meta.media.0.stream.type">video</property>
  <property name="meta.media.0.stream.frame_rate">60</property>
  <property name="meta.media.0.stream.sample_aspect_ratio">0</property>
  <property name="meta.media.0.codec.width">640</property>
  <property name="meta.media.0.codec.height">360</property>
  <property name="meta.media.0.codec.rotate">0</property>
  <property name="meta.media.0.codec.pix_fmt">yuvj420p</property>
  <property name="meta.media.0.codec.sample_aspect_ratio">0</property>
  <property name="meta.media.0.codec.colorspace">601</property>
  <property name="meta.media.0.codec.name">mjpeg</property>
  <property name="meta.media.0.codec.long_name">MJPEG (Motion JPEG)</property>
  <property name="meta.media.0.codec.bit_rate">0</property>
  <property name="meta.attr.0.stream.HANDLER_NAME.markup">VideoHandler</property>
  <property name="meta.attr.0.stream.VENDOR_ID.markup">[0][0][0][0]</property>
  <property name="meta.attr.0.stream.ENCODER.markup">Lavc60.3.100 mjpeg</property>
  <property name="meta.attr.0.stream.DURATION.markup">00:00:00.134000000</property>
  <property name="meta.attr.COMMENT.markup">Rendered with Manim Community v0.17.2</property>
  <property name="meta.attr.MAJOR_BRAND.markup">isom</property>
  <property name="meta.attr.MINOR_VERSION.markup">512</property>
  <property name="meta.attr.COMPATIBLE_BRANDS.markup">isomiso2avc1mp41</property>
  <property name="meta.attr.ENCODER.markup">Lavf60.3.100</property>
  <property name="seekable">1</property>
  <property name="meta.media.sample_aspect_num">1</property>
  <property name="meta.media.sample_aspect_den">1</property>
  <property name="aspect_ratio">1</property>
  <property name="format">3</property>
  <property name="kdenlive:clipname">16.mp4</property>
  <property name="kdenlive:clip_type">2</property>
  <property name="kdenlive:folderid">488</property>
  <property name="kdenlive:id">387</property>
  <property name="kdenlive:file_size">34025</property>
  <property name="kdenlive:file_hash">83a598c778c5f8bb9e49bdac28e34c44</property>
  <property name="kdenlive:proxy">/home/xiaoxiae/.cache/kdenlive/proxy/83a598c778c5f8bb9e49bdac28e34c44.mkv</property>
  <property name="kdenlive:originalurl">video/Insertion/16.mp4</property>
  <property name="kdenlive:original.mlt_type">producer</property>
  <property name="kdenlive:original.in">00:00:00.000</property>
  <property name="kdenlive:original.out">00:00:00.117</property>
  <property name="kdenlive:original.length">8</property>
  <property name="kdenlive:original.eof">pause</property>
  <property name="kdenlive:original.resource">video/Insertion/16.mp4</property>
  <property name="kdenlive:original.meta.media.nb_streams">1</property>
  <property name="kdenlive:original.meta.media.0.stream.type">video</property>
  <property name="kdenlive:original.meta.media.0.stream.frame_rate">60</property>
  <property name="kdenlive:original.meta.media.0.stream.sample_aspect_ratio">0</property>
  <property name="kdenlive:original.meta.media.0.codec.width">3840</property>
  <property name="kdenlive:original.meta.media.0.codec.height">2160</property>
  <property name="kdenlive:original.meta.media.0.codec.rotate">0</property>
  <property name="kdenlive:original.meta.media.0.codec.pix_fmt">yuv420p</property>
  <property name="kdenlive:original.meta.media.0.codec.sample_aspect_ratio">0</property>
  <property name="kdenlive:original.meta.media.0.codec.colorspace">709</property>
  <property name="kdenlive:original.meta.media.0.codec.name">h264</property>
  <property name="kdenlive:original.meta.media.0.codec.long_name">H.264 / AVC / MPEG-4 AVC / MPEG-4 part 10</property>
  <property name="kdenlive:original.meta.media.0.codec.bit_rate">1981560</property>
  <property name="kdenlive:original.meta.attr.0.stream.handler_name.markup">VideoHandler</property>
  <property name="kdenlive:original.meta.attr.0.stream.vendor_id.markup">[0][0][0][0]</property>
  <property name="kdenlive:original.meta.attr.0.stream.encoder.markup">Lavc60.3.100 libx264</property>
  <property name="kdenlive:original.meta.attr.major_brand.markup">isom</property>
  <property name="kdenlive:original.meta.attr.minor_version.markup">512</property>
  <property name="kdenlive:original.meta.attr.compatible_brands.markup">isomiso2avc1mp41</property>
  <property name="kdenlive:original.meta.attr.encoder.markup">Lavf60.3.100</property>
  <property name="kdenlive:original.meta.attr.comment.markup">Rendered with Manim Community v0.17.2</property>
  <property name="kdenlive:original.seekable">1</property>
  <property name="kdenlive:original.width">3840</property>
  <property name="kdenlive:original.height">2160</property>
  <property name="kdenlive:original.meta.media.sample_aspect_num">1</property>
  <property name="kdenlive:original.meta.media.sample_aspect_den">1</property>
  <property name="kdenlive:original.aspect_ratio">1</property>
  <property name="kdenlive:original.format">3</property>
  <property name="kdenlive:original.audio_index">-1</property>
  <property name="kdenlive:original.video_index">0</property>
  <property name="kdenlive:original.mute_on_pause">0</property>
  <property name="kdenlive:original.mlt_service">avformat-novalidate</property>
  <property name="kdenlive:original.meta.media.frame_rate_num">60</property>
  <property name="kdenlive:original.meta.media.frame_rate_den">1</property>
  <property name="kdenlive:original.meta.media.colorspace">709</property>
  <property name="kdenlive:original.meta.media.color_trc">2</property>
  <property name="kdenlive:original.meta.media.has_b_frames">2</property>
  <property name="kdenlive:original.meta.media.width">3840</property>
  <property name="kdenlive:original.meta.media.height">2160</property>
  <property name="kdenlive:original.meta.media.color_range">mpeg</property>
  <property name="kdenlive:original.meta.media.top_field_first">0</property>
  <property name="kdenlive:original.meta.media.progressive">1</property>
  <property name="kdenlive:original.kdenlive:clip_type">2</property>
  <property name="kdenlive:original.kdenlive:folderid">488</property>
  <property name="kdenlive:original.kdenlive:id">496</property>
  <property name="kdenlive:original.kdenlive:file_size">34025</property>
  <property name="kdenlive:original.kdenlive:file_hash">83a598c778c5f8bb9e49bdac28e34c44</property>
  <property name="kdenlive:original.backup">1</property>
  <property name="xml">was here</property>
  <property name="meta.media.frame_rate_num">60</property>
  <property name="meta.media.frame_rate_den">1</property>
  <property name="meta.media.colorspace">601</property>
  <property name="meta.media.color_trc">2</property>
  <property name="meta.media.has_b_frames">0</property>
  <property name="meta.media.width">640</property>
  <property name="meta.media.height">360</property>
  <property name="meta.media.color_range">full</property>
  <property name="meta.media.top_field_first">0</property>
  <property name="meta.media.progressive">1</property>
  <property name="set.test_audio">1</property>
  <property name="set.test_image">0</property>
 </producer>
 <producer id="producer649" in="00:00:00.000" out="00:00:00.117">
  <property name="length">8</property>
  <property name="eof">pause</property>
  <property name="resource">/home/xiaoxiae/.cache/kdenlive/proxy/0bc35f4527ec13f204ee244f41787f4b.mkv</property>
  <property name="audio_index">-1</property>
  <property name="video_index">0</property>
  <property name="mute_on_pause">0</property>
  <property name="mlt_service">avformat-novalidate</property>
  <property name="meta.media.nb_streams">1</property>
  <property name="meta.media.0.stream.type">video</property>
  <property name="meta.media.0.stream.frame_rate">60</property>
  <property name="meta.media.0.stream.sample_aspect_ratio">0</property>
  <property name="meta.media.0.codec.width">640</property>
  <property name="meta.media.0.codec.height">360</property>
  <property name="meta.media.0.codec.rotate">0</property>
  <property name="meta.media.0.codec.pix_fmt">yuvj420p</property>
  <property name="meta.media.0.codec.sample_aspect_ratio">0</property>
  <property name="meta.media.0.codec.colorspace">601</property>
  <property name="meta.media.0.codec.name">mjpeg</property>
  <property name="meta.media.0.codec.long_name">MJPEG (Motion JPEG)</property>
  <property name="meta.media.0.codec.bit_rate">0</property>
  <property name="meta.attr.0.stream.HANDLER_NAME.markup">VideoHandler</property>
  <property name="meta.attr.0.stream.VENDOR_ID.markup">[0][0][0][0]</property>
  <property name="meta.attr.0.stream.ENCODER.markup">Lavc60.3.100 mjpeg</property>
  <property name="meta.attr.0.stream.DURATION.markup">00:00:00.134000000</property>
  <property name="meta.attr.COMMENT.markup">Rendered with Manim Community v0.17.2</property>
  <property name="meta.attr.MAJOR_BRAND.markup">isom</property>
  <property name="meta.attr.MINOR_VERSION.markup">512</property>
  <property name="meta.attr.COMPATIBLE_BRANDS.markup">isomiso2avc1mp41</property>
  <property name="meta.attr.ENCODER.markup">Lavf60.3.100</property>
  <property name="seekable">1</property>
  <property name="meta.media.sample_aspect_num">1</property>
  <property name="meta.media.sample_aspect_den">1</property>
  <property name="aspect_ratio">1</property>
  <property name="format">3</property>
  <property name="kdenlive:clipname">17.mp4</property>
  <property name="kdenlive:clip_type">2</property>
  <property name="kdenlive:folderid">488</property>
  <property name="kdenlive:id">388</property>
  <property name="kdenlive:file_size">34550</property>
  <property name="kdenlive:file_hash">0bc35f4527ec13f204ee244f41787f4b</property>
  <property name="kdenlive:proxy">/home/xiaoxiae/.cache/kdenlive/proxy/0bc35f4527ec13f204ee244f41787f4b.mkv</property>
  <property name="kdenlive:originalurl">video/Insertion/17.mp4</property>
  <property name="kdenlive:original.mlt_type">producer</property>
  <property name="kdenlive:original.in">00:00:00.000</property>
  <property name="kdenlive:original.out">00:00:00.117</property>
  <property name="kdenlive:original.length">8</property>
  <property name="kdenlive:original.eof">pause</property>
  <property name="kdenlive:original.resource">video/Insertion/17.mp4</property>
  <property name="kdenlive:original.meta.media.nb_streams">1</property>
  <property name="kdenlive:original.meta.media.0.stream.type">video</property>
  <property name="kdenlive:original.meta.media.0.stream.frame_rate">60</property>
  <property name="kdenlive:original.meta.media.0.stream.sample_aspect_ratio">0</property>
  <property name="kdenlive:original.meta.media.0.codec.width">3840</property>
  <property name="kdenlive:original.meta.media.0.codec.height">2160</property>
  <property name="kdenlive:original.meta.media.0.codec.rotate">0</property>
  <property name="kdenlive:original.meta.media.0.codec.pix_fmt">yuv420p</property>
  <property name="kdenlive:original.meta.media.0.codec.sample_aspect_ratio">0</property>
  <property name="kdenlive:original.meta.media.0.codec.colorspace">709</property>
  <property name="kdenlive:original.meta.media.0.codec.name">h264</property>
  <property name="kdenlive:original.meta.media.0.codec.long_name">H.264 / AVC / MPEG-4 AVC / MPEG-4 part 10</property>
  <property name="kdenlive:original.meta.media.0.codec.bit_rate">2012100</property>
  <property name="kdenlive:original.meta.attr.0.stream.handler_name.markup">VideoHandler</property>
  <property name="kdenlive:original.meta.attr.0.stream.vendor_id.markup">[0][0][0][0]</property>
  <property name="kdenlive:original.meta.attr.0.stream.encoder.markup">Lavc60.3.100 libx264</property>
  <property name="kdenlive:original.meta.attr.major_brand.markup">isom</property>
  <property name="kdenlive:original.meta.attr.minor_version.markup">512</property>
  <property name="kdenlive:original.meta.attr.compatible_brands.markup">isomiso2avc1mp41</property>
  <property name="kdenlive:original.meta.attr.encoder.markup">Lavf60.3.100</property>
  <property name="kdenlive:original.meta.attr.comment.markup">Rendered with Manim Community v0.17.2</property>
  <property name="kdenlive:original.seekable">1</property>
  <property name="kdenlive:original.width">3840</property>
  <property name="kdenlive:original.height">2160</property>
  <property name="kdenlive:original.meta.media.sample_aspect_num">1</property>
  <property name="kdenlive:original.meta.media.sample_aspect_den">1</property>
  <property name="kdenlive:original.aspect_ratio">1</property>
  <property name="kdenlive:original.format">3</property>
  <property name="kdenlive:original.audio_index">-1</property>
  <property name="kdenlive:original.video_index">0</property>
  <property name="kdenlive:original.mute_on_pause">0</property>
  <property name="kdenlive:original.mlt_service">avformat-novalidate</property>
  <property name="kdenlive:original.meta.media.frame_rate_num">60</property>
  <property name="kdenlive:original.meta.media.frame_rate_den">1</property>
  <property name="kdenlive:original.meta.media.colorspace">709</property>
  <property name="kdenlive:original.meta.media.color_trc">2</property>
  <property name="kdenlive:original.meta.media.has_b_frames">2</property>
  <property name="kdenlive:original.meta.media.width">3840</property>
  <property name="kdenlive:original.meta.media.height">2160</property>
  <property name="kdenlive:original.meta.media.color_range">mpeg</property>
  <property name="kdenlive:original.meta.media.top_field_first">0</property>
  <property name="kdenlive:original.meta.media.progressive">1</property>
  <property name="kdenlive:original.kdenlive:clip_type">2</property>
  <property name="kdenlive:original.kdenlive:folderid">488</property>
  <property name="kdenlive:original.kdenlive:id">497</property>
  <property name="kdenlive:original.kdenlive:file_size">34550</property>
  <property name="kdenlive:original.kdenlive:file_hash">0bc35f4527ec13f204ee244f41787f4b</property>
  <property name="kdenlive:original.backup">1</property>
  <property name="xml">was here</property>
  <property name="meta.media.frame_rate_num">60</property>
  <property name="meta.media.frame_rate_den">1</property>
  <property name="meta.media.colorspace">601</property>
  <property name="meta.media.color_trc">2</property>
  <property name="meta.media.has_b_frames">0</property>
  <property name="meta.media.width">640</property>
  <property name="meta.media.height">360</property>
  <property name="meta.media.color_range">full</property>
  <property name="meta.media.top_field_first">0</property>
  <property name="meta.media.progressive">1</property>
  <property name="set.test_audio">1</property>
  <property name="set.test_image">0</property>
 </producer>
 <producer id="producer650" in="00:00:00.000" out="00:00:01.983">
  <property name="length">120</property>
  <property name="eof">pause</property>
  <property name="resource">/home/xiaoxiae/.cache/kdenlive/proxy/9fcc1e4263a7a2a4ef64c8fb7311ec63.mkv</property>
  <property name="audio_index">-1</property>
  <property name="video_index">0</property>
  <property name="mute_on_pause">0</property>
  <property name="mlt_service">avformat-novalidate</property>
  <property name="meta.media.nb_streams">1</property>
  <property name="meta.media.0.stream.type">video</property>
  <property name="meta.media.0.stream.frame_rate">60</property>
  <property name="meta.media.0.stream.sample_aspect_ratio">0</property>
  <property name="meta.media.0.codec.width">640</property>
  <property name="meta.media.0.codec.height">360</property>
  <property name="meta.media.0.codec.rotate">0</property>
  <property name="meta.media.0.codec.pix_fmt">yuvj420p</property>
  <property name="meta.media.0.codec.sample_aspect_ratio">0</property>
  <property name="meta.media.0.codec.colorspace">601</property>
  <property name="meta.media.0.codec.name">mjpeg</property>
  <property name="meta.media.0.codec.long_name">MJPEG (Motion JPEG)</property>
  <property name="meta.media.0.codec.bit_rate">0</property>
  <property name="meta.attr.0.stream.HANDLER_NAME.markup">VideoHandler</property>
  <property name="meta.attr.0.stream.VENDOR_ID.markup">[0][0][0][0]</property>
  <property name="meta.attr.0.stream.ENCODER.markup">Lavc60.3.100 mjpeg</property>
  <property name="meta.attr.0.stream.DURATION.markup">00:00:02.000000000</property>
  <property name="meta.attr.COMMENT.markup">Rendered with Manim Community v0.17.2</property>
  <property name="meta.attr.MAJOR_BRAND.markup">isom</property>
  <property name="meta.attr.MINOR_VERSION.markup">512</property>
  <property name="meta.attr.COMPATIBLE_BRANDS.markup">isomiso2avc1mp41</property>
  <property name="meta.attr.ENCODER.markup">Lavf60.3.100</property>
  <property name="seekable">1</property>
  <property name="meta.media.sample_aspect_num">1</property>
  <property name="meta.media.sample_aspect_den">1</property>
  <property name="aspect_ratio">1</property>
  <property name="format">3</property>
  <property name="kdenlive:clipname">18.mp4</property>
  <property name="kdenlive:clip_type">2</property>
  <property name="kdenlive:folderid">488</property>
  <property name="kdenlive:id">389</property>
  <property name="kdenlive:file_size">168538</property>
  <property name="kdenlive:file_hash">9fcc1e4263a7a2a4ef64c8fb7311ec63</property>
  <property name="kdenlive:proxy">/home/xiaoxiae/.cache/kdenlive/proxy/9fcc1e4263a7a2a4ef64c8fb7311ec63.mkv</property>
  <property name="kdenlive:originalurl">video/Insertion/18.mp4</property>
  <property name="kdenlive:original.mlt_type">producer</property>
  <property name="kdenlive:original.in">00:00:00.000</property>
  <property name="kdenlive:original.out">00:00:01.983</property>
  <property name="kdenlive:original.length">120</property>
  <property name="kdenlive:original.eof">pause</property>
  <property name="kdenlive:original.resource">video/Insertion/18.mp4</property>
  <property name="kdenlive:original.meta.media.nb_streams">1</property>
  <property name="kdenlive:original.meta.media.0.stream.type">video</property>
  <property name="kdenlive:original.meta.media.0.stream.frame_rate">60</property>
  <property name="kdenlive:original.meta.media.0.stream.sample_aspect_ratio">0</property>
  <property name="kdenlive:original.meta.media.0.codec.width">3840</property>
  <property name="kdenlive:original.meta.media.0.codec.height">2160</property>
  <property name="kdenlive:original.meta.media.0.codec.rotate">0</property>
  <property name="kdenlive:original.meta.media.0.codec.pix_fmt">yuv420p</property>
  <property name="kdenlive:original.meta.media.0.codec.sample_aspect_ratio">0</property>
  <property name="kdenlive:original.meta.media.0.codec.colorspace">709</property>
  <property name="kdenlive:original.meta.media.0.codec.name">h264</property>
  <property name="kdenlive:original.meta.media.0.codec.long_name">H.264 / AVC / MPEG-4 AVC / MPEG-4 part 10</property>
  <property name="kdenlive:original.meta.media.0.codec.bit_rate">664716</property>
  <property name="kdenlive:original.meta.attr.0.stream.handler_name.markup">VideoHandler</property>
  <property name="kdenlive:original.meta.attr.0.stream.vendor_id.markup">[0][0][0][0]</property>
  <property name="kdenlive:original.meta.attr.0.stream.encoder.markup">Lavc60.3.100 libx264</property>
  <property name="kdenlive:original.meta.attr.major_brand.markup">isom</property>
  <property name="kdenlive:original.meta.attr.minor_version.markup">512</property>
  <property name="kdenlive:original.meta.attr.compatible_brands.markup">isomiso2avc1mp41</property>
  <property name="kdenlive:original.meta.attr.encoder.markup">Lavf60.3.100</property>
  <property name="kdenlive:original.meta.attr.comment.markup">Rendered with Manim Community v0.17.2</property>
  <property name="kdenlive:original.seekable">1</property>
  <property name="kdenlive:original.width">3840</property>
  <property name="kdenlive:original.height">2160</property>
  <property name="kdenlive:original.meta.media.sample_aspect_num">1</property>
  <property name="kdenlive:original.meta.media.sample_aspect_den">1</property>
  <property name="kdenlive:original.aspect_ratio">1</property>
  <property name="kdenlive:original.format">3</property>
  <property name="kdenlive:original.audio_index">-1</property>
  <property name="kdenlive:original.video_index">0</property>
  <property name="kdenlive:original.mute_on_pause">0</property>
  <property name="kdenlive:original.mlt_service">avformat-novalidate</property>
  <property name="kdenlive:original.meta.media.frame_rate_num">60</property>
  <property name="kdenlive:original.meta.media.frame_rate_den">1</property>
  <property name="kdenlive:original.meta.media.colorspace">709</property>
  <property name="kdenlive:original.meta.media.color_trc">2</property>
  <property name="kdenlive:original.meta.media.has_b_frames">2</property>
  <property name="kdenlive:original.meta.media.width">3840</property>
  <property name="kdenlive:original.meta.media.height">2160</property>
  <property name="kdenlive:original.meta.media.color_range">mpeg</property>
  <property name="kdenlive:original.meta.media.top_field_first">0</property>
  <property name="kdenlive:original.meta.media.progressive">1</property>
  <property name="kdenlive:original.kdenlive:clip_type">2</property>
  <property name="kdenlive:original.kdenlive:folderid">488</property>
  <property name="kdenlive:original.kdenlive:id">498</property>
  <property name="kdenlive:original.kdenlive:file_size">168538</property>
  <property name="kdenlive:original.kdenlive:file_hash">9fcc1e4263a7a2a4ef64c8fb7311ec63</property>
  <property name="kdenlive:original.backup">1</property>
  <property name="xml">was here</property>
  <property name="meta.media.frame_rate_num">60</property>
  <property name="meta.media.frame_rate_den">1</property>
  <property name="meta.media.colorspace">601</property>
  <property name="meta.media.color_trc">2</property>
  <property name="meta.media.has_b_frames">0</property>
  <property name="meta.media.width">640</property>
  <property name="meta.media.height">360</property>
  <property name="meta.media.color_range">full</property>
  <property name="meta.media.top_field_first">0</property>
  <property name="meta.media.progressive">1</property>
  <property name="set.test_audio">1</property>
  <property name="set.test_image">0</property>
 </producer>
 <producer id="producer651" in="00:00:00.000" out="00:00:00.983">
  <property name="length">60</property>
  <property name="eof">pause</property>
  <property name="resource">/home/xiaoxiae/.cache/kdenlive/proxy/54a159880e280a5da8d2b69bc662979c.mkv</property>
  <property name="audio_index">-1</property>
  <property name="video_index">0</property>
  <property name="mute_on_pause">0</property>
  <property name="mlt_service">avformat-novalidate</property>
  <property name="meta.media.nb_streams">1</property>
  <property name="meta.media.0.stream.type">video</property>
  <property name="meta.media.0.stream.frame_rate">60</property>
  <property name="meta.media.0.stream.sample_aspect_ratio">0</property>
  <property name="meta.media.0.codec.width">640</property>
  <property name="meta.media.0.codec.height">360</property>
  <property name="meta.media.0.codec.rotate">0</property>
  <property name="meta.media.0.codec.pix_fmt">yuvj420p</property>
  <property name="meta.media.0.codec.sample_aspect_ratio">0</property>
  <property name="meta.media.0.codec.colorspace">601</property>
  <property name="meta.media.0.codec.name">mjpeg</property>
  <property name="meta.media.0.codec.long_name">MJPEG (Motion JPEG)</property>
  <property name="meta.media.0.codec.bit_rate">0</property>
  <property name="meta.attr.0.stream.HANDLER_NAME.markup">VideoHandler</property>
  <property name="meta.attr.0.stream.VENDOR_ID.markup">[0][0][0][0]</property>
  <property name="meta.attr.0.stream.ENCODER.markup">Lavc60.3.100 mjpeg</property>
  <property name="meta.attr.0.stream.DURATION.markup">00:00:01.000000000</property>
  <property name="meta.attr.COMMENT.markup">Rendered with Manim Community v0.17.2</property>
  <property name="meta.attr.MAJOR_BRAND.markup">isom</property>
  <property name="meta.attr.MINOR_VERSION.markup">512</property>
  <property name="meta.attr.COMPATIBLE_BRANDS.markup">isomiso2avc1mp41</property>
  <property name="meta.attr.ENCODER.markup">Lavf60.3.100</property>
  <property name="seekable">1</property>
  <property name="meta.media.sample_aspect_num">1</property>
  <property name="meta.media.sample_aspect_den">1</property>
  <property name="aspect_ratio">1</property>
  <property name="format">3</property>
  <property name="kdenlive:clipname">19.mp4</property>
  <property name="kdenlive:clip_type">2</property>
  <property name="kdenlive:folderid">488</property>
  <property name="kdenlive:id">390</property>
  <property name="kdenlive:file_size">142060</property>
  <property name="kdenlive:file_hash">54a159880e280a5da8d2b69bc662979c</property>
  <property name="kdenlive:proxy">/home/xiaoxiae/.cache/kdenlive/proxy/54a159880e280a5da8d2b69bc662979c.mkv</property>
  <property name="kdenlive:originalurl">video/Insertion/19.mp4</property>
  <property name="kdenlive:original.mlt_type">producer</property>
  <property name="kdenlive:original.in">00:00:00.000</property>
  <property name="kdenlive:original.out">00:00:00.983</property>
  <property name="kdenlive:original.length">60</property>
  <property name="kdenlive:original.eof">pause</property>
  <property name="kdenlive:original.resource">video/Insertion/19.mp4</property>
  <property name="kdenlive:original.meta.media.nb_streams">1</property>
  <property name="kdenlive:original.meta.media.0.stream.type">video</property>
  <property name="kdenlive:original.meta.media.0.stream.frame_rate">60</property>
  <property name="kdenlive:original.meta.media.0.stream.sample_aspect_ratio">0</property>
  <property name="kdenlive:original.meta.media.0.codec.width">3840</property>
  <property name="kdenlive:original.meta.media.0.codec.height">2160</property>
  <property name="kdenlive:original.meta.media.0.codec.rotate">0</property>
  <property name="kdenlive:original.meta.media.0.codec.pix_fmt">yuv420p</property>
  <property name="kdenlive:original.meta.media.0.codec.sample_aspect_ratio">0</property>
  <property name="kdenlive:original.meta.media.0.codec.colorspace">709</property>
  <property name="kdenlive:original.meta.media.0.codec.name">h264</property>
  <property name="kdenlive:original.meta.media.0.codec.long_name">H.264 / AVC / MPEG-4 AVC / MPEG-4 part 10</property>
  <property name="kdenlive:original.meta.media.0.codec.bit_rate">1123752</property>
  <property name="kdenlive:original.meta.attr.0.stream.handler_name.markup">VideoHandler</property>
  <property name="kdenlive:original.meta.attr.0.stream.vendor_id.markup">[0][0][0][0]</property>
  <property name="kdenlive:original.meta.attr.0.stream.encoder.markup">Lavc60.3.100 libx264</property>
  <property name="kdenlive:original.meta.attr.major_brand.markup">isom</property>
  <property name="kdenlive:original.meta.attr.minor_version.markup">512</property>
  <property name="kdenlive:original.meta.attr.compatible_brands.markup">isomiso2avc1mp41</property>
  <property name="kdenlive:original.meta.attr.encoder.markup">Lavf60.3.100</property>
  <property name="kdenlive:original.meta.attr.comment.markup">Rendered with Manim Community v0.17.2</property>
  <property name="kdenlive:original.seekable">1</property>
  <property name="kdenlive:original.width">3840</property>
  <property name="kdenlive:original.height">2160</property>
  <property name="kdenlive:original.meta.media.sample_aspect_num">1</property>
  <property name="kdenlive:original.meta.media.sample_aspect_den">1</property>
  <property name="kdenlive:original.aspect_ratio">1</property>
  <property name="kdenlive:original.format">3</property>
  <property name="kdenlive:original.audio_index">-1</property>
  <property name="kdenlive:original.video_index">0</property>
  <property name="kdenlive:original.mute_on_pause">0</property>
  <property name="kdenlive:original.mlt_service">avformat-novalidate</property>
  <property name="kdenlive:original.meta.media.frame_rate_num">60</property>
  <property name="kdenlive:original.meta.media.frame_rate_den">1</property>
  <property name="kdenlive:original.meta.media.colorspace">709</property>
  <property name="kdenlive:original.meta.media.color_trc">2</property>
  <property name="kdenlive:original.meta.media.has_b_frames">2</property>
  <property name="kdenlive:original.meta.media.width">3840</property>
  <property name="kdenlive:original.meta.media.height">2160</property>
  <property name="kdenlive:original.meta.media.color_range">mpeg</property>
  <property name="kdenlive:original.meta.media.top_field_first">0</property>
  <property name="kdenlive:original.meta.media.progressive">1</property>
  <property name="kdenlive:original.kdenlive:clip_type">2</property>
  <property name="kdenlive:original.kdenlive:folderid">488</property>
  <property name="kdenlive:original.kdenlive:id">499</property>
  <property name="kdenlive:original.kdenlive:file_size">142060</property>
  <property name="kdenlive:original.kdenlive:file_hash">54a159880e280a5da8d2b69bc662979c</property>
  <property name="kdenlive:original.backup">1</property>
  <property name="xml">was here</property>
  <property name="meta.media.frame_rate_num">60</property>
  <property name="meta.media.frame_rate_den">1</property>
  <property name="meta.media.colorspace">601</property>
  <property name="meta.media.color_trc">2</property>
  <property name="meta.media.has_b_frames">0</property>
  <property name="meta.media.width">640</property>
  <property name="meta.media.height">360</property>
  <property name="meta.media.color_range">full</property>
  <property name="meta.media.top_field_first">0</property>
  <property name="meta.media.progressive">1</property>
  <property name="set.test_audio">1</property>
  <property name="set.test_image">0</property>
 </producer>
 <producer id="producer652" in="00:00:00.000" out="00:00:00.983">
  <property name="length">60</property>
  <property name="eof">pause</property>
  <property name="resource">/home/xiaoxiae/.cache/kdenlive/proxy/02938f9f1f89febcf7071146205ad613.mkv</property>
  <property name="audio_index">-1</property>
  <property name="video_index">0</property>
  <property name="mute_on_pause">0</property>
  <property name="mlt_service">avformat-novalidate</property>
  <property name="meta.media.nb_streams">1</property>
  <property name="meta.media.0.stream.type">video</property>
  <property name="meta.media.0.stream.frame_rate">60</property>
  <property name="meta.media.0.stream.sample_aspect_ratio">0</property>
  <property name="meta.media.0.codec.width">640</property>
  <property name="meta.media.0.codec.height">360</property>
  <property name="meta.media.0.codec.rotate">0</property>
  <property name="meta.media.0.codec.pix_fmt">yuvj420p</property>
  <property name="meta.media.0.codec.sample_aspect_ratio">0</property>
  <property name="meta.media.0.codec.colorspace">601</property>
  <property name="meta.media.0.codec.name">mjpeg</property>
  <property name="meta.media.0.codec.long_name">MJPEG (Motion JPEG)</property>
  <property name="meta.media.0.codec.bit_rate">0</property>
  <property name="meta.attr.0.stream.HANDLER_NAME.markup">VideoHandler</property>
  <property name="meta.attr.0.stream.VENDOR_ID.markup">[0][0][0][0]</property>
  <property name="meta.attr.0.stream.ENCODER.markup">Lavc60.3.100 mjpeg</property>
  <property name="meta.attr.0.stream.DURATION.markup">00:00:01.000000000</property>
  <property name="meta.attr.COMMENT.markup">Rendered with Manim Community v0.17.2</property>
  <property name="meta.attr.MAJOR_BRAND.markup">isom</property>
  <property name="meta.attr.MINOR_VERSION.markup">512</property>
  <property name="meta.attr.COMPATIBLE_BRANDS.markup">isomiso2avc1mp41</property>
  <property name="meta.attr.ENCODER.markup">Lavf60.3.100</property>
  <property name="seekable">1</property>
  <property name="meta.media.sample_aspect_num">1</property>
  <property name="meta.media.sample_aspect_den">1</property>
  <property name="aspect_ratio">1</property>
  <property name="format">3</property>
  <property name="kdenlive:clipname">20.mp4</property>
  <property name="kdenlive:clip_type">2</property>
  <property name="kdenlive:folderid">488</property>
  <property name="kdenlive:id">392</property>
  <property name="kdenlive:file_size">102571</property>
  <property name="kdenlive:file_hash">02938f9f1f89febcf7071146205ad613</property>
  <property name="kdenlive:proxy">/home/xiaoxiae/.cache/kdenlive/proxy/02938f9f1f89febcf7071146205ad613.mkv</property>
  <property name="kdenlive:originalurl">video/Insertion/20.mp4</property>
  <property name="kdenlive:original.mlt_type">producer</property>
  <property name="kdenlive:original.in">00:00:00.000</property>
  <property name="kdenlive:original.out">00:00:00.983</property>
  <property name="kdenlive:original.length">60</property>
  <property name="kdenlive:original.eof">pause</property>
  <property name="kdenlive:original.resource">video/Insertion/20.mp4</property>
  <property name="kdenlive:original.meta.media.nb_streams">1</property>
  <property name="kdenlive:original.meta.media.0.stream.type">video</property>
  <property name="kdenlive:original.meta.media.0.stream.frame_rate">60</property>
  <property name="kdenlive:original.meta.media.0.stream.sample_aspect_ratio">0</property>
  <property name="kdenlive:original.meta.media.0.codec.width">3840</property>
  <property name="kdenlive:original.meta.media.0.codec.height">2160</property>
  <property name="kdenlive:original.meta.media.0.codec.rotate">0</property>
  <property name="kdenlive:original.meta.media.0.codec.pix_fmt">yuv420p</property>
  <property name="kdenlive:original.meta.media.0.codec.sample_aspect_ratio">0</property>
  <property name="kdenlive:original.meta.media.0.codec.colorspace">709</property>
  <property name="kdenlive:original.meta.media.0.codec.name">h264</property>
  <property name="kdenlive:original.meta.media.0.codec.long_name">H.264 / AVC / MPEG-4 AVC / MPEG-4 part 10</property>
  <property name="kdenlive:original.meta.media.0.codec.bit_rate">807520</property>
  <property name="kdenlive:original.meta.attr.0.stream.handler_name.markup">VideoHandler</property>
  <property name="kdenlive:original.meta.attr.0.stream.vendor_id.markup">[0][0][0][0]</property>
  <property name="kdenlive:original.meta.attr.0.stream.encoder.markup">Lavc60.3.100 libx264</property>
  <property name="kdenlive:original.meta.attr.major_brand.markup">isom</property>
  <property name="kdenlive:original.meta.attr.minor_version.markup">512</property>
  <property name="kdenlive:original.meta.attr.compatible_brands.markup">isomiso2avc1mp41</property>
  <property name="kdenlive:original.meta.attr.encoder.markup">Lavf60.3.100</property>
  <property name="kdenlive:original.meta.attr.comment.markup">Rendered with Manim Community v0.17.2</property>
  <property name="kdenlive:original.seekable">1</property>
  <property name="kdenlive:original.width">3840</property>
  <property name="kdenlive:original.height">2160</property>
  <property name="kdenlive:original.meta.media.sample_aspect_num">1</property>
  <property name="kdenlive:original.meta.media.sample_aspect_den">1</property>
  <property name="kdenlive:original.aspect_ratio">1</property>
  <property name="kdenlive:original.format">3</property>
  <property name="kdenlive:original.audio_index">-1</property>
  <property name="kdenlive:original.video_index">0</property>
  <property name="kdenlive:original.mute_on_pause">0</property>
  <property name="kdenlive:original.mlt_service">avformat-novalidate</property>
  <property name="kdenlive:original.meta.media.frame_rate_num">60</property>
  <property name="kdenlive:original.meta.media.frame_rate_den">1</property>
  <property name="kdenlive:original.meta.media.colorspace">709</property>
  <property name="kdenlive:original.meta.media.color_trc">2</property>
  <property name="kdenlive:original.meta.media.has_b_frames">2</property>
  <property name="kdenlive:original.meta.media.width">3840</property>
  <property name="kdenlive:original.meta.media.height">2160</property>
  <property name="kdenlive:original.meta.media.color_range">mpeg</property>
  <property name="kdenlive:original.meta.media.top_field_first">0</property>
  <property name="kdenlive:original.meta.media.progressive">1</property>
  <property name="kdenlive:original.kdenlive:clip_type">2</property>
  <property name="kdenlive:original.kdenlive:folderid">488</property>
  <property name="kdenlive:original.kdenlive:id">501</property>
  <property name="kdenlive:original.kdenlive:file_size">102571</property>
  <property name="kdenlive:original.kdenlive:file_hash">02938f9f1f89febcf7071146205ad613</property>
  <property name="kdenlive:original.backup">1</property>
  <property name="xml">was here</property>
  <property name="meta.media.frame_rate_num">60</property>
  <property name="meta.media.frame_rate_den">1</property>
  <property name="meta.media.colorspace">601</property>
  <property name="meta.media.color_trc">2</property>
  <property name="meta.media.has_b_frames">0</property>
  <property name="meta.media.width">640</property>
  <property name="meta.media.height">360</property>
  <property name="meta.media.color_range">full</property>
  <property name="meta.media.top_field_first">0</property>
  <property name="meta.media.progressive">1</property>
  <property name="set.test_audio">1</property>
  <property name="set.test_image">0</property>
 </producer>
 <producer id="producer653" in="00:00:00.000" out="00:00:02.233">
  <property name="length">135</property>
  <property name="eof">pause</property>
  <property name="resource">/home/xiaoxiae/.cache/kdenlive/proxy/ee81d2e476f9ed3b2c9612272521ca6c.mkv</property>
  <property name="audio_index">-1</property>
  <property name="video_index">0</property>
  <property name="mute_on_pause">0</property>
  <property name="mlt_service">avformat-novalidate</property>
  <property name="meta.media.nb_streams">1</property>
  <property name="meta.media.0.stream.type">video</property>
  <property name="meta.media.0.stream.frame_rate">60</property>
  <property name="meta.media.0.stream.sample_aspect_ratio">0</property>
  <property name="meta.media.0.codec.width">640</property>
  <property name="meta.media.0.codec.height">360</property>
  <property name="meta.media.0.codec.rotate">0</property>
  <property name="meta.media.0.codec.pix_fmt">yuvj420p</property>
  <property name="meta.media.0.codec.sample_aspect_ratio">0</property>
  <property name="meta.media.0.codec.colorspace">601</property>
  <property name="meta.media.0.codec.name">mjpeg</property>
  <property name="meta.media.0.codec.long_name">MJPEG (Motion JPEG)</property>
  <property name="meta.media.0.codec.bit_rate">0</property>
  <property name="meta.attr.0.stream.HANDLER_NAME.markup">VideoHandler</property>
  <property name="meta.attr.0.stream.VENDOR_ID.markup">[0][0][0][0]</property>
  <property name="meta.attr.0.stream.ENCODER.markup">Lavc60.3.100 mjpeg</property>
  <property name="meta.attr.0.stream.DURATION.markup">00:00:02.250000000</property>
  <property name="meta.attr.COMMENT.markup">Rendered with Manim Community v0.17.2</property>
  <property name="meta.attr.MAJOR_BRAND.markup">isom</property>
  <property name="meta.attr.MINOR_VERSION.markup">512</property>
  <property name="meta.attr.COMPATIBLE_BRANDS.markup">isomiso2avc1mp41</property>
  <property name="meta.attr.ENCODER.markup">Lavf60.3.100</property>
  <property name="seekable">1</property>
  <property name="meta.media.sample_aspect_num">1</property>
  <property name="meta.media.sample_aspect_den">1</property>
  <property name="aspect_ratio">1</property>
  <property name="format">3</property>
  <property name="kdenlive:clipname">21.mp4</property>
  <property name="kdenlive:clip_type">2</property>
  <property name="kdenlive:folderid">488</property>
  <property name="kdenlive:id">393</property>
  <property name="kdenlive:file_size">279114</property>
  <property name="kdenlive:file_hash">ee81d2e476f9ed3b2c9612272521ca6c</property>
  <property name="kdenlive:proxy">/home/xiaoxiae/.cache/kdenlive/proxy/ee81d2e476f9ed3b2c9612272521ca6c.mkv</property>
  <property name="kdenlive:originalurl">video/Insertion/21.mp4</property>
  <property name="kdenlive:original.mlt_type">producer</property>
  <property name="kdenlive:original.in">00:00:00.000</property>
  <property name="kdenlive:original.out">00:00:02.233</property>
  <property name="kdenlive:original.length">135</property>
  <property name="kdenlive:original.eof">pause</property>
  <property name="kdenlive:original.resource">video/Insertion/21.mp4</property>
  <property name="kdenlive:original.meta.media.nb_streams">1</property>
  <property name="kdenlive:original.meta.media.0.stream.type">video</property>
  <property name="kdenlive:original.meta.media.0.stream.frame_rate">60</property>
  <property name="kdenlive:original.meta.media.0.stream.sample_aspect_ratio">0</property>
  <property name="kdenlive:original.meta.media.0.codec.width">3840</property>
  <property name="kdenlive:original.meta.media.0.codec.height">2160</property>
  <property name="kdenlive:original.meta.media.0.codec.rotate">0</property>
  <property name="kdenlive:original.meta.media.0.codec.pix_fmt">yuv420p</property>
  <property name="kdenlive:original.meta.media.0.codec.sample_aspect_ratio">0</property>
  <property name="kdenlive:original.meta.media.0.codec.colorspace">709</property>
  <property name="kdenlive:original.meta.media.0.codec.name">h264</property>
  <property name="kdenlive:original.meta.media.0.codec.long_name">H.264 / AVC / MPEG-4 AVC / MPEG-4 part 10</property>
  <property name="kdenlive:original.meta.media.0.codec.bit_rate">983434</property>
  <property name="kdenlive:original.meta.attr.0.stream.handler_name.markup">VideoHandler</property>
  <property name="kdenlive:original.meta.attr.0.stream.vendor_id.markup">[0][0][0][0]</property>
  <property name="kdenlive:original.meta.attr.0.stream.encoder.markup">Lavc60.3.100 libx264</property>
  <property name="kdenlive:original.meta.attr.major_brand.markup">isom</property>
  <property name="kdenlive:original.meta.attr.minor_version.markup">512</property>
  <property name="kdenlive:original.meta.attr.compatible_brands.markup">isomiso2avc1mp41</property>
  <property name="kdenlive:original.meta.attr.encoder.markup">Lavf60.3.100</property>
  <property name="kdenlive:original.meta.attr.comment.markup">Rendered with Manim Community v0.17.2</property>
  <property name="kdenlive:original.seekable">1</property>
  <property name="kdenlive:original.width">3840</property>
  <property name="kdenlive:original.height">2160</property>
  <property name="kdenlive:original.meta.media.sample_aspect_num">1</property>
  <property name="kdenlive:original.meta.media.sample_aspect_den">1</property>
  <property name="kdenlive:original.aspect_ratio">1</property>
  <property name="kdenlive:original.format">3</property>
  <property name="kdenlive:original.audio_index">-1</property>
  <property name="kdenlive:original.video_index">0</property>
  <property name="kdenlive:original.mute_on_pause">0</property>
  <property name="kdenlive:original.mlt_service">avformat-novalidate</property>
  <property name="kdenlive:original.meta.media.frame_rate_num">60</property>
  <property name="kdenlive:original.meta.media.frame_rate_den">1</property>
  <property name="kdenlive:original.meta.media.colorspace">709</property>
  <property name="kdenlive:original.meta.media.color_trc">2</property>
  <property name="kdenlive:original.meta.media.has_b_frames">2</property>
  <property name="kdenlive:original.meta.media.width">3840</property>
  <property name="kdenlive:original.meta.media.height">2160</property>
  <property name="kdenlive:original.meta.media.color_range">mpeg</property>
  <property name="kdenlive:original.meta.media.top_field_first">0</property>
  <property name="kdenlive:original.meta.media.progressive">1</property>
  <property name="kdenlive:original.kdenlive:clip_type">2</property>
  <property name="kdenlive:original.kdenlive:folderid">488</property>
  <property name="kdenlive:original.kdenlive:id">502</property>
  <property name="kdenlive:original.kdenlive:file_size">279114</property>
  <property name="kdenlive:original.kdenlive:file_hash">ee81d2e476f9ed3b2c9612272521ca6c</property>
  <property name="kdenlive:original.backup">1</property>
  <property name="xml">was here</property>
  <property name="meta.media.frame_rate_num">60</property>
  <property name="meta.media.frame_rate_den">1</property>
  <property name="meta.media.colorspace">601</property>
  <property name="meta.media.color_trc">2</property>
  <property name="meta.media.has_b_frames">0</property>
  <property name="meta.media.width">640</property>
  <property name="meta.media.height">360</property>
  <property name="meta.media.color_range">full</property>
  <property name="meta.media.top_field_first">0</property>
  <property name="meta.media.progressive">1</property>
  <property name="set.test_audio">1</property>
  <property name="set.test_image">0</property>
 </producer>
 <producer id="producer654" in="00:00:00.000" out="00:00:00.983">
  <property name="length">60</property>
  <property name="eof">pause</property>
  <property name="resource">/home/xiaoxiae/.cache/kdenlive/proxy/b138839360e6865d4a6fbc868444b355.mkv</property>
  <property name="audio_index">-1</property>
  <property name="video_index">0</property>
  <property name="mute_on_pause">0</property>
  <property name="mlt_service">avformat-novalidate</property>
  <property name="meta.media.nb_streams">1</property>
  <property name="meta.media.0.stream.type">video</property>
  <property name="meta.media.0.stream.frame_rate">60</property>
  <property name="meta.media.0.stream.sample_aspect_ratio">0</property>
  <property name="meta.media.0.codec.width">640</property>
  <property name="meta.media.0.codec.height">360</property>
  <property name="meta.media.0.codec.rotate">0</property>
  <property name="meta.media.0.codec.pix_fmt">yuvj420p</property>
  <property name="meta.media.0.codec.sample_aspect_ratio">0</property>
  <property name="meta.media.0.codec.colorspace">601</property>
  <property name="meta.media.0.codec.name">mjpeg</property>
  <property name="meta.media.0.codec.long_name">MJPEG (Motion JPEG)</property>
  <property name="meta.media.0.codec.bit_rate">0</property>
  <property name="meta.attr.0.stream.HANDLER_NAME.markup">VideoHandler</property>
  <property name="meta.attr.0.stream.VENDOR_ID.markup">[0][0][0][0]</property>
  <property name="meta.attr.0.stream.ENCODER.markup">Lavc60.3.100 mjpeg</property>
  <property name="meta.attr.0.stream.DURATION.markup">00:00:01.000000000</property>
  <property name="meta.attr.COMMENT.markup">Rendered with Manim Community v0.17.2</property>
  <property name="meta.attr.MAJOR_BRAND.markup">isom</property>
  <property name="meta.attr.MINOR_VERSION.markup">512</property>
  <property name="meta.attr.COMPATIBLE_BRANDS.markup">isomiso2avc1mp41</property>
  <property name="meta.attr.ENCODER.markup">Lavf60.3.100</property>
  <property name="seekable">1</property>
  <property name="meta.media.sample_aspect_num">1</property>
  <property name="meta.media.sample_aspect_den">1</property>
  <property name="aspect_ratio">1</property>
  <property name="format">3</property>
  <property name="kdenlive:clipname">22.mp4</property>
  <property name="kdenlive:clip_type">2</property>
  <property name="kdenlive:folderid">488</property>
  <property name="kdenlive:id">394</property>
  <property name="kdenlive:file_size">98658</property>
  <property name="kdenlive:file_hash">b138839360e6865d4a6fbc868444b355</property>
  <property name="kdenlive:proxy">/home/xiaoxiae/.cache/kdenlive/proxy/b138839360e6865d4a6fbc868444b355.mkv</property>
  <property name="kdenlive:originalurl">video/Insertion/22.mp4</property>
  <property name="kdenlive:original.mlt_type">producer</property>
  <property name="kdenlive:original.in">00:00:00.000</property>
  <property name="kdenlive:original.out">00:00:00.983</property>
  <property name="kdenlive:original.length">60</property>
  <property name="kdenlive:original.eof">pause</property>
  <property name="kdenlive:original.resource">video/Insertion/22.mp4</property>
  <property name="kdenlive:original.meta.media.nb_streams">1</property>
  <property name="kdenlive:original.meta.media.0.stream.type">video</property>
  <property name="kdenlive:original.meta.media.0.stream.frame_rate">60</property>
  <property name="kdenlive:original.meta.media.0.stream.sample_aspect_ratio">0</property>
  <property name="kdenlive:original.meta.media.0.codec.width">3840</property>
  <property name="kdenlive:original.meta.media.0.codec.height">2160</property>
  <property name="kdenlive:original.meta.media.0.codec.rotate">0</property>
  <property name="kdenlive:original.meta.media.0.codec.pix_fmt">yuv420p</property>
  <property name="kdenlive:original.meta.media.0.codec.sample_aspect_ratio">0</property>
  <property name="kdenlive:original.meta.media.0.codec.colorspace">709</property>
  <property name="kdenlive:original.meta.media.0.codec.name">h264</property>
  <property name="kdenlive:original.meta.media.0.codec.long_name">H.264 / AVC / MPEG-4 AVC / MPEG-4 part 10</property>
  <property name="kdenlive:original.meta.media.0.codec.bit_rate">776216</property>
  <property name="kdenlive:original.meta.attr.0.stream.handler_name.markup">VideoHandler</property>
  <property name="kdenlive:original.meta.attr.0.stream.vendor_id.markup">[0][0][0][0]</property>
  <property name="kdenlive:original.meta.attr.0.stream.encoder.markup">Lavc60.3.100 libx264</property>
  <property name="kdenlive:original.meta.attr.major_brand.markup">isom</property>
  <property name="kdenlive:original.meta.attr.minor_version.markup">512</property>
  <property name="kdenlive:original.meta.attr.compatible_brands.markup">isomiso2avc1mp41</property>
  <property name="kdenlive:original.meta.attr.encoder.markup">Lavf60.3.100</property>
  <property name="kdenlive:original.meta.attr.comment.markup">Rendered with Manim Community v0.17.2</property>
  <property name="kdenlive:original.seekable">1</property>
  <property name="kdenlive:original.width">3840</property>
  <property name="kdenlive:original.height">2160</property>
  <property name="kdenlive:original.meta.media.sample_aspect_num">1</property>
  <property name="kdenlive:original.meta.media.sample_aspect_den">1</property>
  <property name="kdenlive:original.aspect_ratio">1</property>
  <property name="kdenlive:original.format">3</property>
  <property name="kdenlive:original.audio_index">-1</property>
  <property name="kdenlive:original.video_index">0</property>
  <property name="kdenlive:original.mute_on_pause">0</property>
  <property name="kdenlive:original.mlt_service">avformat-novalidate</property>
  <property name="kdenlive:original.meta.media.frame_rate_num">60</property>
  <property name="kdenlive:original.meta.media.frame_rate_den">1</property>
  <property name="kdenlive:original.meta.media.colorspace">709</property>
  <property name="kdenlive:original.meta.media.color_trc">2</property>
  <property name="kdenlive:original.meta.media.has_b_frames">2</property>
  <property name="kdenlive:original.meta.media.width">3840</property>
  <property name="kdenlive:original.meta.media.height">2160</property>
  <property name="kdenlive:original.meta.media.color_range">mpeg</property>
  <property name="kdenlive:original.meta.media.top_field_first">0</property>
  <property name="kdenlive:original.meta.media.progressive">1</property>
  <property name="kdenlive:original.kdenlive:clip_type">2</property>
  <property name="kdenlive:original.kdenlive:folderid">488</property>
  <property name="kdenlive:original.kdenlive:id">503</property>
  <property name="kdenlive:original.kdenlive:file_size">98658</property>
  <property name="kdenlive:original.kdenlive:file_hash">b138839360e6865d4a6fbc868444b355</property>
  <property name="kdenlive:original.backup">1</property>
  <property name="xml">was here</property>
  <property name="meta.media.frame_rate_num">60</property>
  <property name="meta.media.frame_rate_den">1</property>
  <property name="meta.media.colorspace">601</property>
  <property name="meta.media.color_trc">2</property>
  <property name="meta.media.has_b_frames">0</property>
  <property name="meta.media.width">640</property>
  <property name="meta.media.height">360</property>
  <property name="meta.media.color_range">full</property>
  <property name="meta.media.top_field_first">0</property>
  <property name="meta.media.progressive">1</property>
  <property name="set.test_audio">1</property>
  <property name="set.test_image">0</property>
 </producer>
 <producer id="producer655" in="00:00:00.000" out="00:00:00.983">
  <property name="length">60</property>
  <property name="eof">pause</property>
  <property name="resource">/home/xiaoxiae/.cache/kdenlive/proxy/e79aac85319b1ab9b2b3cdc33111907c.mkv</property>
  <property name="audio_index">-1</property>
  <property name="video_index">0</property>
  <property name="mute_on_pause">0</property>
  <property name="mlt_service">avformat-novalidate</property>
  <property name="meta.media.nb_streams">1</property>
  <property name="meta.media.0.stream.type">video</property>
  <property name="meta.media.0.stream.frame_rate">60</property>
  <property name="meta.media.0.stream.sample_aspect_ratio">0</property>
  <property name="meta.media.0.codec.width">640</property>
  <property name="meta.media.0.codec.height">360</property>
  <property name="meta.media.0.codec.rotate">0</property>
  <property name="meta.media.0.codec.pix_fmt">yuvj420p</property>
  <property name="meta.media.0.codec.sample_aspect_ratio">0</property>
  <property name="meta.media.0.codec.colorspace">601</property>
  <property name="meta.media.0.codec.name">mjpeg</property>
  <property name="meta.media.0.codec.long_name">MJPEG (Motion JPEG)</property>
  <property name="meta.media.0.codec.bit_rate">0</property>
  <property name="meta.attr.0.stream.HANDLER_NAME.markup">VideoHandler</property>
  <property name="meta.attr.0.stream.VENDOR_ID.markup">[0][0][0][0]</property>
  <property name="meta.attr.0.stream.ENCODER.markup">Lavc60.3.100 mjpeg</property>
  <property name="meta.attr.0.stream.DURATION.markup">00:00:01.000000000</property>
  <property name="meta.attr.COMMENT.markup">Rendered with Manim Community v0.17.2</property>
  <property name="meta.attr.MAJOR_BRAND.markup">isom</property>
  <property name="meta.attr.MINOR_VERSION.markup">512</property>
  <property name="meta.attr.COMPATIBLE_BRANDS.markup">isomiso2avc1mp41</property>
  <property name="meta.attr.ENCODER.markup">Lavf60.3.100</property>
  <property name="seekable">1</property>
  <property name="meta.media.sample_aspect_num">1</property>
  <property name="meta.media.sample_aspect_den">1</property>
  <property name="aspect_ratio">1</property>
  <property name="format">3</property>
  <property name="kdenlive:clipname">23.mp4</property>
  <property name="kdenlive:clip_type">2</property>
  <property name="kdenlive:folderid">488</property>
  <property name="kdenlive:id">395</property>
  <property name="kdenlive:file_size">105120</property>
  <property name="kdenlive:file_hash">e79aac85319b1ab9b2b3cdc33111907c</property>
  <property name="kdenlive:proxy">/home/xiaoxiae/.cache/kdenlive/proxy/e79aac85319b1ab9b2b3cdc33111907c.mkv</property>
  <property name="kdenlive:originalurl">video/Insertion/23.mp4</property>
  <property name="kdenlive:original.mlt_type">producer</property>
  <property name="kdenlive:original.in">00:00:00.000</property>
  <property name="kdenlive:original.out">00:00:00.983</property>
  <property name="kdenlive:original.length">60</property>
  <property name="kdenlive:original.eof">pause</property>
  <property name="kdenlive:original.resource">video/Insertion/23.mp4</property>
  <property name="kdenlive:original.meta.media.nb_streams">1</property>
  <property name="kdenlive:original.meta.media.0.stream.type">video</property>
  <property name="kdenlive:original.meta.media.0.stream.frame_rate">60</property>
  <property name="kdenlive:original.meta.media.0.stream.sample_aspect_ratio">0</property>
  <property name="kdenlive:original.meta.media.0.codec.width">3840</property>
  <property name="kdenlive:original.meta.media.0.codec.height">2160</property>
  <property name="kdenlive:original.meta.media.0.codec.rotate">0</property>
  <property name="kdenlive:original.meta.media.0.codec.pix_fmt">yuv420p</property>
  <property name="kdenlive:original.meta.media.0.codec.sample_aspect_ratio">0</property>
  <property name="kdenlive:original.meta.media.0.codec.colorspace">709</property>
  <property name="kdenlive:original.meta.media.0.codec.name">h264</property>
  <property name="kdenlive:original.meta.media.0.codec.long_name">H.264 / AVC / MPEG-4 AVC / MPEG-4 part 10</property>
  <property name="kdenlive:original.meta.media.0.codec.bit_rate">827912</property>
  <property name="kdenlive:original.meta.attr.0.stream.handler_name.markup">VideoHandler</property>
  <property name="kdenlive:original.meta.attr.0.stream.vendor_id.markup">[0][0][0][0]</property>
  <property name="kdenlive:original.meta.attr.0.stream.encoder.markup">Lavc60.3.100 libx264</property>
  <property name="kdenlive:original.meta.attr.major_brand.markup">isom</property>
  <property name="kdenlive:original.meta.attr.minor_version.markup">512</property>
  <property name="kdenlive:original.meta.attr.compatible_brands.markup">isomiso2avc1mp41</property>
  <property name="kdenlive:original.meta.attr.encoder.markup">Lavf60.3.100</property>
  <property name="kdenlive:original.meta.attr.comment.markup">Rendered with Manim Community v0.17.2</property>
  <property name="kdenlive:original.seekable">1</property>
  <property name="kdenlive:original.width">3840</property>
  <property name="kdenlive:original.height">2160</property>
  <property name="kdenlive:original.meta.media.sample_aspect_num">1</property>
  <property name="kdenlive:original.meta.media.sample_aspect_den">1</property>
  <property name="kdenlive:original.aspect_ratio">1</property>
  <property name="kdenlive:original.format">3</property>
  <property name="kdenlive:original.audio_index">-1</property>
  <property name="kdenlive:original.video_index">0</property>
  <property name="kdenlive:original.mute_on_pause">0</property>
  <property name="kdenlive:original.mlt_service">avformat-novalidate</property>
  <property name="kdenlive:original.meta.media.frame_rate_num">60</property>
  <property name="kdenlive:original.meta.media.frame_rate_den">1</property>
  <property name="kdenlive:original.meta.media.colorspace">709</property>
  <property name="kdenlive:original.meta.media.color_trc">2</property>
  <property name="kdenlive:original.meta.media.has_b_frames">2</property>
  <property name="kdenlive:original.meta.media.width">3840</property>
  <property name="kdenlive:original.meta.media.height">2160</property>
  <property name="kdenlive:original.meta.media.color_range">mpeg</property>
  <property name="kdenlive:original.meta.media.top_field_first">0</property>
  <property name="kdenlive:original.meta.media.progressive">1</property>
  <property name="kdenlive:original.kdenlive:clip_type">2</property>
  <property name="kdenlive:original.kdenlive:folderid">488</property>
  <property name="kdenlive:original.kdenlive:id">504</property>
  <property name="kdenlive:original.kdenlive:file_size">105120</property>
  <property name="kdenlive:original.kdenlive:file_hash">e79aac85319b1ab9b2b3cdc33111907c</property>
  <property name="kdenlive:original.backup">1</property>
  <property name="xml">was here</property>
  <property name="meta.media.frame_rate_num">60</property>
  <property name="meta.media.frame_rate_den">1</property>
  <property name="meta.media.colorspace">601</property>
  <property name="meta.media.color_trc">2</property>
  <property name="meta.media.has_b_frames">0</property>
  <property name="meta.media.width">640</property>
  <property name="meta.media.height">360</property>
  <property name="meta.media.color_range">full</property>
  <property name="meta.media.top_field_first">0</property>
  <property name="meta.media.progressive">1</property>
  <property name="set.test_audio">1</property>
  <property name="set.test_image">0</property>
 </producer>
 <producer id="producer656" in="00:00:00.000" out="00:00:00.983">
  <property name="length">60</property>
  <property name="eof">pause</property>
  <property name="resource">/home/xiaoxiae/.cache/kdenlive/proxy/28f5a240a60a26d931484d465afff02e.mkv</property>
  <property name="audio_index">-1</property>
  <property name="video_index">0</property>
  <property name="mute_on_pause">0</property>
  <property name="mlt_service">avformat-novalidate</property>
  <property name="meta.media.nb_streams">1</property>
  <property name="meta.media.0.stream.type">video</property>
  <property name="meta.media.0.stream.frame_rate">60</property>
  <property name="meta.media.0.stream.sample_aspect_ratio">0</property>
  <property name="meta.media.0.codec.width">640</property>
  <property name="meta.media.0.codec.height">360</property>
  <property name="meta.media.0.codec.rotate">0</property>
  <property name="meta.media.0.codec.pix_fmt">yuvj420p</property>
  <property name="meta.media.0.codec.sample_aspect_ratio">0</property>
  <property name="meta.media.0.codec.colorspace">601</property>
  <property name="meta.media.0.codec.name">mjpeg</property>
  <property name="meta.media.0.codec.long_name">MJPEG (Motion JPEG)</property>
  <property name="meta.media.0.codec.bit_rate">0</property>
  <property name="meta.attr.0.stream.HANDLER_NAME.markup">VideoHandler</property>
  <property name="meta.attr.0.stream.VENDOR_ID.markup">[0][0][0][0]</property>
  <property name="meta.attr.0.stream.ENCODER.markup">Lavc60.3.100 mjpeg</property>
  <property name="meta.attr.0.stream.DURATION.markup">00:00:01.000000000</property>
  <property name="meta.attr.COMMENT.markup">Rendered with Manim Community v0.17.2</property>
  <property name="meta.attr.MAJOR_BRAND.markup">isom</property>
  <property name="meta.attr.MINOR_VERSION.markup">512</property>
  <property name="meta.attr.COMPATIBLE_BRANDS.markup">isomiso2avc1mp41</property>
  <property name="meta.attr.ENCODER.markup">Lavf60.3.100</property>
  <property name="seekable">1</property>
  <property name="meta.media.sample_aspect_num">1</property>
  <property name="meta.media.sample_aspect_den">1</property>
  <property name="aspect_ratio">1</property>
  <property name="format">3</property>
  <property name="kdenlive:clipname">24.mp4</property>
  <property name="kdenlive:clip_type">2</property>
  <property name="kdenlive:folderid">488</property>
  <property name="kdenlive:id">396</property>
  <property name="kdenlive:file_size">73513</property>
  <property name="kdenlive:file_hash">28f5a240a60a26d931484d465afff02e</property>
  <property name="kdenlive:proxy">/home/xiaoxiae/.cache/kdenlive/proxy/28f5a240a60a26d931484d465afff02e.mkv</property>
  <property name="kdenlive:originalurl">video/Insertion/24.mp4</property>
  <property name="kdenlive:original.mlt_type">producer</property>
  <property name="kdenlive:original.in">00:00:00.000</property>
  <property name="kdenlive:original.out">00:00:00.983</property>
  <property name="kdenlive:original.length">60</property>
  <property name="kdenlive:original.eof">pause</property>
  <property name="kdenlive:original.resource">video/Insertion/24.mp4</property>
  <property name="kdenlive:original.meta.media.nb_streams">1</property>
  <property name="kdenlive:original.meta.media.0.stream.type">video</property>
  <property name="kdenlive:original.meta.media.0.stream.frame_rate">60</property>
  <property name="kdenlive:original.meta.media.0.stream.sample_aspect_ratio">0</property>
  <property name="kdenlive:original.meta.media.0.codec.width">3840</property>
  <property name="kdenlive:original.meta.media.0.codec.height">2160</property>
  <property name="kdenlive:original.meta.media.0.codec.rotate">0</property>
  <property name="kdenlive:original.meta.media.0.codec.pix_fmt">yuv420p</property>
  <property name="kdenlive:original.meta.media.0.codec.sample_aspect_ratio">0</property>
  <property name="kdenlive:original.meta.media.0.codec.colorspace">709</property>
  <property name="kdenlive:original.meta.media.0.codec.name">h264</property>
  <property name="kdenlive:original.meta.media.0.codec.long_name">H.264 / AVC / MPEG-4 AVC / MPEG-4 part 10</property>
  <property name="kdenlive:original.meta.media.0.codec.bit_rate">575056</property>
  <property name="kdenlive:original.meta.attr.0.stream.handler_name.markup">VideoHandler</property>
  <property name="kdenlive:original.meta.attr.0.stream.vendor_id.markup">[0][0][0][0]</property>
  <property name="kdenlive:original.meta.attr.0.stream.encoder.markup">Lavc60.3.100 libx264</property>
  <property name="kdenlive:original.meta.attr.major_brand.markup">isom</property>
  <property name="kdenlive:original.meta.attr.minor_version.markup">512</property>
  <property name="kdenlive:original.meta.attr.compatible_brands.markup">isomiso2avc1mp41</property>
  <property name="kdenlive:original.meta.attr.encoder.markup">Lavf60.3.100</property>
  <property name="kdenlive:original.meta.attr.comment.markup">Rendered with Manim Community v0.17.2</property>
  <property name="kdenlive:original.seekable">1</property>
  <property name="kdenlive:original.width">3840</property>
  <property name="kdenlive:original.height">2160</property>
  <property name="kdenlive:original.meta.media.sample_aspect_num">1</property>
  <property name="kdenlive:original.meta.media.sample_aspect_den">1</property>
  <property name="kdenlive:original.aspect_ratio">1</property>
  <property name="kdenlive:original.format">3</property>
  <property name="kdenlive:original.audio_index">-1</property>
  <property name="kdenlive:original.video_index">0</property>
  <property name="kdenlive:original.mute_on_pause">0</property>
  <property name="kdenlive:original.mlt_service">avformat-novalidate</property>
  <property name="kdenlive:original.meta.media.frame_rate_num">60</property>
  <property name="kdenlive:original.meta.media.frame_rate_den">1</property>
  <property name="kdenlive:original.meta.media.colorspace">709</property>
  <property name="kdenlive:original.meta.media.color_trc">2</property>
  <property name="kdenlive:original.meta.media.has_b_frames">2</property>
  <property name="kdenlive:original.meta.media.width">3840</property>
  <property name="kdenlive:original.meta.media.height">2160</property>
  <property name="kdenlive:original.meta.media.color_range">mpeg</property>
  <property name="kdenlive:original.meta.media.top_field_first">0</property>
  <property name="kdenlive:original.meta.media.progressive">1</property>
  <property name="kdenlive:original.kdenlive:clip_type">2</property>
  <property name="kdenlive:original.kdenlive:folderid">488</property>
  <property name="kdenlive:original.kdenlive:id">505</property>
  <property name="kdenlive:original.kdenlive:file_size">73513</property>
  <property name="kdenlive:original.kdenlive:file_hash">28f5a240a60a26d931484d465afff02e</property>
  <property name="kdenlive:original.backup">1</property>
  <property name="xml">was here</property>
  <property name="meta.media.frame_rate_num">60</property>
  <property name="meta.media.frame_rate_den">1</property>
  <property name="meta.media.colorspace">601</property>
  <property name="meta.media.color_trc">2</property>
  <property name="meta.media.has_b_frames">0</property>
  <property name="meta.media.width">640</property>
  <property name="meta.media.height">360</property>
  <property name="meta.media.color_range">full</property>
  <property name="meta.media.top_field_first">0</property>
  <property name="meta.media.progressive">1</property>
  <property name="set.test_audio">1</property>
  <property name="set.test_image">0</property>
 </producer>
 <producer id="producer657" in="00:00:00.000" out="00:00:01.483">
  <property name="length">90</property>
  <property name="eof">pause</property>
  <property name="resource">/home/xiaoxiae/.cache/kdenlive/proxy/bc147e28174224ce9ebd2f10cac43758.mkv</property>
  <property name="audio_index">-1</property>
  <property name="video_index">0</property>
  <property name="mute_on_pause">0</property>
  <property name="mlt_service">avformat-novalidate</property>
  <property name="meta.media.nb_streams">1</property>
  <property name="meta.media.0.stream.type">video</property>
  <property name="meta.media.0.stream.frame_rate">60</property>
  <property name="meta.media.0.stream.sample_aspect_ratio">0</property>
  <property name="meta.media.0.codec.width">640</property>
  <property name="meta.media.0.codec.height">360</property>
  <property name="meta.media.0.codec.rotate">0</property>
  <property name="meta.media.0.codec.pix_fmt">yuvj420p</property>
  <property name="meta.media.0.codec.sample_aspect_ratio">0</property>
  <property name="meta.media.0.codec.colorspace">601</property>
  <property name="meta.media.0.codec.name">mjpeg</property>
  <property name="meta.media.0.codec.long_name">MJPEG (Motion JPEG)</property>
  <property name="meta.media.0.codec.bit_rate">0</property>
  <property name="meta.attr.0.stream.HANDLER_NAME.markup">VideoHandler</property>
  <property name="meta.attr.0.stream.VENDOR_ID.markup">[0][0][0][0]</property>
  <property name="meta.attr.0.stream.ENCODER.markup">Lavc60.3.100 mjpeg</property>
  <property name="meta.attr.0.stream.DURATION.markup">00:00:01.500000000</property>
  <property name="meta.attr.COMMENT.markup">Rendered with Manim Community v0.17.2</property>
  <property name="meta.attr.MAJOR_BRAND.markup">isom</property>
  <property name="meta.attr.MINOR_VERSION.markup">512</property>
  <property name="meta.attr.COMPATIBLE_BRANDS.markup">isomiso2avc1mp41</property>
  <property name="meta.attr.ENCODER.markup">Lavf60.3.100</property>
  <property name="seekable">1</property>
  <property name="meta.media.sample_aspect_num">1</property>
  <property name="meta.media.sample_aspect_den">1</property>
  <property name="aspect_ratio">1</property>
  <property name="format">3</property>
  <property name="kdenlive:clipname">25.mp4</property>
  <property name="kdenlive:clip_type">2</property>
  <property name="kdenlive:folderid">488</property>
  <property name="kdenlive:id">397</property>
  <property name="kdenlive:file_size">217882</property>
  <property name="kdenlive:file_hash">bc147e28174224ce9ebd2f10cac43758</property>
  <property name="kdenlive:proxy">/home/xiaoxiae/.cache/kdenlive/proxy/bc147e28174224ce9ebd2f10cac43758.mkv</property>
  <property name="kdenlive:originalurl">video/Insertion/25.mp4</property>
  <property name="kdenlive:original.mlt_type">producer</property>
  <property name="kdenlive:original.in">00:00:00.000</property>
  <property name="kdenlive:original.out">00:00:01.483</property>
  <property name="kdenlive:original.length">90</property>
  <property name="kdenlive:original.eof">pause</property>
  <property name="kdenlive:original.resource">video/Insertion/25.mp4</property>
  <property name="kdenlive:original.meta.media.nb_streams">1</property>
  <property name="kdenlive:original.meta.media.0.stream.type">video</property>
  <property name="kdenlive:original.meta.media.0.stream.frame_rate">60</property>
  <property name="kdenlive:original.meta.media.0.stream.sample_aspect_ratio">0</property>
  <property name="kdenlive:original.meta.media.0.codec.width">3840</property>
  <property name="kdenlive:original.meta.media.0.codec.height">2160</property>
  <property name="kdenlive:original.meta.media.0.codec.rotate">0</property>
  <property name="kdenlive:original.meta.media.0.codec.pix_fmt">yuv420p</property>
  <property name="kdenlive:original.meta.media.0.codec.sample_aspect_ratio">0</property>
  <property name="kdenlive:original.meta.media.0.codec.colorspace">709</property>
  <property name="kdenlive:original.meta.media.0.codec.name">h264</property>
  <property name="kdenlive:original.meta.media.0.codec.long_name">H.264 / AVC / MPEG-4 AVC / MPEG-4 part 10</property>
  <property name="kdenlive:original.meta.media.0.codec.bit_rate">1151461</property>
  <property name="kdenlive:original.meta.attr.0.stream.handler_name.markup">VideoHandler</property>
  <property name="kdenlive:original.meta.attr.0.stream.vendor_id.markup">[0][0][0][0]</property>
  <property name="kdenlive:original.meta.attr.0.stream.encoder.markup">Lavc60.3.100 libx264</property>
  <property name="kdenlive:original.meta.attr.major_brand.markup">isom</property>
  <property name="kdenlive:original.meta.attr.minor_version.markup">512</property>
  <property name="kdenlive:original.meta.attr.compatible_brands.markup">isomiso2avc1mp41</property>
  <property name="kdenlive:original.meta.attr.encoder.markup">Lavf60.3.100</property>
  <property name="kdenlive:original.meta.attr.comment.markup">Rendered with Manim Community v0.17.2</property>
  <property name="kdenlive:original.seekable">1</property>
  <property name="kdenlive:original.width">3840</property>
  <property name="kdenlive:original.height">2160</property>
  <property name="kdenlive:original.meta.media.sample_aspect_num">1</property>
  <property name="kdenlive:original.meta.media.sample_aspect_den">1</property>
  <property name="kdenlive:original.aspect_ratio">1</property>
  <property name="kdenlive:original.format">3</property>
  <property name="kdenlive:original.audio_index">-1</property>
  <property name="kdenlive:original.video_index">0</property>
  <property name="kdenlive:original.mute_on_pause">0</property>
  <property name="kdenlive:original.mlt_service">avformat-novalidate</property>
  <property name="kdenlive:original.meta.media.frame_rate_num">60</property>
  <property name="kdenlive:original.meta.media.frame_rate_den">1</property>
  <property name="kdenlive:original.meta.media.colorspace">709</property>
  <property name="kdenlive:original.meta.media.color_trc">2</property>
  <property name="kdenlive:original.meta.media.has_b_frames">2</property>
  <property name="kdenlive:original.meta.media.width">3840</property>
  <property name="kdenlive:original.meta.media.height">2160</property>
  <property name="kdenlive:original.meta.media.color_range">mpeg</property>
  <property name="kdenlive:original.meta.media.top_field_first">0</property>
  <property name="kdenlive:original.meta.media.progressive">1</property>
  <property name="kdenlive:original.kdenlive:clip_type">2</property>
  <property name="kdenlive:original.kdenlive:folderid">488</property>
  <property name="kdenlive:original.kdenlive:id">506</property>
  <property name="kdenlive:original.kdenlive:file_size">217882</property>
  <property name="kdenlive:original.kdenlive:file_hash">bc147e28174224ce9ebd2f10cac43758</property>
  <property name="kdenlive:original.backup">1</property>
  <property name="xml">was here</property>
  <property name="meta.media.frame_rate_num">60</property>
  <property name="meta.media.frame_rate_den">1</property>
  <property name="meta.media.colorspace">601</property>
  <property name="meta.media.color_trc">2</property>
  <property name="meta.media.has_b_frames">0</property>
  <property name="meta.media.width">640</property>
  <property name="meta.media.height">360</property>
  <property name="meta.media.color_range">full</property>
  <property name="meta.media.top_field_first">0</property>
  <property name="meta.media.progressive">1</property>
  <property name="set.test_audio">1</property>
  <property name="set.test_image">0</property>
 </producer>
 <producer id="producer658" in="00:00:00.000" out="00:00:00.983">
  <property name="length">60</property>
  <property name="eof">pause</property>
  <property name="resource">/home/xiaoxiae/.cache/kdenlive/proxy/9c2203de614f1890c885157f94f77173.mkv</property>
  <property name="audio_index">-1</property>
  <property name="video_index">0</property>
  <property name="mute_on_pause">0</property>
  <property name="mlt_service">avformat-novalidate</property>
  <property name="meta.media.nb_streams">1</property>
  <property name="meta.media.0.stream.type">video</property>
  <property name="meta.media.0.stream.frame_rate">60</property>
  <property name="meta.media.0.stream.sample_aspect_ratio">0</property>
  <property name="meta.media.0.codec.width">640</property>
  <property name="meta.media.0.codec.height">360</property>
  <property name="meta.media.0.codec.rotate">0</property>
  <property name="meta.media.0.codec.pix_fmt">yuvj420p</property>
  <property name="meta.media.0.codec.sample_aspect_ratio">0</property>
  <property name="meta.media.0.codec.colorspace">601</property>
  <property name="meta.media.0.codec.name">mjpeg</property>
  <property name="meta.media.0.codec.long_name">MJPEG (Motion JPEG)</property>
  <property name="meta.media.0.codec.bit_rate">0</property>
  <property name="meta.attr.0.stream.HANDLER_NAME.markup">VideoHandler</property>
  <property name="meta.attr.0.stream.VENDOR_ID.markup">[0][0][0][0]</property>
  <property name="meta.attr.0.stream.ENCODER.markup">Lavc60.3.100 mjpeg</property>
  <property name="meta.attr.0.stream.DURATION.markup">00:00:01.000000000</property>
  <property name="meta.attr.COMMENT.markup">Rendered with Manim Community v0.17.2</property>
  <property name="meta.attr.MAJOR_BRAND.markup">isom</property>
  <property name="meta.attr.MINOR_VERSION.markup">512</property>
  <property name="meta.attr.COMPATIBLE_BRANDS.markup">isomiso2avc1mp41</property>
  <property name="meta.attr.ENCODER.markup">Lavf60.3.100</property>
  <property name="seekable">1</property>
  <property name="meta.media.sample_aspect_num">1</property>
  <property name="meta.media.sample_aspect_den">1</property>
  <property name="aspect_ratio">1</property>
  <property name="format">3</property>
  <property name="kdenlive:clipname">26.mp4</property>
  <property name="kdenlive:clip_type">2</property>
  <property name="kdenlive:folderid">488</property>
  <property name="kdenlive:id">398</property>
  <property name="kdenlive:file_size">78848</property>
  <property name="kdenlive:file_hash">9c2203de614f1890c885157f94f77173</property>
  <property name="kdenlive:proxy">/home/xiaoxiae/.cache/kdenlive/proxy/9c2203de614f1890c885157f94f77173.mkv</property>
  <property name="kdenlive:originalurl">video/Insertion/26.mp4</property>
  <property name="kdenlive:original.mlt_type">producer</property>
  <property name="kdenlive:original.in">00:00:00.000</property>
  <property name="kdenlive:original.out">00:00:00.983</property>
  <property name="kdenlive:original.length">60</property>
  <property name="kdenlive:original.eof">pause</property>
  <property name="kdenlive:original.resource">video/Insertion/26.mp4</property>
  <property name="kdenlive:original.meta.media.nb_streams">1</property>
  <property name="kdenlive:original.meta.media.0.stream.type">video</property>
  <property name="kdenlive:original.meta.media.0.stream.frame_rate">60</property>
  <property name="kdenlive:original.meta.media.0.stream.sample_aspect_ratio">0</property>
  <property name="kdenlive:original.meta.media.0.codec.width">3840</property>
  <property name="kdenlive:original.meta.media.0.codec.height">2160</property>
  <property name="kdenlive:original.meta.media.0.codec.rotate">0</property>
  <property name="kdenlive:original.meta.media.0.codec.pix_fmt">yuv420p</property>
  <property name="kdenlive:original.meta.media.0.codec.sample_aspect_ratio">0</property>
  <property name="kdenlive:original.meta.media.0.codec.colorspace">709</property>
  <property name="kdenlive:original.meta.media.0.codec.name">h264</property>
  <property name="kdenlive:original.meta.media.0.codec.long_name">H.264 / AVC / MPEG-4 AVC / MPEG-4 part 10</property>
  <property name="kdenlive:original.meta.media.0.codec.bit_rate">617736</property>
  <property name="kdenlive:original.meta.attr.0.stream.handler_name.markup">VideoHandler</property>
  <property name="kdenlive:original.meta.attr.0.stream.vendor_id.markup">[0][0][0][0]</property>
  <property name="kdenlive:original.meta.attr.0.stream.encoder.markup">Lavc60.3.100 libx264</property>
  <property name="kdenlive:original.meta.attr.major_brand.markup">isom</property>
  <property name="kdenlive:original.meta.attr.minor_version.markup">512</property>
  <property name="kdenlive:original.meta.attr.compatible_brands.markup">isomiso2avc1mp41</property>
  <property name="kdenlive:original.meta.attr.encoder.markup">Lavf60.3.100</property>
  <property name="kdenlive:original.meta.attr.comment.markup">Rendered with Manim Community v0.17.2</property>
  <property name="kdenlive:original.seekable">1</property>
  <property name="kdenlive:original.width">3840</property>
  <property name="kdenlive:original.height">2160</property>
  <property name="kdenlive:original.meta.media.sample_aspect_num">1</property>
  <property name="kdenlive:original.meta.media.sample_aspect_den">1</property>
  <property name="kdenlive:original.aspect_ratio">1</property>
  <property name="kdenlive:original.format">3</property>
  <property name="kdenlive:original.audio_index">-1</property>
  <property name="kdenlive:original.video_index">0</property>
  <property name="kdenlive:original.mute_on_pause">0</property>
  <property name="kdenlive:original.mlt_service">avformat-novalidate</property>
  <property name="kdenlive:original.meta.media.frame_rate_num">60</property>
  <property name="kdenlive:original.meta.media.frame_rate_den">1</property>
  <property name="kdenlive:original.meta.media.colorspace">709</property>
  <property name="kdenlive:original.meta.media.color_trc">2</property>
  <property name="kdenlive:original.meta.media.has_b_frames">2</property>
  <property name="kdenlive:original.meta.media.width">3840</property>
  <property name="kdenlive:original.meta.media.height">2160</property>
  <property name="kdenlive:original.meta.media.color_range">mpeg</property>
  <property name="kdenlive:original.meta.media.top_field_first">0</property>
  <property name="kdenlive:original.meta.media.progressive">1</property>
  <property name="kdenlive:original.kdenlive:clip_type">2</property>
  <property name="kdenlive:original.kdenlive:folderid">488</property>
  <property name="kdenlive:original.kdenlive:id">507</property>
  <property name="kdenlive:original.kdenlive:file_size">78848</property>
  <property name="kdenlive:original.kdenlive:file_hash">9c2203de614f1890c885157f94f77173</property>
  <property name="kdenlive:original.backup">1</property>
  <property name="xml">was here</property>
  <property name="meta.media.frame_rate_num">60</property>
  <property name="meta.media.frame_rate_den">1</property>
  <property name="meta.media.colorspace">601</property>
  <property name="meta.media.color_trc">2</property>
  <property name="meta.media.has_b_frames">0</property>
  <property name="meta.media.width">640</property>
  <property name="meta.media.height">360</property>
  <property name="meta.media.color_range">full</property>
  <property name="meta.media.top_field_first">0</property>
  <property name="meta.media.progressive">1</property>
  <property name="set.test_audio">1</property>
  <property name="set.test_image">0</property>
 </producer>
 <producer id="producer659" in="00:00:00.000" out="00:00:01.483">
  <property name="length">90</property>
  <property name="eof">pause</property>
  <property name="resource">/home/xiaoxiae/.cache/kdenlive/proxy/6cd2d6da9d16a29a13998360d2beb85e.mkv</property>
  <property name="audio_index">-1</property>
  <property name="video_index">0</property>
  <property name="mute_on_pause">0</property>
  <property name="mlt_service">avformat-novalidate</property>
  <property name="meta.media.nb_streams">1</property>
  <property name="meta.media.0.stream.type">video</property>
  <property name="meta.media.0.stream.frame_rate">60</property>
  <property name="meta.media.0.stream.sample_aspect_ratio">0</property>
  <property name="meta.media.0.codec.width">640</property>
  <property name="meta.media.0.codec.height">360</property>
  <property name="meta.media.0.codec.rotate">0</property>
  <property name="meta.media.0.codec.pix_fmt">yuvj420p</property>
  <property name="meta.media.0.codec.sample_aspect_ratio">0</property>
  <property name="meta.media.0.codec.colorspace">601</property>
  <property name="meta.media.0.codec.name">mjpeg</property>
  <property name="meta.media.0.codec.long_name">MJPEG (Motion JPEG)</property>
  <property name="meta.media.0.codec.bit_rate">0</property>
  <property name="meta.attr.0.stream.HANDLER_NAME.markup">VideoHandler</property>
  <property name="meta.attr.0.stream.VENDOR_ID.markup">[0][0][0][0]</property>
  <property name="meta.attr.0.stream.ENCODER.markup">Lavc60.3.100 mjpeg</property>
  <property name="meta.attr.0.stream.DURATION.markup">00:00:01.500000000</property>
  <property name="meta.attr.COMMENT.markup">Rendered with Manim Community v0.17.2</property>
  <property name="meta.attr.MAJOR_BRAND.markup">isom</property>
  <property name="meta.attr.MINOR_VERSION.markup">512</property>
  <property name="meta.attr.COMPATIBLE_BRANDS.markup">isomiso2avc1mp41</property>
  <property name="meta.attr.ENCODER.markup">Lavf60.3.100</property>
  <property name="seekable">1</property>
  <property name="meta.media.sample_aspect_num">1</property>
  <property name="meta.media.sample_aspect_den">1</property>
  <property name="aspect_ratio">1</property>
  <property name="format">3</property>
  <property name="kdenlive:clipname">27.mp4</property>
  <property name="kdenlive:clip_type">2</property>
  <property name="kdenlive:folderid">488</property>
  <property name="kdenlive:id">399</property>
  <property name="kdenlive:file_size">242101</property>
  <property name="kdenlive:file_hash">6cd2d6da9d16a29a13998360d2beb85e</property>
  <property name="kdenlive:proxy">/home/xiaoxiae/.cache/kdenlive/proxy/6cd2d6da9d16a29a13998360d2beb85e.mkv</property>
  <property name="kdenlive:originalurl">video/Insertion/27.mp4</property>
  <property name="kdenlive:original.mlt_type">producer</property>
  <property name="kdenlive:original.in">00:00:00.000</property>
  <property name="kdenlive:original.out">00:00:01.483</property>
  <property name="kdenlive:original.length">90</property>
  <property name="kdenlive:original.eof">pause</property>
  <property name="kdenlive:original.resource">video/Insertion/27.mp4</property>
  <property name="kdenlive:original.meta.media.nb_streams">1</property>
  <property name="kdenlive:original.meta.media.0.stream.type">video</property>
  <property name="kdenlive:original.meta.media.0.stream.frame_rate">60</property>
  <property name="kdenlive:original.meta.media.0.stream.sample_aspect_ratio">0</property>
  <property name="kdenlive:original.meta.media.0.codec.width">3840</property>
  <property name="kdenlive:original.meta.media.0.codec.height">2160</property>
  <property name="kdenlive:original.meta.media.0.codec.rotate">0</property>
  <property name="kdenlive:original.meta.media.0.codec.pix_fmt">yuv420p</property>
  <property name="kdenlive:original.meta.media.0.codec.sample_aspect_ratio">0</property>
  <property name="kdenlive:original.meta.media.0.codec.colorspace">709</property>
  <property name="kdenlive:original.meta.media.0.codec.name">h264</property>
  <property name="kdenlive:original.meta.media.0.codec.long_name">H.264 / AVC / MPEG-4 AVC / MPEG-4 part 10</property>
  <property name="kdenlive:original.meta.media.0.codec.bit_rate">1280672</property>
  <property name="kdenlive:original.meta.attr.0.stream.handler_name.markup">VideoHandler</property>
  <property name="kdenlive:original.meta.attr.0.stream.vendor_id.markup">[0][0][0][0]</property>
  <property name="kdenlive:original.meta.attr.0.stream.encoder.markup">Lavc60.3.100 libx264</property>
  <property name="kdenlive:original.meta.attr.major_brand.markup">isom</property>
  <property name="kdenlive:original.meta.attr.minor_version.markup">512</property>
  <property name="kdenlive:original.meta.attr.compatible_brands.markup">isomiso2avc1mp41</property>
  <property name="kdenlive:original.meta.attr.encoder.markup">Lavf60.3.100</property>
  <property name="kdenlive:original.meta.attr.comment.markup">Rendered with Manim Community v0.17.2</property>
  <property name="kdenlive:original.seekable">1</property>
  <property name="kdenlive:original.width">3840</property>
  <property name="kdenlive:original.height">2160</property>
  <property name="kdenlive:original.meta.media.sample_aspect_num">1</property>
  <property name="kdenlive:original.meta.media.sample_aspect_den">1</property>
  <property name="kdenlive:original.aspect_ratio">1</property>
  <property name="kdenlive:original.format">3</property>
  <property name="kdenlive:original.audio_index">-1</property>
  <property name="kdenlive:original.video_index">0</property>
  <property name="kdenlive:original.mute_on_pause">0</property>
  <property name="kdenlive:original.mlt_service">avformat-novalidate</property>
  <property name="kdenlive:original.meta.media.frame_rate_num">60</property>
  <property name="kdenlive:original.meta.media.frame_rate_den">1</property>
  <property name="kdenlive:original.meta.media.colorspace">709</property>
  <property name="kdenlive:original.meta.media.color_trc">2</property>
  <property name="kdenlive:original.meta.media.has_b_frames">2</property>
  <property name="kdenlive:original.meta.media.width">3840</property>
  <property name="kdenlive:original.meta.media.height">2160</property>
  <property name="kdenlive:original.meta.media.color_range">mpeg</property>
  <property name="kdenlive:original.meta.media.top_field_first">0</property>
  <property name="kdenlive:original.meta.media.progressive">1</property>
  <property name="kdenlive:original.kdenlive:clip_type">2</property>
  <property name="kdenlive:original.kdenlive:folderid">488</property>
  <property name="kdenlive:original.kdenlive:id">508</property>
  <property name="kdenlive:original.kdenlive:file_size">242101</property>
  <property name="kdenlive:original.kdenlive:file_hash">6cd2d6da9d16a29a13998360d2beb85e</property>
  <property name="kdenlive:original.backup">1</property>
  <property name="xml">was here</property>
  <property name="meta.media.frame_rate_num">60</property>
  <property name="meta.media.frame_rate_den">1</property>
  <property name="meta.media.colorspace">601</property>
  <property name="meta.media.color_trc">2</property>
  <property name="meta.media.has_b_frames">0</property>
  <property name="meta.media.width">640</property>
  <property name="meta.media.height">360</property>
  <property name="meta.media.color_range">full</property>
  <property name="meta.media.top_field_first">0</property>
  <property name="meta.media.progressive">1</property>
  <property name="set.test_audio">1</property>
  <property name="set.test_image">0</property>
 </producer>
 <producer id="producer660" in="00:00:00.000" out="00:00:00.983">
  <property name="length">60</property>
  <property name="eof">pause</property>
  <property name="resource">/home/xiaoxiae/.cache/kdenlive/proxy/0b98d4c623ce8d4a58d7a65153cae5f4.mkv</property>
  <property name="audio_index">-1</property>
  <property name="video_index">0</property>
  <property name="mute_on_pause">0</property>
  <property name="mlt_service">avformat-novalidate</property>
  <property name="meta.media.nb_streams">1</property>
  <property name="meta.media.0.stream.type">video</property>
  <property name="meta.media.0.stream.frame_rate">60</property>
  <property name="meta.media.0.stream.sample_aspect_ratio">0</property>
  <property name="meta.media.0.codec.width">640</property>
  <property name="meta.media.0.codec.height">360</property>
  <property name="meta.media.0.codec.rotate">0</property>
  <property name="meta.media.0.codec.pix_fmt">yuvj420p</property>
  <property name="meta.media.0.codec.sample_aspect_ratio">0</property>
  <property name="meta.media.0.codec.colorspace">601</property>
  <property name="meta.media.0.codec.name">mjpeg</property>
  <property name="meta.media.0.codec.long_name">MJPEG (Motion JPEG)</property>
  <property name="meta.media.0.codec.bit_rate">0</property>
  <property name="meta.attr.0.stream.HANDLER_NAME.markup">VideoHandler</property>
  <property name="meta.attr.0.stream.VENDOR_ID.markup">[0][0][0][0]</property>
  <property name="meta.attr.0.stream.ENCODER.markup">Lavc60.3.100 mjpeg</property>
  <property name="meta.attr.0.stream.DURATION.markup">00:00:01.000000000</property>
  <property name="meta.attr.COMMENT.markup">Rendered with Manim Community v0.17.2</property>
  <property name="meta.attr.MAJOR_BRAND.markup">isom</property>
  <property name="meta.attr.MINOR_VERSION.markup">512</property>
  <property name="meta.attr.COMPATIBLE_BRANDS.markup">isomiso2avc1mp41</property>
  <property name="meta.attr.ENCODER.markup">Lavf60.3.100</property>
  <property name="seekable">1</property>
  <property name="meta.media.sample_aspect_num">1</property>
  <property name="meta.media.sample_aspect_den">1</property>
  <property name="aspect_ratio">1</property>
  <property name="format">3</property>
  <property name="kdenlive:clipname">28.mp4</property>
  <property name="kdenlive:clip_type">2</property>
  <property name="kdenlive:folderid">488</property>
  <property name="kdenlive:id">400</property>
  <property name="kdenlive:file_size">115431</property>
  <property name="kdenlive:file_hash">0b98d4c623ce8d4a58d7a65153cae5f4</property>
  <property name="kdenlive:proxy">/home/xiaoxiae/.cache/kdenlive/proxy/0b98d4c623ce8d4a58d7a65153cae5f4.mkv</property>
  <property name="kdenlive:originalurl">video/Insertion/28.mp4</property>
  <property name="kdenlive:original.mlt_type">producer</property>
  <property name="kdenlive:original.in">00:00:00.000</property>
  <property name="kdenlive:original.out">00:00:00.983</property>
  <property name="kdenlive:original.length">60</property>
  <property name="kdenlive:original.eof">pause</property>
  <property name="kdenlive:original.resource">video/Insertion/28.mp4</property>
  <property name="kdenlive:original.meta.media.nb_streams">1</property>
  <property name="kdenlive:original.meta.media.0.stream.type">video</property>
  <property name="kdenlive:original.meta.media.0.stream.frame_rate">60</property>
  <property name="kdenlive:original.meta.media.0.stream.sample_aspect_ratio">0</property>
  <property name="kdenlive:original.meta.media.0.codec.width">3840</property>
  <property name="kdenlive:original.meta.media.0.codec.height">2160</property>
  <property name="kdenlive:original.meta.media.0.codec.rotate">0</property>
  <property name="kdenlive:original.meta.media.0.codec.pix_fmt">yuv420p</property>
  <property name="kdenlive:original.meta.media.0.codec.sample_aspect_ratio">0</property>
  <property name="kdenlive:original.meta.media.0.codec.colorspace">709</property>
  <property name="kdenlive:original.meta.media.0.codec.name">h264</property>
  <property name="kdenlive:original.meta.media.0.codec.long_name">H.264 / AVC / MPEG-4 AVC / MPEG-4 part 10</property>
  <property name="kdenlive:original.meta.media.0.codec.bit_rate">910400</property>
  <property name="kdenlive:original.meta.attr.0.stream.handler_name.markup">VideoHandler</property>
  <property name="kdenlive:original.meta.attr.0.stream.vendor_id.markup">[0][0][0][0]</property>
  <property name="kdenlive:original.meta.attr.0.stream.encoder.markup">Lavc60.3.100 libx264</property>
  <property name="kdenlive:original.meta.attr.major_brand.markup">isom</property>
  <property name="kdenlive:original.meta.attr.minor_version.markup">512</property>
  <property name="kdenlive:original.meta.attr.compatible_brands.markup">isomiso2avc1mp41</property>
  <property name="kdenlive:original.meta.attr.encoder.markup">Lavf60.3.100</property>
  <property name="kdenlive:original.meta.attr.comment.markup">Rendered with Manim Community v0.17.2</property>
  <property name="kdenlive:original.seekable">1</property>
  <property name="kdenlive:original.width">3840</property>
  <property name="kdenlive:original.height">2160</property>
  <property name="kdenlive:original.meta.media.sample_aspect_num">1</property>
  <property name="kdenlive:original.meta.media.sample_aspect_den">1</property>
  <property name="kdenlive:original.aspect_ratio">1</property>
  <property name="kdenlive:original.format">3</property>
  <property name="kdenlive:original.audio_index">-1</property>
  <property name="kdenlive:original.video_index">0</property>
  <property name="kdenlive:original.mute_on_pause">0</property>
  <property name="kdenlive:original.mlt_service">avformat-novalidate</property>
  <property name="kdenlive:original.meta.media.frame_rate_num">60</property>
  <property name="kdenlive:original.meta.media.frame_rate_den">1</property>
  <property name="kdenlive:original.meta.media.colorspace">709</property>
  <property name="kdenlive:original.meta.media.color_trc">2</property>
  <property name="kdenlive:original.meta.media.has_b_frames">2</property>
  <property name="kdenlive:original.meta.media.width">3840</property>
  <property name="kdenlive:original.meta.media.height">2160</property>
  <property name="kdenlive:original.meta.media.color_range">mpeg</property>
  <property name="kdenlive:original.meta.media.top_field_first">0</property>
  <property name="kdenlive:original.meta.media.progressive">1</property>
  <property name="kdenlive:original.kdenlive:clip_type">2</property>
  <property name="kdenlive:original.kdenlive:folderid">488</property>
  <property name="kdenlive:original.kdenlive:id">509</property>
  <property name="kdenlive:original.kdenlive:file_size">115431</property>
  <property name="kdenlive:original.kdenlive:file_hash">0b98d4c623ce8d4a58d7a65153cae5f4</property>
  <property name="kdenlive:original.backup">1</property>
  <property name="xml">was here</property>
  <property name="meta.media.frame_rate_num">60</property>
  <property name="meta.media.frame_rate_den">1</property>
  <property name="meta.media.colorspace">601</property>
  <property name="meta.media.color_trc">2</property>
  <property name="meta.media.has_b_frames">0</property>
  <property name="meta.media.width">640</property>
  <property name="meta.media.height">360</property>
  <property name="meta.media.color_range">full</property>
  <property name="meta.media.top_field_first">0</property>
  <property name="meta.media.progressive">1</property>
  <property name="set.test_audio">1</property>
  <property name="set.test_image">0</property>
 </producer>
 <producer id="producer661" in="00:00:00.000" out="00:00:01.333">
  <property name="length">81</property>
  <property name="eof">pause</property>
  <property name="resource">/home/xiaoxiae/.cache/kdenlive/proxy/2ac9b7f6b6e34928d3685601286bdc1e.mkv</property>
  <property name="audio_index">-1</property>
  <property name="video_index">0</property>
  <property name="mute_on_pause">0</property>
  <property name="mlt_service">avformat-novalidate</property>
  <property name="meta.media.nb_streams">1</property>
  <property name="meta.media.0.stream.type">video</property>
  <property name="meta.media.0.stream.frame_rate">60</property>
  <property name="meta.media.0.stream.sample_aspect_ratio">0</property>
  <property name="meta.media.0.codec.width">640</property>
  <property name="meta.media.0.codec.height">360</property>
  <property name="meta.media.0.codec.rotate">0</property>
  <property name="meta.media.0.codec.pix_fmt">yuvj420p</property>
  <property name="meta.media.0.codec.sample_aspect_ratio">0</property>
  <property name="meta.media.0.codec.colorspace">601</property>
  <property name="meta.media.0.codec.name">mjpeg</property>
  <property name="meta.media.0.codec.long_name">MJPEG (Motion JPEG)</property>
  <property name="meta.media.0.codec.bit_rate">0</property>
  <property name="meta.attr.0.stream.HANDLER_NAME.markup">VideoHandler</property>
  <property name="meta.attr.0.stream.VENDOR_ID.markup">[0][0][0][0]</property>
  <property name="meta.attr.0.stream.ENCODER.markup">Lavc60.3.100 mjpeg</property>
  <property name="meta.attr.0.stream.DURATION.markup">00:00:01.350000000</property>
  <property name="meta.attr.COMMENT.markup">Rendered with Manim Community v0.17.2</property>
  <property name="meta.attr.MAJOR_BRAND.markup">isom</property>
  <property name="meta.attr.MINOR_VERSION.markup">512</property>
  <property name="meta.attr.COMPATIBLE_BRANDS.markup">isomiso2avc1mp41</property>
  <property name="meta.attr.ENCODER.markup">Lavf60.3.100</property>
  <property name="seekable">1</property>
  <property name="meta.media.sample_aspect_num">1</property>
  <property name="meta.media.sample_aspect_den">1</property>
  <property name="aspect_ratio">1</property>
  <property name="format">3</property>
  <property name="kdenlive:clipname">29.mp4</property>
  <property name="kdenlive:clip_type">2</property>
  <property name="kdenlive:folderid">488</property>
  <property name="kdenlive:id">401</property>
  <property name="kdenlive:file_size">295266</property>
  <property name="kdenlive:file_hash">2ac9b7f6b6e34928d3685601286bdc1e</property>
  <property name="kdenlive:proxy">/home/xiaoxiae/.cache/kdenlive/proxy/2ac9b7f6b6e34928d3685601286bdc1e.mkv</property>
  <property name="kdenlive:originalurl">video/Insertion/29.mp4</property>
  <property name="kdenlive:original.mlt_type">producer</property>
  <property name="kdenlive:original.in">00:00:00.000</property>
  <property name="kdenlive:original.out">00:00:01.333</property>
  <property name="kdenlive:original.length">81</property>
  <property name="kdenlive:original.eof">pause</property>
  <property name="kdenlive:original.resource">video/Insertion/29.mp4</property>
  <property name="kdenlive:original.meta.media.nb_streams">1</property>
  <property name="kdenlive:original.meta.media.0.stream.type">video</property>
  <property name="kdenlive:original.meta.media.0.stream.frame_rate">60</property>
  <property name="kdenlive:original.meta.media.0.stream.sample_aspect_ratio">0</property>
  <property name="kdenlive:original.meta.media.0.codec.width">3840</property>
  <property name="kdenlive:original.meta.media.0.codec.height">2160</property>
  <property name="kdenlive:original.meta.media.0.codec.rotate">0</property>
  <property name="kdenlive:original.meta.media.0.codec.pix_fmt">yuv420p</property>
  <property name="kdenlive:original.meta.media.0.codec.sample_aspect_ratio">0</property>
  <property name="kdenlive:original.meta.media.0.codec.colorspace">709</property>
  <property name="kdenlive:original.meta.media.0.codec.name">h264</property>
  <property name="kdenlive:original.meta.media.0.codec.long_name">H.264 / AVC / MPEG-4 AVC / MPEG-4 part 10</property>
  <property name="kdenlive:original.meta.media.0.codec.bit_rate">1738518</property>
  <property name="kdenlive:original.meta.attr.0.stream.handler_name.markup">VideoHandler</property>
  <property name="kdenlive:original.meta.attr.0.stream.vendor_id.markup">[0][0][0][0]</property>
  <property name="kdenlive:original.meta.attr.0.stream.encoder.markup">Lavc60.3.100 libx264</property>
  <property name="kdenlive:original.meta.attr.major_brand.markup">isom</property>
  <property name="kdenlive:original.meta.attr.minor_version.markup">512</property>
  <property name="kdenlive:original.meta.attr.compatible_brands.markup">isomiso2avc1mp41</property>
  <property name="kdenlive:original.meta.attr.encoder.markup">Lavf60.3.100</property>
  <property name="kdenlive:original.meta.attr.comment.markup">Rendered with Manim Community v0.17.2</property>
  <property name="kdenlive:original.seekable">1</property>
  <property name="kdenlive:original.width">3840</property>
  <property name="kdenlive:original.height">2160</property>
  <property name="kdenlive:original.meta.media.sample_aspect_num">1</property>
  <property name="kdenlive:original.meta.media.sample_aspect_den">1</property>
  <property name="kdenlive:original.aspect_ratio">1</property>
  <property name="kdenlive:original.format">3</property>
  <property name="kdenlive:original.audio_index">-1</property>
  <property name="kdenlive:original.video_index">0</property>
  <property name="kdenlive:original.mute_on_pause">0</property>
  <property name="kdenlive:original.mlt_service">avformat-novalidate</property>
  <property name="kdenlive:original.meta.media.frame_rate_num">60</property>
  <property name="kdenlive:original.meta.media.frame_rate_den">1</property>
  <property name="kdenlive:original.meta.media.colorspace">709</property>
  <property name="kdenlive:original.meta.media.color_trc">2</property>
  <property name="kdenlive:original.meta.media.has_b_frames">2</property>
  <property name="kdenlive:original.meta.media.width">3840</property>
  <property name="kdenlive:original.meta.media.height">2160</property>
  <property name="kdenlive:original.meta.media.color_range">mpeg</property>
  <property name="kdenlive:original.meta.media.top_field_first">0</property>
  <property name="kdenlive:original.meta.media.progressive">1</property>
  <property name="kdenlive:original.kdenlive:clip_type">2</property>
  <property name="kdenlive:original.kdenlive:folderid">488</property>
  <property name="kdenlive:original.kdenlive:id">510</property>
  <property name="kdenlive:original.kdenlive:file_size">295266</property>
  <property name="kdenlive:original.kdenlive:file_hash">2ac9b7f6b6e34928d3685601286bdc1e</property>
  <property name="kdenlive:original.backup">1</property>
  <property name="xml">was here</property>
  <property name="meta.media.frame_rate_num">60</property>
  <property name="meta.media.frame_rate_den">1</property>
  <property name="meta.media.colorspace">601</property>
  <property name="meta.media.color_trc">2</property>
  <property name="meta.media.has_b_frames">0</property>
  <property name="meta.media.width">640</property>
  <property name="meta.media.height">360</property>
  <property name="meta.media.color_range">full</property>
  <property name="meta.media.top_field_first">0</property>
  <property name="meta.media.progressive">1</property>
  <property name="set.test_audio">1</property>
  <property name="set.test_image">0</property>
 </producer>
 <producer id="producer662" in="00:00:00.000" out="00:00:00.983">
  <property name="length">60</property>
  <property name="eof">pause</property>
  <property name="resource">/home/xiaoxiae/.cache/kdenlive/proxy/fc57d25443b4885b6732633c731ad674.mkv</property>
  <property name="audio_index">-1</property>
  <property name="video_index">0</property>
  <property name="mute_on_pause">0</property>
  <property name="mlt_service">avformat-novalidate</property>
  <property name="meta.media.nb_streams">1</property>
  <property name="meta.media.0.stream.type">video</property>
  <property name="meta.media.0.stream.frame_rate">60</property>
  <property name="meta.media.0.stream.sample_aspect_ratio">0</property>
  <property name="meta.media.0.codec.width">640</property>
  <property name="meta.media.0.codec.height">360</property>
  <property name="meta.media.0.codec.rotate">0</property>
  <property name="meta.media.0.codec.pix_fmt">yuvj420p</property>
  <property name="meta.media.0.codec.sample_aspect_ratio">0</property>
  <property name="meta.media.0.codec.colorspace">601</property>
  <property name="meta.media.0.codec.name">mjpeg</property>
  <property name="meta.media.0.codec.long_name">MJPEG (Motion JPEG)</property>
  <property name="meta.media.0.codec.bit_rate">0</property>
  <property name="meta.attr.0.stream.HANDLER_NAME.markup">VideoHandler</property>
  <property name="meta.attr.0.stream.VENDOR_ID.markup">[0][0][0][0]</property>
  <property name="meta.attr.0.stream.ENCODER.markup">Lavc60.3.100 mjpeg</property>
  <property name="meta.attr.0.stream.DURATION.markup">00:00:01.000000000</property>
  <property name="meta.attr.COMMENT.markup">Rendered with Manim Community v0.17.2</property>
  <property name="meta.attr.MAJOR_BRAND.markup">isom</property>
  <property name="meta.attr.MINOR_VERSION.markup">512</property>
  <property name="meta.attr.COMPATIBLE_BRANDS.markup">isomiso2avc1mp41</property>
  <property name="meta.attr.ENCODER.markup">Lavf60.3.100</property>
  <property name="seekable">1</property>
  <property name="meta.media.sample_aspect_num">1</property>
  <property name="meta.media.sample_aspect_den">1</property>
  <property name="aspect_ratio">1</property>
  <property name="format">3</property>
  <property name="kdenlive:clipname">30.mp4</property>
  <property name="kdenlive:clip_type">2</property>
  <property name="kdenlive:folderid">488</property>
  <property name="kdenlive:id">403</property>
  <property name="kdenlive:file_size">129833</property>
  <property name="kdenlive:file_hash">fc57d25443b4885b6732633c731ad674</property>
  <property name="kdenlive:proxy">/home/xiaoxiae/.cache/kdenlive/proxy/fc57d25443b4885b6732633c731ad674.mkv</property>
  <property name="kdenlive:originalurl">video/Insertion/30.mp4</property>
  <property name="kdenlive:original.mlt_type">producer</property>
  <property name="kdenlive:original.in">00:00:00.000</property>
  <property name="kdenlive:original.out">00:00:00.983</property>
  <property name="kdenlive:original.length">60</property>
  <property name="kdenlive:original.eof">pause</property>
  <property name="kdenlive:original.resource">video/Insertion/30.mp4</property>
  <property name="kdenlive:original.meta.media.nb_streams">1</property>
  <property name="kdenlive:original.meta.media.0.stream.type">video</property>
  <property name="kdenlive:original.meta.media.0.stream.frame_rate">60</property>
  <property name="kdenlive:original.meta.media.0.stream.sample_aspect_ratio">0</property>
  <property name="kdenlive:original.meta.media.0.codec.width">3840</property>
  <property name="kdenlive:original.meta.media.0.codec.height">2160</property>
  <property name="kdenlive:original.meta.media.0.codec.rotate">0</property>
  <property name="kdenlive:original.meta.media.0.codec.pix_fmt">yuv420p</property>
  <property name="kdenlive:original.meta.media.0.codec.sample_aspect_ratio">0</property>
  <property name="kdenlive:original.meta.media.0.codec.colorspace">709</property>
  <property name="kdenlive:original.meta.media.0.codec.name">h264</property>
  <property name="kdenlive:original.meta.media.0.codec.long_name">H.264 / AVC / MPEG-4 AVC / MPEG-4 part 10</property>
  <property name="kdenlive:original.meta.media.0.codec.bit_rate">1025744</property>
  <property name="kdenlive:original.meta.attr.0.stream.handler_name.markup">VideoHandler</property>
  <property name="kdenlive:original.meta.attr.0.stream.vendor_id.markup">[0][0][0][0]</property>
  <property name="kdenlive:original.meta.attr.0.stream.encoder.markup">Lavc60.3.100 libx264</property>
  <property name="kdenlive:original.meta.attr.major_brand.markup">isom</property>
  <property name="kdenlive:original.meta.attr.minor_version.markup">512</property>
  <property name="kdenlive:original.meta.attr.compatible_brands.markup">isomiso2avc1mp41</property>
  <property name="kdenlive:original.meta.attr.encoder.markup">Lavf60.3.100</property>
  <property name="kdenlive:original.meta.attr.comment.markup">Rendered with Manim Community v0.17.2</property>
  <property name="kdenlive:original.seekable">1</property>
  <property name="kdenlive:original.width">3840</property>
  <property name="kdenlive:original.height">2160</property>
  <property name="kdenlive:original.meta.media.sample_aspect_num">1</property>
  <property name="kdenlive:original.meta.media.sample_aspect_den">1</property>
  <property name="kdenlive:original.aspect_ratio">1</property>
  <property name="kdenlive:original.format">3</property>
  <property name="kdenlive:original.audio_index">-1</property>
  <property name="kdenlive:original.video_index">0</property>
  <property name="kdenlive:original.mute_on_pause">0</property>
  <property name="kdenlive:original.mlt_service">avformat-novalidate</property>
  <property name="kdenlive:original.meta.media.frame_rate_num">60</property>
  <property name="kdenlive:original.meta.media.frame_rate_den">1</property>
  <property name="kdenlive:original.meta.media.colorspace">709</property>
  <property name="kdenlive:original.meta.media.color_trc">2</property>
  <property name="kdenlive:original.meta.media.has_b_frames">2</property>
  <property name="kdenlive:original.meta.media.width">3840</property>
  <property name="kdenlive:original.meta.media.height">2160</property>
  <property name="kdenlive:original.meta.media.color_range">mpeg</property>
  <property name="kdenlive:original.meta.media.top_field_first">0</property>
  <property name="kdenlive:original.meta.media.progressive">1</property>
  <property name="kdenlive:original.kdenlive:clip_type">2</property>
  <property name="kdenlive:original.kdenlive:folderid">488</property>
  <property name="kdenlive:original.kdenlive:id">512</property>
  <property name="kdenlive:original.kdenlive:file_size">129833</property>
  <property name="kdenlive:original.kdenlive:file_hash">fc57d25443b4885b6732633c731ad674</property>
  <property name="kdenlive:original.backup">1</property>
  <property name="xml">was here</property>
  <property name="meta.media.frame_rate_num">60</property>
  <property name="meta.media.frame_rate_den">1</property>
  <property name="meta.media.colorspace">601</property>
  <property name="meta.media.color_trc">2</property>
  <property name="meta.media.has_b_frames">0</property>
  <property name="meta.media.width">640</property>
  <property name="meta.media.height">360</property>
  <property name="meta.media.color_range">full</property>
  <property name="meta.media.top_field_first">0</property>
  <property name="meta.media.progressive">1</property>
  <property name="set.test_audio">1</property>
  <property name="set.test_image">0</property>
 </producer>
 <producer id="producer663" in="00:00:00.000" out="00:00:01.333">
  <property name="length">81</property>
  <property name="eof">pause</property>
  <property name="resource">/home/xiaoxiae/.cache/kdenlive/proxy/5d9cb8860fc5e00c4c8ba51707827cae.mkv</property>
  <property name="audio_index">-1</property>
  <property name="video_index">0</property>
  <property name="mute_on_pause">0</property>
  <property name="mlt_service">avformat-novalidate</property>
  <property name="meta.media.nb_streams">1</property>
  <property name="meta.media.0.stream.type">video</property>
  <property name="meta.media.0.stream.frame_rate">60</property>
  <property name="meta.media.0.stream.sample_aspect_ratio">0</property>
  <property name="meta.media.0.codec.width">640</property>
  <property name="meta.media.0.codec.height">360</property>
  <property name="meta.media.0.codec.rotate">0</property>
  <property name="meta.media.0.codec.pix_fmt">yuvj420p</property>
  <property name="meta.media.0.codec.sample_aspect_ratio">0</property>
  <property name="meta.media.0.codec.colorspace">601</property>
  <property name="meta.media.0.codec.name">mjpeg</property>
  <property name="meta.media.0.codec.long_name">MJPEG (Motion JPEG)</property>
  <property name="meta.media.0.codec.bit_rate">0</property>
  <property name="meta.attr.0.stream.HANDLER_NAME.markup">VideoHandler</property>
  <property name="meta.attr.0.stream.VENDOR_ID.markup">[0][0][0][0]</property>
  <property name="meta.attr.0.stream.ENCODER.markup">Lavc60.3.100 mjpeg</property>
  <property name="meta.attr.0.stream.DURATION.markup">00:00:01.350000000</property>
  <property name="meta.attr.COMMENT.markup">Rendered with Manim Community v0.17.2</property>
  <property name="meta.attr.MAJOR_BRAND.markup">isom</property>
  <property name="meta.attr.MINOR_VERSION.markup">512</property>
  <property name="meta.attr.COMPATIBLE_BRANDS.markup">isomiso2avc1mp41</property>
  <property name="meta.attr.ENCODER.markup">Lavf60.3.100</property>
  <property name="seekable">1</property>
  <property name="meta.media.sample_aspect_num">1</property>
  <property name="meta.media.sample_aspect_den">1</property>
  <property name="aspect_ratio">1</property>
  <property name="format">3</property>
  <property name="kdenlive:clipname">31.mp4</property>
  <property name="kdenlive:clip_type">2</property>
  <property name="kdenlive:folderid">488</property>
  <property name="kdenlive:id">404</property>
  <property name="kdenlive:file_size">454240</property>
  <property name="kdenlive:file_hash">5d9cb8860fc5e00c4c8ba51707827cae</property>
  <property name="kdenlive:proxy">/home/xiaoxiae/.cache/kdenlive/proxy/5d9cb8860fc5e00c4c8ba51707827cae.mkv</property>
  <property name="kdenlive:originalurl">video/Insertion/31.mp4</property>
  <property name="kdenlive:original.mlt_type">producer</property>
  <property name="kdenlive:original.in">00:00:00.000</property>
  <property name="kdenlive:original.out">00:00:01.333</property>
  <property name="kdenlive:original.length">81</property>
  <property name="kdenlive:original.eof">pause</property>
  <property name="kdenlive:original.resource">video/Insertion/31.mp4</property>
  <property name="kdenlive:original.meta.media.nb_streams">1</property>
  <property name="kdenlive:original.meta.media.0.stream.type">video</property>
  <property name="kdenlive:original.meta.media.0.stream.frame_rate">60</property>
  <property name="kdenlive:original.meta.media.0.stream.sample_aspect_ratio">0</property>
  <property name="kdenlive:original.meta.media.0.codec.width">3840</property>
  <property name="kdenlive:original.meta.media.0.codec.height">2160</property>
  <property name="kdenlive:original.meta.media.0.codec.rotate">0</property>
  <property name="kdenlive:original.meta.media.0.codec.pix_fmt">yuv420p</property>
  <property name="kdenlive:original.meta.media.0.codec.sample_aspect_ratio">0</property>
  <property name="kdenlive:original.meta.media.0.codec.colorspace">709</property>
  <property name="kdenlive:original.meta.media.0.codec.name">h264</property>
  <property name="kdenlive:original.meta.media.0.codec.long_name">H.264 / AVC / MPEG-4 AVC / MPEG-4 part 10</property>
  <property name="kdenlive:original.meta.media.0.codec.bit_rate">2680586</property>
  <property name="kdenlive:original.meta.attr.0.stream.handler_name.markup">VideoHandler</property>
  <property name="kdenlive:original.meta.attr.0.stream.vendor_id.markup">[0][0][0][0]</property>
  <property name="kdenlive:original.meta.attr.0.stream.encoder.markup">Lavc60.3.100 libx264</property>
  <property name="kdenlive:original.meta.attr.major_brand.markup">isom</property>
  <property name="kdenlive:original.meta.attr.minor_version.markup">512</property>
  <property name="kdenlive:original.meta.attr.compatible_brands.markup">isomiso2avc1mp41</property>
  <property name="kdenlive:original.meta.attr.encoder.markup">Lavf60.3.100</property>
  <property name="kdenlive:original.meta.attr.comment.markup">Rendered with Manim Community v0.17.2</property>
  <property name="kdenlive:original.seekable">1</property>
  <property name="kdenlive:original.width">3840</property>
  <property name="kdenlive:original.height">2160</property>
  <property name="kdenlive:original.meta.media.sample_aspect_num">1</property>
  <property name="kdenlive:original.meta.media.sample_aspect_den">1</property>
  <property name="kdenlive:original.aspect_ratio">1</property>
  <property name="kdenlive:original.format">3</property>
  <property name="kdenlive:original.audio_index">-1</property>
  <property name="kdenlive:original.video_index">0</property>
  <property name="kdenlive:original.mute_on_pause">0</property>
  <property name="kdenlive:original.mlt_service">avformat-novalidate</property>
  <property name="kdenlive:original.meta.media.frame_rate_num">60</property>
  <property name="kdenlive:original.meta.media.frame_rate_den">1</property>
  <property name="kdenlive:original.meta.media.colorspace">709</property>
  <property name="kdenlive:original.meta.media.color_trc">2</property>
  <property name="kdenlive:original.meta.media.has_b_frames">2</property>
  <property name="kdenlive:original.meta.media.width">3840</property>
  <property name="kdenlive:original.meta.media.height">2160</property>
  <property name="kdenlive:original.meta.media.color_range">mpeg</property>
  <property name="kdenlive:original.meta.media.top_field_first">0</property>
  <property name="kdenlive:original.meta.media.progressive">1</property>
  <property name="kdenlive:original.kdenlive:clip_type">2</property>
  <property name="kdenlive:original.kdenlive:folderid">488</property>
  <property name="kdenlive:original.kdenlive:id">513</property>
  <property name="kdenlive:original.kdenlive:file_size">454240</property>
  <property name="kdenlive:original.kdenlive:file_hash">5d9cb8860fc5e00c4c8ba51707827cae</property>
  <property name="kdenlive:original.backup">1</property>
  <property name="xml">was here</property>
  <property name="meta.media.frame_rate_num">60</property>
  <property name="meta.media.frame_rate_den">1</property>
  <property name="meta.media.colorspace">601</property>
  <property name="meta.media.color_trc">2</property>
  <property name="meta.media.has_b_frames">0</property>
  <property name="meta.media.width">640</property>
  <property name="meta.media.height">360</property>
  <property name="meta.media.color_range">full</property>
  <property name="meta.media.top_field_first">0</property>
  <property name="meta.media.progressive">1</property>
  <property name="set.test_audio">1</property>
  <property name="set.test_image">0</property>
 </producer>
 <producer id="producer664" in="00:00:00.000" out="00:00:00.983">
  <property name="length">60</property>
  <property name="eof">pause</property>
  <property name="resource">/home/xiaoxiae/.cache/kdenlive/proxy/24813d83c418d4d9874e0787efcfdfae.mkv</property>
  <property name="audio_index">-1</property>
  <property name="video_index">0</property>
  <property name="mute_on_pause">0</property>
  <property name="mlt_service">avformat-novalidate</property>
  <property name="meta.media.nb_streams">1</property>
  <property name="meta.media.0.stream.type">video</property>
  <property name="meta.media.0.stream.frame_rate">60</property>
  <property name="meta.media.0.stream.sample_aspect_ratio">0</property>
  <property name="meta.media.0.codec.width">640</property>
  <property name="meta.media.0.codec.height">360</property>
  <property name="meta.media.0.codec.rotate">0</property>
  <property name="meta.media.0.codec.pix_fmt">yuvj420p</property>
  <property name="meta.media.0.codec.sample_aspect_ratio">0</property>
  <property name="meta.media.0.codec.colorspace">601</property>
  <property name="meta.media.0.codec.name">mjpeg</property>
  <property name="meta.media.0.codec.long_name">MJPEG (Motion JPEG)</property>
  <property name="meta.media.0.codec.bit_rate">0</property>
  <property name="meta.attr.0.stream.HANDLER_NAME.markup">VideoHandler</property>
  <property name="meta.attr.0.stream.VENDOR_ID.markup">[0][0][0][0]</property>
  <property name="meta.attr.0.stream.ENCODER.markup">Lavc60.3.100 mjpeg</property>
  <property name="meta.attr.0.stream.DURATION.markup">00:00:01.000000000</property>
  <property name="meta.attr.COMMENT.markup">Rendered with Manim Community v0.17.2</property>
  <property name="meta.attr.MAJOR_BRAND.markup">isom</property>
  <property name="meta.attr.MINOR_VERSION.markup">512</property>
  <property name="meta.attr.COMPATIBLE_BRANDS.markup">isomiso2avc1mp41</property>
  <property name="meta.attr.ENCODER.markup">Lavf60.3.100</property>
  <property name="seekable">1</property>
  <property name="meta.media.sample_aspect_num">1</property>
  <property name="meta.media.sample_aspect_den">1</property>
  <property name="aspect_ratio">1</property>
  <property name="format">3</property>
  <property name="kdenlive:clipname">32.mp4</property>
  <property name="kdenlive:clip_type">2</property>
  <property name="kdenlive:folderid">488</property>
  <property name="kdenlive:id">405</property>
  <property name="kdenlive:file_size">536843</property>
  <property name="kdenlive:file_hash">24813d83c418d4d9874e0787efcfdfae</property>
  <property name="kdenlive:proxy">/home/xiaoxiae/.cache/kdenlive/proxy/24813d83c418d4d9874e0787efcfdfae.mkv</property>
  <property name="kdenlive:originalurl">video/Insertion/32.mp4</property>
  <property name="kdenlive:original.mlt_type">producer</property>
  <property name="kdenlive:original.in">00:00:00.000</property>
  <property name="kdenlive:original.out">00:00:00.983</property>
  <property name="kdenlive:original.length">60</property>
  <property name="kdenlive:original.eof">pause</property>
  <property name="kdenlive:original.resource">video/Insertion/32.mp4</property>
  <property name="kdenlive:original.meta.media.nb_streams">1</property>
  <property name="kdenlive:original.meta.media.0.stream.type">video</property>
  <property name="kdenlive:original.meta.media.0.stream.frame_rate">60</property>
  <property name="kdenlive:original.meta.media.0.stream.sample_aspect_ratio">0</property>
  <property name="kdenlive:original.meta.media.0.codec.width">3840</property>
  <property name="kdenlive:original.meta.media.0.codec.height">2160</property>
  <property name="kdenlive:original.meta.media.0.codec.rotate">0</property>
  <property name="kdenlive:original.meta.media.0.codec.pix_fmt">yuv420p</property>
  <property name="kdenlive:original.meta.media.0.codec.sample_aspect_ratio">0</property>
  <property name="kdenlive:original.meta.media.0.codec.colorspace">709</property>
  <property name="kdenlive:original.meta.media.0.codec.name">h264</property>
  <property name="kdenlive:original.meta.media.0.codec.long_name">H.264 / AVC / MPEG-4 AVC / MPEG-4 part 10</property>
  <property name="kdenlive:original.meta.media.0.codec.bit_rate">4283872</property>
  <property name="kdenlive:original.meta.attr.0.stream.handler_name.markup">VideoHandler</property>
  <property name="kdenlive:original.meta.attr.0.stream.vendor_id.markup">[0][0][0][0]</property>
  <property name="kdenlive:original.meta.attr.0.stream.encoder.markup">Lavc60.3.100 libx264</property>
  <property name="kdenlive:original.meta.attr.major_brand.markup">isom</property>
  <property name="kdenlive:original.meta.attr.minor_version.markup">512</property>
  <property name="kdenlive:original.meta.attr.compatible_brands.markup">isomiso2avc1mp41</property>
  <property name="kdenlive:original.meta.attr.encoder.markup">Lavf60.3.100</property>
  <property name="kdenlive:original.meta.attr.comment.markup">Rendered with Manim Community v0.17.2</property>
  <property name="kdenlive:original.seekable">1</property>
  <property name="kdenlive:original.width">3840</property>
  <property name="kdenlive:original.height">2160</property>
  <property name="kdenlive:original.meta.media.sample_aspect_num">1</property>
  <property name="kdenlive:original.meta.media.sample_aspect_den">1</property>
  <property name="kdenlive:original.aspect_ratio">1</property>
  <property name="kdenlive:original.format">3</property>
  <property name="kdenlive:original.audio_index">-1</property>
  <property name="kdenlive:original.video_index">0</property>
  <property name="kdenlive:original.mute_on_pause">0</property>
  <property name="kdenlive:original.mlt_service">avformat-novalidate</property>
  <property name="kdenlive:original.meta.media.frame_rate_num">60</property>
  <property name="kdenlive:original.meta.media.frame_rate_den">1</property>
  <property name="kdenlive:original.meta.media.colorspace">709</property>
  <property name="kdenlive:original.meta.media.color_trc">2</property>
  <property name="kdenlive:original.meta.media.has_b_frames">2</property>
  <property name="kdenlive:original.meta.media.width">3840</property>
  <property name="kdenlive:original.meta.media.height">2160</property>
  <property name="kdenlive:original.meta.media.color_range">mpeg</property>
  <property name="kdenlive:original.meta.media.top_field_first">0</property>
  <property name="kdenlive:original.meta.media.progressive">1</property>
  <property name="kdenlive:original.kdenlive:clip_type">2</property>
  <property name="kdenlive:original.kdenlive:folderid">488</property>
  <property name="kdenlive:original.kdenlive:id">514</property>
  <property name="kdenlive:original.kdenlive:file_size">536843</property>
  <property name="kdenlive:original.kdenlive:file_hash">24813d83c418d4d9874e0787efcfdfae</property>
  <property name="kdenlive:original.backup">1</property>
  <property name="xml">was here</property>
  <property name="meta.media.frame_rate_num">60</property>
  <property name="meta.media.frame_rate_den">1</property>
  <property name="meta.media.colorspace">601</property>
  <property name="meta.media.color_trc">2</property>
  <property name="meta.media.has_b_frames">0</property>
  <property name="meta.media.width">640</property>
  <property name="meta.media.height">360</property>
  <property name="meta.media.color_range">full</property>
  <property name="meta.media.top_field_first">0</property>
  <property name="meta.media.progressive">1</property>
  <property name="set.test_audio">1</property>
  <property name="set.test_image">0</property>
 </producer>
 <producer id="producer665" in="00:00:00.000" out="00:00:00.983">
  <property name="length">60</property>
  <property name="eof">pause</property>
  <property name="resource">/home/xiaoxiae/.cache/kdenlive/proxy/6a59e25ec85e5ae6692219b022d33f80.mkv</property>
  <property name="audio_index">-1</property>
  <property name="video_index">0</property>
  <property name="mute_on_pause">0</property>
  <property name="mlt_service">avformat-novalidate</property>
  <property name="meta.media.nb_streams">1</property>
  <property name="meta.media.0.stream.type">video</property>
  <property name="meta.media.0.stream.frame_rate">60</property>
  <property name="meta.media.0.stream.sample_aspect_ratio">0</property>
  <property name="meta.media.0.codec.width">640</property>
  <property name="meta.media.0.codec.height">360</property>
  <property name="meta.media.0.codec.rotate">0</property>
  <property name="meta.media.0.codec.pix_fmt">yuvj420p</property>
  <property name="meta.media.0.codec.sample_aspect_ratio">0</property>
  <property name="meta.media.0.codec.colorspace">601</property>
  <property name="meta.media.0.codec.name">mjpeg</property>
  <property name="meta.media.0.codec.long_name">MJPEG (Motion JPEG)</property>
  <property name="meta.media.0.codec.bit_rate">0</property>
  <property name="meta.attr.0.stream.HANDLER_NAME.markup">VideoHandler</property>
  <property name="meta.attr.0.stream.VENDOR_ID.markup">[0][0][0][0]</property>
  <property name="meta.attr.0.stream.ENCODER.markup">Lavc60.3.100 mjpeg</property>
  <property name="meta.attr.0.stream.DURATION.markup">00:00:01.000000000</property>
  <property name="meta.attr.COMMENT.markup">Rendered with Manim Community v0.17.2</property>
  <property name="meta.attr.MAJOR_BRAND.markup">isom</property>
  <property name="meta.attr.MINOR_VERSION.markup">512</property>
  <property name="meta.attr.COMPATIBLE_BRANDS.markup">isomiso2avc1mp41</property>
  <property name="meta.attr.ENCODER.markup">Lavf60.3.100</property>
  <property name="seekable">1</property>
  <property name="meta.media.sample_aspect_num">1</property>
  <property name="meta.media.sample_aspect_den">1</property>
  <property name="aspect_ratio">1</property>
  <property name="format">3</property>
  <property name="kdenlive:clipname">33.mp4</property>
  <property name="kdenlive:clip_type">2</property>
  <property name="kdenlive:folderid">488</property>
  <property name="kdenlive:id">406</property>
  <property name="kdenlive:file_size">84255</property>
  <property name="kdenlive:file_hash">6a59e25ec85e5ae6692219b022d33f80</property>
  <property name="kdenlive:proxy">/home/xiaoxiae/.cache/kdenlive/proxy/6a59e25ec85e5ae6692219b022d33f80.mkv</property>
  <property name="kdenlive:originalurl">video/Insertion/33.mp4</property>
  <property name="kdenlive:original.mlt_type">producer</property>
  <property name="kdenlive:original.in">00:00:00.000</property>
  <property name="kdenlive:original.out">00:00:00.983</property>
  <property name="kdenlive:original.length">60</property>
  <property name="kdenlive:original.eof">pause</property>
  <property name="kdenlive:original.resource">video/Insertion/33.mp4</property>
  <property name="kdenlive:original.meta.media.nb_streams">1</property>
  <property name="kdenlive:original.meta.media.0.stream.type">video</property>
  <property name="kdenlive:original.meta.media.0.stream.frame_rate">60</property>
  <property name="kdenlive:original.meta.media.0.stream.sample_aspect_ratio">0</property>
  <property name="kdenlive:original.meta.media.0.codec.width">3840</property>
  <property name="kdenlive:original.meta.media.0.codec.height">2160</property>
  <property name="kdenlive:original.meta.media.0.codec.rotate">0</property>
  <property name="kdenlive:original.meta.media.0.codec.pix_fmt">yuv420p</property>
  <property name="kdenlive:original.meta.media.0.codec.sample_aspect_ratio">0</property>
  <property name="kdenlive:original.meta.media.0.codec.colorspace">709</property>
  <property name="kdenlive:original.meta.media.0.codec.name">h264</property>
  <property name="kdenlive:original.meta.media.0.codec.long_name">H.264 / AVC / MPEG-4 AVC / MPEG-4 part 10</property>
  <property name="kdenlive:original.meta.media.0.codec.bit_rate">660992</property>
  <property name="kdenlive:original.meta.attr.0.stream.handler_name.markup">VideoHandler</property>
  <property name="kdenlive:original.meta.attr.0.stream.vendor_id.markup">[0][0][0][0]</property>
  <property name="kdenlive:original.meta.attr.0.stream.encoder.markup">Lavc60.3.100 libx264</property>
  <property name="kdenlive:original.meta.attr.major_brand.markup">isom</property>
  <property name="kdenlive:original.meta.attr.minor_version.markup">512</property>
  <property name="kdenlive:original.meta.attr.compatible_brands.markup">isomiso2avc1mp41</property>
  <property name="kdenlive:original.meta.attr.encoder.markup">Lavf60.3.100</property>
  <property name="kdenlive:original.meta.attr.comment.markup">Rendered with Manim Community v0.17.2</property>
  <property name="kdenlive:original.seekable">1</property>
  <property name="kdenlive:original.width">3840</property>
  <property name="kdenlive:original.height">2160</property>
  <property name="kdenlive:original.meta.media.sample_aspect_num">1</property>
  <property name="kdenlive:original.meta.media.sample_aspect_den">1</property>
  <property name="kdenlive:original.aspect_ratio">1</property>
  <property name="kdenlive:original.format">3</property>
  <property name="kdenlive:original.audio_index">-1</property>
  <property name="kdenlive:original.video_index">0</property>
  <property name="kdenlive:original.mute_on_pause">0</property>
  <property name="kdenlive:original.mlt_service">avformat-novalidate</property>
  <property name="kdenlive:original.meta.media.frame_rate_num">60</property>
  <property name="kdenlive:original.meta.media.frame_rate_den">1</property>
  <property name="kdenlive:original.meta.media.colorspace">709</property>
  <property name="kdenlive:original.meta.media.color_trc">2</property>
  <property name="kdenlive:original.meta.media.has_b_frames">2</property>
  <property name="kdenlive:original.meta.media.width">3840</property>
  <property name="kdenlive:original.meta.media.height">2160</property>
  <property name="kdenlive:original.meta.media.color_range">mpeg</property>
  <property name="kdenlive:original.meta.media.top_field_first">0</property>
  <property name="kdenlive:original.meta.media.progressive">1</property>
  <property name="kdenlive:original.kdenlive:clip_type">2</property>
  <property name="kdenlive:original.kdenlive:folderid">488</property>
  <property name="kdenlive:original.kdenlive:id">515</property>
  <property name="kdenlive:original.kdenlive:file_size">84255</property>
  <property name="kdenlive:original.kdenlive:file_hash">6a59e25ec85e5ae6692219b022d33f80</property>
  <property name="kdenlive:original.backup">1</property>
  <property name="xml">was here</property>
  <property name="meta.media.frame_rate_num">60</property>
  <property name="meta.media.frame_rate_den">1</property>
  <property name="meta.media.colorspace">601</property>
  <property name="meta.media.color_trc">2</property>
  <property name="meta.media.has_b_frames">0</property>
  <property name="meta.media.width">640</property>
  <property name="meta.media.height">360</property>
  <property name="meta.media.color_range">full</property>
  <property name="meta.media.top_field_first">0</property>
  <property name="meta.media.progressive">1</property>
  <property name="set.test_audio">1</property>
  <property name="set.test_image">0</property>
 </producer>
 <producer id="producer666" in="00:00:00.000" out="00:00:00.983">
  <property name="length">60</property>
  <property name="eof">pause</property>
  <property name="resource">/home/xiaoxiae/.cache/kdenlive/proxy/530bee20c5b9232c31990eb32199cb77.mkv</property>
  <property name="audio_index">-1</property>
  <property name="video_index">0</property>
  <property name="mute_on_pause">0</property>
  <property name="mlt_service">avformat-novalidate</property>
  <property name="meta.media.nb_streams">1</property>
  <property name="meta.media.0.stream.type">video</property>
  <property name="meta.media.0.stream.frame_rate">60</property>
  <property name="meta.media.0.stream.sample_aspect_ratio">0</property>
  <property name="meta.media.0.codec.width">640</property>
  <property name="meta.media.0.codec.height">360</property>
  <property name="meta.media.0.codec.rotate">0</property>
  <property name="meta.media.0.codec.pix_fmt">yuvj420p</property>
  <property name="meta.media.0.codec.sample_aspect_ratio">0</property>
  <property name="meta.media.0.codec.colorspace">601</property>
  <property name="meta.media.0.codec.name">mjpeg</property>
  <property name="meta.media.0.codec.long_name">MJPEG (Motion JPEG)</property>
  <property name="meta.media.0.codec.bit_rate">0</property>
  <property name="meta.attr.0.stream.HANDLER_NAME.markup">VideoHandler</property>
  <property name="meta.attr.0.stream.VENDOR_ID.markup">[0][0][0][0]</property>
  <property name="meta.attr.0.stream.ENCODER.markup">Lavc60.3.100 mjpeg</property>
  <property name="meta.attr.0.stream.DURATION.markup">00:00:01.000000000</property>
  <property name="meta.attr.COMMENT.markup">Rendered with Manim Community v0.17.2</property>
  <property name="meta.attr.MAJOR_BRAND.markup">isom</property>
  <property name="meta.attr.MINOR_VERSION.markup">512</property>
  <property name="meta.attr.COMPATIBLE_BRANDS.markup">isomiso2avc1mp41</property>
  <property name="meta.attr.ENCODER.markup">Lavf60.3.100</property>
  <property name="seekable">1</property>
  <property name="meta.media.sample_aspect_num">1</property>
  <property name="meta.media.sample_aspect_den">1</property>
  <property name="aspect_ratio">1</property>
  <property name="format">3</property>
  <property name="kdenlive:clipname">34.mp4</property>
  <property name="kdenlive:clip_type">2</property>
  <property name="kdenlive:folderid">488</property>
  <property name="kdenlive:id">407</property>
  <property name="kdenlive:file_size">80754</property>
  <property name="kdenlive:file_hash">530bee20c5b9232c31990eb32199cb77</property>
  <property name="kdenlive:proxy">/home/xiaoxiae/.cache/kdenlive/proxy/530bee20c5b9232c31990eb32199cb77.mkv</property>
  <property name="kdenlive:originalurl">video/Insertion/34.mp4</property>
  <property name="kdenlive:original.mlt_type">producer</property>
  <property name="kdenlive:original.in">00:00:00.000</property>
  <property name="kdenlive:original.out">00:00:00.983</property>
  <property name="kdenlive:original.length">60</property>
  <property name="kdenlive:original.eof">pause</property>
  <property name="kdenlive:original.resource">video/Insertion/34.mp4</property>
  <property name="kdenlive:original.meta.media.nb_streams">1</property>
  <property name="kdenlive:original.meta.media.0.stream.type">video</property>
  <property name="kdenlive:original.meta.media.0.stream.frame_rate">60</property>
  <property name="kdenlive:original.meta.media.0.stream.sample_aspect_ratio">0</property>
  <property name="kdenlive:original.meta.media.0.codec.width">3840</property>
  <property name="kdenlive:original.meta.media.0.codec.height">2160</property>
  <property name="kdenlive:original.meta.media.0.codec.rotate">0</property>
  <property name="kdenlive:original.meta.media.0.codec.pix_fmt">yuv420p</property>
  <property name="kdenlive:original.meta.media.0.codec.sample_aspect_ratio">0</property>
  <property name="kdenlive:original.meta.media.0.codec.colorspace">709</property>
  <property name="kdenlive:original.meta.media.0.codec.name">h264</property>
  <property name="kdenlive:original.meta.media.0.codec.long_name">H.264 / AVC / MPEG-4 AVC / MPEG-4 part 10</property>
  <property name="kdenlive:original.meta.media.0.codec.bit_rate">632984</property>
  <property name="kdenlive:original.meta.attr.0.stream.handler_name.markup">VideoHandler</property>
  <property name="kdenlive:original.meta.attr.0.stream.vendor_id.markup">[0][0][0][0]</property>
  <property name="kdenlive:original.meta.attr.0.stream.encoder.markup">Lavc60.3.100 libx264</property>
  <property name="kdenlive:original.meta.attr.major_brand.markup">isom</property>
  <property name="kdenlive:original.meta.attr.minor_version.markup">512</property>
  <property name="kdenlive:original.meta.attr.compatible_brands.markup">isomiso2avc1mp41</property>
  <property name="kdenlive:original.meta.attr.encoder.markup">Lavf60.3.100</property>
  <property name="kdenlive:original.meta.attr.comment.markup">Rendered with Manim Community v0.17.2</property>
  <property name="kdenlive:original.seekable">1</property>
  <property name="kdenlive:original.width">3840</property>
  <property name="kdenlive:original.height">2160</property>
  <property name="kdenlive:original.meta.media.sample_aspect_num">1</property>
  <property name="kdenlive:original.meta.media.sample_aspect_den">1</property>
  <property name="kdenlive:original.aspect_ratio">1</property>
  <property name="kdenlive:original.format">3</property>
  <property name="kdenlive:original.audio_index">-1</property>
  <property name="kdenlive:original.video_index">0</property>
  <property name="kdenlive:original.mute_on_pause">0</property>
  <property name="kdenlive:original.mlt_service">avformat-novalidate</property>
  <property name="kdenlive:original.meta.media.frame_rate_num">60</property>
  <property name="kdenlive:original.meta.media.frame_rate_den">1</property>
  <property name="kdenlive:original.meta.media.colorspace">709</property>
  <property name="kdenlive:original.meta.media.color_trc">2</property>
  <property name="kdenlive:original.meta.media.has_b_frames">2</property>
  <property name="kdenlive:original.meta.media.width">3840</property>
  <property name="kdenlive:original.meta.media.height">2160</property>
  <property name="kdenlive:original.meta.media.color_range">mpeg</property>
  <property name="kdenlive:original.meta.media.top_field_first">0</property>
  <property name="kdenlive:original.meta.media.progressive">1</property>
  <property name="kdenlive:original.kdenlive:clip_type">2</property>
  <property name="kdenlive:original.kdenlive:folderid">488</property>
  <property name="kdenlive:original.kdenlive:id">516</property>
  <property name="kdenlive:original.kdenlive:file_size">80754</property>
  <property name="kdenlive:original.kdenlive:file_hash">530bee20c5b9232c31990eb32199cb77</property>
  <property name="kdenlive:original.backup">1</property>
  <property name="xml">was here</property>
  <property name="meta.media.frame_rate_num">60</property>
  <property name="meta.media.frame_rate_den">1</property>
  <property name="meta.media.colorspace">601</property>
  <property name="meta.media.color_trc">2</property>
  <property name="meta.media.has_b_frames">0</property>
  <property name="meta.media.width">640</property>
  <property name="meta.media.height">360</property>
  <property name="meta.media.color_range">full</property>
  <property name="meta.media.top_field_first">0</property>
  <property name="meta.media.progressive">1</property>
  <property name="set.test_audio">1</property>
  <property name="set.test_image">0</property>
 </producer>
 <producer id="producer667" in="00:00:00.000" out="00:00:00.983">
  <property name="length">60</property>
  <property name="eof">pause</property>
  <property name="resource">/home/xiaoxiae/.cache/kdenlive/proxy/17a780c130413d425468d5144c1a9d36.mkv</property>
  <property name="audio_index">-1</property>
  <property name="video_index">0</property>
  <property name="mute_on_pause">0</property>
  <property name="mlt_service">avformat-novalidate</property>
  <property name="meta.media.nb_streams">1</property>
  <property name="meta.media.0.stream.type">video</property>
  <property name="meta.media.0.stream.frame_rate">60</property>
  <property name="meta.media.0.stream.sample_aspect_ratio">0</property>
  <property name="meta.media.0.codec.width">640</property>
  <property name="meta.media.0.codec.height">360</property>
  <property name="meta.media.0.codec.rotate">0</property>
  <property name="meta.media.0.codec.pix_fmt">yuvj420p</property>
  <property name="meta.media.0.codec.sample_aspect_ratio">0</property>
  <property name="meta.media.0.codec.colorspace">601</property>
  <property name="meta.media.0.codec.name">mjpeg</property>
  <property name="meta.media.0.codec.long_name">MJPEG (Motion JPEG)</property>
  <property name="meta.media.0.codec.bit_rate">0</property>
  <property name="meta.attr.0.stream.HANDLER_NAME.markup">VideoHandler</property>
  <property name="meta.attr.0.stream.VENDOR_ID.markup">[0][0][0][0]</property>
  <property name="meta.attr.0.stream.ENCODER.markup">Lavc60.3.100 mjpeg</property>
  <property name="meta.attr.0.stream.DURATION.markup">00:00:01.000000000</property>
  <property name="meta.attr.COMMENT.markup">Rendered with Manim Community v0.17.2</property>
  <property name="meta.attr.MAJOR_BRAND.markup">isom</property>
  <property name="meta.attr.MINOR_VERSION.markup">512</property>
  <property name="meta.attr.COMPATIBLE_BRANDS.markup">isomiso2avc1mp41</property>
  <property name="meta.attr.ENCODER.markup">Lavf60.3.100</property>
  <property name="seekable">1</property>
  <property name="meta.media.sample_aspect_num">1</property>
  <property name="meta.media.sample_aspect_den">1</property>
  <property name="aspect_ratio">1</property>
  <property name="format">3</property>
  <property name="kdenlive:clipname">35.mp4</property>
  <property name="kdenlive:clip_type">2</property>
  <property name="kdenlive:folderid">488</property>
  <property name="kdenlive:id">408</property>
  <property name="kdenlive:file_size">95865</property>
  <property name="kdenlive:file_hash">17a780c130413d425468d5144c1a9d36</property>
  <property name="kdenlive:proxy">/home/xiaoxiae/.cache/kdenlive/proxy/17a780c130413d425468d5144c1a9d36.mkv</property>
  <property name="kdenlive:originalurl">video/Insertion/35.mp4</property>
  <property name="kdenlive:original.mlt_type">producer</property>
  <property name="kdenlive:original.in">00:00:00.000</property>
  <property name="kdenlive:original.out">00:00:00.983</property>
  <property name="kdenlive:original.length">60</property>
  <property name="kdenlive:original.eof">pause</property>
  <property name="kdenlive:original.resource">video/Insertion/35.mp4</property>
  <property name="kdenlive:original.meta.media.nb_streams">1</property>
  <property name="kdenlive:original.meta.media.0.stream.type">video</property>
  <property name="kdenlive:original.meta.media.0.stream.frame_rate">60</property>
  <property name="kdenlive:original.meta.media.0.stream.sample_aspect_ratio">0</property>
  <property name="kdenlive:original.meta.media.0.codec.width">3840</property>
  <property name="kdenlive:original.meta.media.0.codec.height">2160</property>
  <property name="kdenlive:original.meta.media.0.codec.rotate">0</property>
  <property name="kdenlive:original.meta.media.0.codec.pix_fmt">yuv420p</property>
  <property name="kdenlive:original.meta.media.0.codec.sample_aspect_ratio">0</property>
  <property name="kdenlive:original.meta.media.0.codec.colorspace">709</property>
  <property name="kdenlive:original.meta.media.0.codec.name">h264</property>
  <property name="kdenlive:original.meta.media.0.codec.long_name">H.264 / AVC / MPEG-4 AVC / MPEG-4 part 10</property>
  <property name="kdenlive:original.meta.media.0.codec.bit_rate">753872</property>
  <property name="kdenlive:original.meta.attr.0.stream.handler_name.markup">VideoHandler</property>
  <property name="kdenlive:original.meta.attr.0.stream.vendor_id.markup">[0][0][0][0]</property>
  <property name="kdenlive:original.meta.attr.0.stream.encoder.markup">Lavc60.3.100 libx264</property>
  <property name="kdenlive:original.meta.attr.major_brand.markup">isom</property>
  <property name="kdenlive:original.meta.attr.minor_version.markup">512</property>
  <property name="kdenlive:original.meta.attr.compatible_brands.markup">isomiso2avc1mp41</property>
  <property name="kdenlive:original.meta.attr.encoder.markup">Lavf60.3.100</property>
  <property name="kdenlive:original.meta.attr.comment.markup">Rendered with Manim Community v0.17.2</property>
  <property name="kdenlive:original.seekable">1</property>
  <property name="kdenlive:original.width">3840</property>
  <property name="kdenlive:original.height">2160</property>
  <property name="kdenlive:original.meta.media.sample_aspect_num">1</property>
  <property name="kdenlive:original.meta.media.sample_aspect_den">1</property>
  <property name="kdenlive:original.aspect_ratio">1</property>
  <property name="kdenlive:original.format">3</property>
  <property name="kdenlive:original.audio_index">-1</property>
  <property name="kdenlive:original.video_index">0</property>
  <property name="kdenlive:original.mute_on_pause">0</property>
  <property name="kdenlive:original.mlt_service">avformat-novalidate</property>
  <property name="kdenlive:original.meta.media.frame_rate_num">60</property>
  <property name="kdenlive:original.meta.media.frame_rate_den">1</property>
  <property name="kdenlive:original.meta.media.colorspace">709</property>
  <property name="kdenlive:original.meta.media.color_trc">2</property>
  <property name="kdenlive:original.meta.media.has_b_frames">2</property>
  <property name="kdenlive:original.meta.media.width">3840</property>
  <property name="kdenlive:original.meta.media.height">2160</property>
  <property name="kdenlive:original.meta.media.color_range">mpeg</property>
  <property name="kdenlive:original.meta.media.top_field_first">0</property>
  <property name="kdenlive:original.meta.media.progressive">1</property>
  <property name="kdenlive:original.kdenlive:clip_type">2</property>
  <property name="kdenlive:original.kdenlive:folderid">488</property>
  <property name="kdenlive:original.kdenlive:id">517</property>
  <property name="kdenlive:original.kdenlive:file_size">95865</property>
  <property name="kdenlive:original.kdenlive:file_hash">17a780c130413d425468d5144c1a9d36</property>
  <property name="kdenlive:original.backup">1</property>
  <property name="xml">was here</property>
  <property name="meta.media.frame_rate_num">60</property>
  <property name="meta.media.frame_rate_den">1</property>
  <property name="meta.media.colorspace">601</property>
  <property name="meta.media.color_trc">2</property>
  <property name="meta.media.has_b_frames">0</property>
  <property name="meta.media.width">640</property>
  <property name="meta.media.height">360</property>
  <property name="meta.media.color_range">full</property>
  <property name="meta.media.top_field_first">0</property>
  <property name="meta.media.progressive">1</property>
  <property name="set.test_audio">1</property>
  <property name="set.test_image">0</property>
 </producer>
 <producer id="producer668" in="00:00:00.000" out="00:00:00.983">
  <property name="length">60</property>
  <property name="eof">pause</property>
  <property name="resource">/home/xiaoxiae/.cache/kdenlive/proxy/a3531c9f1c83dc189dd069b01aaffee1.mkv</property>
  <property name="audio_index">-1</property>
  <property name="video_index">0</property>
  <property name="mute_on_pause">0</property>
  <property name="mlt_service">avformat-novalidate</property>
  <property name="meta.media.nb_streams">1</property>
  <property name="meta.media.0.stream.type">video</property>
  <property name="meta.media.0.stream.frame_rate">60</property>
  <property name="meta.media.0.stream.sample_aspect_ratio">0</property>
  <property name="meta.media.0.codec.width">640</property>
  <property name="meta.media.0.codec.height">360</property>
  <property name="meta.media.0.codec.rotate">0</property>
  <property name="meta.media.0.codec.pix_fmt">yuvj420p</property>
  <property name="meta.media.0.codec.sample_aspect_ratio">0</property>
  <property name="meta.media.0.codec.colorspace">601</property>
  <property name="meta.media.0.codec.name">mjpeg</property>
  <property name="meta.media.0.codec.long_name">MJPEG (Motion JPEG)</property>
  <property name="meta.media.0.codec.bit_rate">0</property>
  <property name="meta.attr.0.stream.HANDLER_NAME.markup">VideoHandler</property>
  <property name="meta.attr.0.stream.VENDOR_ID.markup">[0][0][0][0]</property>
  <property name="meta.attr.0.stream.ENCODER.markup">Lavc60.3.100 mjpeg</property>
  <property name="meta.attr.0.stream.DURATION.markup">00:00:01.000000000</property>
  <property name="meta.attr.COMMENT.markup">Rendered with Manim Community v0.17.2</property>
  <property name="meta.attr.MAJOR_BRAND.markup">isom</property>
  <property name="meta.attr.MINOR_VERSION.markup">512</property>
  <property name="meta.attr.COMPATIBLE_BRANDS.markup">isomiso2avc1mp41</property>
  <property name="meta.attr.ENCODER.markup">Lavf60.3.100</property>
  <property name="seekable">1</property>
  <property name="meta.media.sample_aspect_num">1</property>
  <property name="meta.media.sample_aspect_den">1</property>
  <property name="aspect_ratio">1</property>
  <property name="format">3</property>
  <property name="kdenlive:clipname">36.mp4</property>
  <property name="kdenlive:clip_type">2</property>
  <property name="kdenlive:folderid">488</property>
  <property name="kdenlive:id">409</property>
  <property name="kdenlive:file_size">465268</property>
  <property name="kdenlive:file_hash">a3531c9f1c83dc189dd069b01aaffee1</property>
  <property name="kdenlive:proxy">/home/xiaoxiae/.cache/kdenlive/proxy/a3531c9f1c83dc189dd069b01aaffee1.mkv</property>
  <property name="kdenlive:originalurl">video/Insertion/36.mp4</property>
  <property name="kdenlive:original.mlt_type">producer</property>
  <property name="kdenlive:original.in">00:00:00.000</property>
  <property name="kdenlive:original.out">00:00:00.983</property>
  <property name="kdenlive:original.length">60</property>
  <property name="kdenlive:original.eof">pause</property>
  <property name="kdenlive:original.resource">video/Insertion/36.mp4</property>
  <property name="kdenlive:original.meta.media.nb_streams">1</property>
  <property name="kdenlive:original.meta.media.0.stream.type">video</property>
  <property name="kdenlive:original.meta.media.0.stream.frame_rate">60</property>
  <property name="kdenlive:original.meta.media.0.stream.sample_aspect_ratio">0</property>
  <property name="kdenlive:original.meta.media.0.codec.width">3840</property>
  <property name="kdenlive:original.meta.media.0.codec.height">2160</property>
  <property name="kdenlive:original.meta.media.0.codec.rotate">0</property>
  <property name="kdenlive:original.meta.media.0.codec.pix_fmt">yuv420p</property>
  <property name="kdenlive:original.meta.media.0.codec.sample_aspect_ratio">0</property>
  <property name="kdenlive:original.meta.media.0.codec.colorspace">709</property>
  <property name="kdenlive:original.meta.media.0.codec.name">h264</property>
  <property name="kdenlive:original.meta.media.0.codec.long_name">H.264 / AVC / MPEG-4 AVC / MPEG-4 part 10</property>
  <property name="kdenlive:original.meta.media.0.codec.bit_rate">3711272</property>
  <property name="kdenlive:original.meta.attr.0.stream.handler_name.markup">VideoHandler</property>
  <property name="kdenlive:original.meta.attr.0.stream.vendor_id.markup">[0][0][0][0]</property>
  <property name="kdenlive:original.meta.attr.0.stream.encoder.markup">Lavc60.3.100 libx264</property>
  <property name="kdenlive:original.meta.attr.major_brand.markup">isom</property>
  <property name="kdenlive:original.meta.attr.minor_version.markup">512</property>
  <property name="kdenlive:original.meta.attr.compatible_brands.markup">isomiso2avc1mp41</property>
  <property name="kdenlive:original.meta.attr.encoder.markup">Lavf60.3.100</property>
  <property name="kdenlive:original.meta.attr.comment.markup">Rendered with Manim Community v0.17.2</property>
  <property name="kdenlive:original.seekable">1</property>
  <property name="kdenlive:original.width">3840</property>
  <property name="kdenlive:original.height">2160</property>
  <property name="kdenlive:original.meta.media.sample_aspect_num">1</property>
  <property name="kdenlive:original.meta.media.sample_aspect_den">1</property>
  <property name="kdenlive:original.aspect_ratio">1</property>
  <property name="kdenlive:original.format">3</property>
  <property name="kdenlive:original.audio_index">-1</property>
  <property name="kdenlive:original.video_index">0</property>
  <property name="kdenlive:original.mute_on_pause">0</property>
  <property name="kdenlive:original.mlt_service">avformat-novalidate</property>
  <property name="kdenlive:original.meta.media.frame_rate_num">60</property>
  <property name="kdenlive:original.meta.media.frame_rate_den">1</property>
  <property name="kdenlive:original.meta.media.colorspace">709</property>
  <property name="kdenlive:original.meta.media.color_trc">2</property>
  <property name="kdenlive:original.meta.media.has_b_frames">2</property>
  <property name="kdenlive:original.meta.media.width">3840</property>
  <property name="kdenlive:original.meta.media.height">2160</property>
  <property name="kdenlive:original.meta.media.color_range">mpeg</property>
  <property name="kdenlive:original.meta.media.top_field_first">0</property>
  <property name="kdenlive:original.meta.media.progressive">1</property>
  <property name="kdenlive:original.kdenlive:clip_type">2</property>
  <property name="kdenlive:original.kdenlive:folderid">488</property>
  <property name="kdenlive:original.kdenlive:id">518</property>
  <property name="kdenlive:original.kdenlive:file_size">465268</property>
  <property name="kdenlive:original.kdenlive:file_hash">a3531c9f1c83dc189dd069b01aaffee1</property>
  <property name="kdenlive:original.backup">1</property>
  <property name="xml">was here</property>
  <property name="meta.media.frame_rate_num">60</property>
  <property name="meta.media.frame_rate_den">1</property>
  <property name="meta.media.colorspace">601</property>
  <property name="meta.media.color_trc">2</property>
  <property name="meta.media.has_b_frames">0</property>
  <property name="meta.media.width">640</property>
  <property name="meta.media.height">360</property>
  <property name="meta.media.color_range">full</property>
  <property name="meta.media.top_field_first">0</property>
  <property name="meta.media.progressive">1</property>
  <property name="set.test_audio">1</property>
  <property name="set.test_image">0</property>
 </producer>
 <producer id="producer669" in="00:00:00.000" out="00:00:01.483">
  <property name="length">90</property>
  <property name="eof">pause</property>
  <property name="resource">/home/xiaoxiae/.cache/kdenlive/proxy/d96153891c2ca29d7b16c6d76d6a322a.mkv</property>
  <property name="audio_index">-1</property>
  <property name="video_index">0</property>
  <property name="mute_on_pause">0</property>
  <property name="mlt_service">avformat-novalidate</property>
  <property name="meta.media.nb_streams">1</property>
  <property name="meta.media.0.stream.type">video</property>
  <property name="meta.media.0.stream.frame_rate">60</property>
  <property name="meta.media.0.stream.sample_aspect_ratio">0</property>
  <property name="meta.media.0.codec.width">640</property>
  <property name="meta.media.0.codec.height">360</property>
  <property name="meta.media.0.codec.rotate">0</property>
  <property name="meta.media.0.codec.pix_fmt">yuvj420p</property>
  <property name="meta.media.0.codec.sample_aspect_ratio">0</property>
  <property name="meta.media.0.codec.colorspace">601</property>
  <property name="meta.media.0.codec.name">mjpeg</property>
  <property name="meta.media.0.codec.long_name">MJPEG (Motion JPEG)</property>
  <property name="meta.media.0.codec.bit_rate">0</property>
  <property name="meta.attr.0.stream.HANDLER_NAME.markup">VideoHandler</property>
  <property name="meta.attr.0.stream.VENDOR_ID.markup">[0][0][0][0]</property>
  <property name="meta.attr.0.stream.ENCODER.markup">Lavc60.3.100 mjpeg</property>
  <property name="meta.attr.0.stream.DURATION.markup">00:00:01.500000000</property>
  <property name="meta.attr.COMMENT.markup">Rendered with Manim Community v0.17.2</property>
  <property name="meta.attr.MAJOR_BRAND.markup">isom</property>
  <property name="meta.attr.MINOR_VERSION.markup">512</property>
  <property name="meta.attr.COMPATIBLE_BRANDS.markup">isomiso2avc1mp41</property>
  <property name="meta.attr.ENCODER.markup">Lavf60.3.100</property>
  <property name="seekable">1</property>
  <property name="meta.media.sample_aspect_num">1</property>
  <property name="meta.media.sample_aspect_den">1</property>
  <property name="aspect_ratio">1</property>
  <property name="format">3</property>
  <property name="kdenlive:clipname">37.mp4</property>
  <property name="kdenlive:clip_type">2</property>
  <property name="kdenlive:folderid">488</property>
  <property name="kdenlive:id">410</property>
  <property name="kdenlive:file_size">112858</property>
  <property name="kdenlive:file_hash">d96153891c2ca29d7b16c6d76d6a322a</property>
  <property name="kdenlive:proxy">/home/xiaoxiae/.cache/kdenlive/proxy/d96153891c2ca29d7b16c6d76d6a322a.mkv</property>
  <property name="kdenlive:originalurl">video/Insertion/37.mp4</property>
  <property name="kdenlive:original.mlt_type">producer</property>
  <property name="kdenlive:original.in">00:00:00.000</property>
  <property name="kdenlive:original.out">00:00:01.483</property>
  <property name="kdenlive:original.length">90</property>
  <property name="kdenlive:original.eof">pause</property>
  <property name="kdenlive:original.resource">video/Insertion/37.mp4</property>
  <property name="kdenlive:original.meta.media.nb_streams">1</property>
  <property name="kdenlive:original.meta.media.0.stream.type">video</property>
  <property name="kdenlive:original.meta.media.0.stream.frame_rate">60</property>
  <property name="kdenlive:original.meta.media.0.stream.sample_aspect_ratio">0</property>
  <property name="kdenlive:original.meta.media.0.codec.width">3840</property>
  <property name="kdenlive:original.meta.media.0.codec.height">2160</property>
  <property name="kdenlive:original.meta.media.0.codec.rotate">0</property>
  <property name="kdenlive:original.meta.media.0.codec.pix_fmt">yuv420p</property>
  <property name="kdenlive:original.meta.media.0.codec.sample_aspect_ratio">0</property>
  <property name="kdenlive:original.meta.media.0.codec.colorspace">709</property>
  <property name="kdenlive:original.meta.media.0.codec.name">h264</property>
  <property name="kdenlive:original.meta.media.0.codec.long_name">H.264 / AVC / MPEG-4 AVC / MPEG-4 part 10</property>
  <property name="kdenlive:original.meta.media.0.codec.bit_rate">591248</property>
  <property name="kdenlive:original.meta.attr.0.stream.handler_name.markup">VideoHandler</property>
  <property name="kdenlive:original.meta.attr.0.stream.vendor_id.markup">[0][0][0][0]</property>
  <property name="kdenlive:original.meta.attr.0.stream.encoder.markup">Lavc60.3.100 libx264</property>
  <property name="kdenlive:original.meta.attr.major_brand.markup">isom</property>
  <property name="kdenlive:original.meta.attr.minor_version.markup">512</property>
  <property name="kdenlive:original.meta.attr.compatible_brands.markup">isomiso2avc1mp41</property>
  <property name="kdenlive:original.meta.attr.encoder.markup">Lavf60.3.100</property>
  <property name="kdenlive:original.meta.attr.comment.markup">Rendered with Manim Community v0.17.2</property>
  <property name="kdenlive:original.seekable">1</property>
  <property name="kdenlive:original.width">3840</property>
  <property name="kdenlive:original.height">2160</property>
  <property name="kdenlive:original.meta.media.sample_aspect_num">1</property>
  <property name="kdenlive:original.meta.media.sample_aspect_den">1</property>
  <property name="kdenlive:original.aspect_ratio">1</property>
  <property name="kdenlive:original.format">3</property>
  <property name="kdenlive:original.audio_index">-1</property>
  <property name="kdenlive:original.video_index">0</property>
  <property name="kdenlive:original.mute_on_pause">0</property>
  <property name="kdenlive:original.mlt_service">avformat-novalidate</property>
  <property name="kdenlive:original.meta.media.frame_rate_num">60</property>
  <property name="kdenlive:original.meta.media.frame_rate_den">1</property>
  <property name="kdenlive:original.meta.media.colorspace">709</property>
  <property name="kdenlive:original.meta.media.color_trc">2</property>
  <property name="kdenlive:original.meta.media.has_b_frames">2</property>
  <property name="kdenlive:original.meta.media.width">3840</property>
  <property name="kdenlive:original.meta.media.height">2160</property>
  <property name="kdenlive:original.meta.media.color_range">mpeg</property>
  <property name="kdenlive:original.meta.media.top_field_first">0</property>
  <property name="kdenlive:original.meta.media.progressive">1</property>
  <property name="kdenlive:original.kdenlive:clip_type">2</property>
  <property name="kdenlive:original.kdenlive:folderid">488</property>
  <property name="kdenlive:original.kdenlive:id">519</property>
  <property name="kdenlive:original.kdenlive:file_size">112858</property>
  <property name="kdenlive:original.kdenlive:file_hash">d96153891c2ca29d7b16c6d76d6a322a</property>
  <property name="kdenlive:original.backup">1</property>
  <property name="xml">was here</property>
  <property name="meta.media.frame_rate_num">60</property>
  <property name="meta.media.frame_rate_den">1</property>
  <property name="meta.media.colorspace">601</property>
  <property name="meta.media.color_trc">2</property>
  <property name="meta.media.has_b_frames">0</property>
  <property name="meta.media.width">640</property>
  <property name="meta.media.height">360</property>
  <property name="meta.media.color_range">full</property>
  <property name="meta.media.top_field_first">0</property>
  <property name="meta.media.progressive">1</property>
  <property name="set.test_audio">1</property>
  <property name="set.test_image">0</property>
 </producer>
 <producer id="producer670" in="00:00:00.000" out="00:00:00.983">
  <property name="length">60</property>
  <property name="eof">pause</property>
  <property name="resource">/home/xiaoxiae/.cache/kdenlive/proxy/5c4fbcb5a7e2894b960d0fd91cfaf428.mkv</property>
  <property name="audio_index">-1</property>
  <property name="video_index">0</property>
  <property name="mute_on_pause">0</property>
  <property name="mlt_service">avformat-novalidate</property>
  <property name="meta.media.nb_streams">1</property>
  <property name="meta.media.0.stream.type">video</property>
  <property name="meta.media.0.stream.frame_rate">60</property>
  <property name="meta.media.0.stream.sample_aspect_ratio">0</property>
  <property name="meta.media.0.codec.width">640</property>
  <property name="meta.media.0.codec.height">360</property>
  <property name="meta.media.0.codec.rotate">0</property>
  <property name="meta.media.0.codec.pix_fmt">yuvj420p</property>
  <property name="meta.media.0.codec.sample_aspect_ratio">0</property>
  <property name="meta.media.0.codec.colorspace">601</property>
  <property name="meta.media.0.codec.name">mjpeg</property>
  <property name="meta.media.0.codec.long_name">MJPEG (Motion JPEG)</property>
  <property name="meta.media.0.codec.bit_rate">0</property>
  <property name="meta.attr.0.stream.HANDLER_NAME.markup">VideoHandler</property>
  <property name="meta.attr.0.stream.VENDOR_ID.markup">[0][0][0][0]</property>
  <property name="meta.attr.0.stream.ENCODER.markup">Lavc60.3.100 mjpeg</property>
  <property name="meta.attr.0.stream.DURATION.markup">00:00:01.000000000</property>
  <property name="meta.attr.COMMENT.markup">Rendered with Manim Community v0.17.2</property>
  <property name="meta.attr.MAJOR_BRAND.markup">isom</property>
  <property name="meta.attr.MINOR_VERSION.markup">512</property>
  <property name="meta.attr.COMPATIBLE_BRANDS.markup">isomiso2avc1mp41</property>
  <property name="meta.attr.ENCODER.markup">Lavf60.3.100</property>
  <property name="seekable">1</property>
  <property name="meta.media.sample_aspect_num">1</property>
  <property name="meta.media.sample_aspect_den">1</property>
  <property name="aspect_ratio">1</property>
  <property name="format">3</property>
  <property name="kdenlive:clipname">38.mp4</property>
  <property name="kdenlive:clip_type">2</property>
  <property name="kdenlive:folderid">488</property>
  <property name="kdenlive:id">411</property>
  <property name="kdenlive:file_size">561251</property>
  <property name="kdenlive:file_hash">5c4fbcb5a7e2894b960d0fd91cfaf428</property>
  <property name="kdenlive:proxy">/home/xiaoxiae/.cache/kdenlive/proxy/5c4fbcb5a7e2894b960d0fd91cfaf428.mkv</property>
  <property name="kdenlive:originalurl">video/Insertion/38.mp4</property>
  <property name="kdenlive:original.mlt_type">producer</property>
  <property name="kdenlive:original.in">00:00:00.000</property>
  <property name="kdenlive:original.out">00:00:00.983</property>
  <property name="kdenlive:original.length">60</property>
  <property name="kdenlive:original.eof">pause</property>
  <property name="kdenlive:original.resource">video/Insertion/38.mp4</property>
  <property name="kdenlive:original.meta.media.nb_streams">1</property>
  <property name="kdenlive:original.meta.media.0.stream.type">video</property>
  <property name="kdenlive:original.meta.media.0.stream.frame_rate">60</property>
  <property name="kdenlive:original.meta.media.0.stream.sample_aspect_ratio">0</property>
  <property name="kdenlive:original.meta.media.0.codec.width">3840</property>
  <property name="kdenlive:original.meta.media.0.codec.height">2160</property>
  <property name="kdenlive:original.meta.media.0.codec.rotate">0</property>
  <property name="kdenlive:original.meta.media.0.codec.pix_fmt">yuv420p</property>
  <property name="kdenlive:original.meta.media.0.codec.sample_aspect_ratio">0</property>
  <property name="kdenlive:original.meta.media.0.codec.colorspace">709</property>
  <property name="kdenlive:original.meta.media.0.codec.name">h264</property>
  <property name="kdenlive:original.meta.media.0.codec.long_name">H.264 / AVC / MPEG-4 AVC / MPEG-4 part 10</property>
  <property name="kdenlive:original.meta.media.0.codec.bit_rate">4477856</property>
  <property name="kdenlive:original.meta.attr.0.stream.handler_name.markup">VideoHandler</property>
  <property name="kdenlive:original.meta.attr.0.stream.vendor_id.markup">[0][0][0][0]</property>
  <property name="kdenlive:original.meta.attr.0.stream.encoder.markup">Lavc60.3.100 libx264</property>
  <property name="kdenlive:original.meta.attr.major_brand.markup">isom</property>
  <property name="kdenlive:original.meta.attr.minor_version.markup">512</property>
  <property name="kdenlive:original.meta.attr.compatible_brands.markup">isomiso2avc1mp41</property>
  <property name="kdenlive:original.meta.attr.encoder.markup">Lavf60.3.100</property>
  <property name="kdenlive:original.meta.attr.comment.markup">Rendered with Manim Community v0.17.2</property>
  <property name="kdenlive:original.seekable">1</property>
  <property name="kdenlive:original.width">3840</property>
  <property name="kdenlive:original.height">2160</property>
  <property name="kdenlive:original.meta.media.sample_aspect_num">1</property>
  <property name="kdenlive:original.meta.media.sample_aspect_den">1</property>
  <property name="kdenlive:original.aspect_ratio">1</property>
  <property name="kdenlive:original.format">3</property>
  <property name="kdenlive:original.audio_index">-1</property>
  <property name="kdenlive:original.video_index">0</property>
  <property name="kdenlive:original.mute_on_pause">0</property>
  <property name="kdenlive:original.mlt_service">avformat-novalidate</property>
  <property name="kdenlive:original.meta.media.frame_rate_num">60</property>
  <property name="kdenlive:original.meta.media.frame_rate_den">1</property>
  <property name="kdenlive:original.meta.media.colorspace">709</property>
  <property name="kdenlive:original.meta.media.color_trc">2</property>
  <property name="kdenlive:original.meta.media.has_b_frames">2</property>
  <property name="kdenlive:original.meta.media.width">3840</property>
  <property name="kdenlive:original.meta.media.height">2160</property>
  <property name="kdenlive:original.meta.media.color_range">mpeg</property>
  <property name="kdenlive:original.meta.media.top_field_first">0</property>
  <property name="kdenlive:original.meta.media.progressive">1</property>
  <property name="kdenlive:original.kdenlive:clip_type">2</property>
  <property name="kdenlive:original.kdenlive:folderid">488</property>
  <property name="kdenlive:original.kdenlive:id">520</property>
  <property name="kdenlive:original.kdenlive:file_size">561251</property>
  <property name="kdenlive:original.kdenlive:file_hash">5c4fbcb5a7e2894b960d0fd91cfaf428</property>
  <property name="kdenlive:original.backup">1</property>
  <property name="xml">was here</property>
  <property name="meta.media.frame_rate_num">60</property>
  <property name="meta.media.frame_rate_den">1</property>
  <property name="meta.media.colorspace">601</property>
  <property name="meta.media.color_trc">2</property>
  <property name="meta.media.has_b_frames">0</property>
  <property name="meta.media.width">640</property>
  <property name="meta.media.height">360</property>
  <property name="meta.media.color_range">full</property>
  <property name="meta.media.top_field_first">0</property>
  <property name="meta.media.progressive">1</property>
  <property name="set.test_audio">1</property>
  <property name="set.test_image">0</property>
 </producer>
 <producer id="producer671" in="00:00:00.000" out="00:00:00.983">
  <property name="length">60</property>
  <property name="eof">pause</property>
  <property name="resource">/home/xiaoxiae/.cache/kdenlive/proxy/f7148f0d1a1edf7a6d5732d3102ca2e9.mkv</property>
  <property name="audio_index">-1</property>
  <property name="video_index">0</property>
  <property name="mute_on_pause">0</property>
  <property name="mlt_service">avformat-novalidate</property>
  <property name="meta.media.nb_streams">1</property>
  <property name="meta.media.0.stream.type">video</property>
  <property name="meta.media.0.stream.frame_rate">60</property>
  <property name="meta.media.0.stream.sample_aspect_ratio">0</property>
  <property name="meta.media.0.codec.width">640</property>
  <property name="meta.media.0.codec.height">360</property>
  <property name="meta.media.0.codec.rotate">0</property>
  <property name="meta.media.0.codec.pix_fmt">yuvj420p</property>
  <property name="meta.media.0.codec.sample_aspect_ratio">0</property>
  <property name="meta.media.0.codec.colorspace">601</property>
  <property name="meta.media.0.codec.name">mjpeg</property>
  <property name="meta.media.0.codec.long_name">MJPEG (Motion JPEG)</property>
  <property name="meta.media.0.codec.bit_rate">0</property>
  <property name="meta.attr.0.stream.HANDLER_NAME.markup">VideoHandler</property>
  <property name="meta.attr.0.stream.VENDOR_ID.markup">[0][0][0][0]</property>
  <property name="meta.attr.0.stream.ENCODER.markup">Lavc60.3.100 mjpeg</property>
  <property name="meta.attr.0.stream.DURATION.markup">00:00:01.000000000</property>
  <property name="meta.attr.COMMENT.markup">Rendered with Manim Community v0.17.2</property>
  <property name="meta.attr.MAJOR_BRAND.markup">isom</property>
  <property name="meta.attr.MINOR_VERSION.markup">512</property>
  <property name="meta.attr.COMPATIBLE_BRANDS.markup">isomiso2avc1mp41</property>
  <property name="meta.attr.ENCODER.markup">Lavf60.3.100</property>
  <property name="seekable">1</property>
  <property name="meta.media.sample_aspect_num">1</property>
  <property name="meta.media.sample_aspect_den">1</property>
  <property name="aspect_ratio">1</property>
  <property name="format">3</property>
  <property name="kdenlive:clipname">1.mp4</property>
  <property name="kdenlive:clip_type">2</property>
  <property name="kdenlive:folderid">653</property>
  <property name="kdenlive:id">539</property>
  <property name="kdenlive:file_size">164940</property>
  <property name="kdenlive:file_hash">f7148f0d1a1edf7a6d5732d3102ca2e9</property>
  <property name="kdenlive:proxy">/home/xiaoxiae/.cache/kdenlive/proxy/f7148f0d1a1edf7a6d5732d3102ca2e9.mkv</property>
  <property name="kdenlive:originalurl">video/Deletion/1.mp4</property>
  <property name="kdenlive:original.mlt_type">producer</property>
  <property name="kdenlive:original.in">0</property>
  <property name="kdenlive:original.out">59</property>
  <property name="kdenlive:original.length">60</property>
  <property name="kdenlive:original.eof">pause</property>
  <property name="kdenlive:original.resource">video/Deletion/1.mp4</property>
  <property name="kdenlive:original.meta.media.nb_streams">1</property>
  <property name="kdenlive:original.meta.media.0.stream.type">video</property>
  <property name="kdenlive:original.meta.media.0.stream.frame_rate">60</property>
  <property name="kdenlive:original.meta.media.0.stream.sample_aspect_ratio">0</property>
  <property name="kdenlive:original.meta.media.0.codec.width">3840</property>
  <property name="kdenlive:original.meta.media.0.codec.height">2160</property>
  <property name="kdenlive:original.meta.media.0.codec.rotate">0</property>
  <property name="kdenlive:original.meta.media.0.codec.pix_fmt">yuv420p</property>
  <property name="kdenlive:original.meta.media.0.codec.sample_aspect_ratio">0</property>
  <property name="kdenlive:original.meta.media.0.codec.colorspace">709</property>
  <property name="kdenlive:original.meta.media.0.codec.name">h264</property>
  <property name="kdenlive:original.meta.media.0.codec.long_name">H.264 / AVC / MPEG-4 AVC / MPEG-4 part 10</property>
  <property name="kdenlive:original.meta.media.0.codec.bit_rate">1308072</property>
  <property name="kdenlive:original.meta.attr.0.stream.handler_name.markup">VideoHandler</property>
  <property name="kdenlive:original.meta.attr.0.stream.vendor_id.markup">[0][0][0][0]</property>
  <property name="kdenlive:original.meta.attr.0.stream.encoder.markup">Lavc60.3.100 libx264</property>
  <property name="kdenlive:original.meta.attr.major_brand.markup">isom</property>
  <property name="kdenlive:original.meta.attr.minor_version.markup">512</property>
  <property name="kdenlive:original.meta.attr.compatible_brands.markup">isomiso2avc1mp41</property>
  <property name="kdenlive:original.meta.attr.encoder.markup">Lavf60.3.100</property>
  <property name="kdenlive:original.meta.attr.comment.markup">Rendered with Manim Community v0.17.2</property>
  <property name="kdenlive:original.seekable">1</property>
  <property name="kdenlive:original.width">3840</property>
  <property name="kdenlive:original.height">2160</property>
  <property name="kdenlive:original.meta.media.sample_aspect_num">1</property>
  <property name="kdenlive:original.meta.media.sample_aspect_den">1</property>
  <property name="kdenlive:original.aspect_ratio">1</property>
  <property name="kdenlive:original.format">3</property>
  <property name="kdenlive:original.audio_index">-1</property>
  <property name="kdenlive:original.video_index">0</property>
  <property name="kdenlive:original.mute_on_pause">0</property>
  <property name="kdenlive:original.mlt_service">avformat-novalidate</property>
  <property name="kdenlive:original.meta.media.frame_rate_num">60</property>
  <property name="kdenlive:original.meta.media.frame_rate_den">1</property>
  <property name="kdenlive:original.meta.media.colorspace">709</property>
  <property name="kdenlive:original.meta.media.color_trc">2</property>
  <property name="kdenlive:original.meta.media.has_b_frames">2</property>
  <property name="kdenlive:original.meta.media.width">3840</property>
  <property name="kdenlive:original.meta.media.height">2160</property>
  <property name="kdenlive:original.meta.media.color_range">mpeg</property>
  <property name="kdenlive:original.meta.media.top_field_first">0</property>
  <property name="kdenlive:original.meta.media.progressive">1</property>
  <property name="kdenlive:original.kdenlive:clip_type">2</property>
  <property name="kdenlive:original.kdenlive:folderid">653</property>
  <property name="kdenlive:original.kdenlive:id">654</property>
  <property name="kdenlive:original.kdenlive:file_size">164940</property>
  <property name="kdenlive:original.kdenlive:file_hash">f7148f0d1a1edf7a6d5732d3102ca2e9</property>
  <property name="kdenlive:original.backup">1</property>
  <property name="xml">was here</property>
  <property name="meta.media.frame_rate_num">60</property>
  <property name="meta.media.frame_rate_den">1</property>
  <property name="meta.media.colorspace">601</property>
  <property name="meta.media.color_trc">2</property>
  <property name="meta.media.has_b_frames">0</property>
  <property name="meta.media.width">640</property>
  <property name="meta.media.height">360</property>
  <property name="meta.media.color_range">full</property>
  <property name="meta.media.top_field_first">0</property>
  <property name="meta.media.progressive">1</property>
  <property name="set.test_audio">1</property>
  <property name="set.test_image">0</property>
 </producer>
 <producer id="producer672" in="00:00:00.000" out="00:00:00.983">
  <property name="length">60</property>
  <property name="eof">pause</property>
  <property name="resource">/home/xiaoxiae/.cache/kdenlive/proxy/8453bf92cfaa7621cf6ef84242eacf65.mkv</property>
  <property name="audio_index">-1</property>
  <property name="video_index">0</property>
  <property name="mute_on_pause">0</property>
  <property name="mlt_service">avformat-novalidate</property>
  <property name="meta.media.nb_streams">1</property>
  <property name="meta.media.0.stream.type">video</property>
  <property name="meta.media.0.stream.frame_rate">60</property>
  <property name="meta.media.0.stream.sample_aspect_ratio">0</property>
  <property name="meta.media.0.codec.width">640</property>
  <property name="meta.media.0.codec.height">360</property>
  <property name="meta.media.0.codec.rotate">0</property>
  <property name="meta.media.0.codec.pix_fmt">yuvj420p</property>
  <property name="meta.media.0.codec.sample_aspect_ratio">0</property>
  <property name="meta.media.0.codec.colorspace">601</property>
  <property name="meta.media.0.codec.name">mjpeg</property>
  <property name="meta.media.0.codec.long_name">MJPEG (Motion JPEG)</property>
  <property name="meta.media.0.codec.bit_rate">0</property>
  <property name="meta.attr.0.stream.HANDLER_NAME.markup">VideoHandler</property>
  <property name="meta.attr.0.stream.VENDOR_ID.markup">[0][0][0][0]</property>
  <property name="meta.attr.0.stream.ENCODER.markup">Lavc60.3.100 mjpeg</property>
  <property name="meta.attr.0.stream.DURATION.markup">00:00:01.000000000</property>
  <property name="meta.attr.COMMENT.markup">Rendered with Manim Community v0.17.2</property>
  <property name="meta.attr.MAJOR_BRAND.markup">isom</property>
  <property name="meta.attr.MINOR_VERSION.markup">512</property>
  <property name="meta.attr.COMPATIBLE_BRANDS.markup">isomiso2avc1mp41</property>
  <property name="meta.attr.ENCODER.markup">Lavf60.3.100</property>
  <property name="seekable">1</property>
  <property name="meta.media.sample_aspect_num">1</property>
  <property name="meta.media.sample_aspect_den">1</property>
  <property name="aspect_ratio">1</property>
  <property name="format">3</property>
  <property name="kdenlive:clipname">2.mp4</property>
  <property name="kdenlive:clip_type">2</property>
  <property name="kdenlive:folderid">653</property>
  <property name="kdenlive:id">550</property>
  <property name="kdenlive:file_size">76412</property>
  <property name="kdenlive:file_hash">8453bf92cfaa7621cf6ef84242eacf65</property>
  <property name="kdenlive:proxy">/home/xiaoxiae/.cache/kdenlive/proxy/8453bf92cfaa7621cf6ef84242eacf65.mkv</property>
  <property name="kdenlive:originalurl">video/Deletion/2.mp4</property>
  <property name="kdenlive:original.mlt_type">producer</property>
  <property name="kdenlive:original.in">0</property>
  <property name="kdenlive:original.out">59</property>
  <property name="kdenlive:original.length">60</property>
  <property name="kdenlive:original.eof">pause</property>
  <property name="kdenlive:original.resource">video/Deletion/2.mp4</property>
  <property name="kdenlive:original.meta.media.nb_streams">1</property>
  <property name="kdenlive:original.meta.media.0.stream.type">video</property>
  <property name="kdenlive:original.meta.media.0.stream.frame_rate">60</property>
  <property name="kdenlive:original.meta.media.0.stream.sample_aspect_ratio">0</property>
  <property name="kdenlive:original.meta.media.0.codec.width">3840</property>
  <property name="kdenlive:original.meta.media.0.codec.height">2160</property>
  <property name="kdenlive:original.meta.media.0.codec.rotate">0</property>
  <property name="kdenlive:original.meta.media.0.codec.pix_fmt">yuv420p</property>
  <property name="kdenlive:original.meta.media.0.codec.sample_aspect_ratio">0</property>
  <property name="kdenlive:original.meta.media.0.codec.colorspace">709</property>
  <property name="kdenlive:original.meta.media.0.codec.name">h264</property>
  <property name="kdenlive:original.meta.media.0.codec.long_name">H.264 / AVC / MPEG-4 AVC / MPEG-4 part 10</property>
  <property name="kdenlive:original.meta.media.0.codec.bit_rate">598248</property>
  <property name="kdenlive:original.meta.attr.0.stream.handler_name.markup">VideoHandler</property>
  <property name="kdenlive:original.meta.attr.0.stream.vendor_id.markup">[0][0][0][0]</property>
  <property name="kdenlive:original.meta.attr.0.stream.encoder.markup">Lavc60.3.100 libx264</property>
  <property name="kdenlive:original.meta.attr.major_brand.markup">isom</property>
  <property name="kdenlive:original.meta.attr.minor_version.markup">512</property>
  <property name="kdenlive:original.meta.attr.compatible_brands.markup">isomiso2avc1mp41</property>
  <property name="kdenlive:original.meta.attr.encoder.markup">Lavf60.3.100</property>
  <property name="kdenlive:original.meta.attr.comment.markup">Rendered with Manim Community v0.17.2</property>
  <property name="kdenlive:original.seekable">1</property>
  <property name="kdenlive:original.width">3840</property>
  <property name="kdenlive:original.height">2160</property>
  <property name="kdenlive:original.meta.media.sample_aspect_num">1</property>
  <property name="kdenlive:original.meta.media.sample_aspect_den">1</property>
  <property name="kdenlive:original.aspect_ratio">1</property>
  <property name="kdenlive:original.format">3</property>
  <property name="kdenlive:original.audio_index">-1</property>
  <property name="kdenlive:original.video_index">0</property>
  <property name="kdenlive:original.mute_on_pause">0</property>
  <property name="kdenlive:original.mlt_service">avformat-novalidate</property>
  <property name="kdenlive:original.meta.media.frame_rate_num">60</property>
  <property name="kdenlive:original.meta.media.frame_rate_den">1</property>
  <property name="kdenlive:original.meta.media.colorspace">709</property>
  <property name="kdenlive:original.meta.media.color_trc">2</property>
  <property name="kdenlive:original.meta.media.has_b_frames">2</property>
  <property name="kdenlive:original.meta.media.width">3840</property>
  <property name="kdenlive:original.meta.media.height">2160</property>
  <property name="kdenlive:original.meta.media.color_range">mpeg</property>
  <property name="kdenlive:original.meta.media.top_field_first">0</property>
  <property name="kdenlive:original.meta.media.progressive">1</property>
  <property name="kdenlive:original.kdenlive:clip_type">2</property>
  <property name="kdenlive:original.kdenlive:folderid">653</property>
  <property name="kdenlive:original.kdenlive:id">665</property>
  <property name="kdenlive:original.kdenlive:file_size">76412</property>
  <property name="kdenlive:original.kdenlive:file_hash">8453bf92cfaa7621cf6ef84242eacf65</property>
  <property name="kdenlive:original.backup">1</property>
  <property name="xml">was here</property>
  <property name="meta.media.frame_rate_num">60</property>
  <property name="meta.media.frame_rate_den">1</property>
  <property name="meta.media.colorspace">601</property>
  <property name="meta.media.color_trc">2</property>
  <property name="meta.media.has_b_frames">0</property>
  <property name="meta.media.width">640</property>
  <property name="meta.media.height">360</property>
  <property name="meta.media.color_range">full</property>
  <property name="meta.media.top_field_first">0</property>
  <property name="meta.media.progressive">1</property>
  <property name="set.test_audio">1</property>
  <property name="set.test_image">0</property>
 </producer>
 <producer id="producer673" in="00:00:00.000" out="00:00:00.183">
  <property name="length">12</property>
  <property name="eof">pause</property>
  <property name="resource">/home/xiaoxiae/.cache/kdenlive/proxy/d46d88f2d12a2ed0b74d3db506b97e9b.mkv</property>
  <property name="audio_index">-1</property>
  <property name="video_index">0</property>
  <property name="mute_on_pause">0</property>
  <property name="mlt_service">avformat-novalidate</property>
  <property name="meta.media.nb_streams">1</property>
  <property name="meta.media.0.stream.type">video</property>
  <property name="meta.media.0.stream.frame_rate">60</property>
  <property name="meta.media.0.stream.sample_aspect_ratio">0</property>
  <property name="meta.media.0.codec.width">640</property>
  <property name="meta.media.0.codec.height">360</property>
  <property name="meta.media.0.codec.rotate">0</property>
  <property name="meta.media.0.codec.pix_fmt">yuvj420p</property>
  <property name="meta.media.0.codec.sample_aspect_ratio">0</property>
  <property name="meta.media.0.codec.colorspace">601</property>
  <property name="meta.media.0.codec.name">mjpeg</property>
  <property name="meta.media.0.codec.long_name">MJPEG (Motion JPEG)</property>
  <property name="meta.media.0.codec.bit_rate">0</property>
  <property name="meta.attr.0.stream.HANDLER_NAME.markup">VideoHandler</property>
  <property name="meta.attr.0.stream.VENDOR_ID.markup">[0][0][0][0]</property>
  <property name="meta.attr.0.stream.ENCODER.markup">Lavc60.3.100 mjpeg</property>
  <property name="meta.attr.0.stream.DURATION.markup">00:00:00.200000000</property>
  <property name="meta.attr.COMMENT.markup">Rendered with Manim Community v0.17.2</property>
  <property name="meta.attr.MAJOR_BRAND.markup">isom</property>
  <property name="meta.attr.MINOR_VERSION.markup">512</property>
  <property name="meta.attr.COMPATIBLE_BRANDS.markup">isomiso2avc1mp41</property>
  <property name="meta.attr.ENCODER.markup">Lavf60.3.100</property>
  <property name="seekable">1</property>
  <property name="meta.media.sample_aspect_num">1</property>
  <property name="meta.media.sample_aspect_den">1</property>
  <property name="aspect_ratio">1</property>
  <property name="format">3</property>
  <property name="kdenlive:clipname">4.mp4</property>
  <property name="kdenlive:clip_type">2</property>
  <property name="kdenlive:folderid">653</property>
  <property name="kdenlive:id">573</property>
  <property name="kdenlive:file_size">70900</property>
  <property name="kdenlive:file_hash">d46d88f2d12a2ed0b74d3db506b97e9b</property>
  <property name="kdenlive:proxy">/home/xiaoxiae/.cache/kdenlive/proxy/d46d88f2d12a2ed0b74d3db506b97e9b.mkv</property>
  <property name="kdenlive:originalurl">video/Deletion/4.mp4</property>
  <property name="kdenlive:original.mlt_type">producer</property>
  <property name="kdenlive:original.in">0</property>
  <property name="kdenlive:original.out">11</property>
  <property name="kdenlive:original.length">12</property>
  <property name="kdenlive:original.eof">pause</property>
  <property name="kdenlive:original.resource">video/Deletion/4.mp4</property>
  <property name="kdenlive:original.meta.media.nb_streams">1</property>
  <property name="kdenlive:original.meta.media.0.stream.type">video</property>
  <property name="kdenlive:original.meta.media.0.stream.frame_rate">60</property>
  <property name="kdenlive:original.meta.media.0.stream.sample_aspect_ratio">0</property>
  <property name="kdenlive:original.meta.media.0.codec.width">3840</property>
  <property name="kdenlive:original.meta.media.0.codec.height">2160</property>
  <property name="kdenlive:original.meta.media.0.codec.rotate">0</property>
  <property name="kdenlive:original.meta.media.0.codec.pix_fmt">yuv420p</property>
  <property name="kdenlive:original.meta.media.0.codec.sample_aspect_ratio">0</property>
  <property name="kdenlive:original.meta.media.0.codec.colorspace">709</property>
  <property name="kdenlive:original.meta.media.0.codec.name">h264</property>
  <property name="kdenlive:original.meta.media.0.codec.long_name">H.264 / AVC / MPEG-4 AVC / MPEG-4 part 10</property>
  <property name="kdenlive:original.meta.media.0.codec.bit_rate">2794120</property>
  <property name="kdenlive:original.meta.attr.0.stream.handler_name.markup">VideoHandler</property>
  <property name="kdenlive:original.meta.attr.0.stream.vendor_id.markup">[0][0][0][0]</property>
  <property name="kdenlive:original.meta.attr.0.stream.encoder.markup">Lavc60.3.100 libx264</property>
  <property name="kdenlive:original.meta.attr.major_brand.markup">isom</property>
  <property name="kdenlive:original.meta.attr.minor_version.markup">512</property>
  <property name="kdenlive:original.meta.attr.compatible_brands.markup">isomiso2avc1mp41</property>
  <property name="kdenlive:original.meta.attr.encoder.markup">Lavf60.3.100</property>
  <property name="kdenlive:original.meta.attr.comment.markup">Rendered with Manim Community v0.17.2</property>
  <property name="kdenlive:original.seekable">1</property>
  <property name="kdenlive:original.width">3840</property>
  <property name="kdenlive:original.height">2160</property>
  <property name="kdenlive:original.meta.media.sample_aspect_num">1</property>
  <property name="kdenlive:original.meta.media.sample_aspect_den">1</property>
  <property name="kdenlive:original.aspect_ratio">1</property>
  <property name="kdenlive:original.format">3</property>
  <property name="kdenlive:original.audio_index">-1</property>
  <property name="kdenlive:original.video_index">0</property>
  <property name="kdenlive:original.mute_on_pause">0</property>
  <property name="kdenlive:original.mlt_service">avformat-novalidate</property>
  <property name="kdenlive:original.meta.media.frame_rate_num">60</property>
  <property name="kdenlive:original.meta.media.frame_rate_den">1</property>
  <property name="kdenlive:original.meta.media.colorspace">709</property>
  <property name="kdenlive:original.meta.media.color_trc">2</property>
  <property name="kdenlive:original.meta.media.has_b_frames">2</property>
  <property name="kdenlive:original.meta.media.width">3840</property>
  <property name="kdenlive:original.meta.media.height">2160</property>
  <property name="kdenlive:original.meta.media.color_range">mpeg</property>
  <property name="kdenlive:original.meta.media.top_field_first">0</property>
  <property name="kdenlive:original.meta.media.progressive">1</property>
  <property name="kdenlive:original.kdenlive:clip_type">2</property>
  <property name="kdenlive:original.kdenlive:folderid">653</property>
  <property name="kdenlive:original.kdenlive:id">687</property>
  <property name="kdenlive:original.kdenlive:file_size">70900</property>
  <property name="kdenlive:original.kdenlive:file_hash">d46d88f2d12a2ed0b74d3db506b97e9b</property>
  <property name="kdenlive:original.backup">1</property>
  <property name="xml">was here</property>
  <property name="meta.media.frame_rate_num">60</property>
  <property name="meta.media.frame_rate_den">1</property>
  <property name="meta.media.colorspace">601</property>
  <property name="meta.media.color_trc">2</property>
  <property name="meta.media.has_b_frames">0</property>
  <property name="meta.media.width">640</property>
  <property name="meta.media.height">360</property>
  <property name="meta.media.color_range">full</property>
  <property name="meta.media.top_field_first">0</property>
  <property name="meta.media.progressive">1</property>
  <property name="set.test_audio">1</property>
  <property name="set.test_image">0</property>
 </producer>
 <producer id="producer674" in="00:00:00.000" out="00:00:00.117">
  <property name="length">8</property>
  <property name="eof">pause</property>
  <property name="resource">/home/xiaoxiae/.cache/kdenlive/proxy/45bb1d50ba499c246c662172c71044e8.mkv</property>
  <property name="audio_index">-1</property>
  <property name="video_index">0</property>
  <property name="mute_on_pause">0</property>
  <property name="mlt_service">avformat-novalidate</property>
  <property name="meta.media.nb_streams">1</property>
  <property name="meta.media.0.stream.type">video</property>
  <property name="meta.media.0.stream.frame_rate">60</property>
  <property name="meta.media.0.stream.sample_aspect_ratio">0</property>
  <property name="meta.media.0.codec.width">640</property>
  <property name="meta.media.0.codec.height">360</property>
  <property name="meta.media.0.codec.rotate">0</property>
  <property name="meta.media.0.codec.pix_fmt">yuvj420p</property>
  <property name="meta.media.0.codec.sample_aspect_ratio">0</property>
  <property name="meta.media.0.codec.colorspace">601</property>
  <property name="meta.media.0.codec.name">mjpeg</property>
  <property name="meta.media.0.codec.long_name">MJPEG (Motion JPEG)</property>
  <property name="meta.media.0.codec.bit_rate">0</property>
  <property name="meta.attr.0.stream.HANDLER_NAME.markup">VideoHandler</property>
  <property name="meta.attr.0.stream.VENDOR_ID.markup">[0][0][0][0]</property>
  <property name="meta.attr.0.stream.ENCODER.markup">Lavc60.3.100 mjpeg</property>
  <property name="meta.attr.0.stream.DURATION.markup">00:00:00.134000000</property>
  <property name="meta.attr.COMMENT.markup">Rendered with Manim Community v0.17.2</property>
  <property name="meta.attr.MAJOR_BRAND.markup">isom</property>
  <property name="meta.attr.MINOR_VERSION.markup">512</property>
  <property name="meta.attr.COMPATIBLE_BRANDS.markup">isomiso2avc1mp41</property>
  <property name="meta.attr.ENCODER.markup">Lavf60.3.100</property>
  <property name="seekable">1</property>
  <property name="meta.media.sample_aspect_num">1</property>
  <property name="meta.media.sample_aspect_den">1</property>
  <property name="aspect_ratio">1</property>
  <property name="format">3</property>
  <property name="kdenlive:clipname">5.mp4</property>
  <property name="kdenlive:clip_type">2</property>
  <property name="kdenlive:folderid">653</property>
  <property name="kdenlive:id">584</property>
  <property name="kdenlive:file_size">63234</property>
  <property name="kdenlive:file_hash">45bb1d50ba499c246c662172c71044e8</property>
  <property name="kdenlive:proxy">/home/xiaoxiae/.cache/kdenlive/proxy/45bb1d50ba499c246c662172c71044e8.mkv</property>
  <property name="kdenlive:originalurl">video/Deletion/5.mp4</property>
  <property name="kdenlive:original.mlt_type">producer</property>
  <property name="kdenlive:original.in">0</property>
  <property name="kdenlive:original.out">7</property>
  <property name="kdenlive:original.length">8</property>
  <property name="kdenlive:original.eof">pause</property>
  <property name="kdenlive:original.resource">video/Deletion/5.mp4</property>
  <property name="kdenlive:original.meta.media.nb_streams">1</property>
  <property name="kdenlive:original.meta.media.0.stream.type">video</property>
  <property name="kdenlive:original.meta.media.0.stream.frame_rate">60</property>
  <property name="kdenlive:original.meta.media.0.stream.sample_aspect_ratio">0</property>
  <property name="kdenlive:original.meta.media.0.codec.width">3840</property>
  <property name="kdenlive:original.meta.media.0.codec.height">2160</property>
  <property name="kdenlive:original.meta.media.0.codec.rotate">0</property>
  <property name="kdenlive:original.meta.media.0.codec.pix_fmt">yuv420p</property>
  <property name="kdenlive:original.meta.media.0.codec.sample_aspect_ratio">0</property>
  <property name="kdenlive:original.meta.media.0.codec.colorspace">709</property>
  <property name="kdenlive:original.meta.media.0.codec.name">h264</property>
  <property name="kdenlive:original.meta.media.0.codec.long_name">H.264 / AVC / MPEG-4 AVC / MPEG-4 part 10</property>
  <property name="kdenlive:original.meta.media.0.codec.bit_rate">3733620</property>
  <property name="kdenlive:original.meta.attr.0.stream.handler_name.markup">VideoHandler</property>
  <property name="kdenlive:original.meta.attr.0.stream.vendor_id.markup">[0][0][0][0]</property>
  <property name="kdenlive:original.meta.attr.0.stream.encoder.markup">Lavc60.3.100 libx264</property>
  <property name="kdenlive:original.meta.attr.major_brand.markup">isom</property>
  <property name="kdenlive:original.meta.attr.minor_version.markup">512</property>
  <property name="kdenlive:original.meta.attr.compatible_brands.markup">isomiso2avc1mp41</property>
  <property name="kdenlive:original.meta.attr.encoder.markup">Lavf60.3.100</property>
  <property name="kdenlive:original.meta.attr.comment.markup">Rendered with Manim Community v0.17.2</property>
  <property name="kdenlive:original.seekable">1</property>
  <property name="kdenlive:original.width">3840</property>
  <property name="kdenlive:original.height">2160</property>
  <property name="kdenlive:original.meta.media.sample_aspect_num">1</property>
  <property name="kdenlive:original.meta.media.sample_aspect_den">1</property>
  <property name="kdenlive:original.aspect_ratio">1</property>
  <property name="kdenlive:original.format">3</property>
  <property name="kdenlive:original.audio_index">-1</property>
  <property name="kdenlive:original.video_index">0</property>
  <property name="kdenlive:original.mute_on_pause">0</property>
  <property name="kdenlive:original.mlt_service">avformat-novalidate</property>
  <property name="kdenlive:original.meta.media.frame_rate_num">60</property>
  <property name="kdenlive:original.meta.media.frame_rate_den">1</property>
  <property name="kdenlive:original.meta.media.colorspace">709</property>
  <property name="kdenlive:original.meta.media.color_trc">2</property>
  <property name="kdenlive:original.meta.media.has_b_frames">2</property>
  <property name="kdenlive:original.meta.media.width">3840</property>
  <property name="kdenlive:original.meta.media.height">2160</property>
  <property name="kdenlive:original.meta.media.color_range">mpeg</property>
  <property name="kdenlive:original.meta.media.top_field_first">0</property>
  <property name="kdenlive:original.meta.media.progressive">1</property>
  <property name="kdenlive:original.kdenlive:clip_type">2</property>
  <property name="kdenlive:original.kdenlive:folderid">653</property>
  <property name="kdenlive:original.kdenlive:id">698</property>
  <property name="kdenlive:original.kdenlive:file_size">63234</property>
  <property name="kdenlive:original.kdenlive:file_hash">45bb1d50ba499c246c662172c71044e8</property>
  <property name="kdenlive:original.backup">1</property>
  <property name="xml">was here</property>
  <property name="meta.media.frame_rate_num">60</property>
  <property name="meta.media.frame_rate_den">1</property>
  <property name="meta.media.colorspace">601</property>
  <property name="meta.media.color_trc">2</property>
  <property name="meta.media.has_b_frames">0</property>
  <property name="meta.media.width">640</property>
  <property name="meta.media.height">360</property>
  <property name="meta.media.color_range">full</property>
  <property name="meta.media.top_field_first">0</property>
  <property name="meta.media.progressive">1</property>
  <property name="set.test_audio">1</property>
  <property name="set.test_image">0</property>
 </producer>
 <producer id="producer675" in="00:00:00.000" out="00:00:00.117">
  <property name="length">8</property>
  <property name="eof">pause</property>
  <property name="resource">/home/xiaoxiae/.cache/kdenlive/proxy/325da54ee00c3c7bb4cd4300197fdfd5.mkv</property>
  <property name="audio_index">-1</property>
  <property name="video_index">0</property>
  <property name="mute_on_pause">0</property>
  <property name="mlt_service">avformat-novalidate</property>
  <property name="meta.media.nb_streams">1</property>
  <property name="meta.media.0.stream.type">video</property>
  <property name="meta.media.0.stream.frame_rate">60</property>
  <property name="meta.media.0.stream.sample_aspect_ratio">0</property>
  <property name="meta.media.0.codec.width">640</property>
  <property name="meta.media.0.codec.height">360</property>
  <property name="meta.media.0.codec.rotate">0</property>
  <property name="meta.media.0.codec.pix_fmt">yuvj420p</property>
  <property name="meta.media.0.codec.sample_aspect_ratio">0</property>
  <property name="meta.media.0.codec.colorspace">601</property>
  <property name="meta.media.0.codec.name">mjpeg</property>
  <property name="meta.media.0.codec.long_name">MJPEG (Motion JPEG)</property>
  <property name="meta.media.0.codec.bit_rate">0</property>
  <property name="meta.attr.0.stream.HANDLER_NAME.markup">VideoHandler</property>
  <property name="meta.attr.0.stream.VENDOR_ID.markup">[0][0][0][0]</property>
  <property name="meta.attr.0.stream.ENCODER.markup">Lavc60.3.100 mjpeg</property>
  <property name="meta.attr.0.stream.DURATION.markup">00:00:00.134000000</property>
  <property name="meta.attr.COMMENT.markup">Rendered with Manim Community v0.17.2</property>
  <property name="meta.attr.MAJOR_BRAND.markup">isom</property>
  <property name="meta.attr.MINOR_VERSION.markup">512</property>
  <property name="meta.attr.COMPATIBLE_BRANDS.markup">isomiso2avc1mp41</property>
  <property name="meta.attr.ENCODER.markup">Lavf60.3.100</property>
  <property name="seekable">1</property>
  <property name="meta.media.sample_aspect_num">1</property>
  <property name="meta.media.sample_aspect_den">1</property>
  <property name="aspect_ratio">1</property>
  <property name="format">3</property>
  <property name="kdenlive:clipname">6.mp4</property>
  <property name="kdenlive:clip_type">2</property>
  <property name="kdenlive:folderid">653</property>
  <property name="kdenlive:id">586</property>
  <property name="kdenlive:file_size">70871</property>
  <property name="kdenlive:file_hash">325da54ee00c3c7bb4cd4300197fdfd5</property>
  <property name="kdenlive:proxy">/home/xiaoxiae/.cache/kdenlive/proxy/325da54ee00c3c7bb4cd4300197fdfd5.mkv</property>
  <property name="kdenlive:originalurl">video/Deletion/6.mp4</property>
  <property name="kdenlive:original.mlt_type">producer</property>
  <property name="kdenlive:original.in">0</property>
  <property name="kdenlive:original.out">7</property>
  <property name="kdenlive:original.length">8</property>
  <property name="kdenlive:original.eof">pause</property>
  <property name="kdenlive:original.resource">video/Deletion/6.mp4</property>
  <property name="kdenlive:original.meta.media.nb_streams">1</property>
  <property name="kdenlive:original.meta.media.0.stream.type">video</property>
  <property name="kdenlive:original.meta.media.0.stream.frame_rate">60</property>
  <property name="kdenlive:original.meta.media.0.stream.sample_aspect_ratio">0</property>
  <property name="kdenlive:original.meta.media.0.codec.width">3840</property>
  <property name="kdenlive:original.meta.media.0.codec.height">2160</property>
  <property name="kdenlive:original.meta.media.0.codec.rotate">0</property>
  <property name="kdenlive:original.meta.media.0.codec.pix_fmt">yuv420p</property>
  <property name="kdenlive:original.meta.media.0.codec.sample_aspect_ratio">0</property>
  <property name="kdenlive:original.meta.media.0.codec.colorspace">709</property>
  <property name="kdenlive:original.meta.media.0.codec.name">h264</property>
  <property name="kdenlive:original.meta.media.0.codec.long_name">H.264 / AVC / MPEG-4 AVC / MPEG-4 part 10</property>
  <property name="kdenlive:original.meta.media.0.codec.bit_rate">4191840</property>
  <property name="kdenlive:original.meta.attr.0.stream.handler_name.markup">VideoHandler</property>
  <property name="kdenlive:original.meta.attr.0.stream.vendor_id.markup">[0][0][0][0]</property>
  <property name="kdenlive:original.meta.attr.0.stream.encoder.markup">Lavc60.3.100 libx264</property>
  <property name="kdenlive:original.meta.attr.major_brand.markup">isom</property>
  <property name="kdenlive:original.meta.attr.minor_version.markup">512</property>
  <property name="kdenlive:original.meta.attr.compatible_brands.markup">isomiso2avc1mp41</property>
  <property name="kdenlive:original.meta.attr.encoder.markup">Lavf60.3.100</property>
  <property name="kdenlive:original.meta.attr.comment.markup">Rendered with Manim Community v0.17.2</property>
  <property name="kdenlive:original.seekable">1</property>
  <property name="kdenlive:original.width">3840</property>
  <property name="kdenlive:original.height">2160</property>
  <property name="kdenlive:original.meta.media.sample_aspect_num">1</property>
  <property name="kdenlive:original.meta.media.sample_aspect_den">1</property>
  <property name="kdenlive:original.aspect_ratio">1</property>
  <property name="kdenlive:original.format">3</property>
  <property name="kdenlive:original.audio_index">-1</property>
  <property name="kdenlive:original.video_index">0</property>
  <property name="kdenlive:original.mute_on_pause">0</property>
  <property name="kdenlive:original.mlt_service">avformat-novalidate</property>
  <property name="kdenlive:original.meta.media.frame_rate_num">60</property>
  <property name="kdenlive:original.meta.media.frame_rate_den">1</property>
  <property name="kdenlive:original.meta.media.colorspace">709</property>
  <property name="kdenlive:original.meta.media.color_trc">2</property>
  <property name="kdenlive:original.meta.media.has_b_frames">2</property>
  <property name="kdenlive:original.meta.media.width">3840</property>
  <property name="kdenlive:original.meta.media.height">2160</property>
  <property name="kdenlive:original.meta.media.color_range">mpeg</property>
  <property name="kdenlive:original.meta.media.top_field_first">0</property>
  <property name="kdenlive:original.meta.media.progressive">1</property>
  <property name="kdenlive:original.kdenlive:clip_type">2</property>
  <property name="kdenlive:original.kdenlive:folderid">653</property>
  <property name="kdenlive:original.kdenlive:id">700</property>
  <property name="kdenlive:original.kdenlive:file_size">70871</property>
  <property name="kdenlive:original.kdenlive:file_hash">325da54ee00c3c7bb4cd4300197fdfd5</property>
  <property name="kdenlive:original.backup">1</property>
  <property name="xml">was here</property>
  <property name="meta.media.frame_rate_num">60</property>
  <property name="meta.media.frame_rate_den">1</property>
  <property name="meta.media.colorspace">601</property>
  <property name="meta.media.color_trc">2</property>
  <property name="meta.media.has_b_frames">0</property>
  <property name="meta.media.width">640</property>
  <property name="meta.media.height">360</property>
  <property name="meta.media.color_range">full</property>
  <property name="meta.media.top_field_first">0</property>
  <property name="meta.media.progressive">1</property>
  <property name="set.test_audio">1</property>
  <property name="set.test_image">0</property>
 </producer>
 <producer id="producer676" in="00:00:00.000" out="00:00:00.183">
  <property name="length">12</property>
  <property name="eof">pause</property>
  <property name="resource">/home/xiaoxiae/.cache/kdenlive/proxy/e11ceda0220cfec415d46263d9327775.mkv</property>
  <property name="audio_index">-1</property>
  <property name="video_index">0</property>
  <property name="mute_on_pause">0</property>
  <property name="mlt_service">avformat-novalidate</property>
  <property name="meta.media.nb_streams">1</property>
  <property name="meta.media.0.stream.type">video</property>
  <property name="meta.media.0.stream.frame_rate">60</property>
  <property name="meta.media.0.stream.sample_aspect_ratio">0</property>
  <property name="meta.media.0.codec.width">640</property>
  <property name="meta.media.0.codec.height">360</property>
  <property name="meta.media.0.codec.rotate">0</property>
  <property name="meta.media.0.codec.pix_fmt">yuvj420p</property>
  <property name="meta.media.0.codec.sample_aspect_ratio">0</property>
  <property name="meta.media.0.codec.colorspace">601</property>
  <property name="meta.media.0.codec.name">mjpeg</property>
  <property name="meta.media.0.codec.long_name">MJPEG (Motion JPEG)</property>
  <property name="meta.media.0.codec.bit_rate">0</property>
  <property name="meta.attr.0.stream.HANDLER_NAME.markup">VideoHandler</property>
  <property name="meta.attr.0.stream.VENDOR_ID.markup">[0][0][0][0]</property>
  <property name="meta.attr.0.stream.ENCODER.markup">Lavc60.3.100 mjpeg</property>
  <property name="meta.attr.0.stream.DURATION.markup">00:00:00.200000000</property>
  <property name="meta.attr.COMMENT.markup">Rendered with Manim Community v0.17.2</property>
  <property name="meta.attr.MAJOR_BRAND.markup">isom</property>
  <property name="meta.attr.MINOR_VERSION.markup">512</property>
  <property name="meta.attr.COMPATIBLE_BRANDS.markup">isomiso2avc1mp41</property>
  <property name="meta.attr.ENCODER.markup">Lavf60.3.100</property>
  <property name="seekable">1</property>
  <property name="meta.media.sample_aspect_num">1</property>
  <property name="meta.media.sample_aspect_den">1</property>
  <property name="aspect_ratio">1</property>
  <property name="format">3</property>
  <property name="kdenlive:clipname">7.mp4</property>
  <property name="kdenlive:clip_type">2</property>
  <property name="kdenlive:folderid">653</property>
  <property name="kdenlive:id">587</property>
  <property name="kdenlive:file_size">97669</property>
  <property name="kdenlive:file_hash">e11ceda0220cfec415d46263d9327775</property>
  <property name="kdenlive:proxy">/home/xiaoxiae/.cache/kdenlive/proxy/e11ceda0220cfec415d46263d9327775.mkv</property>
  <property name="kdenlive:originalurl">video/Deletion/7.mp4</property>
  <property name="kdenlive:original.mlt_type">producer</property>
  <property name="kdenlive:original.in">0</property>
  <property name="kdenlive:original.out">11</property>
  <property name="kdenlive:original.length">12</property>
  <property name="kdenlive:original.eof">pause</property>
  <property name="kdenlive:original.resource">video/Deletion/7.mp4</property>
  <property name="kdenlive:original.meta.media.nb_streams">1</property>
  <property name="kdenlive:original.meta.media.0.stream.type">video</property>
  <property name="kdenlive:original.meta.media.0.stream.frame_rate">60</property>
  <property name="kdenlive:original.meta.media.0.stream.sample_aspect_ratio">0</property>
  <property name="kdenlive:original.meta.media.0.codec.width">3840</property>
  <property name="kdenlive:original.meta.media.0.codec.height">2160</property>
  <property name="kdenlive:original.meta.media.0.codec.rotate">0</property>
  <property name="kdenlive:original.meta.media.0.codec.pix_fmt">yuv420p</property>
  <property name="kdenlive:original.meta.media.0.codec.sample_aspect_ratio">0</property>
  <property name="kdenlive:original.meta.media.0.codec.colorspace">709</property>
  <property name="kdenlive:original.meta.media.0.codec.name">h264</property>
  <property name="kdenlive:original.meta.media.0.codec.long_name">H.264 / AVC / MPEG-4 AVC / MPEG-4 part 10</property>
  <property name="kdenlive:original.meta.media.0.codec.bit_rate">3864560</property>
  <property name="kdenlive:original.meta.attr.0.stream.handler_name.markup">VideoHandler</property>
  <property name="kdenlive:original.meta.attr.0.stream.vendor_id.markup">[0][0][0][0]</property>
  <property name="kdenlive:original.meta.attr.0.stream.encoder.markup">Lavc60.3.100 libx264</property>
  <property name="kdenlive:original.meta.attr.major_brand.markup">isom</property>
  <property name="kdenlive:original.meta.attr.minor_version.markup">512</property>
  <property name="kdenlive:original.meta.attr.compatible_brands.markup">isomiso2avc1mp41</property>
  <property name="kdenlive:original.meta.attr.encoder.markup">Lavf60.3.100</property>
  <property name="kdenlive:original.meta.attr.comment.markup">Rendered with Manim Community v0.17.2</property>
  <property name="kdenlive:original.seekable">1</property>
  <property name="kdenlive:original.width">3840</property>
  <property name="kdenlive:original.height">2160</property>
  <property name="kdenlive:original.meta.media.sample_aspect_num">1</property>
  <property name="kdenlive:original.meta.media.sample_aspect_den">1</property>
  <property name="kdenlive:original.aspect_ratio">1</property>
  <property name="kdenlive:original.format">3</property>
  <property name="kdenlive:original.audio_index">-1</property>
  <property name="kdenlive:original.video_index">0</property>
  <property name="kdenlive:original.mute_on_pause">0</property>
  <property name="kdenlive:original.mlt_service">avformat-novalidate</property>
  <property name="kdenlive:original.meta.media.frame_rate_num">60</property>
  <property name="kdenlive:original.meta.media.frame_rate_den">1</property>
  <property name="kdenlive:original.meta.media.colorspace">709</property>
  <property name="kdenlive:original.meta.media.color_trc">2</property>
  <property name="kdenlive:original.meta.media.has_b_frames">2</property>
  <property name="kdenlive:original.meta.media.width">3840</property>
  <property name="kdenlive:original.meta.media.height">2160</property>
  <property name="kdenlive:original.meta.media.color_range">mpeg</property>
  <property name="kdenlive:original.meta.media.top_field_first">0</property>
  <property name="kdenlive:original.meta.media.progressive">1</property>
  <property name="kdenlive:original.kdenlive:clip_type">2</property>
  <property name="kdenlive:original.kdenlive:folderid">653</property>
  <property name="kdenlive:original.kdenlive:id">701</property>
  <property name="kdenlive:original.kdenlive:file_size">97669</property>
  <property name="kdenlive:original.kdenlive:file_hash">e11ceda0220cfec415d46263d9327775</property>
  <property name="kdenlive:original.backup">1</property>
  <property name="xml">was here</property>
  <property name="meta.media.frame_rate_num">60</property>
  <property name="meta.media.frame_rate_den">1</property>
  <property name="meta.media.colorspace">601</property>
  <property name="meta.media.color_trc">2</property>
  <property name="meta.media.has_b_frames">0</property>
  <property name="meta.media.width">640</property>
  <property name="meta.media.height">360</property>
  <property name="meta.media.color_range">full</property>
  <property name="meta.media.top_field_first">0</property>
  <property name="meta.media.progressive">1</property>
  <property name="set.test_audio">1</property>
  <property name="set.test_image">0</property>
 </producer>
 <producer id="producer677" in="00:00:00.000" out="00:00:00.183">
  <property name="length">12</property>
  <property name="eof">pause</property>
  <property name="resource">/home/xiaoxiae/.cache/kdenlive/proxy/2b26ba6187e76bf67d2fb24bd4312334.mkv</property>
  <property name="audio_index">-1</property>
  <property name="video_index">0</property>
  <property name="mute_on_pause">0</property>
  <property name="mlt_service">avformat-novalidate</property>
  <property name="meta.media.nb_streams">1</property>
  <property name="meta.media.0.stream.type">video</property>
  <property name="meta.media.0.stream.frame_rate">60</property>
  <property name="meta.media.0.stream.sample_aspect_ratio">0</property>
  <property name="meta.media.0.codec.width">640</property>
  <property name="meta.media.0.codec.height">360</property>
  <property name="meta.media.0.codec.rotate">0</property>
  <property name="meta.media.0.codec.pix_fmt">yuvj420p</property>
  <property name="meta.media.0.codec.sample_aspect_ratio">0</property>
  <property name="meta.media.0.codec.colorspace">601</property>
  <property name="meta.media.0.codec.name">mjpeg</property>
  <property name="meta.media.0.codec.long_name">MJPEG (Motion JPEG)</property>
  <property name="meta.media.0.codec.bit_rate">0</property>
  <property name="meta.attr.0.stream.HANDLER_NAME.markup">VideoHandler</property>
  <property name="meta.attr.0.stream.VENDOR_ID.markup">[0][0][0][0]</property>
  <property name="meta.attr.0.stream.ENCODER.markup">Lavc60.3.100 mjpeg</property>
  <property name="meta.attr.0.stream.DURATION.markup">00:00:00.200000000</property>
  <property name="meta.attr.COMMENT.markup">Rendered with Manim Community v0.17.2</property>
  <property name="meta.attr.MAJOR_BRAND.markup">isom</property>
  <property name="meta.attr.MINOR_VERSION.markup">512</property>
  <property name="meta.attr.COMPATIBLE_BRANDS.markup">isomiso2avc1mp41</property>
  <property name="meta.attr.ENCODER.markup">Lavf60.3.100</property>
  <property name="seekable">1</property>
  <property name="meta.media.sample_aspect_num">1</property>
  <property name="meta.media.sample_aspect_den">1</property>
  <property name="aspect_ratio">1</property>
  <property name="format">3</property>
  <property name="kdenlive:clipname">8.mp4</property>
  <property name="kdenlive:clip_type">2</property>
  <property name="kdenlive:folderid">653</property>
  <property name="kdenlive:id">588</property>
  <property name="kdenlive:file_size">43120</property>
  <property name="kdenlive:file_hash">2b26ba6187e76bf67d2fb24bd4312334</property>
  <property name="kdenlive:proxy">/home/xiaoxiae/.cache/kdenlive/proxy/2b26ba6187e76bf67d2fb24bd4312334.mkv</property>
  <property name="kdenlive:originalurl">video/Deletion/8.mp4</property>
  <property name="kdenlive:original.mlt_type">producer</property>
  <property name="kdenlive:original.in">0</property>
  <property name="kdenlive:original.out">11</property>
  <property name="kdenlive:original.length">12</property>
  <property name="kdenlive:original.eof">pause</property>
  <property name="kdenlive:original.resource">video/Deletion/8.mp4</property>
  <property name="kdenlive:original.meta.media.nb_streams">1</property>
  <property name="kdenlive:original.meta.media.0.stream.type">video</property>
  <property name="kdenlive:original.meta.media.0.stream.frame_rate">60</property>
  <property name="kdenlive:original.meta.media.0.stream.sample_aspect_ratio">0</property>
  <property name="kdenlive:original.meta.media.0.codec.width">3840</property>
  <property name="kdenlive:original.meta.media.0.codec.height">2160</property>
  <property name="kdenlive:original.meta.media.0.codec.rotate">0</property>
  <property name="kdenlive:original.meta.media.0.codec.pix_fmt">yuv420p</property>
  <property name="kdenlive:original.meta.media.0.codec.sample_aspect_ratio">0</property>
  <property name="kdenlive:original.meta.media.0.codec.colorspace">709</property>
  <property name="kdenlive:original.meta.media.0.codec.name">h264</property>
  <property name="kdenlive:original.meta.media.0.codec.long_name">H.264 / AVC / MPEG-4 AVC / MPEG-4 part 10</property>
  <property name="kdenlive:original.meta.media.0.codec.bit_rate">1682600</property>
  <property name="kdenlive:original.meta.attr.0.stream.handler_name.markup">VideoHandler</property>
  <property name="kdenlive:original.meta.attr.0.stream.vendor_id.markup">[0][0][0][0]</property>
  <property name="kdenlive:original.meta.attr.0.stream.encoder.markup">Lavc60.3.100 libx264</property>
  <property name="kdenlive:original.meta.attr.major_brand.markup">isom</property>
  <property name="kdenlive:original.meta.attr.minor_version.markup">512</property>
  <property name="kdenlive:original.meta.attr.compatible_brands.markup">isomiso2avc1mp41</property>
  <property name="kdenlive:original.meta.attr.encoder.markup">Lavf60.3.100</property>
  <property name="kdenlive:original.meta.attr.comment.markup">Rendered with Manim Community v0.17.2</property>
  <property name="kdenlive:original.seekable">1</property>
  <property name="kdenlive:original.width">3840</property>
  <property name="kdenlive:original.height">2160</property>
  <property name="kdenlive:original.meta.media.sample_aspect_num">1</property>
  <property name="kdenlive:original.meta.media.sample_aspect_den">1</property>
  <property name="kdenlive:original.aspect_ratio">1</property>
  <property name="kdenlive:original.format">3</property>
  <property name="kdenlive:original.audio_index">-1</property>
  <property name="kdenlive:original.video_index">0</property>
  <property name="kdenlive:original.mute_on_pause">0</property>
  <property name="kdenlive:original.mlt_service">avformat-novalidate</property>
  <property name="kdenlive:original.meta.media.frame_rate_num">60</property>
  <property name="kdenlive:original.meta.media.frame_rate_den">1</property>
  <property name="kdenlive:original.meta.media.colorspace">709</property>
  <property name="kdenlive:original.meta.media.color_trc">2</property>
  <property name="kdenlive:original.meta.media.has_b_frames">2</property>
  <property name="kdenlive:original.meta.media.width">3840</property>
  <property name="kdenlive:original.meta.media.height">2160</property>
  <property name="kdenlive:original.meta.media.color_range">mpeg</property>
  <property name="kdenlive:original.meta.media.top_field_first">0</property>
  <property name="kdenlive:original.meta.media.progressive">1</property>
  <property name="kdenlive:original.kdenlive:clip_type">2</property>
  <property name="kdenlive:original.kdenlive:folderid">653</property>
  <property name="kdenlive:original.kdenlive:id">702</property>
  <property name="kdenlive:original.kdenlive:file_size">43120</property>
  <property name="kdenlive:original.kdenlive:file_hash">2b26ba6187e76bf67d2fb24bd4312334</property>
  <property name="kdenlive:original.backup">1</property>
  <property name="xml">was here</property>
  <property name="meta.media.frame_rate_num">60</property>
  <property name="meta.media.frame_rate_den">1</property>
  <property name="meta.media.colorspace">601</property>
  <property name="meta.media.color_trc">2</property>
  <property name="meta.media.has_b_frames">0</property>
  <property name="meta.media.width">640</property>
  <property name="meta.media.height">360</property>
  <property name="meta.media.color_range">full</property>
  <property name="meta.media.top_field_first">0</property>
  <property name="meta.media.progressive">1</property>
  <property name="set.test_audio">1</property>
  <property name="set.test_image">0</property>
 </producer>
 <producer id="producer678" in="00:00:00.000" out="00:00:00.183">
  <property name="length">12</property>
  <property name="eof">pause</property>
  <property name="resource">/home/xiaoxiae/.cache/kdenlive/proxy/0cfead1c1b169568e217bf4f89bd51ec.mkv</property>
  <property name="audio_index">-1</property>
  <property name="video_index">0</property>
  <property name="mute_on_pause">0</property>
  <property name="mlt_service">avformat-novalidate</property>
  <property name="meta.media.nb_streams">1</property>
  <property name="meta.media.0.stream.type">video</property>
  <property name="meta.media.0.stream.frame_rate">60</property>
  <property name="meta.media.0.stream.sample_aspect_ratio">0</property>
  <property name="meta.media.0.codec.width">640</property>
  <property name="meta.media.0.codec.height">360</property>
  <property name="meta.media.0.codec.rotate">0</property>
  <property name="meta.media.0.codec.pix_fmt">yuvj420p</property>
  <property name="meta.media.0.codec.sample_aspect_ratio">0</property>
  <property name="meta.media.0.codec.colorspace">601</property>
  <property name="meta.media.0.codec.name">mjpeg</property>
  <property name="meta.media.0.codec.long_name">MJPEG (Motion JPEG)</property>
  <property name="meta.media.0.codec.bit_rate">0</property>
  <property name="meta.attr.0.stream.HANDLER_NAME.markup">VideoHandler</property>
  <property name="meta.attr.0.stream.VENDOR_ID.markup">[0][0][0][0]</property>
  <property name="meta.attr.0.stream.ENCODER.markup">Lavc60.3.100 mjpeg</property>
  <property name="meta.attr.0.stream.DURATION.markup">00:00:00.200000000</property>
  <property name="meta.attr.COMMENT.markup">Rendered with Manim Community v0.17.2</property>
  <property name="meta.attr.MAJOR_BRAND.markup">isom</property>
  <property name="meta.attr.MINOR_VERSION.markup">512</property>
  <property name="meta.attr.COMPATIBLE_BRANDS.markup">isomiso2avc1mp41</property>
  <property name="meta.attr.ENCODER.markup">Lavf60.3.100</property>
  <property name="seekable">1</property>
  <property name="meta.media.sample_aspect_num">1</property>
  <property name="meta.media.sample_aspect_den">1</property>
  <property name="aspect_ratio">1</property>
  <property name="format">3</property>
  <property name="kdenlive:clipname">9.mp4</property>
  <property name="kdenlive:clip_type">2</property>
  <property name="kdenlive:folderid">653</property>
  <property name="kdenlive:id">589</property>
  <property name="kdenlive:file_size">49174</property>
  <property name="kdenlive:file_hash">0cfead1c1b169568e217bf4f89bd51ec</property>
  <property name="kdenlive:proxy">/home/xiaoxiae/.cache/kdenlive/proxy/0cfead1c1b169568e217bf4f89bd51ec.mkv</property>
  <property name="kdenlive:originalurl">video/Deletion/9.mp4</property>
  <property name="kdenlive:original.mlt_type">producer</property>
  <property name="kdenlive:original.in">0</property>
  <property name="kdenlive:original.out">11</property>
  <property name="kdenlive:original.length">12</property>
  <property name="kdenlive:original.eof">pause</property>
  <property name="kdenlive:original.resource">video/Deletion/9.mp4</property>
  <property name="kdenlive:original.meta.media.nb_streams">1</property>
  <property name="kdenlive:original.meta.media.0.stream.type">video</property>
  <property name="kdenlive:original.meta.media.0.stream.frame_rate">60</property>
  <property name="kdenlive:original.meta.media.0.stream.sample_aspect_ratio">0</property>
  <property name="kdenlive:original.meta.media.0.codec.width">3840</property>
  <property name="kdenlive:original.meta.media.0.codec.height">2160</property>
  <property name="kdenlive:original.meta.media.0.codec.rotate">0</property>
  <property name="kdenlive:original.meta.media.0.codec.pix_fmt">yuv420p</property>
  <property name="kdenlive:original.meta.media.0.codec.sample_aspect_ratio">0</property>
  <property name="kdenlive:original.meta.media.0.codec.colorspace">709</property>
  <property name="kdenlive:original.meta.media.0.codec.name">h264</property>
  <property name="kdenlive:original.meta.media.0.codec.long_name">H.264 / AVC / MPEG-4 AVC / MPEG-4 part 10</property>
  <property name="kdenlive:original.meta.media.0.codec.bit_rate">1924760</property>
  <property name="kdenlive:original.meta.attr.0.stream.handler_name.markup">VideoHandler</property>
  <property name="kdenlive:original.meta.attr.0.stream.vendor_id.markup">[0][0][0][0]</property>
  <property name="kdenlive:original.meta.attr.0.stream.encoder.markup">Lavc60.3.100 libx264</property>
  <property name="kdenlive:original.meta.attr.major_brand.markup">isom</property>
  <property name="kdenlive:original.meta.attr.minor_version.markup">512</property>
  <property name="kdenlive:original.meta.attr.compatible_brands.markup">isomiso2avc1mp41</property>
  <property name="kdenlive:original.meta.attr.encoder.markup">Lavf60.3.100</property>
  <property name="kdenlive:original.meta.attr.comment.markup">Rendered with Manim Community v0.17.2</property>
  <property name="kdenlive:original.seekable">1</property>
  <property name="kdenlive:original.width">3840</property>
  <property name="kdenlive:original.height">2160</property>
  <property name="kdenlive:original.meta.media.sample_aspect_num">1</property>
  <property name="kdenlive:original.meta.media.sample_aspect_den">1</property>
  <property name="kdenlive:original.aspect_ratio">1</property>
  <property name="kdenlive:original.format">3</property>
  <property name="kdenlive:original.audio_index">-1</property>
  <property name="kdenlive:original.video_index">0</property>
  <property name="kdenlive:original.mute_on_pause">0</property>
  <property name="kdenlive:original.mlt_service">avformat-novalidate</property>
  <property name="kdenlive:original.meta.media.frame_rate_num">60</property>
  <property name="kdenlive:original.meta.media.frame_rate_den">1</property>
  <property name="kdenlive:original.meta.media.colorspace">709</property>
  <property name="kdenlive:original.meta.media.color_trc">2</property>
  <property name="kdenlive:original.meta.media.has_b_frames">2</property>
  <property name="kdenlive:original.meta.media.width">3840</property>
  <property name="kdenlive:original.meta.media.height">2160</property>
  <property name="kdenlive:original.meta.media.color_range">mpeg</property>
  <property name="kdenlive:original.meta.media.top_field_first">0</property>
  <property name="kdenlive:original.meta.media.progressive">1</property>
  <property name="kdenlive:original.kdenlive:clip_type">2</property>
  <property name="kdenlive:original.kdenlive:folderid">653</property>
  <property name="kdenlive:original.kdenlive:id">703</property>
  <property name="kdenlive:original.kdenlive:file_size">49174</property>
  <property name="kdenlive:original.kdenlive:file_hash">0cfead1c1b169568e217bf4f89bd51ec</property>
  <property name="kdenlive:original.backup">1</property>
  <property name="xml">was here</property>
  <property name="meta.media.frame_rate_num">60</property>
  <property name="meta.media.frame_rate_den">1</property>
  <property name="meta.media.colorspace">601</property>
  <property name="meta.media.color_trc">2</property>
  <property name="meta.media.has_b_frames">0</property>
  <property name="meta.media.width">640</property>
  <property name="meta.media.height">360</property>
  <property name="meta.media.color_range">full</property>
  <property name="meta.media.top_field_first">0</property>
  <property name="meta.media.progressive">1</property>
  <property name="set.test_audio">1</property>
  <property name="set.test_image">0</property>
 </producer>
 <producer id="producer679" in="00:00:00.000" out="00:00:00.117">
  <property name="length">8</property>
  <property name="eof">pause</property>
  <property name="resource">/home/xiaoxiae/.cache/kdenlive/proxy/c21120f705835df976ed6aceab39ac24.mkv</property>
  <property name="audio_index">-1</property>
  <property name="video_index">0</property>
  <property name="mute_on_pause">0</property>
  <property name="mlt_service">avformat-novalidate</property>
  <property name="meta.media.nb_streams">1</property>
  <property name="meta.media.0.stream.type">video</property>
  <property name="meta.media.0.stream.frame_rate">60</property>
  <property name="meta.media.0.stream.sample_aspect_ratio">0</property>
  <property name="meta.media.0.codec.width">640</property>
  <property name="meta.media.0.codec.height">360</property>
  <property name="meta.media.0.codec.rotate">0</property>
  <property name="meta.media.0.codec.pix_fmt">yuvj420p</property>
  <property name="meta.media.0.codec.sample_aspect_ratio">0</property>
  <property name="meta.media.0.codec.colorspace">601</property>
  <property name="meta.media.0.codec.name">mjpeg</property>
  <property name="meta.media.0.codec.long_name">MJPEG (Motion JPEG)</property>
  <property name="meta.media.0.codec.bit_rate">0</property>
  <property name="meta.attr.0.stream.HANDLER_NAME.markup">VideoHandler</property>
  <property name="meta.attr.0.stream.VENDOR_ID.markup">[0][0][0][0]</property>
  <property name="meta.attr.0.stream.ENCODER.markup">Lavc60.3.100 mjpeg</property>
  <property name="meta.attr.0.stream.DURATION.markup">00:00:00.134000000</property>
  <property name="meta.attr.COMMENT.markup">Rendered with Manim Community v0.17.2</property>
  <property name="meta.attr.MAJOR_BRAND.markup">isom</property>
  <property name="meta.attr.MINOR_VERSION.markup">512</property>
  <property name="meta.attr.COMPATIBLE_BRANDS.markup">isomiso2avc1mp41</property>
  <property name="meta.attr.ENCODER.markup">Lavf60.3.100</property>
  <property name="seekable">1</property>
  <property name="meta.media.sample_aspect_num">1</property>
  <property name="meta.media.sample_aspect_den">1</property>
  <property name="aspect_ratio">1</property>
  <property name="format">3</property>
  <property name="kdenlive:clipname">10.mp4</property>
  <property name="kdenlive:clip_type">2</property>
  <property name="kdenlive:folderid">653</property>
  <property name="kdenlive:id">540</property>
  <property name="kdenlive:file_size">45829</property>
  <property name="kdenlive:file_hash">c21120f705835df976ed6aceab39ac24</property>
  <property name="kdenlive:proxy">/home/xiaoxiae/.cache/kdenlive/proxy/c21120f705835df976ed6aceab39ac24.mkv</property>
  <property name="kdenlive:originalurl">video/Deletion/10.mp4</property>
  <property name="kdenlive:original.mlt_type">producer</property>
  <property name="kdenlive:original.in">0</property>
  <property name="kdenlive:original.out">7</property>
  <property name="kdenlive:original.length">8</property>
  <property name="kdenlive:original.eof">pause</property>
  <property name="kdenlive:original.resource">video/Deletion/10.mp4</property>
  <property name="kdenlive:original.meta.media.nb_streams">1</property>
  <property name="kdenlive:original.meta.media.0.stream.type">video</property>
  <property name="kdenlive:original.meta.media.0.stream.frame_rate">60</property>
  <property name="kdenlive:original.meta.media.0.stream.sample_aspect_ratio">0</property>
  <property name="kdenlive:original.meta.media.0.codec.width">3840</property>
  <property name="kdenlive:original.meta.media.0.codec.height">2160</property>
  <property name="kdenlive:original.meta.media.0.codec.rotate">0</property>
  <property name="kdenlive:original.meta.media.0.codec.pix_fmt">yuv420p</property>
  <property name="kdenlive:original.meta.media.0.codec.sample_aspect_ratio">0</property>
  <property name="kdenlive:original.meta.media.0.codec.colorspace">709</property>
  <property name="kdenlive:original.meta.media.0.codec.name">h264</property>
  <property name="kdenlive:original.meta.media.0.codec.long_name">H.264 / AVC / MPEG-4 AVC / MPEG-4 part 10</property>
  <property name="kdenlive:original.meta.media.0.codec.bit_rate">2689800</property>
  <property name="kdenlive:original.meta.attr.0.stream.handler_name.markup">VideoHandler</property>
  <property name="kdenlive:original.meta.attr.0.stream.vendor_id.markup">[0][0][0][0]</property>
  <property name="kdenlive:original.meta.attr.0.stream.encoder.markup">Lavc60.3.100 libx264</property>
  <property name="kdenlive:original.meta.attr.major_brand.markup">isom</property>
  <property name="kdenlive:original.meta.attr.minor_version.markup">512</property>
  <property name="kdenlive:original.meta.attr.compatible_brands.markup">isomiso2avc1mp41</property>
  <property name="kdenlive:original.meta.attr.encoder.markup">Lavf60.3.100</property>
  <property name="kdenlive:original.meta.attr.comment.markup">Rendered with Manim Community v0.17.2</property>
  <property name="kdenlive:original.seekable">1</property>
  <property name="kdenlive:original.width">3840</property>
  <property name="kdenlive:original.height">2160</property>
  <property name="kdenlive:original.meta.media.sample_aspect_num">1</property>
  <property name="kdenlive:original.meta.media.sample_aspect_den">1</property>
  <property name="kdenlive:original.aspect_ratio">1</property>
  <property name="kdenlive:original.format">3</property>
  <property name="kdenlive:original.audio_index">-1</property>
  <property name="kdenlive:original.video_index">0</property>
  <property name="kdenlive:original.mute_on_pause">0</property>
  <property name="kdenlive:original.mlt_service">avformat-novalidate</property>
  <property name="kdenlive:original.meta.media.frame_rate_num">60</property>
  <property name="kdenlive:original.meta.media.frame_rate_den">1</property>
  <property name="kdenlive:original.meta.media.colorspace">709</property>
  <property name="kdenlive:original.meta.media.color_trc">2</property>
  <property name="kdenlive:original.meta.media.has_b_frames">2</property>
  <property name="kdenlive:original.meta.media.width">3840</property>
  <property name="kdenlive:original.meta.media.height">2160</property>
  <property name="kdenlive:original.meta.media.color_range">mpeg</property>
  <property name="kdenlive:original.meta.media.top_field_first">0</property>
  <property name="kdenlive:original.meta.media.progressive">1</property>
  <property name="kdenlive:original.kdenlive:clip_type">2</property>
  <property name="kdenlive:original.kdenlive:folderid">653</property>
  <property name="kdenlive:original.kdenlive:id">655</property>
  <property name="kdenlive:original.kdenlive:file_size">45829</property>
  <property name="kdenlive:original.kdenlive:file_hash">c21120f705835df976ed6aceab39ac24</property>
  <property name="kdenlive:original.backup">1</property>
  <property name="xml">was here</property>
  <property name="meta.media.frame_rate_num">60</property>
  <property name="meta.media.frame_rate_den">1</property>
  <property name="meta.media.colorspace">601</property>
  <property name="meta.media.color_trc">2</property>
  <property name="meta.media.has_b_frames">0</property>
  <property name="meta.media.width">640</property>
  <property name="meta.media.height">360</property>
  <property name="meta.media.color_range">full</property>
  <property name="meta.media.top_field_first">0</property>
  <property name="meta.media.progressive">1</property>
  <property name="set.test_audio">1</property>
  <property name="set.test_image">0</property>
 </producer>
 <producer id="producer680" in="00:00:00.000" out="00:00:00.117">
  <property name="length">8</property>
  <property name="eof">pause</property>
  <property name="resource">/home/xiaoxiae/.cache/kdenlive/proxy/1dc3a170c7054c42fc5c28093cd24ac6.mkv</property>
  <property name="audio_index">-1</property>
  <property name="video_index">0</property>
  <property name="mute_on_pause">0</property>
  <property name="mlt_service">avformat-novalidate</property>
  <property name="meta.media.nb_streams">1</property>
  <property name="meta.media.0.stream.type">video</property>
  <property name="meta.media.0.stream.frame_rate">60</property>
  <property name="meta.media.0.stream.sample_aspect_ratio">0</property>
  <property name="meta.media.0.codec.width">640</property>
  <property name="meta.media.0.codec.height">360</property>
  <property name="meta.media.0.codec.rotate">0</property>
  <property name="meta.media.0.codec.pix_fmt">yuvj420p</property>
  <property name="meta.media.0.codec.sample_aspect_ratio">0</property>
  <property name="meta.media.0.codec.colorspace">601</property>
  <property name="meta.media.0.codec.name">mjpeg</property>
  <property name="meta.media.0.codec.long_name">MJPEG (Motion JPEG)</property>
  <property name="meta.media.0.codec.bit_rate">0</property>
  <property name="meta.attr.0.stream.HANDLER_NAME.markup">VideoHandler</property>
  <property name="meta.attr.0.stream.VENDOR_ID.markup">[0][0][0][0]</property>
  <property name="meta.attr.0.stream.ENCODER.markup">Lavc60.3.100 mjpeg</property>
  <property name="meta.attr.0.stream.DURATION.markup">00:00:00.134000000</property>
  <property name="meta.attr.COMMENT.markup">Rendered with Manim Community v0.17.2</property>
  <property name="meta.attr.MAJOR_BRAND.markup">isom</property>
  <property name="meta.attr.MINOR_VERSION.markup">512</property>
  <property name="meta.attr.COMPATIBLE_BRANDS.markup">isomiso2avc1mp41</property>
  <property name="meta.attr.ENCODER.markup">Lavf60.3.100</property>
  <property name="seekable">1</property>
  <property name="meta.media.sample_aspect_num">1</property>
  <property name="meta.media.sample_aspect_den">1</property>
  <property name="aspect_ratio">1</property>
  <property name="format">3</property>
  <property name="kdenlive:clipname">11.mp4</property>
  <property name="kdenlive:clip_type">2</property>
  <property name="kdenlive:folderid">653</property>
  <property name="kdenlive:id">541</property>
  <property name="kdenlive:file_size">42880</property>
  <property name="kdenlive:file_hash">1dc3a170c7054c42fc5c28093cd24ac6</property>
  <property name="kdenlive:proxy">/home/xiaoxiae/.cache/kdenlive/proxy/1dc3a170c7054c42fc5c28093cd24ac6.mkv</property>
  <property name="kdenlive:originalurl">video/Deletion/11.mp4</property>
  <property name="kdenlive:original.mlt_type">producer</property>
  <property name="kdenlive:original.in">0</property>
  <property name="kdenlive:original.out">7</property>
  <property name="kdenlive:original.length">8</property>
  <property name="kdenlive:original.eof">pause</property>
  <property name="kdenlive:original.resource">video/Deletion/11.mp4</property>
  <property name="kdenlive:original.meta.media.nb_streams">1</property>
  <property name="kdenlive:original.meta.media.0.stream.type">video</property>
  <property name="kdenlive:original.meta.media.0.stream.frame_rate">60</property>
  <property name="kdenlive:original.meta.media.0.stream.sample_aspect_ratio">0</property>
  <property name="kdenlive:original.meta.media.0.codec.width">3840</property>
  <property name="kdenlive:original.meta.media.0.codec.height">2160</property>
  <property name="kdenlive:original.meta.media.0.codec.rotate">0</property>
  <property name="kdenlive:original.meta.media.0.codec.pix_fmt">yuv420p</property>
  <property name="kdenlive:original.meta.media.0.codec.sample_aspect_ratio">0</property>
  <property name="kdenlive:original.meta.media.0.codec.colorspace">709</property>
  <property name="kdenlive:original.meta.media.0.codec.name">h264</property>
  <property name="kdenlive:original.meta.media.0.codec.long_name">H.264 / AVC / MPEG-4 AVC / MPEG-4 part 10</property>
  <property name="kdenlive:original.meta.media.0.codec.bit_rate">2511900</property>
  <property name="kdenlive:original.meta.attr.0.stream.handler_name.markup">VideoHandler</property>
  <property name="kdenlive:original.meta.attr.0.stream.vendor_id.markup">[0][0][0][0]</property>
  <property name="kdenlive:original.meta.attr.0.stream.encoder.markup">Lavc60.3.100 libx264</property>
  <property name="kdenlive:original.meta.attr.major_brand.markup">isom</property>
  <property name="kdenlive:original.meta.attr.minor_version.markup">512</property>
  <property name="kdenlive:original.meta.attr.compatible_brands.markup">isomiso2avc1mp41</property>
  <property name="kdenlive:original.meta.attr.encoder.markup">Lavf60.3.100</property>
  <property name="kdenlive:original.meta.attr.comment.markup">Rendered with Manim Community v0.17.2</property>
  <property name="kdenlive:original.seekable">1</property>
  <property name="kdenlive:original.width">3840</property>
  <property name="kdenlive:original.height">2160</property>
  <property name="kdenlive:original.meta.media.sample_aspect_num">1</property>
  <property name="kdenlive:original.meta.media.sample_aspect_den">1</property>
  <property name="kdenlive:original.aspect_ratio">1</property>
  <property name="kdenlive:original.format">3</property>
  <property name="kdenlive:original.audio_index">-1</property>
  <property name="kdenlive:original.video_index">0</property>
  <property name="kdenlive:original.mute_on_pause">0</property>
  <property name="kdenlive:original.mlt_service">avformat-novalidate</property>
  <property name="kdenlive:original.meta.media.frame_rate_num">60</property>
  <property name="kdenlive:original.meta.media.frame_rate_den">1</property>
  <property name="kdenlive:original.meta.media.colorspace">709</property>
  <property name="kdenlive:original.meta.media.color_trc">2</property>
  <property name="kdenlive:original.meta.media.has_b_frames">2</property>
  <property name="kdenlive:original.meta.media.width">3840</property>
  <property name="kdenlive:original.meta.media.height">2160</property>
  <property name="kdenlive:original.meta.media.color_range">mpeg</property>
  <property name="kdenlive:original.meta.media.top_field_first">0</property>
  <property name="kdenlive:original.meta.media.progressive">1</property>
  <property name="kdenlive:original.kdenlive:clip_type">2</property>
  <property name="kdenlive:original.kdenlive:folderid">653</property>
  <property name="kdenlive:original.kdenlive:id">656</property>
  <property name="kdenlive:original.kdenlive:file_size">42880</property>
  <property name="kdenlive:original.kdenlive:file_hash">1dc3a170c7054c42fc5c28093cd24ac6</property>
  <property name="kdenlive:original.backup">1</property>
  <property name="xml">was here</property>
  <property name="meta.media.frame_rate_num">60</property>
  <property name="meta.media.frame_rate_den">1</property>
  <property name="meta.media.colorspace">601</property>
  <property name="meta.media.color_trc">2</property>
  <property name="meta.media.has_b_frames">0</property>
  <property name="meta.media.width">640</property>
  <property name="meta.media.height">360</property>
  <property name="meta.media.color_range">full</property>
  <property name="meta.media.top_field_first">0</property>
  <property name="meta.media.progressive">1</property>
  <property name="set.test_audio">1</property>
  <property name="set.test_image">0</property>
 </producer>
 <producer id="producer681" in="00:00:00.000" out="00:00:00.117">
  <property name="length">8</property>
  <property name="eof">pause</property>
  <property name="resource">/home/xiaoxiae/.cache/kdenlive/proxy/c07c3f6429b711010a131c1ff5ecf421.mkv</property>
  <property name="audio_index">-1</property>
  <property name="video_index">0</property>
  <property name="mute_on_pause">0</property>
  <property name="mlt_service">avformat-novalidate</property>
  <property name="meta.media.nb_streams">1</property>
  <property name="meta.media.0.stream.type">video</property>
  <property name="meta.media.0.stream.frame_rate">60</property>
  <property name="meta.media.0.stream.sample_aspect_ratio">0</property>
  <property name="meta.media.0.codec.width">640</property>
  <property name="meta.media.0.codec.height">360</property>
  <property name="meta.media.0.codec.rotate">0</property>
  <property name="meta.media.0.codec.pix_fmt">yuvj420p</property>
  <property name="meta.media.0.codec.sample_aspect_ratio">0</property>
  <property name="meta.media.0.codec.colorspace">601</property>
  <property name="meta.media.0.codec.name">mjpeg</property>
  <property name="meta.media.0.codec.long_name">MJPEG (Motion JPEG)</property>
  <property name="meta.media.0.codec.bit_rate">0</property>
  <property name="meta.attr.0.stream.HANDLER_NAME.markup">VideoHandler</property>
  <property name="meta.attr.0.stream.VENDOR_ID.markup">[0][0][0][0]</property>
  <property name="meta.attr.0.stream.ENCODER.markup">Lavc60.3.100 mjpeg</property>
  <property name="meta.attr.0.stream.DURATION.markup">00:00:00.134000000</property>
  <property name="meta.attr.COMMENT.markup">Rendered with Manim Community v0.17.2</property>
  <property name="meta.attr.MAJOR_BRAND.markup">isom</property>
  <property name="meta.attr.MINOR_VERSION.markup">512</property>
  <property name="meta.attr.COMPATIBLE_BRANDS.markup">isomiso2avc1mp41</property>
  <property name="meta.attr.ENCODER.markup">Lavf60.3.100</property>
  <property name="seekable">1</property>
  <property name="meta.media.sample_aspect_num">1</property>
  <property name="meta.media.sample_aspect_den">1</property>
  <property name="aspect_ratio">1</property>
  <property name="format">3</property>
  <property name="kdenlive:clipname">12.mp4</property>
  <property name="kdenlive:clip_type">2</property>
  <property name="kdenlive:folderid">653</property>
  <property name="kdenlive:id">542</property>
  <property name="kdenlive:file_size">44160</property>
  <property name="kdenlive:file_hash">c07c3f6429b711010a131c1ff5ecf421</property>
  <property name="kdenlive:proxy">/home/xiaoxiae/.cache/kdenlive/proxy/c07c3f6429b711010a131c1ff5ecf421.mkv</property>
  <property name="kdenlive:originalurl">video/Deletion/12.mp4</property>
  <property name="kdenlive:original.mlt_type">producer</property>
  <property name="kdenlive:original.in">0</property>
  <property name="kdenlive:original.out">7</property>
  <property name="kdenlive:original.length">8</property>
  <property name="kdenlive:original.eof">pause</property>
  <property name="kdenlive:original.resource">video/Deletion/12.mp4</property>
  <property name="kdenlive:original.meta.media.nb_streams">1</property>
  <property name="kdenlive:original.meta.media.0.stream.type">video</property>
  <property name="kdenlive:original.meta.media.0.stream.frame_rate">60</property>
  <property name="kdenlive:original.meta.media.0.stream.sample_aspect_ratio">0</property>
  <property name="kdenlive:original.meta.media.0.codec.width">3840</property>
  <property name="kdenlive:original.meta.media.0.codec.height">2160</property>
  <property name="kdenlive:original.meta.media.0.codec.rotate">0</property>
  <property name="kdenlive:original.meta.media.0.codec.pix_fmt">yuv420p</property>
  <property name="kdenlive:original.meta.media.0.codec.sample_aspect_ratio">0</property>
  <property name="kdenlive:original.meta.media.0.codec.colorspace">709</property>
  <property name="kdenlive:original.meta.media.0.codec.name">h264</property>
  <property name="kdenlive:original.meta.media.0.codec.long_name">H.264 / AVC / MPEG-4 AVC / MPEG-4 part 10</property>
  <property name="kdenlive:original.meta.media.0.codec.bit_rate">2589180</property>
  <property name="kdenlive:original.meta.attr.0.stream.handler_name.markup">VideoHandler</property>
  <property name="kdenlive:original.meta.attr.0.stream.vendor_id.markup">[0][0][0][0]</property>
  <property name="kdenlive:original.meta.attr.0.stream.encoder.markup">Lavc60.3.100 libx264</property>
  <property name="kdenlive:original.meta.attr.major_brand.markup">isom</property>
  <property name="kdenlive:original.meta.attr.minor_version.markup">512</property>
  <property name="kdenlive:original.meta.attr.compatible_brands.markup">isomiso2avc1mp41</property>
  <property name="kdenlive:original.meta.attr.encoder.markup">Lavf60.3.100</property>
  <property name="kdenlive:original.meta.attr.comment.markup">Rendered with Manim Community v0.17.2</property>
  <property name="kdenlive:original.seekable">1</property>
  <property name="kdenlive:original.width">3840</property>
  <property name="kdenlive:original.height">2160</property>
  <property name="kdenlive:original.meta.media.sample_aspect_num">1</property>
  <property name="kdenlive:original.meta.media.sample_aspect_den">1</property>
  <property name="kdenlive:original.aspect_ratio">1</property>
  <property name="kdenlive:original.format">3</property>
  <property name="kdenlive:original.audio_index">-1</property>
  <property name="kdenlive:original.video_index">0</property>
  <property name="kdenlive:original.mute_on_pause">0</property>
  <property name="kdenlive:original.mlt_service">avformat-novalidate</property>
  <property name="kdenlive:original.meta.media.frame_rate_num">60</property>
  <property name="kdenlive:original.meta.media.frame_rate_den">1</property>
  <property name="kdenlive:original.meta.media.colorspace">709</property>
  <property name="kdenlive:original.meta.media.color_trc">2</property>
  <property name="kdenlive:original.meta.media.has_b_frames">2</property>
  <property name="kdenlive:original.meta.media.width">3840</property>
  <property name="kdenlive:original.meta.media.height">2160</property>
  <property name="kdenlive:original.meta.media.color_range">mpeg</property>
  <property name="kdenlive:original.meta.media.top_field_first">0</property>
  <property name="kdenlive:original.meta.media.progressive">1</property>
  <property name="kdenlive:original.kdenlive:clip_type">2</property>
  <property name="kdenlive:original.kdenlive:folderid">653</property>
  <property name="kdenlive:original.kdenlive:id">657</property>
  <property name="kdenlive:original.kdenlive:file_size">44160</property>
  <property name="kdenlive:original.kdenlive:file_hash">c07c3f6429b711010a131c1ff5ecf421</property>
  <property name="kdenlive:original.backup">1</property>
  <property name="xml">was here</property>
  <property name="meta.media.frame_rate_num">60</property>
  <property name="meta.media.frame_rate_den">1</property>
  <property name="meta.media.colorspace">601</property>
  <property name="meta.media.color_trc">2</property>
  <property name="meta.media.has_b_frames">0</property>
  <property name="meta.media.width">640</property>
  <property name="meta.media.height">360</property>
  <property name="meta.media.color_range">full</property>
  <property name="meta.media.top_field_first">0</property>
  <property name="meta.media.progressive">1</property>
  <property name="set.test_audio">1</property>
  <property name="set.test_image">0</property>
 </producer>
 <producer id="producer682" in="00:00:00.000" out="00:00:00.117">
  <property name="length">8</property>
  <property name="eof">pause</property>
  <property name="resource">/home/xiaoxiae/.cache/kdenlive/proxy/d1d58486adaa43d89d22b49b52ac95b4.mkv</property>
  <property name="audio_index">-1</property>
  <property name="video_index">0</property>
  <property name="mute_on_pause">0</property>
  <property name="mlt_service">avformat-novalidate</property>
  <property name="meta.media.nb_streams">1</property>
  <property name="meta.media.0.stream.type">video</property>
  <property name="meta.media.0.stream.frame_rate">60</property>
  <property name="meta.media.0.stream.sample_aspect_ratio">0</property>
  <property name="meta.media.0.codec.width">640</property>
  <property name="meta.media.0.codec.height">360</property>
  <property name="meta.media.0.codec.rotate">0</property>
  <property name="meta.media.0.codec.pix_fmt">yuvj420p</property>
  <property name="meta.media.0.codec.sample_aspect_ratio">0</property>
  <property name="meta.media.0.codec.colorspace">601</property>
  <property name="meta.media.0.codec.name">mjpeg</property>
  <property name="meta.media.0.codec.long_name">MJPEG (Motion JPEG)</property>
  <property name="meta.media.0.codec.bit_rate">0</property>
  <property name="meta.attr.0.stream.HANDLER_NAME.markup">VideoHandler</property>
  <property name="meta.attr.0.stream.VENDOR_ID.markup">[0][0][0][0]</property>
  <property name="meta.attr.0.stream.ENCODER.markup">Lavc60.3.100 mjpeg</property>
  <property name="meta.attr.0.stream.DURATION.markup">00:00:00.134000000</property>
  <property name="meta.attr.COMMENT.markup">Rendered with Manim Community v0.17.2</property>
  <property name="meta.attr.MAJOR_BRAND.markup">isom</property>
  <property name="meta.attr.MINOR_VERSION.markup">512</property>
  <property name="meta.attr.COMPATIBLE_BRANDS.markup">isomiso2avc1mp41</property>
  <property name="meta.attr.ENCODER.markup">Lavf60.3.100</property>
  <property name="seekable">1</property>
  <property name="meta.media.sample_aspect_num">1</property>
  <property name="meta.media.sample_aspect_den">1</property>
  <property name="aspect_ratio">1</property>
  <property name="format">3</property>
  <property name="kdenlive:clipname">13.mp4</property>
  <property name="kdenlive:clip_type">2</property>
  <property name="kdenlive:folderid">653</property>
  <property name="kdenlive:id">543</property>
  <property name="kdenlive:file_size">45440</property>
  <property name="kdenlive:file_hash">d1d58486adaa43d89d22b49b52ac95b4</property>
  <property name="kdenlive:proxy">/home/xiaoxiae/.cache/kdenlive/proxy/d1d58486adaa43d89d22b49b52ac95b4.mkv</property>
  <property name="kdenlive:originalurl">video/Deletion/13.mp4</property>
  <property name="kdenlive:original.mlt_type">producer</property>
  <property name="kdenlive:original.in">0</property>
  <property name="kdenlive:original.out">7</property>
  <property name="kdenlive:original.length">8</property>
  <property name="kdenlive:original.eof">pause</property>
  <property name="kdenlive:original.resource">video/Deletion/13.mp4</property>
  <property name="kdenlive:original.meta.media.nb_streams">1</property>
  <property name="kdenlive:original.meta.media.0.stream.type">video</property>
  <property name="kdenlive:original.meta.media.0.stream.frame_rate">60</property>
  <property name="kdenlive:original.meta.media.0.stream.sample_aspect_ratio">0</property>
  <property name="kdenlive:original.meta.media.0.codec.width">3840</property>
  <property name="kdenlive:original.meta.media.0.codec.height">2160</property>
  <property name="kdenlive:original.meta.media.0.codec.rotate">0</property>
  <property name="kdenlive:original.meta.media.0.codec.pix_fmt">yuv420p</property>
  <property name="kdenlive:original.meta.media.0.codec.sample_aspect_ratio">0</property>
  <property name="kdenlive:original.meta.media.0.codec.colorspace">709</property>
  <property name="kdenlive:original.meta.media.0.codec.name">h264</property>
  <property name="kdenlive:original.meta.media.0.codec.long_name">H.264 / AVC / MPEG-4 AVC / MPEG-4 part 10</property>
  <property name="kdenlive:original.meta.media.0.codec.bit_rate">2665500</property>
  <property name="kdenlive:original.meta.attr.0.stream.handler_name.markup">VideoHandler</property>
  <property name="kdenlive:original.meta.attr.0.stream.vendor_id.markup">[0][0][0][0]</property>
  <property name="kdenlive:original.meta.attr.0.stream.encoder.markup">Lavc60.3.100 libx264</property>
  <property name="kdenlive:original.meta.attr.major_brand.markup">isom</property>
  <property name="kdenlive:original.meta.attr.minor_version.markup">512</property>
  <property name="kdenlive:original.meta.attr.compatible_brands.markup">isomiso2avc1mp41</property>
  <property name="kdenlive:original.meta.attr.encoder.markup">Lavf60.3.100</property>
  <property name="kdenlive:original.meta.attr.comment.markup">Rendered with Manim Community v0.17.2</property>
  <property name="kdenlive:original.seekable">1</property>
  <property name="kdenlive:original.width">3840</property>
  <property name="kdenlive:original.height">2160</property>
  <property name="kdenlive:original.meta.media.sample_aspect_num">1</property>
  <property name="kdenlive:original.meta.media.sample_aspect_den">1</property>
  <property name="kdenlive:original.aspect_ratio">1</property>
  <property name="kdenlive:original.format">3</property>
  <property name="kdenlive:original.audio_index">-1</property>
  <property name="kdenlive:original.video_index">0</property>
  <property name="kdenlive:original.mute_on_pause">0</property>
  <property name="kdenlive:original.mlt_service">avformat-novalidate</property>
  <property name="kdenlive:original.meta.media.frame_rate_num">60</property>
  <property name="kdenlive:original.meta.media.frame_rate_den">1</property>
  <property name="kdenlive:original.meta.media.colorspace">709</property>
  <property name="kdenlive:original.meta.media.color_trc">2</property>
  <property name="kdenlive:original.meta.media.has_b_frames">2</property>
  <property name="kdenlive:original.meta.media.width">3840</property>
  <property name="kdenlive:original.meta.media.height">2160</property>
  <property name="kdenlive:original.meta.media.color_range">mpeg</property>
  <property name="kdenlive:original.meta.media.top_field_first">0</property>
  <property name="kdenlive:original.meta.media.progressive">1</property>
  <property name="kdenlive:original.kdenlive:clip_type">2</property>
  <property name="kdenlive:original.kdenlive:folderid">653</property>
  <property name="kdenlive:original.kdenlive:id">658</property>
  <property name="kdenlive:original.kdenlive:file_size">45440</property>
  <property name="kdenlive:original.kdenlive:file_hash">d1d58486adaa43d89d22b49b52ac95b4</property>
  <property name="kdenlive:original.backup">1</property>
  <property name="xml">was here</property>
  <property name="meta.media.frame_rate_num">60</property>
  <property name="meta.media.frame_rate_den">1</property>
  <property name="meta.media.colorspace">601</property>
  <property name="meta.media.color_trc">2</property>
  <property name="meta.media.has_b_frames">0</property>
  <property name="meta.media.width">640</property>
  <property name="meta.media.height">360</property>
  <property name="meta.media.color_range">full</property>
  <property name="meta.media.top_field_first">0</property>
  <property name="meta.media.progressive">1</property>
  <property name="set.test_audio">1</property>
  <property name="set.test_image">0</property>
 </producer>
 <producer id="producer683" in="00:00:00.000" out="00:00:00.183">
  <property name="length">12</property>
  <property name="eof">pause</property>
  <property name="resource">/home/xiaoxiae/.cache/kdenlive/proxy/1f3d05659e9085640ab2f887f2701d3a.mkv</property>
  <property name="audio_index">-1</property>
  <property name="video_index">0</property>
  <property name="mute_on_pause">0</property>
  <property name="mlt_service">avformat-novalidate</property>
  <property name="meta.media.nb_streams">1</property>
  <property name="meta.media.0.stream.type">video</property>
  <property name="meta.media.0.stream.frame_rate">60</property>
  <property name="meta.media.0.stream.sample_aspect_ratio">0</property>
  <property name="meta.media.0.codec.width">640</property>
  <property name="meta.media.0.codec.height">360</property>
  <property name="meta.media.0.codec.rotate">0</property>
  <property name="meta.media.0.codec.pix_fmt">yuvj420p</property>
  <property name="meta.media.0.codec.sample_aspect_ratio">0</property>
  <property name="meta.media.0.codec.colorspace">601</property>
  <property name="meta.media.0.codec.name">mjpeg</property>
  <property name="meta.media.0.codec.long_name">MJPEG (Motion JPEG)</property>
  <property name="meta.media.0.codec.bit_rate">0</property>
  <property name="meta.attr.0.stream.HANDLER_NAME.markup">VideoHandler</property>
  <property name="meta.attr.0.stream.VENDOR_ID.markup">[0][0][0][0]</property>
  <property name="meta.attr.0.stream.ENCODER.markup">Lavc60.3.100 mjpeg</property>
  <property name="meta.attr.0.stream.DURATION.markup">00:00:00.200000000</property>
  <property name="meta.attr.COMMENT.markup">Rendered with Manim Community v0.17.2</property>
  <property name="meta.attr.MAJOR_BRAND.markup">isom</property>
  <property name="meta.attr.MINOR_VERSION.markup">512</property>
  <property name="meta.attr.COMPATIBLE_BRANDS.markup">isomiso2avc1mp41</property>
  <property name="meta.attr.ENCODER.markup">Lavf60.3.100</property>
  <property name="seekable">1</property>
  <property name="meta.media.sample_aspect_num">1</property>
  <property name="meta.media.sample_aspect_den">1</property>
  <property name="aspect_ratio">1</property>
  <property name="format">3</property>
  <property name="kdenlive:clipname">14.mp4</property>
  <property name="kdenlive:clip_type">2</property>
  <property name="kdenlive:folderid">653</property>
  <property name="kdenlive:id">544</property>
  <property name="kdenlive:file_size">66408</property>
  <property name="kdenlive:file_hash">1f3d05659e9085640ab2f887f2701d3a</property>
  <property name="kdenlive:proxy">/home/xiaoxiae/.cache/kdenlive/proxy/1f3d05659e9085640ab2f887f2701d3a.mkv</property>
  <property name="kdenlive:originalurl">video/Deletion/14.mp4</property>
  <property name="kdenlive:original.mlt_type">producer</property>
  <property name="kdenlive:original.in">0</property>
  <property name="kdenlive:original.out">11</property>
  <property name="kdenlive:original.length">12</property>
  <property name="kdenlive:original.eof">pause</property>
  <property name="kdenlive:original.resource">video/Deletion/14.mp4</property>
  <property name="kdenlive:original.meta.media.nb_streams">1</property>
  <property name="kdenlive:original.meta.media.0.stream.type">video</property>
  <property name="kdenlive:original.meta.media.0.stream.frame_rate">60</property>
  <property name="kdenlive:original.meta.media.0.stream.sample_aspect_ratio">0</property>
  <property name="kdenlive:original.meta.media.0.codec.width">3840</property>
  <property name="kdenlive:original.meta.media.0.codec.height">2160</property>
  <property name="kdenlive:original.meta.media.0.codec.rotate">0</property>
  <property name="kdenlive:original.meta.media.0.codec.pix_fmt">yuv420p</property>
  <property name="kdenlive:original.meta.media.0.codec.sample_aspect_ratio">0</property>
  <property name="kdenlive:original.meta.media.0.codec.colorspace">709</property>
  <property name="kdenlive:original.meta.media.0.codec.name">h264</property>
  <property name="kdenlive:original.meta.media.0.codec.long_name">H.264 / AVC / MPEG-4 AVC / MPEG-4 part 10</property>
  <property name="kdenlive:original.meta.media.0.codec.bit_rate">2615400</property>
  <property name="kdenlive:original.meta.attr.0.stream.handler_name.markup">VideoHandler</property>
  <property name="kdenlive:original.meta.attr.0.stream.vendor_id.markup">[0][0][0][0]</property>
  <property name="kdenlive:original.meta.attr.0.stream.encoder.markup">Lavc60.3.100 libx264</property>
  <property name="kdenlive:original.meta.attr.major_brand.markup">isom</property>
  <property name="kdenlive:original.meta.attr.minor_version.markup">512</property>
  <property name="kdenlive:original.meta.attr.compatible_brands.markup">isomiso2avc1mp41</property>
  <property name="kdenlive:original.meta.attr.encoder.markup">Lavf60.3.100</property>
  <property name="kdenlive:original.meta.attr.comment.markup">Rendered with Manim Community v0.17.2</property>
  <property name="kdenlive:original.seekable">1</property>
  <property name="kdenlive:original.width">3840</property>
  <property name="kdenlive:original.height">2160</property>
  <property name="kdenlive:original.meta.media.sample_aspect_num">1</property>
  <property name="kdenlive:original.meta.media.sample_aspect_den">1</property>
  <property name="kdenlive:original.aspect_ratio">1</property>
  <property name="kdenlive:original.format">3</property>
  <property name="kdenlive:original.audio_index">-1</property>
  <property name="kdenlive:original.video_index">0</property>
  <property name="kdenlive:original.mute_on_pause">0</property>
  <property name="kdenlive:original.mlt_service">avformat-novalidate</property>
  <property name="kdenlive:original.meta.media.frame_rate_num">60</property>
  <property name="kdenlive:original.meta.media.frame_rate_den">1</property>
  <property name="kdenlive:original.meta.media.colorspace">709</property>
  <property name="kdenlive:original.meta.media.color_trc">2</property>
  <property name="kdenlive:original.meta.media.has_b_frames">2</property>
  <property name="kdenlive:original.meta.media.width">3840</property>
  <property name="kdenlive:original.meta.media.height">2160</property>
  <property name="kdenlive:original.meta.media.color_range">mpeg</property>
  <property name="kdenlive:original.meta.media.top_field_first">0</property>
  <property name="kdenlive:original.meta.media.progressive">1</property>
  <property name="kdenlive:original.kdenlive:clip_type">2</property>
  <property name="kdenlive:original.kdenlive:folderid">653</property>
  <property name="kdenlive:original.kdenlive:id">659</property>
  <property name="kdenlive:original.kdenlive:file_size">66408</property>
  <property name="kdenlive:original.kdenlive:file_hash">1f3d05659e9085640ab2f887f2701d3a</property>
  <property name="kdenlive:original.backup">1</property>
  <property name="xml">was here</property>
  <property name="meta.media.frame_rate_num">60</property>
  <property name="meta.media.frame_rate_den">1</property>
  <property name="meta.media.colorspace">601</property>
  <property name="meta.media.color_trc">2</property>
  <property name="meta.media.has_b_frames">0</property>
  <property name="meta.media.width">640</property>
  <property name="meta.media.height">360</property>
  <property name="meta.media.color_range">full</property>
  <property name="meta.media.top_field_first">0</property>
  <property name="meta.media.progressive">1</property>
  <property name="set.test_audio">1</property>
  <property name="set.test_image">0</property>
 </producer>
 <producer id="producer684" in="00:00:00.000" out="00:00:00.183">
  <property name="length">12</property>
  <property name="eof">pause</property>
  <property name="resource">/home/xiaoxiae/.cache/kdenlive/proxy/672e4ba9bbc7b6860b54084abd43d943.mkv</property>
  <property name="audio_index">-1</property>
  <property name="video_index">0</property>
  <property name="mute_on_pause">0</property>
  <property name="mlt_service">avformat-novalidate</property>
  <property name="meta.media.nb_streams">1</property>
  <property name="meta.media.0.stream.type">video</property>
  <property name="meta.media.0.stream.frame_rate">60</property>
  <property name="meta.media.0.stream.sample_aspect_ratio">0</property>
  <property name="meta.media.0.codec.width">640</property>
  <property name="meta.media.0.codec.height">360</property>
  <property name="meta.media.0.codec.rotate">0</property>
  <property name="meta.media.0.codec.pix_fmt">yuvj420p</property>
  <property name="meta.media.0.codec.sample_aspect_ratio">0</property>
  <property name="meta.media.0.codec.colorspace">601</property>
  <property name="meta.media.0.codec.name">mjpeg</property>
  <property name="meta.media.0.codec.long_name">MJPEG (Motion JPEG)</property>
  <property name="meta.media.0.codec.bit_rate">0</property>
  <property name="meta.attr.0.stream.HANDLER_NAME.markup">VideoHandler</property>
  <property name="meta.attr.0.stream.VENDOR_ID.markup">[0][0][0][0]</property>
  <property name="meta.attr.0.stream.ENCODER.markup">Lavc60.3.100 mjpeg</property>
  <property name="meta.attr.0.stream.DURATION.markup">00:00:00.200000000</property>
  <property name="meta.attr.COMMENT.markup">Rendered with Manim Community v0.17.2</property>
  <property name="meta.attr.MAJOR_BRAND.markup">isom</property>
  <property name="meta.attr.MINOR_VERSION.markup">512</property>
  <property name="meta.attr.COMPATIBLE_BRANDS.markup">isomiso2avc1mp41</property>
  <property name="meta.attr.ENCODER.markup">Lavf60.3.100</property>
  <property name="seekable">1</property>
  <property name="meta.media.sample_aspect_num">1</property>
  <property name="meta.media.sample_aspect_den">1</property>
  <property name="aspect_ratio">1</property>
  <property name="format">3</property>
  <property name="kdenlive:clipname">15.mp4</property>
  <property name="kdenlive:clip_type">2</property>
  <property name="kdenlive:folderid">653</property>
  <property name="kdenlive:id">545</property>
  <property name="kdenlive:file_size">35210</property>
  <property name="kdenlive:file_hash">672e4ba9bbc7b6860b54084abd43d943</property>
  <property name="kdenlive:proxy">/home/xiaoxiae/.cache/kdenlive/proxy/672e4ba9bbc7b6860b54084abd43d943.mkv</property>
  <property name="kdenlive:originalurl">video/Deletion/15.mp4</property>
  <property name="kdenlive:original.mlt_type">producer</property>
  <property name="kdenlive:original.in">0</property>
  <property name="kdenlive:original.out">11</property>
  <property name="kdenlive:original.length">12</property>
  <property name="kdenlive:original.eof">pause</property>
  <property name="kdenlive:original.resource">video/Deletion/15.mp4</property>
  <property name="kdenlive:original.meta.media.nb_streams">1</property>
  <property name="kdenlive:original.meta.media.0.stream.type">video</property>
  <property name="kdenlive:original.meta.media.0.stream.frame_rate">60</property>
  <property name="kdenlive:original.meta.media.0.stream.sample_aspect_ratio">0</property>
  <property name="kdenlive:original.meta.media.0.codec.width">3840</property>
  <property name="kdenlive:original.meta.media.0.codec.height">2160</property>
  <property name="kdenlive:original.meta.media.0.codec.rotate">0</property>
  <property name="kdenlive:original.meta.media.0.codec.pix_fmt">yuv420p</property>
  <property name="kdenlive:original.meta.media.0.codec.sample_aspect_ratio">0</property>
  <property name="kdenlive:original.meta.media.0.codec.colorspace">709</property>
  <property name="kdenlive:original.meta.media.0.codec.name">h264</property>
  <property name="kdenlive:original.meta.media.0.codec.long_name">H.264 / AVC / MPEG-4 AVC / MPEG-4 part 10</property>
  <property name="kdenlive:original.meta.media.0.codec.bit_rate">1365880</property>
  <property name="kdenlive:original.meta.attr.0.stream.handler_name.markup">VideoHandler</property>
  <property name="kdenlive:original.meta.attr.0.stream.vendor_id.markup">[0][0][0][0]</property>
  <property name="kdenlive:original.meta.attr.0.stream.encoder.markup">Lavc60.3.100 libx264</property>
  <property name="kdenlive:original.meta.attr.major_brand.markup">isom</property>
  <property name="kdenlive:original.meta.attr.minor_version.markup">512</property>
  <property name="kdenlive:original.meta.attr.compatible_brands.markup">isomiso2avc1mp41</property>
  <property name="kdenlive:original.meta.attr.encoder.markup">Lavf60.3.100</property>
  <property name="kdenlive:original.meta.attr.comment.markup">Rendered with Manim Community v0.17.2</property>
  <property name="kdenlive:original.seekable">1</property>
  <property name="kdenlive:original.width">3840</property>
  <property name="kdenlive:original.height">2160</property>
  <property name="kdenlive:original.meta.media.sample_aspect_num">1</property>
  <property name="kdenlive:original.meta.media.sample_aspect_den">1</property>
  <property name="kdenlive:original.aspect_ratio">1</property>
  <property name="kdenlive:original.format">3</property>
  <property name="kdenlive:original.audio_index">-1</property>
  <property name="kdenlive:original.video_index">0</property>
  <property name="kdenlive:original.mute_on_pause">0</property>
  <property name="kdenlive:original.mlt_service">avformat-novalidate</property>
  <property name="kdenlive:original.meta.media.frame_rate_num">60</property>
  <property name="kdenlive:original.meta.media.frame_rate_den">1</property>
  <property name="kdenlive:original.meta.media.colorspace">709</property>
  <property name="kdenlive:original.meta.media.color_trc">2</property>
  <property name="kdenlive:original.meta.media.has_b_frames">2</property>
  <property name="kdenlive:original.meta.media.width">3840</property>
  <property name="kdenlive:original.meta.media.height">2160</property>
  <property name="kdenlive:original.meta.media.color_range">mpeg</property>
  <property name="kdenlive:original.meta.media.top_field_first">0</property>
  <property name="kdenlive:original.meta.media.progressive">1</property>
  <property name="kdenlive:original.kdenlive:clip_type">2</property>
  <property name="kdenlive:original.kdenlive:folderid">653</property>
  <property name="kdenlive:original.kdenlive:id">660</property>
  <property name="kdenlive:original.kdenlive:file_size">35210</property>
  <property name="kdenlive:original.kdenlive:file_hash">672e4ba9bbc7b6860b54084abd43d943</property>
  <property name="kdenlive:original.backup">1</property>
  <property name="xml">was here</property>
  <property name="meta.media.frame_rate_num">60</property>
  <property name="meta.media.frame_rate_den">1</property>
  <property name="meta.media.colorspace">601</property>
  <property name="meta.media.color_trc">2</property>
  <property name="meta.media.has_b_frames">0</property>
  <property name="meta.media.width">640</property>
  <property name="meta.media.height">360</property>
  <property name="meta.media.color_range">full</property>
  <property name="meta.media.top_field_first">0</property>
  <property name="meta.media.progressive">1</property>
  <property name="set.test_audio">1</property>
  <property name="set.test_image">0</property>
 </producer>
 <producer id="producer685" in="00:00:00.000" out="00:00:00.183">
  <property name="length">12</property>
  <property name="eof">pause</property>
  <property name="resource">/home/xiaoxiae/.cache/kdenlive/proxy/0c24bc9ca8ee883cfd859cd0c3d823b3.mkv</property>
  <property name="audio_index">-1</property>
  <property name="video_index">0</property>
  <property name="mute_on_pause">0</property>
  <property name="mlt_service">avformat-novalidate</property>
  <property name="meta.media.nb_streams">1</property>
  <property name="meta.media.0.stream.type">video</property>
  <property name="meta.media.0.stream.frame_rate">60</property>
  <property name="meta.media.0.stream.sample_aspect_ratio">0</property>
  <property name="meta.media.0.codec.width">640</property>
  <property name="meta.media.0.codec.height">360</property>
  <property name="meta.media.0.codec.rotate">0</property>
  <property name="meta.media.0.codec.pix_fmt">yuvj420p</property>
  <property name="meta.media.0.codec.sample_aspect_ratio">0</property>
  <property name="meta.media.0.codec.colorspace">601</property>
  <property name="meta.media.0.codec.name">mjpeg</property>
  <property name="meta.media.0.codec.long_name">MJPEG (Motion JPEG)</property>
  <property name="meta.media.0.codec.bit_rate">0</property>
  <property name="meta.attr.0.stream.HANDLER_NAME.markup">VideoHandler</property>
  <property name="meta.attr.0.stream.VENDOR_ID.markup">[0][0][0][0]</property>
  <property name="meta.attr.0.stream.ENCODER.markup">Lavc60.3.100 mjpeg</property>
  <property name="meta.attr.0.stream.DURATION.markup">00:00:00.200000000</property>
  <property name="meta.attr.COMMENT.markup">Rendered with Manim Community v0.17.2</property>
  <property name="meta.attr.MAJOR_BRAND.markup">isom</property>
  <property name="meta.attr.MINOR_VERSION.markup">512</property>
  <property name="meta.attr.COMPATIBLE_BRANDS.markup">isomiso2avc1mp41</property>
  <property name="meta.attr.ENCODER.markup">Lavf60.3.100</property>
  <property name="seekable">1</property>
  <property name="meta.media.sample_aspect_num">1</property>
  <property name="meta.media.sample_aspect_den">1</property>
  <property name="aspect_ratio">1</property>
  <property name="format">3</property>
  <property name="kdenlive:clipname">16.mp4</property>
  <property name="kdenlive:clip_type">2</property>
  <property name="kdenlive:folderid">653</property>
  <property name="kdenlive:id">546</property>
  <property name="kdenlive:file_size">36202</property>
  <property name="kdenlive:file_hash">0c24bc9ca8ee883cfd859cd0c3d823b3</property>
  <property name="kdenlive:proxy">/home/xiaoxiae/.cache/kdenlive/proxy/0c24bc9ca8ee883cfd859cd0c3d823b3.mkv</property>
  <property name="kdenlive:originalurl">video/Deletion/16.mp4</property>
  <property name="kdenlive:original.mlt_type">producer</property>
  <property name="kdenlive:original.in">0</property>
  <property name="kdenlive:original.out">11</property>
  <property name="kdenlive:original.length">12</property>
  <property name="kdenlive:original.eof">pause</property>
  <property name="kdenlive:original.resource">video/Deletion/16.mp4</property>
  <property name="kdenlive:original.meta.media.nb_streams">1</property>
  <property name="kdenlive:original.meta.media.0.stream.type">video</property>
  <property name="kdenlive:original.meta.media.0.stream.frame_rate">60</property>
  <property name="kdenlive:original.meta.media.0.stream.sample_aspect_ratio">0</property>
  <property name="kdenlive:original.meta.media.0.codec.width">3840</property>
  <property name="kdenlive:original.meta.media.0.codec.height">2160</property>
  <property name="kdenlive:original.meta.media.0.codec.rotate">0</property>
  <property name="kdenlive:original.meta.media.0.codec.pix_fmt">yuv420p</property>
  <property name="kdenlive:original.meta.media.0.codec.sample_aspect_ratio">0</property>
  <property name="kdenlive:original.meta.media.0.codec.colorspace">709</property>
  <property name="kdenlive:original.meta.media.0.codec.name">h264</property>
  <property name="kdenlive:original.meta.media.0.codec.long_name">H.264 / AVC / MPEG-4 AVC / MPEG-4 part 10</property>
  <property name="kdenlive:original.meta.media.0.codec.bit_rate">1406200</property>
  <property name="kdenlive:original.meta.attr.0.stream.handler_name.markup">VideoHandler</property>
  <property name="kdenlive:original.meta.attr.0.stream.vendor_id.markup">[0][0][0][0]</property>
  <property name="kdenlive:original.meta.attr.0.stream.encoder.markup">Lavc60.3.100 libx264</property>
  <property name="kdenlive:original.meta.attr.major_brand.markup">isom</property>
  <property name="kdenlive:original.meta.attr.minor_version.markup">512</property>
  <property name="kdenlive:original.meta.attr.compatible_brands.markup">isomiso2avc1mp41</property>
  <property name="kdenlive:original.meta.attr.encoder.markup">Lavf60.3.100</property>
  <property name="kdenlive:original.meta.attr.comment.markup">Rendered with Manim Community v0.17.2</property>
  <property name="kdenlive:original.seekable">1</property>
  <property name="kdenlive:original.width">3840</property>
  <property name="kdenlive:original.height">2160</property>
  <property name="kdenlive:original.meta.media.sample_aspect_num">1</property>
  <property name="kdenlive:original.meta.media.sample_aspect_den">1</property>
  <property name="kdenlive:original.aspect_ratio">1</property>
  <property name="kdenlive:original.format">3</property>
  <property name="kdenlive:original.audio_index">-1</property>
  <property name="kdenlive:original.video_index">0</property>
  <property name="kdenlive:original.mute_on_pause">0</property>
  <property name="kdenlive:original.mlt_service">avformat-novalidate</property>
  <property name="kdenlive:original.meta.media.frame_rate_num">60</property>
  <property name="kdenlive:original.meta.media.frame_rate_den">1</property>
  <property name="kdenlive:original.meta.media.colorspace">709</property>
  <property name="kdenlive:original.meta.media.color_trc">2</property>
  <property name="kdenlive:original.meta.media.has_b_frames">2</property>
  <property name="kdenlive:original.meta.media.width">3840</property>
  <property name="kdenlive:original.meta.media.height">2160</property>
  <property name="kdenlive:original.meta.media.color_range">mpeg</property>
  <property name="kdenlive:original.meta.media.top_field_first">0</property>
  <property name="kdenlive:original.meta.media.progressive">1</property>
  <property name="kdenlive:original.kdenlive:clip_type">2</property>
  <property name="kdenlive:original.kdenlive:folderid">653</property>
  <property name="kdenlive:original.kdenlive:id">661</property>
  <property name="kdenlive:original.kdenlive:file_size">36202</property>
  <property name="kdenlive:original.kdenlive:file_hash">0c24bc9ca8ee883cfd859cd0c3d823b3</property>
  <property name="kdenlive:original.backup">1</property>
  <property name="xml">was here</property>
  <property name="meta.media.frame_rate_num">60</property>
  <property name="meta.media.frame_rate_den">1</property>
  <property name="meta.media.colorspace">601</property>
  <property name="meta.media.color_trc">2</property>
  <property name="meta.media.has_b_frames">0</property>
  <property name="meta.media.width">640</property>
  <property name="meta.media.height">360</property>
  <property name="meta.media.color_range">full</property>
  <property name="meta.media.top_field_first">0</property>
  <property name="meta.media.progressive">1</property>
  <property name="set.test_audio">1</property>
  <property name="set.test_image">0</property>
 </producer>
 <producer id="producer686" in="00:00:00.000" out="00:00:00.117">
  <property name="length">8</property>
  <property name="eof">pause</property>
  <property name="resource">/home/xiaoxiae/.cache/kdenlive/proxy/2014fdb1cefe2242cba662935d455371.mkv</property>
  <property name="audio_index">-1</property>
  <property name="video_index">0</property>
  <property name="mute_on_pause">0</property>
  <property name="mlt_service">avformat-novalidate</property>
  <property name="meta.media.nb_streams">1</property>
  <property name="meta.media.0.stream.type">video</property>
  <property name="meta.media.0.stream.frame_rate">60</property>
  <property name="meta.media.0.stream.sample_aspect_ratio">0</property>
  <property name="meta.media.0.codec.width">640</property>
  <property name="meta.media.0.codec.height">360</property>
  <property name="meta.media.0.codec.rotate">0</property>
  <property name="meta.media.0.codec.pix_fmt">yuvj420p</property>
  <property name="meta.media.0.codec.sample_aspect_ratio">0</property>
  <property name="meta.media.0.codec.colorspace">601</property>
  <property name="meta.media.0.codec.name">mjpeg</property>
  <property name="meta.media.0.codec.long_name">MJPEG (Motion JPEG)</property>
  <property name="meta.media.0.codec.bit_rate">0</property>
  <property name="meta.attr.0.stream.HANDLER_NAME.markup">VideoHandler</property>
  <property name="meta.attr.0.stream.VENDOR_ID.markup">[0][0][0][0]</property>
  <property name="meta.attr.0.stream.ENCODER.markup">Lavc60.3.100 mjpeg</property>
  <property name="meta.attr.0.stream.DURATION.markup">00:00:00.134000000</property>
  <property name="meta.attr.COMMENT.markup">Rendered with Manim Community v0.17.2</property>
  <property name="meta.attr.MAJOR_BRAND.markup">isom</property>
  <property name="meta.attr.MINOR_VERSION.markup">512</property>
  <property name="meta.attr.COMPATIBLE_BRANDS.markup">isomiso2avc1mp41</property>
  <property name="meta.attr.ENCODER.markup">Lavf60.3.100</property>
  <property name="seekable">1</property>
  <property name="meta.media.sample_aspect_num">1</property>
  <property name="meta.media.sample_aspect_den">1</property>
  <property name="aspect_ratio">1</property>
  <property name="format">3</property>
  <property name="kdenlive:clipname">17.mp4</property>
  <property name="kdenlive:clip_type">2</property>
  <property name="kdenlive:folderid">653</property>
  <property name="kdenlive:id">547</property>
  <property name="kdenlive:file_size">33201</property>
  <property name="kdenlive:file_hash">2014fdb1cefe2242cba662935d455371</property>
  <property name="kdenlive:proxy">/home/xiaoxiae/.cache/kdenlive/proxy/2014fdb1cefe2242cba662935d455371.mkv</property>
  <property name="kdenlive:originalurl">video/Deletion/17.mp4</property>
  <property name="kdenlive:original.mlt_type">producer</property>
  <property name="kdenlive:original.in">0</property>
  <property name="kdenlive:original.out">7</property>
  <property name="kdenlive:original.length">8</property>
  <property name="kdenlive:original.eof">pause</property>
  <property name="kdenlive:original.resource">video/Deletion/17.mp4</property>
  <property name="kdenlive:original.meta.media.nb_streams">1</property>
  <property name="kdenlive:original.meta.media.0.stream.type">video</property>
  <property name="kdenlive:original.meta.media.0.stream.frame_rate">60</property>
  <property name="kdenlive:original.meta.media.0.stream.sample_aspect_ratio">0</property>
  <property name="kdenlive:original.meta.media.0.codec.width">3840</property>
  <property name="kdenlive:original.meta.media.0.codec.height">2160</property>
  <property name="kdenlive:original.meta.media.0.codec.rotate">0</property>
  <property name="kdenlive:original.meta.media.0.codec.pix_fmt">yuv420p</property>
  <property name="kdenlive:original.meta.media.0.codec.sample_aspect_ratio">0</property>
  <property name="kdenlive:original.meta.media.0.codec.colorspace">709</property>
  <property name="kdenlive:original.meta.media.0.codec.name">h264</property>
  <property name="kdenlive:original.meta.media.0.codec.long_name">H.264 / AVC / MPEG-4 AVC / MPEG-4 part 10</property>
  <property name="kdenlive:original.meta.media.0.codec.bit_rate">1931160</property>
  <property name="kdenlive:original.meta.attr.0.stream.handler_name.markup">VideoHandler</property>
  <property name="kdenlive:original.meta.attr.0.stream.vendor_id.markup">[0][0][0][0]</property>
  <property name="kdenlive:original.meta.attr.0.stream.encoder.markup">Lavc60.3.100 libx264</property>
  <property name="kdenlive:original.meta.attr.major_brand.markup">isom</property>
  <property name="kdenlive:original.meta.attr.minor_version.markup">512</property>
  <property name="kdenlive:original.meta.attr.compatible_brands.markup">isomiso2avc1mp41</property>
  <property name="kdenlive:original.meta.attr.encoder.markup">Lavf60.3.100</property>
  <property name="kdenlive:original.meta.attr.comment.markup">Rendered with Manim Community v0.17.2</property>
  <property name="kdenlive:original.seekable">1</property>
  <property name="kdenlive:original.width">3840</property>
  <property name="kdenlive:original.height">2160</property>
  <property name="kdenlive:original.meta.media.sample_aspect_num">1</property>
  <property name="kdenlive:original.meta.media.sample_aspect_den">1</property>
  <property name="kdenlive:original.aspect_ratio">1</property>
  <property name="kdenlive:original.format">3</property>
  <property name="kdenlive:original.audio_index">-1</property>
  <property name="kdenlive:original.video_index">0</property>
  <property name="kdenlive:original.mute_on_pause">0</property>
  <property name="kdenlive:original.mlt_service">avformat-novalidate</property>
  <property name="kdenlive:original.meta.media.frame_rate_num">60</property>
  <property name="kdenlive:original.meta.media.frame_rate_den">1</property>
  <property name="kdenlive:original.meta.media.colorspace">709</property>
  <property name="kdenlive:original.meta.media.color_trc">2</property>
  <property name="kdenlive:original.meta.media.has_b_frames">2</property>
  <property name="kdenlive:original.meta.media.width">3840</property>
  <property name="kdenlive:original.meta.media.height">2160</property>
  <property name="kdenlive:original.meta.media.color_range">mpeg</property>
  <property name="kdenlive:original.meta.media.top_field_first">0</property>
  <property name="kdenlive:original.meta.media.progressive">1</property>
  <property name="kdenlive:original.kdenlive:clip_type">2</property>
  <property name="kdenlive:original.kdenlive:folderid">653</property>
  <property name="kdenlive:original.kdenlive:id">662</property>
  <property name="kdenlive:original.kdenlive:file_size">33201</property>
  <property name="kdenlive:original.kdenlive:file_hash">2014fdb1cefe2242cba662935d455371</property>
  <property name="kdenlive:original.backup">1</property>
  <property name="xml">was here</property>
  <property name="meta.media.frame_rate_num">60</property>
  <property name="meta.media.frame_rate_den">1</property>
  <property name="meta.media.colorspace">601</property>
  <property name="meta.media.color_trc">2</property>
  <property name="meta.media.has_b_frames">0</property>
  <property name="meta.media.width">640</property>
  <property name="meta.media.height">360</property>
  <property name="meta.media.color_range">full</property>
  <property name="meta.media.top_field_first">0</property>
  <property name="meta.media.progressive">1</property>
  <property name="set.test_audio">1</property>
  <property name="set.test_image">0</property>
 </producer>
 <producer id="producer687" in="00:00:00.000" out="00:00:00.117">
  <property name="length">8</property>
  <property name="eof">pause</property>
  <property name="resource">/home/xiaoxiae/.cache/kdenlive/proxy/7df37bda19d9a970c92fe4a7c478db4b.mkv</property>
  <property name="audio_index">-1</property>
  <property name="video_index">0</property>
  <property name="mute_on_pause">0</property>
  <property name="mlt_service">avformat-novalidate</property>
  <property name="meta.media.nb_streams">1</property>
  <property name="meta.media.0.stream.type">video</property>
  <property name="meta.media.0.stream.frame_rate">60</property>
  <property name="meta.media.0.stream.sample_aspect_ratio">0</property>
  <property name="meta.media.0.codec.width">640</property>
  <property name="meta.media.0.codec.height">360</property>
  <property name="meta.media.0.codec.rotate">0</property>
  <property name="meta.media.0.codec.pix_fmt">yuvj420p</property>
  <property name="meta.media.0.codec.sample_aspect_ratio">0</property>
  <property name="meta.media.0.codec.colorspace">601</property>
  <property name="meta.media.0.codec.name">mjpeg</property>
  <property name="meta.media.0.codec.long_name">MJPEG (Motion JPEG)</property>
  <property name="meta.media.0.codec.bit_rate">0</property>
  <property name="meta.attr.0.stream.HANDLER_NAME.markup">VideoHandler</property>
  <property name="meta.attr.0.stream.VENDOR_ID.markup">[0][0][0][0]</property>
  <property name="meta.attr.0.stream.ENCODER.markup">Lavc60.3.100 mjpeg</property>
  <property name="meta.attr.0.stream.DURATION.markup">00:00:00.134000000</property>
  <property name="meta.attr.COMMENT.markup">Rendered with Manim Community v0.17.2</property>
  <property name="meta.attr.MAJOR_BRAND.markup">isom</property>
  <property name="meta.attr.MINOR_VERSION.markup">512</property>
  <property name="meta.attr.COMPATIBLE_BRANDS.markup">isomiso2avc1mp41</property>
  <property name="meta.attr.ENCODER.markup">Lavf60.3.100</property>
  <property name="seekable">1</property>
  <property name="meta.media.sample_aspect_num">1</property>
  <property name="meta.media.sample_aspect_den">1</property>
  <property name="aspect_ratio">1</property>
  <property name="format">3</property>
  <property name="kdenlive:clipname">18.mp4</property>
  <property name="kdenlive:clip_type">2</property>
  <property name="kdenlive:folderid">653</property>
  <property name="kdenlive:id">548</property>
  <property name="kdenlive:file_size">31805</property>
  <property name="kdenlive:file_hash">7df37bda19d9a970c92fe4a7c478db4b</property>
  <property name="kdenlive:proxy">/home/xiaoxiae/.cache/kdenlive/proxy/7df37bda19d9a970c92fe4a7c478db4b.mkv</property>
  <property name="kdenlive:originalurl">video/Deletion/18.mp4</property>
  <property name="kdenlive:original.mlt_type">producer</property>
  <property name="kdenlive:original.in">0</property>
  <property name="kdenlive:original.out">7</property>
  <property name="kdenlive:original.length">8</property>
  <property name="kdenlive:original.eof">pause</property>
  <property name="kdenlive:original.resource">video/Deletion/18.mp4</property>
  <property name="kdenlive:original.meta.media.nb_streams">1</property>
  <property name="kdenlive:original.meta.media.0.stream.type">video</property>
  <property name="kdenlive:original.meta.media.0.stream.frame_rate">60</property>
  <property name="kdenlive:original.meta.media.0.stream.sample_aspect_ratio">0</property>
  <property name="kdenlive:original.meta.media.0.codec.width">3840</property>
  <property name="kdenlive:original.meta.media.0.codec.height">2160</property>
  <property name="kdenlive:original.meta.media.0.codec.rotate">0</property>
  <property name="kdenlive:original.meta.media.0.codec.pix_fmt">yuv420p</property>
  <property name="kdenlive:original.meta.media.0.codec.sample_aspect_ratio">0</property>
  <property name="kdenlive:original.meta.media.0.codec.colorspace">709</property>
  <property name="kdenlive:original.meta.media.0.codec.name">h264</property>
  <property name="kdenlive:original.meta.media.0.codec.long_name">H.264 / AVC / MPEG-4 AVC / MPEG-4 part 10</property>
  <property name="kdenlive:original.meta.media.0.codec.bit_rate">1847400</property>
  <property name="kdenlive:original.meta.attr.0.stream.handler_name.markup">VideoHandler</property>
  <property name="kdenlive:original.meta.attr.0.stream.vendor_id.markup">[0][0][0][0]</property>
  <property name="kdenlive:original.meta.attr.0.stream.encoder.markup">Lavc60.3.100 libx264</property>
  <property name="kdenlive:original.meta.attr.major_brand.markup">isom</property>
  <property name="kdenlive:original.meta.attr.minor_version.markup">512</property>
  <property name="kdenlive:original.meta.attr.compatible_brands.markup">isomiso2avc1mp41</property>
  <property name="kdenlive:original.meta.attr.encoder.markup">Lavf60.3.100</property>
  <property name="kdenlive:original.meta.attr.comment.markup">Rendered with Manim Community v0.17.2</property>
  <property name="kdenlive:original.seekable">1</property>
  <property name="kdenlive:original.width">3840</property>
  <property name="kdenlive:original.height">2160</property>
  <property name="kdenlive:original.meta.media.sample_aspect_num">1</property>
  <property name="kdenlive:original.meta.media.sample_aspect_den">1</property>
  <property name="kdenlive:original.aspect_ratio">1</property>
  <property name="kdenlive:original.format">3</property>
  <property name="kdenlive:original.audio_index">-1</property>
  <property name="kdenlive:original.video_index">0</property>
  <property name="kdenlive:original.mute_on_pause">0</property>
  <property name="kdenlive:original.mlt_service">avformat-novalidate</property>
  <property name="kdenlive:original.meta.media.frame_rate_num">60</property>
  <property name="kdenlive:original.meta.media.frame_rate_den">1</property>
  <property name="kdenlive:original.meta.media.colorspace">709</property>
  <property name="kdenlive:original.meta.media.color_trc">2</property>
  <property name="kdenlive:original.meta.media.has_b_frames">2</property>
  <property name="kdenlive:original.meta.media.width">3840</property>
  <property name="kdenlive:original.meta.media.height">2160</property>
  <property name="kdenlive:original.meta.media.color_range">mpeg</property>
  <property name="kdenlive:original.meta.media.top_field_first">0</property>
  <property name="kdenlive:original.meta.media.progressive">1</property>
  <property name="kdenlive:original.kdenlive:clip_type">2</property>
  <property name="kdenlive:original.kdenlive:folderid">653</property>
  <property name="kdenlive:original.kdenlive:id">663</property>
  <property name="kdenlive:original.kdenlive:file_size">31805</property>
  <property name="kdenlive:original.kdenlive:file_hash">7df37bda19d9a970c92fe4a7c478db4b</property>
  <property name="kdenlive:original.backup">1</property>
  <property name="xml">was here</property>
  <property name="meta.media.frame_rate_num">60</property>
  <property name="meta.media.frame_rate_den">1</property>
  <property name="meta.media.colorspace">601</property>
  <property name="meta.media.color_trc">2</property>
  <property name="meta.media.has_b_frames">0</property>
  <property name="meta.media.width">640</property>
  <property name="meta.media.height">360</property>
  <property name="meta.media.color_range">full</property>
  <property name="meta.media.top_field_first">0</property>
  <property name="meta.media.progressive">1</property>
  <property name="set.test_audio">1</property>
  <property name="set.test_image">0</property>
 </producer>
 <producer id="producer688" in="00:00:00.000" out="00:00:00.117">
  <property name="length">8</property>
  <property name="eof">pause</property>
  <property name="resource">/home/xiaoxiae/.cache/kdenlive/proxy/9ea1f68d060bbc40510dbebac1c102ca.mkv</property>
  <property name="audio_index">-1</property>
  <property name="video_index">0</property>
  <property name="mute_on_pause">0</property>
  <property name="mlt_service">avformat-novalidate</property>
  <property name="meta.media.nb_streams">1</property>
  <property name="meta.media.0.stream.type">video</property>
  <property name="meta.media.0.stream.frame_rate">60</property>
  <property name="meta.media.0.stream.sample_aspect_ratio">0</property>
  <property name="meta.media.0.codec.width">640</property>
  <property name="meta.media.0.codec.height">360</property>
  <property name="meta.media.0.codec.rotate">0</property>
  <property name="meta.media.0.codec.pix_fmt">yuvj420p</property>
  <property name="meta.media.0.codec.sample_aspect_ratio">0</property>
  <property name="meta.media.0.codec.colorspace">601</property>
  <property name="meta.media.0.codec.name">mjpeg</property>
  <property name="meta.media.0.codec.long_name">MJPEG (Motion JPEG)</property>
  <property name="meta.media.0.codec.bit_rate">0</property>
  <property name="meta.attr.0.stream.HANDLER_NAME.markup">VideoHandler</property>
  <property name="meta.attr.0.stream.VENDOR_ID.markup">[0][0][0][0]</property>
  <property name="meta.attr.0.stream.ENCODER.markup">Lavc60.3.100 mjpeg</property>
  <property name="meta.attr.0.stream.DURATION.markup">00:00:00.134000000</property>
  <property name="meta.attr.COMMENT.markup">Rendered with Manim Community v0.17.2</property>
  <property name="meta.attr.MAJOR_BRAND.markup">isom</property>
  <property name="meta.attr.MINOR_VERSION.markup">512</property>
  <property name="meta.attr.COMPATIBLE_BRANDS.markup">isomiso2avc1mp41</property>
  <property name="meta.attr.ENCODER.markup">Lavf60.3.100</property>
  <property name="seekable">1</property>
  <property name="meta.media.sample_aspect_num">1</property>
  <property name="meta.media.sample_aspect_den">1</property>
  <property name="aspect_ratio">1</property>
  <property name="format">3</property>
  <property name="kdenlive:clipname">19.mp4</property>
  <property name="kdenlive:clip_type">2</property>
  <property name="kdenlive:folderid">653</property>
  <property name="kdenlive:id">549</property>
  <property name="kdenlive:file_size">32861</property>
  <property name="kdenlive:file_hash">9ea1f68d060bbc40510dbebac1c102ca</property>
  <property name="kdenlive:proxy">/home/xiaoxiae/.cache/kdenlive/proxy/9ea1f68d060bbc40510dbebac1c102ca.mkv</property>
  <property name="kdenlive:originalurl">video/Deletion/19.mp4</property>
  <property name="kdenlive:original.mlt_type">producer</property>
  <property name="kdenlive:original.in">0</property>
  <property name="kdenlive:original.out">7</property>
  <property name="kdenlive:original.length">8</property>
  <property name="kdenlive:original.eof">pause</property>
  <property name="kdenlive:original.resource">video/Deletion/19.mp4</property>
  <property name="kdenlive:original.meta.media.nb_streams">1</property>
  <property name="kdenlive:original.meta.media.0.stream.type">video</property>
  <property name="kdenlive:original.meta.media.0.stream.frame_rate">60</property>
  <property name="kdenlive:original.meta.media.0.stream.sample_aspect_ratio">0</property>
  <property name="kdenlive:original.meta.media.0.codec.width">3840</property>
  <property name="kdenlive:original.meta.media.0.codec.height">2160</property>
  <property name="kdenlive:original.meta.media.0.codec.rotate">0</property>
  <property name="kdenlive:original.meta.media.0.codec.pix_fmt">yuv420p</property>
  <property name="kdenlive:original.meta.media.0.codec.sample_aspect_ratio">0</property>
  <property name="kdenlive:original.meta.media.0.codec.colorspace">709</property>
  <property name="kdenlive:original.meta.media.0.codec.name">h264</property>
  <property name="kdenlive:original.meta.media.0.codec.long_name">H.264 / AVC / MPEG-4 AVC / MPEG-4 part 10</property>
  <property name="kdenlive:original.meta.media.0.codec.bit_rate">1911240</property>
  <property name="kdenlive:original.meta.attr.0.stream.handler_name.markup">VideoHandler</property>
  <property name="kdenlive:original.meta.attr.0.stream.vendor_id.markup">[0][0][0][0]</property>
  <property name="kdenlive:original.meta.attr.0.stream.encoder.markup">Lavc60.3.100 libx264</property>
  <property name="kdenlive:original.meta.attr.major_brand.markup">isom</property>
  <property name="kdenlive:original.meta.attr.minor_version.markup">512</property>
  <property name="kdenlive:original.meta.attr.compatible_brands.markup">isomiso2avc1mp41</property>
  <property name="kdenlive:original.meta.attr.encoder.markup">Lavf60.3.100</property>
  <property name="kdenlive:original.meta.attr.comment.markup">Rendered with Manim Community v0.17.2</property>
  <property name="kdenlive:original.seekable">1</property>
  <property name="kdenlive:original.width">3840</property>
  <property name="kdenlive:original.height">2160</property>
  <property name="kdenlive:original.meta.media.sample_aspect_num">1</property>
  <property name="kdenlive:original.meta.media.sample_aspect_den">1</property>
  <property name="kdenlive:original.aspect_ratio">1</property>
  <property name="kdenlive:original.format">3</property>
  <property name="kdenlive:original.audio_index">-1</property>
  <property name="kdenlive:original.video_index">0</property>
  <property name="kdenlive:original.mute_on_pause">0</property>
  <property name="kdenlive:original.mlt_service">avformat-novalidate</property>
  <property name="kdenlive:original.meta.media.frame_rate_num">60</property>
  <property name="kdenlive:original.meta.media.frame_rate_den">1</property>
  <property name="kdenlive:original.meta.media.colorspace">709</property>
  <property name="kdenlive:original.meta.media.color_trc">2</property>
  <property name="kdenlive:original.meta.media.has_b_frames">2</property>
  <property name="kdenlive:original.meta.media.width">3840</property>
  <property name="kdenlive:original.meta.media.height">2160</property>
  <property name="kdenlive:original.meta.media.color_range">mpeg</property>
  <property name="kdenlive:original.meta.media.top_field_first">0</property>
  <property name="kdenlive:original.meta.media.progressive">1</property>
  <property name="kdenlive:original.kdenlive:clip_type">2</property>
  <property name="kdenlive:original.kdenlive:folderid">653</property>
  <property name="kdenlive:original.kdenlive:id">664</property>
  <property name="kdenlive:original.kdenlive:file_size">32861</property>
  <property name="kdenlive:original.kdenlive:file_hash">9ea1f68d060bbc40510dbebac1c102ca</property>
  <property name="kdenlive:original.backup">1</property>
  <property name="xml">was here</property>
  <property name="meta.media.frame_rate_num">60</property>
  <property name="meta.media.frame_rate_den">1</property>
  <property name="meta.media.colorspace">601</property>
  <property name="meta.media.color_trc">2</property>
  <property name="meta.media.has_b_frames">0</property>
  <property name="meta.media.width">640</property>
  <property name="meta.media.height">360</property>
  <property name="meta.media.color_range">full</property>
  <property name="meta.media.top_field_first">0</property>
  <property name="meta.media.progressive">1</property>
  <property name="set.test_audio">1</property>
  <property name="set.test_image">0</property>
 </producer>
 <producer id="producer689" in="00:00:00.000" out="00:00:01.483">
  <property name="length">90</property>
  <property name="eof">pause</property>
  <property name="resource">/home/xiaoxiae/.cache/kdenlive/proxy/137b906cf24546bbb74562f278c96af0.mkv</property>
  <property name="audio_index">-1</property>
  <property name="video_index">0</property>
  <property name="mute_on_pause">0</property>
  <property name="mlt_service">avformat-novalidate</property>
  <property name="meta.media.nb_streams">1</property>
  <property name="meta.media.0.stream.type">video</property>
  <property name="meta.media.0.stream.frame_rate">60</property>
  <property name="meta.media.0.stream.sample_aspect_ratio">0</property>
  <property name="meta.media.0.codec.width">640</property>
  <property name="meta.media.0.codec.height">360</property>
  <property name="meta.media.0.codec.rotate">0</property>
  <property name="meta.media.0.codec.pix_fmt">yuvj420p</property>
  <property name="meta.media.0.codec.sample_aspect_ratio">0</property>
  <property name="meta.media.0.codec.colorspace">601</property>
  <property name="meta.media.0.codec.name">mjpeg</property>
  <property name="meta.media.0.codec.long_name">MJPEG (Motion JPEG)</property>
  <property name="meta.media.0.codec.bit_rate">0</property>
  <property name="meta.attr.0.stream.HANDLER_NAME.markup">VideoHandler</property>
  <property name="meta.attr.0.stream.VENDOR_ID.markup">[0][0][0][0]</property>
  <property name="meta.attr.0.stream.ENCODER.markup">Lavc60.3.100 mjpeg</property>
  <property name="meta.attr.0.stream.DURATION.markup">00:00:01.500000000</property>
  <property name="meta.attr.COMMENT.markup">Rendered with Manim Community v0.17.2</property>
  <property name="meta.attr.MAJOR_BRAND.markup">isom</property>
  <property name="meta.attr.MINOR_VERSION.markup">512</property>
  <property name="meta.attr.COMPATIBLE_BRANDS.markup">isomiso2avc1mp41</property>
  <property name="meta.attr.ENCODER.markup">Lavf60.3.100</property>
  <property name="seekable">1</property>
  <property name="meta.media.sample_aspect_num">1</property>
  <property name="meta.media.sample_aspect_den">1</property>
  <property name="aspect_ratio">1</property>
  <property name="format">3</property>
  <property name="kdenlive:clipname">20.mp4</property>
  <property name="kdenlive:clip_type">2</property>
  <property name="kdenlive:folderid">653</property>
  <property name="kdenlive:id">551</property>
  <property name="kdenlive:file_size">127763</property>
  <property name="kdenlive:file_hash">137b906cf24546bbb74562f278c96af0</property>
  <property name="kdenlive:proxy">/home/xiaoxiae/.cache/kdenlive/proxy/137b906cf24546bbb74562f278c96af0.mkv</property>
  <property name="kdenlive:originalurl">video/Deletion/20.mp4</property>
  <property name="kdenlive:original.mlt_type">producer</property>
  <property name="kdenlive:original.in">0</property>
  <property name="kdenlive:original.out">89</property>
  <property name="kdenlive:original.length">90</property>
  <property name="kdenlive:original.eof">pause</property>
  <property name="kdenlive:original.resource">video/Deletion/20.mp4</property>
  <property name="kdenlive:original.meta.media.nb_streams">1</property>
  <property name="kdenlive:original.meta.media.0.stream.type">video</property>
  <property name="kdenlive:original.meta.media.0.stream.frame_rate">60</property>
  <property name="kdenlive:original.meta.media.0.stream.sample_aspect_ratio">0</property>
  <property name="kdenlive:original.meta.media.0.codec.width">3840</property>
  <property name="kdenlive:original.meta.media.0.codec.height">2160</property>
  <property name="kdenlive:original.meta.media.0.codec.rotate">0</property>
  <property name="kdenlive:original.meta.media.0.codec.pix_fmt">yuv420p</property>
  <property name="kdenlive:original.meta.media.0.codec.sample_aspect_ratio">0</property>
  <property name="kdenlive:original.meta.media.0.codec.colorspace">709</property>
  <property name="kdenlive:original.meta.media.0.codec.name">h264</property>
  <property name="kdenlive:original.meta.media.0.codec.long_name">H.264 / AVC / MPEG-4 AVC / MPEG-4 part 10</property>
  <property name="kdenlive:original.meta.media.0.codec.bit_rate">670741</property>
  <property name="kdenlive:original.meta.attr.0.stream.handler_name.markup">VideoHandler</property>
  <property name="kdenlive:original.meta.attr.0.stream.vendor_id.markup">[0][0][0][0]</property>
  <property name="kdenlive:original.meta.attr.0.stream.encoder.markup">Lavc60.3.100 libx264</property>
  <property name="kdenlive:original.meta.attr.major_brand.markup">isom</property>
  <property name="kdenlive:original.meta.attr.minor_version.markup">512</property>
  <property name="kdenlive:original.meta.attr.compatible_brands.markup">isomiso2avc1mp41</property>
  <property name="kdenlive:original.meta.attr.encoder.markup">Lavf60.3.100</property>
  <property name="kdenlive:original.meta.attr.comment.markup">Rendered with Manim Community v0.17.2</property>
  <property name="kdenlive:original.seekable">1</property>
  <property name="kdenlive:original.width">3840</property>
  <property name="kdenlive:original.height">2160</property>
  <property name="kdenlive:original.meta.media.sample_aspect_num">1</property>
  <property name="kdenlive:original.meta.media.sample_aspect_den">1</property>
  <property name="kdenlive:original.aspect_ratio">1</property>
  <property name="kdenlive:original.format">3</property>
  <property name="kdenlive:original.audio_index">-1</property>
  <property name="kdenlive:original.video_index">0</property>
  <property name="kdenlive:original.mute_on_pause">0</property>
  <property name="kdenlive:original.mlt_service">avformat-novalidate</property>
  <property name="kdenlive:original.meta.media.frame_rate_num">60</property>
  <property name="kdenlive:original.meta.media.frame_rate_den">1</property>
  <property name="kdenlive:original.meta.media.colorspace">709</property>
  <property name="kdenlive:original.meta.media.color_trc">2</property>
  <property name="kdenlive:original.meta.media.has_b_frames">2</property>
  <property name="kdenlive:original.meta.media.width">3840</property>
  <property name="kdenlive:original.meta.media.height">2160</property>
  <property name="kdenlive:original.meta.media.color_range">mpeg</property>
  <property name="kdenlive:original.meta.media.top_field_first">0</property>
  <property name="kdenlive:original.meta.media.progressive">1</property>
  <property name="kdenlive:original.kdenlive:clip_type">2</property>
  <property name="kdenlive:original.kdenlive:folderid">653</property>
  <property name="kdenlive:original.kdenlive:id">666</property>
  <property name="kdenlive:original.kdenlive:file_size">127763</property>
  <property name="kdenlive:original.kdenlive:file_hash">137b906cf24546bbb74562f278c96af0</property>
  <property name="kdenlive:original.backup">1</property>
  <property name="xml">was here</property>
  <property name="meta.media.frame_rate_num">60</property>
  <property name="meta.media.frame_rate_den">1</property>
  <property name="meta.media.colorspace">601</property>
  <property name="meta.media.color_trc">2</property>
  <property name="meta.media.has_b_frames">0</property>
  <property name="meta.media.width">640</property>
  <property name="meta.media.height">360</property>
  <property name="meta.media.color_range">full</property>
  <property name="meta.media.top_field_first">0</property>
  <property name="meta.media.progressive">1</property>
  <property name="set.test_audio">1</property>
  <property name="set.test_image">0</property>
 </producer>
 <producer id="producer690" in="00:00:00.000" out="00:00:00.983">
  <property name="length">60</property>
  <property name="eof">pause</property>
  <property name="resource">/home/xiaoxiae/.cache/kdenlive/proxy/ba36f1ba9fc7f9ba31abe3824886a4b8.mkv</property>
  <property name="audio_index">-1</property>
  <property name="video_index">0</property>
  <property name="mute_on_pause">0</property>
  <property name="mlt_service">avformat-novalidate</property>
  <property name="meta.media.nb_streams">1</property>
  <property name="meta.media.0.stream.type">video</property>
  <property name="meta.media.0.stream.frame_rate">60</property>
  <property name="meta.media.0.stream.sample_aspect_ratio">0</property>
  <property name="meta.media.0.codec.width">640</property>
  <property name="meta.media.0.codec.height">360</property>
  <property name="meta.media.0.codec.rotate">0</property>
  <property name="meta.media.0.codec.pix_fmt">yuvj420p</property>
  <property name="meta.media.0.codec.sample_aspect_ratio">0</property>
  <property name="meta.media.0.codec.colorspace">601</property>
  <property name="meta.media.0.codec.name">mjpeg</property>
  <property name="meta.media.0.codec.long_name">MJPEG (Motion JPEG)</property>
  <property name="meta.media.0.codec.bit_rate">0</property>
  <property name="meta.attr.0.stream.HANDLER_NAME.markup">VideoHandler</property>
  <property name="meta.attr.0.stream.VENDOR_ID.markup">[0][0][0][0]</property>
  <property name="meta.attr.0.stream.ENCODER.markup">Lavc60.3.100 mjpeg</property>
  <property name="meta.attr.0.stream.DURATION.markup">00:00:01.000000000</property>
  <property name="meta.attr.COMMENT.markup">Rendered with Manim Community v0.17.2</property>
  <property name="meta.attr.MAJOR_BRAND.markup">isom</property>
  <property name="meta.attr.MINOR_VERSION.markup">512</property>
  <property name="meta.attr.COMPATIBLE_BRANDS.markup">isomiso2avc1mp41</property>
  <property name="meta.attr.ENCODER.markup">Lavf60.3.100</property>
  <property name="seekable">1</property>
  <property name="meta.media.sample_aspect_num">1</property>
  <property name="meta.media.sample_aspect_den">1</property>
  <property name="aspect_ratio">1</property>
  <property name="format">3</property>
  <property name="kdenlive:clipname">21.mp4</property>
  <property name="kdenlive:clip_type">2</property>
  <property name="kdenlive:folderid">653</property>
  <property name="kdenlive:id">552</property>
  <property name="kdenlive:file_size">188463</property>
  <property name="kdenlive:file_hash">ba36f1ba9fc7f9ba31abe3824886a4b8</property>
  <property name="kdenlive:proxy">/home/xiaoxiae/.cache/kdenlive/proxy/ba36f1ba9fc7f9ba31abe3824886a4b8.mkv</property>
  <property name="kdenlive:originalurl">video/Deletion/21.mp4</property>
  <property name="kdenlive:original.mlt_type">producer</property>
  <property name="kdenlive:original.in">0</property>
  <property name="kdenlive:original.out">59</property>
  <property name="kdenlive:original.length">60</property>
  <property name="kdenlive:original.eof">pause</property>
  <property name="kdenlive:original.resource">video/Deletion/21.mp4</property>
  <property name="kdenlive:original.meta.media.nb_streams">1</property>
  <property name="kdenlive:original.meta.media.0.stream.type">video</property>
  <property name="kdenlive:original.meta.media.0.stream.frame_rate">60</property>
  <property name="kdenlive:original.meta.media.0.stream.sample_aspect_ratio">0</property>
  <property name="kdenlive:original.meta.media.0.codec.width">3840</property>
  <property name="kdenlive:original.meta.media.0.codec.height">2160</property>
  <property name="kdenlive:original.meta.media.0.codec.rotate">0</property>
  <property name="kdenlive:original.meta.media.0.codec.pix_fmt">yuv420p</property>
  <property name="kdenlive:original.meta.media.0.codec.sample_aspect_ratio">0</property>
  <property name="kdenlive:original.meta.media.0.codec.colorspace">709</property>
  <property name="kdenlive:original.meta.media.0.codec.name">h264</property>
  <property name="kdenlive:original.meta.media.0.codec.long_name">H.264 / AVC / MPEG-4 AVC / MPEG-4 part 10</property>
  <property name="kdenlive:original.meta.media.0.codec.bit_rate">1495552</property>
  <property name="kdenlive:original.meta.attr.0.stream.handler_name.markup">VideoHandler</property>
  <property name="kdenlive:original.meta.attr.0.stream.vendor_id.markup">[0][0][0][0]</property>
  <property name="kdenlive:original.meta.attr.0.stream.encoder.markup">Lavc60.3.100 libx264</property>
  <property name="kdenlive:original.meta.attr.major_brand.markup">isom</property>
  <property name="kdenlive:original.meta.attr.minor_version.markup">512</property>
  <property name="kdenlive:original.meta.attr.compatible_brands.markup">isomiso2avc1mp41</property>
  <property name="kdenlive:original.meta.attr.encoder.markup">Lavf60.3.100</property>
  <property name="kdenlive:original.meta.attr.comment.markup">Rendered with Manim Community v0.17.2</property>
  <property name="kdenlive:original.seekable">1</property>
  <property name="kdenlive:original.width">3840</property>
  <property name="kdenlive:original.height">2160</property>
  <property name="kdenlive:original.meta.media.sample_aspect_num">1</property>
  <property name="kdenlive:original.meta.media.sample_aspect_den">1</property>
  <property name="kdenlive:original.aspect_ratio">1</property>
  <property name="kdenlive:original.format">3</property>
  <property name="kdenlive:original.audio_index">-1</property>
  <property name="kdenlive:original.video_index">0</property>
  <property name="kdenlive:original.mute_on_pause">0</property>
  <property name="kdenlive:original.mlt_service">avformat-novalidate</property>
  <property name="kdenlive:original.meta.media.frame_rate_num">60</property>
  <property name="kdenlive:original.meta.media.frame_rate_den">1</property>
  <property name="kdenlive:original.meta.media.colorspace">709</property>
  <property name="kdenlive:original.meta.media.color_trc">2</property>
  <property name="kdenlive:original.meta.media.has_b_frames">2</property>
  <property name="kdenlive:original.meta.media.width">3840</property>
  <property name="kdenlive:original.meta.media.height">2160</property>
  <property name="kdenlive:original.meta.media.color_range">mpeg</property>
  <property name="kdenlive:original.meta.media.top_field_first">0</property>
  <property name="kdenlive:original.meta.media.progressive">1</property>
  <property name="kdenlive:original.kdenlive:clip_type">2</property>
  <property name="kdenlive:original.kdenlive:folderid">653</property>
  <property name="kdenlive:original.kdenlive:id">667</property>
  <property name="kdenlive:original.kdenlive:file_size">188463</property>
  <property name="kdenlive:original.kdenlive:file_hash">ba36f1ba9fc7f9ba31abe3824886a4b8</property>
  <property name="kdenlive:original.backup">1</property>
  <property name="xml">was here</property>
  <property name="meta.media.frame_rate_num">60</property>
  <property name="meta.media.frame_rate_den">1</property>
  <property name="meta.media.colorspace">601</property>
  <property name="meta.media.color_trc">2</property>
  <property name="meta.media.has_b_frames">0</property>
  <property name="meta.media.width">640</property>
  <property name="meta.media.height">360</property>
  <property name="meta.media.color_range">full</property>
  <property name="meta.media.top_field_first">0</property>
  <property name="meta.media.progressive">1</property>
  <property name="set.test_audio">1</property>
  <property name="set.test_image">0</property>
 </producer>
 <producer id="producer691" in="00:00:00.000" out="00:00:00.983">
  <property name="length">60</property>
  <property name="eof">pause</property>
  <property name="resource">/home/xiaoxiae/.cache/kdenlive/proxy/f6627bae12d5bf56cb0e6fb882e48a0f.mkv</property>
  <property name="audio_index">-1</property>
  <property name="video_index">0</property>
  <property name="mute_on_pause">0</property>
  <property name="mlt_service">avformat-novalidate</property>
  <property name="meta.media.nb_streams">1</property>
  <property name="meta.media.0.stream.type">video</property>
  <property name="meta.media.0.stream.frame_rate">60</property>
  <property name="meta.media.0.stream.sample_aspect_ratio">0</property>
  <property name="meta.media.0.codec.width">640</property>
  <property name="meta.media.0.codec.height">360</property>
  <property name="meta.media.0.codec.rotate">0</property>
  <property name="meta.media.0.codec.pix_fmt">yuvj420p</property>
  <property name="meta.media.0.codec.sample_aspect_ratio">0</property>
  <property name="meta.media.0.codec.colorspace">601</property>
  <property name="meta.media.0.codec.name">mjpeg</property>
  <property name="meta.media.0.codec.long_name">MJPEG (Motion JPEG)</property>
  <property name="meta.media.0.codec.bit_rate">0</property>
  <property name="meta.attr.0.stream.HANDLER_NAME.markup">VideoHandler</property>
  <property name="meta.attr.0.stream.VENDOR_ID.markup">[0][0][0][0]</property>
  <property name="meta.attr.0.stream.ENCODER.markup">Lavc60.3.100 mjpeg</property>
  <property name="meta.attr.0.stream.DURATION.markup">00:00:01.000000000</property>
  <property name="meta.attr.COMMENT.markup">Rendered with Manim Community v0.17.2</property>
  <property name="meta.attr.MAJOR_BRAND.markup">isom</property>
  <property name="meta.attr.MINOR_VERSION.markup">512</property>
  <property name="meta.attr.COMPATIBLE_BRANDS.markup">isomiso2avc1mp41</property>
  <property name="meta.attr.ENCODER.markup">Lavf60.3.100</property>
  <property name="seekable">1</property>
  <property name="meta.media.sample_aspect_num">1</property>
  <property name="meta.media.sample_aspect_den">1</property>
  <property name="aspect_ratio">1</property>
  <property name="format">3</property>
  <property name="kdenlive:clipname">22.mp4</property>
  <property name="kdenlive:clip_type">2</property>
  <property name="kdenlive:folderid">653</property>
  <property name="kdenlive:id">553</property>
  <property name="kdenlive:file_size">76298</property>
  <property name="kdenlive:file_hash">f6627bae12d5bf56cb0e6fb882e48a0f</property>
  <property name="kdenlive:proxy">/home/xiaoxiae/.cache/kdenlive/proxy/f6627bae12d5bf56cb0e6fb882e48a0f.mkv</property>
  <property name="kdenlive:originalurl">video/Deletion/22.mp4</property>
  <property name="kdenlive:original.mlt_type">producer</property>
  <property name="kdenlive:original.in">0</property>
  <property name="kdenlive:original.out">59</property>
  <property name="kdenlive:original.length">60</property>
  <property name="kdenlive:original.eof">pause</property>
  <property name="kdenlive:original.resource">video/Deletion/22.mp4</property>
  <property name="kdenlive:original.meta.media.nb_streams">1</property>
  <property name="kdenlive:original.meta.media.0.stream.type">video</property>
  <property name="kdenlive:original.meta.media.0.stream.frame_rate">60</property>
  <property name="kdenlive:original.meta.media.0.stream.sample_aspect_ratio">0</property>
  <property name="kdenlive:original.meta.media.0.codec.width">3840</property>
  <property name="kdenlive:original.meta.media.0.codec.height">2160</property>
  <property name="kdenlive:original.meta.media.0.codec.rotate">0</property>
  <property name="kdenlive:original.meta.media.0.codec.pix_fmt">yuv420p</property>
  <property name="kdenlive:original.meta.media.0.codec.sample_aspect_ratio">0</property>
  <property name="kdenlive:original.meta.media.0.codec.colorspace">709</property>
  <property name="kdenlive:original.meta.media.0.codec.name">h264</property>
  <property name="kdenlive:original.meta.media.0.codec.long_name">H.264 / AVC / MPEG-4 AVC / MPEG-4 part 10</property>
  <property name="kdenlive:original.meta.media.0.codec.bit_rate">597336</property>
  <property name="kdenlive:original.meta.attr.0.stream.handler_name.markup">VideoHandler</property>
  <property name="kdenlive:original.meta.attr.0.stream.vendor_id.markup">[0][0][0][0]</property>
  <property name="kdenlive:original.meta.attr.0.stream.encoder.markup">Lavc60.3.100 libx264</property>
  <property name="kdenlive:original.meta.attr.major_brand.markup">isom</property>
  <property name="kdenlive:original.meta.attr.minor_version.markup">512</property>
  <property name="kdenlive:original.meta.attr.compatible_brands.markup">isomiso2avc1mp41</property>
  <property name="kdenlive:original.meta.attr.encoder.markup">Lavf60.3.100</property>
  <property name="kdenlive:original.meta.attr.comment.markup">Rendered with Manim Community v0.17.2</property>
  <property name="kdenlive:original.seekable">1</property>
  <property name="kdenlive:original.width">3840</property>
  <property name="kdenlive:original.height">2160</property>
  <property name="kdenlive:original.meta.media.sample_aspect_num">1</property>
  <property name="kdenlive:original.meta.media.sample_aspect_den">1</property>
  <property name="kdenlive:original.aspect_ratio">1</property>
  <property name="kdenlive:original.format">3</property>
  <property name="kdenlive:original.audio_index">-1</property>
  <property name="kdenlive:original.video_index">0</property>
  <property name="kdenlive:original.mute_on_pause">0</property>
  <property name="kdenlive:original.mlt_service">avformat-novalidate</property>
  <property name="kdenlive:original.meta.media.frame_rate_num">60</property>
  <property name="kdenlive:original.meta.media.frame_rate_den">1</property>
  <property name="kdenlive:original.meta.media.colorspace">709</property>
  <property name="kdenlive:original.meta.media.color_trc">2</property>
  <property name="kdenlive:original.meta.media.has_b_frames">2</property>
  <property name="kdenlive:original.meta.media.width">3840</property>
  <property name="kdenlive:original.meta.media.height">2160</property>
  <property name="kdenlive:original.meta.media.color_range">mpeg</property>
  <property name="kdenlive:original.meta.media.top_field_first">0</property>
  <property name="kdenlive:original.meta.media.progressive">1</property>
  <property name="kdenlive:original.kdenlive:clip_type">2</property>
  <property name="kdenlive:original.kdenlive:folderid">653</property>
  <property name="kdenlive:original.kdenlive:id">668</property>
  <property name="kdenlive:original.kdenlive:file_size">76298</property>
  <property name="kdenlive:original.kdenlive:file_hash">f6627bae12d5bf56cb0e6fb882e48a0f</property>
  <property name="kdenlive:original.backup">1</property>
  <property name="xml">was here</property>
  <property name="meta.media.frame_rate_num">60</property>
  <property name="meta.media.frame_rate_den">1</property>
  <property name="meta.media.colorspace">601</property>
  <property name="meta.media.color_trc">2</property>
  <property name="meta.media.has_b_frames">0</property>
  <property name="meta.media.width">640</property>
  <property name="meta.media.height">360</property>
  <property name="meta.media.color_range">full</property>
  <property name="meta.media.top_field_first">0</property>
  <property name="meta.media.progressive">1</property>
  <property name="set.test_audio">1</property>
  <property name="set.test_image">0</property>
 </producer>
 <producer id="producer692" in="00:00:00.000" out="00:00:00.983">
  <property name="length">60</property>
  <property name="eof">pause</property>
  <property name="resource">/home/xiaoxiae/.cache/kdenlive/proxy/5f09cb9ebffcac60d8afeaa33979f526.mkv</property>
  <property name="audio_index">-1</property>
  <property name="video_index">0</property>
  <property name="mute_on_pause">0</property>
  <property name="mlt_service">avformat-novalidate</property>
  <property name="meta.media.nb_streams">1</property>
  <property name="meta.media.0.stream.type">video</property>
  <property name="meta.media.0.stream.frame_rate">60</property>
  <property name="meta.media.0.stream.sample_aspect_ratio">0</property>
  <property name="meta.media.0.codec.width">640</property>
  <property name="meta.media.0.codec.height">360</property>
  <property name="meta.media.0.codec.rotate">0</property>
  <property name="meta.media.0.codec.pix_fmt">yuvj420p</property>
  <property name="meta.media.0.codec.sample_aspect_ratio">0</property>
  <property name="meta.media.0.codec.colorspace">601</property>
  <property name="meta.media.0.codec.name">mjpeg</property>
  <property name="meta.media.0.codec.long_name">MJPEG (Motion JPEG)</property>
  <property name="meta.media.0.codec.bit_rate">0</property>
  <property name="meta.attr.0.stream.HANDLER_NAME.markup">VideoHandler</property>
  <property name="meta.attr.0.stream.VENDOR_ID.markup">[0][0][0][0]</property>
  <property name="meta.attr.0.stream.ENCODER.markup">Lavc60.3.100 mjpeg</property>
  <property name="meta.attr.0.stream.DURATION.markup">00:00:01.000000000</property>
  <property name="meta.attr.COMMENT.markup">Rendered with Manim Community v0.17.2</property>
  <property name="meta.attr.MAJOR_BRAND.markup">isom</property>
  <property name="meta.attr.MINOR_VERSION.markup">512</property>
  <property name="meta.attr.COMPATIBLE_BRANDS.markup">isomiso2avc1mp41</property>
  <property name="meta.attr.ENCODER.markup">Lavf60.3.100</property>
  <property name="seekable">1</property>
  <property name="meta.media.sample_aspect_num">1</property>
  <property name="meta.media.sample_aspect_den">1</property>
  <property name="aspect_ratio">1</property>
  <property name="format">3</property>
  <property name="kdenlive:clipname">23.mp4</property>
  <property name="kdenlive:clip_type">2</property>
  <property name="kdenlive:folderid">653</property>
  <property name="kdenlive:id">554</property>
  <property name="kdenlive:file_size">75385</property>
  <property name="kdenlive:file_hash">5f09cb9ebffcac60d8afeaa33979f526</property>
  <property name="kdenlive:proxy">/home/xiaoxiae/.cache/kdenlive/proxy/5f09cb9ebffcac60d8afeaa33979f526.mkv</property>
  <property name="kdenlive:originalurl">video/Deletion/23.mp4</property>
  <property name="kdenlive:original.mlt_type">producer</property>
  <property name="kdenlive:original.in">0</property>
  <property name="kdenlive:original.out">59</property>
  <property name="kdenlive:original.length">60</property>
  <property name="kdenlive:original.eof">pause</property>
  <property name="kdenlive:original.resource">video/Deletion/23.mp4</property>
  <property name="kdenlive:original.meta.media.nb_streams">1</property>
  <property name="kdenlive:original.meta.media.0.stream.type">video</property>
  <property name="kdenlive:original.meta.media.0.stream.frame_rate">60</property>
  <property name="kdenlive:original.meta.media.0.stream.sample_aspect_ratio">0</property>
  <property name="kdenlive:original.meta.media.0.codec.width">3840</property>
  <property name="kdenlive:original.meta.media.0.codec.height">2160</property>
  <property name="kdenlive:original.meta.media.0.codec.rotate">0</property>
  <property name="kdenlive:original.meta.media.0.codec.pix_fmt">yuv420p</property>
  <property name="kdenlive:original.meta.media.0.codec.sample_aspect_ratio">0</property>
  <property name="kdenlive:original.meta.media.0.codec.colorspace">709</property>
  <property name="kdenlive:original.meta.media.0.codec.name">h264</property>
  <property name="kdenlive:original.meta.media.0.codec.long_name">H.264 / AVC / MPEG-4 AVC / MPEG-4 part 10</property>
  <property name="kdenlive:original.meta.media.0.codec.bit_rate">590032</property>
  <property name="kdenlive:original.meta.attr.0.stream.handler_name.markup">VideoHandler</property>
  <property name="kdenlive:original.meta.attr.0.stream.vendor_id.markup">[0][0][0][0]</property>
  <property name="kdenlive:original.meta.attr.0.stream.encoder.markup">Lavc60.3.100 libx264</property>
  <property name="kdenlive:original.meta.attr.major_brand.markup">isom</property>
  <property name="kdenlive:original.meta.attr.minor_version.markup">512</property>
  <property name="kdenlive:original.meta.attr.compatible_brands.markup">isomiso2avc1mp41</property>
  <property name="kdenlive:original.meta.attr.encoder.markup">Lavf60.3.100</property>
  <property name="kdenlive:original.meta.attr.comment.markup">Rendered with Manim Community v0.17.2</property>
  <property name="kdenlive:original.seekable">1</property>
  <property name="kdenlive:original.width">3840</property>
  <property name="kdenlive:original.height">2160</property>
  <property name="kdenlive:original.meta.media.sample_aspect_num">1</property>
  <property name="kdenlive:original.meta.media.sample_aspect_den">1</property>
  <property name="kdenlive:original.aspect_ratio">1</property>
  <property name="kdenlive:original.format">3</property>
  <property name="kdenlive:original.audio_index">-1</property>
  <property name="kdenlive:original.video_index">0</property>
  <property name="kdenlive:original.mute_on_pause">0</property>
  <property name="kdenlive:original.mlt_service">avformat-novalidate</property>
  <property name="kdenlive:original.meta.media.frame_rate_num">60</property>
  <property name="kdenlive:original.meta.media.frame_rate_den">1</property>
  <property name="kdenlive:original.meta.media.colorspace">709</property>
  <property name="kdenlive:original.meta.media.color_trc">2</property>
  <property name="kdenlive:original.meta.media.has_b_frames">2</property>
  <property name="kdenlive:original.meta.media.width">3840</property>
  <property name="kdenlive:original.meta.media.height">2160</property>
  <property name="kdenlive:original.meta.media.color_range">mpeg</property>
  <property name="kdenlive:original.meta.media.top_field_first">0</property>
  <property name="kdenlive:original.meta.media.progressive">1</property>
  <property name="kdenlive:original.kdenlive:clip_type">2</property>
  <property name="kdenlive:original.kdenlive:folderid">653</property>
  <property name="kdenlive:original.kdenlive:id">669</property>
  <property name="kdenlive:original.kdenlive:file_size">75385</property>
  <property name="kdenlive:original.kdenlive:file_hash">5f09cb9ebffcac60d8afeaa33979f526</property>
  <property name="kdenlive:original.backup">1</property>
  <property name="xml">was here</property>
  <property name="meta.media.frame_rate_num">60</property>
  <property name="meta.media.frame_rate_den">1</property>
  <property name="meta.media.colorspace">601</property>
  <property name="meta.media.color_trc">2</property>
  <property name="meta.media.has_b_frames">0</property>
  <property name="meta.media.width">640</property>
  <property name="meta.media.height">360</property>
  <property name="meta.media.color_range">full</property>
  <property name="meta.media.top_field_first">0</property>
  <property name="meta.media.progressive">1</property>
  <property name="set.test_audio">1</property>
  <property name="set.test_image">0</property>
 </producer>
 <producer id="producer693" in="00:00:00.000" out="00:00:00.983">
  <property name="length">60</property>
  <property name="eof">pause</property>
  <property name="resource">/home/xiaoxiae/.cache/kdenlive/proxy/0c6343ae02826ed05fc26e63a4814eea.mkv</property>
  <property name="audio_index">-1</property>
  <property name="video_index">0</property>
  <property name="mute_on_pause">0</property>
  <property name="mlt_service">avformat-novalidate</property>
  <property name="meta.media.nb_streams">1</property>
  <property name="meta.media.0.stream.type">video</property>
  <property name="meta.media.0.stream.frame_rate">60</property>
  <property name="meta.media.0.stream.sample_aspect_ratio">0</property>
  <property name="meta.media.0.codec.width">640</property>
  <property name="meta.media.0.codec.height">360</property>
  <property name="meta.media.0.codec.rotate">0</property>
  <property name="meta.media.0.codec.pix_fmt">yuvj420p</property>
  <property name="meta.media.0.codec.sample_aspect_ratio">0</property>
  <property name="meta.media.0.codec.colorspace">601</property>
  <property name="meta.media.0.codec.name">mjpeg</property>
  <property name="meta.media.0.codec.long_name">MJPEG (Motion JPEG)</property>
  <property name="meta.media.0.codec.bit_rate">0</property>
  <property name="meta.attr.0.stream.HANDLER_NAME.markup">VideoHandler</property>
  <property name="meta.attr.0.stream.VENDOR_ID.markup">[0][0][0][0]</property>
  <property name="meta.attr.0.stream.ENCODER.markup">Lavc60.3.100 mjpeg</property>
  <property name="meta.attr.0.stream.DURATION.markup">00:00:01.000000000</property>
  <property name="meta.attr.COMMENT.markup">Rendered with Manim Community v0.17.2</property>
  <property name="meta.attr.MAJOR_BRAND.markup">isom</property>
  <property name="meta.attr.MINOR_VERSION.markup">512</property>
  <property name="meta.attr.COMPATIBLE_BRANDS.markup">isomiso2avc1mp41</property>
  <property name="meta.attr.ENCODER.markup">Lavf60.3.100</property>
  <property name="seekable">1</property>
  <property name="meta.media.sample_aspect_num">1</property>
  <property name="meta.media.sample_aspect_den">1</property>
  <property name="aspect_ratio">1</property>
  <property name="format">3</property>
  <property name="kdenlive:clipname">24.mp4</property>
  <property name="kdenlive:clip_type">2</property>
  <property name="kdenlive:folderid">653</property>
  <property name="kdenlive:id">555</property>
  <property name="kdenlive:file_size">145977</property>
  <property name="kdenlive:file_hash">0c6343ae02826ed05fc26e63a4814eea</property>
  <property name="kdenlive:proxy">/home/xiaoxiae/.cache/kdenlive/proxy/0c6343ae02826ed05fc26e63a4814eea.mkv</property>
  <property name="kdenlive:originalurl">video/Deletion/24.mp4</property>
  <property name="kdenlive:original.mlt_type">producer</property>
  <property name="kdenlive:original.in">0</property>
  <property name="kdenlive:original.out">59</property>
  <property name="kdenlive:original.length">60</property>
  <property name="kdenlive:original.eof">pause</property>
  <property name="kdenlive:original.resource">video/Deletion/24.mp4</property>
  <property name="kdenlive:original.meta.media.nb_streams">1</property>
  <property name="kdenlive:original.meta.media.0.stream.type">video</property>
  <property name="kdenlive:original.meta.media.0.stream.frame_rate">60</property>
  <property name="kdenlive:original.meta.media.0.stream.sample_aspect_ratio">0</property>
  <property name="kdenlive:original.meta.media.0.codec.width">3840</property>
  <property name="kdenlive:original.meta.media.0.codec.height">2160</property>
  <property name="kdenlive:original.meta.media.0.codec.rotate">0</property>
  <property name="kdenlive:original.meta.media.0.codec.pix_fmt">yuv420p</property>
  <property name="kdenlive:original.meta.media.0.codec.sample_aspect_ratio">0</property>
  <property name="kdenlive:original.meta.media.0.codec.colorspace">709</property>
  <property name="kdenlive:original.meta.media.0.codec.name">h264</property>
  <property name="kdenlive:original.meta.media.0.codec.long_name">H.264 / AVC / MPEG-4 AVC / MPEG-4 part 10</property>
  <property name="kdenlive:original.meta.media.0.codec.bit_rate">1154896</property>
  <property name="kdenlive:original.meta.attr.0.stream.handler_name.markup">VideoHandler</property>
  <property name="kdenlive:original.meta.attr.0.stream.vendor_id.markup">[0][0][0][0]</property>
  <property name="kdenlive:original.meta.attr.0.stream.encoder.markup">Lavc60.3.100 libx264</property>
  <property name="kdenlive:original.meta.attr.major_brand.markup">isom</property>
  <property name="kdenlive:original.meta.attr.minor_version.markup">512</property>
  <property name="kdenlive:original.meta.attr.compatible_brands.markup">isomiso2avc1mp41</property>
  <property name="kdenlive:original.meta.attr.encoder.markup">Lavf60.3.100</property>
  <property name="kdenlive:original.meta.attr.comment.markup">Rendered with Manim Community v0.17.2</property>
  <property name="kdenlive:original.seekable">1</property>
  <property name="kdenlive:original.width">3840</property>
  <property name="kdenlive:original.height">2160</property>
  <property name="kdenlive:original.meta.media.sample_aspect_num">1</property>
  <property name="kdenlive:original.meta.media.sample_aspect_den">1</property>
  <property name="kdenlive:original.aspect_ratio">1</property>
  <property name="kdenlive:original.format">3</property>
  <property name="kdenlive:original.audio_index">-1</property>
  <property name="kdenlive:original.video_index">0</property>
  <property name="kdenlive:original.mute_on_pause">0</property>
  <property name="kdenlive:original.mlt_service">avformat-novalidate</property>
  <property name="kdenlive:original.meta.media.frame_rate_num">60</property>
  <property name="kdenlive:original.meta.media.frame_rate_den">1</property>
  <property name="kdenlive:original.meta.media.colorspace">709</property>
  <property name="kdenlive:original.meta.media.color_trc">2</property>
  <property name="kdenlive:original.meta.media.has_b_frames">2</property>
  <property name="kdenlive:original.meta.media.width">3840</property>
  <property name="kdenlive:original.meta.media.height">2160</property>
  <property name="kdenlive:original.meta.media.color_range">mpeg</property>
  <property name="kdenlive:original.meta.media.top_field_first">0</property>
  <property name="kdenlive:original.meta.media.progressive">1</property>
  <property name="kdenlive:original.kdenlive:clip_type">2</property>
  <property name="kdenlive:original.kdenlive:folderid">653</property>
  <property name="kdenlive:original.kdenlive:id">670</property>
  <property name="kdenlive:original.kdenlive:file_size">145977</property>
  <property name="kdenlive:original.kdenlive:file_hash">0c6343ae02826ed05fc26e63a4814eea</property>
  <property name="kdenlive:original.backup">1</property>
  <property name="xml">was here</property>
  <property name="meta.media.frame_rate_num">60</property>
  <property name="meta.media.frame_rate_den">1</property>
  <property name="meta.media.colorspace">601</property>
  <property name="meta.media.color_trc">2</property>
  <property name="meta.media.has_b_frames">0</property>
  <property name="meta.media.width">640</property>
  <property name="meta.media.height">360</property>
  <property name="meta.media.color_range">full</property>
  <property name="meta.media.top_field_first">0</property>
  <property name="meta.media.progressive">1</property>
  <property name="set.test_audio">1</property>
  <property name="set.test_image">0</property>
 </producer>
 <producer id="producer694" in="00:00:00.000" out="00:00:00.983">
  <property name="length">60</property>
  <property name="eof">pause</property>
  <property name="resource">/home/xiaoxiae/.cache/kdenlive/proxy/d9a54ee586e6a85ae7aac8ccfa4f0a48.mkv</property>
  <property name="audio_index">-1</property>
  <property name="video_index">0</property>
  <property name="mute_on_pause">0</property>
  <property name="mlt_service">avformat-novalidate</property>
  <property name="meta.media.nb_streams">1</property>
  <property name="meta.media.0.stream.type">video</property>
  <property name="meta.media.0.stream.frame_rate">60</property>
  <property name="meta.media.0.stream.sample_aspect_ratio">0</property>
  <property name="meta.media.0.codec.width">640</property>
  <property name="meta.media.0.codec.height">360</property>
  <property name="meta.media.0.codec.rotate">0</property>
  <property name="meta.media.0.codec.pix_fmt">yuvj420p</property>
  <property name="meta.media.0.codec.sample_aspect_ratio">0</property>
  <property name="meta.media.0.codec.colorspace">601</property>
  <property name="meta.media.0.codec.name">mjpeg</property>
  <property name="meta.media.0.codec.long_name">MJPEG (Motion JPEG)</property>
  <property name="meta.media.0.codec.bit_rate">0</property>
  <property name="meta.attr.0.stream.HANDLER_NAME.markup">VideoHandler</property>
  <property name="meta.attr.0.stream.VENDOR_ID.markup">[0][0][0][0]</property>
  <property name="meta.attr.0.stream.ENCODER.markup">Lavc60.3.100 mjpeg</property>
  <property name="meta.attr.0.stream.DURATION.markup">00:00:01.000000000</property>
  <property name="meta.attr.COMMENT.markup">Rendered with Manim Community v0.17.2</property>
  <property name="meta.attr.MAJOR_BRAND.markup">isom</property>
  <property name="meta.attr.MINOR_VERSION.markup">512</property>
  <property name="meta.attr.COMPATIBLE_BRANDS.markup">isomiso2avc1mp41</property>
  <property name="meta.attr.ENCODER.markup">Lavf60.3.100</property>
  <property name="seekable">1</property>
  <property name="meta.media.sample_aspect_num">1</property>
  <property name="meta.media.sample_aspect_den">1</property>
  <property name="aspect_ratio">1</property>
  <property name="format">3</property>
  <property name="kdenlive:clipname">25.mp4</property>
  <property name="kdenlive:clip_type">2</property>
  <property name="kdenlive:folderid">653</property>
  <property name="kdenlive:id">556</property>
  <property name="kdenlive:file_size">101594</property>
  <property name="kdenlive:file_hash">d9a54ee586e6a85ae7aac8ccfa4f0a48</property>
  <property name="kdenlive:proxy">/home/xiaoxiae/.cache/kdenlive/proxy/d9a54ee586e6a85ae7aac8ccfa4f0a48.mkv</property>
  <property name="kdenlive:originalurl">video/Deletion/25.mp4</property>
  <property name="kdenlive:original.mlt_type">producer</property>
  <property name="kdenlive:original.in">0</property>
  <property name="kdenlive:original.out">59</property>
  <property name="kdenlive:original.length">60</property>
  <property name="kdenlive:original.eof">pause</property>
  <property name="kdenlive:original.resource">video/Deletion/25.mp4</property>
  <property name="kdenlive:original.meta.media.nb_streams">1</property>
  <property name="kdenlive:original.meta.media.0.stream.type">video</property>
  <property name="kdenlive:original.meta.media.0.stream.frame_rate">60</property>
  <property name="kdenlive:original.meta.media.0.stream.sample_aspect_ratio">0</property>
  <property name="kdenlive:original.meta.media.0.codec.width">3840</property>
  <property name="kdenlive:original.meta.media.0.codec.height">2160</property>
  <property name="kdenlive:original.meta.media.0.codec.rotate">0</property>
  <property name="kdenlive:original.meta.media.0.codec.pix_fmt">yuv420p</property>
  <property name="kdenlive:original.meta.media.0.codec.sample_aspect_ratio">0</property>
  <property name="kdenlive:original.meta.media.0.codec.colorspace">709</property>
  <property name="kdenlive:original.meta.media.0.codec.name">h264</property>
  <property name="kdenlive:original.meta.media.0.codec.long_name">H.264 / AVC / MPEG-4 AVC / MPEG-4 part 10</property>
  <property name="kdenlive:original.meta.media.0.codec.bit_rate">799640</property>
  <property name="kdenlive:original.meta.attr.0.stream.handler_name.markup">VideoHandler</property>
  <property name="kdenlive:original.meta.attr.0.stream.vendor_id.markup">[0][0][0][0]</property>
  <property name="kdenlive:original.meta.attr.0.stream.encoder.markup">Lavc60.3.100 libx264</property>
  <property name="kdenlive:original.meta.attr.major_brand.markup">isom</property>
  <property name="kdenlive:original.meta.attr.minor_version.markup">512</property>
  <property name="kdenlive:original.meta.attr.compatible_brands.markup">isomiso2avc1mp41</property>
  <property name="kdenlive:original.meta.attr.encoder.markup">Lavf60.3.100</property>
  <property name="kdenlive:original.meta.attr.comment.markup">Rendered with Manim Community v0.17.2</property>
  <property name="kdenlive:original.seekable">1</property>
  <property name="kdenlive:original.width">3840</property>
  <property name="kdenlive:original.height">2160</property>
  <property name="kdenlive:original.meta.media.sample_aspect_num">1</property>
  <property name="kdenlive:original.meta.media.sample_aspect_den">1</property>
  <property name="kdenlive:original.aspect_ratio">1</property>
  <property name="kdenlive:original.format">3</property>
  <property name="kdenlive:original.audio_index">-1</property>
  <property name="kdenlive:original.video_index">0</property>
  <property name="kdenlive:original.mute_on_pause">0</property>
  <property name="kdenlive:original.mlt_service">avformat-novalidate</property>
  <property name="kdenlive:original.meta.media.frame_rate_num">60</property>
  <property name="kdenlive:original.meta.media.frame_rate_den">1</property>
  <property name="kdenlive:original.meta.media.colorspace">709</property>
  <property name="kdenlive:original.meta.media.color_trc">2</property>
  <property name="kdenlive:original.meta.media.has_b_frames">2</property>
  <property name="kdenlive:original.meta.media.width">3840</property>
  <property name="kdenlive:original.meta.media.height">2160</property>
  <property name="kdenlive:original.meta.media.color_range">mpeg</property>
  <property name="kdenlive:original.meta.media.top_field_first">0</property>
  <property name="kdenlive:original.meta.media.progressive">1</property>
  <property name="kdenlive:original.kdenlive:clip_type">2</property>
  <property name="kdenlive:original.kdenlive:folderid">653</property>
  <property name="kdenlive:original.kdenlive:id">671</property>
  <property name="kdenlive:original.kdenlive:file_size">101594</property>
  <property name="kdenlive:original.kdenlive:file_hash">d9a54ee586e6a85ae7aac8ccfa4f0a48</property>
  <property name="kdenlive:original.backup">1</property>
  <property name="xml">was here</property>
  <property name="meta.media.frame_rate_num">60</property>
  <property name="meta.media.frame_rate_den">1</property>
  <property name="meta.media.colorspace">601</property>
  <property name="meta.media.color_trc">2</property>
  <property name="meta.media.has_b_frames">0</property>
  <property name="meta.media.width">640</property>
  <property name="meta.media.height">360</property>
  <property name="meta.media.color_range">full</property>
  <property name="meta.media.top_field_first">0</property>
  <property name="meta.media.progressive">1</property>
  <property name="set.test_audio">1</property>
  <property name="set.test_image">0</property>
 </producer>
 <producer id="producer695" in="00:00:00.000" out="00:00:00.983">
  <property name="length">60</property>
  <property name="eof">pause</property>
  <property name="resource">/home/xiaoxiae/.cache/kdenlive/proxy/961e736a8269c16b9303c9aeb5df06ae.mkv</property>
  <property name="audio_index">-1</property>
  <property name="video_index">0</property>
  <property name="mute_on_pause">0</property>
  <property name="mlt_service">avformat-novalidate</property>
  <property name="meta.media.nb_streams">1</property>
  <property name="meta.media.0.stream.type">video</property>
  <property name="meta.media.0.stream.frame_rate">60</property>
  <property name="meta.media.0.stream.sample_aspect_ratio">0</property>
  <property name="meta.media.0.codec.width">640</property>
  <property name="meta.media.0.codec.height">360</property>
  <property name="meta.media.0.codec.rotate">0</property>
  <property name="meta.media.0.codec.pix_fmt">yuvj420p</property>
  <property name="meta.media.0.codec.sample_aspect_ratio">0</property>
  <property name="meta.media.0.codec.colorspace">601</property>
  <property name="meta.media.0.codec.name">mjpeg</property>
  <property name="meta.media.0.codec.long_name">MJPEG (Motion JPEG)</property>
  <property name="meta.media.0.codec.bit_rate">0</property>
  <property name="meta.attr.0.stream.HANDLER_NAME.markup">VideoHandler</property>
  <property name="meta.attr.0.stream.VENDOR_ID.markup">[0][0][0][0]</property>
  <property name="meta.attr.0.stream.ENCODER.markup">Lavc60.3.100 mjpeg</property>
  <property name="meta.attr.0.stream.DURATION.markup">00:00:01.000000000</property>
  <property name="meta.attr.COMMENT.markup">Rendered with Manim Community v0.17.2</property>
  <property name="meta.attr.MAJOR_BRAND.markup">isom</property>
  <property name="meta.attr.MINOR_VERSION.markup">512</property>
  <property name="meta.attr.COMPATIBLE_BRANDS.markup">isomiso2avc1mp41</property>
  <property name="meta.attr.ENCODER.markup">Lavf60.3.100</property>
  <property name="seekable">1</property>
  <property name="meta.media.sample_aspect_num">1</property>
  <property name="meta.media.sample_aspect_den">1</property>
  <property name="aspect_ratio">1</property>
  <property name="format">3</property>
  <property name="kdenlive:clipname">26.mp4</property>
  <property name="kdenlive:clip_type">2</property>
  <property name="kdenlive:folderid">653</property>
  <property name="kdenlive:id">557</property>
  <property name="kdenlive:file_size">61892</property>
  <property name="kdenlive:file_hash">961e736a8269c16b9303c9aeb5df06ae</property>
  <property name="kdenlive:proxy">/home/xiaoxiae/.cache/kdenlive/proxy/961e736a8269c16b9303c9aeb5df06ae.mkv</property>
  <property name="kdenlive:originalurl">video/Deletion/26.mp4</property>
  <property name="kdenlive:original.mlt_type">producer</property>
  <property name="kdenlive:original.in">0</property>
  <property name="kdenlive:original.out">59</property>
  <property name="kdenlive:original.length">60</property>
  <property name="kdenlive:original.eof">pause</property>
  <property name="kdenlive:original.resource">video/Deletion/26.mp4</property>
  <property name="kdenlive:original.meta.media.nb_streams">1</property>
  <property name="kdenlive:original.meta.media.0.stream.type">video</property>
  <property name="kdenlive:original.meta.media.0.stream.frame_rate">60</property>
  <property name="kdenlive:original.meta.media.0.stream.sample_aspect_ratio">0</property>
  <property name="kdenlive:original.meta.media.0.codec.width">3840</property>
  <property name="kdenlive:original.meta.media.0.codec.height">2160</property>
  <property name="kdenlive:original.meta.media.0.codec.rotate">0</property>
  <property name="kdenlive:original.meta.media.0.codec.pix_fmt">yuv420p</property>
  <property name="kdenlive:original.meta.media.0.codec.sample_aspect_ratio">0</property>
  <property name="kdenlive:original.meta.media.0.codec.colorspace">709</property>
  <property name="kdenlive:original.meta.media.0.codec.name">h264</property>
  <property name="kdenlive:original.meta.media.0.codec.long_name">H.264 / AVC / MPEG-4 AVC / MPEG-4 part 10</property>
  <property name="kdenlive:original.meta.media.0.codec.bit_rate">482088</property>
  <property name="kdenlive:original.meta.attr.0.stream.handler_name.markup">VideoHandler</property>
  <property name="kdenlive:original.meta.attr.0.stream.vendor_id.markup">[0][0][0][0]</property>
  <property name="kdenlive:original.meta.attr.0.stream.encoder.markup">Lavc60.3.100 libx264</property>
  <property name="kdenlive:original.meta.attr.major_brand.markup">isom</property>
  <property name="kdenlive:original.meta.attr.minor_version.markup">512</property>
  <property name="kdenlive:original.meta.attr.compatible_brands.markup">isomiso2avc1mp41</property>
  <property name="kdenlive:original.meta.attr.encoder.markup">Lavf60.3.100</property>
  <property name="kdenlive:original.meta.attr.comment.markup">Rendered with Manim Community v0.17.2</property>
  <property name="kdenlive:original.seekable">1</property>
  <property name="kdenlive:original.width">3840</property>
  <property name="kdenlive:original.height">2160</property>
  <property name="kdenlive:original.meta.media.sample_aspect_num">1</property>
  <property name="kdenlive:original.meta.media.sample_aspect_den">1</property>
  <property name="kdenlive:original.aspect_ratio">1</property>
  <property name="kdenlive:original.format">3</property>
  <property name="kdenlive:original.audio_index">-1</property>
  <property name="kdenlive:original.video_index">0</property>
  <property name="kdenlive:original.mute_on_pause">0</property>
  <property name="kdenlive:original.mlt_service">avformat-novalidate</property>
  <property name="kdenlive:original.meta.media.frame_rate_num">60</property>
  <property name="kdenlive:original.meta.media.frame_rate_den">1</property>
  <property name="kdenlive:original.meta.media.colorspace">709</property>
  <property name="kdenlive:original.meta.media.color_trc">2</property>
  <property name="kdenlive:original.meta.media.has_b_frames">2</property>
  <property name="kdenlive:original.meta.media.width">3840</property>
  <property name="kdenlive:original.meta.media.height">2160</property>
  <property name="kdenlive:original.meta.media.color_range">mpeg</property>
  <property name="kdenlive:original.meta.media.top_field_first">0</property>
  <property name="kdenlive:original.meta.media.progressive">1</property>
  <property name="kdenlive:original.kdenlive:clip_type">2</property>
  <property name="kdenlive:original.kdenlive:folderid">653</property>
  <property name="kdenlive:original.kdenlive:id">672</property>
  <property name="kdenlive:original.kdenlive:file_size">61892</property>
  <property name="kdenlive:original.kdenlive:file_hash">961e736a8269c16b9303c9aeb5df06ae</property>
  <property name="kdenlive:original.backup">1</property>
  <property name="xml">was here</property>
  <property name="meta.media.frame_rate_num">60</property>
  <property name="meta.media.frame_rate_den">1</property>
  <property name="meta.media.colorspace">601</property>
  <property name="meta.media.color_trc">2</property>
  <property name="meta.media.has_b_frames">0</property>
  <property name="meta.media.width">640</property>
  <property name="meta.media.height">360</property>
  <property name="meta.media.color_range">full</property>
  <property name="meta.media.top_field_first">0</property>
  <property name="meta.media.progressive">1</property>
  <property name="set.test_audio">1</property>
  <property name="set.test_image">0</property>
 </producer>
 <producer id="producer696" in="00:00:00.000" out="00:00:00.983">
  <property name="length">60</property>
  <property name="eof">pause</property>
  <property name="resource">/home/xiaoxiae/.cache/kdenlive/proxy/ebbcce4c22e814accb12eb044c51000e.mkv</property>
  <property name="audio_index">-1</property>
  <property name="video_index">0</property>
  <property name="mute_on_pause">0</property>
  <property name="mlt_service">avformat-novalidate</property>
  <property name="meta.media.nb_streams">1</property>
  <property name="meta.media.0.stream.type">video</property>
  <property name="meta.media.0.stream.frame_rate">60</property>
  <property name="meta.media.0.stream.sample_aspect_ratio">0</property>
  <property name="meta.media.0.codec.width">640</property>
  <property name="meta.media.0.codec.height">360</property>
  <property name="meta.media.0.codec.rotate">0</property>
  <property name="meta.media.0.codec.pix_fmt">yuvj420p</property>
  <property name="meta.media.0.codec.sample_aspect_ratio">0</property>
  <property name="meta.media.0.codec.colorspace">601</property>
  <property name="meta.media.0.codec.name">mjpeg</property>
  <property name="meta.media.0.codec.long_name">MJPEG (Motion JPEG)</property>
  <property name="meta.media.0.codec.bit_rate">0</property>
  <property name="meta.attr.0.stream.HANDLER_NAME.markup">VideoHandler</property>
  <property name="meta.attr.0.stream.VENDOR_ID.markup">[0][0][0][0]</property>
  <property name="meta.attr.0.stream.ENCODER.markup">Lavc60.3.100 mjpeg</property>
  <property name="meta.attr.0.stream.DURATION.markup">00:00:01.000000000</property>
  <property name="meta.attr.COMMENT.markup">Rendered with Manim Community v0.17.2</property>
  <property name="meta.attr.MAJOR_BRAND.markup">isom</property>
  <property name="meta.attr.MINOR_VERSION.markup">512</property>
  <property name="meta.attr.COMPATIBLE_BRANDS.markup">isomiso2avc1mp41</property>
  <property name="meta.attr.ENCODER.markup">Lavf60.3.100</property>
  <property name="seekable">1</property>
  <property name="meta.media.sample_aspect_num">1</property>
  <property name="meta.media.sample_aspect_den">1</property>
  <property name="aspect_ratio">1</property>
  <property name="format">3</property>
  <property name="kdenlive:clipname">27.mp4</property>
  <property name="kdenlive:clip_type">2</property>
  <property name="kdenlive:folderid">653</property>
  <property name="kdenlive:id">558</property>
  <property name="kdenlive:file_size">119686</property>
  <property name="kdenlive:file_hash">ebbcce4c22e814accb12eb044c51000e</property>
  <property name="kdenlive:proxy">/home/xiaoxiae/.cache/kdenlive/proxy/ebbcce4c22e814accb12eb044c51000e.mkv</property>
  <property name="kdenlive:originalurl">video/Deletion/27.mp4</property>
  <property name="kdenlive:original.mlt_type">producer</property>
  <property name="kdenlive:original.in">0</property>
  <property name="kdenlive:original.out">59</property>
  <property name="kdenlive:original.length">60</property>
  <property name="kdenlive:original.eof">pause</property>
  <property name="kdenlive:original.resource">video/Deletion/27.mp4</property>
  <property name="kdenlive:original.meta.media.nb_streams">1</property>
  <property name="kdenlive:original.meta.media.0.stream.type">video</property>
  <property name="kdenlive:original.meta.media.0.stream.frame_rate">60</property>
  <property name="kdenlive:original.meta.media.0.stream.sample_aspect_ratio">0</property>
  <property name="kdenlive:original.meta.media.0.codec.width">3840</property>
  <property name="kdenlive:original.meta.media.0.codec.height">2160</property>
  <property name="kdenlive:original.meta.media.0.codec.rotate">0</property>
  <property name="kdenlive:original.meta.media.0.codec.pix_fmt">yuv420p</property>
  <property name="kdenlive:original.meta.media.0.codec.sample_aspect_ratio">0</property>
  <property name="kdenlive:original.meta.media.0.codec.colorspace">709</property>
  <property name="kdenlive:original.meta.media.0.codec.name">h264</property>
  <property name="kdenlive:original.meta.media.0.codec.long_name">H.264 / AVC / MPEG-4 AVC / MPEG-4 part 10</property>
  <property name="kdenlive:original.meta.media.0.codec.bit_rate">944440</property>
  <property name="kdenlive:original.meta.attr.0.stream.handler_name.markup">VideoHandler</property>
  <property name="kdenlive:original.meta.attr.0.stream.vendor_id.markup">[0][0][0][0]</property>
  <property name="kdenlive:original.meta.attr.0.stream.encoder.markup">Lavc60.3.100 libx264</property>
  <property name="kdenlive:original.meta.attr.major_brand.markup">isom</property>
  <property name="kdenlive:original.meta.attr.minor_version.markup">512</property>
  <property name="kdenlive:original.meta.attr.compatible_brands.markup">isomiso2avc1mp41</property>
  <property name="kdenlive:original.meta.attr.encoder.markup">Lavf60.3.100</property>
  <property name="kdenlive:original.meta.attr.comment.markup">Rendered with Manim Community v0.17.2</property>
  <property name="kdenlive:original.seekable">1</property>
  <property name="kdenlive:original.width">3840</property>
  <property name="kdenlive:original.height">2160</property>
  <property name="kdenlive:original.meta.media.sample_aspect_num">1</property>
  <property name="kdenlive:original.meta.media.sample_aspect_den">1</property>
  <property name="kdenlive:original.aspect_ratio">1</property>
  <property name="kdenlive:original.format">3</property>
  <property name="kdenlive:original.audio_index">-1</property>
  <property name="kdenlive:original.video_index">0</property>
  <property name="kdenlive:original.mute_on_pause">0</property>
  <property name="kdenlive:original.mlt_service">avformat-novalidate</property>
  <property name="kdenlive:original.meta.media.frame_rate_num">60</property>
  <property name="kdenlive:original.meta.media.frame_rate_den">1</property>
  <property name="kdenlive:original.meta.media.colorspace">709</property>
  <property name="kdenlive:original.meta.media.color_trc">2</property>
  <property name="kdenlive:original.meta.media.has_b_frames">2</property>
  <property name="kdenlive:original.meta.media.width">3840</property>
  <property name="kdenlive:original.meta.media.height">2160</property>
  <property name="kdenlive:original.meta.media.color_range">mpeg</property>
  <property name="kdenlive:original.meta.media.top_field_first">0</property>
  <property name="kdenlive:original.meta.media.progressive">1</property>
  <property name="kdenlive:original.kdenlive:clip_type">2</property>
  <property name="kdenlive:original.kdenlive:folderid">653</property>
  <property name="kdenlive:original.kdenlive:id">673</property>
  <property name="kdenlive:original.kdenlive:file_size">119686</property>
  <property name="kdenlive:original.kdenlive:file_hash">ebbcce4c22e814accb12eb044c51000e</property>
  <property name="kdenlive:original.backup">1</property>
  <property name="xml">was here</property>
  <property name="meta.media.frame_rate_num">60</property>
  <property name="meta.media.frame_rate_den">1</property>
  <property name="meta.media.colorspace">601</property>
  <property name="meta.media.color_trc">2</property>
  <property name="meta.media.has_b_frames">0</property>
  <property name="meta.media.width">640</property>
  <property name="meta.media.height">360</property>
  <property name="meta.media.color_range">full</property>
  <property name="meta.media.top_field_first">0</property>
  <property name="meta.media.progressive">1</property>
  <property name="set.test_audio">1</property>
  <property name="set.test_image">0</property>
 </producer>
 <producer id="producer697" in="00:00:00.000" out="00:00:00.983">
  <property name="length">60</property>
  <property name="eof">pause</property>
  <property name="resource">/home/xiaoxiae/.cache/kdenlive/proxy/6c58776caff5177799d7d0e319f4f81c.mkv</property>
  <property name="audio_index">-1</property>
  <property name="video_index">0</property>
  <property name="mute_on_pause">0</property>
  <property name="mlt_service">avformat-novalidate</property>
  <property name="meta.media.nb_streams">1</property>
  <property name="meta.media.0.stream.type">video</property>
  <property name="meta.media.0.stream.frame_rate">60</property>
  <property name="meta.media.0.stream.sample_aspect_ratio">0</property>
  <property name="meta.media.0.codec.width">640</property>
  <property name="meta.media.0.codec.height">360</property>
  <property name="meta.media.0.codec.rotate">0</property>
  <property name="meta.media.0.codec.pix_fmt">yuvj420p</property>
  <property name="meta.media.0.codec.sample_aspect_ratio">0</property>
  <property name="meta.media.0.codec.colorspace">601</property>
  <property name="meta.media.0.codec.name">mjpeg</property>
  <property name="meta.media.0.codec.long_name">MJPEG (Motion JPEG)</property>
  <property name="meta.media.0.codec.bit_rate">0</property>
  <property name="meta.attr.0.stream.HANDLER_NAME.markup">VideoHandler</property>
  <property name="meta.attr.0.stream.VENDOR_ID.markup">[0][0][0][0]</property>
  <property name="meta.attr.0.stream.ENCODER.markup">Lavc60.3.100 mjpeg</property>
  <property name="meta.attr.0.stream.DURATION.markup">00:00:01.000000000</property>
  <property name="meta.attr.COMMENT.markup">Rendered with Manim Community v0.17.2</property>
  <property name="meta.attr.MAJOR_BRAND.markup">isom</property>
  <property name="meta.attr.MINOR_VERSION.markup">512</property>
  <property name="meta.attr.COMPATIBLE_BRANDS.markup">isomiso2avc1mp41</property>
  <property name="meta.attr.ENCODER.markup">Lavf60.3.100</property>
  <property name="seekable">1</property>
  <property name="meta.media.sample_aspect_num">1</property>
  <property name="meta.media.sample_aspect_den">1</property>
  <property name="aspect_ratio">1</property>
  <property name="format">3</property>
  <property name="kdenlive:clipname">28.mp4</property>
  <property name="kdenlive:clip_type">2</property>
  <property name="kdenlive:folderid">653</property>
  <property name="kdenlive:id">559</property>
  <property name="kdenlive:file_size">72583</property>
  <property name="kdenlive:file_hash">6c58776caff5177799d7d0e319f4f81c</property>
  <property name="kdenlive:proxy">/home/xiaoxiae/.cache/kdenlive/proxy/6c58776caff5177799d7d0e319f4f81c.mkv</property>
  <property name="kdenlive:originalurl">video/Deletion/28.mp4</property>
  <property name="kdenlive:original.mlt_type">producer</property>
  <property name="kdenlive:original.in">0</property>
  <property name="kdenlive:original.out">59</property>
  <property name="kdenlive:original.length">60</property>
  <property name="kdenlive:original.eof">pause</property>
  <property name="kdenlive:original.resource">video/Deletion/28.mp4</property>
  <property name="kdenlive:original.meta.media.nb_streams">1</property>
  <property name="kdenlive:original.meta.media.0.stream.type">video</property>
  <property name="kdenlive:original.meta.media.0.stream.frame_rate">60</property>
  <property name="kdenlive:original.meta.media.0.stream.sample_aspect_ratio">0</property>
  <property name="kdenlive:original.meta.media.0.codec.width">3840</property>
  <property name="kdenlive:original.meta.media.0.codec.height">2160</property>
  <property name="kdenlive:original.meta.media.0.codec.rotate">0</property>
  <property name="kdenlive:original.meta.media.0.codec.pix_fmt">yuv420p</property>
  <property name="kdenlive:original.meta.media.0.codec.sample_aspect_ratio">0</property>
  <property name="kdenlive:original.meta.media.0.codec.colorspace">709</property>
  <property name="kdenlive:original.meta.media.0.codec.name">h264</property>
  <property name="kdenlive:original.meta.media.0.codec.long_name">H.264 / AVC / MPEG-4 AVC / MPEG-4 part 10</property>
  <property name="kdenlive:original.meta.media.0.codec.bit_rate">567616</property>
  <property name="kdenlive:original.meta.attr.0.stream.handler_name.markup">VideoHandler</property>
  <property name="kdenlive:original.meta.attr.0.stream.vendor_id.markup">[0][0][0][0]</property>
  <property name="kdenlive:original.meta.attr.0.stream.encoder.markup">Lavc60.3.100 libx264</property>
  <property name="kdenlive:original.meta.attr.major_brand.markup">isom</property>
  <property name="kdenlive:original.meta.attr.minor_version.markup">512</property>
  <property name="kdenlive:original.meta.attr.compatible_brands.markup">isomiso2avc1mp41</property>
  <property name="kdenlive:original.meta.attr.encoder.markup">Lavf60.3.100</property>
  <property name="kdenlive:original.meta.attr.comment.markup">Rendered with Manim Community v0.17.2</property>
  <property name="kdenlive:original.seekable">1</property>
  <property name="kdenlive:original.width">3840</property>
  <property name="kdenlive:original.height">2160</property>
  <property name="kdenlive:original.meta.media.sample_aspect_num">1</property>
  <property name="kdenlive:original.meta.media.sample_aspect_den">1</property>
  <property name="kdenlive:original.aspect_ratio">1</property>
  <property name="kdenlive:original.format">3</property>
  <property name="kdenlive:original.audio_index">-1</property>
  <property name="kdenlive:original.video_index">0</property>
  <property name="kdenlive:original.mute_on_pause">0</property>
  <property name="kdenlive:original.mlt_service">avformat-novalidate</property>
  <property name="kdenlive:original.meta.media.frame_rate_num">60</property>
  <property name="kdenlive:original.meta.media.frame_rate_den">1</property>
  <property name="kdenlive:original.meta.media.colorspace">709</property>
  <property name="kdenlive:original.meta.media.color_trc">2</property>
  <property name="kdenlive:original.meta.media.has_b_frames">2</property>
  <property name="kdenlive:original.meta.media.width">3840</property>
  <property name="kdenlive:original.meta.media.height">2160</property>
  <property name="kdenlive:original.meta.media.color_range">mpeg</property>
  <property name="kdenlive:original.meta.media.top_field_first">0</property>
  <property name="kdenlive:original.meta.media.progressive">1</property>
  <property name="kdenlive:original.kdenlive:clip_type">2</property>
  <property name="kdenlive:original.kdenlive:folderid">653</property>
  <property name="kdenlive:original.kdenlive:id">674</property>
  <property name="kdenlive:original.kdenlive:file_size">72583</property>
  <property name="kdenlive:original.kdenlive:file_hash">6c58776caff5177799d7d0e319f4f81c</property>
  <property name="kdenlive:original.backup">1</property>
  <property name="xml">was here</property>
  <property name="meta.media.frame_rate_num">60</property>
  <property name="meta.media.frame_rate_den">1</property>
  <property name="meta.media.colorspace">601</property>
  <property name="meta.media.color_trc">2</property>
  <property name="meta.media.has_b_frames">0</property>
  <property name="meta.media.width">640</property>
  <property name="meta.media.height">360</property>
  <property name="meta.media.color_range">full</property>
  <property name="meta.media.top_field_first">0</property>
  <property name="meta.media.progressive">1</property>
  <property name="set.test_audio">1</property>
  <property name="set.test_image">0</property>
 </producer>
 <producer id="producer698" in="00:00:00.000" out="00:00:00.983">
  <property name="length">60</property>
  <property name="eof">pause</property>
  <property name="resource">/home/xiaoxiae/.cache/kdenlive/proxy/8a23e6d2beabbb78110c62a5eedaf18c.mkv</property>
  <property name="audio_index">-1</property>
  <property name="video_index">0</property>
  <property name="mute_on_pause">0</property>
  <property name="mlt_service">avformat-novalidate</property>
  <property name="meta.media.nb_streams">1</property>
  <property name="meta.media.0.stream.type">video</property>
  <property name="meta.media.0.stream.frame_rate">60</property>
  <property name="meta.media.0.stream.sample_aspect_ratio">0</property>
  <property name="meta.media.0.codec.width">640</property>
  <property name="meta.media.0.codec.height">360</property>
  <property name="meta.media.0.codec.rotate">0</property>
  <property name="meta.media.0.codec.pix_fmt">yuvj420p</property>
  <property name="meta.media.0.codec.sample_aspect_ratio">0</property>
  <property name="meta.media.0.codec.colorspace">601</property>
  <property name="meta.media.0.codec.name">mjpeg</property>
  <property name="meta.media.0.codec.long_name">MJPEG (Motion JPEG)</property>
  <property name="meta.media.0.codec.bit_rate">0</property>
  <property name="meta.attr.0.stream.HANDLER_NAME.markup">VideoHandler</property>
  <property name="meta.attr.0.stream.VENDOR_ID.markup">[0][0][0][0]</property>
  <property name="meta.attr.0.stream.ENCODER.markup">Lavc60.3.100 mjpeg</property>
  <property name="meta.attr.0.stream.DURATION.markup">00:00:01.000000000</property>
  <property name="meta.attr.COMMENT.markup">Rendered with Manim Community v0.17.2</property>
  <property name="meta.attr.MAJOR_BRAND.markup">isom</property>
  <property name="meta.attr.MINOR_VERSION.markup">512</property>
  <property name="meta.attr.COMPATIBLE_BRANDS.markup">isomiso2avc1mp41</property>
  <property name="meta.attr.ENCODER.markup">Lavf60.3.100</property>
  <property name="seekable">1</property>
  <property name="meta.media.sample_aspect_num">1</property>
  <property name="meta.media.sample_aspect_den">1</property>
  <property name="aspect_ratio">1</property>
  <property name="format">3</property>
  <property name="kdenlive:clipname">29.mp4</property>
  <property name="kdenlive:clip_type">2</property>
  <property name="kdenlive:folderid">653</property>
  <property name="kdenlive:id">560</property>
  <property name="kdenlive:file_size">91600</property>
  <property name="kdenlive:file_hash">8a23e6d2beabbb78110c62a5eedaf18c</property>
  <property name="kdenlive:proxy">/home/xiaoxiae/.cache/kdenlive/proxy/8a23e6d2beabbb78110c62a5eedaf18c.mkv</property>
  <property name="kdenlive:originalurl">video/Deletion/29.mp4</property>
  <property name="kdenlive:original.mlt_type">producer</property>
  <property name="kdenlive:original.in">0</property>
  <property name="kdenlive:original.out">59</property>
  <property name="kdenlive:original.length">60</property>
  <property name="kdenlive:original.eof">pause</property>
  <property name="kdenlive:original.resource">video/Deletion/29.mp4</property>
  <property name="kdenlive:original.meta.media.nb_streams">1</property>
  <property name="kdenlive:original.meta.media.0.stream.type">video</property>
  <property name="kdenlive:original.meta.media.0.stream.frame_rate">60</property>
  <property name="kdenlive:original.meta.media.0.stream.sample_aspect_ratio">0</property>
  <property name="kdenlive:original.meta.media.0.codec.width">3840</property>
  <property name="kdenlive:original.meta.media.0.codec.height">2160</property>
  <property name="kdenlive:original.meta.media.0.codec.rotate">0</property>
  <property name="kdenlive:original.meta.media.0.codec.pix_fmt">yuv420p</property>
  <property name="kdenlive:original.meta.media.0.codec.sample_aspect_ratio">0</property>
  <property name="kdenlive:original.meta.media.0.codec.colorspace">709</property>
  <property name="kdenlive:original.meta.media.0.codec.name">h264</property>
  <property name="kdenlive:original.meta.media.0.codec.long_name">H.264 / AVC / MPEG-4 AVC / MPEG-4 part 10</property>
  <property name="kdenlive:original.meta.media.0.codec.bit_rate">719880</property>
  <property name="kdenlive:original.meta.attr.0.stream.handler_name.markup">VideoHandler</property>
  <property name="kdenlive:original.meta.attr.0.stream.vendor_id.markup">[0][0][0][0]</property>
  <property name="kdenlive:original.meta.attr.0.stream.encoder.markup">Lavc60.3.100 libx264</property>
  <property name="kdenlive:original.meta.attr.major_brand.markup">isom</property>
  <property name="kdenlive:original.meta.attr.minor_version.markup">512</property>
  <property name="kdenlive:original.meta.attr.compatible_brands.markup">isomiso2avc1mp41</property>
  <property name="kdenlive:original.meta.attr.encoder.markup">Lavf60.3.100</property>
  <property name="kdenlive:original.meta.attr.comment.markup">Rendered with Manim Community v0.17.2</property>
  <property name="kdenlive:original.seekable">1</property>
  <property name="kdenlive:original.width">3840</property>
  <property name="kdenlive:original.height">2160</property>
  <property name="kdenlive:original.meta.media.sample_aspect_num">1</property>
  <property name="kdenlive:original.meta.media.sample_aspect_den">1</property>
  <property name="kdenlive:original.aspect_ratio">1</property>
  <property name="kdenlive:original.format">3</property>
  <property name="kdenlive:original.audio_index">-1</property>
  <property name="kdenlive:original.video_index">0</property>
  <property name="kdenlive:original.mute_on_pause">0</property>
  <property name="kdenlive:original.mlt_service">avformat-novalidate</property>
  <property name="kdenlive:original.meta.media.frame_rate_num">60</property>
  <property name="kdenlive:original.meta.media.frame_rate_den">1</property>
  <property name="kdenlive:original.meta.media.colorspace">709</property>
  <property name="kdenlive:original.meta.media.color_trc">2</property>
  <property name="kdenlive:original.meta.media.has_b_frames">2</property>
  <property name="kdenlive:original.meta.media.width">3840</property>
  <property name="kdenlive:original.meta.media.height">2160</property>
  <property name="kdenlive:original.meta.media.color_range">mpeg</property>
  <property name="kdenlive:original.meta.media.top_field_first">0</property>
  <property name="kdenlive:original.meta.media.progressive">1</property>
  <property name="kdenlive:original.kdenlive:clip_type">2</property>
  <property name="kdenlive:original.kdenlive:folderid">653</property>
  <property name="kdenlive:original.kdenlive:id">675</property>
  <property name="kdenlive:original.kdenlive:file_size">91600</property>
  <property name="kdenlive:original.kdenlive:file_hash">8a23e6d2beabbb78110c62a5eedaf18c</property>
  <property name="kdenlive:original.backup">1</property>
  <property name="xml">was here</property>
  <property name="meta.media.frame_rate_num">60</property>
  <property name="meta.media.frame_rate_den">1</property>
  <property name="meta.media.colorspace">601</property>
  <property name="meta.media.color_trc">2</property>
  <property name="meta.media.has_b_frames">0</property>
  <property name="meta.media.width">640</property>
  <property name="meta.media.height">360</property>
  <property name="meta.media.color_range">full</property>
  <property name="meta.media.top_field_first">0</property>
  <property name="meta.media.progressive">1</property>
  <property name="set.test_audio">1</property>
  <property name="set.test_image">0</property>
 </producer>
 <producer id="producer699" in="00:00:00.000" out="00:00:00.983">
  <property name="length">60</property>
  <property name="eof">pause</property>
  <property name="resource">/home/xiaoxiae/.cache/kdenlive/proxy/8dbca50b9f7e7f8e5ab6d8865b7fcf22.mkv</property>
  <property name="audio_index">-1</property>
  <property name="video_index">0</property>
  <property name="mute_on_pause">0</property>
  <property name="mlt_service">avformat-novalidate</property>
  <property name="meta.media.nb_streams">1</property>
  <property name="meta.media.0.stream.type">video</property>
  <property name="meta.media.0.stream.frame_rate">60</property>
  <property name="meta.media.0.stream.sample_aspect_ratio">0</property>
  <property name="meta.media.0.codec.width">640</property>
  <property name="meta.media.0.codec.height">360</property>
  <property name="meta.media.0.codec.rotate">0</property>
  <property name="meta.media.0.codec.pix_fmt">yuvj420p</property>
  <property name="meta.media.0.codec.sample_aspect_ratio">0</property>
  <property name="meta.media.0.codec.colorspace">601</property>
  <property name="meta.media.0.codec.name">mjpeg</property>
  <property name="meta.media.0.codec.long_name">MJPEG (Motion JPEG)</property>
  <property name="meta.media.0.codec.bit_rate">0</property>
  <property name="meta.attr.0.stream.HANDLER_NAME.markup">VideoHandler</property>
  <property name="meta.attr.0.stream.VENDOR_ID.markup">[0][0][0][0]</property>
  <property name="meta.attr.0.stream.ENCODER.markup">Lavc60.3.100 mjpeg</property>
  <property name="meta.attr.0.stream.DURATION.markup">00:00:01.000000000</property>
  <property name="meta.attr.COMMENT.markup">Rendered with Manim Community v0.17.2</property>
  <property name="meta.attr.MAJOR_BRAND.markup">isom</property>
  <property name="meta.attr.MINOR_VERSION.markup">512</property>
  <property name="meta.attr.COMPATIBLE_BRANDS.markup">isomiso2avc1mp41</property>
  <property name="meta.attr.ENCODER.markup">Lavf60.3.100</property>
  <property name="seekable">1</property>
  <property name="meta.media.sample_aspect_num">1</property>
  <property name="meta.media.sample_aspect_den">1</property>
  <property name="aspect_ratio">1</property>
  <property name="format">3</property>
  <property name="kdenlive:clipname">30.mp4</property>
  <property name="kdenlive:clip_type">2</property>
  <property name="kdenlive:folderid">653</property>
  <property name="kdenlive:id">562</property>
  <property name="kdenlive:file_size">145905</property>
  <property name="kdenlive:file_hash">8dbca50b9f7e7f8e5ab6d8865b7fcf22</property>
  <property name="kdenlive:proxy">/home/xiaoxiae/.cache/kdenlive/proxy/8dbca50b9f7e7f8e5ab6d8865b7fcf22.mkv</property>
  <property name="kdenlive:originalurl">video/Deletion/30.mp4</property>
  <property name="kdenlive:original.mlt_type">producer</property>
  <property name="kdenlive:original.in">0</property>
  <property name="kdenlive:original.out">59</property>
  <property name="kdenlive:original.length">60</property>
  <property name="kdenlive:original.eof">pause</property>
  <property name="kdenlive:original.resource">video/Deletion/30.mp4</property>
  <property name="kdenlive:original.meta.media.nb_streams">1</property>
  <property name="kdenlive:original.meta.media.0.stream.type">video</property>
  <property name="kdenlive:original.meta.media.0.stream.frame_rate">60</property>
  <property name="kdenlive:original.meta.media.0.stream.sample_aspect_ratio">0</property>
  <property name="kdenlive:original.meta.media.0.codec.width">3840</property>
  <property name="kdenlive:original.meta.media.0.codec.height">2160</property>
  <property name="kdenlive:original.meta.media.0.codec.rotate">0</property>
  <property name="kdenlive:original.meta.media.0.codec.pix_fmt">yuv420p</property>
  <property name="kdenlive:original.meta.media.0.codec.sample_aspect_ratio">0</property>
  <property name="kdenlive:original.meta.media.0.codec.colorspace">709</property>
  <property name="kdenlive:original.meta.media.0.codec.name">h264</property>
  <property name="kdenlive:original.meta.media.0.codec.long_name">H.264 / AVC / MPEG-4 AVC / MPEG-4 part 10</property>
  <property name="kdenlive:original.meta.media.0.codec.bit_rate">1154448</property>
  <property name="kdenlive:original.meta.attr.0.stream.handler_name.markup">VideoHandler</property>
  <property name="kdenlive:original.meta.attr.0.stream.vendor_id.markup">[0][0][0][0]</property>
  <property name="kdenlive:original.meta.attr.0.stream.encoder.markup">Lavc60.3.100 libx264</property>
  <property name="kdenlive:original.meta.attr.major_brand.markup">isom</property>
  <property name="kdenlive:original.meta.attr.minor_version.markup">512</property>
  <property name="kdenlive:original.meta.attr.compatible_brands.markup">isomiso2avc1mp41</property>
  <property name="kdenlive:original.meta.attr.encoder.markup">Lavf60.3.100</property>
  <property name="kdenlive:original.meta.attr.comment.markup">Rendered with Manim Community v0.17.2</property>
  <property name="kdenlive:original.seekable">1</property>
  <property name="kdenlive:original.width">3840</property>
  <property name="kdenlive:original.height">2160</property>
  <property name="kdenlive:original.meta.media.sample_aspect_num">1</property>
  <property name="kdenlive:original.meta.media.sample_aspect_den">1</property>
  <property name="kdenlive:original.aspect_ratio">1</property>
  <property name="kdenlive:original.format">3</property>
  <property name="kdenlive:original.audio_index">-1</property>
  <property name="kdenlive:original.video_index">0</property>
  <property name="kdenlive:original.mute_on_pause">0</property>
  <property name="kdenlive:original.mlt_service">avformat-novalidate</property>
  <property name="kdenlive:original.meta.media.frame_rate_num">60</property>
  <property name="kdenlive:original.meta.media.frame_rate_den">1</property>
  <property name="kdenlive:original.meta.media.colorspace">709</property>
  <property name="kdenlive:original.meta.media.color_trc">2</property>
  <property name="kdenlive:original.meta.media.has_b_frames">2</property>
  <property name="kdenlive:original.meta.media.width">3840</property>
  <property name="kdenlive:original.meta.media.height">2160</property>
  <property name="kdenlive:original.meta.media.color_range">mpeg</property>
  <property name="kdenlive:original.meta.media.top_field_first">0</property>
  <property name="kdenlive:original.meta.media.progressive">1</property>
  <property name="kdenlive:original.kdenlive:clip_type">2</property>
  <property name="kdenlive:original.kdenlive:folderid">653</property>
  <property name="kdenlive:original.kdenlive:id">677</property>
  <property name="kdenlive:original.kdenlive:file_size">145905</property>
  <property name="kdenlive:original.kdenlive:file_hash">8dbca50b9f7e7f8e5ab6d8865b7fcf22</property>
  <property name="kdenlive:original.backup">1</property>
  <property name="xml">was here</property>
  <property name="meta.media.frame_rate_num">60</property>
  <property name="meta.media.frame_rate_den">1</property>
  <property name="meta.media.colorspace">601</property>
  <property name="meta.media.color_trc">2</property>
  <property name="meta.media.has_b_frames">0</property>
  <property name="meta.media.width">640</property>
  <property name="meta.media.height">360</property>
  <property name="meta.media.color_range">full</property>
  <property name="meta.media.top_field_first">0</property>
  <property name="meta.media.progressive">1</property>
  <property name="set.test_audio">1</property>
  <property name="set.test_image">0</property>
 </producer>
 <producer id="producer700" in="00:00:00.000" out="00:00:01.483">
  <property name="length">90</property>
  <property name="eof">pause</property>
  <property name="resource">/home/xiaoxiae/.cache/kdenlive/proxy/11d83a81bac23f7f938bb0960a156c74.mkv</property>
  <property name="audio_index">-1</property>
  <property name="video_index">0</property>
  <property name="mute_on_pause">0</property>
  <property name="mlt_service">avformat-novalidate</property>
  <property name="meta.media.nb_streams">1</property>
  <property name="meta.media.0.stream.type">video</property>
  <property name="meta.media.0.stream.frame_rate">60</property>
  <property name="meta.media.0.stream.sample_aspect_ratio">0</property>
  <property name="meta.media.0.codec.width">640</property>
  <property name="meta.media.0.codec.height">360</property>
  <property name="meta.media.0.codec.rotate">0</property>
  <property name="meta.media.0.codec.pix_fmt">yuvj420p</property>
  <property name="meta.media.0.codec.sample_aspect_ratio">0</property>
  <property name="meta.media.0.codec.colorspace">601</property>
  <property name="meta.media.0.codec.name">mjpeg</property>
  <property name="meta.media.0.codec.long_name">MJPEG (Motion JPEG)</property>
  <property name="meta.media.0.codec.bit_rate">0</property>
  <property name="meta.attr.0.stream.HANDLER_NAME.markup">VideoHandler</property>
  <property name="meta.attr.0.stream.VENDOR_ID.markup">[0][0][0][0]</property>
  <property name="meta.attr.0.stream.ENCODER.markup">Lavc60.3.100 mjpeg</property>
  <property name="meta.attr.0.stream.DURATION.markup">00:00:01.500000000</property>
  <property name="meta.attr.COMMENT.markup">Rendered with Manim Community v0.17.2</property>
  <property name="meta.attr.MAJOR_BRAND.markup">isom</property>
  <property name="meta.attr.MINOR_VERSION.markup">512</property>
  <property name="meta.attr.COMPATIBLE_BRANDS.markup">isomiso2avc1mp41</property>
  <property name="meta.attr.ENCODER.markup">Lavf60.3.100</property>
  <property name="seekable">1</property>
  <property name="meta.media.sample_aspect_num">1</property>
  <property name="meta.media.sample_aspect_den">1</property>
  <property name="aspect_ratio">1</property>
  <property name="format">3</property>
  <property name="kdenlive:clipname">31.mp4</property>
  <property name="kdenlive:clip_type">2</property>
  <property name="kdenlive:folderid">653</property>
  <property name="kdenlive:id">563</property>
  <property name="kdenlive:file_size">171907</property>
  <property name="kdenlive:file_hash">11d83a81bac23f7f938bb0960a156c74</property>
  <property name="kdenlive:proxy">/home/xiaoxiae/.cache/kdenlive/proxy/11d83a81bac23f7f938bb0960a156c74.mkv</property>
  <property name="kdenlive:originalurl">video/Deletion/31.mp4</property>
  <property name="kdenlive:original.mlt_type">producer</property>
  <property name="kdenlive:original.in">0</property>
  <property name="kdenlive:original.out">89</property>
  <property name="kdenlive:original.length">90</property>
  <property name="kdenlive:original.eof">pause</property>
  <property name="kdenlive:original.resource">video/Deletion/31.mp4</property>
  <property name="kdenlive:original.meta.media.nb_streams">1</property>
  <property name="kdenlive:original.meta.media.0.stream.type">video</property>
  <property name="kdenlive:original.meta.media.0.stream.frame_rate">60</property>
  <property name="kdenlive:original.meta.media.0.stream.sample_aspect_ratio">0</property>
  <property name="kdenlive:original.meta.media.0.codec.width">3840</property>
  <property name="kdenlive:original.meta.media.0.codec.height">2160</property>
  <property name="kdenlive:original.meta.media.0.codec.rotate">0</property>
  <property name="kdenlive:original.meta.media.0.codec.pix_fmt">yuv420p</property>
  <property name="kdenlive:original.meta.media.0.codec.sample_aspect_ratio">0</property>
  <property name="kdenlive:original.meta.media.0.codec.colorspace">709</property>
  <property name="kdenlive:original.meta.media.0.codec.name">h264</property>
  <property name="kdenlive:original.meta.media.0.codec.long_name">H.264 / AVC / MPEG-4 AVC / MPEG-4 part 10</property>
  <property name="kdenlive:original.meta.media.0.codec.bit_rate">906176</property>
  <property name="kdenlive:original.meta.attr.0.stream.handler_name.markup">VideoHandler</property>
  <property name="kdenlive:original.meta.attr.0.stream.vendor_id.markup">[0][0][0][0]</property>
  <property name="kdenlive:original.meta.attr.0.stream.encoder.markup">Lavc60.3.100 libx264</property>
  <property name="kdenlive:original.meta.attr.major_brand.markup">isom</property>
  <property name="kdenlive:original.meta.attr.minor_version.markup">512</property>
  <property name="kdenlive:original.meta.attr.compatible_brands.markup">isomiso2avc1mp41</property>
  <property name="kdenlive:original.meta.attr.encoder.markup">Lavf60.3.100</property>
  <property name="kdenlive:original.meta.attr.comment.markup">Rendered with Manim Community v0.17.2</property>
  <property name="kdenlive:original.seekable">1</property>
  <property name="kdenlive:original.width">3840</property>
  <property name="kdenlive:original.height">2160</property>
  <property name="kdenlive:original.meta.media.sample_aspect_num">1</property>
  <property name="kdenlive:original.meta.media.sample_aspect_den">1</property>
  <property name="kdenlive:original.aspect_ratio">1</property>
  <property name="kdenlive:original.format">3</property>
  <property name="kdenlive:original.audio_index">-1</property>
  <property name="kdenlive:original.video_index">0</property>
  <property name="kdenlive:original.mute_on_pause">0</property>
  <property name="kdenlive:original.mlt_service">avformat-novalidate</property>
  <property name="kdenlive:original.meta.media.frame_rate_num">60</property>
  <property name="kdenlive:original.meta.media.frame_rate_den">1</property>
  <property name="kdenlive:original.meta.media.colorspace">709</property>
  <property name="kdenlive:original.meta.media.color_trc">2</property>
  <property name="kdenlive:original.meta.media.has_b_frames">2</property>
  <property name="kdenlive:original.meta.media.width">3840</property>
  <property name="kdenlive:original.meta.media.height">2160</property>
  <property name="kdenlive:original.meta.media.color_range">mpeg</property>
  <property name="kdenlive:original.meta.media.top_field_first">0</property>
  <property name="kdenlive:original.meta.media.progressive">1</property>
  <property name="kdenlive:original.kdenlive:clip_type">2</property>
  <property name="kdenlive:original.kdenlive:folderid">653</property>
  <property name="kdenlive:original.kdenlive:id">678</property>
  <property name="kdenlive:original.kdenlive:file_size">171907</property>
  <property name="kdenlive:original.kdenlive:file_hash">11d83a81bac23f7f938bb0960a156c74</property>
  <property name="kdenlive:original.backup">1</property>
  <property name="xml">was here</property>
  <property name="meta.media.frame_rate_num">60</property>
  <property name="meta.media.frame_rate_den">1</property>
  <property name="meta.media.colorspace">601</property>
  <property name="meta.media.color_trc">2</property>
  <property name="meta.media.has_b_frames">0</property>
  <property name="meta.media.width">640</property>
  <property name="meta.media.height">360</property>
  <property name="meta.media.color_range">full</property>
  <property name="meta.media.top_field_first">0</property>
  <property name="meta.media.progressive">1</property>
  <property name="set.test_audio">1</property>
  <property name="set.test_image">0</property>
 </producer>
 <producer id="producer701" in="00:00:00.000" out="00:00:00.983">
  <property name="length">60</property>
  <property name="eof">pause</property>
  <property name="resource">/home/xiaoxiae/.cache/kdenlive/proxy/c61bf56e1b779519eb74946b9a03d2bc.mkv</property>
  <property name="audio_index">-1</property>
  <property name="video_index">0</property>
  <property name="mute_on_pause">0</property>
  <property name="mlt_service">avformat-novalidate</property>
  <property name="meta.media.nb_streams">1</property>
  <property name="meta.media.0.stream.type">video</property>
  <property name="meta.media.0.stream.frame_rate">60</property>
  <property name="meta.media.0.stream.sample_aspect_ratio">0</property>
  <property name="meta.media.0.codec.width">640</property>
  <property name="meta.media.0.codec.height">360</property>
  <property name="meta.media.0.codec.rotate">0</property>
  <property name="meta.media.0.codec.pix_fmt">yuvj420p</property>
  <property name="meta.media.0.codec.sample_aspect_ratio">0</property>
  <property name="meta.media.0.codec.colorspace">601</property>
  <property name="meta.media.0.codec.name">mjpeg</property>
  <property name="meta.media.0.codec.long_name">MJPEG (Motion JPEG)</property>
  <property name="meta.media.0.codec.bit_rate">0</property>
  <property name="meta.attr.0.stream.HANDLER_NAME.markup">VideoHandler</property>
  <property name="meta.attr.0.stream.VENDOR_ID.markup">[0][0][0][0]</property>
  <property name="meta.attr.0.stream.ENCODER.markup">Lavc60.3.100 mjpeg</property>
  <property name="meta.attr.0.stream.DURATION.markup">00:00:01.000000000</property>
  <property name="meta.attr.COMMENT.markup">Rendered with Manim Community v0.17.2</property>
  <property name="meta.attr.MAJOR_BRAND.markup">isom</property>
  <property name="meta.attr.MINOR_VERSION.markup">512</property>
  <property name="meta.attr.COMPATIBLE_BRANDS.markup">isomiso2avc1mp41</property>
  <property name="meta.attr.ENCODER.markup">Lavf60.3.100</property>
  <property name="seekable">1</property>
  <property name="meta.media.sample_aspect_num">1</property>
  <property name="meta.media.sample_aspect_den">1</property>
  <property name="aspect_ratio">1</property>
  <property name="format">3</property>
  <property name="kdenlive:clipname">32.mp4</property>
  <property name="kdenlive:clip_type">2</property>
  <property name="kdenlive:folderid">653</property>
  <property name="kdenlive:id">564</property>
  <property name="kdenlive:file_size">75175</property>
  <property name="kdenlive:file_hash">c61bf56e1b779519eb74946b9a03d2bc</property>
  <property name="kdenlive:proxy">/home/xiaoxiae/.cache/kdenlive/proxy/c61bf56e1b779519eb74946b9a03d2bc.mkv</property>
  <property name="kdenlive:originalurl">video/Deletion/32.mp4</property>
  <property name="kdenlive:original.mlt_type">producer</property>
  <property name="kdenlive:original.in">0</property>
  <property name="kdenlive:original.out">59</property>
  <property name="kdenlive:original.length">60</property>
  <property name="kdenlive:original.eof">pause</property>
  <property name="kdenlive:original.resource">video/Deletion/32.mp4</property>
  <property name="kdenlive:original.meta.media.nb_streams">1</property>
  <property name="kdenlive:original.meta.media.0.stream.type">video</property>
  <property name="kdenlive:original.meta.media.0.stream.frame_rate">60</property>
  <property name="kdenlive:original.meta.media.0.stream.sample_aspect_ratio">0</property>
  <property name="kdenlive:original.meta.media.0.codec.width">3840</property>
  <property name="kdenlive:original.meta.media.0.codec.height">2160</property>
  <property name="kdenlive:original.meta.media.0.codec.rotate">0</property>
  <property name="kdenlive:original.meta.media.0.codec.pix_fmt">yuv420p</property>
  <property name="kdenlive:original.meta.media.0.codec.sample_aspect_ratio">0</property>
  <property name="kdenlive:original.meta.media.0.codec.colorspace">709</property>
  <property name="kdenlive:original.meta.media.0.codec.name">h264</property>
  <property name="kdenlive:original.meta.media.0.codec.long_name">H.264 / AVC / MPEG-4 AVC / MPEG-4 part 10</property>
  <property name="kdenlive:original.meta.media.0.codec.bit_rate">588352</property>
  <property name="kdenlive:original.meta.attr.0.stream.handler_name.markup">VideoHandler</property>
  <property name="kdenlive:original.meta.attr.0.stream.vendor_id.markup">[0][0][0][0]</property>
  <property name="kdenlive:original.meta.attr.0.stream.encoder.markup">Lavc60.3.100 libx264</property>
  <property name="kdenlive:original.meta.attr.major_brand.markup">isom</property>
  <property name="kdenlive:original.meta.attr.minor_version.markup">512</property>
  <property name="kdenlive:original.meta.attr.compatible_brands.markup">isomiso2avc1mp41</property>
  <property name="kdenlive:original.meta.attr.encoder.markup">Lavf60.3.100</property>
  <property name="kdenlive:original.meta.attr.comment.markup">Rendered with Manim Community v0.17.2</property>
  <property name="kdenlive:original.seekable">1</property>
  <property name="kdenlive:original.width">3840</property>
  <property name="kdenlive:original.height">2160</property>
  <property name="kdenlive:original.meta.media.sample_aspect_num">1</property>
  <property name="kdenlive:original.meta.media.sample_aspect_den">1</property>
  <property name="kdenlive:original.aspect_ratio">1</property>
  <property name="kdenlive:original.format">3</property>
  <property name="kdenlive:original.audio_index">-1</property>
  <property name="kdenlive:original.video_index">0</property>
  <property name="kdenlive:original.mute_on_pause">0</property>
  <property name="kdenlive:original.mlt_service">avformat-novalidate</property>
  <property name="kdenlive:original.meta.media.frame_rate_num">60</property>
  <property name="kdenlive:original.meta.media.frame_rate_den">1</property>
  <property name="kdenlive:original.meta.media.colorspace">709</property>
  <property name="kdenlive:original.meta.media.color_trc">2</property>
  <property name="kdenlive:original.meta.media.has_b_frames">2</property>
  <property name="kdenlive:original.meta.media.width">3840</property>
  <property name="kdenlive:original.meta.media.height">2160</property>
  <property name="kdenlive:original.meta.media.color_range">mpeg</property>
  <property name="kdenlive:original.meta.media.top_field_first">0</property>
  <property name="kdenlive:original.meta.media.progressive">1</property>
  <property name="kdenlive:original.kdenlive:clip_type">2</property>
  <property name="kdenlive:original.kdenlive:folderid">653</property>
  <property name="kdenlive:original.kdenlive:id">679</property>
  <property name="kdenlive:original.kdenlive:file_size">75175</property>
  <property name="kdenlive:original.kdenlive:file_hash">c61bf56e1b779519eb74946b9a03d2bc</property>
  <property name="kdenlive:original.backup">1</property>
  <property name="xml">was here</property>
  <property name="meta.media.frame_rate_num">60</property>
  <property name="meta.media.frame_rate_den">1</property>
  <property name="meta.media.colorspace">601</property>
  <property name="meta.media.color_trc">2</property>
  <property name="meta.media.has_b_frames">0</property>
  <property name="meta.media.width">640</property>
  <property name="meta.media.height">360</property>
  <property name="meta.media.color_range">full</property>
  <property name="meta.media.top_field_first">0</property>
  <property name="meta.media.progressive">1</property>
  <property name="set.test_audio">1</property>
  <property name="set.test_image">0</property>
 </producer>
 <producer id="producer702" in="00:00:00.000" out="00:00:00.983">
  <property name="length">60</property>
  <property name="eof">pause</property>
  <property name="resource">/home/xiaoxiae/.cache/kdenlive/proxy/239d58d1a46d89623554495767fcb60f.mkv</property>
  <property name="audio_index">-1</property>
  <property name="video_index">0</property>
  <property name="mute_on_pause">0</property>
  <property name="mlt_service">avformat-novalidate</property>
  <property name="meta.media.nb_streams">1</property>
  <property name="meta.media.0.stream.type">video</property>
  <property name="meta.media.0.stream.frame_rate">60</property>
  <property name="meta.media.0.stream.sample_aspect_ratio">0</property>
  <property name="meta.media.0.codec.width">640</property>
  <property name="meta.media.0.codec.height">360</property>
  <property name="meta.media.0.codec.rotate">0</property>
  <property name="meta.media.0.codec.pix_fmt">yuvj420p</property>
  <property name="meta.media.0.codec.sample_aspect_ratio">0</property>
  <property name="meta.media.0.codec.colorspace">601</property>
  <property name="meta.media.0.codec.name">mjpeg</property>
  <property name="meta.media.0.codec.long_name">MJPEG (Motion JPEG)</property>
  <property name="meta.media.0.codec.bit_rate">0</property>
  <property name="meta.attr.0.stream.HANDLER_NAME.markup">VideoHandler</property>
  <property name="meta.attr.0.stream.VENDOR_ID.markup">[0][0][0][0]</property>
  <property name="meta.attr.0.stream.ENCODER.markup">Lavc60.3.100 mjpeg</property>
  <property name="meta.attr.0.stream.DURATION.markup">00:00:01.000000000</property>
  <property name="meta.attr.COMMENT.markup">Rendered with Manim Community v0.17.2</property>
  <property name="meta.attr.MAJOR_BRAND.markup">isom</property>
  <property name="meta.attr.MINOR_VERSION.markup">512</property>
  <property name="meta.attr.COMPATIBLE_BRANDS.markup">isomiso2avc1mp41</property>
  <property name="meta.attr.ENCODER.markup">Lavf60.3.100</property>
  <property name="seekable">1</property>
  <property name="meta.media.sample_aspect_num">1</property>
  <property name="meta.media.sample_aspect_den">1</property>
  <property name="aspect_ratio">1</property>
  <property name="format">3</property>
  <property name="kdenlive:clipname">33.mp4</property>
  <property name="kdenlive:clip_type">2</property>
  <property name="kdenlive:folderid">653</property>
  <property name="kdenlive:id">566</property>
  <property name="kdenlive:file_size">437114</property>
  <property name="kdenlive:file_hash">239d58d1a46d89623554495767fcb60f</property>
  <property name="kdenlive:proxy">/home/xiaoxiae/.cache/kdenlive/proxy/239d58d1a46d89623554495767fcb60f.mkv</property>
  <property name="kdenlive:originalurl">video/Deletion/33.mp4</property>
  <property name="kdenlive:original.mlt_type">producer</property>
  <property name="kdenlive:original.in">0</property>
  <property name="kdenlive:original.out">59</property>
  <property name="kdenlive:original.length">60</property>
  <property name="kdenlive:original.eof">pause</property>
  <property name="kdenlive:original.resource">video/Deletion/33.mp4</property>
  <property name="kdenlive:original.meta.media.nb_streams">1</property>
  <property name="kdenlive:original.meta.media.0.stream.type">video</property>
  <property name="kdenlive:original.meta.media.0.stream.frame_rate">60</property>
  <property name="kdenlive:original.meta.media.0.stream.sample_aspect_ratio">0</property>
  <property name="kdenlive:original.meta.media.0.codec.width">3840</property>
  <property name="kdenlive:original.meta.media.0.codec.height">2160</property>
  <property name="kdenlive:original.meta.media.0.codec.rotate">0</property>
  <property name="kdenlive:original.meta.media.0.codec.pix_fmt">yuv420p</property>
  <property name="kdenlive:original.meta.media.0.codec.sample_aspect_ratio">0</property>
  <property name="kdenlive:original.meta.media.0.codec.colorspace">709</property>
  <property name="kdenlive:original.meta.media.0.codec.name">h264</property>
  <property name="kdenlive:original.meta.media.0.codec.long_name">H.264 / AVC / MPEG-4 AVC / MPEG-4 part 10</property>
  <property name="kdenlive:original.meta.media.0.codec.bit_rate">3485400</property>
  <property name="kdenlive:original.meta.attr.0.stream.handler_name.markup">VideoHandler</property>
  <property name="kdenlive:original.meta.attr.0.stream.vendor_id.markup">[0][0][0][0]</property>
  <property name="kdenlive:original.meta.attr.0.stream.encoder.markup">Lavc60.3.100 libx264</property>
  <property name="kdenlive:original.meta.attr.major_brand.markup">isom</property>
  <property name="kdenlive:original.meta.attr.minor_version.markup">512</property>
  <property name="kdenlive:original.meta.attr.compatible_brands.markup">isomiso2avc1mp41</property>
  <property name="kdenlive:original.meta.attr.encoder.markup">Lavf60.3.100</property>
  <property name="kdenlive:original.meta.attr.comment.markup">Rendered with Manim Community v0.17.2</property>
  <property name="kdenlive:original.seekable">1</property>
  <property name="kdenlive:original.width">3840</property>
  <property name="kdenlive:original.height">2160</property>
  <property name="kdenlive:original.meta.media.sample_aspect_num">1</property>
  <property name="kdenlive:original.meta.media.sample_aspect_den">1</property>
  <property name="kdenlive:original.aspect_ratio">1</property>
  <property name="kdenlive:original.format">3</property>
  <property name="kdenlive:original.audio_index">-1</property>
  <property name="kdenlive:original.video_index">0</property>
  <property name="kdenlive:original.mute_on_pause">0</property>
  <property name="kdenlive:original.mlt_service">avformat-novalidate</property>
  <property name="kdenlive:original.meta.media.frame_rate_num">60</property>
  <property name="kdenlive:original.meta.media.frame_rate_den">1</property>
  <property name="kdenlive:original.meta.media.colorspace">709</property>
  <property name="kdenlive:original.meta.media.color_trc">2</property>
  <property name="kdenlive:original.meta.media.has_b_frames">2</property>
  <property name="kdenlive:original.meta.media.width">3840</property>
  <property name="kdenlive:original.meta.media.height">2160</property>
  <property name="kdenlive:original.meta.media.color_range">mpeg</property>
  <property name="kdenlive:original.meta.media.top_field_first">0</property>
  <property name="kdenlive:original.meta.media.progressive">1</property>
  <property name="kdenlive:original.kdenlive:clip_type">2</property>
  <property name="kdenlive:original.kdenlive:folderid">653</property>
  <property name="kdenlive:original.kdenlive:id">680</property>
  <property name="kdenlive:original.kdenlive:file_size">437114</property>
  <property name="kdenlive:original.kdenlive:file_hash">239d58d1a46d89623554495767fcb60f</property>
  <property name="kdenlive:original.backup">1</property>
  <property name="xml">was here</property>
  <property name="meta.media.frame_rate_num">60</property>
  <property name="meta.media.frame_rate_den">1</property>
  <property name="meta.media.colorspace">601</property>
  <property name="meta.media.color_trc">2</property>
  <property name="meta.media.has_b_frames">0</property>
  <property name="meta.media.width">640</property>
  <property name="meta.media.height">360</property>
  <property name="meta.media.color_range">full</property>
  <property name="meta.media.top_field_first">0</property>
  <property name="meta.media.progressive">1</property>
  <property name="set.test_audio">1</property>
  <property name="set.test_image">0</property>
 </producer>
 <producer id="producer703" in="00:00:00.000" out="00:00:00.983">
  <property name="length">60</property>
  <property name="eof">pause</property>
  <property name="resource">/home/xiaoxiae/.cache/kdenlive/proxy/fe9a19e906e467466af0fe2cd42f99c0.mkv</property>
  <property name="audio_index">-1</property>
  <property name="video_index">0</property>
  <property name="mute_on_pause">0</property>
  <property name="mlt_service">avformat-novalidate</property>
  <property name="meta.media.nb_streams">1</property>
  <property name="meta.media.0.stream.type">video</property>
  <property name="meta.media.0.stream.frame_rate">60</property>
  <property name="meta.media.0.stream.sample_aspect_ratio">0</property>
  <property name="meta.media.0.codec.width">640</property>
  <property name="meta.media.0.codec.height">360</property>
  <property name="meta.media.0.codec.rotate">0</property>
  <property name="meta.media.0.codec.pix_fmt">yuvj420p</property>
  <property name="meta.media.0.codec.sample_aspect_ratio">0</property>
  <property name="meta.media.0.codec.colorspace">601</property>
  <property name="meta.media.0.codec.name">mjpeg</property>
  <property name="meta.media.0.codec.long_name">MJPEG (Motion JPEG)</property>
  <property name="meta.media.0.codec.bit_rate">0</property>
  <property name="meta.attr.0.stream.HANDLER_NAME.markup">VideoHandler</property>
  <property name="meta.attr.0.stream.VENDOR_ID.markup">[0][0][0][0]</property>
  <property name="meta.attr.0.stream.ENCODER.markup">Lavc60.3.100 mjpeg</property>
  <property name="meta.attr.0.stream.DURATION.markup">00:00:01.000000000</property>
  <property name="meta.attr.COMMENT.markup">Rendered with Manim Community v0.17.2</property>
  <property name="meta.attr.MAJOR_BRAND.markup">isom</property>
  <property name="meta.attr.MINOR_VERSION.markup">512</property>
  <property name="meta.attr.COMPATIBLE_BRANDS.markup">isomiso2avc1mp41</property>
  <property name="meta.attr.ENCODER.markup">Lavf60.3.100</property>
  <property name="seekable">1</property>
  <property name="meta.media.sample_aspect_num">1</property>
  <property name="meta.media.sample_aspect_den">1</property>
  <property name="aspect_ratio">1</property>
  <property name="format">3</property>
  <property name="kdenlive:clipname">34.mp4</property>
  <property name="kdenlive:clip_type">2</property>
  <property name="kdenlive:folderid">653</property>
  <property name="kdenlive:id">567</property>
  <property name="kdenlive:file_size">80903</property>
  <property name="kdenlive:file_hash">fe9a19e906e467466af0fe2cd42f99c0</property>
  <property name="kdenlive:proxy">/home/xiaoxiae/.cache/kdenlive/proxy/fe9a19e906e467466af0fe2cd42f99c0.mkv</property>
  <property name="kdenlive:originalurl">video/Deletion/34.mp4</property>
  <property name="kdenlive:original.mlt_type">producer</property>
  <property name="kdenlive:original.in">0</property>
  <property name="kdenlive:original.out">59</property>
  <property name="kdenlive:original.length">60</property>
  <property name="kdenlive:original.eof">pause</property>
  <property name="kdenlive:original.resource">video/Deletion/34.mp4</property>
  <property name="kdenlive:original.meta.media.nb_streams">1</property>
  <property name="kdenlive:original.meta.media.0.stream.type">video</property>
  <property name="kdenlive:original.meta.media.0.stream.frame_rate">60</property>
  <property name="kdenlive:original.meta.media.0.stream.sample_aspect_ratio">0</property>
  <property name="kdenlive:original.meta.media.0.codec.width">3840</property>
  <property name="kdenlive:original.meta.media.0.codec.height">2160</property>
  <property name="kdenlive:original.meta.media.0.codec.rotate">0</property>
  <property name="kdenlive:original.meta.media.0.codec.pix_fmt">yuv420p</property>
  <property name="kdenlive:original.meta.media.0.codec.sample_aspect_ratio">0</property>
  <property name="kdenlive:original.meta.media.0.codec.colorspace">709</property>
  <property name="kdenlive:original.meta.media.0.codec.name">h264</property>
  <property name="kdenlive:original.meta.media.0.codec.long_name">H.264 / AVC / MPEG-4 AVC / MPEG-4 part 10</property>
  <property name="kdenlive:original.meta.media.0.codec.bit_rate">634176</property>
  <property name="kdenlive:original.meta.attr.0.stream.handler_name.markup">VideoHandler</property>
  <property name="kdenlive:original.meta.attr.0.stream.vendor_id.markup">[0][0][0][0]</property>
  <property name="kdenlive:original.meta.attr.0.stream.encoder.markup">Lavc60.3.100 libx264</property>
  <property name="kdenlive:original.meta.attr.major_brand.markup">isom</property>
  <property name="kdenlive:original.meta.attr.minor_version.markup">512</property>
  <property name="kdenlive:original.meta.attr.compatible_brands.markup">isomiso2avc1mp41</property>
  <property name="kdenlive:original.meta.attr.encoder.markup">Lavf60.3.100</property>
  <property name="kdenlive:original.meta.attr.comment.markup">Rendered with Manim Community v0.17.2</property>
  <property name="kdenlive:original.seekable">1</property>
  <property name="kdenlive:original.width">3840</property>
  <property name="kdenlive:original.height">2160</property>
  <property name="kdenlive:original.meta.media.sample_aspect_num">1</property>
  <property name="kdenlive:original.meta.media.sample_aspect_den">1</property>
  <property name="kdenlive:original.aspect_ratio">1</property>
  <property name="kdenlive:original.format">3</property>
  <property name="kdenlive:original.audio_index">-1</property>
  <property name="kdenlive:original.video_index">0</property>
  <property name="kdenlive:original.mute_on_pause">0</property>
  <property name="kdenlive:original.mlt_service">avformat-novalidate</property>
  <property name="kdenlive:original.meta.media.frame_rate_num">60</property>
  <property name="kdenlive:original.meta.media.frame_rate_den">1</property>
  <property name="kdenlive:original.meta.media.colorspace">709</property>
  <property name="kdenlive:original.meta.media.color_trc">2</property>
  <property name="kdenlive:original.meta.media.has_b_frames">2</property>
  <property name="kdenlive:original.meta.media.width">3840</property>
  <property name="kdenlive:original.meta.media.height">2160</property>
  <property name="kdenlive:original.meta.media.color_range">mpeg</property>
  <property name="kdenlive:original.meta.media.top_field_first">0</property>
  <property name="kdenlive:original.meta.media.progressive">1</property>
  <property name="kdenlive:original.kdenlive:clip_type">2</property>
  <property name="kdenlive:original.kdenlive:folderid">653</property>
  <property name="kdenlive:original.kdenlive:id">681</property>
  <property name="kdenlive:original.kdenlive:file_size">80903</property>
  <property name="kdenlive:original.kdenlive:file_hash">fe9a19e906e467466af0fe2cd42f99c0</property>
  <property name="kdenlive:original.backup">1</property>
  <property name="xml">was here</property>
  <property name="meta.media.frame_rate_num">60</property>
  <property name="meta.media.frame_rate_den">1</property>
  <property name="meta.media.colorspace">601</property>
  <property name="meta.media.color_trc">2</property>
  <property name="meta.media.has_b_frames">0</property>
  <property name="meta.media.width">640</property>
  <property name="meta.media.height">360</property>
  <property name="meta.media.color_range">full</property>
  <property name="meta.media.top_field_first">0</property>
  <property name="meta.media.progressive">1</property>
  <property name="set.test_audio">1</property>
  <property name="set.test_image">0</property>
 </producer>
 <producer id="producer704" in="00:00:00.000" out="00:00:01.483">
  <property name="length">90</property>
  <property name="eof">pause</property>
  <property name="resource">/home/xiaoxiae/.cache/kdenlive/proxy/29d0230bf82c4a0775cfe30f34249d0e.mkv</property>
  <property name="audio_index">-1</property>
  <property name="video_index">0</property>
  <property name="mute_on_pause">0</property>
  <property name="mlt_service">avformat-novalidate</property>
  <property name="meta.media.nb_streams">1</property>
  <property name="meta.media.0.stream.type">video</property>
  <property name="meta.media.0.stream.frame_rate">60</property>
  <property name="meta.media.0.stream.sample_aspect_ratio">0</property>
  <property name="meta.media.0.codec.width">640</property>
  <property name="meta.media.0.codec.height">360</property>
  <property name="meta.media.0.codec.rotate">0</property>
  <property name="meta.media.0.codec.pix_fmt">yuvj420p</property>
  <property name="meta.media.0.codec.sample_aspect_ratio">0</property>
  <property name="meta.media.0.codec.colorspace">601</property>
  <property name="meta.media.0.codec.name">mjpeg</property>
  <property name="meta.media.0.codec.long_name">MJPEG (Motion JPEG)</property>
  <property name="meta.media.0.codec.bit_rate">0</property>
  <property name="meta.attr.0.stream.HANDLER_NAME.markup">VideoHandler</property>
  <property name="meta.attr.0.stream.VENDOR_ID.markup">[0][0][0][0]</property>
  <property name="meta.attr.0.stream.ENCODER.markup">Lavc60.3.100 mjpeg</property>
  <property name="meta.attr.0.stream.DURATION.markup">00:00:01.500000000</property>
  <property name="meta.attr.COMMENT.markup">Rendered with Manim Community v0.17.2</property>
  <property name="meta.attr.MAJOR_BRAND.markup">isom</property>
  <property name="meta.attr.MINOR_VERSION.markup">512</property>
  <property name="meta.attr.COMPATIBLE_BRANDS.markup">isomiso2avc1mp41</property>
  <property name="meta.attr.ENCODER.markup">Lavf60.3.100</property>
  <property name="seekable">1</property>
  <property name="meta.media.sample_aspect_num">1</property>
  <property name="meta.media.sample_aspect_den">1</property>
  <property name="aspect_ratio">1</property>
  <property name="format">3</property>
  <property name="kdenlive:clipname">35.mp4</property>
  <property name="kdenlive:clip_type">2</property>
  <property name="kdenlive:folderid">653</property>
  <property name="kdenlive:id">568</property>
  <property name="kdenlive:file_size">258157</property>
  <property name="kdenlive:file_hash">29d0230bf82c4a0775cfe30f34249d0e</property>
  <property name="kdenlive:proxy">/home/xiaoxiae/.cache/kdenlive/proxy/29d0230bf82c4a0775cfe30f34249d0e.mkv</property>
  <property name="kdenlive:originalurl">video/Deletion/35.mp4</property>
  <property name="kdenlive:original.mlt_type">producer</property>
  <property name="kdenlive:original.in">0</property>
  <property name="kdenlive:original.out">89</property>
  <property name="kdenlive:original.length">90</property>
  <property name="kdenlive:original.eof">pause</property>
  <property name="kdenlive:original.resource">video/Deletion/35.mp4</property>
  <property name="kdenlive:original.meta.media.nb_streams">1</property>
  <property name="kdenlive:original.meta.media.0.stream.type">video</property>
  <property name="kdenlive:original.meta.media.0.stream.frame_rate">60</property>
  <property name="kdenlive:original.meta.media.0.stream.sample_aspect_ratio">0</property>
  <property name="kdenlive:original.meta.media.0.codec.width">3840</property>
  <property name="kdenlive:original.meta.media.0.codec.height">2160</property>
  <property name="kdenlive:original.meta.media.0.codec.rotate">0</property>
  <property name="kdenlive:original.meta.media.0.codec.pix_fmt">yuv420p</property>
  <property name="kdenlive:original.meta.media.0.codec.sample_aspect_ratio">0</property>
  <property name="kdenlive:original.meta.media.0.codec.colorspace">709</property>
  <property name="kdenlive:original.meta.media.0.codec.name">h264</property>
  <property name="kdenlive:original.meta.media.0.codec.long_name">H.264 / AVC / MPEG-4 AVC / MPEG-4 part 10</property>
  <property name="kdenlive:original.meta.media.0.codec.bit_rate">1366773</property>
  <property name="kdenlive:original.meta.attr.0.stream.handler_name.markup">VideoHandler</property>
  <property name="kdenlive:original.meta.attr.0.stream.vendor_id.markup">[0][0][0][0]</property>
  <property name="kdenlive:original.meta.attr.0.stream.encoder.markup">Lavc60.3.100 libx264</property>
  <property name="kdenlive:original.meta.attr.major_brand.markup">isom</property>
  <property name="kdenlive:original.meta.attr.minor_version.markup">512</property>
  <property name="kdenlive:original.meta.attr.compatible_brands.markup">isomiso2avc1mp41</property>
  <property name="kdenlive:original.meta.attr.encoder.markup">Lavf60.3.100</property>
  <property name="kdenlive:original.meta.attr.comment.markup">Rendered with Manim Community v0.17.2</property>
  <property name="kdenlive:original.seekable">1</property>
  <property name="kdenlive:original.width">3840</property>
  <property name="kdenlive:original.height">2160</property>
  <property name="kdenlive:original.meta.media.sample_aspect_num">1</property>
  <property name="kdenlive:original.meta.media.sample_aspect_den">1</property>
  <property name="kdenlive:original.aspect_ratio">1</property>
  <property name="kdenlive:original.format">3</property>
  <property name="kdenlive:original.audio_index">-1</property>
  <property name="kdenlive:original.video_index">0</property>
  <property name="kdenlive:original.mute_on_pause">0</property>
  <property name="kdenlive:original.mlt_service">avformat-novalidate</property>
  <property name="kdenlive:original.meta.media.frame_rate_num">60</property>
  <property name="kdenlive:original.meta.media.frame_rate_den">1</property>
  <property name="kdenlive:original.meta.media.colorspace">709</property>
  <property name="kdenlive:original.meta.media.color_trc">2</property>
  <property name="kdenlive:original.meta.media.has_b_frames">2</property>
  <property name="kdenlive:original.meta.media.width">3840</property>
  <property name="kdenlive:original.meta.media.height">2160</property>
  <property name="kdenlive:original.meta.media.color_range">mpeg</property>
  <property name="kdenlive:original.meta.media.top_field_first">0</property>
  <property name="kdenlive:original.meta.media.progressive">1</property>
  <property name="kdenlive:original.kdenlive:clip_type">2</property>
  <property name="kdenlive:original.kdenlive:folderid">653</property>
  <property name="kdenlive:original.kdenlive:id">682</property>
  <property name="kdenlive:original.kdenlive:file_size">258157</property>
  <property name="kdenlive:original.kdenlive:file_hash">29d0230bf82c4a0775cfe30f34249d0e</property>
  <property name="kdenlive:original.backup">1</property>
  <property name="xml">was here</property>
  <property name="meta.media.frame_rate_num">60</property>
  <property name="meta.media.frame_rate_den">1</property>
  <property name="meta.media.colorspace">601</property>
  <property name="meta.media.color_trc">2</property>
  <property name="meta.media.has_b_frames">0</property>
  <property name="meta.media.width">640</property>
  <property name="meta.media.height">360</property>
  <property name="meta.media.color_range">full</property>
  <property name="meta.media.top_field_first">0</property>
  <property name="meta.media.progressive">1</property>
  <property name="set.test_audio">1</property>
  <property name="set.test_image">0</property>
 </producer>
 <producer id="producer705" in="00:00:00.000" out="00:00:00.983">
  <property name="length">60</property>
  <property name="eof">pause</property>
  <property name="resource">/home/xiaoxiae/.cache/kdenlive/proxy/755ba6e82aeca20655d9854d2decc9b9.mkv</property>
  <property name="audio_index">-1</property>
  <property name="video_index">0</property>
  <property name="mute_on_pause">0</property>
  <property name="mlt_service">avformat-novalidate</property>
  <property name="meta.media.nb_streams">1</property>
  <property name="meta.media.0.stream.type">video</property>
  <property name="meta.media.0.stream.frame_rate">60</property>
  <property name="meta.media.0.stream.sample_aspect_ratio">0</property>
  <property name="meta.media.0.codec.width">640</property>
  <property name="meta.media.0.codec.height">360</property>
  <property name="meta.media.0.codec.rotate">0</property>
  <property name="meta.media.0.codec.pix_fmt">yuvj420p</property>
  <property name="meta.media.0.codec.sample_aspect_ratio">0</property>
  <property name="meta.media.0.codec.colorspace">601</property>
  <property name="meta.media.0.codec.name">mjpeg</property>
  <property name="meta.media.0.codec.long_name">MJPEG (Motion JPEG)</property>
  <property name="meta.media.0.codec.bit_rate">0</property>
  <property name="meta.attr.0.stream.HANDLER_NAME.markup">VideoHandler</property>
  <property name="meta.attr.0.stream.VENDOR_ID.markup">[0][0][0][0]</property>
  <property name="meta.attr.0.stream.ENCODER.markup">Lavc60.3.100 mjpeg</property>
  <property name="meta.attr.0.stream.DURATION.markup">00:00:01.000000000</property>
  <property name="meta.attr.COMMENT.markup">Rendered with Manim Community v0.17.2</property>
  <property name="meta.attr.MAJOR_BRAND.markup">isom</property>
  <property name="meta.attr.MINOR_VERSION.markup">512</property>
  <property name="meta.attr.COMPATIBLE_BRANDS.markup">isomiso2avc1mp41</property>
  <property name="meta.attr.ENCODER.markup">Lavf60.3.100</property>
  <property name="seekable">1</property>
  <property name="meta.media.sample_aspect_num">1</property>
  <property name="meta.media.sample_aspect_den">1</property>
  <property name="aspect_ratio">1</property>
  <property name="format">3</property>
  <property name="kdenlive:clipname">36.mp4</property>
  <property name="kdenlive:clip_type">2</property>
  <property name="kdenlive:folderid">653</property>
  <property name="kdenlive:id">569</property>
  <property name="kdenlive:file_size">105655</property>
  <property name="kdenlive:file_hash">755ba6e82aeca20655d9854d2decc9b9</property>
  <property name="kdenlive:proxy">/home/xiaoxiae/.cache/kdenlive/proxy/755ba6e82aeca20655d9854d2decc9b9.mkv</property>
  <property name="kdenlive:originalurl">video/Deletion/36.mp4</property>
  <property name="kdenlive:original.mlt_type">producer</property>
  <property name="kdenlive:original.in">0</property>
  <property name="kdenlive:original.out">59</property>
  <property name="kdenlive:original.length">60</property>
  <property name="kdenlive:original.eof">pause</property>
  <property name="kdenlive:original.resource">video/Deletion/36.mp4</property>
  <property name="kdenlive:original.meta.media.nb_streams">1</property>
  <property name="kdenlive:original.meta.media.0.stream.type">video</property>
  <property name="kdenlive:original.meta.media.0.stream.frame_rate">60</property>
  <property name="kdenlive:original.meta.media.0.stream.sample_aspect_ratio">0</property>
  <property name="kdenlive:original.meta.media.0.codec.width">3840</property>
  <property name="kdenlive:original.meta.media.0.codec.height">2160</property>
  <property name="kdenlive:original.meta.media.0.codec.rotate">0</property>
  <property name="kdenlive:original.meta.media.0.codec.pix_fmt">yuv420p</property>
  <property name="kdenlive:original.meta.media.0.codec.sample_aspect_ratio">0</property>
  <property name="kdenlive:original.meta.media.0.codec.colorspace">709</property>
  <property name="kdenlive:original.meta.media.0.codec.name">h264</property>
  <property name="kdenlive:original.meta.media.0.codec.long_name">H.264 / AVC / MPEG-4 AVC / MPEG-4 part 10</property>
  <property name="kdenlive:original.meta.media.0.codec.bit_rate">832192</property>
  <property name="kdenlive:original.meta.attr.0.stream.handler_name.markup">VideoHandler</property>
  <property name="kdenlive:original.meta.attr.0.stream.vendor_id.markup">[0][0][0][0]</property>
  <property name="kdenlive:original.meta.attr.0.stream.encoder.markup">Lavc60.3.100 libx264</property>
  <property name="kdenlive:original.meta.attr.major_brand.markup">isom</property>
  <property name="kdenlive:original.meta.attr.minor_version.markup">512</property>
  <property name="kdenlive:original.meta.attr.compatible_brands.markup">isomiso2avc1mp41</property>
  <property name="kdenlive:original.meta.attr.encoder.markup">Lavf60.3.100</property>
  <property name="kdenlive:original.meta.attr.comment.markup">Rendered with Manim Community v0.17.2</property>
  <property name="kdenlive:original.seekable">1</property>
  <property name="kdenlive:original.width">3840</property>
  <property name="kdenlive:original.height">2160</property>
  <property name="kdenlive:original.meta.media.sample_aspect_num">1</property>
  <property name="kdenlive:original.meta.media.sample_aspect_den">1</property>
  <property name="kdenlive:original.aspect_ratio">1</property>
  <property name="kdenlive:original.format">3</property>
  <property name="kdenlive:original.audio_index">-1</property>
  <property name="kdenlive:original.video_index">0</property>
  <property name="kdenlive:original.mute_on_pause">0</property>
  <property name="kdenlive:original.mlt_service">avformat-novalidate</property>
  <property name="kdenlive:original.meta.media.frame_rate_num">60</property>
  <property name="kdenlive:original.meta.media.frame_rate_den">1</property>
  <property name="kdenlive:original.meta.media.colorspace">709</property>
  <property name="kdenlive:original.meta.media.color_trc">2</property>
  <property name="kdenlive:original.meta.media.has_b_frames">2</property>
  <property name="kdenlive:original.meta.media.width">3840</property>
  <property name="kdenlive:original.meta.media.height">2160</property>
  <property name="kdenlive:original.meta.media.color_range">mpeg</property>
  <property name="kdenlive:original.meta.media.top_field_first">0</property>
  <property name="kdenlive:original.meta.media.progressive">1</property>
  <property name="kdenlive:original.kdenlive:clip_type">2</property>
  <property name="kdenlive:original.kdenlive:folderid">653</property>
  <property name="kdenlive:original.kdenlive:id">683</property>
  <property name="kdenlive:original.kdenlive:file_size">105655</property>
  <property name="kdenlive:original.kdenlive:file_hash">755ba6e82aeca20655d9854d2decc9b9</property>
  <property name="kdenlive:original.backup">1</property>
  <property name="xml">was here</property>
  <property name="meta.media.frame_rate_num">60</property>
  <property name="meta.media.frame_rate_den">1</property>
  <property name="meta.media.colorspace">601</property>
  <property name="meta.media.color_trc">2</property>
  <property name="meta.media.has_b_frames">0</property>
  <property name="meta.media.width">640</property>
  <property name="meta.media.height">360</property>
  <property name="meta.media.color_range">full</property>
  <property name="meta.media.top_field_first">0</property>
  <property name="meta.media.progressive">1</property>
  <property name="set.test_audio">1</property>
  <property name="set.test_image">0</property>
 </producer>
 <producer id="producer706" in="00:00:00.000" out="00:00:00.983">
  <property name="length">60</property>
  <property name="eof">pause</property>
  <property name="resource">/home/xiaoxiae/.cache/kdenlive/proxy/c760c4b3d9bde1ceb7229d9ce70728b5.mkv</property>
  <property name="audio_index">-1</property>
  <property name="video_index">0</property>
  <property name="mute_on_pause">0</property>
  <property name="mlt_service">avformat-novalidate</property>
  <property name="meta.media.nb_streams">1</property>
  <property name="meta.media.0.stream.type">video</property>
  <property name="meta.media.0.stream.frame_rate">60</property>
  <property name="meta.media.0.stream.sample_aspect_ratio">0</property>
  <property name="meta.media.0.codec.width">640</property>
  <property name="meta.media.0.codec.height">360</property>
  <property name="meta.media.0.codec.rotate">0</property>
  <property name="meta.media.0.codec.pix_fmt">yuvj420p</property>
  <property name="meta.media.0.codec.sample_aspect_ratio">0</property>
  <property name="meta.media.0.codec.colorspace">601</property>
  <property name="meta.media.0.codec.name">mjpeg</property>
  <property name="meta.media.0.codec.long_name">MJPEG (Motion JPEG)</property>
  <property name="meta.media.0.codec.bit_rate">0</property>
  <property name="meta.attr.0.stream.HANDLER_NAME.markup">VideoHandler</property>
  <property name="meta.attr.0.stream.VENDOR_ID.markup">[0][0][0][0]</property>
  <property name="meta.attr.0.stream.ENCODER.markup">Lavc60.3.100 mjpeg</property>
  <property name="meta.attr.0.stream.DURATION.markup">00:00:01.000000000</property>
  <property name="meta.attr.COMMENT.markup">Rendered with Manim Community v0.17.2</property>
  <property name="meta.attr.MAJOR_BRAND.markup">isom</property>
  <property name="meta.attr.MINOR_VERSION.markup">512</property>
  <property name="meta.attr.COMPATIBLE_BRANDS.markup">isomiso2avc1mp41</property>
  <property name="meta.attr.ENCODER.markup">Lavf60.3.100</property>
  <property name="seekable">1</property>
  <property name="meta.media.sample_aspect_num">1</property>
  <property name="meta.media.sample_aspect_den">1</property>
  <property name="aspect_ratio">1</property>
  <property name="format">3</property>
  <property name="kdenlive:clipname">37.mp4</property>
  <property name="kdenlive:clip_type">2</property>
  <property name="kdenlive:folderid">653</property>
  <property name="kdenlive:id">570</property>
  <property name="kdenlive:file_size">91211</property>
  <property name="kdenlive:file_hash">c760c4b3d9bde1ceb7229d9ce70728b5</property>
  <property name="kdenlive:proxy">/home/xiaoxiae/.cache/kdenlive/proxy/c760c4b3d9bde1ceb7229d9ce70728b5.mkv</property>
  <property name="kdenlive:originalurl">video/Deletion/37.mp4</property>
  <property name="kdenlive:original.mlt_type">producer</property>
  <property name="kdenlive:original.in">0</property>
  <property name="kdenlive:original.out">59</property>
  <property name="kdenlive:original.length">60</property>
  <property name="kdenlive:original.eof">pause</property>
  <property name="kdenlive:original.resource">video/Deletion/37.mp4</property>
  <property name="kdenlive:original.meta.media.nb_streams">1</property>
  <property name="kdenlive:original.meta.media.0.stream.type">video</property>
  <property name="kdenlive:original.meta.media.0.stream.frame_rate">60</property>
  <property name="kdenlive:original.meta.media.0.stream.sample_aspect_ratio">0</property>
  <property name="kdenlive:original.meta.media.0.codec.width">3840</property>
  <property name="kdenlive:original.meta.media.0.codec.height">2160</property>
  <property name="kdenlive:original.meta.media.0.codec.rotate">0</property>
  <property name="kdenlive:original.meta.media.0.codec.pix_fmt">yuv420p</property>
  <property name="kdenlive:original.meta.media.0.codec.sample_aspect_ratio">0</property>
  <property name="kdenlive:original.meta.media.0.codec.colorspace">709</property>
  <property name="kdenlive:original.meta.media.0.codec.name">h264</property>
  <property name="kdenlive:original.meta.media.0.codec.long_name">H.264 / AVC / MPEG-4 AVC / MPEG-4 part 10</property>
  <property name="kdenlive:original.meta.media.0.codec.bit_rate">716640</property>
  <property name="kdenlive:original.meta.attr.0.stream.handler_name.markup">VideoHandler</property>
  <property name="kdenlive:original.meta.attr.0.stream.vendor_id.markup">[0][0][0][0]</property>
  <property name="kdenlive:original.meta.attr.0.stream.encoder.markup">Lavc60.3.100 libx264</property>
  <property name="kdenlive:original.meta.attr.major_brand.markup">isom</property>
  <property name="kdenlive:original.meta.attr.minor_version.markup">512</property>
  <property name="kdenlive:original.meta.attr.compatible_brands.markup">isomiso2avc1mp41</property>
  <property name="kdenlive:original.meta.attr.encoder.markup">Lavf60.3.100</property>
  <property name="kdenlive:original.meta.attr.comment.markup">Rendered with Manim Community v0.17.2</property>
  <property name="kdenlive:original.seekable">1</property>
  <property name="kdenlive:original.width">3840</property>
  <property name="kdenlive:original.height">2160</property>
  <property name="kdenlive:original.meta.media.sample_aspect_num">1</property>
  <property name="kdenlive:original.meta.media.sample_aspect_den">1</property>
  <property name="kdenlive:original.aspect_ratio">1</property>
  <property name="kdenlive:original.format">3</property>
  <property name="kdenlive:original.audio_index">-1</property>
  <property name="kdenlive:original.video_index">0</property>
  <property name="kdenlive:original.mute_on_pause">0</property>
  <property name="kdenlive:original.mlt_service">avformat-novalidate</property>
  <property name="kdenlive:original.meta.media.frame_rate_num">60</property>
  <property name="kdenlive:original.meta.media.frame_rate_den">1</property>
  <property name="kdenlive:original.meta.media.colorspace">709</property>
  <property name="kdenlive:original.meta.media.color_trc">2</property>
  <property name="kdenlive:original.meta.media.has_b_frames">2</property>
  <property name="kdenlive:original.meta.media.width">3840</property>
  <property name="kdenlive:original.meta.media.height">2160</property>
  <property name="kdenlive:original.meta.media.color_range">mpeg</property>
  <property name="kdenlive:original.meta.media.top_field_first">0</property>
  <property name="kdenlive:original.meta.media.progressive">1</property>
  <property name="kdenlive:original.kdenlive:clip_type">2</property>
  <property name="kdenlive:original.kdenlive:folderid">653</property>
  <property name="kdenlive:original.kdenlive:id">684</property>
  <property name="kdenlive:original.kdenlive:file_size">91211</property>
  <property name="kdenlive:original.kdenlive:file_hash">c760c4b3d9bde1ceb7229d9ce70728b5</property>
  <property name="kdenlive:original.backup">1</property>
  <property name="xml">was here</property>
  <property name="meta.media.frame_rate_num">60</property>
  <property name="meta.media.frame_rate_den">1</property>
  <property name="meta.media.colorspace">601</property>
  <property name="meta.media.color_trc">2</property>
  <property name="meta.media.has_b_frames">0</property>
  <property name="meta.media.width">640</property>
  <property name="meta.media.height">360</property>
  <property name="meta.media.color_range">full</property>
  <property name="meta.media.top_field_first">0</property>
  <property name="meta.media.progressive">1</property>
  <property name="set.test_audio">1</property>
  <property name="set.test_image">0</property>
 </producer>
 <producer id="producer707" in="00:00:00.000" out="00:00:00.983">
  <property name="length">60</property>
  <property name="eof">pause</property>
  <property name="resource">/home/xiaoxiae/.cache/kdenlive/proxy/a25f5db7cc2389a5251ede94c0f7f8b9.mkv</property>
  <property name="audio_index">-1</property>
  <property name="video_index">0</property>
  <property name="mute_on_pause">0</property>
  <property name="mlt_service">avformat-novalidate</property>
  <property name="meta.media.nb_streams">1</property>
  <property name="meta.media.0.stream.type">video</property>
  <property name="meta.media.0.stream.frame_rate">60</property>
  <property name="meta.media.0.stream.sample_aspect_ratio">0</property>
  <property name="meta.media.0.codec.width">640</property>
  <property name="meta.media.0.codec.height">360</property>
  <property name="meta.media.0.codec.rotate">0</property>
  <property name="meta.media.0.codec.pix_fmt">yuvj420p</property>
  <property name="meta.media.0.codec.sample_aspect_ratio">0</property>
  <property name="meta.media.0.codec.colorspace">601</property>
  <property name="meta.media.0.codec.name">mjpeg</property>
  <property name="meta.media.0.codec.long_name">MJPEG (Motion JPEG)</property>
  <property name="meta.media.0.codec.bit_rate">0</property>
  <property name="meta.attr.0.stream.HANDLER_NAME.markup">VideoHandler</property>
  <property name="meta.attr.0.stream.VENDOR_ID.markup">[0][0][0][0]</property>
  <property name="meta.attr.0.stream.ENCODER.markup">Lavc60.3.100 mjpeg</property>
  <property name="meta.attr.0.stream.DURATION.markup">00:00:01.000000000</property>
  <property name="meta.attr.COMMENT.markup">Rendered with Manim Community v0.17.2</property>
  <property name="meta.attr.MAJOR_BRAND.markup">isom</property>
  <property name="meta.attr.MINOR_VERSION.markup">512</property>
  <property name="meta.attr.COMPATIBLE_BRANDS.markup">isomiso2avc1mp41</property>
  <property name="meta.attr.ENCODER.markup">Lavf60.3.100</property>
  <property name="seekable">1</property>
  <property name="meta.media.sample_aspect_num">1</property>
  <property name="meta.media.sample_aspect_den">1</property>
  <property name="aspect_ratio">1</property>
  <property name="format">3</property>
  <property name="kdenlive:clipname">38.mp4</property>
  <property name="kdenlive:clip_type">2</property>
  <property name="kdenlive:folderid">653</property>
  <property name="kdenlive:id">571</property>
  <property name="kdenlive:file_size">145224</property>
  <property name="kdenlive:file_hash">a25f5db7cc2389a5251ede94c0f7f8b9</property>
  <property name="kdenlive:proxy">/home/xiaoxiae/.cache/kdenlive/proxy/a25f5db7cc2389a5251ede94c0f7f8b9.mkv</property>
  <property name="kdenlive:originalurl">video/Deletion/38.mp4</property>
  <property name="kdenlive:original.mlt_type">producer</property>
  <property name="kdenlive:original.in">0</property>
  <property name="kdenlive:original.out">59</property>
  <property name="kdenlive:original.length">60</property>
  <property name="kdenlive:original.eof">pause</property>
  <property name="kdenlive:original.resource">video/Deletion/38.mp4</property>
  <property name="kdenlive:original.meta.media.nb_streams">1</property>
  <property name="kdenlive:original.meta.media.0.stream.type">video</property>
  <property name="kdenlive:original.meta.media.0.stream.frame_rate">60</property>
  <property name="kdenlive:original.meta.media.0.stream.sample_aspect_ratio">0</property>
  <property name="kdenlive:original.meta.media.0.codec.width">3840</property>
  <property name="kdenlive:original.meta.media.0.codec.height">2160</property>
  <property name="kdenlive:original.meta.media.0.codec.rotate">0</property>
  <property name="kdenlive:original.meta.media.0.codec.pix_fmt">yuv420p</property>
  <property name="kdenlive:original.meta.media.0.codec.sample_aspect_ratio">0</property>
  <property name="kdenlive:original.meta.media.0.codec.colorspace">709</property>
  <property name="kdenlive:original.meta.media.0.codec.name">h264</property>
  <property name="kdenlive:original.meta.media.0.codec.long_name">H.264 / AVC / MPEG-4 AVC / MPEG-4 part 10</property>
  <property name="kdenlive:original.meta.media.0.codec.bit_rate">1148744</property>
  <property name="kdenlive:original.meta.attr.0.stream.handler_name.markup">VideoHandler</property>
  <property name="kdenlive:original.meta.attr.0.stream.vendor_id.markup">[0][0][0][0]</property>
  <property name="kdenlive:original.meta.attr.0.stream.encoder.markup">Lavc60.3.100 libx264</property>
  <property name="kdenlive:original.meta.attr.major_brand.markup">isom</property>
  <property name="kdenlive:original.meta.attr.minor_version.markup">512</property>
  <property name="kdenlive:original.meta.attr.compatible_brands.markup">isomiso2avc1mp41</property>
  <property name="kdenlive:original.meta.attr.encoder.markup">Lavf60.3.100</property>
  <property name="kdenlive:original.meta.attr.comment.markup">Rendered with Manim Community v0.17.2</property>
  <property name="kdenlive:original.seekable">1</property>
  <property name="kdenlive:original.width">3840</property>
  <property name="kdenlive:original.height">2160</property>
  <property name="kdenlive:original.meta.media.sample_aspect_num">1</property>
  <property name="kdenlive:original.meta.media.sample_aspect_den">1</property>
  <property name="kdenlive:original.aspect_ratio">1</property>
  <property name="kdenlive:original.format">3</property>
  <property name="kdenlive:original.audio_index">-1</property>
  <property name="kdenlive:original.video_index">0</property>
  <property name="kdenlive:original.mute_on_pause">0</property>
  <property name="kdenlive:original.mlt_service">avformat-novalidate</property>
  <property name="kdenlive:original.meta.media.frame_rate_num">60</property>
  <property name="kdenlive:original.meta.media.frame_rate_den">1</property>
  <property name="kdenlive:original.meta.media.colorspace">709</property>
  <property name="kdenlive:original.meta.media.color_trc">2</property>
  <property name="kdenlive:original.meta.media.has_b_frames">2</property>
  <property name="kdenlive:original.meta.media.width">3840</property>
  <property name="kdenlive:original.meta.media.height">2160</property>
  <property name="kdenlive:original.meta.media.color_range">mpeg</property>
  <property name="kdenlive:original.meta.media.top_field_first">0</property>
  <property name="kdenlive:original.meta.media.progressive">1</property>
  <property name="kdenlive:original.kdenlive:clip_type">2</property>
  <property name="kdenlive:original.kdenlive:folderid">653</property>
  <property name="kdenlive:original.kdenlive:id">685</property>
  <property name="kdenlive:original.kdenlive:file_size">145224</property>
  <property name="kdenlive:original.kdenlive:file_hash">a25f5db7cc2389a5251ede94c0f7f8b9</property>
  <property name="kdenlive:original.backup">1</property>
  <property name="xml">was here</property>
  <property name="meta.media.frame_rate_num">60</property>
  <property name="meta.media.frame_rate_den">1</property>
  <property name="meta.media.colorspace">601</property>
  <property name="meta.media.color_trc">2</property>
  <property name="meta.media.has_b_frames">0</property>
  <property name="meta.media.width">640</property>
  <property name="meta.media.height">360</property>
  <property name="meta.media.color_range">full</property>
  <property name="meta.media.top_field_first">0</property>
  <property name="meta.media.progressive">1</property>
  <property name="set.test_audio">1</property>
  <property name="set.test_image">0</property>
 </producer>
 <producer id="producer708" in="00:00:00.000" out="00:00:01.383">
  <property name="length">84</property>
  <property name="eof">pause</property>
  <property name="resource">/home/xiaoxiae/.cache/kdenlive/proxy/6045f7877b688416f554626cf27f8459.mkv</property>
  <property name="audio_index">-1</property>
  <property name="video_index">0</property>
  <property name="mute_on_pause">0</property>
  <property name="mlt_service">avformat-novalidate</property>
  <property name="meta.media.nb_streams">1</property>
  <property name="meta.media.0.stream.type">video</property>
  <property name="meta.media.0.stream.frame_rate">60</property>
  <property name="meta.media.0.stream.sample_aspect_ratio">0</property>
  <property name="meta.media.0.codec.width">640</property>
  <property name="meta.media.0.codec.height">360</property>
  <property name="meta.media.0.codec.rotate">0</property>
  <property name="meta.media.0.codec.pix_fmt">yuvj420p</property>
  <property name="meta.media.0.codec.sample_aspect_ratio">0</property>
  <property name="meta.media.0.codec.colorspace">601</property>
  <property name="meta.media.0.codec.name">mjpeg</property>
  <property name="meta.media.0.codec.long_name">MJPEG (Motion JPEG)</property>
  <property name="meta.media.0.codec.bit_rate">0</property>
  <property name="meta.attr.0.stream.HANDLER_NAME.markup">VideoHandler</property>
  <property name="meta.attr.0.stream.VENDOR_ID.markup">[0][0][0][0]</property>
  <property name="meta.attr.0.stream.ENCODER.markup">Lavc60.3.100 mjpeg</property>
  <property name="meta.attr.0.stream.DURATION.markup">00:00:01.400000000</property>
  <property name="meta.attr.COMMENT.markup">Rendered with Manim Community v0.17.2</property>
  <property name="meta.attr.MAJOR_BRAND.markup">isom</property>
  <property name="meta.attr.MINOR_VERSION.markup">512</property>
  <property name="meta.attr.COMPATIBLE_BRANDS.markup">isomiso2avc1mp41</property>
  <property name="meta.attr.ENCODER.markup">Lavf60.3.100</property>
  <property name="seekable">1</property>
  <property name="meta.media.sample_aspect_num">1</property>
  <property name="meta.media.sample_aspect_den">1</property>
  <property name="aspect_ratio">1</property>
  <property name="format">3</property>
  <property name="kdenlive:clipname">39.mp4</property>
  <property name="kdenlive:clip_type">2</property>
  <property name="kdenlive:folderid">653</property>
  <property name="kdenlive:id">572</property>
  <property name="kdenlive:file_size">206631</property>
  <property name="kdenlive:file_hash">6045f7877b688416f554626cf27f8459</property>
  <property name="kdenlive:proxy">/home/xiaoxiae/.cache/kdenlive/proxy/6045f7877b688416f554626cf27f8459.mkv</property>
  <property name="kdenlive:originalurl">video/Deletion/39.mp4</property>
  <property name="kdenlive:original.mlt_type">producer</property>
  <property name="kdenlive:original.in">0</property>
  <property name="kdenlive:original.out">83</property>
  <property name="kdenlive:original.length">84</property>
  <property name="kdenlive:original.eof">pause</property>
  <property name="kdenlive:original.resource">video/Deletion/39.mp4</property>
  <property name="kdenlive:original.meta.media.nb_streams">1</property>
  <property name="kdenlive:original.meta.media.0.stream.type">video</property>
  <property name="kdenlive:original.meta.media.0.stream.frame_rate">60</property>
  <property name="kdenlive:original.meta.media.0.stream.sample_aspect_ratio">0</property>
  <property name="kdenlive:original.meta.media.0.codec.width">3840</property>
  <property name="kdenlive:original.meta.media.0.codec.height">2160</property>
  <property name="kdenlive:original.meta.media.0.codec.rotate">0</property>
  <property name="kdenlive:original.meta.media.0.codec.pix_fmt">yuv420p</property>
  <property name="kdenlive:original.meta.media.0.codec.sample_aspect_ratio">0</property>
  <property name="kdenlive:original.meta.media.0.codec.colorspace">709</property>
  <property name="kdenlive:original.meta.media.0.codec.name">h264</property>
  <property name="kdenlive:original.meta.media.0.codec.long_name">H.264 / AVC / MPEG-4 AVC / MPEG-4 part 10</property>
  <property name="kdenlive:original.meta.media.0.codec.bit_rate">1169782</property>
  <property name="kdenlive:original.meta.attr.0.stream.handler_name.markup">VideoHandler</property>
  <property name="kdenlive:original.meta.attr.0.stream.vendor_id.markup">[0][0][0][0]</property>
  <property name="kdenlive:original.meta.attr.0.stream.encoder.markup">Lavc60.3.100 libx264</property>
  <property name="kdenlive:original.meta.attr.major_brand.markup">isom</property>
  <property name="kdenlive:original.meta.attr.minor_version.markup">512</property>
  <property name="kdenlive:original.meta.attr.compatible_brands.markup">isomiso2avc1mp41</property>
  <property name="kdenlive:original.meta.attr.encoder.markup">Lavf60.3.100</property>
  <property name="kdenlive:original.meta.attr.comment.markup">Rendered with Manim Community v0.17.2</property>
  <property name="kdenlive:original.seekable">1</property>
  <property name="kdenlive:original.width">3840</property>
  <property name="kdenlive:original.height">2160</property>
  <property name="kdenlive:original.meta.media.sample_aspect_num">1</property>
  <property name="kdenlive:original.meta.media.sample_aspect_den">1</property>
  <property name="kdenlive:original.aspect_ratio">1</property>
  <property name="kdenlive:original.format">3</property>
  <property name="kdenlive:original.audio_index">-1</property>
  <property name="kdenlive:original.video_index">0</property>
  <property name="kdenlive:original.mute_on_pause">0</property>
  <property name="kdenlive:original.mlt_service">avformat-novalidate</property>
  <property name="kdenlive:original.meta.media.frame_rate_num">60</property>
  <property name="kdenlive:original.meta.media.frame_rate_den">1</property>
  <property name="kdenlive:original.meta.media.colorspace">709</property>
  <property name="kdenlive:original.meta.media.color_trc">2</property>
  <property name="kdenlive:original.meta.media.has_b_frames">2</property>
  <property name="kdenlive:original.meta.media.width">3840</property>
  <property name="kdenlive:original.meta.media.height">2160</property>
  <property name="kdenlive:original.meta.media.color_range">mpeg</property>
  <property name="kdenlive:original.meta.media.top_field_first">0</property>
  <property name="kdenlive:original.meta.media.progressive">1</property>
  <property name="kdenlive:original.kdenlive:clip_type">2</property>
  <property name="kdenlive:original.kdenlive:folderid">653</property>
  <property name="kdenlive:original.kdenlive:id">686</property>
  <property name="kdenlive:original.kdenlive:file_size">206631</property>
  <property name="kdenlive:original.kdenlive:file_hash">6045f7877b688416f554626cf27f8459</property>
  <property name="kdenlive:original.backup">1</property>
  <property name="xml">was here</property>
  <property name="meta.media.frame_rate_num">60</property>
  <property name="meta.media.frame_rate_den">1</property>
  <property name="meta.media.colorspace">601</property>
  <property name="meta.media.color_trc">2</property>
  <property name="meta.media.has_b_frames">0</property>
  <property name="meta.media.width">640</property>
  <property name="meta.media.height">360</property>
  <property name="meta.media.color_range">full</property>
  <property name="meta.media.top_field_first">0</property>
  <property name="meta.media.progressive">1</property>
  <property name="set.test_audio">1</property>
  <property name="set.test_image">0</property>
 </producer>
 <producer id="producer709" in="00:00:00.000" out="00:00:00.983">
  <property name="length">60</property>
  <property name="eof">pause</property>
  <property name="resource">/home/xiaoxiae/.cache/kdenlive/proxy/4b220bb6c0d6d3448dadb03601c2c6a0.mkv</property>
  <property name="audio_index">-1</property>
  <property name="video_index">0</property>
  <property name="mute_on_pause">0</property>
  <property name="mlt_service">avformat-novalidate</property>
  <property name="meta.media.nb_streams">1</property>
  <property name="meta.media.0.stream.type">video</property>
  <property name="meta.media.0.stream.frame_rate">60</property>
  <property name="meta.media.0.stream.sample_aspect_ratio">0</property>
  <property name="meta.media.0.codec.width">640</property>
  <property name="meta.media.0.codec.height">360</property>
  <property name="meta.media.0.codec.rotate">0</property>
  <property name="meta.media.0.codec.pix_fmt">yuvj420p</property>
  <property name="meta.media.0.codec.sample_aspect_ratio">0</property>
  <property name="meta.media.0.codec.colorspace">601</property>
  <property name="meta.media.0.codec.name">mjpeg</property>
  <property name="meta.media.0.codec.long_name">MJPEG (Motion JPEG)</property>
  <property name="meta.media.0.codec.bit_rate">0</property>
  <property name="meta.attr.0.stream.HANDLER_NAME.markup">VideoHandler</property>
  <property name="meta.attr.0.stream.VENDOR_ID.markup">[0][0][0][0]</property>
  <property name="meta.attr.0.stream.ENCODER.markup">Lavc60.3.100 mjpeg</property>
  <property name="meta.attr.0.stream.DURATION.markup">00:00:01.000000000</property>
  <property name="meta.attr.COMMENT.markup">Rendered with Manim Community v0.17.2</property>
  <property name="meta.attr.MAJOR_BRAND.markup">isom</property>
  <property name="meta.attr.MINOR_VERSION.markup">512</property>
  <property name="meta.attr.COMPATIBLE_BRANDS.markup">isomiso2avc1mp41</property>
  <property name="meta.attr.ENCODER.markup">Lavf60.3.100</property>
  <property name="seekable">1</property>
  <property name="meta.media.sample_aspect_num">1</property>
  <property name="meta.media.sample_aspect_den">1</property>
  <property name="aspect_ratio">1</property>
  <property name="format">3</property>
  <property name="kdenlive:clipname">40.mp4</property>
  <property name="kdenlive:clip_type">2</property>
  <property name="kdenlive:folderid">653</property>
  <property name="kdenlive:id">574</property>
  <property name="kdenlive:file_size">87399</property>
  <property name="kdenlive:file_hash">4b220bb6c0d6d3448dadb03601c2c6a0</property>
  <property name="kdenlive:proxy">/home/xiaoxiae/.cache/kdenlive/proxy/4b220bb6c0d6d3448dadb03601c2c6a0.mkv</property>
  <property name="kdenlive:originalurl">video/Deletion/40.mp4</property>
  <property name="kdenlive:original.mlt_type">producer</property>
  <property name="kdenlive:original.in">0</property>
  <property name="kdenlive:original.out">59</property>
  <property name="kdenlive:original.length">60</property>
  <property name="kdenlive:original.eof">pause</property>
  <property name="kdenlive:original.resource">video/Deletion/40.mp4</property>
  <property name="kdenlive:original.meta.media.nb_streams">1</property>
  <property name="kdenlive:original.meta.media.0.stream.type">video</property>
  <property name="kdenlive:original.meta.media.0.stream.frame_rate">60</property>
  <property name="kdenlive:original.meta.media.0.stream.sample_aspect_ratio">0</property>
  <property name="kdenlive:original.meta.media.0.codec.width">3840</property>
  <property name="kdenlive:original.meta.media.0.codec.height">2160</property>
  <property name="kdenlive:original.meta.media.0.codec.rotate">0</property>
  <property name="kdenlive:original.meta.media.0.codec.pix_fmt">yuv420p</property>
  <property name="kdenlive:original.meta.media.0.codec.sample_aspect_ratio">0</property>
  <property name="kdenlive:original.meta.media.0.codec.colorspace">709</property>
  <property name="kdenlive:original.meta.media.0.codec.name">h264</property>
  <property name="kdenlive:original.meta.media.0.codec.long_name">H.264 / AVC / MPEG-4 AVC / MPEG-4 part 10</property>
  <property name="kdenlive:original.meta.media.0.codec.bit_rate">686144</property>
  <property name="kdenlive:original.meta.attr.0.stream.handler_name.markup">VideoHandler</property>
  <property name="kdenlive:original.meta.attr.0.stream.vendor_id.markup">[0][0][0][0]</property>
  <property name="kdenlive:original.meta.attr.0.stream.encoder.markup">Lavc60.3.100 libx264</property>
  <property name="kdenlive:original.meta.attr.major_brand.markup">isom</property>
  <property name="kdenlive:original.meta.attr.minor_version.markup">512</property>
  <property name="kdenlive:original.meta.attr.compatible_brands.markup">isomiso2avc1mp41</property>
  <property name="kdenlive:original.meta.attr.encoder.markup">Lavf60.3.100</property>
  <property name="kdenlive:original.meta.attr.comment.markup">Rendered with Manim Community v0.17.2</property>
  <property name="kdenlive:original.seekable">1</property>
  <property name="kdenlive:original.width">3840</property>
  <property name="kdenlive:original.height">2160</property>
  <property name="kdenlive:original.meta.media.sample_aspect_num">1</property>
  <property name="kdenlive:original.meta.media.sample_aspect_den">1</property>
  <property name="kdenlive:original.aspect_ratio">1</property>
  <property name="kdenlive:original.format">3</property>
  <property name="kdenlive:original.audio_index">-1</property>
  <property name="kdenlive:original.video_index">0</property>
  <property name="kdenlive:original.mute_on_pause">0</property>
  <property name="kdenlive:original.mlt_service">avformat-novalidate</property>
  <property name="kdenlive:original.meta.media.frame_rate_num">60</property>
  <property name="kdenlive:original.meta.media.frame_rate_den">1</property>
  <property name="kdenlive:original.meta.media.colorspace">709</property>
  <property name="kdenlive:original.meta.media.color_trc">2</property>
  <property name="kdenlive:original.meta.media.has_b_frames">2</property>
  <property name="kdenlive:original.meta.media.width">3840</property>
  <property name="kdenlive:original.meta.media.height">2160</property>
  <property name="kdenlive:original.meta.media.color_range">mpeg</property>
  <property name="kdenlive:original.meta.media.top_field_first">0</property>
  <property name="kdenlive:original.meta.media.progressive">1</property>
  <property name="kdenlive:original.kdenlive:clip_type">2</property>
  <property name="kdenlive:original.kdenlive:folderid">653</property>
  <property name="kdenlive:original.kdenlive:id">688</property>
  <property name="kdenlive:original.kdenlive:file_size">87399</property>
  <property name="kdenlive:original.kdenlive:file_hash">4b220bb6c0d6d3448dadb03601c2c6a0</property>
  <property name="kdenlive:original.backup">1</property>
  <property name="xml">was here</property>
  <property name="meta.media.frame_rate_num">60</property>
  <property name="meta.media.frame_rate_den">1</property>
  <property name="meta.media.colorspace">601</property>
  <property name="meta.media.color_trc">2</property>
  <property name="meta.media.has_b_frames">0</property>
  <property name="meta.media.width">640</property>
  <property name="meta.media.height">360</property>
  <property name="meta.media.color_range">full</property>
  <property name="meta.media.top_field_first">0</property>
  <property name="meta.media.progressive">1</property>
  <property name="set.test_audio">1</property>
  <property name="set.test_image">0</property>
 </producer>
 <producer id="producer710" in="00:00:00.000" out="00:00:00.983">
  <property name="length">60</property>
  <property name="eof">pause</property>
  <property name="resource">/home/xiaoxiae/.cache/kdenlive/proxy/961dbe40ca9eac8a8b6965d9c8c2de58.mkv</property>
  <property name="audio_index">-1</property>
  <property name="video_index">0</property>
  <property name="mute_on_pause">0</property>
  <property name="mlt_service">avformat-novalidate</property>
  <property name="meta.media.nb_streams">1</property>
  <property name="meta.media.0.stream.type">video</property>
  <property name="meta.media.0.stream.frame_rate">60</property>
  <property name="meta.media.0.stream.sample_aspect_ratio">0</property>
  <property name="meta.media.0.codec.width">640</property>
  <property name="meta.media.0.codec.height">360</property>
  <property name="meta.media.0.codec.rotate">0</property>
  <property name="meta.media.0.codec.pix_fmt">yuvj420p</property>
  <property name="meta.media.0.codec.sample_aspect_ratio">0</property>
  <property name="meta.media.0.codec.colorspace">601</property>
  <property name="meta.media.0.codec.name">mjpeg</property>
  <property name="meta.media.0.codec.long_name">MJPEG (Motion JPEG)</property>
  <property name="meta.media.0.codec.bit_rate">0</property>
  <property name="meta.attr.0.stream.HANDLER_NAME.markup">VideoHandler</property>
  <property name="meta.attr.0.stream.VENDOR_ID.markup">[0][0][0][0]</property>
  <property name="meta.attr.0.stream.ENCODER.markup">Lavc60.3.100 mjpeg</property>
  <property name="meta.attr.0.stream.DURATION.markup">00:00:01.000000000</property>
  <property name="meta.attr.COMMENT.markup">Rendered with Manim Community v0.17.2</property>
  <property name="meta.attr.MAJOR_BRAND.markup">isom</property>
  <property name="meta.attr.MINOR_VERSION.markup">512</property>
  <property name="meta.attr.COMPATIBLE_BRANDS.markup">isomiso2avc1mp41</property>
  <property name="meta.attr.ENCODER.markup">Lavf60.3.100</property>
  <property name="seekable">1</property>
  <property name="meta.media.sample_aspect_num">1</property>
  <property name="meta.media.sample_aspect_den">1</property>
  <property name="aspect_ratio">1</property>
  <property name="format">3</property>
  <property name="kdenlive:clipname">41.mp4</property>
  <property name="kdenlive:clip_type">2</property>
  <property name="kdenlive:folderid">653</property>
  <property name="kdenlive:id">575</property>
  <property name="kdenlive:file_size">153526</property>
  <property name="kdenlive:file_hash">961dbe40ca9eac8a8b6965d9c8c2de58</property>
  <property name="kdenlive:proxy">/home/xiaoxiae/.cache/kdenlive/proxy/961dbe40ca9eac8a8b6965d9c8c2de58.mkv</property>
  <property name="kdenlive:originalurl">video/Deletion/41.mp4</property>
  <property name="kdenlive:original.mlt_type">producer</property>
  <property name="kdenlive:original.in">0</property>
  <property name="kdenlive:original.out">59</property>
  <property name="kdenlive:original.length">60</property>
  <property name="kdenlive:original.eof">pause</property>
  <property name="kdenlive:original.resource">video/Deletion/41.mp4</property>
  <property name="kdenlive:original.meta.media.nb_streams">1</property>
  <property name="kdenlive:original.meta.media.0.stream.type">video</property>
  <property name="kdenlive:original.meta.media.0.stream.frame_rate">60</property>
  <property name="kdenlive:original.meta.media.0.stream.sample_aspect_ratio">0</property>
  <property name="kdenlive:original.meta.media.0.codec.width">3840</property>
  <property name="kdenlive:original.meta.media.0.codec.height">2160</property>
  <property name="kdenlive:original.meta.media.0.codec.rotate">0</property>
  <property name="kdenlive:original.meta.media.0.codec.pix_fmt">yuv420p</property>
  <property name="kdenlive:original.meta.media.0.codec.sample_aspect_ratio">0</property>
  <property name="kdenlive:original.meta.media.0.codec.colorspace">709</property>
  <property name="kdenlive:original.meta.media.0.codec.name">h264</property>
  <property name="kdenlive:original.meta.media.0.codec.long_name">H.264 / AVC / MPEG-4 AVC / MPEG-4 part 10</property>
  <property name="kdenlive:original.meta.media.0.codec.bit_rate">1215160</property>
  <property name="kdenlive:original.meta.attr.0.stream.handler_name.markup">VideoHandler</property>
  <property name="kdenlive:original.meta.attr.0.stream.vendor_id.markup">[0][0][0][0]</property>
  <property name="kdenlive:original.meta.attr.0.stream.encoder.markup">Lavc60.3.100 libx264</property>
  <property name="kdenlive:original.meta.attr.major_brand.markup">isom</property>
  <property name="kdenlive:original.meta.attr.minor_version.markup">512</property>
  <property name="kdenlive:original.meta.attr.compatible_brands.markup">isomiso2avc1mp41</property>
  <property name="kdenlive:original.meta.attr.encoder.markup">Lavf60.3.100</property>
  <property name="kdenlive:original.meta.attr.comment.markup">Rendered with Manim Community v0.17.2</property>
  <property name="kdenlive:original.seekable">1</property>
  <property name="kdenlive:original.width">3840</property>
  <property name="kdenlive:original.height">2160</property>
  <property name="kdenlive:original.meta.media.sample_aspect_num">1</property>
  <property name="kdenlive:original.meta.media.sample_aspect_den">1</property>
  <property name="kdenlive:original.aspect_ratio">1</property>
  <property name="kdenlive:original.format">3</property>
  <property name="kdenlive:original.audio_index">-1</property>
  <property name="kdenlive:original.video_index">0</property>
  <property name="kdenlive:original.mute_on_pause">0</property>
  <property name="kdenlive:original.mlt_service">avformat-novalidate</property>
  <property name="kdenlive:original.meta.media.frame_rate_num">60</property>
  <property name="kdenlive:original.meta.media.frame_rate_den">1</property>
  <property name="kdenlive:original.meta.media.colorspace">709</property>
  <property name="kdenlive:original.meta.media.color_trc">2</property>
  <property name="kdenlive:original.meta.media.has_b_frames">2</property>
  <property name="kdenlive:original.meta.media.width">3840</property>
  <property name="kdenlive:original.meta.media.height">2160</property>
  <property name="kdenlive:original.meta.media.color_range">mpeg</property>
  <property name="kdenlive:original.meta.media.top_field_first">0</property>
  <property name="kdenlive:original.meta.media.progressive">1</property>
  <property name="kdenlive:original.kdenlive:clip_type">2</property>
  <property name="kdenlive:original.kdenlive:folderid">653</property>
  <property name="kdenlive:original.kdenlive:id">689</property>
  <property name="kdenlive:original.kdenlive:file_size">153526</property>
  <property name="kdenlive:original.kdenlive:file_hash">961dbe40ca9eac8a8b6965d9c8c2de58</property>
  <property name="kdenlive:original.backup">1</property>
  <property name="xml">was here</property>
  <property name="meta.media.frame_rate_num">60</property>
  <property name="meta.media.frame_rate_den">1</property>
  <property name="meta.media.colorspace">601</property>
  <property name="meta.media.color_trc">2</property>
  <property name="meta.media.has_b_frames">0</property>
  <property name="meta.media.width">640</property>
  <property name="meta.media.height">360</property>
  <property name="meta.media.color_range">full</property>
  <property name="meta.media.top_field_first">0</property>
  <property name="meta.media.progressive">1</property>
  <property name="set.test_audio">1</property>
  <property name="set.test_image">0</property>
 </producer>
 <producer id="producer711" in="00:00:00.000" out="00:00:01.483">
  <property name="length">90</property>
  <property name="eof">pause</property>
  <property name="resource">/home/xiaoxiae/.cache/kdenlive/proxy/50fe3721b975a7dc1d02b701a214d814.mkv</property>
  <property name="audio_index">-1</property>
  <property name="video_index">0</property>
  <property name="mute_on_pause">0</property>
  <property name="mlt_service">avformat-novalidate</property>
  <property name="meta.media.nb_streams">1</property>
  <property name="meta.media.0.stream.type">video</property>
  <property name="meta.media.0.stream.frame_rate">60</property>
  <property name="meta.media.0.stream.sample_aspect_ratio">0</property>
  <property name="meta.media.0.codec.width">640</property>
  <property name="meta.media.0.codec.height">360</property>
  <property name="meta.media.0.codec.rotate">0</property>
  <property name="meta.media.0.codec.pix_fmt">yuvj420p</property>
  <property name="meta.media.0.codec.sample_aspect_ratio">0</property>
  <property name="meta.media.0.codec.colorspace">601</property>
  <property name="meta.media.0.codec.name">mjpeg</property>
  <property name="meta.media.0.codec.long_name">MJPEG (Motion JPEG)</property>
  <property name="meta.media.0.codec.bit_rate">0</property>
  <property name="meta.attr.0.stream.HANDLER_NAME.markup">VideoHandler</property>
  <property name="meta.attr.0.stream.VENDOR_ID.markup">[0][0][0][0]</property>
  <property name="meta.attr.0.stream.ENCODER.markup">Lavc60.3.100 mjpeg</property>
  <property name="meta.attr.0.stream.DURATION.markup">00:00:01.500000000</property>
  <property name="meta.attr.COMMENT.markup">Rendered with Manim Community v0.17.2</property>
  <property name="meta.attr.MAJOR_BRAND.markup">isom</property>
  <property name="meta.attr.MINOR_VERSION.markup">512</property>
  <property name="meta.attr.COMPATIBLE_BRANDS.markup">isomiso2avc1mp41</property>
  <property name="meta.attr.ENCODER.markup">Lavf60.3.100</property>
  <property name="seekable">1</property>
  <property name="meta.media.sample_aspect_num">1</property>
  <property name="meta.media.sample_aspect_den">1</property>
  <property name="aspect_ratio">1</property>
  <property name="format">3</property>
  <property name="kdenlive:clipname">42.mp4</property>
  <property name="kdenlive:clip_type">2</property>
  <property name="kdenlive:folderid">653</property>
  <property name="kdenlive:id">576</property>
  <property name="kdenlive:file_size">165589</property>
  <property name="kdenlive:file_hash">50fe3721b975a7dc1d02b701a214d814</property>
  <property name="kdenlive:proxy">/home/xiaoxiae/.cache/kdenlive/proxy/50fe3721b975a7dc1d02b701a214d814.mkv</property>
  <property name="kdenlive:originalurl">video/Deletion/42.mp4</property>
  <property name="kdenlive:original.mlt_type">producer</property>
  <property name="kdenlive:original.in">0</property>
  <property name="kdenlive:original.out">89</property>
  <property name="kdenlive:original.length">90</property>
  <property name="kdenlive:original.eof">pause</property>
  <property name="kdenlive:original.resource">video/Deletion/42.mp4</property>
  <property name="kdenlive:original.meta.media.nb_streams">1</property>
  <property name="kdenlive:original.meta.media.0.stream.type">video</property>
  <property name="kdenlive:original.meta.media.0.stream.frame_rate">60</property>
  <property name="kdenlive:original.meta.media.0.stream.sample_aspect_ratio">0</property>
  <property name="kdenlive:original.meta.media.0.codec.width">3840</property>
  <property name="kdenlive:original.meta.media.0.codec.height">2160</property>
  <property name="kdenlive:original.meta.media.0.codec.rotate">0</property>
  <property name="kdenlive:original.meta.media.0.codec.pix_fmt">yuv420p</property>
  <property name="kdenlive:original.meta.media.0.codec.sample_aspect_ratio">0</property>
  <property name="kdenlive:original.meta.media.0.codec.colorspace">709</property>
  <property name="kdenlive:original.meta.media.0.codec.name">h264</property>
  <property name="kdenlive:original.meta.media.0.codec.long_name">H.264 / AVC / MPEG-4 AVC / MPEG-4 part 10</property>
  <property name="kdenlive:original.meta.media.0.codec.bit_rate">872480</property>
  <property name="kdenlive:original.meta.attr.0.stream.handler_name.markup">VideoHandler</property>
  <property name="kdenlive:original.meta.attr.0.stream.vendor_id.markup">[0][0][0][0]</property>
  <property name="kdenlive:original.meta.attr.0.stream.encoder.markup">Lavc60.3.100 libx264</property>
  <property name="kdenlive:original.meta.attr.major_brand.markup">isom</property>
  <property name="kdenlive:original.meta.attr.minor_version.markup">512</property>
  <property name="kdenlive:original.meta.attr.compatible_brands.markup">isomiso2avc1mp41</property>
  <property name="kdenlive:original.meta.attr.encoder.markup">Lavf60.3.100</property>
  <property name="kdenlive:original.meta.attr.comment.markup">Rendered with Manim Community v0.17.2</property>
  <property name="kdenlive:original.seekable">1</property>
  <property name="kdenlive:original.width">3840</property>
  <property name="kdenlive:original.height">2160</property>
  <property name="kdenlive:original.meta.media.sample_aspect_num">1</property>
  <property name="kdenlive:original.meta.media.sample_aspect_den">1</property>
  <property name="kdenlive:original.aspect_ratio">1</property>
  <property name="kdenlive:original.format">3</property>
  <property name="kdenlive:original.audio_index">-1</property>
  <property name="kdenlive:original.video_index">0</property>
  <property name="kdenlive:original.mute_on_pause">0</property>
  <property name="kdenlive:original.mlt_service">avformat-novalidate</property>
  <property name="kdenlive:original.meta.media.frame_rate_num">60</property>
  <property name="kdenlive:original.meta.media.frame_rate_den">1</property>
  <property name="kdenlive:original.meta.media.colorspace">709</property>
  <property name="kdenlive:original.meta.media.color_trc">2</property>
  <property name="kdenlive:original.meta.media.has_b_frames">2</property>
  <property name="kdenlive:original.meta.media.width">3840</property>
  <property name="kdenlive:original.meta.media.height">2160</property>
  <property name="kdenlive:original.meta.media.color_range">mpeg</property>
  <property name="kdenlive:original.meta.media.top_field_first">0</property>
  <property name="kdenlive:original.meta.media.progressive">1</property>
  <property name="kdenlive:original.kdenlive:clip_type">2</property>
  <property name="kdenlive:original.kdenlive:folderid">653</property>
  <property name="kdenlive:original.kdenlive:id">690</property>
  <property name="kdenlive:original.kdenlive:file_size">165589</property>
  <property name="kdenlive:original.kdenlive:file_hash">50fe3721b975a7dc1d02b701a214d814</property>
  <property name="kdenlive:original.backup">1</property>
  <property name="xml">was here</property>
  <property name="meta.media.frame_rate_num">60</property>
  <property name="meta.media.frame_rate_den">1</property>
  <property name="meta.media.colorspace">601</property>
  <property name="meta.media.color_trc">2</property>
  <property name="meta.media.has_b_frames">0</property>
  <property name="meta.media.width">640</property>
  <property name="meta.media.height">360</property>
  <property name="meta.media.color_range">full</property>
  <property name="meta.media.top_field_first">0</property>
  <property name="meta.media.progressive">1</property>
  <property name="set.test_audio">1</property>
  <property name="set.test_image">0</property>
 </producer>
 <producer id="producer712" in="00:00:00.000" out="00:00:00.983">
  <property name="length">60</property>
  <property name="eof">pause</property>
  <property name="resource">/home/xiaoxiae/.cache/kdenlive/proxy/a58c76f07eb11807469cf555ea35a8d9.mkv</property>
  <property name="audio_index">-1</property>
  <property name="video_index">0</property>
  <property name="mute_on_pause">0</property>
  <property name="mlt_service">avformat-novalidate</property>
  <property name="meta.media.nb_streams">1</property>
  <property name="meta.media.0.stream.type">video</property>
  <property name="meta.media.0.stream.frame_rate">60</property>
  <property name="meta.media.0.stream.sample_aspect_ratio">0</property>
  <property name="meta.media.0.codec.width">640</property>
  <property name="meta.media.0.codec.height">360</property>
  <property name="meta.media.0.codec.rotate">0</property>
  <property name="meta.media.0.codec.pix_fmt">yuvj420p</property>
  <property name="meta.media.0.codec.sample_aspect_ratio">0</property>
  <property name="meta.media.0.codec.colorspace">601</property>
  <property name="meta.media.0.codec.name">mjpeg</property>
  <property name="meta.media.0.codec.long_name">MJPEG (Motion JPEG)</property>
  <property name="meta.media.0.codec.bit_rate">0</property>
  <property name="meta.attr.0.stream.HANDLER_NAME.markup">VideoHandler</property>
  <property name="meta.attr.0.stream.VENDOR_ID.markup">[0][0][0][0]</property>
  <property name="meta.attr.0.stream.ENCODER.markup">Lavc60.3.100 mjpeg</property>
  <property name="meta.attr.0.stream.DURATION.markup">00:00:01.000000000</property>
  <property name="meta.attr.COMMENT.markup">Rendered with Manim Community v0.17.2</property>
  <property name="meta.attr.MAJOR_BRAND.markup">isom</property>
  <property name="meta.attr.MINOR_VERSION.markup">512</property>
  <property name="meta.attr.COMPATIBLE_BRANDS.markup">isomiso2avc1mp41</property>
  <property name="meta.attr.ENCODER.markup">Lavf60.3.100</property>
  <property name="seekable">1</property>
  <property name="meta.media.sample_aspect_num">1</property>
  <property name="meta.media.sample_aspect_den">1</property>
  <property name="aspect_ratio">1</property>
  <property name="format">3</property>
  <property name="kdenlive:clipname">43.mp4</property>
  <property name="kdenlive:clip_type">2</property>
  <property name="kdenlive:folderid">653</property>
  <property name="kdenlive:id">577</property>
  <property name="kdenlive:file_size">74528</property>
  <property name="kdenlive:file_hash">a58c76f07eb11807469cf555ea35a8d9</property>
  <property name="kdenlive:proxy">/home/xiaoxiae/.cache/kdenlive/proxy/a58c76f07eb11807469cf555ea35a8d9.mkv</property>
  <property name="kdenlive:originalurl">video/Deletion/43.mp4</property>
  <property name="kdenlive:original.mlt_type">producer</property>
  <property name="kdenlive:original.in">0</property>
  <property name="kdenlive:original.out">59</property>
  <property name="kdenlive:original.length">60</property>
  <property name="kdenlive:original.eof">pause</property>
  <property name="kdenlive:original.resource">video/Deletion/43.mp4</property>
  <property name="kdenlive:original.meta.media.nb_streams">1</property>
  <property name="kdenlive:original.meta.media.0.stream.type">video</property>
  <property name="kdenlive:original.meta.media.0.stream.frame_rate">60</property>
  <property name="kdenlive:original.meta.media.0.stream.sample_aspect_ratio">0</property>
  <property name="kdenlive:original.meta.media.0.codec.width">3840</property>
  <property name="kdenlive:original.meta.media.0.codec.height">2160</property>
  <property name="kdenlive:original.meta.media.0.codec.rotate">0</property>
  <property name="kdenlive:original.meta.media.0.codec.pix_fmt">yuv420p</property>
  <property name="kdenlive:original.meta.media.0.codec.sample_aspect_ratio">0</property>
  <property name="kdenlive:original.meta.media.0.codec.colorspace">709</property>
  <property name="kdenlive:original.meta.media.0.codec.name">h264</property>
  <property name="kdenlive:original.meta.media.0.codec.long_name">H.264 / AVC / MPEG-4 AVC / MPEG-4 part 10</property>
  <property name="kdenlive:original.meta.media.0.codec.bit_rate">583176</property>
  <property name="kdenlive:original.meta.attr.0.stream.handler_name.markup">VideoHandler</property>
  <property name="kdenlive:original.meta.attr.0.stream.vendor_id.markup">[0][0][0][0]</property>
  <property name="kdenlive:original.meta.attr.0.stream.encoder.markup">Lavc60.3.100 libx264</property>
  <property name="kdenlive:original.meta.attr.major_brand.markup">isom</property>
  <property name="kdenlive:original.meta.attr.minor_version.markup">512</property>
  <property name="kdenlive:original.meta.attr.compatible_brands.markup">isomiso2avc1mp41</property>
  <property name="kdenlive:original.meta.attr.encoder.markup">Lavf60.3.100</property>
  <property name="kdenlive:original.meta.attr.comment.markup">Rendered with Manim Community v0.17.2</property>
  <property name="kdenlive:original.seekable">1</property>
  <property name="kdenlive:original.width">3840</property>
  <property name="kdenlive:original.height">2160</property>
  <property name="kdenlive:original.meta.media.sample_aspect_num">1</property>
  <property name="kdenlive:original.meta.media.sample_aspect_den">1</property>
  <property name="kdenlive:original.aspect_ratio">1</property>
  <property name="kdenlive:original.format">3</property>
  <property name="kdenlive:original.audio_index">-1</property>
  <property name="kdenlive:original.video_index">0</property>
  <property name="kdenlive:original.mute_on_pause">0</property>
  <property name="kdenlive:original.mlt_service">avformat-novalidate</property>
  <property name="kdenlive:original.meta.media.frame_rate_num">60</property>
  <property name="kdenlive:original.meta.media.frame_rate_den">1</property>
  <property name="kdenlive:original.meta.media.colorspace">709</property>
  <property name="kdenlive:original.meta.media.color_trc">2</property>
  <property name="kdenlive:original.meta.media.has_b_frames">2</property>
  <property name="kdenlive:original.meta.media.width">3840</property>
  <property name="kdenlive:original.meta.media.height">2160</property>
  <property name="kdenlive:original.meta.media.color_range">mpeg</property>
  <property name="kdenlive:original.meta.media.top_field_first">0</property>
  <property name="kdenlive:original.meta.media.progressive">1</property>
  <property name="kdenlive:original.kdenlive:clip_type">2</property>
  <property name="kdenlive:original.kdenlive:folderid">653</property>
  <property name="kdenlive:original.kdenlive:id">691</property>
  <property name="kdenlive:original.kdenlive:file_size">74528</property>
  <property name="kdenlive:original.kdenlive:file_hash">a58c76f07eb11807469cf555ea35a8d9</property>
  <property name="kdenlive:original.backup">1</property>
  <property name="xml">was here</property>
  <property name="meta.media.frame_rate_num">60</property>
  <property name="meta.media.frame_rate_den">1</property>
  <property name="meta.media.colorspace">601</property>
  <property name="meta.media.color_trc">2</property>
  <property name="meta.media.has_b_frames">0</property>
  <property name="meta.media.width">640</property>
  <property name="meta.media.height">360</property>
  <property name="meta.media.color_range">full</property>
  <property name="meta.media.top_field_first">0</property>
  <property name="meta.media.progressive">1</property>
  <property name="set.test_audio">1</property>
  <property name="set.test_image">0</property>
 </producer>
 <producer id="producer713" in="00:00:00.000" out="00:00:00.983">
  <property name="length">60</property>
  <property name="eof">pause</property>
  <property name="resource">/home/xiaoxiae/.cache/kdenlive/proxy/624a750aa206452d15c2b482f29ab9dc.mkv</property>
  <property name="audio_index">-1</property>
  <property name="video_index">0</property>
  <property name="mute_on_pause">0</property>
  <property name="mlt_service">avformat-novalidate</property>
  <property name="meta.media.nb_streams">1</property>
  <property name="meta.media.0.stream.type">video</property>
  <property name="meta.media.0.stream.frame_rate">60</property>
  <property name="meta.media.0.stream.sample_aspect_ratio">0</property>
  <property name="meta.media.0.codec.width">640</property>
  <property name="meta.media.0.codec.height">360</property>
  <property name="meta.media.0.codec.rotate">0</property>
  <property name="meta.media.0.codec.pix_fmt">yuvj420p</property>
  <property name="meta.media.0.codec.sample_aspect_ratio">0</property>
  <property name="meta.media.0.codec.colorspace">601</property>
  <property name="meta.media.0.codec.name">mjpeg</property>
  <property name="meta.media.0.codec.long_name">MJPEG (Motion JPEG)</property>
  <property name="meta.media.0.codec.bit_rate">0</property>
  <property name="meta.attr.0.stream.HANDLER_NAME.markup">VideoHandler</property>
  <property name="meta.attr.0.stream.VENDOR_ID.markup">[0][0][0][0]</property>
  <property name="meta.attr.0.stream.ENCODER.markup">Lavc60.3.100 mjpeg</property>
  <property name="meta.attr.0.stream.DURATION.markup">00:00:01.000000000</property>
  <property name="meta.attr.COMMENT.markup">Rendered with Manim Community v0.17.2</property>
  <property name="meta.attr.MAJOR_BRAND.markup">isom</property>
  <property name="meta.attr.MINOR_VERSION.markup">512</property>
  <property name="meta.attr.COMPATIBLE_BRANDS.markup">isomiso2avc1mp41</property>
  <property name="meta.attr.ENCODER.markup">Lavf60.3.100</property>
  <property name="seekable">1</property>
  <property name="meta.media.sample_aspect_num">1</property>
  <property name="meta.media.sample_aspect_den">1</property>
  <property name="aspect_ratio">1</property>
  <property name="format">3</property>
  <property name="kdenlive:clipname">44.mp4</property>
  <property name="kdenlive:clip_type">2</property>
  <property name="kdenlive:folderid">653</property>
  <property name="kdenlive:id">578</property>
  <property name="kdenlive:file_size">97482</property>
  <property name="kdenlive:file_hash">624a750aa206452d15c2b482f29ab9dc</property>
  <property name="kdenlive:proxy">/home/xiaoxiae/.cache/kdenlive/proxy/624a750aa206452d15c2b482f29ab9dc.mkv</property>
  <property name="kdenlive:originalurl">video/Deletion/44.mp4</property>
  <property name="kdenlive:original.mlt_type">producer</property>
  <property name="kdenlive:original.in">0</property>
  <property name="kdenlive:original.out">59</property>
  <property name="kdenlive:original.length">60</property>
  <property name="kdenlive:original.eof">pause</property>
  <property name="kdenlive:original.resource">video/Deletion/44.mp4</property>
  <property name="kdenlive:original.meta.media.nb_streams">1</property>
  <property name="kdenlive:original.meta.media.0.stream.type">video</property>
  <property name="kdenlive:original.meta.media.0.stream.frame_rate">60</property>
  <property name="kdenlive:original.meta.media.0.stream.sample_aspect_ratio">0</property>
  <property name="kdenlive:original.meta.media.0.codec.width">3840</property>
  <property name="kdenlive:original.meta.media.0.codec.height">2160</property>
  <property name="kdenlive:original.meta.media.0.codec.rotate">0</property>
  <property name="kdenlive:original.meta.media.0.codec.pix_fmt">yuv420p</property>
  <property name="kdenlive:original.meta.media.0.codec.sample_aspect_ratio">0</property>
  <property name="kdenlive:original.meta.media.0.codec.colorspace">709</property>
  <property name="kdenlive:original.meta.media.0.codec.name">h264</property>
  <property name="kdenlive:original.meta.media.0.codec.long_name">H.264 / AVC / MPEG-4 AVC / MPEG-4 part 10</property>
  <property name="kdenlive:original.meta.media.0.codec.bit_rate">766808</property>
  <property name="kdenlive:original.meta.attr.0.stream.handler_name.markup">VideoHandler</property>
  <property name="kdenlive:original.meta.attr.0.stream.vendor_id.markup">[0][0][0][0]</property>
  <property name="kdenlive:original.meta.attr.0.stream.encoder.markup">Lavc60.3.100 libx264</property>
  <property name="kdenlive:original.meta.attr.major_brand.markup">isom</property>
  <property name="kdenlive:original.meta.attr.minor_version.markup">512</property>
  <property name="kdenlive:original.meta.attr.compatible_brands.markup">isomiso2avc1mp41</property>
  <property name="kdenlive:original.meta.attr.encoder.markup">Lavf60.3.100</property>
  <property name="kdenlive:original.meta.attr.comment.markup">Rendered with Manim Community v0.17.2</property>
  <property name="kdenlive:original.seekable">1</property>
  <property name="kdenlive:original.width">3840</property>
  <property name="kdenlive:original.height">2160</property>
  <property name="kdenlive:original.meta.media.sample_aspect_num">1</property>
  <property name="kdenlive:original.meta.media.sample_aspect_den">1</property>
  <property name="kdenlive:original.aspect_ratio">1</property>
  <property name="kdenlive:original.format">3</property>
  <property name="kdenlive:original.audio_index">-1</property>
  <property name="kdenlive:original.video_index">0</property>
  <property name="kdenlive:original.mute_on_pause">0</property>
  <property name="kdenlive:original.mlt_service">avformat-novalidate</property>
  <property name="kdenlive:original.meta.media.frame_rate_num">60</property>
  <property name="kdenlive:original.meta.media.frame_rate_den">1</property>
  <property name="kdenlive:original.meta.media.colorspace">709</property>
  <property name="kdenlive:original.meta.media.color_trc">2</property>
  <property name="kdenlive:original.meta.media.has_b_frames">2</property>
  <property name="kdenlive:original.meta.media.width">3840</property>
  <property name="kdenlive:original.meta.media.height">2160</property>
  <property name="kdenlive:original.meta.media.color_range">mpeg</property>
  <property name="kdenlive:original.meta.media.top_field_first">0</property>
  <property name="kdenlive:original.meta.media.progressive">1</property>
  <property name="kdenlive:original.kdenlive:clip_type">2</property>
  <property name="kdenlive:original.kdenlive:folderid">653</property>
  <property name="kdenlive:original.kdenlive:id">692</property>
  <property name="kdenlive:original.kdenlive:file_size">97482</property>
  <property name="kdenlive:original.kdenlive:file_hash">624a750aa206452d15c2b482f29ab9dc</property>
  <property name="kdenlive:original.backup">1</property>
  <property name="xml">was here</property>
  <property name="meta.media.frame_rate_num">60</property>
  <property name="meta.media.frame_rate_den">1</property>
  <property name="meta.media.colorspace">601</property>
  <property name="meta.media.color_trc">2</property>
  <property name="meta.media.has_b_frames">0</property>
  <property name="meta.media.width">640</property>
  <property name="meta.media.height">360</property>
  <property name="meta.media.color_range">full</property>
  <property name="meta.media.top_field_first">0</property>
  <property name="meta.media.progressive">1</property>
  <property name="set.test_audio">1</property>
  <property name="set.test_image">0</property>
 </producer>
 <producer id="producer714" in="00:00:00.000" out="00:00:00.983">
  <property name="length">60</property>
  <property name="eof">pause</property>
  <property name="resource">/home/xiaoxiae/.cache/kdenlive/proxy/cb273ba9ef394272539d960ceb1d33f4.mkv</property>
  <property name="audio_index">-1</property>
  <property name="video_index">0</property>
  <property name="mute_on_pause">0</property>
  <property name="mlt_service">avformat-novalidate</property>
  <property name="meta.media.nb_streams">1</property>
  <property name="meta.media.0.stream.type">video</property>
  <property name="meta.media.0.stream.frame_rate">60</property>
  <property name="meta.media.0.stream.sample_aspect_ratio">0</property>
  <property name="meta.media.0.codec.width">640</property>
  <property name="meta.media.0.codec.height">360</property>
  <property name="meta.media.0.codec.rotate">0</property>
  <property name="meta.media.0.codec.pix_fmt">yuvj420p</property>
  <property name="meta.media.0.codec.sample_aspect_ratio">0</property>
  <property name="meta.media.0.codec.colorspace">601</property>
  <property name="meta.media.0.codec.name">mjpeg</property>
  <property name="meta.media.0.codec.long_name">MJPEG (Motion JPEG)</property>
  <property name="meta.media.0.codec.bit_rate">0</property>
  <property name="meta.attr.0.stream.HANDLER_NAME.markup">VideoHandler</property>
  <property name="meta.attr.0.stream.VENDOR_ID.markup">[0][0][0][0]</property>
  <property name="meta.attr.0.stream.ENCODER.markup">Lavc60.3.100 mjpeg</property>
  <property name="meta.attr.0.stream.DURATION.markup">00:00:01.000000000</property>
  <property name="meta.attr.COMMENT.markup">Rendered with Manim Community v0.17.2</property>
  <property name="meta.attr.MAJOR_BRAND.markup">isom</property>
  <property name="meta.attr.MINOR_VERSION.markup">512</property>
  <property name="meta.attr.COMPATIBLE_BRANDS.markup">isomiso2avc1mp41</property>
  <property name="meta.attr.ENCODER.markup">Lavf60.3.100</property>
  <property name="seekable">1</property>
  <property name="meta.media.sample_aspect_num">1</property>
  <property name="meta.media.sample_aspect_den">1</property>
  <property name="aspect_ratio">1</property>
  <property name="format">3</property>
  <property name="kdenlive:clipname">45.mp4</property>
  <property name="kdenlive:clip_type">2</property>
  <property name="kdenlive:folderid">653</property>
  <property name="kdenlive:id">579</property>
  <property name="kdenlive:file_size">183384</property>
  <property name="kdenlive:file_hash">cb273ba9ef394272539d960ceb1d33f4</property>
  <property name="kdenlive:proxy">/home/xiaoxiae/.cache/kdenlive/proxy/cb273ba9ef394272539d960ceb1d33f4.mkv</property>
  <property name="kdenlive:originalurl">video/Deletion/45.mp4</property>
  <property name="kdenlive:original.mlt_type">producer</property>
  <property name="kdenlive:original.in">0</property>
  <property name="kdenlive:original.out">59</property>
  <property name="kdenlive:original.length">60</property>
  <property name="kdenlive:original.eof">pause</property>
  <property name="kdenlive:original.resource">video/Deletion/45.mp4</property>
  <property name="kdenlive:original.meta.media.nb_streams">1</property>
  <property name="kdenlive:original.meta.media.0.stream.type">video</property>
  <property name="kdenlive:original.meta.media.0.stream.frame_rate">60</property>
  <property name="kdenlive:original.meta.media.0.stream.sample_aspect_ratio">0</property>
  <property name="kdenlive:original.meta.media.0.codec.width">3840</property>
  <property name="kdenlive:original.meta.media.0.codec.height">2160</property>
  <property name="kdenlive:original.meta.media.0.codec.rotate">0</property>
  <property name="kdenlive:original.meta.media.0.codec.pix_fmt">yuv420p</property>
  <property name="kdenlive:original.meta.media.0.codec.sample_aspect_ratio">0</property>
  <property name="kdenlive:original.meta.media.0.codec.colorspace">709</property>
  <property name="kdenlive:original.meta.media.0.codec.name">h264</property>
  <property name="kdenlive:original.meta.media.0.codec.long_name">H.264 / AVC / MPEG-4 AVC / MPEG-4 part 10</property>
  <property name="kdenlive:original.meta.media.0.codec.bit_rate">1454088</property>
  <property name="kdenlive:original.meta.attr.0.stream.handler_name.markup">VideoHandler</property>
  <property name="kdenlive:original.meta.attr.0.stream.vendor_id.markup">[0][0][0][0]</property>
  <property name="kdenlive:original.meta.attr.0.stream.encoder.markup">Lavc60.3.100 libx264</property>
  <property name="kdenlive:original.meta.attr.major_brand.markup">isom</property>
  <property name="kdenlive:original.meta.attr.minor_version.markup">512</property>
  <property name="kdenlive:original.meta.attr.compatible_brands.markup">isomiso2avc1mp41</property>
  <property name="kdenlive:original.meta.attr.encoder.markup">Lavf60.3.100</property>
  <property name="kdenlive:original.meta.attr.comment.markup">Rendered with Manim Community v0.17.2</property>
  <property name="kdenlive:original.seekable">1</property>
  <property name="kdenlive:original.width">3840</property>
  <property name="kdenlive:original.height">2160</property>
  <property name="kdenlive:original.meta.media.sample_aspect_num">1</property>
  <property name="kdenlive:original.meta.media.sample_aspect_den">1</property>
  <property name="kdenlive:original.aspect_ratio">1</property>
  <property name="kdenlive:original.format">3</property>
  <property name="kdenlive:original.audio_index">-1</property>
  <property name="kdenlive:original.video_index">0</property>
  <property name="kdenlive:original.mute_on_pause">0</property>
  <property name="kdenlive:original.mlt_service">avformat-novalidate</property>
  <property name="kdenlive:original.meta.media.frame_rate_num">60</property>
  <property name="kdenlive:original.meta.media.frame_rate_den">1</property>
  <property name="kdenlive:original.meta.media.colorspace">709</property>
  <property name="kdenlive:original.meta.media.color_trc">2</property>
  <property name="kdenlive:original.meta.media.has_b_frames">2</property>
  <property name="kdenlive:original.meta.media.width">3840</property>
  <property name="kdenlive:original.meta.media.height">2160</property>
  <property name="kdenlive:original.meta.media.color_range">mpeg</property>
  <property name="kdenlive:original.meta.media.top_field_first">0</property>
  <property name="kdenlive:original.meta.media.progressive">1</property>
  <property name="kdenlive:original.kdenlive:clip_type">2</property>
  <property name="kdenlive:original.kdenlive:folderid">653</property>
  <property name="kdenlive:original.kdenlive:id">693</property>
  <property name="kdenlive:original.kdenlive:file_size">183384</property>
  <property name="kdenlive:original.kdenlive:file_hash">cb273ba9ef394272539d960ceb1d33f4</property>
  <property name="kdenlive:original.backup">1</property>
  <property name="xml">was here</property>
  <property name="meta.media.frame_rate_num">60</property>
  <property name="meta.media.frame_rate_den">1</property>
  <property name="meta.media.colorspace">601</property>
  <property name="meta.media.color_trc">2</property>
  <property name="meta.media.has_b_frames">0</property>
  <property name="meta.media.width">640</property>
  <property name="meta.media.height">360</property>
  <property name="meta.media.color_range">full</property>
  <property name="meta.media.top_field_first">0</property>
  <property name="meta.media.progressive">1</property>
  <property name="set.test_audio">1</property>
  <property name="set.test_image">0</property>
 </producer>
 <producer id="producer715" in="00:00:00.000" out="00:00:00.983">
  <property name="length">60</property>
  <property name="eof">pause</property>
  <property name="resource">/home/xiaoxiae/.cache/kdenlive/proxy/b036066a6da779ddfbf64d14f7b83d89.mkv</property>
  <property name="audio_index">-1</property>
  <property name="video_index">0</property>
  <property name="mute_on_pause">0</property>
  <property name="mlt_service">avformat-novalidate</property>
  <property name="meta.media.nb_streams">1</property>
  <property name="meta.media.0.stream.type">video</property>
  <property name="meta.media.0.stream.frame_rate">60</property>
  <property name="meta.media.0.stream.sample_aspect_ratio">0</property>
  <property name="meta.media.0.codec.width">640</property>
  <property name="meta.media.0.codec.height">360</property>
  <property name="meta.media.0.codec.rotate">0</property>
  <property name="meta.media.0.codec.pix_fmt">yuvj420p</property>
  <property name="meta.media.0.codec.sample_aspect_ratio">0</property>
  <property name="meta.media.0.codec.colorspace">601</property>
  <property name="meta.media.0.codec.name">mjpeg</property>
  <property name="meta.media.0.codec.long_name">MJPEG (Motion JPEG)</property>
  <property name="meta.media.0.codec.bit_rate">0</property>
  <property name="meta.attr.0.stream.HANDLER_NAME.markup">VideoHandler</property>
  <property name="meta.attr.0.stream.VENDOR_ID.markup">[0][0][0][0]</property>
  <property name="meta.attr.0.stream.ENCODER.markup">Lavc60.3.100 mjpeg</property>
  <property name="meta.attr.0.stream.DURATION.markup">00:00:01.000000000</property>
  <property name="meta.attr.COMMENT.markup">Rendered with Manim Community v0.17.2</property>
  <property name="meta.attr.MAJOR_BRAND.markup">isom</property>
  <property name="meta.attr.MINOR_VERSION.markup">512</property>
  <property name="meta.attr.COMPATIBLE_BRANDS.markup">isomiso2avc1mp41</property>
  <property name="meta.attr.ENCODER.markup">Lavf60.3.100</property>
  <property name="seekable">1</property>
  <property name="meta.media.sample_aspect_num">1</property>
  <property name="meta.media.sample_aspect_den">1</property>
  <property name="aspect_ratio">1</property>
  <property name="format">3</property>
  <property name="kdenlive:clipname">46.mp4</property>
  <property name="kdenlive:clip_type">2</property>
  <property name="kdenlive:folderid">653</property>
  <property name="kdenlive:id">580</property>
  <property name="kdenlive:file_size">570975</property>
  <property name="kdenlive:file_hash">b036066a6da779ddfbf64d14f7b83d89</property>
  <property name="kdenlive:proxy">/home/xiaoxiae/.cache/kdenlive/proxy/b036066a6da779ddfbf64d14f7b83d89.mkv</property>
  <property name="kdenlive:originalurl">video/Deletion/46.mp4</property>
  <property name="kdenlive:original.mlt_type">producer</property>
  <property name="kdenlive:original.in">0</property>
  <property name="kdenlive:original.out">59</property>
  <property name="kdenlive:original.length">60</property>
  <property name="kdenlive:original.eof">pause</property>
  <property name="kdenlive:original.resource">video/Deletion/46.mp4</property>
  <property name="kdenlive:original.meta.media.nb_streams">1</property>
  <property name="kdenlive:original.meta.media.0.stream.type">video</property>
  <property name="kdenlive:original.meta.media.0.stream.frame_rate">60</property>
  <property name="kdenlive:original.meta.media.0.stream.sample_aspect_ratio">0</property>
  <property name="kdenlive:original.meta.media.0.codec.width">3840</property>
  <property name="kdenlive:original.meta.media.0.codec.height">2160</property>
  <property name="kdenlive:original.meta.media.0.codec.rotate">0</property>
  <property name="kdenlive:original.meta.media.0.codec.pix_fmt">yuv420p</property>
  <property name="kdenlive:original.meta.media.0.codec.sample_aspect_ratio">0</property>
  <property name="kdenlive:original.meta.media.0.codec.colorspace">709</property>
  <property name="kdenlive:original.meta.media.0.codec.name">h264</property>
  <property name="kdenlive:original.meta.media.0.codec.long_name">H.264 / AVC / MPEG-4 AVC / MPEG-4 part 10</property>
  <property name="kdenlive:original.meta.media.0.codec.bit_rate">4556544</property>
  <property name="kdenlive:original.meta.attr.0.stream.handler_name.markup">VideoHandler</property>
  <property name="kdenlive:original.meta.attr.0.stream.vendor_id.markup">[0][0][0][0]</property>
  <property name="kdenlive:original.meta.attr.0.stream.encoder.markup">Lavc60.3.100 libx264</property>
  <property name="kdenlive:original.meta.attr.major_brand.markup">isom</property>
  <property name="kdenlive:original.meta.attr.minor_version.markup">512</property>
  <property name="kdenlive:original.meta.attr.compatible_brands.markup">isomiso2avc1mp41</property>
  <property name="kdenlive:original.meta.attr.encoder.markup">Lavf60.3.100</property>
  <property name="kdenlive:original.meta.attr.comment.markup">Rendered with Manim Community v0.17.2</property>
  <property name="kdenlive:original.seekable">1</property>
  <property name="kdenlive:original.width">3840</property>
  <property name="kdenlive:original.height">2160</property>
  <property name="kdenlive:original.meta.media.sample_aspect_num">1</property>
  <property name="kdenlive:original.meta.media.sample_aspect_den">1</property>
  <property name="kdenlive:original.aspect_ratio">1</property>
  <property name="kdenlive:original.format">3</property>
  <property name="kdenlive:original.audio_index">-1</property>
  <property name="kdenlive:original.video_index">0</property>
  <property name="kdenlive:original.mute_on_pause">0</property>
  <property name="kdenlive:original.mlt_service">avformat-novalidate</property>
  <property name="kdenlive:original.meta.media.frame_rate_num">60</property>
  <property name="kdenlive:original.meta.media.frame_rate_den">1</property>
  <property name="kdenlive:original.meta.media.colorspace">709</property>
  <property name="kdenlive:original.meta.media.color_trc">2</property>
  <property name="kdenlive:original.meta.media.has_b_frames">2</property>
  <property name="kdenlive:original.meta.media.width">3840</property>
  <property name="kdenlive:original.meta.media.height">2160</property>
  <property name="kdenlive:original.meta.media.color_range">mpeg</property>
  <property name="kdenlive:original.meta.media.top_field_first">0</property>
  <property name="kdenlive:original.meta.media.progressive">1</property>
  <property name="kdenlive:original.kdenlive:clip_type">2</property>
  <property name="kdenlive:original.kdenlive:folderid">653</property>
  <property name="kdenlive:original.kdenlive:id">694</property>
  <property name="kdenlive:original.kdenlive:file_size">570975</property>
  <property name="kdenlive:original.kdenlive:file_hash">b036066a6da779ddfbf64d14f7b83d89</property>
  <property name="kdenlive:original.backup">1</property>
  <property name="xml">was here</property>
  <property name="meta.media.frame_rate_num">60</property>
  <property name="meta.media.frame_rate_den">1</property>
  <property name="meta.media.colorspace">601</property>
  <property name="meta.media.color_trc">2</property>
  <property name="meta.media.has_b_frames">0</property>
  <property name="meta.media.width">640</property>
  <property name="meta.media.height">360</property>
  <property name="meta.media.color_range">full</property>
  <property name="meta.media.top_field_first">0</property>
  <property name="meta.media.progressive">1</property>
  <property name="set.test_audio">1</property>
  <property name="set.test_image">0</property>
 </producer>
 <producer id="producer716" in="00:00:00.000" out="00:00:00.983">
  <property name="length">60</property>
  <property name="eof">pause</property>
  <property name="resource">/home/xiaoxiae/.cache/kdenlive/proxy/f0906e9cff0f93251d94f826d11aa63e.mkv</property>
  <property name="audio_index">-1</property>
  <property name="video_index">0</property>
  <property name="mute_on_pause">0</property>
  <property name="mlt_service">avformat-novalidate</property>
  <property name="meta.media.nb_streams">1</property>
  <property name="meta.media.0.stream.type">video</property>
  <property name="meta.media.0.stream.frame_rate">60</property>
  <property name="meta.media.0.stream.sample_aspect_ratio">0</property>
  <property name="meta.media.0.codec.width">640</property>
  <property name="meta.media.0.codec.height">360</property>
  <property name="meta.media.0.codec.rotate">0</property>
  <property name="meta.media.0.codec.pix_fmt">yuvj420p</property>
  <property name="meta.media.0.codec.sample_aspect_ratio">0</property>
  <property name="meta.media.0.codec.colorspace">601</property>
  <property name="meta.media.0.codec.name">mjpeg</property>
  <property name="meta.media.0.codec.long_name">MJPEG (Motion JPEG)</property>
  <property name="meta.media.0.codec.bit_rate">0</property>
  <property name="meta.attr.0.stream.HANDLER_NAME.markup">VideoHandler</property>
  <property name="meta.attr.0.stream.VENDOR_ID.markup">[0][0][0][0]</property>
  <property name="meta.attr.0.stream.ENCODER.markup">Lavc60.3.100 mjpeg</property>
  <property name="meta.attr.0.stream.DURATION.markup">00:00:01.000000000</property>
  <property name="meta.attr.COMMENT.markup">Rendered with Manim Community v0.17.2</property>
  <property name="meta.attr.MAJOR_BRAND.markup">isom</property>
  <property name="meta.attr.MINOR_VERSION.markup">512</property>
  <property name="meta.attr.COMPATIBLE_BRANDS.markup">isomiso2avc1mp41</property>
  <property name="meta.attr.ENCODER.markup">Lavf60.3.100</property>
  <property name="seekable">1</property>
  <property name="meta.media.sample_aspect_num">1</property>
  <property name="meta.media.sample_aspect_den">1</property>
  <property name="aspect_ratio">1</property>
  <property name="format">3</property>
  <property name="kdenlive:clipname">47.mp4</property>
  <property name="kdenlive:clip_type">2</property>
  <property name="kdenlive:folderid">653</property>
  <property name="kdenlive:id">581</property>
  <property name="kdenlive:file_size">135842</property>
  <property name="kdenlive:file_hash">f0906e9cff0f93251d94f826d11aa63e</property>
  <property name="kdenlive:proxy">/home/xiaoxiae/.cache/kdenlive/proxy/f0906e9cff0f93251d94f826d11aa63e.mkv</property>
  <property name="kdenlive:originalurl">video/Deletion/47.mp4</property>
  <property name="kdenlive:original.mlt_type">producer</property>
  <property name="kdenlive:original.in">0</property>
  <property name="kdenlive:original.out">59</property>
  <property name="kdenlive:original.length">60</property>
  <property name="kdenlive:original.eof">pause</property>
  <property name="kdenlive:original.resource">video/Deletion/47.mp4</property>
  <property name="kdenlive:original.meta.media.nb_streams">1</property>
  <property name="kdenlive:original.meta.media.0.stream.type">video</property>
  <property name="kdenlive:original.meta.media.0.stream.frame_rate">60</property>
  <property name="kdenlive:original.meta.media.0.stream.sample_aspect_ratio">0</property>
  <property name="kdenlive:original.meta.media.0.codec.width">3840</property>
  <property name="kdenlive:original.meta.media.0.codec.height">2160</property>
  <property name="kdenlive:original.meta.media.0.codec.rotate">0</property>
  <property name="kdenlive:original.meta.media.0.codec.pix_fmt">yuv420p</property>
  <property name="kdenlive:original.meta.media.0.codec.sample_aspect_ratio">0</property>
  <property name="kdenlive:original.meta.media.0.codec.colorspace">709</property>
  <property name="kdenlive:original.meta.media.0.codec.name">h264</property>
  <property name="kdenlive:original.meta.media.0.codec.long_name">H.264 / AVC / MPEG-4 AVC / MPEG-4 part 10</property>
  <property name="kdenlive:original.meta.media.0.codec.bit_rate">1073688</property>
  <property name="kdenlive:original.meta.attr.0.stream.handler_name.markup">VideoHandler</property>
  <property name="kdenlive:original.meta.attr.0.stream.vendor_id.markup">[0][0][0][0]</property>
  <property name="kdenlive:original.meta.attr.0.stream.encoder.markup">Lavc60.3.100 libx264</property>
  <property name="kdenlive:original.meta.attr.major_brand.markup">isom</property>
  <property name="kdenlive:original.meta.attr.minor_version.markup">512</property>
  <property name="kdenlive:original.meta.attr.compatible_brands.markup">isomiso2avc1mp41</property>
  <property name="kdenlive:original.meta.attr.encoder.markup">Lavf60.3.100</property>
  <property name="kdenlive:original.meta.attr.comment.markup">Rendered with Manim Community v0.17.2</property>
  <property name="kdenlive:original.seekable">1</property>
  <property name="kdenlive:original.width">3840</property>
  <property name="kdenlive:original.height">2160</property>
  <property name="kdenlive:original.meta.media.sample_aspect_num">1</property>
  <property name="kdenlive:original.meta.media.sample_aspect_den">1</property>
  <property name="kdenlive:original.aspect_ratio">1</property>
  <property name="kdenlive:original.format">3</property>
  <property name="kdenlive:original.audio_index">-1</property>
  <property name="kdenlive:original.video_index">0</property>
  <property name="kdenlive:original.mute_on_pause">0</property>
  <property name="kdenlive:original.mlt_service">avformat-novalidate</property>
  <property name="kdenlive:original.meta.media.frame_rate_num">60</property>
  <property name="kdenlive:original.meta.media.frame_rate_den">1</property>
  <property name="kdenlive:original.meta.media.colorspace">709</property>
  <property name="kdenlive:original.meta.media.color_trc">2</property>
  <property name="kdenlive:original.meta.media.has_b_frames">2</property>
  <property name="kdenlive:original.meta.media.width">3840</property>
  <property name="kdenlive:original.meta.media.height">2160</property>
  <property name="kdenlive:original.meta.media.color_range">mpeg</property>
  <property name="kdenlive:original.meta.media.top_field_first">0</property>
  <property name="kdenlive:original.meta.media.progressive">1</property>
  <property name="kdenlive:original.kdenlive:clip_type">2</property>
  <property name="kdenlive:original.kdenlive:folderid">653</property>
  <property name="kdenlive:original.kdenlive:id">695</property>
  <property name="kdenlive:original.kdenlive:file_size">135842</property>
  <property name="kdenlive:original.kdenlive:file_hash">f0906e9cff0f93251d94f826d11aa63e</property>
  <property name="kdenlive:original.backup">1</property>
  <property name="xml">was here</property>
  <property name="meta.media.frame_rate_num">60</property>
  <property name="meta.media.frame_rate_den">1</property>
  <property name="meta.media.colorspace">601</property>
  <property name="meta.media.color_trc">2</property>
  <property name="meta.media.has_b_frames">0</property>
  <property name="meta.media.width">640</property>
  <property name="meta.media.height">360</property>
  <property name="meta.media.color_range">full</property>
  <property name="meta.media.top_field_first">0</property>
  <property name="meta.media.progressive">1</property>
  <property name="set.test_audio">1</property>
  <property name="set.test_image">0</property>
 </producer>
 <producer id="producer717" in="00:00:00.000" out="00:00:00.983">
  <property name="length">60</property>
  <property name="eof">pause</property>
  <property name="resource">/home/xiaoxiae/.cache/kdenlive/proxy/175a1b805619e4499a3de98375b32535.mkv</property>
  <property name="audio_index">-1</property>
  <property name="video_index">0</property>
  <property name="mute_on_pause">0</property>
  <property name="mlt_service">avformat-novalidate</property>
  <property name="meta.media.nb_streams">1</property>
  <property name="meta.media.0.stream.type">video</property>
  <property name="meta.media.0.stream.frame_rate">60</property>
  <property name="meta.media.0.stream.sample_aspect_ratio">0</property>
  <property name="meta.media.0.codec.width">640</property>
  <property name="meta.media.0.codec.height">360</property>
  <property name="meta.media.0.codec.rotate">0</property>
  <property name="meta.media.0.codec.pix_fmt">yuvj420p</property>
  <property name="meta.media.0.codec.sample_aspect_ratio">0</property>
  <property name="meta.media.0.codec.colorspace">601</property>
  <property name="meta.media.0.codec.name">mjpeg</property>
  <property name="meta.media.0.codec.long_name">MJPEG (Motion JPEG)</property>
  <property name="meta.media.0.codec.bit_rate">0</property>
  <property name="meta.attr.0.stream.HANDLER_NAME.markup">VideoHandler</property>
  <property name="meta.attr.0.stream.VENDOR_ID.markup">[0][0][0][0]</property>
  <property name="meta.attr.0.stream.ENCODER.markup">Lavc60.3.100 mjpeg</property>
  <property name="meta.attr.0.stream.DURATION.markup">00:00:01.000000000</property>
  <property name="meta.attr.COMMENT.markup">Rendered with Manim Community v0.17.2</property>
  <property name="meta.attr.MAJOR_BRAND.markup">isom</property>
  <property name="meta.attr.MINOR_VERSION.markup">512</property>
  <property name="meta.attr.COMPATIBLE_BRANDS.markup">isomiso2avc1mp41</property>
  <property name="meta.attr.ENCODER.markup">Lavf60.3.100</property>
  <property name="seekable">1</property>
  <property name="meta.media.sample_aspect_num">1</property>
  <property name="meta.media.sample_aspect_den">1</property>
  <property name="aspect_ratio">1</property>
  <property name="format">3</property>
  <property name="kdenlive:clipname">48.mp4</property>
  <property name="kdenlive:clip_type">2</property>
  <property name="kdenlive:folderid">653</property>
  <property name="kdenlive:id">582</property>
  <property name="kdenlive:file_size">142893</property>
  <property name="kdenlive:file_hash">175a1b805619e4499a3de98375b32535</property>
  <property name="kdenlive:proxy">/home/xiaoxiae/.cache/kdenlive/proxy/175a1b805619e4499a3de98375b32535.mkv</property>
  <property name="kdenlive:originalurl">video/Deletion/48.mp4</property>
  <property name="kdenlive:original.mlt_type">producer</property>
  <property name="kdenlive:original.in">0</property>
  <property name="kdenlive:original.out">59</property>
  <property name="kdenlive:original.length">60</property>
  <property name="kdenlive:original.eof">pause</property>
  <property name="kdenlive:original.resource">video/Deletion/48.mp4</property>
  <property name="kdenlive:original.meta.media.nb_streams">1</property>
  <property name="kdenlive:original.meta.media.0.stream.type">video</property>
  <property name="kdenlive:original.meta.media.0.stream.frame_rate">60</property>
  <property name="kdenlive:original.meta.media.0.stream.sample_aspect_ratio">0</property>
  <property name="kdenlive:original.meta.media.0.codec.width">3840</property>
  <property name="kdenlive:original.meta.media.0.codec.height">2160</property>
  <property name="kdenlive:original.meta.media.0.codec.rotate">0</property>
  <property name="kdenlive:original.meta.media.0.codec.pix_fmt">yuv420p</property>
  <property name="kdenlive:original.meta.media.0.codec.sample_aspect_ratio">0</property>
  <property name="kdenlive:original.meta.media.0.codec.colorspace">709</property>
  <property name="kdenlive:original.meta.media.0.codec.name">h264</property>
  <property name="kdenlive:original.meta.media.0.codec.long_name">H.264 / AVC / MPEG-4 AVC / MPEG-4 part 10</property>
  <property name="kdenlive:original.meta.media.0.codec.bit_rate">1130096</property>
  <property name="kdenlive:original.meta.attr.0.stream.handler_name.markup">VideoHandler</property>
  <property name="kdenlive:original.meta.attr.0.stream.vendor_id.markup">[0][0][0][0]</property>
  <property name="kdenlive:original.meta.attr.0.stream.encoder.markup">Lavc60.3.100 libx264</property>
  <property name="kdenlive:original.meta.attr.major_brand.markup">isom</property>
  <property name="kdenlive:original.meta.attr.minor_version.markup">512</property>
  <property name="kdenlive:original.meta.attr.compatible_brands.markup">isomiso2avc1mp41</property>
  <property name="kdenlive:original.meta.attr.encoder.markup">Lavf60.3.100</property>
  <property name="kdenlive:original.meta.attr.comment.markup">Rendered with Manim Community v0.17.2</property>
  <property name="kdenlive:original.seekable">1</property>
  <property name="kdenlive:original.width">3840</property>
  <property name="kdenlive:original.height">2160</property>
  <property name="kdenlive:original.meta.media.sample_aspect_num">1</property>
  <property name="kdenlive:original.meta.media.sample_aspect_den">1</property>
  <property name="kdenlive:original.aspect_ratio">1</property>
  <property name="kdenlive:original.format">3</property>
  <property name="kdenlive:original.audio_index">-1</property>
  <property name="kdenlive:original.video_index">0</property>
  <property name="kdenlive:original.mute_on_pause">0</property>
  <property name="kdenlive:original.mlt_service">avformat-novalidate</property>
  <property name="kdenlive:original.meta.media.frame_rate_num">60</property>
  <property name="kdenlive:original.meta.media.frame_rate_den">1</property>
  <property name="kdenlive:original.meta.media.colorspace">709</property>
  <property name="kdenlive:original.meta.media.color_trc">2</property>
  <property name="kdenlive:original.meta.media.has_b_frames">2</property>
  <property name="kdenlive:original.meta.media.width">3840</property>
  <property name="kdenlive:original.meta.media.height">2160</property>
  <property name="kdenlive:original.meta.media.color_range">mpeg</property>
  <property name="kdenlive:original.meta.media.top_field_first">0</property>
  <property name="kdenlive:original.meta.media.progressive">1</property>
  <property name="kdenlive:original.kdenlive:clip_type">2</property>
  <property name="kdenlive:original.kdenlive:folderid">653</property>
  <property name="kdenlive:original.kdenlive:id">696</property>
  <property name="kdenlive:original.kdenlive:file_size">142893</property>
  <property name="kdenlive:original.kdenlive:file_hash">175a1b805619e4499a3de98375b32535</property>
  <property name="kdenlive:original.backup">1</property>
  <property name="xml">was here</property>
  <property name="meta.media.frame_rate_num">60</property>
  <property name="meta.media.frame_rate_den">1</property>
  <property name="meta.media.colorspace">601</property>
  <property name="meta.media.color_trc">2</property>
  <property name="meta.media.has_b_frames">0</property>
  <property name="meta.media.width">640</property>
  <property name="meta.media.height">360</property>
  <property name="meta.media.color_range">full</property>
  <property name="meta.media.top_field_first">0</property>
  <property name="meta.media.progressive">1</property>
  <property name="set.test_audio">1</property>
  <property name="set.test_image">0</property>
 </producer>
 <producer id="producer718" in="00:00:00.000" out="00:00:00.983">
  <property name="length">60</property>
  <property name="eof">pause</property>
  <property name="resource">/home/xiaoxiae/.cache/kdenlive/proxy/9cfa2a577a72439b39fd82b120fbf32d.mkv</property>
  <property name="audio_index">-1</property>
  <property name="video_index">0</property>
  <property name="mute_on_pause">0</property>
  <property name="mlt_service">avformat-novalidate</property>
  <property name="meta.media.nb_streams">1</property>
  <property name="meta.media.0.stream.type">video</property>
  <property name="meta.media.0.stream.frame_rate">60</property>
  <property name="meta.media.0.stream.sample_aspect_ratio">0</property>
  <property name="meta.media.0.codec.width">640</property>
  <property name="meta.media.0.codec.height">360</property>
  <property name="meta.media.0.codec.rotate">0</property>
  <property name="meta.media.0.codec.pix_fmt">yuvj420p</property>
  <property name="meta.media.0.codec.sample_aspect_ratio">0</property>
  <property name="meta.media.0.codec.colorspace">601</property>
  <property name="meta.media.0.codec.name">mjpeg</property>
  <property name="meta.media.0.codec.long_name">MJPEG (Motion JPEG)</property>
  <property name="meta.media.0.codec.bit_rate">0</property>
  <property name="meta.attr.0.stream.HANDLER_NAME.markup">VideoHandler</property>
  <property name="meta.attr.0.stream.VENDOR_ID.markup">[0][0][0][0]</property>
  <property name="meta.attr.0.stream.ENCODER.markup">Lavc60.3.100 mjpeg</property>
  <property name="meta.attr.0.stream.DURATION.markup">00:00:01.000000000</property>
  <property name="meta.attr.COMMENT.markup">Rendered with Manim Community v0.17.2</property>
  <property name="meta.attr.MAJOR_BRAND.markup">isom</property>
  <property name="meta.attr.MINOR_VERSION.markup">512</property>
  <property name="meta.attr.COMPATIBLE_BRANDS.markup">isomiso2avc1mp41</property>
  <property name="meta.attr.ENCODER.markup">Lavf60.3.100</property>
  <property name="seekable">1</property>
  <property name="meta.media.sample_aspect_num">1</property>
  <property name="meta.media.sample_aspect_den">1</property>
  <property name="aspect_ratio">1</property>
  <property name="format">3</property>
  <property name="kdenlive:clipname">49.mp4</property>
  <property name="kdenlive:clip_type">2</property>
  <property name="kdenlive:folderid">653</property>
  <property name="kdenlive:id">583</property>
  <property name="kdenlive:file_size">394137</property>
  <property name="kdenlive:file_hash">9cfa2a577a72439b39fd82b120fbf32d</property>
  <property name="kdenlive:proxy">/home/xiaoxiae/.cache/kdenlive/proxy/9cfa2a577a72439b39fd82b120fbf32d.mkv</property>
  <property name="kdenlive:originalurl">video/Deletion/49.mp4</property>
  <property name="kdenlive:original.mlt_type">producer</property>
  <property name="kdenlive:original.in">0</property>
  <property name="kdenlive:original.out">59</property>
  <property name="kdenlive:original.length">60</property>
  <property name="kdenlive:original.eof">pause</property>
  <property name="kdenlive:original.resource">video/Deletion/49.mp4</property>
  <property name="kdenlive:original.meta.media.nb_streams">1</property>
  <property name="kdenlive:original.meta.media.0.stream.type">video</property>
  <property name="kdenlive:original.meta.media.0.stream.frame_rate">60</property>
  <property name="kdenlive:original.meta.media.0.stream.sample_aspect_ratio">0</property>
  <property name="kdenlive:original.meta.media.0.codec.width">3840</property>
  <property name="kdenlive:original.meta.media.0.codec.height">2160</property>
  <property name="kdenlive:original.meta.media.0.codec.rotate">0</property>
  <property name="kdenlive:original.meta.media.0.codec.pix_fmt">yuv420p</property>
  <property name="kdenlive:original.meta.media.0.codec.sample_aspect_ratio">0</property>
  <property name="kdenlive:original.meta.media.0.codec.colorspace">709</property>
  <property name="kdenlive:original.meta.media.0.codec.name">h264</property>
  <property name="kdenlive:original.meta.media.0.codec.long_name">H.264 / AVC / MPEG-4 AVC / MPEG-4 part 10</property>
  <property name="kdenlive:original.meta.media.0.codec.bit_rate">3141936</property>
  <property name="kdenlive:original.meta.attr.0.stream.handler_name.markup">VideoHandler</property>
  <property name="kdenlive:original.meta.attr.0.stream.vendor_id.markup">[0][0][0][0]</property>
  <property name="kdenlive:original.meta.attr.0.stream.encoder.markup">Lavc60.3.100 libx264</property>
  <property name="kdenlive:original.meta.attr.major_brand.markup">isom</property>
  <property name="kdenlive:original.meta.attr.minor_version.markup">512</property>
  <property name="kdenlive:original.meta.attr.compatible_brands.markup">isomiso2avc1mp41</property>
  <property name="kdenlive:original.meta.attr.encoder.markup">Lavf60.3.100</property>
  <property name="kdenlive:original.meta.attr.comment.markup">Rendered with Manim Community v0.17.2</property>
  <property name="kdenlive:original.seekable">1</property>
  <property name="kdenlive:original.width">3840</property>
  <property name="kdenlive:original.height">2160</property>
  <property name="kdenlive:original.meta.media.sample_aspect_num">1</property>
  <property name="kdenlive:original.meta.media.sample_aspect_den">1</property>
  <property name="kdenlive:original.aspect_ratio">1</property>
  <property name="kdenlive:original.format">3</property>
  <property name="kdenlive:original.audio_index">-1</property>
  <property name="kdenlive:original.video_index">0</property>
  <property name="kdenlive:original.mute_on_pause">0</property>
  <property name="kdenlive:original.mlt_service">avformat-novalidate</property>
  <property name="kdenlive:original.meta.media.frame_rate_num">60</property>
  <property name="kdenlive:original.meta.media.frame_rate_den">1</property>
  <property name="kdenlive:original.meta.media.colorspace">709</property>
  <property name="kdenlive:original.meta.media.color_trc">2</property>
  <property name="kdenlive:original.meta.media.has_b_frames">2</property>
  <property name="kdenlive:original.meta.media.width">3840</property>
  <property name="kdenlive:original.meta.media.height">2160</property>
  <property name="kdenlive:original.meta.media.color_range">mpeg</property>
  <property name="kdenlive:original.meta.media.top_field_first">0</property>
  <property name="kdenlive:original.meta.media.progressive">1</property>
  <property name="kdenlive:original.kdenlive:clip_type">2</property>
  <property name="kdenlive:original.kdenlive:folderid">653</property>
  <property name="kdenlive:original.kdenlive:id">697</property>
  <property name="kdenlive:original.kdenlive:file_size">394137</property>
  <property name="kdenlive:original.kdenlive:file_hash">9cfa2a577a72439b39fd82b120fbf32d</property>
  <property name="kdenlive:original.backup">1</property>
  <property name="xml">was here</property>
  <property name="meta.media.frame_rate_num">60</property>
  <property name="meta.media.frame_rate_den">1</property>
  <property name="meta.media.colorspace">601</property>
  <property name="meta.media.color_trc">2</property>
  <property name="meta.media.has_b_frames">0</property>
  <property name="meta.media.width">640</property>
  <property name="meta.media.height">360</property>
  <property name="meta.media.color_range">full</property>
  <property name="meta.media.top_field_first">0</property>
  <property name="meta.media.progressive">1</property>
  <property name="set.test_audio">1</property>
  <property name="set.test_image">0</property>
 </producer>
 <producer id="producer719" in="00:00:00.000" out="00:00:00.983">
  <property name="length">60</property>
  <property name="eof">pause</property>
  <property name="resource">/home/xiaoxiae/.cache/kdenlive/proxy/ee4781a2d191069bbbd64a60e2e4ca3e.mkv</property>
  <property name="audio_index">-1</property>
  <property name="video_index">0</property>
  <property name="mute_on_pause">0</property>
  <property name="mlt_service">avformat-novalidate</property>
  <property name="meta.media.nb_streams">1</property>
  <property name="meta.media.0.stream.type">video</property>
  <property name="meta.media.0.stream.frame_rate">60</property>
  <property name="meta.media.0.stream.sample_aspect_ratio">0</property>
  <property name="meta.media.0.codec.width">640</property>
  <property name="meta.media.0.codec.height">360</property>
  <property name="meta.media.0.codec.rotate">0</property>
  <property name="meta.media.0.codec.pix_fmt">yuvj420p</property>
  <property name="meta.media.0.codec.sample_aspect_ratio">0</property>
  <property name="meta.media.0.codec.colorspace">601</property>
  <property name="meta.media.0.codec.name">mjpeg</property>
  <property name="meta.media.0.codec.long_name">MJPEG (Motion JPEG)</property>
  <property name="meta.media.0.codec.bit_rate">0</property>
  <property name="meta.attr.0.stream.HANDLER_NAME.markup">VideoHandler</property>
  <property name="meta.attr.0.stream.VENDOR_ID.markup">[0][0][0][0]</property>
  <property name="meta.attr.0.stream.ENCODER.markup">Lavc60.3.100 mjpeg</property>
  <property name="meta.attr.0.stream.DURATION.markup">00:00:01.000000000</property>
  <property name="meta.attr.COMMENT.markup">Rendered with Manim Community v0.17.2</property>
  <property name="meta.attr.MAJOR_BRAND.markup">isom</property>
  <property name="meta.attr.MINOR_VERSION.markup">512</property>
  <property name="meta.attr.COMPATIBLE_BRANDS.markup">isomiso2avc1mp41</property>
  <property name="meta.attr.ENCODER.markup">Lavf60.3.100</property>
  <property name="seekable">1</property>
  <property name="meta.media.sample_aspect_num">1</property>
  <property name="meta.media.sample_aspect_den">1</property>
  <property name="aspect_ratio">1</property>
  <property name="format">3</property>
  <property name="kdenlive:clipname">1.mp4</property>
  <property name="kdenlive:clip_type">2</property>
  <property name="kdenlive:folderid">599</property>
  <property name="kdenlive:id">489</property>
  <property name="kdenlive:file_size">153164</property>
  <property name="kdenlive:file_hash">ee4781a2d191069bbbd64a60e2e4ca3e</property>
  <property name="kdenlive:proxy">/home/xiaoxiae/.cache/kdenlive/proxy/ee4781a2d191069bbbd64a60e2e4ca3e.mkv</property>
  <property name="kdenlive:originalurl">video/SelectingAB/1.mp4</property>
  <property name="kdenlive:original.mlt_type">producer</property>
  <property name="kdenlive:original.in">00:00:00.000</property>
  <property name="kdenlive:original.out">00:00:00.983</property>
  <property name="kdenlive:original.length">60</property>
  <property name="kdenlive:original.eof">pause</property>
  <property name="kdenlive:original.resource">video/SelectingAB/1.mp4</property>
  <property name="kdenlive:original.meta.media.nb_streams">1</property>
  <property name="kdenlive:original.meta.media.0.stream.type">video</property>
  <property name="kdenlive:original.meta.media.0.stream.frame_rate">60</property>
  <property name="kdenlive:original.meta.media.0.stream.sample_aspect_ratio">0</property>
  <property name="kdenlive:original.meta.media.0.codec.width">3840</property>
  <property name="kdenlive:original.meta.media.0.codec.height">2160</property>
  <property name="kdenlive:original.meta.media.0.codec.rotate">0</property>
  <property name="kdenlive:original.meta.media.0.codec.pix_fmt">yuv420p</property>
  <property name="kdenlive:original.meta.media.0.codec.sample_aspect_ratio">0</property>
  <property name="kdenlive:original.meta.media.0.codec.colorspace">709</property>
  <property name="kdenlive:original.meta.media.0.codec.name">h264</property>
  <property name="kdenlive:original.meta.media.0.codec.long_name">H.264 / AVC / MPEG-4 AVC / MPEG-4 part 10</property>
  <property name="kdenlive:original.meta.media.0.codec.bit_rate">1213416</property>
  <property name="kdenlive:original.meta.attr.0.stream.handler_name.markup">VideoHandler</property>
  <property name="kdenlive:original.meta.attr.0.stream.vendor_id.markup">[0][0][0][0]</property>
  <property name="kdenlive:original.meta.attr.0.stream.encoder.markup">Lavc60.3.100 libx264</property>
  <property name="kdenlive:original.meta.attr.major_brand.markup">isom</property>
  <property name="kdenlive:original.meta.attr.minor_version.markup">512</property>
  <property name="kdenlive:original.meta.attr.compatible_brands.markup">isomiso2avc1mp41</property>
  <property name="kdenlive:original.meta.attr.encoder.markup">Lavf60.3.100</property>
  <property name="kdenlive:original.meta.attr.comment.markup">Rendered with Manim Community v0.17.2</property>
  <property name="kdenlive:original.seekable">1</property>
  <property name="kdenlive:original.width">3840</property>
  <property name="kdenlive:original.height">2160</property>
  <property name="kdenlive:original.meta.media.sample_aspect_num">1</property>
  <property name="kdenlive:original.meta.media.sample_aspect_den">1</property>
  <property name="kdenlive:original.aspect_ratio">1</property>
  <property name="kdenlive:original.format">3</property>
  <property name="kdenlive:original.audio_index">-1</property>
  <property name="kdenlive:original.video_index">0</property>
  <property name="kdenlive:original.mute_on_pause">0</property>
  <property name="kdenlive:original.mlt_service">avformat-novalidate</property>
  <property name="kdenlive:original.meta.media.frame_rate_num">60</property>
  <property name="kdenlive:original.meta.media.frame_rate_den">1</property>
  <property name="kdenlive:original.meta.media.colorspace">709</property>
  <property name="kdenlive:original.meta.media.color_trc">2</property>
  <property name="kdenlive:original.meta.media.has_b_frames">2</property>
  <property name="kdenlive:original.meta.media.width">3840</property>
  <property name="kdenlive:original.meta.media.height">2160</property>
  <property name="kdenlive:original.meta.media.color_range">mpeg</property>
  <property name="kdenlive:original.meta.media.top_field_first">0</property>
  <property name="kdenlive:original.meta.media.progressive">1</property>
  <property name="kdenlive:original.kdenlive:clip_type">2</property>
  <property name="kdenlive:original.kdenlive:folderid">599</property>
  <property name="kdenlive:original.kdenlive:id">600</property>
  <property name="kdenlive:original.kdenlive:file_size">153164</property>
  <property name="kdenlive:original.kdenlive:file_hash">ee4781a2d191069bbbd64a60e2e4ca3e</property>
  <property name="kdenlive:original.backup">1</property>
  <property name="xml">was here</property>
  <property name="meta.media.frame_rate_num">60</property>
  <property name="meta.media.frame_rate_den">1</property>
  <property name="meta.media.colorspace">601</property>
  <property name="meta.media.color_trc">2</property>
  <property name="meta.media.has_b_frames">0</property>
  <property name="meta.media.width">640</property>
  <property name="meta.media.height">360</property>
  <property name="meta.media.color_range">full</property>
  <property name="meta.media.top_field_first">0</property>
  <property name="meta.media.progressive">1</property>
  <property name="set.test_audio">1</property>
  <property name="set.test_image">0</property>
 </producer>
 <producer id="producer720" in="00:00:00.000" out="00:00:00.983">
  <property name="length">60</property>
  <property name="eof">pause</property>
  <property name="resource">/home/xiaoxiae/.cache/kdenlive/proxy/0010cd1644afb0df50e95fdbf443700d.mkv</property>
  <property name="audio_index">-1</property>
  <property name="video_index">0</property>
  <property name="mute_on_pause">0</property>
  <property name="mlt_service">avformat-novalidate</property>
  <property name="meta.media.nb_streams">1</property>
  <property name="meta.media.0.stream.type">video</property>
  <property name="meta.media.0.stream.frame_rate">60</property>
  <property name="meta.media.0.stream.sample_aspect_ratio">0</property>
  <property name="meta.media.0.codec.width">640</property>
  <property name="meta.media.0.codec.height">360</property>
  <property name="meta.media.0.codec.rotate">0</property>
  <property name="meta.media.0.codec.pix_fmt">yuvj420p</property>
  <property name="meta.media.0.codec.sample_aspect_ratio">0</property>
  <property name="meta.media.0.codec.colorspace">601</property>
  <property name="meta.media.0.codec.name">mjpeg</property>
  <property name="meta.media.0.codec.long_name">MJPEG (Motion JPEG)</property>
  <property name="meta.media.0.codec.bit_rate">0</property>
  <property name="meta.attr.0.stream.HANDLER_NAME.markup">VideoHandler</property>
  <property name="meta.attr.0.stream.VENDOR_ID.markup">[0][0][0][0]</property>
  <property name="meta.attr.0.stream.ENCODER.markup">Lavc60.3.100 mjpeg</property>
  <property name="meta.attr.0.stream.DURATION.markup">00:00:01.000000000</property>
  <property name="meta.attr.COMMENT.markup">Rendered with Manim Community v0.17.2</property>
  <property name="meta.attr.MAJOR_BRAND.markup">isom</property>
  <property name="meta.attr.MINOR_VERSION.markup">512</property>
  <property name="meta.attr.COMPATIBLE_BRANDS.markup">isomiso2avc1mp41</property>
  <property name="meta.attr.ENCODER.markup">Lavf60.3.100</property>
  <property name="seekable">1</property>
  <property name="meta.media.sample_aspect_num">1</property>
  <property name="meta.media.sample_aspect_den">1</property>
  <property name="aspect_ratio">1</property>
  <property name="format">3</property>
  <property name="kdenlive:clipname">2.mp4</property>
  <property name="kdenlive:clip_type">2</property>
  <property name="kdenlive:folderid">599</property>
  <property name="kdenlive:id">500</property>
  <property name="kdenlive:file_size">251405</property>
  <property name="kdenlive:file_hash">0010cd1644afb0df50e95fdbf443700d</property>
  <property name="kdenlive:proxy">/home/xiaoxiae/.cache/kdenlive/proxy/0010cd1644afb0df50e95fdbf443700d.mkv</property>
  <property name="kdenlive:originalurl">video/SelectingAB/2.mp4</property>
  <property name="kdenlive:original.mlt_type">producer</property>
  <property name="kdenlive:original.in">00:00:00.000</property>
  <property name="kdenlive:original.out">00:00:00.983</property>
  <property name="kdenlive:original.length">60</property>
  <property name="kdenlive:original.eof">pause</property>
  <property name="kdenlive:original.resource">video/SelectingAB/2.mp4</property>
  <property name="kdenlive:original.meta.media.nb_streams">1</property>
  <property name="kdenlive:original.meta.media.0.stream.type">video</property>
  <property name="kdenlive:original.meta.media.0.stream.frame_rate">60</property>
  <property name="kdenlive:original.meta.media.0.stream.sample_aspect_ratio">0</property>
  <property name="kdenlive:original.meta.media.0.codec.width">3840</property>
  <property name="kdenlive:original.meta.media.0.codec.height">2160</property>
  <property name="kdenlive:original.meta.media.0.codec.rotate">0</property>
  <property name="kdenlive:original.meta.media.0.codec.pix_fmt">yuv420p</property>
  <property name="kdenlive:original.meta.media.0.codec.sample_aspect_ratio">0</property>
  <property name="kdenlive:original.meta.media.0.codec.colorspace">709</property>
  <property name="kdenlive:original.meta.media.0.codec.name">h264</property>
  <property name="kdenlive:original.meta.media.0.codec.long_name">H.264 / AVC / MPEG-4 AVC / MPEG-4 part 10</property>
  <property name="kdenlive:original.meta.media.0.codec.bit_rate">2000240</property>
  <property name="kdenlive:original.meta.attr.0.stream.handler_name.markup">VideoHandler</property>
  <property name="kdenlive:original.meta.attr.0.stream.vendor_id.markup">[0][0][0][0]</property>
  <property name="kdenlive:original.meta.attr.0.stream.encoder.markup">Lavc60.3.100 libx264</property>
  <property name="kdenlive:original.meta.attr.major_brand.markup">isom</property>
  <property name="kdenlive:original.meta.attr.minor_version.markup">512</property>
  <property name="kdenlive:original.meta.attr.compatible_brands.markup">isomiso2avc1mp41</property>
  <property name="kdenlive:original.meta.attr.encoder.markup">Lavf60.3.100</property>
  <property name="kdenlive:original.meta.attr.comment.markup">Rendered with Manim Community v0.17.2</property>
  <property name="kdenlive:original.seekable">1</property>
  <property name="kdenlive:original.width">3840</property>
  <property name="kdenlive:original.height">2160</property>
  <property name="kdenlive:original.meta.media.sample_aspect_num">1</property>
  <property name="kdenlive:original.meta.media.sample_aspect_den">1</property>
  <property name="kdenlive:original.aspect_ratio">1</property>
  <property name="kdenlive:original.format">3</property>
  <property name="kdenlive:original.audio_index">-1</property>
  <property name="kdenlive:original.video_index">0</property>
  <property name="kdenlive:original.mute_on_pause">0</property>
  <property name="kdenlive:original.mlt_service">avformat-novalidate</property>
  <property name="kdenlive:original.meta.media.frame_rate_num">60</property>
  <property name="kdenlive:original.meta.media.frame_rate_den">1</property>
  <property name="kdenlive:original.meta.media.colorspace">709</property>
  <property name="kdenlive:original.meta.media.color_trc">2</property>
  <property name="kdenlive:original.meta.media.has_b_frames">2</property>
  <property name="kdenlive:original.meta.media.width">3840</property>
  <property name="kdenlive:original.meta.media.height">2160</property>
  <property name="kdenlive:original.meta.media.color_range">mpeg</property>
  <property name="kdenlive:original.meta.media.top_field_first">0</property>
  <property name="kdenlive:original.meta.media.progressive">1</property>
  <property name="kdenlive:original.kdenlive:clip_type">2</property>
  <property name="kdenlive:original.kdenlive:folderid">599</property>
  <property name="kdenlive:original.kdenlive:id">611</property>
  <property name="kdenlive:original.kdenlive:file_size">251405</property>
  <property name="kdenlive:original.kdenlive:file_hash">0010cd1644afb0df50e95fdbf443700d</property>
  <property name="kdenlive:original.backup">1</property>
  <property name="xml">was here</property>
  <property name="meta.media.frame_rate_num">60</property>
  <property name="meta.media.frame_rate_den">1</property>
  <property name="meta.media.colorspace">601</property>
  <property name="meta.media.color_trc">2</property>
  <property name="meta.media.has_b_frames">0</property>
  <property name="meta.media.width">640</property>
  <property name="meta.media.height">360</property>
  <property name="meta.media.color_range">full</property>
  <property name="meta.media.top_field_first">0</property>
  <property name="meta.media.progressive">1</property>
  <property name="set.test_audio">1</property>
  <property name="set.test_image">0</property>
 </producer>
 <producer id="producer721" in="00:00:00.000" out="00:00:00.983">
  <property name="length">60</property>
  <property name="eof">pause</property>
  <property name="resource">/home/xiaoxiae/.cache/kdenlive/proxy/d76550e874e1436812404ed30140e546.mkv</property>
  <property name="audio_index">-1</property>
  <property name="video_index">0</property>
  <property name="mute_on_pause">0</property>
  <property name="mlt_service">avformat-novalidate</property>
  <property name="meta.media.nb_streams">1</property>
  <property name="meta.media.0.stream.type">video</property>
  <property name="meta.media.0.stream.frame_rate">60</property>
  <property name="meta.media.0.stream.sample_aspect_ratio">0</property>
  <property name="meta.media.0.codec.width">640</property>
  <property name="meta.media.0.codec.height">360</property>
  <property name="meta.media.0.codec.rotate">0</property>
  <property name="meta.media.0.codec.pix_fmt">yuvj420p</property>
  <property name="meta.media.0.codec.sample_aspect_ratio">0</property>
  <property name="meta.media.0.codec.colorspace">601</property>
  <property name="meta.media.0.codec.name">mjpeg</property>
  <property name="meta.media.0.codec.long_name">MJPEG (Motion JPEG)</property>
  <property name="meta.media.0.codec.bit_rate">0</property>
  <property name="meta.attr.0.stream.HANDLER_NAME.markup">VideoHandler</property>
  <property name="meta.attr.0.stream.VENDOR_ID.markup">[0][0][0][0]</property>
  <property name="meta.attr.0.stream.ENCODER.markup">Lavc60.3.100 mjpeg</property>
  <property name="meta.attr.0.stream.DURATION.markup">00:00:01.000000000</property>
  <property name="meta.attr.COMMENT.markup">Rendered with Manim Community v0.17.2</property>
  <property name="meta.attr.MAJOR_BRAND.markup">isom</property>
  <property name="meta.attr.MINOR_VERSION.markup">512</property>
  <property name="meta.attr.COMPATIBLE_BRANDS.markup">isomiso2avc1mp41</property>
  <property name="meta.attr.ENCODER.markup">Lavf60.3.100</property>
  <property name="seekable">1</property>
  <property name="meta.media.sample_aspect_num">1</property>
  <property name="meta.media.sample_aspect_den">1</property>
  <property name="aspect_ratio">1</property>
  <property name="format">3</property>
  <property name="kdenlive:clipname">3.mp4</property>
  <property name="kdenlive:clip_type">2</property>
  <property name="kdenlive:folderid">599</property>
  <property name="kdenlive:id">501</property>
  <property name="kdenlive:file_size">205208</property>
  <property name="kdenlive:file_hash">d76550e874e1436812404ed30140e546</property>
  <property name="kdenlive:proxy">/home/xiaoxiae/.cache/kdenlive/proxy/d76550e874e1436812404ed30140e546.mkv</property>
  <property name="kdenlive:originalurl">video/SelectingAB/3.mp4</property>
  <property name="kdenlive:original.mlt_type">producer</property>
  <property name="kdenlive:original.in">00:00:00.000</property>
  <property name="kdenlive:original.out">00:00:00.983</property>
  <property name="kdenlive:original.length">60</property>
  <property name="kdenlive:original.eof">pause</property>
  <property name="kdenlive:original.resource">video/SelectingAB/3.mp4</property>
  <property name="kdenlive:original.meta.media.nb_streams">1</property>
  <property name="kdenlive:original.meta.media.0.stream.type">video</property>
  <property name="kdenlive:original.meta.media.0.stream.frame_rate">60</property>
  <property name="kdenlive:original.meta.media.0.stream.sample_aspect_ratio">0</property>
  <property name="kdenlive:original.meta.media.0.codec.width">3840</property>
  <property name="kdenlive:original.meta.media.0.codec.height">2160</property>
  <property name="kdenlive:original.meta.media.0.codec.rotate">0</property>
  <property name="kdenlive:original.meta.media.0.codec.pix_fmt">yuv420p</property>
  <property name="kdenlive:original.meta.media.0.codec.sample_aspect_ratio">0</property>
  <property name="kdenlive:original.meta.media.0.codec.colorspace">709</property>
  <property name="kdenlive:original.meta.media.0.codec.name">h264</property>
  <property name="kdenlive:original.meta.media.0.codec.long_name">H.264 / AVC / MPEG-4 AVC / MPEG-4 part 10</property>
  <property name="kdenlive:original.meta.media.0.codec.bit_rate">1629896</property>
  <property name="kdenlive:original.meta.attr.0.stream.handler_name.markup">VideoHandler</property>
  <property name="kdenlive:original.meta.attr.0.stream.vendor_id.markup">[0][0][0][0]</property>
  <property name="kdenlive:original.meta.attr.0.stream.encoder.markup">Lavc60.3.100 libx264</property>
  <property name="kdenlive:original.meta.attr.major_brand.markup">isom</property>
  <property name="kdenlive:original.meta.attr.minor_version.markup">512</property>
  <property name="kdenlive:original.meta.attr.compatible_brands.markup">isomiso2avc1mp41</property>
  <property name="kdenlive:original.meta.attr.encoder.markup">Lavf60.3.100</property>
  <property name="kdenlive:original.meta.attr.comment.markup">Rendered with Manim Community v0.17.2</property>
  <property name="kdenlive:original.seekable">1</property>
  <property name="kdenlive:original.width">3840</property>
  <property name="kdenlive:original.height">2160</property>
  <property name="kdenlive:original.meta.media.sample_aspect_num">1</property>
  <property name="kdenlive:original.meta.media.sample_aspect_den">1</property>
  <property name="kdenlive:original.aspect_ratio">1</property>
  <property name="kdenlive:original.format">3</property>
  <property name="kdenlive:original.audio_index">-1</property>
  <property name="kdenlive:original.video_index">0</property>
  <property name="kdenlive:original.mute_on_pause">0</property>
  <property name="kdenlive:original.mlt_service">avformat-novalidate</property>
  <property name="kdenlive:original.meta.media.frame_rate_num">60</property>
  <property name="kdenlive:original.meta.media.frame_rate_den">1</property>
  <property name="kdenlive:original.meta.media.colorspace">709</property>
  <property name="kdenlive:original.meta.media.color_trc">2</property>
  <property name="kdenlive:original.meta.media.has_b_frames">2</property>
  <property name="kdenlive:original.meta.media.width">3840</property>
  <property name="kdenlive:original.meta.media.height">2160</property>
  <property name="kdenlive:original.meta.media.color_range">mpeg</property>
  <property name="kdenlive:original.meta.media.top_field_first">0</property>
  <property name="kdenlive:original.meta.media.progressive">1</property>
  <property name="kdenlive:original.kdenlive:clip_type">2</property>
  <property name="kdenlive:original.kdenlive:folderid">599</property>
  <property name="kdenlive:original.kdenlive:id">612</property>
  <property name="kdenlive:original.kdenlive:file_size">205208</property>
  <property name="kdenlive:original.kdenlive:file_hash">d76550e874e1436812404ed30140e546</property>
  <property name="kdenlive:original.backup">1</property>
  <property name="xml">was here</property>
  <property name="meta.media.frame_rate_num">60</property>
  <property name="meta.media.frame_rate_den">1</property>
  <property name="meta.media.colorspace">601</property>
  <property name="meta.media.color_trc">2</property>
  <property name="meta.media.has_b_frames">0</property>
  <property name="meta.media.width">640</property>
  <property name="meta.media.height">360</property>
  <property name="meta.media.color_range">full</property>
  <property name="meta.media.top_field_first">0</property>
  <property name="meta.media.progressive">1</property>
  <property name="set.test_audio">1</property>
  <property name="set.test_image">0</property>
 </producer>
 <producer id="producer722" in="00:00:00.000" out="00:00:01.483">
  <property name="length">90</property>
  <property name="eof">pause</property>
  <property name="resource">/home/xiaoxiae/.cache/kdenlive/proxy/8012fa06e889e408e6dab14cb0387967.mkv</property>
  <property name="audio_index">-1</property>
  <property name="video_index">0</property>
  <property name="mute_on_pause">0</property>
  <property name="mlt_service">avformat-novalidate</property>
  <property name="meta.media.nb_streams">1</property>
  <property name="meta.media.0.stream.type">video</property>
  <property name="meta.media.0.stream.frame_rate">60</property>
  <property name="meta.media.0.stream.sample_aspect_ratio">0</property>
  <property name="meta.media.0.codec.width">640</property>
  <property name="meta.media.0.codec.height">360</property>
  <property name="meta.media.0.codec.rotate">0</property>
  <property name="meta.media.0.codec.pix_fmt">yuvj420p</property>
  <property name="meta.media.0.codec.sample_aspect_ratio">0</property>
  <property name="meta.media.0.codec.colorspace">601</property>
  <property name="meta.media.0.codec.name">mjpeg</property>
  <property name="meta.media.0.codec.long_name">MJPEG (Motion JPEG)</property>
  <property name="meta.media.0.codec.bit_rate">0</property>
  <property name="meta.attr.0.stream.HANDLER_NAME.markup">VideoHandler</property>
  <property name="meta.attr.0.stream.VENDOR_ID.markup">[0][0][0][0]</property>
  <property name="meta.attr.0.stream.ENCODER.markup">Lavc60.3.100 mjpeg</property>
  <property name="meta.attr.0.stream.DURATION.markup">00:00:01.500000000</property>
  <property name="meta.attr.COMMENT.markup">Rendered with Manim Community v0.17.2</property>
  <property name="meta.attr.MAJOR_BRAND.markup">isom</property>
  <property name="meta.attr.MINOR_VERSION.markup">512</property>
  <property name="meta.attr.COMPATIBLE_BRANDS.markup">isomiso2avc1mp41</property>
  <property name="meta.attr.ENCODER.markup">Lavf60.3.100</property>
  <property name="seekable">1</property>
  <property name="meta.media.sample_aspect_num">1</property>
  <property name="meta.media.sample_aspect_den">1</property>
  <property name="aspect_ratio">1</property>
  <property name="format">3</property>
  <property name="kdenlive:clipname">4.mp4</property>
  <property name="kdenlive:clip_type">2</property>
  <property name="kdenlive:folderid">599</property>
  <property name="kdenlive:id">502</property>
  <property name="kdenlive:file_size">141244</property>
  <property name="kdenlive:file_hash">8012fa06e889e408e6dab14cb0387967</property>
  <property name="kdenlive:proxy">/home/xiaoxiae/.cache/kdenlive/proxy/8012fa06e889e408e6dab14cb0387967.mkv</property>
  <property name="kdenlive:originalurl">video/SelectingAB/4.mp4</property>
  <property name="kdenlive:original.mlt_type">producer</property>
  <property name="kdenlive:original.in">00:00:00.000</property>
  <property name="kdenlive:original.out">00:00:01.483</property>
  <property name="kdenlive:original.length">90</property>
  <property name="kdenlive:original.eof">pause</property>
  <property name="kdenlive:original.resource">video/SelectingAB/4.mp4</property>
  <property name="kdenlive:original.meta.media.nb_streams">1</property>
  <property name="kdenlive:original.meta.media.0.stream.type">video</property>
  <property name="kdenlive:original.meta.media.0.stream.frame_rate">60</property>
  <property name="kdenlive:original.meta.media.0.stream.sample_aspect_ratio">0</property>
  <property name="kdenlive:original.meta.media.0.codec.width">3840</property>
  <property name="kdenlive:original.meta.media.0.codec.height">2160</property>
  <property name="kdenlive:original.meta.media.0.codec.rotate">0</property>
  <property name="kdenlive:original.meta.media.0.codec.pix_fmt">yuv420p</property>
  <property name="kdenlive:original.meta.media.0.codec.sample_aspect_ratio">0</property>
  <property name="kdenlive:original.meta.media.0.codec.colorspace">709</property>
  <property name="kdenlive:original.meta.media.0.codec.name">h264</property>
  <property name="kdenlive:original.meta.media.0.codec.long_name">H.264 / AVC / MPEG-4 AVC / MPEG-4 part 10</property>
  <property name="kdenlive:original.meta.media.0.codec.bit_rate">743024</property>
  <property name="kdenlive:original.meta.attr.0.stream.handler_name.markup">VideoHandler</property>
  <property name="kdenlive:original.meta.attr.0.stream.vendor_id.markup">[0][0][0][0]</property>
  <property name="kdenlive:original.meta.attr.0.stream.encoder.markup">Lavc60.3.100 libx264</property>
  <property name="kdenlive:original.meta.attr.major_brand.markup">isom</property>
  <property name="kdenlive:original.meta.attr.minor_version.markup">512</property>
  <property name="kdenlive:original.meta.attr.compatible_brands.markup">isomiso2avc1mp41</property>
  <property name="kdenlive:original.meta.attr.encoder.markup">Lavf60.3.100</property>
  <property name="kdenlive:original.meta.attr.comment.markup">Rendered with Manim Community v0.17.2</property>
  <property name="kdenlive:original.seekable">1</property>
  <property name="kdenlive:original.width">3840</property>
  <property name="kdenlive:original.height">2160</property>
  <property name="kdenlive:original.meta.media.sample_aspect_num">1</property>
  <property name="kdenlive:original.meta.media.sample_aspect_den">1</property>
  <property name="kdenlive:original.aspect_ratio">1</property>
  <property name="kdenlive:original.format">3</property>
  <property name="kdenlive:original.audio_index">-1</property>
  <property name="kdenlive:original.video_index">0</property>
  <property name="kdenlive:original.mute_on_pause">0</property>
  <property name="kdenlive:original.mlt_service">avformat-novalidate</property>
  <property name="kdenlive:original.meta.media.frame_rate_num">60</property>
  <property name="kdenlive:original.meta.media.frame_rate_den">1</property>
  <property name="kdenlive:original.meta.media.colorspace">709</property>
  <property name="kdenlive:original.meta.media.color_trc">2</property>
  <property name="kdenlive:original.meta.media.has_b_frames">2</property>
  <property name="kdenlive:original.meta.media.width">3840</property>
  <property name="kdenlive:original.meta.media.height">2160</property>
  <property name="kdenlive:original.meta.media.color_range">mpeg</property>
  <property name="kdenlive:original.meta.media.top_field_first">0</property>
  <property name="kdenlive:original.meta.media.progressive">1</property>
  <property name="kdenlive:original.kdenlive:clip_type">2</property>
  <property name="kdenlive:original.kdenlive:folderid">599</property>
  <property name="kdenlive:original.kdenlive:id">613</property>
  <property name="kdenlive:original.kdenlive:file_size">141244</property>
  <property name="kdenlive:original.kdenlive:file_hash">8012fa06e889e408e6dab14cb0387967</property>
  <property name="kdenlive:original.backup">1</property>
  <property name="xml">was here</property>
  <property name="meta.media.frame_rate_num">60</property>
  <property name="meta.media.frame_rate_den">1</property>
  <property name="meta.media.colorspace">601</property>
  <property name="meta.media.color_trc">2</property>
  <property name="meta.media.has_b_frames">0</property>
  <property name="meta.media.width">640</property>
  <property name="meta.media.height">360</property>
  <property name="meta.media.color_range">full</property>
  <property name="meta.media.top_field_first">0</property>
  <property name="meta.media.progressive">1</property>
  <property name="set.test_audio">1</property>
  <property name="set.test_image">0</property>
 </producer>
 <producer id="producer723" in="00:00:00.000" out="00:00:00.983">
  <property name="length">60</property>
  <property name="eof">pause</property>
  <property name="resource">/home/xiaoxiae/.cache/kdenlive/proxy/679d7125a15a68a65330ee8cf3733767.mkv</property>
  <property name="audio_index">-1</property>
  <property name="video_index">0</property>
  <property name="mute_on_pause">0</property>
  <property name="mlt_service">avformat-novalidate</property>
  <property name="meta.media.nb_streams">1</property>
  <property name="meta.media.0.stream.type">video</property>
  <property name="meta.media.0.stream.frame_rate">60</property>
  <property name="meta.media.0.stream.sample_aspect_ratio">0</property>
  <property name="meta.media.0.codec.width">640</property>
  <property name="meta.media.0.codec.height">360</property>
  <property name="meta.media.0.codec.rotate">0</property>
  <property name="meta.media.0.codec.pix_fmt">yuvj420p</property>
  <property name="meta.media.0.codec.sample_aspect_ratio">0</property>
  <property name="meta.media.0.codec.colorspace">601</property>
  <property name="meta.media.0.codec.name">mjpeg</property>
  <property name="meta.media.0.codec.long_name">MJPEG (Motion JPEG)</property>
  <property name="meta.media.0.codec.bit_rate">0</property>
  <property name="meta.attr.0.stream.HANDLER_NAME.markup">VideoHandler</property>
  <property name="meta.attr.0.stream.VENDOR_ID.markup">[0][0][0][0]</property>
  <property name="meta.attr.0.stream.ENCODER.markup">Lavc60.3.100 mjpeg</property>
  <property name="meta.attr.0.stream.DURATION.markup">00:00:01.000000000</property>
  <property name="meta.attr.COMMENT.markup">Rendered with Manim Community v0.17.2</property>
  <property name="meta.attr.MAJOR_BRAND.markup">isom</property>
  <property name="meta.attr.MINOR_VERSION.markup">512</property>
  <property name="meta.attr.COMPATIBLE_BRANDS.markup">isomiso2avc1mp41</property>
  <property name="meta.attr.ENCODER.markup">Lavf60.3.100</property>
  <property name="seekable">1</property>
  <property name="meta.media.sample_aspect_num">1</property>
  <property name="meta.media.sample_aspect_den">1</property>
  <property name="aspect_ratio">1</property>
  <property name="format">3</property>
  <property name="kdenlive:clipname">5.mp4</property>
  <property name="kdenlive:clip_type">2</property>
  <property name="kdenlive:folderid">599</property>
  <property name="kdenlive:id">503</property>
  <property name="kdenlive:file_size">368060</property>
  <property name="kdenlive:file_hash">679d7125a15a68a65330ee8cf3733767</property>
  <property name="kdenlive:proxy">/home/xiaoxiae/.cache/kdenlive/proxy/679d7125a15a68a65330ee8cf3733767.mkv</property>
  <property name="kdenlive:originalurl">video/SelectingAB/5.mp4</property>
  <property name="kdenlive:original.mlt_type">producer</property>
  <property name="kdenlive:original.in">00:00:00.000</property>
  <property name="kdenlive:original.out">00:00:00.983</property>
  <property name="kdenlive:original.length">60</property>
  <property name="kdenlive:original.eof">pause</property>
  <property name="kdenlive:original.resource">video/SelectingAB/5.mp4</property>
  <property name="kdenlive:original.meta.media.nb_streams">1</property>
  <property name="kdenlive:original.meta.media.0.stream.type">video</property>
  <property name="kdenlive:original.meta.media.0.stream.frame_rate">60</property>
  <property name="kdenlive:original.meta.media.0.stream.sample_aspect_ratio">0</property>
  <property name="kdenlive:original.meta.media.0.codec.width">3840</property>
  <property name="kdenlive:original.meta.media.0.codec.height">2160</property>
  <property name="kdenlive:original.meta.media.0.codec.rotate">0</property>
  <property name="kdenlive:original.meta.media.0.codec.pix_fmt">yuv420p</property>
  <property name="kdenlive:original.meta.media.0.codec.sample_aspect_ratio">0</property>
  <property name="kdenlive:original.meta.media.0.codec.colorspace">709</property>
  <property name="kdenlive:original.meta.media.0.codec.name">h264</property>
  <property name="kdenlive:original.meta.media.0.codec.long_name">H.264 / AVC / MPEG-4 AVC / MPEG-4 part 10</property>
  <property name="kdenlive:original.meta.media.0.codec.bit_rate">2932840</property>
  <property name="kdenlive:original.meta.attr.0.stream.handler_name.markup">VideoHandler</property>
  <property name="kdenlive:original.meta.attr.0.stream.vendor_id.markup">[0][0][0][0]</property>
  <property name="kdenlive:original.meta.attr.0.stream.encoder.markup">Lavc60.3.100 libx264</property>
  <property name="kdenlive:original.meta.attr.major_brand.markup">isom</property>
  <property name="kdenlive:original.meta.attr.minor_version.markup">512</property>
  <property name="kdenlive:original.meta.attr.compatible_brands.markup">isomiso2avc1mp41</property>
  <property name="kdenlive:original.meta.attr.encoder.markup">Lavf60.3.100</property>
  <property name="kdenlive:original.meta.attr.comment.markup">Rendered with Manim Community v0.17.2</property>
  <property name="kdenlive:original.seekable">1</property>
  <property name="kdenlive:original.width">3840</property>
  <property name="kdenlive:original.height">2160</property>
  <property name="kdenlive:original.meta.media.sample_aspect_num">1</property>
  <property name="kdenlive:original.meta.media.sample_aspect_den">1</property>
  <property name="kdenlive:original.aspect_ratio">1</property>
  <property name="kdenlive:original.format">3</property>
  <property name="kdenlive:original.audio_index">-1</property>
  <property name="kdenlive:original.video_index">0</property>
  <property name="kdenlive:original.mute_on_pause">0</property>
  <property name="kdenlive:original.mlt_service">avformat-novalidate</property>
  <property name="kdenlive:original.meta.media.frame_rate_num">60</property>
  <property name="kdenlive:original.meta.media.frame_rate_den">1</property>
  <property name="kdenlive:original.meta.media.colorspace">709</property>
  <property name="kdenlive:original.meta.media.color_trc">2</property>
  <property name="kdenlive:original.meta.media.has_b_frames">2</property>
  <property name="kdenlive:original.meta.media.width">3840</property>
  <property name="kdenlive:original.meta.media.height">2160</property>
  <property name="kdenlive:original.meta.media.color_range">mpeg</property>
  <property name="kdenlive:original.meta.media.top_field_first">0</property>
  <property name="kdenlive:original.meta.media.progressive">1</property>
  <property name="kdenlive:original.kdenlive:clip_type">2</property>
  <property name="kdenlive:original.kdenlive:folderid">599</property>
  <property name="kdenlive:original.kdenlive:id">614</property>
  <property name="kdenlive:original.kdenlive:file_size">368060</property>
  <property name="kdenlive:original.kdenlive:file_hash">679d7125a15a68a65330ee8cf3733767</property>
  <property name="kdenlive:original.backup">1</property>
  <property name="xml">was here</property>
  <property name="meta.media.frame_rate_num">60</property>
  <property name="meta.media.frame_rate_den">1</property>
  <property name="meta.media.colorspace">601</property>
  <property name="meta.media.color_trc">2</property>
  <property name="meta.media.has_b_frames">0</property>
  <property name="meta.media.width">640</property>
  <property name="meta.media.height">360</property>
  <property name="meta.media.color_range">full</property>
  <property name="meta.media.top_field_first">0</property>
  <property name="meta.media.progressive">1</property>
  <property name="set.test_audio">1</property>
  <property name="set.test_image">0</property>
 </producer>
 <producer id="producer724" in="00:00:00.000" out="00:00:00.983">
  <property name="length">60</property>
  <property name="eof">pause</property>
  <property name="resource">/home/xiaoxiae/.cache/kdenlive/proxy/d95d7ccff628179ffe80fd64a01f2676.mkv</property>
  <property name="audio_index">-1</property>
  <property name="video_index">0</property>
  <property name="mute_on_pause">0</property>
  <property name="mlt_service">avformat-novalidate</property>
  <property name="meta.media.nb_streams">1</property>
  <property name="meta.media.0.stream.type">video</property>
  <property name="meta.media.0.stream.frame_rate">60</property>
  <property name="meta.media.0.stream.sample_aspect_ratio">0</property>
  <property name="meta.media.0.codec.width">640</property>
  <property name="meta.media.0.codec.height">360</property>
  <property name="meta.media.0.codec.rotate">0</property>
  <property name="meta.media.0.codec.pix_fmt">yuvj420p</property>
  <property name="meta.media.0.codec.sample_aspect_ratio">0</property>
  <property name="meta.media.0.codec.colorspace">601</property>
  <property name="meta.media.0.codec.name">mjpeg</property>
  <property name="meta.media.0.codec.long_name">MJPEG (Motion JPEG)</property>
  <property name="meta.media.0.codec.bit_rate">0</property>
  <property name="meta.attr.0.stream.HANDLER_NAME.markup">VideoHandler</property>
  <property name="meta.attr.0.stream.VENDOR_ID.markup">[0][0][0][0]</property>
  <property name="meta.attr.0.stream.ENCODER.markup">Lavc60.3.100 mjpeg</property>
  <property name="meta.attr.0.stream.DURATION.markup">00:00:01.000000000</property>
  <property name="meta.attr.COMMENT.markup">Rendered with Manim Community v0.17.2</property>
  <property name="meta.attr.MAJOR_BRAND.markup">isom</property>
  <property name="meta.attr.MINOR_VERSION.markup">512</property>
  <property name="meta.attr.COMPATIBLE_BRANDS.markup">isomiso2avc1mp41</property>
  <property name="meta.attr.ENCODER.markup">Lavf60.3.100</property>
  <property name="seekable">1</property>
  <property name="meta.media.sample_aspect_num">1</property>
  <property name="meta.media.sample_aspect_den">1</property>
  <property name="aspect_ratio">1</property>
  <property name="format">3</property>
  <property name="kdenlive:clipname">6.mp4</property>
  <property name="kdenlive:clip_type">2</property>
  <property name="kdenlive:folderid">599</property>
  <property name="kdenlive:id">504</property>
  <property name="kdenlive:file_size">55772</property>
  <property name="kdenlive:file_hash">d95d7ccff628179ffe80fd64a01f2676</property>
  <property name="kdenlive:proxy">/home/xiaoxiae/.cache/kdenlive/proxy/d95d7ccff628179ffe80fd64a01f2676.mkv</property>
  <property name="kdenlive:originalurl">video/SelectingAB/6.mp4</property>
  <property name="kdenlive:original.mlt_type">producer</property>
  <property name="kdenlive:original.in">00:00:00.000</property>
  <property name="kdenlive:original.out">00:00:00.983</property>
  <property name="kdenlive:original.length">60</property>
  <property name="kdenlive:original.eof">pause</property>
  <property name="kdenlive:original.resource">video/SelectingAB/6.mp4</property>
  <property name="kdenlive:original.meta.media.nb_streams">1</property>
  <property name="kdenlive:original.meta.media.0.stream.type">video</property>
  <property name="kdenlive:original.meta.media.0.stream.frame_rate">60</property>
  <property name="kdenlive:original.meta.media.0.stream.sample_aspect_ratio">0</property>
  <property name="kdenlive:original.meta.media.0.codec.width">3840</property>
  <property name="kdenlive:original.meta.media.0.codec.height">2160</property>
  <property name="kdenlive:original.meta.media.0.codec.rotate">0</property>
  <property name="kdenlive:original.meta.media.0.codec.pix_fmt">yuv420p</property>
  <property name="kdenlive:original.meta.media.0.codec.sample_aspect_ratio">0</property>
  <property name="kdenlive:original.meta.media.0.codec.colorspace">709</property>
  <property name="kdenlive:original.meta.media.0.codec.name">h264</property>
  <property name="kdenlive:original.meta.media.0.codec.long_name">H.264 / AVC / MPEG-4 AVC / MPEG-4 part 10</property>
  <property name="kdenlive:original.meta.media.0.codec.bit_rate">433896</property>
  <property name="kdenlive:original.meta.attr.0.stream.handler_name.markup">VideoHandler</property>
  <property name="kdenlive:original.meta.attr.0.stream.vendor_id.markup">[0][0][0][0]</property>
  <property name="kdenlive:original.meta.attr.0.stream.encoder.markup">Lavc60.3.100 libx264</property>
  <property name="kdenlive:original.meta.attr.major_brand.markup">isom</property>
  <property name="kdenlive:original.meta.attr.minor_version.markup">512</property>
  <property name="kdenlive:original.meta.attr.compatible_brands.markup">isomiso2avc1mp41</property>
  <property name="kdenlive:original.meta.attr.encoder.markup">Lavf60.3.100</property>
  <property name="kdenlive:original.meta.attr.comment.markup">Rendered with Manim Community v0.17.2</property>
  <property name="kdenlive:original.seekable">1</property>
  <property name="kdenlive:original.width">3840</property>
  <property name="kdenlive:original.height">2160</property>
  <property name="kdenlive:original.meta.media.sample_aspect_num">1</property>
  <property name="kdenlive:original.meta.media.sample_aspect_den">1</property>
  <property name="kdenlive:original.aspect_ratio">1</property>
  <property name="kdenlive:original.format">3</property>
  <property name="kdenlive:original.audio_index">-1</property>
  <property name="kdenlive:original.video_index">0</property>
  <property name="kdenlive:original.mute_on_pause">0</property>
  <property name="kdenlive:original.mlt_service">avformat-novalidate</property>
  <property name="kdenlive:original.meta.media.frame_rate_num">60</property>
  <property name="kdenlive:original.meta.media.frame_rate_den">1</property>
  <property name="kdenlive:original.meta.media.colorspace">709</property>
  <property name="kdenlive:original.meta.media.color_trc">2</property>
  <property name="kdenlive:original.meta.media.has_b_frames">2</property>
  <property name="kdenlive:original.meta.media.width">3840</property>
  <property name="kdenlive:original.meta.media.height">2160</property>
  <property name="kdenlive:original.meta.media.color_range">mpeg</property>
  <property name="kdenlive:original.meta.media.top_field_first">0</property>
  <property name="kdenlive:original.meta.media.progressive">1</property>
  <property name="kdenlive:original.kdenlive:clip_type">2</property>
  <property name="kdenlive:original.kdenlive:folderid">599</property>
  <property name="kdenlive:original.kdenlive:id">615</property>
  <property name="kdenlive:original.kdenlive:file_size">55772</property>
  <property name="kdenlive:original.kdenlive:file_hash">d95d7ccff628179ffe80fd64a01f2676</property>
  <property name="kdenlive:original.backup">1</property>
  <property name="xml">was here</property>
  <property name="meta.media.frame_rate_num">60</property>
  <property name="meta.media.frame_rate_den">1</property>
  <property name="meta.media.colorspace">601</property>
  <property name="meta.media.color_trc">2</property>
  <property name="meta.media.has_b_frames">0</property>
  <property name="meta.media.width">640</property>
  <property name="meta.media.height">360</property>
  <property name="meta.media.color_range">full</property>
  <property name="meta.media.top_field_first">0</property>
  <property name="meta.media.progressive">1</property>
  <property name="set.test_audio">1</property>
  <property name="set.test_image">0</property>
 </producer>
 <producer id="producer725" in="00:00:00.000" out="00:00:00.983">
  <property name="length">60</property>
  <property name="eof">pause</property>
  <property name="resource">/home/xiaoxiae/.cache/kdenlive/proxy/e579d3b76ac05f2690bd91ed09d7523a.mkv</property>
  <property name="audio_index">-1</property>
  <property name="video_index">0</property>
  <property name="mute_on_pause">0</property>
  <property name="mlt_service">avformat-novalidate</property>
  <property name="meta.media.nb_streams">1</property>
  <property name="meta.media.0.stream.type">video</property>
  <property name="meta.media.0.stream.frame_rate">60</property>
  <property name="meta.media.0.stream.sample_aspect_ratio">0</property>
  <property name="meta.media.0.codec.width">640</property>
  <property name="meta.media.0.codec.height">360</property>
  <property name="meta.media.0.codec.rotate">0</property>
  <property name="meta.media.0.codec.pix_fmt">yuvj420p</property>
  <property name="meta.media.0.codec.sample_aspect_ratio">0</property>
  <property name="meta.media.0.codec.colorspace">601</property>
  <property name="meta.media.0.codec.name">mjpeg</property>
  <property name="meta.media.0.codec.long_name">MJPEG (Motion JPEG)</property>
  <property name="meta.media.0.codec.bit_rate">0</property>
  <property name="meta.attr.0.stream.HANDLER_NAME.markup">VideoHandler</property>
  <property name="meta.attr.0.stream.VENDOR_ID.markup">[0][0][0][0]</property>
  <property name="meta.attr.0.stream.ENCODER.markup">Lavc60.3.100 mjpeg</property>
  <property name="meta.attr.0.stream.DURATION.markup">00:00:01.000000000</property>
  <property name="meta.attr.COMMENT.markup">Rendered with Manim Community v0.17.2</property>
  <property name="meta.attr.MAJOR_BRAND.markup">isom</property>
  <property name="meta.attr.MINOR_VERSION.markup">512</property>
  <property name="meta.attr.COMPATIBLE_BRANDS.markup">isomiso2avc1mp41</property>
  <property name="meta.attr.ENCODER.markup">Lavf60.3.100</property>
  <property name="seekable">1</property>
  <property name="meta.media.sample_aspect_num">1</property>
  <property name="meta.media.sample_aspect_den">1</property>
  <property name="aspect_ratio">1</property>
  <property name="format">3</property>
  <property name="kdenlive:clipname">7.mp4</property>
  <property name="kdenlive:clip_type">2</property>
  <property name="kdenlive:folderid">599</property>
  <property name="kdenlive:id">505</property>
  <property name="kdenlive:file_size">60701</property>
  <property name="kdenlive:file_hash">e579d3b76ac05f2690bd91ed09d7523a</property>
  <property name="kdenlive:proxy">/home/xiaoxiae/.cache/kdenlive/proxy/e579d3b76ac05f2690bd91ed09d7523a.mkv</property>
  <property name="kdenlive:originalurl">video/SelectingAB/7.mp4</property>
  <property name="kdenlive:original.mlt_type">producer</property>
  <property name="kdenlive:original.in">00:00:00.000</property>
  <property name="kdenlive:original.out">00:00:00.983</property>
  <property name="kdenlive:original.length">60</property>
  <property name="kdenlive:original.eof">pause</property>
  <property name="kdenlive:original.resource">video/SelectingAB/7.mp4</property>
  <property name="kdenlive:original.meta.media.nb_streams">1</property>
  <property name="kdenlive:original.meta.media.0.stream.type">video</property>
  <property name="kdenlive:original.meta.media.0.stream.frame_rate">60</property>
  <property name="kdenlive:original.meta.media.0.stream.sample_aspect_ratio">0</property>
  <property name="kdenlive:original.meta.media.0.codec.width">3840</property>
  <property name="kdenlive:original.meta.media.0.codec.height">2160</property>
  <property name="kdenlive:original.meta.media.0.codec.rotate">0</property>
  <property name="kdenlive:original.meta.media.0.codec.pix_fmt">yuv420p</property>
  <property name="kdenlive:original.meta.media.0.codec.sample_aspect_ratio">0</property>
  <property name="kdenlive:original.meta.media.0.codec.colorspace">709</property>
  <property name="kdenlive:original.meta.media.0.codec.name">h264</property>
  <property name="kdenlive:original.meta.media.0.codec.long_name">H.264 / AVC / MPEG-4 AVC / MPEG-4 part 10</property>
  <property name="kdenlive:original.meta.media.0.codec.bit_rate">472560</property>
  <property name="kdenlive:original.meta.attr.0.stream.handler_name.markup">VideoHandler</property>
  <property name="kdenlive:original.meta.attr.0.stream.vendor_id.markup">[0][0][0][0]</property>
  <property name="kdenlive:original.meta.attr.0.stream.encoder.markup">Lavc60.3.100 libx264</property>
  <property name="kdenlive:original.meta.attr.major_brand.markup">isom</property>
  <property name="kdenlive:original.meta.attr.minor_version.markup">512</property>
  <property name="kdenlive:original.meta.attr.compatible_brands.markup">isomiso2avc1mp41</property>
  <property name="kdenlive:original.meta.attr.encoder.markup">Lavf60.3.100</property>
  <property name="kdenlive:original.meta.attr.comment.markup">Rendered with Manim Community v0.17.2</property>
  <property name="kdenlive:original.seekable">1</property>
  <property name="kdenlive:original.width">3840</property>
  <property name="kdenlive:original.height">2160</property>
  <property name="kdenlive:original.meta.media.sample_aspect_num">1</property>
  <property name="kdenlive:original.meta.media.sample_aspect_den">1</property>
  <property name="kdenlive:original.aspect_ratio">1</property>
  <property name="kdenlive:original.format">3</property>
  <property name="kdenlive:original.audio_index">-1</property>
  <property name="kdenlive:original.video_index">0</property>
  <property name="kdenlive:original.mute_on_pause">0</property>
  <property name="kdenlive:original.mlt_service">avformat-novalidate</property>
  <property name="kdenlive:original.meta.media.frame_rate_num">60</property>
  <property name="kdenlive:original.meta.media.frame_rate_den">1</property>
  <property name="kdenlive:original.meta.media.colorspace">709</property>
  <property name="kdenlive:original.meta.media.color_trc">2</property>
  <property name="kdenlive:original.meta.media.has_b_frames">2</property>
  <property name="kdenlive:original.meta.media.width">3840</property>
  <property name="kdenlive:original.meta.media.height">2160</property>
  <property name="kdenlive:original.meta.media.color_range">mpeg</property>
  <property name="kdenlive:original.meta.media.top_field_first">0</property>
  <property name="kdenlive:original.meta.media.progressive">1</property>
  <property name="kdenlive:original.kdenlive:clip_type">2</property>
  <property name="kdenlive:original.kdenlive:folderid">599</property>
  <property name="kdenlive:original.kdenlive:id">616</property>
  <property name="kdenlive:original.kdenlive:file_size">60701</property>
  <property name="kdenlive:original.kdenlive:file_hash">e579d3b76ac05f2690bd91ed09d7523a</property>
  <property name="kdenlive:original.backup">1</property>
  <property name="xml">was here</property>
  <property name="meta.media.frame_rate_num">60</property>
  <property name="meta.media.frame_rate_den">1</property>
  <property name="meta.media.colorspace">601</property>
  <property name="meta.media.color_trc">2</property>
  <property name="meta.media.has_b_frames">0</property>
  <property name="meta.media.width">640</property>
  <property name="meta.media.height">360</property>
  <property name="meta.media.color_range">full</property>
  <property name="meta.media.top_field_first">0</property>
  <property name="meta.media.progressive">1</property>
  <property name="set.test_audio">1</property>
  <property name="set.test_image">0</property>
 </producer>
 <producer id="producer726" in="00:00:00.000" out="00:00:00.983">
  <property name="length">60</property>
  <property name="eof">pause</property>
  <property name="resource">/home/xiaoxiae/.cache/kdenlive/proxy/13dbda35921d1db7385417baeb7a7552.mkv</property>
  <property name="audio_index">-1</property>
  <property name="video_index">0</property>
  <property name="mute_on_pause">0</property>
  <property name="mlt_service">avformat-novalidate</property>
  <property name="meta.media.nb_streams">1</property>
  <property name="meta.media.0.stream.type">video</property>
  <property name="meta.media.0.stream.frame_rate">60</property>
  <property name="meta.media.0.stream.sample_aspect_ratio">0</property>
  <property name="meta.media.0.codec.width">640</property>
  <property name="meta.media.0.codec.height">360</property>
  <property name="meta.media.0.codec.rotate">0</property>
  <property name="meta.media.0.codec.pix_fmt">yuvj420p</property>
  <property name="meta.media.0.codec.sample_aspect_ratio">0</property>
  <property name="meta.media.0.codec.colorspace">601</property>
  <property name="meta.media.0.codec.name">mjpeg</property>
  <property name="meta.media.0.codec.long_name">MJPEG (Motion JPEG)</property>
  <property name="meta.media.0.codec.bit_rate">0</property>
  <property name="meta.attr.0.stream.HANDLER_NAME.markup">VideoHandler</property>
  <property name="meta.attr.0.stream.VENDOR_ID.markup">[0][0][0][0]</property>
  <property name="meta.attr.0.stream.ENCODER.markup">Lavc60.3.100 mjpeg</property>
  <property name="meta.attr.0.stream.DURATION.markup">00:00:01.000000000</property>
  <property name="meta.attr.COMMENT.markup">Rendered with Manim Community v0.17.2</property>
  <property name="meta.attr.MAJOR_BRAND.markup">isom</property>
  <property name="meta.attr.MINOR_VERSION.markup">512</property>
  <property name="meta.attr.COMPATIBLE_BRANDS.markup">isomiso2avc1mp41</property>
  <property name="meta.attr.ENCODER.markup">Lavf60.3.100</property>
  <property name="seekable">1</property>
  <property name="meta.media.sample_aspect_num">1</property>
  <property name="meta.media.sample_aspect_den">1</property>
  <property name="aspect_ratio">1</property>
  <property name="format">3</property>
  <property name="kdenlive:clipname">8.mp4</property>
  <property name="kdenlive:clip_type">2</property>
  <property name="kdenlive:folderid">599</property>
  <property name="kdenlive:id">506</property>
  <property name="kdenlive:file_size">71120</property>
  <property name="kdenlive:file_hash">13dbda35921d1db7385417baeb7a7552</property>
  <property name="kdenlive:proxy">/home/xiaoxiae/.cache/kdenlive/proxy/13dbda35921d1db7385417baeb7a7552.mkv</property>
  <property name="kdenlive:originalurl">video/SelectingAB/8.mp4</property>
  <property name="kdenlive:original.mlt_type">producer</property>
  <property name="kdenlive:original.in">00:00:00.000</property>
  <property name="kdenlive:original.out">00:00:00.983</property>
  <property name="kdenlive:original.length">60</property>
  <property name="kdenlive:original.eof">pause</property>
  <property name="kdenlive:original.resource">video/SelectingAB/8.mp4</property>
  <property name="kdenlive:original.meta.media.nb_streams">1</property>
  <property name="kdenlive:original.meta.media.0.stream.type">video</property>
  <property name="kdenlive:original.meta.media.0.stream.frame_rate">60</property>
  <property name="kdenlive:original.meta.media.0.stream.sample_aspect_ratio">0</property>
  <property name="kdenlive:original.meta.media.0.codec.width">3840</property>
  <property name="kdenlive:original.meta.media.0.codec.height">2160</property>
  <property name="kdenlive:original.meta.media.0.codec.rotate">0</property>
  <property name="kdenlive:original.meta.media.0.codec.pix_fmt">yuv420p</property>
  <property name="kdenlive:original.meta.media.0.codec.sample_aspect_ratio">0</property>
  <property name="kdenlive:original.meta.media.0.codec.colorspace">709</property>
  <property name="kdenlive:original.meta.media.0.codec.name">h264</property>
  <property name="kdenlive:original.meta.media.0.codec.long_name">H.264 / AVC / MPEG-4 AVC / MPEG-4 part 10</property>
  <property name="kdenlive:original.meta.media.0.codec.bit_rate">556872</property>
  <property name="kdenlive:original.meta.attr.0.stream.handler_name.markup">VideoHandler</property>
  <property name="kdenlive:original.meta.attr.0.stream.vendor_id.markup">[0][0][0][0]</property>
  <property name="kdenlive:original.meta.attr.0.stream.encoder.markup">Lavc60.3.100 libx264</property>
  <property name="kdenlive:original.meta.attr.major_brand.markup">isom</property>
  <property name="kdenlive:original.meta.attr.minor_version.markup">512</property>
  <property name="kdenlive:original.meta.attr.compatible_brands.markup">isomiso2avc1mp41</property>
  <property name="kdenlive:original.meta.attr.encoder.markup">Lavf60.3.100</property>
  <property name="kdenlive:original.meta.attr.comment.markup">Rendered with Manim Community v0.17.2</property>
  <property name="kdenlive:original.seekable">1</property>
  <property name="kdenlive:original.width">3840</property>
  <property name="kdenlive:original.height">2160</property>
  <property name="kdenlive:original.meta.media.sample_aspect_num">1</property>
  <property name="kdenlive:original.meta.media.sample_aspect_den">1</property>
  <property name="kdenlive:original.aspect_ratio">1</property>
  <property name="kdenlive:original.format">3</property>
  <property name="kdenlive:original.audio_index">-1</property>
  <property name="kdenlive:original.video_index">0</property>
  <property name="kdenlive:original.mute_on_pause">0</property>
  <property name="kdenlive:original.mlt_service">avformat-novalidate</property>
  <property name="kdenlive:original.meta.media.frame_rate_num">60</property>
  <property name="kdenlive:original.meta.media.frame_rate_den">1</property>
  <property name="kdenlive:original.meta.media.colorspace">709</property>
  <property name="kdenlive:original.meta.media.color_trc">2</property>
  <property name="kdenlive:original.meta.media.has_b_frames">2</property>
  <property name="kdenlive:original.meta.media.width">3840</property>
  <property name="kdenlive:original.meta.media.height">2160</property>
  <property name="kdenlive:original.meta.media.color_range">mpeg</property>
  <property name="kdenlive:original.meta.media.top_field_first">0</property>
  <property name="kdenlive:original.meta.media.progressive">1</property>
  <property name="kdenlive:original.kdenlive:clip_type">2</property>
  <property name="kdenlive:original.kdenlive:folderid">599</property>
  <property name="kdenlive:original.kdenlive:id">617</property>
  <property name="kdenlive:original.kdenlive:file_size">71120</property>
  <property name="kdenlive:original.kdenlive:file_hash">13dbda35921d1db7385417baeb7a7552</property>
  <property name="kdenlive:original.backup">1</property>
  <property name="xml">was here</property>
  <property name="meta.media.frame_rate_num">60</property>
  <property name="meta.media.frame_rate_den">1</property>
  <property name="meta.media.colorspace">601</property>
  <property name="meta.media.color_trc">2</property>
  <property name="meta.media.has_b_frames">0</property>
  <property name="meta.media.width">640</property>
  <property name="meta.media.height">360</property>
  <property name="meta.media.color_range">full</property>
  <property name="meta.media.top_field_first">0</property>
  <property name="meta.media.progressive">1</property>
  <property name="set.test_audio">1</property>
  <property name="set.test_image">0</property>
 </producer>
 <producer id="producer727" in="00:00:00.000" out="00:00:00.983">
  <property name="length">60</property>
  <property name="eof">pause</property>
  <property name="resource">/home/xiaoxiae/.cache/kdenlive/proxy/dd074da46f6b43b17130c1e2ea895964.mkv</property>
  <property name="audio_index">-1</property>
  <property name="video_index">0</property>
  <property name="mute_on_pause">0</property>
  <property name="mlt_service">avformat-novalidate</property>
  <property name="meta.media.nb_streams">1</property>
  <property name="meta.media.0.stream.type">video</property>
  <property name="meta.media.0.stream.frame_rate">60</property>
  <property name="meta.media.0.stream.sample_aspect_ratio">0</property>
  <property name="meta.media.0.codec.width">640</property>
  <property name="meta.media.0.codec.height">360</property>
  <property name="meta.media.0.codec.rotate">0</property>
  <property name="meta.media.0.codec.pix_fmt">yuvj420p</property>
  <property name="meta.media.0.codec.sample_aspect_ratio">0</property>
  <property name="meta.media.0.codec.colorspace">601</property>
  <property name="meta.media.0.codec.name">mjpeg</property>
  <property name="meta.media.0.codec.long_name">MJPEG (Motion JPEG)</property>
  <property name="meta.media.0.codec.bit_rate">0</property>
  <property name="meta.attr.0.stream.HANDLER_NAME.markup">VideoHandler</property>
  <property name="meta.attr.0.stream.VENDOR_ID.markup">[0][0][0][0]</property>
  <property name="meta.attr.0.stream.ENCODER.markup">Lavc60.3.100 mjpeg</property>
  <property name="meta.attr.0.stream.DURATION.markup">00:00:01.000000000</property>
  <property name="meta.attr.COMMENT.markup">Rendered with Manim Community v0.17.2</property>
  <property name="meta.attr.MAJOR_BRAND.markup">isom</property>
  <property name="meta.attr.MINOR_VERSION.markup">512</property>
  <property name="meta.attr.COMPATIBLE_BRANDS.markup">isomiso2avc1mp41</property>
  <property name="meta.attr.ENCODER.markup">Lavf60.3.100</property>
  <property name="seekable">1</property>
  <property name="meta.media.sample_aspect_num">1</property>
  <property name="meta.media.sample_aspect_den">1</property>
  <property name="aspect_ratio">1</property>
  <property name="format">3</property>
  <property name="kdenlive:clipname">9.mp4</property>
  <property name="kdenlive:clip_type">2</property>
  <property name="kdenlive:folderid">599</property>
  <property name="kdenlive:id">507</property>
  <property name="kdenlive:file_size">44303</property>
  <property name="kdenlive:file_hash">dd074da46f6b43b17130c1e2ea895964</property>
  <property name="kdenlive:proxy">/home/xiaoxiae/.cache/kdenlive/proxy/dd074da46f6b43b17130c1e2ea895964.mkv</property>
  <property name="kdenlive:originalurl">video/SelectingAB/9.mp4</property>
  <property name="kdenlive:original.mlt_type">producer</property>
  <property name="kdenlive:original.in">00:00:00.000</property>
  <property name="kdenlive:original.out">00:00:00.983</property>
  <property name="kdenlive:original.length">60</property>
  <property name="kdenlive:original.eof">pause</property>
  <property name="kdenlive:original.resource">video/SelectingAB/9.mp4</property>
  <property name="kdenlive:original.meta.media.nb_streams">1</property>
  <property name="kdenlive:original.meta.media.0.stream.type">video</property>
  <property name="kdenlive:original.meta.media.0.stream.frame_rate">60</property>
  <property name="kdenlive:original.meta.media.0.stream.sample_aspect_ratio">0</property>
  <property name="kdenlive:original.meta.media.0.codec.width">3840</property>
  <property name="kdenlive:original.meta.media.0.codec.height">2160</property>
  <property name="kdenlive:original.meta.media.0.codec.rotate">0</property>
  <property name="kdenlive:original.meta.media.0.codec.pix_fmt">yuv420p</property>
  <property name="kdenlive:original.meta.media.0.codec.sample_aspect_ratio">0</property>
  <property name="kdenlive:original.meta.media.0.codec.colorspace">709</property>
  <property name="kdenlive:original.meta.media.0.codec.name">h264</property>
  <property name="kdenlive:original.meta.media.0.codec.long_name">H.264 / AVC / MPEG-4 AVC / MPEG-4 part 10</property>
  <property name="kdenlive:original.meta.media.0.codec.bit_rate">341440</property>
  <property name="kdenlive:original.meta.attr.0.stream.handler_name.markup">VideoHandler</property>
  <property name="kdenlive:original.meta.attr.0.stream.vendor_id.markup">[0][0][0][0]</property>
  <property name="kdenlive:original.meta.attr.0.stream.encoder.markup">Lavc60.3.100 libx264</property>
  <property name="kdenlive:original.meta.attr.major_brand.markup">isom</property>
  <property name="kdenlive:original.meta.attr.minor_version.markup">512</property>
  <property name="kdenlive:original.meta.attr.compatible_brands.markup">isomiso2avc1mp41</property>
  <property name="kdenlive:original.meta.attr.encoder.markup">Lavf60.3.100</property>
  <property name="kdenlive:original.meta.attr.comment.markup">Rendered with Manim Community v0.17.2</property>
  <property name="kdenlive:original.seekable">1</property>
  <property name="kdenlive:original.width">3840</property>
  <property name="kdenlive:original.height">2160</property>
  <property name="kdenlive:original.meta.media.sample_aspect_num">1</property>
  <property name="kdenlive:original.meta.media.sample_aspect_den">1</property>
  <property name="kdenlive:original.aspect_ratio">1</property>
  <property name="kdenlive:original.format">3</property>
  <property name="kdenlive:original.audio_index">-1</property>
  <property name="kdenlive:original.video_index">0</property>
  <property name="kdenlive:original.mute_on_pause">0</property>
  <property name="kdenlive:original.mlt_service">avformat-novalidate</property>
  <property name="kdenlive:original.meta.media.frame_rate_num">60</property>
  <property name="kdenlive:original.meta.media.frame_rate_den">1</property>
  <property name="kdenlive:original.meta.media.colorspace">709</property>
  <property name="kdenlive:original.meta.media.color_trc">2</property>
  <property name="kdenlive:original.meta.media.has_b_frames">2</property>
  <property name="kdenlive:original.meta.media.width">3840</property>
  <property name="kdenlive:original.meta.media.height">2160</property>
  <property name="kdenlive:original.meta.media.color_range">mpeg</property>
  <property name="kdenlive:original.meta.media.top_field_first">0</property>
  <property name="kdenlive:original.meta.media.progressive">1</property>
  <property name="kdenlive:original.kdenlive:clip_type">2</property>
  <property name="kdenlive:original.kdenlive:folderid">599</property>
  <property name="kdenlive:original.kdenlive:id">618</property>
  <property name="kdenlive:original.kdenlive:file_size">44303</property>
  <property name="kdenlive:original.kdenlive:file_hash">dd074da46f6b43b17130c1e2ea895964</property>
  <property name="kdenlive:original.backup">1</property>
  <property name="xml">was here</property>
  <property name="meta.media.frame_rate_num">60</property>
  <property name="meta.media.frame_rate_den">1</property>
  <property name="meta.media.colorspace">601</property>
  <property name="meta.media.color_trc">2</property>
  <property name="meta.media.has_b_frames">0</property>
  <property name="meta.media.width">640</property>
  <property name="meta.media.height">360</property>
  <property name="meta.media.color_range">full</property>
  <property name="meta.media.top_field_first">0</property>
  <property name="meta.media.progressive">1</property>
  <property name="set.test_audio">1</property>
  <property name="set.test_image">0</property>
 </producer>
 <producer id="producer728" in="00:00:00.000" out="00:00:00.983">
  <property name="length">60</property>
  <property name="eof">pause</property>
  <property name="resource">/home/xiaoxiae/.cache/kdenlive/proxy/5be5edef6525cd3b6bfe9ec5a2c4bfa7.mkv</property>
  <property name="audio_index">-1</property>
  <property name="video_index">0</property>
  <property name="mute_on_pause">0</property>
  <property name="mlt_service">avformat-novalidate</property>
  <property name="meta.media.nb_streams">1</property>
  <property name="meta.media.0.stream.type">video</property>
  <property name="meta.media.0.stream.frame_rate">60</property>
  <property name="meta.media.0.stream.sample_aspect_ratio">0</property>
  <property name="meta.media.0.codec.width">640</property>
  <property name="meta.media.0.codec.height">360</property>
  <property name="meta.media.0.codec.rotate">0</property>
  <property name="meta.media.0.codec.pix_fmt">yuvj420p</property>
  <property name="meta.media.0.codec.sample_aspect_ratio">0</property>
  <property name="meta.media.0.codec.colorspace">601</property>
  <property name="meta.media.0.codec.name">mjpeg</property>
  <property name="meta.media.0.codec.long_name">MJPEG (Motion JPEG)</property>
  <property name="meta.media.0.codec.bit_rate">0</property>
  <property name="meta.attr.0.stream.HANDLER_NAME.markup">VideoHandler</property>
  <property name="meta.attr.0.stream.VENDOR_ID.markup">[0][0][0][0]</property>
  <property name="meta.attr.0.stream.ENCODER.markup">Lavc60.3.100 mjpeg</property>
  <property name="meta.attr.0.stream.DURATION.markup">00:00:01.000000000</property>
  <property name="meta.attr.COMMENT.markup">Rendered with Manim Community v0.17.2</property>
  <property name="meta.attr.MAJOR_BRAND.markup">isom</property>
  <property name="meta.attr.MINOR_VERSION.markup">512</property>
  <property name="meta.attr.COMPATIBLE_BRANDS.markup">isomiso2avc1mp41</property>
  <property name="meta.attr.ENCODER.markup">Lavf60.3.100</property>
  <property name="seekable">1</property>
  <property name="meta.media.sample_aspect_num">1</property>
  <property name="meta.media.sample_aspect_den">1</property>
  <property name="aspect_ratio">1</property>
  <property name="format">3</property>
  <property name="kdenlive:clipname">10.mp4</property>
  <property name="kdenlive:clip_type">2</property>
  <property name="kdenlive:folderid">599</property>
  <property name="kdenlive:id">490</property>
  <property name="kdenlive:file_size">75476</property>
  <property name="kdenlive:file_hash">5be5edef6525cd3b6bfe9ec5a2c4bfa7</property>
  <property name="kdenlive:proxy">/home/xiaoxiae/.cache/kdenlive/proxy/5be5edef6525cd3b6bfe9ec5a2c4bfa7.mkv</property>
  <property name="kdenlive:originalurl">video/SelectingAB/10.mp4</property>
  <property name="kdenlive:original.mlt_type">producer</property>
  <property name="kdenlive:original.in">00:00:00.000</property>
  <property name="kdenlive:original.out">00:00:00.983</property>
  <property name="kdenlive:original.length">60</property>
  <property name="kdenlive:original.eof">pause</property>
  <property name="kdenlive:original.resource">video/SelectingAB/10.mp4</property>
  <property name="kdenlive:original.meta.media.nb_streams">1</property>
  <property name="kdenlive:original.meta.media.0.stream.type">video</property>
  <property name="kdenlive:original.meta.media.0.stream.frame_rate">60</property>
  <property name="kdenlive:original.meta.media.0.stream.sample_aspect_ratio">0</property>
  <property name="kdenlive:original.meta.media.0.codec.width">3840</property>
  <property name="kdenlive:original.meta.media.0.codec.height">2160</property>
  <property name="kdenlive:original.meta.media.0.codec.rotate">0</property>
  <property name="kdenlive:original.meta.media.0.codec.pix_fmt">yuv420p</property>
  <property name="kdenlive:original.meta.media.0.codec.sample_aspect_ratio">0</property>
  <property name="kdenlive:original.meta.media.0.codec.colorspace">709</property>
  <property name="kdenlive:original.meta.media.0.codec.name">h264</property>
  <property name="kdenlive:original.meta.media.0.codec.long_name">H.264 / AVC / MPEG-4 AVC / MPEG-4 part 10</property>
  <property name="kdenlive:original.meta.media.0.codec.bit_rate">590888</property>
  <property name="kdenlive:original.meta.attr.0.stream.handler_name.markup">VideoHandler</property>
  <property name="kdenlive:original.meta.attr.0.stream.vendor_id.markup">[0][0][0][0]</property>
  <property name="kdenlive:original.meta.attr.0.stream.encoder.markup">Lavc60.3.100 libx264</property>
  <property name="kdenlive:original.meta.attr.major_brand.markup">isom</property>
  <property name="kdenlive:original.meta.attr.minor_version.markup">512</property>
  <property name="kdenlive:original.meta.attr.compatible_brands.markup">isomiso2avc1mp41</property>
  <property name="kdenlive:original.meta.attr.encoder.markup">Lavf60.3.100</property>
  <property name="kdenlive:original.meta.attr.comment.markup">Rendered with Manim Community v0.17.2</property>
  <property name="kdenlive:original.seekable">1</property>
  <property name="kdenlive:original.width">3840</property>
  <property name="kdenlive:original.height">2160</property>
  <property name="kdenlive:original.meta.media.sample_aspect_num">1</property>
  <property name="kdenlive:original.meta.media.sample_aspect_den">1</property>
  <property name="kdenlive:original.aspect_ratio">1</property>
  <property name="kdenlive:original.format">3</property>
  <property name="kdenlive:original.audio_index">-1</property>
  <property name="kdenlive:original.video_index">0</property>
  <property name="kdenlive:original.mute_on_pause">0</property>
  <property name="kdenlive:original.mlt_service">avformat-novalidate</property>
  <property name="kdenlive:original.meta.media.frame_rate_num">60</property>
  <property name="kdenlive:original.meta.media.frame_rate_den">1</property>
  <property name="kdenlive:original.meta.media.colorspace">709</property>
  <property name="kdenlive:original.meta.media.color_trc">2</property>
  <property name="kdenlive:original.meta.media.has_b_frames">2</property>
  <property name="kdenlive:original.meta.media.width">3840</property>
  <property name="kdenlive:original.meta.media.height">2160</property>
  <property name="kdenlive:original.meta.media.color_range">mpeg</property>
  <property name="kdenlive:original.meta.media.top_field_first">0</property>
  <property name="kdenlive:original.meta.media.progressive">1</property>
  <property name="kdenlive:original.kdenlive:clip_type">2</property>
  <property name="kdenlive:original.kdenlive:folderid">599</property>
  <property name="kdenlive:original.kdenlive:id">601</property>
  <property name="kdenlive:original.kdenlive:file_size">75476</property>
  <property name="kdenlive:original.kdenlive:file_hash">5be5edef6525cd3b6bfe9ec5a2c4bfa7</property>
  <property name="kdenlive:original.backup">1</property>
  <property name="xml">was here</property>
  <property name="meta.media.frame_rate_num">60</property>
  <property name="meta.media.frame_rate_den">1</property>
  <property name="meta.media.colorspace">601</property>
  <property name="meta.media.color_trc">2</property>
  <property name="meta.media.has_b_frames">0</property>
  <property name="meta.media.width">640</property>
  <property name="meta.media.height">360</property>
  <property name="meta.media.color_range">full</property>
  <property name="meta.media.top_field_first">0</property>
  <property name="meta.media.progressive">1</property>
  <property name="set.test_audio">1</property>
  <property name="set.test_image">0</property>
 </producer>
 <producer id="producer729" in="00:00:00.000" out="00:00:00.983">
  <property name="length">60</property>
  <property name="eof">pause</property>
  <property name="resource">/home/xiaoxiae/.cache/kdenlive/proxy/64118a2404b8a013efa7cde404bccc0b.mkv</property>
  <property name="audio_index">-1</property>
  <property name="video_index">0</property>
  <property name="mute_on_pause">0</property>
  <property name="mlt_service">avformat-novalidate</property>
  <property name="meta.media.nb_streams">1</property>
  <property name="meta.media.0.stream.type">video</property>
  <property name="meta.media.0.stream.frame_rate">60</property>
  <property name="meta.media.0.stream.sample_aspect_ratio">0</property>
  <property name="meta.media.0.codec.width">640</property>
  <property name="meta.media.0.codec.height">360</property>
  <property name="meta.media.0.codec.rotate">0</property>
  <property name="meta.media.0.codec.pix_fmt">yuvj420p</property>
  <property name="meta.media.0.codec.sample_aspect_ratio">0</property>
  <property name="meta.media.0.codec.colorspace">601</property>
  <property name="meta.media.0.codec.name">mjpeg</property>
  <property name="meta.media.0.codec.long_name">MJPEG (Motion JPEG)</property>
  <property name="meta.media.0.codec.bit_rate">0</property>
  <property name="meta.attr.0.stream.HANDLER_NAME.markup">VideoHandler</property>
  <property name="meta.attr.0.stream.VENDOR_ID.markup">[0][0][0][0]</property>
  <property name="meta.attr.0.stream.ENCODER.markup">Lavc60.3.100 mjpeg</property>
  <property name="meta.attr.0.stream.DURATION.markup">00:00:01.000000000</property>
  <property name="meta.attr.COMMENT.markup">Rendered with Manim Community v0.17.2</property>
  <property name="meta.attr.MAJOR_BRAND.markup">isom</property>
  <property name="meta.attr.MINOR_VERSION.markup">512</property>
  <property name="meta.attr.COMPATIBLE_BRANDS.markup">isomiso2avc1mp41</property>
  <property name="meta.attr.ENCODER.markup">Lavf60.3.100</property>
  <property name="seekable">1</property>
  <property name="meta.media.sample_aspect_num">1</property>
  <property name="meta.media.sample_aspect_den">1</property>
  <property name="aspect_ratio">1</property>
  <property name="format">3</property>
  <property name="kdenlive:clipname">11.mp4</property>
  <property name="kdenlive:clip_type">2</property>
  <property name="kdenlive:folderid">599</property>
  <property name="kdenlive:id">491</property>
  <property name="kdenlive:file_size">106308</property>
  <property name="kdenlive:file_hash">64118a2404b8a013efa7cde404bccc0b</property>
  <property name="kdenlive:proxy">/home/xiaoxiae/.cache/kdenlive/proxy/64118a2404b8a013efa7cde404bccc0b.mkv</property>
  <property name="kdenlive:originalurl">video/SelectingAB/11.mp4</property>
  <property name="kdenlive:original.mlt_type">producer</property>
  <property name="kdenlive:original.in">00:00:00.000</property>
  <property name="kdenlive:original.out">00:00:00.983</property>
  <property name="kdenlive:original.length">60</property>
  <property name="kdenlive:original.eof">pause</property>
  <property name="kdenlive:original.resource">video/SelectingAB/11.mp4</property>
  <property name="kdenlive:original.meta.media.nb_streams">1</property>
  <property name="kdenlive:original.meta.media.0.stream.type">video</property>
  <property name="kdenlive:original.meta.media.0.stream.frame_rate">60</property>
  <property name="kdenlive:original.meta.media.0.stream.sample_aspect_ratio">0</property>
  <property name="kdenlive:original.meta.media.0.codec.width">3840</property>
  <property name="kdenlive:original.meta.media.0.codec.height">2160</property>
  <property name="kdenlive:original.meta.media.0.codec.rotate">0</property>
  <property name="kdenlive:original.meta.media.0.codec.pix_fmt">yuv420p</property>
  <property name="kdenlive:original.meta.media.0.codec.sample_aspect_ratio">0</property>
  <property name="kdenlive:original.meta.media.0.codec.colorspace">709</property>
  <property name="kdenlive:original.meta.media.0.codec.name">h264</property>
  <property name="kdenlive:original.meta.media.0.codec.long_name">H.264 / AVC / MPEG-4 AVC / MPEG-4 part 10</property>
  <property name="kdenlive:original.meta.media.0.codec.bit_rate">837416</property>
  <property name="kdenlive:original.meta.attr.0.stream.handler_name.markup">VideoHandler</property>
  <property name="kdenlive:original.meta.attr.0.stream.vendor_id.markup">[0][0][0][0]</property>
  <property name="kdenlive:original.meta.attr.0.stream.encoder.markup">Lavc60.3.100 libx264</property>
  <property name="kdenlive:original.meta.attr.major_brand.markup">isom</property>
  <property name="kdenlive:original.meta.attr.minor_version.markup">512</property>
  <property name="kdenlive:original.meta.attr.compatible_brands.markup">isomiso2avc1mp41</property>
  <property name="kdenlive:original.meta.attr.encoder.markup">Lavf60.3.100</property>
  <property name="kdenlive:original.meta.attr.comment.markup">Rendered with Manim Community v0.17.2</property>
  <property name="kdenlive:original.seekable">1</property>
  <property name="kdenlive:original.width">3840</property>
  <property name="kdenlive:original.height">2160</property>
  <property name="kdenlive:original.meta.media.sample_aspect_num">1</property>
  <property name="kdenlive:original.meta.media.sample_aspect_den">1</property>
  <property name="kdenlive:original.aspect_ratio">1</property>
  <property name="kdenlive:original.format">3</property>
  <property name="kdenlive:original.audio_index">-1</property>
  <property name="kdenlive:original.video_index">0</property>
  <property name="kdenlive:original.mute_on_pause">0</property>
  <property name="kdenlive:original.mlt_service">avformat-novalidate</property>
  <property name="kdenlive:original.meta.media.frame_rate_num">60</property>
  <property name="kdenlive:original.meta.media.frame_rate_den">1</property>
  <property name="kdenlive:original.meta.media.colorspace">709</property>
  <property name="kdenlive:original.meta.media.color_trc">2</property>
  <property name="kdenlive:original.meta.media.has_b_frames">2</property>
  <property name="kdenlive:original.meta.media.width">3840</property>
  <property name="kdenlive:original.meta.media.height">2160</property>
  <property name="kdenlive:original.meta.media.color_range">mpeg</property>
  <property name="kdenlive:original.meta.media.top_field_first">0</property>
  <property name="kdenlive:original.meta.media.progressive">1</property>
  <property name="kdenlive:original.kdenlive:clip_type">2</property>
  <property name="kdenlive:original.kdenlive:folderid">599</property>
  <property name="kdenlive:original.kdenlive:id">602</property>
  <property name="kdenlive:original.kdenlive:file_size">106308</property>
  <property name="kdenlive:original.kdenlive:file_hash">64118a2404b8a013efa7cde404bccc0b</property>
  <property name="kdenlive:original.backup">1</property>
  <property name="xml">was here</property>
  <property name="meta.media.frame_rate_num">60</property>
  <property name="meta.media.frame_rate_den">1</property>
  <property name="meta.media.colorspace">601</property>
  <property name="meta.media.color_trc">2</property>
  <property name="meta.media.has_b_frames">0</property>
  <property name="meta.media.width">640</property>
  <property name="meta.media.height">360</property>
  <property name="meta.media.color_range">full</property>
  <property name="meta.media.top_field_first">0</property>
  <property name="meta.media.progressive">1</property>
  <property name="set.test_audio">1</property>
  <property name="set.test_image">0</property>
 </producer>
 <producer id="producer730" in="00:00:00.000" out="00:00:00.983">
  <property name="length">60</property>
  <property name="eof">pause</property>
  <property name="resource">/home/xiaoxiae/.cache/kdenlive/proxy/79c19828077949630a48b8171413859c.mkv</property>
  <property name="audio_index">-1</property>
  <property name="video_index">0</property>
  <property name="mute_on_pause">0</property>
  <property name="mlt_service">avformat-novalidate</property>
  <property name="meta.media.nb_streams">1</property>
  <property name="meta.media.0.stream.type">video</property>
  <property name="meta.media.0.stream.frame_rate">60</property>
  <property name="meta.media.0.stream.sample_aspect_ratio">0</property>
  <property name="meta.media.0.codec.width">640</property>
  <property name="meta.media.0.codec.height">360</property>
  <property name="meta.media.0.codec.rotate">0</property>
  <property name="meta.media.0.codec.pix_fmt">yuvj420p</property>
  <property name="meta.media.0.codec.sample_aspect_ratio">0</property>
  <property name="meta.media.0.codec.colorspace">601</property>
  <property name="meta.media.0.codec.name">mjpeg</property>
  <property name="meta.media.0.codec.long_name">MJPEG (Motion JPEG)</property>
  <property name="meta.media.0.codec.bit_rate">0</property>
  <property name="meta.attr.0.stream.HANDLER_NAME.markup">VideoHandler</property>
  <property name="meta.attr.0.stream.VENDOR_ID.markup">[0][0][0][0]</property>
  <property name="meta.attr.0.stream.ENCODER.markup">Lavc60.3.100 mjpeg</property>
  <property name="meta.attr.0.stream.DURATION.markup">00:00:01.000000000</property>
  <property name="meta.attr.COMMENT.markup">Rendered with Manim Community v0.17.2</property>
  <property name="meta.attr.MAJOR_BRAND.markup">isom</property>
  <property name="meta.attr.MINOR_VERSION.markup">512</property>
  <property name="meta.attr.COMPATIBLE_BRANDS.markup">isomiso2avc1mp41</property>
  <property name="meta.attr.ENCODER.markup">Lavf60.3.100</property>
  <property name="seekable">1</property>
  <property name="meta.media.sample_aspect_num">1</property>
  <property name="meta.media.sample_aspect_den">1</property>
  <property name="aspect_ratio">1</property>
  <property name="format">3</property>
  <property name="kdenlive:clipname">12.mp4</property>
  <property name="kdenlive:clip_type">2</property>
  <property name="kdenlive:folderid">599</property>
  <property name="kdenlive:id">492</property>
  <property name="kdenlive:file_size">432315</property>
  <property name="kdenlive:file_hash">79c19828077949630a48b8171413859c</property>
  <property name="kdenlive:proxy">/home/xiaoxiae/.cache/kdenlive/proxy/79c19828077949630a48b8171413859c.mkv</property>
  <property name="kdenlive:originalurl">video/SelectingAB/12.mp4</property>
  <property name="kdenlive:original.mlt_type">producer</property>
  <property name="kdenlive:original.in">00:00:00.000</property>
  <property name="kdenlive:original.out">00:00:00.983</property>
  <property name="kdenlive:original.length">60</property>
  <property name="kdenlive:original.eof">pause</property>
  <property name="kdenlive:original.resource">video/SelectingAB/12.mp4</property>
  <property name="kdenlive:original.meta.media.nb_streams">1</property>
  <property name="kdenlive:original.meta.media.0.stream.type">video</property>
  <property name="kdenlive:original.meta.media.0.stream.frame_rate">60</property>
  <property name="kdenlive:original.meta.media.0.stream.sample_aspect_ratio">0</property>
  <property name="kdenlive:original.meta.media.0.codec.width">3840</property>
  <property name="kdenlive:original.meta.media.0.codec.height">2160</property>
  <property name="kdenlive:original.meta.media.0.codec.rotate">0</property>
  <property name="kdenlive:original.meta.media.0.codec.pix_fmt">yuv420p</property>
  <property name="kdenlive:original.meta.media.0.codec.sample_aspect_ratio">0</property>
  <property name="kdenlive:original.meta.media.0.codec.colorspace">709</property>
  <property name="kdenlive:original.meta.media.0.codec.name">h264</property>
  <property name="kdenlive:original.meta.media.0.codec.long_name">H.264 / AVC / MPEG-4 AVC / MPEG-4 part 10</property>
  <property name="kdenlive:original.meta.media.0.codec.bit_rate">3447328</property>
  <property name="kdenlive:original.meta.attr.0.stream.handler_name.markup">VideoHandler</property>
  <property name="kdenlive:original.meta.attr.0.stream.vendor_id.markup">[0][0][0][0]</property>
  <property name="kdenlive:original.meta.attr.0.stream.encoder.markup">Lavc60.3.100 libx264</property>
  <property name="kdenlive:original.meta.attr.major_brand.markup">isom</property>
  <property name="kdenlive:original.meta.attr.minor_version.markup">512</property>
  <property name="kdenlive:original.meta.attr.compatible_brands.markup">isomiso2avc1mp41</property>
  <property name="kdenlive:original.meta.attr.encoder.markup">Lavf60.3.100</property>
  <property name="kdenlive:original.meta.attr.comment.markup">Rendered with Manim Community v0.17.2</property>
  <property name="kdenlive:original.seekable">1</property>
  <property name="kdenlive:original.width">3840</property>
  <property name="kdenlive:original.height">2160</property>
  <property name="kdenlive:original.meta.media.sample_aspect_num">1</property>
  <property name="kdenlive:original.meta.media.sample_aspect_den">1</property>
  <property name="kdenlive:original.aspect_ratio">1</property>
  <property name="kdenlive:original.format">3</property>
  <property name="kdenlive:original.audio_index">-1</property>
  <property name="kdenlive:original.video_index">0</property>
  <property name="kdenlive:original.mute_on_pause">0</property>
  <property name="kdenlive:original.mlt_service">avformat-novalidate</property>
  <property name="kdenlive:original.meta.media.frame_rate_num">60</property>
  <property name="kdenlive:original.meta.media.frame_rate_den">1</property>
  <property name="kdenlive:original.meta.media.colorspace">709</property>
  <property name="kdenlive:original.meta.media.color_trc">2</property>
  <property name="kdenlive:original.meta.media.has_b_frames">2</property>
  <property name="kdenlive:original.meta.media.width">3840</property>
  <property name="kdenlive:original.meta.media.height">2160</property>
  <property name="kdenlive:original.meta.media.color_range">mpeg</property>
  <property name="kdenlive:original.meta.media.top_field_first">0</property>
  <property name="kdenlive:original.meta.media.progressive">1</property>
  <property name="kdenlive:original.kdenlive:clip_type">2</property>
  <property name="kdenlive:original.kdenlive:folderid">599</property>
  <property name="kdenlive:original.kdenlive:id">603</property>
  <property name="kdenlive:original.kdenlive:file_size">432315</property>
  <property name="kdenlive:original.kdenlive:file_hash">79c19828077949630a48b8171413859c</property>
  <property name="kdenlive:original.backup">1</property>
  <property name="xml">was here</property>
  <property name="meta.media.frame_rate_num">60</property>
  <property name="meta.media.frame_rate_den">1</property>
  <property name="meta.media.colorspace">601</property>
  <property name="meta.media.color_trc">2</property>
  <property name="meta.media.has_b_frames">0</property>
  <property name="meta.media.width">640</property>
  <property name="meta.media.height">360</property>
  <property name="meta.media.color_range">full</property>
  <property name="meta.media.top_field_first">0</property>
  <property name="meta.media.progressive">1</property>
  <property name="set.test_audio">1</property>
  <property name="set.test_image">0</property>
 </producer>
 <producer id="producer731" in="00:00:00.000" out="00:00:00.983">
  <property name="length">60</property>
  <property name="eof">pause</property>
  <property name="resource">/home/xiaoxiae/.cache/kdenlive/proxy/b3c8062a40373f3cd39ff8a725741cec.mkv</property>
  <property name="audio_index">-1</property>
  <property name="video_index">0</property>
  <property name="mute_on_pause">0</property>
  <property name="mlt_service">avformat-novalidate</property>
  <property name="meta.media.nb_streams">1</property>
  <property name="meta.media.0.stream.type">video</property>
  <property name="meta.media.0.stream.frame_rate">60</property>
  <property name="meta.media.0.stream.sample_aspect_ratio">0</property>
  <property name="meta.media.0.codec.width">640</property>
  <property name="meta.media.0.codec.height">360</property>
  <property name="meta.media.0.codec.rotate">0</property>
  <property name="meta.media.0.codec.pix_fmt">yuvj420p</property>
  <property name="meta.media.0.codec.sample_aspect_ratio">0</property>
  <property name="meta.media.0.codec.colorspace">601</property>
  <property name="meta.media.0.codec.name">mjpeg</property>
  <property name="meta.media.0.codec.long_name">MJPEG (Motion JPEG)</property>
  <property name="meta.media.0.codec.bit_rate">0</property>
  <property name="meta.attr.0.stream.HANDLER_NAME.markup">VideoHandler</property>
  <property name="meta.attr.0.stream.VENDOR_ID.markup">[0][0][0][0]</property>
  <property name="meta.attr.0.stream.ENCODER.markup">Lavc60.3.100 mjpeg</property>
  <property name="meta.attr.0.stream.DURATION.markup">00:00:01.000000000</property>
  <property name="meta.attr.COMMENT.markup">Rendered with Manim Community v0.17.2</property>
  <property name="meta.attr.MAJOR_BRAND.markup">isom</property>
  <property name="meta.attr.MINOR_VERSION.markup">512</property>
  <property name="meta.attr.COMPATIBLE_BRANDS.markup">isomiso2avc1mp41</property>
  <property name="meta.attr.ENCODER.markup">Lavf60.3.100</property>
  <property name="seekable">1</property>
  <property name="meta.media.sample_aspect_num">1</property>
  <property name="meta.media.sample_aspect_den">1</property>
  <property name="aspect_ratio">1</property>
  <property name="format">3</property>
  <property name="kdenlive:clipname">13.mp4</property>
  <property name="kdenlive:clip_type">2</property>
  <property name="kdenlive:folderid">599</property>
  <property name="kdenlive:id">493</property>
  <property name="kdenlive:file_size">66191</property>
  <property name="kdenlive:file_hash">b3c8062a40373f3cd39ff8a725741cec</property>
  <property name="kdenlive:proxy">/home/xiaoxiae/.cache/kdenlive/proxy/b3c8062a40373f3cd39ff8a725741cec.mkv</property>
  <property name="kdenlive:originalurl">video/SelectingAB/13.mp4</property>
  <property name="kdenlive:original.mlt_type">producer</property>
  <property name="kdenlive:original.in">00:00:00.000</property>
  <property name="kdenlive:original.out">00:00:00.983</property>
  <property name="kdenlive:original.length">60</property>
  <property name="kdenlive:original.eof">pause</property>
  <property name="kdenlive:original.resource">video/SelectingAB/13.mp4</property>
  <property name="kdenlive:original.meta.media.nb_streams">1</property>
  <property name="kdenlive:original.meta.media.0.stream.type">video</property>
  <property name="kdenlive:original.meta.media.0.stream.frame_rate">60</property>
  <property name="kdenlive:original.meta.media.0.stream.sample_aspect_ratio">0</property>
  <property name="kdenlive:original.meta.media.0.codec.width">3840</property>
  <property name="kdenlive:original.meta.media.0.codec.height">2160</property>
  <property name="kdenlive:original.meta.media.0.codec.rotate">0</property>
  <property name="kdenlive:original.meta.media.0.codec.pix_fmt">yuv420p</property>
  <property name="kdenlive:original.meta.media.0.codec.sample_aspect_ratio">0</property>
  <property name="kdenlive:original.meta.media.0.codec.colorspace">709</property>
  <property name="kdenlive:original.meta.media.0.codec.name">h264</property>
  <property name="kdenlive:original.meta.media.0.codec.long_name">H.264 / AVC / MPEG-4 AVC / MPEG-4 part 10</property>
  <property name="kdenlive:original.meta.media.0.codec.bit_rate">516480</property>
  <property name="kdenlive:original.meta.attr.0.stream.handler_name.markup">VideoHandler</property>
  <property name="kdenlive:original.meta.attr.0.stream.vendor_id.markup">[0][0][0][0]</property>
  <property name="kdenlive:original.meta.attr.0.stream.encoder.markup">Lavc60.3.100 libx264</property>
  <property name="kdenlive:original.meta.attr.major_brand.markup">isom</property>
  <property name="kdenlive:original.meta.attr.minor_version.markup">512</property>
  <property name="kdenlive:original.meta.attr.compatible_brands.markup">isomiso2avc1mp41</property>
  <property name="kdenlive:original.meta.attr.encoder.markup">Lavf60.3.100</property>
  <property name="kdenlive:original.meta.attr.comment.markup">Rendered with Manim Community v0.17.2</property>
  <property name="kdenlive:original.seekable">1</property>
  <property name="kdenlive:original.width">3840</property>
  <property name="kdenlive:original.height">2160</property>
  <property name="kdenlive:original.meta.media.sample_aspect_num">1</property>
  <property name="kdenlive:original.meta.media.sample_aspect_den">1</property>
  <property name="kdenlive:original.aspect_ratio">1</property>
  <property name="kdenlive:original.format">3</property>
  <property name="kdenlive:original.audio_index">-1</property>
  <property name="kdenlive:original.video_index">0</property>
  <property name="kdenlive:original.mute_on_pause">0</property>
  <property name="kdenlive:original.mlt_service">avformat-novalidate</property>
  <property name="kdenlive:original.meta.media.frame_rate_num">60</property>
  <property name="kdenlive:original.meta.media.frame_rate_den">1</property>
  <property name="kdenlive:original.meta.media.colorspace">709</property>
  <property name="kdenlive:original.meta.media.color_trc">2</property>
  <property name="kdenlive:original.meta.media.has_b_frames">2</property>
  <property name="kdenlive:original.meta.media.width">3840</property>
  <property name="kdenlive:original.meta.media.height">2160</property>
  <property name="kdenlive:original.meta.media.color_range">mpeg</property>
  <property name="kdenlive:original.meta.media.top_field_first">0</property>
  <property name="kdenlive:original.meta.media.progressive">1</property>
  <property name="kdenlive:original.kdenlive:clip_type">2</property>
  <property name="kdenlive:original.kdenlive:folderid">599</property>
  <property name="kdenlive:original.kdenlive:id">604</property>
  <property name="kdenlive:original.kdenlive:file_size">66191</property>
  <property name="kdenlive:original.kdenlive:file_hash">b3c8062a40373f3cd39ff8a725741cec</property>
  <property name="kdenlive:original.backup">1</property>
  <property name="xml">was here</property>
  <property name="meta.media.frame_rate_num">60</property>
  <property name="meta.media.frame_rate_den">1</property>
  <property name="meta.media.colorspace">601</property>
  <property name="meta.media.color_trc">2</property>
  <property name="meta.media.has_b_frames">0</property>
  <property name="meta.media.width">640</property>
  <property name="meta.media.height">360</property>
  <property name="meta.media.color_range">full</property>
  <property name="meta.media.top_field_first">0</property>
  <property name="meta.media.progressive">1</property>
  <property name="set.test_audio">1</property>
  <property name="set.test_image">0</property>
 </producer>
 <producer id="producer732" in="00:00:00.000" out="00:00:00.983">
  <property name="length">60</property>
  <property name="eof">pause</property>
  <property name="resource">/home/xiaoxiae/.cache/kdenlive/proxy/bbf4051409b26d90011bff1d45486b54.mkv</property>
  <property name="audio_index">-1</property>
  <property name="video_index">0</property>
  <property name="mute_on_pause">0</property>
  <property name="mlt_service">avformat-novalidate</property>
  <property name="meta.media.nb_streams">1</property>
  <property name="meta.media.0.stream.type">video</property>
  <property name="meta.media.0.stream.frame_rate">60</property>
  <property name="meta.media.0.stream.sample_aspect_ratio">0</property>
  <property name="meta.media.0.codec.width">640</property>
  <property name="meta.media.0.codec.height">360</property>
  <property name="meta.media.0.codec.rotate">0</property>
  <property name="meta.media.0.codec.pix_fmt">yuvj420p</property>
  <property name="meta.media.0.codec.sample_aspect_ratio">0</property>
  <property name="meta.media.0.codec.colorspace">601</property>
  <property name="meta.media.0.codec.name">mjpeg</property>
  <property name="meta.media.0.codec.long_name">MJPEG (Motion JPEG)</property>
  <property name="meta.media.0.codec.bit_rate">0</property>
  <property name="meta.attr.0.stream.HANDLER_NAME.markup">VideoHandler</property>
  <property name="meta.attr.0.stream.VENDOR_ID.markup">[0][0][0][0]</property>
  <property name="meta.attr.0.stream.ENCODER.markup">Lavc60.3.100 mjpeg</property>
  <property name="meta.attr.0.stream.DURATION.markup">00:00:01.000000000</property>
  <property name="meta.attr.COMMENT.markup">Rendered with Manim Community v0.17.2</property>
  <property name="meta.attr.MAJOR_BRAND.markup">isom</property>
  <property name="meta.attr.MINOR_VERSION.markup">512</property>
  <property name="meta.attr.COMPATIBLE_BRANDS.markup">isomiso2avc1mp41</property>
  <property name="meta.attr.ENCODER.markup">Lavf60.3.100</property>
  <property name="seekable">1</property>
  <property name="meta.media.sample_aspect_num">1</property>
  <property name="meta.media.sample_aspect_den">1</property>
  <property name="aspect_ratio">1</property>
  <property name="format">3</property>
  <property name="kdenlive:clipname">14.mp4</property>
  <property name="kdenlive:clip_type">2</property>
  <property name="kdenlive:folderid">599</property>
  <property name="kdenlive:id">494</property>
  <property name="kdenlive:file_size">63856</property>
  <property name="kdenlive:file_hash">bbf4051409b26d90011bff1d45486b54</property>
  <property name="kdenlive:proxy">/home/xiaoxiae/.cache/kdenlive/proxy/bbf4051409b26d90011bff1d45486b54.mkv</property>
  <property name="kdenlive:originalurl">video/SelectingAB/14.mp4</property>
  <property name="kdenlive:original.mlt_type">producer</property>
  <property name="kdenlive:original.in">00:00:00.000</property>
  <property name="kdenlive:original.out">00:00:00.983</property>
  <property name="kdenlive:original.length">60</property>
  <property name="kdenlive:original.eof">pause</property>
  <property name="kdenlive:original.resource">video/SelectingAB/14.mp4</property>
  <property name="kdenlive:original.meta.media.nb_streams">1</property>
  <property name="kdenlive:original.meta.media.0.stream.type">video</property>
  <property name="kdenlive:original.meta.media.0.stream.frame_rate">60</property>
  <property name="kdenlive:original.meta.media.0.stream.sample_aspect_ratio">0</property>
  <property name="kdenlive:original.meta.media.0.codec.width">3840</property>
  <property name="kdenlive:original.meta.media.0.codec.height">2160</property>
  <property name="kdenlive:original.meta.media.0.codec.rotate">0</property>
  <property name="kdenlive:original.meta.media.0.codec.pix_fmt">yuv420p</property>
  <property name="kdenlive:original.meta.media.0.codec.sample_aspect_ratio">0</property>
  <property name="kdenlive:original.meta.media.0.codec.colorspace">709</property>
  <property name="kdenlive:original.meta.media.0.codec.name">h264</property>
  <property name="kdenlive:original.meta.media.0.codec.long_name">H.264 / AVC / MPEG-4 AVC / MPEG-4 part 10</property>
  <property name="kdenlive:original.meta.media.0.codec.bit_rate">497800</property>
  <property name="kdenlive:original.meta.attr.0.stream.handler_name.markup">VideoHandler</property>
  <property name="kdenlive:original.meta.attr.0.stream.vendor_id.markup">[0][0][0][0]</property>
  <property name="kdenlive:original.meta.attr.0.stream.encoder.markup">Lavc60.3.100 libx264</property>
  <property name="kdenlive:original.meta.attr.major_brand.markup">isom</property>
  <property name="kdenlive:original.meta.attr.minor_version.markup">512</property>
  <property name="kdenlive:original.meta.attr.compatible_brands.markup">isomiso2avc1mp41</property>
  <property name="kdenlive:original.meta.attr.encoder.markup">Lavf60.3.100</property>
  <property name="kdenlive:original.meta.attr.comment.markup">Rendered with Manim Community v0.17.2</property>
  <property name="kdenlive:original.seekable">1</property>
  <property name="kdenlive:original.width">3840</property>
  <property name="kdenlive:original.height">2160</property>
  <property name="kdenlive:original.meta.media.sample_aspect_num">1</property>
  <property name="kdenlive:original.meta.media.sample_aspect_den">1</property>
  <property name="kdenlive:original.aspect_ratio">1</property>
  <property name="kdenlive:original.format">3</property>
  <property name="kdenlive:original.audio_index">-1</property>
  <property name="kdenlive:original.video_index">0</property>
  <property name="kdenlive:original.mute_on_pause">0</property>
  <property name="kdenlive:original.mlt_service">avformat-novalidate</property>
  <property name="kdenlive:original.meta.media.frame_rate_num">60</property>
  <property name="kdenlive:original.meta.media.frame_rate_den">1</property>
  <property name="kdenlive:original.meta.media.colorspace">709</property>
  <property name="kdenlive:original.meta.media.color_trc">2</property>
  <property name="kdenlive:original.meta.media.has_b_frames">2</property>
  <property name="kdenlive:original.meta.media.width">3840</property>
  <property name="kdenlive:original.meta.media.height">2160</property>
  <property name="kdenlive:original.meta.media.color_range">mpeg</property>
  <property name="kdenlive:original.meta.media.top_field_first">0</property>
  <property name="kdenlive:original.meta.media.progressive">1</property>
  <property name="kdenlive:original.kdenlive:clip_type">2</property>
  <property name="kdenlive:original.kdenlive:folderid">599</property>
  <property name="kdenlive:original.kdenlive:id">605</property>
  <property name="kdenlive:original.kdenlive:file_size">63856</property>
  <property name="kdenlive:original.kdenlive:file_hash">bbf4051409b26d90011bff1d45486b54</property>
  <property name="kdenlive:original.backup">1</property>
  <property name="xml">was here</property>
  <property name="meta.media.frame_rate_num">60</property>
  <property name="meta.media.frame_rate_den">1</property>
  <property name="meta.media.colorspace">601</property>
  <property name="meta.media.color_trc">2</property>
  <property name="meta.media.has_b_frames">0</property>
  <property name="meta.media.width">640</property>
  <property name="meta.media.height">360</property>
  <property name="meta.media.color_range">full</property>
  <property name="meta.media.top_field_first">0</property>
  <property name="meta.media.progressive">1</property>
  <property name="set.test_audio">1</property>
  <property name="set.test_image">0</property>
 </producer>
 <producer id="producer733" in="00:00:00.000" out="00:00:01.233">
  <property name="length">75</property>
  <property name="eof">pause</property>
  <property name="resource">/home/xiaoxiae/.cache/kdenlive/proxy/1189d7342a0e24c6fedbe5becff9e258.mkv</property>
  <property name="audio_index">-1</property>
  <property name="video_index">0</property>
  <property name="mute_on_pause">0</property>
  <property name="mlt_service">avformat-novalidate</property>
  <property name="meta.media.nb_streams">1</property>
  <property name="meta.media.0.stream.type">video</property>
  <property name="meta.media.0.stream.frame_rate">60</property>
  <property name="meta.media.0.stream.sample_aspect_ratio">0</property>
  <property name="meta.media.0.codec.width">640</property>
  <property name="meta.media.0.codec.height">360</property>
  <property name="meta.media.0.codec.rotate">0</property>
  <property name="meta.media.0.codec.pix_fmt">yuvj420p</property>
  <property name="meta.media.0.codec.sample_aspect_ratio">0</property>
  <property name="meta.media.0.codec.colorspace">601</property>
  <property name="meta.media.0.codec.name">mjpeg</property>
  <property name="meta.media.0.codec.long_name">MJPEG (Motion JPEG)</property>
  <property name="meta.media.0.codec.bit_rate">0</property>
  <property name="meta.attr.0.stream.HANDLER_NAME.markup">VideoHandler</property>
  <property name="meta.attr.0.stream.VENDOR_ID.markup">[0][0][0][0]</property>
  <property name="meta.attr.0.stream.ENCODER.markup">Lavc60.3.100 mjpeg</property>
  <property name="meta.attr.0.stream.DURATION.markup">00:00:01.250000000</property>
  <property name="meta.attr.COMMENT.markup">Rendered with Manim Community v0.17.2</property>
  <property name="meta.attr.MAJOR_BRAND.markup">isom</property>
  <property name="meta.attr.MINOR_VERSION.markup">512</property>
  <property name="meta.attr.COMPATIBLE_BRANDS.markup">isomiso2avc1mp41</property>
  <property name="meta.attr.ENCODER.markup">Lavf60.3.100</property>
  <property name="seekable">1</property>
  <property name="meta.media.sample_aspect_num">1</property>
  <property name="meta.media.sample_aspect_den">1</property>
  <property name="aspect_ratio">1</property>
  <property name="format">3</property>
  <property name="kdenlive:clipname">15.mp4</property>
  <property name="kdenlive:clip_type">2</property>
  <property name="kdenlive:folderid">599</property>
  <property name="kdenlive:id">495</property>
  <property name="kdenlive:file_size">407038</property>
  <property name="kdenlive:file_hash">1189d7342a0e24c6fedbe5becff9e258</property>
  <property name="kdenlive:proxy">/home/xiaoxiae/.cache/kdenlive/proxy/1189d7342a0e24c6fedbe5becff9e258.mkv</property>
  <property name="kdenlive:originalurl">video/SelectingAB/15.mp4</property>
  <property name="kdenlive:original.mlt_type">producer</property>
  <property name="kdenlive:original.in">00:00:00.000</property>
  <property name="kdenlive:original.out">00:00:01.233</property>
  <property name="kdenlive:original.length">75</property>
  <property name="kdenlive:original.eof">pause</property>
  <property name="kdenlive:original.resource">video/SelectingAB/15.mp4</property>
  <property name="kdenlive:original.meta.media.nb_streams">1</property>
  <property name="kdenlive:original.meta.media.0.stream.type">video</property>
  <property name="kdenlive:original.meta.media.0.stream.frame_rate">60</property>
  <property name="kdenlive:original.meta.media.0.stream.sample_aspect_ratio">0</property>
  <property name="kdenlive:original.meta.media.0.codec.width">3840</property>
  <property name="kdenlive:original.meta.media.0.codec.height">2160</property>
  <property name="kdenlive:original.meta.media.0.codec.rotate">0</property>
  <property name="kdenlive:original.meta.media.0.codec.pix_fmt">yuv420p</property>
  <property name="kdenlive:original.meta.media.0.codec.sample_aspect_ratio">0</property>
  <property name="kdenlive:original.meta.media.0.codec.colorspace">709</property>
  <property name="kdenlive:original.meta.media.0.codec.name">h264</property>
  <property name="kdenlive:original.meta.media.0.codec.long_name">H.264 / AVC / MPEG-4 AVC / MPEG-4 part 10</property>
  <property name="kdenlive:original.meta.media.0.codec.bit_rate">2595552</property>
  <property name="kdenlive:original.meta.attr.0.stream.handler_name.markup">VideoHandler</property>
  <property name="kdenlive:original.meta.attr.0.stream.vendor_id.markup">[0][0][0][0]</property>
  <property name="kdenlive:original.meta.attr.0.stream.encoder.markup">Lavc60.3.100 libx264</property>
  <property name="kdenlive:original.meta.attr.major_brand.markup">isom</property>
  <property name="kdenlive:original.meta.attr.minor_version.markup">512</property>
  <property name="kdenlive:original.meta.attr.compatible_brands.markup">isomiso2avc1mp41</property>
  <property name="kdenlive:original.meta.attr.encoder.markup">Lavf60.3.100</property>
  <property name="kdenlive:original.meta.attr.comment.markup">Rendered with Manim Community v0.17.2</property>
  <property name="kdenlive:original.seekable">1</property>
  <property name="kdenlive:original.width">3840</property>
  <property name="kdenlive:original.height">2160</property>
  <property name="kdenlive:original.meta.media.sample_aspect_num">1</property>
  <property name="kdenlive:original.meta.media.sample_aspect_den">1</property>
  <property name="kdenlive:original.aspect_ratio">1</property>
  <property name="kdenlive:original.format">3</property>
  <property name="kdenlive:original.audio_index">-1</property>
  <property name="kdenlive:original.video_index">0</property>
  <property name="kdenlive:original.mute_on_pause">0</property>
  <property name="kdenlive:original.mlt_service">avformat-novalidate</property>
  <property name="kdenlive:original.meta.media.frame_rate_num">60</property>
  <property name="kdenlive:original.meta.media.frame_rate_den">1</property>
  <property name="kdenlive:original.meta.media.colorspace">709</property>
  <property name="kdenlive:original.meta.media.color_trc">2</property>
  <property name="kdenlive:original.meta.media.has_b_frames">2</property>
  <property name="kdenlive:original.meta.media.width">3840</property>
  <property name="kdenlive:original.meta.media.height">2160</property>
  <property name="kdenlive:original.meta.media.color_range">mpeg</property>
  <property name="kdenlive:original.meta.media.top_field_first">0</property>
  <property name="kdenlive:original.meta.media.progressive">1</property>
  <property name="kdenlive:original.kdenlive:clip_type">2</property>
  <property name="kdenlive:original.kdenlive:folderid">599</property>
  <property name="kdenlive:original.kdenlive:id">606</property>
  <property name="kdenlive:original.kdenlive:file_size">407038</property>
  <property name="kdenlive:original.kdenlive:file_hash">1189d7342a0e24c6fedbe5becff9e258</property>
  <property name="kdenlive:original.backup">1</property>
  <property name="xml">was here</property>
  <property name="meta.media.frame_rate_num">60</property>
  <property name="meta.media.frame_rate_den">1</property>
  <property name="meta.media.colorspace">601</property>
  <property name="meta.media.color_trc">2</property>
  <property name="meta.media.has_b_frames">0</property>
  <property name="meta.media.width">640</property>
  <property name="meta.media.height">360</property>
  <property name="meta.media.color_range">full</property>
  <property name="meta.media.top_field_first">0</property>
  <property name="meta.media.progressive">1</property>
  <property name="set.test_audio">1</property>
  <property name="set.test_image">0</property>
 </producer>
 <producer id="producer734" in="00:00:00.000" out="00:00:02.067">
  <property name="length">125</property>
  <property name="eof">pause</property>
  <property name="resource">/home/xiaoxiae/.cache/kdenlive/proxy/a973b4e37d00d6b485631ebaf3583f30.mkv</property>
  <property name="audio_index">-1</property>
  <property name="video_index">0</property>
  <property name="mute_on_pause">0</property>
  <property name="mlt_service">avformat-novalidate</property>
  <property name="meta.media.nb_streams">1</property>
  <property name="meta.media.0.stream.type">video</property>
  <property name="meta.media.0.stream.frame_rate">60</property>
  <property name="meta.media.0.stream.sample_aspect_ratio">0</property>
  <property name="meta.media.0.codec.width">640</property>
  <property name="meta.media.0.codec.height">360</property>
  <property name="meta.media.0.codec.rotate">0</property>
  <property name="meta.media.0.codec.pix_fmt">yuvj420p</property>
  <property name="meta.media.0.codec.sample_aspect_ratio">0</property>
  <property name="meta.media.0.codec.colorspace">601</property>
  <property name="meta.media.0.codec.name">mjpeg</property>
  <property name="meta.media.0.codec.long_name">MJPEG (Motion JPEG)</property>
  <property name="meta.media.0.codec.bit_rate">0</property>
  <property name="meta.attr.0.stream.HANDLER_NAME.markup">VideoHandler</property>
  <property name="meta.attr.0.stream.VENDOR_ID.markup">[0][0][0][0]</property>
  <property name="meta.attr.0.stream.ENCODER.markup">Lavc60.3.100 mjpeg</property>
  <property name="meta.attr.0.stream.DURATION.markup">00:00:02.084000000</property>
  <property name="meta.attr.COMMENT.markup">Rendered with Manim Community v0.17.2</property>
  <property name="meta.attr.MAJOR_BRAND.markup">isom</property>
  <property name="meta.attr.MINOR_VERSION.markup">512</property>
  <property name="meta.attr.COMPATIBLE_BRANDS.markup">isomiso2avc1mp41</property>
  <property name="meta.attr.ENCODER.markup">Lavf60.3.100</property>
  <property name="seekable">1</property>
  <property name="meta.media.sample_aspect_num">1</property>
  <property name="meta.media.sample_aspect_den">1</property>
  <property name="aspect_ratio">1</property>
  <property name="format">3</property>
  <property name="kdenlive:clipname">16.mp4</property>
  <property name="kdenlive:clip_type">2</property>
  <property name="kdenlive:folderid">599</property>
  <property name="kdenlive:id">496</property>
  <property name="kdenlive:file_size">165110</property>
  <property name="kdenlive:file_hash">a973b4e37d00d6b485631ebaf3583f30</property>
  <property name="kdenlive:proxy">/home/xiaoxiae/.cache/kdenlive/proxy/a973b4e37d00d6b485631ebaf3583f30.mkv</property>
  <property name="kdenlive:originalurl">video/SelectingAB/16.mp4</property>
  <property name="kdenlive:original.mlt_type">producer</property>
  <property name="kdenlive:original.in">00:00:00.000</property>
  <property name="kdenlive:original.out">00:00:02.067</property>
  <property name="kdenlive:original.length">125</property>
  <property name="kdenlive:original.eof">pause</property>
  <property name="kdenlive:original.resource">video/SelectingAB/16.mp4</property>
  <property name="kdenlive:original.meta.media.nb_streams">1</property>
  <property name="kdenlive:original.meta.media.0.stream.type">video</property>
  <property name="kdenlive:original.meta.media.0.stream.frame_rate">60</property>
  <property name="kdenlive:original.meta.media.0.stream.sample_aspect_ratio">0</property>
  <property name="kdenlive:original.meta.media.0.codec.width">3840</property>
  <property name="kdenlive:original.meta.media.0.codec.height">2160</property>
  <property name="kdenlive:original.meta.media.0.codec.rotate">0</property>
  <property name="kdenlive:original.meta.media.0.codec.pix_fmt">yuv420p</property>
  <property name="kdenlive:original.meta.media.0.codec.sample_aspect_ratio">0</property>
  <property name="kdenlive:original.meta.media.0.codec.colorspace">709</property>
  <property name="kdenlive:original.meta.media.0.codec.name">h264</property>
  <property name="kdenlive:original.meta.media.0.codec.long_name">H.264 / AVC / MPEG-4 AVC / MPEG-4 part 10</property>
  <property name="kdenlive:original.meta.media.0.codec.bit_rate">624733</property>
  <property name="kdenlive:original.meta.attr.0.stream.handler_name.markup">VideoHandler</property>
  <property name="kdenlive:original.meta.attr.0.stream.vendor_id.markup">[0][0][0][0]</property>
  <property name="kdenlive:original.meta.attr.0.stream.encoder.markup">Lavc60.3.100 libx264</property>
  <property name="kdenlive:original.meta.attr.major_brand.markup">isom</property>
  <property name="kdenlive:original.meta.attr.minor_version.markup">512</property>
  <property name="kdenlive:original.meta.attr.compatible_brands.markup">isomiso2avc1mp41</property>
  <property name="kdenlive:original.meta.attr.encoder.markup">Lavf60.3.100</property>
  <property name="kdenlive:original.meta.attr.comment.markup">Rendered with Manim Community v0.17.2</property>
  <property name="kdenlive:original.seekable">1</property>
  <property name="kdenlive:original.width">3840</property>
  <property name="kdenlive:original.height">2160</property>
  <property name="kdenlive:original.meta.media.sample_aspect_num">1</property>
  <property name="kdenlive:original.meta.media.sample_aspect_den">1</property>
  <property name="kdenlive:original.aspect_ratio">1</property>
  <property name="kdenlive:original.format">3</property>
  <property name="kdenlive:original.audio_index">-1</property>
  <property name="kdenlive:original.video_index">0</property>
  <property name="kdenlive:original.mute_on_pause">0</property>
  <property name="kdenlive:original.mlt_service">avformat-novalidate</property>
  <property name="kdenlive:original.meta.media.frame_rate_num">60</property>
  <property name="kdenlive:original.meta.media.frame_rate_den">1</property>
  <property name="kdenlive:original.meta.media.colorspace">709</property>
  <property name="kdenlive:original.meta.media.color_trc">2</property>
  <property name="kdenlive:original.meta.media.has_b_frames">2</property>
  <property name="kdenlive:original.meta.media.width">3840</property>
  <property name="kdenlive:original.meta.media.height">2160</property>
  <property name="kdenlive:original.meta.media.color_range">mpeg</property>
  <property name="kdenlive:original.meta.media.top_field_first">0</property>
  <property name="kdenlive:original.meta.media.progressive">1</property>
  <property name="kdenlive:original.kdenlive:clip_type">2</property>
  <property name="kdenlive:original.kdenlive:folderid">599</property>
  <property name="kdenlive:original.kdenlive:id">607</property>
  <property name="kdenlive:original.kdenlive:file_size">165110</property>
  <property name="kdenlive:original.kdenlive:file_hash">a973b4e37d00d6b485631ebaf3583f30</property>
  <property name="kdenlive:original.backup">1</property>
  <property name="xml">was here</property>
  <property name="meta.media.frame_rate_num">60</property>
  <property name="meta.media.frame_rate_den">1</property>
  <property name="meta.media.colorspace">601</property>
  <property name="meta.media.color_trc">2</property>
  <property name="meta.media.has_b_frames">0</property>
  <property name="meta.media.width">640</property>
  <property name="meta.media.height">360</property>
  <property name="meta.media.color_range">full</property>
  <property name="meta.media.top_field_first">0</property>
  <property name="meta.media.progressive">1</property>
  <property name="set.test_audio">1</property>
  <property name="set.test_image">0</property>
 </producer>
 <producer id="producer735" in="00:00:00.000" out="00:00:01.633">
  <property name="length">99</property>
  <property name="eof">pause</property>
  <property name="resource">/home/xiaoxiae/.cache/kdenlive/proxy/9cb548a864e5bd96ad04c102b07e57cf.mkv</property>
  <property name="audio_index">-1</property>
  <property name="video_index">0</property>
  <property name="mute_on_pause">0</property>
  <property name="mlt_service">avformat-novalidate</property>
  <property name="meta.media.nb_streams">1</property>
  <property name="meta.media.0.stream.type">video</property>
  <property name="meta.media.0.stream.frame_rate">60</property>
  <property name="meta.media.0.stream.sample_aspect_ratio">0</property>
  <property name="meta.media.0.codec.width">640</property>
  <property name="meta.media.0.codec.height">360</property>
  <property name="meta.media.0.codec.rotate">0</property>
  <property name="meta.media.0.codec.pix_fmt">yuvj420p</property>
  <property name="meta.media.0.codec.sample_aspect_ratio">0</property>
  <property name="meta.media.0.codec.colorspace">601</property>
  <property name="meta.media.0.codec.name">mjpeg</property>
  <property name="meta.media.0.codec.long_name">MJPEG (Motion JPEG)</property>
  <property name="meta.media.0.codec.bit_rate">0</property>
  <property name="meta.attr.0.stream.HANDLER_NAME.markup">VideoHandler</property>
  <property name="meta.attr.0.stream.VENDOR_ID.markup">[0][0][0][0]</property>
  <property name="meta.attr.0.stream.ENCODER.markup">Lavc60.3.100 mjpeg</property>
  <property name="meta.attr.0.stream.DURATION.markup">00:00:01.650000000</property>
  <property name="meta.attr.COMMENT.markup">Rendered with Manim Community v0.17.2</property>
  <property name="meta.attr.MAJOR_BRAND.markup">isom</property>
  <property name="meta.attr.MINOR_VERSION.markup">512</property>
  <property name="meta.attr.COMPATIBLE_BRANDS.markup">isomiso2avc1mp41</property>
  <property name="meta.attr.ENCODER.markup">Lavf60.3.100</property>
  <property name="seekable">1</property>
  <property name="meta.media.sample_aspect_num">1</property>
  <property name="meta.media.sample_aspect_den">1</property>
  <property name="aspect_ratio">1</property>
  <property name="format">3</property>
  <property name="kdenlive:clipname">17.mp4</property>
  <property name="kdenlive:clip_type">2</property>
  <property name="kdenlive:folderid">599</property>
  <property name="kdenlive:id">497</property>
  <property name="kdenlive:file_size">835047</property>
  <property name="kdenlive:file_hash">9cb548a864e5bd96ad04c102b07e57cf</property>
  <property name="kdenlive:proxy">/home/xiaoxiae/.cache/kdenlive/proxy/9cb548a864e5bd96ad04c102b07e57cf.mkv</property>
  <property name="kdenlive:originalurl">video/SelectingAB/17.mp4</property>
  <property name="kdenlive:original.mlt_type">producer</property>
  <property name="kdenlive:original.in">00:00:00.000</property>
  <property name="kdenlive:original.out">00:00:01.633</property>
  <property name="kdenlive:original.length">99</property>
  <property name="kdenlive:original.eof">pause</property>
  <property name="kdenlive:original.resource">video/SelectingAB/17.mp4</property>
  <property name="kdenlive:original.meta.media.nb_streams">1</property>
  <property name="kdenlive:original.meta.media.0.stream.type">video</property>
  <property name="kdenlive:original.meta.media.0.stream.frame_rate">60</property>
  <property name="kdenlive:original.meta.media.0.stream.sample_aspect_ratio">0</property>
  <property name="kdenlive:original.meta.media.0.codec.width">3840</property>
  <property name="kdenlive:original.meta.media.0.codec.height">2160</property>
  <property name="kdenlive:original.meta.media.0.codec.rotate">0</property>
  <property name="kdenlive:original.meta.media.0.codec.pix_fmt">yuv420p</property>
  <property name="kdenlive:original.meta.media.0.codec.sample_aspect_ratio">0</property>
  <property name="kdenlive:original.meta.media.0.codec.colorspace">709</property>
  <property name="kdenlive:original.meta.media.0.codec.name">h264</property>
  <property name="kdenlive:original.meta.media.0.codec.long_name">H.264 / AVC / MPEG-4 AVC / MPEG-4 part 10</property>
  <property name="kdenlive:original.meta.media.0.codec.bit_rate">4039311</property>
  <property name="kdenlive:original.meta.attr.0.stream.handler_name.markup">VideoHandler</property>
  <property name="kdenlive:original.meta.attr.0.stream.vendor_id.markup">[0][0][0][0]</property>
  <property name="kdenlive:original.meta.attr.0.stream.encoder.markup">Lavc60.3.100 libx264</property>
  <property name="kdenlive:original.meta.attr.major_brand.markup">isom</property>
  <property name="kdenlive:original.meta.attr.minor_version.markup">512</property>
  <property name="kdenlive:original.meta.attr.compatible_brands.markup">isomiso2avc1mp41</property>
  <property name="kdenlive:original.meta.attr.encoder.markup">Lavf60.3.100</property>
  <property name="kdenlive:original.meta.attr.comment.markup">Rendered with Manim Community v0.17.2</property>
  <property name="kdenlive:original.seekable">1</property>
  <property name="kdenlive:original.width">3840</property>
  <property name="kdenlive:original.height">2160</property>
  <property name="kdenlive:original.meta.media.sample_aspect_num">1</property>
  <property name="kdenlive:original.meta.media.sample_aspect_den">1</property>
  <property name="kdenlive:original.aspect_ratio">1</property>
  <property name="kdenlive:original.format">3</property>
  <property name="kdenlive:original.audio_index">-1</property>
  <property name="kdenlive:original.video_index">0</property>
  <property name="kdenlive:original.mute_on_pause">0</property>
  <property name="kdenlive:original.mlt_service">avformat-novalidate</property>
  <property name="kdenlive:original.meta.media.frame_rate_num">60</property>
  <property name="kdenlive:original.meta.media.frame_rate_den">1</property>
  <property name="kdenlive:original.meta.media.colorspace">709</property>
  <property name="kdenlive:original.meta.media.color_trc">2</property>
  <property name="kdenlive:original.meta.media.has_b_frames">2</property>
  <property name="kdenlive:original.meta.media.width">3840</property>
  <property name="kdenlive:original.meta.media.height">2160</property>
  <property name="kdenlive:original.meta.media.color_range">mpeg</property>
  <property name="kdenlive:original.meta.media.top_field_first">0</property>
  <property name="kdenlive:original.meta.media.progressive">1</property>
  <property name="kdenlive:original.kdenlive:clip_type">2</property>
  <property name="kdenlive:original.kdenlive:folderid">599</property>
  <property name="kdenlive:original.kdenlive:id">608</property>
  <property name="kdenlive:original.kdenlive:file_size">835047</property>
  <property name="kdenlive:original.kdenlive:file_hash">9cb548a864e5bd96ad04c102b07e57cf</property>
  <property name="kdenlive:original.backup">1</property>
  <property name="xml">was here</property>
  <property name="meta.media.frame_rate_num">60</property>
  <property name="meta.media.frame_rate_den">1</property>
  <property name="meta.media.colorspace">601</property>
  <property name="meta.media.color_trc">2</property>
  <property name="meta.media.has_b_frames">0</property>
  <property name="meta.media.width">640</property>
  <property name="meta.media.height">360</property>
  <property name="meta.media.color_range">full</property>
  <property name="meta.media.top_field_first">0</property>
  <property name="meta.media.progressive">1</property>
  <property name="set.test_audio">1</property>
  <property name="set.test_image">0</property>
 </producer>
 <producer id="producer736" in="00:00:00.000" out="00:00:00.983">
  <property name="length">60</property>
  <property name="eof">pause</property>
  <property name="resource">/home/xiaoxiae/.cache/kdenlive/proxy/1adf55896ecc0489d65380d4c8d71e3a.mkv</property>
  <property name="audio_index">-1</property>
  <property name="video_index">0</property>
  <property name="mute_on_pause">0</property>
  <property name="mlt_service">avformat-novalidate</property>
  <property name="meta.media.nb_streams">1</property>
  <property name="meta.media.0.stream.type">video</property>
  <property name="meta.media.0.stream.frame_rate">60</property>
  <property name="meta.media.0.stream.sample_aspect_ratio">0</property>
  <property name="meta.media.0.codec.width">640</property>
  <property name="meta.media.0.codec.height">360</property>
  <property name="meta.media.0.codec.rotate">0</property>
  <property name="meta.media.0.codec.pix_fmt">yuvj420p</property>
  <property name="meta.media.0.codec.sample_aspect_ratio">0</property>
  <property name="meta.media.0.codec.colorspace">601</property>
  <property name="meta.media.0.codec.name">mjpeg</property>
  <property name="meta.media.0.codec.long_name">MJPEG (Motion JPEG)</property>
  <property name="meta.media.0.codec.bit_rate">0</property>
  <property name="meta.attr.0.stream.HANDLER_NAME.markup">VideoHandler</property>
  <property name="meta.attr.0.stream.VENDOR_ID.markup">[0][0][0][0]</property>
  <property name="meta.attr.0.stream.ENCODER.markup">Lavc60.3.100 mjpeg</property>
  <property name="meta.attr.0.stream.DURATION.markup">00:00:01.000000000</property>
  <property name="meta.attr.COMMENT.markup">Rendered with Manim Community v0.17.2</property>
  <property name="meta.attr.MAJOR_BRAND.markup">isom</property>
  <property name="meta.attr.MINOR_VERSION.markup">512</property>
  <property name="meta.attr.COMPATIBLE_BRANDS.markup">isomiso2avc1mp41</property>
  <property name="meta.attr.ENCODER.markup">Lavf60.3.100</property>
  <property name="seekable">1</property>
  <property name="meta.media.sample_aspect_num">1</property>
  <property name="meta.media.sample_aspect_den">1</property>
  <property name="aspect_ratio">1</property>
  <property name="format">3</property>
  <property name="kdenlive:clipname">18.mp4</property>
  <property name="kdenlive:clip_type">2</property>
  <property name="kdenlive:folderid">599</property>
  <property name="kdenlive:id">498</property>
  <property name="kdenlive:file_size">766635</property>
  <property name="kdenlive:file_hash">1adf55896ecc0489d65380d4c8d71e3a</property>
  <property name="kdenlive:proxy">/home/xiaoxiae/.cache/kdenlive/proxy/1adf55896ecc0489d65380d4c8d71e3a.mkv</property>
  <property name="kdenlive:originalurl">video/SelectingAB/18.mp4</property>
  <property name="kdenlive:original.mlt_type">producer</property>
  <property name="kdenlive:original.in">00:00:00.000</property>
  <property name="kdenlive:original.out">00:00:00.983</property>
  <property name="kdenlive:original.length">60</property>
  <property name="kdenlive:original.eof">pause</property>
  <property name="kdenlive:original.resource">video/SelectingAB/18.mp4</property>
  <property name="kdenlive:original.meta.media.nb_streams">1</property>
  <property name="kdenlive:original.meta.media.0.stream.type">video</property>
  <property name="kdenlive:original.meta.media.0.stream.frame_rate">60</property>
  <property name="kdenlive:original.meta.media.0.stream.sample_aspect_ratio">0</property>
  <property name="kdenlive:original.meta.media.0.codec.width">3840</property>
  <property name="kdenlive:original.meta.media.0.codec.height">2160</property>
  <property name="kdenlive:original.meta.media.0.codec.rotate">0</property>
  <property name="kdenlive:original.meta.media.0.codec.pix_fmt">yuv420p</property>
  <property name="kdenlive:original.meta.media.0.codec.sample_aspect_ratio">0</property>
  <property name="kdenlive:original.meta.media.0.codec.colorspace">709</property>
  <property name="kdenlive:original.meta.media.0.codec.name">h264</property>
  <property name="kdenlive:original.meta.media.0.codec.long_name">H.264 / AVC / MPEG-4 AVC / MPEG-4 part 10</property>
  <property name="kdenlive:original.meta.media.0.codec.bit_rate">6122272</property>
  <property name="kdenlive:original.meta.attr.0.stream.handler_name.markup">VideoHandler</property>
  <property name="kdenlive:original.meta.attr.0.stream.vendor_id.markup">[0][0][0][0]</property>
  <property name="kdenlive:original.meta.attr.0.stream.encoder.markup">Lavc60.3.100 libx264</property>
  <property name="kdenlive:original.meta.attr.major_brand.markup">isom</property>
  <property name="kdenlive:original.meta.attr.minor_version.markup">512</property>
  <property name="kdenlive:original.meta.attr.compatible_brands.markup">isomiso2avc1mp41</property>
  <property name="kdenlive:original.meta.attr.encoder.markup">Lavf60.3.100</property>
  <property name="kdenlive:original.meta.attr.comment.markup">Rendered with Manim Community v0.17.2</property>
  <property name="kdenlive:original.seekable">1</property>
  <property name="kdenlive:original.width">3840</property>
  <property name="kdenlive:original.height">2160</property>
  <property name="kdenlive:original.meta.media.sample_aspect_num">1</property>
  <property name="kdenlive:original.meta.media.sample_aspect_den">1</property>
  <property name="kdenlive:original.aspect_ratio">1</property>
  <property name="kdenlive:original.format">3</property>
  <property name="kdenlive:original.audio_index">-1</property>
  <property name="kdenlive:original.video_index">0</property>
  <property name="kdenlive:original.mute_on_pause">0</property>
  <property name="kdenlive:original.mlt_service">avformat-novalidate</property>
  <property name="kdenlive:original.meta.media.frame_rate_num">60</property>
  <property name="kdenlive:original.meta.media.frame_rate_den">1</property>
  <property name="kdenlive:original.meta.media.colorspace">709</property>
  <property name="kdenlive:original.meta.media.color_trc">2</property>
  <property name="kdenlive:original.meta.media.has_b_frames">2</property>
  <property name="kdenlive:original.meta.media.width">3840</property>
  <property name="kdenlive:original.meta.media.height">2160</property>
  <property name="kdenlive:original.meta.media.color_range">mpeg</property>
  <property name="kdenlive:original.meta.media.top_field_first">0</property>
  <property name="kdenlive:original.meta.media.progressive">1</property>
  <property name="kdenlive:original.kdenlive:clip_type">2</property>
  <property name="kdenlive:original.kdenlive:folderid">599</property>
  <property name="kdenlive:original.kdenlive:id">609</property>
  <property name="kdenlive:original.kdenlive:file_size">766635</property>
  <property name="kdenlive:original.kdenlive:file_hash">1adf55896ecc0489d65380d4c8d71e3a</property>
  <property name="kdenlive:original.backup">1</property>
  <property name="xml">was here</property>
  <property name="meta.media.frame_rate_num">60</property>
  <property name="meta.media.frame_rate_den">1</property>
  <property name="meta.media.colorspace">601</property>
  <property name="meta.media.color_trc">2</property>
  <property name="meta.media.has_b_frames">0</property>
  <property name="meta.media.width">640</property>
  <property name="meta.media.height">360</property>
  <property name="meta.media.color_range">full</property>
  <property name="meta.media.top_field_first">0</property>
  <property name="meta.media.progressive">1</property>
  <property name="set.test_audio">1</property>
  <property name="set.test_image">0</property>
 </producer>
 <producer id="producer737" in="00:00:00.000" out="00:01:39.983">
  <property name="length">6000</property>
  <property name="eof">pause</property>
  <property name="resource">0.010000:/home/xiaoxiae/.cache/kdenlive/proxy/ca43190868d89b23e86274e1ddf2df25.mkv</property>
  <property name="aspect_ratio">1</property>
  <property name="meta.media.nb_streams">1</property>
  <property name="meta.media.0.stream.type">video</property>
  <property name="meta.media.0.stream.frame_rate">60</property>
  <property name="meta.media.0.stream.sample_aspect_ratio">0</property>
  <property name="meta.media.0.codec.width">640</property>
  <property name="meta.media.0.codec.height">360</property>
  <property name="meta.media.0.codec.rotate">0</property>
  <property name="meta.media.0.codec.pix_fmt">yuvj420p</property>
  <property name="meta.media.0.codec.sample_aspect_ratio">0</property>
  <property name="meta.media.0.codec.colorspace">601</property>
  <property name="meta.media.0.codec.name">mjpeg</property>
  <property name="meta.media.0.codec.long_name">MJPEG (Motion JPEG)</property>
  <property name="meta.media.0.codec.bit_rate">0</property>
  <property name="meta.attr.0.stream.HANDLER_NAME.markup">VideoHandler</property>
  <property name="meta.attr.0.stream.VENDOR_ID.markup">[0][0][0][0]</property>
  <property name="meta.attr.0.stream.ENCODER.markup">Lavc60.3.100 mjpeg</property>
  <property name="meta.attr.0.stream.DURATION.markup">00:00:01.000000000</property>
  <property name="meta.attr.COMMENT.markup">Rendered with Manim Community v0.17.2</property>
  <property name="meta.attr.MAJOR_BRAND.markup">isom</property>
  <property name="meta.attr.MINOR_VERSION.markup">512</property>
  <property name="meta.attr.COMPATIBLE_BRANDS.markup">isomiso2avc1mp41</property>
  <property name="meta.attr.ENCODER.markup">Lavf60.3.100</property>
  <property name="seekable">1</property>
  <property name="meta.media.sample_aspect_num">1</property>
  <property name="meta.media.sample_aspect_den">1</property>
  <property name="format">3</property>
  <property name="audio_index">-1</property>
  <property name="video_index">0</property>
  <property name="mute_on_pause">1</property>
  <property name="warp_speed">0.01</property>
  <property name="warp_resource">/home/xiaoxiae/.cache/kdenlive/proxy/ca43190868d89b23e86274e1ddf2df25.mkv</property>
  <property name="mlt_service">timewarp</property>
  <property name="kdenlive:proxy">/home/xiaoxiae/.cache/kdenlive/proxy/ca43190868d89b23e86274e1ddf2df25.mkv</property>
  <property name="kdenlive:originalurl">video/SelectingAB/19.mp4</property>
  <property name="set.test_audio">1</property>
  <property name="set.test_image">0</property>
  <property name="kdenlive:id">499</property>
  <property name="warp_pitch">0</property>
 </producer>
 <playlist id="playlist8">
  <entry producer="producer522" in="00:00:00.000" out="00:00:00.983">
   <property name="kdenlive:id">518</property>
   <filter id="filter41">
    <property name="version">0.2</property>
    <property name="mlt_service">frei0r.vignette</property>
    <property name="kdenlive_id">frei0r.vignette</property>
    <property name="aspect">00:00:00.000=0.5</property>
    <property name="clearCenter">00:00:00.000=0</property>
    <property name="soft">00:00:00.000=0.6</property>
    <properties name="ctor-0x7f47627fc6c0"/>
    <property name="kdenlive:collapsed">0</property>
    <properties name="ctor-0x7f46d1ffe6c0"/>
    <properties name="ctor-0x7f4756ff56c0"/>
    <properties name="ctor-0x7f47547f06c0"/>
    <properties name="ctor-0x7f453fff76c0"/>
    <properties name="ctor-0x7f475b7fe6c0"/>
    <properties name="ctor-0x7feff37fe6c0"/>
   </filter>
   <filter id="filter42">
    <property name="mlt_service">avfilter.gradfun</property>
    <property name="kdenlive_id">avfilter.gradfun</property>
    <property name="av.strength">1.2</property>
    <property name="av.radius">16</property>
    <property name="position">frame</property>
    <property name="kdenlive:collapsed">0</property>
   </filter>
   <filter id="filter43">
    <property name="line_width">00:00:00.000=2</property>
    <property name="num">00:00:00.000=7</property>
    <property name="darker">00:00:00.000=40</property>
    <property name="lighter">00:00:00.000=40</property>
    <property name="mlt_service">lines</property>
    <property name="kdenlive_id">lines</property>
    <property name="line4">1649</property>
    <property name="typeline4">3</property>
    <property name="line3">309</property>
    <property name="typeline3">2</property>
    <property name="line2">1108</property>
    <property name="typeline2">3</property>
    <property name="line1">1218</property>
    <property name="typeline1">3</property>
    <property name="line0">559</property>
    <property name="typeline0">2</property>
    <property name="last_oldfilm_line_pos">0.610169</property>
    <property name="kdenlive:collapsed">0</property>
    <property name="line6">1738</property>
    <property name="typeline6">1</property>
    <property name="line5">400</property>
    <property name="typeline5">3</property>
   </filter>
   <filter id="filter44">
    <property name="version">0.1</property>
    <property name="mlt_service">frei0r.glitch0r</property>
    <property name="kdenlive_id">frei0r.glitch0r</property>
    <property name="0">00:00:00.000=0.022</property>
    <property name="1">00:00:00.000=0.49913</property>
    <property name="2">00:00:00.000=0.499305</property>
    <property name="3">00:00:00.000=0</property>
    <property name="kdenlive:collapsed">0</property>
    <properties name="ctor-0x7f47627fc6c0"/>
    <properties name="ctor-0x7f46d1ffe6c0"/>
    <properties name="ctor-0x7f4756ff56c0"/>
    <properties name="ctor-0x7f47547f06c0"/>
    <properties name="ctor-0x7f453fff76c0"/>
    <properties name="ctor-0x7f475b7fe6c0"/>
    <properties name="ctor-0x7feff37fe6c0"/>
   </filter>
   <filter id="filter45">
    <property name="version">0.1</property>
    <property name="mlt_service">frei0r.tint0r</property>
    <property name="kdenlive_id">frei0r.tint0r</property>
    <property name="Map black to">0x000000ff</property>
    <property name="Map white to">0xffe940ff</property>
    <property name="Tint amount">00:00:00.000=0.25</property>
    <properties name="ctor-0x7f47627fc6c0"/>
    <property name="kdenlive:collapsed">0</property>
    <properties name="ctor-0x7f46d1ffe6c0"/>
    <properties name="ctor-0x7f4756ff56c0"/>
    <properties name="ctor-0x7f47547f06c0"/>
    <properties name="ctor-0x7f453fff76c0"/>
    <properties name="ctor-0x7f475b7fe6c0"/>
    <properties name="ctor-0x7feff37fe6c0"/>
   </filter>
  </entry>
  <entry producer="producer523" in="00:00:00.000" out="00:00:00.683">
   <property name="kdenlive:id">522</property>
   <filter id="filter46">
    <property name="version">0.2</property>
    <property name="mlt_service">frei0r.vignette</property>
    <property name="kdenlive_id">frei0r.vignette</property>
    <property name="aspect">00:00:00.000=0.5</property>
    <property name="clearCenter">00:00:00.000=0</property>
    <property name="soft">00:00:00.000=0.6</property>
    <property name="kdenlive:collapsed">0</property>
    <properties name="ctor-0x7f47547f06c0"/>
    <properties name="ctor-0x7f453fff76c0"/>
    <properties name="ctor-0x7f475b7fe6c0"/>
    <properties name="ctor-0x7feff37fe6c0"/>
   </filter>
   <filter id="filter47">
    <property name="mlt_service">avfilter.gradfun</property>
    <property name="kdenlive_id">avfilter.gradfun</property>
    <property name="av.strength">1.2</property>
    <property name="av.radius">16</property>
    <property name="position">frame</property>
    <property name="kdenlive:collapsed">0</property>
   </filter>
   <filter id="filter48">
    <property name="line_width">00:00:00.000=2</property>
    <property name="num">00:00:00.000=7</property>
    <property name="darker">00:00:00.000=40</property>
    <property name="lighter">00:00:00.000=40</property>
    <property name="mlt_service">lines</property>
    <property name="kdenlive_id">lines</property>
    <property name="kdenlive:collapsed">0</property>
    <property name="line6">786</property>
    <property name="typeline6">3</property>
    <property name="line5">1494</property>
    <property name="typeline5">3</property>
    <property name="line4">197</property>
    <property name="typeline4">3</property>
    <property name="line3">1840</property>
    <property name="typeline3">3</property>
    <property name="line2">348</property>
    <property name="typeline2">3</property>
    <property name="line1">1297</property>
    <property name="typeline1">2</property>
    <property name="line0">889</property>
    <property name="typeline0">3</property>
    <property name="last_oldfilm_line_pos">0.152542</property>
   </filter>
   <filter id="filter49">
    <property name="version">0.1</property>
    <property name="mlt_service">frei0r.glitch0r</property>
    <property name="kdenlive_id">frei0r.glitch0r</property>
    <property name="0">00:00:00.000=0.022</property>
    <property name="1">00:00:00.000=0.49913</property>
    <property name="2">00:00:00.000=0.499305</property>
    <property name="3">00:00:00.000=0</property>
    <property name="kdenlive:collapsed">0</property>
    <properties name="ctor-0x7f47547f06c0"/>
    <properties name="ctor-0x7f453fff76c0"/>
    <properties name="ctor-0x7f475b7fe6c0"/>
    <properties name="ctor-0x7feff37fe6c0"/>
   </filter>
   <filter id="filter50">
    <property name="version">0.1</property>
    <property name="mlt_service">frei0r.tint0r</property>
    <property name="kdenlive_id">frei0r.tint0r</property>
    <property name="Map black to">0x000000ff</property>
    <property name="Map white to">0xffe940ff</property>
    <property name="Tint amount">00:00:00.000=0.25</property>
    <property name="kdenlive:collapsed">0</property>
    <properties name="ctor-0x7f47547f06c0"/>
    <properties name="ctor-0x7f453fff76c0"/>
    <properties name="ctor-0x7f475b7fe6c0"/>
    <properties name="ctor-0x7feff37fe6c0"/>
   </filter>
  </entry>
  <blank length="00:00:02.367"/>
  <entry producer="producer524" in="00:00:00.000" out="00:00:00.983">
   <property name="kdenlive:id">523</property>
   <filter id="filter51">
    <property name="version">0.2</property>
    <property name="mlt_service">frei0r.vignette</property>
    <property name="kdenlive_id">frei0r.vignette</property>
    <property name="aspect">00:00:00.000=0.5</property>
    <property name="clearCenter">00:00:00.000=0</property>
    <property name="soft">00:00:00.000=0.6</property>
    <properties name="ctor-0x7f47547f06c0"/>
    <properties name="ctor-0x7f453fff76c0"/>
    <properties name="ctor-0x7f475b7fe6c0"/>
    <properties name="ctor-0x7feff37fe6c0"/>
   </filter>
   <filter id="filter52">
    <property name="mlt_service">avfilter.gradfun</property>
    <property name="kdenlive_id">avfilter.gradfun</property>
    <property name="av.strength">1.2</property>
    <property name="av.radius">16</property>
    <property name="position">frame</property>
   </filter>
   <filter id="filter53">
    <property name="line_width">00:00:00.000=2</property>
    <property name="num">00:00:00.000=7</property>
    <property name="darker">00:00:00.000=40</property>
    <property name="lighter">00:00:00.000=40</property>
    <property name="mlt_service">lines</property>
    <property name="kdenlive_id">lines</property>
    <property name="line6">1889</property>
    <property name="typeline6">1</property>
    <property name="line5">392</property>
    <property name="typeline5">2</property>
    <property name="line4">1282</property>
    <property name="typeline4">1</property>
    <property name="line3">886</property>
    <property name="typeline3">3</property>
    <property name="line2">728</property>
    <property name="typeline2">2</property>
    <property name="line1">1508</property>
    <property name="typeline1">3</property>
    <property name="line0">152</property>
    <property name="typeline0">3</property>
    <property name="last_oldfilm_line_pos">0.915254</property>
   </filter>
   <filter id="filter54">
    <property name="version">0.1</property>
    <property name="mlt_service">frei0r.glitch0r</property>
    <property name="kdenlive_id">frei0r.glitch0r</property>
    <property name="0">00:00:00.000=0.022</property>
    <property name="1">00:00:00.000=0.49913</property>
    <property name="2">00:00:00.000=0.499305</property>
    <property name="3">00:00:00.000=0</property>
    <properties name="ctor-0x7f47547f06c0"/>
    <properties name="ctor-0x7f453fff76c0"/>
    <properties name="ctor-0x7f475b7fe6c0"/>
    <properties name="ctor-0x7feff37fe6c0"/>
   </filter>
   <filter id="filter55">
    <property name="version">0.1</property>
    <property name="mlt_service">frei0r.tint0r</property>
    <property name="kdenlive_id">frei0r.tint0r</property>
    <property name="Map black to">0x000000ff</property>
    <property name="Map white to">0xffe940ff</property>
    <property name="Tint amount">00:00:00.000=0.25</property>
    <properties name="ctor-0x7f47547f06c0"/>
    <properties name="ctor-0x7f453fff76c0"/>
    <properties name="ctor-0x7f475b7fe6c0"/>
    <properties name="ctor-0x7feff37fe6c0"/>
   </filter>
  </entry>
  <entry producer="producer525" in="00:00:00.000" out="00:00:00.983">
   <property name="kdenlive:id">524</property>
   <filter id="filter56">
    <property name="version">0.2</property>
    <property name="mlt_service">frei0r.vignette</property>
    <property name="kdenlive_id">frei0r.vignette</property>
    <property name="aspect">00:00:00.000=0.5</property>
    <property name="clearCenter">00:00:00.000=0</property>
    <property name="soft">00:00:00.000=0.6</property>
    <properties name="ctor-0x7f47547f06c0"/>
    <properties name="ctor-0x7f473dffb6c0"/>
    <properties name="ctor-0x7f473cff96c0"/>
    <properties name="ctor-0x7f453fff76c0"/>
    <properties name="ctor-0x7f475b7fe6c0"/>
    <properties name="ctor-0x7feff37fe6c0"/>
   </filter>
   <filter id="filter57">
    <property name="mlt_service">avfilter.gradfun</property>
    <property name="kdenlive_id">avfilter.gradfun</property>
    <property name="av.strength">1.2</property>
    <property name="av.radius">16</property>
    <property name="position">frame</property>
   </filter>
   <filter id="filter58">
    <property name="line_width">00:00:00.000=2</property>
    <property name="num">00:00:00.000=7</property>
    <property name="darker">00:00:00.000=40</property>
    <property name="lighter">00:00:00.000=40</property>
    <property name="mlt_service">lines</property>
    <property name="kdenlive_id">lines</property>
    <property name="line6">1524</property>
    <property name="typeline6">3</property>
    <property name="line5">707</property>
    <property name="typeline5">3</property>
    <property name="line4">956</property>
    <property name="typeline4">3</property>
    <property name="line3">1276</property>
    <property name="typeline3">3</property>
    <property name="line2">399</property>
    <property name="typeline2">2</property>
    <property name="line1">1861</property>
    <property name="typeline1">3</property>
    <property name="line0">92</property>
    <property name="typeline0">1</property>
    <property name="last_oldfilm_line_pos">0.186441</property>
   </filter>
   <filter id="filter59">
    <property name="version">0.1</property>
    <property name="mlt_service">frei0r.glitch0r</property>
    <property name="kdenlive_id">frei0r.glitch0r</property>
    <property name="0">00:00:00.000=0.022</property>
    <property name="1">00:00:00.000=0.49913</property>
    <property name="2">00:00:00.000=0.499305</property>
    <property name="3">00:00:00.000=0</property>
    <properties name="ctor-0x7f47547f06c0"/>
    <properties name="ctor-0x7f473dffb6c0"/>
    <properties name="ctor-0x7f473cff96c0"/>
    <properties name="ctor-0x7f453fff76c0"/>
    <properties name="ctor-0x7f475b7fe6c0"/>
    <properties name="ctor-0x7feff37fe6c0"/>
   </filter>
   <filter id="filter60">
    <property name="version">0.1</property>
    <property name="mlt_service">frei0r.tint0r</property>
    <property name="kdenlive_id">frei0r.tint0r</property>
    <property name="Map black to">0x000000ff</property>
    <property name="Map white to">0xffe940ff</property>
    <property name="Tint amount">00:00:00.000=0.25</property>
    <properties name="ctor-0x7f47547f06c0"/>
    <properties name="ctor-0x7f473dffb6c0"/>
    <properties name="ctor-0x7f473cff96c0"/>
    <properties name="ctor-0x7f453fff76c0"/>
    <properties name="ctor-0x7f475b7fe6c0"/>
    <properties name="ctor-0x7feff37fe6c0"/>
   </filter>
  </entry>
  <entry producer="producer526" in="00:00:00.000" out="00:00:04.550">
   <property name="kdenlive:id">525</property>
   <property name="kdenlive:activeeffect">1</property>
   <filter id="filter61">
    <property name="frame">0</property>
    <property name="freeze_after">0</property>
    <property name="freeze_before">0</property>
    <property name="mlt_service">freeze</property>
    <property name="kdenlive_id">freeze</property>
    <property name="kdenlive:collapsed">0</property>
   </filter>
   <filter id="filter62">
    <property name="version">0.2</property>
    <property name="mlt_service">frei0r.vignette</property>
    <property name="kdenlive_id">frei0r.vignette</property>
    <property name="aspect">00:00:00.000=0.5</property>
    <property name="clearCenter">00:00:00.000=0</property>
    <property name="soft">00:00:00.000=0.6</property>
    <property name="kdenlive:collapsed">0</property>
    <properties name="ctor-0x7feff37fe6c0"/>
   </filter>
   <filter id="filter63">
    <property name="mlt_service">avfilter.gradfun</property>
    <property name="kdenlive_id">avfilter.gradfun</property>
    <property name="av.strength">1.2</property>
    <property name="av.radius">16</property>
    <property name="position">frame</property>
    <property name="kdenlive:collapsed">0</property>
   </filter>
   <filter id="filter64">
    <property name="line_width">00:00:00.000=2</property>
    <property name="num">00:00:00.000=7</property>
    <property name="darker">00:00:00.000=40</property>
    <property name="lighter">00:00:00.000=40</property>
    <property name="mlt_service">lines</property>
    <property name="kdenlive_id">lines</property>
    <property name="kdenlive:collapsed">0</property>
    <property name="line6">3500</property>
    <property name="typeline6">3</property>
    <property name="line5">242</property>
    <property name="typeline5">3</property>
    <property name="line4">3050</property>
    <property name="typeline4">2</property>
    <property name="line3">1369</property>
    <property name="typeline3">3</property>
    <property name="line2">1925</property>
    <property name="typeline2">2</property>
    <property name="line1">2468</property>
    <property name="typeline1">2</property>
    <property name="line0">797</property>
    <property name="typeline0">1</property>
    <property name="last_oldfilm_line_pos">0.175292</property>
   </filter>
   <filter id="filter65">
    <property name="version">0.1</property>
    <property name="mlt_service">frei0r.glitch0r</property>
    <property name="kdenlive_id">frei0r.glitch0r</property>
    <property name="0">00:00:00.000=0.022</property>
    <property name="1">00:00:00.000=0.49913</property>
    <property name="2">00:00:00.000=0.499305</property>
    <property name="3">00:00:00.000=0</property>
    <property name="kdenlive:collapsed">0</property>
    <properties name="ctor-0x7feff37fe6c0"/>
   </filter>
   <filter id="filter66">
    <property name="version">0.1</property>
    <property name="mlt_service">frei0r.tint0r</property>
    <property name="kdenlive_id">frei0r.tint0r</property>
    <property name="Map black to">0x000000ff</property>
    <property name="Map white to">0xffe940ff</property>
    <property name="Tint amount">00:00:00.000=0.25</property>
    <property name="kdenlive:collapsed">0</property>
    <properties name="ctor-0x7feff37fe6c0"/>
   </filter>
  </entry>
  <entry producer="producer527" in="00:00:00.000" out="00:00:01.483">
   <property name="kdenlive:id">526</property>
   <filter id="filter67">
    <property name="version">0.2</property>
    <property name="mlt_service">frei0r.vignette</property>
    <property name="kdenlive_id">frei0r.vignette</property>
    <property name="aspect">00:00:00.000=0.5</property>
    <property name="clearCenter">00:00:00.000=0</property>
    <property name="soft">00:00:00.000=0.6</property>
    <properties name="ctor-0x7f4734fe96c0"/>
    <properties name="ctor-0x7f473d7fa6c0"/>
    <properties name="ctor-0x7f453fff76c0"/>
    <properties name="ctor-0x7f475b7fe6c0"/>
    <properties name="ctor-0x7feff37fe6c0"/>
   </filter>
   <filter id="filter68">
    <property name="mlt_service">avfilter.gradfun</property>
    <property name="kdenlive_id">avfilter.gradfun</property>
    <property name="av.strength">1.2</property>
    <property name="av.radius">16</property>
    <property name="position">frame</property>
   </filter>
   <filter id="filter69">
    <property name="line_width">00:00:00.000=2</property>
    <property name="num">00:00:00.000=7</property>
    <property name="darker">00:00:00.000=40</property>
    <property name="lighter">00:00:00.000=40</property>
    <property name="mlt_service">lines</property>
    <property name="kdenlive_id">lines</property>
    <property name="line6">1823</property>
    <property name="typeline6">2</property>
    <property name="line5">385</property>
    <property name="typeline5">3</property>
    <property name="line4">1334</property>
    <property name="typeline4">3</property>
    <property name="line3">879</property>
    <property name="typeline3">2</property>
    <property name="line2">667</property>
    <property name="typeline2">3</property>
    <property name="line1">1523</property>
    <property name="typeline1">1</property>
    <property name="line0">182</property>
    <property name="typeline0">2</property>
    <property name="last_oldfilm_line_pos">0.752809</property>
   </filter>
   <filter id="filter70">
    <property name="version">0.1</property>
    <property name="mlt_service">frei0r.glitch0r</property>
    <property name="kdenlive_id">frei0r.glitch0r</property>
    <property name="0">00:00:00.000=0.022</property>
    <property name="1">00:00:00.000=0.49913</property>
    <property name="2">00:00:00.000=0.499305</property>
    <property name="3">00:00:00.000=0</property>
    <properties name="ctor-0x7f4734fe96c0"/>
    <properties name="ctor-0x7f473d7fa6c0"/>
    <properties name="ctor-0x7f453fff76c0"/>
    <properties name="ctor-0x7f475b7fe6c0"/>
    <properties name="ctor-0x7feff37fe6c0"/>
   </filter>
   <filter id="filter71">
    <property name="version">0.1</property>
    <property name="mlt_service">frei0r.tint0r</property>
    <property name="kdenlive_id">frei0r.tint0r</property>
    <property name="Map black to">0x000000ff</property>
    <property name="Map white to">0xffe940ff</property>
    <property name="Tint amount">00:00:00.000=0.25</property>
    <properties name="ctor-0x7f4734fe96c0"/>
    <properties name="ctor-0x7f473d7fa6c0"/>
    <properties name="ctor-0x7f453fff76c0"/>
    <properties name="ctor-0x7f475b7fe6c0"/>
    <properties name="ctor-0x7feff37fe6c0"/>
   </filter>
  </entry>
  <blank length="00:00:01.150"/>
  <entry producer="producer528" in="00:00:00.000" out="00:00:00.983">
   <property name="kdenlive:id">527</property>
   <filter id="filter72">
    <property name="version">0.2</property>
    <property name="mlt_service">frei0r.vignette</property>
    <property name="kdenlive_id">frei0r.vignette</property>
    <property name="aspect">00:00:00.000=0.5</property>
    <property name="clearCenter">00:00:00.000=0</property>
    <property name="soft">00:00:00.000=0.6</property>
    <properties name="ctor-0x7f473d7fa6c0"/>
    <properties name="ctor-0x7f453fff76c0"/>
    <properties name="ctor-0x7f475b7fe6c0"/>
    <properties name="ctor-0x7feff37fe6c0"/>
   </filter>
   <filter id="filter73">
    <property name="mlt_service">avfilter.gradfun</property>
    <property name="kdenlive_id">avfilter.gradfun</property>
    <property name="av.strength">1.2</property>
    <property name="av.radius">16</property>
    <property name="position">frame</property>
   </filter>
   <filter id="filter74">
    <property name="line_width">00:00:00.000=2</property>
    <property name="num">00:00:00.000=7</property>
    <property name="darker">00:00:00.000=40</property>
    <property name="lighter">00:00:00.000=40</property>
    <property name="mlt_service">lines</property>
    <property name="kdenlive_id">lines</property>
    <property name="line6">1523</property>
    <property name="typeline6">3</property>
    <property name="line5">716</property>
    <property name="typeline5">3</property>
    <property name="line4">985</property>
    <property name="typeline4">3</property>
    <property name="line3">1238</property>
    <property name="typeline3">3</property>
    <property name="line2">412</property>
    <property name="typeline2">2</property>
    <property name="line1">1832</property>
    <property name="typeline1">3</property>
    <property name="line0">115</property>
    <property name="typeline0">1</property>
    <property name="last_oldfilm_line_pos">0.542373</property>
   </filter>
   <filter id="filter75">
    <property name="version">0.1</property>
    <property name="mlt_service">frei0r.glitch0r</property>
    <property name="kdenlive_id">frei0r.glitch0r</property>
    <property name="0">00:00:00.000=0.022</property>
    <property name="1">00:00:00.000=0.49913</property>
    <property name="2">00:00:00.000=0.499305</property>
    <property name="3">00:00:00.000=0</property>
    <properties name="ctor-0x7f473d7fa6c0"/>
    <properties name="ctor-0x7f453fff76c0"/>
    <properties name="ctor-0x7f475b7fe6c0"/>
    <properties name="ctor-0x7feff37fe6c0"/>
   </filter>
   <filter id="filter76">
    <property name="version">0.1</property>
    <property name="mlt_service">frei0r.tint0r</property>
    <property name="kdenlive_id">frei0r.tint0r</property>
    <property name="Map black to">0x000000ff</property>
    <property name="Map white to">0xffe940ff</property>
    <property name="Tint amount">00:00:00.000=0.25</property>
    <properties name="ctor-0x7f473d7fa6c0"/>
    <properties name="ctor-0x7f453fff76c0"/>
    <properties name="ctor-0x7f475b7fe6c0"/>
    <properties name="ctor-0x7feff37fe6c0"/>
   </filter>
  </entry>
  <blank length="00:00:02.783"/>
  <entry producer="producer529" in="00:00:00.000" out="00:00:00.317">
   <property name="kdenlive:id">530</property>
   <filter id="filter77">
    <property name="version">0.2</property>
    <property name="mlt_service">frei0r.vignette</property>
    <property name="kdenlive_id">frei0r.vignette</property>
    <property name="aspect">00:00:00.000=0.5</property>
    <property name="clearCenter">00:00:00.000=0</property>
    <property name="soft">00:00:00.000=0.6</property>
    <properties name="ctor-0x7f473d7fa6c0"/>
    <properties name="ctor-0x7f453fff76c0"/>
    <properties name="ctor-0x7f475b7fe6c0"/>
   </filter>
   <filter id="filter78">
    <property name="mlt_service">avfilter.gradfun</property>
    <property name="kdenlive_id">avfilter.gradfun</property>
    <property name="av.strength">1.2</property>
    <property name="av.radius">16</property>
    <property name="position">frame</property>
   </filter>
   <filter id="filter79">
    <property name="line_width">00:00:00.000=2</property>
    <property name="num">00:00:00.000=7</property>
    <property name="darker">00:00:00.000=40</property>
    <property name="lighter">00:00:00.000=40</property>
    <property name="mlt_service">lines</property>
    <property name="kdenlive_id">lines</property>
    <property name="line6">172</property>
    <property name="typeline6">2</property>
    <property name="line5">1491</property>
    <property name="typeline5">1</property>
    <property name="line4">703</property>
    <property name="typeline4">1</property>
    <property name="line3">929</property>
    <property name="typeline3">2</property>
    <property name="line2">1275</property>
    <property name="typeline2">1</property>
    <property name="line1">344</property>
    <property name="typeline1">3</property>
    <property name="line0">1839</property>
    <property name="typeline0">2</property>
    <property name="last_oldfilm_line_pos">0.736842</property>
   </filter>
   <filter id="filter80">
    <property name="version">0.1</property>
    <property name="mlt_service">frei0r.glitch0r</property>
    <property name="kdenlive_id">frei0r.glitch0r</property>
    <property name="0">00:00:00.000=0.022</property>
    <property name="1">00:00:00.000=0.49913</property>
    <property name="2">00:00:00.000=0.499305</property>
    <property name="3">00:00:00.000=0</property>
    <properties name="ctor-0x7f473d7fa6c0"/>
    <properties name="ctor-0x7f453fff76c0"/>
    <properties name="ctor-0x7f475b7fe6c0"/>
   </filter>
   <filter id="filter81">
    <property name="version">0.1</property>
    <property name="mlt_service">frei0r.tint0r</property>
    <property name="kdenlive_id">frei0r.tint0r</property>
    <property name="Map black to">0x000000ff</property>
    <property name="Map white to">0xffe940ff</property>
    <property name="Tint amount">00:00:00.000=0.25</property>
    <properties name="ctor-0x7f473d7fa6c0"/>
    <properties name="ctor-0x7f453fff76c0"/>
    <properties name="ctor-0x7f475b7fe6c0"/>
   </filter>
  </entry>
  <blank length="00:00:00.350"/>
  <entry producer="producer530" in="00:00:00.000" out="00:00:00.983">
   <property name="kdenlive:id">519</property>
   <filter id="filter82">
    <property name="version">0.2</property>
    <property name="mlt_service">frei0r.vignette</property>
    <property name="kdenlive_id">frei0r.vignette</property>
    <property name="aspect">00:00:00.000=0.5</property>
    <property name="clearCenter">00:00:00.000=0</property>
    <property name="soft">00:00:00.000=0.6</property>
    <properties name="ctor-0x7f473d7fa6c0"/>
    <properties name="ctor-0x7f453fff76c0"/>
    <properties name="ctor-0x7f475b7fe6c0"/>
    <properties name="ctor-0x7feff37fe6c0"/>
   </filter>
   <filter id="filter83">
    <property name="mlt_service">avfilter.gradfun</property>
    <property name="kdenlive_id">avfilter.gradfun</property>
    <property name="av.strength">1.2</property>
    <property name="av.radius">16</property>
    <property name="position">frame</property>
   </filter>
   <filter id="filter84">
    <property name="line_width">00:00:00.000=2</property>
    <property name="num">00:00:00.000=7</property>
    <property name="darker">00:00:00.000=40</property>
    <property name="lighter">00:00:00.000=40</property>
    <property name="mlt_service">lines</property>
    <property name="kdenlive_id">lines</property>
    <property name="line6">925</property>
    <property name="typeline6">2</property>
    <property name="line5">1329</property>
    <property name="typeline5">3</property>
    <property name="line4">341</property>
    <property name="typeline4">3</property>
    <property name="line3">1858</property>
    <property name="typeline3">3</property>
    <property name="line2">237</property>
    <property name="typeline2">3</property>
    <property name="line1">1434</property>
    <property name="typeline1">3</property>
    <property name="line0">754</property>
    <property name="typeline0">2</property>
    <property name="last_oldfilm_line_pos">0.983051</property>
   </filter>
   <filter id="filter85">
    <property name="version">0.1</property>
    <property name="mlt_service">frei0r.glitch0r</property>
    <property name="kdenlive_id">frei0r.glitch0r</property>
    <property name="0">00:00:00.000=0.022</property>
    <property name="1">00:00:00.000=0.49913</property>
    <property name="2">00:00:00.000=0.499305</property>
    <property name="3">00:00:00.000=0</property>
    <properties name="ctor-0x7f473d7fa6c0"/>
    <properties name="ctor-0x7f453fff76c0"/>
    <properties name="ctor-0x7f475b7fe6c0"/>
    <properties name="ctor-0x7feff37fe6c0"/>
   </filter>
   <filter id="filter86">
    <property name="version">0.1</property>
    <property name="mlt_service">frei0r.tint0r</property>
    <property name="kdenlive_id">frei0r.tint0r</property>
    <property name="Map black to">0x000000ff</property>
    <property name="Map white to">0xffe940ff</property>
    <property name="Tint amount">00:00:00.000=0.25</property>
    <properties name="ctor-0x7f473d7fa6c0"/>
    <properties name="ctor-0x7f453fff76c0"/>
    <properties name="ctor-0x7f475b7fe6c0"/>
    <properties name="ctor-0x7feff37fe6c0"/>
   </filter>
  </entry>
  <blank length="00:00:01.700"/>
  <entry producer="producer531" in="00:00:00.000" out="00:00:00.983">
   <property name="kdenlive:id">520</property>
   <filter id="filter87">
    <property name="version">0.2</property>
    <property name="mlt_service">frei0r.vignette</property>
    <property name="kdenlive_id">frei0r.vignette</property>
    <property name="aspect">00:00:00.000=0.5</property>
    <property name="clearCenter">00:00:00.000=0</property>
    <property name="soft">00:00:00.000=0.6</property>
    <property name="kdenlive:collapsed">0</property>
    <properties name="ctor-0x7f473d7fa6c0"/>
    <properties name="ctor-0x7f453fff76c0"/>
    <properties name="ctor-0x7f475b7fe6c0"/>
   </filter>
   <filter id="filter88">
    <property name="mlt_service">avfilter.gradfun</property>
    <property name="kdenlive_id">avfilter.gradfun</property>
    <property name="av.strength">1.2</property>
    <property name="av.radius">16</property>
    <property name="position">frame</property>
    <property name="kdenlive:collapsed">0</property>
   </filter>
   <filter id="filter89">
    <property name="line_width">00:00:00.000=2</property>
    <property name="num">00:00:00.000=7</property>
    <property name="darker">00:00:00.000=40</property>
    <property name="lighter">00:00:00.000=40</property>
    <property name="mlt_service">lines</property>
    <property name="kdenlive_id">lines</property>
    <property name="kdenlive:collapsed">0</property>
    <property name="line6">898</property>
    <property name="typeline6">2</property>
    <property name="line5">1318</property>
    <property name="typeline5">3</property>
    <property name="line4">350</property>
    <property name="typeline4">3</property>
    <property name="line3">1864</property>
    <property name="typeline3">3</property>
    <property name="line2">224</property>
    <property name="typeline2">3</property>
    <property name="line1">1459</property>
    <property name="typeline1">3</property>
    <property name="line0">762</property>
    <property name="typeline0">2</property>
    <property name="last_oldfilm_line_pos">1</property>
   </filter>
   <filter id="filter90">
    <property name="version">0.1</property>
    <property name="mlt_service">frei0r.glitch0r</property>
    <property name="kdenlive_id">frei0r.glitch0r</property>
    <property name="0">00:00:00.000=0.022</property>
    <property name="1">00:00:00.000=0.49913</property>
    <property name="2">00:00:00.000=0.499305</property>
    <property name="3">00:00:00.000=0</property>
    <property name="kdenlive:collapsed">0</property>
    <properties name="ctor-0x7f473d7fa6c0"/>
    <properties name="ctor-0x7f453fff76c0"/>
    <properties name="ctor-0x7f475b7fe6c0"/>
   </filter>
   <filter id="filter91">
    <property name="version">0.1</property>
    <property name="mlt_service">frei0r.tint0r</property>
    <property name="kdenlive_id">frei0r.tint0r</property>
    <property name="Map black to">0x000000ff</property>
    <property name="Map white to">0xffe940ff</property>
    <property name="Tint amount">00:00:00.000=0.25</property>
    <property name="kdenlive:collapsed">0</property>
    <properties name="ctor-0x7f473d7fa6c0"/>
    <properties name="ctor-0x7f453fff76c0"/>
    <properties name="ctor-0x7f475b7fe6c0"/>
   </filter>
  </entry>
  <entry producer="producer505" in="00:00:00.000" out="00:00:05.700">
   <property name="kdenlive:id">538</property>
   <filter id="filter92">
    <property name="rotate_center">1</property>
    <property name="mlt_service">qtblend</property>
    <property name="kdenlive_id">qtblend</property>
    <property name="rect">00:00:00.000=-2018 -1412 7794 5038 1.000000</property>
    <property name="rotation">00:00:00.000=0</property>
    <property name="compositing">0</property>
    <property name="distort">0</property>
    <property name="kdenlive:collapsed">0</property>
   </filter>
  </entry>
  <blank length="00:00:03.717"/>
  <entry producer="producer532" in="00:00:00.000" out="00:00:01.983">
   <property name="kdenlive:id">419</property>
  </entry>
  <blank length="00:00:00.433"/>
  <entry producer="producer533" in="00:00:00.000" out="00:00:01.483">
   <property name="kdenlive:id">430</property>
  </entry>
  <blank length="00:00:01.700"/>
  <entry producer="producer534" in="00:00:00.000" out="00:00:01.083">
   <property name="kdenlive:id">441</property>
  </entry>
  <blank length="00:00:01.600"/>
  <entry producer="producer535" in="00:00:00.000" out="00:00:00.983">
   <property name="kdenlive:id">449</property>
  </entry>
  <blank length="00:00:02.933"/>
  <entry producer="producer536" in="00:00:00.000" out="00:00:01.733">
   <property name="kdenlive:id">450</property>
  </entry>
  <blank length="00:00:00.483"/>
  <entry producer="producer537" in="00:00:00.000" out="00:00:00.983">
   <property name="kdenlive:id">451</property>
  </entry>
  <entry producer="producer538" in="00:00:00.000" out="00:00:00.983">
   <property name="kdenlive:id">452</property>
  </entry>
  <blank length="00:00:02.083"/>
  <entry producer="producer539" in="00:00:00.000" out="00:00:00.983">
   <property name="kdenlive:id">453</property>
  </entry>
  <blank length="00:00:01.867"/>
  <entry producer="producer540" in="00:00:00.000" out="00:00:00.983">
   <property name="kdenlive:id">454</property>
  </entry>
  <entry producer="producer541" in="00:00:00.000" out="00:00:00.983">
   <property name="kdenlive:id">420</property>
  </entry>
  <entry producer="producer542" in="00:00:00.000" out="00:00:00.983">
   <property name="kdenlive:id">421</property>
  </entry>
  <blank length="00:00:00.750"/>
  <entry producer="producer543" in="00:00:00.000" out="00:00:00.983">
   <property name="kdenlive:id">422</property>
  </entry>
  <blank length="00:00:00.583"/>
  <entry producer="producer544" in="00:00:00.000" out="00:00:00.983">
   <property name="kdenlive:id">423</property>
  </entry>
  <entry producer="producer545" in="00:00:00.000" out="00:00:00.983">
   <property name="kdenlive:id">424</property>
  </entry>
  <entry producer="producer546" in="00:00:00.000" out="00:00:00.983">
   <property name="kdenlive:id">425</property>
  </entry>
  <entry producer="producer547" in="00:00:00.000" out="00:00:00.983">
   <property name="kdenlive:id">426</property>
  </entry>
  <blank length="00:00:02.517"/>
  <entry producer="producer548" in="00:00:00.000" out="00:00:00.983">
   <property name="kdenlive:id">427</property>
  </entry>
  <entry producer="producer549" in="00:00:00.000" out="00:00:00.983">
   <property name="kdenlive:id">428</property>
  </entry>
  <entry producer="producer550" in="00:00:00.000" out="00:00:00.983">
   <property name="kdenlive:id">429</property>
  </entry>
  <blank length="00:00:05.650"/>
  <entry producer="producer551" in="00:00:00.000" out="00:00:00.983">
   <property name="kdenlive:id">431</property>
  </entry>
  <entry producer="producer552" in="00:00:00.000" out="00:00:00.983">
   <property name="kdenlive:id">432</property>
  </entry>
  <entry producer="producer553" in="00:00:00.000" out="00:00:00.983">
   <property name="kdenlive:id">433</property>
  </entry>
  <entry producer="producer554" in="00:00:00.000" out="00:00:00.983">
   <property name="kdenlive:id">434</property>
  </entry>
  <entry producer="producer555" in="00:00:00.000" out="00:00:00.983">
   <property name="kdenlive:id">435</property>
  </entry>
  <entry producer="producer556" in="00:00:00.000" out="00:00:00.983">
   <property name="kdenlive:id">436</property>
  </entry>
  <blank length="00:00:00.667"/>
  <entry producer="producer557" in="00:00:00.000" out="00:00:00.983">
   <property name="kdenlive:id">437</property>
  </entry>
  <blank length="00:00:04.033"/>
  <entry producer="producer558" in="00:00:00.000" out="00:00:00.983">
   <property name="kdenlive:id">438</property>
  </entry>
  <blank length="00:00:01.133"/>
  <entry producer="producer559" in="00:00:00.000" out="00:00:01.483">
   <property name="kdenlive:id">439</property>
  </entry>
  <entry producer="producer560" in="00:00:00.000" out="00:00:01.483">
   <property name="kdenlive:id">440</property>
  </entry>
  <entry producer="producer561" in="00:00:00.000" out="00:00:01.483">
   <property name="kdenlive:id">442</property>
  </entry>
  <blank length="00:00:05.650"/>
  <entry producer="producer562" in="00:00:00.000" out="00:00:00.983">
   <property name="kdenlive:id">443</property>
  </entry>
  <entry producer="producer563" in="00:00:00.000" out="00:00:00.983">
   <property name="kdenlive:id">444</property>
  </entry>
  <blank length="00:00:00.483"/>
  <entry producer="producer564" in="00:00:00.000" out="00:00:01.483">
   <property name="kdenlive:id">445</property>
  </entry>
  <blank length="00:00:01.933"/>
  <entry producer="producer565" in="00:00:00.000" out="00:00:00.983">
   <property name="kdenlive:id">446</property>
  </entry>
  <entry producer="producer566" in="00:00:00.000" out="00:00:00.983">
   <property name="kdenlive:id">447</property>
  </entry>
  <blank length="00:00:00.900"/>
  <entry producer="producer567" in="00:00:00.000" out="00:00:01.983">
   <property name="kdenlive:id">342</property>
  </entry>
  <blank length="00:00:01.433"/>
  <entry producer="producer568" in="00:00:00.000" out="00:00:01.317">
   <property name="kdenlive:id">354</property>
  </entry>
  <blank length="00:00:00.517"/>
  <entry producer="producer569" in="00:00:00.000" out="00:00:00.983">
   <property name="kdenlive:id">365</property>
  </entry>
  <blank length="00:00:00.233"/>
  <entry producer="producer570" in="00:00:00.000" out="00:00:00.983">
   <property name="kdenlive:id">371</property>
  </entry>
  <blank length="00:00:00.350"/>
  <entry producer="producer571" in="00:00:00.000" out="00:00:00.983">
   <property name="kdenlive:id">372</property>
  </entry>
  <blank length="00:00:01.567"/>
  <entry producer="producer572" in="00:00:00.000" out="00:00:00.983">
   <property name="kdenlive:id">373</property>
  </entry>
  <blank length="00:00:01.600"/>
  <entry producer="producer573" in="00:00:00.000" out="00:00:00.983">
   <property name="kdenlive:id">374</property>
  </entry>
  <blank length="00:00:00.517"/>
  <entry producer="producer574" in="00:00:00.000" out="00:00:00.983">
   <property name="kdenlive:id">375</property>
  </entry>
  <blank length="00:00:01.217"/>
  <entry producer="producer575" in="00:00:00.000" out="00:00:00.983">
   <property name="kdenlive:id">376</property>
  </entry>
  <blank length="00:00:01.500"/>
  <entry producer="producer576" in="00:00:00.000" out="00:00:00.983">
   <property name="kdenlive:id">343</property>
  </entry>
  <blank length="00:00:00.383"/>
  <entry producer="producer577" in="00:00:00.000" out="00:00:00.983">
   <property name="kdenlive:id">345</property>
  </entry>
  <entry producer="producer578" in="00:00:00.000" out="00:00:00.983">
   <property name="kdenlive:id">346</property>
  </entry>
  <blank length="00:00:01.200"/>
  <entry producer="producer579" in="00:00:00.000" out="00:00:01.483">
   <property name="kdenlive:id">347</property>
  </entry>
  <blank length="00:00:00.683"/>
  <entry producer="producer580" in="00:00:00.000" out="00:00:01.083">
   <property name="kdenlive:id">348</property>
  </entry>
  <blank length="00:00:00.617"/>
  <entry producer="producer581" in="00:00:00.000" out="00:00:00.983">
   <property name="kdenlive:id">349</property>
  </entry>
  <blank length="00:00:01.433"/>
  <entry producer="producer582" in="00:00:00.000" out="00:00:00.983">
   <property name="kdenlive:id">350</property>
  </entry>
  <blank length="00:00:01.183"/>
  <entry producer="producer583" in="00:00:00.000" out="00:00:01.483">
   <property name="kdenlive:id">351</property>
  </entry>
  <blank length="00:00:05.633"/>
  <entry producer="producer584" in="00:00:00.000" out="00:00:00.983">
   <property name="kdenlive:id">352</property>
  </entry>
  <blank length="00:00:03.733"/>
  <entry producer="producer585" in="00:00:00.000" out="00:00:00.983">
   <property name="kdenlive:id">353</property>
  </entry>
  <blank length="00:00:03.083"/>
  <entry producer="producer586" in="00:00:00.000" out="00:00:00.983">
   <property name="kdenlive:id">355</property>
  </entry>
  <blank length="00:00:03.567"/>
  <entry producer="producer587" in="00:00:00.000" out="00:00:01.483">
   <property name="kdenlive:id">356</property>
  </entry>
  <blank length="00:00:01.917"/>
  <entry producer="producer588" in="00:00:00.000" out="00:00:01.483">
   <property name="kdenlive:id">357</property>
  </entry>
  <blank length="00:00:02.200"/>
  <entry producer="producer589" in="00:00:00.000" out="00:00:00.983">
   <property name="kdenlive:id">358</property>
  </entry>
  <blank length="00:00:02.200"/>
  <entry producer="producer590" in="00:00:00.000" out="00:00:00.983">
   <property name="kdenlive:id">359</property>
  </entry>
  <blank length="00:00:05.583"/>
  <entry producer="producer591" in="00:00:00.000" out="00:00:00.983">
   <property name="kdenlive:id">360</property>
  </entry>
  <blank length="00:00:00.417"/>
  <entry producer="producer592" in="00:00:00.000" out="00:00:00.983">
   <property name="kdenlive:id">361</property>
  </entry>
  <blank length="00:00:01.533"/>
  <entry producer="producer593" in="00:00:00.000" out="00:00:00.983">
   <property name="kdenlive:id">362</property>
  </entry>
  <blank length="00:00:04.867"/>
  <entry producer="producer594" in="00:00:00.000" out="00:00:00.983">
   <property name="kdenlive:id">363</property>
  </entry>
  <blank length="00:00:02.967"/>
  <entry producer="producer595" in="00:00:00.000" out="00:00:00.983">
   <property name="kdenlive:id">364</property>
  </entry>
  <blank length="00:00:01.183"/>
  <entry producer="producer596" in="00:00:00.000" out="00:00:00.983">
   <property name="kdenlive:id">366</property>
  </entry>
  <blank length="00:00:01.900"/>
  <entry producer="producer597" in="00:00:00.000" out="00:00:00.983">
   <property name="kdenlive:id">367</property>
  </entry>
  <blank length="00:00:00.800"/>
  <entry producer="producer598" in="00:00:00.000" out="00:00:00.983">
   <property name="kdenlive:id">368</property>
  </entry>
  <blank length="00:00:00.283"/>
  <entry producer="producer599" in="00:00:00.000" out="00:00:00.983">
   <property name="kdenlive:id">369</property>
  </entry>
  <blank length="00:00:01.750"/>
  <entry producer="producer600" in="00:00:00.000" out="00:00:00.983">
   <property name="kdenlive:id">370</property>
  </entry>
  <entry producer="producer601" in="00:00:00.000" out="00:00:02.483">
   <property name="kdenlive:id">455</property>
  </entry>
  <blank length="00:00:03.533"/>
  <entry producer="producer602" in="00:00:00.000" out="00:00:00.983">
   <property name="kdenlive:id">466</property>
  </entry>
  <blank length="00:00:01.867"/>
  <entry producer="producer603" in="00:00:00.000" out="00:00:00.983">
   <property name="kdenlive:id">477</property>
  </entry>
  <blank length="00:00:00.467"/>
  <entry producer="producer604" in="00:00:00.000" out="00:00:00.983">
   <property name="kdenlive:id">482</property>
  </entry>
  <entry producer="producer605" in="00:00:00.000" out="00:00:00.650">
   <property name="kdenlive:id">483</property>
  </entry>
  <entry producer="producer606" in="00:00:00.000" out="00:00:00.650">
   <property name="kdenlive:id">484</property>
  </entry>
  <entry producer="producer607" in="00:00:00.000" out="00:00:00.650">
   <property name="kdenlive:id">485</property>
  </entry>
  <entry producer="producer608" in="00:00:00.000" out="00:00:00.650">
   <property name="kdenlive:id">486</property>
  </entry>
  <blank length="00:00:01.150"/>
  <entry producer="producer609" in="00:00:00.000" out="00:00:00.983">
   <property name="kdenlive:id">487</property>
  </entry>
  <blank length="00:00:00.417"/>
  <entry producer="producer610" in="00:00:00.000" out="00:00:00.983">
   <property name="kdenlive:id">456</property>
  </entry>
  <entry producer="producer611" in="00:00:00.000" out="00:00:00.983">
   <property name="kdenlive:id">457</property>
  </entry>
  <entry producer="producer612" in="00:00:00.000" out="00:00:00.650">
   <property name="kdenlive:id">458</property>
  </entry>
  <entry producer="producer613" in="00:00:00.000" out="00:00:00.650">
   <property name="kdenlive:id">459</property>
  </entry>
  <entry producer="producer614" in="00:00:00.000" out="00:00:00.650">
   <property name="kdenlive:id">460</property>
  </entry>
  <blank length="00:00:01.150"/>
  <entry producer="producer615" in="00:00:00.000" out="00:00:01.483">
   <property name="kdenlive:id">461</property>
  </entry>
  <blank length="00:00:02.333"/>
  <entry producer="producer616" in="00:00:00.000" out="00:00:00.983">
   <property name="kdenlive:id">462</property>
  </entry>
  <entry producer="producer617" in="00:00:00.000" out="00:00:00.483">
   <property name="kdenlive:id">463</property>
  </entry>
  <entry producer="producer618" in="00:00:00.000" out="00:00:00.483">
   <property name="kdenlive:id">464</property>
  </entry>
  <entry producer="producer619" in="00:00:00.000" out="00:00:00.317">
   <property name="kdenlive:id">465</property>
  </entry>
  <entry producer="producer620" in="00:00:00.000" out="00:00:00.317">
   <property name="kdenlive:id">467</property>
  </entry>
  <entry producer="producer621" in="00:00:00.000" out="00:00:00.317">
   <property name="kdenlive:id">468</property>
  </entry>
  <entry producer="producer622" in="00:00:00.000" out="00:00:00.317">
   <property name="kdenlive:id">469</property>
  </entry>
  <entry producer="producer623" in="00:00:00.000" out="00:00:00.483">
   <property name="kdenlive:id">470</property>
  </entry>
  <entry producer="producer624" in="00:00:00.000" out="00:00:00.483">
   <property name="kdenlive:id">471</property>
  </entry>
  <entry producer="producer625" in="00:00:00.000" out="00:00:00.483">
   <property name="kdenlive:id">472</property>
  </entry>
  <entry producer="producer626" in="00:00:00.000" out="00:00:00.317">
   <property name="kdenlive:id">473</property>
  </entry>
  <entry producer="producer627" in="00:00:00.000" out="00:00:00.317">
   <property name="kdenlive:id">474</property>
  </entry>
  <entry producer="producer628" in="00:00:00.000" out="00:00:00.317">
   <property name="kdenlive:id">475</property>
  </entry>
  <entry producer="producer629" in="00:00:00.000" out="00:00:00.317">
   <property name="kdenlive:id">476</property>
  </entry>
  <entry producer="producer630" in="00:00:00.000" out="00:00:00.317">
   <property name="kdenlive:id">478</property>
  </entry>
  <entry producer="producer631" in="00:00:00.000" out="00:00:00.317">
   <property name="kdenlive:id">479</property>
  </entry>
  <blank length="00:00:04.933"/>
  <entry producer="producer632" in="00:00:00.000" out="00:00:01.483">
   <property name="kdenlive:id">480</property>
  </entry>
  <blank length="00:00:03.583"/>
  <entry producer="producer633" in="00:00:00.000" out="00:00:00.983">
   <property name="kdenlive:id">380</property>
  </entry>
  <blank length="00:00:00.800"/>
  <entry producer="producer634" in="00:00:00.000" out="00:00:00.983">
   <property name="kdenlive:id">391</property>
  </entry>
  <blank length="00:00:00.467"/>
  <entry producer="producer635" in="00:00:00.000" out="00:00:00.183">
   <property name="kdenlive:id">402</property>
  </entry>
  <entry producer="producer636" in="00:00:00.000" out="00:00:00.183">
   <property name="kdenlive:id">413</property>
  </entry>
  <entry producer="producer637" in="00:00:00.000" out="00:00:00.117">
   <property name="kdenlive:id">414</property>
  </entry>
  <entry producer="producer638" in="00:00:00.000" out="00:00:00.117">
   <property name="kdenlive:id">415</property>
  </entry>
  <entry producer="producer639" in="00:00:00.000" out="00:00:00.117">
   <property name="kdenlive:id">416</property>
  </entry>
  <entry producer="producer640" in="00:00:00.000" out="00:00:00.117">
   <property name="kdenlive:id">417</property>
  </entry>
  <entry producer="producer641" in="00:00:00.000" out="00:00:00.183">
   <property name="kdenlive:id">418</property>
  </entry>
  <entry producer="producer642" in="00:00:00.000" out="00:00:00.183">
   <property name="kdenlive:id">381</property>
  </entry>
  <entry producer="producer643" in="00:00:00.000" out="00:00:00.183">
   <property name="kdenlive:id">382</property>
  </entry>
  <entry producer="producer644" in="00:00:00.000" out="00:00:00.117">
   <property name="kdenlive:id">383</property>
  </entry>
  <entry producer="producer645" in="00:00:00.000" out="00:00:00.117">
   <property name="kdenlive:id">384</property>
  </entry>
  <entry producer="producer646" in="00:00:00.000" out="00:00:00.117">
   <property name="kdenlive:id">385</property>
  </entry>
  <entry producer="producer647" in="00:00:00.000" out="00:00:00.117">
   <property name="kdenlive:id">386</property>
  </entry>
  <entry producer="producer648" in="00:00:00.000" out="00:00:00.117">
   <property name="kdenlive:id">387</property>
  </entry>
  <entry producer="producer649" in="00:00:00.000" out="00:00:00.117">
   <property name="kdenlive:id">388</property>
  </entry>
  <blank length="00:00:00.367"/>
  <entry producer="producer650" in="00:00:00.000" out="00:00:01.983">
   <property name="kdenlive:id">389</property>
  </entry>
  <blank length="00:00:03.383"/>
  <entry producer="producer651" in="00:00:00.000" out="00:00:00.983">
   <property name="kdenlive:id">390</property>
  </entry>
  <blank length="00:00:02.983"/>
  <entry producer="producer652" in="00:00:00.000" out="00:00:00.983">
   <property name="kdenlive:id">392</property>
  </entry>
  <blank length="00:00:11.067"/>
  <entry producer="producer653" in="00:00:00.000" out="00:00:02.233">
   <property name="kdenlive:id">393</property>
  </entry>
  <blank length="00:00:02.650"/>
  <entry producer="producer654" in="00:00:00.000" out="00:00:00.983">
   <property name="kdenlive:id">394</property>
  </entry>
  <blank length="00:00:05.000"/>
  <entry producer="producer655" in="00:00:00.000" out="00:00:00.983">
   <property name="kdenlive:id">395</property>
  </entry>
  <blank length="00:00:03.217"/>
  <entry producer="producer656" in="00:00:00.000" out="00:00:00.983">
   <property name="kdenlive:id">396</property>
  </entry>
  <entry producer="producer657" in="00:00:00.000" out="00:00:01.483">
   <property name="kdenlive:id">397</property>
  </entry>
  <entry producer="producer658" in="00:00:00.000" out="00:00:00.983">
   <property name="kdenlive:id">398</property>
  </entry>
  <entry producer="producer659" in="00:00:00.000" out="00:00:01.483">
   <property name="kdenlive:id">399</property>
  </entry>
  <entry producer="producer660" in="00:00:00.000" out="00:00:00.983">
   <property name="kdenlive:id">400</property>
  </entry>
  <entry producer="producer661" in="00:00:00.000" out="00:00:01.333">
   <property name="kdenlive:id">401</property>
  </entry>
  <entry producer="producer662" in="00:00:00.000" out="00:00:00.983">
   <property name="kdenlive:id">403</property>
  </entry>
  <entry producer="producer663" in="00:00:00.000" out="00:00:01.333">
   <property name="kdenlive:id">404</property>
  </entry>
  <blank length="00:00:06.083"/>
  <entry producer="producer664" in="00:00:00.000" out="00:00:00.983">
   <property name="kdenlive:id">405</property>
  </entry>
  <blank length="00:00:02.250"/>
  <entry producer="producer665" in="00:00:00.000" out="00:00:00.983">
   <property name="kdenlive:id">406</property>
  </entry>
  <blank length="00:00:01.717"/>
  <entry producer="producer666" in="00:00:00.000" out="00:00:00.983">
   <property name="kdenlive:id">407</property>
  </entry>
  <blank length="00:00:00.433"/>
  <entry producer="producer667" in="00:00:00.000" out="00:00:00.983">
   <property name="kdenlive:id">408</property>
  </entry>
  <blank length="00:00:01.967"/>
  <entry producer="producer668" in="00:00:00.000" out="00:00:00.983">
   <property name="kdenlive:id">409</property>
  </entry>
  <blank length="00:00:03.133"/>
  <entry producer="producer669" in="00:00:00.000" out="00:00:01.483">
   <property name="kdenlive:id">410</property>
  </entry>
  <blank length="00:00:01.833"/>
  <entry producer="producer670" in="00:00:00.000" out="00:00:00.983">
   <property name="kdenlive:id">411</property>
  </entry>
  <blank length="00:00:03.217"/>
  <entry producer="producer671" in="00:00:00.000" out="00:00:00.983">
   <property name="kdenlive:id">539</property>
  </entry>
  <blank length="00:00:01.200"/>
  <entry producer="producer672" in="00:00:00.000" out="00:00:00.983">
   <property name="kdenlive:id">550</property>
  </entry>
  <blank length="00:00:01.433"/>
  <entry producer="producer673" in="00:00:00.000" out="00:00:00.183">
   <property name="kdenlive:id">573</property>
  </entry>
  <entry producer="producer674" in="00:00:00.000" out="00:00:00.117">
   <property name="kdenlive:id">584</property>
  </entry>
  <entry producer="producer675" in="00:00:00.000" out="00:00:00.117">
   <property name="kdenlive:id">586</property>
  </entry>
  <entry producer="producer676" in="00:00:00.000" out="00:00:00.183">
   <property name="kdenlive:id">587</property>
  </entry>
  <entry producer="producer677" in="00:00:00.000" out="00:00:00.183">
   <property name="kdenlive:id">588</property>
  </entry>
  <entry producer="producer678" in="00:00:00.000" out="00:00:00.183">
   <property name="kdenlive:id">589</property>
  </entry>
  <entry producer="producer679" in="00:00:00.000" out="00:00:00.117">
   <property name="kdenlive:id">540</property>
  </entry>
  <entry producer="producer680" in="00:00:00.000" out="00:00:00.117">
   <property name="kdenlive:id">541</property>
  </entry>
  <entry producer="producer681" in="00:00:00.000" out="00:00:00.117">
   <property name="kdenlive:id">542</property>
  </entry>
  <entry producer="producer682" in="00:00:00.000" out="00:00:00.117">
   <property name="kdenlive:id">543</property>
  </entry>
  <entry producer="producer683" in="00:00:00.000" out="00:00:00.183">
   <property name="kdenlive:id">544</property>
  </entry>
  <entry producer="producer684" in="00:00:00.000" out="00:00:00.183">
   <property name="kdenlive:id">545</property>
  </entry>
  <entry producer="producer685" in="00:00:00.000" out="00:00:00.183">
   <property name="kdenlive:id">546</property>
  </entry>
  <entry producer="producer686" in="00:00:00.000" out="00:00:00.117">
   <property name="kdenlive:id">547</property>
  </entry>
  <entry producer="producer687" in="00:00:00.000" out="00:00:00.117">
   <property name="kdenlive:id">548</property>
  </entry>
  <entry producer="producer688" in="00:00:00.000" out="00:00:00.117">
   <property name="kdenlive:id">549</property>
  </entry>
  <blank length="00:00:02.483"/>
  <entry producer="producer689" in="00:00:00.000" out="00:00:01.483">
   <property name="kdenlive:id">551</property>
  </entry>
  <blank length="00:00:00.400"/>
  <entry producer="producer690" in="00:00:00.000" out="00:00:00.983">
   <property name="kdenlive:id">552</property>
  </entry>
  <blank length="00:00:00.383"/>
  <entry producer="producer691" in="00:00:00.000" out="00:00:00.983">
   <property name="kdenlive:id">553</property>
  </entry>
  <blank length="00:00:00.833"/>
  <entry producer="producer692" in="00:00:00.000" out="00:00:00.983">
   <property name="kdenlive:id">554</property>
  </entry>
  <blank length="00:00:02.550"/>
  <entry producer="producer693" in="00:00:00.000" out="00:00:00.983">
   <property name="kdenlive:id">555</property>
  </entry>
  <blank length="00:00:10.733"/>
  <entry producer="producer694" in="00:00:00.000" out="00:00:00.983">
   <property name="kdenlive:id">556</property>
  </entry>
  <blank length="00:00:06.217"/>
  <entry producer="producer695" in="00:00:00.000" out="00:00:00.983">
   <property name="kdenlive:id">557</property>
  </entry>
  <blank length="00:00:04.417"/>
  <entry producer="producer696" in="00:00:00.000" out="00:00:00.983">
   <property name="kdenlive:id">558</property>
  </entry>
  <blank length="00:00:03.200"/>
  <entry producer="producer697" in="00:00:00.000" out="00:00:00.917">
   <property name="kdenlive:id">559</property>
  </entry>
  <entry producer="producer697" in="00:00:00.933" out="00:00:00.983">
   <property name="kdenlive:id">559</property>
  </entry>
  <blank length="00:00:00.633"/>
  <entry producer="producer698" in="00:00:00.000" out="00:00:00.983">
   <property name="kdenlive:id">560</property>
  </entry>
  <entry producer="producer699" in="00:00:00.000" out="00:00:00.983">
   <property name="kdenlive:id">562</property>
  </entry>
  <blank length="00:00:04.800"/>
  <entry producer="producer700" in="00:00:00.000" out="00:00:01.483">
   <property name="kdenlive:id">563</property>
  </entry>
  <blank length="00:00:05.483"/>
  <entry producer="producer701" in="00:00:00.000" out="00:00:00.983">
   <property name="kdenlive:id">564</property>
  </entry>
  <blank length="00:00:00.700"/>
  <entry producer="producer702" in="00:00:00.000" out="00:00:00.983">
   <property name="kdenlive:id">566</property>
  </entry>
  <blank length="00:00:01.483"/>
  <entry producer="producer703" in="00:00:00.000" out="00:00:00.983">
   <property name="kdenlive:id">567</property>
  </entry>
  <blank length="00:00:01.817"/>
  <entry producer="producer704" in="00:00:00.000" out="00:00:01.483">
   <property name="kdenlive:id">568</property>
  </entry>
  <blank length="00:00:00.433"/>
  <entry producer="producer705" in="00:00:00.000" out="00:00:00.983">
   <property name="kdenlive:id">569</property>
  </entry>
  <blank length="00:00:02.150"/>
  <entry producer="producer706" in="00:00:00.000" out="00:00:00.983">
   <property name="kdenlive:id">570</property>
  </entry>
  <blank length="00:00:05.300"/>
  <entry producer="producer707" in="00:00:00.000" out="00:00:00.983">
   <property name="kdenlive:id">571</property>
  </entry>
  <blank length="00:00:01.217"/>
  <entry producer="producer708" in="00:00:00.000" out="00:00:01.383">
   <property name="kdenlive:id">572</property>
  </entry>
  <blank length="00:00:03.217"/>
  <entry producer="producer709" in="00:00:00.000" out="00:00:00.983">
   <property name="kdenlive:id">574</property>
  </entry>
  <blank length="00:00:05.117"/>
  <entry producer="producer710" in="00:00:00.000" out="00:00:00.983">
   <property name="kdenlive:id">575</property>
  </entry>
  <blank length="00:00:00.217"/>
  <entry producer="producer711" in="00:00:00.000" out="00:00:01.483">
   <property name="kdenlive:id">576</property>
  </entry>
  <entry producer="producer712" in="00:00:00.000" out="00:00:00.983">
   <property name="kdenlive:id">577</property>
  </entry>
  <blank length="00:00:00.267"/>
  <entry producer="producer713" in="00:00:00.000" out="00:00:00.983">
   <property name="kdenlive:id">578</property>
  </entry>
  <blank length="00:00:04.583"/>
  <entry producer="producer714" in="00:00:00.000" out="00:00:00.983">
   <property name="kdenlive:id">579</property>
  </entry>
  <blank length="00:00:06.783"/>
  <entry producer="producer715" in="00:00:00.000" out="00:00:00.983">
   <property name="kdenlive:id">580</property>
  </entry>
  <blank length="00:00:04.667"/>
  <entry producer="producer716" in="00:00:00.000" out="00:00:00.983">
   <property name="kdenlive:id">581</property>
  </entry>
  <blank length="00:00:05.083"/>
  <entry producer="producer717" in="00:00:00.000" out="00:00:00.983">
   <property name="kdenlive:id">582</property>
  </entry>
  <blank length="00:00:00.117"/>
  <entry producer="producer718" in="00:00:00.000" out="00:00:00.983">
   <property name="kdenlive:id">583</property>
  </entry>
  <entry producer="producer719" in="00:00:00.000" out="00:00:00.983">
   <property name="kdenlive:id">489</property>
  </entry>
  <blank length="00:00:04.400"/>
  <entry producer="producer720" in="00:00:00.000" out="00:00:00.983">
   <property name="kdenlive:id">500</property>
  </entry>
  <blank length="00:00:07.383"/>
  <entry producer="producer721" in="00:00:00.000" out="00:00:00.983">
   <property name="kdenlive:id">501</property>
  </entry>
  <blank length="00:00:01.883"/>
  <entry producer="producer722" in="00:00:00.000" out="00:00:01.483">
   <property name="kdenlive:id">502</property>
  </entry>
  <blank length="00:00:01.217"/>
  <entry producer="producer723" in="00:00:00.000" out="00:00:00.983">
   <property name="kdenlive:id">503</property>
  </entry>
  <entry producer="producer724" in="00:00:00.000" out="00:00:00.983">
   <property name="kdenlive:id">504</property>
  </entry>
  <entry producer="producer725" in="00:00:00.000" out="00:00:00.983">
   <property name="kdenlive:id">505</property>
  </entry>
  <entry producer="producer726" in="00:00:00.000" out="00:00:00.983">
   <property name="kdenlive:id">506</property>
  </entry>
  <entry producer="producer727" in="00:00:00.000" out="00:00:00.983">
   <property name="kdenlive:id">507</property>
  </entry>
  <entry producer="producer728" in="00:00:00.000" out="00:00:00.983">
   <property name="kdenlive:id">490</property>
  </entry>
  <blank length="00:00:01.733"/>
  <entry producer="producer729" in="00:00:00.000" out="00:00:00.983">
   <property name="kdenlive:id">491</property>
  </entry>
  <blank length="00:00:05.700"/>
  <entry producer="producer730" in="00:00:00.000" out="00:00:00.983">
   <property name="kdenlive:id">492</property>
  </entry>
  <entry producer="producer731" in="00:00:00.000" out="00:00:00.983">
   <property name="kdenlive:id">493</property>
  </entry>
  <blank length="00:00:00.183"/>
  <entry producer="producer732" in="00:00:00.000" out="00:00:00.983">
   <property name="kdenlive:id">494</property>
  </entry>
  <blank length="00:00:00.817"/>
  <entry producer="producer733" in="00:00:00.000" out="00:00:01.233">
   <property name="kdenlive:id">495</property>
  </entry>
  <blank length="00:00:06.933"/>
  <entry producer="producer734" in="00:00:00.000" out="00:00:02.067">
   <property name="kdenlive:id">496</property>
  </entry>
  <blank length="00:00:01.783"/>
  <entry producer="producer735" in="00:00:00.000" out="00:00:01.633">
   <property name="kdenlive:id">497</property>
  </entry>
  <blank length="00:00:02.767"/>
  <entry producer="producer736" in="00:00:00.000" out="00:00:00.983">
   <property name="kdenlive:id">498</property>
  </entry>
  <entry producer="producer737" in="00:00:00.000" out="00:00:49.450">
   <property name="kdenlive:id">499</property>
   <filter id="filter93">
    <property name="argument">There will probably be more animations here</property>
    <property name="geometry">00:00:00.000=501 427 1681 756 0.000000</property>
    <property name="family">DejaVu Sans</property>
    <property name="size">47</property>
    <property name="weight">370</property>
    <property name="style">normal</property>
    <property name="fgcolour">0xffffffff</property>
    <property name="bgcolour">0x00000020</property>
    <property name="olcolour">0x00000000</property>
    <property name="pad">0</property>
    <property name="halign">left</property>
    <property name="valign">top</property>
    <property name="outline">0</property>
    <property name="mlt_service">dynamictext</property>
    <property name="kdenlive_id">dynamictext</property>
    <property name="kdenlive:collapsed">0</property>
   </filter>
  </entry>
 </playlist>
 <playlist id="playlist9"/>
 <tractor id="tractor4" in="00:00:00.000" out="00:09:13.550">
  <property name="kdenlive:trackheight">67</property>
  <property name="kdenlive:timeline_active">1</property>
  <property name="kdenlive:collapsed">0</property>
  <property name="kdenlive:thumbs_format"/>
  <property name="kdenlive:audio_rec"/>
  <track hide="audio" producer="playlist8"/>
  <track hide="audio" producer="playlist9"/>
 </tractor>
 <producer id="producer738" in="00:00:00.000" out="00:00:03.317">
  <property name="length">200</property>
  <property name="eof">pause</property>
  <property name="resource">0.300000:/home/xiaoxiae/.cache/kdenlive/proxy/92fb96fc256fb05ea7f54c028df3a9fe.mkv</property>
  <property name="aspect_ratio">1</property>
  <property name="meta.media.nb_streams">1</property>
  <property name="meta.media.0.stream.type">video</property>
  <property name="meta.media.0.stream.frame_rate">60</property>
  <property name="meta.media.0.stream.sample_aspect_ratio">0</property>
  <property name="meta.media.0.codec.width">640</property>
  <property name="meta.media.0.codec.height">360</property>
  <property name="meta.media.0.codec.rotate">0</property>
  <property name="meta.media.0.codec.pix_fmt">yuvj420p</property>
  <property name="meta.media.0.codec.sample_aspect_ratio">0</property>
  <property name="meta.media.0.codec.colorspace">601</property>
  <property name="meta.media.0.codec.name">mjpeg</property>
  <property name="meta.media.0.codec.long_name">MJPEG (Motion JPEG)</property>
  <property name="meta.media.0.codec.bit_rate">0</property>
  <property name="meta.attr.0.stream.HANDLER_NAME.markup">VideoHandler</property>
  <property name="meta.attr.0.stream.VENDOR_ID.markup">[0][0][0][0]</property>
  <property name="meta.attr.0.stream.ENCODER.markup">Lavc60.3.100 mjpeg</property>
  <property name="meta.attr.0.stream.DURATION.markup">00:00:01.000000000</property>
  <property name="meta.attr.COMMENT.markup">Rendered with Manim Community v0.17.2</property>
  <property name="meta.attr.MAJOR_BRAND.markup">isom</property>
  <property name="meta.attr.MINOR_VERSION.markup">512</property>
  <property name="meta.attr.COMPATIBLE_BRANDS.markup">isomiso2avc1mp41</property>
  <property name="meta.attr.ENCODER.markup">Lavf60.3.100</property>
  <property name="seekable">1</property>
  <property name="meta.media.sample_aspect_num">1</property>
  <property name="meta.media.sample_aspect_den">1</property>
  <property name="format">3</property>
  <property name="audio_index">-1</property>
  <property name="video_index">0</property>
  <property name="mute_on_pause">1</property>
  <property name="warp_speed">0.3</property>
  <property name="warp_resource">/home/xiaoxiae/.cache/kdenlive/proxy/92fb96fc256fb05ea7f54c028df3a9fe.mkv</property>
  <property name="mlt_service">timewarp</property>
  <property name="kdenlive:proxy">/home/xiaoxiae/.cache/kdenlive/proxy/92fb96fc256fb05ea7f54c028df3a9fe.mkv</property>
  <property name="kdenlive:originalurl">video/Fever/3.mp4</property>
  <property name="set.test_audio">1</property>
  <property name="set.test_image">0</property>
  <property name="kdenlive:id">523</property>
  <property name="warp_pitch">0</property>
  <property name="meta.media.frame_rate_num">60</property>
  <property name="meta.media.frame_rate_den">1</property>
  <property name="meta.media.colorspace">601</property>
  <property name="meta.media.color_trc">2</property>
  <property name="meta.media.has_b_frames">0</property>
  <property name="meta.media.width">640</property>
  <property name="meta.media.height">360</property>
  <property name="meta.media.color_range">full</property>
  <property name="meta.media.top_field_first">0</property>
  <property name="meta.media.progressive">1</property>
 </producer>
 <producer id="producer739" in="00:00:00.000" out="00:00:01.983">
  <property name="length">120</property>
  <property name="eof">pause</property>
  <property name="resource">0.500000:/home/xiaoxiae/.cache/kdenlive/proxy/dd500a8f68a3efbff35f39ec6b161367.mkv</property>
  <property name="aspect_ratio">1</property>
  <property name="meta.media.nb_streams">1</property>
  <property name="meta.media.0.stream.type">video</property>
  <property name="meta.media.0.stream.frame_rate">60</property>
  <property name="meta.media.0.stream.sample_aspect_ratio">0</property>
  <property name="meta.media.0.codec.width">640</property>
  <property name="meta.media.0.codec.height">360</property>
  <property name="meta.media.0.codec.rotate">0</property>
  <property name="meta.media.0.codec.pix_fmt">yuvj420p</property>
  <property name="meta.media.0.codec.sample_aspect_ratio">0</property>
  <property name="meta.media.0.codec.colorspace">601</property>
  <property name="meta.media.0.codec.name">mjpeg</property>
  <property name="meta.media.0.codec.long_name">MJPEG (Motion JPEG)</property>
  <property name="meta.media.0.codec.bit_rate">0</property>
  <property name="meta.attr.0.stream.HANDLER_NAME.markup">VideoHandler</property>
  <property name="meta.attr.0.stream.VENDOR_ID.markup">[0][0][0][0]</property>
  <property name="meta.attr.0.stream.ENCODER.markup">Lavc60.3.100 mjpeg</property>
  <property name="meta.attr.0.stream.DURATION.markup">00:00:01.000000000</property>
  <property name="meta.attr.COMMENT.markup">Rendered with Manim Community v0.17.2</property>
  <property name="meta.attr.MAJOR_BRAND.markup">isom</property>
  <property name="meta.attr.MINOR_VERSION.markup">512</property>
  <property name="meta.attr.COMPATIBLE_BRANDS.markup">isomiso2avc1mp41</property>
  <property name="meta.attr.ENCODER.markup">Lavf60.3.100</property>
  <property name="seekable">1</property>
  <property name="meta.media.sample_aspect_num">1</property>
  <property name="meta.media.sample_aspect_den">1</property>
  <property name="format">3</property>
  <property name="audio_index">-1</property>
  <property name="video_index">0</property>
  <property name="mute_on_pause">1</property>
  <property name="warp_speed">0.5</property>
  <property name="warp_resource">/home/xiaoxiae/.cache/kdenlive/proxy/dd500a8f68a3efbff35f39ec6b161367.mkv</property>
  <property name="mlt_service">timewarp</property>
  <property name="kdenlive:proxy">/home/xiaoxiae/.cache/kdenlive/proxy/dd500a8f68a3efbff35f39ec6b161367.mkv</property>
  <property name="kdenlive:originalurl">video/Fever/7.mp4</property>
  <property name="set.test_audio">1</property>
  <property name="set.test_image">0</property>
  <property name="kdenlive:id">527</property>
  <property name="warp_pitch">0</property>
  <property name="meta.media.frame_rate_num">60</property>
  <property name="meta.media.frame_rate_den">1</property>
  <property name="meta.media.colorspace">601</property>
  <property name="meta.media.color_trc">2</property>
  <property name="meta.media.has_b_frames">0</property>
  <property name="meta.media.width">640</property>
  <property name="meta.media.height">360</property>
  <property name="meta.media.color_range">full</property>
  <property name="meta.media.top_field_first">0</property>
  <property name="meta.media.progressive">1</property>
 </producer>
 <producer id="producer740" in="00:00:00.000" out="00:00:01.983">
  <property name="length">120</property>
  <property name="eof">pause</property>
  <property name="resource">0.500000:/home/xiaoxiae/.cache/kdenlive/proxy/92a77a7963352755f208f0c89b487b0a.mkv</property>
  <property name="aspect_ratio">1</property>
  <property name="meta.media.nb_streams">1</property>
  <property name="meta.media.0.stream.type">video</property>
  <property name="meta.media.0.stream.frame_rate">60</property>
  <property name="meta.media.0.stream.sample_aspect_ratio">0</property>
  <property name="meta.media.0.codec.width">640</property>
  <property name="meta.media.0.codec.height">360</property>
  <property name="meta.media.0.codec.rotate">0</property>
  <property name="meta.media.0.codec.pix_fmt">yuvj420p</property>
  <property name="meta.media.0.codec.sample_aspect_ratio">0</property>
  <property name="meta.media.0.codec.colorspace">601</property>
  <property name="meta.media.0.codec.name">mjpeg</property>
  <property name="meta.media.0.codec.long_name">MJPEG (Motion JPEG)</property>
  <property name="meta.media.0.codec.bit_rate">0</property>
  <property name="meta.attr.0.stream.HANDLER_NAME.markup">VideoHandler</property>
  <property name="meta.attr.0.stream.VENDOR_ID.markup">[0][0][0][0]</property>
  <property name="meta.attr.0.stream.ENCODER.markup">Lavc60.3.100 mjpeg</property>
  <property name="meta.attr.0.stream.DURATION.markup">00:00:01.000000000</property>
  <property name="meta.attr.COMMENT.markup">Rendered with Manim Community v0.17.2</property>
  <property name="meta.attr.MAJOR_BRAND.markup">isom</property>
  <property name="meta.attr.MINOR_VERSION.markup">512</property>
  <property name="meta.attr.COMPATIBLE_BRANDS.markup">isomiso2avc1mp41</property>
  <property name="meta.attr.ENCODER.markup">Lavf60.3.100</property>
  <property name="seekable">1</property>
  <property name="meta.media.sample_aspect_num">1</property>
  <property name="meta.media.sample_aspect_den">1</property>
  <property name="format">3</property>
  <property name="audio_index">-1</property>
  <property name="video_index">0</property>
  <property name="mute_on_pause">1</property>
  <property name="warp_speed">0.5</property>
  <property name="warp_resource">/home/xiaoxiae/.cache/kdenlive/proxy/92a77a7963352755f208f0c89b487b0a.mkv</property>
  <property name="mlt_service">timewarp</property>
  <property name="kdenlive:proxy">/home/xiaoxiae/.cache/kdenlive/proxy/92a77a7963352755f208f0c89b487b0a.mkv</property>
  <property name="kdenlive:originalurl">video/Fever/8.mp4</property>
  <property name="set.test_audio">1</property>
  <property name="set.test_image">0</property>
  <property name="kdenlive:id">529</property>
  <property name="warp_pitch">0</property>
  <property name="meta.media.frame_rate_num">60</property>
  <property name="meta.media.frame_rate_den">1</property>
  <property name="meta.media.colorspace">601</property>
  <property name="meta.media.color_trc">2</property>
  <property name="meta.media.has_b_frames">0</property>
  <property name="meta.media.width">640</property>
  <property name="meta.media.height">360</property>
  <property name="meta.media.color_range">full</property>
  <property name="meta.media.top_field_first">0</property>
  <property name="meta.media.progressive">1</property>
 </producer>
 <producer id="producer741" in="00:00:00.000" out="00:00:01.650">
  <property name="length">100</property>
  <property name="eof">pause</property>
  <property name="resource">0.200000:/home/xiaoxiae/.cache/kdenlive/proxy/94c11b2f81e7d0961af343179d54fc55.mkv</property>
  <property name="aspect_ratio">1</property>
  <property name="meta.media.nb_streams">1</property>
  <property name="meta.media.0.stream.type">video</property>
  <property name="meta.media.0.stream.frame_rate">60</property>
  <property name="meta.media.0.stream.sample_aspect_ratio">0</property>
  <property name="meta.media.0.codec.width">640</property>
  <property name="meta.media.0.codec.height">360</property>
  <property name="meta.media.0.codec.rotate">0</property>
  <property name="meta.media.0.codec.pix_fmt">yuvj420p</property>
  <property name="meta.media.0.codec.sample_aspect_ratio">0</property>
  <property name="meta.media.0.codec.colorspace">601</property>
  <property name="meta.media.0.codec.name">mjpeg</property>
  <property name="meta.media.0.codec.long_name">MJPEG (Motion JPEG)</property>
  <property name="meta.media.0.codec.bit_rate">0</property>
  <property name="meta.attr.0.stream.HANDLER_NAME.markup">VideoHandler</property>
  <property name="meta.attr.0.stream.VENDOR_ID.markup">[0][0][0][0]</property>
  <property name="meta.attr.0.stream.ENCODER.markup">Lavc60.3.100 mjpeg</property>
  <property name="meta.attr.0.stream.DURATION.markup">00:00:00.334000000</property>
  <property name="meta.attr.COMMENT.markup">Rendered with Manim Community v0.17.2</property>
  <property name="meta.attr.MAJOR_BRAND.markup">isom</property>
  <property name="meta.attr.MINOR_VERSION.markup">512</property>
  <property name="meta.attr.COMPATIBLE_BRANDS.markup">isomiso2avc1mp41</property>
  <property name="meta.attr.ENCODER.markup">Lavf60.3.100</property>
  <property name="seekable">1</property>
  <property name="meta.media.sample_aspect_num">1</property>
  <property name="meta.media.sample_aspect_den">1</property>
  <property name="format">3</property>
  <property name="audio_index">-1</property>
  <property name="video_index">0</property>
  <property name="mute_on_pause">1</property>
  <property name="warp_speed">0.2</property>
  <property name="warp_resource">/home/xiaoxiae/.cache/kdenlive/proxy/94c11b2f81e7d0961af343179d54fc55.mkv</property>
  <property name="mlt_service">timewarp</property>
  <property name="kdenlive:proxy">/home/xiaoxiae/.cache/kdenlive/proxy/94c11b2f81e7d0961af343179d54fc55.mkv</property>
  <property name="kdenlive:originalurl">video/Fever/9.mp4</property>
  <property name="set.test_audio">1</property>
  <property name="set.test_image">0</property>
  <property name="kdenlive:id">530</property>
  <property name="warp_pitch">0</property>
  <property name="meta.media.frame_rate_num">60</property>
  <property name="meta.media.frame_rate_den">1</property>
  <property name="meta.media.colorspace">601</property>
  <property name="meta.media.color_trc">2</property>
  <property name="meta.media.has_b_frames">0</property>
  <property name="meta.media.width">640</property>
  <property name="meta.media.height">360</property>
  <property name="meta.media.color_range">full</property>
  <property name="meta.media.top_field_first">0</property>
  <property name="meta.media.progressive">1</property>
 </producer>
 <producer id="producer742" in="00:00:00.000" out="00:00:00.983">
  <property name="length">60</property>
  <property name="eof">pause</property>
  <property name="resource">/home/xiaoxiae/.cache/kdenlive/proxy/e54b7a0722cde715ffdef3abad04ee16.mkv</property>
  <property name="audio_index">-1</property>
  <property name="video_index">0</property>
  <property name="mute_on_pause">0</property>
  <property name="mlt_service">avformat-novalidate</property>
  <property name="meta.media.nb_streams">1</property>
  <property name="meta.media.0.stream.type">video</property>
  <property name="meta.media.0.stream.frame_rate">60</property>
  <property name="meta.media.0.stream.sample_aspect_ratio">0</property>
  <property name="meta.media.0.codec.width">640</property>
  <property name="meta.media.0.codec.height">360</property>
  <property name="meta.media.0.codec.rotate">0</property>
  <property name="meta.media.0.codec.pix_fmt">yuvj420p</property>
  <property name="meta.media.0.codec.sample_aspect_ratio">0</property>
  <property name="meta.media.0.codec.colorspace">601</property>
  <property name="meta.media.0.codec.name">mjpeg</property>
  <property name="meta.media.0.codec.long_name">MJPEG (Motion JPEG)</property>
  <property name="meta.media.0.codec.bit_rate">0</property>
  <property name="meta.attr.0.stream.HANDLER_NAME.markup">VideoHandler</property>
  <property name="meta.attr.0.stream.VENDOR_ID.markup">[0][0][0][0]</property>
  <property name="meta.attr.0.stream.ENCODER.markup">Lavc60.3.100 mjpeg</property>
  <property name="meta.attr.0.stream.DURATION.markup">00:00:01.000000000</property>
  <property name="meta.attr.COMMENT.markup">Rendered with Manim Community v0.17.2</property>
  <property name="meta.attr.MAJOR_BRAND.markup">isom</property>
  <property name="meta.attr.MINOR_VERSION.markup">512</property>
  <property name="meta.attr.COMPATIBLE_BRANDS.markup">isomiso2avc1mp41</property>
  <property name="meta.attr.ENCODER.markup">Lavf60.3.100</property>
  <property name="seekable">1</property>
  <property name="meta.media.sample_aspect_num">1</property>
  <property name="meta.media.sample_aspect_den">1</property>
  <property name="aspect_ratio">1</property>
  <property name="format">3</property>
  <property name="kdenlive:clipname">10.mp4</property>
  <property name="kdenlive:clip_type">2</property>
  <property name="kdenlive:folderid">631</property>
  <property name="kdenlive:id">519</property>
  <property name="kdenlive:file_size">94847</property>
  <property name="kdenlive:file_hash">e54b7a0722cde715ffdef3abad04ee16</property>
  <property name="kdenlive:proxy">/home/xiaoxiae/.cache/kdenlive/proxy/e54b7a0722cde715ffdef3abad04ee16.mkv</property>
  <property name="kdenlive:originalurl">video/Fever/10.mp4</property>
  <property name="kdenlive:original.mlt_type">producer</property>
  <property name="kdenlive:original.in">0</property>
  <property name="kdenlive:original.out">59</property>
  <property name="kdenlive:original.length">60</property>
  <property name="kdenlive:original.eof">pause</property>
  <property name="kdenlive:original.resource">video/Fever/10.mp4</property>
  <property name="kdenlive:original.meta.media.nb_streams">1</property>
  <property name="kdenlive:original.meta.media.0.stream.type">video</property>
  <property name="kdenlive:original.meta.media.0.stream.frame_rate">60</property>
  <property name="kdenlive:original.meta.media.0.stream.sample_aspect_ratio">0</property>
  <property name="kdenlive:original.meta.media.0.codec.width">3840</property>
  <property name="kdenlive:original.meta.media.0.codec.height">2160</property>
  <property name="kdenlive:original.meta.media.0.codec.rotate">0</property>
  <property name="kdenlive:original.meta.media.0.codec.pix_fmt">yuv420p</property>
  <property name="kdenlive:original.meta.media.0.codec.sample_aspect_ratio">0</property>
  <property name="kdenlive:original.meta.media.0.codec.colorspace">709</property>
  <property name="kdenlive:original.meta.media.0.codec.name">h264</property>
  <property name="kdenlive:original.meta.media.0.codec.long_name">H.264 / AVC / MPEG-4 AVC / MPEG-4 part 10</property>
  <property name="kdenlive:original.meta.media.0.codec.bit_rate">745728</property>
  <property name="kdenlive:original.meta.attr.0.stream.handler_name.markup">VideoHandler</property>
  <property name="kdenlive:original.meta.attr.0.stream.vendor_id.markup">[0][0][0][0]</property>
  <property name="kdenlive:original.meta.attr.0.stream.encoder.markup">Lavc60.3.100 libx264</property>
  <property name="kdenlive:original.meta.attr.major_brand.markup">isom</property>
  <property name="kdenlive:original.meta.attr.minor_version.markup">512</property>
  <property name="kdenlive:original.meta.attr.compatible_brands.markup">isomiso2avc1mp41</property>
  <property name="kdenlive:original.meta.attr.encoder.markup">Lavf60.3.100</property>
  <property name="kdenlive:original.meta.attr.comment.markup">Rendered with Manim Community v0.17.2</property>
  <property name="kdenlive:original.seekable">1</property>
  <property name="kdenlive:original.width">3840</property>
  <property name="kdenlive:original.height">2160</property>
  <property name="kdenlive:original.meta.media.sample_aspect_num">1</property>
  <property name="kdenlive:original.meta.media.sample_aspect_den">1</property>
  <property name="kdenlive:original.aspect_ratio">1</property>
  <property name="kdenlive:original.format">3</property>
  <property name="kdenlive:original.audio_index">-1</property>
  <property name="kdenlive:original.video_index">0</property>
  <property name="kdenlive:original.mute_on_pause">0</property>
  <property name="kdenlive:original.mlt_service">avformat-novalidate</property>
  <property name="kdenlive:original.meta.media.frame_rate_num">60</property>
  <property name="kdenlive:original.meta.media.frame_rate_den">1</property>
  <property name="kdenlive:original.meta.media.colorspace">709</property>
  <property name="kdenlive:original.meta.media.color_trc">2</property>
  <property name="kdenlive:original.meta.media.has_b_frames">2</property>
  <property name="kdenlive:original.meta.media.width">3840</property>
  <property name="kdenlive:original.meta.media.height">2160</property>
  <property name="kdenlive:original.meta.media.color_range">mpeg</property>
  <property name="kdenlive:original.meta.media.top_field_first">0</property>
  <property name="kdenlive:original.meta.media.progressive">1</property>
  <property name="kdenlive:original.kdenlive:clip_type">2</property>
  <property name="kdenlive:original.kdenlive:folderid">631</property>
  <property name="kdenlive:original.kdenlive:id">633</property>
  <property name="kdenlive:original.kdenlive:file_size">94847</property>
  <property name="kdenlive:original.kdenlive:file_hash">e54b7a0722cde715ffdef3abad04ee16</property>
  <property name="kdenlive:original.backup">1</property>
  <property name="xml">was here</property>
  <property name="meta.media.frame_rate_num">60</property>
  <property name="meta.media.frame_rate_den">1</property>
  <property name="meta.media.colorspace">601</property>
  <property name="meta.media.color_trc">2</property>
  <property name="meta.media.has_b_frames">0</property>
  <property name="meta.media.width">640</property>
  <property name="meta.media.height">360</property>
  <property name="meta.media.color_range">full</property>
  <property name="meta.media.top_field_first">0</property>
  <property name="meta.media.progressive">1</property>
  <property name="set.test_audio">1</property>
  <property name="set.test_image">0</property>
 </producer>
 <producer id="producer743" in="00:00:00.000" out="00:00:04.983">
  <property name="length">300</property>
  <property name="eof">pause</property>
  <property name="resource">0.200000:/home/xiaoxiae/.cache/kdenlive/proxy/b7f97e74ea718a8a3ebe096cef6cbc96.mkv</property>
  <property name="aspect_ratio">1</property>
  <property name="meta.media.nb_streams">1</property>
  <property name="meta.media.0.stream.type">video</property>
  <property name="meta.media.0.stream.frame_rate">60</property>
  <property name="meta.media.0.stream.sample_aspect_ratio">0</property>
  <property name="meta.media.0.codec.width">640</property>
  <property name="meta.media.0.codec.height">360</property>
  <property name="meta.media.0.codec.rotate">0</property>
  <property name="meta.media.0.codec.pix_fmt">yuvj420p</property>
  <property name="meta.media.0.codec.sample_aspect_ratio">0</property>
  <property name="meta.media.0.codec.colorspace">601</property>
  <property name="meta.media.0.codec.name">mjpeg</property>
  <property name="meta.media.0.codec.long_name">MJPEG (Motion JPEG)</property>
  <property name="meta.media.0.codec.bit_rate">0</property>
  <property name="meta.attr.0.stream.HANDLER_NAME.markup">VideoHandler</property>
  <property name="meta.attr.0.stream.VENDOR_ID.markup">[0][0][0][0]</property>
  <property name="meta.attr.0.stream.ENCODER.markup">Lavc60.3.100 mjpeg</property>
  <property name="meta.attr.0.stream.DURATION.markup">00:00:01.000000000</property>
  <property name="meta.attr.COMMENT.markup">Rendered with Manim Community v0.17.2</property>
  <property name="meta.attr.MAJOR_BRAND.markup">isom</property>
  <property name="meta.attr.MINOR_VERSION.markup">512</property>
  <property name="meta.attr.COMPATIBLE_BRANDS.markup">isomiso2avc1mp41</property>
  <property name="meta.attr.ENCODER.markup">Lavf60.3.100</property>
  <property name="seekable">1</property>
  <property name="meta.media.sample_aspect_num">1</property>
  <property name="meta.media.sample_aspect_den">1</property>
  <property name="format">3</property>
  <property name="audio_index">-1</property>
  <property name="video_index">0</property>
  <property name="mute_on_pause">1</property>
  <property name="warp_speed">0.2</property>
  <property name="warp_resource">/home/xiaoxiae/.cache/kdenlive/proxy/b7f97e74ea718a8a3ebe096cef6cbc96.mkv</property>
  <property name="mlt_service">timewarp</property>
  <property name="kdenlive:proxy">/home/xiaoxiae/.cache/kdenlive/proxy/b7f97e74ea718a8a3ebe096cef6cbc96.mkv</property>
  <property name="kdenlive:originalurl">video/Fever/11.mp4</property>
  <property name="set.test_audio">1</property>
  <property name="set.test_image">0</property>
  <property name="kdenlive:id">520</property>
  <property name="warp_pitch">0</property>
 </producer>
 <producer id="producer744" in="00:00:00.000" out="00:00:09.983">
  <property name="length">600</property>
  <property name="eof">pause</property>
  <property name="resource">0.100000:/home/xiaoxiae/.cache/kdenlive/proxy/1d3d5b75854f2998b43d370340f6035e.mkv</property>
  <property name="aspect_ratio">1</property>
  <property name="meta.media.nb_streams">1</property>
  <property name="meta.media.0.stream.type">video</property>
  <property name="meta.media.0.stream.frame_rate">60</property>
  <property name="meta.media.0.stream.sample_aspect_ratio">0</property>
  <property name="meta.media.0.codec.width">640</property>
  <property name="meta.media.0.codec.height">360</property>
  <property name="meta.media.0.codec.rotate">0</property>
  <property name="meta.media.0.codec.pix_fmt">yuvj420p</property>
  <property name="meta.media.0.codec.sample_aspect_ratio">0</property>
  <property name="meta.media.0.codec.colorspace">601</property>
  <property name="meta.media.0.codec.name">mjpeg</property>
  <property name="meta.media.0.codec.long_name">MJPEG (Motion JPEG)</property>
  <property name="meta.media.0.codec.bit_rate">0</property>
  <property name="meta.attr.0.stream.HANDLER_NAME.markup">VideoHandler</property>
  <property name="meta.attr.0.stream.VENDOR_ID.markup">[0][0][0][0]</property>
  <property name="meta.attr.0.stream.ENCODER.markup">Lavc60.3.100 mjpeg</property>
  <property name="meta.attr.0.stream.DURATION.markup">00:00:01.000000000</property>
  <property name="meta.attr.COMMENT.markup">Rendered with Manim Community v0.17.2</property>
  <property name="meta.attr.MAJOR_BRAND.markup">isom</property>
  <property name="meta.attr.MINOR_VERSION.markup">512</property>
  <property name="meta.attr.COMPATIBLE_BRANDS.markup">isomiso2avc1mp41</property>
  <property name="meta.attr.ENCODER.markup">Lavf60.3.100</property>
  <property name="seekable">1</property>
  <property name="meta.media.sample_aspect_num">1</property>
  <property name="meta.media.sample_aspect_den">1</property>
  <property name="format">3</property>
  <property name="audio_index">-1</property>
  <property name="video_index">0</property>
  <property name="mute_on_pause">1</property>
  <property name="warp_speed">0.1</property>
  <property name="warp_resource">/home/xiaoxiae/.cache/kdenlive/proxy/1d3d5b75854f2998b43d370340f6035e.mkv</property>
  <property name="mlt_service">timewarp</property>
  <property name="kdenlive:proxy">/home/xiaoxiae/.cache/kdenlive/proxy/1d3d5b75854f2998b43d370340f6035e.mkv</property>
  <property name="kdenlive:originalurl">video/Fever/12.mp4</property>
  <property name="set.test_audio">1</property>
  <property name="set.test_image">0</property>
  <property name="kdenlive:id">521</property>
  <property name="warp_pitch">0</property>
  <property name="meta.media.frame_rate_num">60</property>
  <property name="meta.media.frame_rate_den">1</property>
  <property name="meta.media.colorspace">601</property>
  <property name="meta.media.color_trc">2</property>
  <property name="meta.media.has_b_frames">0</property>
  <property name="meta.media.width">640</property>
  <property name="meta.media.height">360</property>
  <property name="meta.media.color_range">full</property>
  <property name="meta.media.top_field_first">0</property>
  <property name="meta.media.progressive">1</property>
 </producer>
 <playlist id="playlist10">
  <blank length="00:00:01.700"/>
  <entry producer="producer738" in="00:00:00.000" out="00:00:02.350">
   <property name="kdenlive:id">523</property>
   <filter id="filter94">
    <property name="frame">0</property>
    <property name="freeze_after">0</property>
    <property name="freeze_before">0</property>
    <property name="mlt_service">freeze</property>
    <property name="kdenlive_id">freeze</property>
    <property name="kdenlive:collapsed">0</property>
   </filter>
   <filter id="filter95">
    <property name="version">0.2</property>
    <property name="mlt_service">frei0r.vignette</property>
    <property name="kdenlive_id">frei0r.vignette</property>
    <property name="aspect">00:00:00.000=0.5</property>
    <property name="clearCenter">00:00:00.000=0</property>
    <property name="soft">00:00:00.000=0.6</property>
    <property name="kdenlive:collapsed">0</property>
    <properties name="ctor-0x7f47547f06c0"/>
    <properties name="ctor-0x7f453fff76c0"/>
    <properties name="ctor-0x7f475b7fe6c0"/>
    <properties name="ctor-0x7feff37fe6c0"/>
   </filter>
   <filter id="filter96">
    <property name="mlt_service">avfilter.gradfun</property>
    <property name="kdenlive_id">avfilter.gradfun</property>
    <property name="av.strength">1.2</property>
    <property name="av.radius">16</property>
    <property name="position">frame</property>
    <property name="kdenlive:collapsed">0</property>
   </filter>
   <filter id="filter97">
    <property name="line_width">00:00:00.000=2</property>
    <property name="num">00:00:00.000=7</property>
    <property name="darker">00:00:00.000=40</property>
    <property name="lighter">00:00:00.000=40</property>
    <property name="mlt_service">lines</property>
    <property name="kdenlive_id">lines</property>
    <property name="kdenlive:collapsed">0</property>
    <property name="line6">749</property>
    <property name="typeline6">2</property>
    <property name="line5">1297</property>
    <property name="typeline5">1</property>
    <property name="line4">252</property>
    <property name="typeline4">3</property>
    <property name="line3">1924</property>
    <property name="typeline3">2</property>
    <property name="line2">308</property>
    <property name="typeline2">3</property>
    <property name="line1">1362</property>
    <property name="typeline1">3</property>
    <property name="line0">897</property>
    <property name="typeline0">2</property>
    <property name="last_oldfilm_line_pos">0.658291</property>
   </filter>
   <filter id="filter98">
    <property name="version">0.1</property>
    <property name="mlt_service">frei0r.glitch0r</property>
    <property name="kdenlive_id">frei0r.glitch0r</property>
    <property name="0">00:00:00.000=0.022</property>
    <property name="1">00:00:00.000=0.49913</property>
    <property name="2">00:00:00.000=0.499305</property>
    <property name="3">00:00:00.000=0</property>
    <property name="kdenlive:collapsed">0</property>
    <properties name="ctor-0x7f47547f06c0"/>
    <properties name="ctor-0x7f453fff76c0"/>
    <properties name="ctor-0x7f475b7fe6c0"/>
    <properties name="ctor-0x7feff37fe6c0"/>
   </filter>
   <filter id="filter99">
    <property name="version">0.1</property>
    <property name="mlt_service">frei0r.tint0r</property>
    <property name="kdenlive_id">frei0r.tint0r</property>
    <property name="Map black to">0x000000ff</property>
    <property name="Map white to">0xffe940ff</property>
    <property name="Tint amount">00:00:00.000=0.25</property>
    <property name="kdenlive:collapsed">0</property>
    <properties name="ctor-0x7f47547f06c0"/>
    <properties name="ctor-0x7f453fff76c0"/>
    <properties name="ctor-0x7f475b7fe6c0"/>
    <properties name="ctor-0x7feff37fe6c0"/>
   </filter>
  </entry>
  <blank length="00:00:04.100"/>
  <entry producer="producer503" in="00:00:00.000" out="00:00:03.250">
   <property name="kdenlive:id">535</property>
   <filter id="filter100">
    <property name="rotate_center">1</property>
    <property name="mlt_service">qtblend</property>
    <property name="kdenlive_id">qtblend</property>
    <property name="rect">00:00:00.000=2599 1036 346 259 1.000000;00:00:03.250=2596 967 404 246 1.000000</property>
    <property name="rotation">00:00:00.000=-259;00:00:03.250=360</property>
    <property name="compositing">0</property>
    <property name="distort">0</property>
    <property name="kdenlive:collapsed">0</property>
   </filter>
   <filter id="filter101" in="00:00:03.000" out="00:00:03.250">
    <property name="start">1</property>
    <property name="level">1</property>
    <property name="mlt_service">brightness</property>
    <property name="kdenlive_id">fade_to_black</property>
    <property name="alpha">00:00:00.000=1;00:00:00.250=0</property>
    <property name="kdenlive:collapsed">0</property>
   </filter>
  </entry>
  <blank length="00:00:00.700"/>
  <entry producer="producer739" in="00:00:00.000" out="00:00:01.133">
   <property name="kdenlive:id">527</property>
   <filter id="filter102">
    <property name="frame">0</property>
    <property name="freeze_after">0</property>
    <property name="freeze_before">0</property>
    <property name="mlt_service">freeze</property>
    <property name="kdenlive_id">freeze</property>
    <property name="kdenlive:collapsed">0</property>
   </filter>
   <filter id="filter103">
    <property name="version">0.2</property>
    <property name="mlt_service">frei0r.vignette</property>
    <property name="kdenlive_id">frei0r.vignette</property>
    <property name="aspect">00:00:00.000=0.5</property>
    <property name="clearCenter">00:00:00.000=0</property>
    <property name="soft">00:00:00.000=0.6</property>
    <properties name="ctor-0x7f473d7fa6c0"/>
    <properties name="ctor-0x7f453fff76c0"/>
    <properties name="ctor-0x7f475b7fe6c0"/>
    <properties name="ctor-0x7feff37fe6c0"/>
   </filter>
   <filter id="filter104">
    <property name="mlt_service">avfilter.gradfun</property>
    <property name="kdenlive_id">avfilter.gradfun</property>
    <property name="av.strength">1.2</property>
    <property name="av.radius">16</property>
    <property name="position">frame</property>
   </filter>
   <filter id="filter105">
    <property name="line_width">00:00:00.000=2</property>
    <property name="num">00:00:00.000=7</property>
    <property name="darker">00:00:00.000=40</property>
    <property name="lighter">00:00:00.000=40</property>
    <property name="mlt_service">lines</property>
    <property name="kdenlive_id">lines</property>
    <property name="line6">1709</property>
    <property name="typeline6">3</property>
    <property name="line5">106</property>
    <property name="typeline5">3</property>
    <property name="line4">1534</property>
    <property name="typeline4">3</property>
    <property name="line3">628</property>
    <property name="typeline3">2</property>
    <property name="line2">1030</property>
    <property name="typeline2">3</property>
    <property name="line1">1202</property>
    <property name="typeline1">1</property>
    <property name="line0">409</property>
    <property name="typeline0">2</property>
    <property name="last_oldfilm_line_pos">0.529412</property>
   </filter>
   <filter id="filter106">
    <property name="version">0.1</property>
    <property name="mlt_service">frei0r.glitch0r</property>
    <property name="kdenlive_id">frei0r.glitch0r</property>
    <property name="0">00:00:00.000=0.022</property>
    <property name="1">00:00:00.000=0.49913</property>
    <property name="2">00:00:00.000=0.499305</property>
    <property name="3">00:00:00.000=0</property>
    <properties name="ctor-0x7f473d7fa6c0"/>
    <properties name="ctor-0x7f453fff76c0"/>
    <properties name="ctor-0x7f475b7fe6c0"/>
    <properties name="ctor-0x7feff37fe6c0"/>
   </filter>
   <filter id="filter107">
    <property name="version">0.1</property>
    <property name="mlt_service">frei0r.tint0r</property>
    <property name="kdenlive_id">frei0r.tint0r</property>
    <property name="Map black to">0x000000ff</property>
    <property name="Map white to">0xffe940ff</property>
    <property name="Tint amount">00:00:00.000=0.25</property>
    <properties name="ctor-0x7f473d7fa6c0"/>
    <properties name="ctor-0x7f453fff76c0"/>
    <properties name="ctor-0x7f475b7fe6c0"/>
    <properties name="ctor-0x7feff37fe6c0"/>
   </filter>
  </entry>
  <blank length="00:00:01.000"/>
  <entry producer="producer740" in="00:00:00.000" out="00:00:01.400">
   <property name="kdenlive:id">529</property>
   <filter id="filter108" in="00:00:01.033" out="00:00:01.400">
    <property name="start">1</property>
    <property name="level">1</property>
    <property name="mlt_service">brightness</property>
    <property name="kdenlive_id">fade_to_black</property>
    <property name="alpha">00:00:00.000=1;00:00:00.367=0</property>
    <property name="kdenlive:collapsed">0</property>
   </filter>
   <filter id="filter109">
    <property name="version">0.2</property>
    <property name="mlt_service">frei0r.vignette</property>
    <property name="kdenlive_id">frei0r.vignette</property>
    <property name="aspect">00:00:00.000=0.5</property>
    <property name="clearCenter">00:00:00.000=0</property>
    <property name="soft">00:00:00.000=0.6</property>
    <properties name="ctor-0x7f473d7fa6c0"/>
    <properties name="ctor-0x7f453fff76c0"/>
    <properties name="ctor-0x7f475b7fe6c0"/>
    <properties name="ctor-0x7feff37fe6c0"/>
    <property name="kdenlive:collapsed">0</property>
   </filter>
   <filter id="filter110">
    <property name="mlt_service">avfilter.gradfun</property>
    <property name="kdenlive_id">avfilter.gradfun</property>
    <property name="av.strength">1.2</property>
    <property name="av.radius">16</property>
    <property name="position">frame</property>
    <property name="kdenlive:collapsed">0</property>
   </filter>
   <filter id="filter111">
    <property name="line_width">00:00:00.000=2</property>
    <property name="num">00:00:00.000=7</property>
    <property name="darker">00:00:00.000=40</property>
    <property name="lighter">00:00:00.000=40</property>
    <property name="mlt_service">lines</property>
    <property name="kdenlive_id">lines</property>
    <property name="line6">1663</property>
    <property name="typeline6">3</property>
    <property name="line5">109</property>
    <property name="typeline5">3</property>
    <property name="line4">1556</property>
    <property name="typeline4">3</property>
    <property name="line3">623</property>
    <property name="typeline3">2</property>
    <property name="line2">991</property>
    <property name="typeline2">3</property>
    <property name="line1">1208</property>
    <property name="typeline1">1</property>
    <property name="line0">428</property>
    <property name="typeline0">2</property>
    <property name="last_oldfilm_line_pos">0.092437</property>
    <property name="kdenlive:collapsed">0</property>
   </filter>
   <filter id="filter112">
    <property name="version">0.1</property>
    <property name="mlt_service">frei0r.glitch0r</property>
    <property name="kdenlive_id">frei0r.glitch0r</property>
    <property name="0">00:00:00.000=0.022</property>
    <property name="1">00:00:00.000=0.49913</property>
    <property name="2">00:00:00.000=0.499305</property>
    <property name="3">00:00:00.000=0</property>
    <properties name="ctor-0x7f473d7fa6c0"/>
    <properties name="ctor-0x7f453fff76c0"/>
    <properties name="ctor-0x7f475b7fe6c0"/>
    <properties name="ctor-0x7feff37fe6c0"/>
    <property name="kdenlive:collapsed">0</property>
   </filter>
   <filter id="filter113">
    <property name="version">0.1</property>
    <property name="mlt_service">frei0r.tint0r</property>
    <property name="kdenlive_id">frei0r.tint0r</property>
    <property name="Map black to">0x000000ff</property>
    <property name="Map white to">0xffe940ff</property>
    <property name="Tint amount">00:00:00.000=0.25</property>
    <properties name="ctor-0x7f473d7fa6c0"/>
    <properties name="ctor-0x7f453fff76c0"/>
    <properties name="ctor-0x7f475b7fe6c0"/>
    <properties name="ctor-0x7feff37fe6c0"/>
    <property name="kdenlive:collapsed">0</property>
   </filter>
  </entry>
  <entry producer="producer741" in="00:00:00.217" out="00:00:01.567">
   <property name="kdenlive:id">530</property>
   <filter id="filter114">
    <property name="frame">0</property>
    <property name="freeze_after">0</property>
    <property name="freeze_before">0</property>
    <property name="mlt_service">freeze</property>
    <property name="kdenlive_id">freeze</property>
    <property name="kdenlive:collapsed">0</property>
   </filter>
   <filter id="filter115" in="00:00:00.217" out="00:00:00.500">
    <property name="start">1</property>
    <property name="level">1</property>
    <property name="mlt_service">brightness</property>
    <property name="kdenlive_id">fade_from_black</property>
    <property name="alpha">00:00:00.000=0;00:00:00.283=1</property>
    <property name="kdenlive:collapsed">0</property>
   </filter>
   <filter id="filter116">
    <property name="version">0.2</property>
    <property name="mlt_service">frei0r.vignette</property>
    <property name="kdenlive_id">frei0r.vignette</property>
    <property name="aspect">00:00:00.217=0.5</property>
    <property name="clearCenter">00:00:00.217=0</property>
    <property name="soft">00:00:00.217=0.6</property>
    <properties name="ctor-0x7f473d7fa6c0"/>
    <properties name="ctor-0x7f453fff76c0"/>
    <properties name="ctor-0x7f475b7fe6c0"/>
    <properties name="ctor-0x7feff37fe6c0"/>
   </filter>
   <filter id="filter117">
    <property name="mlt_service">avfilter.gradfun</property>
    <property name="kdenlive_id">avfilter.gradfun</property>
    <property name="av.strength">1.2</property>
    <property name="av.radius">16</property>
    <property name="position">frame</property>
   </filter>
   <filter id="filter118">
    <property name="line_width">00:00:00.217=2</property>
    <property name="num">00:00:00.217=7</property>
    <property name="darker">00:00:00.217=40</property>
    <property name="lighter">00:00:00.217=40</property>
    <property name="mlt_service">lines</property>
    <property name="kdenlive_id">lines</property>
    <property name="line6">244</property>
    <property name="typeline6">1</property>
    <property name="line5">249</property>
    <property name="typeline5">1</property>
    <property name="line4">501</property>
    <property name="typeline4">1</property>
    <property name="line3">106</property>
    <property name="typeline3">2</property>
    <property name="line2">626</property>
    <property name="typeline2">2</property>
    <property name="line1">71</property>
    <property name="typeline1">3</property>
    <property name="line0">442</property>
    <property name="typeline0">3</property>
    <property name="last_oldfilm_line_pos">0.717172</property>
   </filter>
   <filter id="filter119">
    <property name="version">0.1</property>
    <property name="mlt_service">frei0r.glitch0r</property>
    <property name="kdenlive_id">frei0r.glitch0r</property>
    <property name="0">00:00:00.217=0.022</property>
    <property name="1">00:00:00.217=0.49913</property>
    <property name="2">00:00:00.217=0.499305</property>
    <property name="3">00:00:00.217=0</property>
    <properties name="ctor-0x7f473d7fa6c0"/>
    <properties name="ctor-0x7f453fff76c0"/>
    <properties name="ctor-0x7f475b7fe6c0"/>
    <properties name="ctor-0x7feff37fe6c0"/>
   </filter>
   <filter id="filter120">
    <property name="version">0.1</property>
    <property name="mlt_service">frei0r.tint0r</property>
    <property name="kdenlive_id">frei0r.tint0r</property>
    <property name="Map black to">0x000000ff</property>
    <property name="Map white to">0xffe940ff</property>
    <property name="Tint amount">00:00:00.217=0.25</property>
    <properties name="ctor-0x7f473d7fa6c0"/>
    <properties name="ctor-0x7f453fff76c0"/>
    <properties name="ctor-0x7f475b7fe6c0"/>
    <properties name="ctor-0x7feff37fe6c0"/>
   </filter>
  </entry>
  <blank length="00:00:00.333"/>
  <entry producer="producer742" in="00:00:00.000" out="00:00:00.333">
   <property name="kdenlive:id">519</property>
   <filter id="filter121">
    <property name="frame">0</property>
    <property name="freeze_after">0</property>
    <property name="freeze_before">0</property>
    <property name="mlt_service">freeze</property>
    <property name="kdenlive_id">freeze</property>
    <property name="kdenlive:collapsed">0</property>
   </filter>
   <filter id="filter122">
    <property name="version">0.2</property>
    <property name="mlt_service">frei0r.vignette</property>
    <property name="kdenlive_id">frei0r.vignette</property>
    <property name="aspect">00:00:00.000=0.5</property>
    <property name="clearCenter">00:00:00.000=0</property>
    <property name="soft">00:00:00.000=0.6</property>
    <properties name="ctor-0x7f473d7fa6c0"/>
    <properties name="ctor-0x7f453fff76c0"/>
    <properties name="ctor-0x7f475b7fe6c0"/>
   </filter>
   <filter id="filter123">
    <property name="mlt_service">avfilter.gradfun</property>
    <property name="kdenlive_id">avfilter.gradfun</property>
    <property name="av.strength">1.2</property>
    <property name="av.radius">16</property>
    <property name="position">frame</property>
   </filter>
   <filter id="filter124">
    <property name="line_width">00:00:00.000=2</property>
    <property name="num">00:00:00.000=7</property>
    <property name="darker">00:00:00.000=40</property>
    <property name="lighter">00:00:00.000=40</property>
    <property name="mlt_service">lines</property>
    <property name="kdenlive_id">lines</property>
    <property name="line6">421</property>
    <property name="typeline6">1</property>
    <property name="line5">1240</property>
    <property name="typeline5">1</property>
    <property name="line4">966</property>
    <property name="typeline4">1</property>
    <property name="line3">643</property>
    <property name="typeline3">2</property>
    <property name="line2">1525</property>
    <property name="typeline2">1</property>
    <property name="line1">106</property>
    <property name="typeline1">1</property>
    <property name="line0">1738</property>
    <property name="typeline0">2</property>
    <property name="last_oldfilm_line_pos">0.271186</property>
   </filter>
   <filter id="filter125">
    <property name="version">0.1</property>
    <property name="mlt_service">frei0r.glitch0r</property>
    <property name="kdenlive_id">frei0r.glitch0r</property>
    <property name="0">00:00:00.000=0.022</property>
    <property name="1">00:00:00.000=0.49913</property>
    <property name="2">00:00:00.000=0.499305</property>
    <property name="3">00:00:00.000=0</property>
    <properties name="ctor-0x7f473d7fa6c0"/>
    <properties name="ctor-0x7f453fff76c0"/>
    <properties name="ctor-0x7f475b7fe6c0"/>
   </filter>
   <filter id="filter126">
    <property name="version">0.1</property>
    <property name="mlt_service">frei0r.tint0r</property>
    <property name="kdenlive_id">frei0r.tint0r</property>
    <property name="Map black to">0x000000ff</property>
    <property name="Map white to">0xffe940ff</property>
    <property name="Tint amount">00:00:00.000=0.25</property>
    <properties name="ctor-0x7f473d7fa6c0"/>
    <properties name="ctor-0x7f453fff76c0"/>
    <properties name="ctor-0x7f475b7fe6c0"/>
   </filter>
  </entry>
  <blank length="00:00:01.000"/>
  <entry producer="producer743" in="00:00:00.000" out="00:00:01.683">
   <property name="kdenlive:id">520</property>
   <filter id="filter127">
    <property name="frame">0</property>
    <property name="freeze_after">0</property>
    <property name="freeze_before">0</property>
    <property name="mlt_service">freeze</property>
    <property name="kdenlive_id">freeze</property>
    <property name="kdenlive:collapsed">0</property>
   </filter>
   <filter id="filter128">
    <property name="version">0.2</property>
    <property name="mlt_service">frei0r.vignette</property>
    <property name="kdenlive_id">frei0r.vignette</property>
    <property name="aspect">00:00:00.000=0.5</property>
    <property name="clearCenter">00:00:00.000=0</property>
    <property name="soft">00:00:00.000=0.6</property>
    <properties name="ctor-0x7f473d7fa6c0"/>
    <properties name="ctor-0x7f453fff76c0"/>
    <properties name="ctor-0x7f475b7fe6c0"/>
   </filter>
   <filter id="filter129">
    <property name="mlt_service">avfilter.gradfun</property>
    <property name="kdenlive_id">avfilter.gradfun</property>
    <property name="av.strength">1.2</property>
    <property name="av.radius">16</property>
    <property name="position">frame</property>
   </filter>
   <filter id="filter130">
    <property name="line_width">00:00:00.000=2</property>
    <property name="num">00:00:00.000=7</property>
    <property name="darker">00:00:00.000=40</property>
    <property name="lighter">00:00:00.000=40</property>
    <property name="mlt_service">lines</property>
    <property name="kdenlive_id">lines</property>
    <property name="line6">591</property>
    <property name="typeline6">2</property>
    <property name="line5">100</property>
    <property name="typeline5">2</property>
    <property name="line4">413</property>
    <property name="typeline4">3</property>
    <property name="line3">343</property>
    <property name="typeline3">3</property>
    <property name="line2">188</property>
    <property name="typeline2">3</property>
    <property name="line1">541</property>
    <property name="typeline1">3</property>
    <property name="line0">46</property>
    <property name="typeline0">2</property>
    <property name="last_oldfilm_line_pos">0.337793</property>
   </filter>
   <filter id="filter131">
    <property name="version">0.1</property>
    <property name="mlt_service">frei0r.glitch0r</property>
    <property name="kdenlive_id">frei0r.glitch0r</property>
    <property name="0">00:00:00.000=0.022</property>
    <property name="1">00:00:00.000=0.49913</property>
    <property name="2">00:00:00.000=0.499305</property>
    <property name="3">00:00:00.000=0</property>
    <properties name="ctor-0x7f473d7fa6c0"/>
    <properties name="ctor-0x7f453fff76c0"/>
    <properties name="ctor-0x7f475b7fe6c0"/>
   </filter>
   <filter id="filter132">
    <property name="version">0.1</property>
    <property name="mlt_service">frei0r.tint0r</property>
    <property name="kdenlive_id">frei0r.tint0r</property>
    <property name="Map black to">0x000000ff</property>
    <property name="Map white to">0xffe940ff</property>
    <property name="Tint amount">00:00:00.000=0.25</property>
    <properties name="ctor-0x7f473d7fa6c0"/>
    <properties name="ctor-0x7f453fff76c0"/>
    <properties name="ctor-0x7f475b7fe6c0"/>
   </filter>
  </entry>
  <blank length="00:00:01.000"/>
  <entry producer="producer744" in="00:00:00.000" out="00:00:05.700">
   <property name="kdenlive:id">521</property>
   <filter id="filter133" in="00:00:01.467" out="00:00:05.700">
    <property name="start">1</property>
    <property name="level">1</property>
    <property name="mlt_service">brightness</property>
    <property name="kdenlive_id">fade_to_black</property>
    <property name="alpha">00:00:00.000=1;00:00:04.233=0</property>
    <property name="kdenlive:collapsed">0</property>
   </filter>
   <filter id="filter134">
    <property name="version">0.2</property>
    <property name="mlt_service">frei0r.vignette</property>
    <property name="kdenlive_id">frei0r.vignette</property>
    <property name="aspect">00:00:00.000=0.5</property>
    <property name="clearCenter">00:00:00.000=0</property>
    <property name="soft">00:00:00.000=0.6</property>
    <properties name="ctor-0x7f473d7fa6c0"/>
    <properties name="ctor-0x7f47390d86c0"/>
    <properties name="ctor-0x7f453fff76c0"/>
    <properties name="ctor-0x7f4760ff96c0"/>
    <properties name="ctor-0x7f475b7fe6c0"/>
    <properties name="ctor-0x7feff37fe6c0"/>
   </filter>
   <filter id="filter135">
    <property name="mlt_service">avfilter.gradfun</property>
    <property name="kdenlive_id">avfilter.gradfun</property>
    <property name="av.strength">1.2</property>
    <property name="av.radius">16</property>
    <property name="position">frame</property>
   </filter>
   <filter id="filter136">
    <property name="line_width">00:00:00.000=2</property>
    <property name="num">00:00:00.000=7</property>
    <property name="darker">00:00:00.000=40</property>
    <property name="lighter">00:00:00.000=40</property>
    <property name="mlt_service">lines</property>
    <property name="kdenlive_id">lines</property>
    <property name="line6">806</property>
    <property name="typeline6">2</property>
    <property name="line5">1391</property>
    <property name="typeline5">1</property>
    <property name="line4">265</property>
    <property name="typeline4">3</property>
    <property name="line3">1827</property>
    <property name="typeline3">2</property>
    <property name="line2">437</property>
    <property name="typeline2">3</property>
    <property name="line1">1381</property>
    <property name="typeline1">3</property>
    <property name="line0">824</property>
    <property name="typeline0">2</property>
    <property name="last_oldfilm_line_pos">0.552588</property>
   </filter>
   <filter id="filter137">
    <property name="version">0.1</property>
    <property name="mlt_service">frei0r.glitch0r</property>
    <property name="kdenlive_id">frei0r.glitch0r</property>
    <property name="0">00:00:00.000=0.022</property>
    <property name="1">00:00:00.000=0.49913</property>
    <property name="2">00:00:00.000=0.499305</property>
    <property name="3">00:00:00.000=0</property>
    <properties name="ctor-0x7f473d7fa6c0"/>
    <properties name="ctor-0x7f47390d86c0"/>
    <properties name="ctor-0x7f453fff76c0"/>
    <properties name="ctor-0x7f4760ff96c0"/>
    <properties name="ctor-0x7f475b7fe6c0"/>
    <properties name="ctor-0x7feff37fe6c0"/>
   </filter>
   <filter id="filter138">
    <property name="version">0.1</property>
    <property name="mlt_service">frei0r.tint0r</property>
    <property name="kdenlive_id">frei0r.tint0r</property>
    <property name="Map black to">0x000000ff</property>
    <property name="Map white to">0xffe940ff</property>
    <property name="Tint amount">00:00:00.000=0.25</property>
    <properties name="ctor-0x7f473d7fa6c0"/>
    <properties name="ctor-0x7f47390d86c0"/>
    <properties name="ctor-0x7f453fff76c0"/>
    <properties name="ctor-0x7f4760ff96c0"/>
    <properties name="ctor-0x7f475b7fe6c0"/>
    <properties name="ctor-0x7feff37fe6c0"/>
   </filter>
  </entry>
 </playlist>
 <playlist id="playlist11"/>
 <tractor id="tractor5" in="00:00:00.000" out="00:00:27.150">
  <property name="kdenlive:trackheight">67</property>
  <property name="kdenlive:timeline_active">1</property>
  <property name="kdenlive:collapsed">0</property>
  <property name="kdenlive:thumbs_format"/>
  <property name="kdenlive:audio_rec"/>
  <track hide="audio" producer="playlist10"/>
  <track hide="audio" producer="playlist11"/>
 </tractor>
 <playlist id="playlist12">
  <blank length="00:00:08.167"/>
  <entry producer="producer503" in="00:00:00.000" out="00:00:03.250">
   <property name="kdenlive:id">535</property>
   <filter id="filter139">
    <property name="rotate_center">1</property>
    <property name="mlt_service">qtblend</property>
    <property name="kdenlive_id">qtblend</property>
    <property name="rect">00:00:00.000=2383 664 323 303 1.000000;00:00:03.250=2354 616 405 334 1.000000</property>
    <property name="rotation">00:00:00.000=199;00:00:03.250=-360</property>
    <property name="compositing">0</property>
    <property name="distort">0</property>
    <property name="kdenlive:collapsed">0</property>
   </filter>
   <filter id="filter140" in="00:00:03.033" out="00:00:03.250">
    <property name="start">1</property>
    <property name="level">1</property>
    <property name="mlt_service">brightness</property>
    <property name="kdenlive_id">fade_to_black</property>
    <property name="alpha">00:00:00.000=1;00:00:00.217=0</property>
    <property name="kdenlive:collapsed">0</property>
   </filter>
  </entry>
 </playlist>
 <playlist id="playlist13"/>
 <tractor id="tractor6" in="00:00:00.000" out="00:00:11.417">
  <property name="kdenlive:trackheight">67</property>
  <property name="kdenlive:timeline_active">1</property>
  <property name="kdenlive:collapsed">0</property>
  <property name="kdenlive:thumbs_format"/>
  <property name="kdenlive:audio_rec"/>
  <track hide="audio" producer="playlist12"/>
  <track hide="audio" producer="playlist13"/>
 </tractor>
 <playlist id="playlist14">
  <blank length="00:00:08.167"/>
  <entry producer="producer503" in="00:00:00.000" out="00:00:03.250">
   <property name="kdenlive:id">535</property>
   <filter id="filter141">
    <property name="rotate_center">1</property>
    <property name="mlt_service">qtblend</property>
    <property name="kdenlive_id">qtblend</property>
    <property name="rect">00:00:00.000=1972 279 352 317 1.000000;00:00:03.250=1503 550 477 362 1.000000</property>
    <property name="rotation">00:00:00.000=360;00:00:03.250=-360</property>
    <property name="compositing">0</property>
    <property name="distort">0</property>
    <property name="kdenlive:collapsed">0</property>
   </filter>
   <filter id="filter142" in="00:00:03.033" out="00:00:03.250">
    <property name="start">1</property>
    <property name="level">1</property>
    <property name="mlt_service">brightness</property>
    <property name="kdenlive_id">fade_to_black</property>
    <property name="alpha">00:00:00.000=1;00:00:00.217=0</property>
    <property name="kdenlive:collapsed">0</property>
   </filter>
  </entry>
 </playlist>
 <playlist id="playlist15"/>
 <tractor id="tractor7" in="00:00:00.000" out="00:00:11.417">
  <property name="kdenlive:trackheight">67</property>
  <property name="kdenlive:timeline_active">1</property>
  <property name="kdenlive:collapsed">0</property>
  <property name="kdenlive:thumbs_format"/>
  <property name="kdenlive:audio_rec"/>
  <track hide="audio" producer="playlist14"/>
  <track hide="audio" producer="playlist15"/>
 </tractor>
 <tractor id="tractor8" in="00:00:00.000" out="00:17:33.583">
  <track producer="black_track"/>
  <track producer="tractor0"/>
  <track producer="tractor1"/>
  <track producer="tractor2"/>
  <track producer="tractor3"/>
  <track producer="tractor4"/>
  <track producer="tractor5"/>
  <track producer="tractor6"/>
  <track producer="tractor7"/>
  <transition id="transition0">
   <property name="a_track">0</property>
   <property name="b_track">1</property>
   <property name="mlt_service">mix</property>
   <property name="kdenlive_id">mix</property>
   <property name="internal_added">237</property>
   <property name="always_active">1</property>
   <property name="accepts_blanks">1</property>
   <property name="sum">1</property>
  </transition>
  <transition id="transition1">
   <property name="a_track">0</property>
   <property name="b_track">2</property>
   <property name="mlt_service">mix</property>
   <property name="kdenlive_id">mix</property>
   <property name="internal_added">237</property>
   <property name="always_active">1</property>
   <property name="accepts_blanks">1</property>
   <property name="sum">1</property>
  </transition>
  <transition id="transition2">
   <property name="a_track">0</property>
   <property name="b_track">3</property>
   <property name="mlt_service">mix</property>
   <property name="kdenlive_id">mix</property>
   <property name="internal_added">237</property>
   <property name="always_active">1</property>
   <property name="accepts_blanks">1</property>
   <property name="sum">1</property>
  </transition>
  <transition id="transition3">
   <property name="a_track">0</property>
   <property name="b_track">4</property>
   <property name="version">0.1</property>
   <property name="mlt_service">frei0r.cairoblend</property>
   <property name="always_active">1</property>
   <property name="internal_added">237</property>
   <properties name="ctor-0x7feff37fe6c0"/>
  </transition>
  <transition id="transition4">
   <property name="a_track">0</property>
   <property name="b_track">5</property>
   <property name="version">0.1</property>
   <property name="mlt_service">frei0r.cairoblend</property>
   <property name="always_active">1</property>
   <property name="internal_added">237</property>
  </transition>
  <transition id="transition5">
   <property name="a_track">0</property>
   <property name="b_track">6</property>
   <property name="version">0.1</property>
   <property name="mlt_service">frei0r.cairoblend</property>
   <property name="always_active">1</property>
   <property name="internal_added">237</property>
   <properties name="ctor-0x7feff37fe6c0"/>
  </transition>
  <transition id="transition6">
   <property name="a_track">0</property>
   <property name="b_track">7</property>
   <property name="version">0.1</property>
   <property name="mlt_service">frei0r.cairoblend</property>
   <property name="always_active">1</property>
   <property name="internal_added">237</property>
   <properties name="ctor-0x7feff37fe6c0"/>
  </transition>
  <transition id="transition7">
   <property name="a_track">0</property>
   <property name="b_track">8</property>
   <property name="version">0.1</property>
   <property name="mlt_service">frei0r.cairoblend</property>
   <property name="always_active">1</property>
   <property name="internal_added">237</property>
   <properties name="ctor-0x7feff37fe6c0"/>
  </transition>
  <filter id="filter143">
   <property name="window">75</property>
   <property name="max_gain">20dB</property>
   <property name="mlt_service">volume</property>
   <property name="internal_added">237</property>
   <property name="disable">1</property>
  </filter>
  <filter id="filter144">
   <property name="channel">-1</property>
   <property name="mlt_service">panner</property>
   <property name="internal_added">237</property>
   <property name="start">0.5</property>
   <property name="disable">1</property>
  </filter>
 </tractor>
</mlt>
