<?xml version='1.0' encoding='utf-8'?>
<mlt LC_NUMERIC="C" producer="main_bin" version="7.16.0" root="/home/xiaoxiae/Documents/Education/Programming/Manim/18-lopt">
 <profile frame_rate_num="60" sample_aspect_num="1" display_aspect_den="9" colorspace="709" progressive="1" description="HD 1080p 60 fps" display_aspect_num="16" frame_rate_den="1" width="1920" height="1080" sample_aspect_den="1"/>
 <chain id="chain67" out="00:00:10.983">
  <property name="length">660</property>
  <property name="eof">pause</property>
  <property name="resource">/home/xiaoxiae/.cache/kdenlive/proxy/be9600c1c86ba66447c4b75bbcabc4f3.mkv</property>
  <property name="mlt_service">avformat-novalidate</property>
  <property name="meta.media.nb_streams">1</property>
  <property name="meta.media.0.stream.type">video</property>
  <property name="meta.media.0.stream.frame_rate">60</property>
  <property name="meta.media.0.stream.sample_aspect_ratio">0</property>
  <property name="meta.media.0.codec.width">640</property>
  <property name="meta.media.0.codec.height">360</property>
  <property name="meta.media.0.codec.rotate">0</property>
  <property name="meta.media.0.codec.pix_fmt">yuvj420p</property>
  <property name="meta.media.0.codec.sample_aspect_ratio">0</property>
  <property name="meta.media.0.codec.colorspace">601</property>
  <property name="meta.media.0.codec.name">mjpeg</property>
  <property name="meta.media.0.codec.long_name">MJPEG (Motion JPEG)</property>
  <property name="meta.media.0.codec.bit_rate">0</property>
  <property name="meta.attr.0.stream.HANDLER_NAME.markup">VideoHandler</property>
  <property name="meta.attr.0.stream.VENDOR_ID.markup">[0][0][0][0]</property>
  <property name="meta.attr.0.stream.ENCODER.markup">Lavc60.3.100 mjpeg</property>
  <property name="meta.attr.0.stream.DURATION.markup">00:00:11.000000000</property>
  <property name="meta.attr.COMMENT.markup">Rendered with Manim Community v0.17.3</property>
  <property name="meta.attr.MAJOR_BRAND.markup">isom</property>
  <property name="meta.attr.MINOR_VERSION.markup">512</property>
  <property name="meta.attr.COMPATIBLE_BRANDS.markup">isomiso2avc1mp41</property>
  <property name="meta.attr.ENCODER.markup">Lavf60.3.100</property>
  <property name="seekable">1</property>
  <property name="meta.media.sample_aspect_num">1</property>
  <property name="meta.media.sample_aspect_den">1</property>
  <property name="format">3</property>
  <property name="audio_index">-1</property>
  <property name="video_index">0</property>
  <property name="meta.media.frame_rate_num">60</property>
  <property name="meta.media.frame_rate_den">1</property>
  <property name="meta.media.colorspace">601</property>
  <property name="meta.media.color_trc">2</property>
  <property name="meta.media.has_b_frames">0</property>
  <property name="meta.media.width">640</property>
  <property name="meta.media.height">360</property>
  <property name="meta.media.color_range">full</property>
  <property name="kdenlive:clipname">Flows.mp4</property>
  <property name="kdenlive:clip_type">2</property>
  <property name="kdenlive:folderid">4</property>
  <property name="kdenlive:id">6</property>
  <property name="mute_on_pause">0</property>
  <property name="kdenlive:file_size">1887425</property>
  <property name="kdenlive:file_hash">be9600c1c86ba66447c4b75bbcabc4f3</property>
  <property name="kdenlive:proxy">/home/xiaoxiae/.cache/kdenlive/proxy/be9600c1c86ba66447c4b75bbcabc4f3.mkv</property>
  <property name="kdenlive:originalurl">video/Flows.mp4</property>
  <property name="kdenlive:original.mlt_type">chain</property>
  <property name="kdenlive:original.in">0</property>
  <property name="kdenlive:original.out">00:00:10.983</property>
  <property name="kdenlive:original.length">660</property>
  <property name="kdenlive:original.eof">pause</property>
  <property name="kdenlive:original.resource">video/Flows.mp4</property>
  <property name="kdenlive:original.mlt_service">avformat-novalidate</property>
  <property name="kdenlive:original.meta.media.nb_streams">1</property>
  <property name="kdenlive:original.meta.media.0.stream.type">video</property>
  <property name="kdenlive:original.meta.media.0.stream.frame_rate">60</property>
  <property name="kdenlive:original.meta.media.0.stream.sample_aspect_ratio">0</property>
  <property name="kdenlive:original.meta.media.0.codec.width">1920</property>
  <property name="kdenlive:original.meta.media.0.codec.height">1080</property>
  <property name="kdenlive:original.meta.media.0.codec.rotate">0</property>
  <property name="kdenlive:original.meta.media.0.codec.pix_fmt">yuv420p</property>
  <property name="kdenlive:original.meta.media.0.codec.sample_aspect_ratio">0</property>
  <property name="kdenlive:original.meta.media.0.codec.colorspace">709</property>
  <property name="kdenlive:original.meta.media.0.codec.name">h264</property>
  <property name="kdenlive:original.meta.media.0.codec.long_name">H.264 / AVC / MPEG-4 AVC / MPEG-4 part 10</property>
  <property name="kdenlive:original.meta.media.0.codec.bit_rate">1366866</property>
  <property name="kdenlive:original.meta.attr.0.stream.handler_name.markup">VideoHandler</property>
  <property name="kdenlive:original.meta.attr.0.stream.vendor_id.markup">[0][0][0][0]</property>
  <property name="kdenlive:original.meta.attr.0.stream.encoder.markup">Lavc60.3.100 libx264</property>
  <property name="kdenlive:original.meta.attr.major_brand.markup">isom</property>
  <property name="kdenlive:original.meta.attr.minor_version.markup">512</property>
  <property name="kdenlive:original.meta.attr.compatible_brands.markup">isomiso2avc1mp41</property>
  <property name="kdenlive:original.meta.attr.encoder.markup">Lavf60.3.100</property>
  <property name="kdenlive:original.meta.attr.comment.markup">Rendered with Manim Community v0.17.3</property>
  <property name="kdenlive:original.seekable">1</property>
  <property name="kdenlive:original.width">1920</property>
  <property name="kdenlive:original.height">1080</property>
  <property name="kdenlive:original.meta.media.sample_aspect_num">1</property>
  <property name="kdenlive:original.meta.media.sample_aspect_den">1</property>
  <property name="kdenlive:original.format">3</property>
  <property name="kdenlive:original.audio_index">-1</property>
  <property name="kdenlive:original.video_index">0</property>
  <property name="kdenlive:original.meta.media.frame_rate_num">60</property>
  <property name="kdenlive:original.meta.media.frame_rate_den">1</property>
  <property name="kdenlive:original.meta.media.colorspace">709</property>
  <property name="kdenlive:original.meta.media.color_trc">2</property>
  <property name="kdenlive:original.meta.media.has_b_frames">2</property>
  <property name="kdenlive:original.meta.media.width">1920</property>
  <property name="kdenlive:original.meta.media.height">1080</property>
  <property name="kdenlive:original.meta.media.color_range">mpeg</property>
  <property name="kdenlive:original.meta.media.top_field_first">0</property>
  <property name="kdenlive:original.meta.media.progressive">1</property>
  <property name="kdenlive:original.kdenlive:clip_type">2</property>
  <property name="kdenlive:original.kdenlive:folderid">4</property>
  <property name="kdenlive:original.kdenlive:id">6</property>
  <property name="kdenlive:original.mute_on_pause">0</property>
  <property name="kdenlive:original.kdenlive:file_size">1887425</property>
  <property name="kdenlive:original.kdenlive:file_hash">be9600c1c86ba66447c4b75bbcabc4f3</property>
  <property name="kdenlive:original.backup">1</property>
  <property name="meta.media.top_field_first">0</property>
  <property name="meta.media.progressive">1</property>
 </chain>
 <chain id="chain65" out="00:00:09.883">
  <property name="length">594</property>
  <property name="eof">pause</property>
  <property name="resource">/home/xiaoxiae/.cache/kdenlive/proxy/842e8b0e1e2fb10f4bee46c9b8731112.mkv</property>
  <property name="mlt_service">avformat-novalidate</property>
  <property name="meta.media.nb_streams">1</property>
  <property name="meta.media.0.stream.type">video</property>
  <property name="meta.media.0.stream.frame_rate">60</property>
  <property name="meta.media.0.stream.sample_aspect_ratio">0</property>
  <property name="meta.media.0.codec.width">640</property>
  <property name="meta.media.0.codec.height">360</property>
  <property name="meta.media.0.codec.rotate">0</property>
  <property name="meta.media.0.codec.pix_fmt">yuvj420p</property>
  <property name="meta.media.0.codec.sample_aspect_ratio">0</property>
  <property name="meta.media.0.codec.colorspace">601</property>
  <property name="meta.media.0.codec.name">mjpeg</property>
  <property name="meta.media.0.codec.long_name">MJPEG (Motion JPEG)</property>
  <property name="meta.media.0.codec.bit_rate">0</property>
  <property name="meta.attr.0.stream.HANDLER_NAME.markup">VideoHandler</property>
  <property name="meta.attr.0.stream.VENDOR_ID.markup">[0][0][0][0]</property>
  <property name="meta.attr.0.stream.ENCODER.markup">Lavc60.3.100 mjpeg</property>
  <property name="meta.attr.0.stream.DURATION.markup">00:00:09.900000000</property>
  <property name="meta.attr.COMMENT.markup">Rendered with Manim Community v0.17.3</property>
  <property name="meta.attr.MAJOR_BRAND.markup">isom</property>
  <property name="meta.attr.MINOR_VERSION.markup">512</property>
  <property name="meta.attr.COMPATIBLE_BRANDS.markup">isomiso2avc1mp41</property>
  <property name="meta.attr.ENCODER.markup">Lavf60.3.100</property>
  <property name="seekable">1</property>
  <property name="meta.media.sample_aspect_num">1</property>
  <property name="meta.media.sample_aspect_den">1</property>
  <property name="format">3</property>
  <property name="audio_index">-1</property>
  <property name="video_index">0</property>
  <property name="meta.media.frame_rate_num">60</property>
  <property name="meta.media.frame_rate_den">1</property>
  <property name="meta.media.colorspace">601</property>
  <property name="meta.media.color_trc">2</property>
  <property name="meta.media.has_b_frames">0</property>
  <property name="meta.media.width">640</property>
  <property name="meta.media.height">360</property>
  <property name="meta.media.color_range">full</property>
  <property name="kdenlive:clipname">ILP.mp4</property>
  <property name="kdenlive:clip_type">2</property>
  <property name="kdenlive:folderid">4</property>
  <property name="kdenlive:id">7</property>
  <property name="mute_on_pause">0</property>
  <property name="kdenlive:file_size">687675</property>
  <property name="kdenlive:file_hash">842e8b0e1e2fb10f4bee46c9b8731112</property>
  <property name="kdenlive:proxy">/home/xiaoxiae/.cache/kdenlive/proxy/842e8b0e1e2fb10f4bee46c9b8731112.mkv</property>
  <property name="kdenlive:originalurl">video/ILP.mp4</property>
  <property name="kdenlive:original.mlt_type">chain</property>
  <property name="kdenlive:original.in">0</property>
  <property name="kdenlive:original.out">00:00:09.883</property>
  <property name="kdenlive:original.length">594</property>
  <property name="kdenlive:original.eof">pause</property>
  <property name="kdenlive:original.resource">video/ILP.mp4</property>
  <property name="kdenlive:original.mlt_service">avformat-novalidate</property>
  <property name="kdenlive:original.meta.media.nb_streams">1</property>
  <property name="kdenlive:original.meta.media.0.stream.type">video</property>
  <property name="kdenlive:original.meta.media.0.stream.frame_rate">60</property>
  <property name="kdenlive:original.meta.media.0.stream.sample_aspect_ratio">0</property>
  <property name="kdenlive:original.meta.media.0.codec.width">1920</property>
  <property name="kdenlive:original.meta.media.0.codec.height">1080</property>
  <property name="kdenlive:original.meta.media.0.codec.rotate">0</property>
  <property name="kdenlive:original.meta.media.0.codec.pix_fmt">yuv420p</property>
  <property name="kdenlive:original.meta.media.0.codec.sample_aspect_ratio">0</property>
  <property name="kdenlive:original.meta.media.0.codec.colorspace">709</property>
  <property name="kdenlive:original.meta.media.0.codec.name">h264</property>
  <property name="kdenlive:original.meta.media.0.codec.long_name">H.264 / AVC / MPEG-4 AVC / MPEG-4 part 10</property>
  <property name="kdenlive:original.meta.media.0.codec.bit_rate">549477</property>
  <property name="kdenlive:original.meta.attr.0.stream.handler_name.markup">VideoHandler</property>
  <property name="kdenlive:original.meta.attr.0.stream.vendor_id.markup">[0][0][0][0]</property>
  <property name="kdenlive:original.meta.attr.0.stream.encoder.markup">Lavc60.3.100 libx264</property>
  <property name="kdenlive:original.meta.attr.major_brand.markup">isom</property>
  <property name="kdenlive:original.meta.attr.minor_version.markup">512</property>
  <property name="kdenlive:original.meta.attr.compatible_brands.markup">isomiso2avc1mp41</property>
  <property name="kdenlive:original.meta.attr.encoder.markup">Lavf60.3.100</property>
  <property name="kdenlive:original.meta.attr.comment.markup">Rendered with Manim Community v0.17.3</property>
  <property name="kdenlive:original.seekable">1</property>
  <property name="kdenlive:original.width">1920</property>
  <property name="kdenlive:original.height">1080</property>
  <property name="kdenlive:original.meta.media.sample_aspect_num">1</property>
  <property name="kdenlive:original.meta.media.sample_aspect_den">1</property>
  <property name="kdenlive:original.format">3</property>
  <property name="kdenlive:original.audio_index">-1</property>
  <property name="kdenlive:original.video_index">0</property>
  <property name="kdenlive:original.meta.media.frame_rate_num">60</property>
  <property name="kdenlive:original.meta.media.frame_rate_den">1</property>
  <property name="kdenlive:original.meta.media.colorspace">709</property>
  <property name="kdenlive:original.meta.media.color_trc">2</property>
  <property name="kdenlive:original.meta.media.has_b_frames">2</property>
  <property name="kdenlive:original.meta.media.width">1920</property>
  <property name="kdenlive:original.meta.media.height">1080</property>
  <property name="kdenlive:original.meta.media.color_range">mpeg</property>
  <property name="kdenlive:original.meta.media.top_field_first">0</property>
  <property name="kdenlive:original.meta.media.progressive">1</property>
  <property name="kdenlive:original.kdenlive:clip_type">2</property>
  <property name="kdenlive:original.kdenlive:folderid">4</property>
  <property name="kdenlive:original.kdenlive:id">7</property>
  <property name="kdenlive:original.mute_on_pause">0</property>
  <property name="kdenlive:original.kdenlive:file_size">687675</property>
  <property name="kdenlive:original.kdenlive:file_hash">842e8b0e1e2fb10f4bee46c9b8731112</property>
  <property name="kdenlive:original.backup">1</property>
  <property name="meta.media.top_field_first">0</property>
  <property name="meta.media.progressive">1</property>
 </chain>
 <chain id="chain64" out="00:00:07.483">
  <property name="length">450</property>
  <property name="eof">pause</property>
  <property name="resource">/home/xiaoxiae/.cache/kdenlive/proxy/bcdd073e699c8badc3a1a49cae6d714f.mkv</property>
  <property name="mlt_service">avformat-novalidate</property>
  <property name="meta.media.nb_streams">1</property>
  <property name="meta.media.0.stream.type">video</property>
  <property name="meta.media.0.stream.frame_rate">60</property>
  <property name="meta.media.0.stream.sample_aspect_ratio">0</property>
  <property name="meta.media.0.codec.width">640</property>
  <property name="meta.media.0.codec.height">360</property>
  <property name="meta.media.0.codec.rotate">0</property>
  <property name="meta.media.0.codec.pix_fmt">yuvj420p</property>
  <property name="meta.media.0.codec.sample_aspect_ratio">0</property>
  <property name="meta.media.0.codec.colorspace">601</property>
  <property name="meta.media.0.codec.name">mjpeg</property>
  <property name="meta.media.0.codec.long_name">MJPEG (Motion JPEG)</property>
  <property name="meta.media.0.codec.bit_rate">0</property>
  <property name="meta.attr.0.stream.HANDLER_NAME.markup">VideoHandler</property>
  <property name="meta.attr.0.stream.VENDOR_ID.markup">[0][0][0][0]</property>
  <property name="meta.attr.0.stream.ENCODER.markup">Lavc60.3.100 mjpeg</property>
  <property name="meta.attr.0.stream.DURATION.markup">00:00:07.500000000</property>
  <property name="meta.attr.COMMENT.markup">Rendered with Manim Community v0.17.3</property>
  <property name="meta.attr.MAJOR_BRAND.markup">isom</property>
  <property name="meta.attr.MINOR_VERSION.markup">512</property>
  <property name="meta.attr.COMPATIBLE_BRANDS.markup">isomiso2avc1mp41</property>
  <property name="meta.attr.ENCODER.markup">Lavf60.3.100</property>
  <property name="seekable">1</property>
  <property name="meta.media.sample_aspect_num">1</property>
  <property name="meta.media.sample_aspect_den">1</property>
  <property name="format">3</property>
  <property name="audio_index">-1</property>
  <property name="video_index">0</property>
  <property name="meta.media.frame_rate_num">60</property>
  <property name="meta.media.frame_rate_den">1</property>
  <property name="meta.media.colorspace">601</property>
  <property name="meta.media.color_trc">2</property>
  <property name="meta.media.has_b_frames">0</property>
  <property name="meta.media.width">640</property>
  <property name="meta.media.height">360</property>
  <property name="meta.media.color_range">full</property>
  <property name="kdenlive:clipname">Intro.mp4</property>
  <property name="kdenlive:clip_type">2</property>
  <property name="kdenlive:folderid">4</property>
  <property name="kdenlive:id">8</property>
  <property name="mute_on_pause">0</property>
  <property name="kdenlive:file_size">1560414</property>
  <property name="kdenlive:file_hash">bcdd073e699c8badc3a1a49cae6d714f</property>
  <property name="kdenlive:proxy">/home/xiaoxiae/.cache/kdenlive/proxy/bcdd073e699c8badc3a1a49cae6d714f.mkv</property>
  <property name="kdenlive:originalurl">video/Intro.mp4</property>
  <property name="kdenlive:original.mlt_type">chain</property>
  <property name="kdenlive:original.in">0</property>
  <property name="kdenlive:original.out">00:00:07.483</property>
  <property name="kdenlive:original.length">450</property>
  <property name="kdenlive:original.eof">pause</property>
  <property name="kdenlive:original.resource">video/Intro.mp4</property>
  <property name="kdenlive:original.mlt_service">avformat-novalidate</property>
  <property name="kdenlive:original.meta.media.nb_streams">1</property>
  <property name="kdenlive:original.meta.media.0.stream.type">video</property>
  <property name="kdenlive:original.meta.media.0.stream.frame_rate">60</property>
  <property name="kdenlive:original.meta.media.0.stream.sample_aspect_ratio">0</property>
  <property name="kdenlive:original.meta.media.0.codec.width">1920</property>
  <property name="kdenlive:original.meta.media.0.codec.height">1080</property>
  <property name="kdenlive:original.meta.media.0.codec.rotate">0</property>
  <property name="kdenlive:original.meta.media.0.codec.pix_fmt">yuv420p</property>
  <property name="kdenlive:original.meta.media.0.codec.sample_aspect_ratio">0</property>
  <property name="kdenlive:original.meta.media.0.codec.colorspace">709</property>
  <property name="kdenlive:original.meta.media.0.codec.name">h264</property>
  <property name="kdenlive:original.meta.media.0.codec.long_name">H.264 / AVC / MPEG-4 AVC / MPEG-4 part 10</property>
  <property name="kdenlive:original.meta.media.0.codec.bit_rate">1658472</property>
  <property name="kdenlive:original.meta.attr.0.stream.handler_name.markup">VideoHandler</property>
  <property name="kdenlive:original.meta.attr.0.stream.vendor_id.markup">[0][0][0][0]</property>
  <property name="kdenlive:original.meta.attr.0.stream.encoder.markup">Lavc60.3.100 libx264</property>
  <property name="kdenlive:original.meta.attr.major_brand.markup">isom</property>
  <property name="kdenlive:original.meta.attr.minor_version.markup">512</property>
  <property name="kdenlive:original.meta.attr.compatible_brands.markup">isomiso2avc1mp41</property>
  <property name="kdenlive:original.meta.attr.encoder.markup">Lavf60.3.100</property>
  <property name="kdenlive:original.meta.attr.comment.markup">Rendered with Manim Community v0.17.3</property>
  <property name="kdenlive:original.seekable">1</property>
  <property name="kdenlive:original.width">1920</property>
  <property name="kdenlive:original.height">1080</property>
  <property name="kdenlive:original.meta.media.sample_aspect_num">1</property>
  <property name="kdenlive:original.meta.media.sample_aspect_den">1</property>
  <property name="kdenlive:original.format">3</property>
  <property name="kdenlive:original.audio_index">-1</property>
  <property name="kdenlive:original.video_index">0</property>
  <property name="kdenlive:original.meta.media.frame_rate_num">60</property>
  <property name="kdenlive:original.meta.media.frame_rate_den">1</property>
  <property name="kdenlive:original.meta.media.colorspace">709</property>
  <property name="kdenlive:original.meta.media.color_trc">2</property>
  <property name="kdenlive:original.meta.media.has_b_frames">2</property>
  <property name="kdenlive:original.meta.media.width">1920</property>
  <property name="kdenlive:original.meta.media.height">1080</property>
  <property name="kdenlive:original.meta.media.color_range">mpeg</property>
  <property name="kdenlive:original.meta.media.top_field_first">0</property>
  <property name="kdenlive:original.meta.media.progressive">1</property>
  <property name="kdenlive:original.kdenlive:clip_type">2</property>
  <property name="kdenlive:original.kdenlive:folderid">4</property>
  <property name="kdenlive:original.kdenlive:id">8</property>
  <property name="kdenlive:original.mute_on_pause">0</property>
  <property name="kdenlive:original.kdenlive:file_size">1560414</property>
  <property name="kdenlive:original.kdenlive:file_hash">bcdd073e699c8badc3a1a49cae6d714f</property>
  <property name="kdenlive:original.backup">1</property>
  <property name="meta.media.top_field_first">0</property>
  <property name="meta.media.progressive">1</property>
 </chain>
 <chain id="chain66" out="00:00:31.683">
  <property name="length">1902</property>
  <property name="eof">pause</property>
  <property name="resource">/home/xiaoxiae/.cache/kdenlive/proxy/11fdf13fef2675527bcb4c82169236f4.mkv</property>
  <property name="mlt_service">avformat-novalidate</property>
  <property name="meta.media.nb_streams">1</property>
  <property name="meta.media.0.stream.type">video</property>
  <property name="meta.media.0.stream.frame_rate">60</property>
  <property name="meta.media.0.stream.sample_aspect_ratio">0</property>
  <property name="meta.media.0.codec.width">640</property>
  <property name="meta.media.0.codec.height">360</property>
  <property name="meta.media.0.codec.rotate">0</property>
  <property name="meta.media.0.codec.pix_fmt">yuvj420p</property>
  <property name="meta.media.0.codec.sample_aspect_ratio">0</property>
  <property name="meta.media.0.codec.colorspace">601</property>
  <property name="meta.media.0.codec.name">mjpeg</property>
  <property name="meta.media.0.codec.long_name">MJPEG (Motion JPEG)</property>
  <property name="meta.media.0.codec.bit_rate">0</property>
  <property name="meta.attr.0.stream.HANDLER_NAME.markup">VideoHandler</property>
  <property name="meta.attr.0.stream.VENDOR_ID.markup">[0][0][0][0]</property>
  <property name="meta.attr.0.stream.ENCODER.markup">Lavc60.3.100 mjpeg</property>
  <property name="meta.attr.0.stream.DURATION.markup">00:00:31.700000000</property>
  <property name="meta.attr.COMMENT.markup">Rendered with Manim Community v0.17.3</property>
  <property name="meta.attr.MAJOR_BRAND.markup">isom</property>
  <property name="meta.attr.MINOR_VERSION.markup">512</property>
  <property name="meta.attr.COMPATIBLE_BRANDS.markup">isomiso2avc1mp41</property>
  <property name="meta.attr.ENCODER.markup">Lavf60.3.100</property>
  <property name="seekable">1</property>
  <property name="meta.media.sample_aspect_num">1</property>
  <property name="meta.media.sample_aspect_den">1</property>
  <property name="format">3</property>
  <property name="audio_index">-1</property>
  <property name="video_index">0</property>
  <property name="meta.media.frame_rate_num">60</property>
  <property name="meta.media.frame_rate_den">1</property>
  <property name="meta.media.colorspace">601</property>
  <property name="meta.media.color_trc">2</property>
  <property name="meta.media.has_b_frames">0</property>
  <property name="meta.media.width">640</property>
  <property name="meta.media.height">360</property>
  <property name="meta.media.color_range">full</property>
  <property name="kdenlive:clipname">Knapsack.mp4</property>
  <property name="kdenlive:clip_type">2</property>
  <property name="kdenlive:folderid">4</property>
  <property name="kdenlive:id">9</property>
  <property name="mute_on_pause">0</property>
  <property name="kdenlive:file_size">3231899</property>
  <property name="kdenlive:file_hash">11fdf13fef2675527bcb4c82169236f4</property>
  <property name="kdenlive:proxy">/home/xiaoxiae/.cache/kdenlive/proxy/11fdf13fef2675527bcb4c82169236f4.mkv</property>
  <property name="kdenlive:originalurl">video/Knapsack.mp4</property>
  <property name="kdenlive:original.mlt_type">chain</property>
  <property name="kdenlive:original.in">0</property>
  <property name="kdenlive:original.out">00:00:31.683</property>
  <property name="kdenlive:original.length">1902</property>
  <property name="kdenlive:original.eof">pause</property>
  <property name="kdenlive:original.resource">video/Knapsack.mp4</property>
  <property name="kdenlive:original.mlt_service">avformat-novalidate</property>
  <property name="kdenlive:original.meta.media.nb_streams">1</property>
  <property name="kdenlive:original.meta.media.0.stream.type">video</property>
  <property name="kdenlive:original.meta.media.0.stream.frame_rate">60</property>
  <property name="kdenlive:original.meta.media.0.stream.sample_aspect_ratio">0</property>
  <property name="kdenlive:original.meta.media.0.codec.width">1920</property>
  <property name="kdenlive:original.meta.media.0.codec.height">1080</property>
  <property name="kdenlive:original.meta.media.0.codec.rotate">0</property>
  <property name="kdenlive:original.meta.media.0.codec.pix_fmt">yuv420p</property>
  <property name="kdenlive:original.meta.media.0.codec.sample_aspect_ratio">0</property>
  <property name="kdenlive:original.meta.media.0.codec.colorspace">709</property>
  <property name="kdenlive:original.meta.media.0.codec.name">h264</property>
  <property name="kdenlive:original.meta.media.0.codec.long_name">H.264 / AVC / MPEG-4 AVC / MPEG-4 part 10</property>
  <property name="kdenlive:original.meta.media.0.codec.bit_rate">810014</property>
  <property name="kdenlive:original.meta.attr.0.stream.handler_name.markup">VideoHandler</property>
  <property name="kdenlive:original.meta.attr.0.stream.vendor_id.markup">[0][0][0][0]</property>
  <property name="kdenlive:original.meta.attr.0.stream.encoder.markup">Lavc60.3.100 libx264</property>
  <property name="kdenlive:original.meta.attr.major_brand.markup">isom</property>
  <property name="kdenlive:original.meta.attr.minor_version.markup">512</property>
  <property name="kdenlive:original.meta.attr.compatible_brands.markup">isomiso2avc1mp41</property>
  <property name="kdenlive:original.meta.attr.encoder.markup">Lavf60.3.100</property>
  <property name="kdenlive:original.meta.attr.comment.markup">Rendered with Manim Community v0.17.3</property>
  <property name="kdenlive:original.seekable">1</property>
  <property name="kdenlive:original.width">1920</property>
  <property name="kdenlive:original.height">1080</property>
  <property name="kdenlive:original.meta.media.sample_aspect_num">1</property>
  <property name="kdenlive:original.meta.media.sample_aspect_den">1</property>
  <property name="kdenlive:original.format">3</property>
  <property name="kdenlive:original.audio_index">-1</property>
  <property name="kdenlive:original.video_index">0</property>
  <property name="kdenlive:original.meta.media.frame_rate_num">60</property>
  <property name="kdenlive:original.meta.media.frame_rate_den">1</property>
  <property name="kdenlive:original.meta.media.colorspace">709</property>
  <property name="kdenlive:original.meta.media.color_trc">2</property>
  <property name="kdenlive:original.meta.media.has_b_frames">2</property>
  <property name="kdenlive:original.meta.media.width">1920</property>
  <property name="kdenlive:original.meta.media.height">1080</property>
  <property name="kdenlive:original.meta.media.color_range">mpeg</property>
  <property name="kdenlive:original.meta.media.top_field_first">0</property>
  <property name="kdenlive:original.meta.media.progressive">1</property>
  <property name="kdenlive:original.kdenlive:clip_type">2</property>
  <property name="kdenlive:original.kdenlive:folderid">4</property>
  <property name="kdenlive:original.kdenlive:id">9</property>
  <property name="kdenlive:original.mute_on_pause">0</property>
  <property name="kdenlive:original.kdenlive:file_size">3231899</property>
  <property name="kdenlive:original.kdenlive:file_hash">11fdf13fef2675527bcb4c82169236f4</property>
  <property name="kdenlive:original.backup">1</property>
  <property name="meta.media.top_field_first">0</property>
  <property name="meta.media.progressive">1</property>
 </chain>
 <chain id="chain63" out="00:00:15.233">
  <property name="length">915</property>
  <property name="eof">pause</property>
  <property name="resource">/home/xiaoxiae/.cache/kdenlive/proxy/2c0ca5692d92c8b430ec64f1b62de66a.mkv</property>
  <property name="mlt_service">avformat-novalidate</property>
  <property name="meta.media.nb_streams">1</property>
  <property name="meta.media.0.stream.type">video</property>
  <property name="meta.media.0.stream.frame_rate">60</property>
  <property name="meta.media.0.stream.sample_aspect_ratio">0</property>
  <property name="meta.media.0.codec.width">640</property>
  <property name="meta.media.0.codec.height">360</property>
  <property name="meta.media.0.codec.rotate">0</property>
  <property name="meta.media.0.codec.pix_fmt">yuvj420p</property>
  <property name="meta.media.0.codec.sample_aspect_ratio">0</property>
  <property name="meta.media.0.codec.colorspace">601</property>
  <property name="meta.media.0.codec.name">mjpeg</property>
  <property name="meta.media.0.codec.long_name">MJPEG (Motion JPEG)</property>
  <property name="meta.media.0.codec.bit_rate">0</property>
  <property name="meta.attr.0.stream.HANDLER_NAME.markup">VideoHandler</property>
  <property name="meta.attr.0.stream.VENDOR_ID.markup">[0][0][0][0]</property>
  <property name="meta.attr.0.stream.ENCODER.markup">Lavc60.3.100 mjpeg</property>
  <property name="meta.attr.0.stream.DURATION.markup">00:00:15.250000000</property>
  <property name="meta.attr.COMMENT.markup">Rendered with Manim Community v0.17.3</property>
  <property name="meta.attr.MAJOR_BRAND.markup">isom</property>
  <property name="meta.attr.MINOR_VERSION.markup">512</property>
  <property name="meta.attr.COMPATIBLE_BRANDS.markup">isomiso2avc1mp41</property>
  <property name="meta.attr.ENCODER.markup">Lavf60.3.100</property>
  <property name="seekable">1</property>
  <property name="meta.media.sample_aspect_num">1</property>
  <property name="meta.media.sample_aspect_den">1</property>
  <property name="format">3</property>
  <property name="audio_index">-1</property>
  <property name="video_index">0</property>
  <property name="meta.media.frame_rate_num">60</property>
  <property name="meta.media.frame_rate_den">1</property>
  <property name="meta.media.colorspace">601</property>
  <property name="meta.media.color_trc">2</property>
  <property name="meta.media.has_b_frames">0</property>
  <property name="meta.media.width">640</property>
  <property name="meta.media.height">360</property>
  <property name="meta.media.color_range">full</property>
  <property name="kdenlive:clipname">Outro.mp4</property>
  <property name="kdenlive:clip_type">2</property>
  <property name="kdenlive:folderid">4</property>
  <property name="kdenlive:id">10</property>
  <property name="mute_on_pause">0</property>
  <property name="kdenlive:file_size">1041714</property>
  <property name="kdenlive:file_hash">2c0ca5692d92c8b430ec64f1b62de66a</property>
  <property name="kdenlive:proxy">/home/xiaoxiae/.cache/kdenlive/proxy/2c0ca5692d92c8b430ec64f1b62de66a.mkv</property>
  <property name="kdenlive:originalurl">video/Outro.mp4</property>
  <property name="kdenlive:original.mlt_type">chain</property>
  <property name="kdenlive:original.in">0</property>
  <property name="kdenlive:original.out">00:00:15.233</property>
  <property name="kdenlive:original.length">915</property>
  <property name="kdenlive:original.eof">pause</property>
  <property name="kdenlive:original.resource">video/Outro.mp4</property>
  <property name="kdenlive:original.mlt_service">avformat-novalidate</property>
  <property name="kdenlive:original.meta.media.nb_streams">1</property>
  <property name="kdenlive:original.meta.media.0.stream.type">video</property>
  <property name="kdenlive:original.meta.media.0.stream.frame_rate">60</property>
  <property name="kdenlive:original.meta.media.0.stream.sample_aspect_ratio">0</property>
  <property name="kdenlive:original.meta.media.0.codec.width">1920</property>
  <property name="kdenlive:original.meta.media.0.codec.height">1080</property>
  <property name="kdenlive:original.meta.media.0.codec.rotate">0</property>
  <property name="kdenlive:original.meta.media.0.codec.pix_fmt">yuv420p</property>
  <property name="kdenlive:original.meta.media.0.codec.sample_aspect_ratio">0</property>
  <property name="kdenlive:original.meta.media.0.codec.colorspace">709</property>
  <property name="kdenlive:original.meta.media.0.codec.name">h264</property>
  <property name="kdenlive:original.meta.media.0.codec.long_name">H.264 / AVC / MPEG-4 AVC / MPEG-4 part 10</property>
  <property name="kdenlive:original.meta.media.0.codec.bit_rate">540551</property>
  <property name="kdenlive:original.meta.attr.0.stream.handler_name.markup">VideoHandler</property>
  <property name="kdenlive:original.meta.attr.0.stream.vendor_id.markup">[0][0][0][0]</property>
  <property name="kdenlive:original.meta.attr.0.stream.encoder.markup">Lavc60.3.100 libx264</property>
  <property name="kdenlive:original.meta.attr.major_brand.markup">isom</property>
  <property name="kdenlive:original.meta.attr.minor_version.markup">512</property>
  <property name="kdenlive:original.meta.attr.compatible_brands.markup">isomiso2avc1mp41</property>
  <property name="kdenlive:original.meta.attr.encoder.markup">Lavf60.3.100</property>
  <property name="kdenlive:original.meta.attr.comment.markup">Rendered with Manim Community v0.17.3</property>
  <property name="kdenlive:original.seekable">1</property>
  <property name="kdenlive:original.width">1920</property>
  <property name="kdenlive:original.height">1080</property>
  <property name="kdenlive:original.meta.media.sample_aspect_num">1</property>
  <property name="kdenlive:original.meta.media.sample_aspect_den">1</property>
  <property name="kdenlive:original.format">3</property>
  <property name="kdenlive:original.audio_index">-1</property>
  <property name="kdenlive:original.video_index">0</property>
  <property name="kdenlive:original.meta.media.frame_rate_num">60</property>
  <property name="kdenlive:original.meta.media.frame_rate_den">1</property>
  <property name="kdenlive:original.meta.media.colorspace">709</property>
  <property name="kdenlive:original.meta.media.color_trc">2</property>
  <property name="kdenlive:original.meta.media.has_b_frames">2</property>
  <property name="kdenlive:original.meta.media.width">1920</property>
  <property name="kdenlive:original.meta.media.height">1080</property>
  <property name="kdenlive:original.meta.media.color_range">mpeg</property>
  <property name="kdenlive:original.meta.media.top_field_first">0</property>
  <property name="kdenlive:original.meta.media.progressive">1</property>
  <property name="kdenlive:original.kdenlive:clip_type">2</property>
  <property name="kdenlive:original.kdenlive:folderid">4</property>
  <property name="kdenlive:original.kdenlive:id">10</property>
  <property name="kdenlive:original.mute_on_pause">0</property>
  <property name="kdenlive:original.kdenlive:file_size">1041714</property>
  <property name="kdenlive:original.kdenlive:file_hash">2c0ca5692d92c8b430ec64f1b62de66a</property>
  <property name="kdenlive:original.backup">1</property>
  <property name="meta.media.top_field_first">0</property>
  <property name="meta.media.progressive">1</property>
 </chain>
 <chain id="chain61" out="00:00:02.983">
  <property name="length">180</property>
  <property name="eof">pause</property>
  <property name="resource">/home/xiaoxiae/.cache/kdenlive/proxy/f35a1873b6d9648ca3c87902681fec57.mkv</property>
  <property name="mlt_service">avformat-novalidate</property>
  <property name="meta.media.nb_streams">1</property>
  <property name="meta.media.0.stream.type">video</property>
  <property name="meta.media.0.stream.frame_rate">60</property>
  <property name="meta.media.0.stream.sample_aspect_ratio">0</property>
  <property name="meta.media.0.codec.width">640</property>
  <property name="meta.media.0.codec.height">360</property>
  <property name="meta.media.0.codec.rotate">0</property>
  <property name="meta.media.0.codec.pix_fmt">yuvj444p</property>
  <property name="meta.media.0.codec.sample_aspect_ratio">0</property>
  <property name="meta.media.0.codec.colorspace">601</property>
  <property name="meta.media.0.codec.name">mjpeg</property>
  <property name="meta.media.0.codec.long_name">MJPEG (Motion JPEG)</property>
  <property name="meta.media.0.codec.bit_rate">0</property>
  <property name="meta.attr.0.stream.HANDLER_NAME.markup">VideoHandler</property>
  <property name="meta.attr.0.stream.VENDOR_ID.markup">FFMP</property>
  <property name="meta.attr.0.stream.ENCODER.markup">Lavc60.3.100 mjpeg</property>
  <property name="meta.attr.0.stream.DURATION.markup">00:00:03.000000000</property>
  <property name="meta.attr.COMMENT.markup">Rendered with Manim Community v0.17.3</property>
  <property name="meta.attr.MAJOR_BRAND.markup">qt  </property>
  <property name="meta.attr.MINOR_VERSION.markup">512</property>
  <property name="meta.attr.COMPATIBLE_BRANDS.markup">qt  </property>
  <property name="meta.attr.ENCODER.markup">Lavf60.3.100</property>
  <property name="seekable">1</property>
  <property name="meta.media.sample_aspect_num">1</property>
  <property name="meta.media.sample_aspect_den">1</property>
  <property name="format">3</property>
  <property name="audio_index">-1</property>
  <property name="video_index">0</property>
  <property name="meta.media.frame_rate_num">60</property>
  <property name="meta.media.frame_rate_den">1</property>
  <property name="meta.media.colorspace">601</property>
  <property name="meta.media.color_trc">2</property>
  <property name="meta.media.has_b_frames">0</property>
  <property name="meta.media.width">640</property>
  <property name="meta.media.height">360</property>
  <property name="meta.media.color_range">full</property>
  <property name="kdenlive:clipname">TransparentBinaryHint.mov</property>
  <property name="kdenlive:clip_type">2</property>
  <property name="kdenlive:folderid">4</property>
  <property name="kdenlive:id">11</property>
  <property name="mute_on_pause">0</property>
  <property name="kdenlive:file_size">9265074</property>
  <property name="kdenlive:file_hash">f35a1873b6d9648ca3c87902681fec57</property>
  <property name="kdenlive:proxy">/home/xiaoxiae/.cache/kdenlive/proxy/f35a1873b6d9648ca3c87902681fec57.mkv</property>
  <property name="kdenlive:originalurl">video/TransparentBinaryHint.mov</property>
  <property name="kdenlive:original.mlt_type">chain</property>
  <property name="kdenlive:original.in">0</property>
  <property name="kdenlive:original.out">00:00:02.983</property>
  <property name="kdenlive:original.length">180</property>
  <property name="kdenlive:original.eof">pause</property>
  <property name="kdenlive:original.resource">video/TransparentBinaryHint.mov</property>
  <property name="kdenlive:original.mlt_service">avformat-novalidate</property>
  <property name="kdenlive:original.meta.media.nb_streams">1</property>
  <property name="kdenlive:original.meta.media.0.stream.type">video</property>
  <property name="kdenlive:original.meta.media.0.stream.frame_rate">60</property>
  <property name="kdenlive:original.meta.media.0.stream.sample_aspect_ratio">0</property>
  <property name="kdenlive:original.meta.media.0.codec.width">1920</property>
  <property name="kdenlive:original.meta.media.0.codec.height">1080</property>
  <property name="kdenlive:original.meta.media.0.codec.rotate">0</property>
  <property name="kdenlive:original.meta.media.0.codec.pix_fmt">argb</property>
  <property name="kdenlive:original.meta.media.0.codec.sample_aspect_ratio">0</property>
  <property name="kdenlive:original.meta.media.0.codec.colorspace">709</property>
  <property name="kdenlive:original.meta.media.0.codec.name">qtrle</property>
  <property name="kdenlive:original.meta.media.0.codec.long_name">QuickTime Animation (RLE) video</property>
  <property name="kdenlive:original.meta.media.0.codec.bit_rate">24702226</property>
  <property name="kdenlive:original.meta.attr.0.stream.handler_name.markup">VideoHandler</property>
  <property name="kdenlive:original.meta.attr.0.stream.vendor_id.markup">FFMP</property>
  <property name="kdenlive:original.meta.attr.0.stream.encoder.markup">Lavc60.3.100 qtrle</property>
  <property name="kdenlive:original.meta.attr.major_brand.markup">qt  </property>
  <property name="kdenlive:original.meta.attr.minor_version.markup">512</property>
  <property name="kdenlive:original.meta.attr.compatible_brands.markup">qt  </property>
  <property name="kdenlive:original.meta.attr.encoder.markup">Lavf60.3.100</property>
  <property name="kdenlive:original.meta.attr.comment.markup">Rendered with Manim Community v0.17.3</property>
  <property name="kdenlive:original.seekable">1</property>
  <property name="kdenlive:original.width">1920</property>
  <property name="kdenlive:original.height">1080</property>
  <property name="kdenlive:original.meta.media.sample_aspect_num">1</property>
  <property name="kdenlive:original.meta.media.sample_aspect_den">1</property>
  <property name="kdenlive:original.format">2</property>
  <property name="kdenlive:original.audio_index">-1</property>
  <property name="kdenlive:original.video_index">0</property>
  <property name="kdenlive:original.meta.media.frame_rate_num">60</property>
  <property name="kdenlive:original.meta.media.frame_rate_den">1</property>
  <property name="kdenlive:original.meta.media.colorspace">709</property>
  <property name="kdenlive:original.meta.media.color_trc">2</property>
  <property name="kdenlive:original.meta.media.has_b_frames">0</property>
  <property name="kdenlive:original.meta.media.width">1920</property>
  <property name="kdenlive:original.meta.media.height">1080</property>
  <property name="kdenlive:original.meta.media.color_range">mpeg</property>
  <property name="kdenlive:original.meta.media.top_field_first">0</property>
  <property name="kdenlive:original.meta.media.progressive">1</property>
  <property name="kdenlive:original.kdenlive:clip_type">2</property>
  <property name="kdenlive:original.kdenlive:folderid">4</property>
  <property name="kdenlive:original.kdenlive:id">11</property>
  <property name="kdenlive:original.mute_on_pause">0</property>
  <property name="kdenlive:original.kdenlive:file_size">9265074</property>
  <property name="kdenlive:original.kdenlive:file_hash">f35a1873b6d9648ca3c87902681fec57</property>
  <property name="kdenlive:original.backup">1</property>
  <property name="meta.media.top_field_first">0</property>
  <property name="meta.media.progressive">1</property>
 </chain>
 <chain id="chain62" out="00:00:07.483">
  <property name="length">450</property>
  <property name="eof">pause</property>
  <property name="resource">/home/xiaoxiae/.cache/kdenlive/proxy/9109121e56b26557ded669a75b29a440.mkv</property>
  <property name="mlt_service">avformat-novalidate</property>
  <property name="meta.media.nb_streams">1</property>
  <property name="meta.media.0.stream.type">video</property>
  <property name="meta.media.0.stream.frame_rate">60</property>
  <property name="meta.media.0.stream.sample_aspect_ratio">0</property>
  <property name="meta.media.0.codec.width">640</property>
  <property name="meta.media.0.codec.height">360</property>
  <property name="meta.media.0.codec.rotate">0</property>
  <property name="meta.media.0.codec.pix_fmt">yuvj444p</property>
  <property name="meta.media.0.codec.sample_aspect_ratio">0</property>
  <property name="meta.media.0.codec.colorspace">601</property>
  <property name="meta.media.0.codec.name">mjpeg</property>
  <property name="meta.media.0.codec.long_name">MJPEG (Motion JPEG)</property>
  <property name="meta.media.0.codec.bit_rate">0</property>
  <property name="meta.attr.0.stream.HANDLER_NAME.markup">VideoHandler</property>
  <property name="meta.attr.0.stream.VENDOR_ID.markup">FFMP</property>
  <property name="meta.attr.0.stream.ENCODER.markup">Lavc60.3.100 mjpeg</property>
  <property name="meta.attr.0.stream.DURATION.markup">00:00:07.500000000</property>
  <property name="meta.attr.COMMENT.markup">Rendered with Manim Community v0.17.3</property>
  <property name="meta.attr.MAJOR_BRAND.markup">qt  </property>
  <property name="meta.attr.MINOR_VERSION.markup">512</property>
  <property name="meta.attr.COMPATIBLE_BRANDS.markup">qt  </property>
  <property name="meta.attr.ENCODER.markup">Lavf60.3.100</property>
  <property name="seekable">1</property>
  <property name="meta.media.sample_aspect_num">1</property>
  <property name="meta.media.sample_aspect_den">1</property>
  <property name="format">3</property>
  <property name="audio_index">-1</property>
  <property name="video_index">0</property>
  <property name="meta.media.frame_rate_num">60</property>
  <property name="meta.media.frame_rate_den">1</property>
  <property name="meta.media.colorspace">601</property>
  <property name="meta.media.color_trc">2</property>
  <property name="meta.media.has_b_frames">0</property>
  <property name="meta.media.width">640</property>
  <property name="meta.media.height">360</property>
  <property name="meta.media.color_range">full</property>
  <property name="kdenlive:clipname">TransparentFunnyXD.mov</property>
  <property name="kdenlive:clip_type">2</property>
  <property name="kdenlive:folderid">4</property>
  <property name="kdenlive:id">12</property>
  <property name="mute_on_pause">0</property>
  <property name="kdenlive:file_size">22706573</property>
  <property name="kdenlive:file_hash">9109121e56b26557ded669a75b29a440</property>
  <property name="kdenlive:proxy">/home/xiaoxiae/.cache/kdenlive/proxy/9109121e56b26557ded669a75b29a440.mkv</property>
  <property name="kdenlive:originalurl">video/TransparentFunnyXD.mov</property>
  <property name="kdenlive:original.mlt_type">chain</property>
  <property name="kdenlive:original.in">0</property>
  <property name="kdenlive:original.out">00:00:07.483</property>
  <property name="kdenlive:original.length">450</property>
  <property name="kdenlive:original.eof">pause</property>
  <property name="kdenlive:original.resource">video/TransparentFunnyXD.mov</property>
  <property name="kdenlive:original.mlt_service">avformat-novalidate</property>
  <property name="kdenlive:original.meta.media.nb_streams">1</property>
  <property name="kdenlive:original.meta.media.0.stream.type">video</property>
  <property name="kdenlive:original.meta.media.0.stream.frame_rate">60</property>
  <property name="kdenlive:original.meta.media.0.stream.sample_aspect_ratio">0</property>
  <property name="kdenlive:original.meta.media.0.codec.width">1920</property>
  <property name="kdenlive:original.meta.media.0.codec.height">1080</property>
  <property name="kdenlive:original.meta.media.0.codec.rotate">0</property>
  <property name="kdenlive:original.meta.media.0.codec.pix_fmt">argb</property>
  <property name="kdenlive:original.meta.media.0.codec.sample_aspect_ratio">0</property>
  <property name="kdenlive:original.meta.media.0.codec.colorspace">709</property>
  <property name="kdenlive:original.meta.media.0.codec.name">qtrle</property>
  <property name="kdenlive:original.meta.media.0.codec.long_name">QuickTime Animation (RLE) video</property>
  <property name="kdenlive:original.meta.media.0.codec.bit_rate">24217017</property>
  <property name="kdenlive:original.meta.attr.0.stream.handler_name.markup">VideoHandler</property>
  <property name="kdenlive:original.meta.attr.0.stream.vendor_id.markup">FFMP</property>
  <property name="kdenlive:original.meta.attr.0.stream.encoder.markup">Lavc60.3.100 qtrle</property>
  <property name="kdenlive:original.meta.attr.major_brand.markup">qt  </property>
  <property name="kdenlive:original.meta.attr.minor_version.markup">512</property>
  <property name="kdenlive:original.meta.attr.compatible_brands.markup">qt  </property>
  <property name="kdenlive:original.meta.attr.encoder.markup">Lavf60.3.100</property>
  <property name="kdenlive:original.meta.attr.comment.markup">Rendered with Manim Community v0.17.3</property>
  <property name="kdenlive:original.seekable">1</property>
  <property name="kdenlive:original.width">1920</property>
  <property name="kdenlive:original.height">1080</property>
  <property name="kdenlive:original.meta.media.sample_aspect_num">1</property>
  <property name="kdenlive:original.meta.media.sample_aspect_den">1</property>
  <property name="kdenlive:original.format">2</property>
  <property name="kdenlive:original.audio_index">-1</property>
  <property name="kdenlive:original.video_index">0</property>
  <property name="kdenlive:original.meta.media.frame_rate_num">60</property>
  <property name="kdenlive:original.meta.media.frame_rate_den">1</property>
  <property name="kdenlive:original.meta.media.colorspace">709</property>
  <property name="kdenlive:original.meta.media.color_trc">2</property>
  <property name="kdenlive:original.meta.media.has_b_frames">0</property>
  <property name="kdenlive:original.meta.media.width">1920</property>
  <property name="kdenlive:original.meta.media.height">1080</property>
  <property name="kdenlive:original.meta.media.color_range">mpeg</property>
  <property name="kdenlive:original.meta.media.top_field_first">0</property>
  <property name="kdenlive:original.meta.media.progressive">1</property>
  <property name="kdenlive:original.kdenlive:clip_type">2</property>
  <property name="kdenlive:original.kdenlive:folderid">4</property>
  <property name="kdenlive:original.kdenlive:id">12</property>
  <property name="kdenlive:original.mute_on_pause">0</property>
  <property name="kdenlive:original.kdenlive:file_size">22706573</property>
  <property name="kdenlive:original.kdenlive:file_hash">9109121e56b26557ded669a75b29a440</property>
  <property name="kdenlive:original.backup">1</property>
  <property name="meta.media.top_field_first">0</property>
  <property name="meta.media.progressive">1</property>
 </chain>
 <chain id="chain60" out="00:00:04.983">
  <property name="length">300</property>
  <property name="eof">pause</property>
  <property name="resource">/home/xiaoxiae/.cache/kdenlive/proxy/c9191b940e2b1bd458791f0b13823181.mkv</property>
  <property name="mlt_service">avformat-novalidate</property>
  <property name="meta.media.nb_streams">1</property>
  <property name="meta.media.0.stream.type">video</property>
  <property name="meta.media.0.stream.frame_rate">60</property>
  <property name="meta.media.0.stream.sample_aspect_ratio">0</property>
  <property name="meta.media.0.codec.width">640</property>
  <property name="meta.media.0.codec.height">360</property>
  <property name="meta.media.0.codec.rotate">0</property>
  <property name="meta.media.0.codec.pix_fmt">yuvj444p</property>
  <property name="meta.media.0.codec.sample_aspect_ratio">0</property>
  <property name="meta.media.0.codec.colorspace">601</property>
  <property name="meta.media.0.codec.name">mjpeg</property>
  <property name="meta.media.0.codec.long_name">MJPEG (Motion JPEG)</property>
  <property name="meta.media.0.codec.bit_rate">0</property>
  <property name="meta.attr.0.stream.HANDLER_NAME.markup">VideoHandler</property>
  <property name="meta.attr.0.stream.VENDOR_ID.markup">FFMP</property>
  <property name="meta.attr.0.stream.ENCODER.markup">Lavc60.3.100 mjpeg</property>
  <property name="meta.attr.0.stream.DURATION.markup">00:00:05.000000000</property>
  <property name="meta.attr.COMMENT.markup">Rendered with Manim Community v0.17.3</property>
  <property name="meta.attr.MAJOR_BRAND.markup">qt  </property>
  <property name="meta.attr.MINOR_VERSION.markup">512</property>
  <property name="meta.attr.COMPATIBLE_BRANDS.markup">qt  </property>
  <property name="meta.attr.ENCODER.markup">Lavf60.3.100</property>
  <property name="seekable">1</property>
  <property name="meta.media.sample_aspect_num">1</property>
  <property name="meta.media.sample_aspect_den">1</property>
  <property name="format">3</property>
  <property name="audio_index">-1</property>
  <property name="video_index">0</property>
  <property name="meta.media.frame_rate_num">60</property>
  <property name="meta.media.frame_rate_den">1</property>
  <property name="meta.media.colorspace">601</property>
  <property name="meta.media.color_trc">2</property>
  <property name="meta.media.has_b_frames">0</property>
  <property name="meta.media.width">640</property>
  <property name="meta.media.height">360</property>
  <property name="meta.media.color_range">full</property>
  <property name="kdenlive:clipname">TransparentPause.mov</property>
  <property name="kdenlive:clip_type">2</property>
  <property name="kdenlive:folderid">4</property>
  <property name="kdenlive:id">13</property>
  <property name="mute_on_pause">0</property>
  <property name="kdenlive:file_size">4297548</property>
  <property name="kdenlive:file_hash">c9191b940e2b1bd458791f0b13823181</property>
  <property name="kdenlive:proxy">/home/xiaoxiae/.cache/kdenlive/proxy/c9191b940e2b1bd458791f0b13823181.mkv</property>
  <property name="kdenlive:originalurl">video/TransparentPause.mov</property>
  <property name="kdenlive:original.mlt_type">chain</property>
  <property name="kdenlive:original.in">0</property>
  <property name="kdenlive:original.out">00:00:04.983</property>
  <property name="kdenlive:original.length">300</property>
  <property name="kdenlive:original.eof">pause</property>
  <property name="kdenlive:original.resource">video/TransparentPause.mov</property>
  <property name="kdenlive:original.mlt_service">avformat-novalidate</property>
  <property name="kdenlive:original.meta.media.nb_streams">1</property>
  <property name="kdenlive:original.meta.media.0.stream.type">video</property>
  <property name="kdenlive:original.meta.media.0.stream.frame_rate">60</property>
  <property name="kdenlive:original.meta.media.0.stream.sample_aspect_ratio">0</property>
  <property name="kdenlive:original.meta.media.0.codec.width">1920</property>
  <property name="kdenlive:original.meta.media.0.codec.height">1080</property>
  <property name="kdenlive:original.meta.media.0.codec.rotate">0</property>
  <property name="kdenlive:original.meta.media.0.codec.pix_fmt">argb</property>
  <property name="kdenlive:original.meta.media.0.codec.sample_aspect_ratio">0</property>
  <property name="kdenlive:original.meta.media.0.codec.colorspace">709</property>
  <property name="kdenlive:original.meta.media.0.codec.name">qtrle</property>
  <property name="kdenlive:original.meta.media.0.codec.long_name">QuickTime Animation (RLE) video</property>
  <property name="kdenlive:original.meta.media.0.codec.bit_rate">6872609</property>
  <property name="kdenlive:original.meta.attr.0.stream.handler_name.markup">VideoHandler</property>
  <property name="kdenlive:original.meta.attr.0.stream.vendor_id.markup">FFMP</property>
  <property name="kdenlive:original.meta.attr.0.stream.encoder.markup">Lavc60.3.100 qtrle</property>
  <property name="kdenlive:original.meta.attr.major_brand.markup">qt  </property>
  <property name="kdenlive:original.meta.attr.minor_version.markup">512</property>
  <property name="kdenlive:original.meta.attr.compatible_brands.markup">qt  </property>
  <property name="kdenlive:original.meta.attr.encoder.markup">Lavf60.3.100</property>
  <property name="kdenlive:original.meta.attr.comment.markup">Rendered with Manim Community v0.17.3</property>
  <property name="kdenlive:original.seekable">1</property>
  <property name="kdenlive:original.width">1920</property>
  <property name="kdenlive:original.height">1080</property>
  <property name="kdenlive:original.meta.media.sample_aspect_num">1</property>
  <property name="kdenlive:original.meta.media.sample_aspect_den">1</property>
  <property name="kdenlive:original.format">2</property>
  <property name="kdenlive:original.audio_index">-1</property>
  <property name="kdenlive:original.video_index">0</property>
  <property name="kdenlive:original.meta.media.frame_rate_num">60</property>
  <property name="kdenlive:original.meta.media.frame_rate_den">1</property>
  <property name="kdenlive:original.meta.media.colorspace">709</property>
  <property name="kdenlive:original.meta.media.color_trc">2</property>
  <property name="kdenlive:original.meta.media.has_b_frames">0</property>
  <property name="kdenlive:original.meta.media.width">1920</property>
  <property name="kdenlive:original.meta.media.height">1080</property>
  <property name="kdenlive:original.meta.media.color_range">mpeg</property>
  <property name="kdenlive:original.meta.media.top_field_first">0</property>
  <property name="kdenlive:original.meta.media.progressive">1</property>
  <property name="kdenlive:original.kdenlive:clip_type">2</property>
  <property name="kdenlive:original.kdenlive:folderid">4</property>
  <property name="kdenlive:original.kdenlive:id">13</property>
  <property name="kdenlive:original.mute_on_pause">0</property>
  <property name="kdenlive:original.kdenlive:file_size">4297548</property>
  <property name="kdenlive:original.kdenlive:file_hash">c9191b940e2b1bd458791f0b13823181</property>
  <property name="kdenlive:original.backup">1</property>
  <property name="meta.media.top_field_first">0</property>
  <property name="meta.media.progressive">1</property>
 </chain>
 <chain id="chain58" out="00:00:07.983">
  <property name="length">480</property>
  <property name="eof">pause</property>
  <property name="resource">/home/xiaoxiae/.cache/kdenlive/proxy/fb4c2f044ac6fb6e7faf79d17fe45934.mkv</property>
  <property name="mlt_service">avformat-novalidate</property>
  <property name="meta.media.nb_streams">1</property>
  <property name="meta.media.0.stream.type">video</property>
  <property name="meta.media.0.stream.frame_rate">60</property>
  <property name="meta.media.0.stream.sample_aspect_ratio">0</property>
  <property name="meta.media.0.codec.width">640</property>
  <property name="meta.media.0.codec.height">360</property>
  <property name="meta.media.0.codec.rotate">0</property>
  <property name="meta.media.0.codec.pix_fmt">yuvj444p</property>
  <property name="meta.media.0.codec.sample_aspect_ratio">0</property>
  <property name="meta.media.0.codec.colorspace">601</property>
  <property name="meta.media.0.codec.name">mjpeg</property>
  <property name="meta.media.0.codec.long_name">MJPEG (Motion JPEG)</property>
  <property name="meta.media.0.codec.bit_rate">0</property>
  <property name="meta.attr.0.stream.HANDLER_NAME.markup">VideoHandler</property>
  <property name="meta.attr.0.stream.VENDOR_ID.markup">FFMP</property>
  <property name="meta.attr.0.stream.ENCODER.markup">Lavc60.3.100 mjpeg</property>
  <property name="meta.attr.0.stream.DURATION.markup">00:00:08.000000000</property>
  <property name="meta.attr.COMMENT.markup">Rendered with Manim Community v0.17.3</property>
  <property name="meta.attr.MAJOR_BRAND.markup">qt  </property>
  <property name="meta.attr.MINOR_VERSION.markup">512</property>
  <property name="meta.attr.COMPATIBLE_BRANDS.markup">qt  </property>
  <property name="meta.attr.ENCODER.markup">Lavf60.3.100</property>
  <property name="seekable">1</property>
  <property name="meta.media.sample_aspect_num">1</property>
  <property name="meta.media.sample_aspect_den">1</property>
  <property name="format">3</property>
  <property name="audio_index">-1</property>
  <property name="video_index">0</property>
  <property name="meta.media.frame_rate_num">60</property>
  <property name="meta.media.frame_rate_den">1</property>
  <property name="meta.media.colorspace">601</property>
  <property name="meta.media.color_trc">2</property>
  <property name="meta.media.has_b_frames">0</property>
  <property name="meta.media.width">640</property>
  <property name="meta.media.height">360</property>
  <property name="meta.media.color_range">full</property>
  <property name="kdenlive:clipname">TransparentPauseWithHint.mov</property>
  <property name="kdenlive:clip_type">2</property>
  <property name="kdenlive:folderid">4</property>
  <property name="kdenlive:id">14</property>
  <property name="mute_on_pause">0</property>
  <property name="kdenlive:file_size">7109875</property>
  <property name="kdenlive:file_hash">fb4c2f044ac6fb6e7faf79d17fe45934</property>
  <property name="kdenlive:proxy">/home/xiaoxiae/.cache/kdenlive/proxy/fb4c2f044ac6fb6e7faf79d17fe45934.mkv</property>
  <property name="kdenlive:originalurl">video/TransparentPauseWithHint.mov</property>
  <property name="kdenlive:original.mlt_type">chain</property>
  <property name="kdenlive:original.in">0</property>
  <property name="kdenlive:original.out">00:00:07.983</property>
  <property name="kdenlive:original.length">480</property>
  <property name="kdenlive:original.eof">pause</property>
  <property name="kdenlive:original.resource">video/TransparentPauseWithHint.mov</property>
  <property name="kdenlive:original.mlt_service">avformat-novalidate</property>
  <property name="kdenlive:original.meta.media.nb_streams">1</property>
  <property name="kdenlive:original.meta.media.0.stream.type">video</property>
  <property name="kdenlive:original.meta.media.0.stream.frame_rate">60</property>
  <property name="kdenlive:original.meta.media.0.stream.sample_aspect_ratio">0</property>
  <property name="kdenlive:original.meta.media.0.codec.width">1920</property>
  <property name="kdenlive:original.meta.media.0.codec.height">1080</property>
  <property name="kdenlive:original.meta.media.0.codec.rotate">0</property>
  <property name="kdenlive:original.meta.media.0.codec.pix_fmt">argb</property>
  <property name="kdenlive:original.meta.media.0.codec.sample_aspect_ratio">0</property>
  <property name="kdenlive:original.meta.media.0.codec.colorspace">709</property>
  <property name="kdenlive:original.meta.media.0.codec.name">qtrle</property>
  <property name="kdenlive:original.meta.media.0.codec.long_name">QuickTime Animation (RLE) video</property>
  <property name="kdenlive:original.meta.media.0.codec.bit_rate">7106884</property>
  <property name="kdenlive:original.meta.attr.0.stream.handler_name.markup">VideoHandler</property>
  <property name="kdenlive:original.meta.attr.0.stream.vendor_id.markup">FFMP</property>
  <property name="kdenlive:original.meta.attr.0.stream.encoder.markup">Lavc60.3.100 qtrle</property>
  <property name="kdenlive:original.meta.attr.major_brand.markup">qt  </property>
  <property name="kdenlive:original.meta.attr.minor_version.markup">512</property>
  <property name="kdenlive:original.meta.attr.compatible_brands.markup">qt  </property>
  <property name="kdenlive:original.meta.attr.encoder.markup">Lavf60.3.100</property>
  <property name="kdenlive:original.meta.attr.comment.markup">Rendered with Manim Community v0.17.3</property>
  <property name="kdenlive:original.seekable">1</property>
  <property name="kdenlive:original.width">1920</property>
  <property name="kdenlive:original.height">1080</property>
  <property name="kdenlive:original.meta.media.sample_aspect_num">1</property>
  <property name="kdenlive:original.meta.media.sample_aspect_den">1</property>
  <property name="kdenlive:original.format">2</property>
  <property name="kdenlive:original.audio_index">-1</property>
  <property name="kdenlive:original.video_index">0</property>
  <property name="kdenlive:original.meta.media.frame_rate_num">60</property>
  <property name="kdenlive:original.meta.media.frame_rate_den">1</property>
  <property name="kdenlive:original.meta.media.colorspace">709</property>
  <property name="kdenlive:original.meta.media.color_trc">2</property>
  <property name="kdenlive:original.meta.media.has_b_frames">0</property>
  <property name="kdenlive:original.meta.media.width">1920</property>
  <property name="kdenlive:original.meta.media.height">1080</property>
  <property name="kdenlive:original.meta.media.color_range">mpeg</property>
  <property name="kdenlive:original.meta.media.top_field_first">0</property>
  <property name="kdenlive:original.meta.media.progressive">1</property>
  <property name="kdenlive:original.kdenlive:clip_type">2</property>
  <property name="kdenlive:original.kdenlive:folderid">4</property>
  <property name="kdenlive:original.kdenlive:id">14</property>
  <property name="kdenlive:original.mute_on_pause">0</property>
  <property name="kdenlive:original.kdenlive:file_size">7109875</property>
  <property name="kdenlive:original.kdenlive:file_hash">fb4c2f044ac6fb6e7faf79d17fe45934</property>
  <property name="kdenlive:original.backup">1</property>
  <property name="meta.media.top_field_first">0</property>
  <property name="meta.media.progressive">1</property>
 </chain>
 <chain id="chain59" out="00:00:10.983">
  <property name="length">660</property>
  <property name="eof">pause</property>
  <property name="resource">/home/xiaoxiae/.cache/kdenlive/proxy/aea0b9ebb1891aee23da9b9208212ceb.mkv</property>
  <property name="mlt_service">avformat-novalidate</property>
  <property name="meta.media.nb_streams">1</property>
  <property name="meta.media.0.stream.type">video</property>
  <property name="meta.media.0.stream.frame_rate">60</property>
  <property name="meta.media.0.stream.sample_aspect_ratio">0</property>
  <property name="meta.media.0.codec.width">640</property>
  <property name="meta.media.0.codec.height">360</property>
  <property name="meta.media.0.codec.rotate">0</property>
  <property name="meta.media.0.codec.pix_fmt">yuvj444p</property>
  <property name="meta.media.0.codec.sample_aspect_ratio">0</property>
  <property name="meta.media.0.codec.colorspace">601</property>
  <property name="meta.media.0.codec.name">mjpeg</property>
  <property name="meta.media.0.codec.long_name">MJPEG (Motion JPEG)</property>
  <property name="meta.media.0.codec.bit_rate">0</property>
  <property name="meta.attr.0.stream.HANDLER_NAME.markup">VideoHandler</property>
  <property name="meta.attr.0.stream.VENDOR_ID.markup">FFMP</property>
  <property name="meta.attr.0.stream.ENCODER.markup">Lavc60.3.100 mjpeg</property>
  <property name="meta.attr.0.stream.DURATION.markup">00:00:11.000000000</property>
  <property name="meta.attr.COMMENT.markup">Rendered with Manim Community v0.17.3</property>
  <property name="meta.attr.MAJOR_BRAND.markup">qt  </property>
  <property name="meta.attr.MINOR_VERSION.markup">512</property>
  <property name="meta.attr.COMPATIBLE_BRANDS.markup">qt  </property>
  <property name="meta.attr.ENCODER.markup">Lavf60.3.100</property>
  <property name="seekable">1</property>
  <property name="meta.media.sample_aspect_num">1</property>
  <property name="meta.media.sample_aspect_den">1</property>
  <property name="format">3</property>
  <property name="audio_index">-1</property>
  <property name="video_index">0</property>
  <property name="meta.media.frame_rate_num">60</property>
  <property name="meta.media.frame_rate_den">1</property>
  <property name="meta.media.colorspace">601</property>
  <property name="meta.media.color_trc">2</property>
  <property name="meta.media.has_b_frames">0</property>
  <property name="meta.media.width">640</property>
  <property name="meta.media.height">360</property>
  <property name="meta.media.color_range">full</property>
  <property name="kdenlive:clipname">TransparentSilhouettes.mov</property>
  <property name="kdenlive:clip_type">2</property>
  <property name="kdenlive:folderid">4</property>
  <property name="kdenlive:id">15</property>
  <property name="mute_on_pause">0</property>
  <property name="kdenlive:file_size">95883523</property>
  <property name="kdenlive:file_hash">aea0b9ebb1891aee23da9b9208212ceb</property>
  <property name="kdenlive:proxy">/home/xiaoxiae/.cache/kdenlive/proxy/aea0b9ebb1891aee23da9b9208212ceb.mkv</property>
  <property name="kdenlive:originalurl">video/TransparentSilhouettes.mov</property>
  <property name="kdenlive:original.mlt_type">chain</property>
  <property name="kdenlive:original.in">0</property>
  <property name="kdenlive:original.out">00:00:10.983</property>
  <property name="kdenlive:original.length">660</property>
  <property name="kdenlive:original.eof">pause</property>
  <property name="kdenlive:original.resource">video/TransparentSilhouettes.mov</property>
  <property name="kdenlive:original.mlt_service">avformat-novalidate</property>
  <property name="kdenlive:original.meta.media.nb_streams">1</property>
  <property name="kdenlive:original.meta.media.0.stream.type">video</property>
  <property name="kdenlive:original.meta.media.0.stream.frame_rate">60</property>
  <property name="kdenlive:original.meta.media.0.stream.sample_aspect_ratio">0</property>
  <property name="kdenlive:original.meta.media.0.codec.width">1920</property>
  <property name="kdenlive:original.meta.media.0.codec.height">1080</property>
  <property name="kdenlive:original.meta.media.0.codec.rotate">0</property>
  <property name="kdenlive:original.meta.media.0.codec.pix_fmt">argb</property>
  <property name="kdenlive:original.meta.media.0.codec.sample_aspect_ratio">0</property>
  <property name="kdenlive:original.meta.media.0.codec.colorspace">709</property>
  <property name="kdenlive:original.meta.media.0.codec.name">qtrle</property>
  <property name="kdenlive:original.meta.media.0.codec.long_name">QuickTime Animation (RLE) video</property>
  <property name="kdenlive:original.meta.media.0.codec.bit_rate">69730094</property>
  <property name="kdenlive:original.meta.attr.0.stream.handler_name.markup">VideoHandler</property>
  <property name="kdenlive:original.meta.attr.0.stream.vendor_id.markup">FFMP</property>
  <property name="kdenlive:original.meta.attr.0.stream.encoder.markup">Lavc60.3.100 qtrle</property>
  <property name="kdenlive:original.meta.attr.major_brand.markup">qt  </property>
  <property name="kdenlive:original.meta.attr.minor_version.markup">512</property>
  <property name="kdenlive:original.meta.attr.compatible_brands.markup">qt  </property>
  <property name="kdenlive:original.meta.attr.encoder.markup">Lavf60.3.100</property>
  <property name="kdenlive:original.meta.attr.comment.markup">Rendered with Manim Community v0.17.3</property>
  <property name="kdenlive:original.seekable">1</property>
  <property name="kdenlive:original.width">1920</property>
  <property name="kdenlive:original.height">1080</property>
  <property name="kdenlive:original.meta.media.sample_aspect_num">1</property>
  <property name="kdenlive:original.meta.media.sample_aspect_den">1</property>
  <property name="kdenlive:original.format">2</property>
  <property name="kdenlive:original.audio_index">-1</property>
  <property name="kdenlive:original.video_index">0</property>
  <property name="kdenlive:original.meta.media.frame_rate_num">60</property>
  <property name="kdenlive:original.meta.media.frame_rate_den">1</property>
  <property name="kdenlive:original.meta.media.colorspace">709</property>
  <property name="kdenlive:original.meta.media.color_trc">2</property>
  <property name="kdenlive:original.meta.media.has_b_frames">0</property>
  <property name="kdenlive:original.meta.media.width">1920</property>
  <property name="kdenlive:original.meta.media.height">1080</property>
  <property name="kdenlive:original.meta.media.color_range">mpeg</property>
  <property name="kdenlive:original.meta.media.top_field_first">0</property>
  <property name="kdenlive:original.meta.media.progressive">1</property>
  <property name="kdenlive:original.kdenlive:clip_type">2</property>
  <property name="kdenlive:original.kdenlive:folderid">4</property>
  <property name="kdenlive:original.kdenlive:id">15</property>
  <property name="kdenlive:original.mute_on_pause">0</property>
  <property name="kdenlive:original.kdenlive:file_size">95883523</property>
  <property name="kdenlive:original.kdenlive:file_hash">aea0b9ebb1891aee23da9b9208212ceb</property>
  <property name="kdenlive:original.backup">1</property>
  <property name="meta.media.top_field_first">0</property>
  <property name="meta.media.progressive">1</property>
 </chain>
 <chain id="chain430" out="00:00:01.983">
  <property name="length">120</property>
  <property name="eof">pause</property>
  <property name="resource">/home/xiaoxiae/.cache/kdenlive/proxy/53f83c6369e0ef23bb1984db70e8ee30.mkv</property>
  <property name="mlt_service">avformat-novalidate</property>
  <property name="meta.media.nb_streams">1</property>
  <property name="meta.media.0.stream.type">video</property>
  <property name="meta.media.0.stream.frame_rate">60</property>
  <property name="meta.media.0.stream.sample_aspect_ratio">0</property>
  <property name="meta.media.0.codec.width">640</property>
  <property name="meta.media.0.codec.height">360</property>
  <property name="meta.media.0.codec.rotate">0</property>
  <property name="meta.media.0.codec.pix_fmt">yuvj420p</property>
  <property name="meta.media.0.codec.sample_aspect_ratio">0</property>
  <property name="meta.media.0.codec.colorspace">601</property>
  <property name="meta.media.0.codec.name">mjpeg</property>
  <property name="meta.media.0.codec.long_name">MJPEG (Motion JPEG)</property>
  <property name="meta.media.0.codec.bit_rate">0</property>
  <property name="meta.attr.0.stream.HANDLER_NAME.markup">VideoHandler</property>
  <property name="meta.attr.0.stream.VENDOR_ID.markup">[0][0][0][0]</property>
  <property name="meta.attr.0.stream.ENCODER.markup">Lavc60.3.100 mjpeg</property>
  <property name="meta.attr.0.stream.DURATION.markup">00:00:02.000000000</property>
  <property name="meta.attr.COMMENT.markup">Rendered with Manim Community v0.17.3</property>
  <property name="meta.attr.MAJOR_BRAND.markup">isom</property>
  <property name="meta.attr.MINOR_VERSION.markup">512</property>
  <property name="meta.attr.COMPATIBLE_BRANDS.markup">isomiso2avc1mp41</property>
  <property name="meta.attr.ENCODER.markup">Lavf60.3.100</property>
  <property name="seekable">1</property>
  <property name="meta.media.sample_aspect_num">1</property>
  <property name="meta.media.sample_aspect_den">1</property>
  <property name="format">3</property>
  <property name="audio_index">-1</property>
  <property name="video_index">0</property>
  <property name="meta.media.frame_rate_num">60</property>
  <property name="meta.media.frame_rate_den">1</property>
  <property name="meta.media.colorspace">601</property>
  <property name="meta.media.color_trc">2</property>
  <property name="meta.media.has_b_frames">0</property>
  <property name="meta.media.width">640</property>
  <property name="meta.media.height">360</property>
  <property name="meta.media.color_range">full</property>
  <property name="kdenlive:clipname">1.mp4</property>
  <property name="kdenlive:clip_type">2</property>
  <property name="kdenlive:folderid">16</property>
  <property name="kdenlive:id">17</property>
  <property name="mute_on_pause">0</property>
  <property name="kdenlive:file_size">157181</property>
  <property name="kdenlive:file_hash">53f83c6369e0ef23bb1984db70e8ee30</property>
  <property name="kdenlive:proxy">/home/xiaoxiae/.cache/kdenlive/proxy/53f83c6369e0ef23bb1984db70e8ee30.mkv</property>
  <property name="kdenlive:originalurl">video/Farmer/1.mp4</property>
  <property name="kdenlive:original.mlt_type">chain</property>
  <property name="kdenlive:original.in">0</property>
  <property name="kdenlive:original.out">00:00:01.983</property>
  <property name="kdenlive:original.length">120</property>
  <property name="kdenlive:original.eof">pause</property>
  <property name="kdenlive:original.resource">video/Farmer/1.mp4</property>
  <property name="kdenlive:original.mlt_service">avformat-novalidate</property>
  <property name="kdenlive:original.meta.media.nb_streams">1</property>
  <property name="kdenlive:original.meta.media.0.stream.type">video</property>
  <property name="kdenlive:original.meta.media.0.stream.frame_rate">60</property>
  <property name="kdenlive:original.meta.media.0.stream.sample_aspect_ratio">0</property>
  <property name="kdenlive:original.meta.media.0.codec.width">1920</property>
  <property name="kdenlive:original.meta.media.0.codec.height">1080</property>
  <property name="kdenlive:original.meta.media.0.codec.rotate">0</property>
  <property name="kdenlive:original.meta.media.0.codec.pix_fmt">yuv420p</property>
  <property name="kdenlive:original.meta.media.0.codec.sample_aspect_ratio">0</property>
  <property name="kdenlive:original.meta.media.0.codec.colorspace">709</property>
  <property name="kdenlive:original.meta.media.0.codec.name">h264</property>
  <property name="kdenlive:original.meta.media.0.codec.long_name">H.264 / AVC / MPEG-4 AVC / MPEG-4 part 10</property>
  <property name="kdenlive:original.meta.media.0.codec.bit_rate">620084</property>
  <property name="kdenlive:original.meta.attr.0.stream.handler_name.markup">VideoHandler</property>
  <property name="kdenlive:original.meta.attr.0.stream.vendor_id.markup">[0][0][0][0]</property>
  <property name="kdenlive:original.meta.attr.0.stream.encoder.markup">Lavc60.3.100 libx264</property>
  <property name="kdenlive:original.meta.attr.major_brand.markup">isom</property>
  <property name="kdenlive:original.meta.attr.minor_version.markup">512</property>
  <property name="kdenlive:original.meta.attr.compatible_brands.markup">isomiso2avc1mp41</property>
  <property name="kdenlive:original.meta.attr.encoder.markup">Lavf60.3.100</property>
  <property name="kdenlive:original.meta.attr.comment.markup">Rendered with Manim Community v0.17.3</property>
  <property name="kdenlive:original.seekable">1</property>
  <property name="kdenlive:original.width">1920</property>
  <property name="kdenlive:original.height">1080</property>
  <property name="kdenlive:original.meta.media.sample_aspect_num">1</property>
  <property name="kdenlive:original.meta.media.sample_aspect_den">1</property>
  <property name="kdenlive:original.format">3</property>
  <property name="kdenlive:original.audio_index">-1</property>
  <property name="kdenlive:original.video_index">0</property>
  <property name="kdenlive:original.meta.media.frame_rate_num">60</property>
  <property name="kdenlive:original.meta.media.frame_rate_den">1</property>
  <property name="kdenlive:original.meta.media.colorspace">709</property>
  <property name="kdenlive:original.meta.media.color_trc">2</property>
  <property name="kdenlive:original.meta.media.has_b_frames">2</property>
  <property name="kdenlive:original.meta.media.width">1920</property>
  <property name="kdenlive:original.meta.media.height">1080</property>
  <property name="kdenlive:original.meta.media.color_range">mpeg</property>
  <property name="kdenlive:original.meta.media.top_field_first">0</property>
  <property name="kdenlive:original.meta.media.progressive">1</property>
  <property name="kdenlive:original.kdenlive:clip_type">2</property>
  <property name="kdenlive:original.kdenlive:folderid">16</property>
  <property name="kdenlive:original.kdenlive:id">17</property>
  <property name="kdenlive:original.mute_on_pause">0</property>
  <property name="kdenlive:original.kdenlive:file_size">157181</property>
  <property name="kdenlive:original.kdenlive:file_hash">53f83c6369e0ef23bb1984db70e8ee30</property>
  <property name="kdenlive:original.backup">1</property>
  <property name="meta.media.top_field_first">0</property>
  <property name="meta.media.progressive">1</property>
 </chain>
 <chain id="chain414" out="00:00:00.983">
  <property name="length">60</property>
  <property name="eof">pause</property>
  <property name="resource">/home/xiaoxiae/.cache/kdenlive/proxy/b0a05d607053013a4b9b4077127952bc.mkv</property>
  <property name="mlt_service">avformat-novalidate</property>
  <property name="meta.media.nb_streams">1</property>
  <property name="meta.media.0.stream.type">video</property>
  <property name="meta.media.0.stream.frame_rate">60</property>
  <property name="meta.media.0.stream.sample_aspect_ratio">0</property>
  <property name="meta.media.0.codec.width">640</property>
  <property name="meta.media.0.codec.height">360</property>
  <property name="meta.media.0.codec.rotate">0</property>
  <property name="meta.media.0.codec.pix_fmt">yuvj420p</property>
  <property name="meta.media.0.codec.sample_aspect_ratio">0</property>
  <property name="meta.media.0.codec.colorspace">601</property>
  <property name="meta.media.0.codec.name">mjpeg</property>
  <property name="meta.media.0.codec.long_name">MJPEG (Motion JPEG)</property>
  <property name="meta.media.0.codec.bit_rate">0</property>
  <property name="meta.attr.0.stream.HANDLER_NAME.markup">VideoHandler</property>
  <property name="meta.attr.0.stream.VENDOR_ID.markup">[0][0][0][0]</property>
  <property name="meta.attr.0.stream.ENCODER.markup">Lavc60.3.100 mjpeg</property>
  <property name="meta.attr.0.stream.DURATION.markup">00:00:01.000000000</property>
  <property name="meta.attr.COMMENT.markup">Rendered with Manim Community v0.17.3</property>
  <property name="meta.attr.MAJOR_BRAND.markup">isom</property>
  <property name="meta.attr.MINOR_VERSION.markup">512</property>
  <property name="meta.attr.COMPATIBLE_BRANDS.markup">isomiso2avc1mp41</property>
  <property name="meta.attr.ENCODER.markup">Lavf60.3.100</property>
  <property name="seekable">1</property>
  <property name="meta.media.sample_aspect_num">1</property>
  <property name="meta.media.sample_aspect_den">1</property>
  <property name="format">3</property>
  <property name="audio_index">-1</property>
  <property name="video_index">0</property>
  <property name="meta.media.frame_rate_num">60</property>
  <property name="meta.media.frame_rate_den">1</property>
  <property name="meta.media.colorspace">601</property>
  <property name="meta.media.color_trc">2</property>
  <property name="meta.media.has_b_frames">0</property>
  <property name="meta.media.width">640</property>
  <property name="meta.media.height">360</property>
  <property name="meta.media.color_range">full</property>
  <property name="kdenlive:clipname">10.mp4</property>
  <property name="kdenlive:clip_type">2</property>
  <property name="kdenlive:folderid">16</property>
  <property name="kdenlive:id">18</property>
  <property name="mute_on_pause">0</property>
  <property name="kdenlive:file_size">332879</property>
  <property name="kdenlive:file_hash">b0a05d607053013a4b9b4077127952bc</property>
  <property name="kdenlive:proxy">/home/xiaoxiae/.cache/kdenlive/proxy/b0a05d607053013a4b9b4077127952bc.mkv</property>
  <property name="kdenlive:originalurl">video/Farmer/10.mp4</property>
  <property name="kdenlive:original.mlt_type">chain</property>
  <property name="kdenlive:original.in">0</property>
  <property name="kdenlive:original.out">00:00:00.983</property>
  <property name="kdenlive:original.length">60</property>
  <property name="kdenlive:original.eof">pause</property>
  <property name="kdenlive:original.resource">video/Farmer/10.mp4</property>
  <property name="kdenlive:original.mlt_service">avformat-novalidate</property>
  <property name="kdenlive:original.meta.media.nb_streams">1</property>
  <property name="kdenlive:original.meta.media.0.stream.type">video</property>
  <property name="kdenlive:original.meta.media.0.stream.frame_rate">60</property>
  <property name="kdenlive:original.meta.media.0.stream.sample_aspect_ratio">0</property>
  <property name="kdenlive:original.meta.media.0.codec.width">1920</property>
  <property name="kdenlive:original.meta.media.0.codec.height">1080</property>
  <property name="kdenlive:original.meta.media.0.codec.rotate">0</property>
  <property name="kdenlive:original.meta.media.0.codec.pix_fmt">yuv420p</property>
  <property name="kdenlive:original.meta.media.0.codec.sample_aspect_ratio">0</property>
  <property name="kdenlive:original.meta.media.0.codec.colorspace">709</property>
  <property name="kdenlive:original.meta.media.0.codec.name">h264</property>
  <property name="kdenlive:original.meta.media.0.codec.long_name">H.264 / AVC / MPEG-4 AVC / MPEG-4 part 10</property>
  <property name="kdenlive:original.meta.media.0.codec.bit_rate">2651704</property>
  <property name="kdenlive:original.meta.attr.0.stream.handler_name.markup">VideoHandler</property>
  <property name="kdenlive:original.meta.attr.0.stream.vendor_id.markup">[0][0][0][0]</property>
  <property name="kdenlive:original.meta.attr.0.stream.encoder.markup">Lavc60.3.100 libx264</property>
  <property name="kdenlive:original.meta.attr.major_brand.markup">isom</property>
  <property name="kdenlive:original.meta.attr.minor_version.markup">512</property>
  <property name="kdenlive:original.meta.attr.compatible_brands.markup">isomiso2avc1mp41</property>
  <property name="kdenlive:original.meta.attr.encoder.markup">Lavf60.3.100</property>
  <property name="kdenlive:original.meta.attr.comment.markup">Rendered with Manim Community v0.17.3</property>
  <property name="kdenlive:original.seekable">1</property>
  <property name="kdenlive:original.width">1920</property>
  <property name="kdenlive:original.height">1080</property>
  <property name="kdenlive:original.meta.media.sample_aspect_num">1</property>
  <property name="kdenlive:original.meta.media.sample_aspect_den">1</property>
  <property name="kdenlive:original.format">3</property>
  <property name="kdenlive:original.audio_index">-1</property>
  <property name="kdenlive:original.video_index">0</property>
  <property name="kdenlive:original.meta.media.frame_rate_num">60</property>
  <property name="kdenlive:original.meta.media.frame_rate_den">1</property>
  <property name="kdenlive:original.meta.media.colorspace">709</property>
  <property name="kdenlive:original.meta.media.color_trc">2</property>
  <property name="kdenlive:original.meta.media.has_b_frames">2</property>
  <property name="kdenlive:original.meta.media.width">1920</property>
  <property name="kdenlive:original.meta.media.height">1080</property>
  <property name="kdenlive:original.meta.media.color_range">mpeg</property>
  <property name="kdenlive:original.meta.media.top_field_first">0</property>
  <property name="kdenlive:original.meta.media.progressive">1</property>
  <property name="kdenlive:original.kdenlive:clip_type">2</property>
  <property name="kdenlive:original.kdenlive:folderid">16</property>
  <property name="kdenlive:original.kdenlive:id">18</property>
  <property name="kdenlive:original.mute_on_pause">0</property>
  <property name="kdenlive:original.kdenlive:file_size">332879</property>
  <property name="kdenlive:original.kdenlive:file_hash">b0a05d607053013a4b9b4077127952bc</property>
  <property name="kdenlive:original.backup">1</property>
  <property name="meta.media.top_field_first">0</property>
  <property name="meta.media.progressive">1</property>
 </chain>
 <chain id="chain260" out="00:00:00.983">
  <property name="length">60</property>
  <property name="eof">pause</property>
  <property name="resource">/home/xiaoxiae/.cache/kdenlive/proxy/2f0b8cf2d35fe72fec16c2385474143f.mkv</property>
  <property name="mlt_service">avformat-novalidate</property>
  <property name="meta.media.nb_streams">1</property>
  <property name="meta.media.0.stream.type">video</property>
  <property name="meta.media.0.stream.frame_rate">60</property>
  <property name="meta.media.0.stream.sample_aspect_ratio">0</property>
  <property name="meta.media.0.codec.width">640</property>
  <property name="meta.media.0.codec.height">360</property>
  <property name="meta.media.0.codec.rotate">0</property>
  <property name="meta.media.0.codec.pix_fmt">yuvj420p</property>
  <property name="meta.media.0.codec.sample_aspect_ratio">0</property>
  <property name="meta.media.0.codec.colorspace">601</property>
  <property name="meta.media.0.codec.name">mjpeg</property>
  <property name="meta.media.0.codec.long_name">MJPEG (Motion JPEG)</property>
  <property name="meta.media.0.codec.bit_rate">0</property>
  <property name="meta.attr.0.stream.HANDLER_NAME.markup">VideoHandler</property>
  <property name="meta.attr.0.stream.VENDOR_ID.markup">[0][0][0][0]</property>
  <property name="meta.attr.0.stream.ENCODER.markup">Lavc60.3.100 mjpeg</property>
  <property name="meta.attr.0.stream.DURATION.markup">00:00:01.000000000</property>
  <property name="meta.attr.COMMENT.markup">Rendered with Manim Community v0.17.3</property>
  <property name="meta.attr.MAJOR_BRAND.markup">isom</property>
  <property name="meta.attr.MINOR_VERSION.markup">512</property>
  <property name="meta.attr.COMPATIBLE_BRANDS.markup">isomiso2avc1mp41</property>
  <property name="meta.attr.ENCODER.markup">Lavf60.3.100</property>
  <property name="seekable">1</property>
  <property name="meta.media.sample_aspect_num">1</property>
  <property name="meta.media.sample_aspect_den">1</property>
  <property name="format">3</property>
  <property name="audio_index">-1</property>
  <property name="video_index">0</property>
  <property name="meta.media.frame_rate_num">60</property>
  <property name="meta.media.frame_rate_den">1</property>
  <property name="meta.media.colorspace">601</property>
  <property name="meta.media.color_trc">2</property>
  <property name="meta.media.has_b_frames">0</property>
  <property name="meta.media.width">640</property>
  <property name="meta.media.height">360</property>
  <property name="meta.media.color_range">full</property>
  <property name="kdenlive:clipname">100.mp4</property>
  <property name="kdenlive:clip_type">2</property>
  <property name="kdenlive:folderid">16</property>
  <property name="kdenlive:id">19</property>
  <property name="mute_on_pause">0</property>
  <property name="kdenlive:file_size">80413</property>
  <property name="kdenlive:file_hash">2f0b8cf2d35fe72fec16c2385474143f</property>
  <property name="kdenlive:proxy">/home/xiaoxiae/.cache/kdenlive/proxy/2f0b8cf2d35fe72fec16c2385474143f.mkv</property>
  <property name="kdenlive:originalurl">video/Farmer/100.mp4</property>
  <property name="kdenlive:original.mlt_type">chain</property>
  <property name="kdenlive:original.in">0</property>
  <property name="kdenlive:original.out">00:00:00.983</property>
  <property name="kdenlive:original.length">60</property>
  <property name="kdenlive:original.eof">pause</property>
  <property name="kdenlive:original.resource">video/Farmer/100.mp4</property>
  <property name="kdenlive:original.mlt_service">avformat-novalidate</property>
  <property name="kdenlive:original.meta.media.nb_streams">1</property>
  <property name="kdenlive:original.meta.media.0.stream.type">video</property>
  <property name="kdenlive:original.meta.media.0.stream.frame_rate">60</property>
  <property name="kdenlive:original.meta.media.0.stream.sample_aspect_ratio">0</property>
  <property name="kdenlive:original.meta.media.0.codec.width">1920</property>
  <property name="kdenlive:original.meta.media.0.codec.height">1080</property>
  <property name="kdenlive:original.meta.media.0.codec.rotate">0</property>
  <property name="kdenlive:original.meta.media.0.codec.pix_fmt">yuv420p</property>
  <property name="kdenlive:original.meta.media.0.codec.sample_aspect_ratio">0</property>
  <property name="kdenlive:original.meta.media.0.codec.colorspace">709</property>
  <property name="kdenlive:original.meta.media.0.codec.name">h264</property>
  <property name="kdenlive:original.meta.media.0.codec.long_name">H.264 / AVC / MPEG-4 AVC / MPEG-4 part 10</property>
  <property name="kdenlive:original.meta.media.0.codec.bit_rate">630440</property>
  <property name="kdenlive:original.meta.attr.0.stream.handler_name.markup">VideoHandler</property>
  <property name="kdenlive:original.meta.attr.0.stream.vendor_id.markup">[0][0][0][0]</property>
  <property name="kdenlive:original.meta.attr.0.stream.encoder.markup">Lavc60.3.100 libx264</property>
  <property name="kdenlive:original.meta.attr.major_brand.markup">isom</property>
  <property name="kdenlive:original.meta.attr.minor_version.markup">512</property>
  <property name="kdenlive:original.meta.attr.compatible_brands.markup">isomiso2avc1mp41</property>
  <property name="kdenlive:original.meta.attr.encoder.markup">Lavf60.3.100</property>
  <property name="kdenlive:original.meta.attr.comment.markup">Rendered with Manim Community v0.17.3</property>
  <property name="kdenlive:original.seekable">1</property>
  <property name="kdenlive:original.width">1920</property>
  <property name="kdenlive:original.height">1080</property>
  <property name="kdenlive:original.meta.media.sample_aspect_num">1</property>
  <property name="kdenlive:original.meta.media.sample_aspect_den">1</property>
  <property name="kdenlive:original.format">3</property>
  <property name="kdenlive:original.audio_index">-1</property>
  <property name="kdenlive:original.video_index">0</property>
  <property name="kdenlive:original.meta.media.frame_rate_num">60</property>
  <property name="kdenlive:original.meta.media.frame_rate_den">1</property>
  <property name="kdenlive:original.meta.media.colorspace">709</property>
  <property name="kdenlive:original.meta.media.color_trc">2</property>
  <property name="kdenlive:original.meta.media.has_b_frames">2</property>
  <property name="kdenlive:original.meta.media.width">1920</property>
  <property name="kdenlive:original.meta.media.height">1080</property>
  <property name="kdenlive:original.meta.media.color_range">mpeg</property>
  <property name="kdenlive:original.meta.media.top_field_first">0</property>
  <property name="kdenlive:original.meta.media.progressive">1</property>
  <property name="kdenlive:original.kdenlive:clip_type">2</property>
  <property name="kdenlive:original.kdenlive:folderid">16</property>
  <property name="kdenlive:original.kdenlive:id">19</property>
  <property name="kdenlive:original.mute_on_pause">0</property>
  <property name="kdenlive:original.kdenlive:file_size">80413</property>
  <property name="kdenlive:original.kdenlive:file_hash">2f0b8cf2d35fe72fec16c2385474143f</property>
  <property name="kdenlive:original.backup">1</property>
  <property name="meta.media.top_field_first">0</property>
  <property name="meta.media.progressive">1</property>
 </chain>
 <chain id="chain257" out="00:00:00.983">
  <property name="length">60</property>
  <property name="eof">pause</property>
  <property name="resource">/home/xiaoxiae/.cache/kdenlive/proxy/f3ba0c245cb03d316ec3a26105fb0181.mkv</property>
  <property name="mlt_service">avformat-novalidate</property>
  <property name="meta.media.nb_streams">1</property>
  <property name="meta.media.0.stream.type">video</property>
  <property name="meta.media.0.stream.frame_rate">60</property>
  <property name="meta.media.0.stream.sample_aspect_ratio">0</property>
  <property name="meta.media.0.codec.width">640</property>
  <property name="meta.media.0.codec.height">360</property>
  <property name="meta.media.0.codec.rotate">0</property>
  <property name="meta.media.0.codec.pix_fmt">yuvj420p</property>
  <property name="meta.media.0.codec.sample_aspect_ratio">0</property>
  <property name="meta.media.0.codec.colorspace">601</property>
  <property name="meta.media.0.codec.name">mjpeg</property>
  <property name="meta.media.0.codec.long_name">MJPEG (Motion JPEG)</property>
  <property name="meta.media.0.codec.bit_rate">0</property>
  <property name="meta.attr.0.stream.HANDLER_NAME.markup">VideoHandler</property>
  <property name="meta.attr.0.stream.VENDOR_ID.markup">[0][0][0][0]</property>
  <property name="meta.attr.0.stream.ENCODER.markup">Lavc60.3.100 mjpeg</property>
  <property name="meta.attr.0.stream.DURATION.markup">00:00:01.000000000</property>
  <property name="meta.attr.COMMENT.markup">Rendered with Manim Community v0.17.3</property>
  <property name="meta.attr.MAJOR_BRAND.markup">isom</property>
  <property name="meta.attr.MINOR_VERSION.markup">512</property>
  <property name="meta.attr.COMPATIBLE_BRANDS.markup">isomiso2avc1mp41</property>
  <property name="meta.attr.ENCODER.markup">Lavf60.3.100</property>
  <property name="seekable">1</property>
  <property name="meta.media.sample_aspect_num">1</property>
  <property name="meta.media.sample_aspect_den">1</property>
  <property name="format">3</property>
  <property name="audio_index">-1</property>
  <property name="video_index">0</property>
  <property name="meta.media.frame_rate_num">60</property>
  <property name="meta.media.frame_rate_den">1</property>
  <property name="meta.media.colorspace">601</property>
  <property name="meta.media.color_trc">2</property>
  <property name="meta.media.has_b_frames">0</property>
  <property name="meta.media.width">640</property>
  <property name="meta.media.height">360</property>
  <property name="meta.media.color_range">full</property>
  <property name="kdenlive:clipname">101.mp4</property>
  <property name="kdenlive:clip_type">2</property>
  <property name="kdenlive:folderid">16</property>
  <property name="kdenlive:id">20</property>
  <property name="mute_on_pause">0</property>
  <property name="kdenlive:file_size">76260</property>
  <property name="kdenlive:file_hash">f3ba0c245cb03d316ec3a26105fb0181</property>
  <property name="kdenlive:proxy">/home/xiaoxiae/.cache/kdenlive/proxy/f3ba0c245cb03d316ec3a26105fb0181.mkv</property>
  <property name="kdenlive:originalurl">video/Farmer/101.mp4</property>
  <property name="kdenlive:original.mlt_type">chain</property>
  <property name="kdenlive:original.in">0</property>
  <property name="kdenlive:original.out">00:00:00.983</property>
  <property name="kdenlive:original.length">60</property>
  <property name="kdenlive:original.eof">pause</property>
  <property name="kdenlive:original.resource">video/Farmer/101.mp4</property>
  <property name="kdenlive:original.mlt_service">avformat-novalidate</property>
  <property name="kdenlive:original.meta.media.nb_streams">1</property>
  <property name="kdenlive:original.meta.media.0.stream.type">video</property>
  <property name="kdenlive:original.meta.media.0.stream.frame_rate">60</property>
  <property name="kdenlive:original.meta.media.0.stream.sample_aspect_ratio">0</property>
  <property name="kdenlive:original.meta.media.0.codec.width">1920</property>
  <property name="kdenlive:original.meta.media.0.codec.height">1080</property>
  <property name="kdenlive:original.meta.media.0.codec.rotate">0</property>
  <property name="kdenlive:original.meta.media.0.codec.pix_fmt">yuv420p</property>
  <property name="kdenlive:original.meta.media.0.codec.sample_aspect_ratio">0</property>
  <property name="kdenlive:original.meta.media.0.codec.colorspace">709</property>
  <property name="kdenlive:original.meta.media.0.codec.name">h264</property>
  <property name="kdenlive:original.meta.media.0.codec.long_name">H.264 / AVC / MPEG-4 AVC / MPEG-4 part 10</property>
  <property name="kdenlive:original.meta.media.0.codec.bit_rate">597024</property>
  <property name="kdenlive:original.meta.attr.0.stream.handler_name.markup">VideoHandler</property>
  <property name="kdenlive:original.meta.attr.0.stream.vendor_id.markup">[0][0][0][0]</property>
  <property name="kdenlive:original.meta.attr.0.stream.encoder.markup">Lavc60.3.100 libx264</property>
  <property name="kdenlive:original.meta.attr.major_brand.markup">isom</property>
  <property name="kdenlive:original.meta.attr.minor_version.markup">512</property>
  <property name="kdenlive:original.meta.attr.compatible_brands.markup">isomiso2avc1mp41</property>
  <property name="kdenlive:original.meta.attr.encoder.markup">Lavf60.3.100</property>
  <property name="kdenlive:original.meta.attr.comment.markup">Rendered with Manim Community v0.17.3</property>
  <property name="kdenlive:original.seekable">1</property>
  <property name="kdenlive:original.width">1920</property>
  <property name="kdenlive:original.height">1080</property>
  <property name="kdenlive:original.meta.media.sample_aspect_num">1</property>
  <property name="kdenlive:original.meta.media.sample_aspect_den">1</property>
  <property name="kdenlive:original.format">3</property>
  <property name="kdenlive:original.audio_index">-1</property>
  <property name="kdenlive:original.video_index">0</property>
  <property name="kdenlive:original.meta.media.frame_rate_num">60</property>
  <property name="kdenlive:original.meta.media.frame_rate_den">1</property>
  <property name="kdenlive:original.meta.media.colorspace">709</property>
  <property name="kdenlive:original.meta.media.color_trc">2</property>
  <property name="kdenlive:original.meta.media.has_b_frames">2</property>
  <property name="kdenlive:original.meta.media.width">1920</property>
  <property name="kdenlive:original.meta.media.height">1080</property>
  <property name="kdenlive:original.meta.media.color_range">mpeg</property>
  <property name="kdenlive:original.meta.media.top_field_first">0</property>
  <property name="kdenlive:original.meta.media.progressive">1</property>
  <property name="kdenlive:original.kdenlive:clip_type">2</property>
  <property name="kdenlive:original.kdenlive:folderid">16</property>
  <property name="kdenlive:original.kdenlive:id">20</property>
  <property name="kdenlive:original.mute_on_pause">0</property>
  <property name="kdenlive:original.kdenlive:file_size">76260</property>
  <property name="kdenlive:original.kdenlive:file_hash">f3ba0c245cb03d316ec3a26105fb0181</property>
  <property name="kdenlive:original.backup">1</property>
  <property name="meta.media.top_field_first">0</property>
  <property name="meta.media.progressive">1</property>
 </chain>
 <chain id="chain258" out="00:00:01.983">
  <property name="length">120</property>
  <property name="eof">pause</property>
  <property name="resource">/home/xiaoxiae/.cache/kdenlive/proxy/27019fd975a4d83cbeb08765c6ad8796.mkv</property>
  <property name="mlt_service">avformat-novalidate</property>
  <property name="meta.media.nb_streams">1</property>
  <property name="meta.media.0.stream.type">video</property>
  <property name="meta.media.0.stream.frame_rate">60</property>
  <property name="meta.media.0.stream.sample_aspect_ratio">0</property>
  <property name="meta.media.0.codec.width">640</property>
  <property name="meta.media.0.codec.height">360</property>
  <property name="meta.media.0.codec.rotate">0</property>
  <property name="meta.media.0.codec.pix_fmt">yuvj420p</property>
  <property name="meta.media.0.codec.sample_aspect_ratio">0</property>
  <property name="meta.media.0.codec.colorspace">601</property>
  <property name="meta.media.0.codec.name">mjpeg</property>
  <property name="meta.media.0.codec.long_name">MJPEG (Motion JPEG)</property>
  <property name="meta.media.0.codec.bit_rate">0</property>
  <property name="meta.attr.0.stream.HANDLER_NAME.markup">VideoHandler</property>
  <property name="meta.attr.0.stream.VENDOR_ID.markup">[0][0][0][0]</property>
  <property name="meta.attr.0.stream.ENCODER.markup">Lavc60.3.100 mjpeg</property>
  <property name="meta.attr.0.stream.DURATION.markup">00:00:02.000000000</property>
  <property name="meta.attr.COMMENT.markup">Rendered with Manim Community v0.17.3</property>
  <property name="meta.attr.MAJOR_BRAND.markup">isom</property>
  <property name="meta.attr.MINOR_VERSION.markup">512</property>
  <property name="meta.attr.COMPATIBLE_BRANDS.markup">isomiso2avc1mp41</property>
  <property name="meta.attr.ENCODER.markup">Lavf60.3.100</property>
  <property name="seekable">1</property>
  <property name="meta.media.sample_aspect_num">1</property>
  <property name="meta.media.sample_aspect_den">1</property>
  <property name="format">3</property>
  <property name="audio_index">-1</property>
  <property name="video_index">0</property>
  <property name="meta.media.frame_rate_num">60</property>
  <property name="meta.media.frame_rate_den">1</property>
  <property name="meta.media.colorspace">601</property>
  <property name="meta.media.color_trc">2</property>
  <property name="meta.media.has_b_frames">0</property>
  <property name="meta.media.width">640</property>
  <property name="meta.media.height">360</property>
  <property name="meta.media.color_range">full</property>
  <property name="kdenlive:clipname">102.mp4</property>
  <property name="kdenlive:clip_type">2</property>
  <property name="kdenlive:folderid">16</property>
  <property name="kdenlive:id">21</property>
  <property name="mute_on_pause">0</property>
  <property name="kdenlive:file_size">85481</property>
  <property name="kdenlive:file_hash">27019fd975a4d83cbeb08765c6ad8796</property>
  <property name="kdenlive:proxy">/home/xiaoxiae/.cache/kdenlive/proxy/27019fd975a4d83cbeb08765c6ad8796.mkv</property>
  <property name="kdenlive:originalurl">video/Farmer/102.mp4</property>
  <property name="kdenlive:original.mlt_type">chain</property>
  <property name="kdenlive:original.in">0</property>
  <property name="kdenlive:original.out">00:00:01.983</property>
  <property name="kdenlive:original.length">120</property>
  <property name="kdenlive:original.eof">pause</property>
  <property name="kdenlive:original.resource">video/Farmer/102.mp4</property>
  <property name="kdenlive:original.mlt_service">avformat-novalidate</property>
  <property name="kdenlive:original.meta.media.nb_streams">1</property>
  <property name="kdenlive:original.meta.media.0.stream.type">video</property>
  <property name="kdenlive:original.meta.media.0.stream.frame_rate">60</property>
  <property name="kdenlive:original.meta.media.0.stream.sample_aspect_ratio">0</property>
  <property name="kdenlive:original.meta.media.0.codec.width">1920</property>
  <property name="kdenlive:original.meta.media.0.codec.height">1080</property>
  <property name="kdenlive:original.meta.media.0.codec.rotate">0</property>
  <property name="kdenlive:original.meta.media.0.codec.pix_fmt">yuv420p</property>
  <property name="kdenlive:original.meta.media.0.codec.sample_aspect_ratio">0</property>
  <property name="kdenlive:original.meta.media.0.codec.colorspace">709</property>
  <property name="kdenlive:original.meta.media.0.codec.name">h264</property>
  <property name="kdenlive:original.meta.media.0.codec.long_name">H.264 / AVC / MPEG-4 AVC / MPEG-4 part 10</property>
  <property name="kdenlive:original.meta.media.0.codec.bit_rate">333124</property>
  <property name="kdenlive:original.meta.attr.0.stream.handler_name.markup">VideoHandler</property>
  <property name="kdenlive:original.meta.attr.0.stream.vendor_id.markup">[0][0][0][0]</property>
  <property name="kdenlive:original.meta.attr.0.stream.encoder.markup">Lavc60.3.100 libx264</property>
  <property name="kdenlive:original.meta.attr.major_brand.markup">isom</property>
  <property name="kdenlive:original.meta.attr.minor_version.markup">512</property>
  <property name="kdenlive:original.meta.attr.compatible_brands.markup">isomiso2avc1mp41</property>
  <property name="kdenlive:original.meta.attr.encoder.markup">Lavf60.3.100</property>
  <property name="kdenlive:original.meta.attr.comment.markup">Rendered with Manim Community v0.17.3</property>
  <property name="kdenlive:original.seekable">1</property>
  <property name="kdenlive:original.width">1920</property>
  <property name="kdenlive:original.height">1080</property>
  <property name="kdenlive:original.meta.media.sample_aspect_num">1</property>
  <property name="kdenlive:original.meta.media.sample_aspect_den">1</property>
  <property name="kdenlive:original.format">3</property>
  <property name="kdenlive:original.audio_index">-1</property>
  <property name="kdenlive:original.video_index">0</property>
  <property name="kdenlive:original.meta.media.frame_rate_num">60</property>
  <property name="kdenlive:original.meta.media.frame_rate_den">1</property>
  <property name="kdenlive:original.meta.media.colorspace">709</property>
  <property name="kdenlive:original.meta.media.color_trc">2</property>
  <property name="kdenlive:original.meta.media.has_b_frames">2</property>
  <property name="kdenlive:original.meta.media.width">1920</property>
  <property name="kdenlive:original.meta.media.height">1080</property>
  <property name="kdenlive:original.meta.media.color_range">mpeg</property>
  <property name="kdenlive:original.meta.media.top_field_first">0</property>
  <property name="kdenlive:original.meta.media.progressive">1</property>
  <property name="kdenlive:original.kdenlive:clip_type">2</property>
  <property name="kdenlive:original.kdenlive:folderid">16</property>
  <property name="kdenlive:original.kdenlive:id">21</property>
  <property name="kdenlive:original.mute_on_pause">0</property>
  <property name="kdenlive:original.kdenlive:file_size">85481</property>
  <property name="kdenlive:original.kdenlive:file_hash">27019fd975a4d83cbeb08765c6ad8796</property>
  <property name="kdenlive:original.backup">1</property>
  <property name="meta.media.top_field_first">0</property>
  <property name="meta.media.progressive">1</property>
 </chain>
 <chain id="chain255" out="00:00:02.983">
  <property name="length">180</property>
  <property name="eof">pause</property>
  <property name="resource">/home/xiaoxiae/.cache/kdenlive/proxy/9361e53aa754cfa27979975abfe38470.mkv</property>
  <property name="mlt_service">avformat-novalidate</property>
  <property name="meta.media.nb_streams">1</property>
  <property name="meta.media.0.stream.type">video</property>
  <property name="meta.media.0.stream.frame_rate">60</property>
  <property name="meta.media.0.stream.sample_aspect_ratio">0</property>
  <property name="meta.media.0.codec.width">640</property>
  <property name="meta.media.0.codec.height">360</property>
  <property name="meta.media.0.codec.rotate">0</property>
  <property name="meta.media.0.codec.pix_fmt">yuvj420p</property>
  <property name="meta.media.0.codec.sample_aspect_ratio">0</property>
  <property name="meta.media.0.codec.colorspace">601</property>
  <property name="meta.media.0.codec.name">mjpeg</property>
  <property name="meta.media.0.codec.long_name">MJPEG (Motion JPEG)</property>
  <property name="meta.media.0.codec.bit_rate">0</property>
  <property name="meta.attr.0.stream.HANDLER_NAME.markup">VideoHandler</property>
  <property name="meta.attr.0.stream.VENDOR_ID.markup">[0][0][0][0]</property>
  <property name="meta.attr.0.stream.ENCODER.markup">Lavc60.3.100 mjpeg</property>
  <property name="meta.attr.0.stream.DURATION.markup">00:00:03.000000000</property>
  <property name="meta.attr.COMMENT.markup">Rendered with Manim Community v0.17.3</property>
  <property name="meta.attr.MAJOR_BRAND.markup">isom</property>
  <property name="meta.attr.MINOR_VERSION.markup">512</property>
  <property name="meta.attr.COMPATIBLE_BRANDS.markup">isomiso2avc1mp41</property>
  <property name="meta.attr.ENCODER.markup">Lavf60.3.100</property>
  <property name="seekable">1</property>
  <property name="meta.media.sample_aspect_num">1</property>
  <property name="meta.media.sample_aspect_den">1</property>
  <property name="format">3</property>
  <property name="audio_index">-1</property>
  <property name="video_index">0</property>
  <property name="meta.media.frame_rate_num">60</property>
  <property name="meta.media.frame_rate_den">1</property>
  <property name="meta.media.colorspace">601</property>
  <property name="meta.media.color_trc">2</property>
  <property name="meta.media.has_b_frames">0</property>
  <property name="meta.media.width">640</property>
  <property name="meta.media.height">360</property>
  <property name="meta.media.color_range">full</property>
  <property name="kdenlive:clipname">103.mp4</property>
  <property name="kdenlive:clip_type">2</property>
  <property name="kdenlive:folderid">16</property>
  <property name="kdenlive:id">22</property>
  <property name="mute_on_pause">0</property>
  <property name="kdenlive:file_size">245380</property>
  <property name="kdenlive:file_hash">9361e53aa754cfa27979975abfe38470</property>
  <property name="kdenlive:proxy">/home/xiaoxiae/.cache/kdenlive/proxy/9361e53aa754cfa27979975abfe38470.mkv</property>
  <property name="kdenlive:originalurl">video/Farmer/103.mp4</property>
  <property name="kdenlive:original.mlt_type">chain</property>
  <property name="kdenlive:original.in">0</property>
  <property name="kdenlive:original.out">00:00:02.983</property>
  <property name="kdenlive:original.length">180</property>
  <property name="kdenlive:original.eof">pause</property>
  <property name="kdenlive:original.resource">video/Farmer/103.mp4</property>
  <property name="kdenlive:original.mlt_service">avformat-novalidate</property>
  <property name="kdenlive:original.meta.media.nb_streams">1</property>
  <property name="kdenlive:original.meta.media.0.stream.type">video</property>
  <property name="kdenlive:original.meta.media.0.stream.frame_rate">60</property>
  <property name="kdenlive:original.meta.media.0.stream.sample_aspect_ratio">0</property>
  <property name="kdenlive:original.meta.media.0.codec.width">1920</property>
  <property name="kdenlive:original.meta.media.0.codec.height">1080</property>
  <property name="kdenlive:original.meta.media.0.codec.rotate">0</property>
  <property name="kdenlive:original.meta.media.0.codec.pix_fmt">yuv420p</property>
  <property name="kdenlive:original.meta.media.0.codec.sample_aspect_ratio">0</property>
  <property name="kdenlive:original.meta.media.0.codec.colorspace">709</property>
  <property name="kdenlive:original.meta.media.0.codec.name">h264</property>
  <property name="kdenlive:original.meta.media.0.codec.long_name">H.264 / AVC / MPEG-4 AVC / MPEG-4 part 10</property>
  <property name="kdenlive:original.meta.media.0.codec.bit_rate">646560</property>
  <property name="kdenlive:original.meta.attr.0.stream.handler_name.markup">VideoHandler</property>
  <property name="kdenlive:original.meta.attr.0.stream.vendor_id.markup">[0][0][0][0]</property>
  <property name="kdenlive:original.meta.attr.0.stream.encoder.markup">Lavc60.3.100 libx264</property>
  <property name="kdenlive:original.meta.attr.major_brand.markup">isom</property>
  <property name="kdenlive:original.meta.attr.minor_version.markup">512</property>
  <property name="kdenlive:original.meta.attr.compatible_brands.markup">isomiso2avc1mp41</property>
  <property name="kdenlive:original.meta.attr.encoder.markup">Lavf60.3.100</property>
  <property name="kdenlive:original.meta.attr.comment.markup">Rendered with Manim Community v0.17.3</property>
  <property name="kdenlive:original.seekable">1</property>
  <property name="kdenlive:original.width">1920</property>
  <property name="kdenlive:original.height">1080</property>
  <property name="kdenlive:original.meta.media.sample_aspect_num">1</property>
  <property name="kdenlive:original.meta.media.sample_aspect_den">1</property>
  <property name="kdenlive:original.format">3</property>
  <property name="kdenlive:original.audio_index">-1</property>
  <property name="kdenlive:original.video_index">0</property>
  <property name="kdenlive:original.meta.media.frame_rate_num">60</property>
  <property name="kdenlive:original.meta.media.frame_rate_den">1</property>
  <property name="kdenlive:original.meta.media.colorspace">709</property>
  <property name="kdenlive:original.meta.media.color_trc">2</property>
  <property name="kdenlive:original.meta.media.has_b_frames">2</property>
  <property name="kdenlive:original.meta.media.width">1920</property>
  <property name="kdenlive:original.meta.media.height">1080</property>
  <property name="kdenlive:original.meta.media.color_range">mpeg</property>
  <property name="kdenlive:original.meta.media.top_field_first">0</property>
  <property name="kdenlive:original.meta.media.progressive">1</property>
  <property name="kdenlive:original.kdenlive:clip_type">2</property>
  <property name="kdenlive:original.kdenlive:folderid">16</property>
  <property name="kdenlive:original.kdenlive:id">22</property>
  <property name="kdenlive:original.mute_on_pause">0</property>
  <property name="kdenlive:original.kdenlive:file_size">245380</property>
  <property name="kdenlive:original.kdenlive:file_hash">9361e53aa754cfa27979975abfe38470</property>
  <property name="kdenlive:original.backup">1</property>
  <property name="meta.media.top_field_first">0</property>
  <property name="meta.media.progressive">1</property>
 </chain>
 <chain id="chain254" out="00:00:02.783">
  <property name="length">168</property>
  <property name="eof">pause</property>
  <property name="resource">/home/xiaoxiae/.cache/kdenlive/proxy/bac433ccbcd9d0fa4dcdfb7b10ea35f8.mkv</property>
  <property name="mlt_service">avformat-novalidate</property>
  <property name="meta.media.nb_streams">1</property>
  <property name="meta.media.0.stream.type">video</property>
  <property name="meta.media.0.stream.frame_rate">60</property>
  <property name="meta.media.0.stream.sample_aspect_ratio">0</property>
  <property name="meta.media.0.codec.width">640</property>
  <property name="meta.media.0.codec.height">360</property>
  <property name="meta.media.0.codec.rotate">0</property>
  <property name="meta.media.0.codec.pix_fmt">yuvj420p</property>
  <property name="meta.media.0.codec.sample_aspect_ratio">0</property>
  <property name="meta.media.0.codec.colorspace">601</property>
  <property name="meta.media.0.codec.name">mjpeg</property>
  <property name="meta.media.0.codec.long_name">MJPEG (Motion JPEG)</property>
  <property name="meta.media.0.codec.bit_rate">0</property>
  <property name="meta.attr.0.stream.HANDLER_NAME.markup">VideoHandler</property>
  <property name="meta.attr.0.stream.VENDOR_ID.markup">[0][0][0][0]</property>
  <property name="meta.attr.0.stream.ENCODER.markup">Lavc60.3.100 mjpeg</property>
  <property name="meta.attr.0.stream.DURATION.markup">00:00:02.800000000</property>
  <property name="meta.attr.COMMENT.markup">Rendered with Manim Community v0.17.3</property>
  <property name="meta.attr.MAJOR_BRAND.markup">isom</property>
  <property name="meta.attr.MINOR_VERSION.markup">512</property>
  <property name="meta.attr.COMPATIBLE_BRANDS.markup">isomiso2avc1mp41</property>
  <property name="meta.attr.ENCODER.markup">Lavf60.3.100</property>
  <property name="seekable">1</property>
  <property name="meta.media.sample_aspect_num">1</property>
  <property name="meta.media.sample_aspect_den">1</property>
  <property name="format">3</property>
  <property name="audio_index">-1</property>
  <property name="video_index">0</property>
  <property name="meta.media.frame_rate_num">60</property>
  <property name="meta.media.frame_rate_den">1</property>
  <property name="meta.media.colorspace">601</property>
  <property name="meta.media.color_trc">2</property>
  <property name="meta.media.has_b_frames">0</property>
  <property name="meta.media.width">640</property>
  <property name="meta.media.height">360</property>
  <property name="meta.media.color_range">full</property>
  <property name="kdenlive:clipname">104.mp4</property>
  <property name="kdenlive:clip_type">2</property>
  <property name="kdenlive:folderid">16</property>
  <property name="kdenlive:id">23</property>
  <property name="mute_on_pause">0</property>
  <property name="kdenlive:file_size">209761</property>
  <property name="kdenlive:file_hash">bac433ccbcd9d0fa4dcdfb7b10ea35f8</property>
  <property name="kdenlive:proxy">/home/xiaoxiae/.cache/kdenlive/proxy/bac433ccbcd9d0fa4dcdfb7b10ea35f8.mkv</property>
  <property name="kdenlive:originalurl">video/Farmer/104.mp4</property>
  <property name="kdenlive:original.mlt_type">chain</property>
  <property name="kdenlive:original.in">0</property>
  <property name="kdenlive:original.out">00:00:02.783</property>
  <property name="kdenlive:original.length">168</property>
  <property name="kdenlive:original.eof">pause</property>
  <property name="kdenlive:original.resource">video/Farmer/104.mp4</property>
  <property name="kdenlive:original.mlt_service">avformat-novalidate</property>
  <property name="kdenlive:original.meta.media.nb_streams">1</property>
  <property name="kdenlive:original.meta.media.0.stream.type">video</property>
  <property name="kdenlive:original.meta.media.0.stream.frame_rate">60</property>
  <property name="kdenlive:original.meta.media.0.stream.sample_aspect_ratio">0</property>
  <property name="kdenlive:original.meta.media.0.codec.width">1920</property>
  <property name="kdenlive:original.meta.media.0.codec.height">1080</property>
  <property name="kdenlive:original.meta.media.0.codec.rotate">0</property>
  <property name="kdenlive:original.meta.media.0.codec.pix_fmt">yuv420p</property>
  <property name="kdenlive:original.meta.media.0.codec.sample_aspect_ratio">0</property>
  <property name="kdenlive:original.meta.media.0.codec.colorspace">709</property>
  <property name="kdenlive:original.meta.media.0.codec.name">h264</property>
  <property name="kdenlive:original.meta.media.0.codec.long_name">H.264 / AVC / MPEG-4 AVC / MPEG-4 part 10</property>
  <property name="kdenlive:original.meta.media.0.codec.bit_rate">591042</property>
  <property name="kdenlive:original.meta.attr.0.stream.handler_name.markup">VideoHandler</property>
  <property name="kdenlive:original.meta.attr.0.stream.vendor_id.markup">[0][0][0][0]</property>
  <property name="kdenlive:original.meta.attr.0.stream.encoder.markup">Lavc60.3.100 libx264</property>
  <property name="kdenlive:original.meta.attr.major_brand.markup">isom</property>
  <property name="kdenlive:original.meta.attr.minor_version.markup">512</property>
  <property name="kdenlive:original.meta.attr.compatible_brands.markup">isomiso2avc1mp41</property>
  <property name="kdenlive:original.meta.attr.encoder.markup">Lavf60.3.100</property>
  <property name="kdenlive:original.meta.attr.comment.markup">Rendered with Manim Community v0.17.3</property>
  <property name="kdenlive:original.seekable">1</property>
  <property name="kdenlive:original.width">1920</property>
  <property name="kdenlive:original.height">1080</property>
  <property name="kdenlive:original.meta.media.sample_aspect_num">1</property>
  <property name="kdenlive:original.meta.media.sample_aspect_den">1</property>
  <property name="kdenlive:original.format">3</property>
  <property name="kdenlive:original.audio_index">-1</property>
  <property name="kdenlive:original.video_index">0</property>
  <property name="kdenlive:original.meta.media.frame_rate_num">60</property>
  <property name="kdenlive:original.meta.media.frame_rate_den">1</property>
  <property name="kdenlive:original.meta.media.colorspace">709</property>
  <property name="kdenlive:original.meta.media.color_trc">2</property>
  <property name="kdenlive:original.meta.media.has_b_frames">2</property>
  <property name="kdenlive:original.meta.media.width">1920</property>
  <property name="kdenlive:original.meta.media.height">1080</property>
  <property name="kdenlive:original.meta.media.color_range">mpeg</property>
  <property name="kdenlive:original.meta.media.top_field_first">0</property>
  <property name="kdenlive:original.meta.media.progressive">1</property>
  <property name="kdenlive:original.kdenlive:clip_type">2</property>
  <property name="kdenlive:original.kdenlive:folderid">16</property>
  <property name="kdenlive:original.kdenlive:id">23</property>
  <property name="kdenlive:original.mute_on_pause">0</property>
  <property name="kdenlive:original.kdenlive:file_size">209761</property>
  <property name="kdenlive:original.kdenlive:file_hash">bac433ccbcd9d0fa4dcdfb7b10ea35f8</property>
  <property name="kdenlive:original.backup">1</property>
  <property name="meta.media.top_field_first">0</property>
  <property name="meta.media.progressive">1</property>
 </chain>
 <chain id="chain248" out="00:00:00.983">
  <property name="length">60</property>
  <property name="eof">pause</property>
  <property name="resource">/home/xiaoxiae/.cache/kdenlive/proxy/18f7f3b75783265ffd4cec1ea16eeac8.mkv</property>
  <property name="mlt_service">avformat-novalidate</property>
  <property name="meta.media.nb_streams">1</property>
  <property name="meta.media.0.stream.type">video</property>
  <property name="meta.media.0.stream.frame_rate">60</property>
  <property name="meta.media.0.stream.sample_aspect_ratio">0</property>
  <property name="meta.media.0.codec.width">640</property>
  <property name="meta.media.0.codec.height">360</property>
  <property name="meta.media.0.codec.rotate">0</property>
  <property name="meta.media.0.codec.pix_fmt">yuvj420p</property>
  <property name="meta.media.0.codec.sample_aspect_ratio">0</property>
  <property name="meta.media.0.codec.colorspace">601</property>
  <property name="meta.media.0.codec.name">mjpeg</property>
  <property name="meta.media.0.codec.long_name">MJPEG (Motion JPEG)</property>
  <property name="meta.media.0.codec.bit_rate">0</property>
  <property name="meta.attr.0.stream.HANDLER_NAME.markup">VideoHandler</property>
  <property name="meta.attr.0.stream.VENDOR_ID.markup">[0][0][0][0]</property>
  <property name="meta.attr.0.stream.ENCODER.markup">Lavc60.3.100 mjpeg</property>
  <property name="meta.attr.0.stream.DURATION.markup">00:00:01.000000000</property>
  <property name="meta.attr.COMMENT.markup">Rendered with Manim Community v0.17.3</property>
  <property name="meta.attr.MAJOR_BRAND.markup">isom</property>
  <property name="meta.attr.MINOR_VERSION.markup">512</property>
  <property name="meta.attr.COMPATIBLE_BRANDS.markup">isomiso2avc1mp41</property>
  <property name="meta.attr.ENCODER.markup">Lavf60.3.100</property>
  <property name="seekable">1</property>
  <property name="meta.media.sample_aspect_num">1</property>
  <property name="meta.media.sample_aspect_den">1</property>
  <property name="format">3</property>
  <property name="audio_index">-1</property>
  <property name="video_index">0</property>
  <property name="meta.media.frame_rate_num">60</property>
  <property name="meta.media.frame_rate_den">1</property>
  <property name="meta.media.colorspace">601</property>
  <property name="meta.media.color_trc">2</property>
  <property name="meta.media.has_b_frames">0</property>
  <property name="meta.media.width">640</property>
  <property name="meta.media.height">360</property>
  <property name="meta.media.color_range">full</property>
  <property name="kdenlive:clipname">105.mp4</property>
  <property name="kdenlive:clip_type">2</property>
  <property name="kdenlive:folderid">16</property>
  <property name="kdenlive:id">24</property>
  <property name="mute_on_pause">0</property>
  <property name="kdenlive:file_size">88899</property>
  <property name="kdenlive:file_hash">18f7f3b75783265ffd4cec1ea16eeac8</property>
  <property name="kdenlive:proxy">/home/xiaoxiae/.cache/kdenlive/proxy/18f7f3b75783265ffd4cec1ea16eeac8.mkv</property>
  <property name="kdenlive:originalurl">video/Farmer/105.mp4</property>
  <property name="kdenlive:original.mlt_type">chain</property>
  <property name="kdenlive:original.in">0</property>
  <property name="kdenlive:original.out">00:00:00.983</property>
  <property name="kdenlive:original.length">60</property>
  <property name="kdenlive:original.eof">pause</property>
  <property name="kdenlive:original.resource">video/Farmer/105.mp4</property>
  <property name="kdenlive:original.mlt_service">avformat-novalidate</property>
  <property name="kdenlive:original.meta.media.nb_streams">1</property>
  <property name="kdenlive:original.meta.media.0.stream.type">video</property>
  <property name="kdenlive:original.meta.media.0.stream.frame_rate">60</property>
  <property name="kdenlive:original.meta.media.0.stream.sample_aspect_ratio">0</property>
  <property name="kdenlive:original.meta.media.0.codec.width">1920</property>
  <property name="kdenlive:original.meta.media.0.codec.height">1080</property>
  <property name="kdenlive:original.meta.media.0.codec.rotate">0</property>
  <property name="kdenlive:original.meta.media.0.codec.pix_fmt">yuv420p</property>
  <property name="kdenlive:original.meta.media.0.codec.sample_aspect_ratio">0</property>
  <property name="kdenlive:original.meta.media.0.codec.colorspace">709</property>
  <property name="kdenlive:original.meta.media.0.codec.name">h264</property>
  <property name="kdenlive:original.meta.media.0.codec.long_name">H.264 / AVC / MPEG-4 AVC / MPEG-4 part 10</property>
  <property name="kdenlive:original.meta.media.0.codec.bit_rate">698264</property>
  <property name="kdenlive:original.meta.attr.0.stream.handler_name.markup">VideoHandler</property>
  <property name="kdenlive:original.meta.attr.0.stream.vendor_id.markup">[0][0][0][0]</property>
  <property name="kdenlive:original.meta.attr.0.stream.encoder.markup">Lavc60.3.100 libx264</property>
  <property name="kdenlive:original.meta.attr.major_brand.markup">isom</property>
  <property name="kdenlive:original.meta.attr.minor_version.markup">512</property>
  <property name="kdenlive:original.meta.attr.compatible_brands.markup">isomiso2avc1mp41</property>
  <property name="kdenlive:original.meta.attr.encoder.markup">Lavf60.3.100</property>
  <property name="kdenlive:original.meta.attr.comment.markup">Rendered with Manim Community v0.17.3</property>
  <property name="kdenlive:original.seekable">1</property>
  <property name="kdenlive:original.width">1920</property>
  <property name="kdenlive:original.height">1080</property>
  <property name="kdenlive:original.meta.media.sample_aspect_num">1</property>
  <property name="kdenlive:original.meta.media.sample_aspect_den">1</property>
  <property name="kdenlive:original.format">3</property>
  <property name="kdenlive:original.audio_index">-1</property>
  <property name="kdenlive:original.video_index">0</property>
  <property name="kdenlive:original.meta.media.frame_rate_num">60</property>
  <property name="kdenlive:original.meta.media.frame_rate_den">1</property>
  <property name="kdenlive:original.meta.media.colorspace">709</property>
  <property name="kdenlive:original.meta.media.color_trc">2</property>
  <property name="kdenlive:original.meta.media.has_b_frames">2</property>
  <property name="kdenlive:original.meta.media.width">1920</property>
  <property name="kdenlive:original.meta.media.height">1080</property>
  <property name="kdenlive:original.meta.media.color_range">mpeg</property>
  <property name="kdenlive:original.meta.media.top_field_first">0</property>
  <property name="kdenlive:original.meta.media.progressive">1</property>
  <property name="kdenlive:original.kdenlive:clip_type">2</property>
  <property name="kdenlive:original.kdenlive:folderid">16</property>
  <property name="kdenlive:original.kdenlive:id">24</property>
  <property name="kdenlive:original.mute_on_pause">0</property>
  <property name="kdenlive:original.kdenlive:file_size">88899</property>
  <property name="kdenlive:original.kdenlive:file_hash">18f7f3b75783265ffd4cec1ea16eeac8</property>
  <property name="kdenlive:original.backup">1</property>
  <property name="meta.media.top_field_first">0</property>
  <property name="meta.media.progressive">1</property>
 </chain>
 <chain id="chain247" out="00:00:00.983">
  <property name="length">60</property>
  <property name="eof">pause</property>
  <property name="resource">/home/xiaoxiae/.cache/kdenlive/proxy/00fa5b01fb24c8e808b6dbf28190fab3.mkv</property>
  <property name="mlt_service">avformat-novalidate</property>
  <property name="meta.media.nb_streams">1</property>
  <property name="meta.media.0.stream.type">video</property>
  <property name="meta.media.0.stream.frame_rate">60</property>
  <property name="meta.media.0.stream.sample_aspect_ratio">0</property>
  <property name="meta.media.0.codec.width">640</property>
  <property name="meta.media.0.codec.height">360</property>
  <property name="meta.media.0.codec.rotate">0</property>
  <property name="meta.media.0.codec.pix_fmt">yuvj420p</property>
  <property name="meta.media.0.codec.sample_aspect_ratio">0</property>
  <property name="meta.media.0.codec.colorspace">601</property>
  <property name="meta.media.0.codec.name">mjpeg</property>
  <property name="meta.media.0.codec.long_name">MJPEG (Motion JPEG)</property>
  <property name="meta.media.0.codec.bit_rate">0</property>
  <property name="meta.attr.0.stream.HANDLER_NAME.markup">VideoHandler</property>
  <property name="meta.attr.0.stream.VENDOR_ID.markup">[0][0][0][0]</property>
  <property name="meta.attr.0.stream.ENCODER.markup">Lavc60.3.100 mjpeg</property>
  <property name="meta.attr.0.stream.DURATION.markup">00:00:01.000000000</property>
  <property name="meta.attr.COMMENT.markup">Rendered with Manim Community v0.17.3</property>
  <property name="meta.attr.MAJOR_BRAND.markup">isom</property>
  <property name="meta.attr.MINOR_VERSION.markup">512</property>
  <property name="meta.attr.COMPATIBLE_BRANDS.markup">isomiso2avc1mp41</property>
  <property name="meta.attr.ENCODER.markup">Lavf60.3.100</property>
  <property name="seekable">1</property>
  <property name="meta.media.sample_aspect_num">1</property>
  <property name="meta.media.sample_aspect_den">1</property>
  <property name="format">3</property>
  <property name="audio_index">-1</property>
  <property name="video_index">0</property>
  <property name="meta.media.frame_rate_num">60</property>
  <property name="meta.media.frame_rate_den">1</property>
  <property name="meta.media.colorspace">601</property>
  <property name="meta.media.color_trc">2</property>
  <property name="meta.media.has_b_frames">0</property>
  <property name="meta.media.width">640</property>
  <property name="meta.media.height">360</property>
  <property name="meta.media.color_range">full</property>
  <property name="kdenlive:clipname">106.mp4</property>
  <property name="kdenlive:clip_type">2</property>
  <property name="kdenlive:folderid">16</property>
  <property name="kdenlive:id">25</property>
  <property name="mute_on_pause">0</property>
  <property name="kdenlive:file_size">59027</property>
  <property name="kdenlive:file_hash">00fa5b01fb24c8e808b6dbf28190fab3</property>
  <property name="kdenlive:proxy">/home/xiaoxiae/.cache/kdenlive/proxy/00fa5b01fb24c8e808b6dbf28190fab3.mkv</property>
  <property name="kdenlive:originalurl">video/Farmer/106.mp4</property>
  <property name="kdenlive:original.mlt_type">chain</property>
  <property name="kdenlive:original.in">0</property>
  <property name="kdenlive:original.out">00:00:00.983</property>
  <property name="kdenlive:original.length">60</property>
  <property name="kdenlive:original.eof">pause</property>
  <property name="kdenlive:original.resource">video/Farmer/106.mp4</property>
  <property name="kdenlive:original.mlt_service">avformat-novalidate</property>
  <property name="kdenlive:original.meta.media.nb_streams">1</property>
  <property name="kdenlive:original.meta.media.0.stream.type">video</property>
  <property name="kdenlive:original.meta.media.0.stream.frame_rate">60</property>
  <property name="kdenlive:original.meta.media.0.stream.sample_aspect_ratio">0</property>
  <property name="kdenlive:original.meta.media.0.codec.width">1920</property>
  <property name="kdenlive:original.meta.media.0.codec.height">1080</property>
  <property name="kdenlive:original.meta.media.0.codec.rotate">0</property>
  <property name="kdenlive:original.meta.media.0.codec.pix_fmt">yuv420p</property>
  <property name="kdenlive:original.meta.media.0.codec.sample_aspect_ratio">0</property>
  <property name="kdenlive:original.meta.media.0.codec.colorspace">709</property>
  <property name="kdenlive:original.meta.media.0.codec.name">h264</property>
  <property name="kdenlive:original.meta.media.0.codec.long_name">H.264 / AVC / MPEG-4 AVC / MPEG-4 part 10</property>
  <property name="kdenlive:original.meta.media.0.codec.bit_rate">459160</property>
  <property name="kdenlive:original.meta.attr.0.stream.handler_name.markup">VideoHandler</property>
  <property name="kdenlive:original.meta.attr.0.stream.vendor_id.markup">[0][0][0][0]</property>
  <property name="kdenlive:original.meta.attr.0.stream.encoder.markup">Lavc60.3.100 libx264</property>
  <property name="kdenlive:original.meta.attr.major_brand.markup">isom</property>
  <property name="kdenlive:original.meta.attr.minor_version.markup">512</property>
  <property name="kdenlive:original.meta.attr.compatible_brands.markup">isomiso2avc1mp41</property>
  <property name="kdenlive:original.meta.attr.encoder.markup">Lavf60.3.100</property>
  <property name="kdenlive:original.meta.attr.comment.markup">Rendered with Manim Community v0.17.3</property>
  <property name="kdenlive:original.seekable">1</property>
  <property name="kdenlive:original.width">1920</property>
  <property name="kdenlive:original.height">1080</property>
  <property name="kdenlive:original.meta.media.sample_aspect_num">1</property>
  <property name="kdenlive:original.meta.media.sample_aspect_den">1</property>
  <property name="kdenlive:original.format">3</property>
  <property name="kdenlive:original.audio_index">-1</property>
  <property name="kdenlive:original.video_index">0</property>
  <property name="kdenlive:original.meta.media.frame_rate_num">60</property>
  <property name="kdenlive:original.meta.media.frame_rate_den">1</property>
  <property name="kdenlive:original.meta.media.colorspace">709</property>
  <property name="kdenlive:original.meta.media.color_trc">2</property>
  <property name="kdenlive:original.meta.media.has_b_frames">2</property>
  <property name="kdenlive:original.meta.media.width">1920</property>
  <property name="kdenlive:original.meta.media.height">1080</property>
  <property name="kdenlive:original.meta.media.color_range">mpeg</property>
  <property name="kdenlive:original.meta.media.top_field_first">0</property>
  <property name="kdenlive:original.meta.media.progressive">1</property>
  <property name="kdenlive:original.kdenlive:clip_type">2</property>
  <property name="kdenlive:original.kdenlive:folderid">16</property>
  <property name="kdenlive:original.kdenlive:id">25</property>
  <property name="kdenlive:original.mute_on_pause">0</property>
  <property name="kdenlive:original.kdenlive:file_size">59027</property>
  <property name="kdenlive:original.kdenlive:file_hash">00fa5b01fb24c8e808b6dbf28190fab3</property>
  <property name="kdenlive:original.backup">1</property>
  <property name="meta.media.top_field_first">0</property>
  <property name="meta.media.progressive">1</property>
 </chain>
 <chain id="chain246" out="00:00:00.983">
  <property name="length">60</property>
  <property name="eof">pause</property>
  <property name="resource">/home/xiaoxiae/.cache/kdenlive/proxy/a113e5fa876441296d51d6cacfd99022.mkv</property>
  <property name="mlt_service">avformat-novalidate</property>
  <property name="meta.media.nb_streams">1</property>
  <property name="meta.media.0.stream.type">video</property>
  <property name="meta.media.0.stream.frame_rate">60</property>
  <property name="meta.media.0.stream.sample_aspect_ratio">0</property>
  <property name="meta.media.0.codec.width">640</property>
  <property name="meta.media.0.codec.height">360</property>
  <property name="meta.media.0.codec.rotate">0</property>
  <property name="meta.media.0.codec.pix_fmt">yuvj420p</property>
  <property name="meta.media.0.codec.sample_aspect_ratio">0</property>
  <property name="meta.media.0.codec.colorspace">601</property>
  <property name="meta.media.0.codec.name">mjpeg</property>
  <property name="meta.media.0.codec.long_name">MJPEG (Motion JPEG)</property>
  <property name="meta.media.0.codec.bit_rate">0</property>
  <property name="meta.attr.0.stream.HANDLER_NAME.markup">VideoHandler</property>
  <property name="meta.attr.0.stream.VENDOR_ID.markup">[0][0][0][0]</property>
  <property name="meta.attr.0.stream.ENCODER.markup">Lavc60.3.100 mjpeg</property>
  <property name="meta.attr.0.stream.DURATION.markup">00:00:01.000000000</property>
  <property name="meta.attr.COMMENT.markup">Rendered with Manim Community v0.17.3</property>
  <property name="meta.attr.MAJOR_BRAND.markup">isom</property>
  <property name="meta.attr.MINOR_VERSION.markup">512</property>
  <property name="meta.attr.COMPATIBLE_BRANDS.markup">isomiso2avc1mp41</property>
  <property name="meta.attr.ENCODER.markup">Lavf60.3.100</property>
  <property name="seekable">1</property>
  <property name="meta.media.sample_aspect_num">1</property>
  <property name="meta.media.sample_aspect_den">1</property>
  <property name="format">3</property>
  <property name="audio_index">-1</property>
  <property name="video_index">0</property>
  <property name="meta.media.frame_rate_num">60</property>
  <property name="meta.media.frame_rate_den">1</property>
  <property name="meta.media.colorspace">601</property>
  <property name="meta.media.color_trc">2</property>
  <property name="meta.media.has_b_frames">0</property>
  <property name="meta.media.width">640</property>
  <property name="meta.media.height">360</property>
  <property name="meta.media.color_range">full</property>
  <property name="kdenlive:clipname">107.mp4</property>
  <property name="kdenlive:clip_type">2</property>
  <property name="kdenlive:folderid">16</property>
  <property name="kdenlive:id">26</property>
  <property name="mute_on_pause">0</property>
  <property name="kdenlive:file_size">90944</property>
  <property name="kdenlive:file_hash">a113e5fa876441296d51d6cacfd99022</property>
  <property name="kdenlive:proxy">/home/xiaoxiae/.cache/kdenlive/proxy/a113e5fa876441296d51d6cacfd99022.mkv</property>
  <property name="kdenlive:originalurl">video/Farmer/107.mp4</property>
  <property name="kdenlive:original.mlt_type">chain</property>
  <property name="kdenlive:original.in">0</property>
  <property name="kdenlive:original.out">00:00:00.983</property>
  <property name="kdenlive:original.length">60</property>
  <property name="kdenlive:original.eof">pause</property>
  <property name="kdenlive:original.resource">video/Farmer/107.mp4</property>
  <property name="kdenlive:original.mlt_service">avformat-novalidate</property>
  <property name="kdenlive:original.meta.media.nb_streams">1</property>
  <property name="kdenlive:original.meta.media.0.stream.type">video</property>
  <property name="kdenlive:original.meta.media.0.stream.frame_rate">60</property>
  <property name="kdenlive:original.meta.media.0.stream.sample_aspect_ratio">0</property>
  <property name="kdenlive:original.meta.media.0.codec.width">1920</property>
  <property name="kdenlive:original.meta.media.0.codec.height">1080</property>
  <property name="kdenlive:original.meta.media.0.codec.rotate">0</property>
  <property name="kdenlive:original.meta.media.0.codec.pix_fmt">yuv420p</property>
  <property name="kdenlive:original.meta.media.0.codec.sample_aspect_ratio">0</property>
  <property name="kdenlive:original.meta.media.0.codec.colorspace">709</property>
  <property name="kdenlive:original.meta.media.0.codec.name">h264</property>
  <property name="kdenlive:original.meta.media.0.codec.long_name">H.264 / AVC / MPEG-4 AVC / MPEG-4 part 10</property>
  <property name="kdenlive:original.meta.media.0.codec.bit_rate">714752</property>
  <property name="kdenlive:original.meta.attr.0.stream.handler_name.markup">VideoHandler</property>
  <property name="kdenlive:original.meta.attr.0.stream.vendor_id.markup">[0][0][0][0]</property>
  <property name="kdenlive:original.meta.attr.0.stream.encoder.markup">Lavc60.3.100 libx264</property>
  <property name="kdenlive:original.meta.attr.major_brand.markup">isom</property>
  <property name="kdenlive:original.meta.attr.minor_version.markup">512</property>
  <property name="kdenlive:original.meta.attr.compatible_brands.markup">isomiso2avc1mp41</property>
  <property name="kdenlive:original.meta.attr.encoder.markup">Lavf60.3.100</property>
  <property name="kdenlive:original.meta.attr.comment.markup">Rendered with Manim Community v0.17.3</property>
  <property name="kdenlive:original.seekable">1</property>
  <property name="kdenlive:original.width">1920</property>
  <property name="kdenlive:original.height">1080</property>
  <property name="kdenlive:original.meta.media.sample_aspect_num">1</property>
  <property name="kdenlive:original.meta.media.sample_aspect_den">1</property>
  <property name="kdenlive:original.format">3</property>
  <property name="kdenlive:original.audio_index">-1</property>
  <property name="kdenlive:original.video_index">0</property>
  <property name="kdenlive:original.meta.media.frame_rate_num">60</property>
  <property name="kdenlive:original.meta.media.frame_rate_den">1</property>
  <property name="kdenlive:original.meta.media.colorspace">709</property>
  <property name="kdenlive:original.meta.media.color_trc">2</property>
  <property name="kdenlive:original.meta.media.has_b_frames">2</property>
  <property name="kdenlive:original.meta.media.width">1920</property>
  <property name="kdenlive:original.meta.media.height">1080</property>
  <property name="kdenlive:original.meta.media.color_range">mpeg</property>
  <property name="kdenlive:original.meta.media.top_field_first">0</property>
  <property name="kdenlive:original.meta.media.progressive">1</property>
  <property name="kdenlive:original.kdenlive:clip_type">2</property>
  <property name="kdenlive:original.kdenlive:folderid">16</property>
  <property name="kdenlive:original.kdenlive:id">26</property>
  <property name="kdenlive:original.mute_on_pause">0</property>
  <property name="kdenlive:original.kdenlive:file_size">90944</property>
  <property name="kdenlive:original.kdenlive:file_hash">a113e5fa876441296d51d6cacfd99022</property>
  <property name="kdenlive:original.backup">1</property>
  <property name="meta.media.top_field_first">0</property>
  <property name="meta.media.progressive">1</property>
 </chain>
 <chain id="chain245" out="00:00:00.983">
  <property name="length">60</property>
  <property name="eof">pause</property>
  <property name="resource">/home/xiaoxiae/.cache/kdenlive/proxy/391bb96fa6fa3bcc9be31e234a879271.mkv</property>
  <property name="mlt_service">avformat-novalidate</property>
  <property name="meta.media.nb_streams">1</property>
  <property name="meta.media.0.stream.type">video</property>
  <property name="meta.media.0.stream.frame_rate">60</property>
  <property name="meta.media.0.stream.sample_aspect_ratio">0</property>
  <property name="meta.media.0.codec.width">640</property>
  <property name="meta.media.0.codec.height">360</property>
  <property name="meta.media.0.codec.rotate">0</property>
  <property name="meta.media.0.codec.pix_fmt">yuvj420p</property>
  <property name="meta.media.0.codec.sample_aspect_ratio">0</property>
  <property name="meta.media.0.codec.colorspace">601</property>
  <property name="meta.media.0.codec.name">mjpeg</property>
  <property name="meta.media.0.codec.long_name">MJPEG (Motion JPEG)</property>
  <property name="meta.media.0.codec.bit_rate">0</property>
  <property name="meta.attr.0.stream.HANDLER_NAME.markup">VideoHandler</property>
  <property name="meta.attr.0.stream.VENDOR_ID.markup">[0][0][0][0]</property>
  <property name="meta.attr.0.stream.ENCODER.markup">Lavc60.3.100 mjpeg</property>
  <property name="meta.attr.0.stream.DURATION.markup">00:00:01.000000000</property>
  <property name="meta.attr.COMMENT.markup">Rendered with Manim Community v0.17.3</property>
  <property name="meta.attr.MAJOR_BRAND.markup">isom</property>
  <property name="meta.attr.MINOR_VERSION.markup">512</property>
  <property name="meta.attr.COMPATIBLE_BRANDS.markup">isomiso2avc1mp41</property>
  <property name="meta.attr.ENCODER.markup">Lavf60.3.100</property>
  <property name="seekable">1</property>
  <property name="meta.media.sample_aspect_num">1</property>
  <property name="meta.media.sample_aspect_den">1</property>
  <property name="format">3</property>
  <property name="audio_index">-1</property>
  <property name="video_index">0</property>
  <property name="meta.media.frame_rate_num">60</property>
  <property name="meta.media.frame_rate_den">1</property>
  <property name="meta.media.colorspace">601</property>
  <property name="meta.media.color_trc">2</property>
  <property name="meta.media.has_b_frames">0</property>
  <property name="meta.media.width">640</property>
  <property name="meta.media.height">360</property>
  <property name="meta.media.color_range">full</property>
  <property name="kdenlive:clipname">108.mp4</property>
  <property name="kdenlive:clip_type">2</property>
  <property name="kdenlive:folderid">16</property>
  <property name="kdenlive:id">27</property>
  <property name="mute_on_pause">0</property>
  <property name="kdenlive:file_size">107548</property>
  <property name="kdenlive:file_hash">391bb96fa6fa3bcc9be31e234a879271</property>
  <property name="kdenlive:proxy">/home/xiaoxiae/.cache/kdenlive/proxy/391bb96fa6fa3bcc9be31e234a879271.mkv</property>
  <property name="kdenlive:originalurl">video/Farmer/108.mp4</property>
  <property name="kdenlive:original.mlt_type">chain</property>
  <property name="kdenlive:original.in">0</property>
  <property name="kdenlive:original.out">00:00:00.983</property>
  <property name="kdenlive:original.length">60</property>
  <property name="kdenlive:original.eof">pause</property>
  <property name="kdenlive:original.resource">video/Farmer/108.mp4</property>
  <property name="kdenlive:original.mlt_service">avformat-novalidate</property>
  <property name="kdenlive:original.meta.media.nb_streams">1</property>
  <property name="kdenlive:original.meta.media.0.stream.type">video</property>
  <property name="kdenlive:original.meta.media.0.stream.frame_rate">60</property>
  <property name="kdenlive:original.meta.media.0.stream.sample_aspect_ratio">0</property>
  <property name="kdenlive:original.meta.media.0.codec.width">1920</property>
  <property name="kdenlive:original.meta.media.0.codec.height">1080</property>
  <property name="kdenlive:original.meta.media.0.codec.rotate">0</property>
  <property name="kdenlive:original.meta.media.0.codec.pix_fmt">yuv420p</property>
  <property name="kdenlive:original.meta.media.0.codec.sample_aspect_ratio">0</property>
  <property name="kdenlive:original.meta.media.0.codec.colorspace">709</property>
  <property name="kdenlive:original.meta.media.0.codec.name">h264</property>
  <property name="kdenlive:original.meta.media.0.codec.long_name">H.264 / AVC / MPEG-4 AVC / MPEG-4 part 10</property>
  <property name="kdenlive:original.meta.media.0.codec.bit_rate">847712</property>
  <property name="kdenlive:original.meta.attr.0.stream.handler_name.markup">VideoHandler</property>
  <property name="kdenlive:original.meta.attr.0.stream.vendor_id.markup">[0][0][0][0]</property>
  <property name="kdenlive:original.meta.attr.0.stream.encoder.markup">Lavc60.3.100 libx264</property>
  <property name="kdenlive:original.meta.attr.major_brand.markup">isom</property>
  <property name="kdenlive:original.meta.attr.minor_version.markup">512</property>
  <property name="kdenlive:original.meta.attr.compatible_brands.markup">isomiso2avc1mp41</property>
  <property name="kdenlive:original.meta.attr.encoder.markup">Lavf60.3.100</property>
  <property name="kdenlive:original.meta.attr.comment.markup">Rendered with Manim Community v0.17.3</property>
  <property name="kdenlive:original.seekable">1</property>
  <property name="kdenlive:original.width">1920</property>
  <property name="kdenlive:original.height">1080</property>
  <property name="kdenlive:original.meta.media.sample_aspect_num">1</property>
  <property name="kdenlive:original.meta.media.sample_aspect_den">1</property>
  <property name="kdenlive:original.format">3</property>
  <property name="kdenlive:original.audio_index">-1</property>
  <property name="kdenlive:original.video_index">0</property>
  <property name="kdenlive:original.meta.media.frame_rate_num">60</property>
  <property name="kdenlive:original.meta.media.frame_rate_den">1</property>
  <property name="kdenlive:original.meta.media.colorspace">709</property>
  <property name="kdenlive:original.meta.media.color_trc">2</property>
  <property name="kdenlive:original.meta.media.has_b_frames">2</property>
  <property name="kdenlive:original.meta.media.width">1920</property>
  <property name="kdenlive:original.meta.media.height">1080</property>
  <property name="kdenlive:original.meta.media.color_range">mpeg</property>
  <property name="kdenlive:original.meta.media.top_field_first">0</property>
  <property name="kdenlive:original.meta.media.progressive">1</property>
  <property name="kdenlive:original.kdenlive:clip_type">2</property>
  <property name="kdenlive:original.kdenlive:folderid">16</property>
  <property name="kdenlive:original.kdenlive:id">27</property>
  <property name="kdenlive:original.mute_on_pause">0</property>
  <property name="kdenlive:original.kdenlive:file_size">107548</property>
  <property name="kdenlive:original.kdenlive:file_hash">391bb96fa6fa3bcc9be31e234a879271</property>
  <property name="kdenlive:original.backup">1</property>
  <property name="meta.media.top_field_first">0</property>
  <property name="meta.media.progressive">1</property>
 </chain>
 <chain id="chain243" out="00:00:00.983">
  <property name="length">60</property>
  <property name="eof">pause</property>
  <property name="resource">/home/xiaoxiae/.cache/kdenlive/proxy/8059986b7b1ae5c6ac3ab66b3d790119.mkv</property>
  <property name="mlt_service">avformat-novalidate</property>
  <property name="meta.media.nb_streams">1</property>
  <property name="meta.media.0.stream.type">video</property>
  <property name="meta.media.0.stream.frame_rate">60</property>
  <property name="meta.media.0.stream.sample_aspect_ratio">0</property>
  <property name="meta.media.0.codec.width">640</property>
  <property name="meta.media.0.codec.height">360</property>
  <property name="meta.media.0.codec.rotate">0</property>
  <property name="meta.media.0.codec.pix_fmt">yuvj420p</property>
  <property name="meta.media.0.codec.sample_aspect_ratio">0</property>
  <property name="meta.media.0.codec.colorspace">601</property>
  <property name="meta.media.0.codec.name">mjpeg</property>
  <property name="meta.media.0.codec.long_name">MJPEG (Motion JPEG)</property>
  <property name="meta.media.0.codec.bit_rate">0</property>
  <property name="meta.attr.0.stream.HANDLER_NAME.markup">VideoHandler</property>
  <property name="meta.attr.0.stream.VENDOR_ID.markup">[0][0][0][0]</property>
  <property name="meta.attr.0.stream.ENCODER.markup">Lavc60.3.100 mjpeg</property>
  <property name="meta.attr.0.stream.DURATION.markup">00:00:01.000000000</property>
  <property name="meta.attr.COMMENT.markup">Rendered with Manim Community v0.17.3</property>
  <property name="meta.attr.MAJOR_BRAND.markup">isom</property>
  <property name="meta.attr.MINOR_VERSION.markup">512</property>
  <property name="meta.attr.COMPATIBLE_BRANDS.markup">isomiso2avc1mp41</property>
  <property name="meta.attr.ENCODER.markup">Lavf60.3.100</property>
  <property name="seekable">1</property>
  <property name="meta.media.sample_aspect_num">1</property>
  <property name="meta.media.sample_aspect_den">1</property>
  <property name="format">3</property>
  <property name="audio_index">-1</property>
  <property name="video_index">0</property>
  <property name="meta.media.frame_rate_num">60</property>
  <property name="meta.media.frame_rate_den">1</property>
  <property name="meta.media.colorspace">601</property>
  <property name="meta.media.color_trc">2</property>
  <property name="meta.media.has_b_frames">0</property>
  <property name="meta.media.width">640</property>
  <property name="meta.media.height">360</property>
  <property name="meta.media.color_range">full</property>
  <property name="kdenlive:clipname">109.mp4</property>
  <property name="kdenlive:clip_type">2</property>
  <property name="kdenlive:folderid">16</property>
  <property name="kdenlive:id">28</property>
  <property name="mute_on_pause">0</property>
  <property name="kdenlive:file_size">62570</property>
  <property name="kdenlive:file_hash">8059986b7b1ae5c6ac3ab66b3d790119</property>
  <property name="kdenlive:proxy">/home/xiaoxiae/.cache/kdenlive/proxy/8059986b7b1ae5c6ac3ab66b3d790119.mkv</property>
  <property name="kdenlive:originalurl">video/Farmer/109.mp4</property>
  <property name="kdenlive:original.mlt_type">chain</property>
  <property name="kdenlive:original.in">0</property>
  <property name="kdenlive:original.out">00:00:00.983</property>
  <property name="kdenlive:original.length">60</property>
  <property name="kdenlive:original.eof">pause</property>
  <property name="kdenlive:original.resource">video/Farmer/109.mp4</property>
  <property name="kdenlive:original.mlt_service">avformat-novalidate</property>
  <property name="kdenlive:original.meta.media.nb_streams">1</property>
  <property name="kdenlive:original.meta.media.0.stream.type">video</property>
  <property name="kdenlive:original.meta.media.0.stream.frame_rate">60</property>
  <property name="kdenlive:original.meta.media.0.stream.sample_aspect_ratio">0</property>
  <property name="kdenlive:original.meta.media.0.codec.width">1920</property>
  <property name="kdenlive:original.meta.media.0.codec.height">1080</property>
  <property name="kdenlive:original.meta.media.0.codec.rotate">0</property>
  <property name="kdenlive:original.meta.media.0.codec.pix_fmt">yuv420p</property>
  <property name="kdenlive:original.meta.media.0.codec.sample_aspect_ratio">0</property>
  <property name="kdenlive:original.meta.media.0.codec.colorspace">709</property>
  <property name="kdenlive:original.meta.media.0.codec.name">h264</property>
  <property name="kdenlive:original.meta.media.0.codec.long_name">H.264 / AVC / MPEG-4 AVC / MPEG-4 part 10</property>
  <property name="kdenlive:original.meta.media.0.codec.bit_rate">487504</property>
  <property name="kdenlive:original.meta.attr.0.stream.handler_name.markup">VideoHandler</property>
  <property name="kdenlive:original.meta.attr.0.stream.vendor_id.markup">[0][0][0][0]</property>
  <property name="kdenlive:original.meta.attr.0.stream.encoder.markup">Lavc60.3.100 libx264</property>
  <property name="kdenlive:original.meta.attr.major_brand.markup">isom</property>
  <property name="kdenlive:original.meta.attr.minor_version.markup">512</property>
  <property name="kdenlive:original.meta.attr.compatible_brands.markup">isomiso2avc1mp41</property>
  <property name="kdenlive:original.meta.attr.encoder.markup">Lavf60.3.100</property>
  <property name="kdenlive:original.meta.attr.comment.markup">Rendered with Manim Community v0.17.3</property>
  <property name="kdenlive:original.seekable">1</property>
  <property name="kdenlive:original.width">1920</property>
  <property name="kdenlive:original.height">1080</property>
  <property name="kdenlive:original.meta.media.sample_aspect_num">1</property>
  <property name="kdenlive:original.meta.media.sample_aspect_den">1</property>
  <property name="kdenlive:original.format">3</property>
  <property name="kdenlive:original.audio_index">-1</property>
  <property name="kdenlive:original.video_index">0</property>
  <property name="kdenlive:original.meta.media.frame_rate_num">60</property>
  <property name="kdenlive:original.meta.media.frame_rate_den">1</property>
  <property name="kdenlive:original.meta.media.colorspace">709</property>
  <property name="kdenlive:original.meta.media.color_trc">2</property>
  <property name="kdenlive:original.meta.media.has_b_frames">2</property>
  <property name="kdenlive:original.meta.media.width">1920</property>
  <property name="kdenlive:original.meta.media.height">1080</property>
  <property name="kdenlive:original.meta.media.color_range">mpeg</property>
  <property name="kdenlive:original.meta.media.top_field_first">0</property>
  <property name="kdenlive:original.meta.media.progressive">1</property>
  <property name="kdenlive:original.kdenlive:clip_type">2</property>
  <property name="kdenlive:original.kdenlive:folderid">16</property>
  <property name="kdenlive:original.kdenlive:id">28</property>
  <property name="kdenlive:original.mute_on_pause">0</property>
  <property name="kdenlive:original.kdenlive:file_size">62570</property>
  <property name="kdenlive:original.kdenlive:file_hash">8059986b7b1ae5c6ac3ab66b3d790119</property>
  <property name="kdenlive:original.backup">1</property>
  <property name="meta.media.top_field_first">0</property>
  <property name="meta.media.progressive">1</property>
 </chain>
 <chain id="chain415" out="00:00:01.733">
  <property name="length">105</property>
  <property name="eof">pause</property>
  <property name="resource">/home/xiaoxiae/.cache/kdenlive/proxy/76499b6ebb901725141337b12dd360d9.mkv</property>
  <property name="mlt_service">avformat-novalidate</property>
  <property name="meta.media.nb_streams">1</property>
  <property name="meta.media.0.stream.type">video</property>
  <property name="meta.media.0.stream.frame_rate">60</property>
  <property name="meta.media.0.stream.sample_aspect_ratio">0</property>
  <property name="meta.media.0.codec.width">640</property>
  <property name="meta.media.0.codec.height">360</property>
  <property name="meta.media.0.codec.rotate">0</property>
  <property name="meta.media.0.codec.pix_fmt">yuvj420p</property>
  <property name="meta.media.0.codec.sample_aspect_ratio">0</property>
  <property name="meta.media.0.codec.colorspace">601</property>
  <property name="meta.media.0.codec.name">mjpeg</property>
  <property name="meta.media.0.codec.long_name">MJPEG (Motion JPEG)</property>
  <property name="meta.media.0.codec.bit_rate">0</property>
  <property name="meta.attr.0.stream.HANDLER_NAME.markup">VideoHandler</property>
  <property name="meta.attr.0.stream.VENDOR_ID.markup">[0][0][0][0]</property>
  <property name="meta.attr.0.stream.ENCODER.markup">Lavc60.3.100 mjpeg</property>
  <property name="meta.attr.0.stream.DURATION.markup">00:00:01.750000000</property>
  <property name="meta.attr.COMMENT.markup">Rendered with Manim Community v0.17.3</property>
  <property name="meta.attr.MAJOR_BRAND.markup">isom</property>
  <property name="meta.attr.MINOR_VERSION.markup">512</property>
  <property name="meta.attr.COMPATIBLE_BRANDS.markup">isomiso2avc1mp41</property>
  <property name="meta.attr.ENCODER.markup">Lavf60.3.100</property>
  <property name="seekable">1</property>
  <property name="meta.media.sample_aspect_num">1</property>
  <property name="meta.media.sample_aspect_den">1</property>
  <property name="format">3</property>
  <property name="audio_index">-1</property>
  <property name="video_index">0</property>
  <property name="meta.media.frame_rate_num">60</property>
  <property name="meta.media.frame_rate_den">1</property>
  <property name="meta.media.colorspace">601</property>
  <property name="meta.media.color_trc">2</property>
  <property name="meta.media.has_b_frames">0</property>
  <property name="meta.media.width">640</property>
  <property name="meta.media.height">360</property>
  <property name="meta.media.color_range">full</property>
  <property name="kdenlive:clipname">11.mp4</property>
  <property name="kdenlive:clip_type">2</property>
  <property name="kdenlive:folderid">16</property>
  <property name="kdenlive:id">29</property>
  <property name="mute_on_pause">0</property>
  <property name="kdenlive:file_size">160701</property>
  <property name="kdenlive:file_hash">76499b6ebb901725141337b12dd360d9</property>
  <property name="kdenlive:proxy">/home/xiaoxiae/.cache/kdenlive/proxy/76499b6ebb901725141337b12dd360d9.mkv</property>
  <property name="kdenlive:originalurl">video/Farmer/11.mp4</property>
  <property name="kdenlive:original.mlt_type">chain</property>
  <property name="kdenlive:original.in">0</property>
  <property name="kdenlive:original.out">00:00:01.733</property>
  <property name="kdenlive:original.length">105</property>
  <property name="kdenlive:original.eof">pause</property>
  <property name="kdenlive:original.resource">video/Farmer/11.mp4</property>
  <property name="kdenlive:original.mlt_service">avformat-novalidate</property>
  <property name="kdenlive:original.meta.media.nb_streams">1</property>
  <property name="kdenlive:original.meta.media.0.stream.type">video</property>
  <property name="kdenlive:original.meta.media.0.stream.frame_rate">60</property>
  <property name="kdenlive:original.meta.media.0.stream.sample_aspect_ratio">0</property>
  <property name="kdenlive:original.meta.media.0.codec.width">1920</property>
  <property name="kdenlive:original.meta.media.0.codec.height">1080</property>
  <property name="kdenlive:original.meta.media.0.codec.rotate">0</property>
  <property name="kdenlive:original.meta.media.0.codec.pix_fmt">yuv420p</property>
  <property name="kdenlive:original.meta.media.0.codec.sample_aspect_ratio">0</property>
  <property name="kdenlive:original.meta.media.0.codec.colorspace">709</property>
  <property name="kdenlive:original.meta.media.0.codec.name">h264</property>
  <property name="kdenlive:original.meta.media.0.codec.long_name">H.264 / AVC / MPEG-4 AVC / MPEG-4 part 10</property>
  <property name="kdenlive:original.meta.media.0.codec.bit_rate">725106</property>
  <property name="kdenlive:original.meta.attr.0.stream.handler_name.markup">VideoHandler</property>
  <property name="kdenlive:original.meta.attr.0.stream.vendor_id.markup">[0][0][0][0]</property>
  <property name="kdenlive:original.meta.attr.0.stream.encoder.markup">Lavc60.3.100 libx264</property>
  <property name="kdenlive:original.meta.attr.major_brand.markup">isom</property>
  <property name="kdenlive:original.meta.attr.minor_version.markup">512</property>
  <property name="kdenlive:original.meta.attr.compatible_brands.markup">isomiso2avc1mp41</property>
  <property name="kdenlive:original.meta.attr.encoder.markup">Lavf60.3.100</property>
  <property name="kdenlive:original.meta.attr.comment.markup">Rendered with Manim Community v0.17.3</property>
  <property name="kdenlive:original.seekable">1</property>
  <property name="kdenlive:original.width">1920</property>
  <property name="kdenlive:original.height">1080</property>
  <property name="kdenlive:original.meta.media.sample_aspect_num">1</property>
  <property name="kdenlive:original.meta.media.sample_aspect_den">1</property>
  <property name="kdenlive:original.format">3</property>
  <property name="kdenlive:original.audio_index">-1</property>
  <property name="kdenlive:original.video_index">0</property>
  <property name="kdenlive:original.meta.media.frame_rate_num">60</property>
  <property name="kdenlive:original.meta.media.frame_rate_den">1</property>
  <property name="kdenlive:original.meta.media.colorspace">709</property>
  <property name="kdenlive:original.meta.media.color_trc">2</property>
  <property name="kdenlive:original.meta.media.has_b_frames">2</property>
  <property name="kdenlive:original.meta.media.width">1920</property>
  <property name="kdenlive:original.meta.media.height">1080</property>
  <property name="kdenlive:original.meta.media.color_range">mpeg</property>
  <property name="kdenlive:original.meta.media.top_field_first">0</property>
  <property name="kdenlive:original.meta.media.progressive">1</property>
  <property name="kdenlive:original.kdenlive:clip_type">2</property>
  <property name="kdenlive:original.kdenlive:folderid">16</property>
  <property name="kdenlive:original.kdenlive:id">29</property>
  <property name="kdenlive:original.mute_on_pause">0</property>
  <property name="kdenlive:original.kdenlive:file_size">160701</property>
  <property name="kdenlive:original.kdenlive:file_hash">76499b6ebb901725141337b12dd360d9</property>
  <property name="kdenlive:original.backup">1</property>
  <property name="meta.media.top_field_first">0</property>
  <property name="meta.media.progressive">1</property>
 </chain>
 <chain id="chain242" out="00:00:00.983">
  <property name="length">60</property>
  <property name="eof">pause</property>
  <property name="resource">/home/xiaoxiae/.cache/kdenlive/proxy/f87909099f892d1670dd762fd7efddac.mkv</property>
  <property name="mlt_service">avformat-novalidate</property>
  <property name="meta.media.nb_streams">1</property>
  <property name="meta.media.0.stream.type">video</property>
  <property name="meta.media.0.stream.frame_rate">60</property>
  <property name="meta.media.0.stream.sample_aspect_ratio">0</property>
  <property name="meta.media.0.codec.width">640</property>
  <property name="meta.media.0.codec.height">360</property>
  <property name="meta.media.0.codec.rotate">0</property>
  <property name="meta.media.0.codec.pix_fmt">yuvj420p</property>
  <property name="meta.media.0.codec.sample_aspect_ratio">0</property>
  <property name="meta.media.0.codec.colorspace">601</property>
  <property name="meta.media.0.codec.name">mjpeg</property>
  <property name="meta.media.0.codec.long_name">MJPEG (Motion JPEG)</property>
  <property name="meta.media.0.codec.bit_rate">0</property>
  <property name="meta.attr.0.stream.HANDLER_NAME.markup">VideoHandler</property>
  <property name="meta.attr.0.stream.VENDOR_ID.markup">[0][0][0][0]</property>
  <property name="meta.attr.0.stream.ENCODER.markup">Lavc60.3.100 mjpeg</property>
  <property name="meta.attr.0.stream.DURATION.markup">00:00:01.000000000</property>
  <property name="meta.attr.COMMENT.markup">Rendered with Manim Community v0.17.3</property>
  <property name="meta.attr.MAJOR_BRAND.markup">isom</property>
  <property name="meta.attr.MINOR_VERSION.markup">512</property>
  <property name="meta.attr.COMPATIBLE_BRANDS.markup">isomiso2avc1mp41</property>
  <property name="meta.attr.ENCODER.markup">Lavf60.3.100</property>
  <property name="seekable">1</property>
  <property name="meta.media.sample_aspect_num">1</property>
  <property name="meta.media.sample_aspect_den">1</property>
  <property name="format">3</property>
  <property name="audio_index">-1</property>
  <property name="video_index">0</property>
  <property name="meta.media.frame_rate_num">60</property>
  <property name="meta.media.frame_rate_den">1</property>
  <property name="meta.media.colorspace">601</property>
  <property name="meta.media.color_trc">2</property>
  <property name="meta.media.has_b_frames">0</property>
  <property name="meta.media.width">640</property>
  <property name="meta.media.height">360</property>
  <property name="meta.media.color_range">full</property>
  <property name="kdenlive:clipname">110.mp4</property>
  <property name="kdenlive:clip_type">2</property>
  <property name="kdenlive:folderid">16</property>
  <property name="kdenlive:id">30</property>
  <property name="mute_on_pause">0</property>
  <property name="kdenlive:file_size">71932</property>
  <property name="kdenlive:file_hash">f87909099f892d1670dd762fd7efddac</property>
  <property name="kdenlive:proxy">/home/xiaoxiae/.cache/kdenlive/proxy/f87909099f892d1670dd762fd7efddac.mkv</property>
  <property name="kdenlive:originalurl">video/Farmer/110.mp4</property>
  <property name="kdenlive:original.mlt_type">chain</property>
  <property name="kdenlive:original.in">0</property>
  <property name="kdenlive:original.out">00:00:00.983</property>
  <property name="kdenlive:original.length">60</property>
  <property name="kdenlive:original.eof">pause</property>
  <property name="kdenlive:original.resource">video/Farmer/110.mp4</property>
  <property name="kdenlive:original.mlt_service">avformat-novalidate</property>
  <property name="kdenlive:original.meta.media.nb_streams">1</property>
  <property name="kdenlive:original.meta.media.0.stream.type">video</property>
  <property name="kdenlive:original.meta.media.0.stream.frame_rate">60</property>
  <property name="kdenlive:original.meta.media.0.stream.sample_aspect_ratio">0</property>
  <property name="kdenlive:original.meta.media.0.codec.width">1920</property>
  <property name="kdenlive:original.meta.media.0.codec.height">1080</property>
  <property name="kdenlive:original.meta.media.0.codec.rotate">0</property>
  <property name="kdenlive:original.meta.media.0.codec.pix_fmt">yuv420p</property>
  <property name="kdenlive:original.meta.media.0.codec.sample_aspect_ratio">0</property>
  <property name="kdenlive:original.meta.media.0.codec.colorspace">709</property>
  <property name="kdenlive:original.meta.media.0.codec.name">h264</property>
  <property name="kdenlive:original.meta.media.0.codec.long_name">H.264 / AVC / MPEG-4 AVC / MPEG-4 part 10</property>
  <property name="kdenlive:original.meta.media.0.codec.bit_rate">562400</property>
  <property name="kdenlive:original.meta.attr.0.stream.handler_name.markup">VideoHandler</property>
  <property name="kdenlive:original.meta.attr.0.stream.vendor_id.markup">[0][0][0][0]</property>
  <property name="kdenlive:original.meta.attr.0.stream.encoder.markup">Lavc60.3.100 libx264</property>
  <property name="kdenlive:original.meta.attr.major_brand.markup">isom</property>
  <property name="kdenlive:original.meta.attr.minor_version.markup">512</property>
  <property name="kdenlive:original.meta.attr.compatible_brands.markup">isomiso2avc1mp41</property>
  <property name="kdenlive:original.meta.attr.encoder.markup">Lavf60.3.100</property>
  <property name="kdenlive:original.meta.attr.comment.markup">Rendered with Manim Community v0.17.3</property>
  <property name="kdenlive:original.seekable">1</property>
  <property name="kdenlive:original.width">1920</property>
  <property name="kdenlive:original.height">1080</property>
  <property name="kdenlive:original.meta.media.sample_aspect_num">1</property>
  <property name="kdenlive:original.meta.media.sample_aspect_den">1</property>
  <property name="kdenlive:original.format">3</property>
  <property name="kdenlive:original.audio_index">-1</property>
  <property name="kdenlive:original.video_index">0</property>
  <property name="kdenlive:original.meta.media.frame_rate_num">60</property>
  <property name="kdenlive:original.meta.media.frame_rate_den">1</property>
  <property name="kdenlive:original.meta.media.colorspace">709</property>
  <property name="kdenlive:original.meta.media.color_trc">2</property>
  <property name="kdenlive:original.meta.media.has_b_frames">2</property>
  <property name="kdenlive:original.meta.media.width">1920</property>
  <property name="kdenlive:original.meta.media.height">1080</property>
  <property name="kdenlive:original.meta.media.color_range">mpeg</property>
  <property name="kdenlive:original.meta.media.top_field_first">0</property>
  <property name="kdenlive:original.meta.media.progressive">1</property>
  <property name="kdenlive:original.kdenlive:clip_type">2</property>
  <property name="kdenlive:original.kdenlive:folderid">16</property>
  <property name="kdenlive:original.kdenlive:id">30</property>
  <property name="kdenlive:original.mute_on_pause">0</property>
  <property name="kdenlive:original.kdenlive:file_size">71932</property>
  <property name="kdenlive:original.kdenlive:file_hash">f87909099f892d1670dd762fd7efddac</property>
  <property name="kdenlive:original.backup">1</property>
  <property name="meta.media.top_field_first">0</property>
  <property name="meta.media.progressive">1</property>
 </chain>
 <chain id="chain240" out="00:00:00.983">
  <property name="length">60</property>
  <property name="eof">pause</property>
  <property name="resource">/home/xiaoxiae/.cache/kdenlive/proxy/5017ebdfa256986e8938b44135408393.mkv</property>
  <property name="mlt_service">avformat-novalidate</property>
  <property name="meta.media.nb_streams">1</property>
  <property name="meta.media.0.stream.type">video</property>
  <property name="meta.media.0.stream.frame_rate">60</property>
  <property name="meta.media.0.stream.sample_aspect_ratio">0</property>
  <property name="meta.media.0.codec.width">640</property>
  <property name="meta.media.0.codec.height">360</property>
  <property name="meta.media.0.codec.rotate">0</property>
  <property name="meta.media.0.codec.pix_fmt">yuvj420p</property>
  <property name="meta.media.0.codec.sample_aspect_ratio">0</property>
  <property name="meta.media.0.codec.colorspace">601</property>
  <property name="meta.media.0.codec.name">mjpeg</property>
  <property name="meta.media.0.codec.long_name">MJPEG (Motion JPEG)</property>
  <property name="meta.media.0.codec.bit_rate">0</property>
  <property name="meta.attr.0.stream.HANDLER_NAME.markup">VideoHandler</property>
  <property name="meta.attr.0.stream.VENDOR_ID.markup">[0][0][0][0]</property>
  <property name="meta.attr.0.stream.ENCODER.markup">Lavc60.3.100 mjpeg</property>
  <property name="meta.attr.0.stream.DURATION.markup">00:00:01.000000000</property>
  <property name="meta.attr.COMMENT.markup">Rendered with Manim Community v0.17.3</property>
  <property name="meta.attr.MAJOR_BRAND.markup">isom</property>
  <property name="meta.attr.MINOR_VERSION.markup">512</property>
  <property name="meta.attr.COMPATIBLE_BRANDS.markup">isomiso2avc1mp41</property>
  <property name="meta.attr.ENCODER.markup">Lavf60.3.100</property>
  <property name="seekable">1</property>
  <property name="meta.media.sample_aspect_num">1</property>
  <property name="meta.media.sample_aspect_den">1</property>
  <property name="format">3</property>
  <property name="audio_index">-1</property>
  <property name="video_index">0</property>
  <property name="meta.media.frame_rate_num">60</property>
  <property name="meta.media.frame_rate_den">1</property>
  <property name="meta.media.colorspace">601</property>
  <property name="meta.media.color_trc">2</property>
  <property name="meta.media.has_b_frames">0</property>
  <property name="meta.media.width">640</property>
  <property name="meta.media.height">360</property>
  <property name="meta.media.color_range">full</property>
  <property name="kdenlive:clipname">111.mp4</property>
  <property name="kdenlive:clip_type">2</property>
  <property name="kdenlive:folderid">16</property>
  <property name="kdenlive:id">31</property>
  <property name="mute_on_pause">0</property>
  <property name="kdenlive:file_size">70833</property>
  <property name="kdenlive:file_hash">5017ebdfa256986e8938b44135408393</property>
  <property name="kdenlive:proxy">/home/xiaoxiae/.cache/kdenlive/proxy/5017ebdfa256986e8938b44135408393.mkv</property>
  <property name="kdenlive:originalurl">video/Farmer/111.mp4</property>
  <property name="kdenlive:original.mlt_type">chain</property>
  <property name="kdenlive:original.in">0</property>
  <property name="kdenlive:original.out">00:00:00.983</property>
  <property name="kdenlive:original.length">60</property>
  <property name="kdenlive:original.eof">pause</property>
  <property name="kdenlive:original.resource">video/Farmer/111.mp4</property>
  <property name="kdenlive:original.mlt_service">avformat-novalidate</property>
  <property name="kdenlive:original.meta.media.nb_streams">1</property>
  <property name="kdenlive:original.meta.media.0.stream.type">video</property>
  <property name="kdenlive:original.meta.media.0.stream.frame_rate">60</property>
  <property name="kdenlive:original.meta.media.0.stream.sample_aspect_ratio">0</property>
  <property name="kdenlive:original.meta.media.0.codec.width">1920</property>
  <property name="kdenlive:original.meta.media.0.codec.height">1080</property>
  <property name="kdenlive:original.meta.media.0.codec.rotate">0</property>
  <property name="kdenlive:original.meta.media.0.codec.pix_fmt">yuv420p</property>
  <property name="kdenlive:original.meta.media.0.codec.sample_aspect_ratio">0</property>
  <property name="kdenlive:original.meta.media.0.codec.colorspace">709</property>
  <property name="kdenlive:original.meta.media.0.codec.name">h264</property>
  <property name="kdenlive:original.meta.media.0.codec.long_name">H.264 / AVC / MPEG-4 AVC / MPEG-4 part 10</property>
  <property name="kdenlive:original.meta.media.0.codec.bit_rate">553608</property>
  <property name="kdenlive:original.meta.attr.0.stream.handler_name.markup">VideoHandler</property>
  <property name="kdenlive:original.meta.attr.0.stream.vendor_id.markup">[0][0][0][0]</property>
  <property name="kdenlive:original.meta.attr.0.stream.encoder.markup">Lavc60.3.100 libx264</property>
  <property name="kdenlive:original.meta.attr.major_brand.markup">isom</property>
  <property name="kdenlive:original.meta.attr.minor_version.markup">512</property>
  <property name="kdenlive:original.meta.attr.compatible_brands.markup">isomiso2avc1mp41</property>
  <property name="kdenlive:original.meta.attr.encoder.markup">Lavf60.3.100</property>
  <property name="kdenlive:original.meta.attr.comment.markup">Rendered with Manim Community v0.17.3</property>
  <property name="kdenlive:original.seekable">1</property>
  <property name="kdenlive:original.width">1920</property>
  <property name="kdenlive:original.height">1080</property>
  <property name="kdenlive:original.meta.media.sample_aspect_num">1</property>
  <property name="kdenlive:original.meta.media.sample_aspect_den">1</property>
  <property name="kdenlive:original.format">3</property>
  <property name="kdenlive:original.audio_index">-1</property>
  <property name="kdenlive:original.video_index">0</property>
  <property name="kdenlive:original.meta.media.frame_rate_num">60</property>
  <property name="kdenlive:original.meta.media.frame_rate_den">1</property>
  <property name="kdenlive:original.meta.media.colorspace">709</property>
  <property name="kdenlive:original.meta.media.color_trc">2</property>
  <property name="kdenlive:original.meta.media.has_b_frames">2</property>
  <property name="kdenlive:original.meta.media.width">1920</property>
  <property name="kdenlive:original.meta.media.height">1080</property>
  <property name="kdenlive:original.meta.media.color_range">mpeg</property>
  <property name="kdenlive:original.meta.media.top_field_first">0</property>
  <property name="kdenlive:original.meta.media.progressive">1</property>
  <property name="kdenlive:original.kdenlive:clip_type">2</property>
  <property name="kdenlive:original.kdenlive:folderid">16</property>
  <property name="kdenlive:original.kdenlive:id">31</property>
  <property name="kdenlive:original.mute_on_pause">0</property>
  <property name="kdenlive:original.kdenlive:file_size">70833</property>
  <property name="kdenlive:original.kdenlive:file_hash">5017ebdfa256986e8938b44135408393</property>
  <property name="kdenlive:original.backup">1</property>
  <property name="meta.media.top_field_first">0</property>
  <property name="meta.media.progressive">1</property>
 </chain>
 <chain id="chain239" out="00:00:00.983">
  <property name="length">60</property>
  <property name="eof">pause</property>
  <property name="resource">/home/xiaoxiae/.cache/kdenlive/proxy/7b8f60271a35bb53a0b415397e112095.mkv</property>
  <property name="mlt_service">avformat-novalidate</property>
  <property name="meta.media.nb_streams">1</property>
  <property name="meta.media.0.stream.type">video</property>
  <property name="meta.media.0.stream.frame_rate">60</property>
  <property name="meta.media.0.stream.sample_aspect_ratio">0</property>
  <property name="meta.media.0.codec.width">640</property>
  <property name="meta.media.0.codec.height">360</property>
  <property name="meta.media.0.codec.rotate">0</property>
  <property name="meta.media.0.codec.pix_fmt">yuvj420p</property>
  <property name="meta.media.0.codec.sample_aspect_ratio">0</property>
  <property name="meta.media.0.codec.colorspace">601</property>
  <property name="meta.media.0.codec.name">mjpeg</property>
  <property name="meta.media.0.codec.long_name">MJPEG (Motion JPEG)</property>
  <property name="meta.media.0.codec.bit_rate">0</property>
  <property name="meta.attr.0.stream.HANDLER_NAME.markup">VideoHandler</property>
  <property name="meta.attr.0.stream.VENDOR_ID.markup">[0][0][0][0]</property>
  <property name="meta.attr.0.stream.ENCODER.markup">Lavc60.3.100 mjpeg</property>
  <property name="meta.attr.0.stream.DURATION.markup">00:00:01.000000000</property>
  <property name="meta.attr.COMMENT.markup">Rendered with Manim Community v0.17.3</property>
  <property name="meta.attr.MAJOR_BRAND.markup">isom</property>
  <property name="meta.attr.MINOR_VERSION.markup">512</property>
  <property name="meta.attr.COMPATIBLE_BRANDS.markup">isomiso2avc1mp41</property>
  <property name="meta.attr.ENCODER.markup">Lavf60.3.100</property>
  <property name="seekable">1</property>
  <property name="meta.media.sample_aspect_num">1</property>
  <property name="meta.media.sample_aspect_den">1</property>
  <property name="format">3</property>
  <property name="audio_index">-1</property>
  <property name="video_index">0</property>
  <property name="meta.media.frame_rate_num">60</property>
  <property name="meta.media.frame_rate_den">1</property>
  <property name="meta.media.colorspace">601</property>
  <property name="meta.media.color_trc">2</property>
  <property name="meta.media.has_b_frames">0</property>
  <property name="meta.media.width">640</property>
  <property name="meta.media.height">360</property>
  <property name="meta.media.color_range">full</property>
  <property name="kdenlive:clipname">112.mp4</property>
  <property name="kdenlive:clip_type">2</property>
  <property name="kdenlive:folderid">16</property>
  <property name="kdenlive:id">32</property>
  <property name="mute_on_pause">0</property>
  <property name="kdenlive:file_size">83607</property>
  <property name="kdenlive:file_hash">7b8f60271a35bb53a0b415397e112095</property>
  <property name="kdenlive:proxy">/home/xiaoxiae/.cache/kdenlive/proxy/7b8f60271a35bb53a0b415397e112095.mkv</property>
  <property name="kdenlive:originalurl">video/Farmer/112.mp4</property>
  <property name="kdenlive:original.mlt_type">chain</property>
  <property name="kdenlive:original.in">0</property>
  <property name="kdenlive:original.out">00:00:00.983</property>
  <property name="kdenlive:original.length">60</property>
  <property name="kdenlive:original.eof">pause</property>
  <property name="kdenlive:original.resource">video/Farmer/112.mp4</property>
  <property name="kdenlive:original.mlt_service">avformat-novalidate</property>
  <property name="kdenlive:original.meta.media.nb_streams">1</property>
  <property name="kdenlive:original.meta.media.0.stream.type">video</property>
  <property name="kdenlive:original.meta.media.0.stream.frame_rate">60</property>
  <property name="kdenlive:original.meta.media.0.stream.sample_aspect_ratio">0</property>
  <property name="kdenlive:original.meta.media.0.codec.width">1920</property>
  <property name="kdenlive:original.meta.media.0.codec.height">1080</property>
  <property name="kdenlive:original.meta.media.0.codec.rotate">0</property>
  <property name="kdenlive:original.meta.media.0.codec.pix_fmt">yuv420p</property>
  <property name="kdenlive:original.meta.media.0.codec.sample_aspect_ratio">0</property>
  <property name="kdenlive:original.meta.media.0.codec.colorspace">709</property>
  <property name="kdenlive:original.meta.media.0.codec.name">h264</property>
  <property name="kdenlive:original.meta.media.0.codec.long_name">H.264 / AVC / MPEG-4 AVC / MPEG-4 part 10</property>
  <property name="kdenlive:original.meta.media.0.codec.bit_rate">655800</property>
  <property name="kdenlive:original.meta.attr.0.stream.handler_name.markup">VideoHandler</property>
  <property name="kdenlive:original.meta.attr.0.stream.vendor_id.markup">[0][0][0][0]</property>
  <property name="kdenlive:original.meta.attr.0.stream.encoder.markup">Lavc60.3.100 libx264</property>
  <property name="kdenlive:original.meta.attr.major_brand.markup">isom</property>
  <property name="kdenlive:original.meta.attr.minor_version.markup">512</property>
  <property name="kdenlive:original.meta.attr.compatible_brands.markup">isomiso2avc1mp41</property>
  <property name="kdenlive:original.meta.attr.encoder.markup">Lavf60.3.100</property>
  <property name="kdenlive:original.meta.attr.comment.markup">Rendered with Manim Community v0.17.3</property>
  <property name="kdenlive:original.seekable">1</property>
  <property name="kdenlive:original.width">1920</property>
  <property name="kdenlive:original.height">1080</property>
  <property name="kdenlive:original.meta.media.sample_aspect_num">1</property>
  <property name="kdenlive:original.meta.media.sample_aspect_den">1</property>
  <property name="kdenlive:original.format">3</property>
  <property name="kdenlive:original.audio_index">-1</property>
  <property name="kdenlive:original.video_index">0</property>
  <property name="kdenlive:original.meta.media.frame_rate_num">60</property>
  <property name="kdenlive:original.meta.media.frame_rate_den">1</property>
  <property name="kdenlive:original.meta.media.colorspace">709</property>
  <property name="kdenlive:original.meta.media.color_trc">2</property>
  <property name="kdenlive:original.meta.media.has_b_frames">2</property>
  <property name="kdenlive:original.meta.media.width">1920</property>
  <property name="kdenlive:original.meta.media.height">1080</property>
  <property name="kdenlive:original.meta.media.color_range">mpeg</property>
  <property name="kdenlive:original.meta.media.top_field_first">0</property>
  <property name="kdenlive:original.meta.media.progressive">1</property>
  <property name="kdenlive:original.kdenlive:clip_type">2</property>
  <property name="kdenlive:original.kdenlive:folderid">16</property>
  <property name="kdenlive:original.kdenlive:id">32</property>
  <property name="kdenlive:original.mute_on_pause">0</property>
  <property name="kdenlive:original.kdenlive:file_size">83607</property>
  <property name="kdenlive:original.kdenlive:file_hash">7b8f60271a35bb53a0b415397e112095</property>
  <property name="kdenlive:original.backup">1</property>
  <property name="meta.media.top_field_first">0</property>
  <property name="meta.media.progressive">1</property>
 </chain>
 <chain id="chain237" out="00:00:00.983">
  <property name="length">60</property>
  <property name="eof">pause</property>
  <property name="resource">/home/xiaoxiae/.cache/kdenlive/proxy/da53afb7764ebcbf8ed090ec06cc2fce.mkv</property>
  <property name="mlt_service">avformat-novalidate</property>
  <property name="meta.media.nb_streams">1</property>
  <property name="meta.media.0.stream.type">video</property>
  <property name="meta.media.0.stream.frame_rate">60</property>
  <property name="meta.media.0.stream.sample_aspect_ratio">0</property>
  <property name="meta.media.0.codec.width">640</property>
  <property name="meta.media.0.codec.height">360</property>
  <property name="meta.media.0.codec.rotate">0</property>
  <property name="meta.media.0.codec.pix_fmt">yuvj420p</property>
  <property name="meta.media.0.codec.sample_aspect_ratio">0</property>
  <property name="meta.media.0.codec.colorspace">601</property>
  <property name="meta.media.0.codec.name">mjpeg</property>
  <property name="meta.media.0.codec.long_name">MJPEG (Motion JPEG)</property>
  <property name="meta.media.0.codec.bit_rate">0</property>
  <property name="meta.attr.0.stream.HANDLER_NAME.markup">VideoHandler</property>
  <property name="meta.attr.0.stream.VENDOR_ID.markup">[0][0][0][0]</property>
  <property name="meta.attr.0.stream.ENCODER.markup">Lavc60.3.100 mjpeg</property>
  <property name="meta.attr.0.stream.DURATION.markup">00:00:01.000000000</property>
  <property name="meta.attr.COMMENT.markup">Rendered with Manim Community v0.17.3</property>
  <property name="meta.attr.MAJOR_BRAND.markup">isom</property>
  <property name="meta.attr.MINOR_VERSION.markup">512</property>
  <property name="meta.attr.COMPATIBLE_BRANDS.markup">isomiso2avc1mp41</property>
  <property name="meta.attr.ENCODER.markup">Lavf60.3.100</property>
  <property name="seekable">1</property>
  <property name="meta.media.sample_aspect_num">1</property>
  <property name="meta.media.sample_aspect_den">1</property>
  <property name="format">3</property>
  <property name="audio_index">-1</property>
  <property name="video_index">0</property>
  <property name="meta.media.frame_rate_num">60</property>
  <property name="meta.media.frame_rate_den">1</property>
  <property name="meta.media.colorspace">601</property>
  <property name="meta.media.color_trc">2</property>
  <property name="meta.media.has_b_frames">0</property>
  <property name="meta.media.width">640</property>
  <property name="meta.media.height">360</property>
  <property name="meta.media.color_range">full</property>
  <property name="kdenlive:clipname">113.mp4</property>
  <property name="kdenlive:clip_type">2</property>
  <property name="kdenlive:folderid">16</property>
  <property name="kdenlive:id">33</property>
  <property name="mute_on_pause">0</property>
  <property name="kdenlive:file_size">64845</property>
  <property name="kdenlive:file_hash">da53afb7764ebcbf8ed090ec06cc2fce</property>
  <property name="kdenlive:proxy">/home/xiaoxiae/.cache/kdenlive/proxy/da53afb7764ebcbf8ed090ec06cc2fce.mkv</property>
  <property name="kdenlive:originalurl">video/Farmer/113.mp4</property>
  <property name="kdenlive:original.mlt_type">chain</property>
  <property name="kdenlive:original.in">0</property>
  <property name="kdenlive:original.out">00:00:00.983</property>
  <property name="kdenlive:original.length">60</property>
  <property name="kdenlive:original.eof">pause</property>
  <property name="kdenlive:original.resource">video/Farmer/113.mp4</property>
  <property name="kdenlive:original.mlt_service">avformat-novalidate</property>
  <property name="kdenlive:original.meta.media.nb_streams">1</property>
  <property name="kdenlive:original.meta.media.0.stream.type">video</property>
  <property name="kdenlive:original.meta.media.0.stream.frame_rate">60</property>
  <property name="kdenlive:original.meta.media.0.stream.sample_aspect_ratio">0</property>
  <property name="kdenlive:original.meta.media.0.codec.width">1920</property>
  <property name="kdenlive:original.meta.media.0.codec.height">1080</property>
  <property name="kdenlive:original.meta.media.0.codec.rotate">0</property>
  <property name="kdenlive:original.meta.media.0.codec.pix_fmt">yuv420p</property>
  <property name="kdenlive:original.meta.media.0.codec.sample_aspect_ratio">0</property>
  <property name="kdenlive:original.meta.media.0.codec.colorspace">709</property>
  <property name="kdenlive:original.meta.media.0.codec.name">h264</property>
  <property name="kdenlive:original.meta.media.0.codec.long_name">H.264 / AVC / MPEG-4 AVC / MPEG-4 part 10</property>
  <property name="kdenlive:original.meta.media.0.codec.bit_rate">505704</property>
  <property name="kdenlive:original.meta.attr.0.stream.handler_name.markup">VideoHandler</property>
  <property name="kdenlive:original.meta.attr.0.stream.vendor_id.markup">[0][0][0][0]</property>
  <property name="kdenlive:original.meta.attr.0.stream.encoder.markup">Lavc60.3.100 libx264</property>
  <property name="kdenlive:original.meta.attr.major_brand.markup">isom</property>
  <property name="kdenlive:original.meta.attr.minor_version.markup">512</property>
  <property name="kdenlive:original.meta.attr.compatible_brands.markup">isomiso2avc1mp41</property>
  <property name="kdenlive:original.meta.attr.encoder.markup">Lavf60.3.100</property>
  <property name="kdenlive:original.meta.attr.comment.markup">Rendered with Manim Community v0.17.3</property>
  <property name="kdenlive:original.seekable">1</property>
  <property name="kdenlive:original.width">1920</property>
  <property name="kdenlive:original.height">1080</property>
  <property name="kdenlive:original.meta.media.sample_aspect_num">1</property>
  <property name="kdenlive:original.meta.media.sample_aspect_den">1</property>
  <property name="kdenlive:original.format">3</property>
  <property name="kdenlive:original.audio_index">-1</property>
  <property name="kdenlive:original.video_index">0</property>
  <property name="kdenlive:original.meta.media.frame_rate_num">60</property>
  <property name="kdenlive:original.meta.media.frame_rate_den">1</property>
  <property name="kdenlive:original.meta.media.colorspace">709</property>
  <property name="kdenlive:original.meta.media.color_trc">2</property>
  <property name="kdenlive:original.meta.media.has_b_frames">2</property>
  <property name="kdenlive:original.meta.media.width">1920</property>
  <property name="kdenlive:original.meta.media.height">1080</property>
  <property name="kdenlive:original.meta.media.color_range">mpeg</property>
  <property name="kdenlive:original.meta.media.top_field_first">0</property>
  <property name="kdenlive:original.meta.media.progressive">1</property>
  <property name="kdenlive:original.kdenlive:clip_type">2</property>
  <property name="kdenlive:original.kdenlive:folderid">16</property>
  <property name="kdenlive:original.kdenlive:id">33</property>
  <property name="kdenlive:original.mute_on_pause">0</property>
  <property name="kdenlive:original.kdenlive:file_size">64845</property>
  <property name="kdenlive:original.kdenlive:file_hash">da53afb7764ebcbf8ed090ec06cc2fce</property>
  <property name="kdenlive:original.backup">1</property>
  <property name="meta.media.top_field_first">0</property>
  <property name="meta.media.progressive">1</property>
 </chain>
 <chain id="chain234" out="00:00:00.983">
  <property name="length">60</property>
  <property name="eof">pause</property>
  <property name="resource">/home/xiaoxiae/.cache/kdenlive/proxy/4e8b89a822d29d4ab46adeb16c978261.mkv</property>
  <property name="mlt_service">avformat-novalidate</property>
  <property name="meta.media.nb_streams">1</property>
  <property name="meta.media.0.stream.type">video</property>
  <property name="meta.media.0.stream.frame_rate">60</property>
  <property name="meta.media.0.stream.sample_aspect_ratio">0</property>
  <property name="meta.media.0.codec.width">640</property>
  <property name="meta.media.0.codec.height">360</property>
  <property name="meta.media.0.codec.rotate">0</property>
  <property name="meta.media.0.codec.pix_fmt">yuvj420p</property>
  <property name="meta.media.0.codec.sample_aspect_ratio">0</property>
  <property name="meta.media.0.codec.colorspace">601</property>
  <property name="meta.media.0.codec.name">mjpeg</property>
  <property name="meta.media.0.codec.long_name">MJPEG (Motion JPEG)</property>
  <property name="meta.media.0.codec.bit_rate">0</property>
  <property name="meta.attr.0.stream.HANDLER_NAME.markup">VideoHandler</property>
  <property name="meta.attr.0.stream.VENDOR_ID.markup">[0][0][0][0]</property>
  <property name="meta.attr.0.stream.ENCODER.markup">Lavc60.3.100 mjpeg</property>
  <property name="meta.attr.0.stream.DURATION.markup">00:00:01.000000000</property>
  <property name="meta.attr.COMMENT.markup">Rendered with Manim Community v0.17.3</property>
  <property name="meta.attr.MAJOR_BRAND.markup">isom</property>
  <property name="meta.attr.MINOR_VERSION.markup">512</property>
  <property name="meta.attr.COMPATIBLE_BRANDS.markup">isomiso2avc1mp41</property>
  <property name="meta.attr.ENCODER.markup">Lavf60.3.100</property>
  <property name="seekable">1</property>
  <property name="meta.media.sample_aspect_num">1</property>
  <property name="meta.media.sample_aspect_den">1</property>
  <property name="format">3</property>
  <property name="audio_index">-1</property>
  <property name="video_index">0</property>
  <property name="meta.media.frame_rate_num">60</property>
  <property name="meta.media.frame_rate_den">1</property>
  <property name="meta.media.colorspace">601</property>
  <property name="meta.media.color_trc">2</property>
  <property name="meta.media.has_b_frames">0</property>
  <property name="meta.media.width">640</property>
  <property name="meta.media.height">360</property>
  <property name="meta.media.color_range">full</property>
  <property name="kdenlive:clipname">114.mp4</property>
  <property name="kdenlive:clip_type">2</property>
  <property name="kdenlive:folderid">16</property>
  <property name="kdenlive:id">34</property>
  <property name="mute_on_pause">0</property>
  <property name="kdenlive:file_size">72343</property>
  <property name="kdenlive:file_hash">4e8b89a822d29d4ab46adeb16c978261</property>
  <property name="kdenlive:proxy">/home/xiaoxiae/.cache/kdenlive/proxy/4e8b89a822d29d4ab46adeb16c978261.mkv</property>
  <property name="kdenlive:originalurl">video/Farmer/114.mp4</property>
  <property name="kdenlive:original.mlt_type">chain</property>
  <property name="kdenlive:original.in">0</property>
  <property name="kdenlive:original.out">00:00:00.983</property>
  <property name="kdenlive:original.length">60</property>
  <property name="kdenlive:original.eof">pause</property>
  <property name="kdenlive:original.resource">video/Farmer/114.mp4</property>
  <property name="kdenlive:original.mlt_service">avformat-novalidate</property>
  <property name="kdenlive:original.meta.media.nb_streams">1</property>
  <property name="kdenlive:original.meta.media.0.stream.type">video</property>
  <property name="kdenlive:original.meta.media.0.stream.frame_rate">60</property>
  <property name="kdenlive:original.meta.media.0.stream.sample_aspect_ratio">0</property>
  <property name="kdenlive:original.meta.media.0.codec.width">1920</property>
  <property name="kdenlive:original.meta.media.0.codec.height">1080</property>
  <property name="kdenlive:original.meta.media.0.codec.rotate">0</property>
  <property name="kdenlive:original.meta.media.0.codec.pix_fmt">yuv420p</property>
  <property name="kdenlive:original.meta.media.0.codec.sample_aspect_ratio">0</property>
  <property name="kdenlive:original.meta.media.0.codec.colorspace">709</property>
  <property name="kdenlive:original.meta.media.0.codec.name">h264</property>
  <property name="kdenlive:original.meta.media.0.codec.long_name">H.264 / AVC / MPEG-4 AVC / MPEG-4 part 10</property>
  <property name="kdenlive:original.meta.media.0.codec.bit_rate">565752</property>
  <property name="kdenlive:original.meta.attr.0.stream.handler_name.markup">VideoHandler</property>
  <property name="kdenlive:original.meta.attr.0.stream.vendor_id.markup">[0][0][0][0]</property>
  <property name="kdenlive:original.meta.attr.0.stream.encoder.markup">Lavc60.3.100 libx264</property>
  <property name="kdenlive:original.meta.attr.major_brand.markup">isom</property>
  <property name="kdenlive:original.meta.attr.minor_version.markup">512</property>
  <property name="kdenlive:original.meta.attr.compatible_brands.markup">isomiso2avc1mp41</property>
  <property name="kdenlive:original.meta.attr.encoder.markup">Lavf60.3.100</property>
  <property name="kdenlive:original.meta.attr.comment.markup">Rendered with Manim Community v0.17.3</property>
  <property name="kdenlive:original.seekable">1</property>
  <property name="kdenlive:original.width">1920</property>
  <property name="kdenlive:original.height">1080</property>
  <property name="kdenlive:original.meta.media.sample_aspect_num">1</property>
  <property name="kdenlive:original.meta.media.sample_aspect_den">1</property>
  <property name="kdenlive:original.format">3</property>
  <property name="kdenlive:original.audio_index">-1</property>
  <property name="kdenlive:original.video_index">0</property>
  <property name="kdenlive:original.meta.media.frame_rate_num">60</property>
  <property name="kdenlive:original.meta.media.frame_rate_den">1</property>
  <property name="kdenlive:original.meta.media.colorspace">709</property>
  <property name="kdenlive:original.meta.media.color_trc">2</property>
  <property name="kdenlive:original.meta.media.has_b_frames">2</property>
  <property name="kdenlive:original.meta.media.width">1920</property>
  <property name="kdenlive:original.meta.media.height">1080</property>
  <property name="kdenlive:original.meta.media.color_range">mpeg</property>
  <property name="kdenlive:original.meta.media.top_field_first">0</property>
  <property name="kdenlive:original.meta.media.progressive">1</property>
  <property name="kdenlive:original.kdenlive:clip_type">2</property>
  <property name="kdenlive:original.kdenlive:folderid">16</property>
  <property name="kdenlive:original.kdenlive:id">34</property>
  <property name="kdenlive:original.mute_on_pause">0</property>
  <property name="kdenlive:original.kdenlive:file_size">72343</property>
  <property name="kdenlive:original.kdenlive:file_hash">4e8b89a822d29d4ab46adeb16c978261</property>
  <property name="kdenlive:original.backup">1</property>
  <property name="meta.media.top_field_first">0</property>
  <property name="meta.media.progressive">1</property>
 </chain>
 <chain id="chain233" out="00:00:00.983">
  <property name="length">60</property>
  <property name="eof">pause</property>
  <property name="resource">/home/xiaoxiae/.cache/kdenlive/proxy/e5c1d76654ad595a93b891fb15daa95a.mkv</property>
  <property name="mlt_service">avformat-novalidate</property>
  <property name="meta.media.nb_streams">1</property>
  <property name="meta.media.0.stream.type">video</property>
  <property name="meta.media.0.stream.frame_rate">60</property>
  <property name="meta.media.0.stream.sample_aspect_ratio">0</property>
  <property name="meta.media.0.codec.width">640</property>
  <property name="meta.media.0.codec.height">360</property>
  <property name="meta.media.0.codec.rotate">0</property>
  <property name="meta.media.0.codec.pix_fmt">yuvj420p</property>
  <property name="meta.media.0.codec.sample_aspect_ratio">0</property>
  <property name="meta.media.0.codec.colorspace">601</property>
  <property name="meta.media.0.codec.name">mjpeg</property>
  <property name="meta.media.0.codec.long_name">MJPEG (Motion JPEG)</property>
  <property name="meta.media.0.codec.bit_rate">0</property>
  <property name="meta.attr.0.stream.HANDLER_NAME.markup">VideoHandler</property>
  <property name="meta.attr.0.stream.VENDOR_ID.markup">[0][0][0][0]</property>
  <property name="meta.attr.0.stream.ENCODER.markup">Lavc60.3.100 mjpeg</property>
  <property name="meta.attr.0.stream.DURATION.markup">00:00:01.000000000</property>
  <property name="meta.attr.COMMENT.markup">Rendered with Manim Community v0.17.3</property>
  <property name="meta.attr.MAJOR_BRAND.markup">isom</property>
  <property name="meta.attr.MINOR_VERSION.markup">512</property>
  <property name="meta.attr.COMPATIBLE_BRANDS.markup">isomiso2avc1mp41</property>
  <property name="meta.attr.ENCODER.markup">Lavf60.3.100</property>
  <property name="seekable">1</property>
  <property name="meta.media.sample_aspect_num">1</property>
  <property name="meta.media.sample_aspect_den">1</property>
  <property name="format">3</property>
  <property name="audio_index">-1</property>
  <property name="video_index">0</property>
  <property name="meta.media.frame_rate_num">60</property>
  <property name="meta.media.frame_rate_den">1</property>
  <property name="meta.media.colorspace">601</property>
  <property name="meta.media.color_trc">2</property>
  <property name="meta.media.has_b_frames">0</property>
  <property name="meta.media.width">640</property>
  <property name="meta.media.height">360</property>
  <property name="meta.media.color_range">full</property>
  <property name="kdenlive:clipname">115.mp4</property>
  <property name="kdenlive:clip_type">2</property>
  <property name="kdenlive:folderid">16</property>
  <property name="kdenlive:id">35</property>
  <property name="mute_on_pause">0</property>
  <property name="kdenlive:file_size">63595</property>
  <property name="kdenlive:file_hash">e5c1d76654ad595a93b891fb15daa95a</property>
  <property name="kdenlive:proxy">/home/xiaoxiae/.cache/kdenlive/proxy/e5c1d76654ad595a93b891fb15daa95a.mkv</property>
  <property name="kdenlive:originalurl">video/Farmer/115.mp4</property>
  <property name="kdenlive:original.mlt_type">chain</property>
  <property name="kdenlive:original.in">0</property>
  <property name="kdenlive:original.out">00:00:00.983</property>
  <property name="kdenlive:original.length">60</property>
  <property name="kdenlive:original.eof">pause</property>
  <property name="kdenlive:original.resource">video/Farmer/115.mp4</property>
  <property name="kdenlive:original.mlt_service">avformat-novalidate</property>
  <property name="kdenlive:original.meta.media.nb_streams">1</property>
  <property name="kdenlive:original.meta.media.0.stream.type">video</property>
  <property name="kdenlive:original.meta.media.0.stream.frame_rate">60</property>
  <property name="kdenlive:original.meta.media.0.stream.sample_aspect_ratio">0</property>
  <property name="kdenlive:original.meta.media.0.codec.width">1920</property>
  <property name="kdenlive:original.meta.media.0.codec.height">1080</property>
  <property name="kdenlive:original.meta.media.0.codec.rotate">0</property>
  <property name="kdenlive:original.meta.media.0.codec.pix_fmt">yuv420p</property>
  <property name="kdenlive:original.meta.media.0.codec.sample_aspect_ratio">0</property>
  <property name="kdenlive:original.meta.media.0.codec.colorspace">709</property>
  <property name="kdenlive:original.meta.media.0.codec.name">h264</property>
  <property name="kdenlive:original.meta.media.0.codec.long_name">H.264 / AVC / MPEG-4 AVC / MPEG-4 part 10</property>
  <property name="kdenlive:original.meta.media.0.codec.bit_rate">495704</property>
  <property name="kdenlive:original.meta.attr.0.stream.handler_name.markup">VideoHandler</property>
  <property name="kdenlive:original.meta.attr.0.stream.vendor_id.markup">[0][0][0][0]</property>
  <property name="kdenlive:original.meta.attr.0.stream.encoder.markup">Lavc60.3.100 libx264</property>
  <property name="kdenlive:original.meta.attr.major_brand.markup">isom</property>
  <property name="kdenlive:original.meta.attr.minor_version.markup">512</property>
  <property name="kdenlive:original.meta.attr.compatible_brands.markup">isomiso2avc1mp41</property>
  <property name="kdenlive:original.meta.attr.encoder.markup">Lavf60.3.100</property>
  <property name="kdenlive:original.meta.attr.comment.markup">Rendered with Manim Community v0.17.3</property>
  <property name="kdenlive:original.seekable">1</property>
  <property name="kdenlive:original.width">1920</property>
  <property name="kdenlive:original.height">1080</property>
  <property name="kdenlive:original.meta.media.sample_aspect_num">1</property>
  <property name="kdenlive:original.meta.media.sample_aspect_den">1</property>
  <property name="kdenlive:original.format">3</property>
  <property name="kdenlive:original.audio_index">-1</property>
  <property name="kdenlive:original.video_index">0</property>
  <property name="kdenlive:original.meta.media.frame_rate_num">60</property>
  <property name="kdenlive:original.meta.media.frame_rate_den">1</property>
  <property name="kdenlive:original.meta.media.colorspace">709</property>
  <property name="kdenlive:original.meta.media.color_trc">2</property>
  <property name="kdenlive:original.meta.media.has_b_frames">2</property>
  <property name="kdenlive:original.meta.media.width">1920</property>
  <property name="kdenlive:original.meta.media.height">1080</property>
  <property name="kdenlive:original.meta.media.color_range">mpeg</property>
  <property name="kdenlive:original.meta.media.top_field_first">0</property>
  <property name="kdenlive:original.meta.media.progressive">1</property>
  <property name="kdenlive:original.kdenlive:clip_type">2</property>
  <property name="kdenlive:original.kdenlive:folderid">16</property>
  <property name="kdenlive:original.kdenlive:id">35</property>
  <property name="kdenlive:original.mute_on_pause">0</property>
  <property name="kdenlive:original.kdenlive:file_size">63595</property>
  <property name="kdenlive:original.kdenlive:file_hash">e5c1d76654ad595a93b891fb15daa95a</property>
  <property name="kdenlive:original.backup">1</property>
  <property name="meta.media.top_field_first">0</property>
  <property name="meta.media.progressive">1</property>
 </chain>
 <chain id="chain232" out="00:00:00.983">
  <property name="length">60</property>
  <property name="eof">pause</property>
  <property name="resource">/home/xiaoxiae/.cache/kdenlive/proxy/456664142d7e4a39a1a8d1b6b06937ff.mkv</property>
  <property name="mlt_service">avformat-novalidate</property>
  <property name="meta.media.nb_streams">1</property>
  <property name="meta.media.0.stream.type">video</property>
  <property name="meta.media.0.stream.frame_rate">60</property>
  <property name="meta.media.0.stream.sample_aspect_ratio">0</property>
  <property name="meta.media.0.codec.width">640</property>
  <property name="meta.media.0.codec.height">360</property>
  <property name="meta.media.0.codec.rotate">0</property>
  <property name="meta.media.0.codec.pix_fmt">yuvj420p</property>
  <property name="meta.media.0.codec.sample_aspect_ratio">0</property>
  <property name="meta.media.0.codec.colorspace">601</property>
  <property name="meta.media.0.codec.name">mjpeg</property>
  <property name="meta.media.0.codec.long_name">MJPEG (Motion JPEG)</property>
  <property name="meta.media.0.codec.bit_rate">0</property>
  <property name="meta.attr.0.stream.HANDLER_NAME.markup">VideoHandler</property>
  <property name="meta.attr.0.stream.VENDOR_ID.markup">[0][0][0][0]</property>
  <property name="meta.attr.0.stream.ENCODER.markup">Lavc60.3.100 mjpeg</property>
  <property name="meta.attr.0.stream.DURATION.markup">00:00:01.000000000</property>
  <property name="meta.attr.COMMENT.markup">Rendered with Manim Community v0.17.3</property>
  <property name="meta.attr.MAJOR_BRAND.markup">isom</property>
  <property name="meta.attr.MINOR_VERSION.markup">512</property>
  <property name="meta.attr.COMPATIBLE_BRANDS.markup">isomiso2avc1mp41</property>
  <property name="meta.attr.ENCODER.markup">Lavf60.3.100</property>
  <property name="seekable">1</property>
  <property name="meta.media.sample_aspect_num">1</property>
  <property name="meta.media.sample_aspect_den">1</property>
  <property name="format">3</property>
  <property name="audio_index">-1</property>
  <property name="video_index">0</property>
  <property name="meta.media.frame_rate_num">60</property>
  <property name="meta.media.frame_rate_den">1</property>
  <property name="meta.media.colorspace">601</property>
  <property name="meta.media.color_trc">2</property>
  <property name="meta.media.has_b_frames">0</property>
  <property name="meta.media.width">640</property>
  <property name="meta.media.height">360</property>
  <property name="meta.media.color_range">full</property>
  <property name="kdenlive:clipname">116.mp4</property>
  <property name="kdenlive:clip_type">2</property>
  <property name="kdenlive:folderid">16</property>
  <property name="kdenlive:id">36</property>
  <property name="mute_on_pause">0</property>
  <property name="kdenlive:file_size">88805</property>
  <property name="kdenlive:file_hash">456664142d7e4a39a1a8d1b6b06937ff</property>
  <property name="kdenlive:proxy">/home/xiaoxiae/.cache/kdenlive/proxy/456664142d7e4a39a1a8d1b6b06937ff.mkv</property>
  <property name="kdenlive:originalurl">video/Farmer/116.mp4</property>
  <property name="kdenlive:original.mlt_type">chain</property>
  <property name="kdenlive:original.in">0</property>
  <property name="kdenlive:original.out">00:00:00.983</property>
  <property name="kdenlive:original.length">60</property>
  <property name="kdenlive:original.eof">pause</property>
  <property name="kdenlive:original.resource">video/Farmer/116.mp4</property>
  <property name="kdenlive:original.mlt_service">avformat-novalidate</property>
  <property name="kdenlive:original.meta.media.nb_streams">1</property>
  <property name="kdenlive:original.meta.media.0.stream.type">video</property>
  <property name="kdenlive:original.meta.media.0.stream.frame_rate">60</property>
  <property name="kdenlive:original.meta.media.0.stream.sample_aspect_ratio">0</property>
  <property name="kdenlive:original.meta.media.0.codec.width">1920</property>
  <property name="kdenlive:original.meta.media.0.codec.height">1080</property>
  <property name="kdenlive:original.meta.media.0.codec.rotate">0</property>
  <property name="kdenlive:original.meta.media.0.codec.pix_fmt">yuv420p</property>
  <property name="kdenlive:original.meta.media.0.codec.sample_aspect_ratio">0</property>
  <property name="kdenlive:original.meta.media.0.codec.colorspace">709</property>
  <property name="kdenlive:original.meta.media.0.codec.name">h264</property>
  <property name="kdenlive:original.meta.media.0.codec.long_name">H.264 / AVC / MPEG-4 AVC / MPEG-4 part 10</property>
  <property name="kdenlive:original.meta.media.0.codec.bit_rate">697640</property>
  <property name="kdenlive:original.meta.attr.0.stream.handler_name.markup">VideoHandler</property>
  <property name="kdenlive:original.meta.attr.0.stream.vendor_id.markup">[0][0][0][0]</property>
  <property name="kdenlive:original.meta.attr.0.stream.encoder.markup">Lavc60.3.100 libx264</property>
  <property name="kdenlive:original.meta.attr.major_brand.markup">isom</property>
  <property name="kdenlive:original.meta.attr.minor_version.markup">512</property>
  <property name="kdenlive:original.meta.attr.compatible_brands.markup">isomiso2avc1mp41</property>
  <property name="kdenlive:original.meta.attr.encoder.markup">Lavf60.3.100</property>
  <property name="kdenlive:original.meta.attr.comment.markup">Rendered with Manim Community v0.17.3</property>
  <property name="kdenlive:original.seekable">1</property>
  <property name="kdenlive:original.width">1920</property>
  <property name="kdenlive:original.height">1080</property>
  <property name="kdenlive:original.meta.media.sample_aspect_num">1</property>
  <property name="kdenlive:original.meta.media.sample_aspect_den">1</property>
  <property name="kdenlive:original.format">3</property>
  <property name="kdenlive:original.audio_index">-1</property>
  <property name="kdenlive:original.video_index">0</property>
  <property name="kdenlive:original.meta.media.frame_rate_num">60</property>
  <property name="kdenlive:original.meta.media.frame_rate_den">1</property>
  <property name="kdenlive:original.meta.media.colorspace">709</property>
  <property name="kdenlive:original.meta.media.color_trc">2</property>
  <property name="kdenlive:original.meta.media.has_b_frames">2</property>
  <property name="kdenlive:original.meta.media.width">1920</property>
  <property name="kdenlive:original.meta.media.height">1080</property>
  <property name="kdenlive:original.meta.media.color_range">mpeg</property>
  <property name="kdenlive:original.meta.media.top_field_first">0</property>
  <property name="kdenlive:original.meta.media.progressive">1</property>
  <property name="kdenlive:original.kdenlive:clip_type">2</property>
  <property name="kdenlive:original.kdenlive:folderid">16</property>
  <property name="kdenlive:original.kdenlive:id">36</property>
  <property name="kdenlive:original.mute_on_pause">0</property>
  <property name="kdenlive:original.kdenlive:file_size">88805</property>
  <property name="kdenlive:original.kdenlive:file_hash">456664142d7e4a39a1a8d1b6b06937ff</property>
  <property name="kdenlive:original.backup">1</property>
  <property name="meta.media.top_field_first">0</property>
  <property name="meta.media.progressive">1</property>
 </chain>
 <chain id="chain230" out="00:00:00.983">
  <property name="length">60</property>
  <property name="eof">pause</property>
  <property name="resource">/home/xiaoxiae/.cache/kdenlive/proxy/85806375e9ce4d5945d4b33785af6bbd.mkv</property>
  <property name="mlt_service">avformat-novalidate</property>
  <property name="meta.media.nb_streams">1</property>
  <property name="meta.media.0.stream.type">video</property>
  <property name="meta.media.0.stream.frame_rate">60</property>
  <property name="meta.media.0.stream.sample_aspect_ratio">0</property>
  <property name="meta.media.0.codec.width">640</property>
  <property name="meta.media.0.codec.height">360</property>
  <property name="meta.media.0.codec.rotate">0</property>
  <property name="meta.media.0.codec.pix_fmt">yuvj420p</property>
  <property name="meta.media.0.codec.sample_aspect_ratio">0</property>
  <property name="meta.media.0.codec.colorspace">601</property>
  <property name="meta.media.0.codec.name">mjpeg</property>
  <property name="meta.media.0.codec.long_name">MJPEG (Motion JPEG)</property>
  <property name="meta.media.0.codec.bit_rate">0</property>
  <property name="meta.attr.0.stream.HANDLER_NAME.markup">VideoHandler</property>
  <property name="meta.attr.0.stream.VENDOR_ID.markup">[0][0][0][0]</property>
  <property name="meta.attr.0.stream.ENCODER.markup">Lavc60.3.100 mjpeg</property>
  <property name="meta.attr.0.stream.DURATION.markup">00:00:01.000000000</property>
  <property name="meta.attr.COMMENT.markup">Rendered with Manim Community v0.17.3</property>
  <property name="meta.attr.MAJOR_BRAND.markup">isom</property>
  <property name="meta.attr.MINOR_VERSION.markup">512</property>
  <property name="meta.attr.COMPATIBLE_BRANDS.markup">isomiso2avc1mp41</property>
  <property name="meta.attr.ENCODER.markup">Lavf60.3.100</property>
  <property name="seekable">1</property>
  <property name="meta.media.sample_aspect_num">1</property>
  <property name="meta.media.sample_aspect_den">1</property>
  <property name="format">3</property>
  <property name="audio_index">-1</property>
  <property name="video_index">0</property>
  <property name="meta.media.frame_rate_num">60</property>
  <property name="meta.media.frame_rate_den">1</property>
  <property name="meta.media.colorspace">601</property>
  <property name="meta.media.color_trc">2</property>
  <property name="meta.media.has_b_frames">0</property>
  <property name="meta.media.width">640</property>
  <property name="meta.media.height">360</property>
  <property name="meta.media.color_range">full</property>
  <property name="kdenlive:clipname">117.mp4</property>
  <property name="kdenlive:clip_type">2</property>
  <property name="kdenlive:folderid">16</property>
  <property name="kdenlive:id">37</property>
  <property name="mute_on_pause">0</property>
  <property name="kdenlive:file_size">82509</property>
  <property name="kdenlive:file_hash">85806375e9ce4d5945d4b33785af6bbd</property>
  <property name="kdenlive:proxy">/home/xiaoxiae/.cache/kdenlive/proxy/85806375e9ce4d5945d4b33785af6bbd.mkv</property>
  <property name="kdenlive:originalurl">video/Farmer/117.mp4</property>
  <property name="kdenlive:original.mlt_type">chain</property>
  <property name="kdenlive:original.in">0</property>
  <property name="kdenlive:original.out">00:00:00.983</property>
  <property name="kdenlive:original.length">60</property>
  <property name="kdenlive:original.eof">pause</property>
  <property name="kdenlive:original.resource">video/Farmer/117.mp4</property>
  <property name="kdenlive:original.mlt_service">avformat-novalidate</property>
  <property name="kdenlive:original.meta.media.nb_streams">1</property>
  <property name="kdenlive:original.meta.media.0.stream.type">video</property>
  <property name="kdenlive:original.meta.media.0.stream.frame_rate">60</property>
  <property name="kdenlive:original.meta.media.0.stream.sample_aspect_ratio">0</property>
  <property name="kdenlive:original.meta.media.0.codec.width">1920</property>
  <property name="kdenlive:original.meta.media.0.codec.height">1080</property>
  <property name="kdenlive:original.meta.media.0.codec.rotate">0</property>
  <property name="kdenlive:original.meta.media.0.codec.pix_fmt">yuv420p</property>
  <property name="kdenlive:original.meta.media.0.codec.sample_aspect_ratio">0</property>
  <property name="kdenlive:original.meta.media.0.codec.colorspace">709</property>
  <property name="kdenlive:original.meta.media.0.codec.name">h264</property>
  <property name="kdenlive:original.meta.media.0.codec.long_name">H.264 / AVC / MPEG-4 AVC / MPEG-4 part 10</property>
  <property name="kdenlive:original.meta.media.0.codec.bit_rate">647016</property>
  <property name="kdenlive:original.meta.attr.0.stream.handler_name.markup">VideoHandler</property>
  <property name="kdenlive:original.meta.attr.0.stream.vendor_id.markup">[0][0][0][0]</property>
  <property name="kdenlive:original.meta.attr.0.stream.encoder.markup">Lavc60.3.100 libx264</property>
  <property name="kdenlive:original.meta.attr.major_brand.markup">isom</property>
  <property name="kdenlive:original.meta.attr.minor_version.markup">512</property>
  <property name="kdenlive:original.meta.attr.compatible_brands.markup">isomiso2avc1mp41</property>
  <property name="kdenlive:original.meta.attr.encoder.markup">Lavf60.3.100</property>
  <property name="kdenlive:original.meta.attr.comment.markup">Rendered with Manim Community v0.17.3</property>
  <property name="kdenlive:original.seekable">1</property>
  <property name="kdenlive:original.width">1920</property>
  <property name="kdenlive:original.height">1080</property>
  <property name="kdenlive:original.meta.media.sample_aspect_num">1</property>
  <property name="kdenlive:original.meta.media.sample_aspect_den">1</property>
  <property name="kdenlive:original.format">3</property>
  <property name="kdenlive:original.audio_index">-1</property>
  <property name="kdenlive:original.video_index">0</property>
  <property name="kdenlive:original.meta.media.frame_rate_num">60</property>
  <property name="kdenlive:original.meta.media.frame_rate_den">1</property>
  <property name="kdenlive:original.meta.media.colorspace">709</property>
  <property name="kdenlive:original.meta.media.color_trc">2</property>
  <property name="kdenlive:original.meta.media.has_b_frames">2</property>
  <property name="kdenlive:original.meta.media.width">1920</property>
  <property name="kdenlive:original.meta.media.height">1080</property>
  <property name="kdenlive:original.meta.media.color_range">mpeg</property>
  <property name="kdenlive:original.meta.media.top_field_first">0</property>
  <property name="kdenlive:original.meta.media.progressive">1</property>
  <property name="kdenlive:original.kdenlive:clip_type">2</property>
  <property name="kdenlive:original.kdenlive:folderid">16</property>
  <property name="kdenlive:original.kdenlive:id">37</property>
  <property name="kdenlive:original.mute_on_pause">0</property>
  <property name="kdenlive:original.kdenlive:file_size">82509</property>
  <property name="kdenlive:original.kdenlive:file_hash">85806375e9ce4d5945d4b33785af6bbd</property>
  <property name="kdenlive:original.backup">1</property>
  <property name="meta.media.top_field_first">0</property>
  <property name="meta.media.progressive">1</property>
 </chain>
 <chain id="chain229" out="00:00:01.067">
  <property name="length">65</property>
  <property name="eof">pause</property>
  <property name="resource">/home/xiaoxiae/.cache/kdenlive/proxy/748fbaca71070ac234c329f558d14e26.mkv</property>
  <property name="mlt_service">avformat-novalidate</property>
  <property name="meta.media.nb_streams">1</property>
  <property name="meta.media.0.stream.type">video</property>
  <property name="meta.media.0.stream.frame_rate">60</property>
  <property name="meta.media.0.stream.sample_aspect_ratio">0</property>
  <property name="meta.media.0.codec.width">640</property>
  <property name="meta.media.0.codec.height">360</property>
  <property name="meta.media.0.codec.rotate">0</property>
  <property name="meta.media.0.codec.pix_fmt">yuvj420p</property>
  <property name="meta.media.0.codec.sample_aspect_ratio">0</property>
  <property name="meta.media.0.codec.colorspace">601</property>
  <property name="meta.media.0.codec.name">mjpeg</property>
  <property name="meta.media.0.codec.long_name">MJPEG (Motion JPEG)</property>
  <property name="meta.media.0.codec.bit_rate">0</property>
  <property name="meta.attr.0.stream.HANDLER_NAME.markup">VideoHandler</property>
  <property name="meta.attr.0.stream.VENDOR_ID.markup">[0][0][0][0]</property>
  <property name="meta.attr.0.stream.ENCODER.markup">Lavc60.3.100 mjpeg</property>
  <property name="meta.attr.0.stream.DURATION.markup">00:00:01.084000000</property>
  <property name="meta.attr.COMMENT.markup">Rendered with Manim Community v0.17.3</property>
  <property name="meta.attr.MAJOR_BRAND.markup">isom</property>
  <property name="meta.attr.MINOR_VERSION.markup">512</property>
  <property name="meta.attr.COMPATIBLE_BRANDS.markup">isomiso2avc1mp41</property>
  <property name="meta.attr.ENCODER.markup">Lavf60.3.100</property>
  <property name="seekable">1</property>
  <property name="meta.media.sample_aspect_num">1</property>
  <property name="meta.media.sample_aspect_den">1</property>
  <property name="format">3</property>
  <property name="audio_index">-1</property>
  <property name="video_index">0</property>
  <property name="meta.media.frame_rate_num">60</property>
  <property name="meta.media.frame_rate_den">1</property>
  <property name="meta.media.colorspace">601</property>
  <property name="meta.media.color_trc">2</property>
  <property name="meta.media.has_b_frames">0</property>
  <property name="meta.media.width">640</property>
  <property name="meta.media.height">360</property>
  <property name="meta.media.color_range">full</property>
  <property name="kdenlive:clipname">118.mp4</property>
  <property name="kdenlive:clip_type">2</property>
  <property name="kdenlive:folderid">16</property>
  <property name="kdenlive:id">38</property>
  <property name="mute_on_pause">0</property>
  <property name="kdenlive:file_size">78156</property>
  <property name="kdenlive:file_hash">748fbaca71070ac234c329f558d14e26</property>
  <property name="kdenlive:proxy">/home/xiaoxiae/.cache/kdenlive/proxy/748fbaca71070ac234c329f558d14e26.mkv</property>
  <property name="kdenlive:originalurl">video/Farmer/118.mp4</property>
  <property name="kdenlive:original.mlt_type">chain</property>
  <property name="kdenlive:original.in">0</property>
  <property name="kdenlive:original.out">00:00:01.067</property>
  <property name="kdenlive:original.length">65</property>
  <property name="kdenlive:original.eof">pause</property>
  <property name="kdenlive:original.resource">video/Farmer/118.mp4</property>
  <property name="kdenlive:original.mlt_service">avformat-novalidate</property>
  <property name="kdenlive:original.meta.media.nb_streams">1</property>
  <property name="kdenlive:original.meta.media.0.stream.type">video</property>
  <property name="kdenlive:original.meta.media.0.stream.frame_rate">60</property>
  <property name="kdenlive:original.meta.media.0.stream.sample_aspect_ratio">0</property>
  <property name="kdenlive:original.meta.media.0.codec.width">1920</property>
  <property name="kdenlive:original.meta.media.0.codec.height">1080</property>
  <property name="kdenlive:original.meta.media.0.codec.rotate">0</property>
  <property name="kdenlive:original.meta.media.0.codec.pix_fmt">yuv420p</property>
  <property name="kdenlive:original.meta.media.0.codec.sample_aspect_ratio">0</property>
  <property name="kdenlive:original.meta.media.0.codec.colorspace">709</property>
  <property name="kdenlive:original.meta.media.0.codec.name">h264</property>
  <property name="kdenlive:original.meta.media.0.codec.long_name">H.264 / AVC / MPEG-4 AVC / MPEG-4 part 10</property>
  <property name="kdenlive:original.meta.media.0.codec.bit_rate">564716</property>
  <property name="kdenlive:original.meta.attr.0.stream.handler_name.markup">VideoHandler</property>
  <property name="kdenlive:original.meta.attr.0.stream.vendor_id.markup">[0][0][0][0]</property>
  <property name="kdenlive:original.meta.attr.0.stream.encoder.markup">Lavc60.3.100 libx264</property>
  <property name="kdenlive:original.meta.attr.major_brand.markup">isom</property>
  <property name="kdenlive:original.meta.attr.minor_version.markup">512</property>
  <property name="kdenlive:original.meta.attr.compatible_brands.markup">isomiso2avc1mp41</property>
  <property name="kdenlive:original.meta.attr.encoder.markup">Lavf60.3.100</property>
  <property name="kdenlive:original.meta.attr.comment.markup">Rendered with Manim Community v0.17.3</property>
  <property name="kdenlive:original.seekable">1</property>
  <property name="kdenlive:original.width">1920</property>
  <property name="kdenlive:original.height">1080</property>
  <property name="kdenlive:original.meta.media.sample_aspect_num">1</property>
  <property name="kdenlive:original.meta.media.sample_aspect_den">1</property>
  <property name="kdenlive:original.format">3</property>
  <property name="kdenlive:original.audio_index">-1</property>
  <property name="kdenlive:original.video_index">0</property>
  <property name="kdenlive:original.meta.media.frame_rate_num">60</property>
  <property name="kdenlive:original.meta.media.frame_rate_den">1</property>
  <property name="kdenlive:original.meta.media.colorspace">709</property>
  <property name="kdenlive:original.meta.media.color_trc">2</property>
  <property name="kdenlive:original.meta.media.has_b_frames">2</property>
  <property name="kdenlive:original.meta.media.width">1920</property>
  <property name="kdenlive:original.meta.media.height">1080</property>
  <property name="kdenlive:original.meta.media.color_range">mpeg</property>
  <property name="kdenlive:original.meta.media.top_field_first">0</property>
  <property name="kdenlive:original.meta.media.progressive">1</property>
  <property name="kdenlive:original.kdenlive:clip_type">2</property>
  <property name="kdenlive:original.kdenlive:folderid">16</property>
  <property name="kdenlive:original.kdenlive:id">38</property>
  <property name="kdenlive:original.mute_on_pause">0</property>
  <property name="kdenlive:original.kdenlive:file_size">78156</property>
  <property name="kdenlive:original.kdenlive:file_hash">748fbaca71070ac234c329f558d14e26</property>
  <property name="kdenlive:original.backup">1</property>
  <property name="meta.media.top_field_first">0</property>
  <property name="meta.media.progressive">1</property>
 </chain>
 <chain id="chain227" out="00:00:01.233">
  <property name="length">75</property>
  <property name="eof">pause</property>
  <property name="resource">/home/xiaoxiae/.cache/kdenlive/proxy/dce4b93a99c81857cd3d10eb36d04885.mkv</property>
  <property name="mlt_service">avformat-novalidate</property>
  <property name="meta.media.nb_streams">1</property>
  <property name="meta.media.0.stream.type">video</property>
  <property name="meta.media.0.stream.frame_rate">60</property>
  <property name="meta.media.0.stream.sample_aspect_ratio">0</property>
  <property name="meta.media.0.codec.width">640</property>
  <property name="meta.media.0.codec.height">360</property>
  <property name="meta.media.0.codec.rotate">0</property>
  <property name="meta.media.0.codec.pix_fmt">yuvj420p</property>
  <property name="meta.media.0.codec.sample_aspect_ratio">0</property>
  <property name="meta.media.0.codec.colorspace">601</property>
  <property name="meta.media.0.codec.name">mjpeg</property>
  <property name="meta.media.0.codec.long_name">MJPEG (Motion JPEG)</property>
  <property name="meta.media.0.codec.bit_rate">0</property>
  <property name="meta.attr.0.stream.HANDLER_NAME.markup">VideoHandler</property>
  <property name="meta.attr.0.stream.VENDOR_ID.markup">[0][0][0][0]</property>
  <property name="meta.attr.0.stream.ENCODER.markup">Lavc60.3.100 mjpeg</property>
  <property name="meta.attr.0.stream.DURATION.markup">00:00:01.250000000</property>
  <property name="meta.attr.COMMENT.markup">Rendered with Manim Community v0.17.3</property>
  <property name="meta.attr.MAJOR_BRAND.markup">isom</property>
  <property name="meta.attr.MINOR_VERSION.markup">512</property>
  <property name="meta.attr.COMPATIBLE_BRANDS.markup">isomiso2avc1mp41</property>
  <property name="meta.attr.ENCODER.markup">Lavf60.3.100</property>
  <property name="seekable">1</property>
  <property name="meta.media.sample_aspect_num">1</property>
  <property name="meta.media.sample_aspect_den">1</property>
  <property name="format">3</property>
  <property name="audio_index">-1</property>
  <property name="video_index">0</property>
  <property name="meta.media.frame_rate_num">60</property>
  <property name="meta.media.frame_rate_den">1</property>
  <property name="meta.media.colorspace">601</property>
  <property name="meta.media.color_trc">2</property>
  <property name="meta.media.has_b_frames">0</property>
  <property name="meta.media.width">640</property>
  <property name="meta.media.height">360</property>
  <property name="meta.media.color_range">full</property>
  <property name="kdenlive:clipname">119.mp4</property>
  <property name="kdenlive:clip_type">2</property>
  <property name="kdenlive:folderid">16</property>
  <property name="kdenlive:id">39</property>
  <property name="mute_on_pause">0</property>
  <property name="kdenlive:file_size">105204</property>
  <property name="kdenlive:file_hash">dce4b93a99c81857cd3d10eb36d04885</property>
  <property name="kdenlive:proxy">/home/xiaoxiae/.cache/kdenlive/proxy/dce4b93a99c81857cd3d10eb36d04885.mkv</property>
  <property name="kdenlive:originalurl">video/Farmer/119.mp4</property>
  <property name="kdenlive:original.mlt_type">chain</property>
  <property name="kdenlive:original.in">0</property>
  <property name="kdenlive:original.out">00:00:01.233</property>
  <property name="kdenlive:original.length">75</property>
  <property name="kdenlive:original.eof">pause</property>
  <property name="kdenlive:original.resource">video/Farmer/119.mp4</property>
  <property name="kdenlive:original.mlt_service">avformat-novalidate</property>
  <property name="kdenlive:original.meta.media.nb_streams">1</property>
  <property name="kdenlive:original.meta.media.0.stream.type">video</property>
  <property name="kdenlive:original.meta.media.0.stream.frame_rate">60</property>
  <property name="kdenlive:original.meta.media.0.stream.sample_aspect_ratio">0</property>
  <property name="kdenlive:original.meta.media.0.codec.width">1920</property>
  <property name="kdenlive:original.meta.media.0.codec.height">1080</property>
  <property name="kdenlive:original.meta.media.0.codec.rotate">0</property>
  <property name="kdenlive:original.meta.media.0.codec.pix_fmt">yuv420p</property>
  <property name="kdenlive:original.meta.media.0.codec.sample_aspect_ratio">0</property>
  <property name="kdenlive:original.meta.media.0.codec.colorspace">709</property>
  <property name="kdenlive:original.meta.media.0.codec.name">h264</property>
  <property name="kdenlive:original.meta.media.0.codec.long_name">H.264 / AVC / MPEG-4 AVC / MPEG-4 part 10</property>
  <property name="kdenlive:original.meta.media.0.codec.bit_rate">662016</property>
  <property name="kdenlive:original.meta.attr.0.stream.handler_name.markup">VideoHandler</property>
  <property name="kdenlive:original.meta.attr.0.stream.vendor_id.markup">[0][0][0][0]</property>
  <property name="kdenlive:original.meta.attr.0.stream.encoder.markup">Lavc60.3.100 libx264</property>
  <property name="kdenlive:original.meta.attr.major_brand.markup">isom</property>
  <property name="kdenlive:original.meta.attr.minor_version.markup">512</property>
  <property name="kdenlive:original.meta.attr.compatible_brands.markup">isomiso2avc1mp41</property>
  <property name="kdenlive:original.meta.attr.encoder.markup">Lavf60.3.100</property>
  <property name="kdenlive:original.meta.attr.comment.markup">Rendered with Manim Community v0.17.3</property>
  <property name="kdenlive:original.seekable">1</property>
  <property name="kdenlive:original.width">1920</property>
  <property name="kdenlive:original.height">1080</property>
  <property name="kdenlive:original.meta.media.sample_aspect_num">1</property>
  <property name="kdenlive:original.meta.media.sample_aspect_den">1</property>
  <property name="kdenlive:original.format">3</property>
  <property name="kdenlive:original.audio_index">-1</property>
  <property name="kdenlive:original.video_index">0</property>
  <property name="kdenlive:original.meta.media.frame_rate_num">60</property>
  <property name="kdenlive:original.meta.media.frame_rate_den">1</property>
  <property name="kdenlive:original.meta.media.colorspace">709</property>
  <property name="kdenlive:original.meta.media.color_trc">2</property>
  <property name="kdenlive:original.meta.media.has_b_frames">2</property>
  <property name="kdenlive:original.meta.media.width">1920</property>
  <property name="kdenlive:original.meta.media.height">1080</property>
  <property name="kdenlive:original.meta.media.color_range">mpeg</property>
  <property name="kdenlive:original.meta.media.top_field_first">0</property>
  <property name="kdenlive:original.meta.media.progressive">1</property>
  <property name="kdenlive:original.kdenlive:clip_type">2</property>
  <property name="kdenlive:original.kdenlive:folderid">16</property>
  <property name="kdenlive:original.kdenlive:id">39</property>
  <property name="kdenlive:original.mute_on_pause">0</property>
  <property name="kdenlive:original.kdenlive:file_size">105204</property>
  <property name="kdenlive:original.kdenlive:file_hash">dce4b93a99c81857cd3d10eb36d04885</property>
  <property name="kdenlive:original.backup">1</property>
  <property name="meta.media.top_field_first">0</property>
  <property name="meta.media.progressive">1</property>
 </chain>
 <chain id="chain413" out="00:00:01.233">
  <property name="length">75</property>
  <property name="eof">pause</property>
  <property name="resource">/home/xiaoxiae/.cache/kdenlive/proxy/fb31714ecac6ebca221806611227b029.mkv</property>
  <property name="mlt_service">avformat-novalidate</property>
  <property name="meta.media.nb_streams">1</property>
  <property name="meta.media.0.stream.type">video</property>
  <property name="meta.media.0.stream.frame_rate">60</property>
  <property name="meta.media.0.stream.sample_aspect_ratio">0</property>
  <property name="meta.media.0.codec.width">640</property>
  <property name="meta.media.0.codec.height">360</property>
  <property name="meta.media.0.codec.rotate">0</property>
  <property name="meta.media.0.codec.pix_fmt">yuvj420p</property>
  <property name="meta.media.0.codec.sample_aspect_ratio">0</property>
  <property name="meta.media.0.codec.colorspace">601</property>
  <property name="meta.media.0.codec.name">mjpeg</property>
  <property name="meta.media.0.codec.long_name">MJPEG (Motion JPEG)</property>
  <property name="meta.media.0.codec.bit_rate">0</property>
  <property name="meta.attr.0.stream.HANDLER_NAME.markup">VideoHandler</property>
  <property name="meta.attr.0.stream.VENDOR_ID.markup">[0][0][0][0]</property>
  <property name="meta.attr.0.stream.ENCODER.markup">Lavc60.3.100 mjpeg</property>
  <property name="meta.attr.0.stream.DURATION.markup">00:00:01.250000000</property>
  <property name="meta.attr.COMMENT.markup">Rendered with Manim Community v0.17.3</property>
  <property name="meta.attr.MAJOR_BRAND.markup">isom</property>
  <property name="meta.attr.MINOR_VERSION.markup">512</property>
  <property name="meta.attr.COMPATIBLE_BRANDS.markup">isomiso2avc1mp41</property>
  <property name="meta.attr.ENCODER.markup">Lavf60.3.100</property>
  <property name="seekable">1</property>
  <property name="meta.media.sample_aspect_num">1</property>
  <property name="meta.media.sample_aspect_den">1</property>
  <property name="format">3</property>
  <property name="audio_index">-1</property>
  <property name="video_index">0</property>
  <property name="meta.media.frame_rate_num">60</property>
  <property name="meta.media.frame_rate_den">1</property>
  <property name="meta.media.colorspace">601</property>
  <property name="meta.media.color_trc">2</property>
  <property name="meta.media.has_b_frames">0</property>
  <property name="meta.media.width">640</property>
  <property name="meta.media.height">360</property>
  <property name="meta.media.color_range">full</property>
  <property name="kdenlive:clipname">12.mp4</property>
  <property name="kdenlive:clip_type">2</property>
  <property name="kdenlive:folderid">16</property>
  <property name="kdenlive:id">40</property>
  <property name="mute_on_pause">0</property>
  <property name="kdenlive:file_size">66360</property>
  <property name="kdenlive:file_hash">fb31714ecac6ebca221806611227b029</property>
  <property name="kdenlive:proxy">/home/xiaoxiae/.cache/kdenlive/proxy/fb31714ecac6ebca221806611227b029.mkv</property>
  <property name="kdenlive:originalurl">video/Farmer/12.mp4</property>
  <property name="kdenlive:original.mlt_type">chain</property>
  <property name="kdenlive:original.in">0</property>
  <property name="kdenlive:original.out">00:00:01.233</property>
  <property name="kdenlive:original.length">75</property>
  <property name="kdenlive:original.eof">pause</property>
  <property name="kdenlive:original.resource">video/Farmer/12.mp4</property>
  <property name="kdenlive:original.mlt_service">avformat-novalidate</property>
  <property name="kdenlive:original.meta.media.nb_streams">1</property>
  <property name="kdenlive:original.meta.media.0.stream.type">video</property>
  <property name="kdenlive:original.meta.media.0.stream.frame_rate">60</property>
  <property name="kdenlive:original.meta.media.0.stream.sample_aspect_ratio">0</property>
  <property name="kdenlive:original.meta.media.0.codec.width">1920</property>
  <property name="kdenlive:original.meta.media.0.codec.height">1080</property>
  <property name="kdenlive:original.meta.media.0.codec.rotate">0</property>
  <property name="kdenlive:original.meta.media.0.codec.pix_fmt">yuv420p</property>
  <property name="kdenlive:original.meta.media.0.codec.sample_aspect_ratio">0</property>
  <property name="kdenlive:original.meta.media.0.codec.colorspace">709</property>
  <property name="kdenlive:original.meta.media.0.codec.name">h264</property>
  <property name="kdenlive:original.meta.media.0.codec.long_name">H.264 / AVC / MPEG-4 AVC / MPEG-4 part 10</property>
  <property name="kdenlive:original.meta.media.0.codec.bit_rate">413056</property>
  <property name="kdenlive:original.meta.attr.0.stream.handler_name.markup">VideoHandler</property>
  <property name="kdenlive:original.meta.attr.0.stream.vendor_id.markup">[0][0][0][0]</property>
  <property name="kdenlive:original.meta.attr.0.stream.encoder.markup">Lavc60.3.100 libx264</property>
  <property name="kdenlive:original.meta.attr.major_brand.markup">isom</property>
  <property name="kdenlive:original.meta.attr.minor_version.markup">512</property>
  <property name="kdenlive:original.meta.attr.compatible_brands.markup">isomiso2avc1mp41</property>
  <property name="kdenlive:original.meta.attr.encoder.markup">Lavf60.3.100</property>
  <property name="kdenlive:original.meta.attr.comment.markup">Rendered with Manim Community v0.17.3</property>
  <property name="kdenlive:original.seekable">1</property>
  <property name="kdenlive:original.width">1920</property>
  <property name="kdenlive:original.height">1080</property>
  <property name="kdenlive:original.meta.media.sample_aspect_num">1</property>
  <property name="kdenlive:original.meta.media.sample_aspect_den">1</property>
  <property name="kdenlive:original.format">3</property>
  <property name="kdenlive:original.audio_index">-1</property>
  <property name="kdenlive:original.video_index">0</property>
  <property name="kdenlive:original.meta.media.frame_rate_num">60</property>
  <property name="kdenlive:original.meta.media.frame_rate_den">1</property>
  <property name="kdenlive:original.meta.media.colorspace">709</property>
  <property name="kdenlive:original.meta.media.color_trc">2</property>
  <property name="kdenlive:original.meta.media.has_b_frames">2</property>
  <property name="kdenlive:original.meta.media.width">1920</property>
  <property name="kdenlive:original.meta.media.height">1080</property>
  <property name="kdenlive:original.meta.media.color_range">mpeg</property>
  <property name="kdenlive:original.meta.media.top_field_first">0</property>
  <property name="kdenlive:original.meta.media.progressive">1</property>
  <property name="kdenlive:original.kdenlive:clip_type">2</property>
  <property name="kdenlive:original.kdenlive:folderid">16</property>
  <property name="kdenlive:original.kdenlive:id">40</property>
  <property name="kdenlive:original.mute_on_pause">0</property>
  <property name="kdenlive:original.kdenlive:file_size">66360</property>
  <property name="kdenlive:original.kdenlive:file_hash">fb31714ecac6ebca221806611227b029</property>
  <property name="kdenlive:original.backup">1</property>
  <property name="meta.media.top_field_first">0</property>
  <property name="meta.media.progressive">1</property>
 </chain>
 <chain id="chain226" out="00:00:00.983">
  <property name="length">60</property>
  <property name="eof">pause</property>
  <property name="resource">/home/xiaoxiae/.cache/kdenlive/proxy/4554f66c65bca52e90b6a55131c199b3.mkv</property>
  <property name="mlt_service">avformat-novalidate</property>
  <property name="meta.media.nb_streams">1</property>
  <property name="meta.media.0.stream.type">video</property>
  <property name="meta.media.0.stream.frame_rate">60</property>
  <property name="meta.media.0.stream.sample_aspect_ratio">0</property>
  <property name="meta.media.0.codec.width">640</property>
  <property name="meta.media.0.codec.height">360</property>
  <property name="meta.media.0.codec.rotate">0</property>
  <property name="meta.media.0.codec.pix_fmt">yuvj420p</property>
  <property name="meta.media.0.codec.sample_aspect_ratio">0</property>
  <property name="meta.media.0.codec.colorspace">601</property>
  <property name="meta.media.0.codec.name">mjpeg</property>
  <property name="meta.media.0.codec.long_name">MJPEG (Motion JPEG)</property>
  <property name="meta.media.0.codec.bit_rate">0</property>
  <property name="meta.attr.0.stream.HANDLER_NAME.markup">VideoHandler</property>
  <property name="meta.attr.0.stream.VENDOR_ID.markup">[0][0][0][0]</property>
  <property name="meta.attr.0.stream.ENCODER.markup">Lavc60.3.100 mjpeg</property>
  <property name="meta.attr.0.stream.DURATION.markup">00:00:01.000000000</property>
  <property name="meta.attr.COMMENT.markup">Rendered with Manim Community v0.17.3</property>
  <property name="meta.attr.MAJOR_BRAND.markup">isom</property>
  <property name="meta.attr.MINOR_VERSION.markup">512</property>
  <property name="meta.attr.COMPATIBLE_BRANDS.markup">isomiso2avc1mp41</property>
  <property name="meta.attr.ENCODER.markup">Lavf60.3.100</property>
  <property name="seekable">1</property>
  <property name="meta.media.sample_aspect_num">1</property>
  <property name="meta.media.sample_aspect_den">1</property>
  <property name="format">3</property>
  <property name="audio_index">-1</property>
  <property name="video_index">0</property>
  <property name="meta.media.frame_rate_num">60</property>
  <property name="meta.media.frame_rate_den">1</property>
  <property name="meta.media.colorspace">601</property>
  <property name="meta.media.color_trc">2</property>
  <property name="meta.media.has_b_frames">0</property>
  <property name="meta.media.width">640</property>
  <property name="meta.media.height">360</property>
  <property name="meta.media.color_range">full</property>
  <property name="kdenlive:clipname">120.mp4</property>
  <property name="kdenlive:clip_type">2</property>
  <property name="kdenlive:folderid">16</property>
  <property name="kdenlive:id">41</property>
  <property name="mute_on_pause">0</property>
  <property name="kdenlive:file_size">76908</property>
  <property name="kdenlive:file_hash">4554f66c65bca52e90b6a55131c199b3</property>
  <property name="kdenlive:proxy">/home/xiaoxiae/.cache/kdenlive/proxy/4554f66c65bca52e90b6a55131c199b3.mkv</property>
  <property name="kdenlive:originalurl">video/Farmer/120.mp4</property>
  <property name="kdenlive:original.mlt_type">chain</property>
  <property name="kdenlive:original.in">0</property>
  <property name="kdenlive:original.out">00:00:00.983</property>
  <property name="kdenlive:original.length">60</property>
  <property name="kdenlive:original.eof">pause</property>
  <property name="kdenlive:original.resource">video/Farmer/120.mp4</property>
  <property name="kdenlive:original.mlt_service">avformat-novalidate</property>
  <property name="kdenlive:original.meta.media.nb_streams">1</property>
  <property name="kdenlive:original.meta.media.0.stream.type">video</property>
  <property name="kdenlive:original.meta.media.0.stream.frame_rate">60</property>
  <property name="kdenlive:original.meta.media.0.stream.sample_aspect_ratio">0</property>
  <property name="kdenlive:original.meta.media.0.codec.width">1920</property>
  <property name="kdenlive:original.meta.media.0.codec.height">1080</property>
  <property name="kdenlive:original.meta.media.0.codec.rotate">0</property>
  <property name="kdenlive:original.meta.media.0.codec.pix_fmt">yuv420p</property>
  <property name="kdenlive:original.meta.media.0.codec.sample_aspect_ratio">0</property>
  <property name="kdenlive:original.meta.media.0.codec.colorspace">709</property>
  <property name="kdenlive:original.meta.media.0.codec.name">h264</property>
  <property name="kdenlive:original.meta.media.0.codec.long_name">H.264 / AVC / MPEG-4 AVC / MPEG-4 part 10</property>
  <property name="kdenlive:original.meta.media.0.codec.bit_rate">602208</property>
  <property name="kdenlive:original.meta.attr.0.stream.handler_name.markup">VideoHandler</property>
  <property name="kdenlive:original.meta.attr.0.stream.vendor_id.markup">[0][0][0][0]</property>
  <property name="kdenlive:original.meta.attr.0.stream.encoder.markup">Lavc60.3.100 libx264</property>
  <property name="kdenlive:original.meta.attr.major_brand.markup">isom</property>
  <property name="kdenlive:original.meta.attr.minor_version.markup">512</property>
  <property name="kdenlive:original.meta.attr.compatible_brands.markup">isomiso2avc1mp41</property>
  <property name="kdenlive:original.meta.attr.encoder.markup">Lavf60.3.100</property>
  <property name="kdenlive:original.meta.attr.comment.markup">Rendered with Manim Community v0.17.3</property>
  <property name="kdenlive:original.seekable">1</property>
  <property name="kdenlive:original.width">1920</property>
  <property name="kdenlive:original.height">1080</property>
  <property name="kdenlive:original.meta.media.sample_aspect_num">1</property>
  <property name="kdenlive:original.meta.media.sample_aspect_den">1</property>
  <property name="kdenlive:original.format">3</property>
  <property name="kdenlive:original.audio_index">-1</property>
  <property name="kdenlive:original.video_index">0</property>
  <property name="kdenlive:original.meta.media.frame_rate_num">60</property>
  <property name="kdenlive:original.meta.media.frame_rate_den">1</property>
  <property name="kdenlive:original.meta.media.colorspace">709</property>
  <property name="kdenlive:original.meta.media.color_trc">2</property>
  <property name="kdenlive:original.meta.media.has_b_frames">2</property>
  <property name="kdenlive:original.meta.media.width">1920</property>
  <property name="kdenlive:original.meta.media.height">1080</property>
  <property name="kdenlive:original.meta.media.color_range">mpeg</property>
  <property name="kdenlive:original.meta.media.top_field_first">0</property>
  <property name="kdenlive:original.meta.media.progressive">1</property>
  <property name="kdenlive:original.kdenlive:clip_type">2</property>
  <property name="kdenlive:original.kdenlive:folderid">16</property>
  <property name="kdenlive:original.kdenlive:id">41</property>
  <property name="kdenlive:original.mute_on_pause">0</property>
  <property name="kdenlive:original.kdenlive:file_size">76908</property>
  <property name="kdenlive:original.kdenlive:file_hash">4554f66c65bca52e90b6a55131c199b3</property>
  <property name="kdenlive:original.backup">1</property>
  <property name="meta.media.top_field_first">0</property>
  <property name="meta.media.progressive">1</property>
 </chain>
 <chain id="chain224" out="00:00:00.983">
  <property name="length">60</property>
  <property name="eof">pause</property>
  <property name="resource">/home/xiaoxiae/.cache/kdenlive/proxy/5aa63ed9e8ed484db4e745b4f117ca37.mkv</property>
  <property name="mlt_service">avformat-novalidate</property>
  <property name="meta.media.nb_streams">1</property>
  <property name="meta.media.0.stream.type">video</property>
  <property name="meta.media.0.stream.frame_rate">60</property>
  <property name="meta.media.0.stream.sample_aspect_ratio">0</property>
  <property name="meta.media.0.codec.width">640</property>
  <property name="meta.media.0.codec.height">360</property>
  <property name="meta.media.0.codec.rotate">0</property>
  <property name="meta.media.0.codec.pix_fmt">yuvj420p</property>
  <property name="meta.media.0.codec.sample_aspect_ratio">0</property>
  <property name="meta.media.0.codec.colorspace">601</property>
  <property name="meta.media.0.codec.name">mjpeg</property>
  <property name="meta.media.0.codec.long_name">MJPEG (Motion JPEG)</property>
  <property name="meta.media.0.codec.bit_rate">0</property>
  <property name="meta.attr.0.stream.HANDLER_NAME.markup">VideoHandler</property>
  <property name="meta.attr.0.stream.VENDOR_ID.markup">[0][0][0][0]</property>
  <property name="meta.attr.0.stream.ENCODER.markup">Lavc60.3.100 mjpeg</property>
  <property name="meta.attr.0.stream.DURATION.markup">00:00:01.000000000</property>
  <property name="meta.attr.COMMENT.markup">Rendered with Manim Community v0.17.3</property>
  <property name="meta.attr.MAJOR_BRAND.markup">isom</property>
  <property name="meta.attr.MINOR_VERSION.markup">512</property>
  <property name="meta.attr.COMPATIBLE_BRANDS.markup">isomiso2avc1mp41</property>
  <property name="meta.attr.ENCODER.markup">Lavf60.3.100</property>
  <property name="seekable">1</property>
  <property name="meta.media.sample_aspect_num">1</property>
  <property name="meta.media.sample_aspect_den">1</property>
  <property name="format">3</property>
  <property name="audio_index">-1</property>
  <property name="video_index">0</property>
  <property name="meta.media.frame_rate_num">60</property>
  <property name="meta.media.frame_rate_den">1</property>
  <property name="meta.media.colorspace">601</property>
  <property name="meta.media.color_trc">2</property>
  <property name="meta.media.has_b_frames">0</property>
  <property name="meta.media.width">640</property>
  <property name="meta.media.height">360</property>
  <property name="meta.media.color_range">full</property>
  <property name="kdenlive:clipname">121.mp4</property>
  <property name="kdenlive:clip_type">2</property>
  <property name="kdenlive:folderid">16</property>
  <property name="kdenlive:id">42</property>
  <property name="mute_on_pause">0</property>
  <property name="kdenlive:file_size">75266</property>
  <property name="kdenlive:file_hash">5aa63ed9e8ed484db4e745b4f117ca37</property>
  <property name="kdenlive:proxy">/home/xiaoxiae/.cache/kdenlive/proxy/5aa63ed9e8ed484db4e745b4f117ca37.mkv</property>
  <property name="kdenlive:originalurl">video/Farmer/121.mp4</property>
  <property name="kdenlive:original.mlt_type">chain</property>
  <property name="kdenlive:original.in">0</property>
  <property name="kdenlive:original.out">00:00:00.983</property>
  <property name="kdenlive:original.length">60</property>
  <property name="kdenlive:original.eof">pause</property>
  <property name="kdenlive:original.resource">video/Farmer/121.mp4</property>
  <property name="kdenlive:original.mlt_service">avformat-novalidate</property>
  <property name="kdenlive:original.meta.media.nb_streams">1</property>
  <property name="kdenlive:original.meta.media.0.stream.type">video</property>
  <property name="kdenlive:original.meta.media.0.stream.frame_rate">60</property>
  <property name="kdenlive:original.meta.media.0.stream.sample_aspect_ratio">0</property>
  <property name="kdenlive:original.meta.media.0.codec.width">1920</property>
  <property name="kdenlive:original.meta.media.0.codec.height">1080</property>
  <property name="kdenlive:original.meta.media.0.codec.rotate">0</property>
  <property name="kdenlive:original.meta.media.0.codec.pix_fmt">yuv420p</property>
  <property name="kdenlive:original.meta.media.0.codec.sample_aspect_ratio">0</property>
  <property name="kdenlive:original.meta.media.0.codec.colorspace">709</property>
  <property name="kdenlive:original.meta.media.0.codec.name">h264</property>
  <property name="kdenlive:original.meta.media.0.codec.long_name">H.264 / AVC / MPEG-4 AVC / MPEG-4 part 10</property>
  <property name="kdenlive:original.meta.media.0.codec.bit_rate">589072</property>
  <property name="kdenlive:original.meta.attr.0.stream.handler_name.markup">VideoHandler</property>
  <property name="kdenlive:original.meta.attr.0.stream.vendor_id.markup">[0][0][0][0]</property>
  <property name="kdenlive:original.meta.attr.0.stream.encoder.markup">Lavc60.3.100 libx264</property>
  <property name="kdenlive:original.meta.attr.major_brand.markup">isom</property>
  <property name="kdenlive:original.meta.attr.minor_version.markup">512</property>
  <property name="kdenlive:original.meta.attr.compatible_brands.markup">isomiso2avc1mp41</property>
  <property name="kdenlive:original.meta.attr.encoder.markup">Lavf60.3.100</property>
  <property name="kdenlive:original.meta.attr.comment.markup">Rendered with Manim Community v0.17.3</property>
  <property name="kdenlive:original.seekable">1</property>
  <property name="kdenlive:original.width">1920</property>
  <property name="kdenlive:original.height">1080</property>
  <property name="kdenlive:original.meta.media.sample_aspect_num">1</property>
  <property name="kdenlive:original.meta.media.sample_aspect_den">1</property>
  <property name="kdenlive:original.format">3</property>
  <property name="kdenlive:original.audio_index">-1</property>
  <property name="kdenlive:original.video_index">0</property>
  <property name="kdenlive:original.meta.media.frame_rate_num">60</property>
  <property name="kdenlive:original.meta.media.frame_rate_den">1</property>
  <property name="kdenlive:original.meta.media.colorspace">709</property>
  <property name="kdenlive:original.meta.media.color_trc">2</property>
  <property name="kdenlive:original.meta.media.has_b_frames">2</property>
  <property name="kdenlive:original.meta.media.width">1920</property>
  <property name="kdenlive:original.meta.media.height">1080</property>
  <property name="kdenlive:original.meta.media.color_range">mpeg</property>
  <property name="kdenlive:original.meta.media.top_field_first">0</property>
  <property name="kdenlive:original.meta.media.progressive">1</property>
  <property name="kdenlive:original.kdenlive:clip_type">2</property>
  <property name="kdenlive:original.kdenlive:folderid">16</property>
  <property name="kdenlive:original.kdenlive:id">42</property>
  <property name="kdenlive:original.mute_on_pause">0</property>
  <property name="kdenlive:original.kdenlive:file_size">75266</property>
  <property name="kdenlive:original.kdenlive:file_hash">5aa63ed9e8ed484db4e745b4f117ca37</property>
  <property name="kdenlive:original.backup">1</property>
  <property name="meta.media.top_field_first">0</property>
  <property name="meta.media.progressive">1</property>
 </chain>
 <chain id="chain223" out="00:00:00.983">
  <property name="length">60</property>
  <property name="eof">pause</property>
  <property name="resource">/home/xiaoxiae/.cache/kdenlive/proxy/0425539f9d792bc38c8f22a703d419c3.mkv</property>
  <property name="mlt_service">avformat-novalidate</property>
  <property name="meta.media.nb_streams">1</property>
  <property name="meta.media.0.stream.type">video</property>
  <property name="meta.media.0.stream.frame_rate">60</property>
  <property name="meta.media.0.stream.sample_aspect_ratio">0</property>
  <property name="meta.media.0.codec.width">640</property>
  <property name="meta.media.0.codec.height">360</property>
  <property name="meta.media.0.codec.rotate">0</property>
  <property name="meta.media.0.codec.pix_fmt">yuvj420p</property>
  <property name="meta.media.0.codec.sample_aspect_ratio">0</property>
  <property name="meta.media.0.codec.colorspace">601</property>
  <property name="meta.media.0.codec.name">mjpeg</property>
  <property name="meta.media.0.codec.long_name">MJPEG (Motion JPEG)</property>
  <property name="meta.media.0.codec.bit_rate">0</property>
  <property name="meta.attr.0.stream.HANDLER_NAME.markup">VideoHandler</property>
  <property name="meta.attr.0.stream.VENDOR_ID.markup">[0][0][0][0]</property>
  <property name="meta.attr.0.stream.ENCODER.markup">Lavc60.3.100 mjpeg</property>
  <property name="meta.attr.0.stream.DURATION.markup">00:00:01.000000000</property>
  <property name="meta.attr.COMMENT.markup">Rendered with Manim Community v0.17.3</property>
  <property name="meta.attr.MAJOR_BRAND.markup">isom</property>
  <property name="meta.attr.MINOR_VERSION.markup">512</property>
  <property name="meta.attr.COMPATIBLE_BRANDS.markup">isomiso2avc1mp41</property>
  <property name="meta.attr.ENCODER.markup">Lavf60.3.100</property>
  <property name="seekable">1</property>
  <property name="meta.media.sample_aspect_num">1</property>
  <property name="meta.media.sample_aspect_den">1</property>
  <property name="format">3</property>
  <property name="audio_index">-1</property>
  <property name="video_index">0</property>
  <property name="meta.media.frame_rate_num">60</property>
  <property name="meta.media.frame_rate_den">1</property>
  <property name="meta.media.colorspace">601</property>
  <property name="meta.media.color_trc">2</property>
  <property name="meta.media.has_b_frames">0</property>
  <property name="meta.media.width">640</property>
  <property name="meta.media.height">360</property>
  <property name="meta.media.color_range">full</property>
  <property name="kdenlive:clipname">122.mp4</property>
  <property name="kdenlive:clip_type">2</property>
  <property name="kdenlive:folderid">16</property>
  <property name="kdenlive:id">43</property>
  <property name="mute_on_pause">0</property>
  <property name="kdenlive:file_size">104595</property>
  <property name="kdenlive:file_hash">0425539f9d792bc38c8f22a703d419c3</property>
  <property name="kdenlive:proxy">/home/xiaoxiae/.cache/kdenlive/proxy/0425539f9d792bc38c8f22a703d419c3.mkv</property>
  <property name="kdenlive:originalurl">video/Farmer/122.mp4</property>
  <property name="kdenlive:original.mlt_type">chain</property>
  <property name="kdenlive:original.in">0</property>
  <property name="kdenlive:original.out">00:00:00.983</property>
  <property name="kdenlive:original.length">60</property>
  <property name="kdenlive:original.eof">pause</property>
  <property name="kdenlive:original.resource">video/Farmer/122.mp4</property>
  <property name="kdenlive:original.mlt_service">avformat-novalidate</property>
  <property name="kdenlive:original.meta.media.nb_streams">1</property>
  <property name="kdenlive:original.meta.media.0.stream.type">video</property>
  <property name="kdenlive:original.meta.media.0.stream.frame_rate">60</property>
  <property name="kdenlive:original.meta.media.0.stream.sample_aspect_ratio">0</property>
  <property name="kdenlive:original.meta.media.0.codec.width">1920</property>
  <property name="kdenlive:original.meta.media.0.codec.height">1080</property>
  <property name="kdenlive:original.meta.media.0.codec.rotate">0</property>
  <property name="kdenlive:original.meta.media.0.codec.pix_fmt">yuv420p</property>
  <property name="kdenlive:original.meta.media.0.codec.sample_aspect_ratio">0</property>
  <property name="kdenlive:original.meta.media.0.codec.colorspace">709</property>
  <property name="kdenlive:original.meta.media.0.codec.name">h264</property>
  <property name="kdenlive:original.meta.media.0.codec.long_name">H.264 / AVC / MPEG-4 AVC / MPEG-4 part 10</property>
  <property name="kdenlive:original.meta.media.0.codec.bit_rate">823960</property>
  <property name="kdenlive:original.meta.attr.0.stream.handler_name.markup">VideoHandler</property>
  <property name="kdenlive:original.meta.attr.0.stream.vendor_id.markup">[0][0][0][0]</property>
  <property name="kdenlive:original.meta.attr.0.stream.encoder.markup">Lavc60.3.100 libx264</property>
  <property name="kdenlive:original.meta.attr.major_brand.markup">isom</property>
  <property name="kdenlive:original.meta.attr.minor_version.markup">512</property>
  <property name="kdenlive:original.meta.attr.compatible_brands.markup">isomiso2avc1mp41</property>
  <property name="kdenlive:original.meta.attr.encoder.markup">Lavf60.3.100</property>
  <property name="kdenlive:original.meta.attr.comment.markup">Rendered with Manim Community v0.17.3</property>
  <property name="kdenlive:original.seekable">1</property>
  <property name="kdenlive:original.width">1920</property>
  <property name="kdenlive:original.height">1080</property>
  <property name="kdenlive:original.meta.media.sample_aspect_num">1</property>
  <property name="kdenlive:original.meta.media.sample_aspect_den">1</property>
  <property name="kdenlive:original.format">3</property>
  <property name="kdenlive:original.audio_index">-1</property>
  <property name="kdenlive:original.video_index">0</property>
  <property name="kdenlive:original.meta.media.frame_rate_num">60</property>
  <property name="kdenlive:original.meta.media.frame_rate_den">1</property>
  <property name="kdenlive:original.meta.media.colorspace">709</property>
  <property name="kdenlive:original.meta.media.color_trc">2</property>
  <property name="kdenlive:original.meta.media.has_b_frames">2</property>
  <property name="kdenlive:original.meta.media.width">1920</property>
  <property name="kdenlive:original.meta.media.height">1080</property>
  <property name="kdenlive:original.meta.media.color_range">mpeg</property>
  <property name="kdenlive:original.meta.media.top_field_first">0</property>
  <property name="kdenlive:original.meta.media.progressive">1</property>
  <property name="kdenlive:original.kdenlive:clip_type">2</property>
  <property name="kdenlive:original.kdenlive:folderid">16</property>
  <property name="kdenlive:original.kdenlive:id">43</property>
  <property name="kdenlive:original.mute_on_pause">0</property>
  <property name="kdenlive:original.kdenlive:file_size">104595</property>
  <property name="kdenlive:original.kdenlive:file_hash">0425539f9d792bc38c8f22a703d419c3</property>
  <property name="kdenlive:original.backup">1</property>
  <property name="meta.media.top_field_first">0</property>
  <property name="meta.media.progressive">1</property>
 </chain>
 <chain id="chain219" out="00:00:00.983">
  <property name="length">60</property>
  <property name="eof">pause</property>
  <property name="resource">/home/xiaoxiae/.cache/kdenlive/proxy/b1d2cd3a06438d5bdd5e1445a4b3d67d.mkv</property>
  <property name="mlt_service">avformat-novalidate</property>
  <property name="meta.media.nb_streams">1</property>
  <property name="meta.media.0.stream.type">video</property>
  <property name="meta.media.0.stream.frame_rate">60</property>
  <property name="meta.media.0.stream.sample_aspect_ratio">0</property>
  <property name="meta.media.0.codec.width">640</property>
  <property name="meta.media.0.codec.height">360</property>
  <property name="meta.media.0.codec.rotate">0</property>
  <property name="meta.media.0.codec.pix_fmt">yuvj420p</property>
  <property name="meta.media.0.codec.sample_aspect_ratio">0</property>
  <property name="meta.media.0.codec.colorspace">601</property>
  <property name="meta.media.0.codec.name">mjpeg</property>
  <property name="meta.media.0.codec.long_name">MJPEG (Motion JPEG)</property>
  <property name="meta.media.0.codec.bit_rate">0</property>
  <property name="meta.attr.0.stream.HANDLER_NAME.markup">VideoHandler</property>
  <property name="meta.attr.0.stream.VENDOR_ID.markup">[0][0][0][0]</property>
  <property name="meta.attr.0.stream.ENCODER.markup">Lavc60.3.100 mjpeg</property>
  <property name="meta.attr.0.stream.DURATION.markup">00:00:01.000000000</property>
  <property name="meta.attr.COMMENT.markup">Rendered with Manim Community v0.17.3</property>
  <property name="meta.attr.MAJOR_BRAND.markup">isom</property>
  <property name="meta.attr.MINOR_VERSION.markup">512</property>
  <property name="meta.attr.COMPATIBLE_BRANDS.markup">isomiso2avc1mp41</property>
  <property name="meta.attr.ENCODER.markup">Lavf60.3.100</property>
  <property name="seekable">1</property>
  <property name="meta.media.sample_aspect_num">1</property>
  <property name="meta.media.sample_aspect_den">1</property>
  <property name="format">3</property>
  <property name="audio_index">-1</property>
  <property name="video_index">0</property>
  <property name="meta.media.frame_rate_num">60</property>
  <property name="meta.media.frame_rate_den">1</property>
  <property name="meta.media.colorspace">601</property>
  <property name="meta.media.color_trc">2</property>
  <property name="meta.media.has_b_frames">0</property>
  <property name="meta.media.width">640</property>
  <property name="meta.media.height">360</property>
  <property name="meta.media.color_range">full</property>
  <property name="kdenlive:clipname">123.mp4</property>
  <property name="kdenlive:clip_type">2</property>
  <property name="kdenlive:folderid">16</property>
  <property name="kdenlive:id">44</property>
  <property name="mute_on_pause">0</property>
  <property name="kdenlive:file_size">85623</property>
  <property name="kdenlive:file_hash">b1d2cd3a06438d5bdd5e1445a4b3d67d</property>
  <property name="kdenlive:proxy">/home/xiaoxiae/.cache/kdenlive/proxy/b1d2cd3a06438d5bdd5e1445a4b3d67d.mkv</property>
  <property name="kdenlive:originalurl">video/Farmer/123.mp4</property>
  <property name="kdenlive:original.mlt_type">chain</property>
  <property name="kdenlive:original.in">0</property>
  <property name="kdenlive:original.out">00:00:00.983</property>
  <property name="kdenlive:original.length">60</property>
  <property name="kdenlive:original.eof">pause</property>
  <property name="kdenlive:original.resource">video/Farmer/123.mp4</property>
  <property name="kdenlive:original.mlt_service">avformat-novalidate</property>
  <property name="kdenlive:original.meta.media.nb_streams">1</property>
  <property name="kdenlive:original.meta.media.0.stream.type">video</property>
  <property name="kdenlive:original.meta.media.0.stream.frame_rate">60</property>
  <property name="kdenlive:original.meta.media.0.stream.sample_aspect_ratio">0</property>
  <property name="kdenlive:original.meta.media.0.codec.width">1920</property>
  <property name="kdenlive:original.meta.media.0.codec.height">1080</property>
  <property name="kdenlive:original.meta.media.0.codec.rotate">0</property>
  <property name="kdenlive:original.meta.media.0.codec.pix_fmt">yuv420p</property>
  <property name="kdenlive:original.meta.media.0.codec.sample_aspect_ratio">0</property>
  <property name="kdenlive:original.meta.media.0.codec.colorspace">709</property>
  <property name="kdenlive:original.meta.media.0.codec.name">h264</property>
  <property name="kdenlive:original.meta.media.0.codec.long_name">H.264 / AVC / MPEG-4 AVC / MPEG-4 part 10</property>
  <property name="kdenlive:original.meta.media.0.codec.bit_rate">671928</property>
  <property name="kdenlive:original.meta.attr.0.stream.handler_name.markup">VideoHandler</property>
  <property name="kdenlive:original.meta.attr.0.stream.vendor_id.markup">[0][0][0][0]</property>
  <property name="kdenlive:original.meta.attr.0.stream.encoder.markup">Lavc60.3.100 libx264</property>
  <property name="kdenlive:original.meta.attr.major_brand.markup">isom</property>
  <property name="kdenlive:original.meta.attr.minor_version.markup">512</property>
  <property name="kdenlive:original.meta.attr.compatible_brands.markup">isomiso2avc1mp41</property>
  <property name="kdenlive:original.meta.attr.encoder.markup">Lavf60.3.100</property>
  <property name="kdenlive:original.meta.attr.comment.markup">Rendered with Manim Community v0.17.3</property>
  <property name="kdenlive:original.seekable">1</property>
  <property name="kdenlive:original.width">1920</property>
  <property name="kdenlive:original.height">1080</property>
  <property name="kdenlive:original.meta.media.sample_aspect_num">1</property>
  <property name="kdenlive:original.meta.media.sample_aspect_den">1</property>
  <property name="kdenlive:original.format">3</property>
  <property name="kdenlive:original.audio_index">-1</property>
  <property name="kdenlive:original.video_index">0</property>
  <property name="kdenlive:original.meta.media.frame_rate_num">60</property>
  <property name="kdenlive:original.meta.media.frame_rate_den">1</property>
  <property name="kdenlive:original.meta.media.colorspace">709</property>
  <property name="kdenlive:original.meta.media.color_trc">2</property>
  <property name="kdenlive:original.meta.media.has_b_frames">2</property>
  <property name="kdenlive:original.meta.media.width">1920</property>
  <property name="kdenlive:original.meta.media.height">1080</property>
  <property name="kdenlive:original.meta.media.color_range">mpeg</property>
  <property name="kdenlive:original.meta.media.top_field_first">0</property>
  <property name="kdenlive:original.meta.media.progressive">1</property>
  <property name="kdenlive:original.kdenlive:clip_type">2</property>
  <property name="kdenlive:original.kdenlive:folderid">16</property>
  <property name="kdenlive:original.kdenlive:id">44</property>
  <property name="kdenlive:original.mute_on_pause">0</property>
  <property name="kdenlive:original.kdenlive:file_size">85623</property>
  <property name="kdenlive:original.kdenlive:file_hash">b1d2cd3a06438d5bdd5e1445a4b3d67d</property>
  <property name="kdenlive:original.backup">1</property>
  <property name="meta.media.top_field_first">0</property>
  <property name="meta.media.progressive">1</property>
 </chain>
 <chain id="chain218" out="00:00:00.983">
  <property name="length">60</property>
  <property name="eof">pause</property>
  <property name="resource">/home/xiaoxiae/.cache/kdenlive/proxy/eaa296fb8c3fb62f3eb19ff81cdd7544.mkv</property>
  <property name="mlt_service">avformat-novalidate</property>
  <property name="meta.media.nb_streams">1</property>
  <property name="meta.media.0.stream.type">video</property>
  <property name="meta.media.0.stream.frame_rate">60</property>
  <property name="meta.media.0.stream.sample_aspect_ratio">0</property>
  <property name="meta.media.0.codec.width">640</property>
  <property name="meta.media.0.codec.height">360</property>
  <property name="meta.media.0.codec.rotate">0</property>
  <property name="meta.media.0.codec.pix_fmt">yuvj420p</property>
  <property name="meta.media.0.codec.sample_aspect_ratio">0</property>
  <property name="meta.media.0.codec.colorspace">601</property>
  <property name="meta.media.0.codec.name">mjpeg</property>
  <property name="meta.media.0.codec.long_name">MJPEG (Motion JPEG)</property>
  <property name="meta.media.0.codec.bit_rate">0</property>
  <property name="meta.attr.0.stream.HANDLER_NAME.markup">VideoHandler</property>
  <property name="meta.attr.0.stream.VENDOR_ID.markup">[0][0][0][0]</property>
  <property name="meta.attr.0.stream.ENCODER.markup">Lavc60.3.100 mjpeg</property>
  <property name="meta.attr.0.stream.DURATION.markup">00:00:01.000000000</property>
  <property name="meta.attr.COMMENT.markup">Rendered with Manim Community v0.17.3</property>
  <property name="meta.attr.MAJOR_BRAND.markup">isom</property>
  <property name="meta.attr.MINOR_VERSION.markup">512</property>
  <property name="meta.attr.COMPATIBLE_BRANDS.markup">isomiso2avc1mp41</property>
  <property name="meta.attr.ENCODER.markup">Lavf60.3.100</property>
  <property name="seekable">1</property>
  <property name="meta.media.sample_aspect_num">1</property>
  <property name="meta.media.sample_aspect_den">1</property>
  <property name="format">3</property>
  <property name="audio_index">-1</property>
  <property name="video_index">0</property>
  <property name="meta.media.frame_rate_num">60</property>
  <property name="meta.media.frame_rate_den">1</property>
  <property name="meta.media.colorspace">601</property>
  <property name="meta.media.color_trc">2</property>
  <property name="meta.media.has_b_frames">0</property>
  <property name="meta.media.width">640</property>
  <property name="meta.media.height">360</property>
  <property name="meta.media.color_range">full</property>
  <property name="kdenlive:clipname">124.mp4</property>
  <property name="kdenlive:clip_type">2</property>
  <property name="kdenlive:folderid">16</property>
  <property name="kdenlive:id">45</property>
  <property name="mute_on_pause">0</property>
  <property name="kdenlive:file_size">71579</property>
  <property name="kdenlive:file_hash">eaa296fb8c3fb62f3eb19ff81cdd7544</property>
  <property name="kdenlive:proxy">/home/xiaoxiae/.cache/kdenlive/proxy/eaa296fb8c3fb62f3eb19ff81cdd7544.mkv</property>
  <property name="kdenlive:originalurl">video/Farmer/124.mp4</property>
  <property name="kdenlive:original.mlt_type">chain</property>
  <property name="kdenlive:original.in">0</property>
  <property name="kdenlive:original.out">00:00:00.983</property>
  <property name="kdenlive:original.length">60</property>
  <property name="kdenlive:original.eof">pause</property>
  <property name="kdenlive:original.resource">video/Farmer/124.mp4</property>
  <property name="kdenlive:original.mlt_service">avformat-novalidate</property>
  <property name="kdenlive:original.meta.media.nb_streams">1</property>
  <property name="kdenlive:original.meta.media.0.stream.type">video</property>
  <property name="kdenlive:original.meta.media.0.stream.frame_rate">60</property>
  <property name="kdenlive:original.meta.media.0.stream.sample_aspect_ratio">0</property>
  <property name="kdenlive:original.meta.media.0.codec.width">1920</property>
  <property name="kdenlive:original.meta.media.0.codec.height">1080</property>
  <property name="kdenlive:original.meta.media.0.codec.rotate">0</property>
  <property name="kdenlive:original.meta.media.0.codec.pix_fmt">yuv420p</property>
  <property name="kdenlive:original.meta.media.0.codec.sample_aspect_ratio">0</property>
  <property name="kdenlive:original.meta.media.0.codec.colorspace">709</property>
  <property name="kdenlive:original.meta.media.0.codec.name">h264</property>
  <property name="kdenlive:original.meta.media.0.codec.long_name">H.264 / AVC / MPEG-4 AVC / MPEG-4 part 10</property>
  <property name="kdenlive:original.meta.media.0.codec.bit_rate">559576</property>
  <property name="kdenlive:original.meta.attr.0.stream.handler_name.markup">VideoHandler</property>
  <property name="kdenlive:original.meta.attr.0.stream.vendor_id.markup">[0][0][0][0]</property>
  <property name="kdenlive:original.meta.attr.0.stream.encoder.markup">Lavc60.3.100 libx264</property>
  <property name="kdenlive:original.meta.attr.major_brand.markup">isom</property>
  <property name="kdenlive:original.meta.attr.minor_version.markup">512</property>
  <property name="kdenlive:original.meta.attr.compatible_brands.markup">isomiso2avc1mp41</property>
  <property name="kdenlive:original.meta.attr.encoder.markup">Lavf60.3.100</property>
  <property name="kdenlive:original.meta.attr.comment.markup">Rendered with Manim Community v0.17.3</property>
  <property name="kdenlive:original.seekable">1</property>
  <property name="kdenlive:original.width">1920</property>
  <property name="kdenlive:original.height">1080</property>
  <property name="kdenlive:original.meta.media.sample_aspect_num">1</property>
  <property name="kdenlive:original.meta.media.sample_aspect_den">1</property>
  <property name="kdenlive:original.format">3</property>
  <property name="kdenlive:original.audio_index">-1</property>
  <property name="kdenlive:original.video_index">0</property>
  <property name="kdenlive:original.meta.media.frame_rate_num">60</property>
  <property name="kdenlive:original.meta.media.frame_rate_den">1</property>
  <property name="kdenlive:original.meta.media.colorspace">709</property>
  <property name="kdenlive:original.meta.media.color_trc">2</property>
  <property name="kdenlive:original.meta.media.has_b_frames">2</property>
  <property name="kdenlive:original.meta.media.width">1920</property>
  <property name="kdenlive:original.meta.media.height">1080</property>
  <property name="kdenlive:original.meta.media.color_range">mpeg</property>
  <property name="kdenlive:original.meta.media.top_field_first">0</property>
  <property name="kdenlive:original.meta.media.progressive">1</property>
  <property name="kdenlive:original.kdenlive:clip_type">2</property>
  <property name="kdenlive:original.kdenlive:folderid">16</property>
  <property name="kdenlive:original.kdenlive:id">45</property>
  <property name="kdenlive:original.mute_on_pause">0</property>
  <property name="kdenlive:original.kdenlive:file_size">71579</property>
  <property name="kdenlive:original.kdenlive:file_hash">eaa296fb8c3fb62f3eb19ff81cdd7544</property>
  <property name="kdenlive:original.backup">1</property>
  <property name="meta.media.top_field_first">0</property>
  <property name="meta.media.progressive">1</property>
 </chain>
 <chain id="chain215" out="00:00:01.483">
  <property name="length">90</property>
  <property name="eof">pause</property>
  <property name="resource">/home/xiaoxiae/.cache/kdenlive/proxy/9fb7ad3ebcf62b403e1dcef0bc7d16f0.mkv</property>
  <property name="mlt_service">avformat-novalidate</property>
  <property name="meta.media.nb_streams">1</property>
  <property name="meta.media.0.stream.type">video</property>
  <property name="meta.media.0.stream.frame_rate">60</property>
  <property name="meta.media.0.stream.sample_aspect_ratio">0</property>
  <property name="meta.media.0.codec.width">640</property>
  <property name="meta.media.0.codec.height">360</property>
  <property name="meta.media.0.codec.rotate">0</property>
  <property name="meta.media.0.codec.pix_fmt">yuvj420p</property>
  <property name="meta.media.0.codec.sample_aspect_ratio">0</property>
  <property name="meta.media.0.codec.colorspace">601</property>
  <property name="meta.media.0.codec.name">mjpeg</property>
  <property name="meta.media.0.codec.long_name">MJPEG (Motion JPEG)</property>
  <property name="meta.media.0.codec.bit_rate">0</property>
  <property name="meta.attr.0.stream.HANDLER_NAME.markup">VideoHandler</property>
  <property name="meta.attr.0.stream.VENDOR_ID.markup">[0][0][0][0]</property>
  <property name="meta.attr.0.stream.ENCODER.markup">Lavc60.3.100 mjpeg</property>
  <property name="meta.attr.0.stream.DURATION.markup">00:00:01.500000000</property>
  <property name="meta.attr.COMMENT.markup">Rendered with Manim Community v0.17.3</property>
  <property name="meta.attr.MAJOR_BRAND.markup">isom</property>
  <property name="meta.attr.MINOR_VERSION.markup">512</property>
  <property name="meta.attr.COMPATIBLE_BRANDS.markup">isomiso2avc1mp41</property>
  <property name="meta.attr.ENCODER.markup">Lavf60.3.100</property>
  <property name="seekable">1</property>
  <property name="meta.media.sample_aspect_num">1</property>
  <property name="meta.media.sample_aspect_den">1</property>
  <property name="format">3</property>
  <property name="audio_index">-1</property>
  <property name="video_index">0</property>
  <property name="meta.media.frame_rate_num">60</property>
  <property name="meta.media.frame_rate_den">1</property>
  <property name="meta.media.colorspace">601</property>
  <property name="meta.media.color_trc">2</property>
  <property name="meta.media.has_b_frames">0</property>
  <property name="meta.media.width">640</property>
  <property name="meta.media.height">360</property>
  <property name="meta.media.color_range">full</property>
  <property name="kdenlive:clipname">125.mp4</property>
  <property name="kdenlive:clip_type">2</property>
  <property name="kdenlive:folderid">16</property>
  <property name="kdenlive:id">46</property>
  <property name="mute_on_pause">0</property>
  <property name="kdenlive:file_size">88768</property>
  <property name="kdenlive:file_hash">9fb7ad3ebcf62b403e1dcef0bc7d16f0</property>
  <property name="kdenlive:proxy">/home/xiaoxiae/.cache/kdenlive/proxy/9fb7ad3ebcf62b403e1dcef0bc7d16f0.mkv</property>
  <property name="kdenlive:originalurl">video/Farmer/125.mp4</property>
  <property name="kdenlive:original.mlt_type">chain</property>
  <property name="kdenlive:original.in">0</property>
  <property name="kdenlive:original.out">00:00:01.483</property>
  <property name="kdenlive:original.length">90</property>
  <property name="kdenlive:original.eof">pause</property>
  <property name="kdenlive:original.resource">video/Farmer/125.mp4</property>
  <property name="kdenlive:original.mlt_service">avformat-novalidate</property>
  <property name="kdenlive:original.meta.media.nb_streams">1</property>
  <property name="kdenlive:original.meta.media.0.stream.type">video</property>
  <property name="kdenlive:original.meta.media.0.stream.frame_rate">60</property>
  <property name="kdenlive:original.meta.media.0.stream.sample_aspect_ratio">0</property>
  <property name="kdenlive:original.meta.media.0.codec.width">1920</property>
  <property name="kdenlive:original.meta.media.0.codec.height">1080</property>
  <property name="kdenlive:original.meta.media.0.codec.rotate">0</property>
  <property name="kdenlive:original.meta.media.0.codec.pix_fmt">yuv420p</property>
  <property name="kdenlive:original.meta.media.0.codec.sample_aspect_ratio">0</property>
  <property name="kdenlive:original.meta.media.0.codec.colorspace">709</property>
  <property name="kdenlive:original.meta.media.0.codec.name">h264</property>
  <property name="kdenlive:original.meta.media.0.codec.long_name">H.264 / AVC / MPEG-4 AVC / MPEG-4 part 10</property>
  <property name="kdenlive:original.meta.media.0.codec.bit_rate">463189</property>
  <property name="kdenlive:original.meta.attr.0.stream.handler_name.markup">VideoHandler</property>
  <property name="kdenlive:original.meta.attr.0.stream.vendor_id.markup">[0][0][0][0]</property>
  <property name="kdenlive:original.meta.attr.0.stream.encoder.markup">Lavc60.3.100 libx264</property>
  <property name="kdenlive:original.meta.attr.major_brand.markup">isom</property>
  <property name="kdenlive:original.meta.attr.minor_version.markup">512</property>
  <property name="kdenlive:original.meta.attr.compatible_brands.markup">isomiso2avc1mp41</property>
  <property name="kdenlive:original.meta.attr.encoder.markup">Lavf60.3.100</property>
  <property name="kdenlive:original.meta.attr.comment.markup">Rendered with Manim Community v0.17.3</property>
  <property name="kdenlive:original.seekable">1</property>
  <property name="kdenlive:original.width">1920</property>
  <property name="kdenlive:original.height">1080</property>
  <property name="kdenlive:original.meta.media.sample_aspect_num">1</property>
  <property name="kdenlive:original.meta.media.sample_aspect_den">1</property>
  <property name="kdenlive:original.format">3</property>
  <property name="kdenlive:original.audio_index">-1</property>
  <property name="kdenlive:original.video_index">0</property>
  <property name="kdenlive:original.meta.media.frame_rate_num">60</property>
  <property name="kdenlive:original.meta.media.frame_rate_den">1</property>
  <property name="kdenlive:original.meta.media.colorspace">709</property>
  <property name="kdenlive:original.meta.media.color_trc">2</property>
  <property name="kdenlive:original.meta.media.has_b_frames">2</property>
  <property name="kdenlive:original.meta.media.width">1920</property>
  <property name="kdenlive:original.meta.media.height">1080</property>
  <property name="kdenlive:original.meta.media.color_range">mpeg</property>
  <property name="kdenlive:original.meta.media.top_field_first">0</property>
  <property name="kdenlive:original.meta.media.progressive">1</property>
  <property name="kdenlive:original.kdenlive:clip_type">2</property>
  <property name="kdenlive:original.kdenlive:folderid">16</property>
  <property name="kdenlive:original.kdenlive:id">46</property>
  <property name="kdenlive:original.mute_on_pause">0</property>
  <property name="kdenlive:original.kdenlive:file_size">88768</property>
  <property name="kdenlive:original.kdenlive:file_hash">9fb7ad3ebcf62b403e1dcef0bc7d16f0</property>
  <property name="kdenlive:original.backup">1</property>
  <property name="meta.media.top_field_first">0</property>
  <property name="meta.media.progressive">1</property>
 </chain>
 <chain id="chain214" out="00:00:01.733">
  <property name="length">105</property>
  <property name="eof">pause</property>
  <property name="resource">/home/xiaoxiae/.cache/kdenlive/proxy/3417dd468f4e631dd2f3d24a54d58de1.mkv</property>
  <property name="mlt_service">avformat-novalidate</property>
  <property name="meta.media.nb_streams">1</property>
  <property name="meta.media.0.stream.type">video</property>
  <property name="meta.media.0.stream.frame_rate">60</property>
  <property name="meta.media.0.stream.sample_aspect_ratio">0</property>
  <property name="meta.media.0.codec.width">640</property>
  <property name="meta.media.0.codec.height">360</property>
  <property name="meta.media.0.codec.rotate">0</property>
  <property name="meta.media.0.codec.pix_fmt">yuvj420p</property>
  <property name="meta.media.0.codec.sample_aspect_ratio">0</property>
  <property name="meta.media.0.codec.colorspace">601</property>
  <property name="meta.media.0.codec.name">mjpeg</property>
  <property name="meta.media.0.codec.long_name">MJPEG (Motion JPEG)</property>
  <property name="meta.media.0.codec.bit_rate">0</property>
  <property name="meta.attr.0.stream.HANDLER_NAME.markup">VideoHandler</property>
  <property name="meta.attr.0.stream.VENDOR_ID.markup">[0][0][0][0]</property>
  <property name="meta.attr.0.stream.ENCODER.markup">Lavc60.3.100 mjpeg</property>
  <property name="meta.attr.0.stream.DURATION.markup">00:00:01.750000000</property>
  <property name="meta.attr.COMMENT.markup">Rendered with Manim Community v0.17.3</property>
  <property name="meta.attr.MAJOR_BRAND.markup">isom</property>
  <property name="meta.attr.MINOR_VERSION.markup">512</property>
  <property name="meta.attr.COMPATIBLE_BRANDS.markup">isomiso2avc1mp41</property>
  <property name="meta.attr.ENCODER.markup">Lavf60.3.100</property>
  <property name="seekable">1</property>
  <property name="meta.media.sample_aspect_num">1</property>
  <property name="meta.media.sample_aspect_den">1</property>
  <property name="format">3</property>
  <property name="audio_index">-1</property>
  <property name="video_index">0</property>
  <property name="meta.media.frame_rate_num">60</property>
  <property name="meta.media.frame_rate_den">1</property>
  <property name="meta.media.colorspace">601</property>
  <property name="meta.media.color_trc">2</property>
  <property name="meta.media.has_b_frames">0</property>
  <property name="meta.media.width">640</property>
  <property name="meta.media.height">360</property>
  <property name="meta.media.color_range">full</property>
  <property name="kdenlive:clipname">126.mp4</property>
  <property name="kdenlive:clip_type">2</property>
  <property name="kdenlive:folderid">16</property>
  <property name="kdenlive:id">47</property>
  <property name="mute_on_pause">0</property>
  <property name="kdenlive:file_size">159871</property>
  <property name="kdenlive:file_hash">3417dd468f4e631dd2f3d24a54d58de1</property>
  <property name="kdenlive:proxy">/home/xiaoxiae/.cache/kdenlive/proxy/3417dd468f4e631dd2f3d24a54d58de1.mkv</property>
  <property name="kdenlive:originalurl">video/Farmer/126.mp4</property>
  <property name="kdenlive:original.mlt_type">chain</property>
  <property name="kdenlive:original.in">0</property>
  <property name="kdenlive:original.out">00:00:01.733</property>
  <property name="kdenlive:original.length">105</property>
  <property name="kdenlive:original.eof">pause</property>
  <property name="kdenlive:original.resource">video/Farmer/126.mp4</property>
  <property name="kdenlive:original.mlt_service">avformat-novalidate</property>
  <property name="kdenlive:original.meta.media.nb_streams">1</property>
  <property name="kdenlive:original.meta.media.0.stream.type">video</property>
  <property name="kdenlive:original.meta.media.0.stream.frame_rate">60</property>
  <property name="kdenlive:original.meta.media.0.stream.sample_aspect_ratio">0</property>
  <property name="kdenlive:original.meta.media.0.codec.width">1920</property>
  <property name="kdenlive:original.meta.media.0.codec.height">1080</property>
  <property name="kdenlive:original.meta.media.0.codec.rotate">0</property>
  <property name="kdenlive:original.meta.media.0.codec.pix_fmt">yuv420p</property>
  <property name="kdenlive:original.meta.media.0.codec.sample_aspect_ratio">0</property>
  <property name="kdenlive:original.meta.media.0.codec.colorspace">709</property>
  <property name="kdenlive:original.meta.media.0.codec.name">h264</property>
  <property name="kdenlive:original.meta.media.0.codec.long_name">H.264 / AVC / MPEG-4 AVC / MPEG-4 part 10</property>
  <property name="kdenlive:original.meta.media.0.codec.bit_rate">721531</property>
  <property name="kdenlive:original.meta.attr.0.stream.handler_name.markup">VideoHandler</property>
  <property name="kdenlive:original.meta.attr.0.stream.vendor_id.markup">[0][0][0][0]</property>
  <property name="kdenlive:original.meta.attr.0.stream.encoder.markup">Lavc60.3.100 libx264</property>
  <property name="kdenlive:original.meta.attr.major_brand.markup">isom</property>
  <property name="kdenlive:original.meta.attr.minor_version.markup">512</property>
  <property name="kdenlive:original.meta.attr.compatible_brands.markup">isomiso2avc1mp41</property>
  <property name="kdenlive:original.meta.attr.encoder.markup">Lavf60.3.100</property>
  <property name="kdenlive:original.meta.attr.comment.markup">Rendered with Manim Community v0.17.3</property>
  <property name="kdenlive:original.seekable">1</property>
  <property name="kdenlive:original.width">1920</property>
  <property name="kdenlive:original.height">1080</property>
  <property name="kdenlive:original.meta.media.sample_aspect_num">1</property>
  <property name="kdenlive:original.meta.media.sample_aspect_den">1</property>
  <property name="kdenlive:original.format">3</property>
  <property name="kdenlive:original.audio_index">-1</property>
  <property name="kdenlive:original.video_index">0</property>
  <property name="kdenlive:original.meta.media.frame_rate_num">60</property>
  <property name="kdenlive:original.meta.media.frame_rate_den">1</property>
  <property name="kdenlive:original.meta.media.colorspace">709</property>
  <property name="kdenlive:original.meta.media.color_trc">2</property>
  <property name="kdenlive:original.meta.media.has_b_frames">2</property>
  <property name="kdenlive:original.meta.media.width">1920</property>
  <property name="kdenlive:original.meta.media.height">1080</property>
  <property name="kdenlive:original.meta.media.color_range">mpeg</property>
  <property name="kdenlive:original.meta.media.top_field_first">0</property>
  <property name="kdenlive:original.meta.media.progressive">1</property>
  <property name="kdenlive:original.kdenlive:clip_type">2</property>
  <property name="kdenlive:original.kdenlive:folderid">16</property>
  <property name="kdenlive:original.kdenlive:id">47</property>
  <property name="kdenlive:original.mute_on_pause">0</property>
  <property name="kdenlive:original.kdenlive:file_size">159871</property>
  <property name="kdenlive:original.kdenlive:file_hash">3417dd468f4e631dd2f3d24a54d58de1</property>
  <property name="kdenlive:original.backup">1</property>
  <property name="meta.media.top_field_first">0</property>
  <property name="meta.media.progressive">1</property>
 </chain>
 <chain id="chain212" out="00:00:00.983">
  <property name="length">60</property>
  <property name="eof">pause</property>
  <property name="resource">/home/xiaoxiae/.cache/kdenlive/proxy/f0b12f657d4af54d3157d65556561424.mkv</property>
  <property name="mlt_service">avformat-novalidate</property>
  <property name="meta.media.nb_streams">1</property>
  <property name="meta.media.0.stream.type">video</property>
  <property name="meta.media.0.stream.frame_rate">60</property>
  <property name="meta.media.0.stream.sample_aspect_ratio">0</property>
  <property name="meta.media.0.codec.width">640</property>
  <property name="meta.media.0.codec.height">360</property>
  <property name="meta.media.0.codec.rotate">0</property>
  <property name="meta.media.0.codec.pix_fmt">yuvj420p</property>
  <property name="meta.media.0.codec.sample_aspect_ratio">0</property>
  <property name="meta.media.0.codec.colorspace">601</property>
  <property name="meta.media.0.codec.name">mjpeg</property>
  <property name="meta.media.0.codec.long_name">MJPEG (Motion JPEG)</property>
  <property name="meta.media.0.codec.bit_rate">0</property>
  <property name="meta.attr.0.stream.HANDLER_NAME.markup">VideoHandler</property>
  <property name="meta.attr.0.stream.VENDOR_ID.markup">[0][0][0][0]</property>
  <property name="meta.attr.0.stream.ENCODER.markup">Lavc60.3.100 mjpeg</property>
  <property name="meta.attr.0.stream.DURATION.markup">00:00:01.000000000</property>
  <property name="meta.attr.COMMENT.markup">Rendered with Manim Community v0.17.3</property>
  <property name="meta.attr.MAJOR_BRAND.markup">isom</property>
  <property name="meta.attr.MINOR_VERSION.markup">512</property>
  <property name="meta.attr.COMPATIBLE_BRANDS.markup">isomiso2avc1mp41</property>
  <property name="meta.attr.ENCODER.markup">Lavf60.3.100</property>
  <property name="seekable">1</property>
  <property name="meta.media.sample_aspect_num">1</property>
  <property name="meta.media.sample_aspect_den">1</property>
  <property name="format">3</property>
  <property name="audio_index">-1</property>
  <property name="video_index">0</property>
  <property name="meta.media.frame_rate_num">60</property>
  <property name="meta.media.frame_rate_den">1</property>
  <property name="meta.media.colorspace">601</property>
  <property name="meta.media.color_trc">2</property>
  <property name="meta.media.has_b_frames">0</property>
  <property name="meta.media.width">640</property>
  <property name="meta.media.height">360</property>
  <property name="meta.media.color_range">full</property>
  <property name="kdenlive:clipname">127.mp4</property>
  <property name="kdenlive:clip_type">2</property>
  <property name="kdenlive:folderid">16</property>
  <property name="kdenlive:id">48</property>
  <property name="mute_on_pause">0</property>
  <property name="kdenlive:file_size">89414</property>
  <property name="kdenlive:file_hash">f0b12f657d4af54d3157d65556561424</property>
  <property name="kdenlive:proxy">/home/xiaoxiae/.cache/kdenlive/proxy/f0b12f657d4af54d3157d65556561424.mkv</property>
  <property name="kdenlive:originalurl">video/Farmer/127.mp4</property>
  <property name="kdenlive:original.mlt_type">chain</property>
  <property name="kdenlive:original.in">0</property>
  <property name="kdenlive:original.out">00:00:00.983</property>
  <property name="kdenlive:original.length">60</property>
  <property name="kdenlive:original.eof">pause</property>
  <property name="kdenlive:original.resource">video/Farmer/127.mp4</property>
  <property name="kdenlive:original.mlt_service">avformat-novalidate</property>
  <property name="kdenlive:original.meta.media.nb_streams">1</property>
  <property name="kdenlive:original.meta.media.0.stream.type">video</property>
  <property name="kdenlive:original.meta.media.0.stream.frame_rate">60</property>
  <property name="kdenlive:original.meta.media.0.stream.sample_aspect_ratio">0</property>
  <property name="kdenlive:original.meta.media.0.codec.width">1920</property>
  <property name="kdenlive:original.meta.media.0.codec.height">1080</property>
  <property name="kdenlive:original.meta.media.0.codec.rotate">0</property>
  <property name="kdenlive:original.meta.media.0.codec.pix_fmt">yuv420p</property>
  <property name="kdenlive:original.meta.media.0.codec.sample_aspect_ratio">0</property>
  <property name="kdenlive:original.meta.media.0.codec.colorspace">709</property>
  <property name="kdenlive:original.meta.media.0.codec.name">h264</property>
  <property name="kdenlive:original.meta.media.0.codec.long_name">H.264 / AVC / MPEG-4 AVC / MPEG-4 part 10</property>
  <property name="kdenlive:original.meta.media.0.codec.bit_rate">702256</property>
  <property name="kdenlive:original.meta.attr.0.stream.handler_name.markup">VideoHandler</property>
  <property name="kdenlive:original.meta.attr.0.stream.vendor_id.markup">[0][0][0][0]</property>
  <property name="kdenlive:original.meta.attr.0.stream.encoder.markup">Lavc60.3.100 libx264</property>
  <property name="kdenlive:original.meta.attr.major_brand.markup">isom</property>
  <property name="kdenlive:original.meta.attr.minor_version.markup">512</property>
  <property name="kdenlive:original.meta.attr.compatible_brands.markup">isomiso2avc1mp41</property>
  <property name="kdenlive:original.meta.attr.encoder.markup">Lavf60.3.100</property>
  <property name="kdenlive:original.meta.attr.comment.markup">Rendered with Manim Community v0.17.3</property>
  <property name="kdenlive:original.seekable">1</property>
  <property name="kdenlive:original.width">1920</property>
  <property name="kdenlive:original.height">1080</property>
  <property name="kdenlive:original.meta.media.sample_aspect_num">1</property>
  <property name="kdenlive:original.meta.media.sample_aspect_den">1</property>
  <property name="kdenlive:original.format">3</property>
  <property name="kdenlive:original.audio_index">-1</property>
  <property name="kdenlive:original.video_index">0</property>
  <property name="kdenlive:original.meta.media.frame_rate_num">60</property>
  <property name="kdenlive:original.meta.media.frame_rate_den">1</property>
  <property name="kdenlive:original.meta.media.colorspace">709</property>
  <property name="kdenlive:original.meta.media.color_trc">2</property>
  <property name="kdenlive:original.meta.media.has_b_frames">2</property>
  <property name="kdenlive:original.meta.media.width">1920</property>
  <property name="kdenlive:original.meta.media.height">1080</property>
  <property name="kdenlive:original.meta.media.color_range">mpeg</property>
  <property name="kdenlive:original.meta.media.top_field_first">0</property>
  <property name="kdenlive:original.meta.media.progressive">1</property>
  <property name="kdenlive:original.kdenlive:clip_type">2</property>
  <property name="kdenlive:original.kdenlive:folderid">16</property>
  <property name="kdenlive:original.kdenlive:id">48</property>
  <property name="kdenlive:original.mute_on_pause">0</property>
  <property name="kdenlive:original.kdenlive:file_size">89414</property>
  <property name="kdenlive:original.kdenlive:file_hash">f0b12f657d4af54d3157d65556561424</property>
  <property name="kdenlive:original.backup">1</property>
  <property name="meta.media.top_field_first">0</property>
  <property name="meta.media.progressive">1</property>
 </chain>
 <chain id="chain211" out="00:00:00.983">
  <property name="length">60</property>
  <property name="eof">pause</property>
  <property name="resource">/home/xiaoxiae/.cache/kdenlive/proxy/94b48d026c6b8edcd60464e24ed25d7a.mkv</property>
  <property name="mlt_service">avformat-novalidate</property>
  <property name="meta.media.nb_streams">1</property>
  <property name="meta.media.0.stream.type">video</property>
  <property name="meta.media.0.stream.frame_rate">60</property>
  <property name="meta.media.0.stream.sample_aspect_ratio">0</property>
  <property name="meta.media.0.codec.width">640</property>
  <property name="meta.media.0.codec.height">360</property>
  <property name="meta.media.0.codec.rotate">0</property>
  <property name="meta.media.0.codec.pix_fmt">yuvj420p</property>
  <property name="meta.media.0.codec.sample_aspect_ratio">0</property>
  <property name="meta.media.0.codec.colorspace">601</property>
  <property name="meta.media.0.codec.name">mjpeg</property>
  <property name="meta.media.0.codec.long_name">MJPEG (Motion JPEG)</property>
  <property name="meta.media.0.codec.bit_rate">0</property>
  <property name="meta.attr.0.stream.HANDLER_NAME.markup">VideoHandler</property>
  <property name="meta.attr.0.stream.VENDOR_ID.markup">[0][0][0][0]</property>
  <property name="meta.attr.0.stream.ENCODER.markup">Lavc60.3.100 mjpeg</property>
  <property name="meta.attr.0.stream.DURATION.markup">00:00:01.000000000</property>
  <property name="meta.attr.COMMENT.markup">Rendered with Manim Community v0.17.3</property>
  <property name="meta.attr.MAJOR_BRAND.markup">isom</property>
  <property name="meta.attr.MINOR_VERSION.markup">512</property>
  <property name="meta.attr.COMPATIBLE_BRANDS.markup">isomiso2avc1mp41</property>
  <property name="meta.attr.ENCODER.markup">Lavf60.3.100</property>
  <property name="seekable">1</property>
  <property name="meta.media.sample_aspect_num">1</property>
  <property name="meta.media.sample_aspect_den">1</property>
  <property name="format">3</property>
  <property name="audio_index">-1</property>
  <property name="video_index">0</property>
  <property name="meta.media.frame_rate_num">60</property>
  <property name="meta.media.frame_rate_den">1</property>
  <property name="meta.media.colorspace">601</property>
  <property name="meta.media.color_trc">2</property>
  <property name="meta.media.has_b_frames">0</property>
  <property name="meta.media.width">640</property>
  <property name="meta.media.height">360</property>
  <property name="meta.media.color_range">full</property>
  <property name="kdenlive:clipname">128.mp4</property>
  <property name="kdenlive:clip_type">2</property>
  <property name="kdenlive:folderid">16</property>
  <property name="kdenlive:id">49</property>
  <property name="mute_on_pause">0</property>
  <property name="kdenlive:file_size">97319</property>
  <property name="kdenlive:file_hash">94b48d026c6b8edcd60464e24ed25d7a</property>
  <property name="kdenlive:proxy">/home/xiaoxiae/.cache/kdenlive/proxy/94b48d026c6b8edcd60464e24ed25d7a.mkv</property>
  <property name="kdenlive:originalurl">video/Farmer/128.mp4</property>
  <property name="kdenlive:original.mlt_type">chain</property>
  <property name="kdenlive:original.in">0</property>
  <property name="kdenlive:original.out">00:00:00.983</property>
  <property name="kdenlive:original.length">60</property>
  <property name="kdenlive:original.eof">pause</property>
  <property name="kdenlive:original.resource">video/Farmer/128.mp4</property>
  <property name="kdenlive:original.mlt_service">avformat-novalidate</property>
  <property name="kdenlive:original.meta.media.nb_streams">1</property>
  <property name="kdenlive:original.meta.media.0.stream.type">video</property>
  <property name="kdenlive:original.meta.media.0.stream.frame_rate">60</property>
  <property name="kdenlive:original.meta.media.0.stream.sample_aspect_ratio">0</property>
  <property name="kdenlive:original.meta.media.0.codec.width">1920</property>
  <property name="kdenlive:original.meta.media.0.codec.height">1080</property>
  <property name="kdenlive:original.meta.media.0.codec.rotate">0</property>
  <property name="kdenlive:original.meta.media.0.codec.pix_fmt">yuv420p</property>
  <property name="kdenlive:original.meta.media.0.codec.sample_aspect_ratio">0</property>
  <property name="kdenlive:original.meta.media.0.codec.colorspace">709</property>
  <property name="kdenlive:original.meta.media.0.codec.name">h264</property>
  <property name="kdenlive:original.meta.media.0.codec.long_name">H.264 / AVC / MPEG-4 AVC / MPEG-4 part 10</property>
  <property name="kdenlive:original.meta.media.0.codec.bit_rate">765624</property>
  <property name="kdenlive:original.meta.attr.0.stream.handler_name.markup">VideoHandler</property>
  <property name="kdenlive:original.meta.attr.0.stream.vendor_id.markup">[0][0][0][0]</property>
  <property name="kdenlive:original.meta.attr.0.stream.encoder.markup">Lavc60.3.100 libx264</property>
  <property name="kdenlive:original.meta.attr.major_brand.markup">isom</property>
  <property name="kdenlive:original.meta.attr.minor_version.markup">512</property>
  <property name="kdenlive:original.meta.attr.compatible_brands.markup">isomiso2avc1mp41</property>
  <property name="kdenlive:original.meta.attr.encoder.markup">Lavf60.3.100</property>
  <property name="kdenlive:original.meta.attr.comment.markup">Rendered with Manim Community v0.17.3</property>
  <property name="kdenlive:original.seekable">1</property>
  <property name="kdenlive:original.width">1920</property>
  <property name="kdenlive:original.height">1080</property>
  <property name="kdenlive:original.meta.media.sample_aspect_num">1</property>
  <property name="kdenlive:original.meta.media.sample_aspect_den">1</property>
  <property name="kdenlive:original.format">3</property>
  <property name="kdenlive:original.audio_index">-1</property>
  <property name="kdenlive:original.video_index">0</property>
  <property name="kdenlive:original.meta.media.frame_rate_num">60</property>
  <property name="kdenlive:original.meta.media.frame_rate_den">1</property>
  <property name="kdenlive:original.meta.media.colorspace">709</property>
  <property name="kdenlive:original.meta.media.color_trc">2</property>
  <property name="kdenlive:original.meta.media.has_b_frames">2</property>
  <property name="kdenlive:original.meta.media.width">1920</property>
  <property name="kdenlive:original.meta.media.height">1080</property>
  <property name="kdenlive:original.meta.media.color_range">mpeg</property>
  <property name="kdenlive:original.meta.media.top_field_first">0</property>
  <property name="kdenlive:original.meta.media.progressive">1</property>
  <property name="kdenlive:original.kdenlive:clip_type">2</property>
  <property name="kdenlive:original.kdenlive:folderid">16</property>
  <property name="kdenlive:original.kdenlive:id">49</property>
  <property name="kdenlive:original.mute_on_pause">0</property>
  <property name="kdenlive:original.kdenlive:file_size">97319</property>
  <property name="kdenlive:original.kdenlive:file_hash">94b48d026c6b8edcd60464e24ed25d7a</property>
  <property name="kdenlive:original.backup">1</property>
  <property name="meta.media.top_field_first">0</property>
  <property name="meta.media.progressive">1</property>
 </chain>
 <chain id="chain208" out="00:00:00.983">
  <property name="length">60</property>
  <property name="eof">pause</property>
  <property name="resource">/home/xiaoxiae/.cache/kdenlive/proxy/132e19edd93a5d08456e7309520cd6f6.mkv</property>
  <property name="mlt_service">avformat-novalidate</property>
  <property name="meta.media.nb_streams">1</property>
  <property name="meta.media.0.stream.type">video</property>
  <property name="meta.media.0.stream.frame_rate">60</property>
  <property name="meta.media.0.stream.sample_aspect_ratio">0</property>
  <property name="meta.media.0.codec.width">640</property>
  <property name="meta.media.0.codec.height">360</property>
  <property name="meta.media.0.codec.rotate">0</property>
  <property name="meta.media.0.codec.pix_fmt">yuvj420p</property>
  <property name="meta.media.0.codec.sample_aspect_ratio">0</property>
  <property name="meta.media.0.codec.colorspace">601</property>
  <property name="meta.media.0.codec.name">mjpeg</property>
  <property name="meta.media.0.codec.long_name">MJPEG (Motion JPEG)</property>
  <property name="meta.media.0.codec.bit_rate">0</property>
  <property name="meta.attr.0.stream.HANDLER_NAME.markup">VideoHandler</property>
  <property name="meta.attr.0.stream.VENDOR_ID.markup">[0][0][0][0]</property>
  <property name="meta.attr.0.stream.ENCODER.markup">Lavc60.3.100 mjpeg</property>
  <property name="meta.attr.0.stream.DURATION.markup">00:00:01.000000000</property>
  <property name="meta.attr.COMMENT.markup">Rendered with Manim Community v0.17.3</property>
  <property name="meta.attr.MAJOR_BRAND.markup">isom</property>
  <property name="meta.attr.MINOR_VERSION.markup">512</property>
  <property name="meta.attr.COMPATIBLE_BRANDS.markup">isomiso2avc1mp41</property>
  <property name="meta.attr.ENCODER.markup">Lavf60.3.100</property>
  <property name="seekable">1</property>
  <property name="meta.media.sample_aspect_num">1</property>
  <property name="meta.media.sample_aspect_den">1</property>
  <property name="format">3</property>
  <property name="audio_index">-1</property>
  <property name="video_index">0</property>
  <property name="meta.media.frame_rate_num">60</property>
  <property name="meta.media.frame_rate_den">1</property>
  <property name="meta.media.colorspace">601</property>
  <property name="meta.media.color_trc">2</property>
  <property name="meta.media.has_b_frames">0</property>
  <property name="meta.media.width">640</property>
  <property name="meta.media.height">360</property>
  <property name="meta.media.color_range">full</property>
  <property name="kdenlive:clipname">129.mp4</property>
  <property name="kdenlive:clip_type">2</property>
  <property name="kdenlive:folderid">16</property>
  <property name="kdenlive:id">50</property>
  <property name="mute_on_pause">0</property>
  <property name="kdenlive:file_size">97690</property>
  <property name="kdenlive:file_hash">132e19edd93a5d08456e7309520cd6f6</property>
  <property name="kdenlive:proxy">/home/xiaoxiae/.cache/kdenlive/proxy/132e19edd93a5d08456e7309520cd6f6.mkv</property>
  <property name="kdenlive:originalurl">video/Farmer/129.mp4</property>
  <property name="kdenlive:original.mlt_type">chain</property>
  <property name="kdenlive:original.in">0</property>
  <property name="kdenlive:original.out">00:00:00.983</property>
  <property name="kdenlive:original.length">60</property>
  <property name="kdenlive:original.eof">pause</property>
  <property name="kdenlive:original.resource">video/Farmer/129.mp4</property>
  <property name="kdenlive:original.mlt_service">avformat-novalidate</property>
  <property name="kdenlive:original.meta.media.nb_streams">1</property>
  <property name="kdenlive:original.meta.media.0.stream.type">video</property>
  <property name="kdenlive:original.meta.media.0.stream.frame_rate">60</property>
  <property name="kdenlive:original.meta.media.0.stream.sample_aspect_ratio">0</property>
  <property name="kdenlive:original.meta.media.0.codec.width">1920</property>
  <property name="kdenlive:original.meta.media.0.codec.height">1080</property>
  <property name="kdenlive:original.meta.media.0.codec.rotate">0</property>
  <property name="kdenlive:original.meta.media.0.codec.pix_fmt">yuv420p</property>
  <property name="kdenlive:original.meta.media.0.codec.sample_aspect_ratio">0</property>
  <property name="kdenlive:original.meta.media.0.codec.colorspace">709</property>
  <property name="kdenlive:original.meta.media.0.codec.name">h264</property>
  <property name="kdenlive:original.meta.media.0.codec.long_name">H.264 / AVC / MPEG-4 AVC / MPEG-4 part 10</property>
  <property name="kdenlive:original.meta.media.0.codec.bit_rate">768464</property>
  <property name="kdenlive:original.meta.attr.0.stream.handler_name.markup">VideoHandler</property>
  <property name="kdenlive:original.meta.attr.0.stream.vendor_id.markup">[0][0][0][0]</property>
  <property name="kdenlive:original.meta.attr.0.stream.encoder.markup">Lavc60.3.100 libx264</property>
  <property name="kdenlive:original.meta.attr.major_brand.markup">isom</property>
  <property name="kdenlive:original.meta.attr.minor_version.markup">512</property>
  <property name="kdenlive:original.meta.attr.compatible_brands.markup">isomiso2avc1mp41</property>
  <property name="kdenlive:original.meta.attr.encoder.markup">Lavf60.3.100</property>
  <property name="kdenlive:original.meta.attr.comment.markup">Rendered with Manim Community v0.17.3</property>
  <property name="kdenlive:original.seekable">1</property>
  <property name="kdenlive:original.width">1920</property>
  <property name="kdenlive:original.height">1080</property>
  <property name="kdenlive:original.meta.media.sample_aspect_num">1</property>
  <property name="kdenlive:original.meta.media.sample_aspect_den">1</property>
  <property name="kdenlive:original.format">3</property>
  <property name="kdenlive:original.audio_index">-1</property>
  <property name="kdenlive:original.video_index">0</property>
  <property name="kdenlive:original.meta.media.frame_rate_num">60</property>
  <property name="kdenlive:original.meta.media.frame_rate_den">1</property>
  <property name="kdenlive:original.meta.media.colorspace">709</property>
  <property name="kdenlive:original.meta.media.color_trc">2</property>
  <property name="kdenlive:original.meta.media.has_b_frames">2</property>
  <property name="kdenlive:original.meta.media.width">1920</property>
  <property name="kdenlive:original.meta.media.height">1080</property>
  <property name="kdenlive:original.meta.media.color_range">mpeg</property>
  <property name="kdenlive:original.meta.media.top_field_first">0</property>
  <property name="kdenlive:original.meta.media.progressive">1</property>
  <property name="kdenlive:original.kdenlive:clip_type">2</property>
  <property name="kdenlive:original.kdenlive:folderid">16</property>
  <property name="kdenlive:original.kdenlive:id">50</property>
  <property name="kdenlive:original.mute_on_pause">0</property>
  <property name="kdenlive:original.kdenlive:file_size">97690</property>
  <property name="kdenlive:original.kdenlive:file_hash">132e19edd93a5d08456e7309520cd6f6</property>
  <property name="kdenlive:original.backup">1</property>
  <property name="meta.media.top_field_first">0</property>
  <property name="meta.media.progressive">1</property>
 </chain>
 <chain id="chain412" out="00:00:01.483">
  <property name="length">90</property>
  <property name="eof">pause</property>
  <property name="resource">/home/xiaoxiae/.cache/kdenlive/proxy/8c0989178aeca08f679e0d12b7ce0cac.mkv</property>
  <property name="mlt_service">avformat-novalidate</property>
  <property name="meta.media.nb_streams">1</property>
  <property name="meta.media.0.stream.type">video</property>
  <property name="meta.media.0.stream.frame_rate">60</property>
  <property name="meta.media.0.stream.sample_aspect_ratio">0</property>
  <property name="meta.media.0.codec.width">640</property>
  <property name="meta.media.0.codec.height">360</property>
  <property name="meta.media.0.codec.rotate">0</property>
  <property name="meta.media.0.codec.pix_fmt">yuvj420p</property>
  <property name="meta.media.0.codec.sample_aspect_ratio">0</property>
  <property name="meta.media.0.codec.colorspace">601</property>
  <property name="meta.media.0.codec.name">mjpeg</property>
  <property name="meta.media.0.codec.long_name">MJPEG (Motion JPEG)</property>
  <property name="meta.media.0.codec.bit_rate">0</property>
  <property name="meta.attr.0.stream.HANDLER_NAME.markup">VideoHandler</property>
  <property name="meta.attr.0.stream.VENDOR_ID.markup">[0][0][0][0]</property>
  <property name="meta.attr.0.stream.ENCODER.markup">Lavc60.3.100 mjpeg</property>
  <property name="meta.attr.0.stream.DURATION.markup">00:00:01.500000000</property>
  <property name="meta.attr.COMMENT.markup">Rendered with Manim Community v0.17.3</property>
  <property name="meta.attr.MAJOR_BRAND.markup">isom</property>
  <property name="meta.attr.MINOR_VERSION.markup">512</property>
  <property name="meta.attr.COMPATIBLE_BRANDS.markup">isomiso2avc1mp41</property>
  <property name="meta.attr.ENCODER.markup">Lavf60.3.100</property>
  <property name="seekable">1</property>
  <property name="meta.media.sample_aspect_num">1</property>
  <property name="meta.media.sample_aspect_den">1</property>
  <property name="format">3</property>
  <property name="audio_index">-1</property>
  <property name="video_index">0</property>
  <property name="meta.media.frame_rate_num">60</property>
  <property name="meta.media.frame_rate_den">1</property>
  <property name="meta.media.colorspace">601</property>
  <property name="meta.media.color_trc">2</property>
  <property name="meta.media.has_b_frames">0</property>
  <property name="meta.media.width">640</property>
  <property name="meta.media.height">360</property>
  <property name="meta.media.color_range">full</property>
  <property name="kdenlive:clipname">13.mp4</property>
  <property name="kdenlive:clip_type">2</property>
  <property name="kdenlive:folderid">16</property>
  <property name="kdenlive:id">51</property>
  <property name="mute_on_pause">0</property>
  <property name="kdenlive:file_size">83731</property>
  <property name="kdenlive:file_hash">8c0989178aeca08f679e0d12b7ce0cac</property>
  <property name="kdenlive:proxy">/home/xiaoxiae/.cache/kdenlive/proxy/8c0989178aeca08f679e0d12b7ce0cac.mkv</property>
  <property name="kdenlive:originalurl">video/Farmer/13.mp4</property>
  <property name="kdenlive:original.mlt_type">chain</property>
  <property name="kdenlive:original.in">0</property>
  <property name="kdenlive:original.out">00:00:01.483</property>
  <property name="kdenlive:original.length">90</property>
  <property name="kdenlive:original.eof">pause</property>
  <property name="kdenlive:original.resource">video/Farmer/13.mp4</property>
  <property name="kdenlive:original.mlt_service">avformat-novalidate</property>
  <property name="kdenlive:original.meta.media.nb_streams">1</property>
  <property name="kdenlive:original.meta.media.0.stream.type">video</property>
  <property name="kdenlive:original.meta.media.0.stream.frame_rate">60</property>
  <property name="kdenlive:original.meta.media.0.stream.sample_aspect_ratio">0</property>
  <property name="kdenlive:original.meta.media.0.codec.width">1920</property>
  <property name="kdenlive:original.meta.media.0.codec.height">1080</property>
  <property name="kdenlive:original.meta.media.0.codec.rotate">0</property>
  <property name="kdenlive:original.meta.media.0.codec.pix_fmt">yuv420p</property>
  <property name="kdenlive:original.meta.media.0.codec.sample_aspect_ratio">0</property>
  <property name="kdenlive:original.meta.media.0.codec.colorspace">709</property>
  <property name="kdenlive:original.meta.media.0.codec.name">h264</property>
  <property name="kdenlive:original.meta.media.0.codec.long_name">H.264 / AVC / MPEG-4 AVC / MPEG-4 part 10</property>
  <property name="kdenlive:original.meta.media.0.codec.bit_rate">435941</property>
  <property name="kdenlive:original.meta.attr.0.stream.handler_name.markup">VideoHandler</property>
  <property name="kdenlive:original.meta.attr.0.stream.vendor_id.markup">[0][0][0][0]</property>
  <property name="kdenlive:original.meta.attr.0.stream.encoder.markup">Lavc60.3.100 libx264</property>
  <property name="kdenlive:original.meta.attr.major_brand.markup">isom</property>
  <property name="kdenlive:original.meta.attr.minor_version.markup">512</property>
  <property name="kdenlive:original.meta.attr.compatible_brands.markup">isomiso2avc1mp41</property>
  <property name="kdenlive:original.meta.attr.encoder.markup">Lavf60.3.100</property>
  <property name="kdenlive:original.meta.attr.comment.markup">Rendered with Manim Community v0.17.3</property>
  <property name="kdenlive:original.seekable">1</property>
  <property name="kdenlive:original.width">1920</property>
  <property name="kdenlive:original.height">1080</property>
  <property name="kdenlive:original.meta.media.sample_aspect_num">1</property>
  <property name="kdenlive:original.meta.media.sample_aspect_den">1</property>
  <property name="kdenlive:original.format">3</property>
  <property name="kdenlive:original.audio_index">-1</property>
  <property name="kdenlive:original.video_index">0</property>
  <property name="kdenlive:original.meta.media.frame_rate_num">60</property>
  <property name="kdenlive:original.meta.media.frame_rate_den">1</property>
  <property name="kdenlive:original.meta.media.colorspace">709</property>
  <property name="kdenlive:original.meta.media.color_trc">2</property>
  <property name="kdenlive:original.meta.media.has_b_frames">2</property>
  <property name="kdenlive:original.meta.media.width">1920</property>
  <property name="kdenlive:original.meta.media.height">1080</property>
  <property name="kdenlive:original.meta.media.color_range">mpeg</property>
  <property name="kdenlive:original.meta.media.top_field_first">0</property>
  <property name="kdenlive:original.meta.media.progressive">1</property>
  <property name="kdenlive:original.kdenlive:clip_type">2</property>
  <property name="kdenlive:original.kdenlive:folderid">16</property>
  <property name="kdenlive:original.kdenlive:id">51</property>
  <property name="kdenlive:original.mute_on_pause">0</property>
  <property name="kdenlive:original.kdenlive:file_size">83731</property>
  <property name="kdenlive:original.kdenlive:file_hash">8c0989178aeca08f679e0d12b7ce0cac</property>
  <property name="kdenlive:original.backup">1</property>
  <property name="meta.media.top_field_first">0</property>
  <property name="meta.media.progressive">1</property>
 </chain>
 <chain id="chain206" out="00:00:00.983">
  <property name="length">60</property>
  <property name="eof">pause</property>
  <property name="resource">/home/xiaoxiae/.cache/kdenlive/proxy/01d11373b5a50d66fc0365d4ab31f38b.mkv</property>
  <property name="mlt_service">avformat-novalidate</property>
  <property name="meta.media.nb_streams">1</property>
  <property name="meta.media.0.stream.type">video</property>
  <property name="meta.media.0.stream.frame_rate">60</property>
  <property name="meta.media.0.stream.sample_aspect_ratio">0</property>
  <property name="meta.media.0.codec.width">640</property>
  <property name="meta.media.0.codec.height">360</property>
  <property name="meta.media.0.codec.rotate">0</property>
  <property name="meta.media.0.codec.pix_fmt">yuvj420p</property>
  <property name="meta.media.0.codec.sample_aspect_ratio">0</property>
  <property name="meta.media.0.codec.colorspace">601</property>
  <property name="meta.media.0.codec.name">mjpeg</property>
  <property name="meta.media.0.codec.long_name">MJPEG (Motion JPEG)</property>
  <property name="meta.media.0.codec.bit_rate">0</property>
  <property name="meta.attr.0.stream.HANDLER_NAME.markup">VideoHandler</property>
  <property name="meta.attr.0.stream.VENDOR_ID.markup">[0][0][0][0]</property>
  <property name="meta.attr.0.stream.ENCODER.markup">Lavc60.3.100 mjpeg</property>
  <property name="meta.attr.0.stream.DURATION.markup">00:00:01.000000000</property>
  <property name="meta.attr.COMMENT.markup">Rendered with Manim Community v0.17.3</property>
  <property name="meta.attr.MAJOR_BRAND.markup">isom</property>
  <property name="meta.attr.MINOR_VERSION.markup">512</property>
  <property name="meta.attr.COMPATIBLE_BRANDS.markup">isomiso2avc1mp41</property>
  <property name="meta.attr.ENCODER.markup">Lavf60.3.100</property>
  <property name="seekable">1</property>
  <property name="meta.media.sample_aspect_num">1</property>
  <property name="meta.media.sample_aspect_den">1</property>
  <property name="format">3</property>
  <property name="audio_index">-1</property>
  <property name="video_index">0</property>
  <property name="meta.media.frame_rate_num">60</property>
  <property name="meta.media.frame_rate_den">1</property>
  <property name="meta.media.colorspace">601</property>
  <property name="meta.media.color_trc">2</property>
  <property name="meta.media.has_b_frames">0</property>
  <property name="meta.media.width">640</property>
  <property name="meta.media.height">360</property>
  <property name="meta.media.color_range">full</property>
  <property name="kdenlive:clipname">130.mp4</property>
  <property name="kdenlive:clip_type">2</property>
  <property name="kdenlive:folderid">16</property>
  <property name="kdenlive:id">52</property>
  <property name="mute_on_pause">0</property>
  <property name="kdenlive:file_size">107214</property>
  <property name="kdenlive:file_hash">01d11373b5a50d66fc0365d4ab31f38b</property>
  <property name="kdenlive:proxy">/home/xiaoxiae/.cache/kdenlive/proxy/01d11373b5a50d66fc0365d4ab31f38b.mkv</property>
  <property name="kdenlive:originalurl">video/Farmer/130.mp4</property>
  <property name="kdenlive:original.mlt_type">chain</property>
  <property name="kdenlive:original.in">0</property>
  <property name="kdenlive:original.out">00:00:00.983</property>
  <property name="kdenlive:original.length">60</property>
  <property name="kdenlive:original.eof">pause</property>
  <property name="kdenlive:original.resource">video/Farmer/130.mp4</property>
  <property name="kdenlive:original.mlt_service">avformat-novalidate</property>
  <property name="kdenlive:original.meta.media.nb_streams">1</property>
  <property name="kdenlive:original.meta.media.0.stream.type">video</property>
  <property name="kdenlive:original.meta.media.0.stream.frame_rate">60</property>
  <property name="kdenlive:original.meta.media.0.stream.sample_aspect_ratio">0</property>
  <property name="kdenlive:original.meta.media.0.codec.width">1920</property>
  <property name="kdenlive:original.meta.media.0.codec.height">1080</property>
  <property name="kdenlive:original.meta.media.0.codec.rotate">0</property>
  <property name="kdenlive:original.meta.media.0.codec.pix_fmt">yuv420p</property>
  <property name="kdenlive:original.meta.media.0.codec.sample_aspect_ratio">0</property>
  <property name="kdenlive:original.meta.media.0.codec.colorspace">709</property>
  <property name="kdenlive:original.meta.media.0.codec.name">h264</property>
  <property name="kdenlive:original.meta.media.0.codec.long_name">H.264 / AVC / MPEG-4 AVC / MPEG-4 part 10</property>
  <property name="kdenlive:original.meta.media.0.codec.bit_rate">844720</property>
  <property name="kdenlive:original.meta.attr.0.stream.handler_name.markup">VideoHandler</property>
  <property name="kdenlive:original.meta.attr.0.stream.vendor_id.markup">[0][0][0][0]</property>
  <property name="kdenlive:original.meta.attr.0.stream.encoder.markup">Lavc60.3.100 libx264</property>
  <property name="kdenlive:original.meta.attr.major_brand.markup">isom</property>
  <property name="kdenlive:original.meta.attr.minor_version.markup">512</property>
  <property name="kdenlive:original.meta.attr.compatible_brands.markup">isomiso2avc1mp41</property>
  <property name="kdenlive:original.meta.attr.encoder.markup">Lavf60.3.100</property>
  <property name="kdenlive:original.meta.attr.comment.markup">Rendered with Manim Community v0.17.3</property>
  <property name="kdenlive:original.seekable">1</property>
  <property name="kdenlive:original.width">1920</property>
  <property name="kdenlive:original.height">1080</property>
  <property name="kdenlive:original.meta.media.sample_aspect_num">1</property>
  <property name="kdenlive:original.meta.media.sample_aspect_den">1</property>
  <property name="kdenlive:original.format">3</property>
  <property name="kdenlive:original.audio_index">-1</property>
  <property name="kdenlive:original.video_index">0</property>
  <property name="kdenlive:original.meta.media.frame_rate_num">60</property>
  <property name="kdenlive:original.meta.media.frame_rate_den">1</property>
  <property name="kdenlive:original.meta.media.colorspace">709</property>
  <property name="kdenlive:original.meta.media.color_trc">2</property>
  <property name="kdenlive:original.meta.media.has_b_frames">2</property>
  <property name="kdenlive:original.meta.media.width">1920</property>
  <property name="kdenlive:original.meta.media.height">1080</property>
  <property name="kdenlive:original.meta.media.color_range">mpeg</property>
  <property name="kdenlive:original.meta.media.top_field_first">0</property>
  <property name="kdenlive:original.meta.media.progressive">1</property>
  <property name="kdenlive:original.kdenlive:clip_type">2</property>
  <property name="kdenlive:original.kdenlive:folderid">16</property>
  <property name="kdenlive:original.kdenlive:id">52</property>
  <property name="kdenlive:original.mute_on_pause">0</property>
  <property name="kdenlive:original.kdenlive:file_size">107214</property>
  <property name="kdenlive:original.kdenlive:file_hash">01d11373b5a50d66fc0365d4ab31f38b</property>
  <property name="kdenlive:original.backup">1</property>
  <property name="meta.media.top_field_first">0</property>
  <property name="meta.media.progressive">1</property>
 </chain>
 <chain id="chain204" out="00:00:00.983">
  <property name="length">60</property>
  <property name="eof">pause</property>
  <property name="resource">/home/xiaoxiae/.cache/kdenlive/proxy/7f457fab847c82147101feb6e0e5f5e6.mkv</property>
  <property name="mlt_service">avformat-novalidate</property>
  <property name="meta.media.nb_streams">1</property>
  <property name="meta.media.0.stream.type">video</property>
  <property name="meta.media.0.stream.frame_rate">60</property>
  <property name="meta.media.0.stream.sample_aspect_ratio">0</property>
  <property name="meta.media.0.codec.width">640</property>
  <property name="meta.media.0.codec.height">360</property>
  <property name="meta.media.0.codec.rotate">0</property>
  <property name="meta.media.0.codec.pix_fmt">yuvj420p</property>
  <property name="meta.media.0.codec.sample_aspect_ratio">0</property>
  <property name="meta.media.0.codec.colorspace">601</property>
  <property name="meta.media.0.codec.name">mjpeg</property>
  <property name="meta.media.0.codec.long_name">MJPEG (Motion JPEG)</property>
  <property name="meta.media.0.codec.bit_rate">0</property>
  <property name="meta.attr.0.stream.HANDLER_NAME.markup">VideoHandler</property>
  <property name="meta.attr.0.stream.VENDOR_ID.markup">[0][0][0][0]</property>
  <property name="meta.attr.0.stream.ENCODER.markup">Lavc60.3.100 mjpeg</property>
  <property name="meta.attr.0.stream.DURATION.markup">00:00:01.000000000</property>
  <property name="meta.attr.COMMENT.markup">Rendered with Manim Community v0.17.3</property>
  <property name="meta.attr.MAJOR_BRAND.markup">isom</property>
  <property name="meta.attr.MINOR_VERSION.markup">512</property>
  <property name="meta.attr.COMPATIBLE_BRANDS.markup">isomiso2avc1mp41</property>
  <property name="meta.attr.ENCODER.markup">Lavf60.3.100</property>
  <property name="seekable">1</property>
  <property name="meta.media.sample_aspect_num">1</property>
  <property name="meta.media.sample_aspect_den">1</property>
  <property name="format">3</property>
  <property name="audio_index">-1</property>
  <property name="video_index">0</property>
  <property name="meta.media.frame_rate_num">60</property>
  <property name="meta.media.frame_rate_den">1</property>
  <property name="meta.media.colorspace">601</property>
  <property name="meta.media.color_trc">2</property>
  <property name="meta.media.has_b_frames">0</property>
  <property name="meta.media.width">640</property>
  <property name="meta.media.height">360</property>
  <property name="meta.media.color_range">full</property>
  <property name="kdenlive:clipname">131.mp4</property>
  <property name="kdenlive:clip_type">2</property>
  <property name="kdenlive:folderid">16</property>
  <property name="kdenlive:id">53</property>
  <property name="mute_on_pause">0</property>
  <property name="kdenlive:file_size">108562</property>
  <property name="kdenlive:file_hash">7f457fab847c82147101feb6e0e5f5e6</property>
  <property name="kdenlive:proxy">/home/xiaoxiae/.cache/kdenlive/proxy/7f457fab847c82147101feb6e0e5f5e6.mkv</property>
  <property name="kdenlive:originalurl">video/Farmer/131.mp4</property>
  <property name="kdenlive:original.mlt_type">chain</property>
  <property name="kdenlive:original.in">0</property>
  <property name="kdenlive:original.out">00:00:00.983</property>
  <property name="kdenlive:original.length">60</property>
  <property name="kdenlive:original.eof">pause</property>
  <property name="kdenlive:original.resource">video/Farmer/131.mp4</property>
  <property name="kdenlive:original.mlt_service">avformat-novalidate</property>
  <property name="kdenlive:original.meta.media.nb_streams">1</property>
  <property name="kdenlive:original.meta.media.0.stream.type">video</property>
  <property name="kdenlive:original.meta.media.0.stream.frame_rate">60</property>
  <property name="kdenlive:original.meta.media.0.stream.sample_aspect_ratio">0</property>
  <property name="kdenlive:original.meta.media.0.codec.width">1920</property>
  <property name="kdenlive:original.meta.media.0.codec.height">1080</property>
  <property name="kdenlive:original.meta.media.0.codec.rotate">0</property>
  <property name="kdenlive:original.meta.media.0.codec.pix_fmt">yuv420p</property>
  <property name="kdenlive:original.meta.media.0.codec.sample_aspect_ratio">0</property>
  <property name="kdenlive:original.meta.media.0.codec.colorspace">709</property>
  <property name="kdenlive:original.meta.media.0.codec.name">h264</property>
  <property name="kdenlive:original.meta.media.0.codec.long_name">H.264 / AVC / MPEG-4 AVC / MPEG-4 part 10</property>
  <property name="kdenlive:original.meta.media.0.codec.bit_rate">855440</property>
  <property name="kdenlive:original.meta.attr.0.stream.handler_name.markup">VideoHandler</property>
  <property name="kdenlive:original.meta.attr.0.stream.vendor_id.markup">[0][0][0][0]</property>
  <property name="kdenlive:original.meta.attr.0.stream.encoder.markup">Lavc60.3.100 libx264</property>
  <property name="kdenlive:original.meta.attr.major_brand.markup">isom</property>
  <property name="kdenlive:original.meta.attr.minor_version.markup">512</property>
  <property name="kdenlive:original.meta.attr.compatible_brands.markup">isomiso2avc1mp41</property>
  <property name="kdenlive:original.meta.attr.encoder.markup">Lavf60.3.100</property>
  <property name="kdenlive:original.meta.attr.comment.markup">Rendered with Manim Community v0.17.3</property>
  <property name="kdenlive:original.seekable">1</property>
  <property name="kdenlive:original.width">1920</property>
  <property name="kdenlive:original.height">1080</property>
  <property name="kdenlive:original.meta.media.sample_aspect_num">1</property>
  <property name="kdenlive:original.meta.media.sample_aspect_den">1</property>
  <property name="kdenlive:original.format">3</property>
  <property name="kdenlive:original.audio_index">-1</property>
  <property name="kdenlive:original.video_index">0</property>
  <property name="kdenlive:original.meta.media.frame_rate_num">60</property>
  <property name="kdenlive:original.meta.media.frame_rate_den">1</property>
  <property name="kdenlive:original.meta.media.colorspace">709</property>
  <property name="kdenlive:original.meta.media.color_trc">2</property>
  <property name="kdenlive:original.meta.media.has_b_frames">2</property>
  <property name="kdenlive:original.meta.media.width">1920</property>
  <property name="kdenlive:original.meta.media.height">1080</property>
  <property name="kdenlive:original.meta.media.color_range">mpeg</property>
  <property name="kdenlive:original.meta.media.top_field_first">0</property>
  <property name="kdenlive:original.meta.media.progressive">1</property>
  <property name="kdenlive:original.kdenlive:clip_type">2</property>
  <property name="kdenlive:original.kdenlive:folderid">16</property>
  <property name="kdenlive:original.kdenlive:id">53</property>
  <property name="kdenlive:original.mute_on_pause">0</property>
  <property name="kdenlive:original.kdenlive:file_size">108562</property>
  <property name="kdenlive:original.kdenlive:file_hash">7f457fab847c82147101feb6e0e5f5e6</property>
  <property name="kdenlive:original.backup">1</property>
  <property name="meta.media.top_field_first">0</property>
  <property name="meta.media.progressive">1</property>
 </chain>
 <chain id="chain203" out="00:00:01.733">
  <property name="length">105</property>
  <property name="eof">pause</property>
  <property name="resource">/home/xiaoxiae/.cache/kdenlive/proxy/2e5303840473c85e6275b528a9fceadc.mkv</property>
  <property name="mlt_service">avformat-novalidate</property>
  <property name="meta.media.nb_streams">1</property>
  <property name="meta.media.0.stream.type">video</property>
  <property name="meta.media.0.stream.frame_rate">60</property>
  <property name="meta.media.0.stream.sample_aspect_ratio">0</property>
  <property name="meta.media.0.codec.width">640</property>
  <property name="meta.media.0.codec.height">360</property>
  <property name="meta.media.0.codec.rotate">0</property>
  <property name="meta.media.0.codec.pix_fmt">yuvj420p</property>
  <property name="meta.media.0.codec.sample_aspect_ratio">0</property>
  <property name="meta.media.0.codec.colorspace">601</property>
  <property name="meta.media.0.codec.name">mjpeg</property>
  <property name="meta.media.0.codec.long_name">MJPEG (Motion JPEG)</property>
  <property name="meta.media.0.codec.bit_rate">0</property>
  <property name="meta.attr.0.stream.HANDLER_NAME.markup">VideoHandler</property>
  <property name="meta.attr.0.stream.VENDOR_ID.markup">[0][0][0][0]</property>
  <property name="meta.attr.0.stream.ENCODER.markup">Lavc60.3.100 mjpeg</property>
  <property name="meta.attr.0.stream.DURATION.markup">00:00:01.750000000</property>
  <property name="meta.attr.COMMENT.markup">Rendered with Manim Community v0.17.3</property>
  <property name="meta.attr.MAJOR_BRAND.markup">isom</property>
  <property name="meta.attr.MINOR_VERSION.markup">512</property>
  <property name="meta.attr.COMPATIBLE_BRANDS.markup">isomiso2avc1mp41</property>
  <property name="meta.attr.ENCODER.markup">Lavf60.3.100</property>
  <property name="seekable">1</property>
  <property name="meta.media.sample_aspect_num">1</property>
  <property name="meta.media.sample_aspect_den">1</property>
  <property name="format">3</property>
  <property name="audio_index">-1</property>
  <property name="video_index">0</property>
  <property name="meta.media.frame_rate_num">60</property>
  <property name="meta.media.frame_rate_den">1</property>
  <property name="meta.media.colorspace">601</property>
  <property name="meta.media.color_trc">2</property>
  <property name="meta.media.has_b_frames">0</property>
  <property name="meta.media.width">640</property>
  <property name="meta.media.height">360</property>
  <property name="meta.media.color_range">full</property>
  <property name="kdenlive:clipname">132.mp4</property>
  <property name="kdenlive:clip_type">2</property>
  <property name="kdenlive:folderid">16</property>
  <property name="kdenlive:id">54</property>
  <property name="mute_on_pause">0</property>
  <property name="kdenlive:file_size">443255</property>
  <property name="kdenlive:file_hash">2e5303840473c85e6275b528a9fceadc</property>
  <property name="kdenlive:proxy">/home/xiaoxiae/.cache/kdenlive/proxy/2e5303840473c85e6275b528a9fceadc.mkv</property>
  <property name="kdenlive:originalurl">video/Farmer/132.mp4</property>
  <property name="kdenlive:original.mlt_type">chain</property>
  <property name="kdenlive:original.in">0</property>
  <property name="kdenlive:original.out">00:00:01.733</property>
  <property name="kdenlive:original.length">105</property>
  <property name="kdenlive:original.eof">pause</property>
  <property name="kdenlive:original.resource">video/Farmer/132.mp4</property>
  <property name="kdenlive:original.mlt_service">avformat-novalidate</property>
  <property name="kdenlive:original.meta.media.nb_streams">1</property>
  <property name="kdenlive:original.meta.media.0.stream.type">video</property>
  <property name="kdenlive:original.meta.media.0.stream.frame_rate">60</property>
  <property name="kdenlive:original.meta.media.0.stream.sample_aspect_ratio">0</property>
  <property name="kdenlive:original.meta.media.0.codec.width">1920</property>
  <property name="kdenlive:original.meta.media.0.codec.height">1080</property>
  <property name="kdenlive:original.meta.media.0.codec.rotate">0</property>
  <property name="kdenlive:original.meta.media.0.codec.pix_fmt">yuv420p</property>
  <property name="kdenlive:original.meta.media.0.codec.sample_aspect_ratio">0</property>
  <property name="kdenlive:original.meta.media.0.codec.colorspace">709</property>
  <property name="kdenlive:original.meta.media.0.codec.name">h264</property>
  <property name="kdenlive:original.meta.media.0.codec.long_name">H.264 / AVC / MPEG-4 AVC / MPEG-4 part 10</property>
  <property name="kdenlive:original.meta.media.0.codec.bit_rate">2017110</property>
  <property name="kdenlive:original.meta.attr.0.stream.handler_name.markup">VideoHandler</property>
  <property name="kdenlive:original.meta.attr.0.stream.vendor_id.markup">[0][0][0][0]</property>
  <property name="kdenlive:original.meta.attr.0.stream.encoder.markup">Lavc60.3.100 libx264</property>
  <property name="kdenlive:original.meta.attr.major_brand.markup">isom</property>
  <property name="kdenlive:original.meta.attr.minor_version.markup">512</property>
  <property name="kdenlive:original.meta.attr.compatible_brands.markup">isomiso2avc1mp41</property>
  <property name="kdenlive:original.meta.attr.encoder.markup">Lavf60.3.100</property>
  <property name="kdenlive:original.meta.attr.comment.markup">Rendered with Manim Community v0.17.3</property>
  <property name="kdenlive:original.seekable">1</property>
  <property name="kdenlive:original.width">1920</property>
  <property name="kdenlive:original.height">1080</property>
  <property name="kdenlive:original.meta.media.sample_aspect_num">1</property>
  <property name="kdenlive:original.meta.media.sample_aspect_den">1</property>
  <property name="kdenlive:original.format">3</property>
  <property name="kdenlive:original.audio_index">-1</property>
  <property name="kdenlive:original.video_index">0</property>
  <property name="kdenlive:original.meta.media.frame_rate_num">60</property>
  <property name="kdenlive:original.meta.media.frame_rate_den">1</property>
  <property name="kdenlive:original.meta.media.colorspace">709</property>
  <property name="kdenlive:original.meta.media.color_trc">2</property>
  <property name="kdenlive:original.meta.media.has_b_frames">2</property>
  <property name="kdenlive:original.meta.media.width">1920</property>
  <property name="kdenlive:original.meta.media.height">1080</property>
  <property name="kdenlive:original.meta.media.color_range">mpeg</property>
  <property name="kdenlive:original.meta.media.top_field_first">0</property>
  <property name="kdenlive:original.meta.media.progressive">1</property>
  <property name="kdenlive:original.kdenlive:clip_type">2</property>
  <property name="kdenlive:original.kdenlive:folderid">16</property>
  <property name="kdenlive:original.kdenlive:id">54</property>
  <property name="kdenlive:original.mute_on_pause">0</property>
  <property name="kdenlive:original.kdenlive:file_size">443255</property>
  <property name="kdenlive:original.kdenlive:file_hash">2e5303840473c85e6275b528a9fceadc</property>
  <property name="kdenlive:original.backup">1</property>
  <property name="meta.media.top_field_first">0</property>
  <property name="meta.media.progressive">1</property>
 </chain>
 <chain id="chain200" out="00:00:00.983">
  <property name="length">60</property>
  <property name="eof">pause</property>
  <property name="resource">/home/xiaoxiae/.cache/kdenlive/proxy/86e52d336a5a41d59944e97bc58e7889.mkv</property>
  <property name="mlt_service">avformat-novalidate</property>
  <property name="meta.media.nb_streams">1</property>
  <property name="meta.media.0.stream.type">video</property>
  <property name="meta.media.0.stream.frame_rate">60</property>
  <property name="meta.media.0.stream.sample_aspect_ratio">0</property>
  <property name="meta.media.0.codec.width">640</property>
  <property name="meta.media.0.codec.height">360</property>
  <property name="meta.media.0.codec.rotate">0</property>
  <property name="meta.media.0.codec.pix_fmt">yuvj420p</property>
  <property name="meta.media.0.codec.sample_aspect_ratio">0</property>
  <property name="meta.media.0.codec.colorspace">601</property>
  <property name="meta.media.0.codec.name">mjpeg</property>
  <property name="meta.media.0.codec.long_name">MJPEG (Motion JPEG)</property>
  <property name="meta.media.0.codec.bit_rate">0</property>
  <property name="meta.attr.0.stream.HANDLER_NAME.markup">VideoHandler</property>
  <property name="meta.attr.0.stream.VENDOR_ID.markup">[0][0][0][0]</property>
  <property name="meta.attr.0.stream.ENCODER.markup">Lavc60.3.100 mjpeg</property>
  <property name="meta.attr.0.stream.DURATION.markup">00:00:01.000000000</property>
  <property name="meta.attr.COMMENT.markup">Rendered with Manim Community v0.17.3</property>
  <property name="meta.attr.MAJOR_BRAND.markup">isom</property>
  <property name="meta.attr.MINOR_VERSION.markup">512</property>
  <property name="meta.attr.COMPATIBLE_BRANDS.markup">isomiso2avc1mp41</property>
  <property name="meta.attr.ENCODER.markup">Lavf60.3.100</property>
  <property name="seekable">1</property>
  <property name="meta.media.sample_aspect_num">1</property>
  <property name="meta.media.sample_aspect_den">1</property>
  <property name="format">3</property>
  <property name="audio_index">-1</property>
  <property name="video_index">0</property>
  <property name="meta.media.frame_rate_num">60</property>
  <property name="meta.media.frame_rate_den">1</property>
  <property name="meta.media.colorspace">601</property>
  <property name="meta.media.color_trc">2</property>
  <property name="meta.media.has_b_frames">0</property>
  <property name="meta.media.width">640</property>
  <property name="meta.media.height">360</property>
  <property name="meta.media.color_range">full</property>
  <property name="kdenlive:clipname">133.mp4</property>
  <property name="kdenlive:clip_type">2</property>
  <property name="kdenlive:folderid">16</property>
  <property name="kdenlive:id">55</property>
  <property name="mute_on_pause">0</property>
  <property name="kdenlive:file_size">66092</property>
  <property name="kdenlive:file_hash">86e52d336a5a41d59944e97bc58e7889</property>
  <property name="kdenlive:proxy">/home/xiaoxiae/.cache/kdenlive/proxy/86e52d336a5a41d59944e97bc58e7889.mkv</property>
  <property name="kdenlive:originalurl">video/Farmer/133.mp4</property>
  <property name="kdenlive:original.mlt_type">chain</property>
  <property name="kdenlive:original.in">0</property>
  <property name="kdenlive:original.out">00:00:00.983</property>
  <property name="kdenlive:original.length">60</property>
  <property name="kdenlive:original.eof">pause</property>
  <property name="kdenlive:original.resource">video/Farmer/133.mp4</property>
  <property name="kdenlive:original.mlt_service">avformat-novalidate</property>
  <property name="kdenlive:original.meta.media.nb_streams">1</property>
  <property name="kdenlive:original.meta.media.0.stream.type">video</property>
  <property name="kdenlive:original.meta.media.0.stream.frame_rate">60</property>
  <property name="kdenlive:original.meta.media.0.stream.sample_aspect_ratio">0</property>
  <property name="kdenlive:original.meta.media.0.codec.width">1920</property>
  <property name="kdenlive:original.meta.media.0.codec.height">1080</property>
  <property name="kdenlive:original.meta.media.0.codec.rotate">0</property>
  <property name="kdenlive:original.meta.media.0.codec.pix_fmt">yuv420p</property>
  <property name="kdenlive:original.meta.media.0.codec.sample_aspect_ratio">0</property>
  <property name="kdenlive:original.meta.media.0.codec.colorspace">709</property>
  <property name="kdenlive:original.meta.media.0.codec.name">h264</property>
  <property name="kdenlive:original.meta.media.0.codec.long_name">H.264 / AVC / MPEG-4 AVC / MPEG-4 part 10</property>
  <property name="kdenlive:original.meta.media.0.codec.bit_rate">515680</property>
  <property name="kdenlive:original.meta.attr.0.stream.handler_name.markup">VideoHandler</property>
  <property name="kdenlive:original.meta.attr.0.stream.vendor_id.markup">[0][0][0][0]</property>
  <property name="kdenlive:original.meta.attr.0.stream.encoder.markup">Lavc60.3.100 libx264</property>
  <property name="kdenlive:original.meta.attr.major_brand.markup">isom</property>
  <property name="kdenlive:original.meta.attr.minor_version.markup">512</property>
  <property name="kdenlive:original.meta.attr.compatible_brands.markup">isomiso2avc1mp41</property>
  <property name="kdenlive:original.meta.attr.encoder.markup">Lavf60.3.100</property>
  <property name="kdenlive:original.meta.attr.comment.markup">Rendered with Manim Community v0.17.3</property>
  <property name="kdenlive:original.seekable">1</property>
  <property name="kdenlive:original.width">1920</property>
  <property name="kdenlive:original.height">1080</property>
  <property name="kdenlive:original.meta.media.sample_aspect_num">1</property>
  <property name="kdenlive:original.meta.media.sample_aspect_den">1</property>
  <property name="kdenlive:original.format">3</property>
  <property name="kdenlive:original.audio_index">-1</property>
  <property name="kdenlive:original.video_index">0</property>
  <property name="kdenlive:original.meta.media.frame_rate_num">60</property>
  <property name="kdenlive:original.meta.media.frame_rate_den">1</property>
  <property name="kdenlive:original.meta.media.colorspace">709</property>
  <property name="kdenlive:original.meta.media.color_trc">2</property>
  <property name="kdenlive:original.meta.media.has_b_frames">2</property>
  <property name="kdenlive:original.meta.media.width">1920</property>
  <property name="kdenlive:original.meta.media.height">1080</property>
  <property name="kdenlive:original.meta.media.color_range">mpeg</property>
  <property name="kdenlive:original.meta.media.top_field_first">0</property>
  <property name="kdenlive:original.meta.media.progressive">1</property>
  <property name="kdenlive:original.kdenlive:clip_type">2</property>
  <property name="kdenlive:original.kdenlive:folderid">16</property>
  <property name="kdenlive:original.kdenlive:id">55</property>
  <property name="kdenlive:original.mute_on_pause">0</property>
  <property name="kdenlive:original.kdenlive:file_size">66092</property>
  <property name="kdenlive:original.kdenlive:file_hash">86e52d336a5a41d59944e97bc58e7889</property>
  <property name="kdenlive:original.backup">1</property>
  <property name="meta.media.top_field_first">0</property>
  <property name="meta.media.progressive">1</property>
 </chain>
 <chain id="chain198" out="00:00:00.983">
  <property name="length">60</property>
  <property name="eof">pause</property>
  <property name="resource">/home/xiaoxiae/.cache/kdenlive/proxy/79f58e599bd0518c2791da64281244a4.mkv</property>
  <property name="mlt_service">avformat-novalidate</property>
  <property name="meta.media.nb_streams">1</property>
  <property name="meta.media.0.stream.type">video</property>
  <property name="meta.media.0.stream.frame_rate">60</property>
  <property name="meta.media.0.stream.sample_aspect_ratio">0</property>
  <property name="meta.media.0.codec.width">640</property>
  <property name="meta.media.0.codec.height">360</property>
  <property name="meta.media.0.codec.rotate">0</property>
  <property name="meta.media.0.codec.pix_fmt">yuvj420p</property>
  <property name="meta.media.0.codec.sample_aspect_ratio">0</property>
  <property name="meta.media.0.codec.colorspace">601</property>
  <property name="meta.media.0.codec.name">mjpeg</property>
  <property name="meta.media.0.codec.long_name">MJPEG (Motion JPEG)</property>
  <property name="meta.media.0.codec.bit_rate">0</property>
  <property name="meta.attr.0.stream.HANDLER_NAME.markup">VideoHandler</property>
  <property name="meta.attr.0.stream.VENDOR_ID.markup">[0][0][0][0]</property>
  <property name="meta.attr.0.stream.ENCODER.markup">Lavc60.3.100 mjpeg</property>
  <property name="meta.attr.0.stream.DURATION.markup">00:00:01.000000000</property>
  <property name="meta.attr.COMMENT.markup">Rendered with Manim Community v0.17.3</property>
  <property name="meta.attr.MAJOR_BRAND.markup">isom</property>
  <property name="meta.attr.MINOR_VERSION.markup">512</property>
  <property name="meta.attr.COMPATIBLE_BRANDS.markup">isomiso2avc1mp41</property>
  <property name="meta.attr.ENCODER.markup">Lavf60.3.100</property>
  <property name="seekable">1</property>
  <property name="meta.media.sample_aspect_num">1</property>
  <property name="meta.media.sample_aspect_den">1</property>
  <property name="format">3</property>
  <property name="audio_index">-1</property>
  <property name="video_index">0</property>
  <property name="meta.media.frame_rate_num">60</property>
  <property name="meta.media.frame_rate_den">1</property>
  <property name="meta.media.colorspace">601</property>
  <property name="meta.media.color_trc">2</property>
  <property name="meta.media.has_b_frames">0</property>
  <property name="meta.media.width">640</property>
  <property name="meta.media.height">360</property>
  <property name="meta.media.color_range">full</property>
  <property name="kdenlive:clipname">134.mp4</property>
  <property name="kdenlive:clip_type">2</property>
  <property name="kdenlive:folderid">16</property>
  <property name="kdenlive:id">56</property>
  <property name="mute_on_pause">0</property>
  <property name="kdenlive:file_size">60392</property>
  <property name="kdenlive:file_hash">79f58e599bd0518c2791da64281244a4</property>
  <property name="kdenlive:proxy">/home/xiaoxiae/.cache/kdenlive/proxy/79f58e599bd0518c2791da64281244a4.mkv</property>
  <property name="kdenlive:originalurl">video/Farmer/134.mp4</property>
  <property name="kdenlive:original.mlt_type">chain</property>
  <property name="kdenlive:original.in">0</property>
  <property name="kdenlive:original.out">00:00:00.983</property>
  <property name="kdenlive:original.length">60</property>
  <property name="kdenlive:original.eof">pause</property>
  <property name="kdenlive:original.resource">video/Farmer/134.mp4</property>
  <property name="kdenlive:original.mlt_service">avformat-novalidate</property>
  <property name="kdenlive:original.meta.media.nb_streams">1</property>
  <property name="kdenlive:original.meta.media.0.stream.type">video</property>
  <property name="kdenlive:original.meta.media.0.stream.frame_rate">60</property>
  <property name="kdenlive:original.meta.media.0.stream.sample_aspect_ratio">0</property>
  <property name="kdenlive:original.meta.media.0.codec.width">1920</property>
  <property name="kdenlive:original.meta.media.0.codec.height">1080</property>
  <property name="kdenlive:original.meta.media.0.codec.rotate">0</property>
  <property name="kdenlive:original.meta.media.0.codec.pix_fmt">yuv420p</property>
  <property name="kdenlive:original.meta.media.0.codec.sample_aspect_ratio">0</property>
  <property name="kdenlive:original.meta.media.0.codec.colorspace">709</property>
  <property name="kdenlive:original.meta.media.0.codec.name">h264</property>
  <property name="kdenlive:original.meta.media.0.codec.long_name">H.264 / AVC / MPEG-4 AVC / MPEG-4 part 10</property>
  <property name="kdenlive:original.meta.media.0.codec.bit_rate">470144</property>
  <property name="kdenlive:original.meta.attr.0.stream.handler_name.markup">VideoHandler</property>
  <property name="kdenlive:original.meta.attr.0.stream.vendor_id.markup">[0][0][0][0]</property>
  <property name="kdenlive:original.meta.attr.0.stream.encoder.markup">Lavc60.3.100 libx264</property>
  <property name="kdenlive:original.meta.attr.major_brand.markup">isom</property>
  <property name="kdenlive:original.meta.attr.minor_version.markup">512</property>
  <property name="kdenlive:original.meta.attr.compatible_brands.markup">isomiso2avc1mp41</property>
  <property name="kdenlive:original.meta.attr.encoder.markup">Lavf60.3.100</property>
  <property name="kdenlive:original.meta.attr.comment.markup">Rendered with Manim Community v0.17.3</property>
  <property name="kdenlive:original.seekable">1</property>
  <property name="kdenlive:original.width">1920</property>
  <property name="kdenlive:original.height">1080</property>
  <property name="kdenlive:original.meta.media.sample_aspect_num">1</property>
  <property name="kdenlive:original.meta.media.sample_aspect_den">1</property>
  <property name="kdenlive:original.format">3</property>
  <property name="kdenlive:original.audio_index">-1</property>
  <property name="kdenlive:original.video_index">0</property>
  <property name="kdenlive:original.meta.media.frame_rate_num">60</property>
  <property name="kdenlive:original.meta.media.frame_rate_den">1</property>
  <property name="kdenlive:original.meta.media.colorspace">709</property>
  <property name="kdenlive:original.meta.media.color_trc">2</property>
  <property name="kdenlive:original.meta.media.has_b_frames">2</property>
  <property name="kdenlive:original.meta.media.width">1920</property>
  <property name="kdenlive:original.meta.media.height">1080</property>
  <property name="kdenlive:original.meta.media.color_range">mpeg</property>
  <property name="kdenlive:original.meta.media.top_field_first">0</property>
  <property name="kdenlive:original.meta.media.progressive">1</property>
  <property name="kdenlive:original.kdenlive:clip_type">2</property>
  <property name="kdenlive:original.kdenlive:folderid">16</property>
  <property name="kdenlive:original.kdenlive:id">56</property>
  <property name="kdenlive:original.mute_on_pause">0</property>
  <property name="kdenlive:original.kdenlive:file_size">60392</property>
  <property name="kdenlive:original.kdenlive:file_hash">79f58e599bd0518c2791da64281244a4</property>
  <property name="kdenlive:original.backup">1</property>
  <property name="meta.media.top_field_first">0</property>
  <property name="meta.media.progressive">1</property>
 </chain>
 <chain id="chain197" out="00:00:00.983">
  <property name="length">60</property>
  <property name="eof">pause</property>
  <property name="resource">/home/xiaoxiae/.cache/kdenlive/proxy/88d833ac719967dee1199e32c3a1514c.mkv</property>
  <property name="mlt_service">avformat-novalidate</property>
  <property name="meta.media.nb_streams">1</property>
  <property name="meta.media.0.stream.type">video</property>
  <property name="meta.media.0.stream.frame_rate">60</property>
  <property name="meta.media.0.stream.sample_aspect_ratio">0</property>
  <property name="meta.media.0.codec.width">640</property>
  <property name="meta.media.0.codec.height">360</property>
  <property name="meta.media.0.codec.rotate">0</property>
  <property name="meta.media.0.codec.pix_fmt">yuvj420p</property>
  <property name="meta.media.0.codec.sample_aspect_ratio">0</property>
  <property name="meta.media.0.codec.colorspace">601</property>
  <property name="meta.media.0.codec.name">mjpeg</property>
  <property name="meta.media.0.codec.long_name">MJPEG (Motion JPEG)</property>
  <property name="meta.media.0.codec.bit_rate">0</property>
  <property name="meta.attr.0.stream.HANDLER_NAME.markup">VideoHandler</property>
  <property name="meta.attr.0.stream.VENDOR_ID.markup">[0][0][0][0]</property>
  <property name="meta.attr.0.stream.ENCODER.markup">Lavc60.3.100 mjpeg</property>
  <property name="meta.attr.0.stream.DURATION.markup">00:00:01.000000000</property>
  <property name="meta.attr.COMMENT.markup">Rendered with Manim Community v0.17.3</property>
  <property name="meta.attr.MAJOR_BRAND.markup">isom</property>
  <property name="meta.attr.MINOR_VERSION.markup">512</property>
  <property name="meta.attr.COMPATIBLE_BRANDS.markup">isomiso2avc1mp41</property>
  <property name="meta.attr.ENCODER.markup">Lavf60.3.100</property>
  <property name="seekable">1</property>
  <property name="meta.media.sample_aspect_num">1</property>
  <property name="meta.media.sample_aspect_den">1</property>
  <property name="format">3</property>
  <property name="audio_index">-1</property>
  <property name="video_index">0</property>
  <property name="meta.media.frame_rate_num">60</property>
  <property name="meta.media.frame_rate_den">1</property>
  <property name="meta.media.colorspace">601</property>
  <property name="meta.media.color_trc">2</property>
  <property name="meta.media.has_b_frames">0</property>
  <property name="meta.media.width">640</property>
  <property name="meta.media.height">360</property>
  <property name="meta.media.color_range">full</property>
  <property name="kdenlive:clipname">135.mp4</property>
  <property name="kdenlive:clip_type">2</property>
  <property name="kdenlive:folderid">16</property>
  <property name="kdenlive:id">57</property>
  <property name="mute_on_pause">0</property>
  <property name="kdenlive:file_size">77622</property>
  <property name="kdenlive:file_hash">88d833ac719967dee1199e32c3a1514c</property>
  <property name="kdenlive:proxy">/home/xiaoxiae/.cache/kdenlive/proxy/88d833ac719967dee1199e32c3a1514c.mkv</property>
  <property name="kdenlive:originalurl">video/Farmer/135.mp4</property>
  <property name="kdenlive:original.mlt_type">chain</property>
  <property name="kdenlive:original.in">0</property>
  <property name="kdenlive:original.out">00:00:00.983</property>
  <property name="kdenlive:original.length">60</property>
  <property name="kdenlive:original.eof">pause</property>
  <property name="kdenlive:original.resource">video/Farmer/135.mp4</property>
  <property name="kdenlive:original.mlt_service">avformat-novalidate</property>
  <property name="kdenlive:original.meta.media.nb_streams">1</property>
  <property name="kdenlive:original.meta.media.0.stream.type">video</property>
  <property name="kdenlive:original.meta.media.0.stream.frame_rate">60</property>
  <property name="kdenlive:original.meta.media.0.stream.sample_aspect_ratio">0</property>
  <property name="kdenlive:original.meta.media.0.codec.width">1920</property>
  <property name="kdenlive:original.meta.media.0.codec.height">1080</property>
  <property name="kdenlive:original.meta.media.0.codec.rotate">0</property>
  <property name="kdenlive:original.meta.media.0.codec.pix_fmt">yuv420p</property>
  <property name="kdenlive:original.meta.media.0.codec.sample_aspect_ratio">0</property>
  <property name="kdenlive:original.meta.media.0.codec.colorspace">709</property>
  <property name="kdenlive:original.meta.media.0.codec.name">h264</property>
  <property name="kdenlive:original.meta.media.0.codec.long_name">H.264 / AVC / MPEG-4 AVC / MPEG-4 part 10</property>
  <property name="kdenlive:original.meta.media.0.codec.bit_rate">608048</property>
  <property name="kdenlive:original.meta.attr.0.stream.handler_name.markup">VideoHandler</property>
  <property name="kdenlive:original.meta.attr.0.stream.vendor_id.markup">[0][0][0][0]</property>
  <property name="kdenlive:original.meta.attr.0.stream.encoder.markup">Lavc60.3.100 libx264</property>
  <property name="kdenlive:original.meta.attr.major_brand.markup">isom</property>
  <property name="kdenlive:original.meta.attr.minor_version.markup">512</property>
  <property name="kdenlive:original.meta.attr.compatible_brands.markup">isomiso2avc1mp41</property>
  <property name="kdenlive:original.meta.attr.encoder.markup">Lavf60.3.100</property>
  <property name="kdenlive:original.meta.attr.comment.markup">Rendered with Manim Community v0.17.3</property>
  <property name="kdenlive:original.seekable">1</property>
  <property name="kdenlive:original.width">1920</property>
  <property name="kdenlive:original.height">1080</property>
  <property name="kdenlive:original.meta.media.sample_aspect_num">1</property>
  <property name="kdenlive:original.meta.media.sample_aspect_den">1</property>
  <property name="kdenlive:original.format">3</property>
  <property name="kdenlive:original.audio_index">-1</property>
  <property name="kdenlive:original.video_index">0</property>
  <property name="kdenlive:original.meta.media.frame_rate_num">60</property>
  <property name="kdenlive:original.meta.media.frame_rate_den">1</property>
  <property name="kdenlive:original.meta.media.colorspace">709</property>
  <property name="kdenlive:original.meta.media.color_trc">2</property>
  <property name="kdenlive:original.meta.media.has_b_frames">2</property>
  <property name="kdenlive:original.meta.media.width">1920</property>
  <property name="kdenlive:original.meta.media.height">1080</property>
  <property name="kdenlive:original.meta.media.color_range">mpeg</property>
  <property name="kdenlive:original.meta.media.top_field_first">0</property>
  <property name="kdenlive:original.meta.media.progressive">1</property>
  <property name="kdenlive:original.kdenlive:clip_type">2</property>
  <property name="kdenlive:original.kdenlive:folderid">16</property>
  <property name="kdenlive:original.kdenlive:id">57</property>
  <property name="kdenlive:original.mute_on_pause">0</property>
  <property name="kdenlive:original.kdenlive:file_size">77622</property>
  <property name="kdenlive:original.kdenlive:file_hash">88d833ac719967dee1199e32c3a1514c</property>
  <property name="kdenlive:original.backup">1</property>
  <property name="meta.media.top_field_first">0</property>
  <property name="meta.media.progressive">1</property>
 </chain>
 <chain id="chain195" out="00:00:00.983">
  <property name="length">60</property>
  <property name="eof">pause</property>
  <property name="resource">/home/xiaoxiae/.cache/kdenlive/proxy/5232aee09d8453f827742d58f328cee3.mkv</property>
  <property name="mlt_service">avformat-novalidate</property>
  <property name="meta.media.nb_streams">1</property>
  <property name="meta.media.0.stream.type">video</property>
  <property name="meta.media.0.stream.frame_rate">60</property>
  <property name="meta.media.0.stream.sample_aspect_ratio">0</property>
  <property name="meta.media.0.codec.width">640</property>
  <property name="meta.media.0.codec.height">360</property>
  <property name="meta.media.0.codec.rotate">0</property>
  <property name="meta.media.0.codec.pix_fmt">yuvj420p</property>
  <property name="meta.media.0.codec.sample_aspect_ratio">0</property>
  <property name="meta.media.0.codec.colorspace">601</property>
  <property name="meta.media.0.codec.name">mjpeg</property>
  <property name="meta.media.0.codec.long_name">MJPEG (Motion JPEG)</property>
  <property name="meta.media.0.codec.bit_rate">0</property>
  <property name="meta.attr.0.stream.HANDLER_NAME.markup">VideoHandler</property>
  <property name="meta.attr.0.stream.VENDOR_ID.markup">[0][0][0][0]</property>
  <property name="meta.attr.0.stream.ENCODER.markup">Lavc60.3.100 mjpeg</property>
  <property name="meta.attr.0.stream.DURATION.markup">00:00:01.000000000</property>
  <property name="meta.attr.COMMENT.markup">Rendered with Manim Community v0.17.3</property>
  <property name="meta.attr.MAJOR_BRAND.markup">isom</property>
  <property name="meta.attr.MINOR_VERSION.markup">512</property>
  <property name="meta.attr.COMPATIBLE_BRANDS.markup">isomiso2avc1mp41</property>
  <property name="meta.attr.ENCODER.markup">Lavf60.3.100</property>
  <property name="seekable">1</property>
  <property name="meta.media.sample_aspect_num">1</property>
  <property name="meta.media.sample_aspect_den">1</property>
  <property name="format">3</property>
  <property name="audio_index">-1</property>
  <property name="video_index">0</property>
  <property name="meta.media.frame_rate_num">60</property>
  <property name="meta.media.frame_rate_den">1</property>
  <property name="meta.media.colorspace">601</property>
  <property name="meta.media.color_trc">2</property>
  <property name="meta.media.has_b_frames">0</property>
  <property name="meta.media.width">640</property>
  <property name="meta.media.height">360</property>
  <property name="meta.media.color_range">full</property>
  <property name="kdenlive:clipname">136.mp4</property>
  <property name="kdenlive:clip_type">2</property>
  <property name="kdenlive:folderid">16</property>
  <property name="kdenlive:id">58</property>
  <property name="mute_on_pause">0</property>
  <property name="kdenlive:file_size">53481</property>
  <property name="kdenlive:file_hash">5232aee09d8453f827742d58f328cee3</property>
  <property name="kdenlive:proxy">/home/xiaoxiae/.cache/kdenlive/proxy/5232aee09d8453f827742d58f328cee3.mkv</property>
  <property name="kdenlive:originalurl">video/Farmer/136.mp4</property>
  <property name="kdenlive:original.mlt_type">chain</property>
  <property name="kdenlive:original.in">0</property>
  <property name="kdenlive:original.out">00:00:00.983</property>
  <property name="kdenlive:original.length">60</property>
  <property name="kdenlive:original.eof">pause</property>
  <property name="kdenlive:original.resource">video/Farmer/136.mp4</property>
  <property name="kdenlive:original.mlt_service">avformat-novalidate</property>
  <property name="kdenlive:original.meta.media.nb_streams">1</property>
  <property name="kdenlive:original.meta.media.0.stream.type">video</property>
  <property name="kdenlive:original.meta.media.0.stream.frame_rate">60</property>
  <property name="kdenlive:original.meta.media.0.stream.sample_aspect_ratio">0</property>
  <property name="kdenlive:original.meta.media.0.codec.width">1920</property>
  <property name="kdenlive:original.meta.media.0.codec.height">1080</property>
  <property name="kdenlive:original.meta.media.0.codec.rotate">0</property>
  <property name="kdenlive:original.meta.media.0.codec.pix_fmt">yuv420p</property>
  <property name="kdenlive:original.meta.media.0.codec.sample_aspect_ratio">0</property>
  <property name="kdenlive:original.meta.media.0.codec.colorspace">709</property>
  <property name="kdenlive:original.meta.media.0.codec.name">h264</property>
  <property name="kdenlive:original.meta.media.0.codec.long_name">H.264 / AVC / MPEG-4 AVC / MPEG-4 part 10</property>
  <property name="kdenlive:original.meta.media.0.codec.bit_rate">414792</property>
  <property name="kdenlive:original.meta.attr.0.stream.handler_name.markup">VideoHandler</property>
  <property name="kdenlive:original.meta.attr.0.stream.vendor_id.markup">[0][0][0][0]</property>
  <property name="kdenlive:original.meta.attr.0.stream.encoder.markup">Lavc60.3.100 libx264</property>
  <property name="kdenlive:original.meta.attr.major_brand.markup">isom</property>
  <property name="kdenlive:original.meta.attr.minor_version.markup">512</property>
  <property name="kdenlive:original.meta.attr.compatible_brands.markup">isomiso2avc1mp41</property>
  <property name="kdenlive:original.meta.attr.encoder.markup">Lavf60.3.100</property>
  <property name="kdenlive:original.meta.attr.comment.markup">Rendered with Manim Community v0.17.3</property>
  <property name="kdenlive:original.seekable">1</property>
  <property name="kdenlive:original.width">1920</property>
  <property name="kdenlive:original.height">1080</property>
  <property name="kdenlive:original.meta.media.sample_aspect_num">1</property>
  <property name="kdenlive:original.meta.media.sample_aspect_den">1</property>
  <property name="kdenlive:original.format">3</property>
  <property name="kdenlive:original.audio_index">-1</property>
  <property name="kdenlive:original.video_index">0</property>
  <property name="kdenlive:original.meta.media.frame_rate_num">60</property>
  <property name="kdenlive:original.meta.media.frame_rate_den">1</property>
  <property name="kdenlive:original.meta.media.colorspace">709</property>
  <property name="kdenlive:original.meta.media.color_trc">2</property>
  <property name="kdenlive:original.meta.media.has_b_frames">2</property>
  <property name="kdenlive:original.meta.media.width">1920</property>
  <property name="kdenlive:original.meta.media.height">1080</property>
  <property name="kdenlive:original.meta.media.color_range">mpeg</property>
  <property name="kdenlive:original.meta.media.top_field_first">0</property>
  <property name="kdenlive:original.meta.media.progressive">1</property>
  <property name="kdenlive:original.kdenlive:clip_type">2</property>
  <property name="kdenlive:original.kdenlive:folderid">16</property>
  <property name="kdenlive:original.kdenlive:id">58</property>
  <property name="kdenlive:original.mute_on_pause">0</property>
  <property name="kdenlive:original.kdenlive:file_size">53481</property>
  <property name="kdenlive:original.kdenlive:file_hash">5232aee09d8453f827742d58f328cee3</property>
  <property name="kdenlive:original.backup">1</property>
  <property name="meta.media.top_field_first">0</property>
  <property name="meta.media.progressive">1</property>
 </chain>
 <chain id="chain194" out="00:00:00.983">
  <property name="length">60</property>
  <property name="eof">pause</property>
  <property name="resource">/home/xiaoxiae/.cache/kdenlive/proxy/1ee3f429c008873d64a33aa0421665e3.mkv</property>
  <property name="mlt_service">avformat-novalidate</property>
  <property name="meta.media.nb_streams">1</property>
  <property name="meta.media.0.stream.type">video</property>
  <property name="meta.media.0.stream.frame_rate">60</property>
  <property name="meta.media.0.stream.sample_aspect_ratio">0</property>
  <property name="meta.media.0.codec.width">640</property>
  <property name="meta.media.0.codec.height">360</property>
  <property name="meta.media.0.codec.rotate">0</property>
  <property name="meta.media.0.codec.pix_fmt">yuvj420p</property>
  <property name="meta.media.0.codec.sample_aspect_ratio">0</property>
  <property name="meta.media.0.codec.colorspace">601</property>
  <property name="meta.media.0.codec.name">mjpeg</property>
  <property name="meta.media.0.codec.long_name">MJPEG (Motion JPEG)</property>
  <property name="meta.media.0.codec.bit_rate">0</property>
  <property name="meta.attr.0.stream.HANDLER_NAME.markup">VideoHandler</property>
  <property name="meta.attr.0.stream.VENDOR_ID.markup">[0][0][0][0]</property>
  <property name="meta.attr.0.stream.ENCODER.markup">Lavc60.3.100 mjpeg</property>
  <property name="meta.attr.0.stream.DURATION.markup">00:00:01.000000000</property>
  <property name="meta.attr.COMMENT.markup">Rendered with Manim Community v0.17.3</property>
  <property name="meta.attr.MAJOR_BRAND.markup">isom</property>
  <property name="meta.attr.MINOR_VERSION.markup">512</property>
  <property name="meta.attr.COMPATIBLE_BRANDS.markup">isomiso2avc1mp41</property>
  <property name="meta.attr.ENCODER.markup">Lavf60.3.100</property>
  <property name="seekable">1</property>
  <property name="meta.media.sample_aspect_num">1</property>
  <property name="meta.media.sample_aspect_den">1</property>
  <property name="format">3</property>
  <property name="audio_index">-1</property>
  <property name="video_index">0</property>
  <property name="meta.media.frame_rate_num">60</property>
  <property name="meta.media.frame_rate_den">1</property>
  <property name="meta.media.colorspace">601</property>
  <property name="meta.media.color_trc">2</property>
  <property name="meta.media.has_b_frames">0</property>
  <property name="meta.media.width">640</property>
  <property name="meta.media.height">360</property>
  <property name="meta.media.color_range">full</property>
  <property name="kdenlive:clipname">137.mp4</property>
  <property name="kdenlive:clip_type">2</property>
  <property name="kdenlive:folderid">16</property>
  <property name="kdenlive:id">59</property>
  <property name="mute_on_pause">0</property>
  <property name="kdenlive:file_size">54128</property>
  <property name="kdenlive:file_hash">1ee3f429c008873d64a33aa0421665e3</property>
  <property name="kdenlive:proxy">/home/xiaoxiae/.cache/kdenlive/proxy/1ee3f429c008873d64a33aa0421665e3.mkv</property>
  <property name="kdenlive:originalurl">video/Farmer/137.mp4</property>
  <property name="kdenlive:original.mlt_type">chain</property>
  <property name="kdenlive:original.in">0</property>
  <property name="kdenlive:original.out">00:00:00.983</property>
  <property name="kdenlive:original.length">60</property>
  <property name="kdenlive:original.eof">pause</property>
  <property name="kdenlive:original.resource">video/Farmer/137.mp4</property>
  <property name="kdenlive:original.mlt_service">avformat-novalidate</property>
  <property name="kdenlive:original.meta.media.nb_streams">1</property>
  <property name="kdenlive:original.meta.media.0.stream.type">video</property>
  <property name="kdenlive:original.meta.media.0.stream.frame_rate">60</property>
  <property name="kdenlive:original.meta.media.0.stream.sample_aspect_ratio">0</property>
  <property name="kdenlive:original.meta.media.0.codec.width">1920</property>
  <property name="kdenlive:original.meta.media.0.codec.height">1080</property>
  <property name="kdenlive:original.meta.media.0.codec.rotate">0</property>
  <property name="kdenlive:original.meta.media.0.codec.pix_fmt">yuv420p</property>
  <property name="kdenlive:original.meta.media.0.codec.sample_aspect_ratio">0</property>
  <property name="kdenlive:original.meta.media.0.codec.colorspace">709</property>
  <property name="kdenlive:original.meta.media.0.codec.name">h264</property>
  <property name="kdenlive:original.meta.media.0.codec.long_name">H.264 / AVC / MPEG-4 AVC / MPEG-4 part 10</property>
  <property name="kdenlive:original.meta.media.0.codec.bit_rate">419968</property>
  <property name="kdenlive:original.meta.attr.0.stream.handler_name.markup">VideoHandler</property>
  <property name="kdenlive:original.meta.attr.0.stream.vendor_id.markup">[0][0][0][0]</property>
  <property name="kdenlive:original.meta.attr.0.stream.encoder.markup">Lavc60.3.100 libx264</property>
  <property name="kdenlive:original.meta.attr.major_brand.markup">isom</property>
  <property name="kdenlive:original.meta.attr.minor_version.markup">512</property>
  <property name="kdenlive:original.meta.attr.compatible_brands.markup">isomiso2avc1mp41</property>
  <property name="kdenlive:original.meta.attr.encoder.markup">Lavf60.3.100</property>
  <property name="kdenlive:original.meta.attr.comment.markup">Rendered with Manim Community v0.17.3</property>
  <property name="kdenlive:original.seekable">1</property>
  <property name="kdenlive:original.width">1920</property>
  <property name="kdenlive:original.height">1080</property>
  <property name="kdenlive:original.meta.media.sample_aspect_num">1</property>
  <property name="kdenlive:original.meta.media.sample_aspect_den">1</property>
  <property name="kdenlive:original.format">3</property>
  <property name="kdenlive:original.audio_index">-1</property>
  <property name="kdenlive:original.video_index">0</property>
  <property name="kdenlive:original.meta.media.frame_rate_num">60</property>
  <property name="kdenlive:original.meta.media.frame_rate_den">1</property>
  <property name="kdenlive:original.meta.media.colorspace">709</property>
  <property name="kdenlive:original.meta.media.color_trc">2</property>
  <property name="kdenlive:original.meta.media.has_b_frames">2</property>
  <property name="kdenlive:original.meta.media.width">1920</property>
  <property name="kdenlive:original.meta.media.height">1080</property>
  <property name="kdenlive:original.meta.media.color_range">mpeg</property>
  <property name="kdenlive:original.meta.media.top_field_first">0</property>
  <property name="kdenlive:original.meta.media.progressive">1</property>
  <property name="kdenlive:original.kdenlive:clip_type">2</property>
  <property name="kdenlive:original.kdenlive:folderid">16</property>
  <property name="kdenlive:original.kdenlive:id">59</property>
  <property name="kdenlive:original.mute_on_pause">0</property>
  <property name="kdenlive:original.kdenlive:file_size">54128</property>
  <property name="kdenlive:original.kdenlive:file_hash">1ee3f429c008873d64a33aa0421665e3</property>
  <property name="kdenlive:original.backup">1</property>
  <property name="meta.media.top_field_first">0</property>
  <property name="meta.media.progressive">1</property>
 </chain>
 <chain id="chain192" out="00:00:01.483">
  <property name="length">90</property>
  <property name="eof">pause</property>
  <property name="resource">/home/xiaoxiae/.cache/kdenlive/proxy/c2dc512aa87829183e55b62ff788e8ad.mkv</property>
  <property name="mlt_service">avformat-novalidate</property>
  <property name="meta.media.nb_streams">1</property>
  <property name="meta.media.0.stream.type">video</property>
  <property name="meta.media.0.stream.frame_rate">60</property>
  <property name="meta.media.0.stream.sample_aspect_ratio">0</property>
  <property name="meta.media.0.codec.width">640</property>
  <property name="meta.media.0.codec.height">360</property>
  <property name="meta.media.0.codec.rotate">0</property>
  <property name="meta.media.0.codec.pix_fmt">yuvj420p</property>
  <property name="meta.media.0.codec.sample_aspect_ratio">0</property>
  <property name="meta.media.0.codec.colorspace">601</property>
  <property name="meta.media.0.codec.name">mjpeg</property>
  <property name="meta.media.0.codec.long_name">MJPEG (Motion JPEG)</property>
  <property name="meta.media.0.codec.bit_rate">0</property>
  <property name="meta.attr.0.stream.HANDLER_NAME.markup">VideoHandler</property>
  <property name="meta.attr.0.stream.VENDOR_ID.markup">[0][0][0][0]</property>
  <property name="meta.attr.0.stream.ENCODER.markup">Lavc60.3.100 mjpeg</property>
  <property name="meta.attr.0.stream.DURATION.markup">00:00:01.500000000</property>
  <property name="meta.attr.COMMENT.markup">Rendered with Manim Community v0.17.3</property>
  <property name="meta.attr.MAJOR_BRAND.markup">isom</property>
  <property name="meta.attr.MINOR_VERSION.markup">512</property>
  <property name="meta.attr.COMPATIBLE_BRANDS.markup">isomiso2avc1mp41</property>
  <property name="meta.attr.ENCODER.markup">Lavf60.3.100</property>
  <property name="seekable">1</property>
  <property name="meta.media.sample_aspect_num">1</property>
  <property name="meta.media.sample_aspect_den">1</property>
  <property name="format">3</property>
  <property name="audio_index">-1</property>
  <property name="video_index">0</property>
  <property name="meta.media.frame_rate_num">60</property>
  <property name="meta.media.frame_rate_den">1</property>
  <property name="meta.media.colorspace">601</property>
  <property name="meta.media.color_trc">2</property>
  <property name="meta.media.has_b_frames">0</property>
  <property name="meta.media.width">640</property>
  <property name="meta.media.height">360</property>
  <property name="meta.media.color_range">full</property>
  <property name="kdenlive:clipname">138.mp4</property>
  <property name="kdenlive:clip_type">2</property>
  <property name="kdenlive:folderid">16</property>
  <property name="kdenlive:id">60</property>
  <property name="mute_on_pause">0</property>
  <property name="kdenlive:file_size">78373</property>
  <property name="kdenlive:file_hash">c2dc512aa87829183e55b62ff788e8ad</property>
  <property name="kdenlive:proxy">/home/xiaoxiae/.cache/kdenlive/proxy/c2dc512aa87829183e55b62ff788e8ad.mkv</property>
  <property name="kdenlive:originalurl">video/Farmer/138.mp4</property>
  <property name="kdenlive:original.mlt_type">chain</property>
  <property name="kdenlive:original.in">0</property>
  <property name="kdenlive:original.out">00:00:01.483</property>
  <property name="kdenlive:original.length">90</property>
  <property name="kdenlive:original.eof">pause</property>
  <property name="kdenlive:original.resource">video/Farmer/138.mp4</property>
  <property name="kdenlive:original.mlt_service">avformat-novalidate</property>
  <property name="kdenlive:original.meta.media.nb_streams">1</property>
  <property name="kdenlive:original.meta.media.0.stream.type">video</property>
  <property name="kdenlive:original.meta.media.0.stream.frame_rate">60</property>
  <property name="kdenlive:original.meta.media.0.stream.sample_aspect_ratio">0</property>
  <property name="kdenlive:original.meta.media.0.codec.width">1920</property>
  <property name="kdenlive:original.meta.media.0.codec.height">1080</property>
  <property name="kdenlive:original.meta.media.0.codec.rotate">0</property>
  <property name="kdenlive:original.meta.media.0.codec.pix_fmt">yuv420p</property>
  <property name="kdenlive:original.meta.media.0.codec.sample_aspect_ratio">0</property>
  <property name="kdenlive:original.meta.media.0.codec.colorspace">709</property>
  <property name="kdenlive:original.meta.media.0.codec.name">h264</property>
  <property name="kdenlive:original.meta.media.0.codec.long_name">H.264 / AVC / MPEG-4 AVC / MPEG-4 part 10</property>
  <property name="kdenlive:original.meta.media.0.codec.bit_rate">407792</property>
  <property name="kdenlive:original.meta.attr.0.stream.handler_name.markup">VideoHandler</property>
  <property name="kdenlive:original.meta.attr.0.stream.vendor_id.markup">[0][0][0][0]</property>
  <property name="kdenlive:original.meta.attr.0.stream.encoder.markup">Lavc60.3.100 libx264</property>
  <property name="kdenlive:original.meta.attr.major_brand.markup">isom</property>
  <property name="kdenlive:original.meta.attr.minor_version.markup">512</property>
  <property name="kdenlive:original.meta.attr.compatible_brands.markup">isomiso2avc1mp41</property>
  <property name="kdenlive:original.meta.attr.encoder.markup">Lavf60.3.100</property>
  <property name="kdenlive:original.meta.attr.comment.markup">Rendered with Manim Community v0.17.3</property>
  <property name="kdenlive:original.seekable">1</property>
  <property name="kdenlive:original.width">1920</property>
  <property name="kdenlive:original.height">1080</property>
  <property name="kdenlive:original.meta.media.sample_aspect_num">1</property>
  <property name="kdenlive:original.meta.media.sample_aspect_den">1</property>
  <property name="kdenlive:original.format">3</property>
  <property name="kdenlive:original.audio_index">-1</property>
  <property name="kdenlive:original.video_index">0</property>
  <property name="kdenlive:original.meta.media.frame_rate_num">60</property>
  <property name="kdenlive:original.meta.media.frame_rate_den">1</property>
  <property name="kdenlive:original.meta.media.colorspace">709</property>
  <property name="kdenlive:original.meta.media.color_trc">2</property>
  <property name="kdenlive:original.meta.media.has_b_frames">2</property>
  <property name="kdenlive:original.meta.media.width">1920</property>
  <property name="kdenlive:original.meta.media.height">1080</property>
  <property name="kdenlive:original.meta.media.color_range">mpeg</property>
  <property name="kdenlive:original.meta.media.top_field_first">0</property>
  <property name="kdenlive:original.meta.media.progressive">1</property>
  <property name="kdenlive:original.kdenlive:clip_type">2</property>
  <property name="kdenlive:original.kdenlive:folderid">16</property>
  <property name="kdenlive:original.kdenlive:id">60</property>
  <property name="kdenlive:original.mute_on_pause">0</property>
  <property name="kdenlive:original.kdenlive:file_size">78373</property>
  <property name="kdenlive:original.kdenlive:file_hash">c2dc512aa87829183e55b62ff788e8ad</property>
  <property name="kdenlive:original.backup">1</property>
  <property name="meta.media.top_field_first">0</property>
  <property name="meta.media.progressive">1</property>
 </chain>
 <chain id="chain191" out="00:00:01.483">
  <property name="length">90</property>
  <property name="eof">pause</property>
  <property name="resource">/home/xiaoxiae/.cache/kdenlive/proxy/811548f4d7c20ec723ec7b539b62d183.mkv</property>
  <property name="mlt_service">avformat-novalidate</property>
  <property name="meta.media.nb_streams">1</property>
  <property name="meta.media.0.stream.type">video</property>
  <property name="meta.media.0.stream.frame_rate">60</property>
  <property name="meta.media.0.stream.sample_aspect_ratio">0</property>
  <property name="meta.media.0.codec.width">640</property>
  <property name="meta.media.0.codec.height">360</property>
  <property name="meta.media.0.codec.rotate">0</property>
  <property name="meta.media.0.codec.pix_fmt">yuvj420p</property>
  <property name="meta.media.0.codec.sample_aspect_ratio">0</property>
  <property name="meta.media.0.codec.colorspace">601</property>
  <property name="meta.media.0.codec.name">mjpeg</property>
  <property name="meta.media.0.codec.long_name">MJPEG (Motion JPEG)</property>
  <property name="meta.media.0.codec.bit_rate">0</property>
  <property name="meta.attr.0.stream.HANDLER_NAME.markup">VideoHandler</property>
  <property name="meta.attr.0.stream.VENDOR_ID.markup">[0][0][0][0]</property>
  <property name="meta.attr.0.stream.ENCODER.markup">Lavc60.3.100 mjpeg</property>
  <property name="meta.attr.0.stream.DURATION.markup">00:00:01.500000000</property>
  <property name="meta.attr.COMMENT.markup">Rendered with Manim Community v0.17.3</property>
  <property name="meta.attr.MAJOR_BRAND.markup">isom</property>
  <property name="meta.attr.MINOR_VERSION.markup">512</property>
  <property name="meta.attr.COMPATIBLE_BRANDS.markup">isomiso2avc1mp41</property>
  <property name="meta.attr.ENCODER.markup">Lavf60.3.100</property>
  <property name="seekable">1</property>
  <property name="meta.media.sample_aspect_num">1</property>
  <property name="meta.media.sample_aspect_den">1</property>
  <property name="format">3</property>
  <property name="audio_index">-1</property>
  <property name="video_index">0</property>
  <property name="meta.media.frame_rate_num">60</property>
  <property name="meta.media.frame_rate_den">1</property>
  <property name="meta.media.colorspace">601</property>
  <property name="meta.media.color_trc">2</property>
  <property name="meta.media.has_b_frames">0</property>
  <property name="meta.media.width">640</property>
  <property name="meta.media.height">360</property>
  <property name="meta.media.color_range">full</property>
  <property name="kdenlive:clipname">139.mp4</property>
  <property name="kdenlive:clip_type">2</property>
  <property name="kdenlive:folderid">16</property>
  <property name="kdenlive:id">61</property>
  <property name="mute_on_pause">0</property>
  <property name="kdenlive:file_size">86471</property>
  <property name="kdenlive:file_hash">811548f4d7c20ec723ec7b539b62d183</property>
  <property name="kdenlive:proxy">/home/xiaoxiae/.cache/kdenlive/proxy/811548f4d7c20ec723ec7b539b62d183.mkv</property>
  <property name="kdenlive:originalurl">video/Farmer/139.mp4</property>
  <property name="kdenlive:original.mlt_type">chain</property>
  <property name="kdenlive:original.in">0</property>
  <property name="kdenlive:original.out">00:00:01.483</property>
  <property name="kdenlive:original.length">90</property>
  <property name="kdenlive:original.eof">pause</property>
  <property name="kdenlive:original.resource">video/Farmer/139.mp4</property>
  <property name="kdenlive:original.mlt_service">avformat-novalidate</property>
  <property name="kdenlive:original.meta.media.nb_streams">1</property>
  <property name="kdenlive:original.meta.media.0.stream.type">video</property>
  <property name="kdenlive:original.meta.media.0.stream.frame_rate">60</property>
  <property name="kdenlive:original.meta.media.0.stream.sample_aspect_ratio">0</property>
  <property name="kdenlive:original.meta.media.0.codec.width">1920</property>
  <property name="kdenlive:original.meta.media.0.codec.height">1080</property>
  <property name="kdenlive:original.meta.media.0.codec.rotate">0</property>
  <property name="kdenlive:original.meta.media.0.codec.pix_fmt">yuv420p</property>
  <property name="kdenlive:original.meta.media.0.codec.sample_aspect_ratio">0</property>
  <property name="kdenlive:original.meta.media.0.codec.colorspace">709</property>
  <property name="kdenlive:original.meta.media.0.codec.name">h264</property>
  <property name="kdenlive:original.meta.media.0.codec.long_name">H.264 / AVC / MPEG-4 AVC / MPEG-4 part 10</property>
  <property name="kdenlive:original.meta.media.0.codec.bit_rate">450938</property>
  <property name="kdenlive:original.meta.attr.0.stream.handler_name.markup">VideoHandler</property>
  <property name="kdenlive:original.meta.attr.0.stream.vendor_id.markup">[0][0][0][0]</property>
  <property name="kdenlive:original.meta.attr.0.stream.encoder.markup">Lavc60.3.100 libx264</property>
  <property name="kdenlive:original.meta.attr.major_brand.markup">isom</property>
  <property name="kdenlive:original.meta.attr.minor_version.markup">512</property>
  <property name="kdenlive:original.meta.attr.compatible_brands.markup">isomiso2avc1mp41</property>
  <property name="kdenlive:original.meta.attr.encoder.markup">Lavf60.3.100</property>
  <property name="kdenlive:original.meta.attr.comment.markup">Rendered with Manim Community v0.17.3</property>
  <property name="kdenlive:original.seekable">1</property>
  <property name="kdenlive:original.width">1920</property>
  <property name="kdenlive:original.height">1080</property>
  <property name="kdenlive:original.meta.media.sample_aspect_num">1</property>
  <property name="kdenlive:original.meta.media.sample_aspect_den">1</property>
  <property name="kdenlive:original.format">3</property>
  <property name="kdenlive:original.audio_index">-1</property>
  <property name="kdenlive:original.video_index">0</property>
  <property name="kdenlive:original.meta.media.frame_rate_num">60</property>
  <property name="kdenlive:original.meta.media.frame_rate_den">1</property>
  <property name="kdenlive:original.meta.media.colorspace">709</property>
  <property name="kdenlive:original.meta.media.color_trc">2</property>
  <property name="kdenlive:original.meta.media.has_b_frames">2</property>
  <property name="kdenlive:original.meta.media.width">1920</property>
  <property name="kdenlive:original.meta.media.height">1080</property>
  <property name="kdenlive:original.meta.media.color_range">mpeg</property>
  <property name="kdenlive:original.meta.media.top_field_first">0</property>
  <property name="kdenlive:original.meta.media.progressive">1</property>
  <property name="kdenlive:original.kdenlive:clip_type">2</property>
  <property name="kdenlive:original.kdenlive:folderid">16</property>
  <property name="kdenlive:original.kdenlive:id">61</property>
  <property name="kdenlive:original.mute_on_pause">0</property>
  <property name="kdenlive:original.kdenlive:file_size">86471</property>
  <property name="kdenlive:original.kdenlive:file_hash">811548f4d7c20ec723ec7b539b62d183</property>
  <property name="kdenlive:original.backup">1</property>
  <property name="meta.media.top_field_first">0</property>
  <property name="meta.media.progressive">1</property>
 </chain>
 <chain id="chain410" out="00:00:01.483">
  <property name="length">90</property>
  <property name="eof">pause</property>
  <property name="resource">/home/xiaoxiae/.cache/kdenlive/proxy/308c1ccb034ee5ad5a06910b53d8d390.mkv</property>
  <property name="mlt_service">avformat-novalidate</property>
  <property name="meta.media.nb_streams">1</property>
  <property name="meta.media.0.stream.type">video</property>
  <property name="meta.media.0.stream.frame_rate">60</property>
  <property name="meta.media.0.stream.sample_aspect_ratio">0</property>
  <property name="meta.media.0.codec.width">640</property>
  <property name="meta.media.0.codec.height">360</property>
  <property name="meta.media.0.codec.rotate">0</property>
  <property name="meta.media.0.codec.pix_fmt">yuvj420p</property>
  <property name="meta.media.0.codec.sample_aspect_ratio">0</property>
  <property name="meta.media.0.codec.colorspace">601</property>
  <property name="meta.media.0.codec.name">mjpeg</property>
  <property name="meta.media.0.codec.long_name">MJPEG (Motion JPEG)</property>
  <property name="meta.media.0.codec.bit_rate">0</property>
  <property name="meta.attr.0.stream.HANDLER_NAME.markup">VideoHandler</property>
  <property name="meta.attr.0.stream.VENDOR_ID.markup">[0][0][0][0]</property>
  <property name="meta.attr.0.stream.ENCODER.markup">Lavc60.3.100 mjpeg</property>
  <property name="meta.attr.0.stream.DURATION.markup">00:00:01.500000000</property>
  <property name="meta.attr.COMMENT.markup">Rendered with Manim Community v0.17.3</property>
  <property name="meta.attr.MAJOR_BRAND.markup">isom</property>
  <property name="meta.attr.MINOR_VERSION.markup">512</property>
  <property name="meta.attr.COMPATIBLE_BRANDS.markup">isomiso2avc1mp41</property>
  <property name="meta.attr.ENCODER.markup">Lavf60.3.100</property>
  <property name="seekable">1</property>
  <property name="meta.media.sample_aspect_num">1</property>
  <property name="meta.media.sample_aspect_den">1</property>
  <property name="format">3</property>
  <property name="audio_index">-1</property>
  <property name="video_index">0</property>
  <property name="meta.media.frame_rate_num">60</property>
  <property name="meta.media.frame_rate_den">1</property>
  <property name="meta.media.colorspace">601</property>
  <property name="meta.media.color_trc">2</property>
  <property name="meta.media.has_b_frames">0</property>
  <property name="meta.media.width">640</property>
  <property name="meta.media.height">360</property>
  <property name="meta.media.color_range">full</property>
  <property name="kdenlive:clipname">14.mp4</property>
  <property name="kdenlive:clip_type">2</property>
  <property name="kdenlive:folderid">16</property>
  <property name="kdenlive:id">62</property>
  <property name="mute_on_pause">0</property>
  <property name="kdenlive:file_size">152018</property>
  <property name="kdenlive:file_hash">308c1ccb034ee5ad5a06910b53d8d390</property>
  <property name="kdenlive:proxy">/home/xiaoxiae/.cache/kdenlive/proxy/308c1ccb034ee5ad5a06910b53d8d390.mkv</property>
  <property name="kdenlive:originalurl">video/Farmer/14.mp4</property>
  <property name="kdenlive:original.mlt_type">chain</property>
  <property name="kdenlive:original.in">0</property>
  <property name="kdenlive:original.out">00:00:01.483</property>
  <property name="kdenlive:original.length">90</property>
  <property name="kdenlive:original.eof">pause</property>
  <property name="kdenlive:original.resource">video/Farmer/14.mp4</property>
  <property name="kdenlive:original.mlt_service">avformat-novalidate</property>
  <property name="kdenlive:original.meta.media.nb_streams">1</property>
  <property name="kdenlive:original.meta.media.0.stream.type">video</property>
  <property name="kdenlive:original.meta.media.0.stream.frame_rate">60</property>
  <property name="kdenlive:original.meta.media.0.stream.sample_aspect_ratio">0</property>
  <property name="kdenlive:original.meta.media.0.codec.width">1920</property>
  <property name="kdenlive:original.meta.media.0.codec.height">1080</property>
  <property name="kdenlive:original.meta.media.0.codec.rotate">0</property>
  <property name="kdenlive:original.meta.media.0.codec.pix_fmt">yuv420p</property>
  <property name="kdenlive:original.meta.media.0.codec.sample_aspect_ratio">0</property>
  <property name="kdenlive:original.meta.media.0.codec.colorspace">709</property>
  <property name="kdenlive:original.meta.media.0.codec.name">h264</property>
  <property name="kdenlive:original.meta.media.0.codec.long_name">H.264 / AVC / MPEG-4 AVC / MPEG-4 part 10</property>
  <property name="kdenlive:original.meta.media.0.codec.bit_rate">800522</property>
  <property name="kdenlive:original.meta.attr.0.stream.handler_name.markup">VideoHandler</property>
  <property name="kdenlive:original.meta.attr.0.stream.vendor_id.markup">[0][0][0][0]</property>
  <property name="kdenlive:original.meta.attr.0.stream.encoder.markup">Lavc60.3.100 libx264</property>
  <property name="kdenlive:original.meta.attr.major_brand.markup">isom</property>
  <property name="kdenlive:original.meta.attr.minor_version.markup">512</property>
  <property name="kdenlive:original.meta.attr.compatible_brands.markup">isomiso2avc1mp41</property>
  <property name="kdenlive:original.meta.attr.encoder.markup">Lavf60.3.100</property>
  <property name="kdenlive:original.meta.attr.comment.markup">Rendered with Manim Community v0.17.3</property>
  <property name="kdenlive:original.seekable">1</property>
  <property name="kdenlive:original.width">1920</property>
  <property name="kdenlive:original.height">1080</property>
  <property name="kdenlive:original.meta.media.sample_aspect_num">1</property>
  <property name="kdenlive:original.meta.media.sample_aspect_den">1</property>
  <property name="kdenlive:original.format">3</property>
  <property name="kdenlive:original.audio_index">-1</property>
  <property name="kdenlive:original.video_index">0</property>
  <property name="kdenlive:original.meta.media.frame_rate_num">60</property>
  <property name="kdenlive:original.meta.media.frame_rate_den">1</property>
  <property name="kdenlive:original.meta.media.colorspace">709</property>
  <property name="kdenlive:original.meta.media.color_trc">2</property>
  <property name="kdenlive:original.meta.media.has_b_frames">2</property>
  <property name="kdenlive:original.meta.media.width">1920</property>
  <property name="kdenlive:original.meta.media.height">1080</property>
  <property name="kdenlive:original.meta.media.color_range">mpeg</property>
  <property name="kdenlive:original.meta.media.top_field_first">0</property>
  <property name="kdenlive:original.meta.media.progressive">1</property>
  <property name="kdenlive:original.kdenlive:clip_type">2</property>
  <property name="kdenlive:original.kdenlive:folderid">16</property>
  <property name="kdenlive:original.kdenlive:id">62</property>
  <property name="kdenlive:original.mute_on_pause">0</property>
  <property name="kdenlive:original.kdenlive:file_size">152018</property>
  <property name="kdenlive:original.kdenlive:file_hash">308c1ccb034ee5ad5a06910b53d8d390</property>
  <property name="kdenlive:original.backup">1</property>
  <property name="meta.media.top_field_first">0</property>
  <property name="meta.media.progressive">1</property>
 </chain>
 <chain id="chain189" out="00:00:00.983">
  <property name="length">60</property>
  <property name="eof">pause</property>
  <property name="resource">/home/xiaoxiae/.cache/kdenlive/proxy/396b5a9caedb341ae4b68ed30ce34da3.mkv</property>
  <property name="mlt_service">avformat-novalidate</property>
  <property name="meta.media.nb_streams">1</property>
  <property name="meta.media.0.stream.type">video</property>
  <property name="meta.media.0.stream.frame_rate">60</property>
  <property name="meta.media.0.stream.sample_aspect_ratio">0</property>
  <property name="meta.media.0.codec.width">640</property>
  <property name="meta.media.0.codec.height">360</property>
  <property name="meta.media.0.codec.rotate">0</property>
  <property name="meta.media.0.codec.pix_fmt">yuvj420p</property>
  <property name="meta.media.0.codec.sample_aspect_ratio">0</property>
  <property name="meta.media.0.codec.colorspace">601</property>
  <property name="meta.media.0.codec.name">mjpeg</property>
  <property name="meta.media.0.codec.long_name">MJPEG (Motion JPEG)</property>
  <property name="meta.media.0.codec.bit_rate">0</property>
  <property name="meta.attr.0.stream.HANDLER_NAME.markup">VideoHandler</property>
  <property name="meta.attr.0.stream.VENDOR_ID.markup">[0][0][0][0]</property>
  <property name="meta.attr.0.stream.ENCODER.markup">Lavc60.3.100 mjpeg</property>
  <property name="meta.attr.0.stream.DURATION.markup">00:00:01.000000000</property>
  <property name="meta.attr.COMMENT.markup">Rendered with Manim Community v0.17.3</property>
  <property name="meta.attr.MAJOR_BRAND.markup">isom</property>
  <property name="meta.attr.MINOR_VERSION.markup">512</property>
  <property name="meta.attr.COMPATIBLE_BRANDS.markup">isomiso2avc1mp41</property>
  <property name="meta.attr.ENCODER.markup">Lavf60.3.100</property>
  <property name="seekable">1</property>
  <property name="meta.media.sample_aspect_num">1</property>
  <property name="meta.media.sample_aspect_den">1</property>
  <property name="format">3</property>
  <property name="audio_index">-1</property>
  <property name="video_index">0</property>
  <property name="meta.media.frame_rate_num">60</property>
  <property name="meta.media.frame_rate_den">1</property>
  <property name="meta.media.colorspace">601</property>
  <property name="meta.media.color_trc">2</property>
  <property name="meta.media.has_b_frames">0</property>
  <property name="meta.media.width">640</property>
  <property name="meta.media.height">360</property>
  <property name="meta.media.color_range">full</property>
  <property name="kdenlive:clipname">140.mp4</property>
  <property name="kdenlive:clip_type">2</property>
  <property name="kdenlive:folderid">16</property>
  <property name="kdenlive:id">63</property>
  <property name="mute_on_pause">0</property>
  <property name="kdenlive:file_size">70333</property>
  <property name="kdenlive:file_hash">396b5a9caedb341ae4b68ed30ce34da3</property>
  <property name="kdenlive:proxy">/home/xiaoxiae/.cache/kdenlive/proxy/396b5a9caedb341ae4b68ed30ce34da3.mkv</property>
  <property name="kdenlive:originalurl">video/Farmer/140.mp4</property>
  <property name="kdenlive:original.mlt_type">chain</property>
  <property name="kdenlive:original.in">0</property>
  <property name="kdenlive:original.out">00:00:00.983</property>
  <property name="kdenlive:original.length">60</property>
  <property name="kdenlive:original.eof">pause</property>
  <property name="kdenlive:original.resource">video/Farmer/140.mp4</property>
  <property name="kdenlive:original.mlt_service">avformat-novalidate</property>
  <property name="kdenlive:original.meta.media.nb_streams">1</property>
  <property name="kdenlive:original.meta.media.0.stream.type">video</property>
  <property name="kdenlive:original.meta.media.0.stream.frame_rate">60</property>
  <property name="kdenlive:original.meta.media.0.stream.sample_aspect_ratio">0</property>
  <property name="kdenlive:original.meta.media.0.codec.width">1920</property>
  <property name="kdenlive:original.meta.media.0.codec.height">1080</property>
  <property name="kdenlive:original.meta.media.0.codec.rotate">0</property>
  <property name="kdenlive:original.meta.media.0.codec.pix_fmt">yuv420p</property>
  <property name="kdenlive:original.meta.media.0.codec.sample_aspect_ratio">0</property>
  <property name="kdenlive:original.meta.media.0.codec.colorspace">709</property>
  <property name="kdenlive:original.meta.media.0.codec.name">h264</property>
  <property name="kdenlive:original.meta.media.0.codec.long_name">H.264 / AVC / MPEG-4 AVC / MPEG-4 part 10</property>
  <property name="kdenlive:original.meta.media.0.codec.bit_rate">549608</property>
  <property name="kdenlive:original.meta.attr.0.stream.handler_name.markup">VideoHandler</property>
  <property name="kdenlive:original.meta.attr.0.stream.vendor_id.markup">[0][0][0][0]</property>
  <property name="kdenlive:original.meta.attr.0.stream.encoder.markup">Lavc60.3.100 libx264</property>
  <property name="kdenlive:original.meta.attr.major_brand.markup">isom</property>
  <property name="kdenlive:original.meta.attr.minor_version.markup">512</property>
  <property name="kdenlive:original.meta.attr.compatible_brands.markup">isomiso2avc1mp41</property>
  <property name="kdenlive:original.meta.attr.encoder.markup">Lavf60.3.100</property>
  <property name="kdenlive:original.meta.attr.comment.markup">Rendered with Manim Community v0.17.3</property>
  <property name="kdenlive:original.seekable">1</property>
  <property name="kdenlive:original.width">1920</property>
  <property name="kdenlive:original.height">1080</property>
  <property name="kdenlive:original.meta.media.sample_aspect_num">1</property>
  <property name="kdenlive:original.meta.media.sample_aspect_den">1</property>
  <property name="kdenlive:original.format">3</property>
  <property name="kdenlive:original.audio_index">-1</property>
  <property name="kdenlive:original.video_index">0</property>
  <property name="kdenlive:original.meta.media.frame_rate_num">60</property>
  <property name="kdenlive:original.meta.media.frame_rate_den">1</property>
  <property name="kdenlive:original.meta.media.colorspace">709</property>
  <property name="kdenlive:original.meta.media.color_trc">2</property>
  <property name="kdenlive:original.meta.media.has_b_frames">2</property>
  <property name="kdenlive:original.meta.media.width">1920</property>
  <property name="kdenlive:original.meta.media.height">1080</property>
  <property name="kdenlive:original.meta.media.color_range">mpeg</property>
  <property name="kdenlive:original.meta.media.top_field_first">0</property>
  <property name="kdenlive:original.meta.media.progressive">1</property>
  <property name="kdenlive:original.kdenlive:clip_type">2</property>
  <property name="kdenlive:original.kdenlive:folderid">16</property>
  <property name="kdenlive:original.kdenlive:id">63</property>
  <property name="kdenlive:original.mute_on_pause">0</property>
  <property name="kdenlive:original.kdenlive:file_size">70333</property>
  <property name="kdenlive:original.kdenlive:file_hash">396b5a9caedb341ae4b68ed30ce34da3</property>
  <property name="kdenlive:original.backup">1</property>
  <property name="meta.media.top_field_first">0</property>
  <property name="meta.media.progressive">1</property>
 </chain>
 <chain id="chain188" out="00:00:00.983">
  <property name="length">60</property>
  <property name="eof">pause</property>
  <property name="resource">/home/xiaoxiae/.cache/kdenlive/proxy/d151f02d4dc4dc50ae196658d8c18105.mkv</property>
  <property name="mlt_service">avformat-novalidate</property>
  <property name="meta.media.nb_streams">1</property>
  <property name="meta.media.0.stream.type">video</property>
  <property name="meta.media.0.stream.frame_rate">60</property>
  <property name="meta.media.0.stream.sample_aspect_ratio">0</property>
  <property name="meta.media.0.codec.width">640</property>
  <property name="meta.media.0.codec.height">360</property>
  <property name="meta.media.0.codec.rotate">0</property>
  <property name="meta.media.0.codec.pix_fmt">yuvj420p</property>
  <property name="meta.media.0.codec.sample_aspect_ratio">0</property>
  <property name="meta.media.0.codec.colorspace">601</property>
  <property name="meta.media.0.codec.name">mjpeg</property>
  <property name="meta.media.0.codec.long_name">MJPEG (Motion JPEG)</property>
  <property name="meta.media.0.codec.bit_rate">0</property>
  <property name="meta.attr.0.stream.HANDLER_NAME.markup">VideoHandler</property>
  <property name="meta.attr.0.stream.VENDOR_ID.markup">[0][0][0][0]</property>
  <property name="meta.attr.0.stream.ENCODER.markup">Lavc60.3.100 mjpeg</property>
  <property name="meta.attr.0.stream.DURATION.markup">00:00:01.000000000</property>
  <property name="meta.attr.COMMENT.markup">Rendered with Manim Community v0.17.3</property>
  <property name="meta.attr.MAJOR_BRAND.markup">isom</property>
  <property name="meta.attr.MINOR_VERSION.markup">512</property>
  <property name="meta.attr.COMPATIBLE_BRANDS.markup">isomiso2avc1mp41</property>
  <property name="meta.attr.ENCODER.markup">Lavf60.3.100</property>
  <property name="seekable">1</property>
  <property name="meta.media.sample_aspect_num">1</property>
  <property name="meta.media.sample_aspect_den">1</property>
  <property name="format">3</property>
  <property name="audio_index">-1</property>
  <property name="video_index">0</property>
  <property name="meta.media.frame_rate_num">60</property>
  <property name="meta.media.frame_rate_den">1</property>
  <property name="meta.media.colorspace">601</property>
  <property name="meta.media.color_trc">2</property>
  <property name="meta.media.has_b_frames">0</property>
  <property name="meta.media.width">640</property>
  <property name="meta.media.height">360</property>
  <property name="meta.media.color_range">full</property>
  <property name="kdenlive:clipname">141.mp4</property>
  <property name="kdenlive:clip_type">2</property>
  <property name="kdenlive:folderid">16</property>
  <property name="kdenlive:id">64</property>
  <property name="mute_on_pause">0</property>
  <property name="kdenlive:file_size">57497</property>
  <property name="kdenlive:file_hash">d151f02d4dc4dc50ae196658d8c18105</property>
  <property name="kdenlive:proxy">/home/xiaoxiae/.cache/kdenlive/proxy/d151f02d4dc4dc50ae196658d8c18105.mkv</property>
  <property name="kdenlive:originalurl">video/Farmer/141.mp4</property>
  <property name="kdenlive:original.mlt_type">chain</property>
  <property name="kdenlive:original.in">0</property>
  <property name="kdenlive:original.out">00:00:00.983</property>
  <property name="kdenlive:original.length">60</property>
  <property name="kdenlive:original.eof">pause</property>
  <property name="kdenlive:original.resource">video/Farmer/141.mp4</property>
  <property name="kdenlive:original.mlt_service">avformat-novalidate</property>
  <property name="kdenlive:original.meta.media.nb_streams">1</property>
  <property name="kdenlive:original.meta.media.0.stream.type">video</property>
  <property name="kdenlive:original.meta.media.0.stream.frame_rate">60</property>
  <property name="kdenlive:original.meta.media.0.stream.sample_aspect_ratio">0</property>
  <property name="kdenlive:original.meta.media.0.codec.width">1920</property>
  <property name="kdenlive:original.meta.media.0.codec.height">1080</property>
  <property name="kdenlive:original.meta.media.0.codec.rotate">0</property>
  <property name="kdenlive:original.meta.media.0.codec.pix_fmt">yuv420p</property>
  <property name="kdenlive:original.meta.media.0.codec.sample_aspect_ratio">0</property>
  <property name="kdenlive:original.meta.media.0.codec.colorspace">709</property>
  <property name="kdenlive:original.meta.media.0.codec.name">h264</property>
  <property name="kdenlive:original.meta.media.0.codec.long_name">H.264 / AVC / MPEG-4 AVC / MPEG-4 part 10</property>
  <property name="kdenlive:original.meta.media.0.codec.bit_rate">446920</property>
  <property name="kdenlive:original.meta.attr.0.stream.handler_name.markup">VideoHandler</property>
  <property name="kdenlive:original.meta.attr.0.stream.vendor_id.markup">[0][0][0][0]</property>
  <property name="kdenlive:original.meta.attr.0.stream.encoder.markup">Lavc60.3.100 libx264</property>
  <property name="kdenlive:original.meta.attr.major_brand.markup">isom</property>
  <property name="kdenlive:original.meta.attr.minor_version.markup">512</property>
  <property name="kdenlive:original.meta.attr.compatible_brands.markup">isomiso2avc1mp41</property>
  <property name="kdenlive:original.meta.attr.encoder.markup">Lavf60.3.100</property>
  <property name="kdenlive:original.meta.attr.comment.markup">Rendered with Manim Community v0.17.3</property>
  <property name="kdenlive:original.seekable">1</property>
  <property name="kdenlive:original.width">1920</property>
  <property name="kdenlive:original.height">1080</property>
  <property name="kdenlive:original.meta.media.sample_aspect_num">1</property>
  <property name="kdenlive:original.meta.media.sample_aspect_den">1</property>
  <property name="kdenlive:original.format">3</property>
  <property name="kdenlive:original.audio_index">-1</property>
  <property name="kdenlive:original.video_index">0</property>
  <property name="kdenlive:original.meta.media.frame_rate_num">60</property>
  <property name="kdenlive:original.meta.media.frame_rate_den">1</property>
  <property name="kdenlive:original.meta.media.colorspace">709</property>
  <property name="kdenlive:original.meta.media.color_trc">2</property>
  <property name="kdenlive:original.meta.media.has_b_frames">2</property>
  <property name="kdenlive:original.meta.media.width">1920</property>
  <property name="kdenlive:original.meta.media.height">1080</property>
  <property name="kdenlive:original.meta.media.color_range">mpeg</property>
  <property name="kdenlive:original.meta.media.top_field_first">0</property>
  <property name="kdenlive:original.meta.media.progressive">1</property>
  <property name="kdenlive:original.kdenlive:clip_type">2</property>
  <property name="kdenlive:original.kdenlive:folderid">16</property>
  <property name="kdenlive:original.kdenlive:id">64</property>
  <property name="kdenlive:original.mute_on_pause">0</property>
  <property name="kdenlive:original.kdenlive:file_size">57497</property>
  <property name="kdenlive:original.kdenlive:file_hash">d151f02d4dc4dc50ae196658d8c18105</property>
  <property name="kdenlive:original.backup">1</property>
  <property name="meta.media.top_field_first">0</property>
  <property name="meta.media.progressive">1</property>
 </chain>
 <chain id="chain184" out="00:00:00.983">
  <property name="length">60</property>
  <property name="eof">pause</property>
  <property name="resource">/home/xiaoxiae/.cache/kdenlive/proxy/8aff15fab5961394bf50b1ffef57d31c.mkv</property>
  <property name="mlt_service">avformat-novalidate</property>
  <property name="meta.media.nb_streams">1</property>
  <property name="meta.media.0.stream.type">video</property>
  <property name="meta.media.0.stream.frame_rate">60</property>
  <property name="meta.media.0.stream.sample_aspect_ratio">0</property>
  <property name="meta.media.0.codec.width">640</property>
  <property name="meta.media.0.codec.height">360</property>
  <property name="meta.media.0.codec.rotate">0</property>
  <property name="meta.media.0.codec.pix_fmt">yuvj420p</property>
  <property name="meta.media.0.codec.sample_aspect_ratio">0</property>
  <property name="meta.media.0.codec.colorspace">601</property>
  <property name="meta.media.0.codec.name">mjpeg</property>
  <property name="meta.media.0.codec.long_name">MJPEG (Motion JPEG)</property>
  <property name="meta.media.0.codec.bit_rate">0</property>
  <property name="meta.attr.0.stream.HANDLER_NAME.markup">VideoHandler</property>
  <property name="meta.attr.0.stream.VENDOR_ID.markup">[0][0][0][0]</property>
  <property name="meta.attr.0.stream.ENCODER.markup">Lavc60.3.100 mjpeg</property>
  <property name="meta.attr.0.stream.DURATION.markup">00:00:01.000000000</property>
  <property name="meta.attr.COMMENT.markup">Rendered with Manim Community v0.17.3</property>
  <property name="meta.attr.MAJOR_BRAND.markup">isom</property>
  <property name="meta.attr.MINOR_VERSION.markup">512</property>
  <property name="meta.attr.COMPATIBLE_BRANDS.markup">isomiso2avc1mp41</property>
  <property name="meta.attr.ENCODER.markup">Lavf60.3.100</property>
  <property name="seekable">1</property>
  <property name="meta.media.sample_aspect_num">1</property>
  <property name="meta.media.sample_aspect_den">1</property>
  <property name="format">3</property>
  <property name="audio_index">-1</property>
  <property name="video_index">0</property>
  <property name="meta.media.frame_rate_num">60</property>
  <property name="meta.media.frame_rate_den">1</property>
  <property name="meta.media.colorspace">601</property>
  <property name="meta.media.color_trc">2</property>
  <property name="meta.media.has_b_frames">0</property>
  <property name="meta.media.width">640</property>
  <property name="meta.media.height">360</property>
  <property name="meta.media.color_range">full</property>
  <property name="kdenlive:clipname">142.mp4</property>
  <property name="kdenlive:clip_type">2</property>
  <property name="kdenlive:folderid">16</property>
  <property name="kdenlive:id">65</property>
  <property name="mute_on_pause">0</property>
  <property name="kdenlive:file_size">58174</property>
  <property name="kdenlive:file_hash">8aff15fab5961394bf50b1ffef57d31c</property>
  <property name="kdenlive:proxy">/home/xiaoxiae/.cache/kdenlive/proxy/8aff15fab5961394bf50b1ffef57d31c.mkv</property>
  <property name="kdenlive:originalurl">video/Farmer/142.mp4</property>
  <property name="kdenlive:original.mlt_type">chain</property>
  <property name="kdenlive:original.in">0</property>
  <property name="kdenlive:original.out">00:00:00.983</property>
  <property name="kdenlive:original.length">60</property>
  <property name="kdenlive:original.eof">pause</property>
  <property name="kdenlive:original.resource">video/Farmer/142.mp4</property>
  <property name="kdenlive:original.mlt_service">avformat-novalidate</property>
  <property name="kdenlive:original.meta.media.nb_streams">1</property>
  <property name="kdenlive:original.meta.media.0.stream.type">video</property>
  <property name="kdenlive:original.meta.media.0.stream.frame_rate">60</property>
  <property name="kdenlive:original.meta.media.0.stream.sample_aspect_ratio">0</property>
  <property name="kdenlive:original.meta.media.0.codec.width">1920</property>
  <property name="kdenlive:original.meta.media.0.codec.height">1080</property>
  <property name="kdenlive:original.meta.media.0.codec.rotate">0</property>
  <property name="kdenlive:original.meta.media.0.codec.pix_fmt">yuv420p</property>
  <property name="kdenlive:original.meta.media.0.codec.sample_aspect_ratio">0</property>
  <property name="kdenlive:original.meta.media.0.codec.colorspace">709</property>
  <property name="kdenlive:original.meta.media.0.codec.name">h264</property>
  <property name="kdenlive:original.meta.media.0.codec.long_name">H.264 / AVC / MPEG-4 AVC / MPEG-4 part 10</property>
  <property name="kdenlive:original.meta.media.0.codec.bit_rate">452336</property>
  <property name="kdenlive:original.meta.attr.0.stream.handler_name.markup">VideoHandler</property>
  <property name="kdenlive:original.meta.attr.0.stream.vendor_id.markup">[0][0][0][0]</property>
  <property name="kdenlive:original.meta.attr.0.stream.encoder.markup">Lavc60.3.100 libx264</property>
  <property name="kdenlive:original.meta.attr.major_brand.markup">isom</property>
  <property name="kdenlive:original.meta.attr.minor_version.markup">512</property>
  <property name="kdenlive:original.meta.attr.compatible_brands.markup">isomiso2avc1mp41</property>
  <property name="kdenlive:original.meta.attr.encoder.markup">Lavf60.3.100</property>
  <property name="kdenlive:original.meta.attr.comment.markup">Rendered with Manim Community v0.17.3</property>
  <property name="kdenlive:original.seekable">1</property>
  <property name="kdenlive:original.width">1920</property>
  <property name="kdenlive:original.height">1080</property>
  <property name="kdenlive:original.meta.media.sample_aspect_num">1</property>
  <property name="kdenlive:original.meta.media.sample_aspect_den">1</property>
  <property name="kdenlive:original.format">3</property>
  <property name="kdenlive:original.audio_index">-1</property>
  <property name="kdenlive:original.video_index">0</property>
  <property name="kdenlive:original.meta.media.frame_rate_num">60</property>
  <property name="kdenlive:original.meta.media.frame_rate_den">1</property>
  <property name="kdenlive:original.meta.media.colorspace">709</property>
  <property name="kdenlive:original.meta.media.color_trc">2</property>
  <property name="kdenlive:original.meta.media.has_b_frames">2</property>
  <property name="kdenlive:original.meta.media.width">1920</property>
  <property name="kdenlive:original.meta.media.height">1080</property>
  <property name="kdenlive:original.meta.media.color_range">mpeg</property>
  <property name="kdenlive:original.meta.media.top_field_first">0</property>
  <property name="kdenlive:original.meta.media.progressive">1</property>
  <property name="kdenlive:original.kdenlive:clip_type">2</property>
  <property name="kdenlive:original.kdenlive:folderid">16</property>
  <property name="kdenlive:original.kdenlive:id">65</property>
  <property name="kdenlive:original.mute_on_pause">0</property>
  <property name="kdenlive:original.kdenlive:file_size">58174</property>
  <property name="kdenlive:original.kdenlive:file_hash">8aff15fab5961394bf50b1ffef57d31c</property>
  <property name="kdenlive:original.backup">1</property>
  <property name="meta.media.top_field_first">0</property>
  <property name="meta.media.progressive">1</property>
 </chain>
 <chain id="chain185" out="00:00:00.983">
  <property name="length">60</property>
  <property name="eof">pause</property>
  <property name="resource">/home/xiaoxiae/.cache/kdenlive/proxy/92457d3922927e3534fbf3fed67105e9.mkv</property>
  <property name="mlt_service">avformat-novalidate</property>
  <property name="meta.media.nb_streams">1</property>
  <property name="meta.media.0.stream.type">video</property>
  <property name="meta.media.0.stream.frame_rate">60</property>
  <property name="meta.media.0.stream.sample_aspect_ratio">0</property>
  <property name="meta.media.0.codec.width">640</property>
  <property name="meta.media.0.codec.height">360</property>
  <property name="meta.media.0.codec.rotate">0</property>
  <property name="meta.media.0.codec.pix_fmt">yuvj420p</property>
  <property name="meta.media.0.codec.sample_aspect_ratio">0</property>
  <property name="meta.media.0.codec.colorspace">601</property>
  <property name="meta.media.0.codec.name">mjpeg</property>
  <property name="meta.media.0.codec.long_name">MJPEG (Motion JPEG)</property>
  <property name="meta.media.0.codec.bit_rate">0</property>
  <property name="meta.attr.0.stream.HANDLER_NAME.markup">VideoHandler</property>
  <property name="meta.attr.0.stream.VENDOR_ID.markup">[0][0][0][0]</property>
  <property name="meta.attr.0.stream.ENCODER.markup">Lavc60.3.100 mjpeg</property>
  <property name="meta.attr.0.stream.DURATION.markup">00:00:01.000000000</property>
  <property name="meta.attr.COMMENT.markup">Rendered with Manim Community v0.17.3</property>
  <property name="meta.attr.MAJOR_BRAND.markup">isom</property>
  <property name="meta.attr.MINOR_VERSION.markup">512</property>
  <property name="meta.attr.COMPATIBLE_BRANDS.markup">isomiso2avc1mp41</property>
  <property name="meta.attr.ENCODER.markup">Lavf60.3.100</property>
  <property name="seekable">1</property>
  <property name="meta.media.sample_aspect_num">1</property>
  <property name="meta.media.sample_aspect_den">1</property>
  <property name="format">3</property>
  <property name="audio_index">-1</property>
  <property name="video_index">0</property>
  <property name="meta.media.frame_rate_num">60</property>
  <property name="meta.media.frame_rate_den">1</property>
  <property name="meta.media.colorspace">601</property>
  <property name="meta.media.color_trc">2</property>
  <property name="meta.media.has_b_frames">0</property>
  <property name="meta.media.width">640</property>
  <property name="meta.media.height">360</property>
  <property name="meta.media.color_range">full</property>
  <property name="kdenlive:clipname">143.mp4</property>
  <property name="kdenlive:clip_type">2</property>
  <property name="kdenlive:folderid">16</property>
  <property name="kdenlive:id">66</property>
  <property name="mute_on_pause">0</property>
  <property name="kdenlive:file_size">59446</property>
  <property name="kdenlive:file_hash">92457d3922927e3534fbf3fed67105e9</property>
  <property name="kdenlive:proxy">/home/xiaoxiae/.cache/kdenlive/proxy/92457d3922927e3534fbf3fed67105e9.mkv</property>
  <property name="kdenlive:originalurl">video/Farmer/143.mp4</property>
  <property name="kdenlive:original.mlt_type">chain</property>
  <property name="kdenlive:original.in">0</property>
  <property name="kdenlive:original.out">00:00:00.983</property>
  <property name="kdenlive:original.length">60</property>
  <property name="kdenlive:original.eof">pause</property>
  <property name="kdenlive:original.resource">video/Farmer/143.mp4</property>
  <property name="kdenlive:original.mlt_service">avformat-novalidate</property>
  <property name="kdenlive:original.meta.media.nb_streams">1</property>
  <property name="kdenlive:original.meta.media.0.stream.type">video</property>
  <property name="kdenlive:original.meta.media.0.stream.frame_rate">60</property>
  <property name="kdenlive:original.meta.media.0.stream.sample_aspect_ratio">0</property>
  <property name="kdenlive:original.meta.media.0.codec.width">1920</property>
  <property name="kdenlive:original.meta.media.0.codec.height">1080</property>
  <property name="kdenlive:original.meta.media.0.codec.rotate">0</property>
  <property name="kdenlive:original.meta.media.0.codec.pix_fmt">yuv420p</property>
  <property name="kdenlive:original.meta.media.0.codec.sample_aspect_ratio">0</property>
  <property name="kdenlive:original.meta.media.0.codec.colorspace">709</property>
  <property name="kdenlive:original.meta.media.0.codec.name">h264</property>
  <property name="kdenlive:original.meta.media.0.codec.long_name">H.264 / AVC / MPEG-4 AVC / MPEG-4 part 10</property>
  <property name="kdenlive:original.meta.media.0.codec.bit_rate">462512</property>
  <property name="kdenlive:original.meta.attr.0.stream.handler_name.markup">VideoHandler</property>
  <property name="kdenlive:original.meta.attr.0.stream.vendor_id.markup">[0][0][0][0]</property>
  <property name="kdenlive:original.meta.attr.0.stream.encoder.markup">Lavc60.3.100 libx264</property>
  <property name="kdenlive:original.meta.attr.major_brand.markup">isom</property>
  <property name="kdenlive:original.meta.attr.minor_version.markup">512</property>
  <property name="kdenlive:original.meta.attr.compatible_brands.markup">isomiso2avc1mp41</property>
  <property name="kdenlive:original.meta.attr.encoder.markup">Lavf60.3.100</property>
  <property name="kdenlive:original.meta.attr.comment.markup">Rendered with Manim Community v0.17.3</property>
  <property name="kdenlive:original.seekable">1</property>
  <property name="kdenlive:original.width">1920</property>
  <property name="kdenlive:original.height">1080</property>
  <property name="kdenlive:original.meta.media.sample_aspect_num">1</property>
  <property name="kdenlive:original.meta.media.sample_aspect_den">1</property>
  <property name="kdenlive:original.format">3</property>
  <property name="kdenlive:original.audio_index">-1</property>
  <property name="kdenlive:original.video_index">0</property>
  <property name="kdenlive:original.meta.media.frame_rate_num">60</property>
  <property name="kdenlive:original.meta.media.frame_rate_den">1</property>
  <property name="kdenlive:original.meta.media.colorspace">709</property>
  <property name="kdenlive:original.meta.media.color_trc">2</property>
  <property name="kdenlive:original.meta.media.has_b_frames">2</property>
  <property name="kdenlive:original.meta.media.width">1920</property>
  <property name="kdenlive:original.meta.media.height">1080</property>
  <property name="kdenlive:original.meta.media.color_range">mpeg</property>
  <property name="kdenlive:original.meta.media.top_field_first">0</property>
  <property name="kdenlive:original.meta.media.progressive">1</property>
  <property name="kdenlive:original.kdenlive:clip_type">2</property>
  <property name="kdenlive:original.kdenlive:folderid">16</property>
  <property name="kdenlive:original.kdenlive:id">66</property>
  <property name="kdenlive:original.mute_on_pause">0</property>
  <property name="kdenlive:original.kdenlive:file_size">59446</property>
  <property name="kdenlive:original.kdenlive:file_hash">92457d3922927e3534fbf3fed67105e9</property>
  <property name="kdenlive:original.backup">1</property>
  <property name="meta.media.top_field_first">0</property>
  <property name="meta.media.progressive">1</property>
 </chain>
 <chain id="chain182" out="00:00:01.483">
  <property name="length">90</property>
  <property name="eof">pause</property>
  <property name="resource">/home/xiaoxiae/.cache/kdenlive/proxy/3cc32b1fdd31d962d7a2f80e36b057bc.mkv</property>
  <property name="mlt_service">avformat-novalidate</property>
  <property name="meta.media.nb_streams">1</property>
  <property name="meta.media.0.stream.type">video</property>
  <property name="meta.media.0.stream.frame_rate">60</property>
  <property name="meta.media.0.stream.sample_aspect_ratio">0</property>
  <property name="meta.media.0.codec.width">640</property>
  <property name="meta.media.0.codec.height">360</property>
  <property name="meta.media.0.codec.rotate">0</property>
  <property name="meta.media.0.codec.pix_fmt">yuvj420p</property>
  <property name="meta.media.0.codec.sample_aspect_ratio">0</property>
  <property name="meta.media.0.codec.colorspace">601</property>
  <property name="meta.media.0.codec.name">mjpeg</property>
  <property name="meta.media.0.codec.long_name">MJPEG (Motion JPEG)</property>
  <property name="meta.media.0.codec.bit_rate">0</property>
  <property name="meta.attr.0.stream.HANDLER_NAME.markup">VideoHandler</property>
  <property name="meta.attr.0.stream.VENDOR_ID.markup">[0][0][0][0]</property>
  <property name="meta.attr.0.stream.ENCODER.markup">Lavc60.3.100 mjpeg</property>
  <property name="meta.attr.0.stream.DURATION.markup">00:00:01.500000000</property>
  <property name="meta.attr.COMMENT.markup">Rendered with Manim Community v0.17.3</property>
  <property name="meta.attr.MAJOR_BRAND.markup">isom</property>
  <property name="meta.attr.MINOR_VERSION.markup">512</property>
  <property name="meta.attr.COMPATIBLE_BRANDS.markup">isomiso2avc1mp41</property>
  <property name="meta.attr.ENCODER.markup">Lavf60.3.100</property>
  <property name="seekable">1</property>
  <property name="meta.media.sample_aspect_num">1</property>
  <property name="meta.media.sample_aspect_den">1</property>
  <property name="format">3</property>
  <property name="audio_index">-1</property>
  <property name="video_index">0</property>
  <property name="meta.media.frame_rate_num">60</property>
  <property name="meta.media.frame_rate_den">1</property>
  <property name="meta.media.colorspace">601</property>
  <property name="meta.media.color_trc">2</property>
  <property name="meta.media.has_b_frames">0</property>
  <property name="meta.media.width">640</property>
  <property name="meta.media.height">360</property>
  <property name="meta.media.color_range">full</property>
  <property name="kdenlive:clipname">144.mp4</property>
  <property name="kdenlive:clip_type">2</property>
  <property name="kdenlive:folderid">16</property>
  <property name="kdenlive:id">67</property>
  <property name="mute_on_pause">0</property>
  <property name="kdenlive:file_size">96542</property>
  <property name="kdenlive:file_hash">3cc32b1fdd31d962d7a2f80e36b057bc</property>
  <property name="kdenlive:proxy">/home/xiaoxiae/.cache/kdenlive/proxy/3cc32b1fdd31d962d7a2f80e36b057bc.mkv</property>
  <property name="kdenlive:originalurl">video/Farmer/144.mp4</property>
  <property name="kdenlive:original.mlt_type">chain</property>
  <property name="kdenlive:original.in">0</property>
  <property name="kdenlive:original.out">00:00:01.483</property>
  <property name="kdenlive:original.length">90</property>
  <property name="kdenlive:original.eof">pause</property>
  <property name="kdenlive:original.resource">video/Farmer/144.mp4</property>
  <property name="kdenlive:original.mlt_service">avformat-novalidate</property>
  <property name="kdenlive:original.meta.media.nb_streams">1</property>
  <property name="kdenlive:original.meta.media.0.stream.type">video</property>
  <property name="kdenlive:original.meta.media.0.stream.frame_rate">60</property>
  <property name="kdenlive:original.meta.media.0.stream.sample_aspect_ratio">0</property>
  <property name="kdenlive:original.meta.media.0.codec.width">1920</property>
  <property name="kdenlive:original.meta.media.0.codec.height">1080</property>
  <property name="kdenlive:original.meta.media.0.codec.rotate">0</property>
  <property name="kdenlive:original.meta.media.0.codec.pix_fmt">yuv420p</property>
  <property name="kdenlive:original.meta.media.0.codec.sample_aspect_ratio">0</property>
  <property name="kdenlive:original.meta.media.0.codec.colorspace">709</property>
  <property name="kdenlive:original.meta.media.0.codec.name">h264</property>
  <property name="kdenlive:original.meta.media.0.codec.long_name">H.264 / AVC / MPEG-4 AVC / MPEG-4 part 10</property>
  <property name="kdenlive:original.meta.media.0.codec.bit_rate">504693</property>
  <property name="kdenlive:original.meta.attr.0.stream.handler_name.markup">VideoHandler</property>
  <property name="kdenlive:original.meta.attr.0.stream.vendor_id.markup">[0][0][0][0]</property>
  <property name="kdenlive:original.meta.attr.0.stream.encoder.markup">Lavc60.3.100 libx264</property>
  <property name="kdenlive:original.meta.attr.major_brand.markup">isom</property>
  <property name="kdenlive:original.meta.attr.minor_version.markup">512</property>
  <property name="kdenlive:original.meta.attr.compatible_brands.markup">isomiso2avc1mp41</property>
  <property name="kdenlive:original.meta.attr.encoder.markup">Lavf60.3.100</property>
  <property name="kdenlive:original.meta.attr.comment.markup">Rendered with Manim Community v0.17.3</property>
  <property name="kdenlive:original.seekable">1</property>
  <property name="kdenlive:original.width">1920</property>
  <property name="kdenlive:original.height">1080</property>
  <property name="kdenlive:original.meta.media.sample_aspect_num">1</property>
  <property name="kdenlive:original.meta.media.sample_aspect_den">1</property>
  <property name="kdenlive:original.format">3</property>
  <property name="kdenlive:original.audio_index">-1</property>
  <property name="kdenlive:original.video_index">0</property>
  <property name="kdenlive:original.meta.media.frame_rate_num">60</property>
  <property name="kdenlive:original.meta.media.frame_rate_den">1</property>
  <property name="kdenlive:original.meta.media.colorspace">709</property>
  <property name="kdenlive:original.meta.media.color_trc">2</property>
  <property name="kdenlive:original.meta.media.has_b_frames">2</property>
  <property name="kdenlive:original.meta.media.width">1920</property>
  <property name="kdenlive:original.meta.media.height">1080</property>
  <property name="kdenlive:original.meta.media.color_range">mpeg</property>
  <property name="kdenlive:original.meta.media.top_field_first">0</property>
  <property name="kdenlive:original.meta.media.progressive">1</property>
  <property name="kdenlive:original.kdenlive:clip_type">2</property>
  <property name="kdenlive:original.kdenlive:folderid">16</property>
  <property name="kdenlive:original.kdenlive:id">67</property>
  <property name="kdenlive:original.mute_on_pause">0</property>
  <property name="kdenlive:original.kdenlive:file_size">96542</property>
  <property name="kdenlive:original.kdenlive:file_hash">3cc32b1fdd31d962d7a2f80e36b057bc</property>
  <property name="kdenlive:original.backup">1</property>
  <property name="meta.media.top_field_first">0</property>
  <property name="meta.media.progressive">1</property>
 </chain>
 <chain id="chain180" out="00:00:00.983">
  <property name="length">60</property>
  <property name="eof">pause</property>
  <property name="resource">/home/xiaoxiae/.cache/kdenlive/proxy/70ff89ebb494ae40dac75bd6c3bb65d9.mkv</property>
  <property name="mlt_service">avformat-novalidate</property>
  <property name="meta.media.nb_streams">1</property>
  <property name="meta.media.0.stream.type">video</property>
  <property name="meta.media.0.stream.frame_rate">60</property>
  <property name="meta.media.0.stream.sample_aspect_ratio">0</property>
  <property name="meta.media.0.codec.width">640</property>
  <property name="meta.media.0.codec.height">360</property>
  <property name="meta.media.0.codec.rotate">0</property>
  <property name="meta.media.0.codec.pix_fmt">yuvj420p</property>
  <property name="meta.media.0.codec.sample_aspect_ratio">0</property>
  <property name="meta.media.0.codec.colorspace">601</property>
  <property name="meta.media.0.codec.name">mjpeg</property>
  <property name="meta.media.0.codec.long_name">MJPEG (Motion JPEG)</property>
  <property name="meta.media.0.codec.bit_rate">0</property>
  <property name="meta.attr.0.stream.HANDLER_NAME.markup">VideoHandler</property>
  <property name="meta.attr.0.stream.VENDOR_ID.markup">[0][0][0][0]</property>
  <property name="meta.attr.0.stream.ENCODER.markup">Lavc60.3.100 mjpeg</property>
  <property name="meta.attr.0.stream.DURATION.markup">00:00:01.000000000</property>
  <property name="meta.attr.COMMENT.markup">Rendered with Manim Community v0.17.3</property>
  <property name="meta.attr.MAJOR_BRAND.markup">isom</property>
  <property name="meta.attr.MINOR_VERSION.markup">512</property>
  <property name="meta.attr.COMPATIBLE_BRANDS.markup">isomiso2avc1mp41</property>
  <property name="meta.attr.ENCODER.markup">Lavf60.3.100</property>
  <property name="seekable">1</property>
  <property name="meta.media.sample_aspect_num">1</property>
  <property name="meta.media.sample_aspect_den">1</property>
  <property name="format">3</property>
  <property name="audio_index">-1</property>
  <property name="video_index">0</property>
  <property name="meta.media.frame_rate_num">60</property>
  <property name="meta.media.frame_rate_den">1</property>
  <property name="meta.media.colorspace">601</property>
  <property name="meta.media.color_trc">2</property>
  <property name="meta.media.has_b_frames">0</property>
  <property name="meta.media.width">640</property>
  <property name="meta.media.height">360</property>
  <property name="meta.media.color_range">full</property>
  <property name="kdenlive:clipname">145.mp4</property>
  <property name="kdenlive:clip_type">2</property>
  <property name="kdenlive:folderid">16</property>
  <property name="kdenlive:id">68</property>
  <property name="mute_on_pause">0</property>
  <property name="kdenlive:file_size">65724</property>
  <property name="kdenlive:file_hash">70ff89ebb494ae40dac75bd6c3bb65d9</property>
  <property name="kdenlive:proxy">/home/xiaoxiae/.cache/kdenlive/proxy/70ff89ebb494ae40dac75bd6c3bb65d9.mkv</property>
  <property name="kdenlive:originalurl">video/Farmer/145.mp4</property>
  <property name="kdenlive:original.mlt_type">chain</property>
  <property name="kdenlive:original.in">0</property>
  <property name="kdenlive:original.out">00:00:00.983</property>
  <property name="kdenlive:original.length">60</property>
  <property name="kdenlive:original.eof">pause</property>
  <property name="kdenlive:original.resource">video/Farmer/145.mp4</property>
  <property name="kdenlive:original.mlt_service">avformat-novalidate</property>
  <property name="kdenlive:original.meta.media.nb_streams">1</property>
  <property name="kdenlive:original.meta.media.0.stream.type">video</property>
  <property name="kdenlive:original.meta.media.0.stream.frame_rate">60</property>
  <property name="kdenlive:original.meta.media.0.stream.sample_aspect_ratio">0</property>
  <property name="kdenlive:original.meta.media.0.codec.width">1920</property>
  <property name="kdenlive:original.meta.media.0.codec.height">1080</property>
  <property name="kdenlive:original.meta.media.0.codec.rotate">0</property>
  <property name="kdenlive:original.meta.media.0.codec.pix_fmt">yuv420p</property>
  <property name="kdenlive:original.meta.media.0.codec.sample_aspect_ratio">0</property>
  <property name="kdenlive:original.meta.media.0.codec.colorspace">709</property>
  <property name="kdenlive:original.meta.media.0.codec.name">h264</property>
  <property name="kdenlive:original.meta.media.0.codec.long_name">H.264 / AVC / MPEG-4 AVC / MPEG-4 part 10</property>
  <property name="kdenlive:original.meta.media.0.codec.bit_rate">512736</property>
  <property name="kdenlive:original.meta.attr.0.stream.handler_name.markup">VideoHandler</property>
  <property name="kdenlive:original.meta.attr.0.stream.vendor_id.markup">[0][0][0][0]</property>
  <property name="kdenlive:original.meta.attr.0.stream.encoder.markup">Lavc60.3.100 libx264</property>
  <property name="kdenlive:original.meta.attr.major_brand.markup">isom</property>
  <property name="kdenlive:original.meta.attr.minor_version.markup">512</property>
  <property name="kdenlive:original.meta.attr.compatible_brands.markup">isomiso2avc1mp41</property>
  <property name="kdenlive:original.meta.attr.encoder.markup">Lavf60.3.100</property>
  <property name="kdenlive:original.meta.attr.comment.markup">Rendered with Manim Community v0.17.3</property>
  <property name="kdenlive:original.seekable">1</property>
  <property name="kdenlive:original.width">1920</property>
  <property name="kdenlive:original.height">1080</property>
  <property name="kdenlive:original.meta.media.sample_aspect_num">1</property>
  <property name="kdenlive:original.meta.media.sample_aspect_den">1</property>
  <property name="kdenlive:original.format">3</property>
  <property name="kdenlive:original.audio_index">-1</property>
  <property name="kdenlive:original.video_index">0</property>
  <property name="kdenlive:original.meta.media.frame_rate_num">60</property>
  <property name="kdenlive:original.meta.media.frame_rate_den">1</property>
  <property name="kdenlive:original.meta.media.colorspace">709</property>
  <property name="kdenlive:original.meta.media.color_trc">2</property>
  <property name="kdenlive:original.meta.media.has_b_frames">2</property>
  <property name="kdenlive:original.meta.media.width">1920</property>
  <property name="kdenlive:original.meta.media.height">1080</property>
  <property name="kdenlive:original.meta.media.color_range">mpeg</property>
  <property name="kdenlive:original.meta.media.top_field_first">0</property>
  <property name="kdenlive:original.meta.media.progressive">1</property>
  <property name="kdenlive:original.kdenlive:clip_type">2</property>
  <property name="kdenlive:original.kdenlive:folderid">16</property>
  <property name="kdenlive:original.kdenlive:id">68</property>
  <property name="kdenlive:original.mute_on_pause">0</property>
  <property name="kdenlive:original.kdenlive:file_size">65724</property>
  <property name="kdenlive:original.kdenlive:file_hash">70ff89ebb494ae40dac75bd6c3bb65d9</property>
  <property name="kdenlive:original.backup">1</property>
  <property name="meta.media.top_field_first">0</property>
  <property name="meta.media.progressive">1</property>
 </chain>
 <chain id="chain177" out="00:00:00.983">
  <property name="length">60</property>
  <property name="eof">pause</property>
  <property name="resource">/home/xiaoxiae/.cache/kdenlive/proxy/821648d89194557331d06bd4f2184f7f.mkv</property>
  <property name="mlt_service">avformat-novalidate</property>
  <property name="meta.media.nb_streams">1</property>
  <property name="meta.media.0.stream.type">video</property>
  <property name="meta.media.0.stream.frame_rate">60</property>
  <property name="meta.media.0.stream.sample_aspect_ratio">0</property>
  <property name="meta.media.0.codec.width">640</property>
  <property name="meta.media.0.codec.height">360</property>
  <property name="meta.media.0.codec.rotate">0</property>
  <property name="meta.media.0.codec.pix_fmt">yuvj420p</property>
  <property name="meta.media.0.codec.sample_aspect_ratio">0</property>
  <property name="meta.media.0.codec.colorspace">601</property>
  <property name="meta.media.0.codec.name">mjpeg</property>
  <property name="meta.media.0.codec.long_name">MJPEG (Motion JPEG)</property>
  <property name="meta.media.0.codec.bit_rate">0</property>
  <property name="meta.attr.0.stream.HANDLER_NAME.markup">VideoHandler</property>
  <property name="meta.attr.0.stream.VENDOR_ID.markup">[0][0][0][0]</property>
  <property name="meta.attr.0.stream.ENCODER.markup">Lavc60.3.100 mjpeg</property>
  <property name="meta.attr.0.stream.DURATION.markup">00:00:01.000000000</property>
  <property name="meta.attr.COMMENT.markup">Rendered with Manim Community v0.17.3</property>
  <property name="meta.attr.MAJOR_BRAND.markup">isom</property>
  <property name="meta.attr.MINOR_VERSION.markup">512</property>
  <property name="meta.attr.COMPATIBLE_BRANDS.markup">isomiso2avc1mp41</property>
  <property name="meta.attr.ENCODER.markup">Lavf60.3.100</property>
  <property name="seekable">1</property>
  <property name="meta.media.sample_aspect_num">1</property>
  <property name="meta.media.sample_aspect_den">1</property>
  <property name="format">3</property>
  <property name="audio_index">-1</property>
  <property name="video_index">0</property>
  <property name="meta.media.frame_rate_num">60</property>
  <property name="meta.media.frame_rate_den">1</property>
  <property name="meta.media.colorspace">601</property>
  <property name="meta.media.color_trc">2</property>
  <property name="meta.media.has_b_frames">0</property>
  <property name="meta.media.width">640</property>
  <property name="meta.media.height">360</property>
  <property name="meta.media.color_range">full</property>
  <property name="kdenlive:clipname">146.mp4</property>
  <property name="kdenlive:clip_type">2</property>
  <property name="kdenlive:folderid">16</property>
  <property name="kdenlive:id">69</property>
  <property name="mute_on_pause">0</property>
  <property name="kdenlive:file_size">78974</property>
  <property name="kdenlive:file_hash">821648d89194557331d06bd4f2184f7f</property>
  <property name="kdenlive:proxy">/home/xiaoxiae/.cache/kdenlive/proxy/821648d89194557331d06bd4f2184f7f.mkv</property>
  <property name="kdenlive:originalurl">video/Farmer/146.mp4</property>
  <property name="kdenlive:original.mlt_type">chain</property>
  <property name="kdenlive:original.in">0</property>
  <property name="kdenlive:original.out">00:00:00.983</property>
  <property name="kdenlive:original.length">60</property>
  <property name="kdenlive:original.eof">pause</property>
  <property name="kdenlive:original.resource">video/Farmer/146.mp4</property>
  <property name="kdenlive:original.mlt_service">avformat-novalidate</property>
  <property name="kdenlive:original.meta.media.nb_streams">1</property>
  <property name="kdenlive:original.meta.media.0.stream.type">video</property>
  <property name="kdenlive:original.meta.media.0.stream.frame_rate">60</property>
  <property name="kdenlive:original.meta.media.0.stream.sample_aspect_ratio">0</property>
  <property name="kdenlive:original.meta.media.0.codec.width">1920</property>
  <property name="kdenlive:original.meta.media.0.codec.height">1080</property>
  <property name="kdenlive:original.meta.media.0.codec.rotate">0</property>
  <property name="kdenlive:original.meta.media.0.codec.pix_fmt">yuv420p</property>
  <property name="kdenlive:original.meta.media.0.codec.sample_aspect_ratio">0</property>
  <property name="kdenlive:original.meta.media.0.codec.colorspace">709</property>
  <property name="kdenlive:original.meta.media.0.codec.name">h264</property>
  <property name="kdenlive:original.meta.media.0.codec.long_name">H.264 / AVC / MPEG-4 AVC / MPEG-4 part 10</property>
  <property name="kdenlive:original.meta.media.0.codec.bit_rate">618736</property>
  <property name="kdenlive:original.meta.attr.0.stream.handler_name.markup">VideoHandler</property>
  <property name="kdenlive:original.meta.attr.0.stream.vendor_id.markup">[0][0][0][0]</property>
  <property name="kdenlive:original.meta.attr.0.stream.encoder.markup">Lavc60.3.100 libx264</property>
  <property name="kdenlive:original.meta.attr.major_brand.markup">isom</property>
  <property name="kdenlive:original.meta.attr.minor_version.markup">512</property>
  <property name="kdenlive:original.meta.attr.compatible_brands.markup">isomiso2avc1mp41</property>
  <property name="kdenlive:original.meta.attr.encoder.markup">Lavf60.3.100</property>
  <property name="kdenlive:original.meta.attr.comment.markup">Rendered with Manim Community v0.17.3</property>
  <property name="kdenlive:original.seekable">1</property>
  <property name="kdenlive:original.width">1920</property>
  <property name="kdenlive:original.height">1080</property>
  <property name="kdenlive:original.meta.media.sample_aspect_num">1</property>
  <property name="kdenlive:original.meta.media.sample_aspect_den">1</property>
  <property name="kdenlive:original.format">3</property>
  <property name="kdenlive:original.audio_index">-1</property>
  <property name="kdenlive:original.video_index">0</property>
  <property name="kdenlive:original.meta.media.frame_rate_num">60</property>
  <property name="kdenlive:original.meta.media.frame_rate_den">1</property>
  <property name="kdenlive:original.meta.media.colorspace">709</property>
  <property name="kdenlive:original.meta.media.color_trc">2</property>
  <property name="kdenlive:original.meta.media.has_b_frames">2</property>
  <property name="kdenlive:original.meta.media.width">1920</property>
  <property name="kdenlive:original.meta.media.height">1080</property>
  <property name="kdenlive:original.meta.media.color_range">mpeg</property>
  <property name="kdenlive:original.meta.media.top_field_first">0</property>
  <property name="kdenlive:original.meta.media.progressive">1</property>
  <property name="kdenlive:original.kdenlive:clip_type">2</property>
  <property name="kdenlive:original.kdenlive:folderid">16</property>
  <property name="kdenlive:original.kdenlive:id">69</property>
  <property name="kdenlive:original.mute_on_pause">0</property>
  <property name="kdenlive:original.kdenlive:file_size">78974</property>
  <property name="kdenlive:original.kdenlive:file_hash">821648d89194557331d06bd4f2184f7f</property>
  <property name="kdenlive:original.backup">1</property>
  <property name="meta.media.top_field_first">0</property>
  <property name="meta.media.progressive">1</property>
 </chain>
 <chain id="chain176" out="00:00:00.983">
  <property name="length">60</property>
  <property name="eof">pause</property>
  <property name="resource">/home/xiaoxiae/.cache/kdenlive/proxy/b1ab0f060b88d188f09dfbaa8a44f35c.mkv</property>
  <property name="mlt_service">avformat-novalidate</property>
  <property name="meta.media.nb_streams">1</property>
  <property name="meta.media.0.stream.type">video</property>
  <property name="meta.media.0.stream.frame_rate">60</property>
  <property name="meta.media.0.stream.sample_aspect_ratio">0</property>
  <property name="meta.media.0.codec.width">640</property>
  <property name="meta.media.0.codec.height">360</property>
  <property name="meta.media.0.codec.rotate">0</property>
  <property name="meta.media.0.codec.pix_fmt">yuvj420p</property>
  <property name="meta.media.0.codec.sample_aspect_ratio">0</property>
  <property name="meta.media.0.codec.colorspace">601</property>
  <property name="meta.media.0.codec.name">mjpeg</property>
  <property name="meta.media.0.codec.long_name">MJPEG (Motion JPEG)</property>
  <property name="meta.media.0.codec.bit_rate">0</property>
  <property name="meta.attr.0.stream.HANDLER_NAME.markup">VideoHandler</property>
  <property name="meta.attr.0.stream.VENDOR_ID.markup">[0][0][0][0]</property>
  <property name="meta.attr.0.stream.ENCODER.markup">Lavc60.3.100 mjpeg</property>
  <property name="meta.attr.0.stream.DURATION.markup">00:00:01.000000000</property>
  <property name="meta.attr.COMMENT.markup">Rendered with Manim Community v0.17.3</property>
  <property name="meta.attr.MAJOR_BRAND.markup">isom</property>
  <property name="meta.attr.MINOR_VERSION.markup">512</property>
  <property name="meta.attr.COMPATIBLE_BRANDS.markup">isomiso2avc1mp41</property>
  <property name="meta.attr.ENCODER.markup">Lavf60.3.100</property>
  <property name="seekable">1</property>
  <property name="meta.media.sample_aspect_num">1</property>
  <property name="meta.media.sample_aspect_den">1</property>
  <property name="format">3</property>
  <property name="audio_index">-1</property>
  <property name="video_index">0</property>
  <property name="meta.media.frame_rate_num">60</property>
  <property name="meta.media.frame_rate_den">1</property>
  <property name="meta.media.colorspace">601</property>
  <property name="meta.media.color_trc">2</property>
  <property name="meta.media.has_b_frames">0</property>
  <property name="meta.media.width">640</property>
  <property name="meta.media.height">360</property>
  <property name="meta.media.color_range">full</property>
  <property name="kdenlive:clipname">147.mp4</property>
  <property name="kdenlive:clip_type">2</property>
  <property name="kdenlive:folderid">16</property>
  <property name="kdenlive:id">70</property>
  <property name="mute_on_pause">0</property>
  <property name="kdenlive:file_size">224780</property>
  <property name="kdenlive:file_hash">b1ab0f060b88d188f09dfbaa8a44f35c</property>
  <property name="kdenlive:proxy">/home/xiaoxiae/.cache/kdenlive/proxy/b1ab0f060b88d188f09dfbaa8a44f35c.mkv</property>
  <property name="kdenlive:originalurl">video/Farmer/147.mp4</property>
  <property name="kdenlive:original.mlt_type">chain</property>
  <property name="kdenlive:original.in">0</property>
  <property name="kdenlive:original.out">00:00:00.983</property>
  <property name="kdenlive:original.length">60</property>
  <property name="kdenlive:original.eof">pause</property>
  <property name="kdenlive:original.resource">video/Farmer/147.mp4</property>
  <property name="kdenlive:original.mlt_service">avformat-novalidate</property>
  <property name="kdenlive:original.meta.media.nb_streams">1</property>
  <property name="kdenlive:original.meta.media.0.stream.type">video</property>
  <property name="kdenlive:original.meta.media.0.stream.frame_rate">60</property>
  <property name="kdenlive:original.meta.media.0.stream.sample_aspect_ratio">0</property>
  <property name="kdenlive:original.meta.media.0.codec.width">1920</property>
  <property name="kdenlive:original.meta.media.0.codec.height">1080</property>
  <property name="kdenlive:original.meta.media.0.codec.rotate">0</property>
  <property name="kdenlive:original.meta.media.0.codec.pix_fmt">yuv420p</property>
  <property name="kdenlive:original.meta.media.0.codec.sample_aspect_ratio">0</property>
  <property name="kdenlive:original.meta.media.0.codec.colorspace">709</property>
  <property name="kdenlive:original.meta.media.0.codec.name">h264</property>
  <property name="kdenlive:original.meta.media.0.codec.long_name">H.264 / AVC / MPEG-4 AVC / MPEG-4 part 10</property>
  <property name="kdenlive:original.meta.media.0.codec.bit_rate">1785696</property>
  <property name="kdenlive:original.meta.attr.0.stream.handler_name.markup">VideoHandler</property>
  <property name="kdenlive:original.meta.attr.0.stream.vendor_id.markup">[0][0][0][0]</property>
  <property name="kdenlive:original.meta.attr.0.stream.encoder.markup">Lavc60.3.100 libx264</property>
  <property name="kdenlive:original.meta.attr.major_brand.markup">isom</property>
  <property name="kdenlive:original.meta.attr.minor_version.markup">512</property>
  <property name="kdenlive:original.meta.attr.compatible_brands.markup">isomiso2avc1mp41</property>
  <property name="kdenlive:original.meta.attr.encoder.markup">Lavf60.3.100</property>
  <property name="kdenlive:original.meta.attr.comment.markup">Rendered with Manim Community v0.17.3</property>
  <property name="kdenlive:original.seekable">1</property>
  <property name="kdenlive:original.width">1920</property>
  <property name="kdenlive:original.height">1080</property>
  <property name="kdenlive:original.meta.media.sample_aspect_num">1</property>
  <property name="kdenlive:original.meta.media.sample_aspect_den">1</property>
  <property name="kdenlive:original.format">3</property>
  <property name="kdenlive:original.audio_index">-1</property>
  <property name="kdenlive:original.video_index">0</property>
  <property name="kdenlive:original.meta.media.frame_rate_num">60</property>
  <property name="kdenlive:original.meta.media.frame_rate_den">1</property>
  <property name="kdenlive:original.meta.media.colorspace">709</property>
  <property name="kdenlive:original.meta.media.color_trc">2</property>
  <property name="kdenlive:original.meta.media.has_b_frames">2</property>
  <property name="kdenlive:original.meta.media.width">1920</property>
  <property name="kdenlive:original.meta.media.height">1080</property>
  <property name="kdenlive:original.meta.media.color_range">mpeg</property>
  <property name="kdenlive:original.meta.media.top_field_first">0</property>
  <property name="kdenlive:original.meta.media.progressive">1</property>
  <property name="kdenlive:original.kdenlive:clip_type">2</property>
  <property name="kdenlive:original.kdenlive:folderid">16</property>
  <property name="kdenlive:original.kdenlive:id">70</property>
  <property name="kdenlive:original.mute_on_pause">0</property>
  <property name="kdenlive:original.kdenlive:file_size">224780</property>
  <property name="kdenlive:original.kdenlive:file_hash">b1ab0f060b88d188f09dfbaa8a44f35c</property>
  <property name="kdenlive:original.backup">1</property>
  <property name="meta.media.top_field_first">0</property>
  <property name="meta.media.progressive">1</property>
 </chain>
 <chain id="chain174" out="00:00:01.183">
  <property name="length">72</property>
  <property name="eof">pause</property>
  <property name="resource">/home/xiaoxiae/.cache/kdenlive/proxy/125812133726943be9928269ae5817ba.mkv</property>
  <property name="mlt_service">avformat-novalidate</property>
  <property name="meta.media.nb_streams">1</property>
  <property name="meta.media.0.stream.type">video</property>
  <property name="meta.media.0.stream.frame_rate">60</property>
  <property name="meta.media.0.stream.sample_aspect_ratio">0</property>
  <property name="meta.media.0.codec.width">640</property>
  <property name="meta.media.0.codec.height">360</property>
  <property name="meta.media.0.codec.rotate">0</property>
  <property name="meta.media.0.codec.pix_fmt">yuvj420p</property>
  <property name="meta.media.0.codec.sample_aspect_ratio">0</property>
  <property name="meta.media.0.codec.colorspace">601</property>
  <property name="meta.media.0.codec.name">mjpeg</property>
  <property name="meta.media.0.codec.long_name">MJPEG (Motion JPEG)</property>
  <property name="meta.media.0.codec.bit_rate">0</property>
  <property name="meta.attr.0.stream.HANDLER_NAME.markup">VideoHandler</property>
  <property name="meta.attr.0.stream.VENDOR_ID.markup">[0][0][0][0]</property>
  <property name="meta.attr.0.stream.ENCODER.markup">Lavc60.3.100 mjpeg</property>
  <property name="meta.attr.0.stream.DURATION.markup">00:00:01.200000000</property>
  <property name="meta.attr.COMMENT.markup">Rendered with Manim Community v0.17.3</property>
  <property name="meta.attr.MAJOR_BRAND.markup">isom</property>
  <property name="meta.attr.MINOR_VERSION.markup">512</property>
  <property name="meta.attr.COMPATIBLE_BRANDS.markup">isomiso2avc1mp41</property>
  <property name="meta.attr.ENCODER.markup">Lavf60.3.100</property>
  <property name="seekable">1</property>
  <property name="meta.media.sample_aspect_num">1</property>
  <property name="meta.media.sample_aspect_den">1</property>
  <property name="format">3</property>
  <property name="audio_index">-1</property>
  <property name="video_index">0</property>
  <property name="meta.media.frame_rate_num">60</property>
  <property name="meta.media.frame_rate_den">1</property>
  <property name="meta.media.colorspace">601</property>
  <property name="meta.media.color_trc">2</property>
  <property name="meta.media.has_b_frames">0</property>
  <property name="meta.media.width">640</property>
  <property name="meta.media.height">360</property>
  <property name="meta.media.color_range">full</property>
  <property name="kdenlive:clipname">148.mp4</property>
  <property name="kdenlive:clip_type">2</property>
  <property name="kdenlive:folderid">16</property>
  <property name="kdenlive:id">71</property>
  <property name="mute_on_pause">0</property>
  <property name="kdenlive:file_size">40281</property>
  <property name="kdenlive:file_hash">125812133726943be9928269ae5817ba</property>
  <property name="kdenlive:proxy">/home/xiaoxiae/.cache/kdenlive/proxy/125812133726943be9928269ae5817ba.mkv</property>
  <property name="kdenlive:originalurl">video/Farmer/148.mp4</property>
  <property name="kdenlive:original.mlt_type">chain</property>
  <property name="kdenlive:original.in">0</property>
  <property name="kdenlive:original.out">00:00:01.183</property>
  <property name="kdenlive:original.length">72</property>
  <property name="kdenlive:original.eof">pause</property>
  <property name="kdenlive:original.resource">video/Farmer/148.mp4</property>
  <property name="kdenlive:original.mlt_service">avformat-novalidate</property>
  <property name="kdenlive:original.meta.media.nb_streams">1</property>
  <property name="kdenlive:original.meta.media.0.stream.type">video</property>
  <property name="kdenlive:original.meta.media.0.stream.frame_rate">60</property>
  <property name="kdenlive:original.meta.media.0.stream.sample_aspect_ratio">0</property>
  <property name="kdenlive:original.meta.media.0.codec.width">1920</property>
  <property name="kdenlive:original.meta.media.0.codec.height">1080</property>
  <property name="kdenlive:original.meta.media.0.codec.rotate">0</property>
  <property name="kdenlive:original.meta.media.0.codec.pix_fmt">yuv420p</property>
  <property name="kdenlive:original.meta.media.0.codec.sample_aspect_ratio">0</property>
  <property name="kdenlive:original.meta.media.0.codec.colorspace">709</property>
  <property name="kdenlive:original.meta.media.0.codec.name">h264</property>
  <property name="kdenlive:original.meta.media.0.codec.long_name">H.264 / AVC / MPEG-4 AVC / MPEG-4 part 10</property>
  <property name="kdenlive:original.meta.media.0.codec.bit_rate">256700</property>
  <property name="kdenlive:original.meta.attr.0.stream.handler_name.markup">VideoHandler</property>
  <property name="kdenlive:original.meta.attr.0.stream.vendor_id.markup">[0][0][0][0]</property>
  <property name="kdenlive:original.meta.attr.0.stream.encoder.markup">Lavc60.3.100 libx264</property>
  <property name="kdenlive:original.meta.attr.major_brand.markup">isom</property>
  <property name="kdenlive:original.meta.attr.minor_version.markup">512</property>
  <property name="kdenlive:original.meta.attr.compatible_brands.markup">isomiso2avc1mp41</property>
  <property name="kdenlive:original.meta.attr.encoder.markup">Lavf60.3.100</property>
  <property name="kdenlive:original.meta.attr.comment.markup">Rendered with Manim Community v0.17.3</property>
  <property name="kdenlive:original.seekable">1</property>
  <property name="kdenlive:original.width">1920</property>
  <property name="kdenlive:original.height">1080</property>
  <property name="kdenlive:original.meta.media.sample_aspect_num">1</property>
  <property name="kdenlive:original.meta.media.sample_aspect_den">1</property>
  <property name="kdenlive:original.format">3</property>
  <property name="kdenlive:original.audio_index">-1</property>
  <property name="kdenlive:original.video_index">0</property>
  <property name="kdenlive:original.meta.media.frame_rate_num">60</property>
  <property name="kdenlive:original.meta.media.frame_rate_den">1</property>
  <property name="kdenlive:original.meta.media.colorspace">709</property>
  <property name="kdenlive:original.meta.media.color_trc">2</property>
  <property name="kdenlive:original.meta.media.has_b_frames">2</property>
  <property name="kdenlive:original.meta.media.width">1920</property>
  <property name="kdenlive:original.meta.media.height">1080</property>
  <property name="kdenlive:original.meta.media.color_range">mpeg</property>
  <property name="kdenlive:original.meta.media.top_field_first">0</property>
  <property name="kdenlive:original.meta.media.progressive">1</property>
  <property name="kdenlive:original.kdenlive:clip_type">2</property>
  <property name="kdenlive:original.kdenlive:folderid">16</property>
  <property name="kdenlive:original.kdenlive:id">71</property>
  <property name="kdenlive:original.mute_on_pause">0</property>
  <property name="kdenlive:original.kdenlive:file_size">40281</property>
  <property name="kdenlive:original.kdenlive:file_hash">125812133726943be9928269ae5817ba</property>
  <property name="kdenlive:original.backup">1</property>
  <property name="meta.media.top_field_first">0</property>
  <property name="meta.media.progressive">1</property>
 </chain>
 <chain id="chain173" out="00:00:01.983">
  <property name="length">120</property>
  <property name="eof">pause</property>
  <property name="resource">/home/xiaoxiae/.cache/kdenlive/proxy/48f206c25d9ed8aeeb9cf97c491b43e3.mkv</property>
  <property name="mlt_service">avformat-novalidate</property>
  <property name="meta.media.nb_streams">1</property>
  <property name="meta.media.0.stream.type">video</property>
  <property name="meta.media.0.stream.frame_rate">60</property>
  <property name="meta.media.0.stream.sample_aspect_ratio">0</property>
  <property name="meta.media.0.codec.width">640</property>
  <property name="meta.media.0.codec.height">360</property>
  <property name="meta.media.0.codec.rotate">0</property>
  <property name="meta.media.0.codec.pix_fmt">yuvj420p</property>
  <property name="meta.media.0.codec.sample_aspect_ratio">0</property>
  <property name="meta.media.0.codec.colorspace">601</property>
  <property name="meta.media.0.codec.name">mjpeg</property>
  <property name="meta.media.0.codec.long_name">MJPEG (Motion JPEG)</property>
  <property name="meta.media.0.codec.bit_rate">0</property>
  <property name="meta.attr.0.stream.HANDLER_NAME.markup">VideoHandler</property>
  <property name="meta.attr.0.stream.VENDOR_ID.markup">[0][0][0][0]</property>
  <property name="meta.attr.0.stream.ENCODER.markup">Lavc60.3.100 mjpeg</property>
  <property name="meta.attr.0.stream.DURATION.markup">00:00:02.000000000</property>
  <property name="meta.attr.COMMENT.markup">Rendered with Manim Community v0.17.3</property>
  <property name="meta.attr.MAJOR_BRAND.markup">isom</property>
  <property name="meta.attr.MINOR_VERSION.markup">512</property>
  <property name="meta.attr.COMPATIBLE_BRANDS.markup">isomiso2avc1mp41</property>
  <property name="meta.attr.ENCODER.markup">Lavf60.3.100</property>
  <property name="seekable">1</property>
  <property name="meta.media.sample_aspect_num">1</property>
  <property name="meta.media.sample_aspect_den">1</property>
  <property name="format">3</property>
  <property name="audio_index">-1</property>
  <property name="video_index">0</property>
  <property name="meta.media.frame_rate_num">60</property>
  <property name="meta.media.frame_rate_den">1</property>
  <property name="meta.media.colorspace">601</property>
  <property name="meta.media.color_trc">2</property>
  <property name="meta.media.has_b_frames">0</property>
  <property name="meta.media.width">640</property>
  <property name="meta.media.height">360</property>
  <property name="meta.media.color_range">full</property>
  <property name="kdenlive:clipname">149.mp4</property>
  <property name="kdenlive:clip_type">2</property>
  <property name="kdenlive:folderid">16</property>
  <property name="kdenlive:id">72</property>
  <property name="mute_on_pause">0</property>
  <property name="kdenlive:file_size">102460</property>
  <property name="kdenlive:file_hash">48f206c25d9ed8aeeb9cf97c491b43e3</property>
  <property name="kdenlive:proxy">/home/xiaoxiae/.cache/kdenlive/proxy/48f206c25d9ed8aeeb9cf97c491b43e3.mkv</property>
  <property name="kdenlive:originalurl">video/Farmer/149.mp4</property>
  <property name="kdenlive:original.mlt_type">chain</property>
  <property name="kdenlive:original.in">0</property>
  <property name="kdenlive:original.out">00:00:01.983</property>
  <property name="kdenlive:original.length">120</property>
  <property name="kdenlive:original.eof">pause</property>
  <property name="kdenlive:original.resource">video/Farmer/149.mp4</property>
  <property name="kdenlive:original.mlt_service">avformat-novalidate</property>
  <property name="kdenlive:original.meta.media.nb_streams">1</property>
  <property name="kdenlive:original.meta.media.0.stream.type">video</property>
  <property name="kdenlive:original.meta.media.0.stream.frame_rate">60</property>
  <property name="kdenlive:original.meta.media.0.stream.sample_aspect_ratio">0</property>
  <property name="kdenlive:original.meta.media.0.codec.width">1920</property>
  <property name="kdenlive:original.meta.media.0.codec.height">1080</property>
  <property name="kdenlive:original.meta.media.0.codec.rotate">0</property>
  <property name="kdenlive:original.meta.media.0.codec.pix_fmt">yuv420p</property>
  <property name="kdenlive:original.meta.media.0.codec.sample_aspect_ratio">0</property>
  <property name="kdenlive:original.meta.media.0.codec.colorspace">709</property>
  <property name="kdenlive:original.meta.media.0.codec.name">h264</property>
  <property name="kdenlive:original.meta.media.0.codec.long_name">H.264 / AVC / MPEG-4 AVC / MPEG-4 part 10</property>
  <property name="kdenlive:original.meta.media.0.codec.bit_rate">400784</property>
  <property name="kdenlive:original.meta.attr.0.stream.handler_name.markup">VideoHandler</property>
  <property name="kdenlive:original.meta.attr.0.stream.vendor_id.markup">[0][0][0][0]</property>
  <property name="kdenlive:original.meta.attr.0.stream.encoder.markup">Lavc60.3.100 libx264</property>
  <property name="kdenlive:original.meta.attr.major_brand.markup">isom</property>
  <property name="kdenlive:original.meta.attr.minor_version.markup">512</property>
  <property name="kdenlive:original.meta.attr.compatible_brands.markup">isomiso2avc1mp41</property>
  <property name="kdenlive:original.meta.attr.encoder.markup">Lavf60.3.100</property>
  <property name="kdenlive:original.meta.attr.comment.markup">Rendered with Manim Community v0.17.3</property>
  <property name="kdenlive:original.seekable">1</property>
  <property name="kdenlive:original.width">1920</property>
  <property name="kdenlive:original.height">1080</property>
  <property name="kdenlive:original.meta.media.sample_aspect_num">1</property>
  <property name="kdenlive:original.meta.media.sample_aspect_den">1</property>
  <property name="kdenlive:original.format">3</property>
  <property name="kdenlive:original.audio_index">-1</property>
  <property name="kdenlive:original.video_index">0</property>
  <property name="kdenlive:original.meta.media.frame_rate_num">60</property>
  <property name="kdenlive:original.meta.media.frame_rate_den">1</property>
  <property name="kdenlive:original.meta.media.colorspace">709</property>
  <property name="kdenlive:original.meta.media.color_trc">2</property>
  <property name="kdenlive:original.meta.media.has_b_frames">2</property>
  <property name="kdenlive:original.meta.media.width">1920</property>
  <property name="kdenlive:original.meta.media.height">1080</property>
  <property name="kdenlive:original.meta.media.color_range">mpeg</property>
  <property name="kdenlive:original.meta.media.top_field_first">0</property>
  <property name="kdenlive:original.meta.media.progressive">1</property>
  <property name="kdenlive:original.kdenlive:clip_type">2</property>
  <property name="kdenlive:original.kdenlive:folderid">16</property>
  <property name="kdenlive:original.kdenlive:id">72</property>
  <property name="kdenlive:original.mute_on_pause">0</property>
  <property name="kdenlive:original.kdenlive:file_size">102460</property>
  <property name="kdenlive:original.kdenlive:file_hash">48f206c25d9ed8aeeb9cf97c491b43e3</property>
  <property name="kdenlive:original.backup">1</property>
  <property name="meta.media.top_field_first">0</property>
  <property name="meta.media.progressive">1</property>
 </chain>
 <chain id="chain411" out="00:00:01.983">
  <property name="length">120</property>
  <property name="eof">pause</property>
  <property name="resource">/home/xiaoxiae/.cache/kdenlive/proxy/519b40a3decd4df29f9d736939537b12.mkv</property>
  <property name="mlt_service">avformat-novalidate</property>
  <property name="meta.media.nb_streams">1</property>
  <property name="meta.media.0.stream.type">video</property>
  <property name="meta.media.0.stream.frame_rate">60</property>
  <property name="meta.media.0.stream.sample_aspect_ratio">0</property>
  <property name="meta.media.0.codec.width">640</property>
  <property name="meta.media.0.codec.height">360</property>
  <property name="meta.media.0.codec.rotate">0</property>
  <property name="meta.media.0.codec.pix_fmt">yuvj420p</property>
  <property name="meta.media.0.codec.sample_aspect_ratio">0</property>
  <property name="meta.media.0.codec.colorspace">601</property>
  <property name="meta.media.0.codec.name">mjpeg</property>
  <property name="meta.media.0.codec.long_name">MJPEG (Motion JPEG)</property>
  <property name="meta.media.0.codec.bit_rate">0</property>
  <property name="meta.attr.0.stream.HANDLER_NAME.markup">VideoHandler</property>
  <property name="meta.attr.0.stream.VENDOR_ID.markup">[0][0][0][0]</property>
  <property name="meta.attr.0.stream.ENCODER.markup">Lavc60.3.100 mjpeg</property>
  <property name="meta.attr.0.stream.DURATION.markup">00:00:02.000000000</property>
  <property name="meta.attr.COMMENT.markup">Rendered with Manim Community v0.17.3</property>
  <property name="meta.attr.MAJOR_BRAND.markup">isom</property>
  <property name="meta.attr.MINOR_VERSION.markup">512</property>
  <property name="meta.attr.COMPATIBLE_BRANDS.markup">isomiso2avc1mp41</property>
  <property name="meta.attr.ENCODER.markup">Lavf60.3.100</property>
  <property name="seekable">1</property>
  <property name="meta.media.sample_aspect_num">1</property>
  <property name="meta.media.sample_aspect_den">1</property>
  <property name="format">3</property>
  <property name="audio_index">-1</property>
  <property name="video_index">0</property>
  <property name="meta.media.frame_rate_num">60</property>
  <property name="meta.media.frame_rate_den">1</property>
  <property name="meta.media.colorspace">601</property>
  <property name="meta.media.color_trc">2</property>
  <property name="meta.media.has_b_frames">0</property>
  <property name="meta.media.width">640</property>
  <property name="meta.media.height">360</property>
  <property name="meta.media.color_range">full</property>
  <property name="kdenlive:clipname">15.mp4</property>
  <property name="kdenlive:clip_type">2</property>
  <property name="kdenlive:folderid">16</property>
  <property name="kdenlive:id">73</property>
  <property name="mute_on_pause">0</property>
  <property name="kdenlive:file_size">194390</property>
  <property name="kdenlive:file_hash">519b40a3decd4df29f9d736939537b12</property>
  <property name="kdenlive:proxy">/home/xiaoxiae/.cache/kdenlive/proxy/519b40a3decd4df29f9d736939537b12.mkv</property>
  <property name="kdenlive:originalurl">video/Farmer/15.mp4</property>
  <property name="kdenlive:original.mlt_type">chain</property>
  <property name="kdenlive:original.in">0</property>
  <property name="kdenlive:original.out">00:00:01.983</property>
  <property name="kdenlive:original.length">120</property>
  <property name="kdenlive:original.eof">pause</property>
  <property name="kdenlive:original.resource">video/Farmer/15.mp4</property>
  <property name="kdenlive:original.mlt_service">avformat-novalidate</property>
  <property name="kdenlive:original.meta.media.nb_streams">1</property>
  <property name="kdenlive:original.meta.media.0.stream.type">video</property>
  <property name="kdenlive:original.meta.media.0.stream.frame_rate">60</property>
  <property name="kdenlive:original.meta.media.0.stream.sample_aspect_ratio">0</property>
  <property name="kdenlive:original.meta.media.0.codec.width">1920</property>
  <property name="kdenlive:original.meta.media.0.codec.height">1080</property>
  <property name="kdenlive:original.meta.media.0.codec.rotate">0</property>
  <property name="kdenlive:original.meta.media.0.codec.pix_fmt">yuv420p</property>
  <property name="kdenlive:original.meta.media.0.codec.sample_aspect_ratio">0</property>
  <property name="kdenlive:original.meta.media.0.codec.colorspace">709</property>
  <property name="kdenlive:original.meta.media.0.codec.name">h264</property>
  <property name="kdenlive:original.meta.media.0.codec.long_name">H.264 / AVC / MPEG-4 AVC / MPEG-4 part 10</property>
  <property name="kdenlive:original.meta.media.0.codec.bit_rate">768824</property>
  <property name="kdenlive:original.meta.attr.0.stream.handler_name.markup">VideoHandler</property>
  <property name="kdenlive:original.meta.attr.0.stream.vendor_id.markup">[0][0][0][0]</property>
  <property name="kdenlive:original.meta.attr.0.stream.encoder.markup">Lavc60.3.100 libx264</property>
  <property name="kdenlive:original.meta.attr.major_brand.markup">isom</property>
  <property name="kdenlive:original.meta.attr.minor_version.markup">512</property>
  <property name="kdenlive:original.meta.attr.compatible_brands.markup">isomiso2avc1mp41</property>
  <property name="kdenlive:original.meta.attr.encoder.markup">Lavf60.3.100</property>
  <property name="kdenlive:original.meta.attr.comment.markup">Rendered with Manim Community v0.17.3</property>
  <property name="kdenlive:original.seekable">1</property>
  <property name="kdenlive:original.width">1920</property>
  <property name="kdenlive:original.height">1080</property>
  <property name="kdenlive:original.meta.media.sample_aspect_num">1</property>
  <property name="kdenlive:original.meta.media.sample_aspect_den">1</property>
  <property name="kdenlive:original.format">3</property>
  <property name="kdenlive:original.audio_index">-1</property>
  <property name="kdenlive:original.video_index">0</property>
  <property name="kdenlive:original.meta.media.frame_rate_num">60</property>
  <property name="kdenlive:original.meta.media.frame_rate_den">1</property>
  <property name="kdenlive:original.meta.media.colorspace">709</property>
  <property name="kdenlive:original.meta.media.color_trc">2</property>
  <property name="kdenlive:original.meta.media.has_b_frames">2</property>
  <property name="kdenlive:original.meta.media.width">1920</property>
  <property name="kdenlive:original.meta.media.height">1080</property>
  <property name="kdenlive:original.meta.media.color_range">mpeg</property>
  <property name="kdenlive:original.meta.media.top_field_first">0</property>
  <property name="kdenlive:original.meta.media.progressive">1</property>
  <property name="kdenlive:original.kdenlive:clip_type">2</property>
  <property name="kdenlive:original.kdenlive:folderid">16</property>
  <property name="kdenlive:original.kdenlive:id">73</property>
  <property name="kdenlive:original.mute_on_pause">0</property>
  <property name="kdenlive:original.kdenlive:file_size">194390</property>
  <property name="kdenlive:original.kdenlive:file_hash">519b40a3decd4df29f9d736939537b12</property>
  <property name="kdenlive:original.backup">1</property>
  <property name="meta.media.top_field_first">0</property>
  <property name="meta.media.progressive">1</property>
 </chain>
 <chain id="chain171" out="00:00:00.983">
  <property name="length">60</property>
  <property name="eof">pause</property>
  <property name="resource">/home/xiaoxiae/.cache/kdenlive/proxy/8de0e2b3f00f86bf2edc03c4677635a0.mkv</property>
  <property name="mlt_service">avformat-novalidate</property>
  <property name="meta.media.nb_streams">1</property>
  <property name="meta.media.0.stream.type">video</property>
  <property name="meta.media.0.stream.frame_rate">60</property>
  <property name="meta.media.0.stream.sample_aspect_ratio">0</property>
  <property name="meta.media.0.codec.width">640</property>
  <property name="meta.media.0.codec.height">360</property>
  <property name="meta.media.0.codec.rotate">0</property>
  <property name="meta.media.0.codec.pix_fmt">yuvj420p</property>
  <property name="meta.media.0.codec.sample_aspect_ratio">0</property>
  <property name="meta.media.0.codec.colorspace">601</property>
  <property name="meta.media.0.codec.name">mjpeg</property>
  <property name="meta.media.0.codec.long_name">MJPEG (Motion JPEG)</property>
  <property name="meta.media.0.codec.bit_rate">0</property>
  <property name="meta.attr.0.stream.HANDLER_NAME.markup">VideoHandler</property>
  <property name="meta.attr.0.stream.VENDOR_ID.markup">[0][0][0][0]</property>
  <property name="meta.attr.0.stream.ENCODER.markup">Lavc60.3.100 mjpeg</property>
  <property name="meta.attr.0.stream.DURATION.markup">00:00:01.000000000</property>
  <property name="meta.attr.COMMENT.markup">Rendered with Manim Community v0.17.3</property>
  <property name="meta.attr.MAJOR_BRAND.markup">isom</property>
  <property name="meta.attr.MINOR_VERSION.markup">512</property>
  <property name="meta.attr.COMPATIBLE_BRANDS.markup">isomiso2avc1mp41</property>
  <property name="meta.attr.ENCODER.markup">Lavf60.3.100</property>
  <property name="seekable">1</property>
  <property name="meta.media.sample_aspect_num">1</property>
  <property name="meta.media.sample_aspect_den">1</property>
  <property name="format">3</property>
  <property name="audio_index">-1</property>
  <property name="video_index">0</property>
  <property name="meta.media.frame_rate_num">60</property>
  <property name="meta.media.frame_rate_den">1</property>
  <property name="meta.media.colorspace">601</property>
  <property name="meta.media.color_trc">2</property>
  <property name="meta.media.has_b_frames">0</property>
  <property name="meta.media.width">640</property>
  <property name="meta.media.height">360</property>
  <property name="meta.media.color_range">full</property>
  <property name="kdenlive:clipname">150.mp4</property>
  <property name="kdenlive:clip_type">2</property>
  <property name="kdenlive:folderid">16</property>
  <property name="kdenlive:id">74</property>
  <property name="mute_on_pause">0</property>
  <property name="kdenlive:file_size">46892</property>
  <property name="kdenlive:file_hash">8de0e2b3f00f86bf2edc03c4677635a0</property>
  <property name="kdenlive:proxy">/home/xiaoxiae/.cache/kdenlive/proxy/8de0e2b3f00f86bf2edc03c4677635a0.mkv</property>
  <property name="kdenlive:originalurl">video/Farmer/150.mp4</property>
  <property name="kdenlive:original.mlt_type">chain</property>
  <property name="kdenlive:original.in">0</property>
  <property name="kdenlive:original.out">00:00:00.983</property>
  <property name="kdenlive:original.length">60</property>
  <property name="kdenlive:original.eof">pause</property>
  <property name="kdenlive:original.resource">video/Farmer/150.mp4</property>
  <property name="kdenlive:original.mlt_service">avformat-novalidate</property>
  <property name="kdenlive:original.meta.media.nb_streams">1</property>
  <property name="kdenlive:original.meta.media.0.stream.type">video</property>
  <property name="kdenlive:original.meta.media.0.stream.frame_rate">60</property>
  <property name="kdenlive:original.meta.media.0.stream.sample_aspect_ratio">0</property>
  <property name="kdenlive:original.meta.media.0.codec.width">1920</property>
  <property name="kdenlive:original.meta.media.0.codec.height">1080</property>
  <property name="kdenlive:original.meta.media.0.codec.rotate">0</property>
  <property name="kdenlive:original.meta.media.0.codec.pix_fmt">yuv420p</property>
  <property name="kdenlive:original.meta.media.0.codec.sample_aspect_ratio">0</property>
  <property name="kdenlive:original.meta.media.0.codec.colorspace">709</property>
  <property name="kdenlive:original.meta.media.0.codec.name">h264</property>
  <property name="kdenlive:original.meta.media.0.codec.long_name">H.264 / AVC / MPEG-4 AVC / MPEG-4 part 10</property>
  <property name="kdenlive:original.meta.media.0.codec.bit_rate">362080</property>
  <property name="kdenlive:original.meta.attr.0.stream.handler_name.markup">VideoHandler</property>
  <property name="kdenlive:original.meta.attr.0.stream.vendor_id.markup">[0][0][0][0]</property>
  <property name="kdenlive:original.meta.attr.0.stream.encoder.markup">Lavc60.3.100 libx264</property>
  <property name="kdenlive:original.meta.attr.major_brand.markup">isom</property>
  <property name="kdenlive:original.meta.attr.minor_version.markup">512</property>
  <property name="kdenlive:original.meta.attr.compatible_brands.markup">isomiso2avc1mp41</property>
  <property name="kdenlive:original.meta.attr.encoder.markup">Lavf60.3.100</property>
  <property name="kdenlive:original.meta.attr.comment.markup">Rendered with Manim Community v0.17.3</property>
  <property name="kdenlive:original.seekable">1</property>
  <property name="kdenlive:original.width">1920</property>
  <property name="kdenlive:original.height">1080</property>
  <property name="kdenlive:original.meta.media.sample_aspect_num">1</property>
  <property name="kdenlive:original.meta.media.sample_aspect_den">1</property>
  <property name="kdenlive:original.format">3</property>
  <property name="kdenlive:original.audio_index">-1</property>
  <property name="kdenlive:original.video_index">0</property>
  <property name="kdenlive:original.meta.media.frame_rate_num">60</property>
  <property name="kdenlive:original.meta.media.frame_rate_den">1</property>
  <property name="kdenlive:original.meta.media.colorspace">709</property>
  <property name="kdenlive:original.meta.media.color_trc">2</property>
  <property name="kdenlive:original.meta.media.has_b_frames">2</property>
  <property name="kdenlive:original.meta.media.width">1920</property>
  <property name="kdenlive:original.meta.media.height">1080</property>
  <property name="kdenlive:original.meta.media.color_range">mpeg</property>
  <property name="kdenlive:original.meta.media.top_field_first">0</property>
  <property name="kdenlive:original.meta.media.progressive">1</property>
  <property name="kdenlive:original.kdenlive:clip_type">2</property>
  <property name="kdenlive:original.kdenlive:folderid">16</property>
  <property name="kdenlive:original.kdenlive:id">74</property>
  <property name="kdenlive:original.mute_on_pause">0</property>
  <property name="kdenlive:original.kdenlive:file_size">46892</property>
  <property name="kdenlive:original.kdenlive:file_hash">8de0e2b3f00f86bf2edc03c4677635a0</property>
  <property name="kdenlive:original.backup">1</property>
  <property name="meta.media.top_field_first">0</property>
  <property name="meta.media.progressive">1</property>
 </chain>
 <chain id="chain169" out="00:00:00.983">
  <property name="length">60</property>
  <property name="eof">pause</property>
  <property name="resource">/home/xiaoxiae/.cache/kdenlive/proxy/8fa73b1e27d5364eb348478de684d7b1.mkv</property>
  <property name="mlt_service">avformat-novalidate</property>
  <property name="meta.media.nb_streams">1</property>
  <property name="meta.media.0.stream.type">video</property>
  <property name="meta.media.0.stream.frame_rate">60</property>
  <property name="meta.media.0.stream.sample_aspect_ratio">0</property>
  <property name="meta.media.0.codec.width">640</property>
  <property name="meta.media.0.codec.height">360</property>
  <property name="meta.media.0.codec.rotate">0</property>
  <property name="meta.media.0.codec.pix_fmt">yuvj420p</property>
  <property name="meta.media.0.codec.sample_aspect_ratio">0</property>
  <property name="meta.media.0.codec.colorspace">601</property>
  <property name="meta.media.0.codec.name">mjpeg</property>
  <property name="meta.media.0.codec.long_name">MJPEG (Motion JPEG)</property>
  <property name="meta.media.0.codec.bit_rate">0</property>
  <property name="meta.attr.0.stream.HANDLER_NAME.markup">VideoHandler</property>
  <property name="meta.attr.0.stream.VENDOR_ID.markup">[0][0][0][0]</property>
  <property name="meta.attr.0.stream.ENCODER.markup">Lavc60.3.100 mjpeg</property>
  <property name="meta.attr.0.stream.DURATION.markup">00:00:01.000000000</property>
  <property name="meta.attr.COMMENT.markup">Rendered with Manim Community v0.17.3</property>
  <property name="meta.attr.MAJOR_BRAND.markup">isom</property>
  <property name="meta.attr.MINOR_VERSION.markup">512</property>
  <property name="meta.attr.COMPATIBLE_BRANDS.markup">isomiso2avc1mp41</property>
  <property name="meta.attr.ENCODER.markup">Lavf60.3.100</property>
  <property name="seekable">1</property>
  <property name="meta.media.sample_aspect_num">1</property>
  <property name="meta.media.sample_aspect_den">1</property>
  <property name="format">3</property>
  <property name="audio_index">-1</property>
  <property name="video_index">0</property>
  <property name="meta.media.frame_rate_num">60</property>
  <property name="meta.media.frame_rate_den">1</property>
  <property name="meta.media.colorspace">601</property>
  <property name="meta.media.color_trc">2</property>
  <property name="meta.media.has_b_frames">0</property>
  <property name="meta.media.width">640</property>
  <property name="meta.media.height">360</property>
  <property name="meta.media.color_range">full</property>
  <property name="kdenlive:clipname">151.mp4</property>
  <property name="kdenlive:clip_type">2</property>
  <property name="kdenlive:folderid">16</property>
  <property name="kdenlive:id">75</property>
  <property name="mute_on_pause">0</property>
  <property name="kdenlive:file_size">44228</property>
  <property name="kdenlive:file_hash">8fa73b1e27d5364eb348478de684d7b1</property>
  <property name="kdenlive:proxy">/home/xiaoxiae/.cache/kdenlive/proxy/8fa73b1e27d5364eb348478de684d7b1.mkv</property>
  <property name="kdenlive:originalurl">video/Farmer/151.mp4</property>
  <property name="kdenlive:original.mlt_type">chain</property>
  <property name="kdenlive:original.in">0</property>
  <property name="kdenlive:original.out">00:00:00.983</property>
  <property name="kdenlive:original.length">60</property>
  <property name="kdenlive:original.eof">pause</property>
  <property name="kdenlive:original.resource">video/Farmer/151.mp4</property>
  <property name="kdenlive:original.mlt_service">avformat-novalidate</property>
  <property name="kdenlive:original.meta.media.nb_streams">1</property>
  <property name="kdenlive:original.meta.media.0.stream.type">video</property>
  <property name="kdenlive:original.meta.media.0.stream.frame_rate">60</property>
  <property name="kdenlive:original.meta.media.0.stream.sample_aspect_ratio">0</property>
  <property name="kdenlive:original.meta.media.0.codec.width">1920</property>
  <property name="kdenlive:original.meta.media.0.codec.height">1080</property>
  <property name="kdenlive:original.meta.media.0.codec.rotate">0</property>
  <property name="kdenlive:original.meta.media.0.codec.pix_fmt">yuv420p</property>
  <property name="kdenlive:original.meta.media.0.codec.sample_aspect_ratio">0</property>
  <property name="kdenlive:original.meta.media.0.codec.colorspace">709</property>
  <property name="kdenlive:original.meta.media.0.codec.name">h264</property>
  <property name="kdenlive:original.meta.media.0.codec.long_name">H.264 / AVC / MPEG-4 AVC / MPEG-4 part 10</property>
  <property name="kdenlive:original.meta.media.0.codec.bit_rate">340768</property>
  <property name="kdenlive:original.meta.attr.0.stream.handler_name.markup">VideoHandler</property>
  <property name="kdenlive:original.meta.attr.0.stream.vendor_id.markup">[0][0][0][0]</property>
  <property name="kdenlive:original.meta.attr.0.stream.encoder.markup">Lavc60.3.100 libx264</property>
  <property name="kdenlive:original.meta.attr.major_brand.markup">isom</property>
  <property name="kdenlive:original.meta.attr.minor_version.markup">512</property>
  <property name="kdenlive:original.meta.attr.compatible_brands.markup">isomiso2avc1mp41</property>
  <property name="kdenlive:original.meta.attr.encoder.markup">Lavf60.3.100</property>
  <property name="kdenlive:original.meta.attr.comment.markup">Rendered with Manim Community v0.17.3</property>
  <property name="kdenlive:original.seekable">1</property>
  <property name="kdenlive:original.width">1920</property>
  <property name="kdenlive:original.height">1080</property>
  <property name="kdenlive:original.meta.media.sample_aspect_num">1</property>
  <property name="kdenlive:original.meta.media.sample_aspect_den">1</property>
  <property name="kdenlive:original.format">3</property>
  <property name="kdenlive:original.audio_index">-1</property>
  <property name="kdenlive:original.video_index">0</property>
  <property name="kdenlive:original.meta.media.frame_rate_num">60</property>
  <property name="kdenlive:original.meta.media.frame_rate_den">1</property>
  <property name="kdenlive:original.meta.media.colorspace">709</property>
  <property name="kdenlive:original.meta.media.color_trc">2</property>
  <property name="kdenlive:original.meta.media.has_b_frames">2</property>
  <property name="kdenlive:original.meta.media.width">1920</property>
  <property name="kdenlive:original.meta.media.height">1080</property>
  <property name="kdenlive:original.meta.media.color_range">mpeg</property>
  <property name="kdenlive:original.meta.media.top_field_first">0</property>
  <property name="kdenlive:original.meta.media.progressive">1</property>
  <property name="kdenlive:original.kdenlive:clip_type">2</property>
  <property name="kdenlive:original.kdenlive:folderid">16</property>
  <property name="kdenlive:original.kdenlive:id">75</property>
  <property name="kdenlive:original.mute_on_pause">0</property>
  <property name="kdenlive:original.kdenlive:file_size">44228</property>
  <property name="kdenlive:original.kdenlive:file_hash">8fa73b1e27d5364eb348478de684d7b1</property>
  <property name="kdenlive:original.backup">1</property>
  <property name="meta.media.top_field_first">0</property>
  <property name="meta.media.progressive">1</property>
 </chain>
 <chain id="chain168" out="00:00:00.983">
  <property name="length">60</property>
  <property name="eof">pause</property>
  <property name="resource">/home/xiaoxiae/.cache/kdenlive/proxy/592547a600a3e389f7d27f1e13bde53b.mkv</property>
  <property name="mlt_service">avformat-novalidate</property>
  <property name="meta.media.nb_streams">1</property>
  <property name="meta.media.0.stream.type">video</property>
  <property name="meta.media.0.stream.frame_rate">60</property>
  <property name="meta.media.0.stream.sample_aspect_ratio">0</property>
  <property name="meta.media.0.codec.width">640</property>
  <property name="meta.media.0.codec.height">360</property>
  <property name="meta.media.0.codec.rotate">0</property>
  <property name="meta.media.0.codec.pix_fmt">yuvj420p</property>
  <property name="meta.media.0.codec.sample_aspect_ratio">0</property>
  <property name="meta.media.0.codec.colorspace">601</property>
  <property name="meta.media.0.codec.name">mjpeg</property>
  <property name="meta.media.0.codec.long_name">MJPEG (Motion JPEG)</property>
  <property name="meta.media.0.codec.bit_rate">0</property>
  <property name="meta.attr.0.stream.HANDLER_NAME.markup">VideoHandler</property>
  <property name="meta.attr.0.stream.VENDOR_ID.markup">[0][0][0][0]</property>
  <property name="meta.attr.0.stream.ENCODER.markup">Lavc60.3.100 mjpeg</property>
  <property name="meta.attr.0.stream.DURATION.markup">00:00:01.000000000</property>
  <property name="meta.attr.COMMENT.markup">Rendered with Manim Community v0.17.3</property>
  <property name="meta.attr.MAJOR_BRAND.markup">isom</property>
  <property name="meta.attr.MINOR_VERSION.markup">512</property>
  <property name="meta.attr.COMPATIBLE_BRANDS.markup">isomiso2avc1mp41</property>
  <property name="meta.attr.ENCODER.markup">Lavf60.3.100</property>
  <property name="seekable">1</property>
  <property name="meta.media.sample_aspect_num">1</property>
  <property name="meta.media.sample_aspect_den">1</property>
  <property name="format">3</property>
  <property name="audio_index">-1</property>
  <property name="video_index">0</property>
  <property name="meta.media.frame_rate_num">60</property>
  <property name="meta.media.frame_rate_den">1</property>
  <property name="meta.media.colorspace">601</property>
  <property name="meta.media.color_trc">2</property>
  <property name="meta.media.has_b_frames">0</property>
  <property name="meta.media.width">640</property>
  <property name="meta.media.height">360</property>
  <property name="meta.media.color_range">full</property>
  <property name="kdenlive:clipname">152.mp4</property>
  <property name="kdenlive:clip_type">2</property>
  <property name="kdenlive:folderid">16</property>
  <property name="kdenlive:id">76</property>
  <property name="mute_on_pause">0</property>
  <property name="kdenlive:file_size">48651</property>
  <property name="kdenlive:file_hash">592547a600a3e389f7d27f1e13bde53b</property>
  <property name="kdenlive:proxy">/home/xiaoxiae/.cache/kdenlive/proxy/592547a600a3e389f7d27f1e13bde53b.mkv</property>
  <property name="kdenlive:originalurl">video/Farmer/152.mp4</property>
  <property name="kdenlive:original.mlt_type">chain</property>
  <property name="kdenlive:original.in">0</property>
  <property name="kdenlive:original.out">00:00:00.983</property>
  <property name="kdenlive:original.length">60</property>
  <property name="kdenlive:original.eof">pause</property>
  <property name="kdenlive:original.resource">video/Farmer/152.mp4</property>
  <property name="kdenlive:original.mlt_service">avformat-novalidate</property>
  <property name="kdenlive:original.meta.media.nb_streams">1</property>
  <property name="kdenlive:original.meta.media.0.stream.type">video</property>
  <property name="kdenlive:original.meta.media.0.stream.frame_rate">60</property>
  <property name="kdenlive:original.meta.media.0.stream.sample_aspect_ratio">0</property>
  <property name="kdenlive:original.meta.media.0.codec.width">1920</property>
  <property name="kdenlive:original.meta.media.0.codec.height">1080</property>
  <property name="kdenlive:original.meta.media.0.codec.rotate">0</property>
  <property name="kdenlive:original.meta.media.0.codec.pix_fmt">yuv420p</property>
  <property name="kdenlive:original.meta.media.0.codec.sample_aspect_ratio">0</property>
  <property name="kdenlive:original.meta.media.0.codec.colorspace">709</property>
  <property name="kdenlive:original.meta.media.0.codec.name">h264</property>
  <property name="kdenlive:original.meta.media.0.codec.long_name">H.264 / AVC / MPEG-4 AVC / MPEG-4 part 10</property>
  <property name="kdenlive:original.meta.media.0.codec.bit_rate">376152</property>
  <property name="kdenlive:original.meta.attr.0.stream.handler_name.markup">VideoHandler</property>
  <property name="kdenlive:original.meta.attr.0.stream.vendor_id.markup">[0][0][0][0]</property>
  <property name="kdenlive:original.meta.attr.0.stream.encoder.markup">Lavc60.3.100 libx264</property>
  <property name="kdenlive:original.meta.attr.major_brand.markup">isom</property>
  <property name="kdenlive:original.meta.attr.minor_version.markup">512</property>
  <property name="kdenlive:original.meta.attr.compatible_brands.markup">isomiso2avc1mp41</property>
  <property name="kdenlive:original.meta.attr.encoder.markup">Lavf60.3.100</property>
  <property name="kdenlive:original.meta.attr.comment.markup">Rendered with Manim Community v0.17.3</property>
  <property name="kdenlive:original.seekable">1</property>
  <property name="kdenlive:original.width">1920</property>
  <property name="kdenlive:original.height">1080</property>
  <property name="kdenlive:original.meta.media.sample_aspect_num">1</property>
  <property name="kdenlive:original.meta.media.sample_aspect_den">1</property>
  <property name="kdenlive:original.format">3</property>
  <property name="kdenlive:original.audio_index">-1</property>
  <property name="kdenlive:original.video_index">0</property>
  <property name="kdenlive:original.meta.media.frame_rate_num">60</property>
  <property name="kdenlive:original.meta.media.frame_rate_den">1</property>
  <property name="kdenlive:original.meta.media.colorspace">709</property>
  <property name="kdenlive:original.meta.media.color_trc">2</property>
  <property name="kdenlive:original.meta.media.has_b_frames">2</property>
  <property name="kdenlive:original.meta.media.width">1920</property>
  <property name="kdenlive:original.meta.media.height">1080</property>
  <property name="kdenlive:original.meta.media.color_range">mpeg</property>
  <property name="kdenlive:original.meta.media.top_field_first">0</property>
  <property name="kdenlive:original.meta.media.progressive">1</property>
  <property name="kdenlive:original.kdenlive:clip_type">2</property>
  <property name="kdenlive:original.kdenlive:folderid">16</property>
  <property name="kdenlive:original.kdenlive:id">76</property>
  <property name="kdenlive:original.mute_on_pause">0</property>
  <property name="kdenlive:original.kdenlive:file_size">48651</property>
  <property name="kdenlive:original.kdenlive:file_hash">592547a600a3e389f7d27f1e13bde53b</property>
  <property name="kdenlive:original.backup">1</property>
  <property name="meta.media.top_field_first">0</property>
  <property name="meta.media.progressive">1</property>
 </chain>
 <chain id="chain166" out="00:00:01.483">
  <property name="length">90</property>
  <property name="eof">pause</property>
  <property name="resource">/home/xiaoxiae/.cache/kdenlive/proxy/9882c2fe1e2356510d2d4b581e731482.mkv</property>
  <property name="mlt_service">avformat-novalidate</property>
  <property name="meta.media.nb_streams">1</property>
  <property name="meta.media.0.stream.type">video</property>
  <property name="meta.media.0.stream.frame_rate">60</property>
  <property name="meta.media.0.stream.sample_aspect_ratio">0</property>
  <property name="meta.media.0.codec.width">640</property>
  <property name="meta.media.0.codec.height">360</property>
  <property name="meta.media.0.codec.rotate">0</property>
  <property name="meta.media.0.codec.pix_fmt">yuvj420p</property>
  <property name="meta.media.0.codec.sample_aspect_ratio">0</property>
  <property name="meta.media.0.codec.colorspace">601</property>
  <property name="meta.media.0.codec.name">mjpeg</property>
  <property name="meta.media.0.codec.long_name">MJPEG (Motion JPEG)</property>
  <property name="meta.media.0.codec.bit_rate">0</property>
  <property name="meta.attr.0.stream.HANDLER_NAME.markup">VideoHandler</property>
  <property name="meta.attr.0.stream.VENDOR_ID.markup">[0][0][0][0]</property>
  <property name="meta.attr.0.stream.ENCODER.markup">Lavc60.3.100 mjpeg</property>
  <property name="meta.attr.0.stream.DURATION.markup">00:00:01.500000000</property>
  <property name="meta.attr.COMMENT.markup">Rendered with Manim Community v0.17.3</property>
  <property name="meta.attr.MAJOR_BRAND.markup">isom</property>
  <property name="meta.attr.MINOR_VERSION.markup">512</property>
  <property name="meta.attr.COMPATIBLE_BRANDS.markup">isomiso2avc1mp41</property>
  <property name="meta.attr.ENCODER.markup">Lavf60.3.100</property>
  <property name="seekable">1</property>
  <property name="meta.media.sample_aspect_num">1</property>
  <property name="meta.media.sample_aspect_den">1</property>
  <property name="format">3</property>
  <property name="audio_index">-1</property>
  <property name="video_index">0</property>
  <property name="meta.media.frame_rate_num">60</property>
  <property name="meta.media.frame_rate_den">1</property>
  <property name="meta.media.colorspace">601</property>
  <property name="meta.media.color_trc">2</property>
  <property name="meta.media.has_b_frames">0</property>
  <property name="meta.media.width">640</property>
  <property name="meta.media.height">360</property>
  <property name="meta.media.color_range">full</property>
  <property name="kdenlive:clipname">153.mp4</property>
  <property name="kdenlive:clip_type">2</property>
  <property name="kdenlive:folderid">16</property>
  <property name="kdenlive:id">77</property>
  <property name="mute_on_pause">0</property>
  <property name="kdenlive:file_size">73634</property>
  <property name="kdenlive:file_hash">9882c2fe1e2356510d2d4b581e731482</property>
  <property name="kdenlive:proxy">/home/xiaoxiae/.cache/kdenlive/proxy/9882c2fe1e2356510d2d4b581e731482.mkv</property>
  <property name="kdenlive:originalurl">video/Farmer/153.mp4</property>
  <property name="kdenlive:original.mlt_type">chain</property>
  <property name="kdenlive:original.in">0</property>
  <property name="kdenlive:original.out">00:00:01.483</property>
  <property name="kdenlive:original.length">90</property>
  <property name="kdenlive:original.eof">pause</property>
  <property name="kdenlive:original.resource">video/Farmer/153.mp4</property>
  <property name="kdenlive:original.mlt_service">avformat-novalidate</property>
  <property name="kdenlive:original.meta.media.nb_streams">1</property>
  <property name="kdenlive:original.meta.media.0.stream.type">video</property>
  <property name="kdenlive:original.meta.media.0.stream.frame_rate">60</property>
  <property name="kdenlive:original.meta.media.0.stream.sample_aspect_ratio">0</property>
  <property name="kdenlive:original.meta.media.0.codec.width">1920</property>
  <property name="kdenlive:original.meta.media.0.codec.height">1080</property>
  <property name="kdenlive:original.meta.media.0.codec.rotate">0</property>
  <property name="kdenlive:original.meta.media.0.codec.pix_fmt">yuv420p</property>
  <property name="kdenlive:original.meta.media.0.codec.sample_aspect_ratio">0</property>
  <property name="kdenlive:original.meta.media.0.codec.colorspace">709</property>
  <property name="kdenlive:original.meta.media.0.codec.name">h264</property>
  <property name="kdenlive:original.meta.media.0.codec.long_name">H.264 / AVC / MPEG-4 AVC / MPEG-4 part 10</property>
  <property name="kdenlive:original.meta.media.0.codec.bit_rate">382176</property>
  <property name="kdenlive:original.meta.attr.0.stream.handler_name.markup">VideoHandler</property>
  <property name="kdenlive:original.meta.attr.0.stream.vendor_id.markup">[0][0][0][0]</property>
  <property name="kdenlive:original.meta.attr.0.stream.encoder.markup">Lavc60.3.100 libx264</property>
  <property name="kdenlive:original.meta.attr.major_brand.markup">isom</property>
  <property name="kdenlive:original.meta.attr.minor_version.markup">512</property>
  <property name="kdenlive:original.meta.attr.compatible_brands.markup">isomiso2avc1mp41</property>
  <property name="kdenlive:original.meta.attr.encoder.markup">Lavf60.3.100</property>
  <property name="kdenlive:original.meta.attr.comment.markup">Rendered with Manim Community v0.17.3</property>
  <property name="kdenlive:original.seekable">1</property>
  <property name="kdenlive:original.width">1920</property>
  <property name="kdenlive:original.height">1080</property>
  <property name="kdenlive:original.meta.media.sample_aspect_num">1</property>
  <property name="kdenlive:original.meta.media.sample_aspect_den">1</property>
  <property name="kdenlive:original.format">3</property>
  <property name="kdenlive:original.audio_index">-1</property>
  <property name="kdenlive:original.video_index">0</property>
  <property name="kdenlive:original.meta.media.frame_rate_num">60</property>
  <property name="kdenlive:original.meta.media.frame_rate_den">1</property>
  <property name="kdenlive:original.meta.media.colorspace">709</property>
  <property name="kdenlive:original.meta.media.color_trc">2</property>
  <property name="kdenlive:original.meta.media.has_b_frames">2</property>
  <property name="kdenlive:original.meta.media.width">1920</property>
  <property name="kdenlive:original.meta.media.height">1080</property>
  <property name="kdenlive:original.meta.media.color_range">mpeg</property>
  <property name="kdenlive:original.meta.media.top_field_first">0</property>
  <property name="kdenlive:original.meta.media.progressive">1</property>
  <property name="kdenlive:original.kdenlive:clip_type">2</property>
  <property name="kdenlive:original.kdenlive:folderid">16</property>
  <property name="kdenlive:original.kdenlive:id">77</property>
  <property name="kdenlive:original.mute_on_pause">0</property>
  <property name="kdenlive:original.kdenlive:file_size">73634</property>
  <property name="kdenlive:original.kdenlive:file_hash">9882c2fe1e2356510d2d4b581e731482</property>
  <property name="kdenlive:original.backup">1</property>
  <property name="meta.media.top_field_first">0</property>
  <property name="meta.media.progressive">1</property>
 </chain>
 <chain id="chain165" out="00:00:01.983">
  <property name="length">120</property>
  <property name="eof">pause</property>
  <property name="resource">/home/xiaoxiae/.cache/kdenlive/proxy/2c034d37186a755ec6215a1f5f0996ec.mkv</property>
  <property name="mlt_service">avformat-novalidate</property>
  <property name="meta.media.nb_streams">1</property>
  <property name="meta.media.0.stream.type">video</property>
  <property name="meta.media.0.stream.frame_rate">60</property>
  <property name="meta.media.0.stream.sample_aspect_ratio">0</property>
  <property name="meta.media.0.codec.width">640</property>
  <property name="meta.media.0.codec.height">360</property>
  <property name="meta.media.0.codec.rotate">0</property>
  <property name="meta.media.0.codec.pix_fmt">yuvj420p</property>
  <property name="meta.media.0.codec.sample_aspect_ratio">0</property>
  <property name="meta.media.0.codec.colorspace">601</property>
  <property name="meta.media.0.codec.name">mjpeg</property>
  <property name="meta.media.0.codec.long_name">MJPEG (Motion JPEG)</property>
  <property name="meta.media.0.codec.bit_rate">0</property>
  <property name="meta.attr.0.stream.HANDLER_NAME.markup">VideoHandler</property>
  <property name="meta.attr.0.stream.VENDOR_ID.markup">[0][0][0][0]</property>
  <property name="meta.attr.0.stream.ENCODER.markup">Lavc60.3.100 mjpeg</property>
  <property name="meta.attr.0.stream.DURATION.markup">00:00:02.000000000</property>
  <property name="meta.attr.COMMENT.markup">Rendered with Manim Community v0.17.3</property>
  <property name="meta.attr.MAJOR_BRAND.markup">isom</property>
  <property name="meta.attr.MINOR_VERSION.markup">512</property>
  <property name="meta.attr.COMPATIBLE_BRANDS.markup">isomiso2avc1mp41</property>
  <property name="meta.attr.ENCODER.markup">Lavf60.3.100</property>
  <property name="seekable">1</property>
  <property name="meta.media.sample_aspect_num">1</property>
  <property name="meta.media.sample_aspect_den">1</property>
  <property name="format">3</property>
  <property name="audio_index">-1</property>
  <property name="video_index">0</property>
  <property name="meta.media.frame_rate_num">60</property>
  <property name="meta.media.frame_rate_den">1</property>
  <property name="meta.media.colorspace">601</property>
  <property name="meta.media.color_trc">2</property>
  <property name="meta.media.has_b_frames">0</property>
  <property name="meta.media.width">640</property>
  <property name="meta.media.height">360</property>
  <property name="meta.media.color_range">full</property>
  <property name="kdenlive:clipname">154.mp4</property>
  <property name="kdenlive:clip_type">2</property>
  <property name="kdenlive:folderid">16</property>
  <property name="kdenlive:id">78</property>
  <property name="mute_on_pause">0</property>
  <property name="kdenlive:file_size">112864</property>
  <property name="kdenlive:file_hash">2c034d37186a755ec6215a1f5f0996ec</property>
  <property name="kdenlive:proxy">/home/xiaoxiae/.cache/kdenlive/proxy/2c034d37186a755ec6215a1f5f0996ec.mkv</property>
  <property name="kdenlive:originalurl">video/Farmer/154.mp4</property>
  <property name="kdenlive:original.mlt_type">chain</property>
  <property name="kdenlive:original.in">0</property>
  <property name="kdenlive:original.out">00:00:01.983</property>
  <property name="kdenlive:original.length">120</property>
  <property name="kdenlive:original.eof">pause</property>
  <property name="kdenlive:original.resource">video/Farmer/154.mp4</property>
  <property name="kdenlive:original.mlt_service">avformat-novalidate</property>
  <property name="kdenlive:original.meta.media.nb_streams">1</property>
  <property name="kdenlive:original.meta.media.0.stream.type">video</property>
  <property name="kdenlive:original.meta.media.0.stream.frame_rate">60</property>
  <property name="kdenlive:original.meta.media.0.stream.sample_aspect_ratio">0</property>
  <property name="kdenlive:original.meta.media.0.codec.width">1920</property>
  <property name="kdenlive:original.meta.media.0.codec.height">1080</property>
  <property name="kdenlive:original.meta.media.0.codec.rotate">0</property>
  <property name="kdenlive:original.meta.media.0.codec.pix_fmt">yuv420p</property>
  <property name="kdenlive:original.meta.media.0.codec.sample_aspect_ratio">0</property>
  <property name="kdenlive:original.meta.media.0.codec.colorspace">709</property>
  <property name="kdenlive:original.meta.media.0.codec.name">h264</property>
  <property name="kdenlive:original.meta.media.0.codec.long_name">H.264 / AVC / MPEG-4 AVC / MPEG-4 part 10</property>
  <property name="kdenlive:original.meta.media.0.codec.bit_rate">442240</property>
  <property name="kdenlive:original.meta.attr.0.stream.handler_name.markup">VideoHandler</property>
  <property name="kdenlive:original.meta.attr.0.stream.vendor_id.markup">[0][0][0][0]</property>
  <property name="kdenlive:original.meta.attr.0.stream.encoder.markup">Lavc60.3.100 libx264</property>
  <property name="kdenlive:original.meta.attr.major_brand.markup">isom</property>
  <property name="kdenlive:original.meta.attr.minor_version.markup">512</property>
  <property name="kdenlive:original.meta.attr.compatible_brands.markup">isomiso2avc1mp41</property>
  <property name="kdenlive:original.meta.attr.encoder.markup">Lavf60.3.100</property>
  <property name="kdenlive:original.meta.attr.comment.markup">Rendered with Manim Community v0.17.3</property>
  <property name="kdenlive:original.seekable">1</property>
  <property name="kdenlive:original.width">1920</property>
  <property name="kdenlive:original.height">1080</property>
  <property name="kdenlive:original.meta.media.sample_aspect_num">1</property>
  <property name="kdenlive:original.meta.media.sample_aspect_den">1</property>
  <property name="kdenlive:original.format">3</property>
  <property name="kdenlive:original.audio_index">-1</property>
  <property name="kdenlive:original.video_index">0</property>
  <property name="kdenlive:original.meta.media.frame_rate_num">60</property>
  <property name="kdenlive:original.meta.media.frame_rate_den">1</property>
  <property name="kdenlive:original.meta.media.colorspace">709</property>
  <property name="kdenlive:original.meta.media.color_trc">2</property>
  <property name="kdenlive:original.meta.media.has_b_frames">2</property>
  <property name="kdenlive:original.meta.media.width">1920</property>
  <property name="kdenlive:original.meta.media.height">1080</property>
  <property name="kdenlive:original.meta.media.color_range">mpeg</property>
  <property name="kdenlive:original.meta.media.top_field_first">0</property>
  <property name="kdenlive:original.meta.media.progressive">1</property>
  <property name="kdenlive:original.kdenlive:clip_type">2</property>
  <property name="kdenlive:original.kdenlive:folderid">16</property>
  <property name="kdenlive:original.kdenlive:id">78</property>
  <property name="kdenlive:original.mute_on_pause">0</property>
  <property name="kdenlive:original.kdenlive:file_size">112864</property>
  <property name="kdenlive:original.kdenlive:file_hash">2c034d37186a755ec6215a1f5f0996ec</property>
  <property name="kdenlive:original.backup">1</property>
  <property name="meta.media.top_field_first">0</property>
  <property name="meta.media.progressive">1</property>
 </chain>
 <chain id="chain164" out="00:00:00.983">
  <property name="length">60</property>
  <property name="eof">pause</property>
  <property name="resource">/home/xiaoxiae/.cache/kdenlive/proxy/43e7875e9831a60b14c94bbccf64ca7b.mkv</property>
  <property name="mlt_service">avformat-novalidate</property>
  <property name="meta.media.nb_streams">1</property>
  <property name="meta.media.0.stream.type">video</property>
  <property name="meta.media.0.stream.frame_rate">60</property>
  <property name="meta.media.0.stream.sample_aspect_ratio">0</property>
  <property name="meta.media.0.codec.width">640</property>
  <property name="meta.media.0.codec.height">360</property>
  <property name="meta.media.0.codec.rotate">0</property>
  <property name="meta.media.0.codec.pix_fmt">yuvj420p</property>
  <property name="meta.media.0.codec.sample_aspect_ratio">0</property>
  <property name="meta.media.0.codec.colorspace">601</property>
  <property name="meta.media.0.codec.name">mjpeg</property>
  <property name="meta.media.0.codec.long_name">MJPEG (Motion JPEG)</property>
  <property name="meta.media.0.codec.bit_rate">0</property>
  <property name="meta.attr.0.stream.HANDLER_NAME.markup">VideoHandler</property>
  <property name="meta.attr.0.stream.VENDOR_ID.markup">[0][0][0][0]</property>
  <property name="meta.attr.0.stream.ENCODER.markup">Lavc60.3.100 mjpeg</property>
  <property name="meta.attr.0.stream.DURATION.markup">00:00:01.000000000</property>
  <property name="meta.attr.COMMENT.markup">Rendered with Manim Community v0.17.3</property>
  <property name="meta.attr.MAJOR_BRAND.markup">isom</property>
  <property name="meta.attr.MINOR_VERSION.markup">512</property>
  <property name="meta.attr.COMPATIBLE_BRANDS.markup">isomiso2avc1mp41</property>
  <property name="meta.attr.ENCODER.markup">Lavf60.3.100</property>
  <property name="seekable">1</property>
  <property name="meta.media.sample_aspect_num">1</property>
  <property name="meta.media.sample_aspect_den">1</property>
  <property name="format">3</property>
  <property name="audio_index">-1</property>
  <property name="video_index">0</property>
  <property name="meta.media.frame_rate_num">60</property>
  <property name="meta.media.frame_rate_den">1</property>
  <property name="meta.media.colorspace">601</property>
  <property name="meta.media.color_trc">2</property>
  <property name="meta.media.has_b_frames">0</property>
  <property name="meta.media.width">640</property>
  <property name="meta.media.height">360</property>
  <property name="meta.media.color_range">full</property>
  <property name="kdenlive:clipname">155.mp4</property>
  <property name="kdenlive:clip_type">2</property>
  <property name="kdenlive:folderid">16</property>
  <property name="kdenlive:id">79</property>
  <property name="mute_on_pause">0</property>
  <property name="kdenlive:file_size">65493</property>
  <property name="kdenlive:file_hash">43e7875e9831a60b14c94bbccf64ca7b</property>
  <property name="kdenlive:proxy">/home/xiaoxiae/.cache/kdenlive/proxy/43e7875e9831a60b14c94bbccf64ca7b.mkv</property>
  <property name="kdenlive:originalurl">video/Farmer/155.mp4</property>
  <property name="kdenlive:original.mlt_type">chain</property>
  <property name="kdenlive:original.in">0</property>
  <property name="kdenlive:original.out">00:00:00.983</property>
  <property name="kdenlive:original.length">60</property>
  <property name="kdenlive:original.eof">pause</property>
  <property name="kdenlive:original.resource">video/Farmer/155.mp4</property>
  <property name="kdenlive:original.mlt_service">avformat-novalidate</property>
  <property name="kdenlive:original.meta.media.nb_streams">1</property>
  <property name="kdenlive:original.meta.media.0.stream.type">video</property>
  <property name="kdenlive:original.meta.media.0.stream.frame_rate">60</property>
  <property name="kdenlive:original.meta.media.0.stream.sample_aspect_ratio">0</property>
  <property name="kdenlive:original.meta.media.0.codec.width">1920</property>
  <property name="kdenlive:original.meta.media.0.codec.height">1080</property>
  <property name="kdenlive:original.meta.media.0.codec.rotate">0</property>
  <property name="kdenlive:original.meta.media.0.codec.pix_fmt">yuv420p</property>
  <property name="kdenlive:original.meta.media.0.codec.sample_aspect_ratio">0</property>
  <property name="kdenlive:original.meta.media.0.codec.colorspace">709</property>
  <property name="kdenlive:original.meta.media.0.codec.name">h264</property>
  <property name="kdenlive:original.meta.media.0.codec.long_name">H.264 / AVC / MPEG-4 AVC / MPEG-4 part 10</property>
  <property name="kdenlive:original.meta.media.0.codec.bit_rate">510888</property>
  <property name="kdenlive:original.meta.attr.0.stream.handler_name.markup">VideoHandler</property>
  <property name="kdenlive:original.meta.attr.0.stream.vendor_id.markup">[0][0][0][0]</property>
  <property name="kdenlive:original.meta.attr.0.stream.encoder.markup">Lavc60.3.100 libx264</property>
  <property name="kdenlive:original.meta.attr.major_brand.markup">isom</property>
  <property name="kdenlive:original.meta.attr.minor_version.markup">512</property>
  <property name="kdenlive:original.meta.attr.compatible_brands.markup">isomiso2avc1mp41</property>
  <property name="kdenlive:original.meta.attr.encoder.markup">Lavf60.3.100</property>
  <property name="kdenlive:original.meta.attr.comment.markup">Rendered with Manim Community v0.17.3</property>
  <property name="kdenlive:original.seekable">1</property>
  <property name="kdenlive:original.width">1920</property>
  <property name="kdenlive:original.height">1080</property>
  <property name="kdenlive:original.meta.media.sample_aspect_num">1</property>
  <property name="kdenlive:original.meta.media.sample_aspect_den">1</property>
  <property name="kdenlive:original.format">3</property>
  <property name="kdenlive:original.audio_index">-1</property>
  <property name="kdenlive:original.video_index">0</property>
  <property name="kdenlive:original.meta.media.frame_rate_num">60</property>
  <property name="kdenlive:original.meta.media.frame_rate_den">1</property>
  <property name="kdenlive:original.meta.media.colorspace">709</property>
  <property name="kdenlive:original.meta.media.color_trc">2</property>
  <property name="kdenlive:original.meta.media.has_b_frames">2</property>
  <property name="kdenlive:original.meta.media.width">1920</property>
  <property name="kdenlive:original.meta.media.height">1080</property>
  <property name="kdenlive:original.meta.media.color_range">mpeg</property>
  <property name="kdenlive:original.meta.media.top_field_first">0</property>
  <property name="kdenlive:original.meta.media.progressive">1</property>
  <property name="kdenlive:original.kdenlive:clip_type">2</property>
  <property name="kdenlive:original.kdenlive:folderid">16</property>
  <property name="kdenlive:original.kdenlive:id">79</property>
  <property name="kdenlive:original.mute_on_pause">0</property>
  <property name="kdenlive:original.kdenlive:file_size">65493</property>
  <property name="kdenlive:original.kdenlive:file_hash">43e7875e9831a60b14c94bbccf64ca7b</property>
  <property name="kdenlive:original.backup">1</property>
  <property name="meta.media.top_field_first">0</property>
  <property name="meta.media.progressive">1</property>
 </chain>
 <chain id="chain160" out="00:00:00.983">
  <property name="length">60</property>
  <property name="eof">pause</property>
  <property name="resource">/home/xiaoxiae/.cache/kdenlive/proxy/5ecbb07526efc3a430ef64f6da4c0983.mkv</property>
  <property name="mlt_service">avformat-novalidate</property>
  <property name="meta.media.nb_streams">1</property>
  <property name="meta.media.0.stream.type">video</property>
  <property name="meta.media.0.stream.frame_rate">60</property>
  <property name="meta.media.0.stream.sample_aspect_ratio">0</property>
  <property name="meta.media.0.codec.width">640</property>
  <property name="meta.media.0.codec.height">360</property>
  <property name="meta.media.0.codec.rotate">0</property>
  <property name="meta.media.0.codec.pix_fmt">yuvj420p</property>
  <property name="meta.media.0.codec.sample_aspect_ratio">0</property>
  <property name="meta.media.0.codec.colorspace">601</property>
  <property name="meta.media.0.codec.name">mjpeg</property>
  <property name="meta.media.0.codec.long_name">MJPEG (Motion JPEG)</property>
  <property name="meta.media.0.codec.bit_rate">0</property>
  <property name="meta.attr.0.stream.HANDLER_NAME.markup">VideoHandler</property>
  <property name="meta.attr.0.stream.VENDOR_ID.markup">[0][0][0][0]</property>
  <property name="meta.attr.0.stream.ENCODER.markup">Lavc60.3.100 mjpeg</property>
  <property name="meta.attr.0.stream.DURATION.markup">00:00:01.000000000</property>
  <property name="meta.attr.COMMENT.markup">Rendered with Manim Community v0.17.3</property>
  <property name="meta.attr.MAJOR_BRAND.markup">isom</property>
  <property name="meta.attr.MINOR_VERSION.markup">512</property>
  <property name="meta.attr.COMPATIBLE_BRANDS.markup">isomiso2avc1mp41</property>
  <property name="meta.attr.ENCODER.markup">Lavf60.3.100</property>
  <property name="seekable">1</property>
  <property name="meta.media.sample_aspect_num">1</property>
  <property name="meta.media.sample_aspect_den">1</property>
  <property name="format">3</property>
  <property name="audio_index">-1</property>
  <property name="video_index">0</property>
  <property name="meta.media.frame_rate_num">60</property>
  <property name="meta.media.frame_rate_den">1</property>
  <property name="meta.media.colorspace">601</property>
  <property name="meta.media.color_trc">2</property>
  <property name="meta.media.has_b_frames">0</property>
  <property name="meta.media.width">640</property>
  <property name="meta.media.height">360</property>
  <property name="meta.media.color_range">full</property>
  <property name="kdenlive:clipname">156.mp4</property>
  <property name="kdenlive:clip_type">2</property>
  <property name="kdenlive:folderid">16</property>
  <property name="kdenlive:id">80</property>
  <property name="mute_on_pause">0</property>
  <property name="kdenlive:file_size">65977</property>
  <property name="kdenlive:file_hash">5ecbb07526efc3a430ef64f6da4c0983</property>
  <property name="kdenlive:proxy">/home/xiaoxiae/.cache/kdenlive/proxy/5ecbb07526efc3a430ef64f6da4c0983.mkv</property>
  <property name="kdenlive:originalurl">video/Farmer/156.mp4</property>
  <property name="kdenlive:original.mlt_type">chain</property>
  <property name="kdenlive:original.in">0</property>
  <property name="kdenlive:original.out">00:00:00.983</property>
  <property name="kdenlive:original.length">60</property>
  <property name="kdenlive:original.eof">pause</property>
  <property name="kdenlive:original.resource">video/Farmer/156.mp4</property>
  <property name="kdenlive:original.mlt_service">avformat-novalidate</property>
  <property name="kdenlive:original.meta.media.nb_streams">1</property>
  <property name="kdenlive:original.meta.media.0.stream.type">video</property>
  <property name="kdenlive:original.meta.media.0.stream.frame_rate">60</property>
  <property name="kdenlive:original.meta.media.0.stream.sample_aspect_ratio">0</property>
  <property name="kdenlive:original.meta.media.0.codec.width">1920</property>
  <property name="kdenlive:original.meta.media.0.codec.height">1080</property>
  <property name="kdenlive:original.meta.media.0.codec.rotate">0</property>
  <property name="kdenlive:original.meta.media.0.codec.pix_fmt">yuv420p</property>
  <property name="kdenlive:original.meta.media.0.codec.sample_aspect_ratio">0</property>
  <property name="kdenlive:original.meta.media.0.codec.colorspace">709</property>
  <property name="kdenlive:original.meta.media.0.codec.name">h264</property>
  <property name="kdenlive:original.meta.media.0.codec.long_name">H.264 / AVC / MPEG-4 AVC / MPEG-4 part 10</property>
  <property name="kdenlive:original.meta.media.0.codec.bit_rate">514760</property>
  <property name="kdenlive:original.meta.attr.0.stream.handler_name.markup">VideoHandler</property>
  <property name="kdenlive:original.meta.attr.0.stream.vendor_id.markup">[0][0][0][0]</property>
  <property name="kdenlive:original.meta.attr.0.stream.encoder.markup">Lavc60.3.100 libx264</property>
  <property name="kdenlive:original.meta.attr.major_brand.markup">isom</property>
  <property name="kdenlive:original.meta.attr.minor_version.markup">512</property>
  <property name="kdenlive:original.meta.attr.compatible_brands.markup">isomiso2avc1mp41</property>
  <property name="kdenlive:original.meta.attr.encoder.markup">Lavf60.3.100</property>
  <property name="kdenlive:original.meta.attr.comment.markup">Rendered with Manim Community v0.17.3</property>
  <property name="kdenlive:original.seekable">1</property>
  <property name="kdenlive:original.width">1920</property>
  <property name="kdenlive:original.height">1080</property>
  <property name="kdenlive:original.meta.media.sample_aspect_num">1</property>
  <property name="kdenlive:original.meta.media.sample_aspect_den">1</property>
  <property name="kdenlive:original.format">3</property>
  <property name="kdenlive:original.audio_index">-1</property>
  <property name="kdenlive:original.video_index">0</property>
  <property name="kdenlive:original.meta.media.frame_rate_num">60</property>
  <property name="kdenlive:original.meta.media.frame_rate_den">1</property>
  <property name="kdenlive:original.meta.media.colorspace">709</property>
  <property name="kdenlive:original.meta.media.color_trc">2</property>
  <property name="kdenlive:original.meta.media.has_b_frames">2</property>
  <property name="kdenlive:original.meta.media.width">1920</property>
  <property name="kdenlive:original.meta.media.height">1080</property>
  <property name="kdenlive:original.meta.media.color_range">mpeg</property>
  <property name="kdenlive:original.meta.media.top_field_first">0</property>
  <property name="kdenlive:original.meta.media.progressive">1</property>
  <property name="kdenlive:original.kdenlive:clip_type">2</property>
  <property name="kdenlive:original.kdenlive:folderid">16</property>
  <property name="kdenlive:original.kdenlive:id">80</property>
  <property name="kdenlive:original.mute_on_pause">0</property>
  <property name="kdenlive:original.kdenlive:file_size">65977</property>
  <property name="kdenlive:original.kdenlive:file_hash">5ecbb07526efc3a430ef64f6da4c0983</property>
  <property name="kdenlive:original.backup">1</property>
  <property name="meta.media.top_field_first">0</property>
  <property name="meta.media.progressive">1</property>
 </chain>
 <chain id="chain159" out="00:00:01.983">
  <property name="length">120</property>
  <property name="eof">pause</property>
  <property name="resource">/home/xiaoxiae/.cache/kdenlive/proxy/b1b56ca25c8dc3696c0b3141179e5a4f.mkv</property>
  <property name="mlt_service">avformat-novalidate</property>
  <property name="meta.media.nb_streams">1</property>
  <property name="meta.media.0.stream.type">video</property>
  <property name="meta.media.0.stream.frame_rate">60</property>
  <property name="meta.media.0.stream.sample_aspect_ratio">0</property>
  <property name="meta.media.0.codec.width">640</property>
  <property name="meta.media.0.codec.height">360</property>
  <property name="meta.media.0.codec.rotate">0</property>
  <property name="meta.media.0.codec.pix_fmt">yuvj420p</property>
  <property name="meta.media.0.codec.sample_aspect_ratio">0</property>
  <property name="meta.media.0.codec.colorspace">601</property>
  <property name="meta.media.0.codec.name">mjpeg</property>
  <property name="meta.media.0.codec.long_name">MJPEG (Motion JPEG)</property>
  <property name="meta.media.0.codec.bit_rate">0</property>
  <property name="meta.attr.0.stream.HANDLER_NAME.markup">VideoHandler</property>
  <property name="meta.attr.0.stream.VENDOR_ID.markup">[0][0][0][0]</property>
  <property name="meta.attr.0.stream.ENCODER.markup">Lavc60.3.100 mjpeg</property>
  <property name="meta.attr.0.stream.DURATION.markup">00:00:02.000000000</property>
  <property name="meta.attr.COMMENT.markup">Rendered with Manim Community v0.17.3</property>
  <property name="meta.attr.MAJOR_BRAND.markup">isom</property>
  <property name="meta.attr.MINOR_VERSION.markup">512</property>
  <property name="meta.attr.COMPATIBLE_BRANDS.markup">isomiso2avc1mp41</property>
  <property name="meta.attr.ENCODER.markup">Lavf60.3.100</property>
  <property name="seekable">1</property>
  <property name="meta.media.sample_aspect_num">1</property>
  <property name="meta.media.sample_aspect_den">1</property>
  <property name="format">3</property>
  <property name="audio_index">-1</property>
  <property name="video_index">0</property>
  <property name="meta.media.frame_rate_num">60</property>
  <property name="meta.media.frame_rate_den">1</property>
  <property name="meta.media.colorspace">601</property>
  <property name="meta.media.color_trc">2</property>
  <property name="meta.media.has_b_frames">0</property>
  <property name="meta.media.width">640</property>
  <property name="meta.media.height">360</property>
  <property name="meta.media.color_range">full</property>
  <property name="kdenlive:clipname">157.mp4</property>
  <property name="kdenlive:clip_type">2</property>
  <property name="kdenlive:folderid">16</property>
  <property name="kdenlive:id">81</property>
  <property name="mute_on_pause">0</property>
  <property name="kdenlive:file_size">247371</property>
  <property name="kdenlive:file_hash">b1b56ca25c8dc3696c0b3141179e5a4f</property>
  <property name="kdenlive:proxy">/home/xiaoxiae/.cache/kdenlive/proxy/b1b56ca25c8dc3696c0b3141179e5a4f.mkv</property>
  <property name="kdenlive:originalurl">video/Farmer/157.mp4</property>
  <property name="kdenlive:original.mlt_type">chain</property>
  <property name="kdenlive:original.in">0</property>
  <property name="kdenlive:original.out">00:00:01.983</property>
  <property name="kdenlive:original.length">120</property>
  <property name="kdenlive:original.eof">pause</property>
  <property name="kdenlive:original.resource">video/Farmer/157.mp4</property>
  <property name="kdenlive:original.mlt_service">avformat-novalidate</property>
  <property name="kdenlive:original.meta.media.nb_streams">1</property>
  <property name="kdenlive:original.meta.media.0.stream.type">video</property>
  <property name="kdenlive:original.meta.media.0.stream.frame_rate">60</property>
  <property name="kdenlive:original.meta.media.0.stream.sample_aspect_ratio">0</property>
  <property name="kdenlive:original.meta.media.0.codec.width">1920</property>
  <property name="kdenlive:original.meta.media.0.codec.height">1080</property>
  <property name="kdenlive:original.meta.media.0.codec.rotate">0</property>
  <property name="kdenlive:original.meta.media.0.codec.pix_fmt">yuv420p</property>
  <property name="kdenlive:original.meta.media.0.codec.sample_aspect_ratio">0</property>
  <property name="kdenlive:original.meta.media.0.codec.colorspace">709</property>
  <property name="kdenlive:original.meta.media.0.codec.name">h264</property>
  <property name="kdenlive:original.meta.media.0.codec.long_name">H.264 / AVC / MPEG-4 AVC / MPEG-4 part 10</property>
  <property name="kdenlive:original.meta.media.0.codec.bit_rate">980300</property>
  <property name="kdenlive:original.meta.attr.0.stream.handler_name.markup">VideoHandler</property>
  <property name="kdenlive:original.meta.attr.0.stream.vendor_id.markup">[0][0][0][0]</property>
  <property name="kdenlive:original.meta.attr.0.stream.encoder.markup">Lavc60.3.100 libx264</property>
  <property name="kdenlive:original.meta.attr.major_brand.markup">isom</property>
  <property name="kdenlive:original.meta.attr.minor_version.markup">512</property>
  <property name="kdenlive:original.meta.attr.compatible_brands.markup">isomiso2avc1mp41</property>
  <property name="kdenlive:original.meta.attr.encoder.markup">Lavf60.3.100</property>
  <property name="kdenlive:original.meta.attr.comment.markup">Rendered with Manim Community v0.17.3</property>
  <property name="kdenlive:original.seekable">1</property>
  <property name="kdenlive:original.width">1920</property>
  <property name="kdenlive:original.height">1080</property>
  <property name="kdenlive:original.meta.media.sample_aspect_num">1</property>
  <property name="kdenlive:original.meta.media.sample_aspect_den">1</property>
  <property name="kdenlive:original.format">3</property>
  <property name="kdenlive:original.audio_index">-1</property>
  <property name="kdenlive:original.video_index">0</property>
  <property name="kdenlive:original.meta.media.frame_rate_num">60</property>
  <property name="kdenlive:original.meta.media.frame_rate_den">1</property>
  <property name="kdenlive:original.meta.media.colorspace">709</property>
  <property name="kdenlive:original.meta.media.color_trc">2</property>
  <property name="kdenlive:original.meta.media.has_b_frames">2</property>
  <property name="kdenlive:original.meta.media.width">1920</property>
  <property name="kdenlive:original.meta.media.height">1080</property>
  <property name="kdenlive:original.meta.media.color_range">mpeg</property>
  <property name="kdenlive:original.meta.media.top_field_first">0</property>
  <property name="kdenlive:original.meta.media.progressive">1</property>
  <property name="kdenlive:original.kdenlive:clip_type">2</property>
  <property name="kdenlive:original.kdenlive:folderid">16</property>
  <property name="kdenlive:original.kdenlive:id">81</property>
  <property name="kdenlive:original.mute_on_pause">0</property>
  <property name="kdenlive:original.kdenlive:file_size">247371</property>
  <property name="kdenlive:original.kdenlive:file_hash">b1b56ca25c8dc3696c0b3141179e5a4f</property>
  <property name="kdenlive:original.backup">1</property>
  <property name="meta.media.top_field_first">0</property>
  <property name="meta.media.progressive">1</property>
 </chain>
 <chain id="chain156" out="00:00:00.983">
  <property name="length">60</property>
  <property name="eof">pause</property>
  <property name="resource">/home/xiaoxiae/.cache/kdenlive/proxy/7a0beda9d126f2d42b50de51541bdbac.mkv</property>
  <property name="mlt_service">avformat-novalidate</property>
  <property name="meta.media.nb_streams">1</property>
  <property name="meta.media.0.stream.type">video</property>
  <property name="meta.media.0.stream.frame_rate">60</property>
  <property name="meta.media.0.stream.sample_aspect_ratio">0</property>
  <property name="meta.media.0.codec.width">640</property>
  <property name="meta.media.0.codec.height">360</property>
  <property name="meta.media.0.codec.rotate">0</property>
  <property name="meta.media.0.codec.pix_fmt">yuvj420p</property>
  <property name="meta.media.0.codec.sample_aspect_ratio">0</property>
  <property name="meta.media.0.codec.colorspace">601</property>
  <property name="meta.media.0.codec.name">mjpeg</property>
  <property name="meta.media.0.codec.long_name">MJPEG (Motion JPEG)</property>
  <property name="meta.media.0.codec.bit_rate">0</property>
  <property name="meta.attr.0.stream.HANDLER_NAME.markup">VideoHandler</property>
  <property name="meta.attr.0.stream.VENDOR_ID.markup">[0][0][0][0]</property>
  <property name="meta.attr.0.stream.ENCODER.markup">Lavc60.3.100 mjpeg</property>
  <property name="meta.attr.0.stream.DURATION.markup">00:00:01.000000000</property>
  <property name="meta.attr.COMMENT.markup">Rendered with Manim Community v0.17.3</property>
  <property name="meta.attr.MAJOR_BRAND.markup">isom</property>
  <property name="meta.attr.MINOR_VERSION.markup">512</property>
  <property name="meta.attr.COMPATIBLE_BRANDS.markup">isomiso2avc1mp41</property>
  <property name="meta.attr.ENCODER.markup">Lavf60.3.100</property>
  <property name="seekable">1</property>
  <property name="meta.media.sample_aspect_num">1</property>
  <property name="meta.media.sample_aspect_den">1</property>
  <property name="format">3</property>
  <property name="audio_index">-1</property>
  <property name="video_index">0</property>
  <property name="meta.media.frame_rate_num">60</property>
  <property name="meta.media.frame_rate_den">1</property>
  <property name="meta.media.colorspace">601</property>
  <property name="meta.media.color_trc">2</property>
  <property name="meta.media.has_b_frames">0</property>
  <property name="meta.media.width">640</property>
  <property name="meta.media.height">360</property>
  <property name="meta.media.color_range">full</property>
  <property name="kdenlive:clipname">158.mp4</property>
  <property name="kdenlive:clip_type">2</property>
  <property name="kdenlive:folderid">16</property>
  <property name="kdenlive:id">82</property>
  <property name="mute_on_pause">0</property>
  <property name="kdenlive:file_size">59138</property>
  <property name="kdenlive:file_hash">7a0beda9d126f2d42b50de51541bdbac</property>
  <property name="kdenlive:proxy">/home/xiaoxiae/.cache/kdenlive/proxy/7a0beda9d126f2d42b50de51541bdbac.mkv</property>
  <property name="kdenlive:originalurl">video/Farmer/158.mp4</property>
  <property name="kdenlive:original.mlt_type">chain</property>
  <property name="kdenlive:original.in">0</property>
  <property name="kdenlive:original.out">00:00:00.983</property>
  <property name="kdenlive:original.length">60</property>
  <property name="kdenlive:original.eof">pause</property>
  <property name="kdenlive:original.resource">video/Farmer/158.mp4</property>
  <property name="kdenlive:original.mlt_service">avformat-novalidate</property>
  <property name="kdenlive:original.meta.media.nb_streams">1</property>
  <property name="kdenlive:original.meta.media.0.stream.type">video</property>
  <property name="kdenlive:original.meta.media.0.stream.frame_rate">60</property>
  <property name="kdenlive:original.meta.media.0.stream.sample_aspect_ratio">0</property>
  <property name="kdenlive:original.meta.media.0.codec.width">1920</property>
  <property name="kdenlive:original.meta.media.0.codec.height">1080</property>
  <property name="kdenlive:original.meta.media.0.codec.rotate">0</property>
  <property name="kdenlive:original.meta.media.0.codec.pix_fmt">yuv420p</property>
  <property name="kdenlive:original.meta.media.0.codec.sample_aspect_ratio">0</property>
  <property name="kdenlive:original.meta.media.0.codec.colorspace">709</property>
  <property name="kdenlive:original.meta.media.0.codec.name">h264</property>
  <property name="kdenlive:original.meta.media.0.codec.long_name">H.264 / AVC / MPEG-4 AVC / MPEG-4 part 10</property>
  <property name="kdenlive:original.meta.media.0.codec.bit_rate">460048</property>
  <property name="kdenlive:original.meta.attr.0.stream.handler_name.markup">VideoHandler</property>
  <property name="kdenlive:original.meta.attr.0.stream.vendor_id.markup">[0][0][0][0]</property>
  <property name="kdenlive:original.meta.attr.0.stream.encoder.markup">Lavc60.3.100 libx264</property>
  <property name="kdenlive:original.meta.attr.major_brand.markup">isom</property>
  <property name="kdenlive:original.meta.attr.minor_version.markup">512</property>
  <property name="kdenlive:original.meta.attr.compatible_brands.markup">isomiso2avc1mp41</property>
  <property name="kdenlive:original.meta.attr.encoder.markup">Lavf60.3.100</property>
  <property name="kdenlive:original.meta.attr.comment.markup">Rendered with Manim Community v0.17.3</property>
  <property name="kdenlive:original.seekable">1</property>
  <property name="kdenlive:original.width">1920</property>
  <property name="kdenlive:original.height">1080</property>
  <property name="kdenlive:original.meta.media.sample_aspect_num">1</property>
  <property name="kdenlive:original.meta.media.sample_aspect_den">1</property>
  <property name="kdenlive:original.format">3</property>
  <property name="kdenlive:original.audio_index">-1</property>
  <property name="kdenlive:original.video_index">0</property>
  <property name="kdenlive:original.meta.media.frame_rate_num">60</property>
  <property name="kdenlive:original.meta.media.frame_rate_den">1</property>
  <property name="kdenlive:original.meta.media.colorspace">709</property>
  <property name="kdenlive:original.meta.media.color_trc">2</property>
  <property name="kdenlive:original.meta.media.has_b_frames">2</property>
  <property name="kdenlive:original.meta.media.width">1920</property>
  <property name="kdenlive:original.meta.media.height">1080</property>
  <property name="kdenlive:original.meta.media.color_range">mpeg</property>
  <property name="kdenlive:original.meta.media.top_field_first">0</property>
  <property name="kdenlive:original.meta.media.progressive">1</property>
  <property name="kdenlive:original.kdenlive:clip_type">2</property>
  <property name="kdenlive:original.kdenlive:folderid">16</property>
  <property name="kdenlive:original.kdenlive:id">82</property>
  <property name="kdenlive:original.mute_on_pause">0</property>
  <property name="kdenlive:original.kdenlive:file_size">59138</property>
  <property name="kdenlive:original.kdenlive:file_hash">7a0beda9d126f2d42b50de51541bdbac</property>
  <property name="kdenlive:original.backup">1</property>
  <property name="meta.media.top_field_first">0</property>
  <property name="meta.media.progressive">1</property>
 </chain>
 <chain id="chain155" out="00:00:01.483">
  <property name="length">90</property>
  <property name="eof">pause</property>
  <property name="resource">/home/xiaoxiae/.cache/kdenlive/proxy/5c5769b0737bd90332d1bb295969acaf.mkv</property>
  <property name="mlt_service">avformat-novalidate</property>
  <property name="meta.media.nb_streams">1</property>
  <property name="meta.media.0.stream.type">video</property>
  <property name="meta.media.0.stream.frame_rate">60</property>
  <property name="meta.media.0.stream.sample_aspect_ratio">0</property>
  <property name="meta.media.0.codec.width">640</property>
  <property name="meta.media.0.codec.height">360</property>
  <property name="meta.media.0.codec.rotate">0</property>
  <property name="meta.media.0.codec.pix_fmt">yuvj420p</property>
  <property name="meta.media.0.codec.sample_aspect_ratio">0</property>
  <property name="meta.media.0.codec.colorspace">601</property>
  <property name="meta.media.0.codec.name">mjpeg</property>
  <property name="meta.media.0.codec.long_name">MJPEG (Motion JPEG)</property>
  <property name="meta.media.0.codec.bit_rate">0</property>
  <property name="meta.attr.0.stream.HANDLER_NAME.markup">VideoHandler</property>
  <property name="meta.attr.0.stream.VENDOR_ID.markup">[0][0][0][0]</property>
  <property name="meta.attr.0.stream.ENCODER.markup">Lavc60.3.100 mjpeg</property>
  <property name="meta.attr.0.stream.DURATION.markup">00:00:01.500000000</property>
  <property name="meta.attr.COMMENT.markup">Rendered with Manim Community v0.17.3</property>
  <property name="meta.attr.MAJOR_BRAND.markup">isom</property>
  <property name="meta.attr.MINOR_VERSION.markup">512</property>
  <property name="meta.attr.COMPATIBLE_BRANDS.markup">isomiso2avc1mp41</property>
  <property name="meta.attr.ENCODER.markup">Lavf60.3.100</property>
  <property name="seekable">1</property>
  <property name="meta.media.sample_aspect_num">1</property>
  <property name="meta.media.sample_aspect_den">1</property>
  <property name="format">3</property>
  <property name="audio_index">-1</property>
  <property name="video_index">0</property>
  <property name="meta.media.frame_rate_num">60</property>
  <property name="meta.media.frame_rate_den">1</property>
  <property name="meta.media.colorspace">601</property>
  <property name="meta.media.color_trc">2</property>
  <property name="meta.media.has_b_frames">0</property>
  <property name="meta.media.width">640</property>
  <property name="meta.media.height">360</property>
  <property name="meta.media.color_range">full</property>
  <property name="kdenlive:clipname">159.mp4</property>
  <property name="kdenlive:clip_type">2</property>
  <property name="kdenlive:folderid">16</property>
  <property name="kdenlive:id">83</property>
  <property name="mute_on_pause">0</property>
  <property name="kdenlive:file_size">216947</property>
  <property name="kdenlive:file_hash">5c5769b0737bd90332d1bb295969acaf</property>
  <property name="kdenlive:proxy">/home/xiaoxiae/.cache/kdenlive/proxy/5c5769b0737bd90332d1bb295969acaf.mkv</property>
  <property name="kdenlive:originalurl">video/Farmer/159.mp4</property>
  <property name="kdenlive:original.mlt_type">chain</property>
  <property name="kdenlive:original.in">0</property>
  <property name="kdenlive:original.out">00:00:01.483</property>
  <property name="kdenlive:original.length">90</property>
  <property name="kdenlive:original.eof">pause</property>
  <property name="kdenlive:original.resource">video/Farmer/159.mp4</property>
  <property name="kdenlive:original.mlt_service">avformat-novalidate</property>
  <property name="kdenlive:original.meta.media.nb_streams">1</property>
  <property name="kdenlive:original.meta.media.0.stream.type">video</property>
  <property name="kdenlive:original.meta.media.0.stream.frame_rate">60</property>
  <property name="kdenlive:original.meta.media.0.stream.sample_aspect_ratio">0</property>
  <property name="kdenlive:original.meta.media.0.codec.width">1920</property>
  <property name="kdenlive:original.meta.media.0.codec.height">1080</property>
  <property name="kdenlive:original.meta.media.0.codec.rotate">0</property>
  <property name="kdenlive:original.meta.media.0.codec.pix_fmt">yuv420p</property>
  <property name="kdenlive:original.meta.media.0.codec.sample_aspect_ratio">0</property>
  <property name="kdenlive:original.meta.media.0.codec.colorspace">709</property>
  <property name="kdenlive:original.meta.media.0.codec.name">h264</property>
  <property name="kdenlive:original.meta.media.0.codec.long_name">H.264 / AVC / MPEG-4 AVC / MPEG-4 part 10</property>
  <property name="kdenlive:original.meta.media.0.codec.bit_rate">1146554</property>
  <property name="kdenlive:original.meta.attr.0.stream.handler_name.markup">VideoHandler</property>
  <property name="kdenlive:original.meta.attr.0.stream.vendor_id.markup">[0][0][0][0]</property>
  <property name="kdenlive:original.meta.attr.0.stream.encoder.markup">Lavc60.3.100 libx264</property>
  <property name="kdenlive:original.meta.attr.major_brand.markup">isom</property>
  <property name="kdenlive:original.meta.attr.minor_version.markup">512</property>
  <property name="kdenlive:original.meta.attr.compatible_brands.markup">isomiso2avc1mp41</property>
  <property name="kdenlive:original.meta.attr.encoder.markup">Lavf60.3.100</property>
  <property name="kdenlive:original.meta.attr.comment.markup">Rendered with Manim Community v0.17.3</property>
  <property name="kdenlive:original.seekable">1</property>
  <property name="kdenlive:original.width">1920</property>
  <property name="kdenlive:original.height">1080</property>
  <property name="kdenlive:original.meta.media.sample_aspect_num">1</property>
  <property name="kdenlive:original.meta.media.sample_aspect_den">1</property>
  <property name="kdenlive:original.format">3</property>
  <property name="kdenlive:original.audio_index">-1</property>
  <property name="kdenlive:original.video_index">0</property>
  <property name="kdenlive:original.meta.media.frame_rate_num">60</property>
  <property name="kdenlive:original.meta.media.frame_rate_den">1</property>
  <property name="kdenlive:original.meta.media.colorspace">709</property>
  <property name="kdenlive:original.meta.media.color_trc">2</property>
  <property name="kdenlive:original.meta.media.has_b_frames">2</property>
  <property name="kdenlive:original.meta.media.width">1920</property>
  <property name="kdenlive:original.meta.media.height">1080</property>
  <property name="kdenlive:original.meta.media.color_range">mpeg</property>
  <property name="kdenlive:original.meta.media.top_field_first">0</property>
  <property name="kdenlive:original.meta.media.progressive">1</property>
  <property name="kdenlive:original.kdenlive:clip_type">2</property>
  <property name="kdenlive:original.kdenlive:folderid">16</property>
  <property name="kdenlive:original.kdenlive:id">83</property>
  <property name="kdenlive:original.mute_on_pause">0</property>
  <property name="kdenlive:original.kdenlive:file_size">216947</property>
  <property name="kdenlive:original.kdenlive:file_hash">5c5769b0737bd90332d1bb295969acaf</property>
  <property name="kdenlive:original.backup">1</property>
  <property name="meta.media.top_field_first">0</property>
  <property name="meta.media.progressive">1</property>
 </chain>
 <chain id="chain406" out="00:00:00.983">
  <property name="length">60</property>
  <property name="eof">pause</property>
  <property name="resource">/home/xiaoxiae/.cache/kdenlive/proxy/ae251f3d630d8d83317a33e72ecab7bc.mkv</property>
  <property name="mlt_service">avformat-novalidate</property>
  <property name="meta.media.nb_streams">1</property>
  <property name="meta.media.0.stream.type">video</property>
  <property name="meta.media.0.stream.frame_rate">60</property>
  <property name="meta.media.0.stream.sample_aspect_ratio">0</property>
  <property name="meta.media.0.codec.width">640</property>
  <property name="meta.media.0.codec.height">360</property>
  <property name="meta.media.0.codec.rotate">0</property>
  <property name="meta.media.0.codec.pix_fmt">yuvj420p</property>
  <property name="meta.media.0.codec.sample_aspect_ratio">0</property>
  <property name="meta.media.0.codec.colorspace">601</property>
  <property name="meta.media.0.codec.name">mjpeg</property>
  <property name="meta.media.0.codec.long_name">MJPEG (Motion JPEG)</property>
  <property name="meta.media.0.codec.bit_rate">0</property>
  <property name="meta.attr.0.stream.HANDLER_NAME.markup">VideoHandler</property>
  <property name="meta.attr.0.stream.VENDOR_ID.markup">[0][0][0][0]</property>
  <property name="meta.attr.0.stream.ENCODER.markup">Lavc60.3.100 mjpeg</property>
  <property name="meta.attr.0.stream.DURATION.markup">00:00:01.000000000</property>
  <property name="meta.attr.COMMENT.markup">Rendered with Manim Community v0.17.3</property>
  <property name="meta.attr.MAJOR_BRAND.markup">isom</property>
  <property name="meta.attr.MINOR_VERSION.markup">512</property>
  <property name="meta.attr.COMPATIBLE_BRANDS.markup">isomiso2avc1mp41</property>
  <property name="meta.attr.ENCODER.markup">Lavf60.3.100</property>
  <property name="seekable">1</property>
  <property name="meta.media.sample_aspect_num">1</property>
  <property name="meta.media.sample_aspect_den">1</property>
  <property name="format">3</property>
  <property name="audio_index">-1</property>
  <property name="video_index">0</property>
  <property name="meta.media.frame_rate_num">60</property>
  <property name="meta.media.frame_rate_den">1</property>
  <property name="meta.media.colorspace">601</property>
  <property name="meta.media.color_trc">2</property>
  <property name="meta.media.has_b_frames">0</property>
  <property name="meta.media.width">640</property>
  <property name="meta.media.height">360</property>
  <property name="meta.media.color_range">full</property>
  <property name="kdenlive:clipname">16.mp4</property>
  <property name="kdenlive:clip_type">2</property>
  <property name="kdenlive:folderid">16</property>
  <property name="kdenlive:id">84</property>
  <property name="mute_on_pause">0</property>
  <property name="kdenlive:file_size">91584</property>
  <property name="kdenlive:file_hash">ae251f3d630d8d83317a33e72ecab7bc</property>
  <property name="kdenlive:proxy">/home/xiaoxiae/.cache/kdenlive/proxy/ae251f3d630d8d83317a33e72ecab7bc.mkv</property>
  <property name="kdenlive:originalurl">video/Farmer/16.mp4</property>
  <property name="kdenlive:original.mlt_type">chain</property>
  <property name="kdenlive:original.in">0</property>
  <property name="kdenlive:original.out">00:00:00.983</property>
  <property name="kdenlive:original.length">60</property>
  <property name="kdenlive:original.eof">pause</property>
  <property name="kdenlive:original.resource">video/Farmer/16.mp4</property>
  <property name="kdenlive:original.mlt_service">avformat-novalidate</property>
  <property name="kdenlive:original.meta.media.nb_streams">1</property>
  <property name="kdenlive:original.meta.media.0.stream.type">video</property>
  <property name="kdenlive:original.meta.media.0.stream.frame_rate">60</property>
  <property name="kdenlive:original.meta.media.0.stream.sample_aspect_ratio">0</property>
  <property name="kdenlive:original.meta.media.0.codec.width">1920</property>
  <property name="kdenlive:original.meta.media.0.codec.height">1080</property>
  <property name="kdenlive:original.meta.media.0.codec.rotate">0</property>
  <property name="kdenlive:original.meta.media.0.codec.pix_fmt">yuv420p</property>
  <property name="kdenlive:original.meta.media.0.codec.sample_aspect_ratio">0</property>
  <property name="kdenlive:original.meta.media.0.codec.colorspace">709</property>
  <property name="kdenlive:original.meta.media.0.codec.name">h264</property>
  <property name="kdenlive:original.meta.media.0.codec.long_name">H.264 / AVC / MPEG-4 AVC / MPEG-4 part 10</property>
  <property name="kdenlive:original.meta.media.0.codec.bit_rate">719872</property>
  <property name="kdenlive:original.meta.attr.0.stream.handler_name.markup">VideoHandler</property>
  <property name="kdenlive:original.meta.attr.0.stream.vendor_id.markup">[0][0][0][0]</property>
  <property name="kdenlive:original.meta.attr.0.stream.encoder.markup">Lavc60.3.100 libx264</property>
  <property name="kdenlive:original.meta.attr.major_brand.markup">isom</property>
  <property name="kdenlive:original.meta.attr.minor_version.markup">512</property>
  <property name="kdenlive:original.meta.attr.compatible_brands.markup">isomiso2avc1mp41</property>
  <property name="kdenlive:original.meta.attr.encoder.markup">Lavf60.3.100</property>
  <property name="kdenlive:original.meta.attr.comment.markup">Rendered with Manim Community v0.17.3</property>
  <property name="kdenlive:original.seekable">1</property>
  <property name="kdenlive:original.width">1920</property>
  <property name="kdenlive:original.height">1080</property>
  <property name="kdenlive:original.meta.media.sample_aspect_num">1</property>
  <property name="kdenlive:original.meta.media.sample_aspect_den">1</property>
  <property name="kdenlive:original.format">3</property>
  <property name="kdenlive:original.audio_index">-1</property>
  <property name="kdenlive:original.video_index">0</property>
  <property name="kdenlive:original.meta.media.frame_rate_num">60</property>
  <property name="kdenlive:original.meta.media.frame_rate_den">1</property>
  <property name="kdenlive:original.meta.media.colorspace">709</property>
  <property name="kdenlive:original.meta.media.color_trc">2</property>
  <property name="kdenlive:original.meta.media.has_b_frames">2</property>
  <property name="kdenlive:original.meta.media.width">1920</property>
  <property name="kdenlive:original.meta.media.height">1080</property>
  <property name="kdenlive:original.meta.media.color_range">mpeg</property>
  <property name="kdenlive:original.meta.media.top_field_first">0</property>
  <property name="kdenlive:original.meta.media.progressive">1</property>
  <property name="kdenlive:original.kdenlive:clip_type">2</property>
  <property name="kdenlive:original.kdenlive:folderid">16</property>
  <property name="kdenlive:original.kdenlive:id">84</property>
  <property name="kdenlive:original.mute_on_pause">0</property>
  <property name="kdenlive:original.kdenlive:file_size">91584</property>
  <property name="kdenlive:original.kdenlive:file_hash">ae251f3d630d8d83317a33e72ecab7bc</property>
  <property name="kdenlive:original.backup">1</property>
  <property name="meta.media.top_field_first">0</property>
  <property name="meta.media.progressive">1</property>
 </chain>
 <chain id="chain154" out="00:00:00.983">
  <property name="length">60</property>
  <property name="eof">pause</property>
  <property name="resource">/home/xiaoxiae/.cache/kdenlive/proxy/472459f7d30637c5f3037ed2f6b56278.mkv</property>
  <property name="mlt_service">avformat-novalidate</property>
  <property name="meta.media.nb_streams">1</property>
  <property name="meta.media.0.stream.type">video</property>
  <property name="meta.media.0.stream.frame_rate">60</property>
  <property name="meta.media.0.stream.sample_aspect_ratio">0</property>
  <property name="meta.media.0.codec.width">640</property>
  <property name="meta.media.0.codec.height">360</property>
  <property name="meta.media.0.codec.rotate">0</property>
  <property name="meta.media.0.codec.pix_fmt">yuvj420p</property>
  <property name="meta.media.0.codec.sample_aspect_ratio">0</property>
  <property name="meta.media.0.codec.colorspace">601</property>
  <property name="meta.media.0.codec.name">mjpeg</property>
  <property name="meta.media.0.codec.long_name">MJPEG (Motion JPEG)</property>
  <property name="meta.media.0.codec.bit_rate">0</property>
  <property name="meta.attr.0.stream.HANDLER_NAME.markup">VideoHandler</property>
  <property name="meta.attr.0.stream.VENDOR_ID.markup">[0][0][0][0]</property>
  <property name="meta.attr.0.stream.ENCODER.markup">Lavc60.3.100 mjpeg</property>
  <property name="meta.attr.0.stream.DURATION.markup">00:00:01.000000000</property>
  <property name="meta.attr.COMMENT.markup">Rendered with Manim Community v0.17.3</property>
  <property name="meta.attr.MAJOR_BRAND.markup">isom</property>
  <property name="meta.attr.MINOR_VERSION.markup">512</property>
  <property name="meta.attr.COMPATIBLE_BRANDS.markup">isomiso2avc1mp41</property>
  <property name="meta.attr.ENCODER.markup">Lavf60.3.100</property>
  <property name="seekable">1</property>
  <property name="meta.media.sample_aspect_num">1</property>
  <property name="meta.media.sample_aspect_den">1</property>
  <property name="format">3</property>
  <property name="audio_index">-1</property>
  <property name="video_index">0</property>
  <property name="meta.media.frame_rate_num">60</property>
  <property name="meta.media.frame_rate_den">1</property>
  <property name="meta.media.colorspace">601</property>
  <property name="meta.media.color_trc">2</property>
  <property name="meta.media.has_b_frames">0</property>
  <property name="meta.media.width">640</property>
  <property name="meta.media.height">360</property>
  <property name="meta.media.color_range">full</property>
  <property name="kdenlive:clipname">160.mp4</property>
  <property name="kdenlive:clip_type">2</property>
  <property name="kdenlive:folderid">16</property>
  <property name="kdenlive:id">85</property>
  <property name="mute_on_pause">0</property>
  <property name="kdenlive:file_size">65104</property>
  <property name="kdenlive:file_hash">472459f7d30637c5f3037ed2f6b56278</property>
  <property name="kdenlive:proxy">/home/xiaoxiae/.cache/kdenlive/proxy/472459f7d30637c5f3037ed2f6b56278.mkv</property>
  <property name="kdenlive:originalurl">video/Farmer/160.mp4</property>
  <property name="kdenlive:original.mlt_type">chain</property>
  <property name="kdenlive:original.in">0</property>
  <property name="kdenlive:original.out">00:00:00.983</property>
  <property name="kdenlive:original.length">60</property>
  <property name="kdenlive:original.eof">pause</property>
  <property name="kdenlive:original.resource">video/Farmer/160.mp4</property>
  <property name="kdenlive:original.mlt_service">avformat-novalidate</property>
  <property name="kdenlive:original.meta.media.nb_streams">1</property>
  <property name="kdenlive:original.meta.media.0.stream.type">video</property>
  <property name="kdenlive:original.meta.media.0.stream.frame_rate">60</property>
  <property name="kdenlive:original.meta.media.0.stream.sample_aspect_ratio">0</property>
  <property name="kdenlive:original.meta.media.0.codec.width">1920</property>
  <property name="kdenlive:original.meta.media.0.codec.height">1080</property>
  <property name="kdenlive:original.meta.media.0.codec.rotate">0</property>
  <property name="kdenlive:original.meta.media.0.codec.pix_fmt">yuv420p</property>
  <property name="kdenlive:original.meta.media.0.codec.sample_aspect_ratio">0</property>
  <property name="kdenlive:original.meta.media.0.codec.colorspace">709</property>
  <property name="kdenlive:original.meta.media.0.codec.name">h264</property>
  <property name="kdenlive:original.meta.media.0.codec.long_name">H.264 / AVC / MPEG-4 AVC / MPEG-4 part 10</property>
  <property name="kdenlive:original.meta.media.0.codec.bit_rate">507776</property>
  <property name="kdenlive:original.meta.attr.0.stream.handler_name.markup">VideoHandler</property>
  <property name="kdenlive:original.meta.attr.0.stream.vendor_id.markup">[0][0][0][0]</property>
  <property name="kdenlive:original.meta.attr.0.stream.encoder.markup">Lavc60.3.100 libx264</property>
  <property name="kdenlive:original.meta.attr.major_brand.markup">isom</property>
  <property name="kdenlive:original.meta.attr.minor_version.markup">512</property>
  <property name="kdenlive:original.meta.attr.compatible_brands.markup">isomiso2avc1mp41</property>
  <property name="kdenlive:original.meta.attr.encoder.markup">Lavf60.3.100</property>
  <property name="kdenlive:original.meta.attr.comment.markup">Rendered with Manim Community v0.17.3</property>
  <property name="kdenlive:original.seekable">1</property>
  <property name="kdenlive:original.width">1920</property>
  <property name="kdenlive:original.height">1080</property>
  <property name="kdenlive:original.meta.media.sample_aspect_num">1</property>
  <property name="kdenlive:original.meta.media.sample_aspect_den">1</property>
  <property name="kdenlive:original.format">3</property>
  <property name="kdenlive:original.audio_index">-1</property>
  <property name="kdenlive:original.video_index">0</property>
  <property name="kdenlive:original.meta.media.frame_rate_num">60</property>
  <property name="kdenlive:original.meta.media.frame_rate_den">1</property>
  <property name="kdenlive:original.meta.media.colorspace">709</property>
  <property name="kdenlive:original.meta.media.color_trc">2</property>
  <property name="kdenlive:original.meta.media.has_b_frames">2</property>
  <property name="kdenlive:original.meta.media.width">1920</property>
  <property name="kdenlive:original.meta.media.height">1080</property>
  <property name="kdenlive:original.meta.media.color_range">mpeg</property>
  <property name="kdenlive:original.meta.media.top_field_first">0</property>
  <property name="kdenlive:original.meta.media.progressive">1</property>
  <property name="kdenlive:original.kdenlive:clip_type">2</property>
  <property name="kdenlive:original.kdenlive:folderid">16</property>
  <property name="kdenlive:original.kdenlive:id">85</property>
  <property name="kdenlive:original.mute_on_pause">0</property>
  <property name="kdenlive:original.kdenlive:file_size">65104</property>
  <property name="kdenlive:original.kdenlive:file_hash">472459f7d30637c5f3037ed2f6b56278</property>
  <property name="kdenlive:original.backup">1</property>
  <property name="meta.media.top_field_first">0</property>
  <property name="meta.media.progressive">1</property>
 </chain>
 <chain id="chain152" out="00:00:00.983">
  <property name="length">60</property>
  <property name="eof">pause</property>
  <property name="resource">/home/xiaoxiae/.cache/kdenlive/proxy/e3a332d3955929771979a4514d34d9c2.mkv</property>
  <property name="mlt_service">avformat-novalidate</property>
  <property name="meta.media.nb_streams">1</property>
  <property name="meta.media.0.stream.type">video</property>
  <property name="meta.media.0.stream.frame_rate">60</property>
  <property name="meta.media.0.stream.sample_aspect_ratio">0</property>
  <property name="meta.media.0.codec.width">640</property>
  <property name="meta.media.0.codec.height">360</property>
  <property name="meta.media.0.codec.rotate">0</property>
  <property name="meta.media.0.codec.pix_fmt">yuvj420p</property>
  <property name="meta.media.0.codec.sample_aspect_ratio">0</property>
  <property name="meta.media.0.codec.colorspace">601</property>
  <property name="meta.media.0.codec.name">mjpeg</property>
  <property name="meta.media.0.codec.long_name">MJPEG (Motion JPEG)</property>
  <property name="meta.media.0.codec.bit_rate">0</property>
  <property name="meta.attr.0.stream.HANDLER_NAME.markup">VideoHandler</property>
  <property name="meta.attr.0.stream.VENDOR_ID.markup">[0][0][0][0]</property>
  <property name="meta.attr.0.stream.ENCODER.markup">Lavc60.3.100 mjpeg</property>
  <property name="meta.attr.0.stream.DURATION.markup">00:00:01.000000000</property>
  <property name="meta.attr.COMMENT.markup">Rendered with Manim Community v0.17.3</property>
  <property name="meta.attr.MAJOR_BRAND.markup">isom</property>
  <property name="meta.attr.MINOR_VERSION.markup">512</property>
  <property name="meta.attr.COMPATIBLE_BRANDS.markup">isomiso2avc1mp41</property>
  <property name="meta.attr.ENCODER.markup">Lavf60.3.100</property>
  <property name="seekable">1</property>
  <property name="meta.media.sample_aspect_num">1</property>
  <property name="meta.media.sample_aspect_den">1</property>
  <property name="format">3</property>
  <property name="audio_index">-1</property>
  <property name="video_index">0</property>
  <property name="meta.media.frame_rate_num">60</property>
  <property name="meta.media.frame_rate_den">1</property>
  <property name="meta.media.colorspace">601</property>
  <property name="meta.media.color_trc">2</property>
  <property name="meta.media.has_b_frames">0</property>
  <property name="meta.media.width">640</property>
  <property name="meta.media.height">360</property>
  <property name="meta.media.color_range">full</property>
  <property name="kdenlive:clipname">161.mp4</property>
  <property name="kdenlive:clip_type">2</property>
  <property name="kdenlive:folderid">16</property>
  <property name="kdenlive:id">86</property>
  <property name="mute_on_pause">0</property>
  <property name="kdenlive:file_size">79273</property>
  <property name="kdenlive:file_hash">e3a332d3955929771979a4514d34d9c2</property>
  <property name="kdenlive:proxy">/home/xiaoxiae/.cache/kdenlive/proxy/e3a332d3955929771979a4514d34d9c2.mkv</property>
  <property name="kdenlive:originalurl">video/Farmer/161.mp4</property>
  <property name="kdenlive:original.mlt_type">chain</property>
  <property name="kdenlive:original.in">0</property>
  <property name="kdenlive:original.out">00:00:00.983</property>
  <property name="kdenlive:original.length">60</property>
  <property name="kdenlive:original.eof">pause</property>
  <property name="kdenlive:original.resource">video/Farmer/161.mp4</property>
  <property name="kdenlive:original.mlt_service">avformat-novalidate</property>
  <property name="kdenlive:original.meta.media.nb_streams">1</property>
  <property name="kdenlive:original.meta.media.0.stream.type">video</property>
  <property name="kdenlive:original.meta.media.0.stream.frame_rate">60</property>
  <property name="kdenlive:original.meta.media.0.stream.sample_aspect_ratio">0</property>
  <property name="kdenlive:original.meta.media.0.codec.width">1920</property>
  <property name="kdenlive:original.meta.media.0.codec.height">1080</property>
  <property name="kdenlive:original.meta.media.0.codec.rotate">0</property>
  <property name="kdenlive:original.meta.media.0.codec.pix_fmt">yuv420p</property>
  <property name="kdenlive:original.meta.media.0.codec.sample_aspect_ratio">0</property>
  <property name="kdenlive:original.meta.media.0.codec.colorspace">709</property>
  <property name="kdenlive:original.meta.media.0.codec.name">h264</property>
  <property name="kdenlive:original.meta.media.0.codec.long_name">H.264 / AVC / MPEG-4 AVC / MPEG-4 part 10</property>
  <property name="kdenlive:original.meta.media.0.codec.bit_rate">622088</property>
  <property name="kdenlive:original.meta.attr.0.stream.handler_name.markup">VideoHandler</property>
  <property name="kdenlive:original.meta.attr.0.stream.vendor_id.markup">[0][0][0][0]</property>
  <property name="kdenlive:original.meta.attr.0.stream.encoder.markup">Lavc60.3.100 libx264</property>
  <property name="kdenlive:original.meta.attr.major_brand.markup">isom</property>
  <property name="kdenlive:original.meta.attr.minor_version.markup">512</property>
  <property name="kdenlive:original.meta.attr.compatible_brands.markup">isomiso2avc1mp41</property>
  <property name="kdenlive:original.meta.attr.encoder.markup">Lavf60.3.100</property>
  <property name="kdenlive:original.meta.attr.comment.markup">Rendered with Manim Community v0.17.3</property>
  <property name="kdenlive:original.seekable">1</property>
  <property name="kdenlive:original.width">1920</property>
  <property name="kdenlive:original.height">1080</property>
  <property name="kdenlive:original.meta.media.sample_aspect_num">1</property>
  <property name="kdenlive:original.meta.media.sample_aspect_den">1</property>
  <property name="kdenlive:original.format">3</property>
  <property name="kdenlive:original.audio_index">-1</property>
  <property name="kdenlive:original.video_index">0</property>
  <property name="kdenlive:original.meta.media.frame_rate_num">60</property>
  <property name="kdenlive:original.meta.media.frame_rate_den">1</property>
  <property name="kdenlive:original.meta.media.colorspace">709</property>
  <property name="kdenlive:original.meta.media.color_trc">2</property>
  <property name="kdenlive:original.meta.media.has_b_frames">2</property>
  <property name="kdenlive:original.meta.media.width">1920</property>
  <property name="kdenlive:original.meta.media.height">1080</property>
  <property name="kdenlive:original.meta.media.color_range">mpeg</property>
  <property name="kdenlive:original.meta.media.top_field_first">0</property>
  <property name="kdenlive:original.meta.media.progressive">1</property>
  <property name="kdenlive:original.kdenlive:clip_type">2</property>
  <property name="kdenlive:original.kdenlive:folderid">16</property>
  <property name="kdenlive:original.kdenlive:id">86</property>
  <property name="kdenlive:original.mute_on_pause">0</property>
  <property name="kdenlive:original.kdenlive:file_size">79273</property>
  <property name="kdenlive:original.kdenlive:file_hash">e3a332d3955929771979a4514d34d9c2</property>
  <property name="kdenlive:original.backup">1</property>
  <property name="meta.media.top_field_first">0</property>
  <property name="meta.media.progressive">1</property>
 </chain>
 <chain id="chain405" out="00:00:00.983">
  <property name="length">60</property>
  <property name="eof">pause</property>
  <property name="resource">/home/xiaoxiae/.cache/kdenlive/proxy/b19402f5c04e3df7613bc240fae78d5d.mkv</property>
  <property name="mlt_service">avformat-novalidate</property>
  <property name="meta.media.nb_streams">1</property>
  <property name="meta.media.0.stream.type">video</property>
  <property name="meta.media.0.stream.frame_rate">60</property>
  <property name="meta.media.0.stream.sample_aspect_ratio">0</property>
  <property name="meta.media.0.codec.width">640</property>
  <property name="meta.media.0.codec.height">360</property>
  <property name="meta.media.0.codec.rotate">0</property>
  <property name="meta.media.0.codec.pix_fmt">yuvj420p</property>
  <property name="meta.media.0.codec.sample_aspect_ratio">0</property>
  <property name="meta.media.0.codec.colorspace">601</property>
  <property name="meta.media.0.codec.name">mjpeg</property>
  <property name="meta.media.0.codec.long_name">MJPEG (Motion JPEG)</property>
  <property name="meta.media.0.codec.bit_rate">0</property>
  <property name="meta.attr.0.stream.HANDLER_NAME.markup">VideoHandler</property>
  <property name="meta.attr.0.stream.VENDOR_ID.markup">[0][0][0][0]</property>
  <property name="meta.attr.0.stream.ENCODER.markup">Lavc60.3.100 mjpeg</property>
  <property name="meta.attr.0.stream.DURATION.markup">00:00:01.000000000</property>
  <property name="meta.attr.COMMENT.markup">Rendered with Manim Community v0.17.3</property>
  <property name="meta.attr.MAJOR_BRAND.markup">isom</property>
  <property name="meta.attr.MINOR_VERSION.markup">512</property>
  <property name="meta.attr.COMPATIBLE_BRANDS.markup">isomiso2avc1mp41</property>
  <property name="meta.attr.ENCODER.markup">Lavf60.3.100</property>
  <property name="seekable">1</property>
  <property name="meta.media.sample_aspect_num">1</property>
  <property name="meta.media.sample_aspect_den">1</property>
  <property name="format">3</property>
  <property name="audio_index">-1</property>
  <property name="video_index">0</property>
  <property name="meta.media.frame_rate_num">60</property>
  <property name="meta.media.frame_rate_den">1</property>
  <property name="meta.media.colorspace">601</property>
  <property name="meta.media.color_trc">2</property>
  <property name="meta.media.has_b_frames">0</property>
  <property name="meta.media.width">640</property>
  <property name="meta.media.height">360</property>
  <property name="meta.media.color_range">full</property>
  <property name="kdenlive:clipname">17.mp4</property>
  <property name="kdenlive:clip_type">2</property>
  <property name="kdenlive:folderid">16</property>
  <property name="kdenlive:id">87</property>
  <property name="mute_on_pause">0</property>
  <property name="kdenlive:file_size">147962</property>
  <property name="kdenlive:file_hash">b19402f5c04e3df7613bc240fae78d5d</property>
  <property name="kdenlive:proxy">/home/xiaoxiae/.cache/kdenlive/proxy/b19402f5c04e3df7613bc240fae78d5d.mkv</property>
  <property name="kdenlive:originalurl">video/Farmer/17.mp4</property>
  <property name="kdenlive:original.mlt_type">chain</property>
  <property name="kdenlive:original.in">0</property>
  <property name="kdenlive:original.out">00:00:00.983</property>
  <property name="kdenlive:original.length">60</property>
  <property name="kdenlive:original.eof">pause</property>
  <property name="kdenlive:original.resource">video/Farmer/17.mp4</property>
  <property name="kdenlive:original.mlt_service">avformat-novalidate</property>
  <property name="kdenlive:original.meta.media.nb_streams">1</property>
  <property name="kdenlive:original.meta.media.0.stream.type">video</property>
  <property name="kdenlive:original.meta.media.0.stream.frame_rate">60</property>
  <property name="kdenlive:original.meta.media.0.stream.sample_aspect_ratio">0</property>
  <property name="kdenlive:original.meta.media.0.codec.width">1920</property>
  <property name="kdenlive:original.meta.media.0.codec.height">1080</property>
  <property name="kdenlive:original.meta.media.0.codec.rotate">0</property>
  <property name="kdenlive:original.meta.media.0.codec.pix_fmt">yuv420p</property>
  <property name="kdenlive:original.meta.media.0.codec.sample_aspect_ratio">0</property>
  <property name="kdenlive:original.meta.media.0.codec.colorspace">709</property>
  <property name="kdenlive:original.meta.media.0.codec.name">h264</property>
  <property name="kdenlive:original.meta.media.0.codec.long_name">H.264 / AVC / MPEG-4 AVC / MPEG-4 part 10</property>
  <property name="kdenlive:original.meta.media.0.codec.bit_rate">1171280</property>
  <property name="kdenlive:original.meta.attr.0.stream.handler_name.markup">VideoHandler</property>
  <property name="kdenlive:original.meta.attr.0.stream.vendor_id.markup">[0][0][0][0]</property>
  <property name="kdenlive:original.meta.attr.0.stream.encoder.markup">Lavc60.3.100 libx264</property>
  <property name="kdenlive:original.meta.attr.major_brand.markup">isom</property>
  <property name="kdenlive:original.meta.attr.minor_version.markup">512</property>
  <property name="kdenlive:original.meta.attr.compatible_brands.markup">isomiso2avc1mp41</property>
  <property name="kdenlive:original.meta.attr.encoder.markup">Lavf60.3.100</property>
  <property name="kdenlive:original.meta.attr.comment.markup">Rendered with Manim Community v0.17.3</property>
  <property name="kdenlive:original.seekable">1</property>
  <property name="kdenlive:original.width">1920</property>
  <property name="kdenlive:original.height">1080</property>
  <property name="kdenlive:original.meta.media.sample_aspect_num">1</property>
  <property name="kdenlive:original.meta.media.sample_aspect_den">1</property>
  <property name="kdenlive:original.format">3</property>
  <property name="kdenlive:original.audio_index">-1</property>
  <property name="kdenlive:original.video_index">0</property>
  <property name="kdenlive:original.meta.media.frame_rate_num">60</property>
  <property name="kdenlive:original.meta.media.frame_rate_den">1</property>
  <property name="kdenlive:original.meta.media.colorspace">709</property>
  <property name="kdenlive:original.meta.media.color_trc">2</property>
  <property name="kdenlive:original.meta.media.has_b_frames">2</property>
  <property name="kdenlive:original.meta.media.width">1920</property>
  <property name="kdenlive:original.meta.media.height">1080</property>
  <property name="kdenlive:original.meta.media.color_range">mpeg</property>
  <property name="kdenlive:original.meta.media.top_field_first">0</property>
  <property name="kdenlive:original.meta.media.progressive">1</property>
  <property name="kdenlive:original.kdenlive:clip_type">2</property>
  <property name="kdenlive:original.kdenlive:folderid">16</property>
  <property name="kdenlive:original.kdenlive:id">87</property>
  <property name="kdenlive:original.mute_on_pause">0</property>
  <property name="kdenlive:original.kdenlive:file_size">147962</property>
  <property name="kdenlive:original.kdenlive:file_hash">b19402f5c04e3df7613bc240fae78d5d</property>
  <property name="kdenlive:original.backup">1</property>
  <property name="meta.media.top_field_first">0</property>
  <property name="meta.media.progressive">1</property>
 </chain>
 <chain id="chain402" out="00:00:01.483">
  <property name="length">90</property>
  <property name="eof">pause</property>
  <property name="resource">/home/xiaoxiae/.cache/kdenlive/proxy/129550301564de1d978851a61ad71fe7.mkv</property>
  <property name="mlt_service">avformat-novalidate</property>
  <property name="meta.media.nb_streams">1</property>
  <property name="meta.media.0.stream.type">video</property>
  <property name="meta.media.0.stream.frame_rate">60</property>
  <property name="meta.media.0.stream.sample_aspect_ratio">0</property>
  <property name="meta.media.0.codec.width">640</property>
  <property name="meta.media.0.codec.height">360</property>
  <property name="meta.media.0.codec.rotate">0</property>
  <property name="meta.media.0.codec.pix_fmt">yuvj420p</property>
  <property name="meta.media.0.codec.sample_aspect_ratio">0</property>
  <property name="meta.media.0.codec.colorspace">601</property>
  <property name="meta.media.0.codec.name">mjpeg</property>
  <property name="meta.media.0.codec.long_name">MJPEG (Motion JPEG)</property>
  <property name="meta.media.0.codec.bit_rate">0</property>
  <property name="meta.attr.0.stream.HANDLER_NAME.markup">VideoHandler</property>
  <property name="meta.attr.0.stream.VENDOR_ID.markup">[0][0][0][0]</property>
  <property name="meta.attr.0.stream.ENCODER.markup">Lavc60.3.100 mjpeg</property>
  <property name="meta.attr.0.stream.DURATION.markup">00:00:01.500000000</property>
  <property name="meta.attr.COMMENT.markup">Rendered with Manim Community v0.17.3</property>
  <property name="meta.attr.MAJOR_BRAND.markup">isom</property>
  <property name="meta.attr.MINOR_VERSION.markup">512</property>
  <property name="meta.attr.COMPATIBLE_BRANDS.markup">isomiso2avc1mp41</property>
  <property name="meta.attr.ENCODER.markup">Lavf60.3.100</property>
  <property name="seekable">1</property>
  <property name="meta.media.sample_aspect_num">1</property>
  <property name="meta.media.sample_aspect_den">1</property>
  <property name="format">3</property>
  <property name="audio_index">-1</property>
  <property name="video_index">0</property>
  <property name="meta.media.frame_rate_num">60</property>
  <property name="meta.media.frame_rate_den">1</property>
  <property name="meta.media.colorspace">601</property>
  <property name="meta.media.color_trc">2</property>
  <property name="meta.media.has_b_frames">0</property>
  <property name="meta.media.width">640</property>
  <property name="meta.media.height">360</property>
  <property name="meta.media.color_range">full</property>
  <property name="kdenlive:clipname">18.mp4</property>
  <property name="kdenlive:clip_type">2</property>
  <property name="kdenlive:folderid">16</property>
  <property name="kdenlive:id">88</property>
  <property name="mute_on_pause">0</property>
  <property name="kdenlive:file_size">297060</property>
  <property name="kdenlive:file_hash">129550301564de1d978851a61ad71fe7</property>
  <property name="kdenlive:proxy">/home/xiaoxiae/.cache/kdenlive/proxy/129550301564de1d978851a61ad71fe7.mkv</property>
  <property name="kdenlive:originalurl">video/Farmer/18.mp4</property>
  <property name="kdenlive:original.mlt_type">chain</property>
  <property name="kdenlive:original.in">0</property>
  <property name="kdenlive:original.out">00:00:01.483</property>
  <property name="kdenlive:original.length">90</property>
  <property name="kdenlive:original.eof">pause</property>
  <property name="kdenlive:original.resource">video/Farmer/18.mp4</property>
  <property name="kdenlive:original.mlt_service">avformat-novalidate</property>
  <property name="kdenlive:original.meta.media.nb_streams">1</property>
  <property name="kdenlive:original.meta.media.0.stream.type">video</property>
  <property name="kdenlive:original.meta.media.0.stream.frame_rate">60</property>
  <property name="kdenlive:original.meta.media.0.stream.sample_aspect_ratio">0</property>
  <property name="kdenlive:original.meta.media.0.codec.width">1920</property>
  <property name="kdenlive:original.meta.media.0.codec.height">1080</property>
  <property name="kdenlive:original.meta.media.0.codec.rotate">0</property>
  <property name="kdenlive:original.meta.media.0.codec.pix_fmt">yuv420p</property>
  <property name="kdenlive:original.meta.media.0.codec.sample_aspect_ratio">0</property>
  <property name="kdenlive:original.meta.media.0.codec.colorspace">709</property>
  <property name="kdenlive:original.meta.media.0.codec.name">h264</property>
  <property name="kdenlive:original.meta.media.0.codec.long_name">H.264 / AVC / MPEG-4 AVC / MPEG-4 part 10</property>
  <property name="kdenlive:original.meta.media.0.codec.bit_rate">1575488</property>
  <property name="kdenlive:original.meta.attr.0.stream.handler_name.markup">VideoHandler</property>
  <property name="kdenlive:original.meta.attr.0.stream.vendor_id.markup">[0][0][0][0]</property>
  <property name="kdenlive:original.meta.attr.0.stream.encoder.markup">Lavc60.3.100 libx264</property>
  <property name="kdenlive:original.meta.attr.major_brand.markup">isom</property>
  <property name="kdenlive:original.meta.attr.minor_version.markup">512</property>
  <property name="kdenlive:original.meta.attr.compatible_brands.markup">isomiso2avc1mp41</property>
  <property name="kdenlive:original.meta.attr.encoder.markup">Lavf60.3.100</property>
  <property name="kdenlive:original.meta.attr.comment.markup">Rendered with Manim Community v0.17.3</property>
  <property name="kdenlive:original.seekable">1</property>
  <property name="kdenlive:original.width">1920</property>
  <property name="kdenlive:original.height">1080</property>
  <property name="kdenlive:original.meta.media.sample_aspect_num">1</property>
  <property name="kdenlive:original.meta.media.sample_aspect_den">1</property>
  <property name="kdenlive:original.format">3</property>
  <property name="kdenlive:original.audio_index">-1</property>
  <property name="kdenlive:original.video_index">0</property>
  <property name="kdenlive:original.meta.media.frame_rate_num">60</property>
  <property name="kdenlive:original.meta.media.frame_rate_den">1</property>
  <property name="kdenlive:original.meta.media.colorspace">709</property>
  <property name="kdenlive:original.meta.media.color_trc">2</property>
  <property name="kdenlive:original.meta.media.has_b_frames">2</property>
  <property name="kdenlive:original.meta.media.width">1920</property>
  <property name="kdenlive:original.meta.media.height">1080</property>
  <property name="kdenlive:original.meta.media.color_range">mpeg</property>
  <property name="kdenlive:original.meta.media.top_field_first">0</property>
  <property name="kdenlive:original.meta.media.progressive">1</property>
  <property name="kdenlive:original.kdenlive:clip_type">2</property>
  <property name="kdenlive:original.kdenlive:folderid">16</property>
  <property name="kdenlive:original.kdenlive:id">88</property>
  <property name="kdenlive:original.mute_on_pause">0</property>
  <property name="kdenlive:original.kdenlive:file_size">297060</property>
  <property name="kdenlive:original.kdenlive:file_hash">129550301564de1d978851a61ad71fe7</property>
  <property name="kdenlive:original.backup">1</property>
  <property name="meta.media.top_field_first">0</property>
  <property name="meta.media.progressive">1</property>
 </chain>
 <chain id="chain401" out="00:00:01.233">
  <property name="length">75</property>
  <property name="eof">pause</property>
  <property name="resource">/home/xiaoxiae/.cache/kdenlive/proxy/9c0a737d3328b5638f2b38510737b0a8.mkv</property>
  <property name="mlt_service">avformat-novalidate</property>
  <property name="meta.media.nb_streams">1</property>
  <property name="meta.media.0.stream.type">video</property>
  <property name="meta.media.0.stream.frame_rate">60</property>
  <property name="meta.media.0.stream.sample_aspect_ratio">0</property>
  <property name="meta.media.0.codec.width">640</property>
  <property name="meta.media.0.codec.height">360</property>
  <property name="meta.media.0.codec.rotate">0</property>
  <property name="meta.media.0.codec.pix_fmt">yuvj420p</property>
  <property name="meta.media.0.codec.sample_aspect_ratio">0</property>
  <property name="meta.media.0.codec.colorspace">601</property>
  <property name="meta.media.0.codec.name">mjpeg</property>
  <property name="meta.media.0.codec.long_name">MJPEG (Motion JPEG)</property>
  <property name="meta.media.0.codec.bit_rate">0</property>
  <property name="meta.attr.0.stream.HANDLER_NAME.markup">VideoHandler</property>
  <property name="meta.attr.0.stream.VENDOR_ID.markup">[0][0][0][0]</property>
  <property name="meta.attr.0.stream.ENCODER.markup">Lavc60.3.100 mjpeg</property>
  <property name="meta.attr.0.stream.DURATION.markup">00:00:01.250000000</property>
  <property name="meta.attr.COMMENT.markup">Rendered with Manim Community v0.17.3</property>
  <property name="meta.attr.MAJOR_BRAND.markup">isom</property>
  <property name="meta.attr.MINOR_VERSION.markup">512</property>
  <property name="meta.attr.COMPATIBLE_BRANDS.markup">isomiso2avc1mp41</property>
  <property name="meta.attr.ENCODER.markup">Lavf60.3.100</property>
  <property name="seekable">1</property>
  <property name="meta.media.sample_aspect_num">1</property>
  <property name="meta.media.sample_aspect_den">1</property>
  <property name="format">3</property>
  <property name="audio_index">-1</property>
  <property name="video_index">0</property>
  <property name="meta.media.frame_rate_num">60</property>
  <property name="meta.media.frame_rate_den">1</property>
  <property name="meta.media.colorspace">601</property>
  <property name="meta.media.color_trc">2</property>
  <property name="meta.media.has_b_frames">0</property>
  <property name="meta.media.width">640</property>
  <property name="meta.media.height">360</property>
  <property name="meta.media.color_range">full</property>
  <property name="kdenlive:clipname">19.mp4</property>
  <property name="kdenlive:clip_type">2</property>
  <property name="kdenlive:folderid">16</property>
  <property name="kdenlive:id">89</property>
  <property name="mute_on_pause">0</property>
  <property name="kdenlive:file_size">73383</property>
  <property name="kdenlive:file_hash">9c0a737d3328b5638f2b38510737b0a8</property>
  <property name="kdenlive:proxy">/home/xiaoxiae/.cache/kdenlive/proxy/9c0a737d3328b5638f2b38510737b0a8.mkv</property>
  <property name="kdenlive:originalurl">video/Farmer/19.mp4</property>
  <property name="kdenlive:original.mlt_type">chain</property>
  <property name="kdenlive:original.in">0</property>
  <property name="kdenlive:original.out">00:00:01.233</property>
  <property name="kdenlive:original.length">75</property>
  <property name="kdenlive:original.eof">pause</property>
  <property name="kdenlive:original.resource">video/Farmer/19.mp4</property>
  <property name="kdenlive:original.mlt_service">avformat-novalidate</property>
  <property name="kdenlive:original.meta.media.nb_streams">1</property>
  <property name="kdenlive:original.meta.media.0.stream.type">video</property>
  <property name="kdenlive:original.meta.media.0.stream.frame_rate">60</property>
  <property name="kdenlive:original.meta.media.0.stream.sample_aspect_ratio">0</property>
  <property name="kdenlive:original.meta.media.0.codec.width">1920</property>
  <property name="kdenlive:original.meta.media.0.codec.height">1080</property>
  <property name="kdenlive:original.meta.media.0.codec.rotate">0</property>
  <property name="kdenlive:original.meta.media.0.codec.pix_fmt">yuv420p</property>
  <property name="kdenlive:original.meta.media.0.codec.sample_aspect_ratio">0</property>
  <property name="kdenlive:original.meta.media.0.codec.colorspace">709</property>
  <property name="kdenlive:original.meta.media.0.codec.name">h264</property>
  <property name="kdenlive:original.meta.media.0.codec.long_name">H.264 / AVC / MPEG-4 AVC / MPEG-4 part 10</property>
  <property name="kdenlive:original.meta.media.0.codec.bit_rate">458361</property>
  <property name="kdenlive:original.meta.attr.0.stream.handler_name.markup">VideoHandler</property>
  <property name="kdenlive:original.meta.attr.0.stream.vendor_id.markup">[0][0][0][0]</property>
  <property name="kdenlive:original.meta.attr.0.stream.encoder.markup">Lavc60.3.100 libx264</property>
  <property name="kdenlive:original.meta.attr.major_brand.markup">isom</property>
  <property name="kdenlive:original.meta.attr.minor_version.markup">512</property>
  <property name="kdenlive:original.meta.attr.compatible_brands.markup">isomiso2avc1mp41</property>
  <property name="kdenlive:original.meta.attr.encoder.markup">Lavf60.3.100</property>
  <property name="kdenlive:original.meta.attr.comment.markup">Rendered with Manim Community v0.17.3</property>
  <property name="kdenlive:original.seekable">1</property>
  <property name="kdenlive:original.width">1920</property>
  <property name="kdenlive:original.height">1080</property>
  <property name="kdenlive:original.meta.media.sample_aspect_num">1</property>
  <property name="kdenlive:original.meta.media.sample_aspect_den">1</property>
  <property name="kdenlive:original.format">3</property>
  <property name="kdenlive:original.audio_index">-1</property>
  <property name="kdenlive:original.video_index">0</property>
  <property name="kdenlive:original.meta.media.frame_rate_num">60</property>
  <property name="kdenlive:original.meta.media.frame_rate_den">1</property>
  <property name="kdenlive:original.meta.media.colorspace">709</property>
  <property name="kdenlive:original.meta.media.color_trc">2</property>
  <property name="kdenlive:original.meta.media.has_b_frames">2</property>
  <property name="kdenlive:original.meta.media.width">1920</property>
  <property name="kdenlive:original.meta.media.height">1080</property>
  <property name="kdenlive:original.meta.media.color_range">mpeg</property>
  <property name="kdenlive:original.meta.media.top_field_first">0</property>
  <property name="kdenlive:original.meta.media.progressive">1</property>
  <property name="kdenlive:original.kdenlive:clip_type">2</property>
  <property name="kdenlive:original.kdenlive:folderid">16</property>
  <property name="kdenlive:original.kdenlive:id">89</property>
  <property name="kdenlive:original.mute_on_pause">0</property>
  <property name="kdenlive:original.kdenlive:file_size">73383</property>
  <property name="kdenlive:original.kdenlive:file_hash">9c0a737d3328b5638f2b38510737b0a8</property>
  <property name="kdenlive:original.backup">1</property>
  <property name="meta.media.top_field_first">0</property>
  <property name="meta.media.progressive">1</property>
 </chain>
 <chain id="chain429" out="00:00:01.617">
  <property name="length">98</property>
  <property name="eof">pause</property>
  <property name="resource">/home/xiaoxiae/.cache/kdenlive/proxy/38dd2dd0bfef84eb6ba8dddbb7a535e7.mkv</property>
  <property name="mlt_service">avformat-novalidate</property>
  <property name="meta.media.nb_streams">1</property>
  <property name="meta.media.0.stream.type">video</property>
  <property name="meta.media.0.stream.frame_rate">60</property>
  <property name="meta.media.0.stream.sample_aspect_ratio">0</property>
  <property name="meta.media.0.codec.width">640</property>
  <property name="meta.media.0.codec.height">360</property>
  <property name="meta.media.0.codec.rotate">0</property>
  <property name="meta.media.0.codec.pix_fmt">yuvj420p</property>
  <property name="meta.media.0.codec.sample_aspect_ratio">0</property>
  <property name="meta.media.0.codec.colorspace">601</property>
  <property name="meta.media.0.codec.name">mjpeg</property>
  <property name="meta.media.0.codec.long_name">MJPEG (Motion JPEG)</property>
  <property name="meta.media.0.codec.bit_rate">0</property>
  <property name="meta.attr.0.stream.HANDLER_NAME.markup">VideoHandler</property>
  <property name="meta.attr.0.stream.VENDOR_ID.markup">[0][0][0][0]</property>
  <property name="meta.attr.0.stream.ENCODER.markup">Lavc60.3.100 mjpeg</property>
  <property name="meta.attr.0.stream.DURATION.markup">00:00:01.634000000</property>
  <property name="meta.attr.COMMENT.markup">Rendered with Manim Community v0.17.3</property>
  <property name="meta.attr.MAJOR_BRAND.markup">isom</property>
  <property name="meta.attr.MINOR_VERSION.markup">512</property>
  <property name="meta.attr.COMPATIBLE_BRANDS.markup">isomiso2avc1mp41</property>
  <property name="meta.attr.ENCODER.markup">Lavf60.3.100</property>
  <property name="seekable">1</property>
  <property name="meta.media.sample_aspect_num">1</property>
  <property name="meta.media.sample_aspect_den">1</property>
  <property name="format">3</property>
  <property name="audio_index">-1</property>
  <property name="video_index">0</property>
  <property name="meta.media.frame_rate_num">60</property>
  <property name="meta.media.frame_rate_den">1</property>
  <property name="meta.media.colorspace">601</property>
  <property name="meta.media.color_trc">2</property>
  <property name="meta.media.has_b_frames">0</property>
  <property name="meta.media.width">640</property>
  <property name="meta.media.height">360</property>
  <property name="meta.media.color_range">full</property>
  <property name="kdenlive:clipname">2.mp4</property>
  <property name="kdenlive:clip_type">2</property>
  <property name="kdenlive:folderid">16</property>
  <property name="kdenlive:id">90</property>
  <property name="mute_on_pause">0</property>
  <property name="kdenlive:file_size">105278</property>
  <property name="kdenlive:file_hash">38dd2dd0bfef84eb6ba8dddbb7a535e7</property>
  <property name="kdenlive:proxy">/home/xiaoxiae/.cache/kdenlive/proxy/38dd2dd0bfef84eb6ba8dddbb7a535e7.mkv</property>
  <property name="kdenlive:originalurl">video/Farmer/2.mp4</property>
  <property name="kdenlive:original.mlt_type">chain</property>
  <property name="kdenlive:original.in">0</property>
  <property name="kdenlive:original.out">00:00:01.617</property>
  <property name="kdenlive:original.length">98</property>
  <property name="kdenlive:original.eof">pause</property>
  <property name="kdenlive:original.resource">video/Farmer/2.mp4</property>
  <property name="kdenlive:original.mlt_service">avformat-novalidate</property>
  <property name="kdenlive:original.meta.media.nb_streams">1</property>
  <property name="kdenlive:original.meta.media.0.stream.type">video</property>
  <property name="kdenlive:original.meta.media.0.stream.frame_rate">60</property>
  <property name="kdenlive:original.meta.media.0.stream.sample_aspect_ratio">0</property>
  <property name="kdenlive:original.meta.media.0.codec.width">1920</property>
  <property name="kdenlive:original.meta.media.0.codec.height">1080</property>
  <property name="kdenlive:original.meta.media.0.codec.rotate">0</property>
  <property name="kdenlive:original.meta.media.0.codec.pix_fmt">yuv420p</property>
  <property name="kdenlive:original.meta.media.0.codec.sample_aspect_ratio">0</property>
  <property name="kdenlive:original.meta.media.0.codec.colorspace">709</property>
  <property name="kdenlive:original.meta.media.0.codec.name">h264</property>
  <property name="kdenlive:original.meta.media.0.codec.long_name">H.264 / AVC / MPEG-4 AVC / MPEG-4 part 10</property>
  <property name="kdenlive:original.meta.media.0.codec.bit_rate">505381</property>
  <property name="kdenlive:original.meta.attr.0.stream.handler_name.markup">VideoHandler</property>
  <property name="kdenlive:original.meta.attr.0.stream.vendor_id.markup">[0][0][0][0]</property>
  <property name="kdenlive:original.meta.attr.0.stream.encoder.markup">Lavc60.3.100 libx264</property>
  <property name="kdenlive:original.meta.attr.major_brand.markup">isom</property>
  <property name="kdenlive:original.meta.attr.minor_version.markup">512</property>
  <property name="kdenlive:original.meta.attr.compatible_brands.markup">isomiso2avc1mp41</property>
  <property name="kdenlive:original.meta.attr.encoder.markup">Lavf60.3.100</property>
  <property name="kdenlive:original.meta.attr.comment.markup">Rendered with Manim Community v0.17.3</property>
  <property name="kdenlive:original.seekable">1</property>
  <property name="kdenlive:original.width">1920</property>
  <property name="kdenlive:original.height">1080</property>
  <property name="kdenlive:original.meta.media.sample_aspect_num">1</property>
  <property name="kdenlive:original.meta.media.sample_aspect_den">1</property>
  <property name="kdenlive:original.format">3</property>
  <property name="kdenlive:original.audio_index">-1</property>
  <property name="kdenlive:original.video_index">0</property>
  <property name="kdenlive:original.meta.media.frame_rate_num">60</property>
  <property name="kdenlive:original.meta.media.frame_rate_den">1</property>
  <property name="kdenlive:original.meta.media.colorspace">709</property>
  <property name="kdenlive:original.meta.media.color_trc">2</property>
  <property name="kdenlive:original.meta.media.has_b_frames">2</property>
  <property name="kdenlive:original.meta.media.width">1920</property>
  <property name="kdenlive:original.meta.media.height">1080</property>
  <property name="kdenlive:original.meta.media.color_range">mpeg</property>
  <property name="kdenlive:original.meta.media.top_field_first">0</property>
  <property name="kdenlive:original.meta.media.progressive">1</property>
  <property name="kdenlive:original.kdenlive:clip_type">2</property>
  <property name="kdenlive:original.kdenlive:folderid">16</property>
  <property name="kdenlive:original.kdenlive:id">90</property>
  <property name="kdenlive:original.mute_on_pause">0</property>
  <property name="kdenlive:original.kdenlive:file_size">105278</property>
  <property name="kdenlive:original.kdenlive:file_hash">38dd2dd0bfef84eb6ba8dddbb7a535e7</property>
  <property name="kdenlive:original.backup">1</property>
  <property name="meta.media.top_field_first">0</property>
  <property name="meta.media.progressive">1</property>
 </chain>
 <chain id="chain399" out="00:00:00.983">
  <property name="length">60</property>
  <property name="eof">pause</property>
  <property name="resource">/home/xiaoxiae/.cache/kdenlive/proxy/c103ef0b8f06ebcfea48bc3ec53f7005.mkv</property>
  <property name="mlt_service">avformat-novalidate</property>
  <property name="meta.media.nb_streams">1</property>
  <property name="meta.media.0.stream.type">video</property>
  <property name="meta.media.0.stream.frame_rate">60</property>
  <property name="meta.media.0.stream.sample_aspect_ratio">0</property>
  <property name="meta.media.0.codec.width">640</property>
  <property name="meta.media.0.codec.height">360</property>
  <property name="meta.media.0.codec.rotate">0</property>
  <property name="meta.media.0.codec.pix_fmt">yuvj420p</property>
  <property name="meta.media.0.codec.sample_aspect_ratio">0</property>
  <property name="meta.media.0.codec.colorspace">601</property>
  <property name="meta.media.0.codec.name">mjpeg</property>
  <property name="meta.media.0.codec.long_name">MJPEG (Motion JPEG)</property>
  <property name="meta.media.0.codec.bit_rate">0</property>
  <property name="meta.attr.0.stream.HANDLER_NAME.markup">VideoHandler</property>
  <property name="meta.attr.0.stream.VENDOR_ID.markup">[0][0][0][0]</property>
  <property name="meta.attr.0.stream.ENCODER.markup">Lavc60.3.100 mjpeg</property>
  <property name="meta.attr.0.stream.DURATION.markup">00:00:01.000000000</property>
  <property name="meta.attr.COMMENT.markup">Rendered with Manim Community v0.17.3</property>
  <property name="meta.attr.MAJOR_BRAND.markup">isom</property>
  <property name="meta.attr.MINOR_VERSION.markup">512</property>
  <property name="meta.attr.COMPATIBLE_BRANDS.markup">isomiso2avc1mp41</property>
  <property name="meta.attr.ENCODER.markup">Lavf60.3.100</property>
  <property name="seekable">1</property>
  <property name="meta.media.sample_aspect_num">1</property>
  <property name="meta.media.sample_aspect_den">1</property>
  <property name="format">3</property>
  <property name="audio_index">-1</property>
  <property name="video_index">0</property>
  <property name="meta.media.frame_rate_num">60</property>
  <property name="meta.media.frame_rate_den">1</property>
  <property name="meta.media.colorspace">601</property>
  <property name="meta.media.color_trc">2</property>
  <property name="meta.media.has_b_frames">0</property>
  <property name="meta.media.width">640</property>
  <property name="meta.media.height">360</property>
  <property name="meta.media.color_range">full</property>
  <property name="kdenlive:clipname">20.mp4</property>
  <property name="kdenlive:clip_type">2</property>
  <property name="kdenlive:folderid">16</property>
  <property name="kdenlive:id">91</property>
  <property name="mute_on_pause">0</property>
  <property name="kdenlive:file_size">75208</property>
  <property name="kdenlive:file_hash">c103ef0b8f06ebcfea48bc3ec53f7005</property>
  <property name="kdenlive:proxy">/home/xiaoxiae/.cache/kdenlive/proxy/c103ef0b8f06ebcfea48bc3ec53f7005.mkv</property>
  <property name="kdenlive:originalurl">video/Farmer/20.mp4</property>
  <property name="kdenlive:original.mlt_type">chain</property>
  <property name="kdenlive:original.in">0</property>
  <property name="kdenlive:original.out">00:00:00.983</property>
  <property name="kdenlive:original.length">60</property>
  <property name="kdenlive:original.eof">pause</property>
  <property name="kdenlive:original.resource">video/Farmer/20.mp4</property>
  <property name="kdenlive:original.mlt_service">avformat-novalidate</property>
  <property name="kdenlive:original.meta.media.nb_streams">1</property>
  <property name="kdenlive:original.meta.media.0.stream.type">video</property>
  <property name="kdenlive:original.meta.media.0.stream.frame_rate">60</property>
  <property name="kdenlive:original.meta.media.0.stream.sample_aspect_ratio">0</property>
  <property name="kdenlive:original.meta.media.0.codec.width">1920</property>
  <property name="kdenlive:original.meta.media.0.codec.height">1080</property>
  <property name="kdenlive:original.meta.media.0.codec.rotate">0</property>
  <property name="kdenlive:original.meta.media.0.codec.pix_fmt">yuv420p</property>
  <property name="kdenlive:original.meta.media.0.codec.sample_aspect_ratio">0</property>
  <property name="kdenlive:original.meta.media.0.codec.colorspace">709</property>
  <property name="kdenlive:original.meta.media.0.codec.name">h264</property>
  <property name="kdenlive:original.meta.media.0.codec.long_name">H.264 / AVC / MPEG-4 AVC / MPEG-4 part 10</property>
  <property name="kdenlive:original.meta.media.0.codec.bit_rate">588736</property>
  <property name="kdenlive:original.meta.attr.0.stream.handler_name.markup">VideoHandler</property>
  <property name="kdenlive:original.meta.attr.0.stream.vendor_id.markup">[0][0][0][0]</property>
  <property name="kdenlive:original.meta.attr.0.stream.encoder.markup">Lavc60.3.100 libx264</property>
  <property name="kdenlive:original.meta.attr.major_brand.markup">isom</property>
  <property name="kdenlive:original.meta.attr.minor_version.markup">512</property>
  <property name="kdenlive:original.meta.attr.compatible_brands.markup">isomiso2avc1mp41</property>
  <property name="kdenlive:original.meta.attr.encoder.markup">Lavf60.3.100</property>
  <property name="kdenlive:original.meta.attr.comment.markup">Rendered with Manim Community v0.17.3</property>
  <property name="kdenlive:original.seekable">1</property>
  <property name="kdenlive:original.width">1920</property>
  <property name="kdenlive:original.height">1080</property>
  <property name="kdenlive:original.meta.media.sample_aspect_num">1</property>
  <property name="kdenlive:original.meta.media.sample_aspect_den">1</property>
  <property name="kdenlive:original.format">3</property>
  <property name="kdenlive:original.audio_index">-1</property>
  <property name="kdenlive:original.video_index">0</property>
  <property name="kdenlive:original.meta.media.frame_rate_num">60</property>
  <property name="kdenlive:original.meta.media.frame_rate_den">1</property>
  <property name="kdenlive:original.meta.media.colorspace">709</property>
  <property name="kdenlive:original.meta.media.color_trc">2</property>
  <property name="kdenlive:original.meta.media.has_b_frames">2</property>
  <property name="kdenlive:original.meta.media.width">1920</property>
  <property name="kdenlive:original.meta.media.height">1080</property>
  <property name="kdenlive:original.meta.media.color_range">mpeg</property>
  <property name="kdenlive:original.meta.media.top_field_first">0</property>
  <property name="kdenlive:original.meta.media.progressive">1</property>
  <property name="kdenlive:original.kdenlive:clip_type">2</property>
  <property name="kdenlive:original.kdenlive:folderid">16</property>
  <property name="kdenlive:original.kdenlive:id">91</property>
  <property name="kdenlive:original.mute_on_pause">0</property>
  <property name="kdenlive:original.kdenlive:file_size">75208</property>
  <property name="kdenlive:original.kdenlive:file_hash">c103ef0b8f06ebcfea48bc3ec53f7005</property>
  <property name="kdenlive:original.backup">1</property>
  <property name="meta.media.top_field_first">0</property>
  <property name="meta.media.progressive">1</property>
 </chain>
 <chain id="chain400" out="00:00:01.483">
  <property name="length">90</property>
  <property name="eof">pause</property>
  <property name="resource">/home/xiaoxiae/.cache/kdenlive/proxy/31105c6fbc8f41a6f07fd74b2b368a46.mkv</property>
  <property name="mlt_service">avformat-novalidate</property>
  <property name="meta.media.nb_streams">1</property>
  <property name="meta.media.0.stream.type">video</property>
  <property name="meta.media.0.stream.frame_rate">60</property>
  <property name="meta.media.0.stream.sample_aspect_ratio">0</property>
  <property name="meta.media.0.codec.width">640</property>
  <property name="meta.media.0.codec.height">360</property>
  <property name="meta.media.0.codec.rotate">0</property>
  <property name="meta.media.0.codec.pix_fmt">yuvj420p</property>
  <property name="meta.media.0.codec.sample_aspect_ratio">0</property>
  <property name="meta.media.0.codec.colorspace">601</property>
  <property name="meta.media.0.codec.name">mjpeg</property>
  <property name="meta.media.0.codec.long_name">MJPEG (Motion JPEG)</property>
  <property name="meta.media.0.codec.bit_rate">0</property>
  <property name="meta.attr.0.stream.HANDLER_NAME.markup">VideoHandler</property>
  <property name="meta.attr.0.stream.VENDOR_ID.markup">[0][0][0][0]</property>
  <property name="meta.attr.0.stream.ENCODER.markup">Lavc60.3.100 mjpeg</property>
  <property name="meta.attr.0.stream.DURATION.markup">00:00:01.500000000</property>
  <property name="meta.attr.COMMENT.markup">Rendered with Manim Community v0.17.3</property>
  <property name="meta.attr.MAJOR_BRAND.markup">isom</property>
  <property name="meta.attr.MINOR_VERSION.markup">512</property>
  <property name="meta.attr.COMPATIBLE_BRANDS.markup">isomiso2avc1mp41</property>
  <property name="meta.attr.ENCODER.markup">Lavf60.3.100</property>
  <property name="seekable">1</property>
  <property name="meta.media.sample_aspect_num">1</property>
  <property name="meta.media.sample_aspect_den">1</property>
  <property name="format">3</property>
  <property name="audio_index">-1</property>
  <property name="video_index">0</property>
  <property name="meta.media.frame_rate_num">60</property>
  <property name="meta.media.frame_rate_den">1</property>
  <property name="meta.media.colorspace">601</property>
  <property name="meta.media.color_trc">2</property>
  <property name="meta.media.has_b_frames">0</property>
  <property name="meta.media.width">640</property>
  <property name="meta.media.height">360</property>
  <property name="meta.media.color_range">full</property>
  <property name="kdenlive:clipname">21.mp4</property>
  <property name="kdenlive:clip_type">2</property>
  <property name="kdenlive:folderid">16</property>
  <property name="kdenlive:id">92</property>
  <property name="mute_on_pause">0</property>
  <property name="kdenlive:file_size">63721</property>
  <property name="kdenlive:file_hash">31105c6fbc8f41a6f07fd74b2b368a46</property>
  <property name="kdenlive:proxy">/home/xiaoxiae/.cache/kdenlive/proxy/31105c6fbc8f41a6f07fd74b2b368a46.mkv</property>
  <property name="kdenlive:originalurl">video/Farmer/21.mp4</property>
  <property name="kdenlive:original.mlt_type">chain</property>
  <property name="kdenlive:original.in">0</property>
  <property name="kdenlive:original.out">00:00:01.483</property>
  <property name="kdenlive:original.length">90</property>
  <property name="kdenlive:original.eof">pause</property>
  <property name="kdenlive:original.resource">video/Farmer/21.mp4</property>
  <property name="kdenlive:original.mlt_service">avformat-novalidate</property>
  <property name="kdenlive:original.meta.media.nb_streams">1</property>
  <property name="kdenlive:original.meta.media.0.stream.type">video</property>
  <property name="kdenlive:original.meta.media.0.stream.frame_rate">60</property>
  <property name="kdenlive:original.meta.media.0.stream.sample_aspect_ratio">0</property>
  <property name="kdenlive:original.meta.media.0.codec.width">1920</property>
  <property name="kdenlive:original.meta.media.0.codec.height">1080</property>
  <property name="kdenlive:original.meta.media.0.codec.rotate">0</property>
  <property name="kdenlive:original.meta.media.0.codec.pix_fmt">yuv420p</property>
  <property name="kdenlive:original.meta.media.0.codec.sample_aspect_ratio">0</property>
  <property name="kdenlive:original.meta.media.0.codec.colorspace">709</property>
  <property name="kdenlive:original.meta.media.0.codec.name">h264</property>
  <property name="kdenlive:original.meta.media.0.codec.long_name">H.264 / AVC / MPEG-4 AVC / MPEG-4 part 10</property>
  <property name="kdenlive:original.meta.media.0.codec.bit_rate">329818</property>
  <property name="kdenlive:original.meta.attr.0.stream.handler_name.markup">VideoHandler</property>
  <property name="kdenlive:original.meta.attr.0.stream.vendor_id.markup">[0][0][0][0]</property>
  <property name="kdenlive:original.meta.attr.0.stream.encoder.markup">Lavc60.3.100 libx264</property>
  <property name="kdenlive:original.meta.attr.major_brand.markup">isom</property>
  <property name="kdenlive:original.meta.attr.minor_version.markup">512</property>
  <property name="kdenlive:original.meta.attr.compatible_brands.markup">isomiso2avc1mp41</property>
  <property name="kdenlive:original.meta.attr.encoder.markup">Lavf60.3.100</property>
  <property name="kdenlive:original.meta.attr.comment.markup">Rendered with Manim Community v0.17.3</property>
  <property name="kdenlive:original.seekable">1</property>
  <property name="kdenlive:original.width">1920</property>
  <property name="kdenlive:original.height">1080</property>
  <property name="kdenlive:original.meta.media.sample_aspect_num">1</property>
  <property name="kdenlive:original.meta.media.sample_aspect_den">1</property>
  <property name="kdenlive:original.format">3</property>
  <property name="kdenlive:original.audio_index">-1</property>
  <property name="kdenlive:original.video_index">0</property>
  <property name="kdenlive:original.meta.media.frame_rate_num">60</property>
  <property name="kdenlive:original.meta.media.frame_rate_den">1</property>
  <property name="kdenlive:original.meta.media.colorspace">709</property>
  <property name="kdenlive:original.meta.media.color_trc">2</property>
  <property name="kdenlive:original.meta.media.has_b_frames">2</property>
  <property name="kdenlive:original.meta.media.width">1920</property>
  <property name="kdenlive:original.meta.media.height">1080</property>
  <property name="kdenlive:original.meta.media.color_range">mpeg</property>
  <property name="kdenlive:original.meta.media.top_field_first">0</property>
  <property name="kdenlive:original.meta.media.progressive">1</property>
  <property name="kdenlive:original.kdenlive:clip_type">2</property>
  <property name="kdenlive:original.kdenlive:folderid">16</property>
  <property name="kdenlive:original.kdenlive:id">92</property>
  <property name="kdenlive:original.mute_on_pause">0</property>
  <property name="kdenlive:original.kdenlive:file_size">63721</property>
  <property name="kdenlive:original.kdenlive:file_hash">31105c6fbc8f41a6f07fd74b2b368a46</property>
  <property name="kdenlive:original.backup">1</property>
  <property name="meta.media.top_field_first">0</property>
  <property name="meta.media.progressive">1</property>
 </chain>
 <chain id="chain395" out="00:00:00.983">
  <property name="length">60</property>
  <property name="eof">pause</property>
  <property name="resource">/home/xiaoxiae/.cache/kdenlive/proxy/2224cadcf51dae6d724ddf598e68657b.mkv</property>
  <property name="mlt_service">avformat-novalidate</property>
  <property name="meta.media.nb_streams">1</property>
  <property name="meta.media.0.stream.type">video</property>
  <property name="meta.media.0.stream.frame_rate">60</property>
  <property name="meta.media.0.stream.sample_aspect_ratio">0</property>
  <property name="meta.media.0.codec.width">640</property>
  <property name="meta.media.0.codec.height">360</property>
  <property name="meta.media.0.codec.rotate">0</property>
  <property name="meta.media.0.codec.pix_fmt">yuvj420p</property>
  <property name="meta.media.0.codec.sample_aspect_ratio">0</property>
  <property name="meta.media.0.codec.colorspace">601</property>
  <property name="meta.media.0.codec.name">mjpeg</property>
  <property name="meta.media.0.codec.long_name">MJPEG (Motion JPEG)</property>
  <property name="meta.media.0.codec.bit_rate">0</property>
  <property name="meta.attr.0.stream.HANDLER_NAME.markup">VideoHandler</property>
  <property name="meta.attr.0.stream.VENDOR_ID.markup">[0][0][0][0]</property>
  <property name="meta.attr.0.stream.ENCODER.markup">Lavc60.3.100 mjpeg</property>
  <property name="meta.attr.0.stream.DURATION.markup">00:00:01.000000000</property>
  <property name="meta.attr.COMMENT.markup">Rendered with Manim Community v0.17.3</property>
  <property name="meta.attr.MAJOR_BRAND.markup">isom</property>
  <property name="meta.attr.MINOR_VERSION.markup">512</property>
  <property name="meta.attr.COMPATIBLE_BRANDS.markup">isomiso2avc1mp41</property>
  <property name="meta.attr.ENCODER.markup">Lavf60.3.100</property>
  <property name="seekable">1</property>
  <property name="meta.media.sample_aspect_num">1</property>
  <property name="meta.media.sample_aspect_den">1</property>
  <property name="format">3</property>
  <property name="audio_index">-1</property>
  <property name="video_index">0</property>
  <property name="meta.media.frame_rate_num">60</property>
  <property name="meta.media.frame_rate_den">1</property>
  <property name="meta.media.colorspace">601</property>
  <property name="meta.media.color_trc">2</property>
  <property name="meta.media.has_b_frames">0</property>
  <property name="meta.media.width">640</property>
  <property name="meta.media.height">360</property>
  <property name="meta.media.color_range">full</property>
  <property name="kdenlive:clipname">22.mp4</property>
  <property name="kdenlive:clip_type">2</property>
  <property name="kdenlive:folderid">16</property>
  <property name="kdenlive:id">93</property>
  <property name="mute_on_pause">0</property>
  <property name="kdenlive:file_size">83819</property>
  <property name="kdenlive:file_hash">2224cadcf51dae6d724ddf598e68657b</property>
  <property name="kdenlive:proxy">/home/xiaoxiae/.cache/kdenlive/proxy/2224cadcf51dae6d724ddf598e68657b.mkv</property>
  <property name="kdenlive:originalurl">video/Farmer/22.mp4</property>
  <property name="kdenlive:original.mlt_type">chain</property>
  <property name="kdenlive:original.in">0</property>
  <property name="kdenlive:original.out">00:00:00.983</property>
  <property name="kdenlive:original.length">60</property>
  <property name="kdenlive:original.eof">pause</property>
  <property name="kdenlive:original.resource">video/Farmer/22.mp4</property>
  <property name="kdenlive:original.mlt_service">avformat-novalidate</property>
  <property name="kdenlive:original.meta.media.nb_streams">1</property>
  <property name="kdenlive:original.meta.media.0.stream.type">video</property>
  <property name="kdenlive:original.meta.media.0.stream.frame_rate">60</property>
  <property name="kdenlive:original.meta.media.0.stream.sample_aspect_ratio">0</property>
  <property name="kdenlive:original.meta.media.0.codec.width">1920</property>
  <property name="kdenlive:original.meta.media.0.codec.height">1080</property>
  <property name="kdenlive:original.meta.media.0.codec.rotate">0</property>
  <property name="kdenlive:original.meta.media.0.codec.pix_fmt">yuv420p</property>
  <property name="kdenlive:original.meta.media.0.codec.sample_aspect_ratio">0</property>
  <property name="kdenlive:original.meta.media.0.codec.colorspace">709</property>
  <property name="kdenlive:original.meta.media.0.codec.name">h264</property>
  <property name="kdenlive:original.meta.media.0.codec.long_name">H.264 / AVC / MPEG-4 AVC / MPEG-4 part 10</property>
  <property name="kdenlive:original.meta.media.0.codec.bit_rate">657560</property>
  <property name="kdenlive:original.meta.attr.0.stream.handler_name.markup">VideoHandler</property>
  <property name="kdenlive:original.meta.attr.0.stream.vendor_id.markup">[0][0][0][0]</property>
  <property name="kdenlive:original.meta.attr.0.stream.encoder.markup">Lavc60.3.100 libx264</property>
  <property name="kdenlive:original.meta.attr.major_brand.markup">isom</property>
  <property name="kdenlive:original.meta.attr.minor_version.markup">512</property>
  <property name="kdenlive:original.meta.attr.compatible_brands.markup">isomiso2avc1mp41</property>
  <property name="kdenlive:original.meta.attr.encoder.markup">Lavf60.3.100</property>
  <property name="kdenlive:original.meta.attr.comment.markup">Rendered with Manim Community v0.17.3</property>
  <property name="kdenlive:original.seekable">1</property>
  <property name="kdenlive:original.width">1920</property>
  <property name="kdenlive:original.height">1080</property>
  <property name="kdenlive:original.meta.media.sample_aspect_num">1</property>
  <property name="kdenlive:original.meta.media.sample_aspect_den">1</property>
  <property name="kdenlive:original.format">3</property>
  <property name="kdenlive:original.audio_index">-1</property>
  <property name="kdenlive:original.video_index">0</property>
  <property name="kdenlive:original.meta.media.frame_rate_num">60</property>
  <property name="kdenlive:original.meta.media.frame_rate_den">1</property>
  <property name="kdenlive:original.meta.media.colorspace">709</property>
  <property name="kdenlive:original.meta.media.color_trc">2</property>
  <property name="kdenlive:original.meta.media.has_b_frames">2</property>
  <property name="kdenlive:original.meta.media.width">1920</property>
  <property name="kdenlive:original.meta.media.height">1080</property>
  <property name="kdenlive:original.meta.media.color_range">mpeg</property>
  <property name="kdenlive:original.meta.media.top_field_first">0</property>
  <property name="kdenlive:original.meta.media.progressive">1</property>
  <property name="kdenlive:original.kdenlive:clip_type">2</property>
  <property name="kdenlive:original.kdenlive:folderid">16</property>
  <property name="kdenlive:original.kdenlive:id">93</property>
  <property name="kdenlive:original.mute_on_pause">0</property>
  <property name="kdenlive:original.kdenlive:file_size">83819</property>
  <property name="kdenlive:original.kdenlive:file_hash">2224cadcf51dae6d724ddf598e68657b</property>
  <property name="kdenlive:original.backup">1</property>
  <property name="meta.media.top_field_first">0</property>
  <property name="meta.media.progressive">1</property>
 </chain>
 <chain id="chain396" out="00:00:02.233">
  <property name="length">135</property>
  <property name="eof">pause</property>
  <property name="resource">/home/xiaoxiae/.cache/kdenlive/proxy/f3fe69db14a24cb55699231eda9f854d.mkv</property>
  <property name="mlt_service">avformat-novalidate</property>
  <property name="meta.media.nb_streams">1</property>
  <property name="meta.media.0.stream.type">video</property>
  <property name="meta.media.0.stream.frame_rate">60</property>
  <property name="meta.media.0.stream.sample_aspect_ratio">0</property>
  <property name="meta.media.0.codec.width">640</property>
  <property name="meta.media.0.codec.height">360</property>
  <property name="meta.media.0.codec.rotate">0</property>
  <property name="meta.media.0.codec.pix_fmt">yuvj420p</property>
  <property name="meta.media.0.codec.sample_aspect_ratio">0</property>
  <property name="meta.media.0.codec.colorspace">601</property>
  <property name="meta.media.0.codec.name">mjpeg</property>
  <property name="meta.media.0.codec.long_name">MJPEG (Motion JPEG)</property>
  <property name="meta.media.0.codec.bit_rate">0</property>
  <property name="meta.attr.0.stream.HANDLER_NAME.markup">VideoHandler</property>
  <property name="meta.attr.0.stream.VENDOR_ID.markup">[0][0][0][0]</property>
  <property name="meta.attr.0.stream.ENCODER.markup">Lavc60.3.100 mjpeg</property>
  <property name="meta.attr.0.stream.DURATION.markup">00:00:02.250000000</property>
  <property name="meta.attr.COMMENT.markup">Rendered with Manim Community v0.17.3</property>
  <property name="meta.attr.MAJOR_BRAND.markup">isom</property>
  <property name="meta.attr.MINOR_VERSION.markup">512</property>
  <property name="meta.attr.COMPATIBLE_BRANDS.markup">isomiso2avc1mp41</property>
  <property name="meta.attr.ENCODER.markup">Lavf60.3.100</property>
  <property name="seekable">1</property>
  <property name="meta.media.sample_aspect_num">1</property>
  <property name="meta.media.sample_aspect_den">1</property>
  <property name="format">3</property>
  <property name="audio_index">-1</property>
  <property name="video_index">0</property>
  <property name="meta.media.frame_rate_num">60</property>
  <property name="meta.media.frame_rate_den">1</property>
  <property name="meta.media.colorspace">601</property>
  <property name="meta.media.color_trc">2</property>
  <property name="meta.media.has_b_frames">0</property>
  <property name="meta.media.width">640</property>
  <property name="meta.media.height">360</property>
  <property name="meta.media.color_range">full</property>
  <property name="kdenlive:clipname">23.mp4</property>
  <property name="kdenlive:clip_type">2</property>
  <property name="kdenlive:folderid">16</property>
  <property name="kdenlive:id">94</property>
  <property name="mute_on_pause">0</property>
  <property name="kdenlive:file_size">130929</property>
  <property name="kdenlive:file_hash">f3fe69db14a24cb55699231eda9f854d</property>
  <property name="kdenlive:proxy">/home/xiaoxiae/.cache/kdenlive/proxy/f3fe69db14a24cb55699231eda9f854d.mkv</property>
  <property name="kdenlive:originalurl">video/Farmer/23.mp4</property>
  <property name="kdenlive:original.mlt_type">chain</property>
  <property name="kdenlive:original.in">0</property>
  <property name="kdenlive:original.out">00:00:02.233</property>
  <property name="kdenlive:original.length">135</property>
  <property name="kdenlive:original.eof">pause</property>
  <property name="kdenlive:original.resource">video/Farmer/23.mp4</property>
  <property name="kdenlive:original.mlt_service">avformat-novalidate</property>
  <property name="kdenlive:original.meta.media.nb_streams">1</property>
  <property name="kdenlive:original.meta.media.0.stream.type">video</property>
  <property name="kdenlive:original.meta.media.0.stream.frame_rate">60</property>
  <property name="kdenlive:original.meta.media.0.stream.sample_aspect_ratio">0</property>
  <property name="kdenlive:original.meta.media.0.codec.width">1920</property>
  <property name="kdenlive:original.meta.media.0.codec.height">1080</property>
  <property name="kdenlive:original.meta.media.0.codec.rotate">0</property>
  <property name="kdenlive:original.meta.media.0.codec.pix_fmt">yuv420p</property>
  <property name="kdenlive:original.meta.media.0.codec.sample_aspect_ratio">0</property>
  <property name="kdenlive:original.meta.media.0.codec.colorspace">709</property>
  <property name="kdenlive:original.meta.media.0.codec.name">h264</property>
  <property name="kdenlive:original.meta.media.0.codec.long_name">H.264 / AVC / MPEG-4 AVC / MPEG-4 part 10</property>
  <property name="kdenlive:original.meta.media.0.codec.bit_rate">456608</property>
  <property name="kdenlive:original.meta.attr.0.stream.handler_name.markup">VideoHandler</property>
  <property name="kdenlive:original.meta.attr.0.stream.vendor_id.markup">[0][0][0][0]</property>
  <property name="kdenlive:original.meta.attr.0.stream.encoder.markup">Lavc60.3.100 libx264</property>
  <property name="kdenlive:original.meta.attr.major_brand.markup">isom</property>
  <property name="kdenlive:original.meta.attr.minor_version.markup">512</property>
  <property name="kdenlive:original.meta.attr.compatible_brands.markup">isomiso2avc1mp41</property>
  <property name="kdenlive:original.meta.attr.encoder.markup">Lavf60.3.100</property>
  <property name="kdenlive:original.meta.attr.comment.markup">Rendered with Manim Community v0.17.3</property>
  <property name="kdenlive:original.seekable">1</property>
  <property name="kdenlive:original.width">1920</property>
  <property name="kdenlive:original.height">1080</property>
  <property name="kdenlive:original.meta.media.sample_aspect_num">1</property>
  <property name="kdenlive:original.meta.media.sample_aspect_den">1</property>
  <property name="kdenlive:original.format">3</property>
  <property name="kdenlive:original.audio_index">-1</property>
  <property name="kdenlive:original.video_index">0</property>
  <property name="kdenlive:original.meta.media.frame_rate_num">60</property>
  <property name="kdenlive:original.meta.media.frame_rate_den">1</property>
  <property name="kdenlive:original.meta.media.colorspace">709</property>
  <property name="kdenlive:original.meta.media.color_trc">2</property>
  <property name="kdenlive:original.meta.media.has_b_frames">2</property>
  <property name="kdenlive:original.meta.media.width">1920</property>
  <property name="kdenlive:original.meta.media.height">1080</property>
  <property name="kdenlive:original.meta.media.color_range">mpeg</property>
  <property name="kdenlive:original.meta.media.top_field_first">0</property>
  <property name="kdenlive:original.meta.media.progressive">1</property>
  <property name="kdenlive:original.kdenlive:clip_type">2</property>
  <property name="kdenlive:original.kdenlive:folderid">16</property>
  <property name="kdenlive:original.kdenlive:id">94</property>
  <property name="kdenlive:original.mute_on_pause">0</property>
  <property name="kdenlive:original.kdenlive:file_size">130929</property>
  <property name="kdenlive:original.kdenlive:file_hash">f3fe69db14a24cb55699231eda9f854d</property>
  <property name="kdenlive:original.backup">1</property>
  <property name="meta.media.top_field_first">0</property>
  <property name="meta.media.progressive">1</property>
 </chain>
 <chain id="chain394" out="00:00:00.983">
  <property name="length">60</property>
  <property name="eof">pause</property>
  <property name="resource">/home/xiaoxiae/.cache/kdenlive/proxy/330ce071105dd1ffdd0d2b4ff7143f52.mkv</property>
  <property name="mlt_service">avformat-novalidate</property>
  <property name="meta.media.nb_streams">1</property>
  <property name="meta.media.0.stream.type">video</property>
  <property name="meta.media.0.stream.frame_rate">60</property>
  <property name="meta.media.0.stream.sample_aspect_ratio">0</property>
  <property name="meta.media.0.codec.width">640</property>
  <property name="meta.media.0.codec.height">360</property>
  <property name="meta.media.0.codec.rotate">0</property>
  <property name="meta.media.0.codec.pix_fmt">yuvj420p</property>
  <property name="meta.media.0.codec.sample_aspect_ratio">0</property>
  <property name="meta.media.0.codec.colorspace">601</property>
  <property name="meta.media.0.codec.name">mjpeg</property>
  <property name="meta.media.0.codec.long_name">MJPEG (Motion JPEG)</property>
  <property name="meta.media.0.codec.bit_rate">0</property>
  <property name="meta.attr.0.stream.HANDLER_NAME.markup">VideoHandler</property>
  <property name="meta.attr.0.stream.VENDOR_ID.markup">[0][0][0][0]</property>
  <property name="meta.attr.0.stream.ENCODER.markup">Lavc60.3.100 mjpeg</property>
  <property name="meta.attr.0.stream.DURATION.markup">00:00:01.000000000</property>
  <property name="meta.attr.COMMENT.markup">Rendered with Manim Community v0.17.3</property>
  <property name="meta.attr.MAJOR_BRAND.markup">isom</property>
  <property name="meta.attr.MINOR_VERSION.markup">512</property>
  <property name="meta.attr.COMPATIBLE_BRANDS.markup">isomiso2avc1mp41</property>
  <property name="meta.attr.ENCODER.markup">Lavf60.3.100</property>
  <property name="seekable">1</property>
  <property name="meta.media.sample_aspect_num">1</property>
  <property name="meta.media.sample_aspect_den">1</property>
  <property name="format">3</property>
  <property name="audio_index">-1</property>
  <property name="video_index">0</property>
  <property name="meta.media.frame_rate_num">60</property>
  <property name="meta.media.frame_rate_den">1</property>
  <property name="meta.media.colorspace">601</property>
  <property name="meta.media.color_trc">2</property>
  <property name="meta.media.has_b_frames">0</property>
  <property name="meta.media.width">640</property>
  <property name="meta.media.height">360</property>
  <property name="meta.media.color_range">full</property>
  <property name="kdenlive:clipname">24.mp4</property>
  <property name="kdenlive:clip_type">2</property>
  <property name="kdenlive:folderid">16</property>
  <property name="kdenlive:id">95</property>
  <property name="mute_on_pause">0</property>
  <property name="kdenlive:file_size">77793</property>
  <property name="kdenlive:file_hash">330ce071105dd1ffdd0d2b4ff7143f52</property>
  <property name="kdenlive:proxy">/home/xiaoxiae/.cache/kdenlive/proxy/330ce071105dd1ffdd0d2b4ff7143f52.mkv</property>
  <property name="kdenlive:originalurl">video/Farmer/24.mp4</property>
  <property name="kdenlive:original.mlt_type">chain</property>
  <property name="kdenlive:original.in">0</property>
  <property name="kdenlive:original.out">00:00:00.983</property>
  <property name="kdenlive:original.length">60</property>
  <property name="kdenlive:original.eof">pause</property>
  <property name="kdenlive:original.resource">video/Farmer/24.mp4</property>
  <property name="kdenlive:original.mlt_service">avformat-novalidate</property>
  <property name="kdenlive:original.meta.media.nb_streams">1</property>
  <property name="kdenlive:original.meta.media.0.stream.type">video</property>
  <property name="kdenlive:original.meta.media.0.stream.frame_rate">60</property>
  <property name="kdenlive:original.meta.media.0.stream.sample_aspect_ratio">0</property>
  <property name="kdenlive:original.meta.media.0.codec.width">1920</property>
  <property name="kdenlive:original.meta.media.0.codec.height">1080</property>
  <property name="kdenlive:original.meta.media.0.codec.rotate">0</property>
  <property name="kdenlive:original.meta.media.0.codec.pix_fmt">yuv420p</property>
  <property name="kdenlive:original.meta.media.0.codec.sample_aspect_ratio">0</property>
  <property name="kdenlive:original.meta.media.0.codec.colorspace">709</property>
  <property name="kdenlive:original.meta.media.0.codec.name">h264</property>
  <property name="kdenlive:original.meta.media.0.codec.long_name">H.264 / AVC / MPEG-4 AVC / MPEG-4 part 10</property>
  <property name="kdenlive:original.meta.media.0.codec.bit_rate">609736</property>
  <property name="kdenlive:original.meta.attr.0.stream.handler_name.markup">VideoHandler</property>
  <property name="kdenlive:original.meta.attr.0.stream.vendor_id.markup">[0][0][0][0]</property>
  <property name="kdenlive:original.meta.attr.0.stream.encoder.markup">Lavc60.3.100 libx264</property>
  <property name="kdenlive:original.meta.attr.major_brand.markup">isom</property>
  <property name="kdenlive:original.meta.attr.minor_version.markup">512</property>
  <property name="kdenlive:original.meta.attr.compatible_brands.markup">isomiso2avc1mp41</property>
  <property name="kdenlive:original.meta.attr.encoder.markup">Lavf60.3.100</property>
  <property name="kdenlive:original.meta.attr.comment.markup">Rendered with Manim Community v0.17.3</property>
  <property name="kdenlive:original.seekable">1</property>
  <property name="kdenlive:original.width">1920</property>
  <property name="kdenlive:original.height">1080</property>
  <property name="kdenlive:original.meta.media.sample_aspect_num">1</property>
  <property name="kdenlive:original.meta.media.sample_aspect_den">1</property>
  <property name="kdenlive:original.format">3</property>
  <property name="kdenlive:original.audio_index">-1</property>
  <property name="kdenlive:original.video_index">0</property>
  <property name="kdenlive:original.meta.media.frame_rate_num">60</property>
  <property name="kdenlive:original.meta.media.frame_rate_den">1</property>
  <property name="kdenlive:original.meta.media.colorspace">709</property>
  <property name="kdenlive:original.meta.media.color_trc">2</property>
  <property name="kdenlive:original.meta.media.has_b_frames">2</property>
  <property name="kdenlive:original.meta.media.width">1920</property>
  <property name="kdenlive:original.meta.media.height">1080</property>
  <property name="kdenlive:original.meta.media.color_range">mpeg</property>
  <property name="kdenlive:original.meta.media.top_field_first">0</property>
  <property name="kdenlive:original.meta.media.progressive">1</property>
  <property name="kdenlive:original.kdenlive:clip_type">2</property>
  <property name="kdenlive:original.kdenlive:folderid">16</property>
  <property name="kdenlive:original.kdenlive:id">95</property>
  <property name="kdenlive:original.mute_on_pause">0</property>
  <property name="kdenlive:original.kdenlive:file_size">77793</property>
  <property name="kdenlive:original.kdenlive:file_hash">330ce071105dd1ffdd0d2b4ff7143f52</property>
  <property name="kdenlive:original.backup">1</property>
  <property name="meta.media.top_field_first">0</property>
  <property name="meta.media.progressive">1</property>
 </chain>
 <chain id="chain393" out="00:00:01.233">
  <property name="length">75</property>
  <property name="eof">pause</property>
  <property name="resource">/home/xiaoxiae/.cache/kdenlive/proxy/6cac1ff78730f74967948356aa15457a.mkv</property>
  <property name="mlt_service">avformat-novalidate</property>
  <property name="meta.media.nb_streams">1</property>
  <property name="meta.media.0.stream.type">video</property>
  <property name="meta.media.0.stream.frame_rate">60</property>
  <property name="meta.media.0.stream.sample_aspect_ratio">0</property>
  <property name="meta.media.0.codec.width">640</property>
  <property name="meta.media.0.codec.height">360</property>
  <property name="meta.media.0.codec.rotate">0</property>
  <property name="meta.media.0.codec.pix_fmt">yuvj420p</property>
  <property name="meta.media.0.codec.sample_aspect_ratio">0</property>
  <property name="meta.media.0.codec.colorspace">601</property>
  <property name="meta.media.0.codec.name">mjpeg</property>
  <property name="meta.media.0.codec.long_name">MJPEG (Motion JPEG)</property>
  <property name="meta.media.0.codec.bit_rate">0</property>
  <property name="meta.attr.0.stream.HANDLER_NAME.markup">VideoHandler</property>
  <property name="meta.attr.0.stream.VENDOR_ID.markup">[0][0][0][0]</property>
  <property name="meta.attr.0.stream.ENCODER.markup">Lavc60.3.100 mjpeg</property>
  <property name="meta.attr.0.stream.DURATION.markup">00:00:01.250000000</property>
  <property name="meta.attr.COMMENT.markup">Rendered with Manim Community v0.17.3</property>
  <property name="meta.attr.MAJOR_BRAND.markup">isom</property>
  <property name="meta.attr.MINOR_VERSION.markup">512</property>
  <property name="meta.attr.COMPATIBLE_BRANDS.markup">isomiso2avc1mp41</property>
  <property name="meta.attr.ENCODER.markup">Lavf60.3.100</property>
  <property name="seekable">1</property>
  <property name="meta.media.sample_aspect_num">1</property>
  <property name="meta.media.sample_aspect_den">1</property>
  <property name="format">3</property>
  <property name="audio_index">-1</property>
  <property name="video_index">0</property>
  <property name="meta.media.frame_rate_num">60</property>
  <property name="meta.media.frame_rate_den">1</property>
  <property name="meta.media.colorspace">601</property>
  <property name="meta.media.color_trc">2</property>
  <property name="meta.media.has_b_frames">0</property>
  <property name="meta.media.width">640</property>
  <property name="meta.media.height">360</property>
  <property name="meta.media.color_range">full</property>
  <property name="kdenlive:clipname">25.mp4</property>
  <property name="kdenlive:clip_type">2</property>
  <property name="kdenlive:folderid">16</property>
  <property name="kdenlive:id">96</property>
  <property name="mute_on_pause">0</property>
  <property name="kdenlive:file_size">59096</property>
  <property name="kdenlive:file_hash">6cac1ff78730f74967948356aa15457a</property>
  <property name="kdenlive:proxy">/home/xiaoxiae/.cache/kdenlive/proxy/6cac1ff78730f74967948356aa15457a.mkv</property>
  <property name="kdenlive:originalurl">video/Farmer/25.mp4</property>
  <property name="kdenlive:original.mlt_type">chain</property>
  <property name="kdenlive:original.in">0</property>
  <property name="kdenlive:original.out">00:00:01.233</property>
  <property name="kdenlive:original.length">75</property>
  <property name="kdenlive:original.eof">pause</property>
  <property name="kdenlive:original.resource">video/Farmer/25.mp4</property>
  <property name="kdenlive:original.mlt_service">avformat-novalidate</property>
  <property name="kdenlive:original.meta.media.nb_streams">1</property>
  <property name="kdenlive:original.meta.media.0.stream.type">video</property>
  <property name="kdenlive:original.meta.media.0.stream.frame_rate">60</property>
  <property name="kdenlive:original.meta.media.0.stream.sample_aspect_ratio">0</property>
  <property name="kdenlive:original.meta.media.0.codec.width">1920</property>
  <property name="kdenlive:original.meta.media.0.codec.height">1080</property>
  <property name="kdenlive:original.meta.media.0.codec.rotate">0</property>
  <property name="kdenlive:original.meta.media.0.codec.pix_fmt">yuv420p</property>
  <property name="kdenlive:original.meta.media.0.codec.sample_aspect_ratio">0</property>
  <property name="kdenlive:original.meta.media.0.codec.colorspace">709</property>
  <property name="kdenlive:original.meta.media.0.codec.name">h264</property>
  <property name="kdenlive:original.meta.media.0.codec.long_name">H.264 / AVC / MPEG-4 AVC / MPEG-4 part 10</property>
  <property name="kdenlive:original.meta.media.0.codec.bit_rate">366771</property>
  <property name="kdenlive:original.meta.attr.0.stream.handler_name.markup">VideoHandler</property>
  <property name="kdenlive:original.meta.attr.0.stream.vendor_id.markup">[0][0][0][0]</property>
  <property name="kdenlive:original.meta.attr.0.stream.encoder.markup">Lavc60.3.100 libx264</property>
  <property name="kdenlive:original.meta.attr.major_brand.markup">isom</property>
  <property name="kdenlive:original.meta.attr.minor_version.markup">512</property>
  <property name="kdenlive:original.meta.attr.compatible_brands.markup">isomiso2avc1mp41</property>
  <property name="kdenlive:original.meta.attr.encoder.markup">Lavf60.3.100</property>
  <property name="kdenlive:original.meta.attr.comment.markup">Rendered with Manim Community v0.17.3</property>
  <property name="kdenlive:original.seekable">1</property>
  <property name="kdenlive:original.width">1920</property>
  <property name="kdenlive:original.height">1080</property>
  <property name="kdenlive:original.meta.media.sample_aspect_num">1</property>
  <property name="kdenlive:original.meta.media.sample_aspect_den">1</property>
  <property name="kdenlive:original.format">3</property>
  <property name="kdenlive:original.audio_index">-1</property>
  <property name="kdenlive:original.video_index">0</property>
  <property name="kdenlive:original.meta.media.frame_rate_num">60</property>
  <property name="kdenlive:original.meta.media.frame_rate_den">1</property>
  <property name="kdenlive:original.meta.media.colorspace">709</property>
  <property name="kdenlive:original.meta.media.color_trc">2</property>
  <property name="kdenlive:original.meta.media.has_b_frames">2</property>
  <property name="kdenlive:original.meta.media.width">1920</property>
  <property name="kdenlive:original.meta.media.height">1080</property>
  <property name="kdenlive:original.meta.media.color_range">mpeg</property>
  <property name="kdenlive:original.meta.media.top_field_first">0</property>
  <property name="kdenlive:original.meta.media.progressive">1</property>
  <property name="kdenlive:original.kdenlive:clip_type">2</property>
  <property name="kdenlive:original.kdenlive:folderid">16</property>
  <property name="kdenlive:original.kdenlive:id">96</property>
  <property name="kdenlive:original.mute_on_pause">0</property>
  <property name="kdenlive:original.kdenlive:file_size">59096</property>
  <property name="kdenlive:original.kdenlive:file_hash">6cac1ff78730f74967948356aa15457a</property>
  <property name="kdenlive:original.backup">1</property>
  <property name="meta.media.top_field_first">0</property>
  <property name="meta.media.progressive">1</property>
 </chain>
 <chain id="chain391" out="00:00:00.983">
  <property name="length">60</property>
  <property name="eof">pause</property>
  <property name="resource">/home/xiaoxiae/.cache/kdenlive/proxy/67cea786e0ad35a64d111e7cb4493a78.mkv</property>
  <property name="mlt_service">avformat-novalidate</property>
  <property name="meta.media.nb_streams">1</property>
  <property name="meta.media.0.stream.type">video</property>
  <property name="meta.media.0.stream.frame_rate">60</property>
  <property name="meta.media.0.stream.sample_aspect_ratio">0</property>
  <property name="meta.media.0.codec.width">640</property>
  <property name="meta.media.0.codec.height">360</property>
  <property name="meta.media.0.codec.rotate">0</property>
  <property name="meta.media.0.codec.pix_fmt">yuvj420p</property>
  <property name="meta.media.0.codec.sample_aspect_ratio">0</property>
  <property name="meta.media.0.codec.colorspace">601</property>
  <property name="meta.media.0.codec.name">mjpeg</property>
  <property name="meta.media.0.codec.long_name">MJPEG (Motion JPEG)</property>
  <property name="meta.media.0.codec.bit_rate">0</property>
  <property name="meta.attr.0.stream.HANDLER_NAME.markup">VideoHandler</property>
  <property name="meta.attr.0.stream.VENDOR_ID.markup">[0][0][0][0]</property>
  <property name="meta.attr.0.stream.ENCODER.markup">Lavc60.3.100 mjpeg</property>
  <property name="meta.attr.0.stream.DURATION.markup">00:00:01.000000000</property>
  <property name="meta.attr.COMMENT.markup">Rendered with Manim Community v0.17.3</property>
  <property name="meta.attr.MAJOR_BRAND.markup">isom</property>
  <property name="meta.attr.MINOR_VERSION.markup">512</property>
  <property name="meta.attr.COMPATIBLE_BRANDS.markup">isomiso2avc1mp41</property>
  <property name="meta.attr.ENCODER.markup">Lavf60.3.100</property>
  <property name="seekable">1</property>
  <property name="meta.media.sample_aspect_num">1</property>
  <property name="meta.media.sample_aspect_den">1</property>
  <property name="format">3</property>
  <property name="audio_index">-1</property>
  <property name="video_index">0</property>
  <property name="meta.media.frame_rate_num">60</property>
  <property name="meta.media.frame_rate_den">1</property>
  <property name="meta.media.colorspace">601</property>
  <property name="meta.media.color_trc">2</property>
  <property name="meta.media.has_b_frames">0</property>
  <property name="meta.media.width">640</property>
  <property name="meta.media.height">360</property>
  <property name="meta.media.color_range">full</property>
  <property name="kdenlive:clipname">26.mp4</property>
  <property name="kdenlive:clip_type">2</property>
  <property name="kdenlive:folderid">16</property>
  <property name="kdenlive:id">97</property>
  <property name="mute_on_pause">0</property>
  <property name="kdenlive:file_size">80918</property>
  <property name="kdenlive:file_hash">67cea786e0ad35a64d111e7cb4493a78</property>
  <property name="kdenlive:proxy">/home/xiaoxiae/.cache/kdenlive/proxy/67cea786e0ad35a64d111e7cb4493a78.mkv</property>
  <property name="kdenlive:originalurl">video/Farmer/26.mp4</property>
  <property name="kdenlive:original.mlt_type">chain</property>
  <property name="kdenlive:original.in">0</property>
  <property name="kdenlive:original.out">00:00:00.983</property>
  <property name="kdenlive:original.length">60</property>
  <property name="kdenlive:original.eof">pause</property>
  <property name="kdenlive:original.resource">video/Farmer/26.mp4</property>
  <property name="kdenlive:original.mlt_service">avformat-novalidate</property>
  <property name="kdenlive:original.meta.media.nb_streams">1</property>
  <property name="kdenlive:original.meta.media.0.stream.type">video</property>
  <property name="kdenlive:original.meta.media.0.stream.frame_rate">60</property>
  <property name="kdenlive:original.meta.media.0.stream.sample_aspect_ratio">0</property>
  <property name="kdenlive:original.meta.media.0.codec.width">1920</property>
  <property name="kdenlive:original.meta.media.0.codec.height">1080</property>
  <property name="kdenlive:original.meta.media.0.codec.rotate">0</property>
  <property name="kdenlive:original.meta.media.0.codec.pix_fmt">yuv420p</property>
  <property name="kdenlive:original.meta.media.0.codec.sample_aspect_ratio">0</property>
  <property name="kdenlive:original.meta.media.0.codec.colorspace">709</property>
  <property name="kdenlive:original.meta.media.0.codec.name">h264</property>
  <property name="kdenlive:original.meta.media.0.codec.long_name">H.264 / AVC / MPEG-4 AVC / MPEG-4 part 10</property>
  <property name="kdenlive:original.meta.media.0.codec.bit_rate">634416</property>
  <property name="kdenlive:original.meta.attr.0.stream.handler_name.markup">VideoHandler</property>
  <property name="kdenlive:original.meta.attr.0.stream.vendor_id.markup">[0][0][0][0]</property>
  <property name="kdenlive:original.meta.attr.0.stream.encoder.markup">Lavc60.3.100 libx264</property>
  <property name="kdenlive:original.meta.attr.major_brand.markup">isom</property>
  <property name="kdenlive:original.meta.attr.minor_version.markup">512</property>
  <property name="kdenlive:original.meta.attr.compatible_brands.markup">isomiso2avc1mp41</property>
  <property name="kdenlive:original.meta.attr.encoder.markup">Lavf60.3.100</property>
  <property name="kdenlive:original.meta.attr.comment.markup">Rendered with Manim Community v0.17.3</property>
  <property name="kdenlive:original.seekable">1</property>
  <property name="kdenlive:original.width">1920</property>
  <property name="kdenlive:original.height">1080</property>
  <property name="kdenlive:original.meta.media.sample_aspect_num">1</property>
  <property name="kdenlive:original.meta.media.sample_aspect_den">1</property>
  <property name="kdenlive:original.format">3</property>
  <property name="kdenlive:original.audio_index">-1</property>
  <property name="kdenlive:original.video_index">0</property>
  <property name="kdenlive:original.meta.media.frame_rate_num">60</property>
  <property name="kdenlive:original.meta.media.frame_rate_den">1</property>
  <property name="kdenlive:original.meta.media.colorspace">709</property>
  <property name="kdenlive:original.meta.media.color_trc">2</property>
  <property name="kdenlive:original.meta.media.has_b_frames">2</property>
  <property name="kdenlive:original.meta.media.width">1920</property>
  <property name="kdenlive:original.meta.media.height">1080</property>
  <property name="kdenlive:original.meta.media.color_range">mpeg</property>
  <property name="kdenlive:original.meta.media.top_field_first">0</property>
  <property name="kdenlive:original.meta.media.progressive">1</property>
  <property name="kdenlive:original.kdenlive:clip_type">2</property>
  <property name="kdenlive:original.kdenlive:folderid">16</property>
  <property name="kdenlive:original.kdenlive:id">97</property>
  <property name="kdenlive:original.mute_on_pause">0</property>
  <property name="kdenlive:original.kdenlive:file_size">80918</property>
  <property name="kdenlive:original.kdenlive:file_hash">67cea786e0ad35a64d111e7cb4493a78</property>
  <property name="kdenlive:original.backup">1</property>
  <property name="meta.media.top_field_first">0</property>
  <property name="meta.media.progressive">1</property>
 </chain>
 <chain id="chain390" out="00:00:01.983">
  <property name="length">120</property>
  <property name="eof">pause</property>
  <property name="resource">/home/xiaoxiae/.cache/kdenlive/proxy/7ddf1063092d3e3276d0c987fc16f6de.mkv</property>
  <property name="mlt_service">avformat-novalidate</property>
  <property name="meta.media.nb_streams">1</property>
  <property name="meta.media.0.stream.type">video</property>
  <property name="meta.media.0.stream.frame_rate">60</property>
  <property name="meta.media.0.stream.sample_aspect_ratio">0</property>
  <property name="meta.media.0.codec.width">640</property>
  <property name="meta.media.0.codec.height">360</property>
  <property name="meta.media.0.codec.rotate">0</property>
  <property name="meta.media.0.codec.pix_fmt">yuvj420p</property>
  <property name="meta.media.0.codec.sample_aspect_ratio">0</property>
  <property name="meta.media.0.codec.colorspace">601</property>
  <property name="meta.media.0.codec.name">mjpeg</property>
  <property name="meta.media.0.codec.long_name">MJPEG (Motion JPEG)</property>
  <property name="meta.media.0.codec.bit_rate">0</property>
  <property name="meta.attr.0.stream.HANDLER_NAME.markup">VideoHandler</property>
  <property name="meta.attr.0.stream.VENDOR_ID.markup">[0][0][0][0]</property>
  <property name="meta.attr.0.stream.ENCODER.markup">Lavc60.3.100 mjpeg</property>
  <property name="meta.attr.0.stream.DURATION.markup">00:00:02.000000000</property>
  <property name="meta.attr.COMMENT.markup">Rendered with Manim Community v0.17.3</property>
  <property name="meta.attr.MAJOR_BRAND.markup">isom</property>
  <property name="meta.attr.MINOR_VERSION.markup">512</property>
  <property name="meta.attr.COMPATIBLE_BRANDS.markup">isomiso2avc1mp41</property>
  <property name="meta.attr.ENCODER.markup">Lavf60.3.100</property>
  <property name="seekable">1</property>
  <property name="meta.media.sample_aspect_num">1</property>
  <property name="meta.media.sample_aspect_den">1</property>
  <property name="format">3</property>
  <property name="audio_index">-1</property>
  <property name="video_index">0</property>
  <property name="meta.media.frame_rate_num">60</property>
  <property name="meta.media.frame_rate_den">1</property>
  <property name="meta.media.colorspace">601</property>
  <property name="meta.media.color_trc">2</property>
  <property name="meta.media.has_b_frames">0</property>
  <property name="meta.media.width">640</property>
  <property name="meta.media.height">360</property>
  <property name="meta.media.color_range">full</property>
  <property name="kdenlive:clipname">27.mp4</property>
  <property name="kdenlive:clip_type">2</property>
  <property name="kdenlive:folderid">16</property>
  <property name="kdenlive:id">98</property>
  <property name="mute_on_pause">0</property>
  <property name="kdenlive:file_size">114227</property>
  <property name="kdenlive:file_hash">7ddf1063092d3e3276d0c987fc16f6de</property>
  <property name="kdenlive:proxy">/home/xiaoxiae/.cache/kdenlive/proxy/7ddf1063092d3e3276d0c987fc16f6de.mkv</property>
  <property name="kdenlive:originalurl">video/Farmer/27.mp4</property>
  <property name="kdenlive:original.mlt_type">chain</property>
  <property name="kdenlive:original.in">0</property>
  <property name="kdenlive:original.out">00:00:01.983</property>
  <property name="kdenlive:original.length">120</property>
  <property name="kdenlive:original.eof">pause</property>
  <property name="kdenlive:original.resource">video/Farmer/27.mp4</property>
  <property name="kdenlive:original.mlt_service">avformat-novalidate</property>
  <property name="kdenlive:original.meta.media.nb_streams">1</property>
  <property name="kdenlive:original.meta.media.0.stream.type">video</property>
  <property name="kdenlive:original.meta.media.0.stream.frame_rate">60</property>
  <property name="kdenlive:original.meta.media.0.stream.sample_aspect_ratio">0</property>
  <property name="kdenlive:original.meta.media.0.codec.width">1920</property>
  <property name="kdenlive:original.meta.media.0.codec.height">1080</property>
  <property name="kdenlive:original.meta.media.0.codec.rotate">0</property>
  <property name="kdenlive:original.meta.media.0.codec.pix_fmt">yuv420p</property>
  <property name="kdenlive:original.meta.media.0.codec.sample_aspect_ratio">0</property>
  <property name="kdenlive:original.meta.media.0.codec.colorspace">709</property>
  <property name="kdenlive:original.meta.media.0.codec.name">h264</property>
  <property name="kdenlive:original.meta.media.0.codec.long_name">H.264 / AVC / MPEG-4 AVC / MPEG-4 part 10</property>
  <property name="kdenlive:original.meta.media.0.codec.bit_rate">447500</property>
  <property name="kdenlive:original.meta.attr.0.stream.handler_name.markup">VideoHandler</property>
  <property name="kdenlive:original.meta.attr.0.stream.vendor_id.markup">[0][0][0][0]</property>
  <property name="kdenlive:original.meta.attr.0.stream.encoder.markup">Lavc60.3.100 libx264</property>
  <property name="kdenlive:original.meta.attr.major_brand.markup">isom</property>
  <property name="kdenlive:original.meta.attr.minor_version.markup">512</property>
  <property name="kdenlive:original.meta.attr.compatible_brands.markup">isomiso2avc1mp41</property>
  <property name="kdenlive:original.meta.attr.encoder.markup">Lavf60.3.100</property>
  <property name="kdenlive:original.meta.attr.comment.markup">Rendered with Manim Community v0.17.3</property>
  <property name="kdenlive:original.seekable">1</property>
  <property name="kdenlive:original.width">1920</property>
  <property name="kdenlive:original.height">1080</property>
  <property name="kdenlive:original.meta.media.sample_aspect_num">1</property>
  <property name="kdenlive:original.meta.media.sample_aspect_den">1</property>
  <property name="kdenlive:original.format">3</property>
  <property name="kdenlive:original.audio_index">-1</property>
  <property name="kdenlive:original.video_index">0</property>
  <property name="kdenlive:original.meta.media.frame_rate_num">60</property>
  <property name="kdenlive:original.meta.media.frame_rate_den">1</property>
  <property name="kdenlive:original.meta.media.colorspace">709</property>
  <property name="kdenlive:original.meta.media.color_trc">2</property>
  <property name="kdenlive:original.meta.media.has_b_frames">2</property>
  <property name="kdenlive:original.meta.media.width">1920</property>
  <property name="kdenlive:original.meta.media.height">1080</property>
  <property name="kdenlive:original.meta.media.color_range">mpeg</property>
  <property name="kdenlive:original.meta.media.top_field_first">0</property>
  <property name="kdenlive:original.meta.media.progressive">1</property>
  <property name="kdenlive:original.kdenlive:clip_type">2</property>
  <property name="kdenlive:original.kdenlive:folderid">16</property>
  <property name="kdenlive:original.kdenlive:id">98</property>
  <property name="kdenlive:original.mute_on_pause">0</property>
  <property name="kdenlive:original.kdenlive:file_size">114227</property>
  <property name="kdenlive:original.kdenlive:file_hash">7ddf1063092d3e3276d0c987fc16f6de</property>
  <property name="kdenlive:original.backup">1</property>
  <property name="meta.media.top_field_first">0</property>
  <property name="meta.media.progressive">1</property>
 </chain>
 <chain id="chain387" out="00:00:00.983">
  <property name="length">60</property>
  <property name="eof">pause</property>
  <property name="resource">/home/xiaoxiae/.cache/kdenlive/proxy/bef54e6dd97815f3520bb1ae4de0ee4d.mkv</property>
  <property name="mlt_service">avformat-novalidate</property>
  <property name="meta.media.nb_streams">1</property>
  <property name="meta.media.0.stream.type">video</property>
  <property name="meta.media.0.stream.frame_rate">60</property>
  <property name="meta.media.0.stream.sample_aspect_ratio">0</property>
  <property name="meta.media.0.codec.width">640</property>
  <property name="meta.media.0.codec.height">360</property>
  <property name="meta.media.0.codec.rotate">0</property>
  <property name="meta.media.0.codec.pix_fmt">yuvj420p</property>
  <property name="meta.media.0.codec.sample_aspect_ratio">0</property>
  <property name="meta.media.0.codec.colorspace">601</property>
  <property name="meta.media.0.codec.name">mjpeg</property>
  <property name="meta.media.0.codec.long_name">MJPEG (Motion JPEG)</property>
  <property name="meta.media.0.codec.bit_rate">0</property>
  <property name="meta.attr.0.stream.HANDLER_NAME.markup">VideoHandler</property>
  <property name="meta.attr.0.stream.VENDOR_ID.markup">[0][0][0][0]</property>
  <property name="meta.attr.0.stream.ENCODER.markup">Lavc60.3.100 mjpeg</property>
  <property name="meta.attr.0.stream.DURATION.markup">00:00:01.000000000</property>
  <property name="meta.attr.COMMENT.markup">Rendered with Manim Community v0.17.3</property>
  <property name="meta.attr.MAJOR_BRAND.markup">isom</property>
  <property name="meta.attr.MINOR_VERSION.markup">512</property>
  <property name="meta.attr.COMPATIBLE_BRANDS.markup">isomiso2avc1mp41</property>
  <property name="meta.attr.ENCODER.markup">Lavf60.3.100</property>
  <property name="seekable">1</property>
  <property name="meta.media.sample_aspect_num">1</property>
  <property name="meta.media.sample_aspect_den">1</property>
  <property name="format">3</property>
  <property name="audio_index">-1</property>
  <property name="video_index">0</property>
  <property name="meta.media.frame_rate_num">60</property>
  <property name="meta.media.frame_rate_den">1</property>
  <property name="meta.media.colorspace">601</property>
  <property name="meta.media.color_trc">2</property>
  <property name="meta.media.has_b_frames">0</property>
  <property name="meta.media.width">640</property>
  <property name="meta.media.height">360</property>
  <property name="meta.media.color_range">full</property>
  <property name="kdenlive:clipname">28.mp4</property>
  <property name="kdenlive:clip_type">2</property>
  <property name="kdenlive:folderid">16</property>
  <property name="kdenlive:id">99</property>
  <property name="mute_on_pause">0</property>
  <property name="kdenlive:file_size">61196</property>
  <property name="kdenlive:file_hash">bef54e6dd97815f3520bb1ae4de0ee4d</property>
  <property name="kdenlive:proxy">/home/xiaoxiae/.cache/kdenlive/proxy/bef54e6dd97815f3520bb1ae4de0ee4d.mkv</property>
  <property name="kdenlive:originalurl">video/Farmer/28.mp4</property>
  <property name="kdenlive:original.mlt_type">chain</property>
  <property name="kdenlive:original.in">0</property>
  <property name="kdenlive:original.out">00:00:00.983</property>
  <property name="kdenlive:original.length">60</property>
  <property name="kdenlive:original.eof">pause</property>
  <property name="kdenlive:original.resource">video/Farmer/28.mp4</property>
  <property name="kdenlive:original.mlt_service">avformat-novalidate</property>
  <property name="kdenlive:original.meta.media.nb_streams">1</property>
  <property name="kdenlive:original.meta.media.0.stream.type">video</property>
  <property name="kdenlive:original.meta.media.0.stream.frame_rate">60</property>
  <property name="kdenlive:original.meta.media.0.stream.sample_aspect_ratio">0</property>
  <property name="kdenlive:original.meta.media.0.codec.width">1920</property>
  <property name="kdenlive:original.meta.media.0.codec.height">1080</property>
  <property name="kdenlive:original.meta.media.0.codec.rotate">0</property>
  <property name="kdenlive:original.meta.media.0.codec.pix_fmt">yuv420p</property>
  <property name="kdenlive:original.meta.media.0.codec.sample_aspect_ratio">0</property>
  <property name="kdenlive:original.meta.media.0.codec.colorspace">709</property>
  <property name="kdenlive:original.meta.media.0.codec.name">h264</property>
  <property name="kdenlive:original.meta.media.0.codec.long_name">H.264 / AVC / MPEG-4 AVC / MPEG-4 part 10</property>
  <property name="kdenlive:original.meta.media.0.codec.bit_rate">476512</property>
  <property name="kdenlive:original.meta.attr.0.stream.handler_name.markup">VideoHandler</property>
  <property name="kdenlive:original.meta.attr.0.stream.vendor_id.markup">[0][0][0][0]</property>
  <property name="kdenlive:original.meta.attr.0.stream.encoder.markup">Lavc60.3.100 libx264</property>
  <property name="kdenlive:original.meta.attr.major_brand.markup">isom</property>
  <property name="kdenlive:original.meta.attr.minor_version.markup">512</property>
  <property name="kdenlive:original.meta.attr.compatible_brands.markup">isomiso2avc1mp41</property>
  <property name="kdenlive:original.meta.attr.encoder.markup">Lavf60.3.100</property>
  <property name="kdenlive:original.meta.attr.comment.markup">Rendered with Manim Community v0.17.3</property>
  <property name="kdenlive:original.seekable">1</property>
  <property name="kdenlive:original.width">1920</property>
  <property name="kdenlive:original.height">1080</property>
  <property name="kdenlive:original.meta.media.sample_aspect_num">1</property>
  <property name="kdenlive:original.meta.media.sample_aspect_den">1</property>
  <property name="kdenlive:original.format">3</property>
  <property name="kdenlive:original.audio_index">-1</property>
  <property name="kdenlive:original.video_index">0</property>
  <property name="kdenlive:original.meta.media.frame_rate_num">60</property>
  <property name="kdenlive:original.meta.media.frame_rate_den">1</property>
  <property name="kdenlive:original.meta.media.colorspace">709</property>
  <property name="kdenlive:original.meta.media.color_trc">2</property>
  <property name="kdenlive:original.meta.media.has_b_frames">2</property>
  <property name="kdenlive:original.meta.media.width">1920</property>
  <property name="kdenlive:original.meta.media.height">1080</property>
  <property name="kdenlive:original.meta.media.color_range">mpeg</property>
  <property name="kdenlive:original.meta.media.top_field_first">0</property>
  <property name="kdenlive:original.meta.media.progressive">1</property>
  <property name="kdenlive:original.kdenlive:clip_type">2</property>
  <property name="kdenlive:original.kdenlive:folderid">16</property>
  <property name="kdenlive:original.kdenlive:id">99</property>
  <property name="kdenlive:original.mute_on_pause">0</property>
  <property name="kdenlive:original.kdenlive:file_size">61196</property>
  <property name="kdenlive:original.kdenlive:file_hash">bef54e6dd97815f3520bb1ae4de0ee4d</property>
  <property name="kdenlive:original.backup">1</property>
  <property name="meta.media.top_field_first">0</property>
  <property name="meta.media.progressive">1</property>
 </chain>
 <chain id="chain388" out="00:00:02.983">
  <property name="length">180</property>
  <property name="eof">pause</property>
  <property name="resource">/home/xiaoxiae/.cache/kdenlive/proxy/7ac657f1c3040bdc19439c3c7aba628c.mkv</property>
  <property name="mlt_service">avformat-novalidate</property>
  <property name="meta.media.nb_streams">1</property>
  <property name="meta.media.0.stream.type">video</property>
  <property name="meta.media.0.stream.frame_rate">60</property>
  <property name="meta.media.0.stream.sample_aspect_ratio">0</property>
  <property name="meta.media.0.codec.width">640</property>
  <property name="meta.media.0.codec.height">360</property>
  <property name="meta.media.0.codec.rotate">0</property>
  <property name="meta.media.0.codec.pix_fmt">yuvj420p</property>
  <property name="meta.media.0.codec.sample_aspect_ratio">0</property>
  <property name="meta.media.0.codec.colorspace">601</property>
  <property name="meta.media.0.codec.name">mjpeg</property>
  <property name="meta.media.0.codec.long_name">MJPEG (Motion JPEG)</property>
  <property name="meta.media.0.codec.bit_rate">0</property>
  <property name="meta.attr.0.stream.HANDLER_NAME.markup">VideoHandler</property>
  <property name="meta.attr.0.stream.VENDOR_ID.markup">[0][0][0][0]</property>
  <property name="meta.attr.0.stream.ENCODER.markup">Lavc60.3.100 mjpeg</property>
  <property name="meta.attr.0.stream.DURATION.markup">00:00:03.000000000</property>
  <property name="meta.attr.COMMENT.markup">Rendered with Manim Community v0.17.3</property>
  <property name="meta.attr.MAJOR_BRAND.markup">isom</property>
  <property name="meta.attr.MINOR_VERSION.markup">512</property>
  <property name="meta.attr.COMPATIBLE_BRANDS.markup">isomiso2avc1mp41</property>
  <property name="meta.attr.ENCODER.markup">Lavf60.3.100</property>
  <property name="seekable">1</property>
  <property name="meta.media.sample_aspect_num">1</property>
  <property name="meta.media.sample_aspect_den">1</property>
  <property name="format">3</property>
  <property name="audio_index">-1</property>
  <property name="video_index">0</property>
  <property name="meta.media.frame_rate_num">60</property>
  <property name="meta.media.frame_rate_den">1</property>
  <property name="meta.media.colorspace">601</property>
  <property name="meta.media.color_trc">2</property>
  <property name="meta.media.has_b_frames">0</property>
  <property name="meta.media.width">640</property>
  <property name="meta.media.height">360</property>
  <property name="meta.media.color_range">full</property>
  <property name="kdenlive:clipname">29.mp4</property>
  <property name="kdenlive:clip_type">2</property>
  <property name="kdenlive:folderid">16</property>
  <property name="kdenlive:id">100</property>
  <property name="mute_on_pause">0</property>
  <property name="kdenlive:file_size">169686</property>
  <property name="kdenlive:file_hash">7ac657f1c3040bdc19439c3c7aba628c</property>
  <property name="kdenlive:proxy">/home/xiaoxiae/.cache/kdenlive/proxy/7ac657f1c3040bdc19439c3c7aba628c.mkv</property>
  <property name="kdenlive:originalurl">video/Farmer/29.mp4</property>
  <property name="kdenlive:original.mlt_type">chain</property>
  <property name="kdenlive:original.in">0</property>
  <property name="kdenlive:original.out">00:00:02.983</property>
  <property name="kdenlive:original.length">180</property>
  <property name="kdenlive:original.eof">pause</property>
  <property name="kdenlive:original.resource">video/Farmer/29.mp4</property>
  <property name="kdenlive:original.mlt_service">avformat-novalidate</property>
  <property name="kdenlive:original.meta.media.nb_streams">1</property>
  <property name="kdenlive:original.meta.media.0.stream.type">video</property>
  <property name="kdenlive:original.meta.media.0.stream.frame_rate">60</property>
  <property name="kdenlive:original.meta.media.0.stream.sample_aspect_ratio">0</property>
  <property name="kdenlive:original.meta.media.0.codec.width">1920</property>
  <property name="kdenlive:original.meta.media.0.codec.height">1080</property>
  <property name="kdenlive:original.meta.media.0.codec.rotate">0</property>
  <property name="kdenlive:original.meta.media.0.codec.pix_fmt">yuv420p</property>
  <property name="kdenlive:original.meta.media.0.codec.sample_aspect_ratio">0</property>
  <property name="kdenlive:original.meta.media.0.codec.colorspace">709</property>
  <property name="kdenlive:original.meta.media.0.codec.name">h264</property>
  <property name="kdenlive:original.meta.media.0.codec.long_name">H.264 / AVC / MPEG-4 AVC / MPEG-4 part 10</property>
  <property name="kdenlive:original.meta.media.0.codec.bit_rate">444432</property>
  <property name="kdenlive:original.meta.attr.0.stream.handler_name.markup">VideoHandler</property>
  <property name="kdenlive:original.meta.attr.0.stream.vendor_id.markup">[0][0][0][0]</property>
  <property name="kdenlive:original.meta.attr.0.stream.encoder.markup">Lavc60.3.100 libx264</property>
  <property name="kdenlive:original.meta.attr.major_brand.markup">isom</property>
  <property name="kdenlive:original.meta.attr.minor_version.markup">512</property>
  <property name="kdenlive:original.meta.attr.compatible_brands.markup">isomiso2avc1mp41</property>
  <property name="kdenlive:original.meta.attr.encoder.markup">Lavf60.3.100</property>
  <property name="kdenlive:original.meta.attr.comment.markup">Rendered with Manim Community v0.17.3</property>
  <property name="kdenlive:original.seekable">1</property>
  <property name="kdenlive:original.width">1920</property>
  <property name="kdenlive:original.height">1080</property>
  <property name="kdenlive:original.meta.media.sample_aspect_num">1</property>
  <property name="kdenlive:original.meta.media.sample_aspect_den">1</property>
  <property name="kdenlive:original.format">3</property>
  <property name="kdenlive:original.audio_index">-1</property>
  <property name="kdenlive:original.video_index">0</property>
  <property name="kdenlive:original.meta.media.frame_rate_num">60</property>
  <property name="kdenlive:original.meta.media.frame_rate_den">1</property>
  <property name="kdenlive:original.meta.media.colorspace">709</property>
  <property name="kdenlive:original.meta.media.color_trc">2</property>
  <property name="kdenlive:original.meta.media.has_b_frames">2</property>
  <property name="kdenlive:original.meta.media.width">1920</property>
  <property name="kdenlive:original.meta.media.height">1080</property>
  <property name="kdenlive:original.meta.media.color_range">mpeg</property>
  <property name="kdenlive:original.meta.media.top_field_first">0</property>
  <property name="kdenlive:original.meta.media.progressive">1</property>
  <property name="kdenlive:original.kdenlive:clip_type">2</property>
  <property name="kdenlive:original.kdenlive:folderid">16</property>
  <property name="kdenlive:original.kdenlive:id">100</property>
  <property name="kdenlive:original.mute_on_pause">0</property>
  <property name="kdenlive:original.kdenlive:file_size">169686</property>
  <property name="kdenlive:original.kdenlive:file_hash">7ac657f1c3040bdc19439c3c7aba628c</property>
  <property name="kdenlive:original.backup">1</property>
  <property name="meta.media.top_field_first">0</property>
  <property name="meta.media.progressive">1</property>
 </chain>
 <chain id="chain428" out="00:00:01.617">
  <property name="length">98</property>
  <property name="eof">pause</property>
  <property name="resource">/home/xiaoxiae/.cache/kdenlive/proxy/399f71541214d4f150b5b04d7f678c26.mkv</property>
  <property name="mlt_service">avformat-novalidate</property>
  <property name="meta.media.nb_streams">1</property>
  <property name="meta.media.0.stream.type">video</property>
  <property name="meta.media.0.stream.frame_rate">60</property>
  <property name="meta.media.0.stream.sample_aspect_ratio">0</property>
  <property name="meta.media.0.codec.width">640</property>
  <property name="meta.media.0.codec.height">360</property>
  <property name="meta.media.0.codec.rotate">0</property>
  <property name="meta.media.0.codec.pix_fmt">yuvj420p</property>
  <property name="meta.media.0.codec.sample_aspect_ratio">0</property>
  <property name="meta.media.0.codec.colorspace">601</property>
  <property name="meta.media.0.codec.name">mjpeg</property>
  <property name="meta.media.0.codec.long_name">MJPEG (Motion JPEG)</property>
  <property name="meta.media.0.codec.bit_rate">0</property>
  <property name="meta.attr.0.stream.HANDLER_NAME.markup">VideoHandler</property>
  <property name="meta.attr.0.stream.VENDOR_ID.markup">[0][0][0][0]</property>
  <property name="meta.attr.0.stream.ENCODER.markup">Lavc60.3.100 mjpeg</property>
  <property name="meta.attr.0.stream.DURATION.markup">00:00:01.634000000</property>
  <property name="meta.attr.COMMENT.markup">Rendered with Manim Community v0.17.3</property>
  <property name="meta.attr.MAJOR_BRAND.markup">isom</property>
  <property name="meta.attr.MINOR_VERSION.markup">512</property>
  <property name="meta.attr.COMPATIBLE_BRANDS.markup">isomiso2avc1mp41</property>
  <property name="meta.attr.ENCODER.markup">Lavf60.3.100</property>
  <property name="seekable">1</property>
  <property name="meta.media.sample_aspect_num">1</property>
  <property name="meta.media.sample_aspect_den">1</property>
  <property name="format">3</property>
  <property name="audio_index">-1</property>
  <property name="video_index">0</property>
  <property name="meta.media.frame_rate_num">60</property>
  <property name="meta.media.frame_rate_den">1</property>
  <property name="meta.media.colorspace">601</property>
  <property name="meta.media.color_trc">2</property>
  <property name="meta.media.has_b_frames">0</property>
  <property name="meta.media.width">640</property>
  <property name="meta.media.height">360</property>
  <property name="meta.media.color_range">full</property>
  <property name="kdenlive:clipname">3.mp4</property>
  <property name="kdenlive:clip_type">2</property>
  <property name="kdenlive:folderid">16</property>
  <property name="kdenlive:id">101</property>
  <property name="mute_on_pause">0</property>
  <property name="kdenlive:file_size">111598</property>
  <property name="kdenlive:file_hash">399f71541214d4f150b5b04d7f678c26</property>
  <property name="kdenlive:proxy">/home/xiaoxiae/.cache/kdenlive/proxy/399f71541214d4f150b5b04d7f678c26.mkv</property>
  <property name="kdenlive:originalurl">video/Farmer/3.mp4</property>
  <property name="kdenlive:original.mlt_type">chain</property>
  <property name="kdenlive:original.in">0</property>
  <property name="kdenlive:original.out">00:00:01.617</property>
  <property name="kdenlive:original.length">98</property>
  <property name="kdenlive:original.eof">pause</property>
  <property name="kdenlive:original.resource">video/Farmer/3.mp4</property>
  <property name="kdenlive:original.mlt_service">avformat-novalidate</property>
  <property name="kdenlive:original.meta.media.nb_streams">1</property>
  <property name="kdenlive:original.meta.media.0.stream.type">video</property>
  <property name="kdenlive:original.meta.media.0.stream.frame_rate">60</property>
  <property name="kdenlive:original.meta.media.0.stream.sample_aspect_ratio">0</property>
  <property name="kdenlive:original.meta.media.0.codec.width">1920</property>
  <property name="kdenlive:original.meta.media.0.codec.height">1080</property>
  <property name="kdenlive:original.meta.media.0.codec.rotate">0</property>
  <property name="kdenlive:original.meta.media.0.codec.pix_fmt">yuv420p</property>
  <property name="kdenlive:original.meta.media.0.codec.sample_aspect_ratio">0</property>
  <property name="kdenlive:original.meta.media.0.codec.colorspace">709</property>
  <property name="kdenlive:original.meta.media.0.codec.name">h264</property>
  <property name="kdenlive:original.meta.media.0.codec.long_name">H.264 / AVC / MPEG-4 AVC / MPEG-4 part 10</property>
  <property name="kdenlive:original.meta.media.0.codec.bit_rate">536375</property>
  <property name="kdenlive:original.meta.attr.0.stream.handler_name.markup">VideoHandler</property>
  <property name="kdenlive:original.meta.attr.0.stream.vendor_id.markup">[0][0][0][0]</property>
  <property name="kdenlive:original.meta.attr.0.stream.encoder.markup">Lavc60.3.100 libx264</property>
  <property name="kdenlive:original.meta.attr.major_brand.markup">isom</property>
  <property name="kdenlive:original.meta.attr.minor_version.markup">512</property>
  <property name="kdenlive:original.meta.attr.compatible_brands.markup">isomiso2avc1mp41</property>
  <property name="kdenlive:original.meta.attr.encoder.markup">Lavf60.3.100</property>
  <property name="kdenlive:original.meta.attr.comment.markup">Rendered with Manim Community v0.17.3</property>
  <property name="kdenlive:original.seekable">1</property>
  <property name="kdenlive:original.width">1920</property>
  <property name="kdenlive:original.height">1080</property>
  <property name="kdenlive:original.meta.media.sample_aspect_num">1</property>
  <property name="kdenlive:original.meta.media.sample_aspect_den">1</property>
  <property name="kdenlive:original.format">3</property>
  <property name="kdenlive:original.audio_index">-1</property>
  <property name="kdenlive:original.video_index">0</property>
  <property name="kdenlive:original.meta.media.frame_rate_num">60</property>
  <property name="kdenlive:original.meta.media.frame_rate_den">1</property>
  <property name="kdenlive:original.meta.media.colorspace">709</property>
  <property name="kdenlive:original.meta.media.color_trc">2</property>
  <property name="kdenlive:original.meta.media.has_b_frames">2</property>
  <property name="kdenlive:original.meta.media.width">1920</property>
  <property name="kdenlive:original.meta.media.height">1080</property>
  <property name="kdenlive:original.meta.media.color_range">mpeg</property>
  <property name="kdenlive:original.meta.media.top_field_first">0</property>
  <property name="kdenlive:original.meta.media.progressive">1</property>
  <property name="kdenlive:original.kdenlive:clip_type">2</property>
  <property name="kdenlive:original.kdenlive:folderid">16</property>
  <property name="kdenlive:original.kdenlive:id">101</property>
  <property name="kdenlive:original.mute_on_pause">0</property>
  <property name="kdenlive:original.kdenlive:file_size">111598</property>
  <property name="kdenlive:original.kdenlive:file_hash">399f71541214d4f150b5b04d7f678c26</property>
  <property name="kdenlive:original.backup">1</property>
  <property name="meta.media.top_field_first">0</property>
  <property name="meta.media.progressive">1</property>
 </chain>
 <chain id="chain384" out="00:00:00.983">
  <property name="length">60</property>
  <property name="eof">pause</property>
  <property name="resource">/home/xiaoxiae/.cache/kdenlive/proxy/dee977852b5053bc7fe2ce5180cc2aaa.mkv</property>
  <property name="mlt_service">avformat-novalidate</property>
  <property name="meta.media.nb_streams">1</property>
  <property name="meta.media.0.stream.type">video</property>
  <property name="meta.media.0.stream.frame_rate">60</property>
  <property name="meta.media.0.stream.sample_aspect_ratio">0</property>
  <property name="meta.media.0.codec.width">640</property>
  <property name="meta.media.0.codec.height">360</property>
  <property name="meta.media.0.codec.rotate">0</property>
  <property name="meta.media.0.codec.pix_fmt">yuvj420p</property>
  <property name="meta.media.0.codec.sample_aspect_ratio">0</property>
  <property name="meta.media.0.codec.colorspace">601</property>
  <property name="meta.media.0.codec.name">mjpeg</property>
  <property name="meta.media.0.codec.long_name">MJPEG (Motion JPEG)</property>
  <property name="meta.media.0.codec.bit_rate">0</property>
  <property name="meta.attr.0.stream.HANDLER_NAME.markup">VideoHandler</property>
  <property name="meta.attr.0.stream.VENDOR_ID.markup">[0][0][0][0]</property>
  <property name="meta.attr.0.stream.ENCODER.markup">Lavc60.3.100 mjpeg</property>
  <property name="meta.attr.0.stream.DURATION.markup">00:00:01.000000000</property>
  <property name="meta.attr.COMMENT.markup">Rendered with Manim Community v0.17.3</property>
  <property name="meta.attr.MAJOR_BRAND.markup">isom</property>
  <property name="meta.attr.MINOR_VERSION.markup">512</property>
  <property name="meta.attr.COMPATIBLE_BRANDS.markup">isomiso2avc1mp41</property>
  <property name="meta.attr.ENCODER.markup">Lavf60.3.100</property>
  <property name="seekable">1</property>
  <property name="meta.media.sample_aspect_num">1</property>
  <property name="meta.media.sample_aspect_den">1</property>
  <property name="format">3</property>
  <property name="audio_index">-1</property>
  <property name="video_index">0</property>
  <property name="meta.media.frame_rate_num">60</property>
  <property name="meta.media.frame_rate_den">1</property>
  <property name="meta.media.colorspace">601</property>
  <property name="meta.media.color_trc">2</property>
  <property name="meta.media.has_b_frames">0</property>
  <property name="meta.media.width">640</property>
  <property name="meta.media.height">360</property>
  <property name="meta.media.color_range">full</property>
  <property name="kdenlive:clipname">30.mp4</property>
  <property name="kdenlive:clip_type">2</property>
  <property name="kdenlive:folderid">16</property>
  <property name="kdenlive:id">102</property>
  <property name="mute_on_pause">0</property>
  <property name="kdenlive:file_size">127751</property>
  <property name="kdenlive:file_hash">dee977852b5053bc7fe2ce5180cc2aaa</property>
  <property name="kdenlive:proxy">/home/xiaoxiae/.cache/kdenlive/proxy/dee977852b5053bc7fe2ce5180cc2aaa.mkv</property>
  <property name="kdenlive:originalurl">video/Farmer/30.mp4</property>
  <property name="kdenlive:original.mlt_type">chain</property>
  <property name="kdenlive:original.in">0</property>
  <property name="kdenlive:original.out">00:00:00.983</property>
  <property name="kdenlive:original.length">60</property>
  <property name="kdenlive:original.eof">pause</property>
  <property name="kdenlive:original.resource">video/Farmer/30.mp4</property>
  <property name="kdenlive:original.mlt_service">avformat-novalidate</property>
  <property name="kdenlive:original.meta.media.nb_streams">1</property>
  <property name="kdenlive:original.meta.media.0.stream.type">video</property>
  <property name="kdenlive:original.meta.media.0.stream.frame_rate">60</property>
  <property name="kdenlive:original.meta.media.0.stream.sample_aspect_ratio">0</property>
  <property name="kdenlive:original.meta.media.0.codec.width">1920</property>
  <property name="kdenlive:original.meta.media.0.codec.height">1080</property>
  <property name="kdenlive:original.meta.media.0.codec.rotate">0</property>
  <property name="kdenlive:original.meta.media.0.codec.pix_fmt">yuv420p</property>
  <property name="kdenlive:original.meta.media.0.codec.sample_aspect_ratio">0</property>
  <property name="kdenlive:original.meta.media.0.codec.colorspace">709</property>
  <property name="kdenlive:original.meta.media.0.codec.name">h264</property>
  <property name="kdenlive:original.meta.media.0.codec.long_name">H.264 / AVC / MPEG-4 AVC / MPEG-4 part 10</property>
  <property name="kdenlive:original.meta.media.0.codec.bit_rate">1009528</property>
  <property name="kdenlive:original.meta.attr.0.stream.handler_name.markup">VideoHandler</property>
  <property name="kdenlive:original.meta.attr.0.stream.vendor_id.markup">[0][0][0][0]</property>
  <property name="kdenlive:original.meta.attr.0.stream.encoder.markup">Lavc60.3.100 libx264</property>
  <property name="kdenlive:original.meta.attr.major_brand.markup">isom</property>
  <property name="kdenlive:original.meta.attr.minor_version.markup">512</property>
  <property name="kdenlive:original.meta.attr.compatible_brands.markup">isomiso2avc1mp41</property>
  <property name="kdenlive:original.meta.attr.encoder.markup">Lavf60.3.100</property>
  <property name="kdenlive:original.meta.attr.comment.markup">Rendered with Manim Community v0.17.3</property>
  <property name="kdenlive:original.seekable">1</property>
  <property name="kdenlive:original.width">1920</property>
  <property name="kdenlive:original.height">1080</property>
  <property name="kdenlive:original.meta.media.sample_aspect_num">1</property>
  <property name="kdenlive:original.meta.media.sample_aspect_den">1</property>
  <property name="kdenlive:original.format">3</property>
  <property name="kdenlive:original.audio_index">-1</property>
  <property name="kdenlive:original.video_index">0</property>
  <property name="kdenlive:original.meta.media.frame_rate_num">60</property>
  <property name="kdenlive:original.meta.media.frame_rate_den">1</property>
  <property name="kdenlive:original.meta.media.colorspace">709</property>
  <property name="kdenlive:original.meta.media.color_trc">2</property>
  <property name="kdenlive:original.meta.media.has_b_frames">2</property>
  <property name="kdenlive:original.meta.media.width">1920</property>
  <property name="kdenlive:original.meta.media.height">1080</property>
  <property name="kdenlive:original.meta.media.color_range">mpeg</property>
  <property name="kdenlive:original.meta.media.top_field_first">0</property>
  <property name="kdenlive:original.meta.media.progressive">1</property>
  <property name="kdenlive:original.kdenlive:clip_type">2</property>
  <property name="kdenlive:original.kdenlive:folderid">16</property>
  <property name="kdenlive:original.kdenlive:id">102</property>
  <property name="kdenlive:original.mute_on_pause">0</property>
  <property name="kdenlive:original.kdenlive:file_size">127751</property>
  <property name="kdenlive:original.kdenlive:file_hash">dee977852b5053bc7fe2ce5180cc2aaa</property>
  <property name="kdenlive:original.backup">1</property>
  <property name="meta.media.top_field_first">0</property>
  <property name="meta.media.progressive">1</property>
 </chain>
 <chain id="chain383" out="00:00:00.983">
  <property name="length">60</property>
  <property name="eof">pause</property>
  <property name="resource">/home/xiaoxiae/.cache/kdenlive/proxy/50ac195a886d8e4c79fd2546ec7760c1.mkv</property>
  <property name="mlt_service">avformat-novalidate</property>
  <property name="meta.media.nb_streams">1</property>
  <property name="meta.media.0.stream.type">video</property>
  <property name="meta.media.0.stream.frame_rate">60</property>
  <property name="meta.media.0.stream.sample_aspect_ratio">0</property>
  <property name="meta.media.0.codec.width">640</property>
  <property name="meta.media.0.codec.height">360</property>
  <property name="meta.media.0.codec.rotate">0</property>
  <property name="meta.media.0.codec.pix_fmt">yuvj420p</property>
  <property name="meta.media.0.codec.sample_aspect_ratio">0</property>
  <property name="meta.media.0.codec.colorspace">601</property>
  <property name="meta.media.0.codec.name">mjpeg</property>
  <property name="meta.media.0.codec.long_name">MJPEG (Motion JPEG)</property>
  <property name="meta.media.0.codec.bit_rate">0</property>
  <property name="meta.attr.0.stream.HANDLER_NAME.markup">VideoHandler</property>
  <property name="meta.attr.0.stream.VENDOR_ID.markup">[0][0][0][0]</property>
  <property name="meta.attr.0.stream.ENCODER.markup">Lavc60.3.100 mjpeg</property>
  <property name="meta.attr.0.stream.DURATION.markup">00:00:01.000000000</property>
  <property name="meta.attr.COMMENT.markup">Rendered with Manim Community v0.17.3</property>
  <property name="meta.attr.MAJOR_BRAND.markup">isom</property>
  <property name="meta.attr.MINOR_VERSION.markup">512</property>
  <property name="meta.attr.COMPATIBLE_BRANDS.markup">isomiso2avc1mp41</property>
  <property name="meta.attr.ENCODER.markup">Lavf60.3.100</property>
  <property name="seekable">1</property>
  <property name="meta.media.sample_aspect_num">1</property>
  <property name="meta.media.sample_aspect_den">1</property>
  <property name="format">3</property>
  <property name="audio_index">-1</property>
  <property name="video_index">0</property>
  <property name="meta.media.frame_rate_num">60</property>
  <property name="meta.media.frame_rate_den">1</property>
  <property name="meta.media.colorspace">601</property>
  <property name="meta.media.color_trc">2</property>
  <property name="meta.media.has_b_frames">0</property>
  <property name="meta.media.width">640</property>
  <property name="meta.media.height">360</property>
  <property name="meta.media.color_range">full</property>
  <property name="kdenlive:clipname">31.mp4</property>
  <property name="kdenlive:clip_type">2</property>
  <property name="kdenlive:folderid">16</property>
  <property name="kdenlive:id">103</property>
  <property name="mute_on_pause">0</property>
  <property name="kdenlive:file_size">73296</property>
  <property name="kdenlive:file_hash">50ac195a886d8e4c79fd2546ec7760c1</property>
  <property name="kdenlive:proxy">/home/xiaoxiae/.cache/kdenlive/proxy/50ac195a886d8e4c79fd2546ec7760c1.mkv</property>
  <property name="kdenlive:originalurl">video/Farmer/31.mp4</property>
  <property name="kdenlive:original.mlt_type">chain</property>
  <property name="kdenlive:original.in">0</property>
  <property name="kdenlive:original.out">00:00:00.983</property>
  <property name="kdenlive:original.length">60</property>
  <property name="kdenlive:original.eof">pause</property>
  <property name="kdenlive:original.resource">video/Farmer/31.mp4</property>
  <property name="kdenlive:original.mlt_service">avformat-novalidate</property>
  <property name="kdenlive:original.meta.media.nb_streams">1</property>
  <property name="kdenlive:original.meta.media.0.stream.type">video</property>
  <property name="kdenlive:original.meta.media.0.stream.frame_rate">60</property>
  <property name="kdenlive:original.meta.media.0.stream.sample_aspect_ratio">0</property>
  <property name="kdenlive:original.meta.media.0.codec.width">1920</property>
  <property name="kdenlive:original.meta.media.0.codec.height">1080</property>
  <property name="kdenlive:original.meta.media.0.codec.rotate">0</property>
  <property name="kdenlive:original.meta.media.0.codec.pix_fmt">yuv420p</property>
  <property name="kdenlive:original.meta.media.0.codec.sample_aspect_ratio">0</property>
  <property name="kdenlive:original.meta.media.0.codec.colorspace">709</property>
  <property name="kdenlive:original.meta.media.0.codec.name">h264</property>
  <property name="kdenlive:original.meta.media.0.codec.long_name">H.264 / AVC / MPEG-4 AVC / MPEG-4 part 10</property>
  <property name="kdenlive:original.meta.media.0.codec.bit_rate">573312</property>
  <property name="kdenlive:original.meta.attr.0.stream.handler_name.markup">VideoHandler</property>
  <property name="kdenlive:original.meta.attr.0.stream.vendor_id.markup">[0][0][0][0]</property>
  <property name="kdenlive:original.meta.attr.0.stream.encoder.markup">Lavc60.3.100 libx264</property>
  <property name="kdenlive:original.meta.attr.major_brand.markup">isom</property>
  <property name="kdenlive:original.meta.attr.minor_version.markup">512</property>
  <property name="kdenlive:original.meta.attr.compatible_brands.markup">isomiso2avc1mp41</property>
  <property name="kdenlive:original.meta.attr.encoder.markup">Lavf60.3.100</property>
  <property name="kdenlive:original.meta.attr.comment.markup">Rendered with Manim Community v0.17.3</property>
  <property name="kdenlive:original.seekable">1</property>
  <property name="kdenlive:original.width">1920</property>
  <property name="kdenlive:original.height">1080</property>
  <property name="kdenlive:original.meta.media.sample_aspect_num">1</property>
  <property name="kdenlive:original.meta.media.sample_aspect_den">1</property>
  <property name="kdenlive:original.format">3</property>
  <property name="kdenlive:original.audio_index">-1</property>
  <property name="kdenlive:original.video_index">0</property>
  <property name="kdenlive:original.meta.media.frame_rate_num">60</property>
  <property name="kdenlive:original.meta.media.frame_rate_den">1</property>
  <property name="kdenlive:original.meta.media.colorspace">709</property>
  <property name="kdenlive:original.meta.media.color_trc">2</property>
  <property name="kdenlive:original.meta.media.has_b_frames">2</property>
  <property name="kdenlive:original.meta.media.width">1920</property>
  <property name="kdenlive:original.meta.media.height">1080</property>
  <property name="kdenlive:original.meta.media.color_range">mpeg</property>
  <property name="kdenlive:original.meta.media.top_field_first">0</property>
  <property name="kdenlive:original.meta.media.progressive">1</property>
  <property name="kdenlive:original.kdenlive:clip_type">2</property>
  <property name="kdenlive:original.kdenlive:folderid">16</property>
  <property name="kdenlive:original.kdenlive:id">103</property>
  <property name="kdenlive:original.mute_on_pause">0</property>
  <property name="kdenlive:original.kdenlive:file_size">73296</property>
  <property name="kdenlive:original.kdenlive:file_hash">50ac195a886d8e4c79fd2546ec7760c1</property>
  <property name="kdenlive:original.backup">1</property>
  <property name="meta.media.top_field_first">0</property>
  <property name="meta.media.progressive">1</property>
 </chain>
 <chain id="chain380" out="00:00:00.983">
  <property name="length">60</property>
  <property name="eof">pause</property>
  <property name="resource">/home/xiaoxiae/.cache/kdenlive/proxy/03444f6b23a55b8c089bfc164767c642.mkv</property>
  <property name="mlt_service">avformat-novalidate</property>
  <property name="meta.media.nb_streams">1</property>
  <property name="meta.media.0.stream.type">video</property>
  <property name="meta.media.0.stream.frame_rate">60</property>
  <property name="meta.media.0.stream.sample_aspect_ratio">0</property>
  <property name="meta.media.0.codec.width">640</property>
  <property name="meta.media.0.codec.height">360</property>
  <property name="meta.media.0.codec.rotate">0</property>
  <property name="meta.media.0.codec.pix_fmt">yuvj420p</property>
  <property name="meta.media.0.codec.sample_aspect_ratio">0</property>
  <property name="meta.media.0.codec.colorspace">601</property>
  <property name="meta.media.0.codec.name">mjpeg</property>
  <property name="meta.media.0.codec.long_name">MJPEG (Motion JPEG)</property>
  <property name="meta.media.0.codec.bit_rate">0</property>
  <property name="meta.attr.0.stream.HANDLER_NAME.markup">VideoHandler</property>
  <property name="meta.attr.0.stream.VENDOR_ID.markup">[0][0][0][0]</property>
  <property name="meta.attr.0.stream.ENCODER.markup">Lavc60.3.100 mjpeg</property>
  <property name="meta.attr.0.stream.DURATION.markup">00:00:01.000000000</property>
  <property name="meta.attr.COMMENT.markup">Rendered with Manim Community v0.17.3</property>
  <property name="meta.attr.MAJOR_BRAND.markup">isom</property>
  <property name="meta.attr.MINOR_VERSION.markup">512</property>
  <property name="meta.attr.COMPATIBLE_BRANDS.markup">isomiso2avc1mp41</property>
  <property name="meta.attr.ENCODER.markup">Lavf60.3.100</property>
  <property name="seekable">1</property>
  <property name="meta.media.sample_aspect_num">1</property>
  <property name="meta.media.sample_aspect_den">1</property>
  <property name="format">3</property>
  <property name="audio_index">-1</property>
  <property name="video_index">0</property>
  <property name="meta.media.frame_rate_num">60</property>
  <property name="meta.media.frame_rate_den">1</property>
  <property name="meta.media.colorspace">601</property>
  <property name="meta.media.color_trc">2</property>
  <property name="meta.media.has_b_frames">0</property>
  <property name="meta.media.width">640</property>
  <property name="meta.media.height">360</property>
  <property name="meta.media.color_range">full</property>
  <property name="kdenlive:clipname">32.mp4</property>
  <property name="kdenlive:clip_type">2</property>
  <property name="kdenlive:folderid">16</property>
  <property name="kdenlive:id">104</property>
  <property name="mute_on_pause">0</property>
  <property name="kdenlive:file_size">73695</property>
  <property name="kdenlive:file_hash">03444f6b23a55b8c089bfc164767c642</property>
  <property name="kdenlive:proxy">/home/xiaoxiae/.cache/kdenlive/proxy/03444f6b23a55b8c089bfc164767c642.mkv</property>
  <property name="kdenlive:originalurl">video/Farmer/32.mp4</property>
  <property name="kdenlive:original.mlt_type">chain</property>
  <property name="kdenlive:original.in">0</property>
  <property name="kdenlive:original.out">00:00:00.983</property>
  <property name="kdenlive:original.length">60</property>
  <property name="kdenlive:original.eof">pause</property>
  <property name="kdenlive:original.resource">video/Farmer/32.mp4</property>
  <property name="kdenlive:original.mlt_service">avformat-novalidate</property>
  <property name="kdenlive:original.meta.media.nb_streams">1</property>
  <property name="kdenlive:original.meta.media.0.stream.type">video</property>
  <property name="kdenlive:original.meta.media.0.stream.frame_rate">60</property>
  <property name="kdenlive:original.meta.media.0.stream.sample_aspect_ratio">0</property>
  <property name="kdenlive:original.meta.media.0.codec.width">1920</property>
  <property name="kdenlive:original.meta.media.0.codec.height">1080</property>
  <property name="kdenlive:original.meta.media.0.codec.rotate">0</property>
  <property name="kdenlive:original.meta.media.0.codec.pix_fmt">yuv420p</property>
  <property name="kdenlive:original.meta.media.0.codec.sample_aspect_ratio">0</property>
  <property name="kdenlive:original.meta.media.0.codec.colorspace">709</property>
  <property name="kdenlive:original.meta.media.0.codec.name">h264</property>
  <property name="kdenlive:original.meta.media.0.codec.long_name">H.264 / AVC / MPEG-4 AVC / MPEG-4 part 10</property>
  <property name="kdenlive:original.meta.media.0.codec.bit_rate">576504</property>
  <property name="kdenlive:original.meta.attr.0.stream.handler_name.markup">VideoHandler</property>
  <property name="kdenlive:original.meta.attr.0.stream.vendor_id.markup">[0][0][0][0]</property>
  <property name="kdenlive:original.meta.attr.0.stream.encoder.markup">Lavc60.3.100 libx264</property>
  <property name="kdenlive:original.meta.attr.major_brand.markup">isom</property>
  <property name="kdenlive:original.meta.attr.minor_version.markup">512</property>
  <property name="kdenlive:original.meta.attr.compatible_brands.markup">isomiso2avc1mp41</property>
  <property name="kdenlive:original.meta.attr.encoder.markup">Lavf60.3.100</property>
  <property name="kdenlive:original.meta.attr.comment.markup">Rendered with Manim Community v0.17.3</property>
  <property name="kdenlive:original.seekable">1</property>
  <property name="kdenlive:original.width">1920</property>
  <property name="kdenlive:original.height">1080</property>
  <property name="kdenlive:original.meta.media.sample_aspect_num">1</property>
  <property name="kdenlive:original.meta.media.sample_aspect_den">1</property>
  <property name="kdenlive:original.format">3</property>
  <property name="kdenlive:original.audio_index">-1</property>
  <property name="kdenlive:original.video_index">0</property>
  <property name="kdenlive:original.meta.media.frame_rate_num">60</property>
  <property name="kdenlive:original.meta.media.frame_rate_den">1</property>
  <property name="kdenlive:original.meta.media.colorspace">709</property>
  <property name="kdenlive:original.meta.media.color_trc">2</property>
  <property name="kdenlive:original.meta.media.has_b_frames">2</property>
  <property name="kdenlive:original.meta.media.width">1920</property>
  <property name="kdenlive:original.meta.media.height">1080</property>
  <property name="kdenlive:original.meta.media.color_range">mpeg</property>
  <property name="kdenlive:original.meta.media.top_field_first">0</property>
  <property name="kdenlive:original.meta.media.progressive">1</property>
  <property name="kdenlive:original.kdenlive:clip_type">2</property>
  <property name="kdenlive:original.kdenlive:folderid">16</property>
  <property name="kdenlive:original.kdenlive:id">104</property>
  <property name="kdenlive:original.mute_on_pause">0</property>
  <property name="kdenlive:original.kdenlive:file_size">73695</property>
  <property name="kdenlive:original.kdenlive:file_hash">03444f6b23a55b8c089bfc164767c642</property>
  <property name="kdenlive:original.backup">1</property>
  <property name="meta.media.top_field_first">0</property>
  <property name="meta.media.progressive">1</property>
 </chain>
 <chain id="chain379" out="00:00:00.983">
  <property name="length">60</property>
  <property name="eof">pause</property>
  <property name="resource">/home/xiaoxiae/.cache/kdenlive/proxy/5ef0b6d9906d0d62bf9fc2a390640a56.mkv</property>
  <property name="mlt_service">avformat-novalidate</property>
  <property name="meta.media.nb_streams">1</property>
  <property name="meta.media.0.stream.type">video</property>
  <property name="meta.media.0.stream.frame_rate">60</property>
  <property name="meta.media.0.stream.sample_aspect_ratio">0</property>
  <property name="meta.media.0.codec.width">640</property>
  <property name="meta.media.0.codec.height">360</property>
  <property name="meta.media.0.codec.rotate">0</property>
  <property name="meta.media.0.codec.pix_fmt">yuvj420p</property>
  <property name="meta.media.0.codec.sample_aspect_ratio">0</property>
  <property name="meta.media.0.codec.colorspace">601</property>
  <property name="meta.media.0.codec.name">mjpeg</property>
  <property name="meta.media.0.codec.long_name">MJPEG (Motion JPEG)</property>
  <property name="meta.media.0.codec.bit_rate">0</property>
  <property name="meta.attr.0.stream.HANDLER_NAME.markup">VideoHandler</property>
  <property name="meta.attr.0.stream.VENDOR_ID.markup">[0][0][0][0]</property>
  <property name="meta.attr.0.stream.ENCODER.markup">Lavc60.3.100 mjpeg</property>
  <property name="meta.attr.0.stream.DURATION.markup">00:00:01.000000000</property>
  <property name="meta.attr.COMMENT.markup">Rendered with Manim Community v0.17.3</property>
  <property name="meta.attr.MAJOR_BRAND.markup">isom</property>
  <property name="meta.attr.MINOR_VERSION.markup">512</property>
  <property name="meta.attr.COMPATIBLE_BRANDS.markup">isomiso2avc1mp41</property>
  <property name="meta.attr.ENCODER.markup">Lavf60.3.100</property>
  <property name="seekable">1</property>
  <property name="meta.media.sample_aspect_num">1</property>
  <property name="meta.media.sample_aspect_den">1</property>
  <property name="format">3</property>
  <property name="audio_index">-1</property>
  <property name="video_index">0</property>
  <property name="meta.media.frame_rate_num">60</property>
  <property name="meta.media.frame_rate_den">1</property>
  <property name="meta.media.colorspace">601</property>
  <property name="meta.media.color_trc">2</property>
  <property name="meta.media.has_b_frames">0</property>
  <property name="meta.media.width">640</property>
  <property name="meta.media.height">360</property>
  <property name="meta.media.color_range">full</property>
  <property name="kdenlive:clipname">33.mp4</property>
  <property name="kdenlive:clip_type">2</property>
  <property name="kdenlive:folderid">16</property>
  <property name="kdenlive:id">105</property>
  <property name="mute_on_pause">0</property>
  <property name="kdenlive:file_size">71602</property>
  <property name="kdenlive:file_hash">5ef0b6d9906d0d62bf9fc2a390640a56</property>
  <property name="kdenlive:proxy">/home/xiaoxiae/.cache/kdenlive/proxy/5ef0b6d9906d0d62bf9fc2a390640a56.mkv</property>
  <property name="kdenlive:originalurl">video/Farmer/33.mp4</property>
  <property name="kdenlive:original.mlt_type">chain</property>
  <property name="kdenlive:original.in">0</property>
  <property name="kdenlive:original.out">00:00:00.983</property>
  <property name="kdenlive:original.length">60</property>
  <property name="kdenlive:original.eof">pause</property>
  <property name="kdenlive:original.resource">video/Farmer/33.mp4</property>
  <property name="kdenlive:original.mlt_service">avformat-novalidate</property>
  <property name="kdenlive:original.meta.media.nb_streams">1</property>
  <property name="kdenlive:original.meta.media.0.stream.type">video</property>
  <property name="kdenlive:original.meta.media.0.stream.frame_rate">60</property>
  <property name="kdenlive:original.meta.media.0.stream.sample_aspect_ratio">0</property>
  <property name="kdenlive:original.meta.media.0.codec.width">1920</property>
  <property name="kdenlive:original.meta.media.0.codec.height">1080</property>
  <property name="kdenlive:original.meta.media.0.codec.rotate">0</property>
  <property name="kdenlive:original.meta.media.0.codec.pix_fmt">yuv420p</property>
  <property name="kdenlive:original.meta.media.0.codec.sample_aspect_ratio">0</property>
  <property name="kdenlive:original.meta.media.0.codec.colorspace">709</property>
  <property name="kdenlive:original.meta.media.0.codec.name">h264</property>
  <property name="kdenlive:original.meta.media.0.codec.long_name">H.264 / AVC / MPEG-4 AVC / MPEG-4 part 10</property>
  <property name="kdenlive:original.meta.media.0.codec.bit_rate">559760</property>
  <property name="kdenlive:original.meta.attr.0.stream.handler_name.markup">VideoHandler</property>
  <property name="kdenlive:original.meta.attr.0.stream.vendor_id.markup">[0][0][0][0]</property>
  <property name="kdenlive:original.meta.attr.0.stream.encoder.markup">Lavc60.3.100 libx264</property>
  <property name="kdenlive:original.meta.attr.major_brand.markup">isom</property>
  <property name="kdenlive:original.meta.attr.minor_version.markup">512</property>
  <property name="kdenlive:original.meta.attr.compatible_brands.markup">isomiso2avc1mp41</property>
  <property name="kdenlive:original.meta.attr.encoder.markup">Lavf60.3.100</property>
  <property name="kdenlive:original.meta.attr.comment.markup">Rendered with Manim Community v0.17.3</property>
  <property name="kdenlive:original.seekable">1</property>
  <property name="kdenlive:original.width">1920</property>
  <property name="kdenlive:original.height">1080</property>
  <property name="kdenlive:original.meta.media.sample_aspect_num">1</property>
  <property name="kdenlive:original.meta.media.sample_aspect_den">1</property>
  <property name="kdenlive:original.format">3</property>
  <property name="kdenlive:original.audio_index">-1</property>
  <property name="kdenlive:original.video_index">0</property>
  <property name="kdenlive:original.meta.media.frame_rate_num">60</property>
  <property name="kdenlive:original.meta.media.frame_rate_den">1</property>
  <property name="kdenlive:original.meta.media.colorspace">709</property>
  <property name="kdenlive:original.meta.media.color_trc">2</property>
  <property name="kdenlive:original.meta.media.has_b_frames">2</property>
  <property name="kdenlive:original.meta.media.width">1920</property>
  <property name="kdenlive:original.meta.media.height">1080</property>
  <property name="kdenlive:original.meta.media.color_range">mpeg</property>
  <property name="kdenlive:original.meta.media.top_field_first">0</property>
  <property name="kdenlive:original.meta.media.progressive">1</property>
  <property name="kdenlive:original.kdenlive:clip_type">2</property>
  <property name="kdenlive:original.kdenlive:folderid">16</property>
  <property name="kdenlive:original.kdenlive:id">105</property>
  <property name="kdenlive:original.mute_on_pause">0</property>
  <property name="kdenlive:original.kdenlive:file_size">71602</property>
  <property name="kdenlive:original.kdenlive:file_hash">5ef0b6d9906d0d62bf9fc2a390640a56</property>
  <property name="kdenlive:original.backup">1</property>
  <property name="meta.media.top_field_first">0</property>
  <property name="meta.media.progressive">1</property>
 </chain>
 <chain id="chain377" out="00:00:00.983">
  <property name="length">60</property>
  <property name="eof">pause</property>
  <property name="resource">/home/xiaoxiae/.cache/kdenlive/proxy/2f7c4ea0505bb04c9278d2a54d87b38b.mkv</property>
  <property name="mlt_service">avformat-novalidate</property>
  <property name="meta.media.nb_streams">1</property>
  <property name="meta.media.0.stream.type">video</property>
  <property name="meta.media.0.stream.frame_rate">60</property>
  <property name="meta.media.0.stream.sample_aspect_ratio">0</property>
  <property name="meta.media.0.codec.width">640</property>
  <property name="meta.media.0.codec.height">360</property>
  <property name="meta.media.0.codec.rotate">0</property>
  <property name="meta.media.0.codec.pix_fmt">yuvj420p</property>
  <property name="meta.media.0.codec.sample_aspect_ratio">0</property>
  <property name="meta.media.0.codec.colorspace">601</property>
  <property name="meta.media.0.codec.name">mjpeg</property>
  <property name="meta.media.0.codec.long_name">MJPEG (Motion JPEG)</property>
  <property name="meta.media.0.codec.bit_rate">0</property>
  <property name="meta.attr.0.stream.HANDLER_NAME.markup">VideoHandler</property>
  <property name="meta.attr.0.stream.VENDOR_ID.markup">[0][0][0][0]</property>
  <property name="meta.attr.0.stream.ENCODER.markup">Lavc60.3.100 mjpeg</property>
  <property name="meta.attr.0.stream.DURATION.markup">00:00:01.000000000</property>
  <property name="meta.attr.COMMENT.markup">Rendered with Manim Community v0.17.3</property>
  <property name="meta.attr.MAJOR_BRAND.markup">isom</property>
  <property name="meta.attr.MINOR_VERSION.markup">512</property>
  <property name="meta.attr.COMPATIBLE_BRANDS.markup">isomiso2avc1mp41</property>
  <property name="meta.attr.ENCODER.markup">Lavf60.3.100</property>
  <property name="seekable">1</property>
  <property name="meta.media.sample_aspect_num">1</property>
  <property name="meta.media.sample_aspect_den">1</property>
  <property name="format">3</property>
  <property name="audio_index">-1</property>
  <property name="video_index">0</property>
  <property name="meta.media.frame_rate_num">60</property>
  <property name="meta.media.frame_rate_den">1</property>
  <property name="meta.media.colorspace">601</property>
  <property name="meta.media.color_trc">2</property>
  <property name="meta.media.has_b_frames">0</property>
  <property name="meta.media.width">640</property>
  <property name="meta.media.height">360</property>
  <property name="meta.media.color_range">full</property>
  <property name="kdenlive:clipname">34.mp4</property>
  <property name="kdenlive:clip_type">2</property>
  <property name="kdenlive:folderid">16</property>
  <property name="kdenlive:id">106</property>
  <property name="mute_on_pause">0</property>
  <property name="kdenlive:file_size">93460</property>
  <property name="kdenlive:file_hash">2f7c4ea0505bb04c9278d2a54d87b38b</property>
  <property name="kdenlive:proxy">/home/xiaoxiae/.cache/kdenlive/proxy/2f7c4ea0505bb04c9278d2a54d87b38b.mkv</property>
  <property name="kdenlive:originalurl">video/Farmer/34.mp4</property>
  <property name="kdenlive:original.mlt_type">chain</property>
  <property name="kdenlive:original.in">0</property>
  <property name="kdenlive:original.out">00:00:00.983</property>
  <property name="kdenlive:original.length">60</property>
  <property name="kdenlive:original.eof">pause</property>
  <property name="kdenlive:original.resource">video/Farmer/34.mp4</property>
  <property name="kdenlive:original.mlt_service">avformat-novalidate</property>
  <property name="kdenlive:original.meta.media.nb_streams">1</property>
  <property name="kdenlive:original.meta.media.0.stream.type">video</property>
  <property name="kdenlive:original.meta.media.0.stream.frame_rate">60</property>
  <property name="kdenlive:original.meta.media.0.stream.sample_aspect_ratio">0</property>
  <property name="kdenlive:original.meta.media.0.codec.width">1920</property>
  <property name="kdenlive:original.meta.media.0.codec.height">1080</property>
  <property name="kdenlive:original.meta.media.0.codec.rotate">0</property>
  <property name="kdenlive:original.meta.media.0.codec.pix_fmt">yuv420p</property>
  <property name="kdenlive:original.meta.media.0.codec.sample_aspect_ratio">0</property>
  <property name="kdenlive:original.meta.media.0.codec.colorspace">709</property>
  <property name="kdenlive:original.meta.media.0.codec.name">h264</property>
  <property name="kdenlive:original.meta.media.0.codec.long_name">H.264 / AVC / MPEG-4 AVC / MPEG-4 part 10</property>
  <property name="kdenlive:original.meta.media.0.codec.bit_rate">734560</property>
  <property name="kdenlive:original.meta.attr.0.stream.handler_name.markup">VideoHandler</property>
  <property name="kdenlive:original.meta.attr.0.stream.vendor_id.markup">[0][0][0][0]</property>
  <property name="kdenlive:original.meta.attr.0.stream.encoder.markup">Lavc60.3.100 libx264</property>
  <property name="kdenlive:original.meta.attr.major_brand.markup">isom</property>
  <property name="kdenlive:original.meta.attr.minor_version.markup">512</property>
  <property name="kdenlive:original.meta.attr.compatible_brands.markup">isomiso2avc1mp41</property>
  <property name="kdenlive:original.meta.attr.encoder.markup">Lavf60.3.100</property>
  <property name="kdenlive:original.meta.attr.comment.markup">Rendered with Manim Community v0.17.3</property>
  <property name="kdenlive:original.seekable">1</property>
  <property name="kdenlive:original.width">1920</property>
  <property name="kdenlive:original.height">1080</property>
  <property name="kdenlive:original.meta.media.sample_aspect_num">1</property>
  <property name="kdenlive:original.meta.media.sample_aspect_den">1</property>
  <property name="kdenlive:original.format">3</property>
  <property name="kdenlive:original.audio_index">-1</property>
  <property name="kdenlive:original.video_index">0</property>
  <property name="kdenlive:original.meta.media.frame_rate_num">60</property>
  <property name="kdenlive:original.meta.media.frame_rate_den">1</property>
  <property name="kdenlive:original.meta.media.colorspace">709</property>
  <property name="kdenlive:original.meta.media.color_trc">2</property>
  <property name="kdenlive:original.meta.media.has_b_frames">2</property>
  <property name="kdenlive:original.meta.media.width">1920</property>
  <property name="kdenlive:original.meta.media.height">1080</property>
  <property name="kdenlive:original.meta.media.color_range">mpeg</property>
  <property name="kdenlive:original.meta.media.top_field_first">0</property>
  <property name="kdenlive:original.meta.media.progressive">1</property>
  <property name="kdenlive:original.kdenlive:clip_type">2</property>
  <property name="kdenlive:original.kdenlive:folderid">16</property>
  <property name="kdenlive:original.kdenlive:id">106</property>
  <property name="kdenlive:original.mute_on_pause">0</property>
  <property name="kdenlive:original.kdenlive:file_size">93460</property>
  <property name="kdenlive:original.kdenlive:file_hash">2f7c4ea0505bb04c9278d2a54d87b38b</property>
  <property name="kdenlive:original.backup">1</property>
  <property name="meta.media.top_field_first">0</property>
  <property name="meta.media.progressive">1</property>
 </chain>
 <chain id="chain376" out="00:00:01.733">
  <property name="length">105</property>
  <property name="eof">pause</property>
  <property name="resource">/home/xiaoxiae/.cache/kdenlive/proxy/66aacc9275f0f9ae83444f64550191e2.mkv</property>
  <property name="mlt_service">avformat-novalidate</property>
  <property name="meta.media.nb_streams">1</property>
  <property name="meta.media.0.stream.type">video</property>
  <property name="meta.media.0.stream.frame_rate">60</property>
  <property name="meta.media.0.stream.sample_aspect_ratio">0</property>
  <property name="meta.media.0.codec.width">640</property>
  <property name="meta.media.0.codec.height">360</property>
  <property name="meta.media.0.codec.rotate">0</property>
  <property name="meta.media.0.codec.pix_fmt">yuvj420p</property>
  <property name="meta.media.0.codec.sample_aspect_ratio">0</property>
  <property name="meta.media.0.codec.colorspace">601</property>
  <property name="meta.media.0.codec.name">mjpeg</property>
  <property name="meta.media.0.codec.long_name">MJPEG (Motion JPEG)</property>
  <property name="meta.media.0.codec.bit_rate">0</property>
  <property name="meta.attr.0.stream.HANDLER_NAME.markup">VideoHandler</property>
  <property name="meta.attr.0.stream.VENDOR_ID.markup">[0][0][0][0]</property>
  <property name="meta.attr.0.stream.ENCODER.markup">Lavc60.3.100 mjpeg</property>
  <property name="meta.attr.0.stream.DURATION.markup">00:00:01.750000000</property>
  <property name="meta.attr.COMMENT.markup">Rendered with Manim Community v0.17.3</property>
  <property name="meta.attr.MAJOR_BRAND.markup">isom</property>
  <property name="meta.attr.MINOR_VERSION.markup">512</property>
  <property name="meta.attr.COMPATIBLE_BRANDS.markup">isomiso2avc1mp41</property>
  <property name="meta.attr.ENCODER.markup">Lavf60.3.100</property>
  <property name="seekable">1</property>
  <property name="meta.media.sample_aspect_num">1</property>
  <property name="meta.media.sample_aspect_den">1</property>
  <property name="format">3</property>
  <property name="audio_index">-1</property>
  <property name="video_index">0</property>
  <property name="meta.media.frame_rate_num">60</property>
  <property name="meta.media.frame_rate_den">1</property>
  <property name="meta.media.colorspace">601</property>
  <property name="meta.media.color_trc">2</property>
  <property name="meta.media.has_b_frames">0</property>
  <property name="meta.media.width">640</property>
  <property name="meta.media.height">360</property>
  <property name="meta.media.color_range">full</property>
  <property name="kdenlive:clipname">35.mp4</property>
  <property name="kdenlive:clip_type">2</property>
  <property name="kdenlive:folderid">16</property>
  <property name="kdenlive:id">107</property>
  <property name="mute_on_pause">0</property>
  <property name="kdenlive:file_size">84226</property>
  <property name="kdenlive:file_hash">66aacc9275f0f9ae83444f64550191e2</property>
  <property name="kdenlive:proxy">/home/xiaoxiae/.cache/kdenlive/proxy/66aacc9275f0f9ae83444f64550191e2.mkv</property>
  <property name="kdenlive:originalurl">video/Farmer/35.mp4</property>
  <property name="kdenlive:original.mlt_type">chain</property>
  <property name="kdenlive:original.in">0</property>
  <property name="kdenlive:original.out">00:00:01.733</property>
  <property name="kdenlive:original.length">105</property>
  <property name="kdenlive:original.eof">pause</property>
  <property name="kdenlive:original.resource">video/Farmer/35.mp4</property>
  <property name="kdenlive:original.mlt_service">avformat-novalidate</property>
  <property name="kdenlive:original.meta.media.nb_streams">1</property>
  <property name="kdenlive:original.meta.media.0.stream.type">video</property>
  <property name="kdenlive:original.meta.media.0.stream.frame_rate">60</property>
  <property name="kdenlive:original.meta.media.0.stream.sample_aspect_ratio">0</property>
  <property name="kdenlive:original.meta.media.0.codec.width">1920</property>
  <property name="kdenlive:original.meta.media.0.codec.height">1080</property>
  <property name="kdenlive:original.meta.media.0.codec.rotate">0</property>
  <property name="kdenlive:original.meta.media.0.codec.pix_fmt">yuv420p</property>
  <property name="kdenlive:original.meta.media.0.codec.sample_aspect_ratio">0</property>
  <property name="kdenlive:original.meta.media.0.codec.colorspace">709</property>
  <property name="kdenlive:original.meta.media.0.codec.name">h264</property>
  <property name="kdenlive:original.meta.media.0.codec.long_name">H.264 / AVC / MPEG-4 AVC / MPEG-4 part 10</property>
  <property name="kdenlive:original.meta.media.0.codec.bit_rate">375067</property>
  <property name="kdenlive:original.meta.attr.0.stream.handler_name.markup">VideoHandler</property>
  <property name="kdenlive:original.meta.attr.0.stream.vendor_id.markup">[0][0][0][0]</property>
  <property name="kdenlive:original.meta.attr.0.stream.encoder.markup">Lavc60.3.100 libx264</property>
  <property name="kdenlive:original.meta.attr.major_brand.markup">isom</property>
  <property name="kdenlive:original.meta.attr.minor_version.markup">512</property>
  <property name="kdenlive:original.meta.attr.compatible_brands.markup">isomiso2avc1mp41</property>
  <property name="kdenlive:original.meta.attr.encoder.markup">Lavf60.3.100</property>
  <property name="kdenlive:original.meta.attr.comment.markup">Rendered with Manim Community v0.17.3</property>
  <property name="kdenlive:original.seekable">1</property>
  <property name="kdenlive:original.width">1920</property>
  <property name="kdenlive:original.height">1080</property>
  <property name="kdenlive:original.meta.media.sample_aspect_num">1</property>
  <property name="kdenlive:original.meta.media.sample_aspect_den">1</property>
  <property name="kdenlive:original.format">3</property>
  <property name="kdenlive:original.audio_index">-1</property>
  <property name="kdenlive:original.video_index">0</property>
  <property name="kdenlive:original.meta.media.frame_rate_num">60</property>
  <property name="kdenlive:original.meta.media.frame_rate_den">1</property>
  <property name="kdenlive:original.meta.media.colorspace">709</property>
  <property name="kdenlive:original.meta.media.color_trc">2</property>
  <property name="kdenlive:original.meta.media.has_b_frames">2</property>
  <property name="kdenlive:original.meta.media.width">1920</property>
  <property name="kdenlive:original.meta.media.height">1080</property>
  <property name="kdenlive:original.meta.media.color_range">mpeg</property>
  <property name="kdenlive:original.meta.media.top_field_first">0</property>
  <property name="kdenlive:original.meta.media.progressive">1</property>
  <property name="kdenlive:original.kdenlive:clip_type">2</property>
  <property name="kdenlive:original.kdenlive:folderid">16</property>
  <property name="kdenlive:original.kdenlive:id">107</property>
  <property name="kdenlive:original.mute_on_pause">0</property>
  <property name="kdenlive:original.kdenlive:file_size">84226</property>
  <property name="kdenlive:original.kdenlive:file_hash">66aacc9275f0f9ae83444f64550191e2</property>
  <property name="kdenlive:original.backup">1</property>
  <property name="meta.media.top_field_first">0</property>
  <property name="meta.media.progressive">1</property>
 </chain>
 <chain id="chain375" out="00:00:01.733">
  <property name="length">105</property>
  <property name="eof">pause</property>
  <property name="resource">/home/xiaoxiae/.cache/kdenlive/proxy/c08f926de98a2eb0854de9e94ce5d33e.mkv</property>
  <property name="mlt_service">avformat-novalidate</property>
  <property name="meta.media.nb_streams">1</property>
  <property name="meta.media.0.stream.type">video</property>
  <property name="meta.media.0.stream.frame_rate">60</property>
  <property name="meta.media.0.stream.sample_aspect_ratio">0</property>
  <property name="meta.media.0.codec.width">640</property>
  <property name="meta.media.0.codec.height">360</property>
  <property name="meta.media.0.codec.rotate">0</property>
  <property name="meta.media.0.codec.pix_fmt">yuvj420p</property>
  <property name="meta.media.0.codec.sample_aspect_ratio">0</property>
  <property name="meta.media.0.codec.colorspace">601</property>
  <property name="meta.media.0.codec.name">mjpeg</property>
  <property name="meta.media.0.codec.long_name">MJPEG (Motion JPEG)</property>
  <property name="meta.media.0.codec.bit_rate">0</property>
  <property name="meta.attr.0.stream.HANDLER_NAME.markup">VideoHandler</property>
  <property name="meta.attr.0.stream.VENDOR_ID.markup">[0][0][0][0]</property>
  <property name="meta.attr.0.stream.ENCODER.markup">Lavc60.3.100 mjpeg</property>
  <property name="meta.attr.0.stream.DURATION.markup">00:00:01.750000000</property>
  <property name="meta.attr.COMMENT.markup">Rendered with Manim Community v0.17.3</property>
  <property name="meta.attr.MAJOR_BRAND.markup">isom</property>
  <property name="meta.attr.MINOR_VERSION.markup">512</property>
  <property name="meta.attr.COMPATIBLE_BRANDS.markup">isomiso2avc1mp41</property>
  <property name="meta.attr.ENCODER.markup">Lavf60.3.100</property>
  <property name="seekable">1</property>
  <property name="meta.media.sample_aspect_num">1</property>
  <property name="meta.media.sample_aspect_den">1</property>
  <property name="format">3</property>
  <property name="audio_index">-1</property>
  <property name="video_index">0</property>
  <property name="meta.media.frame_rate_num">60</property>
  <property name="meta.media.frame_rate_den">1</property>
  <property name="meta.media.colorspace">601</property>
  <property name="meta.media.color_trc">2</property>
  <property name="meta.media.has_b_frames">0</property>
  <property name="meta.media.width">640</property>
  <property name="meta.media.height">360</property>
  <property name="meta.media.color_range">full</property>
  <property name="kdenlive:clipname">36.mp4</property>
  <property name="kdenlive:clip_type">2</property>
  <property name="kdenlive:folderid">16</property>
  <property name="kdenlive:id">108</property>
  <property name="mute_on_pause">0</property>
  <property name="kdenlive:file_size">108529</property>
  <property name="kdenlive:file_hash">c08f926de98a2eb0854de9e94ce5d33e</property>
  <property name="kdenlive:proxy">/home/xiaoxiae/.cache/kdenlive/proxy/c08f926de98a2eb0854de9e94ce5d33e.mkv</property>
  <property name="kdenlive:originalurl">video/Farmer/36.mp4</property>
  <property name="kdenlive:original.mlt_type">chain</property>
  <property name="kdenlive:original.in">0</property>
  <property name="kdenlive:original.out">00:00:01.733</property>
  <property name="kdenlive:original.length">105</property>
  <property name="kdenlive:original.eof">pause</property>
  <property name="kdenlive:original.resource">video/Farmer/36.mp4</property>
  <property name="kdenlive:original.mlt_service">avformat-novalidate</property>
  <property name="kdenlive:original.meta.media.nb_streams">1</property>
  <property name="kdenlive:original.meta.media.0.stream.type">video</property>
  <property name="kdenlive:original.meta.media.0.stream.frame_rate">60</property>
  <property name="kdenlive:original.meta.media.0.stream.sample_aspect_ratio">0</property>
  <property name="kdenlive:original.meta.media.0.codec.width">1920</property>
  <property name="kdenlive:original.meta.media.0.codec.height">1080</property>
  <property name="kdenlive:original.meta.media.0.codec.rotate">0</property>
  <property name="kdenlive:original.meta.media.0.codec.pix_fmt">yuv420p</property>
  <property name="kdenlive:original.meta.media.0.codec.sample_aspect_ratio">0</property>
  <property name="kdenlive:original.meta.media.0.codec.colorspace">709</property>
  <property name="kdenlive:original.meta.media.0.codec.name">h264</property>
  <property name="kdenlive:original.meta.media.0.codec.long_name">H.264 / AVC / MPEG-4 AVC / MPEG-4 part 10</property>
  <property name="kdenlive:original.meta.media.0.codec.bit_rate">486203</property>
  <property name="kdenlive:original.meta.attr.0.stream.handler_name.markup">VideoHandler</property>
  <property name="kdenlive:original.meta.attr.0.stream.vendor_id.markup">[0][0][0][0]</property>
  <property name="kdenlive:original.meta.attr.0.stream.encoder.markup">Lavc60.3.100 libx264</property>
  <property name="kdenlive:original.meta.attr.major_brand.markup">isom</property>
  <property name="kdenlive:original.meta.attr.minor_version.markup">512</property>
  <property name="kdenlive:original.meta.attr.compatible_brands.markup">isomiso2avc1mp41</property>
  <property name="kdenlive:original.meta.attr.encoder.markup">Lavf60.3.100</property>
  <property name="kdenlive:original.meta.attr.comment.markup">Rendered with Manim Community v0.17.3</property>
  <property name="kdenlive:original.seekable">1</property>
  <property name="kdenlive:original.width">1920</property>
  <property name="kdenlive:original.height">1080</property>
  <property name="kdenlive:original.meta.media.sample_aspect_num">1</property>
  <property name="kdenlive:original.meta.media.sample_aspect_den">1</property>
  <property name="kdenlive:original.format">3</property>
  <property name="kdenlive:original.audio_index">-1</property>
  <property name="kdenlive:original.video_index">0</property>
  <property name="kdenlive:original.meta.media.frame_rate_num">60</property>
  <property name="kdenlive:original.meta.media.frame_rate_den">1</property>
  <property name="kdenlive:original.meta.media.colorspace">709</property>
  <property name="kdenlive:original.meta.media.color_trc">2</property>
  <property name="kdenlive:original.meta.media.has_b_frames">2</property>
  <property name="kdenlive:original.meta.media.width">1920</property>
  <property name="kdenlive:original.meta.media.height">1080</property>
  <property name="kdenlive:original.meta.media.color_range">mpeg</property>
  <property name="kdenlive:original.meta.media.top_field_first">0</property>
  <property name="kdenlive:original.meta.media.progressive">1</property>
  <property name="kdenlive:original.kdenlive:clip_type">2</property>
  <property name="kdenlive:original.kdenlive:folderid">16</property>
  <property name="kdenlive:original.kdenlive:id">108</property>
  <property name="kdenlive:original.mute_on_pause">0</property>
  <property name="kdenlive:original.kdenlive:file_size">108529</property>
  <property name="kdenlive:original.kdenlive:file_hash">c08f926de98a2eb0854de9e94ce5d33e</property>
  <property name="kdenlive:original.backup">1</property>
  <property name="meta.media.top_field_first">0</property>
  <property name="meta.media.progressive">1</property>
 </chain>
 <chain id="chain373" out="00:00:01.733">
  <property name="length">105</property>
  <property name="eof">pause</property>
  <property name="resource">/home/xiaoxiae/.cache/kdenlive/proxy/452895bed285a1f728e13b0c150773e6.mkv</property>
  <property name="mlt_service">avformat-novalidate</property>
  <property name="meta.media.nb_streams">1</property>
  <property name="meta.media.0.stream.type">video</property>
  <property name="meta.media.0.stream.frame_rate">60</property>
  <property name="meta.media.0.stream.sample_aspect_ratio">0</property>
  <property name="meta.media.0.codec.width">640</property>
  <property name="meta.media.0.codec.height">360</property>
  <property name="meta.media.0.codec.rotate">0</property>
  <property name="meta.media.0.codec.pix_fmt">yuvj420p</property>
  <property name="meta.media.0.codec.sample_aspect_ratio">0</property>
  <property name="meta.media.0.codec.colorspace">601</property>
  <property name="meta.media.0.codec.name">mjpeg</property>
  <property name="meta.media.0.codec.long_name">MJPEG (Motion JPEG)</property>
  <property name="meta.media.0.codec.bit_rate">0</property>
  <property name="meta.attr.0.stream.HANDLER_NAME.markup">VideoHandler</property>
  <property name="meta.attr.0.stream.VENDOR_ID.markup">[0][0][0][0]</property>
  <property name="meta.attr.0.stream.ENCODER.markup">Lavc60.3.100 mjpeg</property>
  <property name="meta.attr.0.stream.DURATION.markup">00:00:01.750000000</property>
  <property name="meta.attr.COMMENT.markup">Rendered with Manim Community v0.17.3</property>
  <property name="meta.attr.MAJOR_BRAND.markup">isom</property>
  <property name="meta.attr.MINOR_VERSION.markup">512</property>
  <property name="meta.attr.COMPATIBLE_BRANDS.markup">isomiso2avc1mp41</property>
  <property name="meta.attr.ENCODER.markup">Lavf60.3.100</property>
  <property name="seekable">1</property>
  <property name="meta.media.sample_aspect_num">1</property>
  <property name="meta.media.sample_aspect_den">1</property>
  <property name="format">3</property>
  <property name="audio_index">-1</property>
  <property name="video_index">0</property>
  <property name="meta.media.frame_rate_num">60</property>
  <property name="meta.media.frame_rate_den">1</property>
  <property name="meta.media.colorspace">601</property>
  <property name="meta.media.color_trc">2</property>
  <property name="meta.media.has_b_frames">0</property>
  <property name="meta.media.width">640</property>
  <property name="meta.media.height">360</property>
  <property name="meta.media.color_range">full</property>
  <property name="kdenlive:clipname">37.mp4</property>
  <property name="kdenlive:clip_type">2</property>
  <property name="kdenlive:folderid">16</property>
  <property name="kdenlive:id">109</property>
  <property name="mute_on_pause">0</property>
  <property name="kdenlive:file_size">96393</property>
  <property name="kdenlive:file_hash">452895bed285a1f728e13b0c150773e6</property>
  <property name="kdenlive:proxy">/home/xiaoxiae/.cache/kdenlive/proxy/452895bed285a1f728e13b0c150773e6.mkv</property>
  <property name="kdenlive:originalurl">video/Farmer/37.mp4</property>
  <property name="kdenlive:original.mlt_type">chain</property>
  <property name="kdenlive:original.in">0</property>
  <property name="kdenlive:original.out">00:00:01.733</property>
  <property name="kdenlive:original.length">105</property>
  <property name="kdenlive:original.eof">pause</property>
  <property name="kdenlive:original.resource">video/Farmer/37.mp4</property>
  <property name="kdenlive:original.mlt_service">avformat-novalidate</property>
  <property name="kdenlive:original.meta.media.nb_streams">1</property>
  <property name="kdenlive:original.meta.media.0.stream.type">video</property>
  <property name="kdenlive:original.meta.media.0.stream.frame_rate">60</property>
  <property name="kdenlive:original.meta.media.0.stream.sample_aspect_ratio">0</property>
  <property name="kdenlive:original.meta.media.0.codec.width">1920</property>
  <property name="kdenlive:original.meta.media.0.codec.height">1080</property>
  <property name="kdenlive:original.meta.media.0.codec.rotate">0</property>
  <property name="kdenlive:original.meta.media.0.codec.pix_fmt">yuv420p</property>
  <property name="kdenlive:original.meta.media.0.codec.sample_aspect_ratio">0</property>
  <property name="kdenlive:original.meta.media.0.codec.colorspace">709</property>
  <property name="kdenlive:original.meta.media.0.codec.name">h264</property>
  <property name="kdenlive:original.meta.media.0.codec.long_name">H.264 / AVC / MPEG-4 AVC / MPEG-4 part 10</property>
  <property name="kdenlive:original.meta.media.0.codec.bit_rate">430834</property>
  <property name="kdenlive:original.meta.attr.0.stream.handler_name.markup">VideoHandler</property>
  <property name="kdenlive:original.meta.attr.0.stream.vendor_id.markup">[0][0][0][0]</property>
  <property name="kdenlive:original.meta.attr.0.stream.encoder.markup">Lavc60.3.100 libx264</property>
  <property name="kdenlive:original.meta.attr.major_brand.markup">isom</property>
  <property name="kdenlive:original.meta.attr.minor_version.markup">512</property>
  <property name="kdenlive:original.meta.attr.compatible_brands.markup">isomiso2avc1mp41</property>
  <property name="kdenlive:original.meta.attr.encoder.markup">Lavf60.3.100</property>
  <property name="kdenlive:original.meta.attr.comment.markup">Rendered with Manim Community v0.17.3</property>
  <property name="kdenlive:original.seekable">1</property>
  <property name="kdenlive:original.width">1920</property>
  <property name="kdenlive:original.height">1080</property>
  <property name="kdenlive:original.meta.media.sample_aspect_num">1</property>
  <property name="kdenlive:original.meta.media.sample_aspect_den">1</property>
  <property name="kdenlive:original.format">3</property>
  <property name="kdenlive:original.audio_index">-1</property>
  <property name="kdenlive:original.video_index">0</property>
  <property name="kdenlive:original.meta.media.frame_rate_num">60</property>
  <property name="kdenlive:original.meta.media.frame_rate_den">1</property>
  <property name="kdenlive:original.meta.media.colorspace">709</property>
  <property name="kdenlive:original.meta.media.color_trc">2</property>
  <property name="kdenlive:original.meta.media.has_b_frames">2</property>
  <property name="kdenlive:original.meta.media.width">1920</property>
  <property name="kdenlive:original.meta.media.height">1080</property>
  <property name="kdenlive:original.meta.media.color_range">mpeg</property>
  <property name="kdenlive:original.meta.media.top_field_first">0</property>
  <property name="kdenlive:original.meta.media.progressive">1</property>
  <property name="kdenlive:original.kdenlive:clip_type">2</property>
  <property name="kdenlive:original.kdenlive:folderid">16</property>
  <property name="kdenlive:original.kdenlive:id">109</property>
  <property name="kdenlive:original.mute_on_pause">0</property>
  <property name="kdenlive:original.kdenlive:file_size">96393</property>
  <property name="kdenlive:original.kdenlive:file_hash">452895bed285a1f728e13b0c150773e6</property>
  <property name="kdenlive:original.backup">1</property>
  <property name="meta.media.top_field_first">0</property>
  <property name="meta.media.progressive">1</property>
 </chain>
 <chain id="chain372" out="00:00:00.983">
  <property name="length">60</property>
  <property name="eof">pause</property>
  <property name="resource">/home/xiaoxiae/.cache/kdenlive/proxy/f6f7bc370653ffc863b0057853b382d6.mkv</property>
  <property name="mlt_service">avformat-novalidate</property>
  <property name="meta.media.nb_streams">1</property>
  <property name="meta.media.0.stream.type">video</property>
  <property name="meta.media.0.stream.frame_rate">60</property>
  <property name="meta.media.0.stream.sample_aspect_ratio">0</property>
  <property name="meta.media.0.codec.width">640</property>
  <property name="meta.media.0.codec.height">360</property>
  <property name="meta.media.0.codec.rotate">0</property>
  <property name="meta.media.0.codec.pix_fmt">yuvj420p</property>
  <property name="meta.media.0.codec.sample_aspect_ratio">0</property>
  <property name="meta.media.0.codec.colorspace">601</property>
  <property name="meta.media.0.codec.name">mjpeg</property>
  <property name="meta.media.0.codec.long_name">MJPEG (Motion JPEG)</property>
  <property name="meta.media.0.codec.bit_rate">0</property>
  <property name="meta.attr.0.stream.HANDLER_NAME.markup">VideoHandler</property>
  <property name="meta.attr.0.stream.VENDOR_ID.markup">[0][0][0][0]</property>
  <property name="meta.attr.0.stream.ENCODER.markup">Lavc60.3.100 mjpeg</property>
  <property name="meta.attr.0.stream.DURATION.markup">00:00:01.000000000</property>
  <property name="meta.attr.COMMENT.markup">Rendered with Manim Community v0.17.3</property>
  <property name="meta.attr.MAJOR_BRAND.markup">isom</property>
  <property name="meta.attr.MINOR_VERSION.markup">512</property>
  <property name="meta.attr.COMPATIBLE_BRANDS.markup">isomiso2avc1mp41</property>
  <property name="meta.attr.ENCODER.markup">Lavf60.3.100</property>
  <property name="seekable">1</property>
  <property name="meta.media.sample_aspect_num">1</property>
  <property name="meta.media.sample_aspect_den">1</property>
  <property name="format">3</property>
  <property name="audio_index">-1</property>
  <property name="video_index">0</property>
  <property name="meta.media.frame_rate_num">60</property>
  <property name="meta.media.frame_rate_den">1</property>
  <property name="meta.media.colorspace">601</property>
  <property name="meta.media.color_trc">2</property>
  <property name="meta.media.has_b_frames">0</property>
  <property name="meta.media.width">640</property>
  <property name="meta.media.height">360</property>
  <property name="meta.media.color_range">full</property>
  <property name="kdenlive:clipname">38.mp4</property>
  <property name="kdenlive:clip_type">2</property>
  <property name="kdenlive:folderid">16</property>
  <property name="kdenlive:id">110</property>
  <property name="mute_on_pause">0</property>
  <property name="kdenlive:file_size">96156</property>
  <property name="kdenlive:file_hash">f6f7bc370653ffc863b0057853b382d6</property>
  <property name="kdenlive:proxy">/home/xiaoxiae/.cache/kdenlive/proxy/f6f7bc370653ffc863b0057853b382d6.mkv</property>
  <property name="kdenlive:originalurl">video/Farmer/38.mp4</property>
  <property name="kdenlive:original.mlt_type">chain</property>
  <property name="kdenlive:original.in">0</property>
  <property name="kdenlive:original.out">00:00:00.983</property>
  <property name="kdenlive:original.length">60</property>
  <property name="kdenlive:original.eof">pause</property>
  <property name="kdenlive:original.resource">video/Farmer/38.mp4</property>
  <property name="kdenlive:original.mlt_service">avformat-novalidate</property>
  <property name="kdenlive:original.meta.media.nb_streams">1</property>
  <property name="kdenlive:original.meta.media.0.stream.type">video</property>
  <property name="kdenlive:original.meta.media.0.stream.frame_rate">60</property>
  <property name="kdenlive:original.meta.media.0.stream.sample_aspect_ratio">0</property>
  <property name="kdenlive:original.meta.media.0.codec.width">1920</property>
  <property name="kdenlive:original.meta.media.0.codec.height">1080</property>
  <property name="kdenlive:original.meta.media.0.codec.rotate">0</property>
  <property name="kdenlive:original.meta.media.0.codec.pix_fmt">yuv420p</property>
  <property name="kdenlive:original.meta.media.0.codec.sample_aspect_ratio">0</property>
  <property name="kdenlive:original.meta.media.0.codec.colorspace">709</property>
  <property name="kdenlive:original.meta.media.0.codec.name">h264</property>
  <property name="kdenlive:original.meta.media.0.codec.long_name">H.264 / AVC / MPEG-4 AVC / MPEG-4 part 10</property>
  <property name="kdenlive:original.meta.media.0.codec.bit_rate">756192</property>
  <property name="kdenlive:original.meta.attr.0.stream.handler_name.markup">VideoHandler</property>
  <property name="kdenlive:original.meta.attr.0.stream.vendor_id.markup">[0][0][0][0]</property>
  <property name="kdenlive:original.meta.attr.0.stream.encoder.markup">Lavc60.3.100 libx264</property>
  <property name="kdenlive:original.meta.attr.major_brand.markup">isom</property>
  <property name="kdenlive:original.meta.attr.minor_version.markup">512</property>
  <property name="kdenlive:original.meta.attr.compatible_brands.markup">isomiso2avc1mp41</property>
  <property name="kdenlive:original.meta.attr.encoder.markup">Lavf60.3.100</property>
  <property name="kdenlive:original.meta.attr.comment.markup">Rendered with Manim Community v0.17.3</property>
  <property name="kdenlive:original.seekable">1</property>
  <property name="kdenlive:original.width">1920</property>
  <property name="kdenlive:original.height">1080</property>
  <property name="kdenlive:original.meta.media.sample_aspect_num">1</property>
  <property name="kdenlive:original.meta.media.sample_aspect_den">1</property>
  <property name="kdenlive:original.format">3</property>
  <property name="kdenlive:original.audio_index">-1</property>
  <property name="kdenlive:original.video_index">0</property>
  <property name="kdenlive:original.meta.media.frame_rate_num">60</property>
  <property name="kdenlive:original.meta.media.frame_rate_den">1</property>
  <property name="kdenlive:original.meta.media.colorspace">709</property>
  <property name="kdenlive:original.meta.media.color_trc">2</property>
  <property name="kdenlive:original.meta.media.has_b_frames">2</property>
  <property name="kdenlive:original.meta.media.width">1920</property>
  <property name="kdenlive:original.meta.media.height">1080</property>
  <property name="kdenlive:original.meta.media.color_range">mpeg</property>
  <property name="kdenlive:original.meta.media.top_field_first">0</property>
  <property name="kdenlive:original.meta.media.progressive">1</property>
  <property name="kdenlive:original.kdenlive:clip_type">2</property>
  <property name="kdenlive:original.kdenlive:folderid">16</property>
  <property name="kdenlive:original.kdenlive:id">110</property>
  <property name="kdenlive:original.mute_on_pause">0</property>
  <property name="kdenlive:original.kdenlive:file_size">96156</property>
  <property name="kdenlive:original.kdenlive:file_hash">f6f7bc370653ffc863b0057853b382d6</property>
  <property name="kdenlive:original.backup">1</property>
  <property name="meta.media.top_field_first">0</property>
  <property name="meta.media.progressive">1</property>
 </chain>
 <chain id="chain370" out="00:00:00.983">
  <property name="length">60</property>
  <property name="eof">pause</property>
  <property name="resource">/home/xiaoxiae/.cache/kdenlive/proxy/d7104ca0d90eb8c4502fbf86af0a6f1e.mkv</property>
  <property name="mlt_service">avformat-novalidate</property>
  <property name="meta.media.nb_streams">1</property>
  <property name="meta.media.0.stream.type">video</property>
  <property name="meta.media.0.stream.frame_rate">60</property>
  <property name="meta.media.0.stream.sample_aspect_ratio">0</property>
  <property name="meta.media.0.codec.width">640</property>
  <property name="meta.media.0.codec.height">360</property>
  <property name="meta.media.0.codec.rotate">0</property>
  <property name="meta.media.0.codec.pix_fmt">yuvj420p</property>
  <property name="meta.media.0.codec.sample_aspect_ratio">0</property>
  <property name="meta.media.0.codec.colorspace">601</property>
  <property name="meta.media.0.codec.name">mjpeg</property>
  <property name="meta.media.0.codec.long_name">MJPEG (Motion JPEG)</property>
  <property name="meta.media.0.codec.bit_rate">0</property>
  <property name="meta.attr.0.stream.HANDLER_NAME.markup">VideoHandler</property>
  <property name="meta.attr.0.stream.VENDOR_ID.markup">[0][0][0][0]</property>
  <property name="meta.attr.0.stream.ENCODER.markup">Lavc60.3.100 mjpeg</property>
  <property name="meta.attr.0.stream.DURATION.markup">00:00:01.000000000</property>
  <property name="meta.attr.COMMENT.markup">Rendered with Manim Community v0.17.3</property>
  <property name="meta.attr.MAJOR_BRAND.markup">isom</property>
  <property name="meta.attr.MINOR_VERSION.markup">512</property>
  <property name="meta.attr.COMPATIBLE_BRANDS.markup">isomiso2avc1mp41</property>
  <property name="meta.attr.ENCODER.markup">Lavf60.3.100</property>
  <property name="seekable">1</property>
  <property name="meta.media.sample_aspect_num">1</property>
  <property name="meta.media.sample_aspect_den">1</property>
  <property name="format">3</property>
  <property name="audio_index">-1</property>
  <property name="video_index">0</property>
  <property name="meta.media.frame_rate_num">60</property>
  <property name="meta.media.frame_rate_den">1</property>
  <property name="meta.media.colorspace">601</property>
  <property name="meta.media.color_trc">2</property>
  <property name="meta.media.has_b_frames">0</property>
  <property name="meta.media.width">640</property>
  <property name="meta.media.height">360</property>
  <property name="meta.media.color_range">full</property>
  <property name="kdenlive:clipname">39.mp4</property>
  <property name="kdenlive:clip_type">2</property>
  <property name="kdenlive:folderid">16</property>
  <property name="kdenlive:id">111</property>
  <property name="mute_on_pause">0</property>
  <property name="kdenlive:file_size">174130</property>
  <property name="kdenlive:file_hash">d7104ca0d90eb8c4502fbf86af0a6f1e</property>
  <property name="kdenlive:proxy">/home/xiaoxiae/.cache/kdenlive/proxy/d7104ca0d90eb8c4502fbf86af0a6f1e.mkv</property>
  <property name="kdenlive:originalurl">video/Farmer/39.mp4</property>
  <property name="kdenlive:original.mlt_type">chain</property>
  <property name="kdenlive:original.in">0</property>
  <property name="kdenlive:original.out">00:00:00.983</property>
  <property name="kdenlive:original.length">60</property>
  <property name="kdenlive:original.eof">pause</property>
  <property name="kdenlive:original.resource">video/Farmer/39.mp4</property>
  <property name="kdenlive:original.mlt_service">avformat-novalidate</property>
  <property name="kdenlive:original.meta.media.nb_streams">1</property>
  <property name="kdenlive:original.meta.media.0.stream.type">video</property>
  <property name="kdenlive:original.meta.media.0.stream.frame_rate">60</property>
  <property name="kdenlive:original.meta.media.0.stream.sample_aspect_ratio">0</property>
  <property name="kdenlive:original.meta.media.0.codec.width">1920</property>
  <property name="kdenlive:original.meta.media.0.codec.height">1080</property>
  <property name="kdenlive:original.meta.media.0.codec.rotate">0</property>
  <property name="kdenlive:original.meta.media.0.codec.pix_fmt">yuv420p</property>
  <property name="kdenlive:original.meta.media.0.codec.sample_aspect_ratio">0</property>
  <property name="kdenlive:original.meta.media.0.codec.colorspace">709</property>
  <property name="kdenlive:original.meta.media.0.codec.name">h264</property>
  <property name="kdenlive:original.meta.media.0.codec.long_name">H.264 / AVC / MPEG-4 AVC / MPEG-4 part 10</property>
  <property name="kdenlive:original.meta.media.0.codec.bit_rate">1380112</property>
  <property name="kdenlive:original.meta.attr.0.stream.handler_name.markup">VideoHandler</property>
  <property name="kdenlive:original.meta.attr.0.stream.vendor_id.markup">[0][0][0][0]</property>
  <property name="kdenlive:original.meta.attr.0.stream.encoder.markup">Lavc60.3.100 libx264</property>
  <property name="kdenlive:original.meta.attr.major_brand.markup">isom</property>
  <property name="kdenlive:original.meta.attr.minor_version.markup">512</property>
  <property name="kdenlive:original.meta.attr.compatible_brands.markup">isomiso2avc1mp41</property>
  <property name="kdenlive:original.meta.attr.encoder.markup">Lavf60.3.100</property>
  <property name="kdenlive:original.meta.attr.comment.markup">Rendered with Manim Community v0.17.3</property>
  <property name="kdenlive:original.seekable">1</property>
  <property name="kdenlive:original.width">1920</property>
  <property name="kdenlive:original.height">1080</property>
  <property name="kdenlive:original.meta.media.sample_aspect_num">1</property>
  <property name="kdenlive:original.meta.media.sample_aspect_den">1</property>
  <property name="kdenlive:original.format">3</property>
  <property name="kdenlive:original.audio_index">-1</property>
  <property name="kdenlive:original.video_index">0</property>
  <property name="kdenlive:original.meta.media.frame_rate_num">60</property>
  <property name="kdenlive:original.meta.media.frame_rate_den">1</property>
  <property name="kdenlive:original.meta.media.colorspace">709</property>
  <property name="kdenlive:original.meta.media.color_trc">2</property>
  <property name="kdenlive:original.meta.media.has_b_frames">2</property>
  <property name="kdenlive:original.meta.media.width">1920</property>
  <property name="kdenlive:original.meta.media.height">1080</property>
  <property name="kdenlive:original.meta.media.color_range">mpeg</property>
  <property name="kdenlive:original.meta.media.top_field_first">0</property>
  <property name="kdenlive:original.meta.media.progressive">1</property>
  <property name="kdenlive:original.kdenlive:clip_type">2</property>
  <property name="kdenlive:original.kdenlive:folderid">16</property>
  <property name="kdenlive:original.kdenlive:id">111</property>
  <property name="kdenlive:original.mute_on_pause">0</property>
  <property name="kdenlive:original.kdenlive:file_size">174130</property>
  <property name="kdenlive:original.kdenlive:file_hash">d7104ca0d90eb8c4502fbf86af0a6f1e</property>
  <property name="kdenlive:original.backup">1</property>
  <property name="meta.media.top_field_first">0</property>
  <property name="meta.media.progressive">1</property>
 </chain>
 <chain id="chain427" out="00:00:00.983">
  <property name="length">60</property>
  <property name="eof">pause</property>
  <property name="resource">/home/xiaoxiae/.cache/kdenlive/proxy/eb6f0a26631c1a5f0649a7c55b231ca0.mkv</property>
  <property name="mlt_service">avformat-novalidate</property>
  <property name="meta.media.nb_streams">1</property>
  <property name="meta.media.0.stream.type">video</property>
  <property name="meta.media.0.stream.frame_rate">60</property>
  <property name="meta.media.0.stream.sample_aspect_ratio">0</property>
  <property name="meta.media.0.codec.width">640</property>
  <property name="meta.media.0.codec.height">360</property>
  <property name="meta.media.0.codec.rotate">0</property>
  <property name="meta.media.0.codec.pix_fmt">yuvj420p</property>
  <property name="meta.media.0.codec.sample_aspect_ratio">0</property>
  <property name="meta.media.0.codec.colorspace">601</property>
  <property name="meta.media.0.codec.name">mjpeg</property>
  <property name="meta.media.0.codec.long_name">MJPEG (Motion JPEG)</property>
  <property name="meta.media.0.codec.bit_rate">0</property>
  <property name="meta.attr.0.stream.HANDLER_NAME.markup">VideoHandler</property>
  <property name="meta.attr.0.stream.VENDOR_ID.markup">[0][0][0][0]</property>
  <property name="meta.attr.0.stream.ENCODER.markup">Lavc60.3.100 mjpeg</property>
  <property name="meta.attr.0.stream.DURATION.markup">00:00:01.000000000</property>
  <property name="meta.attr.COMMENT.markup">Rendered with Manim Community v0.17.3</property>
  <property name="meta.attr.MAJOR_BRAND.markup">isom</property>
  <property name="meta.attr.MINOR_VERSION.markup">512</property>
  <property name="meta.attr.COMPATIBLE_BRANDS.markup">isomiso2avc1mp41</property>
  <property name="meta.attr.ENCODER.markup">Lavf60.3.100</property>
  <property name="seekable">1</property>
  <property name="meta.media.sample_aspect_num">1</property>
  <property name="meta.media.sample_aspect_den">1</property>
  <property name="format">3</property>
  <property name="audio_index">-1</property>
  <property name="video_index">0</property>
  <property name="meta.media.frame_rate_num">60</property>
  <property name="meta.media.frame_rate_den">1</property>
  <property name="meta.media.colorspace">601</property>
  <property name="meta.media.color_trc">2</property>
  <property name="meta.media.has_b_frames">0</property>
  <property name="meta.media.width">640</property>
  <property name="meta.media.height">360</property>
  <property name="meta.media.color_range">full</property>
  <property name="kdenlive:clipname">4.mp4</property>
  <property name="kdenlive:clip_type">2</property>
  <property name="kdenlive:folderid">16</property>
  <property name="kdenlive:id">112</property>
  <property name="mute_on_pause">0</property>
  <property name="kdenlive:file_size">103096</property>
  <property name="kdenlive:file_hash">eb6f0a26631c1a5f0649a7c55b231ca0</property>
  <property name="kdenlive:proxy">/home/xiaoxiae/.cache/kdenlive/proxy/eb6f0a26631c1a5f0649a7c55b231ca0.mkv</property>
  <property name="kdenlive:originalurl">video/Farmer/4.mp4</property>
  <property name="kdenlive:original.mlt_type">chain</property>
  <property name="kdenlive:original.in">0</property>
  <property name="kdenlive:original.out">00:00:00.983</property>
  <property name="kdenlive:original.length">60</property>
  <property name="kdenlive:original.eof">pause</property>
  <property name="kdenlive:original.resource">video/Farmer/4.mp4</property>
  <property name="kdenlive:original.mlt_service">avformat-novalidate</property>
  <property name="kdenlive:original.meta.media.nb_streams">1</property>
  <property name="kdenlive:original.meta.media.0.stream.type">video</property>
  <property name="kdenlive:original.meta.media.0.stream.frame_rate">60</property>
  <property name="kdenlive:original.meta.media.0.stream.sample_aspect_ratio">0</property>
  <property name="kdenlive:original.meta.media.0.codec.width">1920</property>
  <property name="kdenlive:original.meta.media.0.codec.height">1080</property>
  <property name="kdenlive:original.meta.media.0.codec.rotate">0</property>
  <property name="kdenlive:original.meta.media.0.codec.pix_fmt">yuv420p</property>
  <property name="kdenlive:original.meta.media.0.codec.sample_aspect_ratio">0</property>
  <property name="kdenlive:original.meta.media.0.codec.colorspace">709</property>
  <property name="kdenlive:original.meta.media.0.codec.name">h264</property>
  <property name="kdenlive:original.meta.media.0.codec.long_name">H.264 / AVC / MPEG-4 AVC / MPEG-4 part 10</property>
  <property name="kdenlive:original.meta.media.0.codec.bit_rate">811712</property>
  <property name="kdenlive:original.meta.attr.0.stream.handler_name.markup">VideoHandler</property>
  <property name="kdenlive:original.meta.attr.0.stream.vendor_id.markup">[0][0][0][0]</property>
  <property name="kdenlive:original.meta.attr.0.stream.encoder.markup">Lavc60.3.100 libx264</property>
  <property name="kdenlive:original.meta.attr.major_brand.markup">isom</property>
  <property name="kdenlive:original.meta.attr.minor_version.markup">512</property>
  <property name="kdenlive:original.meta.attr.compatible_brands.markup">isomiso2avc1mp41</property>
  <property name="kdenlive:original.meta.attr.encoder.markup">Lavf60.3.100</property>
  <property name="kdenlive:original.meta.attr.comment.markup">Rendered with Manim Community v0.17.3</property>
  <property name="kdenlive:original.seekable">1</property>
  <property name="kdenlive:original.width">1920</property>
  <property name="kdenlive:original.height">1080</property>
  <property name="kdenlive:original.meta.media.sample_aspect_num">1</property>
  <property name="kdenlive:original.meta.media.sample_aspect_den">1</property>
  <property name="kdenlive:original.format">3</property>
  <property name="kdenlive:original.audio_index">-1</property>
  <property name="kdenlive:original.video_index">0</property>
  <property name="kdenlive:original.meta.media.frame_rate_num">60</property>
  <property name="kdenlive:original.meta.media.frame_rate_den">1</property>
  <property name="kdenlive:original.meta.media.colorspace">709</property>
  <property name="kdenlive:original.meta.media.color_trc">2</property>
  <property name="kdenlive:original.meta.media.has_b_frames">2</property>
  <property name="kdenlive:original.meta.media.width">1920</property>
  <property name="kdenlive:original.meta.media.height">1080</property>
  <property name="kdenlive:original.meta.media.color_range">mpeg</property>
  <property name="kdenlive:original.meta.media.top_field_first">0</property>
  <property name="kdenlive:original.meta.media.progressive">1</property>
  <property name="kdenlive:original.kdenlive:clip_type">2</property>
  <property name="kdenlive:original.kdenlive:folderid">16</property>
  <property name="kdenlive:original.kdenlive:id">112</property>
  <property name="kdenlive:original.mute_on_pause">0</property>
  <property name="kdenlive:original.kdenlive:file_size">103096</property>
  <property name="kdenlive:original.kdenlive:file_hash">eb6f0a26631c1a5f0649a7c55b231ca0</property>
  <property name="kdenlive:original.backup">1</property>
  <property name="meta.media.top_field_first">0</property>
  <property name="meta.media.progressive">1</property>
 </chain>
 <chain id="chain369" out="00:00:01.183">
  <property name="length">72</property>
  <property name="eof">pause</property>
  <property name="resource">/home/xiaoxiae/.cache/kdenlive/proxy/27a1c90940b7a5d32480619df4e30ba7.mkv</property>
  <property name="mlt_service">avformat-novalidate</property>
  <property name="meta.media.nb_streams">1</property>
  <property name="meta.media.0.stream.type">video</property>
  <property name="meta.media.0.stream.frame_rate">60</property>
  <property name="meta.media.0.stream.sample_aspect_ratio">0</property>
  <property name="meta.media.0.codec.width">640</property>
  <property name="meta.media.0.codec.height">360</property>
  <property name="meta.media.0.codec.rotate">0</property>
  <property name="meta.media.0.codec.pix_fmt">yuvj420p</property>
  <property name="meta.media.0.codec.sample_aspect_ratio">0</property>
  <property name="meta.media.0.codec.colorspace">601</property>
  <property name="meta.media.0.codec.name">mjpeg</property>
  <property name="meta.media.0.codec.long_name">MJPEG (Motion JPEG)</property>
  <property name="meta.media.0.codec.bit_rate">0</property>
  <property name="meta.attr.0.stream.HANDLER_NAME.markup">VideoHandler</property>
  <property name="meta.attr.0.stream.VENDOR_ID.markup">[0][0][0][0]</property>
  <property name="meta.attr.0.stream.ENCODER.markup">Lavc60.3.100 mjpeg</property>
  <property name="meta.attr.0.stream.DURATION.markup">00:00:01.200000000</property>
  <property name="meta.attr.COMMENT.markup">Rendered with Manim Community v0.17.3</property>
  <property name="meta.attr.MAJOR_BRAND.markup">isom</property>
  <property name="meta.attr.MINOR_VERSION.markup">512</property>
  <property name="meta.attr.COMPATIBLE_BRANDS.markup">isomiso2avc1mp41</property>
  <property name="meta.attr.ENCODER.markup">Lavf60.3.100</property>
  <property name="seekable">1</property>
  <property name="meta.media.sample_aspect_num">1</property>
  <property name="meta.media.sample_aspect_den">1</property>
  <property name="format">3</property>
  <property name="audio_index">-1</property>
  <property name="video_index">0</property>
  <property name="meta.media.frame_rate_num">60</property>
  <property name="meta.media.frame_rate_den">1</property>
  <property name="meta.media.colorspace">601</property>
  <property name="meta.media.color_trc">2</property>
  <property name="meta.media.has_b_frames">0</property>
  <property name="meta.media.width">640</property>
  <property name="meta.media.height">360</property>
  <property name="meta.media.color_range">full</property>
  <property name="kdenlive:clipname">40.mp4</property>
  <property name="kdenlive:clip_type">2</property>
  <property name="kdenlive:folderid">16</property>
  <property name="kdenlive:id">113</property>
  <property name="mute_on_pause">0</property>
  <property name="kdenlive:file_size">79453</property>
  <property name="kdenlive:file_hash">27a1c90940b7a5d32480619df4e30ba7</property>
  <property name="kdenlive:proxy">/home/xiaoxiae/.cache/kdenlive/proxy/27a1c90940b7a5d32480619df4e30ba7.mkv</property>
  <property name="kdenlive:originalurl">video/Farmer/40.mp4</property>
  <property name="kdenlive:original.mlt_type">chain</property>
  <property name="kdenlive:original.in">0</property>
  <property name="kdenlive:original.out">00:00:01.183</property>
  <property name="kdenlive:original.length">72</property>
  <property name="kdenlive:original.eof">pause</property>
  <property name="kdenlive:original.resource">video/Farmer/40.mp4</property>
  <property name="kdenlive:original.mlt_service">avformat-novalidate</property>
  <property name="kdenlive:original.meta.media.nb_streams">1</property>
  <property name="kdenlive:original.meta.media.0.stream.type">video</property>
  <property name="kdenlive:original.meta.media.0.stream.frame_rate">60</property>
  <property name="kdenlive:original.meta.media.0.stream.sample_aspect_ratio">0</property>
  <property name="kdenlive:original.meta.media.0.codec.width">1920</property>
  <property name="kdenlive:original.meta.media.0.codec.height">1080</property>
  <property name="kdenlive:original.meta.media.0.codec.rotate">0</property>
  <property name="kdenlive:original.meta.media.0.codec.pix_fmt">yuv420p</property>
  <property name="kdenlive:original.meta.media.0.codec.sample_aspect_ratio">0</property>
  <property name="kdenlive:original.meta.media.0.codec.colorspace">709</property>
  <property name="kdenlive:original.meta.media.0.codec.name">h264</property>
  <property name="kdenlive:original.meta.media.0.codec.long_name">H.264 / AVC / MPEG-4 AVC / MPEG-4 part 10</property>
  <property name="kdenlive:original.meta.media.0.codec.bit_rate">517793</property>
  <property name="kdenlive:original.meta.attr.0.stream.handler_name.markup">VideoHandler</property>
  <property name="kdenlive:original.meta.attr.0.stream.vendor_id.markup">[0][0][0][0]</property>
  <property name="kdenlive:original.meta.attr.0.stream.encoder.markup">Lavc60.3.100 libx264</property>
  <property name="kdenlive:original.meta.attr.major_brand.markup">isom</property>
  <property name="kdenlive:original.meta.attr.minor_version.markup">512</property>
  <property name="kdenlive:original.meta.attr.compatible_brands.markup">isomiso2avc1mp41</property>
  <property name="kdenlive:original.meta.attr.encoder.markup">Lavf60.3.100</property>
  <property name="kdenlive:original.meta.attr.comment.markup">Rendered with Manim Community v0.17.3</property>
  <property name="kdenlive:original.seekable">1</property>
  <property name="kdenlive:original.width">1920</property>
  <property name="kdenlive:original.height">1080</property>
  <property name="kdenlive:original.meta.media.sample_aspect_num">1</property>
  <property name="kdenlive:original.meta.media.sample_aspect_den">1</property>
  <property name="kdenlive:original.format">3</property>
  <property name="kdenlive:original.audio_index">-1</property>
  <property name="kdenlive:original.video_index">0</property>
  <property name="kdenlive:original.meta.media.frame_rate_num">60</property>
  <property name="kdenlive:original.meta.media.frame_rate_den">1</property>
  <property name="kdenlive:original.meta.media.colorspace">709</property>
  <property name="kdenlive:original.meta.media.color_trc">2</property>
  <property name="kdenlive:original.meta.media.has_b_frames">2</property>
  <property name="kdenlive:original.meta.media.width">1920</property>
  <property name="kdenlive:original.meta.media.height">1080</property>
  <property name="kdenlive:original.meta.media.color_range">mpeg</property>
  <property name="kdenlive:original.meta.media.top_field_first">0</property>
  <property name="kdenlive:original.meta.media.progressive">1</property>
  <property name="kdenlive:original.kdenlive:clip_type">2</property>
  <property name="kdenlive:original.kdenlive:folderid">16</property>
  <property name="kdenlive:original.kdenlive:id">113</property>
  <property name="kdenlive:original.mute_on_pause">0</property>
  <property name="kdenlive:original.kdenlive:file_size">79453</property>
  <property name="kdenlive:original.kdenlive:file_hash">27a1c90940b7a5d32480619df4e30ba7</property>
  <property name="kdenlive:original.backup">1</property>
  <property name="meta.media.top_field_first">0</property>
  <property name="meta.media.progressive">1</property>
 </chain>
 <chain id="chain366" out="00:00:00.983">
  <property name="length">60</property>
  <property name="eof">pause</property>
  <property name="resource">/home/xiaoxiae/.cache/kdenlive/proxy/2a47bcd36e7e71c063868d6cb2743842.mkv</property>
  <property name="mlt_service">avformat-novalidate</property>
  <property name="meta.media.nb_streams">1</property>
  <property name="meta.media.0.stream.type">video</property>
  <property name="meta.media.0.stream.frame_rate">60</property>
  <property name="meta.media.0.stream.sample_aspect_ratio">0</property>
  <property name="meta.media.0.codec.width">640</property>
  <property name="meta.media.0.codec.height">360</property>
  <property name="meta.media.0.codec.rotate">0</property>
  <property name="meta.media.0.codec.pix_fmt">yuvj420p</property>
  <property name="meta.media.0.codec.sample_aspect_ratio">0</property>
  <property name="meta.media.0.codec.colorspace">601</property>
  <property name="meta.media.0.codec.name">mjpeg</property>
  <property name="meta.media.0.codec.long_name">MJPEG (Motion JPEG)</property>
  <property name="meta.media.0.codec.bit_rate">0</property>
  <property name="meta.attr.0.stream.HANDLER_NAME.markup">VideoHandler</property>
  <property name="meta.attr.0.stream.VENDOR_ID.markup">[0][0][0][0]</property>
  <property name="meta.attr.0.stream.ENCODER.markup">Lavc60.3.100 mjpeg</property>
  <property name="meta.attr.0.stream.DURATION.markup">00:00:01.000000000</property>
  <property name="meta.attr.COMMENT.markup">Rendered with Manim Community v0.17.3</property>
  <property name="meta.attr.MAJOR_BRAND.markup">isom</property>
  <property name="meta.attr.MINOR_VERSION.markup">512</property>
  <property name="meta.attr.COMPATIBLE_BRANDS.markup">isomiso2avc1mp41</property>
  <property name="meta.attr.ENCODER.markup">Lavf60.3.100</property>
  <property name="seekable">1</property>
  <property name="meta.media.sample_aspect_num">1</property>
  <property name="meta.media.sample_aspect_den">1</property>
  <property name="format">3</property>
  <property name="audio_index">-1</property>
  <property name="video_index">0</property>
  <property name="meta.media.frame_rate_num">60</property>
  <property name="meta.media.frame_rate_den">1</property>
  <property name="meta.media.colorspace">601</property>
  <property name="meta.media.color_trc">2</property>
  <property name="meta.media.has_b_frames">0</property>
  <property name="meta.media.width">640</property>
  <property name="meta.media.height">360</property>
  <property name="meta.media.color_range">full</property>
  <property name="kdenlive:clipname">41.mp4</property>
  <property name="kdenlive:clip_type">2</property>
  <property name="kdenlive:folderid">16</property>
  <property name="kdenlive:id">114</property>
  <property name="mute_on_pause">0</property>
  <property name="kdenlive:file_size">75068</property>
  <property name="kdenlive:file_hash">2a47bcd36e7e71c063868d6cb2743842</property>
  <property name="kdenlive:proxy">/home/xiaoxiae/.cache/kdenlive/proxy/2a47bcd36e7e71c063868d6cb2743842.mkv</property>
  <property name="kdenlive:originalurl">video/Farmer/41.mp4</property>
  <property name="kdenlive:original.mlt_type">chain</property>
  <property name="kdenlive:original.in">0</property>
  <property name="kdenlive:original.out">00:00:00.983</property>
  <property name="kdenlive:original.length">60</property>
  <property name="kdenlive:original.eof">pause</property>
  <property name="kdenlive:original.resource">video/Farmer/41.mp4</property>
  <property name="kdenlive:original.mlt_service">avformat-novalidate</property>
  <property name="kdenlive:original.meta.media.nb_streams">1</property>
  <property name="kdenlive:original.meta.media.0.stream.type">video</property>
  <property name="kdenlive:original.meta.media.0.stream.frame_rate">60</property>
  <property name="kdenlive:original.meta.media.0.stream.sample_aspect_ratio">0</property>
  <property name="kdenlive:original.meta.media.0.codec.width">1920</property>
  <property name="kdenlive:original.meta.media.0.codec.height">1080</property>
  <property name="kdenlive:original.meta.media.0.codec.rotate">0</property>
  <property name="kdenlive:original.meta.media.0.codec.pix_fmt">yuv420p</property>
  <property name="kdenlive:original.meta.media.0.codec.sample_aspect_ratio">0</property>
  <property name="kdenlive:original.meta.media.0.codec.colorspace">709</property>
  <property name="kdenlive:original.meta.media.0.codec.name">h264</property>
  <property name="kdenlive:original.meta.media.0.codec.long_name">H.264 / AVC / MPEG-4 AVC / MPEG-4 part 10</property>
  <property name="kdenlive:original.meta.media.0.codec.bit_rate">587488</property>
  <property name="kdenlive:original.meta.attr.0.stream.handler_name.markup">VideoHandler</property>
  <property name="kdenlive:original.meta.attr.0.stream.vendor_id.markup">[0][0][0][0]</property>
  <property name="kdenlive:original.meta.attr.0.stream.encoder.markup">Lavc60.3.100 libx264</property>
  <property name="kdenlive:original.meta.attr.major_brand.markup">isom</property>
  <property name="kdenlive:original.meta.attr.minor_version.markup">512</property>
  <property name="kdenlive:original.meta.attr.compatible_brands.markup">isomiso2avc1mp41</property>
  <property name="kdenlive:original.meta.attr.encoder.markup">Lavf60.3.100</property>
  <property name="kdenlive:original.meta.attr.comment.markup">Rendered with Manim Community v0.17.3</property>
  <property name="kdenlive:original.seekable">1</property>
  <property name="kdenlive:original.width">1920</property>
  <property name="kdenlive:original.height">1080</property>
  <property name="kdenlive:original.meta.media.sample_aspect_num">1</property>
  <property name="kdenlive:original.meta.media.sample_aspect_den">1</property>
  <property name="kdenlive:original.format">3</property>
  <property name="kdenlive:original.audio_index">-1</property>
  <property name="kdenlive:original.video_index">0</property>
  <property name="kdenlive:original.meta.media.frame_rate_num">60</property>
  <property name="kdenlive:original.meta.media.frame_rate_den">1</property>
  <property name="kdenlive:original.meta.media.colorspace">709</property>
  <property name="kdenlive:original.meta.media.color_trc">2</property>
  <property name="kdenlive:original.meta.media.has_b_frames">2</property>
  <property name="kdenlive:original.meta.media.width">1920</property>
  <property name="kdenlive:original.meta.media.height">1080</property>
  <property name="kdenlive:original.meta.media.color_range">mpeg</property>
  <property name="kdenlive:original.meta.media.top_field_first">0</property>
  <property name="kdenlive:original.meta.media.progressive">1</property>
  <property name="kdenlive:original.kdenlive:clip_type">2</property>
  <property name="kdenlive:original.kdenlive:folderid">16</property>
  <property name="kdenlive:original.kdenlive:id">114</property>
  <property name="kdenlive:original.mute_on_pause">0</property>
  <property name="kdenlive:original.kdenlive:file_size">75068</property>
  <property name="kdenlive:original.kdenlive:file_hash">2a47bcd36e7e71c063868d6cb2743842</property>
  <property name="kdenlive:original.backup">1</property>
  <property name="meta.media.top_field_first">0</property>
  <property name="meta.media.progressive">1</property>
 </chain>
 <chain id="chain367" out="00:00:02.483">
  <property name="length">150</property>
  <property name="eof">pause</property>
  <property name="resource">/home/xiaoxiae/.cache/kdenlive/proxy/f798cc1112ec8ab2f54a8065e2389a92.mkv</property>
  <property name="mlt_service">avformat-novalidate</property>
  <property name="meta.media.nb_streams">1</property>
  <property name="meta.media.0.stream.type">video</property>
  <property name="meta.media.0.stream.frame_rate">60</property>
  <property name="meta.media.0.stream.sample_aspect_ratio">0</property>
  <property name="meta.media.0.codec.width">640</property>
  <property name="meta.media.0.codec.height">360</property>
  <property name="meta.media.0.codec.rotate">0</property>
  <property name="meta.media.0.codec.pix_fmt">yuvj420p</property>
  <property name="meta.media.0.codec.sample_aspect_ratio">0</property>
  <property name="meta.media.0.codec.colorspace">601</property>
  <property name="meta.media.0.codec.name">mjpeg</property>
  <property name="meta.media.0.codec.long_name">MJPEG (Motion JPEG)</property>
  <property name="meta.media.0.codec.bit_rate">0</property>
  <property name="meta.attr.0.stream.HANDLER_NAME.markup">VideoHandler</property>
  <property name="meta.attr.0.stream.VENDOR_ID.markup">[0][0][0][0]</property>
  <property name="meta.attr.0.stream.ENCODER.markup">Lavc60.3.100 mjpeg</property>
  <property name="meta.attr.0.stream.DURATION.markup">00:00:02.500000000</property>
  <property name="meta.attr.COMMENT.markup">Rendered with Manim Community v0.17.3</property>
  <property name="meta.attr.MAJOR_BRAND.markup">isom</property>
  <property name="meta.attr.MINOR_VERSION.markup">512</property>
  <property name="meta.attr.COMPATIBLE_BRANDS.markup">isomiso2avc1mp41</property>
  <property name="meta.attr.ENCODER.markup">Lavf60.3.100</property>
  <property name="seekable">1</property>
  <property name="meta.media.sample_aspect_num">1</property>
  <property name="meta.media.sample_aspect_den">1</property>
  <property name="format">3</property>
  <property name="audio_index">-1</property>
  <property name="video_index">0</property>
  <property name="meta.media.frame_rate_num">60</property>
  <property name="meta.media.frame_rate_den">1</property>
  <property name="meta.media.colorspace">601</property>
  <property name="meta.media.color_trc">2</property>
  <property name="meta.media.has_b_frames">0</property>
  <property name="meta.media.width">640</property>
  <property name="meta.media.height">360</property>
  <property name="meta.media.color_range">full</property>
  <property name="kdenlive:clipname">42.mp4</property>
  <property name="kdenlive:clip_type">2</property>
  <property name="kdenlive:folderid">16</property>
  <property name="kdenlive:id">115</property>
  <property name="mute_on_pause">0</property>
  <property name="kdenlive:file_size">204466</property>
  <property name="kdenlive:file_hash">f798cc1112ec8ab2f54a8065e2389a92</property>
  <property name="kdenlive:proxy">/home/xiaoxiae/.cache/kdenlive/proxy/f798cc1112ec8ab2f54a8065e2389a92.mkv</property>
  <property name="kdenlive:originalurl">video/Farmer/42.mp4</property>
  <property name="kdenlive:original.mlt_type">chain</property>
  <property name="kdenlive:original.in">0</property>
  <property name="kdenlive:original.out">00:00:02.483</property>
  <property name="kdenlive:original.length">150</property>
  <property name="kdenlive:original.eof">pause</property>
  <property name="kdenlive:original.resource">video/Farmer/42.mp4</property>
  <property name="kdenlive:original.mlt_service">avformat-novalidate</property>
  <property name="kdenlive:original.meta.media.nb_streams">1</property>
  <property name="kdenlive:original.meta.media.0.stream.type">video</property>
  <property name="kdenlive:original.meta.media.0.stream.frame_rate">60</property>
  <property name="kdenlive:original.meta.media.0.stream.sample_aspect_ratio">0</property>
  <property name="kdenlive:original.meta.media.0.codec.width">1920</property>
  <property name="kdenlive:original.meta.media.0.codec.height">1080</property>
  <property name="kdenlive:original.meta.media.0.codec.rotate">0</property>
  <property name="kdenlive:original.meta.media.0.codec.pix_fmt">yuv420p</property>
  <property name="kdenlive:original.meta.media.0.codec.sample_aspect_ratio">0</property>
  <property name="kdenlive:original.meta.media.0.codec.colorspace">709</property>
  <property name="kdenlive:original.meta.media.0.codec.name">h264</property>
  <property name="kdenlive:original.meta.media.0.codec.long_name">H.264 / AVC / MPEG-4 AVC / MPEG-4 part 10</property>
  <property name="kdenlive:original.meta.media.0.codec.bit_rate">645587</property>
  <property name="kdenlive:original.meta.attr.0.stream.handler_name.markup">VideoHandler</property>
  <property name="kdenlive:original.meta.attr.0.stream.vendor_id.markup">[0][0][0][0]</property>
  <property name="kdenlive:original.meta.attr.0.stream.encoder.markup">Lavc60.3.100 libx264</property>
  <property name="kdenlive:original.meta.attr.major_brand.markup">isom</property>
  <property name="kdenlive:original.meta.attr.minor_version.markup">512</property>
  <property name="kdenlive:original.meta.attr.compatible_brands.markup">isomiso2avc1mp41</property>
  <property name="kdenlive:original.meta.attr.encoder.markup">Lavf60.3.100</property>
  <property name="kdenlive:original.meta.attr.comment.markup">Rendered with Manim Community v0.17.3</property>
  <property name="kdenlive:original.seekable">1</property>
  <property name="kdenlive:original.width">1920</property>
  <property name="kdenlive:original.height">1080</property>
  <property name="kdenlive:original.meta.media.sample_aspect_num">1</property>
  <property name="kdenlive:original.meta.media.sample_aspect_den">1</property>
  <property name="kdenlive:original.format">3</property>
  <property name="kdenlive:original.audio_index">-1</property>
  <property name="kdenlive:original.video_index">0</property>
  <property name="kdenlive:original.meta.media.frame_rate_num">60</property>
  <property name="kdenlive:original.meta.media.frame_rate_den">1</property>
  <property name="kdenlive:original.meta.media.colorspace">709</property>
  <property name="kdenlive:original.meta.media.color_trc">2</property>
  <property name="kdenlive:original.meta.media.has_b_frames">2</property>
  <property name="kdenlive:original.meta.media.width">1920</property>
  <property name="kdenlive:original.meta.media.height">1080</property>
  <property name="kdenlive:original.meta.media.color_range">mpeg</property>
  <property name="kdenlive:original.meta.media.top_field_first">0</property>
  <property name="kdenlive:original.meta.media.progressive">1</property>
  <property name="kdenlive:original.kdenlive:clip_type">2</property>
  <property name="kdenlive:original.kdenlive:folderid">16</property>
  <property name="kdenlive:original.kdenlive:id">115</property>
  <property name="kdenlive:original.mute_on_pause">0</property>
  <property name="kdenlive:original.kdenlive:file_size">204466</property>
  <property name="kdenlive:original.kdenlive:file_hash">f798cc1112ec8ab2f54a8065e2389a92</property>
  <property name="kdenlive:original.backup">1</property>
  <property name="meta.media.top_field_first">0</property>
  <property name="meta.media.progressive">1</property>
 </chain>
 <chain id="chain362" out="00:00:00.983">
  <property name="length">60</property>
  <property name="eof">pause</property>
  <property name="resource">/home/xiaoxiae/.cache/kdenlive/proxy/2d735119825472ed71a6b71d717d6651.mkv</property>
  <property name="mlt_service">avformat-novalidate</property>
  <property name="meta.media.nb_streams">1</property>
  <property name="meta.media.0.stream.type">video</property>
  <property name="meta.media.0.stream.frame_rate">60</property>
  <property name="meta.media.0.stream.sample_aspect_ratio">0</property>
  <property name="meta.media.0.codec.width">640</property>
  <property name="meta.media.0.codec.height">360</property>
  <property name="meta.media.0.codec.rotate">0</property>
  <property name="meta.media.0.codec.pix_fmt">yuvj420p</property>
  <property name="meta.media.0.codec.sample_aspect_ratio">0</property>
  <property name="meta.media.0.codec.colorspace">601</property>
  <property name="meta.media.0.codec.name">mjpeg</property>
  <property name="meta.media.0.codec.long_name">MJPEG (Motion JPEG)</property>
  <property name="meta.media.0.codec.bit_rate">0</property>
  <property name="meta.attr.0.stream.HANDLER_NAME.markup">VideoHandler</property>
  <property name="meta.attr.0.stream.VENDOR_ID.markup">[0][0][0][0]</property>
  <property name="meta.attr.0.stream.ENCODER.markup">Lavc60.3.100 mjpeg</property>
  <property name="meta.attr.0.stream.DURATION.markup">00:00:01.000000000</property>
  <property name="meta.attr.COMMENT.markup">Rendered with Manim Community v0.17.3</property>
  <property name="meta.attr.MAJOR_BRAND.markup">isom</property>
  <property name="meta.attr.MINOR_VERSION.markup">512</property>
  <property name="meta.attr.COMPATIBLE_BRANDS.markup">isomiso2avc1mp41</property>
  <property name="meta.attr.ENCODER.markup">Lavf60.3.100</property>
  <property name="seekable">1</property>
  <property name="meta.media.sample_aspect_num">1</property>
  <property name="meta.media.sample_aspect_den">1</property>
  <property name="format">3</property>
  <property name="audio_index">-1</property>
  <property name="video_index">0</property>
  <property name="meta.media.frame_rate_num">60</property>
  <property name="meta.media.frame_rate_den">1</property>
  <property name="meta.media.colorspace">601</property>
  <property name="meta.media.color_trc">2</property>
  <property name="meta.media.has_b_frames">0</property>
  <property name="meta.media.width">640</property>
  <property name="meta.media.height">360</property>
  <property name="meta.media.color_range">full</property>
  <property name="kdenlive:clipname">43.mp4</property>
  <property name="kdenlive:clip_type">2</property>
  <property name="kdenlive:folderid">16</property>
  <property name="kdenlive:id">116</property>
  <property name="mute_on_pause">0</property>
  <property name="kdenlive:file_size">86410</property>
  <property name="kdenlive:file_hash">2d735119825472ed71a6b71d717d6651</property>
  <property name="kdenlive:proxy">/home/xiaoxiae/.cache/kdenlive/proxy/2d735119825472ed71a6b71d717d6651.mkv</property>
  <property name="kdenlive:originalurl">video/Farmer/43.mp4</property>
  <property name="kdenlive:original.mlt_type">chain</property>
  <property name="kdenlive:original.in">0</property>
  <property name="kdenlive:original.out">00:00:00.983</property>
  <property name="kdenlive:original.length">60</property>
  <property name="kdenlive:original.eof">pause</property>
  <property name="kdenlive:original.resource">video/Farmer/43.mp4</property>
  <property name="kdenlive:original.mlt_service">avformat-novalidate</property>
  <property name="kdenlive:original.meta.media.nb_streams">1</property>
  <property name="kdenlive:original.meta.media.0.stream.type">video</property>
  <property name="kdenlive:original.meta.media.0.stream.frame_rate">60</property>
  <property name="kdenlive:original.meta.media.0.stream.sample_aspect_ratio">0</property>
  <property name="kdenlive:original.meta.media.0.codec.width">1920</property>
  <property name="kdenlive:original.meta.media.0.codec.height">1080</property>
  <property name="kdenlive:original.meta.media.0.codec.rotate">0</property>
  <property name="kdenlive:original.meta.media.0.codec.pix_fmt">yuv420p</property>
  <property name="kdenlive:original.meta.media.0.codec.sample_aspect_ratio">0</property>
  <property name="kdenlive:original.meta.media.0.codec.colorspace">709</property>
  <property name="kdenlive:original.meta.media.0.codec.name">h264</property>
  <property name="kdenlive:original.meta.media.0.codec.long_name">H.264 / AVC / MPEG-4 AVC / MPEG-4 part 10</property>
  <property name="kdenlive:original.meta.media.0.codec.bit_rate">678352</property>
  <property name="kdenlive:original.meta.attr.0.stream.handler_name.markup">VideoHandler</property>
  <property name="kdenlive:original.meta.attr.0.stream.vendor_id.markup">[0][0][0][0]</property>
  <property name="kdenlive:original.meta.attr.0.stream.encoder.markup">Lavc60.3.100 libx264</property>
  <property name="kdenlive:original.meta.attr.major_brand.markup">isom</property>
  <property name="kdenlive:original.meta.attr.minor_version.markup">512</property>
  <property name="kdenlive:original.meta.attr.compatible_brands.markup">isomiso2avc1mp41</property>
  <property name="kdenlive:original.meta.attr.encoder.markup">Lavf60.3.100</property>
  <property name="kdenlive:original.meta.attr.comment.markup">Rendered with Manim Community v0.17.3</property>
  <property name="kdenlive:original.seekable">1</property>
  <property name="kdenlive:original.width">1920</property>
  <property name="kdenlive:original.height">1080</property>
  <property name="kdenlive:original.meta.media.sample_aspect_num">1</property>
  <property name="kdenlive:original.meta.media.sample_aspect_den">1</property>
  <property name="kdenlive:original.format">3</property>
  <property name="kdenlive:original.audio_index">-1</property>
  <property name="kdenlive:original.video_index">0</property>
  <property name="kdenlive:original.meta.media.frame_rate_num">60</property>
  <property name="kdenlive:original.meta.media.frame_rate_den">1</property>
  <property name="kdenlive:original.meta.media.colorspace">709</property>
  <property name="kdenlive:original.meta.media.color_trc">2</property>
  <property name="kdenlive:original.meta.media.has_b_frames">2</property>
  <property name="kdenlive:original.meta.media.width">1920</property>
  <property name="kdenlive:original.meta.media.height">1080</property>
  <property name="kdenlive:original.meta.media.color_range">mpeg</property>
  <property name="kdenlive:original.meta.media.top_field_first">0</property>
  <property name="kdenlive:original.meta.media.progressive">1</property>
  <property name="kdenlive:original.kdenlive:clip_type">2</property>
  <property name="kdenlive:original.kdenlive:folderid">16</property>
  <property name="kdenlive:original.kdenlive:id">116</property>
  <property name="kdenlive:original.mute_on_pause">0</property>
  <property name="kdenlive:original.kdenlive:file_size">86410</property>
  <property name="kdenlive:original.kdenlive:file_hash">2d735119825472ed71a6b71d717d6651</property>
  <property name="kdenlive:original.backup">1</property>
  <property name="meta.media.top_field_first">0</property>
  <property name="meta.media.progressive">1</property>
 </chain>
 <chain id="chain361" out="00:00:02.983">
  <property name="length">180</property>
  <property name="eof">pause</property>
  <property name="resource">/home/xiaoxiae/.cache/kdenlive/proxy/912d6150576b358dc36e81bffc99f551.mkv</property>
  <property name="mlt_service">avformat-novalidate</property>
  <property name="meta.media.nb_streams">1</property>
  <property name="meta.media.0.stream.type">video</property>
  <property name="meta.media.0.stream.frame_rate">60</property>
  <property name="meta.media.0.stream.sample_aspect_ratio">0</property>
  <property name="meta.media.0.codec.width">640</property>
  <property name="meta.media.0.codec.height">360</property>
  <property name="meta.media.0.codec.rotate">0</property>
  <property name="meta.media.0.codec.pix_fmt">yuvj420p</property>
  <property name="meta.media.0.codec.sample_aspect_ratio">0</property>
  <property name="meta.media.0.codec.colorspace">601</property>
  <property name="meta.media.0.codec.name">mjpeg</property>
  <property name="meta.media.0.codec.long_name">MJPEG (Motion JPEG)</property>
  <property name="meta.media.0.codec.bit_rate">0</property>
  <property name="meta.attr.0.stream.HANDLER_NAME.markup">VideoHandler</property>
  <property name="meta.attr.0.stream.VENDOR_ID.markup">[0][0][0][0]</property>
  <property name="meta.attr.0.stream.ENCODER.markup">Lavc60.3.100 mjpeg</property>
  <property name="meta.attr.0.stream.DURATION.markup">00:00:03.000000000</property>
  <property name="meta.attr.COMMENT.markup">Rendered with Manim Community v0.17.3</property>
  <property name="meta.attr.MAJOR_BRAND.markup">isom</property>
  <property name="meta.attr.MINOR_VERSION.markup">512</property>
  <property name="meta.attr.COMPATIBLE_BRANDS.markup">isomiso2avc1mp41</property>
  <property name="meta.attr.ENCODER.markup">Lavf60.3.100</property>
  <property name="seekable">1</property>
  <property name="meta.media.sample_aspect_num">1</property>
  <property name="meta.media.sample_aspect_den">1</property>
  <property name="format">3</property>
  <property name="audio_index">-1</property>
  <property name="video_index">0</property>
  <property name="meta.media.frame_rate_num">60</property>
  <property name="meta.media.frame_rate_den">1</property>
  <property name="meta.media.colorspace">601</property>
  <property name="meta.media.color_trc">2</property>
  <property name="meta.media.has_b_frames">0</property>
  <property name="meta.media.width">640</property>
  <property name="meta.media.height">360</property>
  <property name="meta.media.color_range">full</property>
  <property name="kdenlive:clipname">44.mp4</property>
  <property name="kdenlive:clip_type">2</property>
  <property name="kdenlive:folderid">16</property>
  <property name="kdenlive:id">117</property>
  <property name="mute_on_pause">0</property>
  <property name="kdenlive:file_size">311564</property>
  <property name="kdenlive:file_hash">912d6150576b358dc36e81bffc99f551</property>
  <property name="kdenlive:proxy">/home/xiaoxiae/.cache/kdenlive/proxy/912d6150576b358dc36e81bffc99f551.mkv</property>
  <property name="kdenlive:originalurl">video/Farmer/44.mp4</property>
  <property name="kdenlive:original.mlt_type">chain</property>
  <property name="kdenlive:original.in">0</property>
  <property name="kdenlive:original.out">00:00:02.983</property>
  <property name="kdenlive:original.length">180</property>
  <property name="kdenlive:original.eof">pause</property>
  <property name="kdenlive:original.resource">video/Farmer/44.mp4</property>
  <property name="kdenlive:original.mlt_service">avformat-novalidate</property>
  <property name="kdenlive:original.meta.media.nb_streams">1</property>
  <property name="kdenlive:original.meta.media.0.stream.type">video</property>
  <property name="kdenlive:original.meta.media.0.stream.frame_rate">60</property>
  <property name="kdenlive:original.meta.media.0.stream.sample_aspect_ratio">0</property>
  <property name="kdenlive:original.meta.media.0.codec.width">1920</property>
  <property name="kdenlive:original.meta.media.0.codec.height">1080</property>
  <property name="kdenlive:original.meta.media.0.codec.rotate">0</property>
  <property name="kdenlive:original.meta.media.0.codec.pix_fmt">yuv420p</property>
  <property name="kdenlive:original.meta.media.0.codec.sample_aspect_ratio">0</property>
  <property name="kdenlive:original.meta.media.0.codec.colorspace">709</property>
  <property name="kdenlive:original.meta.media.0.codec.name">h264</property>
  <property name="kdenlive:original.meta.media.0.codec.long_name">H.264 / AVC / MPEG-4 AVC / MPEG-4 part 10</property>
  <property name="kdenlive:original.meta.media.0.codec.bit_rate">822794</property>
  <property name="kdenlive:original.meta.attr.0.stream.handler_name.markup">VideoHandler</property>
  <property name="kdenlive:original.meta.attr.0.stream.vendor_id.markup">[0][0][0][0]</property>
  <property name="kdenlive:original.meta.attr.0.stream.encoder.markup">Lavc60.3.100 libx264</property>
  <property name="kdenlive:original.meta.attr.major_brand.markup">isom</property>
  <property name="kdenlive:original.meta.attr.minor_version.markup">512</property>
  <property name="kdenlive:original.meta.attr.compatible_brands.markup">isomiso2avc1mp41</property>
  <property name="kdenlive:original.meta.attr.encoder.markup">Lavf60.3.100</property>
  <property name="kdenlive:original.meta.attr.comment.markup">Rendered with Manim Community v0.17.3</property>
  <property name="kdenlive:original.seekable">1</property>
  <property name="kdenlive:original.width">1920</property>
  <property name="kdenlive:original.height">1080</property>
  <property name="kdenlive:original.meta.media.sample_aspect_num">1</property>
  <property name="kdenlive:original.meta.media.sample_aspect_den">1</property>
  <property name="kdenlive:original.format">3</property>
  <property name="kdenlive:original.audio_index">-1</property>
  <property name="kdenlive:original.video_index">0</property>
  <property name="kdenlive:original.meta.media.frame_rate_num">60</property>
  <property name="kdenlive:original.meta.media.frame_rate_den">1</property>
  <property name="kdenlive:original.meta.media.colorspace">709</property>
  <property name="kdenlive:original.meta.media.color_trc">2</property>
  <property name="kdenlive:original.meta.media.has_b_frames">2</property>
  <property name="kdenlive:original.meta.media.width">1920</property>
  <property name="kdenlive:original.meta.media.height">1080</property>
  <property name="kdenlive:original.meta.media.color_range">mpeg</property>
  <property name="kdenlive:original.meta.media.top_field_first">0</property>
  <property name="kdenlive:original.meta.media.progressive">1</property>
  <property name="kdenlive:original.kdenlive:clip_type">2</property>
  <property name="kdenlive:original.kdenlive:folderid">16</property>
  <property name="kdenlive:original.kdenlive:id">117</property>
  <property name="kdenlive:original.mute_on_pause">0</property>
  <property name="kdenlive:original.kdenlive:file_size">311564</property>
  <property name="kdenlive:original.kdenlive:file_hash">912d6150576b358dc36e81bffc99f551</property>
  <property name="kdenlive:original.backup">1</property>
  <property name="meta.media.top_field_first">0</property>
  <property name="meta.media.progressive">1</property>
 </chain>
 <chain id="chain355" out="00:00:00.983">
  <property name="length">60</property>
  <property name="eof">pause</property>
  <property name="resource">/home/xiaoxiae/.cache/kdenlive/proxy/98b6b3d291b02dabf9fd1c5f3a5a688c.mkv</property>
  <property name="mlt_service">avformat-novalidate</property>
  <property name="meta.media.nb_streams">1</property>
  <property name="meta.media.0.stream.type">video</property>
  <property name="meta.media.0.stream.frame_rate">60</property>
  <property name="meta.media.0.stream.sample_aspect_ratio">0</property>
  <property name="meta.media.0.codec.width">640</property>
  <property name="meta.media.0.codec.height">360</property>
  <property name="meta.media.0.codec.rotate">0</property>
  <property name="meta.media.0.codec.pix_fmt">yuvj420p</property>
  <property name="meta.media.0.codec.sample_aspect_ratio">0</property>
  <property name="meta.media.0.codec.colorspace">601</property>
  <property name="meta.media.0.codec.name">mjpeg</property>
  <property name="meta.media.0.codec.long_name">MJPEG (Motion JPEG)</property>
  <property name="meta.media.0.codec.bit_rate">0</property>
  <property name="meta.attr.0.stream.HANDLER_NAME.markup">VideoHandler</property>
  <property name="meta.attr.0.stream.VENDOR_ID.markup">[0][0][0][0]</property>
  <property name="meta.attr.0.stream.ENCODER.markup">Lavc60.3.100 mjpeg</property>
  <property name="meta.attr.0.stream.DURATION.markup">00:00:01.000000000</property>
  <property name="meta.attr.COMMENT.markup">Rendered with Manim Community v0.17.3</property>
  <property name="meta.attr.MAJOR_BRAND.markup">isom</property>
  <property name="meta.attr.MINOR_VERSION.markup">512</property>
  <property name="meta.attr.COMPATIBLE_BRANDS.markup">isomiso2avc1mp41</property>
  <property name="meta.attr.ENCODER.markup">Lavf60.3.100</property>
  <property name="seekable">1</property>
  <property name="meta.media.sample_aspect_num">1</property>
  <property name="meta.media.sample_aspect_den">1</property>
  <property name="format">3</property>
  <property name="audio_index">-1</property>
  <property name="video_index">0</property>
  <property name="meta.media.frame_rate_num">60</property>
  <property name="meta.media.frame_rate_den">1</property>
  <property name="meta.media.colorspace">601</property>
  <property name="meta.media.color_trc">2</property>
  <property name="meta.media.has_b_frames">0</property>
  <property name="meta.media.width">640</property>
  <property name="meta.media.height">360</property>
  <property name="meta.media.color_range">full</property>
  <property name="kdenlive:clipname">45.mp4</property>
  <property name="kdenlive:clip_type">2</property>
  <property name="kdenlive:folderid">16</property>
  <property name="kdenlive:id">118</property>
  <property name="mute_on_pause">0</property>
  <property name="kdenlive:file_size">57412</property>
  <property name="kdenlive:file_hash">98b6b3d291b02dabf9fd1c5f3a5a688c</property>
  <property name="kdenlive:proxy">/home/xiaoxiae/.cache/kdenlive/proxy/98b6b3d291b02dabf9fd1c5f3a5a688c.mkv</property>
  <property name="kdenlive:originalurl">video/Farmer/45.mp4</property>
  <property name="kdenlive:original.mlt_type">chain</property>
  <property name="kdenlive:original.in">0</property>
  <property name="kdenlive:original.out">00:00:00.983</property>
  <property name="kdenlive:original.length">60</property>
  <property name="kdenlive:original.eof">pause</property>
  <property name="kdenlive:original.resource">video/Farmer/45.mp4</property>
  <property name="kdenlive:original.mlt_service">avformat-novalidate</property>
  <property name="kdenlive:original.meta.media.nb_streams">1</property>
  <property name="kdenlive:original.meta.media.0.stream.type">video</property>
  <property name="kdenlive:original.meta.media.0.stream.frame_rate">60</property>
  <property name="kdenlive:original.meta.media.0.stream.sample_aspect_ratio">0</property>
  <property name="kdenlive:original.meta.media.0.codec.width">1920</property>
  <property name="kdenlive:original.meta.media.0.codec.height">1080</property>
  <property name="kdenlive:original.meta.media.0.codec.rotate">0</property>
  <property name="kdenlive:original.meta.media.0.codec.pix_fmt">yuv420p</property>
  <property name="kdenlive:original.meta.media.0.codec.sample_aspect_ratio">0</property>
  <property name="kdenlive:original.meta.media.0.codec.colorspace">709</property>
  <property name="kdenlive:original.meta.media.0.codec.name">h264</property>
  <property name="kdenlive:original.meta.media.0.codec.long_name">H.264 / AVC / MPEG-4 AVC / MPEG-4 part 10</property>
  <property name="kdenlive:original.meta.media.0.codec.bit_rate">446240</property>
  <property name="kdenlive:original.meta.attr.0.stream.handler_name.markup">VideoHandler</property>
  <property name="kdenlive:original.meta.attr.0.stream.vendor_id.markup">[0][0][0][0]</property>
  <property name="kdenlive:original.meta.attr.0.stream.encoder.markup">Lavc60.3.100 libx264</property>
  <property name="kdenlive:original.meta.attr.major_brand.markup">isom</property>
  <property name="kdenlive:original.meta.attr.minor_version.markup">512</property>
  <property name="kdenlive:original.meta.attr.compatible_brands.markup">isomiso2avc1mp41</property>
  <property name="kdenlive:original.meta.attr.encoder.markup">Lavf60.3.100</property>
  <property name="kdenlive:original.meta.attr.comment.markup">Rendered with Manim Community v0.17.3</property>
  <property name="kdenlive:original.seekable">1</property>
  <property name="kdenlive:original.width">1920</property>
  <property name="kdenlive:original.height">1080</property>
  <property name="kdenlive:original.meta.media.sample_aspect_num">1</property>
  <property name="kdenlive:original.meta.media.sample_aspect_den">1</property>
  <property name="kdenlive:original.format">3</property>
  <property name="kdenlive:original.audio_index">-1</property>
  <property name="kdenlive:original.video_index">0</property>
  <property name="kdenlive:original.meta.media.frame_rate_num">60</property>
  <property name="kdenlive:original.meta.media.frame_rate_den">1</property>
  <property name="kdenlive:original.meta.media.colorspace">709</property>
  <property name="kdenlive:original.meta.media.color_trc">2</property>
  <property name="kdenlive:original.meta.media.has_b_frames">2</property>
  <property name="kdenlive:original.meta.media.width">1920</property>
  <property name="kdenlive:original.meta.media.height">1080</property>
  <property name="kdenlive:original.meta.media.color_range">mpeg</property>
  <property name="kdenlive:original.meta.media.top_field_first">0</property>
  <property name="kdenlive:original.meta.media.progressive">1</property>
  <property name="kdenlive:original.kdenlive:clip_type">2</property>
  <property name="kdenlive:original.kdenlive:folderid">16</property>
  <property name="kdenlive:original.kdenlive:id">118</property>
  <property name="kdenlive:original.mute_on_pause">0</property>
  <property name="kdenlive:original.kdenlive:file_size">57412</property>
  <property name="kdenlive:original.kdenlive:file_hash">98b6b3d291b02dabf9fd1c5f3a5a688c</property>
  <property name="kdenlive:original.backup">1</property>
  <property name="meta.media.top_field_first">0</property>
  <property name="meta.media.progressive">1</property>
 </chain>
 <chain id="chain360" out="00:00:04.983">
  <property name="length">300</property>
  <property name="eof">pause</property>
  <property name="resource">/home/xiaoxiae/.cache/kdenlive/proxy/3d399b6d214ef4aee2c4d4e20b6a701e.mkv</property>
  <property name="mlt_service">avformat-novalidate</property>
  <property name="meta.media.nb_streams">1</property>
  <property name="meta.media.0.stream.type">video</property>
  <property name="meta.media.0.stream.frame_rate">60</property>
  <property name="meta.media.0.stream.sample_aspect_ratio">0</property>
  <property name="meta.media.0.codec.width">640</property>
  <property name="meta.media.0.codec.height">360</property>
  <property name="meta.media.0.codec.rotate">0</property>
  <property name="meta.media.0.codec.pix_fmt">yuvj420p</property>
  <property name="meta.media.0.codec.sample_aspect_ratio">0</property>
  <property name="meta.media.0.codec.colorspace">601</property>
  <property name="meta.media.0.codec.name">mjpeg</property>
  <property name="meta.media.0.codec.long_name">MJPEG (Motion JPEG)</property>
  <property name="meta.media.0.codec.bit_rate">0</property>
  <property name="meta.attr.0.stream.HANDLER_NAME.markup">VideoHandler</property>
  <property name="meta.attr.0.stream.VENDOR_ID.markup">[0][0][0][0]</property>
  <property name="meta.attr.0.stream.ENCODER.markup">Lavc60.3.100 mjpeg</property>
  <property name="meta.attr.0.stream.DURATION.markup">00:00:05.000000000</property>
  <property name="meta.attr.COMMENT.markup">Rendered with Manim Community v0.17.3</property>
  <property name="meta.attr.MAJOR_BRAND.markup">isom</property>
  <property name="meta.attr.MINOR_VERSION.markup">512</property>
  <property name="meta.attr.COMPATIBLE_BRANDS.markup">isomiso2avc1mp41</property>
  <property name="meta.attr.ENCODER.markup">Lavf60.3.100</property>
  <property name="seekable">1</property>
  <property name="meta.media.sample_aspect_num">1</property>
  <property name="meta.media.sample_aspect_den">1</property>
  <property name="format">3</property>
  <property name="audio_index">-1</property>
  <property name="video_index">0</property>
  <property name="meta.media.frame_rate_num">60</property>
  <property name="meta.media.frame_rate_den">1</property>
  <property name="meta.media.colorspace">601</property>
  <property name="meta.media.color_trc">2</property>
  <property name="meta.media.has_b_frames">0</property>
  <property name="meta.media.width">640</property>
  <property name="meta.media.height">360</property>
  <property name="meta.media.color_range">full</property>
  <property name="kdenlive:clipname">46.mp4</property>
  <property name="kdenlive:clip_type">2</property>
  <property name="kdenlive:folderid">16</property>
  <property name="kdenlive:id">119</property>
  <property name="mute_on_pause">0</property>
  <property name="kdenlive:file_size">842145</property>
  <property name="kdenlive:file_hash">3d399b6d214ef4aee2c4d4e20b6a701e</property>
  <property name="kdenlive:proxy">/home/xiaoxiae/.cache/kdenlive/proxy/3d399b6d214ef4aee2c4d4e20b6a701e.mkv</property>
  <property name="kdenlive:originalurl">video/Farmer/46.mp4</property>
  <property name="kdenlive:original.mlt_type">chain</property>
  <property name="kdenlive:original.in">0</property>
  <property name="kdenlive:original.out">00:00:04.983</property>
  <property name="kdenlive:original.length">300</property>
  <property name="kdenlive:original.eof">pause</property>
  <property name="kdenlive:original.resource">video/Farmer/46.mp4</property>
  <property name="kdenlive:original.mlt_service">avformat-novalidate</property>
  <property name="kdenlive:original.meta.media.nb_streams">1</property>
  <property name="kdenlive:original.meta.media.0.stream.type">video</property>
  <property name="kdenlive:original.meta.media.0.stream.frame_rate">60</property>
  <property name="kdenlive:original.meta.media.0.stream.sample_aspect_ratio">0</property>
  <property name="kdenlive:original.meta.media.0.codec.width">1920</property>
  <property name="kdenlive:original.meta.media.0.codec.height">1080</property>
  <property name="kdenlive:original.meta.media.0.codec.rotate">0</property>
  <property name="kdenlive:original.meta.media.0.codec.pix_fmt">yuv420p</property>
  <property name="kdenlive:original.meta.media.0.codec.sample_aspect_ratio">0</property>
  <property name="kdenlive:original.meta.media.0.codec.colorspace">709</property>
  <property name="kdenlive:original.meta.media.0.codec.name">h264</property>
  <property name="kdenlive:original.meta.media.0.codec.long_name">H.264 / AVC / MPEG-4 AVC / MPEG-4 part 10</property>
  <property name="kdenlive:original.meta.media.0.codec.bit_rate">1341179</property>
  <property name="kdenlive:original.meta.attr.0.stream.handler_name.markup">VideoHandler</property>
  <property name="kdenlive:original.meta.attr.0.stream.vendor_id.markup">[0][0][0][0]</property>
  <property name="kdenlive:original.meta.attr.0.stream.encoder.markup">Lavc60.3.100 libx264</property>
  <property name="kdenlive:original.meta.attr.major_brand.markup">isom</property>
  <property name="kdenlive:original.meta.attr.minor_version.markup">512</property>
  <property name="kdenlive:original.meta.attr.compatible_brands.markup">isomiso2avc1mp41</property>
  <property name="kdenlive:original.meta.attr.encoder.markup">Lavf60.3.100</property>
  <property name="kdenlive:original.meta.attr.comment.markup">Rendered with Manim Community v0.17.3</property>
  <property name="kdenlive:original.seekable">1</property>
  <property name="kdenlive:original.width">1920</property>
  <property name="kdenlive:original.height">1080</property>
  <property name="kdenlive:original.meta.media.sample_aspect_num">1</property>
  <property name="kdenlive:original.meta.media.sample_aspect_den">1</property>
  <property name="kdenlive:original.format">3</property>
  <property name="kdenlive:original.audio_index">-1</property>
  <property name="kdenlive:original.video_index">0</property>
  <property name="kdenlive:original.meta.media.frame_rate_num">60</property>
  <property name="kdenlive:original.meta.media.frame_rate_den">1</property>
  <property name="kdenlive:original.meta.media.colorspace">709</property>
  <property name="kdenlive:original.meta.media.color_trc">2</property>
  <property name="kdenlive:original.meta.media.has_b_frames">2</property>
  <property name="kdenlive:original.meta.media.width">1920</property>
  <property name="kdenlive:original.meta.media.height">1080</property>
  <property name="kdenlive:original.meta.media.color_range">mpeg</property>
  <property name="kdenlive:original.meta.media.top_field_first">0</property>
  <property name="kdenlive:original.meta.media.progressive">1</property>
  <property name="kdenlive:original.kdenlive:clip_type">2</property>
  <property name="kdenlive:original.kdenlive:folderid">16</property>
  <property name="kdenlive:original.kdenlive:id">119</property>
  <property name="kdenlive:original.mute_on_pause">0</property>
  <property name="kdenlive:original.kdenlive:file_size">842145</property>
  <property name="kdenlive:original.kdenlive:file_hash">3d399b6d214ef4aee2c4d4e20b6a701e</property>
  <property name="kdenlive:original.backup">1</property>
  <property name="meta.media.top_field_first">0</property>
  <property name="meta.media.progressive">1</property>
 </chain>
 <chain id="chain352" out="00:00:00.983">
  <property name="length">60</property>
  <property name="eof">pause</property>
  <property name="resource">/home/xiaoxiae/.cache/kdenlive/proxy/e94a9c05b471b77fe33c793fced4ecd7.mkv</property>
  <property name="mlt_service">avformat-novalidate</property>
  <property name="meta.media.nb_streams">1</property>
  <property name="meta.media.0.stream.type">video</property>
  <property name="meta.media.0.stream.frame_rate">60</property>
  <property name="meta.media.0.stream.sample_aspect_ratio">0</property>
  <property name="meta.media.0.codec.width">640</property>
  <property name="meta.media.0.codec.height">360</property>
  <property name="meta.media.0.codec.rotate">0</property>
  <property name="meta.media.0.codec.pix_fmt">yuvj420p</property>
  <property name="meta.media.0.codec.sample_aspect_ratio">0</property>
  <property name="meta.media.0.codec.colorspace">601</property>
  <property name="meta.media.0.codec.name">mjpeg</property>
  <property name="meta.media.0.codec.long_name">MJPEG (Motion JPEG)</property>
  <property name="meta.media.0.codec.bit_rate">0</property>
  <property name="meta.attr.0.stream.HANDLER_NAME.markup">VideoHandler</property>
  <property name="meta.attr.0.stream.VENDOR_ID.markup">[0][0][0][0]</property>
  <property name="meta.attr.0.stream.ENCODER.markup">Lavc60.3.100 mjpeg</property>
  <property name="meta.attr.0.stream.DURATION.markup">00:00:01.000000000</property>
  <property name="meta.attr.COMMENT.markup">Rendered with Manim Community v0.17.3</property>
  <property name="meta.attr.MAJOR_BRAND.markup">isom</property>
  <property name="meta.attr.MINOR_VERSION.markup">512</property>
  <property name="meta.attr.COMPATIBLE_BRANDS.markup">isomiso2avc1mp41</property>
  <property name="meta.attr.ENCODER.markup">Lavf60.3.100</property>
  <property name="seekable">1</property>
  <property name="meta.media.sample_aspect_num">1</property>
  <property name="meta.media.sample_aspect_den">1</property>
  <property name="format">3</property>
  <property name="audio_index">-1</property>
  <property name="video_index">0</property>
  <property name="meta.media.frame_rate_num">60</property>
  <property name="meta.media.frame_rate_den">1</property>
  <property name="meta.media.colorspace">601</property>
  <property name="meta.media.color_trc">2</property>
  <property name="meta.media.has_b_frames">0</property>
  <property name="meta.media.width">640</property>
  <property name="meta.media.height">360</property>
  <property name="meta.media.color_range">full</property>
  <property name="kdenlive:clipname">47.mp4</property>
  <property name="kdenlive:clip_type">2</property>
  <property name="kdenlive:folderid">16</property>
  <property name="kdenlive:id">120</property>
  <property name="mute_on_pause">0</property>
  <property name="kdenlive:file_size">75484</property>
  <property name="kdenlive:file_hash">e94a9c05b471b77fe33c793fced4ecd7</property>
  <property name="kdenlive:proxy">/home/xiaoxiae/.cache/kdenlive/proxy/e94a9c05b471b77fe33c793fced4ecd7.mkv</property>
  <property name="kdenlive:originalurl">video/Farmer/47.mp4</property>
  <property name="kdenlive:original.mlt_type">chain</property>
  <property name="kdenlive:original.in">0</property>
  <property name="kdenlive:original.out">00:00:00.983</property>
  <property name="kdenlive:original.length">60</property>
  <property name="kdenlive:original.eof">pause</property>
  <property name="kdenlive:original.resource">video/Farmer/47.mp4</property>
  <property name="kdenlive:original.mlt_service">avformat-novalidate</property>
  <property name="kdenlive:original.meta.media.nb_streams">1</property>
  <property name="kdenlive:original.meta.media.0.stream.type">video</property>
  <property name="kdenlive:original.meta.media.0.stream.frame_rate">60</property>
  <property name="kdenlive:original.meta.media.0.stream.sample_aspect_ratio">0</property>
  <property name="kdenlive:original.meta.media.0.codec.width">1920</property>
  <property name="kdenlive:original.meta.media.0.codec.height">1080</property>
  <property name="kdenlive:original.meta.media.0.codec.rotate">0</property>
  <property name="kdenlive:original.meta.media.0.codec.pix_fmt">yuv420p</property>
  <property name="kdenlive:original.meta.media.0.codec.sample_aspect_ratio">0</property>
  <property name="kdenlive:original.meta.media.0.codec.colorspace">709</property>
  <property name="kdenlive:original.meta.media.0.codec.name">h264</property>
  <property name="kdenlive:original.meta.media.0.codec.long_name">H.264 / AVC / MPEG-4 AVC / MPEG-4 part 10</property>
  <property name="kdenlive:original.meta.media.0.codec.bit_rate">590816</property>
  <property name="kdenlive:original.meta.attr.0.stream.handler_name.markup">VideoHandler</property>
  <property name="kdenlive:original.meta.attr.0.stream.vendor_id.markup">[0][0][0][0]</property>
  <property name="kdenlive:original.meta.attr.0.stream.encoder.markup">Lavc60.3.100 libx264</property>
  <property name="kdenlive:original.meta.attr.major_brand.markup">isom</property>
  <property name="kdenlive:original.meta.attr.minor_version.markup">512</property>
  <property name="kdenlive:original.meta.attr.compatible_brands.markup">isomiso2avc1mp41</property>
  <property name="kdenlive:original.meta.attr.encoder.markup">Lavf60.3.100</property>
  <property name="kdenlive:original.meta.attr.comment.markup">Rendered with Manim Community v0.17.3</property>
  <property name="kdenlive:original.seekable">1</property>
  <property name="kdenlive:original.width">1920</property>
  <property name="kdenlive:original.height">1080</property>
  <property name="kdenlive:original.meta.media.sample_aspect_num">1</property>
  <property name="kdenlive:original.meta.media.sample_aspect_den">1</property>
  <property name="kdenlive:original.format">3</property>
  <property name="kdenlive:original.audio_index">-1</property>
  <property name="kdenlive:original.video_index">0</property>
  <property name="kdenlive:original.meta.media.frame_rate_num">60</property>
  <property name="kdenlive:original.meta.media.frame_rate_den">1</property>
  <property name="kdenlive:original.meta.media.colorspace">709</property>
  <property name="kdenlive:original.meta.media.color_trc">2</property>
  <property name="kdenlive:original.meta.media.has_b_frames">2</property>
  <property name="kdenlive:original.meta.media.width">1920</property>
  <property name="kdenlive:original.meta.media.height">1080</property>
  <property name="kdenlive:original.meta.media.color_range">mpeg</property>
  <property name="kdenlive:original.meta.media.top_field_first">0</property>
  <property name="kdenlive:original.meta.media.progressive">1</property>
  <property name="kdenlive:original.kdenlive:clip_type">2</property>
  <property name="kdenlive:original.kdenlive:folderid">16</property>
  <property name="kdenlive:original.kdenlive:id">120</property>
  <property name="kdenlive:original.mute_on_pause">0</property>
  <property name="kdenlive:original.kdenlive:file_size">75484</property>
  <property name="kdenlive:original.kdenlive:file_hash">e94a9c05b471b77fe33c793fced4ecd7</property>
  <property name="kdenlive:original.backup">1</property>
  <property name="meta.media.top_field_first">0</property>
  <property name="meta.media.progressive">1</property>
 </chain>
 <chain id="chain350" out="00:00:00.983">
  <property name="length">60</property>
  <property name="eof">pause</property>
  <property name="resource">/home/xiaoxiae/.cache/kdenlive/proxy/16274ee06cc87acfe005a60edf71936b.mkv</property>
  <property name="mlt_service">avformat-novalidate</property>
  <property name="meta.media.nb_streams">1</property>
  <property name="meta.media.0.stream.type">video</property>
  <property name="meta.media.0.stream.frame_rate">60</property>
  <property name="meta.media.0.stream.sample_aspect_ratio">0</property>
  <property name="meta.media.0.codec.width">640</property>
  <property name="meta.media.0.codec.height">360</property>
  <property name="meta.media.0.codec.rotate">0</property>
  <property name="meta.media.0.codec.pix_fmt">yuvj420p</property>
  <property name="meta.media.0.codec.sample_aspect_ratio">0</property>
  <property name="meta.media.0.codec.colorspace">601</property>
  <property name="meta.media.0.codec.name">mjpeg</property>
  <property name="meta.media.0.codec.long_name">MJPEG (Motion JPEG)</property>
  <property name="meta.media.0.codec.bit_rate">0</property>
  <property name="meta.attr.0.stream.HANDLER_NAME.markup">VideoHandler</property>
  <property name="meta.attr.0.stream.VENDOR_ID.markup">[0][0][0][0]</property>
  <property name="meta.attr.0.stream.ENCODER.markup">Lavc60.3.100 mjpeg</property>
  <property name="meta.attr.0.stream.DURATION.markup">00:00:01.000000000</property>
  <property name="meta.attr.COMMENT.markup">Rendered with Manim Community v0.17.3</property>
  <property name="meta.attr.MAJOR_BRAND.markup">isom</property>
  <property name="meta.attr.MINOR_VERSION.markup">512</property>
  <property name="meta.attr.COMPATIBLE_BRANDS.markup">isomiso2avc1mp41</property>
  <property name="meta.attr.ENCODER.markup">Lavf60.3.100</property>
  <property name="seekable">1</property>
  <property name="meta.media.sample_aspect_num">1</property>
  <property name="meta.media.sample_aspect_den">1</property>
  <property name="format">3</property>
  <property name="audio_index">-1</property>
  <property name="video_index">0</property>
  <property name="meta.media.frame_rate_num">60</property>
  <property name="meta.media.frame_rate_den">1</property>
  <property name="meta.media.colorspace">601</property>
  <property name="meta.media.color_trc">2</property>
  <property name="meta.media.has_b_frames">0</property>
  <property name="meta.media.width">640</property>
  <property name="meta.media.height">360</property>
  <property name="meta.media.color_range">full</property>
  <property name="kdenlive:clipname">48.mp4</property>
  <property name="kdenlive:clip_type">2</property>
  <property name="kdenlive:folderid">16</property>
  <property name="kdenlive:id">121</property>
  <property name="mute_on_pause">0</property>
  <property name="kdenlive:file_size">57832</property>
  <property name="kdenlive:file_hash">16274ee06cc87acfe005a60edf71936b</property>
  <property name="kdenlive:proxy">/home/xiaoxiae/.cache/kdenlive/proxy/16274ee06cc87acfe005a60edf71936b.mkv</property>
  <property name="kdenlive:originalurl">video/Farmer/48.mp4</property>
  <property name="kdenlive:original.mlt_type">chain</property>
  <property name="kdenlive:original.in">0</property>
  <property name="kdenlive:original.out">00:00:00.983</property>
  <property name="kdenlive:original.length">60</property>
  <property name="kdenlive:original.eof">pause</property>
  <property name="kdenlive:original.resource">video/Farmer/48.mp4</property>
  <property name="kdenlive:original.mlt_service">avformat-novalidate</property>
  <property name="kdenlive:original.meta.media.nb_streams">1</property>
  <property name="kdenlive:original.meta.media.0.stream.type">video</property>
  <property name="kdenlive:original.meta.media.0.stream.frame_rate">60</property>
  <property name="kdenlive:original.meta.media.0.stream.sample_aspect_ratio">0</property>
  <property name="kdenlive:original.meta.media.0.codec.width">1920</property>
  <property name="kdenlive:original.meta.media.0.codec.height">1080</property>
  <property name="kdenlive:original.meta.media.0.codec.rotate">0</property>
  <property name="kdenlive:original.meta.media.0.codec.pix_fmt">yuv420p</property>
  <property name="kdenlive:original.meta.media.0.codec.sample_aspect_ratio">0</property>
  <property name="kdenlive:original.meta.media.0.codec.colorspace">709</property>
  <property name="kdenlive:original.meta.media.0.codec.name">h264</property>
  <property name="kdenlive:original.meta.media.0.codec.long_name">H.264 / AVC / MPEG-4 AVC / MPEG-4 part 10</property>
  <property name="kdenlive:original.meta.media.0.codec.bit_rate">449600</property>
  <property name="kdenlive:original.meta.attr.0.stream.handler_name.markup">VideoHandler</property>
  <property name="kdenlive:original.meta.attr.0.stream.vendor_id.markup">[0][0][0][0]</property>
  <property name="kdenlive:original.meta.attr.0.stream.encoder.markup">Lavc60.3.100 libx264</property>
  <property name="kdenlive:original.meta.attr.major_brand.markup">isom</property>
  <property name="kdenlive:original.meta.attr.minor_version.markup">512</property>
  <property name="kdenlive:original.meta.attr.compatible_brands.markup">isomiso2avc1mp41</property>
  <property name="kdenlive:original.meta.attr.encoder.markup">Lavf60.3.100</property>
  <property name="kdenlive:original.meta.attr.comment.markup">Rendered with Manim Community v0.17.3</property>
  <property name="kdenlive:original.seekable">1</property>
  <property name="kdenlive:original.width">1920</property>
  <property name="kdenlive:original.height">1080</property>
  <property name="kdenlive:original.meta.media.sample_aspect_num">1</property>
  <property name="kdenlive:original.meta.media.sample_aspect_den">1</property>
  <property name="kdenlive:original.format">3</property>
  <property name="kdenlive:original.audio_index">-1</property>
  <property name="kdenlive:original.video_index">0</property>
  <property name="kdenlive:original.meta.media.frame_rate_num">60</property>
  <property name="kdenlive:original.meta.media.frame_rate_den">1</property>
  <property name="kdenlive:original.meta.media.colorspace">709</property>
  <property name="kdenlive:original.meta.media.color_trc">2</property>
  <property name="kdenlive:original.meta.media.has_b_frames">2</property>
  <property name="kdenlive:original.meta.media.width">1920</property>
  <property name="kdenlive:original.meta.media.height">1080</property>
  <property name="kdenlive:original.meta.media.color_range">mpeg</property>
  <property name="kdenlive:original.meta.media.top_field_first">0</property>
  <property name="kdenlive:original.meta.media.progressive">1</property>
  <property name="kdenlive:original.kdenlive:clip_type">2</property>
  <property name="kdenlive:original.kdenlive:folderid">16</property>
  <property name="kdenlive:original.kdenlive:id">121</property>
  <property name="kdenlive:original.mute_on_pause">0</property>
  <property name="kdenlive:original.kdenlive:file_size">57832</property>
  <property name="kdenlive:original.kdenlive:file_hash">16274ee06cc87acfe005a60edf71936b</property>
  <property name="kdenlive:original.backup">1</property>
  <property name="meta.media.top_field_first">0</property>
  <property name="meta.media.progressive">1</property>
 </chain>
 <chain id="chain351" out="00:00:01.983">
  <property name="length">120</property>
  <property name="eof">pause</property>
  <property name="resource">/home/xiaoxiae/.cache/kdenlive/proxy/7eed517f34963acb67a3fa7b37c03043.mkv</property>
  <property name="mlt_service">avformat-novalidate</property>
  <property name="meta.media.nb_streams">1</property>
  <property name="meta.media.0.stream.type">video</property>
  <property name="meta.media.0.stream.frame_rate">60</property>
  <property name="meta.media.0.stream.sample_aspect_ratio">0</property>
  <property name="meta.media.0.codec.width">640</property>
  <property name="meta.media.0.codec.height">360</property>
  <property name="meta.media.0.codec.rotate">0</property>
  <property name="meta.media.0.codec.pix_fmt">yuvj420p</property>
  <property name="meta.media.0.codec.sample_aspect_ratio">0</property>
  <property name="meta.media.0.codec.colorspace">601</property>
  <property name="meta.media.0.codec.name">mjpeg</property>
  <property name="meta.media.0.codec.long_name">MJPEG (Motion JPEG)</property>
  <property name="meta.media.0.codec.bit_rate">0</property>
  <property name="meta.attr.0.stream.HANDLER_NAME.markup">VideoHandler</property>
  <property name="meta.attr.0.stream.VENDOR_ID.markup">[0][0][0][0]</property>
  <property name="meta.attr.0.stream.ENCODER.markup">Lavc60.3.100 mjpeg</property>
  <property name="meta.attr.0.stream.DURATION.markup">00:00:02.000000000</property>
  <property name="meta.attr.COMMENT.markup">Rendered with Manim Community v0.17.3</property>
  <property name="meta.attr.MAJOR_BRAND.markup">isom</property>
  <property name="meta.attr.MINOR_VERSION.markup">512</property>
  <property name="meta.attr.COMPATIBLE_BRANDS.markup">isomiso2avc1mp41</property>
  <property name="meta.attr.ENCODER.markup">Lavf60.3.100</property>
  <property name="seekable">1</property>
  <property name="meta.media.sample_aspect_num">1</property>
  <property name="meta.media.sample_aspect_den">1</property>
  <property name="format">3</property>
  <property name="audio_index">-1</property>
  <property name="video_index">0</property>
  <property name="meta.media.frame_rate_num">60</property>
  <property name="meta.media.frame_rate_den">1</property>
  <property name="meta.media.colorspace">601</property>
  <property name="meta.media.color_trc">2</property>
  <property name="meta.media.has_b_frames">0</property>
  <property name="meta.media.width">640</property>
  <property name="meta.media.height">360</property>
  <property name="meta.media.color_range">full</property>
  <property name="kdenlive:clipname">49.mp4</property>
  <property name="kdenlive:clip_type">2</property>
  <property name="kdenlive:folderid">16</property>
  <property name="kdenlive:id">122</property>
  <property name="mute_on_pause">0</property>
  <property name="kdenlive:file_size">88870</property>
  <property name="kdenlive:file_hash">7eed517f34963acb67a3fa7b37c03043</property>
  <property name="kdenlive:proxy">/home/xiaoxiae/.cache/kdenlive/proxy/7eed517f34963acb67a3fa7b37c03043.mkv</property>
  <property name="kdenlive:originalurl">video/Farmer/49.mp4</property>
  <property name="kdenlive:original.mlt_type">chain</property>
  <property name="kdenlive:original.in">0</property>
  <property name="kdenlive:original.out">00:00:01.983</property>
  <property name="kdenlive:original.length">120</property>
  <property name="kdenlive:original.eof">pause</property>
  <property name="kdenlive:original.resource">video/Farmer/49.mp4</property>
  <property name="kdenlive:original.mlt_service">avformat-novalidate</property>
  <property name="kdenlive:original.meta.media.nb_streams">1</property>
  <property name="kdenlive:original.meta.media.0.stream.type">video</property>
  <property name="kdenlive:original.meta.media.0.stream.frame_rate">60</property>
  <property name="kdenlive:original.meta.media.0.stream.sample_aspect_ratio">0</property>
  <property name="kdenlive:original.meta.media.0.codec.width">1920</property>
  <property name="kdenlive:original.meta.media.0.codec.height">1080</property>
  <property name="kdenlive:original.meta.media.0.codec.rotate">0</property>
  <property name="kdenlive:original.meta.media.0.codec.pix_fmt">yuv420p</property>
  <property name="kdenlive:original.meta.media.0.codec.sample_aspect_ratio">0</property>
  <property name="kdenlive:original.meta.media.0.codec.colorspace">709</property>
  <property name="kdenlive:original.meta.media.0.codec.name">h264</property>
  <property name="kdenlive:original.meta.media.0.codec.long_name">H.264 / AVC / MPEG-4 AVC / MPEG-4 part 10</property>
  <property name="kdenlive:original.meta.media.0.codec.bit_rate">346200</property>
  <property name="kdenlive:original.meta.attr.0.stream.handler_name.markup">VideoHandler</property>
  <property name="kdenlive:original.meta.attr.0.stream.vendor_id.markup">[0][0][0][0]</property>
  <property name="kdenlive:original.meta.attr.0.stream.encoder.markup">Lavc60.3.100 libx264</property>
  <property name="kdenlive:original.meta.attr.major_brand.markup">isom</property>
  <property name="kdenlive:original.meta.attr.minor_version.markup">512</property>
  <property name="kdenlive:original.meta.attr.compatible_brands.markup">isomiso2avc1mp41</property>
  <property name="kdenlive:original.meta.attr.encoder.markup">Lavf60.3.100</property>
  <property name="kdenlive:original.meta.attr.comment.markup">Rendered with Manim Community v0.17.3</property>
  <property name="kdenlive:original.seekable">1</property>
  <property name="kdenlive:original.width">1920</property>
  <property name="kdenlive:original.height">1080</property>
  <property name="kdenlive:original.meta.media.sample_aspect_num">1</property>
  <property name="kdenlive:original.meta.media.sample_aspect_den">1</property>
  <property name="kdenlive:original.format">3</property>
  <property name="kdenlive:original.audio_index">-1</property>
  <property name="kdenlive:original.video_index">0</property>
  <property name="kdenlive:original.meta.media.frame_rate_num">60</property>
  <property name="kdenlive:original.meta.media.frame_rate_den">1</property>
  <property name="kdenlive:original.meta.media.colorspace">709</property>
  <property name="kdenlive:original.meta.media.color_trc">2</property>
  <property name="kdenlive:original.meta.media.has_b_frames">2</property>
  <property name="kdenlive:original.meta.media.width">1920</property>
  <property name="kdenlive:original.meta.media.height">1080</property>
  <property name="kdenlive:original.meta.media.color_range">mpeg</property>
  <property name="kdenlive:original.meta.media.top_field_first">0</property>
  <property name="kdenlive:original.meta.media.progressive">1</property>
  <property name="kdenlive:original.kdenlive:clip_type">2</property>
  <property name="kdenlive:original.kdenlive:folderid">16</property>
  <property name="kdenlive:original.kdenlive:id">122</property>
  <property name="kdenlive:original.mute_on_pause">0</property>
  <property name="kdenlive:original.kdenlive:file_size">88870</property>
  <property name="kdenlive:original.kdenlive:file_hash">7eed517f34963acb67a3fa7b37c03043</property>
  <property name="kdenlive:original.backup">1</property>
  <property name="meta.media.top_field_first">0</property>
  <property name="meta.media.progressive">1</property>
 </chain>
 <chain id="chain426" out="00:00:01.183">
  <property name="length">72</property>
  <property name="eof">pause</property>
  <property name="resource">/home/xiaoxiae/.cache/kdenlive/proxy/f377d91fedf209d3bab70b7dddca1197.mkv</property>
  <property name="mlt_service">avformat-novalidate</property>
  <property name="meta.media.nb_streams">1</property>
  <property name="meta.media.0.stream.type">video</property>
  <property name="meta.media.0.stream.frame_rate">60</property>
  <property name="meta.media.0.stream.sample_aspect_ratio">0</property>
  <property name="meta.media.0.codec.width">640</property>
  <property name="meta.media.0.codec.height">360</property>
  <property name="meta.media.0.codec.rotate">0</property>
  <property name="meta.media.0.codec.pix_fmt">yuvj420p</property>
  <property name="meta.media.0.codec.sample_aspect_ratio">0</property>
  <property name="meta.media.0.codec.colorspace">601</property>
  <property name="meta.media.0.codec.name">mjpeg</property>
  <property name="meta.media.0.codec.long_name">MJPEG (Motion JPEG)</property>
  <property name="meta.media.0.codec.bit_rate">0</property>
  <property name="meta.attr.0.stream.HANDLER_NAME.markup">VideoHandler</property>
  <property name="meta.attr.0.stream.VENDOR_ID.markup">[0][0][0][0]</property>
  <property name="meta.attr.0.stream.ENCODER.markup">Lavc60.3.100 mjpeg</property>
  <property name="meta.attr.0.stream.DURATION.markup">00:00:01.200000000</property>
  <property name="meta.attr.COMMENT.markup">Rendered with Manim Community v0.17.3</property>
  <property name="meta.attr.MAJOR_BRAND.markup">isom</property>
  <property name="meta.attr.MINOR_VERSION.markup">512</property>
  <property name="meta.attr.COMPATIBLE_BRANDS.markup">isomiso2avc1mp41</property>
  <property name="meta.attr.ENCODER.markup">Lavf60.3.100</property>
  <property name="seekable">1</property>
  <property name="meta.media.sample_aspect_num">1</property>
  <property name="meta.media.sample_aspect_den">1</property>
  <property name="format">3</property>
  <property name="audio_index">-1</property>
  <property name="video_index">0</property>
  <property name="meta.media.frame_rate_num">60</property>
  <property name="meta.media.frame_rate_den">1</property>
  <property name="meta.media.colorspace">601</property>
  <property name="meta.media.color_trc">2</property>
  <property name="meta.media.has_b_frames">0</property>
  <property name="meta.media.width">640</property>
  <property name="meta.media.height">360</property>
  <property name="meta.media.color_range">full</property>
  <property name="kdenlive:clipname">5.mp4</property>
  <property name="kdenlive:clip_type">2</property>
  <property name="kdenlive:folderid">16</property>
  <property name="kdenlive:id">123</property>
  <property name="mute_on_pause">0</property>
  <property name="kdenlive:file_size">105825</property>
  <property name="kdenlive:file_hash">f377d91fedf209d3bab70b7dddca1197</property>
  <property name="kdenlive:proxy">/home/xiaoxiae/.cache/kdenlive/proxy/f377d91fedf209d3bab70b7dddca1197.mkv</property>
  <property name="kdenlive:originalurl">video/Farmer/5.mp4</property>
  <property name="kdenlive:original.mlt_type">chain</property>
  <property name="kdenlive:original.in">0</property>
  <property name="kdenlive:original.out">00:00:01.183</property>
  <property name="kdenlive:original.length">72</property>
  <property name="kdenlive:original.eof">pause</property>
  <property name="kdenlive:original.resource">video/Farmer/5.mp4</property>
  <property name="kdenlive:original.mlt_service">avformat-novalidate</property>
  <property name="kdenlive:original.meta.media.nb_streams">1</property>
  <property name="kdenlive:original.meta.media.0.stream.type">video</property>
  <property name="kdenlive:original.meta.media.0.stream.frame_rate">60</property>
  <property name="kdenlive:original.meta.media.0.stream.sample_aspect_ratio">0</property>
  <property name="kdenlive:original.meta.media.0.codec.width">1920</property>
  <property name="kdenlive:original.meta.media.0.codec.height">1080</property>
  <property name="kdenlive:original.meta.media.0.codec.rotate">0</property>
  <property name="kdenlive:original.meta.media.0.codec.pix_fmt">yuv420p</property>
  <property name="kdenlive:original.meta.media.0.codec.sample_aspect_ratio">0</property>
  <property name="kdenlive:original.meta.media.0.codec.colorspace">709</property>
  <property name="kdenlive:original.meta.media.0.codec.name">h264</property>
  <property name="kdenlive:original.meta.media.0.codec.long_name">H.264 / AVC / MPEG-4 AVC / MPEG-4 part 10</property>
  <property name="kdenlive:original.meta.media.0.codec.bit_rate">693660</property>
  <property name="kdenlive:original.meta.attr.0.stream.handler_name.markup">VideoHandler</property>
  <property name="kdenlive:original.meta.attr.0.stream.vendor_id.markup">[0][0][0][0]</property>
  <property name="kdenlive:original.meta.attr.0.stream.encoder.markup">Lavc60.3.100 libx264</property>
  <property name="kdenlive:original.meta.attr.major_brand.markup">isom</property>
  <property name="kdenlive:original.meta.attr.minor_version.markup">512</property>
  <property name="kdenlive:original.meta.attr.compatible_brands.markup">isomiso2avc1mp41</property>
  <property name="kdenlive:original.meta.attr.encoder.markup">Lavf60.3.100</property>
  <property name="kdenlive:original.meta.attr.comment.markup">Rendered with Manim Community v0.17.3</property>
  <property name="kdenlive:original.seekable">1</property>
  <property name="kdenlive:original.width">1920</property>
  <property name="kdenlive:original.height">1080</property>
  <property name="kdenlive:original.meta.media.sample_aspect_num">1</property>
  <property name="kdenlive:original.meta.media.sample_aspect_den">1</property>
  <property name="kdenlive:original.format">3</property>
  <property name="kdenlive:original.audio_index">-1</property>
  <property name="kdenlive:original.video_index">0</property>
  <property name="kdenlive:original.meta.media.frame_rate_num">60</property>
  <property name="kdenlive:original.meta.media.frame_rate_den">1</property>
  <property name="kdenlive:original.meta.media.colorspace">709</property>
  <property name="kdenlive:original.meta.media.color_trc">2</property>
  <property name="kdenlive:original.meta.media.has_b_frames">2</property>
  <property name="kdenlive:original.meta.media.width">1920</property>
  <property name="kdenlive:original.meta.media.height">1080</property>
  <property name="kdenlive:original.meta.media.color_range">mpeg</property>
  <property name="kdenlive:original.meta.media.top_field_first">0</property>
  <property name="kdenlive:original.meta.media.progressive">1</property>
  <property name="kdenlive:original.kdenlive:clip_type">2</property>
  <property name="kdenlive:original.kdenlive:folderid">16</property>
  <property name="kdenlive:original.kdenlive:id">123</property>
  <property name="kdenlive:original.mute_on_pause">0</property>
  <property name="kdenlive:original.kdenlive:file_size">105825</property>
  <property name="kdenlive:original.kdenlive:file_hash">f377d91fedf209d3bab70b7dddca1197</property>
  <property name="kdenlive:original.backup">1</property>
  <property name="meta.media.top_field_first">0</property>
  <property name="meta.media.progressive">1</property>
 </chain>
 <chain id="chain349" out="00:00:01.483">
  <property name="length">90</property>
  <property name="eof">pause</property>
  <property name="resource">/home/xiaoxiae/.cache/kdenlive/proxy/21e706c35206326fd9610db2af1d64bc.mkv</property>
  <property name="mlt_service">avformat-novalidate</property>
  <property name="meta.media.nb_streams">1</property>
  <property name="meta.media.0.stream.type">video</property>
  <property name="meta.media.0.stream.frame_rate">60</property>
  <property name="meta.media.0.stream.sample_aspect_ratio">0</property>
  <property name="meta.media.0.codec.width">640</property>
  <property name="meta.media.0.codec.height">360</property>
  <property name="meta.media.0.codec.rotate">0</property>
  <property name="meta.media.0.codec.pix_fmt">yuvj420p</property>
  <property name="meta.media.0.codec.sample_aspect_ratio">0</property>
  <property name="meta.media.0.codec.colorspace">601</property>
  <property name="meta.media.0.codec.name">mjpeg</property>
  <property name="meta.media.0.codec.long_name">MJPEG (Motion JPEG)</property>
  <property name="meta.media.0.codec.bit_rate">0</property>
  <property name="meta.attr.0.stream.HANDLER_NAME.markup">VideoHandler</property>
  <property name="meta.attr.0.stream.VENDOR_ID.markup">[0][0][0][0]</property>
  <property name="meta.attr.0.stream.ENCODER.markup">Lavc60.3.100 mjpeg</property>
  <property name="meta.attr.0.stream.DURATION.markup">00:00:01.500000000</property>
  <property name="meta.attr.COMMENT.markup">Rendered with Manim Community v0.17.3</property>
  <property name="meta.attr.MAJOR_BRAND.markup">isom</property>
  <property name="meta.attr.MINOR_VERSION.markup">512</property>
  <property name="meta.attr.COMPATIBLE_BRANDS.markup">isomiso2avc1mp41</property>
  <property name="meta.attr.ENCODER.markup">Lavf60.3.100</property>
  <property name="seekable">1</property>
  <property name="meta.media.sample_aspect_num">1</property>
  <property name="meta.media.sample_aspect_den">1</property>
  <property name="format">3</property>
  <property name="audio_index">-1</property>
  <property name="video_index">0</property>
  <property name="meta.media.frame_rate_num">60</property>
  <property name="meta.media.frame_rate_den">1</property>
  <property name="meta.media.colorspace">601</property>
  <property name="meta.media.color_trc">2</property>
  <property name="meta.media.has_b_frames">0</property>
  <property name="meta.media.width">640</property>
  <property name="meta.media.height">360</property>
  <property name="meta.media.color_range">full</property>
  <property name="kdenlive:clipname">50.mp4</property>
  <property name="kdenlive:clip_type">2</property>
  <property name="kdenlive:folderid">16</property>
  <property name="kdenlive:id">124</property>
  <property name="mute_on_pause">0</property>
  <property name="kdenlive:file_size">170051</property>
  <property name="kdenlive:file_hash">21e706c35206326fd9610db2af1d64bc</property>
  <property name="kdenlive:proxy">/home/xiaoxiae/.cache/kdenlive/proxy/21e706c35206326fd9610db2af1d64bc.mkv</property>
  <property name="kdenlive:originalurl">video/Farmer/50.mp4</property>
  <property name="kdenlive:original.mlt_type">chain</property>
  <property name="kdenlive:original.in">0</property>
  <property name="kdenlive:original.out">00:00:01.483</property>
  <property name="kdenlive:original.length">90</property>
  <property name="kdenlive:original.eof">pause</property>
  <property name="kdenlive:original.resource">video/Farmer/50.mp4</property>
  <property name="kdenlive:original.mlt_service">avformat-novalidate</property>
  <property name="kdenlive:original.meta.media.nb_streams">1</property>
  <property name="kdenlive:original.meta.media.0.stream.type">video</property>
  <property name="kdenlive:original.meta.media.0.stream.frame_rate">60</property>
  <property name="kdenlive:original.meta.media.0.stream.sample_aspect_ratio">0</property>
  <property name="kdenlive:original.meta.media.0.codec.width">1920</property>
  <property name="kdenlive:original.meta.media.0.codec.height">1080</property>
  <property name="kdenlive:original.meta.media.0.codec.rotate">0</property>
  <property name="kdenlive:original.meta.media.0.codec.pix_fmt">yuv420p</property>
  <property name="kdenlive:original.meta.media.0.codec.sample_aspect_ratio">0</property>
  <property name="kdenlive:original.meta.media.0.codec.colorspace">709</property>
  <property name="kdenlive:original.meta.media.0.codec.name">h264</property>
  <property name="kdenlive:original.meta.media.0.codec.long_name">H.264 / AVC / MPEG-4 AVC / MPEG-4 part 10</property>
  <property name="kdenlive:original.meta.media.0.codec.bit_rate">896570</property>
  <property name="kdenlive:original.meta.attr.0.stream.handler_name.markup">VideoHandler</property>
  <property name="kdenlive:original.meta.attr.0.stream.vendor_id.markup">[0][0][0][0]</property>
  <property name="kdenlive:original.meta.attr.0.stream.encoder.markup">Lavc60.3.100 libx264</property>
  <property name="kdenlive:original.meta.attr.major_brand.markup">isom</property>
  <property name="kdenlive:original.meta.attr.minor_version.markup">512</property>
  <property name="kdenlive:original.meta.attr.compatible_brands.markup">isomiso2avc1mp41</property>
  <property name="kdenlive:original.meta.attr.encoder.markup">Lavf60.3.100</property>
  <property name="kdenlive:original.meta.attr.comment.markup">Rendered with Manim Community v0.17.3</property>
  <property name="kdenlive:original.seekable">1</property>
  <property name="kdenlive:original.width">1920</property>
  <property name="kdenlive:original.height">1080</property>
  <property name="kdenlive:original.meta.media.sample_aspect_num">1</property>
  <property name="kdenlive:original.meta.media.sample_aspect_den">1</property>
  <property name="kdenlive:original.format">3</property>
  <property name="kdenlive:original.audio_index">-1</property>
  <property name="kdenlive:original.video_index">0</property>
  <property name="kdenlive:original.meta.media.frame_rate_num">60</property>
  <property name="kdenlive:original.meta.media.frame_rate_den">1</property>
  <property name="kdenlive:original.meta.media.colorspace">709</property>
  <property name="kdenlive:original.meta.media.color_trc">2</property>
  <property name="kdenlive:original.meta.media.has_b_frames">2</property>
  <property name="kdenlive:original.meta.media.width">1920</property>
  <property name="kdenlive:original.meta.media.height">1080</property>
  <property name="kdenlive:original.meta.media.color_range">mpeg</property>
  <property name="kdenlive:original.meta.media.top_field_first">0</property>
  <property name="kdenlive:original.meta.media.progressive">1</property>
  <property name="kdenlive:original.kdenlive:clip_type">2</property>
  <property name="kdenlive:original.kdenlive:folderid">16</property>
  <property name="kdenlive:original.kdenlive:id">124</property>
  <property name="kdenlive:original.mute_on_pause">0</property>
  <property name="kdenlive:original.kdenlive:file_size">170051</property>
  <property name="kdenlive:original.kdenlive:file_hash">21e706c35206326fd9610db2af1d64bc</property>
  <property name="kdenlive:original.backup">1</property>
  <property name="meta.media.top_field_first">0</property>
  <property name="meta.media.progressive">1</property>
 </chain>
 <chain id="chain348" out="00:00:01.483">
  <property name="length">90</property>
  <property name="eof">pause</property>
  <property name="resource">/home/xiaoxiae/.cache/kdenlive/proxy/e4b6a64201aaa05b68f51c12e195d5a2.mkv</property>
  <property name="mlt_service">avformat-novalidate</property>
  <property name="meta.media.nb_streams">1</property>
  <property name="meta.media.0.stream.type">video</property>
  <property name="meta.media.0.stream.frame_rate">60</property>
  <property name="meta.media.0.stream.sample_aspect_ratio">0</property>
  <property name="meta.media.0.codec.width">640</property>
  <property name="meta.media.0.codec.height">360</property>
  <property name="meta.media.0.codec.rotate">0</property>
  <property name="meta.media.0.codec.pix_fmt">yuvj420p</property>
  <property name="meta.media.0.codec.sample_aspect_ratio">0</property>
  <property name="meta.media.0.codec.colorspace">601</property>
  <property name="meta.media.0.codec.name">mjpeg</property>
  <property name="meta.media.0.codec.long_name">MJPEG (Motion JPEG)</property>
  <property name="meta.media.0.codec.bit_rate">0</property>
  <property name="meta.attr.0.stream.HANDLER_NAME.markup">VideoHandler</property>
  <property name="meta.attr.0.stream.VENDOR_ID.markup">[0][0][0][0]</property>
  <property name="meta.attr.0.stream.ENCODER.markup">Lavc60.3.100 mjpeg</property>
  <property name="meta.attr.0.stream.DURATION.markup">00:00:01.500000000</property>
  <property name="meta.attr.COMMENT.markup">Rendered with Manim Community v0.17.3</property>
  <property name="meta.attr.MAJOR_BRAND.markup">isom</property>
  <property name="meta.attr.MINOR_VERSION.markup">512</property>
  <property name="meta.attr.COMPATIBLE_BRANDS.markup">isomiso2avc1mp41</property>
  <property name="meta.attr.ENCODER.markup">Lavf60.3.100</property>
  <property name="seekable">1</property>
  <property name="meta.media.sample_aspect_num">1</property>
  <property name="meta.media.sample_aspect_den">1</property>
  <property name="format">3</property>
  <property name="audio_index">-1</property>
  <property name="video_index">0</property>
  <property name="meta.media.frame_rate_num">60</property>
  <property name="meta.media.frame_rate_den">1</property>
  <property name="meta.media.colorspace">601</property>
  <property name="meta.media.color_trc">2</property>
  <property name="meta.media.has_b_frames">0</property>
  <property name="meta.media.width">640</property>
  <property name="meta.media.height">360</property>
  <property name="meta.media.color_range">full</property>
  <property name="kdenlive:clipname">51.mp4</property>
  <property name="kdenlive:clip_type">2</property>
  <property name="kdenlive:folderid">16</property>
  <property name="kdenlive:id">125</property>
  <property name="mute_on_pause">0</property>
  <property name="kdenlive:file_size">206711</property>
  <property name="kdenlive:file_hash">e4b6a64201aaa05b68f51c12e195d5a2</property>
  <property name="kdenlive:proxy">/home/xiaoxiae/.cache/kdenlive/proxy/e4b6a64201aaa05b68f51c12e195d5a2.mkv</property>
  <property name="kdenlive:originalurl">video/Farmer/51.mp4</property>
  <property name="kdenlive:original.mlt_type">chain</property>
  <property name="kdenlive:original.in">0</property>
  <property name="kdenlive:original.out">00:00:01.483</property>
  <property name="kdenlive:original.length">90</property>
  <property name="kdenlive:original.eof">pause</property>
  <property name="kdenlive:original.resource">video/Farmer/51.mp4</property>
  <property name="kdenlive:original.mlt_service">avformat-novalidate</property>
  <property name="kdenlive:original.meta.media.nb_streams">1</property>
  <property name="kdenlive:original.meta.media.0.stream.type">video</property>
  <property name="kdenlive:original.meta.media.0.stream.frame_rate">60</property>
  <property name="kdenlive:original.meta.media.0.stream.sample_aspect_ratio">0</property>
  <property name="kdenlive:original.meta.media.0.codec.width">1920</property>
  <property name="kdenlive:original.meta.media.0.codec.height">1080</property>
  <property name="kdenlive:original.meta.media.0.codec.rotate">0</property>
  <property name="kdenlive:original.meta.media.0.codec.pix_fmt">yuv420p</property>
  <property name="kdenlive:original.meta.media.0.codec.sample_aspect_ratio">0</property>
  <property name="kdenlive:original.meta.media.0.codec.colorspace">709</property>
  <property name="kdenlive:original.meta.media.0.codec.name">h264</property>
  <property name="kdenlive:original.meta.media.0.codec.long_name">H.264 / AVC / MPEG-4 AVC / MPEG-4 part 10</property>
  <property name="kdenlive:original.meta.media.0.codec.bit_rate">1091962</property>
  <property name="kdenlive:original.meta.attr.0.stream.handler_name.markup">VideoHandler</property>
  <property name="kdenlive:original.meta.attr.0.stream.vendor_id.markup">[0][0][0][0]</property>
  <property name="kdenlive:original.meta.attr.0.stream.encoder.markup">Lavc60.3.100 libx264</property>
  <property name="kdenlive:original.meta.attr.major_brand.markup">isom</property>
  <property name="kdenlive:original.meta.attr.minor_version.markup">512</property>
  <property name="kdenlive:original.meta.attr.compatible_brands.markup">isomiso2avc1mp41</property>
  <property name="kdenlive:original.meta.attr.encoder.markup">Lavf60.3.100</property>
  <property name="kdenlive:original.meta.attr.comment.markup">Rendered with Manim Community v0.17.3</property>
  <property name="kdenlive:original.seekable">1</property>
  <property name="kdenlive:original.width">1920</property>
  <property name="kdenlive:original.height">1080</property>
  <property name="kdenlive:original.meta.media.sample_aspect_num">1</property>
  <property name="kdenlive:original.meta.media.sample_aspect_den">1</property>
  <property name="kdenlive:original.format">3</property>
  <property name="kdenlive:original.audio_index">-1</property>
  <property name="kdenlive:original.video_index">0</property>
  <property name="kdenlive:original.meta.media.frame_rate_num">60</property>
  <property name="kdenlive:original.meta.media.frame_rate_den">1</property>
  <property name="kdenlive:original.meta.media.colorspace">709</property>
  <property name="kdenlive:original.meta.media.color_trc">2</property>
  <property name="kdenlive:original.meta.media.has_b_frames">2</property>
  <property name="kdenlive:original.meta.media.width">1920</property>
  <property name="kdenlive:original.meta.media.height">1080</property>
  <property name="kdenlive:original.meta.media.color_range">mpeg</property>
  <property name="kdenlive:original.meta.media.top_field_first">0</property>
  <property name="kdenlive:original.meta.media.progressive">1</property>
  <property name="kdenlive:original.kdenlive:clip_type">2</property>
  <property name="kdenlive:original.kdenlive:folderid">16</property>
  <property name="kdenlive:original.kdenlive:id">125</property>
  <property name="kdenlive:original.mute_on_pause">0</property>
  <property name="kdenlive:original.kdenlive:file_size">206711</property>
  <property name="kdenlive:original.kdenlive:file_hash">e4b6a64201aaa05b68f51c12e195d5a2</property>
  <property name="kdenlive:original.backup">1</property>
  <property name="meta.media.top_field_first">0</property>
  <property name="meta.media.progressive">1</property>
 </chain>
 <chain id="chain346" out="00:00:00.983">
  <property name="length">60</property>
  <property name="eof">pause</property>
  <property name="resource">/home/xiaoxiae/.cache/kdenlive/proxy/6196250ab9312a91f4eea7d372cc93c2.mkv</property>
  <property name="mlt_service">avformat-novalidate</property>
  <property name="meta.media.nb_streams">1</property>
  <property name="meta.media.0.stream.type">video</property>
  <property name="meta.media.0.stream.frame_rate">60</property>
  <property name="meta.media.0.stream.sample_aspect_ratio">0</property>
  <property name="meta.media.0.codec.width">640</property>
  <property name="meta.media.0.codec.height">360</property>
  <property name="meta.media.0.codec.rotate">0</property>
  <property name="meta.media.0.codec.pix_fmt">yuvj420p</property>
  <property name="meta.media.0.codec.sample_aspect_ratio">0</property>
  <property name="meta.media.0.codec.colorspace">601</property>
  <property name="meta.media.0.codec.name">mjpeg</property>
  <property name="meta.media.0.codec.long_name">MJPEG (Motion JPEG)</property>
  <property name="meta.media.0.codec.bit_rate">0</property>
  <property name="meta.attr.0.stream.HANDLER_NAME.markup">VideoHandler</property>
  <property name="meta.attr.0.stream.VENDOR_ID.markup">[0][0][0][0]</property>
  <property name="meta.attr.0.stream.ENCODER.markup">Lavc60.3.100 mjpeg</property>
  <property name="meta.attr.0.stream.DURATION.markup">00:00:01.000000000</property>
  <property name="meta.attr.COMMENT.markup">Rendered with Manim Community v0.17.3</property>
  <property name="meta.attr.MAJOR_BRAND.markup">isom</property>
  <property name="meta.attr.MINOR_VERSION.markup">512</property>
  <property name="meta.attr.COMPATIBLE_BRANDS.markup">isomiso2avc1mp41</property>
  <property name="meta.attr.ENCODER.markup">Lavf60.3.100</property>
  <property name="seekable">1</property>
  <property name="meta.media.sample_aspect_num">1</property>
  <property name="meta.media.sample_aspect_den">1</property>
  <property name="format">3</property>
  <property name="audio_index">-1</property>
  <property name="video_index">0</property>
  <property name="meta.media.frame_rate_num">60</property>
  <property name="meta.media.frame_rate_den">1</property>
  <property name="meta.media.colorspace">601</property>
  <property name="meta.media.color_trc">2</property>
  <property name="meta.media.has_b_frames">0</property>
  <property name="meta.media.width">640</property>
  <property name="meta.media.height">360</property>
  <property name="meta.media.color_range">full</property>
  <property name="kdenlive:clipname">52.mp4</property>
  <property name="kdenlive:clip_type">2</property>
  <property name="kdenlive:folderid">16</property>
  <property name="kdenlive:id">126</property>
  <property name="mute_on_pause">0</property>
  <property name="kdenlive:file_size">62552</property>
  <property name="kdenlive:file_hash">6196250ab9312a91f4eea7d372cc93c2</property>
  <property name="kdenlive:proxy">/home/xiaoxiae/.cache/kdenlive/proxy/6196250ab9312a91f4eea7d372cc93c2.mkv</property>
  <property name="kdenlive:originalurl">video/Farmer/52.mp4</property>
  <property name="kdenlive:original.mlt_type">chain</property>
  <property name="kdenlive:original.in">0</property>
  <property name="kdenlive:original.out">00:00:00.983</property>
  <property name="kdenlive:original.length">60</property>
  <property name="kdenlive:original.eof">pause</property>
  <property name="kdenlive:original.resource">video/Farmer/52.mp4</property>
  <property name="kdenlive:original.mlt_service">avformat-novalidate</property>
  <property name="kdenlive:original.meta.media.nb_streams">1</property>
  <property name="kdenlive:original.meta.media.0.stream.type">video</property>
  <property name="kdenlive:original.meta.media.0.stream.frame_rate">60</property>
  <property name="kdenlive:original.meta.media.0.stream.sample_aspect_ratio">0</property>
  <property name="kdenlive:original.meta.media.0.codec.width">1920</property>
  <property name="kdenlive:original.meta.media.0.codec.height">1080</property>
  <property name="kdenlive:original.meta.media.0.codec.rotate">0</property>
  <property name="kdenlive:original.meta.media.0.codec.pix_fmt">yuv420p</property>
  <property name="kdenlive:original.meta.media.0.codec.sample_aspect_ratio">0</property>
  <property name="kdenlive:original.meta.media.0.codec.colorspace">709</property>
  <property name="kdenlive:original.meta.media.0.codec.name">h264</property>
  <property name="kdenlive:original.meta.media.0.codec.long_name">H.264 / AVC / MPEG-4 AVC / MPEG-4 part 10</property>
  <property name="kdenlive:original.meta.media.0.codec.bit_rate">487360</property>
  <property name="kdenlive:original.meta.attr.0.stream.handler_name.markup">VideoHandler</property>
  <property name="kdenlive:original.meta.attr.0.stream.vendor_id.markup">[0][0][0][0]</property>
  <property name="kdenlive:original.meta.attr.0.stream.encoder.markup">Lavc60.3.100 libx264</property>
  <property name="kdenlive:original.meta.attr.major_brand.markup">isom</property>
  <property name="kdenlive:original.meta.attr.minor_version.markup">512</property>
  <property name="kdenlive:original.meta.attr.compatible_brands.markup">isomiso2avc1mp41</property>
  <property name="kdenlive:original.meta.attr.encoder.markup">Lavf60.3.100</property>
  <property name="kdenlive:original.meta.attr.comment.markup">Rendered with Manim Community v0.17.3</property>
  <property name="kdenlive:original.seekable">1</property>
  <property name="kdenlive:original.width">1920</property>
  <property name="kdenlive:original.height">1080</property>
  <property name="kdenlive:original.meta.media.sample_aspect_num">1</property>
  <property name="kdenlive:original.meta.media.sample_aspect_den">1</property>
  <property name="kdenlive:original.format">3</property>
  <property name="kdenlive:original.audio_index">-1</property>
  <property name="kdenlive:original.video_index">0</property>
  <property name="kdenlive:original.meta.media.frame_rate_num">60</property>
  <property name="kdenlive:original.meta.media.frame_rate_den">1</property>
  <property name="kdenlive:original.meta.media.colorspace">709</property>
  <property name="kdenlive:original.meta.media.color_trc">2</property>
  <property name="kdenlive:original.meta.media.has_b_frames">2</property>
  <property name="kdenlive:original.meta.media.width">1920</property>
  <property name="kdenlive:original.meta.media.height">1080</property>
  <property name="kdenlive:original.meta.media.color_range">mpeg</property>
  <property name="kdenlive:original.meta.media.top_field_first">0</property>
  <property name="kdenlive:original.meta.media.progressive">1</property>
  <property name="kdenlive:original.kdenlive:clip_type">2</property>
  <property name="kdenlive:original.kdenlive:folderid">16</property>
  <property name="kdenlive:original.kdenlive:id">126</property>
  <property name="kdenlive:original.mute_on_pause">0</property>
  <property name="kdenlive:original.kdenlive:file_size">62552</property>
  <property name="kdenlive:original.kdenlive:file_hash">6196250ab9312a91f4eea7d372cc93c2</property>
  <property name="kdenlive:original.backup">1</property>
  <property name="meta.media.top_field_first">0</property>
  <property name="meta.media.progressive">1</property>
 </chain>
 <chain id="chain345" out="00:00:00.983">
  <property name="length">60</property>
  <property name="eof">pause</property>
  <property name="resource">/home/xiaoxiae/.cache/kdenlive/proxy/35e434a6fdadd3411745218b63dc58f6.mkv</property>
  <property name="mlt_service">avformat-novalidate</property>
  <property name="meta.media.nb_streams">1</property>
  <property name="meta.media.0.stream.type">video</property>
  <property name="meta.media.0.stream.frame_rate">60</property>
  <property name="meta.media.0.stream.sample_aspect_ratio">0</property>
  <property name="meta.media.0.codec.width">640</property>
  <property name="meta.media.0.codec.height">360</property>
  <property name="meta.media.0.codec.rotate">0</property>
  <property name="meta.media.0.codec.pix_fmt">yuvj420p</property>
  <property name="meta.media.0.codec.sample_aspect_ratio">0</property>
  <property name="meta.media.0.codec.colorspace">601</property>
  <property name="meta.media.0.codec.name">mjpeg</property>
  <property name="meta.media.0.codec.long_name">MJPEG (Motion JPEG)</property>
  <property name="meta.media.0.codec.bit_rate">0</property>
  <property name="meta.attr.0.stream.HANDLER_NAME.markup">VideoHandler</property>
  <property name="meta.attr.0.stream.VENDOR_ID.markup">[0][0][0][0]</property>
  <property name="meta.attr.0.stream.ENCODER.markup">Lavc60.3.100 mjpeg</property>
  <property name="meta.attr.0.stream.DURATION.markup">00:00:01.000000000</property>
  <property name="meta.attr.COMMENT.markup">Rendered with Manim Community v0.17.3</property>
  <property name="meta.attr.MAJOR_BRAND.markup">isom</property>
  <property name="meta.attr.MINOR_VERSION.markup">512</property>
  <property name="meta.attr.COMPATIBLE_BRANDS.markup">isomiso2avc1mp41</property>
  <property name="meta.attr.ENCODER.markup">Lavf60.3.100</property>
  <property name="seekable">1</property>
  <property name="meta.media.sample_aspect_num">1</property>
  <property name="meta.media.sample_aspect_den">1</property>
  <property name="format">3</property>
  <property name="audio_index">-1</property>
  <property name="video_index">0</property>
  <property name="meta.media.frame_rate_num">60</property>
  <property name="meta.media.frame_rate_den">1</property>
  <property name="meta.media.colorspace">601</property>
  <property name="meta.media.color_trc">2</property>
  <property name="meta.media.has_b_frames">0</property>
  <property name="meta.media.width">640</property>
  <property name="meta.media.height">360</property>
  <property name="meta.media.color_range">full</property>
  <property name="kdenlive:clipname">53.mp4</property>
  <property name="kdenlive:clip_type">2</property>
  <property name="kdenlive:folderid">16</property>
  <property name="kdenlive:id">127</property>
  <property name="mute_on_pause">0</property>
  <property name="kdenlive:file_size">195661</property>
  <property name="kdenlive:file_hash">35e434a6fdadd3411745218b63dc58f6</property>
  <property name="kdenlive:proxy">/home/xiaoxiae/.cache/kdenlive/proxy/35e434a6fdadd3411745218b63dc58f6.mkv</property>
  <property name="kdenlive:originalurl">video/Farmer/53.mp4</property>
  <property name="kdenlive:original.mlt_type">chain</property>
  <property name="kdenlive:original.in">0</property>
  <property name="kdenlive:original.out">00:00:00.983</property>
  <property name="kdenlive:original.length">60</property>
  <property name="kdenlive:original.eof">pause</property>
  <property name="kdenlive:original.resource">video/Farmer/53.mp4</property>
  <property name="kdenlive:original.mlt_service">avformat-novalidate</property>
  <property name="kdenlive:original.meta.media.nb_streams">1</property>
  <property name="kdenlive:original.meta.media.0.stream.type">video</property>
  <property name="kdenlive:original.meta.media.0.stream.frame_rate">60</property>
  <property name="kdenlive:original.meta.media.0.stream.sample_aspect_ratio">0</property>
  <property name="kdenlive:original.meta.media.0.codec.width">1920</property>
  <property name="kdenlive:original.meta.media.0.codec.height">1080</property>
  <property name="kdenlive:original.meta.media.0.codec.rotate">0</property>
  <property name="kdenlive:original.meta.media.0.codec.pix_fmt">yuv420p</property>
  <property name="kdenlive:original.meta.media.0.codec.sample_aspect_ratio">0</property>
  <property name="kdenlive:original.meta.media.0.codec.colorspace">709</property>
  <property name="kdenlive:original.meta.media.0.codec.name">h264</property>
  <property name="kdenlive:original.meta.media.0.codec.long_name">H.264 / AVC / MPEG-4 AVC / MPEG-4 part 10</property>
  <property name="kdenlive:original.meta.media.0.codec.bit_rate">1553512</property>
  <property name="kdenlive:original.meta.attr.0.stream.handler_name.markup">VideoHandler</property>
  <property name="kdenlive:original.meta.attr.0.stream.vendor_id.markup">[0][0][0][0]</property>
  <property name="kdenlive:original.meta.attr.0.stream.encoder.markup">Lavc60.3.100 libx264</property>
  <property name="kdenlive:original.meta.attr.major_brand.markup">isom</property>
  <property name="kdenlive:original.meta.attr.minor_version.markup">512</property>
  <property name="kdenlive:original.meta.attr.compatible_brands.markup">isomiso2avc1mp41</property>
  <property name="kdenlive:original.meta.attr.encoder.markup">Lavf60.3.100</property>
  <property name="kdenlive:original.meta.attr.comment.markup">Rendered with Manim Community v0.17.3</property>
  <property name="kdenlive:original.seekable">1</property>
  <property name="kdenlive:original.width">1920</property>
  <property name="kdenlive:original.height">1080</property>
  <property name="kdenlive:original.meta.media.sample_aspect_num">1</property>
  <property name="kdenlive:original.meta.media.sample_aspect_den">1</property>
  <property name="kdenlive:original.format">3</property>
  <property name="kdenlive:original.audio_index">-1</property>
  <property name="kdenlive:original.video_index">0</property>
  <property name="kdenlive:original.meta.media.frame_rate_num">60</property>
  <property name="kdenlive:original.meta.media.frame_rate_den">1</property>
  <property name="kdenlive:original.meta.media.colorspace">709</property>
  <property name="kdenlive:original.meta.media.color_trc">2</property>
  <property name="kdenlive:original.meta.media.has_b_frames">2</property>
  <property name="kdenlive:original.meta.media.width">1920</property>
  <property name="kdenlive:original.meta.media.height">1080</property>
  <property name="kdenlive:original.meta.media.color_range">mpeg</property>
  <property name="kdenlive:original.meta.media.top_field_first">0</property>
  <property name="kdenlive:original.meta.media.progressive">1</property>
  <property name="kdenlive:original.kdenlive:clip_type">2</property>
  <property name="kdenlive:original.kdenlive:folderid">16</property>
  <property name="kdenlive:original.kdenlive:id">127</property>
  <property name="kdenlive:original.mute_on_pause">0</property>
  <property name="kdenlive:original.kdenlive:file_size">195661</property>
  <property name="kdenlive:original.kdenlive:file_hash">35e434a6fdadd3411745218b63dc58f6</property>
  <property name="kdenlive:original.backup">1</property>
  <property name="meta.media.top_field_first">0</property>
  <property name="meta.media.progressive">1</property>
 </chain>
 <chain id="chain342" out="00:00:00.983">
  <property name="length">60</property>
  <property name="eof">pause</property>
  <property name="resource">/home/xiaoxiae/.cache/kdenlive/proxy/8ec3af5f23381636bfe7c264a433d865.mkv</property>
  <property name="mlt_service">avformat-novalidate</property>
  <property name="meta.media.nb_streams">1</property>
  <property name="meta.media.0.stream.type">video</property>
  <property name="meta.media.0.stream.frame_rate">60</property>
  <property name="meta.media.0.stream.sample_aspect_ratio">0</property>
  <property name="meta.media.0.codec.width">640</property>
  <property name="meta.media.0.codec.height">360</property>
  <property name="meta.media.0.codec.rotate">0</property>
  <property name="meta.media.0.codec.pix_fmt">yuvj420p</property>
  <property name="meta.media.0.codec.sample_aspect_ratio">0</property>
  <property name="meta.media.0.codec.colorspace">601</property>
  <property name="meta.media.0.codec.name">mjpeg</property>
  <property name="meta.media.0.codec.long_name">MJPEG (Motion JPEG)</property>
  <property name="meta.media.0.codec.bit_rate">0</property>
  <property name="meta.attr.0.stream.HANDLER_NAME.markup">VideoHandler</property>
  <property name="meta.attr.0.stream.VENDOR_ID.markup">[0][0][0][0]</property>
  <property name="meta.attr.0.stream.ENCODER.markup">Lavc60.3.100 mjpeg</property>
  <property name="meta.attr.0.stream.DURATION.markup">00:00:01.000000000</property>
  <property name="meta.attr.COMMENT.markup">Rendered with Manim Community v0.17.3</property>
  <property name="meta.attr.MAJOR_BRAND.markup">isom</property>
  <property name="meta.attr.MINOR_VERSION.markup">512</property>
  <property name="meta.attr.COMPATIBLE_BRANDS.markup">isomiso2avc1mp41</property>
  <property name="meta.attr.ENCODER.markup">Lavf60.3.100</property>
  <property name="seekable">1</property>
  <property name="meta.media.sample_aspect_num">1</property>
  <property name="meta.media.sample_aspect_den">1</property>
  <property name="format">3</property>
  <property name="audio_index">-1</property>
  <property name="video_index">0</property>
  <property name="meta.media.frame_rate_num">60</property>
  <property name="meta.media.frame_rate_den">1</property>
  <property name="meta.media.colorspace">601</property>
  <property name="meta.media.color_trc">2</property>
  <property name="meta.media.has_b_frames">0</property>
  <property name="meta.media.width">640</property>
  <property name="meta.media.height">360</property>
  <property name="meta.media.color_range">full</property>
  <property name="kdenlive:clipname">54.mp4</property>
  <property name="kdenlive:clip_type">2</property>
  <property name="kdenlive:folderid">16</property>
  <property name="kdenlive:id">128</property>
  <property name="mute_on_pause">0</property>
  <property name="kdenlive:file_size">103714</property>
  <property name="kdenlive:file_hash">8ec3af5f23381636bfe7c264a433d865</property>
  <property name="kdenlive:proxy">/home/xiaoxiae/.cache/kdenlive/proxy/8ec3af5f23381636bfe7c264a433d865.mkv</property>
  <property name="kdenlive:originalurl">video/Farmer/54.mp4</property>
  <property name="kdenlive:original.mlt_type">chain</property>
  <property name="kdenlive:original.in">0</property>
  <property name="kdenlive:original.out">00:00:00.983</property>
  <property name="kdenlive:original.length">60</property>
  <property name="kdenlive:original.eof">pause</property>
  <property name="kdenlive:original.resource">video/Farmer/54.mp4</property>
  <property name="kdenlive:original.mlt_service">avformat-novalidate</property>
  <property name="kdenlive:original.meta.media.nb_streams">1</property>
  <property name="kdenlive:original.meta.media.0.stream.type">video</property>
  <property name="kdenlive:original.meta.media.0.stream.frame_rate">60</property>
  <property name="kdenlive:original.meta.media.0.stream.sample_aspect_ratio">0</property>
  <property name="kdenlive:original.meta.media.0.codec.width">1920</property>
  <property name="kdenlive:original.meta.media.0.codec.height">1080</property>
  <property name="kdenlive:original.meta.media.0.codec.rotate">0</property>
  <property name="kdenlive:original.meta.media.0.codec.pix_fmt">yuv420p</property>
  <property name="kdenlive:original.meta.media.0.codec.sample_aspect_ratio">0</property>
  <property name="kdenlive:original.meta.media.0.codec.colorspace">709</property>
  <property name="kdenlive:original.meta.media.0.codec.name">h264</property>
  <property name="kdenlive:original.meta.media.0.codec.long_name">H.264 / AVC / MPEG-4 AVC / MPEG-4 part 10</property>
  <property name="kdenlive:original.meta.media.0.codec.bit_rate">816592</property>
  <property name="kdenlive:original.meta.attr.0.stream.handler_name.markup">VideoHandler</property>
  <property name="kdenlive:original.meta.attr.0.stream.vendor_id.markup">[0][0][0][0]</property>
  <property name="kdenlive:original.meta.attr.0.stream.encoder.markup">Lavc60.3.100 libx264</property>
  <property name="kdenlive:original.meta.attr.major_brand.markup">isom</property>
  <property name="kdenlive:original.meta.attr.minor_version.markup">512</property>
  <property name="kdenlive:original.meta.attr.compatible_brands.markup">isomiso2avc1mp41</property>
  <property name="kdenlive:original.meta.attr.encoder.markup">Lavf60.3.100</property>
  <property name="kdenlive:original.meta.attr.comment.markup">Rendered with Manim Community v0.17.3</property>
  <property name="kdenlive:original.seekable">1</property>
  <property name="kdenlive:original.width">1920</property>
  <property name="kdenlive:original.height">1080</property>
  <property name="kdenlive:original.meta.media.sample_aspect_num">1</property>
  <property name="kdenlive:original.meta.media.sample_aspect_den">1</property>
  <property name="kdenlive:original.format">3</property>
  <property name="kdenlive:original.audio_index">-1</property>
  <property name="kdenlive:original.video_index">0</property>
  <property name="kdenlive:original.meta.media.frame_rate_num">60</property>
  <property name="kdenlive:original.meta.media.frame_rate_den">1</property>
  <property name="kdenlive:original.meta.media.colorspace">709</property>
  <property name="kdenlive:original.meta.media.color_trc">2</property>
  <property name="kdenlive:original.meta.media.has_b_frames">2</property>
  <property name="kdenlive:original.meta.media.width">1920</property>
  <property name="kdenlive:original.meta.media.height">1080</property>
  <property name="kdenlive:original.meta.media.color_range">mpeg</property>
  <property name="kdenlive:original.meta.media.top_field_first">0</property>
  <property name="kdenlive:original.meta.media.progressive">1</property>
  <property name="kdenlive:original.kdenlive:clip_type">2</property>
  <property name="kdenlive:original.kdenlive:folderid">16</property>
  <property name="kdenlive:original.kdenlive:id">128</property>
  <property name="kdenlive:original.mute_on_pause">0</property>
  <property name="kdenlive:original.kdenlive:file_size">103714</property>
  <property name="kdenlive:original.kdenlive:file_hash">8ec3af5f23381636bfe7c264a433d865</property>
  <property name="kdenlive:original.backup">1</property>
  <property name="meta.media.top_field_first">0</property>
  <property name="meta.media.progressive">1</property>
 </chain>
 <chain id="chain341" out="00:00:00.983">
  <property name="length">60</property>
  <property name="eof">pause</property>
  <property name="resource">/home/xiaoxiae/.cache/kdenlive/proxy/489f747733047d2bf65958280efe5468.mkv</property>
  <property name="mlt_service">avformat-novalidate</property>
  <property name="meta.media.nb_streams">1</property>
  <property name="meta.media.0.stream.type">video</property>
  <property name="meta.media.0.stream.frame_rate">60</property>
  <property name="meta.media.0.stream.sample_aspect_ratio">0</property>
  <property name="meta.media.0.codec.width">640</property>
  <property name="meta.media.0.codec.height">360</property>
  <property name="meta.media.0.codec.rotate">0</property>
  <property name="meta.media.0.codec.pix_fmt">yuvj420p</property>
  <property name="meta.media.0.codec.sample_aspect_ratio">0</property>
  <property name="meta.media.0.codec.colorspace">601</property>
  <property name="meta.media.0.codec.name">mjpeg</property>
  <property name="meta.media.0.codec.long_name">MJPEG (Motion JPEG)</property>
  <property name="meta.media.0.codec.bit_rate">0</property>
  <property name="meta.attr.0.stream.HANDLER_NAME.markup">VideoHandler</property>
  <property name="meta.attr.0.stream.VENDOR_ID.markup">[0][0][0][0]</property>
  <property name="meta.attr.0.stream.ENCODER.markup">Lavc60.3.100 mjpeg</property>
  <property name="meta.attr.0.stream.DURATION.markup">00:00:01.000000000</property>
  <property name="meta.attr.COMMENT.markup">Rendered with Manim Community v0.17.3</property>
  <property name="meta.attr.MAJOR_BRAND.markup">isom</property>
  <property name="meta.attr.MINOR_VERSION.markup">512</property>
  <property name="meta.attr.COMPATIBLE_BRANDS.markup">isomiso2avc1mp41</property>
  <property name="meta.attr.ENCODER.markup">Lavf60.3.100</property>
  <property name="seekable">1</property>
  <property name="meta.media.sample_aspect_num">1</property>
  <property name="meta.media.sample_aspect_den">1</property>
  <property name="format">3</property>
  <property name="audio_index">-1</property>
  <property name="video_index">0</property>
  <property name="meta.media.frame_rate_num">60</property>
  <property name="meta.media.frame_rate_den">1</property>
  <property name="meta.media.colorspace">601</property>
  <property name="meta.media.color_trc">2</property>
  <property name="meta.media.has_b_frames">0</property>
  <property name="meta.media.width">640</property>
  <property name="meta.media.height">360</property>
  <property name="meta.media.color_range">full</property>
  <property name="kdenlive:clipname">55.mp4</property>
  <property name="kdenlive:clip_type">2</property>
  <property name="kdenlive:folderid">16</property>
  <property name="kdenlive:id">129</property>
  <property name="mute_on_pause">0</property>
  <property name="kdenlive:file_size">55053</property>
  <property name="kdenlive:file_hash">489f747733047d2bf65958280efe5468</property>
  <property name="kdenlive:proxy">/home/xiaoxiae/.cache/kdenlive/proxy/489f747733047d2bf65958280efe5468.mkv</property>
  <property name="kdenlive:originalurl">video/Farmer/55.mp4</property>
  <property name="kdenlive:original.mlt_type">chain</property>
  <property name="kdenlive:original.in">0</property>
  <property name="kdenlive:original.out">00:00:00.983</property>
  <property name="kdenlive:original.length">60</property>
  <property name="kdenlive:original.eof">pause</property>
  <property name="kdenlive:original.resource">video/Farmer/55.mp4</property>
  <property name="kdenlive:original.mlt_service">avformat-novalidate</property>
  <property name="kdenlive:original.meta.media.nb_streams">1</property>
  <property name="kdenlive:original.meta.media.0.stream.type">video</property>
  <property name="kdenlive:original.meta.media.0.stream.frame_rate">60</property>
  <property name="kdenlive:original.meta.media.0.stream.sample_aspect_ratio">0</property>
  <property name="kdenlive:original.meta.media.0.codec.width">1920</property>
  <property name="kdenlive:original.meta.media.0.codec.height">1080</property>
  <property name="kdenlive:original.meta.media.0.codec.rotate">0</property>
  <property name="kdenlive:original.meta.media.0.codec.pix_fmt">yuv420p</property>
  <property name="kdenlive:original.meta.media.0.codec.sample_aspect_ratio">0</property>
  <property name="kdenlive:original.meta.media.0.codec.colorspace">709</property>
  <property name="kdenlive:original.meta.media.0.codec.name">h264</property>
  <property name="kdenlive:original.meta.media.0.codec.long_name">H.264 / AVC / MPEG-4 AVC / MPEG-4 part 10</property>
  <property name="kdenlive:original.meta.media.0.codec.bit_rate">427368</property>
  <property name="kdenlive:original.meta.attr.0.stream.handler_name.markup">VideoHandler</property>
  <property name="kdenlive:original.meta.attr.0.stream.vendor_id.markup">[0][0][0][0]</property>
  <property name="kdenlive:original.meta.attr.0.stream.encoder.markup">Lavc60.3.100 libx264</property>
  <property name="kdenlive:original.meta.attr.major_brand.markup">isom</property>
  <property name="kdenlive:original.meta.attr.minor_version.markup">512</property>
  <property name="kdenlive:original.meta.attr.compatible_brands.markup">isomiso2avc1mp41</property>
  <property name="kdenlive:original.meta.attr.encoder.markup">Lavf60.3.100</property>
  <property name="kdenlive:original.meta.attr.comment.markup">Rendered with Manim Community v0.17.3</property>
  <property name="kdenlive:original.seekable">1</property>
  <property name="kdenlive:original.width">1920</property>
  <property name="kdenlive:original.height">1080</property>
  <property name="kdenlive:original.meta.media.sample_aspect_num">1</property>
  <property name="kdenlive:original.meta.media.sample_aspect_den">1</property>
  <property name="kdenlive:original.format">3</property>
  <property name="kdenlive:original.audio_index">-1</property>
  <property name="kdenlive:original.video_index">0</property>
  <property name="kdenlive:original.meta.media.frame_rate_num">60</property>
  <property name="kdenlive:original.meta.media.frame_rate_den">1</property>
  <property name="kdenlive:original.meta.media.colorspace">709</property>
  <property name="kdenlive:original.meta.media.color_trc">2</property>
  <property name="kdenlive:original.meta.media.has_b_frames">2</property>
  <property name="kdenlive:original.meta.media.width">1920</property>
  <property name="kdenlive:original.meta.media.height">1080</property>
  <property name="kdenlive:original.meta.media.color_range">mpeg</property>
  <property name="kdenlive:original.meta.media.top_field_first">0</property>
  <property name="kdenlive:original.meta.media.progressive">1</property>
  <property name="kdenlive:original.kdenlive:clip_type">2</property>
  <property name="kdenlive:original.kdenlive:folderid">16</property>
  <property name="kdenlive:original.kdenlive:id">129</property>
  <property name="kdenlive:original.mute_on_pause">0</property>
  <property name="kdenlive:original.kdenlive:file_size">55053</property>
  <property name="kdenlive:original.kdenlive:file_hash">489f747733047d2bf65958280efe5468</property>
  <property name="kdenlive:original.backup">1</property>
  <property name="meta.media.top_field_first">0</property>
  <property name="meta.media.progressive">1</property>
 </chain>
 <chain id="chain338" out="00:00:00.983">
  <property name="length">60</property>
  <property name="eof">pause</property>
  <property name="resource">/home/xiaoxiae/.cache/kdenlive/proxy/89854be4689e3e2b28771487a79ab6f5.mkv</property>
  <property name="mlt_service">avformat-novalidate</property>
  <property name="meta.media.nb_streams">1</property>
  <property name="meta.media.0.stream.type">video</property>
  <property name="meta.media.0.stream.frame_rate">60</property>
  <property name="meta.media.0.stream.sample_aspect_ratio">0</property>
  <property name="meta.media.0.codec.width">640</property>
  <property name="meta.media.0.codec.height">360</property>
  <property name="meta.media.0.codec.rotate">0</property>
  <property name="meta.media.0.codec.pix_fmt">yuvj420p</property>
  <property name="meta.media.0.codec.sample_aspect_ratio">0</property>
  <property name="meta.media.0.codec.colorspace">601</property>
  <property name="meta.media.0.codec.name">mjpeg</property>
  <property name="meta.media.0.codec.long_name">MJPEG (Motion JPEG)</property>
  <property name="meta.media.0.codec.bit_rate">0</property>
  <property name="meta.attr.0.stream.HANDLER_NAME.markup">VideoHandler</property>
  <property name="meta.attr.0.stream.VENDOR_ID.markup">[0][0][0][0]</property>
  <property name="meta.attr.0.stream.ENCODER.markup">Lavc60.3.100 mjpeg</property>
  <property name="meta.attr.0.stream.DURATION.markup">00:00:01.000000000</property>
  <property name="meta.attr.COMMENT.markup">Rendered with Manim Community v0.17.3</property>
  <property name="meta.attr.MAJOR_BRAND.markup">isom</property>
  <property name="meta.attr.MINOR_VERSION.markup">512</property>
  <property name="meta.attr.COMPATIBLE_BRANDS.markup">isomiso2avc1mp41</property>
  <property name="meta.attr.ENCODER.markup">Lavf60.3.100</property>
  <property name="seekable">1</property>
  <property name="meta.media.sample_aspect_num">1</property>
  <property name="meta.media.sample_aspect_den">1</property>
  <property name="format">3</property>
  <property name="audio_index">-1</property>
  <property name="video_index">0</property>
  <property name="meta.media.frame_rate_num">60</property>
  <property name="meta.media.frame_rate_den">1</property>
  <property name="meta.media.colorspace">601</property>
  <property name="meta.media.color_trc">2</property>
  <property name="meta.media.has_b_frames">0</property>
  <property name="meta.media.width">640</property>
  <property name="meta.media.height">360</property>
  <property name="meta.media.color_range">full</property>
  <property name="kdenlive:clipname">56.mp4</property>
  <property name="kdenlive:clip_type">2</property>
  <property name="kdenlive:folderid">16</property>
  <property name="kdenlive:id">130</property>
  <property name="mute_on_pause">0</property>
  <property name="kdenlive:file_size">62057</property>
  <property name="kdenlive:file_hash">89854be4689e3e2b28771487a79ab6f5</property>
  <property name="kdenlive:proxy">/home/xiaoxiae/.cache/kdenlive/proxy/89854be4689e3e2b28771487a79ab6f5.mkv</property>
  <property name="kdenlive:originalurl">video/Farmer/56.mp4</property>
  <property name="kdenlive:original.mlt_type">chain</property>
  <property name="kdenlive:original.in">0</property>
  <property name="kdenlive:original.out">00:00:00.983</property>
  <property name="kdenlive:original.length">60</property>
  <property name="kdenlive:original.eof">pause</property>
  <property name="kdenlive:original.resource">video/Farmer/56.mp4</property>
  <property name="kdenlive:original.mlt_service">avformat-novalidate</property>
  <property name="kdenlive:original.meta.media.nb_streams">1</property>
  <property name="kdenlive:original.meta.media.0.stream.type">video</property>
  <property name="kdenlive:original.meta.media.0.stream.frame_rate">60</property>
  <property name="kdenlive:original.meta.media.0.stream.sample_aspect_ratio">0</property>
  <property name="kdenlive:original.meta.media.0.codec.width">1920</property>
  <property name="kdenlive:original.meta.media.0.codec.height">1080</property>
  <property name="kdenlive:original.meta.media.0.codec.rotate">0</property>
  <property name="kdenlive:original.meta.media.0.codec.pix_fmt">yuv420p</property>
  <property name="kdenlive:original.meta.media.0.codec.sample_aspect_ratio">0</property>
  <property name="kdenlive:original.meta.media.0.codec.colorspace">709</property>
  <property name="kdenlive:original.meta.media.0.codec.name">h264</property>
  <property name="kdenlive:original.meta.media.0.codec.long_name">H.264 / AVC / MPEG-4 AVC / MPEG-4 part 10</property>
  <property name="kdenlive:original.meta.media.0.codec.bit_rate">483464</property>
  <property name="kdenlive:original.meta.attr.0.stream.handler_name.markup">VideoHandler</property>
  <property name="kdenlive:original.meta.attr.0.stream.vendor_id.markup">[0][0][0][0]</property>
  <property name="kdenlive:original.meta.attr.0.stream.encoder.markup">Lavc60.3.100 libx264</property>
  <property name="kdenlive:original.meta.attr.major_brand.markup">isom</property>
  <property name="kdenlive:original.meta.attr.minor_version.markup">512</property>
  <property name="kdenlive:original.meta.attr.compatible_brands.markup">isomiso2avc1mp41</property>
  <property name="kdenlive:original.meta.attr.encoder.markup">Lavf60.3.100</property>
  <property name="kdenlive:original.meta.attr.comment.markup">Rendered with Manim Community v0.17.3</property>
  <property name="kdenlive:original.seekable">1</property>
  <property name="kdenlive:original.width">1920</property>
  <property name="kdenlive:original.height">1080</property>
  <property name="kdenlive:original.meta.media.sample_aspect_num">1</property>
  <property name="kdenlive:original.meta.media.sample_aspect_den">1</property>
  <property name="kdenlive:original.format">3</property>
  <property name="kdenlive:original.audio_index">-1</property>
  <property name="kdenlive:original.video_index">0</property>
  <property name="kdenlive:original.meta.media.frame_rate_num">60</property>
  <property name="kdenlive:original.meta.media.frame_rate_den">1</property>
  <property name="kdenlive:original.meta.media.colorspace">709</property>
  <property name="kdenlive:original.meta.media.color_trc">2</property>
  <property name="kdenlive:original.meta.media.has_b_frames">2</property>
  <property name="kdenlive:original.meta.media.width">1920</property>
  <property name="kdenlive:original.meta.media.height">1080</property>
  <property name="kdenlive:original.meta.media.color_range">mpeg</property>
  <property name="kdenlive:original.meta.media.top_field_first">0</property>
  <property name="kdenlive:original.meta.media.progressive">1</property>
  <property name="kdenlive:original.kdenlive:clip_type">2</property>
  <property name="kdenlive:original.kdenlive:folderid">16</property>
  <property name="kdenlive:original.kdenlive:id">130</property>
  <property name="kdenlive:original.mute_on_pause">0</property>
  <property name="kdenlive:original.kdenlive:file_size">62057</property>
  <property name="kdenlive:original.kdenlive:file_hash">89854be4689e3e2b28771487a79ab6f5</property>
  <property name="kdenlive:original.backup">1</property>
  <property name="meta.media.top_field_first">0</property>
  <property name="meta.media.progressive">1</property>
 </chain>
 <chain id="chain337" out="00:00:00.983">
  <property name="length">60</property>
  <property name="eof">pause</property>
  <property name="resource">/home/xiaoxiae/.cache/kdenlive/proxy/4c41ce6ab5d14ff5415ec739f06c80a8.mkv</property>
  <property name="mlt_service">avformat-novalidate</property>
  <property name="meta.media.nb_streams">1</property>
  <property name="meta.media.0.stream.type">video</property>
  <property name="meta.media.0.stream.frame_rate">60</property>
  <property name="meta.media.0.stream.sample_aspect_ratio">0</property>
  <property name="meta.media.0.codec.width">640</property>
  <property name="meta.media.0.codec.height">360</property>
  <property name="meta.media.0.codec.rotate">0</property>
  <property name="meta.media.0.codec.pix_fmt">yuvj420p</property>
  <property name="meta.media.0.codec.sample_aspect_ratio">0</property>
  <property name="meta.media.0.codec.colorspace">601</property>
  <property name="meta.media.0.codec.name">mjpeg</property>
  <property name="meta.media.0.codec.long_name">MJPEG (Motion JPEG)</property>
  <property name="meta.media.0.codec.bit_rate">0</property>
  <property name="meta.attr.0.stream.HANDLER_NAME.markup">VideoHandler</property>
  <property name="meta.attr.0.stream.VENDOR_ID.markup">[0][0][0][0]</property>
  <property name="meta.attr.0.stream.ENCODER.markup">Lavc60.3.100 mjpeg</property>
  <property name="meta.attr.0.stream.DURATION.markup">00:00:01.000000000</property>
  <property name="meta.attr.COMMENT.markup">Rendered with Manim Community v0.17.3</property>
  <property name="meta.attr.MAJOR_BRAND.markup">isom</property>
  <property name="meta.attr.MINOR_VERSION.markup">512</property>
  <property name="meta.attr.COMPATIBLE_BRANDS.markup">isomiso2avc1mp41</property>
  <property name="meta.attr.ENCODER.markup">Lavf60.3.100</property>
  <property name="seekable">1</property>
  <property name="meta.media.sample_aspect_num">1</property>
  <property name="meta.media.sample_aspect_den">1</property>
  <property name="format">3</property>
  <property name="audio_index">-1</property>
  <property name="video_index">0</property>
  <property name="meta.media.frame_rate_num">60</property>
  <property name="meta.media.frame_rate_den">1</property>
  <property name="meta.media.colorspace">601</property>
  <property name="meta.media.color_trc">2</property>
  <property name="meta.media.has_b_frames">0</property>
  <property name="meta.media.width">640</property>
  <property name="meta.media.height">360</property>
  <property name="meta.media.color_range">full</property>
  <property name="kdenlive:clipname">57.mp4</property>
  <property name="kdenlive:clip_type">2</property>
  <property name="kdenlive:folderid">16</property>
  <property name="kdenlive:id">131</property>
  <property name="mute_on_pause">0</property>
  <property name="kdenlive:file_size">53923</property>
  <property name="kdenlive:file_hash">4c41ce6ab5d14ff5415ec739f06c80a8</property>
  <property name="kdenlive:proxy">/home/xiaoxiae/.cache/kdenlive/proxy/4c41ce6ab5d14ff5415ec739f06c80a8.mkv</property>
  <property name="kdenlive:originalurl">video/Farmer/57.mp4</property>
  <property name="kdenlive:original.mlt_type">chain</property>
  <property name="kdenlive:original.in">0</property>
  <property name="kdenlive:original.out">00:00:00.983</property>
  <property name="kdenlive:original.length">60</property>
  <property name="kdenlive:original.eof">pause</property>
  <property name="kdenlive:original.resource">video/Farmer/57.mp4</property>
  <property name="kdenlive:original.mlt_service">avformat-novalidate</property>
  <property name="kdenlive:original.meta.media.nb_streams">1</property>
  <property name="kdenlive:original.meta.media.0.stream.type">video</property>
  <property name="kdenlive:original.meta.media.0.stream.frame_rate">60</property>
  <property name="kdenlive:original.meta.media.0.stream.sample_aspect_ratio">0</property>
  <property name="kdenlive:original.meta.media.0.codec.width">1920</property>
  <property name="kdenlive:original.meta.media.0.codec.height">1080</property>
  <property name="kdenlive:original.meta.media.0.codec.rotate">0</property>
  <property name="kdenlive:original.meta.media.0.codec.pix_fmt">yuv420p</property>
  <property name="kdenlive:original.meta.media.0.codec.sample_aspect_ratio">0</property>
  <property name="kdenlive:original.meta.media.0.codec.colorspace">709</property>
  <property name="kdenlive:original.meta.media.0.codec.name">h264</property>
  <property name="kdenlive:original.meta.media.0.codec.long_name">H.264 / AVC / MPEG-4 AVC / MPEG-4 part 10</property>
  <property name="kdenlive:original.meta.media.0.codec.bit_rate">418328</property>
  <property name="kdenlive:original.meta.attr.0.stream.handler_name.markup">VideoHandler</property>
  <property name="kdenlive:original.meta.attr.0.stream.vendor_id.markup">[0][0][0][0]</property>
  <property name="kdenlive:original.meta.attr.0.stream.encoder.markup">Lavc60.3.100 libx264</property>
  <property name="kdenlive:original.meta.attr.major_brand.markup">isom</property>
  <property name="kdenlive:original.meta.attr.minor_version.markup">512</property>
  <property name="kdenlive:original.meta.attr.compatible_brands.markup">isomiso2avc1mp41</property>
  <property name="kdenlive:original.meta.attr.encoder.markup">Lavf60.3.100</property>
  <property name="kdenlive:original.meta.attr.comment.markup">Rendered with Manim Community v0.17.3</property>
  <property name="kdenlive:original.seekable">1</property>
  <property name="kdenlive:original.width">1920</property>
  <property name="kdenlive:original.height">1080</property>
  <property name="kdenlive:original.meta.media.sample_aspect_num">1</property>
  <property name="kdenlive:original.meta.media.sample_aspect_den">1</property>
  <property name="kdenlive:original.format">3</property>
  <property name="kdenlive:original.audio_index">-1</property>
  <property name="kdenlive:original.video_index">0</property>
  <property name="kdenlive:original.meta.media.frame_rate_num">60</property>
  <property name="kdenlive:original.meta.media.frame_rate_den">1</property>
  <property name="kdenlive:original.meta.media.colorspace">709</property>
  <property name="kdenlive:original.meta.media.color_trc">2</property>
  <property name="kdenlive:original.meta.media.has_b_frames">2</property>
  <property name="kdenlive:original.meta.media.width">1920</property>
  <property name="kdenlive:original.meta.media.height">1080</property>
  <property name="kdenlive:original.meta.media.color_range">mpeg</property>
  <property name="kdenlive:original.meta.media.top_field_first">0</property>
  <property name="kdenlive:original.meta.media.progressive">1</property>
  <property name="kdenlive:original.kdenlive:clip_type">2</property>
  <property name="kdenlive:original.kdenlive:folderid">16</property>
  <property name="kdenlive:original.kdenlive:id">131</property>
  <property name="kdenlive:original.mute_on_pause">0</property>
  <property name="kdenlive:original.kdenlive:file_size">53923</property>
  <property name="kdenlive:original.kdenlive:file_hash">4c41ce6ab5d14ff5415ec739f06c80a8</property>
  <property name="kdenlive:original.backup">1</property>
  <property name="meta.media.top_field_first">0</property>
  <property name="meta.media.progressive">1</property>
 </chain>
 <chain id="chain335" out="00:00:00.983">
  <property name="length">60</property>
  <property name="eof">pause</property>
  <property name="resource">/home/xiaoxiae/.cache/kdenlive/proxy/8b3581fae25788224577ba41f61d2ee6.mkv</property>
  <property name="mlt_service">avformat-novalidate</property>
  <property name="meta.media.nb_streams">1</property>
  <property name="meta.media.0.stream.type">video</property>
  <property name="meta.media.0.stream.frame_rate">60</property>
  <property name="meta.media.0.stream.sample_aspect_ratio">0</property>
  <property name="meta.media.0.codec.width">640</property>
  <property name="meta.media.0.codec.height">360</property>
  <property name="meta.media.0.codec.rotate">0</property>
  <property name="meta.media.0.codec.pix_fmt">yuvj420p</property>
  <property name="meta.media.0.codec.sample_aspect_ratio">0</property>
  <property name="meta.media.0.codec.colorspace">601</property>
  <property name="meta.media.0.codec.name">mjpeg</property>
  <property name="meta.media.0.codec.long_name">MJPEG (Motion JPEG)</property>
  <property name="meta.media.0.codec.bit_rate">0</property>
  <property name="meta.attr.0.stream.HANDLER_NAME.markup">VideoHandler</property>
  <property name="meta.attr.0.stream.VENDOR_ID.markup">[0][0][0][0]</property>
  <property name="meta.attr.0.stream.ENCODER.markup">Lavc60.3.100 mjpeg</property>
  <property name="meta.attr.0.stream.DURATION.markup">00:00:01.000000000</property>
  <property name="meta.attr.COMMENT.markup">Rendered with Manim Community v0.17.3</property>
  <property name="meta.attr.MAJOR_BRAND.markup">isom</property>
  <property name="meta.attr.MINOR_VERSION.markup">512</property>
  <property name="meta.attr.COMPATIBLE_BRANDS.markup">isomiso2avc1mp41</property>
  <property name="meta.attr.ENCODER.markup">Lavf60.3.100</property>
  <property name="seekable">1</property>
  <property name="meta.media.sample_aspect_num">1</property>
  <property name="meta.media.sample_aspect_den">1</property>
  <property name="format">3</property>
  <property name="audio_index">-1</property>
  <property name="video_index">0</property>
  <property name="meta.media.frame_rate_num">60</property>
  <property name="meta.media.frame_rate_den">1</property>
  <property name="meta.media.colorspace">601</property>
  <property name="meta.media.color_trc">2</property>
  <property name="meta.media.has_b_frames">0</property>
  <property name="meta.media.width">640</property>
  <property name="meta.media.height">360</property>
  <property name="meta.media.color_range">full</property>
  <property name="kdenlive:clipname">58.mp4</property>
  <property name="kdenlive:clip_type">2</property>
  <property name="kdenlive:folderid">16</property>
  <property name="kdenlive:id">132</property>
  <property name="mute_on_pause">0</property>
  <property name="kdenlive:file_size">58943</property>
  <property name="kdenlive:file_hash">8b3581fae25788224577ba41f61d2ee6</property>
  <property name="kdenlive:proxy">/home/xiaoxiae/.cache/kdenlive/proxy/8b3581fae25788224577ba41f61d2ee6.mkv</property>
  <property name="kdenlive:originalurl">video/Farmer/58.mp4</property>
  <property name="kdenlive:original.mlt_type">chain</property>
  <property name="kdenlive:original.in">0</property>
  <property name="kdenlive:original.out">00:00:00.983</property>
  <property name="kdenlive:original.length">60</property>
  <property name="kdenlive:original.eof">pause</property>
  <property name="kdenlive:original.resource">video/Farmer/58.mp4</property>
  <property name="kdenlive:original.mlt_service">avformat-novalidate</property>
  <property name="kdenlive:original.meta.media.nb_streams">1</property>
  <property name="kdenlive:original.meta.media.0.stream.type">video</property>
  <property name="kdenlive:original.meta.media.0.stream.frame_rate">60</property>
  <property name="kdenlive:original.meta.media.0.stream.sample_aspect_ratio">0</property>
  <property name="kdenlive:original.meta.media.0.codec.width">1920</property>
  <property name="kdenlive:original.meta.media.0.codec.height">1080</property>
  <property name="kdenlive:original.meta.media.0.codec.rotate">0</property>
  <property name="kdenlive:original.meta.media.0.codec.pix_fmt">yuv420p</property>
  <property name="kdenlive:original.meta.media.0.codec.sample_aspect_ratio">0</property>
  <property name="kdenlive:original.meta.media.0.codec.colorspace">709</property>
  <property name="kdenlive:original.meta.media.0.codec.name">h264</property>
  <property name="kdenlive:original.meta.media.0.codec.long_name">H.264 / AVC / MPEG-4 AVC / MPEG-4 part 10</property>
  <property name="kdenlive:original.meta.media.0.codec.bit_rate">458488</property>
  <property name="kdenlive:original.meta.attr.0.stream.handler_name.markup">VideoHandler</property>
  <property name="kdenlive:original.meta.attr.0.stream.vendor_id.markup">[0][0][0][0]</property>
  <property name="kdenlive:original.meta.attr.0.stream.encoder.markup">Lavc60.3.100 libx264</property>
  <property name="kdenlive:original.meta.attr.major_brand.markup">isom</property>
  <property name="kdenlive:original.meta.attr.minor_version.markup">512</property>
  <property name="kdenlive:original.meta.attr.compatible_brands.markup">isomiso2avc1mp41</property>
  <property name="kdenlive:original.meta.attr.encoder.markup">Lavf60.3.100</property>
  <property name="kdenlive:original.meta.attr.comment.markup">Rendered with Manim Community v0.17.3</property>
  <property name="kdenlive:original.seekable">1</property>
  <property name="kdenlive:original.width">1920</property>
  <property name="kdenlive:original.height">1080</property>
  <property name="kdenlive:original.meta.media.sample_aspect_num">1</property>
  <property name="kdenlive:original.meta.media.sample_aspect_den">1</property>
  <property name="kdenlive:original.format">3</property>
  <property name="kdenlive:original.audio_index">-1</property>
  <property name="kdenlive:original.video_index">0</property>
  <property name="kdenlive:original.meta.media.frame_rate_num">60</property>
  <property name="kdenlive:original.meta.media.frame_rate_den">1</property>
  <property name="kdenlive:original.meta.media.colorspace">709</property>
  <property name="kdenlive:original.meta.media.color_trc">2</property>
  <property name="kdenlive:original.meta.media.has_b_frames">2</property>
  <property name="kdenlive:original.meta.media.width">1920</property>
  <property name="kdenlive:original.meta.media.height">1080</property>
  <property name="kdenlive:original.meta.media.color_range">mpeg</property>
  <property name="kdenlive:original.meta.media.top_field_first">0</property>
  <property name="kdenlive:original.meta.media.progressive">1</property>
  <property name="kdenlive:original.kdenlive:clip_type">2</property>
  <property name="kdenlive:original.kdenlive:folderid">16</property>
  <property name="kdenlive:original.kdenlive:id">132</property>
  <property name="kdenlive:original.mute_on_pause">0</property>
  <property name="kdenlive:original.kdenlive:file_size">58943</property>
  <property name="kdenlive:original.kdenlive:file_hash">8b3581fae25788224577ba41f61d2ee6</property>
  <property name="kdenlive:original.backup">1</property>
  <property name="meta.media.top_field_first">0</property>
  <property name="meta.media.progressive">1</property>
 </chain>
 <chain id="chain336" out="00:00:01.483">
  <property name="length">90</property>
  <property name="eof">pause</property>
  <property name="resource">/home/xiaoxiae/.cache/kdenlive/proxy/d68750ec8be900681673d7894cbfbb09.mkv</property>
  <property name="mlt_service">avformat-novalidate</property>
  <property name="meta.media.nb_streams">1</property>
  <property name="meta.media.0.stream.type">video</property>
  <property name="meta.media.0.stream.frame_rate">60</property>
  <property name="meta.media.0.stream.sample_aspect_ratio">0</property>
  <property name="meta.media.0.codec.width">640</property>
  <property name="meta.media.0.codec.height">360</property>
  <property name="meta.media.0.codec.rotate">0</property>
  <property name="meta.media.0.codec.pix_fmt">yuvj420p</property>
  <property name="meta.media.0.codec.sample_aspect_ratio">0</property>
  <property name="meta.media.0.codec.colorspace">601</property>
  <property name="meta.media.0.codec.name">mjpeg</property>
  <property name="meta.media.0.codec.long_name">MJPEG (Motion JPEG)</property>
  <property name="meta.media.0.codec.bit_rate">0</property>
  <property name="meta.attr.0.stream.HANDLER_NAME.markup">VideoHandler</property>
  <property name="meta.attr.0.stream.VENDOR_ID.markup">[0][0][0][0]</property>
  <property name="meta.attr.0.stream.ENCODER.markup">Lavc60.3.100 mjpeg</property>
  <property name="meta.attr.0.stream.DURATION.markup">00:00:01.500000000</property>
  <property name="meta.attr.COMMENT.markup">Rendered with Manim Community v0.17.3</property>
  <property name="meta.attr.MAJOR_BRAND.markup">isom</property>
  <property name="meta.attr.MINOR_VERSION.markup">512</property>
  <property name="meta.attr.COMPATIBLE_BRANDS.markup">isomiso2avc1mp41</property>
  <property name="meta.attr.ENCODER.markup">Lavf60.3.100</property>
  <property name="seekable">1</property>
  <property name="meta.media.sample_aspect_num">1</property>
  <property name="meta.media.sample_aspect_den">1</property>
  <property name="format">3</property>
  <property name="audio_index">-1</property>
  <property name="video_index">0</property>
  <property name="meta.media.frame_rate_num">60</property>
  <property name="meta.media.frame_rate_den">1</property>
  <property name="meta.media.colorspace">601</property>
  <property name="meta.media.color_trc">2</property>
  <property name="meta.media.has_b_frames">0</property>
  <property name="meta.media.width">640</property>
  <property name="meta.media.height">360</property>
  <property name="meta.media.color_range">full</property>
  <property name="kdenlive:clipname">59.mp4</property>
  <property name="kdenlive:clip_type">2</property>
  <property name="kdenlive:folderid">16</property>
  <property name="kdenlive:id">133</property>
  <property name="mute_on_pause">0</property>
  <property name="kdenlive:file_size">104196</property>
  <property name="kdenlive:file_hash">d68750ec8be900681673d7894cbfbb09</property>
  <property name="kdenlive:proxy">/home/xiaoxiae/.cache/kdenlive/proxy/d68750ec8be900681673d7894cbfbb09.mkv</property>
  <property name="kdenlive:originalurl">video/Farmer/59.mp4</property>
  <property name="kdenlive:original.mlt_type">chain</property>
  <property name="kdenlive:original.in">0</property>
  <property name="kdenlive:original.out">00:00:01.483</property>
  <property name="kdenlive:original.length">90</property>
  <property name="kdenlive:original.eof">pause</property>
  <property name="kdenlive:original.resource">video/Farmer/59.mp4</property>
  <property name="kdenlive:original.mlt_service">avformat-novalidate</property>
  <property name="kdenlive:original.meta.media.nb_streams">1</property>
  <property name="kdenlive:original.meta.media.0.stream.type">video</property>
  <property name="kdenlive:original.meta.media.0.stream.frame_rate">60</property>
  <property name="kdenlive:original.meta.media.0.stream.sample_aspect_ratio">0</property>
  <property name="kdenlive:original.meta.media.0.codec.width">1920</property>
  <property name="kdenlive:original.meta.media.0.codec.height">1080</property>
  <property name="kdenlive:original.meta.media.0.codec.rotate">0</property>
  <property name="kdenlive:original.meta.media.0.codec.pix_fmt">yuv420p</property>
  <property name="kdenlive:original.meta.media.0.codec.sample_aspect_ratio">0</property>
  <property name="kdenlive:original.meta.media.0.codec.colorspace">709</property>
  <property name="kdenlive:original.meta.media.0.codec.name">h264</property>
  <property name="kdenlive:original.meta.media.0.codec.long_name">H.264 / AVC / MPEG-4 AVC / MPEG-4 part 10</property>
  <property name="kdenlive:original.meta.media.0.codec.bit_rate">545173</property>
  <property name="kdenlive:original.meta.attr.0.stream.handler_name.markup">VideoHandler</property>
  <property name="kdenlive:original.meta.attr.0.stream.vendor_id.markup">[0][0][0][0]</property>
  <property name="kdenlive:original.meta.attr.0.stream.encoder.markup">Lavc60.3.100 libx264</property>
  <property name="kdenlive:original.meta.attr.major_brand.markup">isom</property>
  <property name="kdenlive:original.meta.attr.minor_version.markup">512</property>
  <property name="kdenlive:original.meta.attr.compatible_brands.markup">isomiso2avc1mp41</property>
  <property name="kdenlive:original.meta.attr.encoder.markup">Lavf60.3.100</property>
  <property name="kdenlive:original.meta.attr.comment.markup">Rendered with Manim Community v0.17.3</property>
  <property name="kdenlive:original.seekable">1</property>
  <property name="kdenlive:original.width">1920</property>
  <property name="kdenlive:original.height">1080</property>
  <property name="kdenlive:original.meta.media.sample_aspect_num">1</property>
  <property name="kdenlive:original.meta.media.sample_aspect_den">1</property>
  <property name="kdenlive:original.format">3</property>
  <property name="kdenlive:original.audio_index">-1</property>
  <property name="kdenlive:original.video_index">0</property>
  <property name="kdenlive:original.meta.media.frame_rate_num">60</property>
  <property name="kdenlive:original.meta.media.frame_rate_den">1</property>
  <property name="kdenlive:original.meta.media.colorspace">709</property>
  <property name="kdenlive:original.meta.media.color_trc">2</property>
  <property name="kdenlive:original.meta.media.has_b_frames">2</property>
  <property name="kdenlive:original.meta.media.width">1920</property>
  <property name="kdenlive:original.meta.media.height">1080</property>
  <property name="kdenlive:original.meta.media.color_range">mpeg</property>
  <property name="kdenlive:original.meta.media.top_field_first">0</property>
  <property name="kdenlive:original.meta.media.progressive">1</property>
  <property name="kdenlive:original.kdenlive:clip_type">2</property>
  <property name="kdenlive:original.kdenlive:folderid">16</property>
  <property name="kdenlive:original.kdenlive:id">133</property>
  <property name="kdenlive:original.mute_on_pause">0</property>
  <property name="kdenlive:original.kdenlive:file_size">104196</property>
  <property name="kdenlive:original.kdenlive:file_hash">d68750ec8be900681673d7894cbfbb09</property>
  <property name="kdenlive:original.backup">1</property>
  <property name="meta.media.top_field_first">0</property>
  <property name="meta.media.progressive">1</property>
 </chain>
 <chain id="chain421" out="00:00:00.983">
  <property name="length">60</property>
  <property name="eof">pause</property>
  <property name="resource">/home/xiaoxiae/.cache/kdenlive/proxy/c77592a9185844ce835284f460ac45b0.mkv</property>
  <property name="mlt_service">avformat-novalidate</property>
  <property name="meta.media.nb_streams">1</property>
  <property name="meta.media.0.stream.type">video</property>
  <property name="meta.media.0.stream.frame_rate">60</property>
  <property name="meta.media.0.stream.sample_aspect_ratio">0</property>
  <property name="meta.media.0.codec.width">640</property>
  <property name="meta.media.0.codec.height">360</property>
  <property name="meta.media.0.codec.rotate">0</property>
  <property name="meta.media.0.codec.pix_fmt">yuvj420p</property>
  <property name="meta.media.0.codec.sample_aspect_ratio">0</property>
  <property name="meta.media.0.codec.colorspace">601</property>
  <property name="meta.media.0.codec.name">mjpeg</property>
  <property name="meta.media.0.codec.long_name">MJPEG (Motion JPEG)</property>
  <property name="meta.media.0.codec.bit_rate">0</property>
  <property name="meta.attr.0.stream.HANDLER_NAME.markup">VideoHandler</property>
  <property name="meta.attr.0.stream.VENDOR_ID.markup">[0][0][0][0]</property>
  <property name="meta.attr.0.stream.ENCODER.markup">Lavc60.3.100 mjpeg</property>
  <property name="meta.attr.0.stream.DURATION.markup">00:00:01.000000000</property>
  <property name="meta.attr.COMMENT.markup">Rendered with Manim Community v0.17.3</property>
  <property name="meta.attr.MAJOR_BRAND.markup">isom</property>
  <property name="meta.attr.MINOR_VERSION.markup">512</property>
  <property name="meta.attr.COMPATIBLE_BRANDS.markup">isomiso2avc1mp41</property>
  <property name="meta.attr.ENCODER.markup">Lavf60.3.100</property>
  <property name="seekable">1</property>
  <property name="meta.media.sample_aspect_num">1</property>
  <property name="meta.media.sample_aspect_den">1</property>
  <property name="format">3</property>
  <property name="audio_index">-1</property>
  <property name="video_index">0</property>
  <property name="meta.media.frame_rate_num">60</property>
  <property name="meta.media.frame_rate_den">1</property>
  <property name="meta.media.colorspace">601</property>
  <property name="meta.media.color_trc">2</property>
  <property name="meta.media.has_b_frames">0</property>
  <property name="meta.media.width">640</property>
  <property name="meta.media.height">360</property>
  <property name="meta.media.color_range">full</property>
  <property name="kdenlive:clipname">6.mp4</property>
  <property name="kdenlive:clip_type">2</property>
  <property name="kdenlive:folderid">16</property>
  <property name="kdenlive:id">134</property>
  <property name="mute_on_pause">0</property>
  <property name="kdenlive:file_size">112351</property>
  <property name="kdenlive:file_hash">c77592a9185844ce835284f460ac45b0</property>
  <property name="kdenlive:proxy">/home/xiaoxiae/.cache/kdenlive/proxy/c77592a9185844ce835284f460ac45b0.mkv</property>
  <property name="kdenlive:originalurl">video/Farmer/6.mp4</property>
  <property name="kdenlive:original.mlt_type">chain</property>
  <property name="kdenlive:original.in">0</property>
  <property name="kdenlive:original.out">00:00:00.983</property>
  <property name="kdenlive:original.length">60</property>
  <property name="kdenlive:original.eof">pause</property>
  <property name="kdenlive:original.resource">video/Farmer/6.mp4</property>
  <property name="kdenlive:original.mlt_service">avformat-novalidate</property>
  <property name="kdenlive:original.meta.media.nb_streams">1</property>
  <property name="kdenlive:original.meta.media.0.stream.type">video</property>
  <property name="kdenlive:original.meta.media.0.stream.frame_rate">60</property>
  <property name="kdenlive:original.meta.media.0.stream.sample_aspect_ratio">0</property>
  <property name="kdenlive:original.meta.media.0.codec.width">1920</property>
  <property name="kdenlive:original.meta.media.0.codec.height">1080</property>
  <property name="kdenlive:original.meta.media.0.codec.rotate">0</property>
  <property name="kdenlive:original.meta.media.0.codec.pix_fmt">yuv420p</property>
  <property name="kdenlive:original.meta.media.0.codec.sample_aspect_ratio">0</property>
  <property name="kdenlive:original.meta.media.0.codec.colorspace">709</property>
  <property name="kdenlive:original.meta.media.0.codec.name">h264</property>
  <property name="kdenlive:original.meta.media.0.codec.long_name">H.264 / AVC / MPEG-4 AVC / MPEG-4 part 10</property>
  <property name="kdenlive:original.meta.media.0.codec.bit_rate">885752</property>
  <property name="kdenlive:original.meta.attr.0.stream.handler_name.markup">VideoHandler</property>
  <property name="kdenlive:original.meta.attr.0.stream.vendor_id.markup">[0][0][0][0]</property>
  <property name="kdenlive:original.meta.attr.0.stream.encoder.markup">Lavc60.3.100 libx264</property>
  <property name="kdenlive:original.meta.attr.major_brand.markup">isom</property>
  <property name="kdenlive:original.meta.attr.minor_version.markup">512</property>
  <property name="kdenlive:original.meta.attr.compatible_brands.markup">isomiso2avc1mp41</property>
  <property name="kdenlive:original.meta.attr.encoder.markup">Lavf60.3.100</property>
  <property name="kdenlive:original.meta.attr.comment.markup">Rendered with Manim Community v0.17.3</property>
  <property name="kdenlive:original.seekable">1</property>
  <property name="kdenlive:original.width">1920</property>
  <property name="kdenlive:original.height">1080</property>
  <property name="kdenlive:original.meta.media.sample_aspect_num">1</property>
  <property name="kdenlive:original.meta.media.sample_aspect_den">1</property>
  <property name="kdenlive:original.format">3</property>
  <property name="kdenlive:original.audio_index">-1</property>
  <property name="kdenlive:original.video_index">0</property>
  <property name="kdenlive:original.meta.media.frame_rate_num">60</property>
  <property name="kdenlive:original.meta.media.frame_rate_den">1</property>
  <property name="kdenlive:original.meta.media.colorspace">709</property>
  <property name="kdenlive:original.meta.media.color_trc">2</property>
  <property name="kdenlive:original.meta.media.has_b_frames">2</property>
  <property name="kdenlive:original.meta.media.width">1920</property>
  <property name="kdenlive:original.meta.media.height">1080</property>
  <property name="kdenlive:original.meta.media.color_range">mpeg</property>
  <property name="kdenlive:original.meta.media.top_field_first">0</property>
  <property name="kdenlive:original.meta.media.progressive">1</property>
  <property name="kdenlive:original.kdenlive:clip_type">2</property>
  <property name="kdenlive:original.kdenlive:folderid">16</property>
  <property name="kdenlive:original.kdenlive:id">134</property>
  <property name="kdenlive:original.mute_on_pause">0</property>
  <property name="kdenlive:original.kdenlive:file_size">112351</property>
  <property name="kdenlive:original.kdenlive:file_hash">c77592a9185844ce835284f460ac45b0</property>
  <property name="kdenlive:original.backup">1</property>
  <property name="meta.media.top_field_first">0</property>
  <property name="meta.media.progressive">1</property>
 </chain>
 <chain id="chain333" out="00:00:01.483">
  <property name="length">90</property>
  <property name="eof">pause</property>
  <property name="resource">/home/xiaoxiae/.cache/kdenlive/proxy/43b4b545845ff9398594e526511d4800.mkv</property>
  <property name="mlt_service">avformat-novalidate</property>
  <property name="meta.media.nb_streams">1</property>
  <property name="meta.media.0.stream.type">video</property>
  <property name="meta.media.0.stream.frame_rate">60</property>
  <property name="meta.media.0.stream.sample_aspect_ratio">0</property>
  <property name="meta.media.0.codec.width">640</property>
  <property name="meta.media.0.codec.height">360</property>
  <property name="meta.media.0.codec.rotate">0</property>
  <property name="meta.media.0.codec.pix_fmt">yuvj420p</property>
  <property name="meta.media.0.codec.sample_aspect_ratio">0</property>
  <property name="meta.media.0.codec.colorspace">601</property>
  <property name="meta.media.0.codec.name">mjpeg</property>
  <property name="meta.media.0.codec.long_name">MJPEG (Motion JPEG)</property>
  <property name="meta.media.0.codec.bit_rate">0</property>
  <property name="meta.attr.0.stream.HANDLER_NAME.markup">VideoHandler</property>
  <property name="meta.attr.0.stream.VENDOR_ID.markup">[0][0][0][0]</property>
  <property name="meta.attr.0.stream.ENCODER.markup">Lavc60.3.100 mjpeg</property>
  <property name="meta.attr.0.stream.DURATION.markup">00:00:01.500000000</property>
  <property name="meta.attr.COMMENT.markup">Rendered with Manim Community v0.17.3</property>
  <property name="meta.attr.MAJOR_BRAND.markup">isom</property>
  <property name="meta.attr.MINOR_VERSION.markup">512</property>
  <property name="meta.attr.COMPATIBLE_BRANDS.markup">isomiso2avc1mp41</property>
  <property name="meta.attr.ENCODER.markup">Lavf60.3.100</property>
  <property name="seekable">1</property>
  <property name="meta.media.sample_aspect_num">1</property>
  <property name="meta.media.sample_aspect_den">1</property>
  <property name="format">3</property>
  <property name="audio_index">-1</property>
  <property name="video_index">0</property>
  <property name="meta.media.frame_rate_num">60</property>
  <property name="meta.media.frame_rate_den">1</property>
  <property name="meta.media.colorspace">601</property>
  <property name="meta.media.color_trc">2</property>
  <property name="meta.media.has_b_frames">0</property>
  <property name="meta.media.width">640</property>
  <property name="meta.media.height">360</property>
  <property name="meta.media.color_range">full</property>
  <property name="kdenlive:clipname">60.mp4</property>
  <property name="kdenlive:clip_type">2</property>
  <property name="kdenlive:folderid">16</property>
  <property name="kdenlive:id">135</property>
  <property name="mute_on_pause">0</property>
  <property name="kdenlive:file_size">103547</property>
  <property name="kdenlive:file_hash">43b4b545845ff9398594e526511d4800</property>
  <property name="kdenlive:proxy">/home/xiaoxiae/.cache/kdenlive/proxy/43b4b545845ff9398594e526511d4800.mkv</property>
  <property name="kdenlive:originalurl">video/Farmer/60.mp4</property>
  <property name="kdenlive:original.mlt_type">chain</property>
  <property name="kdenlive:original.in">0</property>
  <property name="kdenlive:original.out">00:00:01.483</property>
  <property name="kdenlive:original.length">90</property>
  <property name="kdenlive:original.eof">pause</property>
  <property name="kdenlive:original.resource">video/Farmer/60.mp4</property>
  <property name="kdenlive:original.mlt_service">avformat-novalidate</property>
  <property name="kdenlive:original.meta.media.nb_streams">1</property>
  <property name="kdenlive:original.meta.media.0.stream.type">video</property>
  <property name="kdenlive:original.meta.media.0.stream.frame_rate">60</property>
  <property name="kdenlive:original.meta.media.0.stream.sample_aspect_ratio">0</property>
  <property name="kdenlive:original.meta.media.0.codec.width">1920</property>
  <property name="kdenlive:original.meta.media.0.codec.height">1080</property>
  <property name="kdenlive:original.meta.media.0.codec.rotate">0</property>
  <property name="kdenlive:original.meta.media.0.codec.pix_fmt">yuv420p</property>
  <property name="kdenlive:original.meta.media.0.codec.sample_aspect_ratio">0</property>
  <property name="kdenlive:original.meta.media.0.codec.colorspace">709</property>
  <property name="kdenlive:original.meta.media.0.codec.name">h264</property>
  <property name="kdenlive:original.meta.media.0.codec.long_name">H.264 / AVC / MPEG-4 AVC / MPEG-4 part 10</property>
  <property name="kdenlive:original.meta.media.0.codec.bit_rate">541712</property>
  <property name="kdenlive:original.meta.attr.0.stream.handler_name.markup">VideoHandler</property>
  <property name="kdenlive:original.meta.attr.0.stream.vendor_id.markup">[0][0][0][0]</property>
  <property name="kdenlive:original.meta.attr.0.stream.encoder.markup">Lavc60.3.100 libx264</property>
  <property name="kdenlive:original.meta.attr.major_brand.markup">isom</property>
  <property name="kdenlive:original.meta.attr.minor_version.markup">512</property>
  <property name="kdenlive:original.meta.attr.compatible_brands.markup">isomiso2avc1mp41</property>
  <property name="kdenlive:original.meta.attr.encoder.markup">Lavf60.3.100</property>
  <property name="kdenlive:original.meta.attr.comment.markup">Rendered with Manim Community v0.17.3</property>
  <property name="kdenlive:original.seekable">1</property>
  <property name="kdenlive:original.width">1920</property>
  <property name="kdenlive:original.height">1080</property>
  <property name="kdenlive:original.meta.media.sample_aspect_num">1</property>
  <property name="kdenlive:original.meta.media.sample_aspect_den">1</property>
  <property name="kdenlive:original.format">3</property>
  <property name="kdenlive:original.audio_index">-1</property>
  <property name="kdenlive:original.video_index">0</property>
  <property name="kdenlive:original.meta.media.frame_rate_num">60</property>
  <property name="kdenlive:original.meta.media.frame_rate_den">1</property>
  <property name="kdenlive:original.meta.media.colorspace">709</property>
  <property name="kdenlive:original.meta.media.color_trc">2</property>
  <property name="kdenlive:original.meta.media.has_b_frames">2</property>
  <property name="kdenlive:original.meta.media.width">1920</property>
  <property name="kdenlive:original.meta.media.height">1080</property>
  <property name="kdenlive:original.meta.media.color_range">mpeg</property>
  <property name="kdenlive:original.meta.media.top_field_first">0</property>
  <property name="kdenlive:original.meta.media.progressive">1</property>
  <property name="kdenlive:original.kdenlive:clip_type">2</property>
  <property name="kdenlive:original.kdenlive:folderid">16</property>
  <property name="kdenlive:original.kdenlive:id">135</property>
  <property name="kdenlive:original.mute_on_pause">0</property>
  <property name="kdenlive:original.kdenlive:file_size">103547</property>
  <property name="kdenlive:original.kdenlive:file_hash">43b4b545845ff9398594e526511d4800</property>
  <property name="kdenlive:original.backup">1</property>
  <property name="meta.media.top_field_first">0</property>
  <property name="meta.media.progressive">1</property>
 </chain>
 <chain id="chain332" out="00:00:01.483">
  <property name="length">90</property>
  <property name="eof">pause</property>
  <property name="resource">/home/xiaoxiae/.cache/kdenlive/proxy/26a8b2c39070bc8f72d02b738be20657.mkv</property>
  <property name="mlt_service">avformat-novalidate</property>
  <property name="meta.media.nb_streams">1</property>
  <property name="meta.media.0.stream.type">video</property>
  <property name="meta.media.0.stream.frame_rate">60</property>
  <property name="meta.media.0.stream.sample_aspect_ratio">0</property>
  <property name="meta.media.0.codec.width">640</property>
  <property name="meta.media.0.codec.height">360</property>
  <property name="meta.media.0.codec.rotate">0</property>
  <property name="meta.media.0.codec.pix_fmt">yuvj420p</property>
  <property name="meta.media.0.codec.sample_aspect_ratio">0</property>
  <property name="meta.media.0.codec.colorspace">601</property>
  <property name="meta.media.0.codec.name">mjpeg</property>
  <property name="meta.media.0.codec.long_name">MJPEG (Motion JPEG)</property>
  <property name="meta.media.0.codec.bit_rate">0</property>
  <property name="meta.attr.0.stream.HANDLER_NAME.markup">VideoHandler</property>
  <property name="meta.attr.0.stream.VENDOR_ID.markup">[0][0][0][0]</property>
  <property name="meta.attr.0.stream.ENCODER.markup">Lavc60.3.100 mjpeg</property>
  <property name="meta.attr.0.stream.DURATION.markup">00:00:01.500000000</property>
  <property name="meta.attr.COMMENT.markup">Rendered with Manim Community v0.17.3</property>
  <property name="meta.attr.MAJOR_BRAND.markup">isom</property>
  <property name="meta.attr.MINOR_VERSION.markup">512</property>
  <property name="meta.attr.COMPATIBLE_BRANDS.markup">isomiso2avc1mp41</property>
  <property name="meta.attr.ENCODER.markup">Lavf60.3.100</property>
  <property name="seekable">1</property>
  <property name="meta.media.sample_aspect_num">1</property>
  <property name="meta.media.sample_aspect_den">1</property>
  <property name="format">3</property>
  <property name="audio_index">-1</property>
  <property name="video_index">0</property>
  <property name="meta.media.frame_rate_num">60</property>
  <property name="meta.media.frame_rate_den">1</property>
  <property name="meta.media.colorspace">601</property>
  <property name="meta.media.color_trc">2</property>
  <property name="meta.media.has_b_frames">0</property>
  <property name="meta.media.width">640</property>
  <property name="meta.media.height">360</property>
  <property name="meta.media.color_range">full</property>
  <property name="kdenlive:clipname">61.mp4</property>
  <property name="kdenlive:clip_type">2</property>
  <property name="kdenlive:folderid">16</property>
  <property name="kdenlive:id">136</property>
  <property name="mute_on_pause">0</property>
  <property name="kdenlive:file_size">276558</property>
  <property name="kdenlive:file_hash">26a8b2c39070bc8f72d02b738be20657</property>
  <property name="kdenlive:proxy">/home/xiaoxiae/.cache/kdenlive/proxy/26a8b2c39070bc8f72d02b738be20657.mkv</property>
  <property name="kdenlive:originalurl">video/Farmer/61.mp4</property>
  <property name="kdenlive:original.mlt_type">chain</property>
  <property name="kdenlive:original.in">0</property>
  <property name="kdenlive:original.out">00:00:01.483</property>
  <property name="kdenlive:original.length">90</property>
  <property name="kdenlive:original.eof">pause</property>
  <property name="kdenlive:original.resource">video/Farmer/61.mp4</property>
  <property name="kdenlive:original.mlt_service">avformat-novalidate</property>
  <property name="kdenlive:original.meta.media.nb_streams">1</property>
  <property name="kdenlive:original.meta.media.0.stream.type">video</property>
  <property name="kdenlive:original.meta.media.0.stream.frame_rate">60</property>
  <property name="kdenlive:original.meta.media.0.stream.sample_aspect_ratio">0</property>
  <property name="kdenlive:original.meta.media.0.codec.width">1920</property>
  <property name="kdenlive:original.meta.media.0.codec.height">1080</property>
  <property name="kdenlive:original.meta.media.0.codec.rotate">0</property>
  <property name="kdenlive:original.meta.media.0.codec.pix_fmt">yuv420p</property>
  <property name="kdenlive:original.meta.media.0.codec.sample_aspect_ratio">0</property>
  <property name="kdenlive:original.meta.media.0.codec.colorspace">709</property>
  <property name="kdenlive:original.meta.media.0.codec.name">h264</property>
  <property name="kdenlive:original.meta.media.0.codec.long_name">H.264 / AVC / MPEG-4 AVC / MPEG-4 part 10</property>
  <property name="kdenlive:original.meta.media.0.codec.bit_rate">1464522</property>
  <property name="kdenlive:original.meta.attr.0.stream.handler_name.markup">VideoHandler</property>
  <property name="kdenlive:original.meta.attr.0.stream.vendor_id.markup">[0][0][0][0]</property>
  <property name="kdenlive:original.meta.attr.0.stream.encoder.markup">Lavc60.3.100 libx264</property>
  <property name="kdenlive:original.meta.attr.major_brand.markup">isom</property>
  <property name="kdenlive:original.meta.attr.minor_version.markup">512</property>
  <property name="kdenlive:original.meta.attr.compatible_brands.markup">isomiso2avc1mp41</property>
  <property name="kdenlive:original.meta.attr.encoder.markup">Lavf60.3.100</property>
  <property name="kdenlive:original.meta.attr.comment.markup">Rendered with Manim Community v0.17.3</property>
  <property name="kdenlive:original.seekable">1</property>
  <property name="kdenlive:original.width">1920</property>
  <property name="kdenlive:original.height">1080</property>
  <property name="kdenlive:original.meta.media.sample_aspect_num">1</property>
  <property name="kdenlive:original.meta.media.sample_aspect_den">1</property>
  <property name="kdenlive:original.format">3</property>
  <property name="kdenlive:original.audio_index">-1</property>
  <property name="kdenlive:original.video_index">0</property>
  <property name="kdenlive:original.meta.media.frame_rate_num">60</property>
  <property name="kdenlive:original.meta.media.frame_rate_den">1</property>
  <property name="kdenlive:original.meta.media.colorspace">709</property>
  <property name="kdenlive:original.meta.media.color_trc">2</property>
  <property name="kdenlive:original.meta.media.has_b_frames">2</property>
  <property name="kdenlive:original.meta.media.width">1920</property>
  <property name="kdenlive:original.meta.media.height">1080</property>
  <property name="kdenlive:original.meta.media.color_range">mpeg</property>
  <property name="kdenlive:original.meta.media.top_field_first">0</property>
  <property name="kdenlive:original.meta.media.progressive">1</property>
  <property name="kdenlive:original.kdenlive:clip_type">2</property>
  <property name="kdenlive:original.kdenlive:folderid">16</property>
  <property name="kdenlive:original.kdenlive:id">136</property>
  <property name="kdenlive:original.mute_on_pause">0</property>
  <property name="kdenlive:original.kdenlive:file_size">276558</property>
  <property name="kdenlive:original.kdenlive:file_hash">26a8b2c39070bc8f72d02b738be20657</property>
  <property name="kdenlive:original.backup">1</property>
  <property name="meta.media.top_field_first">0</property>
  <property name="meta.media.progressive">1</property>
 </chain>
 <chain id="chain330" out="00:00:01.483">
  <property name="length">90</property>
  <property name="eof">pause</property>
  <property name="resource">/home/xiaoxiae/.cache/kdenlive/proxy/9ff5487d0a94811150d8e0aab9d50ba6.mkv</property>
  <property name="mlt_service">avformat-novalidate</property>
  <property name="meta.media.nb_streams">1</property>
  <property name="meta.media.0.stream.type">video</property>
  <property name="meta.media.0.stream.frame_rate">60</property>
  <property name="meta.media.0.stream.sample_aspect_ratio">0</property>
  <property name="meta.media.0.codec.width">640</property>
  <property name="meta.media.0.codec.height">360</property>
  <property name="meta.media.0.codec.rotate">0</property>
  <property name="meta.media.0.codec.pix_fmt">yuvj420p</property>
  <property name="meta.media.0.codec.sample_aspect_ratio">0</property>
  <property name="meta.media.0.codec.colorspace">601</property>
  <property name="meta.media.0.codec.name">mjpeg</property>
  <property name="meta.media.0.codec.long_name">MJPEG (Motion JPEG)</property>
  <property name="meta.media.0.codec.bit_rate">0</property>
  <property name="meta.attr.0.stream.HANDLER_NAME.markup">VideoHandler</property>
  <property name="meta.attr.0.stream.VENDOR_ID.markup">[0][0][0][0]</property>
  <property name="meta.attr.0.stream.ENCODER.markup">Lavc60.3.100 mjpeg</property>
  <property name="meta.attr.0.stream.DURATION.markup">00:00:01.500000000</property>
  <property name="meta.attr.COMMENT.markup">Rendered with Manim Community v0.17.3</property>
  <property name="meta.attr.MAJOR_BRAND.markup">isom</property>
  <property name="meta.attr.MINOR_VERSION.markup">512</property>
  <property name="meta.attr.COMPATIBLE_BRANDS.markup">isomiso2avc1mp41</property>
  <property name="meta.attr.ENCODER.markup">Lavf60.3.100</property>
  <property name="seekable">1</property>
  <property name="meta.media.sample_aspect_num">1</property>
  <property name="meta.media.sample_aspect_den">1</property>
  <property name="format">3</property>
  <property name="audio_index">-1</property>
  <property name="video_index">0</property>
  <property name="meta.media.frame_rate_num">60</property>
  <property name="meta.media.frame_rate_den">1</property>
  <property name="meta.media.colorspace">601</property>
  <property name="meta.media.color_trc">2</property>
  <property name="meta.media.has_b_frames">0</property>
  <property name="meta.media.width">640</property>
  <property name="meta.media.height">360</property>
  <property name="meta.media.color_range">full</property>
  <property name="kdenlive:clipname">62.mp4</property>
  <property name="kdenlive:clip_type">2</property>
  <property name="kdenlive:folderid">16</property>
  <property name="kdenlive:id">137</property>
  <property name="mute_on_pause">0</property>
  <property name="kdenlive:file_size">312421</property>
  <property name="kdenlive:file_hash">9ff5487d0a94811150d8e0aab9d50ba6</property>
  <property name="kdenlive:proxy">/home/xiaoxiae/.cache/kdenlive/proxy/9ff5487d0a94811150d8e0aab9d50ba6.mkv</property>
  <property name="kdenlive:originalurl">video/Farmer/62.mp4</property>
  <property name="kdenlive:original.mlt_type">chain</property>
  <property name="kdenlive:original.in">0</property>
  <property name="kdenlive:original.out">00:00:01.483</property>
  <property name="kdenlive:original.length">90</property>
  <property name="kdenlive:original.eof">pause</property>
  <property name="kdenlive:original.resource">video/Farmer/62.mp4</property>
  <property name="kdenlive:original.mlt_service">avformat-novalidate</property>
  <property name="kdenlive:original.meta.media.nb_streams">1</property>
  <property name="kdenlive:original.meta.media.0.stream.type">video</property>
  <property name="kdenlive:original.meta.media.0.stream.frame_rate">60</property>
  <property name="kdenlive:original.meta.media.0.stream.sample_aspect_ratio">0</property>
  <property name="kdenlive:original.meta.media.0.codec.width">1920</property>
  <property name="kdenlive:original.meta.media.0.codec.height">1080</property>
  <property name="kdenlive:original.meta.media.0.codec.rotate">0</property>
  <property name="kdenlive:original.meta.media.0.codec.pix_fmt">yuv420p</property>
  <property name="kdenlive:original.meta.media.0.codec.sample_aspect_ratio">0</property>
  <property name="kdenlive:original.meta.media.0.codec.colorspace">709</property>
  <property name="kdenlive:original.meta.media.0.codec.name">h264</property>
  <property name="kdenlive:original.meta.media.0.codec.long_name">H.264 / AVC / MPEG-4 AVC / MPEG-4 part 10</property>
  <property name="kdenlive:original.meta.media.0.codec.bit_rate">1655834</property>
  <property name="kdenlive:original.meta.attr.0.stream.handler_name.markup">VideoHandler</property>
  <property name="kdenlive:original.meta.attr.0.stream.vendor_id.markup">[0][0][0][0]</property>
  <property name="kdenlive:original.meta.attr.0.stream.encoder.markup">Lavc60.3.100 libx264</property>
  <property name="kdenlive:original.meta.attr.major_brand.markup">isom</property>
  <property name="kdenlive:original.meta.attr.minor_version.markup">512</property>
  <property name="kdenlive:original.meta.attr.compatible_brands.markup">isomiso2avc1mp41</property>
  <property name="kdenlive:original.meta.attr.encoder.markup">Lavf60.3.100</property>
  <property name="kdenlive:original.meta.attr.comment.markup">Rendered with Manim Community v0.17.3</property>
  <property name="kdenlive:original.seekable">1</property>
  <property name="kdenlive:original.width">1920</property>
  <property name="kdenlive:original.height">1080</property>
  <property name="kdenlive:original.meta.media.sample_aspect_num">1</property>
  <property name="kdenlive:original.meta.media.sample_aspect_den">1</property>
  <property name="kdenlive:original.format">3</property>
  <property name="kdenlive:original.audio_index">-1</property>
  <property name="kdenlive:original.video_index">0</property>
  <property name="kdenlive:original.meta.media.frame_rate_num">60</property>
  <property name="kdenlive:original.meta.media.frame_rate_den">1</property>
  <property name="kdenlive:original.meta.media.colorspace">709</property>
  <property name="kdenlive:original.meta.media.color_trc">2</property>
  <property name="kdenlive:original.meta.media.has_b_frames">2</property>
  <property name="kdenlive:original.meta.media.width">1920</property>
  <property name="kdenlive:original.meta.media.height">1080</property>
  <property name="kdenlive:original.meta.media.color_range">mpeg</property>
  <property name="kdenlive:original.meta.media.top_field_first">0</property>
  <property name="kdenlive:original.meta.media.progressive">1</property>
  <property name="kdenlive:original.kdenlive:clip_type">2</property>
  <property name="kdenlive:original.kdenlive:folderid">16</property>
  <property name="kdenlive:original.kdenlive:id">137</property>
  <property name="kdenlive:original.mute_on_pause">0</property>
  <property name="kdenlive:original.kdenlive:file_size">312421</property>
  <property name="kdenlive:original.kdenlive:file_hash">9ff5487d0a94811150d8e0aab9d50ba6</property>
  <property name="kdenlive:original.backup">1</property>
  <property name="meta.media.top_field_first">0</property>
  <property name="meta.media.progressive">1</property>
 </chain>
 <chain id="chain328" out="00:00:01.233">
  <property name="length">75</property>
  <property name="eof">pause</property>
  <property name="resource">/home/xiaoxiae/.cache/kdenlive/proxy/0d01d8695b754751b0ff094e0c9d48cb.mkv</property>
  <property name="mlt_service">avformat-novalidate</property>
  <property name="meta.media.nb_streams">1</property>
  <property name="meta.media.0.stream.type">video</property>
  <property name="meta.media.0.stream.frame_rate">60</property>
  <property name="meta.media.0.stream.sample_aspect_ratio">0</property>
  <property name="meta.media.0.codec.width">640</property>
  <property name="meta.media.0.codec.height">360</property>
  <property name="meta.media.0.codec.rotate">0</property>
  <property name="meta.media.0.codec.pix_fmt">yuvj420p</property>
  <property name="meta.media.0.codec.sample_aspect_ratio">0</property>
  <property name="meta.media.0.codec.colorspace">601</property>
  <property name="meta.media.0.codec.name">mjpeg</property>
  <property name="meta.media.0.codec.long_name">MJPEG (Motion JPEG)</property>
  <property name="meta.media.0.codec.bit_rate">0</property>
  <property name="meta.attr.0.stream.HANDLER_NAME.markup">VideoHandler</property>
  <property name="meta.attr.0.stream.VENDOR_ID.markup">[0][0][0][0]</property>
  <property name="meta.attr.0.stream.ENCODER.markup">Lavc60.3.100 mjpeg</property>
  <property name="meta.attr.0.stream.DURATION.markup">00:00:01.250000000</property>
  <property name="meta.attr.COMMENT.markup">Rendered with Manim Community v0.17.3</property>
  <property name="meta.attr.MAJOR_BRAND.markup">isom</property>
  <property name="meta.attr.MINOR_VERSION.markup">512</property>
  <property name="meta.attr.COMPATIBLE_BRANDS.markup">isomiso2avc1mp41</property>
  <property name="meta.attr.ENCODER.markup">Lavf60.3.100</property>
  <property name="seekable">1</property>
  <property name="meta.media.sample_aspect_num">1</property>
  <property name="meta.media.sample_aspect_den">1</property>
  <property name="format">3</property>
  <property name="audio_index">-1</property>
  <property name="video_index">0</property>
  <property name="meta.media.frame_rate_num">60</property>
  <property name="meta.media.frame_rate_den">1</property>
  <property name="meta.media.colorspace">601</property>
  <property name="meta.media.color_trc">2</property>
  <property name="meta.media.has_b_frames">0</property>
  <property name="meta.media.width">640</property>
  <property name="meta.media.height">360</property>
  <property name="meta.media.color_range">full</property>
  <property name="kdenlive:clipname">63.mp4</property>
  <property name="kdenlive:clip_type">2</property>
  <property name="kdenlive:folderid">16</property>
  <property name="kdenlive:id">138</property>
  <property name="mute_on_pause">0</property>
  <property name="kdenlive:file_size">81634</property>
  <property name="kdenlive:file_hash">0d01d8695b754751b0ff094e0c9d48cb</property>
  <property name="kdenlive:proxy">/home/xiaoxiae/.cache/kdenlive/proxy/0d01d8695b754751b0ff094e0c9d48cb.mkv</property>
  <property name="kdenlive:originalurl">video/Farmer/63.mp4</property>
  <property name="kdenlive:original.mlt_type">chain</property>
  <property name="kdenlive:original.in">0</property>
  <property name="kdenlive:original.out">00:00:01.233</property>
  <property name="kdenlive:original.length">75</property>
  <property name="kdenlive:original.eof">pause</property>
  <property name="kdenlive:original.resource">video/Farmer/63.mp4</property>
  <property name="kdenlive:original.mlt_service">avformat-novalidate</property>
  <property name="kdenlive:original.meta.media.nb_streams">1</property>
  <property name="kdenlive:original.meta.media.0.stream.type">video</property>
  <property name="kdenlive:original.meta.media.0.stream.frame_rate">60</property>
  <property name="kdenlive:original.meta.media.0.stream.sample_aspect_ratio">0</property>
  <property name="kdenlive:original.meta.media.0.codec.width">1920</property>
  <property name="kdenlive:original.meta.media.0.codec.height">1080</property>
  <property name="kdenlive:original.meta.media.0.codec.rotate">0</property>
  <property name="kdenlive:original.meta.media.0.codec.pix_fmt">yuv420p</property>
  <property name="kdenlive:original.meta.media.0.codec.sample_aspect_ratio">0</property>
  <property name="kdenlive:original.meta.media.0.codec.colorspace">709</property>
  <property name="kdenlive:original.meta.media.0.codec.name">h264</property>
  <property name="kdenlive:original.meta.media.0.codec.long_name">H.264 / AVC / MPEG-4 AVC / MPEG-4 part 10</property>
  <property name="kdenlive:original.meta.media.0.codec.bit_rate">510809</property>
  <property name="kdenlive:original.meta.attr.0.stream.handler_name.markup">VideoHandler</property>
  <property name="kdenlive:original.meta.attr.0.stream.vendor_id.markup">[0][0][0][0]</property>
  <property name="kdenlive:original.meta.attr.0.stream.encoder.markup">Lavc60.3.100 libx264</property>
  <property name="kdenlive:original.meta.attr.major_brand.markup">isom</property>
  <property name="kdenlive:original.meta.attr.minor_version.markup">512</property>
  <property name="kdenlive:original.meta.attr.compatible_brands.markup">isomiso2avc1mp41</property>
  <property name="kdenlive:original.meta.attr.encoder.markup">Lavf60.3.100</property>
  <property name="kdenlive:original.meta.attr.comment.markup">Rendered with Manim Community v0.17.3</property>
  <property name="kdenlive:original.seekable">1</property>
  <property name="kdenlive:original.width">1920</property>
  <property name="kdenlive:original.height">1080</property>
  <property name="kdenlive:original.meta.media.sample_aspect_num">1</property>
  <property name="kdenlive:original.meta.media.sample_aspect_den">1</property>
  <property name="kdenlive:original.format">3</property>
  <property name="kdenlive:original.audio_index">-1</property>
  <property name="kdenlive:original.video_index">0</property>
  <property name="kdenlive:original.meta.media.frame_rate_num">60</property>
  <property name="kdenlive:original.meta.media.frame_rate_den">1</property>
  <property name="kdenlive:original.meta.media.colorspace">709</property>
  <property name="kdenlive:original.meta.media.color_trc">2</property>
  <property name="kdenlive:original.meta.media.has_b_frames">2</property>
  <property name="kdenlive:original.meta.media.width">1920</property>
  <property name="kdenlive:original.meta.media.height">1080</property>
  <property name="kdenlive:original.meta.media.color_range">mpeg</property>
  <property name="kdenlive:original.meta.media.top_field_first">0</property>
  <property name="kdenlive:original.meta.media.progressive">1</property>
  <property name="kdenlive:original.kdenlive:clip_type">2</property>
  <property name="kdenlive:original.kdenlive:folderid">16</property>
  <property name="kdenlive:original.kdenlive:id">138</property>
  <property name="kdenlive:original.mute_on_pause">0</property>
  <property name="kdenlive:original.kdenlive:file_size">81634</property>
  <property name="kdenlive:original.kdenlive:file_hash">0d01d8695b754751b0ff094e0c9d48cb</property>
  <property name="kdenlive:original.backup">1</property>
  <property name="meta.media.top_field_first">0</property>
  <property name="meta.media.progressive">1</property>
 </chain>
 <chain id="chain323" out="00:00:00.983">
  <property name="length">60</property>
  <property name="eof">pause</property>
  <property name="resource">/home/xiaoxiae/.cache/kdenlive/proxy/ad3de6df6f057e9f4074d63cdc0774ad.mkv</property>
  <property name="mlt_service">avformat-novalidate</property>
  <property name="meta.media.nb_streams">1</property>
  <property name="meta.media.0.stream.type">video</property>
  <property name="meta.media.0.stream.frame_rate">60</property>
  <property name="meta.media.0.stream.sample_aspect_ratio">0</property>
  <property name="meta.media.0.codec.width">640</property>
  <property name="meta.media.0.codec.height">360</property>
  <property name="meta.media.0.codec.rotate">0</property>
  <property name="meta.media.0.codec.pix_fmt">yuvj420p</property>
  <property name="meta.media.0.codec.sample_aspect_ratio">0</property>
  <property name="meta.media.0.codec.colorspace">601</property>
  <property name="meta.media.0.codec.name">mjpeg</property>
  <property name="meta.media.0.codec.long_name">MJPEG (Motion JPEG)</property>
  <property name="meta.media.0.codec.bit_rate">0</property>
  <property name="meta.attr.0.stream.HANDLER_NAME.markup">VideoHandler</property>
  <property name="meta.attr.0.stream.VENDOR_ID.markup">[0][0][0][0]</property>
  <property name="meta.attr.0.stream.ENCODER.markup">Lavc60.3.100 mjpeg</property>
  <property name="meta.attr.0.stream.DURATION.markup">00:00:01.000000000</property>
  <property name="meta.attr.COMMENT.markup">Rendered with Manim Community v0.17.3</property>
  <property name="meta.attr.MAJOR_BRAND.markup">isom</property>
  <property name="meta.attr.MINOR_VERSION.markup">512</property>
  <property name="meta.attr.COMPATIBLE_BRANDS.markup">isomiso2avc1mp41</property>
  <property name="meta.attr.ENCODER.markup">Lavf60.3.100</property>
  <property name="seekable">1</property>
  <property name="meta.media.sample_aspect_num">1</property>
  <property name="meta.media.sample_aspect_den">1</property>
  <property name="format">3</property>
  <property name="audio_index">-1</property>
  <property name="video_index">0</property>
  <property name="meta.media.frame_rate_num">60</property>
  <property name="meta.media.frame_rate_den">1</property>
  <property name="meta.media.colorspace">601</property>
  <property name="meta.media.color_trc">2</property>
  <property name="meta.media.has_b_frames">0</property>
  <property name="meta.media.width">640</property>
  <property name="meta.media.height">360</property>
  <property name="meta.media.color_range">full</property>
  <property name="kdenlive:clipname">64.mp4</property>
  <property name="kdenlive:clip_type">2</property>
  <property name="kdenlive:folderid">16</property>
  <property name="kdenlive:id">139</property>
  <property name="mute_on_pause">0</property>
  <property name="kdenlive:file_size">245361</property>
  <property name="kdenlive:file_hash">ad3de6df6f057e9f4074d63cdc0774ad</property>
  <property name="kdenlive:proxy">/home/xiaoxiae/.cache/kdenlive/proxy/ad3de6df6f057e9f4074d63cdc0774ad.mkv</property>
  <property name="kdenlive:originalurl">video/Farmer/64.mp4</property>
  <property name="kdenlive:original.mlt_type">chain</property>
  <property name="kdenlive:original.in">0</property>
  <property name="kdenlive:original.out">00:00:00.983</property>
  <property name="kdenlive:original.length">60</property>
  <property name="kdenlive:original.eof">pause</property>
  <property name="kdenlive:original.resource">video/Farmer/64.mp4</property>
  <property name="kdenlive:original.mlt_service">avformat-novalidate</property>
  <property name="kdenlive:original.meta.media.nb_streams">1</property>
  <property name="kdenlive:original.meta.media.0.stream.type">video</property>
  <property name="kdenlive:original.meta.media.0.stream.frame_rate">60</property>
  <property name="kdenlive:original.meta.media.0.stream.sample_aspect_ratio">0</property>
  <property name="kdenlive:original.meta.media.0.codec.width">1920</property>
  <property name="kdenlive:original.meta.media.0.codec.height">1080</property>
  <property name="kdenlive:original.meta.media.0.codec.rotate">0</property>
  <property name="kdenlive:original.meta.media.0.codec.pix_fmt">yuv420p</property>
  <property name="kdenlive:original.meta.media.0.codec.sample_aspect_ratio">0</property>
  <property name="kdenlive:original.meta.media.0.codec.colorspace">709</property>
  <property name="kdenlive:original.meta.media.0.codec.name">h264</property>
  <property name="kdenlive:original.meta.media.0.codec.long_name">H.264 / AVC / MPEG-4 AVC / MPEG-4 part 10</property>
  <property name="kdenlive:original.meta.media.0.codec.bit_rate">1951112</property>
  <property name="kdenlive:original.meta.attr.0.stream.handler_name.markup">VideoHandler</property>
  <property name="kdenlive:original.meta.attr.0.stream.vendor_id.markup">[0][0][0][0]</property>
  <property name="kdenlive:original.meta.attr.0.stream.encoder.markup">Lavc60.3.100 libx264</property>
  <property name="kdenlive:original.meta.attr.major_brand.markup">isom</property>
  <property name="kdenlive:original.meta.attr.minor_version.markup">512</property>
  <property name="kdenlive:original.meta.attr.compatible_brands.markup">isomiso2avc1mp41</property>
  <property name="kdenlive:original.meta.attr.encoder.markup">Lavf60.3.100</property>
  <property name="kdenlive:original.meta.attr.comment.markup">Rendered with Manim Community v0.17.3</property>
  <property name="kdenlive:original.seekable">1</property>
  <property name="kdenlive:original.width">1920</property>
  <property name="kdenlive:original.height">1080</property>
  <property name="kdenlive:original.meta.media.sample_aspect_num">1</property>
  <property name="kdenlive:original.meta.media.sample_aspect_den">1</property>
  <property name="kdenlive:original.format">3</property>
  <property name="kdenlive:original.audio_index">-1</property>
  <property name="kdenlive:original.video_index">0</property>
  <property name="kdenlive:original.meta.media.frame_rate_num">60</property>
  <property name="kdenlive:original.meta.media.frame_rate_den">1</property>
  <property name="kdenlive:original.meta.media.colorspace">709</property>
  <property name="kdenlive:original.meta.media.color_trc">2</property>
  <property name="kdenlive:original.meta.media.has_b_frames">2</property>
  <property name="kdenlive:original.meta.media.width">1920</property>
  <property name="kdenlive:original.meta.media.height">1080</property>
  <property name="kdenlive:original.meta.media.color_range">mpeg</property>
  <property name="kdenlive:original.meta.media.top_field_first">0</property>
  <property name="kdenlive:original.meta.media.progressive">1</property>
  <property name="kdenlive:original.kdenlive:clip_type">2</property>
  <property name="kdenlive:original.kdenlive:folderid">16</property>
  <property name="kdenlive:original.kdenlive:id">139</property>
  <property name="kdenlive:original.mute_on_pause">0</property>
  <property name="kdenlive:original.kdenlive:file_size">245361</property>
  <property name="kdenlive:original.kdenlive:file_hash">ad3de6df6f057e9f4074d63cdc0774ad</property>
  <property name="kdenlive:original.backup">1</property>
  <property name="meta.media.top_field_first">0</property>
  <property name="meta.media.progressive">1</property>
 </chain>
 <chain id="chain325" out="00:00:01.483">
  <property name="length">90</property>
  <property name="eof">pause</property>
  <property name="resource">/home/xiaoxiae/.cache/kdenlive/proxy/a3bca883079e410efbed96b570d0fdad.mkv</property>
  <property name="mlt_service">avformat-novalidate</property>
  <property name="meta.media.nb_streams">1</property>
  <property name="meta.media.0.stream.type">video</property>
  <property name="meta.media.0.stream.frame_rate">60</property>
  <property name="meta.media.0.stream.sample_aspect_ratio">0</property>
  <property name="meta.media.0.codec.width">640</property>
  <property name="meta.media.0.codec.height">360</property>
  <property name="meta.media.0.codec.rotate">0</property>
  <property name="meta.media.0.codec.pix_fmt">yuvj420p</property>
  <property name="meta.media.0.codec.sample_aspect_ratio">0</property>
  <property name="meta.media.0.codec.colorspace">601</property>
  <property name="meta.media.0.codec.name">mjpeg</property>
  <property name="meta.media.0.codec.long_name">MJPEG (Motion JPEG)</property>
  <property name="meta.media.0.codec.bit_rate">0</property>
  <property name="meta.attr.0.stream.HANDLER_NAME.markup">VideoHandler</property>
  <property name="meta.attr.0.stream.VENDOR_ID.markup">[0][0][0][0]</property>
  <property name="meta.attr.0.stream.ENCODER.markup">Lavc60.3.100 mjpeg</property>
  <property name="meta.attr.0.stream.DURATION.markup">00:00:01.500000000</property>
  <property name="meta.attr.COMMENT.markup">Rendered with Manim Community v0.17.3</property>
  <property name="meta.attr.MAJOR_BRAND.markup">isom</property>
  <property name="meta.attr.MINOR_VERSION.markup">512</property>
  <property name="meta.attr.COMPATIBLE_BRANDS.markup">isomiso2avc1mp41</property>
  <property name="meta.attr.ENCODER.markup">Lavf60.3.100</property>
  <property name="seekable">1</property>
  <property name="meta.media.sample_aspect_num">1</property>
  <property name="meta.media.sample_aspect_den">1</property>
  <property name="format">3</property>
  <property name="audio_index">-1</property>
  <property name="video_index">0</property>
  <property name="meta.media.frame_rate_num">60</property>
  <property name="meta.media.frame_rate_den">1</property>
  <property name="meta.media.colorspace">601</property>
  <property name="meta.media.color_trc">2</property>
  <property name="meta.media.has_b_frames">0</property>
  <property name="meta.media.width">640</property>
  <property name="meta.media.height">360</property>
  <property name="meta.media.color_range">full</property>
  <property name="kdenlive:clipname">65.mp4</property>
  <property name="kdenlive:clip_type">2</property>
  <property name="kdenlive:folderid">16</property>
  <property name="kdenlive:id">140</property>
  <property name="mute_on_pause">0</property>
  <property name="kdenlive:file_size">247983</property>
  <property name="kdenlive:file_hash">a3bca883079e410efbed96b570d0fdad</property>
  <property name="kdenlive:proxy">/home/xiaoxiae/.cache/kdenlive/proxy/a3bca883079e410efbed96b570d0fdad.mkv</property>
  <property name="kdenlive:originalurl">video/Farmer/65.mp4</property>
  <property name="kdenlive:original.mlt_type">chain</property>
  <property name="kdenlive:original.in">0</property>
  <property name="kdenlive:original.out">00:00:01.483</property>
  <property name="kdenlive:original.length">90</property>
  <property name="kdenlive:original.eof">pause</property>
  <property name="kdenlive:original.resource">video/Farmer/65.mp4</property>
  <property name="kdenlive:original.mlt_service">avformat-novalidate</property>
  <property name="kdenlive:original.meta.media.nb_streams">1</property>
  <property name="kdenlive:original.meta.media.0.stream.type">video</property>
  <property name="kdenlive:original.meta.media.0.stream.frame_rate">60</property>
  <property name="kdenlive:original.meta.media.0.stream.sample_aspect_ratio">0</property>
  <property name="kdenlive:original.meta.media.0.codec.width">1920</property>
  <property name="kdenlive:original.meta.media.0.codec.height">1080</property>
  <property name="kdenlive:original.meta.media.0.codec.rotate">0</property>
  <property name="kdenlive:original.meta.media.0.codec.pix_fmt">yuv420p</property>
  <property name="kdenlive:original.meta.media.0.codec.sample_aspect_ratio">0</property>
  <property name="kdenlive:original.meta.media.0.codec.colorspace">709</property>
  <property name="kdenlive:original.meta.media.0.codec.name">h264</property>
  <property name="kdenlive:original.meta.media.0.codec.long_name">H.264 / AVC / MPEG-4 AVC / MPEG-4 part 10</property>
  <property name="kdenlive:original.meta.media.0.codec.bit_rate">1312250</property>
  <property name="kdenlive:original.meta.attr.0.stream.handler_name.markup">VideoHandler</property>
  <property name="kdenlive:original.meta.attr.0.stream.vendor_id.markup">[0][0][0][0]</property>
  <property name="kdenlive:original.meta.attr.0.stream.encoder.markup">Lavc60.3.100 libx264</property>
  <property name="kdenlive:original.meta.attr.major_brand.markup">isom</property>
  <property name="kdenlive:original.meta.attr.minor_version.markup">512</property>
  <property name="kdenlive:original.meta.attr.compatible_brands.markup">isomiso2avc1mp41</property>
  <property name="kdenlive:original.meta.attr.encoder.markup">Lavf60.3.100</property>
  <property name="kdenlive:original.meta.attr.comment.markup">Rendered with Manim Community v0.17.3</property>
  <property name="kdenlive:original.seekable">1</property>
  <property name="kdenlive:original.width">1920</property>
  <property name="kdenlive:original.height">1080</property>
  <property name="kdenlive:original.meta.media.sample_aspect_num">1</property>
  <property name="kdenlive:original.meta.media.sample_aspect_den">1</property>
  <property name="kdenlive:original.format">3</property>
  <property name="kdenlive:original.audio_index">-1</property>
  <property name="kdenlive:original.video_index">0</property>
  <property name="kdenlive:original.meta.media.frame_rate_num">60</property>
  <property name="kdenlive:original.meta.media.frame_rate_den">1</property>
  <property name="kdenlive:original.meta.media.colorspace">709</property>
  <property name="kdenlive:original.meta.media.color_trc">2</property>
  <property name="kdenlive:original.meta.media.has_b_frames">2</property>
  <property name="kdenlive:original.meta.media.width">1920</property>
  <property name="kdenlive:original.meta.media.height">1080</property>
  <property name="kdenlive:original.meta.media.color_range">mpeg</property>
  <property name="kdenlive:original.meta.media.top_field_first">0</property>
  <property name="kdenlive:original.meta.media.progressive">1</property>
  <property name="kdenlive:original.kdenlive:clip_type">2</property>
  <property name="kdenlive:original.kdenlive:folderid">16</property>
  <property name="kdenlive:original.kdenlive:id">140</property>
  <property name="kdenlive:original.mute_on_pause">0</property>
  <property name="kdenlive:original.kdenlive:file_size">247983</property>
  <property name="kdenlive:original.kdenlive:file_hash">a3bca883079e410efbed96b570d0fdad</property>
  <property name="kdenlive:original.backup">1</property>
  <property name="meta.media.top_field_first">0</property>
  <property name="meta.media.progressive">1</property>
 </chain>
 <chain id="chain320" out="00:00:00.983">
  <property name="length">60</property>
  <property name="eof">pause</property>
  <property name="resource">/home/xiaoxiae/.cache/kdenlive/proxy/49d259df3bc68d37e47c738664678bf0.mkv</property>
  <property name="mlt_service">avformat-novalidate</property>
  <property name="meta.media.nb_streams">1</property>
  <property name="meta.media.0.stream.type">video</property>
  <property name="meta.media.0.stream.frame_rate">60</property>
  <property name="meta.media.0.stream.sample_aspect_ratio">0</property>
  <property name="meta.media.0.codec.width">640</property>
  <property name="meta.media.0.codec.height">360</property>
  <property name="meta.media.0.codec.rotate">0</property>
  <property name="meta.media.0.codec.pix_fmt">yuvj420p</property>
  <property name="meta.media.0.codec.sample_aspect_ratio">0</property>
  <property name="meta.media.0.codec.colorspace">601</property>
  <property name="meta.media.0.codec.name">mjpeg</property>
  <property name="meta.media.0.codec.long_name">MJPEG (Motion JPEG)</property>
  <property name="meta.media.0.codec.bit_rate">0</property>
  <property name="meta.attr.0.stream.HANDLER_NAME.markup">VideoHandler</property>
  <property name="meta.attr.0.stream.VENDOR_ID.markup">[0][0][0][0]</property>
  <property name="meta.attr.0.stream.ENCODER.markup">Lavc60.3.100 mjpeg</property>
  <property name="meta.attr.0.stream.DURATION.markup">00:00:01.000000000</property>
  <property name="meta.attr.COMMENT.markup">Rendered with Manim Community v0.17.3</property>
  <property name="meta.attr.MAJOR_BRAND.markup">isom</property>
  <property name="meta.attr.MINOR_VERSION.markup">512</property>
  <property name="meta.attr.COMPATIBLE_BRANDS.markup">isomiso2avc1mp41</property>
  <property name="meta.attr.ENCODER.markup">Lavf60.3.100</property>
  <property name="seekable">1</property>
  <property name="meta.media.sample_aspect_num">1</property>
  <property name="meta.media.sample_aspect_den">1</property>
  <property name="format">3</property>
  <property name="audio_index">-1</property>
  <property name="video_index">0</property>
  <property name="meta.media.frame_rate_num">60</property>
  <property name="meta.media.frame_rate_den">1</property>
  <property name="meta.media.colorspace">601</property>
  <property name="meta.media.color_trc">2</property>
  <property name="meta.media.has_b_frames">0</property>
  <property name="meta.media.width">640</property>
  <property name="meta.media.height">360</property>
  <property name="meta.media.color_range">full</property>
  <property name="kdenlive:clipname">66.mp4</property>
  <property name="kdenlive:clip_type">2</property>
  <property name="kdenlive:folderid">16</property>
  <property name="kdenlive:id">141</property>
  <property name="mute_on_pause">0</property>
  <property name="kdenlive:file_size">84622</property>
  <property name="kdenlive:file_hash">49d259df3bc68d37e47c738664678bf0</property>
  <property name="kdenlive:proxy">/home/xiaoxiae/.cache/kdenlive/proxy/49d259df3bc68d37e47c738664678bf0.mkv</property>
  <property name="kdenlive:originalurl">video/Farmer/66.mp4</property>
  <property name="kdenlive:original.mlt_type">chain</property>
  <property name="kdenlive:original.in">0</property>
  <property name="kdenlive:original.out">00:00:00.983</property>
  <property name="kdenlive:original.length">60</property>
  <property name="kdenlive:original.eof">pause</property>
  <property name="kdenlive:original.resource">video/Farmer/66.mp4</property>
  <property name="kdenlive:original.mlt_service">avformat-novalidate</property>
  <property name="kdenlive:original.meta.media.nb_streams">1</property>
  <property name="kdenlive:original.meta.media.0.stream.type">video</property>
  <property name="kdenlive:original.meta.media.0.stream.frame_rate">60</property>
  <property name="kdenlive:original.meta.media.0.stream.sample_aspect_ratio">0</property>
  <property name="kdenlive:original.meta.media.0.codec.width">1920</property>
  <property name="kdenlive:original.meta.media.0.codec.height">1080</property>
  <property name="kdenlive:original.meta.media.0.codec.rotate">0</property>
  <property name="kdenlive:original.meta.media.0.codec.pix_fmt">yuv420p</property>
  <property name="kdenlive:original.meta.media.0.codec.sample_aspect_ratio">0</property>
  <property name="kdenlive:original.meta.media.0.codec.colorspace">709</property>
  <property name="kdenlive:original.meta.media.0.codec.name">h264</property>
  <property name="kdenlive:original.meta.media.0.codec.long_name">H.264 / AVC / MPEG-4 AVC / MPEG-4 part 10</property>
  <property name="kdenlive:original.meta.media.0.codec.bit_rate">663920</property>
  <property name="kdenlive:original.meta.attr.0.stream.handler_name.markup">VideoHandler</property>
  <property name="kdenlive:original.meta.attr.0.stream.vendor_id.markup">[0][0][0][0]</property>
  <property name="kdenlive:original.meta.attr.0.stream.encoder.markup">Lavc60.3.100 libx264</property>
  <property name="kdenlive:original.meta.attr.major_brand.markup">isom</property>
  <property name="kdenlive:original.meta.attr.minor_version.markup">512</property>
  <property name="kdenlive:original.meta.attr.compatible_brands.markup">isomiso2avc1mp41</property>
  <property name="kdenlive:original.meta.attr.encoder.markup">Lavf60.3.100</property>
  <property name="kdenlive:original.meta.attr.comment.markup">Rendered with Manim Community v0.17.3</property>
  <property name="kdenlive:original.seekable">1</property>
  <property name="kdenlive:original.width">1920</property>
  <property name="kdenlive:original.height">1080</property>
  <property name="kdenlive:original.meta.media.sample_aspect_num">1</property>
  <property name="kdenlive:original.meta.media.sample_aspect_den">1</property>
  <property name="kdenlive:original.format">3</property>
  <property name="kdenlive:original.audio_index">-1</property>
  <property name="kdenlive:original.video_index">0</property>
  <property name="kdenlive:original.meta.media.frame_rate_num">60</property>
  <property name="kdenlive:original.meta.media.frame_rate_den">1</property>
  <property name="kdenlive:original.meta.media.colorspace">709</property>
  <property name="kdenlive:original.meta.media.color_trc">2</property>
  <property name="kdenlive:original.meta.media.has_b_frames">2</property>
  <property name="kdenlive:original.meta.media.width">1920</property>
  <property name="kdenlive:original.meta.media.height">1080</property>
  <property name="kdenlive:original.meta.media.color_range">mpeg</property>
  <property name="kdenlive:original.meta.media.top_field_first">0</property>
  <property name="kdenlive:original.meta.media.progressive">1</property>
  <property name="kdenlive:original.kdenlive:clip_type">2</property>
  <property name="kdenlive:original.kdenlive:folderid">16</property>
  <property name="kdenlive:original.kdenlive:id">141</property>
  <property name="kdenlive:original.mute_on_pause">0</property>
  <property name="kdenlive:original.kdenlive:file_size">84622</property>
  <property name="kdenlive:original.kdenlive:file_hash">49d259df3bc68d37e47c738664678bf0</property>
  <property name="kdenlive:original.backup">1</property>
  <property name="meta.media.top_field_first">0</property>
  <property name="meta.media.progressive">1</property>
 </chain>
 <chain id="chain319" out="00:00:00.983">
  <property name="length">60</property>
  <property name="eof">pause</property>
  <property name="resource">/home/xiaoxiae/.cache/kdenlive/proxy/7305c7d6b9a5b7ce5380b3474d704206.mkv</property>
  <property name="mlt_service">avformat-novalidate</property>
  <property name="meta.media.nb_streams">1</property>
  <property name="meta.media.0.stream.type">video</property>
  <property name="meta.media.0.stream.frame_rate">60</property>
  <property name="meta.media.0.stream.sample_aspect_ratio">0</property>
  <property name="meta.media.0.codec.width">640</property>
  <property name="meta.media.0.codec.height">360</property>
  <property name="meta.media.0.codec.rotate">0</property>
  <property name="meta.media.0.codec.pix_fmt">yuvj420p</property>
  <property name="meta.media.0.codec.sample_aspect_ratio">0</property>
  <property name="meta.media.0.codec.colorspace">601</property>
  <property name="meta.media.0.codec.name">mjpeg</property>
  <property name="meta.media.0.codec.long_name">MJPEG (Motion JPEG)</property>
  <property name="meta.media.0.codec.bit_rate">0</property>
  <property name="meta.attr.0.stream.HANDLER_NAME.markup">VideoHandler</property>
  <property name="meta.attr.0.stream.VENDOR_ID.markup">[0][0][0][0]</property>
  <property name="meta.attr.0.stream.ENCODER.markup">Lavc60.3.100 mjpeg</property>
  <property name="meta.attr.0.stream.DURATION.markup">00:00:01.000000000</property>
  <property name="meta.attr.COMMENT.markup">Rendered with Manim Community v0.17.3</property>
  <property name="meta.attr.MAJOR_BRAND.markup">isom</property>
  <property name="meta.attr.MINOR_VERSION.markup">512</property>
  <property name="meta.attr.COMPATIBLE_BRANDS.markup">isomiso2avc1mp41</property>
  <property name="meta.attr.ENCODER.markup">Lavf60.3.100</property>
  <property name="seekable">1</property>
  <property name="meta.media.sample_aspect_num">1</property>
  <property name="meta.media.sample_aspect_den">1</property>
  <property name="format">3</property>
  <property name="audio_index">-1</property>
  <property name="video_index">0</property>
  <property name="meta.media.frame_rate_num">60</property>
  <property name="meta.media.frame_rate_den">1</property>
  <property name="meta.media.colorspace">601</property>
  <property name="meta.media.color_trc">2</property>
  <property name="meta.media.has_b_frames">0</property>
  <property name="meta.media.width">640</property>
  <property name="meta.media.height">360</property>
  <property name="meta.media.color_range">full</property>
  <property name="kdenlive:clipname">67.mp4</property>
  <property name="kdenlive:clip_type">2</property>
  <property name="kdenlive:folderid">16</property>
  <property name="kdenlive:id">142</property>
  <property name="mute_on_pause">0</property>
  <property name="kdenlive:file_size">88233</property>
  <property name="kdenlive:file_hash">7305c7d6b9a5b7ce5380b3474d704206</property>
  <property name="kdenlive:proxy">/home/xiaoxiae/.cache/kdenlive/proxy/7305c7d6b9a5b7ce5380b3474d704206.mkv</property>
  <property name="kdenlive:originalurl">video/Farmer/67.mp4</property>
  <property name="kdenlive:original.mlt_type">chain</property>
  <property name="kdenlive:original.in">0</property>
  <property name="kdenlive:original.out">00:00:00.983</property>
  <property name="kdenlive:original.length">60</property>
  <property name="kdenlive:original.eof">pause</property>
  <property name="kdenlive:original.resource">video/Farmer/67.mp4</property>
  <property name="kdenlive:original.mlt_service">avformat-novalidate</property>
  <property name="kdenlive:original.meta.media.nb_streams">1</property>
  <property name="kdenlive:original.meta.media.0.stream.type">video</property>
  <property name="kdenlive:original.meta.media.0.stream.frame_rate">60</property>
  <property name="kdenlive:original.meta.media.0.stream.sample_aspect_ratio">0</property>
  <property name="kdenlive:original.meta.media.0.codec.width">1920</property>
  <property name="kdenlive:original.meta.media.0.codec.height">1080</property>
  <property name="kdenlive:original.meta.media.0.codec.rotate">0</property>
  <property name="kdenlive:original.meta.media.0.codec.pix_fmt">yuv420p</property>
  <property name="kdenlive:original.meta.media.0.codec.sample_aspect_ratio">0</property>
  <property name="kdenlive:original.meta.media.0.codec.colorspace">709</property>
  <property name="kdenlive:original.meta.media.0.codec.name">h264</property>
  <property name="kdenlive:original.meta.media.0.codec.long_name">H.264 / AVC / MPEG-4 AVC / MPEG-4 part 10</property>
  <property name="kdenlive:original.meta.media.0.codec.bit_rate">693256</property>
  <property name="kdenlive:original.meta.attr.0.stream.handler_name.markup">VideoHandler</property>
  <property name="kdenlive:original.meta.attr.0.stream.vendor_id.markup">[0][0][0][0]</property>
  <property name="kdenlive:original.meta.attr.0.stream.encoder.markup">Lavc60.3.100 libx264</property>
  <property name="kdenlive:original.meta.attr.major_brand.markup">isom</property>
  <property name="kdenlive:original.meta.attr.minor_version.markup">512</property>
  <property name="kdenlive:original.meta.attr.compatible_brands.markup">isomiso2avc1mp41</property>
  <property name="kdenlive:original.meta.attr.encoder.markup">Lavf60.3.100</property>
  <property name="kdenlive:original.meta.attr.comment.markup">Rendered with Manim Community v0.17.3</property>
  <property name="kdenlive:original.seekable">1</property>
  <property name="kdenlive:original.width">1920</property>
  <property name="kdenlive:original.height">1080</property>
  <property name="kdenlive:original.meta.media.sample_aspect_num">1</property>
  <property name="kdenlive:original.meta.media.sample_aspect_den">1</property>
  <property name="kdenlive:original.format">3</property>
  <property name="kdenlive:original.audio_index">-1</property>
  <property name="kdenlive:original.video_index">0</property>
  <property name="kdenlive:original.meta.media.frame_rate_num">60</property>
  <property name="kdenlive:original.meta.media.frame_rate_den">1</property>
  <property name="kdenlive:original.meta.media.colorspace">709</property>
  <property name="kdenlive:original.meta.media.color_trc">2</property>
  <property name="kdenlive:original.meta.media.has_b_frames">2</property>
  <property name="kdenlive:original.meta.media.width">1920</property>
  <property name="kdenlive:original.meta.media.height">1080</property>
  <property name="kdenlive:original.meta.media.color_range">mpeg</property>
  <property name="kdenlive:original.meta.media.top_field_first">0</property>
  <property name="kdenlive:original.meta.media.progressive">1</property>
  <property name="kdenlive:original.kdenlive:clip_type">2</property>
  <property name="kdenlive:original.kdenlive:folderid">16</property>
  <property name="kdenlive:original.kdenlive:id">142</property>
  <property name="kdenlive:original.mute_on_pause">0</property>
  <property name="kdenlive:original.kdenlive:file_size">88233</property>
  <property name="kdenlive:original.kdenlive:file_hash">7305c7d6b9a5b7ce5380b3474d704206</property>
  <property name="kdenlive:original.backup">1</property>
  <property name="meta.media.top_field_first">0</property>
  <property name="meta.media.progressive">1</property>
 </chain>
 <chain id="chain317" out="00:00:00.983">
  <property name="length">60</property>
  <property name="eof">pause</property>
  <property name="resource">/home/xiaoxiae/.cache/kdenlive/proxy/561bc8dacf9dff5894ead08f45c921a1.mkv</property>
  <property name="mlt_service">avformat-novalidate</property>
  <property name="meta.media.nb_streams">1</property>
  <property name="meta.media.0.stream.type">video</property>
  <property name="meta.media.0.stream.frame_rate">60</property>
  <property name="meta.media.0.stream.sample_aspect_ratio">0</property>
  <property name="meta.media.0.codec.width">640</property>
  <property name="meta.media.0.codec.height">360</property>
  <property name="meta.media.0.codec.rotate">0</property>
  <property name="meta.media.0.codec.pix_fmt">yuvj420p</property>
  <property name="meta.media.0.codec.sample_aspect_ratio">0</property>
  <property name="meta.media.0.codec.colorspace">601</property>
  <property name="meta.media.0.codec.name">mjpeg</property>
  <property name="meta.media.0.codec.long_name">MJPEG (Motion JPEG)</property>
  <property name="meta.media.0.codec.bit_rate">0</property>
  <property name="meta.attr.0.stream.HANDLER_NAME.markup">VideoHandler</property>
  <property name="meta.attr.0.stream.VENDOR_ID.markup">[0][0][0][0]</property>
  <property name="meta.attr.0.stream.ENCODER.markup">Lavc60.3.100 mjpeg</property>
  <property name="meta.attr.0.stream.DURATION.markup">00:00:01.000000000</property>
  <property name="meta.attr.COMMENT.markup">Rendered with Manim Community v0.17.3</property>
  <property name="meta.attr.MAJOR_BRAND.markup">isom</property>
  <property name="meta.attr.MINOR_VERSION.markup">512</property>
  <property name="meta.attr.COMPATIBLE_BRANDS.markup">isomiso2avc1mp41</property>
  <property name="meta.attr.ENCODER.markup">Lavf60.3.100</property>
  <property name="seekable">1</property>
  <property name="meta.media.sample_aspect_num">1</property>
  <property name="meta.media.sample_aspect_den">1</property>
  <property name="format">3</property>
  <property name="audio_index">-1</property>
  <property name="video_index">0</property>
  <property name="meta.media.frame_rate_num">60</property>
  <property name="meta.media.frame_rate_den">1</property>
  <property name="meta.media.colorspace">601</property>
  <property name="meta.media.color_trc">2</property>
  <property name="meta.media.has_b_frames">0</property>
  <property name="meta.media.width">640</property>
  <property name="meta.media.height">360</property>
  <property name="meta.media.color_range">full</property>
  <property name="kdenlive:clipname">68.mp4</property>
  <property name="kdenlive:clip_type">2</property>
  <property name="kdenlive:folderid">16</property>
  <property name="kdenlive:id">143</property>
  <property name="mute_on_pause">0</property>
  <property name="kdenlive:file_size">117870</property>
  <property name="kdenlive:file_hash">561bc8dacf9dff5894ead08f45c921a1</property>
  <property name="kdenlive:proxy">/home/xiaoxiae/.cache/kdenlive/proxy/561bc8dacf9dff5894ead08f45c921a1.mkv</property>
  <property name="kdenlive:originalurl">video/Farmer/68.mp4</property>
  <property name="kdenlive:original.mlt_type">chain</property>
  <property name="kdenlive:original.in">0</property>
  <property name="kdenlive:original.out">00:00:00.983</property>
  <property name="kdenlive:original.length">60</property>
  <property name="kdenlive:original.eof">pause</property>
  <property name="kdenlive:original.resource">video/Farmer/68.mp4</property>
  <property name="kdenlive:original.mlt_service">avformat-novalidate</property>
  <property name="kdenlive:original.meta.media.nb_streams">1</property>
  <property name="kdenlive:original.meta.media.0.stream.type">video</property>
  <property name="kdenlive:original.meta.media.0.stream.frame_rate">60</property>
  <property name="kdenlive:original.meta.media.0.stream.sample_aspect_ratio">0</property>
  <property name="kdenlive:original.meta.media.0.codec.width">1920</property>
  <property name="kdenlive:original.meta.media.0.codec.height">1080</property>
  <property name="kdenlive:original.meta.media.0.codec.rotate">0</property>
  <property name="kdenlive:original.meta.media.0.codec.pix_fmt">yuv420p</property>
  <property name="kdenlive:original.meta.media.0.codec.sample_aspect_ratio">0</property>
  <property name="kdenlive:original.meta.media.0.codec.colorspace">709</property>
  <property name="kdenlive:original.meta.media.0.codec.name">h264</property>
  <property name="kdenlive:original.meta.media.0.codec.long_name">H.264 / AVC / MPEG-4 AVC / MPEG-4 part 10</property>
  <property name="kdenlive:original.meta.media.0.codec.bit_rate">930352</property>
  <property name="kdenlive:original.meta.attr.0.stream.handler_name.markup">VideoHandler</property>
  <property name="kdenlive:original.meta.attr.0.stream.vendor_id.markup">[0][0][0][0]</property>
  <property name="kdenlive:original.meta.attr.0.stream.encoder.markup">Lavc60.3.100 libx264</property>
  <property name="kdenlive:original.meta.attr.major_brand.markup">isom</property>
  <property name="kdenlive:original.meta.attr.minor_version.markup">512</property>
  <property name="kdenlive:original.meta.attr.compatible_brands.markup">isomiso2avc1mp41</property>
  <property name="kdenlive:original.meta.attr.encoder.markup">Lavf60.3.100</property>
  <property name="kdenlive:original.meta.attr.comment.markup">Rendered with Manim Community v0.17.3</property>
  <property name="kdenlive:original.seekable">1</property>
  <property name="kdenlive:original.width">1920</property>
  <property name="kdenlive:original.height">1080</property>
  <property name="kdenlive:original.meta.media.sample_aspect_num">1</property>
  <property name="kdenlive:original.meta.media.sample_aspect_den">1</property>
  <property name="kdenlive:original.format">3</property>
  <property name="kdenlive:original.audio_index">-1</property>
  <property name="kdenlive:original.video_index">0</property>
  <property name="kdenlive:original.meta.media.frame_rate_num">60</property>
  <property name="kdenlive:original.meta.media.frame_rate_den">1</property>
  <property name="kdenlive:original.meta.media.colorspace">709</property>
  <property name="kdenlive:original.meta.media.color_trc">2</property>
  <property name="kdenlive:original.meta.media.has_b_frames">2</property>
  <property name="kdenlive:original.meta.media.width">1920</property>
  <property name="kdenlive:original.meta.media.height">1080</property>
  <property name="kdenlive:original.meta.media.color_range">mpeg</property>
  <property name="kdenlive:original.meta.media.top_field_first">0</property>
  <property name="kdenlive:original.meta.media.progressive">1</property>
  <property name="kdenlive:original.kdenlive:clip_type">2</property>
  <property name="kdenlive:original.kdenlive:folderid">16</property>
  <property name="kdenlive:original.kdenlive:id">143</property>
  <property name="kdenlive:original.mute_on_pause">0</property>
  <property name="kdenlive:original.kdenlive:file_size">117870</property>
  <property name="kdenlive:original.kdenlive:file_hash">561bc8dacf9dff5894ead08f45c921a1</property>
  <property name="kdenlive:original.backup">1</property>
  <property name="meta.media.top_field_first">0</property>
  <property name="meta.media.progressive">1</property>
 </chain>
 <chain id="chain316" out="00:00:01.983">
  <property name="length">120</property>
  <property name="eof">pause</property>
  <property name="resource">/home/xiaoxiae/.cache/kdenlive/proxy/0eaa9935d177951e9642bc3cae0880e5.mkv</property>
  <property name="mlt_service">avformat-novalidate</property>
  <property name="meta.media.nb_streams">1</property>
  <property name="meta.media.0.stream.type">video</property>
  <property name="meta.media.0.stream.frame_rate">60</property>
  <property name="meta.media.0.stream.sample_aspect_ratio">0</property>
  <property name="meta.media.0.codec.width">640</property>
  <property name="meta.media.0.codec.height">360</property>
  <property name="meta.media.0.codec.rotate">0</property>
  <property name="meta.media.0.codec.pix_fmt">yuvj420p</property>
  <property name="meta.media.0.codec.sample_aspect_ratio">0</property>
  <property name="meta.media.0.codec.colorspace">601</property>
  <property name="meta.media.0.codec.name">mjpeg</property>
  <property name="meta.media.0.codec.long_name">MJPEG (Motion JPEG)</property>
  <property name="meta.media.0.codec.bit_rate">0</property>
  <property name="meta.attr.0.stream.HANDLER_NAME.markup">VideoHandler</property>
  <property name="meta.attr.0.stream.VENDOR_ID.markup">[0][0][0][0]</property>
  <property name="meta.attr.0.stream.ENCODER.markup">Lavc60.3.100 mjpeg</property>
  <property name="meta.attr.0.stream.DURATION.markup">00:00:02.000000000</property>
  <property name="meta.attr.COMMENT.markup">Rendered with Manim Community v0.17.3</property>
  <property name="meta.attr.MAJOR_BRAND.markup">isom</property>
  <property name="meta.attr.MINOR_VERSION.markup">512</property>
  <property name="meta.attr.COMPATIBLE_BRANDS.markup">isomiso2avc1mp41</property>
  <property name="meta.attr.ENCODER.markup">Lavf60.3.100</property>
  <property name="seekable">1</property>
  <property name="meta.media.sample_aspect_num">1</property>
  <property name="meta.media.sample_aspect_den">1</property>
  <property name="format">3</property>
  <property name="audio_index">-1</property>
  <property name="video_index">0</property>
  <property name="meta.media.frame_rate_num">60</property>
  <property name="meta.media.frame_rate_den">1</property>
  <property name="meta.media.colorspace">601</property>
  <property name="meta.media.color_trc">2</property>
  <property name="meta.media.has_b_frames">0</property>
  <property name="meta.media.width">640</property>
  <property name="meta.media.height">360</property>
  <property name="meta.media.color_range">full</property>
  <property name="kdenlive:clipname">69.mp4</property>
  <property name="kdenlive:clip_type">2</property>
  <property name="kdenlive:folderid">16</property>
  <property name="kdenlive:id">144</property>
  <property name="mute_on_pause">0</property>
  <property name="kdenlive:file_size">123850</property>
  <property name="kdenlive:file_hash">0eaa9935d177951e9642bc3cae0880e5</property>
  <property name="kdenlive:proxy">/home/xiaoxiae/.cache/kdenlive/proxy/0eaa9935d177951e9642bc3cae0880e5.mkv</property>
  <property name="kdenlive:originalurl">video/Farmer/69.mp4</property>
  <property name="kdenlive:original.mlt_type">chain</property>
  <property name="kdenlive:original.in">0</property>
  <property name="kdenlive:original.out">00:00:01.983</property>
  <property name="kdenlive:original.length">120</property>
  <property name="kdenlive:original.eof">pause</property>
  <property name="kdenlive:original.resource">video/Farmer/69.mp4</property>
  <property name="kdenlive:original.mlt_service">avformat-novalidate</property>
  <property name="kdenlive:original.meta.media.nb_streams">1</property>
  <property name="kdenlive:original.meta.media.0.stream.type">video</property>
  <property name="kdenlive:original.meta.media.0.stream.frame_rate">60</property>
  <property name="kdenlive:original.meta.media.0.stream.sample_aspect_ratio">0</property>
  <property name="kdenlive:original.meta.media.0.codec.width">1920</property>
  <property name="kdenlive:original.meta.media.0.codec.height">1080</property>
  <property name="kdenlive:original.meta.media.0.codec.rotate">0</property>
  <property name="kdenlive:original.meta.media.0.codec.pix_fmt">yuv420p</property>
  <property name="kdenlive:original.meta.media.0.codec.sample_aspect_ratio">0</property>
  <property name="kdenlive:original.meta.media.0.codec.colorspace">709</property>
  <property name="kdenlive:original.meta.media.0.codec.name">h264</property>
  <property name="kdenlive:original.meta.media.0.codec.long_name">H.264 / AVC / MPEG-4 AVC / MPEG-4 part 10</property>
  <property name="kdenlive:original.meta.media.0.codec.bit_rate">486056</property>
  <property name="kdenlive:original.meta.attr.0.stream.handler_name.markup">VideoHandler</property>
  <property name="kdenlive:original.meta.attr.0.stream.vendor_id.markup">[0][0][0][0]</property>
  <property name="kdenlive:original.meta.attr.0.stream.encoder.markup">Lavc60.3.100 libx264</property>
  <property name="kdenlive:original.meta.attr.major_brand.markup">isom</property>
  <property name="kdenlive:original.meta.attr.minor_version.markup">512</property>
  <property name="kdenlive:original.meta.attr.compatible_brands.markup">isomiso2avc1mp41</property>
  <property name="kdenlive:original.meta.attr.encoder.markup">Lavf60.3.100</property>
  <property name="kdenlive:original.meta.attr.comment.markup">Rendered with Manim Community v0.17.3</property>
  <property name="kdenlive:original.seekable">1</property>
  <property name="kdenlive:original.width">1920</property>
  <property name="kdenlive:original.height">1080</property>
  <property name="kdenlive:original.meta.media.sample_aspect_num">1</property>
  <property name="kdenlive:original.meta.media.sample_aspect_den">1</property>
  <property name="kdenlive:original.format">3</property>
  <property name="kdenlive:original.audio_index">-1</property>
  <property name="kdenlive:original.video_index">0</property>
  <property name="kdenlive:original.meta.media.frame_rate_num">60</property>
  <property name="kdenlive:original.meta.media.frame_rate_den">1</property>
  <property name="kdenlive:original.meta.media.colorspace">709</property>
  <property name="kdenlive:original.meta.media.color_trc">2</property>
  <property name="kdenlive:original.meta.media.has_b_frames">2</property>
  <property name="kdenlive:original.meta.media.width">1920</property>
  <property name="kdenlive:original.meta.media.height">1080</property>
  <property name="kdenlive:original.meta.media.color_range">mpeg</property>
  <property name="kdenlive:original.meta.media.top_field_first">0</property>
  <property name="kdenlive:original.meta.media.progressive">1</property>
  <property name="kdenlive:original.kdenlive:clip_type">2</property>
  <property name="kdenlive:original.kdenlive:folderid">16</property>
  <property name="kdenlive:original.kdenlive:id">144</property>
  <property name="kdenlive:original.mute_on_pause">0</property>
  <property name="kdenlive:original.kdenlive:file_size">123850</property>
  <property name="kdenlive:original.kdenlive:file_hash">0eaa9935d177951e9642bc3cae0880e5</property>
  <property name="kdenlive:original.backup">1</property>
  <property name="meta.media.top_field_first">0</property>
  <property name="meta.media.progressive">1</property>
 </chain>
 <chain id="chain420" out="00:00:00.983">
  <property name="length">60</property>
  <property name="eof">pause</property>
  <property name="resource">/home/xiaoxiae/.cache/kdenlive/proxy/79bf7ccc34891f95cd345cde7f788f07.mkv</property>
  <property name="mlt_service">avformat-novalidate</property>
  <property name="meta.media.nb_streams">1</property>
  <property name="meta.media.0.stream.type">video</property>
  <property name="meta.media.0.stream.frame_rate">60</property>
  <property name="meta.media.0.stream.sample_aspect_ratio">0</property>
  <property name="meta.media.0.codec.width">640</property>
  <property name="meta.media.0.codec.height">360</property>
  <property name="meta.media.0.codec.rotate">0</property>
  <property name="meta.media.0.codec.pix_fmt">yuvj420p</property>
  <property name="meta.media.0.codec.sample_aspect_ratio">0</property>
  <property name="meta.media.0.codec.colorspace">601</property>
  <property name="meta.media.0.codec.name">mjpeg</property>
  <property name="meta.media.0.codec.long_name">MJPEG (Motion JPEG)</property>
  <property name="meta.media.0.codec.bit_rate">0</property>
  <property name="meta.attr.0.stream.HANDLER_NAME.markup">VideoHandler</property>
  <property name="meta.attr.0.stream.VENDOR_ID.markup">[0][0][0][0]</property>
  <property name="meta.attr.0.stream.ENCODER.markup">Lavc60.3.100 mjpeg</property>
  <property name="meta.attr.0.stream.DURATION.markup">00:00:01.000000000</property>
  <property name="meta.attr.COMMENT.markup">Rendered with Manim Community v0.17.3</property>
  <property name="meta.attr.MAJOR_BRAND.markup">isom</property>
  <property name="meta.attr.MINOR_VERSION.markup">512</property>
  <property name="meta.attr.COMPATIBLE_BRANDS.markup">isomiso2avc1mp41</property>
  <property name="meta.attr.ENCODER.markup">Lavf60.3.100</property>
  <property name="seekable">1</property>
  <property name="meta.media.sample_aspect_num">1</property>
  <property name="meta.media.sample_aspect_den">1</property>
  <property name="format">3</property>
  <property name="audio_index">-1</property>
  <property name="video_index">0</property>
  <property name="meta.media.frame_rate_num">60</property>
  <property name="meta.media.frame_rate_den">1</property>
  <property name="meta.media.colorspace">601</property>
  <property name="meta.media.color_trc">2</property>
  <property name="meta.media.has_b_frames">0</property>
  <property name="meta.media.width">640</property>
  <property name="meta.media.height">360</property>
  <property name="meta.media.color_range">full</property>
  <property name="kdenlive:clipname">7.mp4</property>
  <property name="kdenlive:clip_type">2</property>
  <property name="kdenlive:folderid">16</property>
  <property name="kdenlive:id">145</property>
  <property name="mute_on_pause">0</property>
  <property name="kdenlive:file_size">115415</property>
  <property name="kdenlive:file_hash">79bf7ccc34891f95cd345cde7f788f07</property>
  <property name="kdenlive:proxy">/home/xiaoxiae/.cache/kdenlive/proxy/79bf7ccc34891f95cd345cde7f788f07.mkv</property>
  <property name="kdenlive:originalurl">video/Farmer/7.mp4</property>
  <property name="kdenlive:original.mlt_type">chain</property>
  <property name="kdenlive:original.in">0</property>
  <property name="kdenlive:original.out">00:00:00.983</property>
  <property name="kdenlive:original.length">60</property>
  <property name="kdenlive:original.eof">pause</property>
  <property name="kdenlive:original.resource">video/Farmer/7.mp4</property>
  <property name="kdenlive:original.mlt_service">avformat-novalidate</property>
  <property name="kdenlive:original.meta.media.nb_streams">1</property>
  <property name="kdenlive:original.meta.media.0.stream.type">video</property>
  <property name="kdenlive:original.meta.media.0.stream.frame_rate">60</property>
  <property name="kdenlive:original.meta.media.0.stream.sample_aspect_ratio">0</property>
  <property name="kdenlive:original.meta.media.0.codec.width">1920</property>
  <property name="kdenlive:original.meta.media.0.codec.height">1080</property>
  <property name="kdenlive:original.meta.media.0.codec.rotate">0</property>
  <property name="kdenlive:original.meta.media.0.codec.pix_fmt">yuv420p</property>
  <property name="kdenlive:original.meta.media.0.codec.sample_aspect_ratio">0</property>
  <property name="kdenlive:original.meta.media.0.codec.colorspace">709</property>
  <property name="kdenlive:original.meta.media.0.codec.name">h264</property>
  <property name="kdenlive:original.meta.media.0.codec.long_name">H.264 / AVC / MPEG-4 AVC / MPEG-4 part 10</property>
  <property name="kdenlive:original.meta.media.0.codec.bit_rate">910264</property>
  <property name="kdenlive:original.meta.attr.0.stream.handler_name.markup">VideoHandler</property>
  <property name="kdenlive:original.meta.attr.0.stream.vendor_id.markup">[0][0][0][0]</property>
  <property name="kdenlive:original.meta.attr.0.stream.encoder.markup">Lavc60.3.100 libx264</property>
  <property name="kdenlive:original.meta.attr.major_brand.markup">isom</property>
  <property name="kdenlive:original.meta.attr.minor_version.markup">512</property>
  <property name="kdenlive:original.meta.attr.compatible_brands.markup">isomiso2avc1mp41</property>
  <property name="kdenlive:original.meta.attr.encoder.markup">Lavf60.3.100</property>
  <property name="kdenlive:original.meta.attr.comment.markup">Rendered with Manim Community v0.17.3</property>
  <property name="kdenlive:original.seekable">1</property>
  <property name="kdenlive:original.width">1920</property>
  <property name="kdenlive:original.height">1080</property>
  <property name="kdenlive:original.meta.media.sample_aspect_num">1</property>
  <property name="kdenlive:original.meta.media.sample_aspect_den">1</property>
  <property name="kdenlive:original.format">3</property>
  <property name="kdenlive:original.audio_index">-1</property>
  <property name="kdenlive:original.video_index">0</property>
  <property name="kdenlive:original.meta.media.frame_rate_num">60</property>
  <property name="kdenlive:original.meta.media.frame_rate_den">1</property>
  <property name="kdenlive:original.meta.media.colorspace">709</property>
  <property name="kdenlive:original.meta.media.color_trc">2</property>
  <property name="kdenlive:original.meta.media.has_b_frames">2</property>
  <property name="kdenlive:original.meta.media.width">1920</property>
  <property name="kdenlive:original.meta.media.height">1080</property>
  <property name="kdenlive:original.meta.media.color_range">mpeg</property>
  <property name="kdenlive:original.meta.media.top_field_first">0</property>
  <property name="kdenlive:original.meta.media.progressive">1</property>
  <property name="kdenlive:original.kdenlive:clip_type">2</property>
  <property name="kdenlive:original.kdenlive:folderid">16</property>
  <property name="kdenlive:original.kdenlive:id">145</property>
  <property name="kdenlive:original.mute_on_pause">0</property>
  <property name="kdenlive:original.kdenlive:file_size">115415</property>
  <property name="kdenlive:original.kdenlive:file_hash">79bf7ccc34891f95cd345cde7f788f07</property>
  <property name="kdenlive:original.backup">1</property>
  <property name="meta.media.top_field_first">0</property>
  <property name="meta.media.progressive">1</property>
 </chain>
 <chain id="chain313" out="00:00:00.983">
  <property name="length">60</property>
  <property name="eof">pause</property>
  <property name="resource">/home/xiaoxiae/.cache/kdenlive/proxy/d4c55c768f96f53bc57a754d1419f5bc.mkv</property>
  <property name="mlt_service">avformat-novalidate</property>
  <property name="meta.media.nb_streams">1</property>
  <property name="meta.media.0.stream.type">video</property>
  <property name="meta.media.0.stream.frame_rate">60</property>
  <property name="meta.media.0.stream.sample_aspect_ratio">0</property>
  <property name="meta.media.0.codec.width">640</property>
  <property name="meta.media.0.codec.height">360</property>
  <property name="meta.media.0.codec.rotate">0</property>
  <property name="meta.media.0.codec.pix_fmt">yuvj420p</property>
  <property name="meta.media.0.codec.sample_aspect_ratio">0</property>
  <property name="meta.media.0.codec.colorspace">601</property>
  <property name="meta.media.0.codec.name">mjpeg</property>
  <property name="meta.media.0.codec.long_name">MJPEG (Motion JPEG)</property>
  <property name="meta.media.0.codec.bit_rate">0</property>
  <property name="meta.attr.0.stream.HANDLER_NAME.markup">VideoHandler</property>
  <property name="meta.attr.0.stream.VENDOR_ID.markup">[0][0][0][0]</property>
  <property name="meta.attr.0.stream.ENCODER.markup">Lavc60.3.100 mjpeg</property>
  <property name="meta.attr.0.stream.DURATION.markup">00:00:01.000000000</property>
  <property name="meta.attr.COMMENT.markup">Rendered with Manim Community v0.17.3</property>
  <property name="meta.attr.MAJOR_BRAND.markup">isom</property>
  <property name="meta.attr.MINOR_VERSION.markup">512</property>
  <property name="meta.attr.COMPATIBLE_BRANDS.markup">isomiso2avc1mp41</property>
  <property name="meta.attr.ENCODER.markup">Lavf60.3.100</property>
  <property name="seekable">1</property>
  <property name="meta.media.sample_aspect_num">1</property>
  <property name="meta.media.sample_aspect_den">1</property>
  <property name="format">3</property>
  <property name="audio_index">-1</property>
  <property name="video_index">0</property>
  <property name="meta.media.frame_rate_num">60</property>
  <property name="meta.media.frame_rate_den">1</property>
  <property name="meta.media.colorspace">601</property>
  <property name="meta.media.color_trc">2</property>
  <property name="meta.media.has_b_frames">0</property>
  <property name="meta.media.width">640</property>
  <property name="meta.media.height">360</property>
  <property name="meta.media.color_range">full</property>
  <property name="kdenlive:clipname">70.mp4</property>
  <property name="kdenlive:clip_type">2</property>
  <property name="kdenlive:folderid">16</property>
  <property name="kdenlive:id">146</property>
  <property name="mute_on_pause">0</property>
  <property name="kdenlive:file_size">59958</property>
  <property name="kdenlive:file_hash">d4c55c768f96f53bc57a754d1419f5bc</property>
  <property name="kdenlive:proxy">/home/xiaoxiae/.cache/kdenlive/proxy/d4c55c768f96f53bc57a754d1419f5bc.mkv</property>
  <property name="kdenlive:originalurl">video/Farmer/70.mp4</property>
  <property name="kdenlive:original.mlt_type">chain</property>
  <property name="kdenlive:original.in">0</property>
  <property name="kdenlive:original.out">00:00:00.983</property>
  <property name="kdenlive:original.length">60</property>
  <property name="kdenlive:original.eof">pause</property>
  <property name="kdenlive:original.resource">video/Farmer/70.mp4</property>
  <property name="kdenlive:original.mlt_service">avformat-novalidate</property>
  <property name="kdenlive:original.meta.media.nb_streams">1</property>
  <property name="kdenlive:original.meta.media.0.stream.type">video</property>
  <property name="kdenlive:original.meta.media.0.stream.frame_rate">60</property>
  <property name="kdenlive:original.meta.media.0.stream.sample_aspect_ratio">0</property>
  <property name="kdenlive:original.meta.media.0.codec.width">1920</property>
  <property name="kdenlive:original.meta.media.0.codec.height">1080</property>
  <property name="kdenlive:original.meta.media.0.codec.rotate">0</property>
  <property name="kdenlive:original.meta.media.0.codec.pix_fmt">yuv420p</property>
  <property name="kdenlive:original.meta.media.0.codec.sample_aspect_ratio">0</property>
  <property name="kdenlive:original.meta.media.0.codec.colorspace">709</property>
  <property name="kdenlive:original.meta.media.0.codec.name">h264</property>
  <property name="kdenlive:original.meta.media.0.codec.long_name">H.264 / AVC / MPEG-4 AVC / MPEG-4 part 10</property>
  <property name="kdenlive:original.meta.media.0.codec.bit_rate">466608</property>
  <property name="kdenlive:original.meta.attr.0.stream.handler_name.markup">VideoHandler</property>
  <property name="kdenlive:original.meta.attr.0.stream.vendor_id.markup">[0][0][0][0]</property>
  <property name="kdenlive:original.meta.attr.0.stream.encoder.markup">Lavc60.3.100 libx264</property>
  <property name="kdenlive:original.meta.attr.major_brand.markup">isom</property>
  <property name="kdenlive:original.meta.attr.minor_version.markup">512</property>
  <property name="kdenlive:original.meta.attr.compatible_brands.markup">isomiso2avc1mp41</property>
  <property name="kdenlive:original.meta.attr.encoder.markup">Lavf60.3.100</property>
  <property name="kdenlive:original.meta.attr.comment.markup">Rendered with Manim Community v0.17.3</property>
  <property name="kdenlive:original.seekable">1</property>
  <property name="kdenlive:original.width">1920</property>
  <property name="kdenlive:original.height">1080</property>
  <property name="kdenlive:original.meta.media.sample_aspect_num">1</property>
  <property name="kdenlive:original.meta.media.sample_aspect_den">1</property>
  <property name="kdenlive:original.format">3</property>
  <property name="kdenlive:original.audio_index">-1</property>
  <property name="kdenlive:original.video_index">0</property>
  <property name="kdenlive:original.meta.media.frame_rate_num">60</property>
  <property name="kdenlive:original.meta.media.frame_rate_den">1</property>
  <property name="kdenlive:original.meta.media.colorspace">709</property>
  <property name="kdenlive:original.meta.media.color_trc">2</property>
  <property name="kdenlive:original.meta.media.has_b_frames">2</property>
  <property name="kdenlive:original.meta.media.width">1920</property>
  <property name="kdenlive:original.meta.media.height">1080</property>
  <property name="kdenlive:original.meta.media.color_range">mpeg</property>
  <property name="kdenlive:original.meta.media.top_field_first">0</property>
  <property name="kdenlive:original.meta.media.progressive">1</property>
  <property name="kdenlive:original.kdenlive:clip_type">2</property>
  <property name="kdenlive:original.kdenlive:folderid">16</property>
  <property name="kdenlive:original.kdenlive:id">146</property>
  <property name="kdenlive:original.mute_on_pause">0</property>
  <property name="kdenlive:original.kdenlive:file_size">59958</property>
  <property name="kdenlive:original.kdenlive:file_hash">d4c55c768f96f53bc57a754d1419f5bc</property>
  <property name="kdenlive:original.backup">1</property>
  <property name="meta.media.top_field_first">0</property>
  <property name="meta.media.progressive">1</property>
 </chain>
 <chain id="chain311" out="00:00:00.983">
  <property name="length">60</property>
  <property name="eof">pause</property>
  <property name="resource">/home/xiaoxiae/.cache/kdenlive/proxy/222a81798c92f7cff3954d7e4c258d8d.mkv</property>
  <property name="mlt_service">avformat-novalidate</property>
  <property name="meta.media.nb_streams">1</property>
  <property name="meta.media.0.stream.type">video</property>
  <property name="meta.media.0.stream.frame_rate">60</property>
  <property name="meta.media.0.stream.sample_aspect_ratio">0</property>
  <property name="meta.media.0.codec.width">640</property>
  <property name="meta.media.0.codec.height">360</property>
  <property name="meta.media.0.codec.rotate">0</property>
  <property name="meta.media.0.codec.pix_fmt">yuvj420p</property>
  <property name="meta.media.0.codec.sample_aspect_ratio">0</property>
  <property name="meta.media.0.codec.colorspace">601</property>
  <property name="meta.media.0.codec.name">mjpeg</property>
  <property name="meta.media.0.codec.long_name">MJPEG (Motion JPEG)</property>
  <property name="meta.media.0.codec.bit_rate">0</property>
  <property name="meta.attr.0.stream.HANDLER_NAME.markup">VideoHandler</property>
  <property name="meta.attr.0.stream.VENDOR_ID.markup">[0][0][0][0]</property>
  <property name="meta.attr.0.stream.ENCODER.markup">Lavc60.3.100 mjpeg</property>
  <property name="meta.attr.0.stream.DURATION.markup">00:00:01.000000000</property>
  <property name="meta.attr.COMMENT.markup">Rendered with Manim Community v0.17.3</property>
  <property name="meta.attr.MAJOR_BRAND.markup">isom</property>
  <property name="meta.attr.MINOR_VERSION.markup">512</property>
  <property name="meta.attr.COMPATIBLE_BRANDS.markup">isomiso2avc1mp41</property>
  <property name="meta.attr.ENCODER.markup">Lavf60.3.100</property>
  <property name="seekable">1</property>
  <property name="meta.media.sample_aspect_num">1</property>
  <property name="meta.media.sample_aspect_den">1</property>
  <property name="format">3</property>
  <property name="audio_index">-1</property>
  <property name="video_index">0</property>
  <property name="meta.media.frame_rate_num">60</property>
  <property name="meta.media.frame_rate_den">1</property>
  <property name="meta.media.colorspace">601</property>
  <property name="meta.media.color_trc">2</property>
  <property name="meta.media.has_b_frames">0</property>
  <property name="meta.media.width">640</property>
  <property name="meta.media.height">360</property>
  <property name="meta.media.color_range">full</property>
  <property name="kdenlive:clipname">71.mp4</property>
  <property name="kdenlive:clip_type">2</property>
  <property name="kdenlive:folderid">16</property>
  <property name="kdenlive:id">147</property>
  <property name="mute_on_pause">0</property>
  <property name="kdenlive:file_size">58674</property>
  <property name="kdenlive:file_hash">222a81798c92f7cff3954d7e4c258d8d</property>
  <property name="kdenlive:proxy">/home/xiaoxiae/.cache/kdenlive/proxy/222a81798c92f7cff3954d7e4c258d8d.mkv</property>
  <property name="kdenlive:originalurl">video/Farmer/71.mp4</property>
  <property name="kdenlive:original.mlt_type">chain</property>
  <property name="kdenlive:original.in">0</property>
  <property name="kdenlive:original.out">00:00:00.983</property>
  <property name="kdenlive:original.length">60</property>
  <property name="kdenlive:original.eof">pause</property>
  <property name="kdenlive:original.resource">video/Farmer/71.mp4</property>
  <property name="kdenlive:original.mlt_service">avformat-novalidate</property>
  <property name="kdenlive:original.meta.media.nb_streams">1</property>
  <property name="kdenlive:original.meta.media.0.stream.type">video</property>
  <property name="kdenlive:original.meta.media.0.stream.frame_rate">60</property>
  <property name="kdenlive:original.meta.media.0.stream.sample_aspect_ratio">0</property>
  <property name="kdenlive:original.meta.media.0.codec.width">1920</property>
  <property name="kdenlive:original.meta.media.0.codec.height">1080</property>
  <property name="kdenlive:original.meta.media.0.codec.rotate">0</property>
  <property name="kdenlive:original.meta.media.0.codec.pix_fmt">yuv420p</property>
  <property name="kdenlive:original.meta.media.0.codec.sample_aspect_ratio">0</property>
  <property name="kdenlive:original.meta.media.0.codec.colorspace">709</property>
  <property name="kdenlive:original.meta.media.0.codec.name">h264</property>
  <property name="kdenlive:original.meta.media.0.codec.long_name">H.264 / AVC / MPEG-4 AVC / MPEG-4 part 10</property>
  <property name="kdenlive:original.meta.media.0.codec.bit_rate">456336</property>
  <property name="kdenlive:original.meta.attr.0.stream.handler_name.markup">VideoHandler</property>
  <property name="kdenlive:original.meta.attr.0.stream.vendor_id.markup">[0][0][0][0]</property>
  <property name="kdenlive:original.meta.attr.0.stream.encoder.markup">Lavc60.3.100 libx264</property>
  <property name="kdenlive:original.meta.attr.major_brand.markup">isom</property>
  <property name="kdenlive:original.meta.attr.minor_version.markup">512</property>
  <property name="kdenlive:original.meta.attr.compatible_brands.markup">isomiso2avc1mp41</property>
  <property name="kdenlive:original.meta.attr.encoder.markup">Lavf60.3.100</property>
  <property name="kdenlive:original.meta.attr.comment.markup">Rendered with Manim Community v0.17.3</property>
  <property name="kdenlive:original.seekable">1</property>
  <property name="kdenlive:original.width">1920</property>
  <property name="kdenlive:original.height">1080</property>
  <property name="kdenlive:original.meta.media.sample_aspect_num">1</property>
  <property name="kdenlive:original.meta.media.sample_aspect_den">1</property>
  <property name="kdenlive:original.format">3</property>
  <property name="kdenlive:original.audio_index">-1</property>
  <property name="kdenlive:original.video_index">0</property>
  <property name="kdenlive:original.meta.media.frame_rate_num">60</property>
  <property name="kdenlive:original.meta.media.frame_rate_den">1</property>
  <property name="kdenlive:original.meta.media.colorspace">709</property>
  <property name="kdenlive:original.meta.media.color_trc">2</property>
  <property name="kdenlive:original.meta.media.has_b_frames">2</property>
  <property name="kdenlive:original.meta.media.width">1920</property>
  <property name="kdenlive:original.meta.media.height">1080</property>
  <property name="kdenlive:original.meta.media.color_range">mpeg</property>
  <property name="kdenlive:original.meta.media.top_field_first">0</property>
  <property name="kdenlive:original.meta.media.progressive">1</property>
  <property name="kdenlive:original.kdenlive:clip_type">2</property>
  <property name="kdenlive:original.kdenlive:folderid">16</property>
  <property name="kdenlive:original.kdenlive:id">147</property>
  <property name="kdenlive:original.mute_on_pause">0</property>
  <property name="kdenlive:original.kdenlive:file_size">58674</property>
  <property name="kdenlive:original.kdenlive:file_hash">222a81798c92f7cff3954d7e4c258d8d</property>
  <property name="kdenlive:original.backup">1</property>
  <property name="meta.media.top_field_first">0</property>
  <property name="meta.media.progressive">1</property>
 </chain>
 <chain id="chain310" out="00:00:00.983">
  <property name="length">60</property>
  <property name="eof">pause</property>
  <property name="resource">/home/xiaoxiae/.cache/kdenlive/proxy/0f82ad38daccda0982ffa74b8e2182d7.mkv</property>
  <property name="mlt_service">avformat-novalidate</property>
  <property name="meta.media.nb_streams">1</property>
  <property name="meta.media.0.stream.type">video</property>
  <property name="meta.media.0.stream.frame_rate">60</property>
  <property name="meta.media.0.stream.sample_aspect_ratio">0</property>
  <property name="meta.media.0.codec.width">640</property>
  <property name="meta.media.0.codec.height">360</property>
  <property name="meta.media.0.codec.rotate">0</property>
  <property name="meta.media.0.codec.pix_fmt">yuvj420p</property>
  <property name="meta.media.0.codec.sample_aspect_ratio">0</property>
  <property name="meta.media.0.codec.colorspace">601</property>
  <property name="meta.media.0.codec.name">mjpeg</property>
  <property name="meta.media.0.codec.long_name">MJPEG (Motion JPEG)</property>
  <property name="meta.media.0.codec.bit_rate">0</property>
  <property name="meta.attr.0.stream.HANDLER_NAME.markup">VideoHandler</property>
  <property name="meta.attr.0.stream.VENDOR_ID.markup">[0][0][0][0]</property>
  <property name="meta.attr.0.stream.ENCODER.markup">Lavc60.3.100 mjpeg</property>
  <property name="meta.attr.0.stream.DURATION.markup">00:00:01.000000000</property>
  <property name="meta.attr.COMMENT.markup">Rendered with Manim Community v0.17.3</property>
  <property name="meta.attr.MAJOR_BRAND.markup">isom</property>
  <property name="meta.attr.MINOR_VERSION.markup">512</property>
  <property name="meta.attr.COMPATIBLE_BRANDS.markup">isomiso2avc1mp41</property>
  <property name="meta.attr.ENCODER.markup">Lavf60.3.100</property>
  <property name="seekable">1</property>
  <property name="meta.media.sample_aspect_num">1</property>
  <property name="meta.media.sample_aspect_den">1</property>
  <property name="format">3</property>
  <property name="audio_index">-1</property>
  <property name="video_index">0</property>
  <property name="meta.media.frame_rate_num">60</property>
  <property name="meta.media.frame_rate_den">1</property>
  <property name="meta.media.colorspace">601</property>
  <property name="meta.media.color_trc">2</property>
  <property name="meta.media.has_b_frames">0</property>
  <property name="meta.media.width">640</property>
  <property name="meta.media.height">360</property>
  <property name="meta.media.color_range">full</property>
  <property name="kdenlive:clipname">72.mp4</property>
  <property name="kdenlive:clip_type">2</property>
  <property name="kdenlive:folderid">16</property>
  <property name="kdenlive:id">148</property>
  <property name="mute_on_pause">0</property>
  <property name="kdenlive:file_size">65523</property>
  <property name="kdenlive:file_hash">0f82ad38daccda0982ffa74b8e2182d7</property>
  <property name="kdenlive:proxy">/home/xiaoxiae/.cache/kdenlive/proxy/0f82ad38daccda0982ffa74b8e2182d7.mkv</property>
  <property name="kdenlive:originalurl">video/Farmer/72.mp4</property>
  <property name="kdenlive:original.mlt_type">chain</property>
  <property name="kdenlive:original.in">0</property>
  <property name="kdenlive:original.out">00:00:00.983</property>
  <property name="kdenlive:original.length">60</property>
  <property name="kdenlive:original.eof">pause</property>
  <property name="kdenlive:original.resource">video/Farmer/72.mp4</property>
  <property name="kdenlive:original.mlt_service">avformat-novalidate</property>
  <property name="kdenlive:original.meta.media.nb_streams">1</property>
  <property name="kdenlive:original.meta.media.0.stream.type">video</property>
  <property name="kdenlive:original.meta.media.0.stream.frame_rate">60</property>
  <property name="kdenlive:original.meta.media.0.stream.sample_aspect_ratio">0</property>
  <property name="kdenlive:original.meta.media.0.codec.width">1920</property>
  <property name="kdenlive:original.meta.media.0.codec.height">1080</property>
  <property name="kdenlive:original.meta.media.0.codec.rotate">0</property>
  <property name="kdenlive:original.meta.media.0.codec.pix_fmt">yuv420p</property>
  <property name="kdenlive:original.meta.media.0.codec.sample_aspect_ratio">0</property>
  <property name="kdenlive:original.meta.media.0.codec.colorspace">709</property>
  <property name="kdenlive:original.meta.media.0.codec.name">h264</property>
  <property name="kdenlive:original.meta.media.0.codec.long_name">H.264 / AVC / MPEG-4 AVC / MPEG-4 part 10</property>
  <property name="kdenlive:original.meta.media.0.codec.bit_rate">511128</property>
  <property name="kdenlive:original.meta.attr.0.stream.handler_name.markup">VideoHandler</property>
  <property name="kdenlive:original.meta.attr.0.stream.vendor_id.markup">[0][0][0][0]</property>
  <property name="kdenlive:original.meta.attr.0.stream.encoder.markup">Lavc60.3.100 libx264</property>
  <property name="kdenlive:original.meta.attr.major_brand.markup">isom</property>
  <property name="kdenlive:original.meta.attr.minor_version.markup">512</property>
  <property name="kdenlive:original.meta.attr.compatible_brands.markup">isomiso2avc1mp41</property>
  <property name="kdenlive:original.meta.attr.encoder.markup">Lavf60.3.100</property>
  <property name="kdenlive:original.meta.attr.comment.markup">Rendered with Manim Community v0.17.3</property>
  <property name="kdenlive:original.seekable">1</property>
  <property name="kdenlive:original.width">1920</property>
  <property name="kdenlive:original.height">1080</property>
  <property name="kdenlive:original.meta.media.sample_aspect_num">1</property>
  <property name="kdenlive:original.meta.media.sample_aspect_den">1</property>
  <property name="kdenlive:original.format">3</property>
  <property name="kdenlive:original.audio_index">-1</property>
  <property name="kdenlive:original.video_index">0</property>
  <property name="kdenlive:original.meta.media.frame_rate_num">60</property>
  <property name="kdenlive:original.meta.media.frame_rate_den">1</property>
  <property name="kdenlive:original.meta.media.colorspace">709</property>
  <property name="kdenlive:original.meta.media.color_trc">2</property>
  <property name="kdenlive:original.meta.media.has_b_frames">2</property>
  <property name="kdenlive:original.meta.media.width">1920</property>
  <property name="kdenlive:original.meta.media.height">1080</property>
  <property name="kdenlive:original.meta.media.color_range">mpeg</property>
  <property name="kdenlive:original.meta.media.top_field_first">0</property>
  <property name="kdenlive:original.meta.media.progressive">1</property>
  <property name="kdenlive:original.kdenlive:clip_type">2</property>
  <property name="kdenlive:original.kdenlive:folderid">16</property>
  <property name="kdenlive:original.kdenlive:id">148</property>
  <property name="kdenlive:original.mute_on_pause">0</property>
  <property name="kdenlive:original.kdenlive:file_size">65523</property>
  <property name="kdenlive:original.kdenlive:file_hash">0f82ad38daccda0982ffa74b8e2182d7</property>
  <property name="kdenlive:original.backup">1</property>
  <property name="meta.media.top_field_first">0</property>
  <property name="meta.media.progressive">1</property>
 </chain>
 <chain id="chain306" out="00:00:01.233">
  <property name="length">75</property>
  <property name="eof">pause</property>
  <property name="resource">/home/xiaoxiae/.cache/kdenlive/proxy/438821924c77addc301aa481e20b620b.mkv</property>
  <property name="mlt_service">avformat-novalidate</property>
  <property name="meta.media.nb_streams">1</property>
  <property name="meta.media.0.stream.type">video</property>
  <property name="meta.media.0.stream.frame_rate">60</property>
  <property name="meta.media.0.stream.sample_aspect_ratio">0</property>
  <property name="meta.media.0.codec.width">640</property>
  <property name="meta.media.0.codec.height">360</property>
  <property name="meta.media.0.codec.rotate">0</property>
  <property name="meta.media.0.codec.pix_fmt">yuvj420p</property>
  <property name="meta.media.0.codec.sample_aspect_ratio">0</property>
  <property name="meta.media.0.codec.colorspace">601</property>
  <property name="meta.media.0.codec.name">mjpeg</property>
  <property name="meta.media.0.codec.long_name">MJPEG (Motion JPEG)</property>
  <property name="meta.media.0.codec.bit_rate">0</property>
  <property name="meta.attr.0.stream.HANDLER_NAME.markup">VideoHandler</property>
  <property name="meta.attr.0.stream.VENDOR_ID.markup">[0][0][0][0]</property>
  <property name="meta.attr.0.stream.ENCODER.markup">Lavc60.3.100 mjpeg</property>
  <property name="meta.attr.0.stream.DURATION.markup">00:00:01.250000000</property>
  <property name="meta.attr.COMMENT.markup">Rendered with Manim Community v0.17.3</property>
  <property name="meta.attr.MAJOR_BRAND.markup">isom</property>
  <property name="meta.attr.MINOR_VERSION.markup">512</property>
  <property name="meta.attr.COMPATIBLE_BRANDS.markup">isomiso2avc1mp41</property>
  <property name="meta.attr.ENCODER.markup">Lavf60.3.100</property>
  <property name="seekable">1</property>
  <property name="meta.media.sample_aspect_num">1</property>
  <property name="meta.media.sample_aspect_den">1</property>
  <property name="format">3</property>
  <property name="audio_index">-1</property>
  <property name="video_index">0</property>
  <property name="meta.media.frame_rate_num">60</property>
  <property name="meta.media.frame_rate_den">1</property>
  <property name="meta.media.colorspace">601</property>
  <property name="meta.media.color_trc">2</property>
  <property name="meta.media.has_b_frames">0</property>
  <property name="meta.media.width">640</property>
  <property name="meta.media.height">360</property>
  <property name="meta.media.color_range">full</property>
  <property name="kdenlive:clipname">73.mp4</property>
  <property name="kdenlive:clip_type">2</property>
  <property name="kdenlive:folderid">16</property>
  <property name="kdenlive:id">149</property>
  <property name="mute_on_pause">0</property>
  <property name="kdenlive:file_size">98693</property>
  <property name="kdenlive:file_hash">438821924c77addc301aa481e20b620b</property>
  <property name="kdenlive:proxy">/home/xiaoxiae/.cache/kdenlive/proxy/438821924c77addc301aa481e20b620b.mkv</property>
  <property name="kdenlive:originalurl">video/Farmer/73.mp4</property>
  <property name="kdenlive:original.mlt_type">chain</property>
  <property name="kdenlive:original.in">0</property>
  <property name="kdenlive:original.out">00:00:01.233</property>
  <property name="kdenlive:original.length">75</property>
  <property name="kdenlive:original.eof">pause</property>
  <property name="kdenlive:original.resource">video/Farmer/73.mp4</property>
  <property name="kdenlive:original.mlt_service">avformat-novalidate</property>
  <property name="kdenlive:original.meta.media.nb_streams">1</property>
  <property name="kdenlive:original.meta.media.0.stream.type">video</property>
  <property name="kdenlive:original.meta.media.0.stream.frame_rate">60</property>
  <property name="kdenlive:original.meta.media.0.stream.sample_aspect_ratio">0</property>
  <property name="kdenlive:original.meta.media.0.codec.width">1920</property>
  <property name="kdenlive:original.meta.media.0.codec.height">1080</property>
  <property name="kdenlive:original.meta.media.0.codec.rotate">0</property>
  <property name="kdenlive:original.meta.media.0.codec.pix_fmt">yuv420p</property>
  <property name="kdenlive:original.meta.media.0.codec.sample_aspect_ratio">0</property>
  <property name="kdenlive:original.meta.media.0.codec.colorspace">709</property>
  <property name="kdenlive:original.meta.media.0.codec.name">h264</property>
  <property name="kdenlive:original.meta.media.0.codec.long_name">H.264 / AVC / MPEG-4 AVC / MPEG-4 part 10</property>
  <property name="kdenlive:original.meta.media.0.codec.bit_rate">619987</property>
  <property name="kdenlive:original.meta.attr.0.stream.handler_name.markup">VideoHandler</property>
  <property name="kdenlive:original.meta.attr.0.stream.vendor_id.markup">[0][0][0][0]</property>
  <property name="kdenlive:original.meta.attr.0.stream.encoder.markup">Lavc60.3.100 libx264</property>
  <property name="kdenlive:original.meta.attr.major_brand.markup">isom</property>
  <property name="kdenlive:original.meta.attr.minor_version.markup">512</property>
  <property name="kdenlive:original.meta.attr.compatible_brands.markup">isomiso2avc1mp41</property>
  <property name="kdenlive:original.meta.attr.encoder.markup">Lavf60.3.100</property>
  <property name="kdenlive:original.meta.attr.comment.markup">Rendered with Manim Community v0.17.3</property>
  <property name="kdenlive:original.seekable">1</property>
  <property name="kdenlive:original.width">1920</property>
  <property name="kdenlive:original.height">1080</property>
  <property name="kdenlive:original.meta.media.sample_aspect_num">1</property>
  <property name="kdenlive:original.meta.media.sample_aspect_den">1</property>
  <property name="kdenlive:original.format">3</property>
  <property name="kdenlive:original.audio_index">-1</property>
  <property name="kdenlive:original.video_index">0</property>
  <property name="kdenlive:original.meta.media.frame_rate_num">60</property>
  <property name="kdenlive:original.meta.media.frame_rate_den">1</property>
  <property name="kdenlive:original.meta.media.colorspace">709</property>
  <property name="kdenlive:original.meta.media.color_trc">2</property>
  <property name="kdenlive:original.meta.media.has_b_frames">2</property>
  <property name="kdenlive:original.meta.media.width">1920</property>
  <property name="kdenlive:original.meta.media.height">1080</property>
  <property name="kdenlive:original.meta.media.color_range">mpeg</property>
  <property name="kdenlive:original.meta.media.top_field_first">0</property>
  <property name="kdenlive:original.meta.media.progressive">1</property>
  <property name="kdenlive:original.kdenlive:clip_type">2</property>
  <property name="kdenlive:original.kdenlive:folderid">16</property>
  <property name="kdenlive:original.kdenlive:id">149</property>
  <property name="kdenlive:original.mute_on_pause">0</property>
  <property name="kdenlive:original.kdenlive:file_size">98693</property>
  <property name="kdenlive:original.kdenlive:file_hash">438821924c77addc301aa481e20b620b</property>
  <property name="kdenlive:original.backup">1</property>
  <property name="meta.media.top_field_first">0</property>
  <property name="meta.media.progressive">1</property>
 </chain>
 <chain id="chain305" out="00:00:01.983">
  <property name="length">120</property>
  <property name="eof">pause</property>
  <property name="resource">/home/xiaoxiae/.cache/kdenlive/proxy/e51db21284fc9c7febafea96a6098512.mkv</property>
  <property name="mlt_service">avformat-novalidate</property>
  <property name="meta.media.nb_streams">1</property>
  <property name="meta.media.0.stream.type">video</property>
  <property name="meta.media.0.stream.frame_rate">60</property>
  <property name="meta.media.0.stream.sample_aspect_ratio">0</property>
  <property name="meta.media.0.codec.width">640</property>
  <property name="meta.media.0.codec.height">360</property>
  <property name="meta.media.0.codec.rotate">0</property>
  <property name="meta.media.0.codec.pix_fmt">yuvj420p</property>
  <property name="meta.media.0.codec.sample_aspect_ratio">0</property>
  <property name="meta.media.0.codec.colorspace">601</property>
  <property name="meta.media.0.codec.name">mjpeg</property>
  <property name="meta.media.0.codec.long_name">MJPEG (Motion JPEG)</property>
  <property name="meta.media.0.codec.bit_rate">0</property>
  <property name="meta.attr.0.stream.HANDLER_NAME.markup">VideoHandler</property>
  <property name="meta.attr.0.stream.VENDOR_ID.markup">[0][0][0][0]</property>
  <property name="meta.attr.0.stream.ENCODER.markup">Lavc60.3.100 mjpeg</property>
  <property name="meta.attr.0.stream.DURATION.markup">00:00:02.000000000</property>
  <property name="meta.attr.COMMENT.markup">Rendered with Manim Community v0.17.3</property>
  <property name="meta.attr.MAJOR_BRAND.markup">isom</property>
  <property name="meta.attr.MINOR_VERSION.markup">512</property>
  <property name="meta.attr.COMPATIBLE_BRANDS.markup">isomiso2avc1mp41</property>
  <property name="meta.attr.ENCODER.markup">Lavf60.3.100</property>
  <property name="seekable">1</property>
  <property name="meta.media.sample_aspect_num">1</property>
  <property name="meta.media.sample_aspect_den">1</property>
  <property name="format">3</property>
  <property name="audio_index">-1</property>
  <property name="video_index">0</property>
  <property name="meta.media.frame_rate_num">60</property>
  <property name="meta.media.frame_rate_den">1</property>
  <property name="meta.media.colorspace">601</property>
  <property name="meta.media.color_trc">2</property>
  <property name="meta.media.has_b_frames">0</property>
  <property name="meta.media.width">640</property>
  <property name="meta.media.height">360</property>
  <property name="meta.media.color_range">full</property>
  <property name="kdenlive:clipname">74.mp4</property>
  <property name="kdenlive:clip_type">2</property>
  <property name="kdenlive:folderid">16</property>
  <property name="kdenlive:id">150</property>
  <property name="mute_on_pause">0</property>
  <property name="kdenlive:file_size">125273</property>
  <property name="kdenlive:file_hash">e51db21284fc9c7febafea96a6098512</property>
  <property name="kdenlive:proxy">/home/xiaoxiae/.cache/kdenlive/proxy/e51db21284fc9c7febafea96a6098512.mkv</property>
  <property name="kdenlive:originalurl">video/Farmer/74.mp4</property>
  <property name="kdenlive:original.mlt_type">chain</property>
  <property name="kdenlive:original.in">0</property>
  <property name="kdenlive:original.out">00:00:01.983</property>
  <property name="kdenlive:original.length">120</property>
  <property name="kdenlive:original.eof">pause</property>
  <property name="kdenlive:original.resource">video/Farmer/74.mp4</property>
  <property name="kdenlive:original.mlt_service">avformat-novalidate</property>
  <property name="kdenlive:original.meta.media.nb_streams">1</property>
  <property name="kdenlive:original.meta.media.0.stream.type">video</property>
  <property name="kdenlive:original.meta.media.0.stream.frame_rate">60</property>
  <property name="kdenlive:original.meta.media.0.stream.sample_aspect_ratio">0</property>
  <property name="kdenlive:original.meta.media.0.codec.width">1920</property>
  <property name="kdenlive:original.meta.media.0.codec.height">1080</property>
  <property name="kdenlive:original.meta.media.0.codec.rotate">0</property>
  <property name="kdenlive:original.meta.media.0.codec.pix_fmt">yuv420p</property>
  <property name="kdenlive:original.meta.media.0.codec.sample_aspect_ratio">0</property>
  <property name="kdenlive:original.meta.media.0.codec.colorspace">709</property>
  <property name="kdenlive:original.meta.media.0.codec.name">h264</property>
  <property name="kdenlive:original.meta.media.0.codec.long_name">H.264 / AVC / MPEG-4 AVC / MPEG-4 part 10</property>
  <property name="kdenlive:original.meta.media.0.codec.bit_rate">492132</property>
  <property name="kdenlive:original.meta.attr.0.stream.handler_name.markup">VideoHandler</property>
  <property name="kdenlive:original.meta.attr.0.stream.vendor_id.markup">[0][0][0][0]</property>
  <property name="kdenlive:original.meta.attr.0.stream.encoder.markup">Lavc60.3.100 libx264</property>
  <property name="kdenlive:original.meta.attr.major_brand.markup">isom</property>
  <property name="kdenlive:original.meta.attr.minor_version.markup">512</property>
  <property name="kdenlive:original.meta.attr.compatible_brands.markup">isomiso2avc1mp41</property>
  <property name="kdenlive:original.meta.attr.encoder.markup">Lavf60.3.100</property>
  <property name="kdenlive:original.meta.attr.comment.markup">Rendered with Manim Community v0.17.3</property>
  <property name="kdenlive:original.seekable">1</property>
  <property name="kdenlive:original.width">1920</property>
  <property name="kdenlive:original.height">1080</property>
  <property name="kdenlive:original.meta.media.sample_aspect_num">1</property>
  <property name="kdenlive:original.meta.media.sample_aspect_den">1</property>
  <property name="kdenlive:original.format">3</property>
  <property name="kdenlive:original.audio_index">-1</property>
  <property name="kdenlive:original.video_index">0</property>
  <property name="kdenlive:original.meta.media.frame_rate_num">60</property>
  <property name="kdenlive:original.meta.media.frame_rate_den">1</property>
  <property name="kdenlive:original.meta.media.colorspace">709</property>
  <property name="kdenlive:original.meta.media.color_trc">2</property>
  <property name="kdenlive:original.meta.media.has_b_frames">2</property>
  <property name="kdenlive:original.meta.media.width">1920</property>
  <property name="kdenlive:original.meta.media.height">1080</property>
  <property name="kdenlive:original.meta.media.color_range">mpeg</property>
  <property name="kdenlive:original.meta.media.top_field_first">0</property>
  <property name="kdenlive:original.meta.media.progressive">1</property>
  <property name="kdenlive:original.kdenlive:clip_type">2</property>
  <property name="kdenlive:original.kdenlive:folderid">16</property>
  <property name="kdenlive:original.kdenlive:id">150</property>
  <property name="kdenlive:original.mute_on_pause">0</property>
  <property name="kdenlive:original.kdenlive:file_size">125273</property>
  <property name="kdenlive:original.kdenlive:file_hash">e51db21284fc9c7febafea96a6098512</property>
  <property name="kdenlive:original.backup">1</property>
  <property name="meta.media.top_field_first">0</property>
  <property name="meta.media.progressive">1</property>
 </chain>
 <chain id="chain303" out="00:00:00.983">
  <property name="length">60</property>
  <property name="eof">pause</property>
  <property name="resource">/home/xiaoxiae/.cache/kdenlive/proxy/f9ee28cd049fe5e62b792d3b14659366.mkv</property>
  <property name="mlt_service">avformat-novalidate</property>
  <property name="meta.media.nb_streams">1</property>
  <property name="meta.media.0.stream.type">video</property>
  <property name="meta.media.0.stream.frame_rate">60</property>
  <property name="meta.media.0.stream.sample_aspect_ratio">0</property>
  <property name="meta.media.0.codec.width">640</property>
  <property name="meta.media.0.codec.height">360</property>
  <property name="meta.media.0.codec.rotate">0</property>
  <property name="meta.media.0.codec.pix_fmt">yuvj420p</property>
  <property name="meta.media.0.codec.sample_aspect_ratio">0</property>
  <property name="meta.media.0.codec.colorspace">601</property>
  <property name="meta.media.0.codec.name">mjpeg</property>
  <property name="meta.media.0.codec.long_name">MJPEG (Motion JPEG)</property>
  <property name="meta.media.0.codec.bit_rate">0</property>
  <property name="meta.attr.0.stream.HANDLER_NAME.markup">VideoHandler</property>
  <property name="meta.attr.0.stream.VENDOR_ID.markup">[0][0][0][0]</property>
  <property name="meta.attr.0.stream.ENCODER.markup">Lavc60.3.100 mjpeg</property>
  <property name="meta.attr.0.stream.DURATION.markup">00:00:01.000000000</property>
  <property name="meta.attr.COMMENT.markup">Rendered with Manim Community v0.17.3</property>
  <property name="meta.attr.MAJOR_BRAND.markup">isom</property>
  <property name="meta.attr.MINOR_VERSION.markup">512</property>
  <property name="meta.attr.COMPATIBLE_BRANDS.markup">isomiso2avc1mp41</property>
  <property name="meta.attr.ENCODER.markup">Lavf60.3.100</property>
  <property name="seekable">1</property>
  <property name="meta.media.sample_aspect_num">1</property>
  <property name="meta.media.sample_aspect_den">1</property>
  <property name="format">3</property>
  <property name="audio_index">-1</property>
  <property name="video_index">0</property>
  <property name="meta.media.frame_rate_num">60</property>
  <property name="meta.media.frame_rate_den">1</property>
  <property name="meta.media.colorspace">601</property>
  <property name="meta.media.color_trc">2</property>
  <property name="meta.media.has_b_frames">0</property>
  <property name="meta.media.width">640</property>
  <property name="meta.media.height">360</property>
  <property name="meta.media.color_range">full</property>
  <property name="kdenlive:clipname">75.mp4</property>
  <property name="kdenlive:clip_type">2</property>
  <property name="kdenlive:folderid">16</property>
  <property name="kdenlive:id">151</property>
  <property name="mute_on_pause">0</property>
  <property name="kdenlive:file_size">54854</property>
  <property name="kdenlive:file_hash">f9ee28cd049fe5e62b792d3b14659366</property>
  <property name="kdenlive:proxy">/home/xiaoxiae/.cache/kdenlive/proxy/f9ee28cd049fe5e62b792d3b14659366.mkv</property>
  <property name="kdenlive:originalurl">video/Farmer/75.mp4</property>
  <property name="kdenlive:original.mlt_type">chain</property>
  <property name="kdenlive:original.in">0</property>
  <property name="kdenlive:original.out">00:00:00.983</property>
  <property name="kdenlive:original.length">60</property>
  <property name="kdenlive:original.eof">pause</property>
  <property name="kdenlive:original.resource">video/Farmer/75.mp4</property>
  <property name="kdenlive:original.mlt_service">avformat-novalidate</property>
  <property name="kdenlive:original.meta.media.nb_streams">1</property>
  <property name="kdenlive:original.meta.media.0.stream.type">video</property>
  <property name="kdenlive:original.meta.media.0.stream.frame_rate">60</property>
  <property name="kdenlive:original.meta.media.0.stream.sample_aspect_ratio">0</property>
  <property name="kdenlive:original.meta.media.0.codec.width">1920</property>
  <property name="kdenlive:original.meta.media.0.codec.height">1080</property>
  <property name="kdenlive:original.meta.media.0.codec.rotate">0</property>
  <property name="kdenlive:original.meta.media.0.codec.pix_fmt">yuv420p</property>
  <property name="kdenlive:original.meta.media.0.codec.sample_aspect_ratio">0</property>
  <property name="kdenlive:original.meta.media.0.codec.colorspace">709</property>
  <property name="kdenlive:original.meta.media.0.codec.name">h264</property>
  <property name="kdenlive:original.meta.media.0.codec.long_name">H.264 / AVC / MPEG-4 AVC / MPEG-4 part 10</property>
  <property name="kdenlive:original.meta.media.0.codec.bit_rate">425776</property>
  <property name="kdenlive:original.meta.attr.0.stream.handler_name.markup">VideoHandler</property>
  <property name="kdenlive:original.meta.attr.0.stream.vendor_id.markup">[0][0][0][0]</property>
  <property name="kdenlive:original.meta.attr.0.stream.encoder.markup">Lavc60.3.100 libx264</property>
  <property name="kdenlive:original.meta.attr.major_brand.markup">isom</property>
  <property name="kdenlive:original.meta.attr.minor_version.markup">512</property>
  <property name="kdenlive:original.meta.attr.compatible_brands.markup">isomiso2avc1mp41</property>
  <property name="kdenlive:original.meta.attr.encoder.markup">Lavf60.3.100</property>
  <property name="kdenlive:original.meta.attr.comment.markup">Rendered with Manim Community v0.17.3</property>
  <property name="kdenlive:original.seekable">1</property>
  <property name="kdenlive:original.width">1920</property>
  <property name="kdenlive:original.height">1080</property>
  <property name="kdenlive:original.meta.media.sample_aspect_num">1</property>
  <property name="kdenlive:original.meta.media.sample_aspect_den">1</property>
  <property name="kdenlive:original.format">3</property>
  <property name="kdenlive:original.audio_index">-1</property>
  <property name="kdenlive:original.video_index">0</property>
  <property name="kdenlive:original.meta.media.frame_rate_num">60</property>
  <property name="kdenlive:original.meta.media.frame_rate_den">1</property>
  <property name="kdenlive:original.meta.media.colorspace">709</property>
  <property name="kdenlive:original.meta.media.color_trc">2</property>
  <property name="kdenlive:original.meta.media.has_b_frames">2</property>
  <property name="kdenlive:original.meta.media.width">1920</property>
  <property name="kdenlive:original.meta.media.height">1080</property>
  <property name="kdenlive:original.meta.media.color_range">mpeg</property>
  <property name="kdenlive:original.meta.media.top_field_first">0</property>
  <property name="kdenlive:original.meta.media.progressive">1</property>
  <property name="kdenlive:original.kdenlive:clip_type">2</property>
  <property name="kdenlive:original.kdenlive:folderid">16</property>
  <property name="kdenlive:original.kdenlive:id">151</property>
  <property name="kdenlive:original.mute_on_pause">0</property>
  <property name="kdenlive:original.kdenlive:file_size">54854</property>
  <property name="kdenlive:original.kdenlive:file_hash">f9ee28cd049fe5e62b792d3b14659366</property>
  <property name="kdenlive:original.backup">1</property>
  <property name="meta.media.top_field_first">0</property>
  <property name="meta.media.progressive">1</property>
 </chain>
 <chain id="chain302" out="00:00:00.983">
  <property name="length">60</property>
  <property name="eof">pause</property>
  <property name="resource">/home/xiaoxiae/.cache/kdenlive/proxy/ac1ff3c6de004732ac1d7841137f9f65.mkv</property>
  <property name="mlt_service">avformat-novalidate</property>
  <property name="meta.media.nb_streams">1</property>
  <property name="meta.media.0.stream.type">video</property>
  <property name="meta.media.0.stream.frame_rate">60</property>
  <property name="meta.media.0.stream.sample_aspect_ratio">0</property>
  <property name="meta.media.0.codec.width">640</property>
  <property name="meta.media.0.codec.height">360</property>
  <property name="meta.media.0.codec.rotate">0</property>
  <property name="meta.media.0.codec.pix_fmt">yuvj420p</property>
  <property name="meta.media.0.codec.sample_aspect_ratio">0</property>
  <property name="meta.media.0.codec.colorspace">601</property>
  <property name="meta.media.0.codec.name">mjpeg</property>
  <property name="meta.media.0.codec.long_name">MJPEG (Motion JPEG)</property>
  <property name="meta.media.0.codec.bit_rate">0</property>
  <property name="meta.attr.0.stream.HANDLER_NAME.markup">VideoHandler</property>
  <property name="meta.attr.0.stream.VENDOR_ID.markup">[0][0][0][0]</property>
  <property name="meta.attr.0.stream.ENCODER.markup">Lavc60.3.100 mjpeg</property>
  <property name="meta.attr.0.stream.DURATION.markup">00:00:01.000000000</property>
  <property name="meta.attr.COMMENT.markup">Rendered with Manim Community v0.17.3</property>
  <property name="meta.attr.MAJOR_BRAND.markup">isom</property>
  <property name="meta.attr.MINOR_VERSION.markup">512</property>
  <property name="meta.attr.COMPATIBLE_BRANDS.markup">isomiso2avc1mp41</property>
  <property name="meta.attr.ENCODER.markup">Lavf60.3.100</property>
  <property name="seekable">1</property>
  <property name="meta.media.sample_aspect_num">1</property>
  <property name="meta.media.sample_aspect_den">1</property>
  <property name="format">3</property>
  <property name="audio_index">-1</property>
  <property name="video_index">0</property>
  <property name="meta.media.frame_rate_num">60</property>
  <property name="meta.media.frame_rate_den">1</property>
  <property name="meta.media.colorspace">601</property>
  <property name="meta.media.color_trc">2</property>
  <property name="meta.media.has_b_frames">0</property>
  <property name="meta.media.width">640</property>
  <property name="meta.media.height">360</property>
  <property name="meta.media.color_range">full</property>
  <property name="kdenlive:clipname">76.mp4</property>
  <property name="kdenlive:clip_type">2</property>
  <property name="kdenlive:folderid">16</property>
  <property name="kdenlive:id">152</property>
  <property name="mute_on_pause">0</property>
  <property name="kdenlive:file_size">93042</property>
  <property name="kdenlive:file_hash">ac1ff3c6de004732ac1d7841137f9f65</property>
  <property name="kdenlive:proxy">/home/xiaoxiae/.cache/kdenlive/proxy/ac1ff3c6de004732ac1d7841137f9f65.mkv</property>
  <property name="kdenlive:originalurl">video/Farmer/76.mp4</property>
  <property name="kdenlive:original.mlt_type">chain</property>
  <property name="kdenlive:original.in">0</property>
  <property name="kdenlive:original.out">00:00:00.983</property>
  <property name="kdenlive:original.length">60</property>
  <property name="kdenlive:original.eof">pause</property>
  <property name="kdenlive:original.resource">video/Farmer/76.mp4</property>
  <property name="kdenlive:original.mlt_service">avformat-novalidate</property>
  <property name="kdenlive:original.meta.media.nb_streams">1</property>
  <property name="kdenlive:original.meta.media.0.stream.type">video</property>
  <property name="kdenlive:original.meta.media.0.stream.frame_rate">60</property>
  <property name="kdenlive:original.meta.media.0.stream.sample_aspect_ratio">0</property>
  <property name="kdenlive:original.meta.media.0.codec.width">1920</property>
  <property name="kdenlive:original.meta.media.0.codec.height">1080</property>
  <property name="kdenlive:original.meta.media.0.codec.rotate">0</property>
  <property name="kdenlive:original.meta.media.0.codec.pix_fmt">yuv420p</property>
  <property name="kdenlive:original.meta.media.0.codec.sample_aspect_ratio">0</property>
  <property name="kdenlive:original.meta.media.0.codec.colorspace">709</property>
  <property name="kdenlive:original.meta.media.0.codec.name">h264</property>
  <property name="kdenlive:original.meta.media.0.codec.long_name">H.264 / AVC / MPEG-4 AVC / MPEG-4 part 10</property>
  <property name="kdenlive:original.meta.media.0.codec.bit_rate">731920</property>
  <property name="kdenlive:original.meta.attr.0.stream.handler_name.markup">VideoHandler</property>
  <property name="kdenlive:original.meta.attr.0.stream.vendor_id.markup">[0][0][0][0]</property>
  <property name="kdenlive:original.meta.attr.0.stream.encoder.markup">Lavc60.3.100 libx264</property>
  <property name="kdenlive:original.meta.attr.major_brand.markup">isom</property>
  <property name="kdenlive:original.meta.attr.minor_version.markup">512</property>
  <property name="kdenlive:original.meta.attr.compatible_brands.markup">isomiso2avc1mp41</property>
  <property name="kdenlive:original.meta.attr.encoder.markup">Lavf60.3.100</property>
  <property name="kdenlive:original.meta.attr.comment.markup">Rendered with Manim Community v0.17.3</property>
  <property name="kdenlive:original.seekable">1</property>
  <property name="kdenlive:original.width">1920</property>
  <property name="kdenlive:original.height">1080</property>
  <property name="kdenlive:original.meta.media.sample_aspect_num">1</property>
  <property name="kdenlive:original.meta.media.sample_aspect_den">1</property>
  <property name="kdenlive:original.format">3</property>
  <property name="kdenlive:original.audio_index">-1</property>
  <property name="kdenlive:original.video_index">0</property>
  <property name="kdenlive:original.meta.media.frame_rate_num">60</property>
  <property name="kdenlive:original.meta.media.frame_rate_den">1</property>
  <property name="kdenlive:original.meta.media.colorspace">709</property>
  <property name="kdenlive:original.meta.media.color_trc">2</property>
  <property name="kdenlive:original.meta.media.has_b_frames">2</property>
  <property name="kdenlive:original.meta.media.width">1920</property>
  <property name="kdenlive:original.meta.media.height">1080</property>
  <property name="kdenlive:original.meta.media.color_range">mpeg</property>
  <property name="kdenlive:original.meta.media.top_field_first">0</property>
  <property name="kdenlive:original.meta.media.progressive">1</property>
  <property name="kdenlive:original.kdenlive:clip_type">2</property>
  <property name="kdenlive:original.kdenlive:folderid">16</property>
  <property name="kdenlive:original.kdenlive:id">152</property>
  <property name="kdenlive:original.mute_on_pause">0</property>
  <property name="kdenlive:original.kdenlive:file_size">93042</property>
  <property name="kdenlive:original.kdenlive:file_hash">ac1ff3c6de004732ac1d7841137f9f65</property>
  <property name="kdenlive:original.backup">1</property>
  <property name="meta.media.top_field_first">0</property>
  <property name="meta.media.progressive">1</property>
 </chain>
 <chain id="chain301" out="00:00:00.983">
  <property name="length">60</property>
  <property name="eof">pause</property>
  <property name="resource">/home/xiaoxiae/.cache/kdenlive/proxy/bbc23e2ef84dca0097266260293b15c4.mkv</property>
  <property name="mlt_service">avformat-novalidate</property>
  <property name="meta.media.nb_streams">1</property>
  <property name="meta.media.0.stream.type">video</property>
  <property name="meta.media.0.stream.frame_rate">60</property>
  <property name="meta.media.0.stream.sample_aspect_ratio">0</property>
  <property name="meta.media.0.codec.width">640</property>
  <property name="meta.media.0.codec.height">360</property>
  <property name="meta.media.0.codec.rotate">0</property>
  <property name="meta.media.0.codec.pix_fmt">yuvj420p</property>
  <property name="meta.media.0.codec.sample_aspect_ratio">0</property>
  <property name="meta.media.0.codec.colorspace">601</property>
  <property name="meta.media.0.codec.name">mjpeg</property>
  <property name="meta.media.0.codec.long_name">MJPEG (Motion JPEG)</property>
  <property name="meta.media.0.codec.bit_rate">0</property>
  <property name="meta.attr.0.stream.HANDLER_NAME.markup">VideoHandler</property>
  <property name="meta.attr.0.stream.VENDOR_ID.markup">[0][0][0][0]</property>
  <property name="meta.attr.0.stream.ENCODER.markup">Lavc60.3.100 mjpeg</property>
  <property name="meta.attr.0.stream.DURATION.markup">00:00:01.000000000</property>
  <property name="meta.attr.COMMENT.markup">Rendered with Manim Community v0.17.3</property>
  <property name="meta.attr.MAJOR_BRAND.markup">isom</property>
  <property name="meta.attr.MINOR_VERSION.markup">512</property>
  <property name="meta.attr.COMPATIBLE_BRANDS.markup">isomiso2avc1mp41</property>
  <property name="meta.attr.ENCODER.markup">Lavf60.3.100</property>
  <property name="seekable">1</property>
  <property name="meta.media.sample_aspect_num">1</property>
  <property name="meta.media.sample_aspect_den">1</property>
  <property name="format">3</property>
  <property name="audio_index">-1</property>
  <property name="video_index">0</property>
  <property name="meta.media.frame_rate_num">60</property>
  <property name="meta.media.frame_rate_den">1</property>
  <property name="meta.media.colorspace">601</property>
  <property name="meta.media.color_trc">2</property>
  <property name="meta.media.has_b_frames">0</property>
  <property name="meta.media.width">640</property>
  <property name="meta.media.height">360</property>
  <property name="meta.media.color_range">full</property>
  <property name="kdenlive:clipname">77.mp4</property>
  <property name="kdenlive:clip_type">2</property>
  <property name="kdenlive:folderid">16</property>
  <property name="kdenlive:id">153</property>
  <property name="mute_on_pause">0</property>
  <property name="kdenlive:file_size">90169</property>
  <property name="kdenlive:file_hash">bbc23e2ef84dca0097266260293b15c4</property>
  <property name="kdenlive:proxy">/home/xiaoxiae/.cache/kdenlive/proxy/bbc23e2ef84dca0097266260293b15c4.mkv</property>
  <property name="kdenlive:originalurl">video/Farmer/77.mp4</property>
  <property name="kdenlive:original.mlt_type">chain</property>
  <property name="kdenlive:original.in">0</property>
  <property name="kdenlive:original.out">00:00:00.983</property>
  <property name="kdenlive:original.length">60</property>
  <property name="kdenlive:original.eof">pause</property>
  <property name="kdenlive:original.resource">video/Farmer/77.mp4</property>
  <property name="kdenlive:original.mlt_service">avformat-novalidate</property>
  <property name="kdenlive:original.meta.media.nb_streams">1</property>
  <property name="kdenlive:original.meta.media.0.stream.type">video</property>
  <property name="kdenlive:original.meta.media.0.stream.frame_rate">60</property>
  <property name="kdenlive:original.meta.media.0.stream.sample_aspect_ratio">0</property>
  <property name="kdenlive:original.meta.media.0.codec.width">1920</property>
  <property name="kdenlive:original.meta.media.0.codec.height">1080</property>
  <property name="kdenlive:original.meta.media.0.codec.rotate">0</property>
  <property name="kdenlive:original.meta.media.0.codec.pix_fmt">yuv420p</property>
  <property name="kdenlive:original.meta.media.0.codec.sample_aspect_ratio">0</property>
  <property name="kdenlive:original.meta.media.0.codec.colorspace">709</property>
  <property name="kdenlive:original.meta.media.0.codec.name">h264</property>
  <property name="kdenlive:original.meta.media.0.codec.long_name">H.264 / AVC / MPEG-4 AVC / MPEG-4 part 10</property>
  <property name="kdenlive:original.meta.media.0.codec.bit_rate">708488</property>
  <property name="kdenlive:original.meta.attr.0.stream.handler_name.markup">VideoHandler</property>
  <property name="kdenlive:original.meta.attr.0.stream.vendor_id.markup">[0][0][0][0]</property>
  <property name="kdenlive:original.meta.attr.0.stream.encoder.markup">Lavc60.3.100 libx264</property>
  <property name="kdenlive:original.meta.attr.major_brand.markup">isom</property>
  <property name="kdenlive:original.meta.attr.minor_version.markup">512</property>
  <property name="kdenlive:original.meta.attr.compatible_brands.markup">isomiso2avc1mp41</property>
  <property name="kdenlive:original.meta.attr.encoder.markup">Lavf60.3.100</property>
  <property name="kdenlive:original.meta.attr.comment.markup">Rendered with Manim Community v0.17.3</property>
  <property name="kdenlive:original.seekable">1</property>
  <property name="kdenlive:original.width">1920</property>
  <property name="kdenlive:original.height">1080</property>
  <property name="kdenlive:original.meta.media.sample_aspect_num">1</property>
  <property name="kdenlive:original.meta.media.sample_aspect_den">1</property>
  <property name="kdenlive:original.format">3</property>
  <property name="kdenlive:original.audio_index">-1</property>
  <property name="kdenlive:original.video_index">0</property>
  <property name="kdenlive:original.meta.media.frame_rate_num">60</property>
  <property name="kdenlive:original.meta.media.frame_rate_den">1</property>
  <property name="kdenlive:original.meta.media.colorspace">709</property>
  <property name="kdenlive:original.meta.media.color_trc">2</property>
  <property name="kdenlive:original.meta.media.has_b_frames">2</property>
  <property name="kdenlive:original.meta.media.width">1920</property>
  <property name="kdenlive:original.meta.media.height">1080</property>
  <property name="kdenlive:original.meta.media.color_range">mpeg</property>
  <property name="kdenlive:original.meta.media.top_field_first">0</property>
  <property name="kdenlive:original.meta.media.progressive">1</property>
  <property name="kdenlive:original.kdenlive:clip_type">2</property>
  <property name="kdenlive:original.kdenlive:folderid">16</property>
  <property name="kdenlive:original.kdenlive:id">153</property>
  <property name="kdenlive:original.mute_on_pause">0</property>
  <property name="kdenlive:original.kdenlive:file_size">90169</property>
  <property name="kdenlive:original.kdenlive:file_hash">bbc23e2ef84dca0097266260293b15c4</property>
  <property name="kdenlive:original.backup">1</property>
  <property name="meta.media.top_field_first">0</property>
  <property name="meta.media.progressive">1</property>
 </chain>
 <chain id="chain300" out="00:00:01.483">
  <property name="length">90</property>
  <property name="eof">pause</property>
  <property name="resource">/home/xiaoxiae/.cache/kdenlive/proxy/859ffce2d2ec9a3e6d06cc5b696c7f30.mkv</property>
  <property name="mlt_service">avformat-novalidate</property>
  <property name="meta.media.nb_streams">1</property>
  <property name="meta.media.0.stream.type">video</property>
  <property name="meta.media.0.stream.frame_rate">60</property>
  <property name="meta.media.0.stream.sample_aspect_ratio">0</property>
  <property name="meta.media.0.codec.width">640</property>
  <property name="meta.media.0.codec.height">360</property>
  <property name="meta.media.0.codec.rotate">0</property>
  <property name="meta.media.0.codec.pix_fmt">yuvj420p</property>
  <property name="meta.media.0.codec.sample_aspect_ratio">0</property>
  <property name="meta.media.0.codec.colorspace">601</property>
  <property name="meta.media.0.codec.name">mjpeg</property>
  <property name="meta.media.0.codec.long_name">MJPEG (Motion JPEG)</property>
  <property name="meta.media.0.codec.bit_rate">0</property>
  <property name="meta.attr.0.stream.HANDLER_NAME.markup">VideoHandler</property>
  <property name="meta.attr.0.stream.VENDOR_ID.markup">[0][0][0][0]</property>
  <property name="meta.attr.0.stream.ENCODER.markup">Lavc60.3.100 mjpeg</property>
  <property name="meta.attr.0.stream.DURATION.markup">00:00:01.500000000</property>
  <property name="meta.attr.COMMENT.markup">Rendered with Manim Community v0.17.3</property>
  <property name="meta.attr.MAJOR_BRAND.markup">isom</property>
  <property name="meta.attr.MINOR_VERSION.markup">512</property>
  <property name="meta.attr.COMPATIBLE_BRANDS.markup">isomiso2avc1mp41</property>
  <property name="meta.attr.ENCODER.markup">Lavf60.3.100</property>
  <property name="seekable">1</property>
  <property name="meta.media.sample_aspect_num">1</property>
  <property name="meta.media.sample_aspect_den">1</property>
  <property name="format">3</property>
  <property name="audio_index">-1</property>
  <property name="video_index">0</property>
  <property name="meta.media.frame_rate_num">60</property>
  <property name="meta.media.frame_rate_den">1</property>
  <property name="meta.media.colorspace">601</property>
  <property name="meta.media.color_trc">2</property>
  <property name="meta.media.has_b_frames">0</property>
  <property name="meta.media.width">640</property>
  <property name="meta.media.height">360</property>
  <property name="meta.media.color_range">full</property>
  <property name="kdenlive:clipname">78.mp4</property>
  <property name="kdenlive:clip_type">2</property>
  <property name="kdenlive:folderid">16</property>
  <property name="kdenlive:id">154</property>
  <property name="mute_on_pause">0</property>
  <property name="kdenlive:file_size">69434</property>
  <property name="kdenlive:file_hash">859ffce2d2ec9a3e6d06cc5b696c7f30</property>
  <property name="kdenlive:proxy">/home/xiaoxiae/.cache/kdenlive/proxy/859ffce2d2ec9a3e6d06cc5b696c7f30.mkv</property>
  <property name="kdenlive:originalurl">video/Farmer/78.mp4</property>
  <property name="kdenlive:original.mlt_type">chain</property>
  <property name="kdenlive:original.in">0</property>
  <property name="kdenlive:original.out">00:00:01.483</property>
  <property name="kdenlive:original.length">90</property>
  <property name="kdenlive:original.eof">pause</property>
  <property name="kdenlive:original.resource">video/Farmer/78.mp4</property>
  <property name="kdenlive:original.mlt_service">avformat-novalidate</property>
  <property name="kdenlive:original.meta.media.nb_streams">1</property>
  <property name="kdenlive:original.meta.media.0.stream.type">video</property>
  <property name="kdenlive:original.meta.media.0.stream.frame_rate">60</property>
  <property name="kdenlive:original.meta.media.0.stream.sample_aspect_ratio">0</property>
  <property name="kdenlive:original.meta.media.0.codec.width">1920</property>
  <property name="kdenlive:original.meta.media.0.codec.height">1080</property>
  <property name="kdenlive:original.meta.media.0.codec.rotate">0</property>
  <property name="kdenlive:original.meta.media.0.codec.pix_fmt">yuv420p</property>
  <property name="kdenlive:original.meta.media.0.codec.sample_aspect_ratio">0</property>
  <property name="kdenlive:original.meta.media.0.codec.colorspace">709</property>
  <property name="kdenlive:original.meta.media.0.codec.name">h264</property>
  <property name="kdenlive:original.meta.media.0.codec.long_name">H.264 / AVC / MPEG-4 AVC / MPEG-4 part 10</property>
  <property name="kdenlive:original.meta.media.0.codec.bit_rate">359648</property>
  <property name="kdenlive:original.meta.attr.0.stream.handler_name.markup">VideoHandler</property>
  <property name="kdenlive:original.meta.attr.0.stream.vendor_id.markup">[0][0][0][0]</property>
  <property name="kdenlive:original.meta.attr.0.stream.encoder.markup">Lavc60.3.100 libx264</property>
  <property name="kdenlive:original.meta.attr.major_brand.markup">isom</property>
  <property name="kdenlive:original.meta.attr.minor_version.markup">512</property>
  <property name="kdenlive:original.meta.attr.compatible_brands.markup">isomiso2avc1mp41</property>
  <property name="kdenlive:original.meta.attr.encoder.markup">Lavf60.3.100</property>
  <property name="kdenlive:original.meta.attr.comment.markup">Rendered with Manim Community v0.17.3</property>
  <property name="kdenlive:original.seekable">1</property>
  <property name="kdenlive:original.width">1920</property>
  <property name="kdenlive:original.height">1080</property>
  <property name="kdenlive:original.meta.media.sample_aspect_num">1</property>
  <property name="kdenlive:original.meta.media.sample_aspect_den">1</property>
  <property name="kdenlive:original.format">3</property>
  <property name="kdenlive:original.audio_index">-1</property>
  <property name="kdenlive:original.video_index">0</property>
  <property name="kdenlive:original.meta.media.frame_rate_num">60</property>
  <property name="kdenlive:original.meta.media.frame_rate_den">1</property>
  <property name="kdenlive:original.meta.media.colorspace">709</property>
  <property name="kdenlive:original.meta.media.color_trc">2</property>
  <property name="kdenlive:original.meta.media.has_b_frames">2</property>
  <property name="kdenlive:original.meta.media.width">1920</property>
  <property name="kdenlive:original.meta.media.height">1080</property>
  <property name="kdenlive:original.meta.media.color_range">mpeg</property>
  <property name="kdenlive:original.meta.media.top_field_first">0</property>
  <property name="kdenlive:original.meta.media.progressive">1</property>
  <property name="kdenlive:original.kdenlive:clip_type">2</property>
  <property name="kdenlive:original.kdenlive:folderid">16</property>
  <property name="kdenlive:original.kdenlive:id">154</property>
  <property name="kdenlive:original.mute_on_pause">0</property>
  <property name="kdenlive:original.kdenlive:file_size">69434</property>
  <property name="kdenlive:original.kdenlive:file_hash">859ffce2d2ec9a3e6d06cc5b696c7f30</property>
  <property name="kdenlive:original.backup">1</property>
  <property name="meta.media.top_field_first">0</property>
  <property name="meta.media.progressive">1</property>
 </chain>
 <chain id="chain299" out="00:00:00.983">
  <property name="length">60</property>
  <property name="eof">pause</property>
  <property name="resource">/home/xiaoxiae/.cache/kdenlive/proxy/e3a7a0824653a52a7c93c8093c3ab3ac.mkv</property>
  <property name="mlt_service">avformat-novalidate</property>
  <property name="meta.media.nb_streams">1</property>
  <property name="meta.media.0.stream.type">video</property>
  <property name="meta.media.0.stream.frame_rate">60</property>
  <property name="meta.media.0.stream.sample_aspect_ratio">0</property>
  <property name="meta.media.0.codec.width">640</property>
  <property name="meta.media.0.codec.height">360</property>
  <property name="meta.media.0.codec.rotate">0</property>
  <property name="meta.media.0.codec.pix_fmt">yuvj420p</property>
  <property name="meta.media.0.codec.sample_aspect_ratio">0</property>
  <property name="meta.media.0.codec.colorspace">601</property>
  <property name="meta.media.0.codec.name">mjpeg</property>
  <property name="meta.media.0.codec.long_name">MJPEG (Motion JPEG)</property>
  <property name="meta.media.0.codec.bit_rate">0</property>
  <property name="meta.attr.0.stream.HANDLER_NAME.markup">VideoHandler</property>
  <property name="meta.attr.0.stream.VENDOR_ID.markup">[0][0][0][0]</property>
  <property name="meta.attr.0.stream.ENCODER.markup">Lavc60.3.100 mjpeg</property>
  <property name="meta.attr.0.stream.DURATION.markup">00:00:01.000000000</property>
  <property name="meta.attr.COMMENT.markup">Rendered with Manim Community v0.17.3</property>
  <property name="meta.attr.MAJOR_BRAND.markup">isom</property>
  <property name="meta.attr.MINOR_VERSION.markup">512</property>
  <property name="meta.attr.COMPATIBLE_BRANDS.markup">isomiso2avc1mp41</property>
  <property name="meta.attr.ENCODER.markup">Lavf60.3.100</property>
  <property name="seekable">1</property>
  <property name="meta.media.sample_aspect_num">1</property>
  <property name="meta.media.sample_aspect_den">1</property>
  <property name="format">3</property>
  <property name="audio_index">-1</property>
  <property name="video_index">0</property>
  <property name="meta.media.frame_rate_num">60</property>
  <property name="meta.media.frame_rate_den">1</property>
  <property name="meta.media.colorspace">601</property>
  <property name="meta.media.color_trc">2</property>
  <property name="meta.media.has_b_frames">0</property>
  <property name="meta.media.width">640</property>
  <property name="meta.media.height">360</property>
  <property name="meta.media.color_range">full</property>
  <property name="kdenlive:clipname">79.mp4</property>
  <property name="kdenlive:clip_type">2</property>
  <property name="kdenlive:folderid">16</property>
  <property name="kdenlive:id">155</property>
  <property name="mute_on_pause">0</property>
  <property name="kdenlive:file_size">58912</property>
  <property name="kdenlive:file_hash">e3a7a0824653a52a7c93c8093c3ab3ac</property>
  <property name="kdenlive:proxy">/home/xiaoxiae/.cache/kdenlive/proxy/e3a7a0824653a52a7c93c8093c3ab3ac.mkv</property>
  <property name="kdenlive:originalurl">video/Farmer/79.mp4</property>
  <property name="kdenlive:original.mlt_type">chain</property>
  <property name="kdenlive:original.in">0</property>
  <property name="kdenlive:original.out">00:00:00.983</property>
  <property name="kdenlive:original.length">60</property>
  <property name="kdenlive:original.eof">pause</property>
  <property name="kdenlive:original.resource">video/Farmer/79.mp4</property>
  <property name="kdenlive:original.mlt_service">avformat-novalidate</property>
  <property name="kdenlive:original.meta.media.nb_streams">1</property>
  <property name="kdenlive:original.meta.media.0.stream.type">video</property>
  <property name="kdenlive:original.meta.media.0.stream.frame_rate">60</property>
  <property name="kdenlive:original.meta.media.0.stream.sample_aspect_ratio">0</property>
  <property name="kdenlive:original.meta.media.0.codec.width">1920</property>
  <property name="kdenlive:original.meta.media.0.codec.height">1080</property>
  <property name="kdenlive:original.meta.media.0.codec.rotate">0</property>
  <property name="kdenlive:original.meta.media.0.codec.pix_fmt">yuv420p</property>
  <property name="kdenlive:original.meta.media.0.codec.sample_aspect_ratio">0</property>
  <property name="kdenlive:original.meta.media.0.codec.colorspace">709</property>
  <property name="kdenlive:original.meta.media.0.codec.name">h264</property>
  <property name="kdenlive:original.meta.media.0.codec.long_name">H.264 / AVC / MPEG-4 AVC / MPEG-4 part 10</property>
  <property name="kdenlive:original.meta.media.0.codec.bit_rate">458240</property>
  <property name="kdenlive:original.meta.attr.0.stream.handler_name.markup">VideoHandler</property>
  <property name="kdenlive:original.meta.attr.0.stream.vendor_id.markup">[0][0][0][0]</property>
  <property name="kdenlive:original.meta.attr.0.stream.encoder.markup">Lavc60.3.100 libx264</property>
  <property name="kdenlive:original.meta.attr.major_brand.markup">isom</property>
  <property name="kdenlive:original.meta.attr.minor_version.markup">512</property>
  <property name="kdenlive:original.meta.attr.compatible_brands.markup">isomiso2avc1mp41</property>
  <property name="kdenlive:original.meta.attr.encoder.markup">Lavf60.3.100</property>
  <property name="kdenlive:original.meta.attr.comment.markup">Rendered with Manim Community v0.17.3</property>
  <property name="kdenlive:original.seekable">1</property>
  <property name="kdenlive:original.width">1920</property>
  <property name="kdenlive:original.height">1080</property>
  <property name="kdenlive:original.meta.media.sample_aspect_num">1</property>
  <property name="kdenlive:original.meta.media.sample_aspect_den">1</property>
  <property name="kdenlive:original.format">3</property>
  <property name="kdenlive:original.audio_index">-1</property>
  <property name="kdenlive:original.video_index">0</property>
  <property name="kdenlive:original.meta.media.frame_rate_num">60</property>
  <property name="kdenlive:original.meta.media.frame_rate_den">1</property>
  <property name="kdenlive:original.meta.media.colorspace">709</property>
  <property name="kdenlive:original.meta.media.color_trc">2</property>
  <property name="kdenlive:original.meta.media.has_b_frames">2</property>
  <property name="kdenlive:original.meta.media.width">1920</property>
  <property name="kdenlive:original.meta.media.height">1080</property>
  <property name="kdenlive:original.meta.media.color_range">mpeg</property>
  <property name="kdenlive:original.meta.media.top_field_first">0</property>
  <property name="kdenlive:original.meta.media.progressive">1</property>
  <property name="kdenlive:original.kdenlive:clip_type">2</property>
  <property name="kdenlive:original.kdenlive:folderid">16</property>
  <property name="kdenlive:original.kdenlive:id">155</property>
  <property name="kdenlive:original.mute_on_pause">0</property>
  <property name="kdenlive:original.kdenlive:file_size">58912</property>
  <property name="kdenlive:original.kdenlive:file_hash">e3a7a0824653a52a7c93c8093c3ab3ac</property>
  <property name="kdenlive:original.backup">1</property>
  <property name="meta.media.top_field_first">0</property>
  <property name="meta.media.progressive">1</property>
 </chain>
 <chain id="chain418" out="00:00:00.633">
  <property name="length">39</property>
  <property name="eof">pause</property>
  <property name="resource">/home/xiaoxiae/.cache/kdenlive/proxy/75071e1ab1742f8db93f1cf93b3ff856.mkv</property>
  <property name="mlt_service">avformat-novalidate</property>
  <property name="meta.media.nb_streams">1</property>
  <property name="meta.media.0.stream.type">video</property>
  <property name="meta.media.0.stream.frame_rate">60</property>
  <property name="meta.media.0.stream.sample_aspect_ratio">0</property>
  <property name="meta.media.0.codec.width">640</property>
  <property name="meta.media.0.codec.height">360</property>
  <property name="meta.media.0.codec.rotate">0</property>
  <property name="meta.media.0.codec.pix_fmt">yuvj420p</property>
  <property name="meta.media.0.codec.sample_aspect_ratio">0</property>
  <property name="meta.media.0.codec.colorspace">601</property>
  <property name="meta.media.0.codec.name">mjpeg</property>
  <property name="meta.media.0.codec.long_name">MJPEG (Motion JPEG)</property>
  <property name="meta.media.0.codec.bit_rate">0</property>
  <property name="meta.attr.0.stream.HANDLER_NAME.markup">VideoHandler</property>
  <property name="meta.attr.0.stream.VENDOR_ID.markup">[0][0][0][0]</property>
  <property name="meta.attr.0.stream.ENCODER.markup">Lavc60.3.100 mjpeg</property>
  <property name="meta.attr.0.stream.DURATION.markup">00:00:00.650000000</property>
  <property name="meta.attr.COMMENT.markup">Rendered with Manim Community v0.17.3</property>
  <property name="meta.attr.MAJOR_BRAND.markup">isom</property>
  <property name="meta.attr.MINOR_VERSION.markup">512</property>
  <property name="meta.attr.COMPATIBLE_BRANDS.markup">isomiso2avc1mp41</property>
  <property name="meta.attr.ENCODER.markup">Lavf60.3.100</property>
  <property name="seekable">1</property>
  <property name="meta.media.sample_aspect_num">1</property>
  <property name="meta.media.sample_aspect_den">1</property>
  <property name="format">3</property>
  <property name="audio_index">-1</property>
  <property name="video_index">0</property>
  <property name="meta.media.frame_rate_num">60</property>
  <property name="meta.media.frame_rate_den">1</property>
  <property name="meta.media.colorspace">601</property>
  <property name="meta.media.color_trc">2</property>
  <property name="meta.media.has_b_frames">0</property>
  <property name="meta.media.width">640</property>
  <property name="meta.media.height">360</property>
  <property name="meta.media.color_range">full</property>
  <property name="kdenlive:clipname">8.mp4</property>
  <property name="kdenlive:clip_type">2</property>
  <property name="kdenlive:folderid">16</property>
  <property name="kdenlive:id">156</property>
  <property name="mute_on_pause">0</property>
  <property name="kdenlive:file_size">109511</property>
  <property name="kdenlive:file_hash">75071e1ab1742f8db93f1cf93b3ff856</property>
  <property name="kdenlive:proxy">/home/xiaoxiae/.cache/kdenlive/proxy/75071e1ab1742f8db93f1cf93b3ff856.mkv</property>
  <property name="kdenlive:originalurl">video/Farmer/8.mp4</property>
  <property name="kdenlive:original.mlt_type">chain</property>
  <property name="kdenlive:original.in">0</property>
  <property name="kdenlive:original.out">00:00:00.633</property>
  <property name="kdenlive:original.length">39</property>
  <property name="kdenlive:original.eof">pause</property>
  <property name="kdenlive:original.resource">video/Farmer/8.mp4</property>
  <property name="kdenlive:original.mlt_service">avformat-novalidate</property>
  <property name="kdenlive:original.meta.media.nb_streams">1</property>
  <property name="kdenlive:original.meta.media.0.stream.type">video</property>
  <property name="kdenlive:original.meta.media.0.stream.frame_rate">60</property>
  <property name="kdenlive:original.meta.media.0.stream.sample_aspect_ratio">0</property>
  <property name="kdenlive:original.meta.media.0.codec.width">1920</property>
  <property name="kdenlive:original.meta.media.0.codec.height">1080</property>
  <property name="kdenlive:original.meta.media.0.codec.rotate">0</property>
  <property name="kdenlive:original.meta.media.0.codec.pix_fmt">yuv420p</property>
  <property name="kdenlive:original.meta.media.0.codec.sample_aspect_ratio">0</property>
  <property name="kdenlive:original.meta.media.0.codec.colorspace">709</property>
  <property name="kdenlive:original.meta.media.0.codec.name">h264</property>
  <property name="kdenlive:original.meta.media.0.codec.long_name">H.264 / AVC / MPEG-4 AVC / MPEG-4 part 10</property>
  <property name="kdenlive:original.meta.media.0.codec.bit_rate">1330744</property>
  <property name="kdenlive:original.meta.attr.0.stream.handler_name.markup">VideoHandler</property>
  <property name="kdenlive:original.meta.attr.0.stream.vendor_id.markup">[0][0][0][0]</property>
  <property name="kdenlive:original.meta.attr.0.stream.encoder.markup">Lavc60.3.100 libx264</property>
  <property name="kdenlive:original.meta.attr.major_brand.markup">isom</property>
  <property name="kdenlive:original.meta.attr.minor_version.markup">512</property>
  <property name="kdenlive:original.meta.attr.compatible_brands.markup">isomiso2avc1mp41</property>
  <property name="kdenlive:original.meta.attr.encoder.markup">Lavf60.3.100</property>
  <property name="kdenlive:original.meta.attr.comment.markup">Rendered with Manim Community v0.17.3</property>
  <property name="kdenlive:original.seekable">1</property>
  <property name="kdenlive:original.width">1920</property>
  <property name="kdenlive:original.height">1080</property>
  <property name="kdenlive:original.meta.media.sample_aspect_num">1</property>
  <property name="kdenlive:original.meta.media.sample_aspect_den">1</property>
  <property name="kdenlive:original.format">3</property>
  <property name="kdenlive:original.audio_index">-1</property>
  <property name="kdenlive:original.video_index">0</property>
  <property name="kdenlive:original.meta.media.frame_rate_num">60</property>
  <property name="kdenlive:original.meta.media.frame_rate_den">1</property>
  <property name="kdenlive:original.meta.media.colorspace">709</property>
  <property name="kdenlive:original.meta.media.color_trc">2</property>
  <property name="kdenlive:original.meta.media.has_b_frames">2</property>
  <property name="kdenlive:original.meta.media.width">1920</property>
  <property name="kdenlive:original.meta.media.height">1080</property>
  <property name="kdenlive:original.meta.media.color_range">mpeg</property>
  <property name="kdenlive:original.meta.media.top_field_first">0</property>
  <property name="kdenlive:original.meta.media.progressive">1</property>
  <property name="kdenlive:original.kdenlive:clip_type">2</property>
  <property name="kdenlive:original.kdenlive:folderid">16</property>
  <property name="kdenlive:original.kdenlive:id">156</property>
  <property name="kdenlive:original.mute_on_pause">0</property>
  <property name="kdenlive:original.kdenlive:file_size">109511</property>
  <property name="kdenlive:original.kdenlive:file_hash">75071e1ab1742f8db93f1cf93b3ff856</property>
  <property name="kdenlive:original.backup">1</property>
  <property name="meta.media.top_field_first">0</property>
  <property name="meta.media.progressive">1</property>
 </chain>
 <chain id="chain297" out="00:00:00.983">
  <property name="length">60</property>
  <property name="eof">pause</property>
  <property name="resource">/home/xiaoxiae/.cache/kdenlive/proxy/d9a315d0e3e34cee4c4b5e8c505dd1bf.mkv</property>
  <property name="mlt_service">avformat-novalidate</property>
  <property name="meta.media.nb_streams">1</property>
  <property name="meta.media.0.stream.type">video</property>
  <property name="meta.media.0.stream.frame_rate">60</property>
  <property name="meta.media.0.stream.sample_aspect_ratio">0</property>
  <property name="meta.media.0.codec.width">640</property>
  <property name="meta.media.0.codec.height">360</property>
  <property name="meta.media.0.codec.rotate">0</property>
  <property name="meta.media.0.codec.pix_fmt">yuvj420p</property>
  <property name="meta.media.0.codec.sample_aspect_ratio">0</property>
  <property name="meta.media.0.codec.colorspace">601</property>
  <property name="meta.media.0.codec.name">mjpeg</property>
  <property name="meta.media.0.codec.long_name">MJPEG (Motion JPEG)</property>
  <property name="meta.media.0.codec.bit_rate">0</property>
  <property name="meta.attr.0.stream.HANDLER_NAME.markup">VideoHandler</property>
  <property name="meta.attr.0.stream.VENDOR_ID.markup">[0][0][0][0]</property>
  <property name="meta.attr.0.stream.ENCODER.markup">Lavc60.3.100 mjpeg</property>
  <property name="meta.attr.0.stream.DURATION.markup">00:00:01.000000000</property>
  <property name="meta.attr.COMMENT.markup">Rendered with Manim Community v0.17.3</property>
  <property name="meta.attr.MAJOR_BRAND.markup">isom</property>
  <property name="meta.attr.MINOR_VERSION.markup">512</property>
  <property name="meta.attr.COMPATIBLE_BRANDS.markup">isomiso2avc1mp41</property>
  <property name="meta.attr.ENCODER.markup">Lavf60.3.100</property>
  <property name="seekable">1</property>
  <property name="meta.media.sample_aspect_num">1</property>
  <property name="meta.media.sample_aspect_den">1</property>
  <property name="format">3</property>
  <property name="audio_index">-1</property>
  <property name="video_index">0</property>
  <property name="meta.media.frame_rate_num">60</property>
  <property name="meta.media.frame_rate_den">1</property>
  <property name="meta.media.colorspace">601</property>
  <property name="meta.media.color_trc">2</property>
  <property name="meta.media.has_b_frames">0</property>
  <property name="meta.media.width">640</property>
  <property name="meta.media.height">360</property>
  <property name="meta.media.color_range">full</property>
  <property name="kdenlive:clipname">80.mp4</property>
  <property name="kdenlive:clip_type">2</property>
  <property name="kdenlive:folderid">16</property>
  <property name="kdenlive:id">157</property>
  <property name="mute_on_pause">0</property>
  <property name="kdenlive:file_size">65510</property>
  <property name="kdenlive:file_hash">d9a315d0e3e34cee4c4b5e8c505dd1bf</property>
  <property name="kdenlive:proxy">/home/xiaoxiae/.cache/kdenlive/proxy/d9a315d0e3e34cee4c4b5e8c505dd1bf.mkv</property>
  <property name="kdenlive:originalurl">video/Farmer/80.mp4</property>
  <property name="kdenlive:original.mlt_type">chain</property>
  <property name="kdenlive:original.in">0</property>
  <property name="kdenlive:original.out">00:00:00.983</property>
  <property name="kdenlive:original.length">60</property>
  <property name="kdenlive:original.eof">pause</property>
  <property name="kdenlive:original.resource">video/Farmer/80.mp4</property>
  <property name="kdenlive:original.mlt_service">avformat-novalidate</property>
  <property name="kdenlive:original.meta.media.nb_streams">1</property>
  <property name="kdenlive:original.meta.media.0.stream.type">video</property>
  <property name="kdenlive:original.meta.media.0.stream.frame_rate">60</property>
  <property name="kdenlive:original.meta.media.0.stream.sample_aspect_ratio">0</property>
  <property name="kdenlive:original.meta.media.0.codec.width">1920</property>
  <property name="kdenlive:original.meta.media.0.codec.height">1080</property>
  <property name="kdenlive:original.meta.media.0.codec.rotate">0</property>
  <property name="kdenlive:original.meta.media.0.codec.pix_fmt">yuv420p</property>
  <property name="kdenlive:original.meta.media.0.codec.sample_aspect_ratio">0</property>
  <property name="kdenlive:original.meta.media.0.codec.colorspace">709</property>
  <property name="kdenlive:original.meta.media.0.codec.name">h264</property>
  <property name="kdenlive:original.meta.media.0.codec.long_name">H.264 / AVC / MPEG-4 AVC / MPEG-4 part 10</property>
  <property name="kdenlive:original.meta.media.0.codec.bit_rate">511152</property>
  <property name="kdenlive:original.meta.attr.0.stream.handler_name.markup">VideoHandler</property>
  <property name="kdenlive:original.meta.attr.0.stream.vendor_id.markup">[0][0][0][0]</property>
  <property name="kdenlive:original.meta.attr.0.stream.encoder.markup">Lavc60.3.100 libx264</property>
  <property name="kdenlive:original.meta.attr.major_brand.markup">isom</property>
  <property name="kdenlive:original.meta.attr.minor_version.markup">512</property>
  <property name="kdenlive:original.meta.attr.compatible_brands.markup">isomiso2avc1mp41</property>
  <property name="kdenlive:original.meta.attr.encoder.markup">Lavf60.3.100</property>
  <property name="kdenlive:original.meta.attr.comment.markup">Rendered with Manim Community v0.17.3</property>
  <property name="kdenlive:original.seekable">1</property>
  <property name="kdenlive:original.width">1920</property>
  <property name="kdenlive:original.height">1080</property>
  <property name="kdenlive:original.meta.media.sample_aspect_num">1</property>
  <property name="kdenlive:original.meta.media.sample_aspect_den">1</property>
  <property name="kdenlive:original.format">3</property>
  <property name="kdenlive:original.audio_index">-1</property>
  <property name="kdenlive:original.video_index">0</property>
  <property name="kdenlive:original.meta.media.frame_rate_num">60</property>
  <property name="kdenlive:original.meta.media.frame_rate_den">1</property>
  <property name="kdenlive:original.meta.media.colorspace">709</property>
  <property name="kdenlive:original.meta.media.color_trc">2</property>
  <property name="kdenlive:original.meta.media.has_b_frames">2</property>
  <property name="kdenlive:original.meta.media.width">1920</property>
  <property name="kdenlive:original.meta.media.height">1080</property>
  <property name="kdenlive:original.meta.media.color_range">mpeg</property>
  <property name="kdenlive:original.meta.media.top_field_first">0</property>
  <property name="kdenlive:original.meta.media.progressive">1</property>
  <property name="kdenlive:original.kdenlive:clip_type">2</property>
  <property name="kdenlive:original.kdenlive:folderid">16</property>
  <property name="kdenlive:original.kdenlive:id">157</property>
  <property name="kdenlive:original.mute_on_pause">0</property>
  <property name="kdenlive:original.kdenlive:file_size">65510</property>
  <property name="kdenlive:original.kdenlive:file_hash">d9a315d0e3e34cee4c4b5e8c505dd1bf</property>
  <property name="kdenlive:original.backup">1</property>
  <property name="meta.media.top_field_first">0</property>
  <property name="meta.media.progressive">1</property>
 </chain>
 <chain id="chain296" out="00:00:00.983">
  <property name="length">60</property>
  <property name="eof">pause</property>
  <property name="resource">/home/xiaoxiae/.cache/kdenlive/proxy/d0fa0c4d6d856e86f1d7f544e8c2ea34.mkv</property>
  <property name="mlt_service">avformat-novalidate</property>
  <property name="meta.media.nb_streams">1</property>
  <property name="meta.media.0.stream.type">video</property>
  <property name="meta.media.0.stream.frame_rate">60</property>
  <property name="meta.media.0.stream.sample_aspect_ratio">0</property>
  <property name="meta.media.0.codec.width">640</property>
  <property name="meta.media.0.codec.height">360</property>
  <property name="meta.media.0.codec.rotate">0</property>
  <property name="meta.media.0.codec.pix_fmt">yuvj420p</property>
  <property name="meta.media.0.codec.sample_aspect_ratio">0</property>
  <property name="meta.media.0.codec.colorspace">601</property>
  <property name="meta.media.0.codec.name">mjpeg</property>
  <property name="meta.media.0.codec.long_name">MJPEG (Motion JPEG)</property>
  <property name="meta.media.0.codec.bit_rate">0</property>
  <property name="meta.attr.0.stream.HANDLER_NAME.markup">VideoHandler</property>
  <property name="meta.attr.0.stream.VENDOR_ID.markup">[0][0][0][0]</property>
  <property name="meta.attr.0.stream.ENCODER.markup">Lavc60.3.100 mjpeg</property>
  <property name="meta.attr.0.stream.DURATION.markup">00:00:01.000000000</property>
  <property name="meta.attr.COMMENT.markup">Rendered with Manim Community v0.17.3</property>
  <property name="meta.attr.MAJOR_BRAND.markup">isom</property>
  <property name="meta.attr.MINOR_VERSION.markup">512</property>
  <property name="meta.attr.COMPATIBLE_BRANDS.markup">isomiso2avc1mp41</property>
  <property name="meta.attr.ENCODER.markup">Lavf60.3.100</property>
  <property name="seekable">1</property>
  <property name="meta.media.sample_aspect_num">1</property>
  <property name="meta.media.sample_aspect_den">1</property>
  <property name="format">3</property>
  <property name="audio_index">-1</property>
  <property name="video_index">0</property>
  <property name="meta.media.frame_rate_num">60</property>
  <property name="meta.media.frame_rate_den">1</property>
  <property name="meta.media.colorspace">601</property>
  <property name="meta.media.color_trc">2</property>
  <property name="meta.media.has_b_frames">0</property>
  <property name="meta.media.width">640</property>
  <property name="meta.media.height">360</property>
  <property name="meta.media.color_range">full</property>
  <property name="kdenlive:clipname">81.mp4</property>
  <property name="kdenlive:clip_type">2</property>
  <property name="kdenlive:folderid">16</property>
  <property name="kdenlive:id">158</property>
  <property name="mute_on_pause">0</property>
  <property name="kdenlive:file_size">57521</property>
  <property name="kdenlive:file_hash">d0fa0c4d6d856e86f1d7f544e8c2ea34</property>
  <property name="kdenlive:proxy">/home/xiaoxiae/.cache/kdenlive/proxy/d0fa0c4d6d856e86f1d7f544e8c2ea34.mkv</property>
  <property name="kdenlive:originalurl">video/Farmer/81.mp4</property>
  <property name="kdenlive:original.mlt_type">chain</property>
  <property name="kdenlive:original.in">0</property>
  <property name="kdenlive:original.out">00:00:00.983</property>
  <property name="kdenlive:original.length">60</property>
  <property name="kdenlive:original.eof">pause</property>
  <property name="kdenlive:original.resource">video/Farmer/81.mp4</property>
  <property name="kdenlive:original.mlt_service">avformat-novalidate</property>
  <property name="kdenlive:original.meta.media.nb_streams">1</property>
  <property name="kdenlive:original.meta.media.0.stream.type">video</property>
  <property name="kdenlive:original.meta.media.0.stream.frame_rate">60</property>
  <property name="kdenlive:original.meta.media.0.stream.sample_aspect_ratio">0</property>
  <property name="kdenlive:original.meta.media.0.codec.width">1920</property>
  <property name="kdenlive:original.meta.media.0.codec.height">1080</property>
  <property name="kdenlive:original.meta.media.0.codec.rotate">0</property>
  <property name="kdenlive:original.meta.media.0.codec.pix_fmt">yuv420p</property>
  <property name="kdenlive:original.meta.media.0.codec.sample_aspect_ratio">0</property>
  <property name="kdenlive:original.meta.media.0.codec.colorspace">709</property>
  <property name="kdenlive:original.meta.media.0.codec.name">h264</property>
  <property name="kdenlive:original.meta.media.0.codec.long_name">H.264 / AVC / MPEG-4 AVC / MPEG-4 part 10</property>
  <property name="kdenlive:original.meta.media.0.codec.bit_rate">447112</property>
  <property name="kdenlive:original.meta.attr.0.stream.handler_name.markup">VideoHandler</property>
  <property name="kdenlive:original.meta.attr.0.stream.vendor_id.markup">[0][0][0][0]</property>
  <property name="kdenlive:original.meta.attr.0.stream.encoder.markup">Lavc60.3.100 libx264</property>
  <property name="kdenlive:original.meta.attr.major_brand.markup">isom</property>
  <property name="kdenlive:original.meta.attr.minor_version.markup">512</property>
  <property name="kdenlive:original.meta.attr.compatible_brands.markup">isomiso2avc1mp41</property>
  <property name="kdenlive:original.meta.attr.encoder.markup">Lavf60.3.100</property>
  <property name="kdenlive:original.meta.attr.comment.markup">Rendered with Manim Community v0.17.3</property>
  <property name="kdenlive:original.seekable">1</property>
  <property name="kdenlive:original.width">1920</property>
  <property name="kdenlive:original.height">1080</property>
  <property name="kdenlive:original.meta.media.sample_aspect_num">1</property>
  <property name="kdenlive:original.meta.media.sample_aspect_den">1</property>
  <property name="kdenlive:original.format">3</property>
  <property name="kdenlive:original.audio_index">-1</property>
  <property name="kdenlive:original.video_index">0</property>
  <property name="kdenlive:original.meta.media.frame_rate_num">60</property>
  <property name="kdenlive:original.meta.media.frame_rate_den">1</property>
  <property name="kdenlive:original.meta.media.colorspace">709</property>
  <property name="kdenlive:original.meta.media.color_trc">2</property>
  <property name="kdenlive:original.meta.media.has_b_frames">2</property>
  <property name="kdenlive:original.meta.media.width">1920</property>
  <property name="kdenlive:original.meta.media.height">1080</property>
  <property name="kdenlive:original.meta.media.color_range">mpeg</property>
  <property name="kdenlive:original.meta.media.top_field_first">0</property>
  <property name="kdenlive:original.meta.media.progressive">1</property>
  <property name="kdenlive:original.kdenlive:clip_type">2</property>
  <property name="kdenlive:original.kdenlive:folderid">16</property>
  <property name="kdenlive:original.kdenlive:id">158</property>
  <property name="kdenlive:original.mute_on_pause">0</property>
  <property name="kdenlive:original.kdenlive:file_size">57521</property>
  <property name="kdenlive:original.kdenlive:file_hash">d0fa0c4d6d856e86f1d7f544e8c2ea34</property>
  <property name="kdenlive:original.backup">1</property>
  <property name="meta.media.top_field_first">0</property>
  <property name="meta.media.progressive">1</property>
 </chain>
 <chain id="chain292" out="00:00:00.983">
  <property name="length">60</property>
  <property name="eof">pause</property>
  <property name="resource">/home/xiaoxiae/.cache/kdenlive/proxy/cec26e58e826eb489ae6ee44f1313e4e.mkv</property>
  <property name="mlt_service">avformat-novalidate</property>
  <property name="meta.media.nb_streams">1</property>
  <property name="meta.media.0.stream.type">video</property>
  <property name="meta.media.0.stream.frame_rate">60</property>
  <property name="meta.media.0.stream.sample_aspect_ratio">0</property>
  <property name="meta.media.0.codec.width">640</property>
  <property name="meta.media.0.codec.height">360</property>
  <property name="meta.media.0.codec.rotate">0</property>
  <property name="meta.media.0.codec.pix_fmt">yuvj420p</property>
  <property name="meta.media.0.codec.sample_aspect_ratio">0</property>
  <property name="meta.media.0.codec.colorspace">601</property>
  <property name="meta.media.0.codec.name">mjpeg</property>
  <property name="meta.media.0.codec.long_name">MJPEG (Motion JPEG)</property>
  <property name="meta.media.0.codec.bit_rate">0</property>
  <property name="meta.attr.0.stream.HANDLER_NAME.markup">VideoHandler</property>
  <property name="meta.attr.0.stream.VENDOR_ID.markup">[0][0][0][0]</property>
  <property name="meta.attr.0.stream.ENCODER.markup">Lavc60.3.100 mjpeg</property>
  <property name="meta.attr.0.stream.DURATION.markup">00:00:01.000000000</property>
  <property name="meta.attr.COMMENT.markup">Rendered with Manim Community v0.17.3</property>
  <property name="meta.attr.MAJOR_BRAND.markup">isom</property>
  <property name="meta.attr.MINOR_VERSION.markup">512</property>
  <property name="meta.attr.COMPATIBLE_BRANDS.markup">isomiso2avc1mp41</property>
  <property name="meta.attr.ENCODER.markup">Lavf60.3.100</property>
  <property name="seekable">1</property>
  <property name="meta.media.sample_aspect_num">1</property>
  <property name="meta.media.sample_aspect_den">1</property>
  <property name="format">3</property>
  <property name="audio_index">-1</property>
  <property name="video_index">0</property>
  <property name="meta.media.frame_rate_num">60</property>
  <property name="meta.media.frame_rate_den">1</property>
  <property name="meta.media.colorspace">601</property>
  <property name="meta.media.color_trc">2</property>
  <property name="meta.media.has_b_frames">0</property>
  <property name="meta.media.width">640</property>
  <property name="meta.media.height">360</property>
  <property name="meta.media.color_range">full</property>
  <property name="kdenlive:clipname">82.mp4</property>
  <property name="kdenlive:clip_type">2</property>
  <property name="kdenlive:folderid">16</property>
  <property name="kdenlive:id">159</property>
  <property name="mute_on_pause">0</property>
  <property name="kdenlive:file_size">149224</property>
  <property name="kdenlive:file_hash">cec26e58e826eb489ae6ee44f1313e4e</property>
  <property name="kdenlive:proxy">/home/xiaoxiae/.cache/kdenlive/proxy/cec26e58e826eb489ae6ee44f1313e4e.mkv</property>
  <property name="kdenlive:originalurl">video/Farmer/82.mp4</property>
  <property name="kdenlive:original.mlt_type">chain</property>
  <property name="kdenlive:original.in">0</property>
  <property name="kdenlive:original.out">00:00:00.983</property>
  <property name="kdenlive:original.length">60</property>
  <property name="kdenlive:original.eof">pause</property>
  <property name="kdenlive:original.resource">video/Farmer/82.mp4</property>
  <property name="kdenlive:original.mlt_service">avformat-novalidate</property>
  <property name="kdenlive:original.meta.media.nb_streams">1</property>
  <property name="kdenlive:original.meta.media.0.stream.type">video</property>
  <property name="kdenlive:original.meta.media.0.stream.frame_rate">60</property>
  <property name="kdenlive:original.meta.media.0.stream.sample_aspect_ratio">0</property>
  <property name="kdenlive:original.meta.media.0.codec.width">1920</property>
  <property name="kdenlive:original.meta.media.0.codec.height">1080</property>
  <property name="kdenlive:original.meta.media.0.codec.rotate">0</property>
  <property name="kdenlive:original.meta.media.0.codec.pix_fmt">yuv420p</property>
  <property name="kdenlive:original.meta.media.0.codec.sample_aspect_ratio">0</property>
  <property name="kdenlive:original.meta.media.0.codec.colorspace">709</property>
  <property name="kdenlive:original.meta.media.0.codec.name">h264</property>
  <property name="kdenlive:original.meta.media.0.codec.long_name">H.264 / AVC / MPEG-4 AVC / MPEG-4 part 10</property>
  <property name="kdenlive:original.meta.media.0.codec.bit_rate">1181632</property>
  <property name="kdenlive:original.meta.attr.0.stream.handler_name.markup">VideoHandler</property>
  <property name="kdenlive:original.meta.attr.0.stream.vendor_id.markup">[0][0][0][0]</property>
  <property name="kdenlive:original.meta.attr.0.stream.encoder.markup">Lavc60.3.100 libx264</property>
  <property name="kdenlive:original.meta.attr.major_brand.markup">isom</property>
  <property name="kdenlive:original.meta.attr.minor_version.markup">512</property>
  <property name="kdenlive:original.meta.attr.compatible_brands.markup">isomiso2avc1mp41</property>
  <property name="kdenlive:original.meta.attr.encoder.markup">Lavf60.3.100</property>
  <property name="kdenlive:original.meta.attr.comment.markup">Rendered with Manim Community v0.17.3</property>
  <property name="kdenlive:original.seekable">1</property>
  <property name="kdenlive:original.width">1920</property>
  <property name="kdenlive:original.height">1080</property>
  <property name="kdenlive:original.meta.media.sample_aspect_num">1</property>
  <property name="kdenlive:original.meta.media.sample_aspect_den">1</property>
  <property name="kdenlive:original.format">3</property>
  <property name="kdenlive:original.audio_index">-1</property>
  <property name="kdenlive:original.video_index">0</property>
  <property name="kdenlive:original.meta.media.frame_rate_num">60</property>
  <property name="kdenlive:original.meta.media.frame_rate_den">1</property>
  <property name="kdenlive:original.meta.media.colorspace">709</property>
  <property name="kdenlive:original.meta.media.color_trc">2</property>
  <property name="kdenlive:original.meta.media.has_b_frames">2</property>
  <property name="kdenlive:original.meta.media.width">1920</property>
  <property name="kdenlive:original.meta.media.height">1080</property>
  <property name="kdenlive:original.meta.media.color_range">mpeg</property>
  <property name="kdenlive:original.meta.media.top_field_first">0</property>
  <property name="kdenlive:original.meta.media.progressive">1</property>
  <property name="kdenlive:original.kdenlive:clip_type">2</property>
  <property name="kdenlive:original.kdenlive:folderid">16</property>
  <property name="kdenlive:original.kdenlive:id">159</property>
  <property name="kdenlive:original.mute_on_pause">0</property>
  <property name="kdenlive:original.kdenlive:file_size">149224</property>
  <property name="kdenlive:original.kdenlive:file_hash">cec26e58e826eb489ae6ee44f1313e4e</property>
  <property name="kdenlive:original.backup">1</property>
  <property name="meta.media.top_field_first">0</property>
  <property name="meta.media.progressive">1</property>
 </chain>
 <chain id="chain291" out="00:00:01.067">
  <property name="length">65</property>
  <property name="eof">pause</property>
  <property name="resource">/home/xiaoxiae/.cache/kdenlive/proxy/69947f135020b97a7e36d9b1d605090f.mkv</property>
  <property name="mlt_service">avformat-novalidate</property>
  <property name="meta.media.nb_streams">1</property>
  <property name="meta.media.0.stream.type">video</property>
  <property name="meta.media.0.stream.frame_rate">60</property>
  <property name="meta.media.0.stream.sample_aspect_ratio">0</property>
  <property name="meta.media.0.codec.width">640</property>
  <property name="meta.media.0.codec.height">360</property>
  <property name="meta.media.0.codec.rotate">0</property>
  <property name="meta.media.0.codec.pix_fmt">yuvj420p</property>
  <property name="meta.media.0.codec.sample_aspect_ratio">0</property>
  <property name="meta.media.0.codec.colorspace">601</property>
  <property name="meta.media.0.codec.name">mjpeg</property>
  <property name="meta.media.0.codec.long_name">MJPEG (Motion JPEG)</property>
  <property name="meta.media.0.codec.bit_rate">0</property>
  <property name="meta.attr.0.stream.HANDLER_NAME.markup">VideoHandler</property>
  <property name="meta.attr.0.stream.VENDOR_ID.markup">[0][0][0][0]</property>
  <property name="meta.attr.0.stream.ENCODER.markup">Lavc60.3.100 mjpeg</property>
  <property name="meta.attr.0.stream.DURATION.markup">00:00:01.084000000</property>
  <property name="meta.attr.COMMENT.markup">Rendered with Manim Community v0.17.3</property>
  <property name="meta.attr.MAJOR_BRAND.markup">isom</property>
  <property name="meta.attr.MINOR_VERSION.markup">512</property>
  <property name="meta.attr.COMPATIBLE_BRANDS.markup">isomiso2avc1mp41</property>
  <property name="meta.attr.ENCODER.markup">Lavf60.3.100</property>
  <property name="seekable">1</property>
  <property name="meta.media.sample_aspect_num">1</property>
  <property name="meta.media.sample_aspect_den">1</property>
  <property name="format">3</property>
  <property name="audio_index">-1</property>
  <property name="video_index">0</property>
  <property name="meta.media.frame_rate_num">60</property>
  <property name="meta.media.frame_rate_den">1</property>
  <property name="meta.media.colorspace">601</property>
  <property name="meta.media.color_trc">2</property>
  <property name="meta.media.has_b_frames">0</property>
  <property name="meta.media.width">640</property>
  <property name="meta.media.height">360</property>
  <property name="meta.media.color_range">full</property>
  <property name="kdenlive:clipname">83.mp4</property>
  <property name="kdenlive:clip_type">2</property>
  <property name="kdenlive:folderid">16</property>
  <property name="kdenlive:id">160</property>
  <property name="mute_on_pause">0</property>
  <property name="kdenlive:file_size">56660</property>
  <property name="kdenlive:file_hash">69947f135020b97a7e36d9b1d605090f</property>
  <property name="kdenlive:proxy">/home/xiaoxiae/.cache/kdenlive/proxy/69947f135020b97a7e36d9b1d605090f.mkv</property>
  <property name="kdenlive:originalurl">video/Farmer/83.mp4</property>
  <property name="kdenlive:original.mlt_type">chain</property>
  <property name="kdenlive:original.in">0</property>
  <property name="kdenlive:original.out">00:00:01.067</property>
  <property name="kdenlive:original.length">65</property>
  <property name="kdenlive:original.eof">pause</property>
  <property name="kdenlive:original.resource">video/Farmer/83.mp4</property>
  <property name="kdenlive:original.mlt_service">avformat-novalidate</property>
  <property name="kdenlive:original.meta.media.nb_streams">1</property>
  <property name="kdenlive:original.meta.media.0.stream.type">video</property>
  <property name="kdenlive:original.meta.media.0.stream.frame_rate">60</property>
  <property name="kdenlive:original.meta.media.0.stream.sample_aspect_ratio">0</property>
  <property name="kdenlive:original.meta.media.0.codec.width">1920</property>
  <property name="kdenlive:original.meta.media.0.codec.height">1080</property>
  <property name="kdenlive:original.meta.media.0.codec.rotate">0</property>
  <property name="kdenlive:original.meta.media.0.codec.pix_fmt">yuv420p</property>
  <property name="kdenlive:original.meta.media.0.codec.sample_aspect_ratio">0</property>
  <property name="kdenlive:original.meta.media.0.codec.colorspace">709</property>
  <property name="kdenlive:original.meta.media.0.codec.name">h264</property>
  <property name="kdenlive:original.meta.media.0.codec.long_name">H.264 / AVC / MPEG-4 AVC / MPEG-4 part 10</property>
  <property name="kdenlive:original.meta.media.0.codec.bit_rate">405858</property>
  <property name="kdenlive:original.meta.attr.0.stream.handler_name.markup">VideoHandler</property>
  <property name="kdenlive:original.meta.attr.0.stream.vendor_id.markup">[0][0][0][0]</property>
  <property name="kdenlive:original.meta.attr.0.stream.encoder.markup">Lavc60.3.100 libx264</property>
  <property name="kdenlive:original.meta.attr.major_brand.markup">isom</property>
  <property name="kdenlive:original.meta.attr.minor_version.markup">512</property>
  <property name="kdenlive:original.meta.attr.compatible_brands.markup">isomiso2avc1mp41</property>
  <property name="kdenlive:original.meta.attr.encoder.markup">Lavf60.3.100</property>
  <property name="kdenlive:original.meta.attr.comment.markup">Rendered with Manim Community v0.17.3</property>
  <property name="kdenlive:original.seekable">1</property>
  <property name="kdenlive:original.width">1920</property>
  <property name="kdenlive:original.height">1080</property>
  <property name="kdenlive:original.meta.media.sample_aspect_num">1</property>
  <property name="kdenlive:original.meta.media.sample_aspect_den">1</property>
  <property name="kdenlive:original.format">3</property>
  <property name="kdenlive:original.audio_index">-1</property>
  <property name="kdenlive:original.video_index">0</property>
  <property name="kdenlive:original.meta.media.frame_rate_num">60</property>
  <property name="kdenlive:original.meta.media.frame_rate_den">1</property>
  <property name="kdenlive:original.meta.media.colorspace">709</property>
  <property name="kdenlive:original.meta.media.color_trc">2</property>
  <property name="kdenlive:original.meta.media.has_b_frames">2</property>
  <property name="kdenlive:original.meta.media.width">1920</property>
  <property name="kdenlive:original.meta.media.height">1080</property>
  <property name="kdenlive:original.meta.media.color_range">mpeg</property>
  <property name="kdenlive:original.meta.media.top_field_first">0</property>
  <property name="kdenlive:original.meta.media.progressive">1</property>
  <property name="kdenlive:original.kdenlive:clip_type">2</property>
  <property name="kdenlive:original.kdenlive:folderid">16</property>
  <property name="kdenlive:original.kdenlive:id">160</property>
  <property name="kdenlive:original.mute_on_pause">0</property>
  <property name="kdenlive:original.kdenlive:file_size">56660</property>
  <property name="kdenlive:original.kdenlive:file_hash">69947f135020b97a7e36d9b1d605090f</property>
  <property name="kdenlive:original.backup">1</property>
  <property name="meta.media.top_field_first">0</property>
  <property name="meta.media.progressive">1</property>
 </chain>
 <chain id="chain289" out="00:00:01.067">
  <property name="length">65</property>
  <property name="eof">pause</property>
  <property name="resource">/home/xiaoxiae/.cache/kdenlive/proxy/200e1edf863fb5a8e2669d6fee0dd147.mkv</property>
  <property name="mlt_service">avformat-novalidate</property>
  <property name="meta.media.nb_streams">1</property>
  <property name="meta.media.0.stream.type">video</property>
  <property name="meta.media.0.stream.frame_rate">60</property>
  <property name="meta.media.0.stream.sample_aspect_ratio">0</property>
  <property name="meta.media.0.codec.width">640</property>
  <property name="meta.media.0.codec.height">360</property>
  <property name="meta.media.0.codec.rotate">0</property>
  <property name="meta.media.0.codec.pix_fmt">yuvj420p</property>
  <property name="meta.media.0.codec.sample_aspect_ratio">0</property>
  <property name="meta.media.0.codec.colorspace">601</property>
  <property name="meta.media.0.codec.name">mjpeg</property>
  <property name="meta.media.0.codec.long_name">MJPEG (Motion JPEG)</property>
  <property name="meta.media.0.codec.bit_rate">0</property>
  <property name="meta.attr.0.stream.HANDLER_NAME.markup">VideoHandler</property>
  <property name="meta.attr.0.stream.VENDOR_ID.markup">[0][0][0][0]</property>
  <property name="meta.attr.0.stream.ENCODER.markup">Lavc60.3.100 mjpeg</property>
  <property name="meta.attr.0.stream.DURATION.markup">00:00:01.084000000</property>
  <property name="meta.attr.COMMENT.markup">Rendered with Manim Community v0.17.3</property>
  <property name="meta.attr.MAJOR_BRAND.markup">isom</property>
  <property name="meta.attr.MINOR_VERSION.markup">512</property>
  <property name="meta.attr.COMPATIBLE_BRANDS.markup">isomiso2avc1mp41</property>
  <property name="meta.attr.ENCODER.markup">Lavf60.3.100</property>
  <property name="seekable">1</property>
  <property name="meta.media.sample_aspect_num">1</property>
  <property name="meta.media.sample_aspect_den">1</property>
  <property name="format">3</property>
  <property name="audio_index">-1</property>
  <property name="video_index">0</property>
  <property name="meta.media.frame_rate_num">60</property>
  <property name="meta.media.frame_rate_den">1</property>
  <property name="meta.media.colorspace">601</property>
  <property name="meta.media.color_trc">2</property>
  <property name="meta.media.has_b_frames">0</property>
  <property name="meta.media.width">640</property>
  <property name="meta.media.height">360</property>
  <property name="meta.media.color_range">full</property>
  <property name="kdenlive:clipname">84.mp4</property>
  <property name="kdenlive:clip_type">2</property>
  <property name="kdenlive:folderid">16</property>
  <property name="kdenlive:id">161</property>
  <property name="mute_on_pause">0</property>
  <property name="kdenlive:file_size">70734</property>
  <property name="kdenlive:file_hash">200e1edf863fb5a8e2669d6fee0dd147</property>
  <property name="kdenlive:proxy">/home/xiaoxiae/.cache/kdenlive/proxy/200e1edf863fb5a8e2669d6fee0dd147.mkv</property>
  <property name="kdenlive:originalurl">video/Farmer/84.mp4</property>
  <property name="kdenlive:original.mlt_type">chain</property>
  <property name="kdenlive:original.in">0</property>
  <property name="kdenlive:original.out">00:00:01.067</property>
  <property name="kdenlive:original.length">65</property>
  <property name="kdenlive:original.eof">pause</property>
  <property name="kdenlive:original.resource">video/Farmer/84.mp4</property>
  <property name="kdenlive:original.mlt_service">avformat-novalidate</property>
  <property name="kdenlive:original.meta.media.nb_streams">1</property>
  <property name="kdenlive:original.meta.media.0.stream.type">video</property>
  <property name="kdenlive:original.meta.media.0.stream.frame_rate">60</property>
  <property name="kdenlive:original.meta.media.0.stream.sample_aspect_ratio">0</property>
  <property name="kdenlive:original.meta.media.0.codec.width">1920</property>
  <property name="kdenlive:original.meta.media.0.codec.height">1080</property>
  <property name="kdenlive:original.meta.media.0.codec.rotate">0</property>
  <property name="kdenlive:original.meta.media.0.codec.pix_fmt">yuv420p</property>
  <property name="kdenlive:original.meta.media.0.codec.sample_aspect_ratio">0</property>
  <property name="kdenlive:original.meta.media.0.codec.colorspace">709</property>
  <property name="kdenlive:original.meta.media.0.codec.name">h264</property>
  <property name="kdenlive:original.meta.media.0.codec.long_name">H.264 / AVC / MPEG-4 AVC / MPEG-4 part 10</property>
  <property name="kdenlive:original.meta.media.0.codec.bit_rate">509789</property>
  <property name="kdenlive:original.meta.attr.0.stream.handler_name.markup">VideoHandler</property>
  <property name="kdenlive:original.meta.attr.0.stream.vendor_id.markup">[0][0][0][0]</property>
  <property name="kdenlive:original.meta.attr.0.stream.encoder.markup">Lavc60.3.100 libx264</property>
  <property name="kdenlive:original.meta.attr.major_brand.markup">isom</property>
  <property name="kdenlive:original.meta.attr.minor_version.markup">512</property>
  <property name="kdenlive:original.meta.attr.compatible_brands.markup">isomiso2avc1mp41</property>
  <property name="kdenlive:original.meta.attr.encoder.markup">Lavf60.3.100</property>
  <property name="kdenlive:original.meta.attr.comment.markup">Rendered with Manim Community v0.17.3</property>
  <property name="kdenlive:original.seekable">1</property>
  <property name="kdenlive:original.width">1920</property>
  <property name="kdenlive:original.height">1080</property>
  <property name="kdenlive:original.meta.media.sample_aspect_num">1</property>
  <property name="kdenlive:original.meta.media.sample_aspect_den">1</property>
  <property name="kdenlive:original.format">3</property>
  <property name="kdenlive:original.audio_index">-1</property>
  <property name="kdenlive:original.video_index">0</property>
  <property name="kdenlive:original.meta.media.frame_rate_num">60</property>
  <property name="kdenlive:original.meta.media.frame_rate_den">1</property>
  <property name="kdenlive:original.meta.media.colorspace">709</property>
  <property name="kdenlive:original.meta.media.color_trc">2</property>
  <property name="kdenlive:original.meta.media.has_b_frames">2</property>
  <property name="kdenlive:original.meta.media.width">1920</property>
  <property name="kdenlive:original.meta.media.height">1080</property>
  <property name="kdenlive:original.meta.media.color_range">mpeg</property>
  <property name="kdenlive:original.meta.media.top_field_first">0</property>
  <property name="kdenlive:original.meta.media.progressive">1</property>
  <property name="kdenlive:original.kdenlive:clip_type">2</property>
  <property name="kdenlive:original.kdenlive:folderid">16</property>
  <property name="kdenlive:original.kdenlive:id">161</property>
  <property name="kdenlive:original.mute_on_pause">0</property>
  <property name="kdenlive:original.kdenlive:file_size">70734</property>
  <property name="kdenlive:original.kdenlive:file_hash">200e1edf863fb5a8e2669d6fee0dd147</property>
  <property name="kdenlive:original.backup">1</property>
  <property name="meta.media.top_field_first">0</property>
  <property name="meta.media.progressive">1</property>
 </chain>
 <chain id="chain288" out="00:00:00.983">
  <property name="length">60</property>
  <property name="eof">pause</property>
  <property name="resource">/home/xiaoxiae/.cache/kdenlive/proxy/784d5ec72ad2793f7c1ac07df847469a.mkv</property>
  <property name="mlt_service">avformat-novalidate</property>
  <property name="meta.media.nb_streams">1</property>
  <property name="meta.media.0.stream.type">video</property>
  <property name="meta.media.0.stream.frame_rate">60</property>
  <property name="meta.media.0.stream.sample_aspect_ratio">0</property>
  <property name="meta.media.0.codec.width">640</property>
  <property name="meta.media.0.codec.height">360</property>
  <property name="meta.media.0.codec.rotate">0</property>
  <property name="meta.media.0.codec.pix_fmt">yuvj420p</property>
  <property name="meta.media.0.codec.sample_aspect_ratio">0</property>
  <property name="meta.media.0.codec.colorspace">601</property>
  <property name="meta.media.0.codec.name">mjpeg</property>
  <property name="meta.media.0.codec.long_name">MJPEG (Motion JPEG)</property>
  <property name="meta.media.0.codec.bit_rate">0</property>
  <property name="meta.attr.0.stream.HANDLER_NAME.markup">VideoHandler</property>
  <property name="meta.attr.0.stream.VENDOR_ID.markup">[0][0][0][0]</property>
  <property name="meta.attr.0.stream.ENCODER.markup">Lavc60.3.100 mjpeg</property>
  <property name="meta.attr.0.stream.DURATION.markup">00:00:01.000000000</property>
  <property name="meta.attr.COMMENT.markup">Rendered with Manim Community v0.17.3</property>
  <property name="meta.attr.MAJOR_BRAND.markup">isom</property>
  <property name="meta.attr.MINOR_VERSION.markup">512</property>
  <property name="meta.attr.COMPATIBLE_BRANDS.markup">isomiso2avc1mp41</property>
  <property name="meta.attr.ENCODER.markup">Lavf60.3.100</property>
  <property name="seekable">1</property>
  <property name="meta.media.sample_aspect_num">1</property>
  <property name="meta.media.sample_aspect_den">1</property>
  <property name="format">3</property>
  <property name="audio_index">-1</property>
  <property name="video_index">0</property>
  <property name="meta.media.frame_rate_num">60</property>
  <property name="meta.media.frame_rate_den">1</property>
  <property name="meta.media.colorspace">601</property>
  <property name="meta.media.color_trc">2</property>
  <property name="meta.media.has_b_frames">0</property>
  <property name="meta.media.width">640</property>
  <property name="meta.media.height">360</property>
  <property name="meta.media.color_range">full</property>
  <property name="kdenlive:clipname">85.mp4</property>
  <property name="kdenlive:clip_type">2</property>
  <property name="kdenlive:folderid">16</property>
  <property name="kdenlive:id">162</property>
  <property name="mute_on_pause">0</property>
  <property name="kdenlive:file_size">166984</property>
  <property name="kdenlive:file_hash">784d5ec72ad2793f7c1ac07df847469a</property>
  <property name="kdenlive:proxy">/home/xiaoxiae/.cache/kdenlive/proxy/784d5ec72ad2793f7c1ac07df847469a.mkv</property>
  <property name="kdenlive:originalurl">video/Farmer/85.mp4</property>
  <property name="kdenlive:original.mlt_type">chain</property>
  <property name="kdenlive:original.in">0</property>
  <property name="kdenlive:original.out">00:00:00.983</property>
  <property name="kdenlive:original.length">60</property>
  <property name="kdenlive:original.eof">pause</property>
  <property name="kdenlive:original.resource">video/Farmer/85.mp4</property>
  <property name="kdenlive:original.mlt_service">avformat-novalidate</property>
  <property name="kdenlive:original.meta.media.nb_streams">1</property>
  <property name="kdenlive:original.meta.media.0.stream.type">video</property>
  <property name="kdenlive:original.meta.media.0.stream.frame_rate">60</property>
  <property name="kdenlive:original.meta.media.0.stream.sample_aspect_ratio">0</property>
  <property name="kdenlive:original.meta.media.0.codec.width">1920</property>
  <property name="kdenlive:original.meta.media.0.codec.height">1080</property>
  <property name="kdenlive:original.meta.media.0.codec.rotate">0</property>
  <property name="kdenlive:original.meta.media.0.codec.pix_fmt">yuv420p</property>
  <property name="kdenlive:original.meta.media.0.codec.sample_aspect_ratio">0</property>
  <property name="kdenlive:original.meta.media.0.codec.colorspace">709</property>
  <property name="kdenlive:original.meta.media.0.codec.name">h264</property>
  <property name="kdenlive:original.meta.media.0.codec.long_name">H.264 / AVC / MPEG-4 AVC / MPEG-4 part 10</property>
  <property name="kdenlive:original.meta.media.0.codec.bit_rate">1324160</property>
  <property name="kdenlive:original.meta.attr.0.stream.handler_name.markup">VideoHandler</property>
  <property name="kdenlive:original.meta.attr.0.stream.vendor_id.markup">[0][0][0][0]</property>
  <property name="kdenlive:original.meta.attr.0.stream.encoder.markup">Lavc60.3.100 libx264</property>
  <property name="kdenlive:original.meta.attr.major_brand.markup">isom</property>
  <property name="kdenlive:original.meta.attr.minor_version.markup">512</property>
  <property name="kdenlive:original.meta.attr.compatible_brands.markup">isomiso2avc1mp41</property>
  <property name="kdenlive:original.meta.attr.encoder.markup">Lavf60.3.100</property>
  <property name="kdenlive:original.meta.attr.comment.markup">Rendered with Manim Community v0.17.3</property>
  <property name="kdenlive:original.seekable">1</property>
  <property name="kdenlive:original.width">1920</property>
  <property name="kdenlive:original.height">1080</property>
  <property name="kdenlive:original.meta.media.sample_aspect_num">1</property>
  <property name="kdenlive:original.meta.media.sample_aspect_den">1</property>
  <property name="kdenlive:original.format">3</property>
  <property name="kdenlive:original.audio_index">-1</property>
  <property name="kdenlive:original.video_index">0</property>
  <property name="kdenlive:original.meta.media.frame_rate_num">60</property>
  <property name="kdenlive:original.meta.media.frame_rate_den">1</property>
  <property name="kdenlive:original.meta.media.colorspace">709</property>
  <property name="kdenlive:original.meta.media.color_trc">2</property>
  <property name="kdenlive:original.meta.media.has_b_frames">2</property>
  <property name="kdenlive:original.meta.media.width">1920</property>
  <property name="kdenlive:original.meta.media.height">1080</property>
  <property name="kdenlive:original.meta.media.color_range">mpeg</property>
  <property name="kdenlive:original.meta.media.top_field_first">0</property>
  <property name="kdenlive:original.meta.media.progressive">1</property>
  <property name="kdenlive:original.kdenlive:clip_type">2</property>
  <property name="kdenlive:original.kdenlive:folderid">16</property>
  <property name="kdenlive:original.kdenlive:id">162</property>
  <property name="kdenlive:original.mute_on_pause">0</property>
  <property name="kdenlive:original.kdenlive:file_size">166984</property>
  <property name="kdenlive:original.kdenlive:file_hash">784d5ec72ad2793f7c1ac07df847469a</property>
  <property name="kdenlive:original.backup">1</property>
  <property name="meta.media.top_field_first">0</property>
  <property name="meta.media.progressive">1</property>
 </chain>
 <chain id="chain285" out="00:00:00.983">
  <property name="length">60</property>
  <property name="eof">pause</property>
  <property name="resource">/home/xiaoxiae/.cache/kdenlive/proxy/498029489bbc214da6e4fb86d3ba6cc8.mkv</property>
  <property name="mlt_service">avformat-novalidate</property>
  <property name="meta.media.nb_streams">1</property>
  <property name="meta.media.0.stream.type">video</property>
  <property name="meta.media.0.stream.frame_rate">60</property>
  <property name="meta.media.0.stream.sample_aspect_ratio">0</property>
  <property name="meta.media.0.codec.width">640</property>
  <property name="meta.media.0.codec.height">360</property>
  <property name="meta.media.0.codec.rotate">0</property>
  <property name="meta.media.0.codec.pix_fmt">yuvj420p</property>
  <property name="meta.media.0.codec.sample_aspect_ratio">0</property>
  <property name="meta.media.0.codec.colorspace">601</property>
  <property name="meta.media.0.codec.name">mjpeg</property>
  <property name="meta.media.0.codec.long_name">MJPEG (Motion JPEG)</property>
  <property name="meta.media.0.codec.bit_rate">0</property>
  <property name="meta.attr.0.stream.HANDLER_NAME.markup">VideoHandler</property>
  <property name="meta.attr.0.stream.VENDOR_ID.markup">[0][0][0][0]</property>
  <property name="meta.attr.0.stream.ENCODER.markup">Lavc60.3.100 mjpeg</property>
  <property name="meta.attr.0.stream.DURATION.markup">00:00:01.000000000</property>
  <property name="meta.attr.COMMENT.markup">Rendered with Manim Community v0.17.3</property>
  <property name="meta.attr.MAJOR_BRAND.markup">isom</property>
  <property name="meta.attr.MINOR_VERSION.markup">512</property>
  <property name="meta.attr.COMPATIBLE_BRANDS.markup">isomiso2avc1mp41</property>
  <property name="meta.attr.ENCODER.markup">Lavf60.3.100</property>
  <property name="seekable">1</property>
  <property name="meta.media.sample_aspect_num">1</property>
  <property name="meta.media.sample_aspect_den">1</property>
  <property name="format">3</property>
  <property name="audio_index">-1</property>
  <property name="video_index">0</property>
  <property name="meta.media.frame_rate_num">60</property>
  <property name="meta.media.frame_rate_den">1</property>
  <property name="meta.media.colorspace">601</property>
  <property name="meta.media.color_trc">2</property>
  <property name="meta.media.has_b_frames">0</property>
  <property name="meta.media.width">640</property>
  <property name="meta.media.height">360</property>
  <property name="meta.media.color_range">full</property>
  <property name="kdenlive:clipname">86.mp4</property>
  <property name="kdenlive:clip_type">2</property>
  <property name="kdenlive:folderid">16</property>
  <property name="kdenlive:id">163</property>
  <property name="mute_on_pause">0</property>
  <property name="kdenlive:file_size">68064</property>
  <property name="kdenlive:file_hash">498029489bbc214da6e4fb86d3ba6cc8</property>
  <property name="kdenlive:proxy">/home/xiaoxiae/.cache/kdenlive/proxy/498029489bbc214da6e4fb86d3ba6cc8.mkv</property>
  <property name="kdenlive:originalurl">video/Farmer/86.mp4</property>
  <property name="kdenlive:original.mlt_type">chain</property>
  <property name="kdenlive:original.in">0</property>
  <property name="kdenlive:original.out">00:00:00.983</property>
  <property name="kdenlive:original.length">60</property>
  <property name="kdenlive:original.eof">pause</property>
  <property name="kdenlive:original.resource">video/Farmer/86.mp4</property>
  <property name="kdenlive:original.mlt_service">avformat-novalidate</property>
  <property name="kdenlive:original.meta.media.nb_streams">1</property>
  <property name="kdenlive:original.meta.media.0.stream.type">video</property>
  <property name="kdenlive:original.meta.media.0.stream.frame_rate">60</property>
  <property name="kdenlive:original.meta.media.0.stream.sample_aspect_ratio">0</property>
  <property name="kdenlive:original.meta.media.0.codec.width">1920</property>
  <property name="kdenlive:original.meta.media.0.codec.height">1080</property>
  <property name="kdenlive:original.meta.media.0.codec.rotate">0</property>
  <property name="kdenlive:original.meta.media.0.codec.pix_fmt">yuv420p</property>
  <property name="kdenlive:original.meta.media.0.codec.sample_aspect_ratio">0</property>
  <property name="kdenlive:original.meta.media.0.codec.colorspace">709</property>
  <property name="kdenlive:original.meta.media.0.codec.name">h264</property>
  <property name="kdenlive:original.meta.media.0.codec.long_name">H.264 / AVC / MPEG-4 AVC / MPEG-4 part 10</property>
  <property name="kdenlive:original.meta.media.0.codec.bit_rate">531456</property>
  <property name="kdenlive:original.meta.attr.0.stream.handler_name.markup">VideoHandler</property>
  <property name="kdenlive:original.meta.attr.0.stream.vendor_id.markup">[0][0][0][0]</property>
  <property name="kdenlive:original.meta.attr.0.stream.encoder.markup">Lavc60.3.100 libx264</property>
  <property name="kdenlive:original.meta.attr.major_brand.markup">isom</property>
  <property name="kdenlive:original.meta.attr.minor_version.markup">512</property>
  <property name="kdenlive:original.meta.attr.compatible_brands.markup">isomiso2avc1mp41</property>
  <property name="kdenlive:original.meta.attr.encoder.markup">Lavf60.3.100</property>
  <property name="kdenlive:original.meta.attr.comment.markup">Rendered with Manim Community v0.17.3</property>
  <property name="kdenlive:original.seekable">1</property>
  <property name="kdenlive:original.width">1920</property>
  <property name="kdenlive:original.height">1080</property>
  <property name="kdenlive:original.meta.media.sample_aspect_num">1</property>
  <property name="kdenlive:original.meta.media.sample_aspect_den">1</property>
  <property name="kdenlive:original.format">3</property>
  <property name="kdenlive:original.audio_index">-1</property>
  <property name="kdenlive:original.video_index">0</property>
  <property name="kdenlive:original.meta.media.frame_rate_num">60</property>
  <property name="kdenlive:original.meta.media.frame_rate_den">1</property>
  <property name="kdenlive:original.meta.media.colorspace">709</property>
  <property name="kdenlive:original.meta.media.color_trc">2</property>
  <property name="kdenlive:original.meta.media.has_b_frames">2</property>
  <property name="kdenlive:original.meta.media.width">1920</property>
  <property name="kdenlive:original.meta.media.height">1080</property>
  <property name="kdenlive:original.meta.media.color_range">mpeg</property>
  <property name="kdenlive:original.meta.media.top_field_first">0</property>
  <property name="kdenlive:original.meta.media.progressive">1</property>
  <property name="kdenlive:original.kdenlive:clip_type">2</property>
  <property name="kdenlive:original.kdenlive:folderid">16</property>
  <property name="kdenlive:original.kdenlive:id">163</property>
  <property name="kdenlive:original.mute_on_pause">0</property>
  <property name="kdenlive:original.kdenlive:file_size">68064</property>
  <property name="kdenlive:original.kdenlive:file_hash">498029489bbc214da6e4fb86d3ba6cc8</property>
  <property name="kdenlive:original.backup">1</property>
  <property name="meta.media.top_field_first">0</property>
  <property name="meta.media.progressive">1</property>
 </chain>
 <chain id="chain286" out="00:00:01.733">
  <property name="length">105</property>
  <property name="eof">pause</property>
  <property name="resource">/home/xiaoxiae/.cache/kdenlive/proxy/31214152ff0527ea8302138f256c0cbb.mkv</property>
  <property name="mlt_service">avformat-novalidate</property>
  <property name="meta.media.nb_streams">1</property>
  <property name="meta.media.0.stream.type">video</property>
  <property name="meta.media.0.stream.frame_rate">60</property>
  <property name="meta.media.0.stream.sample_aspect_ratio">0</property>
  <property name="meta.media.0.codec.width">640</property>
  <property name="meta.media.0.codec.height">360</property>
  <property name="meta.media.0.codec.rotate">0</property>
  <property name="meta.media.0.codec.pix_fmt">yuvj420p</property>
  <property name="meta.media.0.codec.sample_aspect_ratio">0</property>
  <property name="meta.media.0.codec.colorspace">601</property>
  <property name="meta.media.0.codec.name">mjpeg</property>
  <property name="meta.media.0.codec.long_name">MJPEG (Motion JPEG)</property>
  <property name="meta.media.0.codec.bit_rate">0</property>
  <property name="meta.attr.0.stream.HANDLER_NAME.markup">VideoHandler</property>
  <property name="meta.attr.0.stream.VENDOR_ID.markup">[0][0][0][0]</property>
  <property name="meta.attr.0.stream.ENCODER.markup">Lavc60.3.100 mjpeg</property>
  <property name="meta.attr.0.stream.DURATION.markup">00:00:01.750000000</property>
  <property name="meta.attr.COMMENT.markup">Rendered with Manim Community v0.17.3</property>
  <property name="meta.attr.MAJOR_BRAND.markup">isom</property>
  <property name="meta.attr.MINOR_VERSION.markup">512</property>
  <property name="meta.attr.COMPATIBLE_BRANDS.markup">isomiso2avc1mp41</property>
  <property name="meta.attr.ENCODER.markup">Lavf60.3.100</property>
  <property name="seekable">1</property>
  <property name="meta.media.sample_aspect_num">1</property>
  <property name="meta.media.sample_aspect_den">1</property>
  <property name="format">3</property>
  <property name="audio_index">-1</property>
  <property name="video_index">0</property>
  <property name="meta.media.frame_rate_num">60</property>
  <property name="meta.media.frame_rate_den">1</property>
  <property name="meta.media.colorspace">601</property>
  <property name="meta.media.color_trc">2</property>
  <property name="meta.media.has_b_frames">0</property>
  <property name="meta.media.width">640</property>
  <property name="meta.media.height">360</property>
  <property name="meta.media.color_range">full</property>
  <property name="kdenlive:clipname">87.mp4</property>
  <property name="kdenlive:clip_type">2</property>
  <property name="kdenlive:folderid">16</property>
  <property name="kdenlive:id">164</property>
  <property name="mute_on_pause">0</property>
  <property name="kdenlive:file_size">74040</property>
  <property name="kdenlive:file_hash">31214152ff0527ea8302138f256c0cbb</property>
  <property name="kdenlive:proxy">/home/xiaoxiae/.cache/kdenlive/proxy/31214152ff0527ea8302138f256c0cbb.mkv</property>
  <property name="kdenlive:originalurl">video/Farmer/87.mp4</property>
  <property name="kdenlive:original.mlt_type">chain</property>
  <property name="kdenlive:original.in">0</property>
  <property name="kdenlive:original.out">00:00:01.733</property>
  <property name="kdenlive:original.length">105</property>
  <property name="kdenlive:original.eof">pause</property>
  <property name="kdenlive:original.resource">video/Farmer/87.mp4</property>
  <property name="kdenlive:original.mlt_service">avformat-novalidate</property>
  <property name="kdenlive:original.meta.media.nb_streams">1</property>
  <property name="kdenlive:original.meta.media.0.stream.type">video</property>
  <property name="kdenlive:original.meta.media.0.stream.frame_rate">60</property>
  <property name="kdenlive:original.meta.media.0.stream.sample_aspect_ratio">0</property>
  <property name="kdenlive:original.meta.media.0.codec.width">1920</property>
  <property name="kdenlive:original.meta.media.0.codec.height">1080</property>
  <property name="kdenlive:original.meta.media.0.codec.rotate">0</property>
  <property name="kdenlive:original.meta.media.0.codec.pix_fmt">yuv420p</property>
  <property name="kdenlive:original.meta.media.0.codec.sample_aspect_ratio">0</property>
  <property name="kdenlive:original.meta.media.0.codec.colorspace">709</property>
  <property name="kdenlive:original.meta.media.0.codec.name">h264</property>
  <property name="kdenlive:original.meta.media.0.codec.long_name">H.264 / AVC / MPEG-4 AVC / MPEG-4 part 10</property>
  <property name="kdenlive:original.meta.media.0.codec.bit_rate">328502</property>
  <property name="kdenlive:original.meta.attr.0.stream.handler_name.markup">VideoHandler</property>
  <property name="kdenlive:original.meta.attr.0.stream.vendor_id.markup">[0][0][0][0]</property>
  <property name="kdenlive:original.meta.attr.0.stream.encoder.markup">Lavc60.3.100 libx264</property>
  <property name="kdenlive:original.meta.attr.major_brand.markup">isom</property>
  <property name="kdenlive:original.meta.attr.minor_version.markup">512</property>
  <property name="kdenlive:original.meta.attr.compatible_brands.markup">isomiso2avc1mp41</property>
  <property name="kdenlive:original.meta.attr.encoder.markup">Lavf60.3.100</property>
  <property name="kdenlive:original.meta.attr.comment.markup">Rendered with Manim Community v0.17.3</property>
  <property name="kdenlive:original.seekable">1</property>
  <property name="kdenlive:original.width">1920</property>
  <property name="kdenlive:original.height">1080</property>
  <property name="kdenlive:original.meta.media.sample_aspect_num">1</property>
  <property name="kdenlive:original.meta.media.sample_aspect_den">1</property>
  <property name="kdenlive:original.format">3</property>
  <property name="kdenlive:original.audio_index">-1</property>
  <property name="kdenlive:original.video_index">0</property>
  <property name="kdenlive:original.meta.media.frame_rate_num">60</property>
  <property name="kdenlive:original.meta.media.frame_rate_den">1</property>
  <property name="kdenlive:original.meta.media.colorspace">709</property>
  <property name="kdenlive:original.meta.media.color_trc">2</property>
  <property name="kdenlive:original.meta.media.has_b_frames">2</property>
  <property name="kdenlive:original.meta.media.width">1920</property>
  <property name="kdenlive:original.meta.media.height">1080</property>
  <property name="kdenlive:original.meta.media.color_range">mpeg</property>
  <property name="kdenlive:original.meta.media.top_field_first">0</property>
  <property name="kdenlive:original.meta.media.progressive">1</property>
  <property name="kdenlive:original.kdenlive:clip_type">2</property>
  <property name="kdenlive:original.kdenlive:folderid">16</property>
  <property name="kdenlive:original.kdenlive:id">164</property>
  <property name="kdenlive:original.mute_on_pause">0</property>
  <property name="kdenlive:original.kdenlive:file_size">74040</property>
  <property name="kdenlive:original.kdenlive:file_hash">31214152ff0527ea8302138f256c0cbb</property>
  <property name="kdenlive:original.backup">1</property>
  <property name="meta.media.top_field_first">0</property>
  <property name="meta.media.progressive">1</property>
 </chain>
 <chain id="chain282" out="00:00:00.983">
  <property name="length">60</property>
  <property name="eof">pause</property>
  <property name="resource">/home/xiaoxiae/.cache/kdenlive/proxy/50841e94cd7688fe84bce590c96b9e2a.mkv</property>
  <property name="mlt_service">avformat-novalidate</property>
  <property name="meta.media.nb_streams">1</property>
  <property name="meta.media.0.stream.type">video</property>
  <property name="meta.media.0.stream.frame_rate">60</property>
  <property name="meta.media.0.stream.sample_aspect_ratio">0</property>
  <property name="meta.media.0.codec.width">640</property>
  <property name="meta.media.0.codec.height">360</property>
  <property name="meta.media.0.codec.rotate">0</property>
  <property name="meta.media.0.codec.pix_fmt">yuvj420p</property>
  <property name="meta.media.0.codec.sample_aspect_ratio">0</property>
  <property name="meta.media.0.codec.colorspace">601</property>
  <property name="meta.media.0.codec.name">mjpeg</property>
  <property name="meta.media.0.codec.long_name">MJPEG (Motion JPEG)</property>
  <property name="meta.media.0.codec.bit_rate">0</property>
  <property name="meta.attr.0.stream.HANDLER_NAME.markup">VideoHandler</property>
  <property name="meta.attr.0.stream.VENDOR_ID.markup">[0][0][0][0]</property>
  <property name="meta.attr.0.stream.ENCODER.markup">Lavc60.3.100 mjpeg</property>
  <property name="meta.attr.0.stream.DURATION.markup">00:00:01.000000000</property>
  <property name="meta.attr.COMMENT.markup">Rendered with Manim Community v0.17.3</property>
  <property name="meta.attr.MAJOR_BRAND.markup">isom</property>
  <property name="meta.attr.MINOR_VERSION.markup">512</property>
  <property name="meta.attr.COMPATIBLE_BRANDS.markup">isomiso2avc1mp41</property>
  <property name="meta.attr.ENCODER.markup">Lavf60.3.100</property>
  <property name="seekable">1</property>
  <property name="meta.media.sample_aspect_num">1</property>
  <property name="meta.media.sample_aspect_den">1</property>
  <property name="format">3</property>
  <property name="audio_index">-1</property>
  <property name="video_index">0</property>
  <property name="meta.media.frame_rate_num">60</property>
  <property name="meta.media.frame_rate_den">1</property>
  <property name="meta.media.colorspace">601</property>
  <property name="meta.media.color_trc">2</property>
  <property name="meta.media.has_b_frames">0</property>
  <property name="meta.media.width">640</property>
  <property name="meta.media.height">360</property>
  <property name="meta.media.color_range">full</property>
  <property name="kdenlive:clipname">88.mp4</property>
  <property name="kdenlive:clip_type">2</property>
  <property name="kdenlive:folderid">16</property>
  <property name="kdenlive:id">165</property>
  <property name="mute_on_pause">0</property>
  <property name="kdenlive:file_size">62696</property>
  <property name="kdenlive:file_hash">50841e94cd7688fe84bce590c96b9e2a</property>
  <property name="kdenlive:proxy">/home/xiaoxiae/.cache/kdenlive/proxy/50841e94cd7688fe84bce590c96b9e2a.mkv</property>
  <property name="kdenlive:originalurl">video/Farmer/88.mp4</property>
  <property name="kdenlive:original.mlt_type">chain</property>
  <property name="kdenlive:original.in">0</property>
  <property name="kdenlive:original.out">00:00:00.983</property>
  <property name="kdenlive:original.length">60</property>
  <property name="kdenlive:original.eof">pause</property>
  <property name="kdenlive:original.resource">video/Farmer/88.mp4</property>
  <property name="kdenlive:original.mlt_service">avformat-novalidate</property>
  <property name="kdenlive:original.meta.media.nb_streams">1</property>
  <property name="kdenlive:original.meta.media.0.stream.type">video</property>
  <property name="kdenlive:original.meta.media.0.stream.frame_rate">60</property>
  <property name="kdenlive:original.meta.media.0.stream.sample_aspect_ratio">0</property>
  <property name="kdenlive:original.meta.media.0.codec.width">1920</property>
  <property name="kdenlive:original.meta.media.0.codec.height">1080</property>
  <property name="kdenlive:original.meta.media.0.codec.rotate">0</property>
  <property name="kdenlive:original.meta.media.0.codec.pix_fmt">yuv420p</property>
  <property name="kdenlive:original.meta.media.0.codec.sample_aspect_ratio">0</property>
  <property name="kdenlive:original.meta.media.0.codec.colorspace">709</property>
  <property name="kdenlive:original.meta.media.0.codec.name">h264</property>
  <property name="kdenlive:original.meta.media.0.codec.long_name">H.264 / AVC / MPEG-4 AVC / MPEG-4 part 10</property>
  <property name="kdenlive:original.meta.media.0.codec.bit_rate">488512</property>
  <property name="kdenlive:original.meta.attr.0.stream.handler_name.markup">VideoHandler</property>
  <property name="kdenlive:original.meta.attr.0.stream.vendor_id.markup">[0][0][0][0]</property>
  <property name="kdenlive:original.meta.attr.0.stream.encoder.markup">Lavc60.3.100 libx264</property>
  <property name="kdenlive:original.meta.attr.major_brand.markup">isom</property>
  <property name="kdenlive:original.meta.attr.minor_version.markup">512</property>
  <property name="kdenlive:original.meta.attr.compatible_brands.markup">isomiso2avc1mp41</property>
  <property name="kdenlive:original.meta.attr.encoder.markup">Lavf60.3.100</property>
  <property name="kdenlive:original.meta.attr.comment.markup">Rendered with Manim Community v0.17.3</property>
  <property name="kdenlive:original.seekable">1</property>
  <property name="kdenlive:original.width">1920</property>
  <property name="kdenlive:original.height">1080</property>
  <property name="kdenlive:original.meta.media.sample_aspect_num">1</property>
  <property name="kdenlive:original.meta.media.sample_aspect_den">1</property>
  <property name="kdenlive:original.format">3</property>
  <property name="kdenlive:original.audio_index">-1</property>
  <property name="kdenlive:original.video_index">0</property>
  <property name="kdenlive:original.meta.media.frame_rate_num">60</property>
  <property name="kdenlive:original.meta.media.frame_rate_den">1</property>
  <property name="kdenlive:original.meta.media.colorspace">709</property>
  <property name="kdenlive:original.meta.media.color_trc">2</property>
  <property name="kdenlive:original.meta.media.has_b_frames">2</property>
  <property name="kdenlive:original.meta.media.width">1920</property>
  <property name="kdenlive:original.meta.media.height">1080</property>
  <property name="kdenlive:original.meta.media.color_range">mpeg</property>
  <property name="kdenlive:original.meta.media.top_field_first">0</property>
  <property name="kdenlive:original.meta.media.progressive">1</property>
  <property name="kdenlive:original.kdenlive:clip_type">2</property>
  <property name="kdenlive:original.kdenlive:folderid">16</property>
  <property name="kdenlive:original.kdenlive:id">165</property>
  <property name="kdenlive:original.mute_on_pause">0</property>
  <property name="kdenlive:original.kdenlive:file_size">62696</property>
  <property name="kdenlive:original.kdenlive:file_hash">50841e94cd7688fe84bce590c96b9e2a</property>
  <property name="kdenlive:original.backup">1</property>
  <property name="meta.media.top_field_first">0</property>
  <property name="meta.media.progressive">1</property>
 </chain>
 <chain id="chain280" out="00:00:00.983">
  <property name="length">60</property>
  <property name="eof">pause</property>
  <property name="resource">/home/xiaoxiae/.cache/kdenlive/proxy/40616ac56404b3714a810da8716b4f78.mkv</property>
  <property name="mlt_service">avformat-novalidate</property>
  <property name="meta.media.nb_streams">1</property>
  <property name="meta.media.0.stream.type">video</property>
  <property name="meta.media.0.stream.frame_rate">60</property>
  <property name="meta.media.0.stream.sample_aspect_ratio">0</property>
  <property name="meta.media.0.codec.width">640</property>
  <property name="meta.media.0.codec.height">360</property>
  <property name="meta.media.0.codec.rotate">0</property>
  <property name="meta.media.0.codec.pix_fmt">yuvj420p</property>
  <property name="meta.media.0.codec.sample_aspect_ratio">0</property>
  <property name="meta.media.0.codec.colorspace">601</property>
  <property name="meta.media.0.codec.name">mjpeg</property>
  <property name="meta.media.0.codec.long_name">MJPEG (Motion JPEG)</property>
  <property name="meta.media.0.codec.bit_rate">0</property>
  <property name="meta.attr.0.stream.HANDLER_NAME.markup">VideoHandler</property>
  <property name="meta.attr.0.stream.VENDOR_ID.markup">[0][0][0][0]</property>
  <property name="meta.attr.0.stream.ENCODER.markup">Lavc60.3.100 mjpeg</property>
  <property name="meta.attr.0.stream.DURATION.markup">00:00:01.000000000</property>
  <property name="meta.attr.COMMENT.markup">Rendered with Manim Community v0.17.3</property>
  <property name="meta.attr.MAJOR_BRAND.markup">isom</property>
  <property name="meta.attr.MINOR_VERSION.markup">512</property>
  <property name="meta.attr.COMPATIBLE_BRANDS.markup">isomiso2avc1mp41</property>
  <property name="meta.attr.ENCODER.markup">Lavf60.3.100</property>
  <property name="seekable">1</property>
  <property name="meta.media.sample_aspect_num">1</property>
  <property name="meta.media.sample_aspect_den">1</property>
  <property name="format">3</property>
  <property name="audio_index">-1</property>
  <property name="video_index">0</property>
  <property name="meta.media.frame_rate_num">60</property>
  <property name="meta.media.frame_rate_den">1</property>
  <property name="meta.media.colorspace">601</property>
  <property name="meta.media.color_trc">2</property>
  <property name="meta.media.has_b_frames">0</property>
  <property name="meta.media.width">640</property>
  <property name="meta.media.height">360</property>
  <property name="meta.media.color_range">full</property>
  <property name="kdenlive:clipname">89.mp4</property>
  <property name="kdenlive:clip_type">2</property>
  <property name="kdenlive:folderid">16</property>
  <property name="kdenlive:id">166</property>
  <property name="mute_on_pause">0</property>
  <property name="kdenlive:file_size">195175</property>
  <property name="kdenlive:file_hash">40616ac56404b3714a810da8716b4f78</property>
  <property name="kdenlive:proxy">/home/xiaoxiae/.cache/kdenlive/proxy/40616ac56404b3714a810da8716b4f78.mkv</property>
  <property name="kdenlive:originalurl">video/Farmer/89.mp4</property>
  <property name="kdenlive:original.mlt_type">chain</property>
  <property name="kdenlive:original.in">0</property>
  <property name="kdenlive:original.out">00:00:00.983</property>
  <property name="kdenlive:original.length">60</property>
  <property name="kdenlive:original.eof">pause</property>
  <property name="kdenlive:original.resource">video/Farmer/89.mp4</property>
  <property name="kdenlive:original.mlt_service">avformat-novalidate</property>
  <property name="kdenlive:original.meta.media.nb_streams">1</property>
  <property name="kdenlive:original.meta.media.0.stream.type">video</property>
  <property name="kdenlive:original.meta.media.0.stream.frame_rate">60</property>
  <property name="kdenlive:original.meta.media.0.stream.sample_aspect_ratio">0</property>
  <property name="kdenlive:original.meta.media.0.codec.width">1920</property>
  <property name="kdenlive:original.meta.media.0.codec.height">1080</property>
  <property name="kdenlive:original.meta.media.0.codec.rotate">0</property>
  <property name="kdenlive:original.meta.media.0.codec.pix_fmt">yuv420p</property>
  <property name="kdenlive:original.meta.media.0.codec.sample_aspect_ratio">0</property>
  <property name="kdenlive:original.meta.media.0.codec.colorspace">709</property>
  <property name="kdenlive:original.meta.media.0.codec.name">h264</property>
  <property name="kdenlive:original.meta.media.0.codec.long_name">H.264 / AVC / MPEG-4 AVC / MPEG-4 part 10</property>
  <property name="kdenlive:original.meta.media.0.codec.bit_rate">1549624</property>
  <property name="kdenlive:original.meta.attr.0.stream.handler_name.markup">VideoHandler</property>
  <property name="kdenlive:original.meta.attr.0.stream.vendor_id.markup">[0][0][0][0]</property>
  <property name="kdenlive:original.meta.attr.0.stream.encoder.markup">Lavc60.3.100 libx264</property>
  <property name="kdenlive:original.meta.attr.major_brand.markup">isom</property>
  <property name="kdenlive:original.meta.attr.minor_version.markup">512</property>
  <property name="kdenlive:original.meta.attr.compatible_brands.markup">isomiso2avc1mp41</property>
  <property name="kdenlive:original.meta.attr.encoder.markup">Lavf60.3.100</property>
  <property name="kdenlive:original.meta.attr.comment.markup">Rendered with Manim Community v0.17.3</property>
  <property name="kdenlive:original.seekable">1</property>
  <property name="kdenlive:original.width">1920</property>
  <property name="kdenlive:original.height">1080</property>
  <property name="kdenlive:original.meta.media.sample_aspect_num">1</property>
  <property name="kdenlive:original.meta.media.sample_aspect_den">1</property>
  <property name="kdenlive:original.format">3</property>
  <property name="kdenlive:original.audio_index">-1</property>
  <property name="kdenlive:original.video_index">0</property>
  <property name="kdenlive:original.meta.media.frame_rate_num">60</property>
  <property name="kdenlive:original.meta.media.frame_rate_den">1</property>
  <property name="kdenlive:original.meta.media.colorspace">709</property>
  <property name="kdenlive:original.meta.media.color_trc">2</property>
  <property name="kdenlive:original.meta.media.has_b_frames">2</property>
  <property name="kdenlive:original.meta.media.width">1920</property>
  <property name="kdenlive:original.meta.media.height">1080</property>
  <property name="kdenlive:original.meta.media.color_range">mpeg</property>
  <property name="kdenlive:original.meta.media.top_field_first">0</property>
  <property name="kdenlive:original.meta.media.progressive">1</property>
  <property name="kdenlive:original.kdenlive:clip_type">2</property>
  <property name="kdenlive:original.kdenlive:folderid">16</property>
  <property name="kdenlive:original.kdenlive:id">166</property>
  <property name="kdenlive:original.mute_on_pause">0</property>
  <property name="kdenlive:original.kdenlive:file_size">195175</property>
  <property name="kdenlive:original.kdenlive:file_hash">40616ac56404b3714a810da8716b4f78</property>
  <property name="kdenlive:original.backup">1</property>
  <property name="meta.media.top_field_first">0</property>
  <property name="meta.media.progressive">1</property>
 </chain>
 <chain id="chain419" out="00:00:00.983">
  <property name="length">60</property>
  <property name="eof">pause</property>
  <property name="resource">/home/xiaoxiae/.cache/kdenlive/proxy/46a29554e8cd1b1fb99ce7e41cbb06ed.mkv</property>
  <property name="mlt_service">avformat-novalidate</property>
  <property name="meta.media.nb_streams">1</property>
  <property name="meta.media.0.stream.type">video</property>
  <property name="meta.media.0.stream.frame_rate">60</property>
  <property name="meta.media.0.stream.sample_aspect_ratio">0</property>
  <property name="meta.media.0.codec.width">640</property>
  <property name="meta.media.0.codec.height">360</property>
  <property name="meta.media.0.codec.rotate">0</property>
  <property name="meta.media.0.codec.pix_fmt">yuvj420p</property>
  <property name="meta.media.0.codec.sample_aspect_ratio">0</property>
  <property name="meta.media.0.codec.colorspace">601</property>
  <property name="meta.media.0.codec.name">mjpeg</property>
  <property name="meta.media.0.codec.long_name">MJPEG (Motion JPEG)</property>
  <property name="meta.media.0.codec.bit_rate">0</property>
  <property name="meta.attr.0.stream.HANDLER_NAME.markup">VideoHandler</property>
  <property name="meta.attr.0.stream.VENDOR_ID.markup">[0][0][0][0]</property>
  <property name="meta.attr.0.stream.ENCODER.markup">Lavc60.3.100 mjpeg</property>
  <property name="meta.attr.0.stream.DURATION.markup">00:00:01.000000000</property>
  <property name="meta.attr.COMMENT.markup">Rendered with Manim Community v0.17.3</property>
  <property name="meta.attr.MAJOR_BRAND.markup">isom</property>
  <property name="meta.attr.MINOR_VERSION.markup">512</property>
  <property name="meta.attr.COMPATIBLE_BRANDS.markup">isomiso2avc1mp41</property>
  <property name="meta.attr.ENCODER.markup">Lavf60.3.100</property>
  <property name="seekable">1</property>
  <property name="meta.media.sample_aspect_num">1</property>
  <property name="meta.media.sample_aspect_den">1</property>
  <property name="format">3</property>
  <property name="audio_index">-1</property>
  <property name="video_index">0</property>
  <property name="meta.media.frame_rate_num">60</property>
  <property name="meta.media.frame_rate_den">1</property>
  <property name="meta.media.colorspace">601</property>
  <property name="meta.media.color_trc">2</property>
  <property name="meta.media.has_b_frames">0</property>
  <property name="meta.media.width">640</property>
  <property name="meta.media.height">360</property>
  <property name="meta.media.color_range">full</property>
  <property name="kdenlive:clipname">9.mp4</property>
  <property name="kdenlive:clip_type">2</property>
  <property name="kdenlive:folderid">16</property>
  <property name="kdenlive:id">167</property>
  <property name="mute_on_pause">0</property>
  <property name="kdenlive:file_size">132154</property>
  <property name="kdenlive:file_hash">46a29554e8cd1b1fb99ce7e41cbb06ed</property>
  <property name="kdenlive:proxy">/home/xiaoxiae/.cache/kdenlive/proxy/46a29554e8cd1b1fb99ce7e41cbb06ed.mkv</property>
  <property name="kdenlive:originalurl">video/Farmer/9.mp4</property>
  <property name="kdenlive:original.mlt_type">chain</property>
  <property name="kdenlive:original.in">0</property>
  <property name="kdenlive:original.out">00:00:00.983</property>
  <property name="kdenlive:original.length">60</property>
  <property name="kdenlive:original.eof">pause</property>
  <property name="kdenlive:original.resource">video/Farmer/9.mp4</property>
  <property name="kdenlive:original.mlt_service">avformat-novalidate</property>
  <property name="kdenlive:original.meta.media.nb_streams">1</property>
  <property name="kdenlive:original.meta.media.0.stream.type">video</property>
  <property name="kdenlive:original.meta.media.0.stream.frame_rate">60</property>
  <property name="kdenlive:original.meta.media.0.stream.sample_aspect_ratio">0</property>
  <property name="kdenlive:original.meta.media.0.codec.width">1920</property>
  <property name="kdenlive:original.meta.media.0.codec.height">1080</property>
  <property name="kdenlive:original.meta.media.0.codec.rotate">0</property>
  <property name="kdenlive:original.meta.media.0.codec.pix_fmt">yuv420p</property>
  <property name="kdenlive:original.meta.media.0.codec.sample_aspect_ratio">0</property>
  <property name="kdenlive:original.meta.media.0.codec.colorspace">709</property>
  <property name="kdenlive:original.meta.media.0.codec.name">h264</property>
  <property name="kdenlive:original.meta.media.0.codec.long_name">H.264 / AVC / MPEG-4 AVC / MPEG-4 part 10</property>
  <property name="kdenlive:original.meta.media.0.codec.bit_rate">1044176</property>
  <property name="kdenlive:original.meta.attr.0.stream.handler_name.markup">VideoHandler</property>
  <property name="kdenlive:original.meta.attr.0.stream.vendor_id.markup">[0][0][0][0]</property>
  <property name="kdenlive:original.meta.attr.0.stream.encoder.markup">Lavc60.3.100 libx264</property>
  <property name="kdenlive:original.meta.attr.major_brand.markup">isom</property>
  <property name="kdenlive:original.meta.attr.minor_version.markup">512</property>
  <property name="kdenlive:original.meta.attr.compatible_brands.markup">isomiso2avc1mp41</property>
  <property name="kdenlive:original.meta.attr.encoder.markup">Lavf60.3.100</property>
  <property name="kdenlive:original.meta.attr.comment.markup">Rendered with Manim Community v0.17.3</property>
  <property name="kdenlive:original.seekable">1</property>
  <property name="kdenlive:original.width">1920</property>
  <property name="kdenlive:original.height">1080</property>
  <property name="kdenlive:original.meta.media.sample_aspect_num">1</property>
  <property name="kdenlive:original.meta.media.sample_aspect_den">1</property>
  <property name="kdenlive:original.format">3</property>
  <property name="kdenlive:original.audio_index">-1</property>
  <property name="kdenlive:original.video_index">0</property>
  <property name="kdenlive:original.meta.media.frame_rate_num">60</property>
  <property name="kdenlive:original.meta.media.frame_rate_den">1</property>
  <property name="kdenlive:original.meta.media.colorspace">709</property>
  <property name="kdenlive:original.meta.media.color_trc">2</property>
  <property name="kdenlive:original.meta.media.has_b_frames">2</property>
  <property name="kdenlive:original.meta.media.width">1920</property>
  <property name="kdenlive:original.meta.media.height">1080</property>
  <property name="kdenlive:original.meta.media.color_range">mpeg</property>
  <property name="kdenlive:original.meta.media.top_field_first">0</property>
  <property name="kdenlive:original.meta.media.progressive">1</property>
  <property name="kdenlive:original.kdenlive:clip_type">2</property>
  <property name="kdenlive:original.kdenlive:folderid">16</property>
  <property name="kdenlive:original.kdenlive:id">167</property>
  <property name="kdenlive:original.mute_on_pause">0</property>
  <property name="kdenlive:original.kdenlive:file_size">132154</property>
  <property name="kdenlive:original.kdenlive:file_hash">46a29554e8cd1b1fb99ce7e41cbb06ed</property>
  <property name="kdenlive:original.backup">1</property>
  <property name="meta.media.top_field_first">0</property>
  <property name="meta.media.progressive">1</property>
 </chain>
 <chain id="chain279" out="00:00:01.483">
  <property name="length">90</property>
  <property name="eof">pause</property>
  <property name="resource">/home/xiaoxiae/.cache/kdenlive/proxy/999ea54c47b0d22af4e72c1697d64efa.mkv</property>
  <property name="mlt_service">avformat-novalidate</property>
  <property name="meta.media.nb_streams">1</property>
  <property name="meta.media.0.stream.type">video</property>
  <property name="meta.media.0.stream.frame_rate">60</property>
  <property name="meta.media.0.stream.sample_aspect_ratio">0</property>
  <property name="meta.media.0.codec.width">640</property>
  <property name="meta.media.0.codec.height">360</property>
  <property name="meta.media.0.codec.rotate">0</property>
  <property name="meta.media.0.codec.pix_fmt">yuvj420p</property>
  <property name="meta.media.0.codec.sample_aspect_ratio">0</property>
  <property name="meta.media.0.codec.colorspace">601</property>
  <property name="meta.media.0.codec.name">mjpeg</property>
  <property name="meta.media.0.codec.long_name">MJPEG (Motion JPEG)</property>
  <property name="meta.media.0.codec.bit_rate">0</property>
  <property name="meta.attr.0.stream.HANDLER_NAME.markup">VideoHandler</property>
  <property name="meta.attr.0.stream.VENDOR_ID.markup">[0][0][0][0]</property>
  <property name="meta.attr.0.stream.ENCODER.markup">Lavc60.3.100 mjpeg</property>
  <property name="meta.attr.0.stream.DURATION.markup">00:00:01.500000000</property>
  <property name="meta.attr.COMMENT.markup">Rendered with Manim Community v0.17.3</property>
  <property name="meta.attr.MAJOR_BRAND.markup">isom</property>
  <property name="meta.attr.MINOR_VERSION.markup">512</property>
  <property name="meta.attr.COMPATIBLE_BRANDS.markup">isomiso2avc1mp41</property>
  <property name="meta.attr.ENCODER.markup">Lavf60.3.100</property>
  <property name="seekable">1</property>
  <property name="meta.media.sample_aspect_num">1</property>
  <property name="meta.media.sample_aspect_den">1</property>
  <property name="format">3</property>
  <property name="audio_index">-1</property>
  <property name="video_index">0</property>
  <property name="meta.media.frame_rate_num">60</property>
  <property name="meta.media.frame_rate_den">1</property>
  <property name="meta.media.colorspace">601</property>
  <property name="meta.media.color_trc">2</property>
  <property name="meta.media.has_b_frames">0</property>
  <property name="meta.media.width">640</property>
  <property name="meta.media.height">360</property>
  <property name="meta.media.color_range">full</property>
  <property name="kdenlive:clipname">90.mp4</property>
  <property name="kdenlive:clip_type">2</property>
  <property name="kdenlive:folderid">16</property>
  <property name="kdenlive:id">168</property>
  <property name="mute_on_pause">0</property>
  <property name="kdenlive:file_size">85236</property>
  <property name="kdenlive:file_hash">999ea54c47b0d22af4e72c1697d64efa</property>
  <property name="kdenlive:proxy">/home/xiaoxiae/.cache/kdenlive/proxy/999ea54c47b0d22af4e72c1697d64efa.mkv</property>
  <property name="kdenlive:originalurl">video/Farmer/90.mp4</property>
  <property name="kdenlive:original.mlt_type">chain</property>
  <property name="kdenlive:original.in">0</property>
  <property name="kdenlive:original.out">00:00:01.483</property>
  <property name="kdenlive:original.length">90</property>
  <property name="kdenlive:original.eof">pause</property>
  <property name="kdenlive:original.resource">video/Farmer/90.mp4</property>
  <property name="kdenlive:original.mlt_service">avformat-novalidate</property>
  <property name="kdenlive:original.meta.media.nb_streams">1</property>
  <property name="kdenlive:original.meta.media.0.stream.type">video</property>
  <property name="kdenlive:original.meta.media.0.stream.frame_rate">60</property>
  <property name="kdenlive:original.meta.media.0.stream.sample_aspect_ratio">0</property>
  <property name="kdenlive:original.meta.media.0.codec.width">1920</property>
  <property name="kdenlive:original.meta.media.0.codec.height">1080</property>
  <property name="kdenlive:original.meta.media.0.codec.rotate">0</property>
  <property name="kdenlive:original.meta.media.0.codec.pix_fmt">yuv420p</property>
  <property name="kdenlive:original.meta.media.0.codec.sample_aspect_ratio">0</property>
  <property name="kdenlive:original.meta.media.0.codec.colorspace">709</property>
  <property name="kdenlive:original.meta.media.0.codec.name">h264</property>
  <property name="kdenlive:original.meta.media.0.codec.long_name">H.264 / AVC / MPEG-4 AVC / MPEG-4 part 10</property>
  <property name="kdenlive:original.meta.media.0.codec.bit_rate">444224</property>
  <property name="kdenlive:original.meta.attr.0.stream.handler_name.markup">VideoHandler</property>
  <property name="kdenlive:original.meta.attr.0.stream.vendor_id.markup">[0][0][0][0]</property>
  <property name="kdenlive:original.meta.attr.0.stream.encoder.markup">Lavc60.3.100 libx264</property>
  <property name="kdenlive:original.meta.attr.major_brand.markup">isom</property>
  <property name="kdenlive:original.meta.attr.minor_version.markup">512</property>
  <property name="kdenlive:original.meta.attr.compatible_brands.markup">isomiso2avc1mp41</property>
  <property name="kdenlive:original.meta.attr.encoder.markup">Lavf60.3.100</property>
  <property name="kdenlive:original.meta.attr.comment.markup">Rendered with Manim Community v0.17.3</property>
  <property name="kdenlive:original.seekable">1</property>
  <property name="kdenlive:original.width">1920</property>
  <property name="kdenlive:original.height">1080</property>
  <property name="kdenlive:original.meta.media.sample_aspect_num">1</property>
  <property name="kdenlive:original.meta.media.sample_aspect_den">1</property>
  <property name="kdenlive:original.format">3</property>
  <property name="kdenlive:original.audio_index">-1</property>
  <property name="kdenlive:original.video_index">0</property>
  <property name="kdenlive:original.meta.media.frame_rate_num">60</property>
  <property name="kdenlive:original.meta.media.frame_rate_den">1</property>
  <property name="kdenlive:original.meta.media.colorspace">709</property>
  <property name="kdenlive:original.meta.media.color_trc">2</property>
  <property name="kdenlive:original.meta.media.has_b_frames">2</property>
  <property name="kdenlive:original.meta.media.width">1920</property>
  <property name="kdenlive:original.meta.media.height">1080</property>
  <property name="kdenlive:original.meta.media.color_range">mpeg</property>
  <property name="kdenlive:original.meta.media.top_field_first">0</property>
  <property name="kdenlive:original.meta.media.progressive">1</property>
  <property name="kdenlive:original.kdenlive:clip_type">2</property>
  <property name="kdenlive:original.kdenlive:folderid">16</property>
  <property name="kdenlive:original.kdenlive:id">168</property>
  <property name="kdenlive:original.mute_on_pause">0</property>
  <property name="kdenlive:original.kdenlive:file_size">85236</property>
  <property name="kdenlive:original.kdenlive:file_hash">999ea54c47b0d22af4e72c1697d64efa</property>
  <property name="kdenlive:original.backup">1</property>
  <property name="meta.media.top_field_first">0</property>
  <property name="meta.media.progressive">1</property>
 </chain>
 <chain id="chain278" out="00:00:02.983">
  <property name="length">180</property>
  <property name="eof">pause</property>
  <property name="resource">/home/xiaoxiae/.cache/kdenlive/proxy/485a249dc1b36ec53ac7b264dfb2ca78.mkv</property>
  <property name="mlt_service">avformat-novalidate</property>
  <property name="meta.media.nb_streams">1</property>
  <property name="meta.media.0.stream.type">video</property>
  <property name="meta.media.0.stream.frame_rate">60</property>
  <property name="meta.media.0.stream.sample_aspect_ratio">0</property>
  <property name="meta.media.0.codec.width">640</property>
  <property name="meta.media.0.codec.height">360</property>
  <property name="meta.media.0.codec.rotate">0</property>
  <property name="meta.media.0.codec.pix_fmt">yuvj420p</property>
  <property name="meta.media.0.codec.sample_aspect_ratio">0</property>
  <property name="meta.media.0.codec.colorspace">601</property>
  <property name="meta.media.0.codec.name">mjpeg</property>
  <property name="meta.media.0.codec.long_name">MJPEG (Motion JPEG)</property>
  <property name="meta.media.0.codec.bit_rate">0</property>
  <property name="meta.attr.0.stream.HANDLER_NAME.markup">VideoHandler</property>
  <property name="meta.attr.0.stream.VENDOR_ID.markup">[0][0][0][0]</property>
  <property name="meta.attr.0.stream.ENCODER.markup">Lavc60.3.100 mjpeg</property>
  <property name="meta.attr.0.stream.DURATION.markup">00:00:03.000000000</property>
  <property name="meta.attr.COMMENT.markup">Rendered with Manim Community v0.17.3</property>
  <property name="meta.attr.MAJOR_BRAND.markup">isom</property>
  <property name="meta.attr.MINOR_VERSION.markup">512</property>
  <property name="meta.attr.COMPATIBLE_BRANDS.markup">isomiso2avc1mp41</property>
  <property name="meta.attr.ENCODER.markup">Lavf60.3.100</property>
  <property name="seekable">1</property>
  <property name="meta.media.sample_aspect_num">1</property>
  <property name="meta.media.sample_aspect_den">1</property>
  <property name="format">3</property>
  <property name="audio_index">-1</property>
  <property name="video_index">0</property>
  <property name="meta.media.frame_rate_num">60</property>
  <property name="meta.media.frame_rate_den">1</property>
  <property name="meta.media.colorspace">601</property>
  <property name="meta.media.color_trc">2</property>
  <property name="meta.media.has_b_frames">0</property>
  <property name="meta.media.width">640</property>
  <property name="meta.media.height">360</property>
  <property name="meta.media.color_range">full</property>
  <property name="kdenlive:clipname">91.mp4</property>
  <property name="kdenlive:clip_type">2</property>
  <property name="kdenlive:folderid">16</property>
  <property name="kdenlive:id">169</property>
  <property name="mute_on_pause">0</property>
  <property name="kdenlive:file_size">329820</property>
  <property name="kdenlive:file_hash">485a249dc1b36ec53ac7b264dfb2ca78</property>
  <property name="kdenlive:proxy">/home/xiaoxiae/.cache/kdenlive/proxy/485a249dc1b36ec53ac7b264dfb2ca78.mkv</property>
  <property name="kdenlive:originalurl">video/Farmer/91.mp4</property>
  <property name="kdenlive:original.mlt_type">chain</property>
  <property name="kdenlive:original.in">0</property>
  <property name="kdenlive:original.out">00:00:02.983</property>
  <property name="kdenlive:original.length">180</property>
  <property name="kdenlive:original.eof">pause</property>
  <property name="kdenlive:original.resource">video/Farmer/91.mp4</property>
  <property name="kdenlive:original.mlt_service">avformat-novalidate</property>
  <property name="kdenlive:original.meta.media.nb_streams">1</property>
  <property name="kdenlive:original.meta.media.0.stream.type">video</property>
  <property name="kdenlive:original.meta.media.0.stream.frame_rate">60</property>
  <property name="kdenlive:original.meta.media.0.stream.sample_aspect_ratio">0</property>
  <property name="kdenlive:original.meta.media.0.codec.width">1920</property>
  <property name="kdenlive:original.meta.media.0.codec.height">1080</property>
  <property name="kdenlive:original.meta.media.0.codec.rotate">0</property>
  <property name="kdenlive:original.meta.media.0.codec.pix_fmt">yuv420p</property>
  <property name="kdenlive:original.meta.media.0.codec.sample_aspect_ratio">0</property>
  <property name="kdenlive:original.meta.media.0.codec.colorspace">709</property>
  <property name="kdenlive:original.meta.media.0.codec.name">h264</property>
  <property name="kdenlive:original.meta.media.0.codec.long_name">H.264 / AVC / MPEG-4 AVC / MPEG-4 part 10</property>
  <property name="kdenlive:original.meta.media.0.codec.bit_rate">871349</property>
  <property name="kdenlive:original.meta.attr.0.stream.handler_name.markup">VideoHandler</property>
  <property name="kdenlive:original.meta.attr.0.stream.vendor_id.markup">[0][0][0][0]</property>
  <property name="kdenlive:original.meta.attr.0.stream.encoder.markup">Lavc60.3.100 libx264</property>
  <property name="kdenlive:original.meta.attr.major_brand.markup">isom</property>
  <property name="kdenlive:original.meta.attr.minor_version.markup">512</property>
  <property name="kdenlive:original.meta.attr.compatible_brands.markup">isomiso2avc1mp41</property>
  <property name="kdenlive:original.meta.attr.encoder.markup">Lavf60.3.100</property>
  <property name="kdenlive:original.meta.attr.comment.markup">Rendered with Manim Community v0.17.3</property>
  <property name="kdenlive:original.seekable">1</property>
  <property name="kdenlive:original.width">1920</property>
  <property name="kdenlive:original.height">1080</property>
  <property name="kdenlive:original.meta.media.sample_aspect_num">1</property>
  <property name="kdenlive:original.meta.media.sample_aspect_den">1</property>
  <property name="kdenlive:original.format">3</property>
  <property name="kdenlive:original.audio_index">-1</property>
  <property name="kdenlive:original.video_index">0</property>
  <property name="kdenlive:original.meta.media.frame_rate_num">60</property>
  <property name="kdenlive:original.meta.media.frame_rate_den">1</property>
  <property name="kdenlive:original.meta.media.colorspace">709</property>
  <property name="kdenlive:original.meta.media.color_trc">2</property>
  <property name="kdenlive:original.meta.media.has_b_frames">2</property>
  <property name="kdenlive:original.meta.media.width">1920</property>
  <property name="kdenlive:original.meta.media.height">1080</property>
  <property name="kdenlive:original.meta.media.color_range">mpeg</property>
  <property name="kdenlive:original.meta.media.top_field_first">0</property>
  <property name="kdenlive:original.meta.media.progressive">1</property>
  <property name="kdenlive:original.kdenlive:clip_type">2</property>
  <property name="kdenlive:original.kdenlive:folderid">16</property>
  <property name="kdenlive:original.kdenlive:id">169</property>
  <property name="kdenlive:original.mute_on_pause">0</property>
  <property name="kdenlive:original.kdenlive:file_size">329820</property>
  <property name="kdenlive:original.kdenlive:file_hash">485a249dc1b36ec53ac7b264dfb2ca78</property>
  <property name="kdenlive:original.backup">1</property>
  <property name="meta.media.top_field_first">0</property>
  <property name="meta.media.progressive">1</property>
 </chain>
 <chain id="chain276" out="00:00:00.983">
  <property name="length">60</property>
  <property name="eof">pause</property>
  <property name="resource">/home/xiaoxiae/.cache/kdenlive/proxy/7f11154c0c28c8507d3d1624af35d433.mkv</property>
  <property name="mlt_service">avformat-novalidate</property>
  <property name="meta.media.nb_streams">1</property>
  <property name="meta.media.0.stream.type">video</property>
  <property name="meta.media.0.stream.frame_rate">60</property>
  <property name="meta.media.0.stream.sample_aspect_ratio">0</property>
  <property name="meta.media.0.codec.width">640</property>
  <property name="meta.media.0.codec.height">360</property>
  <property name="meta.media.0.codec.rotate">0</property>
  <property name="meta.media.0.codec.pix_fmt">yuvj420p</property>
  <property name="meta.media.0.codec.sample_aspect_ratio">0</property>
  <property name="meta.media.0.codec.colorspace">601</property>
  <property name="meta.media.0.codec.name">mjpeg</property>
  <property name="meta.media.0.codec.long_name">MJPEG (Motion JPEG)</property>
  <property name="meta.media.0.codec.bit_rate">0</property>
  <property name="meta.attr.0.stream.HANDLER_NAME.markup">VideoHandler</property>
  <property name="meta.attr.0.stream.VENDOR_ID.markup">[0][0][0][0]</property>
  <property name="meta.attr.0.stream.ENCODER.markup">Lavc60.3.100 mjpeg</property>
  <property name="meta.attr.0.stream.DURATION.markup">00:00:01.000000000</property>
  <property name="meta.attr.COMMENT.markup">Rendered with Manim Community v0.17.3</property>
  <property name="meta.attr.MAJOR_BRAND.markup">isom</property>
  <property name="meta.attr.MINOR_VERSION.markup">512</property>
  <property name="meta.attr.COMPATIBLE_BRANDS.markup">isomiso2avc1mp41</property>
  <property name="meta.attr.ENCODER.markup">Lavf60.3.100</property>
  <property name="seekable">1</property>
  <property name="meta.media.sample_aspect_num">1</property>
  <property name="meta.media.sample_aspect_den">1</property>
  <property name="format">3</property>
  <property name="audio_index">-1</property>
  <property name="video_index">0</property>
  <property name="meta.media.frame_rate_num">60</property>
  <property name="meta.media.frame_rate_den">1</property>
  <property name="meta.media.colorspace">601</property>
  <property name="meta.media.color_trc">2</property>
  <property name="meta.media.has_b_frames">0</property>
  <property name="meta.media.width">640</property>
  <property name="meta.media.height">360</property>
  <property name="meta.media.color_range">full</property>
  <property name="kdenlive:clipname">92.mp4</property>
  <property name="kdenlive:clip_type">2</property>
  <property name="kdenlive:folderid">16</property>
  <property name="kdenlive:id">170</property>
  <property name="mute_on_pause">0</property>
  <property name="kdenlive:file_size">81687</property>
  <property name="kdenlive:file_hash">7f11154c0c28c8507d3d1624af35d433</property>
  <property name="kdenlive:proxy">/home/xiaoxiae/.cache/kdenlive/proxy/7f11154c0c28c8507d3d1624af35d433.mkv</property>
  <property name="kdenlive:originalurl">video/Farmer/92.mp4</property>
  <property name="kdenlive:original.mlt_type">chain</property>
  <property name="kdenlive:original.in">0</property>
  <property name="kdenlive:original.out">00:00:00.983</property>
  <property name="kdenlive:original.length">60</property>
  <property name="kdenlive:original.eof">pause</property>
  <property name="kdenlive:original.resource">video/Farmer/92.mp4</property>
  <property name="kdenlive:original.mlt_service">avformat-novalidate</property>
  <property name="kdenlive:original.meta.media.nb_streams">1</property>
  <property name="kdenlive:original.meta.media.0.stream.type">video</property>
  <property name="kdenlive:original.meta.media.0.stream.frame_rate">60</property>
  <property name="kdenlive:original.meta.media.0.stream.sample_aspect_ratio">0</property>
  <property name="kdenlive:original.meta.media.0.codec.width">1920</property>
  <property name="kdenlive:original.meta.media.0.codec.height">1080</property>
  <property name="kdenlive:original.meta.media.0.codec.rotate">0</property>
  <property name="kdenlive:original.meta.media.0.codec.pix_fmt">yuv420p</property>
  <property name="kdenlive:original.meta.media.0.codec.sample_aspect_ratio">0</property>
  <property name="kdenlive:original.meta.media.0.codec.colorspace">709</property>
  <property name="kdenlive:original.meta.media.0.codec.name">h264</property>
  <property name="kdenlive:original.meta.media.0.codec.long_name">H.264 / AVC / MPEG-4 AVC / MPEG-4 part 10</property>
  <property name="kdenlive:original.meta.media.0.codec.bit_rate">640568</property>
  <property name="kdenlive:original.meta.attr.0.stream.handler_name.markup">VideoHandler</property>
  <property name="kdenlive:original.meta.attr.0.stream.vendor_id.markup">[0][0][0][0]</property>
  <property name="kdenlive:original.meta.attr.0.stream.encoder.markup">Lavc60.3.100 libx264</property>
  <property name="kdenlive:original.meta.attr.major_brand.markup">isom</property>
  <property name="kdenlive:original.meta.attr.minor_version.markup">512</property>
  <property name="kdenlive:original.meta.attr.compatible_brands.markup">isomiso2avc1mp41</property>
  <property name="kdenlive:original.meta.attr.encoder.markup">Lavf60.3.100</property>
  <property name="kdenlive:original.meta.attr.comment.markup">Rendered with Manim Community v0.17.3</property>
  <property name="kdenlive:original.seekable">1</property>
  <property name="kdenlive:original.width">1920</property>
  <property name="kdenlive:original.height">1080</property>
  <property name="kdenlive:original.meta.media.sample_aspect_num">1</property>
  <property name="kdenlive:original.meta.media.sample_aspect_den">1</property>
  <property name="kdenlive:original.format">3</property>
  <property name="kdenlive:original.audio_index">-1</property>
  <property name="kdenlive:original.video_index">0</property>
  <property name="kdenlive:original.meta.media.frame_rate_num">60</property>
  <property name="kdenlive:original.meta.media.frame_rate_den">1</property>
  <property name="kdenlive:original.meta.media.colorspace">709</property>
  <property name="kdenlive:original.meta.media.color_trc">2</property>
  <property name="kdenlive:original.meta.media.has_b_frames">2</property>
  <property name="kdenlive:original.meta.media.width">1920</property>
  <property name="kdenlive:original.meta.media.height">1080</property>
  <property name="kdenlive:original.meta.media.color_range">mpeg</property>
  <property name="kdenlive:original.meta.media.top_field_first">0</property>
  <property name="kdenlive:original.meta.media.progressive">1</property>
  <property name="kdenlive:original.kdenlive:clip_type">2</property>
  <property name="kdenlive:original.kdenlive:folderid">16</property>
  <property name="kdenlive:original.kdenlive:id">170</property>
  <property name="kdenlive:original.mute_on_pause">0</property>
  <property name="kdenlive:original.kdenlive:file_size">81687</property>
  <property name="kdenlive:original.kdenlive:file_hash">7f11154c0c28c8507d3d1624af35d433</property>
  <property name="kdenlive:original.backup">1</property>
  <property name="meta.media.top_field_first">0</property>
  <property name="meta.media.progressive">1</property>
 </chain>
 <chain id="chain274" out="00:00:00.983">
  <property name="length">60</property>
  <property name="eof">pause</property>
  <property name="resource">/home/xiaoxiae/.cache/kdenlive/proxy/4f25803949fbe48df132447a8f054aec.mkv</property>
  <property name="mlt_service">avformat-novalidate</property>
  <property name="meta.media.nb_streams">1</property>
  <property name="meta.media.0.stream.type">video</property>
  <property name="meta.media.0.stream.frame_rate">60</property>
  <property name="meta.media.0.stream.sample_aspect_ratio">0</property>
  <property name="meta.media.0.codec.width">640</property>
  <property name="meta.media.0.codec.height">360</property>
  <property name="meta.media.0.codec.rotate">0</property>
  <property name="meta.media.0.codec.pix_fmt">yuvj420p</property>
  <property name="meta.media.0.codec.sample_aspect_ratio">0</property>
  <property name="meta.media.0.codec.colorspace">601</property>
  <property name="meta.media.0.codec.name">mjpeg</property>
  <property name="meta.media.0.codec.long_name">MJPEG (Motion JPEG)</property>
  <property name="meta.media.0.codec.bit_rate">0</property>
  <property name="meta.attr.0.stream.HANDLER_NAME.markup">VideoHandler</property>
  <property name="meta.attr.0.stream.VENDOR_ID.markup">[0][0][0][0]</property>
  <property name="meta.attr.0.stream.ENCODER.markup">Lavc60.3.100 mjpeg</property>
  <property name="meta.attr.0.stream.DURATION.markup">00:00:01.000000000</property>
  <property name="meta.attr.COMMENT.markup">Rendered with Manim Community v0.17.3</property>
  <property name="meta.attr.MAJOR_BRAND.markup">isom</property>
  <property name="meta.attr.MINOR_VERSION.markup">512</property>
  <property name="meta.attr.COMPATIBLE_BRANDS.markup">isomiso2avc1mp41</property>
  <property name="meta.attr.ENCODER.markup">Lavf60.3.100</property>
  <property name="seekable">1</property>
  <property name="meta.media.sample_aspect_num">1</property>
  <property name="meta.media.sample_aspect_den">1</property>
  <property name="format">3</property>
  <property name="audio_index">-1</property>
  <property name="video_index">0</property>
  <property name="meta.media.frame_rate_num">60</property>
  <property name="meta.media.frame_rate_den">1</property>
  <property name="meta.media.colorspace">601</property>
  <property name="meta.media.color_trc">2</property>
  <property name="meta.media.has_b_frames">0</property>
  <property name="meta.media.width">640</property>
  <property name="meta.media.height">360</property>
  <property name="meta.media.color_range">full</property>
  <property name="kdenlive:clipname">93.mp4</property>
  <property name="kdenlive:clip_type">2</property>
  <property name="kdenlive:folderid">16</property>
  <property name="kdenlive:id">171</property>
  <property name="mute_on_pause">0</property>
  <property name="kdenlive:file_size">90828</property>
  <property name="kdenlive:file_hash">4f25803949fbe48df132447a8f054aec</property>
  <property name="kdenlive:proxy">/home/xiaoxiae/.cache/kdenlive/proxy/4f25803949fbe48df132447a8f054aec.mkv</property>
  <property name="kdenlive:originalurl">video/Farmer/93.mp4</property>
  <property name="kdenlive:original.mlt_type">chain</property>
  <property name="kdenlive:original.in">0</property>
  <property name="kdenlive:original.out">00:00:00.983</property>
  <property name="kdenlive:original.length">60</property>
  <property name="kdenlive:original.eof">pause</property>
  <property name="kdenlive:original.resource">video/Farmer/93.mp4</property>
  <property name="kdenlive:original.mlt_service">avformat-novalidate</property>
  <property name="kdenlive:original.meta.media.nb_streams">1</property>
  <property name="kdenlive:original.meta.media.0.stream.type">video</property>
  <property name="kdenlive:original.meta.media.0.stream.frame_rate">60</property>
  <property name="kdenlive:original.meta.media.0.stream.sample_aspect_ratio">0</property>
  <property name="kdenlive:original.meta.media.0.codec.width">1920</property>
  <property name="kdenlive:original.meta.media.0.codec.height">1080</property>
  <property name="kdenlive:original.meta.media.0.codec.rotate">0</property>
  <property name="kdenlive:original.meta.media.0.codec.pix_fmt">yuv420p</property>
  <property name="kdenlive:original.meta.media.0.codec.sample_aspect_ratio">0</property>
  <property name="kdenlive:original.meta.media.0.codec.colorspace">709</property>
  <property name="kdenlive:original.meta.media.0.codec.name">h264</property>
  <property name="kdenlive:original.meta.media.0.codec.long_name">H.264 / AVC / MPEG-4 AVC / MPEG-4 part 10</property>
  <property name="kdenlive:original.meta.media.0.codec.bit_rate">713568</property>
  <property name="kdenlive:original.meta.attr.0.stream.handler_name.markup">VideoHandler</property>
  <property name="kdenlive:original.meta.attr.0.stream.vendor_id.markup">[0][0][0][0]</property>
  <property name="kdenlive:original.meta.attr.0.stream.encoder.markup">Lavc60.3.100 libx264</property>
  <property name="kdenlive:original.meta.attr.major_brand.markup">isom</property>
  <property name="kdenlive:original.meta.attr.minor_version.markup">512</property>
  <property name="kdenlive:original.meta.attr.compatible_brands.markup">isomiso2avc1mp41</property>
  <property name="kdenlive:original.meta.attr.encoder.markup">Lavf60.3.100</property>
  <property name="kdenlive:original.meta.attr.comment.markup">Rendered with Manim Community v0.17.3</property>
  <property name="kdenlive:original.seekable">1</property>
  <property name="kdenlive:original.width">1920</property>
  <property name="kdenlive:original.height">1080</property>
  <property name="kdenlive:original.meta.media.sample_aspect_num">1</property>
  <property name="kdenlive:original.meta.media.sample_aspect_den">1</property>
  <property name="kdenlive:original.format">3</property>
  <property name="kdenlive:original.audio_index">-1</property>
  <property name="kdenlive:original.video_index">0</property>
  <property name="kdenlive:original.meta.media.frame_rate_num">60</property>
  <property name="kdenlive:original.meta.media.frame_rate_den">1</property>
  <property name="kdenlive:original.meta.media.colorspace">709</property>
  <property name="kdenlive:original.meta.media.color_trc">2</property>
  <property name="kdenlive:original.meta.media.has_b_frames">2</property>
  <property name="kdenlive:original.meta.media.width">1920</property>
  <property name="kdenlive:original.meta.media.height">1080</property>
  <property name="kdenlive:original.meta.media.color_range">mpeg</property>
  <property name="kdenlive:original.meta.media.top_field_first">0</property>
  <property name="kdenlive:original.meta.media.progressive">1</property>
  <property name="kdenlive:original.kdenlive:clip_type">2</property>
  <property name="kdenlive:original.kdenlive:folderid">16</property>
  <property name="kdenlive:original.kdenlive:id">171</property>
  <property name="kdenlive:original.mute_on_pause">0</property>
  <property name="kdenlive:original.kdenlive:file_size">90828</property>
  <property name="kdenlive:original.kdenlive:file_hash">4f25803949fbe48df132447a8f054aec</property>
  <property name="kdenlive:original.backup">1</property>
  <property name="meta.media.top_field_first">0</property>
  <property name="meta.media.progressive">1</property>
 </chain>
 <chain id="chain272" out="00:00:00.983">
  <property name="length">60</property>
  <property name="eof">pause</property>
  <property name="resource">/home/xiaoxiae/.cache/kdenlive/proxy/c891f7752ddaa88079705922ffe064ed.mkv</property>
  <property name="mlt_service">avformat-novalidate</property>
  <property name="meta.media.nb_streams">1</property>
  <property name="meta.media.0.stream.type">video</property>
  <property name="meta.media.0.stream.frame_rate">60</property>
  <property name="meta.media.0.stream.sample_aspect_ratio">0</property>
  <property name="meta.media.0.codec.width">640</property>
  <property name="meta.media.0.codec.height">360</property>
  <property name="meta.media.0.codec.rotate">0</property>
  <property name="meta.media.0.codec.pix_fmt">yuvj420p</property>
  <property name="meta.media.0.codec.sample_aspect_ratio">0</property>
  <property name="meta.media.0.codec.colorspace">601</property>
  <property name="meta.media.0.codec.name">mjpeg</property>
  <property name="meta.media.0.codec.long_name">MJPEG (Motion JPEG)</property>
  <property name="meta.media.0.codec.bit_rate">0</property>
  <property name="meta.attr.0.stream.HANDLER_NAME.markup">VideoHandler</property>
  <property name="meta.attr.0.stream.VENDOR_ID.markup">[0][0][0][0]</property>
  <property name="meta.attr.0.stream.ENCODER.markup">Lavc60.3.100 mjpeg</property>
  <property name="meta.attr.0.stream.DURATION.markup">00:00:01.000000000</property>
  <property name="meta.attr.COMMENT.markup">Rendered with Manim Community v0.17.3</property>
  <property name="meta.attr.MAJOR_BRAND.markup">isom</property>
  <property name="meta.attr.MINOR_VERSION.markup">512</property>
  <property name="meta.attr.COMPATIBLE_BRANDS.markup">isomiso2avc1mp41</property>
  <property name="meta.attr.ENCODER.markup">Lavf60.3.100</property>
  <property name="seekable">1</property>
  <property name="meta.media.sample_aspect_num">1</property>
  <property name="meta.media.sample_aspect_den">1</property>
  <property name="format">3</property>
  <property name="audio_index">-1</property>
  <property name="video_index">0</property>
  <property name="meta.media.frame_rate_num">60</property>
  <property name="meta.media.frame_rate_den">1</property>
  <property name="meta.media.colorspace">601</property>
  <property name="meta.media.color_trc">2</property>
  <property name="meta.media.has_b_frames">0</property>
  <property name="meta.media.width">640</property>
  <property name="meta.media.height">360</property>
  <property name="meta.media.color_range">full</property>
  <property name="kdenlive:clipname">94.mp4</property>
  <property name="kdenlive:clip_type">2</property>
  <property name="kdenlive:folderid">16</property>
  <property name="kdenlive:id">172</property>
  <property name="mute_on_pause">0</property>
  <property name="kdenlive:file_size">55309</property>
  <property name="kdenlive:file_hash">c891f7752ddaa88079705922ffe064ed</property>
  <property name="kdenlive:proxy">/home/xiaoxiae/.cache/kdenlive/proxy/c891f7752ddaa88079705922ffe064ed.mkv</property>
  <property name="kdenlive:originalurl">video/Farmer/94.mp4</property>
  <property name="kdenlive:original.mlt_type">chain</property>
  <property name="kdenlive:original.in">0</property>
  <property name="kdenlive:original.out">00:00:00.983</property>
  <property name="kdenlive:original.length">60</property>
  <property name="kdenlive:original.eof">pause</property>
  <property name="kdenlive:original.resource">video/Farmer/94.mp4</property>
  <property name="kdenlive:original.mlt_service">avformat-novalidate</property>
  <property name="kdenlive:original.meta.media.nb_streams">1</property>
  <property name="kdenlive:original.meta.media.0.stream.type">video</property>
  <property name="kdenlive:original.meta.media.0.stream.frame_rate">60</property>
  <property name="kdenlive:original.meta.media.0.stream.sample_aspect_ratio">0</property>
  <property name="kdenlive:original.meta.media.0.codec.width">1920</property>
  <property name="kdenlive:original.meta.media.0.codec.height">1080</property>
  <property name="kdenlive:original.meta.media.0.codec.rotate">0</property>
  <property name="kdenlive:original.meta.media.0.codec.pix_fmt">yuv420p</property>
  <property name="kdenlive:original.meta.media.0.codec.sample_aspect_ratio">0</property>
  <property name="kdenlive:original.meta.media.0.codec.colorspace">709</property>
  <property name="kdenlive:original.meta.media.0.codec.name">h264</property>
  <property name="kdenlive:original.meta.media.0.codec.long_name">H.264 / AVC / MPEG-4 AVC / MPEG-4 part 10</property>
  <property name="kdenlive:original.meta.media.0.codec.bit_rate">429416</property>
  <property name="kdenlive:original.meta.attr.0.stream.handler_name.markup">VideoHandler</property>
  <property name="kdenlive:original.meta.attr.0.stream.vendor_id.markup">[0][0][0][0]</property>
  <property name="kdenlive:original.meta.attr.0.stream.encoder.markup">Lavc60.3.100 libx264</property>
  <property name="kdenlive:original.meta.attr.major_brand.markup">isom</property>
  <property name="kdenlive:original.meta.attr.minor_version.markup">512</property>
  <property name="kdenlive:original.meta.attr.compatible_brands.markup">isomiso2avc1mp41</property>
  <property name="kdenlive:original.meta.attr.encoder.markup">Lavf60.3.100</property>
  <property name="kdenlive:original.meta.attr.comment.markup">Rendered with Manim Community v0.17.3</property>
  <property name="kdenlive:original.seekable">1</property>
  <property name="kdenlive:original.width">1920</property>
  <property name="kdenlive:original.height">1080</property>
  <property name="kdenlive:original.meta.media.sample_aspect_num">1</property>
  <property name="kdenlive:original.meta.media.sample_aspect_den">1</property>
  <property name="kdenlive:original.format">3</property>
  <property name="kdenlive:original.audio_index">-1</property>
  <property name="kdenlive:original.video_index">0</property>
  <property name="kdenlive:original.meta.media.frame_rate_num">60</property>
  <property name="kdenlive:original.meta.media.frame_rate_den">1</property>
  <property name="kdenlive:original.meta.media.colorspace">709</property>
  <property name="kdenlive:original.meta.media.color_trc">2</property>
  <property name="kdenlive:original.meta.media.has_b_frames">2</property>
  <property name="kdenlive:original.meta.media.width">1920</property>
  <property name="kdenlive:original.meta.media.height">1080</property>
  <property name="kdenlive:original.meta.media.color_range">mpeg</property>
  <property name="kdenlive:original.meta.media.top_field_first">0</property>
  <property name="kdenlive:original.meta.media.progressive">1</property>
  <property name="kdenlive:original.kdenlive:clip_type">2</property>
  <property name="kdenlive:original.kdenlive:folderid">16</property>
  <property name="kdenlive:original.kdenlive:id">172</property>
  <property name="kdenlive:original.mute_on_pause">0</property>
  <property name="kdenlive:original.kdenlive:file_size">55309</property>
  <property name="kdenlive:original.kdenlive:file_hash">c891f7752ddaa88079705922ffe064ed</property>
  <property name="kdenlive:original.backup">1</property>
  <property name="meta.media.top_field_first">0</property>
  <property name="meta.media.progressive">1</property>
 </chain>
 <chain id="chain268" out="00:00:00.983">
  <property name="length">60</property>
  <property name="eof">pause</property>
  <property name="resource">/home/xiaoxiae/.cache/kdenlive/proxy/88fa0b0376e36726ca952388ca0a2835.mkv</property>
  <property name="mlt_service">avformat-novalidate</property>
  <property name="meta.media.nb_streams">1</property>
  <property name="meta.media.0.stream.type">video</property>
  <property name="meta.media.0.stream.frame_rate">60</property>
  <property name="meta.media.0.stream.sample_aspect_ratio">0</property>
  <property name="meta.media.0.codec.width">640</property>
  <property name="meta.media.0.codec.height">360</property>
  <property name="meta.media.0.codec.rotate">0</property>
  <property name="meta.media.0.codec.pix_fmt">yuvj420p</property>
  <property name="meta.media.0.codec.sample_aspect_ratio">0</property>
  <property name="meta.media.0.codec.colorspace">601</property>
  <property name="meta.media.0.codec.name">mjpeg</property>
  <property name="meta.media.0.codec.long_name">MJPEG (Motion JPEG)</property>
  <property name="meta.media.0.codec.bit_rate">0</property>
  <property name="meta.attr.0.stream.HANDLER_NAME.markup">VideoHandler</property>
  <property name="meta.attr.0.stream.VENDOR_ID.markup">[0][0][0][0]</property>
  <property name="meta.attr.0.stream.ENCODER.markup">Lavc60.3.100 mjpeg</property>
  <property name="meta.attr.0.stream.DURATION.markup">00:00:01.000000000</property>
  <property name="meta.attr.COMMENT.markup">Rendered with Manim Community v0.17.3</property>
  <property name="meta.attr.MAJOR_BRAND.markup">isom</property>
  <property name="meta.attr.MINOR_VERSION.markup">512</property>
  <property name="meta.attr.COMPATIBLE_BRANDS.markup">isomiso2avc1mp41</property>
  <property name="meta.attr.ENCODER.markup">Lavf60.3.100</property>
  <property name="seekable">1</property>
  <property name="meta.media.sample_aspect_num">1</property>
  <property name="meta.media.sample_aspect_den">1</property>
  <property name="format">3</property>
  <property name="audio_index">-1</property>
  <property name="video_index">0</property>
  <property name="meta.media.frame_rate_num">60</property>
  <property name="meta.media.frame_rate_den">1</property>
  <property name="meta.media.colorspace">601</property>
  <property name="meta.media.color_trc">2</property>
  <property name="meta.media.has_b_frames">0</property>
  <property name="meta.media.width">640</property>
  <property name="meta.media.height">360</property>
  <property name="meta.media.color_range">full</property>
  <property name="kdenlive:clipname">95.mp4</property>
  <property name="kdenlive:clip_type">2</property>
  <property name="kdenlive:folderid">16</property>
  <property name="kdenlive:id">173</property>
  <property name="mute_on_pause">0</property>
  <property name="kdenlive:file_size">94442</property>
  <property name="kdenlive:file_hash">88fa0b0376e36726ca952388ca0a2835</property>
  <property name="kdenlive:proxy">/home/xiaoxiae/.cache/kdenlive/proxy/88fa0b0376e36726ca952388ca0a2835.mkv</property>
  <property name="kdenlive:originalurl">video/Farmer/95.mp4</property>
  <property name="kdenlive:original.mlt_type">chain</property>
  <property name="kdenlive:original.in">0</property>
  <property name="kdenlive:original.out">00:00:00.983</property>
  <property name="kdenlive:original.length">60</property>
  <property name="kdenlive:original.eof">pause</property>
  <property name="kdenlive:original.resource">video/Farmer/95.mp4</property>
  <property name="kdenlive:original.mlt_service">avformat-novalidate</property>
  <property name="kdenlive:original.meta.media.nb_streams">1</property>
  <property name="kdenlive:original.meta.media.0.stream.type">video</property>
  <property name="kdenlive:original.meta.media.0.stream.frame_rate">60</property>
  <property name="kdenlive:original.meta.media.0.stream.sample_aspect_ratio">0</property>
  <property name="kdenlive:original.meta.media.0.codec.width">1920</property>
  <property name="kdenlive:original.meta.media.0.codec.height">1080</property>
  <property name="kdenlive:original.meta.media.0.codec.rotate">0</property>
  <property name="kdenlive:original.meta.media.0.codec.pix_fmt">yuv420p</property>
  <property name="kdenlive:original.meta.media.0.codec.sample_aspect_ratio">0</property>
  <property name="kdenlive:original.meta.media.0.codec.colorspace">709</property>
  <property name="kdenlive:original.meta.media.0.codec.name">h264</property>
  <property name="kdenlive:original.meta.media.0.codec.long_name">H.264 / AVC / MPEG-4 AVC / MPEG-4 part 10</property>
  <property name="kdenlive:original.meta.media.0.codec.bit_rate">742480</property>
  <property name="kdenlive:original.meta.attr.0.stream.handler_name.markup">VideoHandler</property>
  <property name="kdenlive:original.meta.attr.0.stream.vendor_id.markup">[0][0][0][0]</property>
  <property name="kdenlive:original.meta.attr.0.stream.encoder.markup">Lavc60.3.100 libx264</property>
  <property name="kdenlive:original.meta.attr.major_brand.markup">isom</property>
  <property name="kdenlive:original.meta.attr.minor_version.markup">512</property>
  <property name="kdenlive:original.meta.attr.compatible_brands.markup">isomiso2avc1mp41</property>
  <property name="kdenlive:original.meta.attr.encoder.markup">Lavf60.3.100</property>
  <property name="kdenlive:original.meta.attr.comment.markup">Rendered with Manim Community v0.17.3</property>
  <property name="kdenlive:original.seekable">1</property>
  <property name="kdenlive:original.width">1920</property>
  <property name="kdenlive:original.height">1080</property>
  <property name="kdenlive:original.meta.media.sample_aspect_num">1</property>
  <property name="kdenlive:original.meta.media.sample_aspect_den">1</property>
  <property name="kdenlive:original.format">3</property>
  <property name="kdenlive:original.audio_index">-1</property>
  <property name="kdenlive:original.video_index">0</property>
  <property name="kdenlive:original.meta.media.frame_rate_num">60</property>
  <property name="kdenlive:original.meta.media.frame_rate_den">1</property>
  <property name="kdenlive:original.meta.media.colorspace">709</property>
  <property name="kdenlive:original.meta.media.color_trc">2</property>
  <property name="kdenlive:original.meta.media.has_b_frames">2</property>
  <property name="kdenlive:original.meta.media.width">1920</property>
  <property name="kdenlive:original.meta.media.height">1080</property>
  <property name="kdenlive:original.meta.media.color_range">mpeg</property>
  <property name="kdenlive:original.meta.media.top_field_first">0</property>
  <property name="kdenlive:original.meta.media.progressive">1</property>
  <property name="kdenlive:original.kdenlive:clip_type">2</property>
  <property name="kdenlive:original.kdenlive:folderid">16</property>
  <property name="kdenlive:original.kdenlive:id">173</property>
  <property name="kdenlive:original.mute_on_pause">0</property>
  <property name="kdenlive:original.kdenlive:file_size">94442</property>
  <property name="kdenlive:original.kdenlive:file_hash">88fa0b0376e36726ca952388ca0a2835</property>
  <property name="kdenlive:original.backup">1</property>
  <property name="meta.media.top_field_first">0</property>
  <property name="meta.media.progressive">1</property>
 </chain>
 <chain id="chain269" out="00:00:01.983">
  <property name="length">120</property>
  <property name="eof">pause</property>
  <property name="resource">/home/xiaoxiae/.cache/kdenlive/proxy/e1d8b6d406ba82bb922ea2fe68e7ef5c.mkv</property>
  <property name="mlt_service">avformat-novalidate</property>
  <property name="meta.media.nb_streams">1</property>
  <property name="meta.media.0.stream.type">video</property>
  <property name="meta.media.0.stream.frame_rate">60</property>
  <property name="meta.media.0.stream.sample_aspect_ratio">0</property>
  <property name="meta.media.0.codec.width">640</property>
  <property name="meta.media.0.codec.height">360</property>
  <property name="meta.media.0.codec.rotate">0</property>
  <property name="meta.media.0.codec.pix_fmt">yuvj420p</property>
  <property name="meta.media.0.codec.sample_aspect_ratio">0</property>
  <property name="meta.media.0.codec.colorspace">601</property>
  <property name="meta.media.0.codec.name">mjpeg</property>
  <property name="meta.media.0.codec.long_name">MJPEG (Motion JPEG)</property>
  <property name="meta.media.0.codec.bit_rate">0</property>
  <property name="meta.attr.0.stream.HANDLER_NAME.markup">VideoHandler</property>
  <property name="meta.attr.0.stream.VENDOR_ID.markup">[0][0][0][0]</property>
  <property name="meta.attr.0.stream.ENCODER.markup">Lavc60.3.100 mjpeg</property>
  <property name="meta.attr.0.stream.DURATION.markup">00:00:02.000000000</property>
  <property name="meta.attr.COMMENT.markup">Rendered with Manim Community v0.17.3</property>
  <property name="meta.attr.MAJOR_BRAND.markup">isom</property>
  <property name="meta.attr.MINOR_VERSION.markup">512</property>
  <property name="meta.attr.COMPATIBLE_BRANDS.markup">isomiso2avc1mp41</property>
  <property name="meta.attr.ENCODER.markup">Lavf60.3.100</property>
  <property name="seekable">1</property>
  <property name="meta.media.sample_aspect_num">1</property>
  <property name="meta.media.sample_aspect_den">1</property>
  <property name="format">3</property>
  <property name="audio_index">-1</property>
  <property name="video_index">0</property>
  <property name="meta.media.frame_rate_num">60</property>
  <property name="meta.media.frame_rate_den">1</property>
  <property name="meta.media.colorspace">601</property>
  <property name="meta.media.color_trc">2</property>
  <property name="meta.media.has_b_frames">0</property>
  <property name="meta.media.width">640</property>
  <property name="meta.media.height">360</property>
  <property name="meta.media.color_range">full</property>
  <property name="kdenlive:clipname">96.mp4</property>
  <property name="kdenlive:clip_type">2</property>
  <property name="kdenlive:folderid">16</property>
  <property name="kdenlive:id">174</property>
  <property name="mute_on_pause">0</property>
  <property name="kdenlive:file_size">111200</property>
  <property name="kdenlive:file_hash">e1d8b6d406ba82bb922ea2fe68e7ef5c</property>
  <property name="kdenlive:proxy">/home/xiaoxiae/.cache/kdenlive/proxy/e1d8b6d406ba82bb922ea2fe68e7ef5c.mkv</property>
  <property name="kdenlive:originalurl">video/Farmer/96.mp4</property>
  <property name="kdenlive:original.mlt_type">chain</property>
  <property name="kdenlive:original.in">0</property>
  <property name="kdenlive:original.out">00:00:01.983</property>
  <property name="kdenlive:original.length">120</property>
  <property name="kdenlive:original.eof">pause</property>
  <property name="kdenlive:original.resource">video/Farmer/96.mp4</property>
  <property name="kdenlive:original.mlt_service">avformat-novalidate</property>
  <property name="kdenlive:original.meta.media.nb_streams">1</property>
  <property name="kdenlive:original.meta.media.0.stream.type">video</property>
  <property name="kdenlive:original.meta.media.0.stream.frame_rate">60</property>
  <property name="kdenlive:original.meta.media.0.stream.sample_aspect_ratio">0</property>
  <property name="kdenlive:original.meta.media.0.codec.width">1920</property>
  <property name="kdenlive:original.meta.media.0.codec.height">1080</property>
  <property name="kdenlive:original.meta.media.0.codec.rotate">0</property>
  <property name="kdenlive:original.meta.media.0.codec.pix_fmt">yuv420p</property>
  <property name="kdenlive:original.meta.media.0.codec.sample_aspect_ratio">0</property>
  <property name="kdenlive:original.meta.media.0.codec.colorspace">709</property>
  <property name="kdenlive:original.meta.media.0.codec.name">h264</property>
  <property name="kdenlive:original.meta.media.0.codec.long_name">H.264 / AVC / MPEG-4 AVC / MPEG-4 part 10</property>
  <property name="kdenlive:original.meta.media.0.codec.bit_rate">435744</property>
  <property name="kdenlive:original.meta.attr.0.stream.handler_name.markup">VideoHandler</property>
  <property name="kdenlive:original.meta.attr.0.stream.vendor_id.markup">[0][0][0][0]</property>
  <property name="kdenlive:original.meta.attr.0.stream.encoder.markup">Lavc60.3.100 libx264</property>
  <property name="kdenlive:original.meta.attr.major_brand.markup">isom</property>
  <property name="kdenlive:original.meta.attr.minor_version.markup">512</property>
  <property name="kdenlive:original.meta.attr.compatible_brands.markup">isomiso2avc1mp41</property>
  <property name="kdenlive:original.meta.attr.encoder.markup">Lavf60.3.100</property>
  <property name="kdenlive:original.meta.attr.comment.markup">Rendered with Manim Community v0.17.3</property>
  <property name="kdenlive:original.seekable">1</property>
  <property name="kdenlive:original.width">1920</property>
  <property name="kdenlive:original.height">1080</property>
  <property name="kdenlive:original.meta.media.sample_aspect_num">1</property>
  <property name="kdenlive:original.meta.media.sample_aspect_den">1</property>
  <property name="kdenlive:original.format">3</property>
  <property name="kdenlive:original.audio_index">-1</property>
  <property name="kdenlive:original.video_index">0</property>
  <property name="kdenlive:original.meta.media.frame_rate_num">60</property>
  <property name="kdenlive:original.meta.media.frame_rate_den">1</property>
  <property name="kdenlive:original.meta.media.colorspace">709</property>
  <property name="kdenlive:original.meta.media.color_trc">2</property>
  <property name="kdenlive:original.meta.media.has_b_frames">2</property>
  <property name="kdenlive:original.meta.media.width">1920</property>
  <property name="kdenlive:original.meta.media.height">1080</property>
  <property name="kdenlive:original.meta.media.color_range">mpeg</property>
  <property name="kdenlive:original.meta.media.top_field_first">0</property>
  <property name="kdenlive:original.meta.media.progressive">1</property>
  <property name="kdenlive:original.kdenlive:clip_type">2</property>
  <property name="kdenlive:original.kdenlive:folderid">16</property>
  <property name="kdenlive:original.kdenlive:id">174</property>
  <property name="kdenlive:original.mute_on_pause">0</property>
  <property name="kdenlive:original.kdenlive:file_size">111200</property>
  <property name="kdenlive:original.kdenlive:file_hash">e1d8b6d406ba82bb922ea2fe68e7ef5c</property>
  <property name="kdenlive:original.backup">1</property>
  <property name="meta.media.top_field_first">0</property>
  <property name="meta.media.progressive">1</property>
 </chain>
 <chain id="chain265" out="00:00:01.233">
  <property name="length">75</property>
  <property name="eof">pause</property>
  <property name="resource">/home/xiaoxiae/.cache/kdenlive/proxy/96007f5decf70e3204590493df59a300.mkv</property>
  <property name="mlt_service">avformat-novalidate</property>
  <property name="meta.media.nb_streams">1</property>
  <property name="meta.media.0.stream.type">video</property>
  <property name="meta.media.0.stream.frame_rate">60</property>
  <property name="meta.media.0.stream.sample_aspect_ratio">0</property>
  <property name="meta.media.0.codec.width">640</property>
  <property name="meta.media.0.codec.height">360</property>
  <property name="meta.media.0.codec.rotate">0</property>
  <property name="meta.media.0.codec.pix_fmt">yuvj420p</property>
  <property name="meta.media.0.codec.sample_aspect_ratio">0</property>
  <property name="meta.media.0.codec.colorspace">601</property>
  <property name="meta.media.0.codec.name">mjpeg</property>
  <property name="meta.media.0.codec.long_name">MJPEG (Motion JPEG)</property>
  <property name="meta.media.0.codec.bit_rate">0</property>
  <property name="meta.attr.0.stream.HANDLER_NAME.markup">VideoHandler</property>
  <property name="meta.attr.0.stream.VENDOR_ID.markup">[0][0][0][0]</property>
  <property name="meta.attr.0.stream.ENCODER.markup">Lavc60.3.100 mjpeg</property>
  <property name="meta.attr.0.stream.DURATION.markup">00:00:01.250000000</property>
  <property name="meta.attr.COMMENT.markup">Rendered with Manim Community v0.17.3</property>
  <property name="meta.attr.MAJOR_BRAND.markup">isom</property>
  <property name="meta.attr.MINOR_VERSION.markup">512</property>
  <property name="meta.attr.COMPATIBLE_BRANDS.markup">isomiso2avc1mp41</property>
  <property name="meta.attr.ENCODER.markup">Lavf60.3.100</property>
  <property name="seekable">1</property>
  <property name="meta.media.sample_aspect_num">1</property>
  <property name="meta.media.sample_aspect_den">1</property>
  <property name="format">3</property>
  <property name="audio_index">-1</property>
  <property name="video_index">0</property>
  <property name="meta.media.frame_rate_num">60</property>
  <property name="meta.media.frame_rate_den">1</property>
  <property name="meta.media.colorspace">601</property>
  <property name="meta.media.color_trc">2</property>
  <property name="meta.media.has_b_frames">0</property>
  <property name="meta.media.width">640</property>
  <property name="meta.media.height">360</property>
  <property name="meta.media.color_range">full</property>
  <property name="kdenlive:clipname">97.mp4</property>
  <property name="kdenlive:clip_type">2</property>
  <property name="kdenlive:folderid">16</property>
  <property name="kdenlive:id">175</property>
  <property name="mute_on_pause">0</property>
  <property name="kdenlive:file_size">104582</property>
  <property name="kdenlive:file_hash">96007f5decf70e3204590493df59a300</property>
  <property name="kdenlive:proxy">/home/xiaoxiae/.cache/kdenlive/proxy/96007f5decf70e3204590493df59a300.mkv</property>
  <property name="kdenlive:originalurl">video/Farmer/97.mp4</property>
  <property name="kdenlive:original.mlt_type">chain</property>
  <property name="kdenlive:original.in">0</property>
  <property name="kdenlive:original.out">00:00:01.233</property>
  <property name="kdenlive:original.length">75</property>
  <property name="kdenlive:original.eof">pause</property>
  <property name="kdenlive:original.resource">video/Farmer/97.mp4</property>
  <property name="kdenlive:original.mlt_service">avformat-novalidate</property>
  <property name="kdenlive:original.meta.media.nb_streams">1</property>
  <property name="kdenlive:original.meta.media.0.stream.type">video</property>
  <property name="kdenlive:original.meta.media.0.stream.frame_rate">60</property>
  <property name="kdenlive:original.meta.media.0.stream.sample_aspect_ratio">0</property>
  <property name="kdenlive:original.meta.media.0.codec.width">1920</property>
  <property name="kdenlive:original.meta.media.0.codec.height">1080</property>
  <property name="kdenlive:original.meta.media.0.codec.rotate">0</property>
  <property name="kdenlive:original.meta.media.0.codec.pix_fmt">yuv420p</property>
  <property name="kdenlive:original.meta.media.0.codec.sample_aspect_ratio">0</property>
  <property name="kdenlive:original.meta.media.0.codec.colorspace">709</property>
  <property name="kdenlive:original.meta.media.0.codec.name">h264</property>
  <property name="kdenlive:original.meta.media.0.codec.long_name">H.264 / AVC / MPEG-4 AVC / MPEG-4 part 10</property>
  <property name="kdenlive:original.meta.media.0.codec.bit_rate">658496</property>
  <property name="kdenlive:original.meta.attr.0.stream.handler_name.markup">VideoHandler</property>
  <property name="kdenlive:original.meta.attr.0.stream.vendor_id.markup">[0][0][0][0]</property>
  <property name="kdenlive:original.meta.attr.0.stream.encoder.markup">Lavc60.3.100 libx264</property>
  <property name="kdenlive:original.meta.attr.major_brand.markup">isom</property>
  <property name="kdenlive:original.meta.attr.minor_version.markup">512</property>
  <property name="kdenlive:original.meta.attr.compatible_brands.markup">isomiso2avc1mp41</property>
  <property name="kdenlive:original.meta.attr.encoder.markup">Lavf60.3.100</property>
  <property name="kdenlive:original.meta.attr.comment.markup">Rendered with Manim Community v0.17.3</property>
  <property name="kdenlive:original.seekable">1</property>
  <property name="kdenlive:original.width">1920</property>
  <property name="kdenlive:original.height">1080</property>
  <property name="kdenlive:original.meta.media.sample_aspect_num">1</property>
  <property name="kdenlive:original.meta.media.sample_aspect_den">1</property>
  <property name="kdenlive:original.format">3</property>
  <property name="kdenlive:original.audio_index">-1</property>
  <property name="kdenlive:original.video_index">0</property>
  <property name="kdenlive:original.meta.media.frame_rate_num">60</property>
  <property name="kdenlive:original.meta.media.frame_rate_den">1</property>
  <property name="kdenlive:original.meta.media.colorspace">709</property>
  <property name="kdenlive:original.meta.media.color_trc">2</property>
  <property name="kdenlive:original.meta.media.has_b_frames">2</property>
  <property name="kdenlive:original.meta.media.width">1920</property>
  <property name="kdenlive:original.meta.media.height">1080</property>
  <property name="kdenlive:original.meta.media.color_range">mpeg</property>
  <property name="kdenlive:original.meta.media.top_field_first">0</property>
  <property name="kdenlive:original.meta.media.progressive">1</property>
  <property name="kdenlive:original.kdenlive:clip_type">2</property>
  <property name="kdenlive:original.kdenlive:folderid">16</property>
  <property name="kdenlive:original.kdenlive:id">175</property>
  <property name="kdenlive:original.mute_on_pause">0</property>
  <property name="kdenlive:original.kdenlive:file_size">104582</property>
  <property name="kdenlive:original.kdenlive:file_hash">96007f5decf70e3204590493df59a300</property>
  <property name="kdenlive:original.backup">1</property>
  <property name="meta.media.top_field_first">0</property>
  <property name="meta.media.progressive">1</property>
 </chain>
 <chain id="chain264" out="00:00:00.983">
  <property name="length">60</property>
  <property name="eof">pause</property>
  <property name="resource">/home/xiaoxiae/.cache/kdenlive/proxy/ee0de55ee9d1a61500564819e81d195c.mkv</property>
  <property name="mlt_service">avformat-novalidate</property>
  <property name="meta.media.nb_streams">1</property>
  <property name="meta.media.0.stream.type">video</property>
  <property name="meta.media.0.stream.frame_rate">60</property>
  <property name="meta.media.0.stream.sample_aspect_ratio">0</property>
  <property name="meta.media.0.codec.width">640</property>
  <property name="meta.media.0.codec.height">360</property>
  <property name="meta.media.0.codec.rotate">0</property>
  <property name="meta.media.0.codec.pix_fmt">yuvj420p</property>
  <property name="meta.media.0.codec.sample_aspect_ratio">0</property>
  <property name="meta.media.0.codec.colorspace">601</property>
  <property name="meta.media.0.codec.name">mjpeg</property>
  <property name="meta.media.0.codec.long_name">MJPEG (Motion JPEG)</property>
  <property name="meta.media.0.codec.bit_rate">0</property>
  <property name="meta.attr.0.stream.HANDLER_NAME.markup">VideoHandler</property>
  <property name="meta.attr.0.stream.VENDOR_ID.markup">[0][0][0][0]</property>
  <property name="meta.attr.0.stream.ENCODER.markup">Lavc60.3.100 mjpeg</property>
  <property name="meta.attr.0.stream.DURATION.markup">00:00:01.000000000</property>
  <property name="meta.attr.COMMENT.markup">Rendered with Manim Community v0.17.3</property>
  <property name="meta.attr.MAJOR_BRAND.markup">isom</property>
  <property name="meta.attr.MINOR_VERSION.markup">512</property>
  <property name="meta.attr.COMPATIBLE_BRANDS.markup">isomiso2avc1mp41</property>
  <property name="meta.attr.ENCODER.markup">Lavf60.3.100</property>
  <property name="seekable">1</property>
  <property name="meta.media.sample_aspect_num">1</property>
  <property name="meta.media.sample_aspect_den">1</property>
  <property name="format">3</property>
  <property name="audio_index">-1</property>
  <property name="video_index">0</property>
  <property name="meta.media.frame_rate_num">60</property>
  <property name="meta.media.frame_rate_den">1</property>
  <property name="meta.media.colorspace">601</property>
  <property name="meta.media.color_trc">2</property>
  <property name="meta.media.has_b_frames">0</property>
  <property name="meta.media.width">640</property>
  <property name="meta.media.height">360</property>
  <property name="meta.media.color_range">full</property>
  <property name="kdenlive:clipname">98.mp4</property>
  <property name="kdenlive:clip_type">2</property>
  <property name="kdenlive:folderid">16</property>
  <property name="kdenlive:id">176</property>
  <property name="mute_on_pause">0</property>
  <property name="kdenlive:file_size">71218</property>
  <property name="kdenlive:file_hash">ee0de55ee9d1a61500564819e81d195c</property>
  <property name="kdenlive:proxy">/home/xiaoxiae/.cache/kdenlive/proxy/ee0de55ee9d1a61500564819e81d195c.mkv</property>
  <property name="kdenlive:originalurl">video/Farmer/98.mp4</property>
  <property name="kdenlive:original.mlt_type">chain</property>
  <property name="kdenlive:original.in">0</property>
  <property name="kdenlive:original.out">00:00:00.983</property>
  <property name="kdenlive:original.length">60</property>
  <property name="kdenlive:original.eof">pause</property>
  <property name="kdenlive:original.resource">video/Farmer/98.mp4</property>
  <property name="kdenlive:original.mlt_service">avformat-novalidate</property>
  <property name="kdenlive:original.meta.media.nb_streams">1</property>
  <property name="kdenlive:original.meta.media.0.stream.type">video</property>
  <property name="kdenlive:original.meta.media.0.stream.frame_rate">60</property>
  <property name="kdenlive:original.meta.media.0.stream.sample_aspect_ratio">0</property>
  <property name="kdenlive:original.meta.media.0.codec.width">1920</property>
  <property name="kdenlive:original.meta.media.0.codec.height">1080</property>
  <property name="kdenlive:original.meta.media.0.codec.rotate">0</property>
  <property name="kdenlive:original.meta.media.0.codec.pix_fmt">yuv420p</property>
  <property name="kdenlive:original.meta.media.0.codec.sample_aspect_ratio">0</property>
  <property name="kdenlive:original.meta.media.0.codec.colorspace">709</property>
  <property name="kdenlive:original.meta.media.0.codec.name">h264</property>
  <property name="kdenlive:original.meta.media.0.codec.long_name">H.264 / AVC / MPEG-4 AVC / MPEG-4 part 10</property>
  <property name="kdenlive:original.meta.media.0.codec.bit_rate">556688</property>
  <property name="kdenlive:original.meta.attr.0.stream.handler_name.markup">VideoHandler</property>
  <property name="kdenlive:original.meta.attr.0.stream.vendor_id.markup">[0][0][0][0]</property>
  <property name="kdenlive:original.meta.attr.0.stream.encoder.markup">Lavc60.3.100 libx264</property>
  <property name="kdenlive:original.meta.attr.major_brand.markup">isom</property>
  <property name="kdenlive:original.meta.attr.minor_version.markup">512</property>
  <property name="kdenlive:original.meta.attr.compatible_brands.markup">isomiso2avc1mp41</property>
  <property name="kdenlive:original.meta.attr.encoder.markup">Lavf60.3.100</property>
  <property name="kdenlive:original.meta.attr.comment.markup">Rendered with Manim Community v0.17.3</property>
  <property name="kdenlive:original.seekable">1</property>
  <property name="kdenlive:original.width">1920</property>
  <property name="kdenlive:original.height">1080</property>
  <property name="kdenlive:original.meta.media.sample_aspect_num">1</property>
  <property name="kdenlive:original.meta.media.sample_aspect_den">1</property>
  <property name="kdenlive:original.format">3</property>
  <property name="kdenlive:original.audio_index">-1</property>
  <property name="kdenlive:original.video_index">0</property>
  <property name="kdenlive:original.meta.media.frame_rate_num">60</property>
  <property name="kdenlive:original.meta.media.frame_rate_den">1</property>
  <property name="kdenlive:original.meta.media.colorspace">709</property>
  <property name="kdenlive:original.meta.media.color_trc">2</property>
  <property name="kdenlive:original.meta.media.has_b_frames">2</property>
  <property name="kdenlive:original.meta.media.width">1920</property>
  <property name="kdenlive:original.meta.media.height">1080</property>
  <property name="kdenlive:original.meta.media.color_range">mpeg</property>
  <property name="kdenlive:original.meta.media.top_field_first">0</property>
  <property name="kdenlive:original.meta.media.progressive">1</property>
  <property name="kdenlive:original.kdenlive:clip_type">2</property>
  <property name="kdenlive:original.kdenlive:folderid">16</property>
  <property name="kdenlive:original.kdenlive:id">176</property>
  <property name="kdenlive:original.mute_on_pause">0</property>
  <property name="kdenlive:original.kdenlive:file_size">71218</property>
  <property name="kdenlive:original.kdenlive:file_hash">ee0de55ee9d1a61500564819e81d195c</property>
  <property name="kdenlive:original.backup">1</property>
  <property name="meta.media.top_field_first">0</property>
  <property name="meta.media.progressive">1</property>
 </chain>
 <chain id="chain262" out="00:00:00.983">
  <property name="length">60</property>
  <property name="eof">pause</property>
  <property name="resource">/home/xiaoxiae/.cache/kdenlive/proxy/9db1898c9f8f50d909fde1274fb5c0db.mkv</property>
  <property name="mlt_service">avformat-novalidate</property>
  <property name="meta.media.nb_streams">1</property>
  <property name="meta.media.0.stream.type">video</property>
  <property name="meta.media.0.stream.frame_rate">60</property>
  <property name="meta.media.0.stream.sample_aspect_ratio">0</property>
  <property name="meta.media.0.codec.width">640</property>
  <property name="meta.media.0.codec.height">360</property>
  <property name="meta.media.0.codec.rotate">0</property>
  <property name="meta.media.0.codec.pix_fmt">yuvj420p</property>
  <property name="meta.media.0.codec.sample_aspect_ratio">0</property>
  <property name="meta.media.0.codec.colorspace">601</property>
  <property name="meta.media.0.codec.name">mjpeg</property>
  <property name="meta.media.0.codec.long_name">MJPEG (Motion JPEG)</property>
  <property name="meta.media.0.codec.bit_rate">0</property>
  <property name="meta.attr.0.stream.HANDLER_NAME.markup">VideoHandler</property>
  <property name="meta.attr.0.stream.VENDOR_ID.markup">[0][0][0][0]</property>
  <property name="meta.attr.0.stream.ENCODER.markup">Lavc60.3.100 mjpeg</property>
  <property name="meta.attr.0.stream.DURATION.markup">00:00:01.000000000</property>
  <property name="meta.attr.COMMENT.markup">Rendered with Manim Community v0.17.3</property>
  <property name="meta.attr.MAJOR_BRAND.markup">isom</property>
  <property name="meta.attr.MINOR_VERSION.markup">512</property>
  <property name="meta.attr.COMPATIBLE_BRANDS.markup">isomiso2avc1mp41</property>
  <property name="meta.attr.ENCODER.markup">Lavf60.3.100</property>
  <property name="seekable">1</property>
  <property name="meta.media.sample_aspect_num">1</property>
  <property name="meta.media.sample_aspect_den">1</property>
  <property name="format">3</property>
  <property name="audio_index">-1</property>
  <property name="video_index">0</property>
  <property name="meta.media.frame_rate_num">60</property>
  <property name="meta.media.frame_rate_den">1</property>
  <property name="meta.media.colorspace">601</property>
  <property name="meta.media.color_trc">2</property>
  <property name="meta.media.has_b_frames">0</property>
  <property name="meta.media.width">640</property>
  <property name="meta.media.height">360</property>
  <property name="meta.media.color_range">full</property>
  <property name="kdenlive:clipname">99.mp4</property>
  <property name="kdenlive:clip_type">2</property>
  <property name="kdenlive:folderid">16</property>
  <property name="kdenlive:id">177</property>
  <property name="mute_on_pause">0</property>
  <property name="kdenlive:file_size">76926</property>
  <property name="kdenlive:file_hash">9db1898c9f8f50d909fde1274fb5c0db</property>
  <property name="kdenlive:proxy">/home/xiaoxiae/.cache/kdenlive/proxy/9db1898c9f8f50d909fde1274fb5c0db.mkv</property>
  <property name="kdenlive:originalurl">video/Farmer/99.mp4</property>
  <property name="kdenlive:original.mlt_type">chain</property>
  <property name="kdenlive:original.in">0</property>
  <property name="kdenlive:original.out">00:00:00.983</property>
  <property name="kdenlive:original.length">60</property>
  <property name="kdenlive:original.eof">pause</property>
  <property name="kdenlive:original.resource">video/Farmer/99.mp4</property>
  <property name="kdenlive:original.mlt_service">avformat-novalidate</property>
  <property name="kdenlive:original.meta.media.nb_streams">1</property>
  <property name="kdenlive:original.meta.media.0.stream.type">video</property>
  <property name="kdenlive:original.meta.media.0.stream.frame_rate">60</property>
  <property name="kdenlive:original.meta.media.0.stream.sample_aspect_ratio">0</property>
  <property name="kdenlive:original.meta.media.0.codec.width">1920</property>
  <property name="kdenlive:original.meta.media.0.codec.height">1080</property>
  <property name="kdenlive:original.meta.media.0.codec.rotate">0</property>
  <property name="kdenlive:original.meta.media.0.codec.pix_fmt">yuv420p</property>
  <property name="kdenlive:original.meta.media.0.codec.sample_aspect_ratio">0</property>
  <property name="kdenlive:original.meta.media.0.codec.colorspace">709</property>
  <property name="kdenlive:original.meta.media.0.codec.name">h264</property>
  <property name="kdenlive:original.meta.media.0.codec.long_name">H.264 / AVC / MPEG-4 AVC / MPEG-4 part 10</property>
  <property name="kdenlive:original.meta.media.0.codec.bit_rate">602352</property>
  <property name="kdenlive:original.meta.attr.0.stream.handler_name.markup">VideoHandler</property>
  <property name="kdenlive:original.meta.attr.0.stream.vendor_id.markup">[0][0][0][0]</property>
  <property name="kdenlive:original.meta.attr.0.stream.encoder.markup">Lavc60.3.100 libx264</property>
  <property name="kdenlive:original.meta.attr.major_brand.markup">isom</property>
  <property name="kdenlive:original.meta.attr.minor_version.markup">512</property>
  <property name="kdenlive:original.meta.attr.compatible_brands.markup">isomiso2avc1mp41</property>
  <property name="kdenlive:original.meta.attr.encoder.markup">Lavf60.3.100</property>
  <property name="kdenlive:original.meta.attr.comment.markup">Rendered with Manim Community v0.17.3</property>
  <property name="kdenlive:original.seekable">1</property>
  <property name="kdenlive:original.width">1920</property>
  <property name="kdenlive:original.height">1080</property>
  <property name="kdenlive:original.meta.media.sample_aspect_num">1</property>
  <property name="kdenlive:original.meta.media.sample_aspect_den">1</property>
  <property name="kdenlive:original.format">3</property>
  <property name="kdenlive:original.audio_index">-1</property>
  <property name="kdenlive:original.video_index">0</property>
  <property name="kdenlive:original.meta.media.frame_rate_num">60</property>
  <property name="kdenlive:original.meta.media.frame_rate_den">1</property>
  <property name="kdenlive:original.meta.media.colorspace">709</property>
  <property name="kdenlive:original.meta.media.color_trc">2</property>
  <property name="kdenlive:original.meta.media.has_b_frames">2</property>
  <property name="kdenlive:original.meta.media.width">1920</property>
  <property name="kdenlive:original.meta.media.height">1080</property>
  <property name="kdenlive:original.meta.media.color_range">mpeg</property>
  <property name="kdenlive:original.meta.media.top_field_first">0</property>
  <property name="kdenlive:original.meta.media.progressive">1</property>
  <property name="kdenlive:original.kdenlive:clip_type">2</property>
  <property name="kdenlive:original.kdenlive:folderid">16</property>
  <property name="kdenlive:original.kdenlive:id">177</property>
  <property name="kdenlive:original.mute_on_pause">0</property>
  <property name="kdenlive:original.kdenlive:file_size">76926</property>
  <property name="kdenlive:original.kdenlive:file_hash">9db1898c9f8f50d909fde1274fb5c0db</property>
  <property name="kdenlive:original.backup">1</property>
  <property name="meta.media.top_field_first">0</property>
  <property name="meta.media.progressive">1</property>
 </chain>
 <chain id="chain49" out="00:00:01.483">
  <property name="length">90</property>
  <property name="eof">pause</property>
  <property name="resource">video/Flows/1.mp4</property>
  <property name="mlt_service">avformat-novalidate</property>
  <property name="meta.media.nb_streams">1</property>
  <property name="meta.media.0.stream.type">video</property>
  <property name="meta.media.0.stream.frame_rate">60</property>
  <property name="meta.media.0.stream.sample_aspect_ratio">0</property>
  <property name="meta.media.0.codec.width">1920</property>
  <property name="meta.media.0.codec.height">1080</property>
  <property name="meta.media.0.codec.rotate">0</property>
  <property name="meta.media.0.codec.pix_fmt">yuv420p</property>
  <property name="meta.media.0.codec.sample_aspect_ratio">0</property>
  <property name="meta.media.0.codec.colorspace">709</property>
  <property name="meta.media.0.codec.name">h264</property>
  <property name="meta.media.0.codec.long_name">H.264 / AVC / MPEG-4 AVC / MPEG-4 part 10</property>
  <property name="meta.media.0.codec.bit_rate">702293</property>
  <property name="meta.attr.0.stream.handler_name.markup">VideoHandler</property>
  <property name="meta.attr.0.stream.vendor_id.markup">[0][0][0][0]</property>
  <property name="meta.attr.0.stream.encoder.markup">Lavc60.3.100 libx264</property>
  <property name="meta.attr.major_brand.markup">isom</property>
  <property name="meta.attr.minor_version.markup">512</property>
  <property name="meta.attr.compatible_brands.markup">isomiso2avc1mp41</property>
  <property name="meta.attr.encoder.markup">Lavf60.3.100</property>
  <property name="meta.attr.comment.markup">Rendered with Manim Community v0.17.3</property>
  <property name="seekable">1</property>
  <property name="meta.media.sample_aspect_num">1</property>
  <property name="meta.media.sample_aspect_den">1</property>
  <property name="format">3</property>
  <property name="audio_index">-1</property>
  <property name="video_index">0</property>
  <property name="meta.media.frame_rate_num">60</property>
  <property name="meta.media.frame_rate_den">1</property>
  <property name="meta.media.colorspace">709</property>
  <property name="meta.media.color_trc">2</property>
  <property name="meta.media.has_b_frames">2</property>
  <property name="meta.media.width">1920</property>
  <property name="meta.media.height">1080</property>
  <property name="meta.media.color_range">mpeg</property>
  <property name="kdenlive:clipname"/>
  <property name="meta.media.top_field_first">0</property>
  <property name="meta.media.progressive">1</property>
  <property name="kdenlive:clip_type">2</property>
  <property name="kdenlive:folderid">178</property>
  <property name="kdenlive:id">179</property>
  <property name="mute_on_pause">0</property>
  <property name="kdenlive:file_size">133648</property>
  <property name="kdenlive:file_hash">1f4a7ee63035c76f029d41bd7e0843ad</property>
 </chain>
 <chain id="chain50" out="00:00:01.483">
  <property name="length">90</property>
  <property name="eof">pause</property>
  <property name="resource">video/Flows/2.mp4</property>
  <property name="mlt_service">avformat-novalidate</property>
  <property name="meta.media.nb_streams">1</property>
  <property name="meta.media.0.stream.type">video</property>
  <property name="meta.media.0.stream.frame_rate">60</property>
  <property name="meta.media.0.stream.sample_aspect_ratio">0</property>
  <property name="meta.media.0.codec.width">1920</property>
  <property name="meta.media.0.codec.height">1080</property>
  <property name="meta.media.0.codec.rotate">0</property>
  <property name="meta.media.0.codec.pix_fmt">yuv420p</property>
  <property name="meta.media.0.codec.sample_aspect_ratio">0</property>
  <property name="meta.media.0.codec.colorspace">709</property>
  <property name="meta.media.0.codec.name">h264</property>
  <property name="meta.media.0.codec.long_name">H.264 / AVC / MPEG-4 AVC / MPEG-4 part 10</property>
  <property name="meta.media.0.codec.bit_rate">624506</property>
  <property name="meta.attr.0.stream.handler_name.markup">VideoHandler</property>
  <property name="meta.attr.0.stream.vendor_id.markup">[0][0][0][0]</property>
  <property name="meta.attr.0.stream.encoder.markup">Lavc60.3.100 libx264</property>
  <property name="meta.attr.major_brand.markup">isom</property>
  <property name="meta.attr.minor_version.markup">512</property>
  <property name="meta.attr.compatible_brands.markup">isomiso2avc1mp41</property>
  <property name="meta.attr.encoder.markup">Lavf60.3.100</property>
  <property name="meta.attr.comment.markup">Rendered with Manim Community v0.17.3</property>
  <property name="seekable">1</property>
  <property name="meta.media.sample_aspect_num">1</property>
  <property name="meta.media.sample_aspect_den">1</property>
  <property name="format">3</property>
  <property name="audio_index">-1</property>
  <property name="video_index">0</property>
  <property name="meta.media.frame_rate_num">60</property>
  <property name="meta.media.frame_rate_den">1</property>
  <property name="meta.media.colorspace">709</property>
  <property name="meta.media.color_trc">2</property>
  <property name="meta.media.has_b_frames">2</property>
  <property name="meta.media.width">1920</property>
  <property name="meta.media.height">1080</property>
  <property name="meta.media.color_range">mpeg</property>
  <property name="kdenlive:clipname"/>
  <property name="meta.media.top_field_first">0</property>
  <property name="meta.media.progressive">1</property>
  <property name="kdenlive:clip_type">2</property>
  <property name="kdenlive:folderid">178</property>
  <property name="kdenlive:id">180</property>
  <property name="mute_on_pause">0</property>
  <property name="kdenlive:file_size">119087</property>
  <property name="kdenlive:file_hash">94858d3e1dc74669505e12a596dd6728</property>
 </chain>
 <chain id="chain51" out="00:00:00.983">
  <property name="length">60</property>
  <property name="eof">pause</property>
  <property name="resource">video/Flows/3.mp4</property>
  <property name="mlt_service">avformat-novalidate</property>
  <property name="meta.media.nb_streams">1</property>
  <property name="meta.media.0.stream.type">video</property>
  <property name="meta.media.0.stream.frame_rate">60</property>
  <property name="meta.media.0.stream.sample_aspect_ratio">0</property>
  <property name="meta.media.0.codec.width">1920</property>
  <property name="meta.media.0.codec.height">1080</property>
  <property name="meta.media.0.codec.rotate">0</property>
  <property name="meta.media.0.codec.pix_fmt">yuv420p</property>
  <property name="meta.media.0.codec.sample_aspect_ratio">0</property>
  <property name="meta.media.0.codec.colorspace">709</property>
  <property name="meta.media.0.codec.name">h264</property>
  <property name="meta.media.0.codec.long_name">H.264 / AVC / MPEG-4 AVC / MPEG-4 part 10</property>
  <property name="meta.media.0.codec.bit_rate">2785152</property>
  <property name="meta.attr.0.stream.handler_name.markup">VideoHandler</property>
  <property name="meta.attr.0.stream.vendor_id.markup">[0][0][0][0]</property>
  <property name="meta.attr.0.stream.encoder.markup">Lavc60.3.100 libx264</property>
  <property name="meta.attr.major_brand.markup">isom</property>
  <property name="meta.attr.minor_version.markup">512</property>
  <property name="meta.attr.compatible_brands.markup">isomiso2avc1mp41</property>
  <property name="meta.attr.encoder.markup">Lavf60.3.100</property>
  <property name="meta.attr.comment.markup">Rendered with Manim Community v0.17.3</property>
  <property name="seekable">1</property>
  <property name="meta.media.sample_aspect_num">1</property>
  <property name="meta.media.sample_aspect_den">1</property>
  <property name="format">3</property>
  <property name="audio_index">-1</property>
  <property name="video_index">0</property>
  <property name="meta.media.frame_rate_num">60</property>
  <property name="meta.media.frame_rate_den">1</property>
  <property name="meta.media.colorspace">709</property>
  <property name="meta.media.color_trc">2</property>
  <property name="meta.media.has_b_frames">2</property>
  <property name="meta.media.width">1920</property>
  <property name="meta.media.height">1080</property>
  <property name="meta.media.color_range">mpeg</property>
  <property name="kdenlive:clipname"/>
  <property name="meta.media.top_field_first">0</property>
  <property name="meta.media.progressive">1</property>
  <property name="kdenlive:clip_type">2</property>
  <property name="kdenlive:folderid">178</property>
  <property name="kdenlive:id">181</property>
  <property name="mute_on_pause">0</property>
  <property name="kdenlive:file_size">349584</property>
  <property name="kdenlive:file_hash">abb7eae8b99a2d04af31173a7411c485</property>
 </chain>
 <chain id="chain52" out="00:00:00.983">
  <property name="length">60</property>
  <property name="eof">pause</property>
  <property name="resource">video/Flows/4.mp4</property>
  <property name="mlt_service">avformat-novalidate</property>
  <property name="meta.media.nb_streams">1</property>
  <property name="meta.media.0.stream.type">video</property>
  <property name="meta.media.0.stream.frame_rate">60</property>
  <property name="meta.media.0.stream.sample_aspect_ratio">0</property>
  <property name="meta.media.0.codec.width">1920</property>
  <property name="meta.media.0.codec.height">1080</property>
  <property name="meta.media.0.codec.rotate">0</property>
  <property name="meta.media.0.codec.pix_fmt">yuv420p</property>
  <property name="meta.media.0.codec.sample_aspect_ratio">0</property>
  <property name="meta.media.0.codec.colorspace">709</property>
  <property name="meta.media.0.codec.name">h264</property>
  <property name="meta.media.0.codec.long_name">H.264 / AVC / MPEG-4 AVC / MPEG-4 part 10</property>
  <property name="meta.media.0.codec.bit_rate">498088</property>
  <property name="meta.attr.0.stream.handler_name.markup">VideoHandler</property>
  <property name="meta.attr.0.stream.vendor_id.markup">[0][0][0][0]</property>
  <property name="meta.attr.0.stream.encoder.markup">Lavc60.3.100 libx264</property>
  <property name="meta.attr.major_brand.markup">isom</property>
  <property name="meta.attr.minor_version.markup">512</property>
  <property name="meta.attr.compatible_brands.markup">isomiso2avc1mp41</property>
  <property name="meta.attr.encoder.markup">Lavf60.3.100</property>
  <property name="meta.attr.comment.markup">Rendered with Manim Community v0.17.3</property>
  <property name="seekable">1</property>
  <property name="meta.media.sample_aspect_num">1</property>
  <property name="meta.media.sample_aspect_den">1</property>
  <property name="format">3</property>
  <property name="audio_index">-1</property>
  <property name="video_index">0</property>
  <property name="meta.media.frame_rate_num">60</property>
  <property name="meta.media.frame_rate_den">1</property>
  <property name="meta.media.colorspace">709</property>
  <property name="meta.media.color_trc">2</property>
  <property name="meta.media.has_b_frames">2</property>
  <property name="meta.media.width">1920</property>
  <property name="meta.media.height">1080</property>
  <property name="meta.media.color_range">mpeg</property>
  <property name="kdenlive:clipname"/>
  <property name="meta.media.top_field_first">0</property>
  <property name="meta.media.progressive">1</property>
  <property name="kdenlive:clip_type">2</property>
  <property name="kdenlive:folderid">178</property>
  <property name="kdenlive:id">182</property>
  <property name="mute_on_pause">0</property>
  <property name="kdenlive:file_size">63837</property>
  <property name="kdenlive:file_hash">f2d758a72384b8f7ddef58547c3dde96</property>
 </chain>
 <chain id="chain53" out="00:00:00.983">
  <property name="length">60</property>
  <property name="eof">pause</property>
  <property name="resource">video/Flows/5.mp4</property>
  <property name="mlt_service">avformat-novalidate</property>
  <property name="meta.media.nb_streams">1</property>
  <property name="meta.media.0.stream.type">video</property>
  <property name="meta.media.0.stream.frame_rate">60</property>
  <property name="meta.media.0.stream.sample_aspect_ratio">0</property>
  <property name="meta.media.0.codec.width">1920</property>
  <property name="meta.media.0.codec.height">1080</property>
  <property name="meta.media.0.codec.rotate">0</property>
  <property name="meta.media.0.codec.pix_fmt">yuv420p</property>
  <property name="meta.media.0.codec.sample_aspect_ratio">0</property>
  <property name="meta.media.0.codec.colorspace">709</property>
  <property name="meta.media.0.codec.name">h264</property>
  <property name="meta.media.0.codec.long_name">H.264 / AVC / MPEG-4 AVC / MPEG-4 part 10</property>
  <property name="meta.media.0.codec.bit_rate">3500000</property>
  <property name="meta.attr.0.stream.handler_name.markup">VideoHandler</property>
  <property name="meta.attr.0.stream.vendor_id.markup">[0][0][0][0]</property>
  <property name="meta.attr.0.stream.encoder.markup">Lavc60.3.100 libx264</property>
  <property name="meta.attr.major_brand.markup">isom</property>
  <property name="meta.attr.minor_version.markup">512</property>
  <property name="meta.attr.compatible_brands.markup">isomiso2avc1mp41</property>
  <property name="meta.attr.encoder.markup">Lavf60.3.100</property>
  <property name="meta.attr.comment.markup">Rendered with Manim Community v0.17.3</property>
  <property name="seekable">1</property>
  <property name="meta.media.sample_aspect_num">1</property>
  <property name="meta.media.sample_aspect_den">1</property>
  <property name="format">3</property>
  <property name="audio_index">-1</property>
  <property name="video_index">0</property>
  <property name="meta.media.frame_rate_num">60</property>
  <property name="meta.media.frame_rate_den">1</property>
  <property name="meta.media.colorspace">709</property>
  <property name="meta.media.color_trc">2</property>
  <property name="meta.media.has_b_frames">2</property>
  <property name="meta.media.width">1920</property>
  <property name="meta.media.height">1080</property>
  <property name="meta.media.color_range">mpeg</property>
  <property name="kdenlive:clipname"/>
  <property name="meta.media.top_field_first">0</property>
  <property name="meta.media.progressive">1</property>
  <property name="kdenlive:clip_type">2</property>
  <property name="kdenlive:folderid">178</property>
  <property name="kdenlive:id">183</property>
  <property name="mute_on_pause">0</property>
  <property name="kdenlive:file_size">438956</property>
  <property name="kdenlive:file_hash">39dcce312de266369d2a91e08ee0825d</property>
 </chain>
 <chain id="chain54" out="00:00:00.983">
  <property name="length">60</property>
  <property name="eof">pause</property>
  <property name="resource">video/Flows/6.mp4</property>
  <property name="mlt_service">avformat-novalidate</property>
  <property name="meta.media.nb_streams">1</property>
  <property name="meta.media.0.stream.type">video</property>
  <property name="meta.media.0.stream.frame_rate">60</property>
  <property name="meta.media.0.stream.sample_aspect_ratio">0</property>
  <property name="meta.media.0.codec.width">1920</property>
  <property name="meta.media.0.codec.height">1080</property>
  <property name="meta.media.0.codec.rotate">0</property>
  <property name="meta.media.0.codec.pix_fmt">yuv420p</property>
  <property name="meta.media.0.codec.sample_aspect_ratio">0</property>
  <property name="meta.media.0.codec.colorspace">709</property>
  <property name="meta.media.0.codec.name">h264</property>
  <property name="meta.media.0.codec.long_name">H.264 / AVC / MPEG-4 AVC / MPEG-4 part 10</property>
  <property name="meta.media.0.codec.bit_rate">1321152</property>
  <property name="meta.attr.0.stream.handler_name.markup">VideoHandler</property>
  <property name="meta.attr.0.stream.vendor_id.markup">[0][0][0][0]</property>
  <property name="meta.attr.0.stream.encoder.markup">Lavc60.3.100 libx264</property>
  <property name="meta.attr.major_brand.markup">isom</property>
  <property name="meta.attr.minor_version.markup">512</property>
  <property name="meta.attr.compatible_brands.markup">isomiso2avc1mp41</property>
  <property name="meta.attr.encoder.markup">Lavf60.3.100</property>
  <property name="meta.attr.comment.markup">Rendered with Manim Community v0.17.3</property>
  <property name="seekable">1</property>
  <property name="meta.media.sample_aspect_num">1</property>
  <property name="meta.media.sample_aspect_den">1</property>
  <property name="format">3</property>
  <property name="audio_index">-1</property>
  <property name="video_index">0</property>
  <property name="meta.media.frame_rate_num">60</property>
  <property name="meta.media.frame_rate_den">1</property>
  <property name="meta.media.colorspace">709</property>
  <property name="meta.media.color_trc">2</property>
  <property name="meta.media.has_b_frames">2</property>
  <property name="meta.media.width">1920</property>
  <property name="meta.media.height">1080</property>
  <property name="meta.media.color_range">mpeg</property>
  <property name="kdenlive:clipname"/>
  <property name="meta.media.top_field_first">0</property>
  <property name="meta.media.progressive">1</property>
  <property name="kdenlive:clip_type">2</property>
  <property name="kdenlive:folderid">178</property>
  <property name="kdenlive:id">184</property>
  <property name="mute_on_pause">0</property>
  <property name="kdenlive:file_size">166768</property>
  <property name="kdenlive:file_hash">c94b1fc31f55dad6cf570ffea3df1984</property>
 </chain>
 <chain id="chain55" out="00:00:00.983">
  <property name="length">60</property>
  <property name="eof">pause</property>
  <property name="resource">video/Flows/7.mp4</property>
  <property name="mlt_service">avformat-novalidate</property>
  <property name="meta.media.nb_streams">1</property>
  <property name="meta.media.0.stream.type">video</property>
  <property name="meta.media.0.stream.frame_rate">60</property>
  <property name="meta.media.0.stream.sample_aspect_ratio">0</property>
  <property name="meta.media.0.codec.width">1920</property>
  <property name="meta.media.0.codec.height">1080</property>
  <property name="meta.media.0.codec.rotate">0</property>
  <property name="meta.media.0.codec.pix_fmt">yuv420p</property>
  <property name="meta.media.0.codec.sample_aspect_ratio">0</property>
  <property name="meta.media.0.codec.colorspace">709</property>
  <property name="meta.media.0.codec.name">h264</property>
  <property name="meta.media.0.codec.long_name">H.264 / AVC / MPEG-4 AVC / MPEG-4 part 10</property>
  <property name="meta.media.0.codec.bit_rate">2426920</property>
  <property name="meta.attr.0.stream.handler_name.markup">VideoHandler</property>
  <property name="meta.attr.0.stream.vendor_id.markup">[0][0][0][0]</property>
  <property name="meta.attr.0.stream.encoder.markup">Lavc60.3.100 libx264</property>
  <property name="meta.attr.major_brand.markup">isom</property>
  <property name="meta.attr.minor_version.markup">512</property>
  <property name="meta.attr.compatible_brands.markup">isomiso2avc1mp41</property>
  <property name="meta.attr.encoder.markup">Lavf60.3.100</property>
  <property name="meta.attr.comment.markup">Rendered with Manim Community v0.17.3</property>
  <property name="seekable">1</property>
  <property name="meta.media.sample_aspect_num">1</property>
  <property name="meta.media.sample_aspect_den">1</property>
  <property name="format">3</property>
  <property name="audio_index">-1</property>
  <property name="video_index">0</property>
  <property name="meta.media.frame_rate_num">60</property>
  <property name="meta.media.frame_rate_den">1</property>
  <property name="meta.media.colorspace">709</property>
  <property name="meta.media.color_trc">2</property>
  <property name="meta.media.has_b_frames">2</property>
  <property name="meta.media.width">1920</property>
  <property name="meta.media.height">1080</property>
  <property name="meta.media.color_range">mpeg</property>
  <property name="kdenlive:clipname"/>
  <property name="meta.media.top_field_first">0</property>
  <property name="meta.media.progressive">1</property>
  <property name="kdenlive:clip_type">2</property>
  <property name="kdenlive:folderid">178</property>
  <property name="kdenlive:id">185</property>
  <property name="mute_on_pause">0</property>
  <property name="kdenlive:file_size">304813</property>
  <property name="kdenlive:file_hash">a01ebc48fd025c385989f1abcec7d6a1</property>
 </chain>
 <chain id="chain56" out="00:00:01.483">
  <property name="length">90</property>
  <property name="eof">pause</property>
  <property name="resource">video/Flows/8.mp4</property>
  <property name="mlt_service">avformat-novalidate</property>
  <property name="meta.media.nb_streams">1</property>
  <property name="meta.media.0.stream.type">video</property>
  <property name="meta.media.0.stream.frame_rate">60</property>
  <property name="meta.media.0.stream.sample_aspect_ratio">0</property>
  <property name="meta.media.0.codec.width">1920</property>
  <property name="meta.media.0.codec.height">1080</property>
  <property name="meta.media.0.codec.rotate">0</property>
  <property name="meta.media.0.codec.pix_fmt">yuv420p</property>
  <property name="meta.media.0.codec.sample_aspect_ratio">0</property>
  <property name="meta.media.0.codec.colorspace">709</property>
  <property name="meta.media.0.codec.name">h264</property>
  <property name="meta.media.0.codec.long_name">H.264 / AVC / MPEG-4 AVC / MPEG-4 part 10</property>
  <property name="meta.media.0.codec.bit_rate">1020848</property>
  <property name="meta.attr.0.stream.handler_name.markup">VideoHandler</property>
  <property name="meta.attr.0.stream.vendor_id.markup">[0][0][0][0]</property>
  <property name="meta.attr.0.stream.encoder.markup">Lavc60.3.100 libx264</property>
  <property name="meta.attr.major_brand.markup">isom</property>
  <property name="meta.attr.minor_version.markup">512</property>
  <property name="meta.attr.compatible_brands.markup">isomiso2avc1mp41</property>
  <property name="meta.attr.encoder.markup">Lavf60.3.100</property>
  <property name="meta.attr.comment.markup">Rendered with Manim Community v0.17.3</property>
  <property name="seekable">1</property>
  <property name="meta.media.sample_aspect_num">1</property>
  <property name="meta.media.sample_aspect_den">1</property>
  <property name="format">3</property>
  <property name="audio_index">-1</property>
  <property name="video_index">0</property>
  <property name="meta.media.frame_rate_num">60</property>
  <property name="meta.media.frame_rate_den">1</property>
  <property name="meta.media.colorspace">709</property>
  <property name="meta.media.color_trc">2</property>
  <property name="meta.media.has_b_frames">2</property>
  <property name="meta.media.width">1920</property>
  <property name="meta.media.height">1080</property>
  <property name="meta.media.color_range">mpeg</property>
  <property name="kdenlive:clipname"/>
  <property name="meta.media.top_field_first">0</property>
  <property name="meta.media.progressive">1</property>
  <property name="kdenlive:clip_type">2</property>
  <property name="kdenlive:folderid">178</property>
  <property name="kdenlive:id">186</property>
  <property name="mute_on_pause">0</property>
  <property name="kdenlive:file_size">193241</property>
  <property name="kdenlive:file_hash">a311152d24ebbfba832dfeef74d15119</property>
 </chain>
 <chain id="chain57" out="00:00:01.483">
  <property name="length">90</property>
  <property name="eof">pause</property>
  <property name="resource">video/Flows/9.mp4</property>
  <property name="mlt_service">avformat-novalidate</property>
  <property name="meta.media.nb_streams">1</property>
  <property name="meta.media.0.stream.type">video</property>
  <property name="meta.media.0.stream.frame_rate">60</property>
  <property name="meta.media.0.stream.sample_aspect_ratio">0</property>
  <property name="meta.media.0.codec.width">1920</property>
  <property name="meta.media.0.codec.height">1080</property>
  <property name="meta.media.0.codec.rotate">0</property>
  <property name="meta.media.0.codec.pix_fmt">yuv420p</property>
  <property name="meta.media.0.codec.sample_aspect_ratio">0</property>
  <property name="meta.media.0.codec.colorspace">709</property>
  <property name="meta.media.0.codec.name">h264</property>
  <property name="meta.media.0.codec.long_name">H.264 / AVC / MPEG-4 AVC / MPEG-4 part 10</property>
  <property name="meta.media.0.codec.bit_rate">653242</property>
  <property name="meta.attr.0.stream.handler_name.markup">VideoHandler</property>
  <property name="meta.attr.0.stream.vendor_id.markup">[0][0][0][0]</property>
  <property name="meta.attr.0.stream.encoder.markup">Lavc60.3.100 libx264</property>
  <property name="meta.attr.major_brand.markup">isom</property>
  <property name="meta.attr.minor_version.markup">512</property>
  <property name="meta.attr.compatible_brands.markup">isomiso2avc1mp41</property>
  <property name="meta.attr.encoder.markup">Lavf60.3.100</property>
  <property name="meta.attr.comment.markup">Rendered with Manim Community v0.17.3</property>
  <property name="seekable">1</property>
  <property name="meta.media.sample_aspect_num">1</property>
  <property name="meta.media.sample_aspect_den">1</property>
  <property name="format">3</property>
  <property name="audio_index">-1</property>
  <property name="video_index">0</property>
  <property name="meta.media.frame_rate_num">60</property>
  <property name="meta.media.frame_rate_den">1</property>
  <property name="meta.media.colorspace">709</property>
  <property name="meta.media.color_trc">2</property>
  <property name="meta.media.has_b_frames">2</property>
  <property name="meta.media.width">1920</property>
  <property name="meta.media.height">1080</property>
  <property name="meta.media.color_range">mpeg</property>
  <property name="kdenlive:clipname"/>
  <property name="meta.media.top_field_first">0</property>
  <property name="meta.media.progressive">1</property>
  <property name="kdenlive:clip_type">2</property>
  <property name="kdenlive:folderid">178</property>
  <property name="kdenlive:id">187</property>
  <property name="mute_on_pause">0</property>
  <property name="kdenlive:file_size">124459</property>
  <property name="kdenlive:file_hash">4d8d9041d66bf385bdf0e1126709f714</property>
 </chain>
 <chain id="chain151" out="00:00:00.983">
  <property name="length">60</property>
  <property name="eof">pause</property>
  <property name="resource">/home/xiaoxiae/.cache/kdenlive/proxy/7c0815615bc2ca76543906f9d81fafd8.mkv</property>
  <property name="mlt_service">avformat-novalidate</property>
  <property name="meta.media.nb_streams">1</property>
  <property name="meta.media.0.stream.type">video</property>
  <property name="meta.media.0.stream.frame_rate">60</property>
  <property name="meta.media.0.stream.sample_aspect_ratio">0</property>
  <property name="meta.media.0.codec.width">640</property>
  <property name="meta.media.0.codec.height">360</property>
  <property name="meta.media.0.codec.rotate">0</property>
  <property name="meta.media.0.codec.pix_fmt">yuvj420p</property>
  <property name="meta.media.0.codec.sample_aspect_ratio">0</property>
  <property name="meta.media.0.codec.colorspace">601</property>
  <property name="meta.media.0.codec.name">mjpeg</property>
  <property name="meta.media.0.codec.long_name">MJPEG (Motion JPEG)</property>
  <property name="meta.media.0.codec.bit_rate">0</property>
  <property name="meta.attr.0.stream.HANDLER_NAME.markup">VideoHandler</property>
  <property name="meta.attr.0.stream.VENDOR_ID.markup">[0][0][0][0]</property>
  <property name="meta.attr.0.stream.ENCODER.markup">Lavc60.3.100 mjpeg</property>
  <property name="meta.attr.0.stream.DURATION.markup">00:00:01.000000000</property>
  <property name="meta.attr.COMMENT.markup">Rendered with Manim Community v0.17.3</property>
  <property name="meta.attr.MAJOR_BRAND.markup">isom</property>
  <property name="meta.attr.MINOR_VERSION.markup">512</property>
  <property name="meta.attr.COMPATIBLE_BRANDS.markup">isomiso2avc1mp41</property>
  <property name="meta.attr.ENCODER.markup">Lavf60.3.100</property>
  <property name="seekable">1</property>
  <property name="meta.media.sample_aspect_num">1</property>
  <property name="meta.media.sample_aspect_den">1</property>
  <property name="format">3</property>
  <property name="audio_index">-1</property>
  <property name="video_index">0</property>
  <property name="meta.media.frame_rate_num">60</property>
  <property name="meta.media.frame_rate_den">1</property>
  <property name="meta.media.colorspace">601</property>
  <property name="meta.media.color_trc">2</property>
  <property name="meta.media.has_b_frames">0</property>
  <property name="meta.media.width">640</property>
  <property name="meta.media.height">360</property>
  <property name="meta.media.color_range">full</property>
  <property name="kdenlive:clipname">1.mp4</property>
  <property name="kdenlive:clip_type">2</property>
  <property name="kdenlive:folderid">188</property>
  <property name="kdenlive:id">189</property>
  <property name="mute_on_pause">0</property>
  <property name="kdenlive:file_size">46947</property>
  <property name="kdenlive:file_hash">7c0815615bc2ca76543906f9d81fafd8</property>
  <property name="kdenlive:proxy">/home/xiaoxiae/.cache/kdenlive/proxy/7c0815615bc2ca76543906f9d81fafd8.mkv</property>
  <property name="kdenlive:originalurl">video/ILP/1.mp4</property>
  <property name="kdenlive:original.mlt_type">chain</property>
  <property name="kdenlive:original.in">0</property>
  <property name="kdenlive:original.out">00:00:00.983</property>
  <property name="kdenlive:original.length">60</property>
  <property name="kdenlive:original.eof">pause</property>
  <property name="kdenlive:original.resource">video/ILP/1.mp4</property>
  <property name="kdenlive:original.mlt_service">avformat-novalidate</property>
  <property name="kdenlive:original.meta.media.nb_streams">1</property>
  <property name="kdenlive:original.meta.media.0.stream.type">video</property>
  <property name="kdenlive:original.meta.media.0.stream.frame_rate">60</property>
  <property name="kdenlive:original.meta.media.0.stream.sample_aspect_ratio">0</property>
  <property name="kdenlive:original.meta.media.0.codec.width">1920</property>
  <property name="kdenlive:original.meta.media.0.codec.height">1080</property>
  <property name="kdenlive:original.meta.media.0.codec.rotate">0</property>
  <property name="kdenlive:original.meta.media.0.codec.pix_fmt">yuv420p</property>
  <property name="kdenlive:original.meta.media.0.codec.sample_aspect_ratio">0</property>
  <property name="kdenlive:original.meta.media.0.codec.colorspace">709</property>
  <property name="kdenlive:original.meta.media.0.codec.name">h264</property>
  <property name="kdenlive:original.meta.media.0.codec.long_name">H.264 / AVC / MPEG-4 AVC / MPEG-4 part 10</property>
  <property name="kdenlive:original.meta.media.0.codec.bit_rate">362840</property>
  <property name="kdenlive:original.meta.attr.0.stream.handler_name.markup">VideoHandler</property>
  <property name="kdenlive:original.meta.attr.0.stream.vendor_id.markup">[0][0][0][0]</property>
  <property name="kdenlive:original.meta.attr.0.stream.encoder.markup">Lavc60.3.100 libx264</property>
  <property name="kdenlive:original.meta.attr.major_brand.markup">isom</property>
  <property name="kdenlive:original.meta.attr.minor_version.markup">512</property>
  <property name="kdenlive:original.meta.attr.compatible_brands.markup">isomiso2avc1mp41</property>
  <property name="kdenlive:original.meta.attr.encoder.markup">Lavf60.3.100</property>
  <property name="kdenlive:original.meta.attr.comment.markup">Rendered with Manim Community v0.17.3</property>
  <property name="kdenlive:original.seekable">1</property>
  <property name="kdenlive:original.width">1920</property>
  <property name="kdenlive:original.height">1080</property>
  <property name="kdenlive:original.meta.media.sample_aspect_num">1</property>
  <property name="kdenlive:original.meta.media.sample_aspect_den">1</property>
  <property name="kdenlive:original.format">3</property>
  <property name="kdenlive:original.audio_index">-1</property>
  <property name="kdenlive:original.video_index">0</property>
  <property name="kdenlive:original.meta.media.frame_rate_num">60</property>
  <property name="kdenlive:original.meta.media.frame_rate_den">1</property>
  <property name="kdenlive:original.meta.media.colorspace">709</property>
  <property name="kdenlive:original.meta.media.color_trc">2</property>
  <property name="kdenlive:original.meta.media.has_b_frames">2</property>
  <property name="kdenlive:original.meta.media.width">1920</property>
  <property name="kdenlive:original.meta.media.height">1080</property>
  <property name="kdenlive:original.meta.media.color_range">mpeg</property>
  <property name="kdenlive:original.meta.media.top_field_first">0</property>
  <property name="kdenlive:original.meta.media.progressive">1</property>
  <property name="kdenlive:original.kdenlive:clip_type">2</property>
  <property name="kdenlive:original.kdenlive:folderid">188</property>
  <property name="kdenlive:original.kdenlive:id">189</property>
  <property name="kdenlive:original.mute_on_pause">0</property>
  <property name="kdenlive:original.kdenlive:file_size">46947</property>
  <property name="kdenlive:original.kdenlive:file_hash">7c0815615bc2ca76543906f9d81fafd8</property>
  <property name="kdenlive:original.backup">1</property>
  <property name="meta.media.top_field_first">0</property>
  <property name="meta.media.progressive">1</property>
 </chain>
 <chain id="chain150" out="00:00:00.983">
  <property name="length">60</property>
  <property name="eof">pause</property>
  <property name="resource">/home/xiaoxiae/.cache/kdenlive/proxy/e9eab19c84bbd3cefa3f27321e92a41e.mkv</property>
  <property name="mlt_service">avformat-novalidate</property>
  <property name="meta.media.nb_streams">1</property>
  <property name="meta.media.0.stream.type">video</property>
  <property name="meta.media.0.stream.frame_rate">60</property>
  <property name="meta.media.0.stream.sample_aspect_ratio">0</property>
  <property name="meta.media.0.codec.width">640</property>
  <property name="meta.media.0.codec.height">360</property>
  <property name="meta.media.0.codec.rotate">0</property>
  <property name="meta.media.0.codec.pix_fmt">yuvj420p</property>
  <property name="meta.media.0.codec.sample_aspect_ratio">0</property>
  <property name="meta.media.0.codec.colorspace">601</property>
  <property name="meta.media.0.codec.name">mjpeg</property>
  <property name="meta.media.0.codec.long_name">MJPEG (Motion JPEG)</property>
  <property name="meta.media.0.codec.bit_rate">0</property>
  <property name="meta.attr.0.stream.HANDLER_NAME.markup">VideoHandler</property>
  <property name="meta.attr.0.stream.VENDOR_ID.markup">[0][0][0][0]</property>
  <property name="meta.attr.0.stream.ENCODER.markup">Lavc60.3.100 mjpeg</property>
  <property name="meta.attr.0.stream.DURATION.markup">00:00:01.000000000</property>
  <property name="meta.attr.COMMENT.markup">Rendered with Manim Community v0.17.3</property>
  <property name="meta.attr.MAJOR_BRAND.markup">isom</property>
  <property name="meta.attr.MINOR_VERSION.markup">512</property>
  <property name="meta.attr.COMPATIBLE_BRANDS.markup">isomiso2avc1mp41</property>
  <property name="meta.attr.ENCODER.markup">Lavf60.3.100</property>
  <property name="seekable">1</property>
  <property name="meta.media.sample_aspect_num">1</property>
  <property name="meta.media.sample_aspect_den">1</property>
  <property name="format">3</property>
  <property name="audio_index">-1</property>
  <property name="video_index">0</property>
  <property name="meta.media.frame_rate_num">60</property>
  <property name="meta.media.frame_rate_den">1</property>
  <property name="meta.media.colorspace">601</property>
  <property name="meta.media.color_trc">2</property>
  <property name="meta.media.has_b_frames">0</property>
  <property name="meta.media.width">640</property>
  <property name="meta.media.height">360</property>
  <property name="meta.media.color_range">full</property>
  <property name="kdenlive:clipname">2.mp4</property>
  <property name="kdenlive:clip_type">2</property>
  <property name="kdenlive:folderid">188</property>
  <property name="kdenlive:id">190</property>
  <property name="mute_on_pause">0</property>
  <property name="kdenlive:file_size">108959</property>
  <property name="kdenlive:file_hash">e9eab19c84bbd3cefa3f27321e92a41e</property>
  <property name="kdenlive:proxy">/home/xiaoxiae/.cache/kdenlive/proxy/e9eab19c84bbd3cefa3f27321e92a41e.mkv</property>
  <property name="kdenlive:originalurl">video/ILP/2.mp4</property>
  <property name="kdenlive:original.mlt_type">chain</property>
  <property name="kdenlive:original.in">0</property>
  <property name="kdenlive:original.out">00:00:00.983</property>
  <property name="kdenlive:original.length">60</property>
  <property name="kdenlive:original.eof">pause</property>
  <property name="kdenlive:original.resource">video/ILP/2.mp4</property>
  <property name="kdenlive:original.mlt_service">avformat-novalidate</property>
  <property name="kdenlive:original.meta.media.nb_streams">1</property>
  <property name="kdenlive:original.meta.media.0.stream.type">video</property>
  <property name="kdenlive:original.meta.media.0.stream.frame_rate">60</property>
  <property name="kdenlive:original.meta.media.0.stream.sample_aspect_ratio">0</property>
  <property name="kdenlive:original.meta.media.0.codec.width">1920</property>
  <property name="kdenlive:original.meta.media.0.codec.height">1080</property>
  <property name="kdenlive:original.meta.media.0.codec.rotate">0</property>
  <property name="kdenlive:original.meta.media.0.codec.pix_fmt">yuv420p</property>
  <property name="kdenlive:original.meta.media.0.codec.sample_aspect_ratio">0</property>
  <property name="kdenlive:original.meta.media.0.codec.colorspace">709</property>
  <property name="kdenlive:original.meta.media.0.codec.name">h264</property>
  <property name="kdenlive:original.meta.media.0.codec.long_name">H.264 / AVC / MPEG-4 AVC / MPEG-4 part 10</property>
  <property name="kdenlive:original.meta.media.0.codec.bit_rate">859448</property>
  <property name="kdenlive:original.meta.attr.0.stream.handler_name.markup">VideoHandler</property>
  <property name="kdenlive:original.meta.attr.0.stream.vendor_id.markup">[0][0][0][0]</property>
  <property name="kdenlive:original.meta.attr.0.stream.encoder.markup">Lavc60.3.100 libx264</property>
  <property name="kdenlive:original.meta.attr.major_brand.markup">isom</property>
  <property name="kdenlive:original.meta.attr.minor_version.markup">512</property>
  <property name="kdenlive:original.meta.attr.compatible_brands.markup">isomiso2avc1mp41</property>
  <property name="kdenlive:original.meta.attr.encoder.markup">Lavf60.3.100</property>
  <property name="kdenlive:original.meta.attr.comment.markup">Rendered with Manim Community v0.17.3</property>
  <property name="kdenlive:original.seekable">1</property>
  <property name="kdenlive:original.width">1920</property>
  <property name="kdenlive:original.height">1080</property>
  <property name="kdenlive:original.meta.media.sample_aspect_num">1</property>
  <property name="kdenlive:original.meta.media.sample_aspect_den">1</property>
  <property name="kdenlive:original.format">3</property>
  <property name="kdenlive:original.audio_index">-1</property>
  <property name="kdenlive:original.video_index">0</property>
  <property name="kdenlive:original.meta.media.frame_rate_num">60</property>
  <property name="kdenlive:original.meta.media.frame_rate_den">1</property>
  <property name="kdenlive:original.meta.media.colorspace">709</property>
  <property name="kdenlive:original.meta.media.color_trc">2</property>
  <property name="kdenlive:original.meta.media.has_b_frames">2</property>
  <property name="kdenlive:original.meta.media.width">1920</property>
  <property name="kdenlive:original.meta.media.height">1080</property>
  <property name="kdenlive:original.meta.media.color_range">mpeg</property>
  <property name="kdenlive:original.meta.media.top_field_first">0</property>
  <property name="kdenlive:original.meta.media.progressive">1</property>
  <property name="kdenlive:original.kdenlive:clip_type">2</property>
  <property name="kdenlive:original.kdenlive:folderid">188</property>
  <property name="kdenlive:original.kdenlive:id">190</property>
  <property name="kdenlive:original.mute_on_pause">0</property>
  <property name="kdenlive:original.kdenlive:file_size">108959</property>
  <property name="kdenlive:original.kdenlive:file_hash">e9eab19c84bbd3cefa3f27321e92a41e</property>
  <property name="kdenlive:original.backup">1</property>
  <property name="meta.media.top_field_first">0</property>
  <property name="meta.media.progressive">1</property>
 </chain>
 <chain id="chain147" out="00:00:02.383">
  <property name="length">144</property>
  <property name="eof">pause</property>
  <property name="resource">/home/xiaoxiae/.cache/kdenlive/proxy/da6ed84176b41c8e61f19e2b44002bfc.mkv</property>
  <property name="mlt_service">avformat-novalidate</property>
  <property name="meta.media.nb_streams">1</property>
  <property name="meta.media.0.stream.type">video</property>
  <property name="meta.media.0.stream.frame_rate">60</property>
  <property name="meta.media.0.stream.sample_aspect_ratio">0</property>
  <property name="meta.media.0.codec.width">640</property>
  <property name="meta.media.0.codec.height">360</property>
  <property name="meta.media.0.codec.rotate">0</property>
  <property name="meta.media.0.codec.pix_fmt">yuvj420p</property>
  <property name="meta.media.0.codec.sample_aspect_ratio">0</property>
  <property name="meta.media.0.codec.colorspace">601</property>
  <property name="meta.media.0.codec.name">mjpeg</property>
  <property name="meta.media.0.codec.long_name">MJPEG (Motion JPEG)</property>
  <property name="meta.media.0.codec.bit_rate">0</property>
  <property name="meta.attr.0.stream.HANDLER_NAME.markup">VideoHandler</property>
  <property name="meta.attr.0.stream.VENDOR_ID.markup">[0][0][0][0]</property>
  <property name="meta.attr.0.stream.ENCODER.markup">Lavc60.3.100 mjpeg</property>
  <property name="meta.attr.0.stream.DURATION.markup">00:00:02.400000000</property>
  <property name="meta.attr.COMMENT.markup">Rendered with Manim Community v0.17.3</property>
  <property name="meta.attr.MAJOR_BRAND.markup">isom</property>
  <property name="meta.attr.MINOR_VERSION.markup">512</property>
  <property name="meta.attr.COMPATIBLE_BRANDS.markup">isomiso2avc1mp41</property>
  <property name="meta.attr.ENCODER.markup">Lavf60.3.100</property>
  <property name="seekable">1</property>
  <property name="meta.media.sample_aspect_num">1</property>
  <property name="meta.media.sample_aspect_den">1</property>
  <property name="format">3</property>
  <property name="audio_index">-1</property>
  <property name="video_index">0</property>
  <property name="meta.media.frame_rate_num">60</property>
  <property name="meta.media.frame_rate_den">1</property>
  <property name="meta.media.colorspace">601</property>
  <property name="meta.media.color_trc">2</property>
  <property name="meta.media.has_b_frames">0</property>
  <property name="meta.media.width">640</property>
  <property name="meta.media.height">360</property>
  <property name="meta.media.color_range">full</property>
  <property name="kdenlive:clipname">3.mp4</property>
  <property name="kdenlive:clip_type">2</property>
  <property name="kdenlive:folderid">188</property>
  <property name="kdenlive:id">191</property>
  <property name="mute_on_pause">0</property>
  <property name="kdenlive:file_size">134546</property>
  <property name="kdenlive:file_hash">da6ed84176b41c8e61f19e2b44002bfc</property>
  <property name="kdenlive:proxy">/home/xiaoxiae/.cache/kdenlive/proxy/da6ed84176b41c8e61f19e2b44002bfc.mkv</property>
  <property name="kdenlive:originalurl">video/ILP/3.mp4</property>
  <property name="kdenlive:original.mlt_type">chain</property>
  <property name="kdenlive:original.in">0</property>
  <property name="kdenlive:original.out">00:00:02.383</property>
  <property name="kdenlive:original.length">144</property>
  <property name="kdenlive:original.eof">pause</property>
  <property name="kdenlive:original.resource">video/ILP/3.mp4</property>
  <property name="kdenlive:original.mlt_service">avformat-novalidate</property>
  <property name="kdenlive:original.meta.media.nb_streams">1</property>
  <property name="kdenlive:original.meta.media.0.stream.type">video</property>
  <property name="kdenlive:original.meta.media.0.stream.frame_rate">60</property>
  <property name="kdenlive:original.meta.media.0.stream.sample_aspect_ratio">0</property>
  <property name="kdenlive:original.meta.media.0.codec.width">1920</property>
  <property name="kdenlive:original.meta.media.0.codec.height">1080</property>
  <property name="kdenlive:original.meta.media.0.codec.rotate">0</property>
  <property name="kdenlive:original.meta.media.0.codec.pix_fmt">yuv420p</property>
  <property name="kdenlive:original.meta.media.0.codec.sample_aspect_ratio">0</property>
  <property name="kdenlive:original.meta.media.0.codec.colorspace">709</property>
  <property name="kdenlive:original.meta.media.0.codec.name">h264</property>
  <property name="kdenlive:original.meta.media.0.codec.long_name">H.264 / AVC / MPEG-4 AVC / MPEG-4 part 10</property>
  <property name="kdenlive:original.meta.media.0.codec.bit_rate">439793</property>
  <property name="kdenlive:original.meta.attr.0.stream.handler_name.markup">VideoHandler</property>
  <property name="kdenlive:original.meta.attr.0.stream.vendor_id.markup">[0][0][0][0]</property>
  <property name="kdenlive:original.meta.attr.0.stream.encoder.markup">Lavc60.3.100 libx264</property>
  <property name="kdenlive:original.meta.attr.major_brand.markup">isom</property>
  <property name="kdenlive:original.meta.attr.minor_version.markup">512</property>
  <property name="kdenlive:original.meta.attr.compatible_brands.markup">isomiso2avc1mp41</property>
  <property name="kdenlive:original.meta.attr.encoder.markup">Lavf60.3.100</property>
  <property name="kdenlive:original.meta.attr.comment.markup">Rendered with Manim Community v0.17.3</property>
  <property name="kdenlive:original.seekable">1</property>
  <property name="kdenlive:original.width">1920</property>
  <property name="kdenlive:original.height">1080</property>
  <property name="kdenlive:original.meta.media.sample_aspect_num">1</property>
  <property name="kdenlive:original.meta.media.sample_aspect_den">1</property>
  <property name="kdenlive:original.format">3</property>
  <property name="kdenlive:original.audio_index">-1</property>
  <property name="kdenlive:original.video_index">0</property>
  <property name="kdenlive:original.meta.media.frame_rate_num">60</property>
  <property name="kdenlive:original.meta.media.frame_rate_den">1</property>
  <property name="kdenlive:original.meta.media.colorspace">709</property>
  <property name="kdenlive:original.meta.media.color_trc">2</property>
  <property name="kdenlive:original.meta.media.has_b_frames">2</property>
  <property name="kdenlive:original.meta.media.width">1920</property>
  <property name="kdenlive:original.meta.media.height">1080</property>
  <property name="kdenlive:original.meta.media.color_range">mpeg</property>
  <property name="kdenlive:original.meta.media.top_field_first">0</property>
  <property name="kdenlive:original.meta.media.progressive">1</property>
  <property name="kdenlive:original.kdenlive:clip_type">2</property>
  <property name="kdenlive:original.kdenlive:folderid">188</property>
  <property name="kdenlive:original.kdenlive:id">191</property>
  <property name="kdenlive:original.mute_on_pause">0</property>
  <property name="kdenlive:original.kdenlive:file_size">134546</property>
  <property name="kdenlive:original.kdenlive:file_hash">da6ed84176b41c8e61f19e2b44002bfc</property>
  <property name="kdenlive:original.backup">1</property>
  <property name="meta.media.top_field_first">0</property>
  <property name="meta.media.progressive">1</property>
 </chain>
 <chain id="chain145" out="00:00:01.483">
  <property name="length">90</property>
  <property name="eof">pause</property>
  <property name="resource">/home/xiaoxiae/.cache/kdenlive/proxy/77e8e176133ea1356df36957172f8c4f.mkv</property>
  <property name="mlt_service">avformat-novalidate</property>
  <property name="meta.media.nb_streams">1</property>
  <property name="meta.media.0.stream.type">video</property>
  <property name="meta.media.0.stream.frame_rate">60</property>
  <property name="meta.media.0.stream.sample_aspect_ratio">0</property>
  <property name="meta.media.0.codec.width">640</property>
  <property name="meta.media.0.codec.height">360</property>
  <property name="meta.media.0.codec.rotate">0</property>
  <property name="meta.media.0.codec.pix_fmt">yuvj420p</property>
  <property name="meta.media.0.codec.sample_aspect_ratio">0</property>
  <property name="meta.media.0.codec.colorspace">601</property>
  <property name="meta.media.0.codec.name">mjpeg</property>
  <property name="meta.media.0.codec.long_name">MJPEG (Motion JPEG)</property>
  <property name="meta.media.0.codec.bit_rate">0</property>
  <property name="meta.attr.0.stream.HANDLER_NAME.markup">VideoHandler</property>
  <property name="meta.attr.0.stream.VENDOR_ID.markup">[0][0][0][0]</property>
  <property name="meta.attr.0.stream.ENCODER.markup">Lavc60.3.100 mjpeg</property>
  <property name="meta.attr.0.stream.DURATION.markup">00:00:01.500000000</property>
  <property name="meta.attr.COMMENT.markup">Rendered with Manim Community v0.17.3</property>
  <property name="meta.attr.MAJOR_BRAND.markup">isom</property>
  <property name="meta.attr.MINOR_VERSION.markup">512</property>
  <property name="meta.attr.COMPATIBLE_BRANDS.markup">isomiso2avc1mp41</property>
  <property name="meta.attr.ENCODER.markup">Lavf60.3.100</property>
  <property name="seekable">1</property>
  <property name="meta.media.sample_aspect_num">1</property>
  <property name="meta.media.sample_aspect_den">1</property>
  <property name="format">3</property>
  <property name="audio_index">-1</property>
  <property name="video_index">0</property>
  <property name="meta.media.frame_rate_num">60</property>
  <property name="meta.media.frame_rate_den">1</property>
  <property name="meta.media.colorspace">601</property>
  <property name="meta.media.color_trc">2</property>
  <property name="meta.media.has_b_frames">0</property>
  <property name="meta.media.width">640</property>
  <property name="meta.media.height">360</property>
  <property name="meta.media.color_range">full</property>
  <property name="kdenlive:clipname">4.mp4</property>
  <property name="kdenlive:clip_type">2</property>
  <property name="kdenlive:folderid">188</property>
  <property name="kdenlive:id">192</property>
  <property name="mute_on_pause">0</property>
  <property name="kdenlive:file_size">125253</property>
  <property name="kdenlive:file_hash">77e8e176133ea1356df36957172f8c4f</property>
  <property name="kdenlive:proxy">/home/xiaoxiae/.cache/kdenlive/proxy/77e8e176133ea1356df36957172f8c4f.mkv</property>
  <property name="kdenlive:originalurl">video/ILP/4.mp4</property>
  <property name="kdenlive:original.mlt_type">chain</property>
  <property name="kdenlive:original.in">0</property>
  <property name="kdenlive:original.out">00:00:01.483</property>
  <property name="kdenlive:original.length">90</property>
  <property name="kdenlive:original.eof">pause</property>
  <property name="kdenlive:original.resource">video/ILP/4.mp4</property>
  <property name="kdenlive:original.mlt_service">avformat-novalidate</property>
  <property name="kdenlive:original.meta.media.nb_streams">1</property>
  <property name="kdenlive:original.meta.media.0.stream.type">video</property>
  <property name="kdenlive:original.meta.media.0.stream.frame_rate">60</property>
  <property name="kdenlive:original.meta.media.0.stream.sample_aspect_ratio">0</property>
  <property name="kdenlive:original.meta.media.0.codec.width">1920</property>
  <property name="kdenlive:original.meta.media.0.codec.height">1080</property>
  <property name="kdenlive:original.meta.media.0.codec.rotate">0</property>
  <property name="kdenlive:original.meta.media.0.codec.pix_fmt">yuv420p</property>
  <property name="kdenlive:original.meta.media.0.codec.sample_aspect_ratio">0</property>
  <property name="kdenlive:original.meta.media.0.codec.colorspace">709</property>
  <property name="kdenlive:original.meta.media.0.codec.name">h264</property>
  <property name="kdenlive:original.meta.media.0.codec.long_name">H.264 / AVC / MPEG-4 AVC / MPEG-4 part 10</property>
  <property name="kdenlive:original.meta.media.0.codec.bit_rate">657776</property>
  <property name="kdenlive:original.meta.attr.0.stream.handler_name.markup">VideoHandler</property>
  <property name="kdenlive:original.meta.attr.0.stream.vendor_id.markup">[0][0][0][0]</property>
  <property name="kdenlive:original.meta.attr.0.stream.encoder.markup">Lavc60.3.100 libx264</property>
  <property name="kdenlive:original.meta.attr.major_brand.markup">isom</property>
  <property name="kdenlive:original.meta.attr.minor_version.markup">512</property>
  <property name="kdenlive:original.meta.attr.compatible_brands.markup">isomiso2avc1mp41</property>
  <property name="kdenlive:original.meta.attr.encoder.markup">Lavf60.3.100</property>
  <property name="kdenlive:original.meta.attr.comment.markup">Rendered with Manim Community v0.17.3</property>
  <property name="kdenlive:original.seekable">1</property>
  <property name="kdenlive:original.width">1920</property>
  <property name="kdenlive:original.height">1080</property>
  <property name="kdenlive:original.meta.media.sample_aspect_num">1</property>
  <property name="kdenlive:original.meta.media.sample_aspect_den">1</property>
  <property name="kdenlive:original.format">3</property>
  <property name="kdenlive:original.audio_index">-1</property>
  <property name="kdenlive:original.video_index">0</property>
  <property name="kdenlive:original.meta.media.frame_rate_num">60</property>
  <property name="kdenlive:original.meta.media.frame_rate_den">1</property>
  <property name="kdenlive:original.meta.media.colorspace">709</property>
  <property name="kdenlive:original.meta.media.color_trc">2</property>
  <property name="kdenlive:original.meta.media.has_b_frames">2</property>
  <property name="kdenlive:original.meta.media.width">1920</property>
  <property name="kdenlive:original.meta.media.height">1080</property>
  <property name="kdenlive:original.meta.media.color_range">mpeg</property>
  <property name="kdenlive:original.meta.media.top_field_first">0</property>
  <property name="kdenlive:original.meta.media.progressive">1</property>
  <property name="kdenlive:original.kdenlive:clip_type">2</property>
  <property name="kdenlive:original.kdenlive:folderid">188</property>
  <property name="kdenlive:original.kdenlive:id">192</property>
  <property name="kdenlive:original.mute_on_pause">0</property>
  <property name="kdenlive:original.kdenlive:file_size">125253</property>
  <property name="kdenlive:original.kdenlive:file_hash">77e8e176133ea1356df36957172f8c4f</property>
  <property name="kdenlive:original.backup">1</property>
  <property name="meta.media.top_field_first">0</property>
  <property name="meta.media.progressive">1</property>
 </chain>
 <chain id="chain143" out="00:00:01.483">
  <property name="length">90</property>
  <property name="eof">pause</property>
  <property name="resource">/home/xiaoxiae/.cache/kdenlive/proxy/06025f9b25e0bdf4e068130f91c13ab7.mkv</property>
  <property name="mlt_service">avformat-novalidate</property>
  <property name="meta.media.nb_streams">1</property>
  <property name="meta.media.0.stream.type">video</property>
  <property name="meta.media.0.stream.frame_rate">60</property>
  <property name="meta.media.0.stream.sample_aspect_ratio">0</property>
  <property name="meta.media.0.codec.width">640</property>
  <property name="meta.media.0.codec.height">360</property>
  <property name="meta.media.0.codec.rotate">0</property>
  <property name="meta.media.0.codec.pix_fmt">yuvj420p</property>
  <property name="meta.media.0.codec.sample_aspect_ratio">0</property>
  <property name="meta.media.0.codec.colorspace">601</property>
  <property name="meta.media.0.codec.name">mjpeg</property>
  <property name="meta.media.0.codec.long_name">MJPEG (Motion JPEG)</property>
  <property name="meta.media.0.codec.bit_rate">0</property>
  <property name="meta.attr.0.stream.HANDLER_NAME.markup">VideoHandler</property>
  <property name="meta.attr.0.stream.VENDOR_ID.markup">[0][0][0][0]</property>
  <property name="meta.attr.0.stream.ENCODER.markup">Lavc60.3.100 mjpeg</property>
  <property name="meta.attr.0.stream.DURATION.markup">00:00:01.500000000</property>
  <property name="meta.attr.COMMENT.markup">Rendered with Manim Community v0.17.3</property>
  <property name="meta.attr.MAJOR_BRAND.markup">isom</property>
  <property name="meta.attr.MINOR_VERSION.markup">512</property>
  <property name="meta.attr.COMPATIBLE_BRANDS.markup">isomiso2avc1mp41</property>
  <property name="meta.attr.ENCODER.markup">Lavf60.3.100</property>
  <property name="seekable">1</property>
  <property name="meta.media.sample_aspect_num">1</property>
  <property name="meta.media.sample_aspect_den">1</property>
  <property name="format">3</property>
  <property name="audio_index">-1</property>
  <property name="video_index">0</property>
  <property name="meta.media.frame_rate_num">60</property>
  <property name="meta.media.frame_rate_den">1</property>
  <property name="meta.media.colorspace">601</property>
  <property name="meta.media.color_trc">2</property>
  <property name="meta.media.has_b_frames">0</property>
  <property name="meta.media.width">640</property>
  <property name="meta.media.height">360</property>
  <property name="meta.media.color_range">full</property>
  <property name="kdenlive:clipname">5.mp4</property>
  <property name="kdenlive:clip_type">2</property>
  <property name="kdenlive:folderid">188</property>
  <property name="kdenlive:id">193</property>
  <property name="mute_on_pause">0</property>
  <property name="kdenlive:file_size">68144</property>
  <property name="kdenlive:file_hash">06025f9b25e0bdf4e068130f91c13ab7</property>
  <property name="kdenlive:proxy">/home/xiaoxiae/.cache/kdenlive/proxy/06025f9b25e0bdf4e068130f91c13ab7.mkv</property>
  <property name="kdenlive:originalurl">video/ILP/5.mp4</property>
  <property name="kdenlive:original.mlt_type">chain</property>
  <property name="kdenlive:original.in">0</property>
  <property name="kdenlive:original.out">00:00:01.483</property>
  <property name="kdenlive:original.length">90</property>
  <property name="kdenlive:original.eof">pause</property>
  <property name="kdenlive:original.resource">video/ILP/5.mp4</property>
  <property name="kdenlive:original.mlt_service">avformat-novalidate</property>
  <property name="kdenlive:original.meta.media.nb_streams">1</property>
  <property name="kdenlive:original.meta.media.0.stream.type">video</property>
  <property name="kdenlive:original.meta.media.0.stream.frame_rate">60</property>
  <property name="kdenlive:original.meta.media.0.stream.sample_aspect_ratio">0</property>
  <property name="kdenlive:original.meta.media.0.codec.width">1920</property>
  <property name="kdenlive:original.meta.media.0.codec.height">1080</property>
  <property name="kdenlive:original.meta.media.0.codec.rotate">0</property>
  <property name="kdenlive:original.meta.media.0.codec.pix_fmt">yuv420p</property>
  <property name="kdenlive:original.meta.media.0.codec.sample_aspect_ratio">0</property>
  <property name="kdenlive:original.meta.media.0.codec.colorspace">709</property>
  <property name="kdenlive:original.meta.media.0.codec.name">h264</property>
  <property name="kdenlive:original.meta.media.0.codec.long_name">H.264 / AVC / MPEG-4 AVC / MPEG-4 part 10</property>
  <property name="kdenlive:original.meta.media.0.codec.bit_rate">352810</property>
  <property name="kdenlive:original.meta.attr.0.stream.handler_name.markup">VideoHandler</property>
  <property name="kdenlive:original.meta.attr.0.stream.vendor_id.markup">[0][0][0][0]</property>
  <property name="kdenlive:original.meta.attr.0.stream.encoder.markup">Lavc60.3.100 libx264</property>
  <property name="kdenlive:original.meta.attr.major_brand.markup">isom</property>
  <property name="kdenlive:original.meta.attr.minor_version.markup">512</property>
  <property name="kdenlive:original.meta.attr.compatible_brands.markup">isomiso2avc1mp41</property>
  <property name="kdenlive:original.meta.attr.encoder.markup">Lavf60.3.100</property>
  <property name="kdenlive:original.meta.attr.comment.markup">Rendered with Manim Community v0.17.3</property>
  <property name="kdenlive:original.seekable">1</property>
  <property name="kdenlive:original.width">1920</property>
  <property name="kdenlive:original.height">1080</property>
  <property name="kdenlive:original.meta.media.sample_aspect_num">1</property>
  <property name="kdenlive:original.meta.media.sample_aspect_den">1</property>
  <property name="kdenlive:original.format">3</property>
  <property name="kdenlive:original.audio_index">-1</property>
  <property name="kdenlive:original.video_index">0</property>
  <property name="kdenlive:original.meta.media.frame_rate_num">60</property>
  <property name="kdenlive:original.meta.media.frame_rate_den">1</property>
  <property name="kdenlive:original.meta.media.colorspace">709</property>
  <property name="kdenlive:original.meta.media.color_trc">2</property>
  <property name="kdenlive:original.meta.media.has_b_frames">2</property>
  <property name="kdenlive:original.meta.media.width">1920</property>
  <property name="kdenlive:original.meta.media.height">1080</property>
  <property name="kdenlive:original.meta.media.color_range">mpeg</property>
  <property name="kdenlive:original.meta.media.top_field_first">0</property>
  <property name="kdenlive:original.meta.media.progressive">1</property>
  <property name="kdenlive:original.kdenlive:clip_type">2</property>
  <property name="kdenlive:original.kdenlive:folderid">188</property>
  <property name="kdenlive:original.kdenlive:id">193</property>
  <property name="kdenlive:original.mute_on_pause">0</property>
  <property name="kdenlive:original.kdenlive:file_size">68144</property>
  <property name="kdenlive:original.kdenlive:file_hash">06025f9b25e0bdf4e068130f91c13ab7</property>
  <property name="kdenlive:original.backup">1</property>
  <property name="meta.media.top_field_first">0</property>
  <property name="meta.media.progressive">1</property>
 </chain>
 <chain id="chain142" out="00:00:01.483">
  <property name="length">90</property>
  <property name="eof">pause</property>
  <property name="resource">/home/xiaoxiae/.cache/kdenlive/proxy/22d8d6ba38a66458fbd888401f270115.mkv</property>
  <property name="mlt_service">avformat-novalidate</property>
  <property name="meta.media.nb_streams">1</property>
  <property name="meta.media.0.stream.type">video</property>
  <property name="meta.media.0.stream.frame_rate">60</property>
  <property name="meta.media.0.stream.sample_aspect_ratio">0</property>
  <property name="meta.media.0.codec.width">640</property>
  <property name="meta.media.0.codec.height">360</property>
  <property name="meta.media.0.codec.rotate">0</property>
  <property name="meta.media.0.codec.pix_fmt">yuvj420p</property>
  <property name="meta.media.0.codec.sample_aspect_ratio">0</property>
  <property name="meta.media.0.codec.colorspace">601</property>
  <property name="meta.media.0.codec.name">mjpeg</property>
  <property name="meta.media.0.codec.long_name">MJPEG (Motion JPEG)</property>
  <property name="meta.media.0.codec.bit_rate">0</property>
  <property name="meta.attr.0.stream.HANDLER_NAME.markup">VideoHandler</property>
  <property name="meta.attr.0.stream.VENDOR_ID.markup">[0][0][0][0]</property>
  <property name="meta.attr.0.stream.ENCODER.markup">Lavc60.3.100 mjpeg</property>
  <property name="meta.attr.0.stream.DURATION.markup">00:00:01.500000000</property>
  <property name="meta.attr.COMMENT.markup">Rendered with Manim Community v0.17.3</property>
  <property name="meta.attr.MAJOR_BRAND.markup">isom</property>
  <property name="meta.attr.MINOR_VERSION.markup">512</property>
  <property name="meta.attr.COMPATIBLE_BRANDS.markup">isomiso2avc1mp41</property>
  <property name="meta.attr.ENCODER.markup">Lavf60.3.100</property>
  <property name="seekable">1</property>
  <property name="meta.media.sample_aspect_num">1</property>
  <property name="meta.media.sample_aspect_den">1</property>
  <property name="format">3</property>
  <property name="audio_index">-1</property>
  <property name="video_index">0</property>
  <property name="meta.media.frame_rate_num">60</property>
  <property name="meta.media.frame_rate_den">1</property>
  <property name="meta.media.colorspace">601</property>
  <property name="meta.media.color_trc">2</property>
  <property name="meta.media.has_b_frames">0</property>
  <property name="meta.media.width">640</property>
  <property name="meta.media.height">360</property>
  <property name="meta.media.color_range">full</property>
  <property name="kdenlive:clipname">6.mp4</property>
  <property name="kdenlive:clip_type">2</property>
  <property name="kdenlive:folderid">188</property>
  <property name="kdenlive:id">194</property>
  <property name="mute_on_pause">0</property>
  <property name="kdenlive:file_size">75792</property>
  <property name="kdenlive:file_hash">22d8d6ba38a66458fbd888401f270115</property>
  <property name="kdenlive:proxy">/home/xiaoxiae/.cache/kdenlive/proxy/22d8d6ba38a66458fbd888401f270115.mkv</property>
  <property name="kdenlive:originalurl">video/ILP/6.mp4</property>
  <property name="kdenlive:original.mlt_type">chain</property>
  <property name="kdenlive:original.in">0</property>
  <property name="kdenlive:original.out">00:00:01.483</property>
  <property name="kdenlive:original.length">90</property>
  <property name="kdenlive:original.eof">pause</property>
  <property name="kdenlive:original.resource">video/ILP/6.mp4</property>
  <property name="kdenlive:original.mlt_service">avformat-novalidate</property>
  <property name="kdenlive:original.meta.media.nb_streams">1</property>
  <property name="kdenlive:original.meta.media.0.stream.type">video</property>
  <property name="kdenlive:original.meta.media.0.stream.frame_rate">60</property>
  <property name="kdenlive:original.meta.media.0.stream.sample_aspect_ratio">0</property>
  <property name="kdenlive:original.meta.media.0.codec.width">1920</property>
  <property name="kdenlive:original.meta.media.0.codec.height">1080</property>
  <property name="kdenlive:original.meta.media.0.codec.rotate">0</property>
  <property name="kdenlive:original.meta.media.0.codec.pix_fmt">yuv420p</property>
  <property name="kdenlive:original.meta.media.0.codec.sample_aspect_ratio">0</property>
  <property name="kdenlive:original.meta.media.0.codec.colorspace">709</property>
  <property name="kdenlive:original.meta.media.0.codec.name">h264</property>
  <property name="kdenlive:original.meta.media.0.codec.long_name">H.264 / AVC / MPEG-4 AVC / MPEG-4 part 10</property>
  <property name="kdenlive:original.meta.media.0.codec.bit_rate">393600</property>
  <property name="kdenlive:original.meta.attr.0.stream.handler_name.markup">VideoHandler</property>
  <property name="kdenlive:original.meta.attr.0.stream.vendor_id.markup">[0][0][0][0]</property>
  <property name="kdenlive:original.meta.attr.0.stream.encoder.markup">Lavc60.3.100 libx264</property>
  <property name="kdenlive:original.meta.attr.major_brand.markup">isom</property>
  <property name="kdenlive:original.meta.attr.minor_version.markup">512</property>
  <property name="kdenlive:original.meta.attr.compatible_brands.markup">isomiso2avc1mp41</property>
  <property name="kdenlive:original.meta.attr.encoder.markup">Lavf60.3.100</property>
  <property name="kdenlive:original.meta.attr.comment.markup">Rendered with Manim Community v0.17.3</property>
  <property name="kdenlive:original.seekable">1</property>
  <property name="kdenlive:original.width">1920</property>
  <property name="kdenlive:original.height">1080</property>
  <property name="kdenlive:original.meta.media.sample_aspect_num">1</property>
  <property name="kdenlive:original.meta.media.sample_aspect_den">1</property>
  <property name="kdenlive:original.format">3</property>
  <property name="kdenlive:original.audio_index">-1</property>
  <property name="kdenlive:original.video_index">0</property>
  <property name="kdenlive:original.meta.media.frame_rate_num">60</property>
  <property name="kdenlive:original.meta.media.frame_rate_den">1</property>
  <property name="kdenlive:original.meta.media.colorspace">709</property>
  <property name="kdenlive:original.meta.media.color_trc">2</property>
  <property name="kdenlive:original.meta.media.has_b_frames">2</property>
  <property name="kdenlive:original.meta.media.width">1920</property>
  <property name="kdenlive:original.meta.media.height">1080</property>
  <property name="kdenlive:original.meta.media.color_range">mpeg</property>
  <property name="kdenlive:original.meta.media.top_field_first">0</property>
  <property name="kdenlive:original.meta.media.progressive">1</property>
  <property name="kdenlive:original.kdenlive:clip_type">2</property>
  <property name="kdenlive:original.kdenlive:folderid">188</property>
  <property name="kdenlive:original.kdenlive:id">194</property>
  <property name="kdenlive:original.mute_on_pause">0</property>
  <property name="kdenlive:original.kdenlive:file_size">75792</property>
  <property name="kdenlive:original.kdenlive:file_hash">22d8d6ba38a66458fbd888401f270115</property>
  <property name="kdenlive:original.backup">1</property>
  <property name="meta.media.top_field_first">0</property>
  <property name="meta.media.progressive">1</property>
 </chain>
 <chain id="chain138" out="00:00:00.983">
  <property name="length">60</property>
  <property name="eof">pause</property>
  <property name="resource">/home/xiaoxiae/.cache/kdenlive/proxy/85db8217f4b3fda48e49cc586146a19a.mkv</property>
  <property name="mlt_service">avformat-novalidate</property>
  <property name="meta.media.nb_streams">1</property>
  <property name="meta.media.0.stream.type">video</property>
  <property name="meta.media.0.stream.frame_rate">60</property>
  <property name="meta.media.0.stream.sample_aspect_ratio">0</property>
  <property name="meta.media.0.codec.width">640</property>
  <property name="meta.media.0.codec.height">360</property>
  <property name="meta.media.0.codec.rotate">0</property>
  <property name="meta.media.0.codec.pix_fmt">yuvj420p</property>
  <property name="meta.media.0.codec.sample_aspect_ratio">0</property>
  <property name="meta.media.0.codec.colorspace">601</property>
  <property name="meta.media.0.codec.name">mjpeg</property>
  <property name="meta.media.0.codec.long_name">MJPEG (Motion JPEG)</property>
  <property name="meta.media.0.codec.bit_rate">0</property>
  <property name="meta.attr.0.stream.HANDLER_NAME.markup">VideoHandler</property>
  <property name="meta.attr.0.stream.VENDOR_ID.markup">[0][0][0][0]</property>
  <property name="meta.attr.0.stream.ENCODER.markup">Lavc60.3.100 mjpeg</property>
  <property name="meta.attr.0.stream.DURATION.markup">00:00:01.000000000</property>
  <property name="meta.attr.COMMENT.markup">Rendered with Manim Community v0.17.3</property>
  <property name="meta.attr.MAJOR_BRAND.markup">isom</property>
  <property name="meta.attr.MINOR_VERSION.markup">512</property>
  <property name="meta.attr.COMPATIBLE_BRANDS.markup">isomiso2avc1mp41</property>
  <property name="meta.attr.ENCODER.markup">Lavf60.3.100</property>
  <property name="seekable">1</property>
  <property name="meta.media.sample_aspect_num">1</property>
  <property name="meta.media.sample_aspect_den">1</property>
  <property name="format">3</property>
  <property name="audio_index">-1</property>
  <property name="video_index">0</property>
  <property name="meta.media.frame_rate_num">60</property>
  <property name="meta.media.frame_rate_den">1</property>
  <property name="meta.media.colorspace">601</property>
  <property name="meta.media.color_trc">2</property>
  <property name="meta.media.has_b_frames">0</property>
  <property name="meta.media.width">640</property>
  <property name="meta.media.height">360</property>
  <property name="meta.media.color_range">full</property>
  <property name="kdenlive:clipname">7.mp4</property>
  <property name="kdenlive:clip_type">2</property>
  <property name="kdenlive:folderid">188</property>
  <property name="kdenlive:id">195</property>
  <property name="mute_on_pause">0</property>
  <property name="kdenlive:file_size">133266</property>
  <property name="kdenlive:file_hash">85db8217f4b3fda48e49cc586146a19a</property>
  <property name="kdenlive:proxy">/home/xiaoxiae/.cache/kdenlive/proxy/85db8217f4b3fda48e49cc586146a19a.mkv</property>
  <property name="kdenlive:originalurl">video/ILP/7.mp4</property>
  <property name="kdenlive:original.mlt_type">chain</property>
  <property name="kdenlive:original.in">0</property>
  <property name="kdenlive:original.out">00:00:00.983</property>
  <property name="kdenlive:original.length">60</property>
  <property name="kdenlive:original.eof">pause</property>
  <property name="kdenlive:original.resource">video/ILP/7.mp4</property>
  <property name="kdenlive:original.mlt_service">avformat-novalidate</property>
  <property name="kdenlive:original.meta.media.nb_streams">1</property>
  <property name="kdenlive:original.meta.media.0.stream.type">video</property>
  <property name="kdenlive:original.meta.media.0.stream.frame_rate">60</property>
  <property name="kdenlive:original.meta.media.0.stream.sample_aspect_ratio">0</property>
  <property name="kdenlive:original.meta.media.0.codec.width">1920</property>
  <property name="kdenlive:original.meta.media.0.codec.height">1080</property>
  <property name="kdenlive:original.meta.media.0.codec.rotate">0</property>
  <property name="kdenlive:original.meta.media.0.codec.pix_fmt">yuv420p</property>
  <property name="kdenlive:original.meta.media.0.codec.sample_aspect_ratio">0</property>
  <property name="kdenlive:original.meta.media.0.codec.colorspace">709</property>
  <property name="kdenlive:original.meta.media.0.codec.name">h264</property>
  <property name="kdenlive:original.meta.media.0.codec.long_name">H.264 / AVC / MPEG-4 AVC / MPEG-4 part 10</property>
  <property name="kdenlive:original.meta.media.0.codec.bit_rate">1053520</property>
  <property name="kdenlive:original.meta.attr.0.stream.handler_name.markup">VideoHandler</property>
  <property name="kdenlive:original.meta.attr.0.stream.vendor_id.markup">[0][0][0][0]</property>
  <property name="kdenlive:original.meta.attr.0.stream.encoder.markup">Lavc60.3.100 libx264</property>
  <property name="kdenlive:original.meta.attr.major_brand.markup">isom</property>
  <property name="kdenlive:original.meta.attr.minor_version.markup">512</property>
  <property name="kdenlive:original.meta.attr.compatible_brands.markup">isomiso2avc1mp41</property>
  <property name="kdenlive:original.meta.attr.encoder.markup">Lavf60.3.100</property>
  <property name="kdenlive:original.meta.attr.comment.markup">Rendered with Manim Community v0.17.3</property>
  <property name="kdenlive:original.seekable">1</property>
  <property name="kdenlive:original.width">1920</property>
  <property name="kdenlive:original.height">1080</property>
  <property name="kdenlive:original.meta.media.sample_aspect_num">1</property>
  <property name="kdenlive:original.meta.media.sample_aspect_den">1</property>
  <property name="kdenlive:original.format">3</property>
  <property name="kdenlive:original.audio_index">-1</property>
  <property name="kdenlive:original.video_index">0</property>
  <property name="kdenlive:original.meta.media.frame_rate_num">60</property>
  <property name="kdenlive:original.meta.media.frame_rate_den">1</property>
  <property name="kdenlive:original.meta.media.colorspace">709</property>
  <property name="kdenlive:original.meta.media.color_trc">2</property>
  <property name="kdenlive:original.meta.media.has_b_frames">2</property>
  <property name="kdenlive:original.meta.media.width">1920</property>
  <property name="kdenlive:original.meta.media.height">1080</property>
  <property name="kdenlive:original.meta.media.color_range">mpeg</property>
  <property name="kdenlive:original.meta.media.top_field_first">0</property>
  <property name="kdenlive:original.meta.media.progressive">1</property>
  <property name="kdenlive:original.kdenlive:clip_type">2</property>
  <property name="kdenlive:original.kdenlive:folderid">188</property>
  <property name="kdenlive:original.kdenlive:id">195</property>
  <property name="kdenlive:original.mute_on_pause">0</property>
  <property name="kdenlive:original.kdenlive:file_size">133266</property>
  <property name="kdenlive:original.kdenlive:file_hash">85db8217f4b3fda48e49cc586146a19a</property>
  <property name="kdenlive:original.backup">1</property>
  <property name="meta.media.top_field_first">0</property>
  <property name="meta.media.progressive">1</property>
 </chain>
 <chain id="chain139" out="00:00:01.483">
  <property name="length">90</property>
  <property name="eof">pause</property>
  <property name="resource">/home/xiaoxiae/.cache/kdenlive/proxy/6f5f333009000a1e8d5ca36be1468cf6.mkv</property>
  <property name="mlt_service">avformat-novalidate</property>
  <property name="meta.media.nb_streams">1</property>
  <property name="meta.media.0.stream.type">video</property>
  <property name="meta.media.0.stream.frame_rate">60</property>
  <property name="meta.media.0.stream.sample_aspect_ratio">0</property>
  <property name="meta.media.0.codec.width">640</property>
  <property name="meta.media.0.codec.height">360</property>
  <property name="meta.media.0.codec.rotate">0</property>
  <property name="meta.media.0.codec.pix_fmt">yuvj420p</property>
  <property name="meta.media.0.codec.sample_aspect_ratio">0</property>
  <property name="meta.media.0.codec.colorspace">601</property>
  <property name="meta.media.0.codec.name">mjpeg</property>
  <property name="meta.media.0.codec.long_name">MJPEG (Motion JPEG)</property>
  <property name="meta.media.0.codec.bit_rate">0</property>
  <property name="meta.attr.0.stream.HANDLER_NAME.markup">VideoHandler</property>
  <property name="meta.attr.0.stream.VENDOR_ID.markup">[0][0][0][0]</property>
  <property name="meta.attr.0.stream.ENCODER.markup">Lavc60.3.100 mjpeg</property>
  <property name="meta.attr.0.stream.DURATION.markup">00:00:01.500000000</property>
  <property name="meta.attr.COMMENT.markup">Rendered with Manim Community v0.17.3</property>
  <property name="meta.attr.MAJOR_BRAND.markup">isom</property>
  <property name="meta.attr.MINOR_VERSION.markup">512</property>
  <property name="meta.attr.COMPATIBLE_BRANDS.markup">isomiso2avc1mp41</property>
  <property name="meta.attr.ENCODER.markup">Lavf60.3.100</property>
  <property name="seekable">1</property>
  <property name="meta.media.sample_aspect_num">1</property>
  <property name="meta.media.sample_aspect_den">1</property>
  <property name="format">3</property>
  <property name="audio_index">-1</property>
  <property name="video_index">0</property>
  <property name="meta.media.frame_rate_num">60</property>
  <property name="meta.media.frame_rate_den">1</property>
  <property name="meta.media.colorspace">601</property>
  <property name="meta.media.color_trc">2</property>
  <property name="meta.media.has_b_frames">0</property>
  <property name="meta.media.width">640</property>
  <property name="meta.media.height">360</property>
  <property name="meta.media.color_range">full</property>
  <property name="kdenlive:clipname">1.mp4</property>
  <property name="kdenlive:clip_type">2</property>
  <property name="kdenlive:folderid">196</property>
  <property name="kdenlive:id">197</property>
  <property name="mute_on_pause">0</property>
  <property name="kdenlive:file_size">119680</property>
  <property name="kdenlive:file_hash">6f5f333009000a1e8d5ca36be1468cf6</property>
  <property name="kdenlive:proxy">/home/xiaoxiae/.cache/kdenlive/proxy/6f5f333009000a1e8d5ca36be1468cf6.mkv</property>
  <property name="kdenlive:originalurl">video/Intro/1.mp4</property>
  <property name="kdenlive:original.mlt_type">chain</property>
  <property name="kdenlive:original.in">0</property>
  <property name="kdenlive:original.out">00:00:01.483</property>
  <property name="kdenlive:original.length">90</property>
  <property name="kdenlive:original.eof">pause</property>
  <property name="kdenlive:original.resource">video/Intro/1.mp4</property>
  <property name="kdenlive:original.mlt_service">avformat-novalidate</property>
  <property name="kdenlive:original.meta.media.nb_streams">1</property>
  <property name="kdenlive:original.meta.media.0.stream.type">video</property>
  <property name="kdenlive:original.meta.media.0.stream.frame_rate">60</property>
  <property name="kdenlive:original.meta.media.0.stream.sample_aspect_ratio">0</property>
  <property name="kdenlive:original.meta.media.0.codec.width">1920</property>
  <property name="kdenlive:original.meta.media.0.codec.height">1080</property>
  <property name="kdenlive:original.meta.media.0.codec.rotate">0</property>
  <property name="kdenlive:original.meta.media.0.codec.pix_fmt">yuv420p</property>
  <property name="kdenlive:original.meta.media.0.codec.sample_aspect_ratio">0</property>
  <property name="kdenlive:original.meta.media.0.codec.colorspace">709</property>
  <property name="kdenlive:original.meta.media.0.codec.name">h264</property>
  <property name="kdenlive:original.meta.media.0.codec.long_name">H.264 / AVC / MPEG-4 AVC / MPEG-4 part 10</property>
  <property name="kdenlive:original.meta.media.0.codec.bit_rate">627712</property>
  <property name="kdenlive:original.meta.attr.0.stream.handler_name.markup">VideoHandler</property>
  <property name="kdenlive:original.meta.attr.0.stream.vendor_id.markup">[0][0][0][0]</property>
  <property name="kdenlive:original.meta.attr.0.stream.encoder.markup">Lavc60.3.100 libx264</property>
  <property name="kdenlive:original.meta.attr.major_brand.markup">isom</property>
  <property name="kdenlive:original.meta.attr.minor_version.markup">512</property>
  <property name="kdenlive:original.meta.attr.compatible_brands.markup">isomiso2avc1mp41</property>
  <property name="kdenlive:original.meta.attr.encoder.markup">Lavf60.3.100</property>
  <property name="kdenlive:original.meta.attr.comment.markup">Rendered with Manim Community v0.17.3</property>
  <property name="kdenlive:original.seekable">1</property>
  <property name="kdenlive:original.width">1920</property>
  <property name="kdenlive:original.height">1080</property>
  <property name="kdenlive:original.meta.media.sample_aspect_num">1</property>
  <property name="kdenlive:original.meta.media.sample_aspect_den">1</property>
  <property name="kdenlive:original.format">3</property>
  <property name="kdenlive:original.audio_index">-1</property>
  <property name="kdenlive:original.video_index">0</property>
  <property name="kdenlive:original.meta.media.frame_rate_num">60</property>
  <property name="kdenlive:original.meta.media.frame_rate_den">1</property>
  <property name="kdenlive:original.meta.media.colorspace">709</property>
  <property name="kdenlive:original.meta.media.color_trc">2</property>
  <property name="kdenlive:original.meta.media.has_b_frames">2</property>
  <property name="kdenlive:original.meta.media.width">1920</property>
  <property name="kdenlive:original.meta.media.height">1080</property>
  <property name="kdenlive:original.meta.media.color_range">mpeg</property>
  <property name="kdenlive:original.meta.media.top_field_first">0</property>
  <property name="kdenlive:original.meta.media.progressive">1</property>
  <property name="kdenlive:original.kdenlive:clip_type">2</property>
  <property name="kdenlive:original.kdenlive:folderid">196</property>
  <property name="kdenlive:original.kdenlive:id">197</property>
  <property name="kdenlive:original.mute_on_pause">0</property>
  <property name="kdenlive:original.kdenlive:file_size">119680</property>
  <property name="kdenlive:original.kdenlive:file_hash">6f5f333009000a1e8d5ca36be1468cf6</property>
  <property name="kdenlive:original.backup">1</property>
  <property name="meta.media.top_field_first">0</property>
  <property name="meta.media.progressive">1</property>
 </chain>
 <chain id="chain132" out="00:00:01.483">
  <property name="length">90</property>
  <property name="eof">pause</property>
  <property name="resource">/home/xiaoxiae/.cache/kdenlive/proxy/6506564afce6a5f6f4672f68f022d12c.mkv</property>
  <property name="mlt_service">avformat-novalidate</property>
  <property name="meta.media.nb_streams">1</property>
  <property name="meta.media.0.stream.type">video</property>
  <property name="meta.media.0.stream.frame_rate">60</property>
  <property name="meta.media.0.stream.sample_aspect_ratio">0</property>
  <property name="meta.media.0.codec.width">640</property>
  <property name="meta.media.0.codec.height">360</property>
  <property name="meta.media.0.codec.rotate">0</property>
  <property name="meta.media.0.codec.pix_fmt">yuvj420p</property>
  <property name="meta.media.0.codec.sample_aspect_ratio">0</property>
  <property name="meta.media.0.codec.colorspace">601</property>
  <property name="meta.media.0.codec.name">mjpeg</property>
  <property name="meta.media.0.codec.long_name">MJPEG (Motion JPEG)</property>
  <property name="meta.media.0.codec.bit_rate">0</property>
  <property name="meta.attr.0.stream.HANDLER_NAME.markup">VideoHandler</property>
  <property name="meta.attr.0.stream.VENDOR_ID.markup">[0][0][0][0]</property>
  <property name="meta.attr.0.stream.ENCODER.markup">Lavc60.3.100 mjpeg</property>
  <property name="meta.attr.0.stream.DURATION.markup">00:00:01.500000000</property>
  <property name="meta.attr.COMMENT.markup">Rendered with Manim Community v0.17.3</property>
  <property name="meta.attr.MAJOR_BRAND.markup">isom</property>
  <property name="meta.attr.MINOR_VERSION.markup">512</property>
  <property name="meta.attr.COMPATIBLE_BRANDS.markup">isomiso2avc1mp41</property>
  <property name="meta.attr.ENCODER.markup">Lavf60.3.100</property>
  <property name="seekable">1</property>
  <property name="meta.media.sample_aspect_num">1</property>
  <property name="meta.media.sample_aspect_den">1</property>
  <property name="format">3</property>
  <property name="audio_index">-1</property>
  <property name="video_index">0</property>
  <property name="meta.media.frame_rate_num">60</property>
  <property name="meta.media.frame_rate_den">1</property>
  <property name="meta.media.colorspace">601</property>
  <property name="meta.media.color_trc">2</property>
  <property name="meta.media.has_b_frames">0</property>
  <property name="meta.media.width">640</property>
  <property name="meta.media.height">360</property>
  <property name="meta.media.color_range">full</property>
  <property name="kdenlive:clipname">2.mp4</property>
  <property name="kdenlive:clip_type">2</property>
  <property name="kdenlive:folderid">196</property>
  <property name="kdenlive:id">198</property>
  <property name="mute_on_pause">0</property>
  <property name="kdenlive:file_size">340340</property>
  <property name="kdenlive:file_hash">6506564afce6a5f6f4672f68f022d12c</property>
  <property name="kdenlive:proxy">/home/xiaoxiae/.cache/kdenlive/proxy/6506564afce6a5f6f4672f68f022d12c.mkv</property>
  <property name="kdenlive:originalurl">video/Intro/2.mp4</property>
  <property name="kdenlive:original.mlt_type">chain</property>
  <property name="kdenlive:original.in">0</property>
  <property name="kdenlive:original.out">00:00:01.483</property>
  <property name="kdenlive:original.length">90</property>
  <property name="kdenlive:original.eof">pause</property>
  <property name="kdenlive:original.resource">video/Intro/2.mp4</property>
  <property name="kdenlive:original.mlt_service">avformat-novalidate</property>
  <property name="kdenlive:original.meta.media.nb_streams">1</property>
  <property name="kdenlive:original.meta.media.0.stream.type">video</property>
  <property name="kdenlive:original.meta.media.0.stream.frame_rate">60</property>
  <property name="kdenlive:original.meta.media.0.stream.sample_aspect_ratio">0</property>
  <property name="kdenlive:original.meta.media.0.codec.width">1920</property>
  <property name="kdenlive:original.meta.media.0.codec.height">1080</property>
  <property name="kdenlive:original.meta.media.0.codec.rotate">0</property>
  <property name="kdenlive:original.meta.media.0.codec.pix_fmt">yuv420p</property>
  <property name="kdenlive:original.meta.media.0.codec.sample_aspect_ratio">0</property>
  <property name="kdenlive:original.meta.media.0.codec.colorspace">709</property>
  <property name="kdenlive:original.meta.media.0.codec.name">h264</property>
  <property name="kdenlive:original.meta.media.0.codec.long_name">H.264 / AVC / MPEG-4 AVC / MPEG-4 part 10</property>
  <property name="kdenlive:original.meta.media.0.codec.bit_rate">1805717</property>
  <property name="kdenlive:original.meta.attr.0.stream.handler_name.markup">VideoHandler</property>
  <property name="kdenlive:original.meta.attr.0.stream.vendor_id.markup">[0][0][0][0]</property>
  <property name="kdenlive:original.meta.attr.0.stream.encoder.markup">Lavc60.3.100 libx264</property>
  <property name="kdenlive:original.meta.attr.major_brand.markup">isom</property>
  <property name="kdenlive:original.meta.attr.minor_version.markup">512</property>
  <property name="kdenlive:original.meta.attr.compatible_brands.markup">isomiso2avc1mp41</property>
  <property name="kdenlive:original.meta.attr.encoder.markup">Lavf60.3.100</property>
  <property name="kdenlive:original.meta.attr.comment.markup">Rendered with Manim Community v0.17.3</property>
  <property name="kdenlive:original.seekable">1</property>
  <property name="kdenlive:original.width">1920</property>
  <property name="kdenlive:original.height">1080</property>
  <property name="kdenlive:original.meta.media.sample_aspect_num">1</property>
  <property name="kdenlive:original.meta.media.sample_aspect_den">1</property>
  <property name="kdenlive:original.format">3</property>
  <property name="kdenlive:original.audio_index">-1</property>
  <property name="kdenlive:original.video_index">0</property>
  <property name="kdenlive:original.meta.media.frame_rate_num">60</property>
  <property name="kdenlive:original.meta.media.frame_rate_den">1</property>
  <property name="kdenlive:original.meta.media.colorspace">709</property>
  <property name="kdenlive:original.meta.media.color_trc">2</property>
  <property name="kdenlive:original.meta.media.has_b_frames">2</property>
  <property name="kdenlive:original.meta.media.width">1920</property>
  <property name="kdenlive:original.meta.media.height">1080</property>
  <property name="kdenlive:original.meta.media.color_range">mpeg</property>
  <property name="kdenlive:original.meta.media.top_field_first">0</property>
  <property name="kdenlive:original.meta.media.progressive">1</property>
  <property name="kdenlive:original.kdenlive:clip_type">2</property>
  <property name="kdenlive:original.kdenlive:folderid">196</property>
  <property name="kdenlive:original.kdenlive:id">198</property>
  <property name="kdenlive:original.mute_on_pause">0</property>
  <property name="kdenlive:original.kdenlive:file_size">340340</property>
  <property name="kdenlive:original.kdenlive:file_hash">6506564afce6a5f6f4672f68f022d12c</property>
  <property name="kdenlive:original.backup">1</property>
  <property name="meta.media.top_field_first">0</property>
  <property name="meta.media.progressive">1</property>
 </chain>
 <chain id="chain129" out="00:00:01.483">
  <property name="length">90</property>
  <property name="eof">pause</property>
  <property name="resource">/home/xiaoxiae/.cache/kdenlive/proxy/1095aa90f49a1b10507778e111eec21a.mkv</property>
  <property name="mlt_service">avformat-novalidate</property>
  <property name="meta.media.nb_streams">1</property>
  <property name="meta.media.0.stream.type">video</property>
  <property name="meta.media.0.stream.frame_rate">60</property>
  <property name="meta.media.0.stream.sample_aspect_ratio">0</property>
  <property name="meta.media.0.codec.width">640</property>
  <property name="meta.media.0.codec.height">360</property>
  <property name="meta.media.0.codec.rotate">0</property>
  <property name="meta.media.0.codec.pix_fmt">yuvj420p</property>
  <property name="meta.media.0.codec.sample_aspect_ratio">0</property>
  <property name="meta.media.0.codec.colorspace">601</property>
  <property name="meta.media.0.codec.name">mjpeg</property>
  <property name="meta.media.0.codec.long_name">MJPEG (Motion JPEG)</property>
  <property name="meta.media.0.codec.bit_rate">0</property>
  <property name="meta.attr.0.stream.HANDLER_NAME.markup">VideoHandler</property>
  <property name="meta.attr.0.stream.VENDOR_ID.markup">[0][0][0][0]</property>
  <property name="meta.attr.0.stream.ENCODER.markup">Lavc60.3.100 mjpeg</property>
  <property name="meta.attr.0.stream.DURATION.markup">00:00:01.500000000</property>
  <property name="meta.attr.COMMENT.markup">Rendered with Manim Community v0.17.3</property>
  <property name="meta.attr.MAJOR_BRAND.markup">isom</property>
  <property name="meta.attr.MINOR_VERSION.markup">512</property>
  <property name="meta.attr.COMPATIBLE_BRANDS.markup">isomiso2avc1mp41</property>
  <property name="meta.attr.ENCODER.markup">Lavf60.3.100</property>
  <property name="seekable">1</property>
  <property name="meta.media.sample_aspect_num">1</property>
  <property name="meta.media.sample_aspect_den">1</property>
  <property name="format">3</property>
  <property name="audio_index">-1</property>
  <property name="video_index">0</property>
  <property name="meta.media.frame_rate_num">60</property>
  <property name="meta.media.frame_rate_den">1</property>
  <property name="meta.media.colorspace">601</property>
  <property name="meta.media.color_trc">2</property>
  <property name="meta.media.has_b_frames">0</property>
  <property name="meta.media.width">640</property>
  <property name="meta.media.height">360</property>
  <property name="meta.media.color_range">full</property>
  <property name="kdenlive:clipname">3.mp4</property>
  <property name="kdenlive:clip_type">2</property>
  <property name="kdenlive:folderid">196</property>
  <property name="kdenlive:id">199</property>
  <property name="mute_on_pause">0</property>
  <property name="kdenlive:file_size">314953</property>
  <property name="kdenlive:file_hash">1095aa90f49a1b10507778e111eec21a</property>
  <property name="kdenlive:proxy">/home/xiaoxiae/.cache/kdenlive/proxy/1095aa90f49a1b10507778e111eec21a.mkv</property>
  <property name="kdenlive:originalurl">video/Intro/3.mp4</property>
  <property name="kdenlive:original.mlt_type">chain</property>
  <property name="kdenlive:original.in">0</property>
  <property name="kdenlive:original.out">00:00:01.483</property>
  <property name="kdenlive:original.length">90</property>
  <property name="kdenlive:original.eof">pause</property>
  <property name="kdenlive:original.resource">video/Intro/3.mp4</property>
  <property name="kdenlive:original.mlt_service">avformat-novalidate</property>
  <property name="kdenlive:original.meta.media.nb_streams">1</property>
  <property name="kdenlive:original.meta.media.0.stream.type">video</property>
  <property name="kdenlive:original.meta.media.0.stream.frame_rate">60</property>
  <property name="kdenlive:original.meta.media.0.stream.sample_aspect_ratio">0</property>
  <property name="kdenlive:original.meta.media.0.codec.width">1920</property>
  <property name="kdenlive:original.meta.media.0.codec.height">1080</property>
  <property name="kdenlive:original.meta.media.0.codec.rotate">0</property>
  <property name="kdenlive:original.meta.media.0.codec.pix_fmt">yuv420p</property>
  <property name="kdenlive:original.meta.media.0.codec.sample_aspect_ratio">0</property>
  <property name="kdenlive:original.meta.media.0.codec.colorspace">709</property>
  <property name="kdenlive:original.meta.media.0.codec.name">h264</property>
  <property name="kdenlive:original.meta.media.0.codec.long_name">H.264 / AVC / MPEG-4 AVC / MPEG-4 part 10</property>
  <property name="kdenlive:original.meta.media.0.codec.bit_rate">1670405</property>
  <property name="kdenlive:original.meta.attr.0.stream.handler_name.markup">VideoHandler</property>
  <property name="kdenlive:original.meta.attr.0.stream.vendor_id.markup">[0][0][0][0]</property>
  <property name="kdenlive:original.meta.attr.0.stream.encoder.markup">Lavc60.3.100 libx264</property>
  <property name="kdenlive:original.meta.attr.major_brand.markup">isom</property>
  <property name="kdenlive:original.meta.attr.minor_version.markup">512</property>
  <property name="kdenlive:original.meta.attr.compatible_brands.markup">isomiso2avc1mp41</property>
  <property name="kdenlive:original.meta.attr.encoder.markup">Lavf60.3.100</property>
  <property name="kdenlive:original.meta.attr.comment.markup">Rendered with Manim Community v0.17.3</property>
  <property name="kdenlive:original.seekable">1</property>
  <property name="kdenlive:original.width">1920</property>
  <property name="kdenlive:original.height">1080</property>
  <property name="kdenlive:original.meta.media.sample_aspect_num">1</property>
  <property name="kdenlive:original.meta.media.sample_aspect_den">1</property>
  <property name="kdenlive:original.format">3</property>
  <property name="kdenlive:original.audio_index">-1</property>
  <property name="kdenlive:original.video_index">0</property>
  <property name="kdenlive:original.meta.media.frame_rate_num">60</property>
  <property name="kdenlive:original.meta.media.frame_rate_den">1</property>
  <property name="kdenlive:original.meta.media.colorspace">709</property>
  <property name="kdenlive:original.meta.media.color_trc">2</property>
  <property name="kdenlive:original.meta.media.has_b_frames">2</property>
  <property name="kdenlive:original.meta.media.width">1920</property>
  <property name="kdenlive:original.meta.media.height">1080</property>
  <property name="kdenlive:original.meta.media.color_range">mpeg</property>
  <property name="kdenlive:original.meta.media.top_field_first">0</property>
  <property name="kdenlive:original.meta.media.progressive">1</property>
  <property name="kdenlive:original.kdenlive:clip_type">2</property>
  <property name="kdenlive:original.kdenlive:folderid">196</property>
  <property name="kdenlive:original.kdenlive:id">199</property>
  <property name="kdenlive:original.mute_on_pause">0</property>
  <property name="kdenlive:original.kdenlive:file_size">314953</property>
  <property name="kdenlive:original.kdenlive:file_hash">1095aa90f49a1b10507778e111eec21a</property>
  <property name="kdenlive:original.backup">1</property>
  <property name="meta.media.top_field_first">0</property>
  <property name="meta.media.progressive">1</property>
 </chain>
 <chain id="chain126" out="00:00:00.983">
  <property name="length">60</property>
  <property name="eof">pause</property>
  <property name="resource">/home/xiaoxiae/.cache/kdenlive/proxy/9220ca1d39394146a9ae6a246aecce8f.mkv</property>
  <property name="mlt_service">avformat-novalidate</property>
  <property name="meta.media.nb_streams">1</property>
  <property name="meta.media.0.stream.type">video</property>
  <property name="meta.media.0.stream.frame_rate">60</property>
  <property name="meta.media.0.stream.sample_aspect_ratio">0</property>
  <property name="meta.media.0.codec.width">640</property>
  <property name="meta.media.0.codec.height">360</property>
  <property name="meta.media.0.codec.rotate">0</property>
  <property name="meta.media.0.codec.pix_fmt">yuvj420p</property>
  <property name="meta.media.0.codec.sample_aspect_ratio">0</property>
  <property name="meta.media.0.codec.colorspace">601</property>
  <property name="meta.media.0.codec.name">mjpeg</property>
  <property name="meta.media.0.codec.long_name">MJPEG (Motion JPEG)</property>
  <property name="meta.media.0.codec.bit_rate">0</property>
  <property name="meta.attr.0.stream.HANDLER_NAME.markup">VideoHandler</property>
  <property name="meta.attr.0.stream.VENDOR_ID.markup">[0][0][0][0]</property>
  <property name="meta.attr.0.stream.ENCODER.markup">Lavc60.3.100 mjpeg</property>
  <property name="meta.attr.0.stream.DURATION.markup">00:00:01.000000000</property>
  <property name="meta.attr.COMMENT.markup">Rendered with Manim Community v0.17.3</property>
  <property name="meta.attr.MAJOR_BRAND.markup">isom</property>
  <property name="meta.attr.MINOR_VERSION.markup">512</property>
  <property name="meta.attr.COMPATIBLE_BRANDS.markup">isomiso2avc1mp41</property>
  <property name="meta.attr.ENCODER.markup">Lavf60.3.100</property>
  <property name="seekable">1</property>
  <property name="meta.media.sample_aspect_num">1</property>
  <property name="meta.media.sample_aspect_den">1</property>
  <property name="format">3</property>
  <property name="audio_index">-1</property>
  <property name="video_index">0</property>
  <property name="meta.media.frame_rate_num">60</property>
  <property name="meta.media.frame_rate_den">1</property>
  <property name="meta.media.colorspace">601</property>
  <property name="meta.media.color_trc">2</property>
  <property name="meta.media.has_b_frames">0</property>
  <property name="meta.media.width">640</property>
  <property name="meta.media.height">360</property>
  <property name="meta.media.color_range">full</property>
  <property name="kdenlive:clipname">4.mp4</property>
  <property name="kdenlive:clip_type">2</property>
  <property name="kdenlive:folderid">196</property>
  <property name="kdenlive:id">200</property>
  <property name="mute_on_pause">0</property>
  <property name="kdenlive:file_size">450854</property>
  <property name="kdenlive:file_hash">9220ca1d39394146a9ae6a246aecce8f</property>
  <property name="kdenlive:proxy">/home/xiaoxiae/.cache/kdenlive/proxy/9220ca1d39394146a9ae6a246aecce8f.mkv</property>
  <property name="kdenlive:originalurl">video/Intro/4.mp4</property>
  <property name="kdenlive:original.mlt_type">chain</property>
  <property name="kdenlive:original.in">0</property>
  <property name="kdenlive:original.out">00:00:00.983</property>
  <property name="kdenlive:original.length">60</property>
  <property name="kdenlive:original.eof">pause</property>
  <property name="kdenlive:original.resource">video/Intro/4.mp4</property>
  <property name="kdenlive:original.mlt_service">avformat-novalidate</property>
  <property name="kdenlive:original.meta.media.nb_streams">1</property>
  <property name="kdenlive:original.meta.media.0.stream.type">video</property>
  <property name="kdenlive:original.meta.media.0.stream.frame_rate">60</property>
  <property name="kdenlive:original.meta.media.0.stream.sample_aspect_ratio">0</property>
  <property name="kdenlive:original.meta.media.0.codec.width">1920</property>
  <property name="kdenlive:original.meta.media.0.codec.height">1080</property>
  <property name="kdenlive:original.meta.media.0.codec.rotate">0</property>
  <property name="kdenlive:original.meta.media.0.codec.pix_fmt">yuv420p</property>
  <property name="kdenlive:original.meta.media.0.codec.sample_aspect_ratio">0</property>
  <property name="kdenlive:original.meta.media.0.codec.colorspace">709</property>
  <property name="kdenlive:original.meta.media.0.codec.name">h264</property>
  <property name="kdenlive:original.meta.media.0.codec.long_name">H.264 / AVC / MPEG-4 AVC / MPEG-4 part 10</property>
  <property name="kdenlive:original.meta.media.0.codec.bit_rate">3595312</property>
  <property name="kdenlive:original.meta.attr.0.stream.handler_name.markup">VideoHandler</property>
  <property name="kdenlive:original.meta.attr.0.stream.vendor_id.markup">[0][0][0][0]</property>
  <property name="kdenlive:original.meta.attr.0.stream.encoder.markup">Lavc60.3.100 libx264</property>
  <property name="kdenlive:original.meta.attr.major_brand.markup">isom</property>
  <property name="kdenlive:original.meta.attr.minor_version.markup">512</property>
  <property name="kdenlive:original.meta.attr.compatible_brands.markup">isomiso2avc1mp41</property>
  <property name="kdenlive:original.meta.attr.encoder.markup">Lavf60.3.100</property>
  <property name="kdenlive:original.meta.attr.comment.markup">Rendered with Manim Community v0.17.3</property>
  <property name="kdenlive:original.seekable">1</property>
  <property name="kdenlive:original.width">1920</property>
  <property name="kdenlive:original.height">1080</property>
  <property name="kdenlive:original.meta.media.sample_aspect_num">1</property>
  <property name="kdenlive:original.meta.media.sample_aspect_den">1</property>
  <property name="kdenlive:original.format">3</property>
  <property name="kdenlive:original.audio_index">-1</property>
  <property name="kdenlive:original.video_index">0</property>
  <property name="kdenlive:original.meta.media.frame_rate_num">60</property>
  <property name="kdenlive:original.meta.media.frame_rate_den">1</property>
  <property name="kdenlive:original.meta.media.colorspace">709</property>
  <property name="kdenlive:original.meta.media.color_trc">2</property>
  <property name="kdenlive:original.meta.media.has_b_frames">2</property>
  <property name="kdenlive:original.meta.media.width">1920</property>
  <property name="kdenlive:original.meta.media.height">1080</property>
  <property name="kdenlive:original.meta.media.color_range">mpeg</property>
  <property name="kdenlive:original.meta.media.top_field_first">0</property>
  <property name="kdenlive:original.meta.media.progressive">1</property>
  <property name="kdenlive:original.kdenlive:clip_type">2</property>
  <property name="kdenlive:original.kdenlive:folderid">196</property>
  <property name="kdenlive:original.kdenlive:id">200</property>
  <property name="kdenlive:original.mute_on_pause">0</property>
  <property name="kdenlive:original.kdenlive:file_size">450854</property>
  <property name="kdenlive:original.kdenlive:file_hash">9220ca1d39394146a9ae6a246aecce8f</property>
  <property name="kdenlive:original.backup">1</property>
  <property name="meta.media.top_field_first">0</property>
  <property name="meta.media.progressive">1</property>
 </chain>
 <chain id="chain124" out="00:00:00.983">
  <property name="length">60</property>
  <property name="eof">pause</property>
  <property name="resource">/home/xiaoxiae/.cache/kdenlive/proxy/a356adb846e0671d29d1e2c26c5babce.mkv</property>
  <property name="mlt_service">avformat-novalidate</property>
  <property name="meta.media.nb_streams">1</property>
  <property name="meta.media.0.stream.type">video</property>
  <property name="meta.media.0.stream.frame_rate">60</property>
  <property name="meta.media.0.stream.sample_aspect_ratio">0</property>
  <property name="meta.media.0.codec.width">640</property>
  <property name="meta.media.0.codec.height">360</property>
  <property name="meta.media.0.codec.rotate">0</property>
  <property name="meta.media.0.codec.pix_fmt">yuvj420p</property>
  <property name="meta.media.0.codec.sample_aspect_ratio">0</property>
  <property name="meta.media.0.codec.colorspace">601</property>
  <property name="meta.media.0.codec.name">mjpeg</property>
  <property name="meta.media.0.codec.long_name">MJPEG (Motion JPEG)</property>
  <property name="meta.media.0.codec.bit_rate">0</property>
  <property name="meta.attr.0.stream.HANDLER_NAME.markup">VideoHandler</property>
  <property name="meta.attr.0.stream.VENDOR_ID.markup">[0][0][0][0]</property>
  <property name="meta.attr.0.stream.ENCODER.markup">Lavc60.3.100 mjpeg</property>
  <property name="meta.attr.0.stream.DURATION.markup">00:00:01.000000000</property>
  <property name="meta.attr.COMMENT.markup">Rendered with Manim Community v0.17.3</property>
  <property name="meta.attr.MAJOR_BRAND.markup">isom</property>
  <property name="meta.attr.MINOR_VERSION.markup">512</property>
  <property name="meta.attr.COMPATIBLE_BRANDS.markup">isomiso2avc1mp41</property>
  <property name="meta.attr.ENCODER.markup">Lavf60.3.100</property>
  <property name="seekable">1</property>
  <property name="meta.media.sample_aspect_num">1</property>
  <property name="meta.media.sample_aspect_den">1</property>
  <property name="format">3</property>
  <property name="audio_index">-1</property>
  <property name="video_index">0</property>
  <property name="meta.media.frame_rate_num">60</property>
  <property name="meta.media.frame_rate_den">1</property>
  <property name="meta.media.colorspace">601</property>
  <property name="meta.media.color_trc">2</property>
  <property name="meta.media.has_b_frames">0</property>
  <property name="meta.media.width">640</property>
  <property name="meta.media.height">360</property>
  <property name="meta.media.color_range">full</property>
  <property name="kdenlive:clipname">5.mp4</property>
  <property name="kdenlive:clip_type">2</property>
  <property name="kdenlive:folderid">196</property>
  <property name="kdenlive:id">201</property>
  <property name="mute_on_pause">0</property>
  <property name="kdenlive:file_size">236113</property>
  <property name="kdenlive:file_hash">a356adb846e0671d29d1e2c26c5babce</property>
  <property name="kdenlive:proxy">/home/xiaoxiae/.cache/kdenlive/proxy/a356adb846e0671d29d1e2c26c5babce.mkv</property>
  <property name="kdenlive:originalurl">video/Intro/5.mp4</property>
  <property name="kdenlive:original.mlt_type">chain</property>
  <property name="kdenlive:original.in">0</property>
  <property name="kdenlive:original.out">00:00:00.983</property>
  <property name="kdenlive:original.length">60</property>
  <property name="kdenlive:original.eof">pause</property>
  <property name="kdenlive:original.resource">video/Intro/5.mp4</property>
  <property name="kdenlive:original.mlt_service">avformat-novalidate</property>
  <property name="kdenlive:original.meta.media.nb_streams">1</property>
  <property name="kdenlive:original.meta.media.0.stream.type">video</property>
  <property name="kdenlive:original.meta.media.0.stream.frame_rate">60</property>
  <property name="kdenlive:original.meta.media.0.stream.sample_aspect_ratio">0</property>
  <property name="kdenlive:original.meta.media.0.codec.width">1920</property>
  <property name="kdenlive:original.meta.media.0.codec.height">1080</property>
  <property name="kdenlive:original.meta.media.0.codec.rotate">0</property>
  <property name="kdenlive:original.meta.media.0.codec.pix_fmt">yuv420p</property>
  <property name="kdenlive:original.meta.media.0.codec.sample_aspect_ratio">0</property>
  <property name="kdenlive:original.meta.media.0.codec.colorspace">709</property>
  <property name="kdenlive:original.meta.media.0.codec.name">h264</property>
  <property name="kdenlive:original.meta.media.0.codec.long_name">H.264 / AVC / MPEG-4 AVC / MPEG-4 part 10</property>
  <property name="kdenlive:original.meta.media.0.codec.bit_rate">1876040</property>
  <property name="kdenlive:original.meta.attr.0.stream.handler_name.markup">VideoHandler</property>
  <property name="kdenlive:original.meta.attr.0.stream.vendor_id.markup">[0][0][0][0]</property>
  <property name="kdenlive:original.meta.attr.0.stream.encoder.markup">Lavc60.3.100 libx264</property>
  <property name="kdenlive:original.meta.attr.major_brand.markup">isom</property>
  <property name="kdenlive:original.meta.attr.minor_version.markup">512</property>
  <property name="kdenlive:original.meta.attr.compatible_brands.markup">isomiso2avc1mp41</property>
  <property name="kdenlive:original.meta.attr.encoder.markup">Lavf60.3.100</property>
  <property name="kdenlive:original.meta.attr.comment.markup">Rendered with Manim Community v0.17.3</property>
  <property name="kdenlive:original.seekable">1</property>
  <property name="kdenlive:original.width">1920</property>
  <property name="kdenlive:original.height">1080</property>
  <property name="kdenlive:original.meta.media.sample_aspect_num">1</property>
  <property name="kdenlive:original.meta.media.sample_aspect_den">1</property>
  <property name="kdenlive:original.format">3</property>
  <property name="kdenlive:original.audio_index">-1</property>
  <property name="kdenlive:original.video_index">0</property>
  <property name="kdenlive:original.meta.media.frame_rate_num">60</property>
  <property name="kdenlive:original.meta.media.frame_rate_den">1</property>
  <property name="kdenlive:original.meta.media.colorspace">709</property>
  <property name="kdenlive:original.meta.media.color_trc">2</property>
  <property name="kdenlive:original.meta.media.has_b_frames">2</property>
  <property name="kdenlive:original.meta.media.width">1920</property>
  <property name="kdenlive:original.meta.media.height">1080</property>
  <property name="kdenlive:original.meta.media.color_range">mpeg</property>
  <property name="kdenlive:original.meta.media.top_field_first">0</property>
  <property name="kdenlive:original.meta.media.progressive">1</property>
  <property name="kdenlive:original.kdenlive:clip_type">2</property>
  <property name="kdenlive:original.kdenlive:folderid">196</property>
  <property name="kdenlive:original.kdenlive:id">201</property>
  <property name="kdenlive:original.mute_on_pause">0</property>
  <property name="kdenlive:original.kdenlive:file_size">236113</property>
  <property name="kdenlive:original.kdenlive:file_hash">a356adb846e0671d29d1e2c26c5babce</property>
  <property name="kdenlive:original.backup">1</property>
  <property name="meta.media.top_field_first">0</property>
  <property name="meta.media.progressive">1</property>
 </chain>
 <chain id="chain121" out="00:00:00.983">
  <property name="length">60</property>
  <property name="eof">pause</property>
  <property name="resource">/home/xiaoxiae/.cache/kdenlive/proxy/5a9e62a22e6c79929725177c19cb6fd4.mkv</property>
  <property name="mlt_service">avformat-novalidate</property>
  <property name="meta.media.nb_streams">1</property>
  <property name="meta.media.0.stream.type">video</property>
  <property name="meta.media.0.stream.frame_rate">60</property>
  <property name="meta.media.0.stream.sample_aspect_ratio">0</property>
  <property name="meta.media.0.codec.width">640</property>
  <property name="meta.media.0.codec.height">360</property>
  <property name="meta.media.0.codec.rotate">0</property>
  <property name="meta.media.0.codec.pix_fmt">yuvj420p</property>
  <property name="meta.media.0.codec.sample_aspect_ratio">0</property>
  <property name="meta.media.0.codec.colorspace">601</property>
  <property name="meta.media.0.codec.name">mjpeg</property>
  <property name="meta.media.0.codec.long_name">MJPEG (Motion JPEG)</property>
  <property name="meta.media.0.codec.bit_rate">0</property>
  <property name="meta.attr.0.stream.HANDLER_NAME.markup">VideoHandler</property>
  <property name="meta.attr.0.stream.VENDOR_ID.markup">[0][0][0][0]</property>
  <property name="meta.attr.0.stream.ENCODER.markup">Lavc60.3.100 mjpeg</property>
  <property name="meta.attr.0.stream.DURATION.markup">00:00:01.000000000</property>
  <property name="meta.attr.COMMENT.markup">Rendered with Manim Community v0.17.3</property>
  <property name="meta.attr.MAJOR_BRAND.markup">isom</property>
  <property name="meta.attr.MINOR_VERSION.markup">512</property>
  <property name="meta.attr.COMPATIBLE_BRANDS.markup">isomiso2avc1mp41</property>
  <property name="meta.attr.ENCODER.markup">Lavf60.3.100</property>
  <property name="seekable">1</property>
  <property name="meta.media.sample_aspect_num">1</property>
  <property name="meta.media.sample_aspect_den">1</property>
  <property name="format">3</property>
  <property name="audio_index">-1</property>
  <property name="video_index">0</property>
  <property name="meta.media.frame_rate_num">60</property>
  <property name="meta.media.frame_rate_den">1</property>
  <property name="meta.media.colorspace">601</property>
  <property name="meta.media.color_trc">2</property>
  <property name="meta.media.has_b_frames">0</property>
  <property name="meta.media.width">640</property>
  <property name="meta.media.height">360</property>
  <property name="meta.media.color_range">full</property>
  <property name="kdenlive:clipname">6.mp4</property>
  <property name="kdenlive:clip_type">2</property>
  <property name="kdenlive:folderid">196</property>
  <property name="kdenlive:id">202</property>
  <property name="mute_on_pause">0</property>
  <property name="kdenlive:file_size">102814</property>
  <property name="kdenlive:file_hash">5a9e62a22e6c79929725177c19cb6fd4</property>
  <property name="kdenlive:proxy">/home/xiaoxiae/.cache/kdenlive/proxy/5a9e62a22e6c79929725177c19cb6fd4.mkv</property>
  <property name="kdenlive:originalurl">video/Intro/6.mp4</property>
  <property name="kdenlive:original.mlt_type">chain</property>
  <property name="kdenlive:original.in">0</property>
  <property name="kdenlive:original.out">00:00:00.983</property>
  <property name="kdenlive:original.length">60</property>
  <property name="kdenlive:original.eof">pause</property>
  <property name="kdenlive:original.resource">video/Intro/6.mp4</property>
  <property name="kdenlive:original.mlt_service">avformat-novalidate</property>
  <property name="kdenlive:original.meta.media.nb_streams">1</property>
  <property name="kdenlive:original.meta.media.0.stream.type">video</property>
  <property name="kdenlive:original.meta.media.0.stream.frame_rate">60</property>
  <property name="kdenlive:original.meta.media.0.stream.sample_aspect_ratio">0</property>
  <property name="kdenlive:original.meta.media.0.codec.width">1920</property>
  <property name="kdenlive:original.meta.media.0.codec.height">1080</property>
  <property name="kdenlive:original.meta.media.0.codec.rotate">0</property>
  <property name="kdenlive:original.meta.media.0.codec.pix_fmt">yuv420p</property>
  <property name="kdenlive:original.meta.media.0.codec.sample_aspect_ratio">0</property>
  <property name="kdenlive:original.meta.media.0.codec.colorspace">709</property>
  <property name="kdenlive:original.meta.media.0.codec.name">h264</property>
  <property name="kdenlive:original.meta.media.0.codec.long_name">H.264 / AVC / MPEG-4 AVC / MPEG-4 part 10</property>
  <property name="kdenlive:original.meta.media.0.codec.bit_rate">809520</property>
  <property name="kdenlive:original.meta.attr.0.stream.handler_name.markup">VideoHandler</property>
  <property name="kdenlive:original.meta.attr.0.stream.vendor_id.markup">[0][0][0][0]</property>
  <property name="kdenlive:original.meta.attr.0.stream.encoder.markup">Lavc60.3.100 libx264</property>
  <property name="kdenlive:original.meta.attr.major_brand.markup">isom</property>
  <property name="kdenlive:original.meta.attr.minor_version.markup">512</property>
  <property name="kdenlive:original.meta.attr.compatible_brands.markup">isomiso2avc1mp41</property>
  <property name="kdenlive:original.meta.attr.encoder.markup">Lavf60.3.100</property>
  <property name="kdenlive:original.meta.attr.comment.markup">Rendered with Manim Community v0.17.3</property>
  <property name="kdenlive:original.seekable">1</property>
  <property name="kdenlive:original.width">1920</property>
  <property name="kdenlive:original.height">1080</property>
  <property name="kdenlive:original.meta.media.sample_aspect_num">1</property>
  <property name="kdenlive:original.meta.media.sample_aspect_den">1</property>
  <property name="kdenlive:original.format">3</property>
  <property name="kdenlive:original.audio_index">-1</property>
  <property name="kdenlive:original.video_index">0</property>
  <property name="kdenlive:original.meta.media.frame_rate_num">60</property>
  <property name="kdenlive:original.meta.media.frame_rate_den">1</property>
  <property name="kdenlive:original.meta.media.colorspace">709</property>
  <property name="kdenlive:original.meta.media.color_trc">2</property>
  <property name="kdenlive:original.meta.media.has_b_frames">2</property>
  <property name="kdenlive:original.meta.media.width">1920</property>
  <property name="kdenlive:original.meta.media.height">1080</property>
  <property name="kdenlive:original.meta.media.color_range">mpeg</property>
  <property name="kdenlive:original.meta.media.top_field_first">0</property>
  <property name="kdenlive:original.meta.media.progressive">1</property>
  <property name="kdenlive:original.kdenlive:clip_type">2</property>
  <property name="kdenlive:original.kdenlive:folderid">196</property>
  <property name="kdenlive:original.kdenlive:id">202</property>
  <property name="kdenlive:original.mute_on_pause">0</property>
  <property name="kdenlive:original.kdenlive:file_size">102814</property>
  <property name="kdenlive:original.kdenlive:file_hash">5a9e62a22e6c79929725177c19cb6fd4</property>
  <property name="kdenlive:original.backup">1</property>
  <property name="meta.media.top_field_first">0</property>
  <property name="meta.media.progressive">1</property>
 </chain>
 <chain id="chain120" out="00:00:01.483">
  <property name="length">90</property>
  <property name="eof">pause</property>
  <property name="resource">/home/xiaoxiae/.cache/kdenlive/proxy/995d8c55370e47244b2cf1ab96db0dc9.mkv</property>
  <property name="mlt_service">avformat-novalidate</property>
  <property name="meta.media.nb_streams">1</property>
  <property name="meta.media.0.stream.type">video</property>
  <property name="meta.media.0.stream.frame_rate">60</property>
  <property name="meta.media.0.stream.sample_aspect_ratio">0</property>
  <property name="meta.media.0.codec.width">640</property>
  <property name="meta.media.0.codec.height">360</property>
  <property name="meta.media.0.codec.rotate">0</property>
  <property name="meta.media.0.codec.pix_fmt">yuvj420p</property>
  <property name="meta.media.0.codec.sample_aspect_ratio">0</property>
  <property name="meta.media.0.codec.colorspace">601</property>
  <property name="meta.media.0.codec.name">mjpeg</property>
  <property name="meta.media.0.codec.long_name">MJPEG (Motion JPEG)</property>
  <property name="meta.media.0.codec.bit_rate">0</property>
  <property name="meta.attr.0.stream.HANDLER_NAME.markup">VideoHandler</property>
  <property name="meta.attr.0.stream.VENDOR_ID.markup">[0][0][0][0]</property>
  <property name="meta.attr.0.stream.ENCODER.markup">Lavc60.3.100 mjpeg</property>
  <property name="meta.attr.0.stream.DURATION.markup">00:00:01.500000000</property>
  <property name="meta.attr.COMMENT.markup">Rendered with Manim Community v0.17.3</property>
  <property name="meta.attr.MAJOR_BRAND.markup">isom</property>
  <property name="meta.attr.MINOR_VERSION.markup">512</property>
  <property name="meta.attr.COMPATIBLE_BRANDS.markup">isomiso2avc1mp41</property>
  <property name="meta.attr.ENCODER.markup">Lavf60.3.100</property>
  <property name="seekable">1</property>
  <property name="meta.media.sample_aspect_num">1</property>
  <property name="meta.media.sample_aspect_den">1</property>
  <property name="format">3</property>
  <property name="audio_index">-1</property>
  <property name="video_index">0</property>
  <property name="meta.media.frame_rate_num">60</property>
  <property name="meta.media.frame_rate_den">1</property>
  <property name="meta.media.colorspace">601</property>
  <property name="meta.media.color_trc">2</property>
  <property name="meta.media.has_b_frames">0</property>
  <property name="meta.media.width">640</property>
  <property name="meta.media.height">360</property>
  <property name="meta.media.color_range">full</property>
  <property name="kdenlive:clipname">1.mp4</property>
  <property name="kdenlive:clip_type">2</property>
  <property name="kdenlive:folderid">203</property>
  <property name="kdenlive:id">204</property>
  <property name="mute_on_pause">0</property>
  <property name="kdenlive:file_size">51232</property>
  <property name="kdenlive:file_hash">995d8c55370e47244b2cf1ab96db0dc9</property>
  <property name="kdenlive:proxy">/home/xiaoxiae/.cache/kdenlive/proxy/995d8c55370e47244b2cf1ab96db0dc9.mkv</property>
  <property name="kdenlive:originalurl">video/Knapsack/1.mp4</property>
  <property name="kdenlive:original.mlt_type">chain</property>
  <property name="kdenlive:original.in">0</property>
  <property name="kdenlive:original.out">00:00:01.483</property>
  <property name="kdenlive:original.length">90</property>
  <property name="kdenlive:original.eof">pause</property>
  <property name="kdenlive:original.resource">video/Knapsack/1.mp4</property>
  <property name="kdenlive:original.mlt_service">avformat-novalidate</property>
  <property name="kdenlive:original.meta.media.nb_streams">1</property>
  <property name="kdenlive:original.meta.media.0.stream.type">video</property>
  <property name="kdenlive:original.meta.media.0.stream.frame_rate">60</property>
  <property name="kdenlive:original.meta.media.0.stream.sample_aspect_ratio">0</property>
  <property name="kdenlive:original.meta.media.0.codec.width">1920</property>
  <property name="kdenlive:original.meta.media.0.codec.height">1080</property>
  <property name="kdenlive:original.meta.media.0.codec.rotate">0</property>
  <property name="kdenlive:original.meta.media.0.codec.pix_fmt">yuv420p</property>
  <property name="kdenlive:original.meta.media.0.codec.sample_aspect_ratio">0</property>
  <property name="kdenlive:original.meta.media.0.codec.colorspace">709</property>
  <property name="kdenlive:original.meta.media.0.codec.name">h264</property>
  <property name="kdenlive:original.meta.media.0.codec.long_name">H.264 / AVC / MPEG-4 AVC / MPEG-4 part 10</property>
  <property name="kdenlive:original.meta.media.0.codec.bit_rate">262613</property>
  <property name="kdenlive:original.meta.attr.0.stream.handler_name.markup">VideoHandler</property>
  <property name="kdenlive:original.meta.attr.0.stream.vendor_id.markup">[0][0][0][0]</property>
  <property name="kdenlive:original.meta.attr.0.stream.encoder.markup">Lavc60.3.100 libx264</property>
  <property name="kdenlive:original.meta.attr.major_brand.markup">isom</property>
  <property name="kdenlive:original.meta.attr.minor_version.markup">512</property>
  <property name="kdenlive:original.meta.attr.compatible_brands.markup">isomiso2avc1mp41</property>
  <property name="kdenlive:original.meta.attr.encoder.markup">Lavf60.3.100</property>
  <property name="kdenlive:original.meta.attr.comment.markup">Rendered with Manim Community v0.17.3</property>
  <property name="kdenlive:original.seekable">1</property>
  <property name="kdenlive:original.width">1920</property>
  <property name="kdenlive:original.height">1080</property>
  <property name="kdenlive:original.meta.media.sample_aspect_num">1</property>
  <property name="kdenlive:original.meta.media.sample_aspect_den">1</property>
  <property name="kdenlive:original.format">3</property>
  <property name="kdenlive:original.audio_index">-1</property>
  <property name="kdenlive:original.video_index">0</property>
  <property name="kdenlive:original.meta.media.frame_rate_num">60</property>
  <property name="kdenlive:original.meta.media.frame_rate_den">1</property>
  <property name="kdenlive:original.meta.media.colorspace">709</property>
  <property name="kdenlive:original.meta.media.color_trc">2</property>
  <property name="kdenlive:original.meta.media.has_b_frames">2</property>
  <property name="kdenlive:original.meta.media.width">1920</property>
  <property name="kdenlive:original.meta.media.height">1080</property>
  <property name="kdenlive:original.meta.media.color_range">mpeg</property>
  <property name="kdenlive:original.meta.media.top_field_first">0</property>
  <property name="kdenlive:original.meta.media.progressive">1</property>
  <property name="kdenlive:original.kdenlive:clip_type">2</property>
  <property name="kdenlive:original.kdenlive:folderid">203</property>
  <property name="kdenlive:original.kdenlive:id">204</property>
  <property name="kdenlive:original.mute_on_pause">0</property>
  <property name="kdenlive:original.kdenlive:file_size">51232</property>
  <property name="kdenlive:original.kdenlive:file_hash">995d8c55370e47244b2cf1ab96db0dc9</property>
  <property name="kdenlive:original.backup">1</property>
  <property name="meta.media.top_field_first">0</property>
  <property name="meta.media.progressive">1</property>
 </chain>
 <chain id="chain111" out="00:00:00.983">
  <property name="length">60</property>
  <property name="eof">pause</property>
  <property name="resource">/home/xiaoxiae/.cache/kdenlive/proxy/835f62a40e887d4c1683623506a4b36e.mkv</property>
  <property name="mlt_service">avformat-novalidate</property>
  <property name="meta.media.nb_streams">1</property>
  <property name="meta.media.0.stream.type">video</property>
  <property name="meta.media.0.stream.frame_rate">60</property>
  <property name="meta.media.0.stream.sample_aspect_ratio">0</property>
  <property name="meta.media.0.codec.width">640</property>
  <property name="meta.media.0.codec.height">360</property>
  <property name="meta.media.0.codec.rotate">0</property>
  <property name="meta.media.0.codec.pix_fmt">yuvj420p</property>
  <property name="meta.media.0.codec.sample_aspect_ratio">0</property>
  <property name="meta.media.0.codec.colorspace">601</property>
  <property name="meta.media.0.codec.name">mjpeg</property>
  <property name="meta.media.0.codec.long_name">MJPEG (Motion JPEG)</property>
  <property name="meta.media.0.codec.bit_rate">0</property>
  <property name="meta.attr.0.stream.HANDLER_NAME.markup">VideoHandler</property>
  <property name="meta.attr.0.stream.VENDOR_ID.markup">[0][0][0][0]</property>
  <property name="meta.attr.0.stream.ENCODER.markup">Lavc60.3.100 mjpeg</property>
  <property name="meta.attr.0.stream.DURATION.markup">00:00:01.000000000</property>
  <property name="meta.attr.COMMENT.markup">Rendered with Manim Community v0.17.3</property>
  <property name="meta.attr.MAJOR_BRAND.markup">isom</property>
  <property name="meta.attr.MINOR_VERSION.markup">512</property>
  <property name="meta.attr.COMPATIBLE_BRANDS.markup">isomiso2avc1mp41</property>
  <property name="meta.attr.ENCODER.markup">Lavf60.3.100</property>
  <property name="seekable">1</property>
  <property name="meta.media.sample_aspect_num">1</property>
  <property name="meta.media.sample_aspect_den">1</property>
  <property name="format">3</property>
  <property name="audio_index">-1</property>
  <property name="video_index">0</property>
  <property name="meta.media.frame_rate_num">60</property>
  <property name="meta.media.frame_rate_den">1</property>
  <property name="meta.media.colorspace">601</property>
  <property name="meta.media.color_trc">2</property>
  <property name="meta.media.has_b_frames">0</property>
  <property name="meta.media.width">640</property>
  <property name="meta.media.height">360</property>
  <property name="meta.media.color_range">full</property>
  <property name="kdenlive:clipname">10.mp4</property>
  <property name="kdenlive:clip_type">2</property>
  <property name="kdenlive:folderid">203</property>
  <property name="kdenlive:id">205</property>
  <property name="mute_on_pause">0</property>
  <property name="kdenlive:file_size">274701</property>
  <property name="kdenlive:file_hash">835f62a40e887d4c1683623506a4b36e</property>
  <property name="kdenlive:proxy">/home/xiaoxiae/.cache/kdenlive/proxy/835f62a40e887d4c1683623506a4b36e.mkv</property>
  <property name="kdenlive:originalurl">video/Knapsack/10.mp4</property>
  <property name="kdenlive:original.mlt_type">chain</property>
  <property name="kdenlive:original.in">0</property>
  <property name="kdenlive:original.out">00:00:00.983</property>
  <property name="kdenlive:original.length">60</property>
  <property name="kdenlive:original.eof">pause</property>
  <property name="kdenlive:original.resource">video/Knapsack/10.mp4</property>
  <property name="kdenlive:original.mlt_service">avformat-novalidate</property>
  <property name="kdenlive:original.meta.media.nb_streams">1</property>
  <property name="kdenlive:original.meta.media.0.stream.type">video</property>
  <property name="kdenlive:original.meta.media.0.stream.frame_rate">60</property>
  <property name="kdenlive:original.meta.media.0.stream.sample_aspect_ratio">0</property>
  <property name="kdenlive:original.meta.media.0.codec.width">1920</property>
  <property name="kdenlive:original.meta.media.0.codec.height">1080</property>
  <property name="kdenlive:original.meta.media.0.codec.rotate">0</property>
  <property name="kdenlive:original.meta.media.0.codec.pix_fmt">yuv420p</property>
  <property name="kdenlive:original.meta.media.0.codec.sample_aspect_ratio">0</property>
  <property name="kdenlive:original.meta.media.0.codec.colorspace">709</property>
  <property name="kdenlive:original.meta.media.0.codec.name">h264</property>
  <property name="kdenlive:original.meta.media.0.codec.long_name">H.264 / AVC / MPEG-4 AVC / MPEG-4 part 10</property>
  <property name="kdenlive:original.meta.media.0.codec.bit_rate">2185704</property>
  <property name="kdenlive:original.meta.attr.0.stream.handler_name.markup">VideoHandler</property>
  <property name="kdenlive:original.meta.attr.0.stream.vendor_id.markup">[0][0][0][0]</property>
  <property name="kdenlive:original.meta.attr.0.stream.encoder.markup">Lavc60.3.100 libx264</property>
  <property name="kdenlive:original.meta.attr.major_brand.markup">isom</property>
  <property name="kdenlive:original.meta.attr.minor_version.markup">512</property>
  <property name="kdenlive:original.meta.attr.compatible_brands.markup">isomiso2avc1mp41</property>
  <property name="kdenlive:original.meta.attr.encoder.markup">Lavf60.3.100</property>
  <property name="kdenlive:original.meta.attr.comment.markup">Rendered with Manim Community v0.17.3</property>
  <property name="kdenlive:original.seekable">1</property>
  <property name="kdenlive:original.width">1920</property>
  <property name="kdenlive:original.height">1080</property>
  <property name="kdenlive:original.meta.media.sample_aspect_num">1</property>
  <property name="kdenlive:original.meta.media.sample_aspect_den">1</property>
  <property name="kdenlive:original.format">3</property>
  <property name="kdenlive:original.audio_index">-1</property>
  <property name="kdenlive:original.video_index">0</property>
  <property name="kdenlive:original.meta.media.frame_rate_num">60</property>
  <property name="kdenlive:original.meta.media.frame_rate_den">1</property>
  <property name="kdenlive:original.meta.media.colorspace">709</property>
  <property name="kdenlive:original.meta.media.color_trc">2</property>
  <property name="kdenlive:original.meta.media.has_b_frames">2</property>
  <property name="kdenlive:original.meta.media.width">1920</property>
  <property name="kdenlive:original.meta.media.height">1080</property>
  <property name="kdenlive:original.meta.media.color_range">mpeg</property>
  <property name="kdenlive:original.meta.media.top_field_first">0</property>
  <property name="kdenlive:original.meta.media.progressive">1</property>
  <property name="kdenlive:original.kdenlive:clip_type">2</property>
  <property name="kdenlive:original.kdenlive:folderid">203</property>
  <property name="kdenlive:original.kdenlive:id">205</property>
  <property name="kdenlive:original.mute_on_pause">0</property>
  <property name="kdenlive:original.kdenlive:file_size">274701</property>
  <property name="kdenlive:original.kdenlive:file_hash">835f62a40e887d4c1683623506a4b36e</property>
  <property name="kdenlive:original.backup">1</property>
  <property name="meta.media.top_field_first">0</property>
  <property name="meta.media.progressive">1</property>
 </chain>
 <chain id="chain110" out="00:00:01.483">
  <property name="length">90</property>
  <property name="eof">pause</property>
  <property name="resource">/home/xiaoxiae/.cache/kdenlive/proxy/e35c4ec954092da159b090ddbcec0a7b.mkv</property>
  <property name="mlt_service">avformat-novalidate</property>
  <property name="meta.media.nb_streams">1</property>
  <property name="meta.media.0.stream.type">video</property>
  <property name="meta.media.0.stream.frame_rate">60</property>
  <property name="meta.media.0.stream.sample_aspect_ratio">0</property>
  <property name="meta.media.0.codec.width">640</property>
  <property name="meta.media.0.codec.height">360</property>
  <property name="meta.media.0.codec.rotate">0</property>
  <property name="meta.media.0.codec.pix_fmt">yuvj420p</property>
  <property name="meta.media.0.codec.sample_aspect_ratio">0</property>
  <property name="meta.media.0.codec.colorspace">601</property>
  <property name="meta.media.0.codec.name">mjpeg</property>
  <property name="meta.media.0.codec.long_name">MJPEG (Motion JPEG)</property>
  <property name="meta.media.0.codec.bit_rate">0</property>
  <property name="meta.attr.0.stream.HANDLER_NAME.markup">VideoHandler</property>
  <property name="meta.attr.0.stream.VENDOR_ID.markup">[0][0][0][0]</property>
  <property name="meta.attr.0.stream.ENCODER.markup">Lavc60.3.100 mjpeg</property>
  <property name="meta.attr.0.stream.DURATION.markup">00:00:01.500000000</property>
  <property name="meta.attr.COMMENT.markup">Rendered with Manim Community v0.17.3</property>
  <property name="meta.attr.MAJOR_BRAND.markup">isom</property>
  <property name="meta.attr.MINOR_VERSION.markup">512</property>
  <property name="meta.attr.COMPATIBLE_BRANDS.markup">isomiso2avc1mp41</property>
  <property name="meta.attr.ENCODER.markup">Lavf60.3.100</property>
  <property name="seekable">1</property>
  <property name="meta.media.sample_aspect_num">1</property>
  <property name="meta.media.sample_aspect_den">1</property>
  <property name="format">3</property>
  <property name="audio_index">-1</property>
  <property name="video_index">0</property>
  <property name="meta.media.frame_rate_num">60</property>
  <property name="meta.media.frame_rate_den">1</property>
  <property name="meta.media.colorspace">601</property>
  <property name="meta.media.color_trc">2</property>
  <property name="meta.media.has_b_frames">0</property>
  <property name="meta.media.width">640</property>
  <property name="meta.media.height">360</property>
  <property name="meta.media.color_range">full</property>
  <property name="kdenlive:clipname">11.mp4</property>
  <property name="kdenlive:clip_type">2</property>
  <property name="kdenlive:folderid">203</property>
  <property name="kdenlive:id">206</property>
  <property name="mute_on_pause">0</property>
  <property name="kdenlive:file_size">143095</property>
  <property name="kdenlive:file_hash">e35c4ec954092da159b090ddbcec0a7b</property>
  <property name="kdenlive:proxy">/home/xiaoxiae/.cache/kdenlive/proxy/e35c4ec954092da159b090ddbcec0a7b.mkv</property>
  <property name="kdenlive:originalurl">video/Knapsack/11.mp4</property>
  <property name="kdenlive:original.mlt_type">chain</property>
  <property name="kdenlive:original.in">0</property>
  <property name="kdenlive:original.out">00:00:01.483</property>
  <property name="kdenlive:original.length">90</property>
  <property name="kdenlive:original.eof">pause</property>
  <property name="kdenlive:original.resource">video/Knapsack/11.mp4</property>
  <property name="kdenlive:original.mlt_service">avformat-novalidate</property>
  <property name="kdenlive:original.meta.media.nb_streams">1</property>
  <property name="kdenlive:original.meta.media.0.stream.type">video</property>
  <property name="kdenlive:original.meta.media.0.stream.frame_rate">60</property>
  <property name="kdenlive:original.meta.media.0.stream.sample_aspect_ratio">0</property>
  <property name="kdenlive:original.meta.media.0.codec.width">1920</property>
  <property name="kdenlive:original.meta.media.0.codec.height">1080</property>
  <property name="kdenlive:original.meta.media.0.codec.rotate">0</property>
  <property name="kdenlive:original.meta.media.0.codec.pix_fmt">yuv420p</property>
  <property name="kdenlive:original.meta.media.0.codec.sample_aspect_ratio">0</property>
  <property name="kdenlive:original.meta.media.0.codec.colorspace">709</property>
  <property name="kdenlive:original.meta.media.0.codec.name">h264</property>
  <property name="kdenlive:original.meta.media.0.codec.long_name">H.264 / AVC / MPEG-4 AVC / MPEG-4 part 10</property>
  <property name="kdenlive:original.meta.media.0.codec.bit_rate">753530</property>
  <property name="kdenlive:original.meta.attr.0.stream.handler_name.markup">VideoHandler</property>
  <property name="kdenlive:original.meta.attr.0.stream.vendor_id.markup">[0][0][0][0]</property>
  <property name="kdenlive:original.meta.attr.0.stream.encoder.markup">Lavc60.3.100 libx264</property>
  <property name="kdenlive:original.meta.attr.major_brand.markup">isom</property>
  <property name="kdenlive:original.meta.attr.minor_version.markup">512</property>
  <property name="kdenlive:original.meta.attr.compatible_brands.markup">isomiso2avc1mp41</property>
  <property name="kdenlive:original.meta.attr.encoder.markup">Lavf60.3.100</property>
  <property name="kdenlive:original.meta.attr.comment.markup">Rendered with Manim Community v0.17.3</property>
  <property name="kdenlive:original.seekable">1</property>
  <property name="kdenlive:original.width">1920</property>
  <property name="kdenlive:original.height">1080</property>
  <property name="kdenlive:original.meta.media.sample_aspect_num">1</property>
  <property name="kdenlive:original.meta.media.sample_aspect_den">1</property>
  <property name="kdenlive:original.format">3</property>
  <property name="kdenlive:original.audio_index">-1</property>
  <property name="kdenlive:original.video_index">0</property>
  <property name="kdenlive:original.meta.media.frame_rate_num">60</property>
  <property name="kdenlive:original.meta.media.frame_rate_den">1</property>
  <property name="kdenlive:original.meta.media.colorspace">709</property>
  <property name="kdenlive:original.meta.media.color_trc">2</property>
  <property name="kdenlive:original.meta.media.has_b_frames">2</property>
  <property name="kdenlive:original.meta.media.width">1920</property>
  <property name="kdenlive:original.meta.media.height">1080</property>
  <property name="kdenlive:original.meta.media.color_range">mpeg</property>
  <property name="kdenlive:original.meta.media.top_field_first">0</property>
  <property name="kdenlive:original.meta.media.progressive">1</property>
  <property name="kdenlive:original.kdenlive:clip_type">2</property>
  <property name="kdenlive:original.kdenlive:folderid">203</property>
  <property name="kdenlive:original.kdenlive:id">206</property>
  <property name="kdenlive:original.mute_on_pause">0</property>
  <property name="kdenlive:original.kdenlive:file_size">143095</property>
  <property name="kdenlive:original.kdenlive:file_hash">e35c4ec954092da159b090ddbcec0a7b</property>
  <property name="kdenlive:original.backup">1</property>
  <property name="meta.media.top_field_first">0</property>
  <property name="meta.media.progressive">1</property>
 </chain>
 <chain id="chain109" out="00:00:00.683">
  <property name="length">42</property>
  <property name="eof">pause</property>
  <property name="resource">/home/xiaoxiae/.cache/kdenlive/proxy/c19ff504d390a270ceb00fedfa361944.mkv</property>
  <property name="mlt_service">avformat-novalidate</property>
  <property name="meta.media.nb_streams">1</property>
  <property name="meta.media.0.stream.type">video</property>
  <property name="meta.media.0.stream.frame_rate">60</property>
  <property name="meta.media.0.stream.sample_aspect_ratio">0</property>
  <property name="meta.media.0.codec.width">640</property>
  <property name="meta.media.0.codec.height">360</property>
  <property name="meta.media.0.codec.rotate">0</property>
  <property name="meta.media.0.codec.pix_fmt">yuvj420p</property>
  <property name="meta.media.0.codec.sample_aspect_ratio">0</property>
  <property name="meta.media.0.codec.colorspace">601</property>
  <property name="meta.media.0.codec.name">mjpeg</property>
  <property name="meta.media.0.codec.long_name">MJPEG (Motion JPEG)</property>
  <property name="meta.media.0.codec.bit_rate">0</property>
  <property name="meta.attr.0.stream.HANDLER_NAME.markup">VideoHandler</property>
  <property name="meta.attr.0.stream.VENDOR_ID.markup">[0][0][0][0]</property>
  <property name="meta.attr.0.stream.ENCODER.markup">Lavc60.3.100 mjpeg</property>
  <property name="meta.attr.0.stream.DURATION.markup">00:00:00.700000000</property>
  <property name="meta.attr.COMMENT.markup">Rendered with Manim Community v0.17.3</property>
  <property name="meta.attr.MAJOR_BRAND.markup">isom</property>
  <property name="meta.attr.MINOR_VERSION.markup">512</property>
  <property name="meta.attr.COMPATIBLE_BRANDS.markup">isomiso2avc1mp41</property>
  <property name="meta.attr.ENCODER.markup">Lavf60.3.100</property>
  <property name="seekable">1</property>
  <property name="meta.media.sample_aspect_num">1</property>
  <property name="meta.media.sample_aspect_den">1</property>
  <property name="format">3</property>
  <property name="audio_index">-1</property>
  <property name="video_index">0</property>
  <property name="meta.media.frame_rate_num">60</property>
  <property name="meta.media.frame_rate_den">1</property>
  <property name="meta.media.colorspace">601</property>
  <property name="meta.media.color_trc">2</property>
  <property name="meta.media.has_b_frames">0</property>
  <property name="meta.media.width">640</property>
  <property name="meta.media.height">360</property>
  <property name="meta.media.color_range">full</property>
  <property name="kdenlive:clipname">12.mp4</property>
  <property name="kdenlive:clip_type">2</property>
  <property name="kdenlive:folderid">203</property>
  <property name="kdenlive:id">207</property>
  <property name="mute_on_pause">0</property>
  <property name="kdenlive:file_size">26886</property>
  <property name="kdenlive:file_hash">c19ff504d390a270ceb00fedfa361944</property>
  <property name="kdenlive:proxy">/home/xiaoxiae/.cache/kdenlive/proxy/c19ff504d390a270ceb00fedfa361944.mkv</property>
  <property name="kdenlive:originalurl">video/Knapsack/12.mp4</property>
  <property name="kdenlive:original.mlt_type">chain</property>
  <property name="kdenlive:original.in">0</property>
  <property name="kdenlive:original.out">00:00:00.683</property>
  <property name="kdenlive:original.length">42</property>
  <property name="kdenlive:original.eof">pause</property>
  <property name="kdenlive:original.resource">video/Knapsack/12.mp4</property>
  <property name="kdenlive:original.mlt_service">avformat-novalidate</property>
  <property name="kdenlive:original.meta.media.nb_streams">1</property>
  <property name="kdenlive:original.meta.media.0.stream.type">video</property>
  <property name="kdenlive:original.meta.media.0.stream.frame_rate">60</property>
  <property name="kdenlive:original.meta.media.0.stream.sample_aspect_ratio">0</property>
  <property name="kdenlive:original.meta.media.0.codec.width">1920</property>
  <property name="kdenlive:original.meta.media.0.codec.height">1080</property>
  <property name="kdenlive:original.meta.media.0.codec.rotate">0</property>
  <property name="kdenlive:original.meta.media.0.codec.pix_fmt">yuv420p</property>
  <property name="kdenlive:original.meta.media.0.codec.sample_aspect_ratio">0</property>
  <property name="kdenlive:original.meta.media.0.codec.colorspace">709</property>
  <property name="kdenlive:original.meta.media.0.codec.name">h264</property>
  <property name="kdenlive:original.meta.media.0.codec.long_name">H.264 / AVC / MPEG-4 AVC / MPEG-4 part 10</property>
  <property name="kdenlive:original.meta.media.0.codec.bit_rate">290994</property>
  <property name="kdenlive:original.meta.attr.0.stream.handler_name.markup">VideoHandler</property>
  <property name="kdenlive:original.meta.attr.0.stream.vendor_id.markup">[0][0][0][0]</property>
  <property name="kdenlive:original.meta.attr.0.stream.encoder.markup">Lavc60.3.100 libx264</property>
  <property name="kdenlive:original.meta.attr.major_brand.markup">isom</property>
  <property name="kdenlive:original.meta.attr.minor_version.markup">512</property>
  <property name="kdenlive:original.meta.attr.compatible_brands.markup">isomiso2avc1mp41</property>
  <property name="kdenlive:original.meta.attr.encoder.markup">Lavf60.3.100</property>
  <property name="kdenlive:original.meta.attr.comment.markup">Rendered with Manim Community v0.17.3</property>
  <property name="kdenlive:original.seekable">1</property>
  <property name="kdenlive:original.width">1920</property>
  <property name="kdenlive:original.height">1080</property>
  <property name="kdenlive:original.meta.media.sample_aspect_num">1</property>
  <property name="kdenlive:original.meta.media.sample_aspect_den">1</property>
  <property name="kdenlive:original.format">3</property>
  <property name="kdenlive:original.audio_index">-1</property>
  <property name="kdenlive:original.video_index">0</property>
  <property name="kdenlive:original.meta.media.frame_rate_num">60</property>
  <property name="kdenlive:original.meta.media.frame_rate_den">1</property>
  <property name="kdenlive:original.meta.media.colorspace">709</property>
  <property name="kdenlive:original.meta.media.color_trc">2</property>
  <property name="kdenlive:original.meta.media.has_b_frames">2</property>
  <property name="kdenlive:original.meta.media.width">1920</property>
  <property name="kdenlive:original.meta.media.height">1080</property>
  <property name="kdenlive:original.meta.media.color_range">mpeg</property>
  <property name="kdenlive:original.meta.media.top_field_first">0</property>
  <property name="kdenlive:original.meta.media.progressive">1</property>
  <property name="kdenlive:original.kdenlive:clip_type">2</property>
  <property name="kdenlive:original.kdenlive:folderid">203</property>
  <property name="kdenlive:original.kdenlive:id">207</property>
  <property name="kdenlive:original.mute_on_pause">0</property>
  <property name="kdenlive:original.kdenlive:file_size">26886</property>
  <property name="kdenlive:original.kdenlive:file_hash">c19ff504d390a270ceb00fedfa361944</property>
  <property name="kdenlive:original.backup">1</property>
  <property name="meta.media.top_field_first">0</property>
  <property name="meta.media.progressive">1</property>
 </chain>
 <chain id="chain108" out="00:00:01.483">
  <property name="length">90</property>
  <property name="eof">pause</property>
  <property name="resource">/home/xiaoxiae/.cache/kdenlive/proxy/3c6887a33ac2afb21883d218dd789bb3.mkv</property>
  <property name="mlt_service">avformat-novalidate</property>
  <property name="meta.media.nb_streams">1</property>
  <property name="meta.media.0.stream.type">video</property>
  <property name="meta.media.0.stream.frame_rate">60</property>
  <property name="meta.media.0.stream.sample_aspect_ratio">0</property>
  <property name="meta.media.0.codec.width">640</property>
  <property name="meta.media.0.codec.height">360</property>
  <property name="meta.media.0.codec.rotate">0</property>
  <property name="meta.media.0.codec.pix_fmt">yuvj420p</property>
  <property name="meta.media.0.codec.sample_aspect_ratio">0</property>
  <property name="meta.media.0.codec.colorspace">601</property>
  <property name="meta.media.0.codec.name">mjpeg</property>
  <property name="meta.media.0.codec.long_name">MJPEG (Motion JPEG)</property>
  <property name="meta.media.0.codec.bit_rate">0</property>
  <property name="meta.attr.0.stream.HANDLER_NAME.markup">VideoHandler</property>
  <property name="meta.attr.0.stream.VENDOR_ID.markup">[0][0][0][0]</property>
  <property name="meta.attr.0.stream.ENCODER.markup">Lavc60.3.100 mjpeg</property>
  <property name="meta.attr.0.stream.DURATION.markup">00:00:01.500000000</property>
  <property name="meta.attr.COMMENT.markup">Rendered with Manim Community v0.17.3</property>
  <property name="meta.attr.MAJOR_BRAND.markup">isom</property>
  <property name="meta.attr.MINOR_VERSION.markup">512</property>
  <property name="meta.attr.COMPATIBLE_BRANDS.markup">isomiso2avc1mp41</property>
  <property name="meta.attr.ENCODER.markup">Lavf60.3.100</property>
  <property name="seekable">1</property>
  <property name="meta.media.sample_aspect_num">1</property>
  <property name="meta.media.sample_aspect_den">1</property>
  <property name="format">3</property>
  <property name="audio_index">-1</property>
  <property name="video_index">0</property>
  <property name="meta.media.frame_rate_num">60</property>
  <property name="meta.media.frame_rate_den">1</property>
  <property name="meta.media.colorspace">601</property>
  <property name="meta.media.color_trc">2</property>
  <property name="meta.media.has_b_frames">0</property>
  <property name="meta.media.width">640</property>
  <property name="meta.media.height">360</property>
  <property name="meta.media.color_range">full</property>
  <property name="kdenlive:clipname">13.mp4</property>
  <property name="kdenlive:clip_type">2</property>
  <property name="kdenlive:folderid">203</property>
  <property name="kdenlive:id">208</property>
  <property name="mute_on_pause">0</property>
  <property name="kdenlive:file_size">56604</property>
  <property name="kdenlive:file_hash">3c6887a33ac2afb21883d218dd789bb3</property>
  <property name="kdenlive:proxy">/home/xiaoxiae/.cache/kdenlive/proxy/3c6887a33ac2afb21883d218dd789bb3.mkv</property>
  <property name="kdenlive:originalurl">video/Knapsack/13.mp4</property>
  <property name="kdenlive:original.mlt_type">chain</property>
  <property name="kdenlive:original.in">0</property>
  <property name="kdenlive:original.out">00:00:01.483</property>
  <property name="kdenlive:original.length">90</property>
  <property name="kdenlive:original.eof">pause</property>
  <property name="kdenlive:original.resource">video/Knapsack/13.mp4</property>
  <property name="kdenlive:original.mlt_service">avformat-novalidate</property>
  <property name="kdenlive:original.meta.media.nb_streams">1</property>
  <property name="kdenlive:original.meta.media.0.stream.type">video</property>
  <property name="kdenlive:original.meta.media.0.stream.frame_rate">60</property>
  <property name="kdenlive:original.meta.media.0.stream.sample_aspect_ratio">0</property>
  <property name="kdenlive:original.meta.media.0.codec.width">1920</property>
  <property name="kdenlive:original.meta.media.0.codec.height">1080</property>
  <property name="kdenlive:original.meta.media.0.codec.rotate">0</property>
  <property name="kdenlive:original.meta.media.0.codec.pix_fmt">yuv420p</property>
  <property name="kdenlive:original.meta.media.0.codec.sample_aspect_ratio">0</property>
  <property name="kdenlive:original.meta.media.0.codec.colorspace">709</property>
  <property name="kdenlive:original.meta.media.0.codec.name">h264</property>
  <property name="kdenlive:original.meta.media.0.codec.long_name">H.264 / AVC / MPEG-4 AVC / MPEG-4 part 10</property>
  <property name="kdenlive:original.meta.media.0.codec.bit_rate">291221</property>
  <property name="kdenlive:original.meta.attr.0.stream.handler_name.markup">VideoHandler</property>
  <property name="kdenlive:original.meta.attr.0.stream.vendor_id.markup">[0][0][0][0]</property>
  <property name="kdenlive:original.meta.attr.0.stream.encoder.markup">Lavc60.3.100 libx264</property>
  <property name="kdenlive:original.meta.attr.major_brand.markup">isom</property>
  <property name="kdenlive:original.meta.attr.minor_version.markup">512</property>
  <property name="kdenlive:original.meta.attr.compatible_brands.markup">isomiso2avc1mp41</property>
  <property name="kdenlive:original.meta.attr.encoder.markup">Lavf60.3.100</property>
  <property name="kdenlive:original.meta.attr.comment.markup">Rendered with Manim Community v0.17.3</property>
  <property name="kdenlive:original.seekable">1</property>
  <property name="kdenlive:original.width">1920</property>
  <property name="kdenlive:original.height">1080</property>
  <property name="kdenlive:original.meta.media.sample_aspect_num">1</property>
  <property name="kdenlive:original.meta.media.sample_aspect_den">1</property>
  <property name="kdenlive:original.format">3</property>
  <property name="kdenlive:original.audio_index">-1</property>
  <property name="kdenlive:original.video_index">0</property>
  <property name="kdenlive:original.meta.media.frame_rate_num">60</property>
  <property name="kdenlive:original.meta.media.frame_rate_den">1</property>
  <property name="kdenlive:original.meta.media.colorspace">709</property>
  <property name="kdenlive:original.meta.media.color_trc">2</property>
  <property name="kdenlive:original.meta.media.has_b_frames">2</property>
  <property name="kdenlive:original.meta.media.width">1920</property>
  <property name="kdenlive:original.meta.media.height">1080</property>
  <property name="kdenlive:original.meta.media.color_range">mpeg</property>
  <property name="kdenlive:original.meta.media.top_field_first">0</property>
  <property name="kdenlive:original.meta.media.progressive">1</property>
  <property name="kdenlive:original.kdenlive:clip_type">2</property>
  <property name="kdenlive:original.kdenlive:folderid">203</property>
  <property name="kdenlive:original.kdenlive:id">208</property>
  <property name="kdenlive:original.mute_on_pause">0</property>
  <property name="kdenlive:original.kdenlive:file_size">56604</property>
  <property name="kdenlive:original.kdenlive:file_hash">3c6887a33ac2afb21883d218dd789bb3</property>
  <property name="kdenlive:original.backup">1</property>
  <property name="meta.media.top_field_first">0</property>
  <property name="meta.media.progressive">1</property>
 </chain>
 <chain id="chain107" out="00:00:01.483">
  <property name="length">90</property>
  <property name="eof">pause</property>
  <property name="resource">/home/xiaoxiae/.cache/kdenlive/proxy/ffefdfb1cde19adcb954e47e247b75fe.mkv</property>
  <property name="mlt_service">avformat-novalidate</property>
  <property name="meta.media.nb_streams">1</property>
  <property name="meta.media.0.stream.type">video</property>
  <property name="meta.media.0.stream.frame_rate">60</property>
  <property name="meta.media.0.stream.sample_aspect_ratio">0</property>
  <property name="meta.media.0.codec.width">640</property>
  <property name="meta.media.0.codec.height">360</property>
  <property name="meta.media.0.codec.rotate">0</property>
  <property name="meta.media.0.codec.pix_fmt">yuvj420p</property>
  <property name="meta.media.0.codec.sample_aspect_ratio">0</property>
  <property name="meta.media.0.codec.colorspace">601</property>
  <property name="meta.media.0.codec.name">mjpeg</property>
  <property name="meta.media.0.codec.long_name">MJPEG (Motion JPEG)</property>
  <property name="meta.media.0.codec.bit_rate">0</property>
  <property name="meta.attr.0.stream.HANDLER_NAME.markup">VideoHandler</property>
  <property name="meta.attr.0.stream.VENDOR_ID.markup">[0][0][0][0]</property>
  <property name="meta.attr.0.stream.ENCODER.markup">Lavc60.3.100 mjpeg</property>
  <property name="meta.attr.0.stream.DURATION.markup">00:00:01.500000000</property>
  <property name="meta.attr.COMMENT.markup">Rendered with Manim Community v0.17.3</property>
  <property name="meta.attr.MAJOR_BRAND.markup">isom</property>
  <property name="meta.attr.MINOR_VERSION.markup">512</property>
  <property name="meta.attr.COMPATIBLE_BRANDS.markup">isomiso2avc1mp41</property>
  <property name="meta.attr.ENCODER.markup">Lavf60.3.100</property>
  <property name="seekable">1</property>
  <property name="meta.media.sample_aspect_num">1</property>
  <property name="meta.media.sample_aspect_den">1</property>
  <property name="format">3</property>
  <property name="audio_index">-1</property>
  <property name="video_index">0</property>
  <property name="meta.media.frame_rate_num">60</property>
  <property name="meta.media.frame_rate_den">1</property>
  <property name="meta.media.colorspace">601</property>
  <property name="meta.media.color_trc">2</property>
  <property name="meta.media.has_b_frames">0</property>
  <property name="meta.media.width">640</property>
  <property name="meta.media.height">360</property>
  <property name="meta.media.color_range">full</property>
  <property name="kdenlive:clipname">14.mp4</property>
  <property name="kdenlive:clip_type">2</property>
  <property name="kdenlive:folderid">203</property>
  <property name="kdenlive:id">209</property>
  <property name="mute_on_pause">0</property>
  <property name="kdenlive:file_size">112373</property>
  <property name="kdenlive:file_hash">ffefdfb1cde19adcb954e47e247b75fe</property>
  <property name="kdenlive:proxy">/home/xiaoxiae/.cache/kdenlive/proxy/ffefdfb1cde19adcb954e47e247b75fe.mkv</property>
  <property name="kdenlive:originalurl">video/Knapsack/14.mp4</property>
  <property name="kdenlive:original.mlt_type">chain</property>
  <property name="kdenlive:original.in">0</property>
  <property name="kdenlive:original.out">00:00:01.483</property>
  <property name="kdenlive:original.length">90</property>
  <property name="kdenlive:original.eof">pause</property>
  <property name="kdenlive:original.resource">video/Knapsack/14.mp4</property>
  <property name="kdenlive:original.mlt_service">avformat-novalidate</property>
  <property name="kdenlive:original.meta.media.nb_streams">1</property>
  <property name="kdenlive:original.meta.media.0.stream.type">video</property>
  <property name="kdenlive:original.meta.media.0.stream.frame_rate">60</property>
  <property name="kdenlive:original.meta.media.0.stream.sample_aspect_ratio">0</property>
  <property name="kdenlive:original.meta.media.0.codec.width">1920</property>
  <property name="kdenlive:original.meta.media.0.codec.height">1080</property>
  <property name="kdenlive:original.meta.media.0.codec.rotate">0</property>
  <property name="kdenlive:original.meta.media.0.codec.pix_fmt">yuv420p</property>
  <property name="kdenlive:original.meta.media.0.codec.sample_aspect_ratio">0</property>
  <property name="kdenlive:original.meta.media.0.codec.colorspace">709</property>
  <property name="kdenlive:original.meta.media.0.codec.name">h264</property>
  <property name="kdenlive:original.meta.media.0.codec.long_name">H.264 / AVC / MPEG-4 AVC / MPEG-4 part 10</property>
  <property name="kdenlive:original.meta.media.0.codec.bit_rate">588869</property>
  <property name="kdenlive:original.meta.attr.0.stream.handler_name.markup">VideoHandler</property>
  <property name="kdenlive:original.meta.attr.0.stream.vendor_id.markup">[0][0][0][0]</property>
  <property name="kdenlive:original.meta.attr.0.stream.encoder.markup">Lavc60.3.100 libx264</property>
  <property name="kdenlive:original.meta.attr.major_brand.markup">isom</property>
  <property name="kdenlive:original.meta.attr.minor_version.markup">512</property>
  <property name="kdenlive:original.meta.attr.compatible_brands.markup">isomiso2avc1mp41</property>
  <property name="kdenlive:original.meta.attr.encoder.markup">Lavf60.3.100</property>
  <property name="kdenlive:original.meta.attr.comment.markup">Rendered with Manim Community v0.17.3</property>
  <property name="kdenlive:original.seekable">1</property>
  <property name="kdenlive:original.width">1920</property>
  <property name="kdenlive:original.height">1080</property>
  <property name="kdenlive:original.meta.media.sample_aspect_num">1</property>
  <property name="kdenlive:original.meta.media.sample_aspect_den">1</property>
  <property name="kdenlive:original.format">3</property>
  <property name="kdenlive:original.audio_index">-1</property>
  <property name="kdenlive:original.video_index">0</property>
  <property name="kdenlive:original.meta.media.frame_rate_num">60</property>
  <property name="kdenlive:original.meta.media.frame_rate_den">1</property>
  <property name="kdenlive:original.meta.media.colorspace">709</property>
  <property name="kdenlive:original.meta.media.color_trc">2</property>
  <property name="kdenlive:original.meta.media.has_b_frames">2</property>
  <property name="kdenlive:original.meta.media.width">1920</property>
  <property name="kdenlive:original.meta.media.height">1080</property>
  <property name="kdenlive:original.meta.media.color_range">mpeg</property>
  <property name="kdenlive:original.meta.media.top_field_first">0</property>
  <property name="kdenlive:original.meta.media.progressive">1</property>
  <property name="kdenlive:original.kdenlive:clip_type">2</property>
  <property name="kdenlive:original.kdenlive:folderid">203</property>
  <property name="kdenlive:original.kdenlive:id">209</property>
  <property name="kdenlive:original.mute_on_pause">0</property>
  <property name="kdenlive:original.kdenlive:file_size">112373</property>
  <property name="kdenlive:original.kdenlive:file_hash">ffefdfb1cde19adcb954e47e247b75fe</property>
  <property name="kdenlive:original.backup">1</property>
  <property name="meta.media.top_field_first">0</property>
  <property name="meta.media.progressive">1</property>
 </chain>
 <chain id="chain106" out="00:00:00.983">
  <property name="length">60</property>
  <property name="eof">pause</property>
  <property name="resource">/home/xiaoxiae/.cache/kdenlive/proxy/6d152e8b23a2c7bad683e8c1a382f2f2.mkv</property>
  <property name="mlt_service">avformat-novalidate</property>
  <property name="meta.media.nb_streams">1</property>
  <property name="meta.media.0.stream.type">video</property>
  <property name="meta.media.0.stream.frame_rate">60</property>
  <property name="meta.media.0.stream.sample_aspect_ratio">0</property>
  <property name="meta.media.0.codec.width">640</property>
  <property name="meta.media.0.codec.height">360</property>
  <property name="meta.media.0.codec.rotate">0</property>
  <property name="meta.media.0.codec.pix_fmt">yuvj420p</property>
  <property name="meta.media.0.codec.sample_aspect_ratio">0</property>
  <property name="meta.media.0.codec.colorspace">601</property>
  <property name="meta.media.0.codec.name">mjpeg</property>
  <property name="meta.media.0.codec.long_name">MJPEG (Motion JPEG)</property>
  <property name="meta.media.0.codec.bit_rate">0</property>
  <property name="meta.attr.0.stream.HANDLER_NAME.markup">VideoHandler</property>
  <property name="meta.attr.0.stream.VENDOR_ID.markup">[0][0][0][0]</property>
  <property name="meta.attr.0.stream.ENCODER.markup">Lavc60.3.100 mjpeg</property>
  <property name="meta.attr.0.stream.DURATION.markup">00:00:01.000000000</property>
  <property name="meta.attr.COMMENT.markup">Rendered with Manim Community v0.17.3</property>
  <property name="meta.attr.MAJOR_BRAND.markup">isom</property>
  <property name="meta.attr.MINOR_VERSION.markup">512</property>
  <property name="meta.attr.COMPATIBLE_BRANDS.markup">isomiso2avc1mp41</property>
  <property name="meta.attr.ENCODER.markup">Lavf60.3.100</property>
  <property name="seekable">1</property>
  <property name="meta.media.sample_aspect_num">1</property>
  <property name="meta.media.sample_aspect_den">1</property>
  <property name="format">3</property>
  <property name="audio_index">-1</property>
  <property name="video_index">0</property>
  <property name="meta.media.frame_rate_num">60</property>
  <property name="meta.media.frame_rate_den">1</property>
  <property name="meta.media.colorspace">601</property>
  <property name="meta.media.color_trc">2</property>
  <property name="meta.media.has_b_frames">0</property>
  <property name="meta.media.width">640</property>
  <property name="meta.media.height">360</property>
  <property name="meta.media.color_range">full</property>
  <property name="kdenlive:clipname">15.mp4</property>
  <property name="kdenlive:clip_type">2</property>
  <property name="kdenlive:folderid">203</property>
  <property name="kdenlive:id">210</property>
  <property name="mute_on_pause">0</property>
  <property name="kdenlive:file_size">63020</property>
  <property name="kdenlive:file_hash">6d152e8b23a2c7bad683e8c1a382f2f2</property>
  <property name="kdenlive:proxy">/home/xiaoxiae/.cache/kdenlive/proxy/6d152e8b23a2c7bad683e8c1a382f2f2.mkv</property>
  <property name="kdenlive:originalurl">video/Knapsack/15.mp4</property>
  <property name="kdenlive:original.mlt_type">chain</property>
  <property name="kdenlive:original.in">0</property>
  <property name="kdenlive:original.out">00:00:00.983</property>
  <property name="kdenlive:original.length">60</property>
  <property name="kdenlive:original.eof">pause</property>
  <property name="kdenlive:original.resource">video/Knapsack/15.mp4</property>
  <property name="kdenlive:original.mlt_service">avformat-novalidate</property>
  <property name="kdenlive:original.meta.media.nb_streams">1</property>
  <property name="kdenlive:original.meta.media.0.stream.type">video</property>
  <property name="kdenlive:original.meta.media.0.stream.frame_rate">60</property>
  <property name="kdenlive:original.meta.media.0.stream.sample_aspect_ratio">0</property>
  <property name="kdenlive:original.meta.media.0.codec.width">1920</property>
  <property name="kdenlive:original.meta.media.0.codec.height">1080</property>
  <property name="kdenlive:original.meta.media.0.codec.rotate">0</property>
  <property name="kdenlive:original.meta.media.0.codec.pix_fmt">yuv420p</property>
  <property name="kdenlive:original.meta.media.0.codec.sample_aspect_ratio">0</property>
  <property name="kdenlive:original.meta.media.0.codec.colorspace">709</property>
  <property name="kdenlive:original.meta.media.0.codec.name">h264</property>
  <property name="kdenlive:original.meta.media.0.codec.long_name">H.264 / AVC / MPEG-4 AVC / MPEG-4 part 10</property>
  <property name="kdenlive:original.meta.media.0.codec.bit_rate">491296</property>
  <property name="kdenlive:original.meta.attr.0.stream.handler_name.markup">VideoHandler</property>
  <property name="kdenlive:original.meta.attr.0.stream.vendor_id.markup">[0][0][0][0]</property>
  <property name="kdenlive:original.meta.attr.0.stream.encoder.markup">Lavc60.3.100 libx264</property>
  <property name="kdenlive:original.meta.attr.major_brand.markup">isom</property>
  <property name="kdenlive:original.meta.attr.minor_version.markup">512</property>
  <property name="kdenlive:original.meta.attr.compatible_brands.markup">isomiso2avc1mp41</property>
  <property name="kdenlive:original.meta.attr.encoder.markup">Lavf60.3.100</property>
  <property name="kdenlive:original.meta.attr.comment.markup">Rendered with Manim Community v0.17.3</property>
  <property name="kdenlive:original.seekable">1</property>
  <property name="kdenlive:original.width">1920</property>
  <property name="kdenlive:original.height">1080</property>
  <property name="kdenlive:original.meta.media.sample_aspect_num">1</property>
  <property name="kdenlive:original.meta.media.sample_aspect_den">1</property>
  <property name="kdenlive:original.format">3</property>
  <property name="kdenlive:original.audio_index">-1</property>
  <property name="kdenlive:original.video_index">0</property>
  <property name="kdenlive:original.meta.media.frame_rate_num">60</property>
  <property name="kdenlive:original.meta.media.frame_rate_den">1</property>
  <property name="kdenlive:original.meta.media.colorspace">709</property>
  <property name="kdenlive:original.meta.media.color_trc">2</property>
  <property name="kdenlive:original.meta.media.has_b_frames">2</property>
  <property name="kdenlive:original.meta.media.width">1920</property>
  <property name="kdenlive:original.meta.media.height">1080</property>
  <property name="kdenlive:original.meta.media.color_range">mpeg</property>
  <property name="kdenlive:original.meta.media.top_field_first">0</property>
  <property name="kdenlive:original.meta.media.progressive">1</property>
  <property name="kdenlive:original.kdenlive:clip_type">2</property>
  <property name="kdenlive:original.kdenlive:folderid">203</property>
  <property name="kdenlive:original.kdenlive:id">210</property>
  <property name="kdenlive:original.mute_on_pause">0</property>
  <property name="kdenlive:original.kdenlive:file_size">63020</property>
  <property name="kdenlive:original.kdenlive:file_hash">6d152e8b23a2c7bad683e8c1a382f2f2</property>
  <property name="kdenlive:original.backup">1</property>
  <property name="meta.media.top_field_first">0</property>
  <property name="meta.media.progressive">1</property>
 </chain>
 <chain id="chain105" out="00:00:00.983">
  <property name="length">60</property>
  <property name="eof">pause</property>
  <property name="resource">/home/xiaoxiae/.cache/kdenlive/proxy/dbb559b004dde4861f55aa34094a3d51.mkv</property>
  <property name="mlt_service">avformat-novalidate</property>
  <property name="meta.media.nb_streams">1</property>
  <property name="meta.media.0.stream.type">video</property>
  <property name="meta.media.0.stream.frame_rate">60</property>
  <property name="meta.media.0.stream.sample_aspect_ratio">0</property>
  <property name="meta.media.0.codec.width">640</property>
  <property name="meta.media.0.codec.height">360</property>
  <property name="meta.media.0.codec.rotate">0</property>
  <property name="meta.media.0.codec.pix_fmt">yuvj420p</property>
  <property name="meta.media.0.codec.sample_aspect_ratio">0</property>
  <property name="meta.media.0.codec.colorspace">601</property>
  <property name="meta.media.0.codec.name">mjpeg</property>
  <property name="meta.media.0.codec.long_name">MJPEG (Motion JPEG)</property>
  <property name="meta.media.0.codec.bit_rate">0</property>
  <property name="meta.attr.0.stream.HANDLER_NAME.markup">VideoHandler</property>
  <property name="meta.attr.0.stream.VENDOR_ID.markup">[0][0][0][0]</property>
  <property name="meta.attr.0.stream.ENCODER.markup">Lavc60.3.100 mjpeg</property>
  <property name="meta.attr.0.stream.DURATION.markup">00:00:01.000000000</property>
  <property name="meta.attr.COMMENT.markup">Rendered with Manim Community v0.17.3</property>
  <property name="meta.attr.MAJOR_BRAND.markup">isom</property>
  <property name="meta.attr.MINOR_VERSION.markup">512</property>
  <property name="meta.attr.COMPATIBLE_BRANDS.markup">isomiso2avc1mp41</property>
  <property name="meta.attr.ENCODER.markup">Lavf60.3.100</property>
  <property name="seekable">1</property>
  <property name="meta.media.sample_aspect_num">1</property>
  <property name="meta.media.sample_aspect_den">1</property>
  <property name="format">3</property>
  <property name="audio_index">-1</property>
  <property name="video_index">0</property>
  <property name="meta.media.frame_rate_num">60</property>
  <property name="meta.media.frame_rate_den">1</property>
  <property name="meta.media.colorspace">601</property>
  <property name="meta.media.color_trc">2</property>
  <property name="meta.media.has_b_frames">0</property>
  <property name="meta.media.width">640</property>
  <property name="meta.media.height">360</property>
  <property name="meta.media.color_range">full</property>
  <property name="kdenlive:clipname">16.mp4</property>
  <property name="kdenlive:clip_type">2</property>
  <property name="kdenlive:folderid">203</property>
  <property name="kdenlive:id">211</property>
  <property name="mute_on_pause">0</property>
  <property name="kdenlive:file_size">108962</property>
  <property name="kdenlive:file_hash">dbb559b004dde4861f55aa34094a3d51</property>
  <property name="kdenlive:proxy">/home/xiaoxiae/.cache/kdenlive/proxy/dbb559b004dde4861f55aa34094a3d51.mkv</property>
  <property name="kdenlive:originalurl">video/Knapsack/16.mp4</property>
  <property name="kdenlive:original.mlt_type">chain</property>
  <property name="kdenlive:original.in">0</property>
  <property name="kdenlive:original.out">00:00:00.983</property>
  <property name="kdenlive:original.length">60</property>
  <property name="kdenlive:original.eof">pause</property>
  <property name="kdenlive:original.resource">video/Knapsack/16.mp4</property>
  <property name="kdenlive:original.mlt_service">avformat-novalidate</property>
  <property name="kdenlive:original.meta.media.nb_streams">1</property>
  <property name="kdenlive:original.meta.media.0.stream.type">video</property>
  <property name="kdenlive:original.meta.media.0.stream.frame_rate">60</property>
  <property name="kdenlive:original.meta.media.0.stream.sample_aspect_ratio">0</property>
  <property name="kdenlive:original.meta.media.0.codec.width">1920</property>
  <property name="kdenlive:original.meta.media.0.codec.height">1080</property>
  <property name="kdenlive:original.meta.media.0.codec.rotate">0</property>
  <property name="kdenlive:original.meta.media.0.codec.pix_fmt">yuv420p</property>
  <property name="kdenlive:original.meta.media.0.codec.sample_aspect_ratio">0</property>
  <property name="kdenlive:original.meta.media.0.codec.colorspace">709</property>
  <property name="kdenlive:original.meta.media.0.codec.name">h264</property>
  <property name="kdenlive:original.meta.media.0.codec.long_name">H.264 / AVC / MPEG-4 AVC / MPEG-4 part 10</property>
  <property name="kdenlive:original.meta.media.0.codec.bit_rate">860048</property>
  <property name="kdenlive:original.meta.attr.0.stream.handler_name.markup">VideoHandler</property>
  <property name="kdenlive:original.meta.attr.0.stream.vendor_id.markup">[0][0][0][0]</property>
  <property name="kdenlive:original.meta.attr.0.stream.encoder.markup">Lavc60.3.100 libx264</property>
  <property name="kdenlive:original.meta.attr.major_brand.markup">isom</property>
  <property name="kdenlive:original.meta.attr.minor_version.markup">512</property>
  <property name="kdenlive:original.meta.attr.compatible_brands.markup">isomiso2avc1mp41</property>
  <property name="kdenlive:original.meta.attr.encoder.markup">Lavf60.3.100</property>
  <property name="kdenlive:original.meta.attr.comment.markup">Rendered with Manim Community v0.17.3</property>
  <property name="kdenlive:original.seekable">1</property>
  <property name="kdenlive:original.width">1920</property>
  <property name="kdenlive:original.height">1080</property>
  <property name="kdenlive:original.meta.media.sample_aspect_num">1</property>
  <property name="kdenlive:original.meta.media.sample_aspect_den">1</property>
  <property name="kdenlive:original.format">3</property>
  <property name="kdenlive:original.audio_index">-1</property>
  <property name="kdenlive:original.video_index">0</property>
  <property name="kdenlive:original.meta.media.frame_rate_num">60</property>
  <property name="kdenlive:original.meta.media.frame_rate_den">1</property>
  <property name="kdenlive:original.meta.media.colorspace">709</property>
  <property name="kdenlive:original.meta.media.color_trc">2</property>
  <property name="kdenlive:original.meta.media.has_b_frames">2</property>
  <property name="kdenlive:original.meta.media.width">1920</property>
  <property name="kdenlive:original.meta.media.height">1080</property>
  <property name="kdenlive:original.meta.media.color_range">mpeg</property>
  <property name="kdenlive:original.meta.media.top_field_first">0</property>
  <property name="kdenlive:original.meta.media.progressive">1</property>
  <property name="kdenlive:original.kdenlive:clip_type">2</property>
  <property name="kdenlive:original.kdenlive:folderid">203</property>
  <property name="kdenlive:original.kdenlive:id">211</property>
  <property name="kdenlive:original.mute_on_pause">0</property>
  <property name="kdenlive:original.kdenlive:file_size">108962</property>
  <property name="kdenlive:original.kdenlive:file_hash">dbb559b004dde4861f55aa34094a3d51</property>
  <property name="kdenlive:original.backup">1</property>
  <property name="meta.media.top_field_first">0</property>
  <property name="meta.media.progressive">1</property>
 </chain>
 <chain id="chain104" out="00:00:00.983">
  <property name="length">60</property>
  <property name="eof">pause</property>
  <property name="resource">/home/xiaoxiae/.cache/kdenlive/proxy/2cc1828befd7d4515060ffe52ad8d52e.mkv</property>
  <property name="mlt_service">avformat-novalidate</property>
  <property name="meta.media.nb_streams">1</property>
  <property name="meta.media.0.stream.type">video</property>
  <property name="meta.media.0.stream.frame_rate">60</property>
  <property name="meta.media.0.stream.sample_aspect_ratio">0</property>
  <property name="meta.media.0.codec.width">640</property>
  <property name="meta.media.0.codec.height">360</property>
  <property name="meta.media.0.codec.rotate">0</property>
  <property name="meta.media.0.codec.pix_fmt">yuvj420p</property>
  <property name="meta.media.0.codec.sample_aspect_ratio">0</property>
  <property name="meta.media.0.codec.colorspace">601</property>
  <property name="meta.media.0.codec.name">mjpeg</property>
  <property name="meta.media.0.codec.long_name">MJPEG (Motion JPEG)</property>
  <property name="meta.media.0.codec.bit_rate">0</property>
  <property name="meta.attr.0.stream.HANDLER_NAME.markup">VideoHandler</property>
  <property name="meta.attr.0.stream.VENDOR_ID.markup">[0][0][0][0]</property>
  <property name="meta.attr.0.stream.ENCODER.markup">Lavc60.3.100 mjpeg</property>
  <property name="meta.attr.0.stream.DURATION.markup">00:00:01.000000000</property>
  <property name="meta.attr.COMMENT.markup">Rendered with Manim Community v0.17.3</property>
  <property name="meta.attr.MAJOR_BRAND.markup">isom</property>
  <property name="meta.attr.MINOR_VERSION.markup">512</property>
  <property name="meta.attr.COMPATIBLE_BRANDS.markup">isomiso2avc1mp41</property>
  <property name="meta.attr.ENCODER.markup">Lavf60.3.100</property>
  <property name="seekable">1</property>
  <property name="meta.media.sample_aspect_num">1</property>
  <property name="meta.media.sample_aspect_den">1</property>
  <property name="format">3</property>
  <property name="audio_index">-1</property>
  <property name="video_index">0</property>
  <property name="meta.media.frame_rate_num">60</property>
  <property name="meta.media.frame_rate_den">1</property>
  <property name="meta.media.colorspace">601</property>
  <property name="meta.media.color_trc">2</property>
  <property name="meta.media.has_b_frames">0</property>
  <property name="meta.media.width">640</property>
  <property name="meta.media.height">360</property>
  <property name="meta.media.color_range">full</property>
  <property name="kdenlive:clipname">17.mp4</property>
  <property name="kdenlive:clip_type">2</property>
  <property name="kdenlive:folderid">203</property>
  <property name="kdenlive:id">212</property>
  <property name="mute_on_pause">0</property>
  <property name="kdenlive:file_size">94963</property>
  <property name="kdenlive:file_hash">2cc1828befd7d4515060ffe52ad8d52e</property>
  <property name="kdenlive:proxy">/home/xiaoxiae/.cache/kdenlive/proxy/2cc1828befd7d4515060ffe52ad8d52e.mkv</property>
  <property name="kdenlive:originalurl">video/Knapsack/17.mp4</property>
  <property name="kdenlive:original.mlt_type">chain</property>
  <property name="kdenlive:original.in">0</property>
  <property name="kdenlive:original.out">00:00:00.983</property>
  <property name="kdenlive:original.length">60</property>
  <property name="kdenlive:original.eof">pause</property>
  <property name="kdenlive:original.resource">video/Knapsack/17.mp4</property>
  <property name="kdenlive:original.mlt_service">avformat-novalidate</property>
  <property name="kdenlive:original.meta.media.nb_streams">1</property>
  <property name="kdenlive:original.meta.media.0.stream.type">video</property>
  <property name="kdenlive:original.meta.media.0.stream.frame_rate">60</property>
  <property name="kdenlive:original.meta.media.0.stream.sample_aspect_ratio">0</property>
  <property name="kdenlive:original.meta.media.0.codec.width">1920</property>
  <property name="kdenlive:original.meta.media.0.codec.height">1080</property>
  <property name="kdenlive:original.meta.media.0.codec.rotate">0</property>
  <property name="kdenlive:original.meta.media.0.codec.pix_fmt">yuv420p</property>
  <property name="kdenlive:original.meta.media.0.codec.sample_aspect_ratio">0</property>
  <property name="kdenlive:original.meta.media.0.codec.colorspace">709</property>
  <property name="kdenlive:original.meta.media.0.codec.name">h264</property>
  <property name="kdenlive:original.meta.media.0.codec.long_name">H.264 / AVC / MPEG-4 AVC / MPEG-4 part 10</property>
  <property name="kdenlive:original.meta.media.0.codec.bit_rate">747800</property>
  <property name="kdenlive:original.meta.attr.0.stream.handler_name.markup">VideoHandler</property>
  <property name="kdenlive:original.meta.attr.0.stream.vendor_id.markup">[0][0][0][0]</property>
  <property name="kdenlive:original.meta.attr.0.stream.encoder.markup">Lavc60.3.100 libx264</property>
  <property name="kdenlive:original.meta.attr.major_brand.markup">isom</property>
  <property name="kdenlive:original.meta.attr.minor_version.markup">512</property>
  <property name="kdenlive:original.meta.attr.compatible_brands.markup">isomiso2avc1mp41</property>
  <property name="kdenlive:original.meta.attr.encoder.markup">Lavf60.3.100</property>
  <property name="kdenlive:original.meta.attr.comment.markup">Rendered with Manim Community v0.17.3</property>
  <property name="kdenlive:original.seekable">1</property>
  <property name="kdenlive:original.width">1920</property>
  <property name="kdenlive:original.height">1080</property>
  <property name="kdenlive:original.meta.media.sample_aspect_num">1</property>
  <property name="kdenlive:original.meta.media.sample_aspect_den">1</property>
  <property name="kdenlive:original.format">3</property>
  <property name="kdenlive:original.audio_index">-1</property>
  <property name="kdenlive:original.video_index">0</property>
  <property name="kdenlive:original.meta.media.frame_rate_num">60</property>
  <property name="kdenlive:original.meta.media.frame_rate_den">1</property>
  <property name="kdenlive:original.meta.media.colorspace">709</property>
  <property name="kdenlive:original.meta.media.color_trc">2</property>
  <property name="kdenlive:original.meta.media.has_b_frames">2</property>
  <property name="kdenlive:original.meta.media.width">1920</property>
  <property name="kdenlive:original.meta.media.height">1080</property>
  <property name="kdenlive:original.meta.media.color_range">mpeg</property>
  <property name="kdenlive:original.meta.media.top_field_first">0</property>
  <property name="kdenlive:original.meta.media.progressive">1</property>
  <property name="kdenlive:original.kdenlive:clip_type">2</property>
  <property name="kdenlive:original.kdenlive:folderid">203</property>
  <property name="kdenlive:original.kdenlive:id">212</property>
  <property name="kdenlive:original.mute_on_pause">0</property>
  <property name="kdenlive:original.kdenlive:file_size">94963</property>
  <property name="kdenlive:original.kdenlive:file_hash">2cc1828befd7d4515060ffe52ad8d52e</property>
  <property name="kdenlive:original.backup">1</property>
  <property name="meta.media.top_field_first">0</property>
  <property name="meta.media.progressive">1</property>
 </chain>
 <chain id="chain103" out="00:00:01.483">
  <property name="length">90</property>
  <property name="eof">pause</property>
  <property name="resource">/home/xiaoxiae/.cache/kdenlive/proxy/8020e0bce46d9e17990476a5958e6830.mkv</property>
  <property name="mlt_service">avformat-novalidate</property>
  <property name="meta.media.nb_streams">1</property>
  <property name="meta.media.0.stream.type">video</property>
  <property name="meta.media.0.stream.frame_rate">60</property>
  <property name="meta.media.0.stream.sample_aspect_ratio">0</property>
  <property name="meta.media.0.codec.width">640</property>
  <property name="meta.media.0.codec.height">360</property>
  <property name="meta.media.0.codec.rotate">0</property>
  <property name="meta.media.0.codec.pix_fmt">yuvj420p</property>
  <property name="meta.media.0.codec.sample_aspect_ratio">0</property>
  <property name="meta.media.0.codec.colorspace">601</property>
  <property name="meta.media.0.codec.name">mjpeg</property>
  <property name="meta.media.0.codec.long_name">MJPEG (Motion JPEG)</property>
  <property name="meta.media.0.codec.bit_rate">0</property>
  <property name="meta.attr.0.stream.HANDLER_NAME.markup">VideoHandler</property>
  <property name="meta.attr.0.stream.VENDOR_ID.markup">[0][0][0][0]</property>
  <property name="meta.attr.0.stream.ENCODER.markup">Lavc60.3.100 mjpeg</property>
  <property name="meta.attr.0.stream.DURATION.markup">00:00:01.500000000</property>
  <property name="meta.attr.COMMENT.markup">Rendered with Manim Community v0.17.3</property>
  <property name="meta.attr.MAJOR_BRAND.markup">isom</property>
  <property name="meta.attr.MINOR_VERSION.markup">512</property>
  <property name="meta.attr.COMPATIBLE_BRANDS.markup">isomiso2avc1mp41</property>
  <property name="meta.attr.ENCODER.markup">Lavf60.3.100</property>
  <property name="seekable">1</property>
  <property name="meta.media.sample_aspect_num">1</property>
  <property name="meta.media.sample_aspect_den">1</property>
  <property name="format">3</property>
  <property name="audio_index">-1</property>
  <property name="video_index">0</property>
  <property name="meta.media.frame_rate_num">60</property>
  <property name="meta.media.frame_rate_den">1</property>
  <property name="meta.media.colorspace">601</property>
  <property name="meta.media.color_trc">2</property>
  <property name="meta.media.has_b_frames">0</property>
  <property name="meta.media.width">640</property>
  <property name="meta.media.height">360</property>
  <property name="meta.media.color_range">full</property>
  <property name="kdenlive:clipname">18.mp4</property>
  <property name="kdenlive:clip_type">2</property>
  <property name="kdenlive:folderid">203</property>
  <property name="kdenlive:id">213</property>
  <property name="mute_on_pause">0</property>
  <property name="kdenlive:file_size">124404</property>
  <property name="kdenlive:file_hash">8020e0bce46d9e17990476a5958e6830</property>
  <property name="kdenlive:proxy">/home/xiaoxiae/.cache/kdenlive/proxy/8020e0bce46d9e17990476a5958e6830.mkv</property>
  <property name="kdenlive:originalurl">video/Knapsack/18.mp4</property>
  <property name="kdenlive:original.mlt_type">chain</property>
  <property name="kdenlive:original.in">0</property>
  <property name="kdenlive:original.out">00:00:01.483</property>
  <property name="kdenlive:original.length">90</property>
  <property name="kdenlive:original.eof">pause</property>
  <property name="kdenlive:original.resource">video/Knapsack/18.mp4</property>
  <property name="kdenlive:original.mlt_service">avformat-novalidate</property>
  <property name="kdenlive:original.meta.media.nb_streams">1</property>
  <property name="kdenlive:original.meta.media.0.stream.type">video</property>
  <property name="kdenlive:original.meta.media.0.stream.frame_rate">60</property>
  <property name="kdenlive:original.meta.media.0.stream.sample_aspect_ratio">0</property>
  <property name="kdenlive:original.meta.media.0.codec.width">1920</property>
  <property name="kdenlive:original.meta.media.0.codec.height">1080</property>
  <property name="kdenlive:original.meta.media.0.codec.rotate">0</property>
  <property name="kdenlive:original.meta.media.0.codec.pix_fmt">yuv420p</property>
  <property name="kdenlive:original.meta.media.0.codec.sample_aspect_ratio">0</property>
  <property name="kdenlive:original.meta.media.0.codec.colorspace">709</property>
  <property name="kdenlive:original.meta.media.0.codec.name">h264</property>
  <property name="kdenlive:original.meta.media.0.codec.long_name">H.264 / AVC / MPEG-4 AVC / MPEG-4 part 10</property>
  <property name="kdenlive:original.meta.media.0.codec.bit_rate">653290</property>
  <property name="kdenlive:original.meta.attr.0.stream.handler_name.markup">VideoHandler</property>
  <property name="kdenlive:original.meta.attr.0.stream.vendor_id.markup">[0][0][0][0]</property>
  <property name="kdenlive:original.meta.attr.0.stream.encoder.markup">Lavc60.3.100 libx264</property>
  <property name="kdenlive:original.meta.attr.major_brand.markup">isom</property>
  <property name="kdenlive:original.meta.attr.minor_version.markup">512</property>
  <property name="kdenlive:original.meta.attr.compatible_brands.markup">isomiso2avc1mp41</property>
  <property name="kdenlive:original.meta.attr.encoder.markup">Lavf60.3.100</property>
  <property name="kdenlive:original.meta.attr.comment.markup">Rendered with Manim Community v0.17.3</property>
  <property name="kdenlive:original.seekable">1</property>
  <property name="kdenlive:original.width">1920</property>
  <property name="kdenlive:original.height">1080</property>
  <property name="kdenlive:original.meta.media.sample_aspect_num">1</property>
  <property name="kdenlive:original.meta.media.sample_aspect_den">1</property>
  <property name="kdenlive:original.format">3</property>
  <property name="kdenlive:original.audio_index">-1</property>
  <property name="kdenlive:original.video_index">0</property>
  <property name="kdenlive:original.meta.media.frame_rate_num">60</property>
  <property name="kdenlive:original.meta.media.frame_rate_den">1</property>
  <property name="kdenlive:original.meta.media.colorspace">709</property>
  <property name="kdenlive:original.meta.media.color_trc">2</property>
  <property name="kdenlive:original.meta.media.has_b_frames">2</property>
  <property name="kdenlive:original.meta.media.width">1920</property>
  <property name="kdenlive:original.meta.media.height">1080</property>
  <property name="kdenlive:original.meta.media.color_range">mpeg</property>
  <property name="kdenlive:original.meta.media.top_field_first">0</property>
  <property name="kdenlive:original.meta.media.progressive">1</property>
  <property name="kdenlive:original.kdenlive:clip_type">2</property>
  <property name="kdenlive:original.kdenlive:folderid">203</property>
  <property name="kdenlive:original.kdenlive:id">213</property>
  <property name="kdenlive:original.mute_on_pause">0</property>
  <property name="kdenlive:original.kdenlive:file_size">124404</property>
  <property name="kdenlive:original.kdenlive:file_hash">8020e0bce46d9e17990476a5958e6830</property>
  <property name="kdenlive:original.backup">1</property>
  <property name="meta.media.top_field_first">0</property>
  <property name="meta.media.progressive">1</property>
 </chain>
 <chain id="chain102" out="00:00:00.983">
  <property name="length">60</property>
  <property name="eof">pause</property>
  <property name="resource">/home/xiaoxiae/.cache/kdenlive/proxy/fa63d02670ab772ee2c7939248b63676.mkv</property>
  <property name="mlt_service">avformat-novalidate</property>
  <property name="meta.media.nb_streams">1</property>
  <property name="meta.media.0.stream.type">video</property>
  <property name="meta.media.0.stream.frame_rate">60</property>
  <property name="meta.media.0.stream.sample_aspect_ratio">0</property>
  <property name="meta.media.0.codec.width">640</property>
  <property name="meta.media.0.codec.height">360</property>
  <property name="meta.media.0.codec.rotate">0</property>
  <property name="meta.media.0.codec.pix_fmt">yuvj420p</property>
  <property name="meta.media.0.codec.sample_aspect_ratio">0</property>
  <property name="meta.media.0.codec.colorspace">601</property>
  <property name="meta.media.0.codec.name">mjpeg</property>
  <property name="meta.media.0.codec.long_name">MJPEG (Motion JPEG)</property>
  <property name="meta.media.0.codec.bit_rate">0</property>
  <property name="meta.attr.0.stream.HANDLER_NAME.markup">VideoHandler</property>
  <property name="meta.attr.0.stream.VENDOR_ID.markup">[0][0][0][0]</property>
  <property name="meta.attr.0.stream.ENCODER.markup">Lavc60.3.100 mjpeg</property>
  <property name="meta.attr.0.stream.DURATION.markup">00:00:01.000000000</property>
  <property name="meta.attr.COMMENT.markup">Rendered with Manim Community v0.17.3</property>
  <property name="meta.attr.MAJOR_BRAND.markup">isom</property>
  <property name="meta.attr.MINOR_VERSION.markup">512</property>
  <property name="meta.attr.COMPATIBLE_BRANDS.markup">isomiso2avc1mp41</property>
  <property name="meta.attr.ENCODER.markup">Lavf60.3.100</property>
  <property name="seekable">1</property>
  <property name="meta.media.sample_aspect_num">1</property>
  <property name="meta.media.sample_aspect_den">1</property>
  <property name="format">3</property>
  <property name="audio_index">-1</property>
  <property name="video_index">0</property>
  <property name="meta.media.frame_rate_num">60</property>
  <property name="meta.media.frame_rate_den">1</property>
  <property name="meta.media.colorspace">601</property>
  <property name="meta.media.color_trc">2</property>
  <property name="meta.media.has_b_frames">0</property>
  <property name="meta.media.width">640</property>
  <property name="meta.media.height">360</property>
  <property name="meta.media.color_range">full</property>
  <property name="kdenlive:clipname">19.mp4</property>
  <property name="kdenlive:clip_type">2</property>
  <property name="kdenlive:folderid">203</property>
  <property name="kdenlive:id">214</property>
  <property name="mute_on_pause">0</property>
  <property name="kdenlive:file_size">358315</property>
  <property name="kdenlive:file_hash">fa63d02670ab772ee2c7939248b63676</property>
  <property name="kdenlive:proxy">/home/xiaoxiae/.cache/kdenlive/proxy/fa63d02670ab772ee2c7939248b63676.mkv</property>
  <property name="kdenlive:originalurl">video/Knapsack/19.mp4</property>
  <property name="kdenlive:original.mlt_type">chain</property>
  <property name="kdenlive:original.in">0</property>
  <property name="kdenlive:original.out">00:00:00.983</property>
  <property name="kdenlive:original.length">60</property>
  <property name="kdenlive:original.eof">pause</property>
  <property name="kdenlive:original.resource">video/Knapsack/19.mp4</property>
  <property name="kdenlive:original.mlt_service">avformat-novalidate</property>
  <property name="kdenlive:original.meta.media.nb_streams">1</property>
  <property name="kdenlive:original.meta.media.0.stream.type">video</property>
  <property name="kdenlive:original.meta.media.0.stream.frame_rate">60</property>
  <property name="kdenlive:original.meta.media.0.stream.sample_aspect_ratio">0</property>
  <property name="kdenlive:original.meta.media.0.codec.width">1920</property>
  <property name="kdenlive:original.meta.media.0.codec.height">1080</property>
  <property name="kdenlive:original.meta.media.0.codec.rotate">0</property>
  <property name="kdenlive:original.meta.media.0.codec.pix_fmt">yuv420p</property>
  <property name="kdenlive:original.meta.media.0.codec.sample_aspect_ratio">0</property>
  <property name="kdenlive:original.meta.media.0.codec.colorspace">709</property>
  <property name="kdenlive:original.meta.media.0.codec.name">h264</property>
  <property name="kdenlive:original.meta.media.0.codec.long_name">H.264 / AVC / MPEG-4 AVC / MPEG-4 part 10</property>
  <property name="kdenlive:original.meta.media.0.codec.bit_rate">2853592</property>
  <property name="kdenlive:original.meta.attr.0.stream.handler_name.markup">VideoHandler</property>
  <property name="kdenlive:original.meta.attr.0.stream.vendor_id.markup">[0][0][0][0]</property>
  <property name="kdenlive:original.meta.attr.0.stream.encoder.markup">Lavc60.3.100 libx264</property>
  <property name="kdenlive:original.meta.attr.major_brand.markup">isom</property>
  <property name="kdenlive:original.meta.attr.minor_version.markup">512</property>
  <property name="kdenlive:original.meta.attr.compatible_brands.markup">isomiso2avc1mp41</property>
  <property name="kdenlive:original.meta.attr.encoder.markup">Lavf60.3.100</property>
  <property name="kdenlive:original.meta.attr.comment.markup">Rendered with Manim Community v0.17.3</property>
  <property name="kdenlive:original.seekable">1</property>
  <property name="kdenlive:original.width">1920</property>
  <property name="kdenlive:original.height">1080</property>
  <property name="kdenlive:original.meta.media.sample_aspect_num">1</property>
  <property name="kdenlive:original.meta.media.sample_aspect_den">1</property>
  <property name="kdenlive:original.format">3</property>
  <property name="kdenlive:original.audio_index">-1</property>
  <property name="kdenlive:original.video_index">0</property>
  <property name="kdenlive:original.meta.media.frame_rate_num">60</property>
  <property name="kdenlive:original.meta.media.frame_rate_den">1</property>
  <property name="kdenlive:original.meta.media.colorspace">709</property>
  <property name="kdenlive:original.meta.media.color_trc">2</property>
  <property name="kdenlive:original.meta.media.has_b_frames">2</property>
  <property name="kdenlive:original.meta.media.width">1920</property>
  <property name="kdenlive:original.meta.media.height">1080</property>
  <property name="kdenlive:original.meta.media.color_range">mpeg</property>
  <property name="kdenlive:original.meta.media.top_field_first">0</property>
  <property name="kdenlive:original.meta.media.progressive">1</property>
  <property name="kdenlive:original.kdenlive:clip_type">2</property>
  <property name="kdenlive:original.kdenlive:folderid">203</property>
  <property name="kdenlive:original.kdenlive:id">214</property>
  <property name="kdenlive:original.mute_on_pause">0</property>
  <property name="kdenlive:original.kdenlive:file_size">358315</property>
  <property name="kdenlive:original.kdenlive:file_hash">fa63d02670ab772ee2c7939248b63676</property>
  <property name="kdenlive:original.backup">1</property>
  <property name="meta.media.top_field_first">0</property>
  <property name="meta.media.progressive">1</property>
 </chain>
 <chain id="chain119" out="00:00:01.483">
  <property name="length">90</property>
  <property name="eof">pause</property>
  <property name="resource">/home/xiaoxiae/.cache/kdenlive/proxy/04ef25b3b4955b37daa0adcb5923d36e.mkv</property>
  <property name="mlt_service">avformat-novalidate</property>
  <property name="meta.media.nb_streams">1</property>
  <property name="meta.media.0.stream.type">video</property>
  <property name="meta.media.0.stream.frame_rate">60</property>
  <property name="meta.media.0.stream.sample_aspect_ratio">0</property>
  <property name="meta.media.0.codec.width">640</property>
  <property name="meta.media.0.codec.height">360</property>
  <property name="meta.media.0.codec.rotate">0</property>
  <property name="meta.media.0.codec.pix_fmt">yuvj420p</property>
  <property name="meta.media.0.codec.sample_aspect_ratio">0</property>
  <property name="meta.media.0.codec.colorspace">601</property>
  <property name="meta.media.0.codec.name">mjpeg</property>
  <property name="meta.media.0.codec.long_name">MJPEG (Motion JPEG)</property>
  <property name="meta.media.0.codec.bit_rate">0</property>
  <property name="meta.attr.0.stream.HANDLER_NAME.markup">VideoHandler</property>
  <property name="meta.attr.0.stream.VENDOR_ID.markup">[0][0][0][0]</property>
  <property name="meta.attr.0.stream.ENCODER.markup">Lavc60.3.100 mjpeg</property>
  <property name="meta.attr.0.stream.DURATION.markup">00:00:01.500000000</property>
  <property name="meta.attr.COMMENT.markup">Rendered with Manim Community v0.17.3</property>
  <property name="meta.attr.MAJOR_BRAND.markup">isom</property>
  <property name="meta.attr.MINOR_VERSION.markup">512</property>
  <property name="meta.attr.COMPATIBLE_BRANDS.markup">isomiso2avc1mp41</property>
  <property name="meta.attr.ENCODER.markup">Lavf60.3.100</property>
  <property name="seekable">1</property>
  <property name="meta.media.sample_aspect_num">1</property>
  <property name="meta.media.sample_aspect_den">1</property>
  <property name="format">3</property>
  <property name="audio_index">-1</property>
  <property name="video_index">0</property>
  <property name="meta.media.frame_rate_num">60</property>
  <property name="meta.media.frame_rate_den">1</property>
  <property name="meta.media.colorspace">601</property>
  <property name="meta.media.color_trc">2</property>
  <property name="meta.media.has_b_frames">0</property>
  <property name="meta.media.width">640</property>
  <property name="meta.media.height">360</property>
  <property name="meta.media.color_range">full</property>
  <property name="kdenlive:clipname">2.mp4</property>
  <property name="kdenlive:clip_type">2</property>
  <property name="kdenlive:folderid">203</property>
  <property name="kdenlive:id">215</property>
  <property name="mute_on_pause">0</property>
  <property name="kdenlive:file_size">94925</property>
  <property name="kdenlive:file_hash">04ef25b3b4955b37daa0adcb5923d36e</property>
  <property name="kdenlive:proxy">/home/xiaoxiae/.cache/kdenlive/proxy/04ef25b3b4955b37daa0adcb5923d36e.mkv</property>
  <property name="kdenlive:originalurl">video/Knapsack/2.mp4</property>
  <property name="kdenlive:original.mlt_type">chain</property>
  <property name="kdenlive:original.in">0</property>
  <property name="kdenlive:original.out">00:00:01.483</property>
  <property name="kdenlive:original.length">90</property>
  <property name="kdenlive:original.eof">pause</property>
  <property name="kdenlive:original.resource">video/Knapsack/2.mp4</property>
  <property name="kdenlive:original.mlt_service">avformat-novalidate</property>
  <property name="kdenlive:original.meta.media.nb_streams">1</property>
  <property name="kdenlive:original.meta.media.0.stream.type">video</property>
  <property name="kdenlive:original.meta.media.0.stream.frame_rate">60</property>
  <property name="kdenlive:original.meta.media.0.stream.sample_aspect_ratio">0</property>
  <property name="kdenlive:original.meta.media.0.codec.width">1920</property>
  <property name="kdenlive:original.meta.media.0.codec.height">1080</property>
  <property name="kdenlive:original.meta.media.0.codec.rotate">0</property>
  <property name="kdenlive:original.meta.media.0.codec.pix_fmt">yuv420p</property>
  <property name="kdenlive:original.meta.media.0.codec.sample_aspect_ratio">0</property>
  <property name="kdenlive:original.meta.media.0.codec.colorspace">709</property>
  <property name="kdenlive:original.meta.media.0.codec.name">h264</property>
  <property name="kdenlive:original.meta.media.0.codec.long_name">H.264 / AVC / MPEG-4 AVC / MPEG-4 part 10</property>
  <property name="kdenlive:original.meta.media.0.codec.bit_rate">495941</property>
  <property name="kdenlive:original.meta.attr.0.stream.handler_name.markup">VideoHandler</property>
  <property name="kdenlive:original.meta.attr.0.stream.vendor_id.markup">[0][0][0][0]</property>
  <property name="kdenlive:original.meta.attr.0.stream.encoder.markup">Lavc60.3.100 libx264</property>
  <property name="kdenlive:original.meta.attr.major_brand.markup">isom</property>
  <property name="kdenlive:original.meta.attr.minor_version.markup">512</property>
  <property name="kdenlive:original.meta.attr.compatible_brands.markup">isomiso2avc1mp41</property>
  <property name="kdenlive:original.meta.attr.encoder.markup">Lavf60.3.100</property>
  <property name="kdenlive:original.meta.attr.comment.markup">Rendered with Manim Community v0.17.3</property>
  <property name="kdenlive:original.seekable">1</property>
  <property name="kdenlive:original.width">1920</property>
  <property name="kdenlive:original.height">1080</property>
  <property name="kdenlive:original.meta.media.sample_aspect_num">1</property>
  <property name="kdenlive:original.meta.media.sample_aspect_den">1</property>
  <property name="kdenlive:original.format">3</property>
  <property name="kdenlive:original.audio_index">-1</property>
  <property name="kdenlive:original.video_index">0</property>
  <property name="kdenlive:original.meta.media.frame_rate_num">60</property>
  <property name="kdenlive:original.meta.media.frame_rate_den">1</property>
  <property name="kdenlive:original.meta.media.colorspace">709</property>
  <property name="kdenlive:original.meta.media.color_trc">2</property>
  <property name="kdenlive:original.meta.media.has_b_frames">2</property>
  <property name="kdenlive:original.meta.media.width">1920</property>
  <property name="kdenlive:original.meta.media.height">1080</property>
  <property name="kdenlive:original.meta.media.color_range">mpeg</property>
  <property name="kdenlive:original.meta.media.top_field_first">0</property>
  <property name="kdenlive:original.meta.media.progressive">1</property>
  <property name="kdenlive:original.kdenlive:clip_type">2</property>
  <property name="kdenlive:original.kdenlive:folderid">203</property>
  <property name="kdenlive:original.kdenlive:id">215</property>
  <property name="kdenlive:original.mute_on_pause">0</property>
  <property name="kdenlive:original.kdenlive:file_size">94925</property>
  <property name="kdenlive:original.kdenlive:file_hash">04ef25b3b4955b37daa0adcb5923d36e</property>
  <property name="kdenlive:original.backup">1</property>
  <property name="meta.media.top_field_first">0</property>
  <property name="meta.media.progressive">1</property>
 </chain>
 <chain id="chain101" out="00:00:01.983">
  <property name="length">120</property>
  <property name="eof">pause</property>
  <property name="resource">/home/xiaoxiae/.cache/kdenlive/proxy/332649c1c0471f14e92571370ceb9dae.mkv</property>
  <property name="mlt_service">avformat-novalidate</property>
  <property name="meta.media.nb_streams">1</property>
  <property name="meta.media.0.stream.type">video</property>
  <property name="meta.media.0.stream.frame_rate">60</property>
  <property name="meta.media.0.stream.sample_aspect_ratio">0</property>
  <property name="meta.media.0.codec.width">640</property>
  <property name="meta.media.0.codec.height">360</property>
  <property name="meta.media.0.codec.rotate">0</property>
  <property name="meta.media.0.codec.pix_fmt">yuvj420p</property>
  <property name="meta.media.0.codec.sample_aspect_ratio">0</property>
  <property name="meta.media.0.codec.colorspace">601</property>
  <property name="meta.media.0.codec.name">mjpeg</property>
  <property name="meta.media.0.codec.long_name">MJPEG (Motion JPEG)</property>
  <property name="meta.media.0.codec.bit_rate">0</property>
  <property name="meta.attr.0.stream.HANDLER_NAME.markup">VideoHandler</property>
  <property name="meta.attr.0.stream.VENDOR_ID.markup">[0][0][0][0]</property>
  <property name="meta.attr.0.stream.ENCODER.markup">Lavc60.3.100 mjpeg</property>
  <property name="meta.attr.0.stream.DURATION.markup">00:00:02.000000000</property>
  <property name="meta.attr.COMMENT.markup">Rendered with Manim Community v0.17.3</property>
  <property name="meta.attr.MAJOR_BRAND.markup">isom</property>
  <property name="meta.attr.MINOR_VERSION.markup">512</property>
  <property name="meta.attr.COMPATIBLE_BRANDS.markup">isomiso2avc1mp41</property>
  <property name="meta.attr.ENCODER.markup">Lavf60.3.100</property>
  <property name="seekable">1</property>
  <property name="meta.media.sample_aspect_num">1</property>
  <property name="meta.media.sample_aspect_den">1</property>
  <property name="format">3</property>
  <property name="audio_index">-1</property>
  <property name="video_index">0</property>
  <property name="meta.media.frame_rate_num">60</property>
  <property name="meta.media.frame_rate_den">1</property>
  <property name="meta.media.colorspace">601</property>
  <property name="meta.media.color_trc">2</property>
  <property name="meta.media.has_b_frames">0</property>
  <property name="meta.media.width">640</property>
  <property name="meta.media.height">360</property>
  <property name="meta.media.color_range">full</property>
  <property name="kdenlive:clipname">20.mp4</property>
  <property name="kdenlive:clip_type">2</property>
  <property name="kdenlive:folderid">203</property>
  <property name="kdenlive:id">216</property>
  <property name="mute_on_pause">0</property>
  <property name="kdenlive:file_size">141528</property>
  <property name="kdenlive:file_hash">332649c1c0471f14e92571370ceb9dae</property>
  <property name="kdenlive:proxy">/home/xiaoxiae/.cache/kdenlive/proxy/332649c1c0471f14e92571370ceb9dae.mkv</property>
  <property name="kdenlive:originalurl">video/Knapsack/20.mp4</property>
  <property name="kdenlive:original.mlt_type">chain</property>
  <property name="kdenlive:original.in">0</property>
  <property name="kdenlive:original.out">00:00:01.983</property>
  <property name="kdenlive:original.length">120</property>
  <property name="kdenlive:original.eof">pause</property>
  <property name="kdenlive:original.resource">video/Knapsack/20.mp4</property>
  <property name="kdenlive:original.mlt_service">avformat-novalidate</property>
  <property name="kdenlive:original.meta.media.nb_streams">1</property>
  <property name="kdenlive:original.meta.media.0.stream.type">video</property>
  <property name="kdenlive:original.meta.media.0.stream.frame_rate">60</property>
  <property name="kdenlive:original.meta.media.0.stream.sample_aspect_ratio">0</property>
  <property name="kdenlive:original.meta.media.0.codec.width">1920</property>
  <property name="kdenlive:original.meta.media.0.codec.height">1080</property>
  <property name="kdenlive:original.meta.media.0.codec.rotate">0</property>
  <property name="kdenlive:original.meta.media.0.codec.pix_fmt">yuv420p</property>
  <property name="kdenlive:original.meta.media.0.codec.sample_aspect_ratio">0</property>
  <property name="kdenlive:original.meta.media.0.codec.colorspace">709</property>
  <property name="kdenlive:original.meta.media.0.codec.name">h264</property>
  <property name="kdenlive:original.meta.media.0.codec.long_name">H.264 / AVC / MPEG-4 AVC / MPEG-4 part 10</property>
  <property name="kdenlive:original.meta.media.0.codec.bit_rate">556768</property>
  <property name="kdenlive:original.meta.attr.0.stream.handler_name.markup">VideoHandler</property>
  <property name="kdenlive:original.meta.attr.0.stream.vendor_id.markup">[0][0][0][0]</property>
  <property name="kdenlive:original.meta.attr.0.stream.encoder.markup">Lavc60.3.100 libx264</property>
  <property name="kdenlive:original.meta.attr.major_brand.markup">isom</property>
  <property name="kdenlive:original.meta.attr.minor_version.markup">512</property>
  <property name="kdenlive:original.meta.attr.compatible_brands.markup">isomiso2avc1mp41</property>
  <property name="kdenlive:original.meta.attr.encoder.markup">Lavf60.3.100</property>
  <property name="kdenlive:original.meta.attr.comment.markup">Rendered with Manim Community v0.17.3</property>
  <property name="kdenlive:original.seekable">1</property>
  <property name="kdenlive:original.width">1920</property>
  <property name="kdenlive:original.height">1080</property>
  <property name="kdenlive:original.meta.media.sample_aspect_num">1</property>
  <property name="kdenlive:original.meta.media.sample_aspect_den">1</property>
  <property name="kdenlive:original.format">3</property>
  <property name="kdenlive:original.audio_index">-1</property>
  <property name="kdenlive:original.video_index">0</property>
  <property name="kdenlive:original.meta.media.frame_rate_num">60</property>
  <property name="kdenlive:original.meta.media.frame_rate_den">1</property>
  <property name="kdenlive:original.meta.media.colorspace">709</property>
  <property name="kdenlive:original.meta.media.color_trc">2</property>
  <property name="kdenlive:original.meta.media.has_b_frames">2</property>
  <property name="kdenlive:original.meta.media.width">1920</property>
  <property name="kdenlive:original.meta.media.height">1080</property>
  <property name="kdenlive:original.meta.media.color_range">mpeg</property>
  <property name="kdenlive:original.meta.media.top_field_first">0</property>
  <property name="kdenlive:original.meta.media.progressive">1</property>
  <property name="kdenlive:original.kdenlive:clip_type">2</property>
  <property name="kdenlive:original.kdenlive:folderid">203</property>
  <property name="kdenlive:original.kdenlive:id">216</property>
  <property name="kdenlive:original.mute_on_pause">0</property>
  <property name="kdenlive:original.kdenlive:file_size">141528</property>
  <property name="kdenlive:original.kdenlive:file_hash">332649c1c0471f14e92571370ceb9dae</property>
  <property name="kdenlive:original.backup">1</property>
  <property name="meta.media.top_field_first">0</property>
  <property name="meta.media.progressive">1</property>
 </chain>
 <chain id="chain100" out="00:00:01.483">
  <property name="length">90</property>
  <property name="eof">pause</property>
  <property name="resource">/home/xiaoxiae/.cache/kdenlive/proxy/f36ea4a80ed4749304cea5f50a74d99a.mkv</property>
  <property name="mlt_service">avformat-novalidate</property>
  <property name="meta.media.nb_streams">1</property>
  <property name="meta.media.0.stream.type">video</property>
  <property name="meta.media.0.stream.frame_rate">60</property>
  <property name="meta.media.0.stream.sample_aspect_ratio">0</property>
  <property name="meta.media.0.codec.width">640</property>
  <property name="meta.media.0.codec.height">360</property>
  <property name="meta.media.0.codec.rotate">0</property>
  <property name="meta.media.0.codec.pix_fmt">yuvj420p</property>
  <property name="meta.media.0.codec.sample_aspect_ratio">0</property>
  <property name="meta.media.0.codec.colorspace">601</property>
  <property name="meta.media.0.codec.name">mjpeg</property>
  <property name="meta.media.0.codec.long_name">MJPEG (Motion JPEG)</property>
  <property name="meta.media.0.codec.bit_rate">0</property>
  <property name="meta.attr.0.stream.HANDLER_NAME.markup">VideoHandler</property>
  <property name="meta.attr.0.stream.VENDOR_ID.markup">[0][0][0][0]</property>
  <property name="meta.attr.0.stream.ENCODER.markup">Lavc60.3.100 mjpeg</property>
  <property name="meta.attr.0.stream.DURATION.markup">00:00:01.500000000</property>
  <property name="meta.attr.COMMENT.markup">Rendered with Manim Community v0.17.3</property>
  <property name="meta.attr.MAJOR_BRAND.markup">isom</property>
  <property name="meta.attr.MINOR_VERSION.markup">512</property>
  <property name="meta.attr.COMPATIBLE_BRANDS.markup">isomiso2avc1mp41</property>
  <property name="meta.attr.ENCODER.markup">Lavf60.3.100</property>
  <property name="seekable">1</property>
  <property name="meta.media.sample_aspect_num">1</property>
  <property name="meta.media.sample_aspect_den">1</property>
  <property name="format">3</property>
  <property name="audio_index">-1</property>
  <property name="video_index">0</property>
  <property name="meta.media.frame_rate_num">60</property>
  <property name="meta.media.frame_rate_den">1</property>
  <property name="meta.media.colorspace">601</property>
  <property name="meta.media.color_trc">2</property>
  <property name="meta.media.has_b_frames">0</property>
  <property name="meta.media.width">640</property>
  <property name="meta.media.height">360</property>
  <property name="meta.media.color_range">full</property>
  <property name="kdenlive:clipname">21.mp4</property>
  <property name="kdenlive:clip_type">2</property>
  <property name="kdenlive:folderid">203</property>
  <property name="kdenlive:id">217</property>
  <property name="mute_on_pause">0</property>
  <property name="kdenlive:file_size">86271</property>
  <property name="kdenlive:file_hash">f36ea4a80ed4749304cea5f50a74d99a</property>
  <property name="kdenlive:proxy">/home/xiaoxiae/.cache/kdenlive/proxy/f36ea4a80ed4749304cea5f50a74d99a.mkv</property>
  <property name="kdenlive:originalurl">video/Knapsack/21.mp4</property>
  <property name="kdenlive:original.mlt_type">chain</property>
  <property name="kdenlive:original.in">0</property>
  <property name="kdenlive:original.out">00:00:01.483</property>
  <property name="kdenlive:original.length">90</property>
  <property name="kdenlive:original.eof">pause</property>
  <property name="kdenlive:original.resource">video/Knapsack/21.mp4</property>
  <property name="kdenlive:original.mlt_service">avformat-novalidate</property>
  <property name="kdenlive:original.meta.media.nb_streams">1</property>
  <property name="kdenlive:original.meta.media.0.stream.type">video</property>
  <property name="kdenlive:original.meta.media.0.stream.frame_rate">60</property>
  <property name="kdenlive:original.meta.media.0.stream.sample_aspect_ratio">0</property>
  <property name="kdenlive:original.meta.media.0.codec.width">1920</property>
  <property name="kdenlive:original.meta.media.0.codec.height">1080</property>
  <property name="kdenlive:original.meta.media.0.codec.rotate">0</property>
  <property name="kdenlive:original.meta.media.0.codec.pix_fmt">yuv420p</property>
  <property name="kdenlive:original.meta.media.0.codec.sample_aspect_ratio">0</property>
  <property name="kdenlive:original.meta.media.0.codec.colorspace">709</property>
  <property name="kdenlive:original.meta.media.0.codec.name">h264</property>
  <property name="kdenlive:original.meta.media.0.codec.long_name">H.264 / AVC / MPEG-4 AVC / MPEG-4 part 10</property>
  <property name="kdenlive:original.meta.media.0.codec.bit_rate">449573</property>
  <property name="kdenlive:original.meta.attr.0.stream.handler_name.markup">VideoHandler</property>
  <property name="kdenlive:original.meta.attr.0.stream.vendor_id.markup">[0][0][0][0]</property>
  <property name="kdenlive:original.meta.attr.0.stream.encoder.markup">Lavc60.3.100 libx264</property>
  <property name="kdenlive:original.meta.attr.major_brand.markup">isom</property>
  <property name="kdenlive:original.meta.attr.minor_version.markup">512</property>
  <property name="kdenlive:original.meta.attr.compatible_brands.markup">isomiso2avc1mp41</property>
  <property name="kdenlive:original.meta.attr.encoder.markup">Lavf60.3.100</property>
  <property name="kdenlive:original.meta.attr.comment.markup">Rendered with Manim Community v0.17.3</property>
  <property name="kdenlive:original.seekable">1</property>
  <property name="kdenlive:original.width">1920</property>
  <property name="kdenlive:original.height">1080</property>
  <property name="kdenlive:original.meta.media.sample_aspect_num">1</property>
  <property name="kdenlive:original.meta.media.sample_aspect_den">1</property>
  <property name="kdenlive:original.format">3</property>
  <property name="kdenlive:original.audio_index">-1</property>
  <property name="kdenlive:original.video_index">0</property>
  <property name="kdenlive:original.meta.media.frame_rate_num">60</property>
  <property name="kdenlive:original.meta.media.frame_rate_den">1</property>
  <property name="kdenlive:original.meta.media.colorspace">709</property>
  <property name="kdenlive:original.meta.media.color_trc">2</property>
  <property name="kdenlive:original.meta.media.has_b_frames">2</property>
  <property name="kdenlive:original.meta.media.width">1920</property>
  <property name="kdenlive:original.meta.media.height">1080</property>
  <property name="kdenlive:original.meta.media.color_range">mpeg</property>
  <property name="kdenlive:original.meta.media.top_field_first">0</property>
  <property name="kdenlive:original.meta.media.progressive">1</property>
  <property name="kdenlive:original.kdenlive:clip_type">2</property>
  <property name="kdenlive:original.kdenlive:folderid">203</property>
  <property name="kdenlive:original.kdenlive:id">217</property>
  <property name="kdenlive:original.mute_on_pause">0</property>
  <property name="kdenlive:original.kdenlive:file_size">86271</property>
  <property name="kdenlive:original.kdenlive:file_hash">f36ea4a80ed4749304cea5f50a74d99a</property>
  <property name="kdenlive:original.backup">1</property>
  <property name="meta.media.top_field_first">0</property>
  <property name="meta.media.progressive">1</property>
 </chain>
 <chain id="chain99" out="00:00:00.983">
  <property name="length">60</property>
  <property name="eof">pause</property>
  <property name="resource">/home/xiaoxiae/.cache/kdenlive/proxy/f0ebf4f0e75bbacf111c836dbd3e375f.mkv</property>
  <property name="mlt_service">avformat-novalidate</property>
  <property name="meta.media.nb_streams">1</property>
  <property name="meta.media.0.stream.type">video</property>
  <property name="meta.media.0.stream.frame_rate">60</property>
  <property name="meta.media.0.stream.sample_aspect_ratio">0</property>
  <property name="meta.media.0.codec.width">640</property>
  <property name="meta.media.0.codec.height">360</property>
  <property name="meta.media.0.codec.rotate">0</property>
  <property name="meta.media.0.codec.pix_fmt">yuvj420p</property>
  <property name="meta.media.0.codec.sample_aspect_ratio">0</property>
  <property name="meta.media.0.codec.colorspace">601</property>
  <property name="meta.media.0.codec.name">mjpeg</property>
  <property name="meta.media.0.codec.long_name">MJPEG (Motion JPEG)</property>
  <property name="meta.media.0.codec.bit_rate">0</property>
  <property name="meta.attr.0.stream.HANDLER_NAME.markup">VideoHandler</property>
  <property name="meta.attr.0.stream.VENDOR_ID.markup">[0][0][0][0]</property>
  <property name="meta.attr.0.stream.ENCODER.markup">Lavc60.3.100 mjpeg</property>
  <property name="meta.attr.0.stream.DURATION.markup">00:00:01.000000000</property>
  <property name="meta.attr.COMMENT.markup">Rendered with Manim Community v0.17.3</property>
  <property name="meta.attr.MAJOR_BRAND.markup">isom</property>
  <property name="meta.attr.MINOR_VERSION.markup">512</property>
  <property name="meta.attr.COMPATIBLE_BRANDS.markup">isomiso2avc1mp41</property>
  <property name="meta.attr.ENCODER.markup">Lavf60.3.100</property>
  <property name="seekable">1</property>
  <property name="meta.media.sample_aspect_num">1</property>
  <property name="meta.media.sample_aspect_den">1</property>
  <property name="format">3</property>
  <property name="audio_index">-1</property>
  <property name="video_index">0</property>
  <property name="meta.media.frame_rate_num">60</property>
  <property name="meta.media.frame_rate_den">1</property>
  <property name="meta.media.colorspace">601</property>
  <property name="meta.media.color_trc">2</property>
  <property name="meta.media.has_b_frames">0</property>
  <property name="meta.media.width">640</property>
  <property name="meta.media.height">360</property>
  <property name="meta.media.color_range">full</property>
  <property name="kdenlive:clipname">22.mp4</property>
  <property name="kdenlive:clip_type">2</property>
  <property name="kdenlive:folderid">203</property>
  <property name="kdenlive:id">218</property>
  <property name="mute_on_pause">0</property>
  <property name="kdenlive:file_size">233049</property>
  <property name="kdenlive:file_hash">f0ebf4f0e75bbacf111c836dbd3e375f</property>
  <property name="kdenlive:proxy">/home/xiaoxiae/.cache/kdenlive/proxy/f0ebf4f0e75bbacf111c836dbd3e375f.mkv</property>
  <property name="kdenlive:originalurl">video/Knapsack/22.mp4</property>
  <property name="kdenlive:original.mlt_type">chain</property>
  <property name="kdenlive:original.in">0</property>
  <property name="kdenlive:original.out">00:00:00.983</property>
  <property name="kdenlive:original.length">60</property>
  <property name="kdenlive:original.eof">pause</property>
  <property name="kdenlive:original.resource">video/Knapsack/22.mp4</property>
  <property name="kdenlive:original.mlt_service">avformat-novalidate</property>
  <property name="kdenlive:original.meta.media.nb_streams">1</property>
  <property name="kdenlive:original.meta.media.0.stream.type">video</property>
  <property name="kdenlive:original.meta.media.0.stream.frame_rate">60</property>
  <property name="kdenlive:original.meta.media.0.stream.sample_aspect_ratio">0</property>
  <property name="kdenlive:original.meta.media.0.codec.width">1920</property>
  <property name="kdenlive:original.meta.media.0.codec.height">1080</property>
  <property name="kdenlive:original.meta.media.0.codec.rotate">0</property>
  <property name="kdenlive:original.meta.media.0.codec.pix_fmt">yuv420p</property>
  <property name="kdenlive:original.meta.media.0.codec.sample_aspect_ratio">0</property>
  <property name="kdenlive:original.meta.media.0.codec.colorspace">709</property>
  <property name="kdenlive:original.meta.media.0.codec.name">h264</property>
  <property name="kdenlive:original.meta.media.0.codec.long_name">H.264 / AVC / MPEG-4 AVC / MPEG-4 part 10</property>
  <property name="kdenlive:original.meta.media.0.codec.bit_rate">1852616</property>
  <property name="kdenlive:original.meta.attr.0.stream.handler_name.markup">VideoHandler</property>
  <property name="kdenlive:original.meta.attr.0.stream.vendor_id.markup">[0][0][0][0]</property>
  <property name="kdenlive:original.meta.attr.0.stream.encoder.markup">Lavc60.3.100 libx264</property>
  <property name="kdenlive:original.meta.attr.major_brand.markup">isom</property>
  <property name="kdenlive:original.meta.attr.minor_version.markup">512</property>
  <property name="kdenlive:original.meta.attr.compatible_brands.markup">isomiso2avc1mp41</property>
  <property name="kdenlive:original.meta.attr.encoder.markup">Lavf60.3.100</property>
  <property name="kdenlive:original.meta.attr.comment.markup">Rendered with Manim Community v0.17.3</property>
  <property name="kdenlive:original.seekable">1</property>
  <property name="kdenlive:original.width">1920</property>
  <property name="kdenlive:original.height">1080</property>
  <property name="kdenlive:original.meta.media.sample_aspect_num">1</property>
  <property name="kdenlive:original.meta.media.sample_aspect_den">1</property>
  <property name="kdenlive:original.format">3</property>
  <property name="kdenlive:original.audio_index">-1</property>
  <property name="kdenlive:original.video_index">0</property>
  <property name="kdenlive:original.meta.media.frame_rate_num">60</property>
  <property name="kdenlive:original.meta.media.frame_rate_den">1</property>
  <property name="kdenlive:original.meta.media.colorspace">709</property>
  <property name="kdenlive:original.meta.media.color_trc">2</property>
  <property name="kdenlive:original.meta.media.has_b_frames">2</property>
  <property name="kdenlive:original.meta.media.width">1920</property>
  <property name="kdenlive:original.meta.media.height">1080</property>
  <property name="kdenlive:original.meta.media.color_range">mpeg</property>
  <property name="kdenlive:original.meta.media.top_field_first">0</property>
  <property name="kdenlive:original.meta.media.progressive">1</property>
  <property name="kdenlive:original.kdenlive:clip_type">2</property>
  <property name="kdenlive:original.kdenlive:folderid">203</property>
  <property name="kdenlive:original.kdenlive:id">218</property>
  <property name="kdenlive:original.mute_on_pause">0</property>
  <property name="kdenlive:original.kdenlive:file_size">233049</property>
  <property name="kdenlive:original.kdenlive:file_hash">f0ebf4f0e75bbacf111c836dbd3e375f</property>
  <property name="kdenlive:original.backup">1</property>
  <property name="meta.media.top_field_first">0</property>
  <property name="meta.media.progressive">1</property>
 </chain>
 <chain id="chain98" out="00:00:01.483">
  <property name="length">90</property>
  <property name="eof">pause</property>
  <property name="resource">/home/xiaoxiae/.cache/kdenlive/proxy/677bcacdb4309a04305d28c568b0e870.mkv</property>
  <property name="mlt_service">avformat-novalidate</property>
  <property name="meta.media.nb_streams">1</property>
  <property name="meta.media.0.stream.type">video</property>
  <property name="meta.media.0.stream.frame_rate">60</property>
  <property name="meta.media.0.stream.sample_aspect_ratio">0</property>
  <property name="meta.media.0.codec.width">640</property>
  <property name="meta.media.0.codec.height">360</property>
  <property name="meta.media.0.codec.rotate">0</property>
  <property name="meta.media.0.codec.pix_fmt">yuvj420p</property>
  <property name="meta.media.0.codec.sample_aspect_ratio">0</property>
  <property name="meta.media.0.codec.colorspace">601</property>
  <property name="meta.media.0.codec.name">mjpeg</property>
  <property name="meta.media.0.codec.long_name">MJPEG (Motion JPEG)</property>
  <property name="meta.media.0.codec.bit_rate">0</property>
  <property name="meta.attr.0.stream.HANDLER_NAME.markup">VideoHandler</property>
  <property name="meta.attr.0.stream.VENDOR_ID.markup">[0][0][0][0]</property>
  <property name="meta.attr.0.stream.ENCODER.markup">Lavc60.3.100 mjpeg</property>
  <property name="meta.attr.0.stream.DURATION.markup">00:00:01.500000000</property>
  <property name="meta.attr.COMMENT.markup">Rendered with Manim Community v0.17.3</property>
  <property name="meta.attr.MAJOR_BRAND.markup">isom</property>
  <property name="meta.attr.MINOR_VERSION.markup">512</property>
  <property name="meta.attr.COMPATIBLE_BRANDS.markup">isomiso2avc1mp41</property>
  <property name="meta.attr.ENCODER.markup">Lavf60.3.100</property>
  <property name="seekable">1</property>
  <property name="meta.media.sample_aspect_num">1</property>
  <property name="meta.media.sample_aspect_den">1</property>
  <property name="format">3</property>
  <property name="audio_index">-1</property>
  <property name="video_index">0</property>
  <property name="meta.media.frame_rate_num">60</property>
  <property name="meta.media.frame_rate_den">1</property>
  <property name="meta.media.colorspace">601</property>
  <property name="meta.media.color_trc">2</property>
  <property name="meta.media.has_b_frames">0</property>
  <property name="meta.media.width">640</property>
  <property name="meta.media.height">360</property>
  <property name="meta.media.color_range">full</property>
  <property name="kdenlive:clipname">23.mp4</property>
  <property name="kdenlive:clip_type">2</property>
  <property name="kdenlive:folderid">203</property>
  <property name="kdenlive:id">219</property>
  <property name="mute_on_pause">0</property>
  <property name="kdenlive:file_size">369340</property>
  <property name="kdenlive:file_hash">677bcacdb4309a04305d28c568b0e870</property>
  <property name="kdenlive:proxy">/home/xiaoxiae/.cache/kdenlive/proxy/677bcacdb4309a04305d28c568b0e870.mkv</property>
  <property name="kdenlive:originalurl">video/Knapsack/23.mp4</property>
  <property name="kdenlive:original.mlt_type">chain</property>
  <property name="kdenlive:original.in">0</property>
  <property name="kdenlive:original.out">00:00:01.483</property>
  <property name="kdenlive:original.length">90</property>
  <property name="kdenlive:original.eof">pause</property>
  <property name="kdenlive:original.resource">video/Knapsack/23.mp4</property>
  <property name="kdenlive:original.mlt_service">avformat-novalidate</property>
  <property name="kdenlive:original.meta.media.nb_streams">1</property>
  <property name="kdenlive:original.meta.media.0.stream.type">video</property>
  <property name="kdenlive:original.meta.media.0.stream.frame_rate">60</property>
  <property name="kdenlive:original.meta.media.0.stream.sample_aspect_ratio">0</property>
  <property name="kdenlive:original.meta.media.0.codec.width">1920</property>
  <property name="kdenlive:original.meta.media.0.codec.height">1080</property>
  <property name="kdenlive:original.meta.media.0.codec.rotate">0</property>
  <property name="kdenlive:original.meta.media.0.codec.pix_fmt">yuv420p</property>
  <property name="kdenlive:original.meta.media.0.codec.sample_aspect_ratio">0</property>
  <property name="kdenlive:original.meta.media.0.codec.colorspace">709</property>
  <property name="kdenlive:original.meta.media.0.codec.name">h264</property>
  <property name="kdenlive:original.meta.media.0.codec.long_name">H.264 / AVC / MPEG-4 AVC / MPEG-4 part 10</property>
  <property name="kdenlive:original.meta.media.0.codec.bit_rate">1960853</property>
  <property name="kdenlive:original.meta.attr.0.stream.handler_name.markup">VideoHandler</property>
  <property name="kdenlive:original.meta.attr.0.stream.vendor_id.markup">[0][0][0][0]</property>
  <property name="kdenlive:original.meta.attr.0.stream.encoder.markup">Lavc60.3.100 libx264</property>
  <property name="kdenlive:original.meta.attr.major_brand.markup">isom</property>
  <property name="kdenlive:original.meta.attr.minor_version.markup">512</property>
  <property name="kdenlive:original.meta.attr.compatible_brands.markup">isomiso2avc1mp41</property>
  <property name="kdenlive:original.meta.attr.encoder.markup">Lavf60.3.100</property>
  <property name="kdenlive:original.meta.attr.comment.markup">Rendered with Manim Community v0.17.3</property>
  <property name="kdenlive:original.seekable">1</property>
  <property name="kdenlive:original.width">1920</property>
  <property name="kdenlive:original.height">1080</property>
  <property name="kdenlive:original.meta.media.sample_aspect_num">1</property>
  <property name="kdenlive:original.meta.media.sample_aspect_den">1</property>
  <property name="kdenlive:original.format">3</property>
  <property name="kdenlive:original.audio_index">-1</property>
  <property name="kdenlive:original.video_index">0</property>
  <property name="kdenlive:original.meta.media.frame_rate_num">60</property>
  <property name="kdenlive:original.meta.media.frame_rate_den">1</property>
  <property name="kdenlive:original.meta.media.colorspace">709</property>
  <property name="kdenlive:original.meta.media.color_trc">2</property>
  <property name="kdenlive:original.meta.media.has_b_frames">2</property>
  <property name="kdenlive:original.meta.media.width">1920</property>
  <property name="kdenlive:original.meta.media.height">1080</property>
  <property name="kdenlive:original.meta.media.color_range">mpeg</property>
  <property name="kdenlive:original.meta.media.top_field_first">0</property>
  <property name="kdenlive:original.meta.media.progressive">1</property>
  <property name="kdenlive:original.kdenlive:clip_type">2</property>
  <property name="kdenlive:original.kdenlive:folderid">203</property>
  <property name="kdenlive:original.kdenlive:id">219</property>
  <property name="kdenlive:original.mute_on_pause">0</property>
  <property name="kdenlive:original.kdenlive:file_size">369340</property>
  <property name="kdenlive:original.kdenlive:file_hash">677bcacdb4309a04305d28c568b0e870</property>
  <property name="kdenlive:original.backup">1</property>
  <property name="meta.media.top_field_first">0</property>
  <property name="meta.media.progressive">1</property>
 </chain>
 <chain id="chain118" out="00:00:01.483">
  <property name="length">90</property>
  <property name="eof">pause</property>
  <property name="resource">/home/xiaoxiae/.cache/kdenlive/proxy/a520a919fbec5b517250072e32cc7fda.mkv</property>
  <property name="mlt_service">avformat-novalidate</property>
  <property name="meta.media.nb_streams">1</property>
  <property name="meta.media.0.stream.type">video</property>
  <property name="meta.media.0.stream.frame_rate">60</property>
  <property name="meta.media.0.stream.sample_aspect_ratio">0</property>
  <property name="meta.media.0.codec.width">640</property>
  <property name="meta.media.0.codec.height">360</property>
  <property name="meta.media.0.codec.rotate">0</property>
  <property name="meta.media.0.codec.pix_fmt">yuvj420p</property>
  <property name="meta.media.0.codec.sample_aspect_ratio">0</property>
  <property name="meta.media.0.codec.colorspace">601</property>
  <property name="meta.media.0.codec.name">mjpeg</property>
  <property name="meta.media.0.codec.long_name">MJPEG (Motion JPEG)</property>
  <property name="meta.media.0.codec.bit_rate">0</property>
  <property name="meta.attr.0.stream.HANDLER_NAME.markup">VideoHandler</property>
  <property name="meta.attr.0.stream.VENDOR_ID.markup">[0][0][0][0]</property>
  <property name="meta.attr.0.stream.ENCODER.markup">Lavc60.3.100 mjpeg</property>
  <property name="meta.attr.0.stream.DURATION.markup">00:00:01.500000000</property>
  <property name="meta.attr.COMMENT.markup">Rendered with Manim Community v0.17.3</property>
  <property name="meta.attr.MAJOR_BRAND.markup">isom</property>
  <property name="meta.attr.MINOR_VERSION.markup">512</property>
  <property name="meta.attr.COMPATIBLE_BRANDS.markup">isomiso2avc1mp41</property>
  <property name="meta.attr.ENCODER.markup">Lavf60.3.100</property>
  <property name="seekable">1</property>
  <property name="meta.media.sample_aspect_num">1</property>
  <property name="meta.media.sample_aspect_den">1</property>
  <property name="format">3</property>
  <property name="audio_index">-1</property>
  <property name="video_index">0</property>
  <property name="meta.media.frame_rate_num">60</property>
  <property name="meta.media.frame_rate_den">1</property>
  <property name="meta.media.colorspace">601</property>
  <property name="meta.media.color_trc">2</property>
  <property name="meta.media.has_b_frames">0</property>
  <property name="meta.media.width">640</property>
  <property name="meta.media.height">360</property>
  <property name="meta.media.color_range">full</property>
  <property name="kdenlive:clipname">3.mp4</property>
  <property name="kdenlive:clip_type">2</property>
  <property name="kdenlive:folderid">203</property>
  <property name="kdenlive:id">220</property>
  <property name="mute_on_pause">0</property>
  <property name="kdenlive:file_size">53016</property>
  <property name="kdenlive:file_hash">a520a919fbec5b517250072e32cc7fda</property>
  <property name="kdenlive:proxy">/home/xiaoxiae/.cache/kdenlive/proxy/a520a919fbec5b517250072e32cc7fda.mkv</property>
  <property name="kdenlive:originalurl">video/Knapsack/3.mp4</property>
  <property name="kdenlive:original.mlt_type">chain</property>
  <property name="kdenlive:original.in">0</property>
  <property name="kdenlive:original.out">00:00:01.483</property>
  <property name="kdenlive:original.length">90</property>
  <property name="kdenlive:original.eof">pause</property>
  <property name="kdenlive:original.resource">video/Knapsack/3.mp4</property>
  <property name="kdenlive:original.mlt_service">avformat-novalidate</property>
  <property name="kdenlive:original.meta.media.nb_streams">1</property>
  <property name="kdenlive:original.meta.media.0.stream.type">video</property>
  <property name="kdenlive:original.meta.media.0.stream.frame_rate">60</property>
  <property name="kdenlive:original.meta.media.0.stream.sample_aspect_ratio">0</property>
  <property name="kdenlive:original.meta.media.0.codec.width">1920</property>
  <property name="kdenlive:original.meta.media.0.codec.height">1080</property>
  <property name="kdenlive:original.meta.media.0.codec.rotate">0</property>
  <property name="kdenlive:original.meta.media.0.codec.pix_fmt">yuv420p</property>
  <property name="kdenlive:original.meta.media.0.codec.sample_aspect_ratio">0</property>
  <property name="kdenlive:original.meta.media.0.codec.colorspace">709</property>
  <property name="kdenlive:original.meta.media.0.codec.name">h264</property>
  <property name="kdenlive:original.meta.media.0.codec.long_name">H.264 / AVC / MPEG-4 AVC / MPEG-4 part 10</property>
  <property name="kdenlive:original.meta.media.0.codec.bit_rate">272085</property>
  <property name="kdenlive:original.meta.attr.0.stream.handler_name.markup">VideoHandler</property>
  <property name="kdenlive:original.meta.attr.0.stream.vendor_id.markup">[0][0][0][0]</property>
  <property name="kdenlive:original.meta.attr.0.stream.encoder.markup">Lavc60.3.100 libx264</property>
  <property name="kdenlive:original.meta.attr.major_brand.markup">isom</property>
  <property name="kdenlive:original.meta.attr.minor_version.markup">512</property>
  <property name="kdenlive:original.meta.attr.compatible_brands.markup">isomiso2avc1mp41</property>
  <property name="kdenlive:original.meta.attr.encoder.markup">Lavf60.3.100</property>
  <property name="kdenlive:original.meta.attr.comment.markup">Rendered with Manim Community v0.17.3</property>
  <property name="kdenlive:original.seekable">1</property>
  <property name="kdenlive:original.width">1920</property>
  <property name="kdenlive:original.height">1080</property>
  <property name="kdenlive:original.meta.media.sample_aspect_num">1</property>
  <property name="kdenlive:original.meta.media.sample_aspect_den">1</property>
  <property name="kdenlive:original.format">3</property>
  <property name="kdenlive:original.audio_index">-1</property>
  <property name="kdenlive:original.video_index">0</property>
  <property name="kdenlive:original.meta.media.frame_rate_num">60</property>
  <property name="kdenlive:original.meta.media.frame_rate_den">1</property>
  <property name="kdenlive:original.meta.media.colorspace">709</property>
  <property name="kdenlive:original.meta.media.color_trc">2</property>
  <property name="kdenlive:original.meta.media.has_b_frames">2</property>
  <property name="kdenlive:original.meta.media.width">1920</property>
  <property name="kdenlive:original.meta.media.height">1080</property>
  <property name="kdenlive:original.meta.media.color_range">mpeg</property>
  <property name="kdenlive:original.meta.media.top_field_first">0</property>
  <property name="kdenlive:original.meta.media.progressive">1</property>
  <property name="kdenlive:original.kdenlive:clip_type">2</property>
  <property name="kdenlive:original.kdenlive:folderid">203</property>
  <property name="kdenlive:original.kdenlive:id">220</property>
  <property name="kdenlive:original.mute_on_pause">0</property>
  <property name="kdenlive:original.kdenlive:file_size">53016</property>
  <property name="kdenlive:original.kdenlive:file_hash">a520a919fbec5b517250072e32cc7fda</property>
  <property name="kdenlive:original.backup">1</property>
  <property name="meta.media.top_field_first">0</property>
  <property name="meta.media.progressive">1</property>
 </chain>
 <chain id="chain117" out="00:00:01.483">
  <property name="length">90</property>
  <property name="eof">pause</property>
  <property name="resource">/home/xiaoxiae/.cache/kdenlive/proxy/e72336004e246e7698a33ab177931f99.mkv</property>
  <property name="mlt_service">avformat-novalidate</property>
  <property name="meta.media.nb_streams">1</property>
  <property name="meta.media.0.stream.type">video</property>
  <property name="meta.media.0.stream.frame_rate">60</property>
  <property name="meta.media.0.stream.sample_aspect_ratio">0</property>
  <property name="meta.media.0.codec.width">640</property>
  <property name="meta.media.0.codec.height">360</property>
  <property name="meta.media.0.codec.rotate">0</property>
  <property name="meta.media.0.codec.pix_fmt">yuvj420p</property>
  <property name="meta.media.0.codec.sample_aspect_ratio">0</property>
  <property name="meta.media.0.codec.colorspace">601</property>
  <property name="meta.media.0.codec.name">mjpeg</property>
  <property name="meta.media.0.codec.long_name">MJPEG (Motion JPEG)</property>
  <property name="meta.media.0.codec.bit_rate">0</property>
  <property name="meta.attr.0.stream.HANDLER_NAME.markup">VideoHandler</property>
  <property name="meta.attr.0.stream.VENDOR_ID.markup">[0][0][0][0]</property>
  <property name="meta.attr.0.stream.ENCODER.markup">Lavc60.3.100 mjpeg</property>
  <property name="meta.attr.0.stream.DURATION.markup">00:00:01.500000000</property>
  <property name="meta.attr.COMMENT.markup">Rendered with Manim Community v0.17.3</property>
  <property name="meta.attr.MAJOR_BRAND.markup">isom</property>
  <property name="meta.attr.MINOR_VERSION.markup">512</property>
  <property name="meta.attr.COMPATIBLE_BRANDS.markup">isomiso2avc1mp41</property>
  <property name="meta.attr.ENCODER.markup">Lavf60.3.100</property>
  <property name="seekable">1</property>
  <property name="meta.media.sample_aspect_num">1</property>
  <property name="meta.media.sample_aspect_den">1</property>
  <property name="format">3</property>
  <property name="audio_index">-1</property>
  <property name="video_index">0</property>
  <property name="meta.media.frame_rate_num">60</property>
  <property name="meta.media.frame_rate_den">1</property>
  <property name="meta.media.colorspace">601</property>
  <property name="meta.media.color_trc">2</property>
  <property name="meta.media.has_b_frames">0</property>
  <property name="meta.media.width">640</property>
  <property name="meta.media.height">360</property>
  <property name="meta.media.color_range">full</property>
  <property name="kdenlive:clipname">4.mp4</property>
  <property name="kdenlive:clip_type">2</property>
  <property name="kdenlive:folderid">203</property>
  <property name="kdenlive:id">221</property>
  <property name="mute_on_pause">0</property>
  <property name="kdenlive:file_size">79988</property>
  <property name="kdenlive:file_hash">e72336004e246e7698a33ab177931f99</property>
  <property name="kdenlive:proxy">/home/xiaoxiae/.cache/kdenlive/proxy/e72336004e246e7698a33ab177931f99.mkv</property>
  <property name="kdenlive:originalurl">video/Knapsack/4.mp4</property>
  <property name="kdenlive:original.mlt_type">chain</property>
  <property name="kdenlive:original.in">0</property>
  <property name="kdenlive:original.out">00:00:01.483</property>
  <property name="kdenlive:original.length">90</property>
  <property name="kdenlive:original.eof">pause</property>
  <property name="kdenlive:original.resource">video/Knapsack/4.mp4</property>
  <property name="kdenlive:original.mlt_service">avformat-novalidate</property>
  <property name="kdenlive:original.meta.media.nb_streams">1</property>
  <property name="kdenlive:original.meta.media.0.stream.type">video</property>
  <property name="kdenlive:original.meta.media.0.stream.frame_rate">60</property>
  <property name="kdenlive:original.meta.media.0.stream.sample_aspect_ratio">0</property>
  <property name="kdenlive:original.meta.media.0.codec.width">1920</property>
  <property name="kdenlive:original.meta.media.0.codec.height">1080</property>
  <property name="kdenlive:original.meta.media.0.codec.rotate">0</property>
  <property name="kdenlive:original.meta.media.0.codec.pix_fmt">yuv420p</property>
  <property name="kdenlive:original.meta.media.0.codec.sample_aspect_ratio">0</property>
  <property name="kdenlive:original.meta.media.0.codec.colorspace">709</property>
  <property name="kdenlive:original.meta.media.0.codec.name">h264</property>
  <property name="kdenlive:original.meta.media.0.codec.long_name">H.264 / AVC / MPEG-4 AVC / MPEG-4 part 10</property>
  <property name="kdenlive:original.meta.media.0.codec.bit_rate">415936</property>
  <property name="kdenlive:original.meta.attr.0.stream.handler_name.markup">VideoHandler</property>
  <property name="kdenlive:original.meta.attr.0.stream.vendor_id.markup">[0][0][0][0]</property>
  <property name="kdenlive:original.meta.attr.0.stream.encoder.markup">Lavc60.3.100 libx264</property>
  <property name="kdenlive:original.meta.attr.major_brand.markup">isom</property>
  <property name="kdenlive:original.meta.attr.minor_version.markup">512</property>
  <property name="kdenlive:original.meta.attr.compatible_brands.markup">isomiso2avc1mp41</property>
  <property name="kdenlive:original.meta.attr.encoder.markup">Lavf60.3.100</property>
  <property name="kdenlive:original.meta.attr.comment.markup">Rendered with Manim Community v0.17.3</property>
  <property name="kdenlive:original.seekable">1</property>
  <property name="kdenlive:original.width">1920</property>
  <property name="kdenlive:original.height">1080</property>
  <property name="kdenlive:original.meta.media.sample_aspect_num">1</property>
  <property name="kdenlive:original.meta.media.sample_aspect_den">1</property>
  <property name="kdenlive:original.format">3</property>
  <property name="kdenlive:original.audio_index">-1</property>
  <property name="kdenlive:original.video_index">0</property>
  <property name="kdenlive:original.meta.media.frame_rate_num">60</property>
  <property name="kdenlive:original.meta.media.frame_rate_den">1</property>
  <property name="kdenlive:original.meta.media.colorspace">709</property>
  <property name="kdenlive:original.meta.media.color_trc">2</property>
  <property name="kdenlive:original.meta.media.has_b_frames">2</property>
  <property name="kdenlive:original.meta.media.width">1920</property>
  <property name="kdenlive:original.meta.media.height">1080</property>
  <property name="kdenlive:original.meta.media.color_range">mpeg</property>
  <property name="kdenlive:original.meta.media.top_field_first">0</property>
  <property name="kdenlive:original.meta.media.progressive">1</property>
  <property name="kdenlive:original.kdenlive:clip_type">2</property>
  <property name="kdenlive:original.kdenlive:folderid">203</property>
  <property name="kdenlive:original.kdenlive:id">221</property>
  <property name="kdenlive:original.mute_on_pause">0</property>
  <property name="kdenlive:original.kdenlive:file_size">79988</property>
  <property name="kdenlive:original.kdenlive:file_hash">e72336004e246e7698a33ab177931f99</property>
  <property name="kdenlive:original.backup">1</property>
  <property name="meta.media.top_field_first">0</property>
  <property name="meta.media.progressive">1</property>
 </chain>
 <chain id="chain116" out="00:00:01.983">
  <property name="length">120</property>
  <property name="eof">pause</property>
  <property name="resource">/home/xiaoxiae/.cache/kdenlive/proxy/07b19902e069705082ad6c89aa88fd74.mkv</property>
  <property name="mlt_service">avformat-novalidate</property>
  <property name="meta.media.nb_streams">1</property>
  <property name="meta.media.0.stream.type">video</property>
  <property name="meta.media.0.stream.frame_rate">60</property>
  <property name="meta.media.0.stream.sample_aspect_ratio">0</property>
  <property name="meta.media.0.codec.width">640</property>
  <property name="meta.media.0.codec.height">360</property>
  <property name="meta.media.0.codec.rotate">0</property>
  <property name="meta.media.0.codec.pix_fmt">yuvj420p</property>
  <property name="meta.media.0.codec.sample_aspect_ratio">0</property>
  <property name="meta.media.0.codec.colorspace">601</property>
  <property name="meta.media.0.codec.name">mjpeg</property>
  <property name="meta.media.0.codec.long_name">MJPEG (Motion JPEG)</property>
  <property name="meta.media.0.codec.bit_rate">0</property>
  <property name="meta.attr.0.stream.HANDLER_NAME.markup">VideoHandler</property>
  <property name="meta.attr.0.stream.VENDOR_ID.markup">[0][0][0][0]</property>
  <property name="meta.attr.0.stream.ENCODER.markup">Lavc60.3.100 mjpeg</property>
  <property name="meta.attr.0.stream.DURATION.markup">00:00:02.000000000</property>
  <property name="meta.attr.COMMENT.markup">Rendered with Manim Community v0.17.3</property>
  <property name="meta.attr.MAJOR_BRAND.markup">isom</property>
  <property name="meta.attr.MINOR_VERSION.markup">512</property>
  <property name="meta.attr.COMPATIBLE_BRANDS.markup">isomiso2avc1mp41</property>
  <property name="meta.attr.ENCODER.markup">Lavf60.3.100</property>
  <property name="seekable">1</property>
  <property name="meta.media.sample_aspect_num">1</property>
  <property name="meta.media.sample_aspect_den">1</property>
  <property name="format">3</property>
  <property name="audio_index">-1</property>
  <property name="video_index">0</property>
  <property name="meta.media.frame_rate_num">60</property>
  <property name="meta.media.frame_rate_den">1</property>
  <property name="meta.media.colorspace">601</property>
  <property name="meta.media.color_trc">2</property>
  <property name="meta.media.has_b_frames">0</property>
  <property name="meta.media.width">640</property>
  <property name="meta.media.height">360</property>
  <property name="meta.media.color_range">full</property>
  <property name="kdenlive:clipname">5.mp4</property>
  <property name="kdenlive:clip_type">2</property>
  <property name="kdenlive:folderid">203</property>
  <property name="kdenlive:id">222</property>
  <property name="mute_on_pause">0</property>
  <property name="kdenlive:file_size">164512</property>
  <property name="kdenlive:file_hash">07b19902e069705082ad6c89aa88fd74</property>
  <property name="kdenlive:proxy">/home/xiaoxiae/.cache/kdenlive/proxy/07b19902e069705082ad6c89aa88fd74.mkv</property>
  <property name="kdenlive:originalurl">video/Knapsack/5.mp4</property>
  <property name="kdenlive:original.mlt_type">chain</property>
  <property name="kdenlive:original.in">0</property>
  <property name="kdenlive:original.out">00:00:01.983</property>
  <property name="kdenlive:original.length">120</property>
  <property name="kdenlive:original.eof">pause</property>
  <property name="kdenlive:original.resource">video/Knapsack/5.mp4</property>
  <property name="kdenlive:original.mlt_service">avformat-novalidate</property>
  <property name="kdenlive:original.meta.media.nb_streams">1</property>
  <property name="kdenlive:original.meta.media.0.stream.type">video</property>
  <property name="kdenlive:original.meta.media.0.stream.frame_rate">60</property>
  <property name="kdenlive:original.meta.media.0.stream.sample_aspect_ratio">0</property>
  <property name="kdenlive:original.meta.media.0.codec.width">1920</property>
  <property name="kdenlive:original.meta.media.0.codec.height">1080</property>
  <property name="kdenlive:original.meta.media.0.codec.rotate">0</property>
  <property name="kdenlive:original.meta.media.0.codec.pix_fmt">yuv420p</property>
  <property name="kdenlive:original.meta.media.0.codec.sample_aspect_ratio">0</property>
  <property name="kdenlive:original.meta.media.0.codec.colorspace">709</property>
  <property name="kdenlive:original.meta.media.0.codec.name">h264</property>
  <property name="kdenlive:original.meta.media.0.codec.long_name">H.264 / AVC / MPEG-4 AVC / MPEG-4 part 10</property>
  <property name="kdenlive:original.meta.media.0.codec.bit_rate">648736</property>
  <property name="kdenlive:original.meta.attr.0.stream.handler_name.markup">VideoHandler</property>
  <property name="kdenlive:original.meta.attr.0.stream.vendor_id.markup">[0][0][0][0]</property>
  <property name="kdenlive:original.meta.attr.0.stream.encoder.markup">Lavc60.3.100 libx264</property>
  <property name="kdenlive:original.meta.attr.major_brand.markup">isom</property>
  <property name="kdenlive:original.meta.attr.minor_version.markup">512</property>
  <property name="kdenlive:original.meta.attr.compatible_brands.markup">isomiso2avc1mp41</property>
  <property name="kdenlive:original.meta.attr.encoder.markup">Lavf60.3.100</property>
  <property name="kdenlive:original.meta.attr.comment.markup">Rendered with Manim Community v0.17.3</property>
  <property name="kdenlive:original.seekable">1</property>
  <property name="kdenlive:original.width">1920</property>
  <property name="kdenlive:original.height">1080</property>
  <property name="kdenlive:original.meta.media.sample_aspect_num">1</property>
  <property name="kdenlive:original.meta.media.sample_aspect_den">1</property>
  <property name="kdenlive:original.format">3</property>
  <property name="kdenlive:original.audio_index">-1</property>
  <property name="kdenlive:original.video_index">0</property>
  <property name="kdenlive:original.meta.media.frame_rate_num">60</property>
  <property name="kdenlive:original.meta.media.frame_rate_den">1</property>
  <property name="kdenlive:original.meta.media.colorspace">709</property>
  <property name="kdenlive:original.meta.media.color_trc">2</property>
  <property name="kdenlive:original.meta.media.has_b_frames">2</property>
  <property name="kdenlive:original.meta.media.width">1920</property>
  <property name="kdenlive:original.meta.media.height">1080</property>
  <property name="kdenlive:original.meta.media.color_range">mpeg</property>
  <property name="kdenlive:original.meta.media.top_field_first">0</property>
  <property name="kdenlive:original.meta.media.progressive">1</property>
  <property name="kdenlive:original.kdenlive:clip_type">2</property>
  <property name="kdenlive:original.kdenlive:folderid">203</property>
  <property name="kdenlive:original.kdenlive:id">222</property>
  <property name="kdenlive:original.mute_on_pause">0</property>
  <property name="kdenlive:original.kdenlive:file_size">164512</property>
  <property name="kdenlive:original.kdenlive:file_hash">07b19902e069705082ad6c89aa88fd74</property>
  <property name="kdenlive:original.backup">1</property>
  <property name="meta.media.top_field_first">0</property>
  <property name="meta.media.progressive">1</property>
 </chain>
 <chain id="chain115" out="00:00:00.983">
  <property name="length">60</property>
  <property name="eof">pause</property>
  <property name="resource">/home/xiaoxiae/.cache/kdenlive/proxy/05e0fef2d719109d6e4facea1804fc51.mkv</property>
  <property name="mlt_service">avformat-novalidate</property>
  <property name="meta.media.nb_streams">1</property>
  <property name="meta.media.0.stream.type">video</property>
  <property name="meta.media.0.stream.frame_rate">60</property>
  <property name="meta.media.0.stream.sample_aspect_ratio">0</property>
  <property name="meta.media.0.codec.width">640</property>
  <property name="meta.media.0.codec.height">360</property>
  <property name="meta.media.0.codec.rotate">0</property>
  <property name="meta.media.0.codec.pix_fmt">yuvj420p</property>
  <property name="meta.media.0.codec.sample_aspect_ratio">0</property>
  <property name="meta.media.0.codec.colorspace">601</property>
  <property name="meta.media.0.codec.name">mjpeg</property>
  <property name="meta.media.0.codec.long_name">MJPEG (Motion JPEG)</property>
  <property name="meta.media.0.codec.bit_rate">0</property>
  <property name="meta.attr.0.stream.HANDLER_NAME.markup">VideoHandler</property>
  <property name="meta.attr.0.stream.VENDOR_ID.markup">[0][0][0][0]</property>
  <property name="meta.attr.0.stream.ENCODER.markup">Lavc60.3.100 mjpeg</property>
  <property name="meta.attr.0.stream.DURATION.markup">00:00:01.000000000</property>
  <property name="meta.attr.COMMENT.markup">Rendered with Manim Community v0.17.3</property>
  <property name="meta.attr.MAJOR_BRAND.markup">isom</property>
  <property name="meta.attr.MINOR_VERSION.markup">512</property>
  <property name="meta.attr.COMPATIBLE_BRANDS.markup">isomiso2avc1mp41</property>
  <property name="meta.attr.ENCODER.markup">Lavf60.3.100</property>
  <property name="seekable">1</property>
  <property name="meta.media.sample_aspect_num">1</property>
  <property name="meta.media.sample_aspect_den">1</property>
  <property name="format">3</property>
  <property name="audio_index">-1</property>
  <property name="video_index">0</property>
  <property name="meta.media.frame_rate_num">60</property>
  <property name="meta.media.frame_rate_den">1</property>
  <property name="meta.media.colorspace">601</property>
  <property name="meta.media.color_trc">2</property>
  <property name="meta.media.has_b_frames">0</property>
  <property name="meta.media.width">640</property>
  <property name="meta.media.height">360</property>
  <property name="meta.media.color_range">full</property>
  <property name="kdenlive:clipname">6.mp4</property>
  <property name="kdenlive:clip_type">2</property>
  <property name="kdenlive:folderid">203</property>
  <property name="kdenlive:id">223</property>
  <property name="mute_on_pause">0</property>
  <property name="kdenlive:file_size">68821</property>
  <property name="kdenlive:file_hash">05e0fef2d719109d6e4facea1804fc51</property>
  <property name="kdenlive:proxy">/home/xiaoxiae/.cache/kdenlive/proxy/05e0fef2d719109d6e4facea1804fc51.mkv</property>
  <property name="kdenlive:originalurl">video/Knapsack/6.mp4</property>
  <property name="kdenlive:original.mlt_type">chain</property>
  <property name="kdenlive:original.in">0</property>
  <property name="kdenlive:original.out">00:00:00.983</property>
  <property name="kdenlive:original.length">60</property>
  <property name="kdenlive:original.eof">pause</property>
  <property name="kdenlive:original.resource">video/Knapsack/6.mp4</property>
  <property name="kdenlive:original.mlt_service">avformat-novalidate</property>
  <property name="kdenlive:original.meta.media.nb_streams">1</property>
  <property name="kdenlive:original.meta.media.0.stream.type">video</property>
  <property name="kdenlive:original.meta.media.0.stream.frame_rate">60</property>
  <property name="kdenlive:original.meta.media.0.stream.sample_aspect_ratio">0</property>
  <property name="kdenlive:original.meta.media.0.codec.width">1920</property>
  <property name="kdenlive:original.meta.media.0.codec.height">1080</property>
  <property name="kdenlive:original.meta.media.0.codec.rotate">0</property>
  <property name="kdenlive:original.meta.media.0.codec.pix_fmt">yuv420p</property>
  <property name="kdenlive:original.meta.media.0.codec.sample_aspect_ratio">0</property>
  <property name="kdenlive:original.meta.media.0.codec.colorspace">709</property>
  <property name="kdenlive:original.meta.media.0.codec.name">h264</property>
  <property name="kdenlive:original.meta.media.0.codec.long_name">H.264 / AVC / MPEG-4 AVC / MPEG-4 part 10</property>
  <property name="kdenlive:original.meta.media.0.codec.bit_rate">537512</property>
  <property name="kdenlive:original.meta.attr.0.stream.handler_name.markup">VideoHandler</property>
  <property name="kdenlive:original.meta.attr.0.stream.vendor_id.markup">[0][0][0][0]</property>
  <property name="kdenlive:original.meta.attr.0.stream.encoder.markup">Lavc60.3.100 libx264</property>
  <property name="kdenlive:original.meta.attr.major_brand.markup">isom</property>
  <property name="kdenlive:original.meta.attr.minor_version.markup">512</property>
  <property name="kdenlive:original.meta.attr.compatible_brands.markup">isomiso2avc1mp41</property>
  <property name="kdenlive:original.meta.attr.encoder.markup">Lavf60.3.100</property>
  <property name="kdenlive:original.meta.attr.comment.markup">Rendered with Manim Community v0.17.3</property>
  <property name="kdenlive:original.seekable">1</property>
  <property name="kdenlive:original.width">1920</property>
  <property name="kdenlive:original.height">1080</property>
  <property name="kdenlive:original.meta.media.sample_aspect_num">1</property>
  <property name="kdenlive:original.meta.media.sample_aspect_den">1</property>
  <property name="kdenlive:original.format">3</property>
  <property name="kdenlive:original.audio_index">-1</property>
  <property name="kdenlive:original.video_index">0</property>
  <property name="kdenlive:original.meta.media.frame_rate_num">60</property>
  <property name="kdenlive:original.meta.media.frame_rate_den">1</property>
  <property name="kdenlive:original.meta.media.colorspace">709</property>
  <property name="kdenlive:original.meta.media.color_trc">2</property>
  <property name="kdenlive:original.meta.media.has_b_frames">2</property>
  <property name="kdenlive:original.meta.media.width">1920</property>
  <property name="kdenlive:original.meta.media.height">1080</property>
  <property name="kdenlive:original.meta.media.color_range">mpeg</property>
  <property name="kdenlive:original.meta.media.top_field_first">0</property>
  <property name="kdenlive:original.meta.media.progressive">1</property>
  <property name="kdenlive:original.kdenlive:clip_type">2</property>
  <property name="kdenlive:original.kdenlive:folderid">203</property>
  <property name="kdenlive:original.kdenlive:id">223</property>
  <property name="kdenlive:original.mute_on_pause">0</property>
  <property name="kdenlive:original.kdenlive:file_size">68821</property>
  <property name="kdenlive:original.kdenlive:file_hash">05e0fef2d719109d6e4facea1804fc51</property>
  <property name="kdenlive:original.backup">1</property>
  <property name="meta.media.top_field_first">0</property>
  <property name="meta.media.progressive">1</property>
 </chain>
 <chain id="chain114" out="00:00:01.483">
  <property name="length">90</property>
  <property name="eof">pause</property>
  <property name="resource">/home/xiaoxiae/.cache/kdenlive/proxy/a1225defad3ae4557900773d05ce9cf5.mkv</property>
  <property name="mlt_service">avformat-novalidate</property>
  <property name="meta.media.nb_streams">1</property>
  <property name="meta.media.0.stream.type">video</property>
  <property name="meta.media.0.stream.frame_rate">60</property>
  <property name="meta.media.0.stream.sample_aspect_ratio">0</property>
  <property name="meta.media.0.codec.width">640</property>
  <property name="meta.media.0.codec.height">360</property>
  <property name="meta.media.0.codec.rotate">0</property>
  <property name="meta.media.0.codec.pix_fmt">yuvj420p</property>
  <property name="meta.media.0.codec.sample_aspect_ratio">0</property>
  <property name="meta.media.0.codec.colorspace">601</property>
  <property name="meta.media.0.codec.name">mjpeg</property>
  <property name="meta.media.0.codec.long_name">MJPEG (Motion JPEG)</property>
  <property name="meta.media.0.codec.bit_rate">0</property>
  <property name="meta.attr.0.stream.HANDLER_NAME.markup">VideoHandler</property>
  <property name="meta.attr.0.stream.VENDOR_ID.markup">[0][0][0][0]</property>
  <property name="meta.attr.0.stream.ENCODER.markup">Lavc60.3.100 mjpeg</property>
  <property name="meta.attr.0.stream.DURATION.markup">00:00:01.500000000</property>
  <property name="meta.attr.COMMENT.markup">Rendered with Manim Community v0.17.3</property>
  <property name="meta.attr.MAJOR_BRAND.markup">isom</property>
  <property name="meta.attr.MINOR_VERSION.markup">512</property>
  <property name="meta.attr.COMPATIBLE_BRANDS.markup">isomiso2avc1mp41</property>
  <property name="meta.attr.ENCODER.markup">Lavf60.3.100</property>
  <property name="seekable">1</property>
  <property name="meta.media.sample_aspect_num">1</property>
  <property name="meta.media.sample_aspect_den">1</property>
  <property name="format">3</property>
  <property name="audio_index">-1</property>
  <property name="video_index">0</property>
  <property name="meta.media.frame_rate_num">60</property>
  <property name="meta.media.frame_rate_den">1</property>
  <property name="meta.media.colorspace">601</property>
  <property name="meta.media.color_trc">2</property>
  <property name="meta.media.has_b_frames">0</property>
  <property name="meta.media.width">640</property>
  <property name="meta.media.height">360</property>
  <property name="meta.media.color_range">full</property>
  <property name="kdenlive:clipname">7.mp4</property>
  <property name="kdenlive:clip_type">2</property>
  <property name="kdenlive:folderid">203</property>
  <property name="kdenlive:id">224</property>
  <property name="mute_on_pause">0</property>
  <property name="kdenlive:file_size">209602</property>
  <property name="kdenlive:file_hash">a1225defad3ae4557900773d05ce9cf5</property>
  <property name="kdenlive:proxy">/home/xiaoxiae/.cache/kdenlive/proxy/a1225defad3ae4557900773d05ce9cf5.mkv</property>
  <property name="kdenlive:originalurl">video/Knapsack/7.mp4</property>
  <property name="kdenlive:original.mlt_type">chain</property>
  <property name="kdenlive:original.in">0</property>
  <property name="kdenlive:original.out">00:00:01.483</property>
  <property name="kdenlive:original.length">90</property>
  <property name="kdenlive:original.eof">pause</property>
  <property name="kdenlive:original.resource">video/Knapsack/7.mp4</property>
  <property name="kdenlive:original.mlt_service">avformat-novalidate</property>
  <property name="kdenlive:original.meta.media.nb_streams">1</property>
  <property name="kdenlive:original.meta.media.0.stream.type">video</property>
  <property name="kdenlive:original.meta.media.0.stream.frame_rate">60</property>
  <property name="kdenlive:original.meta.media.0.stream.sample_aspect_ratio">0</property>
  <property name="kdenlive:original.meta.media.0.codec.width">1920</property>
  <property name="kdenlive:original.meta.media.0.codec.height">1080</property>
  <property name="kdenlive:original.meta.media.0.codec.rotate">0</property>
  <property name="kdenlive:original.meta.media.0.codec.pix_fmt">yuv420p</property>
  <property name="kdenlive:original.meta.media.0.codec.sample_aspect_ratio">0</property>
  <property name="kdenlive:original.meta.media.0.codec.colorspace">709</property>
  <property name="kdenlive:original.meta.media.0.codec.name">h264</property>
  <property name="kdenlive:original.meta.media.0.codec.long_name">H.264 / AVC / MPEG-4 AVC / MPEG-4 part 10</property>
  <property name="kdenlive:original.meta.media.0.codec.bit_rate">1107338</property>
  <property name="kdenlive:original.meta.attr.0.stream.handler_name.markup">VideoHandler</property>
  <property name="kdenlive:original.meta.attr.0.stream.vendor_id.markup">[0][0][0][0]</property>
  <property name="kdenlive:original.meta.attr.0.stream.encoder.markup">Lavc60.3.100 libx264</property>
  <property name="kdenlive:original.meta.attr.major_brand.markup">isom</property>
  <property name="kdenlive:original.meta.attr.minor_version.markup">512</property>
  <property name="kdenlive:original.meta.attr.compatible_brands.markup">isomiso2avc1mp41</property>
  <property name="kdenlive:original.meta.attr.encoder.markup">Lavf60.3.100</property>
  <property name="kdenlive:original.meta.attr.comment.markup">Rendered with Manim Community v0.17.3</property>
  <property name="kdenlive:original.seekable">1</property>
  <property name="kdenlive:original.width">1920</property>
  <property name="kdenlive:original.height">1080</property>
  <property name="kdenlive:original.meta.media.sample_aspect_num">1</property>
  <property name="kdenlive:original.meta.media.sample_aspect_den">1</property>
  <property name="kdenlive:original.format">3</property>
  <property name="kdenlive:original.audio_index">-1</property>
  <property name="kdenlive:original.video_index">0</property>
  <property name="kdenlive:original.meta.media.frame_rate_num">60</property>
  <property name="kdenlive:original.meta.media.frame_rate_den">1</property>
  <property name="kdenlive:original.meta.media.colorspace">709</property>
  <property name="kdenlive:original.meta.media.color_trc">2</property>
  <property name="kdenlive:original.meta.media.has_b_frames">2</property>
  <property name="kdenlive:original.meta.media.width">1920</property>
  <property name="kdenlive:original.meta.media.height">1080</property>
  <property name="kdenlive:original.meta.media.color_range">mpeg</property>
  <property name="kdenlive:original.meta.media.top_field_first">0</property>
  <property name="kdenlive:original.meta.media.progressive">1</property>
  <property name="kdenlive:original.kdenlive:clip_type">2</property>
  <property name="kdenlive:original.kdenlive:folderid">203</property>
  <property name="kdenlive:original.kdenlive:id">224</property>
  <property name="kdenlive:original.mute_on_pause">0</property>
  <property name="kdenlive:original.kdenlive:file_size">209602</property>
  <property name="kdenlive:original.kdenlive:file_hash">a1225defad3ae4557900773d05ce9cf5</property>
  <property name="kdenlive:original.backup">1</property>
  <property name="meta.media.top_field_first">0</property>
  <property name="meta.media.progressive">1</property>
 </chain>
 <chain id="chain113" out="00:00:01.483">
  <property name="length">90</property>
  <property name="eof">pause</property>
  <property name="resource">/home/xiaoxiae/.cache/kdenlive/proxy/1e4b2606d5aecda9f333c0145970f835.mkv</property>
  <property name="mlt_service">avformat-novalidate</property>
  <property name="meta.media.nb_streams">1</property>
  <property name="meta.media.0.stream.type">video</property>
  <property name="meta.media.0.stream.frame_rate">60</property>
  <property name="meta.media.0.stream.sample_aspect_ratio">0</property>
  <property name="meta.media.0.codec.width">640</property>
  <property name="meta.media.0.codec.height">360</property>
  <property name="meta.media.0.codec.rotate">0</property>
  <property name="meta.media.0.codec.pix_fmt">yuvj420p</property>
  <property name="meta.media.0.codec.sample_aspect_ratio">0</property>
  <property name="meta.media.0.codec.colorspace">601</property>
  <property name="meta.media.0.codec.name">mjpeg</property>
  <property name="meta.media.0.codec.long_name">MJPEG (Motion JPEG)</property>
  <property name="meta.media.0.codec.bit_rate">0</property>
  <property name="meta.attr.0.stream.HANDLER_NAME.markup">VideoHandler</property>
  <property name="meta.attr.0.stream.VENDOR_ID.markup">[0][0][0][0]</property>
  <property name="meta.attr.0.stream.ENCODER.markup">Lavc60.3.100 mjpeg</property>
  <property name="meta.attr.0.stream.DURATION.markup">00:00:01.500000000</property>
  <property name="meta.attr.COMMENT.markup">Rendered with Manim Community v0.17.3</property>
  <property name="meta.attr.MAJOR_BRAND.markup">isom</property>
  <property name="meta.attr.MINOR_VERSION.markup">512</property>
  <property name="meta.attr.COMPATIBLE_BRANDS.markup">isomiso2avc1mp41</property>
  <property name="meta.attr.ENCODER.markup">Lavf60.3.100</property>
  <property name="seekable">1</property>
  <property name="meta.media.sample_aspect_num">1</property>
  <property name="meta.media.sample_aspect_den">1</property>
  <property name="format">3</property>
  <property name="audio_index">-1</property>
  <property name="video_index">0</property>
  <property name="meta.media.frame_rate_num">60</property>
  <property name="meta.media.frame_rate_den">1</property>
  <property name="meta.media.colorspace">601</property>
  <property name="meta.media.color_trc">2</property>
  <property name="meta.media.has_b_frames">0</property>
  <property name="meta.media.width">640</property>
  <property name="meta.media.height">360</property>
  <property name="meta.media.color_range">full</property>
  <property name="kdenlive:clipname">8.mp4</property>
  <property name="kdenlive:clip_type">2</property>
  <property name="kdenlive:folderid">203</property>
  <property name="kdenlive:id">225</property>
  <property name="mute_on_pause">0</property>
  <property name="kdenlive:file_size">198543</property>
  <property name="kdenlive:file_hash">1e4b2606d5aecda9f333c0145970f835</property>
  <property name="kdenlive:proxy">/home/xiaoxiae/.cache/kdenlive/proxy/1e4b2606d5aecda9f333c0145970f835.mkv</property>
  <property name="kdenlive:originalurl">video/Knapsack/8.mp4</property>
  <property name="kdenlive:original.mlt_type">chain</property>
  <property name="kdenlive:original.in">0</property>
  <property name="kdenlive:original.out">00:00:01.483</property>
  <property name="kdenlive:original.length">90</property>
  <property name="kdenlive:original.eof">pause</property>
  <property name="kdenlive:original.resource">video/Knapsack/8.mp4</property>
  <property name="kdenlive:original.mlt_service">avformat-novalidate</property>
  <property name="kdenlive:original.meta.media.nb_streams">1</property>
  <property name="kdenlive:original.meta.media.0.stream.type">video</property>
  <property name="kdenlive:original.meta.media.0.stream.frame_rate">60</property>
  <property name="kdenlive:original.meta.media.0.stream.sample_aspect_ratio">0</property>
  <property name="kdenlive:original.meta.media.0.codec.width">1920</property>
  <property name="kdenlive:original.meta.media.0.codec.height">1080</property>
  <property name="kdenlive:original.meta.media.0.codec.rotate">0</property>
  <property name="kdenlive:original.meta.media.0.codec.pix_fmt">yuv420p</property>
  <property name="kdenlive:original.meta.media.0.codec.sample_aspect_ratio">0</property>
  <property name="kdenlive:original.meta.media.0.codec.colorspace">709</property>
  <property name="kdenlive:original.meta.media.0.codec.name">h264</property>
  <property name="kdenlive:original.meta.media.0.codec.long_name">H.264 / AVC / MPEG-4 AVC / MPEG-4 part 10</property>
  <property name="kdenlive:original.meta.media.0.codec.bit_rate">1048314</property>
  <property name="kdenlive:original.meta.attr.0.stream.handler_name.markup">VideoHandler</property>
  <property name="kdenlive:original.meta.attr.0.stream.vendor_id.markup">[0][0][0][0]</property>
  <property name="kdenlive:original.meta.attr.0.stream.encoder.markup">Lavc60.3.100 libx264</property>
  <property name="kdenlive:original.meta.attr.major_brand.markup">isom</property>
  <property name="kdenlive:original.meta.attr.minor_version.markup">512</property>
  <property name="kdenlive:original.meta.attr.compatible_brands.markup">isomiso2avc1mp41</property>
  <property name="kdenlive:original.meta.attr.encoder.markup">Lavf60.3.100</property>
  <property name="kdenlive:original.meta.attr.comment.markup">Rendered with Manim Community v0.17.3</property>
  <property name="kdenlive:original.seekable">1</property>
  <property name="kdenlive:original.width">1920</property>
  <property name="kdenlive:original.height">1080</property>
  <property name="kdenlive:original.meta.media.sample_aspect_num">1</property>
  <property name="kdenlive:original.meta.media.sample_aspect_den">1</property>
  <property name="kdenlive:original.format">3</property>
  <property name="kdenlive:original.audio_index">-1</property>
  <property name="kdenlive:original.video_index">0</property>
  <property name="kdenlive:original.meta.media.frame_rate_num">60</property>
  <property name="kdenlive:original.meta.media.frame_rate_den">1</property>
  <property name="kdenlive:original.meta.media.colorspace">709</property>
  <property name="kdenlive:original.meta.media.color_trc">2</property>
  <property name="kdenlive:original.meta.media.has_b_frames">2</property>
  <property name="kdenlive:original.meta.media.width">1920</property>
  <property name="kdenlive:original.meta.media.height">1080</property>
  <property name="kdenlive:original.meta.media.color_range">mpeg</property>
  <property name="kdenlive:original.meta.media.top_field_first">0</property>
  <property name="kdenlive:original.meta.media.progressive">1</property>
  <property name="kdenlive:original.kdenlive:clip_type">2</property>
  <property name="kdenlive:original.kdenlive:folderid">203</property>
  <property name="kdenlive:original.kdenlive:id">225</property>
  <property name="kdenlive:original.mute_on_pause">0</property>
  <property name="kdenlive:original.kdenlive:file_size">198543</property>
  <property name="kdenlive:original.kdenlive:file_hash">1e4b2606d5aecda9f333c0145970f835</property>
  <property name="kdenlive:original.backup">1</property>
  <property name="meta.media.top_field_first">0</property>
  <property name="meta.media.progressive">1</property>
 </chain>
 <chain id="chain112" out="00:00:01.983">
  <property name="length">120</property>
  <property name="eof">pause</property>
  <property name="resource">/home/xiaoxiae/.cache/kdenlive/proxy/a8e4a48f5730b3019a693e90499a1cf0.mkv</property>
  <property name="mlt_service">avformat-novalidate</property>
  <property name="meta.media.nb_streams">1</property>
  <property name="meta.media.0.stream.type">video</property>
  <property name="meta.media.0.stream.frame_rate">60</property>
  <property name="meta.media.0.stream.sample_aspect_ratio">0</property>
  <property name="meta.media.0.codec.width">640</property>
  <property name="meta.media.0.codec.height">360</property>
  <property name="meta.media.0.codec.rotate">0</property>
  <property name="meta.media.0.codec.pix_fmt">yuvj420p</property>
  <property name="meta.media.0.codec.sample_aspect_ratio">0</property>
  <property name="meta.media.0.codec.colorspace">601</property>
  <property name="meta.media.0.codec.name">mjpeg</property>
  <property name="meta.media.0.codec.long_name">MJPEG (Motion JPEG)</property>
  <property name="meta.media.0.codec.bit_rate">0</property>
  <property name="meta.attr.0.stream.HANDLER_NAME.markup">VideoHandler</property>
  <property name="meta.attr.0.stream.VENDOR_ID.markup">[0][0][0][0]</property>
  <property name="meta.attr.0.stream.ENCODER.markup">Lavc60.3.100 mjpeg</property>
  <property name="meta.attr.0.stream.DURATION.markup">00:00:02.000000000</property>
  <property name="meta.attr.COMMENT.markup">Rendered with Manim Community v0.17.3</property>
  <property name="meta.attr.MAJOR_BRAND.markup">isom</property>
  <property name="meta.attr.MINOR_VERSION.markup">512</property>
  <property name="meta.attr.COMPATIBLE_BRANDS.markup">isomiso2avc1mp41</property>
  <property name="meta.attr.ENCODER.markup">Lavf60.3.100</property>
  <property name="seekable">1</property>
  <property name="meta.media.sample_aspect_num">1</property>
  <property name="meta.media.sample_aspect_den">1</property>
  <property name="format">3</property>
  <property name="audio_index">-1</property>
  <property name="video_index">0</property>
  <property name="meta.media.frame_rate_num">60</property>
  <property name="meta.media.frame_rate_den">1</property>
  <property name="meta.media.colorspace">601</property>
  <property name="meta.media.color_trc">2</property>
  <property name="meta.media.has_b_frames">0</property>
  <property name="meta.media.width">640</property>
  <property name="meta.media.height">360</property>
  <property name="meta.media.color_range">full</property>
  <property name="kdenlive:clipname">9.mp4</property>
  <property name="kdenlive:clip_type">2</property>
  <property name="kdenlive:folderid">203</property>
  <property name="kdenlive:id">226</property>
  <property name="mute_on_pause">0</property>
  <property name="kdenlive:file_size">136997</property>
  <property name="kdenlive:file_hash">a8e4a48f5730b3019a693e90499a1cf0</property>
  <property name="kdenlive:proxy">/home/xiaoxiae/.cache/kdenlive/proxy/a8e4a48f5730b3019a693e90499a1cf0.mkv</property>
  <property name="kdenlive:originalurl">video/Knapsack/9.mp4</property>
  <property name="kdenlive:original.mlt_type">chain</property>
  <property name="kdenlive:original.in">0</property>
  <property name="kdenlive:original.out">00:00:01.983</property>
  <property name="kdenlive:original.length">120</property>
  <property name="kdenlive:original.eof">pause</property>
  <property name="kdenlive:original.resource">video/Knapsack/9.mp4</property>
  <property name="kdenlive:original.mlt_service">avformat-novalidate</property>
  <property name="kdenlive:original.meta.media.nb_streams">1</property>
  <property name="kdenlive:original.meta.media.0.stream.type">video</property>
  <property name="kdenlive:original.meta.media.0.stream.frame_rate">60</property>
  <property name="kdenlive:original.meta.media.0.stream.sample_aspect_ratio">0</property>
  <property name="kdenlive:original.meta.media.0.codec.width">1920</property>
  <property name="kdenlive:original.meta.media.0.codec.height">1080</property>
  <property name="kdenlive:original.meta.media.0.codec.rotate">0</property>
  <property name="kdenlive:original.meta.media.0.codec.pix_fmt">yuv420p</property>
  <property name="kdenlive:original.meta.media.0.codec.sample_aspect_ratio">0</property>
  <property name="kdenlive:original.meta.media.0.codec.colorspace">709</property>
  <property name="kdenlive:original.meta.media.0.codec.name">h264</property>
  <property name="kdenlive:original.meta.media.0.codec.long_name">H.264 / AVC / MPEG-4 AVC / MPEG-4 part 10</property>
  <property name="kdenlive:original.meta.media.0.codec.bit_rate">538740</property>
  <property name="kdenlive:original.meta.attr.0.stream.handler_name.markup">VideoHandler</property>
  <property name="kdenlive:original.meta.attr.0.stream.vendor_id.markup">[0][0][0][0]</property>
  <property name="kdenlive:original.meta.attr.0.stream.encoder.markup">Lavc60.3.100 libx264</property>
  <property name="kdenlive:original.meta.attr.major_brand.markup">isom</property>
  <property name="kdenlive:original.meta.attr.minor_version.markup">512</property>
  <property name="kdenlive:original.meta.attr.compatible_brands.markup">isomiso2avc1mp41</property>
  <property name="kdenlive:original.meta.attr.encoder.markup">Lavf60.3.100</property>
  <property name="kdenlive:original.meta.attr.comment.markup">Rendered with Manim Community v0.17.3</property>
  <property name="kdenlive:original.seekable">1</property>
  <property name="kdenlive:original.width">1920</property>
  <property name="kdenlive:original.height">1080</property>
  <property name="kdenlive:original.meta.media.sample_aspect_num">1</property>
  <property name="kdenlive:original.meta.media.sample_aspect_den">1</property>
  <property name="kdenlive:original.format">3</property>
  <property name="kdenlive:original.audio_index">-1</property>
  <property name="kdenlive:original.video_index">0</property>
  <property name="kdenlive:original.meta.media.frame_rate_num">60</property>
  <property name="kdenlive:original.meta.media.frame_rate_den">1</property>
  <property name="kdenlive:original.meta.media.colorspace">709</property>
  <property name="kdenlive:original.meta.media.color_trc">2</property>
  <property name="kdenlive:original.meta.media.has_b_frames">2</property>
  <property name="kdenlive:original.meta.media.width">1920</property>
  <property name="kdenlive:original.meta.media.height">1080</property>
  <property name="kdenlive:original.meta.media.color_range">mpeg</property>
  <property name="kdenlive:original.meta.media.top_field_first">0</property>
  <property name="kdenlive:original.meta.media.progressive">1</property>
  <property name="kdenlive:original.kdenlive:clip_type">2</property>
  <property name="kdenlive:original.kdenlive:folderid">203</property>
  <property name="kdenlive:original.kdenlive:id">226</property>
  <property name="kdenlive:original.mute_on_pause">0</property>
  <property name="kdenlive:original.kdenlive:file_size">136997</property>
  <property name="kdenlive:original.kdenlive:file_hash">a8e4a48f5730b3019a693e90499a1cf0</property>
  <property name="kdenlive:original.backup">1</property>
  <property name="meta.media.top_field_first">0</property>
  <property name="meta.media.progressive">1</property>
 </chain>
 <chain id="chain97" out="00:00:00.983">
  <property name="length">60</property>
  <property name="eof">pause</property>
  <property name="resource">/home/xiaoxiae/.cache/kdenlive/proxy/e8ef54c58c1be21e6ad6d6be5d5114c7.mkv</property>
  <property name="mlt_service">avformat-novalidate</property>
  <property name="meta.media.nb_streams">1</property>
  <property name="meta.media.0.stream.type">video</property>
  <property name="meta.media.0.stream.frame_rate">60</property>
  <property name="meta.media.0.stream.sample_aspect_ratio">0</property>
  <property name="meta.media.0.codec.width">640</property>
  <property name="meta.media.0.codec.height">360</property>
  <property name="meta.media.0.codec.rotate">0</property>
  <property name="meta.media.0.codec.pix_fmt">yuvj420p</property>
  <property name="meta.media.0.codec.sample_aspect_ratio">0</property>
  <property name="meta.media.0.codec.colorspace">601</property>
  <property name="meta.media.0.codec.name">mjpeg</property>
  <property name="meta.media.0.codec.long_name">MJPEG (Motion JPEG)</property>
  <property name="meta.media.0.codec.bit_rate">0</property>
  <property name="meta.attr.0.stream.HANDLER_NAME.markup">VideoHandler</property>
  <property name="meta.attr.0.stream.VENDOR_ID.markup">[0][0][0][0]</property>
  <property name="meta.attr.0.stream.ENCODER.markup">Lavc60.3.100 mjpeg</property>
  <property name="meta.attr.0.stream.DURATION.markup">00:00:01.000000000</property>
  <property name="meta.attr.COMMENT.markup">Rendered with Manim Community v0.17.3</property>
  <property name="meta.attr.MAJOR_BRAND.markup">isom</property>
  <property name="meta.attr.MINOR_VERSION.markup">512</property>
  <property name="meta.attr.COMPATIBLE_BRANDS.markup">isomiso2avc1mp41</property>
  <property name="meta.attr.ENCODER.markup">Lavf60.3.100</property>
  <property name="seekable">1</property>
  <property name="meta.media.sample_aspect_num">1</property>
  <property name="meta.media.sample_aspect_den">1</property>
  <property name="format">3</property>
  <property name="audio_index">-1</property>
  <property name="video_index">0</property>
  <property name="meta.media.frame_rate_num">60</property>
  <property name="meta.media.frame_rate_den">1</property>
  <property name="meta.media.colorspace">601</property>
  <property name="meta.media.color_trc">2</property>
  <property name="meta.media.has_b_frames">0</property>
  <property name="meta.media.width">640</property>
  <property name="meta.media.height">360</property>
  <property name="meta.media.color_range">full</property>
  <property name="kdenlive:clipname">1.mp4</property>
  <property name="kdenlive:clip_type">2</property>
  <property name="kdenlive:folderid">227</property>
  <property name="kdenlive:id">228</property>
  <property name="mute_on_pause">0</property>
  <property name="kdenlive:file_size">18901</property>
  <property name="kdenlive:file_hash">e8ef54c58c1be21e6ad6d6be5d5114c7</property>
  <property name="kdenlive:proxy">/home/xiaoxiae/.cache/kdenlive/proxy/e8ef54c58c1be21e6ad6d6be5d5114c7.mkv</property>
  <property name="kdenlive:originalurl">video/Outro/1.mp4</property>
  <property name="kdenlive:original.mlt_type">chain</property>
  <property name="kdenlive:original.in">0</property>
  <property name="kdenlive:original.out">00:00:00.983</property>
  <property name="kdenlive:original.length">60</property>
  <property name="kdenlive:original.eof">pause</property>
  <property name="kdenlive:original.resource">video/Outro/1.mp4</property>
  <property name="kdenlive:original.mlt_service">avformat-novalidate</property>
  <property name="kdenlive:original.meta.media.nb_streams">1</property>
  <property name="kdenlive:original.meta.media.0.stream.type">video</property>
  <property name="kdenlive:original.meta.media.0.stream.frame_rate">60</property>
  <property name="kdenlive:original.meta.media.0.stream.sample_aspect_ratio">0</property>
  <property name="kdenlive:original.meta.media.0.codec.width">1920</property>
  <property name="kdenlive:original.meta.media.0.codec.height">1080</property>
  <property name="kdenlive:original.meta.media.0.codec.rotate">0</property>
  <property name="kdenlive:original.meta.media.0.codec.pix_fmt">yuv420p</property>
  <property name="kdenlive:original.meta.media.0.codec.sample_aspect_ratio">0</property>
  <property name="kdenlive:original.meta.media.0.codec.colorspace">709</property>
  <property name="kdenlive:original.meta.media.0.codec.name">h264</property>
  <property name="kdenlive:original.meta.media.0.codec.long_name">H.264 / AVC / MPEG-4 AVC / MPEG-4 part 10</property>
  <property name="kdenlive:original.meta.media.0.codec.bit_rate">138472</property>
  <property name="kdenlive:original.meta.attr.0.stream.handler_name.markup">VideoHandler</property>
  <property name="kdenlive:original.meta.attr.0.stream.vendor_id.markup">[0][0][0][0]</property>
  <property name="kdenlive:original.meta.attr.0.stream.encoder.markup">Lavc60.3.100 libx264</property>
  <property name="kdenlive:original.meta.attr.major_brand.markup">isom</property>
  <property name="kdenlive:original.meta.attr.minor_version.markup">512</property>
  <property name="kdenlive:original.meta.attr.compatible_brands.markup">isomiso2avc1mp41</property>
  <property name="kdenlive:original.meta.attr.encoder.markup">Lavf60.3.100</property>
  <property name="kdenlive:original.meta.attr.comment.markup">Rendered with Manim Community v0.17.3</property>
  <property name="kdenlive:original.seekable">1</property>
  <property name="kdenlive:original.width">1920</property>
  <property name="kdenlive:original.height">1080</property>
  <property name="kdenlive:original.meta.media.sample_aspect_num">1</property>
  <property name="kdenlive:original.meta.media.sample_aspect_den">1</property>
  <property name="kdenlive:original.format">3</property>
  <property name="kdenlive:original.audio_index">-1</property>
  <property name="kdenlive:original.video_index">0</property>
  <property name="kdenlive:original.meta.media.frame_rate_num">60</property>
  <property name="kdenlive:original.meta.media.frame_rate_den">1</property>
  <property name="kdenlive:original.meta.media.colorspace">709</property>
  <property name="kdenlive:original.meta.media.color_trc">2</property>
  <property name="kdenlive:original.meta.media.has_b_frames">2</property>
  <property name="kdenlive:original.meta.media.width">1920</property>
  <property name="kdenlive:original.meta.media.height">1080</property>
  <property name="kdenlive:original.meta.media.color_range">mpeg</property>
  <property name="kdenlive:original.meta.media.top_field_first">0</property>
  <property name="kdenlive:original.meta.media.progressive">1</property>
  <property name="kdenlive:original.kdenlive:clip_type">2</property>
  <property name="kdenlive:original.kdenlive:folderid">227</property>
  <property name="kdenlive:original.kdenlive:id">228</property>
  <property name="kdenlive:original.mute_on_pause">0</property>
  <property name="kdenlive:original.kdenlive:file_size">18901</property>
  <property name="kdenlive:original.kdenlive:file_hash">e8ef54c58c1be21e6ad6d6be5d5114c7</property>
  <property name="kdenlive:original.backup">1</property>
  <property name="meta.media.top_field_first">0</property>
  <property name="meta.media.progressive">1</property>
 </chain>
 <chain id="chain88" out="00:00:02.233">
  <property name="length">135</property>
  <property name="eof">pause</property>
  <property name="resource">/home/xiaoxiae/.cache/kdenlive/proxy/da4f870b34d72f3b3b90ad890a52b551.mkv</property>
  <property name="mlt_service">avformat-novalidate</property>
  <property name="meta.media.nb_streams">1</property>
  <property name="meta.media.0.stream.type">video</property>
  <property name="meta.media.0.stream.frame_rate">60</property>
  <property name="meta.media.0.stream.sample_aspect_ratio">0</property>
  <property name="meta.media.0.codec.width">640</property>
  <property name="meta.media.0.codec.height">360</property>
  <property name="meta.media.0.codec.rotate">0</property>
  <property name="meta.media.0.codec.pix_fmt">yuvj420p</property>
  <property name="meta.media.0.codec.sample_aspect_ratio">0</property>
  <property name="meta.media.0.codec.colorspace">601</property>
  <property name="meta.media.0.codec.name">mjpeg</property>
  <property name="meta.media.0.codec.long_name">MJPEG (Motion JPEG)</property>
  <property name="meta.media.0.codec.bit_rate">0</property>
  <property name="meta.attr.0.stream.HANDLER_NAME.markup">VideoHandler</property>
  <property name="meta.attr.0.stream.VENDOR_ID.markup">[0][0][0][0]</property>
  <property name="meta.attr.0.stream.ENCODER.markup">Lavc60.3.100 mjpeg</property>
  <property name="meta.attr.0.stream.DURATION.markup">00:00:02.250000000</property>
  <property name="meta.attr.COMMENT.markup">Rendered with Manim Community v0.17.3</property>
  <property name="meta.attr.MAJOR_BRAND.markup">isom</property>
  <property name="meta.attr.MINOR_VERSION.markup">512</property>
  <property name="meta.attr.COMPATIBLE_BRANDS.markup">isomiso2avc1mp41</property>
  <property name="meta.attr.ENCODER.markup">Lavf60.3.100</property>
  <property name="seekable">1</property>
  <property name="meta.media.sample_aspect_num">1</property>
  <property name="meta.media.sample_aspect_den">1</property>
  <property name="format">3</property>
  <property name="audio_index">-1</property>
  <property name="video_index">0</property>
  <property name="meta.media.frame_rate_num">60</property>
  <property name="meta.media.frame_rate_den">1</property>
  <property name="meta.media.colorspace">601</property>
  <property name="meta.media.color_trc">2</property>
  <property name="meta.media.has_b_frames">0</property>
  <property name="meta.media.width">640</property>
  <property name="meta.media.height">360</property>
  <property name="meta.media.color_range">full</property>
  <property name="kdenlive:clipname">10.mp4</property>
  <property name="kdenlive:clip_type">2</property>
  <property name="kdenlive:folderid">227</property>
  <property name="kdenlive:id">229</property>
  <property name="mute_on_pause">0</property>
  <property name="kdenlive:file_size">182349</property>
  <property name="kdenlive:file_hash">da4f870b34d72f3b3b90ad890a52b551</property>
  <property name="kdenlive:proxy">/home/xiaoxiae/.cache/kdenlive/proxy/da4f870b34d72f3b3b90ad890a52b551.mkv</property>
  <property name="kdenlive:originalurl">video/Outro/10.mp4</property>
  <property name="kdenlive:original.mlt_type">chain</property>
  <property name="kdenlive:original.in">0</property>
  <property name="kdenlive:original.out">00:00:02.233</property>
  <property name="kdenlive:original.length">135</property>
  <property name="kdenlive:original.eof">pause</property>
  <property name="kdenlive:original.resource">video/Outro/10.mp4</property>
  <property name="kdenlive:original.mlt_service">avformat-novalidate</property>
  <property name="kdenlive:original.meta.media.nb_streams">1</property>
  <property name="kdenlive:original.meta.media.0.stream.type">video</property>
  <property name="kdenlive:original.meta.media.0.stream.frame_rate">60</property>
  <property name="kdenlive:original.meta.media.0.stream.sample_aspect_ratio">0</property>
  <property name="kdenlive:original.meta.media.0.codec.width">1920</property>
  <property name="kdenlive:original.meta.media.0.codec.height">1080</property>
  <property name="kdenlive:original.meta.media.0.codec.rotate">0</property>
  <property name="kdenlive:original.meta.media.0.codec.pix_fmt">yuv420p</property>
  <property name="kdenlive:original.meta.media.0.codec.sample_aspect_ratio">0</property>
  <property name="kdenlive:original.meta.media.0.codec.colorspace">709</property>
  <property name="kdenlive:original.meta.media.0.codec.name">h264</property>
  <property name="kdenlive:original.meta.media.0.codec.long_name">H.264 / AVC / MPEG-4 AVC / MPEG-4 part 10</property>
  <property name="kdenlive:original.meta.media.0.codec.bit_rate">640060</property>
  <property name="kdenlive:original.meta.attr.0.stream.handler_name.markup">VideoHandler</property>
  <property name="kdenlive:original.meta.attr.0.stream.vendor_id.markup">[0][0][0][0]</property>
  <property name="kdenlive:original.meta.attr.0.stream.encoder.markup">Lavc60.3.100 libx264</property>
  <property name="kdenlive:original.meta.attr.major_brand.markup">isom</property>
  <property name="kdenlive:original.meta.attr.minor_version.markup">512</property>
  <property name="kdenlive:original.meta.attr.compatible_brands.markup">isomiso2avc1mp41</property>
  <property name="kdenlive:original.meta.attr.encoder.markup">Lavf60.3.100</property>
  <property name="kdenlive:original.meta.attr.comment.markup">Rendered with Manim Community v0.17.3</property>
  <property name="kdenlive:original.seekable">1</property>
  <property name="kdenlive:original.width">1920</property>
  <property name="kdenlive:original.height">1080</property>
  <property name="kdenlive:original.meta.media.sample_aspect_num">1</property>
  <property name="kdenlive:original.meta.media.sample_aspect_den">1</property>
  <property name="kdenlive:original.format">3</property>
  <property name="kdenlive:original.audio_index">-1</property>
  <property name="kdenlive:original.video_index">0</property>
  <property name="kdenlive:original.meta.media.frame_rate_num">60</property>
  <property name="kdenlive:original.meta.media.frame_rate_den">1</property>
  <property name="kdenlive:original.meta.media.colorspace">709</property>
  <property name="kdenlive:original.meta.media.color_trc">2</property>
  <property name="kdenlive:original.meta.media.has_b_frames">2</property>
  <property name="kdenlive:original.meta.media.width">1920</property>
  <property name="kdenlive:original.meta.media.height">1080</property>
  <property name="kdenlive:original.meta.media.color_range">mpeg</property>
  <property name="kdenlive:original.meta.media.top_field_first">0</property>
  <property name="kdenlive:original.meta.media.progressive">1</property>
  <property name="kdenlive:original.kdenlive:clip_type">2</property>
  <property name="kdenlive:original.kdenlive:folderid">227</property>
  <property name="kdenlive:original.kdenlive:id">229</property>
  <property name="kdenlive:original.mute_on_pause">0</property>
  <property name="kdenlive:original.kdenlive:file_size">182349</property>
  <property name="kdenlive:original.kdenlive:file_hash">da4f870b34d72f3b3b90ad890a52b551</property>
  <property name="kdenlive:original.backup">1</property>
  <property name="meta.media.top_field_first">0</property>
  <property name="meta.media.progressive">1</property>
 </chain>
 <chain id="chain87" out="00:00:01.983">
  <property name="length">120</property>
  <property name="eof">pause</property>
  <property name="resource">/home/xiaoxiae/.cache/kdenlive/proxy/256c62daba6c7344e1f180a0cdf89488.mkv</property>
  <property name="mlt_service">avformat-novalidate</property>
  <property name="meta.media.nb_streams">1</property>
  <property name="meta.media.0.stream.type">video</property>
  <property name="meta.media.0.stream.frame_rate">60</property>
  <property name="meta.media.0.stream.sample_aspect_ratio">0</property>
  <property name="meta.media.0.codec.width">640</property>
  <property name="meta.media.0.codec.height">360</property>
  <property name="meta.media.0.codec.rotate">0</property>
  <property name="meta.media.0.codec.pix_fmt">yuvj420p</property>
  <property name="meta.media.0.codec.sample_aspect_ratio">0</property>
  <property name="meta.media.0.codec.colorspace">601</property>
  <property name="meta.media.0.codec.name">mjpeg</property>
  <property name="meta.media.0.codec.long_name">MJPEG (Motion JPEG)</property>
  <property name="meta.media.0.codec.bit_rate">0</property>
  <property name="meta.attr.0.stream.HANDLER_NAME.markup">VideoHandler</property>
  <property name="meta.attr.0.stream.VENDOR_ID.markup">[0][0][0][0]</property>
  <property name="meta.attr.0.stream.ENCODER.markup">Lavc60.3.100 mjpeg</property>
  <property name="meta.attr.0.stream.DURATION.markup">00:00:02.000000000</property>
  <property name="meta.attr.COMMENT.markup">Rendered with Manim Community v0.17.3</property>
  <property name="meta.attr.MAJOR_BRAND.markup">isom</property>
  <property name="meta.attr.MINOR_VERSION.markup">512</property>
  <property name="meta.attr.COMPATIBLE_BRANDS.markup">isomiso2avc1mp41</property>
  <property name="meta.attr.ENCODER.markup">Lavf60.3.100</property>
  <property name="seekable">1</property>
  <property name="meta.media.sample_aspect_num">1</property>
  <property name="meta.media.sample_aspect_den">1</property>
  <property name="format">3</property>
  <property name="audio_index">-1</property>
  <property name="video_index">0</property>
  <property name="meta.media.frame_rate_num">60</property>
  <property name="meta.media.frame_rate_den">1</property>
  <property name="meta.media.colorspace">601</property>
  <property name="meta.media.color_trc">2</property>
  <property name="meta.media.has_b_frames">0</property>
  <property name="meta.media.width">640</property>
  <property name="meta.media.height">360</property>
  <property name="meta.media.color_range">full</property>
  <property name="kdenlive:clipname">11.mp4</property>
  <property name="kdenlive:clip_type">2</property>
  <property name="kdenlive:folderid">227</property>
  <property name="kdenlive:id">230</property>
  <property name="mute_on_pause">0</property>
  <property name="kdenlive:file_size">353848</property>
  <property name="kdenlive:file_hash">256c62daba6c7344e1f180a0cdf89488</property>
  <property name="kdenlive:proxy">/home/xiaoxiae/.cache/kdenlive/proxy/256c62daba6c7344e1f180a0cdf89488.mkv</property>
  <property name="kdenlive:originalurl">video/Outro/11.mp4</property>
  <property name="kdenlive:original.mlt_type">chain</property>
  <property name="kdenlive:original.in">0</property>
  <property name="kdenlive:original.out">00:00:01.983</property>
  <property name="kdenlive:original.length">120</property>
  <property name="kdenlive:original.eof">pause</property>
  <property name="kdenlive:original.resource">video/Outro/11.mp4</property>
  <property name="kdenlive:original.mlt_service">avformat-novalidate</property>
  <property name="kdenlive:original.meta.media.nb_streams">1</property>
  <property name="kdenlive:original.meta.media.0.stream.type">video</property>
  <property name="kdenlive:original.meta.media.0.stream.frame_rate">60</property>
  <property name="kdenlive:original.meta.media.0.stream.sample_aspect_ratio">0</property>
  <property name="kdenlive:original.meta.media.0.codec.width">1920</property>
  <property name="kdenlive:original.meta.media.0.codec.height">1080</property>
  <property name="kdenlive:original.meta.media.0.codec.rotate">0</property>
  <property name="kdenlive:original.meta.media.0.codec.pix_fmt">yuv420p</property>
  <property name="kdenlive:original.meta.media.0.codec.sample_aspect_ratio">0</property>
  <property name="kdenlive:original.meta.media.0.codec.colorspace">709</property>
  <property name="kdenlive:original.meta.media.0.codec.name">h264</property>
  <property name="kdenlive:original.meta.media.0.codec.long_name">H.264 / AVC / MPEG-4 AVC / MPEG-4 part 10</property>
  <property name="kdenlive:original.meta.media.0.codec.bit_rate">1406752</property>
  <property name="kdenlive:original.meta.attr.0.stream.handler_name.markup">VideoHandler</property>
  <property name="kdenlive:original.meta.attr.0.stream.vendor_id.markup">[0][0][0][0]</property>
  <property name="kdenlive:original.meta.attr.0.stream.encoder.markup">Lavc60.3.100 libx264</property>
  <property name="kdenlive:original.meta.attr.major_brand.markup">isom</property>
  <property name="kdenlive:original.meta.attr.minor_version.markup">512</property>
  <property name="kdenlive:original.meta.attr.compatible_brands.markup">isomiso2avc1mp41</property>
  <property name="kdenlive:original.meta.attr.encoder.markup">Lavf60.3.100</property>
  <property name="kdenlive:original.meta.attr.comment.markup">Rendered with Manim Community v0.17.3</property>
  <property name="kdenlive:original.seekable">1</property>
  <property name="kdenlive:original.width">1920</property>
  <property name="kdenlive:original.height">1080</property>
  <property name="kdenlive:original.meta.media.sample_aspect_num">1</property>
  <property name="kdenlive:original.meta.media.sample_aspect_den">1</property>
  <property name="kdenlive:original.format">3</property>
  <property name="kdenlive:original.audio_index">-1</property>
  <property name="kdenlive:original.video_index">0</property>
  <property name="kdenlive:original.meta.media.frame_rate_num">60</property>
  <property name="kdenlive:original.meta.media.frame_rate_den">1</property>
  <property name="kdenlive:original.meta.media.colorspace">709</property>
  <property name="kdenlive:original.meta.media.color_trc">2</property>
  <property name="kdenlive:original.meta.media.has_b_frames">2</property>
  <property name="kdenlive:original.meta.media.width">1920</property>
  <property name="kdenlive:original.meta.media.height">1080</property>
  <property name="kdenlive:original.meta.media.color_range">mpeg</property>
  <property name="kdenlive:original.meta.media.top_field_first">0</property>
  <property name="kdenlive:original.meta.media.progressive">1</property>
  <property name="kdenlive:original.kdenlive:clip_type">2</property>
  <property name="kdenlive:original.kdenlive:folderid">227</property>
  <property name="kdenlive:original.kdenlive:id">230</property>
  <property name="kdenlive:original.mute_on_pause">0</property>
  <property name="kdenlive:original.kdenlive:file_size">353848</property>
  <property name="kdenlive:original.kdenlive:file_hash">256c62daba6c7344e1f180a0cdf89488</property>
  <property name="kdenlive:original.backup">1</property>
  <property name="meta.media.top_field_first">0</property>
  <property name="meta.media.progressive">1</property>
 </chain>
 <chain id="chain86" out="00:00:01.483">
  <property name="length">90</property>
  <property name="eof">pause</property>
  <property name="resource">/home/xiaoxiae/.cache/kdenlive/proxy/7eb06b02cdcc0858c471f11e1d77b583.mkv</property>
  <property name="mlt_service">avformat-novalidate</property>
  <property name="meta.media.nb_streams">1</property>
  <property name="meta.media.0.stream.type">video</property>
  <property name="meta.media.0.stream.frame_rate">60</property>
  <property name="meta.media.0.stream.sample_aspect_ratio">0</property>
  <property name="meta.media.0.codec.width">640</property>
  <property name="meta.media.0.codec.height">360</property>
  <property name="meta.media.0.codec.rotate">0</property>
  <property name="meta.media.0.codec.pix_fmt">yuvj420p</property>
  <property name="meta.media.0.codec.sample_aspect_ratio">0</property>
  <property name="meta.media.0.codec.colorspace">601</property>
  <property name="meta.media.0.codec.name">mjpeg</property>
  <property name="meta.media.0.codec.long_name">MJPEG (Motion JPEG)</property>
  <property name="meta.media.0.codec.bit_rate">0</property>
  <property name="meta.attr.0.stream.HANDLER_NAME.markup">VideoHandler</property>
  <property name="meta.attr.0.stream.VENDOR_ID.markup">[0][0][0][0]</property>
  <property name="meta.attr.0.stream.ENCODER.markup">Lavc60.3.100 mjpeg</property>
  <property name="meta.attr.0.stream.DURATION.markup">00:00:01.500000000</property>
  <property name="meta.attr.COMMENT.markup">Rendered with Manim Community v0.17.3</property>
  <property name="meta.attr.MAJOR_BRAND.markup">isom</property>
  <property name="meta.attr.MINOR_VERSION.markup">512</property>
  <property name="meta.attr.COMPATIBLE_BRANDS.markup">isomiso2avc1mp41</property>
  <property name="meta.attr.ENCODER.markup">Lavf60.3.100</property>
  <property name="seekable">1</property>
  <property name="meta.media.sample_aspect_num">1</property>
  <property name="meta.media.sample_aspect_den">1</property>
  <property name="format">3</property>
  <property name="audio_index">-1</property>
  <property name="video_index">0</property>
  <property name="meta.media.frame_rate_num">60</property>
  <property name="meta.media.frame_rate_den">1</property>
  <property name="meta.media.colorspace">601</property>
  <property name="meta.media.color_trc">2</property>
  <property name="meta.media.has_b_frames">0</property>
  <property name="meta.media.width">640</property>
  <property name="meta.media.height">360</property>
  <property name="meta.media.color_range">full</property>
  <property name="kdenlive:clipname">12.mp4</property>
  <property name="kdenlive:clip_type">2</property>
  <property name="kdenlive:folderid">227</property>
  <property name="kdenlive:id">231</property>
  <property name="mute_on_pause">0</property>
  <property name="kdenlive:file_size">225222</property>
  <property name="kdenlive:file_hash">7eb06b02cdcc0858c471f11e1d77b583</property>
  <property name="kdenlive:proxy">/home/xiaoxiae/.cache/kdenlive/proxy/7eb06b02cdcc0858c471f11e1d77b583.mkv</property>
  <property name="kdenlive:originalurl">video/Outro/12.mp4</property>
  <property name="kdenlive:original.mlt_type">chain</property>
  <property name="kdenlive:original.in">0</property>
  <property name="kdenlive:original.out">00:00:01.483</property>
  <property name="kdenlive:original.length">90</property>
  <property name="kdenlive:original.eof">pause</property>
  <property name="kdenlive:original.resource">video/Outro/12.mp4</property>
  <property name="kdenlive:original.mlt_service">avformat-novalidate</property>
  <property name="kdenlive:original.meta.media.nb_streams">1</property>
  <property name="kdenlive:original.meta.media.0.stream.type">video</property>
  <property name="kdenlive:original.meta.media.0.stream.frame_rate">60</property>
  <property name="kdenlive:original.meta.media.0.stream.sample_aspect_ratio">0</property>
  <property name="kdenlive:original.meta.media.0.codec.width">1920</property>
  <property name="kdenlive:original.meta.media.0.codec.height">1080</property>
  <property name="kdenlive:original.meta.media.0.codec.rotate">0</property>
  <property name="kdenlive:original.meta.media.0.codec.pix_fmt">yuv420p</property>
  <property name="kdenlive:original.meta.media.0.codec.sample_aspect_ratio">0</property>
  <property name="kdenlive:original.meta.media.0.codec.colorspace">709</property>
  <property name="kdenlive:original.meta.media.0.codec.name">h264</property>
  <property name="kdenlive:original.meta.media.0.codec.long_name">H.264 / AVC / MPEG-4 AVC / MPEG-4 part 10</property>
  <property name="kdenlive:original.meta.media.0.codec.bit_rate">1191200</property>
  <property name="kdenlive:original.meta.attr.0.stream.handler_name.markup">VideoHandler</property>
  <property name="kdenlive:original.meta.attr.0.stream.vendor_id.markup">[0][0][0][0]</property>
  <property name="kdenlive:original.meta.attr.0.stream.encoder.markup">Lavc60.3.100 libx264</property>
  <property name="kdenlive:original.meta.attr.major_brand.markup">isom</property>
  <property name="kdenlive:original.meta.attr.minor_version.markup">512</property>
  <property name="kdenlive:original.meta.attr.compatible_brands.markup">isomiso2avc1mp41</property>
  <property name="kdenlive:original.meta.attr.encoder.markup">Lavf60.3.100</property>
  <property name="kdenlive:original.meta.attr.comment.markup">Rendered with Manim Community v0.17.3</property>
  <property name="kdenlive:original.seekable">1</property>
  <property name="kdenlive:original.width">1920</property>
  <property name="kdenlive:original.height">1080</property>
  <property name="kdenlive:original.meta.media.sample_aspect_num">1</property>
  <property name="kdenlive:original.meta.media.sample_aspect_den">1</property>
  <property name="kdenlive:original.format">3</property>
  <property name="kdenlive:original.audio_index">-1</property>
  <property name="kdenlive:original.video_index">0</property>
  <property name="kdenlive:original.meta.media.frame_rate_num">60</property>
  <property name="kdenlive:original.meta.media.frame_rate_den">1</property>
  <property name="kdenlive:original.meta.media.colorspace">709</property>
  <property name="kdenlive:original.meta.media.color_trc">2</property>
  <property name="kdenlive:original.meta.media.has_b_frames">2</property>
  <property name="kdenlive:original.meta.media.width">1920</property>
  <property name="kdenlive:original.meta.media.height">1080</property>
  <property name="kdenlive:original.meta.media.color_range">mpeg</property>
  <property name="kdenlive:original.meta.media.top_field_first">0</property>
  <property name="kdenlive:original.meta.media.progressive">1</property>
  <property name="kdenlive:original.kdenlive:clip_type">2</property>
  <property name="kdenlive:original.kdenlive:folderid">227</property>
  <property name="kdenlive:original.kdenlive:id">231</property>
  <property name="kdenlive:original.mute_on_pause">0</property>
  <property name="kdenlive:original.kdenlive:file_size">225222</property>
  <property name="kdenlive:original.kdenlive:file_hash">7eb06b02cdcc0858c471f11e1d77b583</property>
  <property name="kdenlive:original.backup">1</property>
  <property name="meta.media.top_field_first">0</property>
  <property name="meta.media.progressive">1</property>
 </chain>
 <chain id="chain96" out="00:00:00.983">
  <property name="length">60</property>
  <property name="eof">pause</property>
  <property name="resource">/home/xiaoxiae/.cache/kdenlive/proxy/ebaabe73177539b2a0a3f6ab5494fb3d.mkv</property>
  <property name="mlt_service">avformat-novalidate</property>
  <property name="meta.media.nb_streams">1</property>
  <property name="meta.media.0.stream.type">video</property>
  <property name="meta.media.0.stream.frame_rate">60</property>
  <property name="meta.media.0.stream.sample_aspect_ratio">0</property>
  <property name="meta.media.0.codec.width">640</property>
  <property name="meta.media.0.codec.height">360</property>
  <property name="meta.media.0.codec.rotate">0</property>
  <property name="meta.media.0.codec.pix_fmt">yuvj420p</property>
  <property name="meta.media.0.codec.sample_aspect_ratio">0</property>
  <property name="meta.media.0.codec.colorspace">601</property>
  <property name="meta.media.0.codec.name">mjpeg</property>
  <property name="meta.media.0.codec.long_name">MJPEG (Motion JPEG)</property>
  <property name="meta.media.0.codec.bit_rate">0</property>
  <property name="meta.attr.0.stream.HANDLER_NAME.markup">VideoHandler</property>
  <property name="meta.attr.0.stream.VENDOR_ID.markup">[0][0][0][0]</property>
  <property name="meta.attr.0.stream.ENCODER.markup">Lavc60.3.100 mjpeg</property>
  <property name="meta.attr.0.stream.DURATION.markup">00:00:01.000000000</property>
  <property name="meta.attr.COMMENT.markup">Rendered with Manim Community v0.17.3</property>
  <property name="meta.attr.MAJOR_BRAND.markup">isom</property>
  <property name="meta.attr.MINOR_VERSION.markup">512</property>
  <property name="meta.attr.COMPATIBLE_BRANDS.markup">isomiso2avc1mp41</property>
  <property name="meta.attr.ENCODER.markup">Lavf60.3.100</property>
  <property name="seekable">1</property>
  <property name="meta.media.sample_aspect_num">1</property>
  <property name="meta.media.sample_aspect_den">1</property>
  <property name="format">3</property>
  <property name="audio_index">-1</property>
  <property name="video_index">0</property>
  <property name="meta.media.frame_rate_num">60</property>
  <property name="meta.media.frame_rate_den">1</property>
  <property name="meta.media.colorspace">601</property>
  <property name="meta.media.color_trc">2</property>
  <property name="meta.media.has_b_frames">0</property>
  <property name="meta.media.width">640</property>
  <property name="meta.media.height">360</property>
  <property name="meta.media.color_range">full</property>
  <property name="kdenlive:clipname">2.mp4</property>
  <property name="kdenlive:clip_type">2</property>
  <property name="kdenlive:folderid">227</property>
  <property name="kdenlive:id">232</property>
  <property name="mute_on_pause">0</property>
  <property name="kdenlive:file_size">28156</property>
  <property name="kdenlive:file_hash">ebaabe73177539b2a0a3f6ab5494fb3d</property>
  <property name="kdenlive:proxy">/home/xiaoxiae/.cache/kdenlive/proxy/ebaabe73177539b2a0a3f6ab5494fb3d.mkv</property>
  <property name="kdenlive:originalurl">video/Outro/2.mp4</property>
  <property name="kdenlive:original.mlt_type">chain</property>
  <property name="kdenlive:original.in">0</property>
  <property name="kdenlive:original.out">00:00:00.983</property>
  <property name="kdenlive:original.length">60</property>
  <property name="kdenlive:original.eof">pause</property>
  <property name="kdenlive:original.resource">video/Outro/2.mp4</property>
  <property name="kdenlive:original.mlt_service">avformat-novalidate</property>
  <property name="kdenlive:original.meta.media.nb_streams">1</property>
  <property name="kdenlive:original.meta.media.0.stream.type">video</property>
  <property name="kdenlive:original.meta.media.0.stream.frame_rate">60</property>
  <property name="kdenlive:original.meta.media.0.stream.sample_aspect_ratio">0</property>
  <property name="kdenlive:original.meta.media.0.codec.width">1920</property>
  <property name="kdenlive:original.meta.media.0.codec.height">1080</property>
  <property name="kdenlive:original.meta.media.0.codec.rotate">0</property>
  <property name="kdenlive:original.meta.media.0.codec.pix_fmt">yuv420p</property>
  <property name="kdenlive:original.meta.media.0.codec.sample_aspect_ratio">0</property>
  <property name="kdenlive:original.meta.media.0.codec.colorspace">709</property>
  <property name="kdenlive:original.meta.media.0.codec.name">h264</property>
  <property name="kdenlive:original.meta.media.0.codec.long_name">H.264 / AVC / MPEG-4 AVC / MPEG-4 part 10</property>
  <property name="kdenlive:original.meta.media.0.codec.bit_rate">212192</property>
  <property name="kdenlive:original.meta.attr.0.stream.handler_name.markup">VideoHandler</property>
  <property name="kdenlive:original.meta.attr.0.stream.vendor_id.markup">[0][0][0][0]</property>
  <property name="kdenlive:original.meta.attr.0.stream.encoder.markup">Lavc60.3.100 libx264</property>
  <property name="kdenlive:original.meta.attr.major_brand.markup">isom</property>
  <property name="kdenlive:original.meta.attr.minor_version.markup">512</property>
  <property name="kdenlive:original.meta.attr.compatible_brands.markup">isomiso2avc1mp41</property>
  <property name="kdenlive:original.meta.attr.encoder.markup">Lavf60.3.100</property>
  <property name="kdenlive:original.meta.attr.comment.markup">Rendered with Manim Community v0.17.3</property>
  <property name="kdenlive:original.seekable">1</property>
  <property name="kdenlive:original.width">1920</property>
  <property name="kdenlive:original.height">1080</property>
  <property name="kdenlive:original.meta.media.sample_aspect_num">1</property>
  <property name="kdenlive:original.meta.media.sample_aspect_den">1</property>
  <property name="kdenlive:original.format">3</property>
  <property name="kdenlive:original.audio_index">-1</property>
  <property name="kdenlive:original.video_index">0</property>
  <property name="kdenlive:original.meta.media.frame_rate_num">60</property>
  <property name="kdenlive:original.meta.media.frame_rate_den">1</property>
  <property name="kdenlive:original.meta.media.colorspace">709</property>
  <property name="kdenlive:original.meta.media.color_trc">2</property>
  <property name="kdenlive:original.meta.media.has_b_frames">2</property>
  <property name="kdenlive:original.meta.media.width">1920</property>
  <property name="kdenlive:original.meta.media.height">1080</property>
  <property name="kdenlive:original.meta.media.color_range">mpeg</property>
  <property name="kdenlive:original.meta.media.top_field_first">0</property>
  <property name="kdenlive:original.meta.media.progressive">1</property>
  <property name="kdenlive:original.kdenlive:clip_type">2</property>
  <property name="kdenlive:original.kdenlive:folderid">227</property>
  <property name="kdenlive:original.kdenlive:id">232</property>
  <property name="kdenlive:original.mute_on_pause">0</property>
  <property name="kdenlive:original.kdenlive:file_size">28156</property>
  <property name="kdenlive:original.kdenlive:file_hash">ebaabe73177539b2a0a3f6ab5494fb3d</property>
  <property name="kdenlive:original.backup">1</property>
  <property name="meta.media.top_field_first">0</property>
  <property name="meta.media.progressive">1</property>
 </chain>
 <chain id="chain95" out="00:00:01.233">
  <property name="length">75</property>
  <property name="eof">pause</property>
  <property name="resource">/home/xiaoxiae/.cache/kdenlive/proxy/2a643906b4ea1b70ee93d6f406b3e848.mkv</property>
  <property name="mlt_service">avformat-novalidate</property>
  <property name="meta.media.nb_streams">1</property>
  <property name="meta.media.0.stream.type">video</property>
  <property name="meta.media.0.stream.frame_rate">60</property>
  <property name="meta.media.0.stream.sample_aspect_ratio">0</property>
  <property name="meta.media.0.codec.width">640</property>
  <property name="meta.media.0.codec.height">360</property>
  <property name="meta.media.0.codec.rotate">0</property>
  <property name="meta.media.0.codec.pix_fmt">yuvj420p</property>
  <property name="meta.media.0.codec.sample_aspect_ratio">0</property>
  <property name="meta.media.0.codec.colorspace">601</property>
  <property name="meta.media.0.codec.name">mjpeg</property>
  <property name="meta.media.0.codec.long_name">MJPEG (Motion JPEG)</property>
  <property name="meta.media.0.codec.bit_rate">0</property>
  <property name="meta.attr.0.stream.HANDLER_NAME.markup">VideoHandler</property>
  <property name="meta.attr.0.stream.VENDOR_ID.markup">[0][0][0][0]</property>
  <property name="meta.attr.0.stream.ENCODER.markup">Lavc60.3.100 mjpeg</property>
  <property name="meta.attr.0.stream.DURATION.markup">00:00:01.250000000</property>
  <property name="meta.attr.COMMENT.markup">Rendered with Manim Community v0.17.3</property>
  <property name="meta.attr.MAJOR_BRAND.markup">isom</property>
  <property name="meta.attr.MINOR_VERSION.markup">512</property>
  <property name="meta.attr.COMPATIBLE_BRANDS.markup">isomiso2avc1mp41</property>
  <property name="meta.attr.ENCODER.markup">Lavf60.3.100</property>
  <property name="seekable">1</property>
  <property name="meta.media.sample_aspect_num">1</property>
  <property name="meta.media.sample_aspect_den">1</property>
  <property name="format">3</property>
  <property name="audio_index">-1</property>
  <property name="video_index">0</property>
  <property name="meta.media.frame_rate_num">60</property>
  <property name="meta.media.frame_rate_den">1</property>
  <property name="meta.media.colorspace">601</property>
  <property name="meta.media.color_trc">2</property>
  <property name="meta.media.has_b_frames">0</property>
  <property name="meta.media.width">640</property>
  <property name="meta.media.height">360</property>
  <property name="meta.media.color_range">full</property>
  <property name="kdenlive:clipname">3.mp4</property>
  <property name="kdenlive:clip_type">2</property>
  <property name="kdenlive:folderid">227</property>
  <property name="kdenlive:id">233</property>
  <property name="mute_on_pause">0</property>
  <property name="kdenlive:file_size">26224</property>
  <property name="kdenlive:file_hash">2a643906b4ea1b70ee93d6f406b3e848</property>
  <property name="kdenlive:proxy">/home/xiaoxiae/.cache/kdenlive/proxy/2a643906b4ea1b70ee93d6f406b3e848.mkv</property>
  <property name="kdenlive:originalurl">video/Outro/3.mp4</property>
  <property name="kdenlive:original.mlt_type">chain</property>
  <property name="kdenlive:original.in">0</property>
  <property name="kdenlive:original.out">00:00:01.233</property>
  <property name="kdenlive:original.length">75</property>
  <property name="kdenlive:original.eof">pause</property>
  <property name="kdenlive:original.resource">video/Outro/3.mp4</property>
  <property name="kdenlive:original.mlt_service">avformat-novalidate</property>
  <property name="kdenlive:original.meta.media.nb_streams">1</property>
  <property name="kdenlive:original.meta.media.0.stream.type">video</property>
  <property name="kdenlive:original.meta.media.0.stream.frame_rate">60</property>
  <property name="kdenlive:original.meta.media.0.stream.sample_aspect_ratio">0</property>
  <property name="kdenlive:original.meta.media.0.codec.width">1920</property>
  <property name="kdenlive:original.meta.media.0.codec.height">1080</property>
  <property name="kdenlive:original.meta.media.0.codec.rotate">0</property>
  <property name="kdenlive:original.meta.media.0.codec.pix_fmt">yuv420p</property>
  <property name="kdenlive:original.meta.media.0.codec.sample_aspect_ratio">0</property>
  <property name="kdenlive:original.meta.media.0.codec.colorspace">709</property>
  <property name="kdenlive:original.meta.media.0.codec.name">h264</property>
  <property name="kdenlive:original.meta.media.0.codec.long_name">H.264 / AVC / MPEG-4 AVC / MPEG-4 part 10</property>
  <property name="kdenlive:original.meta.media.0.codec.bit_rate">156185</property>
  <property name="kdenlive:original.meta.attr.0.stream.handler_name.markup">VideoHandler</property>
  <property name="kdenlive:original.meta.attr.0.stream.vendor_id.markup">[0][0][0][0]</property>
  <property name="kdenlive:original.meta.attr.0.stream.encoder.markup">Lavc60.3.100 libx264</property>
  <property name="kdenlive:original.meta.attr.major_brand.markup">isom</property>
  <property name="kdenlive:original.meta.attr.minor_version.markup">512</property>
  <property name="kdenlive:original.meta.attr.compatible_brands.markup">isomiso2avc1mp41</property>
  <property name="kdenlive:original.meta.attr.encoder.markup">Lavf60.3.100</property>
  <property name="kdenlive:original.meta.attr.comment.markup">Rendered with Manim Community v0.17.3</property>
  <property name="kdenlive:original.seekable">1</property>
  <property name="kdenlive:original.width">1920</property>
  <property name="kdenlive:original.height">1080</property>
  <property name="kdenlive:original.meta.media.sample_aspect_num">1</property>
  <property name="kdenlive:original.meta.media.sample_aspect_den">1</property>
  <property name="kdenlive:original.format">3</property>
  <property name="kdenlive:original.audio_index">-1</property>
  <property name="kdenlive:original.video_index">0</property>
  <property name="kdenlive:original.meta.media.frame_rate_num">60</property>
  <property name="kdenlive:original.meta.media.frame_rate_den">1</property>
  <property name="kdenlive:original.meta.media.colorspace">709</property>
  <property name="kdenlive:original.meta.media.color_trc">2</property>
  <property name="kdenlive:original.meta.media.has_b_frames">2</property>
  <property name="kdenlive:original.meta.media.width">1920</property>
  <property name="kdenlive:original.meta.media.height">1080</property>
  <property name="kdenlive:original.meta.media.color_range">mpeg</property>
  <property name="kdenlive:original.meta.media.top_field_first">0</property>
  <property name="kdenlive:original.meta.media.progressive">1</property>
  <property name="kdenlive:original.kdenlive:clip_type">2</property>
  <property name="kdenlive:original.kdenlive:folderid">227</property>
  <property name="kdenlive:original.kdenlive:id">233</property>
  <property name="kdenlive:original.mute_on_pause">0</property>
  <property name="kdenlive:original.kdenlive:file_size">26224</property>
  <property name="kdenlive:original.kdenlive:file_hash">2a643906b4ea1b70ee93d6f406b3e848</property>
  <property name="kdenlive:original.backup">1</property>
  <property name="meta.media.top_field_first">0</property>
  <property name="meta.media.progressive">1</property>
 </chain>
 <chain id="chain94" out="00:00:01.233">
  <property name="length">75</property>
  <property name="eof">pause</property>
  <property name="resource">/home/xiaoxiae/.cache/kdenlive/proxy/b9340dd63d6c46b28ef93d0a1bb228c7.mkv</property>
  <property name="mlt_service">avformat-novalidate</property>
  <property name="meta.media.nb_streams">1</property>
  <property name="meta.media.0.stream.type">video</property>
  <property name="meta.media.0.stream.frame_rate">60</property>
  <property name="meta.media.0.stream.sample_aspect_ratio">0</property>
  <property name="meta.media.0.codec.width">640</property>
  <property name="meta.media.0.codec.height">360</property>
  <property name="meta.media.0.codec.rotate">0</property>
  <property name="meta.media.0.codec.pix_fmt">yuvj420p</property>
  <property name="meta.media.0.codec.sample_aspect_ratio">0</property>
  <property name="meta.media.0.codec.colorspace">601</property>
  <property name="meta.media.0.codec.name">mjpeg</property>
  <property name="meta.media.0.codec.long_name">MJPEG (Motion JPEG)</property>
  <property name="meta.media.0.codec.bit_rate">0</property>
  <property name="meta.attr.0.stream.HANDLER_NAME.markup">VideoHandler</property>
  <property name="meta.attr.0.stream.VENDOR_ID.markup">[0][0][0][0]</property>
  <property name="meta.attr.0.stream.ENCODER.markup">Lavc60.3.100 mjpeg</property>
  <property name="meta.attr.0.stream.DURATION.markup">00:00:01.250000000</property>
  <property name="meta.attr.COMMENT.markup">Rendered with Manim Community v0.17.3</property>
  <property name="meta.attr.MAJOR_BRAND.markup">isom</property>
  <property name="meta.attr.MINOR_VERSION.markup">512</property>
  <property name="meta.attr.COMPATIBLE_BRANDS.markup">isomiso2avc1mp41</property>
  <property name="meta.attr.ENCODER.markup">Lavf60.3.100</property>
  <property name="seekable">1</property>
  <property name="meta.media.sample_aspect_num">1</property>
  <property name="meta.media.sample_aspect_den">1</property>
  <property name="format">3</property>
  <property name="audio_index">-1</property>
  <property name="video_index">0</property>
  <property name="meta.media.frame_rate_num">60</property>
  <property name="meta.media.frame_rate_den">1</property>
  <property name="meta.media.colorspace">601</property>
  <property name="meta.media.color_trc">2</property>
  <property name="meta.media.has_b_frames">0</property>
  <property name="meta.media.width">640</property>
  <property name="meta.media.height">360</property>
  <property name="meta.media.color_range">full</property>
  <property name="kdenlive:clipname">4.mp4</property>
  <property name="kdenlive:clip_type">2</property>
  <property name="kdenlive:folderid">227</property>
  <property name="kdenlive:id">234</property>
  <property name="mute_on_pause">0</property>
  <property name="kdenlive:file_size">29877</property>
  <property name="kdenlive:file_hash">b9340dd63d6c46b28ef93d0a1bb228c7</property>
  <property name="kdenlive:proxy">/home/xiaoxiae/.cache/kdenlive/proxy/b9340dd63d6c46b28ef93d0a1bb228c7.mkv</property>
  <property name="kdenlive:originalurl">video/Outro/4.mp4</property>
  <property name="kdenlive:original.mlt_type">chain</property>
  <property name="kdenlive:original.in">0</property>
  <property name="kdenlive:original.out">00:00:01.233</property>
  <property name="kdenlive:original.length">75</property>
  <property name="kdenlive:original.eof">pause</property>
  <property name="kdenlive:original.resource">video/Outro/4.mp4</property>
  <property name="kdenlive:original.mlt_service">avformat-novalidate</property>
  <property name="kdenlive:original.meta.media.nb_streams">1</property>
  <property name="kdenlive:original.meta.media.0.stream.type">video</property>
  <property name="kdenlive:original.meta.media.0.stream.frame_rate">60</property>
  <property name="kdenlive:original.meta.media.0.stream.sample_aspect_ratio">0</property>
  <property name="kdenlive:original.meta.media.0.codec.width">1920</property>
  <property name="kdenlive:original.meta.media.0.codec.height">1080</property>
  <property name="kdenlive:original.meta.media.0.codec.rotate">0</property>
  <property name="kdenlive:original.meta.media.0.codec.pix_fmt">yuv420p</property>
  <property name="kdenlive:original.meta.media.0.codec.sample_aspect_ratio">0</property>
  <property name="kdenlive:original.meta.media.0.codec.colorspace">709</property>
  <property name="kdenlive:original.meta.media.0.codec.name">h264</property>
  <property name="kdenlive:original.meta.media.0.codec.long_name">H.264 / AVC / MPEG-4 AVC / MPEG-4 part 10</property>
  <property name="kdenlive:original.meta.media.0.codec.bit_rate">179667</property>
  <property name="kdenlive:original.meta.attr.0.stream.handler_name.markup">VideoHandler</property>
  <property name="kdenlive:original.meta.attr.0.stream.vendor_id.markup">[0][0][0][0]</property>
  <property name="kdenlive:original.meta.attr.0.stream.encoder.markup">Lavc60.3.100 libx264</property>
  <property name="kdenlive:original.meta.attr.major_brand.markup">isom</property>
  <property name="kdenlive:original.meta.attr.minor_version.markup">512</property>
  <property name="kdenlive:original.meta.attr.compatible_brands.markup">isomiso2avc1mp41</property>
  <property name="kdenlive:original.meta.attr.encoder.markup">Lavf60.3.100</property>
  <property name="kdenlive:original.meta.attr.comment.markup">Rendered with Manim Community v0.17.3</property>
  <property name="kdenlive:original.seekable">1</property>
  <property name="kdenlive:original.width">1920</property>
  <property name="kdenlive:original.height">1080</property>
  <property name="kdenlive:original.meta.media.sample_aspect_num">1</property>
  <property name="kdenlive:original.meta.media.sample_aspect_den">1</property>
  <property name="kdenlive:original.format">3</property>
  <property name="kdenlive:original.audio_index">-1</property>
  <property name="kdenlive:original.video_index">0</property>
  <property name="kdenlive:original.meta.media.frame_rate_num">60</property>
  <property name="kdenlive:original.meta.media.frame_rate_den">1</property>
  <property name="kdenlive:original.meta.media.colorspace">709</property>
  <property name="kdenlive:original.meta.media.color_trc">2</property>
  <property name="kdenlive:original.meta.media.has_b_frames">2</property>
  <property name="kdenlive:original.meta.media.width">1920</property>
  <property name="kdenlive:original.meta.media.height">1080</property>
  <property name="kdenlive:original.meta.media.color_range">mpeg</property>
  <property name="kdenlive:original.meta.media.top_field_first">0</property>
  <property name="kdenlive:original.meta.media.progressive">1</property>
  <property name="kdenlive:original.kdenlive:clip_type">2</property>
  <property name="kdenlive:original.kdenlive:folderid">227</property>
  <property name="kdenlive:original.kdenlive:id">234</property>
  <property name="kdenlive:original.mute_on_pause">0</property>
  <property name="kdenlive:original.kdenlive:file_size">29877</property>
  <property name="kdenlive:original.kdenlive:file_hash">b9340dd63d6c46b28ef93d0a1bb228c7</property>
  <property name="kdenlive:original.backup">1</property>
  <property name="meta.media.top_field_first">0</property>
  <property name="meta.media.progressive">1</property>
 </chain>
 <chain id="chain93" out="00:00:00.983">
  <property name="length">60</property>
  <property name="eof">pause</property>
  <property name="resource">/home/xiaoxiae/.cache/kdenlive/proxy/4b646a638f6056e49b64755909c43e25.mkv</property>
  <property name="mlt_service">avformat-novalidate</property>
  <property name="meta.media.nb_streams">1</property>
  <property name="meta.media.0.stream.type">video</property>
  <property name="meta.media.0.stream.frame_rate">60</property>
  <property name="meta.media.0.stream.sample_aspect_ratio">0</property>
  <property name="meta.media.0.codec.width">640</property>
  <property name="meta.media.0.codec.height">360</property>
  <property name="meta.media.0.codec.rotate">0</property>
  <property name="meta.media.0.codec.pix_fmt">yuvj420p</property>
  <property name="meta.media.0.codec.sample_aspect_ratio">0</property>
  <property name="meta.media.0.codec.colorspace">601</property>
  <property name="meta.media.0.codec.name">mjpeg</property>
  <property name="meta.media.0.codec.long_name">MJPEG (Motion JPEG)</property>
  <property name="meta.media.0.codec.bit_rate">0</property>
  <property name="meta.attr.0.stream.HANDLER_NAME.markup">VideoHandler</property>
  <property name="meta.attr.0.stream.VENDOR_ID.markup">[0][0][0][0]</property>
  <property name="meta.attr.0.stream.ENCODER.markup">Lavc60.3.100 mjpeg</property>
  <property name="meta.attr.0.stream.DURATION.markup">00:00:01.000000000</property>
  <property name="meta.attr.COMMENT.markup">Rendered with Manim Community v0.17.3</property>
  <property name="meta.attr.MAJOR_BRAND.markup">isom</property>
  <property name="meta.attr.MINOR_VERSION.markup">512</property>
  <property name="meta.attr.COMPATIBLE_BRANDS.markup">isomiso2avc1mp41</property>
  <property name="meta.attr.ENCODER.markup">Lavf60.3.100</property>
  <property name="seekable">1</property>
  <property name="meta.media.sample_aspect_num">1</property>
  <property name="meta.media.sample_aspect_den">1</property>
  <property name="format">3</property>
  <property name="audio_index">-1</property>
  <property name="video_index">0</property>
  <property name="meta.media.frame_rate_num">60</property>
  <property name="meta.media.frame_rate_den">1</property>
  <property name="meta.media.colorspace">601</property>
  <property name="meta.media.color_trc">2</property>
  <property name="meta.media.has_b_frames">0</property>
  <property name="meta.media.width">640</property>
  <property name="meta.media.height">360</property>
  <property name="meta.media.color_range">full</property>
  <property name="kdenlive:clipname">5.mp4</property>
  <property name="kdenlive:clip_type">2</property>
  <property name="kdenlive:folderid">227</property>
  <property name="kdenlive:id">235</property>
  <property name="mute_on_pause">0</property>
  <property name="kdenlive:file_size">29129</property>
  <property name="kdenlive:file_hash">4b646a638f6056e49b64755909c43e25</property>
  <property name="kdenlive:proxy">/home/xiaoxiae/.cache/kdenlive/proxy/4b646a638f6056e49b64755909c43e25.mkv</property>
  <property name="kdenlive:originalurl">video/Outro/5.mp4</property>
  <property name="kdenlive:original.mlt_type">chain</property>
  <property name="kdenlive:original.in">0</property>
  <property name="kdenlive:original.out">00:00:00.983</property>
  <property name="kdenlive:original.length">60</property>
  <property name="kdenlive:original.eof">pause</property>
  <property name="kdenlive:original.resource">video/Outro/5.mp4</property>
  <property name="kdenlive:original.mlt_service">avformat-novalidate</property>
  <property name="kdenlive:original.meta.media.nb_streams">1</property>
  <property name="kdenlive:original.meta.media.0.stream.type">video</property>
  <property name="kdenlive:original.meta.media.0.stream.frame_rate">60</property>
  <property name="kdenlive:original.meta.media.0.stream.sample_aspect_ratio">0</property>
  <property name="kdenlive:original.meta.media.0.codec.width">1920</property>
  <property name="kdenlive:original.meta.media.0.codec.height">1080</property>
  <property name="kdenlive:original.meta.media.0.codec.rotate">0</property>
  <property name="kdenlive:original.meta.media.0.codec.pix_fmt">yuv420p</property>
  <property name="kdenlive:original.meta.media.0.codec.sample_aspect_ratio">0</property>
  <property name="kdenlive:original.meta.media.0.codec.colorspace">709</property>
  <property name="kdenlive:original.meta.media.0.codec.name">h264</property>
  <property name="kdenlive:original.meta.media.0.codec.long_name">H.264 / AVC / MPEG-4 AVC / MPEG-4 part 10</property>
  <property name="kdenlive:original.meta.media.0.codec.bit_rate">219976</property>
  <property name="kdenlive:original.meta.attr.0.stream.handler_name.markup">VideoHandler</property>
  <property name="kdenlive:original.meta.attr.0.stream.vendor_id.markup">[0][0][0][0]</property>
  <property name="kdenlive:original.meta.attr.0.stream.encoder.markup">Lavc60.3.100 libx264</property>
  <property name="kdenlive:original.meta.attr.major_brand.markup">isom</property>
  <property name="kdenlive:original.meta.attr.minor_version.markup">512</property>
  <property name="kdenlive:original.meta.attr.compatible_brands.markup">isomiso2avc1mp41</property>
  <property name="kdenlive:original.meta.attr.encoder.markup">Lavf60.3.100</property>
  <property name="kdenlive:original.meta.attr.comment.markup">Rendered with Manim Community v0.17.3</property>
  <property name="kdenlive:original.seekable">1</property>
  <property name="kdenlive:original.width">1920</property>
  <property name="kdenlive:original.height">1080</property>
  <property name="kdenlive:original.meta.media.sample_aspect_num">1</property>
  <property name="kdenlive:original.meta.media.sample_aspect_den">1</property>
  <property name="kdenlive:original.format">3</property>
  <property name="kdenlive:original.audio_index">-1</property>
  <property name="kdenlive:original.video_index">0</property>
  <property name="kdenlive:original.meta.media.frame_rate_num">60</property>
  <property name="kdenlive:original.meta.media.frame_rate_den">1</property>
  <property name="kdenlive:original.meta.media.colorspace">709</property>
  <property name="kdenlive:original.meta.media.color_trc">2</property>
  <property name="kdenlive:original.meta.media.has_b_frames">2</property>
  <property name="kdenlive:original.meta.media.width">1920</property>
  <property name="kdenlive:original.meta.media.height">1080</property>
  <property name="kdenlive:original.meta.media.color_range">mpeg</property>
  <property name="kdenlive:original.meta.media.top_field_first">0</property>
  <property name="kdenlive:original.meta.media.progressive">1</property>
  <property name="kdenlive:original.kdenlive:clip_type">2</property>
  <property name="kdenlive:original.kdenlive:folderid">227</property>
  <property name="kdenlive:original.kdenlive:id">235</property>
  <property name="kdenlive:original.mute_on_pause">0</property>
  <property name="kdenlive:original.kdenlive:file_size">29129</property>
  <property name="kdenlive:original.kdenlive:file_hash">4b646a638f6056e49b64755909c43e25</property>
  <property name="kdenlive:original.backup">1</property>
  <property name="meta.media.top_field_first">0</property>
  <property name="meta.media.progressive">1</property>
 </chain>
 <chain id="chain92" out="00:00:00.983">
  <property name="length">60</property>
  <property name="eof">pause</property>
  <property name="resource">/home/xiaoxiae/.cache/kdenlive/proxy/580f3d2a7b9091acf20b8ec35c4d3ee5.mkv</property>
  <property name="mlt_service">avformat-novalidate</property>
  <property name="meta.media.nb_streams">1</property>
  <property name="meta.media.0.stream.type">video</property>
  <property name="meta.media.0.stream.frame_rate">60</property>
  <property name="meta.media.0.stream.sample_aspect_ratio">0</property>
  <property name="meta.media.0.codec.width">640</property>
  <property name="meta.media.0.codec.height">360</property>
  <property name="meta.media.0.codec.rotate">0</property>
  <property name="meta.media.0.codec.pix_fmt">yuvj420p</property>
  <property name="meta.media.0.codec.sample_aspect_ratio">0</property>
  <property name="meta.media.0.codec.colorspace">601</property>
  <property name="meta.media.0.codec.name">mjpeg</property>
  <property name="meta.media.0.codec.long_name">MJPEG (Motion JPEG)</property>
  <property name="meta.media.0.codec.bit_rate">0</property>
  <property name="meta.attr.0.stream.HANDLER_NAME.markup">VideoHandler</property>
  <property name="meta.attr.0.stream.VENDOR_ID.markup">[0][0][0][0]</property>
  <property name="meta.attr.0.stream.ENCODER.markup">Lavc60.3.100 mjpeg</property>
  <property name="meta.attr.0.stream.DURATION.markup">00:00:01.000000000</property>
  <property name="meta.attr.COMMENT.markup">Rendered with Manim Community v0.17.3</property>
  <property name="meta.attr.MAJOR_BRAND.markup">isom</property>
  <property name="meta.attr.MINOR_VERSION.markup">512</property>
  <property name="meta.attr.COMPATIBLE_BRANDS.markup">isomiso2avc1mp41</property>
  <property name="meta.attr.ENCODER.markup">Lavf60.3.100</property>
  <property name="seekable">1</property>
  <property name="meta.media.sample_aspect_num">1</property>
  <property name="meta.media.sample_aspect_den">1</property>
  <property name="format">3</property>
  <property name="audio_index">-1</property>
  <property name="video_index">0</property>
  <property name="meta.media.frame_rate_num">60</property>
  <property name="meta.media.frame_rate_den">1</property>
  <property name="meta.media.colorspace">601</property>
  <property name="meta.media.color_trc">2</property>
  <property name="meta.media.has_b_frames">0</property>
  <property name="meta.media.width">640</property>
  <property name="meta.media.height">360</property>
  <property name="meta.media.color_range">full</property>
  <property name="kdenlive:clipname">6.mp4</property>
  <property name="kdenlive:clip_type">2</property>
  <property name="kdenlive:folderid">227</property>
  <property name="kdenlive:id">236</property>
  <property name="mute_on_pause">0</property>
  <property name="kdenlive:file_size">32463</property>
  <property name="kdenlive:file_hash">580f3d2a7b9091acf20b8ec35c4d3ee5</property>
  <property name="kdenlive:proxy">/home/xiaoxiae/.cache/kdenlive/proxy/580f3d2a7b9091acf20b8ec35c4d3ee5.mkv</property>
  <property name="kdenlive:originalurl">video/Outro/6.mp4</property>
  <property name="kdenlive:original.mlt_type">chain</property>
  <property name="kdenlive:original.in">0</property>
  <property name="kdenlive:original.out">00:00:00.983</property>
  <property name="kdenlive:original.length">60</property>
  <property name="kdenlive:original.eof">pause</property>
  <property name="kdenlive:original.resource">video/Outro/6.mp4</property>
  <property name="kdenlive:original.mlt_service">avformat-novalidate</property>
  <property name="kdenlive:original.meta.media.nb_streams">1</property>
  <property name="kdenlive:original.meta.media.0.stream.type">video</property>
  <property name="kdenlive:original.meta.media.0.stream.frame_rate">60</property>
  <property name="kdenlive:original.meta.media.0.stream.sample_aspect_ratio">0</property>
  <property name="kdenlive:original.meta.media.0.codec.width">1920</property>
  <property name="kdenlive:original.meta.media.0.codec.height">1080</property>
  <property name="kdenlive:original.meta.media.0.codec.rotate">0</property>
  <property name="kdenlive:original.meta.media.0.codec.pix_fmt">yuv420p</property>
  <property name="kdenlive:original.meta.media.0.codec.sample_aspect_ratio">0</property>
  <property name="kdenlive:original.meta.media.0.codec.colorspace">709</property>
  <property name="kdenlive:original.meta.media.0.codec.name">h264</property>
  <property name="kdenlive:original.meta.media.0.codec.long_name">H.264 / AVC / MPEG-4 AVC / MPEG-4 part 10</property>
  <property name="kdenlive:original.meta.media.0.codec.bit_rate">246648</property>
  <property name="kdenlive:original.meta.attr.0.stream.handler_name.markup">VideoHandler</property>
  <property name="kdenlive:original.meta.attr.0.stream.vendor_id.markup">[0][0][0][0]</property>
  <property name="kdenlive:original.meta.attr.0.stream.encoder.markup">Lavc60.3.100 libx264</property>
  <property name="kdenlive:original.meta.attr.major_brand.markup">isom</property>
  <property name="kdenlive:original.meta.attr.minor_version.markup">512</property>
  <property name="kdenlive:original.meta.attr.compatible_brands.markup">isomiso2avc1mp41</property>
  <property name="kdenlive:original.meta.attr.encoder.markup">Lavf60.3.100</property>
  <property name="kdenlive:original.meta.attr.comment.markup">Rendered with Manim Community v0.17.3</property>
  <property name="kdenlive:original.seekable">1</property>
  <property name="kdenlive:original.width">1920</property>
  <property name="kdenlive:original.height">1080</property>
  <property name="kdenlive:original.meta.media.sample_aspect_num">1</property>
  <property name="kdenlive:original.meta.media.sample_aspect_den">1</property>
  <property name="kdenlive:original.format">3</property>
  <property name="kdenlive:original.audio_index">-1</property>
  <property name="kdenlive:original.video_index">0</property>
  <property name="kdenlive:original.meta.media.frame_rate_num">60</property>
  <property name="kdenlive:original.meta.media.frame_rate_den">1</property>
  <property name="kdenlive:original.meta.media.colorspace">709</property>
  <property name="kdenlive:original.meta.media.color_trc">2</property>
  <property name="kdenlive:original.meta.media.has_b_frames">2</property>
  <property name="kdenlive:original.meta.media.width">1920</property>
  <property name="kdenlive:original.meta.media.height">1080</property>
  <property name="kdenlive:original.meta.media.color_range">mpeg</property>
  <property name="kdenlive:original.meta.media.top_field_first">0</property>
  <property name="kdenlive:original.meta.media.progressive">1</property>
  <property name="kdenlive:original.kdenlive:clip_type">2</property>
  <property name="kdenlive:original.kdenlive:folderid">227</property>
  <property name="kdenlive:original.kdenlive:id">236</property>
  <property name="kdenlive:original.mute_on_pause">0</property>
  <property name="kdenlive:original.kdenlive:file_size">32463</property>
  <property name="kdenlive:original.kdenlive:file_hash">580f3d2a7b9091acf20b8ec35c4d3ee5</property>
  <property name="kdenlive:original.backup">1</property>
  <property name="meta.media.top_field_first">0</property>
  <property name="meta.media.progressive">1</property>
 </chain>
 <chain id="chain91" out="00:00:00.983">
  <property name="length">60</property>
  <property name="eof">pause</property>
  <property name="resource">/home/xiaoxiae/.cache/kdenlive/proxy/5183dd013841f056876a2898c950dbd9.mkv</property>
  <property name="mlt_service">avformat-novalidate</property>
  <property name="meta.media.nb_streams">1</property>
  <property name="meta.media.0.stream.type">video</property>
  <property name="meta.media.0.stream.frame_rate">60</property>
  <property name="meta.media.0.stream.sample_aspect_ratio">0</property>
  <property name="meta.media.0.codec.width">640</property>
  <property name="meta.media.0.codec.height">360</property>
  <property name="meta.media.0.codec.rotate">0</property>
  <property name="meta.media.0.codec.pix_fmt">yuvj420p</property>
  <property name="meta.media.0.codec.sample_aspect_ratio">0</property>
  <property name="meta.media.0.codec.colorspace">601</property>
  <property name="meta.media.0.codec.name">mjpeg</property>
  <property name="meta.media.0.codec.long_name">MJPEG (Motion JPEG)</property>
  <property name="meta.media.0.codec.bit_rate">0</property>
  <property name="meta.attr.0.stream.HANDLER_NAME.markup">VideoHandler</property>
  <property name="meta.attr.0.stream.VENDOR_ID.markup">[0][0][0][0]</property>
  <property name="meta.attr.0.stream.ENCODER.markup">Lavc60.3.100 mjpeg</property>
  <property name="meta.attr.0.stream.DURATION.markup">00:00:01.000000000</property>
  <property name="meta.attr.COMMENT.markup">Rendered with Manim Community v0.17.3</property>
  <property name="meta.attr.MAJOR_BRAND.markup">isom</property>
  <property name="meta.attr.MINOR_VERSION.markup">512</property>
  <property name="meta.attr.COMPATIBLE_BRANDS.markup">isomiso2avc1mp41</property>
  <property name="meta.attr.ENCODER.markup">Lavf60.3.100</property>
  <property name="seekable">1</property>
  <property name="meta.media.sample_aspect_num">1</property>
  <property name="meta.media.sample_aspect_den">1</property>
  <property name="format">3</property>
  <property name="audio_index">-1</property>
  <property name="video_index">0</property>
  <property name="meta.media.frame_rate_num">60</property>
  <property name="meta.media.frame_rate_den">1</property>
  <property name="meta.media.colorspace">601</property>
  <property name="meta.media.color_trc">2</property>
  <property name="meta.media.has_b_frames">0</property>
  <property name="meta.media.width">640</property>
  <property name="meta.media.height">360</property>
  <property name="meta.media.color_range">full</property>
  <property name="kdenlive:clipname">7.mp4</property>
  <property name="kdenlive:clip_type">2</property>
  <property name="kdenlive:folderid">227</property>
  <property name="kdenlive:id">237</property>
  <property name="mute_on_pause">0</property>
  <property name="kdenlive:file_size">37990</property>
  <property name="kdenlive:file_hash">5183dd013841f056876a2898c950dbd9</property>
  <property name="kdenlive:proxy">/home/xiaoxiae/.cache/kdenlive/proxy/5183dd013841f056876a2898c950dbd9.mkv</property>
  <property name="kdenlive:originalurl">video/Outro/7.mp4</property>
  <property name="kdenlive:original.mlt_type">chain</property>
  <property name="kdenlive:original.in">0</property>
  <property name="kdenlive:original.out">00:00:00.983</property>
  <property name="kdenlive:original.length">60</property>
  <property name="kdenlive:original.eof">pause</property>
  <property name="kdenlive:original.resource">video/Outro/7.mp4</property>
  <property name="kdenlive:original.mlt_service">avformat-novalidate</property>
  <property name="kdenlive:original.meta.media.nb_streams">1</property>
  <property name="kdenlive:original.meta.media.0.stream.type">video</property>
  <property name="kdenlive:original.meta.media.0.stream.frame_rate">60</property>
  <property name="kdenlive:original.meta.media.0.stream.sample_aspect_ratio">0</property>
  <property name="kdenlive:original.meta.media.0.codec.width">1920</property>
  <property name="kdenlive:original.meta.media.0.codec.height">1080</property>
  <property name="kdenlive:original.meta.media.0.codec.rotate">0</property>
  <property name="kdenlive:original.meta.media.0.codec.pix_fmt">yuv420p</property>
  <property name="kdenlive:original.meta.media.0.codec.sample_aspect_ratio">0</property>
  <property name="kdenlive:original.meta.media.0.codec.colorspace">709</property>
  <property name="kdenlive:original.meta.media.0.codec.name">h264</property>
  <property name="kdenlive:original.meta.media.0.codec.long_name">H.264 / AVC / MPEG-4 AVC / MPEG-4 part 10</property>
  <property name="kdenlive:original.meta.media.0.codec.bit_rate">290864</property>
  <property name="kdenlive:original.meta.attr.0.stream.handler_name.markup">VideoHandler</property>
  <property name="kdenlive:original.meta.attr.0.stream.vendor_id.markup">[0][0][0][0]</property>
  <property name="kdenlive:original.meta.attr.0.stream.encoder.markup">Lavc60.3.100 libx264</property>
  <property name="kdenlive:original.meta.attr.major_brand.markup">isom</property>
  <property name="kdenlive:original.meta.attr.minor_version.markup">512</property>
  <property name="kdenlive:original.meta.attr.compatible_brands.markup">isomiso2avc1mp41</property>
  <property name="kdenlive:original.meta.attr.encoder.markup">Lavf60.3.100</property>
  <property name="kdenlive:original.meta.attr.comment.markup">Rendered with Manim Community v0.17.3</property>
  <property name="kdenlive:original.seekable">1</property>
  <property name="kdenlive:original.width">1920</property>
  <property name="kdenlive:original.height">1080</property>
  <property name="kdenlive:original.meta.media.sample_aspect_num">1</property>
  <property name="kdenlive:original.meta.media.sample_aspect_den">1</property>
  <property name="kdenlive:original.format">3</property>
  <property name="kdenlive:original.audio_index">-1</property>
  <property name="kdenlive:original.video_index">0</property>
  <property name="kdenlive:original.meta.media.frame_rate_num">60</property>
  <property name="kdenlive:original.meta.media.frame_rate_den">1</property>
  <property name="kdenlive:original.meta.media.colorspace">709</property>
  <property name="kdenlive:original.meta.media.color_trc">2</property>
  <property name="kdenlive:original.meta.media.has_b_frames">2</property>
  <property name="kdenlive:original.meta.media.width">1920</property>
  <property name="kdenlive:original.meta.media.height">1080</property>
  <property name="kdenlive:original.meta.media.color_range">mpeg</property>
  <property name="kdenlive:original.meta.media.top_field_first">0</property>
  <property name="kdenlive:original.meta.media.progressive">1</property>
  <property name="kdenlive:original.kdenlive:clip_type">2</property>
  <property name="kdenlive:original.kdenlive:folderid">227</property>
  <property name="kdenlive:original.kdenlive:id">237</property>
  <property name="kdenlive:original.mute_on_pause">0</property>
  <property name="kdenlive:original.kdenlive:file_size">37990</property>
  <property name="kdenlive:original.kdenlive:file_hash">5183dd013841f056876a2898c950dbd9</property>
  <property name="kdenlive:original.backup">1</property>
  <property name="meta.media.top_field_first">0</property>
  <property name="meta.media.progressive">1</property>
 </chain>
 <chain id="chain90" out="00:00:00.983">
  <property name="length">60</property>
  <property name="eof">pause</property>
  <property name="resource">/home/xiaoxiae/.cache/kdenlive/proxy/f073bb73b95a1b719373e55c9bf0e7d2.mkv</property>
  <property name="mlt_service">avformat-novalidate</property>
  <property name="meta.media.nb_streams">1</property>
  <property name="meta.media.0.stream.type">video</property>
  <property name="meta.media.0.stream.frame_rate">60</property>
  <property name="meta.media.0.stream.sample_aspect_ratio">0</property>
  <property name="meta.media.0.codec.width">640</property>
  <property name="meta.media.0.codec.height">360</property>
  <property name="meta.media.0.codec.rotate">0</property>
  <property name="meta.media.0.codec.pix_fmt">yuvj420p</property>
  <property name="meta.media.0.codec.sample_aspect_ratio">0</property>
  <property name="meta.media.0.codec.colorspace">601</property>
  <property name="meta.media.0.codec.name">mjpeg</property>
  <property name="meta.media.0.codec.long_name">MJPEG (Motion JPEG)</property>
  <property name="meta.media.0.codec.bit_rate">0</property>
  <property name="meta.attr.0.stream.HANDLER_NAME.markup">VideoHandler</property>
  <property name="meta.attr.0.stream.VENDOR_ID.markup">[0][0][0][0]</property>
  <property name="meta.attr.0.stream.ENCODER.markup">Lavc60.3.100 mjpeg</property>
  <property name="meta.attr.0.stream.DURATION.markup">00:00:01.000000000</property>
  <property name="meta.attr.COMMENT.markup">Rendered with Manim Community v0.17.3</property>
  <property name="meta.attr.MAJOR_BRAND.markup">isom</property>
  <property name="meta.attr.MINOR_VERSION.markup">512</property>
  <property name="meta.attr.COMPATIBLE_BRANDS.markup">isomiso2avc1mp41</property>
  <property name="meta.attr.ENCODER.markup">Lavf60.3.100</property>
  <property name="seekable">1</property>
  <property name="meta.media.sample_aspect_num">1</property>
  <property name="meta.media.sample_aspect_den">1</property>
  <property name="format">3</property>
  <property name="audio_index">-1</property>
  <property name="video_index">0</property>
  <property name="meta.media.frame_rate_num">60</property>
  <property name="meta.media.frame_rate_den">1</property>
  <property name="meta.media.colorspace">601</property>
  <property name="meta.media.color_trc">2</property>
  <property name="meta.media.has_b_frames">0</property>
  <property name="meta.media.width">640</property>
  <property name="meta.media.height">360</property>
  <property name="meta.media.color_range">full</property>
  <property name="kdenlive:clipname">8.mp4</property>
  <property name="kdenlive:clip_type">2</property>
  <property name="kdenlive:folderid">227</property>
  <property name="kdenlive:id">238</property>
  <property name="mute_on_pause">0</property>
  <property name="kdenlive:file_size">41485</property>
  <property name="kdenlive:file_hash">f073bb73b95a1b719373e55c9bf0e7d2</property>
  <property name="kdenlive:proxy">/home/xiaoxiae/.cache/kdenlive/proxy/f073bb73b95a1b719373e55c9bf0e7d2.mkv</property>
  <property name="kdenlive:originalurl">video/Outro/8.mp4</property>
  <property name="kdenlive:original.mlt_type">chain</property>
  <property name="kdenlive:original.in">0</property>
  <property name="kdenlive:original.out">00:00:00.983</property>
  <property name="kdenlive:original.length">60</property>
  <property name="kdenlive:original.eof">pause</property>
  <property name="kdenlive:original.resource">video/Outro/8.mp4</property>
  <property name="kdenlive:original.mlt_service">avformat-novalidate</property>
  <property name="kdenlive:original.meta.media.nb_streams">1</property>
  <property name="kdenlive:original.meta.media.0.stream.type">video</property>
  <property name="kdenlive:original.meta.media.0.stream.frame_rate">60</property>
  <property name="kdenlive:original.meta.media.0.stream.sample_aspect_ratio">0</property>
  <property name="kdenlive:original.meta.media.0.codec.width">1920</property>
  <property name="kdenlive:original.meta.media.0.codec.height">1080</property>
  <property name="kdenlive:original.meta.media.0.codec.rotate">0</property>
  <property name="kdenlive:original.meta.media.0.codec.pix_fmt">yuv420p</property>
  <property name="kdenlive:original.meta.media.0.codec.sample_aspect_ratio">0</property>
  <property name="kdenlive:original.meta.media.0.codec.colorspace">709</property>
  <property name="kdenlive:original.meta.media.0.codec.name">h264</property>
  <property name="kdenlive:original.meta.media.0.codec.long_name">H.264 / AVC / MPEG-4 AVC / MPEG-4 part 10</property>
  <property name="kdenlive:original.meta.media.0.codec.bit_rate">318824</property>
  <property name="kdenlive:original.meta.attr.0.stream.handler_name.markup">VideoHandler</property>
  <property name="kdenlive:original.meta.attr.0.stream.vendor_id.markup">[0][0][0][0]</property>
  <property name="kdenlive:original.meta.attr.0.stream.encoder.markup">Lavc60.3.100 libx264</property>
  <property name="kdenlive:original.meta.attr.major_brand.markup">isom</property>
  <property name="kdenlive:original.meta.attr.minor_version.markup">512</property>
  <property name="kdenlive:original.meta.attr.compatible_brands.markup">isomiso2avc1mp41</property>
  <property name="kdenlive:original.meta.attr.encoder.markup">Lavf60.3.100</property>
  <property name="kdenlive:original.meta.attr.comment.markup">Rendered with Manim Community v0.17.3</property>
  <property name="kdenlive:original.seekable">1</property>
  <property name="kdenlive:original.width">1920</property>
  <property name="kdenlive:original.height">1080</property>
  <property name="kdenlive:original.meta.media.sample_aspect_num">1</property>
  <property name="kdenlive:original.meta.media.sample_aspect_den">1</property>
  <property name="kdenlive:original.format">3</property>
  <property name="kdenlive:original.audio_index">-1</property>
  <property name="kdenlive:original.video_index">0</property>
  <property name="kdenlive:original.meta.media.frame_rate_num">60</property>
  <property name="kdenlive:original.meta.media.frame_rate_den">1</property>
  <property name="kdenlive:original.meta.media.colorspace">709</property>
  <property name="kdenlive:original.meta.media.color_trc">2</property>
  <property name="kdenlive:original.meta.media.has_b_frames">2</property>
  <property name="kdenlive:original.meta.media.width">1920</property>
  <property name="kdenlive:original.meta.media.height">1080</property>
  <property name="kdenlive:original.meta.media.color_range">mpeg</property>
  <property name="kdenlive:original.meta.media.top_field_first">0</property>
  <property name="kdenlive:original.meta.media.progressive">1</property>
  <property name="kdenlive:original.kdenlive:clip_type">2</property>
  <property name="kdenlive:original.kdenlive:folderid">227</property>
  <property name="kdenlive:original.kdenlive:id">238</property>
  <property name="kdenlive:original.mute_on_pause">0</property>
  <property name="kdenlive:original.kdenlive:file_size">41485</property>
  <property name="kdenlive:original.kdenlive:file_hash">f073bb73b95a1b719373e55c9bf0e7d2</property>
  <property name="kdenlive:original.backup">1</property>
  <property name="meta.media.top_field_first">0</property>
  <property name="meta.media.progressive">1</property>
 </chain>
 <chain id="chain89" out="00:00:00.983">
  <property name="length">60</property>
  <property name="eof">pause</property>
  <property name="resource">/home/xiaoxiae/.cache/kdenlive/proxy/1777801173f67777bf00d564e3bcb3c6.mkv</property>
  <property name="mlt_service">avformat-novalidate</property>
  <property name="meta.media.nb_streams">1</property>
  <property name="meta.media.0.stream.type">video</property>
  <property name="meta.media.0.stream.frame_rate">60</property>
  <property name="meta.media.0.stream.sample_aspect_ratio">0</property>
  <property name="meta.media.0.codec.width">640</property>
  <property name="meta.media.0.codec.height">360</property>
  <property name="meta.media.0.codec.rotate">0</property>
  <property name="meta.media.0.codec.pix_fmt">yuvj420p</property>
  <property name="meta.media.0.codec.sample_aspect_ratio">0</property>
  <property name="meta.media.0.codec.colorspace">601</property>
  <property name="meta.media.0.codec.name">mjpeg</property>
  <property name="meta.media.0.codec.long_name">MJPEG (Motion JPEG)</property>
  <property name="meta.media.0.codec.bit_rate">0</property>
  <property name="meta.attr.0.stream.HANDLER_NAME.markup">VideoHandler</property>
  <property name="meta.attr.0.stream.VENDOR_ID.markup">[0][0][0][0]</property>
  <property name="meta.attr.0.stream.ENCODER.markup">Lavc60.3.100 mjpeg</property>
  <property name="meta.attr.0.stream.DURATION.markup">00:00:01.000000000</property>
  <property name="meta.attr.COMMENT.markup">Rendered with Manim Community v0.17.3</property>
  <property name="meta.attr.MAJOR_BRAND.markup">isom</property>
  <property name="meta.attr.MINOR_VERSION.markup">512</property>
  <property name="meta.attr.COMPATIBLE_BRANDS.markup">isomiso2avc1mp41</property>
  <property name="meta.attr.ENCODER.markup">Lavf60.3.100</property>
  <property name="seekable">1</property>
  <property name="meta.media.sample_aspect_num">1</property>
  <property name="meta.media.sample_aspect_den">1</property>
  <property name="format">3</property>
  <property name="audio_index">-1</property>
  <property name="video_index">0</property>
  <property name="meta.media.frame_rate_num">60</property>
  <property name="meta.media.frame_rate_den">1</property>
  <property name="meta.media.colorspace">601</property>
  <property name="meta.media.color_trc">2</property>
  <property name="meta.media.has_b_frames">0</property>
  <property name="meta.media.width">640</property>
  <property name="meta.media.height">360</property>
  <property name="meta.media.color_range">full</property>
  <property name="kdenlive:clipname">9.mp4</property>
  <property name="kdenlive:clip_type">2</property>
  <property name="kdenlive:folderid">227</property>
  <property name="kdenlive:id">239</property>
  <property name="mute_on_pause">0</property>
  <property name="kdenlive:file_size">45674</property>
  <property name="kdenlive:file_hash">1777801173f67777bf00d564e3bcb3c6</property>
  <property name="kdenlive:proxy">/home/xiaoxiae/.cache/kdenlive/proxy/1777801173f67777bf00d564e3bcb3c6.mkv</property>
  <property name="kdenlive:originalurl">video/Outro/9.mp4</property>
  <property name="kdenlive:original.mlt_type">chain</property>
  <property name="kdenlive:original.in">0</property>
  <property name="kdenlive:original.out">00:00:00.983</property>
  <property name="kdenlive:original.length">60</property>
  <property name="kdenlive:original.eof">pause</property>
  <property name="kdenlive:original.resource">video/Outro/9.mp4</property>
  <property name="kdenlive:original.mlt_service">avformat-novalidate</property>
  <property name="kdenlive:original.meta.media.nb_streams">1</property>
  <property name="kdenlive:original.meta.media.0.stream.type">video</property>
  <property name="kdenlive:original.meta.media.0.stream.frame_rate">60</property>
  <property name="kdenlive:original.meta.media.0.stream.sample_aspect_ratio">0</property>
  <property name="kdenlive:original.meta.media.0.codec.width">1920</property>
  <property name="kdenlive:original.meta.media.0.codec.height">1080</property>
  <property name="kdenlive:original.meta.media.0.codec.rotate">0</property>
  <property name="kdenlive:original.meta.media.0.codec.pix_fmt">yuv420p</property>
  <property name="kdenlive:original.meta.media.0.codec.sample_aspect_ratio">0</property>
  <property name="kdenlive:original.meta.media.0.codec.colorspace">709</property>
  <property name="kdenlive:original.meta.media.0.codec.name">h264</property>
  <property name="kdenlive:original.meta.media.0.codec.long_name">H.264 / AVC / MPEG-4 AVC / MPEG-4 part 10</property>
  <property name="kdenlive:original.meta.media.0.codec.bit_rate">352336</property>
  <property name="kdenlive:original.meta.attr.0.stream.handler_name.markup">VideoHandler</property>
  <property name="kdenlive:original.meta.attr.0.stream.vendor_id.markup">[0][0][0][0]</property>
  <property name="kdenlive:original.meta.attr.0.stream.encoder.markup">Lavc60.3.100 libx264</property>
  <property name="kdenlive:original.meta.attr.major_brand.markup">isom</property>
  <property name="kdenlive:original.meta.attr.minor_version.markup">512</property>
  <property name="kdenlive:original.meta.attr.compatible_brands.markup">isomiso2avc1mp41</property>
  <property name="kdenlive:original.meta.attr.encoder.markup">Lavf60.3.100</property>
  <property name="kdenlive:original.meta.attr.comment.markup">Rendered with Manim Community v0.17.3</property>
  <property name="kdenlive:original.seekable">1</property>
  <property name="kdenlive:original.width">1920</property>
  <property name="kdenlive:original.height">1080</property>
  <property name="kdenlive:original.meta.media.sample_aspect_num">1</property>
  <property name="kdenlive:original.meta.media.sample_aspect_den">1</property>
  <property name="kdenlive:original.format">3</property>
  <property name="kdenlive:original.audio_index">-1</property>
  <property name="kdenlive:original.video_index">0</property>
  <property name="kdenlive:original.meta.media.frame_rate_num">60</property>
  <property name="kdenlive:original.meta.media.frame_rate_den">1</property>
  <property name="kdenlive:original.meta.media.colorspace">709</property>
  <property name="kdenlive:original.meta.media.color_trc">2</property>
  <property name="kdenlive:original.meta.media.has_b_frames">2</property>
  <property name="kdenlive:original.meta.media.width">1920</property>
  <property name="kdenlive:original.meta.media.height">1080</property>
  <property name="kdenlive:original.meta.media.color_range">mpeg</property>
  <property name="kdenlive:original.meta.media.top_field_first">0</property>
  <property name="kdenlive:original.meta.media.progressive">1</property>
  <property name="kdenlive:original.kdenlive:clip_type">2</property>
  <property name="kdenlive:original.kdenlive:folderid">227</property>
  <property name="kdenlive:original.kdenlive:id">239</property>
  <property name="kdenlive:original.mute_on_pause">0</property>
  <property name="kdenlive:original.kdenlive:file_size">45674</property>
  <property name="kdenlive:original.kdenlive:file_hash">1777801173f67777bf00d564e3bcb3c6</property>
  <property name="kdenlive:original.backup">1</property>
  <property name="meta.media.top_field_first">0</property>
  <property name="meta.media.progressive">1</property>
 </chain>
 <chain id="chain85" out="00:00:00.983">
  <property name="length">60</property>
  <property name="eof">pause</property>
  <property name="resource">/home/xiaoxiae/.cache/kdenlive/proxy/3deb421876c71462d364f2c5e717dce4.mkv</property>
  <property name="mlt_service">avformat-novalidate</property>
  <property name="meta.media.nb_streams">1</property>
  <property name="meta.media.0.stream.type">video</property>
  <property name="meta.media.0.stream.frame_rate">60</property>
  <property name="meta.media.0.stream.sample_aspect_ratio">0</property>
  <property name="meta.media.0.codec.width">640</property>
  <property name="meta.media.0.codec.height">360</property>
  <property name="meta.media.0.codec.rotate">0</property>
  <property name="meta.media.0.codec.pix_fmt">yuvj444p</property>
  <property name="meta.media.0.codec.sample_aspect_ratio">0</property>
  <property name="meta.media.0.codec.colorspace">601</property>
  <property name="meta.media.0.codec.name">mjpeg</property>
  <property name="meta.media.0.codec.long_name">MJPEG (Motion JPEG)</property>
  <property name="meta.media.0.codec.bit_rate">0</property>
  <property name="meta.attr.0.stream.HANDLER_NAME.markup">VideoHandler</property>
  <property name="meta.attr.0.stream.VENDOR_ID.markup">FFMP</property>
  <property name="meta.attr.0.stream.ENCODER.markup">Lavc60.3.100 mjpeg</property>
  <property name="meta.attr.0.stream.DURATION.markup">00:00:01.000000000</property>
  <property name="meta.attr.COMMENT.markup">Rendered with Manim Community v0.17.3</property>
  <property name="meta.attr.MAJOR_BRAND.markup">qt  </property>
  <property name="meta.attr.MINOR_VERSION.markup">512</property>
  <property name="meta.attr.COMPATIBLE_BRANDS.markup">qt  </property>
  <property name="meta.attr.ENCODER.markup">Lavf60.3.100</property>
  <property name="seekable">1</property>
  <property name="meta.media.sample_aspect_num">1</property>
  <property name="meta.media.sample_aspect_den">1</property>
  <property name="format">3</property>
  <property name="audio_index">-1</property>
  <property name="video_index">0</property>
  <property name="meta.media.frame_rate_num">60</property>
  <property name="meta.media.frame_rate_den">1</property>
  <property name="meta.media.colorspace">601</property>
  <property name="meta.media.color_trc">2</property>
  <property name="meta.media.has_b_frames">0</property>
  <property name="meta.media.width">640</property>
  <property name="meta.media.height">360</property>
  <property name="meta.media.color_range">full</property>
  <property name="kdenlive:clipname">1.mov</property>
  <property name="kdenlive:clip_type">2</property>
  <property name="kdenlive:folderid">240</property>
  <property name="kdenlive:id">241</property>
  <property name="mute_on_pause">0</property>
  <property name="kdenlive:file_size">4881598</property>
  <property name="kdenlive:file_hash">3deb421876c71462d364f2c5e717dce4</property>
  <property name="kdenlive:proxy">/home/xiaoxiae/.cache/kdenlive/proxy/3deb421876c71462d364f2c5e717dce4.mkv</property>
  <property name="kdenlive:originalurl">video/TransparentBinaryHint/1.mov</property>
  <property name="kdenlive:original.mlt_type">chain</property>
  <property name="kdenlive:original.in">0</property>
  <property name="kdenlive:original.out">00:00:00.983</property>
  <property name="kdenlive:original.length">60</property>
  <property name="kdenlive:original.eof">pause</property>
  <property name="kdenlive:original.resource">video/TransparentBinaryHint/1.mov</property>
  <property name="kdenlive:original.mlt_service">avformat-novalidate</property>
  <property name="kdenlive:original.meta.media.nb_streams">1</property>
  <property name="kdenlive:original.meta.media.0.stream.type">video</property>
  <property name="kdenlive:original.meta.media.0.stream.frame_rate">60</property>
  <property name="kdenlive:original.meta.media.0.stream.sample_aspect_ratio">0</property>
  <property name="kdenlive:original.meta.media.0.codec.width">1920</property>
  <property name="kdenlive:original.meta.media.0.codec.height">1080</property>
  <property name="kdenlive:original.meta.media.0.codec.rotate">0</property>
  <property name="kdenlive:original.meta.media.0.codec.pix_fmt">argb</property>
  <property name="kdenlive:original.meta.media.0.codec.sample_aspect_ratio">0</property>
  <property name="kdenlive:original.meta.media.0.codec.colorspace">709</property>
  <property name="kdenlive:original.meta.media.0.codec.name">qtrle</property>
  <property name="kdenlive:original.meta.media.0.codec.long_name">QuickTime Animation (RLE) video</property>
  <property name="kdenlive:original.meta.media.0.codec.bit_rate">39043672</property>
  <property name="kdenlive:original.meta.attr.0.stream.handler_name.markup">VideoHandler</property>
  <property name="kdenlive:original.meta.attr.0.stream.vendor_id.markup">FFMP</property>
  <property name="kdenlive:original.meta.attr.0.stream.encoder.markup">Lavc60.3.100 qtrle</property>
  <property name="kdenlive:original.meta.attr.major_brand.markup">qt  </property>
  <property name="kdenlive:original.meta.attr.minor_version.markup">512</property>
  <property name="kdenlive:original.meta.attr.compatible_brands.markup">qt  </property>
  <property name="kdenlive:original.meta.attr.encoder.markup">Lavf60.3.100</property>
  <property name="kdenlive:original.meta.attr.comment.markup">Rendered with Manim Community v0.17.3</property>
  <property name="kdenlive:original.seekable">1</property>
  <property name="kdenlive:original.width">1920</property>
  <property name="kdenlive:original.height">1080</property>
  <property name="kdenlive:original.meta.media.sample_aspect_num">1</property>
  <property name="kdenlive:original.meta.media.sample_aspect_den">1</property>
  <property name="kdenlive:original.format">2</property>
  <property name="kdenlive:original.audio_index">-1</property>
  <property name="kdenlive:original.video_index">0</property>
  <property name="kdenlive:original.meta.media.frame_rate_num">60</property>
  <property name="kdenlive:original.meta.media.frame_rate_den">1</property>
  <property name="kdenlive:original.meta.media.colorspace">709</property>
  <property name="kdenlive:original.meta.media.color_trc">2</property>
  <property name="kdenlive:original.meta.media.has_b_frames">0</property>
  <property name="kdenlive:original.meta.media.width">1920</property>
  <property name="kdenlive:original.meta.media.height">1080</property>
  <property name="kdenlive:original.meta.media.color_range">mpeg</property>
  <property name="kdenlive:original.meta.media.top_field_first">0</property>
  <property name="kdenlive:original.meta.media.progressive">1</property>
  <property name="kdenlive:original.kdenlive:clip_type">2</property>
  <property name="kdenlive:original.kdenlive:folderid">240</property>
  <property name="kdenlive:original.kdenlive:id">241</property>
  <property name="kdenlive:original.mute_on_pause">0</property>
  <property name="kdenlive:original.kdenlive:file_size">4881598</property>
  <property name="kdenlive:original.kdenlive:file_hash">3deb421876c71462d364f2c5e717dce4</property>
  <property name="kdenlive:original.backup">1</property>
  <property name="meta.media.top_field_first">0</property>
  <property name="meta.media.progressive">1</property>
 </chain>
 <chain id="chain84" out="00:00:00.983">
  <property name="length">60</property>
  <property name="eof">pause</property>
  <property name="resource">/home/xiaoxiae/.cache/kdenlive/proxy/7dc2d8ac9b5dcf4bf2c17bcefe83e02a.mkv</property>
  <property name="mlt_service">avformat-novalidate</property>
  <property name="meta.media.nb_streams">1</property>
  <property name="meta.media.0.stream.type">video</property>
  <property name="meta.media.0.stream.frame_rate">60</property>
  <property name="meta.media.0.stream.sample_aspect_ratio">0</property>
  <property name="meta.media.0.codec.width">640</property>
  <property name="meta.media.0.codec.height">360</property>
  <property name="meta.media.0.codec.rotate">0</property>
  <property name="meta.media.0.codec.pix_fmt">yuvj444p</property>
  <property name="meta.media.0.codec.sample_aspect_ratio">0</property>
  <property name="meta.media.0.codec.colorspace">601</property>
  <property name="meta.media.0.codec.name">mjpeg</property>
  <property name="meta.media.0.codec.long_name">MJPEG (Motion JPEG)</property>
  <property name="meta.media.0.codec.bit_rate">0</property>
  <property name="meta.attr.0.stream.HANDLER_NAME.markup">VideoHandler</property>
  <property name="meta.attr.0.stream.VENDOR_ID.markup">FFMP</property>
  <property name="meta.attr.0.stream.ENCODER.markup">Lavc60.3.100 mjpeg</property>
  <property name="meta.attr.0.stream.DURATION.markup">00:00:01.000000000</property>
  <property name="meta.attr.COMMENT.markup">Rendered with Manim Community v0.17.3</property>
  <property name="meta.attr.MAJOR_BRAND.markup">qt  </property>
  <property name="meta.attr.MINOR_VERSION.markup">512</property>
  <property name="meta.attr.COMPATIBLE_BRANDS.markup">qt  </property>
  <property name="meta.attr.ENCODER.markup">Lavf60.3.100</property>
  <property name="seekable">1</property>
  <property name="meta.media.sample_aspect_num">1</property>
  <property name="meta.media.sample_aspect_den">1</property>
  <property name="format">3</property>
  <property name="audio_index">-1</property>
  <property name="video_index">0</property>
  <property name="meta.media.frame_rate_num">60</property>
  <property name="meta.media.frame_rate_den">1</property>
  <property name="meta.media.colorspace">601</property>
  <property name="meta.media.color_trc">2</property>
  <property name="meta.media.has_b_frames">0</property>
  <property name="meta.media.width">640</property>
  <property name="meta.media.height">360</property>
  <property name="meta.media.color_range">full</property>
  <property name="kdenlive:clipname">2.mov</property>
  <property name="kdenlive:clip_type">2</property>
  <property name="kdenlive:folderid">240</property>
  <property name="kdenlive:id">242</property>
  <property name="mute_on_pause">0</property>
  <property name="kdenlive:file_size">1853525</property>
  <property name="kdenlive:file_hash">7dc2d8ac9b5dcf4bf2c17bcefe83e02a</property>
  <property name="kdenlive:proxy">/home/xiaoxiae/.cache/kdenlive/proxy/7dc2d8ac9b5dcf4bf2c17bcefe83e02a.mkv</property>
  <property name="kdenlive:originalurl">video/TransparentBinaryHint/2.mov</property>
  <property name="kdenlive:original.mlt_type">chain</property>
  <property name="kdenlive:original.in">0</property>
  <property name="kdenlive:original.out">00:00:00.983</property>
  <property name="kdenlive:original.length">60</property>
  <property name="kdenlive:original.eof">pause</property>
  <property name="kdenlive:original.resource">video/TransparentBinaryHint/2.mov</property>
  <property name="kdenlive:original.mlt_service">avformat-novalidate</property>
  <property name="kdenlive:original.meta.media.nb_streams">1</property>
  <property name="kdenlive:original.meta.media.0.stream.type">video</property>
  <property name="kdenlive:original.meta.media.0.stream.frame_rate">60</property>
  <property name="kdenlive:original.meta.media.0.stream.sample_aspect_ratio">0</property>
  <property name="kdenlive:original.meta.media.0.codec.width">1920</property>
  <property name="kdenlive:original.meta.media.0.codec.height">1080</property>
  <property name="kdenlive:original.meta.media.0.codec.rotate">0</property>
  <property name="kdenlive:original.meta.media.0.codec.pix_fmt">argb</property>
  <property name="kdenlive:original.meta.media.0.codec.sample_aspect_ratio">0</property>
  <property name="kdenlive:original.meta.media.0.codec.colorspace">709</property>
  <property name="kdenlive:original.meta.media.0.codec.name">qtrle</property>
  <property name="kdenlive:original.meta.media.0.codec.long_name">QuickTime Animation (RLE) video</property>
  <property name="kdenlive:original.meta.media.0.codec.bit_rate">14819280</property>
  <property name="kdenlive:original.meta.attr.0.stream.handler_name.markup">VideoHandler</property>
  <property name="kdenlive:original.meta.attr.0.stream.vendor_id.markup">FFMP</property>
  <property name="kdenlive:original.meta.attr.0.stream.encoder.markup">Lavc60.3.100 qtrle</property>
  <property name="kdenlive:original.meta.attr.major_brand.markup">qt  </property>
  <property name="kdenlive:original.meta.attr.minor_version.markup">512</property>
  <property name="kdenlive:original.meta.attr.compatible_brands.markup">qt  </property>
  <property name="kdenlive:original.meta.attr.encoder.markup">Lavf60.3.100</property>
  <property name="kdenlive:original.meta.attr.comment.markup">Rendered with Manim Community v0.17.3</property>
  <property name="kdenlive:original.seekable">1</property>
  <property name="kdenlive:original.width">1920</property>
  <property name="kdenlive:original.height">1080</property>
  <property name="kdenlive:original.meta.media.sample_aspect_num">1</property>
  <property name="kdenlive:original.meta.media.sample_aspect_den">1</property>
  <property name="kdenlive:original.format">2</property>
  <property name="kdenlive:original.audio_index">-1</property>
  <property name="kdenlive:original.video_index">0</property>
  <property name="kdenlive:original.meta.media.frame_rate_num">60</property>
  <property name="kdenlive:original.meta.media.frame_rate_den">1</property>
  <property name="kdenlive:original.meta.media.colorspace">709</property>
  <property name="kdenlive:original.meta.media.color_trc">2</property>
  <property name="kdenlive:original.meta.media.has_b_frames">0</property>
  <property name="kdenlive:original.meta.media.width">1920</property>
  <property name="kdenlive:original.meta.media.height">1080</property>
  <property name="kdenlive:original.meta.media.color_range">mpeg</property>
  <property name="kdenlive:original.meta.media.top_field_first">0</property>
  <property name="kdenlive:original.meta.media.progressive">1</property>
  <property name="kdenlive:original.kdenlive:clip_type">2</property>
  <property name="kdenlive:original.kdenlive:folderid">240</property>
  <property name="kdenlive:original.kdenlive:id">242</property>
  <property name="kdenlive:original.mute_on_pause">0</property>
  <property name="kdenlive:original.kdenlive:file_size">1853525</property>
  <property name="kdenlive:original.kdenlive:file_hash">7dc2d8ac9b5dcf4bf2c17bcefe83e02a</property>
  <property name="kdenlive:original.backup">1</property>
  <property name="meta.media.top_field_first">0</property>
  <property name="meta.media.progressive">1</property>
 </chain>
 <chain id="chain83" out="00:00:00.983">
  <property name="length">60</property>
  <property name="eof">pause</property>
  <property name="resource">/home/xiaoxiae/.cache/kdenlive/proxy/2b0a9ed74c4470ded0af191bb8d5ef40.mkv</property>
  <property name="mlt_service">avformat-novalidate</property>
  <property name="meta.media.nb_streams">1</property>
  <property name="meta.media.0.stream.type">video</property>
  <property name="meta.media.0.stream.frame_rate">60</property>
  <property name="meta.media.0.stream.sample_aspect_ratio">0</property>
  <property name="meta.media.0.codec.width">640</property>
  <property name="meta.media.0.codec.height">360</property>
  <property name="meta.media.0.codec.rotate">0</property>
  <property name="meta.media.0.codec.pix_fmt">yuvj444p</property>
  <property name="meta.media.0.codec.sample_aspect_ratio">0</property>
  <property name="meta.media.0.codec.colorspace">601</property>
  <property name="meta.media.0.codec.name">mjpeg</property>
  <property name="meta.media.0.codec.long_name">MJPEG (Motion JPEG)</property>
  <property name="meta.media.0.codec.bit_rate">0</property>
  <property name="meta.attr.0.stream.HANDLER_NAME.markup">VideoHandler</property>
  <property name="meta.attr.0.stream.VENDOR_ID.markup">FFMP</property>
  <property name="meta.attr.0.stream.ENCODER.markup">Lavc60.3.100 mjpeg</property>
  <property name="meta.attr.0.stream.DURATION.markup">00:00:01.000000000</property>
  <property name="meta.attr.COMMENT.markup">Rendered with Manim Community v0.17.3</property>
  <property name="meta.attr.MAJOR_BRAND.markup">qt  </property>
  <property name="meta.attr.MINOR_VERSION.markup">512</property>
  <property name="meta.attr.COMPATIBLE_BRANDS.markup">qt  </property>
  <property name="meta.attr.ENCODER.markup">Lavf60.3.100</property>
  <property name="seekable">1</property>
  <property name="meta.media.sample_aspect_num">1</property>
  <property name="meta.media.sample_aspect_den">1</property>
  <property name="format">3</property>
  <property name="audio_index">-1</property>
  <property name="video_index">0</property>
  <property name="meta.media.frame_rate_num">60</property>
  <property name="meta.media.frame_rate_den">1</property>
  <property name="meta.media.colorspace">601</property>
  <property name="meta.media.color_trc">2</property>
  <property name="meta.media.has_b_frames">0</property>
  <property name="meta.media.width">640</property>
  <property name="meta.media.height">360</property>
  <property name="meta.media.color_range">full</property>
  <property name="kdenlive:clipname">3.mov</property>
  <property name="kdenlive:clip_type">2</property>
  <property name="kdenlive:folderid">240</property>
  <property name="kdenlive:id">243</property>
  <property name="mute_on_pause">0</property>
  <property name="kdenlive:file_size">2531597</property>
  <property name="kdenlive:file_hash">2b0a9ed74c4470ded0af191bb8d5ef40</property>
  <property name="kdenlive:proxy">/home/xiaoxiae/.cache/kdenlive/proxy/2b0a9ed74c4470ded0af191bb8d5ef40.mkv</property>
  <property name="kdenlive:originalurl">video/TransparentBinaryHint/3.mov</property>
  <property name="kdenlive:original.mlt_type">chain</property>
  <property name="kdenlive:original.in">0</property>
  <property name="kdenlive:original.out">00:00:00.983</property>
  <property name="kdenlive:original.length">60</property>
  <property name="kdenlive:original.eof">pause</property>
  <property name="kdenlive:original.resource">video/TransparentBinaryHint/3.mov</property>
  <property name="kdenlive:original.mlt_service">avformat-novalidate</property>
  <property name="kdenlive:original.meta.media.nb_streams">1</property>
  <property name="kdenlive:original.meta.media.0.stream.type">video</property>
  <property name="kdenlive:original.meta.media.0.stream.frame_rate">60</property>
  <property name="kdenlive:original.meta.media.0.stream.sample_aspect_ratio">0</property>
  <property name="kdenlive:original.meta.media.0.codec.width">1920</property>
  <property name="kdenlive:original.meta.media.0.codec.height">1080</property>
  <property name="kdenlive:original.meta.media.0.codec.rotate">0</property>
  <property name="kdenlive:original.meta.media.0.codec.pix_fmt">argb</property>
  <property name="kdenlive:original.meta.media.0.codec.sample_aspect_ratio">0</property>
  <property name="kdenlive:original.meta.media.0.codec.colorspace">709</property>
  <property name="kdenlive:original.meta.media.0.codec.name">qtrle</property>
  <property name="kdenlive:original.meta.media.0.codec.long_name">QuickTime Animation (RLE) video</property>
  <property name="kdenlive:original.meta.media.0.codec.bit_rate">20243728</property>
  <property name="kdenlive:original.meta.attr.0.stream.handler_name.markup">VideoHandler</property>
  <property name="kdenlive:original.meta.attr.0.stream.vendor_id.markup">FFMP</property>
  <property name="kdenlive:original.meta.attr.0.stream.encoder.markup">Lavc60.3.100 qtrle</property>
  <property name="kdenlive:original.meta.attr.major_brand.markup">qt  </property>
  <property name="kdenlive:original.meta.attr.minor_version.markup">512</property>
  <property name="kdenlive:original.meta.attr.compatible_brands.markup">qt  </property>
  <property name="kdenlive:original.meta.attr.encoder.markup">Lavf60.3.100</property>
  <property name="kdenlive:original.meta.attr.comment.markup">Rendered with Manim Community v0.17.3</property>
  <property name="kdenlive:original.seekable">1</property>
  <property name="kdenlive:original.width">1920</property>
  <property name="kdenlive:original.height">1080</property>
  <property name="kdenlive:original.meta.media.sample_aspect_num">1</property>
  <property name="kdenlive:original.meta.media.sample_aspect_den">1</property>
  <property name="kdenlive:original.format">2</property>
  <property name="kdenlive:original.audio_index">-1</property>
  <property name="kdenlive:original.video_index">0</property>
  <property name="kdenlive:original.meta.media.frame_rate_num">60</property>
  <property name="kdenlive:original.meta.media.frame_rate_den">1</property>
  <property name="kdenlive:original.meta.media.colorspace">709</property>
  <property name="kdenlive:original.meta.media.color_trc">2</property>
  <property name="kdenlive:original.meta.media.has_b_frames">0</property>
  <property name="kdenlive:original.meta.media.width">1920</property>
  <property name="kdenlive:original.meta.media.height">1080</property>
  <property name="kdenlive:original.meta.media.color_range">mpeg</property>
  <property name="kdenlive:original.meta.media.top_field_first">0</property>
  <property name="kdenlive:original.meta.media.progressive">1</property>
  <property name="kdenlive:original.kdenlive:clip_type">2</property>
  <property name="kdenlive:original.kdenlive:folderid">240</property>
  <property name="kdenlive:original.kdenlive:id">243</property>
  <property name="kdenlive:original.mute_on_pause">0</property>
  <property name="kdenlive:original.kdenlive:file_size">2531597</property>
  <property name="kdenlive:original.kdenlive:file_hash">2b0a9ed74c4470ded0af191bb8d5ef40</property>
  <property name="kdenlive:original.backup">1</property>
  <property name="meta.media.top_field_first">0</property>
  <property name="meta.media.progressive">1</property>
 </chain>
 <chain id="chain557" out="00:00:04.983">
  <property name="length">300</property>
  <property name="eof">pause</property>
  <property name="resource">video/TransparentPause/1.mov</property>
  <property name="mlt_service">avformat-novalidate</property>
  <property name="meta.media.nb_streams">1</property>
  <property name="meta.media.0.stream.type">video</property>
  <property name="meta.media.0.stream.frame_rate">60</property>
  <property name="meta.media.0.stream.sample_aspect_ratio">0</property>
  <property name="meta.media.0.codec.width">1920</property>
  <property name="meta.media.0.codec.height">1080</property>
  <property name="meta.media.0.codec.rotate">0</property>
  <property name="meta.media.0.codec.pix_fmt">argb</property>
  <property name="meta.media.0.codec.sample_aspect_ratio">0</property>
  <property name="meta.media.0.codec.colorspace">709</property>
  <property name="meta.media.0.codec.name">qtrle</property>
  <property name="meta.media.0.codec.long_name">QuickTime Animation (RLE) video</property>
  <property name="meta.media.0.codec.bit_rate">6872609</property>
  <property name="meta.attr.0.stream.handler_name.markup">VideoHandler</property>
  <property name="meta.attr.0.stream.vendor_id.markup">FFMP</property>
  <property name="meta.attr.0.stream.encoder.markup">Lavc60.3.100 qtrle</property>
  <property name="meta.attr.major_brand.markup">qt  </property>
  <property name="meta.attr.minor_version.markup">512</property>
  <property name="meta.attr.compatible_brands.markup">qt  </property>
  <property name="meta.attr.encoder.markup">Lavf60.3.100</property>
  <property name="meta.attr.comment.markup">Rendered with Manim Community v0.17.3</property>
  <property name="seekable">1</property>
  <property name="meta.media.sample_aspect_num">1</property>
  <property name="meta.media.sample_aspect_den">1</property>
  <property name="format">2</property>
  <property name="audio_index">-1</property>
  <property name="video_index">0</property>
  <property name="meta.media.frame_rate_num">60</property>
  <property name="meta.media.frame_rate_den">1</property>
  <property name="meta.media.colorspace">709</property>
  <property name="meta.media.color_trc">2</property>
  <property name="meta.media.has_b_frames">0</property>
  <property name="meta.media.width">1920</property>
  <property name="meta.media.height">1080</property>
  <property name="meta.media.color_range">mpeg</property>
  <property name="kdenlive:clipname">1.mov</property>
  <property name="kdenlive:clip_type">2</property>
  <property name="kdenlive:folderid">250</property>
  <property name="kdenlive:id">251</property>
  <property name="mute_on_pause">0</property>
  <property name="kdenlive:file_size">4297548</property>
  <property name="kdenlive:proxy">-</property>
  <property name="kdenlive:originalurl">video/TransparentPause/1.mov</property>
  <property name="kdenlive:original.mlt_type">chain</property>
  <property name="kdenlive:original.in">0</property>
  <property name="kdenlive:original.out">00:00:04.983</property>
  <property name="kdenlive:original.length">300</property>
  <property name="kdenlive:original.eof">pause</property>
  <property name="kdenlive:original.resource">video/TransparentPause/1.mov</property>
  <property name="kdenlive:original.mlt_service">avformat-novalidate</property>
  <property name="kdenlive:original.meta.media.nb_streams">1</property>
  <property name="kdenlive:original.meta.media.0.stream.type">video</property>
  <property name="kdenlive:original.meta.media.0.stream.frame_rate">60</property>
  <property name="kdenlive:original.meta.media.0.stream.sample_aspect_ratio">0</property>
  <property name="kdenlive:original.meta.media.0.codec.width">1920</property>
  <property name="kdenlive:original.meta.media.0.codec.height">1080</property>
  <property name="kdenlive:original.meta.media.0.codec.rotate">0</property>
  <property name="kdenlive:original.meta.media.0.codec.pix_fmt">argb</property>
  <property name="kdenlive:original.meta.media.0.codec.sample_aspect_ratio">0</property>
  <property name="kdenlive:original.meta.media.0.codec.colorspace">709</property>
  <property name="kdenlive:original.meta.media.0.codec.name">qtrle</property>
  <property name="kdenlive:original.meta.media.0.codec.long_name">QuickTime Animation (RLE) video</property>
  <property name="kdenlive:original.meta.media.0.codec.bit_rate">6872609</property>
  <property name="kdenlive:original.meta.attr.0.stream.handler_name.markup">VideoHandler</property>
  <property name="kdenlive:original.meta.attr.0.stream.vendor_id.markup">FFMP</property>
  <property name="kdenlive:original.meta.attr.0.stream.encoder.markup">Lavc60.3.100 qtrle</property>
  <property name="kdenlive:original.meta.attr.major_brand.markup">qt  </property>
  <property name="kdenlive:original.meta.attr.minor_version.markup">512</property>
  <property name="kdenlive:original.meta.attr.compatible_brands.markup">qt  </property>
  <property name="kdenlive:original.meta.attr.encoder.markup">Lavf60.3.100</property>
  <property name="kdenlive:original.meta.attr.comment.markup">Rendered with Manim Community v0.17.3</property>
  <property name="kdenlive:original.seekable">1</property>
  <property name="kdenlive:original.width">1920</property>
  <property name="kdenlive:original.height">1080</property>
  <property name="kdenlive:original.meta.media.sample_aspect_num">1</property>
  <property name="kdenlive:original.meta.media.sample_aspect_den">1</property>
  <property name="kdenlive:original.format">2</property>
  <property name="kdenlive:original.audio_index">-1</property>
  <property name="kdenlive:original.video_index">0</property>
  <property name="kdenlive:original.meta.media.frame_rate_num">60</property>
  <property name="kdenlive:original.meta.media.frame_rate_den">1</property>
  <property name="kdenlive:original.meta.media.colorspace">709</property>
  <property name="kdenlive:original.meta.media.color_trc">2</property>
  <property name="kdenlive:original.meta.media.has_b_frames">0</property>
  <property name="kdenlive:original.meta.media.width">1920</property>
  <property name="kdenlive:original.meta.media.height">1080</property>
  <property name="kdenlive:original.meta.media.color_range">mpeg</property>
  <property name="kdenlive:original.meta.media.top_field_first">0</property>
  <property name="kdenlive:original.meta.media.progressive">1</property>
  <property name="kdenlive:original.kdenlive:clip_type">2</property>
  <property name="kdenlive:original.kdenlive:folderid">250</property>
  <property name="kdenlive:original.kdenlive:id">251</property>
  <property name="kdenlive:original.mute_on_pause">0</property>
  <property name="kdenlive:original.kdenlive:file_size">4297548</property>
  <property name="kdenlive:original.kdenlive:file_hash">c9191b940e2b1bd458791f0b13823181</property>
  <property name="kdenlive:original.backup">1</property>
  <property name="meta.media.top_field_first">0</property>
  <property name="meta.media.progressive">1</property>
  <property name="kdenlive:file_hash">c9191b940e2b1bd458791f0b13823181</property>
 </chain>
 <chain id="chain77" out="00:00:03.983">
  <property name="length">240</property>
  <property name="eof">pause</property>
  <property name="resource">/home/xiaoxiae/.cache/kdenlive/proxy/9fbadb43d5b35c1b49d3e95c39c4f06a.mkv</property>
  <property name="mlt_service">avformat-novalidate</property>
  <property name="meta.media.nb_streams">1</property>
  <property name="meta.media.0.stream.type">video</property>
  <property name="meta.media.0.stream.frame_rate">60</property>
  <property name="meta.media.0.stream.sample_aspect_ratio">0</property>
  <property name="meta.media.0.codec.width">640</property>
  <property name="meta.media.0.codec.height">360</property>
  <property name="meta.media.0.codec.rotate">0</property>
  <property name="meta.media.0.codec.pix_fmt">yuvj444p</property>
  <property name="meta.media.0.codec.sample_aspect_ratio">0</property>
  <property name="meta.media.0.codec.colorspace">601</property>
  <property name="meta.media.0.codec.name">mjpeg</property>
  <property name="meta.media.0.codec.long_name">MJPEG (Motion JPEG)</property>
  <property name="meta.media.0.codec.bit_rate">0</property>
  <property name="meta.attr.0.stream.HANDLER_NAME.markup">VideoHandler</property>
  <property name="meta.attr.0.stream.VENDOR_ID.markup">FFMP</property>
  <property name="meta.attr.0.stream.ENCODER.markup">Lavc60.3.100 mjpeg</property>
  <property name="meta.attr.0.stream.DURATION.markup">00:00:04.000000000</property>
  <property name="meta.attr.COMMENT.markup">Rendered with Manim Community v0.17.3</property>
  <property name="meta.attr.MAJOR_BRAND.markup">qt  </property>
  <property name="meta.attr.MINOR_VERSION.markup">512</property>
  <property name="meta.attr.COMPATIBLE_BRANDS.markup">qt  </property>
  <property name="meta.attr.ENCODER.markup">Lavf60.3.100</property>
  <property name="seekable">1</property>
  <property name="meta.media.sample_aspect_num">1</property>
  <property name="meta.media.sample_aspect_den">1</property>
  <property name="format">3</property>
  <property name="audio_index">-1</property>
  <property name="video_index">0</property>
  <property name="meta.media.frame_rate_num">60</property>
  <property name="meta.media.frame_rate_den">1</property>
  <property name="meta.media.colorspace">601</property>
  <property name="meta.media.color_trc">2</property>
  <property name="meta.media.has_b_frames">0</property>
  <property name="meta.media.width">640</property>
  <property name="meta.media.height">360</property>
  <property name="meta.media.color_range">full</property>
  <property name="kdenlive:clipname">1.mov</property>
  <property name="kdenlive:clip_type">2</property>
  <property name="kdenlive:folderid">252</property>
  <property name="kdenlive:id">253</property>
  <property name="mute_on_pause">0</property>
  <property name="kdenlive:file_size">3556466</property>
  <property name="kdenlive:file_hash">9fbadb43d5b35c1b49d3e95c39c4f06a</property>
  <property name="kdenlive:proxy">/home/xiaoxiae/.cache/kdenlive/proxy/9fbadb43d5b35c1b49d3e95c39c4f06a.mkv</property>
  <property name="kdenlive:originalurl">video/TransparentPauseWithHint/1.mov</property>
  <property name="kdenlive:original.mlt_type">chain</property>
  <property name="kdenlive:original.in">0</property>
  <property name="kdenlive:original.out">00:00:03.983</property>
  <property name="kdenlive:original.length">240</property>
  <property name="kdenlive:original.eof">pause</property>
  <property name="kdenlive:original.resource">video/TransparentPauseWithHint/1.mov</property>
  <property name="kdenlive:original.mlt_service">avformat-novalidate</property>
  <property name="kdenlive:original.meta.media.nb_streams">1</property>
  <property name="kdenlive:original.meta.media.0.stream.type">video</property>
  <property name="kdenlive:original.meta.media.0.stream.frame_rate">60</property>
  <property name="kdenlive:original.meta.media.0.stream.sample_aspect_ratio">0</property>
  <property name="kdenlive:original.meta.media.0.codec.width">1920</property>
  <property name="kdenlive:original.meta.media.0.codec.height">1080</property>
  <property name="kdenlive:original.meta.media.0.codec.rotate">0</property>
  <property name="kdenlive:original.meta.media.0.codec.pix_fmt">argb</property>
  <property name="kdenlive:original.meta.media.0.codec.sample_aspect_ratio">0</property>
  <property name="kdenlive:original.meta.media.0.codec.colorspace">709</property>
  <property name="kdenlive:original.meta.media.0.codec.name">qtrle</property>
  <property name="kdenlive:original.meta.media.0.codec.long_name">QuickTime Animation (RLE) video</property>
  <property name="kdenlive:original.meta.media.0.codec.bit_rate">7109126</property>
  <property name="kdenlive:original.meta.attr.0.stream.handler_name.markup">VideoHandler</property>
  <property name="kdenlive:original.meta.attr.0.stream.vendor_id.markup">FFMP</property>
  <property name="kdenlive:original.meta.attr.0.stream.encoder.markup">Lavc60.3.100 qtrle</property>
  <property name="kdenlive:original.meta.attr.major_brand.markup">qt  </property>
  <property name="kdenlive:original.meta.attr.minor_version.markup">512</property>
  <property name="kdenlive:original.meta.attr.compatible_brands.markup">qt  </property>
  <property name="kdenlive:original.meta.attr.encoder.markup">Lavf60.3.100</property>
  <property name="kdenlive:original.meta.attr.comment.markup">Rendered with Manim Community v0.17.3</property>
  <property name="kdenlive:original.seekable">1</property>
  <property name="kdenlive:original.width">1920</property>
  <property name="kdenlive:original.height">1080</property>
  <property name="kdenlive:original.meta.media.sample_aspect_num">1</property>
  <property name="kdenlive:original.meta.media.sample_aspect_den">1</property>
  <property name="kdenlive:original.format">2</property>
  <property name="kdenlive:original.audio_index">-1</property>
  <property name="kdenlive:original.video_index">0</property>
  <property name="kdenlive:original.meta.media.frame_rate_num">60</property>
  <property name="kdenlive:original.meta.media.frame_rate_den">1</property>
  <property name="kdenlive:original.meta.media.colorspace">709</property>
  <property name="kdenlive:original.meta.media.color_trc">2</property>
  <property name="kdenlive:original.meta.media.has_b_frames">0</property>
  <property name="kdenlive:original.meta.media.width">1920</property>
  <property name="kdenlive:original.meta.media.height">1080</property>
  <property name="kdenlive:original.meta.media.color_range">mpeg</property>
  <property name="kdenlive:original.meta.media.top_field_first">0</property>
  <property name="kdenlive:original.meta.media.progressive">1</property>
  <property name="kdenlive:original.kdenlive:clip_type">2</property>
  <property name="kdenlive:original.kdenlive:folderid">252</property>
  <property name="kdenlive:original.kdenlive:id">253</property>
  <property name="kdenlive:original.mute_on_pause">0</property>
  <property name="kdenlive:original.kdenlive:file_size">3556466</property>
  <property name="kdenlive:original.kdenlive:file_hash">9fbadb43d5b35c1b49d3e95c39c4f06a</property>
  <property name="kdenlive:original.backup">1</property>
  <property name="meta.media.top_field_first">0</property>
  <property name="meta.media.progressive">1</property>
 </chain>
 <chain id="chain76" out="00:00:03.983">
  <property name="length">240</property>
  <property name="eof">pause</property>
  <property name="resource">/home/xiaoxiae/.cache/kdenlive/proxy/27c399bcca12818e564bfec3de00b791.mkv</property>
  <property name="mlt_service">avformat-novalidate</property>
  <property name="meta.media.nb_streams">1</property>
  <property name="meta.media.0.stream.type">video</property>
  <property name="meta.media.0.stream.frame_rate">60</property>
  <property name="meta.media.0.stream.sample_aspect_ratio">0</property>
  <property name="meta.media.0.codec.width">640</property>
  <property name="meta.media.0.codec.height">360</property>
  <property name="meta.media.0.codec.rotate">0</property>
  <property name="meta.media.0.codec.pix_fmt">yuvj444p</property>
  <property name="meta.media.0.codec.sample_aspect_ratio">0</property>
  <property name="meta.media.0.codec.colorspace">601</property>
  <property name="meta.media.0.codec.name">mjpeg</property>
  <property name="meta.media.0.codec.long_name">MJPEG (Motion JPEG)</property>
  <property name="meta.media.0.codec.bit_rate">0</property>
  <property name="meta.attr.0.stream.HANDLER_NAME.markup">VideoHandler</property>
  <property name="meta.attr.0.stream.VENDOR_ID.markup">FFMP</property>
  <property name="meta.attr.0.stream.ENCODER.markup">Lavc60.3.100 mjpeg</property>
  <property name="meta.attr.0.stream.DURATION.markup">00:00:04.000000000</property>
  <property name="meta.attr.COMMENT.markup">Rendered with Manim Community v0.17.3</property>
  <property name="meta.attr.MAJOR_BRAND.markup">qt  </property>
  <property name="meta.attr.MINOR_VERSION.markup">512</property>
  <property name="meta.attr.COMPATIBLE_BRANDS.markup">qt  </property>
  <property name="meta.attr.ENCODER.markup">Lavf60.3.100</property>
  <property name="seekable">1</property>
  <property name="meta.media.sample_aspect_num">1</property>
  <property name="meta.media.sample_aspect_den">1</property>
  <property name="format">3</property>
  <property name="audio_index">-1</property>
  <property name="video_index">0</property>
  <property name="meta.media.frame_rate_num">60</property>
  <property name="meta.media.frame_rate_den">1</property>
  <property name="meta.media.colorspace">601</property>
  <property name="meta.media.color_trc">2</property>
  <property name="meta.media.has_b_frames">0</property>
  <property name="meta.media.width">640</property>
  <property name="meta.media.height">360</property>
  <property name="meta.media.color_range">full</property>
  <property name="kdenlive:clipname">2.mov</property>
  <property name="kdenlive:clip_type">2</property>
  <property name="kdenlive:folderid">252</property>
  <property name="kdenlive:id">254</property>
  <property name="mute_on_pause">0</property>
  <property name="kdenlive:file_size">3554224</property>
  <property name="kdenlive:file_hash">27c399bcca12818e564bfec3de00b791</property>
  <property name="kdenlive:proxy">/home/xiaoxiae/.cache/kdenlive/proxy/27c399bcca12818e564bfec3de00b791.mkv</property>
  <property name="kdenlive:originalurl">video/TransparentPauseWithHint/2.mov</property>
  <property name="kdenlive:original.mlt_type">chain</property>
  <property name="kdenlive:original.in">0</property>
  <property name="kdenlive:original.out">00:00:03.983</property>
  <property name="kdenlive:original.length">240</property>
  <property name="kdenlive:original.eof">pause</property>
  <property name="kdenlive:original.resource">video/TransparentPauseWithHint/2.mov</property>
  <property name="kdenlive:original.mlt_service">avformat-novalidate</property>
  <property name="kdenlive:original.meta.media.nb_streams">1</property>
  <property name="kdenlive:original.meta.media.0.stream.type">video</property>
  <property name="kdenlive:original.meta.media.0.stream.frame_rate">60</property>
  <property name="kdenlive:original.meta.media.0.stream.sample_aspect_ratio">0</property>
  <property name="kdenlive:original.meta.media.0.codec.width">1920</property>
  <property name="kdenlive:original.meta.media.0.codec.height">1080</property>
  <property name="kdenlive:original.meta.media.0.codec.rotate">0</property>
  <property name="kdenlive:original.meta.media.0.codec.pix_fmt">argb</property>
  <property name="kdenlive:original.meta.media.0.codec.sample_aspect_ratio">0</property>
  <property name="kdenlive:original.meta.media.0.codec.colorspace">709</property>
  <property name="kdenlive:original.meta.media.0.codec.name">qtrle</property>
  <property name="kdenlive:original.meta.media.0.codec.long_name">QuickTime Animation (RLE) video</property>
  <property name="kdenlive:original.meta.media.0.codec.bit_rate">7104642</property>
  <property name="kdenlive:original.meta.attr.0.stream.handler_name.markup">VideoHandler</property>
  <property name="kdenlive:original.meta.attr.0.stream.vendor_id.markup">FFMP</property>
  <property name="kdenlive:original.meta.attr.0.stream.encoder.markup">Lavc60.3.100 qtrle</property>
  <property name="kdenlive:original.meta.attr.major_brand.markup">qt  </property>
  <property name="kdenlive:original.meta.attr.minor_version.markup">512</property>
  <property name="kdenlive:original.meta.attr.compatible_brands.markup">qt  </property>
  <property name="kdenlive:original.meta.attr.encoder.markup">Lavf60.3.100</property>
  <property name="kdenlive:original.meta.attr.comment.markup">Rendered with Manim Community v0.17.3</property>
  <property name="kdenlive:original.seekable">1</property>
  <property name="kdenlive:original.width">1920</property>
  <property name="kdenlive:original.height">1080</property>
  <property name="kdenlive:original.meta.media.sample_aspect_num">1</property>
  <property name="kdenlive:original.meta.media.sample_aspect_den">1</property>
  <property name="kdenlive:original.format">2</property>
  <property name="kdenlive:original.audio_index">-1</property>
  <property name="kdenlive:original.video_index">0</property>
  <property name="kdenlive:original.meta.media.frame_rate_num">60</property>
  <property name="kdenlive:original.meta.media.frame_rate_den">1</property>
  <property name="kdenlive:original.meta.media.colorspace">709</property>
  <property name="kdenlive:original.meta.media.color_trc">2</property>
  <property name="kdenlive:original.meta.media.has_b_frames">0</property>
  <property name="kdenlive:original.meta.media.width">1920</property>
  <property name="kdenlive:original.meta.media.height">1080</property>
  <property name="kdenlive:original.meta.media.color_range">mpeg</property>
  <property name="kdenlive:original.meta.media.top_field_first">0</property>
  <property name="kdenlive:original.meta.media.progressive">1</property>
  <property name="kdenlive:original.kdenlive:clip_type">2</property>
  <property name="kdenlive:original.kdenlive:folderid">252</property>
  <property name="kdenlive:original.kdenlive:id">254</property>
  <property name="kdenlive:original.mute_on_pause">0</property>
  <property name="kdenlive:original.kdenlive:file_size">3554224</property>
  <property name="kdenlive:original.kdenlive:file_hash">27c399bcca12818e564bfec3de00b791</property>
  <property name="kdenlive:original.backup">1</property>
  <property name="meta.media.top_field_first">0</property>
  <property name="meta.media.progressive">1</property>
 </chain>
 <chain id="chain122" out="00:02:12.333">
  <property name="length">7941</property>
  <property name="eof">pause</property>
  <property name="resource">audio/music/Slider.wav</property>
  <property name="mlt_service">avformat</property>
  <property name="meta.media.nb_streams">1</property>
  <property name="meta.media.0.stream.type">audio</property>
  <property name="meta.media.0.codec.sample_fmt">s32</property>
  <property name="meta.media.0.codec.sample_rate">48000</property>
  <property name="meta.media.0.codec.channels">2</property>
  <property name="meta.media.0.codec.name">pcm_s24le</property>
  <property name="meta.media.0.codec.long_name">PCM signed 24-bit little-endian</property>
  <property name="meta.media.0.codec.bit_rate">2304000</property>
  <property name="meta.attr.encoded_by.markup">Logic Pro X</property>
  <property name="meta.attr.date.markup">2015-03-15</property>
  <property name="meta.attr.creation_time.markup">14:40:38</property>
  <property name="meta.attr.time_reference.markup">172896000</property>
  <property name="meta.attr.umid.markup">0x007F00003007BF5EFF7F00003007BF5EFF7F00002010BF5EFF7F0000B0CBE799B57F00003652D90101000000B0444B0B010000006008BF5EFF7F00006806460B</property>
  <property name="seekable">1</property>
  <property name="audio_index">0</property>
  <property name="video_index">-1</property>
  <property name="kdenlive:clipname"/>
  <property name="kdenlive:clip_type">1</property>
  <property name="kdenlive:folderid">265</property>
  <property name="kdenlive:id">266</property>
  <property name="kdenlive:file_size">38224656</property>
  <property name="kdenlive:file_hash">208291bd5c25bf9bd4495898992f1bdc</property>
  <property name="kdenlive:audio_max0">240</property>
 </chain>
 <chain id="chain123" out="00:04:06.350">
  <property name="length">14782</property>
  <property name="eof">pause</property>
  <property name="resource">audio/music/Bodytonic/A Simple Blur/A Simple Blur.wav</property>
  <property name="mlt_service">avformat</property>
  <property name="meta.media.nb_streams">1</property>
  <property name="meta.media.0.stream.type">audio</property>
  <property name="meta.media.0.codec.sample_fmt">s32</property>
  <property name="meta.media.0.codec.sample_rate">44100</property>
  <property name="meta.media.0.codec.channels">2</property>
  <property name="meta.media.0.codec.name">pcm_s24le</property>
  <property name="meta.media.0.codec.long_name">PCM signed 24-bit little-endian</property>
  <property name="meta.media.0.codec.bit_rate">2116800</property>
  <property name="meta.attr.encoded_by.markup">Logic Pro X</property>
  <property name="meta.attr.date.markup">2017-06-08</property>
  <property name="meta.attr.creation_time.markup">12:35:42</property>
  <property name="meta.attr.time_reference.markup">158760000</property>
  <property name="meta.attr.umid.markup">0x00000000000000000000000000000000000000000000000000000000A200AAFA29A23A358059595BFF7F00004694620501000000B051595BFF7F0000ECFE8894</property>
  <property name="seekable">1</property>
  <property name="audio_index">0</property>
  <property name="video_index">-1</property>
  <property name="kdenlive:clipname"/>
  <property name="kdenlive:clip_type">1</property>
  <property name="kdenlive:folderid">268</property>
  <property name="kdenlive:id">269</property>
  <property name="kdenlive:file_size">65188546</property>
  <property name="kdenlive:file_hash">f2aa69291b07ae43a5a1dbce44ef3074</property>
  <property name="kdenlive:audio_max0">220</property>
 </chain>
 <chain id="chain125" out="00:03:48.850">
  <property name="length">13732</property>
  <property name="eof">pause</property>
  <property name="resource">audio/music/Bodytonic/A Simple Blur/stems/01_A Simple Blur_Rhodia SynPad.wav</property>
  <property name="mlt_service">avformat</property>
  <property name="meta.media.nb_streams">1</property>
  <property name="meta.media.0.stream.type">audio</property>
  <property name="meta.media.0.codec.sample_fmt">s32</property>
  <property name="meta.media.0.codec.sample_rate">44100</property>
  <property name="meta.media.0.codec.channels">2</property>
  <property name="meta.media.0.codec.name">pcm_s24le</property>
  <property name="meta.media.0.codec.long_name">PCM signed 24-bit little-endian</property>
  <property name="meta.media.0.codec.bit_rate">2116800</property>
  <property name="meta.attr.encoded_by.markup">Logic Pro X</property>
  <property name="meta.attr.date.markup">2017-06-08</property>
  <property name="meta.attr.creation_time.markup">12:38:28</property>
  <property name="meta.attr.time_reference.markup">158760000</property>
  <property name="meta.attr.umid.markup">0x00000000000000000000000000000000000000000000000000000000A200AAFA29A23A3530AC595BFF7F0000469462050100000060A4595BFF7F0000ECFE8894</property>
  <property name="seekable">1</property>
  <property name="audio_index">0</property>
  <property name="video_index">-1</property>
  <property name="kdenlive:clipname"/>
  <property name="kdenlive:clip_type">1</property>
  <property name="kdenlive:folderid">270</property>
  <property name="kdenlive:id">271</property>
  <property name="kdenlive:file_size">60639424</property>
  <property name="kdenlive:file_hash">c65736e53f0f200aa62922ce417ee94a</property>
  <property name="kdenlive:audio_max0">103</property>
 </chain>
 <chain id="chain127" out="00:04:09.667">
  <property name="length">14981</property>
  <property name="eof">pause</property>
  <property name="resource">audio/music/Bodytonic/A Simple Blur/stems/02_A Simple Blur_Rhodia SynPad.wav</property>
  <property name="mlt_service">avformat</property>
  <property name="meta.media.nb_streams">1</property>
  <property name="meta.media.0.stream.type">audio</property>
  <property name="meta.media.0.codec.sample_fmt">s32</property>
  <property name="meta.media.0.codec.sample_rate">44100</property>
  <property name="meta.media.0.codec.channels">2</property>
  <property name="meta.media.0.codec.name">pcm_s24le</property>
  <property name="meta.media.0.codec.long_name">PCM signed 24-bit little-endian</property>
  <property name="meta.media.0.codec.bit_rate">2116800</property>
  <property name="meta.attr.encoded_by.markup">Logic Pro X</property>
  <property name="meta.attr.date.markup">2017-06-08</property>
  <property name="meta.attr.creation_time.markup">12:38:23</property>
  <property name="meta.attr.time_reference.markup">158760000</property>
  <property name="meta.attr.umid.markup">0x00000000000000000000000000000000000000000000000000000000A200AAFA29A23A3530AC595BFF7F0000469462050100000060A4595BFF7F0000ECFE8894</property>
  <property name="seekable">1</property>
  <property name="audio_index">0</property>
  <property name="video_index">-1</property>
  <property name="kdenlive:clipname"/>
  <property name="kdenlive:clip_type">1</property>
  <property name="kdenlive:folderid">270</property>
  <property name="kdenlive:id">272</property>
  <property name="kdenlive:file_size">66151616</property>
  <property name="kdenlive:file_hash">a236409fcd8439c53deb9fc2207cdd49</property>
  <property name="kdenlive:audio_max0">60</property>
 </chain>
 <chain id="chain128" out="00:03:52.567">
  <property name="length">13955</property>
  <property name="eof">pause</property>
  <property name="resource">audio/music/Bodytonic/A Simple Blur/stems/03_A Simple Blur_Fjoria SynPad.wav</property>
  <property name="mlt_service">avformat</property>
  <property name="meta.media.nb_streams">1</property>
  <property name="meta.media.0.stream.type">audio</property>
  <property name="meta.media.0.codec.sample_fmt">s32</property>
  <property name="meta.media.0.codec.sample_rate">44100</property>
  <property name="meta.media.0.codec.channels">2</property>
  <property name="meta.media.0.codec.name">pcm_s24le</property>
  <property name="meta.media.0.codec.long_name">PCM signed 24-bit little-endian</property>
  <property name="meta.media.0.codec.bit_rate">2116800</property>
  <property name="meta.attr.encoded_by.markup">Logic Pro X</property>
  <property name="meta.attr.date.markup">2017-06-08</property>
  <property name="meta.attr.creation_time.markup">12:38:32</property>
  <property name="meta.attr.time_reference.markup">158760000</property>
  <property name="meta.attr.umid.markup">0x00000000000000000000000000000000000000000000000000000000A200AAFA29A23A3530AC595BFF7F0000469462050100000060A4595BFF7F0000ECFE8894</property>
  <property name="seekable">1</property>
  <property name="audio_index">0</property>
  <property name="video_index">-1</property>
  <property name="kdenlive:clipname"/>
  <property name="kdenlive:clip_type">1</property>
  <property name="kdenlive:folderid">270</property>
  <property name="kdenlive:id">273</property>
  <property name="kdenlive:file_size">61623744</property>
  <property name="kdenlive:file_hash">1f8f7e60a18625e1ccee23eca45d8c95</property>
  <property name="kdenlive:audio_max0">126</property>
 </chain>
 <chain id="chain130" out="00:02:59.067">
  <property name="length">10745</property>
  <property name="eof">pause</property>
  <property name="resource">audio/music/Bodytonic/A Simple Blur/stems/04_A Simple Blur_Strings.wav</property>
  <property name="mlt_service">avformat</property>
  <property name="meta.media.nb_streams">1</property>
  <property name="meta.media.0.stream.type">audio</property>
  <property name="meta.media.0.codec.sample_fmt">s32</property>
  <property name="meta.media.0.codec.sample_rate">44100</property>
  <property name="meta.media.0.codec.channels">2</property>
  <property name="meta.media.0.codec.name">pcm_s24le</property>
  <property name="meta.media.0.codec.long_name">PCM signed 24-bit little-endian</property>
  <property name="meta.media.0.codec.bit_rate">2116800</property>
  <property name="meta.attr.encoded_by.markup">Logic Pro X</property>
  <property name="meta.attr.date.markup">2017-06-08</property>
  <property name="meta.attr.creation_time.markup">12:38:19</property>
  <property name="meta.attr.time_reference.markup">158760000</property>
  <property name="meta.attr.umid.markup">0x00000000000000000000000000000000000000000000000000000000A200AAFA29A23A3530AC595BFF7F0000469462050100000060A4595BFF7F0000ECFE8894</property>
  <property name="seekable">1</property>
  <property name="audio_index">0</property>
  <property name="video_index">-1</property>
  <property name="kdenlive:clipname"/>
  <property name="kdenlive:clip_type">1</property>
  <property name="kdenlive:folderid">270</property>
  <property name="kdenlive:id">274</property>
  <property name="kdenlive:file_size">47449536</property>
  <property name="kdenlive:file_hash">8e964ae752713ed1cbdc6650eb317343</property>
  <property name="kdenlive:audio_max0">48</property>
 </chain>
 <chain id="chain131" out="00:04:36.350">
  <property name="length">16582</property>
  <property name="eof">pause</property>
  <property name="resource">audio/music/Bodytonic/A Simple Blur/variations/A Simple Blur | Alternate Take.wav</property>
  <property name="mlt_service">avformat</property>
  <property name="meta.media.nb_streams">1</property>
  <property name="meta.media.0.stream.type">audio</property>
  <property name="meta.media.0.codec.sample_fmt">s32</property>
  <property name="meta.media.0.codec.sample_rate">44100</property>
  <property name="meta.media.0.codec.channels">2</property>
  <property name="meta.media.0.codec.name">pcm_s24le</property>
  <property name="meta.media.0.codec.long_name">PCM signed 24-bit little-endian</property>
  <property name="meta.media.0.codec.bit_rate">2116800</property>
  <property name="meta.attr.encoded_by.markup">Logic Pro X</property>
  <property name="meta.attr.date.markup">2017-06-08</property>
  <property name="meta.attr.creation_time.markup">12:45:30</property>
  <property name="meta.attr.time_reference.markup">158760000</property>
  <property name="meta.attr.umid.markup">0x00000000000000000000000000000000000000000000000000000000A200AAFA29A23A358059595BFF7F00004694620501000000B051595BFF7F0000ECFE8894</property>
  <property name="seekable">1</property>
  <property name="audio_index">0</property>
  <property name="video_index">-1</property>
  <property name="kdenlive:clipname"/>
  <property name="kdenlive:clip_type">1</property>
  <property name="kdenlive:folderid">275</property>
  <property name="kdenlive:id">276</property>
  <property name="kdenlive:file_size">73126546</property>
  <property name="kdenlive:file_hash">d88e7c70d1389c067a96465d9cbf7afd</property>
  <property name="kdenlive:audio_max0">245</property>
 </chain>
 <chain id="chain134" out="00:02:26.800">
  <property name="length">8809</property>
  <property name="eof">pause</property>
  <property name="resource">audio/music/Bodytonic/A Simple Blur/variations/A Simple Blur | Atmo Thick.wav</property>
  <property name="mlt_service">avformat</property>
  <property name="meta.media.nb_streams">1</property>
  <property name="meta.media.0.stream.type">audio</property>
  <property name="meta.media.0.codec.sample_fmt">s32</property>
  <property name="meta.media.0.codec.sample_rate">44100</property>
  <property name="meta.media.0.codec.channels">2</property>
  <property name="meta.media.0.codec.name">pcm_s24le</property>
  <property name="meta.media.0.codec.long_name">PCM signed 24-bit little-endian</property>
  <property name="meta.media.0.codec.bit_rate">2116800</property>
  <property name="meta.attr.encoded_by.markup">Logic Pro X</property>
  <property name="meta.attr.date.markup">2017-06-08</property>
  <property name="meta.attr.creation_time.markup">12:43:49</property>
  <property name="meta.attr.time_reference.markup">158760000</property>
  <property name="meta.attr.umid.markup">0x00000000000000000000000000000000000000000000000000000000A200AAFA29A23A358059595BFF7F00004694620501000000B051595BFF7F0000ECFE8894</property>
  <property name="seekable">1</property>
  <property name="audio_index">0</property>
  <property name="video_index">-1</property>
  <property name="kdenlive:clipname"/>
  <property name="kdenlive:clip_type">1</property>
  <property name="kdenlive:folderid">275</property>
  <property name="kdenlive:id">277</property>
  <property name="kdenlive:file_size">38848822</property>
  <property name="kdenlive:file_hash">9bed652ae2b0750a1b381235991464bf</property>
  <property name="kdenlive:audio_max0">199</property>
 </chain>
 <chain id="chain135" out="00:04:12.717">
  <property name="length">15164</property>
  <property name="eof">pause</property>
  <property name="resource">audio/music/Bodytonic/A Simple Blur/variations/A Simple Blur | Atmo.wav</property>
  <property name="mlt_service">avformat</property>
  <property name="meta.media.nb_streams">1</property>
  <property name="meta.media.0.stream.type">audio</property>
  <property name="meta.media.0.codec.sample_fmt">s32</property>
  <property name="meta.media.0.codec.sample_rate">44100</property>
  <property name="meta.media.0.codec.channels">2</property>
  <property name="meta.media.0.codec.name">pcm_s24le</property>
  <property name="meta.media.0.codec.long_name">PCM signed 24-bit little-endian</property>
  <property name="meta.media.0.codec.bit_rate">2116800</property>
  <property name="meta.attr.encoded_by.markup">Logic Pro X</property>
  <property name="meta.attr.date.markup">2017-06-08</property>
  <property name="meta.attr.creation_time.markup">12:40:33</property>
  <property name="meta.attr.time_reference.markup">158760000</property>
  <property name="meta.attr.umid.markup">0x00000000000000000000000000000000000000000000000000000000A200AAFA29A23A358059595BFF7F00004694620501000000B051595BFF7F0000ECFE8894</property>
  <property name="seekable">1</property>
  <property name="audio_index">0</property>
  <property name="video_index">-1</property>
  <property name="kdenlive:clipname"/>
  <property name="kdenlive:clip_type">1</property>
  <property name="kdenlive:folderid">275</property>
  <property name="kdenlive:id">278</property>
  <property name="kdenlive:file_size">66872362</property>
  <property name="kdenlive:file_hash">4a4ddfafb6171a33036cb319a5a2a20b</property>
  <property name="kdenlive:audio_max0">196</property>
 </chain>
 <chain id="chain136" out="00:02:29.533">
  <property name="length">8973</property>
  <property name="eof">pause</property>
  <property name="resource">audio/music/Bodytonic/A Simple Blur/variations/A Simple Blur | Bass Solo.wav</property>
  <property name="mlt_service">avformat</property>
  <property name="meta.media.nb_streams">1</property>
  <property name="meta.media.0.stream.type">audio</property>
  <property name="meta.media.0.codec.sample_fmt">s32</property>
  <property name="meta.media.0.codec.sample_rate">44100</property>
  <property name="meta.media.0.codec.channels">2</property>
  <property name="meta.media.0.codec.name">pcm_s24le</property>
  <property name="meta.media.0.codec.long_name">PCM signed 24-bit little-endian</property>
  <property name="meta.media.0.codec.bit_rate">2116800</property>
  <property name="meta.attr.encoded_by.markup">Logic Pro X</property>
  <property name="meta.attr.date.markup">2017-06-08</property>
  <property name="meta.attr.creation_time.markup">12:39:30</property>
  <property name="meta.attr.time_reference.markup">158760000</property>
  <property name="meta.attr.umid.markup">0x00000000000000000000000000000000000000000000000000000000A200AAFA29A23A358059595BFF7F00004694620501000000B051595BFF7F0000ECFE8894</property>
  <property name="seekable">1</property>
  <property name="audio_index">0</property>
  <property name="video_index">-1</property>
  <property name="kdenlive:clipname"/>
  <property name="kdenlive:clip_type">1</property>
  <property name="kdenlive:folderid">275</property>
  <property name="kdenlive:id">279</property>
  <property name="kdenlive:file_size">39570454</property>
  <property name="kdenlive:file_hash">b73a7a78bd3d8a86717eb670d5567ae2</property>
  <property name="kdenlive:audio_max0">245</property>
 </chain>
 <chain id="chain137" out="00:03:59.983">
  <property name="length">14400</property>
  <property name="eof">pause</property>
  <property name="resource">audio/music/Bodytonic/A Simple Blur/variations/A Simple Blur | Darker.wav</property>
  <property name="mlt_service">avformat</property>
  <property name="meta.media.nb_streams">1</property>
  <property name="meta.media.0.stream.type">audio</property>
  <property name="meta.media.0.codec.sample_fmt">s32</property>
  <property name="meta.media.0.codec.sample_rate">44100</property>
  <property name="meta.media.0.codec.channels">2</property>
  <property name="meta.media.0.codec.name">pcm_s24le</property>
  <property name="meta.media.0.codec.long_name">PCM signed 24-bit little-endian</property>
  <property name="meta.media.0.codec.bit_rate">2116800</property>
  <property name="meta.attr.encoded_by.markup">Logic Pro X</property>
  <property name="meta.attr.date.markup">2017-06-08</property>
  <property name="meta.attr.creation_time.markup">12:48:14</property>
  <property name="meta.attr.time_reference.markup">158760000</property>
  <property name="meta.attr.umid.markup">0x00000000000000000000000000000000000000000000000000000000A200AAFA29A23A358059595BFF7F00004694620501000000B051595BFF7F0000ECFE8894</property>
  <property name="seekable">1</property>
  <property name="audio_index">0</property>
  <property name="video_index">-1</property>
  <property name="kdenlive:clipname"/>
  <property name="kdenlive:clip_type">1</property>
  <property name="kdenlive:folderid">275</property>
  <property name="kdenlive:id">280</property>
  <property name="kdenlive:file_size">63504730</property>
  <property name="kdenlive:file_hash">ec62503abc51cbf789b937e3956dbd96</property>
  <property name="kdenlive:audio_max0">223</property>
 </chain>
 <chain id="chain140" out="00:01:30.617">
  <property name="length">5438</property>
  <property name="eof">pause</property>
  <property name="resource">audio/music/Bodytonic/A Simple Blur/variations/A Simple Blur | Piano Solo.wav</property>
  <property name="mlt_service">avformat</property>
  <property name="meta.media.nb_streams">1</property>
  <property name="meta.media.0.stream.type">audio</property>
  <property name="meta.media.0.codec.sample_fmt">s32</property>
  <property name="meta.media.0.codec.sample_rate">44100</property>
  <property name="meta.media.0.codec.channels">2</property>
  <property name="meta.media.0.codec.name">pcm_s24le</property>
  <property name="meta.media.0.codec.long_name">PCM signed 24-bit little-endian</property>
  <property name="meta.media.0.codec.bit_rate">2116800</property>
  <property name="meta.attr.encoded_by.markup">Logic Pro X</property>
  <property name="meta.attr.date.markup">2017-06-08</property>
  <property name="meta.attr.creation_time.markup">12:41:45</property>
  <property name="meta.attr.time_reference.markup">160899226</property>
  <property name="meta.attr.umid.markup">0x00000000000000000000000000000000000000000000000000000000A200AAFA29A23A358059595BFF7F00004694620501000000B051595BFF7F0000ECFE8894</property>
  <property name="seekable">1</property>
  <property name="audio_index">0</property>
  <property name="video_index">-1</property>
  <property name="kdenlive:clipname"/>
  <property name="kdenlive:clip_type">1</property>
  <property name="kdenlive:folderid">275</property>
  <property name="kdenlive:id">281</property>
  <property name="kdenlive:file_size">23980606</property>
  <property name="kdenlive:file_hash">ba7ff8c453466c1a6b83f3c32c180006</property>
  <property name="kdenlive:audio_max0">217</property>
 </chain>
 <chain id="chain141" out="00:01:09.983">
  <property name="length">4200</property>
  <property name="eof">pause</property>
  <property name="resource">audio/music/Bodytonic/A Simple Blur/variations/A Simple Blur | Shorter.wav</property>
  <property name="mlt_service">avformat</property>
  <property name="meta.media.nb_streams">1</property>
  <property name="meta.media.0.stream.type">audio</property>
  <property name="meta.media.0.codec.sample_fmt">s32</property>
  <property name="meta.media.0.codec.sample_rate">44100</property>
  <property name="meta.media.0.codec.channels">2</property>
  <property name="meta.media.0.codec.name">pcm_s24le</property>
  <property name="meta.media.0.codec.long_name">PCM signed 24-bit little-endian</property>
  <property name="meta.media.0.codec.bit_rate">2116800</property>
  <property name="meta.attr.encoded_by.markup">Logic Pro X</property>
  <property name="meta.attr.date.markup">2017-06-08</property>
  <property name="meta.attr.creation_time.markup">12:36:50</property>
  <property name="meta.attr.time_reference.markup">166898454</property>
  <property name="meta.attr.umid.markup">0x00000000000000000000000000000000000000000000000000000000A200AAFA29A23A358059595BFF7F00004694620501000000B051595BFF7F0000ECFE8894</property>
  <property name="seekable">1</property>
  <property name="audio_index">0</property>
  <property name="video_index">-1</property>
  <property name="kdenlive:clipname"/>
  <property name="kdenlive:clip_type">1</property>
  <property name="kdenlive:folderid">275</property>
  <property name="kdenlive:id">282</property>
  <property name="kdenlive:file_size">18522730</property>
  <property name="kdenlive:file_hash">647900bd058325bd8067aa46b162120f</property>
  <property name="kdenlive:audio_max0">216</property>
 </chain>
 <chain id="chain144" out="00:04:00.450">
  <property name="length">14428</property>
  <property name="eof">pause</property>
  <property name="resource">audio/music/Bodytonic/Are We Loose Yet/Are We Loose Yet.wav</property>
  <property name="mlt_service">avformat</property>
  <property name="meta.media.nb_streams">1</property>
  <property name="meta.media.0.stream.type">audio</property>
  <property name="meta.media.0.codec.sample_fmt">s32</property>
  <property name="meta.media.0.codec.sample_rate">44100</property>
  <property name="meta.media.0.codec.channels">2</property>
  <property name="meta.media.0.codec.name">pcm_s24le</property>
  <property name="meta.media.0.codec.long_name">PCM signed 24-bit little-endian</property>
  <property name="meta.media.0.codec.bit_rate">2116800</property>
  <property name="meta.attr.encoded_by.markup">Logic Pro X</property>
  <property name="meta.attr.date.markup">2017-06-15</property>
  <property name="meta.attr.creation_time.markup">15:32:44</property>
  <property name="meta.attr.time_reference.markup">158760000</property>
  <property name="meta.attr.umid.markup">0x000000000000000000000000000000000000000000000000000000002D004DB1F4A48AF980495459FF7F000046A4670701000000B0415459FF7F0000ECAEE6A7</property>
  <property name="seekable">1</property>
  <property name="audio_index">0</property>
  <property name="video_index">-1</property>
  <property name="kdenlive:clipname"/>
  <property name="kdenlive:clip_type">1</property>
  <property name="kdenlive:folderid">283</property>
  <property name="kdenlive:id">284</property>
  <property name="kdenlive:file_size">63630388</property>
  <property name="kdenlive:file_hash">ff3ebf1c463f41a5ce975d44b88fb694</property>
  <property name="kdenlive:audio_max0">237</property>
 </chain>
 <chain id="chain146" out="00:03:57.767">
  <property name="length">14267</property>
  <property name="eof">pause</property>
  <property name="resource">audio/music/Bodytonic/Are We Loose Yet/stems/01_Are We Loose Yet_Upright Bass.wav</property>
  <property name="mlt_service">avformat</property>
  <property name="meta.media.nb_streams">1</property>
  <property name="meta.media.0.stream.type">audio</property>
  <property name="meta.media.0.codec.sample_fmt">s32</property>
  <property name="meta.media.0.codec.sample_rate">44100</property>
  <property name="meta.media.0.codec.channels">2</property>
  <property name="meta.media.0.codec.name">pcm_s24le</property>
  <property name="meta.media.0.codec.long_name">PCM signed 24-bit little-endian</property>
  <property name="meta.media.0.codec.bit_rate">2116800</property>
  <property name="meta.attr.encoded_by.markup">Logic Pro X</property>
  <property name="meta.attr.date.markup">2017-06-15</property>
  <property name="meta.attr.creation_time.markup">15:34:52</property>
  <property name="meta.attr.time_reference.markup">158760000</property>
  <property name="meta.attr.umid.markup">0x000000000000000000000000000000000000000000000000000000002D004DB1F4A48AF9309C5459FF7F000046A467070100000060945459FF7F0000ECAEE6A7</property>
  <property name="seekable">1</property>
  <property name="audio_index">0</property>
  <property name="video_index">-1</property>
  <property name="kdenlive:clipname"/>
  <property name="kdenlive:clip_type">1</property>
  <property name="kdenlive:folderid">285</property>
  <property name="kdenlive:id">286</property>
  <property name="kdenlive:file_size">63001792</property>
  <property name="kdenlive:file_hash">93a36dc8d3199ef1f61aa1a27b7ae358</property>
  <property name="kdenlive:audio_max0">158</property>
 </chain>
 <chain id="chain148" out="00:03:57.767">
  <property name="length">14267</property>
  <property name="eof">pause</property>
  <property name="resource">audio/music/Bodytonic/Are We Loose Yet/stems/02_Are We Loose Yet_Piano.wav</property>
  <property name="mlt_service">avformat</property>
  <property name="meta.media.nb_streams">1</property>
  <property name="meta.media.0.stream.type">audio</property>
  <property name="meta.media.0.codec.sample_fmt">s32</property>
  <property name="meta.media.0.codec.sample_rate">44100</property>
  <property name="meta.media.0.codec.channels">2</property>
  <property name="meta.media.0.codec.name">pcm_s24le</property>
  <property name="meta.media.0.codec.long_name">PCM signed 24-bit little-endian</property>
  <property name="meta.media.0.codec.bit_rate">2116800</property>
  <property name="meta.attr.encoded_by.markup">Logic Pro X</property>
  <property name="meta.attr.date.markup">2017-06-15</property>
  <property name="meta.attr.creation_time.markup">15:34:56</property>
  <property name="meta.attr.time_reference.markup">158760000</property>
  <property name="meta.attr.umid.markup">0x000000000000000000000000000000000000000000000000000000002D004DB1F4A48AF9309C5459FF7F000046A467070100000060945459FF7F0000ECAEE6A7</property>
  <property name="seekable">1</property>
  <property name="audio_index">0</property>
  <property name="video_index">-1</property>
  <property name="kdenlive:clipname"/>
  <property name="kdenlive:clip_type">1</property>
  <property name="kdenlive:folderid">285</property>
  <property name="kdenlive:id">287</property>
  <property name="kdenlive:file_size">63001792</property>
  <property name="kdenlive:file_hash">06d4014a8deb1cd03d96ebcb4675b0fc</property>
  <property name="kdenlive:audio_max0">97</property>
 </chain>
 <chain id="chain149" out="00:03:54.800">
  <property name="length">14089</property>
  <property name="eof">pause</property>
  <property name="resource">audio/music/Bodytonic/Are We Loose Yet/stems/03_Are We Loose Yet_Marimba.wav</property>
  <property name="mlt_service">avformat</property>
  <property name="meta.media.nb_streams">1</property>
  <property name="meta.media.0.stream.type">audio</property>
  <property name="meta.media.0.codec.sample_fmt">s32</property>
  <property name="meta.media.0.codec.sample_rate">44100</property>
  <property name="meta.media.0.codec.channels">2</property>
  <property name="meta.media.0.codec.name">pcm_s24le</property>
  <property name="meta.media.0.codec.long_name">PCM signed 24-bit little-endian</property>
  <property name="meta.media.0.codec.bit_rate">2116800</property>
  <property name="meta.attr.encoded_by.markup">Logic Pro X</property>
  <property name="meta.attr.date.markup">2017-06-15</property>
  <property name="meta.attr.creation_time.markup">15:35:01</property>
  <property name="meta.attr.time_reference.markup">158760000</property>
  <property name="meta.attr.umid.markup">0x000000000000000000000000000000000000000000000000000000002D004DB1F4A48AF9309C5459FF7F000046A467070100000060945459FF7F0000ECAEE6A7</property>
  <property name="seekable">1</property>
  <property name="audio_index">0</property>
  <property name="video_index">-1</property>
  <property name="kdenlive:clipname"/>
  <property name="kdenlive:clip_type">1</property>
  <property name="kdenlive:folderid">285</property>
  <property name="kdenlive:id">288</property>
  <property name="kdenlive:file_size">62214336</property>
  <property name="kdenlive:file_hash">e6882763581d12fb0f52aadd5e38c77c</property>
  <property name="kdenlive:audio_max0">105</property>
 </chain>
 <chain id="chain153" out="00:03:53.317">
  <property name="length">14000</property>
  <property name="eof">pause</property>
  <property name="resource">audio/music/Bodytonic/Are We Loose Yet/stems/04_Are We Loose Yet_Found Percussion.wav</property>
  <property name="mlt_service">avformat</property>
  <property name="meta.media.nb_streams">1</property>
  <property name="meta.media.0.stream.type">audio</property>
  <property name="meta.media.0.codec.sample_fmt">s32</property>
  <property name="meta.media.0.codec.sample_rate">44100</property>
  <property name="meta.media.0.codec.channels">2</property>
  <property name="meta.media.0.codec.name">pcm_s24le</property>
  <property name="meta.media.0.codec.long_name">PCM signed 24-bit little-endian</property>
  <property name="meta.media.0.codec.bit_rate">2116800</property>
  <property name="meta.attr.encoded_by.markup">Logic Pro X</property>
  <property name="meta.attr.date.markup">2017-06-15</property>
  <property name="meta.attr.creation_time.markup">15:34:47</property>
  <property name="meta.attr.time_reference.markup">158760000</property>
  <property name="meta.attr.umid.markup">0x000000000000000000000000000000000000000000000000000000002D004DB1F4A48AF9309C5459FF7F000046A467070100000060945459FF7F0000ECAEE6A7</property>
  <property name="seekable">1</property>
  <property name="audio_index">0</property>
  <property name="video_index">-1</property>
  <property name="kdenlive:clipname"/>
  <property name="kdenlive:clip_type">1</property>
  <property name="kdenlive:folderid">285</property>
  <property name="kdenlive:id">289</property>
  <property name="kdenlive:file_size">61820608</property>
  <property name="kdenlive:file_hash">62a8fbc953a58edef23d531578783b6f</property>
  <property name="kdenlive:audio_max0">171</property>
 </chain>
 <chain id="chain157" out="00:00:19.983">
  <property name="length">1200</property>
  <property name="eof">pause</property>
  <property name="resource">audio/music/Bodytonic/Are We Loose Yet/variations/Are We Loose Yet | 30 Sec.wav</property>
  <property name="mlt_service">avformat</property>
  <property name="meta.media.nb_streams">1</property>
  <property name="meta.media.0.stream.type">audio</property>
  <property name="meta.media.0.codec.sample_fmt">s32</property>
  <property name="meta.media.0.codec.sample_rate">44100</property>
  <property name="meta.media.0.codec.channels">2</property>
  <property name="meta.media.0.codec.name">pcm_s24le</property>
  <property name="meta.media.0.codec.long_name">PCM signed 24-bit little-endian</property>
  <property name="meta.media.0.codec.bit_rate">2116800</property>
  <property name="meta.attr.encoded_by.markup">Logic Pro X</property>
  <property name="meta.attr.date.markup">2017-06-15</property>
  <property name="meta.attr.creation_time.markup">15:37:02</property>
  <property name="meta.attr.time_reference.markup">168381818</property>
  <property name="meta.attr.umid.markup">0x000000000000000000000000000000000000000000000000000000002D004DB1F4A48AF980495459FF7F000046A4670701000000B0415459FF7F0000ECAEE6A7</property>
  <property name="seekable">1</property>
  <property name="audio_index">0</property>
  <property name="video_index">-1</property>
  <property name="kdenlive:clipname"/>
  <property name="kdenlive:clip_type">1</property>
  <property name="kdenlive:folderid">290</property>
  <property name="kdenlive:id">291</property>
  <property name="kdenlive:file_size">5292730</property>
  <property name="kdenlive:file_hash">d34688d51726f5a15ade85a342eb0ae4</property>
  <property name="kdenlive:audio_max0">228</property>
 </chain>
 <chain id="chain158" out="00:01:07.250">
  <property name="length">4036</property>
  <property name="eof">pause</property>
  <property name="resource">audio/music/Bodytonic/Are We Loose Yet/variations/Are We Loose Yet | A Short Oddity.wav</property>
  <property name="mlt_service">avformat</property>
  <property name="meta.media.nb_streams">1</property>
  <property name="meta.media.0.stream.type">audio</property>
  <property name="meta.media.0.codec.sample_fmt">s32</property>
  <property name="meta.media.0.codec.sample_rate">44100</property>
  <property name="meta.media.0.codec.channels">2</property>
  <property name="meta.media.0.codec.name">pcm_s24le</property>
  <property name="meta.media.0.codec.long_name">PCM signed 24-bit little-endian</property>
  <property name="meta.media.0.codec.bit_rate">2116800</property>
  <property name="meta.attr.encoded_by.markup">Logic Pro X</property>
  <property name="meta.attr.date.markup">2017-06-15</property>
  <property name="meta.attr.creation_time.markup">15:43:50</property>
  <property name="meta.attr.time_reference.markup">164533091</property>
  <property name="meta.attr.umid.markup">0x000000000000000000000000000000000000000000000000000000002D004DB1F4A48AF980495459FF7F000046A4670701000000B0415459FF7F0000ECAEE6A7</property>
  <property name="seekable">1</property>
  <property name="audio_index">0</property>
  <property name="video_index">-1</property>
  <property name="kdenlive:clipname"/>
  <property name="kdenlive:clip_type">1</property>
  <property name="kdenlive:folderid">290</property>
  <property name="kdenlive:id">292</property>
  <property name="kdenlive:file_size">17801092</property>
  <property name="kdenlive:file_hash">158cc7099bbd31122f09ba9a4e1312df</property>
  <property name="kdenlive:audio_max0">237</property>
 </chain>
 <chain id="chain161" out="00:03:23.600">
  <property name="length">12217</property>
  <property name="eof">pause</property>
  <property name="resource">audio/music/Bodytonic/Are We Loose Yet/variations/Are We Loose Yet | All Piano.wav</property>
  <property name="mlt_service">avformat</property>
  <property name="meta.media.nb_streams">1</property>
  <property name="meta.media.0.stream.type">audio</property>
  <property name="meta.media.0.codec.sample_fmt">s32</property>
  <property name="meta.media.0.codec.sample_rate">44100</property>
  <property name="meta.media.0.codec.channels">2</property>
  <property name="meta.media.0.codec.name">pcm_s24le</property>
  <property name="meta.media.0.codec.long_name">PCM signed 24-bit little-endian</property>
  <property name="meta.media.0.codec.bit_rate">2116800</property>
  <property name="meta.attr.encoded_by.markup">Logic Pro X</property>
  <property name="meta.attr.date.markup">2017-06-15</property>
  <property name="meta.attr.creation_time.markup">15:41:25</property>
  <property name="meta.attr.time_reference.markup">160744500</property>
  <property name="meta.attr.umid.markup">0x000000000000000000000000000000000000000000000000000000002D004DB1F4A48AF980495459FF7F000046A4670701000000B0415459FF7F0000ECAEE6A7</property>
  <property name="seekable">1</property>
  <property name="audio_index">0</property>
  <property name="video_index">-1</property>
  <property name="kdenlive:clipname"/>
  <property name="kdenlive:clip_type">1</property>
  <property name="kdenlive:folderid">290</property>
  <property name="kdenlive:id">293</property>
  <property name="kdenlive:file_size">53878222</property>
  <property name="kdenlive:file_hash">1f1ccfec9a8cb0b6207d5c7b46541454</property>
  <property name="kdenlive:audio_max0">237</property>
 </chain>
 <chain id="chain162" out="00:03:16.350">
  <property name="length">11782</property>
  <property name="eof">pause</property>
  <property name="resource">audio/music/Bodytonic/Are We Loose Yet/variations/Are We Loose Yet | Piano Leader.wav</property>
  <property name="mlt_service">avformat</property>
  <property name="meta.media.nb_streams">1</property>
  <property name="meta.media.0.stream.type">audio</property>
  <property name="meta.media.0.codec.sample_fmt">s32</property>
  <property name="meta.media.0.codec.sample_rate">44100</property>
  <property name="meta.media.0.codec.channels">2</property>
  <property name="meta.media.0.codec.name">pcm_s24le</property>
  <property name="meta.media.0.codec.long_name">PCM signed 24-bit little-endian</property>
  <property name="meta.media.0.codec.bit_rate">2116800</property>
  <property name="meta.attr.encoded_by.markup">Logic Pro X</property>
  <property name="meta.attr.date.markup">2017-06-15</property>
  <property name="meta.attr.creation_time.markup">15:38:17</property>
  <property name="meta.attr.time_reference.markup">160684363</property>
  <property name="meta.attr.umid.markup">0x000000000000000000000000000000000000000000000000000000002D004DB1F4A48AF980495459FF7F000046A4670701000000B0415459FF7F0000ECAEE6A7</property>
  <property name="seekable">1</property>
  <property name="audio_index">0</property>
  <property name="video_index">-1</property>
  <property name="kdenlive:clipname"/>
  <property name="kdenlive:clip_type">1</property>
  <property name="kdenlive:folderid">290</property>
  <property name="kdenlive:id">294</property>
  <property name="kdenlive:file_size">51958552</property>
  <property name="kdenlive:file_hash">4b7f3ed0b3b2cc6ea54aaa885612324e</property>
  <property name="kdenlive:audio_max0">236</property>
 </chain>
 <chain id="chain163" out="00:00:38.167">
  <property name="length">2291</property>
  <property name="eof">pause</property>
  <property name="resource">audio/music/Bodytonic/Are We Loose Yet/variations/Are We Loose Yet | Short Form.wav</property>
  <property name="mlt_service">avformat</property>
  <property name="meta.media.nb_streams">1</property>
  <property name="meta.media.0.stream.type">audio</property>
  <property name="meta.media.0.codec.sample_fmt">s32</property>
  <property name="meta.media.0.codec.sample_rate">44100</property>
  <property name="meta.media.0.codec.channels">2</property>
  <property name="meta.media.0.codec.name">pcm_s24le</property>
  <property name="meta.media.0.codec.long_name">PCM signed 24-bit little-endian</property>
  <property name="meta.media.0.codec.bit_rate">2116800</property>
  <property name="meta.attr.encoded_by.markup">Logic Pro X</property>
  <property name="meta.attr.date.markup">2017-06-15</property>
  <property name="meta.attr.creation_time.markup">15:35:44</property>
  <property name="meta.attr.time_reference.markup">167740363</property>
  <property name="meta.attr.umid.markup">0x000000000000000000000000000000000000000000000000000000002D004DB1F4A48AF980495459FF7F000046A4670701000000B0415459FF7F0000ECAEE6A7</property>
  <property name="seekable">1</property>
  <property name="audio_index">0</property>
  <property name="video_index">-1</property>
  <property name="kdenlive:clipname"/>
  <property name="kdenlive:clip_type">1</property>
  <property name="kdenlive:folderid">290</property>
  <property name="kdenlive:id">295</property>
  <property name="kdenlive:file_size">10103644</property>
  <property name="kdenlive:file_hash">d12ec1f71caaff5e73715488b623ad41</property>
  <property name="kdenlive:audio_max0">232</property>
 </chain>
 <chain id="chain167" out="00:02:43.333">
  <property name="length">9801</property>
  <property name="eof">pause</property>
  <property name="resource">audio/music/Bodytonic/Astrisx/Astrisx.wav</property>
  <property name="mlt_service">avformat</property>
  <property name="meta.media.nb_streams">1</property>
  <property name="meta.media.0.stream.type">audio</property>
  <property name="meta.media.0.codec.sample_fmt">s32</property>
  <property name="meta.media.0.codec.sample_rate">44100</property>
  <property name="meta.media.0.codec.channels">2</property>
  <property name="meta.media.0.codec.name">pcm_s24le</property>
  <property name="meta.media.0.codec.long_name">PCM signed 24-bit little-endian</property>
  <property name="meta.media.0.codec.bit_rate">2116800</property>
  <property name="meta.attr.encoded_by.markup">Logic Pro X</property>
  <property name="meta.attr.date.markup">2017-06-15</property>
  <property name="meta.attr.creation_time.markup">14:52:13</property>
  <property name="meta.attr.time_reference.markup">158760000</property>
  <property name="meta.attr.umid.markup">0x000000000000000000000000000000000000000000000000000000002D004DB1F4A48AF980495459FF7F000046A4670701000000B0415459FF7F0000ECAEE6A7</property>
  <property name="seekable">1</property>
  <property name="audio_index">0</property>
  <property name="video_index">-1</property>
  <property name="kdenlive:clipname"/>
  <property name="kdenlive:clip_type">1</property>
  <property name="kdenlive:folderid">296</property>
  <property name="kdenlive:id">297</property>
  <property name="kdenlive:file_size">43223158</property>
  <property name="kdenlive:file_hash">958b960aedf368e0ab7d1f07c7443d5d</property>
  <property name="kdenlive:audio_max0">246</property>
 </chain>
 <chain id="chain170" out="00:02:40.500">
  <property name="length">9631</property>
  <property name="eof">pause</property>
  <property name="resource">audio/music/Bodytonic/Astrisx/stems/01_Astrisx_Upright Bass.wav</property>
  <property name="mlt_service">avformat</property>
  <property name="meta.media.nb_streams">1</property>
  <property name="meta.media.0.stream.type">audio</property>
  <property name="meta.media.0.codec.sample_fmt">s32</property>
  <property name="meta.media.0.codec.sample_rate">44100</property>
  <property name="meta.media.0.codec.channels">2</property>
  <property name="meta.media.0.codec.name">pcm_s24le</property>
  <property name="meta.media.0.codec.long_name">PCM signed 24-bit little-endian</property>
  <property name="meta.media.0.codec.bit_rate">2116800</property>
  <property name="meta.attr.encoded_by.markup">Logic Pro X</property>
  <property name="meta.attr.date.markup">2017-06-15</property>
  <property name="meta.attr.creation_time.markup">14:54:57</property>
  <property name="meta.attr.time_reference.markup">158760000</property>
  <property name="meta.attr.umid.markup">0x000000000000000000000000000000000000000000000000000000002D004DB1F4A48AF9309C5459FF7F000046A467070100000060945459FF7F0000ECAEE6A7</property>
  <property name="seekable">1</property>
  <property name="audio_index">0</property>
  <property name="video_index">-1</property>
  <property name="kdenlive:clipname"/>
  <property name="kdenlive:clip_type">1</property>
  <property name="kdenlive:folderid">298</property>
  <property name="kdenlive:id">299</property>
  <property name="kdenlive:file_size">42529700</property>
  <property name="kdenlive:file_hash">3782e550821de8ae540f9a6e4de9e3cd</property>
  <property name="kdenlive:audio_max0">196</property>
 </chain>
 <chain id="chain172" out="00:02:39.017">
  <property name="length">9542</property>
  <property name="eof">pause</property>
  <property name="resource">audio/music/Bodytonic/Astrisx/stems/02_Astrisx_Piano.wav</property>
  <property name="mlt_service">avformat</property>
  <property name="meta.media.nb_streams">1</property>
  <property name="meta.media.0.stream.type">audio</property>
  <property name="meta.media.0.codec.sample_fmt">s32</property>
  <property name="meta.media.0.codec.sample_rate">44100</property>
  <property name="meta.media.0.codec.channels">2</property>
  <property name="meta.media.0.codec.name">pcm_s24le</property>
  <property name="meta.media.0.codec.long_name">PCM signed 24-bit little-endian</property>
  <property name="meta.media.0.codec.bit_rate">2116800</property>
  <property name="meta.attr.encoded_by.markup">Logic Pro X</property>
  <property name="meta.attr.date.markup">2017-06-15</property>
  <property name="meta.attr.creation_time.markup">14:55:01</property>
  <property name="meta.attr.time_reference.markup">158760000</property>
  <property name="meta.attr.umid.markup">0x000000000000000000000000000000000000000000000000000000002D004DB1F4A48AF9309C5459FF7F000046A467070100000060945459FF7F0000ECAEE6A7</property>
  <property name="seekable">1</property>
  <property name="audio_index">0</property>
  <property name="video_index">-1</property>
  <property name="kdenlive:clipname"/>
  <property name="kdenlive:clip_type">1</property>
  <property name="kdenlive:folderid">298</property>
  <property name="kdenlive:id">300</property>
  <property name="kdenlive:file_size">42135972</property>
  <property name="kdenlive:file_hash">89404edf9aff1891cc27b9811f505361</property>
  <property name="kdenlive:audio_max0">125</property>
 </chain>
 <chain id="chain175" out="00:02:38.267">
  <property name="length">9497</property>
  <property name="eof">pause</property>
  <property name="resource">audio/music/Bodytonic/Astrisx/stems/03_Astrisx_Marimba.wav</property>
  <property name="mlt_service">avformat</property>
  <property name="meta.media.nb_streams">1</property>
  <property name="meta.media.0.stream.type">audio</property>
  <property name="meta.media.0.codec.sample_fmt">s32</property>
  <property name="meta.media.0.codec.sample_rate">44100</property>
  <property name="meta.media.0.codec.channels">2</property>
  <property name="meta.media.0.codec.name">pcm_s24le</property>
  <property name="meta.media.0.codec.long_name">PCM signed 24-bit little-endian</property>
  <property name="meta.media.0.codec.bit_rate">2116800</property>
  <property name="meta.attr.encoded_by.markup">Logic Pro X</property>
  <property name="meta.attr.date.markup">2017-06-15</property>
  <property name="meta.attr.creation_time.markup">14:55:07</property>
  <property name="meta.attr.time_reference.markup">158760000</property>
  <property name="meta.attr.umid.markup">0x000000000000000000000000000000000000000000000000000000002D004DB1F4A48AF9309C5459FF7F000046A467070100000060945459FF7F0000ECAEE6A7</property>
  <property name="seekable">1</property>
  <property name="audio_index">0</property>
  <property name="video_index">-1</property>
  <property name="kdenlive:clipname"/>
  <property name="kdenlive:clip_type">1</property>
  <property name="kdenlive:folderid">298</property>
  <property name="kdenlive:id">301</property>
  <property name="kdenlive:file_size">41939108</property>
  <property name="kdenlive:file_hash">6cc46d63bd6b1f4319a60f28871c09f7</property>
  <property name="kdenlive:audio_max0">136</property>
 </chain>
 <chain id="chain178" out="00:02:30.100">
  <property name="length">9007</property>
  <property name="eof">pause</property>
  <property name="resource">audio/music/Bodytonic/Astrisx/stems/04_Astrisx_Drum Kit.wav</property>
  <property name="mlt_service">avformat</property>
  <property name="meta.media.nb_streams">1</property>
  <property name="meta.media.0.stream.type">audio</property>
  <property name="meta.media.0.codec.sample_fmt">s32</property>
  <property name="meta.media.0.codec.sample_rate">44100</property>
  <property name="meta.media.0.codec.channels">2</property>
  <property name="meta.media.0.codec.name">pcm_s24le</property>
  <property name="meta.media.0.codec.long_name">PCM signed 24-bit little-endian</property>
  <property name="meta.media.0.codec.bit_rate">2116800</property>
  <property name="meta.attr.encoded_by.markup">Logic Pro X</property>
  <property name="meta.attr.date.markup">2017-06-15</property>
  <property name="meta.attr.creation_time.markup">14:55:04</property>
  <property name="meta.attr.time_reference.markup">158760000</property>
  <property name="meta.attr.umid.markup">0x000000000000000000000000000000000000000000000000000000002D004DB1F4A48AF9309C5459FF7F000046A467070100000060945459FF7F0000ECAEE6A7</property>
  <property name="seekable">1</property>
  <property name="audio_index">0</property>
  <property name="video_index">-1</property>
  <property name="kdenlive:clipname"/>
  <property name="kdenlive:clip_type">1</property>
  <property name="kdenlive:folderid">298</property>
  <property name="kdenlive:id">302</property>
  <property name="kdenlive:file_size">39772306</property>
  <property name="kdenlive:file_hash">8605d609caef15965b847bde099eaa2e</property>
  <property name="kdenlive:audio_max0">159</property>
 </chain>
 <chain id="chain179" out="00:02:30.100">
  <property name="length">9007</property>
  <property name="eof">pause</property>
  <property name="resource">audio/music/Bodytonic/Astrisx/stems/05_Astrisx_Found Percussion.wav</property>
  <property name="mlt_service">avformat</property>
  <property name="meta.media.nb_streams">1</property>
  <property name="meta.media.0.stream.type">audio</property>
  <property name="meta.media.0.codec.sample_fmt">s32</property>
  <property name="meta.media.0.codec.sample_rate">44100</property>
  <property name="meta.media.0.codec.channels">2</property>
  <property name="meta.media.0.codec.name">pcm_s24le</property>
  <property name="meta.media.0.codec.long_name">PCM signed 24-bit little-endian</property>
  <property name="meta.media.0.codec.bit_rate">2116800</property>
  <property name="meta.attr.encoded_by.markup">Logic Pro X</property>
  <property name="meta.attr.date.markup">2017-06-15</property>
  <property name="meta.attr.creation_time.markup">14:54:54</property>
  <property name="meta.attr.time_reference.markup">158760000</property>
  <property name="meta.attr.umid.markup">0x000000000000000000000000000000000000000000000000000000002D004DB1F4A48AF9309C5459FF7F000046A467070100000060945459FF7F0000ECAEE6A7</property>
  <property name="seekable">1</property>
  <property name="audio_index">0</property>
  <property name="video_index">-1</property>
  <property name="kdenlive:clipname"/>
  <property name="kdenlive:clip_type">1</property>
  <property name="kdenlive:folderid">298</property>
  <property name="kdenlive:id">303</property>
  <property name="kdenlive:file_size">39772306</property>
  <property name="kdenlive:file_hash">08867dc4f83cf928c94570cc4402ac22</property>
  <property name="kdenlive:audio_max0">201</property>
 </chain>
 <chain id="chain181" out="00:00:25.067">
  <property name="length">1505</property>
  <property name="eof">pause</property>
  <property name="resource">audio/music/Bodytonic/Astrisx/variations/Astrisx | 30 Sec.wav</property>
  <property name="mlt_service">avformat</property>
  <property name="meta.media.nb_streams">1</property>
  <property name="meta.media.0.stream.type">audio</property>
  <property name="meta.media.0.codec.sample_fmt">s32</property>
  <property name="meta.media.0.codec.sample_rate">44100</property>
  <property name="meta.media.0.codec.channels">2</property>
  <property name="meta.media.0.codec.name">pcm_s24le</property>
  <property name="meta.media.0.codec.long_name">PCM signed 24-bit little-endian</property>
  <property name="meta.media.0.codec.bit_rate">2116800</property>
  <property name="meta.attr.encoded_by.markup">Logic Pro X</property>
  <property name="meta.attr.date.markup">2017-06-15</property>
  <property name="meta.attr.creation_time.markup">15:01:43</property>
  <property name="meta.attr.time_reference.markup">165844138</property>
  <property name="meta.attr.umid.markup">0x000000000000000000000000000000000000000000000000000000002D004DB1F4A48AF980495459FF7F000046A4670701000000B0415459FF7F0000ECAEE6A7</property>
  <property name="seekable">1</property>
  <property name="audio_index">0</property>
  <property name="video_index">-1</property>
  <property name="kdenlive:clipname"/>
  <property name="kdenlive:clip_type">1</property>
  <property name="kdenlive:folderid">304</property>
  <property name="kdenlive:id">305</property>
  <property name="kdenlive:file_size">6641648</property>
  <property name="kdenlive:file_hash">75e1dd0eed7fe8dfceaf415d384f69a5</property>
  <property name="kdenlive:audio_max0">218</property>
 </chain>
 <chain id="chain183" out="00:02:41.583">
  <property name="length">9696</property>
  <property name="eof">pause</property>
  <property name="resource">audio/music/Bodytonic/Astrisx/variations/Astrisx | Alt Start Atmo.wav</property>
  <property name="mlt_service">avformat</property>
  <property name="meta.media.nb_streams">1</property>
  <property name="meta.media.0.stream.type">audio</property>
  <property name="meta.media.0.codec.sample_fmt">s32</property>
  <property name="meta.media.0.codec.sample_rate">44100</property>
  <property name="meta.media.0.codec.channels">2</property>
  <property name="meta.media.0.codec.name">pcm_s24le</property>
  <property name="meta.media.0.codec.long_name">PCM signed 24-bit little-endian</property>
  <property name="meta.media.0.codec.bit_rate">2116800</property>
  <property name="meta.attr.encoded_by.markup">Logic Pro X</property>
  <property name="meta.attr.date.markup">2017-06-15</property>
  <property name="meta.attr.creation_time.markup">14:58:55</property>
  <property name="meta.attr.time_reference.markup">159057675</property>
  <property name="meta.attr.umid.markup">0x000000000000000000000000000000000000000000000000000000002D004DB1F4A48AF980495459FF7F000046A4670701000000B0415459FF7F0000ECAEE6A7</property>
  <property name="seekable">1</property>
  <property name="audio_index">0</property>
  <property name="video_index">-1</property>
  <property name="kdenlive:clipname"/>
  <property name="kdenlive:clip_type">1</property>
  <property name="kdenlive:folderid">304</property>
  <property name="kdenlive:id">306</property>
  <property name="kdenlive:file_size">42760108</property>
  <property name="kdenlive:file_hash">93066d46f02f5aff402e4d33cb70a30f</property>
  <property name="kdenlive:audio_max0">245</property>
 </chain>
 <chain id="chain186" out="00:02:06.450">
  <property name="length">7588</property>
  <property name="eof">pause</property>
  <property name="resource">audio/music/Bodytonic/Astrisx/variations/Astrisx | Alt Take Slower.wav</property>
  <property name="mlt_service">avformat</property>
  <property name="meta.media.nb_streams">1</property>
  <property name="meta.media.0.stream.type">audio</property>
  <property name="meta.media.0.codec.sample_fmt">s32</property>
  <property name="meta.media.0.codec.sample_rate">44100</property>
  <property name="meta.media.0.codec.channels">2</property>
  <property name="meta.media.0.codec.name">pcm_s24le</property>
  <property name="meta.media.0.codec.long_name">PCM signed 24-bit little-endian</property>
  <property name="meta.media.0.codec.bit_rate">2116800</property>
  <property name="meta.attr.encoded_by.markup">Logic Pro X</property>
  <property name="meta.attr.date.markup">2017-06-15</property>
  <property name="meta.attr.creation_time.markup">15:02:46</property>
  <property name="meta.attr.time_reference.markup">162022032</property>
  <property name="meta.attr.umid.markup">0x000000000000000000000000000000000000000000000000000000002D004DB1F4A48AF980495459FF7F000046A4670701000000B0415459FF7F0000ECAEE6A7</property>
  <property name="seekable">1</property>
  <property name="audio_index">0</property>
  <property name="video_index">-1</property>
  <property name="kdenlive:clipname"/>
  <property name="kdenlive:clip_type">1</property>
  <property name="kdenlive:folderid">304</property>
  <property name="kdenlive:id">307</property>
  <property name="kdenlive:file_size">33466268</property>
  <property name="kdenlive:file_hash">017ee05ed0ece03537e35dca9114496e</property>
  <property name="kdenlive:audio_max0">250</property>
 </chain>
 <chain id="chain187" out="00:01:58.583">
  <property name="length">7116</property>
  <property name="eof">pause</property>
  <property name="resource">audio/music/Bodytonic/Astrisx/variations/Astrisx | Minimal.wav</property>
  <property name="mlt_service">avformat</property>
  <property name="meta.media.nb_streams">1</property>
  <property name="meta.media.0.stream.type">audio</property>
  <property name="meta.media.0.codec.sample_fmt">s32</property>
  <property name="meta.media.0.codec.sample_rate">44100</property>
  <property name="meta.media.0.codec.channels">2</property>
  <property name="meta.media.0.codec.name">pcm_s24le</property>
  <property name="meta.media.0.codec.long_name">PCM signed 24-bit little-endian</property>
  <property name="meta.media.0.codec.bit_rate">2116800</property>
  <property name="meta.attr.encoded_by.markup">Logic Pro X</property>
  <property name="meta.attr.date.markup">2017-06-15</property>
  <property name="meta.attr.creation_time.markup">15:04:57</property>
  <property name="meta.attr.time_reference.markup">160843725</property>
  <property name="meta.attr.umid.markup">0x000000000000000000000000000000000000000000000000000000002D004DB1F4A48AF980495459FF7F000046A4670701000000B0415459FF7F0000ECAEE6A7</property>
  <property name="seekable">1</property>
  <property name="audio_index">0</property>
  <property name="video_index">-1</property>
  <property name="kdenlive:clipname"/>
  <property name="kdenlive:clip_type">1</property>
  <property name="kdenlive:folderid">304</property>
  <property name="kdenlive:id">308</property>
  <property name="kdenlive:file_size">31382308</property>
  <property name="kdenlive:file_hash">c7326b99156cbc441826df441f8d9dcd</property>
  <property name="kdenlive:audio_max0">248</property>
 </chain>
 <chain id="chain190" out="00:00:37.583">
  <property name="length">2256</property>
  <property name="eof">pause</property>
  <property name="resource">audio/music/Bodytonic/Astrisx/variations/Astrisx | Short Form.wav</property>
  <property name="mlt_service">avformat</property>
  <property name="meta.media.nb_streams">1</property>
  <property name="meta.media.0.stream.type">audio</property>
  <property name="meta.media.0.codec.sample_fmt">s32</property>
  <property name="meta.media.0.codec.sample_rate">44100</property>
  <property name="meta.media.0.codec.channels">2</property>
  <property name="meta.media.0.codec.name">pcm_s24le</property>
  <property name="meta.media.0.codec.long_name">PCM signed 24-bit little-endian</property>
  <property name="meta.media.0.codec.bit_rate">2116800</property>
  <property name="meta.attr.encoded_by.markup">Logic Pro X</property>
  <property name="meta.attr.date.markup">2017-06-15</property>
  <property name="meta.attr.creation_time.markup">15:00:56</property>
  <property name="meta.attr.time_reference.markup">164415825</property>
  <property name="meta.attr.umid.markup">0x000000000000000000000000000000000000000000000000000000002D004DB1F4A48AF980495459FF7F000046A4670701000000B0415459FF7F0000ECAEE6A7</property>
  <property name="seekable">1</property>
  <property name="audio_index">0</property>
  <property name="video_index">-1</property>
  <property name="kdenlive:clipname"/>
  <property name="kdenlive:clip_type">1</property>
  <property name="kdenlive:folderid">304</property>
  <property name="kdenlive:id">309</property>
  <property name="kdenlive:file_size">9949708</property>
  <property name="kdenlive:file_hash">6135771b1d38f36ac091bb5eefb0bcee</property>
  <property name="kdenlive:audio_max0">228</property>
 </chain>
 <chain id="chain193" out="00:03:05.433">
  <property name="length">11127</property>
  <property name="eof">pause</property>
  <property name="resource">audio/music/Bodytonic/Cases to Rest/Cases to Rest.wav</property>
  <property name="mlt_service">avformat</property>
  <property name="meta.media.nb_streams">1</property>
  <property name="meta.media.0.stream.type">audio</property>
  <property name="meta.media.0.codec.sample_fmt">s32</property>
  <property name="meta.media.0.codec.sample_rate">44100</property>
  <property name="meta.media.0.codec.channels">2</property>
  <property name="meta.media.0.codec.name">pcm_s24le</property>
  <property name="meta.media.0.codec.long_name">PCM signed 24-bit little-endian</property>
  <property name="meta.media.0.codec.bit_rate">2116800</property>
  <property name="meta.attr.encoded_by.markup">Logic Pro X</property>
  <property name="meta.attr.date.markup">2017-07-16</property>
  <property name="meta.attr.creation_time.markup">13:55:21</property>
  <property name="meta.attr.time_reference.markup">158760000</property>
  <property name="meta.attr.umid.markup">0x00000000000000000000000000000000000000000000000000000000EE00CDDB768CEBF380697352FF7F00004684480E01000000B0617352FF7F0000ECEE1AD9</property>
  <property name="seekable">1</property>
  <property name="audio_index">0</property>
  <property name="video_index">-1</property>
  <property name="kdenlive:clipname"/>
  <property name="kdenlive:clip_type">1</property>
  <property name="kdenlive:folderid">310</property>
  <property name="kdenlive:id">311</property>
  <property name="kdenlive:file_size">49072094</property>
  <property name="kdenlive:file_hash">59499b3efe0b0020ff2318ae70d3c5af</property>
  <property name="kdenlive:audio_max0">249</property>
 </chain>
 <chain id="chain196" out="00:02:51.650">
  <property name="length">10300</property>
  <property name="eof">pause</property>
  <property name="resource">audio/music/Bodytonic/Cases to Rest/stems/01_Cases to Rest_Rhodia Syn.wav</property>
  <property name="mlt_service">avformat</property>
  <property name="meta.media.nb_streams">1</property>
  <property name="meta.media.0.stream.type">audio</property>
  <property name="meta.media.0.codec.sample_fmt">s32</property>
  <property name="meta.media.0.codec.sample_rate">44100</property>
  <property name="meta.media.0.codec.channels">2</property>
  <property name="meta.media.0.codec.name">pcm_s24le</property>
  <property name="meta.media.0.codec.long_name">PCM signed 24-bit little-endian</property>
  <property name="meta.media.0.codec.bit_rate">2116800</property>
  <property name="meta.attr.encoded_by.markup">Logic Pro X</property>
  <property name="meta.attr.date.markup">2017-07-16</property>
  <property name="meta.attr.creation_time.markup">13:42:51</property>
  <property name="meta.attr.time_reference.markup">158760000</property>
  <property name="meta.attr.umid.markup">0x00000000000000000000000000000000000000000000000000000000EE00CDDB768CEBF320BC7352FF7F00004684480E0100000050B47352FF7F0000ECEE1AD9</property>
  <property name="seekable">1</property>
  <property name="audio_index">0</property>
  <property name="video_index">-1</property>
  <property name="kdenlive:clipname"/>
  <property name="kdenlive:clip_type">1</property>
  <property name="kdenlive:folderid">312</property>
  <property name="kdenlive:id">313</property>
  <property name="kdenlive:file_size">45480996</property>
  <property name="kdenlive:file_hash">d1293eebda73d06be78662e21a96b1f8</property>
  <property name="kdenlive:audio_max0">100</property>
 </chain>
 <chain id="chain199" out="00:01:32.133">
  <property name="length">5529</property>
  <property name="eof">pause</property>
  <property name="resource">audio/music/Bodytonic/Cases to Rest/stems/02_Cases to Rest_Fjoria Syn.wav</property>
  <property name="mlt_service">avformat</property>
  <property name="meta.media.nb_streams">1</property>
  <property name="meta.media.0.stream.type">audio</property>
  <property name="meta.media.0.codec.sample_fmt">s32</property>
  <property name="meta.media.0.codec.sample_rate">44100</property>
  <property name="meta.media.0.codec.channels">2</property>
  <property name="meta.media.0.codec.name">pcm_s24le</property>
  <property name="meta.media.0.codec.long_name">PCM signed 24-bit little-endian</property>
  <property name="meta.media.0.codec.bit_rate">2116800</property>
  <property name="meta.attr.encoded_by.markup">Logic Pro X</property>
  <property name="meta.attr.date.markup">2017-07-16</property>
  <property name="meta.attr.creation_time.markup">13:42:49</property>
  <property name="meta.attr.time_reference.markup">158760000</property>
  <property name="meta.attr.umid.markup">0x00000000000000000000000000000000000000000000000000000000EE00CDDB768CEBF320BC7352FF7F00004684480E0100000050B47352FF7F0000ECEE1AD9</property>
  <property name="seekable">1</property>
  <property name="audio_index">0</property>
  <property name="video_index">-1</property>
  <property name="kdenlive:clipname"/>
  <property name="kdenlive:clip_type">1</property>
  <property name="kdenlive:folderid">312</property>
  <property name="kdenlive:id">314</property>
  <property name="kdenlive:file_size">24416498</property>
  <property name="kdenlive:file_hash">032366e3e67a0f17c44eddf8393a278a</property>
  <property name="kdenlive:audio_max0">61</property>
 </chain>
 <chain id="chain201" out="00:03:00.567">
  <property name="length">10835</property>
  <property name="eof">pause</property>
  <property name="resource">audio/music/Bodytonic/Cases to Rest/stems/03_Cases to Rest_Upright Bass.wav</property>
  <property name="mlt_service">avformat</property>
  <property name="meta.media.nb_streams">1</property>
  <property name="meta.media.0.stream.type">audio</property>
  <property name="meta.media.0.codec.sample_fmt">s32</property>
  <property name="meta.media.0.codec.sample_rate">44100</property>
  <property name="meta.media.0.codec.channels">2</property>
  <property name="meta.media.0.codec.name">pcm_s24le</property>
  <property name="meta.media.0.codec.long_name">PCM signed 24-bit little-endian</property>
  <property name="meta.media.0.codec.bit_rate">2116800</property>
  <property name="meta.attr.encoded_by.markup">Logic Pro X</property>
  <property name="meta.attr.date.markup">2017-07-16</property>
  <property name="meta.attr.creation_time.markup">13:42:45</property>
  <property name="meta.attr.time_reference.markup">158760000</property>
  <property name="meta.attr.umid.markup">0x00000000000000000000000000000000000000000000000000000000EE00CDDB768CEBF320BC7352FF7F00004684480E0100000050B47352FF7F0000ECEE1AD9</property>
  <property name="seekable">1</property>
  <property name="audio_index">0</property>
  <property name="video_index">-1</property>
  <property name="kdenlive:clipname"/>
  <property name="kdenlive:clip_type">1</property>
  <property name="kdenlive:folderid">312</property>
  <property name="kdenlive:id">315</property>
  <property name="kdenlive:file_size">47843364</property>
  <property name="kdenlive:file_hash">ca46ff5c3acdbafb275c3909bf0a586f</property>
  <property name="kdenlive:audio_max0">220</property>
 </chain>
 <chain id="chain202" out="00:02:59.067">
  <property name="length">10745</property>
  <property name="eof">pause</property>
  <property name="resource">audio/music/Bodytonic/Cases to Rest/stems/04_Cases to Rest_Piano.wav</property>
  <property name="mlt_service">avformat</property>
  <property name="meta.media.nb_streams">1</property>
  <property name="meta.media.0.stream.type">audio</property>
  <property name="meta.media.0.codec.sample_fmt">s32</property>
  <property name="meta.media.0.codec.sample_rate">44100</property>
  <property name="meta.media.0.codec.channels">2</property>
  <property name="meta.media.0.codec.name">pcm_s24le</property>
  <property name="meta.media.0.codec.long_name">PCM signed 24-bit little-endian</property>
  <property name="meta.media.0.codec.bit_rate">2116800</property>
  <property name="meta.attr.encoded_by.markup">Logic Pro X</property>
  <property name="meta.attr.date.markup">2017-07-16</property>
  <property name="meta.attr.creation_time.markup">13:42:55</property>
  <property name="meta.attr.time_reference.markup">158760000</property>
  <property name="meta.attr.umid.markup">0x00000000000000000000000000000000000000000000000000000000EE00CDDB768CEBF320BC7352FF7F00004684480E0100000050B47352FF7F0000ECEE1AD9</property>
  <property name="seekable">1</property>
  <property name="audio_index">0</property>
  <property name="video_index">-1</property>
  <property name="kdenlive:clipname"/>
  <property name="kdenlive:clip_type">1</property>
  <property name="kdenlive:folderid">312</property>
  <property name="kdenlive:id">316</property>
  <property name="kdenlive:file_size">47449636</property>
  <property name="kdenlive:file_hash">4950ab6378c48baca0aa485d5d0c065f</property>
  <property name="kdenlive:audio_max0">168</property>
 </chain>
 <chain id="chain205" out="00:02:56.850">
  <property name="length">10612</property>
  <property name="eof">pause</property>
  <property name="resource">audio/music/Bodytonic/Cases to Rest/stems/05_Cases to Rest_Marimba.wav</property>
  <property name="mlt_service">avformat</property>
  <property name="meta.media.nb_streams">1</property>
  <property name="meta.media.0.stream.type">audio</property>
  <property name="meta.media.0.codec.sample_fmt">s32</property>
  <property name="meta.media.0.codec.sample_rate">44100</property>
  <property name="meta.media.0.codec.channels">2</property>
  <property name="meta.media.0.codec.name">pcm_s24le</property>
  <property name="meta.media.0.codec.long_name">PCM signed 24-bit little-endian</property>
  <property name="meta.media.0.codec.bit_rate">2116800</property>
  <property name="meta.attr.encoded_by.markup">Logic Pro X</property>
  <property name="meta.attr.date.markup">2017-07-16</property>
  <property name="meta.attr.creation_time.markup">13:43:03</property>
  <property name="meta.attr.time_reference.markup">158760000</property>
  <property name="meta.attr.umid.markup">0x00000000000000000000000000000000000000000000000000000000EE00CDDB768CEBF320BC7352FF7F00004684480E0100000050B47352FF7F0000ECEE1AD9</property>
  <property name="seekable">1</property>
  <property name="audio_index">0</property>
  <property name="video_index">-1</property>
  <property name="kdenlive:clipname"/>
  <property name="kdenlive:clip_type">1</property>
  <property name="kdenlive:folderid">312</property>
  <property name="kdenlive:id">317</property>
  <property name="kdenlive:file_size">46859044</property>
  <property name="kdenlive:file_hash">18fe19d98ccc48eacb21f8d681940c25</property>
  <property name="kdenlive:audio_max0">186</property>
 </chain>
 <chain id="chain207" out="00:02:48.667">
  <property name="length">10121</property>
  <property name="eof">pause</property>
  <property name="resource">audio/music/Bodytonic/Cases to Rest/stems/06_Cases to Rest_Drum Kit.wav</property>
  <property name="mlt_service">avformat</property>
  <property name="meta.media.nb_streams">1</property>
  <property name="meta.media.0.stream.type">audio</property>
  <property name="meta.media.0.codec.sample_fmt">s32</property>
  <property name="meta.media.0.codec.sample_rate">44100</property>
  <property name="meta.media.0.codec.channels">2</property>
  <property name="meta.media.0.codec.name">pcm_s24le</property>
  <property name="meta.media.0.codec.long_name">PCM signed 24-bit little-endian</property>
  <property name="meta.media.0.codec.bit_rate">2116800</property>
  <property name="meta.attr.encoded_by.markup">Logic Pro X</property>
  <property name="meta.attr.date.markup">2017-07-16</property>
  <property name="meta.attr.creation_time.markup">13:42:59</property>
  <property name="meta.attr.time_reference.markup">158760000</property>
  <property name="meta.attr.umid.markup">0x00000000000000000000000000000000000000000000000000000000EE00CDDB768CEBF320BC7352FF7F00004684480E0100000050B47352FF7F0000ECEE1AD9</property>
  <property name="seekable">1</property>
  <property name="audio_index">0</property>
  <property name="video_index">-1</property>
  <property name="kdenlive:clipname"/>
  <property name="kdenlive:clip_type">1</property>
  <property name="kdenlive:folderid">312</property>
  <property name="kdenlive:id">318</property>
  <property name="kdenlive:file_size">44693540</property>
  <property name="kdenlive:file_hash">f3ee4c477522f02ff3945124501f54be</property>
  <property name="kdenlive:audio_max0">169</property>
 </chain>
 <chain id="chain209" out="00:02:50.150">
  <property name="length">10210</property>
  <property name="eof">pause</property>
  <property name="resource">audio/music/Bodytonic/Cases to Rest/stems/07_Cases to Rest_Found Percussion.wav</property>
  <property name="mlt_service">avformat</property>
  <property name="meta.media.nb_streams">1</property>
  <property name="meta.media.0.stream.type">audio</property>
  <property name="meta.media.0.codec.sample_fmt">s32</property>
  <property name="meta.media.0.codec.sample_rate">44100</property>
  <property name="meta.media.0.codec.channels">2</property>
  <property name="meta.media.0.codec.name">pcm_s24le</property>
  <property name="meta.media.0.codec.long_name">PCM signed 24-bit little-endian</property>
  <property name="meta.media.0.codec.bit_rate">2116800</property>
  <property name="meta.attr.encoded_by.markup">Logic Pro X</property>
  <property name="meta.attr.date.markup">2017-07-16</property>
  <property name="meta.attr.creation_time.markup">13:42:40</property>
  <property name="meta.attr.time_reference.markup">158760000</property>
  <property name="meta.attr.umid.markup">0x00000000000000000000000000000000000000000000000000000000EE00CDDB768CEBF320BC7352FF7F00004684480E0100000050B47352FF7F0000ECEE1AD9</property>
  <property name="seekable">1</property>
  <property name="audio_index">0</property>
  <property name="video_index">-1</property>
  <property name="kdenlive:clipname"/>
  <property name="kdenlive:clip_type">1</property>
  <property name="kdenlive:folderid">312</property>
  <property name="kdenlive:id">319</property>
  <property name="kdenlive:file_size">45087268</property>
  <property name="kdenlive:file_hash">c1ac4c902c71ccb126f83188619852b8</property>
  <property name="kdenlive:audio_max0">160</property>
 </chain>
 <chain id="chain210" out="00:00:38.167">
  <property name="length">2291</property>
  <property name="eof">pause</property>
  <property name="resource">audio/music/Bodytonic/Cases to Rest/variations/Cases to Rest | 30 Sec.wav</property>
  <property name="mlt_service">avformat</property>
  <property name="meta.media.nb_streams">1</property>
  <property name="meta.media.0.stream.type">audio</property>
  <property name="meta.media.0.codec.sample_fmt">s32</property>
  <property name="meta.media.0.codec.sample_rate">44100</property>
  <property name="meta.media.0.codec.channels">2</property>
  <property name="meta.media.0.codec.name">pcm_s24le</property>
  <property name="meta.media.0.codec.long_name">PCM signed 24-bit little-endian</property>
  <property name="meta.media.0.codec.bit_rate">2116800</property>
  <property name="meta.attr.encoded_by.markup">Logic Pro X</property>
  <property name="meta.attr.date.markup">2017-07-16</property>
  <property name="meta.attr.creation_time.markup">14:00:42</property>
  <property name="meta.attr.time_reference.markup">162207818</property>
  <property name="meta.attr.umid.markup">0x00000000000000000000000000000000000000000000000000000000EE00CDDB768CEBF380697352FF7F00004684480E01000000B0617352FF7F0000ECEE1AD9</property>
  <property name="seekable">1</property>
  <property name="audio_index">0</property>
  <property name="video_index">-1</property>
  <property name="kdenlive:clipname"/>
  <property name="kdenlive:clip_type">1</property>
  <property name="kdenlive:folderid">320</property>
  <property name="kdenlive:id">321</property>
  <property name="kdenlive:file_size">10103688</property>
  <property name="kdenlive:file_hash">a322b0ab2c8327491109ae45010b55b0</property>
  <property name="kdenlive:audio_max0">239</property>
 </chain>
 <chain id="chain213" out="00:01:50.900">
  <property name="length">6655</property>
  <property name="eof">pause</property>
  <property name="resource">audio/music/Bodytonic/Cases to Rest/variations/Cases to Rest | Direct Start.wav</property>
  <property name="mlt_service">avformat</property>
  <property name="meta.media.nb_streams">1</property>
  <property name="meta.media.0.stream.type">audio</property>
  <property name="meta.media.0.codec.sample_fmt">s32</property>
  <property name="meta.media.0.codec.sample_rate">44100</property>
  <property name="meta.media.0.codec.channels">2</property>
  <property name="meta.media.0.codec.name">pcm_s24le</property>
  <property name="meta.media.0.codec.long_name">PCM signed 24-bit little-endian</property>
  <property name="meta.media.0.codec.bit_rate">2116800</property>
  <property name="meta.attr.encoded_by.markup">Logic Pro X</property>
  <property name="meta.attr.date.markup">2017-07-16</property>
  <property name="meta.attr.creation_time.markup">14:05:23</property>
  <property name="meta.attr.time_reference.markup">162207818</property>
  <property name="meta.attr.umid.markup">0x00000000000000000000000000000000000000000000000000000000EE00CDDB768CEBF380697352FF7F00004684480E01000000B0617352FF7F0000ECEE1AD9</property>
  <property name="seekable">1</property>
  <property name="audio_index">0</property>
  <property name="video_index">-1</property>
  <property name="kdenlive:clipname"/>
  <property name="kdenlive:clip_type">1</property>
  <property name="kdenlive:folderid">320</property>
  <property name="kdenlive:id">322</property>
  <property name="kdenlive:file_size">29347276</property>
  <property name="kdenlive:file_hash">0d7bf681287144acccfccea88c5189e6</property>
  <property name="kdenlive:audio_max0">246</property>
 </chain>
 <chain id="chain216" out="00:02:25.433">
  <property name="length">8727</property>
  <property name="eof">pause</property>
  <property name="resource">audio/music/Bodytonic/Cases to Rest/variations/Cases to Rest | Minimal Piano.wav</property>
  <property name="mlt_service">avformat</property>
  <property name="meta.media.nb_streams">1</property>
  <property name="meta.media.0.stream.type">audio</property>
  <property name="meta.media.0.codec.sample_fmt">s32</property>
  <property name="meta.media.0.codec.sample_rate">44100</property>
  <property name="meta.media.0.codec.channels">2</property>
  <property name="meta.media.0.codec.name">pcm_s24le</property>
  <property name="meta.media.0.codec.long_name">PCM signed 24-bit little-endian</property>
  <property name="meta.media.0.codec.bit_rate">2116800</property>
  <property name="meta.attr.encoded_by.markup">Logic Pro X</property>
  <property name="meta.attr.date.markup">2017-07-16</property>
  <property name="meta.attr.creation_time.markup">14:02:12</property>
  <property name="meta.attr.time_reference.markup">160684363</property>
  <property name="meta.attr.umid.markup">0x00000000000000000000000000000000000000000000000000000000EE00CDDB768CEBF380697352FF7F00004684480E01000000B0617352FF7F0000ECEE1AD9</property>
  <property name="seekable">1</property>
  <property name="audio_index">0</property>
  <property name="video_index">-1</property>
  <property name="kdenlive:clipname"/>
  <property name="kdenlive:clip_type">1</property>
  <property name="kdenlive:folderid">320</property>
  <property name="kdenlive:id">323</property>
  <property name="kdenlive:file_size">38488094</property>
  <property name="kdenlive:file_hash">b9c9961eb0f7cd3d102dff99417250e2</property>
  <property name="kdenlive:audio_max0">246</property>
 </chain>
 <chain id="chain217" out="00:01:57.100">
  <property name="length">7027</property>
  <property name="eof">pause</property>
  <property name="resource">audio/music/Bodytonic/Cases to Rest/variations/Cases to Rest | Minimal.wav</property>
  <property name="mlt_service">avformat</property>
  <property name="meta.media.nb_streams">1</property>
  <property name="meta.media.0.stream.type">audio</property>
  <property name="meta.media.0.codec.sample_fmt">s32</property>
  <property name="meta.media.0.codec.sample_rate">44100</property>
  <property name="meta.media.0.codec.channels">2</property>
  <property name="meta.media.0.codec.name">pcm_s24le</property>
  <property name="meta.media.0.codec.long_name">PCM signed 24-bit little-endian</property>
  <property name="meta.media.0.codec.bit_rate">2116800</property>
  <property name="meta.attr.encoded_by.markup">Logic Pro X</property>
  <property name="meta.attr.date.markup">2017-07-16</property>
  <property name="meta.attr.creation_time.markup">14:04:27</property>
  <property name="meta.attr.time_reference.markup">162400896</property>
  <property name="meta.attr.umid.markup">0x00000000000000000000000000000000000000000000000000000000EE00CDDB768CEBF380697352FF7F00004684480E01000000B0617352FF7F0000ECEE1AD9</property>
  <property name="seekable">1</property>
  <property name="audio_index">0</property>
  <property name="video_index">-1</property>
  <property name="kdenlive:clipname"/>
  <property name="kdenlive:clip_type">1</property>
  <property name="kdenlive:folderid">320</property>
  <property name="kdenlive:id">324</property>
  <property name="kdenlive:file_size">30990682</property>
  <property name="kdenlive:file_hash">4ebd70173f0f73db9d9a0b0812924d67</property>
  <property name="kdenlive:audio_max0">246</property>
 </chain>
 <chain id="chain220" out="00:00:47.250">
  <property name="length">2836</property>
  <property name="eof">pause</property>
  <property name="resource">audio/music/Bodytonic/Cases to Rest/variations/Cases to Rest | Short Minimal.wav</property>
  <property name="mlt_service">avformat</property>
  <property name="meta.media.nb_streams">1</property>
  <property name="meta.media.0.stream.type">audio</property>
  <property name="meta.media.0.codec.sample_fmt">s32</property>
  <property name="meta.media.0.codec.sample_rate">44100</property>
  <property name="meta.media.0.codec.channels">2</property>
  <property name="meta.media.0.codec.name">pcm_s24le</property>
  <property name="meta.media.0.codec.long_name">PCM signed 24-bit little-endian</property>
  <property name="meta.media.0.codec.bit_rate">2116800</property>
  <property name="meta.attr.encoded_by.markup">Logic Pro X</property>
  <property name="meta.attr.date.markup">2017-07-16</property>
  <property name="meta.attr.creation_time.markup">13:58:45</property>
  <property name="meta.attr.time_reference.markup">164773636</property>
  <property name="meta.attr.umid.markup">0x00000000000000000000000000000000000000000000000000000000EE00CDDB768CEBF380697352FF7F00004684480E01000000B0617352FF7F0000ECEE1AD9</property>
  <property name="seekable">1</property>
  <property name="audio_index">0</property>
  <property name="video_index">-1</property>
  <property name="kdenlive:clipname"/>
  <property name="kdenlive:clip_type">1</property>
  <property name="kdenlive:folderid">320</property>
  <property name="kdenlive:id">325</property>
  <property name="kdenlive:file_size">12509186</property>
  <property name="kdenlive:file_hash">297c578554dc2fdf1cf066c678083cff</property>
  <property name="kdenlive:audio_max0">247</property>
 </chain>
 <chain id="chain221" out="00:00:47.250">
  <property name="length">2836</property>
  <property name="eof">pause</property>
  <property name="resource">audio/music/Bodytonic/Cases to Rest/variations/Cases to Rest | Short.wav</property>
  <property name="mlt_service">avformat</property>
  <property name="meta.media.nb_streams">1</property>
  <property name="meta.media.0.stream.type">audio</property>
  <property name="meta.media.0.codec.sample_fmt">s32</property>
  <property name="meta.media.0.codec.sample_rate">44100</property>
  <property name="meta.media.0.codec.channels">2</property>
  <property name="meta.media.0.codec.name">pcm_s24le</property>
  <property name="meta.media.0.codec.long_name">PCM signed 24-bit little-endian</property>
  <property name="meta.media.0.codec.bit_rate">2116800</property>
  <property name="meta.attr.encoded_by.markup">Logic Pro X</property>
  <property name="meta.attr.date.markup">2017-07-16</property>
  <property name="meta.attr.creation_time.markup">13:58:10</property>
  <property name="meta.attr.time_reference.markup">164773636</property>
  <property name="meta.attr.umid.markup">0x00000000000000000000000000000000000000000000000000000000EE00CDDB768CEBF380697352FF7F00004684480E01000000B0617352FF7F0000ECEE1AD9</property>
  <property name="seekable">1</property>
  <property name="audio_index">0</property>
  <property name="video_index">-1</property>
  <property name="kdenlive:clipname"/>
  <property name="kdenlive:clip_type">1</property>
  <property name="kdenlive:folderid">320</property>
  <property name="kdenlive:id">326</property>
  <property name="kdenlive:file_size">12509186</property>
  <property name="kdenlive:file_hash">67ca2778559b81bb3a356258761fde29</property>
  <property name="kdenlive:audio_max0">244</property>
 </chain>
 <chain id="chain222" out="00:01:51.950">
  <property name="length">6718</property>
  <property name="eof">pause</property>
  <property name="resource">audio/music/Bodytonic/Inamorata/Inamorata.wav</property>
  <property name="mlt_service">avformat</property>
  <property name="meta.media.nb_streams">1</property>
  <property name="meta.media.0.stream.type">audio</property>
  <property name="meta.media.0.codec.sample_fmt">s32</property>
  <property name="meta.media.0.codec.sample_rate">44100</property>
  <property name="meta.media.0.codec.channels">2</property>
  <property name="meta.media.0.codec.name">pcm_s24le</property>
  <property name="meta.media.0.codec.long_name">PCM signed 24-bit little-endian</property>
  <property name="meta.media.0.codec.bit_rate">2116800</property>
  <property name="meta.attr.encoded_by.markup">Logic Pro X</property>
  <property name="meta.attr.date.markup">2017-06-07</property>
  <property name="meta.attr.creation_time.markup">13:23:22</property>
  <property name="meta.attr.time_reference.markup">158760000</property>
  <property name="meta.attr.umid.markup">0x00000000000000000000000000000000000000000000000000000000440089C0936A1F5780E96459FF7F00004604570701000000B0E16459FF7F0000ECFE8894</property>
  <property name="seekable">1</property>
  <property name="audio_index">0</property>
  <property name="video_index">-1</property>
  <property name="kdenlive:clipname"/>
  <property name="kdenlive:clip_type">1</property>
  <property name="kdenlive:folderid">327</property>
  <property name="kdenlive:id">328</property>
  <property name="kdenlive:file_size">29626480</property>
  <property name="kdenlive:file_hash">496d5a808d49edd0083f73aebbc44f9b</property>
  <property name="kdenlive:audio_max0">233</property>
 </chain>
 <chain id="chain225" out="00:01:47.733">
  <property name="length">6465</property>
  <property name="eof">pause</property>
  <property name="resource">audio/music/Bodytonic/Inamorata/stems/01_Inamorata_Piano.wav</property>
  <property name="mlt_service">avformat</property>
  <property name="meta.media.nb_streams">1</property>
  <property name="meta.media.0.stream.type">audio</property>
  <property name="meta.media.0.codec.sample_fmt">s32</property>
  <property name="meta.media.0.codec.sample_rate">44100</property>
  <property name="meta.media.0.codec.channels">2</property>
  <property name="meta.media.0.codec.name">pcm_s24le</property>
  <property name="meta.media.0.codec.long_name">PCM signed 24-bit little-endian</property>
  <property name="meta.media.0.codec.bit_rate">2116800</property>
  <property name="meta.attr.encoded_by.markup">Logic Pro X</property>
  <property name="meta.attr.date.markup">2017-06-07</property>
  <property name="meta.attr.creation_time.markup">13:24:22</property>
  <property name="meta.attr.time_reference.markup">158760000</property>
  <property name="meta.attr.umid.markup">0x00000000000000000000000000000000000000000000000000000000440089C0936A1F57303C6559FF7F0000460457070100000060346559FF7F0000ECFE8894</property>
  <property name="seekable">1</property>
  <property name="audio_index">0</property>
  <property name="video_index">-1</property>
  <property name="kdenlive:clipname"/>
  <property name="kdenlive:clip_type">1</property>
  <property name="kdenlive:folderid">329</property>
  <property name="kdenlive:id">330</property>
  <property name="kdenlive:file_size">28550592</property>
  <property name="kdenlive:file_hash">c6ea8b15dc91ed5224b5983cf7406467</property>
  <property name="kdenlive:audio_max0">110</property>
 </chain>
 <chain id="chain228" out="00:01:41.800">
  <property name="length">6109</property>
  <property name="eof">pause</property>
  <property name="resource">audio/music/Bodytonic/Inamorata/stems/02_Inamorata_Fjoria Syn.wav</property>
  <property name="mlt_service">avformat</property>
  <property name="meta.media.nb_streams">1</property>
  <property name="meta.media.0.stream.type">audio</property>
  <property name="meta.media.0.codec.sample_fmt">s32</property>
  <property name="meta.media.0.codec.sample_rate">44100</property>
  <property name="meta.media.0.codec.channels">2</property>
  <property name="meta.media.0.codec.name">pcm_s24le</property>
  <property name="meta.media.0.codec.long_name">PCM signed 24-bit little-endian</property>
  <property name="meta.media.0.codec.bit_rate">2116800</property>
  <property name="meta.attr.encoded_by.markup">Logic Pro X</property>
  <property name="meta.attr.date.markup">2017-06-07</property>
  <property name="meta.attr.creation_time.markup">13:24:20</property>
  <property name="meta.attr.time_reference.markup">158760000</property>
  <property name="meta.attr.umid.markup">0x00000000000000000000000000000000000000000000000000000000440089C0936A1F57303C6559FF7F0000460457070100000060346559FF7F0000ECFE8894</property>
  <property name="seekable">1</property>
  <property name="audio_index">0</property>
  <property name="video_index">-1</property>
  <property name="kdenlive:clipname"/>
  <property name="kdenlive:clip_type">1</property>
  <property name="kdenlive:folderid">329</property>
  <property name="kdenlive:id">331</property>
  <property name="kdenlive:file_size">26975680</property>
  <property name="kdenlive:file_hash">7bb784665d9e050435e4465c197b1c82</property>
  <property name="kdenlive:audio_max0">85</property>
 </chain>
 <chain id="chain231" out="00:01:45.517">
  <property name="length">6332</property>
  <property name="eof">pause</property>
  <property name="resource">audio/music/Bodytonic/Inamorata/stems/03_Inamorata_Marimba.wav</property>
  <property name="mlt_service">avformat</property>
  <property name="meta.media.nb_streams">1</property>
  <property name="meta.media.0.stream.type">audio</property>
  <property name="meta.media.0.codec.sample_fmt">s32</property>
  <property name="meta.media.0.codec.sample_rate">44100</property>
  <property name="meta.media.0.codec.channels">2</property>
  <property name="meta.media.0.codec.name">pcm_s24le</property>
  <property name="meta.media.0.codec.long_name">PCM signed 24-bit little-endian</property>
  <property name="meta.media.0.codec.bit_rate">2116800</property>
  <property name="meta.attr.encoded_by.markup">Logic Pro X</property>
  <property name="meta.attr.date.markup">2017-06-07</property>
  <property name="meta.attr.creation_time.markup">13:24:24</property>
  <property name="meta.attr.time_reference.markup">158760000</property>
  <property name="meta.attr.umid.markup">0x00000000000000000000000000000000000000000000000000000000440089C0936A1F57303C6559FF7F0000460457070100000060346559FF7F0000ECFE8894</property>
  <property name="seekable">1</property>
  <property name="audio_index">0</property>
  <property name="video_index">-1</property>
  <property name="kdenlive:clipname"/>
  <property name="kdenlive:clip_type">1</property>
  <property name="kdenlive:folderid">329</property>
  <property name="kdenlive:id">332</property>
  <property name="kdenlive:file_size">27960000</property>
  <property name="kdenlive:file_hash">a9ab57099824bf8f9922c4f7d35fa4b3</property>
  <property name="kdenlive:audio_max0">132</property>
 </chain>
 <chain id="chain235" out="00:00:57.833">
  <property name="length">3471</property>
  <property name="eof">pause</property>
  <property name="resource">audio/music/Bodytonic/Inamorata/variations/Inamorata | 1 Min.wav</property>
  <property name="mlt_service">avformat</property>
  <property name="meta.media.nb_streams">1</property>
  <property name="meta.media.0.stream.type">audio</property>
  <property name="meta.media.0.codec.sample_fmt">s32</property>
  <property name="meta.media.0.codec.sample_rate">44100</property>
  <property name="meta.media.0.codec.channels">2</property>
  <property name="meta.media.0.codec.name">pcm_s24le</property>
  <property name="meta.media.0.codec.long_name">PCM signed 24-bit little-endian</property>
  <property name="meta.media.0.codec.bit_rate">2116800</property>
  <property name="meta.attr.encoded_by.markup">Logic Pro X</property>
  <property name="meta.attr.date.markup">2017-06-07</property>
  <property name="meta.attr.creation_time.markup">13:25:16</property>
  <property name="meta.attr.time_reference.markup">161028000</property>
  <property name="meta.attr.umid.markup">0x00000000000000000000000000000000000000000000000000000000440089C0936A1F5780E96459FF7F00004604570701000000B0E16459FF7F0000ECFE8894</property>
  <property name="seekable">1</property>
  <property name="audio_index">0</property>
  <property name="video_index">-1</property>
  <property name="kdenlive:clipname"/>
  <property name="kdenlive:clip_type">1</property>
  <property name="kdenlive:folderid">333</property>
  <property name="kdenlive:id">334</property>
  <property name="kdenlive:file_size">15309730</property>
  <property name="kdenlive:file_hash">4281c949fb4bd477ca78a636cd7c7fd2</property>
  <property name="kdenlive:audio_max0">232</property>
 </chain>
 <chain id="chain236" out="00:00:57.833">
  <property name="length">3471</property>
  <property name="eof">pause</property>
  <property name="resource">audio/music/Bodytonic/Inamorata/variations/Inamorata | Marimba Solo.wav</property>
  <property name="mlt_service">avformat</property>
  <property name="meta.media.nb_streams">1</property>
  <property name="meta.media.0.stream.type">audio</property>
  <property name="meta.media.0.codec.sample_fmt">s32</property>
  <property name="meta.media.0.codec.sample_rate">44100</property>
  <property name="meta.media.0.codec.channels">2</property>
  <property name="meta.media.0.codec.name">pcm_s24le</property>
  <property name="meta.media.0.codec.long_name">PCM signed 24-bit little-endian</property>
  <property name="meta.media.0.codec.bit_rate">2116800</property>
  <property name="meta.attr.encoded_by.markup">Logic Pro X</property>
  <property name="meta.attr.date.markup">2017-06-07</property>
  <property name="meta.attr.creation_time.markup">13:24:51</property>
  <property name="meta.attr.time_reference.markup">161028000</property>
  <property name="meta.attr.umid.markup">0x00000000000000000000000000000000000000000000000000000000440089C0936A1F5780E96459FF7F00004604570701000000B0E16459FF7F0000ECFE8894</property>
  <property name="seekable">1</property>
  <property name="audio_index">0</property>
  <property name="video_index">-1</property>
  <property name="kdenlive:clipname"/>
  <property name="kdenlive:clip_type">1</property>
  <property name="kdenlive:folderid">333</property>
  <property name="kdenlive:id">335</property>
  <property name="kdenlive:file_size">15309730</property>
  <property name="kdenlive:file_hash">bab609f1b9b8eea2af046c267a8c8cd7</property>
  <property name="kdenlive:audio_max0">228</property>
 </chain>
 <chain id="chain238" out="00:01:51.417">
  <property name="length">6686</property>
  <property name="eof">pause</property>
  <property name="resource">audio/music/Bodytonic/Inamorata/variations/Inamorata | Piano Feature.wav</property>
  <property name="mlt_service">avformat</property>
  <property name="meta.media.nb_streams">1</property>
  <property name="meta.media.0.stream.type">audio</property>
  <property name="meta.media.0.codec.sample_fmt">s32</property>
  <property name="meta.media.0.codec.sample_rate">44100</property>
  <property name="meta.media.0.codec.channels">2</property>
  <property name="meta.media.0.codec.name">pcm_s24le</property>
  <property name="meta.media.0.codec.long_name">PCM signed 24-bit little-endian</property>
  <property name="meta.media.0.codec.bit_rate">2116800</property>
  <property name="meta.attr.encoded_by.markup">Logic Pro X</property>
  <property name="meta.attr.date.markup">2017-06-07</property>
  <property name="meta.attr.creation_time.markup">13:26:23</property>
  <property name="meta.attr.time_reference.markup">158760000</property>
  <property name="meta.attr.umid.markup">0x00000000000000000000000000000000000000000000000000000000440089C0936A1F5780E96459FF7F00004604570701000000B0E16459FF7F0000ECFE8894</property>
  <property name="seekable">1</property>
  <property name="audio_index">0</property>
  <property name="video_index">-1</property>
  <property name="kdenlive:clipname"/>
  <property name="kdenlive:clip_type">1</property>
  <property name="kdenlive:folderid">333</property>
  <property name="kdenlive:id">336</property>
  <property name="kdenlive:file_size">29484730</property>
  <property name="kdenlive:file_hash">817b05b9d285353e042ad50a3bedd65d</property>
  <property name="kdenlive:audio_max0">231</property>
 </chain>
 <chain id="chain241" out="00:02:29.933">
  <property name="length">8997</property>
  <property name="eof">pause</property>
  <property name="resource">audio/music/Bodytonic/Mind Body Mind/Mind Body Mind.wav</property>
  <property name="mlt_service">avformat</property>
  <property name="meta.media.nb_streams">1</property>
  <property name="meta.media.0.stream.type">audio</property>
  <property name="meta.media.0.codec.sample_fmt">s32</property>
  <property name="meta.media.0.codec.sample_rate">44100</property>
  <property name="meta.media.0.codec.channels">2</property>
  <property name="meta.media.0.codec.name">pcm_s24le</property>
  <property name="meta.media.0.codec.long_name">PCM signed 24-bit little-endian</property>
  <property name="meta.media.0.codec.bit_rate">2116800</property>
  <property name="meta.attr.encoded_by.markup">Logic Pro X</property>
  <property name="meta.attr.date.markup">2017-12-09</property>
  <property name="meta.attr.creation_time.markup">10:02:14</property>
  <property name="meta.attr.time_reference.markup">158830159</property>
  <property name="meta.attr.umid.markup">0x00000000000000000000000000000000000000000000000000000000BA0080B7DE3D537A80695E58FF7F000046845D0801000000B0615E58FF7F0000ECAE5EC2</property>
  <property name="seekable">1</property>
  <property name="audio_index">0</property>
  <property name="video_index">-1</property>
  <property name="kdenlive:clipname"/>
  <property name="kdenlive:clip_type">1</property>
  <property name="kdenlive:folderid">337</property>
  <property name="kdenlive:id">338</property>
  <property name="kdenlive:file_size">39678426</property>
  <property name="kdenlive:file_hash">2d1e67f6411504d1d0ba1ced870ec9e8</property>
  <property name="kdenlive:audio_max0">249</property>
 </chain>
 <chain id="chain244" out="00:00:47.883">
  <property name="length">2874</property>
  <property name="eof">pause</property>
  <property name="resource">audio/music/Bodytonic/Mind Body Mind/variations/Mind Body Mind | 1 Min.wav</property>
  <property name="mlt_service">avformat</property>
  <property name="meta.media.nb_streams">1</property>
  <property name="meta.media.0.stream.type">audio</property>
  <property name="meta.media.0.codec.sample_fmt">s32</property>
  <property name="meta.media.0.codec.sample_rate">44100</property>
  <property name="meta.media.0.codec.channels">2</property>
  <property name="meta.media.0.codec.name">pcm_s24le</property>
  <property name="meta.media.0.codec.long_name">PCM signed 24-bit little-endian</property>
  <property name="meta.media.0.codec.bit_rate">2116800</property>
  <property name="meta.attr.encoded_by.markup">Logic Pro X</property>
  <property name="meta.attr.date.markup">2017-12-09</property>
  <property name="meta.attr.creation_time.markup">10:17:13</property>
  <property name="meta.attr.time_reference.markup">163330363</property>
  <property name="meta.attr.umid.markup">0x00000000000000000000000000000000000000000000000000000000BA0080B7DE3D537A80695E58FF7F000046845D0801000000B0615E58FF7F0000ECAE5EC2</property>
  <property name="seekable">1</property>
  <property name="audio_index">0</property>
  <property name="video_index">-1</property>
  <property name="kdenlive:clipname"/>
  <property name="kdenlive:clip_type">1</property>
  <property name="kdenlive:folderid">339</property>
  <property name="kdenlive:id">340</property>
  <property name="kdenlive:file_size">12677202</property>
  <property name="kdenlive:file_hash">6c54fd8c5c0da67af845646906c95e19</property>
  <property name="kdenlive:audio_max0">242</property>
 </chain>
 <chain id="chain249" out="00:00:21.500">
  <property name="length">1291</property>
  <property name="eof">pause</property>
  <property name="resource">audio/music/Bodytonic/Mind Body Mind/variations/Mind Body Mind | 30 Sec.wav</property>
  <property name="mlt_service">avformat</property>
  <property name="meta.media.nb_streams">1</property>
  <property name="meta.media.0.stream.type">audio</property>
  <property name="meta.media.0.codec.sample_fmt">s32</property>
  <property name="meta.media.0.codec.sample_rate">44100</property>
  <property name="meta.media.0.codec.channels">2</property>
  <property name="meta.media.0.codec.name">pcm_s24le</property>
  <property name="meta.media.0.codec.long_name">PCM signed 24-bit little-endian</property>
  <property name="meta.media.0.codec.bit_rate">2116800</property>
  <property name="meta.attr.encoded_by.markup">Logic Pro X</property>
  <property name="meta.attr.date.markup">2017-12-09</property>
  <property name="meta.attr.creation_time.markup">10:20:40</property>
  <property name="meta.attr.time_reference.markup">163968393</property>
  <property name="meta.attr.umid.markup">0x00000000000000000000000000000000000000000000000000000000BA0080B7DE3D537A80695E58FF7F000046845D0801000000B0615E58FF7F0000ECAE5EC2</property>
  <property name="seekable">1</property>
  <property name="audio_index">0</property>
  <property name="video_index">-1</property>
  <property name="kdenlive:clipname"/>
  <property name="kdenlive:clip_type">1</property>
  <property name="kdenlive:folderid">339</property>
  <property name="kdenlive:id">341</property>
  <property name="kdenlive:file_size">5693916</property>
  <property name="kdenlive:file_hash">992c511397715e3aeec2040cd4eb6fb8</property>
  <property name="kdenlive:audio_max0">241</property>
 </chain>
 <chain id="chain250" out="00:00:30.900">
  <property name="length">1855</property>
  <property name="eof">pause</property>
  <property name="resource">audio/music/Bodytonic/Mind Body Mind/variations/Mind Body Mind | Interlude.wav</property>
  <property name="mlt_service">avformat</property>
  <property name="meta.media.nb_streams">1</property>
  <property name="meta.media.0.stream.type">audio</property>
  <property name="meta.media.0.codec.sample_fmt">s32</property>
  <property name="meta.media.0.codec.sample_rate">44100</property>
  <property name="meta.media.0.codec.channels">2</property>
  <property name="meta.media.0.codec.name">pcm_s24le</property>
  <property name="meta.media.0.codec.long_name">PCM signed 24-bit little-endian</property>
  <property name="meta.media.0.codec.bit_rate">2116800</property>
  <property name="meta.attr.encoded_by.markup">Logic Pro X</property>
  <property name="meta.attr.date.markup">2017-12-09</property>
  <property name="meta.attr.creation_time.markup">10:18:12</property>
  <property name="meta.attr.time_reference.markup">160604182</property>
  <property name="meta.attr.umid.markup">0x00000000000000000000000000000000000000000000000000000000BA0080B7DE3D537A80695E58FF7F000046845D0801000000B0615E58FF7F0000ECAE5EC2</property>
  <property name="seekable">1</property>
  <property name="audio_index">0</property>
  <property name="video_index">-1</property>
  <property name="kdenlive:clipname"/>
  <property name="kdenlive:clip_type">1</property>
  <property name="kdenlive:folderid">339</property>
  <property name="kdenlive:id">342</property>
  <property name="kdenlive:file_size">8179320</property>
  <property name="kdenlive:file_hash">7e615ce17dfc302481d7f7d156b88a73</property>
  <property name="kdenlive:audio_max0">249</property>
 </chain>
 <chain id="chain251" out="00:01:20.617">
  <property name="length">4838</property>
  <property name="eof">pause</property>
  <property name="resource">audio/music/Bodytonic/Mind Body Mind/variations/Mind Body Mind | Soft Start.wav</property>
  <property name="mlt_service">avformat</property>
  <property name="meta.media.nb_streams">1</property>
  <property name="meta.media.0.stream.type">audio</property>
  <property name="meta.media.0.codec.sample_fmt">s32</property>
  <property name="meta.media.0.codec.sample_rate">44100</property>
  <property name="meta.media.0.codec.channels">2</property>
  <property name="meta.media.0.codec.name">pcm_s24le</property>
  <property name="meta.media.0.codec.long_name">PCM signed 24-bit little-endian</property>
  <property name="meta.media.0.codec.bit_rate">2116800</property>
  <property name="meta.attr.encoded_by.markup">Logic Pro X</property>
  <property name="meta.attr.date.markup">2017-12-09</property>
  <property name="meta.attr.creation_time.markup">10:19:10</property>
  <property name="meta.attr.time_reference.markup">161887091</property>
  <property name="meta.attr.umid.markup">0x00000000000000000000000000000000000000000000000000000000BA0080B7DE3D537A80695E58FF7F000046845D0801000000B0615E58FF7F0000ECAE5EC2</property>
  <property name="seekable">1</property>
  <property name="audio_index">0</property>
  <property name="video_index">-1</property>
  <property name="kdenlive:clipname"/>
  <property name="kdenlive:clip_type">1</property>
  <property name="kdenlive:folderid">339</property>
  <property name="kdenlive:id">343</property>
  <property name="kdenlive:file_size">21336834</property>
  <property name="kdenlive:file_hash">0314db7a1314632823f2de525bd7ff3c</property>
  <property name="kdenlive:audio_max0">244</property>
 </chain>
 <chain id="chain252" out="00:02:29.983">
  <property name="length">9000</property>
  <property name="eof">pause</property>
  <property name="resource">audio/music/Bodytonic/Partly Sage/Partly Sage.wav</property>
  <property name="mlt_service">avformat</property>
  <property name="meta.media.nb_streams">1</property>
  <property name="meta.media.0.stream.type">audio</property>
  <property name="meta.media.0.codec.sample_fmt">s32</property>
  <property name="meta.media.0.codec.sample_rate">44100</property>
  <property name="meta.media.0.codec.channels">2</property>
  <property name="meta.media.0.codec.name">pcm_s24le</property>
  <property name="meta.media.0.codec.long_name">PCM signed 24-bit little-endian</property>
  <property name="meta.media.0.codec.bit_rate">2116800</property>
  <property name="meta.attr.encoded_by.markup">Logic Pro X</property>
  <property name="meta.attr.date.markup">2017-06-07</property>
  <property name="meta.attr.creation_time.markup">14:07:43</property>
  <property name="meta.attr.time_reference.markup">158760000</property>
  <property name="meta.attr.umid.markup">0x00000000000000000000000000000000000000000000000000000000440089C0936A1F5780E96459FF7F00004604570701000000B0E16459FF7F0000ECFE8894</property>
  <property name="seekable">1</property>
  <property name="audio_index">0</property>
  <property name="video_index">-1</property>
  <property name="kdenlive:clipname"/>
  <property name="kdenlive:clip_type">1</property>
  <property name="kdenlive:folderid">344</property>
  <property name="kdenlive:id">345</property>
  <property name="kdenlive:file_size">39690730</property>
  <property name="kdenlive:file_hash">c4edab638da9f3e3a12669af3b9087bf</property>
  <property name="kdenlive:audio_max0">256</property>
 </chain>
 <chain id="chain253" out="00:02:27.867">
  <property name="length">8873</property>
  <property name="eof">pause</property>
  <property name="resource">audio/music/Bodytonic/Partly Sage/stems/01_Partly Sage_Upright Bass.wav</property>
  <property name="mlt_service">avformat</property>
  <property name="meta.media.nb_streams">1</property>
  <property name="meta.media.0.stream.type">audio</property>
  <property name="meta.media.0.codec.sample_fmt">s32</property>
  <property name="meta.media.0.codec.sample_rate">44100</property>
  <property name="meta.media.0.codec.channels">2</property>
  <property name="meta.media.0.codec.name">pcm_s24le</property>
  <property name="meta.media.0.codec.long_name">PCM signed 24-bit little-endian</property>
  <property name="meta.media.0.codec.bit_rate">2116800</property>
  <property name="meta.attr.encoded_by.markup">Logic Pro X</property>
  <property name="meta.attr.date.markup">2017-06-07</property>
  <property name="meta.attr.creation_time.markup">14:13:40</property>
  <property name="meta.attr.time_reference.markup">158760000</property>
  <property name="meta.attr.umid.markup">0x00000000000000000000000000000000000000000000000000000000440089C0936A1F57303C6559FF7F0000460457070100000060346559FF7F0000ECFE8894</property>
  <property name="seekable">1</property>
  <property name="audio_index">0</property>
  <property name="video_index">-1</property>
  <property name="kdenlive:clipname"/>
  <property name="kdenlive:clip_type">1</property>
  <property name="kdenlive:folderid">346</property>
  <property name="kdenlive:id">347</property>
  <property name="kdenlive:file_size">39181248</property>
  <property name="kdenlive:file_hash">a939af6caf642aa911a1adde9b1c8353</property>
  <property name="kdenlive:audio_max0">199</property>
 </chain>
 <chain id="chain256" out="00:02:27.867">
  <property name="length">8873</property>
  <property name="eof">pause</property>
  <property name="resource">audio/music/Bodytonic/Partly Sage/stems/02_Partly Sage_Piano.wav</property>
  <property name="mlt_service">avformat</property>
  <property name="meta.media.nb_streams">1</property>
  <property name="meta.media.0.stream.type">audio</property>
  <property name="meta.media.0.codec.sample_fmt">s32</property>
  <property name="meta.media.0.codec.sample_rate">44100</property>
  <property name="meta.media.0.codec.channels">2</property>
  <property name="meta.media.0.codec.name">pcm_s24le</property>
  <property name="meta.media.0.codec.long_name">PCM signed 24-bit little-endian</property>
  <property name="meta.media.0.codec.bit_rate">2116800</property>
  <property name="meta.attr.encoded_by.markup">Logic Pro X</property>
  <property name="meta.attr.date.markup">2017-06-07</property>
  <property name="meta.attr.creation_time.markup">14:13:43</property>
  <property name="meta.attr.time_reference.markup">158760000</property>
  <property name="meta.attr.umid.markup">0x00000000000000000000000000000000000000000000000000000000440089C0936A1F57303C6559FF7F0000460457070100000060346559FF7F0000ECFE8894</property>
  <property name="seekable">1</property>
  <property name="audio_index">0</property>
  <property name="video_index">-1</property>
  <property name="kdenlive:clipname"/>
  <property name="kdenlive:clip_type">1</property>
  <property name="kdenlive:folderid">346</property>
  <property name="kdenlive:id">348</property>
  <property name="kdenlive:file_size">39181248</property>
  <property name="kdenlive:file_hash">1c041b1b5ca871ebb488f38cd4b6f5f3</property>
  <property name="kdenlive:audio_max0">177</property>
 </chain>
 <chain id="chain259" out="00:02:27.867">
  <property name="length">8873</property>
  <property name="eof">pause</property>
  <property name="resource">audio/music/Bodytonic/Partly Sage/stems/03_Partly Sage_Rhodia SynPad.wav</property>
  <property name="mlt_service">avformat</property>
  <property name="meta.media.nb_streams">1</property>
  <property name="meta.media.0.stream.type">audio</property>
  <property name="meta.media.0.codec.sample_fmt">s32</property>
  <property name="meta.media.0.codec.sample_rate">44100</property>
  <property name="meta.media.0.codec.channels">2</property>
  <property name="meta.media.0.codec.name">pcm_s24le</property>
  <property name="meta.media.0.codec.long_name">PCM signed 24-bit little-endian</property>
  <property name="meta.media.0.codec.bit_rate">2116800</property>
  <property name="meta.attr.encoded_by.markup">Logic Pro X</property>
  <property name="meta.attr.date.markup">2017-06-07</property>
  <property name="meta.attr.creation_time.markup">14:13:33</property>
  <property name="meta.attr.time_reference.markup">158760000</property>
  <property name="meta.attr.umid.markup">0x00000000000000000000000000000000000000000000000000000000440089C0936A1F57303C6559FF7F0000460457070100000060346559FF7F0000ECFE8894</property>
  <property name="seekable">1</property>
  <property name="audio_index">0</property>
  <property name="video_index">-1</property>
  <property name="kdenlive:clipname"/>
  <property name="kdenlive:clip_type">1</property>
  <property name="kdenlive:folderid">346</property>
  <property name="kdenlive:id">349</property>
  <property name="kdenlive:file_size">39181248</property>
  <property name="kdenlive:file_hash">0fb664a7b076e42e0dcfab0768ddb932</property>
  <property name="kdenlive:audio_max0">87</property>
 </chain>
 <chain id="chain261" out="00:02:27.117">
  <property name="length">8828</property>
  <property name="eof">pause</property>
  <property name="resource">audio/music/Bodytonic/Partly Sage/stems/04_Partly Sage_Marimba.wav</property>
  <property name="mlt_service">avformat</property>
  <property name="meta.media.nb_streams">1</property>
  <property name="meta.media.0.stream.type">audio</property>
  <property name="meta.media.0.codec.sample_fmt">s32</property>
  <property name="meta.media.0.codec.sample_rate">44100</property>
  <property name="meta.media.0.codec.channels">2</property>
  <property name="meta.media.0.codec.name">pcm_s24le</property>
  <property name="meta.media.0.codec.long_name">PCM signed 24-bit little-endian</property>
  <property name="meta.media.0.codec.bit_rate">2116800</property>
  <property name="meta.attr.encoded_by.markup">Logic Pro X</property>
  <property name="meta.attr.date.markup">2017-06-07</property>
  <property name="meta.attr.creation_time.markup">14:13:46</property>
  <property name="meta.attr.time_reference.markup">158760000</property>
  <property name="meta.attr.umid.markup">0x00000000000000000000000000000000000000000000000000000000440089C0936A1F57303C6559FF7F0000460457070100000060346559FF7F0000ECFE8894</property>
  <property name="seekable">1</property>
  <property name="audio_index">0</property>
  <property name="video_index">-1</property>
  <property name="kdenlive:clipname"/>
  <property name="kdenlive:clip_type">1</property>
  <property name="kdenlive:folderid">346</property>
  <property name="kdenlive:id">350</property>
  <property name="kdenlive:file_size">38984384</property>
  <property name="kdenlive:file_hash">092cb00c1eb794a88758b7718996ccb5</property>
  <property name="kdenlive:audio_max0">127</property>
 </chain>
 <chain id="chain263" out="00:02:25.633">
  <property name="length">8739</property>
  <property name="eof">pause</property>
  <property name="resource">audio/music/Bodytonic/Partly Sage/stems/05_Partly Sage_Found Percussion.wav</property>
  <property name="mlt_service">avformat</property>
  <property name="meta.media.nb_streams">1</property>
  <property name="meta.media.0.stream.type">audio</property>
  <property name="meta.media.0.codec.sample_fmt">s32</property>
  <property name="meta.media.0.codec.sample_rate">44100</property>
  <property name="meta.media.0.codec.channels">2</property>
  <property name="meta.media.0.codec.name">pcm_s24le</property>
  <property name="meta.media.0.codec.long_name">PCM signed 24-bit little-endian</property>
  <property name="meta.media.0.codec.bit_rate">2116800</property>
  <property name="meta.attr.encoded_by.markup">Logic Pro X</property>
  <property name="meta.attr.date.markup">2017-06-07</property>
  <property name="meta.attr.creation_time.markup">14:13:37</property>
  <property name="meta.attr.time_reference.markup">158760000</property>
  <property name="meta.attr.umid.markup">0x00000000000000000000000000000000000000000000000000000000440089C0936A1F57303C6559FF7F0000460457070100000060346559FF7F0000ECFE8894</property>
  <property name="seekable">1</property>
  <property name="audio_index">0</property>
  <property name="video_index">-1</property>
  <property name="kdenlive:clipname"/>
  <property name="kdenlive:clip_type">1</property>
  <property name="kdenlive:folderid">346</property>
  <property name="kdenlive:id">351</property>
  <property name="kdenlive:file_size">38590656</property>
  <property name="kdenlive:file_hash">4b13a48bb801cb873504e398b6f093b2</property>
  <property name="kdenlive:audio_max0">249</property>
 </chain>
 <chain id="chain266" out="00:01:10.900">
  <property name="length">4255</property>
  <property name="eof">pause</property>
  <property name="resource">audio/music/Bodytonic/Partly Sage/variations/Partly Sage | 1 Min.wav</property>
  <property name="mlt_service">avformat</property>
  <property name="meta.media.nb_streams">1</property>
  <property name="meta.media.0.stream.type">audio</property>
  <property name="meta.media.0.codec.sample_fmt">s32</property>
  <property name="meta.media.0.codec.sample_rate">44100</property>
  <property name="meta.media.0.codec.channels">2</property>
  <property name="meta.media.0.codec.name">pcm_s24le</property>
  <property name="meta.media.0.codec.long_name">PCM signed 24-bit little-endian</property>
  <property name="meta.media.0.codec.bit_rate">2116800</property>
  <property name="meta.attr.encoded_by.markup">Logic Pro X</property>
  <property name="meta.attr.date.markup">2017-06-07</property>
  <property name="meta.attr.creation_time.markup">14:17:01</property>
  <property name="meta.attr.time_reference.markup">162288000</property>
  <property name="meta.attr.umid.markup">0x00000000000000000000000000000000000000000000000000000000440089C0936A1F5780E96459FF7F00004604570701000000B0E16459FF7F0000ECFE8894</property>
  <property name="seekable">1</property>
  <property name="audio_index">0</property>
  <property name="video_index">-1</property>
  <property name="kdenlive:clipname"/>
  <property name="kdenlive:clip_type">1</property>
  <property name="kdenlive:folderid">352</property>
  <property name="kdenlive:id">353</property>
  <property name="kdenlive:file_size">18763276</property>
  <property name="kdenlive:file_hash">51da41e8fd538a1816363dedbff1b4c6</property>
  <property name="kdenlive:audio_max0">256</property>
 </chain>
 <chain id="chain267" out="00:00:33.433">
  <property name="length">2007</property>
  <property name="eof">pause</property>
  <property name="resource">audio/music/Bodytonic/Partly Sage/variations/Partly Sage | 30 Sec.wav</property>
  <property name="mlt_service">avformat</property>
  <property name="meta.media.nb_streams">1</property>
  <property name="meta.media.0.stream.type">audio</property>
  <property name="meta.media.0.codec.sample_fmt">s32</property>
  <property name="meta.media.0.codec.sample_rate">44100</property>
  <property name="meta.media.0.codec.channels">2</property>
  <property name="meta.media.0.codec.name">pcm_s24le</property>
  <property name="meta.media.0.codec.long_name">PCM signed 24-bit little-endian</property>
  <property name="meta.media.0.codec.bit_rate">2116800</property>
  <property name="meta.attr.encoded_by.markup">Logic Pro X</property>
  <property name="meta.attr.date.markup">2017-06-07</property>
  <property name="meta.attr.creation_time.markup">14:15:57</property>
  <property name="meta.attr.time_reference.markup">158760000</property>
  <property name="meta.attr.umid.markup">0x00000000000000000000000000000000000000000000000000000000440089C0936A1F5780E96459FF7F00004604570701000000B0E16459FF7F0000ECFE8894</property>
  <property name="seekable">1</property>
  <property name="audio_index">0</property>
  <property name="video_index">-1</property>
  <property name="kdenlive:clipname"/>
  <property name="kdenlive:clip_type">1</property>
  <property name="kdenlive:folderid">352</property>
  <property name="kdenlive:id">354</property>
  <property name="kdenlive:file_size">8853272</property>
  <property name="kdenlive:file_hash">44d94abb6bec79b4db3d2992b57f0774</property>
  <property name="kdenlive:audio_max0">232</property>
 </chain>
 <chain id="chain270" out="00:01:59.983">
  <property name="length">7200</property>
  <property name="eof">pause</property>
  <property name="resource">audio/music/Bodytonic/Partly Sage/variations/Partly Sage | Atmo with Marimba.wav</property>
  <property name="mlt_service">avformat</property>
  <property name="meta.media.nb_streams">1</property>
  <property name="meta.media.0.stream.type">audio</property>
  <property name="meta.media.0.codec.sample_fmt">s32</property>
  <property name="meta.media.0.codec.sample_rate">44100</property>
  <property name="meta.media.0.codec.channels">2</property>
  <property name="meta.media.0.codec.name">pcm_s24le</property>
  <property name="meta.media.0.codec.long_name">PCM signed 24-bit little-endian</property>
  <property name="meta.media.0.codec.bit_rate">2116800</property>
  <property name="meta.attr.encoded_by.markup">Logic Pro X</property>
  <property name="meta.attr.date.markup">2017-06-07</property>
  <property name="meta.attr.creation_time.markup">14:24:00</property>
  <property name="meta.attr.time_reference.markup">160363636</property>
  <property name="meta.attr.umid.markup">0x00000000000000000000000000000000000000000000000000000000440089C0936A1F5780E96459FF7F00004604570701000000B0E16459FF7F0000ECFE8894</property>
  <property name="seekable">1</property>
  <property name="audio_index">0</property>
  <property name="video_index">-1</property>
  <property name="kdenlive:clipname"/>
  <property name="kdenlive:clip_type">1</property>
  <property name="kdenlive:folderid">352</property>
  <property name="kdenlive:id">355</property>
  <property name="kdenlive:file_size">31752730</property>
  <property name="kdenlive:file_hash">e4a8cfb22eab019f933139d53fb6cc3e</property>
  <property name="kdenlive:audio_max0">248</property>
 </chain>
 <chain id="chain271" out="00:02:03.617">
  <property name="length">7418</property>
  <property name="eof">pause</property>
  <property name="resource">audio/music/Bodytonic/Partly Sage/variations/Partly Sage | Atmo.wav</property>
  <property name="mlt_service">avformat</property>
  <property name="meta.media.nb_streams">1</property>
  <property name="meta.media.0.stream.type">audio</property>
  <property name="meta.media.0.codec.sample_fmt">s32</property>
  <property name="meta.media.0.codec.sample_rate">44100</property>
  <property name="meta.media.0.codec.channels">2</property>
  <property name="meta.media.0.codec.name">pcm_s24le</property>
  <property name="meta.media.0.codec.long_name">PCM signed 24-bit little-endian</property>
  <property name="meta.media.0.codec.bit_rate">2116800</property>
  <property name="meta.attr.encoded_by.markup">Logic Pro X</property>
  <property name="meta.attr.date.markup">2017-06-07</property>
  <property name="meta.attr.creation_time.markup">14:21:45</property>
  <property name="meta.attr.time_reference.markup">160363636</property>
  <property name="meta.attr.umid.markup">0x00000000000000000000000000000000000000000000000000000000440089C0936A1F5780E96459FF7F00004604570701000000B0E16459FF7F0000ECFE8894</property>
  <property name="seekable">1</property>
  <property name="audio_index">0</property>
  <property name="video_index">-1</property>
  <property name="kdenlive:clipname"/>
  <property name="kdenlive:clip_type">1</property>
  <property name="kdenlive:folderid">352</property>
  <property name="kdenlive:id">356</property>
  <property name="kdenlive:file_size">32714914</property>
  <property name="kdenlive:file_hash">c896ee755977c994abf76beb133f66db</property>
  <property name="kdenlive:audio_max0">254</property>
 </chain>
 <chain id="chain273" out="00:01:56.117">
  <property name="length">6968</property>
  <property name="eof">pause</property>
  <property name="resource">audio/music/Bodytonic/Partly Sage/variations/Partly Sage | Piano Feature.wav</property>
  <property name="mlt_service">avformat</property>
  <property name="meta.media.nb_streams">1</property>
  <property name="meta.media.0.stream.type">audio</property>
  <property name="meta.media.0.codec.sample_fmt">s32</property>
  <property name="meta.media.0.codec.sample_rate">44100</property>
  <property name="meta.media.0.codec.channels">2</property>
  <property name="meta.media.0.codec.name">pcm_s24le</property>
  <property name="meta.media.0.codec.long_name">PCM signed 24-bit little-endian</property>
  <property name="meta.media.0.codec.bit_rate">2116800</property>
  <property name="meta.attr.encoded_by.markup">Logic Pro X</property>
  <property name="meta.attr.date.markup">2017-06-07</property>
  <property name="meta.attr.creation_time.markup">14:18:46</property>
  <property name="meta.attr.time_reference.markup">160808516</property>
  <property name="meta.attr.umid.markup">0x00000000000000000000000000000000000000000000000000000000440089C0936A1F5780E96459FF7F00004604570701000000B0E16459FF7F0000ECFE8894</property>
  <property name="seekable">1</property>
  <property name="audio_index">0</property>
  <property name="video_index">-1</property>
  <property name="kdenlive:clipname"/>
  <property name="kdenlive:clip_type">1</property>
  <property name="kdenlive:folderid">352</property>
  <property name="kdenlive:id">357</property>
  <property name="kdenlive:file_size">30728470</property>
  <property name="kdenlive:file_hash">f1a747a40e2b6f45f278c90621e62577</property>
  <property name="kdenlive:audio_max0">254</property>
 </chain>
 <chain id="chain275" out="00:04:05.433">
  <property name="length">14727</property>
  <property name="eof">pause</property>
  <property name="resource">audio/music/Bodytonic/Soothe/Soothe.wav</property>
  <property name="mlt_service">avformat</property>
  <property name="meta.media.nb_streams">1</property>
  <property name="meta.media.0.stream.type">audio</property>
  <property name="meta.media.0.codec.sample_fmt">s32</property>
  <property name="meta.media.0.codec.sample_rate">44100</property>
  <property name="meta.media.0.codec.channels">2</property>
  <property name="meta.media.0.codec.name">pcm_s24le</property>
  <property name="meta.media.0.codec.long_name">PCM signed 24-bit little-endian</property>
  <property name="meta.media.0.codec.bit_rate">2116800</property>
  <property name="meta.attr.encoded_by.markup">Logic Pro X</property>
  <property name="meta.attr.date.markup">2017-08-08</property>
  <property name="meta.attr.creation_time.markup">15:40:26</property>
  <property name="meta.attr.time_reference.markup">158760000</property>
  <property name="meta.attr.umid.markup">0x0000000000000000000000000000000000000000000000000000000032005DC06BA986FA8069AC54FF7F000046840F0C01000000B061AC54FF7F0000EC5E66BC</property>
  <property name="seekable">1</property>
  <property name="audio_index">0</property>
  <property name="video_index">-1</property>
  <property name="kdenlive:clipname"/>
  <property name="kdenlive:clip_type">1</property>
  <property name="kdenlive:folderid">358</property>
  <property name="kdenlive:id">359</property>
  <property name="kdenlive:file_size">64948000</property>
  <property name="kdenlive:file_hash">d5c1323dbd69b3edb3410c297a8d4ee4</property>
  <property name="kdenlive:audio_max0">256</property>
 </chain>
 <chain id="chain277" out="00:04:01.483">
  <property name="length">14490</property>
  <property name="eof">pause</property>
  <property name="resource">audio/music/Bodytonic/Soothe/stems/01_Soothe_Upright Bass.wav</property>
  <property name="mlt_service">avformat</property>
  <property name="meta.media.nb_streams">1</property>
  <property name="meta.media.0.stream.type">audio</property>
  <property name="meta.media.0.codec.sample_fmt">s32</property>
  <property name="meta.media.0.codec.sample_rate">44100</property>
  <property name="meta.media.0.codec.channels">2</property>
  <property name="meta.media.0.codec.name">pcm_s24le</property>
  <property name="meta.media.0.codec.long_name">PCM signed 24-bit little-endian</property>
  <property name="meta.media.0.codec.bit_rate">2116800</property>
  <property name="meta.attr.encoded_by.markup">Logic Pro X</property>
  <property name="meta.attr.date.markup">2017-08-08</property>
  <property name="meta.attr.creation_time.markup">15:38:16</property>
  <property name="meta.attr.time_reference.markup">158760000</property>
  <property name="meta.attr.umid.markup">0x0000000000000000000000000000000000000000000000000000000032005DC06BA986FA20BCAC54FF7F000046840F0C0100000050B4AC54FF7F0000EC5E66BC</property>
  <property name="seekable">1</property>
  <property name="audio_index">0</property>
  <property name="video_index">-1</property>
  <property name="kdenlive:clipname"/>
  <property name="kdenlive:clip_type">1</property>
  <property name="kdenlive:folderid">360</property>
  <property name="kdenlive:id">361</property>
  <property name="kdenlive:file_size">63986112</property>
  <property name="kdenlive:file_hash">18f7f1cd41ec192fe4e898c306824bec</property>
  <property name="kdenlive:audio_max0">233</property>
 </chain>
 <chain id="chain281" out="00:03:46.633">
  <property name="length">13599</property>
  <property name="eof">pause</property>
  <property name="resource">audio/music/Bodytonic/Soothe/stems/02_Soothe_Piano.wav</property>
  <property name="mlt_service">avformat</property>
  <property name="meta.media.nb_streams">1</property>
  <property name="meta.media.0.stream.type">audio</property>
  <property name="meta.media.0.codec.sample_fmt">s32</property>
  <property name="meta.media.0.codec.sample_rate">44100</property>
  <property name="meta.media.0.codec.channels">2</property>
  <property name="meta.media.0.codec.name">pcm_s24le</property>
  <property name="meta.media.0.codec.long_name">PCM signed 24-bit little-endian</property>
  <property name="meta.media.0.codec.bit_rate">2116800</property>
  <property name="meta.attr.encoded_by.markup">Logic Pro X</property>
  <property name="meta.attr.date.markup">2017-08-08</property>
  <property name="meta.attr.creation_time.markup">15:38:22</property>
  <property name="meta.attr.time_reference.markup">158760000</property>
  <property name="meta.attr.umid.markup">0x0000000000000000000000000000000000000000000000000000000032005DC06BA986FA20BCAC54FF7F000046840F0C0100000050B4AC54FF7F0000EC5E66BC</property>
  <property name="seekable">1</property>
  <property name="audio_index">0</property>
  <property name="video_index">-1</property>
  <property name="kdenlive:clipname"/>
  <property name="kdenlive:clip_type">1</property>
  <property name="kdenlive:folderid">360</property>
  <property name="kdenlive:id">362</property>
  <property name="kdenlive:file_size">60048832</property>
  <property name="kdenlive:file_hash">7eef7aa287bed027443f8472be37fe16</property>
  <property name="kdenlive:audio_max0">180</property>
 </chain>
 <chain id="chain283" out="00:03:58.517">
  <property name="length">14312</property>
  <property name="eof">pause</property>
  <property name="resource">audio/music/Bodytonic/Soothe/stems/03_Soothe_Marimba.wav</property>
  <property name="mlt_service">avformat</property>
  <property name="meta.media.nb_streams">1</property>
  <property name="meta.media.0.stream.type">audio</property>
  <property name="meta.media.0.codec.sample_fmt">s32</property>
  <property name="meta.media.0.codec.sample_rate">44100</property>
  <property name="meta.media.0.codec.channels">2</property>
  <property name="meta.media.0.codec.name">pcm_s24le</property>
  <property name="meta.media.0.codec.long_name">PCM signed 24-bit little-endian</property>
  <property name="meta.media.0.codec.bit_rate">2116800</property>
  <property name="meta.attr.encoded_by.markup">Logic Pro X</property>
  <property name="meta.attr.date.markup">2017-08-08</property>
  <property name="meta.attr.creation_time.markup">15:38:32</property>
  <property name="meta.attr.time_reference.markup">158760000</property>
  <property name="meta.attr.umid.markup">0x0000000000000000000000000000000000000000000000000000000032005DC06BA986FA20BCAC54FF7F000046840F0C0100000050B4AC54FF7F0000EC5E66BC</property>
  <property name="seekable">1</property>
  <property name="audio_index">0</property>
  <property name="video_index">-1</property>
  <property name="kdenlive:clipname"/>
  <property name="kdenlive:clip_type">1</property>
  <property name="kdenlive:folderid">360</property>
  <property name="kdenlive:id">363</property>
  <property name="kdenlive:file_size">63198656</property>
  <property name="kdenlive:file_hash">418e0b637055924c917b724b6738c2d6</property>
  <property name="kdenlive:audio_max0">140</property>
 </chain>
 <chain id="chain284" out="00:04:00.000">
  <property name="length">14401</property>
  <property name="eof">pause</property>
  <property name="resource">audio/music/Bodytonic/Soothe/stems/04_Soothe_Drum Kit.wav</property>
  <property name="mlt_service">avformat</property>
  <property name="meta.media.nb_streams">1</property>
  <property name="meta.media.0.stream.type">audio</property>
  <property name="meta.media.0.codec.sample_fmt">s32</property>
  <property name="meta.media.0.codec.sample_rate">44100</property>
  <property name="meta.media.0.codec.channels">2</property>
  <property name="meta.media.0.codec.name">pcm_s24le</property>
  <property name="meta.media.0.codec.long_name">PCM signed 24-bit little-endian</property>
  <property name="meta.media.0.codec.bit_rate">2116800</property>
  <property name="meta.attr.encoded_by.markup">Logic Pro X</property>
  <property name="meta.attr.date.markup">2017-08-08</property>
  <property name="meta.attr.creation_time.markup">15:38:27</property>
  <property name="meta.attr.time_reference.markup">158760000</property>
  <property name="meta.attr.umid.markup">0x0000000000000000000000000000000000000000000000000000000032005DC06BA986FA20BCAC54FF7F000046840F0C0100000050B4AC54FF7F0000EC5E66BC</property>
  <property name="seekable">1</property>
  <property name="audio_index">0</property>
  <property name="video_index">-1</property>
  <property name="kdenlive:clipname"/>
  <property name="kdenlive:clip_type">1</property>
  <property name="kdenlive:folderid">360</property>
  <property name="kdenlive:id">364</property>
  <property name="kdenlive:file_size">63592384</property>
  <property name="kdenlive:file_hash">a42e0e73f030ed6c79210fa0c4d52f72</property>
  <property name="kdenlive:audio_max0">169</property>
 </chain>
 <chain id="chain287" out="00:03:47.367">
  <property name="length">13643</property>
  <property name="eof">pause</property>
  <property name="resource">audio/music/Bodytonic/Soothe/stems/05_Soothe_Found Percussion.wav</property>
  <property name="mlt_service">avformat</property>
  <property name="meta.media.nb_streams">1</property>
  <property name="meta.media.0.stream.type">audio</property>
  <property name="meta.media.0.codec.sample_fmt">s32</property>
  <property name="meta.media.0.codec.sample_rate">44100</property>
  <property name="meta.media.0.codec.channels">2</property>
  <property name="meta.media.0.codec.name">pcm_s24le</property>
  <property name="meta.media.0.codec.long_name">PCM signed 24-bit little-endian</property>
  <property name="meta.media.0.codec.bit_rate">2116800</property>
  <property name="meta.attr.encoded_by.markup">Logic Pro X</property>
  <property name="meta.attr.date.markup">2017-08-08</property>
  <property name="meta.attr.creation_time.markup">15:38:11</property>
  <property name="meta.attr.time_reference.markup">158760000</property>
  <property name="meta.attr.umid.markup">0x0000000000000000000000000000000000000000000000000000000032005DC06BA986FA20BCAC54FF7F000046840F0C0100000050B4AC54FF7F0000EC5E66BC</property>
  <property name="seekable">1</property>
  <property name="audio_index">0</property>
  <property name="video_index">-1</property>
  <property name="kdenlive:clipname"/>
  <property name="kdenlive:clip_type">1</property>
  <property name="kdenlive:folderid">360</property>
  <property name="kdenlive:id">365</property>
  <property name="kdenlive:file_size">60245696</property>
  <property name="kdenlive:file_hash">4a484528530ccc79b2019ec01057b866</property>
  <property name="kdenlive:audio_max0">256</property>
 </chain>
 <chain id="chain290" out="00:00:58.167">
  <property name="length">3491</property>
  <property name="eof">pause</property>
  <property name="resource">audio/music/Bodytonic/Soothe/variations/Soothe | 1 Min.wav</property>
  <property name="mlt_service">avformat</property>
  <property name="meta.media.nb_streams">1</property>
  <property name="meta.media.0.stream.type">audio</property>
  <property name="meta.media.0.codec.sample_fmt">s32</property>
  <property name="meta.media.0.codec.sample_rate">44100</property>
  <property name="meta.media.0.codec.channels">2</property>
  <property name="meta.media.0.codec.name">pcm_s24le</property>
  <property name="meta.media.0.codec.long_name">PCM signed 24-bit little-endian</property>
  <property name="meta.media.0.codec.bit_rate">2116800</property>
  <property name="meta.attr.encoded_by.markup">Logic Pro X</property>
  <property name="meta.attr.date.markup">2017-08-08</property>
  <property name="meta.attr.creation_time.markup">15:45:28</property>
  <property name="meta.attr.time_reference.markup">166938545</property>
  <property name="meta.attr.umid.markup">0x0000000000000000000000000000000000000000000000000000000032005DC06BA986FA8069AC54FF7F000046840F0C01000000B061AC54FF7F0000EC5E66BC</property>
  <property name="seekable">1</property>
  <property name="audio_index">0</property>
  <property name="video_index">-1</property>
  <property name="kdenlive:clipname"/>
  <property name="kdenlive:clip_type">1</property>
  <property name="kdenlive:folderid">366</property>
  <property name="kdenlive:id">367</property>
  <property name="kdenlive:file_size">15395638</property>
  <property name="kdenlive:file_hash">1dd085b6674efedfd535d060cc943db1</property>
  <property name="kdenlive:audio_max0">252</property>
 </chain>
 <chain id="chain294" out="00:00:30.900">
  <property name="length">1855</property>
  <property name="eof">pause</property>
  <property name="resource">audio/music/Bodytonic/Soothe/variations/Soothe | 30 Sec.wav</property>
  <property name="mlt_service">avformat</property>
  <property name="meta.media.nb_streams">1</property>
  <property name="meta.media.0.stream.type">audio</property>
  <property name="meta.media.0.codec.sample_fmt">s32</property>
  <property name="meta.media.0.codec.sample_rate">44100</property>
  <property name="meta.media.0.codec.channels">2</property>
  <property name="meta.media.0.codec.name">pcm_s24le</property>
  <property name="meta.media.0.codec.long_name">PCM signed 24-bit little-endian</property>
  <property name="meta.media.0.codec.bit_rate">2116800</property>
  <property name="meta.attr.encoded_by.markup">Logic Pro X</property>
  <property name="meta.attr.date.markup">2017-08-08</property>
  <property name="meta.attr.creation_time.markup">15:44:43</property>
  <property name="meta.attr.time_reference.markup">159080727</property>
  <property name="meta.attr.umid.markup">0x0000000000000000000000000000000000000000000000000000000032005DC06BA986FA8069AC54FF7F000046840F0C01000000B061AC54FF7F0000EC5E66BC</property>
  <property name="seekable">1</property>
  <property name="audio_index">0</property>
  <property name="video_index">-1</property>
  <property name="kdenlive:clipname"/>
  <property name="kdenlive:clip_type">1</property>
  <property name="kdenlive:folderid">366</property>
  <property name="kdenlive:id">368</property>
  <property name="kdenlive:file_size">8179276</property>
  <property name="kdenlive:file_hash">09782769eebd1bff0dc4ad0b86ccc068</property>
  <property name="kdenlive:audio_max0">256</property>
 </chain>
 <chain id="chain293" out="00:03:25.433">
  <property name="length">12327</property>
  <property name="eof">pause</property>
  <property name="resource">audio/music/Bodytonic/Soothe/variations/Soothe | Alt Start.wav</property>
  <property name="mlt_service">avformat</property>
  <property name="meta.media.nb_streams">1</property>
  <property name="meta.media.0.stream.type">audio</property>
  <property name="meta.media.0.codec.sample_fmt">s32</property>
  <property name="meta.media.0.codec.sample_rate">44100</property>
  <property name="meta.media.0.codec.channels">2</property>
  <property name="meta.media.0.codec.name">pcm_s24le</property>
  <property name="meta.media.0.codec.long_name">PCM signed 24-bit little-endian</property>
  <property name="meta.media.0.codec.bit_rate">2116800</property>
  <property name="meta.attr.encoded_by.markup">Logic Pro X</property>
  <property name="meta.attr.date.markup">2017-08-08</property>
  <property name="meta.attr.creation_time.markup">15:42:19</property>
  <property name="meta.attr.time_reference.markup">160524000</property>
  <property name="meta.attr.umid.markup">0x0000000000000000000000000000000000000000000000000000000032005DC06BA986FA8069AC54FF7F000046840F0C01000000B061AC54FF7F0000EC5E66BC</property>
  <property name="seekable">1</property>
  <property name="audio_index">0</property>
  <property name="video_index">-1</property>
  <property name="kdenlive:clipname"/>
  <property name="kdenlive:clip_type">1</property>
  <property name="kdenlive:folderid">366</property>
  <property name="kdenlive:id">369</property>
  <property name="kdenlive:file_size">54364000</property>
  <property name="kdenlive:file_hash">8e6032c35e9363f1b46a75e275ecb528</property>
  <property name="kdenlive:audio_max0">256</property>
 </chain>
 <chain id="chain295" out="00:02:45.200">
  <property name="length">9913</property>
  <property name="eof">pause</property>
  <property name="resource">audio/music/Bodytonic/Soothe/variations/Soothe | Jazz Lines.wav</property>
  <property name="mlt_service">avformat</property>
  <property name="meta.media.nb_streams">1</property>
  <property name="meta.media.0.stream.type">audio</property>
  <property name="meta.media.0.codec.sample_fmt">s32</property>
  <property name="meta.media.0.codec.sample_rate">44100</property>
  <property name="meta.media.0.codec.channels">2</property>
  <property name="meta.media.0.codec.name">pcm_s24le</property>
  <property name="meta.media.0.codec.long_name">PCM signed 24-bit little-endian</property>
  <property name="meta.media.0.codec.bit_rate">2116800</property>
  <property name="meta.attr.encoded_by.markup">Logic Pro X</property>
  <property name="meta.attr.date.markup">2017-08-08</property>
  <property name="meta.attr.creation_time.markup">15:51:57</property>
  <property name="meta.attr.time_reference.markup">161827826</property>
  <property name="meta.attr.umid.markup">0x0000000000000000000000000000000000000000000000000000000032005DC06BA986FA8069AC54FF7F000046840F0C01000000B061AC54FF7F0000EC5E66BC</property>
  <property name="seekable">1</property>
  <property name="audio_index">0</property>
  <property name="video_index">-1</property>
  <property name="kdenlive:clipname"/>
  <property name="kdenlive:clip_type">1</property>
  <property name="kdenlive:folderid">366</property>
  <property name="kdenlive:id">370</property>
  <property name="kdenlive:file_size">43717252</property>
  <property name="kdenlive:file_hash">d01d84729fa128245b141b97586cfe42</property>
  <property name="kdenlive:audio_max0">250</property>
 </chain>
 <chain id="chain298" out="00:03:21.800">
  <property name="length">12109</property>
  <property name="eof">pause</property>
  <property name="resource">audio/music/Bodytonic/Soothe/variations/Soothe | Marimba Leader.wav</property>
  <property name="mlt_service">avformat</property>
  <property name="meta.media.nb_streams">1</property>
  <property name="meta.media.0.stream.type">audio</property>
  <property name="meta.media.0.codec.sample_fmt">s32</property>
  <property name="meta.media.0.codec.sample_rate">44100</property>
  <property name="meta.media.0.codec.channels">2</property>
  <property name="meta.media.0.codec.name">pcm_s24le</property>
  <property name="meta.media.0.codec.long_name">PCM signed 24-bit little-endian</property>
  <property name="meta.media.0.codec.bit_rate">2116800</property>
  <property name="meta.attr.encoded_by.markup">Logic Pro X</property>
  <property name="meta.attr.date.markup">2017-08-08</property>
  <property name="meta.attr.creation_time.markup">15:46:45</property>
  <property name="meta.attr.time_reference.markup">160684363</property>
  <property name="meta.attr.umid.markup">0x0000000000000000000000000000000000000000000000000000000032005DC06BA986FA8069AC54FF7F000046840F0C01000000B061AC54FF7F0000EC5E66BC</property>
  <property name="seekable">1</property>
  <property name="audio_index">0</property>
  <property name="video_index">-1</property>
  <property name="kdenlive:clipname"/>
  <property name="kdenlive:clip_type">1</property>
  <property name="kdenlive:folderid">366</property>
  <property name="kdenlive:id">371</property>
  <property name="kdenlive:file_size">53401822</property>
  <property name="kdenlive:file_hash">911590d27c06a9fd329ced5ecbde936b</property>
  <property name="kdenlive:audio_max0">252</property>
 </chain>
 <chain id="chain304" out="00:04:05.433">
  <property name="length">14727</property>
  <property name="eof">pause</property>
  <property name="resource">audio/music/Bodytonic/Soothe/variations/Soothe | No Piano.wav</property>
  <property name="mlt_service">avformat</property>
  <property name="meta.media.nb_streams">1</property>
  <property name="meta.media.0.stream.type">audio</property>
  <property name="meta.media.0.codec.sample_fmt">s32</property>
  <property name="meta.media.0.codec.sample_rate">44100</property>
  <property name="meta.media.0.codec.channels">2</property>
  <property name="meta.media.0.codec.name">pcm_s24le</property>
  <property name="meta.media.0.codec.long_name">PCM signed 24-bit little-endian</property>
  <property name="meta.media.0.codec.bit_rate">2116800</property>
  <property name="meta.attr.encoded_by.markup">Logic Pro X</property>
  <property name="meta.attr.date.markup">2017-08-08</property>
  <property name="meta.attr.creation_time.markup">15:48:13</property>
  <property name="meta.attr.time_reference.markup">158760000</property>
  <property name="meta.attr.umid.markup">0x0000000000000000000000000000000000000000000000000000000032005DC06BA986FA8069AC54FF7F000046840F0C01000000B061AC54FF7F0000EC5E66BC</property>
  <property name="seekable">1</property>
  <property name="audio_index">0</property>
  <property name="video_index">-1</property>
  <property name="kdenlive:clipname"/>
  <property name="kdenlive:clip_type">1</property>
  <property name="kdenlive:folderid">366</property>
  <property name="kdenlive:id">372</property>
  <property name="kdenlive:file_size">64948000</property>
  <property name="kdenlive:file_hash">5ff24a0b10e19d873f4479795c86bec9</property>
  <property name="kdenlive:audio_max0">254</property>
 </chain>
 <chain id="chain307" out="00:03:07.250">
  <property name="length">11236</property>
  <property name="eof">pause</property>
  <property name="resource">audio/music/Bodytonic/Thannoid/Thannoid | Minimal Marimba.wav</property>
  <property name="mlt_service">avformat</property>
  <property name="meta.media.nb_streams">1</property>
  <property name="meta.media.0.stream.type">audio</property>
  <property name="meta.media.0.codec.sample_fmt">s32</property>
  <property name="meta.media.0.codec.sample_rate">44100</property>
  <property name="meta.media.0.codec.channels">2</property>
  <property name="meta.media.0.codec.name">pcm_s24le</property>
  <property name="meta.media.0.codec.long_name">PCM signed 24-bit little-endian</property>
  <property name="meta.media.0.codec.bit_rate">2116800</property>
  <property name="meta.attr.encoded_by.markup">Logic Pro X</property>
  <property name="meta.attr.date.markup">2017-06-08</property>
  <property name="meta.attr.creation_time.markup">12:12:47</property>
  <property name="meta.attr.time_reference.markup">158760000</property>
  <property name="meta.attr.umid.markup">0x00000000000000000000000000000000000000000000000000000000A200AAFA29A23A358059595BFF7F00004694620501000000B051595BFF7F0000ECFE8894</property>
  <property name="seekable">1</property>
  <property name="audio_index">0</property>
  <property name="video_index">-1</property>
  <property name="kdenlive:clipname"/>
  <property name="kdenlive:clip_type">1</property>
  <property name="kdenlive:folderid">373</property>
  <property name="kdenlive:id">374</property>
  <property name="kdenlive:file_size">49553092</property>
  <property name="kdenlive:file_hash">932daddb50aabfa82b900cd893e93aaf</property>
  <property name="kdenlive:audio_max0">255</property>
 </chain>
 <chain id="chain308" out="00:03:03.167">
  <property name="length">10991</property>
  <property name="eof">pause</property>
  <property name="resource">audio/music/Bodytonic/Thannoid/Thannoid.wav</property>
  <property name="mlt_service">avformat</property>
  <property name="meta.media.nb_streams">1</property>
  <property name="meta.media.0.stream.type">audio</property>
  <property name="meta.media.0.codec.sample_fmt">s32</property>
  <property name="meta.media.0.codec.sample_rate">44100</property>
  <property name="meta.media.0.codec.channels">2</property>
  <property name="meta.media.0.codec.name">pcm_s24le</property>
  <property name="meta.media.0.codec.long_name">PCM signed 24-bit little-endian</property>
  <property name="meta.media.0.codec.bit_rate">2116800</property>
  <property name="meta.attr.encoded_by.markup">Logic Pro X</property>
  <property name="meta.attr.date.markup">2017-06-08</property>
  <property name="meta.attr.creation_time.markup">11:58:37</property>
  <property name="meta.attr.time_reference.markup">158760000</property>
  <property name="meta.attr.umid.markup">0x00000000000000000000000000000000000000000000000000000000A200AAFA29A23A358059595BFF7F00004694620501000000B051595BFF7F0000ECFE8894</property>
  <property name="seekable">1</property>
  <property name="audio_index">0</property>
  <property name="video_index">-1</property>
  <property name="kdenlive:clipname"/>
  <property name="kdenlive:clip_type">1</property>
  <property name="kdenlive:folderid">373</property>
  <property name="kdenlive:id">375</property>
  <property name="kdenlive:file_size">48470638</property>
  <property name="kdenlive:file_hash">d01b2267fd4c82a6c4e00c53126f5078</property>
  <property name="kdenlive:audio_max0">253</property>
 </chain>
 <chain id="chain309" out="00:02:59.067">
  <property name="length">10745</property>
  <property name="eof">pause</property>
  <property name="resource">audio/music/Bodytonic/Thannoid/stems/01_Thannoid_Upright Bass.wav</property>
  <property name="mlt_service">avformat</property>
  <property name="meta.media.nb_streams">1</property>
  <property name="meta.media.0.stream.type">audio</property>
  <property name="meta.media.0.codec.sample_fmt">s32</property>
  <property name="meta.media.0.codec.sample_rate">44100</property>
  <property name="meta.media.0.codec.channels">2</property>
  <property name="meta.media.0.codec.name">pcm_s24le</property>
  <property name="meta.media.0.codec.long_name">PCM signed 24-bit little-endian</property>
  <property name="meta.media.0.codec.bit_rate">2116800</property>
  <property name="meta.attr.encoded_by.markup">Logic Pro X</property>
  <property name="meta.attr.date.markup">2017-06-08</property>
  <property name="meta.attr.creation_time.markup">12:02:34</property>
  <property name="meta.attr.time_reference.markup">158760000</property>
  <property name="meta.attr.umid.markup">0x00000000000000000000000000000000000000000000000000000000A200AAFA29A23A3530AC595BFF7F0000469462050100000060A4595BFF7F0000ECFE8894</property>
  <property name="seekable">1</property>
  <property name="audio_index">0</property>
  <property name="video_index">-1</property>
  <property name="kdenlive:clipname"/>
  <property name="kdenlive:clip_type">1</property>
  <property name="kdenlive:folderid">376</property>
  <property name="kdenlive:id">377</property>
  <property name="kdenlive:file_size">47449536</property>
  <property name="kdenlive:file_hash">98f0491e3077705ee7093e6405ebaefc</property>
  <property name="kdenlive:audio_max0">208</property>
 </chain>
 <chain id="chain312" out="00:02:58.333">
  <property name="length">10701</property>
  <property name="eof">pause</property>
  <property name="resource">audio/music/Bodytonic/Thannoid/stems/02_Thannoid_Piano.wav</property>
  <property name="mlt_service">avformat</property>
  <property name="meta.media.nb_streams">1</property>
  <property name="meta.media.0.stream.type">audio</property>
  <property name="meta.media.0.codec.sample_fmt">s32</property>
  <property name="meta.media.0.codec.sample_rate">44100</property>
  <property name="meta.media.0.codec.channels">2</property>
  <property name="meta.media.0.codec.name">pcm_s24le</property>
  <property name="meta.media.0.codec.long_name">PCM signed 24-bit little-endian</property>
  <property name="meta.media.0.codec.bit_rate">2116800</property>
  <property name="meta.attr.encoded_by.markup">Logic Pro X</property>
  <property name="meta.attr.date.markup">2017-06-08</property>
  <property name="meta.attr.creation_time.markup">12:02:38</property>
  <property name="meta.attr.time_reference.markup">158760000</property>
  <property name="meta.attr.umid.markup">0x00000000000000000000000000000000000000000000000000000000A200AAFA29A23A3530AC595BFF7F0000469462050100000060A4595BFF7F0000ECFE8894</property>
  <property name="seekable">1</property>
  <property name="audio_index">0</property>
  <property name="video_index">-1</property>
  <property name="kdenlive:clipname"/>
  <property name="kdenlive:clip_type">1</property>
  <property name="kdenlive:folderid">376</property>
  <property name="kdenlive:id">378</property>
  <property name="kdenlive:file_size">47252672</property>
  <property name="kdenlive:file_hash">f16cb6e6cd4d24d381426e2c915320e8</property>
  <property name="kdenlive:audio_max0">166</property>
 </chain>
 <chain id="chain314" out="00:02:59.817">
  <property name="length">10790</property>
  <property name="eof">pause</property>
  <property name="resource">audio/music/Bodytonic/Thannoid/stems/03_Thannoid_Marimba.wav</property>
  <property name="mlt_service">avformat</property>
  <property name="meta.media.nb_streams">1</property>
  <property name="meta.media.0.stream.type">audio</property>
  <property name="meta.media.0.codec.sample_fmt">s32</property>
  <property name="meta.media.0.codec.sample_rate">44100</property>
  <property name="meta.media.0.codec.channels">2</property>
  <property name="meta.media.0.codec.name">pcm_s24le</property>
  <property name="meta.media.0.codec.long_name">PCM signed 24-bit little-endian</property>
  <property name="meta.media.0.codec.bit_rate">2116800</property>
  <property name="meta.attr.encoded_by.markup">Logic Pro X</property>
  <property name="meta.attr.date.markup">2017-06-08</property>
  <property name="meta.attr.creation_time.markup">12:02:45</property>
  <property name="meta.attr.time_reference.markup">158760000</property>
  <property name="meta.attr.umid.markup">0x00000000000000000000000000000000000000000000000000000000A200AAFA29A23A3530AC595BFF7F0000469462050100000060A4595BFF7F0000ECFE8894</property>
  <property name="seekable">1</property>
  <property name="audio_index">0</property>
  <property name="video_index">-1</property>
  <property name="kdenlive:clipname"/>
  <property name="kdenlive:clip_type">1</property>
  <property name="kdenlive:folderid">376</property>
  <property name="kdenlive:id">379</property>
  <property name="kdenlive:file_size">47646400</property>
  <property name="kdenlive:file_hash">e3ee266e773052fdb423235a13004922</property>
  <property name="kdenlive:audio_max0">154</property>
 </chain>
 <chain id="chain315" out="00:02:56.100">
  <property name="length">10567</property>
  <property name="eof">pause</property>
  <property name="resource">audio/music/Bodytonic/Thannoid/stems/04_Thannoid_Drum Kit.wav</property>
  <property name="mlt_service">avformat</property>
  <property name="meta.media.nb_streams">1</property>
  <property name="meta.media.0.stream.type">audio</property>
  <property name="meta.media.0.codec.sample_fmt">s32</property>
  <property name="meta.media.0.codec.sample_rate">44100</property>
  <property name="meta.media.0.codec.channels">2</property>
  <property name="meta.media.0.codec.name">pcm_s24le</property>
  <property name="meta.media.0.codec.long_name">PCM signed 24-bit little-endian</property>
  <property name="meta.media.0.codec.bit_rate">2116800</property>
  <property name="meta.attr.encoded_by.markup">Logic Pro X</property>
  <property name="meta.attr.date.markup">2017-06-08</property>
  <property name="meta.attr.creation_time.markup">12:02:41</property>
  <property name="meta.attr.time_reference.markup">158760000</property>
  <property name="meta.attr.umid.markup">0x00000000000000000000000000000000000000000000000000000000A200AAFA29A23A3530AC595BFF7F0000469462050100000060A4595BFF7F0000ECFE8894</property>
  <property name="seekable">1</property>
  <property name="audio_index">0</property>
  <property name="video_index">-1</property>
  <property name="kdenlive:clipname"/>
  <property name="kdenlive:clip_type">1</property>
  <property name="kdenlive:folderid">376</property>
  <property name="kdenlive:id">380</property>
  <property name="kdenlive:file_size">46662080</property>
  <property name="kdenlive:file_hash">4544e80b49d96d728906a61ffa38da60</property>
  <property name="kdenlive:audio_max0">156</property>
 </chain>
 <chain id="chain318" out="00:02:56.100">
  <property name="length">10567</property>
  <property name="eof">pause</property>
  <property name="resource">audio/music/Bodytonic/Thannoid/stems/05_Thannoid_Found Percussion.wav</property>
  <property name="mlt_service">avformat</property>
  <property name="meta.media.nb_streams">1</property>
  <property name="meta.media.0.stream.type">audio</property>
  <property name="meta.media.0.codec.sample_fmt">s32</property>
  <property name="meta.media.0.codec.sample_rate">44100</property>
  <property name="meta.media.0.codec.channels">2</property>
  <property name="meta.media.0.codec.name">pcm_s24le</property>
  <property name="meta.media.0.codec.long_name">PCM signed 24-bit little-endian</property>
  <property name="meta.media.0.codec.bit_rate">2116800</property>
  <property name="meta.attr.encoded_by.markup">Logic Pro X</property>
  <property name="meta.attr.date.markup">2017-06-08</property>
  <property name="meta.attr.creation_time.markup">12:02:29</property>
  <property name="meta.attr.time_reference.markup">158760000</property>
  <property name="meta.attr.umid.markup">0x00000000000000000000000000000000000000000000000000000000A200AAFA29A23A3530AC595BFF7F0000469462050100000060A4595BFF7F0000ECFE8894</property>
  <property name="seekable">1</property>
  <property name="audio_index">0</property>
  <property name="video_index">-1</property>
  <property name="kdenlive:clipname"/>
  <property name="kdenlive:clip_type">1</property>
  <property name="kdenlive:folderid">376</property>
  <property name="kdenlive:id">381</property>
  <property name="kdenlive:file_size">46662080</property>
  <property name="kdenlive:file_hash">21521aae6e71ae8487043d9a961278b6</property>
  <property name="kdenlive:audio_max0">201</property>
 </chain>
 <chain id="chain321" out="00:01:21.800">
  <property name="length">4909</property>
  <property name="eof">pause</property>
  <property name="resource">audio/music/Bodytonic/Thannoid/variations/Thannoid | 1 Min.wav</property>
  <property name="mlt_service">avformat</property>
  <property name="meta.media.nb_streams">1</property>
  <property name="meta.media.0.stream.type">audio</property>
  <property name="meta.media.0.codec.sample_fmt">s32</property>
  <property name="meta.media.0.codec.sample_rate">44100</property>
  <property name="meta.media.0.codec.channels">2</property>
  <property name="meta.media.0.codec.name">pcm_s24le</property>
  <property name="meta.media.0.codec.long_name">PCM signed 24-bit little-endian</property>
  <property name="meta.media.0.codec.bit_rate">2116800</property>
  <property name="meta.attr.encoded_by.markup">Logic Pro X</property>
  <property name="meta.attr.date.markup">2017-06-08</property>
  <property name="meta.attr.creation_time.markup">12:04:06</property>
  <property name="meta.attr.time_reference.markup">163250182</property>
  <property name="meta.attr.umid.markup">0x00000000000000000000000000000000000000000000000000000000A200AAFA29A23A358059595BFF7F00004694620501000000B051595BFF7F0000ECFE8894</property>
  <property name="seekable">1</property>
  <property name="audio_index">0</property>
  <property name="video_index">-1</property>
  <property name="kdenlive:clipname"/>
  <property name="kdenlive:clip_type">1</property>
  <property name="kdenlive:folderid">382</property>
  <property name="kdenlive:id">383</property>
  <property name="kdenlive:file_size">21649816</property>
  <property name="kdenlive:file_hash">526bdde6ee40d10bf38e084b5eb78100</property>
  <property name="kdenlive:audio_max0">252</property>
 </chain>
 <chain id="chain322" out="00:00:36.350">
  <property name="length">2182</property>
  <property name="eof">pause</property>
  <property name="resource">audio/music/Bodytonic/Thannoid/variations/Thannoid | 30 Sec No Melody.wav</property>
  <property name="mlt_service">avformat</property>
  <property name="meta.media.nb_streams">1</property>
  <property name="meta.media.0.stream.type">audio</property>
  <property name="meta.media.0.codec.sample_fmt">s32</property>
  <property name="meta.media.0.codec.sample_rate">44100</property>
  <property name="meta.media.0.codec.channels">2</property>
  <property name="meta.media.0.codec.name">pcm_s24le</property>
  <property name="meta.media.0.codec.long_name">PCM signed 24-bit little-endian</property>
  <property name="meta.media.0.codec.bit_rate">2116800</property>
  <property name="meta.attr.encoded_by.markup">Logic Pro X</property>
  <property name="meta.attr.date.markup">2017-06-08</property>
  <property name="meta.attr.creation_time.markup">12:05:01</property>
  <property name="meta.attr.time_reference.markup">165174545</property>
  <property name="meta.attr.umid.markup">0x00000000000000000000000000000000000000000000000000000000A200AAFA29A23A358059595BFF7F00004694620501000000B051595BFF7F0000ECFE8894</property>
  <property name="seekable">1</property>
  <property name="audio_index">0</property>
  <property name="video_index">-1</property>
  <property name="kdenlive:clipname"/>
  <property name="kdenlive:clip_type">1</property>
  <property name="kdenlive:folderid">382</property>
  <property name="kdenlive:id">384</property>
  <property name="kdenlive:file_size">9622552</property>
  <property name="kdenlive:file_hash">733fb17cae8fb54cd88f370d666592c4</property>
  <property name="kdenlive:audio_max0">251</property>
 </chain>
 <chain id="chain324" out="00:00:38.283">
  <property name="length">2298</property>
  <property name="eof">pause</property>
  <property name="resource">audio/music/Bodytonic/Thannoid/variations/Thannoid | 30 Sec.wav</property>
  <property name="mlt_service">avformat</property>
  <property name="meta.media.nb_streams">1</property>
  <property name="meta.media.0.stream.type">audio</property>
  <property name="meta.media.0.codec.sample_fmt">s32</property>
  <property name="meta.media.0.codec.sample_rate">44100</property>
  <property name="meta.media.0.codec.channels">2</property>
  <property name="meta.media.0.codec.name">pcm_s24le</property>
  <property name="meta.media.0.codec.long_name">PCM signed 24-bit little-endian</property>
  <property name="meta.media.0.codec.bit_rate">2116800</property>
  <property name="meta.attr.encoded_by.markup">Logic Pro X</property>
  <property name="meta.attr.date.markup">2017-06-08</property>
  <property name="meta.attr.creation_time.markup">12:03:24</property>
  <property name="meta.attr.time_reference.markup">165169450</property>
  <property name="meta.attr.umid.markup">0x00000000000000000000000000000000000000000000000000000000A200AAFA29A23A358059595BFF7F00004694620501000000B051595BFF7F0000ECFE8894</property>
  <property name="seekable">1</property>
  <property name="audio_index">0</property>
  <property name="video_index">-1</property>
  <property name="kdenlive:clipname"/>
  <property name="kdenlive:clip_type">1</property>
  <property name="kdenlive:folderid">382</property>
  <property name="kdenlive:id">385</property>
  <property name="kdenlive:file_size">10134208</property>
  <property name="kdenlive:file_hash">e5b0ee54f087fd56546e9029b92661a0</property>
  <property name="kdenlive:audio_max0">253</property>
 </chain>
 <chain id="chain326" out="00:03:07.250">
  <property name="length">11236</property>
  <property name="eof">pause</property>
  <property name="resource">audio/music/Bodytonic/Thannoid/variations/Thannoid | Minimal Marimba.wav</property>
  <property name="mlt_service">avformat</property>
  <property name="meta.media.nb_streams">1</property>
  <property name="meta.media.0.stream.type">audio</property>
  <property name="meta.media.0.codec.sample_fmt">s32</property>
  <property name="meta.media.0.codec.sample_rate">44100</property>
  <property name="meta.media.0.codec.channels">2</property>
  <property name="meta.media.0.codec.name">pcm_s24le</property>
  <property name="meta.media.0.codec.long_name">PCM signed 24-bit little-endian</property>
  <property name="meta.media.0.codec.bit_rate">2116800</property>
  <property name="meta.attr.encoded_by.markup">Logic Pro X</property>
  <property name="meta.attr.date.markup">2017-06-08</property>
  <property name="meta.attr.creation_time.markup">12:12:47</property>
  <property name="meta.attr.time_reference.markup">158760000</property>
  <property name="meta.attr.umid.markup">0x00000000000000000000000000000000000000000000000000000000A200AAFA29A23A358059595BFF7F00004694620501000000B051595BFF7F0000ECFE8894</property>
  <property name="seekable">1</property>
  <property name="audio_index">0</property>
  <property name="video_index">-1</property>
  <property name="kdenlive:clipname"/>
  <property name="kdenlive:clip_type">1</property>
  <property name="kdenlive:folderid">382</property>
  <property name="kdenlive:id">386</property>
  <property name="kdenlive:file_size">49553092</property>
  <property name="kdenlive:file_hash">932daddb50aabfa82b900cd893e93aaf</property>
 </chain>
 <chain id="chain327" out="00:02:32.717">
  <property name="length">9164</property>
  <property name="eof">pause</property>
  <property name="resource">audio/music/Bodytonic/Thannoid/variations/Thannoid | No Melody.wav</property>
  <property name="mlt_service">avformat</property>
  <property name="meta.media.nb_streams">1</property>
  <property name="meta.media.0.stream.type">audio</property>
  <property name="meta.media.0.codec.sample_fmt">s32</property>
  <property name="meta.media.0.codec.sample_rate">44100</property>
  <property name="meta.media.0.codec.channels">2</property>
  <property name="meta.media.0.codec.name">pcm_s24le</property>
  <property name="meta.media.0.codec.long_name">PCM signed 24-bit little-endian</property>
  <property name="meta.media.0.codec.bit_rate">2116800</property>
  <property name="meta.attr.encoded_by.markup">Logic Pro X</property>
  <property name="meta.attr.date.markup">2017-06-08</property>
  <property name="meta.attr.creation_time.markup">11:59:50</property>
  <property name="meta.attr.time_reference.markup">158760000</property>
  <property name="meta.attr.umid.markup">0x00000000000000000000000000000000000000000000000000000000A200AAFA29A23A358059595BFF7F00004694620501000000B051595BFF7F0000ECFE8894</property>
  <property name="seekable">1</property>
  <property name="audio_index">0</property>
  <property name="video_index">-1</property>
  <property name="kdenlive:clipname"/>
  <property name="kdenlive:clip_type">1</property>
  <property name="kdenlive:folderid">382</property>
  <property name="kdenlive:id">387</property>
  <property name="kdenlive:file_size">40412362</property>
  <property name="kdenlive:file_hash">4647d8498a569004cb54266f7cf0826a</property>
  <property name="kdenlive:audio_max0">255</property>
 </chain>
 <chain id="chain329" out="00:01:50.900">
  <property name="length">6655</property>
  <property name="eof">pause</property>
  <property name="resource">audio/music/Bodytonic/Thannoid/variations/Thannoid | Piano.wav</property>
  <property name="mlt_service">avformat</property>
  <property name="meta.media.nb_streams">1</property>
  <property name="meta.media.0.stream.type">audio</property>
  <property name="meta.media.0.codec.sample_fmt">s32</property>
  <property name="meta.media.0.codec.sample_rate">44100</property>
  <property name="meta.media.0.codec.channels">2</property>
  <property name="meta.media.0.codec.name">pcm_s24le</property>
  <property name="meta.media.0.codec.long_name">PCM signed 24-bit little-endian</property>
  <property name="meta.media.0.codec.bit_rate">2116800</property>
  <property name="meta.attr.encoded_by.markup">Logic Pro X</property>
  <property name="meta.attr.date.markup">2017-06-08</property>
  <property name="meta.attr.creation_time.markup">12:06:43</property>
  <property name="meta.attr.time_reference.markup">161967272</property>
  <property name="meta.attr.umid.markup">0x00000000000000000000000000000000000000000000000000000000A200AAFA29A23A358059595BFF7F00004694620501000000B051595BFF7F0000ECFE8894</property>
  <property name="seekable">1</property>
  <property name="audio_index">0</property>
  <property name="video_index">-1</property>
  <property name="kdenlive:clipname"/>
  <property name="kdenlive:clip_type">1</property>
  <property name="kdenlive:folderid">382</property>
  <property name="kdenlive:id">388</property>
  <property name="kdenlive:file_size">29385504</property>
  <property name="kdenlive:file_hash">6fb3cefe5cd49b1a772d4148933cc2b4</property>
  <property name="kdenlive:audio_max0">256</property>
 </chain>
 <chain id="chain331" out="00:01:21.800">
  <property name="length">4909</property>
  <property name="eof">pause</property>
  <property name="resource">audio/music/Bodytonic/Thannoid/variations/Thannoid | Swinging.wav</property>
  <property name="mlt_service">avformat</property>
  <property name="meta.media.nb_streams">1</property>
  <property name="meta.media.0.stream.type">audio</property>
  <property name="meta.media.0.codec.sample_fmt">s32</property>
  <property name="meta.media.0.codec.sample_rate">44100</property>
  <property name="meta.media.0.codec.channels">2</property>
  <property name="meta.media.0.codec.name">pcm_s24le</property>
  <property name="meta.media.0.codec.long_name">PCM signed 24-bit little-endian</property>
  <property name="meta.media.0.codec.bit_rate">2116800</property>
  <property name="meta.attr.encoded_by.markup">Logic Pro X</property>
  <property name="meta.attr.date.markup">2017-06-08</property>
  <property name="meta.attr.creation_time.markup">12:10:51</property>
  <property name="meta.attr.time_reference.markup">163250182</property>
  <property name="meta.attr.umid.markup">0x00000000000000000000000000000000000000000000000000000000A200AAFA29A23A358059595BFF7F00004694620501000000B051595BFF7F0000ECFE8894</property>
  <property name="seekable">1</property>
  <property name="audio_index">0</property>
  <property name="video_index">-1</property>
  <property name="kdenlive:clipname"/>
  <property name="kdenlive:clip_type">1</property>
  <property name="kdenlive:folderid">382</property>
  <property name="kdenlive:id">389</property>
  <property name="kdenlive:file_size">21649816</property>
  <property name="kdenlive:file_hash">8e38fa47426d8af1d82fc2aaea57d9ea</property>
  <property name="kdenlive:audio_max0">252</property>
 </chain>
 <chain id="chain334" out="00:02:54.767">
  <property name="length">10487</property>
  <property name="eof">pause</property>
  <property name="resource">audio/music/Nursery/A Little Powder */A Little Powder.wav</property>
  <property name="mlt_service">avformat</property>
  <property name="meta.media.nb_streams">1</property>
  <property name="meta.media.0.stream.type">audio</property>
  <property name="meta.media.0.codec.sample_fmt">s32</property>
  <property name="meta.media.0.codec.sample_rate">44100</property>
  <property name="meta.media.0.codec.channels">2</property>
  <property name="meta.media.0.codec.name">pcm_s24le</property>
  <property name="meta.media.0.codec.long_name">PCM signed 24-bit little-endian</property>
  <property name="meta.media.0.codec.bit_rate">2116800</property>
  <property name="meta.attr.encoded_by.markup">Logic Pro X</property>
  <property name="meta.attr.date.markup">2018-02-12</property>
  <property name="meta.attr.creation_time.markup">14:18:55</property>
  <property name="meta.attr.time_reference.markup">159189498</property>
  <property name="meta.attr.umid.markup">0x00000000000000000000000000000000000000000000000000000000B200403FF3E80FCAD081E1E5FE7F000050964C0B010000001082E1E5FE7F00003D86F66C</property>
  <property name="meta.attr.album.markup">Nursery</property>
  <property name="seekable">1</property>
  <property name="audio_index">0</property>
  <property name="video_index">-1</property>
  <property name="kdenlive:clipname"/>
  <property name="kdenlive:clip_type">1</property>
  <property name="kdenlive:folderid">391</property>
  <property name="kdenlive:id">392</property>
  <property name="kdenlive:file_size">46249020</property>
  <property name="kdenlive:file_hash">9d7892f208ee17d258a62c5abfc2e76f</property>
  <property name="kdenlive:audio_max0">232</property>
 </chain>
 <chain id="chain340" out="00:02:53.133">
  <property name="length">10389</property>
  <property name="eof">pause</property>
  <property name="resource">audio/music/Nursery/A Little Powder */stems/01_A Little Powder_Tongue Drum.wav</property>
  <property name="mlt_service">avformat</property>
  <property name="meta.media.nb_streams">1</property>
  <property name="meta.media.0.stream.type">audio</property>
  <property name="meta.media.0.codec.sample_fmt">s32</property>
  <property name="meta.media.0.codec.sample_rate">44100</property>
  <property name="meta.media.0.codec.channels">2</property>
  <property name="meta.media.0.codec.name">pcm_s24le</property>
  <property name="meta.media.0.codec.long_name">PCM signed 24-bit little-endian</property>
  <property name="meta.media.0.codec.bit_rate">2116800</property>
  <property name="meta.attr.encoded_by.markup">Logic Pro X</property>
  <property name="meta.attr.date.markup">2018-02-12</property>
  <property name="meta.attr.creation_time.markup">14:20:55</property>
  <property name="meta.attr.time_reference.markup">159189498</property>
  <property name="meta.attr.umid.markup">0x00000000000000000000000000000000000000000000000000000000B200403FF3E80FCA40B7E1E5FE7F000050964C0B0100000080B7E1E5FE7F00003D86F66C</property>
  <property name="seekable">1</property>
  <property name="audio_index">0</property>
  <property name="video_index">-1</property>
  <property name="kdenlive:clipname"/>
  <property name="kdenlive:clip_type">1</property>
  <property name="kdenlive:folderid">393</property>
  <property name="kdenlive:id">394</property>
  <property name="kdenlive:file_size">45874706</property>
  <property name="kdenlive:file_hash">308819235efb5c2be935d88bbbde2e34</property>
  <property name="kdenlive:audio_max0">125</property>
 </chain>
 <chain id="chain339" out="00:02:50.900">
  <property name="length">10255</property>
  <property name="eof">pause</property>
  <property name="resource">audio/music/Nursery/A Little Powder */stems/02_A Little Powder_Tongue Drum.wav</property>
  <property name="mlt_service">avformat</property>
  <property name="meta.media.nb_streams">1</property>
  <property name="meta.media.0.stream.type">audio</property>
  <property name="meta.media.0.codec.sample_fmt">s32</property>
  <property name="meta.media.0.codec.sample_rate">44100</property>
  <property name="meta.media.0.codec.channels">2</property>
  <property name="meta.media.0.codec.name">pcm_s24le</property>
  <property name="meta.media.0.codec.long_name">PCM signed 24-bit little-endian</property>
  <property name="meta.media.0.codec.bit_rate">2116800</property>
  <property name="meta.attr.encoded_by.markup">Logic Pro X</property>
  <property name="meta.attr.date.markup">2018-02-12</property>
  <property name="meta.attr.creation_time.markup">14:20:58</property>
  <property name="meta.attr.time_reference.markup">159189498</property>
  <property name="meta.attr.umid.markup">0x00000000000000000000000000000000000000000000000000000000B200403FF3E80FCA40B7E1E5FE7F000050964C0B0100000080B7E1E5FE7F00003D86F66C</property>
  <property name="seekable">1</property>
  <property name="audio_index">0</property>
  <property name="video_index">-1</property>
  <property name="kdenlive:clipname"/>
  <property name="kdenlive:clip_type">1</property>
  <property name="kdenlive:folderid">393</property>
  <property name="kdenlive:id">395</property>
  <property name="kdenlive:file_size">45284114</property>
  <property name="kdenlive:file_hash">738ad6da73d339e18f92280f0609cff2</property>
  <property name="kdenlive:audio_max0">158</property>
 </chain>
 <chain id="chain343" out="00:02:49.417">
  <property name="length">10166</property>
  <property name="eof">pause</property>
  <property name="resource">audio/music/Nursery/A Little Powder */stems/03_A Little Powder_Piano.wav</property>
  <property name="mlt_service">avformat</property>
  <property name="meta.media.nb_streams">1</property>
  <property name="meta.media.0.stream.type">audio</property>
  <property name="meta.media.0.codec.sample_fmt">s32</property>
  <property name="meta.media.0.codec.sample_rate">44100</property>
  <property name="meta.media.0.codec.channels">2</property>
  <property name="meta.media.0.codec.name">pcm_s24le</property>
  <property name="meta.media.0.codec.long_name">PCM signed 24-bit little-endian</property>
  <property name="meta.media.0.codec.bit_rate">2116800</property>
  <property name="meta.attr.encoded_by.markup">Logic Pro X</property>
  <property name="meta.attr.date.markup">2018-02-12</property>
  <property name="meta.attr.creation_time.markup">14:21:10</property>
  <property name="meta.attr.time_reference.markup">159189498</property>
  <property name="meta.attr.umid.markup">0x00000000000000000000000000000000000000000000000000000000B200403FF3E80FCA40B7E1E5FE7F000050964C0B0100000080B7E1E5FE7F00003D86F66C</property>
  <property name="seekable">1</property>
  <property name="audio_index">0</property>
  <property name="video_index">-1</property>
  <property name="kdenlive:clipname"/>
  <property name="kdenlive:clip_type">1</property>
  <property name="kdenlive:folderid">393</property>
  <property name="kdenlive:id">396</property>
  <property name="kdenlive:file_size">44890386</property>
  <property name="kdenlive:file_hash">a90bdf8200f7ce687f32f8f6d2afe98e</property>
  <property name="kdenlive:audio_max0">130</property>
 </chain>
 <chain id="chain344" out="00:02:39.750">
  <property name="length">9586</property>
  <property name="eof">pause</property>
  <property name="resource">audio/music/Nursery/A Little Powder */stems/04_A Little Powder_Rhodes.wav</property>
  <property name="mlt_service">avformat</property>
  <property name="meta.media.nb_streams">1</property>
  <property name="meta.media.0.stream.type">audio</property>
  <property name="meta.media.0.codec.sample_fmt">s32</property>
  <property name="meta.media.0.codec.sample_rate">44100</property>
  <property name="meta.media.0.codec.channels">2</property>
  <property name="meta.media.0.codec.name">pcm_s24le</property>
  <property name="meta.media.0.codec.long_name">PCM signed 24-bit little-endian</property>
  <property name="meta.media.0.codec.bit_rate">2116800</property>
  <property name="meta.attr.encoded_by.markup">Logic Pro X</property>
  <property name="meta.attr.date.markup">2018-02-12</property>
  <property name="meta.attr.creation_time.markup">14:21:07</property>
  <property name="meta.attr.time_reference.markup">159189498</property>
  <property name="meta.attr.umid.markup">0x00000000000000000000000000000000000000000000000000000000B200403FF3E80FCA40B7E1E5FE7F000050964C0B0100000080B7E1E5FE7F00003D86F66C</property>
  <property name="seekable">1</property>
  <property name="audio_index">0</property>
  <property name="video_index">-1</property>
  <property name="kdenlive:clipname"/>
  <property name="kdenlive:clip_type">1</property>
  <property name="kdenlive:folderid">393</property>
  <property name="kdenlive:id">397</property>
  <property name="kdenlive:file_size">42331154</property>
  <property name="kdenlive:file_hash">61dd41c9c23377f3855fc73823ec40a1</property>
  <property name="kdenlive:audio_max0">144</property>
 </chain>
 <chain id="chain347" out="00:02:47.183">
  <property name="length">10032</property>
  <property name="eof">pause</property>
  <property name="resource">audio/music/Nursery/A Little Powder */stems/05_A Little Powder_Tongue Drum.wav</property>
  <property name="mlt_service">avformat</property>
  <property name="meta.media.nb_streams">1</property>
  <property name="meta.media.0.stream.type">audio</property>
  <property name="meta.media.0.codec.sample_fmt">s32</property>
  <property name="meta.media.0.codec.sample_rate">44100</property>
  <property name="meta.media.0.codec.channels">2</property>
  <property name="meta.media.0.codec.name">pcm_s24le</property>
  <property name="meta.media.0.codec.long_name">PCM signed 24-bit little-endian</property>
  <property name="meta.media.0.codec.bit_rate">2116800</property>
  <property name="meta.attr.encoded_by.markup">Logic Pro X</property>
  <property name="meta.attr.date.markup">2018-02-12</property>
  <property name="meta.attr.creation_time.markup">14:21:01</property>
  <property name="meta.attr.time_reference.markup">159189498</property>
  <property name="meta.attr.umid.markup">0x00000000000000000000000000000000000000000000000000000000B200403FF3E80FCA40B7E1E5FE7F000050964C0B0100000080B7E1E5FE7F00003D86F66C</property>
  <property name="seekable">1</property>
  <property name="audio_index">0</property>
  <property name="video_index">-1</property>
  <property name="kdenlive:clipname"/>
  <property name="kdenlive:clip_type">1</property>
  <property name="kdenlive:folderid">393</property>
  <property name="kdenlive:id">398</property>
  <property name="kdenlive:file_size">44299794</property>
  <property name="kdenlive:file_hash">aec76ab29bb8c6be6f1137782b81215f</property>
  <property name="kdenlive:audio_max0">164</property>
 </chain>
 <chain id="chain353" out="00:02:33.067">
  <property name="length">9185</property>
  <property name="eof">pause</property>
  <property name="resource">audio/music/Nursery/A Little Powder */stems/06_A Little Powder_Rhodia SynPad.wav</property>
  <property name="mlt_service">avformat</property>
  <property name="meta.media.nb_streams">1</property>
  <property name="meta.media.0.stream.type">audio</property>
  <property name="meta.media.0.codec.sample_fmt">s32</property>
  <property name="meta.media.0.codec.sample_rate">44100</property>
  <property name="meta.media.0.codec.channels">2</property>
  <property name="meta.media.0.codec.name">pcm_s24le</property>
  <property name="meta.media.0.codec.long_name">PCM signed 24-bit little-endian</property>
  <property name="meta.media.0.codec.bit_rate">2116800</property>
  <property name="meta.attr.encoded_by.markup">Logic Pro X</property>
  <property name="meta.attr.date.markup">2018-02-12</property>
  <property name="meta.attr.creation_time.markup">14:21:04</property>
  <property name="meta.attr.time_reference.markup">159189498</property>
  <property name="meta.attr.umid.markup">0x00000000000000000000000000000000000000000000000000000000B200403FF3E80FCA40B7E1E5FE7F000050964C0B0100000080B7E1E5FE7F00003D86F66C</property>
  <property name="seekable">1</property>
  <property name="audio_index">0</property>
  <property name="video_index">-1</property>
  <property name="kdenlive:clipname"/>
  <property name="kdenlive:clip_type">1</property>
  <property name="kdenlive:folderid">393</property>
  <property name="kdenlive:id">399</property>
  <property name="kdenlive:file_size">40559378</property>
  <property name="kdenlive:file_hash">1e1be6b9d719d686da02a7081d0c2e25</property>
  <property name="kdenlive:audio_max0">84</property>
 </chain>
 <chain id="chain354" out="00:00:56.450">
  <property name="length">3388</property>
  <property name="eof">pause</property>
  <property name="resource">audio/music/Nursery/A Little Powder */variations/A Little Powder | 1 Min Piano.wav</property>
  <property name="mlt_service">avformat</property>
  <property name="meta.media.nb_streams">1</property>
  <property name="meta.media.0.stream.type">audio</property>
  <property name="meta.media.0.codec.sample_fmt">s32</property>
  <property name="meta.media.0.codec.sample_rate">44100</property>
  <property name="meta.media.0.codec.channels">2</property>
  <property name="meta.media.0.codec.name">pcm_s24le</property>
  <property name="meta.media.0.codec.long_name">PCM signed 24-bit little-endian</property>
  <property name="meta.media.0.codec.bit_rate">2116800</property>
  <property name="meta.attr.encoded_by.markup">Logic Pro X</property>
  <property name="meta.attr.date.markup">2018-02-12</property>
  <property name="meta.attr.creation_time.markup">14:24:53</property>
  <property name="meta.attr.time_reference.markup">164406927</property>
  <property name="meta.attr.umid.markup">0x00000000000000000000000000000000000000000000000000000000B200403FF3E80FCAD081E1E5FE7F000050964C0B010000001082E1E5FE7F00003D86F66C</property>
  <property name="meta.attr.album.markup">Nursery</property>
  <property name="seekable">1</property>
  <property name="audio_index">0</property>
  <property name="video_index">-1</property>
  <property name="kdenlive:clipname"/>
  <property name="kdenlive:clip_type">1</property>
  <property name="kdenlive:folderid">400</property>
  <property name="kdenlive:id">401</property>
  <property name="kdenlive:file_size">14944446</property>
  <property name="kdenlive:file_hash">829aabbdb03aa3b934f9b7f2b807fa34</property>
  <property name="kdenlive:audio_max0">223</property>
 </chain>
 <chain id="chain356" out="00:00:56.450">
  <property name="length">3388</property>
  <property name="eof">pause</property>
  <property name="resource">audio/music/Nursery/A Little Powder */variations/A Little Powder | 1 Min.wav</property>
  <property name="mlt_service">avformat</property>
  <property name="meta.media.nb_streams">1</property>
  <property name="meta.media.0.stream.type">audio</property>
  <property name="meta.media.0.codec.sample_fmt">s32</property>
  <property name="meta.media.0.codec.sample_rate">44100</property>
  <property name="meta.media.0.codec.channels">2</property>
  <property name="meta.media.0.codec.name">pcm_s24le</property>
  <property name="meta.media.0.codec.long_name">PCM signed 24-bit little-endian</property>
  <property name="meta.media.0.codec.bit_rate">2116800</property>
  <property name="meta.attr.encoded_by.markup">Logic Pro X</property>
  <property name="meta.attr.date.markup">2018-02-12</property>
  <property name="meta.attr.creation_time.markup">14:23:57</property>
  <property name="meta.attr.time_reference.markup">164406927</property>
  <property name="meta.attr.umid.markup">0x00000000000000000000000000000000000000000000000000000000B200403FF3E80FCAD081E1E5FE7F000050964C0B010000001082E1E5FE7F00003D86F66C</property>
  <property name="meta.attr.album.markup">Nursery</property>
  <property name="seekable">1</property>
  <property name="audio_index">0</property>
  <property name="video_index">-1</property>
  <property name="kdenlive:clipname"/>
  <property name="kdenlive:clip_type">1</property>
  <property name="kdenlive:folderid">400</property>
  <property name="kdenlive:id">402</property>
  <property name="kdenlive:file_size">14944446</property>
  <property name="kdenlive:file_hash">b47d1a0417d10997f457d6a9005fcab5</property>
  <property name="kdenlive:audio_max0">228</property>
 </chain>
 <chain id="chain357" out="00:00:31.350">
  <property name="length">1882</property>
  <property name="eof">pause</property>
  <property name="resource">audio/music/Nursery/A Little Powder */variations/A Little Powder | 30 Sec.wav</property>
  <property name="mlt_service">avformat</property>
  <property name="meta.media.nb_streams">1</property>
  <property name="meta.media.0.stream.type">audio</property>
  <property name="meta.media.0.codec.sample_fmt">s32</property>
  <property name="meta.media.0.codec.sample_rate">44100</property>
  <property name="meta.media.0.codec.channels">2</property>
  <property name="meta.media.0.codec.name">pcm_s24le</property>
  <property name="meta.media.0.codec.long_name">PCM signed 24-bit little-endian</property>
  <property name="meta.media.0.codec.bit_rate">2116800</property>
  <property name="meta.attr.encoded_by.markup">Logic Pro X</property>
  <property name="meta.attr.date.markup">2018-02-12</property>
  <property name="meta.attr.creation_time.markup">14:26:33</property>
  <property name="meta.attr.time_reference.markup">165282419</property>
  <property name="meta.attr.umid.markup">0x00000000000000000000000000000000000000000000000000000000B200403FF3E80FCAD081E1E5FE7F000050964C0B010000001082E1E5FE7F00003D86F66C</property>
  <property name="meta.attr.album.markup">Nursery</property>
  <property name="seekable">1</property>
  <property name="audio_index">0</property>
  <property name="video_index">-1</property>
  <property name="kdenlive:clipname"/>
  <property name="kdenlive:clip_type">1</property>
  <property name="kdenlive:folderid">400</property>
  <property name="kdenlive:id">403</property>
  <property name="kdenlive:file_size">8299862</property>
  <property name="kdenlive:file_hash">e0e7c8cc8f817119cc24e725cd619ea2</property>
  <property name="kdenlive:audio_max0">228</property>
 </chain>
 <chain id="chain358" out="00:02:25.267">
  <property name="length">8717</property>
  <property name="eof">pause</property>
  <property name="resource">audio/music/Nursery/A Little Powder */variations/A Little Powder | Ostinato Lead.wav</property>
  <property name="mlt_service">avformat</property>
  <property name="meta.media.nb_streams">1</property>
  <property name="meta.media.0.stream.type">audio</property>
  <property name="meta.media.0.codec.sample_fmt">s32</property>
  <property name="meta.media.0.codec.sample_rate">44100</property>
  <property name="meta.media.0.codec.channels">2</property>
  <property name="meta.media.0.codec.name">pcm_s24le</property>
  <property name="meta.media.0.codec.long_name">PCM signed 24-bit little-endian</property>
  <property name="meta.media.0.codec.bit_rate">2116800</property>
  <property name="meta.attr.encoded_by.markup">Logic Pro X</property>
  <property name="meta.attr.date.markup">2018-02-12</property>
  <property name="meta.attr.creation_time.markup">14:27:27</property>
  <property name="meta.attr.time_reference.markup">160490260</property>
  <property name="meta.attr.umid.markup">0x00000000000000000000000000000000000000000000000000000000B200403FF3E80FCAD081E1E5FE7F000050964C0B010000001082E1E5FE7F00003D86F66C</property>
  <property name="meta.attr.album.markup">Nursery</property>
  <property name="seekable">1</property>
  <property name="audio_index">0</property>
  <property name="video_index">-1</property>
  <property name="kdenlive:clipname"/>
  <property name="kdenlive:clip_type">1</property>
  <property name="kdenlive:folderid">400</property>
  <property name="kdenlive:id">404</property>
  <property name="kdenlive:file_size">38444448</property>
  <property name="kdenlive:file_hash">f81ef76f5026a960a222a00d383fe1f4</property>
  <property name="kdenlive:audio_max0">245</property>
 </chain>
 <chain id="chain359" out="00:01:36.000">
  <property name="length">5761</property>
  <property name="eof">pause</property>
  <property name="resource">audio/music/Nursery/A Little Powder */variations/A Little Powder | Short Piano.wav</property>
  <property name="mlt_service">avformat</property>
  <property name="meta.media.nb_streams">1</property>
  <property name="meta.media.0.stream.type">audio</property>
  <property name="meta.media.0.codec.sample_fmt">s32</property>
  <property name="meta.media.0.codec.sample_rate">44100</property>
  <property name="meta.media.0.codec.channels">2</property>
  <property name="meta.media.0.codec.name">pcm_s24le</property>
  <property name="meta.media.0.codec.long_name">PCM signed 24-bit little-endian</property>
  <property name="meta.media.0.codec.bit_rate">2116800</property>
  <property name="meta.attr.encoded_by.markup">Logic Pro X</property>
  <property name="meta.attr.date.markup">2018-02-12</property>
  <property name="meta.attr.creation_time.markup">14:28:21</property>
  <property name="meta.attr.time_reference.markup">162662843</property>
  <property name="meta.attr.umid.markup">0x00000000000000000000000000000000000000000000000000000000B200403FF3E80FCAD081E1E5FE7F000050964C0B010000001082E1E5FE7F00003D86F66C</property>
  <property name="meta.attr.album.markup">Nursery</property>
  <property name="seekable">1</property>
  <property name="audio_index">0</property>
  <property name="video_index">-1</property>
  <property name="kdenlive:clipname"/>
  <property name="kdenlive:clip_type">1</property>
  <property name="kdenlive:folderid">400</property>
  <property name="kdenlive:id">405</property>
  <property name="kdenlive:file_size">25408950</property>
  <property name="kdenlive:file_hash">c20ffe300dae455648ac97ed959ab093</property>
  <property name="kdenlive:audio_max0">234</property>
 </chain>
 <chain id="chain363" out="00:00:52.967">
  <property name="length">3179</property>
  <property name="eof">pause</property>
  <property name="resource">audio/music/Nursery/A Little Powder */variations/A Little Powder | Soft Interlude.wav</property>
  <property name="mlt_service">avformat</property>
  <property name="meta.media.nb_streams">1</property>
  <property name="meta.media.0.stream.type">audio</property>
  <property name="meta.media.0.codec.sample_fmt">s32</property>
  <property name="meta.media.0.codec.sample_rate">44100</property>
  <property name="meta.media.0.codec.channels">2</property>
  <property name="meta.media.0.codec.name">pcm_s24le</property>
  <property name="meta.media.0.codec.long_name">PCM signed 24-bit little-endian</property>
  <property name="meta.media.0.codec.bit_rate">2116800</property>
  <property name="meta.attr.encoded_by.markup">Logic Pro X</property>
  <property name="meta.attr.date.markup">2018-02-12</property>
  <property name="meta.attr.creation_time.markup">14:29:58</property>
  <property name="meta.attr.time_reference.markup">164197961</property>
  <property name="meta.attr.umid.markup">0x00000000000000000000000000000000000000000000000000000000B200403FF3E80FCAD081E1E5FE7F000050964C0B010000001082E1E5FE7F00003D86F66C</property>
  <property name="meta.attr.album.markup">Nursery</property>
  <property name="seekable">1</property>
  <property name="audio_index">0</property>
  <property name="video_index">-1</property>
  <property name="kdenlive:clipname"/>
  <property name="kdenlive:clip_type">1</property>
  <property name="kdenlive:folderid">400</property>
  <property name="kdenlive:id">406</property>
  <property name="kdenlive:file_size">14023446</property>
  <property name="kdenlive:file_hash">2287010c5cb625493203dd8682aa0096</property>
  <property name="kdenlive:audio_max0">221</property>
 </chain>
 <chain id="chain364" out="00:00:46.483">
  <property name="length">2790</property>
  <property name="eof">pause</property>
  <property name="resource">audio/music/Nursery/A Little Powder */variations/A Little Powder | The Most Minimal Piano.wav</property>
  <property name="mlt_service">avformat</property>
  <property name="meta.media.nb_streams">1</property>
  <property name="meta.media.0.stream.type">audio</property>
  <property name="meta.media.0.codec.sample_fmt">s32</property>
  <property name="meta.media.0.codec.sample_rate">44100</property>
  <property name="meta.media.0.codec.channels">2</property>
  <property name="meta.media.0.codec.name">pcm_s24le</property>
  <property name="meta.media.0.codec.long_name">PCM signed 24-bit little-endian</property>
  <property name="meta.media.0.codec.bit_rate">2116800</property>
  <property name="meta.attr.encoded_by.markup">Logic Pro X</property>
  <property name="meta.attr.date.markup">2018-02-12</property>
  <property name="meta.attr.creation_time.markup">14:22:12</property>
  <property name="meta.attr.time_reference.markup">159218848</property>
  <property name="meta.attr.umid.markup">0x00000000000000000000000000000000000000000000000000000000B200403FF3E80FCAD081E1E5FE7F000050964C0B010000001082E1E5FE7F00003D86F66C</property>
  <property name="meta.attr.album.markup">Nursery</property>
  <property name="seekable">1</property>
  <property name="audio_index">0</property>
  <property name="video_index">-1</property>
  <property name="kdenlive:clipname"/>
  <property name="kdenlive:clip_type">1</property>
  <property name="kdenlive:folderid">400</property>
  <property name="kdenlive:id">407</property>
  <property name="kdenlive:file_size">12307206</property>
  <property name="kdenlive:file_hash">f7425ea42a86cfce865d13f105d0271c</property>
  <property name="kdenlive:audio_max0">180</property>
 </chain>
 <chain id="chain365" out="00:00:46.483">
  <property name="length">2790</property>
  <property name="eof">pause</property>
  <property name="resource">audio/music/Nursery/A Little Powder */variations/A Little Powder | The Most Minimal.wav</property>
  <property name="mlt_service">avformat</property>
  <property name="meta.media.nb_streams">1</property>
  <property name="meta.media.0.stream.type">audio</property>
  <property name="meta.media.0.codec.sample_fmt">s32</property>
  <property name="meta.media.0.codec.sample_rate">44100</property>
  <property name="meta.media.0.codec.channels">2</property>
  <property name="meta.media.0.codec.name">pcm_s24le</property>
  <property name="meta.media.0.codec.long_name">PCM signed 24-bit little-endian</property>
  <property name="meta.media.0.codec.bit_rate">2116800</property>
  <property name="meta.attr.encoded_by.markup">Logic Pro X</property>
  <property name="meta.attr.date.markup">2018-02-12</property>
  <property name="meta.attr.creation_time.markup">14:21:54</property>
  <property name="meta.attr.time_reference.markup">159218848</property>
  <property name="meta.attr.umid.markup">0x00000000000000000000000000000000000000000000000000000000B200403FF3E80FCAD081E1E5FE7F000050964C0B010000001082E1E5FE7F00003D86F66C</property>
  <property name="meta.attr.album.markup">Nursery</property>
  <property name="seekable">1</property>
  <property name="audio_index">0</property>
  <property name="video_index">-1</property>
  <property name="kdenlive:clipname"/>
  <property name="kdenlive:clip_type">1</property>
  <property name="kdenlive:folderid">400</property>
  <property name="kdenlive:id">408</property>
  <property name="kdenlive:file_size">12307206</property>
  <property name="kdenlive:file_hash">66d524c8a35f12263cc3bb35e6f54659</property>
  <property name="kdenlive:audio_max0">191</property>
 </chain>
 <chain id="chain368" out="00:03:46.850">
  <property name="length">13612</property>
  <property name="eof">pause</property>
  <property name="resource">audio/music/Nursery/Blood Petal/Blood Petal.wav</property>
  <property name="mlt_service">avformat</property>
  <property name="meta.media.nb_streams">1</property>
  <property name="meta.media.0.stream.type">audio</property>
  <property name="meta.media.0.codec.sample_fmt">s32</property>
  <property name="meta.media.0.codec.sample_rate">44100</property>
  <property name="meta.media.0.codec.channels">2</property>
  <property name="meta.media.0.codec.name">pcm_s24le</property>
  <property name="meta.media.0.codec.long_name">PCM signed 24-bit little-endian</property>
  <property name="meta.media.0.codec.bit_rate">2116800</property>
  <property name="meta.attr.encoded_by.markup">Logic Pro X</property>
  <property name="meta.attr.date.markup">2016-09-20</property>
  <property name="meta.attr.creation_time.markup">19:16:10</property>
  <property name="meta.attr.time_reference.markup">158760000</property>
  <property name="meta.attr.umid.markup">0x00000000F227204F83D100C330BA3658FF7F0000C0A00208006000000000000000000000463485080100000070301476FF7F000060B23658FF7F00002AB5FC8B</property>
  <property name="meta.attr.album.markup">Nursery</property>
  <property name="seekable">1</property>
  <property name="audio_index">0</property>
  <property name="video_index">-1</property>
  <property name="kdenlive:clipname"/>
  <property name="kdenlive:clip_type">1</property>
  <property name="kdenlive:folderid">409</property>
  <property name="kdenlive:id">410</property>
  <property name="kdenlive:file_size">60032910</property>
  <property name="kdenlive:file_hash">d2eaca5bc792b7e95e559669627b080e</property>
  <property name="kdenlive:audio_max0">251</property>
 </chain>
 <chain id="chain371" out="00:03:46.850">
  <property name="length">13612</property>
  <property name="eof">pause</property>
  <property name="resource">audio/music/Nursery/Blood Petal/stems/01_Blood Petal_Rhodes.wav</property>
  <property name="mlt_service">avformat</property>
  <property name="meta.media.nb_streams">1</property>
  <property name="meta.media.0.stream.type">audio</property>
  <property name="meta.media.0.codec.sample_fmt">s32</property>
  <property name="meta.media.0.codec.sample_rate">44100</property>
  <property name="meta.media.0.codec.channels">2</property>
  <property name="meta.media.0.codec.name">pcm_s24le</property>
  <property name="meta.media.0.codec.long_name">PCM signed 24-bit little-endian</property>
  <property name="meta.media.0.codec.bit_rate">2116800</property>
  <property name="meta.attr.encoded_by.markup">Logic Pro X</property>
  <property name="meta.attr.date.markup">2016-09-20</property>
  <property name="meta.attr.creation_time.markup">18:08:21</property>
  <property name="meta.attr.time_reference.markup">158760000</property>
  <property name="meta.attr.umid.markup">0x00000000F227204F83D100C330BA3658FF7F000080132208006000000000000000000000463485080100000070301476FF7F000060B23658FF7F00002AB5FC8B</property>
  <property name="seekable">1</property>
  <property name="audio_index">0</property>
  <property name="video_index">-1</property>
  <property name="kdenlive:clipname"/>
  <property name="kdenlive:clip_type">1</property>
  <property name="kdenlive:folderid">411</property>
  <property name="kdenlive:id">412</property>
  <property name="kdenlive:file_size">60031850</property>
  <property name="kdenlive:file_hash">80e519a6699550c7999c810763112418</property>
  <property name="kdenlive:audio_max0">217</property>
 </chain>
 <chain id="chain374" out="00:03:46.850">
  <property name="length">13612</property>
  <property name="eof">pause</property>
  <property name="resource">audio/music/Nursery/Blood Petal/stems/02_Blood Petal_Electric Guitar.wav</property>
  <property name="mlt_service">avformat</property>
  <property name="meta.media.nb_streams">1</property>
  <property name="meta.media.0.stream.type">audio</property>
  <property name="meta.media.0.codec.sample_fmt">s32</property>
  <property name="meta.media.0.codec.sample_rate">44100</property>
  <property name="meta.media.0.codec.channels">2</property>
  <property name="meta.media.0.codec.name">pcm_s24le</property>
  <property name="meta.media.0.codec.long_name">PCM signed 24-bit little-endian</property>
  <property name="meta.media.0.codec.bit_rate">2116800</property>
  <property name="meta.attr.encoded_by.markup">Logic Pro X</property>
  <property name="meta.attr.date.markup">2016-09-20</property>
  <property name="meta.attr.creation_time.markup">18:07:41</property>
  <property name="meta.attr.time_reference.markup">158760000</property>
  <property name="meta.attr.umid.markup">0x00000000F227204F83D100C330BA3658FF7F0000C0DFC207806100000000000000000000463485080100000070301476FF7F000060B23658FF7F00002AB5FC8B</property>
  <property name="seekable">1</property>
  <property name="audio_index">0</property>
  <property name="video_index">-1</property>
  <property name="kdenlive:clipname"/>
  <property name="kdenlive:clip_type">1</property>
  <property name="kdenlive:folderid">411</property>
  <property name="kdenlive:id">413</property>
  <property name="kdenlive:file_size">60031850</property>
  <property name="kdenlive:file_hash">75bc7aec0113aaafbfbaeb2025a66c8b</property>
  <property name="kdenlive:audio_max0">244</property>
 </chain>
 <chain id="chain378" out="00:03:46.850">
  <property name="length">13612</property>
  <property name="eof">pause</property>
  <property name="resource">audio/music/Nursery/Blood Petal/stems/03_Blood Petal_Tongue Drum.wav</property>
  <property name="mlt_service">avformat</property>
  <property name="meta.media.nb_streams">1</property>
  <property name="meta.media.0.stream.type">audio</property>
  <property name="meta.media.0.codec.sample_fmt">s32</property>
  <property name="meta.media.0.codec.sample_rate">44100</property>
  <property name="meta.media.0.codec.channels">2</property>
  <property name="meta.media.0.codec.name">pcm_s24le</property>
  <property name="meta.media.0.codec.long_name">PCM signed 24-bit little-endian</property>
  <property name="meta.media.0.codec.bit_rate">2116800</property>
  <property name="meta.attr.encoded_by.markup">Logic Pro X</property>
  <property name="meta.attr.date.markup">2016-09-20</property>
  <property name="meta.attr.creation_time.markup">18:07:03</property>
  <property name="meta.attr.time_reference.markup">158760000</property>
  <property name="meta.attr.umid.markup">0x00000000F227204F83D100C330BA3658FF7F0000E0C1C309006000000000000000000000463485080100000070301476FF7F000060B23658FF7F00002AB5FC8B</property>
  <property name="seekable">1</property>
  <property name="audio_index">0</property>
  <property name="video_index">-1</property>
  <property name="kdenlive:clipname"/>
  <property name="kdenlive:clip_type">1</property>
  <property name="kdenlive:folderid">411</property>
  <property name="kdenlive:id">414</property>
  <property name="kdenlive:file_size">60031850</property>
  <property name="kdenlive:file_hash">63ecdf046ecacb266442bde6c458a917</property>
  <property name="kdenlive:audio_max0">216</property>
 </chain>
 <chain id="chain381" out="00:03:46.850">
  <property name="length">13612</property>
  <property name="eof">pause</property>
  <property name="resource">audio/music/Nursery/Blood Petal/stems/04_Blood Petal_Found Percussion.wav</property>
  <property name="mlt_service">avformat</property>
  <property name="meta.media.nb_streams">1</property>
  <property name="meta.media.0.stream.type">audio</property>
  <property name="meta.media.0.codec.sample_fmt">s32</property>
  <property name="meta.media.0.codec.sample_rate">44100</property>
  <property name="meta.media.0.codec.channels">2</property>
  <property name="meta.media.0.codec.name">pcm_s24le</property>
  <property name="meta.media.0.codec.long_name">PCM signed 24-bit little-endian</property>
  <property name="meta.media.0.codec.bit_rate">2116800</property>
  <property name="meta.attr.encoded_by.markup">Logic Pro X</property>
  <property name="meta.attr.date.markup">2016-09-20</property>
  <property name="meta.attr.creation_time.markup">18:06:26</property>
  <property name="meta.attr.time_reference.markup">158760000</property>
  <property name="meta.attr.umid.markup">0x00000000F227204F83D100C330BA3658FF7F000040E2A200006000000000000000000000463485080100000070301476FF7F000060B23658FF7F00002AB5FC8B</property>
  <property name="seekable">1</property>
  <property name="audio_index">0</property>
  <property name="video_index">-1</property>
  <property name="kdenlive:clipname"/>
  <property name="kdenlive:clip_type">1</property>
  <property name="kdenlive:folderid">411</property>
  <property name="kdenlive:id">415</property>
  <property name="kdenlive:file_size">60031850</property>
  <property name="kdenlive:file_hash">be86004915dff9281c8367c89e5eae4f</property>
  <property name="kdenlive:audio_max0">232</property>
 </chain>
 <chain id="chain382" out="00:03:46.850">
  <property name="length">13612</property>
  <property name="eof">pause</property>
  <property name="resource">audio/music/Nursery/Blood Petal/stems/05_Blood Petal_Rhodia SynPad.wav</property>
  <property name="mlt_service">avformat</property>
  <property name="meta.media.nb_streams">1</property>
  <property name="meta.media.0.stream.type">audio</property>
  <property name="meta.media.0.codec.sample_fmt">s32</property>
  <property name="meta.media.0.codec.sample_rate">44100</property>
  <property name="meta.media.0.codec.channels">2</property>
  <property name="meta.media.0.codec.name">pcm_s24le</property>
  <property name="meta.media.0.codec.long_name">PCM signed 24-bit little-endian</property>
  <property name="meta.media.0.codec.bit_rate">2116800</property>
  <property name="meta.attr.encoded_by.markup">Logic Pro X</property>
  <property name="meta.attr.date.markup">2016-09-20</property>
  <property name="meta.attr.creation_time.markup">18:05:54</property>
  <property name="meta.attr.time_reference.markup">158760000</property>
  <property name="meta.attr.umid.markup">0x00000000F227204F83D100C330BA3658FF7F0000605EE209006000000000000000000000463485080100000070301476FF7F000060B23658FF7F00002AB5FC8B</property>
  <property name="seekable">1</property>
  <property name="audio_index">0</property>
  <property name="video_index">-1</property>
  <property name="kdenlive:clipname"/>
  <property name="kdenlive:clip_type">1</property>
  <property name="kdenlive:folderid">411</property>
  <property name="kdenlive:id">416</property>
  <property name="kdenlive:file_size">60031850</property>
  <property name="kdenlive:file_hash">c769fe73be2b0bfcb8d92d2c479aa2e9</property>
  <property name="kdenlive:audio_max0">142</property>
 </chain>
 <chain id="chain385" out="00:02:55.883">
  <property name="length">10554</property>
  <property name="eof">pause</property>
  <property name="resource">audio/music/Nursery/Brass Buttons/Brass Buttons.wav</property>
  <property name="mlt_service">avformat</property>
  <property name="meta.media.nb_streams">1</property>
  <property name="meta.media.0.stream.type">audio</property>
  <property name="meta.media.0.codec.sample_fmt">s32</property>
  <property name="meta.media.0.codec.sample_rate">44100</property>
  <property name="meta.media.0.codec.channels">2</property>
  <property name="meta.media.0.codec.name">pcm_s24le</property>
  <property name="meta.media.0.codec.long_name">PCM signed 24-bit little-endian</property>
  <property name="meta.media.0.codec.bit_rate">2116800</property>
  <property name="meta.attr.encoded_by.markup">Logic Pro X</property>
  <property name="meta.attr.date.markup">2016-10-15</property>
  <property name="meta.attr.creation_time.markup">12:50:24</property>
  <property name="meta.attr.time_reference.markup">158760000</property>
  <property name="meta.attr.umid.markup">0x00000000D6A9DD3E92780051303A6853FF7F0000001D830500600000000000000000000046B4530D0100000070C0CE7BFF7F000060326853FF7F00002A45B791</property>
  <property name="meta.attr.album.markup">Nursery</property>
  <property name="seekable">1</property>
  <property name="audio_index">0</property>
  <property name="video_index">-1</property>
  <property name="kdenlive:clipname"/>
  <property name="kdenlive:clip_type">1</property>
  <property name="kdenlive:folderid">417</property>
  <property name="kdenlive:id">418</property>
  <property name="kdenlive:file_size">46545092</property>
  <property name="kdenlive:file_hash">5bf7ffc06b6fe430c4e5fd0117307a53</property>
  <property name="kdenlive:audio_max0">249</property>
 </chain>
 <chain id="chain386" out="00:02:55.883">
  <property name="length">10554</property>
  <property name="eof">pause</property>
  <property name="resource">audio/music/Nursery/Brass Buttons/stems/01_Brass Buttons_Rhodes.wav</property>
  <property name="mlt_service">avformat</property>
  <property name="meta.media.nb_streams">1</property>
  <property name="meta.media.0.stream.type">audio</property>
  <property name="meta.media.0.codec.sample_fmt">s32</property>
  <property name="meta.media.0.codec.sample_rate">44100</property>
  <property name="meta.media.0.codec.channels">2</property>
  <property name="meta.media.0.codec.name">pcm_s24le</property>
  <property name="meta.media.0.codec.long_name">PCM signed 24-bit little-endian</property>
  <property name="meta.media.0.codec.bit_rate">2116800</property>
  <property name="meta.attr.encoded_by.markup">Logic Pro X</property>
  <property name="meta.attr.date.markup">2016-10-15</property>
  <property name="meta.attr.creation_time.markup">12:53:30</property>
  <property name="meta.attr.time_reference.markup">158760000</property>
  <property name="meta.attr.umid.markup">0x00000000D6A9DD3E92780051303A6853FF7F0000A052420080610000000000000000000046B4530D0100000070C0CE7BFF7F000060326853FF7F00002A45B791</property>
  <property name="seekable">1</property>
  <property name="audio_index">0</property>
  <property name="video_index">-1</property>
  <property name="kdenlive:clipname"/>
  <property name="kdenlive:clip_type">1</property>
  <property name="kdenlive:folderid">419</property>
  <property name="kdenlive:id">420</property>
  <property name="kdenlive:file_size">46544032</property>
  <property name="kdenlive:file_hash">7227d395b0f88f629cbc82a3affe72ac</property>
  <property name="kdenlive:audio_max0">182</property>
 </chain>
 <chain id="chain389" out="00:02:55.883">
  <property name="length">10554</property>
  <property name="eof">pause</property>
  <property name="resource">audio/music/Nursery/Brass Buttons/stems/02_Brass Buttons_Piano.wav</property>
  <property name="mlt_service">avformat</property>
  <property name="meta.media.nb_streams">1</property>
  <property name="meta.media.0.stream.type">audio</property>
  <property name="meta.media.0.codec.sample_fmt">s32</property>
  <property name="meta.media.0.codec.sample_rate">44100</property>
  <property name="meta.media.0.codec.channels">2</property>
  <property name="meta.media.0.codec.name">pcm_s24le</property>
  <property name="meta.media.0.codec.long_name">PCM signed 24-bit little-endian</property>
  <property name="meta.media.0.codec.bit_rate">2116800</property>
  <property name="meta.attr.encoded_by.markup">Logic Pro X</property>
  <property name="meta.attr.date.markup">2016-10-15</property>
  <property name="meta.attr.creation_time.markup">12:52:56</property>
  <property name="meta.attr.time_reference.markup">158760000</property>
  <property name="meta.attr.umid.markup">0x00000000D6A9DD3E92780051303A6853FF7F00006091E20B00610000000000000000000046B4530D0100000070C0CE7BFF7F000060326853FF7F00002A45B791</property>
  <property name="seekable">1</property>
  <property name="audio_index">0</property>
  <property name="video_index">-1</property>
  <property name="kdenlive:clipname"/>
  <property name="kdenlive:clip_type">1</property>
  <property name="kdenlive:folderid">419</property>
  <property name="kdenlive:id">421</property>
  <property name="kdenlive:file_size">46544032</property>
  <property name="kdenlive:file_hash">51b876541bb28d4c65b393f5e4b6e0c1</property>
  <property name="kdenlive:audio_max0">211</property>
 </chain>
 <chain id="chain392" out="00:02:55.883">
  <property name="length">10554</property>
  <property name="eof">pause</property>
  <property name="resource">audio/music/Nursery/Brass Buttons/stems/03_Brass Buttons_Tongue Drum.wav</property>
  <property name="mlt_service">avformat</property>
  <property name="meta.media.nb_streams">1</property>
  <property name="meta.media.0.stream.type">audio</property>
  <property name="meta.media.0.codec.sample_fmt">s32</property>
  <property name="meta.media.0.codec.sample_rate">44100</property>
  <property name="meta.media.0.codec.channels">2</property>
  <property name="meta.media.0.codec.name">pcm_s24le</property>
  <property name="meta.media.0.codec.long_name">PCM signed 24-bit little-endian</property>
  <property name="meta.media.0.codec.bit_rate">2116800</property>
  <property name="meta.attr.encoded_by.markup">Logic Pro X</property>
  <property name="meta.attr.date.markup">2016-10-15</property>
  <property name="meta.attr.creation_time.markup">12:52:22</property>
  <property name="meta.attr.time_reference.markup">158760000</property>
  <property name="meta.attr.umid.markup">0x00000000D6A9DD3E92780051303A6853FF7F00008068420500600000000000000000000046B4530D0100000070C0CE7BFF7F000060326853FF7F00002A45B791</property>
  <property name="seekable">1</property>
  <property name="audio_index">0</property>
  <property name="video_index">-1</property>
  <property name="kdenlive:clipname"/>
  <property name="kdenlive:clip_type">1</property>
  <property name="kdenlive:folderid">419</property>
  <property name="kdenlive:id">422</property>
  <property name="kdenlive:file_size">46544032</property>
  <property name="kdenlive:file_hash">935414fe998ce895867382b28ffb0024</property>
  <property name="kdenlive:audio_max0">192</property>
 </chain>
 <chain id="chain397" out="00:02:55.883">
  <property name="length">10554</property>
  <property name="eof">pause</property>
  <property name="resource">audio/music/Nursery/Brass Buttons/stems/04_Brass Buttons_Percussion.wav</property>
  <property name="mlt_service">avformat</property>
  <property name="meta.media.nb_streams">1</property>
  <property name="meta.media.0.stream.type">audio</property>
  <property name="meta.media.0.codec.sample_fmt">s32</property>
  <property name="meta.media.0.codec.sample_rate">44100</property>
  <property name="meta.media.0.codec.channels">2</property>
  <property name="meta.media.0.codec.name">pcm_s24le</property>
  <property name="meta.media.0.codec.long_name">PCM signed 24-bit little-endian</property>
  <property name="meta.media.0.codec.bit_rate">2116800</property>
  <property name="meta.attr.encoded_by.markup">Logic Pro X</property>
  <property name="meta.attr.date.markup">2016-10-15</property>
  <property name="meta.attr.creation_time.markup">12:51:45</property>
  <property name="meta.attr.time_reference.markup">158760000</property>
  <property name="meta.attr.umid.markup">0x00000000D6A9DD3E92780051303A6853FF7F0000C000620500600000000000000000000046B4530D0100000070C0CE7BFF7F000060326853FF7F00002A45B791</property>
  <property name="seekable">1</property>
  <property name="audio_index">0</property>
  <property name="video_index">-1</property>
  <property name="kdenlive:clipname"/>
  <property name="kdenlive:clip_type">1</property>
  <property name="kdenlive:folderid">419</property>
  <property name="kdenlive:id">423</property>
  <property name="kdenlive:file_size">46544032</property>
  <property name="kdenlive:file_hash">afd19eeae5c15cd6b010740c58ccfb18</property>
  <property name="kdenlive:audio_max0">216</property>
 </chain>
 <chain id="chain398" out="00:02:55.883">
  <property name="length">10554</property>
  <property name="eof">pause</property>
  <property name="resource">audio/music/Nursery/Brass Buttons/stems/05_Brass Buttons_Skrea SynPad.wav</property>
  <property name="mlt_service">avformat</property>
  <property name="meta.media.nb_streams">1</property>
  <property name="meta.media.0.stream.type">audio</property>
  <property name="meta.media.0.codec.sample_fmt">s32</property>
  <property name="meta.media.0.codec.sample_rate">44100</property>
  <property name="meta.media.0.codec.channels">2</property>
  <property name="meta.media.0.codec.name">pcm_s24le</property>
  <property name="meta.media.0.codec.long_name">PCM signed 24-bit little-endian</property>
  <property name="meta.media.0.codec.bit_rate">2116800</property>
  <property name="meta.attr.encoded_by.markup">Logic Pro X</property>
  <property name="meta.attr.date.markup">2016-10-15</property>
  <property name="meta.attr.creation_time.markup">12:51:12</property>
  <property name="meta.attr.time_reference.markup">158760000</property>
  <property name="meta.attr.umid.markup">0x00000000D6A9DD3E92780051303A6853FF7F000040B4430500600000000000000000000046B4530D0100000070C0CE7BFF7F000060326853FF7F00002A45B791</property>
  <property name="seekable">1</property>
  <property name="audio_index">0</property>
  <property name="video_index">-1</property>
  <property name="kdenlive:clipname"/>
  <property name="kdenlive:clip_type">1</property>
  <property name="kdenlive:folderid">419</property>
  <property name="kdenlive:id">424</property>
  <property name="kdenlive:file_size">46544032</property>
  <property name="kdenlive:file_hash">7664475f78a7573951b40b52fdfb0d7c</property>
  <property name="kdenlive:audio_max0">149</property>
 </chain>
 <chain id="chain403" out="00:03:56.233">
  <property name="length">14175</property>
  <property name="eof">pause</property>
  <property name="resource">audio/music/Nursery/Corner Aisle/Corner Aisle.wav</property>
  <property name="mlt_service">avformat</property>
  <property name="meta.media.nb_streams">1</property>
  <property name="meta.media.0.stream.type">audio</property>
  <property name="meta.media.0.codec.sample_fmt">s32</property>
  <property name="meta.media.0.codec.sample_rate">44100</property>
  <property name="meta.media.0.codec.channels">2</property>
  <property name="meta.media.0.codec.name">pcm_s24le</property>
  <property name="meta.media.0.codec.long_name">PCM signed 24-bit little-endian</property>
  <property name="meta.media.0.codec.bit_rate">2116800</property>
  <property name="meta.attr.encoded_by.markup">Logic Pro X</property>
  <property name="meta.attr.date.markup">2016-09-20</property>
  <property name="meta.attr.creation_time.markup">18:35:17</property>
  <property name="meta.attr.time_reference.markup">158760000</property>
  <property name="meta.attr.umid.markup">0x00000000F227204F83D100C330BA3658FF7F0000E050A304006000000000000000000000463485080100000070301476FF7F000060B23658FF7F00002AB5FC8B</property>
  <property name="meta.attr.album.markup">Nursery</property>
  <property name="seekable">1</property>
  <property name="audio_index">0</property>
  <property name="video_index">-1</property>
  <property name="kdenlive:clipname"/>
  <property name="kdenlive:clip_type">1</property>
  <property name="kdenlive:folderid">425</property>
  <property name="kdenlive:id">426</property>
  <property name="kdenlive:file_size">62513538</property>
  <property name="kdenlive:file_hash">4c99d5c963f063a3df928674e6c9f47f</property>
  <property name="kdenlive:audio_max0">250</property>
 </chain>
 <chain id="chain404" out="00:03:56.233">
  <property name="length">14175</property>
  <property name="eof">pause</property>
  <property name="resource">audio/music/Nursery/Corner Aisle/stems/01_Corner Aisle_Rhodes.wav</property>
  <property name="mlt_service">avformat</property>
  <property name="meta.media.nb_streams">1</property>
  <property name="meta.media.0.stream.type">audio</property>
  <property name="meta.media.0.codec.sample_fmt">s32</property>
  <property name="meta.media.0.codec.sample_rate">44100</property>
  <property name="meta.media.0.codec.channels">2</property>
  <property name="meta.media.0.codec.name">pcm_s24le</property>
  <property name="meta.media.0.codec.long_name">PCM signed 24-bit little-endian</property>
  <property name="meta.media.0.codec.bit_rate">2116800</property>
  <property name="meta.attr.encoded_by.markup">Logic Pro X</property>
  <property name="meta.attr.date.markup">2016-09-20</property>
  <property name="meta.attr.creation_time.markup">18:38:05</property>
  <property name="meta.attr.time_reference.markup">158760000</property>
  <property name="meta.attr.umid.markup">0x00000000F227204F83D100C330BA3658FF7F000000BC6305006000000000000000000000463485080100000070301476FF7F000060B23658FF7F00002AB5FC8B</property>
  <property name="seekable">1</property>
  <property name="audio_index">0</property>
  <property name="video_index">-1</property>
  <property name="kdenlive:clipname"/>
  <property name="kdenlive:clip_type">1</property>
  <property name="kdenlive:folderid">427</property>
  <property name="kdenlive:id">428</property>
  <property name="kdenlive:file_size">62512478</property>
  <property name="kdenlive:file_hash">ce1767cb96ef824acad582fab70d74d7</property>
  <property name="kdenlive:audio_max0">224</property>
 </chain>
 <chain id="chain408" out="00:03:56.233">
  <property name="length">14175</property>
  <property name="eof">pause</property>
  <property name="resource">audio/music/Nursery/Corner Aisle/stems/02_Corner Aisle_Electric Guitar.wav</property>
  <property name="mlt_service">avformat</property>
  <property name="meta.media.nb_streams">1</property>
  <property name="meta.media.0.stream.type">audio</property>
  <property name="meta.media.0.codec.sample_fmt">s32</property>
  <property name="meta.media.0.codec.sample_rate">44100</property>
  <property name="meta.media.0.codec.channels">2</property>
  <property name="meta.media.0.codec.name">pcm_s24le</property>
  <property name="meta.media.0.codec.long_name">PCM signed 24-bit little-endian</property>
  <property name="meta.media.0.codec.bit_rate">2116800</property>
  <property name="meta.attr.encoded_by.markup">Logic Pro X</property>
  <property name="meta.attr.date.markup">2016-09-20</property>
  <property name="meta.attr.creation_time.markup">18:37:30</property>
  <property name="meta.attr.time_reference.markup">158760000</property>
  <property name="meta.attr.umid.markup">0x00000000F227204F83D100C330BA3658FF7F000040966305006000000000000000000000463485080100000070301476FF7F000060B23658FF7F00002AB5FC8B</property>
  <property name="seekable">1</property>
  <property name="audio_index">0</property>
  <property name="video_index">-1</property>
  <property name="kdenlive:clipname"/>
  <property name="kdenlive:clip_type">1</property>
  <property name="kdenlive:folderid">427</property>
  <property name="kdenlive:id">429</property>
  <property name="kdenlive:file_size">62512478</property>
  <property name="kdenlive:file_hash">36cee8dfe94da9670d7d43468207273b</property>
  <property name="kdenlive:audio_max0">248</property>
 </chain>
 <chain id="chain407" out="00:03:56.233">
  <property name="length">14175</property>
  <property name="eof">pause</property>
  <property name="resource">audio/music/Nursery/Corner Aisle/stems/03_Corner Aisle_Tongue Drum.wav</property>
  <property name="mlt_service">avformat</property>
  <property name="meta.media.nb_streams">1</property>
  <property name="meta.media.0.stream.type">audio</property>
  <property name="meta.media.0.codec.sample_fmt">s32</property>
  <property name="meta.media.0.codec.sample_rate">44100</property>
  <property name="meta.media.0.codec.channels">2</property>
  <property name="meta.media.0.codec.name">pcm_s24le</property>
  <property name="meta.media.0.codec.long_name">PCM signed 24-bit little-endian</property>
  <property name="meta.media.0.codec.bit_rate">2116800</property>
  <property name="meta.attr.encoded_by.markup">Logic Pro X</property>
  <property name="meta.attr.date.markup">2016-09-20</property>
  <property name="meta.attr.creation_time.markup">18:36:54</property>
  <property name="meta.attr.time_reference.markup">158760000</property>
  <property name="meta.attr.umid.markup">0x00000000F227204F83D100C330BA3658FF7F0000C0306305006000000000000000000000463485080100000070301476FF7F000060B23658FF7F00002AB5FC8B</property>
  <property name="seekable">1</property>
  <property name="audio_index">0</property>
  <property name="video_index">-1</property>
  <property name="kdenlive:clipname"/>
  <property name="kdenlive:clip_type">1</property>
  <property name="kdenlive:folderid">427</property>
  <property name="kdenlive:id">430</property>
  <property name="kdenlive:file_size">62512478</property>
  <property name="kdenlive:file_hash">35c2f162d87246907cda5c1d7409bc94</property>
  <property name="kdenlive:audio_max0">219</property>
 </chain>
 <chain id="chain409" out="00:03:56.233">
  <property name="length">14175</property>
  <property name="eof">pause</property>
  <property name="resource">audio/music/Nursery/Corner Aisle/stems/04_Corner Aisle_Rhodia SynPad.wav</property>
  <property name="mlt_service">avformat</property>
  <property name="meta.media.nb_streams">1</property>
  <property name="meta.media.0.stream.type">audio</property>
  <property name="meta.media.0.codec.sample_fmt">s32</property>
  <property name="meta.media.0.codec.sample_rate">44100</property>
  <property name="meta.media.0.codec.channels">2</property>
  <property name="meta.media.0.codec.name">pcm_s24le</property>
  <property name="meta.media.0.codec.long_name">PCM signed 24-bit little-endian</property>
  <property name="meta.media.0.codec.bit_rate">2116800</property>
  <property name="meta.attr.encoded_by.markup">Logic Pro X</property>
  <property name="meta.attr.date.markup">2016-09-20</property>
  <property name="meta.attr.creation_time.markup">18:36:19</property>
  <property name="meta.attr.time_reference.markup">158760000</property>
  <property name="meta.attr.umid.markup">0x00000000F227204F83D100C330BA3658FF7F0000C0076305006000000000000000000000463485080100000070301476FF7F000060B23658FF7F00002AB5FC8B</property>
  <property name="seekable">1</property>
  <property name="audio_index">0</property>
  <property name="video_index">-1</property>
  <property name="kdenlive:clipname"/>
  <property name="kdenlive:clip_type">1</property>
  <property name="kdenlive:folderid">427</property>
  <property name="kdenlive:id">431</property>
  <property name="kdenlive:file_size">62512478</property>
  <property name="kdenlive:file_hash">57edd9b2a94413b92799c1773f7928e8</property>
  <property name="kdenlive:audio_max0">157</property>
 </chain>
 <chain id="chain417" out="00:04:02.983">
  <property name="length">14580</property>
  <property name="eof">pause</property>
  <property name="resource">audio/music/Nursery/Cradle Rock/Cradle Rock.wav</property>
  <property name="mlt_service">avformat</property>
  <property name="meta.media.nb_streams">1</property>
  <property name="meta.media.0.stream.type">audio</property>
  <property name="meta.media.0.codec.sample_fmt">s32</property>
  <property name="meta.media.0.codec.sample_rate">44100</property>
  <property name="meta.media.0.codec.channels">2</property>
  <property name="meta.media.0.codec.name">pcm_s24le</property>
  <property name="meta.media.0.codec.long_name">PCM signed 24-bit little-endian</property>
  <property name="meta.media.0.codec.bit_rate">2116800</property>
  <property name="meta.attr.encoded_by.markup">Logic Pro X</property>
  <property name="meta.attr.date.markup">2016-10-15</property>
  <property name="meta.attr.creation_time.markup">15:03:13</property>
  <property name="meta.attr.time_reference.markup">158760000</property>
  <property name="meta.attr.umid.markup">0x00000000D6A9DD3E92780051303A6853FF7F0000E0A6C20B00610000000000000000000046B4530D0100000070C0CE7BFF7F000060326853FF7F00002A45B791</property>
  <property name="meta.attr.album.markup">Nursery</property>
  <property name="seekable">1</property>
  <property name="audio_index">0</property>
  <property name="video_index">-1</property>
  <property name="kdenlive:clipname"/>
  <property name="kdenlive:clip_type">1</property>
  <property name="kdenlive:folderid">432</property>
  <property name="kdenlive:id">433</property>
  <property name="kdenlive:file_size">64306678</property>
  <property name="kdenlive:file_hash">fc7ab7bd933b6ee57266e2a99bbea3e1</property>
  <property name="kdenlive:audio_max0">244</property>
 </chain>
 <chain id="chain416" out="00:04:02.983">
  <property name="length">14580</property>
  <property name="eof">pause</property>
  <property name="resource">audio/music/Nursery/Cradle Rock/stems/01_Cradle Rock_Rhodes.wav</property>
  <property name="mlt_service">avformat</property>
  <property name="meta.media.nb_streams">1</property>
  <property name="meta.media.0.stream.type">audio</property>
  <property name="meta.media.0.codec.sample_fmt">s32</property>
  <property name="meta.media.0.codec.sample_rate">44100</property>
  <property name="meta.media.0.codec.channels">2</property>
  <property name="meta.media.0.codec.name">pcm_s24le</property>
  <property name="meta.media.0.codec.long_name">PCM signed 24-bit little-endian</property>
  <property name="meta.media.0.codec.bit_rate">2116800</property>
  <property name="meta.attr.encoded_by.markup">Logic Pro X</property>
  <property name="meta.attr.date.markup">2016-10-15</property>
  <property name="meta.attr.creation_time.markup">15:08:51</property>
  <property name="meta.attr.time_reference.markup">158760000</property>
  <property name="meta.attr.umid.markup">0x00000000D6A9DD3E92780051303A6853FF7F0000A061620500600000000000000000000046B4530D0100000070C0CE7BFF7F000060326853FF7F00002A45B791</property>
  <property name="seekable">1</property>
  <property name="audio_index">0</property>
  <property name="video_index">-1</property>
  <property name="kdenlive:clipname"/>
  <property name="kdenlive:clip_type">1</property>
  <property name="kdenlive:folderid">434</property>
  <property name="kdenlive:id">435</property>
  <property name="kdenlive:file_size">64305618</property>
  <property name="kdenlive:file_hash">35569c3916ab00b2e727e78dd5a9143a</property>
  <property name="kdenlive:audio_max0">187</property>
 </chain>
 <chain id="chain422" out="00:04:02.983">
  <property name="length">14580</property>
  <property name="eof">pause</property>
  <property name="resource">audio/music/Nursery/Cradle Rock/stems/02_Cradle Rock_Piano.wav</property>
  <property name="mlt_service">avformat</property>
  <property name="meta.media.nb_streams">1</property>
  <property name="meta.media.0.stream.type">audio</property>
  <property name="meta.media.0.codec.sample_fmt">s32</property>
  <property name="meta.media.0.codec.sample_rate">44100</property>
  <property name="meta.media.0.codec.channels">2</property>
  <property name="meta.media.0.codec.name">pcm_s24le</property>
  <property name="meta.media.0.codec.long_name">PCM signed 24-bit little-endian</property>
  <property name="meta.media.0.codec.bit_rate">2116800</property>
  <property name="meta.attr.encoded_by.markup">Logic Pro X</property>
  <property name="meta.attr.date.markup">2016-10-15</property>
  <property name="meta.attr.creation_time.markup">15:08:21</property>
  <property name="meta.attr.time_reference.markup">158760000</property>
  <property name="meta.attr.umid.markup">0x00000000D6A9DD3E92780051303A6853FF7F0000C0EFA30500600000000000000000000046B4530D0100000070C0CE7BFF7F000060326853FF7F00002A45B791</property>
  <property name="seekable">1</property>
  <property name="audio_index">0</property>
  <property name="video_index">-1</property>
  <property name="kdenlive:clipname"/>
  <property name="kdenlive:clip_type">1</property>
  <property name="kdenlive:folderid">434</property>
  <property name="kdenlive:id">436</property>
  <property name="kdenlive:file_size">64305618</property>
  <property name="kdenlive:file_hash">af9ee8bbf9bfe3b5ff6573b588e5a307</property>
  <property name="kdenlive:audio_max0">206</property>
 </chain>
 <chain id="chain423" out="00:04:02.983">
  <property name="length">14580</property>
  <property name="eof">pause</property>
  <property name="resource">audio/music/Nursery/Cradle Rock/stems/03_Cradle Rock_Tongue Drum.wav</property>
  <property name="mlt_service">avformat</property>
  <property name="meta.media.nb_streams">1</property>
  <property name="meta.media.0.stream.type">audio</property>
  <property name="meta.media.0.codec.sample_fmt">s32</property>
  <property name="meta.media.0.codec.sample_rate">44100</property>
  <property name="meta.media.0.codec.channels">2</property>
  <property name="meta.media.0.codec.name">pcm_s24le</property>
  <property name="meta.media.0.codec.long_name">PCM signed 24-bit little-endian</property>
  <property name="meta.media.0.codec.bit_rate">2116800</property>
  <property name="meta.attr.encoded_by.markup">Logic Pro X</property>
  <property name="meta.attr.date.markup">2016-10-15</property>
  <property name="meta.attr.creation_time.markup">15:07:36</property>
  <property name="meta.attr.time_reference.markup">158760000</property>
  <property name="meta.attr.umid.markup">0x00000000D6A9DD3E92780051303A6853FF7F0000802D230500600000000000000000000046B4530D0100000070C0CE7BFF7F000060326853FF7F00002A45B791</property>
  <property name="seekable">1</property>
  <property name="audio_index">0</property>
  <property name="video_index">-1</property>
  <property name="kdenlive:clipname"/>
  <property name="kdenlive:clip_type">1</property>
  <property name="kdenlive:folderid">434</property>
  <property name="kdenlive:id">437</property>
  <property name="kdenlive:file_size">64305618</property>
  <property name="kdenlive:file_hash">5abda144d9cf9fe9f5f01369c1ff4f90</property>
  <property name="kdenlive:audio_max0">176</property>
 </chain>
 <chain id="chain424" out="00:04:02.983">
  <property name="length">14580</property>
  <property name="eof">pause</property>
  <property name="resource">audio/music/Nursery/Cradle Rock/stems/04_Cradle Rock_Drum Kit.wav</property>
  <property name="mlt_service">avformat</property>
  <property name="meta.media.nb_streams">1</property>
  <property name="meta.media.0.stream.type">audio</property>
  <property name="meta.media.0.codec.sample_fmt">s32</property>
  <property name="meta.media.0.codec.sample_rate">44100</property>
  <property name="meta.media.0.codec.channels">2</property>
  <property name="meta.media.0.codec.name">pcm_s24le</property>
  <property name="meta.media.0.codec.long_name">PCM signed 24-bit little-endian</property>
  <property name="meta.media.0.codec.bit_rate">2116800</property>
  <property name="meta.attr.encoded_by.markup">Logic Pro X</property>
  <property name="meta.attr.date.markup">2016-10-15</property>
  <property name="meta.attr.creation_time.markup">15:06:26</property>
  <property name="meta.attr.time_reference.markup">158760000</property>
  <property name="meta.attr.umid.markup">0x00000000D6A9DD3E92780051303A6853FF7F00002020620500600000000000000000000046B4530D0100000070C0CE7BFF7F000060326853FF7F00002A45B791</property>
  <property name="seekable">1</property>
  <property name="audio_index">0</property>
  <property name="video_index">-1</property>
  <property name="kdenlive:clipname"/>
  <property name="kdenlive:clip_type">1</property>
  <property name="kdenlive:folderid">434</property>
  <property name="kdenlive:id">438</property>
  <property name="kdenlive:file_size">64305618</property>
  <property name="kdenlive:file_hash">8156cf256fa033e6a9d0749713c11d05</property>
  <property name="kdenlive:audio_max0">177</property>
 </chain>
 <chain id="chain425" out="00:04:02.983">
  <property name="length">14580</property>
  <property name="eof">pause</property>
  <property name="resource">audio/music/Nursery/Cradle Rock/stems/05_Cradle Rock_Drum Kit.wav</property>
  <property name="mlt_service">avformat</property>
  <property name="meta.media.nb_streams">1</property>
  <property name="meta.media.0.stream.type">audio</property>
  <property name="meta.media.0.codec.sample_fmt">s32</property>
  <property name="meta.media.0.codec.sample_rate">44100</property>
  <property name="meta.media.0.codec.channels">2</property>
  <property name="meta.media.0.codec.name">pcm_s24le</property>
  <property name="meta.media.0.codec.long_name">PCM signed 24-bit little-endian</property>
  <property name="meta.media.0.codec.bit_rate">2116800</property>
  <property name="meta.attr.encoded_by.markup">Logic Pro X</property>
  <property name="meta.attr.date.markup">2016-10-15</property>
  <property name="meta.attr.creation_time.markup">15:05:30</property>
  <property name="meta.attr.time_reference.markup">158760000</property>
  <property name="meta.attr.umid.markup">0x00000000D6A9DD3E92780051303A6853FF7F000020FC620580600000000000000000000046B4530D0100000070C0CE7BFF7F000060326853FF7F00002A45B791</property>
  <property name="seekable">1</property>
  <property name="audio_index">0</property>
  <property name="video_index">-1</property>
  <property name="kdenlive:clipname"/>
  <property name="kdenlive:clip_type">1</property>
  <property name="kdenlive:folderid">434</property>
  <property name="kdenlive:id">439</property>
  <property name="kdenlive:file_size">64305618</property>
  <property name="kdenlive:file_hash">ea9efe086c673cc8e60ea65ffb1166dd</property>
  <property name="kdenlive:audio_max0">181</property>
 </chain>
 <chain id="chain431" out="00:03:25.100">
  <property name="length">12307</property>
  <property name="eof">pause</property>
  <property name="resource">audio/music/Nursery/Craypaper Wrapper/Craypaper Wrapper.wav</property>
  <property name="mlt_service">avformat</property>
  <property name="meta.media.nb_streams">1</property>
  <property name="meta.media.0.stream.type">audio</property>
  <property name="meta.media.0.codec.sample_fmt">s32</property>
  <property name="meta.media.0.codec.sample_rate">44100</property>
  <property name="meta.media.0.codec.channels">2</property>
  <property name="meta.media.0.codec.name">pcm_s24le</property>
  <property name="meta.media.0.codec.long_name">PCM signed 24-bit little-endian</property>
  <property name="meta.media.0.codec.bit_rate">2116800</property>
  <property name="meta.attr.encoded_by.markup">Logic Pro X</property>
  <property name="meta.attr.date.markup">2016-09-20</property>
  <property name="meta.attr.creation_time.markup">19:48:56</property>
  <property name="meta.attr.time_reference.markup">158760000</property>
  <property name="meta.attr.umid.markup">0x00000000F227204F83D100C330BA3658FF7F000040716307806000000000000000000000463485080100000070301476FF7F000060B23658FF7F00002AB5FC8B</property>
  <property name="meta.attr.album.markup">Nursery</property>
  <property name="seekable">1</property>
  <property name="audio_index">0</property>
  <property name="video_index">-1</property>
  <property name="kdenlive:clipname"/>
  <property name="kdenlive:clip_type">1</property>
  <property name="kdenlive:folderid">440</property>
  <property name="kdenlive:id">441</property>
  <property name="kdenlive:file_size">54275558</property>
  <property name="kdenlive:file_hash">bef45c3ec9205f8c5f0656bc3157aa22</property>
  <property name="kdenlive:audio_max0">249</property>
 </chain>
 <chain id="chain432" out="00:03:25.100">
  <property name="length">12307</property>
  <property name="eof">pause</property>
  <property name="resource">audio/music/Nursery/Craypaper Wrapper/stems/01_Craypaper Wrapper_Rhodes.wav</property>
  <property name="mlt_service">avformat</property>
  <property name="meta.media.nb_streams">1</property>
  <property name="meta.media.0.stream.type">audio</property>
  <property name="meta.media.0.codec.sample_fmt">s32</property>
  <property name="meta.media.0.codec.sample_rate">44100</property>
  <property name="meta.media.0.codec.channels">2</property>
  <property name="meta.media.0.codec.name">pcm_s24le</property>
  <property name="meta.media.0.codec.long_name">PCM signed 24-bit little-endian</property>
  <property name="meta.media.0.codec.bit_rate">2116800</property>
  <property name="meta.attr.encoded_by.markup">Logic Pro X</property>
  <property name="meta.attr.date.markup">2017-01-15</property>
  <property name="meta.attr.creation_time.markup">19:46:18</property>
  <property name="meta.attr.time_reference.markup">158760000</property>
  <property name="meta.attr.umid.markup">0x000000000000000000000000000000000000000000000000000000005B000B45F627098CD0C99C57FF7F000046241F090100000000C29C57FF7F0000ECBEF0DA</property>
  <property name="seekable">1</property>
  <property name="audio_index">0</property>
  <property name="video_index">-1</property>
  <property name="kdenlive:clipname"/>
  <property name="kdenlive:clip_type">1</property>
  <property name="kdenlive:folderid">442</property>
  <property name="kdenlive:id">443</property>
  <property name="kdenlive:file_size">54274498</property>
  <property name="kdenlive:file_hash">e93e8388b00f8323e6196a8fa2693d98</property>
  <property name="kdenlive:audio_max0">253</property>
 </chain>
 <chain id="chain434" out="00:03:25.100">
  <property name="length">12307</property>
  <property name="eof">pause</property>
  <property name="resource">audio/music/Nursery/Craypaper Wrapper/stems/02_Craypaper Wrapper_Electric Guitar.wav</property>
  <property name="mlt_service">avformat</property>
  <property name="meta.media.nb_streams">1</property>
  <property name="meta.media.0.stream.type">audio</property>
  <property name="meta.media.0.codec.sample_fmt">s32</property>
  <property name="meta.media.0.codec.sample_rate">44100</property>
  <property name="meta.media.0.codec.channels">2</property>
  <property name="meta.media.0.codec.name">pcm_s24le</property>
  <property name="meta.media.0.codec.long_name">PCM signed 24-bit little-endian</property>
  <property name="meta.media.0.codec.bit_rate">2116800</property>
  <property name="meta.attr.encoded_by.markup">Logic Pro X</property>
  <property name="meta.attr.date.markup">2017-01-15</property>
  <property name="meta.attr.creation_time.markup">19:45:21</property>
  <property name="meta.attr.time_reference.markup">158760000</property>
  <property name="meta.attr.umid.markup">0x000000000000000000000000000000000000000000000000000000005B000B45F627098CD0C99C57FF7F000046241F090100000000C29C57FF7F0000ECBEF0DA</property>
  <property name="seekable">1</property>
  <property name="audio_index">0</property>
  <property name="video_index">-1</property>
  <property name="kdenlive:clipname"/>
  <property name="kdenlive:clip_type">1</property>
  <property name="kdenlive:folderid">442</property>
  <property name="kdenlive:id">444</property>
  <property name="kdenlive:file_size">54274498</property>
  <property name="kdenlive:file_hash">a8fd16e268f3e930ec51b05b95527274</property>
  <property name="kdenlive:audio_max0">249</property>
 </chain>
 <chain id="chain433" out="00:03:25.100">
  <property name="length">12307</property>
  <property name="eof">pause</property>
  <property name="resource">audio/music/Nursery/Craypaper Wrapper/stems/03_Craypaper Wrapper_Tongue Drum.wav</property>
  <property name="mlt_service">avformat</property>
  <property name="meta.media.nb_streams">1</property>
  <property name="meta.media.0.stream.type">audio</property>
  <property name="meta.media.0.codec.sample_fmt">s32</property>
  <property name="meta.media.0.codec.sample_rate">44100</property>
  <property name="meta.media.0.codec.channels">2</property>
  <property name="meta.media.0.codec.name">pcm_s24le</property>
  <property name="meta.media.0.codec.long_name">PCM signed 24-bit little-endian</property>
  <property name="meta.media.0.codec.bit_rate">2116800</property>
  <property name="meta.attr.encoded_by.markup">Logic Pro X</property>
  <property name="meta.attr.date.markup">2017-01-15</property>
  <property name="meta.attr.creation_time.markup">19:44:27</property>
  <property name="meta.attr.time_reference.markup">158760000</property>
  <property name="meta.attr.umid.markup">0x000000000000000000000000000000000000000000000000000000005B000B45F627098CD0C99C57FF7F000046241F090100000000C29C57FF7F0000ECBEF0DA</property>
  <property name="seekable">1</property>
  <property name="audio_index">0</property>
  <property name="video_index">-1</property>
  <property name="kdenlive:clipname"/>
  <property name="kdenlive:clip_type">1</property>
  <property name="kdenlive:folderid">442</property>
  <property name="kdenlive:id">445</property>
  <property name="kdenlive:file_size">54274498</property>
  <property name="kdenlive:file_hash">f8eb18a3da8520cfec928d0c2b0c514d</property>
  <property name="kdenlive:audio_max0">241</property>
 </chain>
 <chain id="chain435" out="00:03:25.100">
  <property name="length">12307</property>
  <property name="eof">pause</property>
  <property name="resource">audio/music/Nursery/Craypaper Wrapper/stems/04_Craypaper Wrapper_Percussion.wav</property>
  <property name="mlt_service">avformat</property>
  <property name="meta.media.nb_streams">1</property>
  <property name="meta.media.0.stream.type">audio</property>
  <property name="meta.media.0.codec.sample_fmt">s32</property>
  <property name="meta.media.0.codec.sample_rate">44100</property>
  <property name="meta.media.0.codec.channels">2</property>
  <property name="meta.media.0.codec.name">pcm_s24le</property>
  <property name="meta.media.0.codec.long_name">PCM signed 24-bit little-endian</property>
  <property name="meta.media.0.codec.bit_rate">2116800</property>
  <property name="meta.attr.encoded_by.markup">Logic Pro X</property>
  <property name="meta.attr.date.markup">2017-01-15</property>
  <property name="meta.attr.creation_time.markup">19:43:26</property>
  <property name="meta.attr.time_reference.markup">158760000</property>
  <property name="meta.attr.umid.markup">0x000000000000000000000000000000000000000000000000000000005B000B45F627098CD0C99C57FF7F000046241F090100000000C29C57FF7F0000ECBEF0DA</property>
  <property name="seekable">1</property>
  <property name="audio_index">0</property>
  <property name="video_index">-1</property>
  <property name="kdenlive:clipname"/>
  <property name="kdenlive:clip_type">1</property>
  <property name="kdenlive:folderid">442</property>
  <property name="kdenlive:id">446</property>
  <property name="kdenlive:file_size">54274498</property>
  <property name="kdenlive:file_hash">79833bd80111d8611cfb074b92539d22</property>
  <property name="kdenlive:audio_max0">254</property>
 </chain>
 <chain id="chain436" out="00:03:25.100">
  <property name="length">12307</property>
  <property name="eof">pause</property>
  <property name="resource">audio/music/Nursery/Craypaper Wrapper/stems/05_Craypaper Wrapper_Rhodia SynPad.wav</property>
  <property name="mlt_service">avformat</property>
  <property name="meta.media.nb_streams">1</property>
  <property name="meta.media.0.stream.type">audio</property>
  <property name="meta.media.0.codec.sample_fmt">s32</property>
  <property name="meta.media.0.codec.sample_rate">44100</property>
  <property name="meta.media.0.codec.channels">2</property>
  <property name="meta.media.0.codec.name">pcm_s24le</property>
  <property name="meta.media.0.codec.long_name">PCM signed 24-bit little-endian</property>
  <property name="meta.media.0.codec.bit_rate">2116800</property>
  <property name="meta.attr.encoded_by.markup">Logic Pro X</property>
  <property name="meta.attr.date.markup">2017-01-15</property>
  <property name="meta.attr.creation_time.markup">19:42:09</property>
  <property name="meta.attr.time_reference.markup">158760000</property>
  <property name="meta.attr.umid.markup">0x000000000000000000000000000000000000000000000000000000005B000B45F627098CD0C99C57FF7F000046241F090100000000C29C57FF7F0000ECBEF0DA</property>
  <property name="seekable">1</property>
  <property name="audio_index">0</property>
  <property name="video_index">-1</property>
  <property name="kdenlive:clipname"/>
  <property name="kdenlive:clip_type">1</property>
  <property name="kdenlive:folderid">442</property>
  <property name="kdenlive:id">447</property>
  <property name="kdenlive:file_size">54274498</property>
  <property name="kdenlive:file_hash">4de25bf0904ba43324ac79aacc614028</property>
  <property name="kdenlive:audio_max0">185</property>
 </chain>
 <chain id="chain437" out="00:02:48.300">
  <property name="length">10099</property>
  <property name="eof">pause</property>
  <property name="resource">audio/music/Nursery/Darklit Carpet/Darklit Carpet.wav</property>
  <property name="mlt_service">avformat</property>
  <property name="meta.media.nb_streams">1</property>
  <property name="meta.media.0.stream.type">audio</property>
  <property name="meta.media.0.codec.sample_fmt">s32</property>
  <property name="meta.media.0.codec.sample_rate">44100</property>
  <property name="meta.media.0.codec.channels">2</property>
  <property name="meta.media.0.codec.name">pcm_s24le</property>
  <property name="meta.media.0.codec.long_name">PCM signed 24-bit little-endian</property>
  <property name="meta.media.0.codec.bit_rate">2116800</property>
  <property name="meta.attr.encoded_by.markup">Logic Pro X</property>
  <property name="meta.attr.date.markup">2018-02-12</property>
  <property name="meta.attr.creation_time.markup">12:15:31</property>
  <property name="meta.attr.time_reference.markup">159051302</property>
  <property name="meta.attr.umid.markup">0x00000000000000000000000000000000000000000000000000000000D20029D40BE531B1D0A1F4EDFE7F0000507639030100000010A2F4EDFE7F00003D465D6B</property>
  <property name="meta.attr.album.markup">Nursery</property>
  <property name="seekable">1</property>
  <property name="audio_index">0</property>
  <property name="video_index">-1</property>
  <property name="kdenlive:clipname"/>
  <property name="kdenlive:clip_type">1</property>
  <property name="kdenlive:folderid">448</property>
  <property name="kdenlive:id">449</property>
  <property name="kdenlive:file_size">44538812</property>
  <property name="kdenlive:file_hash">bc83df251c8eb6cbe917c1a2c94a0659</property>
  <property name="kdenlive:audio_max0">231</property>
 </chain>
 <chain id="chain438" out="00:02:48.300">
  <property name="length">10099</property>
  <property name="eof">pause</property>
  <property name="resource">audio/music/Nursery/Darklit Carpet/stems/01_Darklit Carpet_Tongue Drum.wav</property>
  <property name="mlt_service">avformat</property>
  <property name="meta.media.nb_streams">1</property>
  <property name="meta.media.0.stream.type">audio</property>
  <property name="meta.media.0.codec.sample_fmt">s32</property>
  <property name="meta.media.0.codec.sample_rate">44100</property>
  <property name="meta.media.0.codec.channels">2</property>
  <property name="meta.media.0.codec.name">pcm_s24le</property>
  <property name="meta.media.0.codec.long_name">PCM signed 24-bit little-endian</property>
  <property name="meta.media.0.codec.bit_rate">2116800</property>
  <property name="meta.attr.encoded_by.markup">Logic Pro X</property>
  <property name="meta.attr.date.markup">2018-02-12</property>
  <property name="meta.attr.creation_time.markup">14:48:22</property>
  <property name="meta.attr.time_reference.markup">159051302</property>
  <property name="meta.attr.umid.markup">0x000000000000000000000000000000000000000000000000000000004F0039BDD696D15D606EE2E9FE7F000050E64B0701000000A06EE2E9FE7F00003D86F66C</property>
  <property name="seekable">1</property>
  <property name="audio_index">0</property>
  <property name="video_index">-1</property>
  <property name="kdenlive:clipname"/>
  <property name="kdenlive:clip_type">1</property>
  <property name="kdenlive:folderid">450</property>
  <property name="kdenlive:id">451</property>
  <property name="kdenlive:file_size">44595760</property>
  <property name="kdenlive:file_hash">eb73ce5343583609d61d20fac5608481</property>
  <property name="kdenlive:audio_max0">136</property>
 </chain>
 <chain id="chain439" out="00:02:48.300">
  <property name="length">10099</property>
  <property name="eof">pause</property>
  <property name="resource">audio/music/Nursery/Darklit Carpet/stems/02_Darklit Carpet_Rhodes.wav</property>
  <property name="mlt_service">avformat</property>
  <property name="meta.media.nb_streams">1</property>
  <property name="meta.media.0.stream.type">audio</property>
  <property name="meta.media.0.codec.sample_fmt">s32</property>
  <property name="meta.media.0.codec.sample_rate">44100</property>
  <property name="meta.media.0.codec.channels">2</property>
  <property name="meta.media.0.codec.name">pcm_s24le</property>
  <property name="meta.media.0.codec.long_name">PCM signed 24-bit little-endian</property>
  <property name="meta.media.0.codec.bit_rate">2116800</property>
  <property name="meta.attr.encoded_by.markup">Logic Pro X</property>
  <property name="meta.attr.date.markup">2018-02-12</property>
  <property name="meta.attr.creation_time.markup">14:48:31</property>
  <property name="meta.attr.time_reference.markup">159051302</property>
  <property name="meta.attr.umid.markup">0x000000000000000000000000000000000000000000000000000000004F0039BDD696D15D606EE2E9FE7F000050E64B0701000000A06EE2E9FE7F00003D86F66C</property>
  <property name="seekable">1</property>
  <property name="audio_index">0</property>
  <property name="video_index">-1</property>
  <property name="kdenlive:clipname"/>
  <property name="kdenlive:clip_type">1</property>
  <property name="kdenlive:folderid">450</property>
  <property name="kdenlive:id">452</property>
  <property name="kdenlive:file_size">44595760</property>
  <property name="kdenlive:file_hash">5aa3f33be3c088bab7ba8a7fa3a33531</property>
  <property name="kdenlive:audio_max0">140</property>
 </chain>
 <chain id="chain440" out="00:02:48.300">
  <property name="length">10099</property>
  <property name="eof">pause</property>
  <property name="resource">audio/music/Nursery/Darklit Carpet/stems/03_Darklit Carpet_Tongue Drum.wav</property>
  <property name="mlt_service">avformat</property>
  <property name="meta.media.nb_streams">1</property>
  <property name="meta.media.0.stream.type">audio</property>
  <property name="meta.media.0.codec.sample_fmt">s32</property>
  <property name="meta.media.0.codec.sample_rate">44100</property>
  <property name="meta.media.0.codec.channels">2</property>
  <property name="meta.media.0.codec.name">pcm_s24le</property>
  <property name="meta.media.0.codec.long_name">PCM signed 24-bit little-endian</property>
  <property name="meta.media.0.codec.bit_rate">2116800</property>
  <property name="meta.attr.encoded_by.markup">Logic Pro X</property>
  <property name="meta.attr.date.markup">2018-02-12</property>
  <property name="meta.attr.creation_time.markup">14:48:29</property>
  <property name="meta.attr.time_reference.markup">159051302</property>
  <property name="meta.attr.umid.markup">0x000000000000000000000000000000000000000000000000000000004F0039BDD696D15D606EE2E9FE7F000050E64B0701000000A06EE2E9FE7F00003D86F66C</property>
  <property name="seekable">1</property>
  <property name="audio_index">0</property>
  <property name="video_index">-1</property>
  <property name="kdenlive:clipname"/>
  <property name="kdenlive:clip_type">1</property>
  <property name="kdenlive:folderid">450</property>
  <property name="kdenlive:id">453</property>
  <property name="kdenlive:file_size">44595760</property>
  <property name="kdenlive:file_hash">9704e5e4fb73fdc0becb25b25b12c4c5</property>
  <property name="kdenlive:audio_max0">163</property>
 </chain>
 <chain id="chain442" out="00:02:48.300">
  <property name="length">10099</property>
  <property name="eof">pause</property>
  <property name="resource">audio/music/Nursery/Darklit Carpet/stems/04_Darklit Carpet_Fjoria SynPad.wav</property>
  <property name="mlt_service">avformat</property>
  <property name="meta.media.nb_streams">1</property>
  <property name="meta.media.0.stream.type">audio</property>
  <property name="meta.media.0.codec.sample_fmt">s32</property>
  <property name="meta.media.0.codec.sample_rate">44100</property>
  <property name="meta.media.0.codec.channels">2</property>
  <property name="meta.media.0.codec.name">pcm_s24le</property>
  <property name="meta.media.0.codec.long_name">PCM signed 24-bit little-endian</property>
  <property name="meta.media.0.codec.bit_rate">2116800</property>
  <property name="meta.attr.encoded_by.markup">Logic Pro X</property>
  <property name="meta.attr.date.markup">2018-02-12</property>
  <property name="meta.attr.creation_time.markup">14:48:24</property>
  <property name="meta.attr.time_reference.markup">159051302</property>
  <property name="meta.attr.umid.markup">0x000000000000000000000000000000000000000000000000000000004F0039BDD696D15D606EE2E9FE7F000050E64B0701000000A06EE2E9FE7F00003D86F66C</property>
  <property name="seekable">1</property>
  <property name="audio_index">0</property>
  <property name="video_index">-1</property>
  <property name="kdenlive:clipname"/>
  <property name="kdenlive:clip_type">1</property>
  <property name="kdenlive:folderid">450</property>
  <property name="kdenlive:id">454</property>
  <property name="kdenlive:file_size">44595760</property>
  <property name="kdenlive:file_hash">060e6a1a1b6b43552d852f93deadc51f</property>
  <property name="kdenlive:audio_max0">108</property>
 </chain>
 <chain id="chain441" out="00:02:48.300">
  <property name="length">10099</property>
  <property name="eof">pause</property>
  <property name="resource">audio/music/Nursery/Darklit Carpet/stems/05_Darklit Carpet_Fjoria SynPad.wav</property>
  <property name="mlt_service">avformat</property>
  <property name="meta.media.nb_streams">1</property>
  <property name="meta.media.0.stream.type">audio</property>
  <property name="meta.media.0.codec.sample_fmt">s32</property>
  <property name="meta.media.0.codec.sample_rate">44100</property>
  <property name="meta.media.0.codec.channels">2</property>
  <property name="meta.media.0.codec.name">pcm_s24le</property>
  <property name="meta.media.0.codec.long_name">PCM signed 24-bit little-endian</property>
  <property name="meta.media.0.codec.bit_rate">2116800</property>
  <property name="meta.attr.encoded_by.markup">Logic Pro X</property>
  <property name="meta.attr.date.markup">2018-02-12</property>
  <property name="meta.attr.creation_time.markup">14:48:26</property>
  <property name="meta.attr.time_reference.markup">159051302</property>
  <property name="meta.attr.umid.markup">0x000000000000000000000000000000000000000000000000000000004F0039BDD696D15D606EE2E9FE7F000050E64B0701000000A06EE2E9FE7F00003D86F66C</property>
  <property name="seekable">1</property>
  <property name="audio_index">0</property>
  <property name="video_index">-1</property>
  <property name="kdenlive:clipname"/>
  <property name="kdenlive:clip_type">1</property>
  <property name="kdenlive:folderid">450</property>
  <property name="kdenlive:id">455</property>
  <property name="kdenlive:file_size">44595760</property>
  <property name="kdenlive:file_hash">337eed69786913683d139b0f27461f42</property>
  <property name="kdenlive:audio_max0">58</property>
 </chain>
 <chain id="chain443" out="00:01:01.933">
  <property name="length">3717</property>
  <property name="eof">pause</property>
  <property name="resource">audio/music/Nursery/Darklit Carpet/variations/Darklit Carpet | 1 Min.wav</property>
  <property name="mlt_service">avformat</property>
  <property name="meta.media.nb_streams">1</property>
  <property name="meta.media.0.stream.type">audio</property>
  <property name="meta.media.0.codec.sample_fmt">s32</property>
  <property name="meta.media.0.codec.sample_rate">44100</property>
  <property name="meta.media.0.codec.channels">2</property>
  <property name="meta.media.0.codec.name">pcm_s24le</property>
  <property name="meta.media.0.codec.long_name">PCM signed 24-bit little-endian</property>
  <property name="meta.media.0.codec.bit_rate">2116800</property>
  <property name="meta.attr.encoded_by.markup">Logic Pro X</property>
  <property name="meta.attr.date.markup">2018-02-12</property>
  <property name="meta.attr.creation_time.markup">13:51:26</property>
  <property name="meta.attr.time_reference.markup">163663596</property>
  <property name="meta.attr.umid.markup">0x00000000000000000000000000000000000000000000000000000000D20029D40BE531B1D0A1F4EDFE7F0000507639030100000010A2F4EDFE7F00003D465D6B</property>
  <property name="meta.attr.album.markup">Nursery</property>
  <property name="seekable">1</property>
  <property name="audio_index">0</property>
  <property name="video_index">-1</property>
  <property name="kdenlive:clipname"/>
  <property name="kdenlive:clip_type">1</property>
  <property name="kdenlive:folderid">456</property>
  <property name="kdenlive:id">457</property>
  <property name="kdenlive:file_size">16394360</property>
  <property name="kdenlive:file_hash">e0062db33427b0cfa74fda95d87f3ad2</property>
  <property name="kdenlive:audio_max0">253</property>
 </chain>
 <chain id="chain445" out="00:02:37.867">
  <property name="length">9473</property>
  <property name="eof">pause</property>
  <property name="resource">audio/music/Nursery/Darklit Carpet/variations/Darklit Carpet | Atmo.wav</property>
  <property name="mlt_service">avformat</property>
  <property name="meta.media.nb_streams">1</property>
  <property name="meta.media.0.stream.type">audio</property>
  <property name="meta.media.0.codec.sample_fmt">s32</property>
  <property name="meta.media.0.codec.sample_rate">44100</property>
  <property name="meta.media.0.codec.channels">2</property>
  <property name="meta.media.0.codec.name">pcm_s24le</property>
  <property name="meta.media.0.codec.long_name">PCM signed 24-bit little-endian</property>
  <property name="meta.media.0.codec.bit_rate">2116800</property>
  <property name="meta.attr.encoded_by.markup">Logic Pro X</property>
  <property name="meta.attr.date.markup">2018-02-12</property>
  <property name="meta.attr.creation_time.markup">13:52:19</property>
  <property name="meta.attr.time_reference.markup">159426815</property>
  <property name="meta.attr.umid.markup">0x00000000000000000000000000000000000000000000000000000000D20029D40BE531B1D0A1F4EDFE7F0000507639030100000010A2F4EDFE7F00003D465D6B</property>
  <property name="meta.attr.album.markup">Nursery</property>
  <property name="seekable">1</property>
  <property name="audio_index">0</property>
  <property name="video_index">-1</property>
  <property name="kdenlive:clipname"/>
  <property name="kdenlive:clip_type">1</property>
  <property name="kdenlive:folderid">456</property>
  <property name="kdenlive:id">458</property>
  <property name="kdenlive:file_size">41775818</property>
  <property name="kdenlive:file_hash">5953bea24e807bc2250b9b3310d7f94c</property>
  <property name="kdenlive:audio_max0">213</property>
 </chain>
 <chain id="chain444" out="00:02:48.300">
  <property name="length">10099</property>
  <property name="eof">pause</property>
  <property name="resource">audio/music/Nursery/Darklit Carpet/variations/Darklit Carpet | Dark Mbira.wav</property>
  <property name="mlt_service">avformat</property>
  <property name="meta.media.nb_streams">1</property>
  <property name="meta.media.0.stream.type">audio</property>
  <property name="meta.media.0.codec.sample_fmt">s32</property>
  <property name="meta.media.0.codec.sample_rate">44100</property>
  <property name="meta.media.0.codec.channels">2</property>
  <property name="meta.media.0.codec.name">pcm_s24le</property>
  <property name="meta.media.0.codec.long_name">PCM signed 24-bit little-endian</property>
  <property name="meta.media.0.codec.bit_rate">2116800</property>
  <property name="meta.attr.encoded_by.markup">Logic Pro X</property>
  <property name="meta.attr.date.markup">2018-02-12</property>
  <property name="meta.attr.creation_time.markup">12:45:45</property>
  <property name="meta.attr.time_reference.markup">159051302</property>
  <property name="meta.attr.umid.markup">0x00000000000000000000000000000000000000000000000000000000D20029D40BE531B1D0A1F4EDFE7F0000507639030100000010A2F4EDFE7F00003D465D6B</property>
  <property name="meta.attr.album.markup">Nursery</property>
  <property name="seekable">1</property>
  <property name="audio_index">0</property>
  <property name="video_index">-1</property>
  <property name="kdenlive:clipname"/>
  <property name="kdenlive:clip_type">1</property>
  <property name="kdenlive:folderid">456</property>
  <property name="kdenlive:id">459</property>
  <property name="kdenlive:file_size">44538812</property>
  <property name="kdenlive:file_hash">5d074b537bdfdfc941c421a1d7e7e777</property>
  <property name="kdenlive:audio_max0">227</property>
 </chain>
 <chain id="chain446" out="00:00:50.633">
  <property name="length">3039</property>
  <property name="eof">pause</property>
  <property name="resource">audio/music/Nursery/Darklit Carpet/variations/Darklit Carpet | Minimal.wav</property>
  <property name="mlt_service">avformat</property>
  <property name="meta.media.nb_streams">1</property>
  <property name="meta.media.0.stream.type">audio</property>
  <property name="meta.media.0.codec.sample_fmt">s32</property>
  <property name="meta.media.0.codec.sample_rate">44100</property>
  <property name="meta.media.0.codec.channels">2</property>
  <property name="meta.media.0.codec.name">pcm_s24le</property>
  <property name="meta.media.0.codec.long_name">PCM signed 24-bit little-endian</property>
  <property name="meta.media.0.codec.bit_rate">2116800</property>
  <property name="meta.attr.encoded_by.markup">Logic Pro X</property>
  <property name="meta.attr.date.markup">2018-02-12</property>
  <property name="meta.attr.creation_time.markup">13:50:29</property>
  <property name="meta.attr.time_reference.markup">161381724</property>
  <property name="meta.attr.umid.markup">0x00000000000000000000000000000000000000000000000000000000D20029D40BE531B1D0A1F4EDFE7F0000507639030100000010A2F4EDFE7F00003D465D6B</property>
  <property name="meta.attr.album.markup">Nursery</property>
  <property name="seekable">1</property>
  <property name="audio_index">0</property>
  <property name="video_index">-1</property>
  <property name="kdenlive:clipname"/>
  <property name="kdenlive:clip_type">1</property>
  <property name="kdenlive:folderid">456</property>
  <property name="kdenlive:id">460</property>
  <property name="kdenlive:file_size">13401758</property>
  <property name="kdenlive:file_hash">edcdeadfd4d8fdb9a8f607c08610dff7</property>
  <property name="kdenlive:audio_max0">222</property>
 </chain>
 <chain id="chain447" out="00:01:00.900">
  <property name="length">3655</property>
  <property name="eof">pause</property>
  <property name="resource">audio/music/Nursery/Darklit Carpet/variations/Darklit Carpet | Short Form.wav</property>
  <property name="mlt_service">avformat</property>
  <property name="meta.media.nb_streams">1</property>
  <property name="meta.media.0.stream.type">audio</property>
  <property name="meta.media.0.codec.sample_fmt">s32</property>
  <property name="meta.media.0.codec.sample_rate">44100</property>
  <property name="meta.media.0.codec.channels">2</property>
  <property name="meta.media.0.codec.name">pcm_s24le</property>
  <property name="meta.media.0.codec.long_name">PCM signed 24-bit little-endian</property>
  <property name="meta.media.0.codec.bit_rate">2116800</property>
  <property name="meta.attr.encoded_by.markup">Logic Pro X</property>
  <property name="meta.attr.date.markup">2018-02-12</property>
  <property name="meta.attr.creation_time.markup">13:50:51</property>
  <property name="meta.attr.time_reference.markup">161381724</property>
  <property name="meta.attr.umid.markup">0x00000000000000000000000000000000000000000000000000000000D20029D40BE531B1D0A1F4EDFE7F0000507639030100000010A2F4EDFE7F00003D465D6B</property>
  <property name="meta.attr.album.markup">Nursery</property>
  <property name="seekable">1</property>
  <property name="audio_index">0</property>
  <property name="video_index">-1</property>
  <property name="kdenlive:clipname"/>
  <property name="kdenlive:clip_type">1</property>
  <property name="kdenlive:folderid">456</property>
  <property name="kdenlive:id">461</property>
  <property name="kdenlive:file_size">16121702</property>
  <property name="kdenlive:file_hash">a38a45ec20ac722646c858ae8029aee6</property>
  <property name="kdenlive:audio_max0">228</property>
 </chain>
 <chain id="chain448" out="00:02:48.300">
  <property name="length">10099</property>
  <property name="eof">pause</property>
  <property name="resource">audio/music/Nursery/Darklit Carpet/variations/Darklit Carpet | Strange Beat Mbira.wav</property>
  <property name="mlt_service">avformat</property>
  <property name="meta.media.nb_streams">1</property>
  <property name="meta.media.0.stream.type">audio</property>
  <property name="meta.media.0.codec.sample_fmt">s32</property>
  <property name="meta.media.0.codec.sample_rate">44100</property>
  <property name="meta.media.0.codec.channels">2</property>
  <property name="meta.media.0.codec.name">pcm_s24le</property>
  <property name="meta.media.0.codec.long_name">PCM signed 24-bit little-endian</property>
  <property name="meta.media.0.codec.bit_rate">2116800</property>
  <property name="meta.attr.encoded_by.markup">Logic Pro X</property>
  <property name="meta.attr.date.markup">2018-02-12</property>
  <property name="meta.attr.creation_time.markup">13:46:21</property>
  <property name="meta.attr.time_reference.markup">159051302</property>
  <property name="meta.attr.umid.markup">0x00000000000000000000000000000000000000000000000000000000D20029D40BE531B1D0A1F4EDFE7F0000507639030100000010A2F4EDFE7F00003D465D6B</property>
  <property name="meta.attr.album.markup">Nursery</property>
  <property name="seekable">1</property>
  <property name="audio_index">0</property>
  <property name="video_index">-1</property>
  <property name="kdenlive:clipname"/>
  <property name="kdenlive:clip_type">1</property>
  <property name="kdenlive:folderid">456</property>
  <property name="kdenlive:id">462</property>
  <property name="kdenlive:file_size">44538812</property>
  <property name="kdenlive:file_hash">aab73ce9ef76bb76f5a5abec3b7c1c7f</property>
  <property name="kdenlive:audio_max0">214</property>
 </chain>
 <chain id="chain449" out="00:02:38.850">
  <property name="length">9532</property>
  <property name="eof">pause</property>
  <property name="resource">audio/music/Nursery/Lick Stick */Lick Stick.wav</property>
  <property name="mlt_service">avformat</property>
  <property name="meta.media.nb_streams">1</property>
  <property name="meta.media.0.stream.type">audio</property>
  <property name="meta.media.0.codec.sample_fmt">s32</property>
  <property name="meta.media.0.codec.sample_rate">44100</property>
  <property name="meta.media.0.codec.channels">2</property>
  <property name="meta.media.0.codec.name">pcm_s24le</property>
  <property name="meta.media.0.codec.long_name">PCM signed 24-bit little-endian</property>
  <property name="meta.media.0.codec.bit_rate">2116800</property>
  <property name="meta.attr.encoded_by.markup">Logic Pro X</property>
  <property name="meta.attr.date.markup">2018-02-10</property>
  <property name="meta.attr.creation_time.markup">15:29:01</property>
  <property name="meta.attr.time_reference.markup">159910582</property>
  <property name="meta.attr.umid.markup">0x00000000000000000000000000000000000000000000000000000000CC00889B81DD1CCBD0118AEEFE7F00005006A4020100000010128AEEFE7F00003D96E469</property>
  <property name="meta.attr.album.markup">Nursery</property>
  <property name="seekable">1</property>
  <property name="audio_index">0</property>
  <property name="video_index">-1</property>
  <property name="kdenlive:clipname"/>
  <property name="kdenlive:clip_type">1</property>
  <property name="kdenlive:folderid">463</property>
  <property name="kdenlive:id">464</property>
  <property name="kdenlive:file_size">42037196</property>
  <property name="kdenlive:file_hash">bb9a16ebfdb92bebca1f17e09eb5354e</property>
  <property name="kdenlive:audio_max0">209</property>
 </chain>
 <chain id="chain450" out="00:02:38.850">
  <property name="length">9532</property>
  <property name="eof">pause</property>
  <property name="resource">audio/music/Nursery/Lick Stick */stems/01_Lick Stick_Tongue Drum.wav</property>
  <property name="mlt_service">avformat</property>
  <property name="meta.media.nb_streams">1</property>
  <property name="meta.media.0.stream.type">audio</property>
  <property name="meta.media.0.codec.sample_fmt">s32</property>
  <property name="meta.media.0.codec.sample_rate">44100</property>
  <property name="meta.media.0.codec.channels">2</property>
  <property name="meta.media.0.codec.name">pcm_s24le</property>
  <property name="meta.media.0.codec.long_name">PCM signed 24-bit little-endian</property>
  <property name="meta.media.0.codec.bit_rate">2116800</property>
  <property name="meta.attr.encoded_by.markup">Logic Pro X</property>
  <property name="meta.attr.date.markup">2018-02-10</property>
  <property name="meta.attr.creation_time.markup">15:30:07</property>
  <property name="meta.attr.time_reference.markup">159910582</property>
  <property name="meta.attr.umid.markup">0x00000000000000000000000000000000000000000000000000000000CC00889B81DD1CCB304D8AEEFE7F00005006A40201000000704D8AEEFE7F00003D96E469</property>
  <property name="seekable">1</property>
  <property name="audio_index">0</property>
  <property name="video_index">-1</property>
  <property name="kdenlive:clipname"/>
  <property name="kdenlive:clip_type">1</property>
  <property name="kdenlive:folderid">465</property>
  <property name="kdenlive:id">466</property>
  <property name="kdenlive:file_size">42090886</property>
  <property name="kdenlive:file_hash">c02a05d7ac2b1ace6c1959c2aa04a58c</property>
  <property name="kdenlive:audio_max0">132</property>
 </chain>
 <chain id="chain451" out="00:02:38.850">
  <property name="length">9532</property>
  <property name="eof">pause</property>
  <property name="resource">audio/music/Nursery/Lick Stick */stems/02_Lick Stick_Tongue Drum.wav</property>
  <property name="mlt_service">avformat</property>
  <property name="meta.media.nb_streams">1</property>
  <property name="meta.media.0.stream.type">audio</property>
  <property name="meta.media.0.codec.sample_fmt">s32</property>
  <property name="meta.media.0.codec.sample_rate">44100</property>
  <property name="meta.media.0.codec.channels">2</property>
  <property name="meta.media.0.codec.name">pcm_s24le</property>
  <property name="meta.media.0.codec.long_name">PCM signed 24-bit little-endian</property>
  <property name="meta.media.0.codec.bit_rate">2116800</property>
  <property name="meta.attr.encoded_by.markup">Logic Pro X</property>
  <property name="meta.attr.date.markup">2018-02-10</property>
  <property name="meta.attr.creation_time.markup">15:30:11</property>
  <property name="meta.attr.time_reference.markup">159910582</property>
  <property name="meta.attr.umid.markup">0x00000000000000000000000000000000000000000000000000000000CC00889B81DD1CCB304D8AEEFE7F00005006A40201000000704D8AEEFE7F00003D96E469</property>
  <property name="seekable">1</property>
  <property name="audio_index">0</property>
  <property name="video_index">-1</property>
  <property name="kdenlive:clipname"/>
  <property name="kdenlive:clip_type">1</property>
  <property name="kdenlive:folderid">465</property>
  <property name="kdenlive:id">467</property>
  <property name="kdenlive:file_size">42090886</property>
  <property name="kdenlive:file_hash">970e4825a670200afdaf9e6edcf6184d</property>
  <property name="kdenlive:audio_max0">131</property>
 </chain>
 <chain id="chain452" out="00:02:38.850">
  <property name="length">9532</property>
  <property name="eof">pause</property>
  <property name="resource">audio/music/Nursery/Lick Stick */stems/03_Lick Stick_Tongue Drum.wav</property>
  <property name="mlt_service">avformat</property>
  <property name="meta.media.nb_streams">1</property>
  <property name="meta.media.0.stream.type">audio</property>
  <property name="meta.media.0.codec.sample_fmt">s32</property>
  <property name="meta.media.0.codec.sample_rate">44100</property>
  <property name="meta.media.0.codec.channels">2</property>
  <property name="meta.media.0.codec.name">pcm_s24le</property>
  <property name="meta.media.0.codec.long_name">PCM signed 24-bit little-endian</property>
  <property name="meta.media.0.codec.bit_rate">2116800</property>
  <property name="meta.attr.encoded_by.markup">Logic Pro X</property>
  <property name="meta.attr.date.markup">2018-02-10</property>
  <property name="meta.attr.creation_time.markup">15:30:25</property>
  <property name="meta.attr.time_reference.markup">159910582</property>
  <property name="meta.attr.umid.markup">0x00000000000000000000000000000000000000000000000000000000CC00889B81DD1CCB304D8AEEFE7F00005006A40201000000704D8AEEFE7F00003D96E469</property>
  <property name="seekable">1</property>
  <property name="audio_index">0</property>
  <property name="video_index">-1</property>
  <property name="kdenlive:clipname"/>
  <property name="kdenlive:clip_type">1</property>
  <property name="kdenlive:folderid">465</property>
  <property name="kdenlive:id">468</property>
  <property name="kdenlive:file_size">42090886</property>
  <property name="kdenlive:file_hash">9d461d0edad67f12c3da39b74eefe99b</property>
  <property name="kdenlive:audio_max0">150</property>
 </chain>
 <chain id="chain453" out="00:02:38.850">
  <property name="length">9532</property>
  <property name="eof">pause</property>
  <property name="resource">audio/music/Nursery/Lick Stick */stems/04_Lick Stick_Tongue Drum.wav</property>
  <property name="mlt_service">avformat</property>
  <property name="meta.media.nb_streams">1</property>
  <property name="meta.media.0.stream.type">audio</property>
  <property name="meta.media.0.codec.sample_fmt">s32</property>
  <property name="meta.media.0.codec.sample_rate">44100</property>
  <property name="meta.media.0.codec.channels">2</property>
  <property name="meta.media.0.codec.name">pcm_s24le</property>
  <property name="meta.media.0.codec.long_name">PCM signed 24-bit little-endian</property>
  <property name="meta.media.0.codec.bit_rate">2116800</property>
  <property name="meta.attr.encoded_by.markup">Logic Pro X</property>
  <property name="meta.attr.date.markup">2018-02-10</property>
  <property name="meta.attr.creation_time.markup">15:30:14</property>
  <property name="meta.attr.time_reference.markup">159910582</property>
  <property name="meta.attr.umid.markup">0x00000000000000000000000000000000000000000000000000000000CC00889B81DD1CCB304D8AEEFE7F00005006A40201000000704D8AEEFE7F00003D96E469</property>
  <property name="seekable">1</property>
  <property name="audio_index">0</property>
  <property name="video_index">-1</property>
  <property name="kdenlive:clipname"/>
  <property name="kdenlive:clip_type">1</property>
  <property name="kdenlive:folderid">465</property>
  <property name="kdenlive:id">469</property>
  <property name="kdenlive:file_size">42090886</property>
  <property name="kdenlive:file_hash">07bc126cece640eb389e4f04df929d32</property>
  <property name="kdenlive:audio_max0">135</property>
 </chain>
 <chain id="chain455" out="00:02:38.850">
  <property name="length">9532</property>
  <property name="eof">pause</property>
  <property name="resource">audio/music/Nursery/Lick Stick */stems/05_Lick Stick_Fjoria DrumSyn.wav</property>
  <property name="mlt_service">avformat</property>
  <property name="meta.media.nb_streams">1</property>
  <property name="meta.media.0.stream.type">audio</property>
  <property name="meta.media.0.codec.sample_fmt">s32</property>
  <property name="meta.media.0.codec.sample_rate">44100</property>
  <property name="meta.media.0.codec.channels">2</property>
  <property name="meta.media.0.codec.name">pcm_s24le</property>
  <property name="meta.media.0.codec.long_name">PCM signed 24-bit little-endian</property>
  <property name="meta.media.0.codec.bit_rate">2116800</property>
  <property name="meta.attr.encoded_by.markup">Logic Pro X</property>
  <property name="meta.attr.date.markup">2018-02-10</property>
  <property name="meta.attr.creation_time.markup">15:30:09</property>
  <property name="meta.attr.time_reference.markup">159910582</property>
  <property name="meta.attr.umid.markup">0x00000000000000000000000000000000000000000000000000000000CC00889B81DD1CCB304D8AEEFE7F00005006A40201000000704D8AEEFE7F00003D96E469</property>
  <property name="seekable">1</property>
  <property name="audio_index">0</property>
  <property name="video_index">-1</property>
  <property name="kdenlive:clipname"/>
  <property name="kdenlive:clip_type">1</property>
  <property name="kdenlive:folderid">465</property>
  <property name="kdenlive:id">470</property>
  <property name="kdenlive:file_size">42090886</property>
  <property name="kdenlive:file_hash">9c750465fb4357d2305f5b3022f064b8</property>
  <property name="kdenlive:audio_max0">103</property>
 </chain>
 <chain id="chain454" out="00:02:38.850">
  <property name="length">9532</property>
  <property name="eof">pause</property>
  <property name="resource">audio/music/Nursery/Lick Stick */stems/06_Lick Stick_Fjoria SynPad.wav</property>
  <property name="mlt_service">avformat</property>
  <property name="meta.media.nb_streams">1</property>
  <property name="meta.media.0.stream.type">audio</property>
  <property name="meta.media.0.codec.sample_fmt">s32</property>
  <property name="meta.media.0.codec.sample_rate">44100</property>
  <property name="meta.media.0.codec.channels">2</property>
  <property name="meta.media.0.codec.name">pcm_s24le</property>
  <property name="meta.media.0.codec.long_name">PCM signed 24-bit little-endian</property>
  <property name="meta.media.0.codec.bit_rate">2116800</property>
  <property name="meta.attr.encoded_by.markup">Logic Pro X</property>
  <property name="meta.attr.date.markup">2018-02-10</property>
  <property name="meta.attr.creation_time.markup">15:30:18</property>
  <property name="meta.attr.time_reference.markup">159910582</property>
  <property name="meta.attr.umid.markup">0x00000000000000000000000000000000000000000000000000000000CC00889B81DD1CCB304D8AEEFE7F00005006A40201000000704D8AEEFE7F00003D96E469</property>
  <property name="seekable">1</property>
  <property name="audio_index">0</property>
  <property name="video_index">-1</property>
  <property name="kdenlive:clipname"/>
  <property name="kdenlive:clip_type">1</property>
  <property name="kdenlive:folderid">465</property>
  <property name="kdenlive:id">471</property>
  <property name="kdenlive:file_size">42090886</property>
  <property name="kdenlive:file_hash">741a0d6ed75f0abecc41fe88f928f3ed</property>
  <property name="kdenlive:audio_max0">81</property>
 </chain>
 <chain id="chain456" out="00:02:38.850">
  <property name="length">9532</property>
  <property name="eof">pause</property>
  <property name="resource">audio/music/Nursery/Lick Stick */stems/07_Lick Stick_Violin.wav</property>
  <property name="mlt_service">avformat</property>
  <property name="meta.media.nb_streams">1</property>
  <property name="meta.media.0.stream.type">audio</property>
  <property name="meta.media.0.codec.sample_fmt">s32</property>
  <property name="meta.media.0.codec.sample_rate">44100</property>
  <property name="meta.media.0.codec.channels">2</property>
  <property name="meta.media.0.codec.name">pcm_s24le</property>
  <property name="meta.media.0.codec.long_name">PCM signed 24-bit little-endian</property>
  <property name="meta.media.0.codec.bit_rate">2116800</property>
  <property name="meta.attr.encoded_by.markup">Logic Pro X</property>
  <property name="meta.attr.date.markup">2018-02-10</property>
  <property name="meta.attr.creation_time.markup">15:30:22</property>
  <property name="meta.attr.time_reference.markup">159910582</property>
  <property name="meta.attr.umid.markup">0x00000000000000000000000000000000000000000000000000000000CC00889B81DD1CCB304D8AEEFE7F00005006A40201000000704D8AEEFE7F00003D96E469</property>
  <property name="seekable">1</property>
  <property name="audio_index">0</property>
  <property name="video_index">-1</property>
  <property name="kdenlive:clipname"/>
  <property name="kdenlive:clip_type">1</property>
  <property name="kdenlive:folderid">465</property>
  <property name="kdenlive:id">472</property>
  <property name="kdenlive:file_size">42090886</property>
  <property name="kdenlive:file_hash">cd4a512deed12c9708807ab24e6d5e0b</property>
  <property name="kdenlive:audio_max0">75</property>
 </chain>
 <chain id="chain457" out="00:01:00.450">
  <property name="length">3628</property>
  <property name="eof">pause</property>
  <property name="resource">audio/music/Nursery/Lick Stick */variations/Lick Stick | 1 Min.wav</property>
  <property name="mlt_service">avformat</property>
  <property name="meta.media.nb_streams">1</property>
  <property name="meta.media.0.stream.type">audio</property>
  <property name="meta.media.0.codec.sample_fmt">s32</property>
  <property name="meta.media.0.codec.sample_rate">44100</property>
  <property name="meta.media.0.codec.channels">2</property>
  <property name="meta.media.0.codec.name">pcm_s24le</property>
  <property name="meta.media.0.codec.long_name">PCM signed 24-bit little-endian</property>
  <property name="meta.media.0.codec.bit_rate">2116800</property>
  <property name="meta.attr.encoded_by.markup">Logic Pro X</property>
  <property name="meta.attr.date.markup">2018-02-12</property>
  <property name="meta.attr.creation_time.markup">14:33:38</property>
  <property name="meta.attr.time_reference.markup">164395240</property>
  <property name="meta.attr.umid.markup">0x00000000000000000000000000000000000000000000000000000000B200403FF3E80FCAD081E1E5FE7F000050964C0B010000001082E1E5FE7F00003D86F66C</property>
  <property name="meta.attr.album.markup">Nursery</property>
  <property name="seekable">1</property>
  <property name="audio_index">0</property>
  <property name="video_index">-1</property>
  <property name="kdenlive:clipname"/>
  <property name="kdenlive:clip_type">1</property>
  <property name="kdenlive:folderid">473</property>
  <property name="kdenlive:id">474</property>
  <property name="kdenlive:file_size">16003154</property>
  <property name="kdenlive:file_hash">a1492d970887ebfc366ad8cb9192260a</property>
  <property name="kdenlive:audio_max0">195</property>
 </chain>
 <chain id="chain460" out="00:00:29.933">
  <property name="length">1797</property>
  <property name="eof">pause</property>
  <property name="resource">audio/music/Nursery/Lick Stick */variations/Lick Stick | 30 Sec.wav</property>
  <property name="mlt_service">avformat</property>
  <property name="meta.media.nb_streams">1</property>
  <property name="meta.media.0.stream.type">audio</property>
  <property name="meta.media.0.codec.sample_fmt">s32</property>
  <property name="meta.media.0.codec.sample_rate">44100</property>
  <property name="meta.media.0.codec.channels">2</property>
  <property name="meta.media.0.codec.name">pcm_s24le</property>
  <property name="meta.media.0.codec.long_name">PCM signed 24-bit little-endian</property>
  <property name="meta.media.0.codec.bit_rate">2116800</property>
  <property name="meta.attr.encoded_by.markup">Logic Pro X</property>
  <property name="meta.attr.date.markup">2018-02-12</property>
  <property name="meta.attr.creation_time.markup">14:32:36</property>
  <property name="meta.attr.time_reference.markup">165840005</property>
  <property name="meta.attr.umid.markup">0x00000000000000000000000000000000000000000000000000000000B200403FF3E80FCAD081E1E5FE7F000050964C0B010000001082E1E5FE7F00003D86F66C</property>
  <property name="meta.attr.album.markup">Nursery</property>
  <property name="seekable">1</property>
  <property name="audio_index">0</property>
  <property name="video_index">-1</property>
  <property name="kdenlive:clipname"/>
  <property name="kdenlive:clip_type">1</property>
  <property name="kdenlive:folderid">473</property>
  <property name="kdenlive:id">475</property>
  <property name="kdenlive:file_size">7925162</property>
  <property name="kdenlive:file_hash">57c057319e7dbe516e720741d33adb9d</property>
  <property name="kdenlive:audio_max0">187</property>
 </chain>
 <chain id="chain458" out="00:05:00.500">
  <property name="length">18031</property>
  <property name="eof">pause</property>
  <property name="resource">audio/music/Nursery/Lick Stick */variations/Lick Stick | Long Run.wav</property>
  <property name="mlt_service">avformat</property>
  <property name="meta.media.nb_streams">1</property>
  <property name="meta.media.0.stream.type">audio</property>
  <property name="meta.media.0.codec.sample_fmt">s32</property>
  <property name="meta.media.0.codec.sample_rate">44100</property>
  <property name="meta.media.0.codec.channels">2</property>
  <property name="meta.media.0.codec.name">pcm_s24le</property>
  <property name="meta.media.0.codec.long_name">PCM signed 24-bit little-endian</property>
  <property name="meta.media.0.codec.bit_rate">2116800</property>
  <property name="meta.attr.encoded_by.markup">Logic Pro X</property>
  <property name="meta.attr.date.markup">2018-02-10</property>
  <property name="meta.attr.creation_time.markup">15:32:27</property>
  <property name="meta.attr.time_reference.markup">159877895</property>
  <property name="meta.attr.umid.markup">0x00000000000000000000000000000000000000000000000000000000CC00889B81DD1CCBD0118AEEFE7F00005006A4020100000010128AEEFE7F00003D96E469</property>
  <property name="meta.attr.album.markup">Nursery</property>
  <property name="seekable">1</property>
  <property name="audio_index">0</property>
  <property name="video_index">-1</property>
  <property name="kdenlive:clipname"/>
  <property name="kdenlive:clip_type">1</property>
  <property name="kdenlive:folderid">473</property>
  <property name="kdenlive:id">476</property>
  <property name="kdenlive:file_size">79520066</property>
  <property name="kdenlive:file_hash">46b68792e9d69f0b87fb4f6a299a0860</property>
  <property name="kdenlive:audio_max0">207</property>
 </chain>
 <chain id="chain459" out="00:00:39.167">
  <property name="length">2351</property>
  <property name="eof">pause</property>
  <property name="resource">audio/music/Nursery/Lick Stick */variations/Lick Stick | Mbira Interlude.wav</property>
  <property name="mlt_service">avformat</property>
  <property name="meta.media.nb_streams">1</property>
  <property name="meta.media.0.stream.type">audio</property>
  <property name="meta.media.0.codec.sample_fmt">s32</property>
  <property name="meta.media.0.codec.sample_rate">44100</property>
  <property name="meta.media.0.codec.channels">2</property>
  <property name="meta.media.0.codec.name">pcm_s24le</property>
  <property name="meta.media.0.codec.long_name">PCM signed 24-bit little-endian</property>
  <property name="meta.media.0.codec.bit_rate">2116800</property>
  <property name="meta.attr.encoded_by.markup">Logic Pro X</property>
  <property name="meta.attr.date.markup">2018-02-12</property>
  <property name="meta.attr.creation_time.markup">14:35:14</property>
  <property name="meta.attr.time_reference.markup">165197333</property>
  <property name="meta.attr.umid.markup">0x00000000000000000000000000000000000000000000000000000000B200403FF3E80FCAD081E1E5FE7F000050964C0B010000001082E1E5FE7F00003D86F66C</property>
  <property name="meta.attr.album.markup">Nursery</property>
  <property name="seekable">1</property>
  <property name="audio_index">0</property>
  <property name="video_index">-1</property>
  <property name="kdenlive:clipname"/>
  <property name="kdenlive:clip_type">1</property>
  <property name="kdenlive:folderid">473</property>
  <property name="kdenlive:id">477</property>
  <property name="kdenlive:file_size">10369112</property>
  <property name="kdenlive:file_hash">432e65478643cae7c8fac35873dabae5</property>
  <property name="kdenlive:audio_max0">232</property>
 </chain>
 <chain id="chain461" out="00:00:41.733">
  <property name="length">2505</property>
  <property name="eof">pause</property>
  <property name="resource">audio/music/Nursery/Lick Stick */variations/Lick Stick | Minimal.wav</property>
  <property name="mlt_service">avformat</property>
  <property name="meta.media.nb_streams">1</property>
  <property name="meta.media.0.stream.type">audio</property>
  <property name="meta.media.0.codec.sample_fmt">s32</property>
  <property name="meta.media.0.codec.sample_rate">44100</property>
  <property name="meta.media.0.codec.channels">2</property>
  <property name="meta.media.0.codec.name">pcm_s24le</property>
  <property name="meta.media.0.codec.long_name">PCM signed 24-bit little-endian</property>
  <property name="meta.media.0.codec.bit_rate">2116800</property>
  <property name="meta.attr.encoded_by.markup">Logic Pro X</property>
  <property name="meta.attr.date.markup">2018-02-12</property>
  <property name="meta.attr.creation_time.markup">14:34:08</property>
  <property name="meta.attr.time_reference.markup">164395240</property>
  <property name="meta.attr.umid.markup">0x00000000000000000000000000000000000000000000000000000000B200403FF3E80FCAD081E1E5FE7F000050964C0B010000001082E1E5FE7F00003D86F66C</property>
  <property name="meta.attr.album.markup">Nursery</property>
  <property name="seekable">1</property>
  <property name="audio_index">0</property>
  <property name="video_index">-1</property>
  <property name="kdenlive:clipname"/>
  <property name="kdenlive:clip_type">1</property>
  <property name="kdenlive:folderid">473</property>
  <property name="kdenlive:id">478</property>
  <property name="kdenlive:file_size">11051006</property>
  <property name="kdenlive:file_hash">455b5c595580c3f86f7bcc5802040a75</property>
  <property name="kdenlive:audio_max0">169</property>
 </chain>
 <chain id="chain462" out="00:02:33.067">
  <property name="length">9185</property>
  <property name="eof">pause</property>
  <property name="resource">audio/music/Nursery/Maisie Dreamer */Maisie Dreamer.wav</property>
  <property name="mlt_service">avformat</property>
  <property name="meta.media.nb_streams">1</property>
  <property name="meta.media.0.stream.type">audio</property>
  <property name="meta.media.0.codec.sample_fmt">s32</property>
  <property name="meta.media.0.codec.sample_rate">44100</property>
  <property name="meta.media.0.codec.channels">2</property>
  <property name="meta.media.0.codec.name">pcm_s24le</property>
  <property name="meta.media.0.codec.long_name">PCM signed 24-bit little-endian</property>
  <property name="meta.media.0.codec.bit_rate">2116800</property>
  <property name="meta.attr.encoded_by.markup">Logic Pro X</property>
  <property name="meta.attr.date.markup">2018-02-12</property>
  <property name="meta.attr.creation_time.markup">11:44:23</property>
  <property name="meta.attr.time_reference.markup">158805761</property>
  <property name="meta.attr.umid.markup">0x00000000000000000000000000000000000000000000000000000000D20029D40BE531B1D0A1F4EDFE7F0000507639030100000010A2F4EDFE7F00003D465D6B</property>
  <property name="meta.attr.album.markup">Nursery</property>
  <property name="seekable">1</property>
  <property name="audio_index">0</property>
  <property name="video_index">-1</property>
  <property name="kdenlive:clipname"/>
  <property name="kdenlive:clip_type">1</property>
  <property name="kdenlive:folderid">479</property>
  <property name="kdenlive:id">480</property>
  <property name="kdenlive:file_size">40509644</property>
  <property name="kdenlive:file_hash">ed101d5adff92e5457ee5580ba7fdfd5</property>
  <property name="kdenlive:audio_max0">227</property>
 </chain>
 <chain id="chain463" out="00:02:33.067">
  <property name="length">9185</property>
  <property name="eof">pause</property>
  <property name="resource">audio/music/Nursery/Maisie Dreamer */stems/01_Maisie Dreamer_Tongue Drum.wav</property>
  <property name="mlt_service">avformat</property>
  <property name="meta.media.nb_streams">1</property>
  <property name="meta.media.0.stream.type">audio</property>
  <property name="meta.media.0.codec.sample_fmt">s32</property>
  <property name="meta.media.0.codec.sample_rate">44100</property>
  <property name="meta.media.0.codec.channels">2</property>
  <property name="meta.media.0.codec.name">pcm_s24le</property>
  <property name="meta.media.0.codec.long_name">PCM signed 24-bit little-endian</property>
  <property name="meta.media.0.codec.bit_rate">2116800</property>
  <property name="meta.attr.encoded_by.markup">Logic Pro X</property>
  <property name="meta.attr.date.markup">2018-02-12</property>
  <property name="meta.attr.creation_time.markup">11:47:20</property>
  <property name="meta.attr.time_reference.markup">158805761</property>
  <property name="meta.attr.umid.markup">0x00000000000000000000000000000000000000000000000000000000D20029D40BE531B160DEF4EDFE7F00005076390301000000A0DEF4EDFE7F00003D465D6B</property>
  <property name="seekable">1</property>
  <property name="audio_index">0</property>
  <property name="video_index">-1</property>
  <property name="kdenlive:clipname"/>
  <property name="kdenlive:clip_type">1</property>
  <property name="kdenlive:folderid">481</property>
  <property name="kdenlive:id">482</property>
  <property name="kdenlive:file_size">40561346</property>
  <property name="kdenlive:file_hash">e535cf3912eba6a27f907bae998c4595</property>
  <property name="kdenlive:audio_max0">120</property>
 </chain>
 <chain id="chain464" out="00:02:33.067">
  <property name="length">9185</property>
  <property name="eof">pause</property>
  <property name="resource">audio/music/Nursery/Maisie Dreamer */stems/02_Maisie Dreamer_Tongue Drum.wav</property>
  <property name="mlt_service">avformat</property>
  <property name="meta.media.nb_streams">1</property>
  <property name="meta.media.0.stream.type">audio</property>
  <property name="meta.media.0.codec.sample_fmt">s32</property>
  <property name="meta.media.0.codec.sample_rate">44100</property>
  <property name="meta.media.0.codec.channels">2</property>
  <property name="meta.media.0.codec.name">pcm_s24le</property>
  <property name="meta.media.0.codec.long_name">PCM signed 24-bit little-endian</property>
  <property name="meta.media.0.codec.bit_rate">2116800</property>
  <property name="meta.attr.encoded_by.markup">Logic Pro X</property>
  <property name="meta.attr.date.markup">2018-02-12</property>
  <property name="meta.attr.creation_time.markup">11:47:30</property>
  <property name="meta.attr.time_reference.markup">158805761</property>
  <property name="meta.attr.umid.markup">0x00000000000000000000000000000000000000000000000000000000D20029D40BE531B160DEF4EDFE7F00005076390301000000A0DEF4EDFE7F00003D465D6B</property>
  <property name="seekable">1</property>
  <property name="audio_index">0</property>
  <property name="video_index">-1</property>
  <property name="kdenlive:clipname"/>
  <property name="kdenlive:clip_type">1</property>
  <property name="kdenlive:folderid">481</property>
  <property name="kdenlive:id">483</property>
  <property name="kdenlive:file_size">40561346</property>
  <property name="kdenlive:file_hash">827ef80497d16b70fa9b17b678c7a905</property>
  <property name="kdenlive:audio_max0">125</property>
 </chain>
 <chain id="chain465" out="00:02:33.067">
  <property name="length">9185</property>
  <property name="eof">pause</property>
  <property name="resource">audio/music/Nursery/Maisie Dreamer */stems/03_Maisie Dreamer_Rhodia SynPad.wav</property>
  <property name="mlt_service">avformat</property>
  <property name="meta.media.nb_streams">1</property>
  <property name="meta.media.0.stream.type">audio</property>
  <property name="meta.media.0.codec.sample_fmt">s32</property>
  <property name="meta.media.0.codec.sample_rate">44100</property>
  <property name="meta.media.0.codec.channels">2</property>
  <property name="meta.media.0.codec.name">pcm_s24le</property>
  <property name="meta.media.0.codec.long_name">PCM signed 24-bit little-endian</property>
  <property name="meta.media.0.codec.bit_rate">2116800</property>
  <property name="meta.attr.encoded_by.markup">Logic Pro X</property>
  <property name="meta.attr.date.markup">2018-02-12</property>
  <property name="meta.attr.creation_time.markup">11:47:35</property>
  <property name="meta.attr.time_reference.markup">158805761</property>
  <property name="meta.attr.umid.markup">0x00000000000000000000000000000000000000000000000000000000D20029D40BE531B160DEF4EDFE7F00005076390301000000A0DEF4EDFE7F00003D465D6B</property>
  <property name="seekable">1</property>
  <property name="audio_index">0</property>
  <property name="video_index">-1</property>
  <property name="kdenlive:clipname"/>
  <property name="kdenlive:clip_type">1</property>
  <property name="kdenlive:folderid">481</property>
  <property name="kdenlive:id">484</property>
  <property name="kdenlive:file_size">40561346</property>
  <property name="kdenlive:file_hash">55cea2d2f04b6e169eb552c57e403d51</property>
  <property name="kdenlive:audio_max0">164</property>
 </chain>
 <chain id="chain466" out="00:02:33.067">
  <property name="length">9185</property>
  <property name="eof">pause</property>
  <property name="resource">audio/music/Nursery/Maisie Dreamer */stems/04_Maisie Dreamer_Tongue Drum.wav</property>
  <property name="mlt_service">avformat</property>
  <property name="meta.media.nb_streams">1</property>
  <property name="meta.media.0.stream.type">audio</property>
  <property name="meta.media.0.codec.sample_fmt">s32</property>
  <property name="meta.media.0.codec.sample_rate">44100</property>
  <property name="meta.media.0.codec.channels">2</property>
  <property name="meta.media.0.codec.name">pcm_s24le</property>
  <property name="meta.media.0.codec.long_name">PCM signed 24-bit little-endian</property>
  <property name="meta.media.0.codec.bit_rate">2116800</property>
  <property name="meta.attr.encoded_by.markup">Logic Pro X</property>
  <property name="meta.attr.date.markup">2018-02-12</property>
  <property name="meta.attr.creation_time.markup">11:47:33</property>
  <property name="meta.attr.time_reference.markup">158805761</property>
  <property name="meta.attr.umid.markup">0x00000000000000000000000000000000000000000000000000000000D20029D40BE531B160DEF4EDFE7F00005076390301000000A0DEF4EDFE7F00003D465D6B</property>
  <property name="seekable">1</property>
  <property name="audio_index">0</property>
  <property name="video_index">-1</property>
  <property name="kdenlive:clipname"/>
  <property name="kdenlive:clip_type">1</property>
  <property name="kdenlive:folderid">481</property>
  <property name="kdenlive:id">485</property>
  <property name="kdenlive:file_size">40561346</property>
  <property name="kdenlive:file_hash">fee7632a3fbb0e66883b243bb0ab1005</property>
  <property name="kdenlive:audio_max0">112</property>
 </chain>
 <chain id="chain467" out="00:02:33.067">
  <property name="length">9185</property>
  <property name="eof">pause</property>
  <property name="resource">audio/music/Nursery/Maisie Dreamer */stems/05_Maisie Dreamer_Drum Kit.wav</property>
  <property name="mlt_service">avformat</property>
  <property name="meta.media.nb_streams">1</property>
  <property name="meta.media.0.stream.type">audio</property>
  <property name="meta.media.0.codec.sample_fmt">s32</property>
  <property name="meta.media.0.codec.sample_rate">44100</property>
  <property name="meta.media.0.codec.channels">2</property>
  <property name="meta.media.0.codec.name">pcm_s24le</property>
  <property name="meta.media.0.codec.long_name">PCM signed 24-bit little-endian</property>
  <property name="meta.media.0.codec.bit_rate">2116800</property>
  <property name="meta.attr.encoded_by.markup">Logic Pro X</property>
  <property name="meta.attr.date.markup">2018-02-12</property>
  <property name="meta.attr.creation_time.markup">11:47:23</property>
  <property name="meta.attr.time_reference.markup">158805761</property>
  <property name="meta.attr.umid.markup">0x00000000000000000000000000000000000000000000000000000000D20029D40BE531B160DEF4EDFE7F00005076390301000000A0DEF4EDFE7F00003D465D6B</property>
  <property name="seekable">1</property>
  <property name="audio_index">0</property>
  <property name="video_index">-1</property>
  <property name="kdenlive:clipname"/>
  <property name="kdenlive:clip_type">1</property>
  <property name="kdenlive:folderid">481</property>
  <property name="kdenlive:id">486</property>
  <property name="kdenlive:file_size">40561346</property>
  <property name="kdenlive:file_hash">ad6ad7e0165f24ba48f707b2532073ce</property>
  <property name="kdenlive:audio_max0">27</property>
 </chain>
 <chain id="chain468" out="00:02:33.067">
  <property name="length">9185</property>
  <property name="eof">pause</property>
  <property name="resource">audio/music/Nursery/Maisie Dreamer */stems/06_Maisie Dreamer_Percussion.wav</property>
  <property name="mlt_service">avformat</property>
  <property name="meta.media.nb_streams">1</property>
  <property name="meta.media.0.stream.type">audio</property>
  <property name="meta.media.0.codec.sample_fmt">s32</property>
  <property name="meta.media.0.codec.sample_rate">44100</property>
  <property name="meta.media.0.codec.channels">2</property>
  <property name="meta.media.0.codec.name">pcm_s24le</property>
  <property name="meta.media.0.codec.long_name">PCM signed 24-bit little-endian</property>
  <property name="meta.media.0.codec.bit_rate">2116800</property>
  <property name="meta.attr.encoded_by.markup">Logic Pro X</property>
  <property name="meta.attr.date.markup">2018-02-12</property>
  <property name="meta.attr.creation_time.markup">11:47:25</property>
  <property name="meta.attr.time_reference.markup">158805761</property>
  <property name="meta.attr.umid.markup">0x00000000000000000000000000000000000000000000000000000000D20029D40BE531B160DEF4EDFE7F00005076390301000000A0DEF4EDFE7F00003D465D6B</property>
  <property name="seekable">1</property>
  <property name="audio_index">0</property>
  <property name="video_index">-1</property>
  <property name="kdenlive:clipname"/>
  <property name="kdenlive:clip_type">1</property>
  <property name="kdenlive:folderid">481</property>
  <property name="kdenlive:id">487</property>
  <property name="kdenlive:file_size">40561346</property>
  <property name="kdenlive:file_hash">fddb10163080927b39db35ab2273786a</property>
  <property name="kdenlive:audio_max0">165</property>
 </chain>
 <chain id="chain469" out="00:02:33.067">
  <property name="length">9185</property>
  <property name="eof">pause</property>
  <property name="resource">audio/music/Nursery/Maisie Dreamer */stems/07_Maisie Dreamer_Skrea DrumSyn.wav</property>
  <property name="mlt_service">avformat</property>
  <property name="meta.media.nb_streams">1</property>
  <property name="meta.media.0.stream.type">audio</property>
  <property name="meta.media.0.codec.sample_fmt">s32</property>
  <property name="meta.media.0.codec.sample_rate">44100</property>
  <property name="meta.media.0.codec.channels">2</property>
  <property name="meta.media.0.codec.name">pcm_s24le</property>
  <property name="meta.media.0.codec.long_name">PCM signed 24-bit little-endian</property>
  <property name="meta.media.0.codec.bit_rate">2116800</property>
  <property name="meta.attr.encoded_by.markup">Logic Pro X</property>
  <property name="meta.attr.date.markup">2018-02-12</property>
  <property name="meta.attr.creation_time.markup">11:47:28</property>
  <property name="meta.attr.time_reference.markup">158805761</property>
  <property name="meta.attr.umid.markup">0x00000000000000000000000000000000000000000000000000000000D20029D40BE531B160DEF4EDFE7F00005076390301000000A0DEF4EDFE7F00003D465D6B</property>
  <property name="seekable">1</property>
  <property name="audio_index">0</property>
  <property name="video_index">-1</property>
  <property name="kdenlive:clipname"/>
  <property name="kdenlive:clip_type">1</property>
  <property name="kdenlive:folderid">481</property>
  <property name="kdenlive:id">488</property>
  <property name="kdenlive:file_size">40561346</property>
  <property name="kdenlive:file_hash">fd538c1329d8ab6ae5c0252719548c8c</property>
  <property name="kdenlive:audio_max0">15</property>
 </chain>
 <chain id="chain470" out="00:00:47.150">
  <property name="length">2830</property>
  <property name="eof">pause</property>
  <property name="resource">audio/music/Nursery/Maisie Dreamer */variations/Maisie Dreamer | 1 Min.wav</property>
  <property name="mlt_service">avformat</property>
  <property name="meta.media.nb_streams">1</property>
  <property name="meta.media.0.stream.type">audio</property>
  <property name="meta.media.0.codec.sample_fmt">s32</property>
  <property name="meta.media.0.codec.sample_rate">44100</property>
  <property name="meta.media.0.codec.channels">2</property>
  <property name="meta.media.0.codec.name">pcm_s24le</property>
  <property name="meta.media.0.codec.long_name">PCM signed 24-bit little-endian</property>
  <property name="meta.media.0.codec.bit_rate">2116800</property>
  <property name="meta.attr.encoded_by.markup">Logic Pro X</property>
  <property name="meta.attr.date.markup">2018-02-12</property>
  <property name="meta.attr.creation_time.markup">11:51:37</property>
  <property name="meta.attr.time_reference.markup">163476713</property>
  <property name="meta.attr.umid.markup">0x00000000000000000000000000000000000000000000000000000000D20029D40BE531B1D0A1F4EDFE7F0000507639030100000010A2F4EDFE7F00003D465D6B</property>
  <property name="meta.attr.album.markup">Nursery</property>
  <property name="seekable">1</property>
  <property name="audio_index">0</property>
  <property name="video_index">-1</property>
  <property name="kdenlive:clipname"/>
  <property name="kdenlive:clip_type">1</property>
  <property name="kdenlive:folderid">489</property>
  <property name="kdenlive:id">490</property>
  <property name="kdenlive:file_size">12483932</property>
  <property name="kdenlive:file_hash">2dfdebfaee0d9b379604f4beed6f6dae</property>
  <property name="kdenlive:audio_max0">228</property>
 </chain>
 <chain id="chain473" out="00:00:29.733">
  <property name="length">1785</property>
  <property name="eof">pause</property>
  <property name="resource">audio/music/Nursery/Maisie Dreamer */variations/Maisie Dreamer | 30 Sec Minimal.wav</property>
  <property name="mlt_service">avformat</property>
  <property name="meta.media.nb_streams">1</property>
  <property name="meta.media.0.stream.type">audio</property>
  <property name="meta.media.0.codec.sample_fmt">s32</property>
  <property name="meta.media.0.codec.sample_rate">44100</property>
  <property name="meta.media.0.codec.channels">2</property>
  <property name="meta.media.0.codec.name">pcm_s24le</property>
  <property name="meta.media.0.codec.long_name">PCM signed 24-bit little-endian</property>
  <property name="meta.media.0.codec.bit_rate">2116800</property>
  <property name="meta.attr.encoded_by.markup">Logic Pro X</property>
  <property name="meta.attr.date.markup">2018-02-12</property>
  <property name="meta.attr.creation_time.markup">11:52:54</property>
  <property name="meta.attr.time_reference.markup">164244879</property>
  <property name="meta.attr.umid.markup">0x00000000000000000000000000000000000000000000000000000000D20029D40BE531B1D0A1F4EDFE7F0000507639030100000010A2F4EDFE7F00003D465D6B</property>
  <property name="meta.attr.album.markup">Nursery</property>
  <property name="seekable">1</property>
  <property name="audio_index">0</property>
  <property name="video_index">-1</property>
  <property name="kdenlive:clipname"/>
  <property name="kdenlive:clip_type">1</property>
  <property name="kdenlive:folderid">489</property>
  <property name="kdenlive:id">491</property>
  <property name="kdenlive:file_size">7874936</property>
  <property name="kdenlive:file_hash">98e73d8b33d64bbe1c0352b6bf29efb7</property>
  <property name="kdenlive:audio_max0">218</property>
 </chain>
 <chain id="chain474" out="00:00:29.733">
  <property name="length">1785</property>
  <property name="eof">pause</property>
  <property name="resource">audio/music/Nursery/Maisie Dreamer */variations/Maisie Dreamer | 30 Sec.wav</property>
  <property name="mlt_service">avformat</property>
  <property name="meta.media.nb_streams">1</property>
  <property name="meta.media.0.stream.type">audio</property>
  <property name="meta.media.0.codec.sample_fmt">s32</property>
  <property name="meta.media.0.codec.sample_rate">44100</property>
  <property name="meta.media.0.codec.channels">2</property>
  <property name="meta.media.0.codec.name">pcm_s24le</property>
  <property name="meta.media.0.codec.long_name">PCM signed 24-bit little-endian</property>
  <property name="meta.media.0.codec.bit_rate">2116800</property>
  <property name="meta.attr.encoded_by.markup">Logic Pro X</property>
  <property name="meta.attr.date.markup">2018-02-12</property>
  <property name="meta.attr.creation_time.markup">11:52:24</property>
  <property name="meta.attr.time_reference.markup">164244879</property>
  <property name="meta.attr.umid.markup">0x00000000000000000000000000000000000000000000000000000000D20029D40BE531B1D0A1F4EDFE7F0000507639030100000010A2F4EDFE7F00003D465D6B</property>
  <property name="meta.attr.album.markup">Nursery</property>
  <property name="seekable">1</property>
  <property name="audio_index">0</property>
  <property name="video_index">-1</property>
  <property name="kdenlive:clipname"/>
  <property name="kdenlive:clip_type">1</property>
  <property name="kdenlive:folderid">489</property>
  <property name="kdenlive:id">492</property>
  <property name="kdenlive:file_size">7874936</property>
  <property name="kdenlive:file_hash">1965cad350579ea9d401541452a4b6c5</property>
  <property name="kdenlive:audio_max0">221</property>
 </chain>
 <chain id="chain471" out="00:01:19.317">
  <property name="length">4760</property>
  <property name="eof">pause</property>
  <property name="resource">audio/music/Nursery/Maisie Dreamer */variations/Maisie Dreamer | Alt Start.wav</property>
  <property name="mlt_service">avformat</property>
  <property name="meta.media.nb_streams">1</property>
  <property name="meta.media.0.stream.type">audio</property>
  <property name="meta.media.0.codec.sample_fmt">s32</property>
  <property name="meta.media.0.codec.sample_rate">44100</property>
  <property name="meta.media.0.codec.channels">2</property>
  <property name="meta.media.0.codec.name">pcm_s24le</property>
  <property name="meta.media.0.codec.long_name">PCM signed 24-bit little-endian</property>
  <property name="meta.media.0.codec.bit_rate">2116800</property>
  <property name="meta.attr.encoded_by.markup">Logic Pro X</property>
  <property name="meta.attr.date.markup">2018-02-12</property>
  <property name="meta.attr.creation_time.markup">11:53:39</property>
  <property name="meta.attr.time_reference.markup">161937177</property>
  <property name="meta.attr.umid.markup">0x00000000000000000000000000000000000000000000000000000000D20029D40BE531B1D0A1F4EDFE7F0000507639030100000010A2F4EDFE7F00003D465D6B</property>
  <property name="meta.attr.album.markup">Nursery</property>
  <property name="seekable">1</property>
  <property name="audio_index">0</property>
  <property name="video_index">-1</property>
  <property name="kdenlive:clipname"/>
  <property name="kdenlive:clip_type">1</property>
  <property name="kdenlive:folderid">489</property>
  <property name="kdenlive:id">493</property>
  <property name="kdenlive:file_size">20992892</property>
  <property name="kdenlive:file_hash">1ba49c9e94d0285dfbb13a096727ecca</property>
  <property name="kdenlive:audio_max0">224</property>
 </chain>
 <chain id="chain472" out="00:02:31.783">
  <property name="length">9108</property>
  <property name="eof">pause</property>
  <property name="resource">audio/music/Nursery/Maisie Dreamer */variations/Maisie Dreamer | Mbira Ost.wav</property>
  <property name="mlt_service">avformat</property>
  <property name="meta.media.nb_streams">1</property>
  <property name="meta.media.0.stream.type">audio</property>
  <property name="meta.media.0.codec.sample_fmt">s32</property>
  <property name="meta.media.0.codec.sample_rate">44100</property>
  <property name="meta.media.0.codec.channels">2</property>
  <property name="meta.media.0.codec.name">pcm_s24le</property>
  <property name="meta.media.0.codec.long_name">PCM signed 24-bit little-endian</property>
  <property name="meta.media.0.codec.bit_rate">2116800</property>
  <property name="meta.attr.encoded_by.markup">Logic Pro X</property>
  <property name="meta.attr.date.markup">2018-02-12</property>
  <property name="meta.attr.creation_time.markup">11:58:00</property>
  <property name="meta.attr.time_reference.markup">158792687</property>
  <property name="meta.attr.umid.markup">0x00000000000000000000000000000000000000000000000000000000D20029D40BE531B1D0A1F4EDFE7F0000507639030100000010A2F4EDFE7F00003D465D6B</property>
  <property name="meta.attr.album.markup">Nursery</property>
  <property name="seekable">1</property>
  <property name="audio_index">0</property>
  <property name="video_index">-1</property>
  <property name="kdenlive:clipname"/>
  <property name="kdenlive:clip_type">1</property>
  <property name="kdenlive:folderid">489</property>
  <property name="kdenlive:id">494</property>
  <property name="kdenlive:file_size">40167620</property>
  <property name="kdenlive:file_hash">298b131de5aaa2d45e3131107936cee2</property>
  <property name="kdenlive:audio_max0">216</property>
 </chain>
 <chain id="chain475" out="00:01:56.350">
  <property name="length">6982</property>
  <property name="eof">pause</property>
  <property name="resource">audio/music/Nursery/Maisie Dreamer */variations/Maisie Dreamer | Minimal.wav</property>
  <property name="mlt_service">avformat</property>
  <property name="meta.media.nb_streams">1</property>
  <property name="meta.media.0.stream.type">audio</property>
  <property name="meta.media.0.codec.sample_fmt">s32</property>
  <property name="meta.media.0.codec.sample_rate">44100</property>
  <property name="meta.media.0.codec.channels">2</property>
  <property name="meta.media.0.codec.name">pcm_s24le</property>
  <property name="meta.media.0.codec.long_name">PCM signed 24-bit little-endian</property>
  <property name="meta.media.0.codec.bit_rate">2116800</property>
  <property name="meta.attr.encoded_by.markup">Logic Pro X</property>
  <property name="meta.attr.date.markup">2018-02-12</property>
  <property name="meta.attr.creation_time.markup">11:54:43</property>
  <property name="meta.attr.time_reference.markup">160355126</property>
  <property name="meta.attr.umid.markup">0x00000000000000000000000000000000000000000000000000000000D20029D40BE531B1D0A1F4EDFE7F0000507639030100000010A2F4EDFE7F00003D465D6B</property>
  <property name="meta.attr.album.markup">Nursery</property>
  <property name="seekable">1</property>
  <property name="audio_index">0</property>
  <property name="video_index">-1</property>
  <property name="kdenlive:clipname"/>
  <property name="kdenlive:clip_type">1</property>
  <property name="kdenlive:folderid">489</property>
  <property name="kdenlive:id">495</property>
  <property name="kdenlive:file_size">30792986</property>
  <property name="kdenlive:file_hash">6608edcefd8189b3631193063e1c5e34</property>
  <property name="kdenlive:audio_max0">220</property>
 </chain>
 <chain id="chain476" out="00:01:56.350">
  <property name="length">6982</property>
  <property name="eof">pause</property>
  <property name="resource">audio/music/Nursery/Maisie Dreamer */variations/Maisie Dreamer | Rhythmic Driver.wav</property>
  <property name="mlt_service">avformat</property>
  <property name="meta.media.nb_streams">1</property>
  <property name="meta.media.0.stream.type">audio</property>
  <property name="meta.media.0.codec.sample_fmt">s32</property>
  <property name="meta.media.0.codec.sample_rate">44100</property>
  <property name="meta.media.0.codec.channels">2</property>
  <property name="meta.media.0.codec.name">pcm_s24le</property>
  <property name="meta.media.0.codec.long_name">PCM signed 24-bit little-endian</property>
  <property name="meta.media.0.codec.bit_rate">2116800</property>
  <property name="meta.attr.encoded_by.markup">Logic Pro X</property>
  <property name="meta.attr.date.markup">2018-02-12</property>
  <property name="meta.attr.creation_time.markup">11:55:56</property>
  <property name="meta.attr.time_reference.markup">160355126</property>
  <property name="meta.attr.umid.markup">0x00000000000000000000000000000000000000000000000000000000D20029D40BE531B1D0A1F4EDFE7F0000507639030100000010A2F4EDFE7F00003D465D6B</property>
  <property name="meta.attr.album.markup">Nursery</property>
  <property name="seekable">1</property>
  <property name="audio_index">0</property>
  <property name="video_index">-1</property>
  <property name="kdenlive:clipname"/>
  <property name="kdenlive:clip_type">1</property>
  <property name="kdenlive:folderid">489</property>
  <property name="kdenlive:id">496</property>
  <property name="kdenlive:file_size">30792986</property>
  <property name="kdenlive:file_hash">d370fe87d824b832e08c1d63dda115ba</property>
  <property name="kdenlive:audio_max0">230</property>
 </chain>
 <chain id="chain478" out="00:01:56.417">
  <property name="length">6986</property>
  <property name="eof">pause</property>
  <property name="resource">audio/music/Nursery/Maisie Lee/Maisie Lee.wav</property>
  <property name="mlt_service">avformat</property>
  <property name="meta.media.nb_streams">1</property>
  <property name="meta.media.0.stream.type">audio</property>
  <property name="meta.media.0.codec.sample_fmt">s32</property>
  <property name="meta.media.0.codec.sample_rate">44100</property>
  <property name="meta.media.0.codec.channels">2</property>
  <property name="meta.media.0.codec.name">pcm_s24le</property>
  <property name="meta.media.0.codec.long_name">PCM signed 24-bit little-endian</property>
  <property name="meta.media.0.codec.bit_rate">2116800</property>
  <property name="meta.attr.encoded_by.markup">Logic Pro X</property>
  <property name="meta.attr.date.markup">2018-02-12</property>
  <property name="meta.attr.creation_time.markup">10:41:21</property>
  <property name="meta.attr.time_reference.markup">159365421</property>
  <property name="meta.attr.umid.markup">0x00000000000000000000000000000000000000000000000000000000D20029D40BE531B1D0A1F4EDFE7F0000507639030100000010A2F4EDFE7F00003D465D6B</property>
  <property name="meta.attr.album.markup">Nursery</property>
  <property name="seekable">1</property>
  <property name="audio_index">0</property>
  <property name="video_index">-1</property>
  <property name="kdenlive:clipname"/>
  <property name="kdenlive:clip_type">1</property>
  <property name="kdenlive:folderid">497</property>
  <property name="kdenlive:id">498</property>
  <property name="kdenlive:file_size">30808328</property>
  <property name="kdenlive:file_hash">1fa0daad671340e84c06ee910aeb7d60</property>
  <property name="kdenlive:audio_max0">217</property>
 </chain>
 <chain id="chain477" out="00:01:56.417">
  <property name="length">6986</property>
  <property name="eof">pause</property>
  <property name="resource">audio/music/Nursery/Maisie Lee/stems/01_Maisie Lee_Tongue Drum.wav</property>
  <property name="mlt_service">avformat</property>
  <property name="meta.media.nb_streams">1</property>
  <property name="meta.media.0.stream.type">audio</property>
  <property name="meta.media.0.codec.sample_fmt">s32</property>
  <property name="meta.media.0.codec.sample_rate">44100</property>
  <property name="meta.media.0.codec.channels">2</property>
  <property name="meta.media.0.codec.name">pcm_s24le</property>
  <property name="meta.media.0.codec.long_name">PCM signed 24-bit little-endian</property>
  <property name="meta.media.0.codec.bit_rate">2116800</property>
  <property name="meta.attr.encoded_by.markup">Logic Pro X</property>
  <property name="meta.attr.date.markup">2018-02-12</property>
  <property name="meta.attr.creation_time.markup">10:50:06</property>
  <property name="meta.attr.time_reference.markup">159365421</property>
  <property name="meta.attr.umid.markup">0x00000000000000000000000000000000000000000000000000000000D20029D40BE531B160DEF4EDFE7F00005076390301000000A0DEF4EDFE7F00003D465D6B</property>
  <property name="seekable">1</property>
  <property name="audio_index">0</property>
  <property name="video_index">-1</property>
  <property name="kdenlive:clipname"/>
  <property name="kdenlive:clip_type">1</property>
  <property name="kdenlive:folderid">499</property>
  <property name="kdenlive:id">500</property>
  <property name="kdenlive:file_size">30847398</property>
  <property name="kdenlive:file_hash">99b4815a3d3f3ae8a872e730acd8d6e5</property>
  <property name="kdenlive:audio_max0">131</property>
 </chain>
 <chain id="chain480" out="00:01:56.417">
  <property name="length">6986</property>
  <property name="eof">pause</property>
  <property name="resource">audio/music/Nursery/Maisie Lee/stems/02_Maisie Lee_Fjoria SynPad.wav</property>
  <property name="mlt_service">avformat</property>
  <property name="meta.media.nb_streams">1</property>
  <property name="meta.media.0.stream.type">audio</property>
  <property name="meta.media.0.codec.sample_fmt">s32</property>
  <property name="meta.media.0.codec.sample_rate">44100</property>
  <property name="meta.media.0.codec.channels">2</property>
  <property name="meta.media.0.codec.name">pcm_s24le</property>
  <property name="meta.media.0.codec.long_name">PCM signed 24-bit little-endian</property>
  <property name="meta.media.0.codec.bit_rate">2116800</property>
  <property name="meta.attr.encoded_by.markup">Logic Pro X</property>
  <property name="meta.attr.date.markup">2018-02-12</property>
  <property name="meta.attr.creation_time.markup">10:50:08</property>
  <property name="meta.attr.time_reference.markup">159365421</property>
  <property name="meta.attr.umid.markup">0x00000000000000000000000000000000000000000000000000000000D20029D40BE531B160DEF4EDFE7F00005076390301000000A0DEF4EDFE7F00003D465D6B</property>
  <property name="seekable">1</property>
  <property name="audio_index">0</property>
  <property name="video_index">-1</property>
  <property name="kdenlive:clipname"/>
  <property name="kdenlive:clip_type">1</property>
  <property name="kdenlive:folderid">499</property>
  <property name="kdenlive:id">501</property>
  <property name="kdenlive:file_size">30847398</property>
  <property name="kdenlive:file_hash">2b7896d3bff6c65db364aad25c4bb3a3</property>
  <property name="kdenlive:audio_max0">48</property>
 </chain>
 <chain id="chain481" out="00:01:56.417">
  <property name="length">6986</property>
  <property name="eof">pause</property>
  <property name="resource">audio/music/Nursery/Maisie Lee/stems/03_Maisie Lee_Violin.wav</property>
  <property name="mlt_service">avformat</property>
  <property name="meta.media.nb_streams">1</property>
  <property name="meta.media.0.stream.type">audio</property>
  <property name="meta.media.0.codec.sample_fmt">s32</property>
  <property name="meta.media.0.codec.sample_rate">44100</property>
  <property name="meta.media.0.codec.channels">2</property>
  <property name="meta.media.0.codec.name">pcm_s24le</property>
  <property name="meta.media.0.codec.long_name">PCM signed 24-bit little-endian</property>
  <property name="meta.media.0.codec.bit_rate">2116800</property>
  <property name="meta.attr.encoded_by.markup">Logic Pro X</property>
  <property name="meta.attr.date.markup">2018-02-12</property>
  <property name="meta.attr.creation_time.markup">10:50:10</property>
  <property name="meta.attr.time_reference.markup">159365421</property>
  <property name="meta.attr.umid.markup">0x00000000000000000000000000000000000000000000000000000000D20029D40BE531B160DEF4EDFE7F00005076390301000000A0DEF4EDFE7F00003D465D6B</property>
  <property name="seekable">1</property>
  <property name="audio_index">0</property>
  <property name="video_index">-1</property>
  <property name="kdenlive:clipname"/>
  <property name="kdenlive:clip_type">1</property>
  <property name="kdenlive:folderid">499</property>
  <property name="kdenlive:id">502</property>
  <property name="kdenlive:file_size">30847398</property>
  <property name="kdenlive:file_hash">857a92b61779a221c560a2fdc8ffe6d5</property>
  <property name="kdenlive:audio_max0">68</property>
 </chain>
 <chain id="chain479" out="00:01:09.500">
  <property name="length">4171</property>
  <property name="eof">pause</property>
  <property name="resource">audio/music/Nursery/Maisie Lee/variations/Maisie Lee | 1 Min with Strings.wav</property>
  <property name="mlt_service">avformat</property>
  <property name="meta.media.nb_streams">1</property>
  <property name="meta.media.0.stream.type">audio</property>
  <property name="meta.media.0.codec.sample_fmt">s32</property>
  <property name="meta.media.0.codec.sample_rate">44100</property>
  <property name="meta.media.0.codec.channels">2</property>
  <property name="meta.media.0.codec.name">pcm_s24le</property>
  <property name="meta.media.0.codec.long_name">PCM signed 24-bit little-endian</property>
  <property name="meta.media.0.codec.bit_rate">2116800</property>
  <property name="meta.attr.encoded_by.markup">Logic Pro X</property>
  <property name="meta.attr.date.markup">2018-02-12</property>
  <property name="meta.attr.creation_time.markup">10:52:49</property>
  <property name="meta.attr.time_reference.markup">161433797</property>
  <property name="meta.attr.umid.markup">0x00000000000000000000000000000000000000000000000000000000D20029D40BE531B1D0A1F4EDFE7F0000507639030100000010A2F4EDFE7F00003D465D6B</property>
  <property name="meta.attr.album.markup">Nursery</property>
  <property name="seekable">1</property>
  <property name="audio_index">0</property>
  <property name="video_index">-1</property>
  <property name="kdenlive:clipname"/>
  <property name="kdenlive:clip_type">1</property>
  <property name="kdenlive:folderid">503</property>
  <property name="kdenlive:id">504</property>
  <property name="kdenlive:file_size">18398072</property>
  <property name="kdenlive:file_hash">c3c54f51544a291b7b494dce0433c0a0</property>
  <property name="kdenlive:audio_max0">219</property>
 </chain>
 <chain id="chain482" out="00:01:09.500">
  <property name="length">4171</property>
  <property name="eof">pause</property>
  <property name="resource">audio/music/Nursery/Maisie Lee/variations/Maisie Lee | 1 Min.wav</property>
  <property name="mlt_service">avformat</property>
  <property name="meta.media.nb_streams">1</property>
  <property name="meta.media.0.stream.type">audio</property>
  <property name="meta.media.0.codec.sample_fmt">s32</property>
  <property name="meta.media.0.codec.sample_rate">44100</property>
  <property name="meta.media.0.codec.channels">2</property>
  <property name="meta.media.0.codec.name">pcm_s24le</property>
  <property name="meta.media.0.codec.long_name">PCM signed 24-bit little-endian</property>
  <property name="meta.media.0.codec.bit_rate">2116800</property>
  <property name="meta.attr.encoded_by.markup">Logic Pro X</property>
  <property name="meta.attr.date.markup">2018-02-12</property>
  <property name="meta.attr.creation_time.markup">10:52:14</property>
  <property name="meta.attr.time_reference.markup">161433797</property>
  <property name="meta.attr.umid.markup">0x00000000000000000000000000000000000000000000000000000000D20029D40BE531B1D0A1F4EDFE7F0000507639030100000010A2F4EDFE7F00003D465D6B</property>
  <property name="meta.attr.album.markup">Nursery</property>
  <property name="seekable">1</property>
  <property name="audio_index">0</property>
  <property name="video_index">-1</property>
  <property name="kdenlive:clipname"/>
  <property name="kdenlive:clip_type">1</property>
  <property name="kdenlive:folderid">503</property>
  <property name="kdenlive:id">505</property>
  <property name="kdenlive:file_size">18398072</property>
  <property name="kdenlive:file_hash">15dabeb1cc4cd3c5ab7c97957b9d6e42</property>
  <property name="kdenlive:audio_max0">218</property>
 </chain>
 <chain id="chain483" out="00:00:42.817">
  <property name="length">2570</property>
  <property name="eof">pause</property>
  <property name="resource">audio/music/Nursery/Maisie Lee/variations/Maisie Lee | 30 Sec.wav</property>
  <property name="mlt_service">avformat</property>
  <property name="meta.media.nb_streams">1</property>
  <property name="meta.media.0.stream.type">audio</property>
  <property name="meta.media.0.codec.sample_fmt">s32</property>
  <property name="meta.media.0.codec.sample_rate">44100</property>
  <property name="meta.media.0.codec.channels">2</property>
  <property name="meta.media.0.codec.name">pcm_s24le</property>
  <property name="meta.media.0.codec.long_name">PCM signed 24-bit little-endian</property>
  <property name="meta.media.0.codec.bit_rate">2116800</property>
  <property name="meta.attr.encoded_by.markup">Logic Pro X</property>
  <property name="meta.attr.date.markup">2018-02-12</property>
  <property name="meta.attr.creation_time.markup">10:51:51</property>
  <property name="meta.attr.time_reference.markup">162610529</property>
  <property name="meta.attr.umid.markup">0x00000000000000000000000000000000000000000000000000000000D20029D40BE531B1D0A1F4EDFE7F0000507639030100000010A2F4EDFE7F00003D465D6B</property>
  <property name="meta.attr.album.markup">Nursery</property>
  <property name="seekable">1</property>
  <property name="audio_index">0</property>
  <property name="video_index">-1</property>
  <property name="kdenlive:clipname"/>
  <property name="kdenlive:clip_type">1</property>
  <property name="kdenlive:folderid">503</property>
  <property name="kdenlive:id">506</property>
  <property name="kdenlive:file_size">11337680</property>
  <property name="kdenlive:file_hash">bd3d52562295838ef2c768490548099a</property>
  <property name="kdenlive:audio_max0">206</property>
 </chain>
 <chain id="chain484" out="00:01:25.383">
  <property name="length">5124</property>
  <property name="eof">pause</property>
  <property name="resource">audio/music/Nursery/Maisie Lee/variations/Maisie Lee | High Melody'.wav</property>
  <property name="mlt_service">avformat</property>
  <property name="meta.media.nb_streams">1</property>
  <property name="meta.media.0.stream.type">audio</property>
  <property name="meta.media.0.codec.sample_fmt">s32</property>
  <property name="meta.media.0.codec.sample_rate">44100</property>
  <property name="meta.media.0.codec.channels">2</property>
  <property name="meta.media.0.codec.name">pcm_s24le</property>
  <property name="meta.media.0.codec.long_name">PCM signed 24-bit little-endian</property>
  <property name="meta.media.0.codec.bit_rate">2116800</property>
  <property name="meta.attr.encoded_by.markup">Logic Pro X</property>
  <property name="meta.attr.date.markup">2018-02-12</property>
  <property name="meta.attr.creation_time.markup">10:53:33</property>
  <property name="meta.attr.time_reference.markup">160820014</property>
  <property name="meta.attr.umid.markup">0x00000000000000000000000000000000000000000000000000000000D20029D40BE531B1D0A1F4EDFE7F0000507639030100000010A2F4EDFE7F00003D465D6B</property>
  <property name="meta.attr.album.markup">Nursery</property>
  <property name="seekable">1</property>
  <property name="audio_index">0</property>
  <property name="video_index">-1</property>
  <property name="kdenlive:clipname"/>
  <property name="kdenlive:clip_type">1</property>
  <property name="kdenlive:folderid">503</property>
  <property name="kdenlive:id">507</property>
  <property name="kdenlive:file_size">22598072</property>
  <property name="kdenlive:file_hash">b083c9fcd413e401cac72c5058450ba4</property>
  <property name="kdenlive:audio_max0">211</property>
 </chain>
 <chain id="chain485" out="00:01:43.467">
  <property name="length">6209</property>
  <property name="eof">pause</property>
  <property name="resource">audio/music/Nursery/Maisie Lee/variations/Maisie Lee | Mbira Mix.wav</property>
  <property name="mlt_service">avformat</property>
  <property name="meta.media.nb_streams">1</property>
  <property name="meta.media.0.stream.type">audio</property>
  <property name="meta.media.0.codec.sample_fmt">s32</property>
  <property name="meta.media.0.codec.sample_rate">44100</property>
  <property name="meta.media.0.codec.channels">2</property>
  <property name="meta.media.0.codec.name">pcm_s24le</property>
  <property name="meta.media.0.codec.long_name">PCM signed 24-bit little-endian</property>
  <property name="meta.media.0.codec.bit_rate">2116800</property>
  <property name="meta.attr.encoded_by.markup">Logic Pro X</property>
  <property name="meta.attr.date.markup">2018-02-12</property>
  <property name="meta.attr.creation_time.markup">10:54:51</property>
  <property name="meta.attr.time_reference.markup">160022312</property>
  <property name="meta.attr.umid.markup">0x00000000000000000000000000000000000000000000000000000000D20029D40BE531B1D0A1F4EDFE7F0000507639030100000010A2F4EDFE7F00003D465D6B</property>
  <property name="meta.attr.album.markup">Nursery</property>
  <property name="seekable">1</property>
  <property name="audio_index">0</property>
  <property name="video_index">-1</property>
  <property name="kdenlive:clipname"/>
  <property name="kdenlive:clip_type">1</property>
  <property name="kdenlive:folderid">503</property>
  <property name="kdenlive:id">508</property>
  <property name="kdenlive:file_size">27384284</property>
  <property name="kdenlive:file_hash">f85638488d407060a1e15edae1106599</property>
  <property name="kdenlive:audio_max0">220</property>
 </chain>
 <chain id="chain486" out="00:01:11.617">
  <property name="length">4298</property>
  <property name="eof">pause</property>
  <property name="resource">audio/music/Nursery/Maisie Lee/variations/Maisie Lee | Strings lead Mbira.wav</property>
  <property name="mlt_service">avformat</property>
  <property name="meta.media.nb_streams">1</property>
  <property name="meta.media.0.stream.type">audio</property>
  <property name="meta.media.0.codec.sample_fmt">s32</property>
  <property name="meta.media.0.codec.sample_rate">44100</property>
  <property name="meta.media.0.codec.channels">2</property>
  <property name="meta.media.0.codec.name">pcm_s24le</property>
  <property name="meta.media.0.codec.long_name">PCM signed 24-bit little-endian</property>
  <property name="meta.media.0.codec.bit_rate">2116800</property>
  <property name="meta.attr.encoded_by.markup">Logic Pro X</property>
  <property name="meta.attr.date.markup">2018-02-12</property>
  <property name="meta.attr.creation_time.markup">10:55:32</property>
  <property name="meta.attr.time_reference.markup">161427259</property>
  <property name="meta.attr.umid.markup">0x00000000000000000000000000000000000000000000000000000000D20029D40BE531B1D0A1F4EDFE7F0000507639030100000010A2F4EDFE7F00003D465D6B</property>
  <property name="meta.attr.album.markup">Nursery</property>
  <property name="seekable">1</property>
  <property name="audio_index">0</property>
  <property name="video_index">-1</property>
  <property name="kdenlive:clipname"/>
  <property name="kdenlive:clip_type">1</property>
  <property name="kdenlive:folderid">503</property>
  <property name="kdenlive:id">509</property>
  <property name="kdenlive:file_size">18954602</property>
  <property name="kdenlive:file_hash">6da569f8a0432dca04934ff49dcfc1eb</property>
  <property name="kdenlive:audio_max0">204</property>
 </chain>
 <chain id="chain487" out="00:04:25.100">
  <property name="length">15907</property>
  <property name="eof">pause</property>
  <property name="resource">audio/music/Nursery/Night Light */Night Light (-precussion).wav</property>
  <property name="mlt_service">avformat</property>
  <property name="meta.media.nb_streams">1</property>
  <property name="meta.media.0.stream.type">audio</property>
  <property name="meta.media.0.codec.sample_fmt">s16</property>
  <property name="meta.media.0.codec.sample_rate">44100</property>
  <property name="meta.media.0.codec.channels">2</property>
  <property name="meta.media.0.codec.name">pcm_s16le</property>
  <property name="meta.media.0.codec.long_name">PCM signed 16-bit little-endian</property>
  <property name="meta.media.0.codec.bit_rate">1411200</property>
  <property name="meta.attr.date.markup">2016-10-15</property>
  <property name="meta.attr.encoder.markup">Lavf58.76.100</property>
  <property name="meta.attr.encoded_by.markup">Logic Pro X</property>
  <property name="seekable">1</property>
  <property name="audio_index">0</property>
  <property name="video_index">-1</property>
  <property name="kdenlive:clipname"/>
  <property name="kdenlive:clip_type">1</property>
  <property name="kdenlive:folderid">510</property>
  <property name="kdenlive:id">511</property>
  <property name="kdenlive:file_size">46765766</property>
  <property name="kdenlive:file_hash">6c6222b2fb0c53b62fe718ad07042f83</property>
  <property name="kdenlive:audio_max0">140</property>
 </chain>
 <chain id="chain488" out="00:04:25.100">
  <property name="length">15907</property>
  <property name="eof">pause</property>
  <property name="resource">audio/music/Nursery/Night Light */Night Light.wav</property>
  <property name="mlt_service">avformat</property>
  <property name="meta.media.nb_streams">1</property>
  <property name="meta.media.0.stream.type">audio</property>
  <property name="meta.media.0.codec.sample_fmt">s32</property>
  <property name="meta.media.0.codec.sample_rate">44100</property>
  <property name="meta.media.0.codec.channels">2</property>
  <property name="meta.media.0.codec.name">pcm_s24le</property>
  <property name="meta.media.0.codec.long_name">PCM signed 24-bit little-endian</property>
  <property name="meta.media.0.codec.bit_rate">2116800</property>
  <property name="meta.attr.encoded_by.markup">Logic Pro X</property>
  <property name="meta.attr.date.markup">2016-10-15</property>
  <property name="meta.attr.creation_time.markup">14:12:30</property>
  <property name="meta.attr.time_reference.markup">158760000</property>
  <property name="meta.attr.umid.markup">0x00000000D6A9DD3E92780051303A6853FF7F00006040420500600000000000000000000046B4530D0100000070C0CE7BFF7F000060326853FF7F00002A45B791</property>
  <property name="meta.attr.album.markup">Nursery</property>
  <property name="seekable">1</property>
  <property name="audio_index">0</property>
  <property name="video_index">-1</property>
  <property name="kdenlive:clipname"/>
  <property name="kdenlive:clip_type">1</property>
  <property name="kdenlive:folderid">510</property>
  <property name="kdenlive:id">512</property>
  <property name="kdenlive:file_size">70159664</property>
  <property name="kdenlive:file_hash">e75bc7cf0161aaff6eb4c637fd927aee</property>
  <property name="kdenlive:audio_max0">237</property>
 </chain>
 <chain id="chain489" out="00:04:25.100">
  <property name="length">15907</property>
  <property name="eof">pause</property>
  <property name="resource">audio/music/Nursery/Night Light */stems/01_Night Light_Rhodes.wav</property>
  <property name="mlt_service">avformat</property>
  <property name="meta.media.nb_streams">1</property>
  <property name="meta.media.0.stream.type">audio</property>
  <property name="meta.media.0.codec.sample_fmt">s32</property>
  <property name="meta.media.0.codec.sample_rate">44100</property>
  <property name="meta.media.0.codec.channels">2</property>
  <property name="meta.media.0.codec.name">pcm_s24le</property>
  <property name="meta.media.0.codec.long_name">PCM signed 24-bit little-endian</property>
  <property name="meta.media.0.codec.bit_rate">2116800</property>
  <property name="meta.attr.encoded_by.markup">Logic Pro X</property>
  <property name="meta.attr.date.markup">2016-10-15</property>
  <property name="meta.attr.creation_time.markup">14:18:51</property>
  <property name="meta.attr.time_reference.markup">158760000</property>
  <property name="meta.attr.umid.markup">0x00000000D6A9DD3E92780051303A6853FF7F0000C081620500600000000000000000000046B4530D0100000070C0CE7BFF7F000060326853FF7F00002A45B791</property>
  <property name="seekable">1</property>
  <property name="audio_index">0</property>
  <property name="video_index">-1</property>
  <property name="kdenlive:clipname"/>
  <property name="kdenlive:clip_type">1</property>
  <property name="kdenlive:folderid">513</property>
  <property name="kdenlive:id">514</property>
  <property name="kdenlive:file_size">70158604</property>
  <property name="kdenlive:file_hash">70fa279eeb70de618d66c58782577903</property>
  <property name="kdenlive:audio_max0">140</property>
 </chain>
 <chain id="chain490" out="00:04:25.100">
  <property name="length">15907</property>
  <property name="eof">pause</property>
  <property name="resource">audio/music/Nursery/Night Light */stems/02_Night Light_Piano.wav</property>
  <property name="mlt_service">avformat</property>
  <property name="meta.media.nb_streams">1</property>
  <property name="meta.media.0.stream.type">audio</property>
  <property name="meta.media.0.codec.sample_fmt">s32</property>
  <property name="meta.media.0.codec.sample_rate">44100</property>
  <property name="meta.media.0.codec.channels">2</property>
  <property name="meta.media.0.codec.name">pcm_s24le</property>
  <property name="meta.media.0.codec.long_name">PCM signed 24-bit little-endian</property>
  <property name="meta.media.0.codec.bit_rate">2116800</property>
  <property name="meta.attr.encoded_by.markup">Logic Pro X</property>
  <property name="meta.attr.date.markup">2016-10-15</property>
  <property name="meta.attr.creation_time.markup">14:17:35</property>
  <property name="meta.attr.time_reference.markup">158760000</property>
  <property name="meta.attr.umid.markup">0x00000000D6A9DD3E92780051303A6853FF7F000040D9A30580600000000000000000000046B4530D0100000070C0CE7BFF7F000060326853FF7F00002A45B791</property>
  <property name="seekable">1</property>
  <property name="audio_index">0</property>
  <property name="video_index">-1</property>
  <property name="kdenlive:clipname"/>
  <property name="kdenlive:clip_type">1</property>
  <property name="kdenlive:folderid">513</property>
  <property name="kdenlive:id">515</property>
  <property name="kdenlive:file_size">70158604</property>
  <property name="kdenlive:file_hash">3c193e1b4797550cb809568c7110f3cb</property>
  <property name="kdenlive:audio_max0">205</property>
 </chain>
 <chain id="chain491" out="00:04:25.100">
  <property name="length">15907</property>
  <property name="eof">pause</property>
  <property name="resource">audio/music/Nursery/Night Light */stems/03_Night Light_Tongue Drum.wav</property>
  <property name="mlt_service">avformat</property>
  <property name="meta.media.nb_streams">1</property>
  <property name="meta.media.0.stream.type">audio</property>
  <property name="meta.media.0.codec.sample_fmt">s32</property>
  <property name="meta.media.0.codec.sample_rate">44100</property>
  <property name="meta.media.0.codec.channels">2</property>
  <property name="meta.media.0.codec.name">pcm_s24le</property>
  <property name="meta.media.0.codec.long_name">PCM signed 24-bit little-endian</property>
  <property name="meta.media.0.codec.bit_rate">2116800</property>
  <property name="meta.attr.encoded_by.markup">Logic Pro X</property>
  <property name="meta.attr.date.markup">2016-10-15</property>
  <property name="meta.attr.creation_time.markup">14:15:11</property>
  <property name="meta.attr.time_reference.markup">158760000</property>
  <property name="meta.attr.umid.markup">0x00000000D6A9DD3E92780051303A6853FF7F0000E082420500600000000000000000000046B4530D0100000070C0CE7BFF7F000060326853FF7F00002A45B791</property>
  <property name="seekable">1</property>
  <property name="audio_index">0</property>
  <property name="video_index">-1</property>
  <property name="kdenlive:clipname"/>
  <property name="kdenlive:clip_type">1</property>
  <property name="kdenlive:folderid">513</property>
  <property name="kdenlive:id">516</property>
  <property name="kdenlive:file_size">70158604</property>
  <property name="kdenlive:file_hash">bdfeb1114ee28d336e1e7b0acbae544f</property>
  <property name="kdenlive:audio_max0">187</property>
 </chain>
 <chain id="chain492" out="00:04:25.100">
  <property name="length">15907</property>
  <property name="eof">pause</property>
  <property name="resource">audio/music/Nursery/Night Light */stems/04_Night Light_Drum Kit.wav</property>
  <property name="mlt_service">avformat</property>
  <property name="meta.media.nb_streams">1</property>
  <property name="meta.media.0.stream.type">audio</property>
  <property name="meta.media.0.codec.sample_fmt">s32</property>
  <property name="meta.media.0.codec.sample_rate">44100</property>
  <property name="meta.media.0.codec.channels">2</property>
  <property name="meta.media.0.codec.name">pcm_s24le</property>
  <property name="meta.media.0.codec.long_name">PCM signed 24-bit little-endian</property>
  <property name="meta.media.0.codec.bit_rate">2116800</property>
  <property name="meta.attr.encoded_by.markup">Logic Pro X</property>
  <property name="meta.attr.date.markup">2016-10-15</property>
  <property name="meta.attr.creation_time.markup">14:14:21</property>
  <property name="meta.attr.time_reference.markup">158760000</property>
  <property name="meta.attr.umid.markup">0x00000000D6A9DD3E92780051303A6853FF7F00000047420500600000000000000000000046B4530D0100000070C0CE7BFF7F000060326853FF7F00002A45B791</property>
  <property name="seekable">1</property>
  <property name="audio_index">0</property>
  <property name="video_index">-1</property>
  <property name="kdenlive:clipname"/>
  <property name="kdenlive:clip_type">1</property>
  <property name="kdenlive:folderid">513</property>
  <property name="kdenlive:id">517</property>
  <property name="kdenlive:file_size">70158604</property>
  <property name="kdenlive:file_hash">3dc7482e69007963f8a38c5c2c5459c4</property>
  <property name="kdenlive:audio_max0">133</property>
 </chain>
 <chain id="chain493" out="00:04:25.100">
  <property name="length">15907</property>
  <property name="eof">pause</property>
  <property name="resource">audio/music/Nursery/Night Light */stems/05_Night Light_Found Percussion.wav</property>
  <property name="mlt_service">avformat</property>
  <property name="meta.media.nb_streams">1</property>
  <property name="meta.media.0.stream.type">audio</property>
  <property name="meta.media.0.codec.sample_fmt">s32</property>
  <property name="meta.media.0.codec.sample_rate">44100</property>
  <property name="meta.media.0.codec.channels">2</property>
  <property name="meta.media.0.codec.name">pcm_s24le</property>
  <property name="meta.media.0.codec.long_name">PCM signed 24-bit little-endian</property>
  <property name="meta.media.0.codec.bit_rate">2116800</property>
  <property name="meta.attr.encoded_by.markup">Logic Pro X</property>
  <property name="meta.attr.date.markup">2016-10-15</property>
  <property name="meta.attr.creation_time.markup">14:13:55</property>
  <property name="meta.attr.time_reference.markup">158760000</property>
  <property name="meta.attr.umid.markup">0x00000000D6A9DD3E92780051303A6853FF7F00008051430500600000000000000000000046B4530D0100000070C0CE7BFF7F000060326853FF7F00002A45B791</property>
  <property name="seekable">1</property>
  <property name="audio_index">0</property>
  <property name="video_index">-1</property>
  <property name="kdenlive:clipname"/>
  <property name="kdenlive:clip_type">1</property>
  <property name="kdenlive:folderid">513</property>
  <property name="kdenlive:id">518</property>
  <property name="kdenlive:file_size">70158604</property>
  <property name="kdenlive:file_hash">fadec85dc05d24365d873f616e3c6255</property>
  <property name="kdenlive:audio_max0">73</property>
 </chain>
 <chain id="chain494" out="00:04:25.100">
  <property name="length">15907</property>
  <property name="eof">pause</property>
  <property name="resource">audio/music/Nursery/Night Light */stems/output.wav</property>
  <property name="mlt_service">avformat</property>
  <property name="meta.media.nb_streams">1</property>
  <property name="meta.media.0.stream.type">audio</property>
  <property name="meta.media.0.codec.sample_fmt">s16</property>
  <property name="meta.media.0.codec.sample_rate">44100</property>
  <property name="meta.media.0.codec.channels">2</property>
  <property name="meta.media.0.codec.name">pcm_s16le</property>
  <property name="meta.media.0.codec.long_name">PCM signed 16-bit little-endian</property>
  <property name="meta.media.0.codec.bit_rate">1411200</property>
  <property name="meta.attr.date.markup">2016-10-15</property>
  <property name="meta.attr.encoder.markup">Lavf58.76.100</property>
  <property name="meta.attr.encoded_by.markup">Logic Pro X</property>
  <property name="seekable">1</property>
  <property name="audio_index">0</property>
  <property name="video_index">-1</property>
  <property name="kdenlive:clipname"/>
  <property name="kdenlive:clip_type">1</property>
  <property name="kdenlive:folderid">513</property>
  <property name="kdenlive:id">519</property>
  <property name="kdenlive:file_size">46765766</property>
  <property name="kdenlive:file_hash">6c6222b2fb0c53b62fe718ad07042f83</property>
 </chain>
 <chain id="chain495" out="00:04:24.500">
  <property name="length">15871</property>
  <property name="eof">pause</property>
  <property name="resource">audio/music/Nursery/Petaluma/Petaluma.wav</property>
  <property name="mlt_service">avformat</property>
  <property name="meta.media.nb_streams">1</property>
  <property name="meta.media.0.stream.type">audio</property>
  <property name="meta.media.0.codec.sample_fmt">s32</property>
  <property name="meta.media.0.codec.sample_rate">44100</property>
  <property name="meta.media.0.codec.channels">2</property>
  <property name="meta.media.0.codec.name">pcm_s24le</property>
  <property name="meta.media.0.codec.long_name">PCM signed 24-bit little-endian</property>
  <property name="meta.media.0.codec.bit_rate">2116800</property>
  <property name="meta.attr.encoded_by.markup">Logic Pro X</property>
  <property name="meta.attr.date.markup">2016-10-15</property>
  <property name="meta.attr.creation_time.markup">11:53:35</property>
  <property name="meta.attr.time_reference.markup">158760000</property>
  <property name="meta.attr.umid.markup">0x00000000D6A9DD3E92780051303A6853FF7F00006054630500600000000000000000000046B4530D0100000070C0CE7BFF7F000060326853FF7F00002A45B791</property>
  <property name="meta.attr.album.markup">Nursery</property>
  <property name="seekable">1</property>
  <property name="audio_index">0</property>
  <property name="video_index">-1</property>
  <property name="kdenlive:clipname"/>
  <property name="kdenlive:clip_type">1</property>
  <property name="kdenlive:folderid">520</property>
  <property name="kdenlive:id">521</property>
  <property name="kdenlive:file_size">69992754</property>
  <property name="kdenlive:file_hash">1ae67176c107cb81f9a5189a79b76e54</property>
  <property name="kdenlive:audio_max0">241</property>
 </chain>
 <chain id="chain496" out="00:04:24.500">
  <property name="length">15871</property>
  <property name="eof">pause</property>
  <property name="resource">audio/music/Nursery/Petaluma/stems/01_Petaluma_Rhodes.wav</property>
  <property name="mlt_service">avformat</property>
  <property name="meta.media.nb_streams">1</property>
  <property name="meta.media.0.stream.type">audio</property>
  <property name="meta.media.0.codec.sample_fmt">s32</property>
  <property name="meta.media.0.codec.sample_rate">44100</property>
  <property name="meta.media.0.codec.channels">2</property>
  <property name="meta.media.0.codec.name">pcm_s24le</property>
  <property name="meta.media.0.codec.long_name">PCM signed 24-bit little-endian</property>
  <property name="meta.media.0.codec.bit_rate">2116800</property>
  <property name="meta.attr.encoded_by.markup">Logic Pro X</property>
  <property name="meta.attr.date.markup">2016-10-15</property>
  <property name="meta.attr.creation_time.markup">11:50:02</property>
  <property name="meta.attr.time_reference.markup">158760000</property>
  <property name="meta.attr.umid.markup">0x00000000D6A9DD3E92780051303A6853FF7F000080E6430500600000000000000000000046B4530D0100000070C0CE7BFF7F000060326853FF7F00002A45B791</property>
  <property name="seekable">1</property>
  <property name="audio_index">0</property>
  <property name="video_index">-1</property>
  <property name="kdenlive:clipname"/>
  <property name="kdenlive:clip_type">1</property>
  <property name="kdenlive:folderid">522</property>
  <property name="kdenlive:id">523</property>
  <property name="kdenlive:file_size">69991694</property>
  <property name="kdenlive:file_hash">1b3cb6179ab8f71328fb6d2bdc6ae29c</property>
  <property name="kdenlive:audio_max0">172</property>
 </chain>
 <chain id="chain497" out="00:04:24.500">
  <property name="length">15871</property>
  <property name="eof">pause</property>
  <property name="resource">audio/music/Nursery/Petaluma/stems/02_Petaluma_Piano.wav</property>
  <property name="mlt_service">avformat</property>
  <property name="meta.media.nb_streams">1</property>
  <property name="meta.media.0.stream.type">audio</property>
  <property name="meta.media.0.codec.sample_fmt">s32</property>
  <property name="meta.media.0.codec.sample_rate">44100</property>
  <property name="meta.media.0.codec.channels">2</property>
  <property name="meta.media.0.codec.name">pcm_s24le</property>
  <property name="meta.media.0.codec.long_name">PCM signed 24-bit little-endian</property>
  <property name="meta.media.0.codec.bit_rate">2116800</property>
  <property name="meta.attr.encoded_by.markup">Logic Pro X</property>
  <property name="meta.attr.date.markup">2016-10-15</property>
  <property name="meta.attr.creation_time.markup">11:49:25</property>
  <property name="meta.attr.time_reference.markup">158760000</property>
  <property name="meta.attr.umid.markup">0x00000000D6A9DD3E92780051303A6853FF7F0000803C620500600000000000000000000046B4530D0100000070C0CE7BFF7F000060326853FF7F00002A45B791</property>
  <property name="seekable">1</property>
  <property name="audio_index">0</property>
  <property name="video_index">-1</property>
  <property name="kdenlive:clipname"/>
  <property name="kdenlive:clip_type">1</property>
  <property name="kdenlive:folderid">522</property>
  <property name="kdenlive:id">524</property>
  <property name="kdenlive:file_size">69991694</property>
  <property name="kdenlive:file_hash">1c56ac8c410b6c44330cd1cdb72f7750</property>
  <property name="kdenlive:audio_max0">203</property>
 </chain>
 <chain id="chain498" out="00:04:24.500">
  <property name="length">15871</property>
  <property name="eof">pause</property>
  <property name="resource">audio/music/Nursery/Petaluma/stems/03_Petaluma_Tongue Drum.wav</property>
  <property name="mlt_service">avformat</property>
  <property name="meta.media.nb_streams">1</property>
  <property name="meta.media.0.stream.type">audio</property>
  <property name="meta.media.0.codec.sample_fmt">s32</property>
  <property name="meta.media.0.codec.sample_rate">44100</property>
  <property name="meta.media.0.codec.channels">2</property>
  <property name="meta.media.0.codec.name">pcm_s24le</property>
  <property name="meta.media.0.codec.long_name">PCM signed 24-bit little-endian</property>
  <property name="meta.media.0.codec.bit_rate">2116800</property>
  <property name="meta.attr.encoded_by.markup">Logic Pro X</property>
  <property name="meta.attr.date.markup">2016-10-15</property>
  <property name="meta.attr.creation_time.markup">11:48:47</property>
  <property name="meta.attr.time_reference.markup">158760000</property>
  <property name="meta.attr.umid.markup">0x00000000D6A9DD3E92780051303A6853FF7F0000C0E6630580600000000000000000000046B4530D0100000070C0CE7BFF7F000060326853FF7F00002A45B791</property>
  <property name="seekable">1</property>
  <property name="audio_index">0</property>
  <property name="video_index">-1</property>
  <property name="kdenlive:clipname"/>
  <property name="kdenlive:clip_type">1</property>
  <property name="kdenlive:folderid">522</property>
  <property name="kdenlive:id">525</property>
  <property name="kdenlive:file_size">69991694</property>
  <property name="kdenlive:file_hash">d258c8978ae941253b3093f5c64f0198</property>
  <property name="kdenlive:audio_max0">164</property>
 </chain>
 <chain id="chain499" out="00:04:24.500">
  <property name="length">15871</property>
  <property name="eof">pause</property>
  <property name="resource">audio/music/Nursery/Petaluma/stems/04_Petaluma_Percussion.wav</property>
  <property name="mlt_service">avformat</property>
  <property name="meta.media.nb_streams">1</property>
  <property name="meta.media.0.stream.type">audio</property>
  <property name="meta.media.0.codec.sample_fmt">s32</property>
  <property name="meta.media.0.codec.sample_rate">44100</property>
  <property name="meta.media.0.codec.channels">2</property>
  <property name="meta.media.0.codec.name">pcm_s24le</property>
  <property name="meta.media.0.codec.long_name">PCM signed 24-bit little-endian</property>
  <property name="meta.media.0.codec.bit_rate">2116800</property>
  <property name="meta.attr.encoded_by.markup">Logic Pro X</property>
  <property name="meta.attr.date.markup">2016-10-15</property>
  <property name="meta.attr.creation_time.markup">11:46:59</property>
  <property name="meta.attr.time_reference.markup">158760000</property>
  <property name="meta.attr.umid.markup">0x00000000D6A9DD3E92780051303A6853FF7F00004049430500600000000000000000000046B4530D0100000070C0CE7BFF7F000060326853FF7F00002A45B791</property>
  <property name="seekable">1</property>
  <property name="audio_index">0</property>
  <property name="video_index">-1</property>
  <property name="kdenlive:clipname"/>
  <property name="kdenlive:clip_type">1</property>
  <property name="kdenlive:folderid">522</property>
  <property name="kdenlive:id">526</property>
  <property name="kdenlive:file_size">69991694</property>
  <property name="kdenlive:file_hash">51c68bc54e50381f3ab7afd33ec2fa34</property>
  <property name="kdenlive:audio_max0">190</property>
 </chain>
 <chain id="chain500" out="00:04:24.500">
  <property name="length">15871</property>
  <property name="eof">pause</property>
  <property name="resource">audio/music/Nursery/Petaluma/stems/05_Petaluma_Fjoria SynPad.wav</property>
  <property name="mlt_service">avformat</property>
  <property name="meta.media.nb_streams">1</property>
  <property name="meta.media.0.stream.type">audio</property>
  <property name="meta.media.0.codec.sample_fmt">s32</property>
  <property name="meta.media.0.codec.sample_rate">44100</property>
  <property name="meta.media.0.codec.channels">2</property>
  <property name="meta.media.0.codec.name">pcm_s24le</property>
  <property name="meta.media.0.codec.long_name">PCM signed 24-bit little-endian</property>
  <property name="meta.media.0.codec.bit_rate">2116800</property>
  <property name="meta.attr.encoded_by.markup">Logic Pro X</property>
  <property name="meta.attr.date.markup">2016-10-15</property>
  <property name="meta.attr.creation_time.markup">11:46:05</property>
  <property name="meta.attr.time_reference.markup">158760000</property>
  <property name="meta.attr.umid.markup">0x00000000D6A9DD3E92780051303A6853FF7F0000A014620500600000000000000000000046B4530D0100000070C0CE7BFF7F000060326853FF7F00002A45B791</property>
  <property name="seekable">1</property>
  <property name="audio_index">0</property>
  <property name="video_index">-1</property>
  <property name="kdenlive:clipname"/>
  <property name="kdenlive:clip_type">1</property>
  <property name="kdenlive:folderid">522</property>
  <property name="kdenlive:id">527</property>
  <property name="kdenlive:file_size">69991694</property>
  <property name="kdenlive:file_hash">002c0da9196993200e64b7da8bd9f743</property>
  <property name="kdenlive:audio_max0">145</property>
 </chain>
 <chain id="chain506" out="00:04:24.500">
  <property name="length">15871</property>
  <property name="eof">pause</property>
  <property name="resource">audio/music/Nursery/Petaluma/stems/output.wav</property>
  <property name="mlt_service">avformat</property>
  <property name="meta.media.nb_streams">1</property>
  <property name="meta.media.0.stream.type">audio</property>
  <property name="meta.media.0.codec.sample_fmt">s16</property>
  <property name="meta.media.0.codec.sample_rate">44100</property>
  <property name="meta.media.0.codec.channels">2</property>
  <property name="meta.media.0.codec.name">pcm_s16le</property>
  <property name="meta.media.0.codec.long_name">PCM signed 16-bit little-endian</property>
  <property name="meta.media.0.codec.bit_rate">1411200</property>
  <property name="meta.attr.date.markup">2016-10-15</property>
  <property name="meta.attr.encoder.markup">Lavf58.76.100</property>
  <property name="meta.attr.encoded_by.markup">Logic Pro X</property>
  <property name="seekable">1</property>
  <property name="audio_index">0</property>
  <property name="video_index">-1</property>
  <property name="kdenlive:clipname"/>
  <property name="kdenlive:clip_type">1</property>
  <property name="kdenlive:folderid">522</property>
  <property name="kdenlive:id">528</property>
  <property name="kdenlive:file_size">46660762</property>
  <property name="kdenlive:file_hash">52a2f9c8f735ea4c0b1143e07b9a5a7f</property>
  <property name="kdenlive:audio_max0">148</property>
 </chain>
 <chain id="chain502" out="00:03:38.550">
  <property name="length">13114</property>
  <property name="eof">pause</property>
  <property name="resource">audio/music/Nursery/Stuffed Monster/Stuffed Monster.wav</property>
  <property name="mlt_service">avformat</property>
  <property name="meta.media.nb_streams">1</property>
  <property name="meta.media.0.stream.type">audio</property>
  <property name="meta.media.0.codec.sample_fmt">s32</property>
  <property name="meta.media.0.codec.sample_rate">44100</property>
  <property name="meta.media.0.codec.channels">2</property>
  <property name="meta.media.0.codec.name">pcm_s24le</property>
  <property name="meta.media.0.codec.long_name">PCM signed 24-bit little-endian</property>
  <property name="meta.media.0.codec.bit_rate">2116800</property>
  <property name="meta.attr.encoded_by.markup">Logic Pro X</property>
  <property name="meta.attr.date.markup">2016-10-22</property>
  <property name="meta.attr.creation_time.markup">18:53:28</property>
  <property name="meta.attr.time_reference.markup">158760000</property>
  <property name="meta.attr.umid.markup">0x00000000129092E22783004C309A4957FF7F000020450201006000000000000000000000465472090100000070A0C072FF7F000060924957FF7F00002A25A988</property>
  <property name="meta.attr.album.markup">Nursery</property>
  <property name="seekable">1</property>
  <property name="audio_index">0</property>
  <property name="video_index">-1</property>
  <property name="kdenlive:clipname"/>
  <property name="kdenlive:clip_type">1</property>
  <property name="kdenlive:folderid">529</property>
  <property name="kdenlive:id">530</property>
  <property name="kdenlive:file_size">57835790</property>
  <property name="kdenlive:file_hash">ecf61d177bd3db5d0c114358ae1912eb</property>
  <property name="kdenlive:audio_max0">238</property>
 </chain>
 <chain id="chain501" out="00:03:38.550">
  <property name="length">13114</property>
  <property name="eof">pause</property>
  <property name="resource">audio/music/Nursery/Stuffed Monster/stems/01_Stuffed Monster_Rhodes.wav</property>
  <property name="mlt_service">avformat</property>
  <property name="meta.media.nb_streams">1</property>
  <property name="meta.media.0.stream.type">audio</property>
  <property name="meta.media.0.codec.sample_fmt">s32</property>
  <property name="meta.media.0.codec.sample_rate">44100</property>
  <property name="meta.media.0.codec.channels">2</property>
  <property name="meta.media.0.codec.name">pcm_s24le</property>
  <property name="meta.media.0.codec.long_name">PCM signed 24-bit little-endian</property>
  <property name="meta.media.0.codec.bit_rate">2116800</property>
  <property name="meta.attr.encoded_by.markup">Logic Pro X</property>
  <property name="meta.attr.date.markup">2016-10-22</property>
  <property name="meta.attr.creation_time.markup">18:57:34</property>
  <property name="meta.attr.time_reference.markup">158760000</property>
  <property name="meta.attr.umid.markup">0x00000000129092E22783004C309A4957FF7F00004084E200006000000000000000000000465472090100000070A0C072FF7F000060924957FF7F00002A25A988</property>
  <property name="seekable">1</property>
  <property name="audio_index">0</property>
  <property name="video_index">-1</property>
  <property name="kdenlive:clipname"/>
  <property name="kdenlive:clip_type">1</property>
  <property name="kdenlive:folderid">531</property>
  <property name="kdenlive:id">532</property>
  <property name="kdenlive:file_size">57834730</property>
  <property name="kdenlive:file_hash">7361d82c315b14a079719b5e0d291966</property>
  <property name="kdenlive:audio_max0">195</property>
 </chain>
 <chain id="chain504" out="00:03:38.550">
  <property name="length">13114</property>
  <property name="eof">pause</property>
  <property name="resource">audio/music/Nursery/Stuffed Monster/stems/02_Stuffed Monster_Tongue Drum.wav</property>
  <property name="mlt_service">avformat</property>
  <property name="meta.media.nb_streams">1</property>
  <property name="meta.media.0.stream.type">audio</property>
  <property name="meta.media.0.codec.sample_fmt">s32</property>
  <property name="meta.media.0.codec.sample_rate">44100</property>
  <property name="meta.media.0.codec.channels">2</property>
  <property name="meta.media.0.codec.name">pcm_s24le</property>
  <property name="meta.media.0.codec.long_name">PCM signed 24-bit little-endian</property>
  <property name="meta.media.0.codec.bit_rate">2116800</property>
  <property name="meta.attr.encoded_by.markup">Logic Pro X</property>
  <property name="meta.attr.date.markup">2016-10-22</property>
  <property name="meta.attr.creation_time.markup">18:57:08</property>
  <property name="meta.attr.time_reference.markup">158760000</property>
  <property name="meta.attr.umid.markup">0x00000000129092E22783004C309A4957FF7F00006098E300006000000000000000000000465472090100000070A0C072FF7F000060924957FF7F00002A25A988</property>
  <property name="seekable">1</property>
  <property name="audio_index">0</property>
  <property name="video_index">-1</property>
  <property name="kdenlive:clipname"/>
  <property name="kdenlive:clip_type">1</property>
  <property name="kdenlive:folderid">531</property>
  <property name="kdenlive:id">533</property>
  <property name="kdenlive:file_size">57834730</property>
  <property name="kdenlive:file_hash">04d644093971fde697810e24cf6053d6</property>
  <property name="kdenlive:audio_max0">198</property>
 </chain>
 <chain id="chain503" out="00:03:38.550">
  <property name="length">13114</property>
  <property name="eof">pause</property>
  <property name="resource">audio/music/Nursery/Stuffed Monster/stems/03_Stuffed Monster_Drum Kit.wav</property>
  <property name="mlt_service">avformat</property>
  <property name="meta.media.nb_streams">1</property>
  <property name="meta.media.0.stream.type">audio</property>
  <property name="meta.media.0.codec.sample_fmt">s32</property>
  <property name="meta.media.0.codec.sample_rate">44100</property>
  <property name="meta.media.0.codec.channels">2</property>
  <property name="meta.media.0.codec.name">pcm_s24le</property>
  <property name="meta.media.0.codec.long_name">PCM signed 24-bit little-endian</property>
  <property name="meta.media.0.codec.bit_rate">2116800</property>
  <property name="meta.attr.encoded_by.markup">Logic Pro X</property>
  <property name="meta.attr.date.markup">2016-10-22</property>
  <property name="meta.attr.creation_time.markup">18:56:36</property>
  <property name="meta.attr.time_reference.markup">158760000</property>
  <property name="meta.attr.umid.markup">0x00000000129092E22783004C309A4957FF7F000060FDE200006000000000000000000000465472090100000070A0C072FF7F000060924957FF7F00002A25A988</property>
  <property name="seekable">1</property>
  <property name="audio_index">0</property>
  <property name="video_index">-1</property>
  <property name="kdenlive:clipname"/>
  <property name="kdenlive:clip_type">1</property>
  <property name="kdenlive:folderid">531</property>
  <property name="kdenlive:id">534</property>
  <property name="kdenlive:file_size">57834730</property>
  <property name="kdenlive:file_hash">5eab26c6b906ac1f1f96af1213c6ffeb</property>
  <property name="kdenlive:audio_max0">178</property>
 </chain>
 <chain id="chain505" out="00:03:38.550">
  <property name="length">13114</property>
  <property name="eof">pause</property>
  <property name="resource">audio/music/Nursery/Stuffed Monster/stems/04_Stuffed Monster_Uprught Bass.wav</property>
  <property name="mlt_service">avformat</property>
  <property name="meta.media.nb_streams">1</property>
  <property name="meta.media.0.stream.type">audio</property>
  <property name="meta.media.0.codec.sample_fmt">s32</property>
  <property name="meta.media.0.codec.sample_rate">44100</property>
  <property name="meta.media.0.codec.channels">2</property>
  <property name="meta.media.0.codec.name">pcm_s24le</property>
  <property name="meta.media.0.codec.long_name">PCM signed 24-bit little-endian</property>
  <property name="meta.media.0.codec.bit_rate">2116800</property>
  <property name="meta.attr.encoded_by.markup">Logic Pro X</property>
  <property name="meta.attr.date.markup">2016-10-22</property>
  <property name="meta.attr.creation_time.markup">18:54:56</property>
  <property name="meta.attr.time_reference.markup">158760000</property>
  <property name="meta.attr.umid.markup">0x00000000129092E22783004C309A4957FF7F00008056E200006000000000000000000000465472090100000070A0C072FF7F000060924957FF7F00002A25A988</property>
  <property name="seekable">1</property>
  <property name="audio_index">0</property>
  <property name="video_index">-1</property>
  <property name="kdenlive:clipname"/>
  <property name="kdenlive:clip_type">1</property>
  <property name="kdenlive:folderid">531</property>
  <property name="kdenlive:id">535</property>
  <property name="kdenlive:file_size">57834730</property>
  <property name="kdenlive:file_hash">5f89e051322f9c7983f1462b910cc012</property>
  <property name="kdenlive:audio_max0">184</property>
 </chain>
 <chain id="chain507" out="00:03:38.550">
  <property name="length">13114</property>
  <property name="eof">pause</property>
  <property name="resource">audio/music/Nursery/Stuffed Monster/stems/output.wav</property>
  <property name="mlt_service">avformat</property>
  <property name="meta.media.nb_streams">1</property>
  <property name="meta.media.0.stream.type">audio</property>
  <property name="meta.media.0.codec.sample_fmt">s16</property>
  <property name="meta.media.0.codec.sample_rate">44100</property>
  <property name="meta.media.0.codec.channels">2</property>
  <property name="meta.media.0.codec.name">pcm_s16le</property>
  <property name="meta.media.0.codec.long_name">PCM signed 16-bit little-endian</property>
  <property name="meta.media.0.codec.bit_rate">1411200</property>
  <property name="meta.attr.date.markup">2016-10-22</property>
  <property name="meta.attr.encoder.markup">Lavf58.76.100</property>
  <property name="meta.attr.encoded_by.markup">Logic Pro X</property>
  <property name="seekable">1</property>
  <property name="audio_index">0</property>
  <property name="video_index">-1</property>
  <property name="kdenlive:clipname"/>
  <property name="kdenlive:clip_type">1</property>
  <property name="kdenlive:folderid">531</property>
  <property name="kdenlive:id">536</property>
  <property name="kdenlive:file_size">38556118</property>
  <property name="kdenlive:file_hash">84ca81e38bb31fa76491f9c8edda9ac6</property>
  <property name="kdenlive:audio_max0">161</property>
 </chain>
 <chain id="chain509" out="00:03:42.833">
  <property name="length">13371</property>
  <property name="eof">pause</property>
  <property name="resource">audio/music/Nursery/The Callow */The Callow (-guitar -precussion).wav</property>
  <property name="mlt_service">avformat</property>
  <property name="meta.media.nb_streams">1</property>
  <property name="meta.media.0.stream.type">audio</property>
  <property name="meta.media.0.codec.sample_fmt">s16</property>
  <property name="meta.media.0.codec.sample_rate">44100</property>
  <property name="meta.media.0.codec.channels">2</property>
  <property name="meta.media.0.codec.name">pcm_s16le</property>
  <property name="meta.media.0.codec.long_name">PCM signed 16-bit little-endian</property>
  <property name="meta.media.0.codec.bit_rate">1411200</property>
  <property name="meta.attr.date.markup">2016-09-20</property>
  <property name="meta.attr.encoder.markup">Lavf58.76.100</property>
  <property name="meta.attr.encoded_by.markup">Logic Pro X</property>
  <property name="seekable">1</property>
  <property name="audio_index">0</property>
  <property name="video_index">-1</property>
  <property name="kdenlive:clipname"/>
  <property name="kdenlive:clip_type">1</property>
  <property name="kdenlive:folderid">537</property>
  <property name="kdenlive:id">538</property>
  <property name="kdenlive:file_size">39312118</property>
  <property name="kdenlive:file_hash">a9e5d693e46356e3aaba5ccc9492c661</property>
  <property name="kdenlive:audio_max0">205</property>
 </chain>
 <chain id="chain508" out="00:03:42.833">
  <property name="length">13371</property>
  <property name="eof">pause</property>
  <property name="resource">audio/music/Nursery/The Callow */The Callow.wav</property>
  <property name="mlt_service">avformat</property>
  <property name="meta.media.nb_streams">1</property>
  <property name="meta.media.0.stream.type">audio</property>
  <property name="meta.media.0.codec.sample_fmt">s32</property>
  <property name="meta.media.0.codec.sample_rate">44100</property>
  <property name="meta.media.0.codec.channels">2</property>
  <property name="meta.media.0.codec.name">pcm_s24le</property>
  <property name="meta.media.0.codec.long_name">PCM signed 24-bit little-endian</property>
  <property name="meta.media.0.codec.bit_rate">2116800</property>
  <property name="meta.attr.encoded_by.markup">Logic Pro X</property>
  <property name="meta.attr.date.markup">2016-09-20</property>
  <property name="meta.attr.creation_time.markup">19:09:28</property>
  <property name="meta.attr.time_reference.markup">158760000</property>
  <property name="meta.attr.umid.markup">0x00000000F227204F83D100C330BA3658FF7F0000A0416205006000000000000000000000463485080100000070301476FF7F000060B23658FF7F00002AB5FC8B</property>
  <property name="meta.attr.album.markup">Nursery</property>
  <property name="seekable">1</property>
  <property name="audio_index">0</property>
  <property name="video_index">-1</property>
  <property name="kdenlive:clipname"/>
  <property name="kdenlive:clip_type">1</property>
  <property name="kdenlive:folderid">537</property>
  <property name="kdenlive:id">539</property>
  <property name="kdenlive:file_size">58969790</property>
  <property name="kdenlive:file_hash">34c404ca0afe01b3d60971bed0578201</property>
  <property name="kdenlive:audio_max0">247</property>
 </chain>
 <chain id="chain510" out="00:03:42.833">
  <property name="length">13371</property>
  <property name="eof">pause</property>
  <property name="resource">audio/music/Nursery/The Callow */stems/01_The Callow_Rhodes.wav</property>
  <property name="mlt_service">avformat</property>
  <property name="meta.media.nb_streams">1</property>
  <property name="meta.media.0.stream.type">audio</property>
  <property name="meta.media.0.codec.sample_fmt">s32</property>
  <property name="meta.media.0.codec.sample_rate">44100</property>
  <property name="meta.media.0.codec.channels">2</property>
  <property name="meta.media.0.codec.name">pcm_s24le</property>
  <property name="meta.media.0.codec.long_name">PCM signed 24-bit little-endian</property>
  <property name="meta.media.0.codec.bit_rate">2116800</property>
  <property name="meta.attr.encoded_by.markup">Logic Pro X</property>
  <property name="meta.attr.date.markup">2016-09-20</property>
  <property name="meta.attr.creation_time.markup">19:13:53</property>
  <property name="meta.attr.time_reference.markup">158760000</property>
  <property name="meta.attr.umid.markup">0x00000000F227204F83D100C330BA3658FF7F000020C96205006000000000000000000000463485080100000070301476FF7F000060B23658FF7F00002AB5FC8B</property>
  <property name="seekable">1</property>
  <property name="audio_index">0</property>
  <property name="video_index">-1</property>
  <property name="kdenlive:clipname"/>
  <property name="kdenlive:clip_type">1</property>
  <property name="kdenlive:folderid">540</property>
  <property name="kdenlive:id">541</property>
  <property name="kdenlive:file_size">58968730</property>
  <property name="kdenlive:file_hash">202e4f3ce7a728660efe645ef3ac1b46</property>
  <property name="kdenlive:audio_max0">248</property>
 </chain>
 <chain id="chain511" out="00:03:42.833">
  <property name="length">13371</property>
  <property name="eof">pause</property>
  <property name="resource">audio/music/Nursery/The Callow */stems/02_The Callow_Electric Guitar.wav</property>
  <property name="mlt_service">avformat</property>
  <property name="meta.media.nb_streams">1</property>
  <property name="meta.media.0.stream.type">audio</property>
  <property name="meta.media.0.codec.sample_fmt">s32</property>
  <property name="meta.media.0.codec.sample_rate">44100</property>
  <property name="meta.media.0.codec.channels">2</property>
  <property name="meta.media.0.codec.name">pcm_s24le</property>
  <property name="meta.media.0.codec.long_name">PCM signed 24-bit little-endian</property>
  <property name="meta.media.0.codec.bit_rate">2116800</property>
  <property name="meta.attr.encoded_by.markup">Logic Pro X</property>
  <property name="meta.attr.date.markup">2016-09-20</property>
  <property name="meta.attr.creation_time.markup">19:13:16</property>
  <property name="meta.attr.time_reference.markup">158760000</property>
  <property name="meta.attr.umid.markup">0x00000000F227204F83D100C330BA3658FF7F0000E0DE4305006000000000000000000000463485080100000070301476FF7F000060B23658FF7F00002AB5FC8B</property>
  <property name="seekable">1</property>
  <property name="audio_index">0</property>
  <property name="video_index">-1</property>
  <property name="kdenlive:clipname"/>
  <property name="kdenlive:clip_type">1</property>
  <property name="kdenlive:folderid">540</property>
  <property name="kdenlive:id">542</property>
  <property name="kdenlive:file_size">58968730</property>
  <property name="kdenlive:file_hash">18d3ca473f07b87126eb5726bcc04f79</property>
  <property name="kdenlive:audio_max0">241</property>
 </chain>
 <chain id="chain512" out="00:03:42.833">
  <property name="length">13371</property>
  <property name="eof">pause</property>
  <property name="resource">audio/music/Nursery/The Callow */stems/03_The Callow_Tongue Drum.wav</property>
  <property name="mlt_service">avformat</property>
  <property name="meta.media.nb_streams">1</property>
  <property name="meta.media.0.stream.type">audio</property>
  <property name="meta.media.0.codec.sample_fmt">s32</property>
  <property name="meta.media.0.codec.sample_rate">44100</property>
  <property name="meta.media.0.codec.channels">2</property>
  <property name="meta.media.0.codec.name">pcm_s24le</property>
  <property name="meta.media.0.codec.long_name">PCM signed 24-bit little-endian</property>
  <property name="meta.media.0.codec.bit_rate">2116800</property>
  <property name="meta.attr.encoded_by.markup">Logic Pro X</property>
  <property name="meta.attr.date.markup">2016-09-20</property>
  <property name="meta.attr.creation_time.markup">19:12:39</property>
  <property name="meta.attr.time_reference.markup">158760000</property>
  <property name="meta.attr.umid.markup">0x00000000F227204F83D100C330BA3658FF7F000020266205006000000000000000000000463485080100000070301476FF7F000060B23658FF7F00002AB5FC8B</property>
  <property name="seekable">1</property>
  <property name="audio_index">0</property>
  <property name="video_index">-1</property>
  <property name="kdenlive:clipname"/>
  <property name="kdenlive:clip_type">1</property>
  <property name="kdenlive:folderid">540</property>
  <property name="kdenlive:id">543</property>
  <property name="kdenlive:file_size">58968730</property>
  <property name="kdenlive:file_hash">5cea50ba68e1270622ce9eb96195d440</property>
  <property name="kdenlive:audio_max0">237</property>
 </chain>
 <chain id="chain513" out="00:03:42.833">
  <property name="length">13371</property>
  <property name="eof">pause</property>
  <property name="resource">audio/music/Nursery/The Callow */stems/04_The Callow_Percussion.wav</property>
  <property name="mlt_service">avformat</property>
  <property name="meta.media.nb_streams">1</property>
  <property name="meta.media.0.stream.type">audio</property>
  <property name="meta.media.0.codec.sample_fmt">s32</property>
  <property name="meta.media.0.codec.sample_rate">44100</property>
  <property name="meta.media.0.codec.channels">2</property>
  <property name="meta.media.0.codec.name">pcm_s24le</property>
  <property name="meta.media.0.codec.long_name">PCM signed 24-bit little-endian</property>
  <property name="meta.media.0.codec.bit_rate">2116800</property>
  <property name="meta.attr.encoded_by.markup">Logic Pro X</property>
  <property name="meta.attr.date.markup">2016-09-20</property>
  <property name="meta.attr.creation_time.markup">19:12:05</property>
  <property name="meta.attr.time_reference.markup">158760000</property>
  <property name="meta.attr.umid.markup">0x00000000F227204F83D100C330BA3658FF7F000020EB0304806000000000000000000000463485080100000070301476FF7F000060B23658FF7F00002AB5FC8B</property>
  <property name="seekable">1</property>
  <property name="audio_index">0</property>
  <property name="video_index">-1</property>
  <property name="kdenlive:clipname"/>
  <property name="kdenlive:clip_type">1</property>
  <property name="kdenlive:folderid">540</property>
  <property name="kdenlive:id">544</property>
  <property name="kdenlive:file_size">58968730</property>
  <property name="kdenlive:file_hash">5e4d3b6d4bc110750988e3cc045342f7</property>
  <property name="kdenlive:audio_max0">249</property>
 </chain>
 <chain id="chain514" out="00:03:42.833">
  <property name="length">13371</property>
  <property name="eof">pause</property>
  <property name="resource">audio/music/Nursery/The Callow */stems/05_The Callow_Rhodia SynPad.wav</property>
  <property name="mlt_service">avformat</property>
  <property name="meta.media.nb_streams">1</property>
  <property name="meta.media.0.stream.type">audio</property>
  <property name="meta.media.0.codec.sample_fmt">s32</property>
  <property name="meta.media.0.codec.sample_rate">44100</property>
  <property name="meta.media.0.codec.channels">2</property>
  <property name="meta.media.0.codec.name">pcm_s24le</property>
  <property name="meta.media.0.codec.long_name">PCM signed 24-bit little-endian</property>
  <property name="meta.media.0.codec.bit_rate">2116800</property>
  <property name="meta.attr.encoded_by.markup">Logic Pro X</property>
  <property name="meta.attr.date.markup">2016-09-20</property>
  <property name="meta.attr.creation_time.markup">19:11:27</property>
  <property name="meta.attr.time_reference.markup">158760000</property>
  <property name="meta.attr.umid.markup">0x00000000F227204F83D100C330BA3658FF7F0000E01C6205006000000000000000000000463485080100000070301476FF7F000060B23658FF7F00002AB5FC8B</property>
  <property name="seekable">1</property>
  <property name="audio_index">0</property>
  <property name="video_index">-1</property>
  <property name="kdenlive:clipname"/>
  <property name="kdenlive:clip_type">1</property>
  <property name="kdenlive:folderid">540</property>
  <property name="kdenlive:id">545</property>
  <property name="kdenlive:file_size">58968730</property>
  <property name="kdenlive:file_hash">2e974032e8b92703bf20c4fb66793216</property>
  <property name="kdenlive:audio_max0">187</property>
 </chain>
 <chain id="chain515" out="00:03:20.783">
  <property name="length">12048</property>
  <property name="eof">pause</property>
  <property name="resource">audio/music/Nursery/ZigZag Heart */ZigZag Heart | Meditative.wav</property>
  <property name="mlt_service">avformat</property>
  <property name="meta.media.nb_streams">1</property>
  <property name="meta.media.0.stream.type">audio</property>
  <property name="meta.media.0.codec.sample_fmt">s32</property>
  <property name="meta.media.0.codec.sample_rate">44100</property>
  <property name="meta.media.0.codec.channels">2</property>
  <property name="meta.media.0.codec.name">pcm_s24le</property>
  <property name="meta.media.0.codec.long_name">PCM signed 24-bit little-endian</property>
  <property name="meta.media.0.codec.bit_rate">2116800</property>
  <property name="meta.attr.encoded_by.markup">Logic Pro X</property>
  <property name="meta.attr.date.markup">2018-02-10</property>
  <property name="meta.attr.creation_time.markup">15:12:20</property>
  <property name="meta.attr.time_reference.markup">159114345</property>
  <property name="meta.attr.umid.markup">0x00000000000000000000000000000000000000000000000000000000CC00889B81DD1CCBD0118AEEFE7F00005006A4020100000010128AEEFE7F00003D96E469</property>
  <property name="meta.attr.album.markup">Nursery</property>
  <property name="seekable">1</property>
  <property name="audio_index">0</property>
  <property name="video_index">-1</property>
  <property name="kdenlive:clipname"/>
  <property name="kdenlive:clip_type">1</property>
  <property name="kdenlive:folderid">546</property>
  <property name="kdenlive:id">547</property>
  <property name="kdenlive:file_size">53132484</property>
  <property name="kdenlive:file_hash">1216b145a55fabb8721baab8f416057b</property>
  <property name="kdenlive:audio_max0">232</property>
 </chain>
 <chain id="chain518" out="00:02:54.650">
  <property name="length">10480</property>
  <property name="eof">pause</property>
  <property name="resource">audio/music/Nursery/ZigZag Heart */ZigZag Heart.wav</property>
  <property name="mlt_service">avformat</property>
  <property name="meta.media.nb_streams">1</property>
  <property name="meta.media.0.stream.type">audio</property>
  <property name="meta.media.0.codec.sample_fmt">s32</property>
  <property name="meta.media.0.codec.sample_rate">44100</property>
  <property name="meta.media.0.codec.channels">2</property>
  <property name="meta.media.0.codec.name">pcm_s24le</property>
  <property name="meta.media.0.codec.long_name">PCM signed 24-bit little-endian</property>
  <property name="meta.media.0.codec.bit_rate">2116800</property>
  <property name="meta.attr.encoded_by.markup">Logic Pro X</property>
  <property name="meta.attr.date.markup">2018-02-10</property>
  <property name="meta.attr.creation_time.markup">14:28:37</property>
  <property name="meta.attr.time_reference.markup">159054000</property>
  <property name="meta.attr.umid.markup">0x00000000000000000000000000000000000000000000000000000000CC00889B81DD1CCBD0118AEEFE7F00005006A4020100000010128AEEFE7F00003D96E469</property>
  <property name="meta.attr.album.markup">Nursery</property>
  <property name="seekable">1</property>
  <property name="audio_index">0</property>
  <property name="video_index">-1</property>
  <property name="kdenlive:clipname"/>
  <property name="kdenlive:clip_type">1</property>
  <property name="kdenlive:folderid">546</property>
  <property name="kdenlive:id">548</property>
  <property name="kdenlive:file_size">46218624</property>
  <property name="kdenlive:file_hash">9137c81ef446c9ef011971e626b387dd</property>
  <property name="kdenlive:audio_max0">231</property>
 </chain>
 <chain id="chain517" out="00:02:54.650">
  <property name="length">10480</property>
  <property name="eof">pause</property>
  <property name="resource">audio/music/Nursery/ZigZag Heart */stems/01_ZigZag Heart_Tongue Drum.wav</property>
  <property name="mlt_service">avformat</property>
  <property name="meta.media.nb_streams">1</property>
  <property name="meta.media.0.stream.type">audio</property>
  <property name="meta.media.0.codec.sample_fmt">s32</property>
  <property name="meta.media.0.codec.sample_rate">44100</property>
  <property name="meta.media.0.codec.channels">2</property>
  <property name="meta.media.0.codec.name">pcm_s24le</property>
  <property name="meta.media.0.codec.long_name">PCM signed 24-bit little-endian</property>
  <property name="meta.media.0.codec.bit_rate">2116800</property>
  <property name="meta.attr.encoded_by.markup">Logic Pro X</property>
  <property name="meta.attr.date.markup">2018-02-10</property>
  <property name="meta.attr.creation_time.markup">14:58:28</property>
  <property name="meta.attr.time_reference.markup">159054000</property>
  <property name="meta.attr.umid.markup">0x00000000000000000000000000000000000000000000000000000000CC00889B81DD1CCB604E8AEEFE7F00005006A40201000000A04E8AEEFE7F00003D96E469</property>
  <property name="seekable">1</property>
  <property name="audio_index">0</property>
  <property name="video_index">-1</property>
  <property name="kdenlive:clipname"/>
  <property name="kdenlive:clip_type">1</property>
  <property name="kdenlive:folderid">549</property>
  <property name="kdenlive:id">550</property>
  <property name="kdenlive:file_size">46277760</property>
  <property name="kdenlive:file_hash">cf747a2254ce2fdf85f70c15c3e88dad</property>
  <property name="kdenlive:audio_max0">119</property>
 </chain>
 <chain id="chain516" out="00:02:54.650">
  <property name="length">10480</property>
  <property name="eof">pause</property>
  <property name="resource">audio/music/Nursery/ZigZag Heart */stems/02_ZigZag Heart_Tongue Drum.wav</property>
  <property name="mlt_service">avformat</property>
  <property name="meta.media.nb_streams">1</property>
  <property name="meta.media.0.stream.type">audio</property>
  <property name="meta.media.0.codec.sample_fmt">s32</property>
  <property name="meta.media.0.codec.sample_rate">44100</property>
  <property name="meta.media.0.codec.channels">2</property>
  <property name="meta.media.0.codec.name">pcm_s24le</property>
  <property name="meta.media.0.codec.long_name">PCM signed 24-bit little-endian</property>
  <property name="meta.media.0.codec.bit_rate">2116800</property>
  <property name="meta.attr.encoded_by.markup">Logic Pro X</property>
  <property name="meta.attr.date.markup">2018-02-10</property>
  <property name="meta.attr.creation_time.markup">14:58:34</property>
  <property name="meta.attr.time_reference.markup">159054000</property>
  <property name="meta.attr.umid.markup">0x00000000000000000000000000000000000000000000000000000000CC00889B81DD1CCB604E8AEEFE7F00005006A40201000000A04E8AEEFE7F00003D96E469</property>
  <property name="seekable">1</property>
  <property name="audio_index">0</property>
  <property name="video_index">-1</property>
  <property name="kdenlive:clipname"/>
  <property name="kdenlive:clip_type">1</property>
  <property name="kdenlive:folderid">549</property>
  <property name="kdenlive:id">551</property>
  <property name="kdenlive:file_size">46277760</property>
  <property name="kdenlive:file_hash">73958992ea77aca46bc33ac934be712e</property>
  <property name="kdenlive:audio_max0">127</property>
 </chain>
 <chain id="chain519" out="00:02:54.650">
  <property name="length">10480</property>
  <property name="eof">pause</property>
  <property name="resource">audio/music/Nursery/ZigZag Heart */stems/03_ZigZag Heart_Rhodes.wav</property>
  <property name="mlt_service">avformat</property>
  <property name="meta.media.nb_streams">1</property>
  <property name="meta.media.0.stream.type">audio</property>
  <property name="meta.media.0.codec.sample_fmt">s32</property>
  <property name="meta.media.0.codec.sample_rate">44100</property>
  <property name="meta.media.0.codec.channels">2</property>
  <property name="meta.media.0.codec.name">pcm_s24le</property>
  <property name="meta.media.0.codec.long_name">PCM signed 24-bit little-endian</property>
  <property name="meta.media.0.codec.bit_rate">2116800</property>
  <property name="meta.attr.encoded_by.markup">Logic Pro X</property>
  <property name="meta.attr.date.markup">2018-02-10</property>
  <property name="meta.attr.creation_time.markup">14:58:44</property>
  <property name="meta.attr.time_reference.markup">159054000</property>
  <property name="meta.attr.umid.markup">0x00000000000000000000000000000000000000000000000000000000CC00889B81DD1CCB604E8AEEFE7F00005006A40201000000A04E8AEEFE7F00003D96E469</property>
  <property name="seekable">1</property>
  <property name="audio_index">0</property>
  <property name="video_index">-1</property>
  <property name="kdenlive:clipname"/>
  <property name="kdenlive:clip_type">1</property>
  <property name="kdenlive:folderid">549</property>
  <property name="kdenlive:id">552</property>
  <property name="kdenlive:file_size">46277760</property>
  <property name="kdenlive:file_hash">067281467fe0be0f9f263f80174a2522</property>
  <property name="kdenlive:audio_max0">157</property>
 </chain>
 <chain id="chain520" out="00:02:54.650">
  <property name="length">10480</property>
  <property name="eof">pause</property>
  <property name="resource">audio/music/Nursery/ZigZag Heart */stems/04_ZigZag Heart_Tongue Drum.wav</property>
  <property name="mlt_service">avformat</property>
  <property name="meta.media.nb_streams">1</property>
  <property name="meta.media.0.stream.type">audio</property>
  <property name="meta.media.0.codec.sample_fmt">s32</property>
  <property name="meta.media.0.codec.sample_rate">44100</property>
  <property name="meta.media.0.codec.channels">2</property>
  <property name="meta.media.0.codec.name">pcm_s24le</property>
  <property name="meta.media.0.codec.long_name">PCM signed 24-bit little-endian</property>
  <property name="meta.media.0.codec.bit_rate">2116800</property>
  <property name="meta.attr.encoded_by.markup">Logic Pro X</property>
  <property name="meta.attr.date.markup">2018-02-10</property>
  <property name="meta.attr.creation_time.markup">14:58:40</property>
  <property name="meta.attr.time_reference.markup">159054000</property>
  <property name="meta.attr.umid.markup">0x00000000000000000000000000000000000000000000000000000000CC00889B81DD1CCB604E8AEEFE7F00005006A40201000000A04E8AEEFE7F00003D96E469</property>
  <property name="seekable">1</property>
  <property name="audio_index">0</property>
  <property name="video_index">-1</property>
  <property name="kdenlive:clipname"/>
  <property name="kdenlive:clip_type">1</property>
  <property name="kdenlive:folderid">549</property>
  <property name="kdenlive:id">553</property>
  <property name="kdenlive:file_size">46277760</property>
  <property name="kdenlive:file_hash">5634ed52e328baf9c4074ad068a14c63</property>
  <property name="kdenlive:audio_max0">163</property>
 </chain>
 <chain id="chain521" out="00:02:54.650">
  <property name="length">10480</property>
  <property name="eof">pause</property>
  <property name="resource">audio/music/Nursery/ZigZag Heart */stems/05_ZigZag Heart_Tongue Drum.wav</property>
  <property name="mlt_service">avformat</property>
  <property name="meta.media.nb_streams">1</property>
  <property name="meta.media.0.stream.type">audio</property>
  <property name="meta.media.0.codec.sample_fmt">s32</property>
  <property name="meta.media.0.codec.sample_rate">44100</property>
  <property name="meta.media.0.codec.channels">2</property>
  <property name="meta.media.0.codec.name">pcm_s24le</property>
  <property name="meta.media.0.codec.long_name">PCM signed 24-bit little-endian</property>
  <property name="meta.media.0.codec.bit_rate">2116800</property>
  <property name="meta.attr.encoded_by.markup">Logic Pro X</property>
  <property name="meta.attr.date.markup">2018-02-10</property>
  <property name="meta.attr.creation_time.markup">14:58:37</property>
  <property name="meta.attr.time_reference.markup">159054000</property>
  <property name="meta.attr.umid.markup">0x00000000000000000000000000000000000000000000000000000000CC00889B81DD1CCB604E8AEEFE7F00005006A40201000000A04E8AEEFE7F00003D96E469</property>
  <property name="seekable">1</property>
  <property name="audio_index">0</property>
  <property name="video_index">-1</property>
  <property name="kdenlive:clipname"/>
  <property name="kdenlive:clip_type">1</property>
  <property name="kdenlive:folderid">549</property>
  <property name="kdenlive:id">554</property>
  <property name="kdenlive:file_size">46277760</property>
  <property name="kdenlive:file_hash">bef804d54d8c038ebaff452efe6dc94e</property>
  <property name="kdenlive:audio_max0">121</property>
 </chain>
 <chain id="chain522" out="00:02:54.650">
  <property name="length">10480</property>
  <property name="eof">pause</property>
  <property name="resource">audio/music/Nursery/ZigZag Heart */stems/06_ZigZag Heart_Percussion.wav</property>
  <property name="mlt_service">avformat</property>
  <property name="meta.media.nb_streams">1</property>
  <property name="meta.media.0.stream.type">audio</property>
  <property name="meta.media.0.codec.sample_fmt">s32</property>
  <property name="meta.media.0.codec.sample_rate">44100</property>
  <property name="meta.media.0.codec.channels">2</property>
  <property name="meta.media.0.codec.name">pcm_s24le</property>
  <property name="meta.media.0.codec.long_name">PCM signed 24-bit little-endian</property>
  <property name="meta.media.0.codec.bit_rate">2116800</property>
  <property name="meta.attr.encoded_by.markup">Logic Pro X</property>
  <property name="meta.attr.date.markup">2018-02-10</property>
  <property name="meta.attr.creation_time.markup">14:58:31</property>
  <property name="meta.attr.time_reference.markup">159054000</property>
  <property name="meta.attr.umid.markup">0x00000000000000000000000000000000000000000000000000000000CC00889B81DD1CCB604E8AEEFE7F00005006A40201000000A04E8AEEFE7F00003D96E469</property>
  <property name="seekable">1</property>
  <property name="audio_index">0</property>
  <property name="video_index">-1</property>
  <property name="kdenlive:clipname"/>
  <property name="kdenlive:clip_type">1</property>
  <property name="kdenlive:folderid">549</property>
  <property name="kdenlive:id">555</property>
  <property name="kdenlive:file_size">46277760</property>
  <property name="kdenlive:file_hash">64ee279fe344b13413bff8836628d7e6</property>
  <property name="kdenlive:audio_max0">120</property>
 </chain>
 <chain id="chain523" out="00:00:34.850">
  <property name="length">2092</property>
  <property name="eof">pause</property>
  <property name="resource">audio/music/Nursery/ZigZag Heart */variations/ZigZag Heart | 30 Sec Mbira.wav</property>
  <property name="mlt_service">avformat</property>
  <property name="meta.media.nb_streams">1</property>
  <property name="meta.media.0.stream.type">audio</property>
  <property name="meta.media.0.codec.sample_fmt">s32</property>
  <property name="meta.media.0.codec.sample_rate">44100</property>
  <property name="meta.media.0.codec.channels">2</property>
  <property name="meta.media.0.codec.name">pcm_s24le</property>
  <property name="meta.media.0.codec.long_name">PCM signed 24-bit little-endian</property>
  <property name="meta.media.0.codec.bit_rate">2116800</property>
  <property name="meta.attr.encoded_by.markup">Logic Pro X</property>
  <property name="meta.attr.date.markup">2018-02-10</property>
  <property name="meta.attr.creation_time.markup">15:06:44</property>
  <property name="meta.attr.time_reference.markup">165101545</property>
  <property name="meta.attr.umid.markup">0x00000000000000000000000000000000000000000000000000000000CC00889B81DD1CCBD0118AEEFE7F00005006A4020100000010128AEEFE7F00003D96E469</property>
  <property name="meta.attr.album.markup">Nursery</property>
  <property name="seekable">1</property>
  <property name="audio_index">0</property>
  <property name="video_index">-1</property>
  <property name="kdenlive:clipname"/>
  <property name="kdenlive:clip_type">1</property>
  <property name="kdenlive:folderid">556</property>
  <property name="kdenlive:id">557</property>
  <property name="kdenlive:file_size">9227754</property>
  <property name="kdenlive:file_hash">657035ba312c4bc1b61c4f3f8a79bf8e</property>
  <property name="kdenlive:audio_max0">216</property>
 </chain>
 <chain id="chain524" out="00:00:34.850">
  <property name="length">2092</property>
  <property name="eof">pause</property>
  <property name="resource">audio/music/Nursery/ZigZag Heart */variations/ZigZag Heart | 30 Sec Simple.wav</property>
  <property name="mlt_service">avformat</property>
  <property name="meta.media.nb_streams">1</property>
  <property name="meta.media.0.stream.type">audio</property>
  <property name="meta.media.0.codec.sample_fmt">s32</property>
  <property name="meta.media.0.codec.sample_rate">44100</property>
  <property name="meta.media.0.codec.channels">2</property>
  <property name="meta.media.0.codec.name">pcm_s24le</property>
  <property name="meta.media.0.codec.long_name">PCM signed 24-bit little-endian</property>
  <property name="meta.media.0.codec.bit_rate">2116800</property>
  <property name="meta.attr.encoded_by.markup">Logic Pro X</property>
  <property name="meta.attr.date.markup">2018-02-10</property>
  <property name="meta.attr.creation_time.markup">15:05:35</property>
  <property name="meta.attr.time_reference.markup">165101545</property>
  <property name="meta.attr.umid.markup">0x00000000000000000000000000000000000000000000000000000000CC00889B81DD1CCBD0118AEEFE7F00005006A4020100000010128AEEFE7F00003D96E469</property>
  <property name="meta.attr.album.markup">Nursery</property>
  <property name="seekable">1</property>
  <property name="audio_index">0</property>
  <property name="video_index">-1</property>
  <property name="kdenlive:clipname"/>
  <property name="kdenlive:clip_type">1</property>
  <property name="kdenlive:folderid">556</property>
  <property name="kdenlive:id">558</property>
  <property name="kdenlive:file_size">9227754</property>
  <property name="kdenlive:file_hash">3d03dab9bb5a2708f7b645d85fe82a57</property>
  <property name="kdenlive:audio_max0">219</property>
 </chain>
 <chain id="chain525" out="00:02:54.450">
  <property name="length">10468</property>
  <property name="eof">pause</property>
  <property name="resource">audio/music/Nursery/ZigZag Heart */variations/ZigZag Heart | Atmo.wav</property>
  <property name="mlt_service">avformat</property>
  <property name="meta.media.nb_streams">1</property>
  <property name="meta.media.0.stream.type">audio</property>
  <property name="meta.media.0.codec.sample_fmt">s32</property>
  <property name="meta.media.0.codec.sample_rate">44100</property>
  <property name="meta.media.0.codec.channels">2</property>
  <property name="meta.media.0.codec.name">pcm_s24le</property>
  <property name="meta.media.0.codec.long_name">PCM signed 24-bit little-endian</property>
  <property name="meta.media.0.codec.bit_rate">2116800</property>
  <property name="meta.attr.encoded_by.markup">Logic Pro X</property>
  <property name="meta.attr.date.markup">2018-02-10</property>
  <property name="meta.attr.creation_time.markup">15:00:51</property>
  <property name="meta.attr.time_reference.markup">159063161</property>
  <property name="meta.attr.umid.markup">0x00000000000000000000000000000000000000000000000000000000CC00889B81DD1CCBD0118AEEFE7F00005006A4020100000010128AEEFE7F00003D96E469</property>
  <property name="meta.attr.album.markup">Nursery</property>
  <property name="seekable">1</property>
  <property name="audio_index">0</property>
  <property name="video_index">-1</property>
  <property name="kdenlive:clipname"/>
  <property name="kdenlive:clip_type">1</property>
  <property name="kdenlive:folderid">556</property>
  <property name="kdenlive:id">559</property>
  <property name="kdenlive:file_size">46163658</property>
  <property name="kdenlive:file_hash">09440f67d0d1705c06ff76316e09ba16</property>
  <property name="kdenlive:audio_max0">237</property>
 </chain>
 <chain id="chain526" out="00:02:50.950">
  <property name="length">10258</property>
  <property name="eof">pause</property>
  <property name="resource">audio/music/Nursery/ZigZag Heart */variations/ZigZag Heart | Junk Rhythm.wav</property>
  <property name="mlt_service">avformat</property>
  <property name="meta.media.nb_streams">1</property>
  <property name="meta.media.0.stream.type">audio</property>
  <property name="meta.media.0.codec.sample_fmt">s32</property>
  <property name="meta.media.0.codec.sample_rate">44100</property>
  <property name="meta.media.0.codec.channels">2</property>
  <property name="meta.media.0.codec.name">pcm_s24le</property>
  <property name="meta.media.0.codec.long_name">PCM signed 24-bit little-endian</property>
  <property name="meta.media.0.codec.bit_rate">2116800</property>
  <property name="meta.attr.encoded_by.markup">Logic Pro X</property>
  <property name="meta.attr.date.markup">2018-02-10</property>
  <property name="meta.attr.creation_time.markup">15:00:06</property>
  <property name="meta.attr.time_reference.markup">159217227</property>
  <property name="meta.attr.umid.markup">0x00000000000000000000000000000000000000000000000000000000CC00889B81DD1CCBD0118AEEFE7F00005006A4020100000010128AEEFE7F00003D96E469</property>
  <property name="meta.attr.album.markup">Nursery</property>
  <property name="seekable">1</property>
  <property name="audio_index">0</property>
  <property name="video_index">-1</property>
  <property name="kdenlive:clipname"/>
  <property name="kdenlive:clip_type">1</property>
  <property name="kdenlive:folderid">556</property>
  <property name="kdenlive:id">560</property>
  <property name="kdenlive:file_size">45239262</property>
  <property name="kdenlive:file_hash">463c569704a4d55ffa6fa298e0f669b2</property>
  <property name="kdenlive:audio_max0">228</property>
 </chain>
 <chain id="chain528" out="00:02:21.833">
  <property name="length">8511</property>
  <property name="eof">pause</property>
  <property name="resource">audio/music/Nursery/ZigZag Heart */variations/ZigZag Heart | Low Pacer.wav</property>
  <property name="mlt_service">avformat</property>
  <property name="meta.media.nb_streams">1</property>
  <property name="meta.media.0.stream.type">audio</property>
  <property name="meta.media.0.codec.sample_fmt">s32</property>
  <property name="meta.media.0.codec.sample_rate">44100</property>
  <property name="meta.media.0.codec.channels">2</property>
  <property name="meta.media.0.codec.name">pcm_s24le</property>
  <property name="meta.media.0.codec.long_name">PCM signed 24-bit little-endian</property>
  <property name="meta.media.0.codec.bit_rate">2116800</property>
  <property name="meta.attr.encoded_by.markup">Logic Pro X</property>
  <property name="meta.attr.date.markup">2018-02-10</property>
  <property name="meta.attr.creation_time.markup">15:16:53</property>
  <property name="meta.attr.time_reference.markup">159010317</property>
  <property name="meta.attr.umid.markup">0x00000000000000000000000000000000000000000000000000000000CC00889B81DD1CCBD0118AEEFE7F00005006A4020100000010128AEEFE7F00003D96E469</property>
  <property name="meta.attr.album.markup">Nursery</property>
  <property name="seekable">1</property>
  <property name="audio_index">0</property>
  <property name="video_index">-1</property>
  <property name="kdenlive:clipname"/>
  <property name="kdenlive:clip_type">1</property>
  <property name="kdenlive:folderid">556</property>
  <property name="kdenlive:id">561</property>
  <property name="kdenlive:file_size">37534490</property>
  <property name="kdenlive:file_hash">76b5d599c98f915107c37f8c363b1302</property>
  <property name="kdenlive:audio_max0">236</property>
 </chain>
 <chain id="chain527" out="00:02:21.833">
  <property name="length">8511</property>
  <property name="eof">pause</property>
  <property name="resource">audio/music/Nursery/ZigZag Heart */variations/ZigZag Heart | Lowboy.wav</property>
  <property name="mlt_service">avformat</property>
  <property name="meta.media.nb_streams">1</property>
  <property name="meta.media.0.stream.type">audio</property>
  <property name="meta.media.0.codec.sample_fmt">s32</property>
  <property name="meta.media.0.codec.sample_rate">44100</property>
  <property name="meta.media.0.codec.channels">2</property>
  <property name="meta.media.0.codec.name">pcm_s24le</property>
  <property name="meta.media.0.codec.long_name">PCM signed 24-bit little-endian</property>
  <property name="meta.media.0.codec.bit_rate">2116800</property>
  <property name="meta.attr.encoded_by.markup">Logic Pro X</property>
  <property name="meta.attr.date.markup">2018-02-10</property>
  <property name="meta.attr.creation_time.markup">15:14:13</property>
  <property name="meta.attr.time_reference.markup">159010317</property>
  <property name="meta.attr.umid.markup">0x00000000000000000000000000000000000000000000000000000000CC00889B81DD1CCBD0118AEEFE7F00005006A4020100000010128AEEFE7F00003D96E469</property>
  <property name="meta.attr.album.markup">Nursery</property>
  <property name="seekable">1</property>
  <property name="audio_index">0</property>
  <property name="video_index">-1</property>
  <property name="kdenlive:clipname"/>
  <property name="kdenlive:clip_type">1</property>
  <property name="kdenlive:folderid">556</property>
  <property name="kdenlive:id">562</property>
  <property name="kdenlive:file_size">37534490</property>
  <property name="kdenlive:file_hash">501c60d9d532bc49d8ac25b6a3dc2cee</property>
  <property name="kdenlive:audio_max0">236</property>
 </chain>
 <chain id="chain529" out="00:01:46.833">
  <property name="length">6411</property>
  <property name="eof">pause</property>
  <property name="resource">audio/music/Nursery/ZigZag Heart */variations/ZigZag Heart | Mbira Lead.wav</property>
  <property name="mlt_service">avformat</property>
  <property name="meta.media.nb_streams">1</property>
  <property name="meta.media.0.stream.type">audio</property>
  <property name="meta.media.0.codec.sample_fmt">s32</property>
  <property name="meta.media.0.codec.sample_rate">44100</property>
  <property name="meta.media.0.codec.channels">2</property>
  <property name="meta.media.0.codec.name">pcm_s24le</property>
  <property name="meta.media.0.codec.long_name">PCM signed 24-bit little-endian</property>
  <property name="meta.media.0.codec.bit_rate">2116800</property>
  <property name="meta.attr.encoded_by.markup">Logic Pro X</property>
  <property name="meta.attr.date.markup">2018-02-10</property>
  <property name="meta.attr.creation_time.markup">15:03:37</property>
  <property name="meta.attr.time_reference.markup">162045079</property>
  <property name="meta.attr.umid.markup">0x00000000000000000000000000000000000000000000000000000000CC00889B81DD1CCBD0118AEEFE7F00005006A4020100000010128AEEFE7F00003D96E469</property>
  <property name="meta.attr.album.markup">Nursery</property>
  <property name="seekable">1</property>
  <property name="audio_index">0</property>
  <property name="video_index">-1</property>
  <property name="kdenlive:clipname"/>
  <property name="kdenlive:clip_type">1</property>
  <property name="kdenlive:folderid">556</property>
  <property name="kdenlive:id">563</property>
  <property name="kdenlive:file_size">28272150</property>
  <property name="kdenlive:file_hash">15963db494fc7bd2be585cc6d46def4f</property>
  <property name="kdenlive:audio_max0">229</property>
 </chain>
 <chain id="chain530" out="00:01:42.650">
  <property name="length">6160</property>
  <property name="eof">pause</property>
  <property name="resource">audio/music/Nursery/ZigZag Heart */variations/ZigZag Heart | Mbira Melody.wav</property>
  <property name="mlt_service">avformat</property>
  <property name="meta.media.nb_streams">1</property>
  <property name="meta.media.0.stream.type">audio</property>
  <property name="meta.media.0.codec.sample_fmt">s32</property>
  <property name="meta.media.0.codec.sample_rate">44100</property>
  <property name="meta.media.0.codec.channels">2</property>
  <property name="meta.media.0.codec.name">pcm_s24le</property>
  <property name="meta.media.0.codec.long_name">PCM signed 24-bit little-endian</property>
  <property name="meta.media.0.codec.bit_rate">2116800</property>
  <property name="meta.attr.encoded_by.markup">Logic Pro X</property>
  <property name="meta.attr.date.markup">2018-02-10</property>
  <property name="meta.attr.creation_time.markup">15:04:35</property>
  <property name="meta.attr.time_reference.markup">162111600</property>
  <property name="meta.attr.umid.markup">0x00000000000000000000000000000000000000000000000000000000CC00889B81DD1CCBD0118AEEFE7F00005006A4020100000010128AEEFE7F00003D96E469</property>
  <property name="meta.attr.album.markup">Nursery</property>
  <property name="seekable">1</property>
  <property name="audio_index">0</property>
  <property name="video_index">-1</property>
  <property name="kdenlive:clipname"/>
  <property name="kdenlive:clip_type">1</property>
  <property name="kdenlive:folderid">556</property>
  <property name="kdenlive:id">564</property>
  <property name="kdenlive:file_size">27167424</property>
  <property name="kdenlive:file_hash">5f274d5f7c14ce8f05fc570e1ea1c9a7</property>
  <property name="kdenlive:audio_max0">234</property>
 </chain>
 <chain id="chain531" out="00:03:20.783">
  <property name="length">12048</property>
  <property name="eof">pause</property>
  <property name="resource">audio/music/Nursery/ZigZag Heart */variations/ZigZag Heart | Meditative.wav</property>
  <property name="mlt_service">avformat</property>
  <property name="meta.media.nb_streams">1</property>
  <property name="meta.media.0.stream.type">audio</property>
  <property name="meta.media.0.codec.sample_fmt">s32</property>
  <property name="meta.media.0.codec.sample_rate">44100</property>
  <property name="meta.media.0.codec.channels">2</property>
  <property name="meta.media.0.codec.name">pcm_s24le</property>
  <property name="meta.media.0.codec.long_name">PCM signed 24-bit little-endian</property>
  <property name="meta.media.0.codec.bit_rate">2116800</property>
  <property name="meta.attr.encoded_by.markup">Logic Pro X</property>
  <property name="meta.attr.date.markup">2018-02-10</property>
  <property name="meta.attr.creation_time.markup">15:12:20</property>
  <property name="meta.attr.time_reference.markup">159114345</property>
  <property name="meta.attr.umid.markup">0x00000000000000000000000000000000000000000000000000000000CC00889B81DD1CCBD0118AEEFE7F00005006A4020100000010128AEEFE7F00003D96E469</property>
  <property name="meta.attr.album.markup">Nursery</property>
  <property name="seekable">1</property>
  <property name="audio_index">0</property>
  <property name="video_index">-1</property>
  <property name="kdenlive:clipname"/>
  <property name="kdenlive:clip_type">1</property>
  <property name="kdenlive:folderid">556</property>
  <property name="kdenlive:id">565</property>
  <property name="kdenlive:file_size">53132484</property>
  <property name="kdenlive:file_hash">1216b145a55fabb8721baab8f416057b</property>
 </chain>
 <chain id="chain532" out="00:02:17.033">
  <property name="length">8223</property>
  <property name="eof">pause</property>
  <property name="resource">audio/music/Nursery/ZigZag Heart */variations/ZigZag Heart | Spacey Rhodes.wav</property>
  <property name="mlt_service">avformat</property>
  <property name="meta.media.nb_streams">1</property>
  <property name="meta.media.0.stream.type">audio</property>
  <property name="meta.media.0.codec.sample_fmt">s32</property>
  <property name="meta.media.0.codec.sample_rate">44100</property>
  <property name="meta.media.0.codec.channels">2</property>
  <property name="meta.media.0.codec.name">pcm_s24le</property>
  <property name="meta.media.0.codec.long_name">PCM signed 24-bit little-endian</property>
  <property name="meta.media.0.codec.bit_rate">2116800</property>
  <property name="meta.attr.encoded_by.markup">Logic Pro X</property>
  <property name="meta.attr.date.markup">2018-02-10</property>
  <property name="meta.attr.creation_time.markup">15:01:55</property>
  <property name="meta.attr.time_reference.markup">160713156</property>
  <property name="meta.attr.umid.markup">0x00000000000000000000000000000000000000000000000000000000CC00889B81DD1CCBD0118AEEFE7F00005006A4020100000010128AEEFE7F00003D96E469</property>
  <property name="meta.attr.album.markup">Nursery</property>
  <property name="seekable">1</property>
  <property name="audio_index">0</property>
  <property name="video_index">-1</property>
  <property name="kdenlive:clipname"/>
  <property name="kdenlive:clip_type">1</property>
  <property name="kdenlive:folderid">556</property>
  <property name="kdenlive:id">566</property>
  <property name="kdenlive:file_size">36263688</property>
  <property name="kdenlive:file_hash">b67b0627247c3c05289bc0fbdcab1e37</property>
  <property name="kdenlive:audio_max0">234</property>
 </chain>
 <chain id="chain533" out="00:03:04.250">
  <property name="length">11056</property>
  <property name="eof">pause</property>
  <property name="resource">audio/music/Warmbody/The Big Ten/The Big Ten.wav</property>
  <property name="mlt_service">avformat</property>
  <property name="meta.media.nb_streams">1</property>
  <property name="meta.media.0.stream.type">audio</property>
  <property name="meta.media.0.codec.sample_fmt">s32</property>
  <property name="meta.media.0.codec.sample_rate">44100</property>
  <property name="meta.media.0.codec.channels">2</property>
  <property name="meta.media.0.codec.name">pcm_s24le</property>
  <property name="meta.media.0.codec.long_name">PCM signed 24-bit little-endian</property>
  <property name="meta.media.0.codec.bit_rate">2116800</property>
  <property name="meta.attr.encoded_by.markup">Logic Pro X</property>
  <property name="meta.attr.date.markup">2017-06-08</property>
  <property name="meta.attr.creation_time.markup">16:21:14</property>
  <property name="meta.attr.time_reference.markup">158760000</property>
  <property name="meta.attr.umid.markup">0x00000000000000000000000000000000000000000000000000000000A200AAFA29A23A358059595BFF7F00004694620501000000B051595BFF7F0000ECFE8894</property>
  <property name="seekable">1</property>
  <property name="audio_index">0</property>
  <property name="video_index">-1</property>
  <property name="kdenlive:clipname"/>
  <property name="kdenlive:clip_type">1</property>
  <property name="kdenlive:folderid">568</property>
  <property name="kdenlive:id">569</property>
  <property name="kdenlive:file_size">48756532</property>
  <property name="kdenlive:file_hash">185b4fe3503af4ce60956f26c9919001</property>
  <property name="kdenlive:audio_max0">249</property>
 </chain>
 <chain id="chain534" out="00:03:01.283">
  <property name="length">10878</property>
  <property name="eof">pause</property>
  <property name="resource">audio/music/Warmbody/The Big Ten/stems/01_The Big Ten_Upright Bass.wav</property>
  <property name="mlt_service">avformat</property>
  <property name="meta.media.nb_streams">1</property>
  <property name="meta.media.0.stream.type">audio</property>
  <property name="meta.media.0.codec.sample_fmt">s32</property>
  <property name="meta.media.0.codec.sample_rate">44100</property>
  <property name="meta.media.0.codec.channels">2</property>
  <property name="meta.media.0.codec.name">pcm_s24le</property>
  <property name="meta.media.0.codec.long_name">PCM signed 24-bit little-endian</property>
  <property name="meta.media.0.codec.bit_rate">2116800</property>
  <property name="meta.attr.encoded_by.markup">Logic Pro X</property>
  <property name="meta.attr.date.markup">2017-06-08</property>
  <property name="meta.attr.creation_time.markup">17:09:15</property>
  <property name="meta.attr.time_reference.markup">158760000</property>
  <property name="meta.attr.umid.markup">0x00000000000000000000000000000000000000000000000000000000A200AAFA29A23A3530AC595BFF7F0000469462050100000060A4595BFF7F0000ECFE8894</property>
  <property name="seekable">1</property>
  <property name="audio_index">0</property>
  <property name="video_index">-1</property>
  <property name="kdenlive:clipname"/>
  <property name="kdenlive:clip_type">1</property>
  <property name="kdenlive:folderid">570</property>
  <property name="kdenlive:id">571</property>
  <property name="kdenlive:file_size">48035562</property>
  <property name="kdenlive:file_hash">43be18bbec9b0179a3a97c5802b04e8a</property>
  <property name="kdenlive:audio_max0">197</property>
 </chain>
 <chain id="chain535" out="00:03:02.033">
  <property name="length">10923</property>
  <property name="eof">pause</property>
  <property name="resource">audio/music/Warmbody/The Big Ten/stems/02_The Big Ten_Electric Guitar.wav</property>
  <property name="mlt_service">avformat</property>
  <property name="meta.media.nb_streams">1</property>
  <property name="meta.media.0.stream.type">audio</property>
  <property name="meta.media.0.codec.sample_fmt">s32</property>
  <property name="meta.media.0.codec.sample_rate">44100</property>
  <property name="meta.media.0.codec.channels">2</property>
  <property name="meta.media.0.codec.name">pcm_s24le</property>
  <property name="meta.media.0.codec.long_name">PCM signed 24-bit little-endian</property>
  <property name="meta.media.0.codec.bit_rate">2116800</property>
  <property name="meta.attr.encoded_by.markup">Logic Pro X</property>
  <property name="meta.attr.date.markup">2017-06-08</property>
  <property name="meta.attr.creation_time.markup">17:09:18</property>
  <property name="meta.attr.time_reference.markup">158760000</property>
  <property name="meta.attr.umid.markup">0x00000000000000000000000000000000000000000000000000000000A200AAFA29A23A3530AC595BFF7F0000469462050100000060A4595BFF7F0000ECFE8894</property>
  <property name="seekable">1</property>
  <property name="audio_index">0</property>
  <property name="video_index">-1</property>
  <property name="kdenlive:clipname"/>
  <property name="kdenlive:clip_type">1</property>
  <property name="kdenlive:folderid">570</property>
  <property name="kdenlive:id">572</property>
  <property name="kdenlive:file_size">48232426</property>
  <property name="kdenlive:file_hash">81717e3ab563c0eee9fc9f1b9dfc706d</property>
  <property name="kdenlive:audio_max0">174</property>
 </chain>
 <chain id="chain537" out="00:03:00.550">
  <property name="length">10834</property>
  <property name="eof">pause</property>
  <property name="resource">audio/music/Warmbody/The Big Ten/stems/03_The Big Ten_Electric Guitar.wav</property>
  <property name="mlt_service">avformat</property>
  <property name="meta.media.nb_streams">1</property>
  <property name="meta.media.0.stream.type">audio</property>
  <property name="meta.media.0.codec.sample_fmt">s32</property>
  <property name="meta.media.0.codec.sample_rate">44100</property>
  <property name="meta.media.0.codec.channels">2</property>
  <property name="meta.media.0.codec.name">pcm_s24le</property>
  <property name="meta.media.0.codec.long_name">PCM signed 24-bit little-endian</property>
  <property name="meta.media.0.codec.bit_rate">2116800</property>
  <property name="meta.attr.encoded_by.markup">Logic Pro X</property>
  <property name="meta.attr.date.markup">2017-06-08</property>
  <property name="meta.attr.creation_time.markup">17:09:07</property>
  <property name="meta.attr.time_reference.markup">158760000</property>
  <property name="meta.attr.umid.markup">0x00000000000000000000000000000000000000000000000000000000A200AAFA29A23A3530AC595BFF7F0000469462050100000060A4595BFF7F0000ECFE8894</property>
  <property name="seekable">1</property>
  <property name="audio_index">0</property>
  <property name="video_index">-1</property>
  <property name="kdenlive:clipname"/>
  <property name="kdenlive:clip_type">1</property>
  <property name="kdenlive:folderid">570</property>
  <property name="kdenlive:id">573</property>
  <property name="kdenlive:file_size">47838698</property>
  <property name="kdenlive:file_hash">c3f46e1fa166b4b50afc01bd9cd370e3</property>
  <property name="kdenlive:audio_max0">189</property>
 </chain>
 <chain id="chain536" out="00:03:00.550">
  <property name="length">10834</property>
  <property name="eof">pause</property>
  <property name="resource">audio/music/Warmbody/The Big Ten/stems/04_The Big Ten_Brush Kit.wav</property>
  <property name="mlt_service">avformat</property>
  <property name="meta.media.nb_streams">1</property>
  <property name="meta.media.0.stream.type">audio</property>
  <property name="meta.media.0.codec.sample_fmt">s32</property>
  <property name="meta.media.0.codec.sample_rate">44100</property>
  <property name="meta.media.0.codec.channels">2</property>
  <property name="meta.media.0.codec.name">pcm_s24le</property>
  <property name="meta.media.0.codec.long_name">PCM signed 24-bit little-endian</property>
  <property name="meta.media.0.codec.bit_rate">2116800</property>
  <property name="meta.attr.encoded_by.markup">Logic Pro X</property>
  <property name="meta.attr.date.markup">2017-06-08</property>
  <property name="meta.attr.creation_time.markup">17:09:11</property>
  <property name="meta.attr.time_reference.markup">158760000</property>
  <property name="meta.attr.umid.markup">0x00000000000000000000000000000000000000000000000000000000A200AAFA29A23A3530AC595BFF7F0000469462050100000060A4595BFF7F0000ECFE8894</property>
  <property name="seekable">1</property>
  <property name="audio_index">0</property>
  <property name="video_index">-1</property>
  <property name="kdenlive:clipname"/>
  <property name="kdenlive:clip_type">1</property>
  <property name="kdenlive:folderid">570</property>
  <property name="kdenlive:id">574</property>
  <property name="kdenlive:file_size">47838698</property>
  <property name="kdenlive:file_hash">ed967c46898a6c21ddf5a3727f43f0fc</property>
  <property name="kdenlive:audio_max0">128</property>
 </chain>
 <chain id="chain539" out="00:00:47.200">
  <property name="length">2833</property>
  <property name="eof">pause</property>
  <property name="resource">audio/music/Warmbody/The Big Ten/variations/The Big Ten | 1 Min.wav</property>
  <property name="mlt_service">avformat</property>
  <property name="meta.media.nb_streams">1</property>
  <property name="meta.media.0.stream.type">audio</property>
  <property name="meta.media.0.codec.sample_fmt">s32</property>
  <property name="meta.media.0.codec.sample_rate">44100</property>
  <property name="meta.media.0.codec.channels">2</property>
  <property name="meta.media.0.codec.name">pcm_s24le</property>
  <property name="meta.media.0.codec.long_name">PCM signed 24-bit little-endian</property>
  <property name="meta.media.0.codec.bit_rate">2116800</property>
  <property name="meta.attr.encoded_by.markup">Logic Pro X</property>
  <property name="meta.attr.date.markup">2017-06-08</property>
  <property name="meta.attr.creation_time.markup">17:13:36</property>
  <property name="meta.attr.time_reference.markup">164832787</property>
  <property name="meta.attr.umid.markup">0x00000000000000000000000000000000000000000000000000000000A200AAFA29A23A358059595BFF7F00004694620501000000B051595BFF7F0000ECFE8894</property>
  <property name="seekable">1</property>
  <property name="audio_index">0</property>
  <property name="video_index">-1</property>
  <property name="kdenlive:clipname"/>
  <property name="kdenlive:clip_type">1</property>
  <property name="kdenlive:folderid">575</property>
  <property name="kdenlive:id">576</property>
  <property name="kdenlive:file_size">12493318</property>
  <property name="kdenlive:file_hash">2091cf3dd8b094a161ab8f5fcfa1443c</property>
  <property name="kdenlive:audio_max0">245</property>
 </chain>
 <chain id="chain538" out="00:00:26.533">
  <property name="length">1593</property>
  <property name="eof">pause</property>
  <property name="resource">audio/music/Warmbody/The Big Ten/variations/The Big Ten | 30 Sec.wav</property>
  <property name="mlt_service">avformat</property>
  <property name="meta.media.nb_streams">1</property>
  <property name="meta.media.0.stream.type">audio</property>
  <property name="meta.media.0.codec.sample_fmt">s32</property>
  <property name="meta.media.0.codec.sample_rate">44100</property>
  <property name="meta.media.0.codec.channels">2</property>
  <property name="meta.media.0.codec.name">pcm_s24le</property>
  <property name="meta.media.0.codec.long_name">PCM signed 24-bit little-endian</property>
  <property name="meta.media.0.codec.bit_rate">2116800</property>
  <property name="meta.attr.encoded_by.markup">Logic Pro X</property>
  <property name="meta.attr.date.markup">2017-06-08</property>
  <property name="meta.attr.creation_time.markup">17:13:13</property>
  <property name="meta.attr.time_reference.markup">165743705</property>
  <property name="meta.attr.umid.markup">0x00000000000000000000000000000000000000000000000000000000A200AAFA29A23A358059595BFF7F00004694620501000000B051595BFF7F0000ECFE8894</property>
  <property name="seekable">1</property>
  <property name="audio_index">0</property>
  <property name="video_index">-1</property>
  <property name="kdenlive:clipname"/>
  <property name="kdenlive:clip_type">1</property>
  <property name="kdenlive:folderid">575</property>
  <property name="kdenlive:id">577</property>
  <property name="kdenlive:file_size">7027810</property>
  <property name="kdenlive:file_hash">33efa551a6e6b7fbb7fab9d4752e070e</property>
  <property name="kdenlive:audio_max0">241</property>
 </chain>
 <chain id="chain540" out="00:01:29.467">
  <property name="length">5369</property>
  <property name="eof">pause</property>
  <property name="resource">audio/music/Warmbody/The Big Ten/variations/The Big Ten | Bass Lead.wav</property>
  <property name="mlt_service">avformat</property>
  <property name="meta.media.nb_streams">1</property>
  <property name="meta.media.0.stream.type">audio</property>
  <property name="meta.media.0.codec.sample_fmt">s32</property>
  <property name="meta.media.0.codec.sample_rate">44100</property>
  <property name="meta.media.0.codec.channels">2</property>
  <property name="meta.media.0.codec.name">pcm_s24le</property>
  <property name="meta.media.0.codec.long_name">PCM signed 24-bit little-endian</property>
  <property name="meta.media.0.codec.bit_rate">2116800</property>
  <property name="meta.attr.encoded_by.markup">Logic Pro X</property>
  <property name="meta.attr.date.markup">2017-06-08</property>
  <property name="meta.attr.creation_time.markup">17:15:13</property>
  <property name="meta.attr.time_reference.markup">162968568</property>
  <property name="meta.attr.umid.markup">0x00000000000000000000000000000000000000000000000000000000A200AAFA29A23A358059595BFF7F00004694620501000000B051595BFF7F0000ECFE8894</property>
  <property name="seekable">1</property>
  <property name="audio_index">0</property>
  <property name="video_index">-1</property>
  <property name="kdenlive:clipname"/>
  <property name="kdenlive:clip_type">1</property>
  <property name="kdenlive:folderid">575</property>
  <property name="kdenlive:id">578</property>
  <property name="kdenlive:file_size">23678632</property>
  <property name="kdenlive:file_hash">3905d737b6ef81c6920ae593af5d8c91</property>
  <property name="kdenlive:audio_max0">245</property>
 </chain>
 <chain id="chain543" out="00:02:50.783">
  <property name="length">10248</property>
  <property name="eof">pause</property>
  <property name="resource">audio/music/Warmbody/The Big Ten/variations/The Big Ten | Minimal.wav</property>
  <property name="mlt_service">avformat</property>
  <property name="meta.media.nb_streams">1</property>
  <property name="meta.media.0.stream.type">audio</property>
  <property name="meta.media.0.codec.sample_fmt">s32</property>
  <property name="meta.media.0.codec.sample_rate">44100</property>
  <property name="meta.media.0.codec.channels">2</property>
  <property name="meta.media.0.codec.name">pcm_s24le</property>
  <property name="meta.media.0.codec.long_name">PCM signed 24-bit little-endian</property>
  <property name="meta.media.0.codec.bit_rate">2116800</property>
  <property name="meta.attr.encoded_by.markup">Logic Pro X</property>
  <property name="meta.attr.date.markup">2017-06-08</property>
  <property name="meta.attr.creation_time.markup">17:17:20</property>
  <property name="meta.attr.time_reference.markup">160383313</property>
  <property name="meta.attr.umid.markup">0x00000000000000000000000000000000000000000000000000000000A200AAFA29A23A358059595BFF7F00004694620501000000B051595BFF7F0000ECFE8894</property>
  <property name="seekable">1</property>
  <property name="audio_index">0</property>
  <property name="video_index">-1</property>
  <property name="kdenlive:clipname"/>
  <property name="kdenlive:clip_type">1</property>
  <property name="kdenlive:folderid">575</property>
  <property name="kdenlive:id">579</property>
  <property name="kdenlive:file_size">45193756</property>
  <property name="kdenlive:file_hash">7d29f6a8e52f35c55e3956233372098d</property>
  <property name="kdenlive:audio_max0">249</property>
 </chain>
 <chain id="chain541" out="00:03:04.250">
  <property name="length">11056</property>
  <property name="eof">pause</property>
  <property name="resource">audio/music/Warmbody/The Big Ten/variations/The Big Ten | No Lead Guitar.wav</property>
  <property name="mlt_service">avformat</property>
  <property name="meta.media.nb_streams">1</property>
  <property name="meta.media.0.stream.type">audio</property>
  <property name="meta.media.0.codec.sample_fmt">s32</property>
  <property name="meta.media.0.codec.sample_rate">44100</property>
  <property name="meta.media.0.codec.channels">2</property>
  <property name="meta.media.0.codec.name">pcm_s24le</property>
  <property name="meta.media.0.codec.long_name">PCM signed 24-bit little-endian</property>
  <property name="meta.media.0.codec.bit_rate">2116800</property>
  <property name="meta.attr.encoded_by.markup">Logic Pro X</property>
  <property name="meta.attr.date.markup">2017-06-08</property>
  <property name="meta.attr.creation_time.markup">17:10:47</property>
  <property name="meta.attr.time_reference.markup">158760000</property>
  <property name="meta.attr.umid.markup">0x00000000000000000000000000000000000000000000000000000000A200AAFA29A23A358059595BFF7F00004694620501000000B051595BFF7F0000ECFE8894</property>
  <property name="seekable">1</property>
  <property name="audio_index">0</property>
  <property name="video_index">-1</property>
  <property name="kdenlive:clipname"/>
  <property name="kdenlive:clip_type">1</property>
  <property name="kdenlive:folderid">575</property>
  <property name="kdenlive:id">580</property>
  <property name="kdenlive:file_size">48756532</property>
  <property name="kdenlive:file_hash">b541b20c3f4abb03dfccd8828b824a90</property>
  <property name="kdenlive:audio_max0">252</property>
 </chain>
 <chain id="chain542" out="00:11:53.250">
  <property name="length">42796</property>
  <property name="eof">pause</property>
  <property name="resource">audio/normalized/algorithmic.wav</property>
  <property name="mlt_service">avformat</property>
  <property name="meta.media.nb_streams">1</property>
  <property name="meta.media.0.stream.type">audio</property>
  <property name="meta.media.0.codec.sample_fmt">s16</property>
  <property name="meta.media.0.codec.sample_rate">48000</property>
  <property name="meta.media.0.codec.channels">2</property>
  <property name="meta.media.0.codec.name">pcm_s16le</property>
  <property name="meta.media.0.codec.long_name">PCM signed 16-bit little-endian</property>
  <property name="meta.media.0.codec.bit_rate">1536000</property>
  <property name="seekable">1</property>
  <property name="audio_index">0</property>
  <property name="video_index">-1</property>
  <property name="kdenlive:clipname"/>
  <property name="kdenlive:clip_type">1</property>
  <property name="kdenlive:folderid">581</property>
  <property name="kdenlive:id">582</property>
  <property name="kdenlive:file_size">136946468</property>
  <property name="kdenlive:file_hash">835c0dade20774fcce31fcbf0862bf31</property>
  <property name="kdenlive:audio_max0">188</property>
 </chain>
 <chain id="chain544" out="00:01:34.100">
  <property name="length">5647</property>
  <property name="eof">pause</property>
  <property name="resource">audio/normalized/basics.wav</property>
  <property name="mlt_service">avformat</property>
  <property name="meta.media.nb_streams">1</property>
  <property name="meta.media.0.stream.type">audio</property>
  <property name="meta.media.0.codec.sample_fmt">s16</property>
  <property name="meta.media.0.codec.sample_rate">48000</property>
  <property name="meta.media.0.codec.channels">2</property>
  <property name="meta.media.0.codec.name">pcm_s16le</property>
  <property name="meta.media.0.codec.long_name">PCM signed 16-bit little-endian</property>
  <property name="meta.media.0.codec.bit_rate">1536000</property>
  <property name="seekable">1</property>
  <property name="audio_index">0</property>
  <property name="video_index">-1</property>
  <property name="kdenlive:clipname"/>
  <property name="kdenlive:clip_type">1</property>
  <property name="kdenlive:folderid">581</property>
  <property name="kdenlive:id">583</property>
  <property name="kdenlive:file_size">18069544</property>
  <property name="kdenlive:file_hash">56321a752aa82f03f5314498984fbb24</property>
  <property name="kdenlive:audio_max0">164</property>
 </chain>
 <chain id="chain545" out="00:03:46.000">
  <property name="length">13561</property>
  <property name="eof">pause</property>
  <property name="resource">audio/normalized/duality.wav</property>
  <property name="mlt_service">avformat</property>
  <property name="meta.media.nb_streams">1</property>
  <property name="meta.media.0.stream.type">audio</property>
  <property name="meta.media.0.codec.sample_fmt">s16</property>
  <property name="meta.media.0.codec.sample_rate">48000</property>
  <property name="meta.media.0.codec.channels">2</property>
  <property name="meta.media.0.codec.name">pcm_s16le</property>
  <property name="meta.media.0.codec.long_name">PCM signed 16-bit little-endian</property>
  <property name="meta.media.0.codec.bit_rate">1536000</property>
  <property name="seekable">1</property>
  <property name="audio_index">0</property>
  <property name="video_index">-1</property>
  <property name="kdenlive:clipname"/>
  <property name="kdenlive:clip_type">1</property>
  <property name="kdenlive:folderid">581</property>
  <property name="kdenlive:id">584</property>
  <property name="kdenlive:file_size">43394056</property>
  <property name="kdenlive:file_hash">3b3bc712304cf299d47c33144a2b4449</property>
  <property name="kdenlive:audio_max0">175</property>
 </chain>
 <chain id="chain546" out="00:02:44.950">
  <property name="length">9898</property>
  <property name="eof">pause</property>
  <property name="resource">audio/normalized/geometric.wav</property>
  <property name="mlt_service">avformat</property>
  <property name="meta.media.nb_streams">1</property>
  <property name="meta.media.0.stream.type">audio</property>
  <property name="meta.media.0.codec.sample_fmt">s16</property>
  <property name="meta.media.0.codec.sample_rate">48000</property>
  <property name="meta.media.0.codec.channels">2</property>
  <property name="meta.media.0.codec.name">pcm_s16le</property>
  <property name="meta.media.0.codec.long_name">PCM signed 16-bit little-endian</property>
  <property name="meta.media.0.codec.bit_rate">1536000</property>
  <property name="seekable">1</property>
  <property name="audio_index">0</property>
  <property name="video_index">-1</property>
  <property name="kdenlive:clipname"/>
  <property name="kdenlive:clip_type">1</property>
  <property name="kdenlive:folderid">581</property>
  <property name="kdenlive:id">585</property>
  <property name="kdenlive:file_size">31674504</property>
  <property name="kdenlive:file_hash">560259b5bfbf94937f7842ccb3f18ff2</property>
  <property name="kdenlive:audio_max0">164</property>
 </chain>
 <chain id="chain547" out="00:04:49.483">
  <property name="length">17370</property>
  <property name="eof">pause</property>
  <property name="resource">audio/normalized/ilp.wav</property>
  <property name="mlt_service">avformat</property>
  <property name="meta.media.nb_streams">1</property>
  <property name="meta.media.0.stream.type">audio</property>
  <property name="meta.media.0.codec.sample_fmt">s16</property>
  <property name="meta.media.0.codec.sample_rate">48000</property>
  <property name="meta.media.0.codec.channels">2</property>
  <property name="meta.media.0.codec.name">pcm_s16le</property>
  <property name="meta.media.0.codec.long_name">PCM signed 16-bit little-endian</property>
  <property name="meta.media.0.codec.bit_rate">1536000</property>
  <property name="seekable">1</property>
  <property name="audio_index">0</property>
  <property name="video_index">-1</property>
  <property name="kdenlive:clipname"/>
  <property name="kdenlive:clip_type">1</property>
  <property name="kdenlive:folderid">581</property>
  <property name="kdenlive:id">586</property>
  <property name="kdenlive:file_size">55583848</property>
  <property name="kdenlive:file_hash">0d3faa8097e21cdb171316e500f0519e</property>
  <property name="kdenlive:audio_max0">179</property>
 </chain>
 <chain id="chain548" out="00:01:07.167">
  <property name="length">4031</property>
  <property name="eof">pause</property>
  <property name="resource">audio/normalized/introduction.wav</property>
  <property name="mlt_service">avformat</property>
  <property name="meta.media.nb_streams">1</property>
  <property name="meta.media.0.stream.type">audio</property>
  <property name="meta.media.0.codec.sample_fmt">s16</property>
  <property name="meta.media.0.codec.sample_rate">48000</property>
  <property name="meta.media.0.codec.channels">2</property>
  <property name="meta.media.0.codec.name">pcm_s16le</property>
  <property name="meta.media.0.codec.long_name">PCM signed 16-bit little-endian</property>
  <property name="meta.media.0.codec.bit_rate">1536000</property>
  <property name="seekable">1</property>
  <property name="audio_index">0</property>
  <property name="video_index">-1</property>
  <property name="kdenlive:clipname"/>
  <property name="kdenlive:clip_type">1</property>
  <property name="kdenlive:folderid">581</property>
  <property name="kdenlive:id">587</property>
  <property name="kdenlive:file_size">12898444</property>
  <property name="kdenlive:file_hash">5891e978e2dac564ec50408603793e67</property>
  <property name="kdenlive:audio_max0">170</property>
 </chain>
 <chain id="chain549" out="00:01:26.800">
  <property name="length">5209</property>
  <property name="eof">pause</property>
  <property name="resource">audio/normalized/outro.wav</property>
  <property name="mlt_service">avformat</property>
  <property name="meta.media.nb_streams">1</property>
  <property name="meta.media.0.stream.type">audio</property>
  <property name="meta.media.0.codec.sample_fmt">s16</property>
  <property name="meta.media.0.codec.sample_rate">48000</property>
  <property name="meta.media.0.codec.channels">2</property>
  <property name="meta.media.0.codec.name">pcm_s16le</property>
  <property name="meta.media.0.codec.long_name">PCM signed 16-bit little-endian</property>
  <property name="meta.media.0.codec.bit_rate">1536000</property>
  <property name="seekable">1</property>
  <property name="audio_index">0</property>
  <property name="video_index">-1</property>
  <property name="kdenlive:clipname"/>
  <property name="kdenlive:clip_type">1</property>
  <property name="kdenlive:folderid">581</property>
  <property name="kdenlive:id">588</property>
  <property name="kdenlive:file_size">16667660</property>
  <property name="kdenlive:file_hash">7f413b2ea8d65a5b48a9fd651d4bf008</property>
  <property name="kdenlive:audio_max0">165</property>
 </chain>
 <chain id="chain550" out="00:11:53.250">
  <property name="length">42796</property>
  <property name="eof">pause</property>
  <property name="resource">audio/raw/algorithmic.wav</property>
  <property name="mlt_service">avformat</property>
  <property name="meta.media.nb_streams">1</property>
  <property name="meta.media.0.stream.type">audio</property>
  <property name="meta.media.0.codec.sample_fmt">s16</property>
  <property name="meta.media.0.codec.sample_rate">48000</property>
  <property name="meta.media.0.codec.channels">2</property>
  <property name="meta.media.0.codec.name">pcm_s16le</property>
  <property name="meta.media.0.codec.long_name">PCM signed 16-bit little-endian</property>
  <property name="meta.media.0.codec.bit_rate">1536000</property>
  <property name="seekable">1</property>
  <property name="audio_index">0</property>
  <property name="video_index">-1</property>
  <property name="kdenlive:clipname"/>
  <property name="kdenlive:clip_type">1</property>
  <property name="kdenlive:folderid">589</property>
  <property name="kdenlive:id">590</property>
  <property name="kdenlive:file_size">136946468</property>
  <property name="kdenlive:file_hash">a1c74c0250ed859e3f2916054a2d1a98</property>
  <property name="kdenlive:audio_max0">140</property>
 </chain>
 <chain id="chain551" out="00:01:34.100">
  <property name="length">5647</property>
  <property name="eof">pause</property>
  <property name="resource">audio/raw/basics.wav</property>
  <property name="mlt_service">avformat</property>
  <property name="meta.media.nb_streams">1</property>
  <property name="meta.media.0.stream.type">audio</property>
  <property name="meta.media.0.codec.sample_fmt">s16</property>
  <property name="meta.media.0.codec.sample_rate">48000</property>
  <property name="meta.media.0.codec.channels">2</property>
  <property name="meta.media.0.codec.name">pcm_s16le</property>
  <property name="meta.media.0.codec.long_name">PCM signed 16-bit little-endian</property>
  <property name="meta.media.0.codec.bit_rate">1536000</property>
  <property name="seekable">1</property>
  <property name="audio_index">0</property>
  <property name="video_index">-1</property>
  <property name="kdenlive:clipname"/>
  <property name="kdenlive:clip_type">1</property>
  <property name="kdenlive:folderid">589</property>
  <property name="kdenlive:id">591</property>
  <property name="kdenlive:file_size">18069544</property>
  <property name="kdenlive:file_hash">a446b3cec3f4dd21451a04a8205866e6</property>
  <property name="kdenlive:audio_max0">122</property>
 </chain>
 <chain id="chain552" out="00:03:46.000">
  <property name="length">13561</property>
  <property name="eof">pause</property>
  <property name="resource">audio/raw/duality.wav</property>
  <property name="mlt_service">avformat</property>
  <property name="meta.media.nb_streams">1</property>
  <property name="meta.media.0.stream.type">audio</property>
  <property name="meta.media.0.codec.sample_fmt">s16</property>
  <property name="meta.media.0.codec.sample_rate">48000</property>
  <property name="meta.media.0.codec.channels">2</property>
  <property name="meta.media.0.codec.name">pcm_s16le</property>
  <property name="meta.media.0.codec.long_name">PCM signed 16-bit little-endian</property>
  <property name="meta.media.0.codec.bit_rate">1536000</property>
  <property name="seekable">1</property>
  <property name="audio_index">0</property>
  <property name="video_index">-1</property>
  <property name="kdenlive:clipname"/>
  <property name="kdenlive:clip_type">1</property>
  <property name="kdenlive:folderid">589</property>
  <property name="kdenlive:id">592</property>
  <property name="kdenlive:file_size">43394056</property>
  <property name="kdenlive:file_hash">d010c79bf57b222dd311cba57b29564a</property>
  <property name="kdenlive:audio_max0">126</property>
 </chain>
 <chain id="chain553" out="00:02:44.950">
  <property name="length">9898</property>
  <property name="eof">pause</property>
  <property name="resource">audio/raw/geometric.wav</property>
  <property name="mlt_service">avformat</property>
  <property name="meta.media.nb_streams">1</property>
  <property name="meta.media.0.stream.type">audio</property>
  <property name="meta.media.0.codec.sample_fmt">s16</property>
  <property name="meta.media.0.codec.sample_rate">48000</property>
  <property name="meta.media.0.codec.channels">2</property>
  <property name="meta.media.0.codec.name">pcm_s16le</property>
  <property name="meta.media.0.codec.long_name">PCM signed 16-bit little-endian</property>
  <property name="meta.media.0.codec.bit_rate">1536000</property>
  <property name="seekable">1</property>
  <property name="audio_index">0</property>
  <property name="video_index">-1</property>
  <property name="kdenlive:clipname"/>
  <property name="kdenlive:clip_type">1</property>
  <property name="kdenlive:folderid">589</property>
  <property name="kdenlive:id">593</property>
  <property name="kdenlive:file_size">31674504</property>
  <property name="kdenlive:file_hash">59d2ea5374c908e5c6418499bf286434</property>
  <property name="kdenlive:audio_max0">120</property>
 </chain>
 <chain id="chain554" out="00:04:49.483">
  <property name="length">17370</property>
  <property name="eof">pause</property>
  <property name="resource">audio/raw/ilp.wav</property>
  <property name="mlt_service">avformat</property>
  <property name="meta.media.nb_streams">1</property>
  <property name="meta.media.0.stream.type">audio</property>
  <property name="meta.media.0.codec.sample_fmt">s16</property>
  <property name="meta.media.0.codec.sample_rate">48000</property>
  <property name="meta.media.0.codec.channels">2</property>
  <property name="meta.media.0.codec.name">pcm_s16le</property>
  <property name="meta.media.0.codec.long_name">PCM signed 16-bit little-endian</property>
  <property name="meta.media.0.codec.bit_rate">1536000</property>
  <property name="seekable">1</property>
  <property name="audio_index">0</property>
  <property name="video_index">-1</property>
  <property name="kdenlive:clipname"/>
  <property name="kdenlive:clip_type">1</property>
  <property name="kdenlive:folderid">589</property>
  <property name="kdenlive:id">594</property>
  <property name="kdenlive:file_size">55583848</property>
  <property name="kdenlive:file_hash">52c54618ba50fd31f5aec446cedb6080</property>
  <property name="kdenlive:audio_max0">131</property>
 </chain>
 <chain id="chain555" out="00:01:07.167">
  <property name="length">4031</property>
  <property name="eof">pause</property>
  <property name="resource">audio/raw/introduction.wav</property>
  <property name="mlt_service">avformat</property>
  <property name="meta.media.nb_streams">1</property>
  <property name="meta.media.0.stream.type">audio</property>
  <property name="meta.media.0.codec.sample_fmt">s16</property>
  <property name="meta.media.0.codec.sample_rate">48000</property>
  <property name="meta.media.0.codec.channels">2</property>
  <property name="meta.media.0.codec.name">pcm_s16le</property>
  <property name="meta.media.0.codec.long_name">PCM signed 16-bit little-endian</property>
  <property name="meta.media.0.codec.bit_rate">1536000</property>
  <property name="seekable">1</property>
  <property name="audio_index">0</property>
  <property name="video_index">-1</property>
  <property name="kdenlive:clipname"/>
  <property name="kdenlive:clip_type">1</property>
  <property name="kdenlive:folderid">589</property>
  <property name="kdenlive:id">595</property>
  <property name="kdenlive:file_size">12898444</property>
  <property name="kdenlive:file_hash">f1102efa37abdcc458e2472acad04a36</property>
  <property name="kdenlive:audio_max0">133</property>
 </chain>
 <chain id="chain556" out="00:01:26.800">
  <property name="length">5209</property>
  <property name="eof">pause</property>
  <property name="resource">audio/raw/outro.wav</property>
  <property name="mlt_service">avformat</property>
  <property name="meta.media.nb_streams">1</property>
  <property name="meta.media.0.stream.type">audio</property>
  <property name="meta.media.0.codec.sample_fmt">s16</property>
  <property name="meta.media.0.codec.sample_rate">48000</property>
  <property name="meta.media.0.codec.channels">2</property>
  <property name="meta.media.0.codec.name">pcm_s16le</property>
  <property name="meta.media.0.codec.long_name">PCM signed 16-bit little-endian</property>
  <property name="meta.media.0.codec.bit_rate">1536000</property>
  <property name="seekable">1</property>
  <property name="audio_index">0</property>
  <property name="video_index">-1</property>
  <property name="kdenlive:clipname"/>
  <property name="kdenlive:clip_type">1</property>
  <property name="kdenlive:folderid">589</property>
  <property name="kdenlive:id">596</property>
  <property name="kdenlive:file_size">16667660</property>
  <property name="kdenlive:file_hash">4505bfcaff9f508c3925a430dcddd1d9</property>
  <property name="kdenlive:audio_max0">123</property>
 </chain>
 <producer id="producer0" in="00:00:00.000" out="00:26:22.583">
  <property name="length">2147483647</property>
  <property name="eof">continue</property>
  <property name="resource">black</property>
  <property name="aspect_ratio">1</property>
  <property name="mlt_service">color</property>
  <property name="kdenlive:playlistid">black_track</property>
  <property name="mlt_image_format">rgba</property>
  <property name="set.test_audio">0</property>
 </producer>
 <playlist id="playlist0">
  <property name="kdenlive:audio_track">1</property>
 </playlist>
 <playlist id="playlist1">
  <property name="kdenlive:audio_track">1</property>
 </playlist>
 <tractor id="tractor0" in="00:00:00.000">
  <property name="kdenlive:audio_track">1</property>
  <property name="kdenlive:trackheight">67</property>
  <property name="kdenlive:timeline_active">1</property>
  <property name="kdenlive:collapsed">0</property>
  <property name="kdenlive:thumbs_format"/>
  <property name="kdenlive:audio_rec"/>
  <track hide="video" producer="playlist0"/>
  <track hide="video" producer="playlist1"/>
  <filter id="filter0">
   <property name="window">75</property>
   <property name="max_gain">20dB</property>
   <property name="mlt_service">volume</property>
   <property name="internal_added">237</property>
   <property name="disable">1</property>
  </filter>
  <filter id="filter1">
   <property name="channel">-1</property>
   <property name="mlt_service">panner</property>
   <property name="internal_added">237</property>
   <property name="start">0.5</property>
   <property name="disable">1</property>
  </filter>
  <filter id="filter2">
   <property name="iec_scale">0</property>
   <property name="mlt_service">audiolevel</property>
   <property name="dbpeak">1</property>
   <property name="disable">1</property>
  </filter>
 </tractor>
 <chain id="chain0" out="00:01:07.167">
  <property name="length">4031</property>
  <property name="eof">pause</property>
  <property name="resource">audio/normalized/introduction.wav</property>
  <property name="mlt_service">avformat-novalidate</property>
  <property name="seekable">1</property>
  <property name="audio_index">0</property>
  <property name="video_index">-1</property>
  <property name="kdenlive:clipname"/>
  <property name="kdenlive:clip_type">1</property>
  <property name="kdenlive:folderid">581</property>
  <property name="kdenlive:id">587</property>
  <property name="kdenlive:file_size">12898444</property>
  <property name="kdenlive:file_hash">5891e978e2dac564ec50408603793e67</property>
  <property name="kdenlive:audio_max0">170</property>
  <property name="meta.media.nb_streams">1</property>
  <property name="meta.media.0.stream.type">audio</property>
  <property name="meta.media.0.codec.sample_fmt">s16</property>
  <property name="meta.media.0.codec.sample_rate">48000</property>
  <property name="meta.media.0.codec.channels">2</property>
  <property name="meta.media.0.codec.name">pcm_s16le</property>
  <property name="meta.media.0.codec.long_name">PCM signed 16-bit little-endian</property>
  <property name="meta.media.0.codec.bit_rate">1536000</property>
  <property name="xml">was here</property>
  <property name="mute_on_pause">0</property>
  <property name="set.test_audio">0</property>
  <property name="set.test_image">1</property>
 </chain>
 <chain id="chain1" out="00:01:34.100">
  <property name="length">5647</property>
  <property name="eof">pause</property>
  <property name="resource">audio/normalized/basics.wav</property>
  <property name="mlt_service">avformat-novalidate</property>
  <property name="seekable">1</property>
  <property name="audio_index">0</property>
  <property name="video_index">-1</property>
  <property name="kdenlive:clipname"/>
  <property name="kdenlive:clip_type">1</property>
  <property name="kdenlive:folderid">581</property>
  <property name="kdenlive:id">583</property>
  <property name="kdenlive:file_size">18069544</property>
  <property name="kdenlive:file_hash">56321a752aa82f03f5314498984fbb24</property>
  <property name="kdenlive:audio_max0">164</property>
  <property name="meta.media.nb_streams">1</property>
  <property name="meta.media.0.stream.type">audio</property>
  <property name="meta.media.0.codec.sample_fmt">s16</property>
  <property name="meta.media.0.codec.sample_rate">48000</property>
  <property name="meta.media.0.codec.channels">2</property>
  <property name="meta.media.0.codec.name">pcm_s16le</property>
  <property name="meta.media.0.codec.long_name">PCM signed 16-bit little-endian</property>
  <property name="meta.media.0.codec.bit_rate">1536000</property>
  <property name="xml">was here</property>
  <property name="mute_on_pause">0</property>
  <property name="set.test_audio">0</property>
  <property name="set.test_image">1</property>
 </chain>
 <chain id="chain2" out="00:02:44.950">
  <property name="length">9898</property>
  <property name="eof">pause</property>
  <property name="resource">audio/normalized/geometric.wav</property>
  <property name="mlt_service">avformat-novalidate</property>
  <property name="seekable">1</property>
  <property name="audio_index">0</property>
  <property name="video_index">-1</property>
  <property name="kdenlive:clipname"/>
  <property name="kdenlive:clip_type">1</property>
  <property name="kdenlive:folderid">581</property>
  <property name="kdenlive:id">585</property>
  <property name="kdenlive:file_size">31674504</property>
  <property name="kdenlive:file_hash">560259b5bfbf94937f7842ccb3f18ff2</property>
  <property name="kdenlive:audio_max0">164</property>
  <property name="meta.media.nb_streams">1</property>
  <property name="meta.media.0.stream.type">audio</property>
  <property name="meta.media.0.codec.sample_fmt">s16</property>
  <property name="meta.media.0.codec.sample_rate">48000</property>
  <property name="meta.media.0.codec.channels">2</property>
  <property name="meta.media.0.codec.name">pcm_s16le</property>
  <property name="meta.media.0.codec.long_name">PCM signed 16-bit little-endian</property>
  <property name="meta.media.0.codec.bit_rate">1536000</property>
  <property name="xml">was here</property>
  <property name="mute_on_pause">0</property>
  <property name="set.test_audio">0</property>
  <property name="set.test_image">1</property>
 </chain>
 <chain id="chain3" out="00:11:53.250">
  <property name="length">42796</property>
  <property name="eof">pause</property>
  <property name="resource">audio/normalized/algorithmic.wav</property>
  <property name="mlt_service">avformat-novalidate</property>
  <property name="seekable">1</property>
  <property name="audio_index">0</property>
  <property name="video_index">-1</property>
  <property name="kdenlive:clipname"/>
  <property name="kdenlive:clip_type">1</property>
  <property name="kdenlive:folderid">581</property>
  <property name="kdenlive:id">582</property>
  <property name="kdenlive:file_size">136946468</property>
  <property name="kdenlive:file_hash">835c0dade20774fcce31fcbf0862bf31</property>
  <property name="kdenlive:audio_max0">188</property>
  <property name="meta.media.nb_streams">1</property>
  <property name="meta.media.0.stream.type">audio</property>
  <property name="meta.media.0.codec.sample_fmt">s16</property>
  <property name="meta.media.0.codec.sample_rate">48000</property>
  <property name="meta.media.0.codec.channels">2</property>
  <property name="meta.media.0.codec.name">pcm_s16le</property>
  <property name="meta.media.0.codec.long_name">PCM signed 16-bit little-endian</property>
  <property name="meta.media.0.codec.bit_rate">1536000</property>
  <property name="xml">was here</property>
  <property name="mute_on_pause">0</property>
  <property name="set.test_audio">0</property>
  <property name="set.test_image">1</property>
 </chain>
 <chain id="chain4" out="00:03:46.000">
  <property name="length">13561</property>
  <property name="eof">pause</property>
  <property name="resource">audio/normalized/duality.wav</property>
  <property name="mlt_service">avformat-novalidate</property>
  <property name="seekable">1</property>
  <property name="audio_index">0</property>
  <property name="video_index">-1</property>
  <property name="kdenlive:clipname"/>
  <property name="kdenlive:clip_type">1</property>
  <property name="kdenlive:folderid">581</property>
  <property name="kdenlive:id">584</property>
  <property name="kdenlive:file_size">43394056</property>
  <property name="kdenlive:file_hash">3b3bc712304cf299d47c33144a2b4449</property>
  <property name="kdenlive:audio_max0">175</property>
  <property name="meta.media.nb_streams">1</property>
  <property name="meta.media.0.stream.type">audio</property>
  <property name="meta.media.0.codec.sample_fmt">s16</property>
  <property name="meta.media.0.codec.sample_rate">48000</property>
  <property name="meta.media.0.codec.channels">2</property>
  <property name="meta.media.0.codec.name">pcm_s16le</property>
  <property name="meta.media.0.codec.long_name">PCM signed 16-bit little-endian</property>
  <property name="meta.media.0.codec.bit_rate">1536000</property>
  <property name="xml">was here</property>
  <property name="mute_on_pause">0</property>
  <property name="set.test_audio">0</property>
  <property name="set.test_image">1</property>
 </chain>
 <chain id="chain5" out="00:04:49.483">
  <property name="length">17370</property>
  <property name="eof">pause</property>
  <property name="resource">audio/normalized/ilp.wav</property>
  <property name="mlt_service">avformat-novalidate</property>
  <property name="seekable">1</property>
  <property name="audio_index">0</property>
  <property name="video_index">-1</property>
  <property name="kdenlive:clipname"/>
  <property name="kdenlive:clip_type">1</property>
  <property name="kdenlive:folderid">581</property>
  <property name="kdenlive:id">586</property>
  <property name="kdenlive:file_size">55583848</property>
  <property name="kdenlive:file_hash">0d3faa8097e21cdb171316e500f0519e</property>
  <property name="kdenlive:audio_max0">179</property>
  <property name="meta.media.nb_streams">1</property>
  <property name="meta.media.0.stream.type">audio</property>
  <property name="meta.media.0.codec.sample_fmt">s16</property>
  <property name="meta.media.0.codec.sample_rate">48000</property>
  <property name="meta.media.0.codec.channels">2</property>
  <property name="meta.media.0.codec.name">pcm_s16le</property>
  <property name="meta.media.0.codec.long_name">PCM signed 16-bit little-endian</property>
  <property name="meta.media.0.codec.bit_rate">1536000</property>
  <property name="xml">was here</property>
  <property name="mute_on_pause">0</property>
  <property name="set.test_audio">0</property>
  <property name="set.test_image">1</property>
 </chain>
 <chain id="chain6" out="00:01:26.800">
  <property name="length">5209</property>
  <property name="eof">pause</property>
  <property name="resource">audio/normalized/outro.wav</property>
  <property name="mlt_service">avformat-novalidate</property>
  <property name="seekable">1</property>
  <property name="audio_index">0</property>
  <property name="video_index">-1</property>
  <property name="kdenlive:clipname"/>
  <property name="kdenlive:clip_type">1</property>
  <property name="kdenlive:folderid">581</property>
  <property name="kdenlive:id">588</property>
  <property name="kdenlive:file_size">16667660</property>
  <property name="kdenlive:file_hash">7f413b2ea8d65a5b48a9fd651d4bf008</property>
  <property name="kdenlive:audio_max0">165</property>
  <property name="meta.media.nb_streams">1</property>
  <property name="meta.media.0.stream.type">audio</property>
  <property name="meta.media.0.codec.sample_fmt">s16</property>
  <property name="meta.media.0.codec.sample_rate">48000</property>
  <property name="meta.media.0.codec.channels">2</property>
  <property name="meta.media.0.codec.name">pcm_s16le</property>
  <property name="meta.media.0.codec.long_name">PCM signed 16-bit little-endian</property>
  <property name="meta.media.0.codec.bit_rate">1536000</property>
  <property name="xml">was here</property>
  <property name="mute_on_pause">0</property>
  <property name="set.test_audio">0</property>
  <property name="set.test_image">1</property>
 </chain>
 <playlist id="playlist2">
  <property name="kdenlive:audio_track">1</property>
  <entry producer="chain0" in="00:00:08.250" out="00:00:13.917">
   <property name="kdenlive:id">587</property>
  </entry>
  <blank length="00:00:01.633"/>
  <entry producer="chain0" in="00:00:25.633" out="00:00:28.400">
   <property name="kdenlive:id">587</property>
  </entry>
  <blank length="00:00:00.533"/>
  <entry producer="chain0" in="00:00:30.200" out="00:00:34.417">
   <property name="kdenlive:id">587</property>
  </entry>
  <blank length="00:00:00.700"/>
  <entry producer="chain0" in="00:00:35.133" out="00:00:37.167">
   <property name="kdenlive:id">587</property>
  </entry>
  <entry producer="chain0" in="00:00:39.167" out="00:00:40.900">
   <property name="kdenlive:id">587</property>
  </entry>
  <blank length="00:00:00.733"/>
  <entry producer="chain0" in="00:00:41.650" out="00:00:50.550">
   <property name="kdenlive:id">587</property>
  </entry>
  <blank length="00:00:00.383"/>
  <entry producer="chain0" in="00:00:58.233" out="00:01:01.600">
   <property name="kdenlive:id">587</property>
  </entry>
  <blank length="00:00:01.017"/>
  <entry producer="chain1" in="00:00:03.250" out="00:00:03.317">
   <property name="kdenlive:id">583</property>
  </entry>
  <entry producer="chain1" in="00:00:03.333" out="00:00:12.050">
   <property name="kdenlive:id">583</property>
  </entry>
  <blank length="00:00:00.633"/>
  <entry producer="chain1" in="00:00:12.067" out="00:00:12.167">
   <property name="kdenlive:id">583</property>
  </entry>
  <entry producer="chain1" in="00:00:14.750" out="00:00:21.367">
   <property name="kdenlive:id">583</property>
  </entry>
  <blank length="00:00:00.183"/>
  <entry producer="chain1" in="00:00:21.383" out="00:00:21.550">
   <property name="kdenlive:id">583</property>
  </entry>
  <entry producer="chain1" in="00:00:22.083" out="00:00:27.483">
   <property name="kdenlive:id">583</property>
  </entry>
  <blank length="00:00:00.983"/>
  <entry producer="chain1" in="00:00:28.483" out="00:00:35.317">
   <property name="kdenlive:id">583</property>
  </entry>
  <blank length="00:00:00.600"/>
  <entry producer="chain1" in="00:00:35.933" out="00:00:42.033">
   <property name="kdenlive:id">583</property>
  </entry>
  <blank length="00:00:00.983"/>
  <entry producer="chain1" in="00:00:46.967" out="00:00:50.183">
   <property name="kdenlive:id">583</property>
  </entry>
  <blank length="00:00:00.600"/>
  <entry producer="chain1" in="00:00:50.800" out="00:00:53.933">
   <property name="kdenlive:id">583</property>
  </entry>
  <blank length="00:00:00.117"/>
  <entry producer="chain1" in="00:01:00.817" out="00:01:12.417">
   <property name="kdenlive:id">583</property>
  </entry>
  <blank length="00:00:00.983"/>
  <entry producer="chain1" in="00:01:13.417" out="00:01:21.983">
   <property name="kdenlive:id">583</property>
  </entry>
  <blank length="00:00:00.900"/>
  <entry producer="chain1" in="00:01:22.900" out="00:01:32.683">
   <property name="kdenlive:id">583</property>
  </entry>
  <blank length="00:00:01.567"/>
  <entry producer="chain1" in="00:01:32.700" out="00:01:32.767">
   <property name="kdenlive:id">583</property>
  </entry>
  <entry producer="chain2" in="00:00:07.883" out="00:00:12.083">
   <property name="kdenlive:id">585</property>
  </entry>
  <blank length="00:00:00.633"/>
  <entry producer="chain2" in="00:00:12.483" out="00:00:16.150">
   <property name="kdenlive:id">585</property>
  </entry>
  <blank length="00:00:00.633"/>
  <entry producer="chain2" in="00:00:16.800" out="00:00:18.450">
   <property name="kdenlive:id">585</property>
  </entry>
  <blank length="00:00:00.367"/>
  <entry producer="chain2" in="00:00:18.467" out="00:00:18.633">
   <property name="kdenlive:id">585</property>
  </entry>
  <entry producer="chain2" in="00:00:19.350" out="00:00:29.900">
   <property name="kdenlive:id">585</property>
  </entry>
  <blank length="00:00:00.100"/>
  <entry producer="chain2" in="00:00:29.917" out="00:00:31.400">
   <property name="kdenlive:id">585</property>
  </entry>
  <blank length="00:00:01.133"/>
  <entry producer="chain2" in="00:00:32.933" out="00:00:37.833">
   <property name="kdenlive:id">585</property>
  </entry>
  <entry producer="chain2" in="00:00:39.883" out="00:00:41.383">
   <property name="kdenlive:id">585</property>
  </entry>
  <blank length="00:00:01.150"/>
  <entry producer="chain2" in="00:00:51.750" out="00:00:56.200">
   <property name="kdenlive:id">585</property>
   <filter id="filter3" in="00:00:56.133" out="00:00:56.200">
    <property name="window">75</property>
    <property name="max_gain">20dB</property>
    <property name="mlt_service">volume</property>
    <property name="kdenlive_id">fadeout</property>
    <property name="gain">1</property>
    <property name="end">0</property>
    <property name="kdenlive:collapsed">0</property>
   </filter>
  </entry>
  <blank length="00:00:00.150"/>
  <entry producer="chain2" in="00:00:56.367" out="00:01:00.267">
   <property name="kdenlive:id">585</property>
   <filter id="filter4" in="00:00:56.367" out="00:00:56.433">
    <property name="window">75</property>
    <property name="max_gain">20dB</property>
    <property name="mlt_service">volume</property>
    <property name="kdenlive_id">fadein</property>
    <property name="gain">0</property>
    <property name="end">1</property>
   </filter>
  </entry>
  <blank length="00:00:00.717"/>
  <entry producer="chain2" in="00:01:05.033" out="00:01:11.350">
   <property name="kdenlive:id">585</property>
  </entry>
  <blank length="00:00:04.333"/>
  <entry producer="chain2" in="00:01:12.017" out="00:01:17.867">
   <property name="kdenlive:id">585</property>
  </entry>
  <blank length="00:00:00.900"/>
  <entry producer="chain2" in="00:01:18.783" out="00:01:27.083">
   <property name="kdenlive:id">585</property>
  </entry>
  <blank length="00:00:00.300"/>
  <entry producer="chain2" in="00:01:27.100" out="00:01:35.683">
   <property name="kdenlive:id">585</property>
  </entry>
  <blank length="00:00:00.467"/>
  <entry producer="chain2" in="00:01:39.833" out="00:01:51.250">
   <property name="kdenlive:id">585</property>
  </entry>
  <blank length="00:00:00.567"/>
  <entry producer="chain2" in="00:01:51.833" out="00:02:00.533">
   <property name="kdenlive:id">585</property>
  </entry>
  <entry producer="chain2" in="00:02:03.683" out="00:02:06.250">
   <property name="kdenlive:id">585</property>
  </entry>
  <entry producer="chain2" in="00:02:06.267" out="00:02:08.167">
   <property name="kdenlive:id">585</property>
  </entry>
  <blank length="00:00:00.350"/>
  <entry producer="chain2" in="00:02:25.633" out="00:02:30.683">
   <property name="kdenlive:id">585</property>
  </entry>
  <entry producer="chain2" in="00:02:32.217" out="00:02:36.400">
   <property name="kdenlive:id">585</property>
  </entry>
  <entry producer="chain2" in="00:02:39.500" out="00:02:40.983">
   <property name="kdenlive:id">585</property>
  </entry>
  <blank length="00:00:01.450"/>
  <entry producer="chain3" in="00:00:11.717" out="00:00:17.433">
   <property name="kdenlive:id">582</property>
  </entry>
  <blank length="00:00:00.967"/>
  <entry producer="chain3" in="00:00:18.417" out="00:00:26.367">
   <property name="kdenlive:id">582</property>
  </entry>
  <blank length="00:00:01.067"/>
  <entry producer="chain3" in="00:00:27.450" out="00:00:32.750">
   <property name="kdenlive:id">582</property>
  </entry>
  <blank length="00:00:00.383"/>
  <entry producer="chain3" in="00:00:32.767" out="00:00:33.000">
   <property name="kdenlive:id">582</property>
  </entry>
  <entry producer="chain3" in="00:00:33.783" out="00:00:39.267">
   <property name="kdenlive:id">582</property>
  </entry>
  <entry producer="chain3" in="00:00:44.033" out="00:00:47.083">
   <property name="kdenlive:id">582</property>
  </entry>
  <blank length="00:00:02.467"/>
  <entry producer="chain3" in="00:00:48.333" out="00:00:53.283">
   <property name="kdenlive:id">582</property>
  </entry>
  <entry producer="chain3" in="00:00:56.733" out="00:00:59.233">
   <property name="kdenlive:id">582</property>
  </entry>
  <blank length="00:00:00.650"/>
  <entry producer="chain3" in="00:00:59.400" out="00:01:01.467">
   <property name="kdenlive:id">582</property>
  </entry>
  <entry producer="chain3" in="00:01:09.400" out="00:01:11.783">
   <property name="kdenlive:id">582</property>
  </entry>
  <blank length="00:00:01.400"/>
  <entry producer="chain3" in="00:01:13.200" out="00:01:17.133">
   <property name="kdenlive:id">582</property>
  </entry>
  <blank length="00:00:00.883"/>
  <entry producer="chain3" in="00:01:17.150" out="00:01:17.367">
   <property name="kdenlive:id">582</property>
  </entry>
  <entry producer="chain3" in="00:01:18.450" out="00:01:22.617">
   <property name="kdenlive:id">582</property>
  </entry>
  <blank length="00:00:00.483"/>
  <entry producer="chain3" in="00:01:23.667" out="00:01:29.000">
   <property name="kdenlive:id">582</property>
  </entry>
  <entry producer="chain3" in="00:01:31.267" out="00:01:36.683">
   <property name="kdenlive:id">582</property>
  </entry>
  <entry producer="chain3" in="00:01:38.683" out="00:01:41.017">
   <property name="kdenlive:id">582</property>
  </entry>
  <blank length="00:00:00.533"/>
  <entry producer="chain3" in="00:01:46.200" out="00:01:56.367">
   <property name="kdenlive:id">582</property>
  </entry>
  <blank length="00:00:01.100"/>
  <entry producer="chain3" in="00:01:57.733" out="00:02:00.300">
   <property name="kdenlive:id">582</property>
  </entry>
  <entry producer="chain3" in="00:02:03.433" out="00:02:12.583">
   <property name="kdenlive:id">582</property>
  </entry>
  <blank length="00:00:00.817"/>
  <entry producer="chain3" in="00:02:12.600" out="00:02:12.750">
   <property name="kdenlive:id">582</property>
  </entry>
  <entry producer="chain3" in="00:02:32.633" out="00:02:37.483">
   <property name="kdenlive:id">582</property>
  </entry>
  <entry producer="chain3" in="00:02:38.883" out="00:02:40.550">
   <property name="kdenlive:id">582</property>
  </entry>
  <blank length="00:00:00.383"/>
  <entry producer="chain3" in="00:02:48.100" out="00:02:52.367">
   <property name="kdenlive:id">582</property>
  </entry>
  <blank length="00:00:02.117"/>
  <entry producer="chain3" in="00:02:58.083" out="00:03:06.717">
   <property name="kdenlive:id">582</property>
  </entry>
  <blank length="00:00:00.883"/>
  <entry producer="chain3" in="00:03:07.617" out="00:03:10.367">
   <property name="kdenlive:id">582</property>
  </entry>
  <entry producer="chain3" in="00:03:20.667" out="00:03:23.150">
   <property name="kdenlive:id">582</property>
  </entry>
  <blank length="00:00:00.833"/>
  <entry producer="chain3" in="00:03:24.000" out="00:03:26.317">
   <property name="kdenlive:id">582</property>
  </entry>
  <entry producer="chain3" in="00:03:29.483" out="00:03:38.933">
   <property name="kdenlive:id">582</property>
  </entry>
  <entry producer="chain3" in="00:03:39.833" out="00:03:54.700">
   <property name="kdenlive:id">582</property>
  </entry>
  <blank length="00:00:00.933"/>
  <entry producer="chain3" in="00:03:55.650" out="00:04:03.933">
   <property name="kdenlive:id">582</property>
  </entry>
  <blank length="00:00:01.283"/>
  <entry producer="chain3" in="00:04:10.917" out="00:04:17.700">
   <property name="kdenlive:id">582</property>
  </entry>
  <blank length="00:00:00.933"/>
  <entry producer="chain3" in="00:04:20.883" out="00:04:31.183">
   <property name="kdenlive:id">582</property>
  </entry>
  <blank length="00:00:00.933"/>
  <entry producer="chain3" in="00:04:32.133" out="00:04:37.933">
   <property name="kdenlive:id">582</property>
  </entry>
  <blank length="00:00:00.583"/>
  <entry producer="chain3" in="00:04:38.117" out="00:04:41.383">
   <property name="kdenlive:id">582</property>
  </entry>
  <blank length="00:00:00.200"/>
  <entry producer="chain3" in="00:04:45.333" out="00:04:48.783">
   <property name="kdenlive:id">582</property>
  </entry>
  <entry producer="chain3" in="00:04:50.100" out="00:04:54.683">
   <property name="kdenlive:id">582</property>
  </entry>
  <blank length="00:00:02.217"/>
  <entry producer="chain3" in="00:04:58.400" out="00:05:06.800">
   <property name="kdenlive:id">582</property>
  </entry>
  <blank length="00:00:01.283"/>
  <entry producer="chain3" in="00:05:13.317" out="00:05:15.983">
   <property name="kdenlive:id">582</property>
  </entry>
  <blank length="00:00:00.267"/>
  <entry producer="chain3" in="00:05:17.233" out="00:05:23.917">
   <property name="kdenlive:id">582</property>
  </entry>
  <blank length="00:00:00.733"/>
  <entry producer="chain3" in="00:05:26.200" out="00:05:29.583">
   <property name="kdenlive:id">582</property>
  </entry>
  <blank length="00:00:00.783"/>
  <entry producer="chain3" in="00:05:31.350" out="00:05:40.900">
   <property name="kdenlive:id">582</property>
  </entry>
  <blank length="00:00:00.517"/>
  <entry producer="chain3" in="00:05:46.617" out="00:05:50.367">
   <property name="kdenlive:id">582</property>
  </entry>
  <blank length="00:00:00.167"/>
  <entry producer="chain3" in="00:05:50.550" out="00:05:54.083">
   <property name="kdenlive:id">582</property>
  </entry>
  <blank length="00:00:00.883"/>
  <entry producer="chain3" in="00:05:56.183" out="00:05:58.683">
   <property name="kdenlive:id">582</property>
  </entry>
  <blank length="00:00:00.250"/>
  <entry producer="chain3" in="00:06:00.700" out="00:06:05.167">
   <property name="kdenlive:id">582</property>
  </entry>
  <blank length="00:00:00.700"/>
  <entry producer="chain3" in="00:06:09.250" out="00:06:11.717">
   <property name="kdenlive:id">582</property>
  </entry>
  <blank length="00:00:00.800"/>
  <entry producer="chain3" in="00:06:22.983" out="00:06:25.950">
   <property name="kdenlive:id">582</property>
  </entry>
  <blank length="00:00:00.217"/>
  <entry producer="chain3" in="00:06:26.883" out="00:06:29.400">
   <property name="kdenlive:id">582</property>
  </entry>
  <blank length="00:00:00.283"/>
  <entry producer="chain3" in="00:06:29.917" out="00:06:33.383">
   <property name="kdenlive:id">582</property>
  </entry>
  <blank length="00:00:00.233"/>
  <entry producer="chain3" in="00:06:36.283" out="00:06:41.983">
   <property name="kdenlive:id">582</property>
  </entry>
  <blank length="00:00:00.767"/>
  <entry producer="chain3" in="00:06:42.767" out="00:06:53.667">
   <property name="kdenlive:id">582</property>
  </entry>
  <blank length="00:00:00.983"/>
  <entry producer="chain3" in="00:06:55.067" out="00:06:55.967">
   <property name="kdenlive:id">582</property>
  </entry>
  <entry producer="chain3" in="00:06:56.283" out="00:06:57.683">
   <property name="kdenlive:id">582</property>
  </entry>
  <entry producer="chain3" in="00:07:05.500" out="00:07:08.583">
   <property name="kdenlive:id">582</property>
  </entry>
  <blank length="00:00:01.300"/>
  <entry producer="chain3" in="00:07:10.467" out="00:07:16.533">
   <property name="kdenlive:id">582</property>
  </entry>
  <blank length="00:00:01.033"/>
  <entry producer="chain3" in="00:07:17.583" out="00:07:21.850">
   <property name="kdenlive:id">582</property>
  </entry>
  <entry producer="chain3" in="00:07:22.250" out="00:07:26.883">
   <property name="kdenlive:id">582</property>
  </entry>
  <blank length="00:00:01.033"/>
  <entry producer="chain3" in="00:07:28.150" out="00:07:38.917">
   <property name="kdenlive:id">582</property>
  </entry>
  <blank length="00:00:00.817"/>
  <entry producer="chain3" in="00:07:39.750" out="00:07:40.267">
   <property name="kdenlive:id">582</property>
  </entry>
  <entry producer="chain3" in="00:07:40.283" out="00:07:45.083">
   <property name="kdenlive:id">582</property>
  </entry>
  <blank length="00:00:00.933"/>
  <entry producer="chain3" in="00:07:46.300" out="00:07:55.383">
   <property name="kdenlive:id">582</property>
  </entry>
  <blank length="00:00:00.917"/>
  <entry producer="chain3" in="00:07:56.333" out="00:07:56.867">
   <property name="kdenlive:id">582</property>
  </entry>
  <blank length="00:00:00.200"/>
  <entry producer="chain3" in="00:07:57.083" out="00:08:05.683">
   <property name="kdenlive:id">582</property>
  </entry>
  <blank length="00:00:01.200"/>
  <entry producer="chain3" in="00:08:29.217" out="00:08:37.600">
   <property name="kdenlive:id">582</property>
  </entry>
  <blank length="00:00:00.733"/>
  <entry producer="chain3" in="00:08:41.667" out="00:08:50.333">
   <property name="kdenlive:id">582</property>
  </entry>
  <blank length="00:00:00.583"/>
  <entry producer="chain3" in="00:08:57.900" out="00:09:04.000">
   <property name="kdenlive:id">582</property>
  </entry>
  <blank length="00:00:00.733"/>
  <entry producer="chain3" in="00:09:17.983" out="00:09:24.650">
   <property name="kdenlive:id">582</property>
  </entry>
  <blank length="00:00:00.500"/>
  <entry producer="chain3" in="00:09:25.167" out="00:09:33.433">
   <property name="kdenlive:id">582</property>
  </entry>
  <blank length="00:00:00.517"/>
  <entry producer="chain3" in="00:09:33.450" out="00:09:33.650">
   <property name="kdenlive:id">582</property>
  </entry>
  <entry producer="chain3" in="00:09:34.483" out="00:09:40.133">
   <property name="kdenlive:id">582</property>
  </entry>
  <entry producer="chain3" in="00:09:42.383" out="00:09:44.017">
   <property name="kdenlive:id">582</property>
  </entry>
  <blank length="00:00:01.000"/>
  <entry producer="chain3" in="00:09:44.033" out="00:09:44.350">
   <property name="kdenlive:id">582</property>
  </entry>
  <entry producer="chain3" in="00:09:50.617" out="00:09:51.900">
   <property name="kdenlive:id">582</property>
  </entry>
  <blank length="00:00:00.733"/>
  <entry producer="chain3" in="00:09:51.917" out="00:09:53.983">
   <property name="kdenlive:id">582</property>
  </entry>
  <blank length="00:00:01.233"/>
  <entry producer="chain3" in="00:09:58.117" out="00:09:59.500">
   <property name="kdenlive:id">582</property>
  </entry>
  <entry producer="chain3" in="00:09:59.517" out="00:10:04.267">
   <property name="kdenlive:id">582</property>
  </entry>
  <entry producer="chain3" in="00:10:09.017" out="00:10:12.283">
   <property name="kdenlive:id">582</property>
  </entry>
  <blank length="00:00:01.233"/>
  <entry producer="chain3" in="00:10:13.533" out="00:10:21.633">
   <property name="kdenlive:id">582</property>
  </entry>
  <blank length="00:00:00.817"/>
  <entry producer="chain3" in="00:10:22.467" out="00:10:23.717">
   <property name="kdenlive:id">582</property>
  </entry>
  <entry producer="chain3" in="00:10:29.900" out="00:10:31.767">
   <property name="kdenlive:id">582</property>
  </entry>
  <blank length="00:00:00.417"/>
  <entry producer="chain3" in="00:10:31.783" out="00:10:31.867">
   <property name="kdenlive:id">582</property>
  </entry>
  <entry producer="chain3" in="00:10:32.633" out="00:10:36.367">
   <property name="kdenlive:id">582</property>
  </entry>
  <blank length="00:00:00.433"/>
  <entry producer="chain3" in="00:10:36.383" out="00:10:36.567">
   <property name="kdenlive:id">582</property>
  </entry>
  <entry producer="chain3" in="00:10:37.417" out="00:10:46.467">
   <property name="kdenlive:id">582</property>
  </entry>
  <blank length="00:00:05.650"/>
  <entry producer="chain3" in="00:10:48.983" out="00:10:52.750">
   <property name="kdenlive:id">582</property>
  </entry>
  <blank length="00:00:00.750"/>
  <entry producer="chain3" in="00:10:53.517" out="00:10:58.350">
   <property name="kdenlive:id">582</property>
  </entry>
  <entry producer="chain3" in="00:10:59.900" out="00:11:00.867">
   <property name="kdenlive:id">582</property>
  </entry>
  <blank length="00:00:01.633"/>
  <entry producer="chain3" in="00:11:02.517" out="00:11:09.917">
   <property name="kdenlive:id">582</property>
  </entry>
  <entry producer="chain3" in="00:11:10.217" out="00:11:11.650">
   <property name="kdenlive:id">582</property>
  </entry>
  <blank length="00:00:01.133"/>
  <entry producer="chain3" in="00:11:12.800" out="00:11:19.717">
   <property name="kdenlive:id">582</property>
  </entry>
  <blank length="00:00:03.067"/>
  <entry producer="chain3" in="00:11:20.433" out="00:11:21.917">
   <property name="kdenlive:id">582</property>
  </entry>
  <entry producer="chain3" in="00:11:22.250" out="00:11:26.133">
   <property name="kdenlive:id">582</property>
  </entry>
  <entry producer="chain3" in="00:11:26.417" out="00:11:27.417">
   <property name="kdenlive:id">582</property>
  </entry>
  <entry producer="chain3" in="00:11:33.900" out="00:11:43.083">
   <property name="kdenlive:id">582</property>
  </entry>
  <entry producer="chain3" in="00:11:47.400" out="00:11:50.450">
   <property name="kdenlive:id">582</property>
  </entry>
  <blank length="00:00:02.050"/>
  <entry producer="chain4" in="00:00:01.333" out="00:00:11.217">
   <property name="kdenlive:id">584</property>
  </entry>
  <blank length="00:00:01.200"/>
  <entry producer="chain4" in="00:00:12.283" out="00:00:16.383">
   <property name="kdenlive:id">584</property>
  </entry>
  <blank length="00:00:01.150"/>
  <entry producer="chain4" in="00:00:17.933" out="00:00:25.983">
   <property name="kdenlive:id">584</property>
  </entry>
  <entry producer="chain4" in="00:00:29.850" out="00:00:32.400">
   <property name="kdenlive:id">584</property>
  </entry>
  <blank length="00:00:00.850"/>
  <entry producer="chain4" in="00:00:41.600" out="00:00:44.800">
   <property name="kdenlive:id">584</property>
  </entry>
  <entry producer="chain4" in="00:00:46.000" out="00:00:52.017">
   <property name="kdenlive:id">584</property>
  </entry>
  <entry producer="chain4" in="00:00:55.267" out="00:00:57.933">
   <property name="kdenlive:id">584</property>
  </entry>
  <entry producer="chain4" in="00:01:06.500" out="00:01:13.700">
   <property name="kdenlive:id">584</property>
  </entry>
  <entry producer="chain4" in="00:01:13.883" out="00:01:21.400">
   <property name="kdenlive:id">584</property>
  </entry>
  <blank length="00:00:01.183"/>
  <entry producer="chain4" in="00:01:22.867" out="00:01:27.433">
   <property name="kdenlive:id">584</property>
  </entry>
  <blank length="00:00:00.867"/>
  <entry producer="chain4" in="00:01:27.817" out="00:01:31.450">
   <property name="kdenlive:id">584</property>
  </entry>
  <blank length="00:00:00.600"/>
  <entry producer="chain4" in="00:01:32.467" out="00:01:36.817">
   <property name="kdenlive:id">584</property>
  </entry>
  <entry producer="chain4" in="00:01:39.967" out="00:01:42.000">
   <property name="kdenlive:id">584</property>
  </entry>
  <blank length="00:00:00.600"/>
  <entry producer="chain4" in="00:01:42.683" out="00:01:45.967">
   <property name="kdenlive:id">584</property>
  </entry>
  <entry producer="chain4" in="00:02:18.833" out="00:02:23.167">
   <property name="kdenlive:id">584</property>
  </entry>
  <blank length="00:00:00.700"/>
  <entry producer="chain4" in="00:02:23.883" out="00:02:30.367">
   <property name="kdenlive:id">584</property>
  </entry>
  <blank length="00:00:00.983"/>
  <entry producer="chain4" in="00:02:34.033" out="00:02:40.200">
   <property name="kdenlive:id">584</property>
  </entry>
  <blank length="00:00:00.167"/>
  <entry producer="chain4" in="00:02:41.750" out="00:02:44.833">
   <property name="kdenlive:id">584</property>
  </entry>
  <entry producer="chain4" in="00:02:47.433" out="00:02:47.867">
   <property name="kdenlive:id">584</property>
  </entry>
  <entry producer="chain4" in="00:02:48.917" out="00:02:51.217">
   <property name="kdenlive:id">584</property>
  </entry>
  <entry producer="chain4" in="00:02:53.350" out="00:02:54.783">
   <property name="kdenlive:id">584</property>
  </entry>
  <blank length="00:00:01.200"/>
  <entry producer="chain4" in="00:02:57.383" out="00:03:07.767">
   <property name="kdenlive:id">584</property>
  </entry>
  <blank length="00:00:00.900"/>
  <entry producer="chain4" in="00:03:08.800" out="00:03:11.250">
   <property name="kdenlive:id">584</property>
  </entry>
  <blank length="00:00:00.117"/>
  <entry producer="chain4" in="00:03:11.383" out="00:03:20.000">
   <property name="kdenlive:id">584</property>
  </entry>
  <blank length="00:00:01.100"/>
  <entry producer="chain4" in="00:03:21.450" out="00:03:28.833">
   <property name="kdenlive:id">584</property>
  </entry>
  <blank length="00:00:01.033"/>
  <entry producer="chain4" in="00:03:29.883" out="00:03:36.633">
   <property name="kdenlive:id">584</property>
  </entry>
  <entry producer="chain4" in="00:03:42.350" out="00:03:43.867">
   <property name="kdenlive:id">584</property>
  </entry>
  <blank length="00:00:01.883"/>
  <entry producer="chain5" in="00:00:03.767" out="00:00:09.767">
   <property name="kdenlive:id">586</property>
  </entry>
  <blank length="00:00:01.000"/>
  <entry producer="chain5" in="00:00:10.783" out="00:00:18.000">
   <property name="kdenlive:id">586</property>
  </entry>
  <blank length="00:00:00.900"/>
  <entry producer="chain5" in="00:00:18.917" out="00:00:24.617">
   <property name="kdenlive:id">586</property>
  </entry>
  <blank length="00:00:00.900"/>
  <entry producer="chain5" in="00:00:25.533" out="00:00:34.883">
   <property name="kdenlive:id">586</property>
  </entry>
  <blank length="00:00:00.917"/>
  <entry producer="chain5" in="00:00:36.267" out="00:00:41.517">
   <property name="kdenlive:id">586</property>
  </entry>
  <blank length="00:00:01.383"/>
  <entry producer="chain5" in="00:00:42.633" out="00:00:52.383">
   <property name="kdenlive:id">586</property>
  </entry>
  <blank length="00:00:01.583"/>
  <entry producer="chain5" in="00:01:45.767" out="00:01:51.667">
   <property name="kdenlive:id">586</property>
  </entry>
  <blank length="00:00:01.200"/>
  <entry producer="chain5" in="00:01:56.117" out="00:02:02.950">
   <property name="kdenlive:id">586</property>
  </entry>
  <blank length="00:00:01.133"/>
  <entry producer="chain5" in="00:02:26.267" out="00:02:29.850">
   <property name="kdenlive:id">586</property>
  </entry>
  <entry producer="chain5" in="00:02:33.083" out="00:02:37.200">
   <property name="kdenlive:id">586</property>
  </entry>
  <blank length="00:00:01.117"/>
  <entry producer="chain5" in="00:02:44.217" out="00:02:52.283">
   <property name="kdenlive:id">586</property>
  </entry>
  <blank length="00:00:00.950"/>
  <entry producer="chain5" in="00:03:00.900" out="00:03:06.850">
   <property name="kdenlive:id">586</property>
  </entry>
  <blank length="00:00:00.467"/>
  <entry producer="chain5" in="00:03:08.833" out="00:03:13.467">
   <property name="kdenlive:id">586</property>
  </entry>
  <blank length="00:00:00.850"/>
  <entry producer="chain5" in="00:03:16.117" out="00:03:25.850">
   <property name="kdenlive:id">586</property>
  </entry>
  <blank length="00:00:00.783"/>
  <entry producer="chain5" in="00:03:27.233" out="00:03:37.183">
   <property name="kdenlive:id">586</property>
  </entry>
  <blank length="00:00:00.867"/>
  <entry producer="chain5" in="00:03:57.350" out="00:03:59.800">
   <property name="kdenlive:id">586</property>
  </entry>
  <entry producer="chain5" in="00:03:59.817" out="00:04:06.067">
   <property name="kdenlive:id">586</property>
  </entry>
  <blank length="00:00:00.383"/>
  <entry producer="chain5" in="00:04:14.583" out="00:04:18.783">
   <property name="kdenlive:id">586</property>
  </entry>
  <blank length="00:00:01.150"/>
  <entry producer="chain5" in="00:04:19.950" out="00:04:25.550">
   <property name="kdenlive:id">586</property>
  </entry>
  <blank length="00:00:01.717"/>
  <entry producer="chain5" in="00:04:30.550" out="00:04:37.283">
   <property name="kdenlive:id">586</property>
  </entry>
  <entry producer="chain5" in="00:04:43.433" out="00:04:47.083">
   <property name="kdenlive:id">586</property>
  </entry>
  <blank length="00:00:01.300"/>
  <entry producer="chain5" in="00:04:47.100" out="00:04:47.183">
   <property name="kdenlive:id">586</property>
  </entry>
  <entry producer="chain6" in="00:00:01.667" out="00:00:12.633">
   <property name="kdenlive:id">588</property>
  </entry>
  <blank length="00:00:00.833"/>
  <entry producer="chain6" in="00:00:12.650" out="00:00:12.917">
   <property name="kdenlive:id">588</property>
  </entry>
  <entry producer="chain6" in="00:00:14.033" out="00:00:17.117">
   <property name="kdenlive:id">588</property>
  </entry>
  <entry producer="chain6" in="00:00:20.867" out="00:00:23.483">
   <property name="kdenlive:id">588</property>
  </entry>
  <blank length="00:00:00.500"/>
  <entry producer="chain6" in="00:00:24.450" out="00:00:32.833">
   <property name="kdenlive:id">588</property>
  </entry>
  <blank length="00:00:00.867"/>
  <entry producer="chain6" in="00:00:32.850" out="00:00:32.883">
   <property name="kdenlive:id">588</property>
  </entry>
  <entry producer="chain6" in="00:00:34.433" out="00:00:42.200">
   <property name="kdenlive:id">588</property>
  </entry>
  <blank length="00:00:01.117"/>
  <entry producer="chain6" in="00:00:45.533" out="00:00:51.483">
   <property name="kdenlive:id">588</property>
  </entry>
  <blank length="00:00:01.333"/>
  <entry producer="chain6" in="00:00:53.200" out="00:00:55.000">
   <property name="kdenlive:id">588</property>
  </entry>
  <entry producer="chain6" in="00:00:55.467" out="00:01:00.450">
   <property name="kdenlive:id">588</property>
  </entry>
  <blank length="00:00:00.617"/>
  <entry producer="chain6" in="00:01:02.933" out="00:01:09.417">
   <property name="kdenlive:id">588</property>
  </entry>
  <entry producer="chain6" in="00:01:12.167" out="00:01:19.183">
   <property name="kdenlive:id">588</property>
  </entry>
 </playlist>
 <playlist id="playlist3">
  <property name="kdenlive:audio_track">1</property>
 </playlist>
 <tractor id="tractor1" in="00:00:00.000" out="00:18:00.883">
  <property name="kdenlive:audio_track">1</property>
  <property name="kdenlive:trackheight">67</property>
  <property name="kdenlive:timeline_active">1</property>
  <property name="kdenlive:collapsed">0</property>
  <property name="kdenlive:thumbs_format"/>
  <property name="kdenlive:audio_rec"/>
  <track hide="video" producer="playlist2"/>
  <track hide="video" producer="playlist3"/>
  <filter id="filter5">
   <property name="window">75</property>
   <property name="max_gain">20dB</property>
   <property name="level">8.61653</property>
   <property name="mlt_service">volume</property>
   <property name="internal_added">237</property>
   <property name="disable">0</property>
  </filter>
  <filter id="filter6">
   <property name="channel">-1</property>
   <property name="mlt_service">panner</property>
   <property name="internal_added">237</property>
   <property name="start">0.5</property>
   <property name="disable">1</property>
  </filter>
  <filter id="filter7">
   <property name="iec_scale">0</property>
   <property name="mlt_service">audiolevel</property>
   <property name="dbpeak">1</property>
   <property name="disable">1</property>
  </filter>
 </tractor>
 <producer id="producer1" in="00:00:00.000" out="00:19:13.017">
  <property name="length">69182</property>
  <property name="eof">pause</property>
  <property name="resource">assets/green.png</property>
  <property name="ttl">25</property>
  <property name="aspect_ratio">1</property>
  <property name="progressive">1</property>
  <property name="seekable">1</property>
  <property name="format">2</property>
  <property name="meta.media.width">323</property>
  <property name="meta.media.height">323</property>
  <property name="mlt_service">qimage</property>
  <property name="kdenlive:clipname"/>
  <property name="kdenlive:duration">00:00:05:00</property>
  <property name="kdenlive:folderid">597</property>
  <property name="kdenlive:id">603</property>
  <property name="kdenlive:clip_type">2</property>
  <property name="kdenlive:file_size">1265</property>
  <property name="kdenlive:file_hash">2943e97da7fed77032f8cf7b387d37a6</property>
 </producer>
 <playlist id="playlist4">
  <blank length="00:00:07.317"/>
  <entry producer="producer1" in="00:00:00.000" out="00:17:53.567">
   <property name="kdenlive:id">603</property>
   <filter id="filter8">
    <property name="rotate_center">1</property>
    <property name="mlt_service">qtblend</property>
    <property name="kdenlive_id">qtblend</property>
    <property name="rect">00:00:00.000=-3840 -2160 9600 5400 1.000000</property>
    <property name="rotation">00:00:00.000=0</property>
    <property name="compositing">0</property>
    <property name="distort">0</property>
    <property name="kdenlive:collapsed">0</property>
   </filter>
  </entry>
 </playlist>
 <playlist id="playlist5"/>
 <tractor id="tractor2" in="00:00:00.000" out="00:18:00.883">
  <property name="kdenlive:trackheight">67</property>
  <property name="kdenlive:timeline_active">1</property>
  <property name="kdenlive:locked_track"/>
  <track producer="playlist4"/>
  <track producer="playlist5"/>
 </tractor>
 <chain id="chain7" out="00:00:01.483">
  <property name="length">90</property>
  <property name="eof">pause</property>
  <property name="resource">/home/xiaoxiae/.cache/kdenlive/proxy/6f5f333009000a1e8d5ca36be1468cf6.mkv</property>
  <property name="mlt_service">avformat-novalidate</property>
  <property name="seekable">1</property>
  <property name="format">3</property>
  <property name="audio_index">-1</property>
  <property name="video_index">0</property>
  <property name="kdenlive:clipname">1.mp4</property>
  <property name="kdenlive:clip_type">2</property>
  <property name="kdenlive:folderid">196</property>
  <property name="kdenlive:id">197</property>
  <property name="mute_on_pause">0</property>
  <property name="kdenlive:file_size">119680</property>
  <property name="kdenlive:file_hash">6f5f333009000a1e8d5ca36be1468cf6</property>
  <property name="kdenlive:proxy">/home/xiaoxiae/.cache/kdenlive/proxy/6f5f333009000a1e8d5ca36be1468cf6.mkv</property>
  <property name="kdenlive:originalurl">video/Intro/1.mp4</property>
  <property name="kdenlive:original.mlt_type">chain</property>
  <property name="kdenlive:original.in">0</property>
  <property name="kdenlive:original.out">00:00:01.483</property>
  <property name="kdenlive:original.length">90</property>
  <property name="kdenlive:original.eof">pause</property>
  <property name="kdenlive:original.resource">video/Intro/1.mp4</property>
  <property name="kdenlive:original.mlt_service">avformat-novalidate</property>
  <property name="kdenlive:original.meta.media.nb_streams">1</property>
  <property name="kdenlive:original.meta.media.0.stream.type">video</property>
  <property name="kdenlive:original.meta.media.0.stream.frame_rate">60</property>
  <property name="kdenlive:original.meta.media.0.stream.sample_aspect_ratio">0</property>
  <property name="kdenlive:original.meta.media.0.codec.width">1920</property>
  <property name="kdenlive:original.meta.media.0.codec.height">1080</property>
  <property name="kdenlive:original.meta.media.0.codec.rotate">0</property>
  <property name="kdenlive:original.meta.media.0.codec.pix_fmt">yuv420p</property>
  <property name="kdenlive:original.meta.media.0.codec.sample_aspect_ratio">0</property>
  <property name="kdenlive:original.meta.media.0.codec.colorspace">709</property>
  <property name="kdenlive:original.meta.media.0.codec.name">h264</property>
  <property name="kdenlive:original.meta.media.0.codec.long_name">H.264 / AVC / MPEG-4 AVC / MPEG-4 part 10</property>
  <property name="kdenlive:original.meta.media.0.codec.bit_rate">627712</property>
  <property name="kdenlive:original.meta.attr.0.stream.handler_name.markup">VideoHandler</property>
  <property name="kdenlive:original.meta.attr.0.stream.vendor_id.markup">[0][0][0][0]</property>
  <property name="kdenlive:original.meta.attr.0.stream.encoder.markup">Lavc60.3.100 libx264</property>
  <property name="kdenlive:original.meta.attr.major_brand.markup">isom</property>
  <property name="kdenlive:original.meta.attr.minor_version.markup">512</property>
  <property name="kdenlive:original.meta.attr.compatible_brands.markup">isomiso2avc1mp41</property>
  <property name="kdenlive:original.meta.attr.encoder.markup">Lavf60.3.100</property>
  <property name="kdenlive:original.meta.attr.comment.markup">Rendered with Manim Community v0.17.3</property>
  <property name="kdenlive:original.seekable">1</property>
  <property name="kdenlive:original.width">1920</property>
  <property name="kdenlive:original.height">1080</property>
  <property name="kdenlive:original.meta.media.sample_aspect_num">1</property>
  <property name="kdenlive:original.meta.media.sample_aspect_den">1</property>
  <property name="kdenlive:original.format">3</property>
  <property name="kdenlive:original.audio_index">-1</property>
  <property name="kdenlive:original.video_index">0</property>
  <property name="kdenlive:original.meta.media.frame_rate_num">60</property>
  <property name="kdenlive:original.meta.media.frame_rate_den">1</property>
  <property name="kdenlive:original.meta.media.colorspace">709</property>
  <property name="kdenlive:original.meta.media.color_trc">2</property>
  <property name="kdenlive:original.meta.media.has_b_frames">2</property>
  <property name="kdenlive:original.meta.media.width">1920</property>
  <property name="kdenlive:original.meta.media.height">1080</property>
  <property name="kdenlive:original.meta.media.color_range">mpeg</property>
  <property name="kdenlive:original.meta.media.top_field_first">0</property>
  <property name="kdenlive:original.meta.media.progressive">1</property>
  <property name="kdenlive:original.kdenlive:clip_type">2</property>
  <property name="kdenlive:original.kdenlive:folderid">196</property>
  <property name="kdenlive:original.kdenlive:id">197</property>
  <property name="kdenlive:original.mute_on_pause">0</property>
  <property name="kdenlive:original.kdenlive:file_size">119680</property>
  <property name="kdenlive:original.kdenlive:file_hash">6f5f333009000a1e8d5ca36be1468cf6</property>
  <property name="kdenlive:original.backup">1</property>
  <property name="meta.media.nb_streams">1</property>
  <property name="meta.media.0.stream.type">video</property>
  <property name="meta.media.0.stream.frame_rate">60</property>
  <property name="meta.media.0.stream.sample_aspect_ratio">0</property>
  <property name="meta.media.0.codec.width">640</property>
  <property name="meta.media.0.codec.height">360</property>
  <property name="meta.media.0.codec.rotate">0</property>
  <property name="meta.media.0.codec.pix_fmt">yuvj420p</property>
  <property name="meta.media.0.codec.sample_aspect_ratio">0</property>
  <property name="meta.media.0.codec.colorspace">601</property>
  <property name="meta.media.0.codec.name">mjpeg</property>
  <property name="meta.media.0.codec.long_name">MJPEG (Motion JPEG)</property>
  <property name="meta.media.0.codec.bit_rate">0</property>
  <property name="meta.attr.0.stream.HANDLER_NAME.markup">VideoHandler</property>
  <property name="meta.attr.0.stream.VENDOR_ID.markup">[0][0][0][0]</property>
  <property name="meta.attr.0.stream.ENCODER.markup">Lavc60.3.100 mjpeg</property>
  <property name="meta.attr.0.stream.DURATION.markup">00:00:01.500000000</property>
  <property name="meta.attr.COMMENT.markup">Rendered with Manim Community v0.17.3</property>
  <property name="meta.attr.MAJOR_BRAND.markup">isom</property>
  <property name="meta.attr.MINOR_VERSION.markup">512</property>
  <property name="meta.attr.COMPATIBLE_BRANDS.markup">isomiso2avc1mp41</property>
  <property name="meta.attr.ENCODER.markup">Lavf60.3.100</property>
  <property name="meta.media.sample_aspect_num">1</property>
  <property name="meta.media.sample_aspect_den">1</property>
  <property name="meta.media.frame_rate_num">60</property>
  <property name="meta.media.frame_rate_den">1</property>
  <property name="meta.media.colorspace">601</property>
  <property name="meta.media.color_trc">2</property>
  <property name="meta.media.has_b_frames">0</property>
  <property name="meta.media.width">640</property>
  <property name="meta.media.height">360</property>
  <property name="meta.media.color_range">full</property>
  <property name="xml">was here</property>
  <property name="meta.media.top_field_first">0</property>
  <property name="meta.media.progressive">1</property>
  <property name="set.test_audio">1</property>
  <property name="set.test_image">0</property>
 </chain>
 <chain id="chain8" out="00:00:01.483">
  <property name="length">90</property>
  <property name="eof">pause</property>
  <property name="resource">/home/xiaoxiae/.cache/kdenlive/proxy/6506564afce6a5f6f4672f68f022d12c.mkv</property>
  <property name="mlt_service">avformat-novalidate</property>
  <property name="seekable">1</property>
  <property name="format">3</property>
  <property name="audio_index">-1</property>
  <property name="video_index">0</property>
  <property name="kdenlive:clipname">2.mp4</property>
  <property name="kdenlive:clip_type">2</property>
  <property name="kdenlive:folderid">196</property>
  <property name="kdenlive:id">198</property>
  <property name="mute_on_pause">0</property>
  <property name="kdenlive:file_size">340340</property>
  <property name="kdenlive:file_hash">6506564afce6a5f6f4672f68f022d12c</property>
  <property name="kdenlive:proxy">/home/xiaoxiae/.cache/kdenlive/proxy/6506564afce6a5f6f4672f68f022d12c.mkv</property>
  <property name="kdenlive:originalurl">video/Intro/2.mp4</property>
  <property name="kdenlive:original.mlt_type">chain</property>
  <property name="kdenlive:original.in">0</property>
  <property name="kdenlive:original.out">00:00:01.483</property>
  <property name="kdenlive:original.length">90</property>
  <property name="kdenlive:original.eof">pause</property>
  <property name="kdenlive:original.resource">video/Intro/2.mp4</property>
  <property name="kdenlive:original.mlt_service">avformat-novalidate</property>
  <property name="kdenlive:original.meta.media.nb_streams">1</property>
  <property name="kdenlive:original.meta.media.0.stream.type">video</property>
  <property name="kdenlive:original.meta.media.0.stream.frame_rate">60</property>
  <property name="kdenlive:original.meta.media.0.stream.sample_aspect_ratio">0</property>
  <property name="kdenlive:original.meta.media.0.codec.width">1920</property>
  <property name="kdenlive:original.meta.media.0.codec.height">1080</property>
  <property name="kdenlive:original.meta.media.0.codec.rotate">0</property>
  <property name="kdenlive:original.meta.media.0.codec.pix_fmt">yuv420p</property>
  <property name="kdenlive:original.meta.media.0.codec.sample_aspect_ratio">0</property>
  <property name="kdenlive:original.meta.media.0.codec.colorspace">709</property>
  <property name="kdenlive:original.meta.media.0.codec.name">h264</property>
  <property name="kdenlive:original.meta.media.0.codec.long_name">H.264 / AVC / MPEG-4 AVC / MPEG-4 part 10</property>
  <property name="kdenlive:original.meta.media.0.codec.bit_rate">1805717</property>
  <property name="kdenlive:original.meta.attr.0.stream.handler_name.markup">VideoHandler</property>
  <property name="kdenlive:original.meta.attr.0.stream.vendor_id.markup">[0][0][0][0]</property>
  <property name="kdenlive:original.meta.attr.0.stream.encoder.markup">Lavc60.3.100 libx264</property>
  <property name="kdenlive:original.meta.attr.major_brand.markup">isom</property>
  <property name="kdenlive:original.meta.attr.minor_version.markup">512</property>
  <property name="kdenlive:original.meta.attr.compatible_brands.markup">isomiso2avc1mp41</property>
  <property name="kdenlive:original.meta.attr.encoder.markup">Lavf60.3.100</property>
  <property name="kdenlive:original.meta.attr.comment.markup">Rendered with Manim Community v0.17.3</property>
  <property name="kdenlive:original.seekable">1</property>
  <property name="kdenlive:original.width">1920</property>
  <property name="kdenlive:original.height">1080</property>
  <property name="kdenlive:original.meta.media.sample_aspect_num">1</property>
  <property name="kdenlive:original.meta.media.sample_aspect_den">1</property>
  <property name="kdenlive:original.format">3</property>
  <property name="kdenlive:original.audio_index">-1</property>
  <property name="kdenlive:original.video_index">0</property>
  <property name="kdenlive:original.meta.media.frame_rate_num">60</property>
  <property name="kdenlive:original.meta.media.frame_rate_den">1</property>
  <property name="kdenlive:original.meta.media.colorspace">709</property>
  <property name="kdenlive:original.meta.media.color_trc">2</property>
  <property name="kdenlive:original.meta.media.has_b_frames">2</property>
  <property name="kdenlive:original.meta.media.width">1920</property>
  <property name="kdenlive:original.meta.media.height">1080</property>
  <property name="kdenlive:original.meta.media.color_range">mpeg</property>
  <property name="kdenlive:original.meta.media.top_field_first">0</property>
  <property name="kdenlive:original.meta.media.progressive">1</property>
  <property name="kdenlive:original.kdenlive:clip_type">2</property>
  <property name="kdenlive:original.kdenlive:folderid">196</property>
  <property name="kdenlive:original.kdenlive:id">198</property>
  <property name="kdenlive:original.mute_on_pause">0</property>
  <property name="kdenlive:original.kdenlive:file_size">340340</property>
  <property name="kdenlive:original.kdenlive:file_hash">6506564afce6a5f6f4672f68f022d12c</property>
  <property name="kdenlive:original.backup">1</property>
  <property name="meta.media.nb_streams">1</property>
  <property name="meta.media.0.stream.type">video</property>
  <property name="meta.media.0.stream.frame_rate">60</property>
  <property name="meta.media.0.stream.sample_aspect_ratio">0</property>
  <property name="meta.media.0.codec.width">640</property>
  <property name="meta.media.0.codec.height">360</property>
  <property name="meta.media.0.codec.rotate">0</property>
  <property name="meta.media.0.codec.pix_fmt">yuvj420p</property>
  <property name="meta.media.0.codec.sample_aspect_ratio">0</property>
  <property name="meta.media.0.codec.colorspace">601</property>
  <property name="meta.media.0.codec.name">mjpeg</property>
  <property name="meta.media.0.codec.long_name">MJPEG (Motion JPEG)</property>
  <property name="meta.media.0.codec.bit_rate">0</property>
  <property name="meta.attr.0.stream.HANDLER_NAME.markup">VideoHandler</property>
  <property name="meta.attr.0.stream.VENDOR_ID.markup">[0][0][0][0]</property>
  <property name="meta.attr.0.stream.ENCODER.markup">Lavc60.3.100 mjpeg</property>
  <property name="meta.attr.0.stream.DURATION.markup">00:00:01.500000000</property>
  <property name="meta.attr.COMMENT.markup">Rendered with Manim Community v0.17.3</property>
  <property name="meta.attr.MAJOR_BRAND.markup">isom</property>
  <property name="meta.attr.MINOR_VERSION.markup">512</property>
  <property name="meta.attr.COMPATIBLE_BRANDS.markup">isomiso2avc1mp41</property>
  <property name="meta.attr.ENCODER.markup">Lavf60.3.100</property>
  <property name="meta.media.sample_aspect_num">1</property>
  <property name="meta.media.sample_aspect_den">1</property>
  <property name="meta.media.frame_rate_num">60</property>
  <property name="meta.media.frame_rate_den">1</property>
  <property name="meta.media.colorspace">601</property>
  <property name="meta.media.color_trc">2</property>
  <property name="meta.media.has_b_frames">0</property>
  <property name="meta.media.width">640</property>
  <property name="meta.media.height">360</property>
  <property name="meta.media.color_range">full</property>
  <property name="xml">was here</property>
  <property name="meta.media.top_field_first">0</property>
  <property name="meta.media.progressive">1</property>
  <property name="set.test_audio">1</property>
  <property name="set.test_image">0</property>
 </chain>
 <chain id="chain9" out="00:00:01.483">
  <property name="length">90</property>
  <property name="eof">pause</property>
  <property name="resource">/home/xiaoxiae/.cache/kdenlive/proxy/1095aa90f49a1b10507778e111eec21a.mkv</property>
  <property name="mlt_service">avformat-novalidate</property>
  <property name="seekable">1</property>
  <property name="format">3</property>
  <property name="audio_index">-1</property>
  <property name="video_index">0</property>
  <property name="kdenlive:clipname">3.mp4</property>
  <property name="kdenlive:clip_type">2</property>
  <property name="kdenlive:folderid">196</property>
  <property name="kdenlive:id">199</property>
  <property name="mute_on_pause">0</property>
  <property name="kdenlive:file_size">314953</property>
  <property name="kdenlive:file_hash">1095aa90f49a1b10507778e111eec21a</property>
  <property name="kdenlive:proxy">/home/xiaoxiae/.cache/kdenlive/proxy/1095aa90f49a1b10507778e111eec21a.mkv</property>
  <property name="kdenlive:originalurl">video/Intro/3.mp4</property>
  <property name="kdenlive:original.mlt_type">chain</property>
  <property name="kdenlive:original.in">0</property>
  <property name="kdenlive:original.out">00:00:01.483</property>
  <property name="kdenlive:original.length">90</property>
  <property name="kdenlive:original.eof">pause</property>
  <property name="kdenlive:original.resource">video/Intro/3.mp4</property>
  <property name="kdenlive:original.mlt_service">avformat-novalidate</property>
  <property name="kdenlive:original.meta.media.nb_streams">1</property>
  <property name="kdenlive:original.meta.media.0.stream.type">video</property>
  <property name="kdenlive:original.meta.media.0.stream.frame_rate">60</property>
  <property name="kdenlive:original.meta.media.0.stream.sample_aspect_ratio">0</property>
  <property name="kdenlive:original.meta.media.0.codec.width">1920</property>
  <property name="kdenlive:original.meta.media.0.codec.height">1080</property>
  <property name="kdenlive:original.meta.media.0.codec.rotate">0</property>
  <property name="kdenlive:original.meta.media.0.codec.pix_fmt">yuv420p</property>
  <property name="kdenlive:original.meta.media.0.codec.sample_aspect_ratio">0</property>
  <property name="kdenlive:original.meta.media.0.codec.colorspace">709</property>
  <property name="kdenlive:original.meta.media.0.codec.name">h264</property>
  <property name="kdenlive:original.meta.media.0.codec.long_name">H.264 / AVC / MPEG-4 AVC / MPEG-4 part 10</property>
  <property name="kdenlive:original.meta.media.0.codec.bit_rate">1670405</property>
  <property name="kdenlive:original.meta.attr.0.stream.handler_name.markup">VideoHandler</property>
  <property name="kdenlive:original.meta.attr.0.stream.vendor_id.markup">[0][0][0][0]</property>
  <property name="kdenlive:original.meta.attr.0.stream.encoder.markup">Lavc60.3.100 libx264</property>
  <property name="kdenlive:original.meta.attr.major_brand.markup">isom</property>
  <property name="kdenlive:original.meta.attr.minor_version.markup">512</property>
  <property name="kdenlive:original.meta.attr.compatible_brands.markup">isomiso2avc1mp41</property>
  <property name="kdenlive:original.meta.attr.encoder.markup">Lavf60.3.100</property>
  <property name="kdenlive:original.meta.attr.comment.markup">Rendered with Manim Community v0.17.3</property>
  <property name="kdenlive:original.seekable">1</property>
  <property name="kdenlive:original.width">1920</property>
  <property name="kdenlive:original.height">1080</property>
  <property name="kdenlive:original.meta.media.sample_aspect_num">1</property>
  <property name="kdenlive:original.meta.media.sample_aspect_den">1</property>
  <property name="kdenlive:original.format">3</property>
  <property name="kdenlive:original.audio_index">-1</property>
  <property name="kdenlive:original.video_index">0</property>
  <property name="kdenlive:original.meta.media.frame_rate_num">60</property>
  <property name="kdenlive:original.meta.media.frame_rate_den">1</property>
  <property name="kdenlive:original.meta.media.colorspace">709</property>
  <property name="kdenlive:original.meta.media.color_trc">2</property>
  <property name="kdenlive:original.meta.media.has_b_frames">2</property>
  <property name="kdenlive:original.meta.media.width">1920</property>
  <property name="kdenlive:original.meta.media.height">1080</property>
  <property name="kdenlive:original.meta.media.color_range">mpeg</property>
  <property name="kdenlive:original.meta.media.top_field_first">0</property>
  <property name="kdenlive:original.meta.media.progressive">1</property>
  <property name="kdenlive:original.kdenlive:clip_type">2</property>
  <property name="kdenlive:original.kdenlive:folderid">196</property>
  <property name="kdenlive:original.kdenlive:id">199</property>
  <property name="kdenlive:original.mute_on_pause">0</property>
  <property name="kdenlive:original.kdenlive:file_size">314953</property>
  <property name="kdenlive:original.kdenlive:file_hash">1095aa90f49a1b10507778e111eec21a</property>
  <property name="kdenlive:original.backup">1</property>
  <property name="meta.media.nb_streams">1</property>
  <property name="meta.media.0.stream.type">video</property>
  <property name="meta.media.0.stream.frame_rate">60</property>
  <property name="meta.media.0.stream.sample_aspect_ratio">0</property>
  <property name="meta.media.0.codec.width">640</property>
  <property name="meta.media.0.codec.height">360</property>
  <property name="meta.media.0.codec.rotate">0</property>
  <property name="meta.media.0.codec.pix_fmt">yuvj420p</property>
  <property name="meta.media.0.codec.sample_aspect_ratio">0</property>
  <property name="meta.media.0.codec.colorspace">601</property>
  <property name="meta.media.0.codec.name">mjpeg</property>
  <property name="meta.media.0.codec.long_name">MJPEG (Motion JPEG)</property>
  <property name="meta.media.0.codec.bit_rate">0</property>
  <property name="meta.attr.0.stream.HANDLER_NAME.markup">VideoHandler</property>
  <property name="meta.attr.0.stream.VENDOR_ID.markup">[0][0][0][0]</property>
  <property name="meta.attr.0.stream.ENCODER.markup">Lavc60.3.100 mjpeg</property>
  <property name="meta.attr.0.stream.DURATION.markup">00:00:01.500000000</property>
  <property name="meta.attr.COMMENT.markup">Rendered with Manim Community v0.17.3</property>
  <property name="meta.attr.MAJOR_BRAND.markup">isom</property>
  <property name="meta.attr.MINOR_VERSION.markup">512</property>
  <property name="meta.attr.COMPATIBLE_BRANDS.markup">isomiso2avc1mp41</property>
  <property name="meta.attr.ENCODER.markup">Lavf60.3.100</property>
  <property name="meta.media.sample_aspect_num">1</property>
  <property name="meta.media.sample_aspect_den">1</property>
  <property name="meta.media.frame_rate_num">60</property>
  <property name="meta.media.frame_rate_den">1</property>
  <property name="meta.media.colorspace">601</property>
  <property name="meta.media.color_trc">2</property>
  <property name="meta.media.has_b_frames">0</property>
  <property name="meta.media.width">640</property>
  <property name="meta.media.height">360</property>
  <property name="meta.media.color_range">full</property>
  <property name="xml">was here</property>
  <property name="meta.media.top_field_first">0</property>
  <property name="meta.media.progressive">1</property>
  <property name="set.test_audio">1</property>
  <property name="set.test_image">0</property>
 </chain>
 <chain id="chain10" out="00:00:00.983">
  <property name="length">60</property>
  <property name="eof">pause</property>
  <property name="resource">/home/xiaoxiae/.cache/kdenlive/proxy/9220ca1d39394146a9ae6a246aecce8f.mkv</property>
  <property name="mlt_service">avformat-novalidate</property>
  <property name="seekable">1</property>
  <property name="format">3</property>
  <property name="audio_index">-1</property>
  <property name="video_index">0</property>
  <property name="kdenlive:clipname">4.mp4</property>
  <property name="kdenlive:clip_type">2</property>
  <property name="kdenlive:folderid">196</property>
  <property name="kdenlive:id">200</property>
  <property name="mute_on_pause">0</property>
  <property name="kdenlive:file_size">450854</property>
  <property name="kdenlive:file_hash">9220ca1d39394146a9ae6a246aecce8f</property>
  <property name="kdenlive:proxy">/home/xiaoxiae/.cache/kdenlive/proxy/9220ca1d39394146a9ae6a246aecce8f.mkv</property>
  <property name="kdenlive:originalurl">video/Intro/4.mp4</property>
  <property name="kdenlive:original.mlt_type">chain</property>
  <property name="kdenlive:original.in">0</property>
  <property name="kdenlive:original.out">00:00:00.983</property>
  <property name="kdenlive:original.length">60</property>
  <property name="kdenlive:original.eof">pause</property>
  <property name="kdenlive:original.resource">video/Intro/4.mp4</property>
  <property name="kdenlive:original.mlt_service">avformat-novalidate</property>
  <property name="kdenlive:original.meta.media.nb_streams">1</property>
  <property name="kdenlive:original.meta.media.0.stream.type">video</property>
  <property name="kdenlive:original.meta.media.0.stream.frame_rate">60</property>
  <property name="kdenlive:original.meta.media.0.stream.sample_aspect_ratio">0</property>
  <property name="kdenlive:original.meta.media.0.codec.width">1920</property>
  <property name="kdenlive:original.meta.media.0.codec.height">1080</property>
  <property name="kdenlive:original.meta.media.0.codec.rotate">0</property>
  <property name="kdenlive:original.meta.media.0.codec.pix_fmt">yuv420p</property>
  <property name="kdenlive:original.meta.media.0.codec.sample_aspect_ratio">0</property>
  <property name="kdenlive:original.meta.media.0.codec.colorspace">709</property>
  <property name="kdenlive:original.meta.media.0.codec.name">h264</property>
  <property name="kdenlive:original.meta.media.0.codec.long_name">H.264 / AVC / MPEG-4 AVC / MPEG-4 part 10</property>
  <property name="kdenlive:original.meta.media.0.codec.bit_rate">3595312</property>
  <property name="kdenlive:original.meta.attr.0.stream.handler_name.markup">VideoHandler</property>
  <property name="kdenlive:original.meta.attr.0.stream.vendor_id.markup">[0][0][0][0]</property>
  <property name="kdenlive:original.meta.attr.0.stream.encoder.markup">Lavc60.3.100 libx264</property>
  <property name="kdenlive:original.meta.attr.major_brand.markup">isom</property>
  <property name="kdenlive:original.meta.attr.minor_version.markup">512</property>
  <property name="kdenlive:original.meta.attr.compatible_brands.markup">isomiso2avc1mp41</property>
  <property name="kdenlive:original.meta.attr.encoder.markup">Lavf60.3.100</property>
  <property name="kdenlive:original.meta.attr.comment.markup">Rendered with Manim Community v0.17.3</property>
  <property name="kdenlive:original.seekable">1</property>
  <property name="kdenlive:original.width">1920</property>
  <property name="kdenlive:original.height">1080</property>
  <property name="kdenlive:original.meta.media.sample_aspect_num">1</property>
  <property name="kdenlive:original.meta.media.sample_aspect_den">1</property>
  <property name="kdenlive:original.format">3</property>
  <property name="kdenlive:original.audio_index">-1</property>
  <property name="kdenlive:original.video_index">0</property>
  <property name="kdenlive:original.meta.media.frame_rate_num">60</property>
  <property name="kdenlive:original.meta.media.frame_rate_den">1</property>
  <property name="kdenlive:original.meta.media.colorspace">709</property>
  <property name="kdenlive:original.meta.media.color_trc">2</property>
  <property name="kdenlive:original.meta.media.has_b_frames">2</property>
  <property name="kdenlive:original.meta.media.width">1920</property>
  <property name="kdenlive:original.meta.media.height">1080</property>
  <property name="kdenlive:original.meta.media.color_range">mpeg</property>
  <property name="kdenlive:original.meta.media.top_field_first">0</property>
  <property name="kdenlive:original.meta.media.progressive">1</property>
  <property name="kdenlive:original.kdenlive:clip_type">2</property>
  <property name="kdenlive:original.kdenlive:folderid">196</property>
  <property name="kdenlive:original.kdenlive:id">200</property>
  <property name="kdenlive:original.mute_on_pause">0</property>
  <property name="kdenlive:original.kdenlive:file_size">450854</property>
  <property name="kdenlive:original.kdenlive:file_hash">9220ca1d39394146a9ae6a246aecce8f</property>
  <property name="kdenlive:original.backup">1</property>
  <property name="meta.media.nb_streams">1</property>
  <property name="meta.media.0.stream.type">video</property>
  <property name="meta.media.0.stream.frame_rate">60</property>
  <property name="meta.media.0.stream.sample_aspect_ratio">0</property>
  <property name="meta.media.0.codec.width">640</property>
  <property name="meta.media.0.codec.height">360</property>
  <property name="meta.media.0.codec.rotate">0</property>
  <property name="meta.media.0.codec.pix_fmt">yuvj420p</property>
  <property name="meta.media.0.codec.sample_aspect_ratio">0</property>
  <property name="meta.media.0.codec.colorspace">601</property>
  <property name="meta.media.0.codec.name">mjpeg</property>
  <property name="meta.media.0.codec.long_name">MJPEG (Motion JPEG)</property>
  <property name="meta.media.0.codec.bit_rate">0</property>
  <property name="meta.attr.0.stream.HANDLER_NAME.markup">VideoHandler</property>
  <property name="meta.attr.0.stream.VENDOR_ID.markup">[0][0][0][0]</property>
  <property name="meta.attr.0.stream.ENCODER.markup">Lavc60.3.100 mjpeg</property>
  <property name="meta.attr.0.stream.DURATION.markup">00:00:01.000000000</property>
  <property name="meta.attr.COMMENT.markup">Rendered with Manim Community v0.17.3</property>
  <property name="meta.attr.MAJOR_BRAND.markup">isom</property>
  <property name="meta.attr.MINOR_VERSION.markup">512</property>
  <property name="meta.attr.COMPATIBLE_BRANDS.markup">isomiso2avc1mp41</property>
  <property name="meta.attr.ENCODER.markup">Lavf60.3.100</property>
  <property name="meta.media.sample_aspect_num">1</property>
  <property name="meta.media.sample_aspect_den">1</property>
  <property name="meta.media.frame_rate_num">60</property>
  <property name="meta.media.frame_rate_den">1</property>
  <property name="meta.media.colorspace">601</property>
  <property name="meta.media.color_trc">2</property>
  <property name="meta.media.has_b_frames">0</property>
  <property name="meta.media.width">640</property>
  <property name="meta.media.height">360</property>
  <property name="meta.media.color_range">full</property>
  <property name="xml">was here</property>
  <property name="meta.media.top_field_first">0</property>
  <property name="meta.media.progressive">1</property>
  <property name="set.test_audio">1</property>
  <property name="set.test_image">0</property>
 </chain>
 <chain id="chain11" out="00:00:00.983">
  <property name="length">60</property>
  <property name="eof">pause</property>
  <property name="resource">/home/xiaoxiae/.cache/kdenlive/proxy/a356adb846e0671d29d1e2c26c5babce.mkv</property>
  <property name="mlt_service">avformat-novalidate</property>
  <property name="seekable">1</property>
  <property name="format">3</property>
  <property name="audio_index">-1</property>
  <property name="video_index">0</property>
  <property name="kdenlive:clipname">5.mp4</property>
  <property name="kdenlive:clip_type">2</property>
  <property name="kdenlive:folderid">196</property>
  <property name="kdenlive:id">201</property>
  <property name="mute_on_pause">0</property>
  <property name="kdenlive:file_size">236113</property>
  <property name="kdenlive:file_hash">a356adb846e0671d29d1e2c26c5babce</property>
  <property name="kdenlive:proxy">/home/xiaoxiae/.cache/kdenlive/proxy/a356adb846e0671d29d1e2c26c5babce.mkv</property>
  <property name="kdenlive:originalurl">video/Intro/5.mp4</property>
  <property name="kdenlive:original.mlt_type">chain</property>
  <property name="kdenlive:original.in">0</property>
  <property name="kdenlive:original.out">00:00:00.983</property>
  <property name="kdenlive:original.length">60</property>
  <property name="kdenlive:original.eof">pause</property>
  <property name="kdenlive:original.resource">video/Intro/5.mp4</property>
  <property name="kdenlive:original.mlt_service">avformat-novalidate</property>
  <property name="kdenlive:original.meta.media.nb_streams">1</property>
  <property name="kdenlive:original.meta.media.0.stream.type">video</property>
  <property name="kdenlive:original.meta.media.0.stream.frame_rate">60</property>
  <property name="kdenlive:original.meta.media.0.stream.sample_aspect_ratio">0</property>
  <property name="kdenlive:original.meta.media.0.codec.width">1920</property>
  <property name="kdenlive:original.meta.media.0.codec.height">1080</property>
  <property name="kdenlive:original.meta.media.0.codec.rotate">0</property>
  <property name="kdenlive:original.meta.media.0.codec.pix_fmt">yuv420p</property>
  <property name="kdenlive:original.meta.media.0.codec.sample_aspect_ratio">0</property>
  <property name="kdenlive:original.meta.media.0.codec.colorspace">709</property>
  <property name="kdenlive:original.meta.media.0.codec.name">h264</property>
  <property name="kdenlive:original.meta.media.0.codec.long_name">H.264 / AVC / MPEG-4 AVC / MPEG-4 part 10</property>
  <property name="kdenlive:original.meta.media.0.codec.bit_rate">1876040</property>
  <property name="kdenlive:original.meta.attr.0.stream.handler_name.markup">VideoHandler</property>
  <property name="kdenlive:original.meta.attr.0.stream.vendor_id.markup">[0][0][0][0]</property>
  <property name="kdenlive:original.meta.attr.0.stream.encoder.markup">Lavc60.3.100 libx264</property>
  <property name="kdenlive:original.meta.attr.major_brand.markup">isom</property>
  <property name="kdenlive:original.meta.attr.minor_version.markup">512</property>
  <property name="kdenlive:original.meta.attr.compatible_brands.markup">isomiso2avc1mp41</property>
  <property name="kdenlive:original.meta.attr.encoder.markup">Lavf60.3.100</property>
  <property name="kdenlive:original.meta.attr.comment.markup">Rendered with Manim Community v0.17.3</property>
  <property name="kdenlive:original.seekable">1</property>
  <property name="kdenlive:original.width">1920</property>
  <property name="kdenlive:original.height">1080</property>
  <property name="kdenlive:original.meta.media.sample_aspect_num">1</property>
  <property name="kdenlive:original.meta.media.sample_aspect_den">1</property>
  <property name="kdenlive:original.format">3</property>
  <property name="kdenlive:original.audio_index">-1</property>
  <property name="kdenlive:original.video_index">0</property>
  <property name="kdenlive:original.meta.media.frame_rate_num">60</property>
  <property name="kdenlive:original.meta.media.frame_rate_den">1</property>
  <property name="kdenlive:original.meta.media.colorspace">709</property>
  <property name="kdenlive:original.meta.media.color_trc">2</property>
  <property name="kdenlive:original.meta.media.has_b_frames">2</property>
  <property name="kdenlive:original.meta.media.width">1920</property>
  <property name="kdenlive:original.meta.media.height">1080</property>
  <property name="kdenlive:original.meta.media.color_range">mpeg</property>
  <property name="kdenlive:original.meta.media.top_field_first">0</property>
  <property name="kdenlive:original.meta.media.progressive">1</property>
  <property name="kdenlive:original.kdenlive:clip_type">2</property>
  <property name="kdenlive:original.kdenlive:folderid">196</property>
  <property name="kdenlive:original.kdenlive:id">201</property>
  <property name="kdenlive:original.mute_on_pause">0</property>
  <property name="kdenlive:original.kdenlive:file_size">236113</property>
  <property name="kdenlive:original.kdenlive:file_hash">a356adb846e0671d29d1e2c26c5babce</property>
  <property name="kdenlive:original.backup">1</property>
  <property name="meta.media.nb_streams">1</property>
  <property name="meta.media.0.stream.type">video</property>
  <property name="meta.media.0.stream.frame_rate">60</property>
  <property name="meta.media.0.stream.sample_aspect_ratio">0</property>
  <property name="meta.media.0.codec.width">640</property>
  <property name="meta.media.0.codec.height">360</property>
  <property name="meta.media.0.codec.rotate">0</property>
  <property name="meta.media.0.codec.pix_fmt">yuvj420p</property>
  <property name="meta.media.0.codec.sample_aspect_ratio">0</property>
  <property name="meta.media.0.codec.colorspace">601</property>
  <property name="meta.media.0.codec.name">mjpeg</property>
  <property name="meta.media.0.codec.long_name">MJPEG (Motion JPEG)</property>
  <property name="meta.media.0.codec.bit_rate">0</property>
  <property name="meta.attr.0.stream.HANDLER_NAME.markup">VideoHandler</property>
  <property name="meta.attr.0.stream.VENDOR_ID.markup">[0][0][0][0]</property>
  <property name="meta.attr.0.stream.ENCODER.markup">Lavc60.3.100 mjpeg</property>
  <property name="meta.attr.0.stream.DURATION.markup">00:00:01.000000000</property>
  <property name="meta.attr.COMMENT.markup">Rendered with Manim Community v0.17.3</property>
  <property name="meta.attr.MAJOR_BRAND.markup">isom</property>
  <property name="meta.attr.MINOR_VERSION.markup">512</property>
  <property name="meta.attr.COMPATIBLE_BRANDS.markup">isomiso2avc1mp41</property>
  <property name="meta.attr.ENCODER.markup">Lavf60.3.100</property>
  <property name="meta.media.sample_aspect_num">1</property>
  <property name="meta.media.sample_aspect_den">1</property>
  <property name="meta.media.frame_rate_num">60</property>
  <property name="meta.media.frame_rate_den">1</property>
  <property name="meta.media.colorspace">601</property>
  <property name="meta.media.color_trc">2</property>
  <property name="meta.media.has_b_frames">0</property>
  <property name="meta.media.width">640</property>
  <property name="meta.media.height">360</property>
  <property name="meta.media.color_range">full</property>
  <property name="xml">was here</property>
  <property name="meta.media.top_field_first">0</property>
  <property name="meta.media.progressive">1</property>
  <property name="set.test_audio">1</property>
  <property name="set.test_image">0</property>
 </chain>
 <chain id="chain12" out="00:00:00.983">
  <property name="length">60</property>
  <property name="eof">pause</property>
  <property name="resource">/home/xiaoxiae/.cache/kdenlive/proxy/5a9e62a22e6c79929725177c19cb6fd4.mkv</property>
  <property name="mlt_service">avformat-novalidate</property>
  <property name="seekable">1</property>
  <property name="format">3</property>
  <property name="audio_index">-1</property>
  <property name="video_index">0</property>
  <property name="kdenlive:clipname">6.mp4</property>
  <property name="kdenlive:clip_type">2</property>
  <property name="kdenlive:folderid">196</property>
  <property name="kdenlive:id">202</property>
  <property name="mute_on_pause">0</property>
  <property name="kdenlive:file_size">102814</property>
  <property name="kdenlive:file_hash">5a9e62a22e6c79929725177c19cb6fd4</property>
  <property name="kdenlive:proxy">/home/xiaoxiae/.cache/kdenlive/proxy/5a9e62a22e6c79929725177c19cb6fd4.mkv</property>
  <property name="kdenlive:originalurl">video/Intro/6.mp4</property>
  <property name="kdenlive:original.mlt_type">chain</property>
  <property name="kdenlive:original.in">0</property>
  <property name="kdenlive:original.out">00:00:00.983</property>
  <property name="kdenlive:original.length">60</property>
  <property name="kdenlive:original.eof">pause</property>
  <property name="kdenlive:original.resource">video/Intro/6.mp4</property>
  <property name="kdenlive:original.mlt_service">avformat-novalidate</property>
  <property name="kdenlive:original.meta.media.nb_streams">1</property>
  <property name="kdenlive:original.meta.media.0.stream.type">video</property>
  <property name="kdenlive:original.meta.media.0.stream.frame_rate">60</property>
  <property name="kdenlive:original.meta.media.0.stream.sample_aspect_ratio">0</property>
  <property name="kdenlive:original.meta.media.0.codec.width">1920</property>
  <property name="kdenlive:original.meta.media.0.codec.height">1080</property>
  <property name="kdenlive:original.meta.media.0.codec.rotate">0</property>
  <property name="kdenlive:original.meta.media.0.codec.pix_fmt">yuv420p</property>
  <property name="kdenlive:original.meta.media.0.codec.sample_aspect_ratio">0</property>
  <property name="kdenlive:original.meta.media.0.codec.colorspace">709</property>
  <property name="kdenlive:original.meta.media.0.codec.name">h264</property>
  <property name="kdenlive:original.meta.media.0.codec.long_name">H.264 / AVC / MPEG-4 AVC / MPEG-4 part 10</property>
  <property name="kdenlive:original.meta.media.0.codec.bit_rate">809520</property>
  <property name="kdenlive:original.meta.attr.0.stream.handler_name.markup">VideoHandler</property>
  <property name="kdenlive:original.meta.attr.0.stream.vendor_id.markup">[0][0][0][0]</property>
  <property name="kdenlive:original.meta.attr.0.stream.encoder.markup">Lavc60.3.100 libx264</property>
  <property name="kdenlive:original.meta.attr.major_brand.markup">isom</property>
  <property name="kdenlive:original.meta.attr.minor_version.markup">512</property>
  <property name="kdenlive:original.meta.attr.compatible_brands.markup">isomiso2avc1mp41</property>
  <property name="kdenlive:original.meta.attr.encoder.markup">Lavf60.3.100</property>
  <property name="kdenlive:original.meta.attr.comment.markup">Rendered with Manim Community v0.17.3</property>
  <property name="kdenlive:original.seekable">1</property>
  <property name="kdenlive:original.width">1920</property>
  <property name="kdenlive:original.height">1080</property>
  <property name="kdenlive:original.meta.media.sample_aspect_num">1</property>
  <property name="kdenlive:original.meta.media.sample_aspect_den">1</property>
  <property name="kdenlive:original.format">3</property>
  <property name="kdenlive:original.audio_index">-1</property>
  <property name="kdenlive:original.video_index">0</property>
  <property name="kdenlive:original.meta.media.frame_rate_num">60</property>
  <property name="kdenlive:original.meta.media.frame_rate_den">1</property>
  <property name="kdenlive:original.meta.media.colorspace">709</property>
  <property name="kdenlive:original.meta.media.color_trc">2</property>
  <property name="kdenlive:original.meta.media.has_b_frames">2</property>
  <property name="kdenlive:original.meta.media.width">1920</property>
  <property name="kdenlive:original.meta.media.height">1080</property>
  <property name="kdenlive:original.meta.media.color_range">mpeg</property>
  <property name="kdenlive:original.meta.media.top_field_first">0</property>
  <property name="kdenlive:original.meta.media.progressive">1</property>
  <property name="kdenlive:original.kdenlive:clip_type">2</property>
  <property name="kdenlive:original.kdenlive:folderid">196</property>
  <property name="kdenlive:original.kdenlive:id">202</property>
  <property name="kdenlive:original.mute_on_pause">0</property>
  <property name="kdenlive:original.kdenlive:file_size">102814</property>
  <property name="kdenlive:original.kdenlive:file_hash">5a9e62a22e6c79929725177c19cb6fd4</property>
  <property name="kdenlive:original.backup">1</property>
  <property name="meta.media.nb_streams">1</property>
  <property name="meta.media.0.stream.type">video</property>
  <property name="meta.media.0.stream.frame_rate">60</property>
  <property name="meta.media.0.stream.sample_aspect_ratio">0</property>
  <property name="meta.media.0.codec.width">640</property>
  <property name="meta.media.0.codec.height">360</property>
  <property name="meta.media.0.codec.rotate">0</property>
  <property name="meta.media.0.codec.pix_fmt">yuvj420p</property>
  <property name="meta.media.0.codec.sample_aspect_ratio">0</property>
  <property name="meta.media.0.codec.colorspace">601</property>
  <property name="meta.media.0.codec.name">mjpeg</property>
  <property name="meta.media.0.codec.long_name">MJPEG (Motion JPEG)</property>
  <property name="meta.media.0.codec.bit_rate">0</property>
  <property name="meta.attr.0.stream.HANDLER_NAME.markup">VideoHandler</property>
  <property name="meta.attr.0.stream.VENDOR_ID.markup">[0][0][0][0]</property>
  <property name="meta.attr.0.stream.ENCODER.markup">Lavc60.3.100 mjpeg</property>
  <property name="meta.attr.0.stream.DURATION.markup">00:00:01.000000000</property>
  <property name="meta.attr.COMMENT.markup">Rendered with Manim Community v0.17.3</property>
  <property name="meta.attr.MAJOR_BRAND.markup">isom</property>
  <property name="meta.attr.MINOR_VERSION.markup">512</property>
  <property name="meta.attr.COMPATIBLE_BRANDS.markup">isomiso2avc1mp41</property>
  <property name="meta.attr.ENCODER.markup">Lavf60.3.100</property>
  <property name="meta.media.sample_aspect_num">1</property>
  <property name="meta.media.sample_aspect_den">1</property>
  <property name="meta.media.frame_rate_num">60</property>
  <property name="meta.media.frame_rate_den">1</property>
  <property name="meta.media.colorspace">601</property>
  <property name="meta.media.color_trc">2</property>
  <property name="meta.media.has_b_frames">0</property>
  <property name="meta.media.width">640</property>
  <property name="meta.media.height">360</property>
  <property name="meta.media.color_range">full</property>
  <property name="xml">was here</property>
  <property name="meta.media.top_field_first">0</property>
  <property name="meta.media.progressive">1</property>
  <property name="set.test_audio">1</property>
  <property name="set.test_image">0</property>
 </chain>
 <chain id="chain13" out="00:00:01.983">
  <property name="length">120</property>
  <property name="eof">pause</property>
  <property name="resource">/home/xiaoxiae/.cache/kdenlive/proxy/53f83c6369e0ef23bb1984db70e8ee30.mkv</property>
  <property name="mlt_service">avformat-novalidate</property>
  <property name="seekable">1</property>
  <property name="format">3</property>
  <property name="audio_index">-1</property>
  <property name="video_index">0</property>
  <property name="kdenlive:clipname">1.mp4</property>
  <property name="kdenlive:clip_type">2</property>
  <property name="kdenlive:folderid">16</property>
  <property name="kdenlive:id">17</property>
  <property name="mute_on_pause">0</property>
  <property name="kdenlive:file_size">157181</property>
  <property name="kdenlive:file_hash">53f83c6369e0ef23bb1984db70e8ee30</property>
  <property name="kdenlive:proxy">/home/xiaoxiae/.cache/kdenlive/proxy/53f83c6369e0ef23bb1984db70e8ee30.mkv</property>
  <property name="kdenlive:originalurl">video/Farmer/1.mp4</property>
  <property name="kdenlive:original.mlt_type">chain</property>
  <property name="kdenlive:original.in">0</property>
  <property name="kdenlive:original.out">00:00:01.983</property>
  <property name="kdenlive:original.length">120</property>
  <property name="kdenlive:original.eof">pause</property>
  <property name="kdenlive:original.resource">video/Farmer/1.mp4</property>
  <property name="kdenlive:original.mlt_service">avformat-novalidate</property>
  <property name="kdenlive:original.meta.media.nb_streams">1</property>
  <property name="kdenlive:original.meta.media.0.stream.type">video</property>
  <property name="kdenlive:original.meta.media.0.stream.frame_rate">60</property>
  <property name="kdenlive:original.meta.media.0.stream.sample_aspect_ratio">0</property>
  <property name="kdenlive:original.meta.media.0.codec.width">1920</property>
  <property name="kdenlive:original.meta.media.0.codec.height">1080</property>
  <property name="kdenlive:original.meta.media.0.codec.rotate">0</property>
  <property name="kdenlive:original.meta.media.0.codec.pix_fmt">yuv420p</property>
  <property name="kdenlive:original.meta.media.0.codec.sample_aspect_ratio">0</property>
  <property name="kdenlive:original.meta.media.0.codec.colorspace">709</property>
  <property name="kdenlive:original.meta.media.0.codec.name">h264</property>
  <property name="kdenlive:original.meta.media.0.codec.long_name">H.264 / AVC / MPEG-4 AVC / MPEG-4 part 10</property>
  <property name="kdenlive:original.meta.media.0.codec.bit_rate">620084</property>
  <property name="kdenlive:original.meta.attr.0.stream.handler_name.markup">VideoHandler</property>
  <property name="kdenlive:original.meta.attr.0.stream.vendor_id.markup">[0][0][0][0]</property>
  <property name="kdenlive:original.meta.attr.0.stream.encoder.markup">Lavc60.3.100 libx264</property>
  <property name="kdenlive:original.meta.attr.major_brand.markup">isom</property>
  <property name="kdenlive:original.meta.attr.minor_version.markup">512</property>
  <property name="kdenlive:original.meta.attr.compatible_brands.markup">isomiso2avc1mp41</property>
  <property name="kdenlive:original.meta.attr.encoder.markup">Lavf60.3.100</property>
  <property name="kdenlive:original.meta.attr.comment.markup">Rendered with Manim Community v0.17.3</property>
  <property name="kdenlive:original.seekable">1</property>
  <property name="kdenlive:original.width">1920</property>
  <property name="kdenlive:original.height">1080</property>
  <property name="kdenlive:original.meta.media.sample_aspect_num">1</property>
  <property name="kdenlive:original.meta.media.sample_aspect_den">1</property>
  <property name="kdenlive:original.format">3</property>
  <property name="kdenlive:original.audio_index">-1</property>
  <property name="kdenlive:original.video_index">0</property>
  <property name="kdenlive:original.meta.media.frame_rate_num">60</property>
  <property name="kdenlive:original.meta.media.frame_rate_den">1</property>
  <property name="kdenlive:original.meta.media.colorspace">709</property>
  <property name="kdenlive:original.meta.media.color_trc">2</property>
  <property name="kdenlive:original.meta.media.has_b_frames">2</property>
  <property name="kdenlive:original.meta.media.width">1920</property>
  <property name="kdenlive:original.meta.media.height">1080</property>
  <property name="kdenlive:original.meta.media.color_range">mpeg</property>
  <property name="kdenlive:original.meta.media.top_field_first">0</property>
  <property name="kdenlive:original.meta.media.progressive">1</property>
  <property name="kdenlive:original.kdenlive:clip_type">2</property>
  <property name="kdenlive:original.kdenlive:folderid">16</property>
  <property name="kdenlive:original.kdenlive:id">17</property>
  <property name="kdenlive:original.mute_on_pause">0</property>
  <property name="kdenlive:original.kdenlive:file_size">157181</property>
  <property name="kdenlive:original.kdenlive:file_hash">53f83c6369e0ef23bb1984db70e8ee30</property>
  <property name="kdenlive:original.backup">1</property>
  <property name="meta.media.nb_streams">1</property>
  <property name="meta.media.0.stream.type">video</property>
  <property name="meta.media.0.stream.frame_rate">60</property>
  <property name="meta.media.0.stream.sample_aspect_ratio">0</property>
  <property name="meta.media.0.codec.width">640</property>
  <property name="meta.media.0.codec.height">360</property>
  <property name="meta.media.0.codec.rotate">0</property>
  <property name="meta.media.0.codec.pix_fmt">yuvj420p</property>
  <property name="meta.media.0.codec.sample_aspect_ratio">0</property>
  <property name="meta.media.0.codec.colorspace">601</property>
  <property name="meta.media.0.codec.name">mjpeg</property>
  <property name="meta.media.0.codec.long_name">MJPEG (Motion JPEG)</property>
  <property name="meta.media.0.codec.bit_rate">0</property>
  <property name="meta.attr.0.stream.HANDLER_NAME.markup">VideoHandler</property>
  <property name="meta.attr.0.stream.VENDOR_ID.markup">[0][0][0][0]</property>
  <property name="meta.attr.0.stream.ENCODER.markup">Lavc60.3.100 mjpeg</property>
  <property name="meta.attr.0.stream.DURATION.markup">00:00:02.000000000</property>
  <property name="meta.attr.COMMENT.markup">Rendered with Manim Community v0.17.3</property>
  <property name="meta.attr.MAJOR_BRAND.markup">isom</property>
  <property name="meta.attr.MINOR_VERSION.markup">512</property>
  <property name="meta.attr.COMPATIBLE_BRANDS.markup">isomiso2avc1mp41</property>
  <property name="meta.attr.ENCODER.markup">Lavf60.3.100</property>
  <property name="meta.media.sample_aspect_num">1</property>
  <property name="meta.media.sample_aspect_den">1</property>
  <property name="meta.media.frame_rate_num">60</property>
  <property name="meta.media.frame_rate_den">1</property>
  <property name="meta.media.colorspace">601</property>
  <property name="meta.media.color_trc">2</property>
  <property name="meta.media.has_b_frames">0</property>
  <property name="meta.media.width">640</property>
  <property name="meta.media.height">360</property>
  <property name="meta.media.color_range">full</property>
  <property name="xml">was here</property>
  <property name="meta.media.top_field_first">0</property>
  <property name="meta.media.progressive">1</property>
  <property name="set.test_audio">1</property>
  <property name="set.test_image">0</property>
 </chain>
 <chain id="chain14" out="00:00:01.617">
  <property name="length">98</property>
  <property name="eof">pause</property>
  <property name="resource">/home/xiaoxiae/.cache/kdenlive/proxy/38dd2dd0bfef84eb6ba8dddbb7a535e7.mkv</property>
  <property name="mlt_service">avformat-novalidate</property>
  <property name="seekable">1</property>
  <property name="format">3</property>
  <property name="audio_index">-1</property>
  <property name="video_index">0</property>
  <property name="kdenlive:clipname">2.mp4</property>
  <property name="kdenlive:clip_type">2</property>
  <property name="kdenlive:folderid">16</property>
  <property name="kdenlive:id">90</property>
  <property name="mute_on_pause">0</property>
  <property name="kdenlive:file_size">105278</property>
  <property name="kdenlive:file_hash">38dd2dd0bfef84eb6ba8dddbb7a535e7</property>
  <property name="kdenlive:proxy">/home/xiaoxiae/.cache/kdenlive/proxy/38dd2dd0bfef84eb6ba8dddbb7a535e7.mkv</property>
  <property name="kdenlive:originalurl">video/Farmer/2.mp4</property>
  <property name="kdenlive:original.mlt_type">chain</property>
  <property name="kdenlive:original.in">0</property>
  <property name="kdenlive:original.out">00:00:01.617</property>
  <property name="kdenlive:original.length">98</property>
  <property name="kdenlive:original.eof">pause</property>
  <property name="kdenlive:original.resource">video/Farmer/2.mp4</property>
  <property name="kdenlive:original.mlt_service">avformat-novalidate</property>
  <property name="kdenlive:original.meta.media.nb_streams">1</property>
  <property name="kdenlive:original.meta.media.0.stream.type">video</property>
  <property name="kdenlive:original.meta.media.0.stream.frame_rate">60</property>
  <property name="kdenlive:original.meta.media.0.stream.sample_aspect_ratio">0</property>
  <property name="kdenlive:original.meta.media.0.codec.width">1920</property>
  <property name="kdenlive:original.meta.media.0.codec.height">1080</property>
  <property name="kdenlive:original.meta.media.0.codec.rotate">0</property>
  <property name="kdenlive:original.meta.media.0.codec.pix_fmt">yuv420p</property>
  <property name="kdenlive:original.meta.media.0.codec.sample_aspect_ratio">0</property>
  <property name="kdenlive:original.meta.media.0.codec.colorspace">709</property>
  <property name="kdenlive:original.meta.media.0.codec.name">h264</property>
  <property name="kdenlive:original.meta.media.0.codec.long_name">H.264 / AVC / MPEG-4 AVC / MPEG-4 part 10</property>
  <property name="kdenlive:original.meta.media.0.codec.bit_rate">505381</property>
  <property name="kdenlive:original.meta.attr.0.stream.handler_name.markup">VideoHandler</property>
  <property name="kdenlive:original.meta.attr.0.stream.vendor_id.markup">[0][0][0][0]</property>
  <property name="kdenlive:original.meta.attr.0.stream.encoder.markup">Lavc60.3.100 libx264</property>
  <property name="kdenlive:original.meta.attr.major_brand.markup">isom</property>
  <property name="kdenlive:original.meta.attr.minor_version.markup">512</property>
  <property name="kdenlive:original.meta.attr.compatible_brands.markup">isomiso2avc1mp41</property>
  <property name="kdenlive:original.meta.attr.encoder.markup">Lavf60.3.100</property>
  <property name="kdenlive:original.meta.attr.comment.markup">Rendered with Manim Community v0.17.3</property>
  <property name="kdenlive:original.seekable">1</property>
  <property name="kdenlive:original.width">1920</property>
  <property name="kdenlive:original.height">1080</property>
  <property name="kdenlive:original.meta.media.sample_aspect_num">1</property>
  <property name="kdenlive:original.meta.media.sample_aspect_den">1</property>
  <property name="kdenlive:original.format">3</property>
  <property name="kdenlive:original.audio_index">-1</property>
  <property name="kdenlive:original.video_index">0</property>
  <property name="kdenlive:original.meta.media.frame_rate_num">60</property>
  <property name="kdenlive:original.meta.media.frame_rate_den">1</property>
  <property name="kdenlive:original.meta.media.colorspace">709</property>
  <property name="kdenlive:original.meta.media.color_trc">2</property>
  <property name="kdenlive:original.meta.media.has_b_frames">2</property>
  <property name="kdenlive:original.meta.media.width">1920</property>
  <property name="kdenlive:original.meta.media.height">1080</property>
  <property name="kdenlive:original.meta.media.color_range">mpeg</property>
  <property name="kdenlive:original.meta.media.top_field_first">0</property>
  <property name="kdenlive:original.meta.media.progressive">1</property>
  <property name="kdenlive:original.kdenlive:clip_type">2</property>
  <property name="kdenlive:original.kdenlive:folderid">16</property>
  <property name="kdenlive:original.kdenlive:id">90</property>
  <property name="kdenlive:original.mute_on_pause">0</property>
  <property name="kdenlive:original.kdenlive:file_size">105278</property>
  <property name="kdenlive:original.kdenlive:file_hash">38dd2dd0bfef84eb6ba8dddbb7a535e7</property>
  <property name="kdenlive:original.backup">1</property>
  <property name="meta.media.nb_streams">1</property>
  <property name="meta.media.0.stream.type">video</property>
  <property name="meta.media.0.stream.frame_rate">60</property>
  <property name="meta.media.0.stream.sample_aspect_ratio">0</property>
  <property name="meta.media.0.codec.width">640</property>
  <property name="meta.media.0.codec.height">360</property>
  <property name="meta.media.0.codec.rotate">0</property>
  <property name="meta.media.0.codec.pix_fmt">yuvj420p</property>
  <property name="meta.media.0.codec.sample_aspect_ratio">0</property>
  <property name="meta.media.0.codec.colorspace">601</property>
  <property name="meta.media.0.codec.name">mjpeg</property>
  <property name="meta.media.0.codec.long_name">MJPEG (Motion JPEG)</property>
  <property name="meta.media.0.codec.bit_rate">0</property>
  <property name="meta.attr.0.stream.HANDLER_NAME.markup">VideoHandler</property>
  <property name="meta.attr.0.stream.VENDOR_ID.markup">[0][0][0][0]</property>
  <property name="meta.attr.0.stream.ENCODER.markup">Lavc60.3.100 mjpeg</property>
  <property name="meta.attr.0.stream.DURATION.markup">00:00:01.634000000</property>
  <property name="meta.attr.COMMENT.markup">Rendered with Manim Community v0.17.3</property>
  <property name="meta.attr.MAJOR_BRAND.markup">isom</property>
  <property name="meta.attr.MINOR_VERSION.markup">512</property>
  <property name="meta.attr.COMPATIBLE_BRANDS.markup">isomiso2avc1mp41</property>
  <property name="meta.attr.ENCODER.markup">Lavf60.3.100</property>
  <property name="meta.media.sample_aspect_num">1</property>
  <property name="meta.media.sample_aspect_den">1</property>
  <property name="meta.media.frame_rate_num">60</property>
  <property name="meta.media.frame_rate_den">1</property>
  <property name="meta.media.colorspace">601</property>
  <property name="meta.media.color_trc">2</property>
  <property name="meta.media.has_b_frames">0</property>
  <property name="meta.media.width">640</property>
  <property name="meta.media.height">360</property>
  <property name="meta.media.color_range">full</property>
  <property name="xml">was here</property>
  <property name="meta.media.top_field_first">0</property>
  <property name="meta.media.progressive">1</property>
  <property name="set.test_audio">1</property>
  <property name="set.test_image">0</property>
 </chain>
 <chain id="chain15" out="00:00:01.617">
  <property name="length">98</property>
  <property name="eof">pause</property>
  <property name="resource">/home/xiaoxiae/.cache/kdenlive/proxy/399f71541214d4f150b5b04d7f678c26.mkv</property>
  <property name="mlt_service">avformat-novalidate</property>
  <property name="seekable">1</property>
  <property name="format">3</property>
  <property name="audio_index">-1</property>
  <property name="video_index">0</property>
  <property name="kdenlive:clipname">3.mp4</property>
  <property name="kdenlive:clip_type">2</property>
  <property name="kdenlive:folderid">16</property>
  <property name="kdenlive:id">101</property>
  <property name="mute_on_pause">0</property>
  <property name="kdenlive:file_size">111598</property>
  <property name="kdenlive:file_hash">399f71541214d4f150b5b04d7f678c26</property>
  <property name="kdenlive:proxy">/home/xiaoxiae/.cache/kdenlive/proxy/399f71541214d4f150b5b04d7f678c26.mkv</property>
  <property name="kdenlive:originalurl">video/Farmer/3.mp4</property>
  <property name="kdenlive:original.mlt_type">chain</property>
  <property name="kdenlive:original.in">0</property>
  <property name="kdenlive:original.out">00:00:01.617</property>
  <property name="kdenlive:original.length">98</property>
  <property name="kdenlive:original.eof">pause</property>
  <property name="kdenlive:original.resource">video/Farmer/3.mp4</property>
  <property name="kdenlive:original.mlt_service">avformat-novalidate</property>
  <property name="kdenlive:original.meta.media.nb_streams">1</property>
  <property name="kdenlive:original.meta.media.0.stream.type">video</property>
  <property name="kdenlive:original.meta.media.0.stream.frame_rate">60</property>
  <property name="kdenlive:original.meta.media.0.stream.sample_aspect_ratio">0</property>
  <property name="kdenlive:original.meta.media.0.codec.width">1920</property>
  <property name="kdenlive:original.meta.media.0.codec.height">1080</property>
  <property name="kdenlive:original.meta.media.0.codec.rotate">0</property>
  <property name="kdenlive:original.meta.media.0.codec.pix_fmt">yuv420p</property>
  <property name="kdenlive:original.meta.media.0.codec.sample_aspect_ratio">0</property>
  <property name="kdenlive:original.meta.media.0.codec.colorspace">709</property>
  <property name="kdenlive:original.meta.media.0.codec.name">h264</property>
  <property name="kdenlive:original.meta.media.0.codec.long_name">H.264 / AVC / MPEG-4 AVC / MPEG-4 part 10</property>
  <property name="kdenlive:original.meta.media.0.codec.bit_rate">536375</property>
  <property name="kdenlive:original.meta.attr.0.stream.handler_name.markup">VideoHandler</property>
  <property name="kdenlive:original.meta.attr.0.stream.vendor_id.markup">[0][0][0][0]</property>
  <property name="kdenlive:original.meta.attr.0.stream.encoder.markup">Lavc60.3.100 libx264</property>
  <property name="kdenlive:original.meta.attr.major_brand.markup">isom</property>
  <property name="kdenlive:original.meta.attr.minor_version.markup">512</property>
  <property name="kdenlive:original.meta.attr.compatible_brands.markup">isomiso2avc1mp41</property>
  <property name="kdenlive:original.meta.attr.encoder.markup">Lavf60.3.100</property>
  <property name="kdenlive:original.meta.attr.comment.markup">Rendered with Manim Community v0.17.3</property>
  <property name="kdenlive:original.seekable">1</property>
  <property name="kdenlive:original.width">1920</property>
  <property name="kdenlive:original.height">1080</property>
  <property name="kdenlive:original.meta.media.sample_aspect_num">1</property>
  <property name="kdenlive:original.meta.media.sample_aspect_den">1</property>
  <property name="kdenlive:original.format">3</property>
  <property name="kdenlive:original.audio_index">-1</property>
  <property name="kdenlive:original.video_index">0</property>
  <property name="kdenlive:original.meta.media.frame_rate_num">60</property>
  <property name="kdenlive:original.meta.media.frame_rate_den">1</property>
  <property name="kdenlive:original.meta.media.colorspace">709</property>
  <property name="kdenlive:original.meta.media.color_trc">2</property>
  <property name="kdenlive:original.meta.media.has_b_frames">2</property>
  <property name="kdenlive:original.meta.media.width">1920</property>
  <property name="kdenlive:original.meta.media.height">1080</property>
  <property name="kdenlive:original.meta.media.color_range">mpeg</property>
  <property name="kdenlive:original.meta.media.top_field_first">0</property>
  <property name="kdenlive:original.meta.media.progressive">1</property>
  <property name="kdenlive:original.kdenlive:clip_type">2</property>
  <property name="kdenlive:original.kdenlive:folderid">16</property>
  <property name="kdenlive:original.kdenlive:id">101</property>
  <property name="kdenlive:original.mute_on_pause">0</property>
  <property name="kdenlive:original.kdenlive:file_size">111598</property>
  <property name="kdenlive:original.kdenlive:file_hash">399f71541214d4f150b5b04d7f678c26</property>
  <property name="kdenlive:original.backup">1</property>
  <property name="meta.media.nb_streams">1</property>
  <property name="meta.media.0.stream.type">video</property>
  <property name="meta.media.0.stream.frame_rate">60</property>
  <property name="meta.media.0.stream.sample_aspect_ratio">0</property>
  <property name="meta.media.0.codec.width">640</property>
  <property name="meta.media.0.codec.height">360</property>
  <property name="meta.media.0.codec.rotate">0</property>
  <property name="meta.media.0.codec.pix_fmt">yuvj420p</property>
  <property name="meta.media.0.codec.sample_aspect_ratio">0</property>
  <property name="meta.media.0.codec.colorspace">601</property>
  <property name="meta.media.0.codec.name">mjpeg</property>
  <property name="meta.media.0.codec.long_name">MJPEG (Motion JPEG)</property>
  <property name="meta.media.0.codec.bit_rate">0</property>
  <property name="meta.attr.0.stream.HANDLER_NAME.markup">VideoHandler</property>
  <property name="meta.attr.0.stream.VENDOR_ID.markup">[0][0][0][0]</property>
  <property name="meta.attr.0.stream.ENCODER.markup">Lavc60.3.100 mjpeg</property>
  <property name="meta.attr.0.stream.DURATION.markup">00:00:01.634000000</property>
  <property name="meta.attr.COMMENT.markup">Rendered with Manim Community v0.17.3</property>
  <property name="meta.attr.MAJOR_BRAND.markup">isom</property>
  <property name="meta.attr.MINOR_VERSION.markup">512</property>
  <property name="meta.attr.COMPATIBLE_BRANDS.markup">isomiso2avc1mp41</property>
  <property name="meta.attr.ENCODER.markup">Lavf60.3.100</property>
  <property name="meta.media.sample_aspect_num">1</property>
  <property name="meta.media.sample_aspect_den">1</property>
  <property name="meta.media.frame_rate_num">60</property>
  <property name="meta.media.frame_rate_den">1</property>
  <property name="meta.media.colorspace">601</property>
  <property name="meta.media.color_trc">2</property>
  <property name="meta.media.has_b_frames">0</property>
  <property name="meta.media.width">640</property>
  <property name="meta.media.height">360</property>
  <property name="meta.media.color_range">full</property>
  <property name="xml">was here</property>
  <property name="meta.media.top_field_first">0</property>
  <property name="meta.media.progressive">1</property>
  <property name="set.test_audio">1</property>
  <property name="set.test_image">0</property>
 </chain>
 <chain id="chain16" out="00:00:00.983">
  <property name="length">60</property>
  <property name="eof">pause</property>
  <property name="resource">/home/xiaoxiae/.cache/kdenlive/proxy/eb6f0a26631c1a5f0649a7c55b231ca0.mkv</property>
  <property name="mlt_service">avformat-novalidate</property>
  <property name="seekable">1</property>
  <property name="format">3</property>
  <property name="audio_index">-1</property>
  <property name="video_index">0</property>
  <property name="kdenlive:clipname">4.mp4</property>
  <property name="kdenlive:clip_type">2</property>
  <property name="kdenlive:folderid">16</property>
  <property name="kdenlive:id">112</property>
  <property name="mute_on_pause">0</property>
  <property name="kdenlive:file_size">103096</property>
  <property name="kdenlive:file_hash">eb6f0a26631c1a5f0649a7c55b231ca0</property>
  <property name="kdenlive:proxy">/home/xiaoxiae/.cache/kdenlive/proxy/eb6f0a26631c1a5f0649a7c55b231ca0.mkv</property>
  <property name="kdenlive:originalurl">video/Farmer/4.mp4</property>
  <property name="kdenlive:original.mlt_type">chain</property>
  <property name="kdenlive:original.in">0</property>
  <property name="kdenlive:original.out">00:00:00.983</property>
  <property name="kdenlive:original.length">60</property>
  <property name="kdenlive:original.eof">pause</property>
  <property name="kdenlive:original.resource">video/Farmer/4.mp4</property>
  <property name="kdenlive:original.mlt_service">avformat-novalidate</property>
  <property name="kdenlive:original.meta.media.nb_streams">1</property>
  <property name="kdenlive:original.meta.media.0.stream.type">video</property>
  <property name="kdenlive:original.meta.media.0.stream.frame_rate">60</property>
  <property name="kdenlive:original.meta.media.0.stream.sample_aspect_ratio">0</property>
  <property name="kdenlive:original.meta.media.0.codec.width">1920</property>
  <property name="kdenlive:original.meta.media.0.codec.height">1080</property>
  <property name="kdenlive:original.meta.media.0.codec.rotate">0</property>
  <property name="kdenlive:original.meta.media.0.codec.pix_fmt">yuv420p</property>
  <property name="kdenlive:original.meta.media.0.codec.sample_aspect_ratio">0</property>
  <property name="kdenlive:original.meta.media.0.codec.colorspace">709</property>
  <property name="kdenlive:original.meta.media.0.codec.name">h264</property>
  <property name="kdenlive:original.meta.media.0.codec.long_name">H.264 / AVC / MPEG-4 AVC / MPEG-4 part 10</property>
  <property name="kdenlive:original.meta.media.0.codec.bit_rate">811712</property>
  <property name="kdenlive:original.meta.attr.0.stream.handler_name.markup">VideoHandler</property>
  <property name="kdenlive:original.meta.attr.0.stream.vendor_id.markup">[0][0][0][0]</property>
  <property name="kdenlive:original.meta.attr.0.stream.encoder.markup">Lavc60.3.100 libx264</property>
  <property name="kdenlive:original.meta.attr.major_brand.markup">isom</property>
  <property name="kdenlive:original.meta.attr.minor_version.markup">512</property>
  <property name="kdenlive:original.meta.attr.compatible_brands.markup">isomiso2avc1mp41</property>
  <property name="kdenlive:original.meta.attr.encoder.markup">Lavf60.3.100</property>
  <property name="kdenlive:original.meta.attr.comment.markup">Rendered with Manim Community v0.17.3</property>
  <property name="kdenlive:original.seekable">1</property>
  <property name="kdenlive:original.width">1920</property>
  <property name="kdenlive:original.height">1080</property>
  <property name="kdenlive:original.meta.media.sample_aspect_num">1</property>
  <property name="kdenlive:original.meta.media.sample_aspect_den">1</property>
  <property name="kdenlive:original.format">3</property>
  <property name="kdenlive:original.audio_index">-1</property>
  <property name="kdenlive:original.video_index">0</property>
  <property name="kdenlive:original.meta.media.frame_rate_num">60</property>
  <property name="kdenlive:original.meta.media.frame_rate_den">1</property>
  <property name="kdenlive:original.meta.media.colorspace">709</property>
  <property name="kdenlive:original.meta.media.color_trc">2</property>
  <property name="kdenlive:original.meta.media.has_b_frames">2</property>
  <property name="kdenlive:original.meta.media.width">1920</property>
  <property name="kdenlive:original.meta.media.height">1080</property>
  <property name="kdenlive:original.meta.media.color_range">mpeg</property>
  <property name="kdenlive:original.meta.media.top_field_first">0</property>
  <property name="kdenlive:original.meta.media.progressive">1</property>
  <property name="kdenlive:original.kdenlive:clip_type">2</property>
  <property name="kdenlive:original.kdenlive:folderid">16</property>
  <property name="kdenlive:original.kdenlive:id">112</property>
  <property name="kdenlive:original.mute_on_pause">0</property>
  <property name="kdenlive:original.kdenlive:file_size">103096</property>
  <property name="kdenlive:original.kdenlive:file_hash">eb6f0a26631c1a5f0649a7c55b231ca0</property>
  <property name="kdenlive:original.backup">1</property>
  <property name="meta.media.nb_streams">1</property>
  <property name="meta.media.0.stream.type">video</property>
  <property name="meta.media.0.stream.frame_rate">60</property>
  <property name="meta.media.0.stream.sample_aspect_ratio">0</property>
  <property name="meta.media.0.codec.width">640</property>
  <property name="meta.media.0.codec.height">360</property>
  <property name="meta.media.0.codec.rotate">0</property>
  <property name="meta.media.0.codec.pix_fmt">yuvj420p</property>
  <property name="meta.media.0.codec.sample_aspect_ratio">0</property>
  <property name="meta.media.0.codec.colorspace">601</property>
  <property name="meta.media.0.codec.name">mjpeg</property>
  <property name="meta.media.0.codec.long_name">MJPEG (Motion JPEG)</property>
  <property name="meta.media.0.codec.bit_rate">0</property>
  <property name="meta.attr.0.stream.HANDLER_NAME.markup">VideoHandler</property>
  <property name="meta.attr.0.stream.VENDOR_ID.markup">[0][0][0][0]</property>
  <property name="meta.attr.0.stream.ENCODER.markup">Lavc60.3.100 mjpeg</property>
  <property name="meta.attr.0.stream.DURATION.markup">00:00:01.000000000</property>
  <property name="meta.attr.COMMENT.markup">Rendered with Manim Community v0.17.3</property>
  <property name="meta.attr.MAJOR_BRAND.markup">isom</property>
  <property name="meta.attr.MINOR_VERSION.markup">512</property>
  <property name="meta.attr.COMPATIBLE_BRANDS.markup">isomiso2avc1mp41</property>
  <property name="meta.attr.ENCODER.markup">Lavf60.3.100</property>
  <property name="meta.media.sample_aspect_num">1</property>
  <property name="meta.media.sample_aspect_den">1</property>
  <property name="meta.media.frame_rate_num">60</property>
  <property name="meta.media.frame_rate_den">1</property>
  <property name="meta.media.colorspace">601</property>
  <property name="meta.media.color_trc">2</property>
  <property name="meta.media.has_b_frames">0</property>
  <property name="meta.media.width">640</property>
  <property name="meta.media.height">360</property>
  <property name="meta.media.color_range">full</property>
  <property name="xml">was here</property>
  <property name="meta.media.top_field_first">0</property>
  <property name="meta.media.progressive">1</property>
  <property name="set.test_audio">1</property>
  <property name="set.test_image">0</property>
 </chain>
 <chain id="chain17" out="00:00:01.183">
  <property name="length">72</property>
  <property name="eof">pause</property>
  <property name="resource">/home/xiaoxiae/.cache/kdenlive/proxy/f377d91fedf209d3bab70b7dddca1197.mkv</property>
  <property name="mlt_service">avformat-novalidate</property>
  <property name="seekable">1</property>
  <property name="format">3</property>
  <property name="audio_index">-1</property>
  <property name="video_index">0</property>
  <property name="kdenlive:clipname">5.mp4</property>
  <property name="kdenlive:clip_type">2</property>
  <property name="kdenlive:folderid">16</property>
  <property name="kdenlive:id">123</property>
  <property name="mute_on_pause">0</property>
  <property name="kdenlive:file_size">105825</property>
  <property name="kdenlive:file_hash">f377d91fedf209d3bab70b7dddca1197</property>
  <property name="kdenlive:proxy">/home/xiaoxiae/.cache/kdenlive/proxy/f377d91fedf209d3bab70b7dddca1197.mkv</property>
  <property name="kdenlive:originalurl">video/Farmer/5.mp4</property>
  <property name="kdenlive:original.mlt_type">chain</property>
  <property name="kdenlive:original.in">0</property>
  <property name="kdenlive:original.out">00:00:01.183</property>
  <property name="kdenlive:original.length">72</property>
  <property name="kdenlive:original.eof">pause</property>
  <property name="kdenlive:original.resource">video/Farmer/5.mp4</property>
  <property name="kdenlive:original.mlt_service">avformat-novalidate</property>
  <property name="kdenlive:original.meta.media.nb_streams">1</property>
  <property name="kdenlive:original.meta.media.0.stream.type">video</property>
  <property name="kdenlive:original.meta.media.0.stream.frame_rate">60</property>
  <property name="kdenlive:original.meta.media.0.stream.sample_aspect_ratio">0</property>
  <property name="kdenlive:original.meta.media.0.codec.width">1920</property>
  <property name="kdenlive:original.meta.media.0.codec.height">1080</property>
  <property name="kdenlive:original.meta.media.0.codec.rotate">0</property>
  <property name="kdenlive:original.meta.media.0.codec.pix_fmt">yuv420p</property>
  <property name="kdenlive:original.meta.media.0.codec.sample_aspect_ratio">0</property>
  <property name="kdenlive:original.meta.media.0.codec.colorspace">709</property>
  <property name="kdenlive:original.meta.media.0.codec.name">h264</property>
  <property name="kdenlive:original.meta.media.0.codec.long_name">H.264 / AVC / MPEG-4 AVC / MPEG-4 part 10</property>
  <property name="kdenlive:original.meta.media.0.codec.bit_rate">693660</property>
  <property name="kdenlive:original.meta.attr.0.stream.handler_name.markup">VideoHandler</property>
  <property name="kdenlive:original.meta.attr.0.stream.vendor_id.markup">[0][0][0][0]</property>
  <property name="kdenlive:original.meta.attr.0.stream.encoder.markup">Lavc60.3.100 libx264</property>
  <property name="kdenlive:original.meta.attr.major_brand.markup">isom</property>
  <property name="kdenlive:original.meta.attr.minor_version.markup">512</property>
  <property name="kdenlive:original.meta.attr.compatible_brands.markup">isomiso2avc1mp41</property>
  <property name="kdenlive:original.meta.attr.encoder.markup">Lavf60.3.100</property>
  <property name="kdenlive:original.meta.attr.comment.markup">Rendered with Manim Community v0.17.3</property>
  <property name="kdenlive:original.seekable">1</property>
  <property name="kdenlive:original.width">1920</property>
  <property name="kdenlive:original.height">1080</property>
  <property name="kdenlive:original.meta.media.sample_aspect_num">1</property>
  <property name="kdenlive:original.meta.media.sample_aspect_den">1</property>
  <property name="kdenlive:original.format">3</property>
  <property name="kdenlive:original.audio_index">-1</property>
  <property name="kdenlive:original.video_index">0</property>
  <property name="kdenlive:original.meta.media.frame_rate_num">60</property>
  <property name="kdenlive:original.meta.media.frame_rate_den">1</property>
  <property name="kdenlive:original.meta.media.colorspace">709</property>
  <property name="kdenlive:original.meta.media.color_trc">2</property>
  <property name="kdenlive:original.meta.media.has_b_frames">2</property>
  <property name="kdenlive:original.meta.media.width">1920</property>
  <property name="kdenlive:original.meta.media.height">1080</property>
  <property name="kdenlive:original.meta.media.color_range">mpeg</property>
  <property name="kdenlive:original.meta.media.top_field_first">0</property>
  <property name="kdenlive:original.meta.media.progressive">1</property>
  <property name="kdenlive:original.kdenlive:clip_type">2</property>
  <property name="kdenlive:original.kdenlive:folderid">16</property>
  <property name="kdenlive:original.kdenlive:id">123</property>
  <property name="kdenlive:original.mute_on_pause">0</property>
  <property name="kdenlive:original.kdenlive:file_size">105825</property>
  <property name="kdenlive:original.kdenlive:file_hash">f377d91fedf209d3bab70b7dddca1197</property>
  <property name="kdenlive:original.backup">1</property>
  <property name="meta.media.nb_streams">1</property>
  <property name="meta.media.0.stream.type">video</property>
  <property name="meta.media.0.stream.frame_rate">60</property>
  <property name="meta.media.0.stream.sample_aspect_ratio">0</property>
  <property name="meta.media.0.codec.width">640</property>
  <property name="meta.media.0.codec.height">360</property>
  <property name="meta.media.0.codec.rotate">0</property>
  <property name="meta.media.0.codec.pix_fmt">yuvj420p</property>
  <property name="meta.media.0.codec.sample_aspect_ratio">0</property>
  <property name="meta.media.0.codec.colorspace">601</property>
  <property name="meta.media.0.codec.name">mjpeg</property>
  <property name="meta.media.0.codec.long_name">MJPEG (Motion JPEG)</property>
  <property name="meta.media.0.codec.bit_rate">0</property>
  <property name="meta.attr.0.stream.HANDLER_NAME.markup">VideoHandler</property>
  <property name="meta.attr.0.stream.VENDOR_ID.markup">[0][0][0][0]</property>
  <property name="meta.attr.0.stream.ENCODER.markup">Lavc60.3.100 mjpeg</property>
  <property name="meta.attr.0.stream.DURATION.markup">00:00:01.200000000</property>
  <property name="meta.attr.COMMENT.markup">Rendered with Manim Community v0.17.3</property>
  <property name="meta.attr.MAJOR_BRAND.markup">isom</property>
  <property name="meta.attr.MINOR_VERSION.markup">512</property>
  <property name="meta.attr.COMPATIBLE_BRANDS.markup">isomiso2avc1mp41</property>
  <property name="meta.attr.ENCODER.markup">Lavf60.3.100</property>
  <property name="meta.media.sample_aspect_num">1</property>
  <property name="meta.media.sample_aspect_den">1</property>
  <property name="meta.media.frame_rate_num">60</property>
  <property name="meta.media.frame_rate_den">1</property>
  <property name="meta.media.colorspace">601</property>
  <property name="meta.media.color_trc">2</property>
  <property name="meta.media.has_b_frames">0</property>
  <property name="meta.media.width">640</property>
  <property name="meta.media.height">360</property>
  <property name="meta.media.color_range">full</property>
  <property name="xml">was here</property>
  <property name="meta.media.top_field_first">0</property>
  <property name="meta.media.progressive">1</property>
  <property name="set.test_audio">1</property>
  <property name="set.test_image">0</property>
 </chain>
 <chain id="chain18" out="00:00:00.983">
  <property name="length">60</property>
  <property name="eof">pause</property>
  <property name="resource">/home/xiaoxiae/.cache/kdenlive/proxy/c77592a9185844ce835284f460ac45b0.mkv</property>
  <property name="mlt_service">avformat-novalidate</property>
  <property name="seekable">1</property>
  <property name="format">3</property>
  <property name="audio_index">-1</property>
  <property name="video_index">0</property>
  <property name="kdenlive:clipname">6.mp4</property>
  <property name="kdenlive:clip_type">2</property>
  <property name="kdenlive:folderid">16</property>
  <property name="kdenlive:id">134</property>
  <property name="mute_on_pause">0</property>
  <property name="kdenlive:file_size">112351</property>
  <property name="kdenlive:file_hash">c77592a9185844ce835284f460ac45b0</property>
  <property name="kdenlive:proxy">/home/xiaoxiae/.cache/kdenlive/proxy/c77592a9185844ce835284f460ac45b0.mkv</property>
  <property name="kdenlive:originalurl">video/Farmer/6.mp4</property>
  <property name="kdenlive:original.mlt_type">chain</property>
  <property name="kdenlive:original.in">0</property>
  <property name="kdenlive:original.out">00:00:00.983</property>
  <property name="kdenlive:original.length">60</property>
  <property name="kdenlive:original.eof">pause</property>
  <property name="kdenlive:original.resource">video/Farmer/6.mp4</property>
  <property name="kdenlive:original.mlt_service">avformat-novalidate</property>
  <property name="kdenlive:original.meta.media.nb_streams">1</property>
  <property name="kdenlive:original.meta.media.0.stream.type">video</property>
  <property name="kdenlive:original.meta.media.0.stream.frame_rate">60</property>
  <property name="kdenlive:original.meta.media.0.stream.sample_aspect_ratio">0</property>
  <property name="kdenlive:original.meta.media.0.codec.width">1920</property>
  <property name="kdenlive:original.meta.media.0.codec.height">1080</property>
  <property name="kdenlive:original.meta.media.0.codec.rotate">0</property>
  <property name="kdenlive:original.meta.media.0.codec.pix_fmt">yuv420p</property>
  <property name="kdenlive:original.meta.media.0.codec.sample_aspect_ratio">0</property>
  <property name="kdenlive:original.meta.media.0.codec.colorspace">709</property>
  <property name="kdenlive:original.meta.media.0.codec.name">h264</property>
  <property name="kdenlive:original.meta.media.0.codec.long_name">H.264 / AVC / MPEG-4 AVC / MPEG-4 part 10</property>
  <property name="kdenlive:original.meta.media.0.codec.bit_rate">885752</property>
  <property name="kdenlive:original.meta.attr.0.stream.handler_name.markup">VideoHandler</property>
  <property name="kdenlive:original.meta.attr.0.stream.vendor_id.markup">[0][0][0][0]</property>
  <property name="kdenlive:original.meta.attr.0.stream.encoder.markup">Lavc60.3.100 libx264</property>
  <property name="kdenlive:original.meta.attr.major_brand.markup">isom</property>
  <property name="kdenlive:original.meta.attr.minor_version.markup">512</property>
  <property name="kdenlive:original.meta.attr.compatible_brands.markup">isomiso2avc1mp41</property>
  <property name="kdenlive:original.meta.attr.encoder.markup">Lavf60.3.100</property>
  <property name="kdenlive:original.meta.attr.comment.markup">Rendered with Manim Community v0.17.3</property>
  <property name="kdenlive:original.seekable">1</property>
  <property name="kdenlive:original.width">1920</property>
  <property name="kdenlive:original.height">1080</property>
  <property name="kdenlive:original.meta.media.sample_aspect_num">1</property>
  <property name="kdenlive:original.meta.media.sample_aspect_den">1</property>
  <property name="kdenlive:original.format">3</property>
  <property name="kdenlive:original.audio_index">-1</property>
  <property name="kdenlive:original.video_index">0</property>
  <property name="kdenlive:original.meta.media.frame_rate_num">60</property>
  <property name="kdenlive:original.meta.media.frame_rate_den">1</property>
  <property name="kdenlive:original.meta.media.colorspace">709</property>
  <property name="kdenlive:original.meta.media.color_trc">2</property>
  <property name="kdenlive:original.meta.media.has_b_frames">2</property>
  <property name="kdenlive:original.meta.media.width">1920</property>
  <property name="kdenlive:original.meta.media.height">1080</property>
  <property name="kdenlive:original.meta.media.color_range">mpeg</property>
  <property name="kdenlive:original.meta.media.top_field_first">0</property>
  <property name="kdenlive:original.meta.media.progressive">1</property>
  <property name="kdenlive:original.kdenlive:clip_type">2</property>
  <property name="kdenlive:original.kdenlive:folderid">16</property>
  <property name="kdenlive:original.kdenlive:id">134</property>
  <property name="kdenlive:original.mute_on_pause">0</property>
  <property name="kdenlive:original.kdenlive:file_size">112351</property>
  <property name="kdenlive:original.kdenlive:file_hash">c77592a9185844ce835284f460ac45b0</property>
  <property name="kdenlive:original.backup">1</property>
  <property name="meta.media.nb_streams">1</property>
  <property name="meta.media.0.stream.type">video</property>
  <property name="meta.media.0.stream.frame_rate">60</property>
  <property name="meta.media.0.stream.sample_aspect_ratio">0</property>
  <property name="meta.media.0.codec.width">640</property>
  <property name="meta.media.0.codec.height">360</property>
  <property name="meta.media.0.codec.rotate">0</property>
  <property name="meta.media.0.codec.pix_fmt">yuvj420p</property>
  <property name="meta.media.0.codec.sample_aspect_ratio">0</property>
  <property name="meta.media.0.codec.colorspace">601</property>
  <property name="meta.media.0.codec.name">mjpeg</property>
  <property name="meta.media.0.codec.long_name">MJPEG (Motion JPEG)</property>
  <property name="meta.media.0.codec.bit_rate">0</property>
  <property name="meta.attr.0.stream.HANDLER_NAME.markup">VideoHandler</property>
  <property name="meta.attr.0.stream.VENDOR_ID.markup">[0][0][0][0]</property>
  <property name="meta.attr.0.stream.ENCODER.markup">Lavc60.3.100 mjpeg</property>
  <property name="meta.attr.0.stream.DURATION.markup">00:00:01.000000000</property>
  <property name="meta.attr.COMMENT.markup">Rendered with Manim Community v0.17.3</property>
  <property name="meta.attr.MAJOR_BRAND.markup">isom</property>
  <property name="meta.attr.MINOR_VERSION.markup">512</property>
  <property name="meta.attr.COMPATIBLE_BRANDS.markup">isomiso2avc1mp41</property>
  <property name="meta.attr.ENCODER.markup">Lavf60.3.100</property>
  <property name="meta.media.sample_aspect_num">1</property>
  <property name="meta.media.sample_aspect_den">1</property>
  <property name="meta.media.frame_rate_num">60</property>
  <property name="meta.media.frame_rate_den">1</property>
  <property name="meta.media.colorspace">601</property>
  <property name="meta.media.color_trc">2</property>
  <property name="meta.media.has_b_frames">0</property>
  <property name="meta.media.width">640</property>
  <property name="meta.media.height">360</property>
  <property name="meta.media.color_range">full</property>
  <property name="xml">was here</property>
  <property name="meta.media.top_field_first">0</property>
  <property name="meta.media.progressive">1</property>
  <property name="set.test_audio">1</property>
  <property name="set.test_image">0</property>
 </chain>
 <chain id="chain19" out="00:00:00.983">
  <property name="length">60</property>
  <property name="eof">pause</property>
  <property name="resource">/home/xiaoxiae/.cache/kdenlive/proxy/79bf7ccc34891f95cd345cde7f788f07.mkv</property>
  <property name="mlt_service">avformat-novalidate</property>
  <property name="seekable">1</property>
  <property name="format">3</property>
  <property name="audio_index">-1</property>
  <property name="video_index">0</property>
  <property name="kdenlive:clipname">7.mp4</property>
  <property name="kdenlive:clip_type">2</property>
  <property name="kdenlive:folderid">16</property>
  <property name="kdenlive:id">145</property>
  <property name="mute_on_pause">0</property>
  <property name="kdenlive:file_size">115415</property>
  <property name="kdenlive:file_hash">79bf7ccc34891f95cd345cde7f788f07</property>
  <property name="kdenlive:proxy">/home/xiaoxiae/.cache/kdenlive/proxy/79bf7ccc34891f95cd345cde7f788f07.mkv</property>
  <property name="kdenlive:originalurl">video/Farmer/7.mp4</property>
  <property name="kdenlive:original.mlt_type">chain</property>
  <property name="kdenlive:original.in">0</property>
  <property name="kdenlive:original.out">00:00:00.983</property>
  <property name="kdenlive:original.length">60</property>
  <property name="kdenlive:original.eof">pause</property>
  <property name="kdenlive:original.resource">video/Farmer/7.mp4</property>
  <property name="kdenlive:original.mlt_service">avformat-novalidate</property>
  <property name="kdenlive:original.meta.media.nb_streams">1</property>
  <property name="kdenlive:original.meta.media.0.stream.type">video</property>
  <property name="kdenlive:original.meta.media.0.stream.frame_rate">60</property>
  <property name="kdenlive:original.meta.media.0.stream.sample_aspect_ratio">0</property>
  <property name="kdenlive:original.meta.media.0.codec.width">1920</property>
  <property name="kdenlive:original.meta.media.0.codec.height">1080</property>
  <property name="kdenlive:original.meta.media.0.codec.rotate">0</property>
  <property name="kdenlive:original.meta.media.0.codec.pix_fmt">yuv420p</property>
  <property name="kdenlive:original.meta.media.0.codec.sample_aspect_ratio">0</property>
  <property name="kdenlive:original.meta.media.0.codec.colorspace">709</property>
  <property name="kdenlive:original.meta.media.0.codec.name">h264</property>
  <property name="kdenlive:original.meta.media.0.codec.long_name">H.264 / AVC / MPEG-4 AVC / MPEG-4 part 10</property>
  <property name="kdenlive:original.meta.media.0.codec.bit_rate">910264</property>
  <property name="kdenlive:original.meta.attr.0.stream.handler_name.markup">VideoHandler</property>
  <property name="kdenlive:original.meta.attr.0.stream.vendor_id.markup">[0][0][0][0]</property>
  <property name="kdenlive:original.meta.attr.0.stream.encoder.markup">Lavc60.3.100 libx264</property>
  <property name="kdenlive:original.meta.attr.major_brand.markup">isom</property>
  <property name="kdenlive:original.meta.attr.minor_version.markup">512</property>
  <property name="kdenlive:original.meta.attr.compatible_brands.markup">isomiso2avc1mp41</property>
  <property name="kdenlive:original.meta.attr.encoder.markup">Lavf60.3.100</property>
  <property name="kdenlive:original.meta.attr.comment.markup">Rendered with Manim Community v0.17.3</property>
  <property name="kdenlive:original.seekable">1</property>
  <property name="kdenlive:original.width">1920</property>
  <property name="kdenlive:original.height">1080</property>
  <property name="kdenlive:original.meta.media.sample_aspect_num">1</property>
  <property name="kdenlive:original.meta.media.sample_aspect_den">1</property>
  <property name="kdenlive:original.format">3</property>
  <property name="kdenlive:original.audio_index">-1</property>
  <property name="kdenlive:original.video_index">0</property>
  <property name="kdenlive:original.meta.media.frame_rate_num">60</property>
  <property name="kdenlive:original.meta.media.frame_rate_den">1</property>
  <property name="kdenlive:original.meta.media.colorspace">709</property>
  <property name="kdenlive:original.meta.media.color_trc">2</property>
  <property name="kdenlive:original.meta.media.has_b_frames">2</property>
  <property name="kdenlive:original.meta.media.width">1920</property>
  <property name="kdenlive:original.meta.media.height">1080</property>
  <property name="kdenlive:original.meta.media.color_range">mpeg</property>
  <property name="kdenlive:original.meta.media.top_field_first">0</property>
  <property name="kdenlive:original.meta.media.progressive">1</property>
  <property name="kdenlive:original.kdenlive:clip_type">2</property>
  <property name="kdenlive:original.kdenlive:folderid">16</property>
  <property name="kdenlive:original.kdenlive:id">145</property>
  <property name="kdenlive:original.mute_on_pause">0</property>
  <property name="kdenlive:original.kdenlive:file_size">115415</property>
  <property name="kdenlive:original.kdenlive:file_hash">79bf7ccc34891f95cd345cde7f788f07</property>
  <property name="kdenlive:original.backup">1</property>
  <property name="meta.media.nb_streams">1</property>
  <property name="meta.media.0.stream.type">video</property>
  <property name="meta.media.0.stream.frame_rate">60</property>
  <property name="meta.media.0.stream.sample_aspect_ratio">0</property>
  <property name="meta.media.0.codec.width">640</property>
  <property name="meta.media.0.codec.height">360</property>
  <property name="meta.media.0.codec.rotate">0</property>
  <property name="meta.media.0.codec.pix_fmt">yuvj420p</property>
  <property name="meta.media.0.codec.sample_aspect_ratio">0</property>
  <property name="meta.media.0.codec.colorspace">601</property>
  <property name="meta.media.0.codec.name">mjpeg</property>
  <property name="meta.media.0.codec.long_name">MJPEG (Motion JPEG)</property>
  <property name="meta.media.0.codec.bit_rate">0</property>
  <property name="meta.attr.0.stream.HANDLER_NAME.markup">VideoHandler</property>
  <property name="meta.attr.0.stream.VENDOR_ID.markup">[0][0][0][0]</property>
  <property name="meta.attr.0.stream.ENCODER.markup">Lavc60.3.100 mjpeg</property>
  <property name="meta.attr.0.stream.DURATION.markup">00:00:01.000000000</property>
  <property name="meta.attr.COMMENT.markup">Rendered with Manim Community v0.17.3</property>
  <property name="meta.attr.MAJOR_BRAND.markup">isom</property>
  <property name="meta.attr.MINOR_VERSION.markup">512</property>
  <property name="meta.attr.COMPATIBLE_BRANDS.markup">isomiso2avc1mp41</property>
  <property name="meta.attr.ENCODER.markup">Lavf60.3.100</property>
  <property name="meta.media.sample_aspect_num">1</property>
  <property name="meta.media.sample_aspect_den">1</property>
  <property name="meta.media.frame_rate_num">60</property>
  <property name="meta.media.frame_rate_den">1</property>
  <property name="meta.media.colorspace">601</property>
  <property name="meta.media.color_trc">2</property>
  <property name="meta.media.has_b_frames">0</property>
  <property name="meta.media.width">640</property>
  <property name="meta.media.height">360</property>
  <property name="meta.media.color_range">full</property>
  <property name="xml">was here</property>
  <property name="meta.media.top_field_first">0</property>
  <property name="meta.media.progressive">1</property>
  <property name="set.test_audio">1</property>
  <property name="set.test_image">0</property>
 </chain>
 <chain id="chain20" out="00:00:00.633">
  <property name="length">39</property>
  <property name="eof">pause</property>
  <property name="resource">/home/xiaoxiae/.cache/kdenlive/proxy/75071e1ab1742f8db93f1cf93b3ff856.mkv</property>
  <property name="mlt_service">avformat-novalidate</property>
  <property name="seekable">1</property>
  <property name="format">3</property>
  <property name="audio_index">-1</property>
  <property name="video_index">0</property>
  <property name="kdenlive:clipname">8.mp4</property>
  <property name="kdenlive:clip_type">2</property>
  <property name="kdenlive:folderid">16</property>
  <property name="kdenlive:id">156</property>
  <property name="mute_on_pause">0</property>
  <property name="kdenlive:file_size">109511</property>
  <property name="kdenlive:file_hash">75071e1ab1742f8db93f1cf93b3ff856</property>
  <property name="kdenlive:proxy">/home/xiaoxiae/.cache/kdenlive/proxy/75071e1ab1742f8db93f1cf93b3ff856.mkv</property>
  <property name="kdenlive:originalurl">video/Farmer/8.mp4</property>
  <property name="kdenlive:original.mlt_type">chain</property>
  <property name="kdenlive:original.in">0</property>
  <property name="kdenlive:original.out">00:00:00.633</property>
  <property name="kdenlive:original.length">39</property>
  <property name="kdenlive:original.eof">pause</property>
  <property name="kdenlive:original.resource">video/Farmer/8.mp4</property>
  <property name="kdenlive:original.mlt_service">avformat-novalidate</property>
  <property name="kdenlive:original.meta.media.nb_streams">1</property>
  <property name="kdenlive:original.meta.media.0.stream.type">video</property>
  <property name="kdenlive:original.meta.media.0.stream.frame_rate">60</property>
  <property name="kdenlive:original.meta.media.0.stream.sample_aspect_ratio">0</property>
  <property name="kdenlive:original.meta.media.0.codec.width">1920</property>
  <property name="kdenlive:original.meta.media.0.codec.height">1080</property>
  <property name="kdenlive:original.meta.media.0.codec.rotate">0</property>
  <property name="kdenlive:original.meta.media.0.codec.pix_fmt">yuv420p</property>
  <property name="kdenlive:original.meta.media.0.codec.sample_aspect_ratio">0</property>
  <property name="kdenlive:original.meta.media.0.codec.colorspace">709</property>
  <property name="kdenlive:original.meta.media.0.codec.name">h264</property>
  <property name="kdenlive:original.meta.media.0.codec.long_name">H.264 / AVC / MPEG-4 AVC / MPEG-4 part 10</property>
  <property name="kdenlive:original.meta.media.0.codec.bit_rate">1330744</property>
  <property name="kdenlive:original.meta.attr.0.stream.handler_name.markup">VideoHandler</property>
  <property name="kdenlive:original.meta.attr.0.stream.vendor_id.markup">[0][0][0][0]</property>
  <property name="kdenlive:original.meta.attr.0.stream.encoder.markup">Lavc60.3.100 libx264</property>
  <property name="kdenlive:original.meta.attr.major_brand.markup">isom</property>
  <property name="kdenlive:original.meta.attr.minor_version.markup">512</property>
  <property name="kdenlive:original.meta.attr.compatible_brands.markup">isomiso2avc1mp41</property>
  <property name="kdenlive:original.meta.attr.encoder.markup">Lavf60.3.100</property>
  <property name="kdenlive:original.meta.attr.comment.markup">Rendered with Manim Community v0.17.3</property>
  <property name="kdenlive:original.seekable">1</property>
  <property name="kdenlive:original.width">1920</property>
  <property name="kdenlive:original.height">1080</property>
  <property name="kdenlive:original.meta.media.sample_aspect_num">1</property>
  <property name="kdenlive:original.meta.media.sample_aspect_den">1</property>
  <property name="kdenlive:original.format">3</property>
  <property name="kdenlive:original.audio_index">-1</property>
  <property name="kdenlive:original.video_index">0</property>
  <property name="kdenlive:original.meta.media.frame_rate_num">60</property>
  <property name="kdenlive:original.meta.media.frame_rate_den">1</property>
  <property name="kdenlive:original.meta.media.colorspace">709</property>
  <property name="kdenlive:original.meta.media.color_trc">2</property>
  <property name="kdenlive:original.meta.media.has_b_frames">2</property>
  <property name="kdenlive:original.meta.media.width">1920</property>
  <property name="kdenlive:original.meta.media.height">1080</property>
  <property name="kdenlive:original.meta.media.color_range">mpeg</property>
  <property name="kdenlive:original.meta.media.top_field_first">0</property>
  <property name="kdenlive:original.meta.media.progressive">1</property>
  <property name="kdenlive:original.kdenlive:clip_type">2</property>
  <property name="kdenlive:original.kdenlive:folderid">16</property>
  <property name="kdenlive:original.kdenlive:id">156</property>
  <property name="kdenlive:original.mute_on_pause">0</property>
  <property name="kdenlive:original.kdenlive:file_size">109511</property>
  <property name="kdenlive:original.kdenlive:file_hash">75071e1ab1742f8db93f1cf93b3ff856</property>
  <property name="kdenlive:original.backup">1</property>
  <property name="meta.media.nb_streams">1</property>
  <property name="meta.media.0.stream.type">video</property>
  <property name="meta.media.0.stream.frame_rate">60</property>
  <property name="meta.media.0.stream.sample_aspect_ratio">0</property>
  <property name="meta.media.0.codec.width">640</property>
  <property name="meta.media.0.codec.height">360</property>
  <property name="meta.media.0.codec.rotate">0</property>
  <property name="meta.media.0.codec.pix_fmt">yuvj420p</property>
  <property name="meta.media.0.codec.sample_aspect_ratio">0</property>
  <property name="meta.media.0.codec.colorspace">601</property>
  <property name="meta.media.0.codec.name">mjpeg</property>
  <property name="meta.media.0.codec.long_name">MJPEG (Motion JPEG)</property>
  <property name="meta.media.0.codec.bit_rate">0</property>
  <property name="meta.attr.0.stream.HANDLER_NAME.markup">VideoHandler</property>
  <property name="meta.attr.0.stream.VENDOR_ID.markup">[0][0][0][0]</property>
  <property name="meta.attr.0.stream.ENCODER.markup">Lavc60.3.100 mjpeg</property>
  <property name="meta.attr.0.stream.DURATION.markup">00:00:00.650000000</property>
  <property name="meta.attr.COMMENT.markup">Rendered with Manim Community v0.17.3</property>
  <property name="meta.attr.MAJOR_BRAND.markup">isom</property>
  <property name="meta.attr.MINOR_VERSION.markup">512</property>
  <property name="meta.attr.COMPATIBLE_BRANDS.markup">isomiso2avc1mp41</property>
  <property name="meta.attr.ENCODER.markup">Lavf60.3.100</property>
  <property name="meta.media.sample_aspect_num">1</property>
  <property name="meta.media.sample_aspect_den">1</property>
  <property name="meta.media.frame_rate_num">60</property>
  <property name="meta.media.frame_rate_den">1</property>
  <property name="meta.media.colorspace">601</property>
  <property name="meta.media.color_trc">2</property>
  <property name="meta.media.has_b_frames">0</property>
  <property name="meta.media.width">640</property>
  <property name="meta.media.height">360</property>
  <property name="meta.media.color_range">full</property>
  <property name="xml">was here</property>
  <property name="meta.media.top_field_first">0</property>
  <property name="meta.media.progressive">1</property>
  <property name="set.test_audio">1</property>
  <property name="set.test_image">0</property>
 </chain>
 <chain id="chain21" out="00:00:00.983">
  <property name="length">60</property>
  <property name="eof">pause</property>
  <property name="resource">/home/xiaoxiae/.cache/kdenlive/proxy/46a29554e8cd1b1fb99ce7e41cbb06ed.mkv</property>
  <property name="mlt_service">avformat-novalidate</property>
  <property name="seekable">1</property>
  <property name="format">3</property>
  <property name="audio_index">-1</property>
  <property name="video_index">0</property>
  <property name="kdenlive:clipname">9.mp4</property>
  <property name="kdenlive:clip_type">2</property>
  <property name="kdenlive:folderid">16</property>
  <property name="kdenlive:id">167</property>
  <property name="mute_on_pause">0</property>
  <property name="kdenlive:file_size">132154</property>
  <property name="kdenlive:file_hash">46a29554e8cd1b1fb99ce7e41cbb06ed</property>
  <property name="kdenlive:proxy">/home/xiaoxiae/.cache/kdenlive/proxy/46a29554e8cd1b1fb99ce7e41cbb06ed.mkv</property>
  <property name="kdenlive:originalurl">video/Farmer/9.mp4</property>
  <property name="kdenlive:original.mlt_type">chain</property>
  <property name="kdenlive:original.in">0</property>
  <property name="kdenlive:original.out">00:00:00.983</property>
  <property name="kdenlive:original.length">60</property>
  <property name="kdenlive:original.eof">pause</property>
  <property name="kdenlive:original.resource">video/Farmer/9.mp4</property>
  <property name="kdenlive:original.mlt_service">avformat-novalidate</property>
  <property name="kdenlive:original.meta.media.nb_streams">1</property>
  <property name="kdenlive:original.meta.media.0.stream.type">video</property>
  <property name="kdenlive:original.meta.media.0.stream.frame_rate">60</property>
  <property name="kdenlive:original.meta.media.0.stream.sample_aspect_ratio">0</property>
  <property name="kdenlive:original.meta.media.0.codec.width">1920</property>
  <property name="kdenlive:original.meta.media.0.codec.height">1080</property>
  <property name="kdenlive:original.meta.media.0.codec.rotate">0</property>
  <property name="kdenlive:original.meta.media.0.codec.pix_fmt">yuv420p</property>
  <property name="kdenlive:original.meta.media.0.codec.sample_aspect_ratio">0</property>
  <property name="kdenlive:original.meta.media.0.codec.colorspace">709</property>
  <property name="kdenlive:original.meta.media.0.codec.name">h264</property>
  <property name="kdenlive:original.meta.media.0.codec.long_name">H.264 / AVC / MPEG-4 AVC / MPEG-4 part 10</property>
  <property name="kdenlive:original.meta.media.0.codec.bit_rate">1044176</property>
  <property name="kdenlive:original.meta.attr.0.stream.handler_name.markup">VideoHandler</property>
  <property name="kdenlive:original.meta.attr.0.stream.vendor_id.markup">[0][0][0][0]</property>
  <property name="kdenlive:original.meta.attr.0.stream.encoder.markup">Lavc60.3.100 libx264</property>
  <property name="kdenlive:original.meta.attr.major_brand.markup">isom</property>
  <property name="kdenlive:original.meta.attr.minor_version.markup">512</property>
  <property name="kdenlive:original.meta.attr.compatible_brands.markup">isomiso2avc1mp41</property>
  <property name="kdenlive:original.meta.attr.encoder.markup">Lavf60.3.100</property>
  <property name="kdenlive:original.meta.attr.comment.markup">Rendered with Manim Community v0.17.3</property>
  <property name="kdenlive:original.seekable">1</property>
  <property name="kdenlive:original.width">1920</property>
  <property name="kdenlive:original.height">1080</property>
  <property name="kdenlive:original.meta.media.sample_aspect_num">1</property>
  <property name="kdenlive:original.meta.media.sample_aspect_den">1</property>
  <property name="kdenlive:original.format">3</property>
  <property name="kdenlive:original.audio_index">-1</property>
  <property name="kdenlive:original.video_index">0</property>
  <property name="kdenlive:original.meta.media.frame_rate_num">60</property>
  <property name="kdenlive:original.meta.media.frame_rate_den">1</property>
  <property name="kdenlive:original.meta.media.colorspace">709</property>
  <property name="kdenlive:original.meta.media.color_trc">2</property>
  <property name="kdenlive:original.meta.media.has_b_frames">2</property>
  <property name="kdenlive:original.meta.media.width">1920</property>
  <property name="kdenlive:original.meta.media.height">1080</property>
  <property name="kdenlive:original.meta.media.color_range">mpeg</property>
  <property name="kdenlive:original.meta.media.top_field_first">0</property>
  <property name="kdenlive:original.meta.media.progressive">1</property>
  <property name="kdenlive:original.kdenlive:clip_type">2</property>
  <property name="kdenlive:original.kdenlive:folderid">16</property>
  <property name="kdenlive:original.kdenlive:id">167</property>
  <property name="kdenlive:original.mute_on_pause">0</property>
  <property name="kdenlive:original.kdenlive:file_size">132154</property>
  <property name="kdenlive:original.kdenlive:file_hash">46a29554e8cd1b1fb99ce7e41cbb06ed</property>
  <property name="kdenlive:original.backup">1</property>
  <property name="meta.media.nb_streams">1</property>
  <property name="meta.media.0.stream.type">video</property>
  <property name="meta.media.0.stream.frame_rate">60</property>
  <property name="meta.media.0.stream.sample_aspect_ratio">0</property>
  <property name="meta.media.0.codec.width">640</property>
  <property name="meta.media.0.codec.height">360</property>
  <property name="meta.media.0.codec.rotate">0</property>
  <property name="meta.media.0.codec.pix_fmt">yuvj420p</property>
  <property name="meta.media.0.codec.sample_aspect_ratio">0</property>
  <property name="meta.media.0.codec.colorspace">601</property>
  <property name="meta.media.0.codec.name">mjpeg</property>
  <property name="meta.media.0.codec.long_name">MJPEG (Motion JPEG)</property>
  <property name="meta.media.0.codec.bit_rate">0</property>
  <property name="meta.attr.0.stream.HANDLER_NAME.markup">VideoHandler</property>
  <property name="meta.attr.0.stream.VENDOR_ID.markup">[0][0][0][0]</property>
  <property name="meta.attr.0.stream.ENCODER.markup">Lavc60.3.100 mjpeg</property>
  <property name="meta.attr.0.stream.DURATION.markup">00:00:01.000000000</property>
  <property name="meta.attr.COMMENT.markup">Rendered with Manim Community v0.17.3</property>
  <property name="meta.attr.MAJOR_BRAND.markup">isom</property>
  <property name="meta.attr.MINOR_VERSION.markup">512</property>
  <property name="meta.attr.COMPATIBLE_BRANDS.markup">isomiso2avc1mp41</property>
  <property name="meta.attr.ENCODER.markup">Lavf60.3.100</property>
  <property name="meta.media.sample_aspect_num">1</property>
  <property name="meta.media.sample_aspect_den">1</property>
  <property name="meta.media.frame_rate_num">60</property>
  <property name="meta.media.frame_rate_den">1</property>
  <property name="meta.media.colorspace">601</property>
  <property name="meta.media.color_trc">2</property>
  <property name="meta.media.has_b_frames">0</property>
  <property name="meta.media.width">640</property>
  <property name="meta.media.height">360</property>
  <property name="meta.media.color_range">full</property>
  <property name="xml">was here</property>
  <property name="meta.media.top_field_first">0</property>
  <property name="meta.media.progressive">1</property>
  <property name="set.test_audio">1</property>
  <property name="set.test_image">0</property>
 </chain>
 <chain id="chain22" out="00:00:00.983">
  <property name="length">60</property>
  <property name="eof">pause</property>
  <property name="resource">/home/xiaoxiae/.cache/kdenlive/proxy/b0a05d607053013a4b9b4077127952bc.mkv</property>
  <property name="mlt_service">avformat-novalidate</property>
  <property name="seekable">1</property>
  <property name="format">3</property>
  <property name="audio_index">-1</property>
  <property name="video_index">0</property>
  <property name="kdenlive:clipname">10.mp4</property>
  <property name="kdenlive:clip_type">2</property>
  <property name="kdenlive:folderid">16</property>
  <property name="kdenlive:id">18</property>
  <property name="mute_on_pause">0</property>
  <property name="kdenlive:file_size">332879</property>
  <property name="kdenlive:file_hash">b0a05d607053013a4b9b4077127952bc</property>
  <property name="kdenlive:proxy">/home/xiaoxiae/.cache/kdenlive/proxy/b0a05d607053013a4b9b4077127952bc.mkv</property>
  <property name="kdenlive:originalurl">video/Farmer/10.mp4</property>
  <property name="kdenlive:original.mlt_type">chain</property>
  <property name="kdenlive:original.in">0</property>
  <property name="kdenlive:original.out">00:00:00.983</property>
  <property name="kdenlive:original.length">60</property>
  <property name="kdenlive:original.eof">pause</property>
  <property name="kdenlive:original.resource">video/Farmer/10.mp4</property>
  <property name="kdenlive:original.mlt_service">avformat-novalidate</property>
  <property name="kdenlive:original.meta.media.nb_streams">1</property>
  <property name="kdenlive:original.meta.media.0.stream.type">video</property>
  <property name="kdenlive:original.meta.media.0.stream.frame_rate">60</property>
  <property name="kdenlive:original.meta.media.0.stream.sample_aspect_ratio">0</property>
  <property name="kdenlive:original.meta.media.0.codec.width">1920</property>
  <property name="kdenlive:original.meta.media.0.codec.height">1080</property>
  <property name="kdenlive:original.meta.media.0.codec.rotate">0</property>
  <property name="kdenlive:original.meta.media.0.codec.pix_fmt">yuv420p</property>
  <property name="kdenlive:original.meta.media.0.codec.sample_aspect_ratio">0</property>
  <property name="kdenlive:original.meta.media.0.codec.colorspace">709</property>
  <property name="kdenlive:original.meta.media.0.codec.name">h264</property>
  <property name="kdenlive:original.meta.media.0.codec.long_name">H.264 / AVC / MPEG-4 AVC / MPEG-4 part 10</property>
  <property name="kdenlive:original.meta.media.0.codec.bit_rate">2651704</property>
  <property name="kdenlive:original.meta.attr.0.stream.handler_name.markup">VideoHandler</property>
  <property name="kdenlive:original.meta.attr.0.stream.vendor_id.markup">[0][0][0][0]</property>
  <property name="kdenlive:original.meta.attr.0.stream.encoder.markup">Lavc60.3.100 libx264</property>
  <property name="kdenlive:original.meta.attr.major_brand.markup">isom</property>
  <property name="kdenlive:original.meta.attr.minor_version.markup">512</property>
  <property name="kdenlive:original.meta.attr.compatible_brands.markup">isomiso2avc1mp41</property>
  <property name="kdenlive:original.meta.attr.encoder.markup">Lavf60.3.100</property>
  <property name="kdenlive:original.meta.attr.comment.markup">Rendered with Manim Community v0.17.3</property>
  <property name="kdenlive:original.seekable">1</property>
  <property name="kdenlive:original.width">1920</property>
  <property name="kdenlive:original.height">1080</property>
  <property name="kdenlive:original.meta.media.sample_aspect_num">1</property>
  <property name="kdenlive:original.meta.media.sample_aspect_den">1</property>
  <property name="kdenlive:original.format">3</property>
  <property name="kdenlive:original.audio_index">-1</property>
  <property name="kdenlive:original.video_index">0</property>
  <property name="kdenlive:original.meta.media.frame_rate_num">60</property>
  <property name="kdenlive:original.meta.media.frame_rate_den">1</property>
  <property name="kdenlive:original.meta.media.colorspace">709</property>
  <property name="kdenlive:original.meta.media.color_trc">2</property>
  <property name="kdenlive:original.meta.media.has_b_frames">2</property>
  <property name="kdenlive:original.meta.media.width">1920</property>
  <property name="kdenlive:original.meta.media.height">1080</property>
  <property name="kdenlive:original.meta.media.color_range">mpeg</property>
  <property name="kdenlive:original.meta.media.top_field_first">0</property>
  <property name="kdenlive:original.meta.media.progressive">1</property>
  <property name="kdenlive:original.kdenlive:clip_type">2</property>
  <property name="kdenlive:original.kdenlive:folderid">16</property>
  <property name="kdenlive:original.kdenlive:id">18</property>
  <property name="kdenlive:original.mute_on_pause">0</property>
  <property name="kdenlive:original.kdenlive:file_size">332879</property>
  <property name="kdenlive:original.kdenlive:file_hash">b0a05d607053013a4b9b4077127952bc</property>
  <property name="kdenlive:original.backup">1</property>
  <property name="meta.media.nb_streams">1</property>
  <property name="meta.media.0.stream.type">video</property>
  <property name="meta.media.0.stream.frame_rate">60</property>
  <property name="meta.media.0.stream.sample_aspect_ratio">0</property>
  <property name="meta.media.0.codec.width">640</property>
  <property name="meta.media.0.codec.height">360</property>
  <property name="meta.media.0.codec.rotate">0</property>
  <property name="meta.media.0.codec.pix_fmt">yuvj420p</property>
  <property name="meta.media.0.codec.sample_aspect_ratio">0</property>
  <property name="meta.media.0.codec.colorspace">601</property>
  <property name="meta.media.0.codec.name">mjpeg</property>
  <property name="meta.media.0.codec.long_name">MJPEG (Motion JPEG)</property>
  <property name="meta.media.0.codec.bit_rate">0</property>
  <property name="meta.attr.0.stream.HANDLER_NAME.markup">VideoHandler</property>
  <property name="meta.attr.0.stream.VENDOR_ID.markup">[0][0][0][0]</property>
  <property name="meta.attr.0.stream.ENCODER.markup">Lavc60.3.100 mjpeg</property>
  <property name="meta.attr.0.stream.DURATION.markup">00:00:01.000000000</property>
  <property name="meta.attr.COMMENT.markup">Rendered with Manim Community v0.17.3</property>
  <property name="meta.attr.MAJOR_BRAND.markup">isom</property>
  <property name="meta.attr.MINOR_VERSION.markup">512</property>
  <property name="meta.attr.COMPATIBLE_BRANDS.markup">isomiso2avc1mp41</property>
  <property name="meta.attr.ENCODER.markup">Lavf60.3.100</property>
  <property name="meta.media.sample_aspect_num">1</property>
  <property name="meta.media.sample_aspect_den">1</property>
  <property name="meta.media.frame_rate_num">60</property>
  <property name="meta.media.frame_rate_den">1</property>
  <property name="meta.media.colorspace">601</property>
  <property name="meta.media.color_trc">2</property>
  <property name="meta.media.has_b_frames">0</property>
  <property name="meta.media.width">640</property>
  <property name="meta.media.height">360</property>
  <property name="meta.media.color_range">full</property>
  <property name="xml">was here</property>
  <property name="meta.media.top_field_first">0</property>
  <property name="meta.media.progressive">1</property>
  <property name="set.test_audio">1</property>
  <property name="set.test_image">0</property>
 </chain>
 <chain id="chain23" out="00:00:01.733">
  <property name="length">105</property>
  <property name="eof">pause</property>
  <property name="resource">/home/xiaoxiae/.cache/kdenlive/proxy/76499b6ebb901725141337b12dd360d9.mkv</property>
  <property name="mlt_service">avformat-novalidate</property>
  <property name="seekable">1</property>
  <property name="format">3</property>
  <property name="audio_index">-1</property>
  <property name="video_index">0</property>
  <property name="kdenlive:clipname">11.mp4</property>
  <property name="kdenlive:clip_type">2</property>
  <property name="kdenlive:folderid">16</property>
  <property name="kdenlive:id">29</property>
  <property name="mute_on_pause">0</property>
  <property name="kdenlive:file_size">160701</property>
  <property name="kdenlive:file_hash">76499b6ebb901725141337b12dd360d9</property>
  <property name="kdenlive:proxy">/home/xiaoxiae/.cache/kdenlive/proxy/76499b6ebb901725141337b12dd360d9.mkv</property>
  <property name="kdenlive:originalurl">video/Farmer/11.mp4</property>
  <property name="kdenlive:original.mlt_type">chain</property>
  <property name="kdenlive:original.in">0</property>
  <property name="kdenlive:original.out">00:00:01.733</property>
  <property name="kdenlive:original.length">105</property>
  <property name="kdenlive:original.eof">pause</property>
  <property name="kdenlive:original.resource">video/Farmer/11.mp4</property>
  <property name="kdenlive:original.mlt_service">avformat-novalidate</property>
  <property name="kdenlive:original.meta.media.nb_streams">1</property>
  <property name="kdenlive:original.meta.media.0.stream.type">video</property>
  <property name="kdenlive:original.meta.media.0.stream.frame_rate">60</property>
  <property name="kdenlive:original.meta.media.0.stream.sample_aspect_ratio">0</property>
  <property name="kdenlive:original.meta.media.0.codec.width">1920</property>
  <property name="kdenlive:original.meta.media.0.codec.height">1080</property>
  <property name="kdenlive:original.meta.media.0.codec.rotate">0</property>
  <property name="kdenlive:original.meta.media.0.codec.pix_fmt">yuv420p</property>
  <property name="kdenlive:original.meta.media.0.codec.sample_aspect_ratio">0</property>
  <property name="kdenlive:original.meta.media.0.codec.colorspace">709</property>
  <property name="kdenlive:original.meta.media.0.codec.name">h264</property>
  <property name="kdenlive:original.meta.media.0.codec.long_name">H.264 / AVC / MPEG-4 AVC / MPEG-4 part 10</property>
  <property name="kdenlive:original.meta.media.0.codec.bit_rate">725106</property>
  <property name="kdenlive:original.meta.attr.0.stream.handler_name.markup">VideoHandler</property>
  <property name="kdenlive:original.meta.attr.0.stream.vendor_id.markup">[0][0][0][0]</property>
  <property name="kdenlive:original.meta.attr.0.stream.encoder.markup">Lavc60.3.100 libx264</property>
  <property name="kdenlive:original.meta.attr.major_brand.markup">isom</property>
  <property name="kdenlive:original.meta.attr.minor_version.markup">512</property>
  <property name="kdenlive:original.meta.attr.compatible_brands.markup">isomiso2avc1mp41</property>
  <property name="kdenlive:original.meta.attr.encoder.markup">Lavf60.3.100</property>
  <property name="kdenlive:original.meta.attr.comment.markup">Rendered with Manim Community v0.17.3</property>
  <property name="kdenlive:original.seekable">1</property>
  <property name="kdenlive:original.width">1920</property>
  <property name="kdenlive:original.height">1080</property>
  <property name="kdenlive:original.meta.media.sample_aspect_num">1</property>
  <property name="kdenlive:original.meta.media.sample_aspect_den">1</property>
  <property name="kdenlive:original.format">3</property>
  <property name="kdenlive:original.audio_index">-1</property>
  <property name="kdenlive:original.video_index">0</property>
  <property name="kdenlive:original.meta.media.frame_rate_num">60</property>
  <property name="kdenlive:original.meta.media.frame_rate_den">1</property>
  <property name="kdenlive:original.meta.media.colorspace">709</property>
  <property name="kdenlive:original.meta.media.color_trc">2</property>
  <property name="kdenlive:original.meta.media.has_b_frames">2</property>
  <property name="kdenlive:original.meta.media.width">1920</property>
  <property name="kdenlive:original.meta.media.height">1080</property>
  <property name="kdenlive:original.meta.media.color_range">mpeg</property>
  <property name="kdenlive:original.meta.media.top_field_first">0</property>
  <property name="kdenlive:original.meta.media.progressive">1</property>
  <property name="kdenlive:original.kdenlive:clip_type">2</property>
  <property name="kdenlive:original.kdenlive:folderid">16</property>
  <property name="kdenlive:original.kdenlive:id">29</property>
  <property name="kdenlive:original.mute_on_pause">0</property>
  <property name="kdenlive:original.kdenlive:file_size">160701</property>
  <property name="kdenlive:original.kdenlive:file_hash">76499b6ebb901725141337b12dd360d9</property>
  <property name="kdenlive:original.backup">1</property>
  <property name="meta.media.nb_streams">1</property>
  <property name="meta.media.0.stream.type">video</property>
  <property name="meta.media.0.stream.frame_rate">60</property>
  <property name="meta.media.0.stream.sample_aspect_ratio">0</property>
  <property name="meta.media.0.codec.width">640</property>
  <property name="meta.media.0.codec.height">360</property>
  <property name="meta.media.0.codec.rotate">0</property>
  <property name="meta.media.0.codec.pix_fmt">yuvj420p</property>
  <property name="meta.media.0.codec.sample_aspect_ratio">0</property>
  <property name="meta.media.0.codec.colorspace">601</property>
  <property name="meta.media.0.codec.name">mjpeg</property>
  <property name="meta.media.0.codec.long_name">MJPEG (Motion JPEG)</property>
  <property name="meta.media.0.codec.bit_rate">0</property>
  <property name="meta.attr.0.stream.HANDLER_NAME.markup">VideoHandler</property>
  <property name="meta.attr.0.stream.VENDOR_ID.markup">[0][0][0][0]</property>
  <property name="meta.attr.0.stream.ENCODER.markup">Lavc60.3.100 mjpeg</property>
  <property name="meta.attr.0.stream.DURATION.markup">00:00:01.750000000</property>
  <property name="meta.attr.COMMENT.markup">Rendered with Manim Community v0.17.3</property>
  <property name="meta.attr.MAJOR_BRAND.markup">isom</property>
  <property name="meta.attr.MINOR_VERSION.markup">512</property>
  <property name="meta.attr.COMPATIBLE_BRANDS.markup">isomiso2avc1mp41</property>
  <property name="meta.attr.ENCODER.markup">Lavf60.3.100</property>
  <property name="meta.media.sample_aspect_num">1</property>
  <property name="meta.media.sample_aspect_den">1</property>
  <property name="meta.media.frame_rate_num">60</property>
  <property name="meta.media.frame_rate_den">1</property>
  <property name="meta.media.colorspace">601</property>
  <property name="meta.media.color_trc">2</property>
  <property name="meta.media.has_b_frames">0</property>
  <property name="meta.media.width">640</property>
  <property name="meta.media.height">360</property>
  <property name="meta.media.color_range">full</property>
  <property name="xml">was here</property>
  <property name="meta.media.top_field_first">0</property>
  <property name="meta.media.progressive">1</property>
  <property name="set.test_audio">1</property>
  <property name="set.test_image">0</property>
 </chain>
 <chain id="chain24" out="00:00:01.233">
  <property name="length">75</property>
  <property name="eof">pause</property>
  <property name="resource">/home/xiaoxiae/.cache/kdenlive/proxy/fb31714ecac6ebca221806611227b029.mkv</property>
  <property name="mlt_service">avformat-novalidate</property>
  <property name="seekable">1</property>
  <property name="format">3</property>
  <property name="audio_index">-1</property>
  <property name="video_index">0</property>
  <property name="kdenlive:clipname">12.mp4</property>
  <property name="kdenlive:clip_type">2</property>
  <property name="kdenlive:folderid">16</property>
  <property name="kdenlive:id">40</property>
  <property name="mute_on_pause">0</property>
  <property name="kdenlive:file_size">66360</property>
  <property name="kdenlive:file_hash">fb31714ecac6ebca221806611227b029</property>
  <property name="kdenlive:proxy">/home/xiaoxiae/.cache/kdenlive/proxy/fb31714ecac6ebca221806611227b029.mkv</property>
  <property name="kdenlive:originalurl">video/Farmer/12.mp4</property>
  <property name="kdenlive:original.mlt_type">chain</property>
  <property name="kdenlive:original.in">0</property>
  <property name="kdenlive:original.out">00:00:01.233</property>
  <property name="kdenlive:original.length">75</property>
  <property name="kdenlive:original.eof">pause</property>
  <property name="kdenlive:original.resource">video/Farmer/12.mp4</property>
  <property name="kdenlive:original.mlt_service">avformat-novalidate</property>
  <property name="kdenlive:original.meta.media.nb_streams">1</property>
  <property name="kdenlive:original.meta.media.0.stream.type">video</property>
  <property name="kdenlive:original.meta.media.0.stream.frame_rate">60</property>
  <property name="kdenlive:original.meta.media.0.stream.sample_aspect_ratio">0</property>
  <property name="kdenlive:original.meta.media.0.codec.width">1920</property>
  <property name="kdenlive:original.meta.media.0.codec.height">1080</property>
  <property name="kdenlive:original.meta.media.0.codec.rotate">0</property>
  <property name="kdenlive:original.meta.media.0.codec.pix_fmt">yuv420p</property>
  <property name="kdenlive:original.meta.media.0.codec.sample_aspect_ratio">0</property>
  <property name="kdenlive:original.meta.media.0.codec.colorspace">709</property>
  <property name="kdenlive:original.meta.media.0.codec.name">h264</property>
  <property name="kdenlive:original.meta.media.0.codec.long_name">H.264 / AVC / MPEG-4 AVC / MPEG-4 part 10</property>
  <property name="kdenlive:original.meta.media.0.codec.bit_rate">413056</property>
  <property name="kdenlive:original.meta.attr.0.stream.handler_name.markup">VideoHandler</property>
  <property name="kdenlive:original.meta.attr.0.stream.vendor_id.markup">[0][0][0][0]</property>
  <property name="kdenlive:original.meta.attr.0.stream.encoder.markup">Lavc60.3.100 libx264</property>
  <property name="kdenlive:original.meta.attr.major_brand.markup">isom</property>
  <property name="kdenlive:original.meta.attr.minor_version.markup">512</property>
  <property name="kdenlive:original.meta.attr.compatible_brands.markup">isomiso2avc1mp41</property>
  <property name="kdenlive:original.meta.attr.encoder.markup">Lavf60.3.100</property>
  <property name="kdenlive:original.meta.attr.comment.markup">Rendered with Manim Community v0.17.3</property>
  <property name="kdenlive:original.seekable">1</property>
  <property name="kdenlive:original.width">1920</property>
  <property name="kdenlive:original.height">1080</property>
  <property name="kdenlive:original.meta.media.sample_aspect_num">1</property>
  <property name="kdenlive:original.meta.media.sample_aspect_den">1</property>
  <property name="kdenlive:original.format">3</property>
  <property name="kdenlive:original.audio_index">-1</property>
  <property name="kdenlive:original.video_index">0</property>
  <property name="kdenlive:original.meta.media.frame_rate_num">60</property>
  <property name="kdenlive:original.meta.media.frame_rate_den">1</property>
  <property name="kdenlive:original.meta.media.colorspace">709</property>
  <property name="kdenlive:original.meta.media.color_trc">2</property>
  <property name="kdenlive:original.meta.media.has_b_frames">2</property>
  <property name="kdenlive:original.meta.media.width">1920</property>
  <property name="kdenlive:original.meta.media.height">1080</property>
  <property name="kdenlive:original.meta.media.color_range">mpeg</property>
  <property name="kdenlive:original.meta.media.top_field_first">0</property>
  <property name="kdenlive:original.meta.media.progressive">1</property>
  <property name="kdenlive:original.kdenlive:clip_type">2</property>
  <property name="kdenlive:original.kdenlive:folderid">16</property>
  <property name="kdenlive:original.kdenlive:id">40</property>
  <property name="kdenlive:original.mute_on_pause">0</property>
  <property name="kdenlive:original.kdenlive:file_size">66360</property>
  <property name="kdenlive:original.kdenlive:file_hash">fb31714ecac6ebca221806611227b029</property>
  <property name="kdenlive:original.backup">1</property>
  <property name="meta.media.nb_streams">1</property>
  <property name="meta.media.0.stream.type">video</property>
  <property name="meta.media.0.stream.frame_rate">60</property>
  <property name="meta.media.0.stream.sample_aspect_ratio">0</property>
  <property name="meta.media.0.codec.width">640</property>
  <property name="meta.media.0.codec.height">360</property>
  <property name="meta.media.0.codec.rotate">0</property>
  <property name="meta.media.0.codec.pix_fmt">yuvj420p</property>
  <property name="meta.media.0.codec.sample_aspect_ratio">0</property>
  <property name="meta.media.0.codec.colorspace">601</property>
  <property name="meta.media.0.codec.name">mjpeg</property>
  <property name="meta.media.0.codec.long_name">MJPEG (Motion JPEG)</property>
  <property name="meta.media.0.codec.bit_rate">0</property>
  <property name="meta.attr.0.stream.HANDLER_NAME.markup">VideoHandler</property>
  <property name="meta.attr.0.stream.VENDOR_ID.markup">[0][0][0][0]</property>
  <property name="meta.attr.0.stream.ENCODER.markup">Lavc60.3.100 mjpeg</property>
  <property name="meta.attr.0.stream.DURATION.markup">00:00:01.250000000</property>
  <property name="meta.attr.COMMENT.markup">Rendered with Manim Community v0.17.3</property>
  <property name="meta.attr.MAJOR_BRAND.markup">isom</property>
  <property name="meta.attr.MINOR_VERSION.markup">512</property>
  <property name="meta.attr.COMPATIBLE_BRANDS.markup">isomiso2avc1mp41</property>
  <property name="meta.attr.ENCODER.markup">Lavf60.3.100</property>
  <property name="meta.media.sample_aspect_num">1</property>
  <property name="meta.media.sample_aspect_den">1</property>
  <property name="meta.media.frame_rate_num">60</property>
  <property name="meta.media.frame_rate_den">1</property>
  <property name="meta.media.colorspace">601</property>
  <property name="meta.media.color_trc">2</property>
  <property name="meta.media.has_b_frames">0</property>
  <property name="meta.media.width">640</property>
  <property name="meta.media.height">360</property>
  <property name="meta.media.color_range">full</property>
  <property name="xml">was here</property>
  <property name="meta.media.top_field_first">0</property>
  <property name="meta.media.progressive">1</property>
  <property name="set.test_audio">1</property>
  <property name="set.test_image">0</property>
 </chain>
 <chain id="chain25" out="00:00:01.483">
  <property name="length">90</property>
  <property name="eof">pause</property>
  <property name="resource">/home/xiaoxiae/.cache/kdenlive/proxy/8c0989178aeca08f679e0d12b7ce0cac.mkv</property>
  <property name="mlt_service">avformat-novalidate</property>
  <property name="seekable">1</property>
  <property name="format">3</property>
  <property name="audio_index">-1</property>
  <property name="video_index">0</property>
  <property name="kdenlive:clipname">13.mp4</property>
  <property name="kdenlive:clip_type">2</property>
  <property name="kdenlive:folderid">16</property>
  <property name="kdenlive:id">51</property>
  <property name="mute_on_pause">0</property>
  <property name="kdenlive:file_size">83731</property>
  <property name="kdenlive:file_hash">8c0989178aeca08f679e0d12b7ce0cac</property>
  <property name="kdenlive:proxy">/home/xiaoxiae/.cache/kdenlive/proxy/8c0989178aeca08f679e0d12b7ce0cac.mkv</property>
  <property name="kdenlive:originalurl">video/Farmer/13.mp4</property>
  <property name="kdenlive:original.mlt_type">chain</property>
  <property name="kdenlive:original.in">0</property>
  <property name="kdenlive:original.out">00:00:01.483</property>
  <property name="kdenlive:original.length">90</property>
  <property name="kdenlive:original.eof">pause</property>
  <property name="kdenlive:original.resource">video/Farmer/13.mp4</property>
  <property name="kdenlive:original.mlt_service">avformat-novalidate</property>
  <property name="kdenlive:original.meta.media.nb_streams">1</property>
  <property name="kdenlive:original.meta.media.0.stream.type">video</property>
  <property name="kdenlive:original.meta.media.0.stream.frame_rate">60</property>
  <property name="kdenlive:original.meta.media.0.stream.sample_aspect_ratio">0</property>
  <property name="kdenlive:original.meta.media.0.codec.width">1920</property>
  <property name="kdenlive:original.meta.media.0.codec.height">1080</property>
  <property name="kdenlive:original.meta.media.0.codec.rotate">0</property>
  <property name="kdenlive:original.meta.media.0.codec.pix_fmt">yuv420p</property>
  <property name="kdenlive:original.meta.media.0.codec.sample_aspect_ratio">0</property>
  <property name="kdenlive:original.meta.media.0.codec.colorspace">709</property>
  <property name="kdenlive:original.meta.media.0.codec.name">h264</property>
  <property name="kdenlive:original.meta.media.0.codec.long_name">H.264 / AVC / MPEG-4 AVC / MPEG-4 part 10</property>
  <property name="kdenlive:original.meta.media.0.codec.bit_rate">435941</property>
  <property name="kdenlive:original.meta.attr.0.stream.handler_name.markup">VideoHandler</property>
  <property name="kdenlive:original.meta.attr.0.stream.vendor_id.markup">[0][0][0][0]</property>
  <property name="kdenlive:original.meta.attr.0.stream.encoder.markup">Lavc60.3.100 libx264</property>
  <property name="kdenlive:original.meta.attr.major_brand.markup">isom</property>
  <property name="kdenlive:original.meta.attr.minor_version.markup">512</property>
  <property name="kdenlive:original.meta.attr.compatible_brands.markup">isomiso2avc1mp41</property>
  <property name="kdenlive:original.meta.attr.encoder.markup">Lavf60.3.100</property>
  <property name="kdenlive:original.meta.attr.comment.markup">Rendered with Manim Community v0.17.3</property>
  <property name="kdenlive:original.seekable">1</property>
  <property name="kdenlive:original.width">1920</property>
  <property name="kdenlive:original.height">1080</property>
  <property name="kdenlive:original.meta.media.sample_aspect_num">1</property>
  <property name="kdenlive:original.meta.media.sample_aspect_den">1</property>
  <property name="kdenlive:original.format">3</property>
  <property name="kdenlive:original.audio_index">-1</property>
  <property name="kdenlive:original.video_index">0</property>
  <property name="kdenlive:original.meta.media.frame_rate_num">60</property>
  <property name="kdenlive:original.meta.media.frame_rate_den">1</property>
  <property name="kdenlive:original.meta.media.colorspace">709</property>
  <property name="kdenlive:original.meta.media.color_trc">2</property>
  <property name="kdenlive:original.meta.media.has_b_frames">2</property>
  <property name="kdenlive:original.meta.media.width">1920</property>
  <property name="kdenlive:original.meta.media.height">1080</property>
  <property name="kdenlive:original.meta.media.color_range">mpeg</property>
  <property name="kdenlive:original.meta.media.top_field_first">0</property>
  <property name="kdenlive:original.meta.media.progressive">1</property>
  <property name="kdenlive:original.kdenlive:clip_type">2</property>
  <property name="kdenlive:original.kdenlive:folderid">16</property>
  <property name="kdenlive:original.kdenlive:id">51</property>
  <property name="kdenlive:original.mute_on_pause">0</property>
  <property name="kdenlive:original.kdenlive:file_size">83731</property>
  <property name="kdenlive:original.kdenlive:file_hash">8c0989178aeca08f679e0d12b7ce0cac</property>
  <property name="kdenlive:original.backup">1</property>
  <property name="meta.media.nb_streams">1</property>
  <property name="meta.media.0.stream.type">video</property>
  <property name="meta.media.0.stream.frame_rate">60</property>
  <property name="meta.media.0.stream.sample_aspect_ratio">0</property>
  <property name="meta.media.0.codec.width">640</property>
  <property name="meta.media.0.codec.height">360</property>
  <property name="meta.media.0.codec.rotate">0</property>
  <property name="meta.media.0.codec.pix_fmt">yuvj420p</property>
  <property name="meta.media.0.codec.sample_aspect_ratio">0</property>
  <property name="meta.media.0.codec.colorspace">601</property>
  <property name="meta.media.0.codec.name">mjpeg</property>
  <property name="meta.media.0.codec.long_name">MJPEG (Motion JPEG)</property>
  <property name="meta.media.0.codec.bit_rate">0</property>
  <property name="meta.attr.0.stream.HANDLER_NAME.markup">VideoHandler</property>
  <property name="meta.attr.0.stream.VENDOR_ID.markup">[0][0][0][0]</property>
  <property name="meta.attr.0.stream.ENCODER.markup">Lavc60.3.100 mjpeg</property>
  <property name="meta.attr.0.stream.DURATION.markup">00:00:01.500000000</property>
  <property name="meta.attr.COMMENT.markup">Rendered with Manim Community v0.17.3</property>
  <property name="meta.attr.MAJOR_BRAND.markup">isom</property>
  <property name="meta.attr.MINOR_VERSION.markup">512</property>
  <property name="meta.attr.COMPATIBLE_BRANDS.markup">isomiso2avc1mp41</property>
  <property name="meta.attr.ENCODER.markup">Lavf60.3.100</property>
  <property name="meta.media.sample_aspect_num">1</property>
  <property name="meta.media.sample_aspect_den">1</property>
  <property name="meta.media.frame_rate_num">60</property>
  <property name="meta.media.frame_rate_den">1</property>
  <property name="meta.media.colorspace">601</property>
  <property name="meta.media.color_trc">2</property>
  <property name="meta.media.has_b_frames">0</property>
  <property name="meta.media.width">640</property>
  <property name="meta.media.height">360</property>
  <property name="meta.media.color_range">full</property>
  <property name="xml">was here</property>
  <property name="meta.media.top_field_first">0</property>
  <property name="meta.media.progressive">1</property>
  <property name="set.test_audio">1</property>
  <property name="set.test_image">0</property>
 </chain>
 <chain id="chain26" out="00:00:01.483">
  <property name="length">90</property>
  <property name="eof">pause</property>
  <property name="resource">/home/xiaoxiae/.cache/kdenlive/proxy/308c1ccb034ee5ad5a06910b53d8d390.mkv</property>
  <property name="mlt_service">avformat-novalidate</property>
  <property name="seekable">1</property>
  <property name="format">3</property>
  <property name="audio_index">-1</property>
  <property name="video_index">0</property>
  <property name="kdenlive:clipname">14.mp4</property>
  <property name="kdenlive:clip_type">2</property>
  <property name="kdenlive:folderid">16</property>
  <property name="kdenlive:id">62</property>
  <property name="mute_on_pause">0</property>
  <property name="kdenlive:file_size">152018</property>
  <property name="kdenlive:file_hash">308c1ccb034ee5ad5a06910b53d8d390</property>
  <property name="kdenlive:proxy">/home/xiaoxiae/.cache/kdenlive/proxy/308c1ccb034ee5ad5a06910b53d8d390.mkv</property>
  <property name="kdenlive:originalurl">video/Farmer/14.mp4</property>
  <property name="kdenlive:original.mlt_type">chain</property>
  <property name="kdenlive:original.in">0</property>
  <property name="kdenlive:original.out">00:00:01.483</property>
  <property name="kdenlive:original.length">90</property>
  <property name="kdenlive:original.eof">pause</property>
  <property name="kdenlive:original.resource">video/Farmer/14.mp4</property>
  <property name="kdenlive:original.mlt_service">avformat-novalidate</property>
  <property name="kdenlive:original.meta.media.nb_streams">1</property>
  <property name="kdenlive:original.meta.media.0.stream.type">video</property>
  <property name="kdenlive:original.meta.media.0.stream.frame_rate">60</property>
  <property name="kdenlive:original.meta.media.0.stream.sample_aspect_ratio">0</property>
  <property name="kdenlive:original.meta.media.0.codec.width">1920</property>
  <property name="kdenlive:original.meta.media.0.codec.height">1080</property>
  <property name="kdenlive:original.meta.media.0.codec.rotate">0</property>
  <property name="kdenlive:original.meta.media.0.codec.pix_fmt">yuv420p</property>
  <property name="kdenlive:original.meta.media.0.codec.sample_aspect_ratio">0</property>
  <property name="kdenlive:original.meta.media.0.codec.colorspace">709</property>
  <property name="kdenlive:original.meta.media.0.codec.name">h264</property>
  <property name="kdenlive:original.meta.media.0.codec.long_name">H.264 / AVC / MPEG-4 AVC / MPEG-4 part 10</property>
  <property name="kdenlive:original.meta.media.0.codec.bit_rate">800522</property>
  <property name="kdenlive:original.meta.attr.0.stream.handler_name.markup">VideoHandler</property>
  <property name="kdenlive:original.meta.attr.0.stream.vendor_id.markup">[0][0][0][0]</property>
  <property name="kdenlive:original.meta.attr.0.stream.encoder.markup">Lavc60.3.100 libx264</property>
  <property name="kdenlive:original.meta.attr.major_brand.markup">isom</property>
  <property name="kdenlive:original.meta.attr.minor_version.markup">512</property>
  <property name="kdenlive:original.meta.attr.compatible_brands.markup">isomiso2avc1mp41</property>
  <property name="kdenlive:original.meta.attr.encoder.markup">Lavf60.3.100</property>
  <property name="kdenlive:original.meta.attr.comment.markup">Rendered with Manim Community v0.17.3</property>
  <property name="kdenlive:original.seekable">1</property>
  <property name="kdenlive:original.width">1920</property>
  <property name="kdenlive:original.height">1080</property>
  <property name="kdenlive:original.meta.media.sample_aspect_num">1</property>
  <property name="kdenlive:original.meta.media.sample_aspect_den">1</property>
  <property name="kdenlive:original.format">3</property>
  <property name="kdenlive:original.audio_index">-1</property>
  <property name="kdenlive:original.video_index">0</property>
  <property name="kdenlive:original.meta.media.frame_rate_num">60</property>
  <property name="kdenlive:original.meta.media.frame_rate_den">1</property>
  <property name="kdenlive:original.meta.media.colorspace">709</property>
  <property name="kdenlive:original.meta.media.color_trc">2</property>
  <property name="kdenlive:original.meta.media.has_b_frames">2</property>
  <property name="kdenlive:original.meta.media.width">1920</property>
  <property name="kdenlive:original.meta.media.height">1080</property>
  <property name="kdenlive:original.meta.media.color_range">mpeg</property>
  <property name="kdenlive:original.meta.media.top_field_first">0</property>
  <property name="kdenlive:original.meta.media.progressive">1</property>
  <property name="kdenlive:original.kdenlive:clip_type">2</property>
  <property name="kdenlive:original.kdenlive:folderid">16</property>
  <property name="kdenlive:original.kdenlive:id">62</property>
  <property name="kdenlive:original.mute_on_pause">0</property>
  <property name="kdenlive:original.kdenlive:file_size">152018</property>
  <property name="kdenlive:original.kdenlive:file_hash">308c1ccb034ee5ad5a06910b53d8d390</property>
  <property name="kdenlive:original.backup">1</property>
  <property name="meta.media.nb_streams">1</property>
  <property name="meta.media.0.stream.type">video</property>
  <property name="meta.media.0.stream.frame_rate">60</property>
  <property name="meta.media.0.stream.sample_aspect_ratio">0</property>
  <property name="meta.media.0.codec.width">640</property>
  <property name="meta.media.0.codec.height">360</property>
  <property name="meta.media.0.codec.rotate">0</property>
  <property name="meta.media.0.codec.pix_fmt">yuvj420p</property>
  <property name="meta.media.0.codec.sample_aspect_ratio">0</property>
  <property name="meta.media.0.codec.colorspace">601</property>
  <property name="meta.media.0.codec.name">mjpeg</property>
  <property name="meta.media.0.codec.long_name">MJPEG (Motion JPEG)</property>
  <property name="meta.media.0.codec.bit_rate">0</property>
  <property name="meta.attr.0.stream.HANDLER_NAME.markup">VideoHandler</property>
  <property name="meta.attr.0.stream.VENDOR_ID.markup">[0][0][0][0]</property>
  <property name="meta.attr.0.stream.ENCODER.markup">Lavc60.3.100 mjpeg</property>
  <property name="meta.attr.0.stream.DURATION.markup">00:00:01.500000000</property>
  <property name="meta.attr.COMMENT.markup">Rendered with Manim Community v0.17.3</property>
  <property name="meta.attr.MAJOR_BRAND.markup">isom</property>
  <property name="meta.attr.MINOR_VERSION.markup">512</property>
  <property name="meta.attr.COMPATIBLE_BRANDS.markup">isomiso2avc1mp41</property>
  <property name="meta.attr.ENCODER.markup">Lavf60.3.100</property>
  <property name="meta.media.sample_aspect_num">1</property>
  <property name="meta.media.sample_aspect_den">1</property>
  <property name="meta.media.frame_rate_num">60</property>
  <property name="meta.media.frame_rate_den">1</property>
  <property name="meta.media.colorspace">601</property>
  <property name="meta.media.color_trc">2</property>
  <property name="meta.media.has_b_frames">0</property>
  <property name="meta.media.width">640</property>
  <property name="meta.media.height">360</property>
  <property name="meta.media.color_range">full</property>
  <property name="xml">was here</property>
  <property name="meta.media.top_field_first">0</property>
  <property name="meta.media.progressive">1</property>
  <property name="set.test_audio">1</property>
  <property name="set.test_image">0</property>
 </chain>
 <chain id="chain27" out="00:00:01.983">
  <property name="length">120</property>
  <property name="eof">pause</property>
  <property name="resource">/home/xiaoxiae/.cache/kdenlive/proxy/519b40a3decd4df29f9d736939537b12.mkv</property>
  <property name="mlt_service">avformat-novalidate</property>
  <property name="seekable">1</property>
  <property name="format">3</property>
  <property name="audio_index">-1</property>
  <property name="video_index">0</property>
  <property name="kdenlive:clipname">15.mp4</property>
  <property name="kdenlive:clip_type">2</property>
  <property name="kdenlive:folderid">16</property>
  <property name="kdenlive:id">73</property>
  <property name="mute_on_pause">0</property>
  <property name="kdenlive:file_size">194390</property>
  <property name="kdenlive:file_hash">519b40a3decd4df29f9d736939537b12</property>
  <property name="kdenlive:proxy">/home/xiaoxiae/.cache/kdenlive/proxy/519b40a3decd4df29f9d736939537b12.mkv</property>
  <property name="kdenlive:originalurl">video/Farmer/15.mp4</property>
  <property name="kdenlive:original.mlt_type">chain</property>
  <property name="kdenlive:original.in">0</property>
  <property name="kdenlive:original.out">00:00:01.983</property>
  <property name="kdenlive:original.length">120</property>
  <property name="kdenlive:original.eof">pause</property>
  <property name="kdenlive:original.resource">video/Farmer/15.mp4</property>
  <property name="kdenlive:original.mlt_service">avformat-novalidate</property>
  <property name="kdenlive:original.meta.media.nb_streams">1</property>
  <property name="kdenlive:original.meta.media.0.stream.type">video</property>
  <property name="kdenlive:original.meta.media.0.stream.frame_rate">60</property>
  <property name="kdenlive:original.meta.media.0.stream.sample_aspect_ratio">0</property>
  <property name="kdenlive:original.meta.media.0.codec.width">1920</property>
  <property name="kdenlive:original.meta.media.0.codec.height">1080</property>
  <property name="kdenlive:original.meta.media.0.codec.rotate">0</property>
  <property name="kdenlive:original.meta.media.0.codec.pix_fmt">yuv420p</property>
  <property name="kdenlive:original.meta.media.0.codec.sample_aspect_ratio">0</property>
  <property name="kdenlive:original.meta.media.0.codec.colorspace">709</property>
  <property name="kdenlive:original.meta.media.0.codec.name">h264</property>
  <property name="kdenlive:original.meta.media.0.codec.long_name">H.264 / AVC / MPEG-4 AVC / MPEG-4 part 10</property>
  <property name="kdenlive:original.meta.media.0.codec.bit_rate">768824</property>
  <property name="kdenlive:original.meta.attr.0.stream.handler_name.markup">VideoHandler</property>
  <property name="kdenlive:original.meta.attr.0.stream.vendor_id.markup">[0][0][0][0]</property>
  <property name="kdenlive:original.meta.attr.0.stream.encoder.markup">Lavc60.3.100 libx264</property>
  <property name="kdenlive:original.meta.attr.major_brand.markup">isom</property>
  <property name="kdenlive:original.meta.attr.minor_version.markup">512</property>
  <property name="kdenlive:original.meta.attr.compatible_brands.markup">isomiso2avc1mp41</property>
  <property name="kdenlive:original.meta.attr.encoder.markup">Lavf60.3.100</property>
  <property name="kdenlive:original.meta.attr.comment.markup">Rendered with Manim Community v0.17.3</property>
  <property name="kdenlive:original.seekable">1</property>
  <property name="kdenlive:original.width">1920</property>
  <property name="kdenlive:original.height">1080</property>
  <property name="kdenlive:original.meta.media.sample_aspect_num">1</property>
  <property name="kdenlive:original.meta.media.sample_aspect_den">1</property>
  <property name="kdenlive:original.format">3</property>
  <property name="kdenlive:original.audio_index">-1</property>
  <property name="kdenlive:original.video_index">0</property>
  <property name="kdenlive:original.meta.media.frame_rate_num">60</property>
  <property name="kdenlive:original.meta.media.frame_rate_den">1</property>
  <property name="kdenlive:original.meta.media.colorspace">709</property>
  <property name="kdenlive:original.meta.media.color_trc">2</property>
  <property name="kdenlive:original.meta.media.has_b_frames">2</property>
  <property name="kdenlive:original.meta.media.width">1920</property>
  <property name="kdenlive:original.meta.media.height">1080</property>
  <property name="kdenlive:original.meta.media.color_range">mpeg</property>
  <property name="kdenlive:original.meta.media.top_field_first">0</property>
  <property name="kdenlive:original.meta.media.progressive">1</property>
  <property name="kdenlive:original.kdenlive:clip_type">2</property>
  <property name="kdenlive:original.kdenlive:folderid">16</property>
  <property name="kdenlive:original.kdenlive:id">73</property>
  <property name="kdenlive:original.mute_on_pause">0</property>
  <property name="kdenlive:original.kdenlive:file_size">194390</property>
  <property name="kdenlive:original.kdenlive:file_hash">519b40a3decd4df29f9d736939537b12</property>
  <property name="kdenlive:original.backup">1</property>
  <property name="meta.media.nb_streams">1</property>
  <property name="meta.media.0.stream.type">video</property>
  <property name="meta.media.0.stream.frame_rate">60</property>
  <property name="meta.media.0.stream.sample_aspect_ratio">0</property>
  <property name="meta.media.0.codec.width">640</property>
  <property name="meta.media.0.codec.height">360</property>
  <property name="meta.media.0.codec.rotate">0</property>
  <property name="meta.media.0.codec.pix_fmt">yuvj420p</property>
  <property name="meta.media.0.codec.sample_aspect_ratio">0</property>
  <property name="meta.media.0.codec.colorspace">601</property>
  <property name="meta.media.0.codec.name">mjpeg</property>
  <property name="meta.media.0.codec.long_name">MJPEG (Motion JPEG)</property>
  <property name="meta.media.0.codec.bit_rate">0</property>
  <property name="meta.attr.0.stream.HANDLER_NAME.markup">VideoHandler</property>
  <property name="meta.attr.0.stream.VENDOR_ID.markup">[0][0][0][0]</property>
  <property name="meta.attr.0.stream.ENCODER.markup">Lavc60.3.100 mjpeg</property>
  <property name="meta.attr.0.stream.DURATION.markup">00:00:02.000000000</property>
  <property name="meta.attr.COMMENT.markup">Rendered with Manim Community v0.17.3</property>
  <property name="meta.attr.MAJOR_BRAND.markup">isom</property>
  <property name="meta.attr.MINOR_VERSION.markup">512</property>
  <property name="meta.attr.COMPATIBLE_BRANDS.markup">isomiso2avc1mp41</property>
  <property name="meta.attr.ENCODER.markup">Lavf60.3.100</property>
  <property name="meta.media.sample_aspect_num">1</property>
  <property name="meta.media.sample_aspect_den">1</property>
  <property name="meta.media.frame_rate_num">60</property>
  <property name="meta.media.frame_rate_den">1</property>
  <property name="meta.media.colorspace">601</property>
  <property name="meta.media.color_trc">2</property>
  <property name="meta.media.has_b_frames">0</property>
  <property name="meta.media.width">640</property>
  <property name="meta.media.height">360</property>
  <property name="meta.media.color_range">full</property>
  <property name="xml">was here</property>
  <property name="meta.media.top_field_first">0</property>
  <property name="meta.media.progressive">1</property>
  <property name="set.test_audio">1</property>
  <property name="set.test_image">0</property>
 </chain>
 <chain id="chain28" out="00:00:00.983">
  <property name="length">60</property>
  <property name="eof">pause</property>
  <property name="resource">/home/xiaoxiae/.cache/kdenlive/proxy/ae251f3d630d8d83317a33e72ecab7bc.mkv</property>
  <property name="mlt_service">avformat-novalidate</property>
  <property name="seekable">1</property>
  <property name="format">3</property>
  <property name="audio_index">-1</property>
  <property name="video_index">0</property>
  <property name="kdenlive:clipname">16.mp4</property>
  <property name="kdenlive:clip_type">2</property>
  <property name="kdenlive:folderid">16</property>
  <property name="kdenlive:id">84</property>
  <property name="mute_on_pause">0</property>
  <property name="kdenlive:file_size">91584</property>
  <property name="kdenlive:file_hash">ae251f3d630d8d83317a33e72ecab7bc</property>
  <property name="kdenlive:proxy">/home/xiaoxiae/.cache/kdenlive/proxy/ae251f3d630d8d83317a33e72ecab7bc.mkv</property>
  <property name="kdenlive:originalurl">video/Farmer/16.mp4</property>
  <property name="kdenlive:original.mlt_type">chain</property>
  <property name="kdenlive:original.in">0</property>
  <property name="kdenlive:original.out">00:00:00.983</property>
  <property name="kdenlive:original.length">60</property>
  <property name="kdenlive:original.eof">pause</property>
  <property name="kdenlive:original.resource">video/Farmer/16.mp4</property>
  <property name="kdenlive:original.mlt_service">avformat-novalidate</property>
  <property name="kdenlive:original.meta.media.nb_streams">1</property>
  <property name="kdenlive:original.meta.media.0.stream.type">video</property>
  <property name="kdenlive:original.meta.media.0.stream.frame_rate">60</property>
  <property name="kdenlive:original.meta.media.0.stream.sample_aspect_ratio">0</property>
  <property name="kdenlive:original.meta.media.0.codec.width">1920</property>
  <property name="kdenlive:original.meta.media.0.codec.height">1080</property>
  <property name="kdenlive:original.meta.media.0.codec.rotate">0</property>
  <property name="kdenlive:original.meta.media.0.codec.pix_fmt">yuv420p</property>
  <property name="kdenlive:original.meta.media.0.codec.sample_aspect_ratio">0</property>
  <property name="kdenlive:original.meta.media.0.codec.colorspace">709</property>
  <property name="kdenlive:original.meta.media.0.codec.name">h264</property>
  <property name="kdenlive:original.meta.media.0.codec.long_name">H.264 / AVC / MPEG-4 AVC / MPEG-4 part 10</property>
  <property name="kdenlive:original.meta.media.0.codec.bit_rate">719872</property>
  <property name="kdenlive:original.meta.attr.0.stream.handler_name.markup">VideoHandler</property>
  <property name="kdenlive:original.meta.attr.0.stream.vendor_id.markup">[0][0][0][0]</property>
  <property name="kdenlive:original.meta.attr.0.stream.encoder.markup">Lavc60.3.100 libx264</property>
  <property name="kdenlive:original.meta.attr.major_brand.markup">isom</property>
  <property name="kdenlive:original.meta.attr.minor_version.markup">512</property>
  <property name="kdenlive:original.meta.attr.compatible_brands.markup">isomiso2avc1mp41</property>
  <property name="kdenlive:original.meta.attr.encoder.markup">Lavf60.3.100</property>
  <property name="kdenlive:original.meta.attr.comment.markup">Rendered with Manim Community v0.17.3</property>
  <property name="kdenlive:original.seekable">1</property>
  <property name="kdenlive:original.width">1920</property>
  <property name="kdenlive:original.height">1080</property>
  <property name="kdenlive:original.meta.media.sample_aspect_num">1</property>
  <property name="kdenlive:original.meta.media.sample_aspect_den">1</property>
  <property name="kdenlive:original.format">3</property>
  <property name="kdenlive:original.audio_index">-1</property>
  <property name="kdenlive:original.video_index">0</property>
  <property name="kdenlive:original.meta.media.frame_rate_num">60</property>
  <property name="kdenlive:original.meta.media.frame_rate_den">1</property>
  <property name="kdenlive:original.meta.media.colorspace">709</property>
  <property name="kdenlive:original.meta.media.color_trc">2</property>
  <property name="kdenlive:original.meta.media.has_b_frames">2</property>
  <property name="kdenlive:original.meta.media.width">1920</property>
  <property name="kdenlive:original.meta.media.height">1080</property>
  <property name="kdenlive:original.meta.media.color_range">mpeg</property>
  <property name="kdenlive:original.meta.media.top_field_first">0</property>
  <property name="kdenlive:original.meta.media.progressive">1</property>
  <property name="kdenlive:original.kdenlive:clip_type">2</property>
  <property name="kdenlive:original.kdenlive:folderid">16</property>
  <property name="kdenlive:original.kdenlive:id">84</property>
  <property name="kdenlive:original.mute_on_pause">0</property>
  <property name="kdenlive:original.kdenlive:file_size">91584</property>
  <property name="kdenlive:original.kdenlive:file_hash">ae251f3d630d8d83317a33e72ecab7bc</property>
  <property name="kdenlive:original.backup">1</property>
  <property name="meta.media.nb_streams">1</property>
  <property name="meta.media.0.stream.type">video</property>
  <property name="meta.media.0.stream.frame_rate">60</property>
  <property name="meta.media.0.stream.sample_aspect_ratio">0</property>
  <property name="meta.media.0.codec.width">640</property>
  <property name="meta.media.0.codec.height">360</property>
  <property name="meta.media.0.codec.rotate">0</property>
  <property name="meta.media.0.codec.pix_fmt">yuvj420p</property>
  <property name="meta.media.0.codec.sample_aspect_ratio">0</property>
  <property name="meta.media.0.codec.colorspace">601</property>
  <property name="meta.media.0.codec.name">mjpeg</property>
  <property name="meta.media.0.codec.long_name">MJPEG (Motion JPEG)</property>
  <property name="meta.media.0.codec.bit_rate">0</property>
  <property name="meta.attr.0.stream.HANDLER_NAME.markup">VideoHandler</property>
  <property name="meta.attr.0.stream.VENDOR_ID.markup">[0][0][0][0]</property>
  <property name="meta.attr.0.stream.ENCODER.markup">Lavc60.3.100 mjpeg</property>
  <property name="meta.attr.0.stream.DURATION.markup">00:00:01.000000000</property>
  <property name="meta.attr.COMMENT.markup">Rendered with Manim Community v0.17.3</property>
  <property name="meta.attr.MAJOR_BRAND.markup">isom</property>
  <property name="meta.attr.MINOR_VERSION.markup">512</property>
  <property name="meta.attr.COMPATIBLE_BRANDS.markup">isomiso2avc1mp41</property>
  <property name="meta.attr.ENCODER.markup">Lavf60.3.100</property>
  <property name="meta.media.sample_aspect_num">1</property>
  <property name="meta.media.sample_aspect_den">1</property>
  <property name="meta.media.frame_rate_num">60</property>
  <property name="meta.media.frame_rate_den">1</property>
  <property name="meta.media.colorspace">601</property>
  <property name="meta.media.color_trc">2</property>
  <property name="meta.media.has_b_frames">0</property>
  <property name="meta.media.width">640</property>
  <property name="meta.media.height">360</property>
  <property name="meta.media.color_range">full</property>
  <property name="xml">was here</property>
  <property name="meta.media.top_field_first">0</property>
  <property name="meta.media.progressive">1</property>
  <property name="set.test_audio">1</property>
  <property name="set.test_image">0</property>
 </chain>
 <chain id="chain29" out="00:00:00.983">
  <property name="length">60</property>
  <property name="eof">pause</property>
  <property name="resource">/home/xiaoxiae/.cache/kdenlive/proxy/b19402f5c04e3df7613bc240fae78d5d.mkv</property>
  <property name="mlt_service">avformat-novalidate</property>
  <property name="seekable">1</property>
  <property name="format">3</property>
  <property name="audio_index">-1</property>
  <property name="video_index">0</property>
  <property name="kdenlive:clipname">17.mp4</property>
  <property name="kdenlive:clip_type">2</property>
  <property name="kdenlive:folderid">16</property>
  <property name="kdenlive:id">87</property>
  <property name="mute_on_pause">0</property>
  <property name="kdenlive:file_size">147962</property>
  <property name="kdenlive:file_hash">b19402f5c04e3df7613bc240fae78d5d</property>
  <property name="kdenlive:proxy">/home/xiaoxiae/.cache/kdenlive/proxy/b19402f5c04e3df7613bc240fae78d5d.mkv</property>
  <property name="kdenlive:originalurl">video/Farmer/17.mp4</property>
  <property name="kdenlive:original.mlt_type">chain</property>
  <property name="kdenlive:original.in">0</property>
  <property name="kdenlive:original.out">00:00:00.983</property>
  <property name="kdenlive:original.length">60</property>
  <property name="kdenlive:original.eof">pause</property>
  <property name="kdenlive:original.resource">video/Farmer/17.mp4</property>
  <property name="kdenlive:original.mlt_service">avformat-novalidate</property>
  <property name="kdenlive:original.meta.media.nb_streams">1</property>
  <property name="kdenlive:original.meta.media.0.stream.type">video</property>
  <property name="kdenlive:original.meta.media.0.stream.frame_rate">60</property>
  <property name="kdenlive:original.meta.media.0.stream.sample_aspect_ratio">0</property>
  <property name="kdenlive:original.meta.media.0.codec.width">1920</property>
  <property name="kdenlive:original.meta.media.0.codec.height">1080</property>
  <property name="kdenlive:original.meta.media.0.codec.rotate">0</property>
  <property name="kdenlive:original.meta.media.0.codec.pix_fmt">yuv420p</property>
  <property name="kdenlive:original.meta.media.0.codec.sample_aspect_ratio">0</property>
  <property name="kdenlive:original.meta.media.0.codec.colorspace">709</property>
  <property name="kdenlive:original.meta.media.0.codec.name">h264</property>
  <property name="kdenlive:original.meta.media.0.codec.long_name">H.264 / AVC / MPEG-4 AVC / MPEG-4 part 10</property>
  <property name="kdenlive:original.meta.media.0.codec.bit_rate">1171280</property>
  <property name="kdenlive:original.meta.attr.0.stream.handler_name.markup">VideoHandler</property>
  <property name="kdenlive:original.meta.attr.0.stream.vendor_id.markup">[0][0][0][0]</property>
  <property name="kdenlive:original.meta.attr.0.stream.encoder.markup">Lavc60.3.100 libx264</property>
  <property name="kdenlive:original.meta.attr.major_brand.markup">isom</property>
  <property name="kdenlive:original.meta.attr.minor_version.markup">512</property>
  <property name="kdenlive:original.meta.attr.compatible_brands.markup">isomiso2avc1mp41</property>
  <property name="kdenlive:original.meta.attr.encoder.markup">Lavf60.3.100</property>
  <property name="kdenlive:original.meta.attr.comment.markup">Rendered with Manim Community v0.17.3</property>
  <property name="kdenlive:original.seekable">1</property>
  <property name="kdenlive:original.width">1920</property>
  <property name="kdenlive:original.height">1080</property>
  <property name="kdenlive:original.meta.media.sample_aspect_num">1</property>
  <property name="kdenlive:original.meta.media.sample_aspect_den">1</property>
  <property name="kdenlive:original.format">3</property>
  <property name="kdenlive:original.audio_index">-1</property>
  <property name="kdenlive:original.video_index">0</property>
  <property name="kdenlive:original.meta.media.frame_rate_num">60</property>
  <property name="kdenlive:original.meta.media.frame_rate_den">1</property>
  <property name="kdenlive:original.meta.media.colorspace">709</property>
  <property name="kdenlive:original.meta.media.color_trc">2</property>
  <property name="kdenlive:original.meta.media.has_b_frames">2</property>
  <property name="kdenlive:original.meta.media.width">1920</property>
  <property name="kdenlive:original.meta.media.height">1080</property>
  <property name="kdenlive:original.meta.media.color_range">mpeg</property>
  <property name="kdenlive:original.meta.media.top_field_first">0</property>
  <property name="kdenlive:original.meta.media.progressive">1</property>
  <property name="kdenlive:original.kdenlive:clip_type">2</property>
  <property name="kdenlive:original.kdenlive:folderid">16</property>
  <property name="kdenlive:original.kdenlive:id">87</property>
  <property name="kdenlive:original.mute_on_pause">0</property>
  <property name="kdenlive:original.kdenlive:file_size">147962</property>
  <property name="kdenlive:original.kdenlive:file_hash">b19402f5c04e3df7613bc240fae78d5d</property>
  <property name="kdenlive:original.backup">1</property>
  <property name="meta.media.nb_streams">1</property>
  <property name="meta.media.0.stream.type">video</property>
  <property name="meta.media.0.stream.frame_rate">60</property>
  <property name="meta.media.0.stream.sample_aspect_ratio">0</property>
  <property name="meta.media.0.codec.width">640</property>
  <property name="meta.media.0.codec.height">360</property>
  <property name="meta.media.0.codec.rotate">0</property>
  <property name="meta.media.0.codec.pix_fmt">yuvj420p</property>
  <property name="meta.media.0.codec.sample_aspect_ratio">0</property>
  <property name="meta.media.0.codec.colorspace">601</property>
  <property name="meta.media.0.codec.name">mjpeg</property>
  <property name="meta.media.0.codec.long_name">MJPEG (Motion JPEG)</property>
  <property name="meta.media.0.codec.bit_rate">0</property>
  <property name="meta.attr.0.stream.HANDLER_NAME.markup">VideoHandler</property>
  <property name="meta.attr.0.stream.VENDOR_ID.markup">[0][0][0][0]</property>
  <property name="meta.attr.0.stream.ENCODER.markup">Lavc60.3.100 mjpeg</property>
  <property name="meta.attr.0.stream.DURATION.markup">00:00:01.000000000</property>
  <property name="meta.attr.COMMENT.markup">Rendered with Manim Community v0.17.3</property>
  <property name="meta.attr.MAJOR_BRAND.markup">isom</property>
  <property name="meta.attr.MINOR_VERSION.markup">512</property>
  <property name="meta.attr.COMPATIBLE_BRANDS.markup">isomiso2avc1mp41</property>
  <property name="meta.attr.ENCODER.markup">Lavf60.3.100</property>
  <property name="meta.media.sample_aspect_num">1</property>
  <property name="meta.media.sample_aspect_den">1</property>
  <property name="meta.media.frame_rate_num">60</property>
  <property name="meta.media.frame_rate_den">1</property>
  <property name="meta.media.colorspace">601</property>
  <property name="meta.media.color_trc">2</property>
  <property name="meta.media.has_b_frames">0</property>
  <property name="meta.media.width">640</property>
  <property name="meta.media.height">360</property>
  <property name="meta.media.color_range">full</property>
  <property name="xml">was here</property>
  <property name="meta.media.top_field_first">0</property>
  <property name="meta.media.progressive">1</property>
  <property name="set.test_audio">1</property>
  <property name="set.test_image">0</property>
 </chain>
 <chain id="chain30" out="00:00:01.483">
  <property name="length">90</property>
  <property name="eof">pause</property>
  <property name="resource">/home/xiaoxiae/.cache/kdenlive/proxy/129550301564de1d978851a61ad71fe7.mkv</property>
  <property name="mlt_service">avformat-novalidate</property>
  <property name="seekable">1</property>
  <property name="format">3</property>
  <property name="audio_index">-1</property>
  <property name="video_index">0</property>
  <property name="kdenlive:clipname">18.mp4</property>
  <property name="kdenlive:clip_type">2</property>
  <property name="kdenlive:folderid">16</property>
  <property name="kdenlive:id">88</property>
  <property name="mute_on_pause">0</property>
  <property name="kdenlive:file_size">297060</property>
  <property name="kdenlive:file_hash">129550301564de1d978851a61ad71fe7</property>
  <property name="kdenlive:proxy">/home/xiaoxiae/.cache/kdenlive/proxy/129550301564de1d978851a61ad71fe7.mkv</property>
  <property name="kdenlive:originalurl">video/Farmer/18.mp4</property>
  <property name="kdenlive:original.mlt_type">chain</property>
  <property name="kdenlive:original.in">0</property>
  <property name="kdenlive:original.out">00:00:01.483</property>
  <property name="kdenlive:original.length">90</property>
  <property name="kdenlive:original.eof">pause</property>
  <property name="kdenlive:original.resource">video/Farmer/18.mp4</property>
  <property name="kdenlive:original.mlt_service">avformat-novalidate</property>
  <property name="kdenlive:original.meta.media.nb_streams">1</property>
  <property name="kdenlive:original.meta.media.0.stream.type">video</property>
  <property name="kdenlive:original.meta.media.0.stream.frame_rate">60</property>
  <property name="kdenlive:original.meta.media.0.stream.sample_aspect_ratio">0</property>
  <property name="kdenlive:original.meta.media.0.codec.width">1920</property>
  <property name="kdenlive:original.meta.media.0.codec.height">1080</property>
  <property name="kdenlive:original.meta.media.0.codec.rotate">0</property>
  <property name="kdenlive:original.meta.media.0.codec.pix_fmt">yuv420p</property>
  <property name="kdenlive:original.meta.media.0.codec.sample_aspect_ratio">0</property>
  <property name="kdenlive:original.meta.media.0.codec.colorspace">709</property>
  <property name="kdenlive:original.meta.media.0.codec.name">h264</property>
  <property name="kdenlive:original.meta.media.0.codec.long_name">H.264 / AVC / MPEG-4 AVC / MPEG-4 part 10</property>
  <property name="kdenlive:original.meta.media.0.codec.bit_rate">1575488</property>
  <property name="kdenlive:original.meta.attr.0.stream.handler_name.markup">VideoHandler</property>
  <property name="kdenlive:original.meta.attr.0.stream.vendor_id.markup">[0][0][0][0]</property>
  <property name="kdenlive:original.meta.attr.0.stream.encoder.markup">Lavc60.3.100 libx264</property>
  <property name="kdenlive:original.meta.attr.major_brand.markup">isom</property>
  <property name="kdenlive:original.meta.attr.minor_version.markup">512</property>
  <property name="kdenlive:original.meta.attr.compatible_brands.markup">isomiso2avc1mp41</property>
  <property name="kdenlive:original.meta.attr.encoder.markup">Lavf60.3.100</property>
  <property name="kdenlive:original.meta.attr.comment.markup">Rendered with Manim Community v0.17.3</property>
  <property name="kdenlive:original.seekable">1</property>
  <property name="kdenlive:original.width">1920</property>
  <property name="kdenlive:original.height">1080</property>
  <property name="kdenlive:original.meta.media.sample_aspect_num">1</property>
  <property name="kdenlive:original.meta.media.sample_aspect_den">1</property>
  <property name="kdenlive:original.format">3</property>
  <property name="kdenlive:original.audio_index">-1</property>
  <property name="kdenlive:original.video_index">0</property>
  <property name="kdenlive:original.meta.media.frame_rate_num">60</property>
  <property name="kdenlive:original.meta.media.frame_rate_den">1</property>
  <property name="kdenlive:original.meta.media.colorspace">709</property>
  <property name="kdenlive:original.meta.media.color_trc">2</property>
  <property name="kdenlive:original.meta.media.has_b_frames">2</property>
  <property name="kdenlive:original.meta.media.width">1920</property>
  <property name="kdenlive:original.meta.media.height">1080</property>
  <property name="kdenlive:original.meta.media.color_range">mpeg</property>
  <property name="kdenlive:original.meta.media.top_field_first">0</property>
  <property name="kdenlive:original.meta.media.progressive">1</property>
  <property name="kdenlive:original.kdenlive:clip_type">2</property>
  <property name="kdenlive:original.kdenlive:folderid">16</property>
  <property name="kdenlive:original.kdenlive:id">88</property>
  <property name="kdenlive:original.mute_on_pause">0</property>
  <property name="kdenlive:original.kdenlive:file_size">297060</property>
  <property name="kdenlive:original.kdenlive:file_hash">129550301564de1d978851a61ad71fe7</property>
  <property name="kdenlive:original.backup">1</property>
  <property name="meta.media.nb_streams">1</property>
  <property name="meta.media.0.stream.type">video</property>
  <property name="meta.media.0.stream.frame_rate">60</property>
  <property name="meta.media.0.stream.sample_aspect_ratio">0</property>
  <property name="meta.media.0.codec.width">640</property>
  <property name="meta.media.0.codec.height">360</property>
  <property name="meta.media.0.codec.rotate">0</property>
  <property name="meta.media.0.codec.pix_fmt">yuvj420p</property>
  <property name="meta.media.0.codec.sample_aspect_ratio">0</property>
  <property name="meta.media.0.codec.colorspace">601</property>
  <property name="meta.media.0.codec.name">mjpeg</property>
  <property name="meta.media.0.codec.long_name">MJPEG (Motion JPEG)</property>
  <property name="meta.media.0.codec.bit_rate">0</property>
  <property name="meta.attr.0.stream.HANDLER_NAME.markup">VideoHandler</property>
  <property name="meta.attr.0.stream.VENDOR_ID.markup">[0][0][0][0]</property>
  <property name="meta.attr.0.stream.ENCODER.markup">Lavc60.3.100 mjpeg</property>
  <property name="meta.attr.0.stream.DURATION.markup">00:00:01.500000000</property>
  <property name="meta.attr.COMMENT.markup">Rendered with Manim Community v0.17.3</property>
  <property name="meta.attr.MAJOR_BRAND.markup">isom</property>
  <property name="meta.attr.MINOR_VERSION.markup">512</property>
  <property name="meta.attr.COMPATIBLE_BRANDS.markup">isomiso2avc1mp41</property>
  <property name="meta.attr.ENCODER.markup">Lavf60.3.100</property>
  <property name="meta.media.sample_aspect_num">1</property>
  <property name="meta.media.sample_aspect_den">1</property>
  <property name="meta.media.frame_rate_num">60</property>
  <property name="meta.media.frame_rate_den">1</property>
  <property name="meta.media.colorspace">601</property>
  <property name="meta.media.color_trc">2</property>
  <property name="meta.media.has_b_frames">0</property>
  <property name="meta.media.width">640</property>
  <property name="meta.media.height">360</property>
  <property name="meta.media.color_range">full</property>
  <property name="xml">was here</property>
  <property name="meta.media.top_field_first">0</property>
  <property name="meta.media.progressive">1</property>
  <property name="set.test_audio">1</property>
  <property name="set.test_image">0</property>
 </chain>
 <chain id="chain31" out="00:00:01.233">
  <property name="length">75</property>
  <property name="eof">pause</property>
  <property name="resource">/home/xiaoxiae/.cache/kdenlive/proxy/9c0a737d3328b5638f2b38510737b0a8.mkv</property>
  <property name="mlt_service">avformat-novalidate</property>
  <property name="seekable">1</property>
  <property name="format">3</property>
  <property name="audio_index">-1</property>
  <property name="video_index">0</property>
  <property name="kdenlive:clipname">19.mp4</property>
  <property name="kdenlive:clip_type">2</property>
  <property name="kdenlive:folderid">16</property>
  <property name="kdenlive:id">89</property>
  <property name="mute_on_pause">0</property>
  <property name="kdenlive:file_size">73383</property>
  <property name="kdenlive:file_hash">9c0a737d3328b5638f2b38510737b0a8</property>
  <property name="kdenlive:proxy">/home/xiaoxiae/.cache/kdenlive/proxy/9c0a737d3328b5638f2b38510737b0a8.mkv</property>
  <property name="kdenlive:originalurl">video/Farmer/19.mp4</property>
  <property name="kdenlive:original.mlt_type">chain</property>
  <property name="kdenlive:original.in">0</property>
  <property name="kdenlive:original.out">00:00:01.233</property>
  <property name="kdenlive:original.length">75</property>
  <property name="kdenlive:original.eof">pause</property>
  <property name="kdenlive:original.resource">video/Farmer/19.mp4</property>
  <property name="kdenlive:original.mlt_service">avformat-novalidate</property>
  <property name="kdenlive:original.meta.media.nb_streams">1</property>
  <property name="kdenlive:original.meta.media.0.stream.type">video</property>
  <property name="kdenlive:original.meta.media.0.stream.frame_rate">60</property>
  <property name="kdenlive:original.meta.media.0.stream.sample_aspect_ratio">0</property>
  <property name="kdenlive:original.meta.media.0.codec.width">1920</property>
  <property name="kdenlive:original.meta.media.0.codec.height">1080</property>
  <property name="kdenlive:original.meta.media.0.codec.rotate">0</property>
  <property name="kdenlive:original.meta.media.0.codec.pix_fmt">yuv420p</property>
  <property name="kdenlive:original.meta.media.0.codec.sample_aspect_ratio">0</property>
  <property name="kdenlive:original.meta.media.0.codec.colorspace">709</property>
  <property name="kdenlive:original.meta.media.0.codec.name">h264</property>
  <property name="kdenlive:original.meta.media.0.codec.long_name">H.264 / AVC / MPEG-4 AVC / MPEG-4 part 10</property>
  <property name="kdenlive:original.meta.media.0.codec.bit_rate">458361</property>
  <property name="kdenlive:original.meta.attr.0.stream.handler_name.markup">VideoHandler</property>
  <property name="kdenlive:original.meta.attr.0.stream.vendor_id.markup">[0][0][0][0]</property>
  <property name="kdenlive:original.meta.attr.0.stream.encoder.markup">Lavc60.3.100 libx264</property>
  <property name="kdenlive:original.meta.attr.major_brand.markup">isom</property>
  <property name="kdenlive:original.meta.attr.minor_version.markup">512</property>
  <property name="kdenlive:original.meta.attr.compatible_brands.markup">isomiso2avc1mp41</property>
  <property name="kdenlive:original.meta.attr.encoder.markup">Lavf60.3.100</property>
  <property name="kdenlive:original.meta.attr.comment.markup">Rendered with Manim Community v0.17.3</property>
  <property name="kdenlive:original.seekable">1</property>
  <property name="kdenlive:original.width">1920</property>
  <property name="kdenlive:original.height">1080</property>
  <property name="kdenlive:original.meta.media.sample_aspect_num">1</property>
  <property name="kdenlive:original.meta.media.sample_aspect_den">1</property>
  <property name="kdenlive:original.format">3</property>
  <property name="kdenlive:original.audio_index">-1</property>
  <property name="kdenlive:original.video_index">0</property>
  <property name="kdenlive:original.meta.media.frame_rate_num">60</property>
  <property name="kdenlive:original.meta.media.frame_rate_den">1</property>
  <property name="kdenlive:original.meta.media.colorspace">709</property>
  <property name="kdenlive:original.meta.media.color_trc">2</property>
  <property name="kdenlive:original.meta.media.has_b_frames">2</property>
  <property name="kdenlive:original.meta.media.width">1920</property>
  <property name="kdenlive:original.meta.media.height">1080</property>
  <property name="kdenlive:original.meta.media.color_range">mpeg</property>
  <property name="kdenlive:original.meta.media.top_field_first">0</property>
  <property name="kdenlive:original.meta.media.progressive">1</property>
  <property name="kdenlive:original.kdenlive:clip_type">2</property>
  <property name="kdenlive:original.kdenlive:folderid">16</property>
  <property name="kdenlive:original.kdenlive:id">89</property>
  <property name="kdenlive:original.mute_on_pause">0</property>
  <property name="kdenlive:original.kdenlive:file_size">73383</property>
  <property name="kdenlive:original.kdenlive:file_hash">9c0a737d3328b5638f2b38510737b0a8</property>
  <property name="kdenlive:original.backup">1</property>
  <property name="meta.media.nb_streams">1</property>
  <property name="meta.media.0.stream.type">video</property>
  <property name="meta.media.0.stream.frame_rate">60</property>
  <property name="meta.media.0.stream.sample_aspect_ratio">0</property>
  <property name="meta.media.0.codec.width">640</property>
  <property name="meta.media.0.codec.height">360</property>
  <property name="meta.media.0.codec.rotate">0</property>
  <property name="meta.media.0.codec.pix_fmt">yuvj420p</property>
  <property name="meta.media.0.codec.sample_aspect_ratio">0</property>
  <property name="meta.media.0.codec.colorspace">601</property>
  <property name="meta.media.0.codec.name">mjpeg</property>
  <property name="meta.media.0.codec.long_name">MJPEG (Motion JPEG)</property>
  <property name="meta.media.0.codec.bit_rate">0</property>
  <property name="meta.attr.0.stream.HANDLER_NAME.markup">VideoHandler</property>
  <property name="meta.attr.0.stream.VENDOR_ID.markup">[0][0][0][0]</property>
  <property name="meta.attr.0.stream.ENCODER.markup">Lavc60.3.100 mjpeg</property>
  <property name="meta.attr.0.stream.DURATION.markup">00:00:01.250000000</property>
  <property name="meta.attr.COMMENT.markup">Rendered with Manim Community v0.17.3</property>
  <property name="meta.attr.MAJOR_BRAND.markup">isom</property>
  <property name="meta.attr.MINOR_VERSION.markup">512</property>
  <property name="meta.attr.COMPATIBLE_BRANDS.markup">isomiso2avc1mp41</property>
  <property name="meta.attr.ENCODER.markup">Lavf60.3.100</property>
  <property name="meta.media.sample_aspect_num">1</property>
  <property name="meta.media.sample_aspect_den">1</property>
  <property name="meta.media.frame_rate_num">60</property>
  <property name="meta.media.frame_rate_den">1</property>
  <property name="meta.media.colorspace">601</property>
  <property name="meta.media.color_trc">2</property>
  <property name="meta.media.has_b_frames">0</property>
  <property name="meta.media.width">640</property>
  <property name="meta.media.height">360</property>
  <property name="meta.media.color_range">full</property>
  <property name="xml">was here</property>
  <property name="meta.media.top_field_first">0</property>
  <property name="meta.media.progressive">1</property>
  <property name="set.test_audio">1</property>
  <property name="set.test_image">0</property>
 </chain>
 <chain id="chain32" out="00:00:00.983">
  <property name="length">60</property>
  <property name="eof">pause</property>
  <property name="resource">/home/xiaoxiae/.cache/kdenlive/proxy/c103ef0b8f06ebcfea48bc3ec53f7005.mkv</property>
  <property name="mlt_service">avformat-novalidate</property>
  <property name="seekable">1</property>
  <property name="format">3</property>
  <property name="audio_index">-1</property>
  <property name="video_index">0</property>
  <property name="kdenlive:clipname">20.mp4</property>
  <property name="kdenlive:clip_type">2</property>
  <property name="kdenlive:folderid">16</property>
  <property name="kdenlive:id">91</property>
  <property name="mute_on_pause">0</property>
  <property name="kdenlive:file_size">75208</property>
  <property name="kdenlive:file_hash">c103ef0b8f06ebcfea48bc3ec53f7005</property>
  <property name="kdenlive:proxy">/home/xiaoxiae/.cache/kdenlive/proxy/c103ef0b8f06ebcfea48bc3ec53f7005.mkv</property>
  <property name="kdenlive:originalurl">video/Farmer/20.mp4</property>
  <property name="kdenlive:original.mlt_type">chain</property>
  <property name="kdenlive:original.in">0</property>
  <property name="kdenlive:original.out">00:00:00.983</property>
  <property name="kdenlive:original.length">60</property>
  <property name="kdenlive:original.eof">pause</property>
  <property name="kdenlive:original.resource">video/Farmer/20.mp4</property>
  <property name="kdenlive:original.mlt_service">avformat-novalidate</property>
  <property name="kdenlive:original.meta.media.nb_streams">1</property>
  <property name="kdenlive:original.meta.media.0.stream.type">video</property>
  <property name="kdenlive:original.meta.media.0.stream.frame_rate">60</property>
  <property name="kdenlive:original.meta.media.0.stream.sample_aspect_ratio">0</property>
  <property name="kdenlive:original.meta.media.0.codec.width">1920</property>
  <property name="kdenlive:original.meta.media.0.codec.height">1080</property>
  <property name="kdenlive:original.meta.media.0.codec.rotate">0</property>
  <property name="kdenlive:original.meta.media.0.codec.pix_fmt">yuv420p</property>
  <property name="kdenlive:original.meta.media.0.codec.sample_aspect_ratio">0</property>
  <property name="kdenlive:original.meta.media.0.codec.colorspace">709</property>
  <property name="kdenlive:original.meta.media.0.codec.name">h264</property>
  <property name="kdenlive:original.meta.media.0.codec.long_name">H.264 / AVC / MPEG-4 AVC / MPEG-4 part 10</property>
  <property name="kdenlive:original.meta.media.0.codec.bit_rate">588736</property>
  <property name="kdenlive:original.meta.attr.0.stream.handler_name.markup">VideoHandler</property>
  <property name="kdenlive:original.meta.attr.0.stream.vendor_id.markup">[0][0][0][0]</property>
  <property name="kdenlive:original.meta.attr.0.stream.encoder.markup">Lavc60.3.100 libx264</property>
  <property name="kdenlive:original.meta.attr.major_brand.markup">isom</property>
  <property name="kdenlive:original.meta.attr.minor_version.markup">512</property>
  <property name="kdenlive:original.meta.attr.compatible_brands.markup">isomiso2avc1mp41</property>
  <property name="kdenlive:original.meta.attr.encoder.markup">Lavf60.3.100</property>
  <property name="kdenlive:original.meta.attr.comment.markup">Rendered with Manim Community v0.17.3</property>
  <property name="kdenlive:original.seekable">1</property>
  <property name="kdenlive:original.width">1920</property>
  <property name="kdenlive:original.height">1080</property>
  <property name="kdenlive:original.meta.media.sample_aspect_num">1</property>
  <property name="kdenlive:original.meta.media.sample_aspect_den">1</property>
  <property name="kdenlive:original.format">3</property>
  <property name="kdenlive:original.audio_index">-1</property>
  <property name="kdenlive:original.video_index">0</property>
  <property name="kdenlive:original.meta.media.frame_rate_num">60</property>
  <property name="kdenlive:original.meta.media.frame_rate_den">1</property>
  <property name="kdenlive:original.meta.media.colorspace">709</property>
  <property name="kdenlive:original.meta.media.color_trc">2</property>
  <property name="kdenlive:original.meta.media.has_b_frames">2</property>
  <property name="kdenlive:original.meta.media.width">1920</property>
  <property name="kdenlive:original.meta.media.height">1080</property>
  <property name="kdenlive:original.meta.media.color_range">mpeg</property>
  <property name="kdenlive:original.meta.media.top_field_first">0</property>
  <property name="kdenlive:original.meta.media.progressive">1</property>
  <property name="kdenlive:original.kdenlive:clip_type">2</property>
  <property name="kdenlive:original.kdenlive:folderid">16</property>
  <property name="kdenlive:original.kdenlive:id">91</property>
  <property name="kdenlive:original.mute_on_pause">0</property>
  <property name="kdenlive:original.kdenlive:file_size">75208</property>
  <property name="kdenlive:original.kdenlive:file_hash">c103ef0b8f06ebcfea48bc3ec53f7005</property>
  <property name="kdenlive:original.backup">1</property>
  <property name="meta.media.nb_streams">1</property>
  <property name="meta.media.0.stream.type">video</property>
  <property name="meta.media.0.stream.frame_rate">60</property>
  <property name="meta.media.0.stream.sample_aspect_ratio">0</property>
  <property name="meta.media.0.codec.width">640</property>
  <property name="meta.media.0.codec.height">360</property>
  <property name="meta.media.0.codec.rotate">0</property>
  <property name="meta.media.0.codec.pix_fmt">yuvj420p</property>
  <property name="meta.media.0.codec.sample_aspect_ratio">0</property>
  <property name="meta.media.0.codec.colorspace">601</property>
  <property name="meta.media.0.codec.name">mjpeg</property>
  <property name="meta.media.0.codec.long_name">MJPEG (Motion JPEG)</property>
  <property name="meta.media.0.codec.bit_rate">0</property>
  <property name="meta.attr.0.stream.HANDLER_NAME.markup">VideoHandler</property>
  <property name="meta.attr.0.stream.VENDOR_ID.markup">[0][0][0][0]</property>
  <property name="meta.attr.0.stream.ENCODER.markup">Lavc60.3.100 mjpeg</property>
  <property name="meta.attr.0.stream.DURATION.markup">00:00:01.000000000</property>
  <property name="meta.attr.COMMENT.markup">Rendered with Manim Community v0.17.3</property>
  <property name="meta.attr.MAJOR_BRAND.markup">isom</property>
  <property name="meta.attr.MINOR_VERSION.markup">512</property>
  <property name="meta.attr.COMPATIBLE_BRANDS.markup">isomiso2avc1mp41</property>
  <property name="meta.attr.ENCODER.markup">Lavf60.3.100</property>
  <property name="meta.media.sample_aspect_num">1</property>
  <property name="meta.media.sample_aspect_den">1</property>
  <property name="meta.media.frame_rate_num">60</property>
  <property name="meta.media.frame_rate_den">1</property>
  <property name="meta.media.colorspace">601</property>
  <property name="meta.media.color_trc">2</property>
  <property name="meta.media.has_b_frames">0</property>
  <property name="meta.media.width">640</property>
  <property name="meta.media.height">360</property>
  <property name="meta.media.color_range">full</property>
  <property name="xml">was here</property>
  <property name="meta.media.top_field_first">0</property>
  <property name="meta.media.progressive">1</property>
  <property name="set.test_audio">1</property>
  <property name="set.test_image">0</property>
 </chain>
 <chain id="chain33" out="00:00:01.483">
  <property name="length">90</property>
  <property name="eof">pause</property>
  <property name="resource">/home/xiaoxiae/.cache/kdenlive/proxy/31105c6fbc8f41a6f07fd74b2b368a46.mkv</property>
  <property name="mlt_service">avformat-novalidate</property>
  <property name="seekable">1</property>
  <property name="format">3</property>
  <property name="audio_index">-1</property>
  <property name="video_index">0</property>
  <property name="kdenlive:clipname">21.mp4</property>
  <property name="kdenlive:clip_type">2</property>
  <property name="kdenlive:folderid">16</property>
  <property name="kdenlive:id">92</property>
  <property name="mute_on_pause">0</property>
  <property name="kdenlive:file_size">63721</property>
  <property name="kdenlive:file_hash">31105c6fbc8f41a6f07fd74b2b368a46</property>
  <property name="kdenlive:proxy">/home/xiaoxiae/.cache/kdenlive/proxy/31105c6fbc8f41a6f07fd74b2b368a46.mkv</property>
  <property name="kdenlive:originalurl">video/Farmer/21.mp4</property>
  <property name="kdenlive:original.mlt_type">chain</property>
  <property name="kdenlive:original.in">0</property>
  <property name="kdenlive:original.out">00:00:01.483</property>
  <property name="kdenlive:original.length">90</property>
  <property name="kdenlive:original.eof">pause</property>
  <property name="kdenlive:original.resource">video/Farmer/21.mp4</property>
  <property name="kdenlive:original.mlt_service">avformat-novalidate</property>
  <property name="kdenlive:original.meta.media.nb_streams">1</property>
  <property name="kdenlive:original.meta.media.0.stream.type">video</property>
  <property name="kdenlive:original.meta.media.0.stream.frame_rate">60</property>
  <property name="kdenlive:original.meta.media.0.stream.sample_aspect_ratio">0</property>
  <property name="kdenlive:original.meta.media.0.codec.width">1920</property>
  <property name="kdenlive:original.meta.media.0.codec.height">1080</property>
  <property name="kdenlive:original.meta.media.0.codec.rotate">0</property>
  <property name="kdenlive:original.meta.media.0.codec.pix_fmt">yuv420p</property>
  <property name="kdenlive:original.meta.media.0.codec.sample_aspect_ratio">0</property>
  <property name="kdenlive:original.meta.media.0.codec.colorspace">709</property>
  <property name="kdenlive:original.meta.media.0.codec.name">h264</property>
  <property name="kdenlive:original.meta.media.0.codec.long_name">H.264 / AVC / MPEG-4 AVC / MPEG-4 part 10</property>
  <property name="kdenlive:original.meta.media.0.codec.bit_rate">329818</property>
  <property name="kdenlive:original.meta.attr.0.stream.handler_name.markup">VideoHandler</property>
  <property name="kdenlive:original.meta.attr.0.stream.vendor_id.markup">[0][0][0][0]</property>
  <property name="kdenlive:original.meta.attr.0.stream.encoder.markup">Lavc60.3.100 libx264</property>
  <property name="kdenlive:original.meta.attr.major_brand.markup">isom</property>
  <property name="kdenlive:original.meta.attr.minor_version.markup">512</property>
  <property name="kdenlive:original.meta.attr.compatible_brands.markup">isomiso2avc1mp41</property>
  <property name="kdenlive:original.meta.attr.encoder.markup">Lavf60.3.100</property>
  <property name="kdenlive:original.meta.attr.comment.markup">Rendered with Manim Community v0.17.3</property>
  <property name="kdenlive:original.seekable">1</property>
  <property name="kdenlive:original.width">1920</property>
  <property name="kdenlive:original.height">1080</property>
  <property name="kdenlive:original.meta.media.sample_aspect_num">1</property>
  <property name="kdenlive:original.meta.media.sample_aspect_den">1</property>
  <property name="kdenlive:original.format">3</property>
  <property name="kdenlive:original.audio_index">-1</property>
  <property name="kdenlive:original.video_index">0</property>
  <property name="kdenlive:original.meta.media.frame_rate_num">60</property>
  <property name="kdenlive:original.meta.media.frame_rate_den">1</property>
  <property name="kdenlive:original.meta.media.colorspace">709</property>
  <property name="kdenlive:original.meta.media.color_trc">2</property>
  <property name="kdenlive:original.meta.media.has_b_frames">2</property>
  <property name="kdenlive:original.meta.media.width">1920</property>
  <property name="kdenlive:original.meta.media.height">1080</property>
  <property name="kdenlive:original.meta.media.color_range">mpeg</property>
  <property name="kdenlive:original.meta.media.top_field_first">0</property>
  <property name="kdenlive:original.meta.media.progressive">1</property>
  <property name="kdenlive:original.kdenlive:clip_type">2</property>
  <property name="kdenlive:original.kdenlive:folderid">16</property>
  <property name="kdenlive:original.kdenlive:id">92</property>
  <property name="kdenlive:original.mute_on_pause">0</property>
  <property name="kdenlive:original.kdenlive:file_size">63721</property>
  <property name="kdenlive:original.kdenlive:file_hash">31105c6fbc8f41a6f07fd74b2b368a46</property>
  <property name="kdenlive:original.backup">1</property>
  <property name="meta.media.nb_streams">1</property>
  <property name="meta.media.0.stream.type">video</property>
  <property name="meta.media.0.stream.frame_rate">60</property>
  <property name="meta.media.0.stream.sample_aspect_ratio">0</property>
  <property name="meta.media.0.codec.width">640</property>
  <property name="meta.media.0.codec.height">360</property>
  <property name="meta.media.0.codec.rotate">0</property>
  <property name="meta.media.0.codec.pix_fmt">yuvj420p</property>
  <property name="meta.media.0.codec.sample_aspect_ratio">0</property>
  <property name="meta.media.0.codec.colorspace">601</property>
  <property name="meta.media.0.codec.name">mjpeg</property>
  <property name="meta.media.0.codec.long_name">MJPEG (Motion JPEG)</property>
  <property name="meta.media.0.codec.bit_rate">0</property>
  <property name="meta.attr.0.stream.HANDLER_NAME.markup">VideoHandler</property>
  <property name="meta.attr.0.stream.VENDOR_ID.markup">[0][0][0][0]</property>
  <property name="meta.attr.0.stream.ENCODER.markup">Lavc60.3.100 mjpeg</property>
  <property name="meta.attr.0.stream.DURATION.markup">00:00:01.500000000</property>
  <property name="meta.attr.COMMENT.markup">Rendered with Manim Community v0.17.3</property>
  <property name="meta.attr.MAJOR_BRAND.markup">isom</property>
  <property name="meta.attr.MINOR_VERSION.markup">512</property>
  <property name="meta.attr.COMPATIBLE_BRANDS.markup">isomiso2avc1mp41</property>
  <property name="meta.attr.ENCODER.markup">Lavf60.3.100</property>
  <property name="meta.media.sample_aspect_num">1</property>
  <property name="meta.media.sample_aspect_den">1</property>
  <property name="meta.media.frame_rate_num">60</property>
  <property name="meta.media.frame_rate_den">1</property>
  <property name="meta.media.colorspace">601</property>
  <property name="meta.media.color_trc">2</property>
  <property name="meta.media.has_b_frames">0</property>
  <property name="meta.media.width">640</property>
  <property name="meta.media.height">360</property>
  <property name="meta.media.color_range">full</property>
  <property name="xml">was here</property>
  <property name="meta.media.top_field_first">0</property>
  <property name="meta.media.progressive">1</property>
  <property name="set.test_audio">1</property>
  <property name="set.test_image">0</property>
 </chain>
 <chain id="chain34" out="00:00:00.983">
  <property name="length">60</property>
  <property name="eof">pause</property>
  <property name="resource">/home/xiaoxiae/.cache/kdenlive/proxy/2224cadcf51dae6d724ddf598e68657b.mkv</property>
  <property name="mlt_service">avformat-novalidate</property>
  <property name="seekable">1</property>
  <property name="format">3</property>
  <property name="audio_index">-1</property>
  <property name="video_index">0</property>
  <property name="kdenlive:clipname">22.mp4</property>
  <property name="kdenlive:clip_type">2</property>
  <property name="kdenlive:folderid">16</property>
  <property name="kdenlive:id">93</property>
  <property name="mute_on_pause">0</property>
  <property name="kdenlive:file_size">83819</property>
  <property name="kdenlive:file_hash">2224cadcf51dae6d724ddf598e68657b</property>
  <property name="kdenlive:proxy">/home/xiaoxiae/.cache/kdenlive/proxy/2224cadcf51dae6d724ddf598e68657b.mkv</property>
  <property name="kdenlive:originalurl">video/Farmer/22.mp4</property>
  <property name="kdenlive:original.mlt_type">chain</property>
  <property name="kdenlive:original.in">0</property>
  <property name="kdenlive:original.out">00:00:00.983</property>
  <property name="kdenlive:original.length">60</property>
  <property name="kdenlive:original.eof">pause</property>
  <property name="kdenlive:original.resource">video/Farmer/22.mp4</property>
  <property name="kdenlive:original.mlt_service">avformat-novalidate</property>
  <property name="kdenlive:original.meta.media.nb_streams">1</property>
  <property name="kdenlive:original.meta.media.0.stream.type">video</property>
  <property name="kdenlive:original.meta.media.0.stream.frame_rate">60</property>
  <property name="kdenlive:original.meta.media.0.stream.sample_aspect_ratio">0</property>
  <property name="kdenlive:original.meta.media.0.codec.width">1920</property>
  <property name="kdenlive:original.meta.media.0.codec.height">1080</property>
  <property name="kdenlive:original.meta.media.0.codec.rotate">0</property>
  <property name="kdenlive:original.meta.media.0.codec.pix_fmt">yuv420p</property>
  <property name="kdenlive:original.meta.media.0.codec.sample_aspect_ratio">0</property>
  <property name="kdenlive:original.meta.media.0.codec.colorspace">709</property>
  <property name="kdenlive:original.meta.media.0.codec.name">h264</property>
  <property name="kdenlive:original.meta.media.0.codec.long_name">H.264 / AVC / MPEG-4 AVC / MPEG-4 part 10</property>
  <property name="kdenlive:original.meta.media.0.codec.bit_rate">657560</property>
  <property name="kdenlive:original.meta.attr.0.stream.handler_name.markup">VideoHandler</property>
  <property name="kdenlive:original.meta.attr.0.stream.vendor_id.markup">[0][0][0][0]</property>
  <property name="kdenlive:original.meta.attr.0.stream.encoder.markup">Lavc60.3.100 libx264</property>
  <property name="kdenlive:original.meta.attr.major_brand.markup">isom</property>
  <property name="kdenlive:original.meta.attr.minor_version.markup">512</property>
  <property name="kdenlive:original.meta.attr.compatible_brands.markup">isomiso2avc1mp41</property>
  <property name="kdenlive:original.meta.attr.encoder.markup">Lavf60.3.100</property>
  <property name="kdenlive:original.meta.attr.comment.markup">Rendered with Manim Community v0.17.3</property>
  <property name="kdenlive:original.seekable">1</property>
  <property name="kdenlive:original.width">1920</property>
  <property name="kdenlive:original.height">1080</property>
  <property name="kdenlive:original.meta.media.sample_aspect_num">1</property>
  <property name="kdenlive:original.meta.media.sample_aspect_den">1</property>
  <property name="kdenlive:original.format">3</property>
  <property name="kdenlive:original.audio_index">-1</property>
  <property name="kdenlive:original.video_index">0</property>
  <property name="kdenlive:original.meta.media.frame_rate_num">60</property>
  <property name="kdenlive:original.meta.media.frame_rate_den">1</property>
  <property name="kdenlive:original.meta.media.colorspace">709</property>
  <property name="kdenlive:original.meta.media.color_trc">2</property>
  <property name="kdenlive:original.meta.media.has_b_frames">2</property>
  <property name="kdenlive:original.meta.media.width">1920</property>
  <property name="kdenlive:original.meta.media.height">1080</property>
  <property name="kdenlive:original.meta.media.color_range">mpeg</property>
  <property name="kdenlive:original.meta.media.top_field_first">0</property>
  <property name="kdenlive:original.meta.media.progressive">1</property>
  <property name="kdenlive:original.kdenlive:clip_type">2</property>
  <property name="kdenlive:original.kdenlive:folderid">16</property>
  <property name="kdenlive:original.kdenlive:id">93</property>
  <property name="kdenlive:original.mute_on_pause">0</property>
  <property name="kdenlive:original.kdenlive:file_size">83819</property>
  <property name="kdenlive:original.kdenlive:file_hash">2224cadcf51dae6d724ddf598e68657b</property>
  <property name="kdenlive:original.backup">1</property>
  <property name="meta.media.nb_streams">1</property>
  <property name="meta.media.0.stream.type">video</property>
  <property name="meta.media.0.stream.frame_rate">60</property>
  <property name="meta.media.0.stream.sample_aspect_ratio">0</property>
  <property name="meta.media.0.codec.width">640</property>
  <property name="meta.media.0.codec.height">360</property>
  <property name="meta.media.0.codec.rotate">0</property>
  <property name="meta.media.0.codec.pix_fmt">yuvj420p</property>
  <property name="meta.media.0.codec.sample_aspect_ratio">0</property>
  <property name="meta.media.0.codec.colorspace">601</property>
  <property name="meta.media.0.codec.name">mjpeg</property>
  <property name="meta.media.0.codec.long_name">MJPEG (Motion JPEG)</property>
  <property name="meta.media.0.codec.bit_rate">0</property>
  <property name="meta.attr.0.stream.HANDLER_NAME.markup">VideoHandler</property>
  <property name="meta.attr.0.stream.VENDOR_ID.markup">[0][0][0][0]</property>
  <property name="meta.attr.0.stream.ENCODER.markup">Lavc60.3.100 mjpeg</property>
  <property name="meta.attr.0.stream.DURATION.markup">00:00:01.000000000</property>
  <property name="meta.attr.COMMENT.markup">Rendered with Manim Community v0.17.3</property>
  <property name="meta.attr.MAJOR_BRAND.markup">isom</property>
  <property name="meta.attr.MINOR_VERSION.markup">512</property>
  <property name="meta.attr.COMPATIBLE_BRANDS.markup">isomiso2avc1mp41</property>
  <property name="meta.attr.ENCODER.markup">Lavf60.3.100</property>
  <property name="meta.media.sample_aspect_num">1</property>
  <property name="meta.media.sample_aspect_den">1</property>
  <property name="meta.media.frame_rate_num">60</property>
  <property name="meta.media.frame_rate_den">1</property>
  <property name="meta.media.colorspace">601</property>
  <property name="meta.media.color_trc">2</property>
  <property name="meta.media.has_b_frames">0</property>
  <property name="meta.media.width">640</property>
  <property name="meta.media.height">360</property>
  <property name="meta.media.color_range">full</property>
  <property name="xml">was here</property>
  <property name="meta.media.top_field_first">0</property>
  <property name="meta.media.progressive">1</property>
  <property name="set.test_audio">1</property>
  <property name="set.test_image">0</property>
 </chain>
 <chain id="chain35" out="00:00:02.233">
  <property name="length">135</property>
  <property name="eof">pause</property>
  <property name="resource">/home/xiaoxiae/.cache/kdenlive/proxy/f3fe69db14a24cb55699231eda9f854d.mkv</property>
  <property name="mlt_service">avformat-novalidate</property>
  <property name="seekable">1</property>
  <property name="format">3</property>
  <property name="audio_index">-1</property>
  <property name="video_index">0</property>
  <property name="kdenlive:clipname">23.mp4</property>
  <property name="kdenlive:clip_type">2</property>
  <property name="kdenlive:folderid">16</property>
  <property name="kdenlive:id">94</property>
  <property name="mute_on_pause">0</property>
  <property name="kdenlive:file_size">130929</property>
  <property name="kdenlive:file_hash">f3fe69db14a24cb55699231eda9f854d</property>
  <property name="kdenlive:proxy">/home/xiaoxiae/.cache/kdenlive/proxy/f3fe69db14a24cb55699231eda9f854d.mkv</property>
  <property name="kdenlive:originalurl">video/Farmer/23.mp4</property>
  <property name="kdenlive:original.mlt_type">chain</property>
  <property name="kdenlive:original.in">0</property>
  <property name="kdenlive:original.out">00:00:02.233</property>
  <property name="kdenlive:original.length">135</property>
  <property name="kdenlive:original.eof">pause</property>
  <property name="kdenlive:original.resource">video/Farmer/23.mp4</property>
  <property name="kdenlive:original.mlt_service">avformat-novalidate</property>
  <property name="kdenlive:original.meta.media.nb_streams">1</property>
  <property name="kdenlive:original.meta.media.0.stream.type">video</property>
  <property name="kdenlive:original.meta.media.0.stream.frame_rate">60</property>
  <property name="kdenlive:original.meta.media.0.stream.sample_aspect_ratio">0</property>
  <property name="kdenlive:original.meta.media.0.codec.width">1920</property>
  <property name="kdenlive:original.meta.media.0.codec.height">1080</property>
  <property name="kdenlive:original.meta.media.0.codec.rotate">0</property>
  <property name="kdenlive:original.meta.media.0.codec.pix_fmt">yuv420p</property>
  <property name="kdenlive:original.meta.media.0.codec.sample_aspect_ratio">0</property>
  <property name="kdenlive:original.meta.media.0.codec.colorspace">709</property>
  <property name="kdenlive:original.meta.media.0.codec.name">h264</property>
  <property name="kdenlive:original.meta.media.0.codec.long_name">H.264 / AVC / MPEG-4 AVC / MPEG-4 part 10</property>
  <property name="kdenlive:original.meta.media.0.codec.bit_rate">456608</property>
  <property name="kdenlive:original.meta.attr.0.stream.handler_name.markup">VideoHandler</property>
  <property name="kdenlive:original.meta.attr.0.stream.vendor_id.markup">[0][0][0][0]</property>
  <property name="kdenlive:original.meta.attr.0.stream.encoder.markup">Lavc60.3.100 libx264</property>
  <property name="kdenlive:original.meta.attr.major_brand.markup">isom</property>
  <property name="kdenlive:original.meta.attr.minor_version.markup">512</property>
  <property name="kdenlive:original.meta.attr.compatible_brands.markup">isomiso2avc1mp41</property>
  <property name="kdenlive:original.meta.attr.encoder.markup">Lavf60.3.100</property>
  <property name="kdenlive:original.meta.attr.comment.markup">Rendered with Manim Community v0.17.3</property>
  <property name="kdenlive:original.seekable">1</property>
  <property name="kdenlive:original.width">1920</property>
  <property name="kdenlive:original.height">1080</property>
  <property name="kdenlive:original.meta.media.sample_aspect_num">1</property>
  <property name="kdenlive:original.meta.media.sample_aspect_den">1</property>
  <property name="kdenlive:original.format">3</property>
  <property name="kdenlive:original.audio_index">-1</property>
  <property name="kdenlive:original.video_index">0</property>
  <property name="kdenlive:original.meta.media.frame_rate_num">60</property>
  <property name="kdenlive:original.meta.media.frame_rate_den">1</property>
  <property name="kdenlive:original.meta.media.colorspace">709</property>
  <property name="kdenlive:original.meta.media.color_trc">2</property>
  <property name="kdenlive:original.meta.media.has_b_frames">2</property>
  <property name="kdenlive:original.meta.media.width">1920</property>
  <property name="kdenlive:original.meta.media.height">1080</property>
  <property name="kdenlive:original.meta.media.color_range">mpeg</property>
  <property name="kdenlive:original.meta.media.top_field_first">0</property>
  <property name="kdenlive:original.meta.media.progressive">1</property>
  <property name="kdenlive:original.kdenlive:clip_type">2</property>
  <property name="kdenlive:original.kdenlive:folderid">16</property>
  <property name="kdenlive:original.kdenlive:id">94</property>
  <property name="kdenlive:original.mute_on_pause">0</property>
  <property name="kdenlive:original.kdenlive:file_size">130929</property>
  <property name="kdenlive:original.kdenlive:file_hash">f3fe69db14a24cb55699231eda9f854d</property>
  <property name="kdenlive:original.backup">1</property>
  <property name="meta.media.nb_streams">1</property>
  <property name="meta.media.0.stream.type">video</property>
  <property name="meta.media.0.stream.frame_rate">60</property>
  <property name="meta.media.0.stream.sample_aspect_ratio">0</property>
  <property name="meta.media.0.codec.width">640</property>
  <property name="meta.media.0.codec.height">360</property>
  <property name="meta.media.0.codec.rotate">0</property>
  <property name="meta.media.0.codec.pix_fmt">yuvj420p</property>
  <property name="meta.media.0.codec.sample_aspect_ratio">0</property>
  <property name="meta.media.0.codec.colorspace">601</property>
  <property name="meta.media.0.codec.name">mjpeg</property>
  <property name="meta.media.0.codec.long_name">MJPEG (Motion JPEG)</property>
  <property name="meta.media.0.codec.bit_rate">0</property>
  <property name="meta.attr.0.stream.HANDLER_NAME.markup">VideoHandler</property>
  <property name="meta.attr.0.stream.VENDOR_ID.markup">[0][0][0][0]</property>
  <property name="meta.attr.0.stream.ENCODER.markup">Lavc60.3.100 mjpeg</property>
  <property name="meta.attr.0.stream.DURATION.markup">00:00:02.250000000</property>
  <property name="meta.attr.COMMENT.markup">Rendered with Manim Community v0.17.3</property>
  <property name="meta.attr.MAJOR_BRAND.markup">isom</property>
  <property name="meta.attr.MINOR_VERSION.markup">512</property>
  <property name="meta.attr.COMPATIBLE_BRANDS.markup">isomiso2avc1mp41</property>
  <property name="meta.attr.ENCODER.markup">Lavf60.3.100</property>
  <property name="meta.media.sample_aspect_num">1</property>
  <property name="meta.media.sample_aspect_den">1</property>
  <property name="meta.media.frame_rate_num">60</property>
  <property name="meta.media.frame_rate_den">1</property>
  <property name="meta.media.colorspace">601</property>
  <property name="meta.media.color_trc">2</property>
  <property name="meta.media.has_b_frames">0</property>
  <property name="meta.media.width">640</property>
  <property name="meta.media.height">360</property>
  <property name="meta.media.color_range">full</property>
  <property name="xml">was here</property>
  <property name="meta.media.top_field_first">0</property>
  <property name="meta.media.progressive">1</property>
  <property name="set.test_audio">1</property>
  <property name="set.test_image">0</property>
 </chain>
 <chain id="chain36" out="00:00:00.983">
  <property name="length">60</property>
  <property name="eof">pause</property>
  <property name="resource">/home/xiaoxiae/.cache/kdenlive/proxy/330ce071105dd1ffdd0d2b4ff7143f52.mkv</property>
  <property name="mlt_service">avformat-novalidate</property>
  <property name="seekable">1</property>
  <property name="format">3</property>
  <property name="audio_index">-1</property>
  <property name="video_index">0</property>
  <property name="kdenlive:clipname">24.mp4</property>
  <property name="kdenlive:clip_type">2</property>
  <property name="kdenlive:folderid">16</property>
  <property name="kdenlive:id">95</property>
  <property name="mute_on_pause">0</property>
  <property name="kdenlive:file_size">77793</property>
  <property name="kdenlive:file_hash">330ce071105dd1ffdd0d2b4ff7143f52</property>
  <property name="kdenlive:proxy">/home/xiaoxiae/.cache/kdenlive/proxy/330ce071105dd1ffdd0d2b4ff7143f52.mkv</property>
  <property name="kdenlive:originalurl">video/Farmer/24.mp4</property>
  <property name="kdenlive:original.mlt_type">chain</property>
  <property name="kdenlive:original.in">0</property>
  <property name="kdenlive:original.out">00:00:00.983</property>
  <property name="kdenlive:original.length">60</property>
  <property name="kdenlive:original.eof">pause</property>
  <property name="kdenlive:original.resource">video/Farmer/24.mp4</property>
  <property name="kdenlive:original.mlt_service">avformat-novalidate</property>
  <property name="kdenlive:original.meta.media.nb_streams">1</property>
  <property name="kdenlive:original.meta.media.0.stream.type">video</property>
  <property name="kdenlive:original.meta.media.0.stream.frame_rate">60</property>
  <property name="kdenlive:original.meta.media.0.stream.sample_aspect_ratio">0</property>
  <property name="kdenlive:original.meta.media.0.codec.width">1920</property>
  <property name="kdenlive:original.meta.media.0.codec.height">1080</property>
  <property name="kdenlive:original.meta.media.0.codec.rotate">0</property>
  <property name="kdenlive:original.meta.media.0.codec.pix_fmt">yuv420p</property>
  <property name="kdenlive:original.meta.media.0.codec.sample_aspect_ratio">0</property>
  <property name="kdenlive:original.meta.media.0.codec.colorspace">709</property>
  <property name="kdenlive:original.meta.media.0.codec.name">h264</property>
  <property name="kdenlive:original.meta.media.0.codec.long_name">H.264 / AVC / MPEG-4 AVC / MPEG-4 part 10</property>
  <property name="kdenlive:original.meta.media.0.codec.bit_rate">609736</property>
  <property name="kdenlive:original.meta.attr.0.stream.handler_name.markup">VideoHandler</property>
  <property name="kdenlive:original.meta.attr.0.stream.vendor_id.markup">[0][0][0][0]</property>
  <property name="kdenlive:original.meta.attr.0.stream.encoder.markup">Lavc60.3.100 libx264</property>
  <property name="kdenlive:original.meta.attr.major_brand.markup">isom</property>
  <property name="kdenlive:original.meta.attr.minor_version.markup">512</property>
  <property name="kdenlive:original.meta.attr.compatible_brands.markup">isomiso2avc1mp41</property>
  <property name="kdenlive:original.meta.attr.encoder.markup">Lavf60.3.100</property>
  <property name="kdenlive:original.meta.attr.comment.markup">Rendered with Manim Community v0.17.3</property>
  <property name="kdenlive:original.seekable">1</property>
  <property name="kdenlive:original.width">1920</property>
  <property name="kdenlive:original.height">1080</property>
  <property name="kdenlive:original.meta.media.sample_aspect_num">1</property>
  <property name="kdenlive:original.meta.media.sample_aspect_den">1</property>
  <property name="kdenlive:original.format">3</property>
  <property name="kdenlive:original.audio_index">-1</property>
  <property name="kdenlive:original.video_index">0</property>
  <property name="kdenlive:original.meta.media.frame_rate_num">60</property>
  <property name="kdenlive:original.meta.media.frame_rate_den">1</property>
  <property name="kdenlive:original.meta.media.colorspace">709</property>
  <property name="kdenlive:original.meta.media.color_trc">2</property>
  <property name="kdenlive:original.meta.media.has_b_frames">2</property>
  <property name="kdenlive:original.meta.media.width">1920</property>
  <property name="kdenlive:original.meta.media.height">1080</property>
  <property name="kdenlive:original.meta.media.color_range">mpeg</property>
  <property name="kdenlive:original.meta.media.top_field_first">0</property>
  <property name="kdenlive:original.meta.media.progressive">1</property>
  <property name="kdenlive:original.kdenlive:clip_type">2</property>
  <property name="kdenlive:original.kdenlive:folderid">16</property>
  <property name="kdenlive:original.kdenlive:id">95</property>
  <property name="kdenlive:original.mute_on_pause">0</property>
  <property name="kdenlive:original.kdenlive:file_size">77793</property>
  <property name="kdenlive:original.kdenlive:file_hash">330ce071105dd1ffdd0d2b4ff7143f52</property>
  <property name="kdenlive:original.backup">1</property>
  <property name="meta.media.nb_streams">1</property>
  <property name="meta.media.0.stream.type">video</property>
  <property name="meta.media.0.stream.frame_rate">60</property>
  <property name="meta.media.0.stream.sample_aspect_ratio">0</property>
  <property name="meta.media.0.codec.width">640</property>
  <property name="meta.media.0.codec.height">360</property>
  <property name="meta.media.0.codec.rotate">0</property>
  <property name="meta.media.0.codec.pix_fmt">yuvj420p</property>
  <property name="meta.media.0.codec.sample_aspect_ratio">0</property>
  <property name="meta.media.0.codec.colorspace">601</property>
  <property name="meta.media.0.codec.name">mjpeg</property>
  <property name="meta.media.0.codec.long_name">MJPEG (Motion JPEG)</property>
  <property name="meta.media.0.codec.bit_rate">0</property>
  <property name="meta.attr.0.stream.HANDLER_NAME.markup">VideoHandler</property>
  <property name="meta.attr.0.stream.VENDOR_ID.markup">[0][0][0][0]</property>
  <property name="meta.attr.0.stream.ENCODER.markup">Lavc60.3.100 mjpeg</property>
  <property name="meta.attr.0.stream.DURATION.markup">00:00:01.000000000</property>
  <property name="meta.attr.COMMENT.markup">Rendered with Manim Community v0.17.3</property>
  <property name="meta.attr.MAJOR_BRAND.markup">isom</property>
  <property name="meta.attr.MINOR_VERSION.markup">512</property>
  <property name="meta.attr.COMPATIBLE_BRANDS.markup">isomiso2avc1mp41</property>
  <property name="meta.attr.ENCODER.markup">Lavf60.3.100</property>
  <property name="meta.media.sample_aspect_num">1</property>
  <property name="meta.media.sample_aspect_den">1</property>
  <property name="meta.media.frame_rate_num">60</property>
  <property name="meta.media.frame_rate_den">1</property>
  <property name="meta.media.colorspace">601</property>
  <property name="meta.media.color_trc">2</property>
  <property name="meta.media.has_b_frames">0</property>
  <property name="meta.media.width">640</property>
  <property name="meta.media.height">360</property>
  <property name="meta.media.color_range">full</property>
  <property name="xml">was here</property>
  <property name="meta.media.top_field_first">0</property>
  <property name="meta.media.progressive">1</property>
  <property name="set.test_audio">1</property>
  <property name="set.test_image">0</property>
 </chain>
 <chain id="chain37" out="00:00:01.233">
  <property name="length">75</property>
  <property name="eof">pause</property>
  <property name="resource">/home/xiaoxiae/.cache/kdenlive/proxy/6cac1ff78730f74967948356aa15457a.mkv</property>
  <property name="mlt_service">avformat-novalidate</property>
  <property name="seekable">1</property>
  <property name="format">3</property>
  <property name="audio_index">-1</property>
  <property name="video_index">0</property>
  <property name="kdenlive:clipname">25.mp4</property>
  <property name="kdenlive:clip_type">2</property>
  <property name="kdenlive:folderid">16</property>
  <property name="kdenlive:id">96</property>
  <property name="mute_on_pause">0</property>
  <property name="kdenlive:file_size">59096</property>
  <property name="kdenlive:file_hash">6cac1ff78730f74967948356aa15457a</property>
  <property name="kdenlive:proxy">/home/xiaoxiae/.cache/kdenlive/proxy/6cac1ff78730f74967948356aa15457a.mkv</property>
  <property name="kdenlive:originalurl">video/Farmer/25.mp4</property>
  <property name="kdenlive:original.mlt_type">chain</property>
  <property name="kdenlive:original.in">0</property>
  <property name="kdenlive:original.out">00:00:01.233</property>
  <property name="kdenlive:original.length">75</property>
  <property name="kdenlive:original.eof">pause</property>
  <property name="kdenlive:original.resource">video/Farmer/25.mp4</property>
  <property name="kdenlive:original.mlt_service">avformat-novalidate</property>
  <property name="kdenlive:original.meta.media.nb_streams">1</property>
  <property name="kdenlive:original.meta.media.0.stream.type">video</property>
  <property name="kdenlive:original.meta.media.0.stream.frame_rate">60</property>
  <property name="kdenlive:original.meta.media.0.stream.sample_aspect_ratio">0</property>
  <property name="kdenlive:original.meta.media.0.codec.width">1920</property>
  <property name="kdenlive:original.meta.media.0.codec.height">1080</property>
  <property name="kdenlive:original.meta.media.0.codec.rotate">0</property>
  <property name="kdenlive:original.meta.media.0.codec.pix_fmt">yuv420p</property>
  <property name="kdenlive:original.meta.media.0.codec.sample_aspect_ratio">0</property>
  <property name="kdenlive:original.meta.media.0.codec.colorspace">709</property>
  <property name="kdenlive:original.meta.media.0.codec.name">h264</property>
  <property name="kdenlive:original.meta.media.0.codec.long_name">H.264 / AVC / MPEG-4 AVC / MPEG-4 part 10</property>
  <property name="kdenlive:original.meta.media.0.codec.bit_rate">366771</property>
  <property name="kdenlive:original.meta.attr.0.stream.handler_name.markup">VideoHandler</property>
  <property name="kdenlive:original.meta.attr.0.stream.vendor_id.markup">[0][0][0][0]</property>
  <property name="kdenlive:original.meta.attr.0.stream.encoder.markup">Lavc60.3.100 libx264</property>
  <property name="kdenlive:original.meta.attr.major_brand.markup">isom</property>
  <property name="kdenlive:original.meta.attr.minor_version.markup">512</property>
  <property name="kdenlive:original.meta.attr.compatible_brands.markup">isomiso2avc1mp41</property>
  <property name="kdenlive:original.meta.attr.encoder.markup">Lavf60.3.100</property>
  <property name="kdenlive:original.meta.attr.comment.markup">Rendered with Manim Community v0.17.3</property>
  <property name="kdenlive:original.seekable">1</property>
  <property name="kdenlive:original.width">1920</property>
  <property name="kdenlive:original.height">1080</property>
  <property name="kdenlive:original.meta.media.sample_aspect_num">1</property>
  <property name="kdenlive:original.meta.media.sample_aspect_den">1</property>
  <property name="kdenlive:original.format">3</property>
  <property name="kdenlive:original.audio_index">-1</property>
  <property name="kdenlive:original.video_index">0</property>
  <property name="kdenlive:original.meta.media.frame_rate_num">60</property>
  <property name="kdenlive:original.meta.media.frame_rate_den">1</property>
  <property name="kdenlive:original.meta.media.colorspace">709</property>
  <property name="kdenlive:original.meta.media.color_trc">2</property>
  <property name="kdenlive:original.meta.media.has_b_frames">2</property>
  <property name="kdenlive:original.meta.media.width">1920</property>
  <property name="kdenlive:original.meta.media.height">1080</property>
  <property name="kdenlive:original.meta.media.color_range">mpeg</property>
  <property name="kdenlive:original.meta.media.top_field_first">0</property>
  <property name="kdenlive:original.meta.media.progressive">1</property>
  <property name="kdenlive:original.kdenlive:clip_type">2</property>
  <property name="kdenlive:original.kdenlive:folderid">16</property>
  <property name="kdenlive:original.kdenlive:id">96</property>
  <property name="kdenlive:original.mute_on_pause">0</property>
  <property name="kdenlive:original.kdenlive:file_size">59096</property>
  <property name="kdenlive:original.kdenlive:file_hash">6cac1ff78730f74967948356aa15457a</property>
  <property name="kdenlive:original.backup">1</property>
  <property name="meta.media.nb_streams">1</property>
  <property name="meta.media.0.stream.type">video</property>
  <property name="meta.media.0.stream.frame_rate">60</property>
  <property name="meta.media.0.stream.sample_aspect_ratio">0</property>
  <property name="meta.media.0.codec.width">640</property>
  <property name="meta.media.0.codec.height">360</property>
  <property name="meta.media.0.codec.rotate">0</property>
  <property name="meta.media.0.codec.pix_fmt">yuvj420p</property>
  <property name="meta.media.0.codec.sample_aspect_ratio">0</property>
  <property name="meta.media.0.codec.colorspace">601</property>
  <property name="meta.media.0.codec.name">mjpeg</property>
  <property name="meta.media.0.codec.long_name">MJPEG (Motion JPEG)</property>
  <property name="meta.media.0.codec.bit_rate">0</property>
  <property name="meta.attr.0.stream.HANDLER_NAME.markup">VideoHandler</property>
  <property name="meta.attr.0.stream.VENDOR_ID.markup">[0][0][0][0]</property>
  <property name="meta.attr.0.stream.ENCODER.markup">Lavc60.3.100 mjpeg</property>
  <property name="meta.attr.0.stream.DURATION.markup">00:00:01.250000000</property>
  <property name="meta.attr.COMMENT.markup">Rendered with Manim Community v0.17.3</property>
  <property name="meta.attr.MAJOR_BRAND.markup">isom</property>
  <property name="meta.attr.MINOR_VERSION.markup">512</property>
  <property name="meta.attr.COMPATIBLE_BRANDS.markup">isomiso2avc1mp41</property>
  <property name="meta.attr.ENCODER.markup">Lavf60.3.100</property>
  <property name="meta.media.sample_aspect_num">1</property>
  <property name="meta.media.sample_aspect_den">1</property>
  <property name="meta.media.frame_rate_num">60</property>
  <property name="meta.media.frame_rate_den">1</property>
  <property name="meta.media.colorspace">601</property>
  <property name="meta.media.color_trc">2</property>
  <property name="meta.media.has_b_frames">0</property>
  <property name="meta.media.width">640</property>
  <property name="meta.media.height">360</property>
  <property name="meta.media.color_range">full</property>
  <property name="xml">was here</property>
  <property name="meta.media.top_field_first">0</property>
  <property name="meta.media.progressive">1</property>
  <property name="set.test_audio">1</property>
  <property name="set.test_image">0</property>
 </chain>
 <chain id="chain38" out="00:00:00.983">
  <property name="length">60</property>
  <property name="eof">pause</property>
  <property name="resource">/home/xiaoxiae/.cache/kdenlive/proxy/67cea786e0ad35a64d111e7cb4493a78.mkv</property>
  <property name="mlt_service">avformat-novalidate</property>
  <property name="seekable">1</property>
  <property name="format">3</property>
  <property name="audio_index">-1</property>
  <property name="video_index">0</property>
  <property name="kdenlive:clipname">26.mp4</property>
  <property name="kdenlive:clip_type">2</property>
  <property name="kdenlive:folderid">16</property>
  <property name="kdenlive:id">97</property>
  <property name="mute_on_pause">0</property>
  <property name="kdenlive:file_size">80918</property>
  <property name="kdenlive:file_hash">67cea786e0ad35a64d111e7cb4493a78</property>
  <property name="kdenlive:proxy">/home/xiaoxiae/.cache/kdenlive/proxy/67cea786e0ad35a64d111e7cb4493a78.mkv</property>
  <property name="kdenlive:originalurl">video/Farmer/26.mp4</property>
  <property name="kdenlive:original.mlt_type">chain</property>
  <property name="kdenlive:original.in">0</property>
  <property name="kdenlive:original.out">00:00:00.983</property>
  <property name="kdenlive:original.length">60</property>
  <property name="kdenlive:original.eof">pause</property>
  <property name="kdenlive:original.resource">video/Farmer/26.mp4</property>
  <property name="kdenlive:original.mlt_service">avformat-novalidate</property>
  <property name="kdenlive:original.meta.media.nb_streams">1</property>
  <property name="kdenlive:original.meta.media.0.stream.type">video</property>
  <property name="kdenlive:original.meta.media.0.stream.frame_rate">60</property>
  <property name="kdenlive:original.meta.media.0.stream.sample_aspect_ratio">0</property>
  <property name="kdenlive:original.meta.media.0.codec.width">1920</property>
  <property name="kdenlive:original.meta.media.0.codec.height">1080</property>
  <property name="kdenlive:original.meta.media.0.codec.rotate">0</property>
  <property name="kdenlive:original.meta.media.0.codec.pix_fmt">yuv420p</property>
  <property name="kdenlive:original.meta.media.0.codec.sample_aspect_ratio">0</property>
  <property name="kdenlive:original.meta.media.0.codec.colorspace">709</property>
  <property name="kdenlive:original.meta.media.0.codec.name">h264</property>
  <property name="kdenlive:original.meta.media.0.codec.long_name">H.264 / AVC / MPEG-4 AVC / MPEG-4 part 10</property>
  <property name="kdenlive:original.meta.media.0.codec.bit_rate">634416</property>
  <property name="kdenlive:original.meta.attr.0.stream.handler_name.markup">VideoHandler</property>
  <property name="kdenlive:original.meta.attr.0.stream.vendor_id.markup">[0][0][0][0]</property>
  <property name="kdenlive:original.meta.attr.0.stream.encoder.markup">Lavc60.3.100 libx264</property>
  <property name="kdenlive:original.meta.attr.major_brand.markup">isom</property>
  <property name="kdenlive:original.meta.attr.minor_version.markup">512</property>
  <property name="kdenlive:original.meta.attr.compatible_brands.markup">isomiso2avc1mp41</property>
  <property name="kdenlive:original.meta.attr.encoder.markup">Lavf60.3.100</property>
  <property name="kdenlive:original.meta.attr.comment.markup">Rendered with Manim Community v0.17.3</property>
  <property name="kdenlive:original.seekable">1</property>
  <property name="kdenlive:original.width">1920</property>
  <property name="kdenlive:original.height">1080</property>
  <property name="kdenlive:original.meta.media.sample_aspect_num">1</property>
  <property name="kdenlive:original.meta.media.sample_aspect_den">1</property>
  <property name="kdenlive:original.format">3</property>
  <property name="kdenlive:original.audio_index">-1</property>
  <property name="kdenlive:original.video_index">0</property>
  <property name="kdenlive:original.meta.media.frame_rate_num">60</property>
  <property name="kdenlive:original.meta.media.frame_rate_den">1</property>
  <property name="kdenlive:original.meta.media.colorspace">709</property>
  <property name="kdenlive:original.meta.media.color_trc">2</property>
  <property name="kdenlive:original.meta.media.has_b_frames">2</property>
  <property name="kdenlive:original.meta.media.width">1920</property>
  <property name="kdenlive:original.meta.media.height">1080</property>
  <property name="kdenlive:original.meta.media.color_range">mpeg</property>
  <property name="kdenlive:original.meta.media.top_field_first">0</property>
  <property name="kdenlive:original.meta.media.progressive">1</property>
  <property name="kdenlive:original.kdenlive:clip_type">2</property>
  <property name="kdenlive:original.kdenlive:folderid">16</property>
  <property name="kdenlive:original.kdenlive:id">97</property>
  <property name="kdenlive:original.mute_on_pause">0</property>
  <property name="kdenlive:original.kdenlive:file_size">80918</property>
  <property name="kdenlive:original.kdenlive:file_hash">67cea786e0ad35a64d111e7cb4493a78</property>
  <property name="kdenlive:original.backup">1</property>
  <property name="meta.media.nb_streams">1</property>
  <property name="meta.media.0.stream.type">video</property>
  <property name="meta.media.0.stream.frame_rate">60</property>
  <property name="meta.media.0.stream.sample_aspect_ratio">0</property>
  <property name="meta.media.0.codec.width">640</property>
  <property name="meta.media.0.codec.height">360</property>
  <property name="meta.media.0.codec.rotate">0</property>
  <property name="meta.media.0.codec.pix_fmt">yuvj420p</property>
  <property name="meta.media.0.codec.sample_aspect_ratio">0</property>
  <property name="meta.media.0.codec.colorspace">601</property>
  <property name="meta.media.0.codec.name">mjpeg</property>
  <property name="meta.media.0.codec.long_name">MJPEG (Motion JPEG)</property>
  <property name="meta.media.0.codec.bit_rate">0</property>
  <property name="meta.attr.0.stream.HANDLER_NAME.markup">VideoHandler</property>
  <property name="meta.attr.0.stream.VENDOR_ID.markup">[0][0][0][0]</property>
  <property name="meta.attr.0.stream.ENCODER.markup">Lavc60.3.100 mjpeg</property>
  <property name="meta.attr.0.stream.DURATION.markup">00:00:01.000000000</property>
  <property name="meta.attr.COMMENT.markup">Rendered with Manim Community v0.17.3</property>
  <property name="meta.attr.MAJOR_BRAND.markup">isom</property>
  <property name="meta.attr.MINOR_VERSION.markup">512</property>
  <property name="meta.attr.COMPATIBLE_BRANDS.markup">isomiso2avc1mp41</property>
  <property name="meta.attr.ENCODER.markup">Lavf60.3.100</property>
  <property name="meta.media.sample_aspect_num">1</property>
  <property name="meta.media.sample_aspect_den">1</property>
  <property name="meta.media.frame_rate_num">60</property>
  <property name="meta.media.frame_rate_den">1</property>
  <property name="meta.media.colorspace">601</property>
  <property name="meta.media.color_trc">2</property>
  <property name="meta.media.has_b_frames">0</property>
  <property name="meta.media.width">640</property>
  <property name="meta.media.height">360</property>
  <property name="meta.media.color_range">full</property>
  <property name="xml">was here</property>
  <property name="meta.media.top_field_first">0</property>
  <property name="meta.media.progressive">1</property>
  <property name="set.test_audio">1</property>
  <property name="set.test_image">0</property>
 </chain>
 <producer id="producer2" in="00:00:00.000" out="00:00:19.983">
  <property name="length">1200</property>
  <property name="eof">pause</property>
  <property name="resource">0.100000:/home/xiaoxiae/.cache/kdenlive/proxy/7ddf1063092d3e3276d0c987fc16f6de.mkv</property>
  <property name="aspect_ratio">1</property>
  <property name="meta.media.nb_streams">1</property>
  <property name="meta.media.0.stream.type">video</property>
  <property name="meta.media.0.stream.frame_rate">60</property>
  <property name="meta.media.0.stream.sample_aspect_ratio">0</property>
  <property name="meta.media.0.codec.width">640</property>
  <property name="meta.media.0.codec.height">360</property>
  <property name="meta.media.0.codec.rotate">0</property>
  <property name="meta.media.0.codec.pix_fmt">yuvj420p</property>
  <property name="meta.media.0.codec.sample_aspect_ratio">0</property>
  <property name="meta.media.0.codec.colorspace">601</property>
  <property name="meta.media.0.codec.name">mjpeg</property>
  <property name="meta.media.0.codec.long_name">MJPEG (Motion JPEG)</property>
  <property name="meta.media.0.codec.bit_rate">0</property>
  <property name="meta.attr.0.stream.HANDLER_NAME.markup">VideoHandler</property>
  <property name="meta.attr.0.stream.VENDOR_ID.markup">[0][0][0][0]</property>
  <property name="meta.attr.0.stream.ENCODER.markup">Lavc60.3.100 mjpeg</property>
  <property name="meta.attr.0.stream.DURATION.markup">00:00:02.000000000</property>
  <property name="meta.attr.COMMENT.markup">Rendered with Manim Community v0.17.3</property>
  <property name="meta.attr.MAJOR_BRAND.markup">isom</property>
  <property name="meta.attr.MINOR_VERSION.markup">512</property>
  <property name="meta.attr.COMPATIBLE_BRANDS.markup">isomiso2avc1mp41</property>
  <property name="meta.attr.ENCODER.markup">Lavf60.3.100</property>
  <property name="seekable">1</property>
  <property name="meta.media.sample_aspect_num">1</property>
  <property name="meta.media.sample_aspect_den">1</property>
  <property name="format">3</property>
  <property name="audio_index">-1</property>
  <property name="video_index">0</property>
  <property name="warp_speed">0.1</property>
  <property name="warp_resource">/home/xiaoxiae/.cache/kdenlive/proxy/7ddf1063092d3e3276d0c987fc16f6de.mkv</property>
  <property name="mlt_service">timewarp</property>
  <property name="kdenlive:proxy">/home/xiaoxiae/.cache/kdenlive/proxy/7ddf1063092d3e3276d0c987fc16f6de.mkv</property>
  <property name="kdenlive:originalurl">video/Farmer/27.mp4</property>
  <property name="set.test_audio">1</property>
  <property name="set.test_image">0</property>
  <property name="kdenlive:id">98</property>
  <property name="warp_pitch">0</property>
  <property name="meta.media.frame_rate_num">60</property>
  <property name="meta.media.frame_rate_den">1</property>
  <property name="meta.media.colorspace">601</property>
  <property name="meta.media.color_trc">2</property>
  <property name="meta.media.has_b_frames">0</property>
  <property name="meta.media.width">640</property>
  <property name="meta.media.height">360</property>
  <property name="meta.media.color_range">full</property>
  <property name="meta.media.top_field_first">0</property>
  <property name="meta.media.progressive">1</property>
 </producer>
 <chain id="chain39" out="00:00:01.983">
  <property name="length">120</property>
  <property name="eof">pause</property>
  <property name="resource">/home/xiaoxiae/.cache/kdenlive/proxy/7ddf1063092d3e3276d0c987fc16f6de.mkv</property>
  <property name="mlt_service">avformat-novalidate</property>
  <property name="seekable">1</property>
  <property name="format">3</property>
  <property name="audio_index">-1</property>
  <property name="video_index">0</property>
  <property name="kdenlive:clipname">27.mp4</property>
  <property name="kdenlive:clip_type">2</property>
  <property name="kdenlive:folderid">16</property>
  <property name="kdenlive:id">98</property>
  <property name="mute_on_pause">0</property>
  <property name="kdenlive:file_size">114227</property>
  <property name="kdenlive:file_hash">7ddf1063092d3e3276d0c987fc16f6de</property>
  <property name="kdenlive:proxy">/home/xiaoxiae/.cache/kdenlive/proxy/7ddf1063092d3e3276d0c987fc16f6de.mkv</property>
  <property name="kdenlive:originalurl">video/Farmer/27.mp4</property>
  <property name="kdenlive:original.mlt_type">chain</property>
  <property name="kdenlive:original.in">0</property>
  <property name="kdenlive:original.out">00:00:01.983</property>
  <property name="kdenlive:original.length">120</property>
  <property name="kdenlive:original.eof">pause</property>
  <property name="kdenlive:original.resource">video/Farmer/27.mp4</property>
  <property name="kdenlive:original.mlt_service">avformat-novalidate</property>
  <property name="kdenlive:original.meta.media.nb_streams">1</property>
  <property name="kdenlive:original.meta.media.0.stream.type">video</property>
  <property name="kdenlive:original.meta.media.0.stream.frame_rate">60</property>
  <property name="kdenlive:original.meta.media.0.stream.sample_aspect_ratio">0</property>
  <property name="kdenlive:original.meta.media.0.codec.width">1920</property>
  <property name="kdenlive:original.meta.media.0.codec.height">1080</property>
  <property name="kdenlive:original.meta.media.0.codec.rotate">0</property>
  <property name="kdenlive:original.meta.media.0.codec.pix_fmt">yuv420p</property>
  <property name="kdenlive:original.meta.media.0.codec.sample_aspect_ratio">0</property>
  <property name="kdenlive:original.meta.media.0.codec.colorspace">709</property>
  <property name="kdenlive:original.meta.media.0.codec.name">h264</property>
  <property name="kdenlive:original.meta.media.0.codec.long_name">H.264 / AVC / MPEG-4 AVC / MPEG-4 part 10</property>
  <property name="kdenlive:original.meta.media.0.codec.bit_rate">447500</property>
  <property name="kdenlive:original.meta.attr.0.stream.handler_name.markup">VideoHandler</property>
  <property name="kdenlive:original.meta.attr.0.stream.vendor_id.markup">[0][0][0][0]</property>
  <property name="kdenlive:original.meta.attr.0.stream.encoder.markup">Lavc60.3.100 libx264</property>
  <property name="kdenlive:original.meta.attr.major_brand.markup">isom</property>
  <property name="kdenlive:original.meta.attr.minor_version.markup">512</property>
  <property name="kdenlive:original.meta.attr.compatible_brands.markup">isomiso2avc1mp41</property>
  <property name="kdenlive:original.meta.attr.encoder.markup">Lavf60.3.100</property>
  <property name="kdenlive:original.meta.attr.comment.markup">Rendered with Manim Community v0.17.3</property>
  <property name="kdenlive:original.seekable">1</property>
  <property name="kdenlive:original.width">1920</property>
  <property name="kdenlive:original.height">1080</property>
  <property name="kdenlive:original.meta.media.sample_aspect_num">1</property>
  <property name="kdenlive:original.meta.media.sample_aspect_den">1</property>
  <property name="kdenlive:original.format">3</property>
  <property name="kdenlive:original.audio_index">-1</property>
  <property name="kdenlive:original.video_index">0</property>
  <property name="kdenlive:original.meta.media.frame_rate_num">60</property>
  <property name="kdenlive:original.meta.media.frame_rate_den">1</property>
  <property name="kdenlive:original.meta.media.colorspace">709</property>
  <property name="kdenlive:original.meta.media.color_trc">2</property>
  <property name="kdenlive:original.meta.media.has_b_frames">2</property>
  <property name="kdenlive:original.meta.media.width">1920</property>
  <property name="kdenlive:original.meta.media.height">1080</property>
  <property name="kdenlive:original.meta.media.color_range">mpeg</property>
  <property name="kdenlive:original.meta.media.top_field_first">0</property>
  <property name="kdenlive:original.meta.media.progressive">1</property>
  <property name="kdenlive:original.kdenlive:clip_type">2</property>
  <property name="kdenlive:original.kdenlive:folderid">16</property>
  <property name="kdenlive:original.kdenlive:id">98</property>
  <property name="kdenlive:original.mute_on_pause">0</property>
  <property name="kdenlive:original.kdenlive:file_size">114227</property>
  <property name="kdenlive:original.kdenlive:file_hash">7ddf1063092d3e3276d0c987fc16f6de</property>
  <property name="kdenlive:original.backup">1</property>
  <property name="meta.media.nb_streams">1</property>
  <property name="meta.media.0.stream.type">video</property>
  <property name="meta.media.0.stream.frame_rate">60</property>
  <property name="meta.media.0.stream.sample_aspect_ratio">0</property>
  <property name="meta.media.0.codec.width">640</property>
  <property name="meta.media.0.codec.height">360</property>
  <property name="meta.media.0.codec.rotate">0</property>
  <property name="meta.media.0.codec.pix_fmt">yuvj420p</property>
  <property name="meta.media.0.codec.sample_aspect_ratio">0</property>
  <property name="meta.media.0.codec.colorspace">601</property>
  <property name="meta.media.0.codec.name">mjpeg</property>
  <property name="meta.media.0.codec.long_name">MJPEG (Motion JPEG)</property>
  <property name="meta.media.0.codec.bit_rate">0</property>
  <property name="meta.attr.0.stream.HANDLER_NAME.markup">VideoHandler</property>
  <property name="meta.attr.0.stream.VENDOR_ID.markup">[0][0][0][0]</property>
  <property name="meta.attr.0.stream.ENCODER.markup">Lavc60.3.100 mjpeg</property>
  <property name="meta.attr.0.stream.DURATION.markup">00:00:02.000000000</property>
  <property name="meta.attr.COMMENT.markup">Rendered with Manim Community v0.17.3</property>
  <property name="meta.attr.MAJOR_BRAND.markup">isom</property>
  <property name="meta.attr.MINOR_VERSION.markup">512</property>
  <property name="meta.attr.COMPATIBLE_BRANDS.markup">isomiso2avc1mp41</property>
  <property name="meta.attr.ENCODER.markup">Lavf60.3.100</property>
  <property name="meta.media.sample_aspect_num">1</property>
  <property name="meta.media.sample_aspect_den">1</property>
  <property name="meta.media.frame_rate_num">60</property>
  <property name="meta.media.frame_rate_den">1</property>
  <property name="meta.media.colorspace">601</property>
  <property name="meta.media.color_trc">2</property>
  <property name="meta.media.has_b_frames">0</property>
  <property name="meta.media.width">640</property>
  <property name="meta.media.height">360</property>
  <property name="meta.media.color_range">full</property>
  <property name="xml">was here</property>
  <property name="meta.media.top_field_first">0</property>
  <property name="meta.media.progressive">1</property>
  <property name="set.test_audio">1</property>
  <property name="set.test_image">0</property>
 </chain>
 <chain id="chain40" out="00:00:00.983">
  <property name="length">60</property>
  <property name="eof">pause</property>
  <property name="resource">/home/xiaoxiae/.cache/kdenlive/proxy/bef54e6dd97815f3520bb1ae4de0ee4d.mkv</property>
  <property name="mlt_service">avformat-novalidate</property>
  <property name="seekable">1</property>
  <property name="format">3</property>
  <property name="audio_index">-1</property>
  <property name="video_index">0</property>
  <property name="kdenlive:clipname">28.mp4</property>
  <property name="kdenlive:clip_type">2</property>
  <property name="kdenlive:folderid">16</property>
  <property name="kdenlive:id">99</property>
  <property name="mute_on_pause">0</property>
  <property name="kdenlive:file_size">61196</property>
  <property name="kdenlive:file_hash">bef54e6dd97815f3520bb1ae4de0ee4d</property>
  <property name="kdenlive:proxy">/home/xiaoxiae/.cache/kdenlive/proxy/bef54e6dd97815f3520bb1ae4de0ee4d.mkv</property>
  <property name="kdenlive:originalurl">video/Farmer/28.mp4</property>
  <property name="kdenlive:original.mlt_type">chain</property>
  <property name="kdenlive:original.in">0</property>
  <property name="kdenlive:original.out">00:00:00.983</property>
  <property name="kdenlive:original.length">60</property>
  <property name="kdenlive:original.eof">pause</property>
  <property name="kdenlive:original.resource">video/Farmer/28.mp4</property>
  <property name="kdenlive:original.mlt_service">avformat-novalidate</property>
  <property name="kdenlive:original.meta.media.nb_streams">1</property>
  <property name="kdenlive:original.meta.media.0.stream.type">video</property>
  <property name="kdenlive:original.meta.media.0.stream.frame_rate">60</property>
  <property name="kdenlive:original.meta.media.0.stream.sample_aspect_ratio">0</property>
  <property name="kdenlive:original.meta.media.0.codec.width">1920</property>
  <property name="kdenlive:original.meta.media.0.codec.height">1080</property>
  <property name="kdenlive:original.meta.media.0.codec.rotate">0</property>
  <property name="kdenlive:original.meta.media.0.codec.pix_fmt">yuv420p</property>
  <property name="kdenlive:original.meta.media.0.codec.sample_aspect_ratio">0</property>
  <property name="kdenlive:original.meta.media.0.codec.colorspace">709</property>
  <property name="kdenlive:original.meta.media.0.codec.name">h264</property>
  <property name="kdenlive:original.meta.media.0.codec.long_name">H.264 / AVC / MPEG-4 AVC / MPEG-4 part 10</property>
  <property name="kdenlive:original.meta.media.0.codec.bit_rate">476512</property>
  <property name="kdenlive:original.meta.attr.0.stream.handler_name.markup">VideoHandler</property>
  <property name="kdenlive:original.meta.attr.0.stream.vendor_id.markup">[0][0][0][0]</property>
  <property name="kdenlive:original.meta.attr.0.stream.encoder.markup">Lavc60.3.100 libx264</property>
  <property name="kdenlive:original.meta.attr.major_brand.markup">isom</property>
  <property name="kdenlive:original.meta.attr.minor_version.markup">512</property>
  <property name="kdenlive:original.meta.attr.compatible_brands.markup">isomiso2avc1mp41</property>
  <property name="kdenlive:original.meta.attr.encoder.markup">Lavf60.3.100</property>
  <property name="kdenlive:original.meta.attr.comment.markup">Rendered with Manim Community v0.17.3</property>
  <property name="kdenlive:original.seekable">1</property>
  <property name="kdenlive:original.width">1920</property>
  <property name="kdenlive:original.height">1080</property>
  <property name="kdenlive:original.meta.media.sample_aspect_num">1</property>
  <property name="kdenlive:original.meta.media.sample_aspect_den">1</property>
  <property name="kdenlive:original.format">3</property>
  <property name="kdenlive:original.audio_index">-1</property>
  <property name="kdenlive:original.video_index">0</property>
  <property name="kdenlive:original.meta.media.frame_rate_num">60</property>
  <property name="kdenlive:original.meta.media.frame_rate_den">1</property>
  <property name="kdenlive:original.meta.media.colorspace">709</property>
  <property name="kdenlive:original.meta.media.color_trc">2</property>
  <property name="kdenlive:original.meta.media.has_b_frames">2</property>
  <property name="kdenlive:original.meta.media.width">1920</property>
  <property name="kdenlive:original.meta.media.height">1080</property>
  <property name="kdenlive:original.meta.media.color_range">mpeg</property>
  <property name="kdenlive:original.meta.media.top_field_first">0</property>
  <property name="kdenlive:original.meta.media.progressive">1</property>
  <property name="kdenlive:original.kdenlive:clip_type">2</property>
  <property name="kdenlive:original.kdenlive:folderid">16</property>
  <property name="kdenlive:original.kdenlive:id">99</property>
  <property name="kdenlive:original.mute_on_pause">0</property>
  <property name="kdenlive:original.kdenlive:file_size">61196</property>
  <property name="kdenlive:original.kdenlive:file_hash">bef54e6dd97815f3520bb1ae4de0ee4d</property>
  <property name="kdenlive:original.backup">1</property>
  <property name="meta.media.nb_streams">1</property>
  <property name="meta.media.0.stream.type">video</property>
  <property name="meta.media.0.stream.frame_rate">60</property>
  <property name="meta.media.0.stream.sample_aspect_ratio">0</property>
  <property name="meta.media.0.codec.width">640</property>
  <property name="meta.media.0.codec.height">360</property>
  <property name="meta.media.0.codec.rotate">0</property>
  <property name="meta.media.0.codec.pix_fmt">yuvj420p</property>
  <property name="meta.media.0.codec.sample_aspect_ratio">0</property>
  <property name="meta.media.0.codec.colorspace">601</property>
  <property name="meta.media.0.codec.name">mjpeg</property>
  <property name="meta.media.0.codec.long_name">MJPEG (Motion JPEG)</property>
  <property name="meta.media.0.codec.bit_rate">0</property>
  <property name="meta.attr.0.stream.HANDLER_NAME.markup">VideoHandler</property>
  <property name="meta.attr.0.stream.VENDOR_ID.markup">[0][0][0][0]</property>
  <property name="meta.attr.0.stream.ENCODER.markup">Lavc60.3.100 mjpeg</property>
  <property name="meta.attr.0.stream.DURATION.markup">00:00:01.000000000</property>
  <property name="meta.attr.COMMENT.markup">Rendered with Manim Community v0.17.3</property>
  <property name="meta.attr.MAJOR_BRAND.markup">isom</property>
  <property name="meta.attr.MINOR_VERSION.markup">512</property>
  <property name="meta.attr.COMPATIBLE_BRANDS.markup">isomiso2avc1mp41</property>
  <property name="meta.attr.ENCODER.markup">Lavf60.3.100</property>
  <property name="meta.media.sample_aspect_num">1</property>
  <property name="meta.media.sample_aspect_den">1</property>
  <property name="meta.media.frame_rate_num">60</property>
  <property name="meta.media.frame_rate_den">1</property>
  <property name="meta.media.colorspace">601</property>
  <property name="meta.media.color_trc">2</property>
  <property name="meta.media.has_b_frames">0</property>
  <property name="meta.media.width">640</property>
  <property name="meta.media.height">360</property>
  <property name="meta.media.color_range">full</property>
  <property name="xml">was here</property>
  <property name="meta.media.top_field_first">0</property>
  <property name="meta.media.progressive">1</property>
  <property name="set.test_audio">1</property>
  <property name="set.test_image">0</property>
 </chain>
 <chain id="chain41" out="00:00:02.983">
  <property name="length">180</property>
  <property name="eof">pause</property>
  <property name="resource">/home/xiaoxiae/.cache/kdenlive/proxy/7ac657f1c3040bdc19439c3c7aba628c.mkv</property>
  <property name="mlt_service">avformat-novalidate</property>
  <property name="seekable">1</property>
  <property name="format">3</property>
  <property name="audio_index">-1</property>
  <property name="video_index">0</property>
  <property name="kdenlive:clipname">29.mp4</property>
  <property name="kdenlive:clip_type">2</property>
  <property name="kdenlive:folderid">16</property>
  <property name="kdenlive:id">100</property>
  <property name="mute_on_pause">0</property>
  <property name="kdenlive:file_size">169686</property>
  <property name="kdenlive:file_hash">7ac657f1c3040bdc19439c3c7aba628c</property>
  <property name="kdenlive:proxy">/home/xiaoxiae/.cache/kdenlive/proxy/7ac657f1c3040bdc19439c3c7aba628c.mkv</property>
  <property name="kdenlive:originalurl">video/Farmer/29.mp4</property>
  <property name="kdenlive:original.mlt_type">chain</property>
  <property name="kdenlive:original.in">0</property>
  <property name="kdenlive:original.out">00:00:02.983</property>
  <property name="kdenlive:original.length">180</property>
  <property name="kdenlive:original.eof">pause</property>
  <property name="kdenlive:original.resource">video/Farmer/29.mp4</property>
  <property name="kdenlive:original.mlt_service">avformat-novalidate</property>
  <property name="kdenlive:original.meta.media.nb_streams">1</property>
  <property name="kdenlive:original.meta.media.0.stream.type">video</property>
  <property name="kdenlive:original.meta.media.0.stream.frame_rate">60</property>
  <property name="kdenlive:original.meta.media.0.stream.sample_aspect_ratio">0</property>
  <property name="kdenlive:original.meta.media.0.codec.width">1920</property>
  <property name="kdenlive:original.meta.media.0.codec.height">1080</property>
  <property name="kdenlive:original.meta.media.0.codec.rotate">0</property>
  <property name="kdenlive:original.meta.media.0.codec.pix_fmt">yuv420p</property>
  <property name="kdenlive:original.meta.media.0.codec.sample_aspect_ratio">0</property>
  <property name="kdenlive:original.meta.media.0.codec.colorspace">709</property>
  <property name="kdenlive:original.meta.media.0.codec.name">h264</property>
  <property name="kdenlive:original.meta.media.0.codec.long_name">H.264 / AVC / MPEG-4 AVC / MPEG-4 part 10</property>
  <property name="kdenlive:original.meta.media.0.codec.bit_rate">444432</property>
  <property name="kdenlive:original.meta.attr.0.stream.handler_name.markup">VideoHandler</property>
  <property name="kdenlive:original.meta.attr.0.stream.vendor_id.markup">[0][0][0][0]</property>
  <property name="kdenlive:original.meta.attr.0.stream.encoder.markup">Lavc60.3.100 libx264</property>
  <property name="kdenlive:original.meta.attr.major_brand.markup">isom</property>
  <property name="kdenlive:original.meta.attr.minor_version.markup">512</property>
  <property name="kdenlive:original.meta.attr.compatible_brands.markup">isomiso2avc1mp41</property>
  <property name="kdenlive:original.meta.attr.encoder.markup">Lavf60.3.100</property>
  <property name="kdenlive:original.meta.attr.comment.markup">Rendered with Manim Community v0.17.3</property>
  <property name="kdenlive:original.seekable">1</property>
  <property name="kdenlive:original.width">1920</property>
  <property name="kdenlive:original.height">1080</property>
  <property name="kdenlive:original.meta.media.sample_aspect_num">1</property>
  <property name="kdenlive:original.meta.media.sample_aspect_den">1</property>
  <property name="kdenlive:original.format">3</property>
  <property name="kdenlive:original.audio_index">-1</property>
  <property name="kdenlive:original.video_index">0</property>
  <property name="kdenlive:original.meta.media.frame_rate_num">60</property>
  <property name="kdenlive:original.meta.media.frame_rate_den">1</property>
  <property name="kdenlive:original.meta.media.colorspace">709</property>
  <property name="kdenlive:original.meta.media.color_trc">2</property>
  <property name="kdenlive:original.meta.media.has_b_frames">2</property>
  <property name="kdenlive:original.meta.media.width">1920</property>
  <property name="kdenlive:original.meta.media.height">1080</property>
  <property name="kdenlive:original.meta.media.color_range">mpeg</property>
  <property name="kdenlive:original.meta.media.top_field_first">0</property>
  <property name="kdenlive:original.meta.media.progressive">1</property>
  <property name="kdenlive:original.kdenlive:clip_type">2</property>
  <property name="kdenlive:original.kdenlive:folderid">16</property>
  <property name="kdenlive:original.kdenlive:id">100</property>
  <property name="kdenlive:original.mute_on_pause">0</property>
  <property name="kdenlive:original.kdenlive:file_size">169686</property>
  <property name="kdenlive:original.kdenlive:file_hash">7ac657f1c3040bdc19439c3c7aba628c</property>
  <property name="kdenlive:original.backup">1</property>
  <property name="meta.media.nb_streams">1</property>
  <property name="meta.media.0.stream.type">video</property>
  <property name="meta.media.0.stream.frame_rate">60</property>
  <property name="meta.media.0.stream.sample_aspect_ratio">0</property>
  <property name="meta.media.0.codec.width">640</property>
  <property name="meta.media.0.codec.height">360</property>
  <property name="meta.media.0.codec.rotate">0</property>
  <property name="meta.media.0.codec.pix_fmt">yuvj420p</property>
  <property name="meta.media.0.codec.sample_aspect_ratio">0</property>
  <property name="meta.media.0.codec.colorspace">601</property>
  <property name="meta.media.0.codec.name">mjpeg</property>
  <property name="meta.media.0.codec.long_name">MJPEG (Motion JPEG)</property>
  <property name="meta.media.0.codec.bit_rate">0</property>
  <property name="meta.attr.0.stream.HANDLER_NAME.markup">VideoHandler</property>
  <property name="meta.attr.0.stream.VENDOR_ID.markup">[0][0][0][0]</property>
  <property name="meta.attr.0.stream.ENCODER.markup">Lavc60.3.100 mjpeg</property>
  <property name="meta.attr.0.stream.DURATION.markup">00:00:03.000000000</property>
  <property name="meta.attr.COMMENT.markup">Rendered with Manim Community v0.17.3</property>
  <property name="meta.attr.MAJOR_BRAND.markup">isom</property>
  <property name="meta.attr.MINOR_VERSION.markup">512</property>
  <property name="meta.attr.COMPATIBLE_BRANDS.markup">isomiso2avc1mp41</property>
  <property name="meta.attr.ENCODER.markup">Lavf60.3.100</property>
  <property name="meta.media.sample_aspect_num">1</property>
  <property name="meta.media.sample_aspect_den">1</property>
  <property name="meta.media.frame_rate_num">60</property>
  <property name="meta.media.frame_rate_den">1</property>
  <property name="meta.media.colorspace">601</property>
  <property name="meta.media.color_trc">2</property>
  <property name="meta.media.has_b_frames">0</property>
  <property name="meta.media.width">640</property>
  <property name="meta.media.height">360</property>
  <property name="meta.media.color_range">full</property>
  <property name="xml">was here</property>
  <property name="meta.media.top_field_first">0</property>
  <property name="meta.media.progressive">1</property>
  <property name="set.test_audio">1</property>
  <property name="set.test_image">0</property>
 </chain>
 <chain id="chain42" out="00:00:00.983">
  <property name="length">60</property>
  <property name="eof">pause</property>
  <property name="resource">/home/xiaoxiae/.cache/kdenlive/proxy/dee977852b5053bc7fe2ce5180cc2aaa.mkv</property>
  <property name="mlt_service">avformat-novalidate</property>
  <property name="seekable">1</property>
  <property name="format">3</property>
  <property name="audio_index">-1</property>
  <property name="video_index">0</property>
  <property name="kdenlive:clipname">30.mp4</property>
  <property name="kdenlive:clip_type">2</property>
  <property name="kdenlive:folderid">16</property>
  <property name="kdenlive:id">102</property>
  <property name="mute_on_pause">0</property>
  <property name="kdenlive:file_size">127751</property>
  <property name="kdenlive:file_hash">dee977852b5053bc7fe2ce5180cc2aaa</property>
  <property name="kdenlive:proxy">/home/xiaoxiae/.cache/kdenlive/proxy/dee977852b5053bc7fe2ce5180cc2aaa.mkv</property>
  <property name="kdenlive:originalurl">video/Farmer/30.mp4</property>
  <property name="kdenlive:original.mlt_type">chain</property>
  <property name="kdenlive:original.in">0</property>
  <property name="kdenlive:original.out">00:00:00.983</property>
  <property name="kdenlive:original.length">60</property>
  <property name="kdenlive:original.eof">pause</property>
  <property name="kdenlive:original.resource">video/Farmer/30.mp4</property>
  <property name="kdenlive:original.mlt_service">avformat-novalidate</property>
  <property name="kdenlive:original.meta.media.nb_streams">1</property>
  <property name="kdenlive:original.meta.media.0.stream.type">video</property>
  <property name="kdenlive:original.meta.media.0.stream.frame_rate">60</property>
  <property name="kdenlive:original.meta.media.0.stream.sample_aspect_ratio">0</property>
  <property name="kdenlive:original.meta.media.0.codec.width">1920</property>
  <property name="kdenlive:original.meta.media.0.codec.height">1080</property>
  <property name="kdenlive:original.meta.media.0.codec.rotate">0</property>
  <property name="kdenlive:original.meta.media.0.codec.pix_fmt">yuv420p</property>
  <property name="kdenlive:original.meta.media.0.codec.sample_aspect_ratio">0</property>
  <property name="kdenlive:original.meta.media.0.codec.colorspace">709</property>
  <property name="kdenlive:original.meta.media.0.codec.name">h264</property>
  <property name="kdenlive:original.meta.media.0.codec.long_name">H.264 / AVC / MPEG-4 AVC / MPEG-4 part 10</property>
  <property name="kdenlive:original.meta.media.0.codec.bit_rate">1009528</property>
  <property name="kdenlive:original.meta.attr.0.stream.handler_name.markup">VideoHandler</property>
  <property name="kdenlive:original.meta.attr.0.stream.vendor_id.markup">[0][0][0][0]</property>
  <property name="kdenlive:original.meta.attr.0.stream.encoder.markup">Lavc60.3.100 libx264</property>
  <property name="kdenlive:original.meta.attr.major_brand.markup">isom</property>
  <property name="kdenlive:original.meta.attr.minor_version.markup">512</property>
  <property name="kdenlive:original.meta.attr.compatible_brands.markup">isomiso2avc1mp41</property>
  <property name="kdenlive:original.meta.attr.encoder.markup">Lavf60.3.100</property>
  <property name="kdenlive:original.meta.attr.comment.markup">Rendered with Manim Community v0.17.3</property>
  <property name="kdenlive:original.seekable">1</property>
  <property name="kdenlive:original.width">1920</property>
  <property name="kdenlive:original.height">1080</property>
  <property name="kdenlive:original.meta.media.sample_aspect_num">1</property>
  <property name="kdenlive:original.meta.media.sample_aspect_den">1</property>
  <property name="kdenlive:original.format">3</property>
  <property name="kdenlive:original.audio_index">-1</property>
  <property name="kdenlive:original.video_index">0</property>
  <property name="kdenlive:original.meta.media.frame_rate_num">60</property>
  <property name="kdenlive:original.meta.media.frame_rate_den">1</property>
  <property name="kdenlive:original.meta.media.colorspace">709</property>
  <property name="kdenlive:original.meta.media.color_trc">2</property>
  <property name="kdenlive:original.meta.media.has_b_frames">2</property>
  <property name="kdenlive:original.meta.media.width">1920</property>
  <property name="kdenlive:original.meta.media.height">1080</property>
  <property name="kdenlive:original.meta.media.color_range">mpeg</property>
  <property name="kdenlive:original.meta.media.top_field_first">0</property>
  <property name="kdenlive:original.meta.media.progressive">1</property>
  <property name="kdenlive:original.kdenlive:clip_type">2</property>
  <property name="kdenlive:original.kdenlive:folderid">16</property>
  <property name="kdenlive:original.kdenlive:id">102</property>
  <property name="kdenlive:original.mute_on_pause">0</property>
  <property name="kdenlive:original.kdenlive:file_size">127751</property>
  <property name="kdenlive:original.kdenlive:file_hash">dee977852b5053bc7fe2ce5180cc2aaa</property>
  <property name="kdenlive:original.backup">1</property>
  <property name="meta.media.nb_streams">1</property>
  <property name="meta.media.0.stream.type">video</property>
  <property name="meta.media.0.stream.frame_rate">60</property>
  <property name="meta.media.0.stream.sample_aspect_ratio">0</property>
  <property name="meta.media.0.codec.width">640</property>
  <property name="meta.media.0.codec.height">360</property>
  <property name="meta.media.0.codec.rotate">0</property>
  <property name="meta.media.0.codec.pix_fmt">yuvj420p</property>
  <property name="meta.media.0.codec.sample_aspect_ratio">0</property>
  <property name="meta.media.0.codec.colorspace">601</property>
  <property name="meta.media.0.codec.name">mjpeg</property>
  <property name="meta.media.0.codec.long_name">MJPEG (Motion JPEG)</property>
  <property name="meta.media.0.codec.bit_rate">0</property>
  <property name="meta.attr.0.stream.HANDLER_NAME.markup">VideoHandler</property>
  <property name="meta.attr.0.stream.VENDOR_ID.markup">[0][0][0][0]</property>
  <property name="meta.attr.0.stream.ENCODER.markup">Lavc60.3.100 mjpeg</property>
  <property name="meta.attr.0.stream.DURATION.markup">00:00:01.000000000</property>
  <property name="meta.attr.COMMENT.markup">Rendered with Manim Community v0.17.3</property>
  <property name="meta.attr.MAJOR_BRAND.markup">isom</property>
  <property name="meta.attr.MINOR_VERSION.markup">512</property>
  <property name="meta.attr.COMPATIBLE_BRANDS.markup">isomiso2avc1mp41</property>
  <property name="meta.attr.ENCODER.markup">Lavf60.3.100</property>
  <property name="meta.media.sample_aspect_num">1</property>
  <property name="meta.media.sample_aspect_den">1</property>
  <property name="meta.media.frame_rate_num">60</property>
  <property name="meta.media.frame_rate_den">1</property>
  <property name="meta.media.colorspace">601</property>
  <property name="meta.media.color_trc">2</property>
  <property name="meta.media.has_b_frames">0</property>
  <property name="meta.media.width">640</property>
  <property name="meta.media.height">360</property>
  <property name="meta.media.color_range">full</property>
  <property name="xml">was here</property>
  <property name="meta.media.top_field_first">0</property>
  <property name="meta.media.progressive">1</property>
  <property name="set.test_audio">1</property>
  <property name="set.test_image">0</property>
 </chain>
 <chain id="chain43" out="00:00:00.983">
  <property name="length">60</property>
  <property name="eof">pause</property>
  <property name="resource">/home/xiaoxiae/.cache/kdenlive/proxy/50ac195a886d8e4c79fd2546ec7760c1.mkv</property>
  <property name="mlt_service">avformat-novalidate</property>
  <property name="seekable">1</property>
  <property name="format">3</property>
  <property name="audio_index">-1</property>
  <property name="video_index">0</property>
  <property name="kdenlive:clipname">31.mp4</property>
  <property name="kdenlive:clip_type">2</property>
  <property name="kdenlive:folderid">16</property>
  <property name="kdenlive:id">103</property>
  <property name="mute_on_pause">0</property>
  <property name="kdenlive:file_size">73296</property>
  <property name="kdenlive:file_hash">50ac195a886d8e4c79fd2546ec7760c1</property>
  <property name="kdenlive:proxy">/home/xiaoxiae/.cache/kdenlive/proxy/50ac195a886d8e4c79fd2546ec7760c1.mkv</property>
  <property name="kdenlive:originalurl">video/Farmer/31.mp4</property>
  <property name="kdenlive:original.mlt_type">chain</property>
  <property name="kdenlive:original.in">0</property>
  <property name="kdenlive:original.out">00:00:00.983</property>
  <property name="kdenlive:original.length">60</property>
  <property name="kdenlive:original.eof">pause</property>
  <property name="kdenlive:original.resource">video/Farmer/31.mp4</property>
  <property name="kdenlive:original.mlt_service">avformat-novalidate</property>
  <property name="kdenlive:original.meta.media.nb_streams">1</property>
  <property name="kdenlive:original.meta.media.0.stream.type">video</property>
  <property name="kdenlive:original.meta.media.0.stream.frame_rate">60</property>
  <property name="kdenlive:original.meta.media.0.stream.sample_aspect_ratio">0</property>
  <property name="kdenlive:original.meta.media.0.codec.width">1920</property>
  <property name="kdenlive:original.meta.media.0.codec.height">1080</property>
  <property name="kdenlive:original.meta.media.0.codec.rotate">0</property>
  <property name="kdenlive:original.meta.media.0.codec.pix_fmt">yuv420p</property>
  <property name="kdenlive:original.meta.media.0.codec.sample_aspect_ratio">0</property>
  <property name="kdenlive:original.meta.media.0.codec.colorspace">709</property>
  <property name="kdenlive:original.meta.media.0.codec.name">h264</property>
  <property name="kdenlive:original.meta.media.0.codec.long_name">H.264 / AVC / MPEG-4 AVC / MPEG-4 part 10</property>
  <property name="kdenlive:original.meta.media.0.codec.bit_rate">573312</property>
  <property name="kdenlive:original.meta.attr.0.stream.handler_name.markup">VideoHandler</property>
  <property name="kdenlive:original.meta.attr.0.stream.vendor_id.markup">[0][0][0][0]</property>
  <property name="kdenlive:original.meta.attr.0.stream.encoder.markup">Lavc60.3.100 libx264</property>
  <property name="kdenlive:original.meta.attr.major_brand.markup">isom</property>
  <property name="kdenlive:original.meta.attr.minor_version.markup">512</property>
  <property name="kdenlive:original.meta.attr.compatible_brands.markup">isomiso2avc1mp41</property>
  <property name="kdenlive:original.meta.attr.encoder.markup">Lavf60.3.100</property>
  <property name="kdenlive:original.meta.attr.comment.markup">Rendered with Manim Community v0.17.3</property>
  <property name="kdenlive:original.seekable">1</property>
  <property name="kdenlive:original.width">1920</property>
  <property name="kdenlive:original.height">1080</property>
  <property name="kdenlive:original.meta.media.sample_aspect_num">1</property>
  <property name="kdenlive:original.meta.media.sample_aspect_den">1</property>
  <property name="kdenlive:original.format">3</property>
  <property name="kdenlive:original.audio_index">-1</property>
  <property name="kdenlive:original.video_index">0</property>
  <property name="kdenlive:original.meta.media.frame_rate_num">60</property>
  <property name="kdenlive:original.meta.media.frame_rate_den">1</property>
  <property name="kdenlive:original.meta.media.colorspace">709</property>
  <property name="kdenlive:original.meta.media.color_trc">2</property>
  <property name="kdenlive:original.meta.media.has_b_frames">2</property>
  <property name="kdenlive:original.meta.media.width">1920</property>
  <property name="kdenlive:original.meta.media.height">1080</property>
  <property name="kdenlive:original.meta.media.color_range">mpeg</property>
  <property name="kdenlive:original.meta.media.top_field_first">0</property>
  <property name="kdenlive:original.meta.media.progressive">1</property>
  <property name="kdenlive:original.kdenlive:clip_type">2</property>
  <property name="kdenlive:original.kdenlive:folderid">16</property>
  <property name="kdenlive:original.kdenlive:id">103</property>
  <property name="kdenlive:original.mute_on_pause">0</property>
  <property name="kdenlive:original.kdenlive:file_size">73296</property>
  <property name="kdenlive:original.kdenlive:file_hash">50ac195a886d8e4c79fd2546ec7760c1</property>
  <property name="kdenlive:original.backup">1</property>
  <property name="meta.media.nb_streams">1</property>
  <property name="meta.media.0.stream.type">video</property>
  <property name="meta.media.0.stream.frame_rate">60</property>
  <property name="meta.media.0.stream.sample_aspect_ratio">0</property>
  <property name="meta.media.0.codec.width">640</property>
  <property name="meta.media.0.codec.height">360</property>
  <property name="meta.media.0.codec.rotate">0</property>
  <property name="meta.media.0.codec.pix_fmt">yuvj420p</property>
  <property name="meta.media.0.codec.sample_aspect_ratio">0</property>
  <property name="meta.media.0.codec.colorspace">601</property>
  <property name="meta.media.0.codec.name">mjpeg</property>
  <property name="meta.media.0.codec.long_name">MJPEG (Motion JPEG)</property>
  <property name="meta.media.0.codec.bit_rate">0</property>
  <property name="meta.attr.0.stream.HANDLER_NAME.markup">VideoHandler</property>
  <property name="meta.attr.0.stream.VENDOR_ID.markup">[0][0][0][0]</property>
  <property name="meta.attr.0.stream.ENCODER.markup">Lavc60.3.100 mjpeg</property>
  <property name="meta.attr.0.stream.DURATION.markup">00:00:01.000000000</property>
  <property name="meta.attr.COMMENT.markup">Rendered with Manim Community v0.17.3</property>
  <property name="meta.attr.MAJOR_BRAND.markup">isom</property>
  <property name="meta.attr.MINOR_VERSION.markup">512</property>
  <property name="meta.attr.COMPATIBLE_BRANDS.markup">isomiso2avc1mp41</property>
  <property name="meta.attr.ENCODER.markup">Lavf60.3.100</property>
  <property name="meta.media.sample_aspect_num">1</property>
  <property name="meta.media.sample_aspect_den">1</property>
  <property name="meta.media.frame_rate_num">60</property>
  <property name="meta.media.frame_rate_den">1</property>
  <property name="meta.media.colorspace">601</property>
  <property name="meta.media.color_trc">2</property>
  <property name="meta.media.has_b_frames">0</property>
  <property name="meta.media.width">640</property>
  <property name="meta.media.height">360</property>
  <property name="meta.media.color_range">full</property>
  <property name="xml">was here</property>
  <property name="meta.media.top_field_first">0</property>
  <property name="meta.media.progressive">1</property>
  <property name="set.test_audio">1</property>
  <property name="set.test_image">0</property>
 </chain>
 <chain id="chain44" out="00:00:00.983">
  <property name="length">60</property>
  <property name="eof">pause</property>
  <property name="resource">/home/xiaoxiae/.cache/kdenlive/proxy/03444f6b23a55b8c089bfc164767c642.mkv</property>
  <property name="mlt_service">avformat-novalidate</property>
  <property name="seekable">1</property>
  <property name="format">3</property>
  <property name="audio_index">-1</property>
  <property name="video_index">0</property>
  <property name="kdenlive:clipname">32.mp4</property>
  <property name="kdenlive:clip_type">2</property>
  <property name="kdenlive:folderid">16</property>
  <property name="kdenlive:id">104</property>
  <property name="mute_on_pause">0</property>
  <property name="kdenlive:file_size">73695</property>
  <property name="kdenlive:file_hash">03444f6b23a55b8c089bfc164767c642</property>
  <property name="kdenlive:proxy">/home/xiaoxiae/.cache/kdenlive/proxy/03444f6b23a55b8c089bfc164767c642.mkv</property>
  <property name="kdenlive:originalurl">video/Farmer/32.mp4</property>
  <property name="kdenlive:original.mlt_type">chain</property>
  <property name="kdenlive:original.in">0</property>
  <property name="kdenlive:original.out">00:00:00.983</property>
  <property name="kdenlive:original.length">60</property>
  <property name="kdenlive:original.eof">pause</property>
  <property name="kdenlive:original.resource">video/Farmer/32.mp4</property>
  <property name="kdenlive:original.mlt_service">avformat-novalidate</property>
  <property name="kdenlive:original.meta.media.nb_streams">1</property>
  <property name="kdenlive:original.meta.media.0.stream.type">video</property>
  <property name="kdenlive:original.meta.media.0.stream.frame_rate">60</property>
  <property name="kdenlive:original.meta.media.0.stream.sample_aspect_ratio">0</property>
  <property name="kdenlive:original.meta.media.0.codec.width">1920</property>
  <property name="kdenlive:original.meta.media.0.codec.height">1080</property>
  <property name="kdenlive:original.meta.media.0.codec.rotate">0</property>
  <property name="kdenlive:original.meta.media.0.codec.pix_fmt">yuv420p</property>
  <property name="kdenlive:original.meta.media.0.codec.sample_aspect_ratio">0</property>
  <property name="kdenlive:original.meta.media.0.codec.colorspace">709</property>
  <property name="kdenlive:original.meta.media.0.codec.name">h264</property>
  <property name="kdenlive:original.meta.media.0.codec.long_name">H.264 / AVC / MPEG-4 AVC / MPEG-4 part 10</property>
  <property name="kdenlive:original.meta.media.0.codec.bit_rate">576504</property>
  <property name="kdenlive:original.meta.attr.0.stream.handler_name.markup">VideoHandler</property>
  <property name="kdenlive:original.meta.attr.0.stream.vendor_id.markup">[0][0][0][0]</property>
  <property name="kdenlive:original.meta.attr.0.stream.encoder.markup">Lavc60.3.100 libx264</property>
  <property name="kdenlive:original.meta.attr.major_brand.markup">isom</property>
  <property name="kdenlive:original.meta.attr.minor_version.markup">512</property>
  <property name="kdenlive:original.meta.attr.compatible_brands.markup">isomiso2avc1mp41</property>
  <property name="kdenlive:original.meta.attr.encoder.markup">Lavf60.3.100</property>
  <property name="kdenlive:original.meta.attr.comment.markup">Rendered with Manim Community v0.17.3</property>
  <property name="kdenlive:original.seekable">1</property>
  <property name="kdenlive:original.width">1920</property>
  <property name="kdenlive:original.height">1080</property>
  <property name="kdenlive:original.meta.media.sample_aspect_num">1</property>
  <property name="kdenlive:original.meta.media.sample_aspect_den">1</property>
  <property name="kdenlive:original.format">3</property>
  <property name="kdenlive:original.audio_index">-1</property>
  <property name="kdenlive:original.video_index">0</property>
  <property name="kdenlive:original.meta.media.frame_rate_num">60</property>
  <property name="kdenlive:original.meta.media.frame_rate_den">1</property>
  <property name="kdenlive:original.meta.media.colorspace">709</property>
  <property name="kdenlive:original.meta.media.color_trc">2</property>
  <property name="kdenlive:original.meta.media.has_b_frames">2</property>
  <property name="kdenlive:original.meta.media.width">1920</property>
  <property name="kdenlive:original.meta.media.height">1080</property>
  <property name="kdenlive:original.meta.media.color_range">mpeg</property>
  <property name="kdenlive:original.meta.media.top_field_first">0</property>
  <property name="kdenlive:original.meta.media.progressive">1</property>
  <property name="kdenlive:original.kdenlive:clip_type">2</property>
  <property name="kdenlive:original.kdenlive:folderid">16</property>
  <property name="kdenlive:original.kdenlive:id">104</property>
  <property name="kdenlive:original.mute_on_pause">0</property>
  <property name="kdenlive:original.kdenlive:file_size">73695</property>
  <property name="kdenlive:original.kdenlive:file_hash">03444f6b23a55b8c089bfc164767c642</property>
  <property name="kdenlive:original.backup">1</property>
  <property name="meta.media.nb_streams">1</property>
  <property name="meta.media.0.stream.type">video</property>
  <property name="meta.media.0.stream.frame_rate">60</property>
  <property name="meta.media.0.stream.sample_aspect_ratio">0</property>
  <property name="meta.media.0.codec.width">640</property>
  <property name="meta.media.0.codec.height">360</property>
  <property name="meta.media.0.codec.rotate">0</property>
  <property name="meta.media.0.codec.pix_fmt">yuvj420p</property>
  <property name="meta.media.0.codec.sample_aspect_ratio">0</property>
  <property name="meta.media.0.codec.colorspace">601</property>
  <property name="meta.media.0.codec.name">mjpeg</property>
  <property name="meta.media.0.codec.long_name">MJPEG (Motion JPEG)</property>
  <property name="meta.media.0.codec.bit_rate">0</property>
  <property name="meta.attr.0.stream.HANDLER_NAME.markup">VideoHandler</property>
  <property name="meta.attr.0.stream.VENDOR_ID.markup">[0][0][0][0]</property>
  <property name="meta.attr.0.stream.ENCODER.markup">Lavc60.3.100 mjpeg</property>
  <property name="meta.attr.0.stream.DURATION.markup">00:00:01.000000000</property>
  <property name="meta.attr.COMMENT.markup">Rendered with Manim Community v0.17.3</property>
  <property name="meta.attr.MAJOR_BRAND.markup">isom</property>
  <property name="meta.attr.MINOR_VERSION.markup">512</property>
  <property name="meta.attr.COMPATIBLE_BRANDS.markup">isomiso2avc1mp41</property>
  <property name="meta.attr.ENCODER.markup">Lavf60.3.100</property>
  <property name="meta.media.sample_aspect_num">1</property>
  <property name="meta.media.sample_aspect_den">1</property>
  <property name="meta.media.frame_rate_num">60</property>
  <property name="meta.media.frame_rate_den">1</property>
  <property name="meta.media.colorspace">601</property>
  <property name="meta.media.color_trc">2</property>
  <property name="meta.media.has_b_frames">0</property>
  <property name="meta.media.width">640</property>
  <property name="meta.media.height">360</property>
  <property name="meta.media.color_range">full</property>
  <property name="xml">was here</property>
  <property name="meta.media.top_field_first">0</property>
  <property name="meta.media.progressive">1</property>
  <property name="set.test_audio">1</property>
  <property name="set.test_image">0</property>
 </chain>
 <chain id="chain45" out="00:00:00.983">
  <property name="length">60</property>
  <property name="eof">pause</property>
  <property name="resource">/home/xiaoxiae/.cache/kdenlive/proxy/5ef0b6d9906d0d62bf9fc2a390640a56.mkv</property>
  <property name="mlt_service">avformat-novalidate</property>
  <property name="seekable">1</property>
  <property name="format">3</property>
  <property name="audio_index">-1</property>
  <property name="video_index">0</property>
  <property name="kdenlive:clipname">33.mp4</property>
  <property name="kdenlive:clip_type">2</property>
  <property name="kdenlive:folderid">16</property>
  <property name="kdenlive:id">105</property>
  <property name="mute_on_pause">0</property>
  <property name="kdenlive:file_size">71602</property>
  <property name="kdenlive:file_hash">5ef0b6d9906d0d62bf9fc2a390640a56</property>
  <property name="kdenlive:proxy">/home/xiaoxiae/.cache/kdenlive/proxy/5ef0b6d9906d0d62bf9fc2a390640a56.mkv</property>
  <property name="kdenlive:originalurl">video/Farmer/33.mp4</property>
  <property name="kdenlive:original.mlt_type">chain</property>
  <property name="kdenlive:original.in">0</property>
  <property name="kdenlive:original.out">00:00:00.983</property>
  <property name="kdenlive:original.length">60</property>
  <property name="kdenlive:original.eof">pause</property>
  <property name="kdenlive:original.resource">video/Farmer/33.mp4</property>
  <property name="kdenlive:original.mlt_service">avformat-novalidate</property>
  <property name="kdenlive:original.meta.media.nb_streams">1</property>
  <property name="kdenlive:original.meta.media.0.stream.type">video</property>
  <property name="kdenlive:original.meta.media.0.stream.frame_rate">60</property>
  <property name="kdenlive:original.meta.media.0.stream.sample_aspect_ratio">0</property>
  <property name="kdenlive:original.meta.media.0.codec.width">1920</property>
  <property name="kdenlive:original.meta.media.0.codec.height">1080</property>
  <property name="kdenlive:original.meta.media.0.codec.rotate">0</property>
  <property name="kdenlive:original.meta.media.0.codec.pix_fmt">yuv420p</property>
  <property name="kdenlive:original.meta.media.0.codec.sample_aspect_ratio">0</property>
  <property name="kdenlive:original.meta.media.0.codec.colorspace">709</property>
  <property name="kdenlive:original.meta.media.0.codec.name">h264</property>
  <property name="kdenlive:original.meta.media.0.codec.long_name">H.264 / AVC / MPEG-4 AVC / MPEG-4 part 10</property>
  <property name="kdenlive:original.meta.media.0.codec.bit_rate">559760</property>
  <property name="kdenlive:original.meta.attr.0.stream.handler_name.markup">VideoHandler</property>
  <property name="kdenlive:original.meta.attr.0.stream.vendor_id.markup">[0][0][0][0]</property>
  <property name="kdenlive:original.meta.attr.0.stream.encoder.markup">Lavc60.3.100 libx264</property>
  <property name="kdenlive:original.meta.attr.major_brand.markup">isom</property>
  <property name="kdenlive:original.meta.attr.minor_version.markup">512</property>
  <property name="kdenlive:original.meta.attr.compatible_brands.markup">isomiso2avc1mp41</property>
  <property name="kdenlive:original.meta.attr.encoder.markup">Lavf60.3.100</property>
  <property name="kdenlive:original.meta.attr.comment.markup">Rendered with Manim Community v0.17.3</property>
  <property name="kdenlive:original.seekable">1</property>
  <property name="kdenlive:original.width">1920</property>
  <property name="kdenlive:original.height">1080</property>
  <property name="kdenlive:original.meta.media.sample_aspect_num">1</property>
  <property name="kdenlive:original.meta.media.sample_aspect_den">1</property>
  <property name="kdenlive:original.format">3</property>
  <property name="kdenlive:original.audio_index">-1</property>
  <property name="kdenlive:original.video_index">0</property>
  <property name="kdenlive:original.meta.media.frame_rate_num">60</property>
  <property name="kdenlive:original.meta.media.frame_rate_den">1</property>
  <property name="kdenlive:original.meta.media.colorspace">709</property>
  <property name="kdenlive:original.meta.media.color_trc">2</property>
  <property name="kdenlive:original.meta.media.has_b_frames">2</property>
  <property name="kdenlive:original.meta.media.width">1920</property>
  <property name="kdenlive:original.meta.media.height">1080</property>
  <property name="kdenlive:original.meta.media.color_range">mpeg</property>
  <property name="kdenlive:original.meta.media.top_field_first">0</property>
  <property name="kdenlive:original.meta.media.progressive">1</property>
  <property name="kdenlive:original.kdenlive:clip_type">2</property>
  <property name="kdenlive:original.kdenlive:folderid">16</property>
  <property name="kdenlive:original.kdenlive:id">105</property>
  <property name="kdenlive:original.mute_on_pause">0</property>
  <property name="kdenlive:original.kdenlive:file_size">71602</property>
  <property name="kdenlive:original.kdenlive:file_hash">5ef0b6d9906d0d62bf9fc2a390640a56</property>
  <property name="kdenlive:original.backup">1</property>
  <property name="meta.media.nb_streams">1</property>
  <property name="meta.media.0.stream.type">video</property>
  <property name="meta.media.0.stream.frame_rate">60</property>
  <property name="meta.media.0.stream.sample_aspect_ratio">0</property>
  <property name="meta.media.0.codec.width">640</property>
  <property name="meta.media.0.codec.height">360</property>
  <property name="meta.media.0.codec.rotate">0</property>
  <property name="meta.media.0.codec.pix_fmt">yuvj420p</property>
  <property name="meta.media.0.codec.sample_aspect_ratio">0</property>
  <property name="meta.media.0.codec.colorspace">601</property>
  <property name="meta.media.0.codec.name">mjpeg</property>
  <property name="meta.media.0.codec.long_name">MJPEG (Motion JPEG)</property>
  <property name="meta.media.0.codec.bit_rate">0</property>
  <property name="meta.attr.0.stream.HANDLER_NAME.markup">VideoHandler</property>
  <property name="meta.attr.0.stream.VENDOR_ID.markup">[0][0][0][0]</property>
  <property name="meta.attr.0.stream.ENCODER.markup">Lavc60.3.100 mjpeg</property>
  <property name="meta.attr.0.stream.DURATION.markup">00:00:01.000000000</property>
  <property name="meta.attr.COMMENT.markup">Rendered with Manim Community v0.17.3</property>
  <property name="meta.attr.MAJOR_BRAND.markup">isom</property>
  <property name="meta.attr.MINOR_VERSION.markup">512</property>
  <property name="meta.attr.COMPATIBLE_BRANDS.markup">isomiso2avc1mp41</property>
  <property name="meta.attr.ENCODER.markup">Lavf60.3.100</property>
  <property name="meta.media.sample_aspect_num">1</property>
  <property name="meta.media.sample_aspect_den">1</property>
  <property name="meta.media.frame_rate_num">60</property>
  <property name="meta.media.frame_rate_den">1</property>
  <property name="meta.media.colorspace">601</property>
  <property name="meta.media.color_trc">2</property>
  <property name="meta.media.has_b_frames">0</property>
  <property name="meta.media.width">640</property>
  <property name="meta.media.height">360</property>
  <property name="meta.media.color_range">full</property>
  <property name="xml">was here</property>
  <property name="meta.media.top_field_first">0</property>
  <property name="meta.media.progressive">1</property>
  <property name="set.test_audio">1</property>
  <property name="set.test_image">0</property>
 </chain>
 <chain id="chain46" out="00:00:00.983">
  <property name="length">60</property>
  <property name="eof">pause</property>
  <property name="resource">/home/xiaoxiae/.cache/kdenlive/proxy/2f7c4ea0505bb04c9278d2a54d87b38b.mkv</property>
  <property name="mlt_service">avformat-novalidate</property>
  <property name="seekable">1</property>
  <property name="format">3</property>
  <property name="audio_index">-1</property>
  <property name="video_index">0</property>
  <property name="kdenlive:clipname">34.mp4</property>
  <property name="kdenlive:clip_type">2</property>
  <property name="kdenlive:folderid">16</property>
  <property name="kdenlive:id">106</property>
  <property name="mute_on_pause">0</property>
  <property name="kdenlive:file_size">93460</property>
  <property name="kdenlive:file_hash">2f7c4ea0505bb04c9278d2a54d87b38b</property>
  <property name="kdenlive:proxy">/home/xiaoxiae/.cache/kdenlive/proxy/2f7c4ea0505bb04c9278d2a54d87b38b.mkv</property>
  <property name="kdenlive:originalurl">video/Farmer/34.mp4</property>
  <property name="kdenlive:original.mlt_type">chain</property>
  <property name="kdenlive:original.in">0</property>
  <property name="kdenlive:original.out">00:00:00.983</property>
  <property name="kdenlive:original.length">60</property>
  <property name="kdenlive:original.eof">pause</property>
  <property name="kdenlive:original.resource">video/Farmer/34.mp4</property>
  <property name="kdenlive:original.mlt_service">avformat-novalidate</property>
  <property name="kdenlive:original.meta.media.nb_streams">1</property>
  <property name="kdenlive:original.meta.media.0.stream.type">video</property>
  <property name="kdenlive:original.meta.media.0.stream.frame_rate">60</property>
  <property name="kdenlive:original.meta.media.0.stream.sample_aspect_ratio">0</property>
  <property name="kdenlive:original.meta.media.0.codec.width">1920</property>
  <property name="kdenlive:original.meta.media.0.codec.height">1080</property>
  <property name="kdenlive:original.meta.media.0.codec.rotate">0</property>
  <property name="kdenlive:original.meta.media.0.codec.pix_fmt">yuv420p</property>
  <property name="kdenlive:original.meta.media.0.codec.sample_aspect_ratio">0</property>
  <property name="kdenlive:original.meta.media.0.codec.colorspace">709</property>
  <property name="kdenlive:original.meta.media.0.codec.name">h264</property>
  <property name="kdenlive:original.meta.media.0.codec.long_name">H.264 / AVC / MPEG-4 AVC / MPEG-4 part 10</property>
  <property name="kdenlive:original.meta.media.0.codec.bit_rate">734560</property>
  <property name="kdenlive:original.meta.attr.0.stream.handler_name.markup">VideoHandler</property>
  <property name="kdenlive:original.meta.attr.0.stream.vendor_id.markup">[0][0][0][0]</property>
  <property name="kdenlive:original.meta.attr.0.stream.encoder.markup">Lavc60.3.100 libx264</property>
  <property name="kdenlive:original.meta.attr.major_brand.markup">isom</property>
  <property name="kdenlive:original.meta.attr.minor_version.markup">512</property>
  <property name="kdenlive:original.meta.attr.compatible_brands.markup">isomiso2avc1mp41</property>
  <property name="kdenlive:original.meta.attr.encoder.markup">Lavf60.3.100</property>
  <property name="kdenlive:original.meta.attr.comment.markup">Rendered with Manim Community v0.17.3</property>
  <property name="kdenlive:original.seekable">1</property>
  <property name="kdenlive:original.width">1920</property>
  <property name="kdenlive:original.height">1080</property>
  <property name="kdenlive:original.meta.media.sample_aspect_num">1</property>
  <property name="kdenlive:original.meta.media.sample_aspect_den">1</property>
  <property name="kdenlive:original.format">3</property>
  <property name="kdenlive:original.audio_index">-1</property>
  <property name="kdenlive:original.video_index">0</property>
  <property name="kdenlive:original.meta.media.frame_rate_num">60</property>
  <property name="kdenlive:original.meta.media.frame_rate_den">1</property>
  <property name="kdenlive:original.meta.media.colorspace">709</property>
  <property name="kdenlive:original.meta.media.color_trc">2</property>
  <property name="kdenlive:original.meta.media.has_b_frames">2</property>
  <property name="kdenlive:original.meta.media.width">1920</property>
  <property name="kdenlive:original.meta.media.height">1080</property>
  <property name="kdenlive:original.meta.media.color_range">mpeg</property>
  <property name="kdenlive:original.meta.media.top_field_first">0</property>
  <property name="kdenlive:original.meta.media.progressive">1</property>
  <property name="kdenlive:original.kdenlive:clip_type">2</property>
  <property name="kdenlive:original.kdenlive:folderid">16</property>
  <property name="kdenlive:original.kdenlive:id">106</property>
  <property name="kdenlive:original.mute_on_pause">0</property>
  <property name="kdenlive:original.kdenlive:file_size">93460</property>
  <property name="kdenlive:original.kdenlive:file_hash">2f7c4ea0505bb04c9278d2a54d87b38b</property>
  <property name="kdenlive:original.backup">1</property>
  <property name="meta.media.nb_streams">1</property>
  <property name="meta.media.0.stream.type">video</property>
  <property name="meta.media.0.stream.frame_rate">60</property>
  <property name="meta.media.0.stream.sample_aspect_ratio">0</property>
  <property name="meta.media.0.codec.width">640</property>
  <property name="meta.media.0.codec.height">360</property>
  <property name="meta.media.0.codec.rotate">0</property>
  <property name="meta.media.0.codec.pix_fmt">yuvj420p</property>
  <property name="meta.media.0.codec.sample_aspect_ratio">0</property>
  <property name="meta.media.0.codec.colorspace">601</property>
  <property name="meta.media.0.codec.name">mjpeg</property>
  <property name="meta.media.0.codec.long_name">MJPEG (Motion JPEG)</property>
  <property name="meta.media.0.codec.bit_rate">0</property>
  <property name="meta.attr.0.stream.HANDLER_NAME.markup">VideoHandler</property>
  <property name="meta.attr.0.stream.VENDOR_ID.markup">[0][0][0][0]</property>
  <property name="meta.attr.0.stream.ENCODER.markup">Lavc60.3.100 mjpeg</property>
  <property name="meta.attr.0.stream.DURATION.markup">00:00:01.000000000</property>
  <property name="meta.attr.COMMENT.markup">Rendered with Manim Community v0.17.3</property>
  <property name="meta.attr.MAJOR_BRAND.markup">isom</property>
  <property name="meta.attr.MINOR_VERSION.markup">512</property>
  <property name="meta.attr.COMPATIBLE_BRANDS.markup">isomiso2avc1mp41</property>
  <property name="meta.attr.ENCODER.markup">Lavf60.3.100</property>
  <property name="meta.media.sample_aspect_num">1</property>
  <property name="meta.media.sample_aspect_den">1</property>
  <property name="meta.media.frame_rate_num">60</property>
  <property name="meta.media.frame_rate_den">1</property>
  <property name="meta.media.colorspace">601</property>
  <property name="meta.media.color_trc">2</property>
  <property name="meta.media.has_b_frames">0</property>
  <property name="meta.media.width">640</property>
  <property name="meta.media.height">360</property>
  <property name="meta.media.color_range">full</property>
  <property name="xml">was here</property>
  <property name="meta.media.top_field_first">0</property>
  <property name="meta.media.progressive">1</property>
  <property name="set.test_audio">1</property>
  <property name="set.test_image">0</property>
 </chain>
 <chain id="chain47" out="00:00:01.733">
  <property name="length">105</property>
  <property name="eof">pause</property>
  <property name="resource">/home/xiaoxiae/.cache/kdenlive/proxy/66aacc9275f0f9ae83444f64550191e2.mkv</property>
  <property name="mlt_service">avformat-novalidate</property>
  <property name="seekable">1</property>
  <property name="format">3</property>
  <property name="audio_index">-1</property>
  <property name="video_index">0</property>
  <property name="kdenlive:clipname">35.mp4</property>
  <property name="kdenlive:clip_type">2</property>
  <property name="kdenlive:folderid">16</property>
  <property name="kdenlive:id">107</property>
  <property name="mute_on_pause">0</property>
  <property name="kdenlive:file_size">84226</property>
  <property name="kdenlive:file_hash">66aacc9275f0f9ae83444f64550191e2</property>
  <property name="kdenlive:proxy">/home/xiaoxiae/.cache/kdenlive/proxy/66aacc9275f0f9ae83444f64550191e2.mkv</property>
  <property name="kdenlive:originalurl">video/Farmer/35.mp4</property>
  <property name="kdenlive:original.mlt_type">chain</property>
  <property name="kdenlive:original.in">0</property>
  <property name="kdenlive:original.out">00:00:01.733</property>
  <property name="kdenlive:original.length">105</property>
  <property name="kdenlive:original.eof">pause</property>
  <property name="kdenlive:original.resource">video/Farmer/35.mp4</property>
  <property name="kdenlive:original.mlt_service">avformat-novalidate</property>
  <property name="kdenlive:original.meta.media.nb_streams">1</property>
  <property name="kdenlive:original.meta.media.0.stream.type">video</property>
  <property name="kdenlive:original.meta.media.0.stream.frame_rate">60</property>
  <property name="kdenlive:original.meta.media.0.stream.sample_aspect_ratio">0</property>
  <property name="kdenlive:original.meta.media.0.codec.width">1920</property>
  <property name="kdenlive:original.meta.media.0.codec.height">1080</property>
  <property name="kdenlive:original.meta.media.0.codec.rotate">0</property>
  <property name="kdenlive:original.meta.media.0.codec.pix_fmt">yuv420p</property>
  <property name="kdenlive:original.meta.media.0.codec.sample_aspect_ratio">0</property>
  <property name="kdenlive:original.meta.media.0.codec.colorspace">709</property>
  <property name="kdenlive:original.meta.media.0.codec.name">h264</property>
  <property name="kdenlive:original.meta.media.0.codec.long_name">H.264 / AVC / MPEG-4 AVC / MPEG-4 part 10</property>
  <property name="kdenlive:original.meta.media.0.codec.bit_rate">375067</property>
  <property name="kdenlive:original.meta.attr.0.stream.handler_name.markup">VideoHandler</property>
  <property name="kdenlive:original.meta.attr.0.stream.vendor_id.markup">[0][0][0][0]</property>
  <property name="kdenlive:original.meta.attr.0.stream.encoder.markup">Lavc60.3.100 libx264</property>
  <property name="kdenlive:original.meta.attr.major_brand.markup">isom</property>
  <property name="kdenlive:original.meta.attr.minor_version.markup">512</property>
  <property name="kdenlive:original.meta.attr.compatible_brands.markup">isomiso2avc1mp41</property>
  <property name="kdenlive:original.meta.attr.encoder.markup">Lavf60.3.100</property>
  <property name="kdenlive:original.meta.attr.comment.markup">Rendered with Manim Community v0.17.3</property>
  <property name="kdenlive:original.seekable">1</property>
  <property name="kdenlive:original.width">1920</property>
  <property name="kdenlive:original.height">1080</property>
  <property name="kdenlive:original.meta.media.sample_aspect_num">1</property>
  <property name="kdenlive:original.meta.media.sample_aspect_den">1</property>
  <property name="kdenlive:original.format">3</property>
  <property name="kdenlive:original.audio_index">-1</property>
  <property name="kdenlive:original.video_index">0</property>
  <property name="kdenlive:original.meta.media.frame_rate_num">60</property>
  <property name="kdenlive:original.meta.media.frame_rate_den">1</property>
  <property name="kdenlive:original.meta.media.colorspace">709</property>
  <property name="kdenlive:original.meta.media.color_trc">2</property>
  <property name="kdenlive:original.meta.media.has_b_frames">2</property>
  <property name="kdenlive:original.meta.media.width">1920</property>
  <property name="kdenlive:original.meta.media.height">1080</property>
  <property name="kdenlive:original.meta.media.color_range">mpeg</property>
  <property name="kdenlive:original.meta.media.top_field_first">0</property>
  <property name="kdenlive:original.meta.media.progressive">1</property>
  <property name="kdenlive:original.kdenlive:clip_type">2</property>
  <property name="kdenlive:original.kdenlive:folderid">16</property>
  <property name="kdenlive:original.kdenlive:id">107</property>
  <property name="kdenlive:original.mute_on_pause">0</property>
  <property name="kdenlive:original.kdenlive:file_size">84226</property>
  <property name="kdenlive:original.kdenlive:file_hash">66aacc9275f0f9ae83444f64550191e2</property>
  <property name="kdenlive:original.backup">1</property>
  <property name="meta.media.nb_streams">1</property>
  <property name="meta.media.0.stream.type">video</property>
  <property name="meta.media.0.stream.frame_rate">60</property>
  <property name="meta.media.0.stream.sample_aspect_ratio">0</property>
  <property name="meta.media.0.codec.width">640</property>
  <property name="meta.media.0.codec.height">360</property>
  <property name="meta.media.0.codec.rotate">0</property>
  <property name="meta.media.0.codec.pix_fmt">yuvj420p</property>
  <property name="meta.media.0.codec.sample_aspect_ratio">0</property>
  <property name="meta.media.0.codec.colorspace">601</property>
  <property name="meta.media.0.codec.name">mjpeg</property>
  <property name="meta.media.0.codec.long_name">MJPEG (Motion JPEG)</property>
  <property name="meta.media.0.codec.bit_rate">0</property>
  <property name="meta.attr.0.stream.HANDLER_NAME.markup">VideoHandler</property>
  <property name="meta.attr.0.stream.VENDOR_ID.markup">[0][0][0][0]</property>
  <property name="meta.attr.0.stream.ENCODER.markup">Lavc60.3.100 mjpeg</property>
  <property name="meta.attr.0.stream.DURATION.markup">00:00:01.750000000</property>
  <property name="meta.attr.COMMENT.markup">Rendered with Manim Community v0.17.3</property>
  <property name="meta.attr.MAJOR_BRAND.markup">isom</property>
  <property name="meta.attr.MINOR_VERSION.markup">512</property>
  <property name="meta.attr.COMPATIBLE_BRANDS.markup">isomiso2avc1mp41</property>
  <property name="meta.attr.ENCODER.markup">Lavf60.3.100</property>
  <property name="meta.media.sample_aspect_num">1</property>
  <property name="meta.media.sample_aspect_den">1</property>
  <property name="meta.media.frame_rate_num">60</property>
  <property name="meta.media.frame_rate_den">1</property>
  <property name="meta.media.colorspace">601</property>
  <property name="meta.media.color_trc">2</property>
  <property name="meta.media.has_b_frames">0</property>
  <property name="meta.media.width">640</property>
  <property name="meta.media.height">360</property>
  <property name="meta.media.color_range">full</property>
  <property name="xml">was here</property>
  <property name="meta.media.top_field_first">0</property>
  <property name="meta.media.progressive">1</property>
  <property name="set.test_audio">1</property>
  <property name="set.test_image">0</property>
 </chain>
 <chain id="chain48" out="00:00:01.733">
  <property name="length">105</property>
  <property name="eof">pause</property>
  <property name="resource">/home/xiaoxiae/.cache/kdenlive/proxy/c08f926de98a2eb0854de9e94ce5d33e.mkv</property>
  <property name="mlt_service">avformat-novalidate</property>
  <property name="seekable">1</property>
  <property name="format">3</property>
  <property name="audio_index">-1</property>
  <property name="video_index">0</property>
  <property name="kdenlive:clipname">36.mp4</property>
  <property name="kdenlive:clip_type">2</property>
  <property name="kdenlive:folderid">16</property>
  <property name="kdenlive:id">108</property>
  <property name="mute_on_pause">0</property>
  <property name="kdenlive:file_size">108529</property>
  <property name="kdenlive:file_hash">c08f926de98a2eb0854de9e94ce5d33e</property>
  <property name="kdenlive:proxy">/home/xiaoxiae/.cache/kdenlive/proxy/c08f926de98a2eb0854de9e94ce5d33e.mkv</property>
  <property name="kdenlive:originalurl">video/Farmer/36.mp4</property>
  <property name="kdenlive:original.mlt_type">chain</property>
  <property name="kdenlive:original.in">0</property>
  <property name="kdenlive:original.out">00:00:01.733</property>
  <property name="kdenlive:original.length">105</property>
  <property name="kdenlive:original.eof">pause</property>
  <property name="kdenlive:original.resource">video/Farmer/36.mp4</property>
  <property name="kdenlive:original.mlt_service">avformat-novalidate</property>
  <property name="kdenlive:original.meta.media.nb_streams">1</property>
  <property name="kdenlive:original.meta.media.0.stream.type">video</property>
  <property name="kdenlive:original.meta.media.0.stream.frame_rate">60</property>
  <property name="kdenlive:original.meta.media.0.stream.sample_aspect_ratio">0</property>
  <property name="kdenlive:original.meta.media.0.codec.width">1920</property>
  <property name="kdenlive:original.meta.media.0.codec.height">1080</property>
  <property name="kdenlive:original.meta.media.0.codec.rotate">0</property>
  <property name="kdenlive:original.meta.media.0.codec.pix_fmt">yuv420p</property>
  <property name="kdenlive:original.meta.media.0.codec.sample_aspect_ratio">0</property>
  <property name="kdenlive:original.meta.media.0.codec.colorspace">709</property>
  <property name="kdenlive:original.meta.media.0.codec.name">h264</property>
  <property name="kdenlive:original.meta.media.0.codec.long_name">H.264 / AVC / MPEG-4 AVC / MPEG-4 part 10</property>
  <property name="kdenlive:original.meta.media.0.codec.bit_rate">486203</property>
  <property name="kdenlive:original.meta.attr.0.stream.handler_name.markup">VideoHandler</property>
  <property name="kdenlive:original.meta.attr.0.stream.vendor_id.markup">[0][0][0][0]</property>
  <property name="kdenlive:original.meta.attr.0.stream.encoder.markup">Lavc60.3.100 libx264</property>
  <property name="kdenlive:original.meta.attr.major_brand.markup">isom</property>
  <property name="kdenlive:original.meta.attr.minor_version.markup">512</property>
  <property name="kdenlive:original.meta.attr.compatible_brands.markup">isomiso2avc1mp41</property>
  <property name="kdenlive:original.meta.attr.encoder.markup">Lavf60.3.100</property>
  <property name="kdenlive:original.meta.attr.comment.markup">Rendered with Manim Community v0.17.3</property>
  <property name="kdenlive:original.seekable">1</property>
  <property name="kdenlive:original.width">1920</property>
  <property name="kdenlive:original.height">1080</property>
  <property name="kdenlive:original.meta.media.sample_aspect_num">1</property>
  <property name="kdenlive:original.meta.media.sample_aspect_den">1</property>
  <property name="kdenlive:original.format">3</property>
  <property name="kdenlive:original.audio_index">-1</property>
  <property name="kdenlive:original.video_index">0</property>
  <property name="kdenlive:original.meta.media.frame_rate_num">60</property>
  <property name="kdenlive:original.meta.media.frame_rate_den">1</property>
  <property name="kdenlive:original.meta.media.colorspace">709</property>
  <property name="kdenlive:original.meta.media.color_trc">2</property>
  <property name="kdenlive:original.meta.media.has_b_frames">2</property>
  <property name="kdenlive:original.meta.media.width">1920</property>
  <property name="kdenlive:original.meta.media.height">1080</property>
  <property name="kdenlive:original.meta.media.color_range">mpeg</property>
  <property name="kdenlive:original.meta.media.top_field_first">0</property>
  <property name="kdenlive:original.meta.media.progressive">1</property>
  <property name="kdenlive:original.kdenlive:clip_type">2</property>
  <property name="kdenlive:original.kdenlive:folderid">16</property>
  <property name="kdenlive:original.kdenlive:id">108</property>
  <property name="kdenlive:original.mute_on_pause">0</property>
  <property name="kdenlive:original.kdenlive:file_size">108529</property>
  <property name="kdenlive:original.kdenlive:file_hash">c08f926de98a2eb0854de9e94ce5d33e</property>
  <property name="kdenlive:original.backup">1</property>
  <property name="meta.media.nb_streams">1</property>
  <property name="meta.media.0.stream.type">video</property>
  <property name="meta.media.0.stream.frame_rate">60</property>
  <property name="meta.media.0.stream.sample_aspect_ratio">0</property>
  <property name="meta.media.0.codec.width">640</property>
  <property name="meta.media.0.codec.height">360</property>
  <property name="meta.media.0.codec.rotate">0</property>
  <property name="meta.media.0.codec.pix_fmt">yuvj420p</property>
  <property name="meta.media.0.codec.sample_aspect_ratio">0</property>
  <property name="meta.media.0.codec.colorspace">601</property>
  <property name="meta.media.0.codec.name">mjpeg</property>
  <property name="meta.media.0.codec.long_name">MJPEG (Motion JPEG)</property>
  <property name="meta.media.0.codec.bit_rate">0</property>
  <property name="meta.attr.0.stream.HANDLER_NAME.markup">VideoHandler</property>
  <property name="meta.attr.0.stream.VENDOR_ID.markup">[0][0][0][0]</property>
  <property name="meta.attr.0.stream.ENCODER.markup">Lavc60.3.100 mjpeg</property>
  <property name="meta.attr.0.stream.DURATION.markup">00:00:01.750000000</property>
  <property name="meta.attr.COMMENT.markup">Rendered with Manim Community v0.17.3</property>
  <property name="meta.attr.MAJOR_BRAND.markup">isom</property>
  <property name="meta.attr.MINOR_VERSION.markup">512</property>
  <property name="meta.attr.COMPATIBLE_BRANDS.markup">isomiso2avc1mp41</property>
  <property name="meta.attr.ENCODER.markup">Lavf60.3.100</property>
  <property name="meta.media.sample_aspect_num">1</property>
  <property name="meta.media.sample_aspect_den">1</property>
  <property name="meta.media.frame_rate_num">60</property>
  <property name="meta.media.frame_rate_den">1</property>
  <property name="meta.media.colorspace">601</property>
  <property name="meta.media.color_trc">2</property>
  <property name="meta.media.has_b_frames">0</property>
  <property name="meta.media.width">640</property>
  <property name="meta.media.height">360</property>
  <property name="meta.media.color_range">full</property>
  <property name="xml">was here</property>
  <property name="meta.media.top_field_first">0</property>
  <property name="meta.media.progressive">1</property>
  <property name="set.test_audio">1</property>
  <property name="set.test_image">0</property>
 </chain>
 <chain id="chain68" out="00:00:01.733">
  <property name="length">105</property>
  <property name="eof">pause</property>
  <property name="resource">/home/xiaoxiae/.cache/kdenlive/proxy/452895bed285a1f728e13b0c150773e6.mkv</property>
  <property name="mlt_service">avformat-novalidate</property>
  <property name="seekable">1</property>
  <property name="format">3</property>
  <property name="audio_index">-1</property>
  <property name="video_index">0</property>
  <property name="kdenlive:clipname">37.mp4</property>
  <property name="kdenlive:clip_type">2</property>
  <property name="kdenlive:folderid">16</property>
  <property name="kdenlive:id">109</property>
  <property name="mute_on_pause">0</property>
  <property name="kdenlive:file_size">96393</property>
  <property name="kdenlive:file_hash">452895bed285a1f728e13b0c150773e6</property>
  <property name="kdenlive:proxy">/home/xiaoxiae/.cache/kdenlive/proxy/452895bed285a1f728e13b0c150773e6.mkv</property>
  <property name="kdenlive:originalurl">video/Farmer/37.mp4</property>
  <property name="kdenlive:original.mlt_type">chain</property>
  <property name="kdenlive:original.in">0</property>
  <property name="kdenlive:original.out">00:00:01.733</property>
  <property name="kdenlive:original.length">105</property>
  <property name="kdenlive:original.eof">pause</property>
  <property name="kdenlive:original.resource">video/Farmer/37.mp4</property>
  <property name="kdenlive:original.mlt_service">avformat-novalidate</property>
  <property name="kdenlive:original.meta.media.nb_streams">1</property>
  <property name="kdenlive:original.meta.media.0.stream.type">video</property>
  <property name="kdenlive:original.meta.media.0.stream.frame_rate">60</property>
  <property name="kdenlive:original.meta.media.0.stream.sample_aspect_ratio">0</property>
  <property name="kdenlive:original.meta.media.0.codec.width">1920</property>
  <property name="kdenlive:original.meta.media.0.codec.height">1080</property>
  <property name="kdenlive:original.meta.media.0.codec.rotate">0</property>
  <property name="kdenlive:original.meta.media.0.codec.pix_fmt">yuv420p</property>
  <property name="kdenlive:original.meta.media.0.codec.sample_aspect_ratio">0</property>
  <property name="kdenlive:original.meta.media.0.codec.colorspace">709</property>
  <property name="kdenlive:original.meta.media.0.codec.name">h264</property>
  <property name="kdenlive:original.meta.media.0.codec.long_name">H.264 / AVC / MPEG-4 AVC / MPEG-4 part 10</property>
  <property name="kdenlive:original.meta.media.0.codec.bit_rate">430834</property>
  <property name="kdenlive:original.meta.attr.0.stream.handler_name.markup">VideoHandler</property>
  <property name="kdenlive:original.meta.attr.0.stream.vendor_id.markup">[0][0][0][0]</property>
  <property name="kdenlive:original.meta.attr.0.stream.encoder.markup">Lavc60.3.100 libx264</property>
  <property name="kdenlive:original.meta.attr.major_brand.markup">isom</property>
  <property name="kdenlive:original.meta.attr.minor_version.markup">512</property>
  <property name="kdenlive:original.meta.attr.compatible_brands.markup">isomiso2avc1mp41</property>
  <property name="kdenlive:original.meta.attr.encoder.markup">Lavf60.3.100</property>
  <property name="kdenlive:original.meta.attr.comment.markup">Rendered with Manim Community v0.17.3</property>
  <property name="kdenlive:original.seekable">1</property>
  <property name="kdenlive:original.width">1920</property>
  <property name="kdenlive:original.height">1080</property>
  <property name="kdenlive:original.meta.media.sample_aspect_num">1</property>
  <property name="kdenlive:original.meta.media.sample_aspect_den">1</property>
  <property name="kdenlive:original.format">3</property>
  <property name="kdenlive:original.audio_index">-1</property>
  <property name="kdenlive:original.video_index">0</property>
  <property name="kdenlive:original.meta.media.frame_rate_num">60</property>
  <property name="kdenlive:original.meta.media.frame_rate_den">1</property>
  <property name="kdenlive:original.meta.media.colorspace">709</property>
  <property name="kdenlive:original.meta.media.color_trc">2</property>
  <property name="kdenlive:original.meta.media.has_b_frames">2</property>
  <property name="kdenlive:original.meta.media.width">1920</property>
  <property name="kdenlive:original.meta.media.height">1080</property>
  <property name="kdenlive:original.meta.media.color_range">mpeg</property>
  <property name="kdenlive:original.meta.media.top_field_first">0</property>
  <property name="kdenlive:original.meta.media.progressive">1</property>
  <property name="kdenlive:original.kdenlive:clip_type">2</property>
  <property name="kdenlive:original.kdenlive:folderid">16</property>
  <property name="kdenlive:original.kdenlive:id">109</property>
  <property name="kdenlive:original.mute_on_pause">0</property>
  <property name="kdenlive:original.kdenlive:file_size">96393</property>
  <property name="kdenlive:original.kdenlive:file_hash">452895bed285a1f728e13b0c150773e6</property>
  <property name="kdenlive:original.backup">1</property>
  <property name="meta.media.nb_streams">1</property>
  <property name="meta.media.0.stream.type">video</property>
  <property name="meta.media.0.stream.frame_rate">60</property>
  <property name="meta.media.0.stream.sample_aspect_ratio">0</property>
  <property name="meta.media.0.codec.width">640</property>
  <property name="meta.media.0.codec.height">360</property>
  <property name="meta.media.0.codec.rotate">0</property>
  <property name="meta.media.0.codec.pix_fmt">yuvj420p</property>
  <property name="meta.media.0.codec.sample_aspect_ratio">0</property>
  <property name="meta.media.0.codec.colorspace">601</property>
  <property name="meta.media.0.codec.name">mjpeg</property>
  <property name="meta.media.0.codec.long_name">MJPEG (Motion JPEG)</property>
  <property name="meta.media.0.codec.bit_rate">0</property>
  <property name="meta.attr.0.stream.HANDLER_NAME.markup">VideoHandler</property>
  <property name="meta.attr.0.stream.VENDOR_ID.markup">[0][0][0][0]</property>
  <property name="meta.attr.0.stream.ENCODER.markup">Lavc60.3.100 mjpeg</property>
  <property name="meta.attr.0.stream.DURATION.markup">00:00:01.750000000</property>
  <property name="meta.attr.COMMENT.markup">Rendered with Manim Community v0.17.3</property>
  <property name="meta.attr.MAJOR_BRAND.markup">isom</property>
  <property name="meta.attr.MINOR_VERSION.markup">512</property>
  <property name="meta.attr.COMPATIBLE_BRANDS.markup">isomiso2avc1mp41</property>
  <property name="meta.attr.ENCODER.markup">Lavf60.3.100</property>
  <property name="meta.media.sample_aspect_num">1</property>
  <property name="meta.media.sample_aspect_den">1</property>
  <property name="meta.media.frame_rate_num">60</property>
  <property name="meta.media.frame_rate_den">1</property>
  <property name="meta.media.colorspace">601</property>
  <property name="meta.media.color_trc">2</property>
  <property name="meta.media.has_b_frames">0</property>
  <property name="meta.media.width">640</property>
  <property name="meta.media.height">360</property>
  <property name="meta.media.color_range">full</property>
  <property name="xml">was here</property>
  <property name="meta.media.top_field_first">0</property>
  <property name="meta.media.progressive">1</property>
  <property name="set.test_audio">1</property>
  <property name="set.test_image">0</property>
 </chain>
 <chain id="chain69" out="00:00:00.983">
  <property name="length">60</property>
  <property name="eof">pause</property>
  <property name="resource">/home/xiaoxiae/.cache/kdenlive/proxy/f6f7bc370653ffc863b0057853b382d6.mkv</property>
  <property name="mlt_service">avformat-novalidate</property>
  <property name="seekable">1</property>
  <property name="format">3</property>
  <property name="audio_index">-1</property>
  <property name="video_index">0</property>
  <property name="kdenlive:clipname">38.mp4</property>
  <property name="kdenlive:clip_type">2</property>
  <property name="kdenlive:folderid">16</property>
  <property name="kdenlive:id">110</property>
  <property name="mute_on_pause">0</property>
  <property name="kdenlive:file_size">96156</property>
  <property name="kdenlive:file_hash">f6f7bc370653ffc863b0057853b382d6</property>
  <property name="kdenlive:proxy">/home/xiaoxiae/.cache/kdenlive/proxy/f6f7bc370653ffc863b0057853b382d6.mkv</property>
  <property name="kdenlive:originalurl">video/Farmer/38.mp4</property>
  <property name="kdenlive:original.mlt_type">chain</property>
  <property name="kdenlive:original.in">0</property>
  <property name="kdenlive:original.out">00:00:00.983</property>
  <property name="kdenlive:original.length">60</property>
  <property name="kdenlive:original.eof">pause</property>
  <property name="kdenlive:original.resource">video/Farmer/38.mp4</property>
  <property name="kdenlive:original.mlt_service">avformat-novalidate</property>
  <property name="kdenlive:original.meta.media.nb_streams">1</property>
  <property name="kdenlive:original.meta.media.0.stream.type">video</property>
  <property name="kdenlive:original.meta.media.0.stream.frame_rate">60</property>
  <property name="kdenlive:original.meta.media.0.stream.sample_aspect_ratio">0</property>
  <property name="kdenlive:original.meta.media.0.codec.width">1920</property>
  <property name="kdenlive:original.meta.media.0.codec.height">1080</property>
  <property name="kdenlive:original.meta.media.0.codec.rotate">0</property>
  <property name="kdenlive:original.meta.media.0.codec.pix_fmt">yuv420p</property>
  <property name="kdenlive:original.meta.media.0.codec.sample_aspect_ratio">0</property>
  <property name="kdenlive:original.meta.media.0.codec.colorspace">709</property>
  <property name="kdenlive:original.meta.media.0.codec.name">h264</property>
  <property name="kdenlive:original.meta.media.0.codec.long_name">H.264 / AVC / MPEG-4 AVC / MPEG-4 part 10</property>
  <property name="kdenlive:original.meta.media.0.codec.bit_rate">756192</property>
  <property name="kdenlive:original.meta.attr.0.stream.handler_name.markup">VideoHandler</property>
  <property name="kdenlive:original.meta.attr.0.stream.vendor_id.markup">[0][0][0][0]</property>
  <property name="kdenlive:original.meta.attr.0.stream.encoder.markup">Lavc60.3.100 libx264</property>
  <property name="kdenlive:original.meta.attr.major_brand.markup">isom</property>
  <property name="kdenlive:original.meta.attr.minor_version.markup">512</property>
  <property name="kdenlive:original.meta.attr.compatible_brands.markup">isomiso2avc1mp41</property>
  <property name="kdenlive:original.meta.attr.encoder.markup">Lavf60.3.100</property>
  <property name="kdenlive:original.meta.attr.comment.markup">Rendered with Manim Community v0.17.3</property>
  <property name="kdenlive:original.seekable">1</property>
  <property name="kdenlive:original.width">1920</property>
  <property name="kdenlive:original.height">1080</property>
  <property name="kdenlive:original.meta.media.sample_aspect_num">1</property>
  <property name="kdenlive:original.meta.media.sample_aspect_den">1</property>
  <property name="kdenlive:original.format">3</property>
  <property name="kdenlive:original.audio_index">-1</property>
  <property name="kdenlive:original.video_index">0</property>
  <property name="kdenlive:original.meta.media.frame_rate_num">60</property>
  <property name="kdenlive:original.meta.media.frame_rate_den">1</property>
  <property name="kdenlive:original.meta.media.colorspace">709</property>
  <property name="kdenlive:original.meta.media.color_trc">2</property>
  <property name="kdenlive:original.meta.media.has_b_frames">2</property>
  <property name="kdenlive:original.meta.media.width">1920</property>
  <property name="kdenlive:original.meta.media.height">1080</property>
  <property name="kdenlive:original.meta.media.color_range">mpeg</property>
  <property name="kdenlive:original.meta.media.top_field_first">0</property>
  <property name="kdenlive:original.meta.media.progressive">1</property>
  <property name="kdenlive:original.kdenlive:clip_type">2</property>
  <property name="kdenlive:original.kdenlive:folderid">16</property>
  <property name="kdenlive:original.kdenlive:id">110</property>
  <property name="kdenlive:original.mute_on_pause">0</property>
  <property name="kdenlive:original.kdenlive:file_size">96156</property>
  <property name="kdenlive:original.kdenlive:file_hash">f6f7bc370653ffc863b0057853b382d6</property>
  <property name="kdenlive:original.backup">1</property>
  <property name="meta.media.nb_streams">1</property>
  <property name="meta.media.0.stream.type">video</property>
  <property name="meta.media.0.stream.frame_rate">60</property>
  <property name="meta.media.0.stream.sample_aspect_ratio">0</property>
  <property name="meta.media.0.codec.width">640</property>
  <property name="meta.media.0.codec.height">360</property>
  <property name="meta.media.0.codec.rotate">0</property>
  <property name="meta.media.0.codec.pix_fmt">yuvj420p</property>
  <property name="meta.media.0.codec.sample_aspect_ratio">0</property>
  <property name="meta.media.0.codec.colorspace">601</property>
  <property name="meta.media.0.codec.name">mjpeg</property>
  <property name="meta.media.0.codec.long_name">MJPEG (Motion JPEG)</property>
  <property name="meta.media.0.codec.bit_rate">0</property>
  <property name="meta.attr.0.stream.HANDLER_NAME.markup">VideoHandler</property>
  <property name="meta.attr.0.stream.VENDOR_ID.markup">[0][0][0][0]</property>
  <property name="meta.attr.0.stream.ENCODER.markup">Lavc60.3.100 mjpeg</property>
  <property name="meta.attr.0.stream.DURATION.markup">00:00:01.000000000</property>
  <property name="meta.attr.COMMENT.markup">Rendered with Manim Community v0.17.3</property>
  <property name="meta.attr.MAJOR_BRAND.markup">isom</property>
  <property name="meta.attr.MINOR_VERSION.markup">512</property>
  <property name="meta.attr.COMPATIBLE_BRANDS.markup">isomiso2avc1mp41</property>
  <property name="meta.attr.ENCODER.markup">Lavf60.3.100</property>
  <property name="meta.media.sample_aspect_num">1</property>
  <property name="meta.media.sample_aspect_den">1</property>
  <property name="meta.media.frame_rate_num">60</property>
  <property name="meta.media.frame_rate_den">1</property>
  <property name="meta.media.colorspace">601</property>
  <property name="meta.media.color_trc">2</property>
  <property name="meta.media.has_b_frames">0</property>
  <property name="meta.media.width">640</property>
  <property name="meta.media.height">360</property>
  <property name="meta.media.color_range">full</property>
  <property name="xml">was here</property>
  <property name="meta.media.top_field_first">0</property>
  <property name="meta.media.progressive">1</property>
  <property name="set.test_audio">1</property>
  <property name="set.test_image">0</property>
 </chain>
 <chain id="chain70" out="00:00:00.983">
  <property name="length">60</property>
  <property name="eof">pause</property>
  <property name="resource">/home/xiaoxiae/.cache/kdenlive/proxy/d7104ca0d90eb8c4502fbf86af0a6f1e.mkv</property>
  <property name="mlt_service">avformat-novalidate</property>
  <property name="seekable">1</property>
  <property name="format">3</property>
  <property name="audio_index">-1</property>
  <property name="video_index">0</property>
  <property name="kdenlive:clipname">39.mp4</property>
  <property name="kdenlive:clip_type">2</property>
  <property name="kdenlive:folderid">16</property>
  <property name="kdenlive:id">111</property>
  <property name="mute_on_pause">0</property>
  <property name="kdenlive:file_size">174130</property>
  <property name="kdenlive:file_hash">d7104ca0d90eb8c4502fbf86af0a6f1e</property>
  <property name="kdenlive:proxy">/home/xiaoxiae/.cache/kdenlive/proxy/d7104ca0d90eb8c4502fbf86af0a6f1e.mkv</property>
  <property name="kdenlive:originalurl">video/Farmer/39.mp4</property>
  <property name="kdenlive:original.mlt_type">chain</property>
  <property name="kdenlive:original.in">0</property>
  <property name="kdenlive:original.out">00:00:00.983</property>
  <property name="kdenlive:original.length">60</property>
  <property name="kdenlive:original.eof">pause</property>
  <property name="kdenlive:original.resource">video/Farmer/39.mp4</property>
  <property name="kdenlive:original.mlt_service">avformat-novalidate</property>
  <property name="kdenlive:original.meta.media.nb_streams">1</property>
  <property name="kdenlive:original.meta.media.0.stream.type">video</property>
  <property name="kdenlive:original.meta.media.0.stream.frame_rate">60</property>
  <property name="kdenlive:original.meta.media.0.stream.sample_aspect_ratio">0</property>
  <property name="kdenlive:original.meta.media.0.codec.width">1920</property>
  <property name="kdenlive:original.meta.media.0.codec.height">1080</property>
  <property name="kdenlive:original.meta.media.0.codec.rotate">0</property>
  <property name="kdenlive:original.meta.media.0.codec.pix_fmt">yuv420p</property>
  <property name="kdenlive:original.meta.media.0.codec.sample_aspect_ratio">0</property>
  <property name="kdenlive:original.meta.media.0.codec.colorspace">709</property>
  <property name="kdenlive:original.meta.media.0.codec.name">h264</property>
  <property name="kdenlive:original.meta.media.0.codec.long_name">H.264 / AVC / MPEG-4 AVC / MPEG-4 part 10</property>
  <property name="kdenlive:original.meta.media.0.codec.bit_rate">1380112</property>
  <property name="kdenlive:original.meta.attr.0.stream.handler_name.markup">VideoHandler</property>
  <property name="kdenlive:original.meta.attr.0.stream.vendor_id.markup">[0][0][0][0]</property>
  <property name="kdenlive:original.meta.attr.0.stream.encoder.markup">Lavc60.3.100 libx264</property>
  <property name="kdenlive:original.meta.attr.major_brand.markup">isom</property>
  <property name="kdenlive:original.meta.attr.minor_version.markup">512</property>
  <property name="kdenlive:original.meta.attr.compatible_brands.markup">isomiso2avc1mp41</property>
  <property name="kdenlive:original.meta.attr.encoder.markup">Lavf60.3.100</property>
  <property name="kdenlive:original.meta.attr.comment.markup">Rendered with Manim Community v0.17.3</property>
  <property name="kdenlive:original.seekable">1</property>
  <property name="kdenlive:original.width">1920</property>
  <property name="kdenlive:original.height">1080</property>
  <property name="kdenlive:original.meta.media.sample_aspect_num">1</property>
  <property name="kdenlive:original.meta.media.sample_aspect_den">1</property>
  <property name="kdenlive:original.format">3</property>
  <property name="kdenlive:original.audio_index">-1</property>
  <property name="kdenlive:original.video_index">0</property>
  <property name="kdenlive:original.meta.media.frame_rate_num">60</property>
  <property name="kdenlive:original.meta.media.frame_rate_den">1</property>
  <property name="kdenlive:original.meta.media.colorspace">709</property>
  <property name="kdenlive:original.meta.media.color_trc">2</property>
  <property name="kdenlive:original.meta.media.has_b_frames">2</property>
  <property name="kdenlive:original.meta.media.width">1920</property>
  <property name="kdenlive:original.meta.media.height">1080</property>
  <property name="kdenlive:original.meta.media.color_range">mpeg</property>
  <property name="kdenlive:original.meta.media.top_field_first">0</property>
  <property name="kdenlive:original.meta.media.progressive">1</property>
  <property name="kdenlive:original.kdenlive:clip_type">2</property>
  <property name="kdenlive:original.kdenlive:folderid">16</property>
  <property name="kdenlive:original.kdenlive:id">111</property>
  <property name="kdenlive:original.mute_on_pause">0</property>
  <property name="kdenlive:original.kdenlive:file_size">174130</property>
  <property name="kdenlive:original.kdenlive:file_hash">d7104ca0d90eb8c4502fbf86af0a6f1e</property>
  <property name="kdenlive:original.backup">1</property>
  <property name="meta.media.nb_streams">1</property>
  <property name="meta.media.0.stream.type">video</property>
  <property name="meta.media.0.stream.frame_rate">60</property>
  <property name="meta.media.0.stream.sample_aspect_ratio">0</property>
  <property name="meta.media.0.codec.width">640</property>
  <property name="meta.media.0.codec.height">360</property>
  <property name="meta.media.0.codec.rotate">0</property>
  <property name="meta.media.0.codec.pix_fmt">yuvj420p</property>
  <property name="meta.media.0.codec.sample_aspect_ratio">0</property>
  <property name="meta.media.0.codec.colorspace">601</property>
  <property name="meta.media.0.codec.name">mjpeg</property>
  <property name="meta.media.0.codec.long_name">MJPEG (Motion JPEG)</property>
  <property name="meta.media.0.codec.bit_rate">0</property>
  <property name="meta.attr.0.stream.HANDLER_NAME.markup">VideoHandler</property>
  <property name="meta.attr.0.stream.VENDOR_ID.markup">[0][0][0][0]</property>
  <property name="meta.attr.0.stream.ENCODER.markup">Lavc60.3.100 mjpeg</property>
  <property name="meta.attr.0.stream.DURATION.markup">00:00:01.000000000</property>
  <property name="meta.attr.COMMENT.markup">Rendered with Manim Community v0.17.3</property>
  <property name="meta.attr.MAJOR_BRAND.markup">isom</property>
  <property name="meta.attr.MINOR_VERSION.markup">512</property>
  <property name="meta.attr.COMPATIBLE_BRANDS.markup">isomiso2avc1mp41</property>
  <property name="meta.attr.ENCODER.markup">Lavf60.3.100</property>
  <property name="meta.media.sample_aspect_num">1</property>
  <property name="meta.media.sample_aspect_den">1</property>
  <property name="meta.media.frame_rate_num">60</property>
  <property name="meta.media.frame_rate_den">1</property>
  <property name="meta.media.colorspace">601</property>
  <property name="meta.media.color_trc">2</property>
  <property name="meta.media.has_b_frames">0</property>
  <property name="meta.media.width">640</property>
  <property name="meta.media.height">360</property>
  <property name="meta.media.color_range">full</property>
  <property name="xml">was here</property>
  <property name="meta.media.top_field_first">0</property>
  <property name="meta.media.progressive">1</property>
  <property name="set.test_audio">1</property>
  <property name="set.test_image">0</property>
 </chain>
 <chain id="chain71" out="00:00:01.183">
  <property name="length">72</property>
  <property name="eof">pause</property>
  <property name="resource">/home/xiaoxiae/.cache/kdenlive/proxy/27a1c90940b7a5d32480619df4e30ba7.mkv</property>
  <property name="mlt_service">avformat-novalidate</property>
  <property name="seekable">1</property>
  <property name="format">3</property>
  <property name="audio_index">-1</property>
  <property name="video_index">0</property>
  <property name="kdenlive:clipname">40.mp4</property>
  <property name="kdenlive:clip_type">2</property>
  <property name="kdenlive:folderid">16</property>
  <property name="kdenlive:id">113</property>
  <property name="mute_on_pause">0</property>
  <property name="kdenlive:file_size">79453</property>
  <property name="kdenlive:file_hash">27a1c90940b7a5d32480619df4e30ba7</property>
  <property name="kdenlive:proxy">/home/xiaoxiae/.cache/kdenlive/proxy/27a1c90940b7a5d32480619df4e30ba7.mkv</property>
  <property name="kdenlive:originalurl">video/Farmer/40.mp4</property>
  <property name="kdenlive:original.mlt_type">chain</property>
  <property name="kdenlive:original.in">0</property>
  <property name="kdenlive:original.out">00:00:01.183</property>
  <property name="kdenlive:original.length">72</property>
  <property name="kdenlive:original.eof">pause</property>
  <property name="kdenlive:original.resource">video/Farmer/40.mp4</property>
  <property name="kdenlive:original.mlt_service">avformat-novalidate</property>
  <property name="kdenlive:original.meta.media.nb_streams">1</property>
  <property name="kdenlive:original.meta.media.0.stream.type">video</property>
  <property name="kdenlive:original.meta.media.0.stream.frame_rate">60</property>
  <property name="kdenlive:original.meta.media.0.stream.sample_aspect_ratio">0</property>
  <property name="kdenlive:original.meta.media.0.codec.width">1920</property>
  <property name="kdenlive:original.meta.media.0.codec.height">1080</property>
  <property name="kdenlive:original.meta.media.0.codec.rotate">0</property>
  <property name="kdenlive:original.meta.media.0.codec.pix_fmt">yuv420p</property>
  <property name="kdenlive:original.meta.media.0.codec.sample_aspect_ratio">0</property>
  <property name="kdenlive:original.meta.media.0.codec.colorspace">709</property>
  <property name="kdenlive:original.meta.media.0.codec.name">h264</property>
  <property name="kdenlive:original.meta.media.0.codec.long_name">H.264 / AVC / MPEG-4 AVC / MPEG-4 part 10</property>
  <property name="kdenlive:original.meta.media.0.codec.bit_rate">517793</property>
  <property name="kdenlive:original.meta.attr.0.stream.handler_name.markup">VideoHandler</property>
  <property name="kdenlive:original.meta.attr.0.stream.vendor_id.markup">[0][0][0][0]</property>
  <property name="kdenlive:original.meta.attr.0.stream.encoder.markup">Lavc60.3.100 libx264</property>
  <property name="kdenlive:original.meta.attr.major_brand.markup">isom</property>
  <property name="kdenlive:original.meta.attr.minor_version.markup">512</property>
  <property name="kdenlive:original.meta.attr.compatible_brands.markup">isomiso2avc1mp41</property>
  <property name="kdenlive:original.meta.attr.encoder.markup">Lavf60.3.100</property>
  <property name="kdenlive:original.meta.attr.comment.markup">Rendered with Manim Community v0.17.3</property>
  <property name="kdenlive:original.seekable">1</property>
  <property name="kdenlive:original.width">1920</property>
  <property name="kdenlive:original.height">1080</property>
  <property name="kdenlive:original.meta.media.sample_aspect_num">1</property>
  <property name="kdenlive:original.meta.media.sample_aspect_den">1</property>
  <property name="kdenlive:original.format">3</property>
  <property name="kdenlive:original.audio_index">-1</property>
  <property name="kdenlive:original.video_index">0</property>
  <property name="kdenlive:original.meta.media.frame_rate_num">60</property>
  <property name="kdenlive:original.meta.media.frame_rate_den">1</property>
  <property name="kdenlive:original.meta.media.colorspace">709</property>
  <property name="kdenlive:original.meta.media.color_trc">2</property>
  <property name="kdenlive:original.meta.media.has_b_frames">2</property>
  <property name="kdenlive:original.meta.media.width">1920</property>
  <property name="kdenlive:original.meta.media.height">1080</property>
  <property name="kdenlive:original.meta.media.color_range">mpeg</property>
  <property name="kdenlive:original.meta.media.top_field_first">0</property>
  <property name="kdenlive:original.meta.media.progressive">1</property>
  <property name="kdenlive:original.kdenlive:clip_type">2</property>
  <property name="kdenlive:original.kdenlive:folderid">16</property>
  <property name="kdenlive:original.kdenlive:id">113</property>
  <property name="kdenlive:original.mute_on_pause">0</property>
  <property name="kdenlive:original.kdenlive:file_size">79453</property>
  <property name="kdenlive:original.kdenlive:file_hash">27a1c90940b7a5d32480619df4e30ba7</property>
  <property name="kdenlive:original.backup">1</property>
  <property name="meta.media.nb_streams">1</property>
  <property name="meta.media.0.stream.type">video</property>
  <property name="meta.media.0.stream.frame_rate">60</property>
  <property name="meta.media.0.stream.sample_aspect_ratio">0</property>
  <property name="meta.media.0.codec.width">640</property>
  <property name="meta.media.0.codec.height">360</property>
  <property name="meta.media.0.codec.rotate">0</property>
  <property name="meta.media.0.codec.pix_fmt">yuvj420p</property>
  <property name="meta.media.0.codec.sample_aspect_ratio">0</property>
  <property name="meta.media.0.codec.colorspace">601</property>
  <property name="meta.media.0.codec.name">mjpeg</property>
  <property name="meta.media.0.codec.long_name">MJPEG (Motion JPEG)</property>
  <property name="meta.media.0.codec.bit_rate">0</property>
  <property name="meta.attr.0.stream.HANDLER_NAME.markup">VideoHandler</property>
  <property name="meta.attr.0.stream.VENDOR_ID.markup">[0][0][0][0]</property>
  <property name="meta.attr.0.stream.ENCODER.markup">Lavc60.3.100 mjpeg</property>
  <property name="meta.attr.0.stream.DURATION.markup">00:00:01.200000000</property>
  <property name="meta.attr.COMMENT.markup">Rendered with Manim Community v0.17.3</property>
  <property name="meta.attr.MAJOR_BRAND.markup">isom</property>
  <property name="meta.attr.MINOR_VERSION.markup">512</property>
  <property name="meta.attr.COMPATIBLE_BRANDS.markup">isomiso2avc1mp41</property>
  <property name="meta.attr.ENCODER.markup">Lavf60.3.100</property>
  <property name="meta.media.sample_aspect_num">1</property>
  <property name="meta.media.sample_aspect_den">1</property>
  <property name="meta.media.frame_rate_num">60</property>
  <property name="meta.media.frame_rate_den">1</property>
  <property name="meta.media.colorspace">601</property>
  <property name="meta.media.color_trc">2</property>
  <property name="meta.media.has_b_frames">0</property>
  <property name="meta.media.width">640</property>
  <property name="meta.media.height">360</property>
  <property name="meta.media.color_range">full</property>
  <property name="xml">was here</property>
  <property name="meta.media.top_field_first">0</property>
  <property name="meta.media.progressive">1</property>
  <property name="set.test_audio">1</property>
  <property name="set.test_image">0</property>
 </chain>
 <chain id="chain72" out="00:00:00.983">
  <property name="length">60</property>
  <property name="eof">pause</property>
  <property name="resource">/home/xiaoxiae/.cache/kdenlive/proxy/2a47bcd36e7e71c063868d6cb2743842.mkv</property>
  <property name="mlt_service">avformat-novalidate</property>
  <property name="seekable">1</property>
  <property name="format">3</property>
  <property name="audio_index">-1</property>
  <property name="video_index">0</property>
  <property name="kdenlive:clipname">41.mp4</property>
  <property name="kdenlive:clip_type">2</property>
  <property name="kdenlive:folderid">16</property>
  <property name="kdenlive:id">114</property>
  <property name="mute_on_pause">0</property>
  <property name="kdenlive:file_size">75068</property>
  <property name="kdenlive:file_hash">2a47bcd36e7e71c063868d6cb2743842</property>
  <property name="kdenlive:proxy">/home/xiaoxiae/.cache/kdenlive/proxy/2a47bcd36e7e71c063868d6cb2743842.mkv</property>
  <property name="kdenlive:originalurl">video/Farmer/41.mp4</property>
  <property name="kdenlive:original.mlt_type">chain</property>
  <property name="kdenlive:original.in">0</property>
  <property name="kdenlive:original.out">00:00:00.983</property>
  <property name="kdenlive:original.length">60</property>
  <property name="kdenlive:original.eof">pause</property>
  <property name="kdenlive:original.resource">video/Farmer/41.mp4</property>
  <property name="kdenlive:original.mlt_service">avformat-novalidate</property>
  <property name="kdenlive:original.meta.media.nb_streams">1</property>
  <property name="kdenlive:original.meta.media.0.stream.type">video</property>
  <property name="kdenlive:original.meta.media.0.stream.frame_rate">60</property>
  <property name="kdenlive:original.meta.media.0.stream.sample_aspect_ratio">0</property>
  <property name="kdenlive:original.meta.media.0.codec.width">1920</property>
  <property name="kdenlive:original.meta.media.0.codec.height">1080</property>
  <property name="kdenlive:original.meta.media.0.codec.rotate">0</property>
  <property name="kdenlive:original.meta.media.0.codec.pix_fmt">yuv420p</property>
  <property name="kdenlive:original.meta.media.0.codec.sample_aspect_ratio">0</property>
  <property name="kdenlive:original.meta.media.0.codec.colorspace">709</property>
  <property name="kdenlive:original.meta.media.0.codec.name">h264</property>
  <property name="kdenlive:original.meta.media.0.codec.long_name">H.264 / AVC / MPEG-4 AVC / MPEG-4 part 10</property>
  <property name="kdenlive:original.meta.media.0.codec.bit_rate">587488</property>
  <property name="kdenlive:original.meta.attr.0.stream.handler_name.markup">VideoHandler</property>
  <property name="kdenlive:original.meta.attr.0.stream.vendor_id.markup">[0][0][0][0]</property>
  <property name="kdenlive:original.meta.attr.0.stream.encoder.markup">Lavc60.3.100 libx264</property>
  <property name="kdenlive:original.meta.attr.major_brand.markup">isom</property>
  <property name="kdenlive:original.meta.attr.minor_version.markup">512</property>
  <property name="kdenlive:original.meta.attr.compatible_brands.markup">isomiso2avc1mp41</property>
  <property name="kdenlive:original.meta.attr.encoder.markup">Lavf60.3.100</property>
  <property name="kdenlive:original.meta.attr.comment.markup">Rendered with Manim Community v0.17.3</property>
  <property name="kdenlive:original.seekable">1</property>
  <property name="kdenlive:original.width">1920</property>
  <property name="kdenlive:original.height">1080</property>
  <property name="kdenlive:original.meta.media.sample_aspect_num">1</property>
  <property name="kdenlive:original.meta.media.sample_aspect_den">1</property>
  <property name="kdenlive:original.format">3</property>
  <property name="kdenlive:original.audio_index">-1</property>
  <property name="kdenlive:original.video_index">0</property>
  <property name="kdenlive:original.meta.media.frame_rate_num">60</property>
  <property name="kdenlive:original.meta.media.frame_rate_den">1</property>
  <property name="kdenlive:original.meta.media.colorspace">709</property>
  <property name="kdenlive:original.meta.media.color_trc">2</property>
  <property name="kdenlive:original.meta.media.has_b_frames">2</property>
  <property name="kdenlive:original.meta.media.width">1920</property>
  <property name="kdenlive:original.meta.media.height">1080</property>
  <property name="kdenlive:original.meta.media.color_range">mpeg</property>
  <property name="kdenlive:original.meta.media.top_field_first">0</property>
  <property name="kdenlive:original.meta.media.progressive">1</property>
  <property name="kdenlive:original.kdenlive:clip_type">2</property>
  <property name="kdenlive:original.kdenlive:folderid">16</property>
  <property name="kdenlive:original.kdenlive:id">114</property>
  <property name="kdenlive:original.mute_on_pause">0</property>
  <property name="kdenlive:original.kdenlive:file_size">75068</property>
  <property name="kdenlive:original.kdenlive:file_hash">2a47bcd36e7e71c063868d6cb2743842</property>
  <property name="kdenlive:original.backup">1</property>
  <property name="meta.media.nb_streams">1</property>
  <property name="meta.media.0.stream.type">video</property>
  <property name="meta.media.0.stream.frame_rate">60</property>
  <property name="meta.media.0.stream.sample_aspect_ratio">0</property>
  <property name="meta.media.0.codec.width">640</property>
  <property name="meta.media.0.codec.height">360</property>
  <property name="meta.media.0.codec.rotate">0</property>
  <property name="meta.media.0.codec.pix_fmt">yuvj420p</property>
  <property name="meta.media.0.codec.sample_aspect_ratio">0</property>
  <property name="meta.media.0.codec.colorspace">601</property>
  <property name="meta.media.0.codec.name">mjpeg</property>
  <property name="meta.media.0.codec.long_name">MJPEG (Motion JPEG)</property>
  <property name="meta.media.0.codec.bit_rate">0</property>
  <property name="meta.attr.0.stream.HANDLER_NAME.markup">VideoHandler</property>
  <property name="meta.attr.0.stream.VENDOR_ID.markup">[0][0][0][0]</property>
  <property name="meta.attr.0.stream.ENCODER.markup">Lavc60.3.100 mjpeg</property>
  <property name="meta.attr.0.stream.DURATION.markup">00:00:01.000000000</property>
  <property name="meta.attr.COMMENT.markup">Rendered with Manim Community v0.17.3</property>
  <property name="meta.attr.MAJOR_BRAND.markup">isom</property>
  <property name="meta.attr.MINOR_VERSION.markup">512</property>
  <property name="meta.attr.COMPATIBLE_BRANDS.markup">isomiso2avc1mp41</property>
  <property name="meta.attr.ENCODER.markup">Lavf60.3.100</property>
  <property name="meta.media.sample_aspect_num">1</property>
  <property name="meta.media.sample_aspect_den">1</property>
  <property name="meta.media.frame_rate_num">60</property>
  <property name="meta.media.frame_rate_den">1</property>
  <property name="meta.media.colorspace">601</property>
  <property name="meta.media.color_trc">2</property>
  <property name="meta.media.has_b_frames">0</property>
  <property name="meta.media.width">640</property>
  <property name="meta.media.height">360</property>
  <property name="meta.media.color_range">full</property>
  <property name="xml">was here</property>
  <property name="meta.media.top_field_first">0</property>
  <property name="meta.media.progressive">1</property>
  <property name="set.test_audio">1</property>
  <property name="set.test_image">0</property>
 </chain>
 <chain id="chain73" out="00:00:02.483">
  <property name="length">150</property>
  <property name="eof">pause</property>
  <property name="resource">/home/xiaoxiae/.cache/kdenlive/proxy/f798cc1112ec8ab2f54a8065e2389a92.mkv</property>
  <property name="mlt_service">avformat-novalidate</property>
  <property name="seekable">1</property>
  <property name="format">3</property>
  <property name="audio_index">-1</property>
  <property name="video_index">0</property>
  <property name="kdenlive:clipname">42.mp4</property>
  <property name="kdenlive:clip_type">2</property>
  <property name="kdenlive:folderid">16</property>
  <property name="kdenlive:id">115</property>
  <property name="mute_on_pause">0</property>
  <property name="kdenlive:file_size">204466</property>
  <property name="kdenlive:file_hash">f798cc1112ec8ab2f54a8065e2389a92</property>
  <property name="kdenlive:proxy">/home/xiaoxiae/.cache/kdenlive/proxy/f798cc1112ec8ab2f54a8065e2389a92.mkv</property>
  <property name="kdenlive:originalurl">video/Farmer/42.mp4</property>
  <property name="kdenlive:original.mlt_type">chain</property>
  <property name="kdenlive:original.in">0</property>
  <property name="kdenlive:original.out">00:00:02.483</property>
  <property name="kdenlive:original.length">150</property>
  <property name="kdenlive:original.eof">pause</property>
  <property name="kdenlive:original.resource">video/Farmer/42.mp4</property>
  <property name="kdenlive:original.mlt_service">avformat-novalidate</property>
  <property name="kdenlive:original.meta.media.nb_streams">1</property>
  <property name="kdenlive:original.meta.media.0.stream.type">video</property>
  <property name="kdenlive:original.meta.media.0.stream.frame_rate">60</property>
  <property name="kdenlive:original.meta.media.0.stream.sample_aspect_ratio">0</property>
  <property name="kdenlive:original.meta.media.0.codec.width">1920</property>
  <property name="kdenlive:original.meta.media.0.codec.height">1080</property>
  <property name="kdenlive:original.meta.media.0.codec.rotate">0</property>
  <property name="kdenlive:original.meta.media.0.codec.pix_fmt">yuv420p</property>
  <property name="kdenlive:original.meta.media.0.codec.sample_aspect_ratio">0</property>
  <property name="kdenlive:original.meta.media.0.codec.colorspace">709</property>
  <property name="kdenlive:original.meta.media.0.codec.name">h264</property>
  <property name="kdenlive:original.meta.media.0.codec.long_name">H.264 / AVC / MPEG-4 AVC / MPEG-4 part 10</property>
  <property name="kdenlive:original.meta.media.0.codec.bit_rate">645587</property>
  <property name="kdenlive:original.meta.attr.0.stream.handler_name.markup">VideoHandler</property>
  <property name="kdenlive:original.meta.attr.0.stream.vendor_id.markup">[0][0][0][0]</property>
  <property name="kdenlive:original.meta.attr.0.stream.encoder.markup">Lavc60.3.100 libx264</property>
  <property name="kdenlive:original.meta.attr.major_brand.markup">isom</property>
  <property name="kdenlive:original.meta.attr.minor_version.markup">512</property>
  <property name="kdenlive:original.meta.attr.compatible_brands.markup">isomiso2avc1mp41</property>
  <property name="kdenlive:original.meta.attr.encoder.markup">Lavf60.3.100</property>
  <property name="kdenlive:original.meta.attr.comment.markup">Rendered with Manim Community v0.17.3</property>
  <property name="kdenlive:original.seekable">1</property>
  <property name="kdenlive:original.width">1920</property>
  <property name="kdenlive:original.height">1080</property>
  <property name="kdenlive:original.meta.media.sample_aspect_num">1</property>
  <property name="kdenlive:original.meta.media.sample_aspect_den">1</property>
  <property name="kdenlive:original.format">3</property>
  <property name="kdenlive:original.audio_index">-1</property>
  <property name="kdenlive:original.video_index">0</property>
  <property name="kdenlive:original.meta.media.frame_rate_num">60</property>
  <property name="kdenlive:original.meta.media.frame_rate_den">1</property>
  <property name="kdenlive:original.meta.media.colorspace">709</property>
  <property name="kdenlive:original.meta.media.color_trc">2</property>
  <property name="kdenlive:original.meta.media.has_b_frames">2</property>
  <property name="kdenlive:original.meta.media.width">1920</property>
  <property name="kdenlive:original.meta.media.height">1080</property>
  <property name="kdenlive:original.meta.media.color_range">mpeg</property>
  <property name="kdenlive:original.meta.media.top_field_first">0</property>
  <property name="kdenlive:original.meta.media.progressive">1</property>
  <property name="kdenlive:original.kdenlive:clip_type">2</property>
  <property name="kdenlive:original.kdenlive:folderid">16</property>
  <property name="kdenlive:original.kdenlive:id">115</property>
  <property name="kdenlive:original.mute_on_pause">0</property>
  <property name="kdenlive:original.kdenlive:file_size">204466</property>
  <property name="kdenlive:original.kdenlive:file_hash">f798cc1112ec8ab2f54a8065e2389a92</property>
  <property name="kdenlive:original.backup">1</property>
  <property name="meta.media.nb_streams">1</property>
  <property name="meta.media.0.stream.type">video</property>
  <property name="meta.media.0.stream.frame_rate">60</property>
  <property name="meta.media.0.stream.sample_aspect_ratio">0</property>
  <property name="meta.media.0.codec.width">640</property>
  <property name="meta.media.0.codec.height">360</property>
  <property name="meta.media.0.codec.rotate">0</property>
  <property name="meta.media.0.codec.pix_fmt">yuvj420p</property>
  <property name="meta.media.0.codec.sample_aspect_ratio">0</property>
  <property name="meta.media.0.codec.colorspace">601</property>
  <property name="meta.media.0.codec.name">mjpeg</property>
  <property name="meta.media.0.codec.long_name">MJPEG (Motion JPEG)</property>
  <property name="meta.media.0.codec.bit_rate">0</property>
  <property name="meta.attr.0.stream.HANDLER_NAME.markup">VideoHandler</property>
  <property name="meta.attr.0.stream.VENDOR_ID.markup">[0][0][0][0]</property>
  <property name="meta.attr.0.stream.ENCODER.markup">Lavc60.3.100 mjpeg</property>
  <property name="meta.attr.0.stream.DURATION.markup">00:00:02.500000000</property>
  <property name="meta.attr.COMMENT.markup">Rendered with Manim Community v0.17.3</property>
  <property name="meta.attr.MAJOR_BRAND.markup">isom</property>
  <property name="meta.attr.MINOR_VERSION.markup">512</property>
  <property name="meta.attr.COMPATIBLE_BRANDS.markup">isomiso2avc1mp41</property>
  <property name="meta.attr.ENCODER.markup">Lavf60.3.100</property>
  <property name="meta.media.sample_aspect_num">1</property>
  <property name="meta.media.sample_aspect_den">1</property>
  <property name="meta.media.frame_rate_num">60</property>
  <property name="meta.media.frame_rate_den">1</property>
  <property name="meta.media.colorspace">601</property>
  <property name="meta.media.color_trc">2</property>
  <property name="meta.media.has_b_frames">0</property>
  <property name="meta.media.width">640</property>
  <property name="meta.media.height">360</property>
  <property name="meta.media.color_range">full</property>
  <property name="xml">was here</property>
  <property name="meta.media.top_field_first">0</property>
  <property name="meta.media.progressive">1</property>
  <property name="set.test_audio">1</property>
  <property name="set.test_image">0</property>
 </chain>
 <chain id="chain74" out="00:00:00.983">
  <property name="length">60</property>
  <property name="eof">pause</property>
  <property name="resource">/home/xiaoxiae/.cache/kdenlive/proxy/2d735119825472ed71a6b71d717d6651.mkv</property>
  <property name="mlt_service">avformat-novalidate</property>
  <property name="seekable">1</property>
  <property name="format">3</property>
  <property name="audio_index">-1</property>
  <property name="video_index">0</property>
  <property name="kdenlive:clipname">43.mp4</property>
  <property name="kdenlive:clip_type">2</property>
  <property name="kdenlive:folderid">16</property>
  <property name="kdenlive:id">116</property>
  <property name="mute_on_pause">0</property>
  <property name="kdenlive:file_size">86410</property>
  <property name="kdenlive:file_hash">2d735119825472ed71a6b71d717d6651</property>
  <property name="kdenlive:proxy">/home/xiaoxiae/.cache/kdenlive/proxy/2d735119825472ed71a6b71d717d6651.mkv</property>
  <property name="kdenlive:originalurl">video/Farmer/43.mp4</property>
  <property name="kdenlive:original.mlt_type">chain</property>
  <property name="kdenlive:original.in">0</property>
  <property name="kdenlive:original.out">00:00:00.983</property>
  <property name="kdenlive:original.length">60</property>
  <property name="kdenlive:original.eof">pause</property>
  <property name="kdenlive:original.resource">video/Farmer/43.mp4</property>
  <property name="kdenlive:original.mlt_service">avformat-novalidate</property>
  <property name="kdenlive:original.meta.media.nb_streams">1</property>
  <property name="kdenlive:original.meta.media.0.stream.type">video</property>
  <property name="kdenlive:original.meta.media.0.stream.frame_rate">60</property>
  <property name="kdenlive:original.meta.media.0.stream.sample_aspect_ratio">0</property>
  <property name="kdenlive:original.meta.media.0.codec.width">1920</property>
  <property name="kdenlive:original.meta.media.0.codec.height">1080</property>
  <property name="kdenlive:original.meta.media.0.codec.rotate">0</property>
  <property name="kdenlive:original.meta.media.0.codec.pix_fmt">yuv420p</property>
  <property name="kdenlive:original.meta.media.0.codec.sample_aspect_ratio">0</property>
  <property name="kdenlive:original.meta.media.0.codec.colorspace">709</property>
  <property name="kdenlive:original.meta.media.0.codec.name">h264</property>
  <property name="kdenlive:original.meta.media.0.codec.long_name">H.264 / AVC / MPEG-4 AVC / MPEG-4 part 10</property>
  <property name="kdenlive:original.meta.media.0.codec.bit_rate">678352</property>
  <property name="kdenlive:original.meta.attr.0.stream.handler_name.markup">VideoHandler</property>
  <property name="kdenlive:original.meta.attr.0.stream.vendor_id.markup">[0][0][0][0]</property>
  <property name="kdenlive:original.meta.attr.0.stream.encoder.markup">Lavc60.3.100 libx264</property>
  <property name="kdenlive:original.meta.attr.major_brand.markup">isom</property>
  <property name="kdenlive:original.meta.attr.minor_version.markup">512</property>
  <property name="kdenlive:original.meta.attr.compatible_brands.markup">isomiso2avc1mp41</property>
  <property name="kdenlive:original.meta.attr.encoder.markup">Lavf60.3.100</property>
  <property name="kdenlive:original.meta.attr.comment.markup">Rendered with Manim Community v0.17.3</property>
  <property name="kdenlive:original.seekable">1</property>
  <property name="kdenlive:original.width">1920</property>
  <property name="kdenlive:original.height">1080</property>
  <property name="kdenlive:original.meta.media.sample_aspect_num">1</property>
  <property name="kdenlive:original.meta.media.sample_aspect_den">1</property>
  <property name="kdenlive:original.format">3</property>
  <property name="kdenlive:original.audio_index">-1</property>
  <property name="kdenlive:original.video_index">0</property>
  <property name="kdenlive:original.meta.media.frame_rate_num">60</property>
  <property name="kdenlive:original.meta.media.frame_rate_den">1</property>
  <property name="kdenlive:original.meta.media.colorspace">709</property>
  <property name="kdenlive:original.meta.media.color_trc">2</property>
  <property name="kdenlive:original.meta.media.has_b_frames">2</property>
  <property name="kdenlive:original.meta.media.width">1920</property>
  <property name="kdenlive:original.meta.media.height">1080</property>
  <property name="kdenlive:original.meta.media.color_range">mpeg</property>
  <property name="kdenlive:original.meta.media.top_field_first">0</property>
  <property name="kdenlive:original.meta.media.progressive">1</property>
  <property name="kdenlive:original.kdenlive:clip_type">2</property>
  <property name="kdenlive:original.kdenlive:folderid">16</property>
  <property name="kdenlive:original.kdenlive:id">116</property>
  <property name="kdenlive:original.mute_on_pause">0</property>
  <property name="kdenlive:original.kdenlive:file_size">86410</property>
  <property name="kdenlive:original.kdenlive:file_hash">2d735119825472ed71a6b71d717d6651</property>
  <property name="kdenlive:original.backup">1</property>
  <property name="meta.media.nb_streams">1</property>
  <property name="meta.media.0.stream.type">video</property>
  <property name="meta.media.0.stream.frame_rate">60</property>
  <property name="meta.media.0.stream.sample_aspect_ratio">0</property>
  <property name="meta.media.0.codec.width">640</property>
  <property name="meta.media.0.codec.height">360</property>
  <property name="meta.media.0.codec.rotate">0</property>
  <property name="meta.media.0.codec.pix_fmt">yuvj420p</property>
  <property name="meta.media.0.codec.sample_aspect_ratio">0</property>
  <property name="meta.media.0.codec.colorspace">601</property>
  <property name="meta.media.0.codec.name">mjpeg</property>
  <property name="meta.media.0.codec.long_name">MJPEG (Motion JPEG)</property>
  <property name="meta.media.0.codec.bit_rate">0</property>
  <property name="meta.attr.0.stream.HANDLER_NAME.markup">VideoHandler</property>
  <property name="meta.attr.0.stream.VENDOR_ID.markup">[0][0][0][0]</property>
  <property name="meta.attr.0.stream.ENCODER.markup">Lavc60.3.100 mjpeg</property>
  <property name="meta.attr.0.stream.DURATION.markup">00:00:01.000000000</property>
  <property name="meta.attr.COMMENT.markup">Rendered with Manim Community v0.17.3</property>
  <property name="meta.attr.MAJOR_BRAND.markup">isom</property>
  <property name="meta.attr.MINOR_VERSION.markup">512</property>
  <property name="meta.attr.COMPATIBLE_BRANDS.markup">isomiso2avc1mp41</property>
  <property name="meta.attr.ENCODER.markup">Lavf60.3.100</property>
  <property name="meta.media.sample_aspect_num">1</property>
  <property name="meta.media.sample_aspect_den">1</property>
  <property name="meta.media.frame_rate_num">60</property>
  <property name="meta.media.frame_rate_den">1</property>
  <property name="meta.media.colorspace">601</property>
  <property name="meta.media.color_trc">2</property>
  <property name="meta.media.has_b_frames">0</property>
  <property name="meta.media.width">640</property>
  <property name="meta.media.height">360</property>
  <property name="meta.media.color_range">full</property>
  <property name="xml">was here</property>
  <property name="meta.media.top_field_first">0</property>
  <property name="meta.media.progressive">1</property>
  <property name="set.test_audio">1</property>
  <property name="set.test_image">0</property>
 </chain>
 <chain id="chain75" out="00:00:02.983">
  <property name="length">180</property>
  <property name="eof">pause</property>
  <property name="resource">/home/xiaoxiae/.cache/kdenlive/proxy/912d6150576b358dc36e81bffc99f551.mkv</property>
  <property name="mlt_service">avformat-novalidate</property>
  <property name="seekable">1</property>
  <property name="format">3</property>
  <property name="audio_index">-1</property>
  <property name="video_index">0</property>
  <property name="kdenlive:clipname">44.mp4</property>
  <property name="kdenlive:clip_type">2</property>
  <property name="kdenlive:folderid">16</property>
  <property name="kdenlive:id">117</property>
  <property name="mute_on_pause">0</property>
  <property name="kdenlive:file_size">311564</property>
  <property name="kdenlive:file_hash">912d6150576b358dc36e81bffc99f551</property>
  <property name="kdenlive:proxy">/home/xiaoxiae/.cache/kdenlive/proxy/912d6150576b358dc36e81bffc99f551.mkv</property>
  <property name="kdenlive:originalurl">video/Farmer/44.mp4</property>
  <property name="kdenlive:original.mlt_type">chain</property>
  <property name="kdenlive:original.in">0</property>
  <property name="kdenlive:original.out">00:00:02.983</property>
  <property name="kdenlive:original.length">180</property>
  <property name="kdenlive:original.eof">pause</property>
  <property name="kdenlive:original.resource">video/Farmer/44.mp4</property>
  <property name="kdenlive:original.mlt_service">avformat-novalidate</property>
  <property name="kdenlive:original.meta.media.nb_streams">1</property>
  <property name="kdenlive:original.meta.media.0.stream.type">video</property>
  <property name="kdenlive:original.meta.media.0.stream.frame_rate">60</property>
  <property name="kdenlive:original.meta.media.0.stream.sample_aspect_ratio">0</property>
  <property name="kdenlive:original.meta.media.0.codec.width">1920</property>
  <property name="kdenlive:original.meta.media.0.codec.height">1080</property>
  <property name="kdenlive:original.meta.media.0.codec.rotate">0</property>
  <property name="kdenlive:original.meta.media.0.codec.pix_fmt">yuv420p</property>
  <property name="kdenlive:original.meta.media.0.codec.sample_aspect_ratio">0</property>
  <property name="kdenlive:original.meta.media.0.codec.colorspace">709</property>
  <property name="kdenlive:original.meta.media.0.codec.name">h264</property>
  <property name="kdenlive:original.meta.media.0.codec.long_name">H.264 / AVC / MPEG-4 AVC / MPEG-4 part 10</property>
  <property name="kdenlive:original.meta.media.0.codec.bit_rate">822794</property>
  <property name="kdenlive:original.meta.attr.0.stream.handler_name.markup">VideoHandler</property>
  <property name="kdenlive:original.meta.attr.0.stream.vendor_id.markup">[0][0][0][0]</property>
  <property name="kdenlive:original.meta.attr.0.stream.encoder.markup">Lavc60.3.100 libx264</property>
  <property name="kdenlive:original.meta.attr.major_brand.markup">isom</property>
  <property name="kdenlive:original.meta.attr.minor_version.markup">512</property>
  <property name="kdenlive:original.meta.attr.compatible_brands.markup">isomiso2avc1mp41</property>
  <property name="kdenlive:original.meta.attr.encoder.markup">Lavf60.3.100</property>
  <property name="kdenlive:original.meta.attr.comment.markup">Rendered with Manim Community v0.17.3</property>
  <property name="kdenlive:original.seekable">1</property>
  <property name="kdenlive:original.width">1920</property>
  <property name="kdenlive:original.height">1080</property>
  <property name="kdenlive:original.meta.media.sample_aspect_num">1</property>
  <property name="kdenlive:original.meta.media.sample_aspect_den">1</property>
  <property name="kdenlive:original.format">3</property>
  <property name="kdenlive:original.audio_index">-1</property>
  <property name="kdenlive:original.video_index">0</property>
  <property name="kdenlive:original.meta.media.frame_rate_num">60</property>
  <property name="kdenlive:original.meta.media.frame_rate_den">1</property>
  <property name="kdenlive:original.meta.media.colorspace">709</property>
  <property name="kdenlive:original.meta.media.color_trc">2</property>
  <property name="kdenlive:original.meta.media.has_b_frames">2</property>
  <property name="kdenlive:original.meta.media.width">1920</property>
  <property name="kdenlive:original.meta.media.height">1080</property>
  <property name="kdenlive:original.meta.media.color_range">mpeg</property>
  <property name="kdenlive:original.meta.media.top_field_first">0</property>
  <property name="kdenlive:original.meta.media.progressive">1</property>
  <property name="kdenlive:original.kdenlive:clip_type">2</property>
  <property name="kdenlive:original.kdenlive:folderid">16</property>
  <property name="kdenlive:original.kdenlive:id">117</property>
  <property name="kdenlive:original.mute_on_pause">0</property>
  <property name="kdenlive:original.kdenlive:file_size">311564</property>
  <property name="kdenlive:original.kdenlive:file_hash">912d6150576b358dc36e81bffc99f551</property>
  <property name="kdenlive:original.backup">1</property>
  <property name="meta.media.nb_streams">1</property>
  <property name="meta.media.0.stream.type">video</property>
  <property name="meta.media.0.stream.frame_rate">60</property>
  <property name="meta.media.0.stream.sample_aspect_ratio">0</property>
  <property name="meta.media.0.codec.width">640</property>
  <property name="meta.media.0.codec.height">360</property>
  <property name="meta.media.0.codec.rotate">0</property>
  <property name="meta.media.0.codec.pix_fmt">yuvj420p</property>
  <property name="meta.media.0.codec.sample_aspect_ratio">0</property>
  <property name="meta.media.0.codec.colorspace">601</property>
  <property name="meta.media.0.codec.name">mjpeg</property>
  <property name="meta.media.0.codec.long_name">MJPEG (Motion JPEG)</property>
  <property name="meta.media.0.codec.bit_rate">0</property>
  <property name="meta.attr.0.stream.HANDLER_NAME.markup">VideoHandler</property>
  <property name="meta.attr.0.stream.VENDOR_ID.markup">[0][0][0][0]</property>
  <property name="meta.attr.0.stream.ENCODER.markup">Lavc60.3.100 mjpeg</property>
  <property name="meta.attr.0.stream.DURATION.markup">00:00:03.000000000</property>
  <property name="meta.attr.COMMENT.markup">Rendered with Manim Community v0.17.3</property>
  <property name="meta.attr.MAJOR_BRAND.markup">isom</property>
  <property name="meta.attr.MINOR_VERSION.markup">512</property>
  <property name="meta.attr.COMPATIBLE_BRANDS.markup">isomiso2avc1mp41</property>
  <property name="meta.attr.ENCODER.markup">Lavf60.3.100</property>
  <property name="meta.media.sample_aspect_num">1</property>
  <property name="meta.media.sample_aspect_den">1</property>
  <property name="meta.media.frame_rate_num">60</property>
  <property name="meta.media.frame_rate_den">1</property>
  <property name="meta.media.colorspace">601</property>
  <property name="meta.media.color_trc">2</property>
  <property name="meta.media.has_b_frames">0</property>
  <property name="meta.media.width">640</property>
  <property name="meta.media.height">360</property>
  <property name="meta.media.color_range">full</property>
  <property name="xml">was here</property>
  <property name="meta.media.top_field_first">0</property>
  <property name="meta.media.progressive">1</property>
  <property name="set.test_audio">1</property>
  <property name="set.test_image">0</property>
 </chain>
 <chain id="chain78" out="00:00:00.983">
  <property name="length">60</property>
  <property name="eof">pause</property>
  <property name="resource">/home/xiaoxiae/.cache/kdenlive/proxy/98b6b3d291b02dabf9fd1c5f3a5a688c.mkv</property>
  <property name="mlt_service">avformat-novalidate</property>
  <property name="seekable">1</property>
  <property name="format">3</property>
  <property name="audio_index">-1</property>
  <property name="video_index">0</property>
  <property name="kdenlive:clipname">45.mp4</property>
  <property name="kdenlive:clip_type">2</property>
  <property name="kdenlive:folderid">16</property>
  <property name="kdenlive:id">118</property>
  <property name="mute_on_pause">0</property>
  <property name="kdenlive:file_size">57412</property>
  <property name="kdenlive:file_hash">98b6b3d291b02dabf9fd1c5f3a5a688c</property>
  <property name="kdenlive:proxy">/home/xiaoxiae/.cache/kdenlive/proxy/98b6b3d291b02dabf9fd1c5f3a5a688c.mkv</property>
  <property name="kdenlive:originalurl">video/Farmer/45.mp4</property>
  <property name="kdenlive:original.mlt_type">chain</property>
  <property name="kdenlive:original.in">0</property>
  <property name="kdenlive:original.out">00:00:00.983</property>
  <property name="kdenlive:original.length">60</property>
  <property name="kdenlive:original.eof">pause</property>
  <property name="kdenlive:original.resource">video/Farmer/45.mp4</property>
  <property name="kdenlive:original.mlt_service">avformat-novalidate</property>
  <property name="kdenlive:original.meta.media.nb_streams">1</property>
  <property name="kdenlive:original.meta.media.0.stream.type">video</property>
  <property name="kdenlive:original.meta.media.0.stream.frame_rate">60</property>
  <property name="kdenlive:original.meta.media.0.stream.sample_aspect_ratio">0</property>
  <property name="kdenlive:original.meta.media.0.codec.width">1920</property>
  <property name="kdenlive:original.meta.media.0.codec.height">1080</property>
  <property name="kdenlive:original.meta.media.0.codec.rotate">0</property>
  <property name="kdenlive:original.meta.media.0.codec.pix_fmt">yuv420p</property>
  <property name="kdenlive:original.meta.media.0.codec.sample_aspect_ratio">0</property>
  <property name="kdenlive:original.meta.media.0.codec.colorspace">709</property>
  <property name="kdenlive:original.meta.media.0.codec.name">h264</property>
  <property name="kdenlive:original.meta.media.0.codec.long_name">H.264 / AVC / MPEG-4 AVC / MPEG-4 part 10</property>
  <property name="kdenlive:original.meta.media.0.codec.bit_rate">446240</property>
  <property name="kdenlive:original.meta.attr.0.stream.handler_name.markup">VideoHandler</property>
  <property name="kdenlive:original.meta.attr.0.stream.vendor_id.markup">[0][0][0][0]</property>
  <property name="kdenlive:original.meta.attr.0.stream.encoder.markup">Lavc60.3.100 libx264</property>
  <property name="kdenlive:original.meta.attr.major_brand.markup">isom</property>
  <property name="kdenlive:original.meta.attr.minor_version.markup">512</property>
  <property name="kdenlive:original.meta.attr.compatible_brands.markup">isomiso2avc1mp41</property>
  <property name="kdenlive:original.meta.attr.encoder.markup">Lavf60.3.100</property>
  <property name="kdenlive:original.meta.attr.comment.markup">Rendered with Manim Community v0.17.3</property>
  <property name="kdenlive:original.seekable">1</property>
  <property name="kdenlive:original.width">1920</property>
  <property name="kdenlive:original.height">1080</property>
  <property name="kdenlive:original.meta.media.sample_aspect_num">1</property>
  <property name="kdenlive:original.meta.media.sample_aspect_den">1</property>
  <property name="kdenlive:original.format">3</property>
  <property name="kdenlive:original.audio_index">-1</property>
  <property name="kdenlive:original.video_index">0</property>
  <property name="kdenlive:original.meta.media.frame_rate_num">60</property>
  <property name="kdenlive:original.meta.media.frame_rate_den">1</property>
  <property name="kdenlive:original.meta.media.colorspace">709</property>
  <property name="kdenlive:original.meta.media.color_trc">2</property>
  <property name="kdenlive:original.meta.media.has_b_frames">2</property>
  <property name="kdenlive:original.meta.media.width">1920</property>
  <property name="kdenlive:original.meta.media.height">1080</property>
  <property name="kdenlive:original.meta.media.color_range">mpeg</property>
  <property name="kdenlive:original.meta.media.top_field_first">0</property>
  <property name="kdenlive:original.meta.media.progressive">1</property>
  <property name="kdenlive:original.kdenlive:clip_type">2</property>
  <property name="kdenlive:original.kdenlive:folderid">16</property>
  <property name="kdenlive:original.kdenlive:id">118</property>
  <property name="kdenlive:original.mute_on_pause">0</property>
  <property name="kdenlive:original.kdenlive:file_size">57412</property>
  <property name="kdenlive:original.kdenlive:file_hash">98b6b3d291b02dabf9fd1c5f3a5a688c</property>
  <property name="kdenlive:original.backup">1</property>
  <property name="meta.media.nb_streams">1</property>
  <property name="meta.media.0.stream.type">video</property>
  <property name="meta.media.0.stream.frame_rate">60</property>
  <property name="meta.media.0.stream.sample_aspect_ratio">0</property>
  <property name="meta.media.0.codec.width">640</property>
  <property name="meta.media.0.codec.height">360</property>
  <property name="meta.media.0.codec.rotate">0</property>
  <property name="meta.media.0.codec.pix_fmt">yuvj420p</property>
  <property name="meta.media.0.codec.sample_aspect_ratio">0</property>
  <property name="meta.media.0.codec.colorspace">601</property>
  <property name="meta.media.0.codec.name">mjpeg</property>
  <property name="meta.media.0.codec.long_name">MJPEG (Motion JPEG)</property>
  <property name="meta.media.0.codec.bit_rate">0</property>
  <property name="meta.attr.0.stream.HANDLER_NAME.markup">VideoHandler</property>
  <property name="meta.attr.0.stream.VENDOR_ID.markup">[0][0][0][0]</property>
  <property name="meta.attr.0.stream.ENCODER.markup">Lavc60.3.100 mjpeg</property>
  <property name="meta.attr.0.stream.DURATION.markup">00:00:01.000000000</property>
  <property name="meta.attr.COMMENT.markup">Rendered with Manim Community v0.17.3</property>
  <property name="meta.attr.MAJOR_BRAND.markup">isom</property>
  <property name="meta.attr.MINOR_VERSION.markup">512</property>
  <property name="meta.attr.COMPATIBLE_BRANDS.markup">isomiso2avc1mp41</property>
  <property name="meta.attr.ENCODER.markup">Lavf60.3.100</property>
  <property name="meta.media.sample_aspect_num">1</property>
  <property name="meta.media.sample_aspect_den">1</property>
  <property name="meta.media.frame_rate_num">60</property>
  <property name="meta.media.frame_rate_den">1</property>
  <property name="meta.media.colorspace">601</property>
  <property name="meta.media.color_trc">2</property>
  <property name="meta.media.has_b_frames">0</property>
  <property name="meta.media.width">640</property>
  <property name="meta.media.height">360</property>
  <property name="meta.media.color_range">full</property>
  <property name="xml">was here</property>
  <property name="meta.media.top_field_first">0</property>
  <property name="meta.media.progressive">1</property>
  <property name="set.test_audio">1</property>
  <property name="set.test_image">0</property>
 </chain>
 <chain id="chain79" out="00:00:04.983">
  <property name="length">300</property>
  <property name="eof">pause</property>
  <property name="resource">/home/xiaoxiae/.cache/kdenlive/proxy/3d399b6d214ef4aee2c4d4e20b6a701e.mkv</property>
  <property name="mlt_service">avformat-novalidate</property>
  <property name="seekable">1</property>
  <property name="format">3</property>
  <property name="audio_index">-1</property>
  <property name="video_index">0</property>
  <property name="kdenlive:clipname">46.mp4</property>
  <property name="kdenlive:clip_type">2</property>
  <property name="kdenlive:folderid">16</property>
  <property name="kdenlive:id">119</property>
  <property name="mute_on_pause">0</property>
  <property name="kdenlive:file_size">842145</property>
  <property name="kdenlive:file_hash">3d399b6d214ef4aee2c4d4e20b6a701e</property>
  <property name="kdenlive:proxy">/home/xiaoxiae/.cache/kdenlive/proxy/3d399b6d214ef4aee2c4d4e20b6a701e.mkv</property>
  <property name="kdenlive:originalurl">video/Farmer/46.mp4</property>
  <property name="kdenlive:original.mlt_type">chain</property>
  <property name="kdenlive:original.in">0</property>
  <property name="kdenlive:original.out">00:00:04.983</property>
  <property name="kdenlive:original.length">300</property>
  <property name="kdenlive:original.eof">pause</property>
  <property name="kdenlive:original.resource">video/Farmer/46.mp4</property>
  <property name="kdenlive:original.mlt_service">avformat-novalidate</property>
  <property name="kdenlive:original.meta.media.nb_streams">1</property>
  <property name="kdenlive:original.meta.media.0.stream.type">video</property>
  <property name="kdenlive:original.meta.media.0.stream.frame_rate">60</property>
  <property name="kdenlive:original.meta.media.0.stream.sample_aspect_ratio">0</property>
  <property name="kdenlive:original.meta.media.0.codec.width">1920</property>
  <property name="kdenlive:original.meta.media.0.codec.height">1080</property>
  <property name="kdenlive:original.meta.media.0.codec.rotate">0</property>
  <property name="kdenlive:original.meta.media.0.codec.pix_fmt">yuv420p</property>
  <property name="kdenlive:original.meta.media.0.codec.sample_aspect_ratio">0</property>
  <property name="kdenlive:original.meta.media.0.codec.colorspace">709</property>
  <property name="kdenlive:original.meta.media.0.codec.name">h264</property>
  <property name="kdenlive:original.meta.media.0.codec.long_name">H.264 / AVC / MPEG-4 AVC / MPEG-4 part 10</property>
  <property name="kdenlive:original.meta.media.0.codec.bit_rate">1341179</property>
  <property name="kdenlive:original.meta.attr.0.stream.handler_name.markup">VideoHandler</property>
  <property name="kdenlive:original.meta.attr.0.stream.vendor_id.markup">[0][0][0][0]</property>
  <property name="kdenlive:original.meta.attr.0.stream.encoder.markup">Lavc60.3.100 libx264</property>
  <property name="kdenlive:original.meta.attr.major_brand.markup">isom</property>
  <property name="kdenlive:original.meta.attr.minor_version.markup">512</property>
  <property name="kdenlive:original.meta.attr.compatible_brands.markup">isomiso2avc1mp41</property>
  <property name="kdenlive:original.meta.attr.encoder.markup">Lavf60.3.100</property>
  <property name="kdenlive:original.meta.attr.comment.markup">Rendered with Manim Community v0.17.3</property>
  <property name="kdenlive:original.seekable">1</property>
  <property name="kdenlive:original.width">1920</property>
  <property name="kdenlive:original.height">1080</property>
  <property name="kdenlive:original.meta.media.sample_aspect_num">1</property>
  <property name="kdenlive:original.meta.media.sample_aspect_den">1</property>
  <property name="kdenlive:original.format">3</property>
  <property name="kdenlive:original.audio_index">-1</property>
  <property name="kdenlive:original.video_index">0</property>
  <property name="kdenlive:original.meta.media.frame_rate_num">60</property>
  <property name="kdenlive:original.meta.media.frame_rate_den">1</property>
  <property name="kdenlive:original.meta.media.colorspace">709</property>
  <property name="kdenlive:original.meta.media.color_trc">2</property>
  <property name="kdenlive:original.meta.media.has_b_frames">2</property>
  <property name="kdenlive:original.meta.media.width">1920</property>
  <property name="kdenlive:original.meta.media.height">1080</property>
  <property name="kdenlive:original.meta.media.color_range">mpeg</property>
  <property name="kdenlive:original.meta.media.top_field_first">0</property>
  <property name="kdenlive:original.meta.media.progressive">1</property>
  <property name="kdenlive:original.kdenlive:clip_type">2</property>
  <property name="kdenlive:original.kdenlive:folderid">16</property>
  <property name="kdenlive:original.kdenlive:id">119</property>
  <property name="kdenlive:original.mute_on_pause">0</property>
  <property name="kdenlive:original.kdenlive:file_size">842145</property>
  <property name="kdenlive:original.kdenlive:file_hash">3d399b6d214ef4aee2c4d4e20b6a701e</property>
  <property name="kdenlive:original.backup">1</property>
  <property name="meta.media.nb_streams">1</property>
  <property name="meta.media.0.stream.type">video</property>
  <property name="meta.media.0.stream.frame_rate">60</property>
  <property name="meta.media.0.stream.sample_aspect_ratio">0</property>
  <property name="meta.media.0.codec.width">640</property>
  <property name="meta.media.0.codec.height">360</property>
  <property name="meta.media.0.codec.rotate">0</property>
  <property name="meta.media.0.codec.pix_fmt">yuvj420p</property>
  <property name="meta.media.0.codec.sample_aspect_ratio">0</property>
  <property name="meta.media.0.codec.colorspace">601</property>
  <property name="meta.media.0.codec.name">mjpeg</property>
  <property name="meta.media.0.codec.long_name">MJPEG (Motion JPEG)</property>
  <property name="meta.media.0.codec.bit_rate">0</property>
  <property name="meta.attr.0.stream.HANDLER_NAME.markup">VideoHandler</property>
  <property name="meta.attr.0.stream.VENDOR_ID.markup">[0][0][0][0]</property>
  <property name="meta.attr.0.stream.ENCODER.markup">Lavc60.3.100 mjpeg</property>
  <property name="meta.attr.0.stream.DURATION.markup">00:00:05.000000000</property>
  <property name="meta.attr.COMMENT.markup">Rendered with Manim Community v0.17.3</property>
  <property name="meta.attr.MAJOR_BRAND.markup">isom</property>
  <property name="meta.attr.MINOR_VERSION.markup">512</property>
  <property name="meta.attr.COMPATIBLE_BRANDS.markup">isomiso2avc1mp41</property>
  <property name="meta.attr.ENCODER.markup">Lavf60.3.100</property>
  <property name="meta.media.sample_aspect_num">1</property>
  <property name="meta.media.sample_aspect_den">1</property>
  <property name="meta.media.frame_rate_num">60</property>
  <property name="meta.media.frame_rate_den">1</property>
  <property name="meta.media.colorspace">601</property>
  <property name="meta.media.color_trc">2</property>
  <property name="meta.media.has_b_frames">0</property>
  <property name="meta.media.width">640</property>
  <property name="meta.media.height">360</property>
  <property name="meta.media.color_range">full</property>
  <property name="xml">was here</property>
  <property name="meta.media.top_field_first">0</property>
  <property name="meta.media.progressive">1</property>
  <property name="set.test_audio">1</property>
  <property name="set.test_image">0</property>
 </chain>
 <chain id="chain80" out="00:00:00.983">
  <property name="length">60</property>
  <property name="eof">pause</property>
  <property name="resource">/home/xiaoxiae/.cache/kdenlive/proxy/e94a9c05b471b77fe33c793fced4ecd7.mkv</property>
  <property name="mlt_service">avformat-novalidate</property>
  <property name="seekable">1</property>
  <property name="format">3</property>
  <property name="audio_index">-1</property>
  <property name="video_index">0</property>
  <property name="kdenlive:clipname">47.mp4</property>
  <property name="kdenlive:clip_type">2</property>
  <property name="kdenlive:folderid">16</property>
  <property name="kdenlive:id">120</property>
  <property name="mute_on_pause">0</property>
  <property name="kdenlive:file_size">75484</property>
  <property name="kdenlive:file_hash">e94a9c05b471b77fe33c793fced4ecd7</property>
  <property name="kdenlive:proxy">/home/xiaoxiae/.cache/kdenlive/proxy/e94a9c05b471b77fe33c793fced4ecd7.mkv</property>
  <property name="kdenlive:originalurl">video/Farmer/47.mp4</property>
  <property name="kdenlive:original.mlt_type">chain</property>
  <property name="kdenlive:original.in">0</property>
  <property name="kdenlive:original.out">00:00:00.983</property>
  <property name="kdenlive:original.length">60</property>
  <property name="kdenlive:original.eof">pause</property>
  <property name="kdenlive:original.resource">video/Farmer/47.mp4</property>
  <property name="kdenlive:original.mlt_service">avformat-novalidate</property>
  <property name="kdenlive:original.meta.media.nb_streams">1</property>
  <property name="kdenlive:original.meta.media.0.stream.type">video</property>
  <property name="kdenlive:original.meta.media.0.stream.frame_rate">60</property>
  <property name="kdenlive:original.meta.media.0.stream.sample_aspect_ratio">0</property>
  <property name="kdenlive:original.meta.media.0.codec.width">1920</property>
  <property name="kdenlive:original.meta.media.0.codec.height">1080</property>
  <property name="kdenlive:original.meta.media.0.codec.rotate">0</property>
  <property name="kdenlive:original.meta.media.0.codec.pix_fmt">yuv420p</property>
  <property name="kdenlive:original.meta.media.0.codec.sample_aspect_ratio">0</property>
  <property name="kdenlive:original.meta.media.0.codec.colorspace">709</property>
  <property name="kdenlive:original.meta.media.0.codec.name">h264</property>
  <property name="kdenlive:original.meta.media.0.codec.long_name">H.264 / AVC / MPEG-4 AVC / MPEG-4 part 10</property>
  <property name="kdenlive:original.meta.media.0.codec.bit_rate">590816</property>
  <property name="kdenlive:original.meta.attr.0.stream.handler_name.markup">VideoHandler</property>
  <property name="kdenlive:original.meta.attr.0.stream.vendor_id.markup">[0][0][0][0]</property>
  <property name="kdenlive:original.meta.attr.0.stream.encoder.markup">Lavc60.3.100 libx264</property>
  <property name="kdenlive:original.meta.attr.major_brand.markup">isom</property>
  <property name="kdenlive:original.meta.attr.minor_version.markup">512</property>
  <property name="kdenlive:original.meta.attr.compatible_brands.markup">isomiso2avc1mp41</property>
  <property name="kdenlive:original.meta.attr.encoder.markup">Lavf60.3.100</property>
  <property name="kdenlive:original.meta.attr.comment.markup">Rendered with Manim Community v0.17.3</property>
  <property name="kdenlive:original.seekable">1</property>
  <property name="kdenlive:original.width">1920</property>
  <property name="kdenlive:original.height">1080</property>
  <property name="kdenlive:original.meta.media.sample_aspect_num">1</property>
  <property name="kdenlive:original.meta.media.sample_aspect_den">1</property>
  <property name="kdenlive:original.format">3</property>
  <property name="kdenlive:original.audio_index">-1</property>
  <property name="kdenlive:original.video_index">0</property>
  <property name="kdenlive:original.meta.media.frame_rate_num">60</property>
  <property name="kdenlive:original.meta.media.frame_rate_den">1</property>
  <property name="kdenlive:original.meta.media.colorspace">709</property>
  <property name="kdenlive:original.meta.media.color_trc">2</property>
  <property name="kdenlive:original.meta.media.has_b_frames">2</property>
  <property name="kdenlive:original.meta.media.width">1920</property>
  <property name="kdenlive:original.meta.media.height">1080</property>
  <property name="kdenlive:original.meta.media.color_range">mpeg</property>
  <property name="kdenlive:original.meta.media.top_field_first">0</property>
  <property name="kdenlive:original.meta.media.progressive">1</property>
  <property name="kdenlive:original.kdenlive:clip_type">2</property>
  <property name="kdenlive:original.kdenlive:folderid">16</property>
  <property name="kdenlive:original.kdenlive:id">120</property>
  <property name="kdenlive:original.mute_on_pause">0</property>
  <property name="kdenlive:original.kdenlive:file_size">75484</property>
  <property name="kdenlive:original.kdenlive:file_hash">e94a9c05b471b77fe33c793fced4ecd7</property>
  <property name="kdenlive:original.backup">1</property>
  <property name="meta.media.nb_streams">1</property>
  <property name="meta.media.0.stream.type">video</property>
  <property name="meta.media.0.stream.frame_rate">60</property>
  <property name="meta.media.0.stream.sample_aspect_ratio">0</property>
  <property name="meta.media.0.codec.width">640</property>
  <property name="meta.media.0.codec.height">360</property>
  <property name="meta.media.0.codec.rotate">0</property>
  <property name="meta.media.0.codec.pix_fmt">yuvj420p</property>
  <property name="meta.media.0.codec.sample_aspect_ratio">0</property>
  <property name="meta.media.0.codec.colorspace">601</property>
  <property name="meta.media.0.codec.name">mjpeg</property>
  <property name="meta.media.0.codec.long_name">MJPEG (Motion JPEG)</property>
  <property name="meta.media.0.codec.bit_rate">0</property>
  <property name="meta.attr.0.stream.HANDLER_NAME.markup">VideoHandler</property>
  <property name="meta.attr.0.stream.VENDOR_ID.markup">[0][0][0][0]</property>
  <property name="meta.attr.0.stream.ENCODER.markup">Lavc60.3.100 mjpeg</property>
  <property name="meta.attr.0.stream.DURATION.markup">00:00:01.000000000</property>
  <property name="meta.attr.COMMENT.markup">Rendered with Manim Community v0.17.3</property>
  <property name="meta.attr.MAJOR_BRAND.markup">isom</property>
  <property name="meta.attr.MINOR_VERSION.markup">512</property>
  <property name="meta.attr.COMPATIBLE_BRANDS.markup">isomiso2avc1mp41</property>
  <property name="meta.attr.ENCODER.markup">Lavf60.3.100</property>
  <property name="meta.media.sample_aspect_num">1</property>
  <property name="meta.media.sample_aspect_den">1</property>
  <property name="meta.media.frame_rate_num">60</property>
  <property name="meta.media.frame_rate_den">1</property>
  <property name="meta.media.colorspace">601</property>
  <property name="meta.media.color_trc">2</property>
  <property name="meta.media.has_b_frames">0</property>
  <property name="meta.media.width">640</property>
  <property name="meta.media.height">360</property>
  <property name="meta.media.color_range">full</property>
  <property name="xml">was here</property>
  <property name="meta.media.top_field_first">0</property>
  <property name="meta.media.progressive">1</property>
  <property name="set.test_audio">1</property>
  <property name="set.test_image">0</property>
 </chain>
 <chain id="chain81" out="00:00:00.983">
  <property name="length">60</property>
  <property name="eof">pause</property>
  <property name="resource">/home/xiaoxiae/.cache/kdenlive/proxy/16274ee06cc87acfe005a60edf71936b.mkv</property>
  <property name="mlt_service">avformat-novalidate</property>
  <property name="seekable">1</property>
  <property name="format">3</property>
  <property name="audio_index">-1</property>
  <property name="video_index">0</property>
  <property name="kdenlive:clipname">48.mp4</property>
  <property name="kdenlive:clip_type">2</property>
  <property name="kdenlive:folderid">16</property>
  <property name="kdenlive:id">121</property>
  <property name="mute_on_pause">0</property>
  <property name="kdenlive:file_size">57832</property>
  <property name="kdenlive:file_hash">16274ee06cc87acfe005a60edf71936b</property>
  <property name="kdenlive:proxy">/home/xiaoxiae/.cache/kdenlive/proxy/16274ee06cc87acfe005a60edf71936b.mkv</property>
  <property name="kdenlive:originalurl">video/Farmer/48.mp4</property>
  <property name="kdenlive:original.mlt_type">chain</property>
  <property name="kdenlive:original.in">0</property>
  <property name="kdenlive:original.out">00:00:00.983</property>
  <property name="kdenlive:original.length">60</property>
  <property name="kdenlive:original.eof">pause</property>
  <property name="kdenlive:original.resource">video/Farmer/48.mp4</property>
  <property name="kdenlive:original.mlt_service">avformat-novalidate</property>
  <property name="kdenlive:original.meta.media.nb_streams">1</property>
  <property name="kdenlive:original.meta.media.0.stream.type">video</property>
  <property name="kdenlive:original.meta.media.0.stream.frame_rate">60</property>
  <property name="kdenlive:original.meta.media.0.stream.sample_aspect_ratio">0</property>
  <property name="kdenlive:original.meta.media.0.codec.width">1920</property>
  <property name="kdenlive:original.meta.media.0.codec.height">1080</property>
  <property name="kdenlive:original.meta.media.0.codec.rotate">0</property>
  <property name="kdenlive:original.meta.media.0.codec.pix_fmt">yuv420p</property>
  <property name="kdenlive:original.meta.media.0.codec.sample_aspect_ratio">0</property>
  <property name="kdenlive:original.meta.media.0.codec.colorspace">709</property>
  <property name="kdenlive:original.meta.media.0.codec.name">h264</property>
  <property name="kdenlive:original.meta.media.0.codec.long_name">H.264 / AVC / MPEG-4 AVC / MPEG-4 part 10</property>
  <property name="kdenlive:original.meta.media.0.codec.bit_rate">449600</property>
  <property name="kdenlive:original.meta.attr.0.stream.handler_name.markup">VideoHandler</property>
  <property name="kdenlive:original.meta.attr.0.stream.vendor_id.markup">[0][0][0][0]</property>
  <property name="kdenlive:original.meta.attr.0.stream.encoder.markup">Lavc60.3.100 libx264</property>
  <property name="kdenlive:original.meta.attr.major_brand.markup">isom</property>
  <property name="kdenlive:original.meta.attr.minor_version.markup">512</property>
  <property name="kdenlive:original.meta.attr.compatible_brands.markup">isomiso2avc1mp41</property>
  <property name="kdenlive:original.meta.attr.encoder.markup">Lavf60.3.100</property>
  <property name="kdenlive:original.meta.attr.comment.markup">Rendered with Manim Community v0.17.3</property>
  <property name="kdenlive:original.seekable">1</property>
  <property name="kdenlive:original.width">1920</property>
  <property name="kdenlive:original.height">1080</property>
  <property name="kdenlive:original.meta.media.sample_aspect_num">1</property>
  <property name="kdenlive:original.meta.media.sample_aspect_den">1</property>
  <property name="kdenlive:original.format">3</property>
  <property name="kdenlive:original.audio_index">-1</property>
  <property name="kdenlive:original.video_index">0</property>
  <property name="kdenlive:original.meta.media.frame_rate_num">60</property>
  <property name="kdenlive:original.meta.media.frame_rate_den">1</property>
  <property name="kdenlive:original.meta.media.colorspace">709</property>
  <property name="kdenlive:original.meta.media.color_trc">2</property>
  <property name="kdenlive:original.meta.media.has_b_frames">2</property>
  <property name="kdenlive:original.meta.media.width">1920</property>
  <property name="kdenlive:original.meta.media.height">1080</property>
  <property name="kdenlive:original.meta.media.color_range">mpeg</property>
  <property name="kdenlive:original.meta.media.top_field_first">0</property>
  <property name="kdenlive:original.meta.media.progressive">1</property>
  <property name="kdenlive:original.kdenlive:clip_type">2</property>
  <property name="kdenlive:original.kdenlive:folderid">16</property>
  <property name="kdenlive:original.kdenlive:id">121</property>
  <property name="kdenlive:original.mute_on_pause">0</property>
  <property name="kdenlive:original.kdenlive:file_size">57832</property>
  <property name="kdenlive:original.kdenlive:file_hash">16274ee06cc87acfe005a60edf71936b</property>
  <property name="kdenlive:original.backup">1</property>
  <property name="meta.media.nb_streams">1</property>
  <property name="meta.media.0.stream.type">video</property>
  <property name="meta.media.0.stream.frame_rate">60</property>
  <property name="meta.media.0.stream.sample_aspect_ratio">0</property>
  <property name="meta.media.0.codec.width">640</property>
  <property name="meta.media.0.codec.height">360</property>
  <property name="meta.media.0.codec.rotate">0</property>
  <property name="meta.media.0.codec.pix_fmt">yuvj420p</property>
  <property name="meta.media.0.codec.sample_aspect_ratio">0</property>
  <property name="meta.media.0.codec.colorspace">601</property>
  <property name="meta.media.0.codec.name">mjpeg</property>
  <property name="meta.media.0.codec.long_name">MJPEG (Motion JPEG)</property>
  <property name="meta.media.0.codec.bit_rate">0</property>
  <property name="meta.attr.0.stream.HANDLER_NAME.markup">VideoHandler</property>
  <property name="meta.attr.0.stream.VENDOR_ID.markup">[0][0][0][0]</property>
  <property name="meta.attr.0.stream.ENCODER.markup">Lavc60.3.100 mjpeg</property>
  <property name="meta.attr.0.stream.DURATION.markup">00:00:01.000000000</property>
  <property name="meta.attr.COMMENT.markup">Rendered with Manim Community v0.17.3</property>
  <property name="meta.attr.MAJOR_BRAND.markup">isom</property>
  <property name="meta.attr.MINOR_VERSION.markup">512</property>
  <property name="meta.attr.COMPATIBLE_BRANDS.markup">isomiso2avc1mp41</property>
  <property name="meta.attr.ENCODER.markup">Lavf60.3.100</property>
  <property name="meta.media.sample_aspect_num">1</property>
  <property name="meta.media.sample_aspect_den">1</property>
  <property name="meta.media.frame_rate_num">60</property>
  <property name="meta.media.frame_rate_den">1</property>
  <property name="meta.media.colorspace">601</property>
  <property name="meta.media.color_trc">2</property>
  <property name="meta.media.has_b_frames">0</property>
  <property name="meta.media.width">640</property>
  <property name="meta.media.height">360</property>
  <property name="meta.media.color_range">full</property>
  <property name="xml">was here</property>
  <property name="meta.media.top_field_first">0</property>
  <property name="meta.media.progressive">1</property>
  <property name="set.test_audio">1</property>
  <property name="set.test_image">0</property>
 </chain>
 <chain id="chain82" out="00:00:01.983">
  <property name="length">120</property>
  <property name="eof">pause</property>
  <property name="resource">/home/xiaoxiae/.cache/kdenlive/proxy/7eed517f34963acb67a3fa7b37c03043.mkv</property>
  <property name="mlt_service">avformat-novalidate</property>
  <property name="seekable">1</property>
  <property name="format">3</property>
  <property name="audio_index">-1</property>
  <property name="video_index">0</property>
  <property name="kdenlive:clipname">49.mp4</property>
  <property name="kdenlive:clip_type">2</property>
  <property name="kdenlive:folderid">16</property>
  <property name="kdenlive:id">122</property>
  <property name="mute_on_pause">0</property>
  <property name="kdenlive:file_size">88870</property>
  <property name="kdenlive:file_hash">7eed517f34963acb67a3fa7b37c03043</property>
  <property name="kdenlive:proxy">/home/xiaoxiae/.cache/kdenlive/proxy/7eed517f34963acb67a3fa7b37c03043.mkv</property>
  <property name="kdenlive:originalurl">video/Farmer/49.mp4</property>
  <property name="kdenlive:original.mlt_type">chain</property>
  <property name="kdenlive:original.in">0</property>
  <property name="kdenlive:original.out">00:00:01.983</property>
  <property name="kdenlive:original.length">120</property>
  <property name="kdenlive:original.eof">pause</property>
  <property name="kdenlive:original.resource">video/Farmer/49.mp4</property>
  <property name="kdenlive:original.mlt_service">avformat-novalidate</property>
  <property name="kdenlive:original.meta.media.nb_streams">1</property>
  <property name="kdenlive:original.meta.media.0.stream.type">video</property>
  <property name="kdenlive:original.meta.media.0.stream.frame_rate">60</property>
  <property name="kdenlive:original.meta.media.0.stream.sample_aspect_ratio">0</property>
  <property name="kdenlive:original.meta.media.0.codec.width">1920</property>
  <property name="kdenlive:original.meta.media.0.codec.height">1080</property>
  <property name="kdenlive:original.meta.media.0.codec.rotate">0</property>
  <property name="kdenlive:original.meta.media.0.codec.pix_fmt">yuv420p</property>
  <property name="kdenlive:original.meta.media.0.codec.sample_aspect_ratio">0</property>
  <property name="kdenlive:original.meta.media.0.codec.colorspace">709</property>
  <property name="kdenlive:original.meta.media.0.codec.name">h264</property>
  <property name="kdenlive:original.meta.media.0.codec.long_name">H.264 / AVC / MPEG-4 AVC / MPEG-4 part 10</property>
  <property name="kdenlive:original.meta.media.0.codec.bit_rate">346200</property>
  <property name="kdenlive:original.meta.attr.0.stream.handler_name.markup">VideoHandler</property>
  <property name="kdenlive:original.meta.attr.0.stream.vendor_id.markup">[0][0][0][0]</property>
  <property name="kdenlive:original.meta.attr.0.stream.encoder.markup">Lavc60.3.100 libx264</property>
  <property name="kdenlive:original.meta.attr.major_brand.markup">isom</property>
  <property name="kdenlive:original.meta.attr.minor_version.markup">512</property>
  <property name="kdenlive:original.meta.attr.compatible_brands.markup">isomiso2avc1mp41</property>
  <property name="kdenlive:original.meta.attr.encoder.markup">Lavf60.3.100</property>
  <property name="kdenlive:original.meta.attr.comment.markup">Rendered with Manim Community v0.17.3</property>
  <property name="kdenlive:original.seekable">1</property>
  <property name="kdenlive:original.width">1920</property>
  <property name="kdenlive:original.height">1080</property>
  <property name="kdenlive:original.meta.media.sample_aspect_num">1</property>
  <property name="kdenlive:original.meta.media.sample_aspect_den">1</property>
  <property name="kdenlive:original.format">3</property>
  <property name="kdenlive:original.audio_index">-1</property>
  <property name="kdenlive:original.video_index">0</property>
  <property name="kdenlive:original.meta.media.frame_rate_num">60</property>
  <property name="kdenlive:original.meta.media.frame_rate_den">1</property>
  <property name="kdenlive:original.meta.media.colorspace">709</property>
  <property name="kdenlive:original.meta.media.color_trc">2</property>
  <property name="kdenlive:original.meta.media.has_b_frames">2</property>
  <property name="kdenlive:original.meta.media.width">1920</property>
  <property name="kdenlive:original.meta.media.height">1080</property>
  <property name="kdenlive:original.meta.media.color_range">mpeg</property>
  <property name="kdenlive:original.meta.media.top_field_first">0</property>
  <property name="kdenlive:original.meta.media.progressive">1</property>
  <property name="kdenlive:original.kdenlive:clip_type">2</property>
  <property name="kdenlive:original.kdenlive:folderid">16</property>
  <property name="kdenlive:original.kdenlive:id">122</property>
  <property name="kdenlive:original.mute_on_pause">0</property>
  <property name="kdenlive:original.kdenlive:file_size">88870</property>
  <property name="kdenlive:original.kdenlive:file_hash">7eed517f34963acb67a3fa7b37c03043</property>
  <property name="kdenlive:original.backup">1</property>
  <property name="meta.media.nb_streams">1</property>
  <property name="meta.media.0.stream.type">video</property>
  <property name="meta.media.0.stream.frame_rate">60</property>
  <property name="meta.media.0.stream.sample_aspect_ratio">0</property>
  <property name="meta.media.0.codec.width">640</property>
  <property name="meta.media.0.codec.height">360</property>
  <property name="meta.media.0.codec.rotate">0</property>
  <property name="meta.media.0.codec.pix_fmt">yuvj420p</property>
  <property name="meta.media.0.codec.sample_aspect_ratio">0</property>
  <property name="meta.media.0.codec.colorspace">601</property>
  <property name="meta.media.0.codec.name">mjpeg</property>
  <property name="meta.media.0.codec.long_name">MJPEG (Motion JPEG)</property>
  <property name="meta.media.0.codec.bit_rate">0</property>
  <property name="meta.attr.0.stream.HANDLER_NAME.markup">VideoHandler</property>
  <property name="meta.attr.0.stream.VENDOR_ID.markup">[0][0][0][0]</property>
  <property name="meta.attr.0.stream.ENCODER.markup">Lavc60.3.100 mjpeg</property>
  <property name="meta.attr.0.stream.DURATION.markup">00:00:02.000000000</property>
  <property name="meta.attr.COMMENT.markup">Rendered with Manim Community v0.17.3</property>
  <property name="meta.attr.MAJOR_BRAND.markup">isom</property>
  <property name="meta.attr.MINOR_VERSION.markup">512</property>
  <property name="meta.attr.COMPATIBLE_BRANDS.markup">isomiso2avc1mp41</property>
  <property name="meta.attr.ENCODER.markup">Lavf60.3.100</property>
  <property name="meta.media.sample_aspect_num">1</property>
  <property name="meta.media.sample_aspect_den">1</property>
  <property name="meta.media.frame_rate_num">60</property>
  <property name="meta.media.frame_rate_den">1</property>
  <property name="meta.media.colorspace">601</property>
  <property name="meta.media.color_trc">2</property>
  <property name="meta.media.has_b_frames">0</property>
  <property name="meta.media.width">640</property>
  <property name="meta.media.height">360</property>
  <property name="meta.media.color_range">full</property>
  <property name="xml">was here</property>
  <property name="meta.media.top_field_first">0</property>
  <property name="meta.media.progressive">1</property>
  <property name="set.test_audio">1</property>
  <property name="set.test_image">0</property>
 </chain>
 <chain id="chain133" out="00:00:01.483">
  <property name="length">90</property>
  <property name="eof">pause</property>
  <property name="resource">/home/xiaoxiae/.cache/kdenlive/proxy/21e706c35206326fd9610db2af1d64bc.mkv</property>
  <property name="mlt_service">avformat-novalidate</property>
  <property name="seekable">1</property>
  <property name="format">3</property>
  <property name="audio_index">-1</property>
  <property name="video_index">0</property>
  <property name="kdenlive:clipname">50.mp4</property>
  <property name="kdenlive:clip_type">2</property>
  <property name="kdenlive:folderid">16</property>
  <property name="kdenlive:id">124</property>
  <property name="mute_on_pause">0</property>
  <property name="kdenlive:file_size">170051</property>
  <property name="kdenlive:file_hash">21e706c35206326fd9610db2af1d64bc</property>
  <property name="kdenlive:proxy">/home/xiaoxiae/.cache/kdenlive/proxy/21e706c35206326fd9610db2af1d64bc.mkv</property>
  <property name="kdenlive:originalurl">video/Farmer/50.mp4</property>
  <property name="kdenlive:original.mlt_type">chain</property>
  <property name="kdenlive:original.in">0</property>
  <property name="kdenlive:original.out">00:00:01.483</property>
  <property name="kdenlive:original.length">90</property>
  <property name="kdenlive:original.eof">pause</property>
  <property name="kdenlive:original.resource">video/Farmer/50.mp4</property>
  <property name="kdenlive:original.mlt_service">avformat-novalidate</property>
  <property name="kdenlive:original.meta.media.nb_streams">1</property>
  <property name="kdenlive:original.meta.media.0.stream.type">video</property>
  <property name="kdenlive:original.meta.media.0.stream.frame_rate">60</property>
  <property name="kdenlive:original.meta.media.0.stream.sample_aspect_ratio">0</property>
  <property name="kdenlive:original.meta.media.0.codec.width">1920</property>
  <property name="kdenlive:original.meta.media.0.codec.height">1080</property>
  <property name="kdenlive:original.meta.media.0.codec.rotate">0</property>
  <property name="kdenlive:original.meta.media.0.codec.pix_fmt">yuv420p</property>
  <property name="kdenlive:original.meta.media.0.codec.sample_aspect_ratio">0</property>
  <property name="kdenlive:original.meta.media.0.codec.colorspace">709</property>
  <property name="kdenlive:original.meta.media.0.codec.name">h264</property>
  <property name="kdenlive:original.meta.media.0.codec.long_name">H.264 / AVC / MPEG-4 AVC / MPEG-4 part 10</property>
  <property name="kdenlive:original.meta.media.0.codec.bit_rate">896570</property>
  <property name="kdenlive:original.meta.attr.0.stream.handler_name.markup">VideoHandler</property>
  <property name="kdenlive:original.meta.attr.0.stream.vendor_id.markup">[0][0][0][0]</property>
  <property name="kdenlive:original.meta.attr.0.stream.encoder.markup">Lavc60.3.100 libx264</property>
  <property name="kdenlive:original.meta.attr.major_brand.markup">isom</property>
  <property name="kdenlive:original.meta.attr.minor_version.markup">512</property>
  <property name="kdenlive:original.meta.attr.compatible_brands.markup">isomiso2avc1mp41</property>
  <property name="kdenlive:original.meta.attr.encoder.markup">Lavf60.3.100</property>
  <property name="kdenlive:original.meta.attr.comment.markup">Rendered with Manim Community v0.17.3</property>
  <property name="kdenlive:original.seekable">1</property>
  <property name="kdenlive:original.width">1920</property>
  <property name="kdenlive:original.height">1080</property>
  <property name="kdenlive:original.meta.media.sample_aspect_num">1</property>
  <property name="kdenlive:original.meta.media.sample_aspect_den">1</property>
  <property name="kdenlive:original.format">3</property>
  <property name="kdenlive:original.audio_index">-1</property>
  <property name="kdenlive:original.video_index">0</property>
  <property name="kdenlive:original.meta.media.frame_rate_num">60</property>
  <property name="kdenlive:original.meta.media.frame_rate_den">1</property>
  <property name="kdenlive:original.meta.media.colorspace">709</property>
  <property name="kdenlive:original.meta.media.color_trc">2</property>
  <property name="kdenlive:original.meta.media.has_b_frames">2</property>
  <property name="kdenlive:original.meta.media.width">1920</property>
  <property name="kdenlive:original.meta.media.height">1080</property>
  <property name="kdenlive:original.meta.media.color_range">mpeg</property>
  <property name="kdenlive:original.meta.media.top_field_first">0</property>
  <property name="kdenlive:original.meta.media.progressive">1</property>
  <property name="kdenlive:original.kdenlive:clip_type">2</property>
  <property name="kdenlive:original.kdenlive:folderid">16</property>
  <property name="kdenlive:original.kdenlive:id">124</property>
  <property name="kdenlive:original.mute_on_pause">0</property>
  <property name="kdenlive:original.kdenlive:file_size">170051</property>
  <property name="kdenlive:original.kdenlive:file_hash">21e706c35206326fd9610db2af1d64bc</property>
  <property name="kdenlive:original.backup">1</property>
  <property name="meta.media.nb_streams">1</property>
  <property name="meta.media.0.stream.type">video</property>
  <property name="meta.media.0.stream.frame_rate">60</property>
  <property name="meta.media.0.stream.sample_aspect_ratio">0</property>
  <property name="meta.media.0.codec.width">640</property>
  <property name="meta.media.0.codec.height">360</property>
  <property name="meta.media.0.codec.rotate">0</property>
  <property name="meta.media.0.codec.pix_fmt">yuvj420p</property>
  <property name="meta.media.0.codec.sample_aspect_ratio">0</property>
  <property name="meta.media.0.codec.colorspace">601</property>
  <property name="meta.media.0.codec.name">mjpeg</property>
  <property name="meta.media.0.codec.long_name">MJPEG (Motion JPEG)</property>
  <property name="meta.media.0.codec.bit_rate">0</property>
  <property name="meta.attr.0.stream.HANDLER_NAME.markup">VideoHandler</property>
  <property name="meta.attr.0.stream.VENDOR_ID.markup">[0][0][0][0]</property>
  <property name="meta.attr.0.stream.ENCODER.markup">Lavc60.3.100 mjpeg</property>
  <property name="meta.attr.0.stream.DURATION.markup">00:00:01.500000000</property>
  <property name="meta.attr.COMMENT.markup">Rendered with Manim Community v0.17.3</property>
  <property name="meta.attr.MAJOR_BRAND.markup">isom</property>
  <property name="meta.attr.MINOR_VERSION.markup">512</property>
  <property name="meta.attr.COMPATIBLE_BRANDS.markup">isomiso2avc1mp41</property>
  <property name="meta.attr.ENCODER.markup">Lavf60.3.100</property>
  <property name="meta.media.sample_aspect_num">1</property>
  <property name="meta.media.sample_aspect_den">1</property>
  <property name="meta.media.frame_rate_num">60</property>
  <property name="meta.media.frame_rate_den">1</property>
  <property name="meta.media.colorspace">601</property>
  <property name="meta.media.color_trc">2</property>
  <property name="meta.media.has_b_frames">0</property>
  <property name="meta.media.width">640</property>
  <property name="meta.media.height">360</property>
  <property name="meta.media.color_range">full</property>
  <property name="xml">was here</property>
  <property name="meta.media.top_field_first">0</property>
  <property name="meta.media.progressive">1</property>
  <property name="set.test_audio">1</property>
  <property name="set.test_image">0</property>
 </chain>
 <chain id="chain558" out="00:00:01.483">
  <property name="length">90</property>
  <property name="eof">pause</property>
  <property name="resource">/home/xiaoxiae/.cache/kdenlive/proxy/e4b6a64201aaa05b68f51c12e195d5a2.mkv</property>
  <property name="mlt_service">avformat-novalidate</property>
  <property name="seekable">1</property>
  <property name="format">3</property>
  <property name="audio_index">-1</property>
  <property name="video_index">0</property>
  <property name="kdenlive:clipname">51.mp4</property>
  <property name="kdenlive:clip_type">2</property>
  <property name="kdenlive:folderid">16</property>
  <property name="kdenlive:id">125</property>
  <property name="mute_on_pause">0</property>
  <property name="kdenlive:file_size">206711</property>
  <property name="kdenlive:file_hash">e4b6a64201aaa05b68f51c12e195d5a2</property>
  <property name="kdenlive:proxy">/home/xiaoxiae/.cache/kdenlive/proxy/e4b6a64201aaa05b68f51c12e195d5a2.mkv</property>
  <property name="kdenlive:originalurl">video/Farmer/51.mp4</property>
  <property name="kdenlive:original.mlt_type">chain</property>
  <property name="kdenlive:original.in">0</property>
  <property name="kdenlive:original.out">00:00:01.483</property>
  <property name="kdenlive:original.length">90</property>
  <property name="kdenlive:original.eof">pause</property>
  <property name="kdenlive:original.resource">video/Farmer/51.mp4</property>
  <property name="kdenlive:original.mlt_service">avformat-novalidate</property>
  <property name="kdenlive:original.meta.media.nb_streams">1</property>
  <property name="kdenlive:original.meta.media.0.stream.type">video</property>
  <property name="kdenlive:original.meta.media.0.stream.frame_rate">60</property>
  <property name="kdenlive:original.meta.media.0.stream.sample_aspect_ratio">0</property>
  <property name="kdenlive:original.meta.media.0.codec.width">1920</property>
  <property name="kdenlive:original.meta.media.0.codec.height">1080</property>
  <property name="kdenlive:original.meta.media.0.codec.rotate">0</property>
  <property name="kdenlive:original.meta.media.0.codec.pix_fmt">yuv420p</property>
  <property name="kdenlive:original.meta.media.0.codec.sample_aspect_ratio">0</property>
  <property name="kdenlive:original.meta.media.0.codec.colorspace">709</property>
  <property name="kdenlive:original.meta.media.0.codec.name">h264</property>
  <property name="kdenlive:original.meta.media.0.codec.long_name">H.264 / AVC / MPEG-4 AVC / MPEG-4 part 10</property>
  <property name="kdenlive:original.meta.media.0.codec.bit_rate">1091962</property>
  <property name="kdenlive:original.meta.attr.0.stream.handler_name.markup">VideoHandler</property>
  <property name="kdenlive:original.meta.attr.0.stream.vendor_id.markup">[0][0][0][0]</property>
  <property name="kdenlive:original.meta.attr.0.stream.encoder.markup">Lavc60.3.100 libx264</property>
  <property name="kdenlive:original.meta.attr.major_brand.markup">isom</property>
  <property name="kdenlive:original.meta.attr.minor_version.markup">512</property>
  <property name="kdenlive:original.meta.attr.compatible_brands.markup">isomiso2avc1mp41</property>
  <property name="kdenlive:original.meta.attr.encoder.markup">Lavf60.3.100</property>
  <property name="kdenlive:original.meta.attr.comment.markup">Rendered with Manim Community v0.17.3</property>
  <property name="kdenlive:original.seekable">1</property>
  <property name="kdenlive:original.width">1920</property>
  <property name="kdenlive:original.height">1080</property>
  <property name="kdenlive:original.meta.media.sample_aspect_num">1</property>
  <property name="kdenlive:original.meta.media.sample_aspect_den">1</property>
  <property name="kdenlive:original.format">3</property>
  <property name="kdenlive:original.audio_index">-1</property>
  <property name="kdenlive:original.video_index">0</property>
  <property name="kdenlive:original.meta.media.frame_rate_num">60</property>
  <property name="kdenlive:original.meta.media.frame_rate_den">1</property>
  <property name="kdenlive:original.meta.media.colorspace">709</property>
  <property name="kdenlive:original.meta.media.color_trc">2</property>
  <property name="kdenlive:original.meta.media.has_b_frames">2</property>
  <property name="kdenlive:original.meta.media.width">1920</property>
  <property name="kdenlive:original.meta.media.height">1080</property>
  <property name="kdenlive:original.meta.media.color_range">mpeg</property>
  <property name="kdenlive:original.meta.media.top_field_first">0</property>
  <property name="kdenlive:original.meta.media.progressive">1</property>
  <property name="kdenlive:original.kdenlive:clip_type">2</property>
  <property name="kdenlive:original.kdenlive:folderid">16</property>
  <property name="kdenlive:original.kdenlive:id">125</property>
  <property name="kdenlive:original.mute_on_pause">0</property>
  <property name="kdenlive:original.kdenlive:file_size">206711</property>
  <property name="kdenlive:original.kdenlive:file_hash">e4b6a64201aaa05b68f51c12e195d5a2</property>
  <property name="kdenlive:original.backup">1</property>
  <property name="meta.media.nb_streams">1</property>
  <property name="meta.media.0.stream.type">video</property>
  <property name="meta.media.0.stream.frame_rate">60</property>
  <property name="meta.media.0.stream.sample_aspect_ratio">0</property>
  <property name="meta.media.0.codec.width">640</property>
  <property name="meta.media.0.codec.height">360</property>
  <property name="meta.media.0.codec.rotate">0</property>
  <property name="meta.media.0.codec.pix_fmt">yuvj420p</property>
  <property name="meta.media.0.codec.sample_aspect_ratio">0</property>
  <property name="meta.media.0.codec.colorspace">601</property>
  <property name="meta.media.0.codec.name">mjpeg</property>
  <property name="meta.media.0.codec.long_name">MJPEG (Motion JPEG)</property>
  <property name="meta.media.0.codec.bit_rate">0</property>
  <property name="meta.attr.0.stream.HANDLER_NAME.markup">VideoHandler</property>
  <property name="meta.attr.0.stream.VENDOR_ID.markup">[0][0][0][0]</property>
  <property name="meta.attr.0.stream.ENCODER.markup">Lavc60.3.100 mjpeg</property>
  <property name="meta.attr.0.stream.DURATION.markup">00:00:01.500000000</property>
  <property name="meta.attr.COMMENT.markup">Rendered with Manim Community v0.17.3</property>
  <property name="meta.attr.MAJOR_BRAND.markup">isom</property>
  <property name="meta.attr.MINOR_VERSION.markup">512</property>
  <property name="meta.attr.COMPATIBLE_BRANDS.markup">isomiso2avc1mp41</property>
  <property name="meta.attr.ENCODER.markup">Lavf60.3.100</property>
  <property name="meta.media.sample_aspect_num">1</property>
  <property name="meta.media.sample_aspect_den">1</property>
  <property name="meta.media.frame_rate_num">60</property>
  <property name="meta.media.frame_rate_den">1</property>
  <property name="meta.media.colorspace">601</property>
  <property name="meta.media.color_trc">2</property>
  <property name="meta.media.has_b_frames">0</property>
  <property name="meta.media.width">640</property>
  <property name="meta.media.height">360</property>
  <property name="meta.media.color_range">full</property>
  <property name="xml">was here</property>
  <property name="meta.media.top_field_first">0</property>
  <property name="meta.media.progressive">1</property>
  <property name="set.test_audio">1</property>
  <property name="set.test_image">0</property>
 </chain>
 <chain id="chain559" out="00:00:00.983">
  <property name="length">60</property>
  <property name="eof">pause</property>
  <property name="resource">/home/xiaoxiae/.cache/kdenlive/proxy/6196250ab9312a91f4eea7d372cc93c2.mkv</property>
  <property name="mlt_service">avformat-novalidate</property>
  <property name="seekable">1</property>
  <property name="format">3</property>
  <property name="audio_index">-1</property>
  <property name="video_index">0</property>
  <property name="kdenlive:clipname">52.mp4</property>
  <property name="kdenlive:clip_type">2</property>
  <property name="kdenlive:folderid">16</property>
  <property name="kdenlive:id">126</property>
  <property name="mute_on_pause">0</property>
  <property name="kdenlive:file_size">62552</property>
  <property name="kdenlive:file_hash">6196250ab9312a91f4eea7d372cc93c2</property>
  <property name="kdenlive:proxy">/home/xiaoxiae/.cache/kdenlive/proxy/6196250ab9312a91f4eea7d372cc93c2.mkv</property>
  <property name="kdenlive:originalurl">video/Farmer/52.mp4</property>
  <property name="kdenlive:original.mlt_type">chain</property>
  <property name="kdenlive:original.in">0</property>
  <property name="kdenlive:original.out">00:00:00.983</property>
  <property name="kdenlive:original.length">60</property>
  <property name="kdenlive:original.eof">pause</property>
  <property name="kdenlive:original.resource">video/Farmer/52.mp4</property>
  <property name="kdenlive:original.mlt_service">avformat-novalidate</property>
  <property name="kdenlive:original.meta.media.nb_streams">1</property>
  <property name="kdenlive:original.meta.media.0.stream.type">video</property>
  <property name="kdenlive:original.meta.media.0.stream.frame_rate">60</property>
  <property name="kdenlive:original.meta.media.0.stream.sample_aspect_ratio">0</property>
  <property name="kdenlive:original.meta.media.0.codec.width">1920</property>
  <property name="kdenlive:original.meta.media.0.codec.height">1080</property>
  <property name="kdenlive:original.meta.media.0.codec.rotate">0</property>
  <property name="kdenlive:original.meta.media.0.codec.pix_fmt">yuv420p</property>
  <property name="kdenlive:original.meta.media.0.codec.sample_aspect_ratio">0</property>
  <property name="kdenlive:original.meta.media.0.codec.colorspace">709</property>
  <property name="kdenlive:original.meta.media.0.codec.name">h264</property>
  <property name="kdenlive:original.meta.media.0.codec.long_name">H.264 / AVC / MPEG-4 AVC / MPEG-4 part 10</property>
  <property name="kdenlive:original.meta.media.0.codec.bit_rate">487360</property>
  <property name="kdenlive:original.meta.attr.0.stream.handler_name.markup">VideoHandler</property>
  <property name="kdenlive:original.meta.attr.0.stream.vendor_id.markup">[0][0][0][0]</property>
  <property name="kdenlive:original.meta.attr.0.stream.encoder.markup">Lavc60.3.100 libx264</property>
  <property name="kdenlive:original.meta.attr.major_brand.markup">isom</property>
  <property name="kdenlive:original.meta.attr.minor_version.markup">512</property>
  <property name="kdenlive:original.meta.attr.compatible_brands.markup">isomiso2avc1mp41</property>
  <property name="kdenlive:original.meta.attr.encoder.markup">Lavf60.3.100</property>
  <property name="kdenlive:original.meta.attr.comment.markup">Rendered with Manim Community v0.17.3</property>
  <property name="kdenlive:original.seekable">1</property>
  <property name="kdenlive:original.width">1920</property>
  <property name="kdenlive:original.height">1080</property>
  <property name="kdenlive:original.meta.media.sample_aspect_num">1</property>
  <property name="kdenlive:original.meta.media.sample_aspect_den">1</property>
  <property name="kdenlive:original.format">3</property>
  <property name="kdenlive:original.audio_index">-1</property>
  <property name="kdenlive:original.video_index">0</property>
  <property name="kdenlive:original.meta.media.frame_rate_num">60</property>
  <property name="kdenlive:original.meta.media.frame_rate_den">1</property>
  <property name="kdenlive:original.meta.media.colorspace">709</property>
  <property name="kdenlive:original.meta.media.color_trc">2</property>
  <property name="kdenlive:original.meta.media.has_b_frames">2</property>
  <property name="kdenlive:original.meta.media.width">1920</property>
  <property name="kdenlive:original.meta.media.height">1080</property>
  <property name="kdenlive:original.meta.media.color_range">mpeg</property>
  <property name="kdenlive:original.meta.media.top_field_first">0</property>
  <property name="kdenlive:original.meta.media.progressive">1</property>
  <property name="kdenlive:original.kdenlive:clip_type">2</property>
  <property name="kdenlive:original.kdenlive:folderid">16</property>
  <property name="kdenlive:original.kdenlive:id">126</property>
  <property name="kdenlive:original.mute_on_pause">0</property>
  <property name="kdenlive:original.kdenlive:file_size">62552</property>
  <property name="kdenlive:original.kdenlive:file_hash">6196250ab9312a91f4eea7d372cc93c2</property>
  <property name="kdenlive:original.backup">1</property>
  <property name="meta.media.nb_streams">1</property>
  <property name="meta.media.0.stream.type">video</property>
  <property name="meta.media.0.stream.frame_rate">60</property>
  <property name="meta.media.0.stream.sample_aspect_ratio">0</property>
  <property name="meta.media.0.codec.width">640</property>
  <property name="meta.media.0.codec.height">360</property>
  <property name="meta.media.0.codec.rotate">0</property>
  <property name="meta.media.0.codec.pix_fmt">yuvj420p</property>
  <property name="meta.media.0.codec.sample_aspect_ratio">0</property>
  <property name="meta.media.0.codec.colorspace">601</property>
  <property name="meta.media.0.codec.name">mjpeg</property>
  <property name="meta.media.0.codec.long_name">MJPEG (Motion JPEG)</property>
  <property name="meta.media.0.codec.bit_rate">0</property>
  <property name="meta.attr.0.stream.HANDLER_NAME.markup">VideoHandler</property>
  <property name="meta.attr.0.stream.VENDOR_ID.markup">[0][0][0][0]</property>
  <property name="meta.attr.0.stream.ENCODER.markup">Lavc60.3.100 mjpeg</property>
  <property name="meta.attr.0.stream.DURATION.markup">00:00:01.000000000</property>
  <property name="meta.attr.COMMENT.markup">Rendered with Manim Community v0.17.3</property>
  <property name="meta.attr.MAJOR_BRAND.markup">isom</property>
  <property name="meta.attr.MINOR_VERSION.markup">512</property>
  <property name="meta.attr.COMPATIBLE_BRANDS.markup">isomiso2avc1mp41</property>
  <property name="meta.attr.ENCODER.markup">Lavf60.3.100</property>
  <property name="meta.media.sample_aspect_num">1</property>
  <property name="meta.media.sample_aspect_den">1</property>
  <property name="meta.media.frame_rate_num">60</property>
  <property name="meta.media.frame_rate_den">1</property>
  <property name="meta.media.colorspace">601</property>
  <property name="meta.media.color_trc">2</property>
  <property name="meta.media.has_b_frames">0</property>
  <property name="meta.media.width">640</property>
  <property name="meta.media.height">360</property>
  <property name="meta.media.color_range">full</property>
  <property name="xml">was here</property>
  <property name="meta.media.top_field_first">0</property>
  <property name="meta.media.progressive">1</property>
  <property name="set.test_audio">1</property>
  <property name="set.test_image">0</property>
 </chain>
 <chain id="chain560" out="00:00:00.983">
  <property name="length">60</property>
  <property name="eof">pause</property>
  <property name="resource">/home/xiaoxiae/.cache/kdenlive/proxy/35e434a6fdadd3411745218b63dc58f6.mkv</property>
  <property name="mlt_service">avformat-novalidate</property>
  <property name="seekable">1</property>
  <property name="format">3</property>
  <property name="audio_index">-1</property>
  <property name="video_index">0</property>
  <property name="kdenlive:clipname">53.mp4</property>
  <property name="kdenlive:clip_type">2</property>
  <property name="kdenlive:folderid">16</property>
  <property name="kdenlive:id">127</property>
  <property name="mute_on_pause">0</property>
  <property name="kdenlive:file_size">195661</property>
  <property name="kdenlive:file_hash">35e434a6fdadd3411745218b63dc58f6</property>
  <property name="kdenlive:proxy">/home/xiaoxiae/.cache/kdenlive/proxy/35e434a6fdadd3411745218b63dc58f6.mkv</property>
  <property name="kdenlive:originalurl">video/Farmer/53.mp4</property>
  <property name="kdenlive:original.mlt_type">chain</property>
  <property name="kdenlive:original.in">0</property>
  <property name="kdenlive:original.out">00:00:00.983</property>
  <property name="kdenlive:original.length">60</property>
  <property name="kdenlive:original.eof">pause</property>
  <property name="kdenlive:original.resource">video/Farmer/53.mp4</property>
  <property name="kdenlive:original.mlt_service">avformat-novalidate</property>
  <property name="kdenlive:original.meta.media.nb_streams">1</property>
  <property name="kdenlive:original.meta.media.0.stream.type">video</property>
  <property name="kdenlive:original.meta.media.0.stream.frame_rate">60</property>
  <property name="kdenlive:original.meta.media.0.stream.sample_aspect_ratio">0</property>
  <property name="kdenlive:original.meta.media.0.codec.width">1920</property>
  <property name="kdenlive:original.meta.media.0.codec.height">1080</property>
  <property name="kdenlive:original.meta.media.0.codec.rotate">0</property>
  <property name="kdenlive:original.meta.media.0.codec.pix_fmt">yuv420p</property>
  <property name="kdenlive:original.meta.media.0.codec.sample_aspect_ratio">0</property>
  <property name="kdenlive:original.meta.media.0.codec.colorspace">709</property>
  <property name="kdenlive:original.meta.media.0.codec.name">h264</property>
  <property name="kdenlive:original.meta.media.0.codec.long_name">H.264 / AVC / MPEG-4 AVC / MPEG-4 part 10</property>
  <property name="kdenlive:original.meta.media.0.codec.bit_rate">1553512</property>
  <property name="kdenlive:original.meta.attr.0.stream.handler_name.markup">VideoHandler</property>
  <property name="kdenlive:original.meta.attr.0.stream.vendor_id.markup">[0][0][0][0]</property>
  <property name="kdenlive:original.meta.attr.0.stream.encoder.markup">Lavc60.3.100 libx264</property>
  <property name="kdenlive:original.meta.attr.major_brand.markup">isom</property>
  <property name="kdenlive:original.meta.attr.minor_version.markup">512</property>
  <property name="kdenlive:original.meta.attr.compatible_brands.markup">isomiso2avc1mp41</property>
  <property name="kdenlive:original.meta.attr.encoder.markup">Lavf60.3.100</property>
  <property name="kdenlive:original.meta.attr.comment.markup">Rendered with Manim Community v0.17.3</property>
  <property name="kdenlive:original.seekable">1</property>
  <property name="kdenlive:original.width">1920</property>
  <property name="kdenlive:original.height">1080</property>
  <property name="kdenlive:original.meta.media.sample_aspect_num">1</property>
  <property name="kdenlive:original.meta.media.sample_aspect_den">1</property>
  <property name="kdenlive:original.format">3</property>
  <property name="kdenlive:original.audio_index">-1</property>
  <property name="kdenlive:original.video_index">0</property>
  <property name="kdenlive:original.meta.media.frame_rate_num">60</property>
  <property name="kdenlive:original.meta.media.frame_rate_den">1</property>
  <property name="kdenlive:original.meta.media.colorspace">709</property>
  <property name="kdenlive:original.meta.media.color_trc">2</property>
  <property name="kdenlive:original.meta.media.has_b_frames">2</property>
  <property name="kdenlive:original.meta.media.width">1920</property>
  <property name="kdenlive:original.meta.media.height">1080</property>
  <property name="kdenlive:original.meta.media.color_range">mpeg</property>
  <property name="kdenlive:original.meta.media.top_field_first">0</property>
  <property name="kdenlive:original.meta.media.progressive">1</property>
  <property name="kdenlive:original.kdenlive:clip_type">2</property>
  <property name="kdenlive:original.kdenlive:folderid">16</property>
  <property name="kdenlive:original.kdenlive:id">127</property>
  <property name="kdenlive:original.mute_on_pause">0</property>
  <property name="kdenlive:original.kdenlive:file_size">195661</property>
  <property name="kdenlive:original.kdenlive:file_hash">35e434a6fdadd3411745218b63dc58f6</property>
  <property name="kdenlive:original.backup">1</property>
  <property name="meta.media.nb_streams">1</property>
  <property name="meta.media.0.stream.type">video</property>
  <property name="meta.media.0.stream.frame_rate">60</property>
  <property name="meta.media.0.stream.sample_aspect_ratio">0</property>
  <property name="meta.media.0.codec.width">640</property>
  <property name="meta.media.0.codec.height">360</property>
  <property name="meta.media.0.codec.rotate">0</property>
  <property name="meta.media.0.codec.pix_fmt">yuvj420p</property>
  <property name="meta.media.0.codec.sample_aspect_ratio">0</property>
  <property name="meta.media.0.codec.colorspace">601</property>
  <property name="meta.media.0.codec.name">mjpeg</property>
  <property name="meta.media.0.codec.long_name">MJPEG (Motion JPEG)</property>
  <property name="meta.media.0.codec.bit_rate">0</property>
  <property name="meta.attr.0.stream.HANDLER_NAME.markup">VideoHandler</property>
  <property name="meta.attr.0.stream.VENDOR_ID.markup">[0][0][0][0]</property>
  <property name="meta.attr.0.stream.ENCODER.markup">Lavc60.3.100 mjpeg</property>
  <property name="meta.attr.0.stream.DURATION.markup">00:00:01.000000000</property>
  <property name="meta.attr.COMMENT.markup">Rendered with Manim Community v0.17.3</property>
  <property name="meta.attr.MAJOR_BRAND.markup">isom</property>
  <property name="meta.attr.MINOR_VERSION.markup">512</property>
  <property name="meta.attr.COMPATIBLE_BRANDS.markup">isomiso2avc1mp41</property>
  <property name="meta.attr.ENCODER.markup">Lavf60.3.100</property>
  <property name="meta.media.sample_aspect_num">1</property>
  <property name="meta.media.sample_aspect_den">1</property>
  <property name="meta.media.frame_rate_num">60</property>
  <property name="meta.media.frame_rate_den">1</property>
  <property name="meta.media.colorspace">601</property>
  <property name="meta.media.color_trc">2</property>
  <property name="meta.media.has_b_frames">0</property>
  <property name="meta.media.width">640</property>
  <property name="meta.media.height">360</property>
  <property name="meta.media.color_range">full</property>
  <property name="xml">was here</property>
  <property name="meta.media.top_field_first">0</property>
  <property name="meta.media.progressive">1</property>
  <property name="set.test_audio">1</property>
  <property name="set.test_image">0</property>
 </chain>
 <producer id="producer3" in="00:00:00.000" out="00:01:06.650">
  <property name="length">4000</property>
  <property name="eof">pause</property>
  <property name="resource">0.015000:/home/xiaoxiae/.cache/kdenlive/proxy/8ec3af5f23381636bfe7c264a433d865.mkv</property>
  <property name="aspect_ratio">1</property>
  <property name="meta.media.nb_streams">1</property>
  <property name="meta.media.0.stream.type">video</property>
  <property name="meta.media.0.stream.frame_rate">60</property>
  <property name="meta.media.0.stream.sample_aspect_ratio">0</property>
  <property name="meta.media.0.codec.width">640</property>
  <property name="meta.media.0.codec.height">360</property>
  <property name="meta.media.0.codec.rotate">0</property>
  <property name="meta.media.0.codec.pix_fmt">yuvj420p</property>
  <property name="meta.media.0.codec.sample_aspect_ratio">0</property>
  <property name="meta.media.0.codec.colorspace">601</property>
  <property name="meta.media.0.codec.name">mjpeg</property>
  <property name="meta.media.0.codec.long_name">MJPEG (Motion JPEG)</property>
  <property name="meta.media.0.codec.bit_rate">0</property>
  <property name="meta.attr.0.stream.HANDLER_NAME.markup">VideoHandler</property>
  <property name="meta.attr.0.stream.VENDOR_ID.markup">[0][0][0][0]</property>
  <property name="meta.attr.0.stream.ENCODER.markup">Lavc60.3.100 mjpeg</property>
  <property name="meta.attr.0.stream.DURATION.markup">00:00:01.000000000</property>
  <property name="meta.attr.COMMENT.markup">Rendered with Manim Community v0.17.3</property>
  <property name="meta.attr.MAJOR_BRAND.markup">isom</property>
  <property name="meta.attr.MINOR_VERSION.markup">512</property>
  <property name="meta.attr.COMPATIBLE_BRANDS.markup">isomiso2avc1mp41</property>
  <property name="meta.attr.ENCODER.markup">Lavf60.3.100</property>
  <property name="seekable">1</property>
  <property name="meta.media.sample_aspect_num">1</property>
  <property name="meta.media.sample_aspect_den">1</property>
  <property name="format">3</property>
  <property name="audio_index">-1</property>
  <property name="video_index">0</property>
  <property name="warp_speed">0.015</property>
  <property name="warp_resource">/home/xiaoxiae/.cache/kdenlive/proxy/8ec3af5f23381636bfe7c264a433d865.mkv</property>
  <property name="mlt_service">timewarp</property>
  <property name="kdenlive:proxy">/home/xiaoxiae/.cache/kdenlive/proxy/8ec3af5f23381636bfe7c264a433d865.mkv</property>
  <property name="kdenlive:originalurl">video/Farmer/54.mp4</property>
  <property name="set.test_audio">1</property>
  <property name="set.test_image">0</property>
  <property name="kdenlive:id">128</property>
  <property name="warp_pitch">0</property>
  <property name="meta.media.frame_rate_num">60</property>
  <property name="meta.media.frame_rate_den">1</property>
  <property name="meta.media.colorspace">601</property>
  <property name="meta.media.color_trc">2</property>
  <property name="meta.media.has_b_frames">0</property>
  <property name="meta.media.width">640</property>
  <property name="meta.media.height">360</property>
  <property name="meta.media.color_range">full</property>
 </producer>
 <chain id="chain561" out="00:00:00.983">
  <property name="length">60</property>
  <property name="eof">pause</property>
  <property name="resource">/home/xiaoxiae/.cache/kdenlive/proxy/8ec3af5f23381636bfe7c264a433d865.mkv</property>
  <property name="mlt_service">avformat-novalidate</property>
  <property name="seekable">1</property>
  <property name="format">3</property>
  <property name="audio_index">-1</property>
  <property name="video_index">0</property>
  <property name="kdenlive:clipname">54.mp4</property>
  <property name="kdenlive:clip_type">2</property>
  <property name="kdenlive:folderid">16</property>
  <property name="kdenlive:id">128</property>
  <property name="mute_on_pause">0</property>
  <property name="kdenlive:file_size">103714</property>
  <property name="kdenlive:file_hash">8ec3af5f23381636bfe7c264a433d865</property>
  <property name="kdenlive:proxy">/home/xiaoxiae/.cache/kdenlive/proxy/8ec3af5f23381636bfe7c264a433d865.mkv</property>
  <property name="kdenlive:originalurl">video/Farmer/54.mp4</property>
  <property name="kdenlive:original.mlt_type">chain</property>
  <property name="kdenlive:original.in">0</property>
  <property name="kdenlive:original.out">00:00:00.983</property>
  <property name="kdenlive:original.length">60</property>
  <property name="kdenlive:original.eof">pause</property>
  <property name="kdenlive:original.resource">video/Farmer/54.mp4</property>
  <property name="kdenlive:original.mlt_service">avformat-novalidate</property>
  <property name="kdenlive:original.meta.media.nb_streams">1</property>
  <property name="kdenlive:original.meta.media.0.stream.type">video</property>
  <property name="kdenlive:original.meta.media.0.stream.frame_rate">60</property>
  <property name="kdenlive:original.meta.media.0.stream.sample_aspect_ratio">0</property>
  <property name="kdenlive:original.meta.media.0.codec.width">1920</property>
  <property name="kdenlive:original.meta.media.0.codec.height">1080</property>
  <property name="kdenlive:original.meta.media.0.codec.rotate">0</property>
  <property name="kdenlive:original.meta.media.0.codec.pix_fmt">yuv420p</property>
  <property name="kdenlive:original.meta.media.0.codec.sample_aspect_ratio">0</property>
  <property name="kdenlive:original.meta.media.0.codec.colorspace">709</property>
  <property name="kdenlive:original.meta.media.0.codec.name">h264</property>
  <property name="kdenlive:original.meta.media.0.codec.long_name">H.264 / AVC / MPEG-4 AVC / MPEG-4 part 10</property>
  <property name="kdenlive:original.meta.media.0.codec.bit_rate">816592</property>
  <property name="kdenlive:original.meta.attr.0.stream.handler_name.markup">VideoHandler</property>
  <property name="kdenlive:original.meta.attr.0.stream.vendor_id.markup">[0][0][0][0]</property>
  <property name="kdenlive:original.meta.attr.0.stream.encoder.markup">Lavc60.3.100 libx264</property>
  <property name="kdenlive:original.meta.attr.major_brand.markup">isom</property>
  <property name="kdenlive:original.meta.attr.minor_version.markup">512</property>
  <property name="kdenlive:original.meta.attr.compatible_brands.markup">isomiso2avc1mp41</property>
  <property name="kdenlive:original.meta.attr.encoder.markup">Lavf60.3.100</property>
  <property name="kdenlive:original.meta.attr.comment.markup">Rendered with Manim Community v0.17.3</property>
  <property name="kdenlive:original.seekable">1</property>
  <property name="kdenlive:original.width">1920</property>
  <property name="kdenlive:original.height">1080</property>
  <property name="kdenlive:original.meta.media.sample_aspect_num">1</property>
  <property name="kdenlive:original.meta.media.sample_aspect_den">1</property>
  <property name="kdenlive:original.format">3</property>
  <property name="kdenlive:original.audio_index">-1</property>
  <property name="kdenlive:original.video_index">0</property>
  <property name="kdenlive:original.meta.media.frame_rate_num">60</property>
  <property name="kdenlive:original.meta.media.frame_rate_den">1</property>
  <property name="kdenlive:original.meta.media.colorspace">709</property>
  <property name="kdenlive:original.meta.media.color_trc">2</property>
  <property name="kdenlive:original.meta.media.has_b_frames">2</property>
  <property name="kdenlive:original.meta.media.width">1920</property>
  <property name="kdenlive:original.meta.media.height">1080</property>
  <property name="kdenlive:original.meta.media.color_range">mpeg</property>
  <property name="kdenlive:original.meta.media.top_field_first">0</property>
  <property name="kdenlive:original.meta.media.progressive">1</property>
  <property name="kdenlive:original.kdenlive:clip_type">2</property>
  <property name="kdenlive:original.kdenlive:folderid">16</property>
  <property name="kdenlive:original.kdenlive:id">128</property>
  <property name="kdenlive:original.mute_on_pause">0</property>
  <property name="kdenlive:original.kdenlive:file_size">103714</property>
  <property name="kdenlive:original.kdenlive:file_hash">8ec3af5f23381636bfe7c264a433d865</property>
  <property name="kdenlive:original.backup">1</property>
  <property name="meta.media.nb_streams">1</property>
  <property name="meta.media.0.stream.type">video</property>
  <property name="meta.media.0.stream.frame_rate">60</property>
  <property name="meta.media.0.stream.sample_aspect_ratio">0</property>
  <property name="meta.media.0.codec.width">640</property>
  <property name="meta.media.0.codec.height">360</property>
  <property name="meta.media.0.codec.rotate">0</property>
  <property name="meta.media.0.codec.pix_fmt">yuvj420p</property>
  <property name="meta.media.0.codec.sample_aspect_ratio">0</property>
  <property name="meta.media.0.codec.colorspace">601</property>
  <property name="meta.media.0.codec.name">mjpeg</property>
  <property name="meta.media.0.codec.long_name">MJPEG (Motion JPEG)</property>
  <property name="meta.media.0.codec.bit_rate">0</property>
  <property name="meta.attr.0.stream.HANDLER_NAME.markup">VideoHandler</property>
  <property name="meta.attr.0.stream.VENDOR_ID.markup">[0][0][0][0]</property>
  <property name="meta.attr.0.stream.ENCODER.markup">Lavc60.3.100 mjpeg</property>
  <property name="meta.attr.0.stream.DURATION.markup">00:00:01.000000000</property>
  <property name="meta.attr.COMMENT.markup">Rendered with Manim Community v0.17.3</property>
  <property name="meta.attr.MAJOR_BRAND.markup">isom</property>
  <property name="meta.attr.MINOR_VERSION.markup">512</property>
  <property name="meta.attr.COMPATIBLE_BRANDS.markup">isomiso2avc1mp41</property>
  <property name="meta.attr.ENCODER.markup">Lavf60.3.100</property>
  <property name="meta.media.sample_aspect_num">1</property>
  <property name="meta.media.sample_aspect_den">1</property>
  <property name="meta.media.frame_rate_num">60</property>
  <property name="meta.media.frame_rate_den">1</property>
  <property name="meta.media.colorspace">601</property>
  <property name="meta.media.color_trc">2</property>
  <property name="meta.media.has_b_frames">0</property>
  <property name="meta.media.width">640</property>
  <property name="meta.media.height">360</property>
  <property name="meta.media.color_range">full</property>
  <property name="xml">was here</property>
  <property name="meta.media.top_field_first">0</property>
  <property name="meta.media.progressive">1</property>
  <property name="set.test_audio">1</property>
  <property name="set.test_image">0</property>
 </chain>
 <chain id="chain562" out="00:00:00.983">
  <property name="length">60</property>
  <property name="eof">pause</property>
  <property name="resource">/home/xiaoxiae/.cache/kdenlive/proxy/489f747733047d2bf65958280efe5468.mkv</property>
  <property name="mlt_service">avformat-novalidate</property>
  <property name="seekable">1</property>
  <property name="format">3</property>
  <property name="audio_index">-1</property>
  <property name="video_index">0</property>
  <property name="kdenlive:clipname">55.mp4</property>
  <property name="kdenlive:clip_type">2</property>
  <property name="kdenlive:folderid">16</property>
  <property name="kdenlive:id">129</property>
  <property name="mute_on_pause">0</property>
  <property name="kdenlive:file_size">55053</property>
  <property name="kdenlive:file_hash">489f747733047d2bf65958280efe5468</property>
  <property name="kdenlive:proxy">/home/xiaoxiae/.cache/kdenlive/proxy/489f747733047d2bf65958280efe5468.mkv</property>
  <property name="kdenlive:originalurl">video/Farmer/55.mp4</property>
  <property name="kdenlive:original.mlt_type">chain</property>
  <property name="kdenlive:original.in">0</property>
  <property name="kdenlive:original.out">00:00:00.983</property>
  <property name="kdenlive:original.length">60</property>
  <property name="kdenlive:original.eof">pause</property>
  <property name="kdenlive:original.resource">video/Farmer/55.mp4</property>
  <property name="kdenlive:original.mlt_service">avformat-novalidate</property>
  <property name="kdenlive:original.meta.media.nb_streams">1</property>
  <property name="kdenlive:original.meta.media.0.stream.type">video</property>
  <property name="kdenlive:original.meta.media.0.stream.frame_rate">60</property>
  <property name="kdenlive:original.meta.media.0.stream.sample_aspect_ratio">0</property>
  <property name="kdenlive:original.meta.media.0.codec.width">1920</property>
  <property name="kdenlive:original.meta.media.0.codec.height">1080</property>
  <property name="kdenlive:original.meta.media.0.codec.rotate">0</property>
  <property name="kdenlive:original.meta.media.0.codec.pix_fmt">yuv420p</property>
  <property name="kdenlive:original.meta.media.0.codec.sample_aspect_ratio">0</property>
  <property name="kdenlive:original.meta.media.0.codec.colorspace">709</property>
  <property name="kdenlive:original.meta.media.0.codec.name">h264</property>
  <property name="kdenlive:original.meta.media.0.codec.long_name">H.264 / AVC / MPEG-4 AVC / MPEG-4 part 10</property>
  <property name="kdenlive:original.meta.media.0.codec.bit_rate">427368</property>
  <property name="kdenlive:original.meta.attr.0.stream.handler_name.markup">VideoHandler</property>
  <property name="kdenlive:original.meta.attr.0.stream.vendor_id.markup">[0][0][0][0]</property>
  <property name="kdenlive:original.meta.attr.0.stream.encoder.markup">Lavc60.3.100 libx264</property>
  <property name="kdenlive:original.meta.attr.major_brand.markup">isom</property>
  <property name="kdenlive:original.meta.attr.minor_version.markup">512</property>
  <property name="kdenlive:original.meta.attr.compatible_brands.markup">isomiso2avc1mp41</property>
  <property name="kdenlive:original.meta.attr.encoder.markup">Lavf60.3.100</property>
  <property name="kdenlive:original.meta.attr.comment.markup">Rendered with Manim Community v0.17.3</property>
  <property name="kdenlive:original.seekable">1</property>
  <property name="kdenlive:original.width">1920</property>
  <property name="kdenlive:original.height">1080</property>
  <property name="kdenlive:original.meta.media.sample_aspect_num">1</property>
  <property name="kdenlive:original.meta.media.sample_aspect_den">1</property>
  <property name="kdenlive:original.format">3</property>
  <property name="kdenlive:original.audio_index">-1</property>
  <property name="kdenlive:original.video_index">0</property>
  <property name="kdenlive:original.meta.media.frame_rate_num">60</property>
  <property name="kdenlive:original.meta.media.frame_rate_den">1</property>
  <property name="kdenlive:original.meta.media.colorspace">709</property>
  <property name="kdenlive:original.meta.media.color_trc">2</property>
  <property name="kdenlive:original.meta.media.has_b_frames">2</property>
  <property name="kdenlive:original.meta.media.width">1920</property>
  <property name="kdenlive:original.meta.media.height">1080</property>
  <property name="kdenlive:original.meta.media.color_range">mpeg</property>
  <property name="kdenlive:original.meta.media.top_field_first">0</property>
  <property name="kdenlive:original.meta.media.progressive">1</property>
  <property name="kdenlive:original.kdenlive:clip_type">2</property>
  <property name="kdenlive:original.kdenlive:folderid">16</property>
  <property name="kdenlive:original.kdenlive:id">129</property>
  <property name="kdenlive:original.mute_on_pause">0</property>
  <property name="kdenlive:original.kdenlive:file_size">55053</property>
  <property name="kdenlive:original.kdenlive:file_hash">489f747733047d2bf65958280efe5468</property>
  <property name="kdenlive:original.backup">1</property>
  <property name="meta.media.nb_streams">1</property>
  <property name="meta.media.0.stream.type">video</property>
  <property name="meta.media.0.stream.frame_rate">60</property>
  <property name="meta.media.0.stream.sample_aspect_ratio">0</property>
  <property name="meta.media.0.codec.width">640</property>
  <property name="meta.media.0.codec.height">360</property>
  <property name="meta.media.0.codec.rotate">0</property>
  <property name="meta.media.0.codec.pix_fmt">yuvj420p</property>
  <property name="meta.media.0.codec.sample_aspect_ratio">0</property>
  <property name="meta.media.0.codec.colorspace">601</property>
  <property name="meta.media.0.codec.name">mjpeg</property>
  <property name="meta.media.0.codec.long_name">MJPEG (Motion JPEG)</property>
  <property name="meta.media.0.codec.bit_rate">0</property>
  <property name="meta.attr.0.stream.HANDLER_NAME.markup">VideoHandler</property>
  <property name="meta.attr.0.stream.VENDOR_ID.markup">[0][0][0][0]</property>
  <property name="meta.attr.0.stream.ENCODER.markup">Lavc60.3.100 mjpeg</property>
  <property name="meta.attr.0.stream.DURATION.markup">00:00:01.000000000</property>
  <property name="meta.attr.COMMENT.markup">Rendered with Manim Community v0.17.3</property>
  <property name="meta.attr.MAJOR_BRAND.markup">isom</property>
  <property name="meta.attr.MINOR_VERSION.markup">512</property>
  <property name="meta.attr.COMPATIBLE_BRANDS.markup">isomiso2avc1mp41</property>
  <property name="meta.attr.ENCODER.markup">Lavf60.3.100</property>
  <property name="meta.media.sample_aspect_num">1</property>
  <property name="meta.media.sample_aspect_den">1</property>
  <property name="meta.media.frame_rate_num">60</property>
  <property name="meta.media.frame_rate_den">1</property>
  <property name="meta.media.colorspace">601</property>
  <property name="meta.media.color_trc">2</property>
  <property name="meta.media.has_b_frames">0</property>
  <property name="meta.media.width">640</property>
  <property name="meta.media.height">360</property>
  <property name="meta.media.color_range">full</property>
  <property name="xml">was here</property>
  <property name="meta.media.top_field_first">0</property>
  <property name="meta.media.progressive">1</property>
  <property name="set.test_audio">1</property>
  <property name="set.test_image">0</property>
 </chain>
 <chain id="chain563" out="00:00:00.983">
  <property name="length">60</property>
  <property name="eof">pause</property>
  <property name="resource">/home/xiaoxiae/.cache/kdenlive/proxy/89854be4689e3e2b28771487a79ab6f5.mkv</property>
  <property name="mlt_service">avformat-novalidate</property>
  <property name="seekable">1</property>
  <property name="format">3</property>
  <property name="audio_index">-1</property>
  <property name="video_index">0</property>
  <property name="kdenlive:clipname">56.mp4</property>
  <property name="kdenlive:clip_type">2</property>
  <property name="kdenlive:folderid">16</property>
  <property name="kdenlive:id">130</property>
  <property name="mute_on_pause">0</property>
  <property name="kdenlive:file_size">62057</property>
  <property name="kdenlive:file_hash">89854be4689e3e2b28771487a79ab6f5</property>
  <property name="kdenlive:proxy">/home/xiaoxiae/.cache/kdenlive/proxy/89854be4689e3e2b28771487a79ab6f5.mkv</property>
  <property name="kdenlive:originalurl">video/Farmer/56.mp4</property>
  <property name="kdenlive:original.mlt_type">chain</property>
  <property name="kdenlive:original.in">0</property>
  <property name="kdenlive:original.out">00:00:00.983</property>
  <property name="kdenlive:original.length">60</property>
  <property name="kdenlive:original.eof">pause</property>
  <property name="kdenlive:original.resource">video/Farmer/56.mp4</property>
  <property name="kdenlive:original.mlt_service">avformat-novalidate</property>
  <property name="kdenlive:original.meta.media.nb_streams">1</property>
  <property name="kdenlive:original.meta.media.0.stream.type">video</property>
  <property name="kdenlive:original.meta.media.0.stream.frame_rate">60</property>
  <property name="kdenlive:original.meta.media.0.stream.sample_aspect_ratio">0</property>
  <property name="kdenlive:original.meta.media.0.codec.width">1920</property>
  <property name="kdenlive:original.meta.media.0.codec.height">1080</property>
  <property name="kdenlive:original.meta.media.0.codec.rotate">0</property>
  <property name="kdenlive:original.meta.media.0.codec.pix_fmt">yuv420p</property>
  <property name="kdenlive:original.meta.media.0.codec.sample_aspect_ratio">0</property>
  <property name="kdenlive:original.meta.media.0.codec.colorspace">709</property>
  <property name="kdenlive:original.meta.media.0.codec.name">h264</property>
  <property name="kdenlive:original.meta.media.0.codec.long_name">H.264 / AVC / MPEG-4 AVC / MPEG-4 part 10</property>
  <property name="kdenlive:original.meta.media.0.codec.bit_rate">483464</property>
  <property name="kdenlive:original.meta.attr.0.stream.handler_name.markup">VideoHandler</property>
  <property name="kdenlive:original.meta.attr.0.stream.vendor_id.markup">[0][0][0][0]</property>
  <property name="kdenlive:original.meta.attr.0.stream.encoder.markup">Lavc60.3.100 libx264</property>
  <property name="kdenlive:original.meta.attr.major_brand.markup">isom</property>
  <property name="kdenlive:original.meta.attr.minor_version.markup">512</property>
  <property name="kdenlive:original.meta.attr.compatible_brands.markup">isomiso2avc1mp41</property>
  <property name="kdenlive:original.meta.attr.encoder.markup">Lavf60.3.100</property>
  <property name="kdenlive:original.meta.attr.comment.markup">Rendered with Manim Community v0.17.3</property>
  <property name="kdenlive:original.seekable">1</property>
  <property name="kdenlive:original.width">1920</property>
  <property name="kdenlive:original.height">1080</property>
  <property name="kdenlive:original.meta.media.sample_aspect_num">1</property>
  <property name="kdenlive:original.meta.media.sample_aspect_den">1</property>
  <property name="kdenlive:original.format">3</property>
  <property name="kdenlive:original.audio_index">-1</property>
  <property name="kdenlive:original.video_index">0</property>
  <property name="kdenlive:original.meta.media.frame_rate_num">60</property>
  <property name="kdenlive:original.meta.media.frame_rate_den">1</property>
  <property name="kdenlive:original.meta.media.colorspace">709</property>
  <property name="kdenlive:original.meta.media.color_trc">2</property>
  <property name="kdenlive:original.meta.media.has_b_frames">2</property>
  <property name="kdenlive:original.meta.media.width">1920</property>
  <property name="kdenlive:original.meta.media.height">1080</property>
  <property name="kdenlive:original.meta.media.color_range">mpeg</property>
  <property name="kdenlive:original.meta.media.top_field_first">0</property>
  <property name="kdenlive:original.meta.media.progressive">1</property>
  <property name="kdenlive:original.kdenlive:clip_type">2</property>
  <property name="kdenlive:original.kdenlive:folderid">16</property>
  <property name="kdenlive:original.kdenlive:id">130</property>
  <property name="kdenlive:original.mute_on_pause">0</property>
  <property name="kdenlive:original.kdenlive:file_size">62057</property>
  <property name="kdenlive:original.kdenlive:file_hash">89854be4689e3e2b28771487a79ab6f5</property>
  <property name="kdenlive:original.backup">1</property>
  <property name="meta.media.nb_streams">1</property>
  <property name="meta.media.0.stream.type">video</property>
  <property name="meta.media.0.stream.frame_rate">60</property>
  <property name="meta.media.0.stream.sample_aspect_ratio">0</property>
  <property name="meta.media.0.codec.width">640</property>
  <property name="meta.media.0.codec.height">360</property>
  <property name="meta.media.0.codec.rotate">0</property>
  <property name="meta.media.0.codec.pix_fmt">yuvj420p</property>
  <property name="meta.media.0.codec.sample_aspect_ratio">0</property>
  <property name="meta.media.0.codec.colorspace">601</property>
  <property name="meta.media.0.codec.name">mjpeg</property>
  <property name="meta.media.0.codec.long_name">MJPEG (Motion JPEG)</property>
  <property name="meta.media.0.codec.bit_rate">0</property>
  <property name="meta.attr.0.stream.HANDLER_NAME.markup">VideoHandler</property>
  <property name="meta.attr.0.stream.VENDOR_ID.markup">[0][0][0][0]</property>
  <property name="meta.attr.0.stream.ENCODER.markup">Lavc60.3.100 mjpeg</property>
  <property name="meta.attr.0.stream.DURATION.markup">00:00:01.000000000</property>
  <property name="meta.attr.COMMENT.markup">Rendered with Manim Community v0.17.3</property>
  <property name="meta.attr.MAJOR_BRAND.markup">isom</property>
  <property name="meta.attr.MINOR_VERSION.markup">512</property>
  <property name="meta.attr.COMPATIBLE_BRANDS.markup">isomiso2avc1mp41</property>
  <property name="meta.attr.ENCODER.markup">Lavf60.3.100</property>
  <property name="meta.media.sample_aspect_num">1</property>
  <property name="meta.media.sample_aspect_den">1</property>
  <property name="meta.media.frame_rate_num">60</property>
  <property name="meta.media.frame_rate_den">1</property>
  <property name="meta.media.colorspace">601</property>
  <property name="meta.media.color_trc">2</property>
  <property name="meta.media.has_b_frames">0</property>
  <property name="meta.media.width">640</property>
  <property name="meta.media.height">360</property>
  <property name="meta.media.color_range">full</property>
  <property name="xml">was here</property>
  <property name="meta.media.top_field_first">0</property>
  <property name="meta.media.progressive">1</property>
  <property name="set.test_audio">1</property>
  <property name="set.test_image">0</property>
 </chain>
 <chain id="chain564" out="00:00:00.983">
  <property name="length">60</property>
  <property name="eof">pause</property>
  <property name="resource">/home/xiaoxiae/.cache/kdenlive/proxy/4c41ce6ab5d14ff5415ec739f06c80a8.mkv</property>
  <property name="mlt_service">avformat-novalidate</property>
  <property name="seekable">1</property>
  <property name="format">3</property>
  <property name="audio_index">-1</property>
  <property name="video_index">0</property>
  <property name="kdenlive:clipname">57.mp4</property>
  <property name="kdenlive:clip_type">2</property>
  <property name="kdenlive:folderid">16</property>
  <property name="kdenlive:id">131</property>
  <property name="mute_on_pause">0</property>
  <property name="kdenlive:file_size">53923</property>
  <property name="kdenlive:file_hash">4c41ce6ab5d14ff5415ec739f06c80a8</property>
  <property name="kdenlive:proxy">/home/xiaoxiae/.cache/kdenlive/proxy/4c41ce6ab5d14ff5415ec739f06c80a8.mkv</property>
  <property name="kdenlive:originalurl">video/Farmer/57.mp4</property>
  <property name="kdenlive:original.mlt_type">chain</property>
  <property name="kdenlive:original.in">0</property>
  <property name="kdenlive:original.out">00:00:00.983</property>
  <property name="kdenlive:original.length">60</property>
  <property name="kdenlive:original.eof">pause</property>
  <property name="kdenlive:original.resource">video/Farmer/57.mp4</property>
  <property name="kdenlive:original.mlt_service">avformat-novalidate</property>
  <property name="kdenlive:original.meta.media.nb_streams">1</property>
  <property name="kdenlive:original.meta.media.0.stream.type">video</property>
  <property name="kdenlive:original.meta.media.0.stream.frame_rate">60</property>
  <property name="kdenlive:original.meta.media.0.stream.sample_aspect_ratio">0</property>
  <property name="kdenlive:original.meta.media.0.codec.width">1920</property>
  <property name="kdenlive:original.meta.media.0.codec.height">1080</property>
  <property name="kdenlive:original.meta.media.0.codec.rotate">0</property>
  <property name="kdenlive:original.meta.media.0.codec.pix_fmt">yuv420p</property>
  <property name="kdenlive:original.meta.media.0.codec.sample_aspect_ratio">0</property>
  <property name="kdenlive:original.meta.media.0.codec.colorspace">709</property>
  <property name="kdenlive:original.meta.media.0.codec.name">h264</property>
  <property name="kdenlive:original.meta.media.0.codec.long_name">H.264 / AVC / MPEG-4 AVC / MPEG-4 part 10</property>
  <property name="kdenlive:original.meta.media.0.codec.bit_rate">418328</property>
  <property name="kdenlive:original.meta.attr.0.stream.handler_name.markup">VideoHandler</property>
  <property name="kdenlive:original.meta.attr.0.stream.vendor_id.markup">[0][0][0][0]</property>
  <property name="kdenlive:original.meta.attr.0.stream.encoder.markup">Lavc60.3.100 libx264</property>
  <property name="kdenlive:original.meta.attr.major_brand.markup">isom</property>
  <property name="kdenlive:original.meta.attr.minor_version.markup">512</property>
  <property name="kdenlive:original.meta.attr.compatible_brands.markup">isomiso2avc1mp41</property>
  <property name="kdenlive:original.meta.attr.encoder.markup">Lavf60.3.100</property>
  <property name="kdenlive:original.meta.attr.comment.markup">Rendered with Manim Community v0.17.3</property>
  <property name="kdenlive:original.seekable">1</property>
  <property name="kdenlive:original.width">1920</property>
  <property name="kdenlive:original.height">1080</property>
  <property name="kdenlive:original.meta.media.sample_aspect_num">1</property>
  <property name="kdenlive:original.meta.media.sample_aspect_den">1</property>
  <property name="kdenlive:original.format">3</property>
  <property name="kdenlive:original.audio_index">-1</property>
  <property name="kdenlive:original.video_index">0</property>
  <property name="kdenlive:original.meta.media.frame_rate_num">60</property>
  <property name="kdenlive:original.meta.media.frame_rate_den">1</property>
  <property name="kdenlive:original.meta.media.colorspace">709</property>
  <property name="kdenlive:original.meta.media.color_trc">2</property>
  <property name="kdenlive:original.meta.media.has_b_frames">2</property>
  <property name="kdenlive:original.meta.media.width">1920</property>
  <property name="kdenlive:original.meta.media.height">1080</property>
  <property name="kdenlive:original.meta.media.color_range">mpeg</property>
  <property name="kdenlive:original.meta.media.top_field_first">0</property>
  <property name="kdenlive:original.meta.media.progressive">1</property>
  <property name="kdenlive:original.kdenlive:clip_type">2</property>
  <property name="kdenlive:original.kdenlive:folderid">16</property>
  <property name="kdenlive:original.kdenlive:id">131</property>
  <property name="kdenlive:original.mute_on_pause">0</property>
  <property name="kdenlive:original.kdenlive:file_size">53923</property>
  <property name="kdenlive:original.kdenlive:file_hash">4c41ce6ab5d14ff5415ec739f06c80a8</property>
  <property name="kdenlive:original.backup">1</property>
  <property name="meta.media.nb_streams">1</property>
  <property name="meta.media.0.stream.type">video</property>
  <property name="meta.media.0.stream.frame_rate">60</property>
  <property name="meta.media.0.stream.sample_aspect_ratio">0</property>
  <property name="meta.media.0.codec.width">640</property>
  <property name="meta.media.0.codec.height">360</property>
  <property name="meta.media.0.codec.rotate">0</property>
  <property name="meta.media.0.codec.pix_fmt">yuvj420p</property>
  <property name="meta.media.0.codec.sample_aspect_ratio">0</property>
  <property name="meta.media.0.codec.colorspace">601</property>
  <property name="meta.media.0.codec.name">mjpeg</property>
  <property name="meta.media.0.codec.long_name">MJPEG (Motion JPEG)</property>
  <property name="meta.media.0.codec.bit_rate">0</property>
  <property name="meta.attr.0.stream.HANDLER_NAME.markup">VideoHandler</property>
  <property name="meta.attr.0.stream.VENDOR_ID.markup">[0][0][0][0]</property>
  <property name="meta.attr.0.stream.ENCODER.markup">Lavc60.3.100 mjpeg</property>
  <property name="meta.attr.0.stream.DURATION.markup">00:00:01.000000000</property>
  <property name="meta.attr.COMMENT.markup">Rendered with Manim Community v0.17.3</property>
  <property name="meta.attr.MAJOR_BRAND.markup">isom</property>
  <property name="meta.attr.MINOR_VERSION.markup">512</property>
  <property name="meta.attr.COMPATIBLE_BRANDS.markup">isomiso2avc1mp41</property>
  <property name="meta.attr.ENCODER.markup">Lavf60.3.100</property>
  <property name="meta.media.sample_aspect_num">1</property>
  <property name="meta.media.sample_aspect_den">1</property>
  <property name="meta.media.frame_rate_num">60</property>
  <property name="meta.media.frame_rate_den">1</property>
  <property name="meta.media.colorspace">601</property>
  <property name="meta.media.color_trc">2</property>
  <property name="meta.media.has_b_frames">0</property>
  <property name="meta.media.width">640</property>
  <property name="meta.media.height">360</property>
  <property name="meta.media.color_range">full</property>
  <property name="xml">was here</property>
  <property name="meta.media.top_field_first">0</property>
  <property name="meta.media.progressive">1</property>
  <property name="set.test_audio">1</property>
  <property name="set.test_image">0</property>
 </chain>
 <chain id="chain565" out="00:00:00.983">
  <property name="length">60</property>
  <property name="eof">pause</property>
  <property name="resource">/home/xiaoxiae/.cache/kdenlive/proxy/8b3581fae25788224577ba41f61d2ee6.mkv</property>
  <property name="mlt_service">avformat-novalidate</property>
  <property name="seekable">1</property>
  <property name="format">3</property>
  <property name="audio_index">-1</property>
  <property name="video_index">0</property>
  <property name="kdenlive:clipname">58.mp4</property>
  <property name="kdenlive:clip_type">2</property>
  <property name="kdenlive:folderid">16</property>
  <property name="kdenlive:id">132</property>
  <property name="mute_on_pause">0</property>
  <property name="kdenlive:file_size">58943</property>
  <property name="kdenlive:file_hash">8b3581fae25788224577ba41f61d2ee6</property>
  <property name="kdenlive:proxy">/home/xiaoxiae/.cache/kdenlive/proxy/8b3581fae25788224577ba41f61d2ee6.mkv</property>
  <property name="kdenlive:originalurl">video/Farmer/58.mp4</property>
  <property name="kdenlive:original.mlt_type">chain</property>
  <property name="kdenlive:original.in">0</property>
  <property name="kdenlive:original.out">00:00:00.983</property>
  <property name="kdenlive:original.length">60</property>
  <property name="kdenlive:original.eof">pause</property>
  <property name="kdenlive:original.resource">video/Farmer/58.mp4</property>
  <property name="kdenlive:original.mlt_service">avformat-novalidate</property>
  <property name="kdenlive:original.meta.media.nb_streams">1</property>
  <property name="kdenlive:original.meta.media.0.stream.type">video</property>
  <property name="kdenlive:original.meta.media.0.stream.frame_rate">60</property>
  <property name="kdenlive:original.meta.media.0.stream.sample_aspect_ratio">0</property>
  <property name="kdenlive:original.meta.media.0.codec.width">1920</property>
  <property name="kdenlive:original.meta.media.0.codec.height">1080</property>
  <property name="kdenlive:original.meta.media.0.codec.rotate">0</property>
  <property name="kdenlive:original.meta.media.0.codec.pix_fmt">yuv420p</property>
  <property name="kdenlive:original.meta.media.0.codec.sample_aspect_ratio">0</property>
  <property name="kdenlive:original.meta.media.0.codec.colorspace">709</property>
  <property name="kdenlive:original.meta.media.0.codec.name">h264</property>
  <property name="kdenlive:original.meta.media.0.codec.long_name">H.264 / AVC / MPEG-4 AVC / MPEG-4 part 10</property>
  <property name="kdenlive:original.meta.media.0.codec.bit_rate">458488</property>
  <property name="kdenlive:original.meta.attr.0.stream.handler_name.markup">VideoHandler</property>
  <property name="kdenlive:original.meta.attr.0.stream.vendor_id.markup">[0][0][0][0]</property>
  <property name="kdenlive:original.meta.attr.0.stream.encoder.markup">Lavc60.3.100 libx264</property>
  <property name="kdenlive:original.meta.attr.major_brand.markup">isom</property>
  <property name="kdenlive:original.meta.attr.minor_version.markup">512</property>
  <property name="kdenlive:original.meta.attr.compatible_brands.markup">isomiso2avc1mp41</property>
  <property name="kdenlive:original.meta.attr.encoder.markup">Lavf60.3.100</property>
  <property name="kdenlive:original.meta.attr.comment.markup">Rendered with Manim Community v0.17.3</property>
  <property name="kdenlive:original.seekable">1</property>
  <property name="kdenlive:original.width">1920</property>
  <property name="kdenlive:original.height">1080</property>
  <property name="kdenlive:original.meta.media.sample_aspect_num">1</property>
  <property name="kdenlive:original.meta.media.sample_aspect_den">1</property>
  <property name="kdenlive:original.format">3</property>
  <property name="kdenlive:original.audio_index">-1</property>
  <property name="kdenlive:original.video_index">0</property>
  <property name="kdenlive:original.meta.media.frame_rate_num">60</property>
  <property name="kdenlive:original.meta.media.frame_rate_den">1</property>
  <property name="kdenlive:original.meta.media.colorspace">709</property>
  <property name="kdenlive:original.meta.media.color_trc">2</property>
  <property name="kdenlive:original.meta.media.has_b_frames">2</property>
  <property name="kdenlive:original.meta.media.width">1920</property>
  <property name="kdenlive:original.meta.media.height">1080</property>
  <property name="kdenlive:original.meta.media.color_range">mpeg</property>
  <property name="kdenlive:original.meta.media.top_field_first">0</property>
  <property name="kdenlive:original.meta.media.progressive">1</property>
  <property name="kdenlive:original.kdenlive:clip_type">2</property>
  <property name="kdenlive:original.kdenlive:folderid">16</property>
  <property name="kdenlive:original.kdenlive:id">132</property>
  <property name="kdenlive:original.mute_on_pause">0</property>
  <property name="kdenlive:original.kdenlive:file_size">58943</property>
  <property name="kdenlive:original.kdenlive:file_hash">8b3581fae25788224577ba41f61d2ee6</property>
  <property name="kdenlive:original.backup">1</property>
  <property name="meta.media.nb_streams">1</property>
  <property name="meta.media.0.stream.type">video</property>
  <property name="meta.media.0.stream.frame_rate">60</property>
  <property name="meta.media.0.stream.sample_aspect_ratio">0</property>
  <property name="meta.media.0.codec.width">640</property>
  <property name="meta.media.0.codec.height">360</property>
  <property name="meta.media.0.codec.rotate">0</property>
  <property name="meta.media.0.codec.pix_fmt">yuvj420p</property>
  <property name="meta.media.0.codec.sample_aspect_ratio">0</property>
  <property name="meta.media.0.codec.colorspace">601</property>
  <property name="meta.media.0.codec.name">mjpeg</property>
  <property name="meta.media.0.codec.long_name">MJPEG (Motion JPEG)</property>
  <property name="meta.media.0.codec.bit_rate">0</property>
  <property name="meta.attr.0.stream.HANDLER_NAME.markup">VideoHandler</property>
  <property name="meta.attr.0.stream.VENDOR_ID.markup">[0][0][0][0]</property>
  <property name="meta.attr.0.stream.ENCODER.markup">Lavc60.3.100 mjpeg</property>
  <property name="meta.attr.0.stream.DURATION.markup">00:00:01.000000000</property>
  <property name="meta.attr.COMMENT.markup">Rendered with Manim Community v0.17.3</property>
  <property name="meta.attr.MAJOR_BRAND.markup">isom</property>
  <property name="meta.attr.MINOR_VERSION.markup">512</property>
  <property name="meta.attr.COMPATIBLE_BRANDS.markup">isomiso2avc1mp41</property>
  <property name="meta.attr.ENCODER.markup">Lavf60.3.100</property>
  <property name="meta.media.sample_aspect_num">1</property>
  <property name="meta.media.sample_aspect_den">1</property>
  <property name="meta.media.frame_rate_num">60</property>
  <property name="meta.media.frame_rate_den">1</property>
  <property name="meta.media.colorspace">601</property>
  <property name="meta.media.color_trc">2</property>
  <property name="meta.media.has_b_frames">0</property>
  <property name="meta.media.width">640</property>
  <property name="meta.media.height">360</property>
  <property name="meta.media.color_range">full</property>
  <property name="xml">was here</property>
  <property name="meta.media.top_field_first">0</property>
  <property name="meta.media.progressive">1</property>
  <property name="set.test_audio">1</property>
  <property name="set.test_image">0</property>
 </chain>
 <chain id="chain566" out="00:00:01.483">
  <property name="length">90</property>
  <property name="eof">pause</property>
  <property name="resource">/home/xiaoxiae/.cache/kdenlive/proxy/d68750ec8be900681673d7894cbfbb09.mkv</property>
  <property name="mlt_service">avformat-novalidate</property>
  <property name="seekable">1</property>
  <property name="format">3</property>
  <property name="audio_index">-1</property>
  <property name="video_index">0</property>
  <property name="kdenlive:clipname">59.mp4</property>
  <property name="kdenlive:clip_type">2</property>
  <property name="kdenlive:folderid">16</property>
  <property name="kdenlive:id">133</property>
  <property name="mute_on_pause">0</property>
  <property name="kdenlive:file_size">104196</property>
  <property name="kdenlive:file_hash">d68750ec8be900681673d7894cbfbb09</property>
  <property name="kdenlive:proxy">/home/xiaoxiae/.cache/kdenlive/proxy/d68750ec8be900681673d7894cbfbb09.mkv</property>
  <property name="kdenlive:originalurl">video/Farmer/59.mp4</property>
  <property name="kdenlive:original.mlt_type">chain</property>
  <property name="kdenlive:original.in">0</property>
  <property name="kdenlive:original.out">00:00:01.483</property>
  <property name="kdenlive:original.length">90</property>
  <property name="kdenlive:original.eof">pause</property>
  <property name="kdenlive:original.resource">video/Farmer/59.mp4</property>
  <property name="kdenlive:original.mlt_service">avformat-novalidate</property>
  <property name="kdenlive:original.meta.media.nb_streams">1</property>
  <property name="kdenlive:original.meta.media.0.stream.type">video</property>
  <property name="kdenlive:original.meta.media.0.stream.frame_rate">60</property>
  <property name="kdenlive:original.meta.media.0.stream.sample_aspect_ratio">0</property>
  <property name="kdenlive:original.meta.media.0.codec.width">1920</property>
  <property name="kdenlive:original.meta.media.0.codec.height">1080</property>
  <property name="kdenlive:original.meta.media.0.codec.rotate">0</property>
  <property name="kdenlive:original.meta.media.0.codec.pix_fmt">yuv420p</property>
  <property name="kdenlive:original.meta.media.0.codec.sample_aspect_ratio">0</property>
  <property name="kdenlive:original.meta.media.0.codec.colorspace">709</property>
  <property name="kdenlive:original.meta.media.0.codec.name">h264</property>
  <property name="kdenlive:original.meta.media.0.codec.long_name">H.264 / AVC / MPEG-4 AVC / MPEG-4 part 10</property>
  <property name="kdenlive:original.meta.media.0.codec.bit_rate">545173</property>
  <property name="kdenlive:original.meta.attr.0.stream.handler_name.markup">VideoHandler</property>
  <property name="kdenlive:original.meta.attr.0.stream.vendor_id.markup">[0][0][0][0]</property>
  <property name="kdenlive:original.meta.attr.0.stream.encoder.markup">Lavc60.3.100 libx264</property>
  <property name="kdenlive:original.meta.attr.major_brand.markup">isom</property>
  <property name="kdenlive:original.meta.attr.minor_version.markup">512</property>
  <property name="kdenlive:original.meta.attr.compatible_brands.markup">isomiso2avc1mp41</property>
  <property name="kdenlive:original.meta.attr.encoder.markup">Lavf60.3.100</property>
  <property name="kdenlive:original.meta.attr.comment.markup">Rendered with Manim Community v0.17.3</property>
  <property name="kdenlive:original.seekable">1</property>
  <property name="kdenlive:original.width">1920</property>
  <property name="kdenlive:original.height">1080</property>
  <property name="kdenlive:original.meta.media.sample_aspect_num">1</property>
  <property name="kdenlive:original.meta.media.sample_aspect_den">1</property>
  <property name="kdenlive:original.format">3</property>
  <property name="kdenlive:original.audio_index">-1</property>
  <property name="kdenlive:original.video_index">0</property>
  <property name="kdenlive:original.meta.media.frame_rate_num">60</property>
  <property name="kdenlive:original.meta.media.frame_rate_den">1</property>
  <property name="kdenlive:original.meta.media.colorspace">709</property>
  <property name="kdenlive:original.meta.media.color_trc">2</property>
  <property name="kdenlive:original.meta.media.has_b_frames">2</property>
  <property name="kdenlive:original.meta.media.width">1920</property>
  <property name="kdenlive:original.meta.media.height">1080</property>
  <property name="kdenlive:original.meta.media.color_range">mpeg</property>
  <property name="kdenlive:original.meta.media.top_field_first">0</property>
  <property name="kdenlive:original.meta.media.progressive">1</property>
  <property name="kdenlive:original.kdenlive:clip_type">2</property>
  <property name="kdenlive:original.kdenlive:folderid">16</property>
  <property name="kdenlive:original.kdenlive:id">133</property>
  <property name="kdenlive:original.mute_on_pause">0</property>
  <property name="kdenlive:original.kdenlive:file_size">104196</property>
  <property name="kdenlive:original.kdenlive:file_hash">d68750ec8be900681673d7894cbfbb09</property>
  <property name="kdenlive:original.backup">1</property>
  <property name="meta.media.nb_streams">1</property>
  <property name="meta.media.0.stream.type">video</property>
  <property name="meta.media.0.stream.frame_rate">60</property>
  <property name="meta.media.0.stream.sample_aspect_ratio">0</property>
  <property name="meta.media.0.codec.width">640</property>
  <property name="meta.media.0.codec.height">360</property>
  <property name="meta.media.0.codec.rotate">0</property>
  <property name="meta.media.0.codec.pix_fmt">yuvj420p</property>
  <property name="meta.media.0.codec.sample_aspect_ratio">0</property>
  <property name="meta.media.0.codec.colorspace">601</property>
  <property name="meta.media.0.codec.name">mjpeg</property>
  <property name="meta.media.0.codec.long_name">MJPEG (Motion JPEG)</property>
  <property name="meta.media.0.codec.bit_rate">0</property>
  <property name="meta.attr.0.stream.HANDLER_NAME.markup">VideoHandler</property>
  <property name="meta.attr.0.stream.VENDOR_ID.markup">[0][0][0][0]</property>
  <property name="meta.attr.0.stream.ENCODER.markup">Lavc60.3.100 mjpeg</property>
  <property name="meta.attr.0.stream.DURATION.markup">00:00:01.500000000</property>
  <property name="meta.attr.COMMENT.markup">Rendered with Manim Community v0.17.3</property>
  <property name="meta.attr.MAJOR_BRAND.markup">isom</property>
  <property name="meta.attr.MINOR_VERSION.markup">512</property>
  <property name="meta.attr.COMPATIBLE_BRANDS.markup">isomiso2avc1mp41</property>
  <property name="meta.attr.ENCODER.markup">Lavf60.3.100</property>
  <property name="meta.media.sample_aspect_num">1</property>
  <property name="meta.media.sample_aspect_den">1</property>
  <property name="meta.media.frame_rate_num">60</property>
  <property name="meta.media.frame_rate_den">1</property>
  <property name="meta.media.colorspace">601</property>
  <property name="meta.media.color_trc">2</property>
  <property name="meta.media.has_b_frames">0</property>
  <property name="meta.media.width">640</property>
  <property name="meta.media.height">360</property>
  <property name="meta.media.color_range">full</property>
  <property name="xml">was here</property>
  <property name="meta.media.top_field_first">0</property>
  <property name="meta.media.progressive">1</property>
  <property name="set.test_audio">1</property>
  <property name="set.test_image">0</property>
 </chain>
 <chain id="chain567" out="00:00:01.483">
  <property name="length">90</property>
  <property name="eof">pause</property>
  <property name="resource">/home/xiaoxiae/.cache/kdenlive/proxy/43b4b545845ff9398594e526511d4800.mkv</property>
  <property name="mlt_service">avformat-novalidate</property>
  <property name="seekable">1</property>
  <property name="format">3</property>
  <property name="audio_index">-1</property>
  <property name="video_index">0</property>
  <property name="kdenlive:clipname">60.mp4</property>
  <property name="kdenlive:clip_type">2</property>
  <property name="kdenlive:folderid">16</property>
  <property name="kdenlive:id">135</property>
  <property name="mute_on_pause">0</property>
  <property name="kdenlive:file_size">103547</property>
  <property name="kdenlive:file_hash">43b4b545845ff9398594e526511d4800</property>
  <property name="kdenlive:proxy">/home/xiaoxiae/.cache/kdenlive/proxy/43b4b545845ff9398594e526511d4800.mkv</property>
  <property name="kdenlive:originalurl">video/Farmer/60.mp4</property>
  <property name="kdenlive:original.mlt_type">chain</property>
  <property name="kdenlive:original.in">0</property>
  <property name="kdenlive:original.out">00:00:01.483</property>
  <property name="kdenlive:original.length">90</property>
  <property name="kdenlive:original.eof">pause</property>
  <property name="kdenlive:original.resource">video/Farmer/60.mp4</property>
  <property name="kdenlive:original.mlt_service">avformat-novalidate</property>
  <property name="kdenlive:original.meta.media.nb_streams">1</property>
  <property name="kdenlive:original.meta.media.0.stream.type">video</property>
  <property name="kdenlive:original.meta.media.0.stream.frame_rate">60</property>
  <property name="kdenlive:original.meta.media.0.stream.sample_aspect_ratio">0</property>
  <property name="kdenlive:original.meta.media.0.codec.width">1920</property>
  <property name="kdenlive:original.meta.media.0.codec.height">1080</property>
  <property name="kdenlive:original.meta.media.0.codec.rotate">0</property>
  <property name="kdenlive:original.meta.media.0.codec.pix_fmt">yuv420p</property>
  <property name="kdenlive:original.meta.media.0.codec.sample_aspect_ratio">0</property>
  <property name="kdenlive:original.meta.media.0.codec.colorspace">709</property>
  <property name="kdenlive:original.meta.media.0.codec.name">h264</property>
  <property name="kdenlive:original.meta.media.0.codec.long_name">H.264 / AVC / MPEG-4 AVC / MPEG-4 part 10</property>
  <property name="kdenlive:original.meta.media.0.codec.bit_rate">541712</property>
  <property name="kdenlive:original.meta.attr.0.stream.handler_name.markup">VideoHandler</property>
  <property name="kdenlive:original.meta.attr.0.stream.vendor_id.markup">[0][0][0][0]</property>
  <property name="kdenlive:original.meta.attr.0.stream.encoder.markup">Lavc60.3.100 libx264</property>
  <property name="kdenlive:original.meta.attr.major_brand.markup">isom</property>
  <property name="kdenlive:original.meta.attr.minor_version.markup">512</property>
  <property name="kdenlive:original.meta.attr.compatible_brands.markup">isomiso2avc1mp41</property>
  <property name="kdenlive:original.meta.attr.encoder.markup">Lavf60.3.100</property>
  <property name="kdenlive:original.meta.attr.comment.markup">Rendered with Manim Community v0.17.3</property>
  <property name="kdenlive:original.seekable">1</property>
  <property name="kdenlive:original.width">1920</property>
  <property name="kdenlive:original.height">1080</property>
  <property name="kdenlive:original.meta.media.sample_aspect_num">1</property>
  <property name="kdenlive:original.meta.media.sample_aspect_den">1</property>
  <property name="kdenlive:original.format">3</property>
  <property name="kdenlive:original.audio_index">-1</property>
  <property name="kdenlive:original.video_index">0</property>
  <property name="kdenlive:original.meta.media.frame_rate_num">60</property>
  <property name="kdenlive:original.meta.media.frame_rate_den">1</property>
  <property name="kdenlive:original.meta.media.colorspace">709</property>
  <property name="kdenlive:original.meta.media.color_trc">2</property>
  <property name="kdenlive:original.meta.media.has_b_frames">2</property>
  <property name="kdenlive:original.meta.media.width">1920</property>
  <property name="kdenlive:original.meta.media.height">1080</property>
  <property name="kdenlive:original.meta.media.color_range">mpeg</property>
  <property name="kdenlive:original.meta.media.top_field_first">0</property>
  <property name="kdenlive:original.meta.media.progressive">1</property>
  <property name="kdenlive:original.kdenlive:clip_type">2</property>
  <property name="kdenlive:original.kdenlive:folderid">16</property>
  <property name="kdenlive:original.kdenlive:id">135</property>
  <property name="kdenlive:original.mute_on_pause">0</property>
  <property name="kdenlive:original.kdenlive:file_size">103547</property>
  <property name="kdenlive:original.kdenlive:file_hash">43b4b545845ff9398594e526511d4800</property>
  <property name="kdenlive:original.backup">1</property>
  <property name="meta.media.nb_streams">1</property>
  <property name="meta.media.0.stream.type">video</property>
  <property name="meta.media.0.stream.frame_rate">60</property>
  <property name="meta.media.0.stream.sample_aspect_ratio">0</property>
  <property name="meta.media.0.codec.width">640</property>
  <property name="meta.media.0.codec.height">360</property>
  <property name="meta.media.0.codec.rotate">0</property>
  <property name="meta.media.0.codec.pix_fmt">yuvj420p</property>
  <property name="meta.media.0.codec.sample_aspect_ratio">0</property>
  <property name="meta.media.0.codec.colorspace">601</property>
  <property name="meta.media.0.codec.name">mjpeg</property>
  <property name="meta.media.0.codec.long_name">MJPEG (Motion JPEG)</property>
  <property name="meta.media.0.codec.bit_rate">0</property>
  <property name="meta.attr.0.stream.HANDLER_NAME.markup">VideoHandler</property>
  <property name="meta.attr.0.stream.VENDOR_ID.markup">[0][0][0][0]</property>
  <property name="meta.attr.0.stream.ENCODER.markup">Lavc60.3.100 mjpeg</property>
  <property name="meta.attr.0.stream.DURATION.markup">00:00:01.500000000</property>
  <property name="meta.attr.COMMENT.markup">Rendered with Manim Community v0.17.3</property>
  <property name="meta.attr.MAJOR_BRAND.markup">isom</property>
  <property name="meta.attr.MINOR_VERSION.markup">512</property>
  <property name="meta.attr.COMPATIBLE_BRANDS.markup">isomiso2avc1mp41</property>
  <property name="meta.attr.ENCODER.markup">Lavf60.3.100</property>
  <property name="meta.media.sample_aspect_num">1</property>
  <property name="meta.media.sample_aspect_den">1</property>
  <property name="meta.media.frame_rate_num">60</property>
  <property name="meta.media.frame_rate_den">1</property>
  <property name="meta.media.colorspace">601</property>
  <property name="meta.media.color_trc">2</property>
  <property name="meta.media.has_b_frames">0</property>
  <property name="meta.media.width">640</property>
  <property name="meta.media.height">360</property>
  <property name="meta.media.color_range">full</property>
  <property name="xml">was here</property>
  <property name="meta.media.top_field_first">0</property>
  <property name="meta.media.progressive">1</property>
  <property name="set.test_audio">1</property>
  <property name="set.test_image">0</property>
 </chain>
 <chain id="chain568" out="00:00:01.483">
  <property name="length">90</property>
  <property name="eof">pause</property>
  <property name="resource">/home/xiaoxiae/.cache/kdenlive/proxy/26a8b2c39070bc8f72d02b738be20657.mkv</property>
  <property name="mlt_service">avformat-novalidate</property>
  <property name="seekable">1</property>
  <property name="format">3</property>
  <property name="audio_index">-1</property>
  <property name="video_index">0</property>
  <property name="kdenlive:clipname">61.mp4</property>
  <property name="kdenlive:clip_type">2</property>
  <property name="kdenlive:folderid">16</property>
  <property name="kdenlive:id">136</property>
  <property name="mute_on_pause">0</property>
  <property name="kdenlive:file_size">276558</property>
  <property name="kdenlive:file_hash">26a8b2c39070bc8f72d02b738be20657</property>
  <property name="kdenlive:proxy">/home/xiaoxiae/.cache/kdenlive/proxy/26a8b2c39070bc8f72d02b738be20657.mkv</property>
  <property name="kdenlive:originalurl">video/Farmer/61.mp4</property>
  <property name="kdenlive:original.mlt_type">chain</property>
  <property name="kdenlive:original.in">0</property>
  <property name="kdenlive:original.out">00:00:01.483</property>
  <property name="kdenlive:original.length">90</property>
  <property name="kdenlive:original.eof">pause</property>
  <property name="kdenlive:original.resource">video/Farmer/61.mp4</property>
  <property name="kdenlive:original.mlt_service">avformat-novalidate</property>
  <property name="kdenlive:original.meta.media.nb_streams">1</property>
  <property name="kdenlive:original.meta.media.0.stream.type">video</property>
  <property name="kdenlive:original.meta.media.0.stream.frame_rate">60</property>
  <property name="kdenlive:original.meta.media.0.stream.sample_aspect_ratio">0</property>
  <property name="kdenlive:original.meta.media.0.codec.width">1920</property>
  <property name="kdenlive:original.meta.media.0.codec.height">1080</property>
  <property name="kdenlive:original.meta.media.0.codec.rotate">0</property>
  <property name="kdenlive:original.meta.media.0.codec.pix_fmt">yuv420p</property>
  <property name="kdenlive:original.meta.media.0.codec.sample_aspect_ratio">0</property>
  <property name="kdenlive:original.meta.media.0.codec.colorspace">709</property>
  <property name="kdenlive:original.meta.media.0.codec.name">h264</property>
  <property name="kdenlive:original.meta.media.0.codec.long_name">H.264 / AVC / MPEG-4 AVC / MPEG-4 part 10</property>
  <property name="kdenlive:original.meta.media.0.codec.bit_rate">1464522</property>
  <property name="kdenlive:original.meta.attr.0.stream.handler_name.markup">VideoHandler</property>
  <property name="kdenlive:original.meta.attr.0.stream.vendor_id.markup">[0][0][0][0]</property>
  <property name="kdenlive:original.meta.attr.0.stream.encoder.markup">Lavc60.3.100 libx264</property>
  <property name="kdenlive:original.meta.attr.major_brand.markup">isom</property>
  <property name="kdenlive:original.meta.attr.minor_version.markup">512</property>
  <property name="kdenlive:original.meta.attr.compatible_brands.markup">isomiso2avc1mp41</property>
  <property name="kdenlive:original.meta.attr.encoder.markup">Lavf60.3.100</property>
  <property name="kdenlive:original.meta.attr.comment.markup">Rendered with Manim Community v0.17.3</property>
  <property name="kdenlive:original.seekable">1</property>
  <property name="kdenlive:original.width">1920</property>
  <property name="kdenlive:original.height">1080</property>
  <property name="kdenlive:original.meta.media.sample_aspect_num">1</property>
  <property name="kdenlive:original.meta.media.sample_aspect_den">1</property>
  <property name="kdenlive:original.format">3</property>
  <property name="kdenlive:original.audio_index">-1</property>
  <property name="kdenlive:original.video_index">0</property>
  <property name="kdenlive:original.meta.media.frame_rate_num">60</property>
  <property name="kdenlive:original.meta.media.frame_rate_den">1</property>
  <property name="kdenlive:original.meta.media.colorspace">709</property>
  <property name="kdenlive:original.meta.media.color_trc">2</property>
  <property name="kdenlive:original.meta.media.has_b_frames">2</property>
  <property name="kdenlive:original.meta.media.width">1920</property>
  <property name="kdenlive:original.meta.media.height">1080</property>
  <property name="kdenlive:original.meta.media.color_range">mpeg</property>
  <property name="kdenlive:original.meta.media.top_field_first">0</property>
  <property name="kdenlive:original.meta.media.progressive">1</property>
  <property name="kdenlive:original.kdenlive:clip_type">2</property>
  <property name="kdenlive:original.kdenlive:folderid">16</property>
  <property name="kdenlive:original.kdenlive:id">136</property>
  <property name="kdenlive:original.mute_on_pause">0</property>
  <property name="kdenlive:original.kdenlive:file_size">276558</property>
  <property name="kdenlive:original.kdenlive:file_hash">26a8b2c39070bc8f72d02b738be20657</property>
  <property name="kdenlive:original.backup">1</property>
  <property name="meta.media.nb_streams">1</property>
  <property name="meta.media.0.stream.type">video</property>
  <property name="meta.media.0.stream.frame_rate">60</property>
  <property name="meta.media.0.stream.sample_aspect_ratio">0</property>
  <property name="meta.media.0.codec.width">640</property>
  <property name="meta.media.0.codec.height">360</property>
  <property name="meta.media.0.codec.rotate">0</property>
  <property name="meta.media.0.codec.pix_fmt">yuvj420p</property>
  <property name="meta.media.0.codec.sample_aspect_ratio">0</property>
  <property name="meta.media.0.codec.colorspace">601</property>
  <property name="meta.media.0.codec.name">mjpeg</property>
  <property name="meta.media.0.codec.long_name">MJPEG (Motion JPEG)</property>
  <property name="meta.media.0.codec.bit_rate">0</property>
  <property name="meta.attr.0.stream.HANDLER_NAME.markup">VideoHandler</property>
  <property name="meta.attr.0.stream.VENDOR_ID.markup">[0][0][0][0]</property>
  <property name="meta.attr.0.stream.ENCODER.markup">Lavc60.3.100 mjpeg</property>
  <property name="meta.attr.0.stream.DURATION.markup">00:00:01.500000000</property>
  <property name="meta.attr.COMMENT.markup">Rendered with Manim Community v0.17.3</property>
  <property name="meta.attr.MAJOR_BRAND.markup">isom</property>
  <property name="meta.attr.MINOR_VERSION.markup">512</property>
  <property name="meta.attr.COMPATIBLE_BRANDS.markup">isomiso2avc1mp41</property>
  <property name="meta.attr.ENCODER.markup">Lavf60.3.100</property>
  <property name="meta.media.sample_aspect_num">1</property>
  <property name="meta.media.sample_aspect_den">1</property>
  <property name="meta.media.frame_rate_num">60</property>
  <property name="meta.media.frame_rate_den">1</property>
  <property name="meta.media.colorspace">601</property>
  <property name="meta.media.color_trc">2</property>
  <property name="meta.media.has_b_frames">0</property>
  <property name="meta.media.width">640</property>
  <property name="meta.media.height">360</property>
  <property name="meta.media.color_range">full</property>
  <property name="xml">was here</property>
  <property name="meta.media.top_field_first">0</property>
  <property name="meta.media.progressive">1</property>
  <property name="set.test_audio">1</property>
  <property name="set.test_image">0</property>
 </chain>
 <chain id="chain569" out="00:00:01.483">
  <property name="length">90</property>
  <property name="eof">pause</property>
  <property name="resource">/home/xiaoxiae/.cache/kdenlive/proxy/9ff5487d0a94811150d8e0aab9d50ba6.mkv</property>
  <property name="mlt_service">avformat-novalidate</property>
  <property name="seekable">1</property>
  <property name="format">3</property>
  <property name="audio_index">-1</property>
  <property name="video_index">0</property>
  <property name="kdenlive:clipname">62.mp4</property>
  <property name="kdenlive:clip_type">2</property>
  <property name="kdenlive:folderid">16</property>
  <property name="kdenlive:id">137</property>
  <property name="mute_on_pause">0</property>
  <property name="kdenlive:file_size">312421</property>
  <property name="kdenlive:file_hash">9ff5487d0a94811150d8e0aab9d50ba6</property>
  <property name="kdenlive:proxy">/home/xiaoxiae/.cache/kdenlive/proxy/9ff5487d0a94811150d8e0aab9d50ba6.mkv</property>
  <property name="kdenlive:originalurl">video/Farmer/62.mp4</property>
  <property name="kdenlive:original.mlt_type">chain</property>
  <property name="kdenlive:original.in">0</property>
  <property name="kdenlive:original.out">00:00:01.483</property>
  <property name="kdenlive:original.length">90</property>
  <property name="kdenlive:original.eof">pause</property>
  <property name="kdenlive:original.resource">video/Farmer/62.mp4</property>
  <property name="kdenlive:original.mlt_service">avformat-novalidate</property>
  <property name="kdenlive:original.meta.media.nb_streams">1</property>
  <property name="kdenlive:original.meta.media.0.stream.type">video</property>
  <property name="kdenlive:original.meta.media.0.stream.frame_rate">60</property>
  <property name="kdenlive:original.meta.media.0.stream.sample_aspect_ratio">0</property>
  <property name="kdenlive:original.meta.media.0.codec.width">1920</property>
  <property name="kdenlive:original.meta.media.0.codec.height">1080</property>
  <property name="kdenlive:original.meta.media.0.codec.rotate">0</property>
  <property name="kdenlive:original.meta.media.0.codec.pix_fmt">yuv420p</property>
  <property name="kdenlive:original.meta.media.0.codec.sample_aspect_ratio">0</property>
  <property name="kdenlive:original.meta.media.0.codec.colorspace">709</property>
  <property name="kdenlive:original.meta.media.0.codec.name">h264</property>
  <property name="kdenlive:original.meta.media.0.codec.long_name">H.264 / AVC / MPEG-4 AVC / MPEG-4 part 10</property>
  <property name="kdenlive:original.meta.media.0.codec.bit_rate">1655834</property>
  <property name="kdenlive:original.meta.attr.0.stream.handler_name.markup">VideoHandler</property>
  <property name="kdenlive:original.meta.attr.0.stream.vendor_id.markup">[0][0][0][0]</property>
  <property name="kdenlive:original.meta.attr.0.stream.encoder.markup">Lavc60.3.100 libx264</property>
  <property name="kdenlive:original.meta.attr.major_brand.markup">isom</property>
  <property name="kdenlive:original.meta.attr.minor_version.markup">512</property>
  <property name="kdenlive:original.meta.attr.compatible_brands.markup">isomiso2avc1mp41</property>
  <property name="kdenlive:original.meta.attr.encoder.markup">Lavf60.3.100</property>
  <property name="kdenlive:original.meta.attr.comment.markup">Rendered with Manim Community v0.17.3</property>
  <property name="kdenlive:original.seekable">1</property>
  <property name="kdenlive:original.width">1920</property>
  <property name="kdenlive:original.height">1080</property>
  <property name="kdenlive:original.meta.media.sample_aspect_num">1</property>
  <property name="kdenlive:original.meta.media.sample_aspect_den">1</property>
  <property name="kdenlive:original.format">3</property>
  <property name="kdenlive:original.audio_index">-1</property>
  <property name="kdenlive:original.video_index">0</property>
  <property name="kdenlive:original.meta.media.frame_rate_num">60</property>
  <property name="kdenlive:original.meta.media.frame_rate_den">1</property>
  <property name="kdenlive:original.meta.media.colorspace">709</property>
  <property name="kdenlive:original.meta.media.color_trc">2</property>
  <property name="kdenlive:original.meta.media.has_b_frames">2</property>
  <property name="kdenlive:original.meta.media.width">1920</property>
  <property name="kdenlive:original.meta.media.height">1080</property>
  <property name="kdenlive:original.meta.media.color_range">mpeg</property>
  <property name="kdenlive:original.meta.media.top_field_first">0</property>
  <property name="kdenlive:original.meta.media.progressive">1</property>
  <property name="kdenlive:original.kdenlive:clip_type">2</property>
  <property name="kdenlive:original.kdenlive:folderid">16</property>
  <property name="kdenlive:original.kdenlive:id">137</property>
  <property name="kdenlive:original.mute_on_pause">0</property>
  <property name="kdenlive:original.kdenlive:file_size">312421</property>
  <property name="kdenlive:original.kdenlive:file_hash">9ff5487d0a94811150d8e0aab9d50ba6</property>
  <property name="kdenlive:original.backup">1</property>
  <property name="meta.media.nb_streams">1</property>
  <property name="meta.media.0.stream.type">video</property>
  <property name="meta.media.0.stream.frame_rate">60</property>
  <property name="meta.media.0.stream.sample_aspect_ratio">0</property>
  <property name="meta.media.0.codec.width">640</property>
  <property name="meta.media.0.codec.height">360</property>
  <property name="meta.media.0.codec.rotate">0</property>
  <property name="meta.media.0.codec.pix_fmt">yuvj420p</property>
  <property name="meta.media.0.codec.sample_aspect_ratio">0</property>
  <property name="meta.media.0.codec.colorspace">601</property>
  <property name="meta.media.0.codec.name">mjpeg</property>
  <property name="meta.media.0.codec.long_name">MJPEG (Motion JPEG)</property>
  <property name="meta.media.0.codec.bit_rate">0</property>
  <property name="meta.attr.0.stream.HANDLER_NAME.markup">VideoHandler</property>
  <property name="meta.attr.0.stream.VENDOR_ID.markup">[0][0][0][0]</property>
  <property name="meta.attr.0.stream.ENCODER.markup">Lavc60.3.100 mjpeg</property>
  <property name="meta.attr.0.stream.DURATION.markup">00:00:01.500000000</property>
  <property name="meta.attr.COMMENT.markup">Rendered with Manim Community v0.17.3</property>
  <property name="meta.attr.MAJOR_BRAND.markup">isom</property>
  <property name="meta.attr.MINOR_VERSION.markup">512</property>
  <property name="meta.attr.COMPATIBLE_BRANDS.markup">isomiso2avc1mp41</property>
  <property name="meta.attr.ENCODER.markup">Lavf60.3.100</property>
  <property name="meta.media.sample_aspect_num">1</property>
  <property name="meta.media.sample_aspect_den">1</property>
  <property name="meta.media.frame_rate_num">60</property>
  <property name="meta.media.frame_rate_den">1</property>
  <property name="meta.media.colorspace">601</property>
  <property name="meta.media.color_trc">2</property>
  <property name="meta.media.has_b_frames">0</property>
  <property name="meta.media.width">640</property>
  <property name="meta.media.height">360</property>
  <property name="meta.media.color_range">full</property>
  <property name="xml">was here</property>
  <property name="meta.media.top_field_first">0</property>
  <property name="meta.media.progressive">1</property>
  <property name="set.test_audio">1</property>
  <property name="set.test_image">0</property>
 </chain>
 <chain id="chain570" out="00:00:01.233">
  <property name="length">75</property>
  <property name="eof">pause</property>
  <property name="resource">/home/xiaoxiae/.cache/kdenlive/proxy/0d01d8695b754751b0ff094e0c9d48cb.mkv</property>
  <property name="mlt_service">avformat-novalidate</property>
  <property name="seekable">1</property>
  <property name="format">3</property>
  <property name="audio_index">-1</property>
  <property name="video_index">0</property>
  <property name="kdenlive:clipname">63.mp4</property>
  <property name="kdenlive:clip_type">2</property>
  <property name="kdenlive:folderid">16</property>
  <property name="kdenlive:id">138</property>
  <property name="mute_on_pause">0</property>
  <property name="kdenlive:file_size">81634</property>
  <property name="kdenlive:file_hash">0d01d8695b754751b0ff094e0c9d48cb</property>
  <property name="kdenlive:proxy">/home/xiaoxiae/.cache/kdenlive/proxy/0d01d8695b754751b0ff094e0c9d48cb.mkv</property>
  <property name="kdenlive:originalurl">video/Farmer/63.mp4</property>
  <property name="kdenlive:original.mlt_type">chain</property>
  <property name="kdenlive:original.in">0</property>
  <property name="kdenlive:original.out">00:00:01.233</property>
  <property name="kdenlive:original.length">75</property>
  <property name="kdenlive:original.eof">pause</property>
  <property name="kdenlive:original.resource">video/Farmer/63.mp4</property>
  <property name="kdenlive:original.mlt_service">avformat-novalidate</property>
  <property name="kdenlive:original.meta.media.nb_streams">1</property>
  <property name="kdenlive:original.meta.media.0.stream.type">video</property>
  <property name="kdenlive:original.meta.media.0.stream.frame_rate">60</property>
  <property name="kdenlive:original.meta.media.0.stream.sample_aspect_ratio">0</property>
  <property name="kdenlive:original.meta.media.0.codec.width">1920</property>
  <property name="kdenlive:original.meta.media.0.codec.height">1080</property>
  <property name="kdenlive:original.meta.media.0.codec.rotate">0</property>
  <property name="kdenlive:original.meta.media.0.codec.pix_fmt">yuv420p</property>
  <property name="kdenlive:original.meta.media.0.codec.sample_aspect_ratio">0</property>
  <property name="kdenlive:original.meta.media.0.codec.colorspace">709</property>
  <property name="kdenlive:original.meta.media.0.codec.name">h264</property>
  <property name="kdenlive:original.meta.media.0.codec.long_name">H.264 / AVC / MPEG-4 AVC / MPEG-4 part 10</property>
  <property name="kdenlive:original.meta.media.0.codec.bit_rate">510809</property>
  <property name="kdenlive:original.meta.attr.0.stream.handler_name.markup">VideoHandler</property>
  <property name="kdenlive:original.meta.attr.0.stream.vendor_id.markup">[0][0][0][0]</property>
  <property name="kdenlive:original.meta.attr.0.stream.encoder.markup">Lavc60.3.100 libx264</property>
  <property name="kdenlive:original.meta.attr.major_brand.markup">isom</property>
  <property name="kdenlive:original.meta.attr.minor_version.markup">512</property>
  <property name="kdenlive:original.meta.attr.compatible_brands.markup">isomiso2avc1mp41</property>
  <property name="kdenlive:original.meta.attr.encoder.markup">Lavf60.3.100</property>
  <property name="kdenlive:original.meta.attr.comment.markup">Rendered with Manim Community v0.17.3</property>
  <property name="kdenlive:original.seekable">1</property>
  <property name="kdenlive:original.width">1920</property>
  <property name="kdenlive:original.height">1080</property>
  <property name="kdenlive:original.meta.media.sample_aspect_num">1</property>
  <property name="kdenlive:original.meta.media.sample_aspect_den">1</property>
  <property name="kdenlive:original.format">3</property>
  <property name="kdenlive:original.audio_index">-1</property>
  <property name="kdenlive:original.video_index">0</property>
  <property name="kdenlive:original.meta.media.frame_rate_num">60</property>
  <property name="kdenlive:original.meta.media.frame_rate_den">1</property>
  <property name="kdenlive:original.meta.media.colorspace">709</property>
  <property name="kdenlive:original.meta.media.color_trc">2</property>
  <property name="kdenlive:original.meta.media.has_b_frames">2</property>
  <property name="kdenlive:original.meta.media.width">1920</property>
  <property name="kdenlive:original.meta.media.height">1080</property>
  <property name="kdenlive:original.meta.media.color_range">mpeg</property>
  <property name="kdenlive:original.meta.media.top_field_first">0</property>
  <property name="kdenlive:original.meta.media.progressive">1</property>
  <property name="kdenlive:original.kdenlive:clip_type">2</property>
  <property name="kdenlive:original.kdenlive:folderid">16</property>
  <property name="kdenlive:original.kdenlive:id">138</property>
  <property name="kdenlive:original.mute_on_pause">0</property>
  <property name="kdenlive:original.kdenlive:file_size">81634</property>
  <property name="kdenlive:original.kdenlive:file_hash">0d01d8695b754751b0ff094e0c9d48cb</property>
  <property name="kdenlive:original.backup">1</property>
  <property name="meta.media.nb_streams">1</property>
  <property name="meta.media.0.stream.type">video</property>
  <property name="meta.media.0.stream.frame_rate">60</property>
  <property name="meta.media.0.stream.sample_aspect_ratio">0</property>
  <property name="meta.media.0.codec.width">640</property>
  <property name="meta.media.0.codec.height">360</property>
  <property name="meta.media.0.codec.rotate">0</property>
  <property name="meta.media.0.codec.pix_fmt">yuvj420p</property>
  <property name="meta.media.0.codec.sample_aspect_ratio">0</property>
  <property name="meta.media.0.codec.colorspace">601</property>
  <property name="meta.media.0.codec.name">mjpeg</property>
  <property name="meta.media.0.codec.long_name">MJPEG (Motion JPEG)</property>
  <property name="meta.media.0.codec.bit_rate">0</property>
  <property name="meta.attr.0.stream.HANDLER_NAME.markup">VideoHandler</property>
  <property name="meta.attr.0.stream.VENDOR_ID.markup">[0][0][0][0]</property>
  <property name="meta.attr.0.stream.ENCODER.markup">Lavc60.3.100 mjpeg</property>
  <property name="meta.attr.0.stream.DURATION.markup">00:00:01.250000000</property>
  <property name="meta.attr.COMMENT.markup">Rendered with Manim Community v0.17.3</property>
  <property name="meta.attr.MAJOR_BRAND.markup">isom</property>
  <property name="meta.attr.MINOR_VERSION.markup">512</property>
  <property name="meta.attr.COMPATIBLE_BRANDS.markup">isomiso2avc1mp41</property>
  <property name="meta.attr.ENCODER.markup">Lavf60.3.100</property>
  <property name="meta.media.sample_aspect_num">1</property>
  <property name="meta.media.sample_aspect_den">1</property>
  <property name="meta.media.frame_rate_num">60</property>
  <property name="meta.media.frame_rate_den">1</property>
  <property name="meta.media.colorspace">601</property>
  <property name="meta.media.color_trc">2</property>
  <property name="meta.media.has_b_frames">0</property>
  <property name="meta.media.width">640</property>
  <property name="meta.media.height">360</property>
  <property name="meta.media.color_range">full</property>
  <property name="xml">was here</property>
  <property name="meta.media.top_field_first">0</property>
  <property name="meta.media.progressive">1</property>
  <property name="set.test_audio">1</property>
  <property name="set.test_image">0</property>
 </chain>
 <chain id="chain571" out="00:00:00.983">
  <property name="length">60</property>
  <property name="eof">pause</property>
  <property name="resource">/home/xiaoxiae/.cache/kdenlive/proxy/ad3de6df6f057e9f4074d63cdc0774ad.mkv</property>
  <property name="mlt_service">avformat-novalidate</property>
  <property name="seekable">1</property>
  <property name="format">3</property>
  <property name="audio_index">-1</property>
  <property name="video_index">0</property>
  <property name="kdenlive:clipname">64.mp4</property>
  <property name="kdenlive:clip_type">2</property>
  <property name="kdenlive:folderid">16</property>
  <property name="kdenlive:id">139</property>
  <property name="mute_on_pause">0</property>
  <property name="kdenlive:file_size">245361</property>
  <property name="kdenlive:file_hash">ad3de6df6f057e9f4074d63cdc0774ad</property>
  <property name="kdenlive:proxy">/home/xiaoxiae/.cache/kdenlive/proxy/ad3de6df6f057e9f4074d63cdc0774ad.mkv</property>
  <property name="kdenlive:originalurl">video/Farmer/64.mp4</property>
  <property name="kdenlive:original.mlt_type">chain</property>
  <property name="kdenlive:original.in">0</property>
  <property name="kdenlive:original.out">00:00:00.983</property>
  <property name="kdenlive:original.length">60</property>
  <property name="kdenlive:original.eof">pause</property>
  <property name="kdenlive:original.resource">video/Farmer/64.mp4</property>
  <property name="kdenlive:original.mlt_service">avformat-novalidate</property>
  <property name="kdenlive:original.meta.media.nb_streams">1</property>
  <property name="kdenlive:original.meta.media.0.stream.type">video</property>
  <property name="kdenlive:original.meta.media.0.stream.frame_rate">60</property>
  <property name="kdenlive:original.meta.media.0.stream.sample_aspect_ratio">0</property>
  <property name="kdenlive:original.meta.media.0.codec.width">1920</property>
  <property name="kdenlive:original.meta.media.0.codec.height">1080</property>
  <property name="kdenlive:original.meta.media.0.codec.rotate">0</property>
  <property name="kdenlive:original.meta.media.0.codec.pix_fmt">yuv420p</property>
  <property name="kdenlive:original.meta.media.0.codec.sample_aspect_ratio">0</property>
  <property name="kdenlive:original.meta.media.0.codec.colorspace">709</property>
  <property name="kdenlive:original.meta.media.0.codec.name">h264</property>
  <property name="kdenlive:original.meta.media.0.codec.long_name">H.264 / AVC / MPEG-4 AVC / MPEG-4 part 10</property>
  <property name="kdenlive:original.meta.media.0.codec.bit_rate">1951112</property>
  <property name="kdenlive:original.meta.attr.0.stream.handler_name.markup">VideoHandler</property>
  <property name="kdenlive:original.meta.attr.0.stream.vendor_id.markup">[0][0][0][0]</property>
  <property name="kdenlive:original.meta.attr.0.stream.encoder.markup">Lavc60.3.100 libx264</property>
  <property name="kdenlive:original.meta.attr.major_brand.markup">isom</property>
  <property name="kdenlive:original.meta.attr.minor_version.markup">512</property>
  <property name="kdenlive:original.meta.attr.compatible_brands.markup">isomiso2avc1mp41</property>
  <property name="kdenlive:original.meta.attr.encoder.markup">Lavf60.3.100</property>
  <property name="kdenlive:original.meta.attr.comment.markup">Rendered with Manim Community v0.17.3</property>
  <property name="kdenlive:original.seekable">1</property>
  <property name="kdenlive:original.width">1920</property>
  <property name="kdenlive:original.height">1080</property>
  <property name="kdenlive:original.meta.media.sample_aspect_num">1</property>
  <property name="kdenlive:original.meta.media.sample_aspect_den">1</property>
  <property name="kdenlive:original.format">3</property>
  <property name="kdenlive:original.audio_index">-1</property>
  <property name="kdenlive:original.video_index">0</property>
  <property name="kdenlive:original.meta.media.frame_rate_num">60</property>
  <property name="kdenlive:original.meta.media.frame_rate_den">1</property>
  <property name="kdenlive:original.meta.media.colorspace">709</property>
  <property name="kdenlive:original.meta.media.color_trc">2</property>
  <property name="kdenlive:original.meta.media.has_b_frames">2</property>
  <property name="kdenlive:original.meta.media.width">1920</property>
  <property name="kdenlive:original.meta.media.height">1080</property>
  <property name="kdenlive:original.meta.media.color_range">mpeg</property>
  <property name="kdenlive:original.meta.media.top_field_first">0</property>
  <property name="kdenlive:original.meta.media.progressive">1</property>
  <property name="kdenlive:original.kdenlive:clip_type">2</property>
  <property name="kdenlive:original.kdenlive:folderid">16</property>
  <property name="kdenlive:original.kdenlive:id">139</property>
  <property name="kdenlive:original.mute_on_pause">0</property>
  <property name="kdenlive:original.kdenlive:file_size">245361</property>
  <property name="kdenlive:original.kdenlive:file_hash">ad3de6df6f057e9f4074d63cdc0774ad</property>
  <property name="kdenlive:original.backup">1</property>
  <property name="meta.media.nb_streams">1</property>
  <property name="meta.media.0.stream.type">video</property>
  <property name="meta.media.0.stream.frame_rate">60</property>
  <property name="meta.media.0.stream.sample_aspect_ratio">0</property>
  <property name="meta.media.0.codec.width">640</property>
  <property name="meta.media.0.codec.height">360</property>
  <property name="meta.media.0.codec.rotate">0</property>
  <property name="meta.media.0.codec.pix_fmt">yuvj420p</property>
  <property name="meta.media.0.codec.sample_aspect_ratio">0</property>
  <property name="meta.media.0.codec.colorspace">601</property>
  <property name="meta.media.0.codec.name">mjpeg</property>
  <property name="meta.media.0.codec.long_name">MJPEG (Motion JPEG)</property>
  <property name="meta.media.0.codec.bit_rate">0</property>
  <property name="meta.attr.0.stream.HANDLER_NAME.markup">VideoHandler</property>
  <property name="meta.attr.0.stream.VENDOR_ID.markup">[0][0][0][0]</property>
  <property name="meta.attr.0.stream.ENCODER.markup">Lavc60.3.100 mjpeg</property>
  <property name="meta.attr.0.stream.DURATION.markup">00:00:01.000000000</property>
  <property name="meta.attr.COMMENT.markup">Rendered with Manim Community v0.17.3</property>
  <property name="meta.attr.MAJOR_BRAND.markup">isom</property>
  <property name="meta.attr.MINOR_VERSION.markup">512</property>
  <property name="meta.attr.COMPATIBLE_BRANDS.markup">isomiso2avc1mp41</property>
  <property name="meta.attr.ENCODER.markup">Lavf60.3.100</property>
  <property name="meta.media.sample_aspect_num">1</property>
  <property name="meta.media.sample_aspect_den">1</property>
  <property name="meta.media.frame_rate_num">60</property>
  <property name="meta.media.frame_rate_den">1</property>
  <property name="meta.media.colorspace">601</property>
  <property name="meta.media.color_trc">2</property>
  <property name="meta.media.has_b_frames">0</property>
  <property name="meta.media.width">640</property>
  <property name="meta.media.height">360</property>
  <property name="meta.media.color_range">full</property>
  <property name="xml">was here</property>
  <property name="meta.media.top_field_first">0</property>
  <property name="meta.media.progressive">1</property>
  <property name="set.test_audio">1</property>
  <property name="set.test_image">0</property>
 </chain>
 <chain id="chain572" out="00:00:01.483">
  <property name="length">90</property>
  <property name="eof">pause</property>
  <property name="resource">/home/xiaoxiae/.cache/kdenlive/proxy/a3bca883079e410efbed96b570d0fdad.mkv</property>
  <property name="mlt_service">avformat-novalidate</property>
  <property name="seekable">1</property>
  <property name="format">3</property>
  <property name="audio_index">-1</property>
  <property name="video_index">0</property>
  <property name="kdenlive:clipname">65.mp4</property>
  <property name="kdenlive:clip_type">2</property>
  <property name="kdenlive:folderid">16</property>
  <property name="kdenlive:id">140</property>
  <property name="mute_on_pause">0</property>
  <property name="kdenlive:file_size">247983</property>
  <property name="kdenlive:file_hash">a3bca883079e410efbed96b570d0fdad</property>
  <property name="kdenlive:proxy">/home/xiaoxiae/.cache/kdenlive/proxy/a3bca883079e410efbed96b570d0fdad.mkv</property>
  <property name="kdenlive:originalurl">video/Farmer/65.mp4</property>
  <property name="kdenlive:original.mlt_type">chain</property>
  <property name="kdenlive:original.in">0</property>
  <property name="kdenlive:original.out">00:00:01.483</property>
  <property name="kdenlive:original.length">90</property>
  <property name="kdenlive:original.eof">pause</property>
  <property name="kdenlive:original.resource">video/Farmer/65.mp4</property>
  <property name="kdenlive:original.mlt_service">avformat-novalidate</property>
  <property name="kdenlive:original.meta.media.nb_streams">1</property>
  <property name="kdenlive:original.meta.media.0.stream.type">video</property>
  <property name="kdenlive:original.meta.media.0.stream.frame_rate">60</property>
  <property name="kdenlive:original.meta.media.0.stream.sample_aspect_ratio">0</property>
  <property name="kdenlive:original.meta.media.0.codec.width">1920</property>
  <property name="kdenlive:original.meta.media.0.codec.height">1080</property>
  <property name="kdenlive:original.meta.media.0.codec.rotate">0</property>
  <property name="kdenlive:original.meta.media.0.codec.pix_fmt">yuv420p</property>
  <property name="kdenlive:original.meta.media.0.codec.sample_aspect_ratio">0</property>
  <property name="kdenlive:original.meta.media.0.codec.colorspace">709</property>
  <property name="kdenlive:original.meta.media.0.codec.name">h264</property>
  <property name="kdenlive:original.meta.media.0.codec.long_name">H.264 / AVC / MPEG-4 AVC / MPEG-4 part 10</property>
  <property name="kdenlive:original.meta.media.0.codec.bit_rate">1312250</property>
  <property name="kdenlive:original.meta.attr.0.stream.handler_name.markup">VideoHandler</property>
  <property name="kdenlive:original.meta.attr.0.stream.vendor_id.markup">[0][0][0][0]</property>
  <property name="kdenlive:original.meta.attr.0.stream.encoder.markup">Lavc60.3.100 libx264</property>
  <property name="kdenlive:original.meta.attr.major_brand.markup">isom</property>
  <property name="kdenlive:original.meta.attr.minor_version.markup">512</property>
  <property name="kdenlive:original.meta.attr.compatible_brands.markup">isomiso2avc1mp41</property>
  <property name="kdenlive:original.meta.attr.encoder.markup">Lavf60.3.100</property>
  <property name="kdenlive:original.meta.attr.comment.markup">Rendered with Manim Community v0.17.3</property>
  <property name="kdenlive:original.seekable">1</property>
  <property name="kdenlive:original.width">1920</property>
  <property name="kdenlive:original.height">1080</property>
  <property name="kdenlive:original.meta.media.sample_aspect_num">1</property>
  <property name="kdenlive:original.meta.media.sample_aspect_den">1</property>
  <property name="kdenlive:original.format">3</property>
  <property name="kdenlive:original.audio_index">-1</property>
  <property name="kdenlive:original.video_index">0</property>
  <property name="kdenlive:original.meta.media.frame_rate_num">60</property>
  <property name="kdenlive:original.meta.media.frame_rate_den">1</property>
  <property name="kdenlive:original.meta.media.colorspace">709</property>
  <property name="kdenlive:original.meta.media.color_trc">2</property>
  <property name="kdenlive:original.meta.media.has_b_frames">2</property>
  <property name="kdenlive:original.meta.media.width">1920</property>
  <property name="kdenlive:original.meta.media.height">1080</property>
  <property name="kdenlive:original.meta.media.color_range">mpeg</property>
  <property name="kdenlive:original.meta.media.top_field_first">0</property>
  <property name="kdenlive:original.meta.media.progressive">1</property>
  <property name="kdenlive:original.kdenlive:clip_type">2</property>
  <property name="kdenlive:original.kdenlive:folderid">16</property>
  <property name="kdenlive:original.kdenlive:id">140</property>
  <property name="kdenlive:original.mute_on_pause">0</property>
  <property name="kdenlive:original.kdenlive:file_size">247983</property>
  <property name="kdenlive:original.kdenlive:file_hash">a3bca883079e410efbed96b570d0fdad</property>
  <property name="kdenlive:original.backup">1</property>
  <property name="meta.media.nb_streams">1</property>
  <property name="meta.media.0.stream.type">video</property>
  <property name="meta.media.0.stream.frame_rate">60</property>
  <property name="meta.media.0.stream.sample_aspect_ratio">0</property>
  <property name="meta.media.0.codec.width">640</property>
  <property name="meta.media.0.codec.height">360</property>
  <property name="meta.media.0.codec.rotate">0</property>
  <property name="meta.media.0.codec.pix_fmt">yuvj420p</property>
  <property name="meta.media.0.codec.sample_aspect_ratio">0</property>
  <property name="meta.media.0.codec.colorspace">601</property>
  <property name="meta.media.0.codec.name">mjpeg</property>
  <property name="meta.media.0.codec.long_name">MJPEG (Motion JPEG)</property>
  <property name="meta.media.0.codec.bit_rate">0</property>
  <property name="meta.attr.0.stream.HANDLER_NAME.markup">VideoHandler</property>
  <property name="meta.attr.0.stream.VENDOR_ID.markup">[0][0][0][0]</property>
  <property name="meta.attr.0.stream.ENCODER.markup">Lavc60.3.100 mjpeg</property>
  <property name="meta.attr.0.stream.DURATION.markup">00:00:01.500000000</property>
  <property name="meta.attr.COMMENT.markup">Rendered with Manim Community v0.17.3</property>
  <property name="meta.attr.MAJOR_BRAND.markup">isom</property>
  <property name="meta.attr.MINOR_VERSION.markup">512</property>
  <property name="meta.attr.COMPATIBLE_BRANDS.markup">isomiso2avc1mp41</property>
  <property name="meta.attr.ENCODER.markup">Lavf60.3.100</property>
  <property name="meta.media.sample_aspect_num">1</property>
  <property name="meta.media.sample_aspect_den">1</property>
  <property name="meta.media.frame_rate_num">60</property>
  <property name="meta.media.frame_rate_den">1</property>
  <property name="meta.media.colorspace">601</property>
  <property name="meta.media.color_trc">2</property>
  <property name="meta.media.has_b_frames">0</property>
  <property name="meta.media.width">640</property>
  <property name="meta.media.height">360</property>
  <property name="meta.media.color_range">full</property>
  <property name="xml">was here</property>
  <property name="meta.media.top_field_first">0</property>
  <property name="meta.media.progressive">1</property>
  <property name="set.test_audio">1</property>
  <property name="set.test_image">0</property>
 </chain>
 <chain id="chain573" out="00:00:00.983">
  <property name="length">60</property>
  <property name="eof">pause</property>
  <property name="resource">/home/xiaoxiae/.cache/kdenlive/proxy/49d259df3bc68d37e47c738664678bf0.mkv</property>
  <property name="mlt_service">avformat-novalidate</property>
  <property name="seekable">1</property>
  <property name="format">3</property>
  <property name="audio_index">-1</property>
  <property name="video_index">0</property>
  <property name="kdenlive:clipname">66.mp4</property>
  <property name="kdenlive:clip_type">2</property>
  <property name="kdenlive:folderid">16</property>
  <property name="kdenlive:id">141</property>
  <property name="mute_on_pause">0</property>
  <property name="kdenlive:file_size">84622</property>
  <property name="kdenlive:file_hash">49d259df3bc68d37e47c738664678bf0</property>
  <property name="kdenlive:proxy">/home/xiaoxiae/.cache/kdenlive/proxy/49d259df3bc68d37e47c738664678bf0.mkv</property>
  <property name="kdenlive:originalurl">video/Farmer/66.mp4</property>
  <property name="kdenlive:original.mlt_type">chain</property>
  <property name="kdenlive:original.in">0</property>
  <property name="kdenlive:original.out">00:00:00.983</property>
  <property name="kdenlive:original.length">60</property>
  <property name="kdenlive:original.eof">pause</property>
  <property name="kdenlive:original.resource">video/Farmer/66.mp4</property>
  <property name="kdenlive:original.mlt_service">avformat-novalidate</property>
  <property name="kdenlive:original.meta.media.nb_streams">1</property>
  <property name="kdenlive:original.meta.media.0.stream.type">video</property>
  <property name="kdenlive:original.meta.media.0.stream.frame_rate">60</property>
  <property name="kdenlive:original.meta.media.0.stream.sample_aspect_ratio">0</property>
  <property name="kdenlive:original.meta.media.0.codec.width">1920</property>
  <property name="kdenlive:original.meta.media.0.codec.height">1080</property>
  <property name="kdenlive:original.meta.media.0.codec.rotate">0</property>
  <property name="kdenlive:original.meta.media.0.codec.pix_fmt">yuv420p</property>
  <property name="kdenlive:original.meta.media.0.codec.sample_aspect_ratio">0</property>
  <property name="kdenlive:original.meta.media.0.codec.colorspace">709</property>
  <property name="kdenlive:original.meta.media.0.codec.name">h264</property>
  <property name="kdenlive:original.meta.media.0.codec.long_name">H.264 / AVC / MPEG-4 AVC / MPEG-4 part 10</property>
  <property name="kdenlive:original.meta.media.0.codec.bit_rate">663920</property>
  <property name="kdenlive:original.meta.attr.0.stream.handler_name.markup">VideoHandler</property>
  <property name="kdenlive:original.meta.attr.0.stream.vendor_id.markup">[0][0][0][0]</property>
  <property name="kdenlive:original.meta.attr.0.stream.encoder.markup">Lavc60.3.100 libx264</property>
  <property name="kdenlive:original.meta.attr.major_brand.markup">isom</property>
  <property name="kdenlive:original.meta.attr.minor_version.markup">512</property>
  <property name="kdenlive:original.meta.attr.compatible_brands.markup">isomiso2avc1mp41</property>
  <property name="kdenlive:original.meta.attr.encoder.markup">Lavf60.3.100</property>
  <property name="kdenlive:original.meta.attr.comment.markup">Rendered with Manim Community v0.17.3</property>
  <property name="kdenlive:original.seekable">1</property>
  <property name="kdenlive:original.width">1920</property>
  <property name="kdenlive:original.height">1080</property>
  <property name="kdenlive:original.meta.media.sample_aspect_num">1</property>
  <property name="kdenlive:original.meta.media.sample_aspect_den">1</property>
  <property name="kdenlive:original.format">3</property>
  <property name="kdenlive:original.audio_index">-1</property>
  <property name="kdenlive:original.video_index">0</property>
  <property name="kdenlive:original.meta.media.frame_rate_num">60</property>
  <property name="kdenlive:original.meta.media.frame_rate_den">1</property>
  <property name="kdenlive:original.meta.media.colorspace">709</property>
  <property name="kdenlive:original.meta.media.color_trc">2</property>
  <property name="kdenlive:original.meta.media.has_b_frames">2</property>
  <property name="kdenlive:original.meta.media.width">1920</property>
  <property name="kdenlive:original.meta.media.height">1080</property>
  <property name="kdenlive:original.meta.media.color_range">mpeg</property>
  <property name="kdenlive:original.meta.media.top_field_first">0</property>
  <property name="kdenlive:original.meta.media.progressive">1</property>
  <property name="kdenlive:original.kdenlive:clip_type">2</property>
  <property name="kdenlive:original.kdenlive:folderid">16</property>
  <property name="kdenlive:original.kdenlive:id">141</property>
  <property name="kdenlive:original.mute_on_pause">0</property>
  <property name="kdenlive:original.kdenlive:file_size">84622</property>
  <property name="kdenlive:original.kdenlive:file_hash">49d259df3bc68d37e47c738664678bf0</property>
  <property name="kdenlive:original.backup">1</property>
  <property name="meta.media.nb_streams">1</property>
  <property name="meta.media.0.stream.type">video</property>
  <property name="meta.media.0.stream.frame_rate">60</property>
  <property name="meta.media.0.stream.sample_aspect_ratio">0</property>
  <property name="meta.media.0.codec.width">640</property>
  <property name="meta.media.0.codec.height">360</property>
  <property name="meta.media.0.codec.rotate">0</property>
  <property name="meta.media.0.codec.pix_fmt">yuvj420p</property>
  <property name="meta.media.0.codec.sample_aspect_ratio">0</property>
  <property name="meta.media.0.codec.colorspace">601</property>
  <property name="meta.media.0.codec.name">mjpeg</property>
  <property name="meta.media.0.codec.long_name">MJPEG (Motion JPEG)</property>
  <property name="meta.media.0.codec.bit_rate">0</property>
  <property name="meta.attr.0.stream.HANDLER_NAME.markup">VideoHandler</property>
  <property name="meta.attr.0.stream.VENDOR_ID.markup">[0][0][0][0]</property>
  <property name="meta.attr.0.stream.ENCODER.markup">Lavc60.3.100 mjpeg</property>
  <property name="meta.attr.0.stream.DURATION.markup">00:00:01.000000000</property>
  <property name="meta.attr.COMMENT.markup">Rendered with Manim Community v0.17.3</property>
  <property name="meta.attr.MAJOR_BRAND.markup">isom</property>
  <property name="meta.attr.MINOR_VERSION.markup">512</property>
  <property name="meta.attr.COMPATIBLE_BRANDS.markup">isomiso2avc1mp41</property>
  <property name="meta.attr.ENCODER.markup">Lavf60.3.100</property>
  <property name="meta.media.sample_aspect_num">1</property>
  <property name="meta.media.sample_aspect_den">1</property>
  <property name="meta.media.frame_rate_num">60</property>
  <property name="meta.media.frame_rate_den">1</property>
  <property name="meta.media.colorspace">601</property>
  <property name="meta.media.color_trc">2</property>
  <property name="meta.media.has_b_frames">0</property>
  <property name="meta.media.width">640</property>
  <property name="meta.media.height">360</property>
  <property name="meta.media.color_range">full</property>
  <property name="xml">was here</property>
  <property name="meta.media.top_field_first">0</property>
  <property name="meta.media.progressive">1</property>
  <property name="set.test_audio">1</property>
  <property name="set.test_image">0</property>
 </chain>
 <chain id="chain574" out="00:00:00.983">
  <property name="length">60</property>
  <property name="eof">pause</property>
  <property name="resource">/home/xiaoxiae/.cache/kdenlive/proxy/7305c7d6b9a5b7ce5380b3474d704206.mkv</property>
  <property name="mlt_service">avformat-novalidate</property>
  <property name="seekable">1</property>
  <property name="format">3</property>
  <property name="audio_index">-1</property>
  <property name="video_index">0</property>
  <property name="kdenlive:clipname">67.mp4</property>
  <property name="kdenlive:clip_type">2</property>
  <property name="kdenlive:folderid">16</property>
  <property name="kdenlive:id">142</property>
  <property name="mute_on_pause">0</property>
  <property name="kdenlive:file_size">88233</property>
  <property name="kdenlive:file_hash">7305c7d6b9a5b7ce5380b3474d704206</property>
  <property name="kdenlive:proxy">/home/xiaoxiae/.cache/kdenlive/proxy/7305c7d6b9a5b7ce5380b3474d704206.mkv</property>
  <property name="kdenlive:originalurl">video/Farmer/67.mp4</property>
  <property name="kdenlive:original.mlt_type">chain</property>
  <property name="kdenlive:original.in">0</property>
  <property name="kdenlive:original.out">00:00:00.983</property>
  <property name="kdenlive:original.length">60</property>
  <property name="kdenlive:original.eof">pause</property>
  <property name="kdenlive:original.resource">video/Farmer/67.mp4</property>
  <property name="kdenlive:original.mlt_service">avformat-novalidate</property>
  <property name="kdenlive:original.meta.media.nb_streams">1</property>
  <property name="kdenlive:original.meta.media.0.stream.type">video</property>
  <property name="kdenlive:original.meta.media.0.stream.frame_rate">60</property>
  <property name="kdenlive:original.meta.media.0.stream.sample_aspect_ratio">0</property>
  <property name="kdenlive:original.meta.media.0.codec.width">1920</property>
  <property name="kdenlive:original.meta.media.0.codec.height">1080</property>
  <property name="kdenlive:original.meta.media.0.codec.rotate">0</property>
  <property name="kdenlive:original.meta.media.0.codec.pix_fmt">yuv420p</property>
  <property name="kdenlive:original.meta.media.0.codec.sample_aspect_ratio">0</property>
  <property name="kdenlive:original.meta.media.0.codec.colorspace">709</property>
  <property name="kdenlive:original.meta.media.0.codec.name">h264</property>
  <property name="kdenlive:original.meta.media.0.codec.long_name">H.264 / AVC / MPEG-4 AVC / MPEG-4 part 10</property>
  <property name="kdenlive:original.meta.media.0.codec.bit_rate">693256</property>
  <property name="kdenlive:original.meta.attr.0.stream.handler_name.markup">VideoHandler</property>
  <property name="kdenlive:original.meta.attr.0.stream.vendor_id.markup">[0][0][0][0]</property>
  <property name="kdenlive:original.meta.attr.0.stream.encoder.markup">Lavc60.3.100 libx264</property>
  <property name="kdenlive:original.meta.attr.major_brand.markup">isom</property>
  <property name="kdenlive:original.meta.attr.minor_version.markup">512</property>
  <property name="kdenlive:original.meta.attr.compatible_brands.markup">isomiso2avc1mp41</property>
  <property name="kdenlive:original.meta.attr.encoder.markup">Lavf60.3.100</property>
  <property name="kdenlive:original.meta.attr.comment.markup">Rendered with Manim Community v0.17.3</property>
  <property name="kdenlive:original.seekable">1</property>
  <property name="kdenlive:original.width">1920</property>
  <property name="kdenlive:original.height">1080</property>
  <property name="kdenlive:original.meta.media.sample_aspect_num">1</property>
  <property name="kdenlive:original.meta.media.sample_aspect_den">1</property>
  <property name="kdenlive:original.format">3</property>
  <property name="kdenlive:original.audio_index">-1</property>
  <property name="kdenlive:original.video_index">0</property>
  <property name="kdenlive:original.meta.media.frame_rate_num">60</property>
  <property name="kdenlive:original.meta.media.frame_rate_den">1</property>
  <property name="kdenlive:original.meta.media.colorspace">709</property>
  <property name="kdenlive:original.meta.media.color_trc">2</property>
  <property name="kdenlive:original.meta.media.has_b_frames">2</property>
  <property name="kdenlive:original.meta.media.width">1920</property>
  <property name="kdenlive:original.meta.media.height">1080</property>
  <property name="kdenlive:original.meta.media.color_range">mpeg</property>
  <property name="kdenlive:original.meta.media.top_field_first">0</property>
  <property name="kdenlive:original.meta.media.progressive">1</property>
  <property name="kdenlive:original.kdenlive:clip_type">2</property>
  <property name="kdenlive:original.kdenlive:folderid">16</property>
  <property name="kdenlive:original.kdenlive:id">142</property>
  <property name="kdenlive:original.mute_on_pause">0</property>
  <property name="kdenlive:original.kdenlive:file_size">88233</property>
  <property name="kdenlive:original.kdenlive:file_hash">7305c7d6b9a5b7ce5380b3474d704206</property>
  <property name="kdenlive:original.backup">1</property>
  <property name="meta.media.nb_streams">1</property>
  <property name="meta.media.0.stream.type">video</property>
  <property name="meta.media.0.stream.frame_rate">60</property>
  <property name="meta.media.0.stream.sample_aspect_ratio">0</property>
  <property name="meta.media.0.codec.width">640</property>
  <property name="meta.media.0.codec.height">360</property>
  <property name="meta.media.0.codec.rotate">0</property>
  <property name="meta.media.0.codec.pix_fmt">yuvj420p</property>
  <property name="meta.media.0.codec.sample_aspect_ratio">0</property>
  <property name="meta.media.0.codec.colorspace">601</property>
  <property name="meta.media.0.codec.name">mjpeg</property>
  <property name="meta.media.0.codec.long_name">MJPEG (Motion JPEG)</property>
  <property name="meta.media.0.codec.bit_rate">0</property>
  <property name="meta.attr.0.stream.HANDLER_NAME.markup">VideoHandler</property>
  <property name="meta.attr.0.stream.VENDOR_ID.markup">[0][0][0][0]</property>
  <property name="meta.attr.0.stream.ENCODER.markup">Lavc60.3.100 mjpeg</property>
  <property name="meta.attr.0.stream.DURATION.markup">00:00:01.000000000</property>
  <property name="meta.attr.COMMENT.markup">Rendered with Manim Community v0.17.3</property>
  <property name="meta.attr.MAJOR_BRAND.markup">isom</property>
  <property name="meta.attr.MINOR_VERSION.markup">512</property>
  <property name="meta.attr.COMPATIBLE_BRANDS.markup">isomiso2avc1mp41</property>
  <property name="meta.attr.ENCODER.markup">Lavf60.3.100</property>
  <property name="meta.media.sample_aspect_num">1</property>
  <property name="meta.media.sample_aspect_den">1</property>
  <property name="meta.media.frame_rate_num">60</property>
  <property name="meta.media.frame_rate_den">1</property>
  <property name="meta.media.colorspace">601</property>
  <property name="meta.media.color_trc">2</property>
  <property name="meta.media.has_b_frames">0</property>
  <property name="meta.media.width">640</property>
  <property name="meta.media.height">360</property>
  <property name="meta.media.color_range">full</property>
  <property name="xml">was here</property>
  <property name="meta.media.top_field_first">0</property>
  <property name="meta.media.progressive">1</property>
  <property name="set.test_audio">1</property>
  <property name="set.test_image">0</property>
 </chain>
 <chain id="chain575" out="00:00:00.983">
  <property name="length">60</property>
  <property name="eof">pause</property>
  <property name="resource">/home/xiaoxiae/.cache/kdenlive/proxy/561bc8dacf9dff5894ead08f45c921a1.mkv</property>
  <property name="mlt_service">avformat-novalidate</property>
  <property name="seekable">1</property>
  <property name="format">3</property>
  <property name="audio_index">-1</property>
  <property name="video_index">0</property>
  <property name="kdenlive:clipname">68.mp4</property>
  <property name="kdenlive:clip_type">2</property>
  <property name="kdenlive:folderid">16</property>
  <property name="kdenlive:id">143</property>
  <property name="mute_on_pause">0</property>
  <property name="kdenlive:file_size">117870</property>
  <property name="kdenlive:file_hash">561bc8dacf9dff5894ead08f45c921a1</property>
  <property name="kdenlive:proxy">/home/xiaoxiae/.cache/kdenlive/proxy/561bc8dacf9dff5894ead08f45c921a1.mkv</property>
  <property name="kdenlive:originalurl">video/Farmer/68.mp4</property>
  <property name="kdenlive:original.mlt_type">chain</property>
  <property name="kdenlive:original.in">0</property>
  <property name="kdenlive:original.out">00:00:00.983</property>
  <property name="kdenlive:original.length">60</property>
  <property name="kdenlive:original.eof">pause</property>
  <property name="kdenlive:original.resource">video/Farmer/68.mp4</property>
  <property name="kdenlive:original.mlt_service">avformat-novalidate</property>
  <property name="kdenlive:original.meta.media.nb_streams">1</property>
  <property name="kdenlive:original.meta.media.0.stream.type">video</property>
  <property name="kdenlive:original.meta.media.0.stream.frame_rate">60</property>
  <property name="kdenlive:original.meta.media.0.stream.sample_aspect_ratio">0</property>
  <property name="kdenlive:original.meta.media.0.codec.width">1920</property>
  <property name="kdenlive:original.meta.media.0.codec.height">1080</property>
  <property name="kdenlive:original.meta.media.0.codec.rotate">0</property>
  <property name="kdenlive:original.meta.media.0.codec.pix_fmt">yuv420p</property>
  <property name="kdenlive:original.meta.media.0.codec.sample_aspect_ratio">0</property>
  <property name="kdenlive:original.meta.media.0.codec.colorspace">709</property>
  <property name="kdenlive:original.meta.media.0.codec.name">h264</property>
  <property name="kdenlive:original.meta.media.0.codec.long_name">H.264 / AVC / MPEG-4 AVC / MPEG-4 part 10</property>
  <property name="kdenlive:original.meta.media.0.codec.bit_rate">930352</property>
  <property name="kdenlive:original.meta.attr.0.stream.handler_name.markup">VideoHandler</property>
  <property name="kdenlive:original.meta.attr.0.stream.vendor_id.markup">[0][0][0][0]</property>
  <property name="kdenlive:original.meta.attr.0.stream.encoder.markup">Lavc60.3.100 libx264</property>
  <property name="kdenlive:original.meta.attr.major_brand.markup">isom</property>
  <property name="kdenlive:original.meta.attr.minor_version.markup">512</property>
  <property name="kdenlive:original.meta.attr.compatible_brands.markup">isomiso2avc1mp41</property>
  <property name="kdenlive:original.meta.attr.encoder.markup">Lavf60.3.100</property>
  <property name="kdenlive:original.meta.attr.comment.markup">Rendered with Manim Community v0.17.3</property>
  <property name="kdenlive:original.seekable">1</property>
  <property name="kdenlive:original.width">1920</property>
  <property name="kdenlive:original.height">1080</property>
  <property name="kdenlive:original.meta.media.sample_aspect_num">1</property>
  <property name="kdenlive:original.meta.media.sample_aspect_den">1</property>
  <property name="kdenlive:original.format">3</property>
  <property name="kdenlive:original.audio_index">-1</property>
  <property name="kdenlive:original.video_index">0</property>
  <property name="kdenlive:original.meta.media.frame_rate_num">60</property>
  <property name="kdenlive:original.meta.media.frame_rate_den">1</property>
  <property name="kdenlive:original.meta.media.colorspace">709</property>
  <property name="kdenlive:original.meta.media.color_trc">2</property>
  <property name="kdenlive:original.meta.media.has_b_frames">2</property>
  <property name="kdenlive:original.meta.media.width">1920</property>
  <property name="kdenlive:original.meta.media.height">1080</property>
  <property name="kdenlive:original.meta.media.color_range">mpeg</property>
  <property name="kdenlive:original.meta.media.top_field_first">0</property>
  <property name="kdenlive:original.meta.media.progressive">1</property>
  <property name="kdenlive:original.kdenlive:clip_type">2</property>
  <property name="kdenlive:original.kdenlive:folderid">16</property>
  <property name="kdenlive:original.kdenlive:id">143</property>
  <property name="kdenlive:original.mute_on_pause">0</property>
  <property name="kdenlive:original.kdenlive:file_size">117870</property>
  <property name="kdenlive:original.kdenlive:file_hash">561bc8dacf9dff5894ead08f45c921a1</property>
  <property name="kdenlive:original.backup">1</property>
  <property name="meta.media.nb_streams">1</property>
  <property name="meta.media.0.stream.type">video</property>
  <property name="meta.media.0.stream.frame_rate">60</property>
  <property name="meta.media.0.stream.sample_aspect_ratio">0</property>
  <property name="meta.media.0.codec.width">640</property>
  <property name="meta.media.0.codec.height">360</property>
  <property name="meta.media.0.codec.rotate">0</property>
  <property name="meta.media.0.codec.pix_fmt">yuvj420p</property>
  <property name="meta.media.0.codec.sample_aspect_ratio">0</property>
  <property name="meta.media.0.codec.colorspace">601</property>
  <property name="meta.media.0.codec.name">mjpeg</property>
  <property name="meta.media.0.codec.long_name">MJPEG (Motion JPEG)</property>
  <property name="meta.media.0.codec.bit_rate">0</property>
  <property name="meta.attr.0.stream.HANDLER_NAME.markup">VideoHandler</property>
  <property name="meta.attr.0.stream.VENDOR_ID.markup">[0][0][0][0]</property>
  <property name="meta.attr.0.stream.ENCODER.markup">Lavc60.3.100 mjpeg</property>
  <property name="meta.attr.0.stream.DURATION.markup">00:00:01.000000000</property>
  <property name="meta.attr.COMMENT.markup">Rendered with Manim Community v0.17.3</property>
  <property name="meta.attr.MAJOR_BRAND.markup">isom</property>
  <property name="meta.attr.MINOR_VERSION.markup">512</property>
  <property name="meta.attr.COMPATIBLE_BRANDS.markup">isomiso2avc1mp41</property>
  <property name="meta.attr.ENCODER.markup">Lavf60.3.100</property>
  <property name="meta.media.sample_aspect_num">1</property>
  <property name="meta.media.sample_aspect_den">1</property>
  <property name="meta.media.frame_rate_num">60</property>
  <property name="meta.media.frame_rate_den">1</property>
  <property name="meta.media.colorspace">601</property>
  <property name="meta.media.color_trc">2</property>
  <property name="meta.media.has_b_frames">0</property>
  <property name="meta.media.width">640</property>
  <property name="meta.media.height">360</property>
  <property name="meta.media.color_range">full</property>
  <property name="xml">was here</property>
  <property name="meta.media.top_field_first">0</property>
  <property name="meta.media.progressive">1</property>
  <property name="set.test_audio">1</property>
  <property name="set.test_image">0</property>
 </chain>
 <chain id="chain576" out="00:00:01.983">
  <property name="length">120</property>
  <property name="eof">pause</property>
  <property name="resource">/home/xiaoxiae/.cache/kdenlive/proxy/0eaa9935d177951e9642bc3cae0880e5.mkv</property>
  <property name="mlt_service">avformat-novalidate</property>
  <property name="seekable">1</property>
  <property name="format">3</property>
  <property name="audio_index">-1</property>
  <property name="video_index">0</property>
  <property name="kdenlive:clipname">69.mp4</property>
  <property name="kdenlive:clip_type">2</property>
  <property name="kdenlive:folderid">16</property>
  <property name="kdenlive:id">144</property>
  <property name="mute_on_pause">0</property>
  <property name="kdenlive:file_size">123850</property>
  <property name="kdenlive:file_hash">0eaa9935d177951e9642bc3cae0880e5</property>
  <property name="kdenlive:proxy">/home/xiaoxiae/.cache/kdenlive/proxy/0eaa9935d177951e9642bc3cae0880e5.mkv</property>
  <property name="kdenlive:originalurl">video/Farmer/69.mp4</property>
  <property name="kdenlive:original.mlt_type">chain</property>
  <property name="kdenlive:original.in">0</property>
  <property name="kdenlive:original.out">00:00:01.983</property>
  <property name="kdenlive:original.length">120</property>
  <property name="kdenlive:original.eof">pause</property>
  <property name="kdenlive:original.resource">video/Farmer/69.mp4</property>
  <property name="kdenlive:original.mlt_service">avformat-novalidate</property>
  <property name="kdenlive:original.meta.media.nb_streams">1</property>
  <property name="kdenlive:original.meta.media.0.stream.type">video</property>
  <property name="kdenlive:original.meta.media.0.stream.frame_rate">60</property>
  <property name="kdenlive:original.meta.media.0.stream.sample_aspect_ratio">0</property>
  <property name="kdenlive:original.meta.media.0.codec.width">1920</property>
  <property name="kdenlive:original.meta.media.0.codec.height">1080</property>
  <property name="kdenlive:original.meta.media.0.codec.rotate">0</property>
  <property name="kdenlive:original.meta.media.0.codec.pix_fmt">yuv420p</property>
  <property name="kdenlive:original.meta.media.0.codec.sample_aspect_ratio">0</property>
  <property name="kdenlive:original.meta.media.0.codec.colorspace">709</property>
  <property name="kdenlive:original.meta.media.0.codec.name">h264</property>
  <property name="kdenlive:original.meta.media.0.codec.long_name">H.264 / AVC / MPEG-4 AVC / MPEG-4 part 10</property>
  <property name="kdenlive:original.meta.media.0.codec.bit_rate">486056</property>
  <property name="kdenlive:original.meta.attr.0.stream.handler_name.markup">VideoHandler</property>
  <property name="kdenlive:original.meta.attr.0.stream.vendor_id.markup">[0][0][0][0]</property>
  <property name="kdenlive:original.meta.attr.0.stream.encoder.markup">Lavc60.3.100 libx264</property>
  <property name="kdenlive:original.meta.attr.major_brand.markup">isom</property>
  <property name="kdenlive:original.meta.attr.minor_version.markup">512</property>
  <property name="kdenlive:original.meta.attr.compatible_brands.markup">isomiso2avc1mp41</property>
  <property name="kdenlive:original.meta.attr.encoder.markup">Lavf60.3.100</property>
  <property name="kdenlive:original.meta.attr.comment.markup">Rendered with Manim Community v0.17.3</property>
  <property name="kdenlive:original.seekable">1</property>
  <property name="kdenlive:original.width">1920</property>
  <property name="kdenlive:original.height">1080</property>
  <property name="kdenlive:original.meta.media.sample_aspect_num">1</property>
  <property name="kdenlive:original.meta.media.sample_aspect_den">1</property>
  <property name="kdenlive:original.format">3</property>
  <property name="kdenlive:original.audio_index">-1</property>
  <property name="kdenlive:original.video_index">0</property>
  <property name="kdenlive:original.meta.media.frame_rate_num">60</property>
  <property name="kdenlive:original.meta.media.frame_rate_den">1</property>
  <property name="kdenlive:original.meta.media.colorspace">709</property>
  <property name="kdenlive:original.meta.media.color_trc">2</property>
  <property name="kdenlive:original.meta.media.has_b_frames">2</property>
  <property name="kdenlive:original.meta.media.width">1920</property>
  <property name="kdenlive:original.meta.media.height">1080</property>
  <property name="kdenlive:original.meta.media.color_range">mpeg</property>
  <property name="kdenlive:original.meta.media.top_field_first">0</property>
  <property name="kdenlive:original.meta.media.progressive">1</property>
  <property name="kdenlive:original.kdenlive:clip_type">2</property>
  <property name="kdenlive:original.kdenlive:folderid">16</property>
  <property name="kdenlive:original.kdenlive:id">144</property>
  <property name="kdenlive:original.mute_on_pause">0</property>
  <property name="kdenlive:original.kdenlive:file_size">123850</property>
  <property name="kdenlive:original.kdenlive:file_hash">0eaa9935d177951e9642bc3cae0880e5</property>
  <property name="kdenlive:original.backup">1</property>
  <property name="meta.media.nb_streams">1</property>
  <property name="meta.media.0.stream.type">video</property>
  <property name="meta.media.0.stream.frame_rate">60</property>
  <property name="meta.media.0.stream.sample_aspect_ratio">0</property>
  <property name="meta.media.0.codec.width">640</property>
  <property name="meta.media.0.codec.height">360</property>
  <property name="meta.media.0.codec.rotate">0</property>
  <property name="meta.media.0.codec.pix_fmt">yuvj420p</property>
  <property name="meta.media.0.codec.sample_aspect_ratio">0</property>
  <property name="meta.media.0.codec.colorspace">601</property>
  <property name="meta.media.0.codec.name">mjpeg</property>
  <property name="meta.media.0.codec.long_name">MJPEG (Motion JPEG)</property>
  <property name="meta.media.0.codec.bit_rate">0</property>
  <property name="meta.attr.0.stream.HANDLER_NAME.markup">VideoHandler</property>
  <property name="meta.attr.0.stream.VENDOR_ID.markup">[0][0][0][0]</property>
  <property name="meta.attr.0.stream.ENCODER.markup">Lavc60.3.100 mjpeg</property>
  <property name="meta.attr.0.stream.DURATION.markup">00:00:02.000000000</property>
  <property name="meta.attr.COMMENT.markup">Rendered with Manim Community v0.17.3</property>
  <property name="meta.attr.MAJOR_BRAND.markup">isom</property>
  <property name="meta.attr.MINOR_VERSION.markup">512</property>
  <property name="meta.attr.COMPATIBLE_BRANDS.markup">isomiso2avc1mp41</property>
  <property name="meta.attr.ENCODER.markup">Lavf60.3.100</property>
  <property name="meta.media.sample_aspect_num">1</property>
  <property name="meta.media.sample_aspect_den">1</property>
  <property name="meta.media.frame_rate_num">60</property>
  <property name="meta.media.frame_rate_den">1</property>
  <property name="meta.media.colorspace">601</property>
  <property name="meta.media.color_trc">2</property>
  <property name="meta.media.has_b_frames">0</property>
  <property name="meta.media.width">640</property>
  <property name="meta.media.height">360</property>
  <property name="meta.media.color_range">full</property>
  <property name="xml">was here</property>
  <property name="meta.media.top_field_first">0</property>
  <property name="meta.media.progressive">1</property>
  <property name="set.test_audio">1</property>
  <property name="set.test_image">0</property>
 </chain>
 <chain id="chain577" out="00:00:00.983">
  <property name="length">60</property>
  <property name="eof">pause</property>
  <property name="resource">/home/xiaoxiae/.cache/kdenlive/proxy/d4c55c768f96f53bc57a754d1419f5bc.mkv</property>
  <property name="mlt_service">avformat-novalidate</property>
  <property name="seekable">1</property>
  <property name="format">3</property>
  <property name="audio_index">-1</property>
  <property name="video_index">0</property>
  <property name="kdenlive:clipname">70.mp4</property>
  <property name="kdenlive:clip_type">2</property>
  <property name="kdenlive:folderid">16</property>
  <property name="kdenlive:id">146</property>
  <property name="mute_on_pause">0</property>
  <property name="kdenlive:file_size">59958</property>
  <property name="kdenlive:file_hash">d4c55c768f96f53bc57a754d1419f5bc</property>
  <property name="kdenlive:proxy">/home/xiaoxiae/.cache/kdenlive/proxy/d4c55c768f96f53bc57a754d1419f5bc.mkv</property>
  <property name="kdenlive:originalurl">video/Farmer/70.mp4</property>
  <property name="kdenlive:original.mlt_type">chain</property>
  <property name="kdenlive:original.in">0</property>
  <property name="kdenlive:original.out">00:00:00.983</property>
  <property name="kdenlive:original.length">60</property>
  <property name="kdenlive:original.eof">pause</property>
  <property name="kdenlive:original.resource">video/Farmer/70.mp4</property>
  <property name="kdenlive:original.mlt_service">avformat-novalidate</property>
  <property name="kdenlive:original.meta.media.nb_streams">1</property>
  <property name="kdenlive:original.meta.media.0.stream.type">video</property>
  <property name="kdenlive:original.meta.media.0.stream.frame_rate">60</property>
  <property name="kdenlive:original.meta.media.0.stream.sample_aspect_ratio">0</property>
  <property name="kdenlive:original.meta.media.0.codec.width">1920</property>
  <property name="kdenlive:original.meta.media.0.codec.height">1080</property>
  <property name="kdenlive:original.meta.media.0.codec.rotate">0</property>
  <property name="kdenlive:original.meta.media.0.codec.pix_fmt">yuv420p</property>
  <property name="kdenlive:original.meta.media.0.codec.sample_aspect_ratio">0</property>
  <property name="kdenlive:original.meta.media.0.codec.colorspace">709</property>
  <property name="kdenlive:original.meta.media.0.codec.name">h264</property>
  <property name="kdenlive:original.meta.media.0.codec.long_name">H.264 / AVC / MPEG-4 AVC / MPEG-4 part 10</property>
  <property name="kdenlive:original.meta.media.0.codec.bit_rate">466608</property>
  <property name="kdenlive:original.meta.attr.0.stream.handler_name.markup">VideoHandler</property>
  <property name="kdenlive:original.meta.attr.0.stream.vendor_id.markup">[0][0][0][0]</property>
  <property name="kdenlive:original.meta.attr.0.stream.encoder.markup">Lavc60.3.100 libx264</property>
  <property name="kdenlive:original.meta.attr.major_brand.markup">isom</property>
  <property name="kdenlive:original.meta.attr.minor_version.markup">512</property>
  <property name="kdenlive:original.meta.attr.compatible_brands.markup">isomiso2avc1mp41</property>
  <property name="kdenlive:original.meta.attr.encoder.markup">Lavf60.3.100</property>
  <property name="kdenlive:original.meta.attr.comment.markup">Rendered with Manim Community v0.17.3</property>
  <property name="kdenlive:original.seekable">1</property>
  <property name="kdenlive:original.width">1920</property>
  <property name="kdenlive:original.height">1080</property>
  <property name="kdenlive:original.meta.media.sample_aspect_num">1</property>
  <property name="kdenlive:original.meta.media.sample_aspect_den">1</property>
  <property name="kdenlive:original.format">3</property>
  <property name="kdenlive:original.audio_index">-1</property>
  <property name="kdenlive:original.video_index">0</property>
  <property name="kdenlive:original.meta.media.frame_rate_num">60</property>
  <property name="kdenlive:original.meta.media.frame_rate_den">1</property>
  <property name="kdenlive:original.meta.media.colorspace">709</property>
  <property name="kdenlive:original.meta.media.color_trc">2</property>
  <property name="kdenlive:original.meta.media.has_b_frames">2</property>
  <property name="kdenlive:original.meta.media.width">1920</property>
  <property name="kdenlive:original.meta.media.height">1080</property>
  <property name="kdenlive:original.meta.media.color_range">mpeg</property>
  <property name="kdenlive:original.meta.media.top_field_first">0</property>
  <property name="kdenlive:original.meta.media.progressive">1</property>
  <property name="kdenlive:original.kdenlive:clip_type">2</property>
  <property name="kdenlive:original.kdenlive:folderid">16</property>
  <property name="kdenlive:original.kdenlive:id">146</property>
  <property name="kdenlive:original.mute_on_pause">0</property>
  <property name="kdenlive:original.kdenlive:file_size">59958</property>
  <property name="kdenlive:original.kdenlive:file_hash">d4c55c768f96f53bc57a754d1419f5bc</property>
  <property name="kdenlive:original.backup">1</property>
  <property name="meta.media.nb_streams">1</property>
  <property name="meta.media.0.stream.type">video</property>
  <property name="meta.media.0.stream.frame_rate">60</property>
  <property name="meta.media.0.stream.sample_aspect_ratio">0</property>
  <property name="meta.media.0.codec.width">640</property>
  <property name="meta.media.0.codec.height">360</property>
  <property name="meta.media.0.codec.rotate">0</property>
  <property name="meta.media.0.codec.pix_fmt">yuvj420p</property>
  <property name="meta.media.0.codec.sample_aspect_ratio">0</property>
  <property name="meta.media.0.codec.colorspace">601</property>
  <property name="meta.media.0.codec.name">mjpeg</property>
  <property name="meta.media.0.codec.long_name">MJPEG (Motion JPEG)</property>
  <property name="meta.media.0.codec.bit_rate">0</property>
  <property name="meta.attr.0.stream.HANDLER_NAME.markup">VideoHandler</property>
  <property name="meta.attr.0.stream.VENDOR_ID.markup">[0][0][0][0]</property>
  <property name="meta.attr.0.stream.ENCODER.markup">Lavc60.3.100 mjpeg</property>
  <property name="meta.attr.0.stream.DURATION.markup">00:00:01.000000000</property>
  <property name="meta.attr.COMMENT.markup">Rendered with Manim Community v0.17.3</property>
  <property name="meta.attr.MAJOR_BRAND.markup">isom</property>
  <property name="meta.attr.MINOR_VERSION.markup">512</property>
  <property name="meta.attr.COMPATIBLE_BRANDS.markup">isomiso2avc1mp41</property>
  <property name="meta.attr.ENCODER.markup">Lavf60.3.100</property>
  <property name="meta.media.sample_aspect_num">1</property>
  <property name="meta.media.sample_aspect_den">1</property>
  <property name="meta.media.frame_rate_num">60</property>
  <property name="meta.media.frame_rate_den">1</property>
  <property name="meta.media.colorspace">601</property>
  <property name="meta.media.color_trc">2</property>
  <property name="meta.media.has_b_frames">0</property>
  <property name="meta.media.width">640</property>
  <property name="meta.media.height">360</property>
  <property name="meta.media.color_range">full</property>
  <property name="xml">was here</property>
  <property name="meta.media.top_field_first">0</property>
  <property name="meta.media.progressive">1</property>
  <property name="set.test_audio">1</property>
  <property name="set.test_image">0</property>
 </chain>
 <chain id="chain578" out="00:00:00.983">
  <property name="length">60</property>
  <property name="eof">pause</property>
  <property name="resource">/home/xiaoxiae/.cache/kdenlive/proxy/222a81798c92f7cff3954d7e4c258d8d.mkv</property>
  <property name="mlt_service">avformat-novalidate</property>
  <property name="seekable">1</property>
  <property name="format">3</property>
  <property name="audio_index">-1</property>
  <property name="video_index">0</property>
  <property name="kdenlive:clipname">71.mp4</property>
  <property name="kdenlive:clip_type">2</property>
  <property name="kdenlive:folderid">16</property>
  <property name="kdenlive:id">147</property>
  <property name="mute_on_pause">0</property>
  <property name="kdenlive:file_size">58674</property>
  <property name="kdenlive:file_hash">222a81798c92f7cff3954d7e4c258d8d</property>
  <property name="kdenlive:proxy">/home/xiaoxiae/.cache/kdenlive/proxy/222a81798c92f7cff3954d7e4c258d8d.mkv</property>
  <property name="kdenlive:originalurl">video/Farmer/71.mp4</property>
  <property name="kdenlive:original.mlt_type">chain</property>
  <property name="kdenlive:original.in">0</property>
  <property name="kdenlive:original.out">00:00:00.983</property>
  <property name="kdenlive:original.length">60</property>
  <property name="kdenlive:original.eof">pause</property>
  <property name="kdenlive:original.resource">video/Farmer/71.mp4</property>
  <property name="kdenlive:original.mlt_service">avformat-novalidate</property>
  <property name="kdenlive:original.meta.media.nb_streams">1</property>
  <property name="kdenlive:original.meta.media.0.stream.type">video</property>
  <property name="kdenlive:original.meta.media.0.stream.frame_rate">60</property>
  <property name="kdenlive:original.meta.media.0.stream.sample_aspect_ratio">0</property>
  <property name="kdenlive:original.meta.media.0.codec.width">1920</property>
  <property name="kdenlive:original.meta.media.0.codec.height">1080</property>
  <property name="kdenlive:original.meta.media.0.codec.rotate">0</property>
  <property name="kdenlive:original.meta.media.0.codec.pix_fmt">yuv420p</property>
  <property name="kdenlive:original.meta.media.0.codec.sample_aspect_ratio">0</property>
  <property name="kdenlive:original.meta.media.0.codec.colorspace">709</property>
  <property name="kdenlive:original.meta.media.0.codec.name">h264</property>
  <property name="kdenlive:original.meta.media.0.codec.long_name">H.264 / AVC / MPEG-4 AVC / MPEG-4 part 10</property>
  <property name="kdenlive:original.meta.media.0.codec.bit_rate">456336</property>
  <property name="kdenlive:original.meta.attr.0.stream.handler_name.markup">VideoHandler</property>
  <property name="kdenlive:original.meta.attr.0.stream.vendor_id.markup">[0][0][0][0]</property>
  <property name="kdenlive:original.meta.attr.0.stream.encoder.markup">Lavc60.3.100 libx264</property>
  <property name="kdenlive:original.meta.attr.major_brand.markup">isom</property>
  <property name="kdenlive:original.meta.attr.minor_version.markup">512</property>
  <property name="kdenlive:original.meta.attr.compatible_brands.markup">isomiso2avc1mp41</property>
  <property name="kdenlive:original.meta.attr.encoder.markup">Lavf60.3.100</property>
  <property name="kdenlive:original.meta.attr.comment.markup">Rendered with Manim Community v0.17.3</property>
  <property name="kdenlive:original.seekable">1</property>
  <property name="kdenlive:original.width">1920</property>
  <property name="kdenlive:original.height">1080</property>
  <property name="kdenlive:original.meta.media.sample_aspect_num">1</property>
  <property name="kdenlive:original.meta.media.sample_aspect_den">1</property>
  <property name="kdenlive:original.format">3</property>
  <property name="kdenlive:original.audio_index">-1</property>
  <property name="kdenlive:original.video_index">0</property>
  <property name="kdenlive:original.meta.media.frame_rate_num">60</property>
  <property name="kdenlive:original.meta.media.frame_rate_den">1</property>
  <property name="kdenlive:original.meta.media.colorspace">709</property>
  <property name="kdenlive:original.meta.media.color_trc">2</property>
  <property name="kdenlive:original.meta.media.has_b_frames">2</property>
  <property name="kdenlive:original.meta.media.width">1920</property>
  <property name="kdenlive:original.meta.media.height">1080</property>
  <property name="kdenlive:original.meta.media.color_range">mpeg</property>
  <property name="kdenlive:original.meta.media.top_field_first">0</property>
  <property name="kdenlive:original.meta.media.progressive">1</property>
  <property name="kdenlive:original.kdenlive:clip_type">2</property>
  <property name="kdenlive:original.kdenlive:folderid">16</property>
  <property name="kdenlive:original.kdenlive:id">147</property>
  <property name="kdenlive:original.mute_on_pause">0</property>
  <property name="kdenlive:original.kdenlive:file_size">58674</property>
  <property name="kdenlive:original.kdenlive:file_hash">222a81798c92f7cff3954d7e4c258d8d</property>
  <property name="kdenlive:original.backup">1</property>
  <property name="meta.media.nb_streams">1</property>
  <property name="meta.media.0.stream.type">video</property>
  <property name="meta.media.0.stream.frame_rate">60</property>
  <property name="meta.media.0.stream.sample_aspect_ratio">0</property>
  <property name="meta.media.0.codec.width">640</property>
  <property name="meta.media.0.codec.height">360</property>
  <property name="meta.media.0.codec.rotate">0</property>
  <property name="meta.media.0.codec.pix_fmt">yuvj420p</property>
  <property name="meta.media.0.codec.sample_aspect_ratio">0</property>
  <property name="meta.media.0.codec.colorspace">601</property>
  <property name="meta.media.0.codec.name">mjpeg</property>
  <property name="meta.media.0.codec.long_name">MJPEG (Motion JPEG)</property>
  <property name="meta.media.0.codec.bit_rate">0</property>
  <property name="meta.attr.0.stream.HANDLER_NAME.markup">VideoHandler</property>
  <property name="meta.attr.0.stream.VENDOR_ID.markup">[0][0][0][0]</property>
  <property name="meta.attr.0.stream.ENCODER.markup">Lavc60.3.100 mjpeg</property>
  <property name="meta.attr.0.stream.DURATION.markup">00:00:01.000000000</property>
  <property name="meta.attr.COMMENT.markup">Rendered with Manim Community v0.17.3</property>
  <property name="meta.attr.MAJOR_BRAND.markup">isom</property>
  <property name="meta.attr.MINOR_VERSION.markup">512</property>
  <property name="meta.attr.COMPATIBLE_BRANDS.markup">isomiso2avc1mp41</property>
  <property name="meta.attr.ENCODER.markup">Lavf60.3.100</property>
  <property name="meta.media.sample_aspect_num">1</property>
  <property name="meta.media.sample_aspect_den">1</property>
  <property name="meta.media.frame_rate_num">60</property>
  <property name="meta.media.frame_rate_den">1</property>
  <property name="meta.media.colorspace">601</property>
  <property name="meta.media.color_trc">2</property>
  <property name="meta.media.has_b_frames">0</property>
  <property name="meta.media.width">640</property>
  <property name="meta.media.height">360</property>
  <property name="meta.media.color_range">full</property>
  <property name="xml">was here</property>
  <property name="meta.media.top_field_first">0</property>
  <property name="meta.media.progressive">1</property>
  <property name="set.test_audio">1</property>
  <property name="set.test_image">0</property>
 </chain>
 <chain id="chain579" out="00:00:00.983">
  <property name="length">60</property>
  <property name="eof">pause</property>
  <property name="resource">/home/xiaoxiae/.cache/kdenlive/proxy/0f82ad38daccda0982ffa74b8e2182d7.mkv</property>
  <property name="mlt_service">avformat-novalidate</property>
  <property name="seekable">1</property>
  <property name="format">3</property>
  <property name="audio_index">-1</property>
  <property name="video_index">0</property>
  <property name="kdenlive:clipname">72.mp4</property>
  <property name="kdenlive:clip_type">2</property>
  <property name="kdenlive:folderid">16</property>
  <property name="kdenlive:id">148</property>
  <property name="mute_on_pause">0</property>
  <property name="kdenlive:file_size">65523</property>
  <property name="kdenlive:file_hash">0f82ad38daccda0982ffa74b8e2182d7</property>
  <property name="kdenlive:proxy">/home/xiaoxiae/.cache/kdenlive/proxy/0f82ad38daccda0982ffa74b8e2182d7.mkv</property>
  <property name="kdenlive:originalurl">video/Farmer/72.mp4</property>
  <property name="kdenlive:original.mlt_type">chain</property>
  <property name="kdenlive:original.in">0</property>
  <property name="kdenlive:original.out">00:00:00.983</property>
  <property name="kdenlive:original.length">60</property>
  <property name="kdenlive:original.eof">pause</property>
  <property name="kdenlive:original.resource">video/Farmer/72.mp4</property>
  <property name="kdenlive:original.mlt_service">avformat-novalidate</property>
  <property name="kdenlive:original.meta.media.nb_streams">1</property>
  <property name="kdenlive:original.meta.media.0.stream.type">video</property>
  <property name="kdenlive:original.meta.media.0.stream.frame_rate">60</property>
  <property name="kdenlive:original.meta.media.0.stream.sample_aspect_ratio">0</property>
  <property name="kdenlive:original.meta.media.0.codec.width">1920</property>
  <property name="kdenlive:original.meta.media.0.codec.height">1080</property>
  <property name="kdenlive:original.meta.media.0.codec.rotate">0</property>
  <property name="kdenlive:original.meta.media.0.codec.pix_fmt">yuv420p</property>
  <property name="kdenlive:original.meta.media.0.codec.sample_aspect_ratio">0</property>
  <property name="kdenlive:original.meta.media.0.codec.colorspace">709</property>
  <property name="kdenlive:original.meta.media.0.codec.name">h264</property>
  <property name="kdenlive:original.meta.media.0.codec.long_name">H.264 / AVC / MPEG-4 AVC / MPEG-4 part 10</property>
  <property name="kdenlive:original.meta.media.0.codec.bit_rate">511128</property>
  <property name="kdenlive:original.meta.attr.0.stream.handler_name.markup">VideoHandler</property>
  <property name="kdenlive:original.meta.attr.0.stream.vendor_id.markup">[0][0][0][0]</property>
  <property name="kdenlive:original.meta.attr.0.stream.encoder.markup">Lavc60.3.100 libx264</property>
  <property name="kdenlive:original.meta.attr.major_brand.markup">isom</property>
  <property name="kdenlive:original.meta.attr.minor_version.markup">512</property>
  <property name="kdenlive:original.meta.attr.compatible_brands.markup">isomiso2avc1mp41</property>
  <property name="kdenlive:original.meta.attr.encoder.markup">Lavf60.3.100</property>
  <property name="kdenlive:original.meta.attr.comment.markup">Rendered with Manim Community v0.17.3</property>
  <property name="kdenlive:original.seekable">1</property>
  <property name="kdenlive:original.width">1920</property>
  <property name="kdenlive:original.height">1080</property>
  <property name="kdenlive:original.meta.media.sample_aspect_num">1</property>
  <property name="kdenlive:original.meta.media.sample_aspect_den">1</property>
  <property name="kdenlive:original.format">3</property>
  <property name="kdenlive:original.audio_index">-1</property>
  <property name="kdenlive:original.video_index">0</property>
  <property name="kdenlive:original.meta.media.frame_rate_num">60</property>
  <property name="kdenlive:original.meta.media.frame_rate_den">1</property>
  <property name="kdenlive:original.meta.media.colorspace">709</property>
  <property name="kdenlive:original.meta.media.color_trc">2</property>
  <property name="kdenlive:original.meta.media.has_b_frames">2</property>
  <property name="kdenlive:original.meta.media.width">1920</property>
  <property name="kdenlive:original.meta.media.height">1080</property>
  <property name="kdenlive:original.meta.media.color_range">mpeg</property>
  <property name="kdenlive:original.meta.media.top_field_first">0</property>
  <property name="kdenlive:original.meta.media.progressive">1</property>
  <property name="kdenlive:original.kdenlive:clip_type">2</property>
  <property name="kdenlive:original.kdenlive:folderid">16</property>
  <property name="kdenlive:original.kdenlive:id">148</property>
  <property name="kdenlive:original.mute_on_pause">0</property>
  <property name="kdenlive:original.kdenlive:file_size">65523</property>
  <property name="kdenlive:original.kdenlive:file_hash">0f82ad38daccda0982ffa74b8e2182d7</property>
  <property name="kdenlive:original.backup">1</property>
  <property name="meta.media.nb_streams">1</property>
  <property name="meta.media.0.stream.type">video</property>
  <property name="meta.media.0.stream.frame_rate">60</property>
  <property name="meta.media.0.stream.sample_aspect_ratio">0</property>
  <property name="meta.media.0.codec.width">640</property>
  <property name="meta.media.0.codec.height">360</property>
  <property name="meta.media.0.codec.rotate">0</property>
  <property name="meta.media.0.codec.pix_fmt">yuvj420p</property>
  <property name="meta.media.0.codec.sample_aspect_ratio">0</property>
  <property name="meta.media.0.codec.colorspace">601</property>
  <property name="meta.media.0.codec.name">mjpeg</property>
  <property name="meta.media.0.codec.long_name">MJPEG (Motion JPEG)</property>
  <property name="meta.media.0.codec.bit_rate">0</property>
  <property name="meta.attr.0.stream.HANDLER_NAME.markup">VideoHandler</property>
  <property name="meta.attr.0.stream.VENDOR_ID.markup">[0][0][0][0]</property>
  <property name="meta.attr.0.stream.ENCODER.markup">Lavc60.3.100 mjpeg</property>
  <property name="meta.attr.0.stream.DURATION.markup">00:00:01.000000000</property>
  <property name="meta.attr.COMMENT.markup">Rendered with Manim Community v0.17.3</property>
  <property name="meta.attr.MAJOR_BRAND.markup">isom</property>
  <property name="meta.attr.MINOR_VERSION.markup">512</property>
  <property name="meta.attr.COMPATIBLE_BRANDS.markup">isomiso2avc1mp41</property>
  <property name="meta.attr.ENCODER.markup">Lavf60.3.100</property>
  <property name="meta.media.sample_aspect_num">1</property>
  <property name="meta.media.sample_aspect_den">1</property>
  <property name="meta.media.frame_rate_num">60</property>
  <property name="meta.media.frame_rate_den">1</property>
  <property name="meta.media.colorspace">601</property>
  <property name="meta.media.color_trc">2</property>
  <property name="meta.media.has_b_frames">0</property>
  <property name="meta.media.width">640</property>
  <property name="meta.media.height">360</property>
  <property name="meta.media.color_range">full</property>
  <property name="xml">was here</property>
  <property name="meta.media.top_field_first">0</property>
  <property name="meta.media.progressive">1</property>
  <property name="set.test_audio">1</property>
  <property name="set.test_image">0</property>
 </chain>
 <chain id="chain580" out="00:00:01.233">
  <property name="length">75</property>
  <property name="eof">pause</property>
  <property name="resource">/home/xiaoxiae/.cache/kdenlive/proxy/438821924c77addc301aa481e20b620b.mkv</property>
  <property name="mlt_service">avformat-novalidate</property>
  <property name="seekable">1</property>
  <property name="format">3</property>
  <property name="audio_index">-1</property>
  <property name="video_index">0</property>
  <property name="kdenlive:clipname">73.mp4</property>
  <property name="kdenlive:clip_type">2</property>
  <property name="kdenlive:folderid">16</property>
  <property name="kdenlive:id">149</property>
  <property name="mute_on_pause">0</property>
  <property name="kdenlive:file_size">98693</property>
  <property name="kdenlive:file_hash">438821924c77addc301aa481e20b620b</property>
  <property name="kdenlive:proxy">/home/xiaoxiae/.cache/kdenlive/proxy/438821924c77addc301aa481e20b620b.mkv</property>
  <property name="kdenlive:originalurl">video/Farmer/73.mp4</property>
  <property name="kdenlive:original.mlt_type">chain</property>
  <property name="kdenlive:original.in">0</property>
  <property name="kdenlive:original.out">00:00:01.233</property>
  <property name="kdenlive:original.length">75</property>
  <property name="kdenlive:original.eof">pause</property>
  <property name="kdenlive:original.resource">video/Farmer/73.mp4</property>
  <property name="kdenlive:original.mlt_service">avformat-novalidate</property>
  <property name="kdenlive:original.meta.media.nb_streams">1</property>
  <property name="kdenlive:original.meta.media.0.stream.type">video</property>
  <property name="kdenlive:original.meta.media.0.stream.frame_rate">60</property>
  <property name="kdenlive:original.meta.media.0.stream.sample_aspect_ratio">0</property>
  <property name="kdenlive:original.meta.media.0.codec.width">1920</property>
  <property name="kdenlive:original.meta.media.0.codec.height">1080</property>
  <property name="kdenlive:original.meta.media.0.codec.rotate">0</property>
  <property name="kdenlive:original.meta.media.0.codec.pix_fmt">yuv420p</property>
  <property name="kdenlive:original.meta.media.0.codec.sample_aspect_ratio">0</property>
  <property name="kdenlive:original.meta.media.0.codec.colorspace">709</property>
  <property name="kdenlive:original.meta.media.0.codec.name">h264</property>
  <property name="kdenlive:original.meta.media.0.codec.long_name">H.264 / AVC / MPEG-4 AVC / MPEG-4 part 10</property>
  <property name="kdenlive:original.meta.media.0.codec.bit_rate">619987</property>
  <property name="kdenlive:original.meta.attr.0.stream.handler_name.markup">VideoHandler</property>
  <property name="kdenlive:original.meta.attr.0.stream.vendor_id.markup">[0][0][0][0]</property>
  <property name="kdenlive:original.meta.attr.0.stream.encoder.markup">Lavc60.3.100 libx264</property>
  <property name="kdenlive:original.meta.attr.major_brand.markup">isom</property>
  <property name="kdenlive:original.meta.attr.minor_version.markup">512</property>
  <property name="kdenlive:original.meta.attr.compatible_brands.markup">isomiso2avc1mp41</property>
  <property name="kdenlive:original.meta.attr.encoder.markup">Lavf60.3.100</property>
  <property name="kdenlive:original.meta.attr.comment.markup">Rendered with Manim Community v0.17.3</property>
  <property name="kdenlive:original.seekable">1</property>
  <property name="kdenlive:original.width">1920</property>
  <property name="kdenlive:original.height">1080</property>
  <property name="kdenlive:original.meta.media.sample_aspect_num">1</property>
  <property name="kdenlive:original.meta.media.sample_aspect_den">1</property>
  <property name="kdenlive:original.format">3</property>
  <property name="kdenlive:original.audio_index">-1</property>
  <property name="kdenlive:original.video_index">0</property>
  <property name="kdenlive:original.meta.media.frame_rate_num">60</property>
  <property name="kdenlive:original.meta.media.frame_rate_den">1</property>
  <property name="kdenlive:original.meta.media.colorspace">709</property>
  <property name="kdenlive:original.meta.media.color_trc">2</property>
  <property name="kdenlive:original.meta.media.has_b_frames">2</property>
  <property name="kdenlive:original.meta.media.width">1920</property>
  <property name="kdenlive:original.meta.media.height">1080</property>
  <property name="kdenlive:original.meta.media.color_range">mpeg</property>
  <property name="kdenlive:original.meta.media.top_field_first">0</property>
  <property name="kdenlive:original.meta.media.progressive">1</property>
  <property name="kdenlive:original.kdenlive:clip_type">2</property>
  <property name="kdenlive:original.kdenlive:folderid">16</property>
  <property name="kdenlive:original.kdenlive:id">149</property>
  <property name="kdenlive:original.mute_on_pause">0</property>
  <property name="kdenlive:original.kdenlive:file_size">98693</property>
  <property name="kdenlive:original.kdenlive:file_hash">438821924c77addc301aa481e20b620b</property>
  <property name="kdenlive:original.backup">1</property>
  <property name="meta.media.nb_streams">1</property>
  <property name="meta.media.0.stream.type">video</property>
  <property name="meta.media.0.stream.frame_rate">60</property>
  <property name="meta.media.0.stream.sample_aspect_ratio">0</property>
  <property name="meta.media.0.codec.width">640</property>
  <property name="meta.media.0.codec.height">360</property>
  <property name="meta.media.0.codec.rotate">0</property>
  <property name="meta.media.0.codec.pix_fmt">yuvj420p</property>
  <property name="meta.media.0.codec.sample_aspect_ratio">0</property>
  <property name="meta.media.0.codec.colorspace">601</property>
  <property name="meta.media.0.codec.name">mjpeg</property>
  <property name="meta.media.0.codec.long_name">MJPEG (Motion JPEG)</property>
  <property name="meta.media.0.codec.bit_rate">0</property>
  <property name="meta.attr.0.stream.HANDLER_NAME.markup">VideoHandler</property>
  <property name="meta.attr.0.stream.VENDOR_ID.markup">[0][0][0][0]</property>
  <property name="meta.attr.0.stream.ENCODER.markup">Lavc60.3.100 mjpeg</property>
  <property name="meta.attr.0.stream.DURATION.markup">00:00:01.250000000</property>
  <property name="meta.attr.COMMENT.markup">Rendered with Manim Community v0.17.3</property>
  <property name="meta.attr.MAJOR_BRAND.markup">isom</property>
  <property name="meta.attr.MINOR_VERSION.markup">512</property>
  <property name="meta.attr.COMPATIBLE_BRANDS.markup">isomiso2avc1mp41</property>
  <property name="meta.attr.ENCODER.markup">Lavf60.3.100</property>
  <property name="meta.media.sample_aspect_num">1</property>
  <property name="meta.media.sample_aspect_den">1</property>
  <property name="meta.media.frame_rate_num">60</property>
  <property name="meta.media.frame_rate_den">1</property>
  <property name="meta.media.colorspace">601</property>
  <property name="meta.media.color_trc">2</property>
  <property name="meta.media.has_b_frames">0</property>
  <property name="meta.media.width">640</property>
  <property name="meta.media.height">360</property>
  <property name="meta.media.color_range">full</property>
  <property name="xml">was here</property>
  <property name="meta.media.top_field_first">0</property>
  <property name="meta.media.progressive">1</property>
  <property name="set.test_audio">1</property>
  <property name="set.test_image">0</property>
 </chain>
 <chain id="chain581" out="00:00:01.983">
  <property name="length">120</property>
  <property name="eof">pause</property>
  <property name="resource">/home/xiaoxiae/.cache/kdenlive/proxy/e51db21284fc9c7febafea96a6098512.mkv</property>
  <property name="mlt_service">avformat-novalidate</property>
  <property name="seekable">1</property>
  <property name="format">3</property>
  <property name="audio_index">-1</property>
  <property name="video_index">0</property>
  <property name="kdenlive:clipname">74.mp4</property>
  <property name="kdenlive:clip_type">2</property>
  <property name="kdenlive:folderid">16</property>
  <property name="kdenlive:id">150</property>
  <property name="mute_on_pause">0</property>
  <property name="kdenlive:file_size">125273</property>
  <property name="kdenlive:file_hash">e51db21284fc9c7febafea96a6098512</property>
  <property name="kdenlive:proxy">/home/xiaoxiae/.cache/kdenlive/proxy/e51db21284fc9c7febafea96a6098512.mkv</property>
  <property name="kdenlive:originalurl">video/Farmer/74.mp4</property>
  <property name="kdenlive:original.mlt_type">chain</property>
  <property name="kdenlive:original.in">0</property>
  <property name="kdenlive:original.out">00:00:01.983</property>
  <property name="kdenlive:original.length">120</property>
  <property name="kdenlive:original.eof">pause</property>
  <property name="kdenlive:original.resource">video/Farmer/74.mp4</property>
  <property name="kdenlive:original.mlt_service">avformat-novalidate</property>
  <property name="kdenlive:original.meta.media.nb_streams">1</property>
  <property name="kdenlive:original.meta.media.0.stream.type">video</property>
  <property name="kdenlive:original.meta.media.0.stream.frame_rate">60</property>
  <property name="kdenlive:original.meta.media.0.stream.sample_aspect_ratio">0</property>
  <property name="kdenlive:original.meta.media.0.codec.width">1920</property>
  <property name="kdenlive:original.meta.media.0.codec.height">1080</property>
  <property name="kdenlive:original.meta.media.0.codec.rotate">0</property>
  <property name="kdenlive:original.meta.media.0.codec.pix_fmt">yuv420p</property>
  <property name="kdenlive:original.meta.media.0.codec.sample_aspect_ratio">0</property>
  <property name="kdenlive:original.meta.media.0.codec.colorspace">709</property>
  <property name="kdenlive:original.meta.media.0.codec.name">h264</property>
  <property name="kdenlive:original.meta.media.0.codec.long_name">H.264 / AVC / MPEG-4 AVC / MPEG-4 part 10</property>
  <property name="kdenlive:original.meta.media.0.codec.bit_rate">492132</property>
  <property name="kdenlive:original.meta.attr.0.stream.handler_name.markup">VideoHandler</property>
  <property name="kdenlive:original.meta.attr.0.stream.vendor_id.markup">[0][0][0][0]</property>
  <property name="kdenlive:original.meta.attr.0.stream.encoder.markup">Lavc60.3.100 libx264</property>
  <property name="kdenlive:original.meta.attr.major_brand.markup">isom</property>
  <property name="kdenlive:original.meta.attr.minor_version.markup">512</property>
  <property name="kdenlive:original.meta.attr.compatible_brands.markup">isomiso2avc1mp41</property>
  <property name="kdenlive:original.meta.attr.encoder.markup">Lavf60.3.100</property>
  <property name="kdenlive:original.meta.attr.comment.markup">Rendered with Manim Community v0.17.3</property>
  <property name="kdenlive:original.seekable">1</property>
  <property name="kdenlive:original.width">1920</property>
  <property name="kdenlive:original.height">1080</property>
  <property name="kdenlive:original.meta.media.sample_aspect_num">1</property>
  <property name="kdenlive:original.meta.media.sample_aspect_den">1</property>
  <property name="kdenlive:original.format">3</property>
  <property name="kdenlive:original.audio_index">-1</property>
  <property name="kdenlive:original.video_index">0</property>
  <property name="kdenlive:original.meta.media.frame_rate_num">60</property>
  <property name="kdenlive:original.meta.media.frame_rate_den">1</property>
  <property name="kdenlive:original.meta.media.colorspace">709</property>
  <property name="kdenlive:original.meta.media.color_trc">2</property>
  <property name="kdenlive:original.meta.media.has_b_frames">2</property>
  <property name="kdenlive:original.meta.media.width">1920</property>
  <property name="kdenlive:original.meta.media.height">1080</property>
  <property name="kdenlive:original.meta.media.color_range">mpeg</property>
  <property name="kdenlive:original.meta.media.top_field_first">0</property>
  <property name="kdenlive:original.meta.media.progressive">1</property>
  <property name="kdenlive:original.kdenlive:clip_type">2</property>
  <property name="kdenlive:original.kdenlive:folderid">16</property>
  <property name="kdenlive:original.kdenlive:id">150</property>
  <property name="kdenlive:original.mute_on_pause">0</property>
  <property name="kdenlive:original.kdenlive:file_size">125273</property>
  <property name="kdenlive:original.kdenlive:file_hash">e51db21284fc9c7febafea96a6098512</property>
  <property name="kdenlive:original.backup">1</property>
  <property name="meta.media.nb_streams">1</property>
  <property name="meta.media.0.stream.type">video</property>
  <property name="meta.media.0.stream.frame_rate">60</property>
  <property name="meta.media.0.stream.sample_aspect_ratio">0</property>
  <property name="meta.media.0.codec.width">640</property>
  <property name="meta.media.0.codec.height">360</property>
  <property name="meta.media.0.codec.rotate">0</property>
  <property name="meta.media.0.codec.pix_fmt">yuvj420p</property>
  <property name="meta.media.0.codec.sample_aspect_ratio">0</property>
  <property name="meta.media.0.codec.colorspace">601</property>
  <property name="meta.media.0.codec.name">mjpeg</property>
  <property name="meta.media.0.codec.long_name">MJPEG (Motion JPEG)</property>
  <property name="meta.media.0.codec.bit_rate">0</property>
  <property name="meta.attr.0.stream.HANDLER_NAME.markup">VideoHandler</property>
  <property name="meta.attr.0.stream.VENDOR_ID.markup">[0][0][0][0]</property>
  <property name="meta.attr.0.stream.ENCODER.markup">Lavc60.3.100 mjpeg</property>
  <property name="meta.attr.0.stream.DURATION.markup">00:00:02.000000000</property>
  <property name="meta.attr.COMMENT.markup">Rendered with Manim Community v0.17.3</property>
  <property name="meta.attr.MAJOR_BRAND.markup">isom</property>
  <property name="meta.attr.MINOR_VERSION.markup">512</property>
  <property name="meta.attr.COMPATIBLE_BRANDS.markup">isomiso2avc1mp41</property>
  <property name="meta.attr.ENCODER.markup">Lavf60.3.100</property>
  <property name="meta.media.sample_aspect_num">1</property>
  <property name="meta.media.sample_aspect_den">1</property>
  <property name="meta.media.frame_rate_num">60</property>
  <property name="meta.media.frame_rate_den">1</property>
  <property name="meta.media.colorspace">601</property>
  <property name="meta.media.color_trc">2</property>
  <property name="meta.media.has_b_frames">0</property>
  <property name="meta.media.width">640</property>
  <property name="meta.media.height">360</property>
  <property name="meta.media.color_range">full</property>
  <property name="xml">was here</property>
  <property name="meta.media.top_field_first">0</property>
  <property name="meta.media.progressive">1</property>
  <property name="set.test_audio">1</property>
  <property name="set.test_image">0</property>
 </chain>
 <chain id="chain582" out="00:00:00.983">
  <property name="length">60</property>
  <property name="eof">pause</property>
  <property name="resource">/home/xiaoxiae/.cache/kdenlive/proxy/f9ee28cd049fe5e62b792d3b14659366.mkv</property>
  <property name="mlt_service">avformat-novalidate</property>
  <property name="seekable">1</property>
  <property name="format">3</property>
  <property name="audio_index">-1</property>
  <property name="video_index">0</property>
  <property name="kdenlive:clipname">75.mp4</property>
  <property name="kdenlive:clip_type">2</property>
  <property name="kdenlive:folderid">16</property>
  <property name="kdenlive:id">151</property>
  <property name="mute_on_pause">0</property>
  <property name="kdenlive:file_size">54854</property>
  <property name="kdenlive:file_hash">f9ee28cd049fe5e62b792d3b14659366</property>
  <property name="kdenlive:proxy">/home/xiaoxiae/.cache/kdenlive/proxy/f9ee28cd049fe5e62b792d3b14659366.mkv</property>
  <property name="kdenlive:originalurl">video/Farmer/75.mp4</property>
  <property name="kdenlive:original.mlt_type">chain</property>
  <property name="kdenlive:original.in">0</property>
  <property name="kdenlive:original.out">00:00:00.983</property>
  <property name="kdenlive:original.length">60</property>
  <property name="kdenlive:original.eof">pause</property>
  <property name="kdenlive:original.resource">video/Farmer/75.mp4</property>
  <property name="kdenlive:original.mlt_service">avformat-novalidate</property>
  <property name="kdenlive:original.meta.media.nb_streams">1</property>
  <property name="kdenlive:original.meta.media.0.stream.type">video</property>
  <property name="kdenlive:original.meta.media.0.stream.frame_rate">60</property>
  <property name="kdenlive:original.meta.media.0.stream.sample_aspect_ratio">0</property>
  <property name="kdenlive:original.meta.media.0.codec.width">1920</property>
  <property name="kdenlive:original.meta.media.0.codec.height">1080</property>
  <property name="kdenlive:original.meta.media.0.codec.rotate">0</property>
  <property name="kdenlive:original.meta.media.0.codec.pix_fmt">yuv420p</property>
  <property name="kdenlive:original.meta.media.0.codec.sample_aspect_ratio">0</property>
  <property name="kdenlive:original.meta.media.0.codec.colorspace">709</property>
  <property name="kdenlive:original.meta.media.0.codec.name">h264</property>
  <property name="kdenlive:original.meta.media.0.codec.long_name">H.264 / AVC / MPEG-4 AVC / MPEG-4 part 10</property>
  <property name="kdenlive:original.meta.media.0.codec.bit_rate">425776</property>
  <property name="kdenlive:original.meta.attr.0.stream.handler_name.markup">VideoHandler</property>
  <property name="kdenlive:original.meta.attr.0.stream.vendor_id.markup">[0][0][0][0]</property>
  <property name="kdenlive:original.meta.attr.0.stream.encoder.markup">Lavc60.3.100 libx264</property>
  <property name="kdenlive:original.meta.attr.major_brand.markup">isom</property>
  <property name="kdenlive:original.meta.attr.minor_version.markup">512</property>
  <property name="kdenlive:original.meta.attr.compatible_brands.markup">isomiso2avc1mp41</property>
  <property name="kdenlive:original.meta.attr.encoder.markup">Lavf60.3.100</property>
  <property name="kdenlive:original.meta.attr.comment.markup">Rendered with Manim Community v0.17.3</property>
  <property name="kdenlive:original.seekable">1</property>
  <property name="kdenlive:original.width">1920</property>
  <property name="kdenlive:original.height">1080</property>
  <property name="kdenlive:original.meta.media.sample_aspect_num">1</property>
  <property name="kdenlive:original.meta.media.sample_aspect_den">1</property>
  <property name="kdenlive:original.format">3</property>
  <property name="kdenlive:original.audio_index">-1</property>
  <property name="kdenlive:original.video_index">0</property>
  <property name="kdenlive:original.meta.media.frame_rate_num">60</property>
  <property name="kdenlive:original.meta.media.frame_rate_den">1</property>
  <property name="kdenlive:original.meta.media.colorspace">709</property>
  <property name="kdenlive:original.meta.media.color_trc">2</property>
  <property name="kdenlive:original.meta.media.has_b_frames">2</property>
  <property name="kdenlive:original.meta.media.width">1920</property>
  <property name="kdenlive:original.meta.media.height">1080</property>
  <property name="kdenlive:original.meta.media.color_range">mpeg</property>
  <property name="kdenlive:original.meta.media.top_field_first">0</property>
  <property name="kdenlive:original.meta.media.progressive">1</property>
  <property name="kdenlive:original.kdenlive:clip_type">2</property>
  <property name="kdenlive:original.kdenlive:folderid">16</property>
  <property name="kdenlive:original.kdenlive:id">151</property>
  <property name="kdenlive:original.mute_on_pause">0</property>
  <property name="kdenlive:original.kdenlive:file_size">54854</property>
  <property name="kdenlive:original.kdenlive:file_hash">f9ee28cd049fe5e62b792d3b14659366</property>
  <property name="kdenlive:original.backup">1</property>
  <property name="meta.media.nb_streams">1</property>
  <property name="meta.media.0.stream.type">video</property>
  <property name="meta.media.0.stream.frame_rate">60</property>
  <property name="meta.media.0.stream.sample_aspect_ratio">0</property>
  <property name="meta.media.0.codec.width">640</property>
  <property name="meta.media.0.codec.height">360</property>
  <property name="meta.media.0.codec.rotate">0</property>
  <property name="meta.media.0.codec.pix_fmt">yuvj420p</property>
  <property name="meta.media.0.codec.sample_aspect_ratio">0</property>
  <property name="meta.media.0.codec.colorspace">601</property>
  <property name="meta.media.0.codec.name">mjpeg</property>
  <property name="meta.media.0.codec.long_name">MJPEG (Motion JPEG)</property>
  <property name="meta.media.0.codec.bit_rate">0</property>
  <property name="meta.attr.0.stream.HANDLER_NAME.markup">VideoHandler</property>
  <property name="meta.attr.0.stream.VENDOR_ID.markup">[0][0][0][0]</property>
  <property name="meta.attr.0.stream.ENCODER.markup">Lavc60.3.100 mjpeg</property>
  <property name="meta.attr.0.stream.DURATION.markup">00:00:01.000000000</property>
  <property name="meta.attr.COMMENT.markup">Rendered with Manim Community v0.17.3</property>
  <property name="meta.attr.MAJOR_BRAND.markup">isom</property>
  <property name="meta.attr.MINOR_VERSION.markup">512</property>
  <property name="meta.attr.COMPATIBLE_BRANDS.markup">isomiso2avc1mp41</property>
  <property name="meta.attr.ENCODER.markup">Lavf60.3.100</property>
  <property name="meta.media.sample_aspect_num">1</property>
  <property name="meta.media.sample_aspect_den">1</property>
  <property name="meta.media.frame_rate_num">60</property>
  <property name="meta.media.frame_rate_den">1</property>
  <property name="meta.media.colorspace">601</property>
  <property name="meta.media.color_trc">2</property>
  <property name="meta.media.has_b_frames">0</property>
  <property name="meta.media.width">640</property>
  <property name="meta.media.height">360</property>
  <property name="meta.media.color_range">full</property>
  <property name="xml">was here</property>
  <property name="meta.media.top_field_first">0</property>
  <property name="meta.media.progressive">1</property>
  <property name="set.test_audio">1</property>
  <property name="set.test_image">0</property>
 </chain>
 <chain id="chain583" out="00:00:00.983">
  <property name="length">60</property>
  <property name="eof">pause</property>
  <property name="resource">/home/xiaoxiae/.cache/kdenlive/proxy/ac1ff3c6de004732ac1d7841137f9f65.mkv</property>
  <property name="mlt_service">avformat-novalidate</property>
  <property name="seekable">1</property>
  <property name="format">3</property>
  <property name="audio_index">-1</property>
  <property name="video_index">0</property>
  <property name="kdenlive:clipname">76.mp4</property>
  <property name="kdenlive:clip_type">2</property>
  <property name="kdenlive:folderid">16</property>
  <property name="kdenlive:id">152</property>
  <property name="mute_on_pause">0</property>
  <property name="kdenlive:file_size">93042</property>
  <property name="kdenlive:file_hash">ac1ff3c6de004732ac1d7841137f9f65</property>
  <property name="kdenlive:proxy">/home/xiaoxiae/.cache/kdenlive/proxy/ac1ff3c6de004732ac1d7841137f9f65.mkv</property>
  <property name="kdenlive:originalurl">video/Farmer/76.mp4</property>
  <property name="kdenlive:original.mlt_type">chain</property>
  <property name="kdenlive:original.in">0</property>
  <property name="kdenlive:original.out">00:00:00.983</property>
  <property name="kdenlive:original.length">60</property>
  <property name="kdenlive:original.eof">pause</property>
  <property name="kdenlive:original.resource">video/Farmer/76.mp4</property>
  <property name="kdenlive:original.mlt_service">avformat-novalidate</property>
  <property name="kdenlive:original.meta.media.nb_streams">1</property>
  <property name="kdenlive:original.meta.media.0.stream.type">video</property>
  <property name="kdenlive:original.meta.media.0.stream.frame_rate">60</property>
  <property name="kdenlive:original.meta.media.0.stream.sample_aspect_ratio">0</property>
  <property name="kdenlive:original.meta.media.0.codec.width">1920</property>
  <property name="kdenlive:original.meta.media.0.codec.height">1080</property>
  <property name="kdenlive:original.meta.media.0.codec.rotate">0</property>
  <property name="kdenlive:original.meta.media.0.codec.pix_fmt">yuv420p</property>
  <property name="kdenlive:original.meta.media.0.codec.sample_aspect_ratio">0</property>
  <property name="kdenlive:original.meta.media.0.codec.colorspace">709</property>
  <property name="kdenlive:original.meta.media.0.codec.name">h264</property>
  <property name="kdenlive:original.meta.media.0.codec.long_name">H.264 / AVC / MPEG-4 AVC / MPEG-4 part 10</property>
  <property name="kdenlive:original.meta.media.0.codec.bit_rate">731920</property>
  <property name="kdenlive:original.meta.attr.0.stream.handler_name.markup">VideoHandler</property>
  <property name="kdenlive:original.meta.attr.0.stream.vendor_id.markup">[0][0][0][0]</property>
  <property name="kdenlive:original.meta.attr.0.stream.encoder.markup">Lavc60.3.100 libx264</property>
  <property name="kdenlive:original.meta.attr.major_brand.markup">isom</property>
  <property name="kdenlive:original.meta.attr.minor_version.markup">512</property>
  <property name="kdenlive:original.meta.attr.compatible_brands.markup">isomiso2avc1mp41</property>
  <property name="kdenlive:original.meta.attr.encoder.markup">Lavf60.3.100</property>
  <property name="kdenlive:original.meta.attr.comment.markup">Rendered with Manim Community v0.17.3</property>
  <property name="kdenlive:original.seekable">1</property>
  <property name="kdenlive:original.width">1920</property>
  <property name="kdenlive:original.height">1080</property>
  <property name="kdenlive:original.meta.media.sample_aspect_num">1</property>
  <property name="kdenlive:original.meta.media.sample_aspect_den">1</property>
  <property name="kdenlive:original.format">3</property>
  <property name="kdenlive:original.audio_index">-1</property>
  <property name="kdenlive:original.video_index">0</property>
  <property name="kdenlive:original.meta.media.frame_rate_num">60</property>
  <property name="kdenlive:original.meta.media.frame_rate_den">1</property>
  <property name="kdenlive:original.meta.media.colorspace">709</property>
  <property name="kdenlive:original.meta.media.color_trc">2</property>
  <property name="kdenlive:original.meta.media.has_b_frames">2</property>
  <property name="kdenlive:original.meta.media.width">1920</property>
  <property name="kdenlive:original.meta.media.height">1080</property>
  <property name="kdenlive:original.meta.media.color_range">mpeg</property>
  <property name="kdenlive:original.meta.media.top_field_first">0</property>
  <property name="kdenlive:original.meta.media.progressive">1</property>
  <property name="kdenlive:original.kdenlive:clip_type">2</property>
  <property name="kdenlive:original.kdenlive:folderid">16</property>
  <property name="kdenlive:original.kdenlive:id">152</property>
  <property name="kdenlive:original.mute_on_pause">0</property>
  <property name="kdenlive:original.kdenlive:file_size">93042</property>
  <property name="kdenlive:original.kdenlive:file_hash">ac1ff3c6de004732ac1d7841137f9f65</property>
  <property name="kdenlive:original.backup">1</property>
  <property name="meta.media.nb_streams">1</property>
  <property name="meta.media.0.stream.type">video</property>
  <property name="meta.media.0.stream.frame_rate">60</property>
  <property name="meta.media.0.stream.sample_aspect_ratio">0</property>
  <property name="meta.media.0.codec.width">640</property>
  <property name="meta.media.0.codec.height">360</property>
  <property name="meta.media.0.codec.rotate">0</property>
  <property name="meta.media.0.codec.pix_fmt">yuvj420p</property>
  <property name="meta.media.0.codec.sample_aspect_ratio">0</property>
  <property name="meta.media.0.codec.colorspace">601</property>
  <property name="meta.media.0.codec.name">mjpeg</property>
  <property name="meta.media.0.codec.long_name">MJPEG (Motion JPEG)</property>
  <property name="meta.media.0.codec.bit_rate">0</property>
  <property name="meta.attr.0.stream.HANDLER_NAME.markup">VideoHandler</property>
  <property name="meta.attr.0.stream.VENDOR_ID.markup">[0][0][0][0]</property>
  <property name="meta.attr.0.stream.ENCODER.markup">Lavc60.3.100 mjpeg</property>
  <property name="meta.attr.0.stream.DURATION.markup">00:00:01.000000000</property>
  <property name="meta.attr.COMMENT.markup">Rendered with Manim Community v0.17.3</property>
  <property name="meta.attr.MAJOR_BRAND.markup">isom</property>
  <property name="meta.attr.MINOR_VERSION.markup">512</property>
  <property name="meta.attr.COMPATIBLE_BRANDS.markup">isomiso2avc1mp41</property>
  <property name="meta.attr.ENCODER.markup">Lavf60.3.100</property>
  <property name="meta.media.sample_aspect_num">1</property>
  <property name="meta.media.sample_aspect_den">1</property>
  <property name="meta.media.frame_rate_num">60</property>
  <property name="meta.media.frame_rate_den">1</property>
  <property name="meta.media.colorspace">601</property>
  <property name="meta.media.color_trc">2</property>
  <property name="meta.media.has_b_frames">0</property>
  <property name="meta.media.width">640</property>
  <property name="meta.media.height">360</property>
  <property name="meta.media.color_range">full</property>
  <property name="xml">was here</property>
  <property name="meta.media.top_field_first">0</property>
  <property name="meta.media.progressive">1</property>
  <property name="set.test_audio">1</property>
  <property name="set.test_image">0</property>
 </chain>
 <chain id="chain584" out="00:00:00.983">
  <property name="length">60</property>
  <property name="eof">pause</property>
  <property name="resource">/home/xiaoxiae/.cache/kdenlive/proxy/bbc23e2ef84dca0097266260293b15c4.mkv</property>
  <property name="mlt_service">avformat-novalidate</property>
  <property name="seekable">1</property>
  <property name="format">3</property>
  <property name="audio_index">-1</property>
  <property name="video_index">0</property>
  <property name="kdenlive:clipname">77.mp4</property>
  <property name="kdenlive:clip_type">2</property>
  <property name="kdenlive:folderid">16</property>
  <property name="kdenlive:id">153</property>
  <property name="mute_on_pause">0</property>
  <property name="kdenlive:file_size">90169</property>
  <property name="kdenlive:file_hash">bbc23e2ef84dca0097266260293b15c4</property>
  <property name="kdenlive:proxy">/home/xiaoxiae/.cache/kdenlive/proxy/bbc23e2ef84dca0097266260293b15c4.mkv</property>
  <property name="kdenlive:originalurl">video/Farmer/77.mp4</property>
  <property name="kdenlive:original.mlt_type">chain</property>
  <property name="kdenlive:original.in">0</property>
  <property name="kdenlive:original.out">00:00:00.983</property>
  <property name="kdenlive:original.length">60</property>
  <property name="kdenlive:original.eof">pause</property>
  <property name="kdenlive:original.resource">video/Farmer/77.mp4</property>
  <property name="kdenlive:original.mlt_service">avformat-novalidate</property>
  <property name="kdenlive:original.meta.media.nb_streams">1</property>
  <property name="kdenlive:original.meta.media.0.stream.type">video</property>
  <property name="kdenlive:original.meta.media.0.stream.frame_rate">60</property>
  <property name="kdenlive:original.meta.media.0.stream.sample_aspect_ratio">0</property>
  <property name="kdenlive:original.meta.media.0.codec.width">1920</property>
  <property name="kdenlive:original.meta.media.0.codec.height">1080</property>
  <property name="kdenlive:original.meta.media.0.codec.rotate">0</property>
  <property name="kdenlive:original.meta.media.0.codec.pix_fmt">yuv420p</property>
  <property name="kdenlive:original.meta.media.0.codec.sample_aspect_ratio">0</property>
  <property name="kdenlive:original.meta.media.0.codec.colorspace">709</property>
  <property name="kdenlive:original.meta.media.0.codec.name">h264</property>
  <property name="kdenlive:original.meta.media.0.codec.long_name">H.264 / AVC / MPEG-4 AVC / MPEG-4 part 10</property>
  <property name="kdenlive:original.meta.media.0.codec.bit_rate">708488</property>
  <property name="kdenlive:original.meta.attr.0.stream.handler_name.markup">VideoHandler</property>
  <property name="kdenlive:original.meta.attr.0.stream.vendor_id.markup">[0][0][0][0]</property>
  <property name="kdenlive:original.meta.attr.0.stream.encoder.markup">Lavc60.3.100 libx264</property>
  <property name="kdenlive:original.meta.attr.major_brand.markup">isom</property>
  <property name="kdenlive:original.meta.attr.minor_version.markup">512</property>
  <property name="kdenlive:original.meta.attr.compatible_brands.markup">isomiso2avc1mp41</property>
  <property name="kdenlive:original.meta.attr.encoder.markup">Lavf60.3.100</property>
  <property name="kdenlive:original.meta.attr.comment.markup">Rendered with Manim Community v0.17.3</property>
  <property name="kdenlive:original.seekable">1</property>
  <property name="kdenlive:original.width">1920</property>
  <property name="kdenlive:original.height">1080</property>
  <property name="kdenlive:original.meta.media.sample_aspect_num">1</property>
  <property name="kdenlive:original.meta.media.sample_aspect_den">1</property>
  <property name="kdenlive:original.format">3</property>
  <property name="kdenlive:original.audio_index">-1</property>
  <property name="kdenlive:original.video_index">0</property>
  <property name="kdenlive:original.meta.media.frame_rate_num">60</property>
  <property name="kdenlive:original.meta.media.frame_rate_den">1</property>
  <property name="kdenlive:original.meta.media.colorspace">709</property>
  <property name="kdenlive:original.meta.media.color_trc">2</property>
  <property name="kdenlive:original.meta.media.has_b_frames">2</property>
  <property name="kdenlive:original.meta.media.width">1920</property>
  <property name="kdenlive:original.meta.media.height">1080</property>
  <property name="kdenlive:original.meta.media.color_range">mpeg</property>
  <property name="kdenlive:original.meta.media.top_field_first">0</property>
  <property name="kdenlive:original.meta.media.progressive">1</property>
  <property name="kdenlive:original.kdenlive:clip_type">2</property>
  <property name="kdenlive:original.kdenlive:folderid">16</property>
  <property name="kdenlive:original.kdenlive:id">153</property>
  <property name="kdenlive:original.mute_on_pause">0</property>
  <property name="kdenlive:original.kdenlive:file_size">90169</property>
  <property name="kdenlive:original.kdenlive:file_hash">bbc23e2ef84dca0097266260293b15c4</property>
  <property name="kdenlive:original.backup">1</property>
  <property name="meta.media.nb_streams">1</property>
  <property name="meta.media.0.stream.type">video</property>
  <property name="meta.media.0.stream.frame_rate">60</property>
  <property name="meta.media.0.stream.sample_aspect_ratio">0</property>
  <property name="meta.media.0.codec.width">640</property>
  <property name="meta.media.0.codec.height">360</property>
  <property name="meta.media.0.codec.rotate">0</property>
  <property name="meta.media.0.codec.pix_fmt">yuvj420p</property>
  <property name="meta.media.0.codec.sample_aspect_ratio">0</property>
  <property name="meta.media.0.codec.colorspace">601</property>
  <property name="meta.media.0.codec.name">mjpeg</property>
  <property name="meta.media.0.codec.long_name">MJPEG (Motion JPEG)</property>
  <property name="meta.media.0.codec.bit_rate">0</property>
  <property name="meta.attr.0.stream.HANDLER_NAME.markup">VideoHandler</property>
  <property name="meta.attr.0.stream.VENDOR_ID.markup">[0][0][0][0]</property>
  <property name="meta.attr.0.stream.ENCODER.markup">Lavc60.3.100 mjpeg</property>
  <property name="meta.attr.0.stream.DURATION.markup">00:00:01.000000000</property>
  <property name="meta.attr.COMMENT.markup">Rendered with Manim Community v0.17.3</property>
  <property name="meta.attr.MAJOR_BRAND.markup">isom</property>
  <property name="meta.attr.MINOR_VERSION.markup">512</property>
  <property name="meta.attr.COMPATIBLE_BRANDS.markup">isomiso2avc1mp41</property>
  <property name="meta.attr.ENCODER.markup">Lavf60.3.100</property>
  <property name="meta.media.sample_aspect_num">1</property>
  <property name="meta.media.sample_aspect_den">1</property>
  <property name="meta.media.frame_rate_num">60</property>
  <property name="meta.media.frame_rate_den">1</property>
  <property name="meta.media.colorspace">601</property>
  <property name="meta.media.color_trc">2</property>
  <property name="meta.media.has_b_frames">0</property>
  <property name="meta.media.width">640</property>
  <property name="meta.media.height">360</property>
  <property name="meta.media.color_range">full</property>
  <property name="xml">was here</property>
  <property name="meta.media.top_field_first">0</property>
  <property name="meta.media.progressive">1</property>
  <property name="set.test_audio">1</property>
  <property name="set.test_image">0</property>
 </chain>
 <chain id="chain585" out="00:00:01.483">
  <property name="length">90</property>
  <property name="eof">pause</property>
  <property name="resource">/home/xiaoxiae/.cache/kdenlive/proxy/859ffce2d2ec9a3e6d06cc5b696c7f30.mkv</property>
  <property name="mlt_service">avformat-novalidate</property>
  <property name="seekable">1</property>
  <property name="format">3</property>
  <property name="audio_index">-1</property>
  <property name="video_index">0</property>
  <property name="kdenlive:clipname">78.mp4</property>
  <property name="kdenlive:clip_type">2</property>
  <property name="kdenlive:folderid">16</property>
  <property name="kdenlive:id">154</property>
  <property name="mute_on_pause">0</property>
  <property name="kdenlive:file_size">69434</property>
  <property name="kdenlive:file_hash">859ffce2d2ec9a3e6d06cc5b696c7f30</property>
  <property name="kdenlive:proxy">/home/xiaoxiae/.cache/kdenlive/proxy/859ffce2d2ec9a3e6d06cc5b696c7f30.mkv</property>
  <property name="kdenlive:originalurl">video/Farmer/78.mp4</property>
  <property name="kdenlive:original.mlt_type">chain</property>
  <property name="kdenlive:original.in">0</property>
  <property name="kdenlive:original.out">00:00:01.483</property>
  <property name="kdenlive:original.length">90</property>
  <property name="kdenlive:original.eof">pause</property>
  <property name="kdenlive:original.resource">video/Farmer/78.mp4</property>
  <property name="kdenlive:original.mlt_service">avformat-novalidate</property>
  <property name="kdenlive:original.meta.media.nb_streams">1</property>
  <property name="kdenlive:original.meta.media.0.stream.type">video</property>
  <property name="kdenlive:original.meta.media.0.stream.frame_rate">60</property>
  <property name="kdenlive:original.meta.media.0.stream.sample_aspect_ratio">0</property>
  <property name="kdenlive:original.meta.media.0.codec.width">1920</property>
  <property name="kdenlive:original.meta.media.0.codec.height">1080</property>
  <property name="kdenlive:original.meta.media.0.codec.rotate">0</property>
  <property name="kdenlive:original.meta.media.0.codec.pix_fmt">yuv420p</property>
  <property name="kdenlive:original.meta.media.0.codec.sample_aspect_ratio">0</property>
  <property name="kdenlive:original.meta.media.0.codec.colorspace">709</property>
  <property name="kdenlive:original.meta.media.0.codec.name">h264</property>
  <property name="kdenlive:original.meta.media.0.codec.long_name">H.264 / AVC / MPEG-4 AVC / MPEG-4 part 10</property>
  <property name="kdenlive:original.meta.media.0.codec.bit_rate">359648</property>
  <property name="kdenlive:original.meta.attr.0.stream.handler_name.markup">VideoHandler</property>
  <property name="kdenlive:original.meta.attr.0.stream.vendor_id.markup">[0][0][0][0]</property>
  <property name="kdenlive:original.meta.attr.0.stream.encoder.markup">Lavc60.3.100 libx264</property>
  <property name="kdenlive:original.meta.attr.major_brand.markup">isom</property>
  <property name="kdenlive:original.meta.attr.minor_version.markup">512</property>
  <property name="kdenlive:original.meta.attr.compatible_brands.markup">isomiso2avc1mp41</property>
  <property name="kdenlive:original.meta.attr.encoder.markup">Lavf60.3.100</property>
  <property name="kdenlive:original.meta.attr.comment.markup">Rendered with Manim Community v0.17.3</property>
  <property name="kdenlive:original.seekable">1</property>
  <property name="kdenlive:original.width">1920</property>
  <property name="kdenlive:original.height">1080</property>
  <property name="kdenlive:original.meta.media.sample_aspect_num">1</property>
  <property name="kdenlive:original.meta.media.sample_aspect_den">1</property>
  <property name="kdenlive:original.format">3</property>
  <property name="kdenlive:original.audio_index">-1</property>
  <property name="kdenlive:original.video_index">0</property>
  <property name="kdenlive:original.meta.media.frame_rate_num">60</property>
  <property name="kdenlive:original.meta.media.frame_rate_den">1</property>
  <property name="kdenlive:original.meta.media.colorspace">709</property>
  <property name="kdenlive:original.meta.media.color_trc">2</property>
  <property name="kdenlive:original.meta.media.has_b_frames">2</property>
  <property name="kdenlive:original.meta.media.width">1920</property>
  <property name="kdenlive:original.meta.media.height">1080</property>
  <property name="kdenlive:original.meta.media.color_range">mpeg</property>
  <property name="kdenlive:original.meta.media.top_field_first">0</property>
  <property name="kdenlive:original.meta.media.progressive">1</property>
  <property name="kdenlive:original.kdenlive:clip_type">2</property>
  <property name="kdenlive:original.kdenlive:folderid">16</property>
  <property name="kdenlive:original.kdenlive:id">154</property>
  <property name="kdenlive:original.mute_on_pause">0</property>
  <property name="kdenlive:original.kdenlive:file_size">69434</property>
  <property name="kdenlive:original.kdenlive:file_hash">859ffce2d2ec9a3e6d06cc5b696c7f30</property>
  <property name="kdenlive:original.backup">1</property>
  <property name="meta.media.nb_streams">1</property>
  <property name="meta.media.0.stream.type">video</property>
  <property name="meta.media.0.stream.frame_rate">60</property>
  <property name="meta.media.0.stream.sample_aspect_ratio">0</property>
  <property name="meta.media.0.codec.width">640</property>
  <property name="meta.media.0.codec.height">360</property>
  <property name="meta.media.0.codec.rotate">0</property>
  <property name="meta.media.0.codec.pix_fmt">yuvj420p</property>
  <property name="meta.media.0.codec.sample_aspect_ratio">0</property>
  <property name="meta.media.0.codec.colorspace">601</property>
  <property name="meta.media.0.codec.name">mjpeg</property>
  <property name="meta.media.0.codec.long_name">MJPEG (Motion JPEG)</property>
  <property name="meta.media.0.codec.bit_rate">0</property>
  <property name="meta.attr.0.stream.HANDLER_NAME.markup">VideoHandler</property>
  <property name="meta.attr.0.stream.VENDOR_ID.markup">[0][0][0][0]</property>
  <property name="meta.attr.0.stream.ENCODER.markup">Lavc60.3.100 mjpeg</property>
  <property name="meta.attr.0.stream.DURATION.markup">00:00:01.500000000</property>
  <property name="meta.attr.COMMENT.markup">Rendered with Manim Community v0.17.3</property>
  <property name="meta.attr.MAJOR_BRAND.markup">isom</property>
  <property name="meta.attr.MINOR_VERSION.markup">512</property>
  <property name="meta.attr.COMPATIBLE_BRANDS.markup">isomiso2avc1mp41</property>
  <property name="meta.attr.ENCODER.markup">Lavf60.3.100</property>
  <property name="meta.media.sample_aspect_num">1</property>
  <property name="meta.media.sample_aspect_den">1</property>
  <property name="meta.media.frame_rate_num">60</property>
  <property name="meta.media.frame_rate_den">1</property>
  <property name="meta.media.colorspace">601</property>
  <property name="meta.media.color_trc">2</property>
  <property name="meta.media.has_b_frames">0</property>
  <property name="meta.media.width">640</property>
  <property name="meta.media.height">360</property>
  <property name="meta.media.color_range">full</property>
  <property name="xml">was here</property>
  <property name="meta.media.top_field_first">0</property>
  <property name="meta.media.progressive">1</property>
  <property name="set.test_audio">1</property>
  <property name="set.test_image">0</property>
 </chain>
 <chain id="chain586" out="00:00:00.983">
  <property name="length">60</property>
  <property name="eof">pause</property>
  <property name="resource">/home/xiaoxiae/.cache/kdenlive/proxy/e3a7a0824653a52a7c93c8093c3ab3ac.mkv</property>
  <property name="mlt_service">avformat-novalidate</property>
  <property name="seekable">1</property>
  <property name="format">3</property>
  <property name="audio_index">-1</property>
  <property name="video_index">0</property>
  <property name="kdenlive:clipname">79.mp4</property>
  <property name="kdenlive:clip_type">2</property>
  <property name="kdenlive:folderid">16</property>
  <property name="kdenlive:id">155</property>
  <property name="mute_on_pause">0</property>
  <property name="kdenlive:file_size">58912</property>
  <property name="kdenlive:file_hash">e3a7a0824653a52a7c93c8093c3ab3ac</property>
  <property name="kdenlive:proxy">/home/xiaoxiae/.cache/kdenlive/proxy/e3a7a0824653a52a7c93c8093c3ab3ac.mkv</property>
  <property name="kdenlive:originalurl">video/Farmer/79.mp4</property>
  <property name="kdenlive:original.mlt_type">chain</property>
  <property name="kdenlive:original.in">0</property>
  <property name="kdenlive:original.out">00:00:00.983</property>
  <property name="kdenlive:original.length">60</property>
  <property name="kdenlive:original.eof">pause</property>
  <property name="kdenlive:original.resource">video/Farmer/79.mp4</property>
  <property name="kdenlive:original.mlt_service">avformat-novalidate</property>
  <property name="kdenlive:original.meta.media.nb_streams">1</property>
  <property name="kdenlive:original.meta.media.0.stream.type">video</property>
  <property name="kdenlive:original.meta.media.0.stream.frame_rate">60</property>
  <property name="kdenlive:original.meta.media.0.stream.sample_aspect_ratio">0</property>
  <property name="kdenlive:original.meta.media.0.codec.width">1920</property>
  <property name="kdenlive:original.meta.media.0.codec.height">1080</property>
  <property name="kdenlive:original.meta.media.0.codec.rotate">0</property>
  <property name="kdenlive:original.meta.media.0.codec.pix_fmt">yuv420p</property>
  <property name="kdenlive:original.meta.media.0.codec.sample_aspect_ratio">0</property>
  <property name="kdenlive:original.meta.media.0.codec.colorspace">709</property>
  <property name="kdenlive:original.meta.media.0.codec.name">h264</property>
  <property name="kdenlive:original.meta.media.0.codec.long_name">H.264 / AVC / MPEG-4 AVC / MPEG-4 part 10</property>
  <property name="kdenlive:original.meta.media.0.codec.bit_rate">458240</property>
  <property name="kdenlive:original.meta.attr.0.stream.handler_name.markup">VideoHandler</property>
  <property name="kdenlive:original.meta.attr.0.stream.vendor_id.markup">[0][0][0][0]</property>
  <property name="kdenlive:original.meta.attr.0.stream.encoder.markup">Lavc60.3.100 libx264</property>
  <property name="kdenlive:original.meta.attr.major_brand.markup">isom</property>
  <property name="kdenlive:original.meta.attr.minor_version.markup">512</property>
  <property name="kdenlive:original.meta.attr.compatible_brands.markup">isomiso2avc1mp41</property>
  <property name="kdenlive:original.meta.attr.encoder.markup">Lavf60.3.100</property>
  <property name="kdenlive:original.meta.attr.comment.markup">Rendered with Manim Community v0.17.3</property>
  <property name="kdenlive:original.seekable">1</property>
  <property name="kdenlive:original.width">1920</property>
  <property name="kdenlive:original.height">1080</property>
  <property name="kdenlive:original.meta.media.sample_aspect_num">1</property>
  <property name="kdenlive:original.meta.media.sample_aspect_den">1</property>
  <property name="kdenlive:original.format">3</property>
  <property name="kdenlive:original.audio_index">-1</property>
  <property name="kdenlive:original.video_index">0</property>
  <property name="kdenlive:original.meta.media.frame_rate_num">60</property>
  <property name="kdenlive:original.meta.media.frame_rate_den">1</property>
  <property name="kdenlive:original.meta.media.colorspace">709</property>
  <property name="kdenlive:original.meta.media.color_trc">2</property>
  <property name="kdenlive:original.meta.media.has_b_frames">2</property>
  <property name="kdenlive:original.meta.media.width">1920</property>
  <property name="kdenlive:original.meta.media.height">1080</property>
  <property name="kdenlive:original.meta.media.color_range">mpeg</property>
  <property name="kdenlive:original.meta.media.top_field_first">0</property>
  <property name="kdenlive:original.meta.media.progressive">1</property>
  <property name="kdenlive:original.kdenlive:clip_type">2</property>
  <property name="kdenlive:original.kdenlive:folderid">16</property>
  <property name="kdenlive:original.kdenlive:id">155</property>
  <property name="kdenlive:original.mute_on_pause">0</property>
  <property name="kdenlive:original.kdenlive:file_size">58912</property>
  <property name="kdenlive:original.kdenlive:file_hash">e3a7a0824653a52a7c93c8093c3ab3ac</property>
  <property name="kdenlive:original.backup">1</property>
  <property name="meta.media.nb_streams">1</property>
  <property name="meta.media.0.stream.type">video</property>
  <property name="meta.media.0.stream.frame_rate">60</property>
  <property name="meta.media.0.stream.sample_aspect_ratio">0</property>
  <property name="meta.media.0.codec.width">640</property>
  <property name="meta.media.0.codec.height">360</property>
  <property name="meta.media.0.codec.rotate">0</property>
  <property name="meta.media.0.codec.pix_fmt">yuvj420p</property>
  <property name="meta.media.0.codec.sample_aspect_ratio">0</property>
  <property name="meta.media.0.codec.colorspace">601</property>
  <property name="meta.media.0.codec.name">mjpeg</property>
  <property name="meta.media.0.codec.long_name">MJPEG (Motion JPEG)</property>
  <property name="meta.media.0.codec.bit_rate">0</property>
  <property name="meta.attr.0.stream.HANDLER_NAME.markup">VideoHandler</property>
  <property name="meta.attr.0.stream.VENDOR_ID.markup">[0][0][0][0]</property>
  <property name="meta.attr.0.stream.ENCODER.markup">Lavc60.3.100 mjpeg</property>
  <property name="meta.attr.0.stream.DURATION.markup">00:00:01.000000000</property>
  <property name="meta.attr.COMMENT.markup">Rendered with Manim Community v0.17.3</property>
  <property name="meta.attr.MAJOR_BRAND.markup">isom</property>
  <property name="meta.attr.MINOR_VERSION.markup">512</property>
  <property name="meta.attr.COMPATIBLE_BRANDS.markup">isomiso2avc1mp41</property>
  <property name="meta.attr.ENCODER.markup">Lavf60.3.100</property>
  <property name="meta.media.sample_aspect_num">1</property>
  <property name="meta.media.sample_aspect_den">1</property>
  <property name="meta.media.frame_rate_num">60</property>
  <property name="meta.media.frame_rate_den">1</property>
  <property name="meta.media.colorspace">601</property>
  <property name="meta.media.color_trc">2</property>
  <property name="meta.media.has_b_frames">0</property>
  <property name="meta.media.width">640</property>
  <property name="meta.media.height">360</property>
  <property name="meta.media.color_range">full</property>
  <property name="xml">was here</property>
  <property name="meta.media.top_field_first">0</property>
  <property name="meta.media.progressive">1</property>
  <property name="set.test_audio">1</property>
  <property name="set.test_image">0</property>
 </chain>
 <chain id="chain587" out="00:00:00.983">
  <property name="length">60</property>
  <property name="eof">pause</property>
  <property name="resource">/home/xiaoxiae/.cache/kdenlive/proxy/d9a315d0e3e34cee4c4b5e8c505dd1bf.mkv</property>
  <property name="mlt_service">avformat-novalidate</property>
  <property name="seekable">1</property>
  <property name="format">3</property>
  <property name="audio_index">-1</property>
  <property name="video_index">0</property>
  <property name="kdenlive:clipname">80.mp4</property>
  <property name="kdenlive:clip_type">2</property>
  <property name="kdenlive:folderid">16</property>
  <property name="kdenlive:id">157</property>
  <property name="mute_on_pause">0</property>
  <property name="kdenlive:file_size">65510</property>
  <property name="kdenlive:file_hash">d9a315d0e3e34cee4c4b5e8c505dd1bf</property>
  <property name="kdenlive:proxy">/home/xiaoxiae/.cache/kdenlive/proxy/d9a315d0e3e34cee4c4b5e8c505dd1bf.mkv</property>
  <property name="kdenlive:originalurl">video/Farmer/80.mp4</property>
  <property name="kdenlive:original.mlt_type">chain</property>
  <property name="kdenlive:original.in">0</property>
  <property name="kdenlive:original.out">00:00:00.983</property>
  <property name="kdenlive:original.length">60</property>
  <property name="kdenlive:original.eof">pause</property>
  <property name="kdenlive:original.resource">video/Farmer/80.mp4</property>
  <property name="kdenlive:original.mlt_service">avformat-novalidate</property>
  <property name="kdenlive:original.meta.media.nb_streams">1</property>
  <property name="kdenlive:original.meta.media.0.stream.type">video</property>
  <property name="kdenlive:original.meta.media.0.stream.frame_rate">60</property>
  <property name="kdenlive:original.meta.media.0.stream.sample_aspect_ratio">0</property>
  <property name="kdenlive:original.meta.media.0.codec.width">1920</property>
  <property name="kdenlive:original.meta.media.0.codec.height">1080</property>
  <property name="kdenlive:original.meta.media.0.codec.rotate">0</property>
  <property name="kdenlive:original.meta.media.0.codec.pix_fmt">yuv420p</property>
  <property name="kdenlive:original.meta.media.0.codec.sample_aspect_ratio">0</property>
  <property name="kdenlive:original.meta.media.0.codec.colorspace">709</property>
  <property name="kdenlive:original.meta.media.0.codec.name">h264</property>
  <property name="kdenlive:original.meta.media.0.codec.long_name">H.264 / AVC / MPEG-4 AVC / MPEG-4 part 10</property>
  <property name="kdenlive:original.meta.media.0.codec.bit_rate">511152</property>
  <property name="kdenlive:original.meta.attr.0.stream.handler_name.markup">VideoHandler</property>
  <property name="kdenlive:original.meta.attr.0.stream.vendor_id.markup">[0][0][0][0]</property>
  <property name="kdenlive:original.meta.attr.0.stream.encoder.markup">Lavc60.3.100 libx264</property>
  <property name="kdenlive:original.meta.attr.major_brand.markup">isom</property>
  <property name="kdenlive:original.meta.attr.minor_version.markup">512</property>
  <property name="kdenlive:original.meta.attr.compatible_brands.markup">isomiso2avc1mp41</property>
  <property name="kdenlive:original.meta.attr.encoder.markup">Lavf60.3.100</property>
  <property name="kdenlive:original.meta.attr.comment.markup">Rendered with Manim Community v0.17.3</property>
  <property name="kdenlive:original.seekable">1</property>
  <property name="kdenlive:original.width">1920</property>
  <property name="kdenlive:original.height">1080</property>
  <property name="kdenlive:original.meta.media.sample_aspect_num">1</property>
  <property name="kdenlive:original.meta.media.sample_aspect_den">1</property>
  <property name="kdenlive:original.format">3</property>
  <property name="kdenlive:original.audio_index">-1</property>
  <property name="kdenlive:original.video_index">0</property>
  <property name="kdenlive:original.meta.media.frame_rate_num">60</property>
  <property name="kdenlive:original.meta.media.frame_rate_den">1</property>
  <property name="kdenlive:original.meta.media.colorspace">709</property>
  <property name="kdenlive:original.meta.media.color_trc">2</property>
  <property name="kdenlive:original.meta.media.has_b_frames">2</property>
  <property name="kdenlive:original.meta.media.width">1920</property>
  <property name="kdenlive:original.meta.media.height">1080</property>
  <property name="kdenlive:original.meta.media.color_range">mpeg</property>
  <property name="kdenlive:original.meta.media.top_field_first">0</property>
  <property name="kdenlive:original.meta.media.progressive">1</property>
  <property name="kdenlive:original.kdenlive:clip_type">2</property>
  <property name="kdenlive:original.kdenlive:folderid">16</property>
  <property name="kdenlive:original.kdenlive:id">157</property>
  <property name="kdenlive:original.mute_on_pause">0</property>
  <property name="kdenlive:original.kdenlive:file_size">65510</property>
  <property name="kdenlive:original.kdenlive:file_hash">d9a315d0e3e34cee4c4b5e8c505dd1bf</property>
  <property name="kdenlive:original.backup">1</property>
  <property name="meta.media.nb_streams">1</property>
  <property name="meta.media.0.stream.type">video</property>
  <property name="meta.media.0.stream.frame_rate">60</property>
  <property name="meta.media.0.stream.sample_aspect_ratio">0</property>
  <property name="meta.media.0.codec.width">640</property>
  <property name="meta.media.0.codec.height">360</property>
  <property name="meta.media.0.codec.rotate">0</property>
  <property name="meta.media.0.codec.pix_fmt">yuvj420p</property>
  <property name="meta.media.0.codec.sample_aspect_ratio">0</property>
  <property name="meta.media.0.codec.colorspace">601</property>
  <property name="meta.media.0.codec.name">mjpeg</property>
  <property name="meta.media.0.codec.long_name">MJPEG (Motion JPEG)</property>
  <property name="meta.media.0.codec.bit_rate">0</property>
  <property name="meta.attr.0.stream.HANDLER_NAME.markup">VideoHandler</property>
  <property name="meta.attr.0.stream.VENDOR_ID.markup">[0][0][0][0]</property>
  <property name="meta.attr.0.stream.ENCODER.markup">Lavc60.3.100 mjpeg</property>
  <property name="meta.attr.0.stream.DURATION.markup">00:00:01.000000000</property>
  <property name="meta.attr.COMMENT.markup">Rendered with Manim Community v0.17.3</property>
  <property name="meta.attr.MAJOR_BRAND.markup">isom</property>
  <property name="meta.attr.MINOR_VERSION.markup">512</property>
  <property name="meta.attr.COMPATIBLE_BRANDS.markup">isomiso2avc1mp41</property>
  <property name="meta.attr.ENCODER.markup">Lavf60.3.100</property>
  <property name="meta.media.sample_aspect_num">1</property>
  <property name="meta.media.sample_aspect_den">1</property>
  <property name="meta.media.frame_rate_num">60</property>
  <property name="meta.media.frame_rate_den">1</property>
  <property name="meta.media.colorspace">601</property>
  <property name="meta.media.color_trc">2</property>
  <property name="meta.media.has_b_frames">0</property>
  <property name="meta.media.width">640</property>
  <property name="meta.media.height">360</property>
  <property name="meta.media.color_range">full</property>
  <property name="xml">was here</property>
  <property name="meta.media.top_field_first">0</property>
  <property name="meta.media.progressive">1</property>
  <property name="set.test_audio">1</property>
  <property name="set.test_image">0</property>
 </chain>
 <chain id="chain588" out="00:00:00.983">
  <property name="length">60</property>
  <property name="eof">pause</property>
  <property name="resource">/home/xiaoxiae/.cache/kdenlive/proxy/d0fa0c4d6d856e86f1d7f544e8c2ea34.mkv</property>
  <property name="mlt_service">avformat-novalidate</property>
  <property name="seekable">1</property>
  <property name="format">3</property>
  <property name="audio_index">-1</property>
  <property name="video_index">0</property>
  <property name="kdenlive:clipname">81.mp4</property>
  <property name="kdenlive:clip_type">2</property>
  <property name="kdenlive:folderid">16</property>
  <property name="kdenlive:id">158</property>
  <property name="mute_on_pause">0</property>
  <property name="kdenlive:file_size">57521</property>
  <property name="kdenlive:file_hash">d0fa0c4d6d856e86f1d7f544e8c2ea34</property>
  <property name="kdenlive:proxy">/home/xiaoxiae/.cache/kdenlive/proxy/d0fa0c4d6d856e86f1d7f544e8c2ea34.mkv</property>
  <property name="kdenlive:originalurl">video/Farmer/81.mp4</property>
  <property name="kdenlive:original.mlt_type">chain</property>
  <property name="kdenlive:original.in">0</property>
  <property name="kdenlive:original.out">00:00:00.983</property>
  <property name="kdenlive:original.length">60</property>
  <property name="kdenlive:original.eof">pause</property>
  <property name="kdenlive:original.resource">video/Farmer/81.mp4</property>
  <property name="kdenlive:original.mlt_service">avformat-novalidate</property>
  <property name="kdenlive:original.meta.media.nb_streams">1</property>
  <property name="kdenlive:original.meta.media.0.stream.type">video</property>
  <property name="kdenlive:original.meta.media.0.stream.frame_rate">60</property>
  <property name="kdenlive:original.meta.media.0.stream.sample_aspect_ratio">0</property>
  <property name="kdenlive:original.meta.media.0.codec.width">1920</property>
  <property name="kdenlive:original.meta.media.0.codec.height">1080</property>
  <property name="kdenlive:original.meta.media.0.codec.rotate">0</property>
  <property name="kdenlive:original.meta.media.0.codec.pix_fmt">yuv420p</property>
  <property name="kdenlive:original.meta.media.0.codec.sample_aspect_ratio">0</property>
  <property name="kdenlive:original.meta.media.0.codec.colorspace">709</property>
  <property name="kdenlive:original.meta.media.0.codec.name">h264</property>
  <property name="kdenlive:original.meta.media.0.codec.long_name">H.264 / AVC / MPEG-4 AVC / MPEG-4 part 10</property>
  <property name="kdenlive:original.meta.media.0.codec.bit_rate">447112</property>
  <property name="kdenlive:original.meta.attr.0.stream.handler_name.markup">VideoHandler</property>
  <property name="kdenlive:original.meta.attr.0.stream.vendor_id.markup">[0][0][0][0]</property>
  <property name="kdenlive:original.meta.attr.0.stream.encoder.markup">Lavc60.3.100 libx264</property>
  <property name="kdenlive:original.meta.attr.major_brand.markup">isom</property>
  <property name="kdenlive:original.meta.attr.minor_version.markup">512</property>
  <property name="kdenlive:original.meta.attr.compatible_brands.markup">isomiso2avc1mp41</property>
  <property name="kdenlive:original.meta.attr.encoder.markup">Lavf60.3.100</property>
  <property name="kdenlive:original.meta.attr.comment.markup">Rendered with Manim Community v0.17.3</property>
  <property name="kdenlive:original.seekable">1</property>
  <property name="kdenlive:original.width">1920</property>
  <property name="kdenlive:original.height">1080</property>
  <property name="kdenlive:original.meta.media.sample_aspect_num">1</property>
  <property name="kdenlive:original.meta.media.sample_aspect_den">1</property>
  <property name="kdenlive:original.format">3</property>
  <property name="kdenlive:original.audio_index">-1</property>
  <property name="kdenlive:original.video_index">0</property>
  <property name="kdenlive:original.meta.media.frame_rate_num">60</property>
  <property name="kdenlive:original.meta.media.frame_rate_den">1</property>
  <property name="kdenlive:original.meta.media.colorspace">709</property>
  <property name="kdenlive:original.meta.media.color_trc">2</property>
  <property name="kdenlive:original.meta.media.has_b_frames">2</property>
  <property name="kdenlive:original.meta.media.width">1920</property>
  <property name="kdenlive:original.meta.media.height">1080</property>
  <property name="kdenlive:original.meta.media.color_range">mpeg</property>
  <property name="kdenlive:original.meta.media.top_field_first">0</property>
  <property name="kdenlive:original.meta.media.progressive">1</property>
  <property name="kdenlive:original.kdenlive:clip_type">2</property>
  <property name="kdenlive:original.kdenlive:folderid">16</property>
  <property name="kdenlive:original.kdenlive:id">158</property>
  <property name="kdenlive:original.mute_on_pause">0</property>
  <property name="kdenlive:original.kdenlive:file_size">57521</property>
  <property name="kdenlive:original.kdenlive:file_hash">d0fa0c4d6d856e86f1d7f544e8c2ea34</property>
  <property name="kdenlive:original.backup">1</property>
  <property name="meta.media.nb_streams">1</property>
  <property name="meta.media.0.stream.type">video</property>
  <property name="meta.media.0.stream.frame_rate">60</property>
  <property name="meta.media.0.stream.sample_aspect_ratio">0</property>
  <property name="meta.media.0.codec.width">640</property>
  <property name="meta.media.0.codec.height">360</property>
  <property name="meta.media.0.codec.rotate">0</property>
  <property name="meta.media.0.codec.pix_fmt">yuvj420p</property>
  <property name="meta.media.0.codec.sample_aspect_ratio">0</property>
  <property name="meta.media.0.codec.colorspace">601</property>
  <property name="meta.media.0.codec.name">mjpeg</property>
  <property name="meta.media.0.codec.long_name">MJPEG (Motion JPEG)</property>
  <property name="meta.media.0.codec.bit_rate">0</property>
  <property name="meta.attr.0.stream.HANDLER_NAME.markup">VideoHandler</property>
  <property name="meta.attr.0.stream.VENDOR_ID.markup">[0][0][0][0]</property>
  <property name="meta.attr.0.stream.ENCODER.markup">Lavc60.3.100 mjpeg</property>
  <property name="meta.attr.0.stream.DURATION.markup">00:00:01.000000000</property>
  <property name="meta.attr.COMMENT.markup">Rendered with Manim Community v0.17.3</property>
  <property name="meta.attr.MAJOR_BRAND.markup">isom</property>
  <property name="meta.attr.MINOR_VERSION.markup">512</property>
  <property name="meta.attr.COMPATIBLE_BRANDS.markup">isomiso2avc1mp41</property>
  <property name="meta.attr.ENCODER.markup">Lavf60.3.100</property>
  <property name="meta.media.sample_aspect_num">1</property>
  <property name="meta.media.sample_aspect_den">1</property>
  <property name="meta.media.frame_rate_num">60</property>
  <property name="meta.media.frame_rate_den">1</property>
  <property name="meta.media.colorspace">601</property>
  <property name="meta.media.color_trc">2</property>
  <property name="meta.media.has_b_frames">0</property>
  <property name="meta.media.width">640</property>
  <property name="meta.media.height">360</property>
  <property name="meta.media.color_range">full</property>
  <property name="xml">was here</property>
  <property name="meta.media.top_field_first">0</property>
  <property name="meta.media.progressive">1</property>
  <property name="set.test_audio">1</property>
  <property name="set.test_image">0</property>
 </chain>
 <chain id="chain589" out="00:00:00.983">
  <property name="length">60</property>
  <property name="eof">pause</property>
  <property name="resource">/home/xiaoxiae/.cache/kdenlive/proxy/cec26e58e826eb489ae6ee44f1313e4e.mkv</property>
  <property name="mlt_service">avformat-novalidate</property>
  <property name="seekable">1</property>
  <property name="format">3</property>
  <property name="audio_index">-1</property>
  <property name="video_index">0</property>
  <property name="kdenlive:clipname">82.mp4</property>
  <property name="kdenlive:clip_type">2</property>
  <property name="kdenlive:folderid">16</property>
  <property name="kdenlive:id">159</property>
  <property name="mute_on_pause">0</property>
  <property name="kdenlive:file_size">149224</property>
  <property name="kdenlive:file_hash">cec26e58e826eb489ae6ee44f1313e4e</property>
  <property name="kdenlive:proxy">/home/xiaoxiae/.cache/kdenlive/proxy/cec26e58e826eb489ae6ee44f1313e4e.mkv</property>
  <property name="kdenlive:originalurl">video/Farmer/82.mp4</property>
  <property name="kdenlive:original.mlt_type">chain</property>
  <property name="kdenlive:original.in">0</property>
  <property name="kdenlive:original.out">00:00:00.983</property>
  <property name="kdenlive:original.length">60</property>
  <property name="kdenlive:original.eof">pause</property>
  <property name="kdenlive:original.resource">video/Farmer/82.mp4</property>
  <property name="kdenlive:original.mlt_service">avformat-novalidate</property>
  <property name="kdenlive:original.meta.media.nb_streams">1</property>
  <property name="kdenlive:original.meta.media.0.stream.type">video</property>
  <property name="kdenlive:original.meta.media.0.stream.frame_rate">60</property>
  <property name="kdenlive:original.meta.media.0.stream.sample_aspect_ratio">0</property>
  <property name="kdenlive:original.meta.media.0.codec.width">1920</property>
  <property name="kdenlive:original.meta.media.0.codec.height">1080</property>
  <property name="kdenlive:original.meta.media.0.codec.rotate">0</property>
  <property name="kdenlive:original.meta.media.0.codec.pix_fmt">yuv420p</property>
  <property name="kdenlive:original.meta.media.0.codec.sample_aspect_ratio">0</property>
  <property name="kdenlive:original.meta.media.0.codec.colorspace">709</property>
  <property name="kdenlive:original.meta.media.0.codec.name">h264</property>
  <property name="kdenlive:original.meta.media.0.codec.long_name">H.264 / AVC / MPEG-4 AVC / MPEG-4 part 10</property>
  <property name="kdenlive:original.meta.media.0.codec.bit_rate">1181632</property>
  <property name="kdenlive:original.meta.attr.0.stream.handler_name.markup">VideoHandler</property>
  <property name="kdenlive:original.meta.attr.0.stream.vendor_id.markup">[0][0][0][0]</property>
  <property name="kdenlive:original.meta.attr.0.stream.encoder.markup">Lavc60.3.100 libx264</property>
  <property name="kdenlive:original.meta.attr.major_brand.markup">isom</property>
  <property name="kdenlive:original.meta.attr.minor_version.markup">512</property>
  <property name="kdenlive:original.meta.attr.compatible_brands.markup">isomiso2avc1mp41</property>
  <property name="kdenlive:original.meta.attr.encoder.markup">Lavf60.3.100</property>
  <property name="kdenlive:original.meta.attr.comment.markup">Rendered with Manim Community v0.17.3</property>
  <property name="kdenlive:original.seekable">1</property>
  <property name="kdenlive:original.width">1920</property>
  <property name="kdenlive:original.height">1080</property>
  <property name="kdenlive:original.meta.media.sample_aspect_num">1</property>
  <property name="kdenlive:original.meta.media.sample_aspect_den">1</property>
  <property name="kdenlive:original.format">3</property>
  <property name="kdenlive:original.audio_index">-1</property>
  <property name="kdenlive:original.video_index">0</property>
  <property name="kdenlive:original.meta.media.frame_rate_num">60</property>
  <property name="kdenlive:original.meta.media.frame_rate_den">1</property>
  <property name="kdenlive:original.meta.media.colorspace">709</property>
  <property name="kdenlive:original.meta.media.color_trc">2</property>
  <property name="kdenlive:original.meta.media.has_b_frames">2</property>
  <property name="kdenlive:original.meta.media.width">1920</property>
  <property name="kdenlive:original.meta.media.height">1080</property>
  <property name="kdenlive:original.meta.media.color_range">mpeg</property>
  <property name="kdenlive:original.meta.media.top_field_first">0</property>
  <property name="kdenlive:original.meta.media.progressive">1</property>
  <property name="kdenlive:original.kdenlive:clip_type">2</property>
  <property name="kdenlive:original.kdenlive:folderid">16</property>
  <property name="kdenlive:original.kdenlive:id">159</property>
  <property name="kdenlive:original.mute_on_pause">0</property>
  <property name="kdenlive:original.kdenlive:file_size">149224</property>
  <property name="kdenlive:original.kdenlive:file_hash">cec26e58e826eb489ae6ee44f1313e4e</property>
  <property name="kdenlive:original.backup">1</property>
  <property name="meta.media.nb_streams">1</property>
  <property name="meta.media.0.stream.type">video</property>
  <property name="meta.media.0.stream.frame_rate">60</property>
  <property name="meta.media.0.stream.sample_aspect_ratio">0</property>
  <property name="meta.media.0.codec.width">640</property>
  <property name="meta.media.0.codec.height">360</property>
  <property name="meta.media.0.codec.rotate">0</property>
  <property name="meta.media.0.codec.pix_fmt">yuvj420p</property>
  <property name="meta.media.0.codec.sample_aspect_ratio">0</property>
  <property name="meta.media.0.codec.colorspace">601</property>
  <property name="meta.media.0.codec.name">mjpeg</property>
  <property name="meta.media.0.codec.long_name">MJPEG (Motion JPEG)</property>
  <property name="meta.media.0.codec.bit_rate">0</property>
  <property name="meta.attr.0.stream.HANDLER_NAME.markup">VideoHandler</property>
  <property name="meta.attr.0.stream.VENDOR_ID.markup">[0][0][0][0]</property>
  <property name="meta.attr.0.stream.ENCODER.markup">Lavc60.3.100 mjpeg</property>
  <property name="meta.attr.0.stream.DURATION.markup">00:00:01.000000000</property>
  <property name="meta.attr.COMMENT.markup">Rendered with Manim Community v0.17.3</property>
  <property name="meta.attr.MAJOR_BRAND.markup">isom</property>
  <property name="meta.attr.MINOR_VERSION.markup">512</property>
  <property name="meta.attr.COMPATIBLE_BRANDS.markup">isomiso2avc1mp41</property>
  <property name="meta.attr.ENCODER.markup">Lavf60.3.100</property>
  <property name="meta.media.sample_aspect_num">1</property>
  <property name="meta.media.sample_aspect_den">1</property>
  <property name="meta.media.frame_rate_num">60</property>
  <property name="meta.media.frame_rate_den">1</property>
  <property name="meta.media.colorspace">601</property>
  <property name="meta.media.color_trc">2</property>
  <property name="meta.media.has_b_frames">0</property>
  <property name="meta.media.width">640</property>
  <property name="meta.media.height">360</property>
  <property name="meta.media.color_range">full</property>
  <property name="xml">was here</property>
  <property name="meta.media.top_field_first">0</property>
  <property name="meta.media.progressive">1</property>
  <property name="set.test_audio">1</property>
  <property name="set.test_image">0</property>
 </chain>
 <chain id="chain590" out="00:00:01.067">
  <property name="length">65</property>
  <property name="eof">pause</property>
  <property name="resource">/home/xiaoxiae/.cache/kdenlive/proxy/69947f135020b97a7e36d9b1d605090f.mkv</property>
  <property name="mlt_service">avformat-novalidate</property>
  <property name="seekable">1</property>
  <property name="format">3</property>
  <property name="audio_index">-1</property>
  <property name="video_index">0</property>
  <property name="kdenlive:clipname">83.mp4</property>
  <property name="kdenlive:clip_type">2</property>
  <property name="kdenlive:folderid">16</property>
  <property name="kdenlive:id">160</property>
  <property name="mute_on_pause">0</property>
  <property name="kdenlive:file_size">56660</property>
  <property name="kdenlive:file_hash">69947f135020b97a7e36d9b1d605090f</property>
  <property name="kdenlive:proxy">/home/xiaoxiae/.cache/kdenlive/proxy/69947f135020b97a7e36d9b1d605090f.mkv</property>
  <property name="kdenlive:originalurl">video/Farmer/83.mp4</property>
  <property name="kdenlive:original.mlt_type">chain</property>
  <property name="kdenlive:original.in">0</property>
  <property name="kdenlive:original.out">00:00:01.067</property>
  <property name="kdenlive:original.length">65</property>
  <property name="kdenlive:original.eof">pause</property>
  <property name="kdenlive:original.resource">video/Farmer/83.mp4</property>
  <property name="kdenlive:original.mlt_service">avformat-novalidate</property>
  <property name="kdenlive:original.meta.media.nb_streams">1</property>
  <property name="kdenlive:original.meta.media.0.stream.type">video</property>
  <property name="kdenlive:original.meta.media.0.stream.frame_rate">60</property>
  <property name="kdenlive:original.meta.media.0.stream.sample_aspect_ratio">0</property>
  <property name="kdenlive:original.meta.media.0.codec.width">1920</property>
  <property name="kdenlive:original.meta.media.0.codec.height">1080</property>
  <property name="kdenlive:original.meta.media.0.codec.rotate">0</property>
  <property name="kdenlive:original.meta.media.0.codec.pix_fmt">yuv420p</property>
  <property name="kdenlive:original.meta.media.0.codec.sample_aspect_ratio">0</property>
  <property name="kdenlive:original.meta.media.0.codec.colorspace">709</property>
  <property name="kdenlive:original.meta.media.0.codec.name">h264</property>
  <property name="kdenlive:original.meta.media.0.codec.long_name">H.264 / AVC / MPEG-4 AVC / MPEG-4 part 10</property>
  <property name="kdenlive:original.meta.media.0.codec.bit_rate">405858</property>
  <property name="kdenlive:original.meta.attr.0.stream.handler_name.markup">VideoHandler</property>
  <property name="kdenlive:original.meta.attr.0.stream.vendor_id.markup">[0][0][0][0]</property>
  <property name="kdenlive:original.meta.attr.0.stream.encoder.markup">Lavc60.3.100 libx264</property>
  <property name="kdenlive:original.meta.attr.major_brand.markup">isom</property>
  <property name="kdenlive:original.meta.attr.minor_version.markup">512</property>
  <property name="kdenlive:original.meta.attr.compatible_brands.markup">isomiso2avc1mp41</property>
  <property name="kdenlive:original.meta.attr.encoder.markup">Lavf60.3.100</property>
  <property name="kdenlive:original.meta.attr.comment.markup">Rendered with Manim Community v0.17.3</property>
  <property name="kdenlive:original.seekable">1</property>
  <property name="kdenlive:original.width">1920</property>
  <property name="kdenlive:original.height">1080</property>
  <property name="kdenlive:original.meta.media.sample_aspect_num">1</property>
  <property name="kdenlive:original.meta.media.sample_aspect_den">1</property>
  <property name="kdenlive:original.format">3</property>
  <property name="kdenlive:original.audio_index">-1</property>
  <property name="kdenlive:original.video_index">0</property>
  <property name="kdenlive:original.meta.media.frame_rate_num">60</property>
  <property name="kdenlive:original.meta.media.frame_rate_den">1</property>
  <property name="kdenlive:original.meta.media.colorspace">709</property>
  <property name="kdenlive:original.meta.media.color_trc">2</property>
  <property name="kdenlive:original.meta.media.has_b_frames">2</property>
  <property name="kdenlive:original.meta.media.width">1920</property>
  <property name="kdenlive:original.meta.media.height">1080</property>
  <property name="kdenlive:original.meta.media.color_range">mpeg</property>
  <property name="kdenlive:original.meta.media.top_field_first">0</property>
  <property name="kdenlive:original.meta.media.progressive">1</property>
  <property name="kdenlive:original.kdenlive:clip_type">2</property>
  <property name="kdenlive:original.kdenlive:folderid">16</property>
  <property name="kdenlive:original.kdenlive:id">160</property>
  <property name="kdenlive:original.mute_on_pause">0</property>
  <property name="kdenlive:original.kdenlive:file_size">56660</property>
  <property name="kdenlive:original.kdenlive:file_hash">69947f135020b97a7e36d9b1d605090f</property>
  <property name="kdenlive:original.backup">1</property>
  <property name="meta.media.nb_streams">1</property>
  <property name="meta.media.0.stream.type">video</property>
  <property name="meta.media.0.stream.frame_rate">60</property>
  <property name="meta.media.0.stream.sample_aspect_ratio">0</property>
  <property name="meta.media.0.codec.width">640</property>
  <property name="meta.media.0.codec.height">360</property>
  <property name="meta.media.0.codec.rotate">0</property>
  <property name="meta.media.0.codec.pix_fmt">yuvj420p</property>
  <property name="meta.media.0.codec.sample_aspect_ratio">0</property>
  <property name="meta.media.0.codec.colorspace">601</property>
  <property name="meta.media.0.codec.name">mjpeg</property>
  <property name="meta.media.0.codec.long_name">MJPEG (Motion JPEG)</property>
  <property name="meta.media.0.codec.bit_rate">0</property>
  <property name="meta.attr.0.stream.HANDLER_NAME.markup">VideoHandler</property>
  <property name="meta.attr.0.stream.VENDOR_ID.markup">[0][0][0][0]</property>
  <property name="meta.attr.0.stream.ENCODER.markup">Lavc60.3.100 mjpeg</property>
  <property name="meta.attr.0.stream.DURATION.markup">00:00:01.084000000</property>
  <property name="meta.attr.COMMENT.markup">Rendered with Manim Community v0.17.3</property>
  <property name="meta.attr.MAJOR_BRAND.markup">isom</property>
  <property name="meta.attr.MINOR_VERSION.markup">512</property>
  <property name="meta.attr.COMPATIBLE_BRANDS.markup">isomiso2avc1mp41</property>
  <property name="meta.attr.ENCODER.markup">Lavf60.3.100</property>
  <property name="meta.media.sample_aspect_num">1</property>
  <property name="meta.media.sample_aspect_den">1</property>
  <property name="meta.media.frame_rate_num">60</property>
  <property name="meta.media.frame_rate_den">1</property>
  <property name="meta.media.colorspace">601</property>
  <property name="meta.media.color_trc">2</property>
  <property name="meta.media.has_b_frames">0</property>
  <property name="meta.media.width">640</property>
  <property name="meta.media.height">360</property>
  <property name="meta.media.color_range">full</property>
  <property name="xml">was here</property>
  <property name="meta.media.top_field_first">0</property>
  <property name="meta.media.progressive">1</property>
  <property name="set.test_audio">1</property>
  <property name="set.test_image">0</property>
 </chain>
 <chain id="chain591" out="00:00:01.067">
  <property name="length">65</property>
  <property name="eof">pause</property>
  <property name="resource">/home/xiaoxiae/.cache/kdenlive/proxy/200e1edf863fb5a8e2669d6fee0dd147.mkv</property>
  <property name="mlt_service">avformat-novalidate</property>
  <property name="seekable">1</property>
  <property name="format">3</property>
  <property name="audio_index">-1</property>
  <property name="video_index">0</property>
  <property name="kdenlive:clipname">84.mp4</property>
  <property name="kdenlive:clip_type">2</property>
  <property name="kdenlive:folderid">16</property>
  <property name="kdenlive:id">161</property>
  <property name="mute_on_pause">0</property>
  <property name="kdenlive:file_size">70734</property>
  <property name="kdenlive:file_hash">200e1edf863fb5a8e2669d6fee0dd147</property>
  <property name="kdenlive:proxy">/home/xiaoxiae/.cache/kdenlive/proxy/200e1edf863fb5a8e2669d6fee0dd147.mkv</property>
  <property name="kdenlive:originalurl">video/Farmer/84.mp4</property>
  <property name="kdenlive:original.mlt_type">chain</property>
  <property name="kdenlive:original.in">0</property>
  <property name="kdenlive:original.out">00:00:01.067</property>
  <property name="kdenlive:original.length">65</property>
  <property name="kdenlive:original.eof">pause</property>
  <property name="kdenlive:original.resource">video/Farmer/84.mp4</property>
  <property name="kdenlive:original.mlt_service">avformat-novalidate</property>
  <property name="kdenlive:original.meta.media.nb_streams">1</property>
  <property name="kdenlive:original.meta.media.0.stream.type">video</property>
  <property name="kdenlive:original.meta.media.0.stream.frame_rate">60</property>
  <property name="kdenlive:original.meta.media.0.stream.sample_aspect_ratio">0</property>
  <property name="kdenlive:original.meta.media.0.codec.width">1920</property>
  <property name="kdenlive:original.meta.media.0.codec.height">1080</property>
  <property name="kdenlive:original.meta.media.0.codec.rotate">0</property>
  <property name="kdenlive:original.meta.media.0.codec.pix_fmt">yuv420p</property>
  <property name="kdenlive:original.meta.media.0.codec.sample_aspect_ratio">0</property>
  <property name="kdenlive:original.meta.media.0.codec.colorspace">709</property>
  <property name="kdenlive:original.meta.media.0.codec.name">h264</property>
  <property name="kdenlive:original.meta.media.0.codec.long_name">H.264 / AVC / MPEG-4 AVC / MPEG-4 part 10</property>
  <property name="kdenlive:original.meta.media.0.codec.bit_rate">509789</property>
  <property name="kdenlive:original.meta.attr.0.stream.handler_name.markup">VideoHandler</property>
  <property name="kdenlive:original.meta.attr.0.stream.vendor_id.markup">[0][0][0][0]</property>
  <property name="kdenlive:original.meta.attr.0.stream.encoder.markup">Lavc60.3.100 libx264</property>
  <property name="kdenlive:original.meta.attr.major_brand.markup">isom</property>
  <property name="kdenlive:original.meta.attr.minor_version.markup">512</property>
  <property name="kdenlive:original.meta.attr.compatible_brands.markup">isomiso2avc1mp41</property>
  <property name="kdenlive:original.meta.attr.encoder.markup">Lavf60.3.100</property>
  <property name="kdenlive:original.meta.attr.comment.markup">Rendered with Manim Community v0.17.3</property>
  <property name="kdenlive:original.seekable">1</property>
  <property name="kdenlive:original.width">1920</property>
  <property name="kdenlive:original.height">1080</property>
  <property name="kdenlive:original.meta.media.sample_aspect_num">1</property>
  <property name="kdenlive:original.meta.media.sample_aspect_den">1</property>
  <property name="kdenlive:original.format">3</property>
  <property name="kdenlive:original.audio_index">-1</property>
  <property name="kdenlive:original.video_index">0</property>
  <property name="kdenlive:original.meta.media.frame_rate_num">60</property>
  <property name="kdenlive:original.meta.media.frame_rate_den">1</property>
  <property name="kdenlive:original.meta.media.colorspace">709</property>
  <property name="kdenlive:original.meta.media.color_trc">2</property>
  <property name="kdenlive:original.meta.media.has_b_frames">2</property>
  <property name="kdenlive:original.meta.media.width">1920</property>
  <property name="kdenlive:original.meta.media.height">1080</property>
  <property name="kdenlive:original.meta.media.color_range">mpeg</property>
  <property name="kdenlive:original.meta.media.top_field_first">0</property>
  <property name="kdenlive:original.meta.media.progressive">1</property>
  <property name="kdenlive:original.kdenlive:clip_type">2</property>
  <property name="kdenlive:original.kdenlive:folderid">16</property>
  <property name="kdenlive:original.kdenlive:id">161</property>
  <property name="kdenlive:original.mute_on_pause">0</property>
  <property name="kdenlive:original.kdenlive:file_size">70734</property>
  <property name="kdenlive:original.kdenlive:file_hash">200e1edf863fb5a8e2669d6fee0dd147</property>
  <property name="kdenlive:original.backup">1</property>
  <property name="meta.media.nb_streams">1</property>
  <property name="meta.media.0.stream.type">video</property>
  <property name="meta.media.0.stream.frame_rate">60</property>
  <property name="meta.media.0.stream.sample_aspect_ratio">0</property>
  <property name="meta.media.0.codec.width">640</property>
  <property name="meta.media.0.codec.height">360</property>
  <property name="meta.media.0.codec.rotate">0</property>
  <property name="meta.media.0.codec.pix_fmt">yuvj420p</property>
  <property name="meta.media.0.codec.sample_aspect_ratio">0</property>
  <property name="meta.media.0.codec.colorspace">601</property>
  <property name="meta.media.0.codec.name">mjpeg</property>
  <property name="meta.media.0.codec.long_name">MJPEG (Motion JPEG)</property>
  <property name="meta.media.0.codec.bit_rate">0</property>
  <property name="meta.attr.0.stream.HANDLER_NAME.markup">VideoHandler</property>
  <property name="meta.attr.0.stream.VENDOR_ID.markup">[0][0][0][0]</property>
  <property name="meta.attr.0.stream.ENCODER.markup">Lavc60.3.100 mjpeg</property>
  <property name="meta.attr.0.stream.DURATION.markup">00:00:01.084000000</property>
  <property name="meta.attr.COMMENT.markup">Rendered with Manim Community v0.17.3</property>
  <property name="meta.attr.MAJOR_BRAND.markup">isom</property>
  <property name="meta.attr.MINOR_VERSION.markup">512</property>
  <property name="meta.attr.COMPATIBLE_BRANDS.markup">isomiso2avc1mp41</property>
  <property name="meta.attr.ENCODER.markup">Lavf60.3.100</property>
  <property name="meta.media.sample_aspect_num">1</property>
  <property name="meta.media.sample_aspect_den">1</property>
  <property name="meta.media.frame_rate_num">60</property>
  <property name="meta.media.frame_rate_den">1</property>
  <property name="meta.media.colorspace">601</property>
  <property name="meta.media.color_trc">2</property>
  <property name="meta.media.has_b_frames">0</property>
  <property name="meta.media.width">640</property>
  <property name="meta.media.height">360</property>
  <property name="meta.media.color_range">full</property>
  <property name="xml">was here</property>
  <property name="meta.media.top_field_first">0</property>
  <property name="meta.media.progressive">1</property>
  <property name="set.test_audio">1</property>
  <property name="set.test_image">0</property>
 </chain>
 <chain id="chain592" out="00:00:00.983">
  <property name="length">60</property>
  <property name="eof">pause</property>
  <property name="resource">/home/xiaoxiae/.cache/kdenlive/proxy/784d5ec72ad2793f7c1ac07df847469a.mkv</property>
  <property name="mlt_service">avformat-novalidate</property>
  <property name="seekable">1</property>
  <property name="format">3</property>
  <property name="audio_index">-1</property>
  <property name="video_index">0</property>
  <property name="kdenlive:clipname">85.mp4</property>
  <property name="kdenlive:clip_type">2</property>
  <property name="kdenlive:folderid">16</property>
  <property name="kdenlive:id">162</property>
  <property name="mute_on_pause">0</property>
  <property name="kdenlive:file_size">166984</property>
  <property name="kdenlive:file_hash">784d5ec72ad2793f7c1ac07df847469a</property>
  <property name="kdenlive:proxy">/home/xiaoxiae/.cache/kdenlive/proxy/784d5ec72ad2793f7c1ac07df847469a.mkv</property>
  <property name="kdenlive:originalurl">video/Farmer/85.mp4</property>
  <property name="kdenlive:original.mlt_type">chain</property>
  <property name="kdenlive:original.in">0</property>
  <property name="kdenlive:original.out">00:00:00.983</property>
  <property name="kdenlive:original.length">60</property>
  <property name="kdenlive:original.eof">pause</property>
  <property name="kdenlive:original.resource">video/Farmer/85.mp4</property>
  <property name="kdenlive:original.mlt_service">avformat-novalidate</property>
  <property name="kdenlive:original.meta.media.nb_streams">1</property>
  <property name="kdenlive:original.meta.media.0.stream.type">video</property>
  <property name="kdenlive:original.meta.media.0.stream.frame_rate">60</property>
  <property name="kdenlive:original.meta.media.0.stream.sample_aspect_ratio">0</property>
  <property name="kdenlive:original.meta.media.0.codec.width">1920</property>
  <property name="kdenlive:original.meta.media.0.codec.height">1080</property>
  <property name="kdenlive:original.meta.media.0.codec.rotate">0</property>
  <property name="kdenlive:original.meta.media.0.codec.pix_fmt">yuv420p</property>
  <property name="kdenlive:original.meta.media.0.codec.sample_aspect_ratio">0</property>
  <property name="kdenlive:original.meta.media.0.codec.colorspace">709</property>
  <property name="kdenlive:original.meta.media.0.codec.name">h264</property>
  <property name="kdenlive:original.meta.media.0.codec.long_name">H.264 / AVC / MPEG-4 AVC / MPEG-4 part 10</property>
  <property name="kdenlive:original.meta.media.0.codec.bit_rate">1324160</property>
  <property name="kdenlive:original.meta.attr.0.stream.handler_name.markup">VideoHandler</property>
  <property name="kdenlive:original.meta.attr.0.stream.vendor_id.markup">[0][0][0][0]</property>
  <property name="kdenlive:original.meta.attr.0.stream.encoder.markup">Lavc60.3.100 libx264</property>
  <property name="kdenlive:original.meta.attr.major_brand.markup">isom</property>
  <property name="kdenlive:original.meta.attr.minor_version.markup">512</property>
  <property name="kdenlive:original.meta.attr.compatible_brands.markup">isomiso2avc1mp41</property>
  <property name="kdenlive:original.meta.attr.encoder.markup">Lavf60.3.100</property>
  <property name="kdenlive:original.meta.attr.comment.markup">Rendered with Manim Community v0.17.3</property>
  <property name="kdenlive:original.seekable">1</property>
  <property name="kdenlive:original.width">1920</property>
  <property name="kdenlive:original.height">1080</property>
  <property name="kdenlive:original.meta.media.sample_aspect_num">1</property>
  <property name="kdenlive:original.meta.media.sample_aspect_den">1</property>
  <property name="kdenlive:original.format">3</property>
  <property name="kdenlive:original.audio_index">-1</property>
  <property name="kdenlive:original.video_index">0</property>
  <property name="kdenlive:original.meta.media.frame_rate_num">60</property>
  <property name="kdenlive:original.meta.media.frame_rate_den">1</property>
  <property name="kdenlive:original.meta.media.colorspace">709</property>
  <property name="kdenlive:original.meta.media.color_trc">2</property>
  <property name="kdenlive:original.meta.media.has_b_frames">2</property>
  <property name="kdenlive:original.meta.media.width">1920</property>
  <property name="kdenlive:original.meta.media.height">1080</property>
  <property name="kdenlive:original.meta.media.color_range">mpeg</property>
  <property name="kdenlive:original.meta.media.top_field_first">0</property>
  <property name="kdenlive:original.meta.media.progressive">1</property>
  <property name="kdenlive:original.kdenlive:clip_type">2</property>
  <property name="kdenlive:original.kdenlive:folderid">16</property>
  <property name="kdenlive:original.kdenlive:id">162</property>
  <property name="kdenlive:original.mute_on_pause">0</property>
  <property name="kdenlive:original.kdenlive:file_size">166984</property>
  <property name="kdenlive:original.kdenlive:file_hash">784d5ec72ad2793f7c1ac07df847469a</property>
  <property name="kdenlive:original.backup">1</property>
  <property name="meta.media.nb_streams">1</property>
  <property name="meta.media.0.stream.type">video</property>
  <property name="meta.media.0.stream.frame_rate">60</property>
  <property name="meta.media.0.stream.sample_aspect_ratio">0</property>
  <property name="meta.media.0.codec.width">640</property>
  <property name="meta.media.0.codec.height">360</property>
  <property name="meta.media.0.codec.rotate">0</property>
  <property name="meta.media.0.codec.pix_fmt">yuvj420p</property>
  <property name="meta.media.0.codec.sample_aspect_ratio">0</property>
  <property name="meta.media.0.codec.colorspace">601</property>
  <property name="meta.media.0.codec.name">mjpeg</property>
  <property name="meta.media.0.codec.long_name">MJPEG (Motion JPEG)</property>
  <property name="meta.media.0.codec.bit_rate">0</property>
  <property name="meta.attr.0.stream.HANDLER_NAME.markup">VideoHandler</property>
  <property name="meta.attr.0.stream.VENDOR_ID.markup">[0][0][0][0]</property>
  <property name="meta.attr.0.stream.ENCODER.markup">Lavc60.3.100 mjpeg</property>
  <property name="meta.attr.0.stream.DURATION.markup">00:00:01.000000000</property>
  <property name="meta.attr.COMMENT.markup">Rendered with Manim Community v0.17.3</property>
  <property name="meta.attr.MAJOR_BRAND.markup">isom</property>
  <property name="meta.attr.MINOR_VERSION.markup">512</property>
  <property name="meta.attr.COMPATIBLE_BRANDS.markup">isomiso2avc1mp41</property>
  <property name="meta.attr.ENCODER.markup">Lavf60.3.100</property>
  <property name="meta.media.sample_aspect_num">1</property>
  <property name="meta.media.sample_aspect_den">1</property>
  <property name="meta.media.frame_rate_num">60</property>
  <property name="meta.media.frame_rate_den">1</property>
  <property name="meta.media.colorspace">601</property>
  <property name="meta.media.color_trc">2</property>
  <property name="meta.media.has_b_frames">0</property>
  <property name="meta.media.width">640</property>
  <property name="meta.media.height">360</property>
  <property name="meta.media.color_range">full</property>
  <property name="xml">was here</property>
  <property name="meta.media.top_field_first">0</property>
  <property name="meta.media.progressive">1</property>
  <property name="set.test_audio">1</property>
  <property name="set.test_image">0</property>
 </chain>
 <chain id="chain593" out="00:00:00.983">
  <property name="length">60</property>
  <property name="eof">pause</property>
  <property name="resource">/home/xiaoxiae/.cache/kdenlive/proxy/498029489bbc214da6e4fb86d3ba6cc8.mkv</property>
  <property name="mlt_service">avformat-novalidate</property>
  <property name="seekable">1</property>
  <property name="format">3</property>
  <property name="audio_index">-1</property>
  <property name="video_index">0</property>
  <property name="kdenlive:clipname">86.mp4</property>
  <property name="kdenlive:clip_type">2</property>
  <property name="kdenlive:folderid">16</property>
  <property name="kdenlive:id">163</property>
  <property name="mute_on_pause">0</property>
  <property name="kdenlive:file_size">68064</property>
  <property name="kdenlive:file_hash">498029489bbc214da6e4fb86d3ba6cc8</property>
  <property name="kdenlive:proxy">/home/xiaoxiae/.cache/kdenlive/proxy/498029489bbc214da6e4fb86d3ba6cc8.mkv</property>
  <property name="kdenlive:originalurl">video/Farmer/86.mp4</property>
  <property name="kdenlive:original.mlt_type">chain</property>
  <property name="kdenlive:original.in">0</property>
  <property name="kdenlive:original.out">00:00:00.983</property>
  <property name="kdenlive:original.length">60</property>
  <property name="kdenlive:original.eof">pause</property>
  <property name="kdenlive:original.resource">video/Farmer/86.mp4</property>
  <property name="kdenlive:original.mlt_service">avformat-novalidate</property>
  <property name="kdenlive:original.meta.media.nb_streams">1</property>
  <property name="kdenlive:original.meta.media.0.stream.type">video</property>
  <property name="kdenlive:original.meta.media.0.stream.frame_rate">60</property>
  <property name="kdenlive:original.meta.media.0.stream.sample_aspect_ratio">0</property>
  <property name="kdenlive:original.meta.media.0.codec.width">1920</property>
  <property name="kdenlive:original.meta.media.0.codec.height">1080</property>
  <property name="kdenlive:original.meta.media.0.codec.rotate">0</property>
  <property name="kdenlive:original.meta.media.0.codec.pix_fmt">yuv420p</property>
  <property name="kdenlive:original.meta.media.0.codec.sample_aspect_ratio">0</property>
  <property name="kdenlive:original.meta.media.0.codec.colorspace">709</property>
  <property name="kdenlive:original.meta.media.0.codec.name">h264</property>
  <property name="kdenlive:original.meta.media.0.codec.long_name">H.264 / AVC / MPEG-4 AVC / MPEG-4 part 10</property>
  <property name="kdenlive:original.meta.media.0.codec.bit_rate">531456</property>
  <property name="kdenlive:original.meta.attr.0.stream.handler_name.markup">VideoHandler</property>
  <property name="kdenlive:original.meta.attr.0.stream.vendor_id.markup">[0][0][0][0]</property>
  <property name="kdenlive:original.meta.attr.0.stream.encoder.markup">Lavc60.3.100 libx264</property>
  <property name="kdenlive:original.meta.attr.major_brand.markup">isom</property>
  <property name="kdenlive:original.meta.attr.minor_version.markup">512</property>
  <property name="kdenlive:original.meta.attr.compatible_brands.markup">isomiso2avc1mp41</property>
  <property name="kdenlive:original.meta.attr.encoder.markup">Lavf60.3.100</property>
  <property name="kdenlive:original.meta.attr.comment.markup">Rendered with Manim Community v0.17.3</property>
  <property name="kdenlive:original.seekable">1</property>
  <property name="kdenlive:original.width">1920</property>
  <property name="kdenlive:original.height">1080</property>
  <property name="kdenlive:original.meta.media.sample_aspect_num">1</property>
  <property name="kdenlive:original.meta.media.sample_aspect_den">1</property>
  <property name="kdenlive:original.format">3</property>
  <property name="kdenlive:original.audio_index">-1</property>
  <property name="kdenlive:original.video_index">0</property>
  <property name="kdenlive:original.meta.media.frame_rate_num">60</property>
  <property name="kdenlive:original.meta.media.frame_rate_den">1</property>
  <property name="kdenlive:original.meta.media.colorspace">709</property>
  <property name="kdenlive:original.meta.media.color_trc">2</property>
  <property name="kdenlive:original.meta.media.has_b_frames">2</property>
  <property name="kdenlive:original.meta.media.width">1920</property>
  <property name="kdenlive:original.meta.media.height">1080</property>
  <property name="kdenlive:original.meta.media.color_range">mpeg</property>
  <property name="kdenlive:original.meta.media.top_field_first">0</property>
  <property name="kdenlive:original.meta.media.progressive">1</property>
  <property name="kdenlive:original.kdenlive:clip_type">2</property>
  <property name="kdenlive:original.kdenlive:folderid">16</property>
  <property name="kdenlive:original.kdenlive:id">163</property>
  <property name="kdenlive:original.mute_on_pause">0</property>
  <property name="kdenlive:original.kdenlive:file_size">68064</property>
  <property name="kdenlive:original.kdenlive:file_hash">498029489bbc214da6e4fb86d3ba6cc8</property>
  <property name="kdenlive:original.backup">1</property>
  <property name="meta.media.nb_streams">1</property>
  <property name="meta.media.0.stream.type">video</property>
  <property name="meta.media.0.stream.frame_rate">60</property>
  <property name="meta.media.0.stream.sample_aspect_ratio">0</property>
  <property name="meta.media.0.codec.width">640</property>
  <property name="meta.media.0.codec.height">360</property>
  <property name="meta.media.0.codec.rotate">0</property>
  <property name="meta.media.0.codec.pix_fmt">yuvj420p</property>
  <property name="meta.media.0.codec.sample_aspect_ratio">0</property>
  <property name="meta.media.0.codec.colorspace">601</property>
  <property name="meta.media.0.codec.name">mjpeg</property>
  <property name="meta.media.0.codec.long_name">MJPEG (Motion JPEG)</property>
  <property name="meta.media.0.codec.bit_rate">0</property>
  <property name="meta.attr.0.stream.HANDLER_NAME.markup">VideoHandler</property>
  <property name="meta.attr.0.stream.VENDOR_ID.markup">[0][0][0][0]</property>
  <property name="meta.attr.0.stream.ENCODER.markup">Lavc60.3.100 mjpeg</property>
  <property name="meta.attr.0.stream.DURATION.markup">00:00:01.000000000</property>
  <property name="meta.attr.COMMENT.markup">Rendered with Manim Community v0.17.3</property>
  <property name="meta.attr.MAJOR_BRAND.markup">isom</property>
  <property name="meta.attr.MINOR_VERSION.markup">512</property>
  <property name="meta.attr.COMPATIBLE_BRANDS.markup">isomiso2avc1mp41</property>
  <property name="meta.attr.ENCODER.markup">Lavf60.3.100</property>
  <property name="meta.media.sample_aspect_num">1</property>
  <property name="meta.media.sample_aspect_den">1</property>
  <property name="meta.media.frame_rate_num">60</property>
  <property name="meta.media.frame_rate_den">1</property>
  <property name="meta.media.colorspace">601</property>
  <property name="meta.media.color_trc">2</property>
  <property name="meta.media.has_b_frames">0</property>
  <property name="meta.media.width">640</property>
  <property name="meta.media.height">360</property>
  <property name="meta.media.color_range">full</property>
  <property name="xml">was here</property>
  <property name="meta.media.top_field_first">0</property>
  <property name="meta.media.progressive">1</property>
  <property name="set.test_audio">1</property>
  <property name="set.test_image">0</property>
 </chain>
 <chain id="chain594" out="00:00:01.733">
  <property name="length">105</property>
  <property name="eof">pause</property>
  <property name="resource">/home/xiaoxiae/.cache/kdenlive/proxy/31214152ff0527ea8302138f256c0cbb.mkv</property>
  <property name="mlt_service">avformat-novalidate</property>
  <property name="seekable">1</property>
  <property name="format">3</property>
  <property name="audio_index">-1</property>
  <property name="video_index">0</property>
  <property name="kdenlive:clipname">87.mp4</property>
  <property name="kdenlive:clip_type">2</property>
  <property name="kdenlive:folderid">16</property>
  <property name="kdenlive:id">164</property>
  <property name="mute_on_pause">0</property>
  <property name="kdenlive:file_size">74040</property>
  <property name="kdenlive:file_hash">31214152ff0527ea8302138f256c0cbb</property>
  <property name="kdenlive:proxy">/home/xiaoxiae/.cache/kdenlive/proxy/31214152ff0527ea8302138f256c0cbb.mkv</property>
  <property name="kdenlive:originalurl">video/Farmer/87.mp4</property>
  <property name="kdenlive:original.mlt_type">chain</property>
  <property name="kdenlive:original.in">0</property>
  <property name="kdenlive:original.out">00:00:01.733</property>
  <property name="kdenlive:original.length">105</property>
  <property name="kdenlive:original.eof">pause</property>
  <property name="kdenlive:original.resource">video/Farmer/87.mp4</property>
  <property name="kdenlive:original.mlt_service">avformat-novalidate</property>
  <property name="kdenlive:original.meta.media.nb_streams">1</property>
  <property name="kdenlive:original.meta.media.0.stream.type">video</property>
  <property name="kdenlive:original.meta.media.0.stream.frame_rate">60</property>
  <property name="kdenlive:original.meta.media.0.stream.sample_aspect_ratio">0</property>
  <property name="kdenlive:original.meta.media.0.codec.width">1920</property>
  <property name="kdenlive:original.meta.media.0.codec.height">1080</property>
  <property name="kdenlive:original.meta.media.0.codec.rotate">0</property>
  <property name="kdenlive:original.meta.media.0.codec.pix_fmt">yuv420p</property>
  <property name="kdenlive:original.meta.media.0.codec.sample_aspect_ratio">0</property>
  <property name="kdenlive:original.meta.media.0.codec.colorspace">709</property>
  <property name="kdenlive:original.meta.media.0.codec.name">h264</property>
  <property name="kdenlive:original.meta.media.0.codec.long_name">H.264 / AVC / MPEG-4 AVC / MPEG-4 part 10</property>
  <property name="kdenlive:original.meta.media.0.codec.bit_rate">328502</property>
  <property name="kdenlive:original.meta.attr.0.stream.handler_name.markup">VideoHandler</property>
  <property name="kdenlive:original.meta.attr.0.stream.vendor_id.markup">[0][0][0][0]</property>
  <property name="kdenlive:original.meta.attr.0.stream.encoder.markup">Lavc60.3.100 libx264</property>
  <property name="kdenlive:original.meta.attr.major_brand.markup">isom</property>
  <property name="kdenlive:original.meta.attr.minor_version.markup">512</property>
  <property name="kdenlive:original.meta.attr.compatible_brands.markup">isomiso2avc1mp41</property>
  <property name="kdenlive:original.meta.attr.encoder.markup">Lavf60.3.100</property>
  <property name="kdenlive:original.meta.attr.comment.markup">Rendered with Manim Community v0.17.3</property>
  <property name="kdenlive:original.seekable">1</property>
  <property name="kdenlive:original.width">1920</property>
  <property name="kdenlive:original.height">1080</property>
  <property name="kdenlive:original.meta.media.sample_aspect_num">1</property>
  <property name="kdenlive:original.meta.media.sample_aspect_den">1</property>
  <property name="kdenlive:original.format">3</property>
  <property name="kdenlive:original.audio_index">-1</property>
  <property name="kdenlive:original.video_index">0</property>
  <property name="kdenlive:original.meta.media.frame_rate_num">60</property>
  <property name="kdenlive:original.meta.media.frame_rate_den">1</property>
  <property name="kdenlive:original.meta.media.colorspace">709</property>
  <property name="kdenlive:original.meta.media.color_trc">2</property>
  <property name="kdenlive:original.meta.media.has_b_frames">2</property>
  <property name="kdenlive:original.meta.media.width">1920</property>
  <property name="kdenlive:original.meta.media.height">1080</property>
  <property name="kdenlive:original.meta.media.color_range">mpeg</property>
  <property name="kdenlive:original.meta.media.top_field_first">0</property>
  <property name="kdenlive:original.meta.media.progressive">1</property>
  <property name="kdenlive:original.kdenlive:clip_type">2</property>
  <property name="kdenlive:original.kdenlive:folderid">16</property>
  <property name="kdenlive:original.kdenlive:id">164</property>
  <property name="kdenlive:original.mute_on_pause">0</property>
  <property name="kdenlive:original.kdenlive:file_size">74040</property>
  <property name="kdenlive:original.kdenlive:file_hash">31214152ff0527ea8302138f256c0cbb</property>
  <property name="kdenlive:original.backup">1</property>
  <property name="meta.media.nb_streams">1</property>
  <property name="meta.media.0.stream.type">video</property>
  <property name="meta.media.0.stream.frame_rate">60</property>
  <property name="meta.media.0.stream.sample_aspect_ratio">0</property>
  <property name="meta.media.0.codec.width">640</property>
  <property name="meta.media.0.codec.height">360</property>
  <property name="meta.media.0.codec.rotate">0</property>
  <property name="meta.media.0.codec.pix_fmt">yuvj420p</property>
  <property name="meta.media.0.codec.sample_aspect_ratio">0</property>
  <property name="meta.media.0.codec.colorspace">601</property>
  <property name="meta.media.0.codec.name">mjpeg</property>
  <property name="meta.media.0.codec.long_name">MJPEG (Motion JPEG)</property>
  <property name="meta.media.0.codec.bit_rate">0</property>
  <property name="meta.attr.0.stream.HANDLER_NAME.markup">VideoHandler</property>
  <property name="meta.attr.0.stream.VENDOR_ID.markup">[0][0][0][0]</property>
  <property name="meta.attr.0.stream.ENCODER.markup">Lavc60.3.100 mjpeg</property>
  <property name="meta.attr.0.stream.DURATION.markup">00:00:01.750000000</property>
  <property name="meta.attr.COMMENT.markup">Rendered with Manim Community v0.17.3</property>
  <property name="meta.attr.MAJOR_BRAND.markup">isom</property>
  <property name="meta.attr.MINOR_VERSION.markup">512</property>
  <property name="meta.attr.COMPATIBLE_BRANDS.markup">isomiso2avc1mp41</property>
  <property name="meta.attr.ENCODER.markup">Lavf60.3.100</property>
  <property name="meta.media.sample_aspect_num">1</property>
  <property name="meta.media.sample_aspect_den">1</property>
  <property name="meta.media.frame_rate_num">60</property>
  <property name="meta.media.frame_rate_den">1</property>
  <property name="meta.media.colorspace">601</property>
  <property name="meta.media.color_trc">2</property>
  <property name="meta.media.has_b_frames">0</property>
  <property name="meta.media.width">640</property>
  <property name="meta.media.height">360</property>
  <property name="meta.media.color_range">full</property>
  <property name="xml">was here</property>
  <property name="meta.media.top_field_first">0</property>
  <property name="meta.media.progressive">1</property>
  <property name="set.test_audio">1</property>
  <property name="set.test_image">0</property>
 </chain>
 <chain id="chain595" out="00:00:00.983">
  <property name="length">60</property>
  <property name="eof">pause</property>
  <property name="resource">/home/xiaoxiae/.cache/kdenlive/proxy/50841e94cd7688fe84bce590c96b9e2a.mkv</property>
  <property name="mlt_service">avformat-novalidate</property>
  <property name="seekable">1</property>
  <property name="format">3</property>
  <property name="audio_index">-1</property>
  <property name="video_index">0</property>
  <property name="kdenlive:clipname">88.mp4</property>
  <property name="kdenlive:clip_type">2</property>
  <property name="kdenlive:folderid">16</property>
  <property name="kdenlive:id">165</property>
  <property name="mute_on_pause">0</property>
  <property name="kdenlive:file_size">62696</property>
  <property name="kdenlive:file_hash">50841e94cd7688fe84bce590c96b9e2a</property>
  <property name="kdenlive:proxy">/home/xiaoxiae/.cache/kdenlive/proxy/50841e94cd7688fe84bce590c96b9e2a.mkv</property>
  <property name="kdenlive:originalurl">video/Farmer/88.mp4</property>
  <property name="kdenlive:original.mlt_type">chain</property>
  <property name="kdenlive:original.in">0</property>
  <property name="kdenlive:original.out">00:00:00.983</property>
  <property name="kdenlive:original.length">60</property>
  <property name="kdenlive:original.eof">pause</property>
  <property name="kdenlive:original.resource">video/Farmer/88.mp4</property>
  <property name="kdenlive:original.mlt_service">avformat-novalidate</property>
  <property name="kdenlive:original.meta.media.nb_streams">1</property>
  <property name="kdenlive:original.meta.media.0.stream.type">video</property>
  <property name="kdenlive:original.meta.media.0.stream.frame_rate">60</property>
  <property name="kdenlive:original.meta.media.0.stream.sample_aspect_ratio">0</property>
  <property name="kdenlive:original.meta.media.0.codec.width">1920</property>
  <property name="kdenlive:original.meta.media.0.codec.height">1080</property>
  <property name="kdenlive:original.meta.media.0.codec.rotate">0</property>
  <property name="kdenlive:original.meta.media.0.codec.pix_fmt">yuv420p</property>
  <property name="kdenlive:original.meta.media.0.codec.sample_aspect_ratio">0</property>
  <property name="kdenlive:original.meta.media.0.codec.colorspace">709</property>
  <property name="kdenlive:original.meta.media.0.codec.name">h264</property>
  <property name="kdenlive:original.meta.media.0.codec.long_name">H.264 / AVC / MPEG-4 AVC / MPEG-4 part 10</property>
  <property name="kdenlive:original.meta.media.0.codec.bit_rate">488512</property>
  <property name="kdenlive:original.meta.attr.0.stream.handler_name.markup">VideoHandler</property>
  <property name="kdenlive:original.meta.attr.0.stream.vendor_id.markup">[0][0][0][0]</property>
  <property name="kdenlive:original.meta.attr.0.stream.encoder.markup">Lavc60.3.100 libx264</property>
  <property name="kdenlive:original.meta.attr.major_brand.markup">isom</property>
  <property name="kdenlive:original.meta.attr.minor_version.markup">512</property>
  <property name="kdenlive:original.meta.attr.compatible_brands.markup">isomiso2avc1mp41</property>
  <property name="kdenlive:original.meta.attr.encoder.markup">Lavf60.3.100</property>
  <property name="kdenlive:original.meta.attr.comment.markup">Rendered with Manim Community v0.17.3</property>
  <property name="kdenlive:original.seekable">1</property>
  <property name="kdenlive:original.width">1920</property>
  <property name="kdenlive:original.height">1080</property>
  <property name="kdenlive:original.meta.media.sample_aspect_num">1</property>
  <property name="kdenlive:original.meta.media.sample_aspect_den">1</property>
  <property name="kdenlive:original.format">3</property>
  <property name="kdenlive:original.audio_index">-1</property>
  <property name="kdenlive:original.video_index">0</property>
  <property name="kdenlive:original.meta.media.frame_rate_num">60</property>
  <property name="kdenlive:original.meta.media.frame_rate_den">1</property>
  <property name="kdenlive:original.meta.media.colorspace">709</property>
  <property name="kdenlive:original.meta.media.color_trc">2</property>
  <property name="kdenlive:original.meta.media.has_b_frames">2</property>
  <property name="kdenlive:original.meta.media.width">1920</property>
  <property name="kdenlive:original.meta.media.height">1080</property>
  <property name="kdenlive:original.meta.media.color_range">mpeg</property>
  <property name="kdenlive:original.meta.media.top_field_first">0</property>
  <property name="kdenlive:original.meta.media.progressive">1</property>
  <property name="kdenlive:original.kdenlive:clip_type">2</property>
  <property name="kdenlive:original.kdenlive:folderid">16</property>
  <property name="kdenlive:original.kdenlive:id">165</property>
  <property name="kdenlive:original.mute_on_pause">0</property>
  <property name="kdenlive:original.kdenlive:file_size">62696</property>
  <property name="kdenlive:original.kdenlive:file_hash">50841e94cd7688fe84bce590c96b9e2a</property>
  <property name="kdenlive:original.backup">1</property>
  <property name="meta.media.nb_streams">1</property>
  <property name="meta.media.0.stream.type">video</property>
  <property name="meta.media.0.stream.frame_rate">60</property>
  <property name="meta.media.0.stream.sample_aspect_ratio">0</property>
  <property name="meta.media.0.codec.width">640</property>
  <property name="meta.media.0.codec.height">360</property>
  <property name="meta.media.0.codec.rotate">0</property>
  <property name="meta.media.0.codec.pix_fmt">yuvj420p</property>
  <property name="meta.media.0.codec.sample_aspect_ratio">0</property>
  <property name="meta.media.0.codec.colorspace">601</property>
  <property name="meta.media.0.codec.name">mjpeg</property>
  <property name="meta.media.0.codec.long_name">MJPEG (Motion JPEG)</property>
  <property name="meta.media.0.codec.bit_rate">0</property>
  <property name="meta.attr.0.stream.HANDLER_NAME.markup">VideoHandler</property>
  <property name="meta.attr.0.stream.VENDOR_ID.markup">[0][0][0][0]</property>
  <property name="meta.attr.0.stream.ENCODER.markup">Lavc60.3.100 mjpeg</property>
  <property name="meta.attr.0.stream.DURATION.markup">00:00:01.000000000</property>
  <property name="meta.attr.COMMENT.markup">Rendered with Manim Community v0.17.3</property>
  <property name="meta.attr.MAJOR_BRAND.markup">isom</property>
  <property name="meta.attr.MINOR_VERSION.markup">512</property>
  <property name="meta.attr.COMPATIBLE_BRANDS.markup">isomiso2avc1mp41</property>
  <property name="meta.attr.ENCODER.markup">Lavf60.3.100</property>
  <property name="meta.media.sample_aspect_num">1</property>
  <property name="meta.media.sample_aspect_den">1</property>
  <property name="meta.media.frame_rate_num">60</property>
  <property name="meta.media.frame_rate_den">1</property>
  <property name="meta.media.colorspace">601</property>
  <property name="meta.media.color_trc">2</property>
  <property name="meta.media.has_b_frames">0</property>
  <property name="meta.media.width">640</property>
  <property name="meta.media.height">360</property>
  <property name="meta.media.color_range">full</property>
  <property name="xml">was here</property>
  <property name="meta.media.top_field_first">0</property>
  <property name="meta.media.progressive">1</property>
  <property name="set.test_audio">1</property>
  <property name="set.test_image">0</property>
 </chain>
 <chain id="chain596" out="00:00:00.983">
  <property name="length">60</property>
  <property name="eof">pause</property>
  <property name="resource">/home/xiaoxiae/.cache/kdenlive/proxy/40616ac56404b3714a810da8716b4f78.mkv</property>
  <property name="mlt_service">avformat-novalidate</property>
  <property name="seekable">1</property>
  <property name="format">3</property>
  <property name="audio_index">-1</property>
  <property name="video_index">0</property>
  <property name="kdenlive:clipname">89.mp4</property>
  <property name="kdenlive:clip_type">2</property>
  <property name="kdenlive:folderid">16</property>
  <property name="kdenlive:id">166</property>
  <property name="mute_on_pause">0</property>
  <property name="kdenlive:file_size">195175</property>
  <property name="kdenlive:file_hash">40616ac56404b3714a810da8716b4f78</property>
  <property name="kdenlive:proxy">/home/xiaoxiae/.cache/kdenlive/proxy/40616ac56404b3714a810da8716b4f78.mkv</property>
  <property name="kdenlive:originalurl">video/Farmer/89.mp4</property>
  <property name="kdenlive:original.mlt_type">chain</property>
  <property name="kdenlive:original.in">0</property>
  <property name="kdenlive:original.out">00:00:00.983</property>
  <property name="kdenlive:original.length">60</property>
  <property name="kdenlive:original.eof">pause</property>
  <property name="kdenlive:original.resource">video/Farmer/89.mp4</property>
  <property name="kdenlive:original.mlt_service">avformat-novalidate</property>
  <property name="kdenlive:original.meta.media.nb_streams">1</property>
  <property name="kdenlive:original.meta.media.0.stream.type">video</property>
  <property name="kdenlive:original.meta.media.0.stream.frame_rate">60</property>
  <property name="kdenlive:original.meta.media.0.stream.sample_aspect_ratio">0</property>
  <property name="kdenlive:original.meta.media.0.codec.width">1920</property>
  <property name="kdenlive:original.meta.media.0.codec.height">1080</property>
  <property name="kdenlive:original.meta.media.0.codec.rotate">0</property>
  <property name="kdenlive:original.meta.media.0.codec.pix_fmt">yuv420p</property>
  <property name="kdenlive:original.meta.media.0.codec.sample_aspect_ratio">0</property>
  <property name="kdenlive:original.meta.media.0.codec.colorspace">709</property>
  <property name="kdenlive:original.meta.media.0.codec.name">h264</property>
  <property name="kdenlive:original.meta.media.0.codec.long_name">H.264 / AVC / MPEG-4 AVC / MPEG-4 part 10</property>
  <property name="kdenlive:original.meta.media.0.codec.bit_rate">1549624</property>
  <property name="kdenlive:original.meta.attr.0.stream.handler_name.markup">VideoHandler</property>
  <property name="kdenlive:original.meta.attr.0.stream.vendor_id.markup">[0][0][0][0]</property>
  <property name="kdenlive:original.meta.attr.0.stream.encoder.markup">Lavc60.3.100 libx264</property>
  <property name="kdenlive:original.meta.attr.major_brand.markup">isom</property>
  <property name="kdenlive:original.meta.attr.minor_version.markup">512</property>
  <property name="kdenlive:original.meta.attr.compatible_brands.markup">isomiso2avc1mp41</property>
  <property name="kdenlive:original.meta.attr.encoder.markup">Lavf60.3.100</property>
  <property name="kdenlive:original.meta.attr.comment.markup">Rendered with Manim Community v0.17.3</property>
  <property name="kdenlive:original.seekable">1</property>
  <property name="kdenlive:original.width">1920</property>
  <property name="kdenlive:original.height">1080</property>
  <property name="kdenlive:original.meta.media.sample_aspect_num">1</property>
  <property name="kdenlive:original.meta.media.sample_aspect_den">1</property>
  <property name="kdenlive:original.format">3</property>
  <property name="kdenlive:original.audio_index">-1</property>
  <property name="kdenlive:original.video_index">0</property>
  <property name="kdenlive:original.meta.media.frame_rate_num">60</property>
  <property name="kdenlive:original.meta.media.frame_rate_den">1</property>
  <property name="kdenlive:original.meta.media.colorspace">709</property>
  <property name="kdenlive:original.meta.media.color_trc">2</property>
  <property name="kdenlive:original.meta.media.has_b_frames">2</property>
  <property name="kdenlive:original.meta.media.width">1920</property>
  <property name="kdenlive:original.meta.media.height">1080</property>
  <property name="kdenlive:original.meta.media.color_range">mpeg</property>
  <property name="kdenlive:original.meta.media.top_field_first">0</property>
  <property name="kdenlive:original.meta.media.progressive">1</property>
  <property name="kdenlive:original.kdenlive:clip_type">2</property>
  <property name="kdenlive:original.kdenlive:folderid">16</property>
  <property name="kdenlive:original.kdenlive:id">166</property>
  <property name="kdenlive:original.mute_on_pause">0</property>
  <property name="kdenlive:original.kdenlive:file_size">195175</property>
  <property name="kdenlive:original.kdenlive:file_hash">40616ac56404b3714a810da8716b4f78</property>
  <property name="kdenlive:original.backup">1</property>
  <property name="meta.media.nb_streams">1</property>
  <property name="meta.media.0.stream.type">video</property>
  <property name="meta.media.0.stream.frame_rate">60</property>
  <property name="meta.media.0.stream.sample_aspect_ratio">0</property>
  <property name="meta.media.0.codec.width">640</property>
  <property name="meta.media.0.codec.height">360</property>
  <property name="meta.media.0.codec.rotate">0</property>
  <property name="meta.media.0.codec.pix_fmt">yuvj420p</property>
  <property name="meta.media.0.codec.sample_aspect_ratio">0</property>
  <property name="meta.media.0.codec.colorspace">601</property>
  <property name="meta.media.0.codec.name">mjpeg</property>
  <property name="meta.media.0.codec.long_name">MJPEG (Motion JPEG)</property>
  <property name="meta.media.0.codec.bit_rate">0</property>
  <property name="meta.attr.0.stream.HANDLER_NAME.markup">VideoHandler</property>
  <property name="meta.attr.0.stream.VENDOR_ID.markup">[0][0][0][0]</property>
  <property name="meta.attr.0.stream.ENCODER.markup">Lavc60.3.100 mjpeg</property>
  <property name="meta.attr.0.stream.DURATION.markup">00:00:01.000000000</property>
  <property name="meta.attr.COMMENT.markup">Rendered with Manim Community v0.17.3</property>
  <property name="meta.attr.MAJOR_BRAND.markup">isom</property>
  <property name="meta.attr.MINOR_VERSION.markup">512</property>
  <property name="meta.attr.COMPATIBLE_BRANDS.markup">isomiso2avc1mp41</property>
  <property name="meta.attr.ENCODER.markup">Lavf60.3.100</property>
  <property name="meta.media.sample_aspect_num">1</property>
  <property name="meta.media.sample_aspect_den">1</property>
  <property name="meta.media.frame_rate_num">60</property>
  <property name="meta.media.frame_rate_den">1</property>
  <property name="meta.media.colorspace">601</property>
  <property name="meta.media.color_trc">2</property>
  <property name="meta.media.has_b_frames">0</property>
  <property name="meta.media.width">640</property>
  <property name="meta.media.height">360</property>
  <property name="meta.media.color_range">full</property>
  <property name="xml">was here</property>
  <property name="meta.media.top_field_first">0</property>
  <property name="meta.media.progressive">1</property>
  <property name="set.test_audio">1</property>
  <property name="set.test_image">0</property>
 </chain>
 <chain id="chain597" out="00:00:01.483">
  <property name="length">90</property>
  <property name="eof">pause</property>
  <property name="resource">/home/xiaoxiae/.cache/kdenlive/proxy/999ea54c47b0d22af4e72c1697d64efa.mkv</property>
  <property name="mlt_service">avformat-novalidate</property>
  <property name="seekable">1</property>
  <property name="format">3</property>
  <property name="audio_index">-1</property>
  <property name="video_index">0</property>
  <property name="kdenlive:clipname">90.mp4</property>
  <property name="kdenlive:clip_type">2</property>
  <property name="kdenlive:folderid">16</property>
  <property name="kdenlive:id">168</property>
  <property name="mute_on_pause">0</property>
  <property name="kdenlive:file_size">85236</property>
  <property name="kdenlive:file_hash">999ea54c47b0d22af4e72c1697d64efa</property>
  <property name="kdenlive:proxy">/home/xiaoxiae/.cache/kdenlive/proxy/999ea54c47b0d22af4e72c1697d64efa.mkv</property>
  <property name="kdenlive:originalurl">video/Farmer/90.mp4</property>
  <property name="kdenlive:original.mlt_type">chain</property>
  <property name="kdenlive:original.in">0</property>
  <property name="kdenlive:original.out">00:00:01.483</property>
  <property name="kdenlive:original.length">90</property>
  <property name="kdenlive:original.eof">pause</property>
  <property name="kdenlive:original.resource">video/Farmer/90.mp4</property>
  <property name="kdenlive:original.mlt_service">avformat-novalidate</property>
  <property name="kdenlive:original.meta.media.nb_streams">1</property>
  <property name="kdenlive:original.meta.media.0.stream.type">video</property>
  <property name="kdenlive:original.meta.media.0.stream.frame_rate">60</property>
  <property name="kdenlive:original.meta.media.0.stream.sample_aspect_ratio">0</property>
  <property name="kdenlive:original.meta.media.0.codec.width">1920</property>
  <property name="kdenlive:original.meta.media.0.codec.height">1080</property>
  <property name="kdenlive:original.meta.media.0.codec.rotate">0</property>
  <property name="kdenlive:original.meta.media.0.codec.pix_fmt">yuv420p</property>
  <property name="kdenlive:original.meta.media.0.codec.sample_aspect_ratio">0</property>
  <property name="kdenlive:original.meta.media.0.codec.colorspace">709</property>
  <property name="kdenlive:original.meta.media.0.codec.name">h264</property>
  <property name="kdenlive:original.meta.media.0.codec.long_name">H.264 / AVC / MPEG-4 AVC / MPEG-4 part 10</property>
  <property name="kdenlive:original.meta.media.0.codec.bit_rate">444224</property>
  <property name="kdenlive:original.meta.attr.0.stream.handler_name.markup">VideoHandler</property>
  <property name="kdenlive:original.meta.attr.0.stream.vendor_id.markup">[0][0][0][0]</property>
  <property name="kdenlive:original.meta.attr.0.stream.encoder.markup">Lavc60.3.100 libx264</property>
  <property name="kdenlive:original.meta.attr.major_brand.markup">isom</property>
  <property name="kdenlive:original.meta.attr.minor_version.markup">512</property>
  <property name="kdenlive:original.meta.attr.compatible_brands.markup">isomiso2avc1mp41</property>
  <property name="kdenlive:original.meta.attr.encoder.markup">Lavf60.3.100</property>
  <property name="kdenlive:original.meta.attr.comment.markup">Rendered with Manim Community v0.17.3</property>
  <property name="kdenlive:original.seekable">1</property>
  <property name="kdenlive:original.width">1920</property>
  <property name="kdenlive:original.height">1080</property>
  <property name="kdenlive:original.meta.media.sample_aspect_num">1</property>
  <property name="kdenlive:original.meta.media.sample_aspect_den">1</property>
  <property name="kdenlive:original.format">3</property>
  <property name="kdenlive:original.audio_index">-1</property>
  <property name="kdenlive:original.video_index">0</property>
  <property name="kdenlive:original.meta.media.frame_rate_num">60</property>
  <property name="kdenlive:original.meta.media.frame_rate_den">1</property>
  <property name="kdenlive:original.meta.media.colorspace">709</property>
  <property name="kdenlive:original.meta.media.color_trc">2</property>
  <property name="kdenlive:original.meta.media.has_b_frames">2</property>
  <property name="kdenlive:original.meta.media.width">1920</property>
  <property name="kdenlive:original.meta.media.height">1080</property>
  <property name="kdenlive:original.meta.media.color_range">mpeg</property>
  <property name="kdenlive:original.meta.media.top_field_first">0</property>
  <property name="kdenlive:original.meta.media.progressive">1</property>
  <property name="kdenlive:original.kdenlive:clip_type">2</property>
  <property name="kdenlive:original.kdenlive:folderid">16</property>
  <property name="kdenlive:original.kdenlive:id">168</property>
  <property name="kdenlive:original.mute_on_pause">0</property>
  <property name="kdenlive:original.kdenlive:file_size">85236</property>
  <property name="kdenlive:original.kdenlive:file_hash">999ea54c47b0d22af4e72c1697d64efa</property>
  <property name="kdenlive:original.backup">1</property>
  <property name="meta.media.nb_streams">1</property>
  <property name="meta.media.0.stream.type">video</property>
  <property name="meta.media.0.stream.frame_rate">60</property>
  <property name="meta.media.0.stream.sample_aspect_ratio">0</property>
  <property name="meta.media.0.codec.width">640</property>
  <property name="meta.media.0.codec.height">360</property>
  <property name="meta.media.0.codec.rotate">0</property>
  <property name="meta.media.0.codec.pix_fmt">yuvj420p</property>
  <property name="meta.media.0.codec.sample_aspect_ratio">0</property>
  <property name="meta.media.0.codec.colorspace">601</property>
  <property name="meta.media.0.codec.name">mjpeg</property>
  <property name="meta.media.0.codec.long_name">MJPEG (Motion JPEG)</property>
  <property name="meta.media.0.codec.bit_rate">0</property>
  <property name="meta.attr.0.stream.HANDLER_NAME.markup">VideoHandler</property>
  <property name="meta.attr.0.stream.VENDOR_ID.markup">[0][0][0][0]</property>
  <property name="meta.attr.0.stream.ENCODER.markup">Lavc60.3.100 mjpeg</property>
  <property name="meta.attr.0.stream.DURATION.markup">00:00:01.500000000</property>
  <property name="meta.attr.COMMENT.markup">Rendered with Manim Community v0.17.3</property>
  <property name="meta.attr.MAJOR_BRAND.markup">isom</property>
  <property name="meta.attr.MINOR_VERSION.markup">512</property>
  <property name="meta.attr.COMPATIBLE_BRANDS.markup">isomiso2avc1mp41</property>
  <property name="meta.attr.ENCODER.markup">Lavf60.3.100</property>
  <property name="meta.media.sample_aspect_num">1</property>
  <property name="meta.media.sample_aspect_den">1</property>
  <property name="meta.media.frame_rate_num">60</property>
  <property name="meta.media.frame_rate_den">1</property>
  <property name="meta.media.colorspace">601</property>
  <property name="meta.media.color_trc">2</property>
  <property name="meta.media.has_b_frames">0</property>
  <property name="meta.media.width">640</property>
  <property name="meta.media.height">360</property>
  <property name="meta.media.color_range">full</property>
  <property name="xml">was here</property>
  <property name="meta.media.top_field_first">0</property>
  <property name="meta.media.progressive">1</property>
  <property name="set.test_audio">1</property>
  <property name="set.test_image">0</property>
 </chain>
 <chain id="chain598" out="00:00:02.983">
  <property name="length">180</property>
  <property name="eof">pause</property>
  <property name="resource">/home/xiaoxiae/.cache/kdenlive/proxy/485a249dc1b36ec53ac7b264dfb2ca78.mkv</property>
  <property name="mlt_service">avformat-novalidate</property>
  <property name="seekable">1</property>
  <property name="format">3</property>
  <property name="audio_index">-1</property>
  <property name="video_index">0</property>
  <property name="kdenlive:clipname">91.mp4</property>
  <property name="kdenlive:clip_type">2</property>
  <property name="kdenlive:folderid">16</property>
  <property name="kdenlive:id">169</property>
  <property name="mute_on_pause">0</property>
  <property name="kdenlive:file_size">329820</property>
  <property name="kdenlive:file_hash">485a249dc1b36ec53ac7b264dfb2ca78</property>
  <property name="kdenlive:proxy">/home/xiaoxiae/.cache/kdenlive/proxy/485a249dc1b36ec53ac7b264dfb2ca78.mkv</property>
  <property name="kdenlive:originalurl">video/Farmer/91.mp4</property>
  <property name="kdenlive:original.mlt_type">chain</property>
  <property name="kdenlive:original.in">0</property>
  <property name="kdenlive:original.out">00:00:02.983</property>
  <property name="kdenlive:original.length">180</property>
  <property name="kdenlive:original.eof">pause</property>
  <property name="kdenlive:original.resource">video/Farmer/91.mp4</property>
  <property name="kdenlive:original.mlt_service">avformat-novalidate</property>
  <property name="kdenlive:original.meta.media.nb_streams">1</property>
  <property name="kdenlive:original.meta.media.0.stream.type">video</property>
  <property name="kdenlive:original.meta.media.0.stream.frame_rate">60</property>
  <property name="kdenlive:original.meta.media.0.stream.sample_aspect_ratio">0</property>
  <property name="kdenlive:original.meta.media.0.codec.width">1920</property>
  <property name="kdenlive:original.meta.media.0.codec.height">1080</property>
  <property name="kdenlive:original.meta.media.0.codec.rotate">0</property>
  <property name="kdenlive:original.meta.media.0.codec.pix_fmt">yuv420p</property>
  <property name="kdenlive:original.meta.media.0.codec.sample_aspect_ratio">0</property>
  <property name="kdenlive:original.meta.media.0.codec.colorspace">709</property>
  <property name="kdenlive:original.meta.media.0.codec.name">h264</property>
  <property name="kdenlive:original.meta.media.0.codec.long_name">H.264 / AVC / MPEG-4 AVC / MPEG-4 part 10</property>
  <property name="kdenlive:original.meta.media.0.codec.bit_rate">871349</property>
  <property name="kdenlive:original.meta.attr.0.stream.handler_name.markup">VideoHandler</property>
  <property name="kdenlive:original.meta.attr.0.stream.vendor_id.markup">[0][0][0][0]</property>
  <property name="kdenlive:original.meta.attr.0.stream.encoder.markup">Lavc60.3.100 libx264</property>
  <property name="kdenlive:original.meta.attr.major_brand.markup">isom</property>
  <property name="kdenlive:original.meta.attr.minor_version.markup">512</property>
  <property name="kdenlive:original.meta.attr.compatible_brands.markup">isomiso2avc1mp41</property>
  <property name="kdenlive:original.meta.attr.encoder.markup">Lavf60.3.100</property>
  <property name="kdenlive:original.meta.attr.comment.markup">Rendered with Manim Community v0.17.3</property>
  <property name="kdenlive:original.seekable">1</property>
  <property name="kdenlive:original.width">1920</property>
  <property name="kdenlive:original.height">1080</property>
  <property name="kdenlive:original.meta.media.sample_aspect_num">1</property>
  <property name="kdenlive:original.meta.media.sample_aspect_den">1</property>
  <property name="kdenlive:original.format">3</property>
  <property name="kdenlive:original.audio_index">-1</property>
  <property name="kdenlive:original.video_index">0</property>
  <property name="kdenlive:original.meta.media.frame_rate_num">60</property>
  <property name="kdenlive:original.meta.media.frame_rate_den">1</property>
  <property name="kdenlive:original.meta.media.colorspace">709</property>
  <property name="kdenlive:original.meta.media.color_trc">2</property>
  <property name="kdenlive:original.meta.media.has_b_frames">2</property>
  <property name="kdenlive:original.meta.media.width">1920</property>
  <property name="kdenlive:original.meta.media.height">1080</property>
  <property name="kdenlive:original.meta.media.color_range">mpeg</property>
  <property name="kdenlive:original.meta.media.top_field_first">0</property>
  <property name="kdenlive:original.meta.media.progressive">1</property>
  <property name="kdenlive:original.kdenlive:clip_type">2</property>
  <property name="kdenlive:original.kdenlive:folderid">16</property>
  <property name="kdenlive:original.kdenlive:id">169</property>
  <property name="kdenlive:original.mute_on_pause">0</property>
  <property name="kdenlive:original.kdenlive:file_size">329820</property>
  <property name="kdenlive:original.kdenlive:file_hash">485a249dc1b36ec53ac7b264dfb2ca78</property>
  <property name="kdenlive:original.backup">1</property>
  <property name="meta.media.nb_streams">1</property>
  <property name="meta.media.0.stream.type">video</property>
  <property name="meta.media.0.stream.frame_rate">60</property>
  <property name="meta.media.0.stream.sample_aspect_ratio">0</property>
  <property name="meta.media.0.codec.width">640</property>
  <property name="meta.media.0.codec.height">360</property>
  <property name="meta.media.0.codec.rotate">0</property>
  <property name="meta.media.0.codec.pix_fmt">yuvj420p</property>
  <property name="meta.media.0.codec.sample_aspect_ratio">0</property>
  <property name="meta.media.0.codec.colorspace">601</property>
  <property name="meta.media.0.codec.name">mjpeg</property>
  <property name="meta.media.0.codec.long_name">MJPEG (Motion JPEG)</property>
  <property name="meta.media.0.codec.bit_rate">0</property>
  <property name="meta.attr.0.stream.HANDLER_NAME.markup">VideoHandler</property>
  <property name="meta.attr.0.stream.VENDOR_ID.markup">[0][0][0][0]</property>
  <property name="meta.attr.0.stream.ENCODER.markup">Lavc60.3.100 mjpeg</property>
  <property name="meta.attr.0.stream.DURATION.markup">00:00:03.000000000</property>
  <property name="meta.attr.COMMENT.markup">Rendered with Manim Community v0.17.3</property>
  <property name="meta.attr.MAJOR_BRAND.markup">isom</property>
  <property name="meta.attr.MINOR_VERSION.markup">512</property>
  <property name="meta.attr.COMPATIBLE_BRANDS.markup">isomiso2avc1mp41</property>
  <property name="meta.attr.ENCODER.markup">Lavf60.3.100</property>
  <property name="meta.media.sample_aspect_num">1</property>
  <property name="meta.media.sample_aspect_den">1</property>
  <property name="meta.media.frame_rate_num">60</property>
  <property name="meta.media.frame_rate_den">1</property>
  <property name="meta.media.colorspace">601</property>
  <property name="meta.media.color_trc">2</property>
  <property name="meta.media.has_b_frames">0</property>
  <property name="meta.media.width">640</property>
  <property name="meta.media.height">360</property>
  <property name="meta.media.color_range">full</property>
  <property name="xml">was here</property>
  <property name="meta.media.top_field_first">0</property>
  <property name="meta.media.progressive">1</property>
  <property name="set.test_audio">1</property>
  <property name="set.test_image">0</property>
 </chain>
 <chain id="chain599" out="00:00:00.983">
  <property name="length">60</property>
  <property name="eof">pause</property>
  <property name="resource">/home/xiaoxiae/.cache/kdenlive/proxy/7f11154c0c28c8507d3d1624af35d433.mkv</property>
  <property name="mlt_service">avformat-novalidate</property>
  <property name="seekable">1</property>
  <property name="format">3</property>
  <property name="audio_index">-1</property>
  <property name="video_index">0</property>
  <property name="kdenlive:clipname">92.mp4</property>
  <property name="kdenlive:clip_type">2</property>
  <property name="kdenlive:folderid">16</property>
  <property name="kdenlive:id">170</property>
  <property name="mute_on_pause">0</property>
  <property name="kdenlive:file_size">81687</property>
  <property name="kdenlive:file_hash">7f11154c0c28c8507d3d1624af35d433</property>
  <property name="kdenlive:proxy">/home/xiaoxiae/.cache/kdenlive/proxy/7f11154c0c28c8507d3d1624af35d433.mkv</property>
  <property name="kdenlive:originalurl">video/Farmer/92.mp4</property>
  <property name="kdenlive:original.mlt_type">chain</property>
  <property name="kdenlive:original.in">0</property>
  <property name="kdenlive:original.out">00:00:00.983</property>
  <property name="kdenlive:original.length">60</property>
  <property name="kdenlive:original.eof">pause</property>
  <property name="kdenlive:original.resource">video/Farmer/92.mp4</property>
  <property name="kdenlive:original.mlt_service">avformat-novalidate</property>
  <property name="kdenlive:original.meta.media.nb_streams">1</property>
  <property name="kdenlive:original.meta.media.0.stream.type">video</property>
  <property name="kdenlive:original.meta.media.0.stream.frame_rate">60</property>
  <property name="kdenlive:original.meta.media.0.stream.sample_aspect_ratio">0</property>
  <property name="kdenlive:original.meta.media.0.codec.width">1920</property>
  <property name="kdenlive:original.meta.media.0.codec.height">1080</property>
  <property name="kdenlive:original.meta.media.0.codec.rotate">0</property>
  <property name="kdenlive:original.meta.media.0.codec.pix_fmt">yuv420p</property>
  <property name="kdenlive:original.meta.media.0.codec.sample_aspect_ratio">0</property>
  <property name="kdenlive:original.meta.media.0.codec.colorspace">709</property>
  <property name="kdenlive:original.meta.media.0.codec.name">h264</property>
  <property name="kdenlive:original.meta.media.0.codec.long_name">H.264 / AVC / MPEG-4 AVC / MPEG-4 part 10</property>
  <property name="kdenlive:original.meta.media.0.codec.bit_rate">640568</property>
  <property name="kdenlive:original.meta.attr.0.stream.handler_name.markup">VideoHandler</property>
  <property name="kdenlive:original.meta.attr.0.stream.vendor_id.markup">[0][0][0][0]</property>
  <property name="kdenlive:original.meta.attr.0.stream.encoder.markup">Lavc60.3.100 libx264</property>
  <property name="kdenlive:original.meta.attr.major_brand.markup">isom</property>
  <property name="kdenlive:original.meta.attr.minor_version.markup">512</property>
  <property name="kdenlive:original.meta.attr.compatible_brands.markup">isomiso2avc1mp41</property>
  <property name="kdenlive:original.meta.attr.encoder.markup">Lavf60.3.100</property>
  <property name="kdenlive:original.meta.attr.comment.markup">Rendered with Manim Community v0.17.3</property>
  <property name="kdenlive:original.seekable">1</property>
  <property name="kdenlive:original.width">1920</property>
  <property name="kdenlive:original.height">1080</property>
  <property name="kdenlive:original.meta.media.sample_aspect_num">1</property>
  <property name="kdenlive:original.meta.media.sample_aspect_den">1</property>
  <property name="kdenlive:original.format">3</property>
  <property name="kdenlive:original.audio_index">-1</property>
  <property name="kdenlive:original.video_index">0</property>
  <property name="kdenlive:original.meta.media.frame_rate_num">60</property>
  <property name="kdenlive:original.meta.media.frame_rate_den">1</property>
  <property name="kdenlive:original.meta.media.colorspace">709</property>
  <property name="kdenlive:original.meta.media.color_trc">2</property>
  <property name="kdenlive:original.meta.media.has_b_frames">2</property>
  <property name="kdenlive:original.meta.media.width">1920</property>
  <property name="kdenlive:original.meta.media.height">1080</property>
  <property name="kdenlive:original.meta.media.color_range">mpeg</property>
  <property name="kdenlive:original.meta.media.top_field_first">0</property>
  <property name="kdenlive:original.meta.media.progressive">1</property>
  <property name="kdenlive:original.kdenlive:clip_type">2</property>
  <property name="kdenlive:original.kdenlive:folderid">16</property>
  <property name="kdenlive:original.kdenlive:id">170</property>
  <property name="kdenlive:original.mute_on_pause">0</property>
  <property name="kdenlive:original.kdenlive:file_size">81687</property>
  <property name="kdenlive:original.kdenlive:file_hash">7f11154c0c28c8507d3d1624af35d433</property>
  <property name="kdenlive:original.backup">1</property>
  <property name="meta.media.nb_streams">1</property>
  <property name="meta.media.0.stream.type">video</property>
  <property name="meta.media.0.stream.frame_rate">60</property>
  <property name="meta.media.0.stream.sample_aspect_ratio">0</property>
  <property name="meta.media.0.codec.width">640</property>
  <property name="meta.media.0.codec.height">360</property>
  <property name="meta.media.0.codec.rotate">0</property>
  <property name="meta.media.0.codec.pix_fmt">yuvj420p</property>
  <property name="meta.media.0.codec.sample_aspect_ratio">0</property>
  <property name="meta.media.0.codec.colorspace">601</property>
  <property name="meta.media.0.codec.name">mjpeg</property>
  <property name="meta.media.0.codec.long_name">MJPEG (Motion JPEG)</property>
  <property name="meta.media.0.codec.bit_rate">0</property>
  <property name="meta.attr.0.stream.HANDLER_NAME.markup">VideoHandler</property>
  <property name="meta.attr.0.stream.VENDOR_ID.markup">[0][0][0][0]</property>
  <property name="meta.attr.0.stream.ENCODER.markup">Lavc60.3.100 mjpeg</property>
  <property name="meta.attr.0.stream.DURATION.markup">00:00:01.000000000</property>
  <property name="meta.attr.COMMENT.markup">Rendered with Manim Community v0.17.3</property>
  <property name="meta.attr.MAJOR_BRAND.markup">isom</property>
  <property name="meta.attr.MINOR_VERSION.markup">512</property>
  <property name="meta.attr.COMPATIBLE_BRANDS.markup">isomiso2avc1mp41</property>
  <property name="meta.attr.ENCODER.markup">Lavf60.3.100</property>
  <property name="meta.media.sample_aspect_num">1</property>
  <property name="meta.media.sample_aspect_den">1</property>
  <property name="meta.media.frame_rate_num">60</property>
  <property name="meta.media.frame_rate_den">1</property>
  <property name="meta.media.colorspace">601</property>
  <property name="meta.media.color_trc">2</property>
  <property name="meta.media.has_b_frames">0</property>
  <property name="meta.media.width">640</property>
  <property name="meta.media.height">360</property>
  <property name="meta.media.color_range">full</property>
  <property name="xml">was here</property>
  <property name="meta.media.top_field_first">0</property>
  <property name="meta.media.progressive">1</property>
  <property name="set.test_audio">1</property>
  <property name="set.test_image">0</property>
 </chain>
 <chain id="chain600" out="00:00:00.983">
  <property name="length">60</property>
  <property name="eof">pause</property>
  <property name="resource">/home/xiaoxiae/.cache/kdenlive/proxy/4f25803949fbe48df132447a8f054aec.mkv</property>
  <property name="mlt_service">avformat-novalidate</property>
  <property name="seekable">1</property>
  <property name="format">3</property>
  <property name="audio_index">-1</property>
  <property name="video_index">0</property>
  <property name="kdenlive:clipname">93.mp4</property>
  <property name="kdenlive:clip_type">2</property>
  <property name="kdenlive:folderid">16</property>
  <property name="kdenlive:id">171</property>
  <property name="mute_on_pause">0</property>
  <property name="kdenlive:file_size">90828</property>
  <property name="kdenlive:file_hash">4f25803949fbe48df132447a8f054aec</property>
  <property name="kdenlive:proxy">/home/xiaoxiae/.cache/kdenlive/proxy/4f25803949fbe48df132447a8f054aec.mkv</property>
  <property name="kdenlive:originalurl">video/Farmer/93.mp4</property>
  <property name="kdenlive:original.mlt_type">chain</property>
  <property name="kdenlive:original.in">0</property>
  <property name="kdenlive:original.out">00:00:00.983</property>
  <property name="kdenlive:original.length">60</property>
  <property name="kdenlive:original.eof">pause</property>
  <property name="kdenlive:original.resource">video/Farmer/93.mp4</property>
  <property name="kdenlive:original.mlt_service">avformat-novalidate</property>
  <property name="kdenlive:original.meta.media.nb_streams">1</property>
  <property name="kdenlive:original.meta.media.0.stream.type">video</property>
  <property name="kdenlive:original.meta.media.0.stream.frame_rate">60</property>
  <property name="kdenlive:original.meta.media.0.stream.sample_aspect_ratio">0</property>
  <property name="kdenlive:original.meta.media.0.codec.width">1920</property>
  <property name="kdenlive:original.meta.media.0.codec.height">1080</property>
  <property name="kdenlive:original.meta.media.0.codec.rotate">0</property>
  <property name="kdenlive:original.meta.media.0.codec.pix_fmt">yuv420p</property>
  <property name="kdenlive:original.meta.media.0.codec.sample_aspect_ratio">0</property>
  <property name="kdenlive:original.meta.media.0.codec.colorspace">709</property>
  <property name="kdenlive:original.meta.media.0.codec.name">h264</property>
  <property name="kdenlive:original.meta.media.0.codec.long_name">H.264 / AVC / MPEG-4 AVC / MPEG-4 part 10</property>
  <property name="kdenlive:original.meta.media.0.codec.bit_rate">713568</property>
  <property name="kdenlive:original.meta.attr.0.stream.handler_name.markup">VideoHandler</property>
  <property name="kdenlive:original.meta.attr.0.stream.vendor_id.markup">[0][0][0][0]</property>
  <property name="kdenlive:original.meta.attr.0.stream.encoder.markup">Lavc60.3.100 libx264</property>
  <property name="kdenlive:original.meta.attr.major_brand.markup">isom</property>
  <property name="kdenlive:original.meta.attr.minor_version.markup">512</property>
  <property name="kdenlive:original.meta.attr.compatible_brands.markup">isomiso2avc1mp41</property>
  <property name="kdenlive:original.meta.attr.encoder.markup">Lavf60.3.100</property>
  <property name="kdenlive:original.meta.attr.comment.markup">Rendered with Manim Community v0.17.3</property>
  <property name="kdenlive:original.seekable">1</property>
  <property name="kdenlive:original.width">1920</property>
  <property name="kdenlive:original.height">1080</property>
  <property name="kdenlive:original.meta.media.sample_aspect_num">1</property>
  <property name="kdenlive:original.meta.media.sample_aspect_den">1</property>
  <property name="kdenlive:original.format">3</property>
  <property name="kdenlive:original.audio_index">-1</property>
  <property name="kdenlive:original.video_index">0</property>
  <property name="kdenlive:original.meta.media.frame_rate_num">60</property>
  <property name="kdenlive:original.meta.media.frame_rate_den">1</property>
  <property name="kdenlive:original.meta.media.colorspace">709</property>
  <property name="kdenlive:original.meta.media.color_trc">2</property>
  <property name="kdenlive:original.meta.media.has_b_frames">2</property>
  <property name="kdenlive:original.meta.media.width">1920</property>
  <property name="kdenlive:original.meta.media.height">1080</property>
  <property name="kdenlive:original.meta.media.color_range">mpeg</property>
  <property name="kdenlive:original.meta.media.top_field_first">0</property>
  <property name="kdenlive:original.meta.media.progressive">1</property>
  <property name="kdenlive:original.kdenlive:clip_type">2</property>
  <property name="kdenlive:original.kdenlive:folderid">16</property>
  <property name="kdenlive:original.kdenlive:id">171</property>
  <property name="kdenlive:original.mute_on_pause">0</property>
  <property name="kdenlive:original.kdenlive:file_size">90828</property>
  <property name="kdenlive:original.kdenlive:file_hash">4f25803949fbe48df132447a8f054aec</property>
  <property name="kdenlive:original.backup">1</property>
  <property name="meta.media.nb_streams">1</property>
  <property name="meta.media.0.stream.type">video</property>
  <property name="meta.media.0.stream.frame_rate">60</property>
  <property name="meta.media.0.stream.sample_aspect_ratio">0</property>
  <property name="meta.media.0.codec.width">640</property>
  <property name="meta.media.0.codec.height">360</property>
  <property name="meta.media.0.codec.rotate">0</property>
  <property name="meta.media.0.codec.pix_fmt">yuvj420p</property>
  <property name="meta.media.0.codec.sample_aspect_ratio">0</property>
  <property name="meta.media.0.codec.colorspace">601</property>
  <property name="meta.media.0.codec.name">mjpeg</property>
  <property name="meta.media.0.codec.long_name">MJPEG (Motion JPEG)</property>
  <property name="meta.media.0.codec.bit_rate">0</property>
  <property name="meta.attr.0.stream.HANDLER_NAME.markup">VideoHandler</property>
  <property name="meta.attr.0.stream.VENDOR_ID.markup">[0][0][0][0]</property>
  <property name="meta.attr.0.stream.ENCODER.markup">Lavc60.3.100 mjpeg</property>
  <property name="meta.attr.0.stream.DURATION.markup">00:00:01.000000000</property>
  <property name="meta.attr.COMMENT.markup">Rendered with Manim Community v0.17.3</property>
  <property name="meta.attr.MAJOR_BRAND.markup">isom</property>
  <property name="meta.attr.MINOR_VERSION.markup">512</property>
  <property name="meta.attr.COMPATIBLE_BRANDS.markup">isomiso2avc1mp41</property>
  <property name="meta.attr.ENCODER.markup">Lavf60.3.100</property>
  <property name="meta.media.sample_aspect_num">1</property>
  <property name="meta.media.sample_aspect_den">1</property>
  <property name="meta.media.frame_rate_num">60</property>
  <property name="meta.media.frame_rate_den">1</property>
  <property name="meta.media.colorspace">601</property>
  <property name="meta.media.color_trc">2</property>
  <property name="meta.media.has_b_frames">0</property>
  <property name="meta.media.width">640</property>
  <property name="meta.media.height">360</property>
  <property name="meta.media.color_range">full</property>
  <property name="xml">was here</property>
  <property name="meta.media.top_field_first">0</property>
  <property name="meta.media.progressive">1</property>
  <property name="set.test_audio">1</property>
  <property name="set.test_image">0</property>
 </chain>
 <chain id="chain601" out="00:00:00.983">
  <property name="length">60</property>
  <property name="eof">pause</property>
  <property name="resource">/home/xiaoxiae/.cache/kdenlive/proxy/c891f7752ddaa88079705922ffe064ed.mkv</property>
  <property name="mlt_service">avformat-novalidate</property>
  <property name="seekable">1</property>
  <property name="format">3</property>
  <property name="audio_index">-1</property>
  <property name="video_index">0</property>
  <property name="kdenlive:clipname">94.mp4</property>
  <property name="kdenlive:clip_type">2</property>
  <property name="kdenlive:folderid">16</property>
  <property name="kdenlive:id">172</property>
  <property name="mute_on_pause">0</property>
  <property name="kdenlive:file_size">55309</property>
  <property name="kdenlive:file_hash">c891f7752ddaa88079705922ffe064ed</property>
  <property name="kdenlive:proxy">/home/xiaoxiae/.cache/kdenlive/proxy/c891f7752ddaa88079705922ffe064ed.mkv</property>
  <property name="kdenlive:originalurl">video/Farmer/94.mp4</property>
  <property name="kdenlive:original.mlt_type">chain</property>
  <property name="kdenlive:original.in">0</property>
  <property name="kdenlive:original.out">00:00:00.983</property>
  <property name="kdenlive:original.length">60</property>
  <property name="kdenlive:original.eof">pause</property>
  <property name="kdenlive:original.resource">video/Farmer/94.mp4</property>
  <property name="kdenlive:original.mlt_service">avformat-novalidate</property>
  <property name="kdenlive:original.meta.media.nb_streams">1</property>
  <property name="kdenlive:original.meta.media.0.stream.type">video</property>
  <property name="kdenlive:original.meta.media.0.stream.frame_rate">60</property>
  <property name="kdenlive:original.meta.media.0.stream.sample_aspect_ratio">0</property>
  <property name="kdenlive:original.meta.media.0.codec.width">1920</property>
  <property name="kdenlive:original.meta.media.0.codec.height">1080</property>
  <property name="kdenlive:original.meta.media.0.codec.rotate">0</property>
  <property name="kdenlive:original.meta.media.0.codec.pix_fmt">yuv420p</property>
  <property name="kdenlive:original.meta.media.0.codec.sample_aspect_ratio">0</property>
  <property name="kdenlive:original.meta.media.0.codec.colorspace">709</property>
  <property name="kdenlive:original.meta.media.0.codec.name">h264</property>
  <property name="kdenlive:original.meta.media.0.codec.long_name">H.264 / AVC / MPEG-4 AVC / MPEG-4 part 10</property>
  <property name="kdenlive:original.meta.media.0.codec.bit_rate">429416</property>
  <property name="kdenlive:original.meta.attr.0.stream.handler_name.markup">VideoHandler</property>
  <property name="kdenlive:original.meta.attr.0.stream.vendor_id.markup">[0][0][0][0]</property>
  <property name="kdenlive:original.meta.attr.0.stream.encoder.markup">Lavc60.3.100 libx264</property>
  <property name="kdenlive:original.meta.attr.major_brand.markup">isom</property>
  <property name="kdenlive:original.meta.attr.minor_version.markup">512</property>
  <property name="kdenlive:original.meta.attr.compatible_brands.markup">isomiso2avc1mp41</property>
  <property name="kdenlive:original.meta.attr.encoder.markup">Lavf60.3.100</property>
  <property name="kdenlive:original.meta.attr.comment.markup">Rendered with Manim Community v0.17.3</property>
  <property name="kdenlive:original.seekable">1</property>
  <property name="kdenlive:original.width">1920</property>
  <property name="kdenlive:original.height">1080</property>
  <property name="kdenlive:original.meta.media.sample_aspect_num">1</property>
  <property name="kdenlive:original.meta.media.sample_aspect_den">1</property>
  <property name="kdenlive:original.format">3</property>
  <property name="kdenlive:original.audio_index">-1</property>
  <property name="kdenlive:original.video_index">0</property>
  <property name="kdenlive:original.meta.media.frame_rate_num">60</property>
  <property name="kdenlive:original.meta.media.frame_rate_den">1</property>
  <property name="kdenlive:original.meta.media.colorspace">709</property>
  <property name="kdenlive:original.meta.media.color_trc">2</property>
  <property name="kdenlive:original.meta.media.has_b_frames">2</property>
  <property name="kdenlive:original.meta.media.width">1920</property>
  <property name="kdenlive:original.meta.media.height">1080</property>
  <property name="kdenlive:original.meta.media.color_range">mpeg</property>
  <property name="kdenlive:original.meta.media.top_field_first">0</property>
  <property name="kdenlive:original.meta.media.progressive">1</property>
  <property name="kdenlive:original.kdenlive:clip_type">2</property>
  <property name="kdenlive:original.kdenlive:folderid">16</property>
  <property name="kdenlive:original.kdenlive:id">172</property>
  <property name="kdenlive:original.mute_on_pause">0</property>
  <property name="kdenlive:original.kdenlive:file_size">55309</property>
  <property name="kdenlive:original.kdenlive:file_hash">c891f7752ddaa88079705922ffe064ed</property>
  <property name="kdenlive:original.backup">1</property>
  <property name="meta.media.nb_streams">1</property>
  <property name="meta.media.0.stream.type">video</property>
  <property name="meta.media.0.stream.frame_rate">60</property>
  <property name="meta.media.0.stream.sample_aspect_ratio">0</property>
  <property name="meta.media.0.codec.width">640</property>
  <property name="meta.media.0.codec.height">360</property>
  <property name="meta.media.0.codec.rotate">0</property>
  <property name="meta.media.0.codec.pix_fmt">yuvj420p</property>
  <property name="meta.media.0.codec.sample_aspect_ratio">0</property>
  <property name="meta.media.0.codec.colorspace">601</property>
  <property name="meta.media.0.codec.name">mjpeg</property>
  <property name="meta.media.0.codec.long_name">MJPEG (Motion JPEG)</property>
  <property name="meta.media.0.codec.bit_rate">0</property>
  <property name="meta.attr.0.stream.HANDLER_NAME.markup">VideoHandler</property>
  <property name="meta.attr.0.stream.VENDOR_ID.markup">[0][0][0][0]</property>
  <property name="meta.attr.0.stream.ENCODER.markup">Lavc60.3.100 mjpeg</property>
  <property name="meta.attr.0.stream.DURATION.markup">00:00:01.000000000</property>
  <property name="meta.attr.COMMENT.markup">Rendered with Manim Community v0.17.3</property>
  <property name="meta.attr.MAJOR_BRAND.markup">isom</property>
  <property name="meta.attr.MINOR_VERSION.markup">512</property>
  <property name="meta.attr.COMPATIBLE_BRANDS.markup">isomiso2avc1mp41</property>
  <property name="meta.attr.ENCODER.markup">Lavf60.3.100</property>
  <property name="meta.media.sample_aspect_num">1</property>
  <property name="meta.media.sample_aspect_den">1</property>
  <property name="meta.media.frame_rate_num">60</property>
  <property name="meta.media.frame_rate_den">1</property>
  <property name="meta.media.colorspace">601</property>
  <property name="meta.media.color_trc">2</property>
  <property name="meta.media.has_b_frames">0</property>
  <property name="meta.media.width">640</property>
  <property name="meta.media.height">360</property>
  <property name="meta.media.color_range">full</property>
  <property name="xml">was here</property>
  <property name="meta.media.top_field_first">0</property>
  <property name="meta.media.progressive">1</property>
  <property name="set.test_audio">1</property>
  <property name="set.test_image">0</property>
 </chain>
 <chain id="chain602" out="00:00:00.983">
  <property name="length">60</property>
  <property name="eof">pause</property>
  <property name="resource">/home/xiaoxiae/.cache/kdenlive/proxy/88fa0b0376e36726ca952388ca0a2835.mkv</property>
  <property name="mlt_service">avformat-novalidate</property>
  <property name="seekable">1</property>
  <property name="format">3</property>
  <property name="audio_index">-1</property>
  <property name="video_index">0</property>
  <property name="kdenlive:clipname">95.mp4</property>
  <property name="kdenlive:clip_type">2</property>
  <property name="kdenlive:folderid">16</property>
  <property name="kdenlive:id">173</property>
  <property name="mute_on_pause">0</property>
  <property name="kdenlive:file_size">94442</property>
  <property name="kdenlive:file_hash">88fa0b0376e36726ca952388ca0a2835</property>
  <property name="kdenlive:proxy">/home/xiaoxiae/.cache/kdenlive/proxy/88fa0b0376e36726ca952388ca0a2835.mkv</property>
  <property name="kdenlive:originalurl">video/Farmer/95.mp4</property>
  <property name="kdenlive:original.mlt_type">chain</property>
  <property name="kdenlive:original.in">0</property>
  <property name="kdenlive:original.out">00:00:00.983</property>
  <property name="kdenlive:original.length">60</property>
  <property name="kdenlive:original.eof">pause</property>
  <property name="kdenlive:original.resource">video/Farmer/95.mp4</property>
  <property name="kdenlive:original.mlt_service">avformat-novalidate</property>
  <property name="kdenlive:original.meta.media.nb_streams">1</property>
  <property name="kdenlive:original.meta.media.0.stream.type">video</property>
  <property name="kdenlive:original.meta.media.0.stream.frame_rate">60</property>
  <property name="kdenlive:original.meta.media.0.stream.sample_aspect_ratio">0</property>
  <property name="kdenlive:original.meta.media.0.codec.width">1920</property>
  <property name="kdenlive:original.meta.media.0.codec.height">1080</property>
  <property name="kdenlive:original.meta.media.0.codec.rotate">0</property>
  <property name="kdenlive:original.meta.media.0.codec.pix_fmt">yuv420p</property>
  <property name="kdenlive:original.meta.media.0.codec.sample_aspect_ratio">0</property>
  <property name="kdenlive:original.meta.media.0.codec.colorspace">709</property>
  <property name="kdenlive:original.meta.media.0.codec.name">h264</property>
  <property name="kdenlive:original.meta.media.0.codec.long_name">H.264 / AVC / MPEG-4 AVC / MPEG-4 part 10</property>
  <property name="kdenlive:original.meta.media.0.codec.bit_rate">742480</property>
  <property name="kdenlive:original.meta.attr.0.stream.handler_name.markup">VideoHandler</property>
  <property name="kdenlive:original.meta.attr.0.stream.vendor_id.markup">[0][0][0][0]</property>
  <property name="kdenlive:original.meta.attr.0.stream.encoder.markup">Lavc60.3.100 libx264</property>
  <property name="kdenlive:original.meta.attr.major_brand.markup">isom</property>
  <property name="kdenlive:original.meta.attr.minor_version.markup">512</property>
  <property name="kdenlive:original.meta.attr.compatible_brands.markup">isomiso2avc1mp41</property>
  <property name="kdenlive:original.meta.attr.encoder.markup">Lavf60.3.100</property>
  <property name="kdenlive:original.meta.attr.comment.markup">Rendered with Manim Community v0.17.3</property>
  <property name="kdenlive:original.seekable">1</property>
  <property name="kdenlive:original.width">1920</property>
  <property name="kdenlive:original.height">1080</property>
  <property name="kdenlive:original.meta.media.sample_aspect_num">1</property>
  <property name="kdenlive:original.meta.media.sample_aspect_den">1</property>
  <property name="kdenlive:original.format">3</property>
  <property name="kdenlive:original.audio_index">-1</property>
  <property name="kdenlive:original.video_index">0</property>
  <property name="kdenlive:original.meta.media.frame_rate_num">60</property>
  <property name="kdenlive:original.meta.media.frame_rate_den">1</property>
  <property name="kdenlive:original.meta.media.colorspace">709</property>
  <property name="kdenlive:original.meta.media.color_trc">2</property>
  <property name="kdenlive:original.meta.media.has_b_frames">2</property>
  <property name="kdenlive:original.meta.media.width">1920</property>
  <property name="kdenlive:original.meta.media.height">1080</property>
  <property name="kdenlive:original.meta.media.color_range">mpeg</property>
  <property name="kdenlive:original.meta.media.top_field_first">0</property>
  <property name="kdenlive:original.meta.media.progressive">1</property>
  <property name="kdenlive:original.kdenlive:clip_type">2</property>
  <property name="kdenlive:original.kdenlive:folderid">16</property>
  <property name="kdenlive:original.kdenlive:id">173</property>
  <property name="kdenlive:original.mute_on_pause">0</property>
  <property name="kdenlive:original.kdenlive:file_size">94442</property>
  <property name="kdenlive:original.kdenlive:file_hash">88fa0b0376e36726ca952388ca0a2835</property>
  <property name="kdenlive:original.backup">1</property>
  <property name="meta.media.nb_streams">1</property>
  <property name="meta.media.0.stream.type">video</property>
  <property name="meta.media.0.stream.frame_rate">60</property>
  <property name="meta.media.0.stream.sample_aspect_ratio">0</property>
  <property name="meta.media.0.codec.width">640</property>
  <property name="meta.media.0.codec.height">360</property>
  <property name="meta.media.0.codec.rotate">0</property>
  <property name="meta.media.0.codec.pix_fmt">yuvj420p</property>
  <property name="meta.media.0.codec.sample_aspect_ratio">0</property>
  <property name="meta.media.0.codec.colorspace">601</property>
  <property name="meta.media.0.codec.name">mjpeg</property>
  <property name="meta.media.0.codec.long_name">MJPEG (Motion JPEG)</property>
  <property name="meta.media.0.codec.bit_rate">0</property>
  <property name="meta.attr.0.stream.HANDLER_NAME.markup">VideoHandler</property>
  <property name="meta.attr.0.stream.VENDOR_ID.markup">[0][0][0][0]</property>
  <property name="meta.attr.0.stream.ENCODER.markup">Lavc60.3.100 mjpeg</property>
  <property name="meta.attr.0.stream.DURATION.markup">00:00:01.000000000</property>
  <property name="meta.attr.COMMENT.markup">Rendered with Manim Community v0.17.3</property>
  <property name="meta.attr.MAJOR_BRAND.markup">isom</property>
  <property name="meta.attr.MINOR_VERSION.markup">512</property>
  <property name="meta.attr.COMPATIBLE_BRANDS.markup">isomiso2avc1mp41</property>
  <property name="meta.attr.ENCODER.markup">Lavf60.3.100</property>
  <property name="meta.media.sample_aspect_num">1</property>
  <property name="meta.media.sample_aspect_den">1</property>
  <property name="meta.media.frame_rate_num">60</property>
  <property name="meta.media.frame_rate_den">1</property>
  <property name="meta.media.colorspace">601</property>
  <property name="meta.media.color_trc">2</property>
  <property name="meta.media.has_b_frames">0</property>
  <property name="meta.media.width">640</property>
  <property name="meta.media.height">360</property>
  <property name="meta.media.color_range">full</property>
  <property name="xml">was here</property>
  <property name="meta.media.top_field_first">0</property>
  <property name="meta.media.progressive">1</property>
  <property name="set.test_audio">1</property>
  <property name="set.test_image">0</property>
 </chain>
 <chain id="chain603" out="00:00:01.983">
  <property name="length">120</property>
  <property name="eof">pause</property>
  <property name="resource">/home/xiaoxiae/.cache/kdenlive/proxy/e1d8b6d406ba82bb922ea2fe68e7ef5c.mkv</property>
  <property name="mlt_service">avformat-novalidate</property>
  <property name="seekable">1</property>
  <property name="format">3</property>
  <property name="audio_index">-1</property>
  <property name="video_index">0</property>
  <property name="kdenlive:clipname">96.mp4</property>
  <property name="kdenlive:clip_type">2</property>
  <property name="kdenlive:folderid">16</property>
  <property name="kdenlive:id">174</property>
  <property name="mute_on_pause">0</property>
  <property name="kdenlive:file_size">111200</property>
  <property name="kdenlive:file_hash">e1d8b6d406ba82bb922ea2fe68e7ef5c</property>
  <property name="kdenlive:proxy">/home/xiaoxiae/.cache/kdenlive/proxy/e1d8b6d406ba82bb922ea2fe68e7ef5c.mkv</property>
  <property name="kdenlive:originalurl">video/Farmer/96.mp4</property>
  <property name="kdenlive:original.mlt_type">chain</property>
  <property name="kdenlive:original.in">0</property>
  <property name="kdenlive:original.out">00:00:01.983</property>
  <property name="kdenlive:original.length">120</property>
  <property name="kdenlive:original.eof">pause</property>
  <property name="kdenlive:original.resource">video/Farmer/96.mp4</property>
  <property name="kdenlive:original.mlt_service">avformat-novalidate</property>
  <property name="kdenlive:original.meta.media.nb_streams">1</property>
  <property name="kdenlive:original.meta.media.0.stream.type">video</property>
  <property name="kdenlive:original.meta.media.0.stream.frame_rate">60</property>
  <property name="kdenlive:original.meta.media.0.stream.sample_aspect_ratio">0</property>
  <property name="kdenlive:original.meta.media.0.codec.width">1920</property>
  <property name="kdenlive:original.meta.media.0.codec.height">1080</property>
  <property name="kdenlive:original.meta.media.0.codec.rotate">0</property>
  <property name="kdenlive:original.meta.media.0.codec.pix_fmt">yuv420p</property>
  <property name="kdenlive:original.meta.media.0.codec.sample_aspect_ratio">0</property>
  <property name="kdenlive:original.meta.media.0.codec.colorspace">709</property>
  <property name="kdenlive:original.meta.media.0.codec.name">h264</property>
  <property name="kdenlive:original.meta.media.0.codec.long_name">H.264 / AVC / MPEG-4 AVC / MPEG-4 part 10</property>
  <property name="kdenlive:original.meta.media.0.codec.bit_rate">435744</property>
  <property name="kdenlive:original.meta.attr.0.stream.handler_name.markup">VideoHandler</property>
  <property name="kdenlive:original.meta.attr.0.stream.vendor_id.markup">[0][0][0][0]</property>
  <property name="kdenlive:original.meta.attr.0.stream.encoder.markup">Lavc60.3.100 libx264</property>
  <property name="kdenlive:original.meta.attr.major_brand.markup">isom</property>
  <property name="kdenlive:original.meta.attr.minor_version.markup">512</property>
  <property name="kdenlive:original.meta.attr.compatible_brands.markup">isomiso2avc1mp41</property>
  <property name="kdenlive:original.meta.attr.encoder.markup">Lavf60.3.100</property>
  <property name="kdenlive:original.meta.attr.comment.markup">Rendered with Manim Community v0.17.3</property>
  <property name="kdenlive:original.seekable">1</property>
  <property name="kdenlive:original.width">1920</property>
  <property name="kdenlive:original.height">1080</property>
  <property name="kdenlive:original.meta.media.sample_aspect_num">1</property>
  <property name="kdenlive:original.meta.media.sample_aspect_den">1</property>
  <property name="kdenlive:original.format">3</property>
  <property name="kdenlive:original.audio_index">-1</property>
  <property name="kdenlive:original.video_index">0</property>
  <property name="kdenlive:original.meta.media.frame_rate_num">60</property>
  <property name="kdenlive:original.meta.media.frame_rate_den">1</property>
  <property name="kdenlive:original.meta.media.colorspace">709</property>
  <property name="kdenlive:original.meta.media.color_trc">2</property>
  <property name="kdenlive:original.meta.media.has_b_frames">2</property>
  <property name="kdenlive:original.meta.media.width">1920</property>
  <property name="kdenlive:original.meta.media.height">1080</property>
  <property name="kdenlive:original.meta.media.color_range">mpeg</property>
  <property name="kdenlive:original.meta.media.top_field_first">0</property>
  <property name="kdenlive:original.meta.media.progressive">1</property>
  <property name="kdenlive:original.kdenlive:clip_type">2</property>
  <property name="kdenlive:original.kdenlive:folderid">16</property>
  <property name="kdenlive:original.kdenlive:id">174</property>
  <property name="kdenlive:original.mute_on_pause">0</property>
  <property name="kdenlive:original.kdenlive:file_size">111200</property>
  <property name="kdenlive:original.kdenlive:file_hash">e1d8b6d406ba82bb922ea2fe68e7ef5c</property>
  <property name="kdenlive:original.backup">1</property>
  <property name="meta.media.nb_streams">1</property>
  <property name="meta.media.0.stream.type">video</property>
  <property name="meta.media.0.stream.frame_rate">60</property>
  <property name="meta.media.0.stream.sample_aspect_ratio">0</property>
  <property name="meta.media.0.codec.width">640</property>
  <property name="meta.media.0.codec.height">360</property>
  <property name="meta.media.0.codec.rotate">0</property>
  <property name="meta.media.0.codec.pix_fmt">yuvj420p</property>
  <property name="meta.media.0.codec.sample_aspect_ratio">0</property>
  <property name="meta.media.0.codec.colorspace">601</property>
  <property name="meta.media.0.codec.name">mjpeg</property>
  <property name="meta.media.0.codec.long_name">MJPEG (Motion JPEG)</property>
  <property name="meta.media.0.codec.bit_rate">0</property>
  <property name="meta.attr.0.stream.HANDLER_NAME.markup">VideoHandler</property>
  <property name="meta.attr.0.stream.VENDOR_ID.markup">[0][0][0][0]</property>
  <property name="meta.attr.0.stream.ENCODER.markup">Lavc60.3.100 mjpeg</property>
  <property name="meta.attr.0.stream.DURATION.markup">00:00:02.000000000</property>
  <property name="meta.attr.COMMENT.markup">Rendered with Manim Community v0.17.3</property>
  <property name="meta.attr.MAJOR_BRAND.markup">isom</property>
  <property name="meta.attr.MINOR_VERSION.markup">512</property>
  <property name="meta.attr.COMPATIBLE_BRANDS.markup">isomiso2avc1mp41</property>
  <property name="meta.attr.ENCODER.markup">Lavf60.3.100</property>
  <property name="meta.media.sample_aspect_num">1</property>
  <property name="meta.media.sample_aspect_den">1</property>
  <property name="meta.media.frame_rate_num">60</property>
  <property name="meta.media.frame_rate_den">1</property>
  <property name="meta.media.colorspace">601</property>
  <property name="meta.media.color_trc">2</property>
  <property name="meta.media.has_b_frames">0</property>
  <property name="meta.media.width">640</property>
  <property name="meta.media.height">360</property>
  <property name="meta.media.color_range">full</property>
  <property name="xml">was here</property>
  <property name="meta.media.top_field_first">0</property>
  <property name="meta.media.progressive">1</property>
  <property name="set.test_audio">1</property>
  <property name="set.test_image">0</property>
 </chain>
 <chain id="chain604" out="00:00:01.233">
  <property name="length">75</property>
  <property name="eof">pause</property>
  <property name="resource">/home/xiaoxiae/.cache/kdenlive/proxy/96007f5decf70e3204590493df59a300.mkv</property>
  <property name="mlt_service">avformat-novalidate</property>
  <property name="seekable">1</property>
  <property name="format">3</property>
  <property name="audio_index">-1</property>
  <property name="video_index">0</property>
  <property name="kdenlive:clipname">97.mp4</property>
  <property name="kdenlive:clip_type">2</property>
  <property name="kdenlive:folderid">16</property>
  <property name="kdenlive:id">175</property>
  <property name="mute_on_pause">0</property>
  <property name="kdenlive:file_size">104582</property>
  <property name="kdenlive:file_hash">96007f5decf70e3204590493df59a300</property>
  <property name="kdenlive:proxy">/home/xiaoxiae/.cache/kdenlive/proxy/96007f5decf70e3204590493df59a300.mkv</property>
  <property name="kdenlive:originalurl">video/Farmer/97.mp4</property>
  <property name="kdenlive:original.mlt_type">chain</property>
  <property name="kdenlive:original.in">0</property>
  <property name="kdenlive:original.out">00:00:01.233</property>
  <property name="kdenlive:original.length">75</property>
  <property name="kdenlive:original.eof">pause</property>
  <property name="kdenlive:original.resource">video/Farmer/97.mp4</property>
  <property name="kdenlive:original.mlt_service">avformat-novalidate</property>
  <property name="kdenlive:original.meta.media.nb_streams">1</property>
  <property name="kdenlive:original.meta.media.0.stream.type">video</property>
  <property name="kdenlive:original.meta.media.0.stream.frame_rate">60</property>
  <property name="kdenlive:original.meta.media.0.stream.sample_aspect_ratio">0</property>
  <property name="kdenlive:original.meta.media.0.codec.width">1920</property>
  <property name="kdenlive:original.meta.media.0.codec.height">1080</property>
  <property name="kdenlive:original.meta.media.0.codec.rotate">0</property>
  <property name="kdenlive:original.meta.media.0.codec.pix_fmt">yuv420p</property>
  <property name="kdenlive:original.meta.media.0.codec.sample_aspect_ratio">0</property>
  <property name="kdenlive:original.meta.media.0.codec.colorspace">709</property>
  <property name="kdenlive:original.meta.media.0.codec.name">h264</property>
  <property name="kdenlive:original.meta.media.0.codec.long_name">H.264 / AVC / MPEG-4 AVC / MPEG-4 part 10</property>
  <property name="kdenlive:original.meta.media.0.codec.bit_rate">658496</property>
  <property name="kdenlive:original.meta.attr.0.stream.handler_name.markup">VideoHandler</property>
  <property name="kdenlive:original.meta.attr.0.stream.vendor_id.markup">[0][0][0][0]</property>
  <property name="kdenlive:original.meta.attr.0.stream.encoder.markup">Lavc60.3.100 libx264</property>
  <property name="kdenlive:original.meta.attr.major_brand.markup">isom</property>
  <property name="kdenlive:original.meta.attr.minor_version.markup">512</property>
  <property name="kdenlive:original.meta.attr.compatible_brands.markup">isomiso2avc1mp41</property>
  <property name="kdenlive:original.meta.attr.encoder.markup">Lavf60.3.100</property>
  <property name="kdenlive:original.meta.attr.comment.markup">Rendered with Manim Community v0.17.3</property>
  <property name="kdenlive:original.seekable">1</property>
  <property name="kdenlive:original.width">1920</property>
  <property name="kdenlive:original.height">1080</property>
  <property name="kdenlive:original.meta.media.sample_aspect_num">1</property>
  <property name="kdenlive:original.meta.media.sample_aspect_den">1</property>
  <property name="kdenlive:original.format">3</property>
  <property name="kdenlive:original.audio_index">-1</property>
  <property name="kdenlive:original.video_index">0</property>
  <property name="kdenlive:original.meta.media.frame_rate_num">60</property>
  <property name="kdenlive:original.meta.media.frame_rate_den">1</property>
  <property name="kdenlive:original.meta.media.colorspace">709</property>
  <property name="kdenlive:original.meta.media.color_trc">2</property>
  <property name="kdenlive:original.meta.media.has_b_frames">2</property>
  <property name="kdenlive:original.meta.media.width">1920</property>
  <property name="kdenlive:original.meta.media.height">1080</property>
  <property name="kdenlive:original.meta.media.color_range">mpeg</property>
  <property name="kdenlive:original.meta.media.top_field_first">0</property>
  <property name="kdenlive:original.meta.media.progressive">1</property>
  <property name="kdenlive:original.kdenlive:clip_type">2</property>
  <property name="kdenlive:original.kdenlive:folderid">16</property>
  <property name="kdenlive:original.kdenlive:id">175</property>
  <property name="kdenlive:original.mute_on_pause">0</property>
  <property name="kdenlive:original.kdenlive:file_size">104582</property>
  <property name="kdenlive:original.kdenlive:file_hash">96007f5decf70e3204590493df59a300</property>
  <property name="kdenlive:original.backup">1</property>
  <property name="meta.media.nb_streams">1</property>
  <property name="meta.media.0.stream.type">video</property>
  <property name="meta.media.0.stream.frame_rate">60</property>
  <property name="meta.media.0.stream.sample_aspect_ratio">0</property>
  <property name="meta.media.0.codec.width">640</property>
  <property name="meta.media.0.codec.height">360</property>
  <property name="meta.media.0.codec.rotate">0</property>
  <property name="meta.media.0.codec.pix_fmt">yuvj420p</property>
  <property name="meta.media.0.codec.sample_aspect_ratio">0</property>
  <property name="meta.media.0.codec.colorspace">601</property>
  <property name="meta.media.0.codec.name">mjpeg</property>
  <property name="meta.media.0.codec.long_name">MJPEG (Motion JPEG)</property>
  <property name="meta.media.0.codec.bit_rate">0</property>
  <property name="meta.attr.0.stream.HANDLER_NAME.markup">VideoHandler</property>
  <property name="meta.attr.0.stream.VENDOR_ID.markup">[0][0][0][0]</property>
  <property name="meta.attr.0.stream.ENCODER.markup">Lavc60.3.100 mjpeg</property>
  <property name="meta.attr.0.stream.DURATION.markup">00:00:01.250000000</property>
  <property name="meta.attr.COMMENT.markup">Rendered with Manim Community v0.17.3</property>
  <property name="meta.attr.MAJOR_BRAND.markup">isom</property>
  <property name="meta.attr.MINOR_VERSION.markup">512</property>
  <property name="meta.attr.COMPATIBLE_BRANDS.markup">isomiso2avc1mp41</property>
  <property name="meta.attr.ENCODER.markup">Lavf60.3.100</property>
  <property name="meta.media.sample_aspect_num">1</property>
  <property name="meta.media.sample_aspect_den">1</property>
  <property name="meta.media.frame_rate_num">60</property>
  <property name="meta.media.frame_rate_den">1</property>
  <property name="meta.media.colorspace">601</property>
  <property name="meta.media.color_trc">2</property>
  <property name="meta.media.has_b_frames">0</property>
  <property name="meta.media.width">640</property>
  <property name="meta.media.height">360</property>
  <property name="meta.media.color_range">full</property>
  <property name="xml">was here</property>
  <property name="meta.media.top_field_first">0</property>
  <property name="meta.media.progressive">1</property>
  <property name="set.test_audio">1</property>
  <property name="set.test_image">0</property>
 </chain>
 <chain id="chain605" out="00:00:00.983">
  <property name="length">60</property>
  <property name="eof">pause</property>
  <property name="resource">/home/xiaoxiae/.cache/kdenlive/proxy/ee0de55ee9d1a61500564819e81d195c.mkv</property>
  <property name="mlt_service">avformat-novalidate</property>
  <property name="seekable">1</property>
  <property name="format">3</property>
  <property name="audio_index">-1</property>
  <property name="video_index">0</property>
  <property name="kdenlive:clipname">98.mp4</property>
  <property name="kdenlive:clip_type">2</property>
  <property name="kdenlive:folderid">16</property>
  <property name="kdenlive:id">176</property>
  <property name="mute_on_pause">0</property>
  <property name="kdenlive:file_size">71218</property>
  <property name="kdenlive:file_hash">ee0de55ee9d1a61500564819e81d195c</property>
  <property name="kdenlive:proxy">/home/xiaoxiae/.cache/kdenlive/proxy/ee0de55ee9d1a61500564819e81d195c.mkv</property>
  <property name="kdenlive:originalurl">video/Farmer/98.mp4</property>
  <property name="kdenlive:original.mlt_type">chain</property>
  <property name="kdenlive:original.in">0</property>
  <property name="kdenlive:original.out">00:00:00.983</property>
  <property name="kdenlive:original.length">60</property>
  <property name="kdenlive:original.eof">pause</property>
  <property name="kdenlive:original.resource">video/Farmer/98.mp4</property>
  <property name="kdenlive:original.mlt_service">avformat-novalidate</property>
  <property name="kdenlive:original.meta.media.nb_streams">1</property>
  <property name="kdenlive:original.meta.media.0.stream.type">video</property>
  <property name="kdenlive:original.meta.media.0.stream.frame_rate">60</property>
  <property name="kdenlive:original.meta.media.0.stream.sample_aspect_ratio">0</property>
  <property name="kdenlive:original.meta.media.0.codec.width">1920</property>
  <property name="kdenlive:original.meta.media.0.codec.height">1080</property>
  <property name="kdenlive:original.meta.media.0.codec.rotate">0</property>
  <property name="kdenlive:original.meta.media.0.codec.pix_fmt">yuv420p</property>
  <property name="kdenlive:original.meta.media.0.codec.sample_aspect_ratio">0</property>
  <property name="kdenlive:original.meta.media.0.codec.colorspace">709</property>
  <property name="kdenlive:original.meta.media.0.codec.name">h264</property>
  <property name="kdenlive:original.meta.media.0.codec.long_name">H.264 / AVC / MPEG-4 AVC / MPEG-4 part 10</property>
  <property name="kdenlive:original.meta.media.0.codec.bit_rate">556688</property>
  <property name="kdenlive:original.meta.attr.0.stream.handler_name.markup">VideoHandler</property>
  <property name="kdenlive:original.meta.attr.0.stream.vendor_id.markup">[0][0][0][0]</property>
  <property name="kdenlive:original.meta.attr.0.stream.encoder.markup">Lavc60.3.100 libx264</property>
  <property name="kdenlive:original.meta.attr.major_brand.markup">isom</property>
  <property name="kdenlive:original.meta.attr.minor_version.markup">512</property>
  <property name="kdenlive:original.meta.attr.compatible_brands.markup">isomiso2avc1mp41</property>
  <property name="kdenlive:original.meta.attr.encoder.markup">Lavf60.3.100</property>
  <property name="kdenlive:original.meta.attr.comment.markup">Rendered with Manim Community v0.17.3</property>
  <property name="kdenlive:original.seekable">1</property>
  <property name="kdenlive:original.width">1920</property>
  <property name="kdenlive:original.height">1080</property>
  <property name="kdenlive:original.meta.media.sample_aspect_num">1</property>
  <property name="kdenlive:original.meta.media.sample_aspect_den">1</property>
  <property name="kdenlive:original.format">3</property>
  <property name="kdenlive:original.audio_index">-1</property>
  <property name="kdenlive:original.video_index">0</property>
  <property name="kdenlive:original.meta.media.frame_rate_num">60</property>
  <property name="kdenlive:original.meta.media.frame_rate_den">1</property>
  <property name="kdenlive:original.meta.media.colorspace">709</property>
  <property name="kdenlive:original.meta.media.color_trc">2</property>
  <property name="kdenlive:original.meta.media.has_b_frames">2</property>
  <property name="kdenlive:original.meta.media.width">1920</property>
  <property name="kdenlive:original.meta.media.height">1080</property>
  <property name="kdenlive:original.meta.media.color_range">mpeg</property>
  <property name="kdenlive:original.meta.media.top_field_first">0</property>
  <property name="kdenlive:original.meta.media.progressive">1</property>
  <property name="kdenlive:original.kdenlive:clip_type">2</property>
  <property name="kdenlive:original.kdenlive:folderid">16</property>
  <property name="kdenlive:original.kdenlive:id">176</property>
  <property name="kdenlive:original.mute_on_pause">0</property>
  <property name="kdenlive:original.kdenlive:file_size">71218</property>
  <property name="kdenlive:original.kdenlive:file_hash">ee0de55ee9d1a61500564819e81d195c</property>
  <property name="kdenlive:original.backup">1</property>
  <property name="meta.media.nb_streams">1</property>
  <property name="meta.media.0.stream.type">video</property>
  <property name="meta.media.0.stream.frame_rate">60</property>
  <property name="meta.media.0.stream.sample_aspect_ratio">0</property>
  <property name="meta.media.0.codec.width">640</property>
  <property name="meta.media.0.codec.height">360</property>
  <property name="meta.media.0.codec.rotate">0</property>
  <property name="meta.media.0.codec.pix_fmt">yuvj420p</property>
  <property name="meta.media.0.codec.sample_aspect_ratio">0</property>
  <property name="meta.media.0.codec.colorspace">601</property>
  <property name="meta.media.0.codec.name">mjpeg</property>
  <property name="meta.media.0.codec.long_name">MJPEG (Motion JPEG)</property>
  <property name="meta.media.0.codec.bit_rate">0</property>
  <property name="meta.attr.0.stream.HANDLER_NAME.markup">VideoHandler</property>
  <property name="meta.attr.0.stream.VENDOR_ID.markup">[0][0][0][0]</property>
  <property name="meta.attr.0.stream.ENCODER.markup">Lavc60.3.100 mjpeg</property>
  <property name="meta.attr.0.stream.DURATION.markup">00:00:01.000000000</property>
  <property name="meta.attr.COMMENT.markup">Rendered with Manim Community v0.17.3</property>
  <property name="meta.attr.MAJOR_BRAND.markup">isom</property>
  <property name="meta.attr.MINOR_VERSION.markup">512</property>
  <property name="meta.attr.COMPATIBLE_BRANDS.markup">isomiso2avc1mp41</property>
  <property name="meta.attr.ENCODER.markup">Lavf60.3.100</property>
  <property name="meta.media.sample_aspect_num">1</property>
  <property name="meta.media.sample_aspect_den">1</property>
  <property name="meta.media.frame_rate_num">60</property>
  <property name="meta.media.frame_rate_den">1</property>
  <property name="meta.media.colorspace">601</property>
  <property name="meta.media.color_trc">2</property>
  <property name="meta.media.has_b_frames">0</property>
  <property name="meta.media.width">640</property>
  <property name="meta.media.height">360</property>
  <property name="meta.media.color_range">full</property>
  <property name="xml">was here</property>
  <property name="meta.media.top_field_first">0</property>
  <property name="meta.media.progressive">1</property>
  <property name="set.test_audio">1</property>
  <property name="set.test_image">0</property>
 </chain>
 <chain id="chain606" out="00:00:00.983">
  <property name="length">60</property>
  <property name="eof">pause</property>
  <property name="resource">/home/xiaoxiae/.cache/kdenlive/proxy/9db1898c9f8f50d909fde1274fb5c0db.mkv</property>
  <property name="mlt_service">avformat-novalidate</property>
  <property name="seekable">1</property>
  <property name="format">3</property>
  <property name="audio_index">-1</property>
  <property name="video_index">0</property>
  <property name="kdenlive:clipname">99.mp4</property>
  <property name="kdenlive:clip_type">2</property>
  <property name="kdenlive:folderid">16</property>
  <property name="kdenlive:id">177</property>
  <property name="mute_on_pause">0</property>
  <property name="kdenlive:file_size">76926</property>
  <property name="kdenlive:file_hash">9db1898c9f8f50d909fde1274fb5c0db</property>
  <property name="kdenlive:proxy">/home/xiaoxiae/.cache/kdenlive/proxy/9db1898c9f8f50d909fde1274fb5c0db.mkv</property>
  <property name="kdenlive:originalurl">video/Farmer/99.mp4</property>
  <property name="kdenlive:original.mlt_type">chain</property>
  <property name="kdenlive:original.in">0</property>
  <property name="kdenlive:original.out">00:00:00.983</property>
  <property name="kdenlive:original.length">60</property>
  <property name="kdenlive:original.eof">pause</property>
  <property name="kdenlive:original.resource">video/Farmer/99.mp4</property>
  <property name="kdenlive:original.mlt_service">avformat-novalidate</property>
  <property name="kdenlive:original.meta.media.nb_streams">1</property>
  <property name="kdenlive:original.meta.media.0.stream.type">video</property>
  <property name="kdenlive:original.meta.media.0.stream.frame_rate">60</property>
  <property name="kdenlive:original.meta.media.0.stream.sample_aspect_ratio">0</property>
  <property name="kdenlive:original.meta.media.0.codec.width">1920</property>
  <property name="kdenlive:original.meta.media.0.codec.height">1080</property>
  <property name="kdenlive:original.meta.media.0.codec.rotate">0</property>
  <property name="kdenlive:original.meta.media.0.codec.pix_fmt">yuv420p</property>
  <property name="kdenlive:original.meta.media.0.codec.sample_aspect_ratio">0</property>
  <property name="kdenlive:original.meta.media.0.codec.colorspace">709</property>
  <property name="kdenlive:original.meta.media.0.codec.name">h264</property>
  <property name="kdenlive:original.meta.media.0.codec.long_name">H.264 / AVC / MPEG-4 AVC / MPEG-4 part 10</property>
  <property name="kdenlive:original.meta.media.0.codec.bit_rate">602352</property>
  <property name="kdenlive:original.meta.attr.0.stream.handler_name.markup">VideoHandler</property>
  <property name="kdenlive:original.meta.attr.0.stream.vendor_id.markup">[0][0][0][0]</property>
  <property name="kdenlive:original.meta.attr.0.stream.encoder.markup">Lavc60.3.100 libx264</property>
  <property name="kdenlive:original.meta.attr.major_brand.markup">isom</property>
  <property name="kdenlive:original.meta.attr.minor_version.markup">512</property>
  <property name="kdenlive:original.meta.attr.compatible_brands.markup">isomiso2avc1mp41</property>
  <property name="kdenlive:original.meta.attr.encoder.markup">Lavf60.3.100</property>
  <property name="kdenlive:original.meta.attr.comment.markup">Rendered with Manim Community v0.17.3</property>
  <property name="kdenlive:original.seekable">1</property>
  <property name="kdenlive:original.width">1920</property>
  <property name="kdenlive:original.height">1080</property>
  <property name="kdenlive:original.meta.media.sample_aspect_num">1</property>
  <property name="kdenlive:original.meta.media.sample_aspect_den">1</property>
  <property name="kdenlive:original.format">3</property>
  <property name="kdenlive:original.audio_index">-1</property>
  <property name="kdenlive:original.video_index">0</property>
  <property name="kdenlive:original.meta.media.frame_rate_num">60</property>
  <property name="kdenlive:original.meta.media.frame_rate_den">1</property>
  <property name="kdenlive:original.meta.media.colorspace">709</property>
  <property name="kdenlive:original.meta.media.color_trc">2</property>
  <property name="kdenlive:original.meta.media.has_b_frames">2</property>
  <property name="kdenlive:original.meta.media.width">1920</property>
  <property name="kdenlive:original.meta.media.height">1080</property>
  <property name="kdenlive:original.meta.media.color_range">mpeg</property>
  <property name="kdenlive:original.meta.media.top_field_first">0</property>
  <property name="kdenlive:original.meta.media.progressive">1</property>
  <property name="kdenlive:original.kdenlive:clip_type">2</property>
  <property name="kdenlive:original.kdenlive:folderid">16</property>
  <property name="kdenlive:original.kdenlive:id">177</property>
  <property name="kdenlive:original.mute_on_pause">0</property>
  <property name="kdenlive:original.kdenlive:file_size">76926</property>
  <property name="kdenlive:original.kdenlive:file_hash">9db1898c9f8f50d909fde1274fb5c0db</property>
  <property name="kdenlive:original.backup">1</property>
  <property name="meta.media.nb_streams">1</property>
  <property name="meta.media.0.stream.type">video</property>
  <property name="meta.media.0.stream.frame_rate">60</property>
  <property name="meta.media.0.stream.sample_aspect_ratio">0</property>
  <property name="meta.media.0.codec.width">640</property>
  <property name="meta.media.0.codec.height">360</property>
  <property name="meta.media.0.codec.rotate">0</property>
  <property name="meta.media.0.codec.pix_fmt">yuvj420p</property>
  <property name="meta.media.0.codec.sample_aspect_ratio">0</property>
  <property name="meta.media.0.codec.colorspace">601</property>
  <property name="meta.media.0.codec.name">mjpeg</property>
  <property name="meta.media.0.codec.long_name">MJPEG (Motion JPEG)</property>
  <property name="meta.media.0.codec.bit_rate">0</property>
  <property name="meta.attr.0.stream.HANDLER_NAME.markup">VideoHandler</property>
  <property name="meta.attr.0.stream.VENDOR_ID.markup">[0][0][0][0]</property>
  <property name="meta.attr.0.stream.ENCODER.markup">Lavc60.3.100 mjpeg</property>
  <property name="meta.attr.0.stream.DURATION.markup">00:00:01.000000000</property>
  <property name="meta.attr.COMMENT.markup">Rendered with Manim Community v0.17.3</property>
  <property name="meta.attr.MAJOR_BRAND.markup">isom</property>
  <property name="meta.attr.MINOR_VERSION.markup">512</property>
  <property name="meta.attr.COMPATIBLE_BRANDS.markup">isomiso2avc1mp41</property>
  <property name="meta.attr.ENCODER.markup">Lavf60.3.100</property>
  <property name="meta.media.sample_aspect_num">1</property>
  <property name="meta.media.sample_aspect_den">1</property>
  <property name="meta.media.frame_rate_num">60</property>
  <property name="meta.media.frame_rate_den">1</property>
  <property name="meta.media.colorspace">601</property>
  <property name="meta.media.color_trc">2</property>
  <property name="meta.media.has_b_frames">0</property>
  <property name="meta.media.width">640</property>
  <property name="meta.media.height">360</property>
  <property name="meta.media.color_range">full</property>
  <property name="xml">was here</property>
  <property name="meta.media.top_field_first">0</property>
  <property name="meta.media.progressive">1</property>
  <property name="set.test_audio">1</property>
  <property name="set.test_image">0</property>
 </chain>
 <chain id="chain607" out="00:00:00.983">
  <property name="length">60</property>
  <property name="eof">pause</property>
  <property name="resource">/home/xiaoxiae/.cache/kdenlive/proxy/2f0b8cf2d35fe72fec16c2385474143f.mkv</property>
  <property name="mlt_service">avformat-novalidate</property>
  <property name="seekable">1</property>
  <property name="format">3</property>
  <property name="audio_index">-1</property>
  <property name="video_index">0</property>
  <property name="kdenlive:clipname">100.mp4</property>
  <property name="kdenlive:clip_type">2</property>
  <property name="kdenlive:folderid">16</property>
  <property name="kdenlive:id">19</property>
  <property name="mute_on_pause">0</property>
  <property name="kdenlive:file_size">80413</property>
  <property name="kdenlive:file_hash">2f0b8cf2d35fe72fec16c2385474143f</property>
  <property name="kdenlive:proxy">/home/xiaoxiae/.cache/kdenlive/proxy/2f0b8cf2d35fe72fec16c2385474143f.mkv</property>
  <property name="kdenlive:originalurl">video/Farmer/100.mp4</property>
  <property name="kdenlive:original.mlt_type">chain</property>
  <property name="kdenlive:original.in">0</property>
  <property name="kdenlive:original.out">00:00:00.983</property>
  <property name="kdenlive:original.length">60</property>
  <property name="kdenlive:original.eof">pause</property>
  <property name="kdenlive:original.resource">video/Farmer/100.mp4</property>
  <property name="kdenlive:original.mlt_service">avformat-novalidate</property>
  <property name="kdenlive:original.meta.media.nb_streams">1</property>
  <property name="kdenlive:original.meta.media.0.stream.type">video</property>
  <property name="kdenlive:original.meta.media.0.stream.frame_rate">60</property>
  <property name="kdenlive:original.meta.media.0.stream.sample_aspect_ratio">0</property>
  <property name="kdenlive:original.meta.media.0.codec.width">1920</property>
  <property name="kdenlive:original.meta.media.0.codec.height">1080</property>
  <property name="kdenlive:original.meta.media.0.codec.rotate">0</property>
  <property name="kdenlive:original.meta.media.0.codec.pix_fmt">yuv420p</property>
  <property name="kdenlive:original.meta.media.0.codec.sample_aspect_ratio">0</property>
  <property name="kdenlive:original.meta.media.0.codec.colorspace">709</property>
  <property name="kdenlive:original.meta.media.0.codec.name">h264</property>
  <property name="kdenlive:original.meta.media.0.codec.long_name">H.264 / AVC / MPEG-4 AVC / MPEG-4 part 10</property>
  <property name="kdenlive:original.meta.media.0.codec.bit_rate">630440</property>
  <property name="kdenlive:original.meta.attr.0.stream.handler_name.markup">VideoHandler</property>
  <property name="kdenlive:original.meta.attr.0.stream.vendor_id.markup">[0][0][0][0]</property>
  <property name="kdenlive:original.meta.attr.0.stream.encoder.markup">Lavc60.3.100 libx264</property>
  <property name="kdenlive:original.meta.attr.major_brand.markup">isom</property>
  <property name="kdenlive:original.meta.attr.minor_version.markup">512</property>
  <property name="kdenlive:original.meta.attr.compatible_brands.markup">isomiso2avc1mp41</property>
  <property name="kdenlive:original.meta.attr.encoder.markup">Lavf60.3.100</property>
  <property name="kdenlive:original.meta.attr.comment.markup">Rendered with Manim Community v0.17.3</property>
  <property name="kdenlive:original.seekable">1</property>
  <property name="kdenlive:original.width">1920</property>
  <property name="kdenlive:original.height">1080</property>
  <property name="kdenlive:original.meta.media.sample_aspect_num">1</property>
  <property name="kdenlive:original.meta.media.sample_aspect_den">1</property>
  <property name="kdenlive:original.format">3</property>
  <property name="kdenlive:original.audio_index">-1</property>
  <property name="kdenlive:original.video_index">0</property>
  <property name="kdenlive:original.meta.media.frame_rate_num">60</property>
  <property name="kdenlive:original.meta.media.frame_rate_den">1</property>
  <property name="kdenlive:original.meta.media.colorspace">709</property>
  <property name="kdenlive:original.meta.media.color_trc">2</property>
  <property name="kdenlive:original.meta.media.has_b_frames">2</property>
  <property name="kdenlive:original.meta.media.width">1920</property>
  <property name="kdenlive:original.meta.media.height">1080</property>
  <property name="kdenlive:original.meta.media.color_range">mpeg</property>
  <property name="kdenlive:original.meta.media.top_field_first">0</property>
  <property name="kdenlive:original.meta.media.progressive">1</property>
  <property name="kdenlive:original.kdenlive:clip_type">2</property>
  <property name="kdenlive:original.kdenlive:folderid">16</property>
  <property name="kdenlive:original.kdenlive:id">19</property>
  <property name="kdenlive:original.mute_on_pause">0</property>
  <property name="kdenlive:original.kdenlive:file_size">80413</property>
  <property name="kdenlive:original.kdenlive:file_hash">2f0b8cf2d35fe72fec16c2385474143f</property>
  <property name="kdenlive:original.backup">1</property>
  <property name="meta.media.nb_streams">1</property>
  <property name="meta.media.0.stream.type">video</property>
  <property name="meta.media.0.stream.frame_rate">60</property>
  <property name="meta.media.0.stream.sample_aspect_ratio">0</property>
  <property name="meta.media.0.codec.width">640</property>
  <property name="meta.media.0.codec.height">360</property>
  <property name="meta.media.0.codec.rotate">0</property>
  <property name="meta.media.0.codec.pix_fmt">yuvj420p</property>
  <property name="meta.media.0.codec.sample_aspect_ratio">0</property>
  <property name="meta.media.0.codec.colorspace">601</property>
  <property name="meta.media.0.codec.name">mjpeg</property>
  <property name="meta.media.0.codec.long_name">MJPEG (Motion JPEG)</property>
  <property name="meta.media.0.codec.bit_rate">0</property>
  <property name="meta.attr.0.stream.HANDLER_NAME.markup">VideoHandler</property>
  <property name="meta.attr.0.stream.VENDOR_ID.markup">[0][0][0][0]</property>
  <property name="meta.attr.0.stream.ENCODER.markup">Lavc60.3.100 mjpeg</property>
  <property name="meta.attr.0.stream.DURATION.markup">00:00:01.000000000</property>
  <property name="meta.attr.COMMENT.markup">Rendered with Manim Community v0.17.3</property>
  <property name="meta.attr.MAJOR_BRAND.markup">isom</property>
  <property name="meta.attr.MINOR_VERSION.markup">512</property>
  <property name="meta.attr.COMPATIBLE_BRANDS.markup">isomiso2avc1mp41</property>
  <property name="meta.attr.ENCODER.markup">Lavf60.3.100</property>
  <property name="meta.media.sample_aspect_num">1</property>
  <property name="meta.media.sample_aspect_den">1</property>
  <property name="meta.media.frame_rate_num">60</property>
  <property name="meta.media.frame_rate_den">1</property>
  <property name="meta.media.colorspace">601</property>
  <property name="meta.media.color_trc">2</property>
  <property name="meta.media.has_b_frames">0</property>
  <property name="meta.media.width">640</property>
  <property name="meta.media.height">360</property>
  <property name="meta.media.color_range">full</property>
  <property name="xml">was here</property>
  <property name="meta.media.top_field_first">0</property>
  <property name="meta.media.progressive">1</property>
  <property name="set.test_audio">1</property>
  <property name="set.test_image">0</property>
 </chain>
 <chain id="chain608" out="00:00:00.983">
  <property name="length">60</property>
  <property name="eof">pause</property>
  <property name="resource">/home/xiaoxiae/.cache/kdenlive/proxy/f3ba0c245cb03d316ec3a26105fb0181.mkv</property>
  <property name="mlt_service">avformat-novalidate</property>
  <property name="seekable">1</property>
  <property name="format">3</property>
  <property name="audio_index">-1</property>
  <property name="video_index">0</property>
  <property name="kdenlive:clipname">101.mp4</property>
  <property name="kdenlive:clip_type">2</property>
  <property name="kdenlive:folderid">16</property>
  <property name="kdenlive:id">20</property>
  <property name="mute_on_pause">0</property>
  <property name="kdenlive:file_size">76260</property>
  <property name="kdenlive:file_hash">f3ba0c245cb03d316ec3a26105fb0181</property>
  <property name="kdenlive:proxy">/home/xiaoxiae/.cache/kdenlive/proxy/f3ba0c245cb03d316ec3a26105fb0181.mkv</property>
  <property name="kdenlive:originalurl">video/Farmer/101.mp4</property>
  <property name="kdenlive:original.mlt_type">chain</property>
  <property name="kdenlive:original.in">0</property>
  <property name="kdenlive:original.out">00:00:00.983</property>
  <property name="kdenlive:original.length">60</property>
  <property name="kdenlive:original.eof">pause</property>
  <property name="kdenlive:original.resource">video/Farmer/101.mp4</property>
  <property name="kdenlive:original.mlt_service">avformat-novalidate</property>
  <property name="kdenlive:original.meta.media.nb_streams">1</property>
  <property name="kdenlive:original.meta.media.0.stream.type">video</property>
  <property name="kdenlive:original.meta.media.0.stream.frame_rate">60</property>
  <property name="kdenlive:original.meta.media.0.stream.sample_aspect_ratio">0</property>
  <property name="kdenlive:original.meta.media.0.codec.width">1920</property>
  <property name="kdenlive:original.meta.media.0.codec.height">1080</property>
  <property name="kdenlive:original.meta.media.0.codec.rotate">0</property>
  <property name="kdenlive:original.meta.media.0.codec.pix_fmt">yuv420p</property>
  <property name="kdenlive:original.meta.media.0.codec.sample_aspect_ratio">0</property>
  <property name="kdenlive:original.meta.media.0.codec.colorspace">709</property>
  <property name="kdenlive:original.meta.media.0.codec.name">h264</property>
  <property name="kdenlive:original.meta.media.0.codec.long_name">H.264 / AVC / MPEG-4 AVC / MPEG-4 part 10</property>
  <property name="kdenlive:original.meta.media.0.codec.bit_rate">597024</property>
  <property name="kdenlive:original.meta.attr.0.stream.handler_name.markup">VideoHandler</property>
  <property name="kdenlive:original.meta.attr.0.stream.vendor_id.markup">[0][0][0][0]</property>
  <property name="kdenlive:original.meta.attr.0.stream.encoder.markup">Lavc60.3.100 libx264</property>
  <property name="kdenlive:original.meta.attr.major_brand.markup">isom</property>
  <property name="kdenlive:original.meta.attr.minor_version.markup">512</property>
  <property name="kdenlive:original.meta.attr.compatible_brands.markup">isomiso2avc1mp41</property>
  <property name="kdenlive:original.meta.attr.encoder.markup">Lavf60.3.100</property>
  <property name="kdenlive:original.meta.attr.comment.markup">Rendered with Manim Community v0.17.3</property>
  <property name="kdenlive:original.seekable">1</property>
  <property name="kdenlive:original.width">1920</property>
  <property name="kdenlive:original.height">1080</property>
  <property name="kdenlive:original.meta.media.sample_aspect_num">1</property>
  <property name="kdenlive:original.meta.media.sample_aspect_den">1</property>
  <property name="kdenlive:original.format">3</property>
  <property name="kdenlive:original.audio_index">-1</property>
  <property name="kdenlive:original.video_index">0</property>
  <property name="kdenlive:original.meta.media.frame_rate_num">60</property>
  <property name="kdenlive:original.meta.media.frame_rate_den">1</property>
  <property name="kdenlive:original.meta.media.colorspace">709</property>
  <property name="kdenlive:original.meta.media.color_trc">2</property>
  <property name="kdenlive:original.meta.media.has_b_frames">2</property>
  <property name="kdenlive:original.meta.media.width">1920</property>
  <property name="kdenlive:original.meta.media.height">1080</property>
  <property name="kdenlive:original.meta.media.color_range">mpeg</property>
  <property name="kdenlive:original.meta.media.top_field_first">0</property>
  <property name="kdenlive:original.meta.media.progressive">1</property>
  <property name="kdenlive:original.kdenlive:clip_type">2</property>
  <property name="kdenlive:original.kdenlive:folderid">16</property>
  <property name="kdenlive:original.kdenlive:id">20</property>
  <property name="kdenlive:original.mute_on_pause">0</property>
  <property name="kdenlive:original.kdenlive:file_size">76260</property>
  <property name="kdenlive:original.kdenlive:file_hash">f3ba0c245cb03d316ec3a26105fb0181</property>
  <property name="kdenlive:original.backup">1</property>
  <property name="meta.media.nb_streams">1</property>
  <property name="meta.media.0.stream.type">video</property>
  <property name="meta.media.0.stream.frame_rate">60</property>
  <property name="meta.media.0.stream.sample_aspect_ratio">0</property>
  <property name="meta.media.0.codec.width">640</property>
  <property name="meta.media.0.codec.height">360</property>
  <property name="meta.media.0.codec.rotate">0</property>
  <property name="meta.media.0.codec.pix_fmt">yuvj420p</property>
  <property name="meta.media.0.codec.sample_aspect_ratio">0</property>
  <property name="meta.media.0.codec.colorspace">601</property>
  <property name="meta.media.0.codec.name">mjpeg</property>
  <property name="meta.media.0.codec.long_name">MJPEG (Motion JPEG)</property>
  <property name="meta.media.0.codec.bit_rate">0</property>
  <property name="meta.attr.0.stream.HANDLER_NAME.markup">VideoHandler</property>
  <property name="meta.attr.0.stream.VENDOR_ID.markup">[0][0][0][0]</property>
  <property name="meta.attr.0.stream.ENCODER.markup">Lavc60.3.100 mjpeg</property>
  <property name="meta.attr.0.stream.DURATION.markup">00:00:01.000000000</property>
  <property name="meta.attr.COMMENT.markup">Rendered with Manim Community v0.17.3</property>
  <property name="meta.attr.MAJOR_BRAND.markup">isom</property>
  <property name="meta.attr.MINOR_VERSION.markup">512</property>
  <property name="meta.attr.COMPATIBLE_BRANDS.markup">isomiso2avc1mp41</property>
  <property name="meta.attr.ENCODER.markup">Lavf60.3.100</property>
  <property name="meta.media.sample_aspect_num">1</property>
  <property name="meta.media.sample_aspect_den">1</property>
  <property name="meta.media.frame_rate_num">60</property>
  <property name="meta.media.frame_rate_den">1</property>
  <property name="meta.media.colorspace">601</property>
  <property name="meta.media.color_trc">2</property>
  <property name="meta.media.has_b_frames">0</property>
  <property name="meta.media.width">640</property>
  <property name="meta.media.height">360</property>
  <property name="meta.media.color_range">full</property>
  <property name="xml">was here</property>
  <property name="meta.media.top_field_first">0</property>
  <property name="meta.media.progressive">1</property>
  <property name="set.test_audio">1</property>
  <property name="set.test_image">0</property>
 </chain>
 <chain id="chain609" out="00:00:01.983">
  <property name="length">120</property>
  <property name="eof">pause</property>
  <property name="resource">/home/xiaoxiae/.cache/kdenlive/proxy/27019fd975a4d83cbeb08765c6ad8796.mkv</property>
  <property name="mlt_service">avformat-novalidate</property>
  <property name="seekable">1</property>
  <property name="format">3</property>
  <property name="audio_index">-1</property>
  <property name="video_index">0</property>
  <property name="kdenlive:clipname">102.mp4</property>
  <property name="kdenlive:clip_type">2</property>
  <property name="kdenlive:folderid">16</property>
  <property name="kdenlive:id">21</property>
  <property name="mute_on_pause">0</property>
  <property name="kdenlive:file_size">85481</property>
  <property name="kdenlive:file_hash">27019fd975a4d83cbeb08765c6ad8796</property>
  <property name="kdenlive:proxy">/home/xiaoxiae/.cache/kdenlive/proxy/27019fd975a4d83cbeb08765c6ad8796.mkv</property>
  <property name="kdenlive:originalurl">video/Farmer/102.mp4</property>
  <property name="kdenlive:original.mlt_type">chain</property>
  <property name="kdenlive:original.in">0</property>
  <property name="kdenlive:original.out">00:00:01.983</property>
  <property name="kdenlive:original.length">120</property>
  <property name="kdenlive:original.eof">pause</property>
  <property name="kdenlive:original.resource">video/Farmer/102.mp4</property>
  <property name="kdenlive:original.mlt_service">avformat-novalidate</property>
  <property name="kdenlive:original.meta.media.nb_streams">1</property>
  <property name="kdenlive:original.meta.media.0.stream.type">video</property>
  <property name="kdenlive:original.meta.media.0.stream.frame_rate">60</property>
  <property name="kdenlive:original.meta.media.0.stream.sample_aspect_ratio">0</property>
  <property name="kdenlive:original.meta.media.0.codec.width">1920</property>
  <property name="kdenlive:original.meta.media.0.codec.height">1080</property>
  <property name="kdenlive:original.meta.media.0.codec.rotate">0</property>
  <property name="kdenlive:original.meta.media.0.codec.pix_fmt">yuv420p</property>
  <property name="kdenlive:original.meta.media.0.codec.sample_aspect_ratio">0</property>
  <property name="kdenlive:original.meta.media.0.codec.colorspace">709</property>
  <property name="kdenlive:original.meta.media.0.codec.name">h264</property>
  <property name="kdenlive:original.meta.media.0.codec.long_name">H.264 / AVC / MPEG-4 AVC / MPEG-4 part 10</property>
  <property name="kdenlive:original.meta.media.0.codec.bit_rate">333124</property>
  <property name="kdenlive:original.meta.attr.0.stream.handler_name.markup">VideoHandler</property>
  <property name="kdenlive:original.meta.attr.0.stream.vendor_id.markup">[0][0][0][0]</property>
  <property name="kdenlive:original.meta.attr.0.stream.encoder.markup">Lavc60.3.100 libx264</property>
  <property name="kdenlive:original.meta.attr.major_brand.markup">isom</property>
  <property name="kdenlive:original.meta.attr.minor_version.markup">512</property>
  <property name="kdenlive:original.meta.attr.compatible_brands.markup">isomiso2avc1mp41</property>
  <property name="kdenlive:original.meta.attr.encoder.markup">Lavf60.3.100</property>
  <property name="kdenlive:original.meta.attr.comment.markup">Rendered with Manim Community v0.17.3</property>
  <property name="kdenlive:original.seekable">1</property>
  <property name="kdenlive:original.width">1920</property>
  <property name="kdenlive:original.height">1080</property>
  <property name="kdenlive:original.meta.media.sample_aspect_num">1</property>
  <property name="kdenlive:original.meta.media.sample_aspect_den">1</property>
  <property name="kdenlive:original.format">3</property>
  <property name="kdenlive:original.audio_index">-1</property>
  <property name="kdenlive:original.video_index">0</property>
  <property name="kdenlive:original.meta.media.frame_rate_num">60</property>
  <property name="kdenlive:original.meta.media.frame_rate_den">1</property>
  <property name="kdenlive:original.meta.media.colorspace">709</property>
  <property name="kdenlive:original.meta.media.color_trc">2</property>
  <property name="kdenlive:original.meta.media.has_b_frames">2</property>
  <property name="kdenlive:original.meta.media.width">1920</property>
  <property name="kdenlive:original.meta.media.height">1080</property>
  <property name="kdenlive:original.meta.media.color_range">mpeg</property>
  <property name="kdenlive:original.meta.media.top_field_first">0</property>
  <property name="kdenlive:original.meta.media.progressive">1</property>
  <property name="kdenlive:original.kdenlive:clip_type">2</property>
  <property name="kdenlive:original.kdenlive:folderid">16</property>
  <property name="kdenlive:original.kdenlive:id">21</property>
  <property name="kdenlive:original.mute_on_pause">0</property>
  <property name="kdenlive:original.kdenlive:file_size">85481</property>
  <property name="kdenlive:original.kdenlive:file_hash">27019fd975a4d83cbeb08765c6ad8796</property>
  <property name="kdenlive:original.backup">1</property>
  <property name="meta.media.nb_streams">1</property>
  <property name="meta.media.0.stream.type">video</property>
  <property name="meta.media.0.stream.frame_rate">60</property>
  <property name="meta.media.0.stream.sample_aspect_ratio">0</property>
  <property name="meta.media.0.codec.width">640</property>
  <property name="meta.media.0.codec.height">360</property>
  <property name="meta.media.0.codec.rotate">0</property>
  <property name="meta.media.0.codec.pix_fmt">yuvj420p</property>
  <property name="meta.media.0.codec.sample_aspect_ratio">0</property>
  <property name="meta.media.0.codec.colorspace">601</property>
  <property name="meta.media.0.codec.name">mjpeg</property>
  <property name="meta.media.0.codec.long_name">MJPEG (Motion JPEG)</property>
  <property name="meta.media.0.codec.bit_rate">0</property>
  <property name="meta.attr.0.stream.HANDLER_NAME.markup">VideoHandler</property>
  <property name="meta.attr.0.stream.VENDOR_ID.markup">[0][0][0][0]</property>
  <property name="meta.attr.0.stream.ENCODER.markup">Lavc60.3.100 mjpeg</property>
  <property name="meta.attr.0.stream.DURATION.markup">00:00:02.000000000</property>
  <property name="meta.attr.COMMENT.markup">Rendered with Manim Community v0.17.3</property>
  <property name="meta.attr.MAJOR_BRAND.markup">isom</property>
  <property name="meta.attr.MINOR_VERSION.markup">512</property>
  <property name="meta.attr.COMPATIBLE_BRANDS.markup">isomiso2avc1mp41</property>
  <property name="meta.attr.ENCODER.markup">Lavf60.3.100</property>
  <property name="meta.media.sample_aspect_num">1</property>
  <property name="meta.media.sample_aspect_den">1</property>
  <property name="meta.media.frame_rate_num">60</property>
  <property name="meta.media.frame_rate_den">1</property>
  <property name="meta.media.colorspace">601</property>
  <property name="meta.media.color_trc">2</property>
  <property name="meta.media.has_b_frames">0</property>
  <property name="meta.media.width">640</property>
  <property name="meta.media.height">360</property>
  <property name="meta.media.color_range">full</property>
  <property name="xml">was here</property>
  <property name="meta.media.top_field_first">0</property>
  <property name="meta.media.progressive">1</property>
  <property name="set.test_audio">1</property>
  <property name="set.test_image">0</property>
 </chain>
 <chain id="chain610" out="00:00:02.983">
  <property name="length">180</property>
  <property name="eof">pause</property>
  <property name="resource">/home/xiaoxiae/.cache/kdenlive/proxy/9361e53aa754cfa27979975abfe38470.mkv</property>
  <property name="mlt_service">avformat-novalidate</property>
  <property name="seekable">1</property>
  <property name="format">3</property>
  <property name="audio_index">-1</property>
  <property name="video_index">0</property>
  <property name="kdenlive:clipname">103.mp4</property>
  <property name="kdenlive:clip_type">2</property>
  <property name="kdenlive:folderid">16</property>
  <property name="kdenlive:id">22</property>
  <property name="mute_on_pause">0</property>
  <property name="kdenlive:file_size">245380</property>
  <property name="kdenlive:file_hash">9361e53aa754cfa27979975abfe38470</property>
  <property name="kdenlive:proxy">/home/xiaoxiae/.cache/kdenlive/proxy/9361e53aa754cfa27979975abfe38470.mkv</property>
  <property name="kdenlive:originalurl">video/Farmer/103.mp4</property>
  <property name="kdenlive:original.mlt_type">chain</property>
  <property name="kdenlive:original.in">0</property>
  <property name="kdenlive:original.out">00:00:02.983</property>
  <property name="kdenlive:original.length">180</property>
  <property name="kdenlive:original.eof">pause</property>
  <property name="kdenlive:original.resource">video/Farmer/103.mp4</property>
  <property name="kdenlive:original.mlt_service">avformat-novalidate</property>
  <property name="kdenlive:original.meta.media.nb_streams">1</property>
  <property name="kdenlive:original.meta.media.0.stream.type">video</property>
  <property name="kdenlive:original.meta.media.0.stream.frame_rate">60</property>
  <property name="kdenlive:original.meta.media.0.stream.sample_aspect_ratio">0</property>
  <property name="kdenlive:original.meta.media.0.codec.width">1920</property>
  <property name="kdenlive:original.meta.media.0.codec.height">1080</property>
  <property name="kdenlive:original.meta.media.0.codec.rotate">0</property>
  <property name="kdenlive:original.meta.media.0.codec.pix_fmt">yuv420p</property>
  <property name="kdenlive:original.meta.media.0.codec.sample_aspect_ratio">0</property>
  <property name="kdenlive:original.meta.media.0.codec.colorspace">709</property>
  <property name="kdenlive:original.meta.media.0.codec.name">h264</property>
  <property name="kdenlive:original.meta.media.0.codec.long_name">H.264 / AVC / MPEG-4 AVC / MPEG-4 part 10</property>
  <property name="kdenlive:original.meta.media.0.codec.bit_rate">646560</property>
  <property name="kdenlive:original.meta.attr.0.stream.handler_name.markup">VideoHandler</property>
  <property name="kdenlive:original.meta.attr.0.stream.vendor_id.markup">[0][0][0][0]</property>
  <property name="kdenlive:original.meta.attr.0.stream.encoder.markup">Lavc60.3.100 libx264</property>
  <property name="kdenlive:original.meta.attr.major_brand.markup">isom</property>
  <property name="kdenlive:original.meta.attr.minor_version.markup">512</property>
  <property name="kdenlive:original.meta.attr.compatible_brands.markup">isomiso2avc1mp41</property>
  <property name="kdenlive:original.meta.attr.encoder.markup">Lavf60.3.100</property>
  <property name="kdenlive:original.meta.attr.comment.markup">Rendered with Manim Community v0.17.3</property>
  <property name="kdenlive:original.seekable">1</property>
  <property name="kdenlive:original.width">1920</property>
  <property name="kdenlive:original.height">1080</property>
  <property name="kdenlive:original.meta.media.sample_aspect_num">1</property>
  <property name="kdenlive:original.meta.media.sample_aspect_den">1</property>
  <property name="kdenlive:original.format">3</property>
  <property name="kdenlive:original.audio_index">-1</property>
  <property name="kdenlive:original.video_index">0</property>
  <property name="kdenlive:original.meta.media.frame_rate_num">60</property>
  <property name="kdenlive:original.meta.media.frame_rate_den">1</property>
  <property name="kdenlive:original.meta.media.colorspace">709</property>
  <property name="kdenlive:original.meta.media.color_trc">2</property>
  <property name="kdenlive:original.meta.media.has_b_frames">2</property>
  <property name="kdenlive:original.meta.media.width">1920</property>
  <property name="kdenlive:original.meta.media.height">1080</property>
  <property name="kdenlive:original.meta.media.color_range">mpeg</property>
  <property name="kdenlive:original.meta.media.top_field_first">0</property>
  <property name="kdenlive:original.meta.media.progressive">1</property>
  <property name="kdenlive:original.kdenlive:clip_type">2</property>
  <property name="kdenlive:original.kdenlive:folderid">16</property>
  <property name="kdenlive:original.kdenlive:id">22</property>
  <property name="kdenlive:original.mute_on_pause">0</property>
  <property name="kdenlive:original.kdenlive:file_size">245380</property>
  <property name="kdenlive:original.kdenlive:file_hash">9361e53aa754cfa27979975abfe38470</property>
  <property name="kdenlive:original.backup">1</property>
  <property name="meta.media.nb_streams">1</property>
  <property name="meta.media.0.stream.type">video</property>
  <property name="meta.media.0.stream.frame_rate">60</property>
  <property name="meta.media.0.stream.sample_aspect_ratio">0</property>
  <property name="meta.media.0.codec.width">640</property>
  <property name="meta.media.0.codec.height">360</property>
  <property name="meta.media.0.codec.rotate">0</property>
  <property name="meta.media.0.codec.pix_fmt">yuvj420p</property>
  <property name="meta.media.0.codec.sample_aspect_ratio">0</property>
  <property name="meta.media.0.codec.colorspace">601</property>
  <property name="meta.media.0.codec.name">mjpeg</property>
  <property name="meta.media.0.codec.long_name">MJPEG (Motion JPEG)</property>
  <property name="meta.media.0.codec.bit_rate">0</property>
  <property name="meta.attr.0.stream.HANDLER_NAME.markup">VideoHandler</property>
  <property name="meta.attr.0.stream.VENDOR_ID.markup">[0][0][0][0]</property>
  <property name="meta.attr.0.stream.ENCODER.markup">Lavc60.3.100 mjpeg</property>
  <property name="meta.attr.0.stream.DURATION.markup">00:00:03.000000000</property>
  <property name="meta.attr.COMMENT.markup">Rendered with Manim Community v0.17.3</property>
  <property name="meta.attr.MAJOR_BRAND.markup">isom</property>
  <property name="meta.attr.MINOR_VERSION.markup">512</property>
  <property name="meta.attr.COMPATIBLE_BRANDS.markup">isomiso2avc1mp41</property>
  <property name="meta.attr.ENCODER.markup">Lavf60.3.100</property>
  <property name="meta.media.sample_aspect_num">1</property>
  <property name="meta.media.sample_aspect_den">1</property>
  <property name="meta.media.frame_rate_num">60</property>
  <property name="meta.media.frame_rate_den">1</property>
  <property name="meta.media.colorspace">601</property>
  <property name="meta.media.color_trc">2</property>
  <property name="meta.media.has_b_frames">0</property>
  <property name="meta.media.width">640</property>
  <property name="meta.media.height">360</property>
  <property name="meta.media.color_range">full</property>
  <property name="xml">was here</property>
  <property name="meta.media.top_field_first">0</property>
  <property name="meta.media.progressive">1</property>
  <property name="set.test_audio">1</property>
  <property name="set.test_image">0</property>
 </chain>
 <chain id="chain611" out="00:00:02.783">
  <property name="length">168</property>
  <property name="eof">pause</property>
  <property name="resource">/home/xiaoxiae/.cache/kdenlive/proxy/bac433ccbcd9d0fa4dcdfb7b10ea35f8.mkv</property>
  <property name="mlt_service">avformat-novalidate</property>
  <property name="seekable">1</property>
  <property name="format">3</property>
  <property name="audio_index">-1</property>
  <property name="video_index">0</property>
  <property name="kdenlive:clipname">104.mp4</property>
  <property name="kdenlive:clip_type">2</property>
  <property name="kdenlive:folderid">16</property>
  <property name="kdenlive:id">23</property>
  <property name="mute_on_pause">0</property>
  <property name="kdenlive:file_size">209761</property>
  <property name="kdenlive:file_hash">bac433ccbcd9d0fa4dcdfb7b10ea35f8</property>
  <property name="kdenlive:proxy">/home/xiaoxiae/.cache/kdenlive/proxy/bac433ccbcd9d0fa4dcdfb7b10ea35f8.mkv</property>
  <property name="kdenlive:originalurl">video/Farmer/104.mp4</property>
  <property name="kdenlive:original.mlt_type">chain</property>
  <property name="kdenlive:original.in">0</property>
  <property name="kdenlive:original.out">00:00:02.783</property>
  <property name="kdenlive:original.length">168</property>
  <property name="kdenlive:original.eof">pause</property>
  <property name="kdenlive:original.resource">video/Farmer/104.mp4</property>
  <property name="kdenlive:original.mlt_service">avformat-novalidate</property>
  <property name="kdenlive:original.meta.media.nb_streams">1</property>
  <property name="kdenlive:original.meta.media.0.stream.type">video</property>
  <property name="kdenlive:original.meta.media.0.stream.frame_rate">60</property>
  <property name="kdenlive:original.meta.media.0.stream.sample_aspect_ratio">0</property>
  <property name="kdenlive:original.meta.media.0.codec.width">1920</property>
  <property name="kdenlive:original.meta.media.0.codec.height">1080</property>
  <property name="kdenlive:original.meta.media.0.codec.rotate">0</property>
  <property name="kdenlive:original.meta.media.0.codec.pix_fmt">yuv420p</property>
  <property name="kdenlive:original.meta.media.0.codec.sample_aspect_ratio">0</property>
  <property name="kdenlive:original.meta.media.0.codec.colorspace">709</property>
  <property name="kdenlive:original.meta.media.0.codec.name">h264</property>
  <property name="kdenlive:original.meta.media.0.codec.long_name">H.264 / AVC / MPEG-4 AVC / MPEG-4 part 10</property>
  <property name="kdenlive:original.meta.media.0.codec.bit_rate">591042</property>
  <property name="kdenlive:original.meta.attr.0.stream.handler_name.markup">VideoHandler</property>
  <property name="kdenlive:original.meta.attr.0.stream.vendor_id.markup">[0][0][0][0]</property>
  <property name="kdenlive:original.meta.attr.0.stream.encoder.markup">Lavc60.3.100 libx264</property>
  <property name="kdenlive:original.meta.attr.major_brand.markup">isom</property>
  <property name="kdenlive:original.meta.attr.minor_version.markup">512</property>
  <property name="kdenlive:original.meta.attr.compatible_brands.markup">isomiso2avc1mp41</property>
  <property name="kdenlive:original.meta.attr.encoder.markup">Lavf60.3.100</property>
  <property name="kdenlive:original.meta.attr.comment.markup">Rendered with Manim Community v0.17.3</property>
  <property name="kdenlive:original.seekable">1</property>
  <property name="kdenlive:original.width">1920</property>
  <property name="kdenlive:original.height">1080</property>
  <property name="kdenlive:original.meta.media.sample_aspect_num">1</property>
  <property name="kdenlive:original.meta.media.sample_aspect_den">1</property>
  <property name="kdenlive:original.format">3</property>
  <property name="kdenlive:original.audio_index">-1</property>
  <property name="kdenlive:original.video_index">0</property>
  <property name="kdenlive:original.meta.media.frame_rate_num">60</property>
  <property name="kdenlive:original.meta.media.frame_rate_den">1</property>
  <property name="kdenlive:original.meta.media.colorspace">709</property>
  <property name="kdenlive:original.meta.media.color_trc">2</property>
  <property name="kdenlive:original.meta.media.has_b_frames">2</property>
  <property name="kdenlive:original.meta.media.width">1920</property>
  <property name="kdenlive:original.meta.media.height">1080</property>
  <property name="kdenlive:original.meta.media.color_range">mpeg</property>
  <property name="kdenlive:original.meta.media.top_field_first">0</property>
  <property name="kdenlive:original.meta.media.progressive">1</property>
  <property name="kdenlive:original.kdenlive:clip_type">2</property>
  <property name="kdenlive:original.kdenlive:folderid">16</property>
  <property name="kdenlive:original.kdenlive:id">23</property>
  <property name="kdenlive:original.mute_on_pause">0</property>
  <property name="kdenlive:original.kdenlive:file_size">209761</property>
  <property name="kdenlive:original.kdenlive:file_hash">bac433ccbcd9d0fa4dcdfb7b10ea35f8</property>
  <property name="kdenlive:original.backup">1</property>
  <property name="meta.media.nb_streams">1</property>
  <property name="meta.media.0.stream.type">video</property>
  <property name="meta.media.0.stream.frame_rate">60</property>
  <property name="meta.media.0.stream.sample_aspect_ratio">0</property>
  <property name="meta.media.0.codec.width">640</property>
  <property name="meta.media.0.codec.height">360</property>
  <property name="meta.media.0.codec.rotate">0</property>
  <property name="meta.media.0.codec.pix_fmt">yuvj420p</property>
  <property name="meta.media.0.codec.sample_aspect_ratio">0</property>
  <property name="meta.media.0.codec.colorspace">601</property>
  <property name="meta.media.0.codec.name">mjpeg</property>
  <property name="meta.media.0.codec.long_name">MJPEG (Motion JPEG)</property>
  <property name="meta.media.0.codec.bit_rate">0</property>
  <property name="meta.attr.0.stream.HANDLER_NAME.markup">VideoHandler</property>
  <property name="meta.attr.0.stream.VENDOR_ID.markup">[0][0][0][0]</property>
  <property name="meta.attr.0.stream.ENCODER.markup">Lavc60.3.100 mjpeg</property>
  <property name="meta.attr.0.stream.DURATION.markup">00:00:02.800000000</property>
  <property name="meta.attr.COMMENT.markup">Rendered with Manim Community v0.17.3</property>
  <property name="meta.attr.MAJOR_BRAND.markup">isom</property>
  <property name="meta.attr.MINOR_VERSION.markup">512</property>
  <property name="meta.attr.COMPATIBLE_BRANDS.markup">isomiso2avc1mp41</property>
  <property name="meta.attr.ENCODER.markup">Lavf60.3.100</property>
  <property name="meta.media.sample_aspect_num">1</property>
  <property name="meta.media.sample_aspect_den">1</property>
  <property name="meta.media.frame_rate_num">60</property>
  <property name="meta.media.frame_rate_den">1</property>
  <property name="meta.media.colorspace">601</property>
  <property name="meta.media.color_trc">2</property>
  <property name="meta.media.has_b_frames">0</property>
  <property name="meta.media.width">640</property>
  <property name="meta.media.height">360</property>
  <property name="meta.media.color_range">full</property>
  <property name="xml">was here</property>
  <property name="meta.media.top_field_first">0</property>
  <property name="meta.media.progressive">1</property>
  <property name="set.test_audio">1</property>
  <property name="set.test_image">0</property>
 </chain>
 <chain id="chain612" out="00:00:00.983">
  <property name="length">60</property>
  <property name="eof">pause</property>
  <property name="resource">/home/xiaoxiae/.cache/kdenlive/proxy/18f7f3b75783265ffd4cec1ea16eeac8.mkv</property>
  <property name="mlt_service">avformat-novalidate</property>
  <property name="seekable">1</property>
  <property name="format">3</property>
  <property name="audio_index">-1</property>
  <property name="video_index">0</property>
  <property name="kdenlive:clipname">105.mp4</property>
  <property name="kdenlive:clip_type">2</property>
  <property name="kdenlive:folderid">16</property>
  <property name="kdenlive:id">24</property>
  <property name="mute_on_pause">0</property>
  <property name="kdenlive:file_size">88899</property>
  <property name="kdenlive:file_hash">18f7f3b75783265ffd4cec1ea16eeac8</property>
  <property name="kdenlive:proxy">/home/xiaoxiae/.cache/kdenlive/proxy/18f7f3b75783265ffd4cec1ea16eeac8.mkv</property>
  <property name="kdenlive:originalurl">video/Farmer/105.mp4</property>
  <property name="kdenlive:original.mlt_type">chain</property>
  <property name="kdenlive:original.in">0</property>
  <property name="kdenlive:original.out">00:00:00.983</property>
  <property name="kdenlive:original.length">60</property>
  <property name="kdenlive:original.eof">pause</property>
  <property name="kdenlive:original.resource">video/Farmer/105.mp4</property>
  <property name="kdenlive:original.mlt_service">avformat-novalidate</property>
  <property name="kdenlive:original.meta.media.nb_streams">1</property>
  <property name="kdenlive:original.meta.media.0.stream.type">video</property>
  <property name="kdenlive:original.meta.media.0.stream.frame_rate">60</property>
  <property name="kdenlive:original.meta.media.0.stream.sample_aspect_ratio">0</property>
  <property name="kdenlive:original.meta.media.0.codec.width">1920</property>
  <property name="kdenlive:original.meta.media.0.codec.height">1080</property>
  <property name="kdenlive:original.meta.media.0.codec.rotate">0</property>
  <property name="kdenlive:original.meta.media.0.codec.pix_fmt">yuv420p</property>
  <property name="kdenlive:original.meta.media.0.codec.sample_aspect_ratio">0</property>
  <property name="kdenlive:original.meta.media.0.codec.colorspace">709</property>
  <property name="kdenlive:original.meta.media.0.codec.name">h264</property>
  <property name="kdenlive:original.meta.media.0.codec.long_name">H.264 / AVC / MPEG-4 AVC / MPEG-4 part 10</property>
  <property name="kdenlive:original.meta.media.0.codec.bit_rate">698264</property>
  <property name="kdenlive:original.meta.attr.0.stream.handler_name.markup">VideoHandler</property>
  <property name="kdenlive:original.meta.attr.0.stream.vendor_id.markup">[0][0][0][0]</property>
  <property name="kdenlive:original.meta.attr.0.stream.encoder.markup">Lavc60.3.100 libx264</property>
  <property name="kdenlive:original.meta.attr.major_brand.markup">isom</property>
  <property name="kdenlive:original.meta.attr.minor_version.markup">512</property>
  <property name="kdenlive:original.meta.attr.compatible_brands.markup">isomiso2avc1mp41</property>
  <property name="kdenlive:original.meta.attr.encoder.markup">Lavf60.3.100</property>
  <property name="kdenlive:original.meta.attr.comment.markup">Rendered with Manim Community v0.17.3</property>
  <property name="kdenlive:original.seekable">1</property>
  <property name="kdenlive:original.width">1920</property>
  <property name="kdenlive:original.height">1080</property>
  <property name="kdenlive:original.meta.media.sample_aspect_num">1</property>
  <property name="kdenlive:original.meta.media.sample_aspect_den">1</property>
  <property name="kdenlive:original.format">3</property>
  <property name="kdenlive:original.audio_index">-1</property>
  <property name="kdenlive:original.video_index">0</property>
  <property name="kdenlive:original.meta.media.frame_rate_num">60</property>
  <property name="kdenlive:original.meta.media.frame_rate_den">1</property>
  <property name="kdenlive:original.meta.media.colorspace">709</property>
  <property name="kdenlive:original.meta.media.color_trc">2</property>
  <property name="kdenlive:original.meta.media.has_b_frames">2</property>
  <property name="kdenlive:original.meta.media.width">1920</property>
  <property name="kdenlive:original.meta.media.height">1080</property>
  <property name="kdenlive:original.meta.media.color_range">mpeg</property>
  <property name="kdenlive:original.meta.media.top_field_first">0</property>
  <property name="kdenlive:original.meta.media.progressive">1</property>
  <property name="kdenlive:original.kdenlive:clip_type">2</property>
  <property name="kdenlive:original.kdenlive:folderid">16</property>
  <property name="kdenlive:original.kdenlive:id">24</property>
  <property name="kdenlive:original.mute_on_pause">0</property>
  <property name="kdenlive:original.kdenlive:file_size">88899</property>
  <property name="kdenlive:original.kdenlive:file_hash">18f7f3b75783265ffd4cec1ea16eeac8</property>
  <property name="kdenlive:original.backup">1</property>
  <property name="meta.media.nb_streams">1</property>
  <property name="meta.media.0.stream.type">video</property>
  <property name="meta.media.0.stream.frame_rate">60</property>
  <property name="meta.media.0.stream.sample_aspect_ratio">0</property>
  <property name="meta.media.0.codec.width">640</property>
  <property name="meta.media.0.codec.height">360</property>
  <property name="meta.media.0.codec.rotate">0</property>
  <property name="meta.media.0.codec.pix_fmt">yuvj420p</property>
  <property name="meta.media.0.codec.sample_aspect_ratio">0</property>
  <property name="meta.media.0.codec.colorspace">601</property>
  <property name="meta.media.0.codec.name">mjpeg</property>
  <property name="meta.media.0.codec.long_name">MJPEG (Motion JPEG)</property>
  <property name="meta.media.0.codec.bit_rate">0</property>
  <property name="meta.attr.0.stream.HANDLER_NAME.markup">VideoHandler</property>
  <property name="meta.attr.0.stream.VENDOR_ID.markup">[0][0][0][0]</property>
  <property name="meta.attr.0.stream.ENCODER.markup">Lavc60.3.100 mjpeg</property>
  <property name="meta.attr.0.stream.DURATION.markup">00:00:01.000000000</property>
  <property name="meta.attr.COMMENT.markup">Rendered with Manim Community v0.17.3</property>
  <property name="meta.attr.MAJOR_BRAND.markup">isom</property>
  <property name="meta.attr.MINOR_VERSION.markup">512</property>
  <property name="meta.attr.COMPATIBLE_BRANDS.markup">isomiso2avc1mp41</property>
  <property name="meta.attr.ENCODER.markup">Lavf60.3.100</property>
  <property name="meta.media.sample_aspect_num">1</property>
  <property name="meta.media.sample_aspect_den">1</property>
  <property name="meta.media.frame_rate_num">60</property>
  <property name="meta.media.frame_rate_den">1</property>
  <property name="meta.media.colorspace">601</property>
  <property name="meta.media.color_trc">2</property>
  <property name="meta.media.has_b_frames">0</property>
  <property name="meta.media.width">640</property>
  <property name="meta.media.height">360</property>
  <property name="meta.media.color_range">full</property>
  <property name="xml">was here</property>
  <property name="meta.media.top_field_first">0</property>
  <property name="meta.media.progressive">1</property>
  <property name="set.test_audio">1</property>
  <property name="set.test_image">0</property>
 </chain>
 <chain id="chain613" out="00:00:00.983">
  <property name="length">60</property>
  <property name="eof">pause</property>
  <property name="resource">/home/xiaoxiae/.cache/kdenlive/proxy/00fa5b01fb24c8e808b6dbf28190fab3.mkv</property>
  <property name="mlt_service">avformat-novalidate</property>
  <property name="seekable">1</property>
  <property name="format">3</property>
  <property name="audio_index">-1</property>
  <property name="video_index">0</property>
  <property name="kdenlive:clipname">106.mp4</property>
  <property name="kdenlive:clip_type">2</property>
  <property name="kdenlive:folderid">16</property>
  <property name="kdenlive:id">25</property>
  <property name="mute_on_pause">0</property>
  <property name="kdenlive:file_size">59027</property>
  <property name="kdenlive:file_hash">00fa5b01fb24c8e808b6dbf28190fab3</property>
  <property name="kdenlive:proxy">/home/xiaoxiae/.cache/kdenlive/proxy/00fa5b01fb24c8e808b6dbf28190fab3.mkv</property>
  <property name="kdenlive:originalurl">video/Farmer/106.mp4</property>
  <property name="kdenlive:original.mlt_type">chain</property>
  <property name="kdenlive:original.in">0</property>
  <property name="kdenlive:original.out">00:00:00.983</property>
  <property name="kdenlive:original.length">60</property>
  <property name="kdenlive:original.eof">pause</property>
  <property name="kdenlive:original.resource">video/Farmer/106.mp4</property>
  <property name="kdenlive:original.mlt_service">avformat-novalidate</property>
  <property name="kdenlive:original.meta.media.nb_streams">1</property>
  <property name="kdenlive:original.meta.media.0.stream.type">video</property>
  <property name="kdenlive:original.meta.media.0.stream.frame_rate">60</property>
  <property name="kdenlive:original.meta.media.0.stream.sample_aspect_ratio">0</property>
  <property name="kdenlive:original.meta.media.0.codec.width">1920</property>
  <property name="kdenlive:original.meta.media.0.codec.height">1080</property>
  <property name="kdenlive:original.meta.media.0.codec.rotate">0</property>
  <property name="kdenlive:original.meta.media.0.codec.pix_fmt">yuv420p</property>
  <property name="kdenlive:original.meta.media.0.codec.sample_aspect_ratio">0</property>
  <property name="kdenlive:original.meta.media.0.codec.colorspace">709</property>
  <property name="kdenlive:original.meta.media.0.codec.name">h264</property>
  <property name="kdenlive:original.meta.media.0.codec.long_name">H.264 / AVC / MPEG-4 AVC / MPEG-4 part 10</property>
  <property name="kdenlive:original.meta.media.0.codec.bit_rate">459160</property>
  <property name="kdenlive:original.meta.attr.0.stream.handler_name.markup">VideoHandler</property>
  <property name="kdenlive:original.meta.attr.0.stream.vendor_id.markup">[0][0][0][0]</property>
  <property name="kdenlive:original.meta.attr.0.stream.encoder.markup">Lavc60.3.100 libx264</property>
  <property name="kdenlive:original.meta.attr.major_brand.markup">isom</property>
  <property name="kdenlive:original.meta.attr.minor_version.markup">512</property>
  <property name="kdenlive:original.meta.attr.compatible_brands.markup">isomiso2avc1mp41</property>
  <property name="kdenlive:original.meta.attr.encoder.markup">Lavf60.3.100</property>
  <property name="kdenlive:original.meta.attr.comment.markup">Rendered with Manim Community v0.17.3</property>
  <property name="kdenlive:original.seekable">1</property>
  <property name="kdenlive:original.width">1920</property>
  <property name="kdenlive:original.height">1080</property>
  <property name="kdenlive:original.meta.media.sample_aspect_num">1</property>
  <property name="kdenlive:original.meta.media.sample_aspect_den">1</property>
  <property name="kdenlive:original.format">3</property>
  <property name="kdenlive:original.audio_index">-1</property>
  <property name="kdenlive:original.video_index">0</property>
  <property name="kdenlive:original.meta.media.frame_rate_num">60</property>
  <property name="kdenlive:original.meta.media.frame_rate_den">1</property>
  <property name="kdenlive:original.meta.media.colorspace">709</property>
  <property name="kdenlive:original.meta.media.color_trc">2</property>
  <property name="kdenlive:original.meta.media.has_b_frames">2</property>
  <property name="kdenlive:original.meta.media.width">1920</property>
  <property name="kdenlive:original.meta.media.height">1080</property>
  <property name="kdenlive:original.meta.media.color_range">mpeg</property>
  <property name="kdenlive:original.meta.media.top_field_first">0</property>
  <property name="kdenlive:original.meta.media.progressive">1</property>
  <property name="kdenlive:original.kdenlive:clip_type">2</property>
  <property name="kdenlive:original.kdenlive:folderid">16</property>
  <property name="kdenlive:original.kdenlive:id">25</property>
  <property name="kdenlive:original.mute_on_pause">0</property>
  <property name="kdenlive:original.kdenlive:file_size">59027</property>
  <property name="kdenlive:original.kdenlive:file_hash">00fa5b01fb24c8e808b6dbf28190fab3</property>
  <property name="kdenlive:original.backup">1</property>
  <property name="meta.media.nb_streams">1</property>
  <property name="meta.media.0.stream.type">video</property>
  <property name="meta.media.0.stream.frame_rate">60</property>
  <property name="meta.media.0.stream.sample_aspect_ratio">0</property>
  <property name="meta.media.0.codec.width">640</property>
  <property name="meta.media.0.codec.height">360</property>
  <property name="meta.media.0.codec.rotate">0</property>
  <property name="meta.media.0.codec.pix_fmt">yuvj420p</property>
  <property name="meta.media.0.codec.sample_aspect_ratio">0</property>
  <property name="meta.media.0.codec.colorspace">601</property>
  <property name="meta.media.0.codec.name">mjpeg</property>
  <property name="meta.media.0.codec.long_name">MJPEG (Motion JPEG)</property>
  <property name="meta.media.0.codec.bit_rate">0</property>
  <property name="meta.attr.0.stream.HANDLER_NAME.markup">VideoHandler</property>
  <property name="meta.attr.0.stream.VENDOR_ID.markup">[0][0][0][0]</property>
  <property name="meta.attr.0.stream.ENCODER.markup">Lavc60.3.100 mjpeg</property>
  <property name="meta.attr.0.stream.DURATION.markup">00:00:01.000000000</property>
  <property name="meta.attr.COMMENT.markup">Rendered with Manim Community v0.17.3</property>
  <property name="meta.attr.MAJOR_BRAND.markup">isom</property>
  <property name="meta.attr.MINOR_VERSION.markup">512</property>
  <property name="meta.attr.COMPATIBLE_BRANDS.markup">isomiso2avc1mp41</property>
  <property name="meta.attr.ENCODER.markup">Lavf60.3.100</property>
  <property name="meta.media.sample_aspect_num">1</property>
  <property name="meta.media.sample_aspect_den">1</property>
  <property name="meta.media.frame_rate_num">60</property>
  <property name="meta.media.frame_rate_den">1</property>
  <property name="meta.media.colorspace">601</property>
  <property name="meta.media.color_trc">2</property>
  <property name="meta.media.has_b_frames">0</property>
  <property name="meta.media.width">640</property>
  <property name="meta.media.height">360</property>
  <property name="meta.media.color_range">full</property>
  <property name="xml">was here</property>
  <property name="meta.media.top_field_first">0</property>
  <property name="meta.media.progressive">1</property>
  <property name="set.test_audio">1</property>
  <property name="set.test_image">0</property>
 </chain>
 <chain id="chain614" out="00:00:00.983">
  <property name="length">60</property>
  <property name="eof">pause</property>
  <property name="resource">/home/xiaoxiae/.cache/kdenlive/proxy/a113e5fa876441296d51d6cacfd99022.mkv</property>
  <property name="mlt_service">avformat-novalidate</property>
  <property name="seekable">1</property>
  <property name="format">3</property>
  <property name="audio_index">-1</property>
  <property name="video_index">0</property>
  <property name="kdenlive:clipname">107.mp4</property>
  <property name="kdenlive:clip_type">2</property>
  <property name="kdenlive:folderid">16</property>
  <property name="kdenlive:id">26</property>
  <property name="mute_on_pause">0</property>
  <property name="kdenlive:file_size">90944</property>
  <property name="kdenlive:file_hash">a113e5fa876441296d51d6cacfd99022</property>
  <property name="kdenlive:proxy">/home/xiaoxiae/.cache/kdenlive/proxy/a113e5fa876441296d51d6cacfd99022.mkv</property>
  <property name="kdenlive:originalurl">video/Farmer/107.mp4</property>
  <property name="kdenlive:original.mlt_type">chain</property>
  <property name="kdenlive:original.in">0</property>
  <property name="kdenlive:original.out">00:00:00.983</property>
  <property name="kdenlive:original.length">60</property>
  <property name="kdenlive:original.eof">pause</property>
  <property name="kdenlive:original.resource">video/Farmer/107.mp4</property>
  <property name="kdenlive:original.mlt_service">avformat-novalidate</property>
  <property name="kdenlive:original.meta.media.nb_streams">1</property>
  <property name="kdenlive:original.meta.media.0.stream.type">video</property>
  <property name="kdenlive:original.meta.media.0.stream.frame_rate">60</property>
  <property name="kdenlive:original.meta.media.0.stream.sample_aspect_ratio">0</property>
  <property name="kdenlive:original.meta.media.0.codec.width">1920</property>
  <property name="kdenlive:original.meta.media.0.codec.height">1080</property>
  <property name="kdenlive:original.meta.media.0.codec.rotate">0</property>
  <property name="kdenlive:original.meta.media.0.codec.pix_fmt">yuv420p</property>
  <property name="kdenlive:original.meta.media.0.codec.sample_aspect_ratio">0</property>
  <property name="kdenlive:original.meta.media.0.codec.colorspace">709</property>
  <property name="kdenlive:original.meta.media.0.codec.name">h264</property>
  <property name="kdenlive:original.meta.media.0.codec.long_name">H.264 / AVC / MPEG-4 AVC / MPEG-4 part 10</property>
  <property name="kdenlive:original.meta.media.0.codec.bit_rate">714752</property>
  <property name="kdenlive:original.meta.attr.0.stream.handler_name.markup">VideoHandler</property>
  <property name="kdenlive:original.meta.attr.0.stream.vendor_id.markup">[0][0][0][0]</property>
  <property name="kdenlive:original.meta.attr.0.stream.encoder.markup">Lavc60.3.100 libx264</property>
  <property name="kdenlive:original.meta.attr.major_brand.markup">isom</property>
  <property name="kdenlive:original.meta.attr.minor_version.markup">512</property>
  <property name="kdenlive:original.meta.attr.compatible_brands.markup">isomiso2avc1mp41</property>
  <property name="kdenlive:original.meta.attr.encoder.markup">Lavf60.3.100</property>
  <property name="kdenlive:original.meta.attr.comment.markup">Rendered with Manim Community v0.17.3</property>
  <property name="kdenlive:original.seekable">1</property>
  <property name="kdenlive:original.width">1920</property>
  <property name="kdenlive:original.height">1080</property>
  <property name="kdenlive:original.meta.media.sample_aspect_num">1</property>
  <property name="kdenlive:original.meta.media.sample_aspect_den">1</property>
  <property name="kdenlive:original.format">3</property>
  <property name="kdenlive:original.audio_index">-1</property>
  <property name="kdenlive:original.video_index">0</property>
  <property name="kdenlive:original.meta.media.frame_rate_num">60</property>
  <property name="kdenlive:original.meta.media.frame_rate_den">1</property>
  <property name="kdenlive:original.meta.media.colorspace">709</property>
  <property name="kdenlive:original.meta.media.color_trc">2</property>
  <property name="kdenlive:original.meta.media.has_b_frames">2</property>
  <property name="kdenlive:original.meta.media.width">1920</property>
  <property name="kdenlive:original.meta.media.height">1080</property>
  <property name="kdenlive:original.meta.media.color_range">mpeg</property>
  <property name="kdenlive:original.meta.media.top_field_first">0</property>
  <property name="kdenlive:original.meta.media.progressive">1</property>
  <property name="kdenlive:original.kdenlive:clip_type">2</property>
  <property name="kdenlive:original.kdenlive:folderid">16</property>
  <property name="kdenlive:original.kdenlive:id">26</property>
  <property name="kdenlive:original.mute_on_pause">0</property>
  <property name="kdenlive:original.kdenlive:file_size">90944</property>
  <property name="kdenlive:original.kdenlive:file_hash">a113e5fa876441296d51d6cacfd99022</property>
  <property name="kdenlive:original.backup">1</property>
  <property name="meta.media.nb_streams">1</property>
  <property name="meta.media.0.stream.type">video</property>
  <property name="meta.media.0.stream.frame_rate">60</property>
  <property name="meta.media.0.stream.sample_aspect_ratio">0</property>
  <property name="meta.media.0.codec.width">640</property>
  <property name="meta.media.0.codec.height">360</property>
  <property name="meta.media.0.codec.rotate">0</property>
  <property name="meta.media.0.codec.pix_fmt">yuvj420p</property>
  <property name="meta.media.0.codec.sample_aspect_ratio">0</property>
  <property name="meta.media.0.codec.colorspace">601</property>
  <property name="meta.media.0.codec.name">mjpeg</property>
  <property name="meta.media.0.codec.long_name">MJPEG (Motion JPEG)</property>
  <property name="meta.media.0.codec.bit_rate">0</property>
  <property name="meta.attr.0.stream.HANDLER_NAME.markup">VideoHandler</property>
  <property name="meta.attr.0.stream.VENDOR_ID.markup">[0][0][0][0]</property>
  <property name="meta.attr.0.stream.ENCODER.markup">Lavc60.3.100 mjpeg</property>
  <property name="meta.attr.0.stream.DURATION.markup">00:00:01.000000000</property>
  <property name="meta.attr.COMMENT.markup">Rendered with Manim Community v0.17.3</property>
  <property name="meta.attr.MAJOR_BRAND.markup">isom</property>
  <property name="meta.attr.MINOR_VERSION.markup">512</property>
  <property name="meta.attr.COMPATIBLE_BRANDS.markup">isomiso2avc1mp41</property>
  <property name="meta.attr.ENCODER.markup">Lavf60.3.100</property>
  <property name="meta.media.sample_aspect_num">1</property>
  <property name="meta.media.sample_aspect_den">1</property>
  <property name="meta.media.frame_rate_num">60</property>
  <property name="meta.media.frame_rate_den">1</property>
  <property name="meta.media.colorspace">601</property>
  <property name="meta.media.color_trc">2</property>
  <property name="meta.media.has_b_frames">0</property>
  <property name="meta.media.width">640</property>
  <property name="meta.media.height">360</property>
  <property name="meta.media.color_range">full</property>
  <property name="xml">was here</property>
  <property name="meta.media.top_field_first">0</property>
  <property name="meta.media.progressive">1</property>
  <property name="set.test_audio">1</property>
  <property name="set.test_image">0</property>
 </chain>
 <chain id="chain615" out="00:00:00.983">
  <property name="length">60</property>
  <property name="eof">pause</property>
  <property name="resource">/home/xiaoxiae/.cache/kdenlive/proxy/391bb96fa6fa3bcc9be31e234a879271.mkv</property>
  <property name="mlt_service">avformat-novalidate</property>
  <property name="seekable">1</property>
  <property name="format">3</property>
  <property name="audio_index">-1</property>
  <property name="video_index">0</property>
  <property name="kdenlive:clipname">108.mp4</property>
  <property name="kdenlive:clip_type">2</property>
  <property name="kdenlive:folderid">16</property>
  <property name="kdenlive:id">27</property>
  <property name="mute_on_pause">0</property>
  <property name="kdenlive:file_size">107548</property>
  <property name="kdenlive:file_hash">391bb96fa6fa3bcc9be31e234a879271</property>
  <property name="kdenlive:proxy">/home/xiaoxiae/.cache/kdenlive/proxy/391bb96fa6fa3bcc9be31e234a879271.mkv</property>
  <property name="kdenlive:originalurl">video/Farmer/108.mp4</property>
  <property name="kdenlive:original.mlt_type">chain</property>
  <property name="kdenlive:original.in">0</property>
  <property name="kdenlive:original.out">00:00:00.983</property>
  <property name="kdenlive:original.length">60</property>
  <property name="kdenlive:original.eof">pause</property>
  <property name="kdenlive:original.resource">video/Farmer/108.mp4</property>
  <property name="kdenlive:original.mlt_service">avformat-novalidate</property>
  <property name="kdenlive:original.meta.media.nb_streams">1</property>
  <property name="kdenlive:original.meta.media.0.stream.type">video</property>
  <property name="kdenlive:original.meta.media.0.stream.frame_rate">60</property>
  <property name="kdenlive:original.meta.media.0.stream.sample_aspect_ratio">0</property>
  <property name="kdenlive:original.meta.media.0.codec.width">1920</property>
  <property name="kdenlive:original.meta.media.0.codec.height">1080</property>
  <property name="kdenlive:original.meta.media.0.codec.rotate">0</property>
  <property name="kdenlive:original.meta.media.0.codec.pix_fmt">yuv420p</property>
  <property name="kdenlive:original.meta.media.0.codec.sample_aspect_ratio">0</property>
  <property name="kdenlive:original.meta.media.0.codec.colorspace">709</property>
  <property name="kdenlive:original.meta.media.0.codec.name">h264</property>
  <property name="kdenlive:original.meta.media.0.codec.long_name">H.264 / AVC / MPEG-4 AVC / MPEG-4 part 10</property>
  <property name="kdenlive:original.meta.media.0.codec.bit_rate">847712</property>
  <property name="kdenlive:original.meta.attr.0.stream.handler_name.markup">VideoHandler</property>
  <property name="kdenlive:original.meta.attr.0.stream.vendor_id.markup">[0][0][0][0]</property>
  <property name="kdenlive:original.meta.attr.0.stream.encoder.markup">Lavc60.3.100 libx264</property>
  <property name="kdenlive:original.meta.attr.major_brand.markup">isom</property>
  <property name="kdenlive:original.meta.attr.minor_version.markup">512</property>
  <property name="kdenlive:original.meta.attr.compatible_brands.markup">isomiso2avc1mp41</property>
  <property name="kdenlive:original.meta.attr.encoder.markup">Lavf60.3.100</property>
  <property name="kdenlive:original.meta.attr.comment.markup">Rendered with Manim Community v0.17.3</property>
  <property name="kdenlive:original.seekable">1</property>
  <property name="kdenlive:original.width">1920</property>
  <property name="kdenlive:original.height">1080</property>
  <property name="kdenlive:original.meta.media.sample_aspect_num">1</property>
  <property name="kdenlive:original.meta.media.sample_aspect_den">1</property>
  <property name="kdenlive:original.format">3</property>
  <property name="kdenlive:original.audio_index">-1</property>
  <property name="kdenlive:original.video_index">0</property>
  <property name="kdenlive:original.meta.media.frame_rate_num">60</property>
  <property name="kdenlive:original.meta.media.frame_rate_den">1</property>
  <property name="kdenlive:original.meta.media.colorspace">709</property>
  <property name="kdenlive:original.meta.media.color_trc">2</property>
  <property name="kdenlive:original.meta.media.has_b_frames">2</property>
  <property name="kdenlive:original.meta.media.width">1920</property>
  <property name="kdenlive:original.meta.media.height">1080</property>
  <property name="kdenlive:original.meta.media.color_range">mpeg</property>
  <property name="kdenlive:original.meta.media.top_field_first">0</property>
  <property name="kdenlive:original.meta.media.progressive">1</property>
  <property name="kdenlive:original.kdenlive:clip_type">2</property>
  <property name="kdenlive:original.kdenlive:folderid">16</property>
  <property name="kdenlive:original.kdenlive:id">27</property>
  <property name="kdenlive:original.mute_on_pause">0</property>
  <property name="kdenlive:original.kdenlive:file_size">107548</property>
  <property name="kdenlive:original.kdenlive:file_hash">391bb96fa6fa3bcc9be31e234a879271</property>
  <property name="kdenlive:original.backup">1</property>
  <property name="meta.media.nb_streams">1</property>
  <property name="meta.media.0.stream.type">video</property>
  <property name="meta.media.0.stream.frame_rate">60</property>
  <property name="meta.media.0.stream.sample_aspect_ratio">0</property>
  <property name="meta.media.0.codec.width">640</property>
  <property name="meta.media.0.codec.height">360</property>
  <property name="meta.media.0.codec.rotate">0</property>
  <property name="meta.media.0.codec.pix_fmt">yuvj420p</property>
  <property name="meta.media.0.codec.sample_aspect_ratio">0</property>
  <property name="meta.media.0.codec.colorspace">601</property>
  <property name="meta.media.0.codec.name">mjpeg</property>
  <property name="meta.media.0.codec.long_name">MJPEG (Motion JPEG)</property>
  <property name="meta.media.0.codec.bit_rate">0</property>
  <property name="meta.attr.0.stream.HANDLER_NAME.markup">VideoHandler</property>
  <property name="meta.attr.0.stream.VENDOR_ID.markup">[0][0][0][0]</property>
  <property name="meta.attr.0.stream.ENCODER.markup">Lavc60.3.100 mjpeg</property>
  <property name="meta.attr.0.stream.DURATION.markup">00:00:01.000000000</property>
  <property name="meta.attr.COMMENT.markup">Rendered with Manim Community v0.17.3</property>
  <property name="meta.attr.MAJOR_BRAND.markup">isom</property>
  <property name="meta.attr.MINOR_VERSION.markup">512</property>
  <property name="meta.attr.COMPATIBLE_BRANDS.markup">isomiso2avc1mp41</property>
  <property name="meta.attr.ENCODER.markup">Lavf60.3.100</property>
  <property name="meta.media.sample_aspect_num">1</property>
  <property name="meta.media.sample_aspect_den">1</property>
  <property name="meta.media.frame_rate_num">60</property>
  <property name="meta.media.frame_rate_den">1</property>
  <property name="meta.media.colorspace">601</property>
  <property name="meta.media.color_trc">2</property>
  <property name="meta.media.has_b_frames">0</property>
  <property name="meta.media.width">640</property>
  <property name="meta.media.height">360</property>
  <property name="meta.media.color_range">full</property>
  <property name="xml">was here</property>
  <property name="meta.media.top_field_first">0</property>
  <property name="meta.media.progressive">1</property>
  <property name="set.test_audio">1</property>
  <property name="set.test_image">0</property>
 </chain>
 <chain id="chain616" out="00:00:00.983">
  <property name="length">60</property>
  <property name="eof">pause</property>
  <property name="resource">/home/xiaoxiae/.cache/kdenlive/proxy/8059986b7b1ae5c6ac3ab66b3d790119.mkv</property>
  <property name="mlt_service">avformat-novalidate</property>
  <property name="seekable">1</property>
  <property name="format">3</property>
  <property name="audio_index">-1</property>
  <property name="video_index">0</property>
  <property name="kdenlive:clipname">109.mp4</property>
  <property name="kdenlive:clip_type">2</property>
  <property name="kdenlive:folderid">16</property>
  <property name="kdenlive:id">28</property>
  <property name="mute_on_pause">0</property>
  <property name="kdenlive:file_size">62570</property>
  <property name="kdenlive:file_hash">8059986b7b1ae5c6ac3ab66b3d790119</property>
  <property name="kdenlive:proxy">/home/xiaoxiae/.cache/kdenlive/proxy/8059986b7b1ae5c6ac3ab66b3d790119.mkv</property>
  <property name="kdenlive:originalurl">video/Farmer/109.mp4</property>
  <property name="kdenlive:original.mlt_type">chain</property>
  <property name="kdenlive:original.in">0</property>
  <property name="kdenlive:original.out">00:00:00.983</property>
  <property name="kdenlive:original.length">60</property>
  <property name="kdenlive:original.eof">pause</property>
  <property name="kdenlive:original.resource">video/Farmer/109.mp4</property>
  <property name="kdenlive:original.mlt_service">avformat-novalidate</property>
  <property name="kdenlive:original.meta.media.nb_streams">1</property>
  <property name="kdenlive:original.meta.media.0.stream.type">video</property>
  <property name="kdenlive:original.meta.media.0.stream.frame_rate">60</property>
  <property name="kdenlive:original.meta.media.0.stream.sample_aspect_ratio">0</property>
  <property name="kdenlive:original.meta.media.0.codec.width">1920</property>
  <property name="kdenlive:original.meta.media.0.codec.height">1080</property>
  <property name="kdenlive:original.meta.media.0.codec.rotate">0</property>
  <property name="kdenlive:original.meta.media.0.codec.pix_fmt">yuv420p</property>
  <property name="kdenlive:original.meta.media.0.codec.sample_aspect_ratio">0</property>
  <property name="kdenlive:original.meta.media.0.codec.colorspace">709</property>
  <property name="kdenlive:original.meta.media.0.codec.name">h264</property>
  <property name="kdenlive:original.meta.media.0.codec.long_name">H.264 / AVC / MPEG-4 AVC / MPEG-4 part 10</property>
  <property name="kdenlive:original.meta.media.0.codec.bit_rate">487504</property>
  <property name="kdenlive:original.meta.attr.0.stream.handler_name.markup">VideoHandler</property>
  <property name="kdenlive:original.meta.attr.0.stream.vendor_id.markup">[0][0][0][0]</property>
  <property name="kdenlive:original.meta.attr.0.stream.encoder.markup">Lavc60.3.100 libx264</property>
  <property name="kdenlive:original.meta.attr.major_brand.markup">isom</property>
  <property name="kdenlive:original.meta.attr.minor_version.markup">512</property>
  <property name="kdenlive:original.meta.attr.compatible_brands.markup">isomiso2avc1mp41</property>
  <property name="kdenlive:original.meta.attr.encoder.markup">Lavf60.3.100</property>
  <property name="kdenlive:original.meta.attr.comment.markup">Rendered with Manim Community v0.17.3</property>
  <property name="kdenlive:original.seekable">1</property>
  <property name="kdenlive:original.width">1920</property>
  <property name="kdenlive:original.height">1080</property>
  <property name="kdenlive:original.meta.media.sample_aspect_num">1</property>
  <property name="kdenlive:original.meta.media.sample_aspect_den">1</property>
  <property name="kdenlive:original.format">3</property>
  <property name="kdenlive:original.audio_index">-1</property>
  <property name="kdenlive:original.video_index">0</property>
  <property name="kdenlive:original.meta.media.frame_rate_num">60</property>
  <property name="kdenlive:original.meta.media.frame_rate_den">1</property>
  <property name="kdenlive:original.meta.media.colorspace">709</property>
  <property name="kdenlive:original.meta.media.color_trc">2</property>
  <property name="kdenlive:original.meta.media.has_b_frames">2</property>
  <property name="kdenlive:original.meta.media.width">1920</property>
  <property name="kdenlive:original.meta.media.height">1080</property>
  <property name="kdenlive:original.meta.media.color_range">mpeg</property>
  <property name="kdenlive:original.meta.media.top_field_first">0</property>
  <property name="kdenlive:original.meta.media.progressive">1</property>
  <property name="kdenlive:original.kdenlive:clip_type">2</property>
  <property name="kdenlive:original.kdenlive:folderid">16</property>
  <property name="kdenlive:original.kdenlive:id">28</property>
  <property name="kdenlive:original.mute_on_pause">0</property>
  <property name="kdenlive:original.kdenlive:file_size">62570</property>
  <property name="kdenlive:original.kdenlive:file_hash">8059986b7b1ae5c6ac3ab66b3d790119</property>
  <property name="kdenlive:original.backup">1</property>
  <property name="meta.media.nb_streams">1</property>
  <property name="meta.media.0.stream.type">video</property>
  <property name="meta.media.0.stream.frame_rate">60</property>
  <property name="meta.media.0.stream.sample_aspect_ratio">0</property>
  <property name="meta.media.0.codec.width">640</property>
  <property name="meta.media.0.codec.height">360</property>
  <property name="meta.media.0.codec.rotate">0</property>
  <property name="meta.media.0.codec.pix_fmt">yuvj420p</property>
  <property name="meta.media.0.codec.sample_aspect_ratio">0</property>
  <property name="meta.media.0.codec.colorspace">601</property>
  <property name="meta.media.0.codec.name">mjpeg</property>
  <property name="meta.media.0.codec.long_name">MJPEG (Motion JPEG)</property>
  <property name="meta.media.0.codec.bit_rate">0</property>
  <property name="meta.attr.0.stream.HANDLER_NAME.markup">VideoHandler</property>
  <property name="meta.attr.0.stream.VENDOR_ID.markup">[0][0][0][0]</property>
  <property name="meta.attr.0.stream.ENCODER.markup">Lavc60.3.100 mjpeg</property>
  <property name="meta.attr.0.stream.DURATION.markup">00:00:01.000000000</property>
  <property name="meta.attr.COMMENT.markup">Rendered with Manim Community v0.17.3</property>
  <property name="meta.attr.MAJOR_BRAND.markup">isom</property>
  <property name="meta.attr.MINOR_VERSION.markup">512</property>
  <property name="meta.attr.COMPATIBLE_BRANDS.markup">isomiso2avc1mp41</property>
  <property name="meta.attr.ENCODER.markup">Lavf60.3.100</property>
  <property name="meta.media.sample_aspect_num">1</property>
  <property name="meta.media.sample_aspect_den">1</property>
  <property name="meta.media.frame_rate_num">60</property>
  <property name="meta.media.frame_rate_den">1</property>
  <property name="meta.media.colorspace">601</property>
  <property name="meta.media.color_trc">2</property>
  <property name="meta.media.has_b_frames">0</property>
  <property name="meta.media.width">640</property>
  <property name="meta.media.height">360</property>
  <property name="meta.media.color_range">full</property>
  <property name="xml">was here</property>
  <property name="meta.media.top_field_first">0</property>
  <property name="meta.media.progressive">1</property>
  <property name="set.test_audio">1</property>
  <property name="set.test_image">0</property>
 </chain>
 <chain id="chain617" out="00:00:00.983">
  <property name="length">60</property>
  <property name="eof">pause</property>
  <property name="resource">/home/xiaoxiae/.cache/kdenlive/proxy/f87909099f892d1670dd762fd7efddac.mkv</property>
  <property name="mlt_service">avformat-novalidate</property>
  <property name="seekable">1</property>
  <property name="format">3</property>
  <property name="audio_index">-1</property>
  <property name="video_index">0</property>
  <property name="kdenlive:clipname">110.mp4</property>
  <property name="kdenlive:clip_type">2</property>
  <property name="kdenlive:folderid">16</property>
  <property name="kdenlive:id">30</property>
  <property name="mute_on_pause">0</property>
  <property name="kdenlive:file_size">71932</property>
  <property name="kdenlive:file_hash">f87909099f892d1670dd762fd7efddac</property>
  <property name="kdenlive:proxy">/home/xiaoxiae/.cache/kdenlive/proxy/f87909099f892d1670dd762fd7efddac.mkv</property>
  <property name="kdenlive:originalurl">video/Farmer/110.mp4</property>
  <property name="kdenlive:original.mlt_type">chain</property>
  <property name="kdenlive:original.in">0</property>
  <property name="kdenlive:original.out">00:00:00.983</property>
  <property name="kdenlive:original.length">60</property>
  <property name="kdenlive:original.eof">pause</property>
  <property name="kdenlive:original.resource">video/Farmer/110.mp4</property>
  <property name="kdenlive:original.mlt_service">avformat-novalidate</property>
  <property name="kdenlive:original.meta.media.nb_streams">1</property>
  <property name="kdenlive:original.meta.media.0.stream.type">video</property>
  <property name="kdenlive:original.meta.media.0.stream.frame_rate">60</property>
  <property name="kdenlive:original.meta.media.0.stream.sample_aspect_ratio">0</property>
  <property name="kdenlive:original.meta.media.0.codec.width">1920</property>
  <property name="kdenlive:original.meta.media.0.codec.height">1080</property>
  <property name="kdenlive:original.meta.media.0.codec.rotate">0</property>
  <property name="kdenlive:original.meta.media.0.codec.pix_fmt">yuv420p</property>
  <property name="kdenlive:original.meta.media.0.codec.sample_aspect_ratio">0</property>
  <property name="kdenlive:original.meta.media.0.codec.colorspace">709</property>
  <property name="kdenlive:original.meta.media.0.codec.name">h264</property>
  <property name="kdenlive:original.meta.media.0.codec.long_name">H.264 / AVC / MPEG-4 AVC / MPEG-4 part 10</property>
  <property name="kdenlive:original.meta.media.0.codec.bit_rate">562400</property>
  <property name="kdenlive:original.meta.attr.0.stream.handler_name.markup">VideoHandler</property>
  <property name="kdenlive:original.meta.attr.0.stream.vendor_id.markup">[0][0][0][0]</property>
  <property name="kdenlive:original.meta.attr.0.stream.encoder.markup">Lavc60.3.100 libx264</property>
  <property name="kdenlive:original.meta.attr.major_brand.markup">isom</property>
  <property name="kdenlive:original.meta.attr.minor_version.markup">512</property>
  <property name="kdenlive:original.meta.attr.compatible_brands.markup">isomiso2avc1mp41</property>
  <property name="kdenlive:original.meta.attr.encoder.markup">Lavf60.3.100</property>
  <property name="kdenlive:original.meta.attr.comment.markup">Rendered with Manim Community v0.17.3</property>
  <property name="kdenlive:original.seekable">1</property>
  <property name="kdenlive:original.width">1920</property>
  <property name="kdenlive:original.height">1080</property>
  <property name="kdenlive:original.meta.media.sample_aspect_num">1</property>
  <property name="kdenlive:original.meta.media.sample_aspect_den">1</property>
  <property name="kdenlive:original.format">3</property>
  <property name="kdenlive:original.audio_index">-1</property>
  <property name="kdenlive:original.video_index">0</property>
  <property name="kdenlive:original.meta.media.frame_rate_num">60</property>
  <property name="kdenlive:original.meta.media.frame_rate_den">1</property>
  <property name="kdenlive:original.meta.media.colorspace">709</property>
  <property name="kdenlive:original.meta.media.color_trc">2</property>
  <property name="kdenlive:original.meta.media.has_b_frames">2</property>
  <property name="kdenlive:original.meta.media.width">1920</property>
  <property name="kdenlive:original.meta.media.height">1080</property>
  <property name="kdenlive:original.meta.media.color_range">mpeg</property>
  <property name="kdenlive:original.meta.media.top_field_first">0</property>
  <property name="kdenlive:original.meta.media.progressive">1</property>
  <property name="kdenlive:original.kdenlive:clip_type">2</property>
  <property name="kdenlive:original.kdenlive:folderid">16</property>
  <property name="kdenlive:original.kdenlive:id">30</property>
  <property name="kdenlive:original.mute_on_pause">0</property>
  <property name="kdenlive:original.kdenlive:file_size">71932</property>
  <property name="kdenlive:original.kdenlive:file_hash">f87909099f892d1670dd762fd7efddac</property>
  <property name="kdenlive:original.backup">1</property>
  <property name="meta.media.nb_streams">1</property>
  <property name="meta.media.0.stream.type">video</property>
  <property name="meta.media.0.stream.frame_rate">60</property>
  <property name="meta.media.0.stream.sample_aspect_ratio">0</property>
  <property name="meta.media.0.codec.width">640</property>
  <property name="meta.media.0.codec.height">360</property>
  <property name="meta.media.0.codec.rotate">0</property>
  <property name="meta.media.0.codec.pix_fmt">yuvj420p</property>
  <property name="meta.media.0.codec.sample_aspect_ratio">0</property>
  <property name="meta.media.0.codec.colorspace">601</property>
  <property name="meta.media.0.codec.name">mjpeg</property>
  <property name="meta.media.0.codec.long_name">MJPEG (Motion JPEG)</property>
  <property name="meta.media.0.codec.bit_rate">0</property>
  <property name="meta.attr.0.stream.HANDLER_NAME.markup">VideoHandler</property>
  <property name="meta.attr.0.stream.VENDOR_ID.markup">[0][0][0][0]</property>
  <property name="meta.attr.0.stream.ENCODER.markup">Lavc60.3.100 mjpeg</property>
  <property name="meta.attr.0.stream.DURATION.markup">00:00:01.000000000</property>
  <property name="meta.attr.COMMENT.markup">Rendered with Manim Community v0.17.3</property>
  <property name="meta.attr.MAJOR_BRAND.markup">isom</property>
  <property name="meta.attr.MINOR_VERSION.markup">512</property>
  <property name="meta.attr.COMPATIBLE_BRANDS.markup">isomiso2avc1mp41</property>
  <property name="meta.attr.ENCODER.markup">Lavf60.3.100</property>
  <property name="meta.media.sample_aspect_num">1</property>
  <property name="meta.media.sample_aspect_den">1</property>
  <property name="meta.media.frame_rate_num">60</property>
  <property name="meta.media.frame_rate_den">1</property>
  <property name="meta.media.colorspace">601</property>
  <property name="meta.media.color_trc">2</property>
  <property name="meta.media.has_b_frames">0</property>
  <property name="meta.media.width">640</property>
  <property name="meta.media.height">360</property>
  <property name="meta.media.color_range">full</property>
  <property name="xml">was here</property>
  <property name="meta.media.top_field_first">0</property>
  <property name="meta.media.progressive">1</property>
  <property name="set.test_audio">1</property>
  <property name="set.test_image">0</property>
 </chain>
 <chain id="chain618" out="00:00:00.983">
  <property name="length">60</property>
  <property name="eof">pause</property>
  <property name="resource">/home/xiaoxiae/.cache/kdenlive/proxy/5017ebdfa256986e8938b44135408393.mkv</property>
  <property name="mlt_service">avformat-novalidate</property>
  <property name="seekable">1</property>
  <property name="format">3</property>
  <property name="audio_index">-1</property>
  <property name="video_index">0</property>
  <property name="kdenlive:clipname">111.mp4</property>
  <property name="kdenlive:clip_type">2</property>
  <property name="kdenlive:folderid">16</property>
  <property name="kdenlive:id">31</property>
  <property name="mute_on_pause">0</property>
  <property name="kdenlive:file_size">70833</property>
  <property name="kdenlive:file_hash">5017ebdfa256986e8938b44135408393</property>
  <property name="kdenlive:proxy">/home/xiaoxiae/.cache/kdenlive/proxy/5017ebdfa256986e8938b44135408393.mkv</property>
  <property name="kdenlive:originalurl">video/Farmer/111.mp4</property>
  <property name="kdenlive:original.mlt_type">chain</property>
  <property name="kdenlive:original.in">0</property>
  <property name="kdenlive:original.out">00:00:00.983</property>
  <property name="kdenlive:original.length">60</property>
  <property name="kdenlive:original.eof">pause</property>
  <property name="kdenlive:original.resource">video/Farmer/111.mp4</property>
  <property name="kdenlive:original.mlt_service">avformat-novalidate</property>
  <property name="kdenlive:original.meta.media.nb_streams">1</property>
  <property name="kdenlive:original.meta.media.0.stream.type">video</property>
  <property name="kdenlive:original.meta.media.0.stream.frame_rate">60</property>
  <property name="kdenlive:original.meta.media.0.stream.sample_aspect_ratio">0</property>
  <property name="kdenlive:original.meta.media.0.codec.width">1920</property>
  <property name="kdenlive:original.meta.media.0.codec.height">1080</property>
  <property name="kdenlive:original.meta.media.0.codec.rotate">0</property>
  <property name="kdenlive:original.meta.media.0.codec.pix_fmt">yuv420p</property>
  <property name="kdenlive:original.meta.media.0.codec.sample_aspect_ratio">0</property>
  <property name="kdenlive:original.meta.media.0.codec.colorspace">709</property>
  <property name="kdenlive:original.meta.media.0.codec.name">h264</property>
  <property name="kdenlive:original.meta.media.0.codec.long_name">H.264 / AVC / MPEG-4 AVC / MPEG-4 part 10</property>
  <property name="kdenlive:original.meta.media.0.codec.bit_rate">553608</property>
  <property name="kdenlive:original.meta.attr.0.stream.handler_name.markup">VideoHandler</property>
  <property name="kdenlive:original.meta.attr.0.stream.vendor_id.markup">[0][0][0][0]</property>
  <property name="kdenlive:original.meta.attr.0.stream.encoder.markup">Lavc60.3.100 libx264</property>
  <property name="kdenlive:original.meta.attr.major_brand.markup">isom</property>
  <property name="kdenlive:original.meta.attr.minor_version.markup">512</property>
  <property name="kdenlive:original.meta.attr.compatible_brands.markup">isomiso2avc1mp41</property>
  <property name="kdenlive:original.meta.attr.encoder.markup">Lavf60.3.100</property>
  <property name="kdenlive:original.meta.attr.comment.markup">Rendered with Manim Community v0.17.3</property>
  <property name="kdenlive:original.seekable">1</property>
  <property name="kdenlive:original.width">1920</property>
  <property name="kdenlive:original.height">1080</property>
  <property name="kdenlive:original.meta.media.sample_aspect_num">1</property>
  <property name="kdenlive:original.meta.media.sample_aspect_den">1</property>
  <property name="kdenlive:original.format">3</property>
  <property name="kdenlive:original.audio_index">-1</property>
  <property name="kdenlive:original.video_index">0</property>
  <property name="kdenlive:original.meta.media.frame_rate_num">60</property>
  <property name="kdenlive:original.meta.media.frame_rate_den">1</property>
  <property name="kdenlive:original.meta.media.colorspace">709</property>
  <property name="kdenlive:original.meta.media.color_trc">2</property>
  <property name="kdenlive:original.meta.media.has_b_frames">2</property>
  <property name="kdenlive:original.meta.media.width">1920</property>
  <property name="kdenlive:original.meta.media.height">1080</property>
  <property name="kdenlive:original.meta.media.color_range">mpeg</property>
  <property name="kdenlive:original.meta.media.top_field_first">0</property>
  <property name="kdenlive:original.meta.media.progressive">1</property>
  <property name="kdenlive:original.kdenlive:clip_type">2</property>
  <property name="kdenlive:original.kdenlive:folderid">16</property>
  <property name="kdenlive:original.kdenlive:id">31</property>
  <property name="kdenlive:original.mute_on_pause">0</property>
  <property name="kdenlive:original.kdenlive:file_size">70833</property>
  <property name="kdenlive:original.kdenlive:file_hash">5017ebdfa256986e8938b44135408393</property>
  <property name="kdenlive:original.backup">1</property>
  <property name="meta.media.nb_streams">1</property>
  <property name="meta.media.0.stream.type">video</property>
  <property name="meta.media.0.stream.frame_rate">60</property>
  <property name="meta.media.0.stream.sample_aspect_ratio">0</property>
  <property name="meta.media.0.codec.width">640</property>
  <property name="meta.media.0.codec.height">360</property>
  <property name="meta.media.0.codec.rotate">0</property>
  <property name="meta.media.0.codec.pix_fmt">yuvj420p</property>
  <property name="meta.media.0.codec.sample_aspect_ratio">0</property>
  <property name="meta.media.0.codec.colorspace">601</property>
  <property name="meta.media.0.codec.name">mjpeg</property>
  <property name="meta.media.0.codec.long_name">MJPEG (Motion JPEG)</property>
  <property name="meta.media.0.codec.bit_rate">0</property>
  <property name="meta.attr.0.stream.HANDLER_NAME.markup">VideoHandler</property>
  <property name="meta.attr.0.stream.VENDOR_ID.markup">[0][0][0][0]</property>
  <property name="meta.attr.0.stream.ENCODER.markup">Lavc60.3.100 mjpeg</property>
  <property name="meta.attr.0.stream.DURATION.markup">00:00:01.000000000</property>
  <property name="meta.attr.COMMENT.markup">Rendered with Manim Community v0.17.3</property>
  <property name="meta.attr.MAJOR_BRAND.markup">isom</property>
  <property name="meta.attr.MINOR_VERSION.markup">512</property>
  <property name="meta.attr.COMPATIBLE_BRANDS.markup">isomiso2avc1mp41</property>
  <property name="meta.attr.ENCODER.markup">Lavf60.3.100</property>
  <property name="meta.media.sample_aspect_num">1</property>
  <property name="meta.media.sample_aspect_den">1</property>
  <property name="meta.media.frame_rate_num">60</property>
  <property name="meta.media.frame_rate_den">1</property>
  <property name="meta.media.colorspace">601</property>
  <property name="meta.media.color_trc">2</property>
  <property name="meta.media.has_b_frames">0</property>
  <property name="meta.media.width">640</property>
  <property name="meta.media.height">360</property>
  <property name="meta.media.color_range">full</property>
  <property name="xml">was here</property>
  <property name="meta.media.top_field_first">0</property>
  <property name="meta.media.progressive">1</property>
  <property name="set.test_audio">1</property>
  <property name="set.test_image">0</property>
 </chain>
 <chain id="chain619" out="00:00:00.983">
  <property name="length">60</property>
  <property name="eof">pause</property>
  <property name="resource">/home/xiaoxiae/.cache/kdenlive/proxy/7b8f60271a35bb53a0b415397e112095.mkv</property>
  <property name="mlt_service">avformat-novalidate</property>
  <property name="seekable">1</property>
  <property name="format">3</property>
  <property name="audio_index">-1</property>
  <property name="video_index">0</property>
  <property name="kdenlive:clipname">112.mp4</property>
  <property name="kdenlive:clip_type">2</property>
  <property name="kdenlive:folderid">16</property>
  <property name="kdenlive:id">32</property>
  <property name="mute_on_pause">0</property>
  <property name="kdenlive:file_size">83607</property>
  <property name="kdenlive:file_hash">7b8f60271a35bb53a0b415397e112095</property>
  <property name="kdenlive:proxy">/home/xiaoxiae/.cache/kdenlive/proxy/7b8f60271a35bb53a0b415397e112095.mkv</property>
  <property name="kdenlive:originalurl">video/Farmer/112.mp4</property>
  <property name="kdenlive:original.mlt_type">chain</property>
  <property name="kdenlive:original.in">0</property>
  <property name="kdenlive:original.out">00:00:00.983</property>
  <property name="kdenlive:original.length">60</property>
  <property name="kdenlive:original.eof">pause</property>
  <property name="kdenlive:original.resource">video/Farmer/112.mp4</property>
  <property name="kdenlive:original.mlt_service">avformat-novalidate</property>
  <property name="kdenlive:original.meta.media.nb_streams">1</property>
  <property name="kdenlive:original.meta.media.0.stream.type">video</property>
  <property name="kdenlive:original.meta.media.0.stream.frame_rate">60</property>
  <property name="kdenlive:original.meta.media.0.stream.sample_aspect_ratio">0</property>
  <property name="kdenlive:original.meta.media.0.codec.width">1920</property>
  <property name="kdenlive:original.meta.media.0.codec.height">1080</property>
  <property name="kdenlive:original.meta.media.0.codec.rotate">0</property>
  <property name="kdenlive:original.meta.media.0.codec.pix_fmt">yuv420p</property>
  <property name="kdenlive:original.meta.media.0.codec.sample_aspect_ratio">0</property>
  <property name="kdenlive:original.meta.media.0.codec.colorspace">709</property>
  <property name="kdenlive:original.meta.media.0.codec.name">h264</property>
  <property name="kdenlive:original.meta.media.0.codec.long_name">H.264 / AVC / MPEG-4 AVC / MPEG-4 part 10</property>
  <property name="kdenlive:original.meta.media.0.codec.bit_rate">655800</property>
  <property name="kdenlive:original.meta.attr.0.stream.handler_name.markup">VideoHandler</property>
  <property name="kdenlive:original.meta.attr.0.stream.vendor_id.markup">[0][0][0][0]</property>
  <property name="kdenlive:original.meta.attr.0.stream.encoder.markup">Lavc60.3.100 libx264</property>
  <property name="kdenlive:original.meta.attr.major_brand.markup">isom</property>
  <property name="kdenlive:original.meta.attr.minor_version.markup">512</property>
  <property name="kdenlive:original.meta.attr.compatible_brands.markup">isomiso2avc1mp41</property>
  <property name="kdenlive:original.meta.attr.encoder.markup">Lavf60.3.100</property>
  <property name="kdenlive:original.meta.attr.comment.markup">Rendered with Manim Community v0.17.3</property>
  <property name="kdenlive:original.seekable">1</property>
  <property name="kdenlive:original.width">1920</property>
  <property name="kdenlive:original.height">1080</property>
  <property name="kdenlive:original.meta.media.sample_aspect_num">1</property>
  <property name="kdenlive:original.meta.media.sample_aspect_den">1</property>
  <property name="kdenlive:original.format">3</property>
  <property name="kdenlive:original.audio_index">-1</property>
  <property name="kdenlive:original.video_index">0</property>
  <property name="kdenlive:original.meta.media.frame_rate_num">60</property>
  <property name="kdenlive:original.meta.media.frame_rate_den">1</property>
  <property name="kdenlive:original.meta.media.colorspace">709</property>
  <property name="kdenlive:original.meta.media.color_trc">2</property>
  <property name="kdenlive:original.meta.media.has_b_frames">2</property>
  <property name="kdenlive:original.meta.media.width">1920</property>
  <property name="kdenlive:original.meta.media.height">1080</property>
  <property name="kdenlive:original.meta.media.color_range">mpeg</property>
  <property name="kdenlive:original.meta.media.top_field_first">0</property>
  <property name="kdenlive:original.meta.media.progressive">1</property>
  <property name="kdenlive:original.kdenlive:clip_type">2</property>
  <property name="kdenlive:original.kdenlive:folderid">16</property>
  <property name="kdenlive:original.kdenlive:id">32</property>
  <property name="kdenlive:original.mute_on_pause">0</property>
  <property name="kdenlive:original.kdenlive:file_size">83607</property>
  <property name="kdenlive:original.kdenlive:file_hash">7b8f60271a35bb53a0b415397e112095</property>
  <property name="kdenlive:original.backup">1</property>
  <property name="meta.media.nb_streams">1</property>
  <property name="meta.media.0.stream.type">video</property>
  <property name="meta.media.0.stream.frame_rate">60</property>
  <property name="meta.media.0.stream.sample_aspect_ratio">0</property>
  <property name="meta.media.0.codec.width">640</property>
  <property name="meta.media.0.codec.height">360</property>
  <property name="meta.media.0.codec.rotate">0</property>
  <property name="meta.media.0.codec.pix_fmt">yuvj420p</property>
  <property name="meta.media.0.codec.sample_aspect_ratio">0</property>
  <property name="meta.media.0.codec.colorspace">601</property>
  <property name="meta.media.0.codec.name">mjpeg</property>
  <property name="meta.media.0.codec.long_name">MJPEG (Motion JPEG)</property>
  <property name="meta.media.0.codec.bit_rate">0</property>
  <property name="meta.attr.0.stream.HANDLER_NAME.markup">VideoHandler</property>
  <property name="meta.attr.0.stream.VENDOR_ID.markup">[0][0][0][0]</property>
  <property name="meta.attr.0.stream.ENCODER.markup">Lavc60.3.100 mjpeg</property>
  <property name="meta.attr.0.stream.DURATION.markup">00:00:01.000000000</property>
  <property name="meta.attr.COMMENT.markup">Rendered with Manim Community v0.17.3</property>
  <property name="meta.attr.MAJOR_BRAND.markup">isom</property>
  <property name="meta.attr.MINOR_VERSION.markup">512</property>
  <property name="meta.attr.COMPATIBLE_BRANDS.markup">isomiso2avc1mp41</property>
  <property name="meta.attr.ENCODER.markup">Lavf60.3.100</property>
  <property name="meta.media.sample_aspect_num">1</property>
  <property name="meta.media.sample_aspect_den">1</property>
  <property name="meta.media.frame_rate_num">60</property>
  <property name="meta.media.frame_rate_den">1</property>
  <property name="meta.media.colorspace">601</property>
  <property name="meta.media.color_trc">2</property>
  <property name="meta.media.has_b_frames">0</property>
  <property name="meta.media.width">640</property>
  <property name="meta.media.height">360</property>
  <property name="meta.media.color_range">full</property>
  <property name="xml">was here</property>
  <property name="meta.media.top_field_first">0</property>
  <property name="meta.media.progressive">1</property>
  <property name="set.test_audio">1</property>
  <property name="set.test_image">0</property>
 </chain>
 <chain id="chain620" out="00:00:00.983">
  <property name="length">60</property>
  <property name="eof">pause</property>
  <property name="resource">/home/xiaoxiae/.cache/kdenlive/proxy/da53afb7764ebcbf8ed090ec06cc2fce.mkv</property>
  <property name="mlt_service">avformat-novalidate</property>
  <property name="seekable">1</property>
  <property name="format">3</property>
  <property name="audio_index">-1</property>
  <property name="video_index">0</property>
  <property name="kdenlive:clipname">113.mp4</property>
  <property name="kdenlive:clip_type">2</property>
  <property name="kdenlive:folderid">16</property>
  <property name="kdenlive:id">33</property>
  <property name="mute_on_pause">0</property>
  <property name="kdenlive:file_size">64845</property>
  <property name="kdenlive:file_hash">da53afb7764ebcbf8ed090ec06cc2fce</property>
  <property name="kdenlive:proxy">/home/xiaoxiae/.cache/kdenlive/proxy/da53afb7764ebcbf8ed090ec06cc2fce.mkv</property>
  <property name="kdenlive:originalurl">video/Farmer/113.mp4</property>
  <property name="kdenlive:original.mlt_type">chain</property>
  <property name="kdenlive:original.in">0</property>
  <property name="kdenlive:original.out">00:00:00.983</property>
  <property name="kdenlive:original.length">60</property>
  <property name="kdenlive:original.eof">pause</property>
  <property name="kdenlive:original.resource">video/Farmer/113.mp4</property>
  <property name="kdenlive:original.mlt_service">avformat-novalidate</property>
  <property name="kdenlive:original.meta.media.nb_streams">1</property>
  <property name="kdenlive:original.meta.media.0.stream.type">video</property>
  <property name="kdenlive:original.meta.media.0.stream.frame_rate">60</property>
  <property name="kdenlive:original.meta.media.0.stream.sample_aspect_ratio">0</property>
  <property name="kdenlive:original.meta.media.0.codec.width">1920</property>
  <property name="kdenlive:original.meta.media.0.codec.height">1080</property>
  <property name="kdenlive:original.meta.media.0.codec.rotate">0</property>
  <property name="kdenlive:original.meta.media.0.codec.pix_fmt">yuv420p</property>
  <property name="kdenlive:original.meta.media.0.codec.sample_aspect_ratio">0</property>
  <property name="kdenlive:original.meta.media.0.codec.colorspace">709</property>
  <property name="kdenlive:original.meta.media.0.codec.name">h264</property>
  <property name="kdenlive:original.meta.media.0.codec.long_name">H.264 / AVC / MPEG-4 AVC / MPEG-4 part 10</property>
  <property name="kdenlive:original.meta.media.0.codec.bit_rate">505704</property>
  <property name="kdenlive:original.meta.attr.0.stream.handler_name.markup">VideoHandler</property>
  <property name="kdenlive:original.meta.attr.0.stream.vendor_id.markup">[0][0][0][0]</property>
  <property name="kdenlive:original.meta.attr.0.stream.encoder.markup">Lavc60.3.100 libx264</property>
  <property name="kdenlive:original.meta.attr.major_brand.markup">isom</property>
  <property name="kdenlive:original.meta.attr.minor_version.markup">512</property>
  <property name="kdenlive:original.meta.attr.compatible_brands.markup">isomiso2avc1mp41</property>
  <property name="kdenlive:original.meta.attr.encoder.markup">Lavf60.3.100</property>
  <property name="kdenlive:original.meta.attr.comment.markup">Rendered with Manim Community v0.17.3</property>
  <property name="kdenlive:original.seekable">1</property>
  <property name="kdenlive:original.width">1920</property>
  <property name="kdenlive:original.height">1080</property>
  <property name="kdenlive:original.meta.media.sample_aspect_num">1</property>
  <property name="kdenlive:original.meta.media.sample_aspect_den">1</property>
  <property name="kdenlive:original.format">3</property>
  <property name="kdenlive:original.audio_index">-1</property>
  <property name="kdenlive:original.video_index">0</property>
  <property name="kdenlive:original.meta.media.frame_rate_num">60</property>
  <property name="kdenlive:original.meta.media.frame_rate_den">1</property>
  <property name="kdenlive:original.meta.media.colorspace">709</property>
  <property name="kdenlive:original.meta.media.color_trc">2</property>
  <property name="kdenlive:original.meta.media.has_b_frames">2</property>
  <property name="kdenlive:original.meta.media.width">1920</property>
  <property name="kdenlive:original.meta.media.height">1080</property>
  <property name="kdenlive:original.meta.media.color_range">mpeg</property>
  <property name="kdenlive:original.meta.media.top_field_first">0</property>
  <property name="kdenlive:original.meta.media.progressive">1</property>
  <property name="kdenlive:original.kdenlive:clip_type">2</property>
  <property name="kdenlive:original.kdenlive:folderid">16</property>
  <property name="kdenlive:original.kdenlive:id">33</property>
  <property name="kdenlive:original.mute_on_pause">0</property>
  <property name="kdenlive:original.kdenlive:file_size">64845</property>
  <property name="kdenlive:original.kdenlive:file_hash">da53afb7764ebcbf8ed090ec06cc2fce</property>
  <property name="kdenlive:original.backup">1</property>
  <property name="meta.media.nb_streams">1</property>
  <property name="meta.media.0.stream.type">video</property>
  <property name="meta.media.0.stream.frame_rate">60</property>
  <property name="meta.media.0.stream.sample_aspect_ratio">0</property>
  <property name="meta.media.0.codec.width">640</property>
  <property name="meta.media.0.codec.height">360</property>
  <property name="meta.media.0.codec.rotate">0</property>
  <property name="meta.media.0.codec.pix_fmt">yuvj420p</property>
  <property name="meta.media.0.codec.sample_aspect_ratio">0</property>
  <property name="meta.media.0.codec.colorspace">601</property>
  <property name="meta.media.0.codec.name">mjpeg</property>
  <property name="meta.media.0.codec.long_name">MJPEG (Motion JPEG)</property>
  <property name="meta.media.0.codec.bit_rate">0</property>
  <property name="meta.attr.0.stream.HANDLER_NAME.markup">VideoHandler</property>
  <property name="meta.attr.0.stream.VENDOR_ID.markup">[0][0][0][0]</property>
  <property name="meta.attr.0.stream.ENCODER.markup">Lavc60.3.100 mjpeg</property>
  <property name="meta.attr.0.stream.DURATION.markup">00:00:01.000000000</property>
  <property name="meta.attr.COMMENT.markup">Rendered with Manim Community v0.17.3</property>
  <property name="meta.attr.MAJOR_BRAND.markup">isom</property>
  <property name="meta.attr.MINOR_VERSION.markup">512</property>
  <property name="meta.attr.COMPATIBLE_BRANDS.markup">isomiso2avc1mp41</property>
  <property name="meta.attr.ENCODER.markup">Lavf60.3.100</property>
  <property name="meta.media.sample_aspect_num">1</property>
  <property name="meta.media.sample_aspect_den">1</property>
  <property name="meta.media.frame_rate_num">60</property>
  <property name="meta.media.frame_rate_den">1</property>
  <property name="meta.media.colorspace">601</property>
  <property name="meta.media.color_trc">2</property>
  <property name="meta.media.has_b_frames">0</property>
  <property name="meta.media.width">640</property>
  <property name="meta.media.height">360</property>
  <property name="meta.media.color_range">full</property>
  <property name="xml">was here</property>
  <property name="meta.media.top_field_first">0</property>
  <property name="meta.media.progressive">1</property>
  <property name="set.test_audio">1</property>
  <property name="set.test_image">0</property>
 </chain>
 <chain id="chain621" out="00:00:00.983">
  <property name="length">60</property>
  <property name="eof">pause</property>
  <property name="resource">/home/xiaoxiae/.cache/kdenlive/proxy/4e8b89a822d29d4ab46adeb16c978261.mkv</property>
  <property name="mlt_service">avformat-novalidate</property>
  <property name="seekable">1</property>
  <property name="format">3</property>
  <property name="audio_index">-1</property>
  <property name="video_index">0</property>
  <property name="kdenlive:clipname">114.mp4</property>
  <property name="kdenlive:clip_type">2</property>
  <property name="kdenlive:folderid">16</property>
  <property name="kdenlive:id">34</property>
  <property name="mute_on_pause">0</property>
  <property name="kdenlive:file_size">72343</property>
  <property name="kdenlive:file_hash">4e8b89a822d29d4ab46adeb16c978261</property>
  <property name="kdenlive:proxy">/home/xiaoxiae/.cache/kdenlive/proxy/4e8b89a822d29d4ab46adeb16c978261.mkv</property>
  <property name="kdenlive:originalurl">video/Farmer/114.mp4</property>
  <property name="kdenlive:original.mlt_type">chain</property>
  <property name="kdenlive:original.in">0</property>
  <property name="kdenlive:original.out">00:00:00.983</property>
  <property name="kdenlive:original.length">60</property>
  <property name="kdenlive:original.eof">pause</property>
  <property name="kdenlive:original.resource">video/Farmer/114.mp4</property>
  <property name="kdenlive:original.mlt_service">avformat-novalidate</property>
  <property name="kdenlive:original.meta.media.nb_streams">1</property>
  <property name="kdenlive:original.meta.media.0.stream.type">video</property>
  <property name="kdenlive:original.meta.media.0.stream.frame_rate">60</property>
  <property name="kdenlive:original.meta.media.0.stream.sample_aspect_ratio">0</property>
  <property name="kdenlive:original.meta.media.0.codec.width">1920</property>
  <property name="kdenlive:original.meta.media.0.codec.height">1080</property>
  <property name="kdenlive:original.meta.media.0.codec.rotate">0</property>
  <property name="kdenlive:original.meta.media.0.codec.pix_fmt">yuv420p</property>
  <property name="kdenlive:original.meta.media.0.codec.sample_aspect_ratio">0</property>
  <property name="kdenlive:original.meta.media.0.codec.colorspace">709</property>
  <property name="kdenlive:original.meta.media.0.codec.name">h264</property>
  <property name="kdenlive:original.meta.media.0.codec.long_name">H.264 / AVC / MPEG-4 AVC / MPEG-4 part 10</property>
  <property name="kdenlive:original.meta.media.0.codec.bit_rate">565752</property>
  <property name="kdenlive:original.meta.attr.0.stream.handler_name.markup">VideoHandler</property>
  <property name="kdenlive:original.meta.attr.0.stream.vendor_id.markup">[0][0][0][0]</property>
  <property name="kdenlive:original.meta.attr.0.stream.encoder.markup">Lavc60.3.100 libx264</property>
  <property name="kdenlive:original.meta.attr.major_brand.markup">isom</property>
  <property name="kdenlive:original.meta.attr.minor_version.markup">512</property>
  <property name="kdenlive:original.meta.attr.compatible_brands.markup">isomiso2avc1mp41</property>
  <property name="kdenlive:original.meta.attr.encoder.markup">Lavf60.3.100</property>
  <property name="kdenlive:original.meta.attr.comment.markup">Rendered with Manim Community v0.17.3</property>
  <property name="kdenlive:original.seekable">1</property>
  <property name="kdenlive:original.width">1920</property>
  <property name="kdenlive:original.height">1080</property>
  <property name="kdenlive:original.meta.media.sample_aspect_num">1</property>
  <property name="kdenlive:original.meta.media.sample_aspect_den">1</property>
  <property name="kdenlive:original.format">3</property>
  <property name="kdenlive:original.audio_index">-1</property>
  <property name="kdenlive:original.video_index">0</property>
  <property name="kdenlive:original.meta.media.frame_rate_num">60</property>
  <property name="kdenlive:original.meta.media.frame_rate_den">1</property>
  <property name="kdenlive:original.meta.media.colorspace">709</property>
  <property name="kdenlive:original.meta.media.color_trc">2</property>
  <property name="kdenlive:original.meta.media.has_b_frames">2</property>
  <property name="kdenlive:original.meta.media.width">1920</property>
  <property name="kdenlive:original.meta.media.height">1080</property>
  <property name="kdenlive:original.meta.media.color_range">mpeg</property>
  <property name="kdenlive:original.meta.media.top_field_first">0</property>
  <property name="kdenlive:original.meta.media.progressive">1</property>
  <property name="kdenlive:original.kdenlive:clip_type">2</property>
  <property name="kdenlive:original.kdenlive:folderid">16</property>
  <property name="kdenlive:original.kdenlive:id">34</property>
  <property name="kdenlive:original.mute_on_pause">0</property>
  <property name="kdenlive:original.kdenlive:file_size">72343</property>
  <property name="kdenlive:original.kdenlive:file_hash">4e8b89a822d29d4ab46adeb16c978261</property>
  <property name="kdenlive:original.backup">1</property>
  <property name="meta.media.nb_streams">1</property>
  <property name="meta.media.0.stream.type">video</property>
  <property name="meta.media.0.stream.frame_rate">60</property>
  <property name="meta.media.0.stream.sample_aspect_ratio">0</property>
  <property name="meta.media.0.codec.width">640</property>
  <property name="meta.media.0.codec.height">360</property>
  <property name="meta.media.0.codec.rotate">0</property>
  <property name="meta.media.0.codec.pix_fmt">yuvj420p</property>
  <property name="meta.media.0.codec.sample_aspect_ratio">0</property>
  <property name="meta.media.0.codec.colorspace">601</property>
  <property name="meta.media.0.codec.name">mjpeg</property>
  <property name="meta.media.0.codec.long_name">MJPEG (Motion JPEG)</property>
  <property name="meta.media.0.codec.bit_rate">0</property>
  <property name="meta.attr.0.stream.HANDLER_NAME.markup">VideoHandler</property>
  <property name="meta.attr.0.stream.VENDOR_ID.markup">[0][0][0][0]</property>
  <property name="meta.attr.0.stream.ENCODER.markup">Lavc60.3.100 mjpeg</property>
  <property name="meta.attr.0.stream.DURATION.markup">00:00:01.000000000</property>
  <property name="meta.attr.COMMENT.markup">Rendered with Manim Community v0.17.3</property>
  <property name="meta.attr.MAJOR_BRAND.markup">isom</property>
  <property name="meta.attr.MINOR_VERSION.markup">512</property>
  <property name="meta.attr.COMPATIBLE_BRANDS.markup">isomiso2avc1mp41</property>
  <property name="meta.attr.ENCODER.markup">Lavf60.3.100</property>
  <property name="meta.media.sample_aspect_num">1</property>
  <property name="meta.media.sample_aspect_den">1</property>
  <property name="meta.media.frame_rate_num">60</property>
  <property name="meta.media.frame_rate_den">1</property>
  <property name="meta.media.colorspace">601</property>
  <property name="meta.media.color_trc">2</property>
  <property name="meta.media.has_b_frames">0</property>
  <property name="meta.media.width">640</property>
  <property name="meta.media.height">360</property>
  <property name="meta.media.color_range">full</property>
  <property name="xml">was here</property>
  <property name="meta.media.top_field_first">0</property>
  <property name="meta.media.progressive">1</property>
  <property name="set.test_audio">1</property>
  <property name="set.test_image">0</property>
 </chain>
 <chain id="chain622" out="00:00:00.983">
  <property name="length">60</property>
  <property name="eof">pause</property>
  <property name="resource">/home/xiaoxiae/.cache/kdenlive/proxy/e5c1d76654ad595a93b891fb15daa95a.mkv</property>
  <property name="mlt_service">avformat-novalidate</property>
  <property name="seekable">1</property>
  <property name="format">3</property>
  <property name="audio_index">-1</property>
  <property name="video_index">0</property>
  <property name="kdenlive:clipname">115.mp4</property>
  <property name="kdenlive:clip_type">2</property>
  <property name="kdenlive:folderid">16</property>
  <property name="kdenlive:id">35</property>
  <property name="mute_on_pause">0</property>
  <property name="kdenlive:file_size">63595</property>
  <property name="kdenlive:file_hash">e5c1d76654ad595a93b891fb15daa95a</property>
  <property name="kdenlive:proxy">/home/xiaoxiae/.cache/kdenlive/proxy/e5c1d76654ad595a93b891fb15daa95a.mkv</property>
  <property name="kdenlive:originalurl">video/Farmer/115.mp4</property>
  <property name="kdenlive:original.mlt_type">chain</property>
  <property name="kdenlive:original.in">0</property>
  <property name="kdenlive:original.out">00:00:00.983</property>
  <property name="kdenlive:original.length">60</property>
  <property name="kdenlive:original.eof">pause</property>
  <property name="kdenlive:original.resource">video/Farmer/115.mp4</property>
  <property name="kdenlive:original.mlt_service">avformat-novalidate</property>
  <property name="kdenlive:original.meta.media.nb_streams">1</property>
  <property name="kdenlive:original.meta.media.0.stream.type">video</property>
  <property name="kdenlive:original.meta.media.0.stream.frame_rate">60</property>
  <property name="kdenlive:original.meta.media.0.stream.sample_aspect_ratio">0</property>
  <property name="kdenlive:original.meta.media.0.codec.width">1920</property>
  <property name="kdenlive:original.meta.media.0.codec.height">1080</property>
  <property name="kdenlive:original.meta.media.0.codec.rotate">0</property>
  <property name="kdenlive:original.meta.media.0.codec.pix_fmt">yuv420p</property>
  <property name="kdenlive:original.meta.media.0.codec.sample_aspect_ratio">0</property>
  <property name="kdenlive:original.meta.media.0.codec.colorspace">709</property>
  <property name="kdenlive:original.meta.media.0.codec.name">h264</property>
  <property name="kdenlive:original.meta.media.0.codec.long_name">H.264 / AVC / MPEG-4 AVC / MPEG-4 part 10</property>
  <property name="kdenlive:original.meta.media.0.codec.bit_rate">495704</property>
  <property name="kdenlive:original.meta.attr.0.stream.handler_name.markup">VideoHandler</property>
  <property name="kdenlive:original.meta.attr.0.stream.vendor_id.markup">[0][0][0][0]</property>
  <property name="kdenlive:original.meta.attr.0.stream.encoder.markup">Lavc60.3.100 libx264</property>
  <property name="kdenlive:original.meta.attr.major_brand.markup">isom</property>
  <property name="kdenlive:original.meta.attr.minor_version.markup">512</property>
  <property name="kdenlive:original.meta.attr.compatible_brands.markup">isomiso2avc1mp41</property>
  <property name="kdenlive:original.meta.attr.encoder.markup">Lavf60.3.100</property>
  <property name="kdenlive:original.meta.attr.comment.markup">Rendered with Manim Community v0.17.3</property>
  <property name="kdenlive:original.seekable">1</property>
  <property name="kdenlive:original.width">1920</property>
  <property name="kdenlive:original.height">1080</property>
  <property name="kdenlive:original.meta.media.sample_aspect_num">1</property>
  <property name="kdenlive:original.meta.media.sample_aspect_den">1</property>
  <property name="kdenlive:original.format">3</property>
  <property name="kdenlive:original.audio_index">-1</property>
  <property name="kdenlive:original.video_index">0</property>
  <property name="kdenlive:original.meta.media.frame_rate_num">60</property>
  <property name="kdenlive:original.meta.media.frame_rate_den">1</property>
  <property name="kdenlive:original.meta.media.colorspace">709</property>
  <property name="kdenlive:original.meta.media.color_trc">2</property>
  <property name="kdenlive:original.meta.media.has_b_frames">2</property>
  <property name="kdenlive:original.meta.media.width">1920</property>
  <property name="kdenlive:original.meta.media.height">1080</property>
  <property name="kdenlive:original.meta.media.color_range">mpeg</property>
  <property name="kdenlive:original.meta.media.top_field_first">0</property>
  <property name="kdenlive:original.meta.media.progressive">1</property>
  <property name="kdenlive:original.kdenlive:clip_type">2</property>
  <property name="kdenlive:original.kdenlive:folderid">16</property>
  <property name="kdenlive:original.kdenlive:id">35</property>
  <property name="kdenlive:original.mute_on_pause">0</property>
  <property name="kdenlive:original.kdenlive:file_size">63595</property>
  <property name="kdenlive:original.kdenlive:file_hash">e5c1d76654ad595a93b891fb15daa95a</property>
  <property name="kdenlive:original.backup">1</property>
  <property name="meta.media.nb_streams">1</property>
  <property name="meta.media.0.stream.type">video</property>
  <property name="meta.media.0.stream.frame_rate">60</property>
  <property name="meta.media.0.stream.sample_aspect_ratio">0</property>
  <property name="meta.media.0.codec.width">640</property>
  <property name="meta.media.0.codec.height">360</property>
  <property name="meta.media.0.codec.rotate">0</property>
  <property name="meta.media.0.codec.pix_fmt">yuvj420p</property>
  <property name="meta.media.0.codec.sample_aspect_ratio">0</property>
  <property name="meta.media.0.codec.colorspace">601</property>
  <property name="meta.media.0.codec.name">mjpeg</property>
  <property name="meta.media.0.codec.long_name">MJPEG (Motion JPEG)</property>
  <property name="meta.media.0.codec.bit_rate">0</property>
  <property name="meta.attr.0.stream.HANDLER_NAME.markup">VideoHandler</property>
  <property name="meta.attr.0.stream.VENDOR_ID.markup">[0][0][0][0]</property>
  <property name="meta.attr.0.stream.ENCODER.markup">Lavc60.3.100 mjpeg</property>
  <property name="meta.attr.0.stream.DURATION.markup">00:00:01.000000000</property>
  <property name="meta.attr.COMMENT.markup">Rendered with Manim Community v0.17.3</property>
  <property name="meta.attr.MAJOR_BRAND.markup">isom</property>
  <property name="meta.attr.MINOR_VERSION.markup">512</property>
  <property name="meta.attr.COMPATIBLE_BRANDS.markup">isomiso2avc1mp41</property>
  <property name="meta.attr.ENCODER.markup">Lavf60.3.100</property>
  <property name="meta.media.sample_aspect_num">1</property>
  <property name="meta.media.sample_aspect_den">1</property>
  <property name="meta.media.frame_rate_num">60</property>
  <property name="meta.media.frame_rate_den">1</property>
  <property name="meta.media.colorspace">601</property>
  <property name="meta.media.color_trc">2</property>
  <property name="meta.media.has_b_frames">0</property>
  <property name="meta.media.width">640</property>
  <property name="meta.media.height">360</property>
  <property name="meta.media.color_range">full</property>
  <property name="xml">was here</property>
  <property name="meta.media.top_field_first">0</property>
  <property name="meta.media.progressive">1</property>
  <property name="set.test_audio">1</property>
  <property name="set.test_image">0</property>
 </chain>
 <chain id="chain623" out="00:00:00.983">
  <property name="length">60</property>
  <property name="eof">pause</property>
  <property name="resource">/home/xiaoxiae/.cache/kdenlive/proxy/456664142d7e4a39a1a8d1b6b06937ff.mkv</property>
  <property name="mlt_service">avformat-novalidate</property>
  <property name="seekable">1</property>
  <property name="format">3</property>
  <property name="audio_index">-1</property>
  <property name="video_index">0</property>
  <property name="kdenlive:clipname">116.mp4</property>
  <property name="kdenlive:clip_type">2</property>
  <property name="kdenlive:folderid">16</property>
  <property name="kdenlive:id">36</property>
  <property name="mute_on_pause">0</property>
  <property name="kdenlive:file_size">88805</property>
  <property name="kdenlive:file_hash">456664142d7e4a39a1a8d1b6b06937ff</property>
  <property name="kdenlive:proxy">/home/xiaoxiae/.cache/kdenlive/proxy/456664142d7e4a39a1a8d1b6b06937ff.mkv</property>
  <property name="kdenlive:originalurl">video/Farmer/116.mp4</property>
  <property name="kdenlive:original.mlt_type">chain</property>
  <property name="kdenlive:original.in">0</property>
  <property name="kdenlive:original.out">00:00:00.983</property>
  <property name="kdenlive:original.length">60</property>
  <property name="kdenlive:original.eof">pause</property>
  <property name="kdenlive:original.resource">video/Farmer/116.mp4</property>
  <property name="kdenlive:original.mlt_service">avformat-novalidate</property>
  <property name="kdenlive:original.meta.media.nb_streams">1</property>
  <property name="kdenlive:original.meta.media.0.stream.type">video</property>
  <property name="kdenlive:original.meta.media.0.stream.frame_rate">60</property>
  <property name="kdenlive:original.meta.media.0.stream.sample_aspect_ratio">0</property>
  <property name="kdenlive:original.meta.media.0.codec.width">1920</property>
  <property name="kdenlive:original.meta.media.0.codec.height">1080</property>
  <property name="kdenlive:original.meta.media.0.codec.rotate">0</property>
  <property name="kdenlive:original.meta.media.0.codec.pix_fmt">yuv420p</property>
  <property name="kdenlive:original.meta.media.0.codec.sample_aspect_ratio">0</property>
  <property name="kdenlive:original.meta.media.0.codec.colorspace">709</property>
  <property name="kdenlive:original.meta.media.0.codec.name">h264</property>
  <property name="kdenlive:original.meta.media.0.codec.long_name">H.264 / AVC / MPEG-4 AVC / MPEG-4 part 10</property>
  <property name="kdenlive:original.meta.media.0.codec.bit_rate">697640</property>
  <property name="kdenlive:original.meta.attr.0.stream.handler_name.markup">VideoHandler</property>
  <property name="kdenlive:original.meta.attr.0.stream.vendor_id.markup">[0][0][0][0]</property>
  <property name="kdenlive:original.meta.attr.0.stream.encoder.markup">Lavc60.3.100 libx264</property>
  <property name="kdenlive:original.meta.attr.major_brand.markup">isom</property>
  <property name="kdenlive:original.meta.attr.minor_version.markup">512</property>
  <property name="kdenlive:original.meta.attr.compatible_brands.markup">isomiso2avc1mp41</property>
  <property name="kdenlive:original.meta.attr.encoder.markup">Lavf60.3.100</property>
  <property name="kdenlive:original.meta.attr.comment.markup">Rendered with Manim Community v0.17.3</property>
  <property name="kdenlive:original.seekable">1</property>
  <property name="kdenlive:original.width">1920</property>
  <property name="kdenlive:original.height">1080</property>
  <property name="kdenlive:original.meta.media.sample_aspect_num">1</property>
  <property name="kdenlive:original.meta.media.sample_aspect_den">1</property>
  <property name="kdenlive:original.format">3</property>
  <property name="kdenlive:original.audio_index">-1</property>
  <property name="kdenlive:original.video_index">0</property>
  <property name="kdenlive:original.meta.media.frame_rate_num">60</property>
  <property name="kdenlive:original.meta.media.frame_rate_den">1</property>
  <property name="kdenlive:original.meta.media.colorspace">709</property>
  <property name="kdenlive:original.meta.media.color_trc">2</property>
  <property name="kdenlive:original.meta.media.has_b_frames">2</property>
  <property name="kdenlive:original.meta.media.width">1920</property>
  <property name="kdenlive:original.meta.media.height">1080</property>
  <property name="kdenlive:original.meta.media.color_range">mpeg</property>
  <property name="kdenlive:original.meta.media.top_field_first">0</property>
  <property name="kdenlive:original.meta.media.progressive">1</property>
  <property name="kdenlive:original.kdenlive:clip_type">2</property>
  <property name="kdenlive:original.kdenlive:folderid">16</property>
  <property name="kdenlive:original.kdenlive:id">36</property>
  <property name="kdenlive:original.mute_on_pause">0</property>
  <property name="kdenlive:original.kdenlive:file_size">88805</property>
  <property name="kdenlive:original.kdenlive:file_hash">456664142d7e4a39a1a8d1b6b06937ff</property>
  <property name="kdenlive:original.backup">1</property>
  <property name="meta.media.nb_streams">1</property>
  <property name="meta.media.0.stream.type">video</property>
  <property name="meta.media.0.stream.frame_rate">60</property>
  <property name="meta.media.0.stream.sample_aspect_ratio">0</property>
  <property name="meta.media.0.codec.width">640</property>
  <property name="meta.media.0.codec.height">360</property>
  <property name="meta.media.0.codec.rotate">0</property>
  <property name="meta.media.0.codec.pix_fmt">yuvj420p</property>
  <property name="meta.media.0.codec.sample_aspect_ratio">0</property>
  <property name="meta.media.0.codec.colorspace">601</property>
  <property name="meta.media.0.codec.name">mjpeg</property>
  <property name="meta.media.0.codec.long_name">MJPEG (Motion JPEG)</property>
  <property name="meta.media.0.codec.bit_rate">0</property>
  <property name="meta.attr.0.stream.HANDLER_NAME.markup">VideoHandler</property>
  <property name="meta.attr.0.stream.VENDOR_ID.markup">[0][0][0][0]</property>
  <property name="meta.attr.0.stream.ENCODER.markup">Lavc60.3.100 mjpeg</property>
  <property name="meta.attr.0.stream.DURATION.markup">00:00:01.000000000</property>
  <property name="meta.attr.COMMENT.markup">Rendered with Manim Community v0.17.3</property>
  <property name="meta.attr.MAJOR_BRAND.markup">isom</property>
  <property name="meta.attr.MINOR_VERSION.markup">512</property>
  <property name="meta.attr.COMPATIBLE_BRANDS.markup">isomiso2avc1mp41</property>
  <property name="meta.attr.ENCODER.markup">Lavf60.3.100</property>
  <property name="meta.media.sample_aspect_num">1</property>
  <property name="meta.media.sample_aspect_den">1</property>
  <property name="meta.media.frame_rate_num">60</property>
  <property name="meta.media.frame_rate_den">1</property>
  <property name="meta.media.colorspace">601</property>
  <property name="meta.media.color_trc">2</property>
  <property name="meta.media.has_b_frames">0</property>
  <property name="meta.media.width">640</property>
  <property name="meta.media.height">360</property>
  <property name="meta.media.color_range">full</property>
  <property name="xml">was here</property>
  <property name="meta.media.top_field_first">0</property>
  <property name="meta.media.progressive">1</property>
  <property name="set.test_audio">1</property>
  <property name="set.test_image">0</property>
 </chain>
 <chain id="chain624" out="00:00:00.983">
  <property name="length">60</property>
  <property name="eof">pause</property>
  <property name="resource">/home/xiaoxiae/.cache/kdenlive/proxy/85806375e9ce4d5945d4b33785af6bbd.mkv</property>
  <property name="mlt_service">avformat-novalidate</property>
  <property name="seekable">1</property>
  <property name="format">3</property>
  <property name="audio_index">-1</property>
  <property name="video_index">0</property>
  <property name="kdenlive:clipname">117.mp4</property>
  <property name="kdenlive:clip_type">2</property>
  <property name="kdenlive:folderid">16</property>
  <property name="kdenlive:id">37</property>
  <property name="mute_on_pause">0</property>
  <property name="kdenlive:file_size">82509</property>
  <property name="kdenlive:file_hash">85806375e9ce4d5945d4b33785af6bbd</property>
  <property name="kdenlive:proxy">/home/xiaoxiae/.cache/kdenlive/proxy/85806375e9ce4d5945d4b33785af6bbd.mkv</property>
  <property name="kdenlive:originalurl">video/Farmer/117.mp4</property>
  <property name="kdenlive:original.mlt_type">chain</property>
  <property name="kdenlive:original.in">0</property>
  <property name="kdenlive:original.out">00:00:00.983</property>
  <property name="kdenlive:original.length">60</property>
  <property name="kdenlive:original.eof">pause</property>
  <property name="kdenlive:original.resource">video/Farmer/117.mp4</property>
  <property name="kdenlive:original.mlt_service">avformat-novalidate</property>
  <property name="kdenlive:original.meta.media.nb_streams">1</property>
  <property name="kdenlive:original.meta.media.0.stream.type">video</property>
  <property name="kdenlive:original.meta.media.0.stream.frame_rate">60</property>
  <property name="kdenlive:original.meta.media.0.stream.sample_aspect_ratio">0</property>
  <property name="kdenlive:original.meta.media.0.codec.width">1920</property>
  <property name="kdenlive:original.meta.media.0.codec.height">1080</property>
  <property name="kdenlive:original.meta.media.0.codec.rotate">0</property>
  <property name="kdenlive:original.meta.media.0.codec.pix_fmt">yuv420p</property>
  <property name="kdenlive:original.meta.media.0.codec.sample_aspect_ratio">0</property>
  <property name="kdenlive:original.meta.media.0.codec.colorspace">709</property>
  <property name="kdenlive:original.meta.media.0.codec.name">h264</property>
  <property name="kdenlive:original.meta.media.0.codec.long_name">H.264 / AVC / MPEG-4 AVC / MPEG-4 part 10</property>
  <property name="kdenlive:original.meta.media.0.codec.bit_rate">647016</property>
  <property name="kdenlive:original.meta.attr.0.stream.handler_name.markup">VideoHandler</property>
  <property name="kdenlive:original.meta.attr.0.stream.vendor_id.markup">[0][0][0][0]</property>
  <property name="kdenlive:original.meta.attr.0.stream.encoder.markup">Lavc60.3.100 libx264</property>
  <property name="kdenlive:original.meta.attr.major_brand.markup">isom</property>
  <property name="kdenlive:original.meta.attr.minor_version.markup">512</property>
  <property name="kdenlive:original.meta.attr.compatible_brands.markup">isomiso2avc1mp41</property>
  <property name="kdenlive:original.meta.attr.encoder.markup">Lavf60.3.100</property>
  <property name="kdenlive:original.meta.attr.comment.markup">Rendered with Manim Community v0.17.3</property>
  <property name="kdenlive:original.seekable">1</property>
  <property name="kdenlive:original.width">1920</property>
  <property name="kdenlive:original.height">1080</property>
  <property name="kdenlive:original.meta.media.sample_aspect_num">1</property>
  <property name="kdenlive:original.meta.media.sample_aspect_den">1</property>
  <property name="kdenlive:original.format">3</property>
  <property name="kdenlive:original.audio_index">-1</property>
  <property name="kdenlive:original.video_index">0</property>
  <property name="kdenlive:original.meta.media.frame_rate_num">60</property>
  <property name="kdenlive:original.meta.media.frame_rate_den">1</property>
  <property name="kdenlive:original.meta.media.colorspace">709</property>
  <property name="kdenlive:original.meta.media.color_trc">2</property>
  <property name="kdenlive:original.meta.media.has_b_frames">2</property>
  <property name="kdenlive:original.meta.media.width">1920</property>
  <property name="kdenlive:original.meta.media.height">1080</property>
  <property name="kdenlive:original.meta.media.color_range">mpeg</property>
  <property name="kdenlive:original.meta.media.top_field_first">0</property>
  <property name="kdenlive:original.meta.media.progressive">1</property>
  <property name="kdenlive:original.kdenlive:clip_type">2</property>
  <property name="kdenlive:original.kdenlive:folderid">16</property>
  <property name="kdenlive:original.kdenlive:id">37</property>
  <property name="kdenlive:original.mute_on_pause">0</property>
  <property name="kdenlive:original.kdenlive:file_size">82509</property>
  <property name="kdenlive:original.kdenlive:file_hash">85806375e9ce4d5945d4b33785af6bbd</property>
  <property name="kdenlive:original.backup">1</property>
  <property name="meta.media.nb_streams">1</property>
  <property name="meta.media.0.stream.type">video</property>
  <property name="meta.media.0.stream.frame_rate">60</property>
  <property name="meta.media.0.stream.sample_aspect_ratio">0</property>
  <property name="meta.media.0.codec.width">640</property>
  <property name="meta.media.0.codec.height">360</property>
  <property name="meta.media.0.codec.rotate">0</property>
  <property name="meta.media.0.codec.pix_fmt">yuvj420p</property>
  <property name="meta.media.0.codec.sample_aspect_ratio">0</property>
  <property name="meta.media.0.codec.colorspace">601</property>
  <property name="meta.media.0.codec.name">mjpeg</property>
  <property name="meta.media.0.codec.long_name">MJPEG (Motion JPEG)</property>
  <property name="meta.media.0.codec.bit_rate">0</property>
  <property name="meta.attr.0.stream.HANDLER_NAME.markup">VideoHandler</property>
  <property name="meta.attr.0.stream.VENDOR_ID.markup">[0][0][0][0]</property>
  <property name="meta.attr.0.stream.ENCODER.markup">Lavc60.3.100 mjpeg</property>
  <property name="meta.attr.0.stream.DURATION.markup">00:00:01.000000000</property>
  <property name="meta.attr.COMMENT.markup">Rendered with Manim Community v0.17.3</property>
  <property name="meta.attr.MAJOR_BRAND.markup">isom</property>
  <property name="meta.attr.MINOR_VERSION.markup">512</property>
  <property name="meta.attr.COMPATIBLE_BRANDS.markup">isomiso2avc1mp41</property>
  <property name="meta.attr.ENCODER.markup">Lavf60.3.100</property>
  <property name="meta.media.sample_aspect_num">1</property>
  <property name="meta.media.sample_aspect_den">1</property>
  <property name="meta.media.frame_rate_num">60</property>
  <property name="meta.media.frame_rate_den">1</property>
  <property name="meta.media.colorspace">601</property>
  <property name="meta.media.color_trc">2</property>
  <property name="meta.media.has_b_frames">0</property>
  <property name="meta.media.width">640</property>
  <property name="meta.media.height">360</property>
  <property name="meta.media.color_range">full</property>
  <property name="xml">was here</property>
  <property name="meta.media.top_field_first">0</property>
  <property name="meta.media.progressive">1</property>
  <property name="set.test_audio">1</property>
  <property name="set.test_image">0</property>
 </chain>
 <chain id="chain625" out="00:00:01.067">
  <property name="length">65</property>
  <property name="eof">pause</property>
  <property name="resource">/home/xiaoxiae/.cache/kdenlive/proxy/748fbaca71070ac234c329f558d14e26.mkv</property>
  <property name="mlt_service">avformat-novalidate</property>
  <property name="seekable">1</property>
  <property name="format">3</property>
  <property name="audio_index">-1</property>
  <property name="video_index">0</property>
  <property name="kdenlive:clipname">118.mp4</property>
  <property name="kdenlive:clip_type">2</property>
  <property name="kdenlive:folderid">16</property>
  <property name="kdenlive:id">38</property>
  <property name="mute_on_pause">0</property>
  <property name="kdenlive:file_size">78156</property>
  <property name="kdenlive:file_hash">748fbaca71070ac234c329f558d14e26</property>
  <property name="kdenlive:proxy">/home/xiaoxiae/.cache/kdenlive/proxy/748fbaca71070ac234c329f558d14e26.mkv</property>
  <property name="kdenlive:originalurl">video/Farmer/118.mp4</property>
  <property name="kdenlive:original.mlt_type">chain</property>
  <property name="kdenlive:original.in">0</property>
  <property name="kdenlive:original.out">00:00:01.067</property>
  <property name="kdenlive:original.length">65</property>
  <property name="kdenlive:original.eof">pause</property>
  <property name="kdenlive:original.resource">video/Farmer/118.mp4</property>
  <property name="kdenlive:original.mlt_service">avformat-novalidate</property>
  <property name="kdenlive:original.meta.media.nb_streams">1</property>
  <property name="kdenlive:original.meta.media.0.stream.type">video</property>
  <property name="kdenlive:original.meta.media.0.stream.frame_rate">60</property>
  <property name="kdenlive:original.meta.media.0.stream.sample_aspect_ratio">0</property>
  <property name="kdenlive:original.meta.media.0.codec.width">1920</property>
  <property name="kdenlive:original.meta.media.0.codec.height">1080</property>
  <property name="kdenlive:original.meta.media.0.codec.rotate">0</property>
  <property name="kdenlive:original.meta.media.0.codec.pix_fmt">yuv420p</property>
  <property name="kdenlive:original.meta.media.0.codec.sample_aspect_ratio">0</property>
  <property name="kdenlive:original.meta.media.0.codec.colorspace">709</property>
  <property name="kdenlive:original.meta.media.0.codec.name">h264</property>
  <property name="kdenlive:original.meta.media.0.codec.long_name">H.264 / AVC / MPEG-4 AVC / MPEG-4 part 10</property>
  <property name="kdenlive:original.meta.media.0.codec.bit_rate">564716</property>
  <property name="kdenlive:original.meta.attr.0.stream.handler_name.markup">VideoHandler</property>
  <property name="kdenlive:original.meta.attr.0.stream.vendor_id.markup">[0][0][0][0]</property>
  <property name="kdenlive:original.meta.attr.0.stream.encoder.markup">Lavc60.3.100 libx264</property>
  <property name="kdenlive:original.meta.attr.major_brand.markup">isom</property>
  <property name="kdenlive:original.meta.attr.minor_version.markup">512</property>
  <property name="kdenlive:original.meta.attr.compatible_brands.markup">isomiso2avc1mp41</property>
  <property name="kdenlive:original.meta.attr.encoder.markup">Lavf60.3.100</property>
  <property name="kdenlive:original.meta.attr.comment.markup">Rendered with Manim Community v0.17.3</property>
  <property name="kdenlive:original.seekable">1</property>
  <property name="kdenlive:original.width">1920</property>
  <property name="kdenlive:original.height">1080</property>
  <property name="kdenlive:original.meta.media.sample_aspect_num">1</property>
  <property name="kdenlive:original.meta.media.sample_aspect_den">1</property>
  <property name="kdenlive:original.format">3</property>
  <property name="kdenlive:original.audio_index">-1</property>
  <property name="kdenlive:original.video_index">0</property>
  <property name="kdenlive:original.meta.media.frame_rate_num">60</property>
  <property name="kdenlive:original.meta.media.frame_rate_den">1</property>
  <property name="kdenlive:original.meta.media.colorspace">709</property>
  <property name="kdenlive:original.meta.media.color_trc">2</property>
  <property name="kdenlive:original.meta.media.has_b_frames">2</property>
  <property name="kdenlive:original.meta.media.width">1920</property>
  <property name="kdenlive:original.meta.media.height">1080</property>
  <property name="kdenlive:original.meta.media.color_range">mpeg</property>
  <property name="kdenlive:original.meta.media.top_field_first">0</property>
  <property name="kdenlive:original.meta.media.progressive">1</property>
  <property name="kdenlive:original.kdenlive:clip_type">2</property>
  <property name="kdenlive:original.kdenlive:folderid">16</property>
  <property name="kdenlive:original.kdenlive:id">38</property>
  <property name="kdenlive:original.mute_on_pause">0</property>
  <property name="kdenlive:original.kdenlive:file_size">78156</property>
  <property name="kdenlive:original.kdenlive:file_hash">748fbaca71070ac234c329f558d14e26</property>
  <property name="kdenlive:original.backup">1</property>
  <property name="meta.media.nb_streams">1</property>
  <property name="meta.media.0.stream.type">video</property>
  <property name="meta.media.0.stream.frame_rate">60</property>
  <property name="meta.media.0.stream.sample_aspect_ratio">0</property>
  <property name="meta.media.0.codec.width">640</property>
  <property name="meta.media.0.codec.height">360</property>
  <property name="meta.media.0.codec.rotate">0</property>
  <property name="meta.media.0.codec.pix_fmt">yuvj420p</property>
  <property name="meta.media.0.codec.sample_aspect_ratio">0</property>
  <property name="meta.media.0.codec.colorspace">601</property>
  <property name="meta.media.0.codec.name">mjpeg</property>
  <property name="meta.media.0.codec.long_name">MJPEG (Motion JPEG)</property>
  <property name="meta.media.0.codec.bit_rate">0</property>
  <property name="meta.attr.0.stream.HANDLER_NAME.markup">VideoHandler</property>
  <property name="meta.attr.0.stream.VENDOR_ID.markup">[0][0][0][0]</property>
  <property name="meta.attr.0.stream.ENCODER.markup">Lavc60.3.100 mjpeg</property>
  <property name="meta.attr.0.stream.DURATION.markup">00:00:01.084000000</property>
  <property name="meta.attr.COMMENT.markup">Rendered with Manim Community v0.17.3</property>
  <property name="meta.attr.MAJOR_BRAND.markup">isom</property>
  <property name="meta.attr.MINOR_VERSION.markup">512</property>
  <property name="meta.attr.COMPATIBLE_BRANDS.markup">isomiso2avc1mp41</property>
  <property name="meta.attr.ENCODER.markup">Lavf60.3.100</property>
  <property name="meta.media.sample_aspect_num">1</property>
  <property name="meta.media.sample_aspect_den">1</property>
  <property name="meta.media.frame_rate_num">60</property>
  <property name="meta.media.frame_rate_den">1</property>
  <property name="meta.media.colorspace">601</property>
  <property name="meta.media.color_trc">2</property>
  <property name="meta.media.has_b_frames">0</property>
  <property name="meta.media.width">640</property>
  <property name="meta.media.height">360</property>
  <property name="meta.media.color_range">full</property>
  <property name="xml">was here</property>
  <property name="meta.media.top_field_first">0</property>
  <property name="meta.media.progressive">1</property>
  <property name="set.test_audio">1</property>
  <property name="set.test_image">0</property>
 </chain>
 <chain id="chain626" out="00:00:01.233">
  <property name="length">75</property>
  <property name="eof">pause</property>
  <property name="resource">/home/xiaoxiae/.cache/kdenlive/proxy/dce4b93a99c81857cd3d10eb36d04885.mkv</property>
  <property name="mlt_service">avformat-novalidate</property>
  <property name="seekable">1</property>
  <property name="format">3</property>
  <property name="audio_index">-1</property>
  <property name="video_index">0</property>
  <property name="kdenlive:clipname">119.mp4</property>
  <property name="kdenlive:clip_type">2</property>
  <property name="kdenlive:folderid">16</property>
  <property name="kdenlive:id">39</property>
  <property name="mute_on_pause">0</property>
  <property name="kdenlive:file_size">105204</property>
  <property name="kdenlive:file_hash">dce4b93a99c81857cd3d10eb36d04885</property>
  <property name="kdenlive:proxy">/home/xiaoxiae/.cache/kdenlive/proxy/dce4b93a99c81857cd3d10eb36d04885.mkv</property>
  <property name="kdenlive:originalurl">video/Farmer/119.mp4</property>
  <property name="kdenlive:original.mlt_type">chain</property>
  <property name="kdenlive:original.in">0</property>
  <property name="kdenlive:original.out">00:00:01.233</property>
  <property name="kdenlive:original.length">75</property>
  <property name="kdenlive:original.eof">pause</property>
  <property name="kdenlive:original.resource">video/Farmer/119.mp4</property>
  <property name="kdenlive:original.mlt_service">avformat-novalidate</property>
  <property name="kdenlive:original.meta.media.nb_streams">1</property>
  <property name="kdenlive:original.meta.media.0.stream.type">video</property>
  <property name="kdenlive:original.meta.media.0.stream.frame_rate">60</property>
  <property name="kdenlive:original.meta.media.0.stream.sample_aspect_ratio">0</property>
  <property name="kdenlive:original.meta.media.0.codec.width">1920</property>
  <property name="kdenlive:original.meta.media.0.codec.height">1080</property>
  <property name="kdenlive:original.meta.media.0.codec.rotate">0</property>
  <property name="kdenlive:original.meta.media.0.codec.pix_fmt">yuv420p</property>
  <property name="kdenlive:original.meta.media.0.codec.sample_aspect_ratio">0</property>
  <property name="kdenlive:original.meta.media.0.codec.colorspace">709</property>
  <property name="kdenlive:original.meta.media.0.codec.name">h264</property>
  <property name="kdenlive:original.meta.media.0.codec.long_name">H.264 / AVC / MPEG-4 AVC / MPEG-4 part 10</property>
  <property name="kdenlive:original.meta.media.0.codec.bit_rate">662016</property>
  <property name="kdenlive:original.meta.attr.0.stream.handler_name.markup">VideoHandler</property>
  <property name="kdenlive:original.meta.attr.0.stream.vendor_id.markup">[0][0][0][0]</property>
  <property name="kdenlive:original.meta.attr.0.stream.encoder.markup">Lavc60.3.100 libx264</property>
  <property name="kdenlive:original.meta.attr.major_brand.markup">isom</property>
  <property name="kdenlive:original.meta.attr.minor_version.markup">512</property>
  <property name="kdenlive:original.meta.attr.compatible_brands.markup">isomiso2avc1mp41</property>
  <property name="kdenlive:original.meta.attr.encoder.markup">Lavf60.3.100</property>
  <property name="kdenlive:original.meta.attr.comment.markup">Rendered with Manim Community v0.17.3</property>
  <property name="kdenlive:original.seekable">1</property>
  <property name="kdenlive:original.width">1920</property>
  <property name="kdenlive:original.height">1080</property>
  <property name="kdenlive:original.meta.media.sample_aspect_num">1</property>
  <property name="kdenlive:original.meta.media.sample_aspect_den">1</property>
  <property name="kdenlive:original.format">3</property>
  <property name="kdenlive:original.audio_index">-1</property>
  <property name="kdenlive:original.video_index">0</property>
  <property name="kdenlive:original.meta.media.frame_rate_num">60</property>
  <property name="kdenlive:original.meta.media.frame_rate_den">1</property>
  <property name="kdenlive:original.meta.media.colorspace">709</property>
  <property name="kdenlive:original.meta.media.color_trc">2</property>
  <property name="kdenlive:original.meta.media.has_b_frames">2</property>
  <property name="kdenlive:original.meta.media.width">1920</property>
  <property name="kdenlive:original.meta.media.height">1080</property>
  <property name="kdenlive:original.meta.media.color_range">mpeg</property>
  <property name="kdenlive:original.meta.media.top_field_first">0</property>
  <property name="kdenlive:original.meta.media.progressive">1</property>
  <property name="kdenlive:original.kdenlive:clip_type">2</property>
  <property name="kdenlive:original.kdenlive:folderid">16</property>
  <property name="kdenlive:original.kdenlive:id">39</property>
  <property name="kdenlive:original.mute_on_pause">0</property>
  <property name="kdenlive:original.kdenlive:file_size">105204</property>
  <property name="kdenlive:original.kdenlive:file_hash">dce4b93a99c81857cd3d10eb36d04885</property>
  <property name="kdenlive:original.backup">1</property>
  <property name="meta.media.nb_streams">1</property>
  <property name="meta.media.0.stream.type">video</property>
  <property name="meta.media.0.stream.frame_rate">60</property>
  <property name="meta.media.0.stream.sample_aspect_ratio">0</property>
  <property name="meta.media.0.codec.width">640</property>
  <property name="meta.media.0.codec.height">360</property>
  <property name="meta.media.0.codec.rotate">0</property>
  <property name="meta.media.0.codec.pix_fmt">yuvj420p</property>
  <property name="meta.media.0.codec.sample_aspect_ratio">0</property>
  <property name="meta.media.0.codec.colorspace">601</property>
  <property name="meta.media.0.codec.name">mjpeg</property>
  <property name="meta.media.0.codec.long_name">MJPEG (Motion JPEG)</property>
  <property name="meta.media.0.codec.bit_rate">0</property>
  <property name="meta.attr.0.stream.HANDLER_NAME.markup">VideoHandler</property>
  <property name="meta.attr.0.stream.VENDOR_ID.markup">[0][0][0][0]</property>
  <property name="meta.attr.0.stream.ENCODER.markup">Lavc60.3.100 mjpeg</property>
  <property name="meta.attr.0.stream.DURATION.markup">00:00:01.250000000</property>
  <property name="meta.attr.COMMENT.markup">Rendered with Manim Community v0.17.3</property>
  <property name="meta.attr.MAJOR_BRAND.markup">isom</property>
  <property name="meta.attr.MINOR_VERSION.markup">512</property>
  <property name="meta.attr.COMPATIBLE_BRANDS.markup">isomiso2avc1mp41</property>
  <property name="meta.attr.ENCODER.markup">Lavf60.3.100</property>
  <property name="meta.media.sample_aspect_num">1</property>
  <property name="meta.media.sample_aspect_den">1</property>
  <property name="meta.media.frame_rate_num">60</property>
  <property name="meta.media.frame_rate_den">1</property>
  <property name="meta.media.colorspace">601</property>
  <property name="meta.media.color_trc">2</property>
  <property name="meta.media.has_b_frames">0</property>
  <property name="meta.media.width">640</property>
  <property name="meta.media.height">360</property>
  <property name="meta.media.color_range">full</property>
  <property name="xml">was here</property>
  <property name="meta.media.top_field_first">0</property>
  <property name="meta.media.progressive">1</property>
  <property name="set.test_audio">1</property>
  <property name="set.test_image">0</property>
 </chain>
 <chain id="chain627" out="00:00:00.983">
  <property name="length">60</property>
  <property name="eof">pause</property>
  <property name="resource">/home/xiaoxiae/.cache/kdenlive/proxy/4554f66c65bca52e90b6a55131c199b3.mkv</property>
  <property name="mlt_service">avformat-novalidate</property>
  <property name="seekable">1</property>
  <property name="format">3</property>
  <property name="audio_index">-1</property>
  <property name="video_index">0</property>
  <property name="kdenlive:clipname">120.mp4</property>
  <property name="kdenlive:clip_type">2</property>
  <property name="kdenlive:folderid">16</property>
  <property name="kdenlive:id">41</property>
  <property name="mute_on_pause">0</property>
  <property name="kdenlive:file_size">76908</property>
  <property name="kdenlive:file_hash">4554f66c65bca52e90b6a55131c199b3</property>
  <property name="kdenlive:proxy">/home/xiaoxiae/.cache/kdenlive/proxy/4554f66c65bca52e90b6a55131c199b3.mkv</property>
  <property name="kdenlive:originalurl">video/Farmer/120.mp4</property>
  <property name="kdenlive:original.mlt_type">chain</property>
  <property name="kdenlive:original.in">0</property>
  <property name="kdenlive:original.out">00:00:00.983</property>
  <property name="kdenlive:original.length">60</property>
  <property name="kdenlive:original.eof">pause</property>
  <property name="kdenlive:original.resource">video/Farmer/120.mp4</property>
  <property name="kdenlive:original.mlt_service">avformat-novalidate</property>
  <property name="kdenlive:original.meta.media.nb_streams">1</property>
  <property name="kdenlive:original.meta.media.0.stream.type">video</property>
  <property name="kdenlive:original.meta.media.0.stream.frame_rate">60</property>
  <property name="kdenlive:original.meta.media.0.stream.sample_aspect_ratio">0</property>
  <property name="kdenlive:original.meta.media.0.codec.width">1920</property>
  <property name="kdenlive:original.meta.media.0.codec.height">1080</property>
  <property name="kdenlive:original.meta.media.0.codec.rotate">0</property>
  <property name="kdenlive:original.meta.media.0.codec.pix_fmt">yuv420p</property>
  <property name="kdenlive:original.meta.media.0.codec.sample_aspect_ratio">0</property>
  <property name="kdenlive:original.meta.media.0.codec.colorspace">709</property>
  <property name="kdenlive:original.meta.media.0.codec.name">h264</property>
  <property name="kdenlive:original.meta.media.0.codec.long_name">H.264 / AVC / MPEG-4 AVC / MPEG-4 part 10</property>
  <property name="kdenlive:original.meta.media.0.codec.bit_rate">602208</property>
  <property name="kdenlive:original.meta.attr.0.stream.handler_name.markup">VideoHandler</property>
  <property name="kdenlive:original.meta.attr.0.stream.vendor_id.markup">[0][0][0][0]</property>
  <property name="kdenlive:original.meta.attr.0.stream.encoder.markup">Lavc60.3.100 libx264</property>
  <property name="kdenlive:original.meta.attr.major_brand.markup">isom</property>
  <property name="kdenlive:original.meta.attr.minor_version.markup">512</property>
  <property name="kdenlive:original.meta.attr.compatible_brands.markup">isomiso2avc1mp41</property>
  <property name="kdenlive:original.meta.attr.encoder.markup">Lavf60.3.100</property>
  <property name="kdenlive:original.meta.attr.comment.markup">Rendered with Manim Community v0.17.3</property>
  <property name="kdenlive:original.seekable">1</property>
  <property name="kdenlive:original.width">1920</property>
  <property name="kdenlive:original.height">1080</property>
  <property name="kdenlive:original.meta.media.sample_aspect_num">1</property>
  <property name="kdenlive:original.meta.media.sample_aspect_den">1</property>
  <property name="kdenlive:original.format">3</property>
  <property name="kdenlive:original.audio_index">-1</property>
  <property name="kdenlive:original.video_index">0</property>
  <property name="kdenlive:original.meta.media.frame_rate_num">60</property>
  <property name="kdenlive:original.meta.media.frame_rate_den">1</property>
  <property name="kdenlive:original.meta.media.colorspace">709</property>
  <property name="kdenlive:original.meta.media.color_trc">2</property>
  <property name="kdenlive:original.meta.media.has_b_frames">2</property>
  <property name="kdenlive:original.meta.media.width">1920</property>
  <property name="kdenlive:original.meta.media.height">1080</property>
  <property name="kdenlive:original.meta.media.color_range">mpeg</property>
  <property name="kdenlive:original.meta.media.top_field_first">0</property>
  <property name="kdenlive:original.meta.media.progressive">1</property>
  <property name="kdenlive:original.kdenlive:clip_type">2</property>
  <property name="kdenlive:original.kdenlive:folderid">16</property>
  <property name="kdenlive:original.kdenlive:id">41</property>
  <property name="kdenlive:original.mute_on_pause">0</property>
  <property name="kdenlive:original.kdenlive:file_size">76908</property>
  <property name="kdenlive:original.kdenlive:file_hash">4554f66c65bca52e90b6a55131c199b3</property>
  <property name="kdenlive:original.backup">1</property>
  <property name="meta.media.nb_streams">1</property>
  <property name="meta.media.0.stream.type">video</property>
  <property name="meta.media.0.stream.frame_rate">60</property>
  <property name="meta.media.0.stream.sample_aspect_ratio">0</property>
  <property name="meta.media.0.codec.width">640</property>
  <property name="meta.media.0.codec.height">360</property>
  <property name="meta.media.0.codec.rotate">0</property>
  <property name="meta.media.0.codec.pix_fmt">yuvj420p</property>
  <property name="meta.media.0.codec.sample_aspect_ratio">0</property>
  <property name="meta.media.0.codec.colorspace">601</property>
  <property name="meta.media.0.codec.name">mjpeg</property>
  <property name="meta.media.0.codec.long_name">MJPEG (Motion JPEG)</property>
  <property name="meta.media.0.codec.bit_rate">0</property>
  <property name="meta.attr.0.stream.HANDLER_NAME.markup">VideoHandler</property>
  <property name="meta.attr.0.stream.VENDOR_ID.markup">[0][0][0][0]</property>
  <property name="meta.attr.0.stream.ENCODER.markup">Lavc60.3.100 mjpeg</property>
  <property name="meta.attr.0.stream.DURATION.markup">00:00:01.000000000</property>
  <property name="meta.attr.COMMENT.markup">Rendered with Manim Community v0.17.3</property>
  <property name="meta.attr.MAJOR_BRAND.markup">isom</property>
  <property name="meta.attr.MINOR_VERSION.markup">512</property>
  <property name="meta.attr.COMPATIBLE_BRANDS.markup">isomiso2avc1mp41</property>
  <property name="meta.attr.ENCODER.markup">Lavf60.3.100</property>
  <property name="meta.media.sample_aspect_num">1</property>
  <property name="meta.media.sample_aspect_den">1</property>
  <property name="meta.media.frame_rate_num">60</property>
  <property name="meta.media.frame_rate_den">1</property>
  <property name="meta.media.colorspace">601</property>
  <property name="meta.media.color_trc">2</property>
  <property name="meta.media.has_b_frames">0</property>
  <property name="meta.media.width">640</property>
  <property name="meta.media.height">360</property>
  <property name="meta.media.color_range">full</property>
  <property name="xml">was here</property>
  <property name="meta.media.top_field_first">0</property>
  <property name="meta.media.progressive">1</property>
  <property name="set.test_audio">1</property>
  <property name="set.test_image">0</property>
 </chain>
 <chain id="chain628" out="00:00:00.983">
  <property name="length">60</property>
  <property name="eof">pause</property>
  <property name="resource">/home/xiaoxiae/.cache/kdenlive/proxy/5aa63ed9e8ed484db4e745b4f117ca37.mkv</property>
  <property name="mlt_service">avformat-novalidate</property>
  <property name="seekable">1</property>
  <property name="format">3</property>
  <property name="audio_index">-1</property>
  <property name="video_index">0</property>
  <property name="kdenlive:clipname">121.mp4</property>
  <property name="kdenlive:clip_type">2</property>
  <property name="kdenlive:folderid">16</property>
  <property name="kdenlive:id">42</property>
  <property name="mute_on_pause">0</property>
  <property name="kdenlive:file_size">75266</property>
  <property name="kdenlive:file_hash">5aa63ed9e8ed484db4e745b4f117ca37</property>
  <property name="kdenlive:proxy">/home/xiaoxiae/.cache/kdenlive/proxy/5aa63ed9e8ed484db4e745b4f117ca37.mkv</property>
  <property name="kdenlive:originalurl">video/Farmer/121.mp4</property>
  <property name="kdenlive:original.mlt_type">chain</property>
  <property name="kdenlive:original.in">0</property>
  <property name="kdenlive:original.out">00:00:00.983</property>
  <property name="kdenlive:original.length">60</property>
  <property name="kdenlive:original.eof">pause</property>
  <property name="kdenlive:original.resource">video/Farmer/121.mp4</property>
  <property name="kdenlive:original.mlt_service">avformat-novalidate</property>
  <property name="kdenlive:original.meta.media.nb_streams">1</property>
  <property name="kdenlive:original.meta.media.0.stream.type">video</property>
  <property name="kdenlive:original.meta.media.0.stream.frame_rate">60</property>
  <property name="kdenlive:original.meta.media.0.stream.sample_aspect_ratio">0</property>
  <property name="kdenlive:original.meta.media.0.codec.width">1920</property>
  <property name="kdenlive:original.meta.media.0.codec.height">1080</property>
  <property name="kdenlive:original.meta.media.0.codec.rotate">0</property>
  <property name="kdenlive:original.meta.media.0.codec.pix_fmt">yuv420p</property>
  <property name="kdenlive:original.meta.media.0.codec.sample_aspect_ratio">0</property>
  <property name="kdenlive:original.meta.media.0.codec.colorspace">709</property>
  <property name="kdenlive:original.meta.media.0.codec.name">h264</property>
  <property name="kdenlive:original.meta.media.0.codec.long_name">H.264 / AVC / MPEG-4 AVC / MPEG-4 part 10</property>
  <property name="kdenlive:original.meta.media.0.codec.bit_rate">589072</property>
  <property name="kdenlive:original.meta.attr.0.stream.handler_name.markup">VideoHandler</property>
  <property name="kdenlive:original.meta.attr.0.stream.vendor_id.markup">[0][0][0][0]</property>
  <property name="kdenlive:original.meta.attr.0.stream.encoder.markup">Lavc60.3.100 libx264</property>
  <property name="kdenlive:original.meta.attr.major_brand.markup">isom</property>
  <property name="kdenlive:original.meta.attr.minor_version.markup">512</property>
  <property name="kdenlive:original.meta.attr.compatible_brands.markup">isomiso2avc1mp41</property>
  <property name="kdenlive:original.meta.attr.encoder.markup">Lavf60.3.100</property>
  <property name="kdenlive:original.meta.attr.comment.markup">Rendered with Manim Community v0.17.3</property>
  <property name="kdenlive:original.seekable">1</property>
  <property name="kdenlive:original.width">1920</property>
  <property name="kdenlive:original.height">1080</property>
  <property name="kdenlive:original.meta.media.sample_aspect_num">1</property>
  <property name="kdenlive:original.meta.media.sample_aspect_den">1</property>
  <property name="kdenlive:original.format">3</property>
  <property name="kdenlive:original.audio_index">-1</property>
  <property name="kdenlive:original.video_index">0</property>
  <property name="kdenlive:original.meta.media.frame_rate_num">60</property>
  <property name="kdenlive:original.meta.media.frame_rate_den">1</property>
  <property name="kdenlive:original.meta.media.colorspace">709</property>
  <property name="kdenlive:original.meta.media.color_trc">2</property>
  <property name="kdenlive:original.meta.media.has_b_frames">2</property>
  <property name="kdenlive:original.meta.media.width">1920</property>
  <property name="kdenlive:original.meta.media.height">1080</property>
  <property name="kdenlive:original.meta.media.color_range">mpeg</property>
  <property name="kdenlive:original.meta.media.top_field_first">0</property>
  <property name="kdenlive:original.meta.media.progressive">1</property>
  <property name="kdenlive:original.kdenlive:clip_type">2</property>
  <property name="kdenlive:original.kdenlive:folderid">16</property>
  <property name="kdenlive:original.kdenlive:id">42</property>
  <property name="kdenlive:original.mute_on_pause">0</property>
  <property name="kdenlive:original.kdenlive:file_size">75266</property>
  <property name="kdenlive:original.kdenlive:file_hash">5aa63ed9e8ed484db4e745b4f117ca37</property>
  <property name="kdenlive:original.backup">1</property>
  <property name="meta.media.nb_streams">1</property>
  <property name="meta.media.0.stream.type">video</property>
  <property name="meta.media.0.stream.frame_rate">60</property>
  <property name="meta.media.0.stream.sample_aspect_ratio">0</property>
  <property name="meta.media.0.codec.width">640</property>
  <property name="meta.media.0.codec.height">360</property>
  <property name="meta.media.0.codec.rotate">0</property>
  <property name="meta.media.0.codec.pix_fmt">yuvj420p</property>
  <property name="meta.media.0.codec.sample_aspect_ratio">0</property>
  <property name="meta.media.0.codec.colorspace">601</property>
  <property name="meta.media.0.codec.name">mjpeg</property>
  <property name="meta.media.0.codec.long_name">MJPEG (Motion JPEG)</property>
  <property name="meta.media.0.codec.bit_rate">0</property>
  <property name="meta.attr.0.stream.HANDLER_NAME.markup">VideoHandler</property>
  <property name="meta.attr.0.stream.VENDOR_ID.markup">[0][0][0][0]</property>
  <property name="meta.attr.0.stream.ENCODER.markup">Lavc60.3.100 mjpeg</property>
  <property name="meta.attr.0.stream.DURATION.markup">00:00:01.000000000</property>
  <property name="meta.attr.COMMENT.markup">Rendered with Manim Community v0.17.3</property>
  <property name="meta.attr.MAJOR_BRAND.markup">isom</property>
  <property name="meta.attr.MINOR_VERSION.markup">512</property>
  <property name="meta.attr.COMPATIBLE_BRANDS.markup">isomiso2avc1mp41</property>
  <property name="meta.attr.ENCODER.markup">Lavf60.3.100</property>
  <property name="meta.media.sample_aspect_num">1</property>
  <property name="meta.media.sample_aspect_den">1</property>
  <property name="meta.media.frame_rate_num">60</property>
  <property name="meta.media.frame_rate_den">1</property>
  <property name="meta.media.colorspace">601</property>
  <property name="meta.media.color_trc">2</property>
  <property name="meta.media.has_b_frames">0</property>
  <property name="meta.media.width">640</property>
  <property name="meta.media.height">360</property>
  <property name="meta.media.color_range">full</property>
  <property name="xml">was here</property>
  <property name="meta.media.top_field_first">0</property>
  <property name="meta.media.progressive">1</property>
  <property name="set.test_audio">1</property>
  <property name="set.test_image">0</property>
 </chain>
 <chain id="chain629" out="00:00:00.983">
  <property name="length">60</property>
  <property name="eof">pause</property>
  <property name="resource">/home/xiaoxiae/.cache/kdenlive/proxy/0425539f9d792bc38c8f22a703d419c3.mkv</property>
  <property name="mlt_service">avformat-novalidate</property>
  <property name="seekable">1</property>
  <property name="format">3</property>
  <property name="audio_index">-1</property>
  <property name="video_index">0</property>
  <property name="kdenlive:clipname">122.mp4</property>
  <property name="kdenlive:clip_type">2</property>
  <property name="kdenlive:folderid">16</property>
  <property name="kdenlive:id">43</property>
  <property name="mute_on_pause">0</property>
  <property name="kdenlive:file_size">104595</property>
  <property name="kdenlive:file_hash">0425539f9d792bc38c8f22a703d419c3</property>
  <property name="kdenlive:proxy">/home/xiaoxiae/.cache/kdenlive/proxy/0425539f9d792bc38c8f22a703d419c3.mkv</property>
  <property name="kdenlive:originalurl">video/Farmer/122.mp4</property>
  <property name="kdenlive:original.mlt_type">chain</property>
  <property name="kdenlive:original.in">0</property>
  <property name="kdenlive:original.out">00:00:00.983</property>
  <property name="kdenlive:original.length">60</property>
  <property name="kdenlive:original.eof">pause</property>
  <property name="kdenlive:original.resource">video/Farmer/122.mp4</property>
  <property name="kdenlive:original.mlt_service">avformat-novalidate</property>
  <property name="kdenlive:original.meta.media.nb_streams">1</property>
  <property name="kdenlive:original.meta.media.0.stream.type">video</property>
  <property name="kdenlive:original.meta.media.0.stream.frame_rate">60</property>
  <property name="kdenlive:original.meta.media.0.stream.sample_aspect_ratio">0</property>
  <property name="kdenlive:original.meta.media.0.codec.width">1920</property>
  <property name="kdenlive:original.meta.media.0.codec.height">1080</property>
  <property name="kdenlive:original.meta.media.0.codec.rotate">0</property>
  <property name="kdenlive:original.meta.media.0.codec.pix_fmt">yuv420p</property>
  <property name="kdenlive:original.meta.media.0.codec.sample_aspect_ratio">0</property>
  <property name="kdenlive:original.meta.media.0.codec.colorspace">709</property>
  <property name="kdenlive:original.meta.media.0.codec.name">h264</property>
  <property name="kdenlive:original.meta.media.0.codec.long_name">H.264 / AVC / MPEG-4 AVC / MPEG-4 part 10</property>
  <property name="kdenlive:original.meta.media.0.codec.bit_rate">823960</property>
  <property name="kdenlive:original.meta.attr.0.stream.handler_name.markup">VideoHandler</property>
  <property name="kdenlive:original.meta.attr.0.stream.vendor_id.markup">[0][0][0][0]</property>
  <property name="kdenlive:original.meta.attr.0.stream.encoder.markup">Lavc60.3.100 libx264</property>
  <property name="kdenlive:original.meta.attr.major_brand.markup">isom</property>
  <property name="kdenlive:original.meta.attr.minor_version.markup">512</property>
  <property name="kdenlive:original.meta.attr.compatible_brands.markup">isomiso2avc1mp41</property>
  <property name="kdenlive:original.meta.attr.encoder.markup">Lavf60.3.100</property>
  <property name="kdenlive:original.meta.attr.comment.markup">Rendered with Manim Community v0.17.3</property>
  <property name="kdenlive:original.seekable">1</property>
  <property name="kdenlive:original.width">1920</property>
  <property name="kdenlive:original.height">1080</property>
  <property name="kdenlive:original.meta.media.sample_aspect_num">1</property>
  <property name="kdenlive:original.meta.media.sample_aspect_den">1</property>
  <property name="kdenlive:original.format">3</property>
  <property name="kdenlive:original.audio_index">-1</property>
  <property name="kdenlive:original.video_index">0</property>
  <property name="kdenlive:original.meta.media.frame_rate_num">60</property>
  <property name="kdenlive:original.meta.media.frame_rate_den">1</property>
  <property name="kdenlive:original.meta.media.colorspace">709</property>
  <property name="kdenlive:original.meta.media.color_trc">2</property>
  <property name="kdenlive:original.meta.media.has_b_frames">2</property>
  <property name="kdenlive:original.meta.media.width">1920</property>
  <property name="kdenlive:original.meta.media.height">1080</property>
  <property name="kdenlive:original.meta.media.color_range">mpeg</property>
  <property name="kdenlive:original.meta.media.top_field_first">0</property>
  <property name="kdenlive:original.meta.media.progressive">1</property>
  <property name="kdenlive:original.kdenlive:clip_type">2</property>
  <property name="kdenlive:original.kdenlive:folderid">16</property>
  <property name="kdenlive:original.kdenlive:id">43</property>
  <property name="kdenlive:original.mute_on_pause">0</property>
  <property name="kdenlive:original.kdenlive:file_size">104595</property>
  <property name="kdenlive:original.kdenlive:file_hash">0425539f9d792bc38c8f22a703d419c3</property>
  <property name="kdenlive:original.backup">1</property>
  <property name="meta.media.nb_streams">1</property>
  <property name="meta.media.0.stream.type">video</property>
  <property name="meta.media.0.stream.frame_rate">60</property>
  <property name="meta.media.0.stream.sample_aspect_ratio">0</property>
  <property name="meta.media.0.codec.width">640</property>
  <property name="meta.media.0.codec.height">360</property>
  <property name="meta.media.0.codec.rotate">0</property>
  <property name="meta.media.0.codec.pix_fmt">yuvj420p</property>
  <property name="meta.media.0.codec.sample_aspect_ratio">0</property>
  <property name="meta.media.0.codec.colorspace">601</property>
  <property name="meta.media.0.codec.name">mjpeg</property>
  <property name="meta.media.0.codec.long_name">MJPEG (Motion JPEG)</property>
  <property name="meta.media.0.codec.bit_rate">0</property>
  <property name="meta.attr.0.stream.HANDLER_NAME.markup">VideoHandler</property>
  <property name="meta.attr.0.stream.VENDOR_ID.markup">[0][0][0][0]</property>
  <property name="meta.attr.0.stream.ENCODER.markup">Lavc60.3.100 mjpeg</property>
  <property name="meta.attr.0.stream.DURATION.markup">00:00:01.000000000</property>
  <property name="meta.attr.COMMENT.markup">Rendered with Manim Community v0.17.3</property>
  <property name="meta.attr.MAJOR_BRAND.markup">isom</property>
  <property name="meta.attr.MINOR_VERSION.markup">512</property>
  <property name="meta.attr.COMPATIBLE_BRANDS.markup">isomiso2avc1mp41</property>
  <property name="meta.attr.ENCODER.markup">Lavf60.3.100</property>
  <property name="meta.media.sample_aspect_num">1</property>
  <property name="meta.media.sample_aspect_den">1</property>
  <property name="meta.media.frame_rate_num">60</property>
  <property name="meta.media.frame_rate_den">1</property>
  <property name="meta.media.colorspace">601</property>
  <property name="meta.media.color_trc">2</property>
  <property name="meta.media.has_b_frames">0</property>
  <property name="meta.media.width">640</property>
  <property name="meta.media.height">360</property>
  <property name="meta.media.color_range">full</property>
  <property name="xml">was here</property>
  <property name="meta.media.top_field_first">0</property>
  <property name="meta.media.progressive">1</property>
  <property name="set.test_audio">1</property>
  <property name="set.test_image">0</property>
 </chain>
 <chain id="chain630" out="00:00:00.983">
  <property name="length">60</property>
  <property name="eof">pause</property>
  <property name="resource">/home/xiaoxiae/.cache/kdenlive/proxy/b1d2cd3a06438d5bdd5e1445a4b3d67d.mkv</property>
  <property name="mlt_service">avformat-novalidate</property>
  <property name="seekable">1</property>
  <property name="format">3</property>
  <property name="audio_index">-1</property>
  <property name="video_index">0</property>
  <property name="kdenlive:clipname">123.mp4</property>
  <property name="kdenlive:clip_type">2</property>
  <property name="kdenlive:folderid">16</property>
  <property name="kdenlive:id">44</property>
  <property name="mute_on_pause">0</property>
  <property name="kdenlive:file_size">85623</property>
  <property name="kdenlive:file_hash">b1d2cd3a06438d5bdd5e1445a4b3d67d</property>
  <property name="kdenlive:proxy">/home/xiaoxiae/.cache/kdenlive/proxy/b1d2cd3a06438d5bdd5e1445a4b3d67d.mkv</property>
  <property name="kdenlive:originalurl">video/Farmer/123.mp4</property>
  <property name="kdenlive:original.mlt_type">chain</property>
  <property name="kdenlive:original.in">0</property>
  <property name="kdenlive:original.out">00:00:00.983</property>
  <property name="kdenlive:original.length">60</property>
  <property name="kdenlive:original.eof">pause</property>
  <property name="kdenlive:original.resource">video/Farmer/123.mp4</property>
  <property name="kdenlive:original.mlt_service">avformat-novalidate</property>
  <property name="kdenlive:original.meta.media.nb_streams">1</property>
  <property name="kdenlive:original.meta.media.0.stream.type">video</property>
  <property name="kdenlive:original.meta.media.0.stream.frame_rate">60</property>
  <property name="kdenlive:original.meta.media.0.stream.sample_aspect_ratio">0</property>
  <property name="kdenlive:original.meta.media.0.codec.width">1920</property>
  <property name="kdenlive:original.meta.media.0.codec.height">1080</property>
  <property name="kdenlive:original.meta.media.0.codec.rotate">0</property>
  <property name="kdenlive:original.meta.media.0.codec.pix_fmt">yuv420p</property>
  <property name="kdenlive:original.meta.media.0.codec.sample_aspect_ratio">0</property>
  <property name="kdenlive:original.meta.media.0.codec.colorspace">709</property>
  <property name="kdenlive:original.meta.media.0.codec.name">h264</property>
  <property name="kdenlive:original.meta.media.0.codec.long_name">H.264 / AVC / MPEG-4 AVC / MPEG-4 part 10</property>
  <property name="kdenlive:original.meta.media.0.codec.bit_rate">671928</property>
  <property name="kdenlive:original.meta.attr.0.stream.handler_name.markup">VideoHandler</property>
  <property name="kdenlive:original.meta.attr.0.stream.vendor_id.markup">[0][0][0][0]</property>
  <property name="kdenlive:original.meta.attr.0.stream.encoder.markup">Lavc60.3.100 libx264</property>
  <property name="kdenlive:original.meta.attr.major_brand.markup">isom</property>
  <property name="kdenlive:original.meta.attr.minor_version.markup">512</property>
  <property name="kdenlive:original.meta.attr.compatible_brands.markup">isomiso2avc1mp41</property>
  <property name="kdenlive:original.meta.attr.encoder.markup">Lavf60.3.100</property>
  <property name="kdenlive:original.meta.attr.comment.markup">Rendered with Manim Community v0.17.3</property>
  <property name="kdenlive:original.seekable">1</property>
  <property name="kdenlive:original.width">1920</property>
  <property name="kdenlive:original.height">1080</property>
  <property name="kdenlive:original.meta.media.sample_aspect_num">1</property>
  <property name="kdenlive:original.meta.media.sample_aspect_den">1</property>
  <property name="kdenlive:original.format">3</property>
  <property name="kdenlive:original.audio_index">-1</property>
  <property name="kdenlive:original.video_index">0</property>
  <property name="kdenlive:original.meta.media.frame_rate_num">60</property>
  <property name="kdenlive:original.meta.media.frame_rate_den">1</property>
  <property name="kdenlive:original.meta.media.colorspace">709</property>
  <property name="kdenlive:original.meta.media.color_trc">2</property>
  <property name="kdenlive:original.meta.media.has_b_frames">2</property>
  <property name="kdenlive:original.meta.media.width">1920</property>
  <property name="kdenlive:original.meta.media.height">1080</property>
  <property name="kdenlive:original.meta.media.color_range">mpeg</property>
  <property name="kdenlive:original.meta.media.top_field_first">0</property>
  <property name="kdenlive:original.meta.media.progressive">1</property>
  <property name="kdenlive:original.kdenlive:clip_type">2</property>
  <property name="kdenlive:original.kdenlive:folderid">16</property>
  <property name="kdenlive:original.kdenlive:id">44</property>
  <property name="kdenlive:original.mute_on_pause">0</property>
  <property name="kdenlive:original.kdenlive:file_size">85623</property>
  <property name="kdenlive:original.kdenlive:file_hash">b1d2cd3a06438d5bdd5e1445a4b3d67d</property>
  <property name="kdenlive:original.backup">1</property>
  <property name="meta.media.nb_streams">1</property>
  <property name="meta.media.0.stream.type">video</property>
  <property name="meta.media.0.stream.frame_rate">60</property>
  <property name="meta.media.0.stream.sample_aspect_ratio">0</property>
  <property name="meta.media.0.codec.width">640</property>
  <property name="meta.media.0.codec.height">360</property>
  <property name="meta.media.0.codec.rotate">0</property>
  <property name="meta.media.0.codec.pix_fmt">yuvj420p</property>
  <property name="meta.media.0.codec.sample_aspect_ratio">0</property>
  <property name="meta.media.0.codec.colorspace">601</property>
  <property name="meta.media.0.codec.name">mjpeg</property>
  <property name="meta.media.0.codec.long_name">MJPEG (Motion JPEG)</property>
  <property name="meta.media.0.codec.bit_rate">0</property>
  <property name="meta.attr.0.stream.HANDLER_NAME.markup">VideoHandler</property>
  <property name="meta.attr.0.stream.VENDOR_ID.markup">[0][0][0][0]</property>
  <property name="meta.attr.0.stream.ENCODER.markup">Lavc60.3.100 mjpeg</property>
  <property name="meta.attr.0.stream.DURATION.markup">00:00:01.000000000</property>
  <property name="meta.attr.COMMENT.markup">Rendered with Manim Community v0.17.3</property>
  <property name="meta.attr.MAJOR_BRAND.markup">isom</property>
  <property name="meta.attr.MINOR_VERSION.markup">512</property>
  <property name="meta.attr.COMPATIBLE_BRANDS.markup">isomiso2avc1mp41</property>
  <property name="meta.attr.ENCODER.markup">Lavf60.3.100</property>
  <property name="meta.media.sample_aspect_num">1</property>
  <property name="meta.media.sample_aspect_den">1</property>
  <property name="meta.media.frame_rate_num">60</property>
  <property name="meta.media.frame_rate_den">1</property>
  <property name="meta.media.colorspace">601</property>
  <property name="meta.media.color_trc">2</property>
  <property name="meta.media.has_b_frames">0</property>
  <property name="meta.media.width">640</property>
  <property name="meta.media.height">360</property>
  <property name="meta.media.color_range">full</property>
  <property name="xml">was here</property>
  <property name="meta.media.top_field_first">0</property>
  <property name="meta.media.progressive">1</property>
  <property name="set.test_audio">1</property>
  <property name="set.test_image">0</property>
 </chain>
 <chain id="chain631" out="00:00:00.983">
  <property name="length">60</property>
  <property name="eof">pause</property>
  <property name="resource">/home/xiaoxiae/.cache/kdenlive/proxy/eaa296fb8c3fb62f3eb19ff81cdd7544.mkv</property>
  <property name="mlt_service">avformat-novalidate</property>
  <property name="seekable">1</property>
  <property name="format">3</property>
  <property name="audio_index">-1</property>
  <property name="video_index">0</property>
  <property name="kdenlive:clipname">124.mp4</property>
  <property name="kdenlive:clip_type">2</property>
  <property name="kdenlive:folderid">16</property>
  <property name="kdenlive:id">45</property>
  <property name="mute_on_pause">0</property>
  <property name="kdenlive:file_size">71579</property>
  <property name="kdenlive:file_hash">eaa296fb8c3fb62f3eb19ff81cdd7544</property>
  <property name="kdenlive:proxy">/home/xiaoxiae/.cache/kdenlive/proxy/eaa296fb8c3fb62f3eb19ff81cdd7544.mkv</property>
  <property name="kdenlive:originalurl">video/Farmer/124.mp4</property>
  <property name="kdenlive:original.mlt_type">chain</property>
  <property name="kdenlive:original.in">0</property>
  <property name="kdenlive:original.out">00:00:00.983</property>
  <property name="kdenlive:original.length">60</property>
  <property name="kdenlive:original.eof">pause</property>
  <property name="kdenlive:original.resource">video/Farmer/124.mp4</property>
  <property name="kdenlive:original.mlt_service">avformat-novalidate</property>
  <property name="kdenlive:original.meta.media.nb_streams">1</property>
  <property name="kdenlive:original.meta.media.0.stream.type">video</property>
  <property name="kdenlive:original.meta.media.0.stream.frame_rate">60</property>
  <property name="kdenlive:original.meta.media.0.stream.sample_aspect_ratio">0</property>
  <property name="kdenlive:original.meta.media.0.codec.width">1920</property>
  <property name="kdenlive:original.meta.media.0.codec.height">1080</property>
  <property name="kdenlive:original.meta.media.0.codec.rotate">0</property>
  <property name="kdenlive:original.meta.media.0.codec.pix_fmt">yuv420p</property>
  <property name="kdenlive:original.meta.media.0.codec.sample_aspect_ratio">0</property>
  <property name="kdenlive:original.meta.media.0.codec.colorspace">709</property>
  <property name="kdenlive:original.meta.media.0.codec.name">h264</property>
  <property name="kdenlive:original.meta.media.0.codec.long_name">H.264 / AVC / MPEG-4 AVC / MPEG-4 part 10</property>
  <property name="kdenlive:original.meta.media.0.codec.bit_rate">559576</property>
  <property name="kdenlive:original.meta.attr.0.stream.handler_name.markup">VideoHandler</property>
  <property name="kdenlive:original.meta.attr.0.stream.vendor_id.markup">[0][0][0][0]</property>
  <property name="kdenlive:original.meta.attr.0.stream.encoder.markup">Lavc60.3.100 libx264</property>
  <property name="kdenlive:original.meta.attr.major_brand.markup">isom</property>
  <property name="kdenlive:original.meta.attr.minor_version.markup">512</property>
  <property name="kdenlive:original.meta.attr.compatible_brands.markup">isomiso2avc1mp41</property>
  <property name="kdenlive:original.meta.attr.encoder.markup">Lavf60.3.100</property>
  <property name="kdenlive:original.meta.attr.comment.markup">Rendered with Manim Community v0.17.3</property>
  <property name="kdenlive:original.seekable">1</property>
  <property name="kdenlive:original.width">1920</property>
  <property name="kdenlive:original.height">1080</property>
  <property name="kdenlive:original.meta.media.sample_aspect_num">1</property>
  <property name="kdenlive:original.meta.media.sample_aspect_den">1</property>
  <property name="kdenlive:original.format">3</property>
  <property name="kdenlive:original.audio_index">-1</property>
  <property name="kdenlive:original.video_index">0</property>
  <property name="kdenlive:original.meta.media.frame_rate_num">60</property>
  <property name="kdenlive:original.meta.media.frame_rate_den">1</property>
  <property name="kdenlive:original.meta.media.colorspace">709</property>
  <property name="kdenlive:original.meta.media.color_trc">2</property>
  <property name="kdenlive:original.meta.media.has_b_frames">2</property>
  <property name="kdenlive:original.meta.media.width">1920</property>
  <property name="kdenlive:original.meta.media.height">1080</property>
  <property name="kdenlive:original.meta.media.color_range">mpeg</property>
  <property name="kdenlive:original.meta.media.top_field_first">0</property>
  <property name="kdenlive:original.meta.media.progressive">1</property>
  <property name="kdenlive:original.kdenlive:clip_type">2</property>
  <property name="kdenlive:original.kdenlive:folderid">16</property>
  <property name="kdenlive:original.kdenlive:id">45</property>
  <property name="kdenlive:original.mute_on_pause">0</property>
  <property name="kdenlive:original.kdenlive:file_size">71579</property>
  <property name="kdenlive:original.kdenlive:file_hash">eaa296fb8c3fb62f3eb19ff81cdd7544</property>
  <property name="kdenlive:original.backup">1</property>
  <property name="meta.media.nb_streams">1</property>
  <property name="meta.media.0.stream.type">video</property>
  <property name="meta.media.0.stream.frame_rate">60</property>
  <property name="meta.media.0.stream.sample_aspect_ratio">0</property>
  <property name="meta.media.0.codec.width">640</property>
  <property name="meta.media.0.codec.height">360</property>
  <property name="meta.media.0.codec.rotate">0</property>
  <property name="meta.media.0.codec.pix_fmt">yuvj420p</property>
  <property name="meta.media.0.codec.sample_aspect_ratio">0</property>
  <property name="meta.media.0.codec.colorspace">601</property>
  <property name="meta.media.0.codec.name">mjpeg</property>
  <property name="meta.media.0.codec.long_name">MJPEG (Motion JPEG)</property>
  <property name="meta.media.0.codec.bit_rate">0</property>
  <property name="meta.attr.0.stream.HANDLER_NAME.markup">VideoHandler</property>
  <property name="meta.attr.0.stream.VENDOR_ID.markup">[0][0][0][0]</property>
  <property name="meta.attr.0.stream.ENCODER.markup">Lavc60.3.100 mjpeg</property>
  <property name="meta.attr.0.stream.DURATION.markup">00:00:01.000000000</property>
  <property name="meta.attr.COMMENT.markup">Rendered with Manim Community v0.17.3</property>
  <property name="meta.attr.MAJOR_BRAND.markup">isom</property>
  <property name="meta.attr.MINOR_VERSION.markup">512</property>
  <property name="meta.attr.COMPATIBLE_BRANDS.markup">isomiso2avc1mp41</property>
  <property name="meta.attr.ENCODER.markup">Lavf60.3.100</property>
  <property name="meta.media.sample_aspect_num">1</property>
  <property name="meta.media.sample_aspect_den">1</property>
  <property name="meta.media.frame_rate_num">60</property>
  <property name="meta.media.frame_rate_den">1</property>
  <property name="meta.media.colorspace">601</property>
  <property name="meta.media.color_trc">2</property>
  <property name="meta.media.has_b_frames">0</property>
  <property name="meta.media.width">640</property>
  <property name="meta.media.height">360</property>
  <property name="meta.media.color_range">full</property>
  <property name="xml">was here</property>
  <property name="meta.media.top_field_first">0</property>
  <property name="meta.media.progressive">1</property>
  <property name="set.test_audio">1</property>
  <property name="set.test_image">0</property>
 </chain>
 <chain id="chain632" out="00:00:01.483">
  <property name="length">90</property>
  <property name="eof">pause</property>
  <property name="resource">/home/xiaoxiae/.cache/kdenlive/proxy/9fb7ad3ebcf62b403e1dcef0bc7d16f0.mkv</property>
  <property name="mlt_service">avformat-novalidate</property>
  <property name="seekable">1</property>
  <property name="format">3</property>
  <property name="audio_index">-1</property>
  <property name="video_index">0</property>
  <property name="kdenlive:clipname">125.mp4</property>
  <property name="kdenlive:clip_type">2</property>
  <property name="kdenlive:folderid">16</property>
  <property name="kdenlive:id">46</property>
  <property name="mute_on_pause">0</property>
  <property name="kdenlive:file_size">88768</property>
  <property name="kdenlive:file_hash">9fb7ad3ebcf62b403e1dcef0bc7d16f0</property>
  <property name="kdenlive:proxy">/home/xiaoxiae/.cache/kdenlive/proxy/9fb7ad3ebcf62b403e1dcef0bc7d16f0.mkv</property>
  <property name="kdenlive:originalurl">video/Farmer/125.mp4</property>
  <property name="kdenlive:original.mlt_type">chain</property>
  <property name="kdenlive:original.in">0</property>
  <property name="kdenlive:original.out">00:00:01.483</property>
  <property name="kdenlive:original.length">90</property>
  <property name="kdenlive:original.eof">pause</property>
  <property name="kdenlive:original.resource">video/Farmer/125.mp4</property>
  <property name="kdenlive:original.mlt_service">avformat-novalidate</property>
  <property name="kdenlive:original.meta.media.nb_streams">1</property>
  <property name="kdenlive:original.meta.media.0.stream.type">video</property>
  <property name="kdenlive:original.meta.media.0.stream.frame_rate">60</property>
  <property name="kdenlive:original.meta.media.0.stream.sample_aspect_ratio">0</property>
  <property name="kdenlive:original.meta.media.0.codec.width">1920</property>
  <property name="kdenlive:original.meta.media.0.codec.height">1080</property>
  <property name="kdenlive:original.meta.media.0.codec.rotate">0</property>
  <property name="kdenlive:original.meta.media.0.codec.pix_fmt">yuv420p</property>
  <property name="kdenlive:original.meta.media.0.codec.sample_aspect_ratio">0</property>
  <property name="kdenlive:original.meta.media.0.codec.colorspace">709</property>
  <property name="kdenlive:original.meta.media.0.codec.name">h264</property>
  <property name="kdenlive:original.meta.media.0.codec.long_name">H.264 / AVC / MPEG-4 AVC / MPEG-4 part 10</property>
  <property name="kdenlive:original.meta.media.0.codec.bit_rate">463189</property>
  <property name="kdenlive:original.meta.attr.0.stream.handler_name.markup">VideoHandler</property>
  <property name="kdenlive:original.meta.attr.0.stream.vendor_id.markup">[0][0][0][0]</property>
  <property name="kdenlive:original.meta.attr.0.stream.encoder.markup">Lavc60.3.100 libx264</property>
  <property name="kdenlive:original.meta.attr.major_brand.markup">isom</property>
  <property name="kdenlive:original.meta.attr.minor_version.markup">512</property>
  <property name="kdenlive:original.meta.attr.compatible_brands.markup">isomiso2avc1mp41</property>
  <property name="kdenlive:original.meta.attr.encoder.markup">Lavf60.3.100</property>
  <property name="kdenlive:original.meta.attr.comment.markup">Rendered with Manim Community v0.17.3</property>
  <property name="kdenlive:original.seekable">1</property>
  <property name="kdenlive:original.width">1920</property>
  <property name="kdenlive:original.height">1080</property>
  <property name="kdenlive:original.meta.media.sample_aspect_num">1</property>
  <property name="kdenlive:original.meta.media.sample_aspect_den">1</property>
  <property name="kdenlive:original.format">3</property>
  <property name="kdenlive:original.audio_index">-1</property>
  <property name="kdenlive:original.video_index">0</property>
  <property name="kdenlive:original.meta.media.frame_rate_num">60</property>
  <property name="kdenlive:original.meta.media.frame_rate_den">1</property>
  <property name="kdenlive:original.meta.media.colorspace">709</property>
  <property name="kdenlive:original.meta.media.color_trc">2</property>
  <property name="kdenlive:original.meta.media.has_b_frames">2</property>
  <property name="kdenlive:original.meta.media.width">1920</property>
  <property name="kdenlive:original.meta.media.height">1080</property>
  <property name="kdenlive:original.meta.media.color_range">mpeg</property>
  <property name="kdenlive:original.meta.media.top_field_first">0</property>
  <property name="kdenlive:original.meta.media.progressive">1</property>
  <property name="kdenlive:original.kdenlive:clip_type">2</property>
  <property name="kdenlive:original.kdenlive:folderid">16</property>
  <property name="kdenlive:original.kdenlive:id">46</property>
  <property name="kdenlive:original.mute_on_pause">0</property>
  <property name="kdenlive:original.kdenlive:file_size">88768</property>
  <property name="kdenlive:original.kdenlive:file_hash">9fb7ad3ebcf62b403e1dcef0bc7d16f0</property>
  <property name="kdenlive:original.backup">1</property>
  <property name="meta.media.nb_streams">1</property>
  <property name="meta.media.0.stream.type">video</property>
  <property name="meta.media.0.stream.frame_rate">60</property>
  <property name="meta.media.0.stream.sample_aspect_ratio">0</property>
  <property name="meta.media.0.codec.width">640</property>
  <property name="meta.media.0.codec.height">360</property>
  <property name="meta.media.0.codec.rotate">0</property>
  <property name="meta.media.0.codec.pix_fmt">yuvj420p</property>
  <property name="meta.media.0.codec.sample_aspect_ratio">0</property>
  <property name="meta.media.0.codec.colorspace">601</property>
  <property name="meta.media.0.codec.name">mjpeg</property>
  <property name="meta.media.0.codec.long_name">MJPEG (Motion JPEG)</property>
  <property name="meta.media.0.codec.bit_rate">0</property>
  <property name="meta.attr.0.stream.HANDLER_NAME.markup">VideoHandler</property>
  <property name="meta.attr.0.stream.VENDOR_ID.markup">[0][0][0][0]</property>
  <property name="meta.attr.0.stream.ENCODER.markup">Lavc60.3.100 mjpeg</property>
  <property name="meta.attr.0.stream.DURATION.markup">00:00:01.500000000</property>
  <property name="meta.attr.COMMENT.markup">Rendered with Manim Community v0.17.3</property>
  <property name="meta.attr.MAJOR_BRAND.markup">isom</property>
  <property name="meta.attr.MINOR_VERSION.markup">512</property>
  <property name="meta.attr.COMPATIBLE_BRANDS.markup">isomiso2avc1mp41</property>
  <property name="meta.attr.ENCODER.markup">Lavf60.3.100</property>
  <property name="meta.media.sample_aspect_num">1</property>
  <property name="meta.media.sample_aspect_den">1</property>
  <property name="meta.media.frame_rate_num">60</property>
  <property name="meta.media.frame_rate_den">1</property>
  <property name="meta.media.colorspace">601</property>
  <property name="meta.media.color_trc">2</property>
  <property name="meta.media.has_b_frames">0</property>
  <property name="meta.media.width">640</property>
  <property name="meta.media.height">360</property>
  <property name="meta.media.color_range">full</property>
  <property name="xml">was here</property>
  <property name="meta.media.top_field_first">0</property>
  <property name="meta.media.progressive">1</property>
  <property name="set.test_audio">1</property>
  <property name="set.test_image">0</property>
 </chain>
 <chain id="chain633" out="00:00:01.733">
  <property name="length">105</property>
  <property name="eof">pause</property>
  <property name="resource">/home/xiaoxiae/.cache/kdenlive/proxy/3417dd468f4e631dd2f3d24a54d58de1.mkv</property>
  <property name="mlt_service">avformat-novalidate</property>
  <property name="seekable">1</property>
  <property name="format">3</property>
  <property name="audio_index">-1</property>
  <property name="video_index">0</property>
  <property name="kdenlive:clipname">126.mp4</property>
  <property name="kdenlive:clip_type">2</property>
  <property name="kdenlive:folderid">16</property>
  <property name="kdenlive:id">47</property>
  <property name="mute_on_pause">0</property>
  <property name="kdenlive:file_size">159871</property>
  <property name="kdenlive:file_hash">3417dd468f4e631dd2f3d24a54d58de1</property>
  <property name="kdenlive:proxy">/home/xiaoxiae/.cache/kdenlive/proxy/3417dd468f4e631dd2f3d24a54d58de1.mkv</property>
  <property name="kdenlive:originalurl">video/Farmer/126.mp4</property>
  <property name="kdenlive:original.mlt_type">chain</property>
  <property name="kdenlive:original.in">0</property>
  <property name="kdenlive:original.out">00:00:01.733</property>
  <property name="kdenlive:original.length">105</property>
  <property name="kdenlive:original.eof">pause</property>
  <property name="kdenlive:original.resource">video/Farmer/126.mp4</property>
  <property name="kdenlive:original.mlt_service">avformat-novalidate</property>
  <property name="kdenlive:original.meta.media.nb_streams">1</property>
  <property name="kdenlive:original.meta.media.0.stream.type">video</property>
  <property name="kdenlive:original.meta.media.0.stream.frame_rate">60</property>
  <property name="kdenlive:original.meta.media.0.stream.sample_aspect_ratio">0</property>
  <property name="kdenlive:original.meta.media.0.codec.width">1920</property>
  <property name="kdenlive:original.meta.media.0.codec.height">1080</property>
  <property name="kdenlive:original.meta.media.0.codec.rotate">0</property>
  <property name="kdenlive:original.meta.media.0.codec.pix_fmt">yuv420p</property>
  <property name="kdenlive:original.meta.media.0.codec.sample_aspect_ratio">0</property>
  <property name="kdenlive:original.meta.media.0.codec.colorspace">709</property>
  <property name="kdenlive:original.meta.media.0.codec.name">h264</property>
  <property name="kdenlive:original.meta.media.0.codec.long_name">H.264 / AVC / MPEG-4 AVC / MPEG-4 part 10</property>
  <property name="kdenlive:original.meta.media.0.codec.bit_rate">721531</property>
  <property name="kdenlive:original.meta.attr.0.stream.handler_name.markup">VideoHandler</property>
  <property name="kdenlive:original.meta.attr.0.stream.vendor_id.markup">[0][0][0][0]</property>
  <property name="kdenlive:original.meta.attr.0.stream.encoder.markup">Lavc60.3.100 libx264</property>
  <property name="kdenlive:original.meta.attr.major_brand.markup">isom</property>
  <property name="kdenlive:original.meta.attr.minor_version.markup">512</property>
  <property name="kdenlive:original.meta.attr.compatible_brands.markup">isomiso2avc1mp41</property>
  <property name="kdenlive:original.meta.attr.encoder.markup">Lavf60.3.100</property>
  <property name="kdenlive:original.meta.attr.comment.markup">Rendered with Manim Community v0.17.3</property>
  <property name="kdenlive:original.seekable">1</property>
  <property name="kdenlive:original.width">1920</property>
  <property name="kdenlive:original.height">1080</property>
  <property name="kdenlive:original.meta.media.sample_aspect_num">1</property>
  <property name="kdenlive:original.meta.media.sample_aspect_den">1</property>
  <property name="kdenlive:original.format">3</property>
  <property name="kdenlive:original.audio_index">-1</property>
  <property name="kdenlive:original.video_index">0</property>
  <property name="kdenlive:original.meta.media.frame_rate_num">60</property>
  <property name="kdenlive:original.meta.media.frame_rate_den">1</property>
  <property name="kdenlive:original.meta.media.colorspace">709</property>
  <property name="kdenlive:original.meta.media.color_trc">2</property>
  <property name="kdenlive:original.meta.media.has_b_frames">2</property>
  <property name="kdenlive:original.meta.media.width">1920</property>
  <property name="kdenlive:original.meta.media.height">1080</property>
  <property name="kdenlive:original.meta.media.color_range">mpeg</property>
  <property name="kdenlive:original.meta.media.top_field_first">0</property>
  <property name="kdenlive:original.meta.media.progressive">1</property>
  <property name="kdenlive:original.kdenlive:clip_type">2</property>
  <property name="kdenlive:original.kdenlive:folderid">16</property>
  <property name="kdenlive:original.kdenlive:id">47</property>
  <property name="kdenlive:original.mute_on_pause">0</property>
  <property name="kdenlive:original.kdenlive:file_size">159871</property>
  <property name="kdenlive:original.kdenlive:file_hash">3417dd468f4e631dd2f3d24a54d58de1</property>
  <property name="kdenlive:original.backup">1</property>
  <property name="meta.media.nb_streams">1</property>
  <property name="meta.media.0.stream.type">video</property>
  <property name="meta.media.0.stream.frame_rate">60</property>
  <property name="meta.media.0.stream.sample_aspect_ratio">0</property>
  <property name="meta.media.0.codec.width">640</property>
  <property name="meta.media.0.codec.height">360</property>
  <property name="meta.media.0.codec.rotate">0</property>
  <property name="meta.media.0.codec.pix_fmt">yuvj420p</property>
  <property name="meta.media.0.codec.sample_aspect_ratio">0</property>
  <property name="meta.media.0.codec.colorspace">601</property>
  <property name="meta.media.0.codec.name">mjpeg</property>
  <property name="meta.media.0.codec.long_name">MJPEG (Motion JPEG)</property>
  <property name="meta.media.0.codec.bit_rate">0</property>
  <property name="meta.attr.0.stream.HANDLER_NAME.markup">VideoHandler</property>
  <property name="meta.attr.0.stream.VENDOR_ID.markup">[0][0][0][0]</property>
  <property name="meta.attr.0.stream.ENCODER.markup">Lavc60.3.100 mjpeg</property>
  <property name="meta.attr.0.stream.DURATION.markup">00:00:01.750000000</property>
  <property name="meta.attr.COMMENT.markup">Rendered with Manim Community v0.17.3</property>
  <property name="meta.attr.MAJOR_BRAND.markup">isom</property>
  <property name="meta.attr.MINOR_VERSION.markup">512</property>
  <property name="meta.attr.COMPATIBLE_BRANDS.markup">isomiso2avc1mp41</property>
  <property name="meta.attr.ENCODER.markup">Lavf60.3.100</property>
  <property name="meta.media.sample_aspect_num">1</property>
  <property name="meta.media.sample_aspect_den">1</property>
  <property name="meta.media.frame_rate_num">60</property>
  <property name="meta.media.frame_rate_den">1</property>
  <property name="meta.media.colorspace">601</property>
  <property name="meta.media.color_trc">2</property>
  <property name="meta.media.has_b_frames">0</property>
  <property name="meta.media.width">640</property>
  <property name="meta.media.height">360</property>
  <property name="meta.media.color_range">full</property>
  <property name="xml">was here</property>
  <property name="meta.media.top_field_first">0</property>
  <property name="meta.media.progressive">1</property>
  <property name="set.test_audio">1</property>
  <property name="set.test_image">0</property>
 </chain>
 <chain id="chain634" out="00:00:00.983">
  <property name="length">60</property>
  <property name="eof">pause</property>
  <property name="resource">/home/xiaoxiae/.cache/kdenlive/proxy/f0b12f657d4af54d3157d65556561424.mkv</property>
  <property name="mlt_service">avformat-novalidate</property>
  <property name="seekable">1</property>
  <property name="format">3</property>
  <property name="audio_index">-1</property>
  <property name="video_index">0</property>
  <property name="kdenlive:clipname">127.mp4</property>
  <property name="kdenlive:clip_type">2</property>
  <property name="kdenlive:folderid">16</property>
  <property name="kdenlive:id">48</property>
  <property name="mute_on_pause">0</property>
  <property name="kdenlive:file_size">89414</property>
  <property name="kdenlive:file_hash">f0b12f657d4af54d3157d65556561424</property>
  <property name="kdenlive:proxy">/home/xiaoxiae/.cache/kdenlive/proxy/f0b12f657d4af54d3157d65556561424.mkv</property>
  <property name="kdenlive:originalurl">video/Farmer/127.mp4</property>
  <property name="kdenlive:original.mlt_type">chain</property>
  <property name="kdenlive:original.in">0</property>
  <property name="kdenlive:original.out">00:00:00.983</property>
  <property name="kdenlive:original.length">60</property>
  <property name="kdenlive:original.eof">pause</property>
  <property name="kdenlive:original.resource">video/Farmer/127.mp4</property>
  <property name="kdenlive:original.mlt_service">avformat-novalidate</property>
  <property name="kdenlive:original.meta.media.nb_streams">1</property>
  <property name="kdenlive:original.meta.media.0.stream.type">video</property>
  <property name="kdenlive:original.meta.media.0.stream.frame_rate">60</property>
  <property name="kdenlive:original.meta.media.0.stream.sample_aspect_ratio">0</property>
  <property name="kdenlive:original.meta.media.0.codec.width">1920</property>
  <property name="kdenlive:original.meta.media.0.codec.height">1080</property>
  <property name="kdenlive:original.meta.media.0.codec.rotate">0</property>
  <property name="kdenlive:original.meta.media.0.codec.pix_fmt">yuv420p</property>
  <property name="kdenlive:original.meta.media.0.codec.sample_aspect_ratio">0</property>
  <property name="kdenlive:original.meta.media.0.codec.colorspace">709</property>
  <property name="kdenlive:original.meta.media.0.codec.name">h264</property>
  <property name="kdenlive:original.meta.media.0.codec.long_name">H.264 / AVC / MPEG-4 AVC / MPEG-4 part 10</property>
  <property name="kdenlive:original.meta.media.0.codec.bit_rate">702256</property>
  <property name="kdenlive:original.meta.attr.0.stream.handler_name.markup">VideoHandler</property>
  <property name="kdenlive:original.meta.attr.0.stream.vendor_id.markup">[0][0][0][0]</property>
  <property name="kdenlive:original.meta.attr.0.stream.encoder.markup">Lavc60.3.100 libx264</property>
  <property name="kdenlive:original.meta.attr.major_brand.markup">isom</property>
  <property name="kdenlive:original.meta.attr.minor_version.markup">512</property>
  <property name="kdenlive:original.meta.attr.compatible_brands.markup">isomiso2avc1mp41</property>
  <property name="kdenlive:original.meta.attr.encoder.markup">Lavf60.3.100</property>
  <property name="kdenlive:original.meta.attr.comment.markup">Rendered with Manim Community v0.17.3</property>
  <property name="kdenlive:original.seekable">1</property>
  <property name="kdenlive:original.width">1920</property>
  <property name="kdenlive:original.height">1080</property>
  <property name="kdenlive:original.meta.media.sample_aspect_num">1</property>
  <property name="kdenlive:original.meta.media.sample_aspect_den">1</property>
  <property name="kdenlive:original.format">3</property>
  <property name="kdenlive:original.audio_index">-1</property>
  <property name="kdenlive:original.video_index">0</property>
  <property name="kdenlive:original.meta.media.frame_rate_num">60</property>
  <property name="kdenlive:original.meta.media.frame_rate_den">1</property>
  <property name="kdenlive:original.meta.media.colorspace">709</property>
  <property name="kdenlive:original.meta.media.color_trc">2</property>
  <property name="kdenlive:original.meta.media.has_b_frames">2</property>
  <property name="kdenlive:original.meta.media.width">1920</property>
  <property name="kdenlive:original.meta.media.height">1080</property>
  <property name="kdenlive:original.meta.media.color_range">mpeg</property>
  <property name="kdenlive:original.meta.media.top_field_first">0</property>
  <property name="kdenlive:original.meta.media.progressive">1</property>
  <property name="kdenlive:original.kdenlive:clip_type">2</property>
  <property name="kdenlive:original.kdenlive:folderid">16</property>
  <property name="kdenlive:original.kdenlive:id">48</property>
  <property name="kdenlive:original.mute_on_pause">0</property>
  <property name="kdenlive:original.kdenlive:file_size">89414</property>
  <property name="kdenlive:original.kdenlive:file_hash">f0b12f657d4af54d3157d65556561424</property>
  <property name="kdenlive:original.backup">1</property>
  <property name="meta.media.nb_streams">1</property>
  <property name="meta.media.0.stream.type">video</property>
  <property name="meta.media.0.stream.frame_rate">60</property>
  <property name="meta.media.0.stream.sample_aspect_ratio">0</property>
  <property name="meta.media.0.codec.width">640</property>
  <property name="meta.media.0.codec.height">360</property>
  <property name="meta.media.0.codec.rotate">0</property>
  <property name="meta.media.0.codec.pix_fmt">yuvj420p</property>
  <property name="meta.media.0.codec.sample_aspect_ratio">0</property>
  <property name="meta.media.0.codec.colorspace">601</property>
  <property name="meta.media.0.codec.name">mjpeg</property>
  <property name="meta.media.0.codec.long_name">MJPEG (Motion JPEG)</property>
  <property name="meta.media.0.codec.bit_rate">0</property>
  <property name="meta.attr.0.stream.HANDLER_NAME.markup">VideoHandler</property>
  <property name="meta.attr.0.stream.VENDOR_ID.markup">[0][0][0][0]</property>
  <property name="meta.attr.0.stream.ENCODER.markup">Lavc60.3.100 mjpeg</property>
  <property name="meta.attr.0.stream.DURATION.markup">00:00:01.000000000</property>
  <property name="meta.attr.COMMENT.markup">Rendered with Manim Community v0.17.3</property>
  <property name="meta.attr.MAJOR_BRAND.markup">isom</property>
  <property name="meta.attr.MINOR_VERSION.markup">512</property>
  <property name="meta.attr.COMPATIBLE_BRANDS.markup">isomiso2avc1mp41</property>
  <property name="meta.attr.ENCODER.markup">Lavf60.3.100</property>
  <property name="meta.media.sample_aspect_num">1</property>
  <property name="meta.media.sample_aspect_den">1</property>
  <property name="meta.media.frame_rate_num">60</property>
  <property name="meta.media.frame_rate_den">1</property>
  <property name="meta.media.colorspace">601</property>
  <property name="meta.media.color_trc">2</property>
  <property name="meta.media.has_b_frames">0</property>
  <property name="meta.media.width">640</property>
  <property name="meta.media.height">360</property>
  <property name="meta.media.color_range">full</property>
  <property name="xml">was here</property>
  <property name="meta.media.top_field_first">0</property>
  <property name="meta.media.progressive">1</property>
  <property name="set.test_audio">1</property>
  <property name="set.test_image">0</property>
 </chain>
 <chain id="chain635" out="00:00:00.983">
  <property name="length">60</property>
  <property name="eof">pause</property>
  <property name="resource">/home/xiaoxiae/.cache/kdenlive/proxy/94b48d026c6b8edcd60464e24ed25d7a.mkv</property>
  <property name="mlt_service">avformat-novalidate</property>
  <property name="seekable">1</property>
  <property name="format">3</property>
  <property name="audio_index">-1</property>
  <property name="video_index">0</property>
  <property name="kdenlive:clipname">128.mp4</property>
  <property name="kdenlive:clip_type">2</property>
  <property name="kdenlive:folderid">16</property>
  <property name="kdenlive:id">49</property>
  <property name="mute_on_pause">0</property>
  <property name="kdenlive:file_size">97319</property>
  <property name="kdenlive:file_hash">94b48d026c6b8edcd60464e24ed25d7a</property>
  <property name="kdenlive:proxy">/home/xiaoxiae/.cache/kdenlive/proxy/94b48d026c6b8edcd60464e24ed25d7a.mkv</property>
  <property name="kdenlive:originalurl">video/Farmer/128.mp4</property>
  <property name="kdenlive:original.mlt_type">chain</property>
  <property name="kdenlive:original.in">0</property>
  <property name="kdenlive:original.out">00:00:00.983</property>
  <property name="kdenlive:original.length">60</property>
  <property name="kdenlive:original.eof">pause</property>
  <property name="kdenlive:original.resource">video/Farmer/128.mp4</property>
  <property name="kdenlive:original.mlt_service">avformat-novalidate</property>
  <property name="kdenlive:original.meta.media.nb_streams">1</property>
  <property name="kdenlive:original.meta.media.0.stream.type">video</property>
  <property name="kdenlive:original.meta.media.0.stream.frame_rate">60</property>
  <property name="kdenlive:original.meta.media.0.stream.sample_aspect_ratio">0</property>
  <property name="kdenlive:original.meta.media.0.codec.width">1920</property>
  <property name="kdenlive:original.meta.media.0.codec.height">1080</property>
  <property name="kdenlive:original.meta.media.0.codec.rotate">0</property>
  <property name="kdenlive:original.meta.media.0.codec.pix_fmt">yuv420p</property>
  <property name="kdenlive:original.meta.media.0.codec.sample_aspect_ratio">0</property>
  <property name="kdenlive:original.meta.media.0.codec.colorspace">709</property>
  <property name="kdenlive:original.meta.media.0.codec.name">h264</property>
  <property name="kdenlive:original.meta.media.0.codec.long_name">H.264 / AVC / MPEG-4 AVC / MPEG-4 part 10</property>
  <property name="kdenlive:original.meta.media.0.codec.bit_rate">765624</property>
  <property name="kdenlive:original.meta.attr.0.stream.handler_name.markup">VideoHandler</property>
  <property name="kdenlive:original.meta.attr.0.stream.vendor_id.markup">[0][0][0][0]</property>
  <property name="kdenlive:original.meta.attr.0.stream.encoder.markup">Lavc60.3.100 libx264</property>
  <property name="kdenlive:original.meta.attr.major_brand.markup">isom</property>
  <property name="kdenlive:original.meta.attr.minor_version.markup">512</property>
  <property name="kdenlive:original.meta.attr.compatible_brands.markup">isomiso2avc1mp41</property>
  <property name="kdenlive:original.meta.attr.encoder.markup">Lavf60.3.100</property>
  <property name="kdenlive:original.meta.attr.comment.markup">Rendered with Manim Community v0.17.3</property>
  <property name="kdenlive:original.seekable">1</property>
  <property name="kdenlive:original.width">1920</property>
  <property name="kdenlive:original.height">1080</property>
  <property name="kdenlive:original.meta.media.sample_aspect_num">1</property>
  <property name="kdenlive:original.meta.media.sample_aspect_den">1</property>
  <property name="kdenlive:original.format">3</property>
  <property name="kdenlive:original.audio_index">-1</property>
  <property name="kdenlive:original.video_index">0</property>
  <property name="kdenlive:original.meta.media.frame_rate_num">60</property>
  <property name="kdenlive:original.meta.media.frame_rate_den">1</property>
  <property name="kdenlive:original.meta.media.colorspace">709</property>
  <property name="kdenlive:original.meta.media.color_trc">2</property>
  <property name="kdenlive:original.meta.media.has_b_frames">2</property>
  <property name="kdenlive:original.meta.media.width">1920</property>
  <property name="kdenlive:original.meta.media.height">1080</property>
  <property name="kdenlive:original.meta.media.color_range">mpeg</property>
  <property name="kdenlive:original.meta.media.top_field_first">0</property>
  <property name="kdenlive:original.meta.media.progressive">1</property>
  <property name="kdenlive:original.kdenlive:clip_type">2</property>
  <property name="kdenlive:original.kdenlive:folderid">16</property>
  <property name="kdenlive:original.kdenlive:id">49</property>
  <property name="kdenlive:original.mute_on_pause">0</property>
  <property name="kdenlive:original.kdenlive:file_size">97319</property>
  <property name="kdenlive:original.kdenlive:file_hash">94b48d026c6b8edcd60464e24ed25d7a</property>
  <property name="kdenlive:original.backup">1</property>
  <property name="meta.media.nb_streams">1</property>
  <property name="meta.media.0.stream.type">video</property>
  <property name="meta.media.0.stream.frame_rate">60</property>
  <property name="meta.media.0.stream.sample_aspect_ratio">0</property>
  <property name="meta.media.0.codec.width">640</property>
  <property name="meta.media.0.codec.height">360</property>
  <property name="meta.media.0.codec.rotate">0</property>
  <property name="meta.media.0.codec.pix_fmt">yuvj420p</property>
  <property name="meta.media.0.codec.sample_aspect_ratio">0</property>
  <property name="meta.media.0.codec.colorspace">601</property>
  <property name="meta.media.0.codec.name">mjpeg</property>
  <property name="meta.media.0.codec.long_name">MJPEG (Motion JPEG)</property>
  <property name="meta.media.0.codec.bit_rate">0</property>
  <property name="meta.attr.0.stream.HANDLER_NAME.markup">VideoHandler</property>
  <property name="meta.attr.0.stream.VENDOR_ID.markup">[0][0][0][0]</property>
  <property name="meta.attr.0.stream.ENCODER.markup">Lavc60.3.100 mjpeg</property>
  <property name="meta.attr.0.stream.DURATION.markup">00:00:01.000000000</property>
  <property name="meta.attr.COMMENT.markup">Rendered with Manim Community v0.17.3</property>
  <property name="meta.attr.MAJOR_BRAND.markup">isom</property>
  <property name="meta.attr.MINOR_VERSION.markup">512</property>
  <property name="meta.attr.COMPATIBLE_BRANDS.markup">isomiso2avc1mp41</property>
  <property name="meta.attr.ENCODER.markup">Lavf60.3.100</property>
  <property name="meta.media.sample_aspect_num">1</property>
  <property name="meta.media.sample_aspect_den">1</property>
  <property name="meta.media.frame_rate_num">60</property>
  <property name="meta.media.frame_rate_den">1</property>
  <property name="meta.media.colorspace">601</property>
  <property name="meta.media.color_trc">2</property>
  <property name="meta.media.has_b_frames">0</property>
  <property name="meta.media.width">640</property>
  <property name="meta.media.height">360</property>
  <property name="meta.media.color_range">full</property>
  <property name="xml">was here</property>
  <property name="meta.media.top_field_first">0</property>
  <property name="meta.media.progressive">1</property>
  <property name="set.test_audio">1</property>
  <property name="set.test_image">0</property>
 </chain>
 <chain id="chain636" out="00:00:00.983">
  <property name="length">60</property>
  <property name="eof">pause</property>
  <property name="resource">/home/xiaoxiae/.cache/kdenlive/proxy/132e19edd93a5d08456e7309520cd6f6.mkv</property>
  <property name="mlt_service">avformat-novalidate</property>
  <property name="seekable">1</property>
  <property name="format">3</property>
  <property name="audio_index">-1</property>
  <property name="video_index">0</property>
  <property name="kdenlive:clipname">129.mp4</property>
  <property name="kdenlive:clip_type">2</property>
  <property name="kdenlive:folderid">16</property>
  <property name="kdenlive:id">50</property>
  <property name="mute_on_pause">0</property>
  <property name="kdenlive:file_size">97690</property>
  <property name="kdenlive:file_hash">132e19edd93a5d08456e7309520cd6f6</property>
  <property name="kdenlive:proxy">/home/xiaoxiae/.cache/kdenlive/proxy/132e19edd93a5d08456e7309520cd6f6.mkv</property>
  <property name="kdenlive:originalurl">video/Farmer/129.mp4</property>
  <property name="kdenlive:original.mlt_type">chain</property>
  <property name="kdenlive:original.in">0</property>
  <property name="kdenlive:original.out">00:00:00.983</property>
  <property name="kdenlive:original.length">60</property>
  <property name="kdenlive:original.eof">pause</property>
  <property name="kdenlive:original.resource">video/Farmer/129.mp4</property>
  <property name="kdenlive:original.mlt_service">avformat-novalidate</property>
  <property name="kdenlive:original.meta.media.nb_streams">1</property>
  <property name="kdenlive:original.meta.media.0.stream.type">video</property>
  <property name="kdenlive:original.meta.media.0.stream.frame_rate">60</property>
  <property name="kdenlive:original.meta.media.0.stream.sample_aspect_ratio">0</property>
  <property name="kdenlive:original.meta.media.0.codec.width">1920</property>
  <property name="kdenlive:original.meta.media.0.codec.height">1080</property>
  <property name="kdenlive:original.meta.media.0.codec.rotate">0</property>
  <property name="kdenlive:original.meta.media.0.codec.pix_fmt">yuv420p</property>
  <property name="kdenlive:original.meta.media.0.codec.sample_aspect_ratio">0</property>
  <property name="kdenlive:original.meta.media.0.codec.colorspace">709</property>
  <property name="kdenlive:original.meta.media.0.codec.name">h264</property>
  <property name="kdenlive:original.meta.media.0.codec.long_name">H.264 / AVC / MPEG-4 AVC / MPEG-4 part 10</property>
  <property name="kdenlive:original.meta.media.0.codec.bit_rate">768464</property>
  <property name="kdenlive:original.meta.attr.0.stream.handler_name.markup">VideoHandler</property>
  <property name="kdenlive:original.meta.attr.0.stream.vendor_id.markup">[0][0][0][0]</property>
  <property name="kdenlive:original.meta.attr.0.stream.encoder.markup">Lavc60.3.100 libx264</property>
  <property name="kdenlive:original.meta.attr.major_brand.markup">isom</property>
  <property name="kdenlive:original.meta.attr.minor_version.markup">512</property>
  <property name="kdenlive:original.meta.attr.compatible_brands.markup">isomiso2avc1mp41</property>
  <property name="kdenlive:original.meta.attr.encoder.markup">Lavf60.3.100</property>
  <property name="kdenlive:original.meta.attr.comment.markup">Rendered with Manim Community v0.17.3</property>
  <property name="kdenlive:original.seekable">1</property>
  <property name="kdenlive:original.width">1920</property>
  <property name="kdenlive:original.height">1080</property>
  <property name="kdenlive:original.meta.media.sample_aspect_num">1</property>
  <property name="kdenlive:original.meta.media.sample_aspect_den">1</property>
  <property name="kdenlive:original.format">3</property>
  <property name="kdenlive:original.audio_index">-1</property>
  <property name="kdenlive:original.video_index">0</property>
  <property name="kdenlive:original.meta.media.frame_rate_num">60</property>
  <property name="kdenlive:original.meta.media.frame_rate_den">1</property>
  <property name="kdenlive:original.meta.media.colorspace">709</property>
  <property name="kdenlive:original.meta.media.color_trc">2</property>
  <property name="kdenlive:original.meta.media.has_b_frames">2</property>
  <property name="kdenlive:original.meta.media.width">1920</property>
  <property name="kdenlive:original.meta.media.height">1080</property>
  <property name="kdenlive:original.meta.media.color_range">mpeg</property>
  <property name="kdenlive:original.meta.media.top_field_first">0</property>
  <property name="kdenlive:original.meta.media.progressive">1</property>
  <property name="kdenlive:original.kdenlive:clip_type">2</property>
  <property name="kdenlive:original.kdenlive:folderid">16</property>
  <property name="kdenlive:original.kdenlive:id">50</property>
  <property name="kdenlive:original.mute_on_pause">0</property>
  <property name="kdenlive:original.kdenlive:file_size">97690</property>
  <property name="kdenlive:original.kdenlive:file_hash">132e19edd93a5d08456e7309520cd6f6</property>
  <property name="kdenlive:original.backup">1</property>
  <property name="meta.media.nb_streams">1</property>
  <property name="meta.media.0.stream.type">video</property>
  <property name="meta.media.0.stream.frame_rate">60</property>
  <property name="meta.media.0.stream.sample_aspect_ratio">0</property>
  <property name="meta.media.0.codec.width">640</property>
  <property name="meta.media.0.codec.height">360</property>
  <property name="meta.media.0.codec.rotate">0</property>
  <property name="meta.media.0.codec.pix_fmt">yuvj420p</property>
  <property name="meta.media.0.codec.sample_aspect_ratio">0</property>
  <property name="meta.media.0.codec.colorspace">601</property>
  <property name="meta.media.0.codec.name">mjpeg</property>
  <property name="meta.media.0.codec.long_name">MJPEG (Motion JPEG)</property>
  <property name="meta.media.0.codec.bit_rate">0</property>
  <property name="meta.attr.0.stream.HANDLER_NAME.markup">VideoHandler</property>
  <property name="meta.attr.0.stream.VENDOR_ID.markup">[0][0][0][0]</property>
  <property name="meta.attr.0.stream.ENCODER.markup">Lavc60.3.100 mjpeg</property>
  <property name="meta.attr.0.stream.DURATION.markup">00:00:01.000000000</property>
  <property name="meta.attr.COMMENT.markup">Rendered with Manim Community v0.17.3</property>
  <property name="meta.attr.MAJOR_BRAND.markup">isom</property>
  <property name="meta.attr.MINOR_VERSION.markup">512</property>
  <property name="meta.attr.COMPATIBLE_BRANDS.markup">isomiso2avc1mp41</property>
  <property name="meta.attr.ENCODER.markup">Lavf60.3.100</property>
  <property name="meta.media.sample_aspect_num">1</property>
  <property name="meta.media.sample_aspect_den">1</property>
  <property name="meta.media.frame_rate_num">60</property>
  <property name="meta.media.frame_rate_den">1</property>
  <property name="meta.media.colorspace">601</property>
  <property name="meta.media.color_trc">2</property>
  <property name="meta.media.has_b_frames">0</property>
  <property name="meta.media.width">640</property>
  <property name="meta.media.height">360</property>
  <property name="meta.media.color_range">full</property>
  <property name="xml">was here</property>
  <property name="meta.media.top_field_first">0</property>
  <property name="meta.media.progressive">1</property>
  <property name="set.test_audio">1</property>
  <property name="set.test_image">0</property>
 </chain>
 <chain id="chain637" out="00:00:00.983">
  <property name="length">60</property>
  <property name="eof">pause</property>
  <property name="resource">/home/xiaoxiae/.cache/kdenlive/proxy/01d11373b5a50d66fc0365d4ab31f38b.mkv</property>
  <property name="mlt_service">avformat-novalidate</property>
  <property name="seekable">1</property>
  <property name="format">3</property>
  <property name="audio_index">-1</property>
  <property name="video_index">0</property>
  <property name="kdenlive:clipname">130.mp4</property>
  <property name="kdenlive:clip_type">2</property>
  <property name="kdenlive:folderid">16</property>
  <property name="kdenlive:id">52</property>
  <property name="mute_on_pause">0</property>
  <property name="kdenlive:file_size">107214</property>
  <property name="kdenlive:file_hash">01d11373b5a50d66fc0365d4ab31f38b</property>
  <property name="kdenlive:proxy">/home/xiaoxiae/.cache/kdenlive/proxy/01d11373b5a50d66fc0365d4ab31f38b.mkv</property>
  <property name="kdenlive:originalurl">video/Farmer/130.mp4</property>
  <property name="kdenlive:original.mlt_type">chain</property>
  <property name="kdenlive:original.in">0</property>
  <property name="kdenlive:original.out">00:00:00.983</property>
  <property name="kdenlive:original.length">60</property>
  <property name="kdenlive:original.eof">pause</property>
  <property name="kdenlive:original.resource">video/Farmer/130.mp4</property>
  <property name="kdenlive:original.mlt_service">avformat-novalidate</property>
  <property name="kdenlive:original.meta.media.nb_streams">1</property>
  <property name="kdenlive:original.meta.media.0.stream.type">video</property>
  <property name="kdenlive:original.meta.media.0.stream.frame_rate">60</property>
  <property name="kdenlive:original.meta.media.0.stream.sample_aspect_ratio">0</property>
  <property name="kdenlive:original.meta.media.0.codec.width">1920</property>
  <property name="kdenlive:original.meta.media.0.codec.height">1080</property>
  <property name="kdenlive:original.meta.media.0.codec.rotate">0</property>
  <property name="kdenlive:original.meta.media.0.codec.pix_fmt">yuv420p</property>
  <property name="kdenlive:original.meta.media.0.codec.sample_aspect_ratio">0</property>
  <property name="kdenlive:original.meta.media.0.codec.colorspace">709</property>
  <property name="kdenlive:original.meta.media.0.codec.name">h264</property>
  <property name="kdenlive:original.meta.media.0.codec.long_name">H.264 / AVC / MPEG-4 AVC / MPEG-4 part 10</property>
  <property name="kdenlive:original.meta.media.0.codec.bit_rate">844720</property>
  <property name="kdenlive:original.meta.attr.0.stream.handler_name.markup">VideoHandler</property>
  <property name="kdenlive:original.meta.attr.0.stream.vendor_id.markup">[0][0][0][0]</property>
  <property name="kdenlive:original.meta.attr.0.stream.encoder.markup">Lavc60.3.100 libx264</property>
  <property name="kdenlive:original.meta.attr.major_brand.markup">isom</property>
  <property name="kdenlive:original.meta.attr.minor_version.markup">512</property>
  <property name="kdenlive:original.meta.attr.compatible_brands.markup">isomiso2avc1mp41</property>
  <property name="kdenlive:original.meta.attr.encoder.markup">Lavf60.3.100</property>
  <property name="kdenlive:original.meta.attr.comment.markup">Rendered with Manim Community v0.17.3</property>
  <property name="kdenlive:original.seekable">1</property>
  <property name="kdenlive:original.width">1920</property>
  <property name="kdenlive:original.height">1080</property>
  <property name="kdenlive:original.meta.media.sample_aspect_num">1</property>
  <property name="kdenlive:original.meta.media.sample_aspect_den">1</property>
  <property name="kdenlive:original.format">3</property>
  <property name="kdenlive:original.audio_index">-1</property>
  <property name="kdenlive:original.video_index">0</property>
  <property name="kdenlive:original.meta.media.frame_rate_num">60</property>
  <property name="kdenlive:original.meta.media.frame_rate_den">1</property>
  <property name="kdenlive:original.meta.media.colorspace">709</property>
  <property name="kdenlive:original.meta.media.color_trc">2</property>
  <property name="kdenlive:original.meta.media.has_b_frames">2</property>
  <property name="kdenlive:original.meta.media.width">1920</property>
  <property name="kdenlive:original.meta.media.height">1080</property>
  <property name="kdenlive:original.meta.media.color_range">mpeg</property>
  <property name="kdenlive:original.meta.media.top_field_first">0</property>
  <property name="kdenlive:original.meta.media.progressive">1</property>
  <property name="kdenlive:original.kdenlive:clip_type">2</property>
  <property name="kdenlive:original.kdenlive:folderid">16</property>
  <property name="kdenlive:original.kdenlive:id">52</property>
  <property name="kdenlive:original.mute_on_pause">0</property>
  <property name="kdenlive:original.kdenlive:file_size">107214</property>
  <property name="kdenlive:original.kdenlive:file_hash">01d11373b5a50d66fc0365d4ab31f38b</property>
  <property name="kdenlive:original.backup">1</property>
  <property name="meta.media.nb_streams">1</property>
  <property name="meta.media.0.stream.type">video</property>
  <property name="meta.media.0.stream.frame_rate">60</property>
  <property name="meta.media.0.stream.sample_aspect_ratio">0</property>
  <property name="meta.media.0.codec.width">640</property>
  <property name="meta.media.0.codec.height">360</property>
  <property name="meta.media.0.codec.rotate">0</property>
  <property name="meta.media.0.codec.pix_fmt">yuvj420p</property>
  <property name="meta.media.0.codec.sample_aspect_ratio">0</property>
  <property name="meta.media.0.codec.colorspace">601</property>
  <property name="meta.media.0.codec.name">mjpeg</property>
  <property name="meta.media.0.codec.long_name">MJPEG (Motion JPEG)</property>
  <property name="meta.media.0.codec.bit_rate">0</property>
  <property name="meta.attr.0.stream.HANDLER_NAME.markup">VideoHandler</property>
  <property name="meta.attr.0.stream.VENDOR_ID.markup">[0][0][0][0]</property>
  <property name="meta.attr.0.stream.ENCODER.markup">Lavc60.3.100 mjpeg</property>
  <property name="meta.attr.0.stream.DURATION.markup">00:00:01.000000000</property>
  <property name="meta.attr.COMMENT.markup">Rendered with Manim Community v0.17.3</property>
  <property name="meta.attr.MAJOR_BRAND.markup">isom</property>
  <property name="meta.attr.MINOR_VERSION.markup">512</property>
  <property name="meta.attr.COMPATIBLE_BRANDS.markup">isomiso2avc1mp41</property>
  <property name="meta.attr.ENCODER.markup">Lavf60.3.100</property>
  <property name="meta.media.sample_aspect_num">1</property>
  <property name="meta.media.sample_aspect_den">1</property>
  <property name="meta.media.frame_rate_num">60</property>
  <property name="meta.media.frame_rate_den">1</property>
  <property name="meta.media.colorspace">601</property>
  <property name="meta.media.color_trc">2</property>
  <property name="meta.media.has_b_frames">0</property>
  <property name="meta.media.width">640</property>
  <property name="meta.media.height">360</property>
  <property name="meta.media.color_range">full</property>
  <property name="xml">was here</property>
  <property name="meta.media.top_field_first">0</property>
  <property name="meta.media.progressive">1</property>
  <property name="set.test_audio">1</property>
  <property name="set.test_image">0</property>
 </chain>
 <chain id="chain638" out="00:00:00.983">
  <property name="length">60</property>
  <property name="eof">pause</property>
  <property name="resource">/home/xiaoxiae/.cache/kdenlive/proxy/7f457fab847c82147101feb6e0e5f5e6.mkv</property>
  <property name="mlt_service">avformat-novalidate</property>
  <property name="seekable">1</property>
  <property name="format">3</property>
  <property name="audio_index">-1</property>
  <property name="video_index">0</property>
  <property name="kdenlive:clipname">131.mp4</property>
  <property name="kdenlive:clip_type">2</property>
  <property name="kdenlive:folderid">16</property>
  <property name="kdenlive:id">53</property>
  <property name="mute_on_pause">0</property>
  <property name="kdenlive:file_size">108562</property>
  <property name="kdenlive:file_hash">7f457fab847c82147101feb6e0e5f5e6</property>
  <property name="kdenlive:proxy">/home/xiaoxiae/.cache/kdenlive/proxy/7f457fab847c82147101feb6e0e5f5e6.mkv</property>
  <property name="kdenlive:originalurl">video/Farmer/131.mp4</property>
  <property name="kdenlive:original.mlt_type">chain</property>
  <property name="kdenlive:original.in">0</property>
  <property name="kdenlive:original.out">00:00:00.983</property>
  <property name="kdenlive:original.length">60</property>
  <property name="kdenlive:original.eof">pause</property>
  <property name="kdenlive:original.resource">video/Farmer/131.mp4</property>
  <property name="kdenlive:original.mlt_service">avformat-novalidate</property>
  <property name="kdenlive:original.meta.media.nb_streams">1</property>
  <property name="kdenlive:original.meta.media.0.stream.type">video</property>
  <property name="kdenlive:original.meta.media.0.stream.frame_rate">60</property>
  <property name="kdenlive:original.meta.media.0.stream.sample_aspect_ratio">0</property>
  <property name="kdenlive:original.meta.media.0.codec.width">1920</property>
  <property name="kdenlive:original.meta.media.0.codec.height">1080</property>
  <property name="kdenlive:original.meta.media.0.codec.rotate">0</property>
  <property name="kdenlive:original.meta.media.0.codec.pix_fmt">yuv420p</property>
  <property name="kdenlive:original.meta.media.0.codec.sample_aspect_ratio">0</property>
  <property name="kdenlive:original.meta.media.0.codec.colorspace">709</property>
  <property name="kdenlive:original.meta.media.0.codec.name">h264</property>
  <property name="kdenlive:original.meta.media.0.codec.long_name">H.264 / AVC / MPEG-4 AVC / MPEG-4 part 10</property>
  <property name="kdenlive:original.meta.media.0.codec.bit_rate">855440</property>
  <property name="kdenlive:original.meta.attr.0.stream.handler_name.markup">VideoHandler</property>
  <property name="kdenlive:original.meta.attr.0.stream.vendor_id.markup">[0][0][0][0]</property>
  <property name="kdenlive:original.meta.attr.0.stream.encoder.markup">Lavc60.3.100 libx264</property>
  <property name="kdenlive:original.meta.attr.major_brand.markup">isom</property>
  <property name="kdenlive:original.meta.attr.minor_version.markup">512</property>
  <property name="kdenlive:original.meta.attr.compatible_brands.markup">isomiso2avc1mp41</property>
  <property name="kdenlive:original.meta.attr.encoder.markup">Lavf60.3.100</property>
  <property name="kdenlive:original.meta.attr.comment.markup">Rendered with Manim Community v0.17.3</property>
  <property name="kdenlive:original.seekable">1</property>
  <property name="kdenlive:original.width">1920</property>
  <property name="kdenlive:original.height">1080</property>
  <property name="kdenlive:original.meta.media.sample_aspect_num">1</property>
  <property name="kdenlive:original.meta.media.sample_aspect_den">1</property>
  <property name="kdenlive:original.format">3</property>
  <property name="kdenlive:original.audio_index">-1</property>
  <property name="kdenlive:original.video_index">0</property>
  <property name="kdenlive:original.meta.media.frame_rate_num">60</property>
  <property name="kdenlive:original.meta.media.frame_rate_den">1</property>
  <property name="kdenlive:original.meta.media.colorspace">709</property>
  <property name="kdenlive:original.meta.media.color_trc">2</property>
  <property name="kdenlive:original.meta.media.has_b_frames">2</property>
  <property name="kdenlive:original.meta.media.width">1920</property>
  <property name="kdenlive:original.meta.media.height">1080</property>
  <property name="kdenlive:original.meta.media.color_range">mpeg</property>
  <property name="kdenlive:original.meta.media.top_field_first">0</property>
  <property name="kdenlive:original.meta.media.progressive">1</property>
  <property name="kdenlive:original.kdenlive:clip_type">2</property>
  <property name="kdenlive:original.kdenlive:folderid">16</property>
  <property name="kdenlive:original.kdenlive:id">53</property>
  <property name="kdenlive:original.mute_on_pause">0</property>
  <property name="kdenlive:original.kdenlive:file_size">108562</property>
  <property name="kdenlive:original.kdenlive:file_hash">7f457fab847c82147101feb6e0e5f5e6</property>
  <property name="kdenlive:original.backup">1</property>
  <property name="meta.media.nb_streams">1</property>
  <property name="meta.media.0.stream.type">video</property>
  <property name="meta.media.0.stream.frame_rate">60</property>
  <property name="meta.media.0.stream.sample_aspect_ratio">0</property>
  <property name="meta.media.0.codec.width">640</property>
  <property name="meta.media.0.codec.height">360</property>
  <property name="meta.media.0.codec.rotate">0</property>
  <property name="meta.media.0.codec.pix_fmt">yuvj420p</property>
  <property name="meta.media.0.codec.sample_aspect_ratio">0</property>
  <property name="meta.media.0.codec.colorspace">601</property>
  <property name="meta.media.0.codec.name">mjpeg</property>
  <property name="meta.media.0.codec.long_name">MJPEG (Motion JPEG)</property>
  <property name="meta.media.0.codec.bit_rate">0</property>
  <property name="meta.attr.0.stream.HANDLER_NAME.markup">VideoHandler</property>
  <property name="meta.attr.0.stream.VENDOR_ID.markup">[0][0][0][0]</property>
  <property name="meta.attr.0.stream.ENCODER.markup">Lavc60.3.100 mjpeg</property>
  <property name="meta.attr.0.stream.DURATION.markup">00:00:01.000000000</property>
  <property name="meta.attr.COMMENT.markup">Rendered with Manim Community v0.17.3</property>
  <property name="meta.attr.MAJOR_BRAND.markup">isom</property>
  <property name="meta.attr.MINOR_VERSION.markup">512</property>
  <property name="meta.attr.COMPATIBLE_BRANDS.markup">isomiso2avc1mp41</property>
  <property name="meta.attr.ENCODER.markup">Lavf60.3.100</property>
  <property name="meta.media.sample_aspect_num">1</property>
  <property name="meta.media.sample_aspect_den">1</property>
  <property name="meta.media.frame_rate_num">60</property>
  <property name="meta.media.frame_rate_den">1</property>
  <property name="meta.media.colorspace">601</property>
  <property name="meta.media.color_trc">2</property>
  <property name="meta.media.has_b_frames">0</property>
  <property name="meta.media.width">640</property>
  <property name="meta.media.height">360</property>
  <property name="meta.media.color_range">full</property>
  <property name="xml">was here</property>
  <property name="meta.media.top_field_first">0</property>
  <property name="meta.media.progressive">1</property>
  <property name="set.test_audio">1</property>
  <property name="set.test_image">0</property>
 </chain>
 <chain id="chain639" out="00:00:01.733">
  <property name="length">105</property>
  <property name="eof">pause</property>
  <property name="resource">/home/xiaoxiae/.cache/kdenlive/proxy/2e5303840473c85e6275b528a9fceadc.mkv</property>
  <property name="mlt_service">avformat-novalidate</property>
  <property name="seekable">1</property>
  <property name="format">3</property>
  <property name="audio_index">-1</property>
  <property name="video_index">0</property>
  <property name="kdenlive:clipname">132.mp4</property>
  <property name="kdenlive:clip_type">2</property>
  <property name="kdenlive:folderid">16</property>
  <property name="kdenlive:id">54</property>
  <property name="mute_on_pause">0</property>
  <property name="kdenlive:file_size">443255</property>
  <property name="kdenlive:file_hash">2e5303840473c85e6275b528a9fceadc</property>
  <property name="kdenlive:proxy">/home/xiaoxiae/.cache/kdenlive/proxy/2e5303840473c85e6275b528a9fceadc.mkv</property>
  <property name="kdenlive:originalurl">video/Farmer/132.mp4</property>
  <property name="kdenlive:original.mlt_type">chain</property>
  <property name="kdenlive:original.in">0</property>
  <property name="kdenlive:original.out">00:00:01.733</property>
  <property name="kdenlive:original.length">105</property>
  <property name="kdenlive:original.eof">pause</property>
  <property name="kdenlive:original.resource">video/Farmer/132.mp4</property>
  <property name="kdenlive:original.mlt_service">avformat-novalidate</property>
  <property name="kdenlive:original.meta.media.nb_streams">1</property>
  <property name="kdenlive:original.meta.media.0.stream.type">video</property>
  <property name="kdenlive:original.meta.media.0.stream.frame_rate">60</property>
  <property name="kdenlive:original.meta.media.0.stream.sample_aspect_ratio">0</property>
  <property name="kdenlive:original.meta.media.0.codec.width">1920</property>
  <property name="kdenlive:original.meta.media.0.codec.height">1080</property>
  <property name="kdenlive:original.meta.media.0.codec.rotate">0</property>
  <property name="kdenlive:original.meta.media.0.codec.pix_fmt">yuv420p</property>
  <property name="kdenlive:original.meta.media.0.codec.sample_aspect_ratio">0</property>
  <property name="kdenlive:original.meta.media.0.codec.colorspace">709</property>
  <property name="kdenlive:original.meta.media.0.codec.name">h264</property>
  <property name="kdenlive:original.meta.media.0.codec.long_name">H.264 / AVC / MPEG-4 AVC / MPEG-4 part 10</property>
  <property name="kdenlive:original.meta.media.0.codec.bit_rate">2017110</property>
  <property name="kdenlive:original.meta.attr.0.stream.handler_name.markup">VideoHandler</property>
  <property name="kdenlive:original.meta.attr.0.stream.vendor_id.markup">[0][0][0][0]</property>
  <property name="kdenlive:original.meta.attr.0.stream.encoder.markup">Lavc60.3.100 libx264</property>
  <property name="kdenlive:original.meta.attr.major_brand.markup">isom</property>
  <property name="kdenlive:original.meta.attr.minor_version.markup">512</property>
  <property name="kdenlive:original.meta.attr.compatible_brands.markup">isomiso2avc1mp41</property>
  <property name="kdenlive:original.meta.attr.encoder.markup">Lavf60.3.100</property>
  <property name="kdenlive:original.meta.attr.comment.markup">Rendered with Manim Community v0.17.3</property>
  <property name="kdenlive:original.seekable">1</property>
  <property name="kdenlive:original.width">1920</property>
  <property name="kdenlive:original.height">1080</property>
  <property name="kdenlive:original.meta.media.sample_aspect_num">1</property>
  <property name="kdenlive:original.meta.media.sample_aspect_den">1</property>
  <property name="kdenlive:original.format">3</property>
  <property name="kdenlive:original.audio_index">-1</property>
  <property name="kdenlive:original.video_index">0</property>
  <property name="kdenlive:original.meta.media.frame_rate_num">60</property>
  <property name="kdenlive:original.meta.media.frame_rate_den">1</property>
  <property name="kdenlive:original.meta.media.colorspace">709</property>
  <property name="kdenlive:original.meta.media.color_trc">2</property>
  <property name="kdenlive:original.meta.media.has_b_frames">2</property>
  <property name="kdenlive:original.meta.media.width">1920</property>
  <property name="kdenlive:original.meta.media.height">1080</property>
  <property name="kdenlive:original.meta.media.color_range">mpeg</property>
  <property name="kdenlive:original.meta.media.top_field_first">0</property>
  <property name="kdenlive:original.meta.media.progressive">1</property>
  <property name="kdenlive:original.kdenlive:clip_type">2</property>
  <property name="kdenlive:original.kdenlive:folderid">16</property>
  <property name="kdenlive:original.kdenlive:id">54</property>
  <property name="kdenlive:original.mute_on_pause">0</property>
  <property name="kdenlive:original.kdenlive:file_size">443255</property>
  <property name="kdenlive:original.kdenlive:file_hash">2e5303840473c85e6275b528a9fceadc</property>
  <property name="kdenlive:original.backup">1</property>
  <property name="meta.media.nb_streams">1</property>
  <property name="meta.media.0.stream.type">video</property>
  <property name="meta.media.0.stream.frame_rate">60</property>
  <property name="meta.media.0.stream.sample_aspect_ratio">0</property>
  <property name="meta.media.0.codec.width">640</property>
  <property name="meta.media.0.codec.height">360</property>
  <property name="meta.media.0.codec.rotate">0</property>
  <property name="meta.media.0.codec.pix_fmt">yuvj420p</property>
  <property name="meta.media.0.codec.sample_aspect_ratio">0</property>
  <property name="meta.media.0.codec.colorspace">601</property>
  <property name="meta.media.0.codec.name">mjpeg</property>
  <property name="meta.media.0.codec.long_name">MJPEG (Motion JPEG)</property>
  <property name="meta.media.0.codec.bit_rate">0</property>
  <property name="meta.attr.0.stream.HANDLER_NAME.markup">VideoHandler</property>
  <property name="meta.attr.0.stream.VENDOR_ID.markup">[0][0][0][0]</property>
  <property name="meta.attr.0.stream.ENCODER.markup">Lavc60.3.100 mjpeg</property>
  <property name="meta.attr.0.stream.DURATION.markup">00:00:01.750000000</property>
  <property name="meta.attr.COMMENT.markup">Rendered with Manim Community v0.17.3</property>
  <property name="meta.attr.MAJOR_BRAND.markup">isom</property>
  <property name="meta.attr.MINOR_VERSION.markup">512</property>
  <property name="meta.attr.COMPATIBLE_BRANDS.markup">isomiso2avc1mp41</property>
  <property name="meta.attr.ENCODER.markup">Lavf60.3.100</property>
  <property name="meta.media.sample_aspect_num">1</property>
  <property name="meta.media.sample_aspect_den">1</property>
  <property name="meta.media.frame_rate_num">60</property>
  <property name="meta.media.frame_rate_den">1</property>
  <property name="meta.media.colorspace">601</property>
  <property name="meta.media.color_trc">2</property>
  <property name="meta.media.has_b_frames">0</property>
  <property name="meta.media.width">640</property>
  <property name="meta.media.height">360</property>
  <property name="meta.media.color_range">full</property>
  <property name="xml">was here</property>
  <property name="meta.media.top_field_first">0</property>
  <property name="meta.media.progressive">1</property>
  <property name="set.test_audio">1</property>
  <property name="set.test_image">0</property>
 </chain>
 <producer id="producer4" in="00:00:00.000" out="00:00:19.983">
  <property name="length">1200</property>
  <property name="eof">pause</property>
  <property name="resource">0.050000:/home/xiaoxiae/.cache/kdenlive/proxy/86e52d336a5a41d59944e97bc58e7889.mkv</property>
  <property name="aspect_ratio">1</property>
  <property name="meta.media.nb_streams">1</property>
  <property name="meta.media.0.stream.type">video</property>
  <property name="meta.media.0.stream.frame_rate">60</property>
  <property name="meta.media.0.stream.sample_aspect_ratio">0</property>
  <property name="meta.media.0.codec.width">640</property>
  <property name="meta.media.0.codec.height">360</property>
  <property name="meta.media.0.codec.rotate">0</property>
  <property name="meta.media.0.codec.pix_fmt">yuvj420p</property>
  <property name="meta.media.0.codec.sample_aspect_ratio">0</property>
  <property name="meta.media.0.codec.colorspace">601</property>
  <property name="meta.media.0.codec.name">mjpeg</property>
  <property name="meta.media.0.codec.long_name">MJPEG (Motion JPEG)</property>
  <property name="meta.media.0.codec.bit_rate">0</property>
  <property name="meta.attr.0.stream.HANDLER_NAME.markup">VideoHandler</property>
  <property name="meta.attr.0.stream.VENDOR_ID.markup">[0][0][0][0]</property>
  <property name="meta.attr.0.stream.ENCODER.markup">Lavc60.3.100 mjpeg</property>
  <property name="meta.attr.0.stream.DURATION.markup">00:00:01.000000000</property>
  <property name="meta.attr.COMMENT.markup">Rendered with Manim Community v0.17.3</property>
  <property name="meta.attr.MAJOR_BRAND.markup">isom</property>
  <property name="meta.attr.MINOR_VERSION.markup">512</property>
  <property name="meta.attr.COMPATIBLE_BRANDS.markup">isomiso2avc1mp41</property>
  <property name="meta.attr.ENCODER.markup">Lavf60.3.100</property>
  <property name="seekable">1</property>
  <property name="meta.media.sample_aspect_num">1</property>
  <property name="meta.media.sample_aspect_den">1</property>
  <property name="format">3</property>
  <property name="audio_index">-1</property>
  <property name="video_index">0</property>
  <property name="warp_speed">0.05</property>
  <property name="warp_resource">/home/xiaoxiae/.cache/kdenlive/proxy/86e52d336a5a41d59944e97bc58e7889.mkv</property>
  <property name="mlt_service">timewarp</property>
  <property name="kdenlive:proxy">/home/xiaoxiae/.cache/kdenlive/proxy/86e52d336a5a41d59944e97bc58e7889.mkv</property>
  <property name="kdenlive:originalurl">video/Farmer/133.mp4</property>
  <property name="set.test_audio">1</property>
  <property name="set.test_image">0</property>
  <property name="kdenlive:id">55</property>
  <property name="warp_pitch">0</property>
  <property name="meta.media.frame_rate_num">60</property>
  <property name="meta.media.frame_rate_den">1</property>
  <property name="meta.media.colorspace">601</property>
  <property name="meta.media.color_trc">2</property>
  <property name="meta.media.has_b_frames">0</property>
  <property name="meta.media.width">640</property>
  <property name="meta.media.height">360</property>
  <property name="meta.media.color_range">full</property>
  <property name="meta.media.top_field_first">0</property>
  <property name="meta.media.progressive">1</property>
 </producer>
 <chain id="chain640" out="00:00:00.983">
  <property name="length">60</property>
  <property name="eof">pause</property>
  <property name="resource">/home/xiaoxiae/.cache/kdenlive/proxy/86e52d336a5a41d59944e97bc58e7889.mkv</property>
  <property name="mlt_service">avformat-novalidate</property>
  <property name="seekable">1</property>
  <property name="format">3</property>
  <property name="audio_index">-1</property>
  <property name="video_index">0</property>
  <property name="kdenlive:clipname">133.mp4</property>
  <property name="kdenlive:clip_type">2</property>
  <property name="kdenlive:folderid">16</property>
  <property name="kdenlive:id">55</property>
  <property name="mute_on_pause">0</property>
  <property name="kdenlive:file_size">66092</property>
  <property name="kdenlive:file_hash">86e52d336a5a41d59944e97bc58e7889</property>
  <property name="kdenlive:proxy">/home/xiaoxiae/.cache/kdenlive/proxy/86e52d336a5a41d59944e97bc58e7889.mkv</property>
  <property name="kdenlive:originalurl">video/Farmer/133.mp4</property>
  <property name="kdenlive:original.mlt_type">chain</property>
  <property name="kdenlive:original.in">0</property>
  <property name="kdenlive:original.out">00:00:00.983</property>
  <property name="kdenlive:original.length">60</property>
  <property name="kdenlive:original.eof">pause</property>
  <property name="kdenlive:original.resource">video/Farmer/133.mp4</property>
  <property name="kdenlive:original.mlt_service">avformat-novalidate</property>
  <property name="kdenlive:original.meta.media.nb_streams">1</property>
  <property name="kdenlive:original.meta.media.0.stream.type">video</property>
  <property name="kdenlive:original.meta.media.0.stream.frame_rate">60</property>
  <property name="kdenlive:original.meta.media.0.stream.sample_aspect_ratio">0</property>
  <property name="kdenlive:original.meta.media.0.codec.width">1920</property>
  <property name="kdenlive:original.meta.media.0.codec.height">1080</property>
  <property name="kdenlive:original.meta.media.0.codec.rotate">0</property>
  <property name="kdenlive:original.meta.media.0.codec.pix_fmt">yuv420p</property>
  <property name="kdenlive:original.meta.media.0.codec.sample_aspect_ratio">0</property>
  <property name="kdenlive:original.meta.media.0.codec.colorspace">709</property>
  <property name="kdenlive:original.meta.media.0.codec.name">h264</property>
  <property name="kdenlive:original.meta.media.0.codec.long_name">H.264 / AVC / MPEG-4 AVC / MPEG-4 part 10</property>
  <property name="kdenlive:original.meta.media.0.codec.bit_rate">515680</property>
  <property name="kdenlive:original.meta.attr.0.stream.handler_name.markup">VideoHandler</property>
  <property name="kdenlive:original.meta.attr.0.stream.vendor_id.markup">[0][0][0][0]</property>
  <property name="kdenlive:original.meta.attr.0.stream.encoder.markup">Lavc60.3.100 libx264</property>
  <property name="kdenlive:original.meta.attr.major_brand.markup">isom</property>
  <property name="kdenlive:original.meta.attr.minor_version.markup">512</property>
  <property name="kdenlive:original.meta.attr.compatible_brands.markup">isomiso2avc1mp41</property>
  <property name="kdenlive:original.meta.attr.encoder.markup">Lavf60.3.100</property>
  <property name="kdenlive:original.meta.attr.comment.markup">Rendered with Manim Community v0.17.3</property>
  <property name="kdenlive:original.seekable">1</property>
  <property name="kdenlive:original.width">1920</property>
  <property name="kdenlive:original.height">1080</property>
  <property name="kdenlive:original.meta.media.sample_aspect_num">1</property>
  <property name="kdenlive:original.meta.media.sample_aspect_den">1</property>
  <property name="kdenlive:original.format">3</property>
  <property name="kdenlive:original.audio_index">-1</property>
  <property name="kdenlive:original.video_index">0</property>
  <property name="kdenlive:original.meta.media.frame_rate_num">60</property>
  <property name="kdenlive:original.meta.media.frame_rate_den">1</property>
  <property name="kdenlive:original.meta.media.colorspace">709</property>
  <property name="kdenlive:original.meta.media.color_trc">2</property>
  <property name="kdenlive:original.meta.media.has_b_frames">2</property>
  <property name="kdenlive:original.meta.media.width">1920</property>
  <property name="kdenlive:original.meta.media.height">1080</property>
  <property name="kdenlive:original.meta.media.color_range">mpeg</property>
  <property name="kdenlive:original.meta.media.top_field_first">0</property>
  <property name="kdenlive:original.meta.media.progressive">1</property>
  <property name="kdenlive:original.kdenlive:clip_type">2</property>
  <property name="kdenlive:original.kdenlive:folderid">16</property>
  <property name="kdenlive:original.kdenlive:id">55</property>
  <property name="kdenlive:original.mute_on_pause">0</property>
  <property name="kdenlive:original.kdenlive:file_size">66092</property>
  <property name="kdenlive:original.kdenlive:file_hash">86e52d336a5a41d59944e97bc58e7889</property>
  <property name="kdenlive:original.backup">1</property>
  <property name="meta.media.nb_streams">1</property>
  <property name="meta.media.0.stream.type">video</property>
  <property name="meta.media.0.stream.frame_rate">60</property>
  <property name="meta.media.0.stream.sample_aspect_ratio">0</property>
  <property name="meta.media.0.codec.width">640</property>
  <property name="meta.media.0.codec.height">360</property>
  <property name="meta.media.0.codec.rotate">0</property>
  <property name="meta.media.0.codec.pix_fmt">yuvj420p</property>
  <property name="meta.media.0.codec.sample_aspect_ratio">0</property>
  <property name="meta.media.0.codec.colorspace">601</property>
  <property name="meta.media.0.codec.name">mjpeg</property>
  <property name="meta.media.0.codec.long_name">MJPEG (Motion JPEG)</property>
  <property name="meta.media.0.codec.bit_rate">0</property>
  <property name="meta.attr.0.stream.HANDLER_NAME.markup">VideoHandler</property>
  <property name="meta.attr.0.stream.VENDOR_ID.markup">[0][0][0][0]</property>
  <property name="meta.attr.0.stream.ENCODER.markup">Lavc60.3.100 mjpeg</property>
  <property name="meta.attr.0.stream.DURATION.markup">00:00:01.000000000</property>
  <property name="meta.attr.COMMENT.markup">Rendered with Manim Community v0.17.3</property>
  <property name="meta.attr.MAJOR_BRAND.markup">isom</property>
  <property name="meta.attr.MINOR_VERSION.markup">512</property>
  <property name="meta.attr.COMPATIBLE_BRANDS.markup">isomiso2avc1mp41</property>
  <property name="meta.attr.ENCODER.markup">Lavf60.3.100</property>
  <property name="meta.media.sample_aspect_num">1</property>
  <property name="meta.media.sample_aspect_den">1</property>
  <property name="meta.media.frame_rate_num">60</property>
  <property name="meta.media.frame_rate_den">1</property>
  <property name="meta.media.colorspace">601</property>
  <property name="meta.media.color_trc">2</property>
  <property name="meta.media.has_b_frames">0</property>
  <property name="meta.media.width">640</property>
  <property name="meta.media.height">360</property>
  <property name="meta.media.color_range">full</property>
  <property name="xml">was here</property>
  <property name="meta.media.top_field_first">0</property>
  <property name="meta.media.progressive">1</property>
  <property name="set.test_audio">1</property>
  <property name="set.test_image">0</property>
 </chain>
 <chain id="chain641" out="00:00:00.983">
  <property name="length">60</property>
  <property name="eof">pause</property>
  <property name="resource">/home/xiaoxiae/.cache/kdenlive/proxy/79f58e599bd0518c2791da64281244a4.mkv</property>
  <property name="mlt_service">avformat-novalidate</property>
  <property name="seekable">1</property>
  <property name="format">3</property>
  <property name="audio_index">-1</property>
  <property name="video_index">0</property>
  <property name="kdenlive:clipname">134.mp4</property>
  <property name="kdenlive:clip_type">2</property>
  <property name="kdenlive:folderid">16</property>
  <property name="kdenlive:id">56</property>
  <property name="mute_on_pause">0</property>
  <property name="kdenlive:file_size">60392</property>
  <property name="kdenlive:file_hash">79f58e599bd0518c2791da64281244a4</property>
  <property name="kdenlive:proxy">/home/xiaoxiae/.cache/kdenlive/proxy/79f58e599bd0518c2791da64281244a4.mkv</property>
  <property name="kdenlive:originalurl">video/Farmer/134.mp4</property>
  <property name="kdenlive:original.mlt_type">chain</property>
  <property name="kdenlive:original.in">0</property>
  <property name="kdenlive:original.out">00:00:00.983</property>
  <property name="kdenlive:original.length">60</property>
  <property name="kdenlive:original.eof">pause</property>
  <property name="kdenlive:original.resource">video/Farmer/134.mp4</property>
  <property name="kdenlive:original.mlt_service">avformat-novalidate</property>
  <property name="kdenlive:original.meta.media.nb_streams">1</property>
  <property name="kdenlive:original.meta.media.0.stream.type">video</property>
  <property name="kdenlive:original.meta.media.0.stream.frame_rate">60</property>
  <property name="kdenlive:original.meta.media.0.stream.sample_aspect_ratio">0</property>
  <property name="kdenlive:original.meta.media.0.codec.width">1920</property>
  <property name="kdenlive:original.meta.media.0.codec.height">1080</property>
  <property name="kdenlive:original.meta.media.0.codec.rotate">0</property>
  <property name="kdenlive:original.meta.media.0.codec.pix_fmt">yuv420p</property>
  <property name="kdenlive:original.meta.media.0.codec.sample_aspect_ratio">0</property>
  <property name="kdenlive:original.meta.media.0.codec.colorspace">709</property>
  <property name="kdenlive:original.meta.media.0.codec.name">h264</property>
  <property name="kdenlive:original.meta.media.0.codec.long_name">H.264 / AVC / MPEG-4 AVC / MPEG-4 part 10</property>
  <property name="kdenlive:original.meta.media.0.codec.bit_rate">470144</property>
  <property name="kdenlive:original.meta.attr.0.stream.handler_name.markup">VideoHandler</property>
  <property name="kdenlive:original.meta.attr.0.stream.vendor_id.markup">[0][0][0][0]</property>
  <property name="kdenlive:original.meta.attr.0.stream.encoder.markup">Lavc60.3.100 libx264</property>
  <property name="kdenlive:original.meta.attr.major_brand.markup">isom</property>
  <property name="kdenlive:original.meta.attr.minor_version.markup">512</property>
  <property name="kdenlive:original.meta.attr.compatible_brands.markup">isomiso2avc1mp41</property>
  <property name="kdenlive:original.meta.attr.encoder.markup">Lavf60.3.100</property>
  <property name="kdenlive:original.meta.attr.comment.markup">Rendered with Manim Community v0.17.3</property>
  <property name="kdenlive:original.seekable">1</property>
  <property name="kdenlive:original.width">1920</property>
  <property name="kdenlive:original.height">1080</property>
  <property name="kdenlive:original.meta.media.sample_aspect_num">1</property>
  <property name="kdenlive:original.meta.media.sample_aspect_den">1</property>
  <property name="kdenlive:original.format">3</property>
  <property name="kdenlive:original.audio_index">-1</property>
  <property name="kdenlive:original.video_index">0</property>
  <property name="kdenlive:original.meta.media.frame_rate_num">60</property>
  <property name="kdenlive:original.meta.media.frame_rate_den">1</property>
  <property name="kdenlive:original.meta.media.colorspace">709</property>
  <property name="kdenlive:original.meta.media.color_trc">2</property>
  <property name="kdenlive:original.meta.media.has_b_frames">2</property>
  <property name="kdenlive:original.meta.media.width">1920</property>
  <property name="kdenlive:original.meta.media.height">1080</property>
  <property name="kdenlive:original.meta.media.color_range">mpeg</property>
  <property name="kdenlive:original.meta.media.top_field_first">0</property>
  <property name="kdenlive:original.meta.media.progressive">1</property>
  <property name="kdenlive:original.kdenlive:clip_type">2</property>
  <property name="kdenlive:original.kdenlive:folderid">16</property>
  <property name="kdenlive:original.kdenlive:id">56</property>
  <property name="kdenlive:original.mute_on_pause">0</property>
  <property name="kdenlive:original.kdenlive:file_size">60392</property>
  <property name="kdenlive:original.kdenlive:file_hash">79f58e599bd0518c2791da64281244a4</property>
  <property name="kdenlive:original.backup">1</property>
  <property name="meta.media.nb_streams">1</property>
  <property name="meta.media.0.stream.type">video</property>
  <property name="meta.media.0.stream.frame_rate">60</property>
  <property name="meta.media.0.stream.sample_aspect_ratio">0</property>
  <property name="meta.media.0.codec.width">640</property>
  <property name="meta.media.0.codec.height">360</property>
  <property name="meta.media.0.codec.rotate">0</property>
  <property name="meta.media.0.codec.pix_fmt">yuvj420p</property>
  <property name="meta.media.0.codec.sample_aspect_ratio">0</property>
  <property name="meta.media.0.codec.colorspace">601</property>
  <property name="meta.media.0.codec.name">mjpeg</property>
  <property name="meta.media.0.codec.long_name">MJPEG (Motion JPEG)</property>
  <property name="meta.media.0.codec.bit_rate">0</property>
  <property name="meta.attr.0.stream.HANDLER_NAME.markup">VideoHandler</property>
  <property name="meta.attr.0.stream.VENDOR_ID.markup">[0][0][0][0]</property>
  <property name="meta.attr.0.stream.ENCODER.markup">Lavc60.3.100 mjpeg</property>
  <property name="meta.attr.0.stream.DURATION.markup">00:00:01.000000000</property>
  <property name="meta.attr.COMMENT.markup">Rendered with Manim Community v0.17.3</property>
  <property name="meta.attr.MAJOR_BRAND.markup">isom</property>
  <property name="meta.attr.MINOR_VERSION.markup">512</property>
  <property name="meta.attr.COMPATIBLE_BRANDS.markup">isomiso2avc1mp41</property>
  <property name="meta.attr.ENCODER.markup">Lavf60.3.100</property>
  <property name="meta.media.sample_aspect_num">1</property>
  <property name="meta.media.sample_aspect_den">1</property>
  <property name="meta.media.frame_rate_num">60</property>
  <property name="meta.media.frame_rate_den">1</property>
  <property name="meta.media.colorspace">601</property>
  <property name="meta.media.color_trc">2</property>
  <property name="meta.media.has_b_frames">0</property>
  <property name="meta.media.width">640</property>
  <property name="meta.media.height">360</property>
  <property name="meta.media.color_range">full</property>
  <property name="xml">was here</property>
  <property name="meta.media.top_field_first">0</property>
  <property name="meta.media.progressive">1</property>
  <property name="set.test_audio">1</property>
  <property name="set.test_image">0</property>
 </chain>
 <chain id="chain642" out="00:00:00.983">
  <property name="length">60</property>
  <property name="eof">pause</property>
  <property name="resource">/home/xiaoxiae/.cache/kdenlive/proxy/88d833ac719967dee1199e32c3a1514c.mkv</property>
  <property name="mlt_service">avformat-novalidate</property>
  <property name="seekable">1</property>
  <property name="format">3</property>
  <property name="audio_index">-1</property>
  <property name="video_index">0</property>
  <property name="kdenlive:clipname">135.mp4</property>
  <property name="kdenlive:clip_type">2</property>
  <property name="kdenlive:folderid">16</property>
  <property name="kdenlive:id">57</property>
  <property name="mute_on_pause">0</property>
  <property name="kdenlive:file_size">77622</property>
  <property name="kdenlive:file_hash">88d833ac719967dee1199e32c3a1514c</property>
  <property name="kdenlive:proxy">/home/xiaoxiae/.cache/kdenlive/proxy/88d833ac719967dee1199e32c3a1514c.mkv</property>
  <property name="kdenlive:originalurl">video/Farmer/135.mp4</property>
  <property name="kdenlive:original.mlt_type">chain</property>
  <property name="kdenlive:original.in">0</property>
  <property name="kdenlive:original.out">00:00:00.983</property>
  <property name="kdenlive:original.length">60</property>
  <property name="kdenlive:original.eof">pause</property>
  <property name="kdenlive:original.resource">video/Farmer/135.mp4</property>
  <property name="kdenlive:original.mlt_service">avformat-novalidate</property>
  <property name="kdenlive:original.meta.media.nb_streams">1</property>
  <property name="kdenlive:original.meta.media.0.stream.type">video</property>
  <property name="kdenlive:original.meta.media.0.stream.frame_rate">60</property>
  <property name="kdenlive:original.meta.media.0.stream.sample_aspect_ratio">0</property>
  <property name="kdenlive:original.meta.media.0.codec.width">1920</property>
  <property name="kdenlive:original.meta.media.0.codec.height">1080</property>
  <property name="kdenlive:original.meta.media.0.codec.rotate">0</property>
  <property name="kdenlive:original.meta.media.0.codec.pix_fmt">yuv420p</property>
  <property name="kdenlive:original.meta.media.0.codec.sample_aspect_ratio">0</property>
  <property name="kdenlive:original.meta.media.0.codec.colorspace">709</property>
  <property name="kdenlive:original.meta.media.0.codec.name">h264</property>
  <property name="kdenlive:original.meta.media.0.codec.long_name">H.264 / AVC / MPEG-4 AVC / MPEG-4 part 10</property>
  <property name="kdenlive:original.meta.media.0.codec.bit_rate">608048</property>
  <property name="kdenlive:original.meta.attr.0.stream.handler_name.markup">VideoHandler</property>
  <property name="kdenlive:original.meta.attr.0.stream.vendor_id.markup">[0][0][0][0]</property>
  <property name="kdenlive:original.meta.attr.0.stream.encoder.markup">Lavc60.3.100 libx264</property>
  <property name="kdenlive:original.meta.attr.major_brand.markup">isom</property>
  <property name="kdenlive:original.meta.attr.minor_version.markup">512</property>
  <property name="kdenlive:original.meta.attr.compatible_brands.markup">isomiso2avc1mp41</property>
  <property name="kdenlive:original.meta.attr.encoder.markup">Lavf60.3.100</property>
  <property name="kdenlive:original.meta.attr.comment.markup">Rendered with Manim Community v0.17.3</property>
  <property name="kdenlive:original.seekable">1</property>
  <property name="kdenlive:original.width">1920</property>
  <property name="kdenlive:original.height">1080</property>
  <property name="kdenlive:original.meta.media.sample_aspect_num">1</property>
  <property name="kdenlive:original.meta.media.sample_aspect_den">1</property>
  <property name="kdenlive:original.format">3</property>
  <property name="kdenlive:original.audio_index">-1</property>
  <property name="kdenlive:original.video_index">0</property>
  <property name="kdenlive:original.meta.media.frame_rate_num">60</property>
  <property name="kdenlive:original.meta.media.frame_rate_den">1</property>
  <property name="kdenlive:original.meta.media.colorspace">709</property>
  <property name="kdenlive:original.meta.media.color_trc">2</property>
  <property name="kdenlive:original.meta.media.has_b_frames">2</property>
  <property name="kdenlive:original.meta.media.width">1920</property>
  <property name="kdenlive:original.meta.media.height">1080</property>
  <property name="kdenlive:original.meta.media.color_range">mpeg</property>
  <property name="kdenlive:original.meta.media.top_field_first">0</property>
  <property name="kdenlive:original.meta.media.progressive">1</property>
  <property name="kdenlive:original.kdenlive:clip_type">2</property>
  <property name="kdenlive:original.kdenlive:folderid">16</property>
  <property name="kdenlive:original.kdenlive:id">57</property>
  <property name="kdenlive:original.mute_on_pause">0</property>
  <property name="kdenlive:original.kdenlive:file_size">77622</property>
  <property name="kdenlive:original.kdenlive:file_hash">88d833ac719967dee1199e32c3a1514c</property>
  <property name="kdenlive:original.backup">1</property>
  <property name="meta.media.nb_streams">1</property>
  <property name="meta.media.0.stream.type">video</property>
  <property name="meta.media.0.stream.frame_rate">60</property>
  <property name="meta.media.0.stream.sample_aspect_ratio">0</property>
  <property name="meta.media.0.codec.width">640</property>
  <property name="meta.media.0.codec.height">360</property>
  <property name="meta.media.0.codec.rotate">0</property>
  <property name="meta.media.0.codec.pix_fmt">yuvj420p</property>
  <property name="meta.media.0.codec.sample_aspect_ratio">0</property>
  <property name="meta.media.0.codec.colorspace">601</property>
  <property name="meta.media.0.codec.name">mjpeg</property>
  <property name="meta.media.0.codec.long_name">MJPEG (Motion JPEG)</property>
  <property name="meta.media.0.codec.bit_rate">0</property>
  <property name="meta.attr.0.stream.HANDLER_NAME.markup">VideoHandler</property>
  <property name="meta.attr.0.stream.VENDOR_ID.markup">[0][0][0][0]</property>
  <property name="meta.attr.0.stream.ENCODER.markup">Lavc60.3.100 mjpeg</property>
  <property name="meta.attr.0.stream.DURATION.markup">00:00:01.000000000</property>
  <property name="meta.attr.COMMENT.markup">Rendered with Manim Community v0.17.3</property>
  <property name="meta.attr.MAJOR_BRAND.markup">isom</property>
  <property name="meta.attr.MINOR_VERSION.markup">512</property>
  <property name="meta.attr.COMPATIBLE_BRANDS.markup">isomiso2avc1mp41</property>
  <property name="meta.attr.ENCODER.markup">Lavf60.3.100</property>
  <property name="meta.media.sample_aspect_num">1</property>
  <property name="meta.media.sample_aspect_den">1</property>
  <property name="meta.media.frame_rate_num">60</property>
  <property name="meta.media.frame_rate_den">1</property>
  <property name="meta.media.colorspace">601</property>
  <property name="meta.media.color_trc">2</property>
  <property name="meta.media.has_b_frames">0</property>
  <property name="meta.media.width">640</property>
  <property name="meta.media.height">360</property>
  <property name="meta.media.color_range">full</property>
  <property name="xml">was here</property>
  <property name="meta.media.top_field_first">0</property>
  <property name="meta.media.progressive">1</property>
  <property name="set.test_audio">1</property>
  <property name="set.test_image">0</property>
 </chain>
 <chain id="chain643" out="00:00:00.983">
  <property name="length">60</property>
  <property name="eof">pause</property>
  <property name="resource">/home/xiaoxiae/.cache/kdenlive/proxy/5232aee09d8453f827742d58f328cee3.mkv</property>
  <property name="mlt_service">avformat-novalidate</property>
  <property name="seekable">1</property>
  <property name="format">3</property>
  <property name="audio_index">-1</property>
  <property name="video_index">0</property>
  <property name="kdenlive:clipname">136.mp4</property>
  <property name="kdenlive:clip_type">2</property>
  <property name="kdenlive:folderid">16</property>
  <property name="kdenlive:id">58</property>
  <property name="mute_on_pause">0</property>
  <property name="kdenlive:file_size">53481</property>
  <property name="kdenlive:file_hash">5232aee09d8453f827742d58f328cee3</property>
  <property name="kdenlive:proxy">/home/xiaoxiae/.cache/kdenlive/proxy/5232aee09d8453f827742d58f328cee3.mkv</property>
  <property name="kdenlive:originalurl">video/Farmer/136.mp4</property>
  <property name="kdenlive:original.mlt_type">chain</property>
  <property name="kdenlive:original.in">0</property>
  <property name="kdenlive:original.out">00:00:00.983</property>
  <property name="kdenlive:original.length">60</property>
  <property name="kdenlive:original.eof">pause</property>
  <property name="kdenlive:original.resource">video/Farmer/136.mp4</property>
  <property name="kdenlive:original.mlt_service">avformat-novalidate</property>
  <property name="kdenlive:original.meta.media.nb_streams">1</property>
  <property name="kdenlive:original.meta.media.0.stream.type">video</property>
  <property name="kdenlive:original.meta.media.0.stream.frame_rate">60</property>
  <property name="kdenlive:original.meta.media.0.stream.sample_aspect_ratio">0</property>
  <property name="kdenlive:original.meta.media.0.codec.width">1920</property>
  <property name="kdenlive:original.meta.media.0.codec.height">1080</property>
  <property name="kdenlive:original.meta.media.0.codec.rotate">0</property>
  <property name="kdenlive:original.meta.media.0.codec.pix_fmt">yuv420p</property>
  <property name="kdenlive:original.meta.media.0.codec.sample_aspect_ratio">0</property>
  <property name="kdenlive:original.meta.media.0.codec.colorspace">709</property>
  <property name="kdenlive:original.meta.media.0.codec.name">h264</property>
  <property name="kdenlive:original.meta.media.0.codec.long_name">H.264 / AVC / MPEG-4 AVC / MPEG-4 part 10</property>
  <property name="kdenlive:original.meta.media.0.codec.bit_rate">414792</property>
  <property name="kdenlive:original.meta.attr.0.stream.handler_name.markup">VideoHandler</property>
  <property name="kdenlive:original.meta.attr.0.stream.vendor_id.markup">[0][0][0][0]</property>
  <property name="kdenlive:original.meta.attr.0.stream.encoder.markup">Lavc60.3.100 libx264</property>
  <property name="kdenlive:original.meta.attr.major_brand.markup">isom</property>
  <property name="kdenlive:original.meta.attr.minor_version.markup">512</property>
  <property name="kdenlive:original.meta.attr.compatible_brands.markup">isomiso2avc1mp41</property>
  <property name="kdenlive:original.meta.attr.encoder.markup">Lavf60.3.100</property>
  <property name="kdenlive:original.meta.attr.comment.markup">Rendered with Manim Community v0.17.3</property>
  <property name="kdenlive:original.seekable">1</property>
  <property name="kdenlive:original.width">1920</property>
  <property name="kdenlive:original.height">1080</property>
  <property name="kdenlive:original.meta.media.sample_aspect_num">1</property>
  <property name="kdenlive:original.meta.media.sample_aspect_den">1</property>
  <property name="kdenlive:original.format">3</property>
  <property name="kdenlive:original.audio_index">-1</property>
  <property name="kdenlive:original.video_index">0</property>
  <property name="kdenlive:original.meta.media.frame_rate_num">60</property>
  <property name="kdenlive:original.meta.media.frame_rate_den">1</property>
  <property name="kdenlive:original.meta.media.colorspace">709</property>
  <property name="kdenlive:original.meta.media.color_trc">2</property>
  <property name="kdenlive:original.meta.media.has_b_frames">2</property>
  <property name="kdenlive:original.meta.media.width">1920</property>
  <property name="kdenlive:original.meta.media.height">1080</property>
  <property name="kdenlive:original.meta.media.color_range">mpeg</property>
  <property name="kdenlive:original.meta.media.top_field_first">0</property>
  <property name="kdenlive:original.meta.media.progressive">1</property>
  <property name="kdenlive:original.kdenlive:clip_type">2</property>
  <property name="kdenlive:original.kdenlive:folderid">16</property>
  <property name="kdenlive:original.kdenlive:id">58</property>
  <property name="kdenlive:original.mute_on_pause">0</property>
  <property name="kdenlive:original.kdenlive:file_size">53481</property>
  <property name="kdenlive:original.kdenlive:file_hash">5232aee09d8453f827742d58f328cee3</property>
  <property name="kdenlive:original.backup">1</property>
  <property name="meta.media.nb_streams">1</property>
  <property name="meta.media.0.stream.type">video</property>
  <property name="meta.media.0.stream.frame_rate">60</property>
  <property name="meta.media.0.stream.sample_aspect_ratio">0</property>
  <property name="meta.media.0.codec.width">640</property>
  <property name="meta.media.0.codec.height">360</property>
  <property name="meta.media.0.codec.rotate">0</property>
  <property name="meta.media.0.codec.pix_fmt">yuvj420p</property>
  <property name="meta.media.0.codec.sample_aspect_ratio">0</property>
  <property name="meta.media.0.codec.colorspace">601</property>
  <property name="meta.media.0.codec.name">mjpeg</property>
  <property name="meta.media.0.codec.long_name">MJPEG (Motion JPEG)</property>
  <property name="meta.media.0.codec.bit_rate">0</property>
  <property name="meta.attr.0.stream.HANDLER_NAME.markup">VideoHandler</property>
  <property name="meta.attr.0.stream.VENDOR_ID.markup">[0][0][0][0]</property>
  <property name="meta.attr.0.stream.ENCODER.markup">Lavc60.3.100 mjpeg</property>
  <property name="meta.attr.0.stream.DURATION.markup">00:00:01.000000000</property>
  <property name="meta.attr.COMMENT.markup">Rendered with Manim Community v0.17.3</property>
  <property name="meta.attr.MAJOR_BRAND.markup">isom</property>
  <property name="meta.attr.MINOR_VERSION.markup">512</property>
  <property name="meta.attr.COMPATIBLE_BRANDS.markup">isomiso2avc1mp41</property>
  <property name="meta.attr.ENCODER.markup">Lavf60.3.100</property>
  <property name="meta.media.sample_aspect_num">1</property>
  <property name="meta.media.sample_aspect_den">1</property>
  <property name="meta.media.frame_rate_num">60</property>
  <property name="meta.media.frame_rate_den">1</property>
  <property name="meta.media.colorspace">601</property>
  <property name="meta.media.color_trc">2</property>
  <property name="meta.media.has_b_frames">0</property>
  <property name="meta.media.width">640</property>
  <property name="meta.media.height">360</property>
  <property name="meta.media.color_range">full</property>
  <property name="xml">was here</property>
  <property name="meta.media.top_field_first">0</property>
  <property name="meta.media.progressive">1</property>
  <property name="set.test_audio">1</property>
  <property name="set.test_image">0</property>
 </chain>
 <chain id="chain644" out="00:00:00.983">
  <property name="length">60</property>
  <property name="eof">pause</property>
  <property name="resource">/home/xiaoxiae/.cache/kdenlive/proxy/1ee3f429c008873d64a33aa0421665e3.mkv</property>
  <property name="mlt_service">avformat-novalidate</property>
  <property name="seekable">1</property>
  <property name="format">3</property>
  <property name="audio_index">-1</property>
  <property name="video_index">0</property>
  <property name="kdenlive:clipname">137.mp4</property>
  <property name="kdenlive:clip_type">2</property>
  <property name="kdenlive:folderid">16</property>
  <property name="kdenlive:id">59</property>
  <property name="mute_on_pause">0</property>
  <property name="kdenlive:file_size">54128</property>
  <property name="kdenlive:file_hash">1ee3f429c008873d64a33aa0421665e3</property>
  <property name="kdenlive:proxy">/home/xiaoxiae/.cache/kdenlive/proxy/1ee3f429c008873d64a33aa0421665e3.mkv</property>
  <property name="kdenlive:originalurl">video/Farmer/137.mp4</property>
  <property name="kdenlive:original.mlt_type">chain</property>
  <property name="kdenlive:original.in">0</property>
  <property name="kdenlive:original.out">00:00:00.983</property>
  <property name="kdenlive:original.length">60</property>
  <property name="kdenlive:original.eof">pause</property>
  <property name="kdenlive:original.resource">video/Farmer/137.mp4</property>
  <property name="kdenlive:original.mlt_service">avformat-novalidate</property>
  <property name="kdenlive:original.meta.media.nb_streams">1</property>
  <property name="kdenlive:original.meta.media.0.stream.type">video</property>
  <property name="kdenlive:original.meta.media.0.stream.frame_rate">60</property>
  <property name="kdenlive:original.meta.media.0.stream.sample_aspect_ratio">0</property>
  <property name="kdenlive:original.meta.media.0.codec.width">1920</property>
  <property name="kdenlive:original.meta.media.0.codec.height">1080</property>
  <property name="kdenlive:original.meta.media.0.codec.rotate">0</property>
  <property name="kdenlive:original.meta.media.0.codec.pix_fmt">yuv420p</property>
  <property name="kdenlive:original.meta.media.0.codec.sample_aspect_ratio">0</property>
  <property name="kdenlive:original.meta.media.0.codec.colorspace">709</property>
  <property name="kdenlive:original.meta.media.0.codec.name">h264</property>
  <property name="kdenlive:original.meta.media.0.codec.long_name">H.264 / AVC / MPEG-4 AVC / MPEG-4 part 10</property>
  <property name="kdenlive:original.meta.media.0.codec.bit_rate">419968</property>
  <property name="kdenlive:original.meta.attr.0.stream.handler_name.markup">VideoHandler</property>
  <property name="kdenlive:original.meta.attr.0.stream.vendor_id.markup">[0][0][0][0]</property>
  <property name="kdenlive:original.meta.attr.0.stream.encoder.markup">Lavc60.3.100 libx264</property>
  <property name="kdenlive:original.meta.attr.major_brand.markup">isom</property>
  <property name="kdenlive:original.meta.attr.minor_version.markup">512</property>
  <property name="kdenlive:original.meta.attr.compatible_brands.markup">isomiso2avc1mp41</property>
  <property name="kdenlive:original.meta.attr.encoder.markup">Lavf60.3.100</property>
  <property name="kdenlive:original.meta.attr.comment.markup">Rendered with Manim Community v0.17.3</property>
  <property name="kdenlive:original.seekable">1</property>
  <property name="kdenlive:original.width">1920</property>
  <property name="kdenlive:original.height">1080</property>
  <property name="kdenlive:original.meta.media.sample_aspect_num">1</property>
  <property name="kdenlive:original.meta.media.sample_aspect_den">1</property>
  <property name="kdenlive:original.format">3</property>
  <property name="kdenlive:original.audio_index">-1</property>
  <property name="kdenlive:original.video_index">0</property>
  <property name="kdenlive:original.meta.media.frame_rate_num">60</property>
  <property name="kdenlive:original.meta.media.frame_rate_den">1</property>
  <property name="kdenlive:original.meta.media.colorspace">709</property>
  <property name="kdenlive:original.meta.media.color_trc">2</property>
  <property name="kdenlive:original.meta.media.has_b_frames">2</property>
  <property name="kdenlive:original.meta.media.width">1920</property>
  <property name="kdenlive:original.meta.media.height">1080</property>
  <property name="kdenlive:original.meta.media.color_range">mpeg</property>
  <property name="kdenlive:original.meta.media.top_field_first">0</property>
  <property name="kdenlive:original.meta.media.progressive">1</property>
  <property name="kdenlive:original.kdenlive:clip_type">2</property>
  <property name="kdenlive:original.kdenlive:folderid">16</property>
  <property name="kdenlive:original.kdenlive:id">59</property>
  <property name="kdenlive:original.mute_on_pause">0</property>
  <property name="kdenlive:original.kdenlive:file_size">54128</property>
  <property name="kdenlive:original.kdenlive:file_hash">1ee3f429c008873d64a33aa0421665e3</property>
  <property name="kdenlive:original.backup">1</property>
  <property name="meta.media.nb_streams">1</property>
  <property name="meta.media.0.stream.type">video</property>
  <property name="meta.media.0.stream.frame_rate">60</property>
  <property name="meta.media.0.stream.sample_aspect_ratio">0</property>
  <property name="meta.media.0.codec.width">640</property>
  <property name="meta.media.0.codec.height">360</property>
  <property name="meta.media.0.codec.rotate">0</property>
  <property name="meta.media.0.codec.pix_fmt">yuvj420p</property>
  <property name="meta.media.0.codec.sample_aspect_ratio">0</property>
  <property name="meta.media.0.codec.colorspace">601</property>
  <property name="meta.media.0.codec.name">mjpeg</property>
  <property name="meta.media.0.codec.long_name">MJPEG (Motion JPEG)</property>
  <property name="meta.media.0.codec.bit_rate">0</property>
  <property name="meta.attr.0.stream.HANDLER_NAME.markup">VideoHandler</property>
  <property name="meta.attr.0.stream.VENDOR_ID.markup">[0][0][0][0]</property>
  <property name="meta.attr.0.stream.ENCODER.markup">Lavc60.3.100 mjpeg</property>
  <property name="meta.attr.0.stream.DURATION.markup">00:00:01.000000000</property>
  <property name="meta.attr.COMMENT.markup">Rendered with Manim Community v0.17.3</property>
  <property name="meta.attr.MAJOR_BRAND.markup">isom</property>
  <property name="meta.attr.MINOR_VERSION.markup">512</property>
  <property name="meta.attr.COMPATIBLE_BRANDS.markup">isomiso2avc1mp41</property>
  <property name="meta.attr.ENCODER.markup">Lavf60.3.100</property>
  <property name="meta.media.sample_aspect_num">1</property>
  <property name="meta.media.sample_aspect_den">1</property>
  <property name="meta.media.frame_rate_num">60</property>
  <property name="meta.media.frame_rate_den">1</property>
  <property name="meta.media.colorspace">601</property>
  <property name="meta.media.color_trc">2</property>
  <property name="meta.media.has_b_frames">0</property>
  <property name="meta.media.width">640</property>
  <property name="meta.media.height">360</property>
  <property name="meta.media.color_range">full</property>
  <property name="xml">was here</property>
  <property name="meta.media.top_field_first">0</property>
  <property name="meta.media.progressive">1</property>
  <property name="set.test_audio">1</property>
  <property name="set.test_image">0</property>
 </chain>
 <chain id="chain645" out="00:00:01.483">
  <property name="length">90</property>
  <property name="eof">pause</property>
  <property name="resource">/home/xiaoxiae/.cache/kdenlive/proxy/c2dc512aa87829183e55b62ff788e8ad.mkv</property>
  <property name="mlt_service">avformat-novalidate</property>
  <property name="seekable">1</property>
  <property name="format">3</property>
  <property name="audio_index">-1</property>
  <property name="video_index">0</property>
  <property name="kdenlive:clipname">138.mp4</property>
  <property name="kdenlive:clip_type">2</property>
  <property name="kdenlive:folderid">16</property>
  <property name="kdenlive:id">60</property>
  <property name="mute_on_pause">0</property>
  <property name="kdenlive:file_size">78373</property>
  <property name="kdenlive:file_hash">c2dc512aa87829183e55b62ff788e8ad</property>
  <property name="kdenlive:proxy">/home/xiaoxiae/.cache/kdenlive/proxy/c2dc512aa87829183e55b62ff788e8ad.mkv</property>
  <property name="kdenlive:originalurl">video/Farmer/138.mp4</property>
  <property name="kdenlive:original.mlt_type">chain</property>
  <property name="kdenlive:original.in">0</property>
  <property name="kdenlive:original.out">00:00:01.483</property>
  <property name="kdenlive:original.length">90</property>
  <property name="kdenlive:original.eof">pause</property>
  <property name="kdenlive:original.resource">video/Farmer/138.mp4</property>
  <property name="kdenlive:original.mlt_service">avformat-novalidate</property>
  <property name="kdenlive:original.meta.media.nb_streams">1</property>
  <property name="kdenlive:original.meta.media.0.stream.type">video</property>
  <property name="kdenlive:original.meta.media.0.stream.frame_rate">60</property>
  <property name="kdenlive:original.meta.media.0.stream.sample_aspect_ratio">0</property>
  <property name="kdenlive:original.meta.media.0.codec.width">1920</property>
  <property name="kdenlive:original.meta.media.0.codec.height">1080</property>
  <property name="kdenlive:original.meta.media.0.codec.rotate">0</property>
  <property name="kdenlive:original.meta.media.0.codec.pix_fmt">yuv420p</property>
  <property name="kdenlive:original.meta.media.0.codec.sample_aspect_ratio">0</property>
  <property name="kdenlive:original.meta.media.0.codec.colorspace">709</property>
  <property name="kdenlive:original.meta.media.0.codec.name">h264</property>
  <property name="kdenlive:original.meta.media.0.codec.long_name">H.264 / AVC / MPEG-4 AVC / MPEG-4 part 10</property>
  <property name="kdenlive:original.meta.media.0.codec.bit_rate">407792</property>
  <property name="kdenlive:original.meta.attr.0.stream.handler_name.markup">VideoHandler</property>
  <property name="kdenlive:original.meta.attr.0.stream.vendor_id.markup">[0][0][0][0]</property>
  <property name="kdenlive:original.meta.attr.0.stream.encoder.markup">Lavc60.3.100 libx264</property>
  <property name="kdenlive:original.meta.attr.major_brand.markup">isom</property>
  <property name="kdenlive:original.meta.attr.minor_version.markup">512</property>
  <property name="kdenlive:original.meta.attr.compatible_brands.markup">isomiso2avc1mp41</property>
  <property name="kdenlive:original.meta.attr.encoder.markup">Lavf60.3.100</property>
  <property name="kdenlive:original.meta.attr.comment.markup">Rendered with Manim Community v0.17.3</property>
  <property name="kdenlive:original.seekable">1</property>
  <property name="kdenlive:original.width">1920</property>
  <property name="kdenlive:original.height">1080</property>
  <property name="kdenlive:original.meta.media.sample_aspect_num">1</property>
  <property name="kdenlive:original.meta.media.sample_aspect_den">1</property>
  <property name="kdenlive:original.format">3</property>
  <property name="kdenlive:original.audio_index">-1</property>
  <property name="kdenlive:original.video_index">0</property>
  <property name="kdenlive:original.meta.media.frame_rate_num">60</property>
  <property name="kdenlive:original.meta.media.frame_rate_den">1</property>
  <property name="kdenlive:original.meta.media.colorspace">709</property>
  <property name="kdenlive:original.meta.media.color_trc">2</property>
  <property name="kdenlive:original.meta.media.has_b_frames">2</property>
  <property name="kdenlive:original.meta.media.width">1920</property>
  <property name="kdenlive:original.meta.media.height">1080</property>
  <property name="kdenlive:original.meta.media.color_range">mpeg</property>
  <property name="kdenlive:original.meta.media.top_field_first">0</property>
  <property name="kdenlive:original.meta.media.progressive">1</property>
  <property name="kdenlive:original.kdenlive:clip_type">2</property>
  <property name="kdenlive:original.kdenlive:folderid">16</property>
  <property name="kdenlive:original.kdenlive:id">60</property>
  <property name="kdenlive:original.mute_on_pause">0</property>
  <property name="kdenlive:original.kdenlive:file_size">78373</property>
  <property name="kdenlive:original.kdenlive:file_hash">c2dc512aa87829183e55b62ff788e8ad</property>
  <property name="kdenlive:original.backup">1</property>
  <property name="meta.media.nb_streams">1</property>
  <property name="meta.media.0.stream.type">video</property>
  <property name="meta.media.0.stream.frame_rate">60</property>
  <property name="meta.media.0.stream.sample_aspect_ratio">0</property>
  <property name="meta.media.0.codec.width">640</property>
  <property name="meta.media.0.codec.height">360</property>
  <property name="meta.media.0.codec.rotate">0</property>
  <property name="meta.media.0.codec.pix_fmt">yuvj420p</property>
  <property name="meta.media.0.codec.sample_aspect_ratio">0</property>
  <property name="meta.media.0.codec.colorspace">601</property>
  <property name="meta.media.0.codec.name">mjpeg</property>
  <property name="meta.media.0.codec.long_name">MJPEG (Motion JPEG)</property>
  <property name="meta.media.0.codec.bit_rate">0</property>
  <property name="meta.attr.0.stream.HANDLER_NAME.markup">VideoHandler</property>
  <property name="meta.attr.0.stream.VENDOR_ID.markup">[0][0][0][0]</property>
  <property name="meta.attr.0.stream.ENCODER.markup">Lavc60.3.100 mjpeg</property>
  <property name="meta.attr.0.stream.DURATION.markup">00:00:01.500000000</property>
  <property name="meta.attr.COMMENT.markup">Rendered with Manim Community v0.17.3</property>
  <property name="meta.attr.MAJOR_BRAND.markup">isom</property>
  <property name="meta.attr.MINOR_VERSION.markup">512</property>
  <property name="meta.attr.COMPATIBLE_BRANDS.markup">isomiso2avc1mp41</property>
  <property name="meta.attr.ENCODER.markup">Lavf60.3.100</property>
  <property name="meta.media.sample_aspect_num">1</property>
  <property name="meta.media.sample_aspect_den">1</property>
  <property name="meta.media.frame_rate_num">60</property>
  <property name="meta.media.frame_rate_den">1</property>
  <property name="meta.media.colorspace">601</property>
  <property name="meta.media.color_trc">2</property>
  <property name="meta.media.has_b_frames">0</property>
  <property name="meta.media.width">640</property>
  <property name="meta.media.height">360</property>
  <property name="meta.media.color_range">full</property>
  <property name="xml">was here</property>
  <property name="meta.media.top_field_first">0</property>
  <property name="meta.media.progressive">1</property>
  <property name="set.test_audio">1</property>
  <property name="set.test_image">0</property>
 </chain>
 <chain id="chain646" out="00:00:01.483">
  <property name="length">90</property>
  <property name="eof">pause</property>
  <property name="resource">/home/xiaoxiae/.cache/kdenlive/proxy/811548f4d7c20ec723ec7b539b62d183.mkv</property>
  <property name="mlt_service">avformat-novalidate</property>
  <property name="seekable">1</property>
  <property name="format">3</property>
  <property name="audio_index">-1</property>
  <property name="video_index">0</property>
  <property name="kdenlive:clipname">139.mp4</property>
  <property name="kdenlive:clip_type">2</property>
  <property name="kdenlive:folderid">16</property>
  <property name="kdenlive:id">61</property>
  <property name="mute_on_pause">0</property>
  <property name="kdenlive:file_size">86471</property>
  <property name="kdenlive:file_hash">811548f4d7c20ec723ec7b539b62d183</property>
  <property name="kdenlive:proxy">/home/xiaoxiae/.cache/kdenlive/proxy/811548f4d7c20ec723ec7b539b62d183.mkv</property>
  <property name="kdenlive:originalurl">video/Farmer/139.mp4</property>
  <property name="kdenlive:original.mlt_type">chain</property>
  <property name="kdenlive:original.in">0</property>
  <property name="kdenlive:original.out">00:00:01.483</property>
  <property name="kdenlive:original.length">90</property>
  <property name="kdenlive:original.eof">pause</property>
  <property name="kdenlive:original.resource">video/Farmer/139.mp4</property>
  <property name="kdenlive:original.mlt_service">avformat-novalidate</property>
  <property name="kdenlive:original.meta.media.nb_streams">1</property>
  <property name="kdenlive:original.meta.media.0.stream.type">video</property>
  <property name="kdenlive:original.meta.media.0.stream.frame_rate">60</property>
  <property name="kdenlive:original.meta.media.0.stream.sample_aspect_ratio">0</property>
  <property name="kdenlive:original.meta.media.0.codec.width">1920</property>
  <property name="kdenlive:original.meta.media.0.codec.height">1080</property>
  <property name="kdenlive:original.meta.media.0.codec.rotate">0</property>
  <property name="kdenlive:original.meta.media.0.codec.pix_fmt">yuv420p</property>
  <property name="kdenlive:original.meta.media.0.codec.sample_aspect_ratio">0</property>
  <property name="kdenlive:original.meta.media.0.codec.colorspace">709</property>
  <property name="kdenlive:original.meta.media.0.codec.name">h264</property>
  <property name="kdenlive:original.meta.media.0.codec.long_name">H.264 / AVC / MPEG-4 AVC / MPEG-4 part 10</property>
  <property name="kdenlive:original.meta.media.0.codec.bit_rate">450938</property>
  <property name="kdenlive:original.meta.attr.0.stream.handler_name.markup">VideoHandler</property>
  <property name="kdenlive:original.meta.attr.0.stream.vendor_id.markup">[0][0][0][0]</property>
  <property name="kdenlive:original.meta.attr.0.stream.encoder.markup">Lavc60.3.100 libx264</property>
  <property name="kdenlive:original.meta.attr.major_brand.markup">isom</property>
  <property name="kdenlive:original.meta.attr.minor_version.markup">512</property>
  <property name="kdenlive:original.meta.attr.compatible_brands.markup">isomiso2avc1mp41</property>
  <property name="kdenlive:original.meta.attr.encoder.markup">Lavf60.3.100</property>
  <property name="kdenlive:original.meta.attr.comment.markup">Rendered with Manim Community v0.17.3</property>
  <property name="kdenlive:original.seekable">1</property>
  <property name="kdenlive:original.width">1920</property>
  <property name="kdenlive:original.height">1080</property>
  <property name="kdenlive:original.meta.media.sample_aspect_num">1</property>
  <property name="kdenlive:original.meta.media.sample_aspect_den">1</property>
  <property name="kdenlive:original.format">3</property>
  <property name="kdenlive:original.audio_index">-1</property>
  <property name="kdenlive:original.video_index">0</property>
  <property name="kdenlive:original.meta.media.frame_rate_num">60</property>
  <property name="kdenlive:original.meta.media.frame_rate_den">1</property>
  <property name="kdenlive:original.meta.media.colorspace">709</property>
  <property name="kdenlive:original.meta.media.color_trc">2</property>
  <property name="kdenlive:original.meta.media.has_b_frames">2</property>
  <property name="kdenlive:original.meta.media.width">1920</property>
  <property name="kdenlive:original.meta.media.height">1080</property>
  <property name="kdenlive:original.meta.media.color_range">mpeg</property>
  <property name="kdenlive:original.meta.media.top_field_first">0</property>
  <property name="kdenlive:original.meta.media.progressive">1</property>
  <property name="kdenlive:original.kdenlive:clip_type">2</property>
  <property name="kdenlive:original.kdenlive:folderid">16</property>
  <property name="kdenlive:original.kdenlive:id">61</property>
  <property name="kdenlive:original.mute_on_pause">0</property>
  <property name="kdenlive:original.kdenlive:file_size">86471</property>
  <property name="kdenlive:original.kdenlive:file_hash">811548f4d7c20ec723ec7b539b62d183</property>
  <property name="kdenlive:original.backup">1</property>
  <property name="meta.media.nb_streams">1</property>
  <property name="meta.media.0.stream.type">video</property>
  <property name="meta.media.0.stream.frame_rate">60</property>
  <property name="meta.media.0.stream.sample_aspect_ratio">0</property>
  <property name="meta.media.0.codec.width">640</property>
  <property name="meta.media.0.codec.height">360</property>
  <property name="meta.media.0.codec.rotate">0</property>
  <property name="meta.media.0.codec.pix_fmt">yuvj420p</property>
  <property name="meta.media.0.codec.sample_aspect_ratio">0</property>
  <property name="meta.media.0.codec.colorspace">601</property>
  <property name="meta.media.0.codec.name">mjpeg</property>
  <property name="meta.media.0.codec.long_name">MJPEG (Motion JPEG)</property>
  <property name="meta.media.0.codec.bit_rate">0</property>
  <property name="meta.attr.0.stream.HANDLER_NAME.markup">VideoHandler</property>
  <property name="meta.attr.0.stream.VENDOR_ID.markup">[0][0][0][0]</property>
  <property name="meta.attr.0.stream.ENCODER.markup">Lavc60.3.100 mjpeg</property>
  <property name="meta.attr.0.stream.DURATION.markup">00:00:01.500000000</property>
  <property name="meta.attr.COMMENT.markup">Rendered with Manim Community v0.17.3</property>
  <property name="meta.attr.MAJOR_BRAND.markup">isom</property>
  <property name="meta.attr.MINOR_VERSION.markup">512</property>
  <property name="meta.attr.COMPATIBLE_BRANDS.markup">isomiso2avc1mp41</property>
  <property name="meta.attr.ENCODER.markup">Lavf60.3.100</property>
  <property name="meta.media.sample_aspect_num">1</property>
  <property name="meta.media.sample_aspect_den">1</property>
  <property name="meta.media.frame_rate_num">60</property>
  <property name="meta.media.frame_rate_den">1</property>
  <property name="meta.media.colorspace">601</property>
  <property name="meta.media.color_trc">2</property>
  <property name="meta.media.has_b_frames">0</property>
  <property name="meta.media.width">640</property>
  <property name="meta.media.height">360</property>
  <property name="meta.media.color_range">full</property>
  <property name="xml">was here</property>
  <property name="meta.media.top_field_first">0</property>
  <property name="meta.media.progressive">1</property>
  <property name="set.test_audio">1</property>
  <property name="set.test_image">0</property>
 </chain>
 <chain id="chain647" out="00:00:00.983">
  <property name="length">60</property>
  <property name="eof">pause</property>
  <property name="resource">/home/xiaoxiae/.cache/kdenlive/proxy/396b5a9caedb341ae4b68ed30ce34da3.mkv</property>
  <property name="mlt_service">avformat-novalidate</property>
  <property name="seekable">1</property>
  <property name="format">3</property>
  <property name="audio_index">-1</property>
  <property name="video_index">0</property>
  <property name="kdenlive:clipname">140.mp4</property>
  <property name="kdenlive:clip_type">2</property>
  <property name="kdenlive:folderid">16</property>
  <property name="kdenlive:id">63</property>
  <property name="mute_on_pause">0</property>
  <property name="kdenlive:file_size">70333</property>
  <property name="kdenlive:file_hash">396b5a9caedb341ae4b68ed30ce34da3</property>
  <property name="kdenlive:proxy">/home/xiaoxiae/.cache/kdenlive/proxy/396b5a9caedb341ae4b68ed30ce34da3.mkv</property>
  <property name="kdenlive:originalurl">video/Farmer/140.mp4</property>
  <property name="kdenlive:original.mlt_type">chain</property>
  <property name="kdenlive:original.in">0</property>
  <property name="kdenlive:original.out">00:00:00.983</property>
  <property name="kdenlive:original.length">60</property>
  <property name="kdenlive:original.eof">pause</property>
  <property name="kdenlive:original.resource">video/Farmer/140.mp4</property>
  <property name="kdenlive:original.mlt_service">avformat-novalidate</property>
  <property name="kdenlive:original.meta.media.nb_streams">1</property>
  <property name="kdenlive:original.meta.media.0.stream.type">video</property>
  <property name="kdenlive:original.meta.media.0.stream.frame_rate">60</property>
  <property name="kdenlive:original.meta.media.0.stream.sample_aspect_ratio">0</property>
  <property name="kdenlive:original.meta.media.0.codec.width">1920</property>
  <property name="kdenlive:original.meta.media.0.codec.height">1080</property>
  <property name="kdenlive:original.meta.media.0.codec.rotate">0</property>
  <property name="kdenlive:original.meta.media.0.codec.pix_fmt">yuv420p</property>
  <property name="kdenlive:original.meta.media.0.codec.sample_aspect_ratio">0</property>
  <property name="kdenlive:original.meta.media.0.codec.colorspace">709</property>
  <property name="kdenlive:original.meta.media.0.codec.name">h264</property>
  <property name="kdenlive:original.meta.media.0.codec.long_name">H.264 / AVC / MPEG-4 AVC / MPEG-4 part 10</property>
  <property name="kdenlive:original.meta.media.0.codec.bit_rate">549608</property>
  <property name="kdenlive:original.meta.attr.0.stream.handler_name.markup">VideoHandler</property>
  <property name="kdenlive:original.meta.attr.0.stream.vendor_id.markup">[0][0][0][0]</property>
  <property name="kdenlive:original.meta.attr.0.stream.encoder.markup">Lavc60.3.100 libx264</property>
  <property name="kdenlive:original.meta.attr.major_brand.markup">isom</property>
  <property name="kdenlive:original.meta.attr.minor_version.markup">512</property>
  <property name="kdenlive:original.meta.attr.compatible_brands.markup">isomiso2avc1mp41</property>
  <property name="kdenlive:original.meta.attr.encoder.markup">Lavf60.3.100</property>
  <property name="kdenlive:original.meta.attr.comment.markup">Rendered with Manim Community v0.17.3</property>
  <property name="kdenlive:original.seekable">1</property>
  <property name="kdenlive:original.width">1920</property>
  <property name="kdenlive:original.height">1080</property>
  <property name="kdenlive:original.meta.media.sample_aspect_num">1</property>
  <property name="kdenlive:original.meta.media.sample_aspect_den">1</property>
  <property name="kdenlive:original.format">3</property>
  <property name="kdenlive:original.audio_index">-1</property>
  <property name="kdenlive:original.video_index">0</property>
  <property name="kdenlive:original.meta.media.frame_rate_num">60</property>
  <property name="kdenlive:original.meta.media.frame_rate_den">1</property>
  <property name="kdenlive:original.meta.media.colorspace">709</property>
  <property name="kdenlive:original.meta.media.color_trc">2</property>
  <property name="kdenlive:original.meta.media.has_b_frames">2</property>
  <property name="kdenlive:original.meta.media.width">1920</property>
  <property name="kdenlive:original.meta.media.height">1080</property>
  <property name="kdenlive:original.meta.media.color_range">mpeg</property>
  <property name="kdenlive:original.meta.media.top_field_first">0</property>
  <property name="kdenlive:original.meta.media.progressive">1</property>
  <property name="kdenlive:original.kdenlive:clip_type">2</property>
  <property name="kdenlive:original.kdenlive:folderid">16</property>
  <property name="kdenlive:original.kdenlive:id">63</property>
  <property name="kdenlive:original.mute_on_pause">0</property>
  <property name="kdenlive:original.kdenlive:file_size">70333</property>
  <property name="kdenlive:original.kdenlive:file_hash">396b5a9caedb341ae4b68ed30ce34da3</property>
  <property name="kdenlive:original.backup">1</property>
  <property name="meta.media.nb_streams">1</property>
  <property name="meta.media.0.stream.type">video</property>
  <property name="meta.media.0.stream.frame_rate">60</property>
  <property name="meta.media.0.stream.sample_aspect_ratio">0</property>
  <property name="meta.media.0.codec.width">640</property>
  <property name="meta.media.0.codec.height">360</property>
  <property name="meta.media.0.codec.rotate">0</property>
  <property name="meta.media.0.codec.pix_fmt">yuvj420p</property>
  <property name="meta.media.0.codec.sample_aspect_ratio">0</property>
  <property name="meta.media.0.codec.colorspace">601</property>
  <property name="meta.media.0.codec.name">mjpeg</property>
  <property name="meta.media.0.codec.long_name">MJPEG (Motion JPEG)</property>
  <property name="meta.media.0.codec.bit_rate">0</property>
  <property name="meta.attr.0.stream.HANDLER_NAME.markup">VideoHandler</property>
  <property name="meta.attr.0.stream.VENDOR_ID.markup">[0][0][0][0]</property>
  <property name="meta.attr.0.stream.ENCODER.markup">Lavc60.3.100 mjpeg</property>
  <property name="meta.attr.0.stream.DURATION.markup">00:00:01.000000000</property>
  <property name="meta.attr.COMMENT.markup">Rendered with Manim Community v0.17.3</property>
  <property name="meta.attr.MAJOR_BRAND.markup">isom</property>
  <property name="meta.attr.MINOR_VERSION.markup">512</property>
  <property name="meta.attr.COMPATIBLE_BRANDS.markup">isomiso2avc1mp41</property>
  <property name="meta.attr.ENCODER.markup">Lavf60.3.100</property>
  <property name="meta.media.sample_aspect_num">1</property>
  <property name="meta.media.sample_aspect_den">1</property>
  <property name="meta.media.frame_rate_num">60</property>
  <property name="meta.media.frame_rate_den">1</property>
  <property name="meta.media.colorspace">601</property>
  <property name="meta.media.color_trc">2</property>
  <property name="meta.media.has_b_frames">0</property>
  <property name="meta.media.width">640</property>
  <property name="meta.media.height">360</property>
  <property name="meta.media.color_range">full</property>
  <property name="xml">was here</property>
  <property name="meta.media.top_field_first">0</property>
  <property name="meta.media.progressive">1</property>
  <property name="set.test_audio">1</property>
  <property name="set.test_image">0</property>
 </chain>
 <chain id="chain648" out="00:00:00.983">
  <property name="length">60</property>
  <property name="eof">pause</property>
  <property name="resource">/home/xiaoxiae/.cache/kdenlive/proxy/d151f02d4dc4dc50ae196658d8c18105.mkv</property>
  <property name="mlt_service">avformat-novalidate</property>
  <property name="seekable">1</property>
  <property name="format">3</property>
  <property name="audio_index">-1</property>
  <property name="video_index">0</property>
  <property name="kdenlive:clipname">141.mp4</property>
  <property name="kdenlive:clip_type">2</property>
  <property name="kdenlive:folderid">16</property>
  <property name="kdenlive:id">64</property>
  <property name="mute_on_pause">0</property>
  <property name="kdenlive:file_size">57497</property>
  <property name="kdenlive:file_hash">d151f02d4dc4dc50ae196658d8c18105</property>
  <property name="kdenlive:proxy">/home/xiaoxiae/.cache/kdenlive/proxy/d151f02d4dc4dc50ae196658d8c18105.mkv</property>
  <property name="kdenlive:originalurl">video/Farmer/141.mp4</property>
  <property name="kdenlive:original.mlt_type">chain</property>
  <property name="kdenlive:original.in">0</property>
  <property name="kdenlive:original.out">00:00:00.983</property>
  <property name="kdenlive:original.length">60</property>
  <property name="kdenlive:original.eof">pause</property>
  <property name="kdenlive:original.resource">video/Farmer/141.mp4</property>
  <property name="kdenlive:original.mlt_service">avformat-novalidate</property>
  <property name="kdenlive:original.meta.media.nb_streams">1</property>
  <property name="kdenlive:original.meta.media.0.stream.type">video</property>
  <property name="kdenlive:original.meta.media.0.stream.frame_rate">60</property>
  <property name="kdenlive:original.meta.media.0.stream.sample_aspect_ratio">0</property>
  <property name="kdenlive:original.meta.media.0.codec.width">1920</property>
  <property name="kdenlive:original.meta.media.0.codec.height">1080</property>
  <property name="kdenlive:original.meta.media.0.codec.rotate">0</property>
  <property name="kdenlive:original.meta.media.0.codec.pix_fmt">yuv420p</property>
  <property name="kdenlive:original.meta.media.0.codec.sample_aspect_ratio">0</property>
  <property name="kdenlive:original.meta.media.0.codec.colorspace">709</property>
  <property name="kdenlive:original.meta.media.0.codec.name">h264</property>
  <property name="kdenlive:original.meta.media.0.codec.long_name">H.264 / AVC / MPEG-4 AVC / MPEG-4 part 10</property>
  <property name="kdenlive:original.meta.media.0.codec.bit_rate">446920</property>
  <property name="kdenlive:original.meta.attr.0.stream.handler_name.markup">VideoHandler</property>
  <property name="kdenlive:original.meta.attr.0.stream.vendor_id.markup">[0][0][0][0]</property>
  <property name="kdenlive:original.meta.attr.0.stream.encoder.markup">Lavc60.3.100 libx264</property>
  <property name="kdenlive:original.meta.attr.major_brand.markup">isom</property>
  <property name="kdenlive:original.meta.attr.minor_version.markup">512</property>
  <property name="kdenlive:original.meta.attr.compatible_brands.markup">isomiso2avc1mp41</property>
  <property name="kdenlive:original.meta.attr.encoder.markup">Lavf60.3.100</property>
  <property name="kdenlive:original.meta.attr.comment.markup">Rendered with Manim Community v0.17.3</property>
  <property name="kdenlive:original.seekable">1</property>
  <property name="kdenlive:original.width">1920</property>
  <property name="kdenlive:original.height">1080</property>
  <property name="kdenlive:original.meta.media.sample_aspect_num">1</property>
  <property name="kdenlive:original.meta.media.sample_aspect_den">1</property>
  <property name="kdenlive:original.format">3</property>
  <property name="kdenlive:original.audio_index">-1</property>
  <property name="kdenlive:original.video_index">0</property>
  <property name="kdenlive:original.meta.media.frame_rate_num">60</property>
  <property name="kdenlive:original.meta.media.frame_rate_den">1</property>
  <property name="kdenlive:original.meta.media.colorspace">709</property>
  <property name="kdenlive:original.meta.media.color_trc">2</property>
  <property name="kdenlive:original.meta.media.has_b_frames">2</property>
  <property name="kdenlive:original.meta.media.width">1920</property>
  <property name="kdenlive:original.meta.media.height">1080</property>
  <property name="kdenlive:original.meta.media.color_range">mpeg</property>
  <property name="kdenlive:original.meta.media.top_field_first">0</property>
  <property name="kdenlive:original.meta.media.progressive">1</property>
  <property name="kdenlive:original.kdenlive:clip_type">2</property>
  <property name="kdenlive:original.kdenlive:folderid">16</property>
  <property name="kdenlive:original.kdenlive:id">64</property>
  <property name="kdenlive:original.mute_on_pause">0</property>
  <property name="kdenlive:original.kdenlive:file_size">57497</property>
  <property name="kdenlive:original.kdenlive:file_hash">d151f02d4dc4dc50ae196658d8c18105</property>
  <property name="kdenlive:original.backup">1</property>
  <property name="meta.media.nb_streams">1</property>
  <property name="meta.media.0.stream.type">video</property>
  <property name="meta.media.0.stream.frame_rate">60</property>
  <property name="meta.media.0.stream.sample_aspect_ratio">0</property>
  <property name="meta.media.0.codec.width">640</property>
  <property name="meta.media.0.codec.height">360</property>
  <property name="meta.media.0.codec.rotate">0</property>
  <property name="meta.media.0.codec.pix_fmt">yuvj420p</property>
  <property name="meta.media.0.codec.sample_aspect_ratio">0</property>
  <property name="meta.media.0.codec.colorspace">601</property>
  <property name="meta.media.0.codec.name">mjpeg</property>
  <property name="meta.media.0.codec.long_name">MJPEG (Motion JPEG)</property>
  <property name="meta.media.0.codec.bit_rate">0</property>
  <property name="meta.attr.0.stream.HANDLER_NAME.markup">VideoHandler</property>
  <property name="meta.attr.0.stream.VENDOR_ID.markup">[0][0][0][0]</property>
  <property name="meta.attr.0.stream.ENCODER.markup">Lavc60.3.100 mjpeg</property>
  <property name="meta.attr.0.stream.DURATION.markup">00:00:01.000000000</property>
  <property name="meta.attr.COMMENT.markup">Rendered with Manim Community v0.17.3</property>
  <property name="meta.attr.MAJOR_BRAND.markup">isom</property>
  <property name="meta.attr.MINOR_VERSION.markup">512</property>
  <property name="meta.attr.COMPATIBLE_BRANDS.markup">isomiso2avc1mp41</property>
  <property name="meta.attr.ENCODER.markup">Lavf60.3.100</property>
  <property name="meta.media.sample_aspect_num">1</property>
  <property name="meta.media.sample_aspect_den">1</property>
  <property name="meta.media.frame_rate_num">60</property>
  <property name="meta.media.frame_rate_den">1</property>
  <property name="meta.media.colorspace">601</property>
  <property name="meta.media.color_trc">2</property>
  <property name="meta.media.has_b_frames">0</property>
  <property name="meta.media.width">640</property>
  <property name="meta.media.height">360</property>
  <property name="meta.media.color_range">full</property>
  <property name="xml">was here</property>
  <property name="meta.media.top_field_first">0</property>
  <property name="meta.media.progressive">1</property>
  <property name="set.test_audio">1</property>
  <property name="set.test_image">0</property>
 </chain>
 <chain id="chain649" out="00:00:00.983">
  <property name="length">60</property>
  <property name="eof">pause</property>
  <property name="resource">/home/xiaoxiae/.cache/kdenlive/proxy/8aff15fab5961394bf50b1ffef57d31c.mkv</property>
  <property name="mlt_service">avformat-novalidate</property>
  <property name="seekable">1</property>
  <property name="format">3</property>
  <property name="audio_index">-1</property>
  <property name="video_index">0</property>
  <property name="kdenlive:clipname">142.mp4</property>
  <property name="kdenlive:clip_type">2</property>
  <property name="kdenlive:folderid">16</property>
  <property name="kdenlive:id">65</property>
  <property name="mute_on_pause">0</property>
  <property name="kdenlive:file_size">58174</property>
  <property name="kdenlive:file_hash">8aff15fab5961394bf50b1ffef57d31c</property>
  <property name="kdenlive:proxy">/home/xiaoxiae/.cache/kdenlive/proxy/8aff15fab5961394bf50b1ffef57d31c.mkv</property>
  <property name="kdenlive:originalurl">video/Farmer/142.mp4</property>
  <property name="kdenlive:original.mlt_type">chain</property>
  <property name="kdenlive:original.in">0</property>
  <property name="kdenlive:original.out">00:00:00.983</property>
  <property name="kdenlive:original.length">60</property>
  <property name="kdenlive:original.eof">pause</property>
  <property name="kdenlive:original.resource">video/Farmer/142.mp4</property>
  <property name="kdenlive:original.mlt_service">avformat-novalidate</property>
  <property name="kdenlive:original.meta.media.nb_streams">1</property>
  <property name="kdenlive:original.meta.media.0.stream.type">video</property>
  <property name="kdenlive:original.meta.media.0.stream.frame_rate">60</property>
  <property name="kdenlive:original.meta.media.0.stream.sample_aspect_ratio">0</property>
  <property name="kdenlive:original.meta.media.0.codec.width">1920</property>
  <property name="kdenlive:original.meta.media.0.codec.height">1080</property>
  <property name="kdenlive:original.meta.media.0.codec.rotate">0</property>
  <property name="kdenlive:original.meta.media.0.codec.pix_fmt">yuv420p</property>
  <property name="kdenlive:original.meta.media.0.codec.sample_aspect_ratio">0</property>
  <property name="kdenlive:original.meta.media.0.codec.colorspace">709</property>
  <property name="kdenlive:original.meta.media.0.codec.name">h264</property>
  <property name="kdenlive:original.meta.media.0.codec.long_name">H.264 / AVC / MPEG-4 AVC / MPEG-4 part 10</property>
  <property name="kdenlive:original.meta.media.0.codec.bit_rate">452336</property>
  <property name="kdenlive:original.meta.attr.0.stream.handler_name.markup">VideoHandler</property>
  <property name="kdenlive:original.meta.attr.0.stream.vendor_id.markup">[0][0][0][0]</property>
  <property name="kdenlive:original.meta.attr.0.stream.encoder.markup">Lavc60.3.100 libx264</property>
  <property name="kdenlive:original.meta.attr.major_brand.markup">isom</property>
  <property name="kdenlive:original.meta.attr.minor_version.markup">512</property>
  <property name="kdenlive:original.meta.attr.compatible_brands.markup">isomiso2avc1mp41</property>
  <property name="kdenlive:original.meta.attr.encoder.markup">Lavf60.3.100</property>
  <property name="kdenlive:original.meta.attr.comment.markup">Rendered with Manim Community v0.17.3</property>
  <property name="kdenlive:original.seekable">1</property>
  <property name="kdenlive:original.width">1920</property>
  <property name="kdenlive:original.height">1080</property>
  <property name="kdenlive:original.meta.media.sample_aspect_num">1</property>
  <property name="kdenlive:original.meta.media.sample_aspect_den">1</property>
  <property name="kdenlive:original.format">3</property>
  <property name="kdenlive:original.audio_index">-1</property>
  <property name="kdenlive:original.video_index">0</property>
  <property name="kdenlive:original.meta.media.frame_rate_num">60</property>
  <property name="kdenlive:original.meta.media.frame_rate_den">1</property>
  <property name="kdenlive:original.meta.media.colorspace">709</property>
  <property name="kdenlive:original.meta.media.color_trc">2</property>
  <property name="kdenlive:original.meta.media.has_b_frames">2</property>
  <property name="kdenlive:original.meta.media.width">1920</property>
  <property name="kdenlive:original.meta.media.height">1080</property>
  <property name="kdenlive:original.meta.media.color_range">mpeg</property>
  <property name="kdenlive:original.meta.media.top_field_first">0</property>
  <property name="kdenlive:original.meta.media.progressive">1</property>
  <property name="kdenlive:original.kdenlive:clip_type">2</property>
  <property name="kdenlive:original.kdenlive:folderid">16</property>
  <property name="kdenlive:original.kdenlive:id">65</property>
  <property name="kdenlive:original.mute_on_pause">0</property>
  <property name="kdenlive:original.kdenlive:file_size">58174</property>
  <property name="kdenlive:original.kdenlive:file_hash">8aff15fab5961394bf50b1ffef57d31c</property>
  <property name="kdenlive:original.backup">1</property>
  <property name="meta.media.nb_streams">1</property>
  <property name="meta.media.0.stream.type">video</property>
  <property name="meta.media.0.stream.frame_rate">60</property>
  <property name="meta.media.0.stream.sample_aspect_ratio">0</property>
  <property name="meta.media.0.codec.width">640</property>
  <property name="meta.media.0.codec.height">360</property>
  <property name="meta.media.0.codec.rotate">0</property>
  <property name="meta.media.0.codec.pix_fmt">yuvj420p</property>
  <property name="meta.media.0.codec.sample_aspect_ratio">0</property>
  <property name="meta.media.0.codec.colorspace">601</property>
  <property name="meta.media.0.codec.name">mjpeg</property>
  <property name="meta.media.0.codec.long_name">MJPEG (Motion JPEG)</property>
  <property name="meta.media.0.codec.bit_rate">0</property>
  <property name="meta.attr.0.stream.HANDLER_NAME.markup">VideoHandler</property>
  <property name="meta.attr.0.stream.VENDOR_ID.markup">[0][0][0][0]</property>
  <property name="meta.attr.0.stream.ENCODER.markup">Lavc60.3.100 mjpeg</property>
  <property name="meta.attr.0.stream.DURATION.markup">00:00:01.000000000</property>
  <property name="meta.attr.COMMENT.markup">Rendered with Manim Community v0.17.3</property>
  <property name="meta.attr.MAJOR_BRAND.markup">isom</property>
  <property name="meta.attr.MINOR_VERSION.markup">512</property>
  <property name="meta.attr.COMPATIBLE_BRANDS.markup">isomiso2avc1mp41</property>
  <property name="meta.attr.ENCODER.markup">Lavf60.3.100</property>
  <property name="meta.media.sample_aspect_num">1</property>
  <property name="meta.media.sample_aspect_den">1</property>
  <property name="meta.media.frame_rate_num">60</property>
  <property name="meta.media.frame_rate_den">1</property>
  <property name="meta.media.colorspace">601</property>
  <property name="meta.media.color_trc">2</property>
  <property name="meta.media.has_b_frames">0</property>
  <property name="meta.media.width">640</property>
  <property name="meta.media.height">360</property>
  <property name="meta.media.color_range">full</property>
  <property name="xml">was here</property>
  <property name="meta.media.top_field_first">0</property>
  <property name="meta.media.progressive">1</property>
  <property name="set.test_audio">1</property>
  <property name="set.test_image">0</property>
 </chain>
 <chain id="chain650" out="00:00:00.983">
  <property name="length">60</property>
  <property name="eof">pause</property>
  <property name="resource">/home/xiaoxiae/.cache/kdenlive/proxy/92457d3922927e3534fbf3fed67105e9.mkv</property>
  <property name="mlt_service">avformat-novalidate</property>
  <property name="seekable">1</property>
  <property name="format">3</property>
  <property name="audio_index">-1</property>
  <property name="video_index">0</property>
  <property name="kdenlive:clipname">143.mp4</property>
  <property name="kdenlive:clip_type">2</property>
  <property name="kdenlive:folderid">16</property>
  <property name="kdenlive:id">66</property>
  <property name="mute_on_pause">0</property>
  <property name="kdenlive:file_size">59446</property>
  <property name="kdenlive:file_hash">92457d3922927e3534fbf3fed67105e9</property>
  <property name="kdenlive:proxy">/home/xiaoxiae/.cache/kdenlive/proxy/92457d3922927e3534fbf3fed67105e9.mkv</property>
  <property name="kdenlive:originalurl">video/Farmer/143.mp4</property>
  <property name="kdenlive:original.mlt_type">chain</property>
  <property name="kdenlive:original.in">0</property>
  <property name="kdenlive:original.out">00:00:00.983</property>
  <property name="kdenlive:original.length">60</property>
  <property name="kdenlive:original.eof">pause</property>
  <property name="kdenlive:original.resource">video/Farmer/143.mp4</property>
  <property name="kdenlive:original.mlt_service">avformat-novalidate</property>
  <property name="kdenlive:original.meta.media.nb_streams">1</property>
  <property name="kdenlive:original.meta.media.0.stream.type">video</property>
  <property name="kdenlive:original.meta.media.0.stream.frame_rate">60</property>
  <property name="kdenlive:original.meta.media.0.stream.sample_aspect_ratio">0</property>
  <property name="kdenlive:original.meta.media.0.codec.width">1920</property>
  <property name="kdenlive:original.meta.media.0.codec.height">1080</property>
  <property name="kdenlive:original.meta.media.0.codec.rotate">0</property>
  <property name="kdenlive:original.meta.media.0.codec.pix_fmt">yuv420p</property>
  <property name="kdenlive:original.meta.media.0.codec.sample_aspect_ratio">0</property>
  <property name="kdenlive:original.meta.media.0.codec.colorspace">709</property>
  <property name="kdenlive:original.meta.media.0.codec.name">h264</property>
  <property name="kdenlive:original.meta.media.0.codec.long_name">H.264 / AVC / MPEG-4 AVC / MPEG-4 part 10</property>
  <property name="kdenlive:original.meta.media.0.codec.bit_rate">462512</property>
  <property name="kdenlive:original.meta.attr.0.stream.handler_name.markup">VideoHandler</property>
  <property name="kdenlive:original.meta.attr.0.stream.vendor_id.markup">[0][0][0][0]</property>
  <property name="kdenlive:original.meta.attr.0.stream.encoder.markup">Lavc60.3.100 libx264</property>
  <property name="kdenlive:original.meta.attr.major_brand.markup">isom</property>
  <property name="kdenlive:original.meta.attr.minor_version.markup">512</property>
  <property name="kdenlive:original.meta.attr.compatible_brands.markup">isomiso2avc1mp41</property>
  <property name="kdenlive:original.meta.attr.encoder.markup">Lavf60.3.100</property>
  <property name="kdenlive:original.meta.attr.comment.markup">Rendered with Manim Community v0.17.3</property>
  <property name="kdenlive:original.seekable">1</property>
  <property name="kdenlive:original.width">1920</property>
  <property name="kdenlive:original.height">1080</property>
  <property name="kdenlive:original.meta.media.sample_aspect_num">1</property>
  <property name="kdenlive:original.meta.media.sample_aspect_den">1</property>
  <property name="kdenlive:original.format">3</property>
  <property name="kdenlive:original.audio_index">-1</property>
  <property name="kdenlive:original.video_index">0</property>
  <property name="kdenlive:original.meta.media.frame_rate_num">60</property>
  <property name="kdenlive:original.meta.media.frame_rate_den">1</property>
  <property name="kdenlive:original.meta.media.colorspace">709</property>
  <property name="kdenlive:original.meta.media.color_trc">2</property>
  <property name="kdenlive:original.meta.media.has_b_frames">2</property>
  <property name="kdenlive:original.meta.media.width">1920</property>
  <property name="kdenlive:original.meta.media.height">1080</property>
  <property name="kdenlive:original.meta.media.color_range">mpeg</property>
  <property name="kdenlive:original.meta.media.top_field_first">0</property>
  <property name="kdenlive:original.meta.media.progressive">1</property>
  <property name="kdenlive:original.kdenlive:clip_type">2</property>
  <property name="kdenlive:original.kdenlive:folderid">16</property>
  <property name="kdenlive:original.kdenlive:id">66</property>
  <property name="kdenlive:original.mute_on_pause">0</property>
  <property name="kdenlive:original.kdenlive:file_size">59446</property>
  <property name="kdenlive:original.kdenlive:file_hash">92457d3922927e3534fbf3fed67105e9</property>
  <property name="kdenlive:original.backup">1</property>
  <property name="meta.media.nb_streams">1</property>
  <property name="meta.media.0.stream.type">video</property>
  <property name="meta.media.0.stream.frame_rate">60</property>
  <property name="meta.media.0.stream.sample_aspect_ratio">0</property>
  <property name="meta.media.0.codec.width">640</property>
  <property name="meta.media.0.codec.height">360</property>
  <property name="meta.media.0.codec.rotate">0</property>
  <property name="meta.media.0.codec.pix_fmt">yuvj420p</property>
  <property name="meta.media.0.codec.sample_aspect_ratio">0</property>
  <property name="meta.media.0.codec.colorspace">601</property>
  <property name="meta.media.0.codec.name">mjpeg</property>
  <property name="meta.media.0.codec.long_name">MJPEG (Motion JPEG)</property>
  <property name="meta.media.0.codec.bit_rate">0</property>
  <property name="meta.attr.0.stream.HANDLER_NAME.markup">VideoHandler</property>
  <property name="meta.attr.0.stream.VENDOR_ID.markup">[0][0][0][0]</property>
  <property name="meta.attr.0.stream.ENCODER.markup">Lavc60.3.100 mjpeg</property>
  <property name="meta.attr.0.stream.DURATION.markup">00:00:01.000000000</property>
  <property name="meta.attr.COMMENT.markup">Rendered with Manim Community v0.17.3</property>
  <property name="meta.attr.MAJOR_BRAND.markup">isom</property>
  <property name="meta.attr.MINOR_VERSION.markup">512</property>
  <property name="meta.attr.COMPATIBLE_BRANDS.markup">isomiso2avc1mp41</property>
  <property name="meta.attr.ENCODER.markup">Lavf60.3.100</property>
  <property name="meta.media.sample_aspect_num">1</property>
  <property name="meta.media.sample_aspect_den">1</property>
  <property name="meta.media.frame_rate_num">60</property>
  <property name="meta.media.frame_rate_den">1</property>
  <property name="meta.media.colorspace">601</property>
  <property name="meta.media.color_trc">2</property>
  <property name="meta.media.has_b_frames">0</property>
  <property name="meta.media.width">640</property>
  <property name="meta.media.height">360</property>
  <property name="meta.media.color_range">full</property>
  <property name="xml">was here</property>
  <property name="meta.media.top_field_first">0</property>
  <property name="meta.media.progressive">1</property>
  <property name="set.test_audio">1</property>
  <property name="set.test_image">0</property>
 </chain>
 <chain id="chain651" out="00:00:01.483">
  <property name="length">90</property>
  <property name="eof">pause</property>
  <property name="resource">/home/xiaoxiae/.cache/kdenlive/proxy/3cc32b1fdd31d962d7a2f80e36b057bc.mkv</property>
  <property name="mlt_service">avformat-novalidate</property>
  <property name="seekable">1</property>
  <property name="format">3</property>
  <property name="audio_index">-1</property>
  <property name="video_index">0</property>
  <property name="kdenlive:clipname">144.mp4</property>
  <property name="kdenlive:clip_type">2</property>
  <property name="kdenlive:folderid">16</property>
  <property name="kdenlive:id">67</property>
  <property name="mute_on_pause">0</property>
  <property name="kdenlive:file_size">96542</property>
  <property name="kdenlive:file_hash">3cc32b1fdd31d962d7a2f80e36b057bc</property>
  <property name="kdenlive:proxy">/home/xiaoxiae/.cache/kdenlive/proxy/3cc32b1fdd31d962d7a2f80e36b057bc.mkv</property>
  <property name="kdenlive:originalurl">video/Farmer/144.mp4</property>
  <property name="kdenlive:original.mlt_type">chain</property>
  <property name="kdenlive:original.in">0</property>
  <property name="kdenlive:original.out">00:00:01.483</property>
  <property name="kdenlive:original.length">90</property>
  <property name="kdenlive:original.eof">pause</property>
  <property name="kdenlive:original.resource">video/Farmer/144.mp4</property>
  <property name="kdenlive:original.mlt_service">avformat-novalidate</property>
  <property name="kdenlive:original.meta.media.nb_streams">1</property>
  <property name="kdenlive:original.meta.media.0.stream.type">video</property>
  <property name="kdenlive:original.meta.media.0.stream.frame_rate">60</property>
  <property name="kdenlive:original.meta.media.0.stream.sample_aspect_ratio">0</property>
  <property name="kdenlive:original.meta.media.0.codec.width">1920</property>
  <property name="kdenlive:original.meta.media.0.codec.height">1080</property>
  <property name="kdenlive:original.meta.media.0.codec.rotate">0</property>
  <property name="kdenlive:original.meta.media.0.codec.pix_fmt">yuv420p</property>
  <property name="kdenlive:original.meta.media.0.codec.sample_aspect_ratio">0</property>
  <property name="kdenlive:original.meta.media.0.codec.colorspace">709</property>
  <property name="kdenlive:original.meta.media.0.codec.name">h264</property>
  <property name="kdenlive:original.meta.media.0.codec.long_name">H.264 / AVC / MPEG-4 AVC / MPEG-4 part 10</property>
  <property name="kdenlive:original.meta.media.0.codec.bit_rate">504693</property>
  <property name="kdenlive:original.meta.attr.0.stream.handler_name.markup">VideoHandler</property>
  <property name="kdenlive:original.meta.attr.0.stream.vendor_id.markup">[0][0][0][0]</property>
  <property name="kdenlive:original.meta.attr.0.stream.encoder.markup">Lavc60.3.100 libx264</property>
  <property name="kdenlive:original.meta.attr.major_brand.markup">isom</property>
  <property name="kdenlive:original.meta.attr.minor_version.markup">512</property>
  <property name="kdenlive:original.meta.attr.compatible_brands.markup">isomiso2avc1mp41</property>
  <property name="kdenlive:original.meta.attr.encoder.markup">Lavf60.3.100</property>
  <property name="kdenlive:original.meta.attr.comment.markup">Rendered with Manim Community v0.17.3</property>
  <property name="kdenlive:original.seekable">1</property>
  <property name="kdenlive:original.width">1920</property>
  <property name="kdenlive:original.height">1080</property>
  <property name="kdenlive:original.meta.media.sample_aspect_num">1</property>
  <property name="kdenlive:original.meta.media.sample_aspect_den">1</property>
  <property name="kdenlive:original.format">3</property>
  <property name="kdenlive:original.audio_index">-1</property>
  <property name="kdenlive:original.video_index">0</property>
  <property name="kdenlive:original.meta.media.frame_rate_num">60</property>
  <property name="kdenlive:original.meta.media.frame_rate_den">1</property>
  <property name="kdenlive:original.meta.media.colorspace">709</property>
  <property name="kdenlive:original.meta.media.color_trc">2</property>
  <property name="kdenlive:original.meta.media.has_b_frames">2</property>
  <property name="kdenlive:original.meta.media.width">1920</property>
  <property name="kdenlive:original.meta.media.height">1080</property>
  <property name="kdenlive:original.meta.media.color_range">mpeg</property>
  <property name="kdenlive:original.meta.media.top_field_first">0</property>
  <property name="kdenlive:original.meta.media.progressive">1</property>
  <property name="kdenlive:original.kdenlive:clip_type">2</property>
  <property name="kdenlive:original.kdenlive:folderid">16</property>
  <property name="kdenlive:original.kdenlive:id">67</property>
  <property name="kdenlive:original.mute_on_pause">0</property>
  <property name="kdenlive:original.kdenlive:file_size">96542</property>
  <property name="kdenlive:original.kdenlive:file_hash">3cc32b1fdd31d962d7a2f80e36b057bc</property>
  <property name="kdenlive:original.backup">1</property>
  <property name="meta.media.nb_streams">1</property>
  <property name="meta.media.0.stream.type">video</property>
  <property name="meta.media.0.stream.frame_rate">60</property>
  <property name="meta.media.0.stream.sample_aspect_ratio">0</property>
  <property name="meta.media.0.codec.width">640</property>
  <property name="meta.media.0.codec.height">360</property>
  <property name="meta.media.0.codec.rotate">0</property>
  <property name="meta.media.0.codec.pix_fmt">yuvj420p</property>
  <property name="meta.media.0.codec.sample_aspect_ratio">0</property>
  <property name="meta.media.0.codec.colorspace">601</property>
  <property name="meta.media.0.codec.name">mjpeg</property>
  <property name="meta.media.0.codec.long_name">MJPEG (Motion JPEG)</property>
  <property name="meta.media.0.codec.bit_rate">0</property>
  <property name="meta.attr.0.stream.HANDLER_NAME.markup">VideoHandler</property>
  <property name="meta.attr.0.stream.VENDOR_ID.markup">[0][0][0][0]</property>
  <property name="meta.attr.0.stream.ENCODER.markup">Lavc60.3.100 mjpeg</property>
  <property name="meta.attr.0.stream.DURATION.markup">00:00:01.500000000</property>
  <property name="meta.attr.COMMENT.markup">Rendered with Manim Community v0.17.3</property>
  <property name="meta.attr.MAJOR_BRAND.markup">isom</property>
  <property name="meta.attr.MINOR_VERSION.markup">512</property>
  <property name="meta.attr.COMPATIBLE_BRANDS.markup">isomiso2avc1mp41</property>
  <property name="meta.attr.ENCODER.markup">Lavf60.3.100</property>
  <property name="meta.media.sample_aspect_num">1</property>
  <property name="meta.media.sample_aspect_den">1</property>
  <property name="meta.media.frame_rate_num">60</property>
  <property name="meta.media.frame_rate_den">1</property>
  <property name="meta.media.colorspace">601</property>
  <property name="meta.media.color_trc">2</property>
  <property name="meta.media.has_b_frames">0</property>
  <property name="meta.media.width">640</property>
  <property name="meta.media.height">360</property>
  <property name="meta.media.color_range">full</property>
  <property name="xml">was here</property>
  <property name="meta.media.top_field_first">0</property>
  <property name="meta.media.progressive">1</property>
  <property name="set.test_audio">1</property>
  <property name="set.test_image">0</property>
 </chain>
 <chain id="chain652" out="00:00:00.983">
  <property name="length">60</property>
  <property name="eof">pause</property>
  <property name="resource">/home/xiaoxiae/.cache/kdenlive/proxy/70ff89ebb494ae40dac75bd6c3bb65d9.mkv</property>
  <property name="mlt_service">avformat-novalidate</property>
  <property name="seekable">1</property>
  <property name="format">3</property>
  <property name="audio_index">-1</property>
  <property name="video_index">0</property>
  <property name="kdenlive:clipname">145.mp4</property>
  <property name="kdenlive:clip_type">2</property>
  <property name="kdenlive:folderid">16</property>
  <property name="kdenlive:id">68</property>
  <property name="mute_on_pause">0</property>
  <property name="kdenlive:file_size">65724</property>
  <property name="kdenlive:file_hash">70ff89ebb494ae40dac75bd6c3bb65d9</property>
  <property name="kdenlive:proxy">/home/xiaoxiae/.cache/kdenlive/proxy/70ff89ebb494ae40dac75bd6c3bb65d9.mkv</property>
  <property name="kdenlive:originalurl">video/Farmer/145.mp4</property>
  <property name="kdenlive:original.mlt_type">chain</property>
  <property name="kdenlive:original.in">0</property>
  <property name="kdenlive:original.out">00:00:00.983</property>
  <property name="kdenlive:original.length">60</property>
  <property name="kdenlive:original.eof">pause</property>
  <property name="kdenlive:original.resource">video/Farmer/145.mp4</property>
  <property name="kdenlive:original.mlt_service">avformat-novalidate</property>
  <property name="kdenlive:original.meta.media.nb_streams">1</property>
  <property name="kdenlive:original.meta.media.0.stream.type">video</property>
  <property name="kdenlive:original.meta.media.0.stream.frame_rate">60</property>
  <property name="kdenlive:original.meta.media.0.stream.sample_aspect_ratio">0</property>
  <property name="kdenlive:original.meta.media.0.codec.width">1920</property>
  <property name="kdenlive:original.meta.media.0.codec.height">1080</property>
  <property name="kdenlive:original.meta.media.0.codec.rotate">0</property>
  <property name="kdenlive:original.meta.media.0.codec.pix_fmt">yuv420p</property>
  <property name="kdenlive:original.meta.media.0.codec.sample_aspect_ratio">0</property>
  <property name="kdenlive:original.meta.media.0.codec.colorspace">709</property>
  <property name="kdenlive:original.meta.media.0.codec.name">h264</property>
  <property name="kdenlive:original.meta.media.0.codec.long_name">H.264 / AVC / MPEG-4 AVC / MPEG-4 part 10</property>
  <property name="kdenlive:original.meta.media.0.codec.bit_rate">512736</property>
  <property name="kdenlive:original.meta.attr.0.stream.handler_name.markup">VideoHandler</property>
  <property name="kdenlive:original.meta.attr.0.stream.vendor_id.markup">[0][0][0][0]</property>
  <property name="kdenlive:original.meta.attr.0.stream.encoder.markup">Lavc60.3.100 libx264</property>
  <property name="kdenlive:original.meta.attr.major_brand.markup">isom</property>
  <property name="kdenlive:original.meta.attr.minor_version.markup">512</property>
  <property name="kdenlive:original.meta.attr.compatible_brands.markup">isomiso2avc1mp41</property>
  <property name="kdenlive:original.meta.attr.encoder.markup">Lavf60.3.100</property>
  <property name="kdenlive:original.meta.attr.comment.markup">Rendered with Manim Community v0.17.3</property>
  <property name="kdenlive:original.seekable">1</property>
  <property name="kdenlive:original.width">1920</property>
  <property name="kdenlive:original.height">1080</property>
  <property name="kdenlive:original.meta.media.sample_aspect_num">1</property>
  <property name="kdenlive:original.meta.media.sample_aspect_den">1</property>
  <property name="kdenlive:original.format">3</property>
  <property name="kdenlive:original.audio_index">-1</property>
  <property name="kdenlive:original.video_index">0</property>
  <property name="kdenlive:original.meta.media.frame_rate_num">60</property>
  <property name="kdenlive:original.meta.media.frame_rate_den">1</property>
  <property name="kdenlive:original.meta.media.colorspace">709</property>
  <property name="kdenlive:original.meta.media.color_trc">2</property>
  <property name="kdenlive:original.meta.media.has_b_frames">2</property>
  <property name="kdenlive:original.meta.media.width">1920</property>
  <property name="kdenlive:original.meta.media.height">1080</property>
  <property name="kdenlive:original.meta.media.color_range">mpeg</property>
  <property name="kdenlive:original.meta.media.top_field_first">0</property>
  <property name="kdenlive:original.meta.media.progressive">1</property>
  <property name="kdenlive:original.kdenlive:clip_type">2</property>
  <property name="kdenlive:original.kdenlive:folderid">16</property>
  <property name="kdenlive:original.kdenlive:id">68</property>
  <property name="kdenlive:original.mute_on_pause">0</property>
  <property name="kdenlive:original.kdenlive:file_size">65724</property>
  <property name="kdenlive:original.kdenlive:file_hash">70ff89ebb494ae40dac75bd6c3bb65d9</property>
  <property name="kdenlive:original.backup">1</property>
  <property name="meta.media.nb_streams">1</property>
  <property name="meta.media.0.stream.type">video</property>
  <property name="meta.media.0.stream.frame_rate">60</property>
  <property name="meta.media.0.stream.sample_aspect_ratio">0</property>
  <property name="meta.media.0.codec.width">640</property>
  <property name="meta.media.0.codec.height">360</property>
  <property name="meta.media.0.codec.rotate">0</property>
  <property name="meta.media.0.codec.pix_fmt">yuvj420p</property>
  <property name="meta.media.0.codec.sample_aspect_ratio">0</property>
  <property name="meta.media.0.codec.colorspace">601</property>
  <property name="meta.media.0.codec.name">mjpeg</property>
  <property name="meta.media.0.codec.long_name">MJPEG (Motion JPEG)</property>
  <property name="meta.media.0.codec.bit_rate">0</property>
  <property name="meta.attr.0.stream.HANDLER_NAME.markup">VideoHandler</property>
  <property name="meta.attr.0.stream.VENDOR_ID.markup">[0][0][0][0]</property>
  <property name="meta.attr.0.stream.ENCODER.markup">Lavc60.3.100 mjpeg</property>
  <property name="meta.attr.0.stream.DURATION.markup">00:00:01.000000000</property>
  <property name="meta.attr.COMMENT.markup">Rendered with Manim Community v0.17.3</property>
  <property name="meta.attr.MAJOR_BRAND.markup">isom</property>
  <property name="meta.attr.MINOR_VERSION.markup">512</property>
  <property name="meta.attr.COMPATIBLE_BRANDS.markup">isomiso2avc1mp41</property>
  <property name="meta.attr.ENCODER.markup">Lavf60.3.100</property>
  <property name="meta.media.sample_aspect_num">1</property>
  <property name="meta.media.sample_aspect_den">1</property>
  <property name="meta.media.frame_rate_num">60</property>
  <property name="meta.media.frame_rate_den">1</property>
  <property name="meta.media.colorspace">601</property>
  <property name="meta.media.color_trc">2</property>
  <property name="meta.media.has_b_frames">0</property>
  <property name="meta.media.width">640</property>
  <property name="meta.media.height">360</property>
  <property name="meta.media.color_range">full</property>
  <property name="xml">was here</property>
  <property name="meta.media.top_field_first">0</property>
  <property name="meta.media.progressive">1</property>
  <property name="set.test_audio">1</property>
  <property name="set.test_image">0</property>
 </chain>
 <chain id="chain653" out="00:00:00.983">
  <property name="length">60</property>
  <property name="eof">pause</property>
  <property name="resource">/home/xiaoxiae/.cache/kdenlive/proxy/821648d89194557331d06bd4f2184f7f.mkv</property>
  <property name="mlt_service">avformat-novalidate</property>
  <property name="seekable">1</property>
  <property name="format">3</property>
  <property name="audio_index">-1</property>
  <property name="video_index">0</property>
  <property name="kdenlive:clipname">146.mp4</property>
  <property name="kdenlive:clip_type">2</property>
  <property name="kdenlive:folderid">16</property>
  <property name="kdenlive:id">69</property>
  <property name="mute_on_pause">0</property>
  <property name="kdenlive:file_size">78974</property>
  <property name="kdenlive:file_hash">821648d89194557331d06bd4f2184f7f</property>
  <property name="kdenlive:proxy">/home/xiaoxiae/.cache/kdenlive/proxy/821648d89194557331d06bd4f2184f7f.mkv</property>
  <property name="kdenlive:originalurl">video/Farmer/146.mp4</property>
  <property name="kdenlive:original.mlt_type">chain</property>
  <property name="kdenlive:original.in">0</property>
  <property name="kdenlive:original.out">00:00:00.983</property>
  <property name="kdenlive:original.length">60</property>
  <property name="kdenlive:original.eof">pause</property>
  <property name="kdenlive:original.resource">video/Farmer/146.mp4</property>
  <property name="kdenlive:original.mlt_service">avformat-novalidate</property>
  <property name="kdenlive:original.meta.media.nb_streams">1</property>
  <property name="kdenlive:original.meta.media.0.stream.type">video</property>
  <property name="kdenlive:original.meta.media.0.stream.frame_rate">60</property>
  <property name="kdenlive:original.meta.media.0.stream.sample_aspect_ratio">0</property>
  <property name="kdenlive:original.meta.media.0.codec.width">1920</property>
  <property name="kdenlive:original.meta.media.0.codec.height">1080</property>
  <property name="kdenlive:original.meta.media.0.codec.rotate">0</property>
  <property name="kdenlive:original.meta.media.0.codec.pix_fmt">yuv420p</property>
  <property name="kdenlive:original.meta.media.0.codec.sample_aspect_ratio">0</property>
  <property name="kdenlive:original.meta.media.0.codec.colorspace">709</property>
  <property name="kdenlive:original.meta.media.0.codec.name">h264</property>
  <property name="kdenlive:original.meta.media.0.codec.long_name">H.264 / AVC / MPEG-4 AVC / MPEG-4 part 10</property>
  <property name="kdenlive:original.meta.media.0.codec.bit_rate">618736</property>
  <property name="kdenlive:original.meta.attr.0.stream.handler_name.markup">VideoHandler</property>
  <property name="kdenlive:original.meta.attr.0.stream.vendor_id.markup">[0][0][0][0]</property>
  <property name="kdenlive:original.meta.attr.0.stream.encoder.markup">Lavc60.3.100 libx264</property>
  <property name="kdenlive:original.meta.attr.major_brand.markup">isom</property>
  <property name="kdenlive:original.meta.attr.minor_version.markup">512</property>
  <property name="kdenlive:original.meta.attr.compatible_brands.markup">isomiso2avc1mp41</property>
  <property name="kdenlive:original.meta.attr.encoder.markup">Lavf60.3.100</property>
  <property name="kdenlive:original.meta.attr.comment.markup">Rendered with Manim Community v0.17.3</property>
  <property name="kdenlive:original.seekable">1</property>
  <property name="kdenlive:original.width">1920</property>
  <property name="kdenlive:original.height">1080</property>
  <property name="kdenlive:original.meta.media.sample_aspect_num">1</property>
  <property name="kdenlive:original.meta.media.sample_aspect_den">1</property>
  <property name="kdenlive:original.format">3</property>
  <property name="kdenlive:original.audio_index">-1</property>
  <property name="kdenlive:original.video_index">0</property>
  <property name="kdenlive:original.meta.media.frame_rate_num">60</property>
  <property name="kdenlive:original.meta.media.frame_rate_den">1</property>
  <property name="kdenlive:original.meta.media.colorspace">709</property>
  <property name="kdenlive:original.meta.media.color_trc">2</property>
  <property name="kdenlive:original.meta.media.has_b_frames">2</property>
  <property name="kdenlive:original.meta.media.width">1920</property>
  <property name="kdenlive:original.meta.media.height">1080</property>
  <property name="kdenlive:original.meta.media.color_range">mpeg</property>
  <property name="kdenlive:original.meta.media.top_field_first">0</property>
  <property name="kdenlive:original.meta.media.progressive">1</property>
  <property name="kdenlive:original.kdenlive:clip_type">2</property>
  <property name="kdenlive:original.kdenlive:folderid">16</property>
  <property name="kdenlive:original.kdenlive:id">69</property>
  <property name="kdenlive:original.mute_on_pause">0</property>
  <property name="kdenlive:original.kdenlive:file_size">78974</property>
  <property name="kdenlive:original.kdenlive:file_hash">821648d89194557331d06bd4f2184f7f</property>
  <property name="kdenlive:original.backup">1</property>
  <property name="meta.media.nb_streams">1</property>
  <property name="meta.media.0.stream.type">video</property>
  <property name="meta.media.0.stream.frame_rate">60</property>
  <property name="meta.media.0.stream.sample_aspect_ratio">0</property>
  <property name="meta.media.0.codec.width">640</property>
  <property name="meta.media.0.codec.height">360</property>
  <property name="meta.media.0.codec.rotate">0</property>
  <property name="meta.media.0.codec.pix_fmt">yuvj420p</property>
  <property name="meta.media.0.codec.sample_aspect_ratio">0</property>
  <property name="meta.media.0.codec.colorspace">601</property>
  <property name="meta.media.0.codec.name">mjpeg</property>
  <property name="meta.media.0.codec.long_name">MJPEG (Motion JPEG)</property>
  <property name="meta.media.0.codec.bit_rate">0</property>
  <property name="meta.attr.0.stream.HANDLER_NAME.markup">VideoHandler</property>
  <property name="meta.attr.0.stream.VENDOR_ID.markup">[0][0][0][0]</property>
  <property name="meta.attr.0.stream.ENCODER.markup">Lavc60.3.100 mjpeg</property>
  <property name="meta.attr.0.stream.DURATION.markup">00:00:01.000000000</property>
  <property name="meta.attr.COMMENT.markup">Rendered with Manim Community v0.17.3</property>
  <property name="meta.attr.MAJOR_BRAND.markup">isom</property>
  <property name="meta.attr.MINOR_VERSION.markup">512</property>
  <property name="meta.attr.COMPATIBLE_BRANDS.markup">isomiso2avc1mp41</property>
  <property name="meta.attr.ENCODER.markup">Lavf60.3.100</property>
  <property name="meta.media.sample_aspect_num">1</property>
  <property name="meta.media.sample_aspect_den">1</property>
  <property name="meta.media.frame_rate_num">60</property>
  <property name="meta.media.frame_rate_den">1</property>
  <property name="meta.media.colorspace">601</property>
  <property name="meta.media.color_trc">2</property>
  <property name="meta.media.has_b_frames">0</property>
  <property name="meta.media.width">640</property>
  <property name="meta.media.height">360</property>
  <property name="meta.media.color_range">full</property>
  <property name="xml">was here</property>
  <property name="meta.media.top_field_first">0</property>
  <property name="meta.media.progressive">1</property>
  <property name="set.test_audio">1</property>
  <property name="set.test_image">0</property>
 </chain>
 <chain id="chain654" out="00:00:00.983">
  <property name="length">60</property>
  <property name="eof">pause</property>
  <property name="resource">/home/xiaoxiae/.cache/kdenlive/proxy/b1ab0f060b88d188f09dfbaa8a44f35c.mkv</property>
  <property name="mlt_service">avformat-novalidate</property>
  <property name="seekable">1</property>
  <property name="format">3</property>
  <property name="audio_index">-1</property>
  <property name="video_index">0</property>
  <property name="kdenlive:clipname">147.mp4</property>
  <property name="kdenlive:clip_type">2</property>
  <property name="kdenlive:folderid">16</property>
  <property name="kdenlive:id">70</property>
  <property name="mute_on_pause">0</property>
  <property name="kdenlive:file_size">224780</property>
  <property name="kdenlive:file_hash">b1ab0f060b88d188f09dfbaa8a44f35c</property>
  <property name="kdenlive:proxy">/home/xiaoxiae/.cache/kdenlive/proxy/b1ab0f060b88d188f09dfbaa8a44f35c.mkv</property>
  <property name="kdenlive:originalurl">video/Farmer/147.mp4</property>
  <property name="kdenlive:original.mlt_type">chain</property>
  <property name="kdenlive:original.in">0</property>
  <property name="kdenlive:original.out">00:00:00.983</property>
  <property name="kdenlive:original.length">60</property>
  <property name="kdenlive:original.eof">pause</property>
  <property name="kdenlive:original.resource">video/Farmer/147.mp4</property>
  <property name="kdenlive:original.mlt_service">avformat-novalidate</property>
  <property name="kdenlive:original.meta.media.nb_streams">1</property>
  <property name="kdenlive:original.meta.media.0.stream.type">video</property>
  <property name="kdenlive:original.meta.media.0.stream.frame_rate">60</property>
  <property name="kdenlive:original.meta.media.0.stream.sample_aspect_ratio">0</property>
  <property name="kdenlive:original.meta.media.0.codec.width">1920</property>
  <property name="kdenlive:original.meta.media.0.codec.height">1080</property>
  <property name="kdenlive:original.meta.media.0.codec.rotate">0</property>
  <property name="kdenlive:original.meta.media.0.codec.pix_fmt">yuv420p</property>
  <property name="kdenlive:original.meta.media.0.codec.sample_aspect_ratio">0</property>
  <property name="kdenlive:original.meta.media.0.codec.colorspace">709</property>
  <property name="kdenlive:original.meta.media.0.codec.name">h264</property>
  <property name="kdenlive:original.meta.media.0.codec.long_name">H.264 / AVC / MPEG-4 AVC / MPEG-4 part 10</property>
  <property name="kdenlive:original.meta.media.0.codec.bit_rate">1785696</property>
  <property name="kdenlive:original.meta.attr.0.stream.handler_name.markup">VideoHandler</property>
  <property name="kdenlive:original.meta.attr.0.stream.vendor_id.markup">[0][0][0][0]</property>
  <property name="kdenlive:original.meta.attr.0.stream.encoder.markup">Lavc60.3.100 libx264</property>
  <property name="kdenlive:original.meta.attr.major_brand.markup">isom</property>
  <property name="kdenlive:original.meta.attr.minor_version.markup">512</property>
  <property name="kdenlive:original.meta.attr.compatible_brands.markup">isomiso2avc1mp41</property>
  <property name="kdenlive:original.meta.attr.encoder.markup">Lavf60.3.100</property>
  <property name="kdenlive:original.meta.attr.comment.markup">Rendered with Manim Community v0.17.3</property>
  <property name="kdenlive:original.seekable">1</property>
  <property name="kdenlive:original.width">1920</property>
  <property name="kdenlive:original.height">1080</property>
  <property name="kdenlive:original.meta.media.sample_aspect_num">1</property>
  <property name="kdenlive:original.meta.media.sample_aspect_den">1</property>
  <property name="kdenlive:original.format">3</property>
  <property name="kdenlive:original.audio_index">-1</property>
  <property name="kdenlive:original.video_index">0</property>
  <property name="kdenlive:original.meta.media.frame_rate_num">60</property>
  <property name="kdenlive:original.meta.media.frame_rate_den">1</property>
  <property name="kdenlive:original.meta.media.colorspace">709</property>
  <property name="kdenlive:original.meta.media.color_trc">2</property>
  <property name="kdenlive:original.meta.media.has_b_frames">2</property>
  <property name="kdenlive:original.meta.media.width">1920</property>
  <property name="kdenlive:original.meta.media.height">1080</property>
  <property name="kdenlive:original.meta.media.color_range">mpeg</property>
  <property name="kdenlive:original.meta.media.top_field_first">0</property>
  <property name="kdenlive:original.meta.media.progressive">1</property>
  <property name="kdenlive:original.kdenlive:clip_type">2</property>
  <property name="kdenlive:original.kdenlive:folderid">16</property>
  <property name="kdenlive:original.kdenlive:id">70</property>
  <property name="kdenlive:original.mute_on_pause">0</property>
  <property name="kdenlive:original.kdenlive:file_size">224780</property>
  <property name="kdenlive:original.kdenlive:file_hash">b1ab0f060b88d188f09dfbaa8a44f35c</property>
  <property name="kdenlive:original.backup">1</property>
  <property name="meta.media.nb_streams">1</property>
  <property name="meta.media.0.stream.type">video</property>
  <property name="meta.media.0.stream.frame_rate">60</property>
  <property name="meta.media.0.stream.sample_aspect_ratio">0</property>
  <property name="meta.media.0.codec.width">640</property>
  <property name="meta.media.0.codec.height">360</property>
  <property name="meta.media.0.codec.rotate">0</property>
  <property name="meta.media.0.codec.pix_fmt">yuvj420p</property>
  <property name="meta.media.0.codec.sample_aspect_ratio">0</property>
  <property name="meta.media.0.codec.colorspace">601</property>
  <property name="meta.media.0.codec.name">mjpeg</property>
  <property name="meta.media.0.codec.long_name">MJPEG (Motion JPEG)</property>
  <property name="meta.media.0.codec.bit_rate">0</property>
  <property name="meta.attr.0.stream.HANDLER_NAME.markup">VideoHandler</property>
  <property name="meta.attr.0.stream.VENDOR_ID.markup">[0][0][0][0]</property>
  <property name="meta.attr.0.stream.ENCODER.markup">Lavc60.3.100 mjpeg</property>
  <property name="meta.attr.0.stream.DURATION.markup">00:00:01.000000000</property>
  <property name="meta.attr.COMMENT.markup">Rendered with Manim Community v0.17.3</property>
  <property name="meta.attr.MAJOR_BRAND.markup">isom</property>
  <property name="meta.attr.MINOR_VERSION.markup">512</property>
  <property name="meta.attr.COMPATIBLE_BRANDS.markup">isomiso2avc1mp41</property>
  <property name="meta.attr.ENCODER.markup">Lavf60.3.100</property>
  <property name="meta.media.sample_aspect_num">1</property>
  <property name="meta.media.sample_aspect_den">1</property>
  <property name="meta.media.frame_rate_num">60</property>
  <property name="meta.media.frame_rate_den">1</property>
  <property name="meta.media.colorspace">601</property>
  <property name="meta.media.color_trc">2</property>
  <property name="meta.media.has_b_frames">0</property>
  <property name="meta.media.width">640</property>
  <property name="meta.media.height">360</property>
  <property name="meta.media.color_range">full</property>
  <property name="xml">was here</property>
  <property name="meta.media.top_field_first">0</property>
  <property name="meta.media.progressive">1</property>
  <property name="set.test_audio">1</property>
  <property name="set.test_image">0</property>
 </chain>
 <chain id="chain655" out="00:00:01.183">
  <property name="length">72</property>
  <property name="eof">pause</property>
  <property name="resource">/home/xiaoxiae/.cache/kdenlive/proxy/125812133726943be9928269ae5817ba.mkv</property>
  <property name="mlt_service">avformat-novalidate</property>
  <property name="seekable">1</property>
  <property name="format">3</property>
  <property name="audio_index">-1</property>
  <property name="video_index">0</property>
  <property name="kdenlive:clipname">148.mp4</property>
  <property name="kdenlive:clip_type">2</property>
  <property name="kdenlive:folderid">16</property>
  <property name="kdenlive:id">71</property>
  <property name="mute_on_pause">0</property>
  <property name="kdenlive:file_size">40281</property>
  <property name="kdenlive:file_hash">125812133726943be9928269ae5817ba</property>
  <property name="kdenlive:proxy">/home/xiaoxiae/.cache/kdenlive/proxy/125812133726943be9928269ae5817ba.mkv</property>
  <property name="kdenlive:originalurl">video/Farmer/148.mp4</property>
  <property name="kdenlive:original.mlt_type">chain</property>
  <property name="kdenlive:original.in">0</property>
  <property name="kdenlive:original.out">00:00:01.183</property>
  <property name="kdenlive:original.length">72</property>
  <property name="kdenlive:original.eof">pause</property>
  <property name="kdenlive:original.resource">video/Farmer/148.mp4</property>
  <property name="kdenlive:original.mlt_service">avformat-novalidate</property>
  <property name="kdenlive:original.meta.media.nb_streams">1</property>
  <property name="kdenlive:original.meta.media.0.stream.type">video</property>
  <property name="kdenlive:original.meta.media.0.stream.frame_rate">60</property>
  <property name="kdenlive:original.meta.media.0.stream.sample_aspect_ratio">0</property>
  <property name="kdenlive:original.meta.media.0.codec.width">1920</property>
  <property name="kdenlive:original.meta.media.0.codec.height">1080</property>
  <property name="kdenlive:original.meta.media.0.codec.rotate">0</property>
  <property name="kdenlive:original.meta.media.0.codec.pix_fmt">yuv420p</property>
  <property name="kdenlive:original.meta.media.0.codec.sample_aspect_ratio">0</property>
  <property name="kdenlive:original.meta.media.0.codec.colorspace">709</property>
  <property name="kdenlive:original.meta.media.0.codec.name">h264</property>
  <property name="kdenlive:original.meta.media.0.codec.long_name">H.264 / AVC / MPEG-4 AVC / MPEG-4 part 10</property>
  <property name="kdenlive:original.meta.media.0.codec.bit_rate">256700</property>
  <property name="kdenlive:original.meta.attr.0.stream.handler_name.markup">VideoHandler</property>
  <property name="kdenlive:original.meta.attr.0.stream.vendor_id.markup">[0][0][0][0]</property>
  <property name="kdenlive:original.meta.attr.0.stream.encoder.markup">Lavc60.3.100 libx264</property>
  <property name="kdenlive:original.meta.attr.major_brand.markup">isom</property>
  <property name="kdenlive:original.meta.attr.minor_version.markup">512</property>
  <property name="kdenlive:original.meta.attr.compatible_brands.markup">isomiso2avc1mp41</property>
  <property name="kdenlive:original.meta.attr.encoder.markup">Lavf60.3.100</property>
  <property name="kdenlive:original.meta.attr.comment.markup">Rendered with Manim Community v0.17.3</property>
  <property name="kdenlive:original.seekable">1</property>
  <property name="kdenlive:original.width">1920</property>
  <property name="kdenlive:original.height">1080</property>
  <property name="kdenlive:original.meta.media.sample_aspect_num">1</property>
  <property name="kdenlive:original.meta.media.sample_aspect_den">1</property>
  <property name="kdenlive:original.format">3</property>
  <property name="kdenlive:original.audio_index">-1</property>
  <property name="kdenlive:original.video_index">0</property>
  <property name="kdenlive:original.meta.media.frame_rate_num">60</property>
  <property name="kdenlive:original.meta.media.frame_rate_den">1</property>
  <property name="kdenlive:original.meta.media.colorspace">709</property>
  <property name="kdenlive:original.meta.media.color_trc">2</property>
  <property name="kdenlive:original.meta.media.has_b_frames">2</property>
  <property name="kdenlive:original.meta.media.width">1920</property>
  <property name="kdenlive:original.meta.media.height">1080</property>
  <property name="kdenlive:original.meta.media.color_range">mpeg</property>
  <property name="kdenlive:original.meta.media.top_field_first">0</property>
  <property name="kdenlive:original.meta.media.progressive">1</property>
  <property name="kdenlive:original.kdenlive:clip_type">2</property>
  <property name="kdenlive:original.kdenlive:folderid">16</property>
  <property name="kdenlive:original.kdenlive:id">71</property>
  <property name="kdenlive:original.mute_on_pause">0</property>
  <property name="kdenlive:original.kdenlive:file_size">40281</property>
  <property name="kdenlive:original.kdenlive:file_hash">125812133726943be9928269ae5817ba</property>
  <property name="kdenlive:original.backup">1</property>
  <property name="meta.media.nb_streams">1</property>
  <property name="meta.media.0.stream.type">video</property>
  <property name="meta.media.0.stream.frame_rate">60</property>
  <property name="meta.media.0.stream.sample_aspect_ratio">0</property>
  <property name="meta.media.0.codec.width">640</property>
  <property name="meta.media.0.codec.height">360</property>
  <property name="meta.media.0.codec.rotate">0</property>
  <property name="meta.media.0.codec.pix_fmt">yuvj420p</property>
  <property name="meta.media.0.codec.sample_aspect_ratio">0</property>
  <property name="meta.media.0.codec.colorspace">601</property>
  <property name="meta.media.0.codec.name">mjpeg</property>
  <property name="meta.media.0.codec.long_name">MJPEG (Motion JPEG)</property>
  <property name="meta.media.0.codec.bit_rate">0</property>
  <property name="meta.attr.0.stream.HANDLER_NAME.markup">VideoHandler</property>
  <property name="meta.attr.0.stream.VENDOR_ID.markup">[0][0][0][0]</property>
  <property name="meta.attr.0.stream.ENCODER.markup">Lavc60.3.100 mjpeg</property>
  <property name="meta.attr.0.stream.DURATION.markup">00:00:01.200000000</property>
  <property name="meta.attr.COMMENT.markup">Rendered with Manim Community v0.17.3</property>
  <property name="meta.attr.MAJOR_BRAND.markup">isom</property>
  <property name="meta.attr.MINOR_VERSION.markup">512</property>
  <property name="meta.attr.COMPATIBLE_BRANDS.markup">isomiso2avc1mp41</property>
  <property name="meta.attr.ENCODER.markup">Lavf60.3.100</property>
  <property name="meta.media.sample_aspect_num">1</property>
  <property name="meta.media.sample_aspect_den">1</property>
  <property name="meta.media.frame_rate_num">60</property>
  <property name="meta.media.frame_rate_den">1</property>
  <property name="meta.media.colorspace">601</property>
  <property name="meta.media.color_trc">2</property>
  <property name="meta.media.has_b_frames">0</property>
  <property name="meta.media.width">640</property>
  <property name="meta.media.height">360</property>
  <property name="meta.media.color_range">full</property>
  <property name="xml">was here</property>
  <property name="meta.media.top_field_first">0</property>
  <property name="meta.media.progressive">1</property>
  <property name="set.test_audio">1</property>
  <property name="set.test_image">0</property>
 </chain>
 <chain id="chain656" out="00:00:01.983">
  <property name="length">120</property>
  <property name="eof">pause</property>
  <property name="resource">/home/xiaoxiae/.cache/kdenlive/proxy/48f206c25d9ed8aeeb9cf97c491b43e3.mkv</property>
  <property name="mlt_service">avformat-novalidate</property>
  <property name="seekable">1</property>
  <property name="format">3</property>
  <property name="audio_index">-1</property>
  <property name="video_index">0</property>
  <property name="kdenlive:clipname">149.mp4</property>
  <property name="kdenlive:clip_type">2</property>
  <property name="kdenlive:folderid">16</property>
  <property name="kdenlive:id">72</property>
  <property name="mute_on_pause">0</property>
  <property name="kdenlive:file_size">102460</property>
  <property name="kdenlive:file_hash">48f206c25d9ed8aeeb9cf97c491b43e3</property>
  <property name="kdenlive:proxy">/home/xiaoxiae/.cache/kdenlive/proxy/48f206c25d9ed8aeeb9cf97c491b43e3.mkv</property>
  <property name="kdenlive:originalurl">video/Farmer/149.mp4</property>
  <property name="kdenlive:original.mlt_type">chain</property>
  <property name="kdenlive:original.in">0</property>
  <property name="kdenlive:original.out">00:00:01.983</property>
  <property name="kdenlive:original.length">120</property>
  <property name="kdenlive:original.eof">pause</property>
  <property name="kdenlive:original.resource">video/Farmer/149.mp4</property>
  <property name="kdenlive:original.mlt_service">avformat-novalidate</property>
  <property name="kdenlive:original.meta.media.nb_streams">1</property>
  <property name="kdenlive:original.meta.media.0.stream.type">video</property>
  <property name="kdenlive:original.meta.media.0.stream.frame_rate">60</property>
  <property name="kdenlive:original.meta.media.0.stream.sample_aspect_ratio">0</property>
  <property name="kdenlive:original.meta.media.0.codec.width">1920</property>
  <property name="kdenlive:original.meta.media.0.codec.height">1080</property>
  <property name="kdenlive:original.meta.media.0.codec.rotate">0</property>
  <property name="kdenlive:original.meta.media.0.codec.pix_fmt">yuv420p</property>
  <property name="kdenlive:original.meta.media.0.codec.sample_aspect_ratio">0</property>
  <property name="kdenlive:original.meta.media.0.codec.colorspace">709</property>
  <property name="kdenlive:original.meta.media.0.codec.name">h264</property>
  <property name="kdenlive:original.meta.media.0.codec.long_name">H.264 / AVC / MPEG-4 AVC / MPEG-4 part 10</property>
  <property name="kdenlive:original.meta.media.0.codec.bit_rate">400784</property>
  <property name="kdenlive:original.meta.attr.0.stream.handler_name.markup">VideoHandler</property>
  <property name="kdenlive:original.meta.attr.0.stream.vendor_id.markup">[0][0][0][0]</property>
  <property name="kdenlive:original.meta.attr.0.stream.encoder.markup">Lavc60.3.100 libx264</property>
  <property name="kdenlive:original.meta.attr.major_brand.markup">isom</property>
  <property name="kdenlive:original.meta.attr.minor_version.markup">512</property>
  <property name="kdenlive:original.meta.attr.compatible_brands.markup">isomiso2avc1mp41</property>
  <property name="kdenlive:original.meta.attr.encoder.markup">Lavf60.3.100</property>
  <property name="kdenlive:original.meta.attr.comment.markup">Rendered with Manim Community v0.17.3</property>
  <property name="kdenlive:original.seekable">1</property>
  <property name="kdenlive:original.width">1920</property>
  <property name="kdenlive:original.height">1080</property>
  <property name="kdenlive:original.meta.media.sample_aspect_num">1</property>
  <property name="kdenlive:original.meta.media.sample_aspect_den">1</property>
  <property name="kdenlive:original.format">3</property>
  <property name="kdenlive:original.audio_index">-1</property>
  <property name="kdenlive:original.video_index">0</property>
  <property name="kdenlive:original.meta.media.frame_rate_num">60</property>
  <property name="kdenlive:original.meta.media.frame_rate_den">1</property>
  <property name="kdenlive:original.meta.media.colorspace">709</property>
  <property name="kdenlive:original.meta.media.color_trc">2</property>
  <property name="kdenlive:original.meta.media.has_b_frames">2</property>
  <property name="kdenlive:original.meta.media.width">1920</property>
  <property name="kdenlive:original.meta.media.height">1080</property>
  <property name="kdenlive:original.meta.media.color_range">mpeg</property>
  <property name="kdenlive:original.meta.media.top_field_first">0</property>
  <property name="kdenlive:original.meta.media.progressive">1</property>
  <property name="kdenlive:original.kdenlive:clip_type">2</property>
  <property name="kdenlive:original.kdenlive:folderid">16</property>
  <property name="kdenlive:original.kdenlive:id">72</property>
  <property name="kdenlive:original.mute_on_pause">0</property>
  <property name="kdenlive:original.kdenlive:file_size">102460</property>
  <property name="kdenlive:original.kdenlive:file_hash">48f206c25d9ed8aeeb9cf97c491b43e3</property>
  <property name="kdenlive:original.backup">1</property>
  <property name="meta.media.nb_streams">1</property>
  <property name="meta.media.0.stream.type">video</property>
  <property name="meta.media.0.stream.frame_rate">60</property>
  <property name="meta.media.0.stream.sample_aspect_ratio">0</property>
  <property name="meta.media.0.codec.width">640</property>
  <property name="meta.media.0.codec.height">360</property>
  <property name="meta.media.0.codec.rotate">0</property>
  <property name="meta.media.0.codec.pix_fmt">yuvj420p</property>
  <property name="meta.media.0.codec.sample_aspect_ratio">0</property>
  <property name="meta.media.0.codec.colorspace">601</property>
  <property name="meta.media.0.codec.name">mjpeg</property>
  <property name="meta.media.0.codec.long_name">MJPEG (Motion JPEG)</property>
  <property name="meta.media.0.codec.bit_rate">0</property>
  <property name="meta.attr.0.stream.HANDLER_NAME.markup">VideoHandler</property>
  <property name="meta.attr.0.stream.VENDOR_ID.markup">[0][0][0][0]</property>
  <property name="meta.attr.0.stream.ENCODER.markup">Lavc60.3.100 mjpeg</property>
  <property name="meta.attr.0.stream.DURATION.markup">00:00:02.000000000</property>
  <property name="meta.attr.COMMENT.markup">Rendered with Manim Community v0.17.3</property>
  <property name="meta.attr.MAJOR_BRAND.markup">isom</property>
  <property name="meta.attr.MINOR_VERSION.markup">512</property>
  <property name="meta.attr.COMPATIBLE_BRANDS.markup">isomiso2avc1mp41</property>
  <property name="meta.attr.ENCODER.markup">Lavf60.3.100</property>
  <property name="meta.media.sample_aspect_num">1</property>
  <property name="meta.media.sample_aspect_den">1</property>
  <property name="meta.media.frame_rate_num">60</property>
  <property name="meta.media.frame_rate_den">1</property>
  <property name="meta.media.colorspace">601</property>
  <property name="meta.media.color_trc">2</property>
  <property name="meta.media.has_b_frames">0</property>
  <property name="meta.media.width">640</property>
  <property name="meta.media.height">360</property>
  <property name="meta.media.color_range">full</property>
  <property name="xml">was here</property>
  <property name="meta.media.top_field_first">0</property>
  <property name="meta.media.progressive">1</property>
  <property name="set.test_audio">1</property>
  <property name="set.test_image">0</property>
 </chain>
 <chain id="chain657" out="00:00:00.983">
  <property name="length">60</property>
  <property name="eof">pause</property>
  <property name="resource">/home/xiaoxiae/.cache/kdenlive/proxy/8de0e2b3f00f86bf2edc03c4677635a0.mkv</property>
  <property name="mlt_service">avformat-novalidate</property>
  <property name="seekable">1</property>
  <property name="format">3</property>
  <property name="audio_index">-1</property>
  <property name="video_index">0</property>
  <property name="kdenlive:clipname">150.mp4</property>
  <property name="kdenlive:clip_type">2</property>
  <property name="kdenlive:folderid">16</property>
  <property name="kdenlive:id">74</property>
  <property name="mute_on_pause">0</property>
  <property name="kdenlive:file_size">46892</property>
  <property name="kdenlive:file_hash">8de0e2b3f00f86bf2edc03c4677635a0</property>
  <property name="kdenlive:proxy">/home/xiaoxiae/.cache/kdenlive/proxy/8de0e2b3f00f86bf2edc03c4677635a0.mkv</property>
  <property name="kdenlive:originalurl">video/Farmer/150.mp4</property>
  <property name="kdenlive:original.mlt_type">chain</property>
  <property name="kdenlive:original.in">0</property>
  <property name="kdenlive:original.out">00:00:00.983</property>
  <property name="kdenlive:original.length">60</property>
  <property name="kdenlive:original.eof">pause</property>
  <property name="kdenlive:original.resource">video/Farmer/150.mp4</property>
  <property name="kdenlive:original.mlt_service">avformat-novalidate</property>
  <property name="kdenlive:original.meta.media.nb_streams">1</property>
  <property name="kdenlive:original.meta.media.0.stream.type">video</property>
  <property name="kdenlive:original.meta.media.0.stream.frame_rate">60</property>
  <property name="kdenlive:original.meta.media.0.stream.sample_aspect_ratio">0</property>
  <property name="kdenlive:original.meta.media.0.codec.width">1920</property>
  <property name="kdenlive:original.meta.media.0.codec.height">1080</property>
  <property name="kdenlive:original.meta.media.0.codec.rotate">0</property>
  <property name="kdenlive:original.meta.media.0.codec.pix_fmt">yuv420p</property>
  <property name="kdenlive:original.meta.media.0.codec.sample_aspect_ratio">0</property>
  <property name="kdenlive:original.meta.media.0.codec.colorspace">709</property>
  <property name="kdenlive:original.meta.media.0.codec.name">h264</property>
  <property name="kdenlive:original.meta.media.0.codec.long_name">H.264 / AVC / MPEG-4 AVC / MPEG-4 part 10</property>
  <property name="kdenlive:original.meta.media.0.codec.bit_rate">362080</property>
  <property name="kdenlive:original.meta.attr.0.stream.handler_name.markup">VideoHandler</property>
  <property name="kdenlive:original.meta.attr.0.stream.vendor_id.markup">[0][0][0][0]</property>
  <property name="kdenlive:original.meta.attr.0.stream.encoder.markup">Lavc60.3.100 libx264</property>
  <property name="kdenlive:original.meta.attr.major_brand.markup">isom</property>
  <property name="kdenlive:original.meta.attr.minor_version.markup">512</property>
  <property name="kdenlive:original.meta.attr.compatible_brands.markup">isomiso2avc1mp41</property>
  <property name="kdenlive:original.meta.attr.encoder.markup">Lavf60.3.100</property>
  <property name="kdenlive:original.meta.attr.comment.markup">Rendered with Manim Community v0.17.3</property>
  <property name="kdenlive:original.seekable">1</property>
  <property name="kdenlive:original.width">1920</property>
  <property name="kdenlive:original.height">1080</property>
  <property name="kdenlive:original.meta.media.sample_aspect_num">1</property>
  <property name="kdenlive:original.meta.media.sample_aspect_den">1</property>
  <property name="kdenlive:original.format">3</property>
  <property name="kdenlive:original.audio_index">-1</property>
  <property name="kdenlive:original.video_index">0</property>
  <property name="kdenlive:original.meta.media.frame_rate_num">60</property>
  <property name="kdenlive:original.meta.media.frame_rate_den">1</property>
  <property name="kdenlive:original.meta.media.colorspace">709</property>
  <property name="kdenlive:original.meta.media.color_trc">2</property>
  <property name="kdenlive:original.meta.media.has_b_frames">2</property>
  <property name="kdenlive:original.meta.media.width">1920</property>
  <property name="kdenlive:original.meta.media.height">1080</property>
  <property name="kdenlive:original.meta.media.color_range">mpeg</property>
  <property name="kdenlive:original.meta.media.top_field_first">0</property>
  <property name="kdenlive:original.meta.media.progressive">1</property>
  <property name="kdenlive:original.kdenlive:clip_type">2</property>
  <property name="kdenlive:original.kdenlive:folderid">16</property>
  <property name="kdenlive:original.kdenlive:id">74</property>
  <property name="kdenlive:original.mute_on_pause">0</property>
  <property name="kdenlive:original.kdenlive:file_size">46892</property>
  <property name="kdenlive:original.kdenlive:file_hash">8de0e2b3f00f86bf2edc03c4677635a0</property>
  <property name="kdenlive:original.backup">1</property>
  <property name="meta.media.nb_streams">1</property>
  <property name="meta.media.0.stream.type">video</property>
  <property name="meta.media.0.stream.frame_rate">60</property>
  <property name="meta.media.0.stream.sample_aspect_ratio">0</property>
  <property name="meta.media.0.codec.width">640</property>
  <property name="meta.media.0.codec.height">360</property>
  <property name="meta.media.0.codec.rotate">0</property>
  <property name="meta.media.0.codec.pix_fmt">yuvj420p</property>
  <property name="meta.media.0.codec.sample_aspect_ratio">0</property>
  <property name="meta.media.0.codec.colorspace">601</property>
  <property name="meta.media.0.codec.name">mjpeg</property>
  <property name="meta.media.0.codec.long_name">MJPEG (Motion JPEG)</property>
  <property name="meta.media.0.codec.bit_rate">0</property>
  <property name="meta.attr.0.stream.HANDLER_NAME.markup">VideoHandler</property>
  <property name="meta.attr.0.stream.VENDOR_ID.markup">[0][0][0][0]</property>
  <property name="meta.attr.0.stream.ENCODER.markup">Lavc60.3.100 mjpeg</property>
  <property name="meta.attr.0.stream.DURATION.markup">00:00:01.000000000</property>
  <property name="meta.attr.COMMENT.markup">Rendered with Manim Community v0.17.3</property>
  <property name="meta.attr.MAJOR_BRAND.markup">isom</property>
  <property name="meta.attr.MINOR_VERSION.markup">512</property>
  <property name="meta.attr.COMPATIBLE_BRANDS.markup">isomiso2avc1mp41</property>
  <property name="meta.attr.ENCODER.markup">Lavf60.3.100</property>
  <property name="meta.media.sample_aspect_num">1</property>
  <property name="meta.media.sample_aspect_den">1</property>
  <property name="meta.media.frame_rate_num">60</property>
  <property name="meta.media.frame_rate_den">1</property>
  <property name="meta.media.colorspace">601</property>
  <property name="meta.media.color_trc">2</property>
  <property name="meta.media.has_b_frames">0</property>
  <property name="meta.media.width">640</property>
  <property name="meta.media.height">360</property>
  <property name="meta.media.color_range">full</property>
  <property name="xml">was here</property>
  <property name="meta.media.top_field_first">0</property>
  <property name="meta.media.progressive">1</property>
  <property name="set.test_audio">1</property>
  <property name="set.test_image">0</property>
 </chain>
 <chain id="chain658" out="00:00:00.983">
  <property name="length">60</property>
  <property name="eof">pause</property>
  <property name="resource">/home/xiaoxiae/.cache/kdenlive/proxy/8fa73b1e27d5364eb348478de684d7b1.mkv</property>
  <property name="mlt_service">avformat-novalidate</property>
  <property name="seekable">1</property>
  <property name="format">3</property>
  <property name="audio_index">-1</property>
  <property name="video_index">0</property>
  <property name="kdenlive:clipname">151.mp4</property>
  <property name="kdenlive:clip_type">2</property>
  <property name="kdenlive:folderid">16</property>
  <property name="kdenlive:id">75</property>
  <property name="mute_on_pause">0</property>
  <property name="kdenlive:file_size">44228</property>
  <property name="kdenlive:file_hash">8fa73b1e27d5364eb348478de684d7b1</property>
  <property name="kdenlive:proxy">/home/xiaoxiae/.cache/kdenlive/proxy/8fa73b1e27d5364eb348478de684d7b1.mkv</property>
  <property name="kdenlive:originalurl">video/Farmer/151.mp4</property>
  <property name="kdenlive:original.mlt_type">chain</property>
  <property name="kdenlive:original.in">0</property>
  <property name="kdenlive:original.out">00:00:00.983</property>
  <property name="kdenlive:original.length">60</property>
  <property name="kdenlive:original.eof">pause</property>
  <property name="kdenlive:original.resource">video/Farmer/151.mp4</property>
  <property name="kdenlive:original.mlt_service">avformat-novalidate</property>
  <property name="kdenlive:original.meta.media.nb_streams">1</property>
  <property name="kdenlive:original.meta.media.0.stream.type">video</property>
  <property name="kdenlive:original.meta.media.0.stream.frame_rate">60</property>
  <property name="kdenlive:original.meta.media.0.stream.sample_aspect_ratio">0</property>
  <property name="kdenlive:original.meta.media.0.codec.width">1920</property>
  <property name="kdenlive:original.meta.media.0.codec.height">1080</property>
  <property name="kdenlive:original.meta.media.0.codec.rotate">0</property>
  <property name="kdenlive:original.meta.media.0.codec.pix_fmt">yuv420p</property>
  <property name="kdenlive:original.meta.media.0.codec.sample_aspect_ratio">0</property>
  <property name="kdenlive:original.meta.media.0.codec.colorspace">709</property>
  <property name="kdenlive:original.meta.media.0.codec.name">h264</property>
  <property name="kdenlive:original.meta.media.0.codec.long_name">H.264 / AVC / MPEG-4 AVC / MPEG-4 part 10</property>
  <property name="kdenlive:original.meta.media.0.codec.bit_rate">340768</property>
  <property name="kdenlive:original.meta.attr.0.stream.handler_name.markup">VideoHandler</property>
  <property name="kdenlive:original.meta.attr.0.stream.vendor_id.markup">[0][0][0][0]</property>
  <property name="kdenlive:original.meta.attr.0.stream.encoder.markup">Lavc60.3.100 libx264</property>
  <property name="kdenlive:original.meta.attr.major_brand.markup">isom</property>
  <property name="kdenlive:original.meta.attr.minor_version.markup">512</property>
  <property name="kdenlive:original.meta.attr.compatible_brands.markup">isomiso2avc1mp41</property>
  <property name="kdenlive:original.meta.attr.encoder.markup">Lavf60.3.100</property>
  <property name="kdenlive:original.meta.attr.comment.markup">Rendered with Manim Community v0.17.3</property>
  <property name="kdenlive:original.seekable">1</property>
  <property name="kdenlive:original.width">1920</property>
  <property name="kdenlive:original.height">1080</property>
  <property name="kdenlive:original.meta.media.sample_aspect_num">1</property>
  <property name="kdenlive:original.meta.media.sample_aspect_den">1</property>
  <property name="kdenlive:original.format">3</property>
  <property name="kdenlive:original.audio_index">-1</property>
  <property name="kdenlive:original.video_index">0</property>
  <property name="kdenlive:original.meta.media.frame_rate_num">60</property>
  <property name="kdenlive:original.meta.media.frame_rate_den">1</property>
  <property name="kdenlive:original.meta.media.colorspace">709</property>
  <property name="kdenlive:original.meta.media.color_trc">2</property>
  <property name="kdenlive:original.meta.media.has_b_frames">2</property>
  <property name="kdenlive:original.meta.media.width">1920</property>
  <property name="kdenlive:original.meta.media.height">1080</property>
  <property name="kdenlive:original.meta.media.color_range">mpeg</property>
  <property name="kdenlive:original.meta.media.top_field_first">0</property>
  <property name="kdenlive:original.meta.media.progressive">1</property>
  <property name="kdenlive:original.kdenlive:clip_type">2</property>
  <property name="kdenlive:original.kdenlive:folderid">16</property>
  <property name="kdenlive:original.kdenlive:id">75</property>
  <property name="kdenlive:original.mute_on_pause">0</property>
  <property name="kdenlive:original.kdenlive:file_size">44228</property>
  <property name="kdenlive:original.kdenlive:file_hash">8fa73b1e27d5364eb348478de684d7b1</property>
  <property name="kdenlive:original.backup">1</property>
  <property name="meta.media.nb_streams">1</property>
  <property name="meta.media.0.stream.type">video</property>
  <property name="meta.media.0.stream.frame_rate">60</property>
  <property name="meta.media.0.stream.sample_aspect_ratio">0</property>
  <property name="meta.media.0.codec.width">640</property>
  <property name="meta.media.0.codec.height">360</property>
  <property name="meta.media.0.codec.rotate">0</property>
  <property name="meta.media.0.codec.pix_fmt">yuvj420p</property>
  <property name="meta.media.0.codec.sample_aspect_ratio">0</property>
  <property name="meta.media.0.codec.colorspace">601</property>
  <property name="meta.media.0.codec.name">mjpeg</property>
  <property name="meta.media.0.codec.long_name">MJPEG (Motion JPEG)</property>
  <property name="meta.media.0.codec.bit_rate">0</property>
  <property name="meta.attr.0.stream.HANDLER_NAME.markup">VideoHandler</property>
  <property name="meta.attr.0.stream.VENDOR_ID.markup">[0][0][0][0]</property>
  <property name="meta.attr.0.stream.ENCODER.markup">Lavc60.3.100 mjpeg</property>
  <property name="meta.attr.0.stream.DURATION.markup">00:00:01.000000000</property>
  <property name="meta.attr.COMMENT.markup">Rendered with Manim Community v0.17.3</property>
  <property name="meta.attr.MAJOR_BRAND.markup">isom</property>
  <property name="meta.attr.MINOR_VERSION.markup">512</property>
  <property name="meta.attr.COMPATIBLE_BRANDS.markup">isomiso2avc1mp41</property>
  <property name="meta.attr.ENCODER.markup">Lavf60.3.100</property>
  <property name="meta.media.sample_aspect_num">1</property>
  <property name="meta.media.sample_aspect_den">1</property>
  <property name="meta.media.frame_rate_num">60</property>
  <property name="meta.media.frame_rate_den">1</property>
  <property name="meta.media.colorspace">601</property>
  <property name="meta.media.color_trc">2</property>
  <property name="meta.media.has_b_frames">0</property>
  <property name="meta.media.width">640</property>
  <property name="meta.media.height">360</property>
  <property name="meta.media.color_range">full</property>
  <property name="xml">was here</property>
  <property name="meta.media.top_field_first">0</property>
  <property name="meta.media.progressive">1</property>
  <property name="set.test_audio">1</property>
  <property name="set.test_image">0</property>
 </chain>
 <chain id="chain659" out="00:00:00.983">
  <property name="length">60</property>
  <property name="eof">pause</property>
  <property name="resource">/home/xiaoxiae/.cache/kdenlive/proxy/592547a600a3e389f7d27f1e13bde53b.mkv</property>
  <property name="mlt_service">avformat-novalidate</property>
  <property name="seekable">1</property>
  <property name="format">3</property>
  <property name="audio_index">-1</property>
  <property name="video_index">0</property>
  <property name="kdenlive:clipname">152.mp4</property>
  <property name="kdenlive:clip_type">2</property>
  <property name="kdenlive:folderid">16</property>
  <property name="kdenlive:id">76</property>
  <property name="mute_on_pause">0</property>
  <property name="kdenlive:file_size">48651</property>
  <property name="kdenlive:file_hash">592547a600a3e389f7d27f1e13bde53b</property>
  <property name="kdenlive:proxy">/home/xiaoxiae/.cache/kdenlive/proxy/592547a600a3e389f7d27f1e13bde53b.mkv</property>
  <property name="kdenlive:originalurl">video/Farmer/152.mp4</property>
  <property name="kdenlive:original.mlt_type">chain</property>
  <property name="kdenlive:original.in">0</property>
  <property name="kdenlive:original.out">00:00:00.983</property>
  <property name="kdenlive:original.length">60</property>
  <property name="kdenlive:original.eof">pause</property>
  <property name="kdenlive:original.resource">video/Farmer/152.mp4</property>
  <property name="kdenlive:original.mlt_service">avformat-novalidate</property>
  <property name="kdenlive:original.meta.media.nb_streams">1</property>
  <property name="kdenlive:original.meta.media.0.stream.type">video</property>
  <property name="kdenlive:original.meta.media.0.stream.frame_rate">60</property>
  <property name="kdenlive:original.meta.media.0.stream.sample_aspect_ratio">0</property>
  <property name="kdenlive:original.meta.media.0.codec.width">1920</property>
  <property name="kdenlive:original.meta.media.0.codec.height">1080</property>
  <property name="kdenlive:original.meta.media.0.codec.rotate">0</property>
  <property name="kdenlive:original.meta.media.0.codec.pix_fmt">yuv420p</property>
  <property name="kdenlive:original.meta.media.0.codec.sample_aspect_ratio">0</property>
  <property name="kdenlive:original.meta.media.0.codec.colorspace">709</property>
  <property name="kdenlive:original.meta.media.0.codec.name">h264</property>
  <property name="kdenlive:original.meta.media.0.codec.long_name">H.264 / AVC / MPEG-4 AVC / MPEG-4 part 10</property>
  <property name="kdenlive:original.meta.media.0.codec.bit_rate">376152</property>
  <property name="kdenlive:original.meta.attr.0.stream.handler_name.markup">VideoHandler</property>
  <property name="kdenlive:original.meta.attr.0.stream.vendor_id.markup">[0][0][0][0]</property>
  <property name="kdenlive:original.meta.attr.0.stream.encoder.markup">Lavc60.3.100 libx264</property>
  <property name="kdenlive:original.meta.attr.major_brand.markup">isom</property>
  <property name="kdenlive:original.meta.attr.minor_version.markup">512</property>
  <property name="kdenlive:original.meta.attr.compatible_brands.markup">isomiso2avc1mp41</property>
  <property name="kdenlive:original.meta.attr.encoder.markup">Lavf60.3.100</property>
  <property name="kdenlive:original.meta.attr.comment.markup">Rendered with Manim Community v0.17.3</property>
  <property name="kdenlive:original.seekable">1</property>
  <property name="kdenlive:original.width">1920</property>
  <property name="kdenlive:original.height">1080</property>
  <property name="kdenlive:original.meta.media.sample_aspect_num">1</property>
  <property name="kdenlive:original.meta.media.sample_aspect_den">1</property>
  <property name="kdenlive:original.format">3</property>
  <property name="kdenlive:original.audio_index">-1</property>
  <property name="kdenlive:original.video_index">0</property>
  <property name="kdenlive:original.meta.media.frame_rate_num">60</property>
  <property name="kdenlive:original.meta.media.frame_rate_den">1</property>
  <property name="kdenlive:original.meta.media.colorspace">709</property>
  <property name="kdenlive:original.meta.media.color_trc">2</property>
  <property name="kdenlive:original.meta.media.has_b_frames">2</property>
  <property name="kdenlive:original.meta.media.width">1920</property>
  <property name="kdenlive:original.meta.media.height">1080</property>
  <property name="kdenlive:original.meta.media.color_range">mpeg</property>
  <property name="kdenlive:original.meta.media.top_field_first">0</property>
  <property name="kdenlive:original.meta.media.progressive">1</property>
  <property name="kdenlive:original.kdenlive:clip_type">2</property>
  <property name="kdenlive:original.kdenlive:folderid">16</property>
  <property name="kdenlive:original.kdenlive:id">76</property>
  <property name="kdenlive:original.mute_on_pause">0</property>
  <property name="kdenlive:original.kdenlive:file_size">48651</property>
  <property name="kdenlive:original.kdenlive:file_hash">592547a600a3e389f7d27f1e13bde53b</property>
  <property name="kdenlive:original.backup">1</property>
  <property name="meta.media.nb_streams">1</property>
  <property name="meta.media.0.stream.type">video</property>
  <property name="meta.media.0.stream.frame_rate">60</property>
  <property name="meta.media.0.stream.sample_aspect_ratio">0</property>
  <property name="meta.media.0.codec.width">640</property>
  <property name="meta.media.0.codec.height">360</property>
  <property name="meta.media.0.codec.rotate">0</property>
  <property name="meta.media.0.codec.pix_fmt">yuvj420p</property>
  <property name="meta.media.0.codec.sample_aspect_ratio">0</property>
  <property name="meta.media.0.codec.colorspace">601</property>
  <property name="meta.media.0.codec.name">mjpeg</property>
  <property name="meta.media.0.codec.long_name">MJPEG (Motion JPEG)</property>
  <property name="meta.media.0.codec.bit_rate">0</property>
  <property name="meta.attr.0.stream.HANDLER_NAME.markup">VideoHandler</property>
  <property name="meta.attr.0.stream.VENDOR_ID.markup">[0][0][0][0]</property>
  <property name="meta.attr.0.stream.ENCODER.markup">Lavc60.3.100 mjpeg</property>
  <property name="meta.attr.0.stream.DURATION.markup">00:00:01.000000000</property>
  <property name="meta.attr.COMMENT.markup">Rendered with Manim Community v0.17.3</property>
  <property name="meta.attr.MAJOR_BRAND.markup">isom</property>
  <property name="meta.attr.MINOR_VERSION.markup">512</property>
  <property name="meta.attr.COMPATIBLE_BRANDS.markup">isomiso2avc1mp41</property>
  <property name="meta.attr.ENCODER.markup">Lavf60.3.100</property>
  <property name="meta.media.sample_aspect_num">1</property>
  <property name="meta.media.sample_aspect_den">1</property>
  <property name="meta.media.frame_rate_num">60</property>
  <property name="meta.media.frame_rate_den">1</property>
  <property name="meta.media.colorspace">601</property>
  <property name="meta.media.color_trc">2</property>
  <property name="meta.media.has_b_frames">0</property>
  <property name="meta.media.width">640</property>
  <property name="meta.media.height">360</property>
  <property name="meta.media.color_range">full</property>
  <property name="xml">was here</property>
  <property name="meta.media.top_field_first">0</property>
  <property name="meta.media.progressive">1</property>
  <property name="set.test_audio">1</property>
  <property name="set.test_image">0</property>
 </chain>
 <chain id="chain660" out="00:00:01.483">
  <property name="length">90</property>
  <property name="eof">pause</property>
  <property name="resource">/home/xiaoxiae/.cache/kdenlive/proxy/9882c2fe1e2356510d2d4b581e731482.mkv</property>
  <property name="mlt_service">avformat-novalidate</property>
  <property name="seekable">1</property>
  <property name="format">3</property>
  <property name="audio_index">-1</property>
  <property name="video_index">0</property>
  <property name="kdenlive:clipname">153.mp4</property>
  <property name="kdenlive:clip_type">2</property>
  <property name="kdenlive:folderid">16</property>
  <property name="kdenlive:id">77</property>
  <property name="mute_on_pause">0</property>
  <property name="kdenlive:file_size">73634</property>
  <property name="kdenlive:file_hash">9882c2fe1e2356510d2d4b581e731482</property>
  <property name="kdenlive:proxy">/home/xiaoxiae/.cache/kdenlive/proxy/9882c2fe1e2356510d2d4b581e731482.mkv</property>
  <property name="kdenlive:originalurl">video/Farmer/153.mp4</property>
  <property name="kdenlive:original.mlt_type">chain</property>
  <property name="kdenlive:original.in">0</property>
  <property name="kdenlive:original.out">00:00:01.483</property>
  <property name="kdenlive:original.length">90</property>
  <property name="kdenlive:original.eof">pause</property>
  <property name="kdenlive:original.resource">video/Farmer/153.mp4</property>
  <property name="kdenlive:original.mlt_service">avformat-novalidate</property>
  <property name="kdenlive:original.meta.media.nb_streams">1</property>
  <property name="kdenlive:original.meta.media.0.stream.type">video</property>
  <property name="kdenlive:original.meta.media.0.stream.frame_rate">60</property>
  <property name="kdenlive:original.meta.media.0.stream.sample_aspect_ratio">0</property>
  <property name="kdenlive:original.meta.media.0.codec.width">1920</property>
  <property name="kdenlive:original.meta.media.0.codec.height">1080</property>
  <property name="kdenlive:original.meta.media.0.codec.rotate">0</property>
  <property name="kdenlive:original.meta.media.0.codec.pix_fmt">yuv420p</property>
  <property name="kdenlive:original.meta.media.0.codec.sample_aspect_ratio">0</property>
  <property name="kdenlive:original.meta.media.0.codec.colorspace">709</property>
  <property name="kdenlive:original.meta.media.0.codec.name">h264</property>
  <property name="kdenlive:original.meta.media.0.codec.long_name">H.264 / AVC / MPEG-4 AVC / MPEG-4 part 10</property>
  <property name="kdenlive:original.meta.media.0.codec.bit_rate">382176</property>
  <property name="kdenlive:original.meta.attr.0.stream.handler_name.markup">VideoHandler</property>
  <property name="kdenlive:original.meta.attr.0.stream.vendor_id.markup">[0][0][0][0]</property>
  <property name="kdenlive:original.meta.attr.0.stream.encoder.markup">Lavc60.3.100 libx264</property>
  <property name="kdenlive:original.meta.attr.major_brand.markup">isom</property>
  <property name="kdenlive:original.meta.attr.minor_version.markup">512</property>
  <property name="kdenlive:original.meta.attr.compatible_brands.markup">isomiso2avc1mp41</property>
  <property name="kdenlive:original.meta.attr.encoder.markup">Lavf60.3.100</property>
  <property name="kdenlive:original.meta.attr.comment.markup">Rendered with Manim Community v0.17.3</property>
  <property name="kdenlive:original.seekable">1</property>
  <property name="kdenlive:original.width">1920</property>
  <property name="kdenlive:original.height">1080</property>
  <property name="kdenlive:original.meta.media.sample_aspect_num">1</property>
  <property name="kdenlive:original.meta.media.sample_aspect_den">1</property>
  <property name="kdenlive:original.format">3</property>
  <property name="kdenlive:original.audio_index">-1</property>
  <property name="kdenlive:original.video_index">0</property>
  <property name="kdenlive:original.meta.media.frame_rate_num">60</property>
  <property name="kdenlive:original.meta.media.frame_rate_den">1</property>
  <property name="kdenlive:original.meta.media.colorspace">709</property>
  <property name="kdenlive:original.meta.media.color_trc">2</property>
  <property name="kdenlive:original.meta.media.has_b_frames">2</property>
  <property name="kdenlive:original.meta.media.width">1920</property>
  <property name="kdenlive:original.meta.media.height">1080</property>
  <property name="kdenlive:original.meta.media.color_range">mpeg</property>
  <property name="kdenlive:original.meta.media.top_field_first">0</property>
  <property name="kdenlive:original.meta.media.progressive">1</property>
  <property name="kdenlive:original.kdenlive:clip_type">2</property>
  <property name="kdenlive:original.kdenlive:folderid">16</property>
  <property name="kdenlive:original.kdenlive:id">77</property>
  <property name="kdenlive:original.mute_on_pause">0</property>
  <property name="kdenlive:original.kdenlive:file_size">73634</property>
  <property name="kdenlive:original.kdenlive:file_hash">9882c2fe1e2356510d2d4b581e731482</property>
  <property name="kdenlive:original.backup">1</property>
  <property name="meta.media.nb_streams">1</property>
  <property name="meta.media.0.stream.type">video</property>
  <property name="meta.media.0.stream.frame_rate">60</property>
  <property name="meta.media.0.stream.sample_aspect_ratio">0</property>
  <property name="meta.media.0.codec.width">640</property>
  <property name="meta.media.0.codec.height">360</property>
  <property name="meta.media.0.codec.rotate">0</property>
  <property name="meta.media.0.codec.pix_fmt">yuvj420p</property>
  <property name="meta.media.0.codec.sample_aspect_ratio">0</property>
  <property name="meta.media.0.codec.colorspace">601</property>
  <property name="meta.media.0.codec.name">mjpeg</property>
  <property name="meta.media.0.codec.long_name">MJPEG (Motion JPEG)</property>
  <property name="meta.media.0.codec.bit_rate">0</property>
  <property name="meta.attr.0.stream.HANDLER_NAME.markup">VideoHandler</property>
  <property name="meta.attr.0.stream.VENDOR_ID.markup">[0][0][0][0]</property>
  <property name="meta.attr.0.stream.ENCODER.markup">Lavc60.3.100 mjpeg</property>
  <property name="meta.attr.0.stream.DURATION.markup">00:00:01.500000000</property>
  <property name="meta.attr.COMMENT.markup">Rendered with Manim Community v0.17.3</property>
  <property name="meta.attr.MAJOR_BRAND.markup">isom</property>
  <property name="meta.attr.MINOR_VERSION.markup">512</property>
  <property name="meta.attr.COMPATIBLE_BRANDS.markup">isomiso2avc1mp41</property>
  <property name="meta.attr.ENCODER.markup">Lavf60.3.100</property>
  <property name="meta.media.sample_aspect_num">1</property>
  <property name="meta.media.sample_aspect_den">1</property>
  <property name="meta.media.frame_rate_num">60</property>
  <property name="meta.media.frame_rate_den">1</property>
  <property name="meta.media.colorspace">601</property>
  <property name="meta.media.color_trc">2</property>
  <property name="meta.media.has_b_frames">0</property>
  <property name="meta.media.width">640</property>
  <property name="meta.media.height">360</property>
  <property name="meta.media.color_range">full</property>
  <property name="xml">was here</property>
  <property name="meta.media.top_field_first">0</property>
  <property name="meta.media.progressive">1</property>
  <property name="set.test_audio">1</property>
  <property name="set.test_image">0</property>
 </chain>
 <chain id="chain661" out="00:00:01.983">
  <property name="length">120</property>
  <property name="eof">pause</property>
  <property name="resource">/home/xiaoxiae/.cache/kdenlive/proxy/2c034d37186a755ec6215a1f5f0996ec.mkv</property>
  <property name="mlt_service">avformat-novalidate</property>
  <property name="seekable">1</property>
  <property name="format">3</property>
  <property name="audio_index">-1</property>
  <property name="video_index">0</property>
  <property name="kdenlive:clipname">154.mp4</property>
  <property name="kdenlive:clip_type">2</property>
  <property name="kdenlive:folderid">16</property>
  <property name="kdenlive:id">78</property>
  <property name="mute_on_pause">0</property>
  <property name="kdenlive:file_size">112864</property>
  <property name="kdenlive:file_hash">2c034d37186a755ec6215a1f5f0996ec</property>
  <property name="kdenlive:proxy">/home/xiaoxiae/.cache/kdenlive/proxy/2c034d37186a755ec6215a1f5f0996ec.mkv</property>
  <property name="kdenlive:originalurl">video/Farmer/154.mp4</property>
  <property name="kdenlive:original.mlt_type">chain</property>
  <property name="kdenlive:original.in">0</property>
  <property name="kdenlive:original.out">00:00:01.983</property>
  <property name="kdenlive:original.length">120</property>
  <property name="kdenlive:original.eof">pause</property>
  <property name="kdenlive:original.resource">video/Farmer/154.mp4</property>
  <property name="kdenlive:original.mlt_service">avformat-novalidate</property>
  <property name="kdenlive:original.meta.media.nb_streams">1</property>
  <property name="kdenlive:original.meta.media.0.stream.type">video</property>
  <property name="kdenlive:original.meta.media.0.stream.frame_rate">60</property>
  <property name="kdenlive:original.meta.media.0.stream.sample_aspect_ratio">0</property>
  <property name="kdenlive:original.meta.media.0.codec.width">1920</property>
  <property name="kdenlive:original.meta.media.0.codec.height">1080</property>
  <property name="kdenlive:original.meta.media.0.codec.rotate">0</property>
  <property name="kdenlive:original.meta.media.0.codec.pix_fmt">yuv420p</property>
  <property name="kdenlive:original.meta.media.0.codec.sample_aspect_ratio">0</property>
  <property name="kdenlive:original.meta.media.0.codec.colorspace">709</property>
  <property name="kdenlive:original.meta.media.0.codec.name">h264</property>
  <property name="kdenlive:original.meta.media.0.codec.long_name">H.264 / AVC / MPEG-4 AVC / MPEG-4 part 10</property>
  <property name="kdenlive:original.meta.media.0.codec.bit_rate">442240</property>
  <property name="kdenlive:original.meta.attr.0.stream.handler_name.markup">VideoHandler</property>
  <property name="kdenlive:original.meta.attr.0.stream.vendor_id.markup">[0][0][0][0]</property>
  <property name="kdenlive:original.meta.attr.0.stream.encoder.markup">Lavc60.3.100 libx264</property>
  <property name="kdenlive:original.meta.attr.major_brand.markup">isom</property>
  <property name="kdenlive:original.meta.attr.minor_version.markup">512</property>
  <property name="kdenlive:original.meta.attr.compatible_brands.markup">isomiso2avc1mp41</property>
  <property name="kdenlive:original.meta.attr.encoder.markup">Lavf60.3.100</property>
  <property name="kdenlive:original.meta.attr.comment.markup">Rendered with Manim Community v0.17.3</property>
  <property name="kdenlive:original.seekable">1</property>
  <property name="kdenlive:original.width">1920</property>
  <property name="kdenlive:original.height">1080</property>
  <property name="kdenlive:original.meta.media.sample_aspect_num">1</property>
  <property name="kdenlive:original.meta.media.sample_aspect_den">1</property>
  <property name="kdenlive:original.format">3</property>
  <property name="kdenlive:original.audio_index">-1</property>
  <property name="kdenlive:original.video_index">0</property>
  <property name="kdenlive:original.meta.media.frame_rate_num">60</property>
  <property name="kdenlive:original.meta.media.frame_rate_den">1</property>
  <property name="kdenlive:original.meta.media.colorspace">709</property>
  <property name="kdenlive:original.meta.media.color_trc">2</property>
  <property name="kdenlive:original.meta.media.has_b_frames">2</property>
  <property name="kdenlive:original.meta.media.width">1920</property>
  <property name="kdenlive:original.meta.media.height">1080</property>
  <property name="kdenlive:original.meta.media.color_range">mpeg</property>
  <property name="kdenlive:original.meta.media.top_field_first">0</property>
  <property name="kdenlive:original.meta.media.progressive">1</property>
  <property name="kdenlive:original.kdenlive:clip_type">2</property>
  <property name="kdenlive:original.kdenlive:folderid">16</property>
  <property name="kdenlive:original.kdenlive:id">78</property>
  <property name="kdenlive:original.mute_on_pause">0</property>
  <property name="kdenlive:original.kdenlive:file_size">112864</property>
  <property name="kdenlive:original.kdenlive:file_hash">2c034d37186a755ec6215a1f5f0996ec</property>
  <property name="kdenlive:original.backup">1</property>
  <property name="meta.media.nb_streams">1</property>
  <property name="meta.media.0.stream.type">video</property>
  <property name="meta.media.0.stream.frame_rate">60</property>
  <property name="meta.media.0.stream.sample_aspect_ratio">0</property>
  <property name="meta.media.0.codec.width">640</property>
  <property name="meta.media.0.codec.height">360</property>
  <property name="meta.media.0.codec.rotate">0</property>
  <property name="meta.media.0.codec.pix_fmt">yuvj420p</property>
  <property name="meta.media.0.codec.sample_aspect_ratio">0</property>
  <property name="meta.media.0.codec.colorspace">601</property>
  <property name="meta.media.0.codec.name">mjpeg</property>
  <property name="meta.media.0.codec.long_name">MJPEG (Motion JPEG)</property>
  <property name="meta.media.0.codec.bit_rate">0</property>
  <property name="meta.attr.0.stream.HANDLER_NAME.markup">VideoHandler</property>
  <property name="meta.attr.0.stream.VENDOR_ID.markup">[0][0][0][0]</property>
  <property name="meta.attr.0.stream.ENCODER.markup">Lavc60.3.100 mjpeg</property>
  <property name="meta.attr.0.stream.DURATION.markup">00:00:02.000000000</property>
  <property name="meta.attr.COMMENT.markup">Rendered with Manim Community v0.17.3</property>
  <property name="meta.attr.MAJOR_BRAND.markup">isom</property>
  <property name="meta.attr.MINOR_VERSION.markup">512</property>
  <property name="meta.attr.COMPATIBLE_BRANDS.markup">isomiso2avc1mp41</property>
  <property name="meta.attr.ENCODER.markup">Lavf60.3.100</property>
  <property name="meta.media.sample_aspect_num">1</property>
  <property name="meta.media.sample_aspect_den">1</property>
  <property name="meta.media.frame_rate_num">60</property>
  <property name="meta.media.frame_rate_den">1</property>
  <property name="meta.media.colorspace">601</property>
  <property name="meta.media.color_trc">2</property>
  <property name="meta.media.has_b_frames">0</property>
  <property name="meta.media.width">640</property>
  <property name="meta.media.height">360</property>
  <property name="meta.media.color_range">full</property>
  <property name="xml">was here</property>
  <property name="meta.media.top_field_first">0</property>
  <property name="meta.media.progressive">1</property>
  <property name="set.test_audio">1</property>
  <property name="set.test_image">0</property>
 </chain>
 <chain id="chain662" out="00:00:00.983">
  <property name="length">60</property>
  <property name="eof">pause</property>
  <property name="resource">/home/xiaoxiae/.cache/kdenlive/proxy/43e7875e9831a60b14c94bbccf64ca7b.mkv</property>
  <property name="mlt_service">avformat-novalidate</property>
  <property name="seekable">1</property>
  <property name="format">3</property>
  <property name="audio_index">-1</property>
  <property name="video_index">0</property>
  <property name="kdenlive:clipname">155.mp4</property>
  <property name="kdenlive:clip_type">2</property>
  <property name="kdenlive:folderid">16</property>
  <property name="kdenlive:id">79</property>
  <property name="mute_on_pause">0</property>
  <property name="kdenlive:file_size">65493</property>
  <property name="kdenlive:file_hash">43e7875e9831a60b14c94bbccf64ca7b</property>
  <property name="kdenlive:proxy">/home/xiaoxiae/.cache/kdenlive/proxy/43e7875e9831a60b14c94bbccf64ca7b.mkv</property>
  <property name="kdenlive:originalurl">video/Farmer/155.mp4</property>
  <property name="kdenlive:original.mlt_type">chain</property>
  <property name="kdenlive:original.in">0</property>
  <property name="kdenlive:original.out">00:00:00.983</property>
  <property name="kdenlive:original.length">60</property>
  <property name="kdenlive:original.eof">pause</property>
  <property name="kdenlive:original.resource">video/Farmer/155.mp4</property>
  <property name="kdenlive:original.mlt_service">avformat-novalidate</property>
  <property name="kdenlive:original.meta.media.nb_streams">1</property>
  <property name="kdenlive:original.meta.media.0.stream.type">video</property>
  <property name="kdenlive:original.meta.media.0.stream.frame_rate">60</property>
  <property name="kdenlive:original.meta.media.0.stream.sample_aspect_ratio">0</property>
  <property name="kdenlive:original.meta.media.0.codec.width">1920</property>
  <property name="kdenlive:original.meta.media.0.codec.height">1080</property>
  <property name="kdenlive:original.meta.media.0.codec.rotate">0</property>
  <property name="kdenlive:original.meta.media.0.codec.pix_fmt">yuv420p</property>
  <property name="kdenlive:original.meta.media.0.codec.sample_aspect_ratio">0</property>
  <property name="kdenlive:original.meta.media.0.codec.colorspace">709</property>
  <property name="kdenlive:original.meta.media.0.codec.name">h264</property>
  <property name="kdenlive:original.meta.media.0.codec.long_name">H.264 / AVC / MPEG-4 AVC / MPEG-4 part 10</property>
  <property name="kdenlive:original.meta.media.0.codec.bit_rate">510888</property>
  <property name="kdenlive:original.meta.attr.0.stream.handler_name.markup">VideoHandler</property>
  <property name="kdenlive:original.meta.attr.0.stream.vendor_id.markup">[0][0][0][0]</property>
  <property name="kdenlive:original.meta.attr.0.stream.encoder.markup">Lavc60.3.100 libx264</property>
  <property name="kdenlive:original.meta.attr.major_brand.markup">isom</property>
  <property name="kdenlive:original.meta.attr.minor_version.markup">512</property>
  <property name="kdenlive:original.meta.attr.compatible_brands.markup">isomiso2avc1mp41</property>
  <property name="kdenlive:original.meta.attr.encoder.markup">Lavf60.3.100</property>
  <property name="kdenlive:original.meta.attr.comment.markup">Rendered with Manim Community v0.17.3</property>
  <property name="kdenlive:original.seekable">1</property>
  <property name="kdenlive:original.width">1920</property>
  <property name="kdenlive:original.height">1080</property>
  <property name="kdenlive:original.meta.media.sample_aspect_num">1</property>
  <property name="kdenlive:original.meta.media.sample_aspect_den">1</property>
  <property name="kdenlive:original.format">3</property>
  <property name="kdenlive:original.audio_index">-1</property>
  <property name="kdenlive:original.video_index">0</property>
  <property name="kdenlive:original.meta.media.frame_rate_num">60</property>
  <property name="kdenlive:original.meta.media.frame_rate_den">1</property>
  <property name="kdenlive:original.meta.media.colorspace">709</property>
  <property name="kdenlive:original.meta.media.color_trc">2</property>
  <property name="kdenlive:original.meta.media.has_b_frames">2</property>
  <property name="kdenlive:original.meta.media.width">1920</property>
  <property name="kdenlive:original.meta.media.height">1080</property>
  <property name="kdenlive:original.meta.media.color_range">mpeg</property>
  <property name="kdenlive:original.meta.media.top_field_first">0</property>
  <property name="kdenlive:original.meta.media.progressive">1</property>
  <property name="kdenlive:original.kdenlive:clip_type">2</property>
  <property name="kdenlive:original.kdenlive:folderid">16</property>
  <property name="kdenlive:original.kdenlive:id">79</property>
  <property name="kdenlive:original.mute_on_pause">0</property>
  <property name="kdenlive:original.kdenlive:file_size">65493</property>
  <property name="kdenlive:original.kdenlive:file_hash">43e7875e9831a60b14c94bbccf64ca7b</property>
  <property name="kdenlive:original.backup">1</property>
  <property name="meta.media.nb_streams">1</property>
  <property name="meta.media.0.stream.type">video</property>
  <property name="meta.media.0.stream.frame_rate">60</property>
  <property name="meta.media.0.stream.sample_aspect_ratio">0</property>
  <property name="meta.media.0.codec.width">640</property>
  <property name="meta.media.0.codec.height">360</property>
  <property name="meta.media.0.codec.rotate">0</property>
  <property name="meta.media.0.codec.pix_fmt">yuvj420p</property>
  <property name="meta.media.0.codec.sample_aspect_ratio">0</property>
  <property name="meta.media.0.codec.colorspace">601</property>
  <property name="meta.media.0.codec.name">mjpeg</property>
  <property name="meta.media.0.codec.long_name">MJPEG (Motion JPEG)</property>
  <property name="meta.media.0.codec.bit_rate">0</property>
  <property name="meta.attr.0.stream.HANDLER_NAME.markup">VideoHandler</property>
  <property name="meta.attr.0.stream.VENDOR_ID.markup">[0][0][0][0]</property>
  <property name="meta.attr.0.stream.ENCODER.markup">Lavc60.3.100 mjpeg</property>
  <property name="meta.attr.0.stream.DURATION.markup">00:00:01.000000000</property>
  <property name="meta.attr.COMMENT.markup">Rendered with Manim Community v0.17.3</property>
  <property name="meta.attr.MAJOR_BRAND.markup">isom</property>
  <property name="meta.attr.MINOR_VERSION.markup">512</property>
  <property name="meta.attr.COMPATIBLE_BRANDS.markup">isomiso2avc1mp41</property>
  <property name="meta.attr.ENCODER.markup">Lavf60.3.100</property>
  <property name="meta.media.sample_aspect_num">1</property>
  <property name="meta.media.sample_aspect_den">1</property>
  <property name="meta.media.frame_rate_num">60</property>
  <property name="meta.media.frame_rate_den">1</property>
  <property name="meta.media.colorspace">601</property>
  <property name="meta.media.color_trc">2</property>
  <property name="meta.media.has_b_frames">0</property>
  <property name="meta.media.width">640</property>
  <property name="meta.media.height">360</property>
  <property name="meta.media.color_range">full</property>
  <property name="xml">was here</property>
  <property name="meta.media.top_field_first">0</property>
  <property name="meta.media.progressive">1</property>
  <property name="set.test_audio">1</property>
  <property name="set.test_image">0</property>
 </chain>
 <producer id="producer5" in="00:00:00.000" out="00:00:00.483">
  <property name="length">30</property>
  <property name="eof">pause</property>
  <property name="resource">2.000000:/home/xiaoxiae/.cache/kdenlive/proxy/5ecbb07526efc3a430ef64f6da4c0983.mkv</property>
  <property name="aspect_ratio">1</property>
  <property name="meta.media.nb_streams">1</property>
  <property name="meta.media.0.stream.type">video</property>
  <property name="meta.media.0.stream.frame_rate">60</property>
  <property name="meta.media.0.stream.sample_aspect_ratio">0</property>
  <property name="meta.media.0.codec.width">640</property>
  <property name="meta.media.0.codec.height">360</property>
  <property name="meta.media.0.codec.rotate">0</property>
  <property name="meta.media.0.codec.pix_fmt">yuvj420p</property>
  <property name="meta.media.0.codec.sample_aspect_ratio">0</property>
  <property name="meta.media.0.codec.colorspace">601</property>
  <property name="meta.media.0.codec.name">mjpeg</property>
  <property name="meta.media.0.codec.long_name">MJPEG (Motion JPEG)</property>
  <property name="meta.media.0.codec.bit_rate">0</property>
  <property name="meta.attr.0.stream.HANDLER_NAME.markup">VideoHandler</property>
  <property name="meta.attr.0.stream.VENDOR_ID.markup">[0][0][0][0]</property>
  <property name="meta.attr.0.stream.ENCODER.markup">Lavc60.3.100 mjpeg</property>
  <property name="meta.attr.0.stream.DURATION.markup">00:00:01.000000000</property>
  <property name="meta.attr.COMMENT.markup">Rendered with Manim Community v0.17.3</property>
  <property name="meta.attr.MAJOR_BRAND.markup">isom</property>
  <property name="meta.attr.MINOR_VERSION.markup">512</property>
  <property name="meta.attr.COMPATIBLE_BRANDS.markup">isomiso2avc1mp41</property>
  <property name="meta.attr.ENCODER.markup">Lavf60.3.100</property>
  <property name="seekable">1</property>
  <property name="meta.media.sample_aspect_num">1</property>
  <property name="meta.media.sample_aspect_den">1</property>
  <property name="format">3</property>
  <property name="audio_index">-1</property>
  <property name="video_index">0</property>
  <property name="warp_speed">2</property>
  <property name="warp_resource">/home/xiaoxiae/.cache/kdenlive/proxy/5ecbb07526efc3a430ef64f6da4c0983.mkv</property>
  <property name="mlt_service">timewarp</property>
  <property name="kdenlive:proxy">/home/xiaoxiae/.cache/kdenlive/proxy/5ecbb07526efc3a430ef64f6da4c0983.mkv</property>
  <property name="kdenlive:originalurl">video/Farmer/156.mp4</property>
  <property name="set.test_audio">1</property>
  <property name="set.test_image">0</property>
  <property name="kdenlive:id">80</property>
  <property name="warp_pitch">0</property>
  <property name="meta.media.frame_rate_num">60</property>
  <property name="meta.media.frame_rate_den">1</property>
  <property name="meta.media.colorspace">601</property>
  <property name="meta.media.color_trc">2</property>
  <property name="meta.media.has_b_frames">0</property>
  <property name="meta.media.width">640</property>
  <property name="meta.media.height">360</property>
  <property name="meta.media.color_range">full</property>
  <property name="meta.media.top_field_first">0</property>
  <property name="meta.media.progressive">1</property>
 </producer>
 <chain id="chain663" out="00:00:01.983">
  <property name="length">120</property>
  <property name="eof">pause</property>
  <property name="resource">/home/xiaoxiae/.cache/kdenlive/proxy/b1b56ca25c8dc3696c0b3141179e5a4f.mkv</property>
  <property name="mlt_service">avformat-novalidate</property>
  <property name="seekable">1</property>
  <property name="format">3</property>
  <property name="audio_index">-1</property>
  <property name="video_index">0</property>
  <property name="kdenlive:clipname">157.mp4</property>
  <property name="kdenlive:clip_type">2</property>
  <property name="kdenlive:folderid">16</property>
  <property name="kdenlive:id">81</property>
  <property name="mute_on_pause">0</property>
  <property name="kdenlive:file_size">247371</property>
  <property name="kdenlive:file_hash">b1b56ca25c8dc3696c0b3141179e5a4f</property>
  <property name="kdenlive:proxy">/home/xiaoxiae/.cache/kdenlive/proxy/b1b56ca25c8dc3696c0b3141179e5a4f.mkv</property>
  <property name="kdenlive:originalurl">video/Farmer/157.mp4</property>
  <property name="kdenlive:original.mlt_type">chain</property>
  <property name="kdenlive:original.in">0</property>
  <property name="kdenlive:original.out">00:00:01.983</property>
  <property name="kdenlive:original.length">120</property>
  <property name="kdenlive:original.eof">pause</property>
  <property name="kdenlive:original.resource">video/Farmer/157.mp4</property>
  <property name="kdenlive:original.mlt_service">avformat-novalidate</property>
  <property name="kdenlive:original.meta.media.nb_streams">1</property>
  <property name="kdenlive:original.meta.media.0.stream.type">video</property>
  <property name="kdenlive:original.meta.media.0.stream.frame_rate">60</property>
  <property name="kdenlive:original.meta.media.0.stream.sample_aspect_ratio">0</property>
  <property name="kdenlive:original.meta.media.0.codec.width">1920</property>
  <property name="kdenlive:original.meta.media.0.codec.height">1080</property>
  <property name="kdenlive:original.meta.media.0.codec.rotate">0</property>
  <property name="kdenlive:original.meta.media.0.codec.pix_fmt">yuv420p</property>
  <property name="kdenlive:original.meta.media.0.codec.sample_aspect_ratio">0</property>
  <property name="kdenlive:original.meta.media.0.codec.colorspace">709</property>
  <property name="kdenlive:original.meta.media.0.codec.name">h264</property>
  <property name="kdenlive:original.meta.media.0.codec.long_name">H.264 / AVC / MPEG-4 AVC / MPEG-4 part 10</property>
  <property name="kdenlive:original.meta.media.0.codec.bit_rate">980300</property>
  <property name="kdenlive:original.meta.attr.0.stream.handler_name.markup">VideoHandler</property>
  <property name="kdenlive:original.meta.attr.0.stream.vendor_id.markup">[0][0][0][0]</property>
  <property name="kdenlive:original.meta.attr.0.stream.encoder.markup">Lavc60.3.100 libx264</property>
  <property name="kdenlive:original.meta.attr.major_brand.markup">isom</property>
  <property name="kdenlive:original.meta.attr.minor_version.markup">512</property>
  <property name="kdenlive:original.meta.attr.compatible_brands.markup">isomiso2avc1mp41</property>
  <property name="kdenlive:original.meta.attr.encoder.markup">Lavf60.3.100</property>
  <property name="kdenlive:original.meta.attr.comment.markup">Rendered with Manim Community v0.17.3</property>
  <property name="kdenlive:original.seekable">1</property>
  <property name="kdenlive:original.width">1920</property>
  <property name="kdenlive:original.height">1080</property>
  <property name="kdenlive:original.meta.media.sample_aspect_num">1</property>
  <property name="kdenlive:original.meta.media.sample_aspect_den">1</property>
  <property name="kdenlive:original.format">3</property>
  <property name="kdenlive:original.audio_index">-1</property>
  <property name="kdenlive:original.video_index">0</property>
  <property name="kdenlive:original.meta.media.frame_rate_num">60</property>
  <property name="kdenlive:original.meta.media.frame_rate_den">1</property>
  <property name="kdenlive:original.meta.media.colorspace">709</property>
  <property name="kdenlive:original.meta.media.color_trc">2</property>
  <property name="kdenlive:original.meta.media.has_b_frames">2</property>
  <property name="kdenlive:original.meta.media.width">1920</property>
  <property name="kdenlive:original.meta.media.height">1080</property>
  <property name="kdenlive:original.meta.media.color_range">mpeg</property>
  <property name="kdenlive:original.meta.media.top_field_first">0</property>
  <property name="kdenlive:original.meta.media.progressive">1</property>
  <property name="kdenlive:original.kdenlive:clip_type">2</property>
  <property name="kdenlive:original.kdenlive:folderid">16</property>
  <property name="kdenlive:original.kdenlive:id">81</property>
  <property name="kdenlive:original.mute_on_pause">0</property>
  <property name="kdenlive:original.kdenlive:file_size">247371</property>
  <property name="kdenlive:original.kdenlive:file_hash">b1b56ca25c8dc3696c0b3141179e5a4f</property>
  <property name="kdenlive:original.backup">1</property>
  <property name="meta.media.nb_streams">1</property>
  <property name="meta.media.0.stream.type">video</property>
  <property name="meta.media.0.stream.frame_rate">60</property>
  <property name="meta.media.0.stream.sample_aspect_ratio">0</property>
  <property name="meta.media.0.codec.width">640</property>
  <property name="meta.media.0.codec.height">360</property>
  <property name="meta.media.0.codec.rotate">0</property>
  <property name="meta.media.0.codec.pix_fmt">yuvj420p</property>
  <property name="meta.media.0.codec.sample_aspect_ratio">0</property>
  <property name="meta.media.0.codec.colorspace">601</property>
  <property name="meta.media.0.codec.name">mjpeg</property>
  <property name="meta.media.0.codec.long_name">MJPEG (Motion JPEG)</property>
  <property name="meta.media.0.codec.bit_rate">0</property>
  <property name="meta.attr.0.stream.HANDLER_NAME.markup">VideoHandler</property>
  <property name="meta.attr.0.stream.VENDOR_ID.markup">[0][0][0][0]</property>
  <property name="meta.attr.0.stream.ENCODER.markup">Lavc60.3.100 mjpeg</property>
  <property name="meta.attr.0.stream.DURATION.markup">00:00:02.000000000</property>
  <property name="meta.attr.COMMENT.markup">Rendered with Manim Community v0.17.3</property>
  <property name="meta.attr.MAJOR_BRAND.markup">isom</property>
  <property name="meta.attr.MINOR_VERSION.markup">512</property>
  <property name="meta.attr.COMPATIBLE_BRANDS.markup">isomiso2avc1mp41</property>
  <property name="meta.attr.ENCODER.markup">Lavf60.3.100</property>
  <property name="meta.media.sample_aspect_num">1</property>
  <property name="meta.media.sample_aspect_den">1</property>
  <property name="meta.media.frame_rate_num">60</property>
  <property name="meta.media.frame_rate_den">1</property>
  <property name="meta.media.colorspace">601</property>
  <property name="meta.media.color_trc">2</property>
  <property name="meta.media.has_b_frames">0</property>
  <property name="meta.media.width">640</property>
  <property name="meta.media.height">360</property>
  <property name="meta.media.color_range">full</property>
  <property name="xml">was here</property>
  <property name="meta.media.top_field_first">0</property>
  <property name="meta.media.progressive">1</property>
  <property name="set.test_audio">1</property>
  <property name="set.test_image">0</property>
 </chain>
 <chain id="chain664" out="00:00:00.983">
  <property name="length">60</property>
  <property name="eof">pause</property>
  <property name="resource">/home/xiaoxiae/.cache/kdenlive/proxy/7a0beda9d126f2d42b50de51541bdbac.mkv</property>
  <property name="mlt_service">avformat-novalidate</property>
  <property name="seekable">1</property>
  <property name="format">3</property>
  <property name="audio_index">-1</property>
  <property name="video_index">0</property>
  <property name="kdenlive:clipname">158.mp4</property>
  <property name="kdenlive:clip_type">2</property>
  <property name="kdenlive:folderid">16</property>
  <property name="kdenlive:id">82</property>
  <property name="mute_on_pause">0</property>
  <property name="kdenlive:file_size">59138</property>
  <property name="kdenlive:file_hash">7a0beda9d126f2d42b50de51541bdbac</property>
  <property name="kdenlive:proxy">/home/xiaoxiae/.cache/kdenlive/proxy/7a0beda9d126f2d42b50de51541bdbac.mkv</property>
  <property name="kdenlive:originalurl">video/Farmer/158.mp4</property>
  <property name="kdenlive:original.mlt_type">chain</property>
  <property name="kdenlive:original.in">0</property>
  <property name="kdenlive:original.out">00:00:00.983</property>
  <property name="kdenlive:original.length">60</property>
  <property name="kdenlive:original.eof">pause</property>
  <property name="kdenlive:original.resource">video/Farmer/158.mp4</property>
  <property name="kdenlive:original.mlt_service">avformat-novalidate</property>
  <property name="kdenlive:original.meta.media.nb_streams">1</property>
  <property name="kdenlive:original.meta.media.0.stream.type">video</property>
  <property name="kdenlive:original.meta.media.0.stream.frame_rate">60</property>
  <property name="kdenlive:original.meta.media.0.stream.sample_aspect_ratio">0</property>
  <property name="kdenlive:original.meta.media.0.codec.width">1920</property>
  <property name="kdenlive:original.meta.media.0.codec.height">1080</property>
  <property name="kdenlive:original.meta.media.0.codec.rotate">0</property>
  <property name="kdenlive:original.meta.media.0.codec.pix_fmt">yuv420p</property>
  <property name="kdenlive:original.meta.media.0.codec.sample_aspect_ratio">0</property>
  <property name="kdenlive:original.meta.media.0.codec.colorspace">709</property>
  <property name="kdenlive:original.meta.media.0.codec.name">h264</property>
  <property name="kdenlive:original.meta.media.0.codec.long_name">H.264 / AVC / MPEG-4 AVC / MPEG-4 part 10</property>
  <property name="kdenlive:original.meta.media.0.codec.bit_rate">460048</property>
  <property name="kdenlive:original.meta.attr.0.stream.handler_name.markup">VideoHandler</property>
  <property name="kdenlive:original.meta.attr.0.stream.vendor_id.markup">[0][0][0][0]</property>
  <property name="kdenlive:original.meta.attr.0.stream.encoder.markup">Lavc60.3.100 libx264</property>
  <property name="kdenlive:original.meta.attr.major_brand.markup">isom</property>
  <property name="kdenlive:original.meta.attr.minor_version.markup">512</property>
  <property name="kdenlive:original.meta.attr.compatible_brands.markup">isomiso2avc1mp41</property>
  <property name="kdenlive:original.meta.attr.encoder.markup">Lavf60.3.100</property>
  <property name="kdenlive:original.meta.attr.comment.markup">Rendered with Manim Community v0.17.3</property>
  <property name="kdenlive:original.seekable">1</property>
  <property name="kdenlive:original.width">1920</property>
  <property name="kdenlive:original.height">1080</property>
  <property name="kdenlive:original.meta.media.sample_aspect_num">1</property>
  <property name="kdenlive:original.meta.media.sample_aspect_den">1</property>
  <property name="kdenlive:original.format">3</property>
  <property name="kdenlive:original.audio_index">-1</property>
  <property name="kdenlive:original.video_index">0</property>
  <property name="kdenlive:original.meta.media.frame_rate_num">60</property>
  <property name="kdenlive:original.meta.media.frame_rate_den">1</property>
  <property name="kdenlive:original.meta.media.colorspace">709</property>
  <property name="kdenlive:original.meta.media.color_trc">2</property>
  <property name="kdenlive:original.meta.media.has_b_frames">2</property>
  <property name="kdenlive:original.meta.media.width">1920</property>
  <property name="kdenlive:original.meta.media.height">1080</property>
  <property name="kdenlive:original.meta.media.color_range">mpeg</property>
  <property name="kdenlive:original.meta.media.top_field_first">0</property>
  <property name="kdenlive:original.meta.media.progressive">1</property>
  <property name="kdenlive:original.kdenlive:clip_type">2</property>
  <property name="kdenlive:original.kdenlive:folderid">16</property>
  <property name="kdenlive:original.kdenlive:id">82</property>
  <property name="kdenlive:original.mute_on_pause">0</property>
  <property name="kdenlive:original.kdenlive:file_size">59138</property>
  <property name="kdenlive:original.kdenlive:file_hash">7a0beda9d126f2d42b50de51541bdbac</property>
  <property name="kdenlive:original.backup">1</property>
  <property name="meta.media.nb_streams">1</property>
  <property name="meta.media.0.stream.type">video</property>
  <property name="meta.media.0.stream.frame_rate">60</property>
  <property name="meta.media.0.stream.sample_aspect_ratio">0</property>
  <property name="meta.media.0.codec.width">640</property>
  <property name="meta.media.0.codec.height">360</property>
  <property name="meta.media.0.codec.rotate">0</property>
  <property name="meta.media.0.codec.pix_fmt">yuvj420p</property>
  <property name="meta.media.0.codec.sample_aspect_ratio">0</property>
  <property name="meta.media.0.codec.colorspace">601</property>
  <property name="meta.media.0.codec.name">mjpeg</property>
  <property name="meta.media.0.codec.long_name">MJPEG (Motion JPEG)</property>
  <property name="meta.media.0.codec.bit_rate">0</property>
  <property name="meta.attr.0.stream.HANDLER_NAME.markup">VideoHandler</property>
  <property name="meta.attr.0.stream.VENDOR_ID.markup">[0][0][0][0]</property>
  <property name="meta.attr.0.stream.ENCODER.markup">Lavc60.3.100 mjpeg</property>
  <property name="meta.attr.0.stream.DURATION.markup">00:00:01.000000000</property>
  <property name="meta.attr.COMMENT.markup">Rendered with Manim Community v0.17.3</property>
  <property name="meta.attr.MAJOR_BRAND.markup">isom</property>
  <property name="meta.attr.MINOR_VERSION.markup">512</property>
  <property name="meta.attr.COMPATIBLE_BRANDS.markup">isomiso2avc1mp41</property>
  <property name="meta.attr.ENCODER.markup">Lavf60.3.100</property>
  <property name="meta.media.sample_aspect_num">1</property>
  <property name="meta.media.sample_aspect_den">1</property>
  <property name="meta.media.frame_rate_num">60</property>
  <property name="meta.media.frame_rate_den">1</property>
  <property name="meta.media.colorspace">601</property>
  <property name="meta.media.color_trc">2</property>
  <property name="meta.media.has_b_frames">0</property>
  <property name="meta.media.width">640</property>
  <property name="meta.media.height">360</property>
  <property name="meta.media.color_range">full</property>
  <property name="xml">was here</property>
  <property name="meta.media.top_field_first">0</property>
  <property name="meta.media.progressive">1</property>
  <property name="set.test_audio">1</property>
  <property name="set.test_image">0</property>
 </chain>
 <chain id="chain665" out="00:00:01.483">
  <property name="length">90</property>
  <property name="eof">pause</property>
  <property name="resource">/home/xiaoxiae/.cache/kdenlive/proxy/5c5769b0737bd90332d1bb295969acaf.mkv</property>
  <property name="mlt_service">avformat-novalidate</property>
  <property name="seekable">1</property>
  <property name="format">3</property>
  <property name="audio_index">-1</property>
  <property name="video_index">0</property>
  <property name="kdenlive:clipname">159.mp4</property>
  <property name="kdenlive:clip_type">2</property>
  <property name="kdenlive:folderid">16</property>
  <property name="kdenlive:id">83</property>
  <property name="mute_on_pause">0</property>
  <property name="kdenlive:file_size">216947</property>
  <property name="kdenlive:file_hash">5c5769b0737bd90332d1bb295969acaf</property>
  <property name="kdenlive:proxy">/home/xiaoxiae/.cache/kdenlive/proxy/5c5769b0737bd90332d1bb295969acaf.mkv</property>
  <property name="kdenlive:originalurl">video/Farmer/159.mp4</property>
  <property name="kdenlive:original.mlt_type">chain</property>
  <property name="kdenlive:original.in">0</property>
  <property name="kdenlive:original.out">00:00:01.483</property>
  <property name="kdenlive:original.length">90</property>
  <property name="kdenlive:original.eof">pause</property>
  <property name="kdenlive:original.resource">video/Farmer/159.mp4</property>
  <property name="kdenlive:original.mlt_service">avformat-novalidate</property>
  <property name="kdenlive:original.meta.media.nb_streams">1</property>
  <property name="kdenlive:original.meta.media.0.stream.type">video</property>
  <property name="kdenlive:original.meta.media.0.stream.frame_rate">60</property>
  <property name="kdenlive:original.meta.media.0.stream.sample_aspect_ratio">0</property>
  <property name="kdenlive:original.meta.media.0.codec.width">1920</property>
  <property name="kdenlive:original.meta.media.0.codec.height">1080</property>
  <property name="kdenlive:original.meta.media.0.codec.rotate">0</property>
  <property name="kdenlive:original.meta.media.0.codec.pix_fmt">yuv420p</property>
  <property name="kdenlive:original.meta.media.0.codec.sample_aspect_ratio">0</property>
  <property name="kdenlive:original.meta.media.0.codec.colorspace">709</property>
  <property name="kdenlive:original.meta.media.0.codec.name">h264</property>
  <property name="kdenlive:original.meta.media.0.codec.long_name">H.264 / AVC / MPEG-4 AVC / MPEG-4 part 10</property>
  <property name="kdenlive:original.meta.media.0.codec.bit_rate">1146554</property>
  <property name="kdenlive:original.meta.attr.0.stream.handler_name.markup">VideoHandler</property>
  <property name="kdenlive:original.meta.attr.0.stream.vendor_id.markup">[0][0][0][0]</property>
  <property name="kdenlive:original.meta.attr.0.stream.encoder.markup">Lavc60.3.100 libx264</property>
  <property name="kdenlive:original.meta.attr.major_brand.markup">isom</property>
  <property name="kdenlive:original.meta.attr.minor_version.markup">512</property>
  <property name="kdenlive:original.meta.attr.compatible_brands.markup">isomiso2avc1mp41</property>
  <property name="kdenlive:original.meta.attr.encoder.markup">Lavf60.3.100</property>
  <property name="kdenlive:original.meta.attr.comment.markup">Rendered with Manim Community v0.17.3</property>
  <property name="kdenlive:original.seekable">1</property>
  <property name="kdenlive:original.width">1920</property>
  <property name="kdenlive:original.height">1080</property>
  <property name="kdenlive:original.meta.media.sample_aspect_num">1</property>
  <property name="kdenlive:original.meta.media.sample_aspect_den">1</property>
  <property name="kdenlive:original.format">3</property>
  <property name="kdenlive:original.audio_index">-1</property>
  <property name="kdenlive:original.video_index">0</property>
  <property name="kdenlive:original.meta.media.frame_rate_num">60</property>
  <property name="kdenlive:original.meta.media.frame_rate_den">1</property>
  <property name="kdenlive:original.meta.media.colorspace">709</property>
  <property name="kdenlive:original.meta.media.color_trc">2</property>
  <property name="kdenlive:original.meta.media.has_b_frames">2</property>
  <property name="kdenlive:original.meta.media.width">1920</property>
  <property name="kdenlive:original.meta.media.height">1080</property>
  <property name="kdenlive:original.meta.media.color_range">mpeg</property>
  <property name="kdenlive:original.meta.media.top_field_first">0</property>
  <property name="kdenlive:original.meta.media.progressive">1</property>
  <property name="kdenlive:original.kdenlive:clip_type">2</property>
  <property name="kdenlive:original.kdenlive:folderid">16</property>
  <property name="kdenlive:original.kdenlive:id">83</property>
  <property name="kdenlive:original.mute_on_pause">0</property>
  <property name="kdenlive:original.kdenlive:file_size">216947</property>
  <property name="kdenlive:original.kdenlive:file_hash">5c5769b0737bd90332d1bb295969acaf</property>
  <property name="kdenlive:original.backup">1</property>
  <property name="meta.media.nb_streams">1</property>
  <property name="meta.media.0.stream.type">video</property>
  <property name="meta.media.0.stream.frame_rate">60</property>
  <property name="meta.media.0.stream.sample_aspect_ratio">0</property>
  <property name="meta.media.0.codec.width">640</property>
  <property name="meta.media.0.codec.height">360</property>
  <property name="meta.media.0.codec.rotate">0</property>
  <property name="meta.media.0.codec.pix_fmt">yuvj420p</property>
  <property name="meta.media.0.codec.sample_aspect_ratio">0</property>
  <property name="meta.media.0.codec.colorspace">601</property>
  <property name="meta.media.0.codec.name">mjpeg</property>
  <property name="meta.media.0.codec.long_name">MJPEG (Motion JPEG)</property>
  <property name="meta.media.0.codec.bit_rate">0</property>
  <property name="meta.attr.0.stream.HANDLER_NAME.markup">VideoHandler</property>
  <property name="meta.attr.0.stream.VENDOR_ID.markup">[0][0][0][0]</property>
  <property name="meta.attr.0.stream.ENCODER.markup">Lavc60.3.100 mjpeg</property>
  <property name="meta.attr.0.stream.DURATION.markup">00:00:01.500000000</property>
  <property name="meta.attr.COMMENT.markup">Rendered with Manim Community v0.17.3</property>
  <property name="meta.attr.MAJOR_BRAND.markup">isom</property>
  <property name="meta.attr.MINOR_VERSION.markup">512</property>
  <property name="meta.attr.COMPATIBLE_BRANDS.markup">isomiso2avc1mp41</property>
  <property name="meta.attr.ENCODER.markup">Lavf60.3.100</property>
  <property name="meta.media.sample_aspect_num">1</property>
  <property name="meta.media.sample_aspect_den">1</property>
  <property name="meta.media.frame_rate_num">60</property>
  <property name="meta.media.frame_rate_den">1</property>
  <property name="meta.media.colorspace">601</property>
  <property name="meta.media.color_trc">2</property>
  <property name="meta.media.has_b_frames">0</property>
  <property name="meta.media.width">640</property>
  <property name="meta.media.height">360</property>
  <property name="meta.media.color_range">full</property>
  <property name="xml">was here</property>
  <property name="meta.media.top_field_first">0</property>
  <property name="meta.media.progressive">1</property>
  <property name="set.test_audio">1</property>
  <property name="set.test_image">0</property>
 </chain>
 <chain id="chain666" out="00:00:00.983">
  <property name="length">60</property>
  <property name="eof">pause</property>
  <property name="resource">/home/xiaoxiae/.cache/kdenlive/proxy/472459f7d30637c5f3037ed2f6b56278.mkv</property>
  <property name="mlt_service">avformat-novalidate</property>
  <property name="seekable">1</property>
  <property name="format">3</property>
  <property name="audio_index">-1</property>
  <property name="video_index">0</property>
  <property name="kdenlive:clipname">160.mp4</property>
  <property name="kdenlive:clip_type">2</property>
  <property name="kdenlive:folderid">16</property>
  <property name="kdenlive:id">85</property>
  <property name="mute_on_pause">0</property>
  <property name="kdenlive:file_size">65104</property>
  <property name="kdenlive:file_hash">472459f7d30637c5f3037ed2f6b56278</property>
  <property name="kdenlive:proxy">/home/xiaoxiae/.cache/kdenlive/proxy/472459f7d30637c5f3037ed2f6b56278.mkv</property>
  <property name="kdenlive:originalurl">video/Farmer/160.mp4</property>
  <property name="kdenlive:original.mlt_type">chain</property>
  <property name="kdenlive:original.in">0</property>
  <property name="kdenlive:original.out">00:00:00.983</property>
  <property name="kdenlive:original.length">60</property>
  <property name="kdenlive:original.eof">pause</property>
  <property name="kdenlive:original.resource">video/Farmer/160.mp4</property>
  <property name="kdenlive:original.mlt_service">avformat-novalidate</property>
  <property name="kdenlive:original.meta.media.nb_streams">1</property>
  <property name="kdenlive:original.meta.media.0.stream.type">video</property>
  <property name="kdenlive:original.meta.media.0.stream.frame_rate">60</property>
  <property name="kdenlive:original.meta.media.0.stream.sample_aspect_ratio">0</property>
  <property name="kdenlive:original.meta.media.0.codec.width">1920</property>
  <property name="kdenlive:original.meta.media.0.codec.height">1080</property>
  <property name="kdenlive:original.meta.media.0.codec.rotate">0</property>
  <property name="kdenlive:original.meta.media.0.codec.pix_fmt">yuv420p</property>
  <property name="kdenlive:original.meta.media.0.codec.sample_aspect_ratio">0</property>
  <property name="kdenlive:original.meta.media.0.codec.colorspace">709</property>
  <property name="kdenlive:original.meta.media.0.codec.name">h264</property>
  <property name="kdenlive:original.meta.media.0.codec.long_name">H.264 / AVC / MPEG-4 AVC / MPEG-4 part 10</property>
  <property name="kdenlive:original.meta.media.0.codec.bit_rate">507776</property>
  <property name="kdenlive:original.meta.attr.0.stream.handler_name.markup">VideoHandler</property>
  <property name="kdenlive:original.meta.attr.0.stream.vendor_id.markup">[0][0][0][0]</property>
  <property name="kdenlive:original.meta.attr.0.stream.encoder.markup">Lavc60.3.100 libx264</property>
  <property name="kdenlive:original.meta.attr.major_brand.markup">isom</property>
  <property name="kdenlive:original.meta.attr.minor_version.markup">512</property>
  <property name="kdenlive:original.meta.attr.compatible_brands.markup">isomiso2avc1mp41</property>
  <property name="kdenlive:original.meta.attr.encoder.markup">Lavf60.3.100</property>
  <property name="kdenlive:original.meta.attr.comment.markup">Rendered with Manim Community v0.17.3</property>
  <property name="kdenlive:original.seekable">1</property>
  <property name="kdenlive:original.width">1920</property>
  <property name="kdenlive:original.height">1080</property>
  <property name="kdenlive:original.meta.media.sample_aspect_num">1</property>
  <property name="kdenlive:original.meta.media.sample_aspect_den">1</property>
  <property name="kdenlive:original.format">3</property>
  <property name="kdenlive:original.audio_index">-1</property>
  <property name="kdenlive:original.video_index">0</property>
  <property name="kdenlive:original.meta.media.frame_rate_num">60</property>
  <property name="kdenlive:original.meta.media.frame_rate_den">1</property>
  <property name="kdenlive:original.meta.media.colorspace">709</property>
  <property name="kdenlive:original.meta.media.color_trc">2</property>
  <property name="kdenlive:original.meta.media.has_b_frames">2</property>
  <property name="kdenlive:original.meta.media.width">1920</property>
  <property name="kdenlive:original.meta.media.height">1080</property>
  <property name="kdenlive:original.meta.media.color_range">mpeg</property>
  <property name="kdenlive:original.meta.media.top_field_first">0</property>
  <property name="kdenlive:original.meta.media.progressive">1</property>
  <property name="kdenlive:original.kdenlive:clip_type">2</property>
  <property name="kdenlive:original.kdenlive:folderid">16</property>
  <property name="kdenlive:original.kdenlive:id">85</property>
  <property name="kdenlive:original.mute_on_pause">0</property>
  <property name="kdenlive:original.kdenlive:file_size">65104</property>
  <property name="kdenlive:original.kdenlive:file_hash">472459f7d30637c5f3037ed2f6b56278</property>
  <property name="kdenlive:original.backup">1</property>
  <property name="meta.media.nb_streams">1</property>
  <property name="meta.media.0.stream.type">video</property>
  <property name="meta.media.0.stream.frame_rate">60</property>
  <property name="meta.media.0.stream.sample_aspect_ratio">0</property>
  <property name="meta.media.0.codec.width">640</property>
  <property name="meta.media.0.codec.height">360</property>
  <property name="meta.media.0.codec.rotate">0</property>
  <property name="meta.media.0.codec.pix_fmt">yuvj420p</property>
  <property name="meta.media.0.codec.sample_aspect_ratio">0</property>
  <property name="meta.media.0.codec.colorspace">601</property>
  <property name="meta.media.0.codec.name">mjpeg</property>
  <property name="meta.media.0.codec.long_name">MJPEG (Motion JPEG)</property>
  <property name="meta.media.0.codec.bit_rate">0</property>
  <property name="meta.attr.0.stream.HANDLER_NAME.markup">VideoHandler</property>
  <property name="meta.attr.0.stream.VENDOR_ID.markup">[0][0][0][0]</property>
  <property name="meta.attr.0.stream.ENCODER.markup">Lavc60.3.100 mjpeg</property>
  <property name="meta.attr.0.stream.DURATION.markup">00:00:01.000000000</property>
  <property name="meta.attr.COMMENT.markup">Rendered with Manim Community v0.17.3</property>
  <property name="meta.attr.MAJOR_BRAND.markup">isom</property>
  <property name="meta.attr.MINOR_VERSION.markup">512</property>
  <property name="meta.attr.COMPATIBLE_BRANDS.markup">isomiso2avc1mp41</property>
  <property name="meta.attr.ENCODER.markup">Lavf60.3.100</property>
  <property name="meta.media.sample_aspect_num">1</property>
  <property name="meta.media.sample_aspect_den">1</property>
  <property name="meta.media.frame_rate_num">60</property>
  <property name="meta.media.frame_rate_den">1</property>
  <property name="meta.media.colorspace">601</property>
  <property name="meta.media.color_trc">2</property>
  <property name="meta.media.has_b_frames">0</property>
  <property name="meta.media.width">640</property>
  <property name="meta.media.height">360</property>
  <property name="meta.media.color_range">full</property>
  <property name="xml">was here</property>
  <property name="meta.media.top_field_first">0</property>
  <property name="meta.media.progressive">1</property>
  <property name="set.test_audio">1</property>
  <property name="set.test_image">0</property>
 </chain>
 <chain id="chain667" out="00:00:00.983">
  <property name="length">60</property>
  <property name="eof">pause</property>
  <property name="resource">/home/xiaoxiae/.cache/kdenlive/proxy/e3a332d3955929771979a4514d34d9c2.mkv</property>
  <property name="mlt_service">avformat-novalidate</property>
  <property name="seekable">1</property>
  <property name="format">3</property>
  <property name="audio_index">-1</property>
  <property name="video_index">0</property>
  <property name="kdenlive:clipname">161.mp4</property>
  <property name="kdenlive:clip_type">2</property>
  <property name="kdenlive:folderid">16</property>
  <property name="kdenlive:id">86</property>
  <property name="mute_on_pause">0</property>
  <property name="kdenlive:file_size">79273</property>
  <property name="kdenlive:file_hash">e3a332d3955929771979a4514d34d9c2</property>
  <property name="kdenlive:proxy">/home/xiaoxiae/.cache/kdenlive/proxy/e3a332d3955929771979a4514d34d9c2.mkv</property>
  <property name="kdenlive:originalurl">video/Farmer/161.mp4</property>
  <property name="kdenlive:original.mlt_type">chain</property>
  <property name="kdenlive:original.in">0</property>
  <property name="kdenlive:original.out">00:00:00.983</property>
  <property name="kdenlive:original.length">60</property>
  <property name="kdenlive:original.eof">pause</property>
  <property name="kdenlive:original.resource">video/Farmer/161.mp4</property>
  <property name="kdenlive:original.mlt_service">avformat-novalidate</property>
  <property name="kdenlive:original.meta.media.nb_streams">1</property>
  <property name="kdenlive:original.meta.media.0.stream.type">video</property>
  <property name="kdenlive:original.meta.media.0.stream.frame_rate">60</property>
  <property name="kdenlive:original.meta.media.0.stream.sample_aspect_ratio">0</property>
  <property name="kdenlive:original.meta.media.0.codec.width">1920</property>
  <property name="kdenlive:original.meta.media.0.codec.height">1080</property>
  <property name="kdenlive:original.meta.media.0.codec.rotate">0</property>
  <property name="kdenlive:original.meta.media.0.codec.pix_fmt">yuv420p</property>
  <property name="kdenlive:original.meta.media.0.codec.sample_aspect_ratio">0</property>
  <property name="kdenlive:original.meta.media.0.codec.colorspace">709</property>
  <property name="kdenlive:original.meta.media.0.codec.name">h264</property>
  <property name="kdenlive:original.meta.media.0.codec.long_name">H.264 / AVC / MPEG-4 AVC / MPEG-4 part 10</property>
  <property name="kdenlive:original.meta.media.0.codec.bit_rate">622088</property>
  <property name="kdenlive:original.meta.attr.0.stream.handler_name.markup">VideoHandler</property>
  <property name="kdenlive:original.meta.attr.0.stream.vendor_id.markup">[0][0][0][0]</property>
  <property name="kdenlive:original.meta.attr.0.stream.encoder.markup">Lavc60.3.100 libx264</property>
  <property name="kdenlive:original.meta.attr.major_brand.markup">isom</property>
  <property name="kdenlive:original.meta.attr.minor_version.markup">512</property>
  <property name="kdenlive:original.meta.attr.compatible_brands.markup">isomiso2avc1mp41</property>
  <property name="kdenlive:original.meta.attr.encoder.markup">Lavf60.3.100</property>
  <property name="kdenlive:original.meta.attr.comment.markup">Rendered with Manim Community v0.17.3</property>
  <property name="kdenlive:original.seekable">1</property>
  <property name="kdenlive:original.width">1920</property>
  <property name="kdenlive:original.height">1080</property>
  <property name="kdenlive:original.meta.media.sample_aspect_num">1</property>
  <property name="kdenlive:original.meta.media.sample_aspect_den">1</property>
  <property name="kdenlive:original.format">3</property>
  <property name="kdenlive:original.audio_index">-1</property>
  <property name="kdenlive:original.video_index">0</property>
  <property name="kdenlive:original.meta.media.frame_rate_num">60</property>
  <property name="kdenlive:original.meta.media.frame_rate_den">1</property>
  <property name="kdenlive:original.meta.media.colorspace">709</property>
  <property name="kdenlive:original.meta.media.color_trc">2</property>
  <property name="kdenlive:original.meta.media.has_b_frames">2</property>
  <property name="kdenlive:original.meta.media.width">1920</property>
  <property name="kdenlive:original.meta.media.height">1080</property>
  <property name="kdenlive:original.meta.media.color_range">mpeg</property>
  <property name="kdenlive:original.meta.media.top_field_first">0</property>
  <property name="kdenlive:original.meta.media.progressive">1</property>
  <property name="kdenlive:original.kdenlive:clip_type">2</property>
  <property name="kdenlive:original.kdenlive:folderid">16</property>
  <property name="kdenlive:original.kdenlive:id">86</property>
  <property name="kdenlive:original.mute_on_pause">0</property>
  <property name="kdenlive:original.kdenlive:file_size">79273</property>
  <property name="kdenlive:original.kdenlive:file_hash">e3a332d3955929771979a4514d34d9c2</property>
  <property name="kdenlive:original.backup">1</property>
  <property name="meta.media.nb_streams">1</property>
  <property name="meta.media.0.stream.type">video</property>
  <property name="meta.media.0.stream.frame_rate">60</property>
  <property name="meta.media.0.stream.sample_aspect_ratio">0</property>
  <property name="meta.media.0.codec.width">640</property>
  <property name="meta.media.0.codec.height">360</property>
  <property name="meta.media.0.codec.rotate">0</property>
  <property name="meta.media.0.codec.pix_fmt">yuvj420p</property>
  <property name="meta.media.0.codec.sample_aspect_ratio">0</property>
  <property name="meta.media.0.codec.colorspace">601</property>
  <property name="meta.media.0.codec.name">mjpeg</property>
  <property name="meta.media.0.codec.long_name">MJPEG (Motion JPEG)</property>
  <property name="meta.media.0.codec.bit_rate">0</property>
  <property name="meta.attr.0.stream.HANDLER_NAME.markup">VideoHandler</property>
  <property name="meta.attr.0.stream.VENDOR_ID.markup">[0][0][0][0]</property>
  <property name="meta.attr.0.stream.ENCODER.markup">Lavc60.3.100 mjpeg</property>
  <property name="meta.attr.0.stream.DURATION.markup">00:00:01.000000000</property>
  <property name="meta.attr.COMMENT.markup">Rendered with Manim Community v0.17.3</property>
  <property name="meta.attr.MAJOR_BRAND.markup">isom</property>
  <property name="meta.attr.MINOR_VERSION.markup">512</property>
  <property name="meta.attr.COMPATIBLE_BRANDS.markup">isomiso2avc1mp41</property>
  <property name="meta.attr.ENCODER.markup">Lavf60.3.100</property>
  <property name="meta.media.sample_aspect_num">1</property>
  <property name="meta.media.sample_aspect_den">1</property>
  <property name="meta.media.frame_rate_num">60</property>
  <property name="meta.media.frame_rate_den">1</property>
  <property name="meta.media.colorspace">601</property>
  <property name="meta.media.color_trc">2</property>
  <property name="meta.media.has_b_frames">0</property>
  <property name="meta.media.width">640</property>
  <property name="meta.media.height">360</property>
  <property name="meta.media.color_range">full</property>
  <property name="xml">was here</property>
  <property name="meta.media.top_field_first">0</property>
  <property name="meta.media.progressive">1</property>
  <property name="set.test_audio">1</property>
  <property name="set.test_image">0</property>
 </chain>
 <chain id="chain668" out="00:00:00.983">
  <property name="length">60</property>
  <property name="eof">pause</property>
  <property name="resource">/home/xiaoxiae/.cache/kdenlive/proxy/7c0815615bc2ca76543906f9d81fafd8.mkv</property>
  <property name="mlt_service">avformat-novalidate</property>
  <property name="seekable">1</property>
  <property name="format">3</property>
  <property name="audio_index">-1</property>
  <property name="video_index">0</property>
  <property name="kdenlive:clipname">1.mp4</property>
  <property name="kdenlive:clip_type">2</property>
  <property name="kdenlive:folderid">188</property>
  <property name="kdenlive:id">189</property>
  <property name="mute_on_pause">0</property>
  <property name="kdenlive:file_size">46947</property>
  <property name="kdenlive:file_hash">7c0815615bc2ca76543906f9d81fafd8</property>
  <property name="kdenlive:proxy">/home/xiaoxiae/.cache/kdenlive/proxy/7c0815615bc2ca76543906f9d81fafd8.mkv</property>
  <property name="kdenlive:originalurl">video/ILP/1.mp4</property>
  <property name="kdenlive:original.mlt_type">chain</property>
  <property name="kdenlive:original.in">0</property>
  <property name="kdenlive:original.out">00:00:00.983</property>
  <property name="kdenlive:original.length">60</property>
  <property name="kdenlive:original.eof">pause</property>
  <property name="kdenlive:original.resource">video/ILP/1.mp4</property>
  <property name="kdenlive:original.mlt_service">avformat-novalidate</property>
  <property name="kdenlive:original.meta.media.nb_streams">1</property>
  <property name="kdenlive:original.meta.media.0.stream.type">video</property>
  <property name="kdenlive:original.meta.media.0.stream.frame_rate">60</property>
  <property name="kdenlive:original.meta.media.0.stream.sample_aspect_ratio">0</property>
  <property name="kdenlive:original.meta.media.0.codec.width">1920</property>
  <property name="kdenlive:original.meta.media.0.codec.height">1080</property>
  <property name="kdenlive:original.meta.media.0.codec.rotate">0</property>
  <property name="kdenlive:original.meta.media.0.codec.pix_fmt">yuv420p</property>
  <property name="kdenlive:original.meta.media.0.codec.sample_aspect_ratio">0</property>
  <property name="kdenlive:original.meta.media.0.codec.colorspace">709</property>
  <property name="kdenlive:original.meta.media.0.codec.name">h264</property>
  <property name="kdenlive:original.meta.media.0.codec.long_name">H.264 / AVC / MPEG-4 AVC / MPEG-4 part 10</property>
  <property name="kdenlive:original.meta.media.0.codec.bit_rate">362840</property>
  <property name="kdenlive:original.meta.attr.0.stream.handler_name.markup">VideoHandler</property>
  <property name="kdenlive:original.meta.attr.0.stream.vendor_id.markup">[0][0][0][0]</property>
  <property name="kdenlive:original.meta.attr.0.stream.encoder.markup">Lavc60.3.100 libx264</property>
  <property name="kdenlive:original.meta.attr.major_brand.markup">isom</property>
  <property name="kdenlive:original.meta.attr.minor_version.markup">512</property>
  <property name="kdenlive:original.meta.attr.compatible_brands.markup">isomiso2avc1mp41</property>
  <property name="kdenlive:original.meta.attr.encoder.markup">Lavf60.3.100</property>
  <property name="kdenlive:original.meta.attr.comment.markup">Rendered with Manim Community v0.17.3</property>
  <property name="kdenlive:original.seekable">1</property>
  <property name="kdenlive:original.width">1920</property>
  <property name="kdenlive:original.height">1080</property>
  <property name="kdenlive:original.meta.media.sample_aspect_num">1</property>
  <property name="kdenlive:original.meta.media.sample_aspect_den">1</property>
  <property name="kdenlive:original.format">3</property>
  <property name="kdenlive:original.audio_index">-1</property>
  <property name="kdenlive:original.video_index">0</property>
  <property name="kdenlive:original.meta.media.frame_rate_num">60</property>
  <property name="kdenlive:original.meta.media.frame_rate_den">1</property>
  <property name="kdenlive:original.meta.media.colorspace">709</property>
  <property name="kdenlive:original.meta.media.color_trc">2</property>
  <property name="kdenlive:original.meta.media.has_b_frames">2</property>
  <property name="kdenlive:original.meta.media.width">1920</property>
  <property name="kdenlive:original.meta.media.height">1080</property>
  <property name="kdenlive:original.meta.media.color_range">mpeg</property>
  <property name="kdenlive:original.meta.media.top_field_first">0</property>
  <property name="kdenlive:original.meta.media.progressive">1</property>
  <property name="kdenlive:original.kdenlive:clip_type">2</property>
  <property name="kdenlive:original.kdenlive:folderid">188</property>
  <property name="kdenlive:original.kdenlive:id">189</property>
  <property name="kdenlive:original.mute_on_pause">0</property>
  <property name="kdenlive:original.kdenlive:file_size">46947</property>
  <property name="kdenlive:original.kdenlive:file_hash">7c0815615bc2ca76543906f9d81fafd8</property>
  <property name="kdenlive:original.backup">1</property>
  <property name="meta.media.nb_streams">1</property>
  <property name="meta.media.0.stream.type">video</property>
  <property name="meta.media.0.stream.frame_rate">60</property>
  <property name="meta.media.0.stream.sample_aspect_ratio">0</property>
  <property name="meta.media.0.codec.width">640</property>
  <property name="meta.media.0.codec.height">360</property>
  <property name="meta.media.0.codec.rotate">0</property>
  <property name="meta.media.0.codec.pix_fmt">yuvj420p</property>
  <property name="meta.media.0.codec.sample_aspect_ratio">0</property>
  <property name="meta.media.0.codec.colorspace">601</property>
  <property name="meta.media.0.codec.name">mjpeg</property>
  <property name="meta.media.0.codec.long_name">MJPEG (Motion JPEG)</property>
  <property name="meta.media.0.codec.bit_rate">0</property>
  <property name="meta.attr.0.stream.HANDLER_NAME.markup">VideoHandler</property>
  <property name="meta.attr.0.stream.VENDOR_ID.markup">[0][0][0][0]</property>
  <property name="meta.attr.0.stream.ENCODER.markup">Lavc60.3.100 mjpeg</property>
  <property name="meta.attr.0.stream.DURATION.markup">00:00:01.000000000</property>
  <property name="meta.attr.COMMENT.markup">Rendered with Manim Community v0.17.3</property>
  <property name="meta.attr.MAJOR_BRAND.markup">isom</property>
  <property name="meta.attr.MINOR_VERSION.markup">512</property>
  <property name="meta.attr.COMPATIBLE_BRANDS.markup">isomiso2avc1mp41</property>
  <property name="meta.attr.ENCODER.markup">Lavf60.3.100</property>
  <property name="meta.media.sample_aspect_num">1</property>
  <property name="meta.media.sample_aspect_den">1</property>
  <property name="meta.media.frame_rate_num">60</property>
  <property name="meta.media.frame_rate_den">1</property>
  <property name="meta.media.colorspace">601</property>
  <property name="meta.media.color_trc">2</property>
  <property name="meta.media.has_b_frames">0</property>
  <property name="meta.media.width">640</property>
  <property name="meta.media.height">360</property>
  <property name="meta.media.color_range">full</property>
  <property name="xml">was here</property>
  <property name="meta.media.top_field_first">0</property>
  <property name="meta.media.progressive">1</property>
  <property name="set.test_audio">1</property>
  <property name="set.test_image">0</property>
 </chain>
 <chain id="chain669" out="00:00:00.983">
  <property name="length">60</property>
  <property name="eof">pause</property>
  <property name="resource">/home/xiaoxiae/.cache/kdenlive/proxy/e9eab19c84bbd3cefa3f27321e92a41e.mkv</property>
  <property name="mlt_service">avformat-novalidate</property>
  <property name="seekable">1</property>
  <property name="format">3</property>
  <property name="audio_index">-1</property>
  <property name="video_index">0</property>
  <property name="kdenlive:clipname">2.mp4</property>
  <property name="kdenlive:clip_type">2</property>
  <property name="kdenlive:folderid">188</property>
  <property name="kdenlive:id">190</property>
  <property name="mute_on_pause">0</property>
  <property name="kdenlive:file_size">108959</property>
  <property name="kdenlive:file_hash">e9eab19c84bbd3cefa3f27321e92a41e</property>
  <property name="kdenlive:proxy">/home/xiaoxiae/.cache/kdenlive/proxy/e9eab19c84bbd3cefa3f27321e92a41e.mkv</property>
  <property name="kdenlive:originalurl">video/ILP/2.mp4</property>
  <property name="kdenlive:original.mlt_type">chain</property>
  <property name="kdenlive:original.in">0</property>
  <property name="kdenlive:original.out">00:00:00.983</property>
  <property name="kdenlive:original.length">60</property>
  <property name="kdenlive:original.eof">pause</property>
  <property name="kdenlive:original.resource">video/ILP/2.mp4</property>
  <property name="kdenlive:original.mlt_service">avformat-novalidate</property>
  <property name="kdenlive:original.meta.media.nb_streams">1</property>
  <property name="kdenlive:original.meta.media.0.stream.type">video</property>
  <property name="kdenlive:original.meta.media.0.stream.frame_rate">60</property>
  <property name="kdenlive:original.meta.media.0.stream.sample_aspect_ratio">0</property>
  <property name="kdenlive:original.meta.media.0.codec.width">1920</property>
  <property name="kdenlive:original.meta.media.0.codec.height">1080</property>
  <property name="kdenlive:original.meta.media.0.codec.rotate">0</property>
  <property name="kdenlive:original.meta.media.0.codec.pix_fmt">yuv420p</property>
  <property name="kdenlive:original.meta.media.0.codec.sample_aspect_ratio">0</property>
  <property name="kdenlive:original.meta.media.0.codec.colorspace">709</property>
  <property name="kdenlive:original.meta.media.0.codec.name">h264</property>
  <property name="kdenlive:original.meta.media.0.codec.long_name">H.264 / AVC / MPEG-4 AVC / MPEG-4 part 10</property>
  <property name="kdenlive:original.meta.media.0.codec.bit_rate">859448</property>
  <property name="kdenlive:original.meta.attr.0.stream.handler_name.markup">VideoHandler</property>
  <property name="kdenlive:original.meta.attr.0.stream.vendor_id.markup">[0][0][0][0]</property>
  <property name="kdenlive:original.meta.attr.0.stream.encoder.markup">Lavc60.3.100 libx264</property>
  <property name="kdenlive:original.meta.attr.major_brand.markup">isom</property>
  <property name="kdenlive:original.meta.attr.minor_version.markup">512</property>
  <property name="kdenlive:original.meta.attr.compatible_brands.markup">isomiso2avc1mp41</property>
  <property name="kdenlive:original.meta.attr.encoder.markup">Lavf60.3.100</property>
  <property name="kdenlive:original.meta.attr.comment.markup">Rendered with Manim Community v0.17.3</property>
  <property name="kdenlive:original.seekable">1</property>
  <property name="kdenlive:original.width">1920</property>
  <property name="kdenlive:original.height">1080</property>
  <property name="kdenlive:original.meta.media.sample_aspect_num">1</property>
  <property name="kdenlive:original.meta.media.sample_aspect_den">1</property>
  <property name="kdenlive:original.format">3</property>
  <property name="kdenlive:original.audio_index">-1</property>
  <property name="kdenlive:original.video_index">0</property>
  <property name="kdenlive:original.meta.media.frame_rate_num">60</property>
  <property name="kdenlive:original.meta.media.frame_rate_den">1</property>
  <property name="kdenlive:original.meta.media.colorspace">709</property>
  <property name="kdenlive:original.meta.media.color_trc">2</property>
  <property name="kdenlive:original.meta.media.has_b_frames">2</property>
  <property name="kdenlive:original.meta.media.width">1920</property>
  <property name="kdenlive:original.meta.media.height">1080</property>
  <property name="kdenlive:original.meta.media.color_range">mpeg</property>
  <property name="kdenlive:original.meta.media.top_field_first">0</property>
  <property name="kdenlive:original.meta.media.progressive">1</property>
  <property name="kdenlive:original.kdenlive:clip_type">2</property>
  <property name="kdenlive:original.kdenlive:folderid">188</property>
  <property name="kdenlive:original.kdenlive:id">190</property>
  <property name="kdenlive:original.mute_on_pause">0</property>
  <property name="kdenlive:original.kdenlive:file_size">108959</property>
  <property name="kdenlive:original.kdenlive:file_hash">e9eab19c84bbd3cefa3f27321e92a41e</property>
  <property name="kdenlive:original.backup">1</property>
  <property name="meta.media.nb_streams">1</property>
  <property name="meta.media.0.stream.type">video</property>
  <property name="meta.media.0.stream.frame_rate">60</property>
  <property name="meta.media.0.stream.sample_aspect_ratio">0</property>
  <property name="meta.media.0.codec.width">640</property>
  <property name="meta.media.0.codec.height">360</property>
  <property name="meta.media.0.codec.rotate">0</property>
  <property name="meta.media.0.codec.pix_fmt">yuvj420p</property>
  <property name="meta.media.0.codec.sample_aspect_ratio">0</property>
  <property name="meta.media.0.codec.colorspace">601</property>
  <property name="meta.media.0.codec.name">mjpeg</property>
  <property name="meta.media.0.codec.long_name">MJPEG (Motion JPEG)</property>
  <property name="meta.media.0.codec.bit_rate">0</property>
  <property name="meta.attr.0.stream.HANDLER_NAME.markup">VideoHandler</property>
  <property name="meta.attr.0.stream.VENDOR_ID.markup">[0][0][0][0]</property>
  <property name="meta.attr.0.stream.ENCODER.markup">Lavc60.3.100 mjpeg</property>
  <property name="meta.attr.0.stream.DURATION.markup">00:00:01.000000000</property>
  <property name="meta.attr.COMMENT.markup">Rendered with Manim Community v0.17.3</property>
  <property name="meta.attr.MAJOR_BRAND.markup">isom</property>
  <property name="meta.attr.MINOR_VERSION.markup">512</property>
  <property name="meta.attr.COMPATIBLE_BRANDS.markup">isomiso2avc1mp41</property>
  <property name="meta.attr.ENCODER.markup">Lavf60.3.100</property>
  <property name="meta.media.sample_aspect_num">1</property>
  <property name="meta.media.sample_aspect_den">1</property>
  <property name="meta.media.frame_rate_num">60</property>
  <property name="meta.media.frame_rate_den">1</property>
  <property name="meta.media.colorspace">601</property>
  <property name="meta.media.color_trc">2</property>
  <property name="meta.media.has_b_frames">0</property>
  <property name="meta.media.width">640</property>
  <property name="meta.media.height">360</property>
  <property name="meta.media.color_range">full</property>
  <property name="xml">was here</property>
  <property name="meta.media.top_field_first">0</property>
  <property name="meta.media.progressive">1</property>
  <property name="set.test_audio">1</property>
  <property name="set.test_image">0</property>
 </chain>
 <chain id="chain670" out="00:00:02.383">
  <property name="length">144</property>
  <property name="eof">pause</property>
  <property name="resource">/home/xiaoxiae/.cache/kdenlive/proxy/da6ed84176b41c8e61f19e2b44002bfc.mkv</property>
  <property name="mlt_service">avformat-novalidate</property>
  <property name="seekable">1</property>
  <property name="format">3</property>
  <property name="audio_index">-1</property>
  <property name="video_index">0</property>
  <property name="kdenlive:clipname">3.mp4</property>
  <property name="kdenlive:clip_type">2</property>
  <property name="kdenlive:folderid">188</property>
  <property name="kdenlive:id">191</property>
  <property name="mute_on_pause">0</property>
  <property name="kdenlive:file_size">134546</property>
  <property name="kdenlive:file_hash">da6ed84176b41c8e61f19e2b44002bfc</property>
  <property name="kdenlive:proxy">/home/xiaoxiae/.cache/kdenlive/proxy/da6ed84176b41c8e61f19e2b44002bfc.mkv</property>
  <property name="kdenlive:originalurl">video/ILP/3.mp4</property>
  <property name="kdenlive:original.mlt_type">chain</property>
  <property name="kdenlive:original.in">0</property>
  <property name="kdenlive:original.out">00:00:02.383</property>
  <property name="kdenlive:original.length">144</property>
  <property name="kdenlive:original.eof">pause</property>
  <property name="kdenlive:original.resource">video/ILP/3.mp4</property>
  <property name="kdenlive:original.mlt_service">avformat-novalidate</property>
  <property name="kdenlive:original.meta.media.nb_streams">1</property>
  <property name="kdenlive:original.meta.media.0.stream.type">video</property>
  <property name="kdenlive:original.meta.media.0.stream.frame_rate">60</property>
  <property name="kdenlive:original.meta.media.0.stream.sample_aspect_ratio">0</property>
  <property name="kdenlive:original.meta.media.0.codec.width">1920</property>
  <property name="kdenlive:original.meta.media.0.codec.height">1080</property>
  <property name="kdenlive:original.meta.media.0.codec.rotate">0</property>
  <property name="kdenlive:original.meta.media.0.codec.pix_fmt">yuv420p</property>
  <property name="kdenlive:original.meta.media.0.codec.sample_aspect_ratio">0</property>
  <property name="kdenlive:original.meta.media.0.codec.colorspace">709</property>
  <property name="kdenlive:original.meta.media.0.codec.name">h264</property>
  <property name="kdenlive:original.meta.media.0.codec.long_name">H.264 / AVC / MPEG-4 AVC / MPEG-4 part 10</property>
  <property name="kdenlive:original.meta.media.0.codec.bit_rate">439793</property>
  <property name="kdenlive:original.meta.attr.0.stream.handler_name.markup">VideoHandler</property>
  <property name="kdenlive:original.meta.attr.0.stream.vendor_id.markup">[0][0][0][0]</property>
  <property name="kdenlive:original.meta.attr.0.stream.encoder.markup">Lavc60.3.100 libx264</property>
  <property name="kdenlive:original.meta.attr.major_brand.markup">isom</property>
  <property name="kdenlive:original.meta.attr.minor_version.markup">512</property>
  <property name="kdenlive:original.meta.attr.compatible_brands.markup">isomiso2avc1mp41</property>
  <property name="kdenlive:original.meta.attr.encoder.markup">Lavf60.3.100</property>
  <property name="kdenlive:original.meta.attr.comment.markup">Rendered with Manim Community v0.17.3</property>
  <property name="kdenlive:original.seekable">1</property>
  <property name="kdenlive:original.width">1920</property>
  <property name="kdenlive:original.height">1080</property>
  <property name="kdenlive:original.meta.media.sample_aspect_num">1</property>
  <property name="kdenlive:original.meta.media.sample_aspect_den">1</property>
  <property name="kdenlive:original.format">3</property>
  <property name="kdenlive:original.audio_index">-1</property>
  <property name="kdenlive:original.video_index">0</property>
  <property name="kdenlive:original.meta.media.frame_rate_num">60</property>
  <property name="kdenlive:original.meta.media.frame_rate_den">1</property>
  <property name="kdenlive:original.meta.media.colorspace">709</property>
  <property name="kdenlive:original.meta.media.color_trc">2</property>
  <property name="kdenlive:original.meta.media.has_b_frames">2</property>
  <property name="kdenlive:original.meta.media.width">1920</property>
  <property name="kdenlive:original.meta.media.height">1080</property>
  <property name="kdenlive:original.meta.media.color_range">mpeg</property>
  <property name="kdenlive:original.meta.media.top_field_first">0</property>
  <property name="kdenlive:original.meta.media.progressive">1</property>
  <property name="kdenlive:original.kdenlive:clip_type">2</property>
  <property name="kdenlive:original.kdenlive:folderid">188</property>
  <property name="kdenlive:original.kdenlive:id">191</property>
  <property name="kdenlive:original.mute_on_pause">0</property>
  <property name="kdenlive:original.kdenlive:file_size">134546</property>
  <property name="kdenlive:original.kdenlive:file_hash">da6ed84176b41c8e61f19e2b44002bfc</property>
  <property name="kdenlive:original.backup">1</property>
  <property name="meta.media.nb_streams">1</property>
  <property name="meta.media.0.stream.type">video</property>
  <property name="meta.media.0.stream.frame_rate">60</property>
  <property name="meta.media.0.stream.sample_aspect_ratio">0</property>
  <property name="meta.media.0.codec.width">640</property>
  <property name="meta.media.0.codec.height">360</property>
  <property name="meta.media.0.codec.rotate">0</property>
  <property name="meta.media.0.codec.pix_fmt">yuvj420p</property>
  <property name="meta.media.0.codec.sample_aspect_ratio">0</property>
  <property name="meta.media.0.codec.colorspace">601</property>
  <property name="meta.media.0.codec.name">mjpeg</property>
  <property name="meta.media.0.codec.long_name">MJPEG (Motion JPEG)</property>
  <property name="meta.media.0.codec.bit_rate">0</property>
  <property name="meta.attr.0.stream.HANDLER_NAME.markup">VideoHandler</property>
  <property name="meta.attr.0.stream.VENDOR_ID.markup">[0][0][0][0]</property>
  <property name="meta.attr.0.stream.ENCODER.markup">Lavc60.3.100 mjpeg</property>
  <property name="meta.attr.0.stream.DURATION.markup">00:00:02.400000000</property>
  <property name="meta.attr.COMMENT.markup">Rendered with Manim Community v0.17.3</property>
  <property name="meta.attr.MAJOR_BRAND.markup">isom</property>
  <property name="meta.attr.MINOR_VERSION.markup">512</property>
  <property name="meta.attr.COMPATIBLE_BRANDS.markup">isomiso2avc1mp41</property>
  <property name="meta.attr.ENCODER.markup">Lavf60.3.100</property>
  <property name="meta.media.sample_aspect_num">1</property>
  <property name="meta.media.sample_aspect_den">1</property>
  <property name="meta.media.frame_rate_num">60</property>
  <property name="meta.media.frame_rate_den">1</property>
  <property name="meta.media.colorspace">601</property>
  <property name="meta.media.color_trc">2</property>
  <property name="meta.media.has_b_frames">0</property>
  <property name="meta.media.width">640</property>
  <property name="meta.media.height">360</property>
  <property name="meta.media.color_range">full</property>
  <property name="xml">was here</property>
  <property name="meta.media.top_field_first">0</property>
  <property name="meta.media.progressive">1</property>
  <property name="set.test_audio">1</property>
  <property name="set.test_image">0</property>
 </chain>
 <chain id="chain671" out="00:00:01.483">
  <property name="length">90</property>
  <property name="eof">pause</property>
  <property name="resource">/home/xiaoxiae/.cache/kdenlive/proxy/77e8e176133ea1356df36957172f8c4f.mkv</property>
  <property name="mlt_service">avformat-novalidate</property>
  <property name="seekable">1</property>
  <property name="format">3</property>
  <property name="audio_index">-1</property>
  <property name="video_index">0</property>
  <property name="kdenlive:clipname">4.mp4</property>
  <property name="kdenlive:clip_type">2</property>
  <property name="kdenlive:folderid">188</property>
  <property name="kdenlive:id">192</property>
  <property name="mute_on_pause">0</property>
  <property name="kdenlive:file_size">125253</property>
  <property name="kdenlive:file_hash">77e8e176133ea1356df36957172f8c4f</property>
  <property name="kdenlive:proxy">/home/xiaoxiae/.cache/kdenlive/proxy/77e8e176133ea1356df36957172f8c4f.mkv</property>
  <property name="kdenlive:originalurl">video/ILP/4.mp4</property>
  <property name="kdenlive:original.mlt_type">chain</property>
  <property name="kdenlive:original.in">0</property>
  <property name="kdenlive:original.out">00:00:01.483</property>
  <property name="kdenlive:original.length">90</property>
  <property name="kdenlive:original.eof">pause</property>
  <property name="kdenlive:original.resource">video/ILP/4.mp4</property>
  <property name="kdenlive:original.mlt_service">avformat-novalidate</property>
  <property name="kdenlive:original.meta.media.nb_streams">1</property>
  <property name="kdenlive:original.meta.media.0.stream.type">video</property>
  <property name="kdenlive:original.meta.media.0.stream.frame_rate">60</property>
  <property name="kdenlive:original.meta.media.0.stream.sample_aspect_ratio">0</property>
  <property name="kdenlive:original.meta.media.0.codec.width">1920</property>
  <property name="kdenlive:original.meta.media.0.codec.height">1080</property>
  <property name="kdenlive:original.meta.media.0.codec.rotate">0</property>
  <property name="kdenlive:original.meta.media.0.codec.pix_fmt">yuv420p</property>
  <property name="kdenlive:original.meta.media.0.codec.sample_aspect_ratio">0</property>
  <property name="kdenlive:original.meta.media.0.codec.colorspace">709</property>
  <property name="kdenlive:original.meta.media.0.codec.name">h264</property>
  <property name="kdenlive:original.meta.media.0.codec.long_name">H.264 / AVC / MPEG-4 AVC / MPEG-4 part 10</property>
  <property name="kdenlive:original.meta.media.0.codec.bit_rate">657776</property>
  <property name="kdenlive:original.meta.attr.0.stream.handler_name.markup">VideoHandler</property>
  <property name="kdenlive:original.meta.attr.0.stream.vendor_id.markup">[0][0][0][0]</property>
  <property name="kdenlive:original.meta.attr.0.stream.encoder.markup">Lavc60.3.100 libx264</property>
  <property name="kdenlive:original.meta.attr.major_brand.markup">isom</property>
  <property name="kdenlive:original.meta.attr.minor_version.markup">512</property>
  <property name="kdenlive:original.meta.attr.compatible_brands.markup">isomiso2avc1mp41</property>
  <property name="kdenlive:original.meta.attr.encoder.markup">Lavf60.3.100</property>
  <property name="kdenlive:original.meta.attr.comment.markup">Rendered with Manim Community v0.17.3</property>
  <property name="kdenlive:original.seekable">1</property>
  <property name="kdenlive:original.width">1920</property>
  <property name="kdenlive:original.height">1080</property>
  <property name="kdenlive:original.meta.media.sample_aspect_num">1</property>
  <property name="kdenlive:original.meta.media.sample_aspect_den">1</property>
  <property name="kdenlive:original.format">3</property>
  <property name="kdenlive:original.audio_index">-1</property>
  <property name="kdenlive:original.video_index">0</property>
  <property name="kdenlive:original.meta.media.frame_rate_num">60</property>
  <property name="kdenlive:original.meta.media.frame_rate_den">1</property>
  <property name="kdenlive:original.meta.media.colorspace">709</property>
  <property name="kdenlive:original.meta.media.color_trc">2</property>
  <property name="kdenlive:original.meta.media.has_b_frames">2</property>
  <property name="kdenlive:original.meta.media.width">1920</property>
  <property name="kdenlive:original.meta.media.height">1080</property>
  <property name="kdenlive:original.meta.media.color_range">mpeg</property>
  <property name="kdenlive:original.meta.media.top_field_first">0</property>
  <property name="kdenlive:original.meta.media.progressive">1</property>
  <property name="kdenlive:original.kdenlive:clip_type">2</property>
  <property name="kdenlive:original.kdenlive:folderid">188</property>
  <property name="kdenlive:original.kdenlive:id">192</property>
  <property name="kdenlive:original.mute_on_pause">0</property>
  <property name="kdenlive:original.kdenlive:file_size">125253</property>
  <property name="kdenlive:original.kdenlive:file_hash">77e8e176133ea1356df36957172f8c4f</property>
  <property name="kdenlive:original.backup">1</property>
  <property name="meta.media.nb_streams">1</property>
  <property name="meta.media.0.stream.type">video</property>
  <property name="meta.media.0.stream.frame_rate">60</property>
  <property name="meta.media.0.stream.sample_aspect_ratio">0</property>
  <property name="meta.media.0.codec.width">640</property>
  <property name="meta.media.0.codec.height">360</property>
  <property name="meta.media.0.codec.rotate">0</property>
  <property name="meta.media.0.codec.pix_fmt">yuvj420p</property>
  <property name="meta.media.0.codec.sample_aspect_ratio">0</property>
  <property name="meta.media.0.codec.colorspace">601</property>
  <property name="meta.media.0.codec.name">mjpeg</property>
  <property name="meta.media.0.codec.long_name">MJPEG (Motion JPEG)</property>
  <property name="meta.media.0.codec.bit_rate">0</property>
  <property name="meta.attr.0.stream.HANDLER_NAME.markup">VideoHandler</property>
  <property name="meta.attr.0.stream.VENDOR_ID.markup">[0][0][0][0]</property>
  <property name="meta.attr.0.stream.ENCODER.markup">Lavc60.3.100 mjpeg</property>
  <property name="meta.attr.0.stream.DURATION.markup">00:00:01.500000000</property>
  <property name="meta.attr.COMMENT.markup">Rendered with Manim Community v0.17.3</property>
  <property name="meta.attr.MAJOR_BRAND.markup">isom</property>
  <property name="meta.attr.MINOR_VERSION.markup">512</property>
  <property name="meta.attr.COMPATIBLE_BRANDS.markup">isomiso2avc1mp41</property>
  <property name="meta.attr.ENCODER.markup">Lavf60.3.100</property>
  <property name="meta.media.sample_aspect_num">1</property>
  <property name="meta.media.sample_aspect_den">1</property>
  <property name="meta.media.frame_rate_num">60</property>
  <property name="meta.media.frame_rate_den">1</property>
  <property name="meta.media.colorspace">601</property>
  <property name="meta.media.color_trc">2</property>
  <property name="meta.media.has_b_frames">0</property>
  <property name="meta.media.width">640</property>
  <property name="meta.media.height">360</property>
  <property name="meta.media.color_range">full</property>
  <property name="xml">was here</property>
  <property name="meta.media.top_field_first">0</property>
  <property name="meta.media.progressive">1</property>
  <property name="set.test_audio">1</property>
  <property name="set.test_image">0</property>
 </chain>
 <chain id="chain672" out="00:00:01.483">
  <property name="length">90</property>
  <property name="eof">pause</property>
  <property name="resource">/home/xiaoxiae/.cache/kdenlive/proxy/06025f9b25e0bdf4e068130f91c13ab7.mkv</property>
  <property name="mlt_service">avformat-novalidate</property>
  <property name="seekable">1</property>
  <property name="format">3</property>
  <property name="audio_index">-1</property>
  <property name="video_index">0</property>
  <property name="kdenlive:clipname">5.mp4</property>
  <property name="kdenlive:clip_type">2</property>
  <property name="kdenlive:folderid">188</property>
  <property name="kdenlive:id">193</property>
  <property name="mute_on_pause">0</property>
  <property name="kdenlive:file_size">68144</property>
  <property name="kdenlive:file_hash">06025f9b25e0bdf4e068130f91c13ab7</property>
  <property name="kdenlive:proxy">/home/xiaoxiae/.cache/kdenlive/proxy/06025f9b25e0bdf4e068130f91c13ab7.mkv</property>
  <property name="kdenlive:originalurl">video/ILP/5.mp4</property>
  <property name="kdenlive:original.mlt_type">chain</property>
  <property name="kdenlive:original.in">0</property>
  <property name="kdenlive:original.out">00:00:01.483</property>
  <property name="kdenlive:original.length">90</property>
  <property name="kdenlive:original.eof">pause</property>
  <property name="kdenlive:original.resource">video/ILP/5.mp4</property>
  <property name="kdenlive:original.mlt_service">avformat-novalidate</property>
  <property name="kdenlive:original.meta.media.nb_streams">1</property>
  <property name="kdenlive:original.meta.media.0.stream.type">video</property>
  <property name="kdenlive:original.meta.media.0.stream.frame_rate">60</property>
  <property name="kdenlive:original.meta.media.0.stream.sample_aspect_ratio">0</property>
  <property name="kdenlive:original.meta.media.0.codec.width">1920</property>
  <property name="kdenlive:original.meta.media.0.codec.height">1080</property>
  <property name="kdenlive:original.meta.media.0.codec.rotate">0</property>
  <property name="kdenlive:original.meta.media.0.codec.pix_fmt">yuv420p</property>
  <property name="kdenlive:original.meta.media.0.codec.sample_aspect_ratio">0</property>
  <property name="kdenlive:original.meta.media.0.codec.colorspace">709</property>
  <property name="kdenlive:original.meta.media.0.codec.name">h264</property>
  <property name="kdenlive:original.meta.media.0.codec.long_name">H.264 / AVC / MPEG-4 AVC / MPEG-4 part 10</property>
  <property name="kdenlive:original.meta.media.0.codec.bit_rate">352810</property>
  <property name="kdenlive:original.meta.attr.0.stream.handler_name.markup">VideoHandler</property>
  <property name="kdenlive:original.meta.attr.0.stream.vendor_id.markup">[0][0][0][0]</property>
  <property name="kdenlive:original.meta.attr.0.stream.encoder.markup">Lavc60.3.100 libx264</property>
  <property name="kdenlive:original.meta.attr.major_brand.markup">isom</property>
  <property name="kdenlive:original.meta.attr.minor_version.markup">512</property>
  <property name="kdenlive:original.meta.attr.compatible_brands.markup">isomiso2avc1mp41</property>
  <property name="kdenlive:original.meta.attr.encoder.markup">Lavf60.3.100</property>
  <property name="kdenlive:original.meta.attr.comment.markup">Rendered with Manim Community v0.17.3</property>
  <property name="kdenlive:original.seekable">1</property>
  <property name="kdenlive:original.width">1920</property>
  <property name="kdenlive:original.height">1080</property>
  <property name="kdenlive:original.meta.media.sample_aspect_num">1</property>
  <property name="kdenlive:original.meta.media.sample_aspect_den">1</property>
  <property name="kdenlive:original.format">3</property>
  <property name="kdenlive:original.audio_index">-1</property>
  <property name="kdenlive:original.video_index">0</property>
  <property name="kdenlive:original.meta.media.frame_rate_num">60</property>
  <property name="kdenlive:original.meta.media.frame_rate_den">1</property>
  <property name="kdenlive:original.meta.media.colorspace">709</property>
  <property name="kdenlive:original.meta.media.color_trc">2</property>
  <property name="kdenlive:original.meta.media.has_b_frames">2</property>
  <property name="kdenlive:original.meta.media.width">1920</property>
  <property name="kdenlive:original.meta.media.height">1080</property>
  <property name="kdenlive:original.meta.media.color_range">mpeg</property>
  <property name="kdenlive:original.meta.media.top_field_first">0</property>
  <property name="kdenlive:original.meta.media.progressive">1</property>
  <property name="kdenlive:original.kdenlive:clip_type">2</property>
  <property name="kdenlive:original.kdenlive:folderid">188</property>
  <property name="kdenlive:original.kdenlive:id">193</property>
  <property name="kdenlive:original.mute_on_pause">0</property>
  <property name="kdenlive:original.kdenlive:file_size">68144</property>
  <property name="kdenlive:original.kdenlive:file_hash">06025f9b25e0bdf4e068130f91c13ab7</property>
  <property name="kdenlive:original.backup">1</property>
  <property name="meta.media.nb_streams">1</property>
  <property name="meta.media.0.stream.type">video</property>
  <property name="meta.media.0.stream.frame_rate">60</property>
  <property name="meta.media.0.stream.sample_aspect_ratio">0</property>
  <property name="meta.media.0.codec.width">640</property>
  <property name="meta.media.0.codec.height">360</property>
  <property name="meta.media.0.codec.rotate">0</property>
  <property name="meta.media.0.codec.pix_fmt">yuvj420p</property>
  <property name="meta.media.0.codec.sample_aspect_ratio">0</property>
  <property name="meta.media.0.codec.colorspace">601</property>
  <property name="meta.media.0.codec.name">mjpeg</property>
  <property name="meta.media.0.codec.long_name">MJPEG (Motion JPEG)</property>
  <property name="meta.media.0.codec.bit_rate">0</property>
  <property name="meta.attr.0.stream.HANDLER_NAME.markup">VideoHandler</property>
  <property name="meta.attr.0.stream.VENDOR_ID.markup">[0][0][0][0]</property>
  <property name="meta.attr.0.stream.ENCODER.markup">Lavc60.3.100 mjpeg</property>
  <property name="meta.attr.0.stream.DURATION.markup">00:00:01.500000000</property>
  <property name="meta.attr.COMMENT.markup">Rendered with Manim Community v0.17.3</property>
  <property name="meta.attr.MAJOR_BRAND.markup">isom</property>
  <property name="meta.attr.MINOR_VERSION.markup">512</property>
  <property name="meta.attr.COMPATIBLE_BRANDS.markup">isomiso2avc1mp41</property>
  <property name="meta.attr.ENCODER.markup">Lavf60.3.100</property>
  <property name="meta.media.sample_aspect_num">1</property>
  <property name="meta.media.sample_aspect_den">1</property>
  <property name="meta.media.frame_rate_num">60</property>
  <property name="meta.media.frame_rate_den">1</property>
  <property name="meta.media.colorspace">601</property>
  <property name="meta.media.color_trc">2</property>
  <property name="meta.media.has_b_frames">0</property>
  <property name="meta.media.width">640</property>
  <property name="meta.media.height">360</property>
  <property name="meta.media.color_range">full</property>
  <property name="xml">was here</property>
  <property name="meta.media.top_field_first">0</property>
  <property name="meta.media.progressive">1</property>
  <property name="set.test_audio">1</property>
  <property name="set.test_image">0</property>
 </chain>
 <chain id="chain673" out="00:00:01.483">
  <property name="length">90</property>
  <property name="eof">pause</property>
  <property name="resource">/home/xiaoxiae/.cache/kdenlive/proxy/22d8d6ba38a66458fbd888401f270115.mkv</property>
  <property name="mlt_service">avformat-novalidate</property>
  <property name="seekable">1</property>
  <property name="format">3</property>
  <property name="audio_index">-1</property>
  <property name="video_index">0</property>
  <property name="kdenlive:clipname">6.mp4</property>
  <property name="kdenlive:clip_type">2</property>
  <property name="kdenlive:folderid">188</property>
  <property name="kdenlive:id">194</property>
  <property name="mute_on_pause">0</property>
  <property name="kdenlive:file_size">75792</property>
  <property name="kdenlive:file_hash">22d8d6ba38a66458fbd888401f270115</property>
  <property name="kdenlive:proxy">/home/xiaoxiae/.cache/kdenlive/proxy/22d8d6ba38a66458fbd888401f270115.mkv</property>
  <property name="kdenlive:originalurl">video/ILP/6.mp4</property>
  <property name="kdenlive:original.mlt_type">chain</property>
  <property name="kdenlive:original.in">0</property>
  <property name="kdenlive:original.out">00:00:01.483</property>
  <property name="kdenlive:original.length">90</property>
  <property name="kdenlive:original.eof">pause</property>
  <property name="kdenlive:original.resource">video/ILP/6.mp4</property>
  <property name="kdenlive:original.mlt_service">avformat-novalidate</property>
  <property name="kdenlive:original.meta.media.nb_streams">1</property>
  <property name="kdenlive:original.meta.media.0.stream.type">video</property>
  <property name="kdenlive:original.meta.media.0.stream.frame_rate">60</property>
  <property name="kdenlive:original.meta.media.0.stream.sample_aspect_ratio">0</property>
  <property name="kdenlive:original.meta.media.0.codec.width">1920</property>
  <property name="kdenlive:original.meta.media.0.codec.height">1080</property>
  <property name="kdenlive:original.meta.media.0.codec.rotate">0</property>
  <property name="kdenlive:original.meta.media.0.codec.pix_fmt">yuv420p</property>
  <property name="kdenlive:original.meta.media.0.codec.sample_aspect_ratio">0</property>
  <property name="kdenlive:original.meta.media.0.codec.colorspace">709</property>
  <property name="kdenlive:original.meta.media.0.codec.name">h264</property>
  <property name="kdenlive:original.meta.media.0.codec.long_name">H.264 / AVC / MPEG-4 AVC / MPEG-4 part 10</property>
  <property name="kdenlive:original.meta.media.0.codec.bit_rate">393600</property>
  <property name="kdenlive:original.meta.attr.0.stream.handler_name.markup">VideoHandler</property>
  <property name="kdenlive:original.meta.attr.0.stream.vendor_id.markup">[0][0][0][0]</property>
  <property name="kdenlive:original.meta.attr.0.stream.encoder.markup">Lavc60.3.100 libx264</property>
  <property name="kdenlive:original.meta.attr.major_brand.markup">isom</property>
  <property name="kdenlive:original.meta.attr.minor_version.markup">512</property>
  <property name="kdenlive:original.meta.attr.compatible_brands.markup">isomiso2avc1mp41</property>
  <property name="kdenlive:original.meta.attr.encoder.markup">Lavf60.3.100</property>
  <property name="kdenlive:original.meta.attr.comment.markup">Rendered with Manim Community v0.17.3</property>
  <property name="kdenlive:original.seekable">1</property>
  <property name="kdenlive:original.width">1920</property>
  <property name="kdenlive:original.height">1080</property>
  <property name="kdenlive:original.meta.media.sample_aspect_num">1</property>
  <property name="kdenlive:original.meta.media.sample_aspect_den">1</property>
  <property name="kdenlive:original.format">3</property>
  <property name="kdenlive:original.audio_index">-1</property>
  <property name="kdenlive:original.video_index">0</property>
  <property name="kdenlive:original.meta.media.frame_rate_num">60</property>
  <property name="kdenlive:original.meta.media.frame_rate_den">1</property>
  <property name="kdenlive:original.meta.media.colorspace">709</property>
  <property name="kdenlive:original.meta.media.color_trc">2</property>
  <property name="kdenlive:original.meta.media.has_b_frames">2</property>
  <property name="kdenlive:original.meta.media.width">1920</property>
  <property name="kdenlive:original.meta.media.height">1080</property>
  <property name="kdenlive:original.meta.media.color_range">mpeg</property>
  <property name="kdenlive:original.meta.media.top_field_first">0</property>
  <property name="kdenlive:original.meta.media.progressive">1</property>
  <property name="kdenlive:original.kdenlive:clip_type">2</property>
  <property name="kdenlive:original.kdenlive:folderid">188</property>
  <property name="kdenlive:original.kdenlive:id">194</property>
  <property name="kdenlive:original.mute_on_pause">0</property>
  <property name="kdenlive:original.kdenlive:file_size">75792</property>
  <property name="kdenlive:original.kdenlive:file_hash">22d8d6ba38a66458fbd888401f270115</property>
  <property name="kdenlive:original.backup">1</property>
  <property name="meta.media.nb_streams">1</property>
  <property name="meta.media.0.stream.type">video</property>
  <property name="meta.media.0.stream.frame_rate">60</property>
  <property name="meta.media.0.stream.sample_aspect_ratio">0</property>
  <property name="meta.media.0.codec.width">640</property>
  <property name="meta.media.0.codec.height">360</property>
  <property name="meta.media.0.codec.rotate">0</property>
  <property name="meta.media.0.codec.pix_fmt">yuvj420p</property>
  <property name="meta.media.0.codec.sample_aspect_ratio">0</property>
  <property name="meta.media.0.codec.colorspace">601</property>
  <property name="meta.media.0.codec.name">mjpeg</property>
  <property name="meta.media.0.codec.long_name">MJPEG (Motion JPEG)</property>
  <property name="meta.media.0.codec.bit_rate">0</property>
  <property name="meta.attr.0.stream.HANDLER_NAME.markup">VideoHandler</property>
  <property name="meta.attr.0.stream.VENDOR_ID.markup">[0][0][0][0]</property>
  <property name="meta.attr.0.stream.ENCODER.markup">Lavc60.3.100 mjpeg</property>
  <property name="meta.attr.0.stream.DURATION.markup">00:00:01.500000000</property>
  <property name="meta.attr.COMMENT.markup">Rendered with Manim Community v0.17.3</property>
  <property name="meta.attr.MAJOR_BRAND.markup">isom</property>
  <property name="meta.attr.MINOR_VERSION.markup">512</property>
  <property name="meta.attr.COMPATIBLE_BRANDS.markup">isomiso2avc1mp41</property>
  <property name="meta.attr.ENCODER.markup">Lavf60.3.100</property>
  <property name="meta.media.sample_aspect_num">1</property>
  <property name="meta.media.sample_aspect_den">1</property>
  <property name="meta.media.frame_rate_num">60</property>
  <property name="meta.media.frame_rate_den">1</property>
  <property name="meta.media.colorspace">601</property>
  <property name="meta.media.color_trc">2</property>
  <property name="meta.media.has_b_frames">0</property>
  <property name="meta.media.width">640</property>
  <property name="meta.media.height">360</property>
  <property name="meta.media.color_range">full</property>
  <property name="xml">was here</property>
  <property name="meta.media.top_field_first">0</property>
  <property name="meta.media.progressive">1</property>
  <property name="set.test_audio">1</property>
  <property name="set.test_image">0</property>
 </chain>
 <chain id="chain674" out="00:00:00.983">
  <property name="length">60</property>
  <property name="eof">pause</property>
  <property name="resource">/home/xiaoxiae/.cache/kdenlive/proxy/85db8217f4b3fda48e49cc586146a19a.mkv</property>
  <property name="mlt_service">avformat-novalidate</property>
  <property name="seekable">1</property>
  <property name="format">3</property>
  <property name="audio_index">-1</property>
  <property name="video_index">0</property>
  <property name="kdenlive:clipname">7.mp4</property>
  <property name="kdenlive:clip_type">2</property>
  <property name="kdenlive:folderid">188</property>
  <property name="kdenlive:id">195</property>
  <property name="mute_on_pause">0</property>
  <property name="kdenlive:file_size">133266</property>
  <property name="kdenlive:file_hash">85db8217f4b3fda48e49cc586146a19a</property>
  <property name="kdenlive:proxy">/home/xiaoxiae/.cache/kdenlive/proxy/85db8217f4b3fda48e49cc586146a19a.mkv</property>
  <property name="kdenlive:originalurl">video/ILP/7.mp4</property>
  <property name="kdenlive:original.mlt_type">chain</property>
  <property name="kdenlive:original.in">0</property>
  <property name="kdenlive:original.out">00:00:00.983</property>
  <property name="kdenlive:original.length">60</property>
  <property name="kdenlive:original.eof">pause</property>
  <property name="kdenlive:original.resource">video/ILP/7.mp4</property>
  <property name="kdenlive:original.mlt_service">avformat-novalidate</property>
  <property name="kdenlive:original.meta.media.nb_streams">1</property>
  <property name="kdenlive:original.meta.media.0.stream.type">video</property>
  <property name="kdenlive:original.meta.media.0.stream.frame_rate">60</property>
  <property name="kdenlive:original.meta.media.0.stream.sample_aspect_ratio">0</property>
  <property name="kdenlive:original.meta.media.0.codec.width">1920</property>
  <property name="kdenlive:original.meta.media.0.codec.height">1080</property>
  <property name="kdenlive:original.meta.media.0.codec.rotate">0</property>
  <property name="kdenlive:original.meta.media.0.codec.pix_fmt">yuv420p</property>
  <property name="kdenlive:original.meta.media.0.codec.sample_aspect_ratio">0</property>
  <property name="kdenlive:original.meta.media.0.codec.colorspace">709</property>
  <property name="kdenlive:original.meta.media.0.codec.name">h264</property>
  <property name="kdenlive:original.meta.media.0.codec.long_name">H.264 / AVC / MPEG-4 AVC / MPEG-4 part 10</property>
  <property name="kdenlive:original.meta.media.0.codec.bit_rate">1053520</property>
  <property name="kdenlive:original.meta.attr.0.stream.handler_name.markup">VideoHandler</property>
  <property name="kdenlive:original.meta.attr.0.stream.vendor_id.markup">[0][0][0][0]</property>
  <property name="kdenlive:original.meta.attr.0.stream.encoder.markup">Lavc60.3.100 libx264</property>
  <property name="kdenlive:original.meta.attr.major_brand.markup">isom</property>
  <property name="kdenlive:original.meta.attr.minor_version.markup">512</property>
  <property name="kdenlive:original.meta.attr.compatible_brands.markup">isomiso2avc1mp41</property>
  <property name="kdenlive:original.meta.attr.encoder.markup">Lavf60.3.100</property>
  <property name="kdenlive:original.meta.attr.comment.markup">Rendered with Manim Community v0.17.3</property>
  <property name="kdenlive:original.seekable">1</property>
  <property name="kdenlive:original.width">1920</property>
  <property name="kdenlive:original.height">1080</property>
  <property name="kdenlive:original.meta.media.sample_aspect_num">1</property>
  <property name="kdenlive:original.meta.media.sample_aspect_den">1</property>
  <property name="kdenlive:original.format">3</property>
  <property name="kdenlive:original.audio_index">-1</property>
  <property name="kdenlive:original.video_index">0</property>
  <property name="kdenlive:original.meta.media.frame_rate_num">60</property>
  <property name="kdenlive:original.meta.media.frame_rate_den">1</property>
  <property name="kdenlive:original.meta.media.colorspace">709</property>
  <property name="kdenlive:original.meta.media.color_trc">2</property>
  <property name="kdenlive:original.meta.media.has_b_frames">2</property>
  <property name="kdenlive:original.meta.media.width">1920</property>
  <property name="kdenlive:original.meta.media.height">1080</property>
  <property name="kdenlive:original.meta.media.color_range">mpeg</property>
  <property name="kdenlive:original.meta.media.top_field_first">0</property>
  <property name="kdenlive:original.meta.media.progressive">1</property>
  <property name="kdenlive:original.kdenlive:clip_type">2</property>
  <property name="kdenlive:original.kdenlive:folderid">188</property>
  <property name="kdenlive:original.kdenlive:id">195</property>
  <property name="kdenlive:original.mute_on_pause">0</property>
  <property name="kdenlive:original.kdenlive:file_size">133266</property>
  <property name="kdenlive:original.kdenlive:file_hash">85db8217f4b3fda48e49cc586146a19a</property>
  <property name="kdenlive:original.backup">1</property>
  <property name="meta.media.nb_streams">1</property>
  <property name="meta.media.0.stream.type">video</property>
  <property name="meta.media.0.stream.frame_rate">60</property>
  <property name="meta.media.0.stream.sample_aspect_ratio">0</property>
  <property name="meta.media.0.codec.width">640</property>
  <property name="meta.media.0.codec.height">360</property>
  <property name="meta.media.0.codec.rotate">0</property>
  <property name="meta.media.0.codec.pix_fmt">yuvj420p</property>
  <property name="meta.media.0.codec.sample_aspect_ratio">0</property>
  <property name="meta.media.0.codec.colorspace">601</property>
  <property name="meta.media.0.codec.name">mjpeg</property>
  <property name="meta.media.0.codec.long_name">MJPEG (Motion JPEG)</property>
  <property name="meta.media.0.codec.bit_rate">0</property>
  <property name="meta.attr.0.stream.HANDLER_NAME.markup">VideoHandler</property>
  <property name="meta.attr.0.stream.VENDOR_ID.markup">[0][0][0][0]</property>
  <property name="meta.attr.0.stream.ENCODER.markup">Lavc60.3.100 mjpeg</property>
  <property name="meta.attr.0.stream.DURATION.markup">00:00:01.000000000</property>
  <property name="meta.attr.COMMENT.markup">Rendered with Manim Community v0.17.3</property>
  <property name="meta.attr.MAJOR_BRAND.markup">isom</property>
  <property name="meta.attr.MINOR_VERSION.markup">512</property>
  <property name="meta.attr.COMPATIBLE_BRANDS.markup">isomiso2avc1mp41</property>
  <property name="meta.attr.ENCODER.markup">Lavf60.3.100</property>
  <property name="meta.media.sample_aspect_num">1</property>
  <property name="meta.media.sample_aspect_den">1</property>
  <property name="meta.media.frame_rate_num">60</property>
  <property name="meta.media.frame_rate_den">1</property>
  <property name="meta.media.colorspace">601</property>
  <property name="meta.media.color_trc">2</property>
  <property name="meta.media.has_b_frames">0</property>
  <property name="meta.media.width">640</property>
  <property name="meta.media.height">360</property>
  <property name="meta.media.color_range">full</property>
  <property name="xml">was here</property>
  <property name="meta.media.top_field_first">0</property>
  <property name="meta.media.progressive">1</property>
  <property name="set.test_audio">1</property>
  <property name="set.test_image">0</property>
 </chain>
 <chain id="chain675" out="00:00:01.483">
  <property name="length">90</property>
  <property name="eof">pause</property>
  <property name="resource">/home/xiaoxiae/.cache/kdenlive/proxy/995d8c55370e47244b2cf1ab96db0dc9.mkv</property>
  <property name="mlt_service">avformat-novalidate</property>
  <property name="seekable">1</property>
  <property name="format">3</property>
  <property name="audio_index">-1</property>
  <property name="video_index">0</property>
  <property name="kdenlive:clipname">1.mp4</property>
  <property name="kdenlive:clip_type">2</property>
  <property name="kdenlive:folderid">203</property>
  <property name="kdenlive:id">204</property>
  <property name="mute_on_pause">0</property>
  <property name="kdenlive:file_size">51232</property>
  <property name="kdenlive:file_hash">995d8c55370e47244b2cf1ab96db0dc9</property>
  <property name="kdenlive:proxy">/home/xiaoxiae/.cache/kdenlive/proxy/995d8c55370e47244b2cf1ab96db0dc9.mkv</property>
  <property name="kdenlive:originalurl">video/Knapsack/1.mp4</property>
  <property name="kdenlive:original.mlt_type">chain</property>
  <property name="kdenlive:original.in">0</property>
  <property name="kdenlive:original.out">00:00:01.483</property>
  <property name="kdenlive:original.length">90</property>
  <property name="kdenlive:original.eof">pause</property>
  <property name="kdenlive:original.resource">video/Knapsack/1.mp4</property>
  <property name="kdenlive:original.mlt_service">avformat-novalidate</property>
  <property name="kdenlive:original.meta.media.nb_streams">1</property>
  <property name="kdenlive:original.meta.media.0.stream.type">video</property>
  <property name="kdenlive:original.meta.media.0.stream.frame_rate">60</property>
  <property name="kdenlive:original.meta.media.0.stream.sample_aspect_ratio">0</property>
  <property name="kdenlive:original.meta.media.0.codec.width">1920</property>
  <property name="kdenlive:original.meta.media.0.codec.height">1080</property>
  <property name="kdenlive:original.meta.media.0.codec.rotate">0</property>
  <property name="kdenlive:original.meta.media.0.codec.pix_fmt">yuv420p</property>
  <property name="kdenlive:original.meta.media.0.codec.sample_aspect_ratio">0</property>
  <property name="kdenlive:original.meta.media.0.codec.colorspace">709</property>
  <property name="kdenlive:original.meta.media.0.codec.name">h264</property>
  <property name="kdenlive:original.meta.media.0.codec.long_name">H.264 / AVC / MPEG-4 AVC / MPEG-4 part 10</property>
  <property name="kdenlive:original.meta.media.0.codec.bit_rate">262613</property>
  <property name="kdenlive:original.meta.attr.0.stream.handler_name.markup">VideoHandler</property>
  <property name="kdenlive:original.meta.attr.0.stream.vendor_id.markup">[0][0][0][0]</property>
  <property name="kdenlive:original.meta.attr.0.stream.encoder.markup">Lavc60.3.100 libx264</property>
  <property name="kdenlive:original.meta.attr.major_brand.markup">isom</property>
  <property name="kdenlive:original.meta.attr.minor_version.markup">512</property>
  <property name="kdenlive:original.meta.attr.compatible_brands.markup">isomiso2avc1mp41</property>
  <property name="kdenlive:original.meta.attr.encoder.markup">Lavf60.3.100</property>
  <property name="kdenlive:original.meta.attr.comment.markup">Rendered with Manim Community v0.17.3</property>
  <property name="kdenlive:original.seekable">1</property>
  <property name="kdenlive:original.width">1920</property>
  <property name="kdenlive:original.height">1080</property>
  <property name="kdenlive:original.meta.media.sample_aspect_num">1</property>
  <property name="kdenlive:original.meta.media.sample_aspect_den">1</property>
  <property name="kdenlive:original.format">3</property>
  <property name="kdenlive:original.audio_index">-1</property>
  <property name="kdenlive:original.video_index">0</property>
  <property name="kdenlive:original.meta.media.frame_rate_num">60</property>
  <property name="kdenlive:original.meta.media.frame_rate_den">1</property>
  <property name="kdenlive:original.meta.media.colorspace">709</property>
  <property name="kdenlive:original.meta.media.color_trc">2</property>
  <property name="kdenlive:original.meta.media.has_b_frames">2</property>
  <property name="kdenlive:original.meta.media.width">1920</property>
  <property name="kdenlive:original.meta.media.height">1080</property>
  <property name="kdenlive:original.meta.media.color_range">mpeg</property>
  <property name="kdenlive:original.meta.media.top_field_first">0</property>
  <property name="kdenlive:original.meta.media.progressive">1</property>
  <property name="kdenlive:original.kdenlive:clip_type">2</property>
  <property name="kdenlive:original.kdenlive:folderid">203</property>
  <property name="kdenlive:original.kdenlive:id">204</property>
  <property name="kdenlive:original.mute_on_pause">0</property>
  <property name="kdenlive:original.kdenlive:file_size">51232</property>
  <property name="kdenlive:original.kdenlive:file_hash">995d8c55370e47244b2cf1ab96db0dc9</property>
  <property name="kdenlive:original.backup">1</property>
  <property name="meta.media.nb_streams">1</property>
  <property name="meta.media.0.stream.type">video</property>
  <property name="meta.media.0.stream.frame_rate">60</property>
  <property name="meta.media.0.stream.sample_aspect_ratio">0</property>
  <property name="meta.media.0.codec.width">640</property>
  <property name="meta.media.0.codec.height">360</property>
  <property name="meta.media.0.codec.rotate">0</property>
  <property name="meta.media.0.codec.pix_fmt">yuvj420p</property>
  <property name="meta.media.0.codec.sample_aspect_ratio">0</property>
  <property name="meta.media.0.codec.colorspace">601</property>
  <property name="meta.media.0.codec.name">mjpeg</property>
  <property name="meta.media.0.codec.long_name">MJPEG (Motion JPEG)</property>
  <property name="meta.media.0.codec.bit_rate">0</property>
  <property name="meta.attr.0.stream.HANDLER_NAME.markup">VideoHandler</property>
  <property name="meta.attr.0.stream.VENDOR_ID.markup">[0][0][0][0]</property>
  <property name="meta.attr.0.stream.ENCODER.markup">Lavc60.3.100 mjpeg</property>
  <property name="meta.attr.0.stream.DURATION.markup">00:00:01.500000000</property>
  <property name="meta.attr.COMMENT.markup">Rendered with Manim Community v0.17.3</property>
  <property name="meta.attr.MAJOR_BRAND.markup">isom</property>
  <property name="meta.attr.MINOR_VERSION.markup">512</property>
  <property name="meta.attr.COMPATIBLE_BRANDS.markup">isomiso2avc1mp41</property>
  <property name="meta.attr.ENCODER.markup">Lavf60.3.100</property>
  <property name="meta.media.sample_aspect_num">1</property>
  <property name="meta.media.sample_aspect_den">1</property>
  <property name="meta.media.frame_rate_num">60</property>
  <property name="meta.media.frame_rate_den">1</property>
  <property name="meta.media.colorspace">601</property>
  <property name="meta.media.color_trc">2</property>
  <property name="meta.media.has_b_frames">0</property>
  <property name="meta.media.width">640</property>
  <property name="meta.media.height">360</property>
  <property name="meta.media.color_range">full</property>
  <property name="xml">was here</property>
  <property name="meta.media.top_field_first">0</property>
  <property name="meta.media.progressive">1</property>
  <property name="set.test_audio">1</property>
  <property name="set.test_image">0</property>
 </chain>
 <chain id="chain676" out="00:00:01.483">
  <property name="length">90</property>
  <property name="eof">pause</property>
  <property name="resource">/home/xiaoxiae/.cache/kdenlive/proxy/04ef25b3b4955b37daa0adcb5923d36e.mkv</property>
  <property name="mlt_service">avformat-novalidate</property>
  <property name="seekable">1</property>
  <property name="format">3</property>
  <property name="audio_index">-1</property>
  <property name="video_index">0</property>
  <property name="kdenlive:clipname">2.mp4</property>
  <property name="kdenlive:clip_type">2</property>
  <property name="kdenlive:folderid">203</property>
  <property name="kdenlive:id">215</property>
  <property name="mute_on_pause">0</property>
  <property name="kdenlive:file_size">94925</property>
  <property name="kdenlive:file_hash">04ef25b3b4955b37daa0adcb5923d36e</property>
  <property name="kdenlive:proxy">/home/xiaoxiae/.cache/kdenlive/proxy/04ef25b3b4955b37daa0adcb5923d36e.mkv</property>
  <property name="kdenlive:originalurl">video/Knapsack/2.mp4</property>
  <property name="kdenlive:original.mlt_type">chain</property>
  <property name="kdenlive:original.in">0</property>
  <property name="kdenlive:original.out">00:00:01.483</property>
  <property name="kdenlive:original.length">90</property>
  <property name="kdenlive:original.eof">pause</property>
  <property name="kdenlive:original.resource">video/Knapsack/2.mp4</property>
  <property name="kdenlive:original.mlt_service">avformat-novalidate</property>
  <property name="kdenlive:original.meta.media.nb_streams">1</property>
  <property name="kdenlive:original.meta.media.0.stream.type">video</property>
  <property name="kdenlive:original.meta.media.0.stream.frame_rate">60</property>
  <property name="kdenlive:original.meta.media.0.stream.sample_aspect_ratio">0</property>
  <property name="kdenlive:original.meta.media.0.codec.width">1920</property>
  <property name="kdenlive:original.meta.media.0.codec.height">1080</property>
  <property name="kdenlive:original.meta.media.0.codec.rotate">0</property>
  <property name="kdenlive:original.meta.media.0.codec.pix_fmt">yuv420p</property>
  <property name="kdenlive:original.meta.media.0.codec.sample_aspect_ratio">0</property>
  <property name="kdenlive:original.meta.media.0.codec.colorspace">709</property>
  <property name="kdenlive:original.meta.media.0.codec.name">h264</property>
  <property name="kdenlive:original.meta.media.0.codec.long_name">H.264 / AVC / MPEG-4 AVC / MPEG-4 part 10</property>
  <property name="kdenlive:original.meta.media.0.codec.bit_rate">495941</property>
  <property name="kdenlive:original.meta.attr.0.stream.handler_name.markup">VideoHandler</property>
  <property name="kdenlive:original.meta.attr.0.stream.vendor_id.markup">[0][0][0][0]</property>
  <property name="kdenlive:original.meta.attr.0.stream.encoder.markup">Lavc60.3.100 libx264</property>
  <property name="kdenlive:original.meta.attr.major_brand.markup">isom</property>
  <property name="kdenlive:original.meta.attr.minor_version.markup">512</property>
  <property name="kdenlive:original.meta.attr.compatible_brands.markup">isomiso2avc1mp41</property>
  <property name="kdenlive:original.meta.attr.encoder.markup">Lavf60.3.100</property>
  <property name="kdenlive:original.meta.attr.comment.markup">Rendered with Manim Community v0.17.3</property>
  <property name="kdenlive:original.seekable">1</property>
  <property name="kdenlive:original.width">1920</property>
  <property name="kdenlive:original.height">1080</property>
  <property name="kdenlive:original.meta.media.sample_aspect_num">1</property>
  <property name="kdenlive:original.meta.media.sample_aspect_den">1</property>
  <property name="kdenlive:original.format">3</property>
  <property name="kdenlive:original.audio_index">-1</property>
  <property name="kdenlive:original.video_index">0</property>
  <property name="kdenlive:original.meta.media.frame_rate_num">60</property>
  <property name="kdenlive:original.meta.media.frame_rate_den">1</property>
  <property name="kdenlive:original.meta.media.colorspace">709</property>
  <property name="kdenlive:original.meta.media.color_trc">2</property>
  <property name="kdenlive:original.meta.media.has_b_frames">2</property>
  <property name="kdenlive:original.meta.media.width">1920</property>
  <property name="kdenlive:original.meta.media.height">1080</property>
  <property name="kdenlive:original.meta.media.color_range">mpeg</property>
  <property name="kdenlive:original.meta.media.top_field_first">0</property>
  <property name="kdenlive:original.meta.media.progressive">1</property>
  <property name="kdenlive:original.kdenlive:clip_type">2</property>
  <property name="kdenlive:original.kdenlive:folderid">203</property>
  <property name="kdenlive:original.kdenlive:id">215</property>
  <property name="kdenlive:original.mute_on_pause">0</property>
  <property name="kdenlive:original.kdenlive:file_size">94925</property>
  <property name="kdenlive:original.kdenlive:file_hash">04ef25b3b4955b37daa0adcb5923d36e</property>
  <property name="kdenlive:original.backup">1</property>
  <property name="meta.media.nb_streams">1</property>
  <property name="meta.media.0.stream.type">video</property>
  <property name="meta.media.0.stream.frame_rate">60</property>
  <property name="meta.media.0.stream.sample_aspect_ratio">0</property>
  <property name="meta.media.0.codec.width">640</property>
  <property name="meta.media.0.codec.height">360</property>
  <property name="meta.media.0.codec.rotate">0</property>
  <property name="meta.media.0.codec.pix_fmt">yuvj420p</property>
  <property name="meta.media.0.codec.sample_aspect_ratio">0</property>
  <property name="meta.media.0.codec.colorspace">601</property>
  <property name="meta.media.0.codec.name">mjpeg</property>
  <property name="meta.media.0.codec.long_name">MJPEG (Motion JPEG)</property>
  <property name="meta.media.0.codec.bit_rate">0</property>
  <property name="meta.attr.0.stream.HANDLER_NAME.markup">VideoHandler</property>
  <property name="meta.attr.0.stream.VENDOR_ID.markup">[0][0][0][0]</property>
  <property name="meta.attr.0.stream.ENCODER.markup">Lavc60.3.100 mjpeg</property>
  <property name="meta.attr.0.stream.DURATION.markup">00:00:01.500000000</property>
  <property name="meta.attr.COMMENT.markup">Rendered with Manim Community v0.17.3</property>
  <property name="meta.attr.MAJOR_BRAND.markup">isom</property>
  <property name="meta.attr.MINOR_VERSION.markup">512</property>
  <property name="meta.attr.COMPATIBLE_BRANDS.markup">isomiso2avc1mp41</property>
  <property name="meta.attr.ENCODER.markup">Lavf60.3.100</property>
  <property name="meta.media.sample_aspect_num">1</property>
  <property name="meta.media.sample_aspect_den">1</property>
  <property name="meta.media.frame_rate_num">60</property>
  <property name="meta.media.frame_rate_den">1</property>
  <property name="meta.media.colorspace">601</property>
  <property name="meta.media.color_trc">2</property>
  <property name="meta.media.has_b_frames">0</property>
  <property name="meta.media.width">640</property>
  <property name="meta.media.height">360</property>
  <property name="meta.media.color_range">full</property>
  <property name="xml">was here</property>
  <property name="meta.media.top_field_first">0</property>
  <property name="meta.media.progressive">1</property>
  <property name="set.test_audio">1</property>
  <property name="set.test_image">0</property>
 </chain>
 <chain id="chain677" out="00:00:01.483">
  <property name="length">90</property>
  <property name="eof">pause</property>
  <property name="resource">/home/xiaoxiae/.cache/kdenlive/proxy/a520a919fbec5b517250072e32cc7fda.mkv</property>
  <property name="mlt_service">avformat-novalidate</property>
  <property name="seekable">1</property>
  <property name="format">3</property>
  <property name="audio_index">-1</property>
  <property name="video_index">0</property>
  <property name="kdenlive:clipname">3.mp4</property>
  <property name="kdenlive:clip_type">2</property>
  <property name="kdenlive:folderid">203</property>
  <property name="kdenlive:id">220</property>
  <property name="mute_on_pause">0</property>
  <property name="kdenlive:file_size">53016</property>
  <property name="kdenlive:file_hash">a520a919fbec5b517250072e32cc7fda</property>
  <property name="kdenlive:proxy">/home/xiaoxiae/.cache/kdenlive/proxy/a520a919fbec5b517250072e32cc7fda.mkv</property>
  <property name="kdenlive:originalurl">video/Knapsack/3.mp4</property>
  <property name="kdenlive:original.mlt_type">chain</property>
  <property name="kdenlive:original.in">0</property>
  <property name="kdenlive:original.out">00:00:01.483</property>
  <property name="kdenlive:original.length">90</property>
  <property name="kdenlive:original.eof">pause</property>
  <property name="kdenlive:original.resource">video/Knapsack/3.mp4</property>
  <property name="kdenlive:original.mlt_service">avformat-novalidate</property>
  <property name="kdenlive:original.meta.media.nb_streams">1</property>
  <property name="kdenlive:original.meta.media.0.stream.type">video</property>
  <property name="kdenlive:original.meta.media.0.stream.frame_rate">60</property>
  <property name="kdenlive:original.meta.media.0.stream.sample_aspect_ratio">0</property>
  <property name="kdenlive:original.meta.media.0.codec.width">1920</property>
  <property name="kdenlive:original.meta.media.0.codec.height">1080</property>
  <property name="kdenlive:original.meta.media.0.codec.rotate">0</property>
  <property name="kdenlive:original.meta.media.0.codec.pix_fmt">yuv420p</property>
  <property name="kdenlive:original.meta.media.0.codec.sample_aspect_ratio">0</property>
  <property name="kdenlive:original.meta.media.0.codec.colorspace">709</property>
  <property name="kdenlive:original.meta.media.0.codec.name">h264</property>
  <property name="kdenlive:original.meta.media.0.codec.long_name">H.264 / AVC / MPEG-4 AVC / MPEG-4 part 10</property>
  <property name="kdenlive:original.meta.media.0.codec.bit_rate">272085</property>
  <property name="kdenlive:original.meta.attr.0.stream.handler_name.markup">VideoHandler</property>
  <property name="kdenlive:original.meta.attr.0.stream.vendor_id.markup">[0][0][0][0]</property>
  <property name="kdenlive:original.meta.attr.0.stream.encoder.markup">Lavc60.3.100 libx264</property>
  <property name="kdenlive:original.meta.attr.major_brand.markup">isom</property>
  <property name="kdenlive:original.meta.attr.minor_version.markup">512</property>
  <property name="kdenlive:original.meta.attr.compatible_brands.markup">isomiso2avc1mp41</property>
  <property name="kdenlive:original.meta.attr.encoder.markup">Lavf60.3.100</property>
  <property name="kdenlive:original.meta.attr.comment.markup">Rendered with Manim Community v0.17.3</property>
  <property name="kdenlive:original.seekable">1</property>
  <property name="kdenlive:original.width">1920</property>
  <property name="kdenlive:original.height">1080</property>
  <property name="kdenlive:original.meta.media.sample_aspect_num">1</property>
  <property name="kdenlive:original.meta.media.sample_aspect_den">1</property>
  <property name="kdenlive:original.format">3</property>
  <property name="kdenlive:original.audio_index">-1</property>
  <property name="kdenlive:original.video_index">0</property>
  <property name="kdenlive:original.meta.media.frame_rate_num">60</property>
  <property name="kdenlive:original.meta.media.frame_rate_den">1</property>
  <property name="kdenlive:original.meta.media.colorspace">709</property>
  <property name="kdenlive:original.meta.media.color_trc">2</property>
  <property name="kdenlive:original.meta.media.has_b_frames">2</property>
  <property name="kdenlive:original.meta.media.width">1920</property>
  <property name="kdenlive:original.meta.media.height">1080</property>
  <property name="kdenlive:original.meta.media.color_range">mpeg</property>
  <property name="kdenlive:original.meta.media.top_field_first">0</property>
  <property name="kdenlive:original.meta.media.progressive">1</property>
  <property name="kdenlive:original.kdenlive:clip_type">2</property>
  <property name="kdenlive:original.kdenlive:folderid">203</property>
  <property name="kdenlive:original.kdenlive:id">220</property>
  <property name="kdenlive:original.mute_on_pause">0</property>
  <property name="kdenlive:original.kdenlive:file_size">53016</property>
  <property name="kdenlive:original.kdenlive:file_hash">a520a919fbec5b517250072e32cc7fda</property>
  <property name="kdenlive:original.backup">1</property>
  <property name="meta.media.nb_streams">1</property>
  <property name="meta.media.0.stream.type">video</property>
  <property name="meta.media.0.stream.frame_rate">60</property>
  <property name="meta.media.0.stream.sample_aspect_ratio">0</property>
  <property name="meta.media.0.codec.width">640</property>
  <property name="meta.media.0.codec.height">360</property>
  <property name="meta.media.0.codec.rotate">0</property>
  <property name="meta.media.0.codec.pix_fmt">yuvj420p</property>
  <property name="meta.media.0.codec.sample_aspect_ratio">0</property>
  <property name="meta.media.0.codec.colorspace">601</property>
  <property name="meta.media.0.codec.name">mjpeg</property>
  <property name="meta.media.0.codec.long_name">MJPEG (Motion JPEG)</property>
  <property name="meta.media.0.codec.bit_rate">0</property>
  <property name="meta.attr.0.stream.HANDLER_NAME.markup">VideoHandler</property>
  <property name="meta.attr.0.stream.VENDOR_ID.markup">[0][0][0][0]</property>
  <property name="meta.attr.0.stream.ENCODER.markup">Lavc60.3.100 mjpeg</property>
  <property name="meta.attr.0.stream.DURATION.markup">00:00:01.500000000</property>
  <property name="meta.attr.COMMENT.markup">Rendered with Manim Community v0.17.3</property>
  <property name="meta.attr.MAJOR_BRAND.markup">isom</property>
  <property name="meta.attr.MINOR_VERSION.markup">512</property>
  <property name="meta.attr.COMPATIBLE_BRANDS.markup">isomiso2avc1mp41</property>
  <property name="meta.attr.ENCODER.markup">Lavf60.3.100</property>
  <property name="meta.media.sample_aspect_num">1</property>
  <property name="meta.media.sample_aspect_den">1</property>
  <property name="meta.media.frame_rate_num">60</property>
  <property name="meta.media.frame_rate_den">1</property>
  <property name="meta.media.colorspace">601</property>
  <property name="meta.media.color_trc">2</property>
  <property name="meta.media.has_b_frames">0</property>
  <property name="meta.media.width">640</property>
  <property name="meta.media.height">360</property>
  <property name="meta.media.color_range">full</property>
  <property name="xml">was here</property>
  <property name="meta.media.top_field_first">0</property>
  <property name="meta.media.progressive">1</property>
  <property name="set.test_audio">1</property>
  <property name="set.test_image">0</property>
 </chain>
 <chain id="chain678" out="00:00:01.483">
  <property name="length">90</property>
  <property name="eof">pause</property>
  <property name="resource">/home/xiaoxiae/.cache/kdenlive/proxy/e72336004e246e7698a33ab177931f99.mkv</property>
  <property name="mlt_service">avformat-novalidate</property>
  <property name="seekable">1</property>
  <property name="format">3</property>
  <property name="audio_index">-1</property>
  <property name="video_index">0</property>
  <property name="kdenlive:clipname">4.mp4</property>
  <property name="kdenlive:clip_type">2</property>
  <property name="kdenlive:folderid">203</property>
  <property name="kdenlive:id">221</property>
  <property name="mute_on_pause">0</property>
  <property name="kdenlive:file_size">79988</property>
  <property name="kdenlive:file_hash">e72336004e246e7698a33ab177931f99</property>
  <property name="kdenlive:proxy">/home/xiaoxiae/.cache/kdenlive/proxy/e72336004e246e7698a33ab177931f99.mkv</property>
  <property name="kdenlive:originalurl">video/Knapsack/4.mp4</property>
  <property name="kdenlive:original.mlt_type">chain</property>
  <property name="kdenlive:original.in">0</property>
  <property name="kdenlive:original.out">00:00:01.483</property>
  <property name="kdenlive:original.length">90</property>
  <property name="kdenlive:original.eof">pause</property>
  <property name="kdenlive:original.resource">video/Knapsack/4.mp4</property>
  <property name="kdenlive:original.mlt_service">avformat-novalidate</property>
  <property name="kdenlive:original.meta.media.nb_streams">1</property>
  <property name="kdenlive:original.meta.media.0.stream.type">video</property>
  <property name="kdenlive:original.meta.media.0.stream.frame_rate">60</property>
  <property name="kdenlive:original.meta.media.0.stream.sample_aspect_ratio">0</property>
  <property name="kdenlive:original.meta.media.0.codec.width">1920</property>
  <property name="kdenlive:original.meta.media.0.codec.height">1080</property>
  <property name="kdenlive:original.meta.media.0.codec.rotate">0</property>
  <property name="kdenlive:original.meta.media.0.codec.pix_fmt">yuv420p</property>
  <property name="kdenlive:original.meta.media.0.codec.sample_aspect_ratio">0</property>
  <property name="kdenlive:original.meta.media.0.codec.colorspace">709</property>
  <property name="kdenlive:original.meta.media.0.codec.name">h264</property>
  <property name="kdenlive:original.meta.media.0.codec.long_name">H.264 / AVC / MPEG-4 AVC / MPEG-4 part 10</property>
  <property name="kdenlive:original.meta.media.0.codec.bit_rate">415936</property>
  <property name="kdenlive:original.meta.attr.0.stream.handler_name.markup">VideoHandler</property>
  <property name="kdenlive:original.meta.attr.0.stream.vendor_id.markup">[0][0][0][0]</property>
  <property name="kdenlive:original.meta.attr.0.stream.encoder.markup">Lavc60.3.100 libx264</property>
  <property name="kdenlive:original.meta.attr.major_brand.markup">isom</property>
  <property name="kdenlive:original.meta.attr.minor_version.markup">512</property>
  <property name="kdenlive:original.meta.attr.compatible_brands.markup">isomiso2avc1mp41</property>
  <property name="kdenlive:original.meta.attr.encoder.markup">Lavf60.3.100</property>
  <property name="kdenlive:original.meta.attr.comment.markup">Rendered with Manim Community v0.17.3</property>
  <property name="kdenlive:original.seekable">1</property>
  <property name="kdenlive:original.width">1920</property>
  <property name="kdenlive:original.height">1080</property>
  <property name="kdenlive:original.meta.media.sample_aspect_num">1</property>
  <property name="kdenlive:original.meta.media.sample_aspect_den">1</property>
  <property name="kdenlive:original.format">3</property>
  <property name="kdenlive:original.audio_index">-1</property>
  <property name="kdenlive:original.video_index">0</property>
  <property name="kdenlive:original.meta.media.frame_rate_num">60</property>
  <property name="kdenlive:original.meta.media.frame_rate_den">1</property>
  <property name="kdenlive:original.meta.media.colorspace">709</property>
  <property name="kdenlive:original.meta.media.color_trc">2</property>
  <property name="kdenlive:original.meta.media.has_b_frames">2</property>
  <property name="kdenlive:original.meta.media.width">1920</property>
  <property name="kdenlive:original.meta.media.height">1080</property>
  <property name="kdenlive:original.meta.media.color_range">mpeg</property>
  <property name="kdenlive:original.meta.media.top_field_first">0</property>
  <property name="kdenlive:original.meta.media.progressive">1</property>
  <property name="kdenlive:original.kdenlive:clip_type">2</property>
  <property name="kdenlive:original.kdenlive:folderid">203</property>
  <property name="kdenlive:original.kdenlive:id">221</property>
  <property name="kdenlive:original.mute_on_pause">0</property>
  <property name="kdenlive:original.kdenlive:file_size">79988</property>
  <property name="kdenlive:original.kdenlive:file_hash">e72336004e246e7698a33ab177931f99</property>
  <property name="kdenlive:original.backup">1</property>
  <property name="meta.media.nb_streams">1</property>
  <property name="meta.media.0.stream.type">video</property>
  <property name="meta.media.0.stream.frame_rate">60</property>
  <property name="meta.media.0.stream.sample_aspect_ratio">0</property>
  <property name="meta.media.0.codec.width">640</property>
  <property name="meta.media.0.codec.height">360</property>
  <property name="meta.media.0.codec.rotate">0</property>
  <property name="meta.media.0.codec.pix_fmt">yuvj420p</property>
  <property name="meta.media.0.codec.sample_aspect_ratio">0</property>
  <property name="meta.media.0.codec.colorspace">601</property>
  <property name="meta.media.0.codec.name">mjpeg</property>
  <property name="meta.media.0.codec.long_name">MJPEG (Motion JPEG)</property>
  <property name="meta.media.0.codec.bit_rate">0</property>
  <property name="meta.attr.0.stream.HANDLER_NAME.markup">VideoHandler</property>
  <property name="meta.attr.0.stream.VENDOR_ID.markup">[0][0][0][0]</property>
  <property name="meta.attr.0.stream.ENCODER.markup">Lavc60.3.100 mjpeg</property>
  <property name="meta.attr.0.stream.DURATION.markup">00:00:01.500000000</property>
  <property name="meta.attr.COMMENT.markup">Rendered with Manim Community v0.17.3</property>
  <property name="meta.attr.MAJOR_BRAND.markup">isom</property>
  <property name="meta.attr.MINOR_VERSION.markup">512</property>
  <property name="meta.attr.COMPATIBLE_BRANDS.markup">isomiso2avc1mp41</property>
  <property name="meta.attr.ENCODER.markup">Lavf60.3.100</property>
  <property name="meta.media.sample_aspect_num">1</property>
  <property name="meta.media.sample_aspect_den">1</property>
  <property name="meta.media.frame_rate_num">60</property>
  <property name="meta.media.frame_rate_den">1</property>
  <property name="meta.media.colorspace">601</property>
  <property name="meta.media.color_trc">2</property>
  <property name="meta.media.has_b_frames">0</property>
  <property name="meta.media.width">640</property>
  <property name="meta.media.height">360</property>
  <property name="meta.media.color_range">full</property>
  <property name="xml">was here</property>
  <property name="meta.media.top_field_first">0</property>
  <property name="meta.media.progressive">1</property>
  <property name="set.test_audio">1</property>
  <property name="set.test_image">0</property>
 </chain>
 <chain id="chain679" out="00:00:01.983">
  <property name="length">120</property>
  <property name="eof">pause</property>
  <property name="resource">/home/xiaoxiae/.cache/kdenlive/proxy/07b19902e069705082ad6c89aa88fd74.mkv</property>
  <property name="mlt_service">avformat-novalidate</property>
  <property name="seekable">1</property>
  <property name="format">3</property>
  <property name="audio_index">-1</property>
  <property name="video_index">0</property>
  <property name="kdenlive:clipname">5.mp4</property>
  <property name="kdenlive:clip_type">2</property>
  <property name="kdenlive:folderid">203</property>
  <property name="kdenlive:id">222</property>
  <property name="mute_on_pause">0</property>
  <property name="kdenlive:file_size">164512</property>
  <property name="kdenlive:file_hash">07b19902e069705082ad6c89aa88fd74</property>
  <property name="kdenlive:proxy">/home/xiaoxiae/.cache/kdenlive/proxy/07b19902e069705082ad6c89aa88fd74.mkv</property>
  <property name="kdenlive:originalurl">video/Knapsack/5.mp4</property>
  <property name="kdenlive:original.mlt_type">chain</property>
  <property name="kdenlive:original.in">0</property>
  <property name="kdenlive:original.out">00:00:01.983</property>
  <property name="kdenlive:original.length">120</property>
  <property name="kdenlive:original.eof">pause</property>
  <property name="kdenlive:original.resource">video/Knapsack/5.mp4</property>
  <property name="kdenlive:original.mlt_service">avformat-novalidate</property>
  <property name="kdenlive:original.meta.media.nb_streams">1</property>
  <property name="kdenlive:original.meta.media.0.stream.type">video</property>
  <property name="kdenlive:original.meta.media.0.stream.frame_rate">60</property>
  <property name="kdenlive:original.meta.media.0.stream.sample_aspect_ratio">0</property>
  <property name="kdenlive:original.meta.media.0.codec.width">1920</property>
  <property name="kdenlive:original.meta.media.0.codec.height">1080</property>
  <property name="kdenlive:original.meta.media.0.codec.rotate">0</property>
  <property name="kdenlive:original.meta.media.0.codec.pix_fmt">yuv420p</property>
  <property name="kdenlive:original.meta.media.0.codec.sample_aspect_ratio">0</property>
  <property name="kdenlive:original.meta.media.0.codec.colorspace">709</property>
  <property name="kdenlive:original.meta.media.0.codec.name">h264</property>
  <property name="kdenlive:original.meta.media.0.codec.long_name">H.264 / AVC / MPEG-4 AVC / MPEG-4 part 10</property>
  <property name="kdenlive:original.meta.media.0.codec.bit_rate">648736</property>
  <property name="kdenlive:original.meta.attr.0.stream.handler_name.markup">VideoHandler</property>
  <property name="kdenlive:original.meta.attr.0.stream.vendor_id.markup">[0][0][0][0]</property>
  <property name="kdenlive:original.meta.attr.0.stream.encoder.markup">Lavc60.3.100 libx264</property>
  <property name="kdenlive:original.meta.attr.major_brand.markup">isom</property>
  <property name="kdenlive:original.meta.attr.minor_version.markup">512</property>
  <property name="kdenlive:original.meta.attr.compatible_brands.markup">isomiso2avc1mp41</property>
  <property name="kdenlive:original.meta.attr.encoder.markup">Lavf60.3.100</property>
  <property name="kdenlive:original.meta.attr.comment.markup">Rendered with Manim Community v0.17.3</property>
  <property name="kdenlive:original.seekable">1</property>
  <property name="kdenlive:original.width">1920</property>
  <property name="kdenlive:original.height">1080</property>
  <property name="kdenlive:original.meta.media.sample_aspect_num">1</property>
  <property name="kdenlive:original.meta.media.sample_aspect_den">1</property>
  <property name="kdenlive:original.format">3</property>
  <property name="kdenlive:original.audio_index">-1</property>
  <property name="kdenlive:original.video_index">0</property>
  <property name="kdenlive:original.meta.media.frame_rate_num">60</property>
  <property name="kdenlive:original.meta.media.frame_rate_den">1</property>
  <property name="kdenlive:original.meta.media.colorspace">709</property>
  <property name="kdenlive:original.meta.media.color_trc">2</property>
  <property name="kdenlive:original.meta.media.has_b_frames">2</property>
  <property name="kdenlive:original.meta.media.width">1920</property>
  <property name="kdenlive:original.meta.media.height">1080</property>
  <property name="kdenlive:original.meta.media.color_range">mpeg</property>
  <property name="kdenlive:original.meta.media.top_field_first">0</property>
  <property name="kdenlive:original.meta.media.progressive">1</property>
  <property name="kdenlive:original.kdenlive:clip_type">2</property>
  <property name="kdenlive:original.kdenlive:folderid">203</property>
  <property name="kdenlive:original.kdenlive:id">222</property>
  <property name="kdenlive:original.mute_on_pause">0</property>
  <property name="kdenlive:original.kdenlive:file_size">164512</property>
  <property name="kdenlive:original.kdenlive:file_hash">07b19902e069705082ad6c89aa88fd74</property>
  <property name="kdenlive:original.backup">1</property>
  <property name="meta.media.nb_streams">1</property>
  <property name="meta.media.0.stream.type">video</property>
  <property name="meta.media.0.stream.frame_rate">60</property>
  <property name="meta.media.0.stream.sample_aspect_ratio">0</property>
  <property name="meta.media.0.codec.width">640</property>
  <property name="meta.media.0.codec.height">360</property>
  <property name="meta.media.0.codec.rotate">0</property>
  <property name="meta.media.0.codec.pix_fmt">yuvj420p</property>
  <property name="meta.media.0.codec.sample_aspect_ratio">0</property>
  <property name="meta.media.0.codec.colorspace">601</property>
  <property name="meta.media.0.codec.name">mjpeg</property>
  <property name="meta.media.0.codec.long_name">MJPEG (Motion JPEG)</property>
  <property name="meta.media.0.codec.bit_rate">0</property>
  <property name="meta.attr.0.stream.HANDLER_NAME.markup">VideoHandler</property>
  <property name="meta.attr.0.stream.VENDOR_ID.markup">[0][0][0][0]</property>
  <property name="meta.attr.0.stream.ENCODER.markup">Lavc60.3.100 mjpeg</property>
  <property name="meta.attr.0.stream.DURATION.markup">00:00:02.000000000</property>
  <property name="meta.attr.COMMENT.markup">Rendered with Manim Community v0.17.3</property>
  <property name="meta.attr.MAJOR_BRAND.markup">isom</property>
  <property name="meta.attr.MINOR_VERSION.markup">512</property>
  <property name="meta.attr.COMPATIBLE_BRANDS.markup">isomiso2avc1mp41</property>
  <property name="meta.attr.ENCODER.markup">Lavf60.3.100</property>
  <property name="meta.media.sample_aspect_num">1</property>
  <property name="meta.media.sample_aspect_den">1</property>
  <property name="meta.media.frame_rate_num">60</property>
  <property name="meta.media.frame_rate_den">1</property>
  <property name="meta.media.colorspace">601</property>
  <property name="meta.media.color_trc">2</property>
  <property name="meta.media.has_b_frames">0</property>
  <property name="meta.media.width">640</property>
  <property name="meta.media.height">360</property>
  <property name="meta.media.color_range">full</property>
  <property name="xml">was here</property>
  <property name="meta.media.top_field_first">0</property>
  <property name="meta.media.progressive">1</property>
  <property name="set.test_audio">1</property>
  <property name="set.test_image">0</property>
 </chain>
 <chain id="chain680" out="00:00:00.983">
  <property name="length">60</property>
  <property name="eof">pause</property>
  <property name="resource">/home/xiaoxiae/.cache/kdenlive/proxy/05e0fef2d719109d6e4facea1804fc51.mkv</property>
  <property name="mlt_service">avformat-novalidate</property>
  <property name="seekable">1</property>
  <property name="format">3</property>
  <property name="audio_index">-1</property>
  <property name="video_index">0</property>
  <property name="kdenlive:clipname">6.mp4</property>
  <property name="kdenlive:clip_type">2</property>
  <property name="kdenlive:folderid">203</property>
  <property name="kdenlive:id">223</property>
  <property name="mute_on_pause">0</property>
  <property name="kdenlive:file_size">68821</property>
  <property name="kdenlive:file_hash">05e0fef2d719109d6e4facea1804fc51</property>
  <property name="kdenlive:proxy">/home/xiaoxiae/.cache/kdenlive/proxy/05e0fef2d719109d6e4facea1804fc51.mkv</property>
  <property name="kdenlive:originalurl">video/Knapsack/6.mp4</property>
  <property name="kdenlive:original.mlt_type">chain</property>
  <property name="kdenlive:original.in">0</property>
  <property name="kdenlive:original.out">00:00:00.983</property>
  <property name="kdenlive:original.length">60</property>
  <property name="kdenlive:original.eof">pause</property>
  <property name="kdenlive:original.resource">video/Knapsack/6.mp4</property>
  <property name="kdenlive:original.mlt_service">avformat-novalidate</property>
  <property name="kdenlive:original.meta.media.nb_streams">1</property>
  <property name="kdenlive:original.meta.media.0.stream.type">video</property>
  <property name="kdenlive:original.meta.media.0.stream.frame_rate">60</property>
  <property name="kdenlive:original.meta.media.0.stream.sample_aspect_ratio">0</property>
  <property name="kdenlive:original.meta.media.0.codec.width">1920</property>
  <property name="kdenlive:original.meta.media.0.codec.height">1080</property>
  <property name="kdenlive:original.meta.media.0.codec.rotate">0</property>
  <property name="kdenlive:original.meta.media.0.codec.pix_fmt">yuv420p</property>
  <property name="kdenlive:original.meta.media.0.codec.sample_aspect_ratio">0</property>
  <property name="kdenlive:original.meta.media.0.codec.colorspace">709</property>
  <property name="kdenlive:original.meta.media.0.codec.name">h264</property>
  <property name="kdenlive:original.meta.media.0.codec.long_name">H.264 / AVC / MPEG-4 AVC / MPEG-4 part 10</property>
  <property name="kdenlive:original.meta.media.0.codec.bit_rate">537512</property>
  <property name="kdenlive:original.meta.attr.0.stream.handler_name.markup">VideoHandler</property>
  <property name="kdenlive:original.meta.attr.0.stream.vendor_id.markup">[0][0][0][0]</property>
  <property name="kdenlive:original.meta.attr.0.stream.encoder.markup">Lavc60.3.100 libx264</property>
  <property name="kdenlive:original.meta.attr.major_brand.markup">isom</property>
  <property name="kdenlive:original.meta.attr.minor_version.markup">512</property>
  <property name="kdenlive:original.meta.attr.compatible_brands.markup">isomiso2avc1mp41</property>
  <property name="kdenlive:original.meta.attr.encoder.markup">Lavf60.3.100</property>
  <property name="kdenlive:original.meta.attr.comment.markup">Rendered with Manim Community v0.17.3</property>
  <property name="kdenlive:original.seekable">1</property>
  <property name="kdenlive:original.width">1920</property>
  <property name="kdenlive:original.height">1080</property>
  <property name="kdenlive:original.meta.media.sample_aspect_num">1</property>
  <property name="kdenlive:original.meta.media.sample_aspect_den">1</property>
  <property name="kdenlive:original.format">3</property>
  <property name="kdenlive:original.audio_index">-1</property>
  <property name="kdenlive:original.video_index">0</property>
  <property name="kdenlive:original.meta.media.frame_rate_num">60</property>
  <property name="kdenlive:original.meta.media.frame_rate_den">1</property>
  <property name="kdenlive:original.meta.media.colorspace">709</property>
  <property name="kdenlive:original.meta.media.color_trc">2</property>
  <property name="kdenlive:original.meta.media.has_b_frames">2</property>
  <property name="kdenlive:original.meta.media.width">1920</property>
  <property name="kdenlive:original.meta.media.height">1080</property>
  <property name="kdenlive:original.meta.media.color_range">mpeg</property>
  <property name="kdenlive:original.meta.media.top_field_first">0</property>
  <property name="kdenlive:original.meta.media.progressive">1</property>
  <property name="kdenlive:original.kdenlive:clip_type">2</property>
  <property name="kdenlive:original.kdenlive:folderid">203</property>
  <property name="kdenlive:original.kdenlive:id">223</property>
  <property name="kdenlive:original.mute_on_pause">0</property>
  <property name="kdenlive:original.kdenlive:file_size">68821</property>
  <property name="kdenlive:original.kdenlive:file_hash">05e0fef2d719109d6e4facea1804fc51</property>
  <property name="kdenlive:original.backup">1</property>
  <property name="meta.media.nb_streams">1</property>
  <property name="meta.media.0.stream.type">video</property>
  <property name="meta.media.0.stream.frame_rate">60</property>
  <property name="meta.media.0.stream.sample_aspect_ratio">0</property>
  <property name="meta.media.0.codec.width">640</property>
  <property name="meta.media.0.codec.height">360</property>
  <property name="meta.media.0.codec.rotate">0</property>
  <property name="meta.media.0.codec.pix_fmt">yuvj420p</property>
  <property name="meta.media.0.codec.sample_aspect_ratio">0</property>
  <property name="meta.media.0.codec.colorspace">601</property>
  <property name="meta.media.0.codec.name">mjpeg</property>
  <property name="meta.media.0.codec.long_name">MJPEG (Motion JPEG)</property>
  <property name="meta.media.0.codec.bit_rate">0</property>
  <property name="meta.attr.0.stream.HANDLER_NAME.markup">VideoHandler</property>
  <property name="meta.attr.0.stream.VENDOR_ID.markup">[0][0][0][0]</property>
  <property name="meta.attr.0.stream.ENCODER.markup">Lavc60.3.100 mjpeg</property>
  <property name="meta.attr.0.stream.DURATION.markup">00:00:01.000000000</property>
  <property name="meta.attr.COMMENT.markup">Rendered with Manim Community v0.17.3</property>
  <property name="meta.attr.MAJOR_BRAND.markup">isom</property>
  <property name="meta.attr.MINOR_VERSION.markup">512</property>
  <property name="meta.attr.COMPATIBLE_BRANDS.markup">isomiso2avc1mp41</property>
  <property name="meta.attr.ENCODER.markup">Lavf60.3.100</property>
  <property name="meta.media.sample_aspect_num">1</property>
  <property name="meta.media.sample_aspect_den">1</property>
  <property name="meta.media.frame_rate_num">60</property>
  <property name="meta.media.frame_rate_den">1</property>
  <property name="meta.media.colorspace">601</property>
  <property name="meta.media.color_trc">2</property>
  <property name="meta.media.has_b_frames">0</property>
  <property name="meta.media.width">640</property>
  <property name="meta.media.height">360</property>
  <property name="meta.media.color_range">full</property>
  <property name="xml">was here</property>
  <property name="meta.media.top_field_first">0</property>
  <property name="meta.media.progressive">1</property>
  <property name="set.test_audio">1</property>
  <property name="set.test_image">0</property>
 </chain>
 <chain id="chain681" out="00:00:01.483">
  <property name="length">90</property>
  <property name="eof">pause</property>
  <property name="resource">/home/xiaoxiae/.cache/kdenlive/proxy/a1225defad3ae4557900773d05ce9cf5.mkv</property>
  <property name="mlt_service">avformat-novalidate</property>
  <property name="seekable">1</property>
  <property name="format">3</property>
  <property name="audio_index">-1</property>
  <property name="video_index">0</property>
  <property name="kdenlive:clipname">7.mp4</property>
  <property name="kdenlive:clip_type">2</property>
  <property name="kdenlive:folderid">203</property>
  <property name="kdenlive:id">224</property>
  <property name="mute_on_pause">0</property>
  <property name="kdenlive:file_size">209602</property>
  <property name="kdenlive:file_hash">a1225defad3ae4557900773d05ce9cf5</property>
  <property name="kdenlive:proxy">/home/xiaoxiae/.cache/kdenlive/proxy/a1225defad3ae4557900773d05ce9cf5.mkv</property>
  <property name="kdenlive:originalurl">video/Knapsack/7.mp4</property>
  <property name="kdenlive:original.mlt_type">chain</property>
  <property name="kdenlive:original.in">0</property>
  <property name="kdenlive:original.out">00:00:01.483</property>
  <property name="kdenlive:original.length">90</property>
  <property name="kdenlive:original.eof">pause</property>
  <property name="kdenlive:original.resource">video/Knapsack/7.mp4</property>
  <property name="kdenlive:original.mlt_service">avformat-novalidate</property>
  <property name="kdenlive:original.meta.media.nb_streams">1</property>
  <property name="kdenlive:original.meta.media.0.stream.type">video</property>
  <property name="kdenlive:original.meta.media.0.stream.frame_rate">60</property>
  <property name="kdenlive:original.meta.media.0.stream.sample_aspect_ratio">0</property>
  <property name="kdenlive:original.meta.media.0.codec.width">1920</property>
  <property name="kdenlive:original.meta.media.0.codec.height">1080</property>
  <property name="kdenlive:original.meta.media.0.codec.rotate">0</property>
  <property name="kdenlive:original.meta.media.0.codec.pix_fmt">yuv420p</property>
  <property name="kdenlive:original.meta.media.0.codec.sample_aspect_ratio">0</property>
  <property name="kdenlive:original.meta.media.0.codec.colorspace">709</property>
  <property name="kdenlive:original.meta.media.0.codec.name">h264</property>
  <property name="kdenlive:original.meta.media.0.codec.long_name">H.264 / AVC / MPEG-4 AVC / MPEG-4 part 10</property>
  <property name="kdenlive:original.meta.media.0.codec.bit_rate">1107338</property>
  <property name="kdenlive:original.meta.attr.0.stream.handler_name.markup">VideoHandler</property>
  <property name="kdenlive:original.meta.attr.0.stream.vendor_id.markup">[0][0][0][0]</property>
  <property name="kdenlive:original.meta.attr.0.stream.encoder.markup">Lavc60.3.100 libx264</property>
  <property name="kdenlive:original.meta.attr.major_brand.markup">isom</property>
  <property name="kdenlive:original.meta.attr.minor_version.markup">512</property>
  <property name="kdenlive:original.meta.attr.compatible_brands.markup">isomiso2avc1mp41</property>
  <property name="kdenlive:original.meta.attr.encoder.markup">Lavf60.3.100</property>
  <property name="kdenlive:original.meta.attr.comment.markup">Rendered with Manim Community v0.17.3</property>
  <property name="kdenlive:original.seekable">1</property>
  <property name="kdenlive:original.width">1920</property>
  <property name="kdenlive:original.height">1080</property>
  <property name="kdenlive:original.meta.media.sample_aspect_num">1</property>
  <property name="kdenlive:original.meta.media.sample_aspect_den">1</property>
  <property name="kdenlive:original.format">3</property>
  <property name="kdenlive:original.audio_index">-1</property>
  <property name="kdenlive:original.video_index">0</property>
  <property name="kdenlive:original.meta.media.frame_rate_num">60</property>
  <property name="kdenlive:original.meta.media.frame_rate_den">1</property>
  <property name="kdenlive:original.meta.media.colorspace">709</property>
  <property name="kdenlive:original.meta.media.color_trc">2</property>
  <property name="kdenlive:original.meta.media.has_b_frames">2</property>
  <property name="kdenlive:original.meta.media.width">1920</property>
  <property name="kdenlive:original.meta.media.height">1080</property>
  <property name="kdenlive:original.meta.media.color_range">mpeg</property>
  <property name="kdenlive:original.meta.media.top_field_first">0</property>
  <property name="kdenlive:original.meta.media.progressive">1</property>
  <property name="kdenlive:original.kdenlive:clip_type">2</property>
  <property name="kdenlive:original.kdenlive:folderid">203</property>
  <property name="kdenlive:original.kdenlive:id">224</property>
  <property name="kdenlive:original.mute_on_pause">0</property>
  <property name="kdenlive:original.kdenlive:file_size">209602</property>
  <property name="kdenlive:original.kdenlive:file_hash">a1225defad3ae4557900773d05ce9cf5</property>
  <property name="kdenlive:original.backup">1</property>
  <property name="meta.media.nb_streams">1</property>
  <property name="meta.media.0.stream.type">video</property>
  <property name="meta.media.0.stream.frame_rate">60</property>
  <property name="meta.media.0.stream.sample_aspect_ratio">0</property>
  <property name="meta.media.0.codec.width">640</property>
  <property name="meta.media.0.codec.height">360</property>
  <property name="meta.media.0.codec.rotate">0</property>
  <property name="meta.media.0.codec.pix_fmt">yuvj420p</property>
  <property name="meta.media.0.codec.sample_aspect_ratio">0</property>
  <property name="meta.media.0.codec.colorspace">601</property>
  <property name="meta.media.0.codec.name">mjpeg</property>
  <property name="meta.media.0.codec.long_name">MJPEG (Motion JPEG)</property>
  <property name="meta.media.0.codec.bit_rate">0</property>
  <property name="meta.attr.0.stream.HANDLER_NAME.markup">VideoHandler</property>
  <property name="meta.attr.0.stream.VENDOR_ID.markup">[0][0][0][0]</property>
  <property name="meta.attr.0.stream.ENCODER.markup">Lavc60.3.100 mjpeg</property>
  <property name="meta.attr.0.stream.DURATION.markup">00:00:01.500000000</property>
  <property name="meta.attr.COMMENT.markup">Rendered with Manim Community v0.17.3</property>
  <property name="meta.attr.MAJOR_BRAND.markup">isom</property>
  <property name="meta.attr.MINOR_VERSION.markup">512</property>
  <property name="meta.attr.COMPATIBLE_BRANDS.markup">isomiso2avc1mp41</property>
  <property name="meta.attr.ENCODER.markup">Lavf60.3.100</property>
  <property name="meta.media.sample_aspect_num">1</property>
  <property name="meta.media.sample_aspect_den">1</property>
  <property name="meta.media.frame_rate_num">60</property>
  <property name="meta.media.frame_rate_den">1</property>
  <property name="meta.media.colorspace">601</property>
  <property name="meta.media.color_trc">2</property>
  <property name="meta.media.has_b_frames">0</property>
  <property name="meta.media.width">640</property>
  <property name="meta.media.height">360</property>
  <property name="meta.media.color_range">full</property>
  <property name="xml">was here</property>
  <property name="meta.media.top_field_first">0</property>
  <property name="meta.media.progressive">1</property>
  <property name="set.test_audio">1</property>
  <property name="set.test_image">0</property>
 </chain>
 <chain id="chain682" out="00:00:01.483">
  <property name="length">90</property>
  <property name="eof">pause</property>
  <property name="resource">/home/xiaoxiae/.cache/kdenlive/proxy/1e4b2606d5aecda9f333c0145970f835.mkv</property>
  <property name="mlt_service">avformat-novalidate</property>
  <property name="seekable">1</property>
  <property name="format">3</property>
  <property name="audio_index">-1</property>
  <property name="video_index">0</property>
  <property name="kdenlive:clipname">8.mp4</property>
  <property name="kdenlive:clip_type">2</property>
  <property name="kdenlive:folderid">203</property>
  <property name="kdenlive:id">225</property>
  <property name="mute_on_pause">0</property>
  <property name="kdenlive:file_size">198543</property>
  <property name="kdenlive:file_hash">1e4b2606d5aecda9f333c0145970f835</property>
  <property name="kdenlive:proxy">/home/xiaoxiae/.cache/kdenlive/proxy/1e4b2606d5aecda9f333c0145970f835.mkv</property>
  <property name="kdenlive:originalurl">video/Knapsack/8.mp4</property>
  <property name="kdenlive:original.mlt_type">chain</property>
  <property name="kdenlive:original.in">0</property>
  <property name="kdenlive:original.out">00:00:01.483</property>
  <property name="kdenlive:original.length">90</property>
  <property name="kdenlive:original.eof">pause</property>
  <property name="kdenlive:original.resource">video/Knapsack/8.mp4</property>
  <property name="kdenlive:original.mlt_service">avformat-novalidate</property>
  <property name="kdenlive:original.meta.media.nb_streams">1</property>
  <property name="kdenlive:original.meta.media.0.stream.type">video</property>
  <property name="kdenlive:original.meta.media.0.stream.frame_rate">60</property>
  <property name="kdenlive:original.meta.media.0.stream.sample_aspect_ratio">0</property>
  <property name="kdenlive:original.meta.media.0.codec.width">1920</property>
  <property name="kdenlive:original.meta.media.0.codec.height">1080</property>
  <property name="kdenlive:original.meta.media.0.codec.rotate">0</property>
  <property name="kdenlive:original.meta.media.0.codec.pix_fmt">yuv420p</property>
  <property name="kdenlive:original.meta.media.0.codec.sample_aspect_ratio">0</property>
  <property name="kdenlive:original.meta.media.0.codec.colorspace">709</property>
  <property name="kdenlive:original.meta.media.0.codec.name">h264</property>
  <property name="kdenlive:original.meta.media.0.codec.long_name">H.264 / AVC / MPEG-4 AVC / MPEG-4 part 10</property>
  <property name="kdenlive:original.meta.media.0.codec.bit_rate">1048314</property>
  <property name="kdenlive:original.meta.attr.0.stream.handler_name.markup">VideoHandler</property>
  <property name="kdenlive:original.meta.attr.0.stream.vendor_id.markup">[0][0][0][0]</property>
  <property name="kdenlive:original.meta.attr.0.stream.encoder.markup">Lavc60.3.100 libx264</property>
  <property name="kdenlive:original.meta.attr.major_brand.markup">isom</property>
  <property name="kdenlive:original.meta.attr.minor_version.markup">512</property>
  <property name="kdenlive:original.meta.attr.compatible_brands.markup">isomiso2avc1mp41</property>
  <property name="kdenlive:original.meta.attr.encoder.markup">Lavf60.3.100</property>
  <property name="kdenlive:original.meta.attr.comment.markup">Rendered with Manim Community v0.17.3</property>
  <property name="kdenlive:original.seekable">1</property>
  <property name="kdenlive:original.width">1920</property>
  <property name="kdenlive:original.height">1080</property>
  <property name="kdenlive:original.meta.media.sample_aspect_num">1</property>
  <property name="kdenlive:original.meta.media.sample_aspect_den">1</property>
  <property name="kdenlive:original.format">3</property>
  <property name="kdenlive:original.audio_index">-1</property>
  <property name="kdenlive:original.video_index">0</property>
  <property name="kdenlive:original.meta.media.frame_rate_num">60</property>
  <property name="kdenlive:original.meta.media.frame_rate_den">1</property>
  <property name="kdenlive:original.meta.media.colorspace">709</property>
  <property name="kdenlive:original.meta.media.color_trc">2</property>
  <property name="kdenlive:original.meta.media.has_b_frames">2</property>
  <property name="kdenlive:original.meta.media.width">1920</property>
  <property name="kdenlive:original.meta.media.height">1080</property>
  <property name="kdenlive:original.meta.media.color_range">mpeg</property>
  <property name="kdenlive:original.meta.media.top_field_first">0</property>
  <property name="kdenlive:original.meta.media.progressive">1</property>
  <property name="kdenlive:original.kdenlive:clip_type">2</property>
  <property name="kdenlive:original.kdenlive:folderid">203</property>
  <property name="kdenlive:original.kdenlive:id">225</property>
  <property name="kdenlive:original.mute_on_pause">0</property>
  <property name="kdenlive:original.kdenlive:file_size">198543</property>
  <property name="kdenlive:original.kdenlive:file_hash">1e4b2606d5aecda9f333c0145970f835</property>
  <property name="kdenlive:original.backup">1</property>
  <property name="meta.media.nb_streams">1</property>
  <property name="meta.media.0.stream.type">video</property>
  <property name="meta.media.0.stream.frame_rate">60</property>
  <property name="meta.media.0.stream.sample_aspect_ratio">0</property>
  <property name="meta.media.0.codec.width">640</property>
  <property name="meta.media.0.codec.height">360</property>
  <property name="meta.media.0.codec.rotate">0</property>
  <property name="meta.media.0.codec.pix_fmt">yuvj420p</property>
  <property name="meta.media.0.codec.sample_aspect_ratio">0</property>
  <property name="meta.media.0.codec.colorspace">601</property>
  <property name="meta.media.0.codec.name">mjpeg</property>
  <property name="meta.media.0.codec.long_name">MJPEG (Motion JPEG)</property>
  <property name="meta.media.0.codec.bit_rate">0</property>
  <property name="meta.attr.0.stream.HANDLER_NAME.markup">VideoHandler</property>
  <property name="meta.attr.0.stream.VENDOR_ID.markup">[0][0][0][0]</property>
  <property name="meta.attr.0.stream.ENCODER.markup">Lavc60.3.100 mjpeg</property>
  <property name="meta.attr.0.stream.DURATION.markup">00:00:01.500000000</property>
  <property name="meta.attr.COMMENT.markup">Rendered with Manim Community v0.17.3</property>
  <property name="meta.attr.MAJOR_BRAND.markup">isom</property>
  <property name="meta.attr.MINOR_VERSION.markup">512</property>
  <property name="meta.attr.COMPATIBLE_BRANDS.markup">isomiso2avc1mp41</property>
  <property name="meta.attr.ENCODER.markup">Lavf60.3.100</property>
  <property name="meta.media.sample_aspect_num">1</property>
  <property name="meta.media.sample_aspect_den">1</property>
  <property name="meta.media.frame_rate_num">60</property>
  <property name="meta.media.frame_rate_den">1</property>
  <property name="meta.media.colorspace">601</property>
  <property name="meta.media.color_trc">2</property>
  <property name="meta.media.has_b_frames">0</property>
  <property name="meta.media.width">640</property>
  <property name="meta.media.height">360</property>
  <property name="meta.media.color_range">full</property>
  <property name="xml">was here</property>
  <property name="meta.media.top_field_first">0</property>
  <property name="meta.media.progressive">1</property>
  <property name="set.test_audio">1</property>
  <property name="set.test_image">0</property>
 </chain>
 <chain id="chain683" out="00:00:01.983">
  <property name="length">120</property>
  <property name="eof">pause</property>
  <property name="resource">/home/xiaoxiae/.cache/kdenlive/proxy/a8e4a48f5730b3019a693e90499a1cf0.mkv</property>
  <property name="mlt_service">avformat-novalidate</property>
  <property name="seekable">1</property>
  <property name="format">3</property>
  <property name="audio_index">-1</property>
  <property name="video_index">0</property>
  <property name="kdenlive:clipname">9.mp4</property>
  <property name="kdenlive:clip_type">2</property>
  <property name="kdenlive:folderid">203</property>
  <property name="kdenlive:id">226</property>
  <property name="mute_on_pause">0</property>
  <property name="kdenlive:file_size">136997</property>
  <property name="kdenlive:file_hash">a8e4a48f5730b3019a693e90499a1cf0</property>
  <property name="kdenlive:proxy">/home/xiaoxiae/.cache/kdenlive/proxy/a8e4a48f5730b3019a693e90499a1cf0.mkv</property>
  <property name="kdenlive:originalurl">video/Knapsack/9.mp4</property>
  <property name="kdenlive:original.mlt_type">chain</property>
  <property name="kdenlive:original.in">0</property>
  <property name="kdenlive:original.out">00:00:01.983</property>
  <property name="kdenlive:original.length">120</property>
  <property name="kdenlive:original.eof">pause</property>
  <property name="kdenlive:original.resource">video/Knapsack/9.mp4</property>
  <property name="kdenlive:original.mlt_service">avformat-novalidate</property>
  <property name="kdenlive:original.meta.media.nb_streams">1</property>
  <property name="kdenlive:original.meta.media.0.stream.type">video</property>
  <property name="kdenlive:original.meta.media.0.stream.frame_rate">60</property>
  <property name="kdenlive:original.meta.media.0.stream.sample_aspect_ratio">0</property>
  <property name="kdenlive:original.meta.media.0.codec.width">1920</property>
  <property name="kdenlive:original.meta.media.0.codec.height">1080</property>
  <property name="kdenlive:original.meta.media.0.codec.rotate">0</property>
  <property name="kdenlive:original.meta.media.0.codec.pix_fmt">yuv420p</property>
  <property name="kdenlive:original.meta.media.0.codec.sample_aspect_ratio">0</property>
  <property name="kdenlive:original.meta.media.0.codec.colorspace">709</property>
  <property name="kdenlive:original.meta.media.0.codec.name">h264</property>
  <property name="kdenlive:original.meta.media.0.codec.long_name">H.264 / AVC / MPEG-4 AVC / MPEG-4 part 10</property>
  <property name="kdenlive:original.meta.media.0.codec.bit_rate">538740</property>
  <property name="kdenlive:original.meta.attr.0.stream.handler_name.markup">VideoHandler</property>
  <property name="kdenlive:original.meta.attr.0.stream.vendor_id.markup">[0][0][0][0]</property>
  <property name="kdenlive:original.meta.attr.0.stream.encoder.markup">Lavc60.3.100 libx264</property>
  <property name="kdenlive:original.meta.attr.major_brand.markup">isom</property>
  <property name="kdenlive:original.meta.attr.minor_version.markup">512</property>
  <property name="kdenlive:original.meta.attr.compatible_brands.markup">isomiso2avc1mp41</property>
  <property name="kdenlive:original.meta.attr.encoder.markup">Lavf60.3.100</property>
  <property name="kdenlive:original.meta.attr.comment.markup">Rendered with Manim Community v0.17.3</property>
  <property name="kdenlive:original.seekable">1</property>
  <property name="kdenlive:original.width">1920</property>
  <property name="kdenlive:original.height">1080</property>
  <property name="kdenlive:original.meta.media.sample_aspect_num">1</property>
  <property name="kdenlive:original.meta.media.sample_aspect_den">1</property>
  <property name="kdenlive:original.format">3</property>
  <property name="kdenlive:original.audio_index">-1</property>
  <property name="kdenlive:original.video_index">0</property>
  <property name="kdenlive:original.meta.media.frame_rate_num">60</property>
  <property name="kdenlive:original.meta.media.frame_rate_den">1</property>
  <property name="kdenlive:original.meta.media.colorspace">709</property>
  <property name="kdenlive:original.meta.media.color_trc">2</property>
  <property name="kdenlive:original.meta.media.has_b_frames">2</property>
  <property name="kdenlive:original.meta.media.width">1920</property>
  <property name="kdenlive:original.meta.media.height">1080</property>
  <property name="kdenlive:original.meta.media.color_range">mpeg</property>
  <property name="kdenlive:original.meta.media.top_field_first">0</property>
  <property name="kdenlive:original.meta.media.progressive">1</property>
  <property name="kdenlive:original.kdenlive:clip_type">2</property>
  <property name="kdenlive:original.kdenlive:folderid">203</property>
  <property name="kdenlive:original.kdenlive:id">226</property>
  <property name="kdenlive:original.mute_on_pause">0</property>
  <property name="kdenlive:original.kdenlive:file_size">136997</property>
  <property name="kdenlive:original.kdenlive:file_hash">a8e4a48f5730b3019a693e90499a1cf0</property>
  <property name="kdenlive:original.backup">1</property>
  <property name="meta.media.nb_streams">1</property>
  <property name="meta.media.0.stream.type">video</property>
  <property name="meta.media.0.stream.frame_rate">60</property>
  <property name="meta.media.0.stream.sample_aspect_ratio">0</property>
  <property name="meta.media.0.codec.width">640</property>
  <property name="meta.media.0.codec.height">360</property>
  <property name="meta.media.0.codec.rotate">0</property>
  <property name="meta.media.0.codec.pix_fmt">yuvj420p</property>
  <property name="meta.media.0.codec.sample_aspect_ratio">0</property>
  <property name="meta.media.0.codec.colorspace">601</property>
  <property name="meta.media.0.codec.name">mjpeg</property>
  <property name="meta.media.0.codec.long_name">MJPEG (Motion JPEG)</property>
  <property name="meta.media.0.codec.bit_rate">0</property>
  <property name="meta.attr.0.stream.HANDLER_NAME.markup">VideoHandler</property>
  <property name="meta.attr.0.stream.VENDOR_ID.markup">[0][0][0][0]</property>
  <property name="meta.attr.0.stream.ENCODER.markup">Lavc60.3.100 mjpeg</property>
  <property name="meta.attr.0.stream.DURATION.markup">00:00:02.000000000</property>
  <property name="meta.attr.COMMENT.markup">Rendered with Manim Community v0.17.3</property>
  <property name="meta.attr.MAJOR_BRAND.markup">isom</property>
  <property name="meta.attr.MINOR_VERSION.markup">512</property>
  <property name="meta.attr.COMPATIBLE_BRANDS.markup">isomiso2avc1mp41</property>
  <property name="meta.attr.ENCODER.markup">Lavf60.3.100</property>
  <property name="meta.media.sample_aspect_num">1</property>
  <property name="meta.media.sample_aspect_den">1</property>
  <property name="meta.media.frame_rate_num">60</property>
  <property name="meta.media.frame_rate_den">1</property>
  <property name="meta.media.colorspace">601</property>
  <property name="meta.media.color_trc">2</property>
  <property name="meta.media.has_b_frames">0</property>
  <property name="meta.media.width">640</property>
  <property name="meta.media.height">360</property>
  <property name="meta.media.color_range">full</property>
  <property name="xml">was here</property>
  <property name="meta.media.top_field_first">0</property>
  <property name="meta.media.progressive">1</property>
  <property name="set.test_audio">1</property>
  <property name="set.test_image">0</property>
 </chain>
 <chain id="chain684" out="00:00:00.983">
  <property name="length">60</property>
  <property name="eof">pause</property>
  <property name="resource">/home/xiaoxiae/.cache/kdenlive/proxy/835f62a40e887d4c1683623506a4b36e.mkv</property>
  <property name="mlt_service">avformat-novalidate</property>
  <property name="seekable">1</property>
  <property name="format">3</property>
  <property name="audio_index">-1</property>
  <property name="video_index">0</property>
  <property name="kdenlive:clipname">10.mp4</property>
  <property name="kdenlive:clip_type">2</property>
  <property name="kdenlive:folderid">203</property>
  <property name="kdenlive:id">205</property>
  <property name="mute_on_pause">0</property>
  <property name="kdenlive:file_size">274701</property>
  <property name="kdenlive:file_hash">835f62a40e887d4c1683623506a4b36e</property>
  <property name="kdenlive:proxy">/home/xiaoxiae/.cache/kdenlive/proxy/835f62a40e887d4c1683623506a4b36e.mkv</property>
  <property name="kdenlive:originalurl">video/Knapsack/10.mp4</property>
  <property name="kdenlive:original.mlt_type">chain</property>
  <property name="kdenlive:original.in">0</property>
  <property name="kdenlive:original.out">00:00:00.983</property>
  <property name="kdenlive:original.length">60</property>
  <property name="kdenlive:original.eof">pause</property>
  <property name="kdenlive:original.resource">video/Knapsack/10.mp4</property>
  <property name="kdenlive:original.mlt_service">avformat-novalidate</property>
  <property name="kdenlive:original.meta.media.nb_streams">1</property>
  <property name="kdenlive:original.meta.media.0.stream.type">video</property>
  <property name="kdenlive:original.meta.media.0.stream.frame_rate">60</property>
  <property name="kdenlive:original.meta.media.0.stream.sample_aspect_ratio">0</property>
  <property name="kdenlive:original.meta.media.0.codec.width">1920</property>
  <property name="kdenlive:original.meta.media.0.codec.height">1080</property>
  <property name="kdenlive:original.meta.media.0.codec.rotate">0</property>
  <property name="kdenlive:original.meta.media.0.codec.pix_fmt">yuv420p</property>
  <property name="kdenlive:original.meta.media.0.codec.sample_aspect_ratio">0</property>
  <property name="kdenlive:original.meta.media.0.codec.colorspace">709</property>
  <property name="kdenlive:original.meta.media.0.codec.name">h264</property>
  <property name="kdenlive:original.meta.media.0.codec.long_name">H.264 / AVC / MPEG-4 AVC / MPEG-4 part 10</property>
  <property name="kdenlive:original.meta.media.0.codec.bit_rate">2185704</property>
  <property name="kdenlive:original.meta.attr.0.stream.handler_name.markup">VideoHandler</property>
  <property name="kdenlive:original.meta.attr.0.stream.vendor_id.markup">[0][0][0][0]</property>
  <property name="kdenlive:original.meta.attr.0.stream.encoder.markup">Lavc60.3.100 libx264</property>
  <property name="kdenlive:original.meta.attr.major_brand.markup">isom</property>
  <property name="kdenlive:original.meta.attr.minor_version.markup">512</property>
  <property name="kdenlive:original.meta.attr.compatible_brands.markup">isomiso2avc1mp41</property>
  <property name="kdenlive:original.meta.attr.encoder.markup">Lavf60.3.100</property>
  <property name="kdenlive:original.meta.attr.comment.markup">Rendered with Manim Community v0.17.3</property>
  <property name="kdenlive:original.seekable">1</property>
  <property name="kdenlive:original.width">1920</property>
  <property name="kdenlive:original.height">1080</property>
  <property name="kdenlive:original.meta.media.sample_aspect_num">1</property>
  <property name="kdenlive:original.meta.media.sample_aspect_den">1</property>
  <property name="kdenlive:original.format">3</property>
  <property name="kdenlive:original.audio_index">-1</property>
  <property name="kdenlive:original.video_index">0</property>
  <property name="kdenlive:original.meta.media.frame_rate_num">60</property>
  <property name="kdenlive:original.meta.media.frame_rate_den">1</property>
  <property name="kdenlive:original.meta.media.colorspace">709</property>
  <property name="kdenlive:original.meta.media.color_trc">2</property>
  <property name="kdenlive:original.meta.media.has_b_frames">2</property>
  <property name="kdenlive:original.meta.media.width">1920</property>
  <property name="kdenlive:original.meta.media.height">1080</property>
  <property name="kdenlive:original.meta.media.color_range">mpeg</property>
  <property name="kdenlive:original.meta.media.top_field_first">0</property>
  <property name="kdenlive:original.meta.media.progressive">1</property>
  <property name="kdenlive:original.kdenlive:clip_type">2</property>
  <property name="kdenlive:original.kdenlive:folderid">203</property>
  <property name="kdenlive:original.kdenlive:id">205</property>
  <property name="kdenlive:original.mute_on_pause">0</property>
  <property name="kdenlive:original.kdenlive:file_size">274701</property>
  <property name="kdenlive:original.kdenlive:file_hash">835f62a40e887d4c1683623506a4b36e</property>
  <property name="kdenlive:original.backup">1</property>
  <property name="meta.media.nb_streams">1</property>
  <property name="meta.media.0.stream.type">video</property>
  <property name="meta.media.0.stream.frame_rate">60</property>
  <property name="meta.media.0.stream.sample_aspect_ratio">0</property>
  <property name="meta.media.0.codec.width">640</property>
  <property name="meta.media.0.codec.height">360</property>
  <property name="meta.media.0.codec.rotate">0</property>
  <property name="meta.media.0.codec.pix_fmt">yuvj420p</property>
  <property name="meta.media.0.codec.sample_aspect_ratio">0</property>
  <property name="meta.media.0.codec.colorspace">601</property>
  <property name="meta.media.0.codec.name">mjpeg</property>
  <property name="meta.media.0.codec.long_name">MJPEG (Motion JPEG)</property>
  <property name="meta.media.0.codec.bit_rate">0</property>
  <property name="meta.attr.0.stream.HANDLER_NAME.markup">VideoHandler</property>
  <property name="meta.attr.0.stream.VENDOR_ID.markup">[0][0][0][0]</property>
  <property name="meta.attr.0.stream.ENCODER.markup">Lavc60.3.100 mjpeg</property>
  <property name="meta.attr.0.stream.DURATION.markup">00:00:01.000000000</property>
  <property name="meta.attr.COMMENT.markup">Rendered with Manim Community v0.17.3</property>
  <property name="meta.attr.MAJOR_BRAND.markup">isom</property>
  <property name="meta.attr.MINOR_VERSION.markup">512</property>
  <property name="meta.attr.COMPATIBLE_BRANDS.markup">isomiso2avc1mp41</property>
  <property name="meta.attr.ENCODER.markup">Lavf60.3.100</property>
  <property name="meta.media.sample_aspect_num">1</property>
  <property name="meta.media.sample_aspect_den">1</property>
  <property name="meta.media.frame_rate_num">60</property>
  <property name="meta.media.frame_rate_den">1</property>
  <property name="meta.media.colorspace">601</property>
  <property name="meta.media.color_trc">2</property>
  <property name="meta.media.has_b_frames">0</property>
  <property name="meta.media.width">640</property>
  <property name="meta.media.height">360</property>
  <property name="meta.media.color_range">full</property>
  <property name="xml">was here</property>
  <property name="meta.media.top_field_first">0</property>
  <property name="meta.media.progressive">1</property>
  <property name="set.test_audio">1</property>
  <property name="set.test_image">0</property>
 </chain>
 <chain id="chain685" out="00:00:01.483">
  <property name="length">90</property>
  <property name="eof">pause</property>
  <property name="resource">/home/xiaoxiae/.cache/kdenlive/proxy/e35c4ec954092da159b090ddbcec0a7b.mkv</property>
  <property name="mlt_service">avformat-novalidate</property>
  <property name="seekable">1</property>
  <property name="format">3</property>
  <property name="audio_index">-1</property>
  <property name="video_index">0</property>
  <property name="kdenlive:clipname">11.mp4</property>
  <property name="kdenlive:clip_type">2</property>
  <property name="kdenlive:folderid">203</property>
  <property name="kdenlive:id">206</property>
  <property name="mute_on_pause">0</property>
  <property name="kdenlive:file_size">143095</property>
  <property name="kdenlive:file_hash">e35c4ec954092da159b090ddbcec0a7b</property>
  <property name="kdenlive:proxy">/home/xiaoxiae/.cache/kdenlive/proxy/e35c4ec954092da159b090ddbcec0a7b.mkv</property>
  <property name="kdenlive:originalurl">video/Knapsack/11.mp4</property>
  <property name="kdenlive:original.mlt_type">chain</property>
  <property name="kdenlive:original.in">0</property>
  <property name="kdenlive:original.out">00:00:01.483</property>
  <property name="kdenlive:original.length">90</property>
  <property name="kdenlive:original.eof">pause</property>
  <property name="kdenlive:original.resource">video/Knapsack/11.mp4</property>
  <property name="kdenlive:original.mlt_service">avformat-novalidate</property>
  <property name="kdenlive:original.meta.media.nb_streams">1</property>
  <property name="kdenlive:original.meta.media.0.stream.type">video</property>
  <property name="kdenlive:original.meta.media.0.stream.frame_rate">60</property>
  <property name="kdenlive:original.meta.media.0.stream.sample_aspect_ratio">0</property>
  <property name="kdenlive:original.meta.media.0.codec.width">1920</property>
  <property name="kdenlive:original.meta.media.0.codec.height">1080</property>
  <property name="kdenlive:original.meta.media.0.codec.rotate">0</property>
  <property name="kdenlive:original.meta.media.0.codec.pix_fmt">yuv420p</property>
  <property name="kdenlive:original.meta.media.0.codec.sample_aspect_ratio">0</property>
  <property name="kdenlive:original.meta.media.0.codec.colorspace">709</property>
  <property name="kdenlive:original.meta.media.0.codec.name">h264</property>
  <property name="kdenlive:original.meta.media.0.codec.long_name">H.264 / AVC / MPEG-4 AVC / MPEG-4 part 10</property>
  <property name="kdenlive:original.meta.media.0.codec.bit_rate">753530</property>
  <property name="kdenlive:original.meta.attr.0.stream.handler_name.markup">VideoHandler</property>
  <property name="kdenlive:original.meta.attr.0.stream.vendor_id.markup">[0][0][0][0]</property>
  <property name="kdenlive:original.meta.attr.0.stream.encoder.markup">Lavc60.3.100 libx264</property>
  <property name="kdenlive:original.meta.attr.major_brand.markup">isom</property>
  <property name="kdenlive:original.meta.attr.minor_version.markup">512</property>
  <property name="kdenlive:original.meta.attr.compatible_brands.markup">isomiso2avc1mp41</property>
  <property name="kdenlive:original.meta.attr.encoder.markup">Lavf60.3.100</property>
  <property name="kdenlive:original.meta.attr.comment.markup">Rendered with Manim Community v0.17.3</property>
  <property name="kdenlive:original.seekable">1</property>
  <property name="kdenlive:original.width">1920</property>
  <property name="kdenlive:original.height">1080</property>
  <property name="kdenlive:original.meta.media.sample_aspect_num">1</property>
  <property name="kdenlive:original.meta.media.sample_aspect_den">1</property>
  <property name="kdenlive:original.format">3</property>
  <property name="kdenlive:original.audio_index">-1</property>
  <property name="kdenlive:original.video_index">0</property>
  <property name="kdenlive:original.meta.media.frame_rate_num">60</property>
  <property name="kdenlive:original.meta.media.frame_rate_den">1</property>
  <property name="kdenlive:original.meta.media.colorspace">709</property>
  <property name="kdenlive:original.meta.media.color_trc">2</property>
  <property name="kdenlive:original.meta.media.has_b_frames">2</property>
  <property name="kdenlive:original.meta.media.width">1920</property>
  <property name="kdenlive:original.meta.media.height">1080</property>
  <property name="kdenlive:original.meta.media.color_range">mpeg</property>
  <property name="kdenlive:original.meta.media.top_field_first">0</property>
  <property name="kdenlive:original.meta.media.progressive">1</property>
  <property name="kdenlive:original.kdenlive:clip_type">2</property>
  <property name="kdenlive:original.kdenlive:folderid">203</property>
  <property name="kdenlive:original.kdenlive:id">206</property>
  <property name="kdenlive:original.mute_on_pause">0</property>
  <property name="kdenlive:original.kdenlive:file_size">143095</property>
  <property name="kdenlive:original.kdenlive:file_hash">e35c4ec954092da159b090ddbcec0a7b</property>
  <property name="kdenlive:original.backup">1</property>
  <property name="meta.media.nb_streams">1</property>
  <property name="meta.media.0.stream.type">video</property>
  <property name="meta.media.0.stream.frame_rate">60</property>
  <property name="meta.media.0.stream.sample_aspect_ratio">0</property>
  <property name="meta.media.0.codec.width">640</property>
  <property name="meta.media.0.codec.height">360</property>
  <property name="meta.media.0.codec.rotate">0</property>
  <property name="meta.media.0.codec.pix_fmt">yuvj420p</property>
  <property name="meta.media.0.codec.sample_aspect_ratio">0</property>
  <property name="meta.media.0.codec.colorspace">601</property>
  <property name="meta.media.0.codec.name">mjpeg</property>
  <property name="meta.media.0.codec.long_name">MJPEG (Motion JPEG)</property>
  <property name="meta.media.0.codec.bit_rate">0</property>
  <property name="meta.attr.0.stream.HANDLER_NAME.markup">VideoHandler</property>
  <property name="meta.attr.0.stream.VENDOR_ID.markup">[0][0][0][0]</property>
  <property name="meta.attr.0.stream.ENCODER.markup">Lavc60.3.100 mjpeg</property>
  <property name="meta.attr.0.stream.DURATION.markup">00:00:01.500000000</property>
  <property name="meta.attr.COMMENT.markup">Rendered with Manim Community v0.17.3</property>
  <property name="meta.attr.MAJOR_BRAND.markup">isom</property>
  <property name="meta.attr.MINOR_VERSION.markup">512</property>
  <property name="meta.attr.COMPATIBLE_BRANDS.markup">isomiso2avc1mp41</property>
  <property name="meta.attr.ENCODER.markup">Lavf60.3.100</property>
  <property name="meta.media.sample_aspect_num">1</property>
  <property name="meta.media.sample_aspect_den">1</property>
  <property name="meta.media.frame_rate_num">60</property>
  <property name="meta.media.frame_rate_den">1</property>
  <property name="meta.media.colorspace">601</property>
  <property name="meta.media.color_trc">2</property>
  <property name="meta.media.has_b_frames">0</property>
  <property name="meta.media.width">640</property>
  <property name="meta.media.height">360</property>
  <property name="meta.media.color_range">full</property>
  <property name="xml">was here</property>
  <property name="meta.media.top_field_first">0</property>
  <property name="meta.media.progressive">1</property>
  <property name="set.test_audio">1</property>
  <property name="set.test_image">0</property>
 </chain>
 <chain id="chain686" out="00:00:00.683">
  <property name="length">42</property>
  <property name="eof">pause</property>
  <property name="resource">/home/xiaoxiae/.cache/kdenlive/proxy/c19ff504d390a270ceb00fedfa361944.mkv</property>
  <property name="mlt_service">avformat-novalidate</property>
  <property name="seekable">1</property>
  <property name="format">3</property>
  <property name="audio_index">-1</property>
  <property name="video_index">0</property>
  <property name="kdenlive:clipname">12.mp4</property>
  <property name="kdenlive:clip_type">2</property>
  <property name="kdenlive:folderid">203</property>
  <property name="kdenlive:id">207</property>
  <property name="mute_on_pause">0</property>
  <property name="kdenlive:file_size">26886</property>
  <property name="kdenlive:file_hash">c19ff504d390a270ceb00fedfa361944</property>
  <property name="kdenlive:proxy">/home/xiaoxiae/.cache/kdenlive/proxy/c19ff504d390a270ceb00fedfa361944.mkv</property>
  <property name="kdenlive:originalurl">video/Knapsack/12.mp4</property>
  <property name="kdenlive:original.mlt_type">chain</property>
  <property name="kdenlive:original.in">0</property>
  <property name="kdenlive:original.out">00:00:00.683</property>
  <property name="kdenlive:original.length">42</property>
  <property name="kdenlive:original.eof">pause</property>
  <property name="kdenlive:original.resource">video/Knapsack/12.mp4</property>
  <property name="kdenlive:original.mlt_service">avformat-novalidate</property>
  <property name="kdenlive:original.meta.media.nb_streams">1</property>
  <property name="kdenlive:original.meta.media.0.stream.type">video</property>
  <property name="kdenlive:original.meta.media.0.stream.frame_rate">60</property>
  <property name="kdenlive:original.meta.media.0.stream.sample_aspect_ratio">0</property>
  <property name="kdenlive:original.meta.media.0.codec.width">1920</property>
  <property name="kdenlive:original.meta.media.0.codec.height">1080</property>
  <property name="kdenlive:original.meta.media.0.codec.rotate">0</property>
  <property name="kdenlive:original.meta.media.0.codec.pix_fmt">yuv420p</property>
  <property name="kdenlive:original.meta.media.0.codec.sample_aspect_ratio">0</property>
  <property name="kdenlive:original.meta.media.0.codec.colorspace">709</property>
  <property name="kdenlive:original.meta.media.0.codec.name">h264</property>
  <property name="kdenlive:original.meta.media.0.codec.long_name">H.264 / AVC / MPEG-4 AVC / MPEG-4 part 10</property>
  <property name="kdenlive:original.meta.media.0.codec.bit_rate">290994</property>
  <property name="kdenlive:original.meta.attr.0.stream.handler_name.markup">VideoHandler</property>
  <property name="kdenlive:original.meta.attr.0.stream.vendor_id.markup">[0][0][0][0]</property>
  <property name="kdenlive:original.meta.attr.0.stream.encoder.markup">Lavc60.3.100 libx264</property>
  <property name="kdenlive:original.meta.attr.major_brand.markup">isom</property>
  <property name="kdenlive:original.meta.attr.minor_version.markup">512</property>
  <property name="kdenlive:original.meta.attr.compatible_brands.markup">isomiso2avc1mp41</property>
  <property name="kdenlive:original.meta.attr.encoder.markup">Lavf60.3.100</property>
  <property name="kdenlive:original.meta.attr.comment.markup">Rendered with Manim Community v0.17.3</property>
  <property name="kdenlive:original.seekable">1</property>
  <property name="kdenlive:original.width">1920</property>
  <property name="kdenlive:original.height">1080</property>
  <property name="kdenlive:original.meta.media.sample_aspect_num">1</property>
  <property name="kdenlive:original.meta.media.sample_aspect_den">1</property>
  <property name="kdenlive:original.format">3</property>
  <property name="kdenlive:original.audio_index">-1</property>
  <property name="kdenlive:original.video_index">0</property>
  <property name="kdenlive:original.meta.media.frame_rate_num">60</property>
  <property name="kdenlive:original.meta.media.frame_rate_den">1</property>
  <property name="kdenlive:original.meta.media.colorspace">709</property>
  <property name="kdenlive:original.meta.media.color_trc">2</property>
  <property name="kdenlive:original.meta.media.has_b_frames">2</property>
  <property name="kdenlive:original.meta.media.width">1920</property>
  <property name="kdenlive:original.meta.media.height">1080</property>
  <property name="kdenlive:original.meta.media.color_range">mpeg</property>
  <property name="kdenlive:original.meta.media.top_field_first">0</property>
  <property name="kdenlive:original.meta.media.progressive">1</property>
  <property name="kdenlive:original.kdenlive:clip_type">2</property>
  <property name="kdenlive:original.kdenlive:folderid">203</property>
  <property name="kdenlive:original.kdenlive:id">207</property>
  <property name="kdenlive:original.mute_on_pause">0</property>
  <property name="kdenlive:original.kdenlive:file_size">26886</property>
  <property name="kdenlive:original.kdenlive:file_hash">c19ff504d390a270ceb00fedfa361944</property>
  <property name="kdenlive:original.backup">1</property>
  <property name="meta.media.nb_streams">1</property>
  <property name="meta.media.0.stream.type">video</property>
  <property name="meta.media.0.stream.frame_rate">60</property>
  <property name="meta.media.0.stream.sample_aspect_ratio">0</property>
  <property name="meta.media.0.codec.width">640</property>
  <property name="meta.media.0.codec.height">360</property>
  <property name="meta.media.0.codec.rotate">0</property>
  <property name="meta.media.0.codec.pix_fmt">yuvj420p</property>
  <property name="meta.media.0.codec.sample_aspect_ratio">0</property>
  <property name="meta.media.0.codec.colorspace">601</property>
  <property name="meta.media.0.codec.name">mjpeg</property>
  <property name="meta.media.0.codec.long_name">MJPEG (Motion JPEG)</property>
  <property name="meta.media.0.codec.bit_rate">0</property>
  <property name="meta.attr.0.stream.HANDLER_NAME.markup">VideoHandler</property>
  <property name="meta.attr.0.stream.VENDOR_ID.markup">[0][0][0][0]</property>
  <property name="meta.attr.0.stream.ENCODER.markup">Lavc60.3.100 mjpeg</property>
  <property name="meta.attr.0.stream.DURATION.markup">00:00:00.700000000</property>
  <property name="meta.attr.COMMENT.markup">Rendered with Manim Community v0.17.3</property>
  <property name="meta.attr.MAJOR_BRAND.markup">isom</property>
  <property name="meta.attr.MINOR_VERSION.markup">512</property>
  <property name="meta.attr.COMPATIBLE_BRANDS.markup">isomiso2avc1mp41</property>
  <property name="meta.attr.ENCODER.markup">Lavf60.3.100</property>
  <property name="meta.media.sample_aspect_num">1</property>
  <property name="meta.media.sample_aspect_den">1</property>
  <property name="meta.media.frame_rate_num">60</property>
  <property name="meta.media.frame_rate_den">1</property>
  <property name="meta.media.colorspace">601</property>
  <property name="meta.media.color_trc">2</property>
  <property name="meta.media.has_b_frames">0</property>
  <property name="meta.media.width">640</property>
  <property name="meta.media.height">360</property>
  <property name="meta.media.color_range">full</property>
  <property name="xml">was here</property>
  <property name="meta.media.top_field_first">0</property>
  <property name="meta.media.progressive">1</property>
  <property name="set.test_audio">1</property>
  <property name="set.test_image">0</property>
 </chain>
 <chain id="chain687" out="00:00:01.483">
  <property name="length">90</property>
  <property name="eof">pause</property>
  <property name="resource">/home/xiaoxiae/.cache/kdenlive/proxy/3c6887a33ac2afb21883d218dd789bb3.mkv</property>
  <property name="mlt_service">avformat-novalidate</property>
  <property name="seekable">1</property>
  <property name="format">3</property>
  <property name="audio_index">-1</property>
  <property name="video_index">0</property>
  <property name="kdenlive:clipname">13.mp4</property>
  <property name="kdenlive:clip_type">2</property>
  <property name="kdenlive:folderid">203</property>
  <property name="kdenlive:id">208</property>
  <property name="mute_on_pause">0</property>
  <property name="kdenlive:file_size">56604</property>
  <property name="kdenlive:file_hash">3c6887a33ac2afb21883d218dd789bb3</property>
  <property name="kdenlive:proxy">/home/xiaoxiae/.cache/kdenlive/proxy/3c6887a33ac2afb21883d218dd789bb3.mkv</property>
  <property name="kdenlive:originalurl">video/Knapsack/13.mp4</property>
  <property name="kdenlive:original.mlt_type">chain</property>
  <property name="kdenlive:original.in">0</property>
  <property name="kdenlive:original.out">00:00:01.483</property>
  <property name="kdenlive:original.length">90</property>
  <property name="kdenlive:original.eof">pause</property>
  <property name="kdenlive:original.resource">video/Knapsack/13.mp4</property>
  <property name="kdenlive:original.mlt_service">avformat-novalidate</property>
  <property name="kdenlive:original.meta.media.nb_streams">1</property>
  <property name="kdenlive:original.meta.media.0.stream.type">video</property>
  <property name="kdenlive:original.meta.media.0.stream.frame_rate">60</property>
  <property name="kdenlive:original.meta.media.0.stream.sample_aspect_ratio">0</property>
  <property name="kdenlive:original.meta.media.0.codec.width">1920</property>
  <property name="kdenlive:original.meta.media.0.codec.height">1080</property>
  <property name="kdenlive:original.meta.media.0.codec.rotate">0</property>
  <property name="kdenlive:original.meta.media.0.codec.pix_fmt">yuv420p</property>
  <property name="kdenlive:original.meta.media.0.codec.sample_aspect_ratio">0</property>
  <property name="kdenlive:original.meta.media.0.codec.colorspace">709</property>
  <property name="kdenlive:original.meta.media.0.codec.name">h264</property>
  <property name="kdenlive:original.meta.media.0.codec.long_name">H.264 / AVC / MPEG-4 AVC / MPEG-4 part 10</property>
  <property name="kdenlive:original.meta.media.0.codec.bit_rate">291221</property>
  <property name="kdenlive:original.meta.attr.0.stream.handler_name.markup">VideoHandler</property>
  <property name="kdenlive:original.meta.attr.0.stream.vendor_id.markup">[0][0][0][0]</property>
  <property name="kdenlive:original.meta.attr.0.stream.encoder.markup">Lavc60.3.100 libx264</property>
  <property name="kdenlive:original.meta.attr.major_brand.markup">isom</property>
  <property name="kdenlive:original.meta.attr.minor_version.markup">512</property>
  <property name="kdenlive:original.meta.attr.compatible_brands.markup">isomiso2avc1mp41</property>
  <property name="kdenlive:original.meta.attr.encoder.markup">Lavf60.3.100</property>
  <property name="kdenlive:original.meta.attr.comment.markup">Rendered with Manim Community v0.17.3</property>
  <property name="kdenlive:original.seekable">1</property>
  <property name="kdenlive:original.width">1920</property>
  <property name="kdenlive:original.height">1080</property>
  <property name="kdenlive:original.meta.media.sample_aspect_num">1</property>
  <property name="kdenlive:original.meta.media.sample_aspect_den">1</property>
  <property name="kdenlive:original.format">3</property>
  <property name="kdenlive:original.audio_index">-1</property>
  <property name="kdenlive:original.video_index">0</property>
  <property name="kdenlive:original.meta.media.frame_rate_num">60</property>
  <property name="kdenlive:original.meta.media.frame_rate_den">1</property>
  <property name="kdenlive:original.meta.media.colorspace">709</property>
  <property name="kdenlive:original.meta.media.color_trc">2</property>
  <property name="kdenlive:original.meta.media.has_b_frames">2</property>
  <property name="kdenlive:original.meta.media.width">1920</property>
  <property name="kdenlive:original.meta.media.height">1080</property>
  <property name="kdenlive:original.meta.media.color_range">mpeg</property>
  <property name="kdenlive:original.meta.media.top_field_first">0</property>
  <property name="kdenlive:original.meta.media.progressive">1</property>
  <property name="kdenlive:original.kdenlive:clip_type">2</property>
  <property name="kdenlive:original.kdenlive:folderid">203</property>
  <property name="kdenlive:original.kdenlive:id">208</property>
  <property name="kdenlive:original.mute_on_pause">0</property>
  <property name="kdenlive:original.kdenlive:file_size">56604</property>
  <property name="kdenlive:original.kdenlive:file_hash">3c6887a33ac2afb21883d218dd789bb3</property>
  <property name="kdenlive:original.backup">1</property>
  <property name="meta.media.nb_streams">1</property>
  <property name="meta.media.0.stream.type">video</property>
  <property name="meta.media.0.stream.frame_rate">60</property>
  <property name="meta.media.0.stream.sample_aspect_ratio">0</property>
  <property name="meta.media.0.codec.width">640</property>
  <property name="meta.media.0.codec.height">360</property>
  <property name="meta.media.0.codec.rotate">0</property>
  <property name="meta.media.0.codec.pix_fmt">yuvj420p</property>
  <property name="meta.media.0.codec.sample_aspect_ratio">0</property>
  <property name="meta.media.0.codec.colorspace">601</property>
  <property name="meta.media.0.codec.name">mjpeg</property>
  <property name="meta.media.0.codec.long_name">MJPEG (Motion JPEG)</property>
  <property name="meta.media.0.codec.bit_rate">0</property>
  <property name="meta.attr.0.stream.HANDLER_NAME.markup">VideoHandler</property>
  <property name="meta.attr.0.stream.VENDOR_ID.markup">[0][0][0][0]</property>
  <property name="meta.attr.0.stream.ENCODER.markup">Lavc60.3.100 mjpeg</property>
  <property name="meta.attr.0.stream.DURATION.markup">00:00:01.500000000</property>
  <property name="meta.attr.COMMENT.markup">Rendered with Manim Community v0.17.3</property>
  <property name="meta.attr.MAJOR_BRAND.markup">isom</property>
  <property name="meta.attr.MINOR_VERSION.markup">512</property>
  <property name="meta.attr.COMPATIBLE_BRANDS.markup">isomiso2avc1mp41</property>
  <property name="meta.attr.ENCODER.markup">Lavf60.3.100</property>
  <property name="meta.media.sample_aspect_num">1</property>
  <property name="meta.media.sample_aspect_den">1</property>
  <property name="meta.media.frame_rate_num">60</property>
  <property name="meta.media.frame_rate_den">1</property>
  <property name="meta.media.colorspace">601</property>
  <property name="meta.media.color_trc">2</property>
  <property name="meta.media.has_b_frames">0</property>
  <property name="meta.media.width">640</property>
  <property name="meta.media.height">360</property>
  <property name="meta.media.color_range">full</property>
  <property name="xml">was here</property>
  <property name="meta.media.top_field_first">0</property>
  <property name="meta.media.progressive">1</property>
  <property name="set.test_audio">1</property>
  <property name="set.test_image">0</property>
 </chain>
 <chain id="chain688" out="00:00:01.483">
  <property name="length">90</property>
  <property name="eof">pause</property>
  <property name="resource">/home/xiaoxiae/.cache/kdenlive/proxy/ffefdfb1cde19adcb954e47e247b75fe.mkv</property>
  <property name="mlt_service">avformat-novalidate</property>
  <property name="seekable">1</property>
  <property name="format">3</property>
  <property name="audio_index">-1</property>
  <property name="video_index">0</property>
  <property name="kdenlive:clipname">14.mp4</property>
  <property name="kdenlive:clip_type">2</property>
  <property name="kdenlive:folderid">203</property>
  <property name="kdenlive:id">209</property>
  <property name="mute_on_pause">0</property>
  <property name="kdenlive:file_size">112373</property>
  <property name="kdenlive:file_hash">ffefdfb1cde19adcb954e47e247b75fe</property>
  <property name="kdenlive:proxy">/home/xiaoxiae/.cache/kdenlive/proxy/ffefdfb1cde19adcb954e47e247b75fe.mkv</property>
  <property name="kdenlive:originalurl">video/Knapsack/14.mp4</property>
  <property name="kdenlive:original.mlt_type">chain</property>
  <property name="kdenlive:original.in">0</property>
  <property name="kdenlive:original.out">00:00:01.483</property>
  <property name="kdenlive:original.length">90</property>
  <property name="kdenlive:original.eof">pause</property>
  <property name="kdenlive:original.resource">video/Knapsack/14.mp4</property>
  <property name="kdenlive:original.mlt_service">avformat-novalidate</property>
  <property name="kdenlive:original.meta.media.nb_streams">1</property>
  <property name="kdenlive:original.meta.media.0.stream.type">video</property>
  <property name="kdenlive:original.meta.media.0.stream.frame_rate">60</property>
  <property name="kdenlive:original.meta.media.0.stream.sample_aspect_ratio">0</property>
  <property name="kdenlive:original.meta.media.0.codec.width">1920</property>
  <property name="kdenlive:original.meta.media.0.codec.height">1080</property>
  <property name="kdenlive:original.meta.media.0.codec.rotate">0</property>
  <property name="kdenlive:original.meta.media.0.codec.pix_fmt">yuv420p</property>
  <property name="kdenlive:original.meta.media.0.codec.sample_aspect_ratio">0</property>
  <property name="kdenlive:original.meta.media.0.codec.colorspace">709</property>
  <property name="kdenlive:original.meta.media.0.codec.name">h264</property>
  <property name="kdenlive:original.meta.media.0.codec.long_name">H.264 / AVC / MPEG-4 AVC / MPEG-4 part 10</property>
  <property name="kdenlive:original.meta.media.0.codec.bit_rate">588869</property>
  <property name="kdenlive:original.meta.attr.0.stream.handler_name.markup">VideoHandler</property>
  <property name="kdenlive:original.meta.attr.0.stream.vendor_id.markup">[0][0][0][0]</property>
  <property name="kdenlive:original.meta.attr.0.stream.encoder.markup">Lavc60.3.100 libx264</property>
  <property name="kdenlive:original.meta.attr.major_brand.markup">isom</property>
  <property name="kdenlive:original.meta.attr.minor_version.markup">512</property>
  <property name="kdenlive:original.meta.attr.compatible_brands.markup">isomiso2avc1mp41</property>
  <property name="kdenlive:original.meta.attr.encoder.markup">Lavf60.3.100</property>
  <property name="kdenlive:original.meta.attr.comment.markup">Rendered with Manim Community v0.17.3</property>
  <property name="kdenlive:original.seekable">1</property>
  <property name="kdenlive:original.width">1920</property>
  <property name="kdenlive:original.height">1080</property>
  <property name="kdenlive:original.meta.media.sample_aspect_num">1</property>
  <property name="kdenlive:original.meta.media.sample_aspect_den">1</property>
  <property name="kdenlive:original.format">3</property>
  <property name="kdenlive:original.audio_index">-1</property>
  <property name="kdenlive:original.video_index">0</property>
  <property name="kdenlive:original.meta.media.frame_rate_num">60</property>
  <property name="kdenlive:original.meta.media.frame_rate_den">1</property>
  <property name="kdenlive:original.meta.media.colorspace">709</property>
  <property name="kdenlive:original.meta.media.color_trc">2</property>
  <property name="kdenlive:original.meta.media.has_b_frames">2</property>
  <property name="kdenlive:original.meta.media.width">1920</property>
  <property name="kdenlive:original.meta.media.height">1080</property>
  <property name="kdenlive:original.meta.media.color_range">mpeg</property>
  <property name="kdenlive:original.meta.media.top_field_first">0</property>
  <property name="kdenlive:original.meta.media.progressive">1</property>
  <property name="kdenlive:original.kdenlive:clip_type">2</property>
  <property name="kdenlive:original.kdenlive:folderid">203</property>
  <property name="kdenlive:original.kdenlive:id">209</property>
  <property name="kdenlive:original.mute_on_pause">0</property>
  <property name="kdenlive:original.kdenlive:file_size">112373</property>
  <property name="kdenlive:original.kdenlive:file_hash">ffefdfb1cde19adcb954e47e247b75fe</property>
  <property name="kdenlive:original.backup">1</property>
  <property name="meta.media.nb_streams">1</property>
  <property name="meta.media.0.stream.type">video</property>
  <property name="meta.media.0.stream.frame_rate">60</property>
  <property name="meta.media.0.stream.sample_aspect_ratio">0</property>
  <property name="meta.media.0.codec.width">640</property>
  <property name="meta.media.0.codec.height">360</property>
  <property name="meta.media.0.codec.rotate">0</property>
  <property name="meta.media.0.codec.pix_fmt">yuvj420p</property>
  <property name="meta.media.0.codec.sample_aspect_ratio">0</property>
  <property name="meta.media.0.codec.colorspace">601</property>
  <property name="meta.media.0.codec.name">mjpeg</property>
  <property name="meta.media.0.codec.long_name">MJPEG (Motion JPEG)</property>
  <property name="meta.media.0.codec.bit_rate">0</property>
  <property name="meta.attr.0.stream.HANDLER_NAME.markup">VideoHandler</property>
  <property name="meta.attr.0.stream.VENDOR_ID.markup">[0][0][0][0]</property>
  <property name="meta.attr.0.stream.ENCODER.markup">Lavc60.3.100 mjpeg</property>
  <property name="meta.attr.0.stream.DURATION.markup">00:00:01.500000000</property>
  <property name="meta.attr.COMMENT.markup">Rendered with Manim Community v0.17.3</property>
  <property name="meta.attr.MAJOR_BRAND.markup">isom</property>
  <property name="meta.attr.MINOR_VERSION.markup">512</property>
  <property name="meta.attr.COMPATIBLE_BRANDS.markup">isomiso2avc1mp41</property>
  <property name="meta.attr.ENCODER.markup">Lavf60.3.100</property>
  <property name="meta.media.sample_aspect_num">1</property>
  <property name="meta.media.sample_aspect_den">1</property>
  <property name="meta.media.frame_rate_num">60</property>
  <property name="meta.media.frame_rate_den">1</property>
  <property name="meta.media.colorspace">601</property>
  <property name="meta.media.color_trc">2</property>
  <property name="meta.media.has_b_frames">0</property>
  <property name="meta.media.width">640</property>
  <property name="meta.media.height">360</property>
  <property name="meta.media.color_range">full</property>
  <property name="xml">was here</property>
  <property name="meta.media.top_field_first">0</property>
  <property name="meta.media.progressive">1</property>
  <property name="set.test_audio">1</property>
  <property name="set.test_image">0</property>
 </chain>
 <chain id="chain689" out="00:00:00.983">
  <property name="length">60</property>
  <property name="eof">pause</property>
  <property name="resource">/home/xiaoxiae/.cache/kdenlive/proxy/6d152e8b23a2c7bad683e8c1a382f2f2.mkv</property>
  <property name="mlt_service">avformat-novalidate</property>
  <property name="seekable">1</property>
  <property name="format">3</property>
  <property name="audio_index">-1</property>
  <property name="video_index">0</property>
  <property name="kdenlive:clipname">15.mp4</property>
  <property name="kdenlive:clip_type">2</property>
  <property name="kdenlive:folderid">203</property>
  <property name="kdenlive:id">210</property>
  <property name="mute_on_pause">0</property>
  <property name="kdenlive:file_size">63020</property>
  <property name="kdenlive:file_hash">6d152e8b23a2c7bad683e8c1a382f2f2</property>
  <property name="kdenlive:proxy">/home/xiaoxiae/.cache/kdenlive/proxy/6d152e8b23a2c7bad683e8c1a382f2f2.mkv</property>
  <property name="kdenlive:originalurl">video/Knapsack/15.mp4</property>
  <property name="kdenlive:original.mlt_type">chain</property>
  <property name="kdenlive:original.in">0</property>
  <property name="kdenlive:original.out">00:00:00.983</property>
  <property name="kdenlive:original.length">60</property>
  <property name="kdenlive:original.eof">pause</property>
  <property name="kdenlive:original.resource">video/Knapsack/15.mp4</property>
  <property name="kdenlive:original.mlt_service">avformat-novalidate</property>
  <property name="kdenlive:original.meta.media.nb_streams">1</property>
  <property name="kdenlive:original.meta.media.0.stream.type">video</property>
  <property name="kdenlive:original.meta.media.0.stream.frame_rate">60</property>
  <property name="kdenlive:original.meta.media.0.stream.sample_aspect_ratio">0</property>
  <property name="kdenlive:original.meta.media.0.codec.width">1920</property>
  <property name="kdenlive:original.meta.media.0.codec.height">1080</property>
  <property name="kdenlive:original.meta.media.0.codec.rotate">0</property>
  <property name="kdenlive:original.meta.media.0.codec.pix_fmt">yuv420p</property>
  <property name="kdenlive:original.meta.media.0.codec.sample_aspect_ratio">0</property>
  <property name="kdenlive:original.meta.media.0.codec.colorspace">709</property>
  <property name="kdenlive:original.meta.media.0.codec.name">h264</property>
  <property name="kdenlive:original.meta.media.0.codec.long_name">H.264 / AVC / MPEG-4 AVC / MPEG-4 part 10</property>
  <property name="kdenlive:original.meta.media.0.codec.bit_rate">491296</property>
  <property name="kdenlive:original.meta.attr.0.stream.handler_name.markup">VideoHandler</property>
  <property name="kdenlive:original.meta.attr.0.stream.vendor_id.markup">[0][0][0][0]</property>
  <property name="kdenlive:original.meta.attr.0.stream.encoder.markup">Lavc60.3.100 libx264</property>
  <property name="kdenlive:original.meta.attr.major_brand.markup">isom</property>
  <property name="kdenlive:original.meta.attr.minor_version.markup">512</property>
  <property name="kdenlive:original.meta.attr.compatible_brands.markup">isomiso2avc1mp41</property>
  <property name="kdenlive:original.meta.attr.encoder.markup">Lavf60.3.100</property>
  <property name="kdenlive:original.meta.attr.comment.markup">Rendered with Manim Community v0.17.3</property>
  <property name="kdenlive:original.seekable">1</property>
  <property name="kdenlive:original.width">1920</property>
  <property name="kdenlive:original.height">1080</property>
  <property name="kdenlive:original.meta.media.sample_aspect_num">1</property>
  <property name="kdenlive:original.meta.media.sample_aspect_den">1</property>
  <property name="kdenlive:original.format">3</property>
  <property name="kdenlive:original.audio_index">-1</property>
  <property name="kdenlive:original.video_index">0</property>
  <property name="kdenlive:original.meta.media.frame_rate_num">60</property>
  <property name="kdenlive:original.meta.media.frame_rate_den">1</property>
  <property name="kdenlive:original.meta.media.colorspace">709</property>
  <property name="kdenlive:original.meta.media.color_trc">2</property>
  <property name="kdenlive:original.meta.media.has_b_frames">2</property>
  <property name="kdenlive:original.meta.media.width">1920</property>
  <property name="kdenlive:original.meta.media.height">1080</property>
  <property name="kdenlive:original.meta.media.color_range">mpeg</property>
  <property name="kdenlive:original.meta.media.top_field_first">0</property>
  <property name="kdenlive:original.meta.media.progressive">1</property>
  <property name="kdenlive:original.kdenlive:clip_type">2</property>
  <property name="kdenlive:original.kdenlive:folderid">203</property>
  <property name="kdenlive:original.kdenlive:id">210</property>
  <property name="kdenlive:original.mute_on_pause">0</property>
  <property name="kdenlive:original.kdenlive:file_size">63020</property>
  <property name="kdenlive:original.kdenlive:file_hash">6d152e8b23a2c7bad683e8c1a382f2f2</property>
  <property name="kdenlive:original.backup">1</property>
  <property name="meta.media.nb_streams">1</property>
  <property name="meta.media.0.stream.type">video</property>
  <property name="meta.media.0.stream.frame_rate">60</property>
  <property name="meta.media.0.stream.sample_aspect_ratio">0</property>
  <property name="meta.media.0.codec.width">640</property>
  <property name="meta.media.0.codec.height">360</property>
  <property name="meta.media.0.codec.rotate">0</property>
  <property name="meta.media.0.codec.pix_fmt">yuvj420p</property>
  <property name="meta.media.0.codec.sample_aspect_ratio">0</property>
  <property name="meta.media.0.codec.colorspace">601</property>
  <property name="meta.media.0.codec.name">mjpeg</property>
  <property name="meta.media.0.codec.long_name">MJPEG (Motion JPEG)</property>
  <property name="meta.media.0.codec.bit_rate">0</property>
  <property name="meta.attr.0.stream.HANDLER_NAME.markup">VideoHandler</property>
  <property name="meta.attr.0.stream.VENDOR_ID.markup">[0][0][0][0]</property>
  <property name="meta.attr.0.stream.ENCODER.markup">Lavc60.3.100 mjpeg</property>
  <property name="meta.attr.0.stream.DURATION.markup">00:00:01.000000000</property>
  <property name="meta.attr.COMMENT.markup">Rendered with Manim Community v0.17.3</property>
  <property name="meta.attr.MAJOR_BRAND.markup">isom</property>
  <property name="meta.attr.MINOR_VERSION.markup">512</property>
  <property name="meta.attr.COMPATIBLE_BRANDS.markup">isomiso2avc1mp41</property>
  <property name="meta.attr.ENCODER.markup">Lavf60.3.100</property>
  <property name="meta.media.sample_aspect_num">1</property>
  <property name="meta.media.sample_aspect_den">1</property>
  <property name="meta.media.frame_rate_num">60</property>
  <property name="meta.media.frame_rate_den">1</property>
  <property name="meta.media.colorspace">601</property>
  <property name="meta.media.color_trc">2</property>
  <property name="meta.media.has_b_frames">0</property>
  <property name="meta.media.width">640</property>
  <property name="meta.media.height">360</property>
  <property name="meta.media.color_range">full</property>
  <property name="xml">was here</property>
  <property name="meta.media.top_field_first">0</property>
  <property name="meta.media.progressive">1</property>
  <property name="set.test_audio">1</property>
  <property name="set.test_image">0</property>
 </chain>
 <chain id="chain690" out="00:00:00.983">
  <property name="length">60</property>
  <property name="eof">pause</property>
  <property name="resource">/home/xiaoxiae/.cache/kdenlive/proxy/dbb559b004dde4861f55aa34094a3d51.mkv</property>
  <property name="mlt_service">avformat-novalidate</property>
  <property name="seekable">1</property>
  <property name="format">3</property>
  <property name="audio_index">-1</property>
  <property name="video_index">0</property>
  <property name="kdenlive:clipname">16.mp4</property>
  <property name="kdenlive:clip_type">2</property>
  <property name="kdenlive:folderid">203</property>
  <property name="kdenlive:id">211</property>
  <property name="mute_on_pause">0</property>
  <property name="kdenlive:file_size">108962</property>
  <property name="kdenlive:file_hash">dbb559b004dde4861f55aa34094a3d51</property>
  <property name="kdenlive:proxy">/home/xiaoxiae/.cache/kdenlive/proxy/dbb559b004dde4861f55aa34094a3d51.mkv</property>
  <property name="kdenlive:originalurl">video/Knapsack/16.mp4</property>
  <property name="kdenlive:original.mlt_type">chain</property>
  <property name="kdenlive:original.in">0</property>
  <property name="kdenlive:original.out">00:00:00.983</property>
  <property name="kdenlive:original.length">60</property>
  <property name="kdenlive:original.eof">pause</property>
  <property name="kdenlive:original.resource">video/Knapsack/16.mp4</property>
  <property name="kdenlive:original.mlt_service">avformat-novalidate</property>
  <property name="kdenlive:original.meta.media.nb_streams">1</property>
  <property name="kdenlive:original.meta.media.0.stream.type">video</property>
  <property name="kdenlive:original.meta.media.0.stream.frame_rate">60</property>
  <property name="kdenlive:original.meta.media.0.stream.sample_aspect_ratio">0</property>
  <property name="kdenlive:original.meta.media.0.codec.width">1920</property>
  <property name="kdenlive:original.meta.media.0.codec.height">1080</property>
  <property name="kdenlive:original.meta.media.0.codec.rotate">0</property>
  <property name="kdenlive:original.meta.media.0.codec.pix_fmt">yuv420p</property>
  <property name="kdenlive:original.meta.media.0.codec.sample_aspect_ratio">0</property>
  <property name="kdenlive:original.meta.media.0.codec.colorspace">709</property>
  <property name="kdenlive:original.meta.media.0.codec.name">h264</property>
  <property name="kdenlive:original.meta.media.0.codec.long_name">H.264 / AVC / MPEG-4 AVC / MPEG-4 part 10</property>
  <property name="kdenlive:original.meta.media.0.codec.bit_rate">860048</property>
  <property name="kdenlive:original.meta.attr.0.stream.handler_name.markup">VideoHandler</property>
  <property name="kdenlive:original.meta.attr.0.stream.vendor_id.markup">[0][0][0][0]</property>
  <property name="kdenlive:original.meta.attr.0.stream.encoder.markup">Lavc60.3.100 libx264</property>
  <property name="kdenlive:original.meta.attr.major_brand.markup">isom</property>
  <property name="kdenlive:original.meta.attr.minor_version.markup">512</property>
  <property name="kdenlive:original.meta.attr.compatible_brands.markup">isomiso2avc1mp41</property>
  <property name="kdenlive:original.meta.attr.encoder.markup">Lavf60.3.100</property>
  <property name="kdenlive:original.meta.attr.comment.markup">Rendered with Manim Community v0.17.3</property>
  <property name="kdenlive:original.seekable">1</property>
  <property name="kdenlive:original.width">1920</property>
  <property name="kdenlive:original.height">1080</property>
  <property name="kdenlive:original.meta.media.sample_aspect_num">1</property>
  <property name="kdenlive:original.meta.media.sample_aspect_den">1</property>
  <property name="kdenlive:original.format">3</property>
  <property name="kdenlive:original.audio_index">-1</property>
  <property name="kdenlive:original.video_index">0</property>
  <property name="kdenlive:original.meta.media.frame_rate_num">60</property>
  <property name="kdenlive:original.meta.media.frame_rate_den">1</property>
  <property name="kdenlive:original.meta.media.colorspace">709</property>
  <property name="kdenlive:original.meta.media.color_trc">2</property>
  <property name="kdenlive:original.meta.media.has_b_frames">2</property>
  <property name="kdenlive:original.meta.media.width">1920</property>
  <property name="kdenlive:original.meta.media.height">1080</property>
  <property name="kdenlive:original.meta.media.color_range">mpeg</property>
  <property name="kdenlive:original.meta.media.top_field_first">0</property>
  <property name="kdenlive:original.meta.media.progressive">1</property>
  <property name="kdenlive:original.kdenlive:clip_type">2</property>
  <property name="kdenlive:original.kdenlive:folderid">203</property>
  <property name="kdenlive:original.kdenlive:id">211</property>
  <property name="kdenlive:original.mute_on_pause">0</property>
  <property name="kdenlive:original.kdenlive:file_size">108962</property>
  <property name="kdenlive:original.kdenlive:file_hash">dbb559b004dde4861f55aa34094a3d51</property>
  <property name="kdenlive:original.backup">1</property>
  <property name="meta.media.nb_streams">1</property>
  <property name="meta.media.0.stream.type">video</property>
  <property name="meta.media.0.stream.frame_rate">60</property>
  <property name="meta.media.0.stream.sample_aspect_ratio">0</property>
  <property name="meta.media.0.codec.width">640</property>
  <property name="meta.media.0.codec.height">360</property>
  <property name="meta.media.0.codec.rotate">0</property>
  <property name="meta.media.0.codec.pix_fmt">yuvj420p</property>
  <property name="meta.media.0.codec.sample_aspect_ratio">0</property>
  <property name="meta.media.0.codec.colorspace">601</property>
  <property name="meta.media.0.codec.name">mjpeg</property>
  <property name="meta.media.0.codec.long_name">MJPEG (Motion JPEG)</property>
  <property name="meta.media.0.codec.bit_rate">0</property>
  <property name="meta.attr.0.stream.HANDLER_NAME.markup">VideoHandler</property>
  <property name="meta.attr.0.stream.VENDOR_ID.markup">[0][0][0][0]</property>
  <property name="meta.attr.0.stream.ENCODER.markup">Lavc60.3.100 mjpeg</property>
  <property name="meta.attr.0.stream.DURATION.markup">00:00:01.000000000</property>
  <property name="meta.attr.COMMENT.markup">Rendered with Manim Community v0.17.3</property>
  <property name="meta.attr.MAJOR_BRAND.markup">isom</property>
  <property name="meta.attr.MINOR_VERSION.markup">512</property>
  <property name="meta.attr.COMPATIBLE_BRANDS.markup">isomiso2avc1mp41</property>
  <property name="meta.attr.ENCODER.markup">Lavf60.3.100</property>
  <property name="meta.media.sample_aspect_num">1</property>
  <property name="meta.media.sample_aspect_den">1</property>
  <property name="meta.media.frame_rate_num">60</property>
  <property name="meta.media.frame_rate_den">1</property>
  <property name="meta.media.colorspace">601</property>
  <property name="meta.media.color_trc">2</property>
  <property name="meta.media.has_b_frames">0</property>
  <property name="meta.media.width">640</property>
  <property name="meta.media.height">360</property>
  <property name="meta.media.color_range">full</property>
  <property name="xml">was here</property>
  <property name="meta.media.top_field_first">0</property>
  <property name="meta.media.progressive">1</property>
  <property name="set.test_audio">1</property>
  <property name="set.test_image">0</property>
 </chain>
 <chain id="chain691" out="00:00:00.983">
  <property name="length">60</property>
  <property name="eof">pause</property>
  <property name="resource">/home/xiaoxiae/.cache/kdenlive/proxy/2cc1828befd7d4515060ffe52ad8d52e.mkv</property>
  <property name="mlt_service">avformat-novalidate</property>
  <property name="seekable">1</property>
  <property name="format">3</property>
  <property name="audio_index">-1</property>
  <property name="video_index">0</property>
  <property name="kdenlive:clipname">17.mp4</property>
  <property name="kdenlive:clip_type">2</property>
  <property name="kdenlive:folderid">203</property>
  <property name="kdenlive:id">212</property>
  <property name="mute_on_pause">0</property>
  <property name="kdenlive:file_size">94963</property>
  <property name="kdenlive:file_hash">2cc1828befd7d4515060ffe52ad8d52e</property>
  <property name="kdenlive:proxy">/home/xiaoxiae/.cache/kdenlive/proxy/2cc1828befd7d4515060ffe52ad8d52e.mkv</property>
  <property name="kdenlive:originalurl">video/Knapsack/17.mp4</property>
  <property name="kdenlive:original.mlt_type">chain</property>
  <property name="kdenlive:original.in">0</property>
  <property name="kdenlive:original.out">00:00:00.983</property>
  <property name="kdenlive:original.length">60</property>
  <property name="kdenlive:original.eof">pause</property>
  <property name="kdenlive:original.resource">video/Knapsack/17.mp4</property>
  <property name="kdenlive:original.mlt_service">avformat-novalidate</property>
  <property name="kdenlive:original.meta.media.nb_streams">1</property>
  <property name="kdenlive:original.meta.media.0.stream.type">video</property>
  <property name="kdenlive:original.meta.media.0.stream.frame_rate">60</property>
  <property name="kdenlive:original.meta.media.0.stream.sample_aspect_ratio">0</property>
  <property name="kdenlive:original.meta.media.0.codec.width">1920</property>
  <property name="kdenlive:original.meta.media.0.codec.height">1080</property>
  <property name="kdenlive:original.meta.media.0.codec.rotate">0</property>
  <property name="kdenlive:original.meta.media.0.codec.pix_fmt">yuv420p</property>
  <property name="kdenlive:original.meta.media.0.codec.sample_aspect_ratio">0</property>
  <property name="kdenlive:original.meta.media.0.codec.colorspace">709</property>
  <property name="kdenlive:original.meta.media.0.codec.name">h264</property>
  <property name="kdenlive:original.meta.media.0.codec.long_name">H.264 / AVC / MPEG-4 AVC / MPEG-4 part 10</property>
  <property name="kdenlive:original.meta.media.0.codec.bit_rate">747800</property>
  <property name="kdenlive:original.meta.attr.0.stream.handler_name.markup">VideoHandler</property>
  <property name="kdenlive:original.meta.attr.0.stream.vendor_id.markup">[0][0][0][0]</property>
  <property name="kdenlive:original.meta.attr.0.stream.encoder.markup">Lavc60.3.100 libx264</property>
  <property name="kdenlive:original.meta.attr.major_brand.markup">isom</property>
  <property name="kdenlive:original.meta.attr.minor_version.markup">512</property>
  <property name="kdenlive:original.meta.attr.compatible_brands.markup">isomiso2avc1mp41</property>
  <property name="kdenlive:original.meta.attr.encoder.markup">Lavf60.3.100</property>
  <property name="kdenlive:original.meta.attr.comment.markup">Rendered with Manim Community v0.17.3</property>
  <property name="kdenlive:original.seekable">1</property>
  <property name="kdenlive:original.width">1920</property>
  <property name="kdenlive:original.height">1080</property>
  <property name="kdenlive:original.meta.media.sample_aspect_num">1</property>
  <property name="kdenlive:original.meta.media.sample_aspect_den">1</property>
  <property name="kdenlive:original.format">3</property>
  <property name="kdenlive:original.audio_index">-1</property>
  <property name="kdenlive:original.video_index">0</property>
  <property name="kdenlive:original.meta.media.frame_rate_num">60</property>
  <property name="kdenlive:original.meta.media.frame_rate_den">1</property>
  <property name="kdenlive:original.meta.media.colorspace">709</property>
  <property name="kdenlive:original.meta.media.color_trc">2</property>
  <property name="kdenlive:original.meta.media.has_b_frames">2</property>
  <property name="kdenlive:original.meta.media.width">1920</property>
  <property name="kdenlive:original.meta.media.height">1080</property>
  <property name="kdenlive:original.meta.media.color_range">mpeg</property>
  <property name="kdenlive:original.meta.media.top_field_first">0</property>
  <property name="kdenlive:original.meta.media.progressive">1</property>
  <property name="kdenlive:original.kdenlive:clip_type">2</property>
  <property name="kdenlive:original.kdenlive:folderid">203</property>
  <property name="kdenlive:original.kdenlive:id">212</property>
  <property name="kdenlive:original.mute_on_pause">0</property>
  <property name="kdenlive:original.kdenlive:file_size">94963</property>
  <property name="kdenlive:original.kdenlive:file_hash">2cc1828befd7d4515060ffe52ad8d52e</property>
  <property name="kdenlive:original.backup">1</property>
  <property name="meta.media.nb_streams">1</property>
  <property name="meta.media.0.stream.type">video</property>
  <property name="meta.media.0.stream.frame_rate">60</property>
  <property name="meta.media.0.stream.sample_aspect_ratio">0</property>
  <property name="meta.media.0.codec.width">640</property>
  <property name="meta.media.0.codec.height">360</property>
  <property name="meta.media.0.codec.rotate">0</property>
  <property name="meta.media.0.codec.pix_fmt">yuvj420p</property>
  <property name="meta.media.0.codec.sample_aspect_ratio">0</property>
  <property name="meta.media.0.codec.colorspace">601</property>
  <property name="meta.media.0.codec.name">mjpeg</property>
  <property name="meta.media.0.codec.long_name">MJPEG (Motion JPEG)</property>
  <property name="meta.media.0.codec.bit_rate">0</property>
  <property name="meta.attr.0.stream.HANDLER_NAME.markup">VideoHandler</property>
  <property name="meta.attr.0.stream.VENDOR_ID.markup">[0][0][0][0]</property>
  <property name="meta.attr.0.stream.ENCODER.markup">Lavc60.3.100 mjpeg</property>
  <property name="meta.attr.0.stream.DURATION.markup">00:00:01.000000000</property>
  <property name="meta.attr.COMMENT.markup">Rendered with Manim Community v0.17.3</property>
  <property name="meta.attr.MAJOR_BRAND.markup">isom</property>
  <property name="meta.attr.MINOR_VERSION.markup">512</property>
  <property name="meta.attr.COMPATIBLE_BRANDS.markup">isomiso2avc1mp41</property>
  <property name="meta.attr.ENCODER.markup">Lavf60.3.100</property>
  <property name="meta.media.sample_aspect_num">1</property>
  <property name="meta.media.sample_aspect_den">1</property>
  <property name="meta.media.frame_rate_num">60</property>
  <property name="meta.media.frame_rate_den">1</property>
  <property name="meta.media.colorspace">601</property>
  <property name="meta.media.color_trc">2</property>
  <property name="meta.media.has_b_frames">0</property>
  <property name="meta.media.width">640</property>
  <property name="meta.media.height">360</property>
  <property name="meta.media.color_range">full</property>
  <property name="xml">was here</property>
  <property name="meta.media.top_field_first">0</property>
  <property name="meta.media.progressive">1</property>
  <property name="set.test_audio">1</property>
  <property name="set.test_image">0</property>
 </chain>
 <chain id="chain692" out="00:00:01.483">
  <property name="length">90</property>
  <property name="eof">pause</property>
  <property name="resource">/home/xiaoxiae/.cache/kdenlive/proxy/8020e0bce46d9e17990476a5958e6830.mkv</property>
  <property name="mlt_service">avformat-novalidate</property>
  <property name="seekable">1</property>
  <property name="format">3</property>
  <property name="audio_index">-1</property>
  <property name="video_index">0</property>
  <property name="kdenlive:clipname">18.mp4</property>
  <property name="kdenlive:clip_type">2</property>
  <property name="kdenlive:folderid">203</property>
  <property name="kdenlive:id">213</property>
  <property name="mute_on_pause">0</property>
  <property name="kdenlive:file_size">124404</property>
  <property name="kdenlive:file_hash">8020e0bce46d9e17990476a5958e6830</property>
  <property name="kdenlive:proxy">/home/xiaoxiae/.cache/kdenlive/proxy/8020e0bce46d9e17990476a5958e6830.mkv</property>
  <property name="kdenlive:originalurl">video/Knapsack/18.mp4</property>
  <property name="kdenlive:original.mlt_type">chain</property>
  <property name="kdenlive:original.in">0</property>
  <property name="kdenlive:original.out">00:00:01.483</property>
  <property name="kdenlive:original.length">90</property>
  <property name="kdenlive:original.eof">pause</property>
  <property name="kdenlive:original.resource">video/Knapsack/18.mp4</property>
  <property name="kdenlive:original.mlt_service">avformat-novalidate</property>
  <property name="kdenlive:original.meta.media.nb_streams">1</property>
  <property name="kdenlive:original.meta.media.0.stream.type">video</property>
  <property name="kdenlive:original.meta.media.0.stream.frame_rate">60</property>
  <property name="kdenlive:original.meta.media.0.stream.sample_aspect_ratio">0</property>
  <property name="kdenlive:original.meta.media.0.codec.width">1920</property>
  <property name="kdenlive:original.meta.media.0.codec.height">1080</property>
  <property name="kdenlive:original.meta.media.0.codec.rotate">0</property>
  <property name="kdenlive:original.meta.media.0.codec.pix_fmt">yuv420p</property>
  <property name="kdenlive:original.meta.media.0.codec.sample_aspect_ratio">0</property>
  <property name="kdenlive:original.meta.media.0.codec.colorspace">709</property>
  <property name="kdenlive:original.meta.media.0.codec.name">h264</property>
  <property name="kdenlive:original.meta.media.0.codec.long_name">H.264 / AVC / MPEG-4 AVC / MPEG-4 part 10</property>
  <property name="kdenlive:original.meta.media.0.codec.bit_rate">653290</property>
  <property name="kdenlive:original.meta.attr.0.stream.handler_name.markup">VideoHandler</property>
  <property name="kdenlive:original.meta.attr.0.stream.vendor_id.markup">[0][0][0][0]</property>
  <property name="kdenlive:original.meta.attr.0.stream.encoder.markup">Lavc60.3.100 libx264</property>
  <property name="kdenlive:original.meta.attr.major_brand.markup">isom</property>
  <property name="kdenlive:original.meta.attr.minor_version.markup">512</property>
  <property name="kdenlive:original.meta.attr.compatible_brands.markup">isomiso2avc1mp41</property>
  <property name="kdenlive:original.meta.attr.encoder.markup">Lavf60.3.100</property>
  <property name="kdenlive:original.meta.attr.comment.markup">Rendered with Manim Community v0.17.3</property>
  <property name="kdenlive:original.seekable">1</property>
  <property name="kdenlive:original.width">1920</property>
  <property name="kdenlive:original.height">1080</property>
  <property name="kdenlive:original.meta.media.sample_aspect_num">1</property>
  <property name="kdenlive:original.meta.media.sample_aspect_den">1</property>
  <property name="kdenlive:original.format">3</property>
  <property name="kdenlive:original.audio_index">-1</property>
  <property name="kdenlive:original.video_index">0</property>
  <property name="kdenlive:original.meta.media.frame_rate_num">60</property>
  <property name="kdenlive:original.meta.media.frame_rate_den">1</property>
  <property name="kdenlive:original.meta.media.colorspace">709</property>
  <property name="kdenlive:original.meta.media.color_trc">2</property>
  <property name="kdenlive:original.meta.media.has_b_frames">2</property>
  <property name="kdenlive:original.meta.media.width">1920</property>
  <property name="kdenlive:original.meta.media.height">1080</property>
  <property name="kdenlive:original.meta.media.color_range">mpeg</property>
  <property name="kdenlive:original.meta.media.top_field_first">0</property>
  <property name="kdenlive:original.meta.media.progressive">1</property>
  <property name="kdenlive:original.kdenlive:clip_type">2</property>
  <property name="kdenlive:original.kdenlive:folderid">203</property>
  <property name="kdenlive:original.kdenlive:id">213</property>
  <property name="kdenlive:original.mute_on_pause">0</property>
  <property name="kdenlive:original.kdenlive:file_size">124404</property>
  <property name="kdenlive:original.kdenlive:file_hash">8020e0bce46d9e17990476a5958e6830</property>
  <property name="kdenlive:original.backup">1</property>
  <property name="meta.media.nb_streams">1</property>
  <property name="meta.media.0.stream.type">video</property>
  <property name="meta.media.0.stream.frame_rate">60</property>
  <property name="meta.media.0.stream.sample_aspect_ratio">0</property>
  <property name="meta.media.0.codec.width">640</property>
  <property name="meta.media.0.codec.height">360</property>
  <property name="meta.media.0.codec.rotate">0</property>
  <property name="meta.media.0.codec.pix_fmt">yuvj420p</property>
  <property name="meta.media.0.codec.sample_aspect_ratio">0</property>
  <property name="meta.media.0.codec.colorspace">601</property>
  <property name="meta.media.0.codec.name">mjpeg</property>
  <property name="meta.media.0.codec.long_name">MJPEG (Motion JPEG)</property>
  <property name="meta.media.0.codec.bit_rate">0</property>
  <property name="meta.attr.0.stream.HANDLER_NAME.markup">VideoHandler</property>
  <property name="meta.attr.0.stream.VENDOR_ID.markup">[0][0][0][0]</property>
  <property name="meta.attr.0.stream.ENCODER.markup">Lavc60.3.100 mjpeg</property>
  <property name="meta.attr.0.stream.DURATION.markup">00:00:01.500000000</property>
  <property name="meta.attr.COMMENT.markup">Rendered with Manim Community v0.17.3</property>
  <property name="meta.attr.MAJOR_BRAND.markup">isom</property>
  <property name="meta.attr.MINOR_VERSION.markup">512</property>
  <property name="meta.attr.COMPATIBLE_BRANDS.markup">isomiso2avc1mp41</property>
  <property name="meta.attr.ENCODER.markup">Lavf60.3.100</property>
  <property name="meta.media.sample_aspect_num">1</property>
  <property name="meta.media.sample_aspect_den">1</property>
  <property name="meta.media.frame_rate_num">60</property>
  <property name="meta.media.frame_rate_den">1</property>
  <property name="meta.media.colorspace">601</property>
  <property name="meta.media.color_trc">2</property>
  <property name="meta.media.has_b_frames">0</property>
  <property name="meta.media.width">640</property>
  <property name="meta.media.height">360</property>
  <property name="meta.media.color_range">full</property>
  <property name="xml">was here</property>
  <property name="meta.media.top_field_first">0</property>
  <property name="meta.media.progressive">1</property>
  <property name="set.test_audio">1</property>
  <property name="set.test_image">0</property>
 </chain>
 <chain id="chain693" out="00:00:00.983">
  <property name="length">60</property>
  <property name="eof">pause</property>
  <property name="resource">/home/xiaoxiae/.cache/kdenlive/proxy/fa63d02670ab772ee2c7939248b63676.mkv</property>
  <property name="mlt_service">avformat-novalidate</property>
  <property name="seekable">1</property>
  <property name="format">3</property>
  <property name="audio_index">-1</property>
  <property name="video_index">0</property>
  <property name="kdenlive:clipname">19.mp4</property>
  <property name="kdenlive:clip_type">2</property>
  <property name="kdenlive:folderid">203</property>
  <property name="kdenlive:id">214</property>
  <property name="mute_on_pause">0</property>
  <property name="kdenlive:file_size">358315</property>
  <property name="kdenlive:file_hash">fa63d02670ab772ee2c7939248b63676</property>
  <property name="kdenlive:proxy">/home/xiaoxiae/.cache/kdenlive/proxy/fa63d02670ab772ee2c7939248b63676.mkv</property>
  <property name="kdenlive:originalurl">video/Knapsack/19.mp4</property>
  <property name="kdenlive:original.mlt_type">chain</property>
  <property name="kdenlive:original.in">0</property>
  <property name="kdenlive:original.out">00:00:00.983</property>
  <property name="kdenlive:original.length">60</property>
  <property name="kdenlive:original.eof">pause</property>
  <property name="kdenlive:original.resource">video/Knapsack/19.mp4</property>
  <property name="kdenlive:original.mlt_service">avformat-novalidate</property>
  <property name="kdenlive:original.meta.media.nb_streams">1</property>
  <property name="kdenlive:original.meta.media.0.stream.type">video</property>
  <property name="kdenlive:original.meta.media.0.stream.frame_rate">60</property>
  <property name="kdenlive:original.meta.media.0.stream.sample_aspect_ratio">0</property>
  <property name="kdenlive:original.meta.media.0.codec.width">1920</property>
  <property name="kdenlive:original.meta.media.0.codec.height">1080</property>
  <property name="kdenlive:original.meta.media.0.codec.rotate">0</property>
  <property name="kdenlive:original.meta.media.0.codec.pix_fmt">yuv420p</property>
  <property name="kdenlive:original.meta.media.0.codec.sample_aspect_ratio">0</property>
  <property name="kdenlive:original.meta.media.0.codec.colorspace">709</property>
  <property name="kdenlive:original.meta.media.0.codec.name">h264</property>
  <property name="kdenlive:original.meta.media.0.codec.long_name">H.264 / AVC / MPEG-4 AVC / MPEG-4 part 10</property>
  <property name="kdenlive:original.meta.media.0.codec.bit_rate">2853592</property>
  <property name="kdenlive:original.meta.attr.0.stream.handler_name.markup">VideoHandler</property>
  <property name="kdenlive:original.meta.attr.0.stream.vendor_id.markup">[0][0][0][0]</property>
  <property name="kdenlive:original.meta.attr.0.stream.encoder.markup">Lavc60.3.100 libx264</property>
  <property name="kdenlive:original.meta.attr.major_brand.markup">isom</property>
  <property name="kdenlive:original.meta.attr.minor_version.markup">512</property>
  <property name="kdenlive:original.meta.attr.compatible_brands.markup">isomiso2avc1mp41</property>
  <property name="kdenlive:original.meta.attr.encoder.markup">Lavf60.3.100</property>
  <property name="kdenlive:original.meta.attr.comment.markup">Rendered with Manim Community v0.17.3</property>
  <property name="kdenlive:original.seekable">1</property>
  <property name="kdenlive:original.width">1920</property>
  <property name="kdenlive:original.height">1080</property>
  <property name="kdenlive:original.meta.media.sample_aspect_num">1</property>
  <property name="kdenlive:original.meta.media.sample_aspect_den">1</property>
  <property name="kdenlive:original.format">3</property>
  <property name="kdenlive:original.audio_index">-1</property>
  <property name="kdenlive:original.video_index">0</property>
  <property name="kdenlive:original.meta.media.frame_rate_num">60</property>
  <property name="kdenlive:original.meta.media.frame_rate_den">1</property>
  <property name="kdenlive:original.meta.media.colorspace">709</property>
  <property name="kdenlive:original.meta.media.color_trc">2</property>
  <property name="kdenlive:original.meta.media.has_b_frames">2</property>
  <property name="kdenlive:original.meta.media.width">1920</property>
  <property name="kdenlive:original.meta.media.height">1080</property>
  <property name="kdenlive:original.meta.media.color_range">mpeg</property>
  <property name="kdenlive:original.meta.media.top_field_first">0</property>
  <property name="kdenlive:original.meta.media.progressive">1</property>
  <property name="kdenlive:original.kdenlive:clip_type">2</property>
  <property name="kdenlive:original.kdenlive:folderid">203</property>
  <property name="kdenlive:original.kdenlive:id">214</property>
  <property name="kdenlive:original.mute_on_pause">0</property>
  <property name="kdenlive:original.kdenlive:file_size">358315</property>
  <property name="kdenlive:original.kdenlive:file_hash">fa63d02670ab772ee2c7939248b63676</property>
  <property name="kdenlive:original.backup">1</property>
  <property name="meta.media.nb_streams">1</property>
  <property name="meta.media.0.stream.type">video</property>
  <property name="meta.media.0.stream.frame_rate">60</property>
  <property name="meta.media.0.stream.sample_aspect_ratio">0</property>
  <property name="meta.media.0.codec.width">640</property>
  <property name="meta.media.0.codec.height">360</property>
  <property name="meta.media.0.codec.rotate">0</property>
  <property name="meta.media.0.codec.pix_fmt">yuvj420p</property>
  <property name="meta.media.0.codec.sample_aspect_ratio">0</property>
  <property name="meta.media.0.codec.colorspace">601</property>
  <property name="meta.media.0.codec.name">mjpeg</property>
  <property name="meta.media.0.codec.long_name">MJPEG (Motion JPEG)</property>
  <property name="meta.media.0.codec.bit_rate">0</property>
  <property name="meta.attr.0.stream.HANDLER_NAME.markup">VideoHandler</property>
  <property name="meta.attr.0.stream.VENDOR_ID.markup">[0][0][0][0]</property>
  <property name="meta.attr.0.stream.ENCODER.markup">Lavc60.3.100 mjpeg</property>
  <property name="meta.attr.0.stream.DURATION.markup">00:00:01.000000000</property>
  <property name="meta.attr.COMMENT.markup">Rendered with Manim Community v0.17.3</property>
  <property name="meta.attr.MAJOR_BRAND.markup">isom</property>
  <property name="meta.attr.MINOR_VERSION.markup">512</property>
  <property name="meta.attr.COMPATIBLE_BRANDS.markup">isomiso2avc1mp41</property>
  <property name="meta.attr.ENCODER.markup">Lavf60.3.100</property>
  <property name="meta.media.sample_aspect_num">1</property>
  <property name="meta.media.sample_aspect_den">1</property>
  <property name="meta.media.frame_rate_num">60</property>
  <property name="meta.media.frame_rate_den">1</property>
  <property name="meta.media.colorspace">601</property>
  <property name="meta.media.color_trc">2</property>
  <property name="meta.media.has_b_frames">0</property>
  <property name="meta.media.width">640</property>
  <property name="meta.media.height">360</property>
  <property name="meta.media.color_range">full</property>
  <property name="xml">was here</property>
  <property name="meta.media.top_field_first">0</property>
  <property name="meta.media.progressive">1</property>
  <property name="set.test_audio">1</property>
  <property name="set.test_image">0</property>
 </chain>
 <chain id="chain694" out="00:00:01.983">
  <property name="length">120</property>
  <property name="eof">pause</property>
  <property name="resource">/home/xiaoxiae/.cache/kdenlive/proxy/332649c1c0471f14e92571370ceb9dae.mkv</property>
  <property name="mlt_service">avformat-novalidate</property>
  <property name="seekable">1</property>
  <property name="format">3</property>
  <property name="audio_index">-1</property>
  <property name="video_index">0</property>
  <property name="kdenlive:clipname">20.mp4</property>
  <property name="kdenlive:clip_type">2</property>
  <property name="kdenlive:folderid">203</property>
  <property name="kdenlive:id">216</property>
  <property name="mute_on_pause">0</property>
  <property name="kdenlive:file_size">141528</property>
  <property name="kdenlive:file_hash">332649c1c0471f14e92571370ceb9dae</property>
  <property name="kdenlive:proxy">/home/xiaoxiae/.cache/kdenlive/proxy/332649c1c0471f14e92571370ceb9dae.mkv</property>
  <property name="kdenlive:originalurl">video/Knapsack/20.mp4</property>
  <property name="kdenlive:original.mlt_type">chain</property>
  <property name="kdenlive:original.in">0</property>
  <property name="kdenlive:original.out">00:00:01.983</property>
  <property name="kdenlive:original.length">120</property>
  <property name="kdenlive:original.eof">pause</property>
  <property name="kdenlive:original.resource">video/Knapsack/20.mp4</property>
  <property name="kdenlive:original.mlt_service">avformat-novalidate</property>
  <property name="kdenlive:original.meta.media.nb_streams">1</property>
  <property name="kdenlive:original.meta.media.0.stream.type">video</property>
  <property name="kdenlive:original.meta.media.0.stream.frame_rate">60</property>
  <property name="kdenlive:original.meta.media.0.stream.sample_aspect_ratio">0</property>
  <property name="kdenlive:original.meta.media.0.codec.width">1920</property>
  <property name="kdenlive:original.meta.media.0.codec.height">1080</property>
  <property name="kdenlive:original.meta.media.0.codec.rotate">0</property>
  <property name="kdenlive:original.meta.media.0.codec.pix_fmt">yuv420p</property>
  <property name="kdenlive:original.meta.media.0.codec.sample_aspect_ratio">0</property>
  <property name="kdenlive:original.meta.media.0.codec.colorspace">709</property>
  <property name="kdenlive:original.meta.media.0.codec.name">h264</property>
  <property name="kdenlive:original.meta.media.0.codec.long_name">H.264 / AVC / MPEG-4 AVC / MPEG-4 part 10</property>
  <property name="kdenlive:original.meta.media.0.codec.bit_rate">556768</property>
  <property name="kdenlive:original.meta.attr.0.stream.handler_name.markup">VideoHandler</property>
  <property name="kdenlive:original.meta.attr.0.stream.vendor_id.markup">[0][0][0][0]</property>
  <property name="kdenlive:original.meta.attr.0.stream.encoder.markup">Lavc60.3.100 libx264</property>
  <property name="kdenlive:original.meta.attr.major_brand.markup">isom</property>
  <property name="kdenlive:original.meta.attr.minor_version.markup">512</property>
  <property name="kdenlive:original.meta.attr.compatible_brands.markup">isomiso2avc1mp41</property>
  <property name="kdenlive:original.meta.attr.encoder.markup">Lavf60.3.100</property>
  <property name="kdenlive:original.meta.attr.comment.markup">Rendered with Manim Community v0.17.3</property>
  <property name="kdenlive:original.seekable">1</property>
  <property name="kdenlive:original.width">1920</property>
  <property name="kdenlive:original.height">1080</property>
  <property name="kdenlive:original.meta.media.sample_aspect_num">1</property>
  <property name="kdenlive:original.meta.media.sample_aspect_den">1</property>
  <property name="kdenlive:original.format">3</property>
  <property name="kdenlive:original.audio_index">-1</property>
  <property name="kdenlive:original.video_index">0</property>
  <property name="kdenlive:original.meta.media.frame_rate_num">60</property>
  <property name="kdenlive:original.meta.media.frame_rate_den">1</property>
  <property name="kdenlive:original.meta.media.colorspace">709</property>
  <property name="kdenlive:original.meta.media.color_trc">2</property>
  <property name="kdenlive:original.meta.media.has_b_frames">2</property>
  <property name="kdenlive:original.meta.media.width">1920</property>
  <property name="kdenlive:original.meta.media.height">1080</property>
  <property name="kdenlive:original.meta.media.color_range">mpeg</property>
  <property name="kdenlive:original.meta.media.top_field_first">0</property>
  <property name="kdenlive:original.meta.media.progressive">1</property>
  <property name="kdenlive:original.kdenlive:clip_type">2</property>
  <property name="kdenlive:original.kdenlive:folderid">203</property>
  <property name="kdenlive:original.kdenlive:id">216</property>
  <property name="kdenlive:original.mute_on_pause">0</property>
  <property name="kdenlive:original.kdenlive:file_size">141528</property>
  <property name="kdenlive:original.kdenlive:file_hash">332649c1c0471f14e92571370ceb9dae</property>
  <property name="kdenlive:original.backup">1</property>
  <property name="meta.media.nb_streams">1</property>
  <property name="meta.media.0.stream.type">video</property>
  <property name="meta.media.0.stream.frame_rate">60</property>
  <property name="meta.media.0.stream.sample_aspect_ratio">0</property>
  <property name="meta.media.0.codec.width">640</property>
  <property name="meta.media.0.codec.height">360</property>
  <property name="meta.media.0.codec.rotate">0</property>
  <property name="meta.media.0.codec.pix_fmt">yuvj420p</property>
  <property name="meta.media.0.codec.sample_aspect_ratio">0</property>
  <property name="meta.media.0.codec.colorspace">601</property>
  <property name="meta.media.0.codec.name">mjpeg</property>
  <property name="meta.media.0.codec.long_name">MJPEG (Motion JPEG)</property>
  <property name="meta.media.0.codec.bit_rate">0</property>
  <property name="meta.attr.0.stream.HANDLER_NAME.markup">VideoHandler</property>
  <property name="meta.attr.0.stream.VENDOR_ID.markup">[0][0][0][0]</property>
  <property name="meta.attr.0.stream.ENCODER.markup">Lavc60.3.100 mjpeg</property>
  <property name="meta.attr.0.stream.DURATION.markup">00:00:02.000000000</property>
  <property name="meta.attr.COMMENT.markup">Rendered with Manim Community v0.17.3</property>
  <property name="meta.attr.MAJOR_BRAND.markup">isom</property>
  <property name="meta.attr.MINOR_VERSION.markup">512</property>
  <property name="meta.attr.COMPATIBLE_BRANDS.markup">isomiso2avc1mp41</property>
  <property name="meta.attr.ENCODER.markup">Lavf60.3.100</property>
  <property name="meta.media.sample_aspect_num">1</property>
  <property name="meta.media.sample_aspect_den">1</property>
  <property name="meta.media.frame_rate_num">60</property>
  <property name="meta.media.frame_rate_den">1</property>
  <property name="meta.media.colorspace">601</property>
  <property name="meta.media.color_trc">2</property>
  <property name="meta.media.has_b_frames">0</property>
  <property name="meta.media.width">640</property>
  <property name="meta.media.height">360</property>
  <property name="meta.media.color_range">full</property>
  <property name="xml">was here</property>
  <property name="meta.media.top_field_first">0</property>
  <property name="meta.media.progressive">1</property>
  <property name="set.test_audio">1</property>
  <property name="set.test_image">0</property>
 </chain>
 <chain id="chain695" out="00:00:01.483">
  <property name="length">90</property>
  <property name="eof">pause</property>
  <property name="resource">/home/xiaoxiae/.cache/kdenlive/proxy/f36ea4a80ed4749304cea5f50a74d99a.mkv</property>
  <property name="mlt_service">avformat-novalidate</property>
  <property name="seekable">1</property>
  <property name="format">3</property>
  <property name="audio_index">-1</property>
  <property name="video_index">0</property>
  <property name="kdenlive:clipname">21.mp4</property>
  <property name="kdenlive:clip_type">2</property>
  <property name="kdenlive:folderid">203</property>
  <property name="kdenlive:id">217</property>
  <property name="mute_on_pause">0</property>
  <property name="kdenlive:file_size">86271</property>
  <property name="kdenlive:file_hash">f36ea4a80ed4749304cea5f50a74d99a</property>
  <property name="kdenlive:proxy">/home/xiaoxiae/.cache/kdenlive/proxy/f36ea4a80ed4749304cea5f50a74d99a.mkv</property>
  <property name="kdenlive:originalurl">video/Knapsack/21.mp4</property>
  <property name="kdenlive:original.mlt_type">chain</property>
  <property name="kdenlive:original.in">0</property>
  <property name="kdenlive:original.out">00:00:01.483</property>
  <property name="kdenlive:original.length">90</property>
  <property name="kdenlive:original.eof">pause</property>
  <property name="kdenlive:original.resource">video/Knapsack/21.mp4</property>
  <property name="kdenlive:original.mlt_service">avformat-novalidate</property>
  <property name="kdenlive:original.meta.media.nb_streams">1</property>
  <property name="kdenlive:original.meta.media.0.stream.type">video</property>
  <property name="kdenlive:original.meta.media.0.stream.frame_rate">60</property>
  <property name="kdenlive:original.meta.media.0.stream.sample_aspect_ratio">0</property>
  <property name="kdenlive:original.meta.media.0.codec.width">1920</property>
  <property name="kdenlive:original.meta.media.0.codec.height">1080</property>
  <property name="kdenlive:original.meta.media.0.codec.rotate">0</property>
  <property name="kdenlive:original.meta.media.0.codec.pix_fmt">yuv420p</property>
  <property name="kdenlive:original.meta.media.0.codec.sample_aspect_ratio">0</property>
  <property name="kdenlive:original.meta.media.0.codec.colorspace">709</property>
  <property name="kdenlive:original.meta.media.0.codec.name">h264</property>
  <property name="kdenlive:original.meta.media.0.codec.long_name">H.264 / AVC / MPEG-4 AVC / MPEG-4 part 10</property>
  <property name="kdenlive:original.meta.media.0.codec.bit_rate">449573</property>
  <property name="kdenlive:original.meta.attr.0.stream.handler_name.markup">VideoHandler</property>
  <property name="kdenlive:original.meta.attr.0.stream.vendor_id.markup">[0][0][0][0]</property>
  <property name="kdenlive:original.meta.attr.0.stream.encoder.markup">Lavc60.3.100 libx264</property>
  <property name="kdenlive:original.meta.attr.major_brand.markup">isom</property>
  <property name="kdenlive:original.meta.attr.minor_version.markup">512</property>
  <property name="kdenlive:original.meta.attr.compatible_brands.markup">isomiso2avc1mp41</property>
  <property name="kdenlive:original.meta.attr.encoder.markup">Lavf60.3.100</property>
  <property name="kdenlive:original.meta.attr.comment.markup">Rendered with Manim Community v0.17.3</property>
  <property name="kdenlive:original.seekable">1</property>
  <property name="kdenlive:original.width">1920</property>
  <property name="kdenlive:original.height">1080</property>
  <property name="kdenlive:original.meta.media.sample_aspect_num">1</property>
  <property name="kdenlive:original.meta.media.sample_aspect_den">1</property>
  <property name="kdenlive:original.format">3</property>
  <property name="kdenlive:original.audio_index">-1</property>
  <property name="kdenlive:original.video_index">0</property>
  <property name="kdenlive:original.meta.media.frame_rate_num">60</property>
  <property name="kdenlive:original.meta.media.frame_rate_den">1</property>
  <property name="kdenlive:original.meta.media.colorspace">709</property>
  <property name="kdenlive:original.meta.media.color_trc">2</property>
  <property name="kdenlive:original.meta.media.has_b_frames">2</property>
  <property name="kdenlive:original.meta.media.width">1920</property>
  <property name="kdenlive:original.meta.media.height">1080</property>
  <property name="kdenlive:original.meta.media.color_range">mpeg</property>
  <property name="kdenlive:original.meta.media.top_field_first">0</property>
  <property name="kdenlive:original.meta.media.progressive">1</property>
  <property name="kdenlive:original.kdenlive:clip_type">2</property>
  <property name="kdenlive:original.kdenlive:folderid">203</property>
  <property name="kdenlive:original.kdenlive:id">217</property>
  <property name="kdenlive:original.mute_on_pause">0</property>
  <property name="kdenlive:original.kdenlive:file_size">86271</property>
  <property name="kdenlive:original.kdenlive:file_hash">f36ea4a80ed4749304cea5f50a74d99a</property>
  <property name="kdenlive:original.backup">1</property>
  <property name="meta.media.nb_streams">1</property>
  <property name="meta.media.0.stream.type">video</property>
  <property name="meta.media.0.stream.frame_rate">60</property>
  <property name="meta.media.0.stream.sample_aspect_ratio">0</property>
  <property name="meta.media.0.codec.width">640</property>
  <property name="meta.media.0.codec.height">360</property>
  <property name="meta.media.0.codec.rotate">0</property>
  <property name="meta.media.0.codec.pix_fmt">yuvj420p</property>
  <property name="meta.media.0.codec.sample_aspect_ratio">0</property>
  <property name="meta.media.0.codec.colorspace">601</property>
  <property name="meta.media.0.codec.name">mjpeg</property>
  <property name="meta.media.0.codec.long_name">MJPEG (Motion JPEG)</property>
  <property name="meta.media.0.codec.bit_rate">0</property>
  <property name="meta.attr.0.stream.HANDLER_NAME.markup">VideoHandler</property>
  <property name="meta.attr.0.stream.VENDOR_ID.markup">[0][0][0][0]</property>
  <property name="meta.attr.0.stream.ENCODER.markup">Lavc60.3.100 mjpeg</property>
  <property name="meta.attr.0.stream.DURATION.markup">00:00:01.500000000</property>
  <property name="meta.attr.COMMENT.markup">Rendered with Manim Community v0.17.3</property>
  <property name="meta.attr.MAJOR_BRAND.markup">isom</property>
  <property name="meta.attr.MINOR_VERSION.markup">512</property>
  <property name="meta.attr.COMPATIBLE_BRANDS.markup">isomiso2avc1mp41</property>
  <property name="meta.attr.ENCODER.markup">Lavf60.3.100</property>
  <property name="meta.media.sample_aspect_num">1</property>
  <property name="meta.media.sample_aspect_den">1</property>
  <property name="meta.media.frame_rate_num">60</property>
  <property name="meta.media.frame_rate_den">1</property>
  <property name="meta.media.colorspace">601</property>
  <property name="meta.media.color_trc">2</property>
  <property name="meta.media.has_b_frames">0</property>
  <property name="meta.media.width">640</property>
  <property name="meta.media.height">360</property>
  <property name="meta.media.color_range">full</property>
  <property name="xml">was here</property>
  <property name="meta.media.top_field_first">0</property>
  <property name="meta.media.progressive">1</property>
  <property name="set.test_audio">1</property>
  <property name="set.test_image">0</property>
 </chain>
 <chain id="chain696" out="00:00:00.983">
  <property name="length">60</property>
  <property name="eof">pause</property>
  <property name="resource">/home/xiaoxiae/.cache/kdenlive/proxy/f0ebf4f0e75bbacf111c836dbd3e375f.mkv</property>
  <property name="mlt_service">avformat-novalidate</property>
  <property name="seekable">1</property>
  <property name="format">3</property>
  <property name="audio_index">-1</property>
  <property name="video_index">0</property>
  <property name="kdenlive:clipname">22.mp4</property>
  <property name="kdenlive:clip_type">2</property>
  <property name="kdenlive:folderid">203</property>
  <property name="kdenlive:id">218</property>
  <property name="mute_on_pause">0</property>
  <property name="kdenlive:file_size">233049</property>
  <property name="kdenlive:file_hash">f0ebf4f0e75bbacf111c836dbd3e375f</property>
  <property name="kdenlive:proxy">/home/xiaoxiae/.cache/kdenlive/proxy/f0ebf4f0e75bbacf111c836dbd3e375f.mkv</property>
  <property name="kdenlive:originalurl">video/Knapsack/22.mp4</property>
  <property name="kdenlive:original.mlt_type">chain</property>
  <property name="kdenlive:original.in">0</property>
  <property name="kdenlive:original.out">00:00:00.983</property>
  <property name="kdenlive:original.length">60</property>
  <property name="kdenlive:original.eof">pause</property>
  <property name="kdenlive:original.resource">video/Knapsack/22.mp4</property>
  <property name="kdenlive:original.mlt_service">avformat-novalidate</property>
  <property name="kdenlive:original.meta.media.nb_streams">1</property>
  <property name="kdenlive:original.meta.media.0.stream.type">video</property>
  <property name="kdenlive:original.meta.media.0.stream.frame_rate">60</property>
  <property name="kdenlive:original.meta.media.0.stream.sample_aspect_ratio">0</property>
  <property name="kdenlive:original.meta.media.0.codec.width">1920</property>
  <property name="kdenlive:original.meta.media.0.codec.height">1080</property>
  <property name="kdenlive:original.meta.media.0.codec.rotate">0</property>
  <property name="kdenlive:original.meta.media.0.codec.pix_fmt">yuv420p</property>
  <property name="kdenlive:original.meta.media.0.codec.sample_aspect_ratio">0</property>
  <property name="kdenlive:original.meta.media.0.codec.colorspace">709</property>
  <property name="kdenlive:original.meta.media.0.codec.name">h264</property>
  <property name="kdenlive:original.meta.media.0.codec.long_name">H.264 / AVC / MPEG-4 AVC / MPEG-4 part 10</property>
  <property name="kdenlive:original.meta.media.0.codec.bit_rate">1852616</property>
  <property name="kdenlive:original.meta.attr.0.stream.handler_name.markup">VideoHandler</property>
  <property name="kdenlive:original.meta.attr.0.stream.vendor_id.markup">[0][0][0][0]</property>
  <property name="kdenlive:original.meta.attr.0.stream.encoder.markup">Lavc60.3.100 libx264</property>
  <property name="kdenlive:original.meta.attr.major_brand.markup">isom</property>
  <property name="kdenlive:original.meta.attr.minor_version.markup">512</property>
  <property name="kdenlive:original.meta.attr.compatible_brands.markup">isomiso2avc1mp41</property>
  <property name="kdenlive:original.meta.attr.encoder.markup">Lavf60.3.100</property>
  <property name="kdenlive:original.meta.attr.comment.markup">Rendered with Manim Community v0.17.3</property>
  <property name="kdenlive:original.seekable">1</property>
  <property name="kdenlive:original.width">1920</property>
  <property name="kdenlive:original.height">1080</property>
  <property name="kdenlive:original.meta.media.sample_aspect_num">1</property>
  <property name="kdenlive:original.meta.media.sample_aspect_den">1</property>
  <property name="kdenlive:original.format">3</property>
  <property name="kdenlive:original.audio_index">-1</property>
  <property name="kdenlive:original.video_index">0</property>
  <property name="kdenlive:original.meta.media.frame_rate_num">60</property>
  <property name="kdenlive:original.meta.media.frame_rate_den">1</property>
  <property name="kdenlive:original.meta.media.colorspace">709</property>
  <property name="kdenlive:original.meta.media.color_trc">2</property>
  <property name="kdenlive:original.meta.media.has_b_frames">2</property>
  <property name="kdenlive:original.meta.media.width">1920</property>
  <property name="kdenlive:original.meta.media.height">1080</property>
  <property name="kdenlive:original.meta.media.color_range">mpeg</property>
  <property name="kdenlive:original.meta.media.top_field_first">0</property>
  <property name="kdenlive:original.meta.media.progressive">1</property>
  <property name="kdenlive:original.kdenlive:clip_type">2</property>
  <property name="kdenlive:original.kdenlive:folderid">203</property>
  <property name="kdenlive:original.kdenlive:id">218</property>
  <property name="kdenlive:original.mute_on_pause">0</property>
  <property name="kdenlive:original.kdenlive:file_size">233049</property>
  <property name="kdenlive:original.kdenlive:file_hash">f0ebf4f0e75bbacf111c836dbd3e375f</property>
  <property name="kdenlive:original.backup">1</property>
  <property name="meta.media.nb_streams">1</property>
  <property name="meta.media.0.stream.type">video</property>
  <property name="meta.media.0.stream.frame_rate">60</property>
  <property name="meta.media.0.stream.sample_aspect_ratio">0</property>
  <property name="meta.media.0.codec.width">640</property>
  <property name="meta.media.0.codec.height">360</property>
  <property name="meta.media.0.codec.rotate">0</property>
  <property name="meta.media.0.codec.pix_fmt">yuvj420p</property>
  <property name="meta.media.0.codec.sample_aspect_ratio">0</property>
  <property name="meta.media.0.codec.colorspace">601</property>
  <property name="meta.media.0.codec.name">mjpeg</property>
  <property name="meta.media.0.codec.long_name">MJPEG (Motion JPEG)</property>
  <property name="meta.media.0.codec.bit_rate">0</property>
  <property name="meta.attr.0.stream.HANDLER_NAME.markup">VideoHandler</property>
  <property name="meta.attr.0.stream.VENDOR_ID.markup">[0][0][0][0]</property>
  <property name="meta.attr.0.stream.ENCODER.markup">Lavc60.3.100 mjpeg</property>
  <property name="meta.attr.0.stream.DURATION.markup">00:00:01.000000000</property>
  <property name="meta.attr.COMMENT.markup">Rendered with Manim Community v0.17.3</property>
  <property name="meta.attr.MAJOR_BRAND.markup">isom</property>
  <property name="meta.attr.MINOR_VERSION.markup">512</property>
  <property name="meta.attr.COMPATIBLE_BRANDS.markup">isomiso2avc1mp41</property>
  <property name="meta.attr.ENCODER.markup">Lavf60.3.100</property>
  <property name="meta.media.sample_aspect_num">1</property>
  <property name="meta.media.sample_aspect_den">1</property>
  <property name="meta.media.frame_rate_num">60</property>
  <property name="meta.media.frame_rate_den">1</property>
  <property name="meta.media.colorspace">601</property>
  <property name="meta.media.color_trc">2</property>
  <property name="meta.media.has_b_frames">0</property>
  <property name="meta.media.width">640</property>
  <property name="meta.media.height">360</property>
  <property name="meta.media.color_range">full</property>
  <property name="xml">was here</property>
  <property name="meta.media.top_field_first">0</property>
  <property name="meta.media.progressive">1</property>
  <property name="set.test_audio">1</property>
  <property name="set.test_image">0</property>
 </chain>
 <chain id="chain697" out="00:00:01.483">
  <property name="length">90</property>
  <property name="eof">pause</property>
  <property name="resource">/home/xiaoxiae/.cache/kdenlive/proxy/677bcacdb4309a04305d28c568b0e870.mkv</property>
  <property name="mlt_service">avformat-novalidate</property>
  <property name="seekable">1</property>
  <property name="format">3</property>
  <property name="audio_index">-1</property>
  <property name="video_index">0</property>
  <property name="kdenlive:clipname">23.mp4</property>
  <property name="kdenlive:clip_type">2</property>
  <property name="kdenlive:folderid">203</property>
  <property name="kdenlive:id">219</property>
  <property name="mute_on_pause">0</property>
  <property name="kdenlive:file_size">369340</property>
  <property name="kdenlive:file_hash">677bcacdb4309a04305d28c568b0e870</property>
  <property name="kdenlive:proxy">/home/xiaoxiae/.cache/kdenlive/proxy/677bcacdb4309a04305d28c568b0e870.mkv</property>
  <property name="kdenlive:originalurl">video/Knapsack/23.mp4</property>
  <property name="kdenlive:original.mlt_type">chain</property>
  <property name="kdenlive:original.in">0</property>
  <property name="kdenlive:original.out">00:00:01.483</property>
  <property name="kdenlive:original.length">90</property>
  <property name="kdenlive:original.eof">pause</property>
  <property name="kdenlive:original.resource">video/Knapsack/23.mp4</property>
  <property name="kdenlive:original.mlt_service">avformat-novalidate</property>
  <property name="kdenlive:original.meta.media.nb_streams">1</property>
  <property name="kdenlive:original.meta.media.0.stream.type">video</property>
  <property name="kdenlive:original.meta.media.0.stream.frame_rate">60</property>
  <property name="kdenlive:original.meta.media.0.stream.sample_aspect_ratio">0</property>
  <property name="kdenlive:original.meta.media.0.codec.width">1920</property>
  <property name="kdenlive:original.meta.media.0.codec.height">1080</property>
  <property name="kdenlive:original.meta.media.0.codec.rotate">0</property>
  <property name="kdenlive:original.meta.media.0.codec.pix_fmt">yuv420p</property>
  <property name="kdenlive:original.meta.media.0.codec.sample_aspect_ratio">0</property>
  <property name="kdenlive:original.meta.media.0.codec.colorspace">709</property>
  <property name="kdenlive:original.meta.media.0.codec.name">h264</property>
  <property name="kdenlive:original.meta.media.0.codec.long_name">H.264 / AVC / MPEG-4 AVC / MPEG-4 part 10</property>
  <property name="kdenlive:original.meta.media.0.codec.bit_rate">1960853</property>
  <property name="kdenlive:original.meta.attr.0.stream.handler_name.markup">VideoHandler</property>
  <property name="kdenlive:original.meta.attr.0.stream.vendor_id.markup">[0][0][0][0]</property>
  <property name="kdenlive:original.meta.attr.0.stream.encoder.markup">Lavc60.3.100 libx264</property>
  <property name="kdenlive:original.meta.attr.major_brand.markup">isom</property>
  <property name="kdenlive:original.meta.attr.minor_version.markup">512</property>
  <property name="kdenlive:original.meta.attr.compatible_brands.markup">isomiso2avc1mp41</property>
  <property name="kdenlive:original.meta.attr.encoder.markup">Lavf60.3.100</property>
  <property name="kdenlive:original.meta.attr.comment.markup">Rendered with Manim Community v0.17.3</property>
  <property name="kdenlive:original.seekable">1</property>
  <property name="kdenlive:original.width">1920</property>
  <property name="kdenlive:original.height">1080</property>
  <property name="kdenlive:original.meta.media.sample_aspect_num">1</property>
  <property name="kdenlive:original.meta.media.sample_aspect_den">1</property>
  <property name="kdenlive:original.format">3</property>
  <property name="kdenlive:original.audio_index">-1</property>
  <property name="kdenlive:original.video_index">0</property>
  <property name="kdenlive:original.meta.media.frame_rate_num">60</property>
  <property name="kdenlive:original.meta.media.frame_rate_den">1</property>
  <property name="kdenlive:original.meta.media.colorspace">709</property>
  <property name="kdenlive:original.meta.media.color_trc">2</property>
  <property name="kdenlive:original.meta.media.has_b_frames">2</property>
  <property name="kdenlive:original.meta.media.width">1920</property>
  <property name="kdenlive:original.meta.media.height">1080</property>
  <property name="kdenlive:original.meta.media.color_range">mpeg</property>
  <property name="kdenlive:original.meta.media.top_field_first">0</property>
  <property name="kdenlive:original.meta.media.progressive">1</property>
  <property name="kdenlive:original.kdenlive:clip_type">2</property>
  <property name="kdenlive:original.kdenlive:folderid">203</property>
  <property name="kdenlive:original.kdenlive:id">219</property>
  <property name="kdenlive:original.mute_on_pause">0</property>
  <property name="kdenlive:original.kdenlive:file_size">369340</property>
  <property name="kdenlive:original.kdenlive:file_hash">677bcacdb4309a04305d28c568b0e870</property>
  <property name="kdenlive:original.backup">1</property>
  <property name="meta.media.nb_streams">1</property>
  <property name="meta.media.0.stream.type">video</property>
  <property name="meta.media.0.stream.frame_rate">60</property>
  <property name="meta.media.0.stream.sample_aspect_ratio">0</property>
  <property name="meta.media.0.codec.width">640</property>
  <property name="meta.media.0.codec.height">360</property>
  <property name="meta.media.0.codec.rotate">0</property>
  <property name="meta.media.0.codec.pix_fmt">yuvj420p</property>
  <property name="meta.media.0.codec.sample_aspect_ratio">0</property>
  <property name="meta.media.0.codec.colorspace">601</property>
  <property name="meta.media.0.codec.name">mjpeg</property>
  <property name="meta.media.0.codec.long_name">MJPEG (Motion JPEG)</property>
  <property name="meta.media.0.codec.bit_rate">0</property>
  <property name="meta.attr.0.stream.HANDLER_NAME.markup">VideoHandler</property>
  <property name="meta.attr.0.stream.VENDOR_ID.markup">[0][0][0][0]</property>
  <property name="meta.attr.0.stream.ENCODER.markup">Lavc60.3.100 mjpeg</property>
  <property name="meta.attr.0.stream.DURATION.markup">00:00:01.500000000</property>
  <property name="meta.attr.COMMENT.markup">Rendered with Manim Community v0.17.3</property>
  <property name="meta.attr.MAJOR_BRAND.markup">isom</property>
  <property name="meta.attr.MINOR_VERSION.markup">512</property>
  <property name="meta.attr.COMPATIBLE_BRANDS.markup">isomiso2avc1mp41</property>
  <property name="meta.attr.ENCODER.markup">Lavf60.3.100</property>
  <property name="meta.media.sample_aspect_num">1</property>
  <property name="meta.media.sample_aspect_den">1</property>
  <property name="meta.media.frame_rate_num">60</property>
  <property name="meta.media.frame_rate_den">1</property>
  <property name="meta.media.colorspace">601</property>
  <property name="meta.media.color_trc">2</property>
  <property name="meta.media.has_b_frames">0</property>
  <property name="meta.media.width">640</property>
  <property name="meta.media.height">360</property>
  <property name="meta.media.color_range">full</property>
  <property name="xml">was here</property>
  <property name="meta.media.top_field_first">0</property>
  <property name="meta.media.progressive">1</property>
  <property name="set.test_audio">1</property>
  <property name="set.test_image">0</property>
 </chain>
 <producer id="producer6" in="00:00:00.000" out="00:00:16.650">
  <property name="length">1000</property>
  <property name="eof">pause</property>
  <property name="resource">assets/slama.png</property>
  <property name="ttl">25</property>
  <property name="aspect_ratio">1</property>
  <property name="progressive">1</property>
  <property name="seekable">1</property>
  <property name="format">2</property>
  <property name="meta.media.width">3657</property>
  <property name="meta.media.height">7054</property>
  <property name="mlt_service">qimage</property>
  <property name="kdenlive:clipname"/>
  <property name="kdenlive:duration">00:00:05:00</property>
  <property name="kdenlive:folderid">597</property>
  <property name="kdenlive:id">614</property>
  <property name="kdenlive:clip_type">2</property>
  <property name="kdenlive:file_size">1512153</property>
  <property name="kdenlive:file_hash">e83568001f9f5b0aeda0ae8dfa38826e</property>
 </producer>
 <chain id="chain698" out="00:00:00.983">
  <property name="length">60</property>
  <property name="eof">pause</property>
  <property name="resource">/home/xiaoxiae/.cache/kdenlive/proxy/e8ef54c58c1be21e6ad6d6be5d5114c7.mkv</property>
  <property name="mlt_service">avformat-novalidate</property>
  <property name="seekable">1</property>
  <property name="format">3</property>
  <property name="audio_index">-1</property>
  <property name="video_index">0</property>
  <property name="kdenlive:clipname">1.mp4</property>
  <property name="kdenlive:clip_type">2</property>
  <property name="kdenlive:folderid">227</property>
  <property name="kdenlive:id">228</property>
  <property name="mute_on_pause">0</property>
  <property name="kdenlive:file_size">18901</property>
  <property name="kdenlive:file_hash">e8ef54c58c1be21e6ad6d6be5d5114c7</property>
  <property name="kdenlive:proxy">/home/xiaoxiae/.cache/kdenlive/proxy/e8ef54c58c1be21e6ad6d6be5d5114c7.mkv</property>
  <property name="kdenlive:originalurl">video/Outro/1.mp4</property>
  <property name="kdenlive:original.mlt_type">chain</property>
  <property name="kdenlive:original.in">0</property>
  <property name="kdenlive:original.out">00:00:00.983</property>
  <property name="kdenlive:original.length">60</property>
  <property name="kdenlive:original.eof">pause</property>
  <property name="kdenlive:original.resource">video/Outro/1.mp4</property>
  <property name="kdenlive:original.mlt_service">avformat-novalidate</property>
  <property name="kdenlive:original.meta.media.nb_streams">1</property>
  <property name="kdenlive:original.meta.media.0.stream.type">video</property>
  <property name="kdenlive:original.meta.media.0.stream.frame_rate">60</property>
  <property name="kdenlive:original.meta.media.0.stream.sample_aspect_ratio">0</property>
  <property name="kdenlive:original.meta.media.0.codec.width">1920</property>
  <property name="kdenlive:original.meta.media.0.codec.height">1080</property>
  <property name="kdenlive:original.meta.media.0.codec.rotate">0</property>
  <property name="kdenlive:original.meta.media.0.codec.pix_fmt">yuv420p</property>
  <property name="kdenlive:original.meta.media.0.codec.sample_aspect_ratio">0</property>
  <property name="kdenlive:original.meta.media.0.codec.colorspace">709</property>
  <property name="kdenlive:original.meta.media.0.codec.name">h264</property>
  <property name="kdenlive:original.meta.media.0.codec.long_name">H.264 / AVC / MPEG-4 AVC / MPEG-4 part 10</property>
  <property name="kdenlive:original.meta.media.0.codec.bit_rate">138472</property>
  <property name="kdenlive:original.meta.attr.0.stream.handler_name.markup">VideoHandler</property>
  <property name="kdenlive:original.meta.attr.0.stream.vendor_id.markup">[0][0][0][0]</property>
  <property name="kdenlive:original.meta.attr.0.stream.encoder.markup">Lavc60.3.100 libx264</property>
  <property name="kdenlive:original.meta.attr.major_brand.markup">isom</property>
  <property name="kdenlive:original.meta.attr.minor_version.markup">512</property>
  <property name="kdenlive:original.meta.attr.compatible_brands.markup">isomiso2avc1mp41</property>
  <property name="kdenlive:original.meta.attr.encoder.markup">Lavf60.3.100</property>
  <property name="kdenlive:original.meta.attr.comment.markup">Rendered with Manim Community v0.17.3</property>
  <property name="kdenlive:original.seekable">1</property>
  <property name="kdenlive:original.width">1920</property>
  <property name="kdenlive:original.height">1080</property>
  <property name="kdenlive:original.meta.media.sample_aspect_num">1</property>
  <property name="kdenlive:original.meta.media.sample_aspect_den">1</property>
  <property name="kdenlive:original.format">3</property>
  <property name="kdenlive:original.audio_index">-1</property>
  <property name="kdenlive:original.video_index">0</property>
  <property name="kdenlive:original.meta.media.frame_rate_num">60</property>
  <property name="kdenlive:original.meta.media.frame_rate_den">1</property>
  <property name="kdenlive:original.meta.media.colorspace">709</property>
  <property name="kdenlive:original.meta.media.color_trc">2</property>
  <property name="kdenlive:original.meta.media.has_b_frames">2</property>
  <property name="kdenlive:original.meta.media.width">1920</property>
  <property name="kdenlive:original.meta.media.height">1080</property>
  <property name="kdenlive:original.meta.media.color_range">mpeg</property>
  <property name="kdenlive:original.meta.media.top_field_first">0</property>
  <property name="kdenlive:original.meta.media.progressive">1</property>
  <property name="kdenlive:original.kdenlive:clip_type">2</property>
  <property name="kdenlive:original.kdenlive:folderid">227</property>
  <property name="kdenlive:original.kdenlive:id">228</property>
  <property name="kdenlive:original.mute_on_pause">0</property>
  <property name="kdenlive:original.kdenlive:file_size">18901</property>
  <property name="kdenlive:original.kdenlive:file_hash">e8ef54c58c1be21e6ad6d6be5d5114c7</property>
  <property name="kdenlive:original.backup">1</property>
  <property name="meta.media.nb_streams">1</property>
  <property name="meta.media.0.stream.type">video</property>
  <property name="meta.media.0.stream.frame_rate">60</property>
  <property name="meta.media.0.stream.sample_aspect_ratio">0</property>
  <property name="meta.media.0.codec.width">640</property>
  <property name="meta.media.0.codec.height">360</property>
  <property name="meta.media.0.codec.rotate">0</property>
  <property name="meta.media.0.codec.pix_fmt">yuvj420p</property>
  <property name="meta.media.0.codec.sample_aspect_ratio">0</property>
  <property name="meta.media.0.codec.colorspace">601</property>
  <property name="meta.media.0.codec.name">mjpeg</property>
  <property name="meta.media.0.codec.long_name">MJPEG (Motion JPEG)</property>
  <property name="meta.media.0.codec.bit_rate">0</property>
  <property name="meta.attr.0.stream.HANDLER_NAME.markup">VideoHandler</property>
  <property name="meta.attr.0.stream.VENDOR_ID.markup">[0][0][0][0]</property>
  <property name="meta.attr.0.stream.ENCODER.markup">Lavc60.3.100 mjpeg</property>
  <property name="meta.attr.0.stream.DURATION.markup">00:00:01.000000000</property>
  <property name="meta.attr.COMMENT.markup">Rendered with Manim Community v0.17.3</property>
  <property name="meta.attr.MAJOR_BRAND.markup">isom</property>
  <property name="meta.attr.MINOR_VERSION.markup">512</property>
  <property name="meta.attr.COMPATIBLE_BRANDS.markup">isomiso2avc1mp41</property>
  <property name="meta.attr.ENCODER.markup">Lavf60.3.100</property>
  <property name="meta.media.sample_aspect_num">1</property>
  <property name="meta.media.sample_aspect_den">1</property>
  <property name="meta.media.frame_rate_num">60</property>
  <property name="meta.media.frame_rate_den">1</property>
  <property name="meta.media.colorspace">601</property>
  <property name="meta.media.color_trc">2</property>
  <property name="meta.media.has_b_frames">0</property>
  <property name="meta.media.width">640</property>
  <property name="meta.media.height">360</property>
  <property name="meta.media.color_range">full</property>
  <property name="xml">was here</property>
  <property name="meta.media.top_field_first">0</property>
  <property name="meta.media.progressive">1</property>
  <property name="set.test_audio">1</property>
  <property name="set.test_image">0</property>
 </chain>
 <chain id="chain699" out="00:00:00.983">
  <property name="length">60</property>
  <property name="eof">pause</property>
  <property name="resource">/home/xiaoxiae/.cache/kdenlive/proxy/ebaabe73177539b2a0a3f6ab5494fb3d.mkv</property>
  <property name="mlt_service">avformat-novalidate</property>
  <property name="seekable">1</property>
  <property name="format">3</property>
  <property name="audio_index">-1</property>
  <property name="video_index">0</property>
  <property name="kdenlive:clipname">2.mp4</property>
  <property name="kdenlive:clip_type">2</property>
  <property name="kdenlive:folderid">227</property>
  <property name="kdenlive:id">232</property>
  <property name="mute_on_pause">0</property>
  <property name="kdenlive:file_size">28156</property>
  <property name="kdenlive:file_hash">ebaabe73177539b2a0a3f6ab5494fb3d</property>
  <property name="kdenlive:proxy">/home/xiaoxiae/.cache/kdenlive/proxy/ebaabe73177539b2a0a3f6ab5494fb3d.mkv</property>
  <property name="kdenlive:originalurl">video/Outro/2.mp4</property>
  <property name="kdenlive:original.mlt_type">chain</property>
  <property name="kdenlive:original.in">0</property>
  <property name="kdenlive:original.out">00:00:00.983</property>
  <property name="kdenlive:original.length">60</property>
  <property name="kdenlive:original.eof">pause</property>
  <property name="kdenlive:original.resource">video/Outro/2.mp4</property>
  <property name="kdenlive:original.mlt_service">avformat-novalidate</property>
  <property name="kdenlive:original.meta.media.nb_streams">1</property>
  <property name="kdenlive:original.meta.media.0.stream.type">video</property>
  <property name="kdenlive:original.meta.media.0.stream.frame_rate">60</property>
  <property name="kdenlive:original.meta.media.0.stream.sample_aspect_ratio">0</property>
  <property name="kdenlive:original.meta.media.0.codec.width">1920</property>
  <property name="kdenlive:original.meta.media.0.codec.height">1080</property>
  <property name="kdenlive:original.meta.media.0.codec.rotate">0</property>
  <property name="kdenlive:original.meta.media.0.codec.pix_fmt">yuv420p</property>
  <property name="kdenlive:original.meta.media.0.codec.sample_aspect_ratio">0</property>
  <property name="kdenlive:original.meta.media.0.codec.colorspace">709</property>
  <property name="kdenlive:original.meta.media.0.codec.name">h264</property>
  <property name="kdenlive:original.meta.media.0.codec.long_name">H.264 / AVC / MPEG-4 AVC / MPEG-4 part 10</property>
  <property name="kdenlive:original.meta.media.0.codec.bit_rate">212192</property>
  <property name="kdenlive:original.meta.attr.0.stream.handler_name.markup">VideoHandler</property>
  <property name="kdenlive:original.meta.attr.0.stream.vendor_id.markup">[0][0][0][0]</property>
  <property name="kdenlive:original.meta.attr.0.stream.encoder.markup">Lavc60.3.100 libx264</property>
  <property name="kdenlive:original.meta.attr.major_brand.markup">isom</property>
  <property name="kdenlive:original.meta.attr.minor_version.markup">512</property>
  <property name="kdenlive:original.meta.attr.compatible_brands.markup">isomiso2avc1mp41</property>
  <property name="kdenlive:original.meta.attr.encoder.markup">Lavf60.3.100</property>
  <property name="kdenlive:original.meta.attr.comment.markup">Rendered with Manim Community v0.17.3</property>
  <property name="kdenlive:original.seekable">1</property>
  <property name="kdenlive:original.width">1920</property>
  <property name="kdenlive:original.height">1080</property>
  <property name="kdenlive:original.meta.media.sample_aspect_num">1</property>
  <property name="kdenlive:original.meta.media.sample_aspect_den">1</property>
  <property name="kdenlive:original.format">3</property>
  <property name="kdenlive:original.audio_index">-1</property>
  <property name="kdenlive:original.video_index">0</property>
  <property name="kdenlive:original.meta.media.frame_rate_num">60</property>
  <property name="kdenlive:original.meta.media.frame_rate_den">1</property>
  <property name="kdenlive:original.meta.media.colorspace">709</property>
  <property name="kdenlive:original.meta.media.color_trc">2</property>
  <property name="kdenlive:original.meta.media.has_b_frames">2</property>
  <property name="kdenlive:original.meta.media.width">1920</property>
  <property name="kdenlive:original.meta.media.height">1080</property>
  <property name="kdenlive:original.meta.media.color_range">mpeg</property>
  <property name="kdenlive:original.meta.media.top_field_first">0</property>
  <property name="kdenlive:original.meta.media.progressive">1</property>
  <property name="kdenlive:original.kdenlive:clip_type">2</property>
  <property name="kdenlive:original.kdenlive:folderid">227</property>
  <property name="kdenlive:original.kdenlive:id">232</property>
  <property name="kdenlive:original.mute_on_pause">0</property>
  <property name="kdenlive:original.kdenlive:file_size">28156</property>
  <property name="kdenlive:original.kdenlive:file_hash">ebaabe73177539b2a0a3f6ab5494fb3d</property>
  <property name="kdenlive:original.backup">1</property>
  <property name="meta.media.nb_streams">1</property>
  <property name="meta.media.0.stream.type">video</property>
  <property name="meta.media.0.stream.frame_rate">60</property>
  <property name="meta.media.0.stream.sample_aspect_ratio">0</property>
  <property name="meta.media.0.codec.width">640</property>
  <property name="meta.media.0.codec.height">360</property>
  <property name="meta.media.0.codec.rotate">0</property>
  <property name="meta.media.0.codec.pix_fmt">yuvj420p</property>
  <property name="meta.media.0.codec.sample_aspect_ratio">0</property>
  <property name="meta.media.0.codec.colorspace">601</property>
  <property name="meta.media.0.codec.name">mjpeg</property>
  <property name="meta.media.0.codec.long_name">MJPEG (Motion JPEG)</property>
  <property name="meta.media.0.codec.bit_rate">0</property>
  <property name="meta.attr.0.stream.HANDLER_NAME.markup">VideoHandler</property>
  <property name="meta.attr.0.stream.VENDOR_ID.markup">[0][0][0][0]</property>
  <property name="meta.attr.0.stream.ENCODER.markup">Lavc60.3.100 mjpeg</property>
  <property name="meta.attr.0.stream.DURATION.markup">00:00:01.000000000</property>
  <property name="meta.attr.COMMENT.markup">Rendered with Manim Community v0.17.3</property>
  <property name="meta.attr.MAJOR_BRAND.markup">isom</property>
  <property name="meta.attr.MINOR_VERSION.markup">512</property>
  <property name="meta.attr.COMPATIBLE_BRANDS.markup">isomiso2avc1mp41</property>
  <property name="meta.attr.ENCODER.markup">Lavf60.3.100</property>
  <property name="meta.media.sample_aspect_num">1</property>
  <property name="meta.media.sample_aspect_den">1</property>
  <property name="meta.media.frame_rate_num">60</property>
  <property name="meta.media.frame_rate_den">1</property>
  <property name="meta.media.colorspace">601</property>
  <property name="meta.media.color_trc">2</property>
  <property name="meta.media.has_b_frames">0</property>
  <property name="meta.media.width">640</property>
  <property name="meta.media.height">360</property>
  <property name="meta.media.color_range">full</property>
  <property name="xml">was here</property>
  <property name="meta.media.top_field_first">0</property>
  <property name="meta.media.progressive">1</property>
  <property name="set.test_audio">1</property>
  <property name="set.test_image">0</property>
 </chain>
 <chain id="chain700" out="00:00:01.233">
  <property name="length">75</property>
  <property name="eof">pause</property>
  <property name="resource">/home/xiaoxiae/.cache/kdenlive/proxy/2a643906b4ea1b70ee93d6f406b3e848.mkv</property>
  <property name="mlt_service">avformat-novalidate</property>
  <property name="seekable">1</property>
  <property name="format">3</property>
  <property name="audio_index">-1</property>
  <property name="video_index">0</property>
  <property name="kdenlive:clipname">3.mp4</property>
  <property name="kdenlive:clip_type">2</property>
  <property name="kdenlive:folderid">227</property>
  <property name="kdenlive:id">233</property>
  <property name="mute_on_pause">0</property>
  <property name="kdenlive:file_size">26224</property>
  <property name="kdenlive:file_hash">2a643906b4ea1b70ee93d6f406b3e848</property>
  <property name="kdenlive:proxy">/home/xiaoxiae/.cache/kdenlive/proxy/2a643906b4ea1b70ee93d6f406b3e848.mkv</property>
  <property name="kdenlive:originalurl">video/Outro/3.mp4</property>
  <property name="kdenlive:original.mlt_type">chain</property>
  <property name="kdenlive:original.in">0</property>
  <property name="kdenlive:original.out">00:00:01.233</property>
  <property name="kdenlive:original.length">75</property>
  <property name="kdenlive:original.eof">pause</property>
  <property name="kdenlive:original.resource">video/Outro/3.mp4</property>
  <property name="kdenlive:original.mlt_service">avformat-novalidate</property>
  <property name="kdenlive:original.meta.media.nb_streams">1</property>
  <property name="kdenlive:original.meta.media.0.stream.type">video</property>
  <property name="kdenlive:original.meta.media.0.stream.frame_rate">60</property>
  <property name="kdenlive:original.meta.media.0.stream.sample_aspect_ratio">0</property>
  <property name="kdenlive:original.meta.media.0.codec.width">1920</property>
  <property name="kdenlive:original.meta.media.0.codec.height">1080</property>
  <property name="kdenlive:original.meta.media.0.codec.rotate">0</property>
  <property name="kdenlive:original.meta.media.0.codec.pix_fmt">yuv420p</property>
  <property name="kdenlive:original.meta.media.0.codec.sample_aspect_ratio">0</property>
  <property name="kdenlive:original.meta.media.0.codec.colorspace">709</property>
  <property name="kdenlive:original.meta.media.0.codec.name">h264</property>
  <property name="kdenlive:original.meta.media.0.codec.long_name">H.264 / AVC / MPEG-4 AVC / MPEG-4 part 10</property>
  <property name="kdenlive:original.meta.media.0.codec.bit_rate">156185</property>
  <property name="kdenlive:original.meta.attr.0.stream.handler_name.markup">VideoHandler</property>
  <property name="kdenlive:original.meta.attr.0.stream.vendor_id.markup">[0][0][0][0]</property>
  <property name="kdenlive:original.meta.attr.0.stream.encoder.markup">Lavc60.3.100 libx264</property>
  <property name="kdenlive:original.meta.attr.major_brand.markup">isom</property>
  <property name="kdenlive:original.meta.attr.minor_version.markup">512</property>
  <property name="kdenlive:original.meta.attr.compatible_brands.markup">isomiso2avc1mp41</property>
  <property name="kdenlive:original.meta.attr.encoder.markup">Lavf60.3.100</property>
  <property name="kdenlive:original.meta.attr.comment.markup">Rendered with Manim Community v0.17.3</property>
  <property name="kdenlive:original.seekable">1</property>
  <property name="kdenlive:original.width">1920</property>
  <property name="kdenlive:original.height">1080</property>
  <property name="kdenlive:original.meta.media.sample_aspect_num">1</property>
  <property name="kdenlive:original.meta.media.sample_aspect_den">1</property>
  <property name="kdenlive:original.format">3</property>
  <property name="kdenlive:original.audio_index">-1</property>
  <property name="kdenlive:original.video_index">0</property>
  <property name="kdenlive:original.meta.media.frame_rate_num">60</property>
  <property name="kdenlive:original.meta.media.frame_rate_den">1</property>
  <property name="kdenlive:original.meta.media.colorspace">709</property>
  <property name="kdenlive:original.meta.media.color_trc">2</property>
  <property name="kdenlive:original.meta.media.has_b_frames">2</property>
  <property name="kdenlive:original.meta.media.width">1920</property>
  <property name="kdenlive:original.meta.media.height">1080</property>
  <property name="kdenlive:original.meta.media.color_range">mpeg</property>
  <property name="kdenlive:original.meta.media.top_field_first">0</property>
  <property name="kdenlive:original.meta.media.progressive">1</property>
  <property name="kdenlive:original.kdenlive:clip_type">2</property>
  <property name="kdenlive:original.kdenlive:folderid">227</property>
  <property name="kdenlive:original.kdenlive:id">233</property>
  <property name="kdenlive:original.mute_on_pause">0</property>
  <property name="kdenlive:original.kdenlive:file_size">26224</property>
  <property name="kdenlive:original.kdenlive:file_hash">2a643906b4ea1b70ee93d6f406b3e848</property>
  <property name="kdenlive:original.backup">1</property>
  <property name="meta.media.nb_streams">1</property>
  <property name="meta.media.0.stream.type">video</property>
  <property name="meta.media.0.stream.frame_rate">60</property>
  <property name="meta.media.0.stream.sample_aspect_ratio">0</property>
  <property name="meta.media.0.codec.width">640</property>
  <property name="meta.media.0.codec.height">360</property>
  <property name="meta.media.0.codec.rotate">0</property>
  <property name="meta.media.0.codec.pix_fmt">yuvj420p</property>
  <property name="meta.media.0.codec.sample_aspect_ratio">0</property>
  <property name="meta.media.0.codec.colorspace">601</property>
  <property name="meta.media.0.codec.name">mjpeg</property>
  <property name="meta.media.0.codec.long_name">MJPEG (Motion JPEG)</property>
  <property name="meta.media.0.codec.bit_rate">0</property>
  <property name="meta.attr.0.stream.HANDLER_NAME.markup">VideoHandler</property>
  <property name="meta.attr.0.stream.VENDOR_ID.markup">[0][0][0][0]</property>
  <property name="meta.attr.0.stream.ENCODER.markup">Lavc60.3.100 mjpeg</property>
  <property name="meta.attr.0.stream.DURATION.markup">00:00:01.250000000</property>
  <property name="meta.attr.COMMENT.markup">Rendered with Manim Community v0.17.3</property>
  <property name="meta.attr.MAJOR_BRAND.markup">isom</property>
  <property name="meta.attr.MINOR_VERSION.markup">512</property>
  <property name="meta.attr.COMPATIBLE_BRANDS.markup">isomiso2avc1mp41</property>
  <property name="meta.attr.ENCODER.markup">Lavf60.3.100</property>
  <property name="meta.media.sample_aspect_num">1</property>
  <property name="meta.media.sample_aspect_den">1</property>
  <property name="meta.media.frame_rate_num">60</property>
  <property name="meta.media.frame_rate_den">1</property>
  <property name="meta.media.colorspace">601</property>
  <property name="meta.media.color_trc">2</property>
  <property name="meta.media.has_b_frames">0</property>
  <property name="meta.media.width">640</property>
  <property name="meta.media.height">360</property>
  <property name="meta.media.color_range">full</property>
  <property name="xml">was here</property>
  <property name="meta.media.top_field_first">0</property>
  <property name="meta.media.progressive">1</property>
  <property name="set.test_audio">1</property>
  <property name="set.test_image">0</property>
 </chain>
 <chain id="chain701" out="00:00:01.233">
  <property name="length">75</property>
  <property name="eof">pause</property>
  <property name="resource">/home/xiaoxiae/.cache/kdenlive/proxy/b9340dd63d6c46b28ef93d0a1bb228c7.mkv</property>
  <property name="mlt_service">avformat-novalidate</property>
  <property name="seekable">1</property>
  <property name="format">3</property>
  <property name="audio_index">-1</property>
  <property name="video_index">0</property>
  <property name="kdenlive:clipname">4.mp4</property>
  <property name="kdenlive:clip_type">2</property>
  <property name="kdenlive:folderid">227</property>
  <property name="kdenlive:id">234</property>
  <property name="mute_on_pause">0</property>
  <property name="kdenlive:file_size">29877</property>
  <property name="kdenlive:file_hash">b9340dd63d6c46b28ef93d0a1bb228c7</property>
  <property name="kdenlive:proxy">/home/xiaoxiae/.cache/kdenlive/proxy/b9340dd63d6c46b28ef93d0a1bb228c7.mkv</property>
  <property name="kdenlive:originalurl">video/Outro/4.mp4</property>
  <property name="kdenlive:original.mlt_type">chain</property>
  <property name="kdenlive:original.in">0</property>
  <property name="kdenlive:original.out">00:00:01.233</property>
  <property name="kdenlive:original.length">75</property>
  <property name="kdenlive:original.eof">pause</property>
  <property name="kdenlive:original.resource">video/Outro/4.mp4</property>
  <property name="kdenlive:original.mlt_service">avformat-novalidate</property>
  <property name="kdenlive:original.meta.media.nb_streams">1</property>
  <property name="kdenlive:original.meta.media.0.stream.type">video</property>
  <property name="kdenlive:original.meta.media.0.stream.frame_rate">60</property>
  <property name="kdenlive:original.meta.media.0.stream.sample_aspect_ratio">0</property>
  <property name="kdenlive:original.meta.media.0.codec.width">1920</property>
  <property name="kdenlive:original.meta.media.0.codec.height">1080</property>
  <property name="kdenlive:original.meta.media.0.codec.rotate">0</property>
  <property name="kdenlive:original.meta.media.0.codec.pix_fmt">yuv420p</property>
  <property name="kdenlive:original.meta.media.0.codec.sample_aspect_ratio">0</property>
  <property name="kdenlive:original.meta.media.0.codec.colorspace">709</property>
  <property name="kdenlive:original.meta.media.0.codec.name">h264</property>
  <property name="kdenlive:original.meta.media.0.codec.long_name">H.264 / AVC / MPEG-4 AVC / MPEG-4 part 10</property>
  <property name="kdenlive:original.meta.media.0.codec.bit_rate">179667</property>
  <property name="kdenlive:original.meta.attr.0.stream.handler_name.markup">VideoHandler</property>
  <property name="kdenlive:original.meta.attr.0.stream.vendor_id.markup">[0][0][0][0]</property>
  <property name="kdenlive:original.meta.attr.0.stream.encoder.markup">Lavc60.3.100 libx264</property>
  <property name="kdenlive:original.meta.attr.major_brand.markup">isom</property>
  <property name="kdenlive:original.meta.attr.minor_version.markup">512</property>
  <property name="kdenlive:original.meta.attr.compatible_brands.markup">isomiso2avc1mp41</property>
  <property name="kdenlive:original.meta.attr.encoder.markup">Lavf60.3.100</property>
  <property name="kdenlive:original.meta.attr.comment.markup">Rendered with Manim Community v0.17.3</property>
  <property name="kdenlive:original.seekable">1</property>
  <property name="kdenlive:original.width">1920</property>
  <property name="kdenlive:original.height">1080</property>
  <property name="kdenlive:original.meta.media.sample_aspect_num">1</property>
  <property name="kdenlive:original.meta.media.sample_aspect_den">1</property>
  <property name="kdenlive:original.format">3</property>
  <property name="kdenlive:original.audio_index">-1</property>
  <property name="kdenlive:original.video_index">0</property>
  <property name="kdenlive:original.meta.media.frame_rate_num">60</property>
  <property name="kdenlive:original.meta.media.frame_rate_den">1</property>
  <property name="kdenlive:original.meta.media.colorspace">709</property>
  <property name="kdenlive:original.meta.media.color_trc">2</property>
  <property name="kdenlive:original.meta.media.has_b_frames">2</property>
  <property name="kdenlive:original.meta.media.width">1920</property>
  <property name="kdenlive:original.meta.media.height">1080</property>
  <property name="kdenlive:original.meta.media.color_range">mpeg</property>
  <property name="kdenlive:original.meta.media.top_field_first">0</property>
  <property name="kdenlive:original.meta.media.progressive">1</property>
  <property name="kdenlive:original.kdenlive:clip_type">2</property>
  <property name="kdenlive:original.kdenlive:folderid">227</property>
  <property name="kdenlive:original.kdenlive:id">234</property>
  <property name="kdenlive:original.mute_on_pause">0</property>
  <property name="kdenlive:original.kdenlive:file_size">29877</property>
  <property name="kdenlive:original.kdenlive:file_hash">b9340dd63d6c46b28ef93d0a1bb228c7</property>
  <property name="kdenlive:original.backup">1</property>
  <property name="meta.media.nb_streams">1</property>
  <property name="meta.media.0.stream.type">video</property>
  <property name="meta.media.0.stream.frame_rate">60</property>
  <property name="meta.media.0.stream.sample_aspect_ratio">0</property>
  <property name="meta.media.0.codec.width">640</property>
  <property name="meta.media.0.codec.height">360</property>
  <property name="meta.media.0.codec.rotate">0</property>
  <property name="meta.media.0.codec.pix_fmt">yuvj420p</property>
  <property name="meta.media.0.codec.sample_aspect_ratio">0</property>
  <property name="meta.media.0.codec.colorspace">601</property>
  <property name="meta.media.0.codec.name">mjpeg</property>
  <property name="meta.media.0.codec.long_name">MJPEG (Motion JPEG)</property>
  <property name="meta.media.0.codec.bit_rate">0</property>
  <property name="meta.attr.0.stream.HANDLER_NAME.markup">VideoHandler</property>
  <property name="meta.attr.0.stream.VENDOR_ID.markup">[0][0][0][0]</property>
  <property name="meta.attr.0.stream.ENCODER.markup">Lavc60.3.100 mjpeg</property>
  <property name="meta.attr.0.stream.DURATION.markup">00:00:01.250000000</property>
  <property name="meta.attr.COMMENT.markup">Rendered with Manim Community v0.17.3</property>
  <property name="meta.attr.MAJOR_BRAND.markup">isom</property>
  <property name="meta.attr.MINOR_VERSION.markup">512</property>
  <property name="meta.attr.COMPATIBLE_BRANDS.markup">isomiso2avc1mp41</property>
  <property name="meta.attr.ENCODER.markup">Lavf60.3.100</property>
  <property name="meta.media.sample_aspect_num">1</property>
  <property name="meta.media.sample_aspect_den">1</property>
  <property name="meta.media.frame_rate_num">60</property>
  <property name="meta.media.frame_rate_den">1</property>
  <property name="meta.media.colorspace">601</property>
  <property name="meta.media.color_trc">2</property>
  <property name="meta.media.has_b_frames">0</property>
  <property name="meta.media.width">640</property>
  <property name="meta.media.height">360</property>
  <property name="meta.media.color_range">full</property>
  <property name="xml">was here</property>
  <property name="meta.media.top_field_first">0</property>
  <property name="meta.media.progressive">1</property>
  <property name="set.test_audio">1</property>
  <property name="set.test_image">0</property>
 </chain>
 <chain id="chain702" out="00:00:00.983">
  <property name="length">60</property>
  <property name="eof">pause</property>
  <property name="resource">/home/xiaoxiae/.cache/kdenlive/proxy/4b646a638f6056e49b64755909c43e25.mkv</property>
  <property name="mlt_service">avformat-novalidate</property>
  <property name="seekable">1</property>
  <property name="format">3</property>
  <property name="audio_index">-1</property>
  <property name="video_index">0</property>
  <property name="kdenlive:clipname">5.mp4</property>
  <property name="kdenlive:clip_type">2</property>
  <property name="kdenlive:folderid">227</property>
  <property name="kdenlive:id">235</property>
  <property name="mute_on_pause">0</property>
  <property name="kdenlive:file_size">29129</property>
  <property name="kdenlive:file_hash">4b646a638f6056e49b64755909c43e25</property>
  <property name="kdenlive:proxy">/home/xiaoxiae/.cache/kdenlive/proxy/4b646a638f6056e49b64755909c43e25.mkv</property>
  <property name="kdenlive:originalurl">video/Outro/5.mp4</property>
  <property name="kdenlive:original.mlt_type">chain</property>
  <property name="kdenlive:original.in">0</property>
  <property name="kdenlive:original.out">00:00:00.983</property>
  <property name="kdenlive:original.length">60</property>
  <property name="kdenlive:original.eof">pause</property>
  <property name="kdenlive:original.resource">video/Outro/5.mp4</property>
  <property name="kdenlive:original.mlt_service">avformat-novalidate</property>
  <property name="kdenlive:original.meta.media.nb_streams">1</property>
  <property name="kdenlive:original.meta.media.0.stream.type">video</property>
  <property name="kdenlive:original.meta.media.0.stream.frame_rate">60</property>
  <property name="kdenlive:original.meta.media.0.stream.sample_aspect_ratio">0</property>
  <property name="kdenlive:original.meta.media.0.codec.width">1920</property>
  <property name="kdenlive:original.meta.media.0.codec.height">1080</property>
  <property name="kdenlive:original.meta.media.0.codec.rotate">0</property>
  <property name="kdenlive:original.meta.media.0.codec.pix_fmt">yuv420p</property>
  <property name="kdenlive:original.meta.media.0.codec.sample_aspect_ratio">0</property>
  <property name="kdenlive:original.meta.media.0.codec.colorspace">709</property>
  <property name="kdenlive:original.meta.media.0.codec.name">h264</property>
  <property name="kdenlive:original.meta.media.0.codec.long_name">H.264 / AVC / MPEG-4 AVC / MPEG-4 part 10</property>
  <property name="kdenlive:original.meta.media.0.codec.bit_rate">219976</property>
  <property name="kdenlive:original.meta.attr.0.stream.handler_name.markup">VideoHandler</property>
  <property name="kdenlive:original.meta.attr.0.stream.vendor_id.markup">[0][0][0][0]</property>
  <property name="kdenlive:original.meta.attr.0.stream.encoder.markup">Lavc60.3.100 libx264</property>
  <property name="kdenlive:original.meta.attr.major_brand.markup">isom</property>
  <property name="kdenlive:original.meta.attr.minor_version.markup">512</property>
  <property name="kdenlive:original.meta.attr.compatible_brands.markup">isomiso2avc1mp41</property>
  <property name="kdenlive:original.meta.attr.encoder.markup">Lavf60.3.100</property>
  <property name="kdenlive:original.meta.attr.comment.markup">Rendered with Manim Community v0.17.3</property>
  <property name="kdenlive:original.seekable">1</property>
  <property name="kdenlive:original.width">1920</property>
  <property name="kdenlive:original.height">1080</property>
  <property name="kdenlive:original.meta.media.sample_aspect_num">1</property>
  <property name="kdenlive:original.meta.media.sample_aspect_den">1</property>
  <property name="kdenlive:original.format">3</property>
  <property name="kdenlive:original.audio_index">-1</property>
  <property name="kdenlive:original.video_index">0</property>
  <property name="kdenlive:original.meta.media.frame_rate_num">60</property>
  <property name="kdenlive:original.meta.media.frame_rate_den">1</property>
  <property name="kdenlive:original.meta.media.colorspace">709</property>
  <property name="kdenlive:original.meta.media.color_trc">2</property>
  <property name="kdenlive:original.meta.media.has_b_frames">2</property>
  <property name="kdenlive:original.meta.media.width">1920</property>
  <property name="kdenlive:original.meta.media.height">1080</property>
  <property name="kdenlive:original.meta.media.color_range">mpeg</property>
  <property name="kdenlive:original.meta.media.top_field_first">0</property>
  <property name="kdenlive:original.meta.media.progressive">1</property>
  <property name="kdenlive:original.kdenlive:clip_type">2</property>
  <property name="kdenlive:original.kdenlive:folderid">227</property>
  <property name="kdenlive:original.kdenlive:id">235</property>
  <property name="kdenlive:original.mute_on_pause">0</property>
  <property name="kdenlive:original.kdenlive:file_size">29129</property>
  <property name="kdenlive:original.kdenlive:file_hash">4b646a638f6056e49b64755909c43e25</property>
  <property name="kdenlive:original.backup">1</property>
  <property name="meta.media.nb_streams">1</property>
  <property name="meta.media.0.stream.type">video</property>
  <property name="meta.media.0.stream.frame_rate">60</property>
  <property name="meta.media.0.stream.sample_aspect_ratio">0</property>
  <property name="meta.media.0.codec.width">640</property>
  <property name="meta.media.0.codec.height">360</property>
  <property name="meta.media.0.codec.rotate">0</property>
  <property name="meta.media.0.codec.pix_fmt">yuvj420p</property>
  <property name="meta.media.0.codec.sample_aspect_ratio">0</property>
  <property name="meta.media.0.codec.colorspace">601</property>
  <property name="meta.media.0.codec.name">mjpeg</property>
  <property name="meta.media.0.codec.long_name">MJPEG (Motion JPEG)</property>
  <property name="meta.media.0.codec.bit_rate">0</property>
  <property name="meta.attr.0.stream.HANDLER_NAME.markup">VideoHandler</property>
  <property name="meta.attr.0.stream.VENDOR_ID.markup">[0][0][0][0]</property>
  <property name="meta.attr.0.stream.ENCODER.markup">Lavc60.3.100 mjpeg</property>
  <property name="meta.attr.0.stream.DURATION.markup">00:00:01.000000000</property>
  <property name="meta.attr.COMMENT.markup">Rendered with Manim Community v0.17.3</property>
  <property name="meta.attr.MAJOR_BRAND.markup">isom</property>
  <property name="meta.attr.MINOR_VERSION.markup">512</property>
  <property name="meta.attr.COMPATIBLE_BRANDS.markup">isomiso2avc1mp41</property>
  <property name="meta.attr.ENCODER.markup">Lavf60.3.100</property>
  <property name="meta.media.sample_aspect_num">1</property>
  <property name="meta.media.sample_aspect_den">1</property>
  <property name="meta.media.frame_rate_num">60</property>
  <property name="meta.media.frame_rate_den">1</property>
  <property name="meta.media.colorspace">601</property>
  <property name="meta.media.color_trc">2</property>
  <property name="meta.media.has_b_frames">0</property>
  <property name="meta.media.width">640</property>
  <property name="meta.media.height">360</property>
  <property name="meta.media.color_range">full</property>
  <property name="xml">was here</property>
  <property name="meta.media.top_field_first">0</property>
  <property name="meta.media.progressive">1</property>
  <property name="set.test_audio">1</property>
  <property name="set.test_image">0</property>
 </chain>
 <chain id="chain703" out="00:00:00.983">
  <property name="length">60</property>
  <property name="eof">pause</property>
  <property name="resource">/home/xiaoxiae/.cache/kdenlive/proxy/580f3d2a7b9091acf20b8ec35c4d3ee5.mkv</property>
  <property name="mlt_service">avformat-novalidate</property>
  <property name="seekable">1</property>
  <property name="format">3</property>
  <property name="audio_index">-1</property>
  <property name="video_index">0</property>
  <property name="kdenlive:clipname">6.mp4</property>
  <property name="kdenlive:clip_type">2</property>
  <property name="kdenlive:folderid">227</property>
  <property name="kdenlive:id">236</property>
  <property name="mute_on_pause">0</property>
  <property name="kdenlive:file_size">32463</property>
  <property name="kdenlive:file_hash">580f3d2a7b9091acf20b8ec35c4d3ee5</property>
  <property name="kdenlive:proxy">/home/xiaoxiae/.cache/kdenlive/proxy/580f3d2a7b9091acf20b8ec35c4d3ee5.mkv</property>
  <property name="kdenlive:originalurl">video/Outro/6.mp4</property>
  <property name="kdenlive:original.mlt_type">chain</property>
  <property name="kdenlive:original.in">0</property>
  <property name="kdenlive:original.out">00:00:00.983</property>
  <property name="kdenlive:original.length">60</property>
  <property name="kdenlive:original.eof">pause</property>
  <property name="kdenlive:original.resource">video/Outro/6.mp4</property>
  <property name="kdenlive:original.mlt_service">avformat-novalidate</property>
  <property name="kdenlive:original.meta.media.nb_streams">1</property>
  <property name="kdenlive:original.meta.media.0.stream.type">video</property>
  <property name="kdenlive:original.meta.media.0.stream.frame_rate">60</property>
  <property name="kdenlive:original.meta.media.0.stream.sample_aspect_ratio">0</property>
  <property name="kdenlive:original.meta.media.0.codec.width">1920</property>
  <property name="kdenlive:original.meta.media.0.codec.height">1080</property>
  <property name="kdenlive:original.meta.media.0.codec.rotate">0</property>
  <property name="kdenlive:original.meta.media.0.codec.pix_fmt">yuv420p</property>
  <property name="kdenlive:original.meta.media.0.codec.sample_aspect_ratio">0</property>
  <property name="kdenlive:original.meta.media.0.codec.colorspace">709</property>
  <property name="kdenlive:original.meta.media.0.codec.name">h264</property>
  <property name="kdenlive:original.meta.media.0.codec.long_name">H.264 / AVC / MPEG-4 AVC / MPEG-4 part 10</property>
  <property name="kdenlive:original.meta.media.0.codec.bit_rate">246648</property>
  <property name="kdenlive:original.meta.attr.0.stream.handler_name.markup">VideoHandler</property>
  <property name="kdenlive:original.meta.attr.0.stream.vendor_id.markup">[0][0][0][0]</property>
  <property name="kdenlive:original.meta.attr.0.stream.encoder.markup">Lavc60.3.100 libx264</property>
  <property name="kdenlive:original.meta.attr.major_brand.markup">isom</property>
  <property name="kdenlive:original.meta.attr.minor_version.markup">512</property>
  <property name="kdenlive:original.meta.attr.compatible_brands.markup">isomiso2avc1mp41</property>
  <property name="kdenlive:original.meta.attr.encoder.markup">Lavf60.3.100</property>
  <property name="kdenlive:original.meta.attr.comment.markup">Rendered with Manim Community v0.17.3</property>
  <property name="kdenlive:original.seekable">1</property>
  <property name="kdenlive:original.width">1920</property>
  <property name="kdenlive:original.height">1080</property>
  <property name="kdenlive:original.meta.media.sample_aspect_num">1</property>
  <property name="kdenlive:original.meta.media.sample_aspect_den">1</property>
  <property name="kdenlive:original.format">3</property>
  <property name="kdenlive:original.audio_index">-1</property>
  <property name="kdenlive:original.video_index">0</property>
  <property name="kdenlive:original.meta.media.frame_rate_num">60</property>
  <property name="kdenlive:original.meta.media.frame_rate_den">1</property>
  <property name="kdenlive:original.meta.media.colorspace">709</property>
  <property name="kdenlive:original.meta.media.color_trc">2</property>
  <property name="kdenlive:original.meta.media.has_b_frames">2</property>
  <property name="kdenlive:original.meta.media.width">1920</property>
  <property name="kdenlive:original.meta.media.height">1080</property>
  <property name="kdenlive:original.meta.media.color_range">mpeg</property>
  <property name="kdenlive:original.meta.media.top_field_first">0</property>
  <property name="kdenlive:original.meta.media.progressive">1</property>
  <property name="kdenlive:original.kdenlive:clip_type">2</property>
  <property name="kdenlive:original.kdenlive:folderid">227</property>
  <property name="kdenlive:original.kdenlive:id">236</property>
  <property name="kdenlive:original.mute_on_pause">0</property>
  <property name="kdenlive:original.kdenlive:file_size">32463</property>
  <property name="kdenlive:original.kdenlive:file_hash">580f3d2a7b9091acf20b8ec35c4d3ee5</property>
  <property name="kdenlive:original.backup">1</property>
  <property name="meta.media.nb_streams">1</property>
  <property name="meta.media.0.stream.type">video</property>
  <property name="meta.media.0.stream.frame_rate">60</property>
  <property name="meta.media.0.stream.sample_aspect_ratio">0</property>
  <property name="meta.media.0.codec.width">640</property>
  <property name="meta.media.0.codec.height">360</property>
  <property name="meta.media.0.codec.rotate">0</property>
  <property name="meta.media.0.codec.pix_fmt">yuvj420p</property>
  <property name="meta.media.0.codec.sample_aspect_ratio">0</property>
  <property name="meta.media.0.codec.colorspace">601</property>
  <property name="meta.media.0.codec.name">mjpeg</property>
  <property name="meta.media.0.codec.long_name">MJPEG (Motion JPEG)</property>
  <property name="meta.media.0.codec.bit_rate">0</property>
  <property name="meta.attr.0.stream.HANDLER_NAME.markup">VideoHandler</property>
  <property name="meta.attr.0.stream.VENDOR_ID.markup">[0][0][0][0]</property>
  <property name="meta.attr.0.stream.ENCODER.markup">Lavc60.3.100 mjpeg</property>
  <property name="meta.attr.0.stream.DURATION.markup">00:00:01.000000000</property>
  <property name="meta.attr.COMMENT.markup">Rendered with Manim Community v0.17.3</property>
  <property name="meta.attr.MAJOR_BRAND.markup">isom</property>
  <property name="meta.attr.MINOR_VERSION.markup">512</property>
  <property name="meta.attr.COMPATIBLE_BRANDS.markup">isomiso2avc1mp41</property>
  <property name="meta.attr.ENCODER.markup">Lavf60.3.100</property>
  <property name="meta.media.sample_aspect_num">1</property>
  <property name="meta.media.sample_aspect_den">1</property>
  <property name="meta.media.frame_rate_num">60</property>
  <property name="meta.media.frame_rate_den">1</property>
  <property name="meta.media.colorspace">601</property>
  <property name="meta.media.color_trc">2</property>
  <property name="meta.media.has_b_frames">0</property>
  <property name="meta.media.width">640</property>
  <property name="meta.media.height">360</property>
  <property name="meta.media.color_range">full</property>
  <property name="xml">was here</property>
  <property name="meta.media.top_field_first">0</property>
  <property name="meta.media.progressive">1</property>
  <property name="set.test_audio">1</property>
  <property name="set.test_image">0</property>
 </chain>
 <chain id="chain704" out="00:00:00.983">
  <property name="length">60</property>
  <property name="eof">pause</property>
  <property name="resource">/home/xiaoxiae/.cache/kdenlive/proxy/5183dd013841f056876a2898c950dbd9.mkv</property>
  <property name="mlt_service">avformat-novalidate</property>
  <property name="seekable">1</property>
  <property name="format">3</property>
  <property name="audio_index">-1</property>
  <property name="video_index">0</property>
  <property name="kdenlive:clipname">7.mp4</property>
  <property name="kdenlive:clip_type">2</property>
  <property name="kdenlive:folderid">227</property>
  <property name="kdenlive:id">237</property>
  <property name="mute_on_pause">0</property>
  <property name="kdenlive:file_size">37990</property>
  <property name="kdenlive:file_hash">5183dd013841f056876a2898c950dbd9</property>
  <property name="kdenlive:proxy">/home/xiaoxiae/.cache/kdenlive/proxy/5183dd013841f056876a2898c950dbd9.mkv</property>
  <property name="kdenlive:originalurl">video/Outro/7.mp4</property>
  <property name="kdenlive:original.mlt_type">chain</property>
  <property name="kdenlive:original.in">0</property>
  <property name="kdenlive:original.out">00:00:00.983</property>
  <property name="kdenlive:original.length">60</property>
  <property name="kdenlive:original.eof">pause</property>
  <property name="kdenlive:original.resource">video/Outro/7.mp4</property>
  <property name="kdenlive:original.mlt_service">avformat-novalidate</property>
  <property name="kdenlive:original.meta.media.nb_streams">1</property>
  <property name="kdenlive:original.meta.media.0.stream.type">video</property>
  <property name="kdenlive:original.meta.media.0.stream.frame_rate">60</property>
  <property name="kdenlive:original.meta.media.0.stream.sample_aspect_ratio">0</property>
  <property name="kdenlive:original.meta.media.0.codec.width">1920</property>
  <property name="kdenlive:original.meta.media.0.codec.height">1080</property>
  <property name="kdenlive:original.meta.media.0.codec.rotate">0</property>
  <property name="kdenlive:original.meta.media.0.codec.pix_fmt">yuv420p</property>
  <property name="kdenlive:original.meta.media.0.codec.sample_aspect_ratio">0</property>
  <property name="kdenlive:original.meta.media.0.codec.colorspace">709</property>
  <property name="kdenlive:original.meta.media.0.codec.name">h264</property>
  <property name="kdenlive:original.meta.media.0.codec.long_name">H.264 / AVC / MPEG-4 AVC / MPEG-4 part 10</property>
  <property name="kdenlive:original.meta.media.0.codec.bit_rate">290864</property>
  <property name="kdenlive:original.meta.attr.0.stream.handler_name.markup">VideoHandler</property>
  <property name="kdenlive:original.meta.attr.0.stream.vendor_id.markup">[0][0][0][0]</property>
  <property name="kdenlive:original.meta.attr.0.stream.encoder.markup">Lavc60.3.100 libx264</property>
  <property name="kdenlive:original.meta.attr.major_brand.markup">isom</property>
  <property name="kdenlive:original.meta.attr.minor_version.markup">512</property>
  <property name="kdenlive:original.meta.attr.compatible_brands.markup">isomiso2avc1mp41</property>
  <property name="kdenlive:original.meta.attr.encoder.markup">Lavf60.3.100</property>
  <property name="kdenlive:original.meta.attr.comment.markup">Rendered with Manim Community v0.17.3</property>
  <property name="kdenlive:original.seekable">1</property>
  <property name="kdenlive:original.width">1920</property>
  <property name="kdenlive:original.height">1080</property>
  <property name="kdenlive:original.meta.media.sample_aspect_num">1</property>
  <property name="kdenlive:original.meta.media.sample_aspect_den">1</property>
  <property name="kdenlive:original.format">3</property>
  <property name="kdenlive:original.audio_index">-1</property>
  <property name="kdenlive:original.video_index">0</property>
  <property name="kdenlive:original.meta.media.frame_rate_num">60</property>
  <property name="kdenlive:original.meta.media.frame_rate_den">1</property>
  <property name="kdenlive:original.meta.media.colorspace">709</property>
  <property name="kdenlive:original.meta.media.color_trc">2</property>
  <property name="kdenlive:original.meta.media.has_b_frames">2</property>
  <property name="kdenlive:original.meta.media.width">1920</property>
  <property name="kdenlive:original.meta.media.height">1080</property>
  <property name="kdenlive:original.meta.media.color_range">mpeg</property>
  <property name="kdenlive:original.meta.media.top_field_first">0</property>
  <property name="kdenlive:original.meta.media.progressive">1</property>
  <property name="kdenlive:original.kdenlive:clip_type">2</property>
  <property name="kdenlive:original.kdenlive:folderid">227</property>
  <property name="kdenlive:original.kdenlive:id">237</property>
  <property name="kdenlive:original.mute_on_pause">0</property>
  <property name="kdenlive:original.kdenlive:file_size">37990</property>
  <property name="kdenlive:original.kdenlive:file_hash">5183dd013841f056876a2898c950dbd9</property>
  <property name="kdenlive:original.backup">1</property>
  <property name="meta.media.nb_streams">1</property>
  <property name="meta.media.0.stream.type">video</property>
  <property name="meta.media.0.stream.frame_rate">60</property>
  <property name="meta.media.0.stream.sample_aspect_ratio">0</property>
  <property name="meta.media.0.codec.width">640</property>
  <property name="meta.media.0.codec.height">360</property>
  <property name="meta.media.0.codec.rotate">0</property>
  <property name="meta.media.0.codec.pix_fmt">yuvj420p</property>
  <property name="meta.media.0.codec.sample_aspect_ratio">0</property>
  <property name="meta.media.0.codec.colorspace">601</property>
  <property name="meta.media.0.codec.name">mjpeg</property>
  <property name="meta.media.0.codec.long_name">MJPEG (Motion JPEG)</property>
  <property name="meta.media.0.codec.bit_rate">0</property>
  <property name="meta.attr.0.stream.HANDLER_NAME.markup">VideoHandler</property>
  <property name="meta.attr.0.stream.VENDOR_ID.markup">[0][0][0][0]</property>
  <property name="meta.attr.0.stream.ENCODER.markup">Lavc60.3.100 mjpeg</property>
  <property name="meta.attr.0.stream.DURATION.markup">00:00:01.000000000</property>
  <property name="meta.attr.COMMENT.markup">Rendered with Manim Community v0.17.3</property>
  <property name="meta.attr.MAJOR_BRAND.markup">isom</property>
  <property name="meta.attr.MINOR_VERSION.markup">512</property>
  <property name="meta.attr.COMPATIBLE_BRANDS.markup">isomiso2avc1mp41</property>
  <property name="meta.attr.ENCODER.markup">Lavf60.3.100</property>
  <property name="meta.media.sample_aspect_num">1</property>
  <property name="meta.media.sample_aspect_den">1</property>
  <property name="meta.media.frame_rate_num">60</property>
  <property name="meta.media.frame_rate_den">1</property>
  <property name="meta.media.colorspace">601</property>
  <property name="meta.media.color_trc">2</property>
  <property name="meta.media.has_b_frames">0</property>
  <property name="meta.media.width">640</property>
  <property name="meta.media.height">360</property>
  <property name="meta.media.color_range">full</property>
  <property name="xml">was here</property>
  <property name="meta.media.top_field_first">0</property>
  <property name="meta.media.progressive">1</property>
  <property name="set.test_audio">1</property>
  <property name="set.test_image">0</property>
 </chain>
 <chain id="chain705" out="00:00:00.983">
  <property name="length">60</property>
  <property name="eof">pause</property>
  <property name="resource">/home/xiaoxiae/.cache/kdenlive/proxy/f073bb73b95a1b719373e55c9bf0e7d2.mkv</property>
  <property name="mlt_service">avformat-novalidate</property>
  <property name="seekable">1</property>
  <property name="format">3</property>
  <property name="audio_index">-1</property>
  <property name="video_index">0</property>
  <property name="kdenlive:clipname">8.mp4</property>
  <property name="kdenlive:clip_type">2</property>
  <property name="kdenlive:folderid">227</property>
  <property name="kdenlive:id">238</property>
  <property name="mute_on_pause">0</property>
  <property name="kdenlive:file_size">41485</property>
  <property name="kdenlive:file_hash">f073bb73b95a1b719373e55c9bf0e7d2</property>
  <property name="kdenlive:proxy">/home/xiaoxiae/.cache/kdenlive/proxy/f073bb73b95a1b719373e55c9bf0e7d2.mkv</property>
  <property name="kdenlive:originalurl">video/Outro/8.mp4</property>
  <property name="kdenlive:original.mlt_type">chain</property>
  <property name="kdenlive:original.in">0</property>
  <property name="kdenlive:original.out">00:00:00.983</property>
  <property name="kdenlive:original.length">60</property>
  <property name="kdenlive:original.eof">pause</property>
  <property name="kdenlive:original.resource">video/Outro/8.mp4</property>
  <property name="kdenlive:original.mlt_service">avformat-novalidate</property>
  <property name="kdenlive:original.meta.media.nb_streams">1</property>
  <property name="kdenlive:original.meta.media.0.stream.type">video</property>
  <property name="kdenlive:original.meta.media.0.stream.frame_rate">60</property>
  <property name="kdenlive:original.meta.media.0.stream.sample_aspect_ratio">0</property>
  <property name="kdenlive:original.meta.media.0.codec.width">1920</property>
  <property name="kdenlive:original.meta.media.0.codec.height">1080</property>
  <property name="kdenlive:original.meta.media.0.codec.rotate">0</property>
  <property name="kdenlive:original.meta.media.0.codec.pix_fmt">yuv420p</property>
  <property name="kdenlive:original.meta.media.0.codec.sample_aspect_ratio">0</property>
  <property name="kdenlive:original.meta.media.0.codec.colorspace">709</property>
  <property name="kdenlive:original.meta.media.0.codec.name">h264</property>
  <property name="kdenlive:original.meta.media.0.codec.long_name">H.264 / AVC / MPEG-4 AVC / MPEG-4 part 10</property>
  <property name="kdenlive:original.meta.media.0.codec.bit_rate">318824</property>
  <property name="kdenlive:original.meta.attr.0.stream.handler_name.markup">VideoHandler</property>
  <property name="kdenlive:original.meta.attr.0.stream.vendor_id.markup">[0][0][0][0]</property>
  <property name="kdenlive:original.meta.attr.0.stream.encoder.markup">Lavc60.3.100 libx264</property>
  <property name="kdenlive:original.meta.attr.major_brand.markup">isom</property>
  <property name="kdenlive:original.meta.attr.minor_version.markup">512</property>
  <property name="kdenlive:original.meta.attr.compatible_brands.markup">isomiso2avc1mp41</property>
  <property name="kdenlive:original.meta.attr.encoder.markup">Lavf60.3.100</property>
  <property name="kdenlive:original.meta.attr.comment.markup">Rendered with Manim Community v0.17.3</property>
  <property name="kdenlive:original.seekable">1</property>
  <property name="kdenlive:original.width">1920</property>
  <property name="kdenlive:original.height">1080</property>
  <property name="kdenlive:original.meta.media.sample_aspect_num">1</property>
  <property name="kdenlive:original.meta.media.sample_aspect_den">1</property>
  <property name="kdenlive:original.format">3</property>
  <property name="kdenlive:original.audio_index">-1</property>
  <property name="kdenlive:original.video_index">0</property>
  <property name="kdenlive:original.meta.media.frame_rate_num">60</property>
  <property name="kdenlive:original.meta.media.frame_rate_den">1</property>
  <property name="kdenlive:original.meta.media.colorspace">709</property>
  <property name="kdenlive:original.meta.media.color_trc">2</property>
  <property name="kdenlive:original.meta.media.has_b_frames">2</property>
  <property name="kdenlive:original.meta.media.width">1920</property>
  <property name="kdenlive:original.meta.media.height">1080</property>
  <property name="kdenlive:original.meta.media.color_range">mpeg</property>
  <property name="kdenlive:original.meta.media.top_field_first">0</property>
  <property name="kdenlive:original.meta.media.progressive">1</property>
  <property name="kdenlive:original.kdenlive:clip_type">2</property>
  <property name="kdenlive:original.kdenlive:folderid">227</property>
  <property name="kdenlive:original.kdenlive:id">238</property>
  <property name="kdenlive:original.mute_on_pause">0</property>
  <property name="kdenlive:original.kdenlive:file_size">41485</property>
  <property name="kdenlive:original.kdenlive:file_hash">f073bb73b95a1b719373e55c9bf0e7d2</property>
  <property name="kdenlive:original.backup">1</property>
  <property name="meta.media.nb_streams">1</property>
  <property name="meta.media.0.stream.type">video</property>
  <property name="meta.media.0.stream.frame_rate">60</property>
  <property name="meta.media.0.stream.sample_aspect_ratio">0</property>
  <property name="meta.media.0.codec.width">640</property>
  <property name="meta.media.0.codec.height">360</property>
  <property name="meta.media.0.codec.rotate">0</property>
  <property name="meta.media.0.codec.pix_fmt">yuvj420p</property>
  <property name="meta.media.0.codec.sample_aspect_ratio">0</property>
  <property name="meta.media.0.codec.colorspace">601</property>
  <property name="meta.media.0.codec.name">mjpeg</property>
  <property name="meta.media.0.codec.long_name">MJPEG (Motion JPEG)</property>
  <property name="meta.media.0.codec.bit_rate">0</property>
  <property name="meta.attr.0.stream.HANDLER_NAME.markup">VideoHandler</property>
  <property name="meta.attr.0.stream.VENDOR_ID.markup">[0][0][0][0]</property>
  <property name="meta.attr.0.stream.ENCODER.markup">Lavc60.3.100 mjpeg</property>
  <property name="meta.attr.0.stream.DURATION.markup">00:00:01.000000000</property>
  <property name="meta.attr.COMMENT.markup">Rendered with Manim Community v0.17.3</property>
  <property name="meta.attr.MAJOR_BRAND.markup">isom</property>
  <property name="meta.attr.MINOR_VERSION.markup">512</property>
  <property name="meta.attr.COMPATIBLE_BRANDS.markup">isomiso2avc1mp41</property>
  <property name="meta.attr.ENCODER.markup">Lavf60.3.100</property>
  <property name="meta.media.sample_aspect_num">1</property>
  <property name="meta.media.sample_aspect_den">1</property>
  <property name="meta.media.frame_rate_num">60</property>
  <property name="meta.media.frame_rate_den">1</property>
  <property name="meta.media.colorspace">601</property>
  <property name="meta.media.color_trc">2</property>
  <property name="meta.media.has_b_frames">0</property>
  <property name="meta.media.width">640</property>
  <property name="meta.media.height">360</property>
  <property name="meta.media.color_range">full</property>
  <property name="xml">was here</property>
  <property name="meta.media.top_field_first">0</property>
  <property name="meta.media.progressive">1</property>
  <property name="set.test_audio">1</property>
  <property name="set.test_image">0</property>
 </chain>
 <chain id="chain706" out="00:00:00.983">
  <property name="length">60</property>
  <property name="eof">pause</property>
  <property name="resource">/home/xiaoxiae/.cache/kdenlive/proxy/1777801173f67777bf00d564e3bcb3c6.mkv</property>
  <property name="mlt_service">avformat-novalidate</property>
  <property name="seekable">1</property>
  <property name="format">3</property>
  <property name="audio_index">-1</property>
  <property name="video_index">0</property>
  <property name="kdenlive:clipname">9.mp4</property>
  <property name="kdenlive:clip_type">2</property>
  <property name="kdenlive:folderid">227</property>
  <property name="kdenlive:id">239</property>
  <property name="mute_on_pause">0</property>
  <property name="kdenlive:file_size">45674</property>
  <property name="kdenlive:file_hash">1777801173f67777bf00d564e3bcb3c6</property>
  <property name="kdenlive:proxy">/home/xiaoxiae/.cache/kdenlive/proxy/1777801173f67777bf00d564e3bcb3c6.mkv</property>
  <property name="kdenlive:originalurl">video/Outro/9.mp4</property>
  <property name="kdenlive:original.mlt_type">chain</property>
  <property name="kdenlive:original.in">0</property>
  <property name="kdenlive:original.out">00:00:00.983</property>
  <property name="kdenlive:original.length">60</property>
  <property name="kdenlive:original.eof">pause</property>
  <property name="kdenlive:original.resource">video/Outro/9.mp4</property>
  <property name="kdenlive:original.mlt_service">avformat-novalidate</property>
  <property name="kdenlive:original.meta.media.nb_streams">1</property>
  <property name="kdenlive:original.meta.media.0.stream.type">video</property>
  <property name="kdenlive:original.meta.media.0.stream.frame_rate">60</property>
  <property name="kdenlive:original.meta.media.0.stream.sample_aspect_ratio">0</property>
  <property name="kdenlive:original.meta.media.0.codec.width">1920</property>
  <property name="kdenlive:original.meta.media.0.codec.height">1080</property>
  <property name="kdenlive:original.meta.media.0.codec.rotate">0</property>
  <property name="kdenlive:original.meta.media.0.codec.pix_fmt">yuv420p</property>
  <property name="kdenlive:original.meta.media.0.codec.sample_aspect_ratio">0</property>
  <property name="kdenlive:original.meta.media.0.codec.colorspace">709</property>
  <property name="kdenlive:original.meta.media.0.codec.name">h264</property>
  <property name="kdenlive:original.meta.media.0.codec.long_name">H.264 / AVC / MPEG-4 AVC / MPEG-4 part 10</property>
  <property name="kdenlive:original.meta.media.0.codec.bit_rate">352336</property>
  <property name="kdenlive:original.meta.attr.0.stream.handler_name.markup">VideoHandler</property>
  <property name="kdenlive:original.meta.attr.0.stream.vendor_id.markup">[0][0][0][0]</property>
  <property name="kdenlive:original.meta.attr.0.stream.encoder.markup">Lavc60.3.100 libx264</property>
  <property name="kdenlive:original.meta.attr.major_brand.markup">isom</property>
  <property name="kdenlive:original.meta.attr.minor_version.markup">512</property>
  <property name="kdenlive:original.meta.attr.compatible_brands.markup">isomiso2avc1mp41</property>
  <property name="kdenlive:original.meta.attr.encoder.markup">Lavf60.3.100</property>
  <property name="kdenlive:original.meta.attr.comment.markup">Rendered with Manim Community v0.17.3</property>
  <property name="kdenlive:original.seekable">1</property>
  <property name="kdenlive:original.width">1920</property>
  <property name="kdenlive:original.height">1080</property>
  <property name="kdenlive:original.meta.media.sample_aspect_num">1</property>
  <property name="kdenlive:original.meta.media.sample_aspect_den">1</property>
  <property name="kdenlive:original.format">3</property>
  <property name="kdenlive:original.audio_index">-1</property>
  <property name="kdenlive:original.video_index">0</property>
  <property name="kdenlive:original.meta.media.frame_rate_num">60</property>
  <property name="kdenlive:original.meta.media.frame_rate_den">1</property>
  <property name="kdenlive:original.meta.media.colorspace">709</property>
  <property name="kdenlive:original.meta.media.color_trc">2</property>
  <property name="kdenlive:original.meta.media.has_b_frames">2</property>
  <property name="kdenlive:original.meta.media.width">1920</property>
  <property name="kdenlive:original.meta.media.height">1080</property>
  <property name="kdenlive:original.meta.media.color_range">mpeg</property>
  <property name="kdenlive:original.meta.media.top_field_first">0</property>
  <property name="kdenlive:original.meta.media.progressive">1</property>
  <property name="kdenlive:original.kdenlive:clip_type">2</property>
  <property name="kdenlive:original.kdenlive:folderid">227</property>
  <property name="kdenlive:original.kdenlive:id">239</property>
  <property name="kdenlive:original.mute_on_pause">0</property>
  <property name="kdenlive:original.kdenlive:file_size">45674</property>
  <property name="kdenlive:original.kdenlive:file_hash">1777801173f67777bf00d564e3bcb3c6</property>
  <property name="kdenlive:original.backup">1</property>
  <property name="meta.media.nb_streams">1</property>
  <property name="meta.media.0.stream.type">video</property>
  <property name="meta.media.0.stream.frame_rate">60</property>
  <property name="meta.media.0.stream.sample_aspect_ratio">0</property>
  <property name="meta.media.0.codec.width">640</property>
  <property name="meta.media.0.codec.height">360</property>
  <property name="meta.media.0.codec.rotate">0</property>
  <property name="meta.media.0.codec.pix_fmt">yuvj420p</property>
  <property name="meta.media.0.codec.sample_aspect_ratio">0</property>
  <property name="meta.media.0.codec.colorspace">601</property>
  <property name="meta.media.0.codec.name">mjpeg</property>
  <property name="meta.media.0.codec.long_name">MJPEG (Motion JPEG)</property>
  <property name="meta.media.0.codec.bit_rate">0</property>
  <property name="meta.attr.0.stream.HANDLER_NAME.markup">VideoHandler</property>
  <property name="meta.attr.0.stream.VENDOR_ID.markup">[0][0][0][0]</property>
  <property name="meta.attr.0.stream.ENCODER.markup">Lavc60.3.100 mjpeg</property>
  <property name="meta.attr.0.stream.DURATION.markup">00:00:01.000000000</property>
  <property name="meta.attr.COMMENT.markup">Rendered with Manim Community v0.17.3</property>
  <property name="meta.attr.MAJOR_BRAND.markup">isom</property>
  <property name="meta.attr.MINOR_VERSION.markup">512</property>
  <property name="meta.attr.COMPATIBLE_BRANDS.markup">isomiso2avc1mp41</property>
  <property name="meta.attr.ENCODER.markup">Lavf60.3.100</property>
  <property name="meta.media.sample_aspect_num">1</property>
  <property name="meta.media.sample_aspect_den">1</property>
  <property name="meta.media.frame_rate_num">60</property>
  <property name="meta.media.frame_rate_den">1</property>
  <property name="meta.media.colorspace">601</property>
  <property name="meta.media.color_trc">2</property>
  <property name="meta.media.has_b_frames">0</property>
  <property name="meta.media.width">640</property>
  <property name="meta.media.height">360</property>
  <property name="meta.media.color_range">full</property>
  <property name="xml">was here</property>
  <property name="meta.media.top_field_first">0</property>
  <property name="meta.media.progressive">1</property>
  <property name="set.test_audio">1</property>
  <property name="set.test_image">0</property>
 </chain>
 <chain id="chain707" out="00:00:02.233">
  <property name="length">135</property>
  <property name="eof">pause</property>
  <property name="resource">/home/xiaoxiae/.cache/kdenlive/proxy/da4f870b34d72f3b3b90ad890a52b551.mkv</property>
  <property name="mlt_service">avformat-novalidate</property>
  <property name="seekable">1</property>
  <property name="format">3</property>
  <property name="audio_index">-1</property>
  <property name="video_index">0</property>
  <property name="kdenlive:clipname">10.mp4</property>
  <property name="kdenlive:clip_type">2</property>
  <property name="kdenlive:folderid">227</property>
  <property name="kdenlive:id">229</property>
  <property name="mute_on_pause">0</property>
  <property name="kdenlive:file_size">182349</property>
  <property name="kdenlive:file_hash">da4f870b34d72f3b3b90ad890a52b551</property>
  <property name="kdenlive:proxy">/home/xiaoxiae/.cache/kdenlive/proxy/da4f870b34d72f3b3b90ad890a52b551.mkv</property>
  <property name="kdenlive:originalurl">video/Outro/10.mp4</property>
  <property name="kdenlive:original.mlt_type">chain</property>
  <property name="kdenlive:original.in">0</property>
  <property name="kdenlive:original.out">00:00:02.233</property>
  <property name="kdenlive:original.length">135</property>
  <property name="kdenlive:original.eof">pause</property>
  <property name="kdenlive:original.resource">video/Outro/10.mp4</property>
  <property name="kdenlive:original.mlt_service">avformat-novalidate</property>
  <property name="kdenlive:original.meta.media.nb_streams">1</property>
  <property name="kdenlive:original.meta.media.0.stream.type">video</property>
  <property name="kdenlive:original.meta.media.0.stream.frame_rate">60</property>
  <property name="kdenlive:original.meta.media.0.stream.sample_aspect_ratio">0</property>
  <property name="kdenlive:original.meta.media.0.codec.width">1920</property>
  <property name="kdenlive:original.meta.media.0.codec.height">1080</property>
  <property name="kdenlive:original.meta.media.0.codec.rotate">0</property>
  <property name="kdenlive:original.meta.media.0.codec.pix_fmt">yuv420p</property>
  <property name="kdenlive:original.meta.media.0.codec.sample_aspect_ratio">0</property>
  <property name="kdenlive:original.meta.media.0.codec.colorspace">709</property>
  <property name="kdenlive:original.meta.media.0.codec.name">h264</property>
  <property name="kdenlive:original.meta.media.0.codec.long_name">H.264 / AVC / MPEG-4 AVC / MPEG-4 part 10</property>
  <property name="kdenlive:original.meta.media.0.codec.bit_rate">640060</property>
  <property name="kdenlive:original.meta.attr.0.stream.handler_name.markup">VideoHandler</property>
  <property name="kdenlive:original.meta.attr.0.stream.vendor_id.markup">[0][0][0][0]</property>
  <property name="kdenlive:original.meta.attr.0.stream.encoder.markup">Lavc60.3.100 libx264</property>
  <property name="kdenlive:original.meta.attr.major_brand.markup">isom</property>
  <property name="kdenlive:original.meta.attr.minor_version.markup">512</property>
  <property name="kdenlive:original.meta.attr.compatible_brands.markup">isomiso2avc1mp41</property>
  <property name="kdenlive:original.meta.attr.encoder.markup">Lavf60.3.100</property>
  <property name="kdenlive:original.meta.attr.comment.markup">Rendered with Manim Community v0.17.3</property>
  <property name="kdenlive:original.seekable">1</property>
  <property name="kdenlive:original.width">1920</property>
  <property name="kdenlive:original.height">1080</property>
  <property name="kdenlive:original.meta.media.sample_aspect_num">1</property>
  <property name="kdenlive:original.meta.media.sample_aspect_den">1</property>
  <property name="kdenlive:original.format">3</property>
  <property name="kdenlive:original.audio_index">-1</property>
  <property name="kdenlive:original.video_index">0</property>
  <property name="kdenlive:original.meta.media.frame_rate_num">60</property>
  <property name="kdenlive:original.meta.media.frame_rate_den">1</property>
  <property name="kdenlive:original.meta.media.colorspace">709</property>
  <property name="kdenlive:original.meta.media.color_trc">2</property>
  <property name="kdenlive:original.meta.media.has_b_frames">2</property>
  <property name="kdenlive:original.meta.media.width">1920</property>
  <property name="kdenlive:original.meta.media.height">1080</property>
  <property name="kdenlive:original.meta.media.color_range">mpeg</property>
  <property name="kdenlive:original.meta.media.top_field_first">0</property>
  <property name="kdenlive:original.meta.media.progressive">1</property>
  <property name="kdenlive:original.kdenlive:clip_type">2</property>
  <property name="kdenlive:original.kdenlive:folderid">227</property>
  <property name="kdenlive:original.kdenlive:id">229</property>
  <property name="kdenlive:original.mute_on_pause">0</property>
  <property name="kdenlive:original.kdenlive:file_size">182349</property>
  <property name="kdenlive:original.kdenlive:file_hash">da4f870b34d72f3b3b90ad890a52b551</property>
  <property name="kdenlive:original.backup">1</property>
  <property name="meta.media.nb_streams">1</property>
  <property name="meta.media.0.stream.type">video</property>
  <property name="meta.media.0.stream.frame_rate">60</property>
  <property name="meta.media.0.stream.sample_aspect_ratio">0</property>
  <property name="meta.media.0.codec.width">640</property>
  <property name="meta.media.0.codec.height">360</property>
  <property name="meta.media.0.codec.rotate">0</property>
  <property name="meta.media.0.codec.pix_fmt">yuvj420p</property>
  <property name="meta.media.0.codec.sample_aspect_ratio">0</property>
  <property name="meta.media.0.codec.colorspace">601</property>
  <property name="meta.media.0.codec.name">mjpeg</property>
  <property name="meta.media.0.codec.long_name">MJPEG (Motion JPEG)</property>
  <property name="meta.media.0.codec.bit_rate">0</property>
  <property name="meta.attr.0.stream.HANDLER_NAME.markup">VideoHandler</property>
  <property name="meta.attr.0.stream.VENDOR_ID.markup">[0][0][0][0]</property>
  <property name="meta.attr.0.stream.ENCODER.markup">Lavc60.3.100 mjpeg</property>
  <property name="meta.attr.0.stream.DURATION.markup">00:00:02.250000000</property>
  <property name="meta.attr.COMMENT.markup">Rendered with Manim Community v0.17.3</property>
  <property name="meta.attr.MAJOR_BRAND.markup">isom</property>
  <property name="meta.attr.MINOR_VERSION.markup">512</property>
  <property name="meta.attr.COMPATIBLE_BRANDS.markup">isomiso2avc1mp41</property>
  <property name="meta.attr.ENCODER.markup">Lavf60.3.100</property>
  <property name="meta.media.sample_aspect_num">1</property>
  <property name="meta.media.sample_aspect_den">1</property>
  <property name="meta.media.frame_rate_num">60</property>
  <property name="meta.media.frame_rate_den">1</property>
  <property name="meta.media.colorspace">601</property>
  <property name="meta.media.color_trc">2</property>
  <property name="meta.media.has_b_frames">0</property>
  <property name="meta.media.width">640</property>
  <property name="meta.media.height">360</property>
  <property name="meta.media.color_range">full</property>
  <property name="xml">was here</property>
  <property name="meta.media.top_field_first">0</property>
  <property name="meta.media.progressive">1</property>
  <property name="set.test_audio">1</property>
  <property name="set.test_image">0</property>
 </chain>
 <chain id="chain708" out="00:00:01.983">
  <property name="length">120</property>
  <property name="eof">pause</property>
  <property name="resource">/home/xiaoxiae/.cache/kdenlive/proxy/256c62daba6c7344e1f180a0cdf89488.mkv</property>
  <property name="mlt_service">avformat-novalidate</property>
  <property name="seekable">1</property>
  <property name="format">3</property>
  <property name="audio_index">-1</property>
  <property name="video_index">0</property>
  <property name="kdenlive:clipname">11.mp4</property>
  <property name="kdenlive:clip_type">2</property>
  <property name="kdenlive:folderid">227</property>
  <property name="kdenlive:id">230</property>
  <property name="mute_on_pause">0</property>
  <property name="kdenlive:file_size">353848</property>
  <property name="kdenlive:file_hash">256c62daba6c7344e1f180a0cdf89488</property>
  <property name="kdenlive:proxy">/home/xiaoxiae/.cache/kdenlive/proxy/256c62daba6c7344e1f180a0cdf89488.mkv</property>
  <property name="kdenlive:originalurl">video/Outro/11.mp4</property>
  <property name="kdenlive:original.mlt_type">chain</property>
  <property name="kdenlive:original.in">0</property>
  <property name="kdenlive:original.out">00:00:01.983</property>
  <property name="kdenlive:original.length">120</property>
  <property name="kdenlive:original.eof">pause</property>
  <property name="kdenlive:original.resource">video/Outro/11.mp4</property>
  <property name="kdenlive:original.mlt_service">avformat-novalidate</property>
  <property name="kdenlive:original.meta.media.nb_streams">1</property>
  <property name="kdenlive:original.meta.media.0.stream.type">video</property>
  <property name="kdenlive:original.meta.media.0.stream.frame_rate">60</property>
  <property name="kdenlive:original.meta.media.0.stream.sample_aspect_ratio">0</property>
  <property name="kdenlive:original.meta.media.0.codec.width">1920</property>
  <property name="kdenlive:original.meta.media.0.codec.height">1080</property>
  <property name="kdenlive:original.meta.media.0.codec.rotate">0</property>
  <property name="kdenlive:original.meta.media.0.codec.pix_fmt">yuv420p</property>
  <property name="kdenlive:original.meta.media.0.codec.sample_aspect_ratio">0</property>
  <property name="kdenlive:original.meta.media.0.codec.colorspace">709</property>
  <property name="kdenlive:original.meta.media.0.codec.name">h264</property>
  <property name="kdenlive:original.meta.media.0.codec.long_name">H.264 / AVC / MPEG-4 AVC / MPEG-4 part 10</property>
  <property name="kdenlive:original.meta.media.0.codec.bit_rate">1406752</property>
  <property name="kdenlive:original.meta.attr.0.stream.handler_name.markup">VideoHandler</property>
  <property name="kdenlive:original.meta.attr.0.stream.vendor_id.markup">[0][0][0][0]</property>
  <property name="kdenlive:original.meta.attr.0.stream.encoder.markup">Lavc60.3.100 libx264</property>
  <property name="kdenlive:original.meta.attr.major_brand.markup">isom</property>
  <property name="kdenlive:original.meta.attr.minor_version.markup">512</property>
  <property name="kdenlive:original.meta.attr.compatible_brands.markup">isomiso2avc1mp41</property>
  <property name="kdenlive:original.meta.attr.encoder.markup">Lavf60.3.100</property>
  <property name="kdenlive:original.meta.attr.comment.markup">Rendered with Manim Community v0.17.3</property>
  <property name="kdenlive:original.seekable">1</property>
  <property name="kdenlive:original.width">1920</property>
  <property name="kdenlive:original.height">1080</property>
  <property name="kdenlive:original.meta.media.sample_aspect_num">1</property>
  <property name="kdenlive:original.meta.media.sample_aspect_den">1</property>
  <property name="kdenlive:original.format">3</property>
  <property name="kdenlive:original.audio_index">-1</property>
  <property name="kdenlive:original.video_index">0</property>
  <property name="kdenlive:original.meta.media.frame_rate_num">60</property>
  <property name="kdenlive:original.meta.media.frame_rate_den">1</property>
  <property name="kdenlive:original.meta.media.colorspace">709</property>
  <property name="kdenlive:original.meta.media.color_trc">2</property>
  <property name="kdenlive:original.meta.media.has_b_frames">2</property>
  <property name="kdenlive:original.meta.media.width">1920</property>
  <property name="kdenlive:original.meta.media.height">1080</property>
  <property name="kdenlive:original.meta.media.color_range">mpeg</property>
  <property name="kdenlive:original.meta.media.top_field_first">0</property>
  <property name="kdenlive:original.meta.media.progressive">1</property>
  <property name="kdenlive:original.kdenlive:clip_type">2</property>
  <property name="kdenlive:original.kdenlive:folderid">227</property>
  <property name="kdenlive:original.kdenlive:id">230</property>
  <property name="kdenlive:original.mute_on_pause">0</property>
  <property name="kdenlive:original.kdenlive:file_size">353848</property>
  <property name="kdenlive:original.kdenlive:file_hash">256c62daba6c7344e1f180a0cdf89488</property>
  <property name="kdenlive:original.backup">1</property>
  <property name="meta.media.nb_streams">1</property>
  <property name="meta.media.0.stream.type">video</property>
  <property name="meta.media.0.stream.frame_rate">60</property>
  <property name="meta.media.0.stream.sample_aspect_ratio">0</property>
  <property name="meta.media.0.codec.width">640</property>
  <property name="meta.media.0.codec.height">360</property>
  <property name="meta.media.0.codec.rotate">0</property>
  <property name="meta.media.0.codec.pix_fmt">yuvj420p</property>
  <property name="meta.media.0.codec.sample_aspect_ratio">0</property>
  <property name="meta.media.0.codec.colorspace">601</property>
  <property name="meta.media.0.codec.name">mjpeg</property>
  <property name="meta.media.0.codec.long_name">MJPEG (Motion JPEG)</property>
  <property name="meta.media.0.codec.bit_rate">0</property>
  <property name="meta.attr.0.stream.HANDLER_NAME.markup">VideoHandler</property>
  <property name="meta.attr.0.stream.VENDOR_ID.markup">[0][0][0][0]</property>
  <property name="meta.attr.0.stream.ENCODER.markup">Lavc60.3.100 mjpeg</property>
  <property name="meta.attr.0.stream.DURATION.markup">00:00:02.000000000</property>
  <property name="meta.attr.COMMENT.markup">Rendered with Manim Community v0.17.3</property>
  <property name="meta.attr.MAJOR_BRAND.markup">isom</property>
  <property name="meta.attr.MINOR_VERSION.markup">512</property>
  <property name="meta.attr.COMPATIBLE_BRANDS.markup">isomiso2avc1mp41</property>
  <property name="meta.attr.ENCODER.markup">Lavf60.3.100</property>
  <property name="meta.media.sample_aspect_num">1</property>
  <property name="meta.media.sample_aspect_den">1</property>
  <property name="meta.media.frame_rate_num">60</property>
  <property name="meta.media.frame_rate_den">1</property>
  <property name="meta.media.colorspace">601</property>
  <property name="meta.media.color_trc">2</property>
  <property name="meta.media.has_b_frames">0</property>
  <property name="meta.media.width">640</property>
  <property name="meta.media.height">360</property>
  <property name="meta.media.color_range">full</property>
  <property name="xml">was here</property>
  <property name="meta.media.top_field_first">0</property>
  <property name="meta.media.progressive">1</property>
  <property name="set.test_audio">1</property>
  <property name="set.test_image">0</property>
 </chain>
 <chain id="chain709" out="00:00:01.483">
  <property name="length">90</property>
  <property name="eof">pause</property>
  <property name="resource">/home/xiaoxiae/.cache/kdenlive/proxy/7eb06b02cdcc0858c471f11e1d77b583.mkv</property>
  <property name="mlt_service">avformat-novalidate</property>
  <property name="seekable">1</property>
  <property name="format">3</property>
  <property name="audio_index">-1</property>
  <property name="video_index">0</property>
  <property name="kdenlive:clipname">12.mp4</property>
  <property name="kdenlive:clip_type">2</property>
  <property name="kdenlive:folderid">227</property>
  <property name="kdenlive:id">231</property>
  <property name="mute_on_pause">0</property>
  <property name="kdenlive:file_size">225222</property>
  <property name="kdenlive:file_hash">7eb06b02cdcc0858c471f11e1d77b583</property>
  <property name="kdenlive:proxy">/home/xiaoxiae/.cache/kdenlive/proxy/7eb06b02cdcc0858c471f11e1d77b583.mkv</property>
  <property name="kdenlive:originalurl">video/Outro/12.mp4</property>
  <property name="kdenlive:original.mlt_type">chain</property>
  <property name="kdenlive:original.in">0</property>
  <property name="kdenlive:original.out">00:00:01.483</property>
  <property name="kdenlive:original.length">90</property>
  <property name="kdenlive:original.eof">pause</property>
  <property name="kdenlive:original.resource">video/Outro/12.mp4</property>
  <property name="kdenlive:original.mlt_service">avformat-novalidate</property>
  <property name="kdenlive:original.meta.media.nb_streams">1</property>
  <property name="kdenlive:original.meta.media.0.stream.type">video</property>
  <property name="kdenlive:original.meta.media.0.stream.frame_rate">60</property>
  <property name="kdenlive:original.meta.media.0.stream.sample_aspect_ratio">0</property>
  <property name="kdenlive:original.meta.media.0.codec.width">1920</property>
  <property name="kdenlive:original.meta.media.0.codec.height">1080</property>
  <property name="kdenlive:original.meta.media.0.codec.rotate">0</property>
  <property name="kdenlive:original.meta.media.0.codec.pix_fmt">yuv420p</property>
  <property name="kdenlive:original.meta.media.0.codec.sample_aspect_ratio">0</property>
  <property name="kdenlive:original.meta.media.0.codec.colorspace">709</property>
  <property name="kdenlive:original.meta.media.0.codec.name">h264</property>
  <property name="kdenlive:original.meta.media.0.codec.long_name">H.264 / AVC / MPEG-4 AVC / MPEG-4 part 10</property>
  <property name="kdenlive:original.meta.media.0.codec.bit_rate">1191200</property>
  <property name="kdenlive:original.meta.attr.0.stream.handler_name.markup">VideoHandler</property>
  <property name="kdenlive:original.meta.attr.0.stream.vendor_id.markup">[0][0][0][0]</property>
  <property name="kdenlive:original.meta.attr.0.stream.encoder.markup">Lavc60.3.100 libx264</property>
  <property name="kdenlive:original.meta.attr.major_brand.markup">isom</property>
  <property name="kdenlive:original.meta.attr.minor_version.markup">512</property>
  <property name="kdenlive:original.meta.attr.compatible_brands.markup">isomiso2avc1mp41</property>
  <property name="kdenlive:original.meta.attr.encoder.markup">Lavf60.3.100</property>
  <property name="kdenlive:original.meta.attr.comment.markup">Rendered with Manim Community v0.17.3</property>
  <property name="kdenlive:original.seekable">1</property>
  <property name="kdenlive:original.width">1920</property>
  <property name="kdenlive:original.height">1080</property>
  <property name="kdenlive:original.meta.media.sample_aspect_num">1</property>
  <property name="kdenlive:original.meta.media.sample_aspect_den">1</property>
  <property name="kdenlive:original.format">3</property>
  <property name="kdenlive:original.audio_index">-1</property>
  <property name="kdenlive:original.video_index">0</property>
  <property name="kdenlive:original.meta.media.frame_rate_num">60</property>
  <property name="kdenlive:original.meta.media.frame_rate_den">1</property>
  <property name="kdenlive:original.meta.media.colorspace">709</property>
  <property name="kdenlive:original.meta.media.color_trc">2</property>
  <property name="kdenlive:original.meta.media.has_b_frames">2</property>
  <property name="kdenlive:original.meta.media.width">1920</property>
  <property name="kdenlive:original.meta.media.height">1080</property>
  <property name="kdenlive:original.meta.media.color_range">mpeg</property>
  <property name="kdenlive:original.meta.media.top_field_first">0</property>
  <property name="kdenlive:original.meta.media.progressive">1</property>
  <property name="kdenlive:original.kdenlive:clip_type">2</property>
  <property name="kdenlive:original.kdenlive:folderid">227</property>
  <property name="kdenlive:original.kdenlive:id">231</property>
  <property name="kdenlive:original.mute_on_pause">0</property>
  <property name="kdenlive:original.kdenlive:file_size">225222</property>
  <property name="kdenlive:original.kdenlive:file_hash">7eb06b02cdcc0858c471f11e1d77b583</property>
  <property name="kdenlive:original.backup">1</property>
  <property name="meta.media.nb_streams">1</property>
  <property name="meta.media.0.stream.type">video</property>
  <property name="meta.media.0.stream.frame_rate">60</property>
  <property name="meta.media.0.stream.sample_aspect_ratio">0</property>
  <property name="meta.media.0.codec.width">640</property>
  <property name="meta.media.0.codec.height">360</property>
  <property name="meta.media.0.codec.rotate">0</property>
  <property name="meta.media.0.codec.pix_fmt">yuvj420p</property>
  <property name="meta.media.0.codec.sample_aspect_ratio">0</property>
  <property name="meta.media.0.codec.colorspace">601</property>
  <property name="meta.media.0.codec.name">mjpeg</property>
  <property name="meta.media.0.codec.long_name">MJPEG (Motion JPEG)</property>
  <property name="meta.media.0.codec.bit_rate">0</property>
  <property name="meta.attr.0.stream.HANDLER_NAME.markup">VideoHandler</property>
  <property name="meta.attr.0.stream.VENDOR_ID.markup">[0][0][0][0]</property>
  <property name="meta.attr.0.stream.ENCODER.markup">Lavc60.3.100 mjpeg</property>
  <property name="meta.attr.0.stream.DURATION.markup">00:00:01.500000000</property>
  <property name="meta.attr.COMMENT.markup">Rendered with Manim Community v0.17.3</property>
  <property name="meta.attr.MAJOR_BRAND.markup">isom</property>
  <property name="meta.attr.MINOR_VERSION.markup">512</property>
  <property name="meta.attr.COMPATIBLE_BRANDS.markup">isomiso2avc1mp41</property>
  <property name="meta.attr.ENCODER.markup">Lavf60.3.100</property>
  <property name="meta.media.sample_aspect_num">1</property>
  <property name="meta.media.sample_aspect_den">1</property>
  <property name="meta.media.frame_rate_num">60</property>
  <property name="meta.media.frame_rate_den">1</property>
  <property name="meta.media.colorspace">601</property>
  <property name="meta.media.color_trc">2</property>
  <property name="meta.media.has_b_frames">0</property>
  <property name="meta.media.width">640</property>
  <property name="meta.media.height">360</property>
  <property name="meta.media.color_range">full</property>
  <property name="xml">was here</property>
  <property name="meta.media.top_field_first">0</property>
  <property name="meta.media.progressive">1</property>
  <property name="set.test_audio">1</property>
  <property name="set.test_image">0</property>
 </chain>
 <producer id="producer7" in="00:00:00.000" out="00:00:01.983">
  <property name="length">120</property>
  <property name="eof">pause</property>
  <property name="resource">0.750000:/home/xiaoxiae/.cache/kdenlive/proxy/7eb06b02cdcc0858c471f11e1d77b583.mkv</property>
  <property name="aspect_ratio">1</property>
  <property name="meta.media.nb_streams">1</property>
  <property name="meta.media.0.stream.type">video</property>
  <property name="meta.media.0.stream.frame_rate">60</property>
  <property name="meta.media.0.stream.sample_aspect_ratio">0</property>
  <property name="meta.media.0.codec.width">640</property>
  <property name="meta.media.0.codec.height">360</property>
  <property name="meta.media.0.codec.rotate">0</property>
  <property name="meta.media.0.codec.pix_fmt">yuvj420p</property>
  <property name="meta.media.0.codec.sample_aspect_ratio">0</property>
  <property name="meta.media.0.codec.colorspace">601</property>
  <property name="meta.media.0.codec.name">mjpeg</property>
  <property name="meta.media.0.codec.long_name">MJPEG (Motion JPEG)</property>
  <property name="meta.media.0.codec.bit_rate">0</property>
  <property name="meta.attr.0.stream.HANDLER_NAME.markup">VideoHandler</property>
  <property name="meta.attr.0.stream.VENDOR_ID.markup">[0][0][0][0]</property>
  <property name="meta.attr.0.stream.ENCODER.markup">Lavc60.3.100 mjpeg</property>
  <property name="meta.attr.0.stream.DURATION.markup">00:00:01.500000000</property>
  <property name="meta.attr.COMMENT.markup">Rendered with Manim Community v0.17.3</property>
  <property name="meta.attr.MAJOR_BRAND.markup">isom</property>
  <property name="meta.attr.MINOR_VERSION.markup">512</property>
  <property name="meta.attr.COMPATIBLE_BRANDS.markup">isomiso2avc1mp41</property>
  <property name="meta.attr.ENCODER.markup">Lavf60.3.100</property>
  <property name="seekable">1</property>
  <property name="meta.media.sample_aspect_num">1</property>
  <property name="meta.media.sample_aspect_den">1</property>
  <property name="format">3</property>
  <property name="audio_index">-1</property>
  <property name="video_index">0</property>
  <property name="warp_speed">0.75</property>
  <property name="warp_resource">/home/xiaoxiae/.cache/kdenlive/proxy/7eb06b02cdcc0858c471f11e1d77b583.mkv</property>
  <property name="mlt_service">timewarp</property>
  <property name="kdenlive:proxy">/home/xiaoxiae/.cache/kdenlive/proxy/7eb06b02cdcc0858c471f11e1d77b583.mkv</property>
  <property name="kdenlive:originalurl">video/Outro/12.mp4</property>
  <property name="set.test_audio">1</property>
  <property name="set.test_image">0</property>
  <property name="kdenlive:id">231</property>
  <property name="warp_pitch">0</property>
  <property name="meta.media.frame_rate_num">60</property>
  <property name="meta.media.frame_rate_den">1</property>
  <property name="meta.media.colorspace">601</property>
  <property name="meta.media.color_trc">2</property>
  <property name="meta.media.has_b_frames">0</property>
  <property name="meta.media.width">640</property>
  <property name="meta.media.height">360</property>
  <property name="meta.media.color_range">full</property>
 </producer>
 <playlist id="playlist6">
  <blank length="00:00:07.317"/>
  <entry producer="chain7" in="00:00:00.000" out="00:00:01.483">
   <property name="kdenlive:id">197</property>
  </entry>
  <blank length="00:00:02.267"/>
  <entry producer="chain8" in="00:00:00.000" out="00:00:01.483">
   <property name="kdenlive:id">198</property>
  </entry>
  <blank length="00:00:03.883"/>
  <entry producer="chain9" in="00:00:00.000" out="00:00:01.483">
   <property name="kdenlive:id">199</property>
  </entry>
  <blank length="00:00:03.583"/>
  <entry producer="chain10" in="00:00:00.000" out="00:00:00.983">
   <property name="kdenlive:id">200</property>
  </entry>
  <blank length="00:00:04.650"/>
  <entry producer="chain11" in="00:00:00.000" out="00:00:00.983">
   <property name="kdenlive:id">201</property>
  </entry>
  <blank length="00:00:04.333"/>
  <entry producer="chain12" in="00:00:00.000" out="00:00:00.983">
   <property name="kdenlive:id">202</property>
  </entry>
  <blank length="00:00:00.550"/>
  <entry producer="chain13" in="00:00:00.000" out="00:00:01.983">
   <property name="kdenlive:id">17</property>
  </entry>
  <blank length="00:00:03.567"/>
  <entry producer="chain14" in="00:00:00.000" out="00:00:01.617">
   <property name="kdenlive:id">90</property>
  </entry>
  <entry producer="chain15" in="00:00:00.000" out="00:00:01.617">
   <property name="kdenlive:id">101</property>
  </entry>
  <blank length="00:00:02.583"/>
  <entry producer="chain16" in="00:00:00.000" out="00:00:00.983">
   <property name="kdenlive:id">112</property>
  </entry>
  <blank length="00:00:02.300"/>
  <entry producer="chain17" in="00:00:00.000" out="00:00:01.183">
   <property name="kdenlive:id">123</property>
  </entry>
  <blank length="00:00:08.183"/>
  <entry producer="chain18" in="00:00:00.000" out="00:00:00.983">
   <property name="kdenlive:id">134</property>
  </entry>
  <blank length="00:00:01.817"/>
  <entry producer="chain19" in="00:00:00.000" out="00:00:00.983">
   <property name="kdenlive:id">145</property>
  </entry>
  <blank length="00:00:02.400"/>
  <entry producer="chain20" in="00:00:00.000" out="00:00:00.633">
   <property name="kdenlive:id">156</property>
  </entry>
  <blank length="00:00:00.633"/>
  <entry producer="chain21" in="00:00:00.000" out="00:00:00.983">
   <property name="kdenlive:id">167</property>
  </entry>
  <blank length="00:00:06.333"/>
  <entry producer="chain22" in="00:00:00.000" out="00:00:00.983">
   <property name="kdenlive:id">18</property>
  </entry>
  <blank length="00:00:01.567"/>
  <entry producer="chain23" in="00:00:00.000" out="00:00:01.733">
   <property name="kdenlive:id">29</property>
  </entry>
  <blank length="00:00:05.883"/>
  <entry producer="chain24" in="00:00:00.000" out="00:00:01.233">
   <property name="kdenlive:id">40</property>
  </entry>
  <blank length="00:00:03.417"/>
  <entry producer="chain25" in="00:00:00.000" out="00:00:01.483">
   <property name="kdenlive:id">51</property>
  </entry>
  <blank length="00:00:03.433"/>
  <entry producer="chain26" in="00:00:00.000" out="00:00:01.483">
   <property name="kdenlive:id">62</property>
  </entry>
  <blank length="00:00:07.750"/>
  <entry producer="chain27" in="00:00:00.000" out="00:00:01.983">
   <property name="kdenlive:id">73</property>
  </entry>
  <blank length="00:00:02.583"/>
  <entry producer="chain28" in="00:00:00.000" out="00:00:00.983">
   <property name="kdenlive:id">84</property>
  </entry>
  <blank length="00:00:04.567"/>
  <entry producer="chain29" in="00:00:00.000" out="00:00:00.983">
   <property name="kdenlive:id">87</property>
  </entry>
  <blank length="00:00:06.533"/>
  <entry producer="chain30" in="00:00:00.000" out="00:00:01.483">
   <property name="kdenlive:id">88</property>
  </entry>
  <entry producer="chain31" in="00:00:00.000" out="00:00:01.233">
   <property name="kdenlive:id">89</property>
  </entry>
  <blank length="00:00:01.300"/>
  <entry producer="chain32" in="00:00:00.000" out="00:00:00.983">
   <property name="kdenlive:id">91</property>
  </entry>
  <blank length="00:00:06.167"/>
  <entry producer="chain33" in="00:00:00.000" out="00:00:01.483">
   <property name="kdenlive:id">92</property>
  </entry>
  <entry producer="chain34" in="00:00:00.000" out="00:00:00.983">
   <property name="kdenlive:id">93</property>
  </entry>
  <blank length="00:00:05.283"/>
  <entry producer="chain35" in="00:00:00.000" out="00:00:02.233">
   <property name="kdenlive:id">94</property>
  </entry>
  <blank length="00:00:00.750"/>
  <entry producer="chain36" in="00:00:00.000" out="00:00:00.983">
   <property name="kdenlive:id">95</property>
  </entry>
  <blank length="00:00:05.450"/>
  <entry producer="chain37" in="00:00:00.000" out="00:00:01.233">
   <property name="kdenlive:id">96</property>
  </entry>
  <blank length="00:00:00.967"/>
  <entry producer="chain38" in="00:00:00.000" out="00:00:00.983">
   <property name="kdenlive:id">97</property>
  </entry>
  <blank length="00:00:02.050"/>
  <entry producer="producer2" in="00:00:00.000" out="00:00:10.117">
   <property name="kdenlive:id">98</property>
   <filter id="filter9">
    <property name="frame">0</property>
    <property name="freeze_after">0</property>
    <property name="freeze_before">0</property>
    <property name="mlt_service">freeze</property>
    <property name="kdenlive_id">freeze</property>
    <property name="kdenlive:collapsed">0</property>
   </filter>
   <filter id="filter10">
    <property name="start">1</property>
    <property name="level">00:00:00.000=1;00:00:04.983=1;00:00:06.017=0.35;00:00:08.950=0.35;00:00:09.983=1</property>
    <property name="mlt_service">brightness</property>
    <property name="kdenlive_id">brightness</property>
    <property name="kdenlive:collapsed">0</property>
   </filter>
  </entry>
  <blank length="00:00:03.967"/>
  <entry producer="chain39" in="00:00:00.000" out="00:00:01.983">
   <property name="kdenlive:id">98</property>
  </entry>
  <blank length="00:00:04.317"/>
  <entry producer="chain40" in="00:00:00.000" out="00:00:00.983">
   <property name="kdenlive:id">99</property>
  </entry>
  <entry producer="chain41" in="00:00:00.000" out="00:00:02.983">
   <property name="kdenlive:id">100</property>
  </entry>
  <entry producer="chain42" in="00:00:00.000" out="00:00:00.983">
   <property name="kdenlive:id">102</property>
  </entry>
  <blank length="00:00:02.033"/>
  <entry producer="chain43" in="00:00:00.000" out="00:00:00.983">
   <property name="kdenlive:id">103</property>
  </entry>
  <blank length="00:00:01.500"/>
  <entry producer="chain44" in="00:00:00.000" out="00:00:00.983">
   <property name="kdenlive:id">104</property>
  </entry>
  <blank length="00:00:02.333"/>
  <entry producer="chain45" in="00:00:00.000" out="00:00:00.983">
   <property name="kdenlive:id">105</property>
  </entry>
  <blank length="00:00:02.850"/>
  <entry producer="chain46" in="00:00:00.000" out="00:00:00.983">
   <property name="kdenlive:id">106</property>
  </entry>
  <blank length="00:00:01.650"/>
  <entry producer="chain47" in="00:00:00.000" out="00:00:01.733">
   <property name="kdenlive:id">107</property>
  </entry>
  <blank length="00:00:00.733"/>
  <entry producer="chain48" in="00:00:00.000" out="00:00:01.733">
   <property name="kdenlive:id">108</property>
  </entry>
  <blank length="00:00:00.367"/>
  <entry producer="chain68" in="00:00:00.000" out="00:00:01.733">
   <property name="kdenlive:id">109</property>
  </entry>
  <blank length="00:00:07.883"/>
  <entry producer="chain69" in="00:00:00.000" out="00:00:00.983">
   <property name="kdenlive:id">110</property>
  </entry>
  <blank length="00:00:16.883"/>
  <entry producer="chain70" in="00:00:00.000" out="00:00:00.983">
   <property name="kdenlive:id">111</property>
  </entry>
  <blank length="00:00:04.333"/>
  <entry producer="chain71" in="00:00:00.000" out="00:00:01.183">
   <property name="kdenlive:id">113</property>
  </entry>
  <blank length="00:00:02.000"/>
  <entry producer="chain72" in="00:00:00.000" out="00:00:00.983">
   <property name="kdenlive:id">114</property>
  </entry>
  <blank length="00:00:01.317"/>
  <entry producer="chain73" in="00:00:00.000" out="00:00:02.483">
   <property name="kdenlive:id">115</property>
  </entry>
  <blank length="00:00:07.467"/>
  <entry producer="chain74" in="00:00:00.000" out="00:00:00.983">
   <property name="kdenlive:id">116</property>
  </entry>
  <blank length="00:00:00.867"/>
  <entry producer="chain75" in="00:00:00.000" out="00:00:02.983">
   <property name="kdenlive:id">117</property>
  </entry>
  <blank length="00:00:01.200"/>
  <entry producer="chain78" in="00:00:00.000" out="00:00:00.983">
   <property name="kdenlive:id">118</property>
  </entry>
  <blank length="00:00:00.833"/>
  <entry producer="chain79" in="00:00:00.000" out="00:00:04.983">
   <property name="kdenlive:id">119</property>
  </entry>
  <entry producer="chain80" in="00:00:00.000" out="00:00:00.983">
   <property name="kdenlive:id">120</property>
  </entry>
  <entry producer="chain81" in="00:00:00.000" out="00:00:00.983">
   <property name="kdenlive:id">121</property>
  </entry>
  <blank length="00:00:00.967"/>
  <entry producer="chain82" in="00:00:00.000" out="00:00:01.983">
   <property name="kdenlive:id">122</property>
  </entry>
  <blank length="00:00:00.533"/>
  <entry producer="chain133" in="00:00:00.000" out="00:00:01.483">
   <property name="kdenlive:id">124</property>
  </entry>
  <blank length="00:00:00.600"/>
  <entry producer="chain558" in="00:00:00.000" out="00:00:01.483">
   <property name="kdenlive:id">125</property>
  </entry>
  <blank length="00:00:02.033"/>
  <entry producer="chain559" in="00:00:00.000" out="00:00:00.983">
   <property name="kdenlive:id">126</property>
  </entry>
  <blank length="00:00:02.717"/>
  <entry producer="chain560" in="00:00:00.000" out="00:00:00.983">
   <property name="kdenlive:id">127</property>
  </entry>
  <blank length="00:00:02.450"/>
  <entry producer="producer3" in="00:00:00.000" out="00:00:57.117">
   <property name="kdenlive:id">128</property>
   <filter id="filter11">
    <property name="frame">0</property>
    <property name="freeze_after">0</property>
    <property name="freeze_before">0</property>
    <property name="mlt_service">freeze</property>
    <property name="kdenlive_id">freeze</property>
    <property name="kdenlive:collapsed">0</property>
   </filter>
   <filter id="filter12">
    <property name="start">1</property>
    <property name="level">00:00:00.000=0.25</property>
    <property name="mlt_service">brightness</property>
    <property name="kdenlive_id">brightness</property>
    <property name="kdenlive:collapsed">0</property>
   </filter>
   <filter id="filter13">
    <property name="mlt_service">avfilter.gblur</property>
    <property name="kdenlive_id">avfilter.gblur</property>
    <property name="av.sigma">10</property>
    <property name="av.steps">1</property>
    <property name="av.planes">7</property>
    <property name="av.sigmaV">-1</property>
    <property name="kdenlive:collapsed">0</property>
   </filter>
  </entry>
  <blank length="00:00:02.717"/>
  <entry producer="chain561" in="00:00:00.000" out="00:00:00.983">
   <property name="kdenlive:id">128</property>
  </entry>
  <blank length="00:00:11.717"/>
  <entry producer="chain562" in="00:00:00.000" out="00:00:00.983">
   <property name="kdenlive:id">129</property>
  </entry>
  <blank length="00:00:01.600"/>
  <entry producer="chain563" in="00:00:00.000" out="00:00:00.983">
   <property name="kdenlive:id">130</property>
  </entry>
  <blank length="00:00:05.517"/>
  <entry producer="chain564" in="00:00:00.000" out="00:00:00.983">
   <property name="kdenlive:id">131</property>
  </entry>
  <blank length="00:00:03.583"/>
  <entry producer="chain565" in="00:00:00.000" out="00:00:00.983">
   <property name="kdenlive:id">132</property>
  </entry>
  <blank length="00:00:02.917"/>
  <entry producer="chain566" in="00:00:00.000" out="00:00:01.483">
   <property name="kdenlive:id">133</property>
  </entry>
  <blank length="00:00:03.500"/>
  <entry producer="chain567" in="00:00:00.000" out="00:00:01.483">
   <property name="kdenlive:id">135</property>
  </entry>
  <blank length="00:00:06.967"/>
  <entry producer="chain568" in="00:00:00.000" out="00:00:01.483">
   <property name="kdenlive:id">136</property>
  </entry>
  <blank length="00:00:01.450"/>
  <entry producer="chain569" in="00:00:00.000" out="00:00:01.483">
   <property name="kdenlive:id">137</property>
  </entry>
  <entry producer="chain570" in="00:00:00.000" out="00:00:01.233">
   <property name="kdenlive:id">138</property>
  </entry>
  <blank length="00:00:00.850"/>
  <entry producer="chain571" in="00:00:00.000" out="00:00:00.983">
   <property name="kdenlive:id">139</property>
  </entry>
  <blank length="00:00:06.267"/>
  <entry producer="chain572" in="00:00:00.000" out="00:00:01.483">
   <property name="kdenlive:id">140</property>
  </entry>
  <blank length="00:00:10.500"/>
  <entry producer="chain573" in="00:00:00.000" out="00:00:00.983">
   <property name="kdenlive:id">141</property>
  </entry>
  <blank length="00:00:01.617"/>
  <entry producer="chain574" in="00:00:00.000" out="00:00:00.983">
   <property name="kdenlive:id">142</property>
  </entry>
  <blank length="00:00:14.867"/>
  <entry producer="chain575" in="00:00:00.000" out="00:00:00.983">
   <property name="kdenlive:id">143</property>
  </entry>
  <blank length="00:00:05.150"/>
  <entry producer="chain576" in="00:00:00.000" out="00:00:01.983">
   <property name="kdenlive:id">144</property>
  </entry>
  <blank length="00:00:03.733"/>
  <entry producer="chain577" in="00:00:00.000" out="00:00:00.983">
   <property name="kdenlive:id">146</property>
  </entry>
  <blank length="00:00:00.683"/>
  <entry producer="chain578" in="00:00:00.000" out="00:00:00.983">
   <property name="kdenlive:id">147</property>
  </entry>
  <blank length="00:00:01.250"/>
  <entry producer="chain579" in="00:00:00.000" out="00:00:00.983">
   <property name="kdenlive:id">148</property>
  </entry>
  <blank length="00:00:08.567"/>
  <entry producer="chain580" in="00:00:00.000" out="00:00:01.233">
   <property name="kdenlive:id">149</property>
  </entry>
  <blank length="00:00:09.950"/>
  <entry producer="chain581" in="00:00:00.000" out="00:00:01.983">
   <property name="kdenlive:id">150</property>
  </entry>
  <blank length="00:00:00.950"/>
  <entry producer="chain582" in="00:00:00.000" out="00:00:00.983">
   <property name="kdenlive:id">151</property>
  </entry>
  <blank length="00:00:06.783"/>
  <entry producer="chain583" in="00:00:00.000" out="00:00:00.983">
   <property name="kdenlive:id">152</property>
  </entry>
  <blank length="00:00:04.067"/>
  <entry producer="chain584" in="00:00:00.000" out="00:00:00.983">
   <property name="kdenlive:id">153</property>
  </entry>
  <blank length="00:00:12.750"/>
  <entry producer="chain585" in="00:00:00.000" out="00:00:01.483">
   <property name="kdenlive:id">154</property>
  </entry>
  <blank length="00:00:06.683"/>
  <entry producer="chain586" in="00:00:00.000" out="00:00:00.983">
   <property name="kdenlive:id">155</property>
  </entry>
  <blank length="00:00:04.200"/>
  <entry producer="chain587" in="00:00:00.000" out="00:00:00.983">
   <property name="kdenlive:id">157</property>
  </entry>
  <blank length="00:00:03.667"/>
  <entry producer="chain588" in="00:00:00.000" out="00:00:00.983">
   <property name="kdenlive:id">158</property>
  </entry>
  <entry producer="chain589" in="00:00:00.000" out="00:00:00.983">
   <property name="kdenlive:id">159</property>
  </entry>
  <blank length="00:00:13.233"/>
  <entry producer="chain590" in="00:00:00.000" out="00:00:01.067">
   <property name="kdenlive:id">160</property>
  </entry>
  <blank length="00:00:00.533"/>
  <entry producer="chain591" in="00:00:00.000" out="00:00:01.067">
   <property name="kdenlive:id">161</property>
  </entry>
  <blank length="00:00:06.500"/>
  <entry producer="chain592" in="00:00:00.000" out="00:00:00.983">
   <property name="kdenlive:id">162</property>
  </entry>
  <entry producer="chain593" in="00:00:00.000" out="00:00:00.983">
   <property name="kdenlive:id">163</property>
  </entry>
  <entry producer="chain594" in="00:00:00.000" out="00:00:01.733">
   <property name="kdenlive:id">164</property>
  </entry>
  <blank length="00:00:03.617"/>
  <entry producer="chain595" in="00:00:00.000" out="00:00:00.983">
   <property name="kdenlive:id">165</property>
  </entry>
  <entry producer="chain596" in="00:00:00.000" out="00:00:00.983">
   <property name="kdenlive:id">166</property>
  </entry>
  <blank length="00:00:04.467"/>
  <entry producer="chain597" in="00:00:00.000" out="00:00:01.483">
   <property name="kdenlive:id">168</property>
  </entry>
  <entry producer="chain598" in="00:00:00.000" out="00:00:02.983">
   <property name="kdenlive:id">169</property>
  </entry>
  <blank length="00:00:01.950"/>
  <entry producer="chain599" in="00:00:00.000" out="00:00:00.983">
   <property name="kdenlive:id">170</property>
  </entry>
  <blank length="00:00:05.783"/>
  <entry producer="chain600" in="00:00:00.000" out="00:00:00.983">
   <property name="kdenlive:id">171</property>
  </entry>
  <blank length="00:00:00.867"/>
  <entry producer="chain601" in="00:00:00.000" out="00:00:00.983">
   <property name="kdenlive:id">172</property>
  </entry>
  <blank length="00:00:04.933"/>
  <entry producer="chain602" in="00:00:00.000" out="00:00:00.983">
   <property name="kdenlive:id">173</property>
  </entry>
  <blank length="00:00:02.433"/>
  <entry producer="chain603" in="00:00:00.000" out="00:00:01.983">
   <property name="kdenlive:id">174</property>
  </entry>
  <blank length="00:00:01.633"/>
  <entry producer="chain604" in="00:00:00.000" out="00:00:01.233">
   <property name="kdenlive:id">175</property>
  </entry>
  <blank length="00:00:02.350"/>
  <entry producer="chain605" in="00:00:00.000" out="00:00:00.983">
   <property name="kdenlive:id">176</property>
  </entry>
  <blank length="00:00:04.633"/>
  <entry producer="chain606" in="00:00:00.000" out="00:00:00.983">
   <property name="kdenlive:id">177</property>
  </entry>
  <blank length="00:00:00.300"/>
  <entry producer="chain607" in="00:00:00.000" out="00:00:00.983">
   <property name="kdenlive:id">19</property>
  </entry>
  <blank length="00:00:19.167"/>
  <entry producer="chain608" in="00:00:00.000" out="00:00:00.983">
   <property name="kdenlive:id">20</property>
  </entry>
  <blank length="00:00:04.333"/>
  <entry producer="chain609" in="00:00:00.000" out="00:00:01.983">
   <property name="kdenlive:id">21</property>
  </entry>
  <blank length="00:00:03.033"/>
  <entry producer="chain610" in="00:00:00.000" out="00:00:02.983">
   <property name="kdenlive:id">22</property>
  </entry>
  <blank length="00:00:00.550"/>
  <entry producer="chain611" in="00:00:00.000" out="00:00:02.783">
   <property name="kdenlive:id">23</property>
  </entry>
  <blank length="00:00:04.183"/>
  <entry producer="chain612" in="00:00:00.000" out="00:00:00.983">
   <property name="kdenlive:id">24</property>
  </entry>
  <blank length="00:00:05.600"/>
  <entry producer="chain613" in="00:00:00.000" out="00:00:00.983">
   <property name="kdenlive:id">25</property>
  </entry>
  <blank length="00:00:00.233"/>
  <entry producer="chain614" in="00:00:00.000" out="00:00:00.983">
   <property name="kdenlive:id">26</property>
  </entry>
  <blank length="00:00:10.633"/>
  <entry producer="chain615" in="00:00:00.000" out="00:00:00.983">
   <property name="kdenlive:id">27</property>
  </entry>
  <blank length="00:00:02.150"/>
  <entry producer="chain616" in="00:00:00.000" out="00:00:00.983">
   <property name="kdenlive:id">28</property>
  </entry>
  <blank length="00:00:03.350"/>
  <entry producer="chain617" in="00:00:00.000" out="00:00:00.983">
   <property name="kdenlive:id">30</property>
  </entry>
  <blank length="00:00:04.100"/>
  <entry producer="chain618" in="00:00:00.000" out="00:00:00.983">
   <property name="kdenlive:id">31</property>
  </entry>
  <blank length="00:00:12.000"/>
  <entry producer="chain619" in="00:00:00.000" out="00:00:00.983">
   <property name="kdenlive:id">32</property>
  </entry>
  <blank length="00:00:01.833"/>
  <entry producer="chain620" in="00:00:00.000" out="00:00:00.983">
   <property name="kdenlive:id">33</property>
  </entry>
  <entry producer="chain621" in="00:00:00.000" out="00:00:00.983">
   <property name="kdenlive:id">34</property>
  </entry>
  <entry producer="chain622" in="00:00:00.000" out="00:00:00.983">
   <property name="kdenlive:id">35</property>
  </entry>
  <entry producer="chain623" in="00:00:00.000" out="00:00:00.983">
   <property name="kdenlive:id">36</property>
  </entry>
  <blank length="00:00:00.833"/>
  <entry producer="chain624" in="00:00:00.000" out="00:00:00.983">
   <property name="kdenlive:id">37</property>
  </entry>
  <blank length="00:00:00.883"/>
  <entry producer="chain625" in="00:00:00.000" out="00:00:01.067">
   <property name="kdenlive:id">38</property>
  </entry>
  <entry producer="chain626" in="00:00:00.000" out="00:00:01.233">
   <property name="kdenlive:id">39</property>
  </entry>
  <blank length="00:00:00.767"/>
  <entry producer="chain627" in="00:00:00.000" out="00:00:00.983">
   <property name="kdenlive:id">41</property>
  </entry>
  <entry producer="chain628" in="00:00:00.000" out="00:00:00.983">
   <property name="kdenlive:id">42</property>
  </entry>
  <blank length="00:00:00.433"/>
  <entry producer="chain629" in="00:00:00.000" out="00:00:00.983">
   <property name="kdenlive:id">43</property>
  </entry>
  <blank length="00:00:01.683"/>
  <entry producer="chain630" in="00:00:00.000" out="00:00:00.983">
   <property name="kdenlive:id">44</property>
  </entry>
  <entry producer="chain631" in="00:00:00.000" out="00:00:00.983">
   <property name="kdenlive:id">45</property>
  </entry>
  <blank length="00:00:04.200"/>
  <entry producer="chain632" in="00:00:00.000" out="00:00:01.483">
   <property name="kdenlive:id">46</property>
  </entry>
  <entry producer="chain633" in="00:00:00.000" out="00:00:01.733">
   <property name="kdenlive:id">47</property>
  </entry>
  <blank length="00:00:00.650"/>
  <entry producer="chain634" in="00:00:00.000" out="00:00:00.983">
   <property name="kdenlive:id">48</property>
  </entry>
  <blank length="00:00:01.433"/>
  <entry producer="chain635" in="00:00:00.000" out="00:00:00.983">
   <property name="kdenlive:id">49</property>
  </entry>
  <blank length="00:00:04.400"/>
  <entry producer="chain636" in="00:00:00.000" out="00:00:00.983">
   <property name="kdenlive:id">50</property>
  </entry>
  <blank length="00:00:00.583"/>
  <entry producer="chain637" in="00:00:00.000" out="00:00:00.983">
   <property name="kdenlive:id">52</property>
  </entry>
  <blank length="00:00:07.867"/>
  <entry producer="chain638" in="00:00:00.000" out="00:00:00.983">
   <property name="kdenlive:id">53</property>
  </entry>
  <blank length="00:00:02.383"/>
  <entry producer="chain639" in="00:00:00.000" out="00:00:01.733">
   <property name="kdenlive:id">54</property>
  </entry>
  <blank length="00:00:02.633"/>
  <entry producer="producer4" in="00:00:02.783" out="00:00:10.400">
   <property name="kdenlive:id">55</property>
   <filter id="filter14">
    <property name="frame">0</property>
    <property name="freeze_after">0</property>
    <property name="freeze_before">0</property>
    <property name="mlt_service">freeze</property>
    <property name="kdenlive_id">freeze</property>
    <property name="kdenlive:collapsed">0</property>
   </filter>
   <filter id="filter15">
    <property name="frame">0</property>
    <property name="freeze_after">0</property>
    <property name="freeze_before">0</property>
    <property name="mlt_service">freeze</property>
    <property name="kdenlive_id">freeze</property>
    <property name="kdenlive:collapsed">0</property>
   </filter>
   <filter id="filter16">
    <property name="start">1</property>
    <property name="level">00:00:02.783=0.25</property>
    <property name="mlt_service">brightness</property>
    <property name="kdenlive_id">brightness</property>
    <property name="kdenlive:collapsed">0</property>
   </filter>
   <filter id="filter17">
    <property name="mlt_service">avfilter.gblur</property>
    <property name="kdenlive_id">avfilter.gblur</property>
    <property name="av.sigma">10</property>
    <property name="av.steps">1</property>
    <property name="av.planes">7</property>
    <property name="av.sigmaV">-1</property>
    <property name="kdenlive:collapsed">0</property>
   </filter>
  </entry>
  <blank length="00:00:04.533"/>
  <entry producer="chain640" in="00:00:00.000" out="00:00:00.983">
   <property name="kdenlive:id">55</property>
  </entry>
  <blank length="00:00:01.867"/>
  <entry producer="chain641" in="00:00:00.000" out="00:00:00.983">
   <property name="kdenlive:id">56</property>
  </entry>
  <blank length="00:00:06.100"/>
  <entry producer="chain642" in="00:00:00.000" out="00:00:00.983">
   <property name="kdenlive:id">57</property>
  </entry>
  <blank length="00:00:00.450"/>
  <entry producer="chain643" in="00:00:00.000" out="00:00:00.983">
   <property name="kdenlive:id">58</property>
  </entry>
  <blank length="00:00:01.900"/>
  <entry producer="chain644" in="00:00:00.000" out="00:00:00.983">
   <property name="kdenlive:id">59</property>
  </entry>
  <blank length="00:00:00.950"/>
  <entry producer="chain645" in="00:00:00.000" out="00:00:01.483">
   <property name="kdenlive:id">60</property>
  </entry>
  <blank length="00:00:01.700"/>
  <entry producer="chain646" in="00:00:00.000" out="00:00:01.483">
   <property name="kdenlive:id">61</property>
  </entry>
  <blank length="00:00:05.850"/>
  <entry producer="chain647" in="00:00:00.000" out="00:00:00.983">
   <property name="kdenlive:id">63</property>
  </entry>
  <blank length="00:00:00.517"/>
  <entry producer="chain648" in="00:00:00.000" out="00:00:00.983">
   <property name="kdenlive:id">64</property>
  </entry>
  <blank length="00:00:01.283"/>
  <entry producer="chain649" in="00:00:00.000" out="00:00:00.983">
   <property name="kdenlive:id">65</property>
  </entry>
  <blank length="00:00:01.183"/>
  <entry producer="chain650" in="00:00:00.000" out="00:00:00.983">
   <property name="kdenlive:id">66</property>
  </entry>
  <entry producer="chain651" in="00:00:00.000" out="00:00:01.483">
   <property name="kdenlive:id">67</property>
  </entry>
  <entry producer="chain652" in="00:00:00.000" out="00:00:00.983">
   <property name="kdenlive:id">68</property>
  </entry>
  <blank length="00:00:01.533"/>
  <entry producer="chain653" in="00:00:00.000" out="00:00:00.983">
   <property name="kdenlive:id">69</property>
  </entry>
  <blank length="00:00:00.150"/>
  <entry producer="chain654" in="00:00:00.000" out="00:00:00.983">
   <property name="kdenlive:id">70</property>
  </entry>
  <blank length="00:00:00.283"/>
  <entry producer="chain655" in="00:00:00.000" out="00:00:01.183">
   <property name="kdenlive:id">71</property>
  </entry>
  <entry producer="chain656" in="00:00:00.000" out="00:00:01.983">
   <property name="kdenlive:id">72</property>
  </entry>
  <blank length="00:00:00.417"/>
  <entry producer="chain657" in="00:00:00.000" out="00:00:00.983">
   <property name="kdenlive:id">74</property>
  </entry>
  <blank length="00:00:04.783"/>
  <entry producer="chain658" in="00:00:00.000" out="00:00:00.983">
   <property name="kdenlive:id">75</property>
  </entry>
  <entry producer="chain659" in="00:00:00.000" out="00:00:00.983">
   <property name="kdenlive:id">76</property>
  </entry>
  <entry producer="chain660" in="00:00:00.000" out="00:00:01.483">
   <property name="kdenlive:id">77</property>
  </entry>
  <blank length="00:00:01.917"/>
  <entry producer="chain661" in="00:00:00.000" out="00:00:01.983">
   <property name="kdenlive:id">78</property>
  </entry>
  <blank length="00:00:03.050"/>
  <entry producer="chain662" in="00:00:00.000" out="00:00:00.983">
   <property name="kdenlive:id">79</property>
  </entry>
  <blank length="00:00:01.267"/>
  <entry producer="producer5" in="00:00:00.000" out="00:00:00.483">
   <property name="kdenlive:id">80</property>
  </entry>
  <entry producer="chain663" in="00:00:00.000" out="00:00:01.983">
   <property name="kdenlive:id">81</property>
  </entry>
  <blank length="00:00:06.350"/>
  <entry producer="chain664" in="00:00:00.000" out="00:00:00.983">
   <property name="kdenlive:id">82</property>
  </entry>
  <blank length="00:00:09.783"/>
  <entry producer="chain665" in="00:00:00.000" out="00:00:01.483">
   <property name="kdenlive:id">83</property>
  </entry>
  <blank length="00:00:05.250"/>
  <entry producer="chain666" in="00:00:00.000" out="00:00:00.983">
   <property name="kdenlive:id">85</property>
  </entry>
  <blank length="00:00:08.083"/>
  <entry producer="chain667" in="00:00:00.000" out="00:00:00.983">
   <property name="kdenlive:id">86</property>
  </entry>
  <blank length="00:00:27.617"/>
  <entry producer="chain667" in="00:00:00.000" out="00:00:00.983">
   <property name="kdenlive:id">86</property>
   <filter id="filter18">
    <property name="frame">59</property>
    <property name="freeze_after">0</property>
    <property name="freeze_before">0</property>
    <property name="mlt_service">freeze</property>
    <property name="kdenlive_id">freeze</property>
    <property name="kdenlive:collapsed">0</property>
   </filter>
   <filter id="filter19" in="00:00:-0.017" out="00:00:00.983">
    <property name="start">1</property>
    <property name="level">1</property>
    <property name="mlt_service">brightness</property>
    <property name="kdenlive_id">fade_to_black</property>
    <property name="alpha">00:00:00.000=1;00:00:01.000=0</property>
    <property name="kdenlive:collapsed">0</property>
   </filter>
  </entry>
  <entry producer="chain668" in="00:00:00.000" out="00:00:00.983">
   <property name="kdenlive:id">189</property>
  </entry>
  <blank length="00:00:00.850"/>
  <entry producer="chain669" in="00:00:00.000" out="00:00:00.983">
   <property name="kdenlive:id">190</property>
  </entry>
  <blank length="00:00:01.583"/>
  <entry producer="chain670" in="00:00:00.000" out="00:00:02.383">
   <property name="kdenlive:id">191</property>
  </entry>
  <blank length="00:00:00.483"/>
  <entry producer="chain671" in="00:00:00.000" out="00:00:01.483">
   <property name="kdenlive:id">192</property>
  </entry>
  <blank length="00:00:06.333"/>
  <entry producer="chain672" in="00:00:00.000" out="00:00:01.483">
   <property name="kdenlive:id">193</property>
  </entry>
  <blank length="00:00:02.117"/>
  <entry producer="chain673" in="00:00:00.000" out="00:00:01.483">
   <property name="kdenlive:id">194</property>
  </entry>
  <blank length="00:00:04.417"/>
  <entry producer="chain674" in="00:00:00.000" out="00:00:00.983">
   <property name="kdenlive:id">195</property>
  </entry>
  <entry producer="chain675" in="00:00:00.000" out="00:00:01.483">
   <property name="kdenlive:id">204</property>
  </entry>
  <blank length="00:00:06.133"/>
  <entry producer="chain676" in="00:00:00.000" out="00:00:01.483">
   <property name="kdenlive:id">215</property>
  </entry>
  <entry producer="chain677" in="00:00:00.000" out="00:00:01.483">
   <property name="kdenlive:id">220</property>
  </entry>
  <entry producer="chain678" in="00:00:00.000" out="00:00:01.483">
   <property name="kdenlive:id">221</property>
  </entry>
  <blank length="00:00:00.250"/>
  <entry producer="chain679" in="00:00:00.000" out="00:00:01.983">
   <property name="kdenlive:id">222</property>
  </entry>
  <blank length="00:00:04.117"/>
  <entry producer="chain680" in="00:00:00.000" out="00:00:00.983">
   <property name="kdenlive:id">223</property>
  </entry>
  <blank length="00:00:05.267"/>
  <entry producer="chain681" in="00:00:00.000" out="00:00:01.483">
   <property name="kdenlive:id">224</property>
  </entry>
  <blank length="00:00:06.033"/>
  <entry producer="chain682" in="00:00:00.000" out="00:00:01.483">
   <property name="kdenlive:id">225</property>
  </entry>
  <blank length="00:00:07.733"/>
  <entry producer="chain683" in="00:00:00.000" out="00:00:01.983">
   <property name="kdenlive:id">226</property>
  </entry>
  <blank length="00:00:09.200"/>
  <entry producer="chain684" in="00:00:00.000" out="00:00:00.983">
   <property name="kdenlive:id">205</property>
  </entry>
  <blank length="00:00:05.667"/>
  <entry producer="chain685" in="00:00:00.000" out="00:00:01.483">
   <property name="kdenlive:id">206</property>
  </entry>
  <blank length="00:00:01.433"/>
  <entry producer="chain686" in="00:00:00.000" out="00:00:00.683">
   <property name="kdenlive:id">207</property>
  </entry>
  <blank length="00:00:06.817"/>
  <entry producer="chain687" in="00:00:00.000" out="00:00:01.483">
   <property name="kdenlive:id">208</property>
  </entry>
  <blank length="00:00:00.550"/>
  <entry producer="chain688" in="00:00:00.000" out="00:00:01.483">
   <property name="kdenlive:id">209</property>
  </entry>
  <entry producer="chain689" in="00:00:00.000" out="00:00:00.983">
   <property name="kdenlive:id">210</property>
  </entry>
  <entry producer="chain690" in="00:00:00.000" out="00:00:00.983">
   <property name="kdenlive:id">211</property>
  </entry>
  <blank length="00:00:00.433"/>
  <entry producer="chain691" in="00:00:00.000" out="00:00:00.983">
   <property name="kdenlive:id">212</property>
  </entry>
  <blank length="00:00:00.367"/>
  <entry producer="chain692" in="00:00:00.000" out="00:00:01.483">
   <property name="kdenlive:id">213</property>
  </entry>
  <blank length="00:00:01.383"/>
  <entry producer="chain693" in="00:00:00.000" out="00:00:00.983">
   <property name="kdenlive:id">214</property>
  </entry>
  <blank length="00:00:09.567"/>
  <entry producer="chain694" in="00:00:00.000" out="00:00:01.983">
   <property name="kdenlive:id">216</property>
  </entry>
  <blank length="00:00:04.950"/>
  <entry producer="chain695" in="00:00:00.000" out="00:00:01.483">
   <property name="kdenlive:id">217</property>
  </entry>
  <blank length="00:00:06.267"/>
  <entry producer="chain696" in="00:00:00.000" out="00:00:00.983">
   <property name="kdenlive:id">218</property>
  </entry>
  <blank length="00:00:00.500"/>
  <entry producer="chain697" in="00:00:00.000" out="00:00:01.483">
   <property name="kdenlive:id">219</property>
  </entry>
  <blank length="00:00:10.850"/>
  <entry producer="producer6" in="00:00:00.000" out="00:00:04.950">
   <property name="kdenlive:id">614</property>
   <filter id="filter20">
    <property name="rotate_center">1</property>
    <property name="mlt_service">qtblend</property>
    <property name="kdenlive_id">qtblend</property>
    <property name="rect">00:00:00.000=-2741 0 7296 4104 1.000000;00:00:04.950=-2741 -1500 7296 4104 1.000000</property>
    <property name="rotation">00:00:00.000=0;00:00:04.950=0</property>
    <property name="compositing">0</property>
    <property name="distort">0</property>
    <property name="kdenlive:collapsed">0</property>
   </filter>
   <filter id="filter21" in="00:00:04.233" out="00:00:04.950">
    <property name="start">1</property>
    <property name="level">1</property>
    <property name="mlt_service">brightness</property>
    <property name="kdenlive_id">fade_to_black</property>
    <property name="alpha">00:00:00.000=1;00:00:00.717=0</property>
    <property name="kdenlive:collapsed">0</property>
   </filter>
  </entry>
  <entry producer="chain698" in="00:00:00.000" out="00:00:00.983">
   <property name="kdenlive:id">228</property>
  </entry>
  <blank length="00:00:05.067"/>
  <entry producer="chain699" in="00:00:00.000" out="00:00:00.983">
   <property name="kdenlive:id">232</property>
  </entry>
  <blank length="00:00:00.817"/>
  <entry producer="chain700" in="00:00:00.000" out="00:00:01.233">
   <property name="kdenlive:id">233</property>
  </entry>
  <blank length="00:00:00.233"/>
  <entry producer="chain701" in="00:00:00.000" out="00:00:01.233">
   <property name="kdenlive:id">234</property>
  </entry>
  <blank length="00:00:11.417"/>
  <entry producer="chain702" in="00:00:00.000" out="00:00:00.983">
   <property name="kdenlive:id">235</property>
  </entry>
  <blank length="00:00:00.450"/>
  <entry producer="chain703" in="00:00:00.000" out="00:00:00.983">
   <property name="kdenlive:id">236</property>
  </entry>
  <blank length="00:00:04.100"/>
  <entry producer="chain704" in="00:00:00.000" out="00:00:00.983">
   <property name="kdenlive:id">237</property>
  </entry>
  <blank length="00:00:01.633"/>
  <entry producer="chain705" in="00:00:00.000" out="00:00:00.983">
   <property name="kdenlive:id">238</property>
  </entry>
  <blank length="00:00:06.283"/>
  <entry producer="chain706" in="00:00:00.000" out="00:00:00.983">
   <property name="kdenlive:id">239</property>
  </entry>
  <blank length="00:00:07.383"/>
  <entry producer="chain707" in="00:00:00.000" out="00:00:02.233">
   <property name="kdenlive:id">229</property>
  </entry>
  <blank length="00:00:05.950"/>
  <entry producer="chain708" in="00:00:00.000" out="00:00:01.983">
   <property name="kdenlive:id">230</property>
  </entry>
  <blank length="00:00:06.017"/>
  <entry producer="chain709" in="00:00:00.000" out="00:00:01.483">
   <property name="kdenlive:id">231</property>
  </entry>
  <entry producer="producer7" in="00:00:00.000" out="00:00:01.983">
   <property name="kdenlive:id">231</property>
   <filter id="filter22">
    <property name="frame">89</property>
    <property name="freeze_after">0</property>
    <property name="freeze_before">0</property>
    <property name="mlt_service">freeze</property>
    <property name="kdenlive_id">freeze</property>
    <property name="kdenlive:collapsed">0</property>
   </filter>
   <filter id="filter23" in="00:00:00.983" out="00:00:01.983">
    <property name="start">1</property>
    <property name="level">1</property>
    <property name="mlt_service">brightness</property>
    <property name="kdenlive_id">fade_to_black</property>
    <property name="alpha">00:00:00.000=1;00:00:01.000=0</property>
    <property name="kdenlive:collapsed">0</property>
   </filter>
  </entry>
 </playlist>
 <playlist id="playlist7"/>
 <tractor id="tractor3" in="00:00:00.000" out="00:18:02.567">
  <property name="kdenlive:trackheight">67</property>
  <property name="kdenlive:timeline_active">1</property>
  <property name="kdenlive:collapsed">0</property>
  <property name="kdenlive:thumbs_format"/>
  <property name="kdenlive:audio_rec"/>
  <track hide="audio" producer="playlist6"/>
  <track hide="audio" producer="playlist7"/>
 </tractor>
 <chain id="chain710" out="00:00:04.983">
  <property name="length">300</property>
  <property name="eof">pause</property>
  <property name="resource">video/TransparentPause/1.mov</property>
  <property name="mlt_service">avformat-novalidate</property>
  <property name="seekable">1</property>
  <property name="format">2</property>
  <property name="audio_index">-1</property>
  <property name="video_index">0</property>
  <property name="kdenlive:clipname">1.mov</property>
  <property name="kdenlive:clip_type">2</property>
  <property name="kdenlive:folderid">250</property>
  <property name="kdenlive:id">251</property>
  <property name="mute_on_pause">0</property>
  <property name="kdenlive:file_size">4297548</property>
  <property name="kdenlive:proxy">-</property>
  <property name="kdenlive:originalurl">video/TransparentPause/1.mov</property>
  <property name="kdenlive:original.mlt_type">chain</property>
  <property name="kdenlive:original.in">0</property>
  <property name="kdenlive:original.out">00:00:04.983</property>
  <property name="kdenlive:original.length">300</property>
  <property name="kdenlive:original.eof">pause</property>
  <property name="kdenlive:original.resource">video/TransparentPause/1.mov</property>
  <property name="kdenlive:original.mlt_service">avformat-novalidate</property>
  <property name="kdenlive:original.meta.media.nb_streams">1</property>
  <property name="kdenlive:original.meta.media.0.stream.type">video</property>
  <property name="kdenlive:original.meta.media.0.stream.frame_rate">60</property>
  <property name="kdenlive:original.meta.media.0.stream.sample_aspect_ratio">0</property>
  <property name="kdenlive:original.meta.media.0.codec.width">1920</property>
  <property name="kdenlive:original.meta.media.0.codec.height">1080</property>
  <property name="kdenlive:original.meta.media.0.codec.rotate">0</property>
  <property name="kdenlive:original.meta.media.0.codec.pix_fmt">argb</property>
  <property name="kdenlive:original.meta.media.0.codec.sample_aspect_ratio">0</property>
  <property name="kdenlive:original.meta.media.0.codec.colorspace">709</property>
  <property name="kdenlive:original.meta.media.0.codec.name">qtrle</property>
  <property name="kdenlive:original.meta.media.0.codec.long_name">QuickTime Animation (RLE) video</property>
  <property name="kdenlive:original.meta.media.0.codec.bit_rate">6872609</property>
  <property name="kdenlive:original.meta.attr.0.stream.handler_name.markup">VideoHandler</property>
  <property name="kdenlive:original.meta.attr.0.stream.vendor_id.markup">FFMP</property>
  <property name="kdenlive:original.meta.attr.0.stream.encoder.markup">Lavc60.3.100 qtrle</property>
  <property name="kdenlive:original.meta.attr.major_brand.markup">qt  </property>
  <property name="kdenlive:original.meta.attr.minor_version.markup">512</property>
  <property name="kdenlive:original.meta.attr.compatible_brands.markup">qt  </property>
  <property name="kdenlive:original.meta.attr.encoder.markup">Lavf60.3.100</property>
  <property name="kdenlive:original.meta.attr.comment.markup">Rendered with Manim Community v0.17.3</property>
  <property name="kdenlive:original.seekable">1</property>
  <property name="kdenlive:original.width">1920</property>
  <property name="kdenlive:original.height">1080</property>
  <property name="kdenlive:original.meta.media.sample_aspect_num">1</property>
  <property name="kdenlive:original.meta.media.sample_aspect_den">1</property>
  <property name="kdenlive:original.format">2</property>
  <property name="kdenlive:original.audio_index">-1</property>
  <property name="kdenlive:original.video_index">0</property>
  <property name="kdenlive:original.meta.media.frame_rate_num">60</property>
  <property name="kdenlive:original.meta.media.frame_rate_den">1</property>
  <property name="kdenlive:original.meta.media.colorspace">709</property>
  <property name="kdenlive:original.meta.media.color_trc">2</property>
  <property name="kdenlive:original.meta.media.has_b_frames">0</property>
  <property name="kdenlive:original.meta.media.width">1920</property>
  <property name="kdenlive:original.meta.media.height">1080</property>
  <property name="kdenlive:original.meta.media.color_range">mpeg</property>
  <property name="kdenlive:original.meta.media.top_field_first">0</property>
  <property name="kdenlive:original.meta.media.progressive">1</property>
  <property name="kdenlive:original.kdenlive:clip_type">2</property>
  <property name="kdenlive:original.kdenlive:folderid">250</property>
  <property name="kdenlive:original.kdenlive:id">251</property>
  <property name="kdenlive:original.mute_on_pause">0</property>
  <property name="kdenlive:original.kdenlive:file_size">4297548</property>
  <property name="kdenlive:original.kdenlive:file_hash">c9191b940e2b1bd458791f0b13823181</property>
  <property name="kdenlive:original.backup">1</property>
  <property name="kdenlive:file_hash">c9191b940e2b1bd458791f0b13823181</property>
  <property name="meta.media.nb_streams">1</property>
  <property name="meta.media.0.stream.type">video</property>
  <property name="meta.media.0.stream.frame_rate">60</property>
  <property name="meta.media.0.stream.sample_aspect_ratio">0</property>
  <property name="meta.media.0.codec.width">1920</property>
  <property name="meta.media.0.codec.height">1080</property>
  <property name="meta.media.0.codec.rotate">0</property>
  <property name="meta.media.0.codec.pix_fmt">argb</property>
  <property name="meta.media.0.codec.sample_aspect_ratio">0</property>
  <property name="meta.media.0.codec.colorspace">709</property>
  <property name="meta.media.0.codec.name">qtrle</property>
  <property name="meta.media.0.codec.long_name">QuickTime Animation (RLE) video</property>
  <property name="meta.media.0.codec.bit_rate">6872609</property>
  <property name="meta.attr.0.stream.handler_name.markup">VideoHandler</property>
  <property name="meta.attr.0.stream.vendor_id.markup">FFMP</property>
  <property name="meta.attr.0.stream.encoder.markup">Lavc60.3.100 qtrle</property>
  <property name="meta.attr.major_brand.markup">qt  </property>
  <property name="meta.attr.minor_version.markup">512</property>
  <property name="meta.attr.compatible_brands.markup">qt  </property>
  <property name="meta.attr.encoder.markup">Lavf60.3.100</property>
  <property name="meta.attr.comment.markup">Rendered with Manim Community v0.17.3</property>
  <property name="meta.media.sample_aspect_num">1</property>
  <property name="meta.media.sample_aspect_den">1</property>
  <property name="meta.media.frame_rate_num">60</property>
  <property name="meta.media.frame_rate_den">1</property>
  <property name="meta.media.colorspace">709</property>
  <property name="meta.media.color_trc">2</property>
  <property name="meta.media.has_b_frames">0</property>
  <property name="meta.media.width">1920</property>
  <property name="meta.media.height">1080</property>
  <property name="meta.media.color_range">mpeg</property>
  <property name="xml">was here</property>
  <property name="meta.media.top_field_first">0</property>
  <property name="meta.media.progressive">1</property>
  <property name="set.test_audio">1</property>
  <property name="set.test_image">0</property>
 </chain>
 <producer id="producer8" in="00:00:00.000" out="00:00:49.983">
  <property name="length">3000</property>
  <property name="eof">pause</property>
  <property name="resource">0.020000:/home/xiaoxiae/.cache/kdenlive/proxy/8ec3af5f23381636bfe7c264a433d865.mkv</property>
  <property name="aspect_ratio">1</property>
  <property name="meta.media.nb_streams">1</property>
  <property name="meta.media.0.stream.type">video</property>
  <property name="meta.media.0.stream.frame_rate">60</property>
  <property name="meta.media.0.stream.sample_aspect_ratio">0</property>
  <property name="meta.media.0.codec.width">640</property>
  <property name="meta.media.0.codec.height">360</property>
  <property name="meta.media.0.codec.rotate">0</property>
  <property name="meta.media.0.codec.pix_fmt">yuvj420p</property>
  <property name="meta.media.0.codec.sample_aspect_ratio">0</property>
  <property name="meta.media.0.codec.colorspace">601</property>
  <property name="meta.media.0.codec.name">mjpeg</property>
  <property name="meta.media.0.codec.long_name">MJPEG (Motion JPEG)</property>
  <property name="meta.media.0.codec.bit_rate">0</property>
  <property name="meta.attr.0.stream.HANDLER_NAME.markup">VideoHandler</property>
  <property name="meta.attr.0.stream.VENDOR_ID.markup">[0][0][0][0]</property>
  <property name="meta.attr.0.stream.ENCODER.markup">Lavc60.3.100 mjpeg</property>
  <property name="meta.attr.0.stream.DURATION.markup">00:00:01.000000000</property>
  <property name="meta.attr.COMMENT.markup">Rendered with Manim Community v0.17.3</property>
  <property name="meta.attr.MAJOR_BRAND.markup">isom</property>
  <property name="meta.attr.MINOR_VERSION.markup">512</property>
  <property name="meta.attr.COMPATIBLE_BRANDS.markup">isomiso2avc1mp41</property>
  <property name="meta.attr.ENCODER.markup">Lavf60.3.100</property>
  <property name="seekable">1</property>
  <property name="meta.media.sample_aspect_num">1</property>
  <property name="meta.media.sample_aspect_den">1</property>
  <property name="format">3</property>
  <property name="audio_index">-1</property>
  <property name="video_index">0</property>
  <property name="warp_speed">0.02</property>
  <property name="warp_resource">/home/xiaoxiae/.cache/kdenlive/proxy/8ec3af5f23381636bfe7c264a433d865.mkv</property>
  <property name="mlt_service">timewarp</property>
  <property name="kdenlive:proxy">/home/xiaoxiae/.cache/kdenlive/proxy/8ec3af5f23381636bfe7c264a433d865.mkv</property>
  <property name="kdenlive:originalurl">video/Farmer/54.mp4</property>
  <property name="set.test_audio">1</property>
  <property name="set.test_image">0</property>
  <property name="kdenlive:id">128</property>
  <property name="warp_pitch">0</property>
  <property name="meta.media.frame_rate_num">60</property>
  <property name="meta.media.frame_rate_den">1</property>
  <property name="meta.media.colorspace">601</property>
  <property name="meta.media.color_trc">2</property>
  <property name="meta.media.has_b_frames">0</property>
  <property name="meta.media.width">640</property>
  <property name="meta.media.height">360</property>
  <property name="meta.media.color_range">full</property>
  <property name="meta.media.top_field_first">0</property>
  <property name="meta.media.progressive">1</property>
 </producer>
 <chain id="chain711" out="00:00:00.983">
  <property name="length">60</property>
  <property name="eof">pause</property>
  <property name="resource">video/TransparentSilhouettes/1.mov</property>
  <property name="mlt_service">avformat-novalidate</property>
  <property name="seekable">1</property>
  <property name="format">2</property>
  <property name="audio_index">-1</property>
  <property name="video_index">0</property>
  <property name="kdenlive:clipname">1.mov</property>
  <property name="kdenlive:clip_type">2</property>
  <property name="kdenlive:folderid">255</property>
  <property name="kdenlive:id">256</property>
  <property name="mute_on_pause">0</property>
  <property name="kdenlive:file_size">1789797</property>
  <property name="kdenlive:proxy">-</property>
  <property name="kdenlive:originalurl">video/TransparentSilhouettes/1.mov</property>
  <property name="kdenlive:original.mlt_type">chain</property>
  <property name="kdenlive:original.in">0</property>
  <property name="kdenlive:original.out">00:00:00.983</property>
  <property name="kdenlive:original.length">60</property>
  <property name="kdenlive:original.eof">pause</property>
  <property name="kdenlive:original.resource">video/TransparentSilhouettes/1.mov</property>
  <property name="kdenlive:original.mlt_service">avformat-novalidate</property>
  <property name="kdenlive:original.meta.media.nb_streams">1</property>
  <property name="kdenlive:original.meta.media.0.stream.type">video</property>
  <property name="kdenlive:original.meta.media.0.stream.frame_rate">60</property>
  <property name="kdenlive:original.meta.media.0.stream.sample_aspect_ratio">0</property>
  <property name="kdenlive:original.meta.media.0.codec.width">1920</property>
  <property name="kdenlive:original.meta.media.0.codec.height">1080</property>
  <property name="kdenlive:original.meta.media.0.codec.rotate">0</property>
  <property name="kdenlive:original.meta.media.0.codec.pix_fmt">argb</property>
  <property name="kdenlive:original.meta.media.0.codec.sample_aspect_ratio">0</property>
  <property name="kdenlive:original.meta.media.0.codec.colorspace">709</property>
  <property name="kdenlive:original.meta.media.0.codec.name">qtrle</property>
  <property name="kdenlive:original.meta.media.0.codec.long_name">QuickTime Animation (RLE) video</property>
  <property name="kdenlive:original.meta.media.0.codec.bit_rate">14309456</property>
  <property name="kdenlive:original.meta.attr.0.stream.handler_name.markup">VideoHandler</property>
  <property name="kdenlive:original.meta.attr.0.stream.vendor_id.markup">FFMP</property>
  <property name="kdenlive:original.meta.attr.0.stream.encoder.markup">Lavc60.3.100 qtrle</property>
  <property name="kdenlive:original.meta.attr.major_brand.markup">qt  </property>
  <property name="kdenlive:original.meta.attr.minor_version.markup">512</property>
  <property name="kdenlive:original.meta.attr.compatible_brands.markup">qt  </property>
  <property name="kdenlive:original.meta.attr.encoder.markup">Lavf60.3.100</property>
  <property name="kdenlive:original.meta.attr.comment.markup">Rendered with Manim Community v0.17.3</property>
  <property name="kdenlive:original.seekable">1</property>
  <property name="kdenlive:original.width">1920</property>
  <property name="kdenlive:original.height">1080</property>
  <property name="kdenlive:original.meta.media.sample_aspect_num">1</property>
  <property name="kdenlive:original.meta.media.sample_aspect_den">1</property>
  <property name="kdenlive:original.format">2</property>
  <property name="kdenlive:original.audio_index">-1</property>
  <property name="kdenlive:original.video_index">0</property>
  <property name="kdenlive:original.meta.media.frame_rate_num">60</property>
  <property name="kdenlive:original.meta.media.frame_rate_den">1</property>
  <property name="kdenlive:original.meta.media.colorspace">709</property>
  <property name="kdenlive:original.meta.media.color_trc">2</property>
  <property name="kdenlive:original.meta.media.has_b_frames">0</property>
  <property name="kdenlive:original.meta.media.width">1920</property>
  <property name="kdenlive:original.meta.media.height">1080</property>
  <property name="kdenlive:original.meta.media.color_range">mpeg</property>
  <property name="kdenlive:original.meta.media.top_field_first">0</property>
  <property name="kdenlive:original.meta.media.progressive">1</property>
  <property name="kdenlive:original.kdenlive:clip_type">2</property>
  <property name="kdenlive:original.kdenlive:folderid">255</property>
  <property name="kdenlive:original.kdenlive:id">256</property>
  <property name="kdenlive:original.mute_on_pause">0</property>
  <property name="kdenlive:original.kdenlive:file_size">1789797</property>
  <property name="kdenlive:original.kdenlive:file_hash">bfaf641a903729fd17c0021ba8c7c3ad</property>
  <property name="kdenlive:original.backup">1</property>
  <property name="kdenlive:file_hash">bfaf641a903729fd17c0021ba8c7c3ad</property>
  <property name="meta.media.nb_streams">1</property>
  <property name="meta.media.0.stream.type">video</property>
  <property name="meta.media.0.stream.frame_rate">60</property>
  <property name="meta.media.0.stream.sample_aspect_ratio">0</property>
  <property name="meta.media.0.codec.width">1920</property>
  <property name="meta.media.0.codec.height">1080</property>
  <property name="meta.media.0.codec.rotate">0</property>
  <property name="meta.media.0.codec.pix_fmt">argb</property>
  <property name="meta.media.0.codec.sample_aspect_ratio">0</property>
  <property name="meta.media.0.codec.colorspace">709</property>
  <property name="meta.media.0.codec.name">qtrle</property>
  <property name="meta.media.0.codec.long_name">QuickTime Animation (RLE) video</property>
  <property name="meta.media.0.codec.bit_rate">14309456</property>
  <property name="meta.attr.0.stream.handler_name.markup">VideoHandler</property>
  <property name="meta.attr.0.stream.vendor_id.markup">FFMP</property>
  <property name="meta.attr.0.stream.encoder.markup">Lavc60.3.100 qtrle</property>
  <property name="meta.attr.major_brand.markup">qt  </property>
  <property name="meta.attr.minor_version.markup">512</property>
  <property name="meta.attr.compatible_brands.markup">qt  </property>
  <property name="meta.attr.encoder.markup">Lavf60.3.100</property>
  <property name="meta.attr.comment.markup">Rendered with Manim Community v0.17.3</property>
  <property name="meta.media.sample_aspect_num">1</property>
  <property name="meta.media.sample_aspect_den">1</property>
  <property name="meta.media.frame_rate_num">60</property>
  <property name="meta.media.frame_rate_den">1</property>
  <property name="meta.media.colorspace">709</property>
  <property name="meta.media.color_trc">2</property>
  <property name="meta.media.has_b_frames">0</property>
  <property name="meta.media.width">1920</property>
  <property name="meta.media.height">1080</property>
  <property name="meta.media.color_range">mpeg</property>
  <property name="xml">was here</property>
  <property name="meta.media.top_field_first">0</property>
  <property name="meta.media.progressive">1</property>
  <property name="set.test_audio">1</property>
  <property name="set.test_image">0</property>
 </chain>
 <chain id="chain712" out="00:00:01.483">
  <property name="length">90</property>
  <property name="eof">pause</property>
  <property name="resource">video/TransparentSilhouettes/2.mov</property>
  <property name="mlt_service">avformat-novalidate</property>
  <property name="seekable">1</property>
  <property name="format">2</property>
  <property name="audio_index">-1</property>
  <property name="video_index">0</property>
  <property name="kdenlive:clipname">2.mov</property>
  <property name="kdenlive:clip_type">2</property>
  <property name="kdenlive:folderid">255</property>
  <property name="kdenlive:id">257</property>
  <property name="mute_on_pause">0</property>
  <property name="kdenlive:file_size">5357007</property>
  <property name="kdenlive:proxy">-</property>
  <property name="kdenlive:originalurl">video/TransparentSilhouettes/2.mov</property>
  <property name="kdenlive:original.mlt_type">chain</property>
  <property name="kdenlive:original.in">0</property>
  <property name="kdenlive:original.out">00:00:01.483</property>
  <property name="kdenlive:original.length">90</property>
  <property name="kdenlive:original.eof">pause</property>
  <property name="kdenlive:original.resource">video/TransparentSilhouettes/2.mov</property>
  <property name="kdenlive:original.mlt_service">avformat-novalidate</property>
  <property name="kdenlive:original.meta.media.nb_streams">1</property>
  <property name="kdenlive:original.meta.media.0.stream.type">video</property>
  <property name="kdenlive:original.meta.media.0.stream.frame_rate">60</property>
  <property name="kdenlive:original.meta.media.0.stream.sample_aspect_ratio">0</property>
  <property name="kdenlive:original.meta.media.0.codec.width">1920</property>
  <property name="kdenlive:original.meta.media.0.codec.height">1080</property>
  <property name="kdenlive:original.meta.media.0.codec.rotate">0</property>
  <property name="kdenlive:original.meta.media.0.codec.pix_fmt">argb</property>
  <property name="kdenlive:original.meta.media.0.codec.sample_aspect_ratio">0</property>
  <property name="kdenlive:original.meta.media.0.codec.colorspace">709</property>
  <property name="kdenlive:original.meta.media.0.codec.name">qtrle</property>
  <property name="kdenlive:original.meta.media.0.codec.long_name">QuickTime Animation (RLE) video</property>
  <property name="kdenlive:original.meta.media.0.codec.bit_rate">28563712</property>
  <property name="kdenlive:original.meta.attr.0.stream.handler_name.markup">VideoHandler</property>
  <property name="kdenlive:original.meta.attr.0.stream.vendor_id.markup">FFMP</property>
  <property name="kdenlive:original.meta.attr.0.stream.encoder.markup">Lavc60.3.100 qtrle</property>
  <property name="kdenlive:original.meta.attr.major_brand.markup">qt  </property>
  <property name="kdenlive:original.meta.attr.minor_version.markup">512</property>
  <property name="kdenlive:original.meta.attr.compatible_brands.markup">qt  </property>
  <property name="kdenlive:original.meta.attr.encoder.markup">Lavf60.3.100</property>
  <property name="kdenlive:original.meta.attr.comment.markup">Rendered with Manim Community v0.17.3</property>
  <property name="kdenlive:original.seekable">1</property>
  <property name="kdenlive:original.width">1920</property>
  <property name="kdenlive:original.height">1080</property>
  <property name="kdenlive:original.meta.media.sample_aspect_num">1</property>
  <property name="kdenlive:original.meta.media.sample_aspect_den">1</property>
  <property name="kdenlive:original.format">2</property>
  <property name="kdenlive:original.audio_index">-1</property>
  <property name="kdenlive:original.video_index">0</property>
  <property name="kdenlive:original.meta.media.frame_rate_num">60</property>
  <property name="kdenlive:original.meta.media.frame_rate_den">1</property>
  <property name="kdenlive:original.meta.media.colorspace">709</property>
  <property name="kdenlive:original.meta.media.color_trc">2</property>
  <property name="kdenlive:original.meta.media.has_b_frames">0</property>
  <property name="kdenlive:original.meta.media.width">1920</property>
  <property name="kdenlive:original.meta.media.height">1080</property>
  <property name="kdenlive:original.meta.media.color_range">mpeg</property>
  <property name="kdenlive:original.meta.media.top_field_first">0</property>
  <property name="kdenlive:original.meta.media.progressive">1</property>
  <property name="kdenlive:original.kdenlive:clip_type">2</property>
  <property name="kdenlive:original.kdenlive:folderid">255</property>
  <property name="kdenlive:original.kdenlive:id">257</property>
  <property name="kdenlive:original.mute_on_pause">0</property>
  <property name="kdenlive:original.kdenlive:file_size">5357007</property>
  <property name="kdenlive:original.kdenlive:file_hash">a3e3f38640cdf2a1045fa938b6005040</property>
  <property name="kdenlive:original.backup">1</property>
  <property name="kdenlive:file_hash">a3e3f38640cdf2a1045fa938b6005040</property>
  <property name="meta.media.nb_streams">1</property>
  <property name="meta.media.0.stream.type">video</property>
  <property name="meta.media.0.stream.frame_rate">60</property>
  <property name="meta.media.0.stream.sample_aspect_ratio">0</property>
  <property name="meta.media.0.codec.width">1920</property>
  <property name="meta.media.0.codec.height">1080</property>
  <property name="meta.media.0.codec.rotate">0</property>
  <property name="meta.media.0.codec.pix_fmt">argb</property>
  <property name="meta.media.0.codec.sample_aspect_ratio">0</property>
  <property name="meta.media.0.codec.colorspace">709</property>
  <property name="meta.media.0.codec.name">qtrle</property>
  <property name="meta.media.0.codec.long_name">QuickTime Animation (RLE) video</property>
  <property name="meta.media.0.codec.bit_rate">28563712</property>
  <property name="meta.attr.0.stream.handler_name.markup">VideoHandler</property>
  <property name="meta.attr.0.stream.vendor_id.markup">FFMP</property>
  <property name="meta.attr.0.stream.encoder.markup">Lavc60.3.100 qtrle</property>
  <property name="meta.attr.major_brand.markup">qt  </property>
  <property name="meta.attr.minor_version.markup">512</property>
  <property name="meta.attr.compatible_brands.markup">qt  </property>
  <property name="meta.attr.encoder.markup">Lavf60.3.100</property>
  <property name="meta.attr.comment.markup">Rendered with Manim Community v0.17.3</property>
  <property name="meta.media.sample_aspect_num">1</property>
  <property name="meta.media.sample_aspect_den">1</property>
  <property name="meta.media.frame_rate_num">60</property>
  <property name="meta.media.frame_rate_den">1</property>
  <property name="meta.media.colorspace">709</property>
  <property name="meta.media.color_trc">2</property>
  <property name="meta.media.has_b_frames">0</property>
  <property name="meta.media.width">1920</property>
  <property name="meta.media.height">1080</property>
  <property name="meta.media.color_range">mpeg</property>
  <property name="xml">was here</property>
  <property name="meta.media.top_field_first">0</property>
  <property name="meta.media.progressive">1</property>
  <property name="set.test_audio">1</property>
  <property name="set.test_image">0</property>
 </chain>
 <chain id="chain713" out="00:00:01.483">
  <property name="length">90</property>
  <property name="eof">pause</property>
  <property name="resource">video/TransparentSilhouettes/3.mov</property>
  <property name="mlt_service">avformat-novalidate</property>
  <property name="seekable">1</property>
  <property name="format">2</property>
  <property name="audio_index">-1</property>
  <property name="video_index">0</property>
  <property name="kdenlive:clipname">3.mov</property>
  <property name="kdenlive:clip_type">2</property>
  <property name="kdenlive:folderid">255</property>
  <property name="kdenlive:id">258</property>
  <property name="mute_on_pause">0</property>
  <property name="kdenlive:file_size">5075046</property>
  <property name="kdenlive:proxy">-</property>
  <property name="kdenlive:originalurl">video/TransparentSilhouettes/3.mov</property>
  <property name="kdenlive:original.mlt_type">chain</property>
  <property name="kdenlive:original.in">0</property>
  <property name="kdenlive:original.out">00:00:01.483</property>
  <property name="kdenlive:original.length">90</property>
  <property name="kdenlive:original.eof">pause</property>
  <property name="kdenlive:original.resource">video/TransparentSilhouettes/3.mov</property>
  <property name="kdenlive:original.mlt_service">avformat-novalidate</property>
  <property name="kdenlive:original.meta.media.nb_streams">1</property>
  <property name="kdenlive:original.meta.media.0.stream.type">video</property>
  <property name="kdenlive:original.meta.media.0.stream.frame_rate">60</property>
  <property name="kdenlive:original.meta.media.0.stream.sample_aspect_ratio">0</property>
  <property name="kdenlive:original.meta.media.0.codec.width">1920</property>
  <property name="kdenlive:original.meta.media.0.codec.height">1080</property>
  <property name="kdenlive:original.meta.media.0.codec.rotate">0</property>
  <property name="kdenlive:original.meta.media.0.codec.pix_fmt">argb</property>
  <property name="kdenlive:original.meta.media.0.codec.sample_aspect_ratio">0</property>
  <property name="kdenlive:original.meta.media.0.codec.colorspace">709</property>
  <property name="kdenlive:original.meta.media.0.codec.name">qtrle</property>
  <property name="kdenlive:original.meta.media.0.codec.long_name">QuickTime Animation (RLE) video</property>
  <property name="kdenlive:original.meta.media.0.codec.bit_rate">27060005</property>
  <property name="kdenlive:original.meta.attr.0.stream.handler_name.markup">VideoHandler</property>
  <property name="kdenlive:original.meta.attr.0.stream.vendor_id.markup">FFMP</property>
  <property name="kdenlive:original.meta.attr.0.stream.encoder.markup">Lavc60.3.100 qtrle</property>
  <property name="kdenlive:original.meta.attr.major_brand.markup">qt  </property>
  <property name="kdenlive:original.meta.attr.minor_version.markup">512</property>
  <property name="kdenlive:original.meta.attr.compatible_brands.markup">qt  </property>
  <property name="kdenlive:original.meta.attr.encoder.markup">Lavf60.3.100</property>
  <property name="kdenlive:original.meta.attr.comment.markup">Rendered with Manim Community v0.17.3</property>
  <property name="kdenlive:original.seekable">1</property>
  <property name="kdenlive:original.width">1920</property>
  <property name="kdenlive:original.height">1080</property>
  <property name="kdenlive:original.meta.media.sample_aspect_num">1</property>
  <property name="kdenlive:original.meta.media.sample_aspect_den">1</property>
  <property name="kdenlive:original.format">2</property>
  <property name="kdenlive:original.audio_index">-1</property>
  <property name="kdenlive:original.video_index">0</property>
  <property name="kdenlive:original.meta.media.frame_rate_num">60</property>
  <property name="kdenlive:original.meta.media.frame_rate_den">1</property>
  <property name="kdenlive:original.meta.media.colorspace">709</property>
  <property name="kdenlive:original.meta.media.color_trc">2</property>
  <property name="kdenlive:original.meta.media.has_b_frames">0</property>
  <property name="kdenlive:original.meta.media.width">1920</property>
  <property name="kdenlive:original.meta.media.height">1080</property>
  <property name="kdenlive:original.meta.media.color_range">mpeg</property>
  <property name="kdenlive:original.meta.media.top_field_first">0</property>
  <property name="kdenlive:original.meta.media.progressive">1</property>
  <property name="kdenlive:original.kdenlive:clip_type">2</property>
  <property name="kdenlive:original.kdenlive:folderid">255</property>
  <property name="kdenlive:original.kdenlive:id">258</property>
  <property name="kdenlive:original.mute_on_pause">0</property>
  <property name="kdenlive:original.kdenlive:file_size">5075046</property>
  <property name="kdenlive:original.kdenlive:file_hash">ff94e10b9d635bd21ed8677f105db73b</property>
  <property name="kdenlive:original.backup">1</property>
  <property name="kdenlive:file_hash">ff94e10b9d635bd21ed8677f105db73b</property>
  <property name="meta.media.nb_streams">1</property>
  <property name="meta.media.0.stream.type">video</property>
  <property name="meta.media.0.stream.frame_rate">60</property>
  <property name="meta.media.0.stream.sample_aspect_ratio">0</property>
  <property name="meta.media.0.codec.width">1920</property>
  <property name="meta.media.0.codec.height">1080</property>
  <property name="meta.media.0.codec.rotate">0</property>
  <property name="meta.media.0.codec.pix_fmt">argb</property>
  <property name="meta.media.0.codec.sample_aspect_ratio">0</property>
  <property name="meta.media.0.codec.colorspace">709</property>
  <property name="meta.media.0.codec.name">qtrle</property>
  <property name="meta.media.0.codec.long_name">QuickTime Animation (RLE) video</property>
  <property name="meta.media.0.codec.bit_rate">27060005</property>
  <property name="meta.attr.0.stream.handler_name.markup">VideoHandler</property>
  <property name="meta.attr.0.stream.vendor_id.markup">FFMP</property>
  <property name="meta.attr.0.stream.encoder.markup">Lavc60.3.100 qtrle</property>
  <property name="meta.attr.major_brand.markup">qt  </property>
  <property name="meta.attr.minor_version.markup">512</property>
  <property name="meta.attr.compatible_brands.markup">qt  </property>
  <property name="meta.attr.encoder.markup">Lavf60.3.100</property>
  <property name="meta.attr.comment.markup">Rendered with Manim Community v0.17.3</property>
  <property name="meta.media.sample_aspect_num">1</property>
  <property name="meta.media.sample_aspect_den">1</property>
  <property name="meta.media.frame_rate_num">60</property>
  <property name="meta.media.frame_rate_den">1</property>
  <property name="meta.media.colorspace">709</property>
  <property name="meta.media.color_trc">2</property>
  <property name="meta.media.has_b_frames">0</property>
  <property name="meta.media.width">1920</property>
  <property name="meta.media.height">1080</property>
  <property name="meta.media.color_range">mpeg</property>
  <property name="xml">was here</property>
  <property name="meta.media.top_field_first">0</property>
  <property name="meta.media.progressive">1</property>
  <property name="set.test_audio">1</property>
  <property name="set.test_image">0</property>
 </chain>
 <chain id="chain714" out="00:00:01.483">
  <property name="length">90</property>
  <property name="eof">pause</property>
  <property name="resource">video/TransparentSilhouettes/4.mov</property>
  <property name="mlt_service">avformat-novalidate</property>
  <property name="seekable">1</property>
  <property name="format">2</property>
  <property name="audio_index">-1</property>
  <property name="video_index">0</property>
  <property name="kdenlive:clipname">4.mov</property>
  <property name="kdenlive:clip_type">2</property>
  <property name="kdenlive:folderid">255</property>
  <property name="kdenlive:id">259</property>
  <property name="mute_on_pause">0</property>
  <property name="kdenlive:file_size">5053108</property>
  <property name="kdenlive:proxy">-</property>
  <property name="kdenlive:originalurl">video/TransparentSilhouettes/4.mov</property>
  <property name="kdenlive:original.mlt_type">chain</property>
  <property name="kdenlive:original.in">0</property>
  <property name="kdenlive:original.out">00:00:01.483</property>
  <property name="kdenlive:original.length">90</property>
  <property name="kdenlive:original.eof">pause</property>
  <property name="kdenlive:original.resource">video/TransparentSilhouettes/4.mov</property>
  <property name="kdenlive:original.mlt_service">avformat-novalidate</property>
  <property name="kdenlive:original.meta.media.nb_streams">1</property>
  <property name="kdenlive:original.meta.media.0.stream.type">video</property>
  <property name="kdenlive:original.meta.media.0.stream.frame_rate">60</property>
  <property name="kdenlive:original.meta.media.0.stream.sample_aspect_ratio">0</property>
  <property name="kdenlive:original.meta.media.0.codec.width">1920</property>
  <property name="kdenlive:original.meta.media.0.codec.height">1080</property>
  <property name="kdenlive:original.meta.media.0.codec.rotate">0</property>
  <property name="kdenlive:original.meta.media.0.codec.pix_fmt">argb</property>
  <property name="kdenlive:original.meta.media.0.codec.sample_aspect_ratio">0</property>
  <property name="kdenlive:original.meta.media.0.codec.colorspace">709</property>
  <property name="kdenlive:original.meta.media.0.codec.name">qtrle</property>
  <property name="kdenlive:original.meta.media.0.codec.long_name">QuickTime Animation (RLE) video</property>
  <property name="kdenlive:original.meta.media.0.codec.bit_rate">26943066</property>
  <property name="kdenlive:original.meta.attr.0.stream.handler_name.markup">VideoHandler</property>
  <property name="kdenlive:original.meta.attr.0.stream.vendor_id.markup">FFMP</property>
  <property name="kdenlive:original.meta.attr.0.stream.encoder.markup">Lavc60.3.100 qtrle</property>
  <property name="kdenlive:original.meta.attr.major_brand.markup">qt  </property>
  <property name="kdenlive:original.meta.attr.minor_version.markup">512</property>
  <property name="kdenlive:original.meta.attr.compatible_brands.markup">qt  </property>
  <property name="kdenlive:original.meta.attr.encoder.markup">Lavf60.3.100</property>
  <property name="kdenlive:original.meta.attr.comment.markup">Rendered with Manim Community v0.17.3</property>
  <property name="kdenlive:original.seekable">1</property>
  <property name="kdenlive:original.width">1920</property>
  <property name="kdenlive:original.height">1080</property>
  <property name="kdenlive:original.meta.media.sample_aspect_num">1</property>
  <property name="kdenlive:original.meta.media.sample_aspect_den">1</property>
  <property name="kdenlive:original.format">2</property>
  <property name="kdenlive:original.audio_index">-1</property>
  <property name="kdenlive:original.video_index">0</property>
  <property name="kdenlive:original.meta.media.frame_rate_num">60</property>
  <property name="kdenlive:original.meta.media.frame_rate_den">1</property>
  <property name="kdenlive:original.meta.media.colorspace">709</property>
  <property name="kdenlive:original.meta.media.color_trc">2</property>
  <property name="kdenlive:original.meta.media.has_b_frames">0</property>
  <property name="kdenlive:original.meta.media.width">1920</property>
  <property name="kdenlive:original.meta.media.height">1080</property>
  <property name="kdenlive:original.meta.media.color_range">mpeg</property>
  <property name="kdenlive:original.meta.media.top_field_first">0</property>
  <property name="kdenlive:original.meta.media.progressive">1</property>
  <property name="kdenlive:original.kdenlive:clip_type">2</property>
  <property name="kdenlive:original.kdenlive:folderid">255</property>
  <property name="kdenlive:original.kdenlive:id">259</property>
  <property name="kdenlive:original.mute_on_pause">0</property>
  <property name="kdenlive:original.kdenlive:file_size">5053108</property>
  <property name="kdenlive:original.kdenlive:file_hash">062134ed8d0f4772dd4ebb1cbab592a7</property>
  <property name="kdenlive:original.backup">1</property>
  <property name="kdenlive:file_hash">062134ed8d0f4772dd4ebb1cbab592a7</property>
  <property name="meta.media.nb_streams">1</property>
  <property name="meta.media.0.stream.type">video</property>
  <property name="meta.media.0.stream.frame_rate">60</property>
  <property name="meta.media.0.stream.sample_aspect_ratio">0</property>
  <property name="meta.media.0.codec.width">1920</property>
  <property name="meta.media.0.codec.height">1080</property>
  <property name="meta.media.0.codec.rotate">0</property>
  <property name="meta.media.0.codec.pix_fmt">argb</property>
  <property name="meta.media.0.codec.sample_aspect_ratio">0</property>
  <property name="meta.media.0.codec.colorspace">709</property>
  <property name="meta.media.0.codec.name">qtrle</property>
  <property name="meta.media.0.codec.long_name">QuickTime Animation (RLE) video</property>
  <property name="meta.media.0.codec.bit_rate">26943066</property>
  <property name="meta.attr.0.stream.handler_name.markup">VideoHandler</property>
  <property name="meta.attr.0.stream.vendor_id.markup">FFMP</property>
  <property name="meta.attr.0.stream.encoder.markup">Lavc60.3.100 qtrle</property>
  <property name="meta.attr.major_brand.markup">qt  </property>
  <property name="meta.attr.minor_version.markup">512</property>
  <property name="meta.attr.compatible_brands.markup">qt  </property>
  <property name="meta.attr.encoder.markup">Lavf60.3.100</property>
  <property name="meta.attr.comment.markup">Rendered with Manim Community v0.17.3</property>
  <property name="meta.media.sample_aspect_num">1</property>
  <property name="meta.media.sample_aspect_den">1</property>
  <property name="meta.media.frame_rate_num">60</property>
  <property name="meta.media.frame_rate_den">1</property>
  <property name="meta.media.colorspace">709</property>
  <property name="meta.media.color_trc">2</property>
  <property name="meta.media.has_b_frames">0</property>
  <property name="meta.media.width">1920</property>
  <property name="meta.media.height">1080</property>
  <property name="meta.media.color_range">mpeg</property>
  <property name="xml">was here</property>
  <property name="meta.media.top_field_first">0</property>
  <property name="meta.media.progressive">1</property>
  <property name="set.test_audio">1</property>
  <property name="set.test_image">0</property>
 </chain>
 <chain id="chain715" out="00:00:01.483">
  <property name="length">90</property>
  <property name="eof">pause</property>
  <property name="resource">video/TransparentSilhouettes/5.mov</property>
  <property name="mlt_service">avformat-novalidate</property>
  <property name="seekable">1</property>
  <property name="format">2</property>
  <property name="audio_index">-1</property>
  <property name="video_index">0</property>
  <property name="kdenlive:clipname">5.mov</property>
  <property name="kdenlive:clip_type">2</property>
  <property name="kdenlive:folderid">255</property>
  <property name="kdenlive:id">260</property>
  <property name="mute_on_pause">0</property>
  <property name="kdenlive:file_size">5737866</property>
  <property name="kdenlive:proxy">-</property>
  <property name="kdenlive:originalurl">video/TransparentSilhouettes/5.mov</property>
  <property name="kdenlive:original.mlt_type">chain</property>
  <property name="kdenlive:original.in">0</property>
  <property name="kdenlive:original.out">00:00:01.483</property>
  <property name="kdenlive:original.length">90</property>
  <property name="kdenlive:original.eof">pause</property>
  <property name="kdenlive:original.resource">video/TransparentSilhouettes/5.mov</property>
  <property name="kdenlive:original.mlt_service">avformat-novalidate</property>
  <property name="kdenlive:original.meta.media.nb_streams">1</property>
  <property name="kdenlive:original.meta.media.0.stream.type">video</property>
  <property name="kdenlive:original.meta.media.0.stream.frame_rate">60</property>
  <property name="kdenlive:original.meta.media.0.stream.sample_aspect_ratio">0</property>
  <property name="kdenlive:original.meta.media.0.codec.width">1920</property>
  <property name="kdenlive:original.meta.media.0.codec.height">1080</property>
  <property name="kdenlive:original.meta.media.0.codec.rotate">0</property>
  <property name="kdenlive:original.meta.media.0.codec.pix_fmt">argb</property>
  <property name="kdenlive:original.meta.media.0.codec.sample_aspect_ratio">0</property>
  <property name="kdenlive:original.meta.media.0.codec.colorspace">709</property>
  <property name="kdenlive:original.meta.media.0.codec.name">qtrle</property>
  <property name="kdenlive:original.meta.media.0.codec.long_name">QuickTime Animation (RLE) video</property>
  <property name="kdenlive:original.meta.media.0.codec.bit_rate">30595024</property>
  <property name="kdenlive:original.meta.attr.0.stream.handler_name.markup">VideoHandler</property>
  <property name="kdenlive:original.meta.attr.0.stream.vendor_id.markup">FFMP</property>
  <property name="kdenlive:original.meta.attr.0.stream.encoder.markup">Lavc60.3.100 qtrle</property>
  <property name="kdenlive:original.meta.attr.major_brand.markup">qt  </property>
  <property name="kdenlive:original.meta.attr.minor_version.markup">512</property>
  <property name="kdenlive:original.meta.attr.compatible_brands.markup">qt  </property>
  <property name="kdenlive:original.meta.attr.encoder.markup">Lavf60.3.100</property>
  <property name="kdenlive:original.meta.attr.comment.markup">Rendered with Manim Community v0.17.3</property>
  <property name="kdenlive:original.seekable">1</property>
  <property name="kdenlive:original.width">1920</property>
  <property name="kdenlive:original.height">1080</property>
  <property name="kdenlive:original.meta.media.sample_aspect_num">1</property>
  <property name="kdenlive:original.meta.media.sample_aspect_den">1</property>
  <property name="kdenlive:original.format">2</property>
  <property name="kdenlive:original.audio_index">-1</property>
  <property name="kdenlive:original.video_index">0</property>
  <property name="kdenlive:original.meta.media.frame_rate_num">60</property>
  <property name="kdenlive:original.meta.media.frame_rate_den">1</property>
  <property name="kdenlive:original.meta.media.colorspace">709</property>
  <property name="kdenlive:original.meta.media.color_trc">2</property>
  <property name="kdenlive:original.meta.media.has_b_frames">0</property>
  <property name="kdenlive:original.meta.media.width">1920</property>
  <property name="kdenlive:original.meta.media.height">1080</property>
  <property name="kdenlive:original.meta.media.color_range">mpeg</property>
  <property name="kdenlive:original.meta.media.top_field_first">0</property>
  <property name="kdenlive:original.meta.media.progressive">1</property>
  <property name="kdenlive:original.kdenlive:clip_type">2</property>
  <property name="kdenlive:original.kdenlive:folderid">255</property>
  <property name="kdenlive:original.kdenlive:id">260</property>
  <property name="kdenlive:original.mute_on_pause">0</property>
  <property name="kdenlive:original.kdenlive:file_size">5737866</property>
  <property name="kdenlive:original.kdenlive:file_hash">3b2d2d9dae1d7dda13b442881a708d5a</property>
  <property name="kdenlive:original.backup">1</property>
  <property name="kdenlive:file_hash">3b2d2d9dae1d7dda13b442881a708d5a</property>
  <property name="meta.media.nb_streams">1</property>
  <property name="meta.media.0.stream.type">video</property>
  <property name="meta.media.0.stream.frame_rate">60</property>
  <property name="meta.media.0.stream.sample_aspect_ratio">0</property>
  <property name="meta.media.0.codec.width">1920</property>
  <property name="meta.media.0.codec.height">1080</property>
  <property name="meta.media.0.codec.rotate">0</property>
  <property name="meta.media.0.codec.pix_fmt">argb</property>
  <property name="meta.media.0.codec.sample_aspect_ratio">0</property>
  <property name="meta.media.0.codec.colorspace">709</property>
  <property name="meta.media.0.codec.name">qtrle</property>
  <property name="meta.media.0.codec.long_name">QuickTime Animation (RLE) video</property>
  <property name="meta.media.0.codec.bit_rate">30595024</property>
  <property name="meta.attr.0.stream.handler_name.markup">VideoHandler</property>
  <property name="meta.attr.0.stream.vendor_id.markup">FFMP</property>
  <property name="meta.attr.0.stream.encoder.markup">Lavc60.3.100 qtrle</property>
  <property name="meta.attr.major_brand.markup">qt  </property>
  <property name="meta.attr.minor_version.markup">512</property>
  <property name="meta.attr.compatible_brands.markup">qt  </property>
  <property name="meta.attr.encoder.markup">Lavf60.3.100</property>
  <property name="meta.attr.comment.markup">Rendered with Manim Community v0.17.3</property>
  <property name="meta.media.sample_aspect_num">1</property>
  <property name="meta.media.sample_aspect_den">1</property>
  <property name="meta.media.frame_rate_num">60</property>
  <property name="meta.media.frame_rate_den">1</property>
  <property name="meta.media.colorspace">709</property>
  <property name="meta.media.color_trc">2</property>
  <property name="meta.media.has_b_frames">0</property>
  <property name="meta.media.width">1920</property>
  <property name="meta.media.height">1080</property>
  <property name="meta.media.color_range">mpeg</property>
  <property name="xml">was here</property>
  <property name="meta.media.top_field_first">0</property>
  <property name="meta.media.progressive">1</property>
  <property name="set.test_audio">1</property>
  <property name="set.test_image">0</property>
 </chain>
 <chain id="chain716" out="00:00:01.733">
  <property name="length">105</property>
  <property name="eof">pause</property>
  <property name="resource">video/TransparentSilhouettes/6.mov</property>
  <property name="mlt_service">avformat-novalidate</property>
  <property name="seekable">1</property>
  <property name="format">2</property>
  <property name="audio_index">-1</property>
  <property name="video_index">0</property>
  <property name="kdenlive:clipname">6.mov</property>
  <property name="kdenlive:clip_type">2</property>
  <property name="kdenlive:folderid">255</property>
  <property name="kdenlive:id">261</property>
  <property name="mute_on_pause">0</property>
  <property name="kdenlive:file_size">6770816</property>
  <property name="kdenlive:proxy">-</property>
  <property name="kdenlive:originalurl">video/TransparentSilhouettes/6.mov</property>
  <property name="kdenlive:original.mlt_type">chain</property>
  <property name="kdenlive:original.in">0</property>
  <property name="kdenlive:original.out">00:00:01.733</property>
  <property name="kdenlive:original.length">105</property>
  <property name="kdenlive:original.eof">pause</property>
  <property name="kdenlive:original.resource">video/TransparentSilhouettes/6.mov</property>
  <property name="kdenlive:original.mlt_service">avformat-novalidate</property>
  <property name="kdenlive:original.meta.media.nb_streams">1</property>
  <property name="kdenlive:original.meta.media.0.stream.type">video</property>
  <property name="kdenlive:original.meta.media.0.stream.frame_rate">60</property>
  <property name="kdenlive:original.meta.media.0.stream.sample_aspect_ratio">0</property>
  <property name="kdenlive:original.meta.media.0.codec.width">1920</property>
  <property name="kdenlive:original.meta.media.0.codec.height">1080</property>
  <property name="kdenlive:original.meta.media.0.codec.rotate">0</property>
  <property name="kdenlive:original.meta.media.0.codec.pix_fmt">argb</property>
  <property name="kdenlive:original.meta.media.0.codec.sample_aspect_ratio">0</property>
  <property name="kdenlive:original.meta.media.0.codec.colorspace">709</property>
  <property name="kdenlive:original.meta.media.0.codec.name">qtrle</property>
  <property name="kdenlive:original.meta.media.0.codec.long_name">QuickTime Animation (RLE) video</property>
  <property name="kdenlive:original.meta.media.0.codec.bit_rate">30945942</property>
  <property name="kdenlive:original.meta.attr.0.stream.handler_name.markup">VideoHandler</property>
  <property name="kdenlive:original.meta.attr.0.stream.vendor_id.markup">FFMP</property>
  <property name="kdenlive:original.meta.attr.0.stream.encoder.markup">Lavc60.3.100 qtrle</property>
  <property name="kdenlive:original.meta.attr.major_brand.markup">qt  </property>
  <property name="kdenlive:original.meta.attr.minor_version.markup">512</property>
  <property name="kdenlive:original.meta.attr.compatible_brands.markup">qt  </property>
  <property name="kdenlive:original.meta.attr.encoder.markup">Lavf60.3.100</property>
  <property name="kdenlive:original.meta.attr.comment.markup">Rendered with Manim Community v0.17.3</property>
  <property name="kdenlive:original.seekable">1</property>
  <property name="kdenlive:original.width">1920</property>
  <property name="kdenlive:original.height">1080</property>
  <property name="kdenlive:original.meta.media.sample_aspect_num">1</property>
  <property name="kdenlive:original.meta.media.sample_aspect_den">1</property>
  <property name="kdenlive:original.format">2</property>
  <property name="kdenlive:original.audio_index">-1</property>
  <property name="kdenlive:original.video_index">0</property>
  <property name="kdenlive:original.meta.media.frame_rate_num">60</property>
  <property name="kdenlive:original.meta.media.frame_rate_den">1</property>
  <property name="kdenlive:original.meta.media.colorspace">709</property>
  <property name="kdenlive:original.meta.media.color_trc">2</property>
  <property name="kdenlive:original.meta.media.has_b_frames">0</property>
  <property name="kdenlive:original.meta.media.width">1920</property>
  <property name="kdenlive:original.meta.media.height">1080</property>
  <property name="kdenlive:original.meta.media.color_range">mpeg</property>
  <property name="kdenlive:original.meta.media.top_field_first">0</property>
  <property name="kdenlive:original.meta.media.progressive">1</property>
  <property name="kdenlive:original.kdenlive:clip_type">2</property>
  <property name="kdenlive:original.kdenlive:folderid">255</property>
  <property name="kdenlive:original.kdenlive:id">261</property>
  <property name="kdenlive:original.mute_on_pause">0</property>
  <property name="kdenlive:original.kdenlive:file_size">6770816</property>
  <property name="kdenlive:original.kdenlive:file_hash">b18d7c691deb372d23a10d616476ac3c</property>
  <property name="kdenlive:original.backup">1</property>
  <property name="kdenlive:file_hash">b18d7c691deb372d23a10d616476ac3c</property>
  <property name="meta.media.nb_streams">1</property>
  <property name="meta.media.0.stream.type">video</property>
  <property name="meta.media.0.stream.frame_rate">60</property>
  <property name="meta.media.0.stream.sample_aspect_ratio">0</property>
  <property name="meta.media.0.codec.width">1920</property>
  <property name="meta.media.0.codec.height">1080</property>
  <property name="meta.media.0.codec.rotate">0</property>
  <property name="meta.media.0.codec.pix_fmt">argb</property>
  <property name="meta.media.0.codec.sample_aspect_ratio">0</property>
  <property name="meta.media.0.codec.colorspace">709</property>
  <property name="meta.media.0.codec.name">qtrle</property>
  <property name="meta.media.0.codec.long_name">QuickTime Animation (RLE) video</property>
  <property name="meta.media.0.codec.bit_rate">30945942</property>
  <property name="meta.attr.0.stream.handler_name.markup">VideoHandler</property>
  <property name="meta.attr.0.stream.vendor_id.markup">FFMP</property>
  <property name="meta.attr.0.stream.encoder.markup">Lavc60.3.100 qtrle</property>
  <property name="meta.attr.major_brand.markup">qt  </property>
  <property name="meta.attr.minor_version.markup">512</property>
  <property name="meta.attr.compatible_brands.markup">qt  </property>
  <property name="meta.attr.encoder.markup">Lavf60.3.100</property>
  <property name="meta.attr.comment.markup">Rendered with Manim Community v0.17.3</property>
  <property name="meta.media.sample_aspect_num">1</property>
  <property name="meta.media.sample_aspect_den">1</property>
  <property name="meta.media.frame_rate_num">60</property>
  <property name="meta.media.frame_rate_den">1</property>
  <property name="meta.media.colorspace">709</property>
  <property name="meta.media.color_trc">2</property>
  <property name="meta.media.has_b_frames">0</property>
  <property name="meta.media.width">1920</property>
  <property name="meta.media.height">1080</property>
  <property name="meta.media.color_range">mpeg</property>
  <property name="xml">was here</property>
  <property name="meta.media.top_field_first">0</property>
  <property name="meta.media.progressive">1</property>
  <property name="set.test_audio">1</property>
  <property name="set.test_image">0</property>
 </chain>
 <chain id="chain717" out="00:00:01.233">
  <property name="length">75</property>
  <property name="eof">pause</property>
  <property name="resource">video/TransparentSilhouettes/7.mov</property>
  <property name="mlt_service">avformat-novalidate</property>
  <property name="seekable">1</property>
  <property name="format">2</property>
  <property name="audio_index">-1</property>
  <property name="video_index">0</property>
  <property name="kdenlive:clipname">7.mov</property>
  <property name="kdenlive:clip_type">2</property>
  <property name="kdenlive:folderid">255</property>
  <property name="kdenlive:id">262</property>
  <property name="mute_on_pause">0</property>
  <property name="kdenlive:file_size">32633265</property>
  <property name="kdenlive:proxy">-</property>
  <property name="kdenlive:originalurl">video/TransparentSilhouettes/7.mov</property>
  <property name="kdenlive:original.mlt_type">chain</property>
  <property name="kdenlive:original.in">0</property>
  <property name="kdenlive:original.out">00:00:01.233</property>
  <property name="kdenlive:original.length">75</property>
  <property name="kdenlive:original.eof">pause</property>
  <property name="kdenlive:original.resource">video/TransparentSilhouettes/7.mov</property>
  <property name="kdenlive:original.mlt_service">avformat-novalidate</property>
  <property name="kdenlive:original.meta.media.nb_streams">1</property>
  <property name="kdenlive:original.meta.media.0.stream.type">video</property>
  <property name="kdenlive:original.meta.media.0.stream.frame_rate">60</property>
  <property name="kdenlive:original.meta.media.0.stream.sample_aspect_ratio">0</property>
  <property name="kdenlive:original.meta.media.0.codec.width">1920</property>
  <property name="kdenlive:original.meta.media.0.codec.height">1080</property>
  <property name="kdenlive:original.meta.media.0.codec.rotate">0</property>
  <property name="kdenlive:original.meta.media.0.codec.pix_fmt">argb</property>
  <property name="kdenlive:original.meta.media.0.codec.sample_aspect_ratio">0</property>
  <property name="kdenlive:original.meta.media.0.codec.colorspace">709</property>
  <property name="kdenlive:original.meta.media.0.codec.name">qtrle</property>
  <property name="kdenlive:original.meta.media.0.codec.long_name">QuickTime Animation (RLE) video</property>
  <property name="kdenlive:original.meta.media.0.codec.bit_rate">208843737</property>
  <property name="kdenlive:original.meta.attr.0.stream.handler_name.markup">VideoHandler</property>
  <property name="kdenlive:original.meta.attr.0.stream.vendor_id.markup">FFMP</property>
  <property name="kdenlive:original.meta.attr.0.stream.encoder.markup">Lavc60.3.100 qtrle</property>
  <property name="kdenlive:original.meta.attr.major_brand.markup">qt  </property>
  <property name="kdenlive:original.meta.attr.minor_version.markup">512</property>
  <property name="kdenlive:original.meta.attr.compatible_brands.markup">qt  </property>
  <property name="kdenlive:original.meta.attr.encoder.markup">Lavf60.3.100</property>
  <property name="kdenlive:original.meta.attr.comment.markup">Rendered with Manim Community v0.17.3</property>
  <property name="kdenlive:original.seekable">1</property>
  <property name="kdenlive:original.width">1920</property>
  <property name="kdenlive:original.height">1080</property>
  <property name="kdenlive:original.meta.media.sample_aspect_num">1</property>
  <property name="kdenlive:original.meta.media.sample_aspect_den">1</property>
  <property name="kdenlive:original.format">2</property>
  <property name="kdenlive:original.audio_index">-1</property>
  <property name="kdenlive:original.video_index">0</property>
  <property name="kdenlive:original.meta.media.frame_rate_num">60</property>
  <property name="kdenlive:original.meta.media.frame_rate_den">1</property>
  <property name="kdenlive:original.meta.media.colorspace">709</property>
  <property name="kdenlive:original.meta.media.color_trc">2</property>
  <property name="kdenlive:original.meta.media.has_b_frames">0</property>
  <property name="kdenlive:original.meta.media.width">1920</property>
  <property name="kdenlive:original.meta.media.height">1080</property>
  <property name="kdenlive:original.meta.media.color_range">mpeg</property>
  <property name="kdenlive:original.meta.media.top_field_first">0</property>
  <property name="kdenlive:original.meta.media.progressive">1</property>
  <property name="kdenlive:original.kdenlive:clip_type">2</property>
  <property name="kdenlive:original.kdenlive:folderid">255</property>
  <property name="kdenlive:original.kdenlive:id">262</property>
  <property name="kdenlive:original.mute_on_pause">0</property>
  <property name="kdenlive:original.kdenlive:file_size">32633265</property>
  <property name="kdenlive:original.kdenlive:file_hash">a322d0cbdb7c1bfaf2eec62ab7b0bc06</property>
  <property name="kdenlive:original.backup">1</property>
  <property name="kdenlive:file_hash">a322d0cbdb7c1bfaf2eec62ab7b0bc06</property>
  <property name="meta.media.nb_streams">1</property>
  <property name="meta.media.0.stream.type">video</property>
  <property name="meta.media.0.stream.frame_rate">60</property>
  <property name="meta.media.0.stream.sample_aspect_ratio">0</property>
  <property name="meta.media.0.codec.width">1920</property>
  <property name="meta.media.0.codec.height">1080</property>
  <property name="meta.media.0.codec.rotate">0</property>
  <property name="meta.media.0.codec.pix_fmt">argb</property>
  <property name="meta.media.0.codec.sample_aspect_ratio">0</property>
  <property name="meta.media.0.codec.colorspace">709</property>
  <property name="meta.media.0.codec.name">qtrle</property>
  <property name="meta.media.0.codec.long_name">QuickTime Animation (RLE) video</property>
  <property name="meta.media.0.codec.bit_rate">208843737</property>
  <property name="meta.attr.0.stream.handler_name.markup">VideoHandler</property>
  <property name="meta.attr.0.stream.vendor_id.markup">FFMP</property>
  <property name="meta.attr.0.stream.encoder.markup">Lavc60.3.100 qtrle</property>
  <property name="meta.attr.major_brand.markup">qt  </property>
  <property name="meta.attr.minor_version.markup">512</property>
  <property name="meta.attr.compatible_brands.markup">qt  </property>
  <property name="meta.attr.encoder.markup">Lavf60.3.100</property>
  <property name="meta.attr.comment.markup">Rendered with Manim Community v0.17.3</property>
  <property name="meta.media.sample_aspect_num">1</property>
  <property name="meta.media.sample_aspect_den">1</property>
  <property name="meta.media.frame_rate_num">60</property>
  <property name="meta.media.frame_rate_den">1</property>
  <property name="meta.media.colorspace">709</property>
  <property name="meta.media.color_trc">2</property>
  <property name="meta.media.has_b_frames">0</property>
  <property name="meta.media.width">1920</property>
  <property name="meta.media.height">1080</property>
  <property name="meta.media.color_range">mpeg</property>
  <property name="xml">was here</property>
  <property name="meta.media.top_field_first">0</property>
  <property name="meta.media.progressive">1</property>
  <property name="set.test_audio">1</property>
  <property name="set.test_image">0</property>
 </chain>
 <chain id="chain718" out="00:00:00.983">
  <property name="length">60</property>
  <property name="eof">pause</property>
  <property name="resource">/home/xiaoxiae/.cache/kdenlive/proxy/8ec3af5f23381636bfe7c264a433d865.mkv</property>
  <property name="mlt_service">avformat-novalidate</property>
  <property name="seekable">1</property>
  <property name="format">3</property>
  <property name="audio_index">-1</property>
  <property name="video_index">0</property>
  <property name="kdenlive:clipname">54.mp4</property>
  <property name="kdenlive:clip_type">2</property>
  <property name="kdenlive:folderid">16</property>
  <property name="kdenlive:id">128</property>
  <property name="mute_on_pause">0</property>
  <property name="kdenlive:file_size">103714</property>
  <property name="kdenlive:file_hash">8ec3af5f23381636bfe7c264a433d865</property>
  <property name="kdenlive:proxy">/home/xiaoxiae/.cache/kdenlive/proxy/8ec3af5f23381636bfe7c264a433d865.mkv</property>
  <property name="kdenlive:originalurl">video/Farmer/54.mp4</property>
  <property name="kdenlive:original.mlt_type">chain</property>
  <property name="kdenlive:original.in">0</property>
  <property name="kdenlive:original.out">00:00:00.983</property>
  <property name="kdenlive:original.length">60</property>
  <property name="kdenlive:original.eof">pause</property>
  <property name="kdenlive:original.resource">video/Farmer/54.mp4</property>
  <property name="kdenlive:original.mlt_service">avformat-novalidate</property>
  <property name="kdenlive:original.meta.media.nb_streams">1</property>
  <property name="kdenlive:original.meta.media.0.stream.type">video</property>
  <property name="kdenlive:original.meta.media.0.stream.frame_rate">60</property>
  <property name="kdenlive:original.meta.media.0.stream.sample_aspect_ratio">0</property>
  <property name="kdenlive:original.meta.media.0.codec.width">1920</property>
  <property name="kdenlive:original.meta.media.0.codec.height">1080</property>
  <property name="kdenlive:original.meta.media.0.codec.rotate">0</property>
  <property name="kdenlive:original.meta.media.0.codec.pix_fmt">yuv420p</property>
  <property name="kdenlive:original.meta.media.0.codec.sample_aspect_ratio">0</property>
  <property name="kdenlive:original.meta.media.0.codec.colorspace">709</property>
  <property name="kdenlive:original.meta.media.0.codec.name">h264</property>
  <property name="kdenlive:original.meta.media.0.codec.long_name">H.264 / AVC / MPEG-4 AVC / MPEG-4 part 10</property>
  <property name="kdenlive:original.meta.media.0.codec.bit_rate">816592</property>
  <property name="kdenlive:original.meta.attr.0.stream.handler_name.markup">VideoHandler</property>
  <property name="kdenlive:original.meta.attr.0.stream.vendor_id.markup">[0][0][0][0]</property>
  <property name="kdenlive:original.meta.attr.0.stream.encoder.markup">Lavc60.3.100 libx264</property>
  <property name="kdenlive:original.meta.attr.major_brand.markup">isom</property>
  <property name="kdenlive:original.meta.attr.minor_version.markup">512</property>
  <property name="kdenlive:original.meta.attr.compatible_brands.markup">isomiso2avc1mp41</property>
  <property name="kdenlive:original.meta.attr.encoder.markup">Lavf60.3.100</property>
  <property name="kdenlive:original.meta.attr.comment.markup">Rendered with Manim Community v0.17.3</property>
  <property name="kdenlive:original.seekable">1</property>
  <property name="kdenlive:original.width">1920</property>
  <property name="kdenlive:original.height">1080</property>
  <property name="kdenlive:original.meta.media.sample_aspect_num">1</property>
  <property name="kdenlive:original.meta.media.sample_aspect_den">1</property>
  <property name="kdenlive:original.format">3</property>
  <property name="kdenlive:original.audio_index">-1</property>
  <property name="kdenlive:original.video_index">0</property>
  <property name="kdenlive:original.meta.media.frame_rate_num">60</property>
  <property name="kdenlive:original.meta.media.frame_rate_den">1</property>
  <property name="kdenlive:original.meta.media.colorspace">709</property>
  <property name="kdenlive:original.meta.media.color_trc">2</property>
  <property name="kdenlive:original.meta.media.has_b_frames">2</property>
  <property name="kdenlive:original.meta.media.width">1920</property>
  <property name="kdenlive:original.meta.media.height">1080</property>
  <property name="kdenlive:original.meta.media.color_range">mpeg</property>
  <property name="kdenlive:original.meta.media.top_field_first">0</property>
  <property name="kdenlive:original.meta.media.progressive">1</property>
  <property name="kdenlive:original.kdenlive:clip_type">2</property>
  <property name="kdenlive:original.kdenlive:folderid">16</property>
  <property name="kdenlive:original.kdenlive:id">128</property>
  <property name="kdenlive:original.mute_on_pause">0</property>
  <property name="kdenlive:original.kdenlive:file_size">103714</property>
  <property name="kdenlive:original.kdenlive:file_hash">8ec3af5f23381636bfe7c264a433d865</property>
  <property name="kdenlive:original.backup">1</property>
  <property name="meta.media.nb_streams">1</property>
  <property name="meta.media.0.stream.type">video</property>
  <property name="meta.media.0.stream.frame_rate">60</property>
  <property name="meta.media.0.stream.sample_aspect_ratio">0</property>
  <property name="meta.media.0.codec.width">640</property>
  <property name="meta.media.0.codec.height">360</property>
  <property name="meta.media.0.codec.rotate">0</property>
  <property name="meta.media.0.codec.pix_fmt">yuvj420p</property>
  <property name="meta.media.0.codec.sample_aspect_ratio">0</property>
  <property name="meta.media.0.codec.colorspace">601</property>
  <property name="meta.media.0.codec.name">mjpeg</property>
  <property name="meta.media.0.codec.long_name">MJPEG (Motion JPEG)</property>
  <property name="meta.media.0.codec.bit_rate">0</property>
  <property name="meta.attr.0.stream.HANDLER_NAME.markup">VideoHandler</property>
  <property name="meta.attr.0.stream.VENDOR_ID.markup">[0][0][0][0]</property>
  <property name="meta.attr.0.stream.ENCODER.markup">Lavc60.3.100 mjpeg</property>
  <property name="meta.attr.0.stream.DURATION.markup">00:00:01.000000000</property>
  <property name="meta.attr.COMMENT.markup">Rendered with Manim Community v0.17.3</property>
  <property name="meta.attr.MAJOR_BRAND.markup">isom</property>
  <property name="meta.attr.MINOR_VERSION.markup">512</property>
  <property name="meta.attr.COMPATIBLE_BRANDS.markup">isomiso2avc1mp41</property>
  <property name="meta.attr.ENCODER.markup">Lavf60.3.100</property>
  <property name="meta.media.sample_aspect_num">1</property>
  <property name="meta.media.sample_aspect_den">1</property>
  <property name="meta.media.frame_rate_num">60</property>
  <property name="meta.media.frame_rate_den">1</property>
  <property name="meta.media.colorspace">601</property>
  <property name="meta.media.color_trc">2</property>
  <property name="meta.media.has_b_frames">0</property>
  <property name="meta.media.width">640</property>
  <property name="meta.media.height">360</property>
  <property name="meta.media.color_range">full</property>
  <property name="xml">was here</property>
  <property name="meta.media.top_field_first">0</property>
  <property name="meta.media.progressive">1</property>
  <property name="set.test_audio">1</property>
  <property name="set.test_image">0</property>
 </chain>
 <producer id="producer9" in="00:00:00.000" out="00:00:09.983">
  <property name="length">600</property>
  <property name="eof">pause</property>
  <property name="resource">0.100000:/home/xiaoxiae/.cache/kdenlive/proxy/7b8f60271a35bb53a0b415397e112095.mkv</property>
  <property name="aspect_ratio">1</property>
  <property name="meta.media.nb_streams">1</property>
  <property name="meta.media.0.stream.type">video</property>
  <property name="meta.media.0.stream.frame_rate">60</property>
  <property name="meta.media.0.stream.sample_aspect_ratio">0</property>
  <property name="meta.media.0.codec.width">640</property>
  <property name="meta.media.0.codec.height">360</property>
  <property name="meta.media.0.codec.rotate">0</property>
  <property name="meta.media.0.codec.pix_fmt">yuvj420p</property>
  <property name="meta.media.0.codec.sample_aspect_ratio">0</property>
  <property name="meta.media.0.codec.colorspace">601</property>
  <property name="meta.media.0.codec.name">mjpeg</property>
  <property name="meta.media.0.codec.long_name">MJPEG (Motion JPEG)</property>
  <property name="meta.media.0.codec.bit_rate">0</property>
  <property name="meta.attr.0.stream.HANDLER_NAME.markup">VideoHandler</property>
  <property name="meta.attr.0.stream.VENDOR_ID.markup">[0][0][0][0]</property>
  <property name="meta.attr.0.stream.ENCODER.markup">Lavc60.3.100 mjpeg</property>
  <property name="meta.attr.0.stream.DURATION.markup">00:00:01.000000000</property>
  <property name="meta.attr.COMMENT.markup">Rendered with Manim Community v0.17.3</property>
  <property name="meta.attr.MAJOR_BRAND.markup">isom</property>
  <property name="meta.attr.MINOR_VERSION.markup">512</property>
  <property name="meta.attr.COMPATIBLE_BRANDS.markup">isomiso2avc1mp41</property>
  <property name="meta.attr.ENCODER.markup">Lavf60.3.100</property>
  <property name="seekable">1</property>
  <property name="meta.media.sample_aspect_num">1</property>
  <property name="meta.media.sample_aspect_den">1</property>
  <property name="format">3</property>
  <property name="audio_index">-1</property>
  <property name="video_index">0</property>
  <property name="warp_speed">0.1</property>
  <property name="warp_resource">/home/xiaoxiae/.cache/kdenlive/proxy/7b8f60271a35bb53a0b415397e112095.mkv</property>
  <property name="mlt_service">timewarp</property>
  <property name="kdenlive:proxy">/home/xiaoxiae/.cache/kdenlive/proxy/7b8f60271a35bb53a0b415397e112095.mkv</property>
  <property name="kdenlive:originalurl">video/Farmer/112.mp4</property>
  <property name="set.test_audio">1</property>
  <property name="set.test_image">0</property>
  <property name="kdenlive:id">32</property>
  <property name="warp_pitch">0</property>
  <property name="meta.media.frame_rate_num">60</property>
  <property name="meta.media.frame_rate_den">1</property>
  <property name="meta.media.colorspace">601</property>
  <property name="meta.media.color_trc">2</property>
  <property name="meta.media.has_b_frames">0</property>
  <property name="meta.media.width">640</property>
  <property name="meta.media.height">360</property>
  <property name="meta.media.color_range">full</property>
  <property name="meta.media.top_field_first">0</property>
  <property name="meta.media.progressive">1</property>
 </producer>
 <producer id="producer10" in="00:00:00.000" out="00:00:19.983">
  <property name="length">1200</property>
  <property name="eof">pause</property>
  <property name="resource">0.050000:/home/xiaoxiae/.cache/kdenlive/proxy/86e52d336a5a41d59944e97bc58e7889.mkv</property>
  <property name="aspect_ratio">1</property>
  <property name="meta.media.nb_streams">1</property>
  <property name="meta.media.0.stream.type">video</property>
  <property name="meta.media.0.stream.frame_rate">60</property>
  <property name="meta.media.0.stream.sample_aspect_ratio">0</property>
  <property name="meta.media.0.codec.width">640</property>
  <property name="meta.media.0.codec.height">360</property>
  <property name="meta.media.0.codec.rotate">0</property>
  <property name="meta.media.0.codec.pix_fmt">yuvj420p</property>
  <property name="meta.media.0.codec.sample_aspect_ratio">0</property>
  <property name="meta.media.0.codec.colorspace">601</property>
  <property name="meta.media.0.codec.name">mjpeg</property>
  <property name="meta.media.0.codec.long_name">MJPEG (Motion JPEG)</property>
  <property name="meta.media.0.codec.bit_rate">0</property>
  <property name="meta.attr.0.stream.HANDLER_NAME.markup">VideoHandler</property>
  <property name="meta.attr.0.stream.VENDOR_ID.markup">[0][0][0][0]</property>
  <property name="meta.attr.0.stream.ENCODER.markup">Lavc60.3.100 mjpeg</property>
  <property name="meta.attr.0.stream.DURATION.markup">00:00:01.000000000</property>
  <property name="meta.attr.COMMENT.markup">Rendered with Manim Community v0.17.3</property>
  <property name="meta.attr.MAJOR_BRAND.markup">isom</property>
  <property name="meta.attr.MINOR_VERSION.markup">512</property>
  <property name="meta.attr.COMPATIBLE_BRANDS.markup">isomiso2avc1mp41</property>
  <property name="meta.attr.ENCODER.markup">Lavf60.3.100</property>
  <property name="seekable">1</property>
  <property name="meta.media.sample_aspect_num">1</property>
  <property name="meta.media.sample_aspect_den">1</property>
  <property name="format">3</property>
  <property name="audio_index">-1</property>
  <property name="video_index">0</property>
  <property name="warp_speed">0.05</property>
  <property name="warp_resource">/home/xiaoxiae/.cache/kdenlive/proxy/86e52d336a5a41d59944e97bc58e7889.mkv</property>
  <property name="mlt_service">timewarp</property>
  <property name="kdenlive:proxy">/home/xiaoxiae/.cache/kdenlive/proxy/86e52d336a5a41d59944e97bc58e7889.mkv</property>
  <property name="kdenlive:originalurl">video/Farmer/133.mp4</property>
  <property name="set.test_audio">1</property>
  <property name="set.test_image">0</property>
  <property name="kdenlive:id">55</property>
  <property name="warp_pitch">0</property>
  <property name="meta.media.frame_rate_num">60</property>
  <property name="meta.media.frame_rate_den">1</property>
  <property name="meta.media.colorspace">601</property>
  <property name="meta.media.color_trc">2</property>
  <property name="meta.media.has_b_frames">0</property>
  <property name="meta.media.width">640</property>
  <property name="meta.media.height">360</property>
  <property name="meta.media.color_range">full</property>
  <property name="meta.media.top_field_first">0</property>
  <property name="meta.media.progressive">1</property>
 </producer>
 <chain id="chain719" out="00:00:00.983">
  <property name="length">60</property>
  <property name="eof">pause</property>
  <property name="resource">video/TransparentFunnyXD/1.mov</property>
  <property name="mlt_service">avformat-novalidate</property>
  <property name="seekable">1</property>
  <property name="format">2</property>
  <property name="audio_index">-1</property>
  <property name="video_index">0</property>
  <property name="kdenlive:clipname">1.mov</property>
  <property name="kdenlive:clip_type">2</property>
  <property name="kdenlive:folderid">244</property>
  <property name="kdenlive:id">245</property>
  <property name="mute_on_pause">0</property>
  <property name="kdenlive:file_size">2322688</property>
  <property name="kdenlive:proxy">-</property>
  <property name="kdenlive:originalurl">video/TransparentFunnyXD/1.mov</property>
  <property name="kdenlive:original.mlt_type">chain</property>
  <property name="kdenlive:original.in">0</property>
  <property name="kdenlive:original.out">00:00:00.983</property>
  <property name="kdenlive:original.length">60</property>
  <property name="kdenlive:original.eof">pause</property>
  <property name="kdenlive:original.resource">video/TransparentFunnyXD/1.mov</property>
  <property name="kdenlive:original.mlt_service">avformat-novalidate</property>
  <property name="kdenlive:original.meta.media.nb_streams">1</property>
  <property name="kdenlive:original.meta.media.0.stream.type">video</property>
  <property name="kdenlive:original.meta.media.0.stream.frame_rate">60</property>
  <property name="kdenlive:original.meta.media.0.stream.sample_aspect_ratio">0</property>
  <property name="kdenlive:original.meta.media.0.codec.width">1920</property>
  <property name="kdenlive:original.meta.media.0.codec.height">1080</property>
  <property name="kdenlive:original.meta.media.0.codec.rotate">0</property>
  <property name="kdenlive:original.meta.media.0.codec.pix_fmt">argb</property>
  <property name="kdenlive:original.meta.media.0.codec.sample_aspect_ratio">0</property>
  <property name="kdenlive:original.meta.media.0.codec.colorspace">709</property>
  <property name="kdenlive:original.meta.media.0.codec.name">qtrle</property>
  <property name="kdenlive:original.meta.media.0.codec.long_name">QuickTime Animation (RLE) video</property>
  <property name="kdenlive:original.meta.media.0.codec.bit_rate">18572456</property>
  <property name="kdenlive:original.meta.attr.0.stream.handler_name.markup">VideoHandler</property>
  <property name="kdenlive:original.meta.attr.0.stream.vendor_id.markup">FFMP</property>
  <property name="kdenlive:original.meta.attr.0.stream.encoder.markup">Lavc60.3.100 qtrle</property>
  <property name="kdenlive:original.meta.attr.major_brand.markup">qt  </property>
  <property name="kdenlive:original.meta.attr.minor_version.markup">512</property>
  <property name="kdenlive:original.meta.attr.compatible_brands.markup">qt  </property>
  <property name="kdenlive:original.meta.attr.encoder.markup">Lavf60.3.100</property>
  <property name="kdenlive:original.meta.attr.comment.markup">Rendered with Manim Community v0.17.3</property>
  <property name="kdenlive:original.seekable">1</property>
  <property name="kdenlive:original.width">1920</property>
  <property name="kdenlive:original.height">1080</property>
  <property name="kdenlive:original.meta.media.sample_aspect_num">1</property>
  <property name="kdenlive:original.meta.media.sample_aspect_den">1</property>
  <property name="kdenlive:original.format">2</property>
  <property name="kdenlive:original.audio_index">-1</property>
  <property name="kdenlive:original.video_index">0</property>
  <property name="kdenlive:original.meta.media.frame_rate_num">60</property>
  <property name="kdenlive:original.meta.media.frame_rate_den">1</property>
  <property name="kdenlive:original.meta.media.colorspace">709</property>
  <property name="kdenlive:original.meta.media.color_trc">2</property>
  <property name="kdenlive:original.meta.media.has_b_frames">0</property>
  <property name="kdenlive:original.meta.media.width">1920</property>
  <property name="kdenlive:original.meta.media.height">1080</property>
  <property name="kdenlive:original.meta.media.color_range">mpeg</property>
  <property name="kdenlive:original.meta.media.top_field_first">0</property>
  <property name="kdenlive:original.meta.media.progressive">1</property>
  <property name="kdenlive:original.kdenlive:clip_type">2</property>
  <property name="kdenlive:original.kdenlive:folderid">244</property>
  <property name="kdenlive:original.kdenlive:id">245</property>
  <property name="kdenlive:original.mute_on_pause">0</property>
  <property name="kdenlive:original.kdenlive:file_size">2322688</property>
  <property name="kdenlive:original.kdenlive:file_hash">8ccc15456dd2067abf06a4528d99c861</property>
  <property name="kdenlive:original.backup">1</property>
  <property name="kdenlive:file_hash">8ccc15456dd2067abf06a4528d99c861</property>
  <property name="meta.media.nb_streams">1</property>
  <property name="meta.media.0.stream.type">video</property>
  <property name="meta.media.0.stream.frame_rate">60</property>
  <property name="meta.media.0.stream.sample_aspect_ratio">0</property>
  <property name="meta.media.0.codec.width">1920</property>
  <property name="meta.media.0.codec.height">1080</property>
  <property name="meta.media.0.codec.rotate">0</property>
  <property name="meta.media.0.codec.pix_fmt">argb</property>
  <property name="meta.media.0.codec.sample_aspect_ratio">0</property>
  <property name="meta.media.0.codec.colorspace">709</property>
  <property name="meta.media.0.codec.name">qtrle</property>
  <property name="meta.media.0.codec.long_name">QuickTime Animation (RLE) video</property>
  <property name="meta.media.0.codec.bit_rate">18572456</property>
  <property name="meta.attr.0.stream.handler_name.markup">VideoHandler</property>
  <property name="meta.attr.0.stream.vendor_id.markup">FFMP</property>
  <property name="meta.attr.0.stream.encoder.markup">Lavc60.3.100 qtrle</property>
  <property name="meta.attr.major_brand.markup">qt  </property>
  <property name="meta.attr.minor_version.markup">512</property>
  <property name="meta.attr.compatible_brands.markup">qt  </property>
  <property name="meta.attr.encoder.markup">Lavf60.3.100</property>
  <property name="meta.attr.comment.markup">Rendered with Manim Community v0.17.3</property>
  <property name="meta.media.sample_aspect_num">1</property>
  <property name="meta.media.sample_aspect_den">1</property>
  <property name="meta.media.frame_rate_num">60</property>
  <property name="meta.media.frame_rate_den">1</property>
  <property name="meta.media.colorspace">709</property>
  <property name="meta.media.color_trc">2</property>
  <property name="meta.media.has_b_frames">0</property>
  <property name="meta.media.width">1920</property>
  <property name="meta.media.height">1080</property>
  <property name="meta.media.color_range">mpeg</property>
  <property name="xml">was here</property>
  <property name="meta.media.top_field_first">0</property>
  <property name="meta.media.progressive">1</property>
  <property name="set.test_audio">1</property>
  <property name="set.test_image">0</property>
 </chain>
 <chain id="chain720" out="00:00:01.983">
  <property name="length">120</property>
  <property name="eof">pause</property>
  <property name="resource">video/TransparentFunnyXD/2.mov</property>
  <property name="mlt_service">avformat-novalidate</property>
  <property name="seekable">1</property>
  <property name="format">2</property>
  <property name="audio_index">-1</property>
  <property name="video_index">0</property>
  <property name="kdenlive:clipname">2.mov</property>
  <property name="kdenlive:clip_type">2</property>
  <property name="kdenlive:folderid">244</property>
  <property name="kdenlive:id">246</property>
  <property name="mute_on_pause">0</property>
  <property name="kdenlive:file_size">4751359</property>
  <property name="kdenlive:proxy">-</property>
  <property name="kdenlive:originalurl">video/TransparentFunnyXD/2.mov</property>
  <property name="kdenlive:original.mlt_type">chain</property>
  <property name="kdenlive:original.in">0</property>
  <property name="kdenlive:original.out">00:00:01.983</property>
  <property name="kdenlive:original.length">120</property>
  <property name="kdenlive:original.eof">pause</property>
  <property name="kdenlive:original.resource">video/TransparentFunnyXD/2.mov</property>
  <property name="kdenlive:original.mlt_service">avformat-novalidate</property>
  <property name="kdenlive:original.meta.media.nb_streams">1</property>
  <property name="kdenlive:original.meta.media.0.stream.type">video</property>
  <property name="kdenlive:original.meta.media.0.stream.frame_rate">60</property>
  <property name="kdenlive:original.meta.media.0.stream.sample_aspect_ratio">0</property>
  <property name="kdenlive:original.meta.media.0.codec.width">1920</property>
  <property name="kdenlive:original.meta.media.0.codec.height">1080</property>
  <property name="kdenlive:original.meta.media.0.codec.rotate">0</property>
  <property name="kdenlive:original.meta.media.0.codec.pix_fmt">argb</property>
  <property name="kdenlive:original.meta.media.0.codec.sample_aspect_ratio">0</property>
  <property name="kdenlive:original.meta.media.0.codec.colorspace">709</property>
  <property name="kdenlive:original.meta.media.0.codec.name">qtrle</property>
  <property name="kdenlive:original.meta.media.0.codec.long_name">QuickTime Animation (RLE) video</property>
  <property name="kdenlive:original.meta.media.0.codec.bit_rate">18999744</property>
  <property name="kdenlive:original.meta.attr.0.stream.handler_name.markup">VideoHandler</property>
  <property name="kdenlive:original.meta.attr.0.stream.vendor_id.markup">FFMP</property>
  <property name="kdenlive:original.meta.attr.0.stream.encoder.markup">Lavc60.3.100 qtrle</property>
  <property name="kdenlive:original.meta.attr.major_brand.markup">qt  </property>
  <property name="kdenlive:original.meta.attr.minor_version.markup">512</property>
  <property name="kdenlive:original.meta.attr.compatible_brands.markup">qt  </property>
  <property name="kdenlive:original.meta.attr.encoder.markup">Lavf60.3.100</property>
  <property name="kdenlive:original.meta.attr.comment.markup">Rendered with Manim Community v0.17.3</property>
  <property name="kdenlive:original.seekable">1</property>
  <property name="kdenlive:original.width">1920</property>
  <property name="kdenlive:original.height">1080</property>
  <property name="kdenlive:original.meta.media.sample_aspect_num">1</property>
  <property name="kdenlive:original.meta.media.sample_aspect_den">1</property>
  <property name="kdenlive:original.format">2</property>
  <property name="kdenlive:original.audio_index">-1</property>
  <property name="kdenlive:original.video_index">0</property>
  <property name="kdenlive:original.meta.media.frame_rate_num">60</property>
  <property name="kdenlive:original.meta.media.frame_rate_den">1</property>
  <property name="kdenlive:original.meta.media.colorspace">709</property>
  <property name="kdenlive:original.meta.media.color_trc">2</property>
  <property name="kdenlive:original.meta.media.has_b_frames">0</property>
  <property name="kdenlive:original.meta.media.width">1920</property>
  <property name="kdenlive:original.meta.media.height">1080</property>
  <property name="kdenlive:original.meta.media.color_range">mpeg</property>
  <property name="kdenlive:original.meta.media.top_field_first">0</property>
  <property name="kdenlive:original.meta.media.progressive">1</property>
  <property name="kdenlive:original.kdenlive:clip_type">2</property>
  <property name="kdenlive:original.kdenlive:folderid">244</property>
  <property name="kdenlive:original.kdenlive:id">246</property>
  <property name="kdenlive:original.mute_on_pause">0</property>
  <property name="kdenlive:original.kdenlive:file_size">4751359</property>
  <property name="kdenlive:original.kdenlive:file_hash">dbe02c396e87968e8a8cabe4f6efc5b3</property>
  <property name="kdenlive:original.backup">1</property>
  <property name="kdenlive:file_hash">dbe02c396e87968e8a8cabe4f6efc5b3</property>
  <property name="meta.media.nb_streams">1</property>
  <property name="meta.media.0.stream.type">video</property>
  <property name="meta.media.0.stream.frame_rate">60</property>
  <property name="meta.media.0.stream.sample_aspect_ratio">0</property>
  <property name="meta.media.0.codec.width">1920</property>
  <property name="meta.media.0.codec.height">1080</property>
  <property name="meta.media.0.codec.rotate">0</property>
  <property name="meta.media.0.codec.pix_fmt">argb</property>
  <property name="meta.media.0.codec.sample_aspect_ratio">0</property>
  <property name="meta.media.0.codec.colorspace">709</property>
  <property name="meta.media.0.codec.name">qtrle</property>
  <property name="meta.media.0.codec.long_name">QuickTime Animation (RLE) video</property>
  <property name="meta.media.0.codec.bit_rate">18999744</property>
  <property name="meta.attr.0.stream.handler_name.markup">VideoHandler</property>
  <property name="meta.attr.0.stream.vendor_id.markup">FFMP</property>
  <property name="meta.attr.0.stream.encoder.markup">Lavc60.3.100 qtrle</property>
  <property name="meta.attr.major_brand.markup">qt  </property>
  <property name="meta.attr.minor_version.markup">512</property>
  <property name="meta.attr.compatible_brands.markup">qt  </property>
  <property name="meta.attr.encoder.markup">Lavf60.3.100</property>
  <property name="meta.attr.comment.markup">Rendered with Manim Community v0.17.3</property>
  <property name="meta.media.sample_aspect_num">1</property>
  <property name="meta.media.sample_aspect_den">1</property>
  <property name="meta.media.frame_rate_num">60</property>
  <property name="meta.media.frame_rate_den">1</property>
  <property name="meta.media.colorspace">709</property>
  <property name="meta.media.color_trc">2</property>
  <property name="meta.media.has_b_frames">0</property>
  <property name="meta.media.width">1920</property>
  <property name="meta.media.height">1080</property>
  <property name="meta.media.color_range">mpeg</property>
  <property name="xml">was here</property>
  <property name="meta.media.top_field_first">0</property>
  <property name="meta.media.progressive">1</property>
  <property name="set.test_audio">1</property>
  <property name="set.test_image">0</property>
 </chain>
 <chain id="chain721" out="00:00:01.983">
  <property name="length">120</property>
  <property name="eof">pause</property>
  <property name="resource">video/TransparentFunnyXD/3.mov</property>
  <property name="mlt_service">avformat-novalidate</property>
  <property name="seekable">1</property>
  <property name="format">2</property>
  <property name="audio_index">-1</property>
  <property name="video_index">0</property>
  <property name="kdenlive:clipname">3.mov</property>
  <property name="kdenlive:clip_type">2</property>
  <property name="kdenlive:folderid">244</property>
  <property name="kdenlive:id">247</property>
  <property name="mute_on_pause">0</property>
  <property name="kdenlive:file_size">5132772</property>
  <property name="kdenlive:proxy">-</property>
  <property name="kdenlive:originalurl">video/TransparentFunnyXD/3.mov</property>
  <property name="kdenlive:original.mlt_type">chain</property>
  <property name="kdenlive:original.in">0</property>
  <property name="kdenlive:original.out">00:00:01.983</property>
  <property name="kdenlive:original.length">120</property>
  <property name="kdenlive:original.eof">pause</property>
  <property name="kdenlive:original.resource">video/TransparentFunnyXD/3.mov</property>
  <property name="kdenlive:original.mlt_service">avformat-novalidate</property>
  <property name="kdenlive:original.meta.media.nb_streams">1</property>
  <property name="kdenlive:original.meta.media.0.stream.type">video</property>
  <property name="kdenlive:original.meta.media.0.stream.frame_rate">60</property>
  <property name="kdenlive:original.meta.media.0.stream.sample_aspect_ratio">0</property>
  <property name="kdenlive:original.meta.media.0.codec.width">1920</property>
  <property name="kdenlive:original.meta.media.0.codec.height">1080</property>
  <property name="kdenlive:original.meta.media.0.codec.rotate">0</property>
  <property name="kdenlive:original.meta.media.0.codec.pix_fmt">argb</property>
  <property name="kdenlive:original.meta.media.0.codec.sample_aspect_ratio">0</property>
  <property name="kdenlive:original.meta.media.0.codec.colorspace">709</property>
  <property name="kdenlive:original.meta.media.0.codec.name">qtrle</property>
  <property name="kdenlive:original.meta.media.0.codec.long_name">QuickTime Animation (RLE) video</property>
  <property name="kdenlive:original.meta.media.0.codec.bit_rate">20525380</property>
  <property name="kdenlive:original.meta.attr.0.stream.handler_name.markup">VideoHandler</property>
  <property name="kdenlive:original.meta.attr.0.stream.vendor_id.markup">FFMP</property>
  <property name="kdenlive:original.meta.attr.0.stream.encoder.markup">Lavc60.3.100 qtrle</property>
  <property name="kdenlive:original.meta.attr.major_brand.markup">qt  </property>
  <property name="kdenlive:original.meta.attr.minor_version.markup">512</property>
  <property name="kdenlive:original.meta.attr.compatible_brands.markup">qt  </property>
  <property name="kdenlive:original.meta.attr.encoder.markup">Lavf60.3.100</property>
  <property name="kdenlive:original.meta.attr.comment.markup">Rendered with Manim Community v0.17.3</property>
  <property name="kdenlive:original.seekable">1</property>
  <property name="kdenlive:original.width">1920</property>
  <property name="kdenlive:original.height">1080</property>
  <property name="kdenlive:original.meta.media.sample_aspect_num">1</property>
  <property name="kdenlive:original.meta.media.sample_aspect_den">1</property>
  <property name="kdenlive:original.format">2</property>
  <property name="kdenlive:original.audio_index">-1</property>
  <property name="kdenlive:original.video_index">0</property>
  <property name="kdenlive:original.meta.media.frame_rate_num">60</property>
  <property name="kdenlive:original.meta.media.frame_rate_den">1</property>
  <property name="kdenlive:original.meta.media.colorspace">709</property>
  <property name="kdenlive:original.meta.media.color_trc">2</property>
  <property name="kdenlive:original.meta.media.has_b_frames">0</property>
  <property name="kdenlive:original.meta.media.width">1920</property>
  <property name="kdenlive:original.meta.media.height">1080</property>
  <property name="kdenlive:original.meta.media.color_range">mpeg</property>
  <property name="kdenlive:original.meta.media.top_field_first">0</property>
  <property name="kdenlive:original.meta.media.progressive">1</property>
  <property name="kdenlive:original.kdenlive:clip_type">2</property>
  <property name="kdenlive:original.kdenlive:folderid">244</property>
  <property name="kdenlive:original.kdenlive:id">247</property>
  <property name="kdenlive:original.mute_on_pause">0</property>
  <property name="kdenlive:original.kdenlive:file_size">5132772</property>
  <property name="kdenlive:original.kdenlive:file_hash">7dc5f92b7e0831f11d7d824aba458eef</property>
  <property name="kdenlive:original.backup">1</property>
  <property name="kdenlive:file_hash">7dc5f92b7e0831f11d7d824aba458eef</property>
  <property name="meta.media.nb_streams">1</property>
  <property name="meta.media.0.stream.type">video</property>
  <property name="meta.media.0.stream.frame_rate">60</property>
  <property name="meta.media.0.stream.sample_aspect_ratio">0</property>
  <property name="meta.media.0.codec.width">1920</property>
  <property name="meta.media.0.codec.height">1080</property>
  <property name="meta.media.0.codec.rotate">0</property>
  <property name="meta.media.0.codec.pix_fmt">argb</property>
  <property name="meta.media.0.codec.sample_aspect_ratio">0</property>
  <property name="meta.media.0.codec.colorspace">709</property>
  <property name="meta.media.0.codec.name">qtrle</property>
  <property name="meta.media.0.codec.long_name">QuickTime Animation (RLE) video</property>
  <property name="meta.media.0.codec.bit_rate">20525380</property>
  <property name="meta.attr.0.stream.handler_name.markup">VideoHandler</property>
  <property name="meta.attr.0.stream.vendor_id.markup">FFMP</property>
  <property name="meta.attr.0.stream.encoder.markup">Lavc60.3.100 qtrle</property>
  <property name="meta.attr.major_brand.markup">qt  </property>
  <property name="meta.attr.minor_version.markup">512</property>
  <property name="meta.attr.compatible_brands.markup">qt  </property>
  <property name="meta.attr.encoder.markup">Lavf60.3.100</property>
  <property name="meta.attr.comment.markup">Rendered with Manim Community v0.17.3</property>
  <property name="meta.media.sample_aspect_num">1</property>
  <property name="meta.media.sample_aspect_den">1</property>
  <property name="meta.media.frame_rate_num">60</property>
  <property name="meta.media.frame_rate_den">1</property>
  <property name="meta.media.colorspace">709</property>
  <property name="meta.media.color_trc">2</property>
  <property name="meta.media.has_b_frames">0</property>
  <property name="meta.media.width">1920</property>
  <property name="meta.media.height">1080</property>
  <property name="meta.media.color_range">mpeg</property>
  <property name="xml">was here</property>
  <property name="meta.media.top_field_first">0</property>
  <property name="meta.media.progressive">1</property>
  <property name="set.test_audio">1</property>
  <property name="set.test_image">0</property>
 </chain>
 <producer id="producer11" in="00:00:00.000" out="00:00:19.983">
  <property name="length">1200</property>
  <property name="eof">pause</property>
  <property name="resource">0.050000:/home/xiaoxiae/.cache/kdenlive/proxy/86e52d336a5a41d59944e97bc58e7889.mkv</property>
  <property name="aspect_ratio">1</property>
  <property name="meta.media.nb_streams">1</property>
  <property name="meta.media.0.stream.type">video</property>
  <property name="meta.media.0.stream.frame_rate">60</property>
  <property name="meta.media.0.stream.sample_aspect_ratio">0</property>
  <property name="meta.media.0.codec.width">640</property>
  <property name="meta.media.0.codec.height">360</property>
  <property name="meta.media.0.codec.rotate">0</property>
  <property name="meta.media.0.codec.pix_fmt">yuvj420p</property>
  <property name="meta.media.0.codec.sample_aspect_ratio">0</property>
  <property name="meta.media.0.codec.colorspace">601</property>
  <property name="meta.media.0.codec.name">mjpeg</property>
  <property name="meta.media.0.codec.long_name">MJPEG (Motion JPEG)</property>
  <property name="meta.media.0.codec.bit_rate">0</property>
  <property name="meta.attr.0.stream.HANDLER_NAME.markup">VideoHandler</property>
  <property name="meta.attr.0.stream.VENDOR_ID.markup">[0][0][0][0]</property>
  <property name="meta.attr.0.stream.ENCODER.markup">Lavc60.3.100 mjpeg</property>
  <property name="meta.attr.0.stream.DURATION.markup">00:00:01.000000000</property>
  <property name="meta.attr.COMMENT.markup">Rendered with Manim Community v0.17.3</property>
  <property name="meta.attr.MAJOR_BRAND.markup">isom</property>
  <property name="meta.attr.MINOR_VERSION.markup">512</property>
  <property name="meta.attr.COMPATIBLE_BRANDS.markup">isomiso2avc1mp41</property>
  <property name="meta.attr.ENCODER.markup">Lavf60.3.100</property>
  <property name="seekable">1</property>
  <property name="meta.media.sample_aspect_num">1</property>
  <property name="meta.media.sample_aspect_den">1</property>
  <property name="format">3</property>
  <property name="audio_index">-1</property>
  <property name="video_index">0</property>
  <property name="warp_speed">0.05</property>
  <property name="warp_resource">/home/xiaoxiae/.cache/kdenlive/proxy/86e52d336a5a41d59944e97bc58e7889.mkv</property>
  <property name="mlt_service">timewarp</property>
  <property name="kdenlive:proxy">/home/xiaoxiae/.cache/kdenlive/proxy/86e52d336a5a41d59944e97bc58e7889.mkv</property>
  <property name="kdenlive:originalurl">video/Farmer/133.mp4</property>
  <property name="set.test_audio">1</property>
  <property name="set.test_image">0</property>
  <property name="kdenlive:id">55</property>
  <property name="warp_pitch">0</property>
  <property name="meta.media.frame_rate_num">60</property>
  <property name="meta.media.frame_rate_den">1</property>
  <property name="meta.media.colorspace">601</property>
  <property name="meta.media.color_trc">2</property>
  <property name="meta.media.has_b_frames">0</property>
  <property name="meta.media.width">640</property>
  <property name="meta.media.height">360</property>
  <property name="meta.media.color_range">full</property>
  <property name="meta.media.top_field_first">0</property>
  <property name="meta.media.progressive">1</property>
 </producer>
 <producer id="producer12" in="00:00:00.000" out="00:00:14.983">
  <property name="length">900</property>
  <property name="eof">pause</property>
  <property name="resource">0.100000:/home/xiaoxiae/.cache/kdenlive/proxy/677bcacdb4309a04305d28c568b0e870.mkv</property>
  <property name="aspect_ratio">1</property>
  <property name="meta.media.nb_streams">1</property>
  <property name="meta.media.0.stream.type">video</property>
  <property name="meta.media.0.stream.frame_rate">60</property>
  <property name="meta.media.0.stream.sample_aspect_ratio">0</property>
  <property name="meta.media.0.codec.width">640</property>
  <property name="meta.media.0.codec.height">360</property>
  <property name="meta.media.0.codec.rotate">0</property>
  <property name="meta.media.0.codec.pix_fmt">yuvj420p</property>
  <property name="meta.media.0.codec.sample_aspect_ratio">0</property>
  <property name="meta.media.0.codec.colorspace">601</property>
  <property name="meta.media.0.codec.name">mjpeg</property>
  <property name="meta.media.0.codec.long_name">MJPEG (Motion JPEG)</property>
  <property name="meta.media.0.codec.bit_rate">0</property>
  <property name="meta.attr.0.stream.HANDLER_NAME.markup">VideoHandler</property>
  <property name="meta.attr.0.stream.VENDOR_ID.markup">[0][0][0][0]</property>
  <property name="meta.attr.0.stream.ENCODER.markup">Lavc60.3.100 mjpeg</property>
  <property name="meta.attr.0.stream.DURATION.markup">00:00:01.500000000</property>
  <property name="meta.attr.COMMENT.markup">Rendered with Manim Community v0.17.3</property>
  <property name="meta.attr.MAJOR_BRAND.markup">isom</property>
  <property name="meta.attr.MINOR_VERSION.markup">512</property>
  <property name="meta.attr.COMPATIBLE_BRANDS.markup">isomiso2avc1mp41</property>
  <property name="meta.attr.ENCODER.markup">Lavf60.3.100</property>
  <property name="seekable">1</property>
  <property name="meta.media.sample_aspect_num">1</property>
  <property name="meta.media.sample_aspect_den">1</property>
  <property name="format">3</property>
  <property name="audio_index">-1</property>
  <property name="video_index">0</property>
  <property name="warp_speed">0.1</property>
  <property name="warp_resource">/home/xiaoxiae/.cache/kdenlive/proxy/677bcacdb4309a04305d28c568b0e870.mkv</property>
  <property name="mlt_service">timewarp</property>
  <property name="kdenlive:proxy">/home/xiaoxiae/.cache/kdenlive/proxy/677bcacdb4309a04305d28c568b0e870.mkv</property>
  <property name="kdenlive:originalurl">video/Knapsack/23.mp4</property>
  <property name="set.test_audio">1</property>
  <property name="set.test_image">0</property>
  <property name="kdenlive:id">219</property>
  <property name="warp_pitch">0</property>
  <property name="meta.media.frame_rate_num">60</property>
  <property name="meta.media.frame_rate_den">1</property>
  <property name="meta.media.colorspace">601</property>
  <property name="meta.media.color_trc">2</property>
  <property name="meta.media.has_b_frames">0</property>
  <property name="meta.media.width">640</property>
  <property name="meta.media.height">360</property>
  <property name="meta.media.color_range">full</property>
 </producer>
 <playlist id="playlist8">
  <blank length="00:02:38.600"/>
  <entry producer="chain710" in="00:00:00.000" out="00:00:04.983">
   <property name="kdenlive:id">251</property>
   <filter id="filter24" out="00:00:01.000">
    <property name="start">1</property>
    <property name="level">1</property>
    <property name="mlt_service">brightness</property>
    <property name="kdenlive_id">fade_from_black</property>
    <property name="alpha">00:00:00.000=0;00:00:01.000=1</property>
    <property name="kdenlive:collapsed">0</property>
   </filter>
   <filter id="filter25" in="00:00:03.983" out="00:00:04.983">
    <property name="start">1</property>
    <property name="level">1</property>
    <property name="mlt_service">brightness</property>
    <property name="kdenlive_id">fade_to_black</property>
    <property name="alpha">00:00:00.000=1;00:00:01.000=0</property>
    <property name="kdenlive:collapsed">0</property>
   </filter>
  </entry>
  <blank length="00:01:53.783"/>
  <entry producer="producer8" in="00:00:00.000" out="00:00:01.000">
   <property name="kdenlive:id">128</property>
   <filter id="filter26">
    <property name="frame">0</property>
    <property name="freeze_after">0</property>
    <property name="freeze_before">0</property>
    <property name="mlt_service">freeze</property>
    <property name="kdenlive_id">freeze</property>
    <property name="kdenlive:collapsed">0</property>
   </filter>
   <filter id="filter27" in="00:00:00.500" out="00:00:01.017">
    <property name="start">1</property>
    <property name="level">1</property>
    <property name="mlt_service">brightness</property>
    <property name="kdenlive_id">fade_to_black</property>
    <property name="alpha">00:00:00.000=1;00:00:00.517=0</property>
    <property name="kdenlive:collapsed">0</property>
   </filter>
  </entry>
  <entry producer="chain711" in="00:00:00.000" out="00:00:00.983">
   <property name="kdenlive:id">256</property>
  </entry>
  <blank length="00:00:08.783"/>
  <entry producer="chain712" in="00:00:00.000" out="00:00:01.483">
   <property name="kdenlive:id">257</property>
  </entry>
  <blank length="00:00:01.983"/>
  <entry producer="chain713" in="00:00:00.000" out="00:00:01.483">
   <property name="kdenlive:id">258</property>
  </entry>
  <blank length="00:00:03.150"/>
  <entry producer="chain714" in="00:00:00.000" out="00:00:01.483">
   <property name="kdenlive:id">259</property>
  </entry>
  <blank length="00:00:01.950"/>
  <entry producer="chain715" in="00:00:00.000" out="00:00:01.483">
   <property name="kdenlive:id">260</property>
  </entry>
  <blank length="00:00:13.600"/>
  <entry producer="chain716" in="00:00:00.000" out="00:00:01.733">
   <property name="kdenlive:id">261</property>
  </entry>
  <blank length="00:00:00.583"/>
  <entry producer="chain717" in="00:00:00.000" out="00:00:01.233">
   <property name="kdenlive:id">262</property>
  </entry>
  <blank length="00:00:15.067"/>
  <entry producer="chain718" in="00:00:00.000" out="00:00:00.983">
   <property name="kdenlive:id">128</property>
   <filter id="filter28">
    <property name="frame">0</property>
    <property name="freeze_after">0</property>
    <property name="freeze_before">0</property>
    <property name="mlt_service">freeze</property>
    <property name="kdenlive_id">freeze</property>
    <property name="kdenlive:collapsed">0</property>
   </filter>
   <filter id="filter29" out="00:00:00.500">
    <property name="start">1</property>
    <property name="level">1</property>
    <property name="mlt_service">brightness</property>
    <property name="kdenlive_id">fade_from_black</property>
    <property name="alpha">00:00:00.000=0;00:00:00.500=1</property>
    <property name="kdenlive:collapsed">0</property>
   </filter>
  </entry>
  <blank length="00:05:28.367"/>
  <entry producer="producer9" in="00:00:00.000" out="00:00:04.983">
   <property name="kdenlive:id">32</property>
   <filter id="filter30">
    <property name="frame">0</property>
    <property name="freeze_after">0</property>
    <property name="freeze_before">0</property>
    <property name="mlt_service">freeze</property>
    <property name="kdenlive_id">freeze</property>
    <property name="kdenlive:collapsed">0</property>
   </filter>
   <filter id="filter31">
    <property name="start">1</property>
    <property name="level">00:00:00.000=1;00:00:01.000=0.35;00:00:03.967=0.35;00:00:04.950=1</property>
    <property name="mlt_service">brightness</property>
    <property name="kdenlive_id">brightness</property>
    <property name="kdenlive:collapsed">0</property>
    <property name="kdenlive:kfrhidden">0</property>
   </filter>
  </entry>
  <blank length="00:00:58.583"/>
  <entry producer="producer10" in="00:00:00.000" out="00:00:00.983">
   <property name="kdenlive:id">55</property>
   <filter id="filter32">
    <property name="frame">0</property>
    <property name="freeze_after">0</property>
    <property name="freeze_before">0</property>
    <property name="mlt_service">freeze</property>
    <property name="kdenlive_id">freeze</property>
    <property name="kdenlive:collapsed">0</property>
   </filter>
   <filter id="filter33" in="00:00:00.483" out="00:00:00.983">
    <property name="start">1</property>
    <property name="level">1</property>
    <property name="mlt_service">brightness</property>
    <property name="kdenlive_id">fade_to_black</property>
    <property name="alpha">00:00:00.000=1;00:00:00.500=0</property>
    <property name="kdenlive:collapsed">0</property>
   </filter>
  </entry>
  <entry producer="chain719" in="00:00:00.000" out="00:00:00.983">
   <property name="kdenlive:id">245</property>
  </entry>
  <entry producer="chain720" in="00:00:00.000" out="00:00:01.983">
   <property name="kdenlive:id">246</property>
  </entry>
  <entry producer="chain721" in="00:00:00.000" out="00:00:01.983">
   <property name="kdenlive:id">247</property>
  </entry>
  <blank length="00:00:00.633"/>
  <entry producer="producer11" in="00:00:00.000" out="00:00:00.983">
   <property name="kdenlive:id">55</property>
   <filter id="filter34">
    <property name="frame">0</property>
    <property name="freeze_after">0</property>
    <property name="freeze_before">0</property>
    <property name="mlt_service">freeze</property>
    <property name="kdenlive_id">freeze</property>
    <property name="kdenlive:collapsed">0</property>
   </filter>
   <filter id="filter35" out="00:00:00.950">
    <property name="start">1</property>
    <property name="level">1</property>
    <property name="mlt_service">brightness</property>
    <property name="kdenlive_id">fade_from_black</property>
    <property name="alpha">00:00:00.000=0;00:00:00.950=1</property>
    <property name="kdenlive:collapsed">0</property>
   </filter>
  </entry>
  <blank length="00:04:28.667"/>
  <entry producer="producer12" in="00:00:00.000" out="00:00:08.717">
   <property name="kdenlive:id">219</property>
   <filter id="filter36">
    <property name="frame">89</property>
    <property name="freeze_after">0</property>
    <property name="freeze_before">0</property>
    <property name="mlt_service">freeze</property>
    <property name="kdenlive_id">freeze</property>
    <property name="kdenlive:collapsed">0</property>
   </filter>
   <filter id="filter37" in="00:00:08.233" out="00:00:08.733">
    <property name="start">1</property>
    <property name="level">1</property>
    <property name="mlt_service">brightness</property>
    <property name="kdenlive_id">fade_to_black</property>
    <property name="alpha">00:00:00.000=1;00:00:00.500=0</property>
   </filter>
  </entry>
 </playlist>
 <playlist id="playlist9"/>
 <tractor id="tractor4" in="00:00:00.000" out="00:16:51.483">
  <property name="kdenlive:trackheight">67</property>
  <property name="kdenlive:timeline_active">1</property>
  <property name="kdenlive:collapsed">0</property>
  <property name="kdenlive:thumbs_format"/>
  <property name="kdenlive:audio_rec"/>
  <track hide="audio" producer="playlist8"/>
  <track hide="audio" producer="playlist9"/>
 </tractor>
 <producer id="producer13" in="00:00:00.000" out="00:00:14.983">
  <property name="length">900</property>
  <property name="eof">pause</property>
  <property name="resource">0.100000:video/TransparentSilhouettes/2.mov</property>
  <property name="aspect_ratio">1</property>
  <property name="meta.media.nb_streams">1</property>
  <property name="meta.media.0.stream.type">video</property>
  <property name="meta.media.0.stream.frame_rate">60</property>
  <property name="meta.media.0.stream.sample_aspect_ratio">0</property>
  <property name="meta.media.0.codec.width">1920</property>
  <property name="meta.media.0.codec.height">1080</property>
  <property name="meta.media.0.codec.rotate">0</property>
  <property name="meta.media.0.codec.pix_fmt">argb</property>
  <property name="meta.media.0.codec.sample_aspect_ratio">0</property>
  <property name="meta.media.0.codec.colorspace">709</property>
  <property name="meta.media.0.codec.name">qtrle</property>
  <property name="meta.media.0.codec.long_name">QuickTime Animation (RLE) video</property>
  <property name="meta.media.0.codec.bit_rate">28563712</property>
  <property name="meta.attr.0.stream.handler_name.markup">VideoHandler</property>
  <property name="meta.attr.0.stream.vendor_id.markup">FFMP</property>
  <property name="meta.attr.0.stream.encoder.markup">Lavc60.3.100 qtrle</property>
  <property name="meta.attr.major_brand.markup">qt  </property>
  <property name="meta.attr.minor_version.markup">512</property>
  <property name="meta.attr.compatible_brands.markup">qt  </property>
  <property name="meta.attr.encoder.markup">Lavf60.3.100</property>
  <property name="meta.attr.comment.markup">Rendered with Manim Community v0.17.3</property>
  <property name="seekable">1</property>
  <property name="meta.media.sample_aspect_num">1</property>
  <property name="meta.media.sample_aspect_den">1</property>
  <property name="format">2</property>
  <property name="audio_index">-1</property>
  <property name="video_index">0</property>
  <property name="warp_speed">0.1</property>
  <property name="warp_resource">video/TransparentSilhouettes/2.mov</property>
  <property name="mlt_service">timewarp</property>
  <property name="kdenlive:proxy">-</property>
  <property name="kdenlive:originalurl">video/TransparentSilhouettes/2.mov</property>
  <property name="set.test_audio">1</property>
  <property name="set.test_image">0</property>
  <property name="kdenlive:id">257</property>
  <property name="warp_pitch">0</property>
  <property name="meta.media.frame_rate_num">60</property>
  <property name="meta.media.frame_rate_den">1</property>
  <property name="meta.media.colorspace">709</property>
  <property name="meta.media.color_trc">2</property>
  <property name="meta.media.has_b_frames">0</property>
  <property name="meta.media.width">1920</property>
  <property name="meta.media.height">1080</property>
  <property name="meta.media.color_range">mpeg</property>
  <property name="meta.media.top_field_first">0</property>
  <property name="meta.media.progressive">1</property>
 </producer>
 <producer id="producer14" in="00:00:00.000" out="00:00:02.983">
  <property name="length">180</property>
  <property name="eof">pause</property>
  <property name="resource">0.500000:video/TransparentSilhouettes/3.mov</property>
  <property name="aspect_ratio">1</property>
  <property name="meta.media.nb_streams">1</property>
  <property name="meta.media.0.stream.type">video</property>
  <property name="meta.media.0.stream.frame_rate">60</property>
  <property name="meta.media.0.stream.sample_aspect_ratio">0</property>
  <property name="meta.media.0.codec.width">1920</property>
  <property name="meta.media.0.codec.height">1080</property>
  <property name="meta.media.0.codec.rotate">0</property>
  <property name="meta.media.0.codec.pix_fmt">argb</property>
  <property name="meta.media.0.codec.sample_aspect_ratio">0</property>
  <property name="meta.media.0.codec.colorspace">709</property>
  <property name="meta.media.0.codec.name">qtrle</property>
  <property name="meta.media.0.codec.long_name">QuickTime Animation (RLE) video</property>
  <property name="meta.media.0.codec.bit_rate">27060005</property>
  <property name="meta.attr.0.stream.handler_name.markup">VideoHandler</property>
  <property name="meta.attr.0.stream.vendor_id.markup">FFMP</property>
  <property name="meta.attr.0.stream.encoder.markup">Lavc60.3.100 qtrle</property>
  <property name="meta.attr.major_brand.markup">qt  </property>
  <property name="meta.attr.minor_version.markup">512</property>
  <property name="meta.attr.compatible_brands.markup">qt  </property>
  <property name="meta.attr.encoder.markup">Lavf60.3.100</property>
  <property name="meta.attr.comment.markup">Rendered with Manim Community v0.17.3</property>
  <property name="seekable">1</property>
  <property name="meta.media.sample_aspect_num">1</property>
  <property name="meta.media.sample_aspect_den">1</property>
  <property name="format">2</property>
  <property name="audio_index">-1</property>
  <property name="video_index">0</property>
  <property name="warp_speed">0.5</property>
  <property name="warp_resource">video/TransparentSilhouettes/3.mov</property>
  <property name="mlt_service">timewarp</property>
  <property name="kdenlive:proxy">-</property>
  <property name="kdenlive:originalurl">video/TransparentSilhouettes/3.mov</property>
  <property name="set.test_audio">1</property>
  <property name="set.test_image">0</property>
  <property name="kdenlive:id">258</property>
  <property name="warp_pitch">0</property>
  <property name="meta.media.frame_rate_num">60</property>
  <property name="meta.media.frame_rate_den">1</property>
  <property name="meta.media.colorspace">709</property>
  <property name="meta.media.color_trc">2</property>
  <property name="meta.media.has_b_frames">0</property>
  <property name="meta.media.width">1920</property>
  <property name="meta.media.height">1080</property>
  <property name="meta.media.color_range">mpeg</property>
  <property name="meta.media.top_field_first">0</property>
  <property name="meta.media.progressive">1</property>
 </producer>
 <producer id="producer15" in="00:00:00.000" out="00:00:04.983">
  <property name="length">300</property>
  <property name="eof">pause</property>
  <property name="resource">0.300000:video/TransparentSilhouettes/4.mov</property>
  <property name="aspect_ratio">1</property>
  <property name="meta.media.nb_streams">1</property>
  <property name="meta.media.0.stream.type">video</property>
  <property name="meta.media.0.stream.frame_rate">60</property>
  <property name="meta.media.0.stream.sample_aspect_ratio">0</property>
  <property name="meta.media.0.codec.width">1920</property>
  <property name="meta.media.0.codec.height">1080</property>
  <property name="meta.media.0.codec.rotate">0</property>
  <property name="meta.media.0.codec.pix_fmt">argb</property>
  <property name="meta.media.0.codec.sample_aspect_ratio">0</property>
  <property name="meta.media.0.codec.colorspace">709</property>
  <property name="meta.media.0.codec.name">qtrle</property>
  <property name="meta.media.0.codec.long_name">QuickTime Animation (RLE) video</property>
  <property name="meta.media.0.codec.bit_rate">26943066</property>
  <property name="meta.attr.0.stream.handler_name.markup">VideoHandler</property>
  <property name="meta.attr.0.stream.vendor_id.markup">FFMP</property>
  <property name="meta.attr.0.stream.encoder.markup">Lavc60.3.100 qtrle</property>
  <property name="meta.attr.major_brand.markup">qt  </property>
  <property name="meta.attr.minor_version.markup">512</property>
  <property name="meta.attr.compatible_brands.markup">qt  </property>
  <property name="meta.attr.encoder.markup">Lavf60.3.100</property>
  <property name="meta.attr.comment.markup">Rendered with Manim Community v0.17.3</property>
  <property name="seekable">1</property>
  <property name="meta.media.sample_aspect_num">1</property>
  <property name="meta.media.sample_aspect_den">1</property>
  <property name="format">2</property>
  <property name="audio_index">-1</property>
  <property name="video_index">0</property>
  <property name="warp_speed">0.3</property>
  <property name="warp_resource">video/TransparentSilhouettes/4.mov</property>
  <property name="mlt_service">timewarp</property>
  <property name="kdenlive:proxy">-</property>
  <property name="kdenlive:originalurl">video/TransparentSilhouettes/4.mov</property>
  <property name="set.test_audio">1</property>
  <property name="set.test_image">0</property>
  <property name="kdenlive:id">259</property>
  <property name="warp_pitch">0</property>
  <property name="meta.media.frame_rate_num">60</property>
  <property name="meta.media.frame_rate_den">1</property>
  <property name="meta.media.colorspace">709</property>
  <property name="meta.media.color_trc">2</property>
  <property name="meta.media.has_b_frames">0</property>
  <property name="meta.media.width">1920</property>
  <property name="meta.media.height">1080</property>
  <property name="meta.media.color_range">mpeg</property>
  <property name="meta.media.top_field_first">0</property>
  <property name="meta.media.progressive">1</property>
 </producer>
 <producer id="producer16" in="00:00:00.000" out="00:00:02.983">
  <property name="length">180</property>
  <property name="eof">pause</property>
  <property name="resource">0.500000:video/TransparentSilhouettes/5.mov</property>
  <property name="aspect_ratio">1</property>
  <property name="meta.media.nb_streams">1</property>
  <property name="meta.media.0.stream.type">video</property>
  <property name="meta.media.0.stream.frame_rate">60</property>
  <property name="meta.media.0.stream.sample_aspect_ratio">0</property>
  <property name="meta.media.0.codec.width">1920</property>
  <property name="meta.media.0.codec.height">1080</property>
  <property name="meta.media.0.codec.rotate">0</property>
  <property name="meta.media.0.codec.pix_fmt">argb</property>
  <property name="meta.media.0.codec.sample_aspect_ratio">0</property>
  <property name="meta.media.0.codec.colorspace">709</property>
  <property name="meta.media.0.codec.name">qtrle</property>
  <property name="meta.media.0.codec.long_name">QuickTime Animation (RLE) video</property>
  <property name="meta.media.0.codec.bit_rate">30595024</property>
  <property name="meta.attr.0.stream.handler_name.markup">VideoHandler</property>
  <property name="meta.attr.0.stream.vendor_id.markup">FFMP</property>
  <property name="meta.attr.0.stream.encoder.markup">Lavc60.3.100 qtrle</property>
  <property name="meta.attr.major_brand.markup">qt  </property>
  <property name="meta.attr.minor_version.markup">512</property>
  <property name="meta.attr.compatible_brands.markup">qt  </property>
  <property name="meta.attr.encoder.markup">Lavf60.3.100</property>
  <property name="meta.attr.comment.markup">Rendered with Manim Community v0.17.3</property>
  <property name="seekable">1</property>
  <property name="meta.media.sample_aspect_num">1</property>
  <property name="meta.media.sample_aspect_den">1</property>
  <property name="format">2</property>
  <property name="audio_index">-1</property>
  <property name="video_index">0</property>
  <property name="warp_speed">0.5</property>
  <property name="warp_resource">video/TransparentSilhouettes/5.mov</property>
  <property name="mlt_service">timewarp</property>
  <property name="kdenlive:proxy">-</property>
  <property name="kdenlive:originalurl">video/TransparentSilhouettes/5.mov</property>
  <property name="set.test_audio">1</property>
  <property name="set.test_image">0</property>
  <property name="kdenlive:id">260</property>
  <property name="warp_pitch">0</property>
  <property name="meta.media.frame_rate_num">60</property>
  <property name="meta.media.frame_rate_den">1</property>
  <property name="meta.media.colorspace">709</property>
  <property name="meta.media.color_trc">2</property>
  <property name="meta.media.has_b_frames">0</property>
  <property name="meta.media.width">1920</property>
  <property name="meta.media.height">1080</property>
  <property name="meta.media.color_range">mpeg</property>
  <property name="meta.media.top_field_first">0</property>
  <property name="meta.media.progressive">1</property>
 </producer>
 <producer id="producer17" in="00:00:00.000" out="00:00:17.483">
  <property name="length">1050</property>
  <property name="eof">pause</property>
  <property name="resource">0.100000:video/TransparentSilhouettes/6.mov</property>
  <property name="aspect_ratio">1</property>
  <property name="meta.media.nb_streams">1</property>
  <property name="meta.media.0.stream.type">video</property>
  <property name="meta.media.0.stream.frame_rate">60</property>
  <property name="meta.media.0.stream.sample_aspect_ratio">0</property>
  <property name="meta.media.0.codec.width">1920</property>
  <property name="meta.media.0.codec.height">1080</property>
  <property name="meta.media.0.codec.rotate">0</property>
  <property name="meta.media.0.codec.pix_fmt">argb</property>
  <property name="meta.media.0.codec.sample_aspect_ratio">0</property>
  <property name="meta.media.0.codec.colorspace">709</property>
  <property name="meta.media.0.codec.name">qtrle</property>
  <property name="meta.media.0.codec.long_name">QuickTime Animation (RLE) video</property>
  <property name="meta.media.0.codec.bit_rate">30945942</property>
  <property name="meta.attr.0.stream.handler_name.markup">VideoHandler</property>
  <property name="meta.attr.0.stream.vendor_id.markup">FFMP</property>
  <property name="meta.attr.0.stream.encoder.markup">Lavc60.3.100 qtrle</property>
  <property name="meta.attr.major_brand.markup">qt  </property>
  <property name="meta.attr.minor_version.markup">512</property>
  <property name="meta.attr.compatible_brands.markup">qt  </property>
  <property name="meta.attr.encoder.markup">Lavf60.3.100</property>
  <property name="meta.attr.comment.markup">Rendered with Manim Community v0.17.3</property>
  <property name="seekable">1</property>
  <property name="meta.media.sample_aspect_num">1</property>
  <property name="meta.media.sample_aspect_den">1</property>
  <property name="format">2</property>
  <property name="audio_index">-1</property>
  <property name="video_index">0</property>
  <property name="warp_speed">0.1</property>
  <property name="warp_resource">video/TransparentSilhouettes/6.mov</property>
  <property name="mlt_service">timewarp</property>
  <property name="kdenlive:proxy">-</property>
  <property name="kdenlive:originalurl">video/TransparentSilhouettes/6.mov</property>
  <property name="set.test_audio">1</property>
  <property name="set.test_image">0</property>
  <property name="kdenlive:id">261</property>
  <property name="warp_pitch">0</property>
  <property name="meta.media.frame_rate_num">60</property>
  <property name="meta.media.frame_rate_den">1</property>
  <property name="meta.media.colorspace">709</property>
  <property name="meta.media.color_trc">2</property>
  <property name="meta.media.has_b_frames">0</property>
  <property name="meta.media.width">1920</property>
  <property name="meta.media.height">1080</property>
  <property name="meta.media.color_range">mpeg</property>
  <property name="meta.media.top_field_first">0</property>
  <property name="meta.media.progressive">1</property>
 </producer>
 <chain id="chain722" out="00:00:01.233">
  <property name="length">75</property>
  <property name="eof">pause</property>
  <property name="resource">video/TransparentSilhouettes/7.mov</property>
  <property name="mlt_service">avformat-novalidate</property>
  <property name="seekable">1</property>
  <property name="format">2</property>
  <property name="audio_index">-1</property>
  <property name="video_index">0</property>
  <property name="kdenlive:clipname">7.mov</property>
  <property name="kdenlive:clip_type">2</property>
  <property name="kdenlive:folderid">255</property>
  <property name="kdenlive:id">262</property>
  <property name="mute_on_pause">0</property>
  <property name="kdenlive:file_size">32633265</property>
  <property name="kdenlive:proxy">-</property>
  <property name="kdenlive:originalurl">video/TransparentSilhouettes/7.mov</property>
  <property name="kdenlive:original.mlt_type">chain</property>
  <property name="kdenlive:original.in">0</property>
  <property name="kdenlive:original.out">00:00:01.233</property>
  <property name="kdenlive:original.length">75</property>
  <property name="kdenlive:original.eof">pause</property>
  <property name="kdenlive:original.resource">video/TransparentSilhouettes/7.mov</property>
  <property name="kdenlive:original.mlt_service">avformat-novalidate</property>
  <property name="kdenlive:original.meta.media.nb_streams">1</property>
  <property name="kdenlive:original.meta.media.0.stream.type">video</property>
  <property name="kdenlive:original.meta.media.0.stream.frame_rate">60</property>
  <property name="kdenlive:original.meta.media.0.stream.sample_aspect_ratio">0</property>
  <property name="kdenlive:original.meta.media.0.codec.width">1920</property>
  <property name="kdenlive:original.meta.media.0.codec.height">1080</property>
  <property name="kdenlive:original.meta.media.0.codec.rotate">0</property>
  <property name="kdenlive:original.meta.media.0.codec.pix_fmt">argb</property>
  <property name="kdenlive:original.meta.media.0.codec.sample_aspect_ratio">0</property>
  <property name="kdenlive:original.meta.media.0.codec.colorspace">709</property>
  <property name="kdenlive:original.meta.media.0.codec.name">qtrle</property>
  <property name="kdenlive:original.meta.media.0.codec.long_name">QuickTime Animation (RLE) video</property>
  <property name="kdenlive:original.meta.media.0.codec.bit_rate">208843737</property>
  <property name="kdenlive:original.meta.attr.0.stream.handler_name.markup">VideoHandler</property>
  <property name="kdenlive:original.meta.attr.0.stream.vendor_id.markup">FFMP</property>
  <property name="kdenlive:original.meta.attr.0.stream.encoder.markup">Lavc60.3.100 qtrle</property>
  <property name="kdenlive:original.meta.attr.major_brand.markup">qt  </property>
  <property name="kdenlive:original.meta.attr.minor_version.markup">512</property>
  <property name="kdenlive:original.meta.attr.compatible_brands.markup">qt  </property>
  <property name="kdenlive:original.meta.attr.encoder.markup">Lavf60.3.100</property>
  <property name="kdenlive:original.meta.attr.comment.markup">Rendered with Manim Community v0.17.3</property>
  <property name="kdenlive:original.seekable">1</property>
  <property name="kdenlive:original.width">1920</property>
  <property name="kdenlive:original.height">1080</property>
  <property name="kdenlive:original.meta.media.sample_aspect_num">1</property>
  <property name="kdenlive:original.meta.media.sample_aspect_den">1</property>
  <property name="kdenlive:original.format">2</property>
  <property name="kdenlive:original.audio_index">-1</property>
  <property name="kdenlive:original.video_index">0</property>
  <property name="kdenlive:original.meta.media.frame_rate_num">60</property>
  <property name="kdenlive:original.meta.media.frame_rate_den">1</property>
  <property name="kdenlive:original.meta.media.colorspace">709</property>
  <property name="kdenlive:original.meta.media.color_trc">2</property>
  <property name="kdenlive:original.meta.media.has_b_frames">0</property>
  <property name="kdenlive:original.meta.media.width">1920</property>
  <property name="kdenlive:original.meta.media.height">1080</property>
  <property name="kdenlive:original.meta.media.color_range">mpeg</property>
  <property name="kdenlive:original.meta.media.top_field_first">0</property>
  <property name="kdenlive:original.meta.media.progressive">1</property>
  <property name="kdenlive:original.kdenlive:clip_type">2</property>
  <property name="kdenlive:original.kdenlive:folderid">255</property>
  <property name="kdenlive:original.kdenlive:id">262</property>
  <property name="kdenlive:original.mute_on_pause">0</property>
  <property name="kdenlive:original.kdenlive:file_size">32633265</property>
  <property name="kdenlive:original.kdenlive:file_hash">a322d0cbdb7c1bfaf2eec62ab7b0bc06</property>
  <property name="kdenlive:original.backup">1</property>
  <property name="kdenlive:file_hash">a322d0cbdb7c1bfaf2eec62ab7b0bc06</property>
  <property name="meta.media.nb_streams">1</property>
  <property name="meta.media.0.stream.type">video</property>
  <property name="meta.media.0.stream.frame_rate">60</property>
  <property name="meta.media.0.stream.sample_aspect_ratio">0</property>
  <property name="meta.media.0.codec.width">1920</property>
  <property name="meta.media.0.codec.height">1080</property>
  <property name="meta.media.0.codec.rotate">0</property>
  <property name="meta.media.0.codec.pix_fmt">argb</property>
  <property name="meta.media.0.codec.sample_aspect_ratio">0</property>
  <property name="meta.media.0.codec.colorspace">709</property>
  <property name="meta.media.0.codec.name">qtrle</property>
  <property name="meta.media.0.codec.long_name">QuickTime Animation (RLE) video</property>
  <property name="meta.media.0.codec.bit_rate">208843737</property>
  <property name="meta.attr.0.stream.handler_name.markup">VideoHandler</property>
  <property name="meta.attr.0.stream.vendor_id.markup">FFMP</property>
  <property name="meta.attr.0.stream.encoder.markup">Lavc60.3.100 qtrle</property>
  <property name="meta.attr.major_brand.markup">qt  </property>
  <property name="meta.attr.minor_version.markup">512</property>
  <property name="meta.attr.compatible_brands.markup">qt  </property>
  <property name="meta.attr.encoder.markup">Lavf60.3.100</property>
  <property name="meta.attr.comment.markup">Rendered with Manim Community v0.17.3</property>
  <property name="meta.media.sample_aspect_num">1</property>
  <property name="meta.media.sample_aspect_den">1</property>
  <property name="meta.media.frame_rate_num">60</property>
  <property name="meta.media.frame_rate_den">1</property>
  <property name="meta.media.colorspace">709</property>
  <property name="meta.media.color_trc">2</property>
  <property name="meta.media.has_b_frames">0</property>
  <property name="meta.media.width">1920</property>
  <property name="meta.media.height">1080</property>
  <property name="meta.media.color_range">mpeg</property>
  <property name="xml">was here</property>
  <property name="meta.media.top_field_first">0</property>
  <property name="meta.media.progressive">1</property>
  <property name="set.test_audio">1</property>
  <property name="set.test_image">0</property>
 </chain>
 <producer id="producer18" in="00:00:00.000" out="00:00:19.983">
  <property name="length">1200</property>
  <property name="eof">pause</property>
  <property name="resource">0.050000:video/TransparentSilhouettes/8.mov</property>
  <property name="aspect_ratio">1</property>
  <property name="meta.media.nb_streams">1</property>
  <property name="meta.media.0.stream.type">video</property>
  <property name="meta.media.0.stream.frame_rate">60</property>
  <property name="meta.media.0.stream.sample_aspect_ratio">0</property>
  <property name="meta.media.0.codec.width">1920</property>
  <property name="meta.media.0.codec.height">1080</property>
  <property name="meta.media.0.codec.rotate">0</property>
  <property name="meta.media.0.codec.pix_fmt">argb</property>
  <property name="meta.media.0.codec.sample_aspect_ratio">0</property>
  <property name="meta.media.0.codec.colorspace">709</property>
  <property name="meta.media.0.codec.name">qtrle</property>
  <property name="meta.media.0.codec.long_name">QuickTime Animation (RLE) video</property>
  <property name="meta.media.0.codec.bit_rate">267768800</property>
  <property name="meta.attr.0.stream.handler_name.markup">VideoHandler</property>
  <property name="meta.attr.0.stream.vendor_id.markup">FFMP</property>
  <property name="meta.attr.0.stream.encoder.markup">Lavc60.3.100 qtrle</property>
  <property name="meta.attr.major_brand.markup">qt  </property>
  <property name="meta.attr.minor_version.markup">512</property>
  <property name="meta.attr.compatible_brands.markup">qt  </property>
  <property name="meta.attr.encoder.markup">Lavf60.3.100</property>
  <property name="meta.attr.comment.markup">Rendered with Manim Community v0.17.3</property>
  <property name="seekable">1</property>
  <property name="meta.media.sample_aspect_num">1</property>
  <property name="meta.media.sample_aspect_den">1</property>
  <property name="format">2</property>
  <property name="audio_index">-1</property>
  <property name="video_index">0</property>
  <property name="warp_speed">0.05</property>
  <property name="warp_resource">video/TransparentSilhouettes/8.mov</property>
  <property name="mlt_service">timewarp</property>
  <property name="kdenlive:proxy">-</property>
  <property name="kdenlive:originalurl">video/TransparentSilhouettes/8.mov</property>
  <property name="set.test_audio">1</property>
  <property name="set.test_image">0</property>
  <property name="kdenlive:id">263</property>
  <property name="warp_pitch">0</property>
  <property name="meta.media.frame_rate_num">60</property>
  <property name="meta.media.frame_rate_den">1</property>
  <property name="meta.media.colorspace">709</property>
  <property name="meta.media.color_trc">2</property>
  <property name="meta.media.has_b_frames">0</property>
  <property name="meta.media.width">1920</property>
  <property name="meta.media.height">1080</property>
  <property name="meta.media.color_range">mpeg</property>
  <property name="meta.media.top_field_first">0</property>
  <property name="meta.media.progressive">1</property>
 </producer>
 <chain id="chain723" out="00:00:00.983">
  <property name="length">60</property>
  <property name="eof">pause</property>
  <property name="resource">video/TransparentSilhouettes/8.mov</property>
  <property name="mlt_service">avformat-novalidate</property>
  <property name="seekable">1</property>
  <property name="format">2</property>
  <property name="audio_index">-1</property>
  <property name="video_index">0</property>
  <property name="kdenlive:clipname">8.mov</property>
  <property name="kdenlive:clip_type">2</property>
  <property name="kdenlive:folderid">255</property>
  <property name="kdenlive:id">263</property>
  <property name="mute_on_pause">0</property>
  <property name="kdenlive:file_size">33472443</property>
  <property name="kdenlive:proxy">-</property>
  <property name="kdenlive:originalurl">video/TransparentSilhouettes/8.mov</property>
  <property name="kdenlive:original.mlt_type">chain</property>
  <property name="kdenlive:original.in">0</property>
  <property name="kdenlive:original.out">00:00:00.983</property>
  <property name="kdenlive:original.length">60</property>
  <property name="kdenlive:original.eof">pause</property>
  <property name="kdenlive:original.resource">video/TransparentSilhouettes/8.mov</property>
  <property name="kdenlive:original.mlt_service">avformat-novalidate</property>
  <property name="kdenlive:original.meta.media.nb_streams">1</property>
  <property name="kdenlive:original.meta.media.0.stream.type">video</property>
  <property name="kdenlive:original.meta.media.0.stream.frame_rate">60</property>
  <property name="kdenlive:original.meta.media.0.stream.sample_aspect_ratio">0</property>
  <property name="kdenlive:original.meta.media.0.codec.width">1920</property>
  <property name="kdenlive:original.meta.media.0.codec.height">1080</property>
  <property name="kdenlive:original.meta.media.0.codec.rotate">0</property>
  <property name="kdenlive:original.meta.media.0.codec.pix_fmt">argb</property>
  <property name="kdenlive:original.meta.media.0.codec.sample_aspect_ratio">0</property>
  <property name="kdenlive:original.meta.media.0.codec.colorspace">709</property>
  <property name="kdenlive:original.meta.media.0.codec.name">qtrle</property>
  <property name="kdenlive:original.meta.media.0.codec.long_name">QuickTime Animation (RLE) video</property>
  <property name="kdenlive:original.meta.media.0.codec.bit_rate">267768800</property>
  <property name="kdenlive:original.meta.attr.0.stream.handler_name.markup">VideoHandler</property>
  <property name="kdenlive:original.meta.attr.0.stream.vendor_id.markup">FFMP</property>
  <property name="kdenlive:original.meta.attr.0.stream.encoder.markup">Lavc60.3.100 qtrle</property>
  <property name="kdenlive:original.meta.attr.major_brand.markup">qt  </property>
  <property name="kdenlive:original.meta.attr.minor_version.markup">512</property>
  <property name="kdenlive:original.meta.attr.compatible_brands.markup">qt  </property>
  <property name="kdenlive:original.meta.attr.encoder.markup">Lavf60.3.100</property>
  <property name="kdenlive:original.meta.attr.comment.markup">Rendered with Manim Community v0.17.3</property>
  <property name="kdenlive:original.seekable">1</property>
  <property name="kdenlive:original.width">1920</property>
  <property name="kdenlive:original.height">1080</property>
  <property name="kdenlive:original.meta.media.sample_aspect_num">1</property>
  <property name="kdenlive:original.meta.media.sample_aspect_den">1</property>
  <property name="kdenlive:original.format">2</property>
  <property name="kdenlive:original.audio_index">-1</property>
  <property name="kdenlive:original.video_index">0</property>
  <property name="kdenlive:original.meta.media.frame_rate_num">60</property>
  <property name="kdenlive:original.meta.media.frame_rate_den">1</property>
  <property name="kdenlive:original.meta.media.colorspace">709</property>
  <property name="kdenlive:original.meta.media.color_trc">2</property>
  <property name="kdenlive:original.meta.media.has_b_frames">0</property>
  <property name="kdenlive:original.meta.media.width">1920</property>
  <property name="kdenlive:original.meta.media.height">1080</property>
  <property name="kdenlive:original.meta.media.color_range">mpeg</property>
  <property name="kdenlive:original.meta.media.top_field_first">0</property>
  <property name="kdenlive:original.meta.media.progressive">1</property>
  <property name="kdenlive:original.kdenlive:clip_type">2</property>
  <property name="kdenlive:original.kdenlive:folderid">255</property>
  <property name="kdenlive:original.kdenlive:id">263</property>
  <property name="kdenlive:original.mute_on_pause">0</property>
  <property name="kdenlive:original.kdenlive:file_size">33472443</property>
  <property name="kdenlive:original.kdenlive:file_hash">de962afd8b2b2219ee7e79ee2034f63e</property>
  <property name="kdenlive:original.backup">1</property>
  <property name="kdenlive:file_hash">de962afd8b2b2219ee7e79ee2034f63e</property>
  <property name="meta.media.nb_streams">1</property>
  <property name="meta.media.0.stream.type">video</property>
  <property name="meta.media.0.stream.frame_rate">60</property>
  <property name="meta.media.0.stream.sample_aspect_ratio">0</property>
  <property name="meta.media.0.codec.width">1920</property>
  <property name="meta.media.0.codec.height">1080</property>
  <property name="meta.media.0.codec.rotate">0</property>
  <property name="meta.media.0.codec.pix_fmt">argb</property>
  <property name="meta.media.0.codec.sample_aspect_ratio">0</property>
  <property name="meta.media.0.codec.colorspace">709</property>
  <property name="meta.media.0.codec.name">qtrle</property>
  <property name="meta.media.0.codec.long_name">QuickTime Animation (RLE) video</property>
  <property name="meta.media.0.codec.bit_rate">267768800</property>
  <property name="meta.attr.0.stream.handler_name.markup">VideoHandler</property>
  <property name="meta.attr.0.stream.vendor_id.markup">FFMP</property>
  <property name="meta.attr.0.stream.encoder.markup">Lavc60.3.100 qtrle</property>
  <property name="meta.attr.major_brand.markup">qt  </property>
  <property name="meta.attr.minor_version.markup">512</property>
  <property name="meta.attr.compatible_brands.markup">qt  </property>
  <property name="meta.attr.encoder.markup">Lavf60.3.100</property>
  <property name="meta.attr.comment.markup">Rendered with Manim Community v0.17.3</property>
  <property name="meta.media.sample_aspect_num">1</property>
  <property name="meta.media.sample_aspect_den">1</property>
  <property name="meta.media.frame_rate_num">60</property>
  <property name="meta.media.frame_rate_den">1</property>
  <property name="meta.media.colorspace">709</property>
  <property name="meta.media.color_trc">2</property>
  <property name="meta.media.has_b_frames">0</property>
  <property name="meta.media.width">1920</property>
  <property name="meta.media.height">1080</property>
  <property name="meta.media.color_range">mpeg</property>
  <property name="xml">was here</property>
  <property name="meta.media.top_field_first">0</property>
  <property name="meta.media.progressive">1</property>
  <property name="set.test_audio">1</property>
  <property name="set.test_image">0</property>
 </chain>
 <chain id="chain724" out="00:00:04.983">
  <property name="length">300</property>
  <property name="eof">pause</property>
  <property name="resource">video/TransparentPause/1.mov</property>
  <property name="mlt_service">avformat-novalidate</property>
  <property name="seekable">1</property>
  <property name="format">2</property>
  <property name="audio_index">-1</property>
  <property name="video_index">0</property>
  <property name="kdenlive:clipname">1.mov</property>
  <property name="kdenlive:clip_type">2</property>
  <property name="kdenlive:folderid">250</property>
  <property name="kdenlive:id">251</property>
  <property name="mute_on_pause">0</property>
  <property name="kdenlive:file_size">4297548</property>
  <property name="kdenlive:proxy">-</property>
  <property name="kdenlive:originalurl">video/TransparentPause/1.mov</property>
  <property name="kdenlive:original.mlt_type">chain</property>
  <property name="kdenlive:original.in">0</property>
  <property name="kdenlive:original.out">00:00:04.983</property>
  <property name="kdenlive:original.length">300</property>
  <property name="kdenlive:original.eof">pause</property>
  <property name="kdenlive:original.resource">video/TransparentPause/1.mov</property>
  <property name="kdenlive:original.mlt_service">avformat-novalidate</property>
  <property name="kdenlive:original.meta.media.nb_streams">1</property>
  <property name="kdenlive:original.meta.media.0.stream.type">video</property>
  <property name="kdenlive:original.meta.media.0.stream.frame_rate">60</property>
  <property name="kdenlive:original.meta.media.0.stream.sample_aspect_ratio">0</property>
  <property name="kdenlive:original.meta.media.0.codec.width">1920</property>
  <property name="kdenlive:original.meta.media.0.codec.height">1080</property>
  <property name="kdenlive:original.meta.media.0.codec.rotate">0</property>
  <property name="kdenlive:original.meta.media.0.codec.pix_fmt">argb</property>
  <property name="kdenlive:original.meta.media.0.codec.sample_aspect_ratio">0</property>
  <property name="kdenlive:original.meta.media.0.codec.colorspace">709</property>
  <property name="kdenlive:original.meta.media.0.codec.name">qtrle</property>
  <property name="kdenlive:original.meta.media.0.codec.long_name">QuickTime Animation (RLE) video</property>
  <property name="kdenlive:original.meta.media.0.codec.bit_rate">6872609</property>
  <property name="kdenlive:original.meta.attr.0.stream.handler_name.markup">VideoHandler</property>
  <property name="kdenlive:original.meta.attr.0.stream.vendor_id.markup">FFMP</property>
  <property name="kdenlive:original.meta.attr.0.stream.encoder.markup">Lavc60.3.100 qtrle</property>
  <property name="kdenlive:original.meta.attr.major_brand.markup">qt  </property>
  <property name="kdenlive:original.meta.attr.minor_version.markup">512</property>
  <property name="kdenlive:original.meta.attr.compatible_brands.markup">qt  </property>
  <property name="kdenlive:original.meta.attr.encoder.markup">Lavf60.3.100</property>
  <property name="kdenlive:original.meta.attr.comment.markup">Rendered with Manim Community v0.17.3</property>
  <property name="kdenlive:original.seekable">1</property>
  <property name="kdenlive:original.width">1920</property>
  <property name="kdenlive:original.height">1080</property>
  <property name="kdenlive:original.meta.media.sample_aspect_num">1</property>
  <property name="kdenlive:original.meta.media.sample_aspect_den">1</property>
  <property name="kdenlive:original.format">2</property>
  <property name="kdenlive:original.audio_index">-1</property>
  <property name="kdenlive:original.video_index">0</property>
  <property name="kdenlive:original.meta.media.frame_rate_num">60</property>
  <property name="kdenlive:original.meta.media.frame_rate_den">1</property>
  <property name="kdenlive:original.meta.media.colorspace">709</property>
  <property name="kdenlive:original.meta.media.color_trc">2</property>
  <property name="kdenlive:original.meta.media.has_b_frames">0</property>
  <property name="kdenlive:original.meta.media.width">1920</property>
  <property name="kdenlive:original.meta.media.height">1080</property>
  <property name="kdenlive:original.meta.media.color_range">mpeg</property>
  <property name="kdenlive:original.meta.media.top_field_first">0</property>
  <property name="kdenlive:original.meta.media.progressive">1</property>
  <property name="kdenlive:original.kdenlive:clip_type">2</property>
  <property name="kdenlive:original.kdenlive:folderid">250</property>
  <property name="kdenlive:original.kdenlive:id">251</property>
  <property name="kdenlive:original.mute_on_pause">0</property>
  <property name="kdenlive:original.kdenlive:file_size">4297548</property>
  <property name="kdenlive:original.kdenlive:file_hash">c9191b940e2b1bd458791f0b13823181</property>
  <property name="kdenlive:original.backup">1</property>
  <property name="kdenlive:file_hash">c9191b940e2b1bd458791f0b13823181</property>
  <property name="meta.media.nb_streams">1</property>
  <property name="meta.media.0.stream.type">video</property>
  <property name="meta.media.0.stream.frame_rate">60</property>
  <property name="meta.media.0.stream.sample_aspect_ratio">0</property>
  <property name="meta.media.0.codec.width">1920</property>
  <property name="meta.media.0.codec.height">1080</property>
  <property name="meta.media.0.codec.rotate">0</property>
  <property name="meta.media.0.codec.pix_fmt">argb</property>
  <property name="meta.media.0.codec.sample_aspect_ratio">0</property>
  <property name="meta.media.0.codec.colorspace">709</property>
  <property name="meta.media.0.codec.name">qtrle</property>
  <property name="meta.media.0.codec.long_name">QuickTime Animation (RLE) video</property>
  <property name="meta.media.0.codec.bit_rate">6872609</property>
  <property name="meta.attr.0.stream.handler_name.markup">VideoHandler</property>
  <property name="meta.attr.0.stream.vendor_id.markup">FFMP</property>
  <property name="meta.attr.0.stream.encoder.markup">Lavc60.3.100 qtrle</property>
  <property name="meta.attr.major_brand.markup">qt  </property>
  <property name="meta.attr.minor_version.markup">512</property>
  <property name="meta.attr.compatible_brands.markup">qt  </property>
  <property name="meta.attr.encoder.markup">Lavf60.3.100</property>
  <property name="meta.attr.comment.markup">Rendered with Manim Community v0.17.3</property>
  <property name="meta.media.sample_aspect_num">1</property>
  <property name="meta.media.sample_aspect_den">1</property>
  <property name="meta.media.frame_rate_num">60</property>
  <property name="meta.media.frame_rate_den">1</property>
  <property name="meta.media.colorspace">709</property>
  <property name="meta.media.color_trc">2</property>
  <property name="meta.media.has_b_frames">0</property>
  <property name="meta.media.width">1920</property>
  <property name="meta.media.height">1080</property>
  <property name="meta.media.color_range">mpeg</property>
  <property name="xml">was here</property>
  <property name="meta.media.top_field_first">0</property>
  <property name="meta.media.progressive">1</property>
  <property name="set.test_audio">1</property>
  <property name="set.test_image">0</property>
 </chain>
 <producer id="producer19" in="00:00:00.000" out="00:00:07.483">
  <property name="length">450</property>
  <property name="eof">pause</property>
  <property name="resource">0.200000:video/TransparentFunnyXD/4.mov</property>
  <property name="aspect_ratio">1</property>
  <property name="meta.media.nb_streams">1</property>
  <property name="meta.media.0.stream.type">video</property>
  <property name="meta.media.0.stream.frame_rate">60</property>
  <property name="meta.media.0.stream.sample_aspect_ratio">0</property>
  <property name="meta.media.0.codec.width">1920</property>
  <property name="meta.media.0.codec.height">1080</property>
  <property name="meta.media.0.codec.rotate">0</property>
  <property name="meta.media.0.codec.pix_fmt">argb</property>
  <property name="meta.media.0.codec.sample_aspect_ratio">0</property>
  <property name="meta.media.0.codec.colorspace">709</property>
  <property name="meta.media.0.codec.name">qtrle</property>
  <property name="meta.media.0.codec.long_name">QuickTime Animation (RLE) video</property>
  <property name="meta.media.0.codec.bit_rate">28931098</property>
  <property name="meta.attr.0.stream.handler_name.markup">VideoHandler</property>
  <property name="meta.attr.0.stream.vendor_id.markup">FFMP</property>
  <property name="meta.attr.0.stream.encoder.markup">Lavc60.3.100 qtrle</property>
  <property name="meta.attr.major_brand.markup">qt  </property>
  <property name="meta.attr.minor_version.markup">512</property>
  <property name="meta.attr.compatible_brands.markup">qt  </property>
  <property name="meta.attr.encoder.markup">Lavf60.3.100</property>
  <property name="meta.attr.comment.markup">Rendered with Manim Community v0.17.3</property>
  <property name="seekable">1</property>
  <property name="meta.media.sample_aspect_num">1</property>
  <property name="meta.media.sample_aspect_den">1</property>
  <property name="format">2</property>
  <property name="audio_index">-1</property>
  <property name="video_index">0</property>
  <property name="warp_speed">0.2</property>
  <property name="warp_resource">video/TransparentFunnyXD/4.mov</property>
  <property name="mlt_service">timewarp</property>
  <property name="kdenlive:proxy">-</property>
  <property name="kdenlive:originalurl">video/TransparentFunnyXD/4.mov</property>
  <property name="set.test_audio">1</property>
  <property name="set.test_image">0</property>
  <property name="kdenlive:id">248</property>
  <property name="warp_pitch">0</property>
  <property name="meta.media.frame_rate_num">60</property>
  <property name="meta.media.frame_rate_den">1</property>
  <property name="meta.media.colorspace">709</property>
  <property name="meta.media.color_trc">2</property>
  <property name="meta.media.has_b_frames">0</property>
  <property name="meta.media.width">1920</property>
  <property name="meta.media.height">1080</property>
  <property name="meta.media.color_range">mpeg</property>
 </producer>
 <playlist id="playlist10">
  <blank length="00:04:39.400"/>
  <entry producer="producer13" in="00:00:00.000" out="00:00:08.767">
   <property name="kdenlive:id">257</property>
   <filter id="filter38">
    <property name="frame">0</property>
    <property name="freeze_after">0</property>
    <property name="freeze_before">0</property>
    <property name="mlt_service">freeze</property>
    <property name="kdenlive_id">freeze</property>
    <property name="kdenlive:collapsed">0</property>
   </filter>
  </entry>
  <blank length="00:00:01.500"/>
  <entry producer="producer14" in="00:00:00.000" out="00:00:01.967">
   <property name="kdenlive:id">258</property>
   <filter id="filter39">
    <property name="frame">0</property>
    <property name="freeze_after">0</property>
    <property name="freeze_before">0</property>
    <property name="mlt_service">freeze</property>
    <property name="kdenlive_id">freeze</property>
   </filter>
  </entry>
  <blank length="00:00:01.500"/>
  <entry producer="producer15" in="00:00:00.000" out="00:00:03.133">
   <property name="kdenlive:id">259</property>
   <filter id="filter40">
    <property name="frame">0</property>
    <property name="freeze_after">0</property>
    <property name="freeze_before">0</property>
    <property name="mlt_service">freeze</property>
    <property name="kdenlive_id">freeze</property>
    <property name="kdenlive:collapsed">0</property>
   </filter>
  </entry>
  <blank length="00:00:01.500"/>
  <entry producer="producer16" in="00:00:00.000" out="00:00:01.933">
   <property name="kdenlive:id">260</property>
   <filter id="filter41">
    <property name="frame">0</property>
    <property name="freeze_after">0</property>
    <property name="freeze_before">0</property>
    <property name="mlt_service">freeze</property>
    <property name="kdenlive_id">freeze</property>
    <property name="kdenlive:collapsed">0</property>
   </filter>
  </entry>
  <blank length="00:00:01.500"/>
  <entry producer="producer17" in="00:00:00.000" out="00:00:13.583">
   <property name="kdenlive:id">261</property>
   <filter id="filter42">
    <property name="frame">0</property>
    <property name="freeze_after">0</property>
    <property name="freeze_before">0</property>
    <property name="mlt_service">freeze</property>
    <property name="kdenlive_id">freeze</property>
    <property name="kdenlive:collapsed">0</property>
   </filter>
  </entry>
  <blank length="00:00:01.750"/>
  <entry producer="chain722" in="00:00:00.000" out="00:00:00.567">
   <property name="kdenlive:id">262</property>
   <filter id="filter43">
    <property name="frame">0</property>
    <property name="freeze_after">0</property>
    <property name="freeze_before">0</property>
    <property name="mlt_service">freeze</property>
    <property name="kdenlive_id">freeze</property>
    <property name="kdenlive:collapsed">0</property>
   </filter>
  </entry>
  <blank length="00:00:01.250"/>
  <entry producer="producer18" in="00:00:00.000" out="00:00:14.383">
   <property name="kdenlive:id">263</property>
   <filter id="filter44">
    <property name="frame">0</property>
    <property name="freeze_after">0</property>
    <property name="freeze_before">0</property>
    <property name="mlt_service">freeze</property>
    <property name="kdenlive_id">freeze</property>
    <property name="kdenlive:collapsed">0</property>
   </filter>
  </entry>
  <entry producer="chain723" in="00:00:00.000" out="00:00:00.983">
   <property name="kdenlive:id">263</property>
  </entry>
  <blank length="00:05:29.033"/>
  <entry producer="chain724" in="00:00:00.000" out="00:00:04.983">
   <property name="kdenlive:id">251</property>
   <filter id="filter45" out="00:00:01.000">
    <property name="start">1</property>
    <property name="level">1</property>
    <property name="mlt_service">brightness</property>
    <property name="kdenlive_id">fade_from_black</property>
    <property name="alpha">00:00:00.000=0;00:00:01.000=1</property>
    <property name="kdenlive:collapsed">0</property>
   </filter>
   <filter id="filter46" in="00:00:03.983" out="00:00:04.983">
    <property name="start">1</property>
    <property name="level">1</property>
    <property name="mlt_service">brightness</property>
    <property name="kdenlive_id">fade_to_black</property>
    <property name="alpha">00:00:00.000=1;00:00:01.000=0</property>
    <property name="kdenlive:collapsed">0</property>
   </filter>
   <filter id="filter47">
    <property name="rotate_center">1</property>
    <property name="mlt_service">qtblend</property>
    <property name="kdenlive_id">qtblend</property>
    <property name="rect">00:00:00.000=0 0 1920 1080 1</property>
    <property name="rotation">00:00:00.000=0</property>
    <property name="compositing">0</property>
    <property name="distort">0</property>
    <property name="kdenlive:collapsed">0</property>
   </filter>
  </entry>
  <blank length="00:01:04.583"/>
  <entry producer="producer19" in="00:00:00.000" out="00:00:01.083">
   <property name="kdenlive:id">248</property>
   <filter id="filter48">
    <property name="frame">0</property>
    <property name="freeze_after">0</property>
    <property name="freeze_before">0</property>
    <property name="mlt_service">freeze</property>
    <property name="kdenlive_id">freeze</property>
    <property name="kdenlive:collapsed">0</property>
   </filter>
   <filter id="filter49" in="00:00:00.083" out="00:00:01.100">
    <property name="start">1</property>
    <property name="level">1</property>
    <property name="mlt_service">brightness</property>
    <property name="kdenlive_id">fade_to_black</property>
    <property name="alpha">00:00:00.000=1;00:00:01.017=0</property>
    <property name="kdenlive:collapsed">0</property>
   </filter>
  </entry>
 </playlist>
 <playlist id="playlist11"/>
 <tractor id="tractor5" in="00:00:00.000" out="00:12:13.550">
  <property name="kdenlive:trackheight">67</property>
  <property name="kdenlive:timeline_active">1</property>
  <property name="kdenlive:collapsed">0</property>
  <property name="kdenlive:thumbs_format"/>
  <property name="kdenlive:audio_rec"/>
  <track hide="audio" producer="playlist10"/>
  <track hide="audio" producer="playlist11"/>
 </tractor>
 <tractor id="tractor6" in="00:00:00.000" out="00:26:22.583">
  <property name="kdenlive:duration">00:18:02:35</property>
  <property name="kdenlive:maxduration">64955</property>
  <property name="kdenlive:clipname">Sequence 1</property>
  <property name="kdenlive:description"/>
  <property name="kdenlive:uuid">{826d0524-73ca-4dbb-a026-989270f22f28}</property>
  <property name="kdenlive:producer_type">17</property>
  <property name="kdenlive:id">3</property>
  <property name="kdenlive:clip_type">0</property>
  <property name="kdenlive:file_hash">fef47f3978aedde2a2a906a227c4edab</property>
  <property name="kdenlive:folderid">2</property>
  <property name="kdenlive:sequenceproperties.groups">[
]
</property>
  <property name="kdenlive:sequenceproperties.zoom">5</property>
  <property name="kdenlive:sequenceproperties.verticalzoom">1</property>
  <property name="kdenlive:sequenceproperties.thumbnailFrame"/>
  <property name="kdenlive:sequenceproperties.documentuuid">{826d0524-73ca-4dbb-a026-989270f22f28}</property>
  <property name="kdenlive:sequenceproperties.guides">[
]
</property>
  <property name="kdenlive:sequenceproperties.audioTarget">-1</property>
  <property name="kdenlive:sequenceproperties.videoTarget">3</property>
  <property name="kdenlive:sequenceproperties.activeTrack">2</property>
  <property name="kdenlive:sequenceproperties.hasAudio">1</property>
  <property name="kdenlive:sequenceproperties.hasVideo">1</property>
  <property name="kdenlive:sequenceproperties.tracksCount">6</property>
  <property name="kdenlive:sequenceproperties.position">63429</property>
  <property name="kdenlive:sequenceproperties.scrollPos">76065</property>
  <property name="kdenlive:sequenceproperties.zonein">462</property>
  <property name="kdenlive:sequenceproperties.zoneout">1016</property>
  <property name="kdenlive:sequenceproperties.disablepreview">0</property>
  <track producer="producer0"/>
  <track producer="tractor0"/>
  <track producer="tractor1"/>
  <track producer="tractor2"/>
  <track producer="tractor3"/>
  <track producer="tractor4"/>
  <track producer="tractor5"/>
  <transition id="transition0">
   <property name="a_track">0</property>
   <property name="b_track">1</property>
   <property name="mlt_service">mix</property>
   <property name="kdenlive_id">mix</property>
   <property name="internal_added">237</property>
   <property name="always_active">1</property>
   <property name="accepts_blanks">1</property>
   <property name="sum">1</property>
  </transition>
  <transition id="transition1">
   <property name="a_track">0</property>
   <property name="b_track">2</property>
   <property name="mlt_service">mix</property>
   <property name="kdenlive_id">mix</property>
   <property name="internal_added">237</property>
   <property name="always_active">1</property>
   <property name="accepts_blanks">1</property>
   <property name="sum">1</property>
  </transition>
  <transition id="transition2">
   <property name="a_track">0</property>
   <property name="b_track">3</property>
   <property name="version">0.1</property>
   <property name="mlt_service">frei0r.cairoblend</property>
   <property name="kdenlive_id">frei0r.cairoblend</property>
   <property name="internal_added">237</property>
   <property name="always_active">1</property>
  </transition>
  <transition id="transition3">
   <property name="a_track">0</property>
   <property name="b_track">4</property>
   <property name="version">0.1</property>
   <property name="mlt_service">frei0r.cairoblend</property>
   <property name="kdenlive_id">frei0r.cairoblend</property>
   <property name="internal_added">237</property>
   <property name="always_active">1</property>
  </transition>
  <transition id="transition4">
   <property name="a_track">0</property>
   <property name="b_track">5</property>
   <property name="version">0.1</property>
   <property name="mlt_service">frei0r.cairoblend</property>
   <property name="kdenlive_id">frei0r.cairoblend</property>
   <property name="internal_added">237</property>
   <property name="always_active">1</property>
  </transition>
  <transition id="transition5">
   <property name="a_track">0</property>
   <property name="b_track">6</property>
   <property name="version">0.1</property>
   <property name="mlt_service">frei0r.cairoblend</property>
   <property name="kdenlive_id">frei0r.cairoblend</property>
   <property name="internal_added">237</property>
   <property name="always_active">1</property>
  </transition>
  <filter id="filter50">
   <property name="window">75</property>
   <property name="max_gain">20dB</property>
   <property name="mlt_service">volume</property>
   <property name="internal_added">237</property>
   <property name="disable">1</property>
  </filter>
  <filter id="filter51">
   <property name="channel">-1</property>
   <property name="mlt_service">panner</property>
   <property name="internal_added">237</property>
   <property name="start">0.5</property>
   <property name="disable">1</property>
  </filter>
  <filter id="filter52">
   <property name="window">75</property>
   <property name="max_gain">20dB</property>
   <property name="mlt_service">volume</property>
   <property name="internal_added">237</property>
   <property name="disable">1</property>
  </filter>
  <filter id="filter53">
   <property name="channel">-1</property>
   <property name="mlt_service">panner</property>
   <property name="internal_added">237</property>
   <property name="start">0.5</property>
   <property name="disable">1</property>
  </filter>
 </tractor>
 <chain id="chain725" out="00:00:00.983">
  <property name="length">60</property>
  <property name="eof">pause</property>
  <property name="resource">video/TransparentSilhouettes/1.mov</property>
  <property name="mlt_service">avformat</property>
  <property name="meta.media.nb_streams">1</property>
  <property name="meta.media.0.stream.type">video</property>
  <property name="meta.media.0.stream.frame_rate">60</property>
  <property name="meta.media.0.stream.sample_aspect_ratio">0</property>
  <property name="meta.media.0.codec.width">1920</property>
  <property name="meta.media.0.codec.height">1080</property>
  <property name="meta.media.0.codec.rotate">0</property>
  <property name="meta.media.0.codec.pix_fmt">argb</property>
  <property name="meta.media.0.codec.sample_aspect_ratio">0</property>
  <property name="meta.media.0.codec.colorspace">709</property>
  <property name="meta.media.0.codec.name">qtrle</property>
  <property name="meta.media.0.codec.long_name">QuickTime Animation (RLE) video</property>
  <property name="meta.media.0.codec.bit_rate">14309456</property>
  <property name="meta.attr.0.stream.handler_name.markup">VideoHandler</property>
  <property name="meta.attr.0.stream.vendor_id.markup">FFMP</property>
  <property name="meta.attr.0.stream.encoder.markup">Lavc60.3.100 qtrle</property>
  <property name="meta.attr.major_brand.markup">qt  </property>
  <property name="meta.attr.minor_version.markup">512</property>
  <property name="meta.attr.compatible_brands.markup">qt  </property>
  <property name="meta.attr.encoder.markup">Lavf60.3.100</property>
  <property name="meta.attr.comment.markup">Rendered with Manim Community v0.17.3</property>
  <property name="seekable">1</property>
  <property name="meta.media.sample_aspect_num">1</property>
  <property name="meta.media.sample_aspect_den">1</property>
  <property name="format">3</property>
  <property name="audio_index">-1</property>
  <property name="video_index">0</property>
  <property name="meta.media.frame_rate_num">60</property>
  <property name="meta.media.frame_rate_den">1</property>
  <property name="meta.media.colorspace">709</property>
  <property name="meta.media.color_trc">2</property>
  <property name="meta.media.has_b_frames">0</property>
  <property name="meta.media.width">1920</property>
  <property name="meta.media.height">1080</property>
  <property name="meta.media.color_range">mpeg</property>
  <property name="kdenlive:clipname">1.mov</property>
  <property name="kdenlive:clip_type">2</property>
  <property name="kdenlive:folderid">255</property>
  <property name="kdenlive:id">256</property>
  <property name="mute_on_pause">0</property>
  <property name="kdenlive:file_size">1789797</property>
  <property name="kdenlive:proxy">-</property>
  <property name="kdenlive:originalurl">video/TransparentSilhouettes/1.mov</property>
  <property name="kdenlive:original.mlt_type">chain</property>
  <property name="kdenlive:original.in">0</property>
  <property name="kdenlive:original.out">00:00:00.983</property>
  <property name="kdenlive:original.length">60</property>
  <property name="kdenlive:original.eof">pause</property>
  <property name="kdenlive:original.resource">video/TransparentSilhouettes/1.mov</property>
  <property name="kdenlive:original.mlt_service">avformat-novalidate</property>
  <property name="kdenlive:original.meta.media.nb_streams">1</property>
  <property name="kdenlive:original.meta.media.0.stream.type">video</property>
  <property name="kdenlive:original.meta.media.0.stream.frame_rate">60</property>
  <property name="kdenlive:original.meta.media.0.stream.sample_aspect_ratio">0</property>
  <property name="kdenlive:original.meta.media.0.codec.width">1920</property>
  <property name="kdenlive:original.meta.media.0.codec.height">1080</property>
  <property name="kdenlive:original.meta.media.0.codec.rotate">0</property>
  <property name="kdenlive:original.meta.media.0.codec.pix_fmt">argb</property>
  <property name="kdenlive:original.meta.media.0.codec.sample_aspect_ratio">0</property>
  <property name="kdenlive:original.meta.media.0.codec.colorspace">709</property>
  <property name="kdenlive:original.meta.media.0.codec.name">qtrle</property>
  <property name="kdenlive:original.meta.media.0.codec.long_name">QuickTime Animation (RLE) video</property>
  <property name="kdenlive:original.meta.media.0.codec.bit_rate">14309456</property>
  <property name="kdenlive:original.meta.attr.0.stream.handler_name.markup">VideoHandler</property>
  <property name="kdenlive:original.meta.attr.0.stream.vendor_id.markup">FFMP</property>
  <property name="kdenlive:original.meta.attr.0.stream.encoder.markup">Lavc60.3.100 qtrle</property>
  <property name="kdenlive:original.meta.attr.major_brand.markup">qt  </property>
  <property name="kdenlive:original.meta.attr.minor_version.markup">512</property>
  <property name="kdenlive:original.meta.attr.compatible_brands.markup">qt  </property>
  <property name="kdenlive:original.meta.attr.encoder.markup">Lavf60.3.100</property>
  <property name="kdenlive:original.meta.attr.comment.markup">Rendered with Manim Community v0.17.3</property>
  <property name="kdenlive:original.seekable">1</property>
  <property name="kdenlive:original.width">1920</property>
  <property name="kdenlive:original.height">1080</property>
  <property name="kdenlive:original.meta.media.sample_aspect_num">1</property>
  <property name="kdenlive:original.meta.media.sample_aspect_den">1</property>
  <property name="kdenlive:original.format">2</property>
  <property name="kdenlive:original.audio_index">-1</property>
  <property name="kdenlive:original.video_index">0</property>
  <property name="kdenlive:original.meta.media.frame_rate_num">60</property>
  <property name="kdenlive:original.meta.media.frame_rate_den">1</property>
  <property name="kdenlive:original.meta.media.colorspace">709</property>
  <property name="kdenlive:original.meta.media.color_trc">2</property>
  <property name="kdenlive:original.meta.media.has_b_frames">0</property>
  <property name="kdenlive:original.meta.media.width">1920</property>
  <property name="kdenlive:original.meta.media.height">1080</property>
  <property name="kdenlive:original.meta.media.color_range">mpeg</property>
  <property name="kdenlive:original.meta.media.top_field_first">0</property>
  <property name="kdenlive:original.meta.media.progressive">1</property>
  <property name="kdenlive:original.kdenlive:clip_type">2</property>
  <property name="kdenlive:original.kdenlive:folderid">255</property>
  <property name="kdenlive:original.kdenlive:id">256</property>
  <property name="kdenlive:original.mute_on_pause">0</property>
  <property name="kdenlive:original.kdenlive:file_size">1789797</property>
  <property name="kdenlive:original.kdenlive:file_hash">bfaf641a903729fd17c0021ba8c7c3ad</property>
  <property name="kdenlive:original.backup">1</property>
  <property name="meta.media.top_field_first">0</property>
  <property name="meta.media.progressive">1</property>
  <property name="kdenlive:file_hash">bfaf641a903729fd17c0021ba8c7c3ad</property>
 </chain>
 <chain id="chain726" out="00:00:01.483">
  <property name="length">90</property>
  <property name="eof">pause</property>
  <property name="resource">video/TransparentSilhouettes/4.mov</property>
  <property name="mlt_service">avformat</property>
  <property name="meta.media.nb_streams">1</property>
  <property name="meta.media.0.stream.type">video</property>
  <property name="meta.media.0.stream.frame_rate">60</property>
  <property name="meta.media.0.stream.sample_aspect_ratio">0</property>
  <property name="meta.media.0.codec.width">1920</property>
  <property name="meta.media.0.codec.height">1080</property>
  <property name="meta.media.0.codec.rotate">0</property>
  <property name="meta.media.0.codec.pix_fmt">argb</property>
  <property name="meta.media.0.codec.sample_aspect_ratio">0</property>
  <property name="meta.media.0.codec.colorspace">709</property>
  <property name="meta.media.0.codec.name">qtrle</property>
  <property name="meta.media.0.codec.long_name">QuickTime Animation (RLE) video</property>
  <property name="meta.media.0.codec.bit_rate">26943066</property>
  <property name="meta.attr.0.stream.handler_name.markup">VideoHandler</property>
  <property name="meta.attr.0.stream.vendor_id.markup">FFMP</property>
  <property name="meta.attr.0.stream.encoder.markup">Lavc60.3.100 qtrle</property>
  <property name="meta.attr.major_brand.markup">qt  </property>
  <property name="meta.attr.minor_version.markup">512</property>
  <property name="meta.attr.compatible_brands.markup">qt  </property>
  <property name="meta.attr.encoder.markup">Lavf60.3.100</property>
  <property name="meta.attr.comment.markup">Rendered with Manim Community v0.17.3</property>
  <property name="seekable">1</property>
  <property name="meta.media.sample_aspect_num">1</property>
  <property name="meta.media.sample_aspect_den">1</property>
  <property name="format">3</property>
  <property name="audio_index">-1</property>
  <property name="video_index">0</property>
  <property name="meta.media.frame_rate_num">60</property>
  <property name="meta.media.frame_rate_den">1</property>
  <property name="meta.media.colorspace">709</property>
  <property name="meta.media.color_trc">2</property>
  <property name="meta.media.has_b_frames">0</property>
  <property name="meta.media.width">1920</property>
  <property name="meta.media.height">1080</property>
  <property name="meta.media.color_range">mpeg</property>
  <property name="kdenlive:clipname">4.mov</property>
  <property name="kdenlive:clip_type">2</property>
  <property name="kdenlive:folderid">255</property>
  <property name="kdenlive:id">259</property>
  <property name="mute_on_pause">0</property>
  <property name="kdenlive:file_size">5053108</property>
  <property name="kdenlive:proxy">-</property>
  <property name="kdenlive:originalurl">video/TransparentSilhouettes/4.mov</property>
  <property name="kdenlive:original.mlt_type">chain</property>
  <property name="kdenlive:original.in">0</property>
  <property name="kdenlive:original.out">00:00:01.483</property>
  <property name="kdenlive:original.length">90</property>
  <property name="kdenlive:original.eof">pause</property>
  <property name="kdenlive:original.resource">video/TransparentSilhouettes/4.mov</property>
  <property name="kdenlive:original.mlt_service">avformat-novalidate</property>
  <property name="kdenlive:original.meta.media.nb_streams">1</property>
  <property name="kdenlive:original.meta.media.0.stream.type">video</property>
  <property name="kdenlive:original.meta.media.0.stream.frame_rate">60</property>
  <property name="kdenlive:original.meta.media.0.stream.sample_aspect_ratio">0</property>
  <property name="kdenlive:original.meta.media.0.codec.width">1920</property>
  <property name="kdenlive:original.meta.media.0.codec.height">1080</property>
  <property name="kdenlive:original.meta.media.0.codec.rotate">0</property>
  <property name="kdenlive:original.meta.media.0.codec.pix_fmt">argb</property>
  <property name="kdenlive:original.meta.media.0.codec.sample_aspect_ratio">0</property>
  <property name="kdenlive:original.meta.media.0.codec.colorspace">709</property>
  <property name="kdenlive:original.meta.media.0.codec.name">qtrle</property>
  <property name="kdenlive:original.meta.media.0.codec.long_name">QuickTime Animation (RLE) video</property>
  <property name="kdenlive:original.meta.media.0.codec.bit_rate">26943066</property>
  <property name="kdenlive:original.meta.attr.0.stream.handler_name.markup">VideoHandler</property>
  <property name="kdenlive:original.meta.attr.0.stream.vendor_id.markup">FFMP</property>
  <property name="kdenlive:original.meta.attr.0.stream.encoder.markup">Lavc60.3.100 qtrle</property>
  <property name="kdenlive:original.meta.attr.major_brand.markup">qt  </property>
  <property name="kdenlive:original.meta.attr.minor_version.markup">512</property>
  <property name="kdenlive:original.meta.attr.compatible_brands.markup">qt  </property>
  <property name="kdenlive:original.meta.attr.encoder.markup">Lavf60.3.100</property>
  <property name="kdenlive:original.meta.attr.comment.markup">Rendered with Manim Community v0.17.3</property>
  <property name="kdenlive:original.seekable">1</property>
  <property name="kdenlive:original.width">1920</property>
  <property name="kdenlive:original.height">1080</property>
  <property name="kdenlive:original.meta.media.sample_aspect_num">1</property>
  <property name="kdenlive:original.meta.media.sample_aspect_den">1</property>
  <property name="kdenlive:original.format">2</property>
  <property name="kdenlive:original.audio_index">-1</property>
  <property name="kdenlive:original.video_index">0</property>
  <property name="kdenlive:original.meta.media.frame_rate_num">60</property>
  <property name="kdenlive:original.meta.media.frame_rate_den">1</property>
  <property name="kdenlive:original.meta.media.colorspace">709</property>
  <property name="kdenlive:original.meta.media.color_trc">2</property>
  <property name="kdenlive:original.meta.media.has_b_frames">0</property>
  <property name="kdenlive:original.meta.media.width">1920</property>
  <property name="kdenlive:original.meta.media.height">1080</property>
  <property name="kdenlive:original.meta.media.color_range">mpeg</property>
  <property name="kdenlive:original.meta.media.top_field_first">0</property>
  <property name="kdenlive:original.meta.media.progressive">1</property>
  <property name="kdenlive:original.kdenlive:clip_type">2</property>
  <property name="kdenlive:original.kdenlive:folderid">255</property>
  <property name="kdenlive:original.kdenlive:id">259</property>
  <property name="kdenlive:original.mute_on_pause">0</property>
  <property name="kdenlive:original.kdenlive:file_size">5053108</property>
  <property name="kdenlive:original.kdenlive:file_hash">062134ed8d0f4772dd4ebb1cbab592a7</property>
  <property name="kdenlive:original.backup">1</property>
  <property name="meta.media.top_field_first">0</property>
  <property name="meta.media.progressive">1</property>
  <property name="kdenlive:file_hash">062134ed8d0f4772dd4ebb1cbab592a7</property>
 </chain>
 <chain id="chain727" out="00:00:01.483">
  <property name="length">90</property>
  <property name="eof">pause</property>
  <property name="resource">video/TransparentSilhouettes/2.mov</property>
  <property name="mlt_service">avformat</property>
  <property name="meta.media.nb_streams">1</property>
  <property name="meta.media.0.stream.type">video</property>
  <property name="meta.media.0.stream.frame_rate">60</property>
  <property name="meta.media.0.stream.sample_aspect_ratio">0</property>
  <property name="meta.media.0.codec.width">1920</property>
  <property name="meta.media.0.codec.height">1080</property>
  <property name="meta.media.0.codec.rotate">0</property>
  <property name="meta.media.0.codec.pix_fmt">argb</property>
  <property name="meta.media.0.codec.sample_aspect_ratio">0</property>
  <property name="meta.media.0.codec.colorspace">709</property>
  <property name="meta.media.0.codec.name">qtrle</property>
  <property name="meta.media.0.codec.long_name">QuickTime Animation (RLE) video</property>
  <property name="meta.media.0.codec.bit_rate">28563712</property>
  <property name="meta.attr.0.stream.handler_name.markup">VideoHandler</property>
  <property name="meta.attr.0.stream.vendor_id.markup">FFMP</property>
  <property name="meta.attr.0.stream.encoder.markup">Lavc60.3.100 qtrle</property>
  <property name="meta.attr.major_brand.markup">qt  </property>
  <property name="meta.attr.minor_version.markup">512</property>
  <property name="meta.attr.compatible_brands.markup">qt  </property>
  <property name="meta.attr.encoder.markup">Lavf60.3.100</property>
  <property name="meta.attr.comment.markup">Rendered with Manim Community v0.17.3</property>
  <property name="seekable">1</property>
  <property name="meta.media.sample_aspect_num">1</property>
  <property name="meta.media.sample_aspect_den">1</property>
  <property name="format">3</property>
  <property name="audio_index">-1</property>
  <property name="video_index">0</property>
  <property name="meta.media.frame_rate_num">60</property>
  <property name="meta.media.frame_rate_den">1</property>
  <property name="meta.media.colorspace">709</property>
  <property name="meta.media.color_trc">2</property>
  <property name="meta.media.has_b_frames">0</property>
  <property name="meta.media.width">1920</property>
  <property name="meta.media.height">1080</property>
  <property name="meta.media.color_range">mpeg</property>
  <property name="kdenlive:clipname">2.mov</property>
  <property name="kdenlive:clip_type">2</property>
  <property name="kdenlive:folderid">255</property>
  <property name="kdenlive:id">257</property>
  <property name="mute_on_pause">0</property>
  <property name="kdenlive:file_size">5357007</property>
  <property name="kdenlive:proxy">-</property>
  <property name="kdenlive:originalurl">video/TransparentSilhouettes/2.mov</property>
  <property name="kdenlive:original.mlt_type">chain</property>
  <property name="kdenlive:original.in">0</property>
  <property name="kdenlive:original.out">00:00:01.483</property>
  <property name="kdenlive:original.length">90</property>
  <property name="kdenlive:original.eof">pause</property>
  <property name="kdenlive:original.resource">video/TransparentSilhouettes/2.mov</property>
  <property name="kdenlive:original.mlt_service">avformat-novalidate</property>
  <property name="kdenlive:original.meta.media.nb_streams">1</property>
  <property name="kdenlive:original.meta.media.0.stream.type">video</property>
  <property name="kdenlive:original.meta.media.0.stream.frame_rate">60</property>
  <property name="kdenlive:original.meta.media.0.stream.sample_aspect_ratio">0</property>
  <property name="kdenlive:original.meta.media.0.codec.width">1920</property>
  <property name="kdenlive:original.meta.media.0.codec.height">1080</property>
  <property name="kdenlive:original.meta.media.0.codec.rotate">0</property>
  <property name="kdenlive:original.meta.media.0.codec.pix_fmt">argb</property>
  <property name="kdenlive:original.meta.media.0.codec.sample_aspect_ratio">0</property>
  <property name="kdenlive:original.meta.media.0.codec.colorspace">709</property>
  <property name="kdenlive:original.meta.media.0.codec.name">qtrle</property>
  <property name="kdenlive:original.meta.media.0.codec.long_name">QuickTime Animation (RLE) video</property>
  <property name="kdenlive:original.meta.media.0.codec.bit_rate">28563712</property>
  <property name="kdenlive:original.meta.attr.0.stream.handler_name.markup">VideoHandler</property>
  <property name="kdenlive:original.meta.attr.0.stream.vendor_id.markup">FFMP</property>
  <property name="kdenlive:original.meta.attr.0.stream.encoder.markup">Lavc60.3.100 qtrle</property>
  <property name="kdenlive:original.meta.attr.major_brand.markup">qt  </property>
  <property name="kdenlive:original.meta.attr.minor_version.markup">512</property>
  <property name="kdenlive:original.meta.attr.compatible_brands.markup">qt  </property>
  <property name="kdenlive:original.meta.attr.encoder.markup">Lavf60.3.100</property>
  <property name="kdenlive:original.meta.attr.comment.markup">Rendered with Manim Community v0.17.3</property>
  <property name="kdenlive:original.seekable">1</property>
  <property name="kdenlive:original.width">1920</property>
  <property name="kdenlive:original.height">1080</property>
  <property name="kdenlive:original.meta.media.sample_aspect_num">1</property>
  <property name="kdenlive:original.meta.media.sample_aspect_den">1</property>
  <property name="kdenlive:original.format">2</property>
  <property name="kdenlive:original.audio_index">-1</property>
  <property name="kdenlive:original.video_index">0</property>
  <property name="kdenlive:original.meta.media.frame_rate_num">60</property>
  <property name="kdenlive:original.meta.media.frame_rate_den">1</property>
  <property name="kdenlive:original.meta.media.colorspace">709</property>
  <property name="kdenlive:original.meta.media.color_trc">2</property>
  <property name="kdenlive:original.meta.media.has_b_frames">0</property>
  <property name="kdenlive:original.meta.media.width">1920</property>
  <property name="kdenlive:original.meta.media.height">1080</property>
  <property name="kdenlive:original.meta.media.color_range">mpeg</property>
  <property name="kdenlive:original.meta.media.top_field_first">0</property>
  <property name="kdenlive:original.meta.media.progressive">1</property>
  <property name="kdenlive:original.kdenlive:clip_type">2</property>
  <property name="kdenlive:original.kdenlive:folderid">255</property>
  <property name="kdenlive:original.kdenlive:id">257</property>
  <property name="kdenlive:original.mute_on_pause">0</property>
  <property name="kdenlive:original.kdenlive:file_size">5357007</property>
  <property name="kdenlive:original.kdenlive:file_hash">a3e3f38640cdf2a1045fa938b6005040</property>
  <property name="kdenlive:original.backup">1</property>
  <property name="meta.media.top_field_first">0</property>
  <property name="meta.media.progressive">1</property>
  <property name="kdenlive:file_hash">a3e3f38640cdf2a1045fa938b6005040</property>
 </chain>
 <chain id="chain728" out="00:00:01.483">
  <property name="length">90</property>
  <property name="eof">pause</property>
  <property name="resource">video/TransparentSilhouettes/5.mov</property>
  <property name="mlt_service">avformat</property>
  <property name="meta.media.nb_streams">1</property>
  <property name="meta.media.0.stream.type">video</property>
  <property name="meta.media.0.stream.frame_rate">60</property>
  <property name="meta.media.0.stream.sample_aspect_ratio">0</property>
  <property name="meta.media.0.codec.width">1920</property>
  <property name="meta.media.0.codec.height">1080</property>
  <property name="meta.media.0.codec.rotate">0</property>
  <property name="meta.media.0.codec.pix_fmt">argb</property>
  <property name="meta.media.0.codec.sample_aspect_ratio">0</property>
  <property name="meta.media.0.codec.colorspace">709</property>
  <property name="meta.media.0.codec.name">qtrle</property>
  <property name="meta.media.0.codec.long_name">QuickTime Animation (RLE) video</property>
  <property name="meta.media.0.codec.bit_rate">30595024</property>
  <property name="meta.attr.0.stream.handler_name.markup">VideoHandler</property>
  <property name="meta.attr.0.stream.vendor_id.markup">FFMP</property>
  <property name="meta.attr.0.stream.encoder.markup">Lavc60.3.100 qtrle</property>
  <property name="meta.attr.major_brand.markup">qt  </property>
  <property name="meta.attr.minor_version.markup">512</property>
  <property name="meta.attr.compatible_brands.markup">qt  </property>
  <property name="meta.attr.encoder.markup">Lavf60.3.100</property>
  <property name="meta.attr.comment.markup">Rendered with Manim Community v0.17.3</property>
  <property name="seekable">1</property>
  <property name="meta.media.sample_aspect_num">1</property>
  <property name="meta.media.sample_aspect_den">1</property>
  <property name="format">3</property>
  <property name="audio_index">-1</property>
  <property name="video_index">0</property>
  <property name="meta.media.frame_rate_num">60</property>
  <property name="meta.media.frame_rate_den">1</property>
  <property name="meta.media.colorspace">709</property>
  <property name="meta.media.color_trc">2</property>
  <property name="meta.media.has_b_frames">0</property>
  <property name="meta.media.width">1920</property>
  <property name="meta.media.height">1080</property>
  <property name="meta.media.color_range">mpeg</property>
  <property name="kdenlive:clipname">5.mov</property>
  <property name="kdenlive:clip_type">2</property>
  <property name="kdenlive:folderid">255</property>
  <property name="kdenlive:id">260</property>
  <property name="mute_on_pause">0</property>
  <property name="kdenlive:file_size">5737866</property>
  <property name="kdenlive:proxy">-</property>
  <property name="kdenlive:originalurl">video/TransparentSilhouettes/5.mov</property>
  <property name="kdenlive:original.mlt_type">chain</property>
  <property name="kdenlive:original.in">0</property>
  <property name="kdenlive:original.out">00:00:01.483</property>
  <property name="kdenlive:original.length">90</property>
  <property name="kdenlive:original.eof">pause</property>
  <property name="kdenlive:original.resource">video/TransparentSilhouettes/5.mov</property>
  <property name="kdenlive:original.mlt_service">avformat-novalidate</property>
  <property name="kdenlive:original.meta.media.nb_streams">1</property>
  <property name="kdenlive:original.meta.media.0.stream.type">video</property>
  <property name="kdenlive:original.meta.media.0.stream.frame_rate">60</property>
  <property name="kdenlive:original.meta.media.0.stream.sample_aspect_ratio">0</property>
  <property name="kdenlive:original.meta.media.0.codec.width">1920</property>
  <property name="kdenlive:original.meta.media.0.codec.height">1080</property>
  <property name="kdenlive:original.meta.media.0.codec.rotate">0</property>
  <property name="kdenlive:original.meta.media.0.codec.pix_fmt">argb</property>
  <property name="kdenlive:original.meta.media.0.codec.sample_aspect_ratio">0</property>
  <property name="kdenlive:original.meta.media.0.codec.colorspace">709</property>
  <property name="kdenlive:original.meta.media.0.codec.name">qtrle</property>
  <property name="kdenlive:original.meta.media.0.codec.long_name">QuickTime Animation (RLE) video</property>
  <property name="kdenlive:original.meta.media.0.codec.bit_rate">30595024</property>
  <property name="kdenlive:original.meta.attr.0.stream.handler_name.markup">VideoHandler</property>
  <property name="kdenlive:original.meta.attr.0.stream.vendor_id.markup">FFMP</property>
  <property name="kdenlive:original.meta.attr.0.stream.encoder.markup">Lavc60.3.100 qtrle</property>
  <property name="kdenlive:original.meta.attr.major_brand.markup">qt  </property>
  <property name="kdenlive:original.meta.attr.minor_version.markup">512</property>
  <property name="kdenlive:original.meta.attr.compatible_brands.markup">qt  </property>
  <property name="kdenlive:original.meta.attr.encoder.markup">Lavf60.3.100</property>
  <property name="kdenlive:original.meta.attr.comment.markup">Rendered with Manim Community v0.17.3</property>
  <property name="kdenlive:original.seekable">1</property>
  <property name="kdenlive:original.width">1920</property>
  <property name="kdenlive:original.height">1080</property>
  <property name="kdenlive:original.meta.media.sample_aspect_num">1</property>
  <property name="kdenlive:original.meta.media.sample_aspect_den">1</property>
  <property name="kdenlive:original.format">2</property>
  <property name="kdenlive:original.audio_index">-1</property>
  <property name="kdenlive:original.video_index">0</property>
  <property name="kdenlive:original.meta.media.frame_rate_num">60</property>
  <property name="kdenlive:original.meta.media.frame_rate_den">1</property>
  <property name="kdenlive:original.meta.media.colorspace">709</property>
  <property name="kdenlive:original.meta.media.color_trc">2</property>
  <property name="kdenlive:original.meta.media.has_b_frames">0</property>
  <property name="kdenlive:original.meta.media.width">1920</property>
  <property name="kdenlive:original.meta.media.height">1080</property>
  <property name="kdenlive:original.meta.media.color_range">mpeg</property>
  <property name="kdenlive:original.meta.media.top_field_first">0</property>
  <property name="kdenlive:original.meta.media.progressive">1</property>
  <property name="kdenlive:original.kdenlive:clip_type">2</property>
  <property name="kdenlive:original.kdenlive:folderid">255</property>
  <property name="kdenlive:original.kdenlive:id">260</property>
  <property name="kdenlive:original.mute_on_pause">0</property>
  <property name="kdenlive:original.kdenlive:file_size">5737866</property>
  <property name="kdenlive:original.kdenlive:file_hash">3b2d2d9dae1d7dda13b442881a708d5a</property>
  <property name="kdenlive:original.backup">1</property>
  <property name="meta.media.top_field_first">0</property>
  <property name="meta.media.progressive">1</property>
  <property name="kdenlive:file_hash">3b2d2d9dae1d7dda13b442881a708d5a</property>
 </chain>
 <chain id="chain729" out="00:00:01.483">
  <property name="length">90</property>
  <property name="eof">pause</property>
  <property name="resource">video/TransparentSilhouettes/3.mov</property>
  <property name="mlt_service">avformat</property>
  <property name="meta.media.nb_streams">1</property>
  <property name="meta.media.0.stream.type">video</property>
  <property name="meta.media.0.stream.frame_rate">60</property>
  <property name="meta.media.0.stream.sample_aspect_ratio">0</property>
  <property name="meta.media.0.codec.width">1920</property>
  <property name="meta.media.0.codec.height">1080</property>
  <property name="meta.media.0.codec.rotate">0</property>
  <property name="meta.media.0.codec.pix_fmt">argb</property>
  <property name="meta.media.0.codec.sample_aspect_ratio">0</property>
  <property name="meta.media.0.codec.colorspace">709</property>
  <property name="meta.media.0.codec.name">qtrle</property>
  <property name="meta.media.0.codec.long_name">QuickTime Animation (RLE) video</property>
  <property name="meta.media.0.codec.bit_rate">27060005</property>
  <property name="meta.attr.0.stream.handler_name.markup">VideoHandler</property>
  <property name="meta.attr.0.stream.vendor_id.markup">FFMP</property>
  <property name="meta.attr.0.stream.encoder.markup">Lavc60.3.100 qtrle</property>
  <property name="meta.attr.major_brand.markup">qt  </property>
  <property name="meta.attr.minor_version.markup">512</property>
  <property name="meta.attr.compatible_brands.markup">qt  </property>
  <property name="meta.attr.encoder.markup">Lavf60.3.100</property>
  <property name="meta.attr.comment.markup">Rendered with Manim Community v0.17.3</property>
  <property name="seekable">1</property>
  <property name="meta.media.sample_aspect_num">1</property>
  <property name="meta.media.sample_aspect_den">1</property>
  <property name="format">3</property>
  <property name="audio_index">-1</property>
  <property name="video_index">0</property>
  <property name="meta.media.frame_rate_num">60</property>
  <property name="meta.media.frame_rate_den">1</property>
  <property name="meta.media.colorspace">709</property>
  <property name="meta.media.color_trc">2</property>
  <property name="meta.media.has_b_frames">0</property>
  <property name="meta.media.width">1920</property>
  <property name="meta.media.height">1080</property>
  <property name="meta.media.color_range">mpeg</property>
  <property name="kdenlive:clipname">3.mov</property>
  <property name="kdenlive:clip_type">2</property>
  <property name="kdenlive:folderid">255</property>
  <property name="kdenlive:id">258</property>
  <property name="mute_on_pause">0</property>
  <property name="kdenlive:file_size">5075046</property>
  <property name="kdenlive:proxy">-</property>
  <property name="kdenlive:originalurl">video/TransparentSilhouettes/3.mov</property>
  <property name="kdenlive:original.mlt_type">chain</property>
  <property name="kdenlive:original.in">0</property>
  <property name="kdenlive:original.out">00:00:01.483</property>
  <property name="kdenlive:original.length">90</property>
  <property name="kdenlive:original.eof">pause</property>
  <property name="kdenlive:original.resource">video/TransparentSilhouettes/3.mov</property>
  <property name="kdenlive:original.mlt_service">avformat-novalidate</property>
  <property name="kdenlive:original.meta.media.nb_streams">1</property>
  <property name="kdenlive:original.meta.media.0.stream.type">video</property>
  <property name="kdenlive:original.meta.media.0.stream.frame_rate">60</property>
  <property name="kdenlive:original.meta.media.0.stream.sample_aspect_ratio">0</property>
  <property name="kdenlive:original.meta.media.0.codec.width">1920</property>
  <property name="kdenlive:original.meta.media.0.codec.height">1080</property>
  <property name="kdenlive:original.meta.media.0.codec.rotate">0</property>
  <property name="kdenlive:original.meta.media.0.codec.pix_fmt">argb</property>
  <property name="kdenlive:original.meta.media.0.codec.sample_aspect_ratio">0</property>
  <property name="kdenlive:original.meta.media.0.codec.colorspace">709</property>
  <property name="kdenlive:original.meta.media.0.codec.name">qtrle</property>
  <property name="kdenlive:original.meta.media.0.codec.long_name">QuickTime Animation (RLE) video</property>
  <property name="kdenlive:original.meta.media.0.codec.bit_rate">27060005</property>
  <property name="kdenlive:original.meta.attr.0.stream.handler_name.markup">VideoHandler</property>
  <property name="kdenlive:original.meta.attr.0.stream.vendor_id.markup">FFMP</property>
  <property name="kdenlive:original.meta.attr.0.stream.encoder.markup">Lavc60.3.100 qtrle</property>
  <property name="kdenlive:original.meta.attr.major_brand.markup">qt  </property>
  <property name="kdenlive:original.meta.attr.minor_version.markup">512</property>
  <property name="kdenlive:original.meta.attr.compatible_brands.markup">qt  </property>
  <property name="kdenlive:original.meta.attr.encoder.markup">Lavf60.3.100</property>
  <property name="kdenlive:original.meta.attr.comment.markup">Rendered with Manim Community v0.17.3</property>
  <property name="kdenlive:original.seekable">1</property>
  <property name="kdenlive:original.width">1920</property>
  <property name="kdenlive:original.height">1080</property>
  <property name="kdenlive:original.meta.media.sample_aspect_num">1</property>
  <property name="kdenlive:original.meta.media.sample_aspect_den">1</property>
  <property name="kdenlive:original.format">2</property>
  <property name="kdenlive:original.audio_index">-1</property>
  <property name="kdenlive:original.video_index">0</property>
  <property name="kdenlive:original.meta.media.frame_rate_num">60</property>
  <property name="kdenlive:original.meta.media.frame_rate_den">1</property>
  <property name="kdenlive:original.meta.media.colorspace">709</property>
  <property name="kdenlive:original.meta.media.color_trc">2</property>
  <property name="kdenlive:original.meta.media.has_b_frames">0</property>
  <property name="kdenlive:original.meta.media.width">1920</property>
  <property name="kdenlive:original.meta.media.height">1080</property>
  <property name="kdenlive:original.meta.media.color_range">mpeg</property>
  <property name="kdenlive:original.meta.media.top_field_first">0</property>
  <property name="kdenlive:original.meta.media.progressive">1</property>
  <property name="kdenlive:original.kdenlive:clip_type">2</property>
  <property name="kdenlive:original.kdenlive:folderid">255</property>
  <property name="kdenlive:original.kdenlive:id">258</property>
  <property name="kdenlive:original.mute_on_pause">0</property>
  <property name="kdenlive:original.kdenlive:file_size">5075046</property>
  <property name="kdenlive:original.kdenlive:file_hash">ff94e10b9d635bd21ed8677f105db73b</property>
  <property name="kdenlive:original.backup">1</property>
  <property name="meta.media.top_field_first">0</property>
  <property name="meta.media.progressive">1</property>
  <property name="kdenlive:file_hash">ff94e10b9d635bd21ed8677f105db73b</property>
 </chain>
 <chain id="chain730" out="00:00:01.733">
  <property name="length">105</property>
  <property name="eof">pause</property>
  <property name="resource">video/TransparentSilhouettes/6.mov</property>
  <property name="mlt_service">avformat</property>
  <property name="meta.media.nb_streams">1</property>
  <property name="meta.media.0.stream.type">video</property>
  <property name="meta.media.0.stream.frame_rate">60</property>
  <property name="meta.media.0.stream.sample_aspect_ratio">0</property>
  <property name="meta.media.0.codec.width">1920</property>
  <property name="meta.media.0.codec.height">1080</property>
  <property name="meta.media.0.codec.rotate">0</property>
  <property name="meta.media.0.codec.pix_fmt">argb</property>
  <property name="meta.media.0.codec.sample_aspect_ratio">0</property>
  <property name="meta.media.0.codec.colorspace">709</property>
  <property name="meta.media.0.codec.name">qtrle</property>
  <property name="meta.media.0.codec.long_name">QuickTime Animation (RLE) video</property>
  <property name="meta.media.0.codec.bit_rate">30945942</property>
  <property name="meta.attr.0.stream.handler_name.markup">VideoHandler</property>
  <property name="meta.attr.0.stream.vendor_id.markup">FFMP</property>
  <property name="meta.attr.0.stream.encoder.markup">Lavc60.3.100 qtrle</property>
  <property name="meta.attr.major_brand.markup">qt  </property>
  <property name="meta.attr.minor_version.markup">512</property>
  <property name="meta.attr.compatible_brands.markup">qt  </property>
  <property name="meta.attr.encoder.markup">Lavf60.3.100</property>
  <property name="meta.attr.comment.markup">Rendered with Manim Community v0.17.3</property>
  <property name="seekable">1</property>
  <property name="meta.media.sample_aspect_num">1</property>
  <property name="meta.media.sample_aspect_den">1</property>
  <property name="format">3</property>
  <property name="audio_index">-1</property>
  <property name="video_index">0</property>
  <property name="meta.media.frame_rate_num">60</property>
  <property name="meta.media.frame_rate_den">1</property>
  <property name="meta.media.colorspace">709</property>
  <property name="meta.media.color_trc">2</property>
  <property name="meta.media.has_b_frames">0</property>
  <property name="meta.media.width">1920</property>
  <property name="meta.media.height">1080</property>
  <property name="meta.media.color_range">mpeg</property>
  <property name="kdenlive:clipname">6.mov</property>
  <property name="kdenlive:clip_type">2</property>
  <property name="kdenlive:folderid">255</property>
  <property name="kdenlive:id">261</property>
  <property name="mute_on_pause">0</property>
  <property name="kdenlive:file_size">6770816</property>
  <property name="kdenlive:proxy">-</property>
  <property name="kdenlive:originalurl">video/TransparentSilhouettes/6.mov</property>
  <property name="kdenlive:original.mlt_type">chain</property>
  <property name="kdenlive:original.in">0</property>
  <property name="kdenlive:original.out">00:00:01.733</property>
  <property name="kdenlive:original.length">105</property>
  <property name="kdenlive:original.eof">pause</property>
  <property name="kdenlive:original.resource">video/TransparentSilhouettes/6.mov</property>
  <property name="kdenlive:original.mlt_service">avformat-novalidate</property>
  <property name="kdenlive:original.meta.media.nb_streams">1</property>
  <property name="kdenlive:original.meta.media.0.stream.type">video</property>
  <property name="kdenlive:original.meta.media.0.stream.frame_rate">60</property>
  <property name="kdenlive:original.meta.media.0.stream.sample_aspect_ratio">0</property>
  <property name="kdenlive:original.meta.media.0.codec.width">1920</property>
  <property name="kdenlive:original.meta.media.0.codec.height">1080</property>
  <property name="kdenlive:original.meta.media.0.codec.rotate">0</property>
  <property name="kdenlive:original.meta.media.0.codec.pix_fmt">argb</property>
  <property name="kdenlive:original.meta.media.0.codec.sample_aspect_ratio">0</property>
  <property name="kdenlive:original.meta.media.0.codec.colorspace">709</property>
  <property name="kdenlive:original.meta.media.0.codec.name">qtrle</property>
  <property name="kdenlive:original.meta.media.0.codec.long_name">QuickTime Animation (RLE) video</property>
  <property name="kdenlive:original.meta.media.0.codec.bit_rate">30945942</property>
  <property name="kdenlive:original.meta.attr.0.stream.handler_name.markup">VideoHandler</property>
  <property name="kdenlive:original.meta.attr.0.stream.vendor_id.markup">FFMP</property>
  <property name="kdenlive:original.meta.attr.0.stream.encoder.markup">Lavc60.3.100 qtrle</property>
  <property name="kdenlive:original.meta.attr.major_brand.markup">qt  </property>
  <property name="kdenlive:original.meta.attr.minor_version.markup">512</property>
  <property name="kdenlive:original.meta.attr.compatible_brands.markup">qt  </property>
  <property name="kdenlive:original.meta.attr.encoder.markup">Lavf60.3.100</property>
  <property name="kdenlive:original.meta.attr.comment.markup">Rendered with Manim Community v0.17.3</property>
  <property name="kdenlive:original.seekable">1</property>
  <property name="kdenlive:original.width">1920</property>
  <property name="kdenlive:original.height">1080</property>
  <property name="kdenlive:original.meta.media.sample_aspect_num">1</property>
  <property name="kdenlive:original.meta.media.sample_aspect_den">1</property>
  <property name="kdenlive:original.format">2</property>
  <property name="kdenlive:original.audio_index">-1</property>
  <property name="kdenlive:original.video_index">0</property>
  <property name="kdenlive:original.meta.media.frame_rate_num">60</property>
  <property name="kdenlive:original.meta.media.frame_rate_den">1</property>
  <property name="kdenlive:original.meta.media.colorspace">709</property>
  <property name="kdenlive:original.meta.media.color_trc">2</property>
  <property name="kdenlive:original.meta.media.has_b_frames">0</property>
  <property name="kdenlive:original.meta.media.width">1920</property>
  <property name="kdenlive:original.meta.media.height">1080</property>
  <property name="kdenlive:original.meta.media.color_range">mpeg</property>
  <property name="kdenlive:original.meta.media.top_field_first">0</property>
  <property name="kdenlive:original.meta.media.progressive">1</property>
  <property name="kdenlive:original.kdenlive:clip_type">2</property>
  <property name="kdenlive:original.kdenlive:folderid">255</property>
  <property name="kdenlive:original.kdenlive:id">261</property>
  <property name="kdenlive:original.mute_on_pause">0</property>
  <property name="kdenlive:original.kdenlive:file_size">6770816</property>
  <property name="kdenlive:original.kdenlive:file_hash">b18d7c691deb372d23a10d616476ac3c</property>
  <property name="kdenlive:original.backup">1</property>
  <property name="meta.media.top_field_first">0</property>
  <property name="meta.media.progressive">1</property>
  <property name="kdenlive:file_hash">b18d7c691deb372d23a10d616476ac3c</property>
 </chain>
 <chain id="chain731" out="00:00:00.983">
  <property name="length">60</property>
  <property name="eof">pause</property>
  <property name="resource">video/TransparentSilhouettes/8.mov</property>
  <property name="mlt_service">avformat</property>
  <property name="meta.media.nb_streams">1</property>
  <property name="meta.media.0.stream.type">video</property>
  <property name="meta.media.0.stream.frame_rate">60</property>
  <property name="meta.media.0.stream.sample_aspect_ratio">0</property>
  <property name="meta.media.0.codec.width">1920</property>
  <property name="meta.media.0.codec.height">1080</property>
  <property name="meta.media.0.codec.rotate">0</property>
  <property name="meta.media.0.codec.pix_fmt">argb</property>
  <property name="meta.media.0.codec.sample_aspect_ratio">0</property>
  <property name="meta.media.0.codec.colorspace">709</property>
  <property name="meta.media.0.codec.name">qtrle</property>
  <property name="meta.media.0.codec.long_name">QuickTime Animation (RLE) video</property>
  <property name="meta.media.0.codec.bit_rate">267768800</property>
  <property name="meta.attr.0.stream.handler_name.markup">VideoHandler</property>
  <property name="meta.attr.0.stream.vendor_id.markup">FFMP</property>
  <property name="meta.attr.0.stream.encoder.markup">Lavc60.3.100 qtrle</property>
  <property name="meta.attr.major_brand.markup">qt  </property>
  <property name="meta.attr.minor_version.markup">512</property>
  <property name="meta.attr.compatible_brands.markup">qt  </property>
  <property name="meta.attr.encoder.markup">Lavf60.3.100</property>
  <property name="meta.attr.comment.markup">Rendered with Manim Community v0.17.3</property>
  <property name="seekable">1</property>
  <property name="meta.media.sample_aspect_num">1</property>
  <property name="meta.media.sample_aspect_den">1</property>
  <property name="format">3</property>
  <property name="audio_index">-1</property>
  <property name="video_index">0</property>
  <property name="meta.media.frame_rate_num">60</property>
  <property name="meta.media.frame_rate_den">1</property>
  <property name="meta.media.colorspace">709</property>
  <property name="meta.media.color_trc">2</property>
  <property name="meta.media.has_b_frames">0</property>
  <property name="meta.media.width">1920</property>
  <property name="meta.media.height">1080</property>
  <property name="meta.media.color_range">mpeg</property>
  <property name="kdenlive:clipname">8.mov</property>
  <property name="kdenlive:clip_type">2</property>
  <property name="kdenlive:folderid">255</property>
  <property name="kdenlive:id">263</property>
  <property name="mute_on_pause">0</property>
  <property name="kdenlive:file_size">33472443</property>
  <property name="kdenlive:proxy">-</property>
  <property name="kdenlive:originalurl">video/TransparentSilhouettes/8.mov</property>
  <property name="kdenlive:original.mlt_type">chain</property>
  <property name="kdenlive:original.in">0</property>
  <property name="kdenlive:original.out">00:00:00.983</property>
  <property name="kdenlive:original.length">60</property>
  <property name="kdenlive:original.eof">pause</property>
  <property name="kdenlive:original.resource">video/TransparentSilhouettes/8.mov</property>
  <property name="kdenlive:original.mlt_service">avformat-novalidate</property>
  <property name="kdenlive:original.meta.media.nb_streams">1</property>
  <property name="kdenlive:original.meta.media.0.stream.type">video</property>
  <property name="kdenlive:original.meta.media.0.stream.frame_rate">60</property>
  <property name="kdenlive:original.meta.media.0.stream.sample_aspect_ratio">0</property>
  <property name="kdenlive:original.meta.media.0.codec.width">1920</property>
  <property name="kdenlive:original.meta.media.0.codec.height">1080</property>
  <property name="kdenlive:original.meta.media.0.codec.rotate">0</property>
  <property name="kdenlive:original.meta.media.0.codec.pix_fmt">argb</property>
  <property name="kdenlive:original.meta.media.0.codec.sample_aspect_ratio">0</property>
  <property name="kdenlive:original.meta.media.0.codec.colorspace">709</property>
  <property name="kdenlive:original.meta.media.0.codec.name">qtrle</property>
  <property name="kdenlive:original.meta.media.0.codec.long_name">QuickTime Animation (RLE) video</property>
  <property name="kdenlive:original.meta.media.0.codec.bit_rate">267768800</property>
  <property name="kdenlive:original.meta.attr.0.stream.handler_name.markup">VideoHandler</property>
  <property name="kdenlive:original.meta.attr.0.stream.vendor_id.markup">FFMP</property>
  <property name="kdenlive:original.meta.attr.0.stream.encoder.markup">Lavc60.3.100 qtrle</property>
  <property name="kdenlive:original.meta.attr.major_brand.markup">qt  </property>
  <property name="kdenlive:original.meta.attr.minor_version.markup">512</property>
  <property name="kdenlive:original.meta.attr.compatible_brands.markup">qt  </property>
  <property name="kdenlive:original.meta.attr.encoder.markup">Lavf60.3.100</property>
  <property name="kdenlive:original.meta.attr.comment.markup">Rendered with Manim Community v0.17.3</property>
  <property name="kdenlive:original.seekable">1</property>
  <property name="kdenlive:original.width">1920</property>
  <property name="kdenlive:original.height">1080</property>
  <property name="kdenlive:original.meta.media.sample_aspect_num">1</property>
  <property name="kdenlive:original.meta.media.sample_aspect_den">1</property>
  <property name="kdenlive:original.format">2</property>
  <property name="kdenlive:original.audio_index">-1</property>
  <property name="kdenlive:original.video_index">0</property>
  <property name="kdenlive:original.meta.media.frame_rate_num">60</property>
  <property name="kdenlive:original.meta.media.frame_rate_den">1</property>
  <property name="kdenlive:original.meta.media.colorspace">709</property>
  <property name="kdenlive:original.meta.media.color_trc">2</property>
  <property name="kdenlive:original.meta.media.has_b_frames">0</property>
  <property name="kdenlive:original.meta.media.width">1920</property>
  <property name="kdenlive:original.meta.media.height">1080</property>
  <property name="kdenlive:original.meta.media.color_range">mpeg</property>
  <property name="kdenlive:original.meta.media.top_field_first">0</property>
  <property name="kdenlive:original.meta.media.progressive">1</property>
  <property name="kdenlive:original.kdenlive:clip_type">2</property>
  <property name="kdenlive:original.kdenlive:folderid">255</property>
  <property name="kdenlive:original.kdenlive:id">263</property>
  <property name="kdenlive:original.mute_on_pause">0</property>
  <property name="kdenlive:original.kdenlive:file_size">33472443</property>
  <property name="kdenlive:original.kdenlive:file_hash">de962afd8b2b2219ee7e79ee2034f63e</property>
  <property name="kdenlive:original.backup">1</property>
  <property name="meta.media.top_field_first">0</property>
  <property name="meta.media.progressive">1</property>
  <property name="kdenlive:file_hash">de962afd8b2b2219ee7e79ee2034f63e</property>
 </chain>
 <chain id="chain732" out="00:00:01.233">
  <property name="length">75</property>
  <property name="eof">pause</property>
  <property name="resource">video/TransparentSilhouettes/7.mov</property>
  <property name="mlt_service">avformat</property>
  <property name="meta.media.nb_streams">1</property>
  <property name="meta.media.0.stream.type">video</property>
  <property name="meta.media.0.stream.frame_rate">60</property>
  <property name="meta.media.0.stream.sample_aspect_ratio">0</property>
  <property name="meta.media.0.codec.width">1920</property>
  <property name="meta.media.0.codec.height">1080</property>
  <property name="meta.media.0.codec.rotate">0</property>
  <property name="meta.media.0.codec.pix_fmt">argb</property>
  <property name="meta.media.0.codec.sample_aspect_ratio">0</property>
  <property name="meta.media.0.codec.colorspace">709</property>
  <property name="meta.media.0.codec.name">qtrle</property>
  <property name="meta.media.0.codec.long_name">QuickTime Animation (RLE) video</property>
  <property name="meta.media.0.codec.bit_rate">208843737</property>
  <property name="meta.attr.0.stream.handler_name.markup">VideoHandler</property>
  <property name="meta.attr.0.stream.vendor_id.markup">FFMP</property>
  <property name="meta.attr.0.stream.encoder.markup">Lavc60.3.100 qtrle</property>
  <property name="meta.attr.major_brand.markup">qt  </property>
  <property name="meta.attr.minor_version.markup">512</property>
  <property name="meta.attr.compatible_brands.markup">qt  </property>
  <property name="meta.attr.encoder.markup">Lavf60.3.100</property>
  <property name="meta.attr.comment.markup">Rendered with Manim Community v0.17.3</property>
  <property name="seekable">1</property>
  <property name="meta.media.sample_aspect_num">1</property>
  <property name="meta.media.sample_aspect_den">1</property>
  <property name="format">3</property>
  <property name="audio_index">-1</property>
  <property name="video_index">0</property>
  <property name="meta.media.frame_rate_num">60</property>
  <property name="meta.media.frame_rate_den">1</property>
  <property name="meta.media.colorspace">709</property>
  <property name="meta.media.color_trc">2</property>
  <property name="meta.media.has_b_frames">0</property>
  <property name="meta.media.width">1920</property>
  <property name="meta.media.height">1080</property>
  <property name="meta.media.color_range">mpeg</property>
  <property name="kdenlive:clipname">7.mov</property>
  <property name="kdenlive:clip_type">2</property>
  <property name="kdenlive:folderid">255</property>
  <property name="kdenlive:id">262</property>
  <property name="mute_on_pause">0</property>
  <property name="kdenlive:file_size">32633265</property>
  <property name="kdenlive:proxy">-</property>
  <property name="kdenlive:originalurl">video/TransparentSilhouettes/7.mov</property>
  <property name="kdenlive:original.mlt_type">chain</property>
  <property name="kdenlive:original.in">0</property>
  <property name="kdenlive:original.out">00:00:01.233</property>
  <property name="kdenlive:original.length">75</property>
  <property name="kdenlive:original.eof">pause</property>
  <property name="kdenlive:original.resource">video/TransparentSilhouettes/7.mov</property>
  <property name="kdenlive:original.mlt_service">avformat-novalidate</property>
  <property name="kdenlive:original.meta.media.nb_streams">1</property>
  <property name="kdenlive:original.meta.media.0.stream.type">video</property>
  <property name="kdenlive:original.meta.media.0.stream.frame_rate">60</property>
  <property name="kdenlive:original.meta.media.0.stream.sample_aspect_ratio">0</property>
  <property name="kdenlive:original.meta.media.0.codec.width">1920</property>
  <property name="kdenlive:original.meta.media.0.codec.height">1080</property>
  <property name="kdenlive:original.meta.media.0.codec.rotate">0</property>
  <property name="kdenlive:original.meta.media.0.codec.pix_fmt">argb</property>
  <property name="kdenlive:original.meta.media.0.codec.sample_aspect_ratio">0</property>
  <property name="kdenlive:original.meta.media.0.codec.colorspace">709</property>
  <property name="kdenlive:original.meta.media.0.codec.name">qtrle</property>
  <property name="kdenlive:original.meta.media.0.codec.long_name">QuickTime Animation (RLE) video</property>
  <property name="kdenlive:original.meta.media.0.codec.bit_rate">208843737</property>
  <property name="kdenlive:original.meta.attr.0.stream.handler_name.markup">VideoHandler</property>
  <property name="kdenlive:original.meta.attr.0.stream.vendor_id.markup">FFMP</property>
  <property name="kdenlive:original.meta.attr.0.stream.encoder.markup">Lavc60.3.100 qtrle</property>
  <property name="kdenlive:original.meta.attr.major_brand.markup">qt  </property>
  <property name="kdenlive:original.meta.attr.minor_version.markup">512</property>
  <property name="kdenlive:original.meta.attr.compatible_brands.markup">qt  </property>
  <property name="kdenlive:original.meta.attr.encoder.markup">Lavf60.3.100</property>
  <property name="kdenlive:original.meta.attr.comment.markup">Rendered with Manim Community v0.17.3</property>
  <property name="kdenlive:original.seekable">1</property>
  <property name="kdenlive:original.width">1920</property>
  <property name="kdenlive:original.height">1080</property>
  <property name="kdenlive:original.meta.media.sample_aspect_num">1</property>
  <property name="kdenlive:original.meta.media.sample_aspect_den">1</property>
  <property name="kdenlive:original.format">2</property>
  <property name="kdenlive:original.audio_index">-1</property>
  <property name="kdenlive:original.video_index">0</property>
  <property name="kdenlive:original.meta.media.frame_rate_num">60</property>
  <property name="kdenlive:original.meta.media.frame_rate_den">1</property>
  <property name="kdenlive:original.meta.media.colorspace">709</property>
  <property name="kdenlive:original.meta.media.color_trc">2</property>
  <property name="kdenlive:original.meta.media.has_b_frames">0</property>
  <property name="kdenlive:original.meta.media.width">1920</property>
  <property name="kdenlive:original.meta.media.height">1080</property>
  <property name="kdenlive:original.meta.media.color_range">mpeg</property>
  <property name="kdenlive:original.meta.media.top_field_first">0</property>
  <property name="kdenlive:original.meta.media.progressive">1</property>
  <property name="kdenlive:original.kdenlive:clip_type">2</property>
  <property name="kdenlive:original.kdenlive:folderid">255</property>
  <property name="kdenlive:original.kdenlive:id">262</property>
  <property name="kdenlive:original.mute_on_pause">0</property>
  <property name="kdenlive:original.kdenlive:file_size">32633265</property>
  <property name="kdenlive:original.kdenlive:file_hash">a322d0cbdb7c1bfaf2eec62ab7b0bc06</property>
  <property name="kdenlive:original.backup">1</property>
  <property name="meta.media.top_field_first">0</property>
  <property name="meta.media.progressive">1</property>
  <property name="kdenlive:file_hash">a322d0cbdb7c1bfaf2eec62ab7b0bc06</property>
 </chain>
 <chain id="chain733" out="00:00:00.983">
  <property name="length">60</property>
  <property name="eof">pause</property>
  <property name="resource">video/TransparentFunnyXD/1.mov</property>
  <property name="mlt_service">avformat</property>
  <property name="meta.media.nb_streams">1</property>
  <property name="meta.media.0.stream.type">video</property>
  <property name="meta.media.0.stream.frame_rate">60</property>
  <property name="meta.media.0.stream.sample_aspect_ratio">0</property>
  <property name="meta.media.0.codec.width">1920</property>
  <property name="meta.media.0.codec.height">1080</property>
  <property name="meta.media.0.codec.rotate">0</property>
  <property name="meta.media.0.codec.pix_fmt">argb</property>
  <property name="meta.media.0.codec.sample_aspect_ratio">0</property>
  <property name="meta.media.0.codec.colorspace">709</property>
  <property name="meta.media.0.codec.name">qtrle</property>
  <property name="meta.media.0.codec.long_name">QuickTime Animation (RLE) video</property>
  <property name="meta.media.0.codec.bit_rate">18572456</property>
  <property name="meta.attr.0.stream.handler_name.markup">VideoHandler</property>
  <property name="meta.attr.0.stream.vendor_id.markup">FFMP</property>
  <property name="meta.attr.0.stream.encoder.markup">Lavc60.3.100 qtrle</property>
  <property name="meta.attr.major_brand.markup">qt  </property>
  <property name="meta.attr.minor_version.markup">512</property>
  <property name="meta.attr.compatible_brands.markup">qt  </property>
  <property name="meta.attr.encoder.markup">Lavf60.3.100</property>
  <property name="meta.attr.comment.markup">Rendered with Manim Community v0.17.3</property>
  <property name="seekable">1</property>
  <property name="meta.media.sample_aspect_num">1</property>
  <property name="meta.media.sample_aspect_den">1</property>
  <property name="format">3</property>
  <property name="audio_index">-1</property>
  <property name="video_index">0</property>
  <property name="meta.media.frame_rate_num">60</property>
  <property name="meta.media.frame_rate_den">1</property>
  <property name="meta.media.colorspace">709</property>
  <property name="meta.media.color_trc">2</property>
  <property name="meta.media.has_b_frames">0</property>
  <property name="meta.media.width">1920</property>
  <property name="meta.media.height">1080</property>
  <property name="meta.media.color_range">mpeg</property>
  <property name="kdenlive:clipname">1.mov</property>
  <property name="kdenlive:clip_type">2</property>
  <property name="kdenlive:folderid">244</property>
  <property name="kdenlive:id">245</property>
  <property name="mute_on_pause">0</property>
  <property name="kdenlive:file_size">2322688</property>
  <property name="kdenlive:proxy">-</property>
  <property name="kdenlive:originalurl">video/TransparentFunnyXD/1.mov</property>
  <property name="kdenlive:original.mlt_type">chain</property>
  <property name="kdenlive:original.in">0</property>
  <property name="kdenlive:original.out">00:00:00.983</property>
  <property name="kdenlive:original.length">60</property>
  <property name="kdenlive:original.eof">pause</property>
  <property name="kdenlive:original.resource">video/TransparentFunnyXD/1.mov</property>
  <property name="kdenlive:original.mlt_service">avformat-novalidate</property>
  <property name="kdenlive:original.meta.media.nb_streams">1</property>
  <property name="kdenlive:original.meta.media.0.stream.type">video</property>
  <property name="kdenlive:original.meta.media.0.stream.frame_rate">60</property>
  <property name="kdenlive:original.meta.media.0.stream.sample_aspect_ratio">0</property>
  <property name="kdenlive:original.meta.media.0.codec.width">1920</property>
  <property name="kdenlive:original.meta.media.0.codec.height">1080</property>
  <property name="kdenlive:original.meta.media.0.codec.rotate">0</property>
  <property name="kdenlive:original.meta.media.0.codec.pix_fmt">argb</property>
  <property name="kdenlive:original.meta.media.0.codec.sample_aspect_ratio">0</property>
  <property name="kdenlive:original.meta.media.0.codec.colorspace">709</property>
  <property name="kdenlive:original.meta.media.0.codec.name">qtrle</property>
  <property name="kdenlive:original.meta.media.0.codec.long_name">QuickTime Animation (RLE) video</property>
  <property name="kdenlive:original.meta.media.0.codec.bit_rate">18572456</property>
  <property name="kdenlive:original.meta.attr.0.stream.handler_name.markup">VideoHandler</property>
  <property name="kdenlive:original.meta.attr.0.stream.vendor_id.markup">FFMP</property>
  <property name="kdenlive:original.meta.attr.0.stream.encoder.markup">Lavc60.3.100 qtrle</property>
  <property name="kdenlive:original.meta.attr.major_brand.markup">qt  </property>
  <property name="kdenlive:original.meta.attr.minor_version.markup">512</property>
  <property name="kdenlive:original.meta.attr.compatible_brands.markup">qt  </property>
  <property name="kdenlive:original.meta.attr.encoder.markup">Lavf60.3.100</property>
  <property name="kdenlive:original.meta.attr.comment.markup">Rendered with Manim Community v0.17.3</property>
  <property name="kdenlive:original.seekable">1</property>
  <property name="kdenlive:original.width">1920</property>
  <property name="kdenlive:original.height">1080</property>
  <property name="kdenlive:original.meta.media.sample_aspect_num">1</property>
  <property name="kdenlive:original.meta.media.sample_aspect_den">1</property>
  <property name="kdenlive:original.format">2</property>
  <property name="kdenlive:original.audio_index">-1</property>
  <property name="kdenlive:original.video_index">0</property>
  <property name="kdenlive:original.meta.media.frame_rate_num">60</property>
  <property name="kdenlive:original.meta.media.frame_rate_den">1</property>
  <property name="kdenlive:original.meta.media.colorspace">709</property>
  <property name="kdenlive:original.meta.media.color_trc">2</property>
  <property name="kdenlive:original.meta.media.has_b_frames">0</property>
  <property name="kdenlive:original.meta.media.width">1920</property>
  <property name="kdenlive:original.meta.media.height">1080</property>
  <property name="kdenlive:original.meta.media.color_range">mpeg</property>
  <property name="kdenlive:original.meta.media.top_field_first">0</property>
  <property name="kdenlive:original.meta.media.progressive">1</property>
  <property name="kdenlive:original.kdenlive:clip_type">2</property>
  <property name="kdenlive:original.kdenlive:folderid">244</property>
  <property name="kdenlive:original.kdenlive:id">245</property>
  <property name="kdenlive:original.mute_on_pause">0</property>
  <property name="kdenlive:original.kdenlive:file_size">2322688</property>
  <property name="kdenlive:original.kdenlive:file_hash">8ccc15456dd2067abf06a4528d99c861</property>
  <property name="kdenlive:original.backup">1</property>
  <property name="meta.media.top_field_first">0</property>
  <property name="meta.media.progressive">1</property>
  <property name="kdenlive:file_hash">8ccc15456dd2067abf06a4528d99c861</property>
 </chain>
 <chain id="chain734" out="00:00:00.983">
  <property name="length">60</property>
  <property name="eof">pause</property>
  <property name="resource">video/TransparentFunnyXD/5.mov</property>
  <property name="mlt_service">avformat</property>
  <property name="meta.media.nb_streams">1</property>
  <property name="meta.media.0.stream.type">video</property>
  <property name="meta.media.0.stream.frame_rate">60</property>
  <property name="meta.media.0.stream.sample_aspect_ratio">0</property>
  <property name="meta.media.0.codec.width">1920</property>
  <property name="meta.media.0.codec.height">1080</property>
  <property name="meta.media.0.codec.rotate">0</property>
  <property name="meta.media.0.codec.pix_fmt">argb</property>
  <property name="meta.media.0.codec.sample_aspect_ratio">0</property>
  <property name="meta.media.0.codec.colorspace">709</property>
  <property name="meta.media.0.codec.name">qtrle</property>
  <property name="meta.media.0.codec.long_name">QuickTime Animation (RLE) video</property>
  <property name="meta.media.0.codec.bit_rate">40608280</property>
  <property name="meta.attr.0.stream.handler_name.markup">VideoHandler</property>
  <property name="meta.attr.0.stream.vendor_id.markup">FFMP</property>
  <property name="meta.attr.0.stream.encoder.markup">Lavc60.3.100 qtrle</property>
  <property name="meta.attr.major_brand.markup">qt  </property>
  <property name="meta.attr.minor_version.markup">512</property>
  <property name="meta.attr.compatible_brands.markup">qt  </property>
  <property name="meta.attr.encoder.markup">Lavf60.3.100</property>
  <property name="meta.attr.comment.markup">Rendered with Manim Community v0.17.3</property>
  <property name="seekable">1</property>
  <property name="meta.media.sample_aspect_num">1</property>
  <property name="meta.media.sample_aspect_den">1</property>
  <property name="format">2</property>
  <property name="audio_index">-1</property>
  <property name="video_index">0</property>
  <property name="meta.media.frame_rate_num">60</property>
  <property name="meta.media.frame_rate_den">1</property>
  <property name="meta.media.colorspace">709</property>
  <property name="meta.media.color_trc">2</property>
  <property name="meta.media.has_b_frames">0</property>
  <property name="meta.media.width">1920</property>
  <property name="meta.media.height">1080</property>
  <property name="meta.media.color_range">mpeg</property>
  <property name="kdenlive:clipname">5.mov</property>
  <property name="kdenlive:clip_type">2</property>
  <property name="kdenlive:folderid">244</property>
  <property name="kdenlive:id">249</property>
  <property name="mute_on_pause">0</property>
  <property name="kdenlive:file_size">5077214</property>
  <property name="kdenlive:proxy">-</property>
  <property name="kdenlive:originalurl">video/TransparentFunnyXD/5.mov</property>
  <property name="kdenlive:original.mlt_type">chain</property>
  <property name="kdenlive:original.in">0</property>
  <property name="kdenlive:original.out">00:00:00.983</property>
  <property name="kdenlive:original.length">60</property>
  <property name="kdenlive:original.eof">pause</property>
  <property name="kdenlive:original.resource">video/TransparentFunnyXD/5.mov</property>
  <property name="kdenlive:original.mlt_service">avformat-novalidate</property>
  <property name="kdenlive:original.meta.media.nb_streams">1</property>
  <property name="kdenlive:original.meta.media.0.stream.type">video</property>
  <property name="kdenlive:original.meta.media.0.stream.frame_rate">60</property>
  <property name="kdenlive:original.meta.media.0.stream.sample_aspect_ratio">0</property>
  <property name="kdenlive:original.meta.media.0.codec.width">1920</property>
  <property name="kdenlive:original.meta.media.0.codec.height">1080</property>
  <property name="kdenlive:original.meta.media.0.codec.rotate">0</property>
  <property name="kdenlive:original.meta.media.0.codec.pix_fmt">argb</property>
  <property name="kdenlive:original.meta.media.0.codec.sample_aspect_ratio">0</property>
  <property name="kdenlive:original.meta.media.0.codec.colorspace">709</property>
  <property name="kdenlive:original.meta.media.0.codec.name">qtrle</property>
  <property name="kdenlive:original.meta.media.0.codec.long_name">QuickTime Animation (RLE) video</property>
  <property name="kdenlive:original.meta.media.0.codec.bit_rate">40608280</property>
  <property name="kdenlive:original.meta.attr.0.stream.handler_name.markup">VideoHandler</property>
  <property name="kdenlive:original.meta.attr.0.stream.vendor_id.markup">FFMP</property>
  <property name="kdenlive:original.meta.attr.0.stream.encoder.markup">Lavc60.3.100 qtrle</property>
  <property name="kdenlive:original.meta.attr.major_brand.markup">qt  </property>
  <property name="kdenlive:original.meta.attr.minor_version.markup">512</property>
  <property name="kdenlive:original.meta.attr.compatible_brands.markup">qt  </property>
  <property name="kdenlive:original.meta.attr.encoder.markup">Lavf60.3.100</property>
  <property name="kdenlive:original.meta.attr.comment.markup">Rendered with Manim Community v0.17.3</property>
  <property name="kdenlive:original.seekable">1</property>
  <property name="kdenlive:original.width">1920</property>
  <property name="kdenlive:original.height">1080</property>
  <property name="kdenlive:original.meta.media.sample_aspect_num">1</property>
  <property name="kdenlive:original.meta.media.sample_aspect_den">1</property>
  <property name="kdenlive:original.format">2</property>
  <property name="kdenlive:original.audio_index">-1</property>
  <property name="kdenlive:original.video_index">0</property>
  <property name="kdenlive:original.meta.media.frame_rate_num">60</property>
  <property name="kdenlive:original.meta.media.frame_rate_den">1</property>
  <property name="kdenlive:original.meta.media.colorspace">709</property>
  <property name="kdenlive:original.meta.media.color_trc">2</property>
  <property name="kdenlive:original.meta.media.has_b_frames">0</property>
  <property name="kdenlive:original.meta.media.width">1920</property>
  <property name="kdenlive:original.meta.media.height">1080</property>
  <property name="kdenlive:original.meta.media.color_range">mpeg</property>
  <property name="kdenlive:original.meta.media.top_field_first">0</property>
  <property name="kdenlive:original.meta.media.progressive">1</property>
  <property name="kdenlive:original.kdenlive:clip_type">2</property>
  <property name="kdenlive:original.kdenlive:folderid">244</property>
  <property name="kdenlive:original.kdenlive:id">249</property>
  <property name="kdenlive:original.mute_on_pause">0</property>
  <property name="kdenlive:original.kdenlive:file_size">5077214</property>
  <property name="kdenlive:original.kdenlive:file_hash">0385da6c84b339bca97993d6d9f10edd</property>
  <property name="kdenlive:original.backup">1</property>
  <property name="meta.media.top_field_first">0</property>
  <property name="meta.media.progressive">1</property>
  <property name="kdenlive:file_hash">0385da6c84b339bca97993d6d9f10edd</property>
 </chain>
 <chain id="chain735" out="00:00:01.483">
  <property name="length">90</property>
  <property name="eof">pause</property>
  <property name="resource">video/TransparentFunnyXD/4.mov</property>
  <property name="mlt_service">avformat</property>
  <property name="meta.media.nb_streams">1</property>
  <property name="meta.media.0.stream.type">video</property>
  <property name="meta.media.0.stream.frame_rate">60</property>
  <property name="meta.media.0.stream.sample_aspect_ratio">0</property>
  <property name="meta.media.0.codec.width">1920</property>
  <property name="meta.media.0.codec.height">1080</property>
  <property name="meta.media.0.codec.rotate">0</property>
  <property name="meta.media.0.codec.pix_fmt">argb</property>
  <property name="meta.media.0.codec.sample_aspect_ratio">0</property>
  <property name="meta.media.0.codec.colorspace">709</property>
  <property name="meta.media.0.codec.name">qtrle</property>
  <property name="meta.media.0.codec.long_name">QuickTime Animation (RLE) video</property>
  <property name="meta.media.0.codec.bit_rate">28931098</property>
  <property name="meta.attr.0.stream.handler_name.markup">VideoHandler</property>
  <property name="meta.attr.0.stream.vendor_id.markup">FFMP</property>
  <property name="meta.attr.0.stream.encoder.markup">Lavc60.3.100 qtrle</property>
  <property name="meta.attr.major_brand.markup">qt  </property>
  <property name="meta.attr.minor_version.markup">512</property>
  <property name="meta.attr.compatible_brands.markup">qt  </property>
  <property name="meta.attr.encoder.markup">Lavf60.3.100</property>
  <property name="meta.attr.comment.markup">Rendered with Manim Community v0.17.3</property>
  <property name="seekable">1</property>
  <property name="meta.media.sample_aspect_num">1</property>
  <property name="meta.media.sample_aspect_den">1</property>
  <property name="format">3</property>
  <property name="audio_index">-1</property>
  <property name="video_index">0</property>
  <property name="meta.media.frame_rate_num">60</property>
  <property name="meta.media.frame_rate_den">1</property>
  <property name="meta.media.colorspace">709</property>
  <property name="meta.media.color_trc">2</property>
  <property name="meta.media.has_b_frames">0</property>
  <property name="meta.media.width">1920</property>
  <property name="meta.media.height">1080</property>
  <property name="meta.media.color_range">mpeg</property>
  <property name="kdenlive:clipname">4.mov</property>
  <property name="kdenlive:clip_type">2</property>
  <property name="kdenlive:folderid">244</property>
  <property name="kdenlive:id">248</property>
  <property name="mute_on_pause">0</property>
  <property name="kdenlive:file_size">5425892</property>
  <property name="kdenlive:proxy">-</property>
  <property name="kdenlive:originalurl">video/TransparentFunnyXD/4.mov</property>
  <property name="kdenlive:original.mlt_type">chain</property>
  <property name="kdenlive:original.in">0</property>
  <property name="kdenlive:original.out">00:00:01.483</property>
  <property name="kdenlive:original.length">90</property>
  <property name="kdenlive:original.eof">pause</property>
  <property name="kdenlive:original.resource">video/TransparentFunnyXD/4.mov</property>
  <property name="kdenlive:original.mlt_service">avformat-novalidate</property>
  <property name="kdenlive:original.meta.media.nb_streams">1</property>
  <property name="kdenlive:original.meta.media.0.stream.type">video</property>
  <property name="kdenlive:original.meta.media.0.stream.frame_rate">60</property>
  <property name="kdenlive:original.meta.media.0.stream.sample_aspect_ratio">0</property>
  <property name="kdenlive:original.meta.media.0.codec.width">1920</property>
  <property name="kdenlive:original.meta.media.0.codec.height">1080</property>
  <property name="kdenlive:original.meta.media.0.codec.rotate">0</property>
  <property name="kdenlive:original.meta.media.0.codec.pix_fmt">argb</property>
  <property name="kdenlive:original.meta.media.0.codec.sample_aspect_ratio">0</property>
  <property name="kdenlive:original.meta.media.0.codec.colorspace">709</property>
  <property name="kdenlive:original.meta.media.0.codec.name">qtrle</property>
  <property name="kdenlive:original.meta.media.0.codec.long_name">QuickTime Animation (RLE) video</property>
  <property name="kdenlive:original.meta.media.0.codec.bit_rate">28931098</property>
  <property name="kdenlive:original.meta.attr.0.stream.handler_name.markup">VideoHandler</property>
  <property name="kdenlive:original.meta.attr.0.stream.vendor_id.markup">FFMP</property>
  <property name="kdenlive:original.meta.attr.0.stream.encoder.markup">Lavc60.3.100 qtrle</property>
  <property name="kdenlive:original.meta.attr.major_brand.markup">qt  </property>
  <property name="kdenlive:original.meta.attr.minor_version.markup">512</property>
  <property name="kdenlive:original.meta.attr.compatible_brands.markup">qt  </property>
  <property name="kdenlive:original.meta.attr.encoder.markup">Lavf60.3.100</property>
  <property name="kdenlive:original.meta.attr.comment.markup">Rendered with Manim Community v0.17.3</property>
  <property name="kdenlive:original.seekable">1</property>
  <property name="kdenlive:original.width">1920</property>
  <property name="kdenlive:original.height">1080</property>
  <property name="kdenlive:original.meta.media.sample_aspect_num">1</property>
  <property name="kdenlive:original.meta.media.sample_aspect_den">1</property>
  <property name="kdenlive:original.format">2</property>
  <property name="kdenlive:original.audio_index">-1</property>
  <property name="kdenlive:original.video_index">0</property>
  <property name="kdenlive:original.meta.media.frame_rate_num">60</property>
  <property name="kdenlive:original.meta.media.frame_rate_den">1</property>
  <property name="kdenlive:original.meta.media.colorspace">709</property>
  <property name="kdenlive:original.meta.media.color_trc">2</property>
  <property name="kdenlive:original.meta.media.has_b_frames">0</property>
  <property name="kdenlive:original.meta.media.width">1920</property>
  <property name="kdenlive:original.meta.media.height">1080</property>
  <property name="kdenlive:original.meta.media.color_range">mpeg</property>
  <property name="kdenlive:original.meta.media.top_field_first">0</property>
  <property name="kdenlive:original.meta.media.progressive">1</property>
  <property name="kdenlive:original.kdenlive:clip_type">2</property>
  <property name="kdenlive:original.kdenlive:folderid">244</property>
  <property name="kdenlive:original.kdenlive:id">248</property>
  <property name="kdenlive:original.mute_on_pause">0</property>
  <property name="kdenlive:original.kdenlive:file_size">5425892</property>
  <property name="kdenlive:original.kdenlive:file_hash">3df92ecedc29383803d70d67d940ab51</property>
  <property name="kdenlive:original.backup">1</property>
  <property name="meta.media.top_field_first">0</property>
  <property name="meta.media.progressive">1</property>
  <property name="kdenlive:file_hash">3df92ecedc29383803d70d67d940ab51</property>
 </chain>
 <chain id="chain736" out="00:00:01.983">
  <property name="length">120</property>
  <property name="eof">pause</property>
  <property name="resource">video/TransparentFunnyXD/2.mov</property>
  <property name="mlt_service">avformat</property>
  <property name="meta.media.nb_streams">1</property>
  <property name="meta.media.0.stream.type">video</property>
  <property name="meta.media.0.stream.frame_rate">60</property>
  <property name="meta.media.0.stream.sample_aspect_ratio">0</property>
  <property name="meta.media.0.codec.width">1920</property>
  <property name="meta.media.0.codec.height">1080</property>
  <property name="meta.media.0.codec.rotate">0</property>
  <property name="meta.media.0.codec.pix_fmt">argb</property>
  <property name="meta.media.0.codec.sample_aspect_ratio">0</property>
  <property name="meta.media.0.codec.colorspace">709</property>
  <property name="meta.media.0.codec.name">qtrle</property>
  <property name="meta.media.0.codec.long_name">QuickTime Animation (RLE) video</property>
  <property name="meta.media.0.codec.bit_rate">18999744</property>
  <property name="meta.attr.0.stream.handler_name.markup">VideoHandler</property>
  <property name="meta.attr.0.stream.vendor_id.markup">FFMP</property>
  <property name="meta.attr.0.stream.encoder.markup">Lavc60.3.100 qtrle</property>
  <property name="meta.attr.major_brand.markup">qt  </property>
  <property name="meta.attr.minor_version.markup">512</property>
  <property name="meta.attr.compatible_brands.markup">qt  </property>
  <property name="meta.attr.encoder.markup">Lavf60.3.100</property>
  <property name="meta.attr.comment.markup">Rendered with Manim Community v0.17.3</property>
  <property name="seekable">1</property>
  <property name="meta.media.sample_aspect_num">1</property>
  <property name="meta.media.sample_aspect_den">1</property>
  <property name="format">3</property>
  <property name="audio_index">-1</property>
  <property name="video_index">0</property>
  <property name="meta.media.frame_rate_num">60</property>
  <property name="meta.media.frame_rate_den">1</property>
  <property name="meta.media.colorspace">709</property>
  <property name="meta.media.color_trc">2</property>
  <property name="meta.media.has_b_frames">0</property>
  <property name="meta.media.width">1920</property>
  <property name="meta.media.height">1080</property>
  <property name="meta.media.color_range">mpeg</property>
  <property name="kdenlive:clipname">2.mov</property>
  <property name="kdenlive:clip_type">2</property>
  <property name="kdenlive:folderid">244</property>
  <property name="kdenlive:id">246</property>
  <property name="mute_on_pause">0</property>
  <property name="kdenlive:file_size">4751359</property>
  <property name="kdenlive:proxy">-</property>
  <property name="kdenlive:originalurl">video/TransparentFunnyXD/2.mov</property>
  <property name="kdenlive:original.mlt_type">chain</property>
  <property name="kdenlive:original.in">0</property>
  <property name="kdenlive:original.out">00:00:01.983</property>
  <property name="kdenlive:original.length">120</property>
  <property name="kdenlive:original.eof">pause</property>
  <property name="kdenlive:original.resource">video/TransparentFunnyXD/2.mov</property>
  <property name="kdenlive:original.mlt_service">avformat-novalidate</property>
  <property name="kdenlive:original.meta.media.nb_streams">1</property>
  <property name="kdenlive:original.meta.media.0.stream.type">video</property>
  <property name="kdenlive:original.meta.media.0.stream.frame_rate">60</property>
  <property name="kdenlive:original.meta.media.0.stream.sample_aspect_ratio">0</property>
  <property name="kdenlive:original.meta.media.0.codec.width">1920</property>
  <property name="kdenlive:original.meta.media.0.codec.height">1080</property>
  <property name="kdenlive:original.meta.media.0.codec.rotate">0</property>
  <property name="kdenlive:original.meta.media.0.codec.pix_fmt">argb</property>
  <property name="kdenlive:original.meta.media.0.codec.sample_aspect_ratio">0</property>
  <property name="kdenlive:original.meta.media.0.codec.colorspace">709</property>
  <property name="kdenlive:original.meta.media.0.codec.name">qtrle</property>
  <property name="kdenlive:original.meta.media.0.codec.long_name">QuickTime Animation (RLE) video</property>
  <property name="kdenlive:original.meta.media.0.codec.bit_rate">18999744</property>
  <property name="kdenlive:original.meta.attr.0.stream.handler_name.markup">VideoHandler</property>
  <property name="kdenlive:original.meta.attr.0.stream.vendor_id.markup">FFMP</property>
  <property name="kdenlive:original.meta.attr.0.stream.encoder.markup">Lavc60.3.100 qtrle</property>
  <property name="kdenlive:original.meta.attr.major_brand.markup">qt  </property>
  <property name="kdenlive:original.meta.attr.minor_version.markup">512</property>
  <property name="kdenlive:original.meta.attr.compatible_brands.markup">qt  </property>
  <property name="kdenlive:original.meta.attr.encoder.markup">Lavf60.3.100</property>
  <property name="kdenlive:original.meta.attr.comment.markup">Rendered with Manim Community v0.17.3</property>
  <property name="kdenlive:original.seekable">1</property>
  <property name="kdenlive:original.width">1920</property>
  <property name="kdenlive:original.height">1080</property>
  <property name="kdenlive:original.meta.media.sample_aspect_num">1</property>
  <property name="kdenlive:original.meta.media.sample_aspect_den">1</property>
  <property name="kdenlive:original.format">2</property>
  <property name="kdenlive:original.audio_index">-1</property>
  <property name="kdenlive:original.video_index">0</property>
  <property name="kdenlive:original.meta.media.frame_rate_num">60</property>
  <property name="kdenlive:original.meta.media.frame_rate_den">1</property>
  <property name="kdenlive:original.meta.media.colorspace">709</property>
  <property name="kdenlive:original.meta.media.color_trc">2</property>
  <property name="kdenlive:original.meta.media.has_b_frames">0</property>
  <property name="kdenlive:original.meta.media.width">1920</property>
  <property name="kdenlive:original.meta.media.height">1080</property>
  <property name="kdenlive:original.meta.media.color_range">mpeg</property>
  <property name="kdenlive:original.meta.media.top_field_first">0</property>
  <property name="kdenlive:original.meta.media.progressive">1</property>
  <property name="kdenlive:original.kdenlive:clip_type">2</property>
  <property name="kdenlive:original.kdenlive:folderid">244</property>
  <property name="kdenlive:original.kdenlive:id">246</property>
  <property name="kdenlive:original.mute_on_pause">0</property>
  <property name="kdenlive:original.kdenlive:file_size">4751359</property>
  <property name="kdenlive:original.kdenlive:file_hash">dbe02c396e87968e8a8cabe4f6efc5b3</property>
  <property name="kdenlive:original.backup">1</property>
  <property name="meta.media.top_field_first">0</property>
  <property name="meta.media.progressive">1</property>
  <property name="kdenlive:file_hash">dbe02c396e87968e8a8cabe4f6efc5b3</property>
 </chain>
 <chain id="chain737" out="00:00:01.983">
  <property name="length">120</property>
  <property name="eof">pause</property>
  <property name="resource">video/TransparentFunnyXD/3.mov</property>
  <property name="mlt_service">avformat</property>
  <property name="meta.media.nb_streams">1</property>
  <property name="meta.media.0.stream.type">video</property>
  <property name="meta.media.0.stream.frame_rate">60</property>
  <property name="meta.media.0.stream.sample_aspect_ratio">0</property>
  <property name="meta.media.0.codec.width">1920</property>
  <property name="meta.media.0.codec.height">1080</property>
  <property name="meta.media.0.codec.rotate">0</property>
  <property name="meta.media.0.codec.pix_fmt">argb</property>
  <property name="meta.media.0.codec.sample_aspect_ratio">0</property>
  <property name="meta.media.0.codec.colorspace">709</property>
  <property name="meta.media.0.codec.name">qtrle</property>
  <property name="meta.media.0.codec.long_name">QuickTime Animation (RLE) video</property>
  <property name="meta.media.0.codec.bit_rate">20525380</property>
  <property name="meta.attr.0.stream.handler_name.markup">VideoHandler</property>
  <property name="meta.attr.0.stream.vendor_id.markup">FFMP</property>
  <property name="meta.attr.0.stream.encoder.markup">Lavc60.3.100 qtrle</property>
  <property name="meta.attr.major_brand.markup">qt  </property>
  <property name="meta.attr.minor_version.markup">512</property>
  <property name="meta.attr.compatible_brands.markup">qt  </property>
  <property name="meta.attr.encoder.markup">Lavf60.3.100</property>
  <property name="meta.attr.comment.markup">Rendered with Manim Community v0.17.3</property>
  <property name="seekable">1</property>
  <property name="meta.media.sample_aspect_num">1</property>
  <property name="meta.media.sample_aspect_den">1</property>
  <property name="format">3</property>
  <property name="audio_index">-1</property>
  <property name="video_index">0</property>
  <property name="meta.media.frame_rate_num">60</property>
  <property name="meta.media.frame_rate_den">1</property>
  <property name="meta.media.colorspace">709</property>
  <property name="meta.media.color_trc">2</property>
  <property name="meta.media.has_b_frames">0</property>
  <property name="meta.media.width">1920</property>
  <property name="meta.media.height">1080</property>
  <property name="meta.media.color_range">mpeg</property>
  <property name="kdenlive:clipname">3.mov</property>
  <property name="kdenlive:clip_type">2</property>
  <property name="kdenlive:folderid">244</property>
  <property name="kdenlive:id">247</property>
  <property name="mute_on_pause">0</property>
  <property name="kdenlive:file_size">5132772</property>
  <property name="kdenlive:proxy">-</property>
  <property name="kdenlive:originalurl">video/TransparentFunnyXD/3.mov</property>
  <property name="kdenlive:original.mlt_type">chain</property>
  <property name="kdenlive:original.in">0</property>
  <property name="kdenlive:original.out">00:00:01.983</property>
  <property name="kdenlive:original.length">120</property>
  <property name="kdenlive:original.eof">pause</property>
  <property name="kdenlive:original.resource">video/TransparentFunnyXD/3.mov</property>
  <property name="kdenlive:original.mlt_service">avformat-novalidate</property>
  <property name="kdenlive:original.meta.media.nb_streams">1</property>
  <property name="kdenlive:original.meta.media.0.stream.type">video</property>
  <property name="kdenlive:original.meta.media.0.stream.frame_rate">60</property>
  <property name="kdenlive:original.meta.media.0.stream.sample_aspect_ratio">0</property>
  <property name="kdenlive:original.meta.media.0.codec.width">1920</property>
  <property name="kdenlive:original.meta.media.0.codec.height">1080</property>
  <property name="kdenlive:original.meta.media.0.codec.rotate">0</property>
  <property name="kdenlive:original.meta.media.0.codec.pix_fmt">argb</property>
  <property name="kdenlive:original.meta.media.0.codec.sample_aspect_ratio">0</property>
  <property name="kdenlive:original.meta.media.0.codec.colorspace">709</property>
  <property name="kdenlive:original.meta.media.0.codec.name">qtrle</property>
  <property name="kdenlive:original.meta.media.0.codec.long_name">QuickTime Animation (RLE) video</property>
  <property name="kdenlive:original.meta.media.0.codec.bit_rate">20525380</property>
  <property name="kdenlive:original.meta.attr.0.stream.handler_name.markup">VideoHandler</property>
  <property name="kdenlive:original.meta.attr.0.stream.vendor_id.markup">FFMP</property>
  <property name="kdenlive:original.meta.attr.0.stream.encoder.markup">Lavc60.3.100 qtrle</property>
  <property name="kdenlive:original.meta.attr.major_brand.markup">qt  </property>
  <property name="kdenlive:original.meta.attr.minor_version.markup">512</property>
  <property name="kdenlive:original.meta.attr.compatible_brands.markup">qt  </property>
  <property name="kdenlive:original.meta.attr.encoder.markup">Lavf60.3.100</property>
  <property name="kdenlive:original.meta.attr.comment.markup">Rendered with Manim Community v0.17.3</property>
  <property name="kdenlive:original.seekable">1</property>
  <property name="kdenlive:original.width">1920</property>
  <property name="kdenlive:original.height">1080</property>
  <property name="kdenlive:original.meta.media.sample_aspect_num">1</property>
  <property name="kdenlive:original.meta.media.sample_aspect_den">1</property>
  <property name="kdenlive:original.format">2</property>
  <property name="kdenlive:original.audio_index">-1</property>
  <property name="kdenlive:original.video_index">0</property>
  <property name="kdenlive:original.meta.media.frame_rate_num">60</property>
  <property name="kdenlive:original.meta.media.frame_rate_den">1</property>
  <property name="kdenlive:original.meta.media.colorspace">709</property>
  <property name="kdenlive:original.meta.media.color_trc">2</property>
  <property name="kdenlive:original.meta.media.has_b_frames">0</property>
  <property name="kdenlive:original.meta.media.width">1920</property>
  <property name="kdenlive:original.meta.media.height">1080</property>
  <property name="kdenlive:original.meta.media.color_range">mpeg</property>
  <property name="kdenlive:original.meta.media.top_field_first">0</property>
  <property name="kdenlive:original.meta.media.progressive">1</property>
  <property name="kdenlive:original.kdenlive:clip_type">2</property>
  <property name="kdenlive:original.kdenlive:folderid">244</property>
  <property name="kdenlive:original.kdenlive:id">247</property>
  <property name="kdenlive:original.mute_on_pause">0</property>
  <property name="kdenlive:original.kdenlive:file_size">5132772</property>
  <property name="kdenlive:original.kdenlive:file_hash">7dc5f92b7e0831f11d7d824aba458eef</property>
  <property name="kdenlive:original.backup">1</property>
  <property name="meta.media.top_field_first">0</property>
  <property name="meta.media.progressive">1</property>
  <property name="kdenlive:file_hash">7dc5f92b7e0831f11d7d824aba458eef</property>
 </chain>
 <producer id="producer20" in="00:00:00.000" out="00:00:04.983">
  <property name="length">00:00:05.000</property>
  <property name="eof">pause</property>
  <property name="resource">assets/black.png</property>
  <property name="ttl">25</property>
  <property name="aspect_ratio">1</property>
  <property name="progressive">1</property>
  <property name="seekable">1</property>
  <property name="format">2</property>
  <property name="meta.media.width">260</property>
  <property name="meta.media.height">260</property>
  <property name="mlt_service">qimage</property>
  <property name="kdenlive:clipname"/>
  <property name="kdenlive:duration">00:00:05:00</property>
  <property name="kdenlive:folderid">597</property>
  <property name="kdenlive:id">598</property>
  <property name="kdenlive:clip_type">2</property>
  <property name="kdenlive:file_size">919</property>
  <property name="kdenlive:file_hash">4bdf04d5d7dbcdf4a43109e6dbfe78ec</property>
 </producer>
 <producer id="producer21" in="00:00:00.000" out="00:00:04.983">
  <property name="length">00:00:05.000</property>
  <property name="eof">pause</property>
  <property name="resource">assets/dantzig-border.png</property>
  <property name="ttl">25</property>
  <property name="aspect_ratio">1</property>
  <property name="progressive">1</property>
  <property name="seekable">1</property>
  <property name="format">2</property>
  <property name="meta.media.width">568</property>
  <property name="meta.media.height">801</property>
  <property name="mlt_service">qimage</property>
  <property name="kdenlive:clipname"/>
  <property name="kdenlive:duration">00:00:05:00</property>
  <property name="kdenlive:folderid">597</property>
  <property name="kdenlive:id">599</property>
  <property name="kdenlive:clip_type">2</property>
  <property name="kdenlive:file_size">267767</property>
  <property name="kdenlive:file_hash">240aa91411c803fcae5e3c2e33a8f0e0</property>
 </producer>
 <producer id="producer22" in="00:00:00.000" out="00:00:04.983">
  <property name="length">00:00:05.000</property>
  <property name="eof">pause</property>
  <property name="resource">assets/dantzig.jpg</property>
  <property name="ttl">25</property>
  <property name="aspect_ratio">1</property>
  <property name="progressive">1</property>
  <property name="seekable">1</property>
  <property name="format">1</property>
  <property name="meta.media.width">416</property>
  <property name="meta.media.height">595</property>
  <property name="mlt_service">qimage</property>
  <property name="kdenlive:clipname"/>
  <property name="kdenlive:duration">00:00:05:00</property>
  <property name="kdenlive:folderid">597</property>
  <property name="kdenlive:id">600</property>
  <property name="kdenlive:clip_type">2</property>
  <property name="kdenlive:file_size">46516</property>
  <property name="kdenlive:file_hash">2ad16340540f35011f51e1db79dfaf18</property>
 </producer>
 <producer id="producer23" in="00:00:00.000" out="00:00:04.983">
  <property name="length">00:00:05.000</property>
  <property name="eof">pause</property>
  <property name="resource">assets/eq.svg</property>
  <property name="ttl">25</property>
  <property name="aspect_ratio">1</property>
  <property name="progressive">1</property>
  <property name="seekable">1</property>
  <property name="format">2</property>
  <property name="meta.media.width">7</property>
  <property name="meta.media.height">4</property>
  <property name="mlt_service">qimage</property>
  <property name="kdenlive:clipname"/>
  <property name="kdenlive:duration">00:00:05:00</property>
  <property name="kdenlive:folderid">597</property>
  <property name="kdenlive:id">601</property>
  <property name="kdenlive:clip_type">2</property>
  <property name="kdenlive:file_size">2740</property>
  <property name="kdenlive:file_hash">b5247f931b4aaa731ff5c219344aec7d</property>
 </producer>
 <chain id="chain738" out="00:04:09.983">
  <property name="length">15000</property>
  <property name="eof">pause</property>
  <property name="resource">assets/g.txt</property>
  <property name="mlt_service">qtext</property>
  <property name="text">2 1 &lt;24.353082425030887, 24.791017627356357> &lt;25.538386616128214, 31.238827383916338>
2 3 &lt;24.353082425030887, 24.791017627356357> &lt;33.01684945640631, 31.043076672652905>
3 4 &lt;33.01684945640631, 31.043076672652905> &lt;35.973750366198914, 26.581442325124655>
5 4 &lt;31.232094524645106, 22.58627727854163> &lt;35.973750366198914, 26.581442325124655>
2 5 &lt;24.353082425030887, 24.791017627356357> &lt;31.232094524645106, 22.58627727854163>
5 6 &lt;31.232094524645106, 22.58627727854163> &lt;40.92403717130922, 22.98796160370069>
6 7 &lt;40.92403717130922, 22.98796160370069> &lt;41.33403685633326, 29.095376776178288>
8 1 &lt;30.11540987424597, 36.49673939348361> &lt;25.538386616128214, 31.238827383916338>
9 7 &lt;39.02541459502186, 36.758792627069035> &lt;41.33403685633326, 29.095376776178288>
9 10 &lt;39.02541459502186, 36.758792627069035> &lt;46.104011349210055, 32.953823988142354>
7 10 &lt;41.33403685633326, 29.095376776178288> &lt;46.104011349210055, 32.953823988142354>
11 2 &lt;17.752923801057904, 29.297137252042905> &lt;24.353082425030887, 24.791017627356357>
11 12 &lt;17.752923801057904, 29.297137252042905> &lt;21.639470019712082, 34.74125242244591>
12 8 &lt;21.639470019712082, 34.74125242244591> &lt;30.11540987424597, 36.49673939348361>
8 9 &lt;30.11540987424597, 36.49673939348361> &lt;39.02541459502186, 36.758792627069035>
1 3 &lt;25.538386616128214, 31.238827383916338> &lt;33.01684945640631, 31.043076672652905>
3 9 &lt;33.01684945640631, 31.043076672652905> &lt;39.02541459502186, 36.758792627069035>
4 6 &lt;35.973750366198914, 26.581442325124655> &lt;40.92403717130922, 22.98796160370069>
6 13 &lt;40.92403717130922, 22.98796160370069> &lt;45.71906945245444, 26.275570510478676>
13 10 &lt;45.71906945245444, 26.275570510478676> &lt;46.104011349210055, 32.953823988142354>
13 14 &lt;45.71906945245444, 26.275570510478676> &lt;50.7192697948004, 30.024918289213105>
10 14 &lt;46.104011349210055, 32.953823988142354> &lt;50.7192697948004, 30.024918289213105></property>
  <property name="fgcolour">0xffffffff</property>
  <property name="bgcolour">0x00000000</property>
  <property name="olcolour">0x00000000</property>
  <property name="outline">0</property>
  <property name="align">left</property>
  <property name="pad">0</property>
  <property name="family">Sans</property>
  <property name="size">48</property>
  <property name="style">normal</property>
  <property name="weight">400</property>
  <property name="encoding">UTF-8</property>
  <property name="meta.media.width">2198</property>
  <property name="meta.media.height">1432</property>
  <property name="kdenlive:clipname"/>
  <property name="kdenlive:folderid">597</property>
  <property name="kdenlive:id">602</property>
  <property name="kdenlive:duration">00:04:10.000</property>
  <property name="kdenlive:clip_type">2</property>
  <property name="kdenlive:file_hash">fafb321c53d62510ac20c253577d0dff</property>
 </chain>
 <producer id="producer24" in="00:00:00.000" out="00:00:04.983">
  <property name="length">00:00:05.000</property>
  <property name="eof">pause</property>
  <property name="resource">assets/iff.svg</property>
  <property name="ttl">25</property>
  <property name="aspect_ratio">1</property>
  <property name="progressive">1</property>
  <property name="seekable">1</property>
  <property name="format">2</property>
  <property name="meta.media.width">321</property>
  <property name="meta.media.height">124</property>
  <property name="mlt_service">qimage</property>
  <property name="kdenlive:clipname"/>
  <property name="kdenlive:duration">00:00:05:00</property>
  <property name="kdenlive:folderid">597</property>
  <property name="kdenlive:id">604</property>
  <property name="kdenlive:clip_type">2</property>
  <property name="kdenlive:file_size">3488</property>
  <property name="kdenlive:file_hash">64c8e6c9c21d625c895c5b5fcf76b95a</property>
 </producer>
 <producer id="producer25" in="00:00:00.000" out="00:00:04.983">
  <property name="length">00:00:05.000</property>
  <property name="eof">pause</property>
  <property name="resource">assets/kantorovich.jpg</property>
  <property name="ttl">25</property>
  <property name="aspect_ratio">1</property>
  <property name="progressive">1</property>
  <property name="seekable">1</property>
  <property name="format">1</property>
  <property name="meta.media.width">520</property>
  <property name="meta.media.height">670</property>
  <property name="mlt_service">qimage</property>
  <property name="kdenlive:clipname"/>
  <property name="kdenlive:duration">00:00:05:00</property>
  <property name="kdenlive:folderid">597</property>
  <property name="kdenlive:id">605</property>
  <property name="kdenlive:clip_type">2</property>
  <property name="kdenlive:file_size">104814</property>
  <property name="kdenlive:file_hash">899ae41d729be2cb2735197667c1a6e0</property>
 </producer>
 <producer id="producer26" in="00:00:00.000" out="00:00:04.983">
  <property name="length">00:00:05.000</property>
  <property name="eof">pause</property>
  <property name="resource">assets/koopmans.jpg</property>
  <property name="ttl">25</property>
  <property name="aspect_ratio">1</property>
  <property name="progressive">1</property>
  <property name="seekable">1</property>
  <property name="format">1</property>
  <property name="meta.media.width">496</property>
  <property name="meta.media.height">744</property>
  <property name="mlt_service">qimage</property>
  <property name="kdenlive:clipname"/>
  <property name="kdenlive:duration">00:00:05:00</property>
  <property name="kdenlive:folderid">597</property>
  <property name="kdenlive:id">606</property>
  <property name="kdenlive:clip_type">2</property>
  <property name="kdenlive:file_size">86048</property>
  <property name="kdenlive:file_hash">2f5564e4ea08e351207f53a55a7e2222</property>
 </producer>
 <producer id="producer27" in="00:00:00.000" out="00:00:04.983">
  <property name="length">00:00:05.000</property>
  <property name="eof">pause</property>
  <property name="resource">assets/l_char.svg</property>
  <property name="ttl">25</property>
  <property name="aspect_ratio">1</property>
  <property name="progressive">1</property>
  <property name="seekable">1</property>
  <property name="format">2</property>
  <property name="meta.media.width">75</property>
  <property name="meta.media.height">96</property>
  <property name="mlt_service">qimage</property>
  <property name="kdenlive:clipname"/>
  <property name="kdenlive:duration">00:00:05:00</property>
  <property name="kdenlive:folderid">597</property>
  <property name="kdenlive:id">607</property>
  <property name="kdenlive:clip_type">2</property>
  <property name="kdenlive:file_size">2679</property>
  <property name="kdenlive:file_hash">b1f405e2fd2e14f5d4fff05de120bc9b</property>
 </producer>
 <producer id="producer28" in="00:00:00.000" out="00:00:04.983">
  <property name="length">00:00:05.000</property>
  <property name="eof">pause</property>
  <property name="resource">assets/leq.svg</property>
  <property name="ttl">25</property>
  <property name="aspect_ratio">1</property>
  <property name="progressive">1</property>
  <property name="seekable">1</property>
  <property name="format">2</property>
  <property name="meta.media.width">7</property>
  <property name="meta.media.height">9</property>
  <property name="mlt_service">qimage</property>
  <property name="kdenlive:clipname"/>
  <property name="kdenlive:duration">00:00:05:00</property>
  <property name="kdenlive:folderid">597</property>
  <property name="kdenlive:id">608</property>
  <property name="kdenlive:clip_type">2</property>
  <property name="kdenlive:file_size">2637</property>
  <property name="kdenlive:file_hash">1a3d4684a791f646a36bd0725f710c6d</property>
 </producer>
 <producer id="producer29" in="00:00:00.000" out="00:00:04.983">
  <property name="length">00:00:05.000</property>
  <property name="eof">pause</property>
  <property name="resource">assets/pause-hint-wip.svg</property>
  <property name="ttl">25</property>
  <property name="aspect_ratio">1</property>
  <property name="progressive">1</property>
  <property name="seekable">1</property>
  <property name="format">2</property>
  <property name="meta.media.width">801</property>
  <property name="meta.media.height">801</property>
  <property name="mlt_service">qimage</property>
  <property name="kdenlive:clipname"/>
  <property name="kdenlive:duration">00:00:05:00</property>
  <property name="kdenlive:folderid">597</property>
  <property name="kdenlive:id">609</property>
  <property name="kdenlive:clip_type">2</property>
  <property name="kdenlive:file_size">9734</property>
  <property name="kdenlive:file_hash">0b79846c939b87fb4083d07c19efd285</property>
 </producer>
 <producer id="producer30" in="00:00:00.000" out="00:00:04.983">
  <property name="length">00:00:05.000</property>
  <property name="eof">pause</property>
  <property name="resource">assets/pause-hint.svg</property>
  <property name="ttl">25</property>
  <property name="aspect_ratio">1</property>
  <property name="progressive">1</property>
  <property name="seekable">1</property>
  <property name="format">2</property>
  <property name="meta.media.width">361</property>
  <property name="meta.media.height">547</property>
  <property name="mlt_service">qimage</property>
  <property name="kdenlive:clipname"/>
  <property name="kdenlive:duration">00:00:05:00</property>
  <property name="kdenlive:folderid">597</property>
  <property name="kdenlive:id">610</property>
  <property name="kdenlive:clip_type">2</property>
  <property name="kdenlive:file_size">6185</property>
  <property name="kdenlive:file_hash">afa4cb3ce60f3a2db3b0698bfe187a27</property>
 </producer>
 <producer id="producer31" in="00:00:00.000" out="00:00:04.983">
  <property name="length">00:00:05.000</property>
  <property name="eof">pause</property>
  <property name="resource">assets/pause.png</property>
  <property name="ttl">25</property>
  <property name="aspect_ratio">1</property>
  <property name="progressive">1</property>
  <property name="seekable">1</property>
  <property name="format">2</property>
  <property name="meta.media.width">512</property>
  <property name="meta.media.height">512</property>
  <property name="mlt_service">qimage</property>
  <property name="kdenlive:clipname"/>
  <property name="kdenlive:duration">00:00:05:00</property>
  <property name="kdenlive:folderid">597</property>
  <property name="kdenlive:id">611</property>
  <property name="kdenlive:clip_type">2</property>
  <property name="kdenlive:file_size">2567</property>
  <property name="kdenlive:file_hash">5c516af0f24ac6c40121a751e827e2b3</property>
 </producer>
 <producer id="producer32" in="00:00:00.000" out="00:00:04.983">
  <property name="length">00:00:05.000</property>
  <property name="eof">pause</property>
  <property name="resource">assets/pause.svg</property>
  <property name="ttl">25</property>
  <property name="aspect_ratio">1</property>
  <property name="progressive">1</property>
  <property name="seekable">1</property>
  <property name="format">2</property>
  <property name="meta.media.width">841</property>
  <property name="meta.media.height">841</property>
  <property name="mlt_service">qimage</property>
  <property name="kdenlive:clipname"/>
  <property name="kdenlive:duration">00:00:05:00</property>
  <property name="kdenlive:folderid">597</property>
  <property name="kdenlive:id">612</property>
  <property name="kdenlive:clip_type">2</property>
  <property name="kdenlive:file_size">2376</property>
  <property name="kdenlive:file_hash">30417a2b146863d93deb99835fbdf4c0</property>
 </producer>
 <producer id="producer33" in="00:00:00.000" out="00:00:04.983">
  <property name="length">00:00:05.000</property>
  <property name="eof">pause</property>
  <property name="resource">assets/r_char.svg</property>
  <property name="ttl">25</property>
  <property name="aspect_ratio">1</property>
  <property name="progressive">1</property>
  <property name="seekable">1</property>
  <property name="format">2</property>
  <property name="meta.media.width">67</property>
  <property name="meta.media.height">93</property>
  <property name="mlt_service">qimage</property>
  <property name="kdenlive:clipname"/>
  <property name="kdenlive:duration">00:00:05:00</property>
  <property name="kdenlive:folderid">597</property>
  <property name="kdenlive:id">613</property>
  <property name="kdenlive:clip_type">2</property>
  <property name="kdenlive:file_size">2391</property>
  <property name="kdenlive:file_hash">576341eb775b05e7f8da276e57e499ee</property>
 </producer>
 <producer id="producer34" in="00:00:00.000" out="00:00:04.983">
  <property name="length">00:00:05.000</property>
  <property name="eof">pause</property>
  <property name="resource">assets/thingy.png</property>
  <property name="ttl">25</property>
  <property name="aspect_ratio">1</property>
  <property name="progressive">1</property>
  <property name="seekable">1</property>
  <property name="format">2</property>
  <property name="meta.media.width">4000</property>
  <property name="meta.media.height">2000</property>
  <property name="mlt_service">qimage</property>
  <property name="kdenlive:clipname"/>
  <property name="kdenlive:duration">00:00:05:00</property>
  <property name="kdenlive:folderid">597</property>
  <property name="kdenlive:id">615</property>
  <property name="kdenlive:clip_type">2</property>
  <property name="kdenlive:file_size">916349</property>
  <property name="kdenlive:file_hash">97dd193ee4c6462e4991266f14e48068</property>
 </producer>
 <producer id="producer35" in="00:00:00.000" out="00:00:04.983">
  <property name="length">00:00:05.000</property>
  <property name="eof">pause</property>
  <property name="resource">assets/transcendence.png</property>
  <property name="ttl">25</property>
  <property name="aspect_ratio">1</property>
  <property name="progressive">1</property>
  <property name="seekable">1</property>
  <property name="format">1</property>
  <property name="meta.media.width">1024</property>
  <property name="meta.media.height">1024</property>
  <property name="mlt_service">qimage</property>
  <property name="kdenlive:clipname"/>
  <property name="kdenlive:duration">00:00:05:00</property>
  <property name="kdenlive:folderid">597</property>
  <property name="kdenlive:id">617</property>
  <property name="kdenlive:clip_type">2</property>
  <property name="kdenlive:file_size">1816800</property>
  <property name="kdenlive:file_hash">21627c07c381217c03dd0500e050f1f2</property>
 </producer>
 <producer id="producer36" in="00:00:00.000" out="00:00:04.983">
  <property name="length">00:00:05.000</property>
  <property name="eof">pause</property>
  <property name="resource">assets/transcendence2.png</property>
  <property name="ttl">25</property>
  <property name="aspect_ratio">1</property>
  <property name="progressive">1</property>
  <property name="seekable">1</property>
  <property name="format">1</property>
  <property name="meta.media.width">1456</property>
  <property name="meta.media.height">816</property>
  <property name="mlt_service">qimage</property>
  <property name="kdenlive:clipname"/>
  <property name="kdenlive:duration">00:00:05:00</property>
  <property name="kdenlive:folderid">597</property>
  <property name="kdenlive:id">618</property>
  <property name="kdenlive:clip_type">2</property>
  <property name="kdenlive:file_size">1915728</property>
  <property name="kdenlive:file_hash">2a5d1e53c641b9d821a0c2c4b8c20266</property>
 </producer>
 <producer id="producer37" in="00:00:00.000" out="00:00:04.983">
  <property name="length">00:00:05.000</property>
  <property name="eof">pause</property>
  <property name="resource">assets/midjourney/carrot-cropped-flopped.png</property>
  <property name="ttl">25</property>
  <property name="aspect_ratio">1</property>
  <property name="progressive">1</property>
  <property name="seekable">1</property>
  <property name="format">2</property>
  <property name="meta.media.width">1094</property>
  <property name="meta.media.height">1249</property>
  <property name="mlt_service">qimage</property>
  <property name="kdenlive:clipname"/>
  <property name="kdenlive:duration">00:00:05:00</property>
  <property name="kdenlive:folderid">619</property>
  <property name="kdenlive:id">620</property>
  <property name="kdenlive:clip_type">2</property>
  <property name="kdenlive:file_size">573486</property>
  <property name="kdenlive:file_hash">f281c93168f31b50e8c5aa34e8e4a389</property>
 </producer>
 <producer id="producer38" in="00:00:00.000" out="00:00:04.983">
  <property name="length">00:00:05.000</property>
  <property name="eof">pause</property>
  <property name="resource">assets/midjourney/carrot-cropped.png</property>
  <property name="ttl">25</property>
  <property name="aspect_ratio">1</property>
  <property name="progressive">1</property>
  <property name="seekable">1</property>
  <property name="format">2</property>
  <property name="meta.media.width">1094</property>
  <property name="meta.media.height">1249</property>
  <property name="mlt_service">qimage</property>
  <property name="kdenlive:clipname"/>
  <property name="kdenlive:duration">00:00:05:00</property>
  <property name="kdenlive:folderid">619</property>
  <property name="kdenlive:id">621</property>
  <property name="kdenlive:clip_type">2</property>
  <property name="kdenlive:file_size">585919</property>
  <property name="kdenlive:file_hash">5bd6e687dc79209742ea02a8370ea24e</property>
 </producer>
 <producer id="producer39" in="00:00:00.000" out="00:00:04.983">
  <property name="length">00:00:05.000</property>
  <property name="eof">pause</property>
  <property name="resource">assets/midjourney/carrot.png</property>
  <property name="ttl">25</property>
  <property name="aspect_ratio">1</property>
  <property name="progressive">1</property>
  <property name="seekable">1</property>
  <property name="format">1</property>
  <property name="meta.media.width">1536</property>
  <property name="meta.media.height">1536</property>
  <property name="mlt_service">qimage</property>
  <property name="kdenlive:clipname"/>
  <property name="kdenlive:duration">00:00:05:00</property>
  <property name="kdenlive:folderid">619</property>
  <property name="kdenlive:id">622</property>
  <property name="kdenlive:clip_type">2</property>
  <property name="kdenlive:file_size">1148112</property>
  <property name="kdenlive:file_hash">265d7ce816a2a1e8337d385aac5bc61e</property>
 </producer>
 <producer id="producer40" in="00:00:00.000" out="00:00:04.983">
  <property name="length">00:00:05.000</property>
  <property name="eof">pause</property>
  <property name="resource">assets/midjourney/farm-12-16-out.png</property>
  <property name="ttl">25</property>
  <property name="aspect_ratio">1</property>
  <property name="progressive">1</property>
  <property name="seekable">1</property>
  <property name="format">2</property>
  <property name="meta.media.width">1330</property>
  <property name="meta.media.height">1576</property>
  <property name="mlt_service">qimage</property>
  <property name="kdenlive:clipname"/>
  <property name="kdenlive:duration">00:00:05:00</property>
  <property name="kdenlive:folderid">619</property>
  <property name="kdenlive:id">624</property>
  <property name="kdenlive:clip_type">2</property>
  <property name="kdenlive:file_size">1799621</property>
  <property name="kdenlive:file_hash">370a289cff061f2f328dc00a5ae8da46</property>
 </producer>
 <producer id="producer41" in="00:00:00.000" out="00:00:04.983">
  <property name="length">00:00:05.000</property>
  <property name="eof">pause</property>
  <property name="resource">assets/midjourney/farm-12-16-rect-large.png</property>
  <property name="ttl">25</property>
  <property name="aspect_ratio">1</property>
  <property name="progressive">1</property>
  <property name="seekable">1</property>
  <property name="format">2</property>
  <property name="meta.media.width">1875</property>
  <property name="meta.media.height">1576</property>
  <property name="mlt_service">qimage</property>
  <property name="kdenlive:clipname"/>
  <property name="kdenlive:duration">00:00:05:00</property>
  <property name="kdenlive:folderid">619</property>
  <property name="kdenlive:id">625</property>
  <property name="kdenlive:clip_type">2</property>
  <property name="kdenlive:file_size">19020</property>
  <property name="kdenlive:file_hash">7afe9a6396dc2298837c96385930b49b</property>
 </producer>
 <producer id="producer42" in="00:00:00.000" out="00:00:04.983">
  <property name="length">00:00:05.000</property>
  <property name="eof">pause</property>
  <property name="resource">assets/midjourney/farm-12-16-rect-small.png</property>
  <property name="ttl">25</property>
  <property name="aspect_ratio">1</property>
  <property name="progressive">1</property>
  <property name="seekable">1</property>
  <property name="format">2</property>
  <property name="meta.media.width">419</property>
  <property name="meta.media.height">1575</property>
  <property name="mlt_service">qimage</property>
  <property name="kdenlive:clipname"/>
  <property name="kdenlive:duration">00:00:05:00</property>
  <property name="kdenlive:folderid">619</property>
  <property name="kdenlive:id">626</property>
  <property name="kdenlive:clip_type">2</property>
  <property name="kdenlive:file_size">5908</property>
  <property name="kdenlive:file_hash">5d0ce6543ca09069cfbf38f29a550918</property>
 </producer>
 <producer id="producer43" in="00:00:00.000" out="00:00:04.983">
  <property name="length">00:00:05.000</property>
  <property name="eof">pause</property>
  <property name="resource">assets/midjourney/farm-12-16-rect.png</property>
  <property name="ttl">25</property>
  <property name="aspect_ratio">1</property>
  <property name="progressive">1</property>
  <property name="seekable">1</property>
  <property name="format">2</property>
  <property name="meta.media.width">1368</property>
  <property name="meta.media.height">1576</property>
  <property name="mlt_service">qimage</property>
  <property name="kdenlive:clipname"/>
  <property name="kdenlive:duration">00:00:05:00</property>
  <property name="kdenlive:folderid">619</property>
  <property name="kdenlive:id">627</property>
  <property name="kdenlive:clip_type">2</property>
  <property name="kdenlive:file_size">11959</property>
  <property name="kdenlive:file_hash">3ec6f673e4e35feafeb4464cddb10621</property>
 </producer>
 <producer id="producer44" in="00:00:00.000" out="00:00:04.983">
  <property name="length">00:00:05.000</property>
  <property name="eof">pause</property>
  <property name="resource">assets/midjourney/farm-12-16.png</property>
  <property name="ttl">25</property>
  <property name="aspect_ratio">1</property>
  <property name="progressive">1</property>
  <property name="seekable">1</property>
  <property name="format">1</property>
  <property name="meta.media.width">1024</property>
  <property name="meta.media.height">1344</property>
  <property name="mlt_service">qimage</property>
  <property name="kdenlive:clipname"/>
  <property name="kdenlive:duration">00:00:05:00</property>
  <property name="kdenlive:folderid">619</property>
  <property name="kdenlive:id">628</property>
  <property name="kdenlive:clip_type">2</property>
  <property name="kdenlive:file_size">1333114</property>
  <property name="kdenlive:file_hash">e00bfe2c9d68bbee9e6be43e31ff6022</property>
 </producer>
 <producer id="producer45" in="00:00:00.000" out="00:00:04.983">
  <property name="length">00:00:05.000</property>
  <property name="eof">pause</property>
  <property name="resource">assets/midjourney/farm-12-16.svg</property>
  <property name="ttl">25</property>
  <property name="aspect_ratio">1</property>
  <property name="progressive">1</property>
  <property name="seekable">1</property>
  <property name="format">2</property>
  <property name="meta.media.width">1021</property>
  <property name="meta.media.height">1210</property>
  <property name="mlt_service">qimage</property>
  <property name="kdenlive:clipname"/>
  <property name="kdenlive:duration">00:00:05:00</property>
  <property name="kdenlive:folderid">619</property>
  <property name="kdenlive:id">629</property>
  <property name="kdenlive:clip_type">2</property>
  <property name="kdenlive:file_size">3583462</property>
  <property name="kdenlive:file_hash">5bb2496736476bf84b72449cb5f6f10d</property>
 </producer>
 <producer id="producer46" in="00:00:00.000" out="00:00:04.983">
  <property name="length">00:00:05.000</property>
  <property name="eof">pause</property>
  <property name="resource">assets/midjourney/farm-16-9.png</property>
  <property name="ttl">25</property>
  <property name="aspect_ratio">1</property>
  <property name="progressive">1</property>
  <property name="seekable">1</property>
  <property name="format">1</property>
  <property name="meta.media.width">1664</property>
  <property name="meta.media.height">960</property>
  <property name="mlt_service">qimage</property>
  <property name="kdenlive:clipname"/>
  <property name="kdenlive:duration">00:00:05:00</property>
  <property name="kdenlive:folderid">619</property>
  <property name="kdenlive:id">630</property>
  <property name="kdenlive:clip_type">2</property>
  <property name="kdenlive:file_size">1904685</property>
  <property name="kdenlive:file_hash">bbebbf1cc6a9e8996c8bc2c0e70dd16f</property>
 </producer>
 <producer id="producer47" in="00:00:00.000" out="00:00:04.983">
  <property name="length">00:00:05.000</property>
  <property name="eof">pause</property>
  <property name="resource">assets/midjourney/farm-8-9-out.png</property>
  <property name="ttl">25</property>
  <property name="aspect_ratio">1</property>
  <property name="progressive">1</property>
  <property name="seekable">1</property>
  <property name="format">2</property>
  <property name="meta.media.width">1333</property>
  <property name="meta.media.height">1500</property>
  <property name="mlt_service">qimage</property>
  <property name="kdenlive:clipname"/>
  <property name="kdenlive:duration">00:00:05:00</property>
  <property name="kdenlive:folderid">619</property>
  <property name="kdenlive:id">631</property>
  <property name="kdenlive:clip_type">2</property>
  <property name="kdenlive:file_size">1862873</property>
  <property name="kdenlive:file_hash">f7c1544a4265fd2e5f7c314be982caee</property>
 </producer>
 <producer id="producer48" in="00:00:00.000" out="00:00:04.983">
  <property name="length">00:00:05.000</property>
  <property name="eof">pause</property>
  <property name="resource">assets/midjourney/farm-8-9.png</property>
  <property name="ttl">25</property>
  <property name="aspect_ratio">1</property>
  <property name="progressive">1</property>
  <property name="seekable">1</property>
  <property name="format">1</property>
  <property name="meta.media.width">1024</property>
  <property name="meta.media.height">1152</property>
  <property name="mlt_service">qimage</property>
  <property name="kdenlive:clipname"/>
  <property name="kdenlive:duration">00:00:05:00</property>
  <property name="kdenlive:folderid">619</property>
  <property name="kdenlive:id">632</property>
  <property name="kdenlive:clip_type">2</property>
  <property name="kdenlive:file_size">1317105</property>
  <property name="kdenlive:file_hash">8b0bd5986999d44a400c2fa0303a2d7d</property>
 </producer>
 <producer id="producer49" in="00:00:00.000" out="00:00:04.983">
  <property name="length">00:00:05.000</property>
  <property name="eof">pause</property>
  <property name="resource">assets/midjourney/farm-9-16.png</property>
  <property name="ttl">25</property>
  <property name="aspect_ratio">1</property>
  <property name="progressive">1</property>
  <property name="seekable">1</property>
  <property name="format">1</property>
  <property name="meta.media.width">960</property>
  <property name="meta.media.height">1664</property>
  <property name="mlt_service">qimage</property>
  <property name="kdenlive:clipname"/>
  <property name="kdenlive:duration">00:00:05:00</property>
  <property name="kdenlive:folderid">619</property>
  <property name="kdenlive:id">633</property>
  <property name="kdenlive:clip_type">2</property>
  <property name="kdenlive:file_size">1686492</property>
  <property name="kdenlive:file_hash">c77877a3acdf9674ac1adcf29d4b670c</property>
 </producer>
 <producer id="producer50" in="00:00:00.000" out="00:00:04.983">
  <property name="length">00:00:05.000</property>
  <property name="eof">pause</property>
  <property name="resource">assets/midjourney/farmer-black.png</property>
  <property name="ttl">25</property>
  <property name="aspect_ratio">1</property>
  <property name="progressive">1</property>
  <property name="seekable">1</property>
  <property name="format">2</property>
  <property name="meta.media.width">915</property>
  <property name="meta.media.height">893</property>
  <property name="mlt_service">qimage</property>
  <property name="kdenlive:clipname"/>
  <property name="kdenlive:duration">00:00:05:00</property>
  <property name="kdenlive:folderid">619</property>
  <property name="kdenlive:id">634</property>
  <property name="kdenlive:clip_type">2</property>
  <property name="kdenlive:file_size">11448</property>
  <property name="kdenlive:file_hash">f6f5edbb1bc4f36ece194ca07fddccbb</property>
 </producer>
 <producer id="producer51" in="00:00:00.000" out="00:00:04.983">
  <property name="length">00:00:05.000</property>
  <property name="eof">pause</property>
  <property name="resource">assets/midjourney/farmer-cropped.png</property>
  <property name="ttl">25</property>
  <property name="aspect_ratio">1</property>
  <property name="progressive">1</property>
  <property name="seekable">1</property>
  <property name="format">2</property>
  <property name="meta.media.width">885</property>
  <property name="meta.media.height">863</property>
  <property name="mlt_service">qimage</property>
  <property name="kdenlive:clipname"/>
  <property name="kdenlive:duration">00:00:05:00</property>
  <property name="kdenlive:folderid">619</property>
  <property name="kdenlive:id">635</property>
  <property name="kdenlive:clip_type">2</property>
  <property name="kdenlive:file_size">946253</property>
  <property name="kdenlive:file_hash">d4782c90aacc3098e36086fd664fe829</property>
 </producer>
 <producer id="producer52" in="00:00:00.000" out="00:00:04.983">
  <property name="length">00:00:05.000</property>
  <property name="eof">pause</property>
  <property name="resource">assets/midjourney/farmer-outline.png</property>
  <property name="ttl">25</property>
  <property name="aspect_ratio">1</property>
  <property name="progressive">1</property>
  <property name="seekable">1</property>
  <property name="format">2</property>
  <property name="meta.media.width">915</property>
  <property name="meta.media.height">893</property>
  <property name="mlt_service">qimage</property>
  <property name="kdenlive:clipname"/>
  <property name="kdenlive:duration">00:00:05:00</property>
  <property name="kdenlive:folderid">619</property>
  <property name="kdenlive:id">636</property>
  <property name="kdenlive:clip_type">2</property>
  <property name="kdenlive:file_size">958532</property>
  <property name="kdenlive:file_hash">020fb229f73ae5481a7d38b712954a75</property>
 </producer>
 <producer id="producer53" in="00:00:00.000" out="00:00:04.983">
  <property name="length">00:00:05.000</property>
  <property name="eof">pause</property>
  <property name="resource">assets/midjourney/farmer.png</property>
  <property name="ttl">25</property>
  <property name="aspect_ratio">1</property>
  <property name="progressive">1</property>
  <property name="seekable">1</property>
  <property name="format">1</property>
  <property name="meta.media.width">1024</property>
  <property name="meta.media.height">1024</property>
  <property name="mlt_service">qimage</property>
  <property name="kdenlive:clipname"/>
  <property name="kdenlive:duration">00:00:05:00</property>
  <property name="kdenlive:folderid">619</property>
  <property name="kdenlive:id">637</property>
  <property name="kdenlive:clip_type">2</property>
  <property name="kdenlive:file_size">955961</property>
  <property name="kdenlive:file_hash">025b1d982f05fd79c6d981259f5bb0d5</property>
 </producer>
 <producer id="producer54" in="00:00:00.000" out="00:00:04.983">
  <property name="length">00:00:05.000</property>
  <property name="eof">pause</property>
  <property name="resource">assets/midjourney/fertilizer-cropped-flopped.png</property>
  <property name="ttl">25</property>
  <property name="aspect_ratio">1</property>
  <property name="progressive">1</property>
  <property name="seekable">1</property>
  <property name="format">2</property>
  <property name="meta.media.width">595</property>
  <property name="meta.media.height">838</property>
  <property name="mlt_service">qimage</property>
  <property name="kdenlive:clipname"/>
  <property name="kdenlive:duration">00:00:05:00</property>
  <property name="kdenlive:folderid">619</property>
  <property name="kdenlive:id">639</property>
  <property name="kdenlive:clip_type">2</property>
  <property name="kdenlive:file_size">567012</property>
  <property name="kdenlive:file_hash">01500161a67c19e60469b9ee742533b9</property>
 </producer>
 <producer id="producer55" in="00:00:00.000" out="00:00:04.983">
  <property name="length">00:00:05.000</property>
  <property name="eof">pause</property>
  <property name="resource">assets/midjourney/fertilizer-cropped.png</property>
  <property name="ttl">25</property>
  <property name="aspect_ratio">1</property>
  <property name="progressive">1</property>
  <property name="seekable">1</property>
  <property name="format">2</property>
  <property name="meta.media.width">595</property>
  <property name="meta.media.height">838</property>
  <property name="mlt_service">qimage</property>
  <property name="kdenlive:clipname"/>
  <property name="kdenlive:duration">00:00:05:00</property>
  <property name="kdenlive:folderid">619</property>
  <property name="kdenlive:id">640</property>
  <property name="kdenlive:clip_type">2</property>
  <property name="kdenlive:file_size">557439</property>
  <property name="kdenlive:file_hash">1f4d727339a32dd7b879685f02d32020</property>
 </producer>
 <producer id="producer56" in="00:00:00.000" out="00:00:04.983">
  <property name="length">00:00:05.000</property>
  <property name="eof">pause</property>
  <property name="resource">assets/midjourney/fertilizer.png</property>
  <property name="ttl">25</property>
  <property name="aspect_ratio">1</property>
  <property name="progressive">1</property>
  <property name="seekable">1</property>
  <property name="format">1</property>
  <property name="meta.media.width">1024</property>
  <property name="meta.media.height">1024</property>
  <property name="mlt_service">qimage</property>
  <property name="kdenlive:clipname"/>
  <property name="kdenlive:duration">00:00:05:00</property>
  <property name="kdenlive:folderid">619</property>
  <property name="kdenlive:id">641</property>
  <property name="kdenlive:clip_type">2</property>
  <property name="kdenlive:file_size">991931</property>
  <property name="kdenlive:file_hash">7fec6198eca54b0ac78d449c5242eaf6</property>
 </producer>
 <producer id="producer57" in="00:00:00.000" out="00:00:04.983">
  <property name="length">00:00:05.000</property>
  <property name="eof">pause</property>
  <property name="resource">assets/midjourney/knapsack-out.png</property>
  <property name="ttl">25</property>
  <property name="aspect_ratio">1</property>
  <property name="progressive">1</property>
  <property name="seekable">1</property>
  <property name="format">2</property>
  <property name="meta.media.width">739</property>
  <property name="meta.media.height">823</property>
  <property name="mlt_service">qimage</property>
  <property name="kdenlive:clipname"/>
  <property name="kdenlive:duration">00:00:05:00</property>
  <property name="kdenlive:folderid">619</property>
  <property name="kdenlive:id">643</property>
  <property name="kdenlive:clip_type">2</property>
  <property name="kdenlive:file_size">839186</property>
  <property name="kdenlive:file_hash">662652514cb2fe003f7b7c68505bb78d</property>
 </producer>
 <producer id="producer58" in="00:00:00.000" out="00:00:04.983">
  <property name="length">00:00:05.000</property>
  <property name="eof">pause</property>
  <property name="resource">assets/midjourney/knapsack.png</property>
  <property name="ttl">25</property>
  <property name="aspect_ratio">1</property>
  <property name="progressive">1</property>
  <property name="seekable">1</property>
  <property name="format">1</property>
  <property name="meta.media.width">1024</property>
  <property name="meta.media.height">1024</property>
  <property name="mlt_service">qimage</property>
  <property name="kdenlive:clipname"/>
  <property name="kdenlive:duration">00:00:05:00</property>
  <property name="kdenlive:folderid">619</property>
  <property name="kdenlive:id">644</property>
  <property name="kdenlive:clip_type">2</property>
  <property name="kdenlive:file_size">1148117</property>
  <property name="kdenlive:file_hash">a5bd9f781c929472f454ad5a52c69a51</property>
 </producer>
 <producer id="producer59" in="00:00:00.000" out="00:00:04.983">
  <property name="length">00:00:05.000</property>
  <property name="eof">pause</property>
  <property name="resource">assets/midjourney/pesticide-cropped.png</property>
  <property name="ttl">25</property>
  <property name="aspect_ratio">1</property>
  <property name="progressive">1</property>
  <property name="seekable">1</property>
  <property name="format">2</property>
  <property name="meta.media.width">611</property>
  <property name="meta.media.height">913</property>
  <property name="mlt_service">qimage</property>
  <property name="kdenlive:clipname"/>
  <property name="kdenlive:duration">00:00:05:00</property>
  <property name="kdenlive:folderid">619</property>
  <property name="kdenlive:id">646</property>
  <property name="kdenlive:clip_type">2</property>
  <property name="kdenlive:file_size">871331</property>
  <property name="kdenlive:file_hash">b69a87d185550a1af251f82f5c00331f</property>
 </producer>
 <producer id="producer60" in="00:00:00.000" out="00:00:04.983">
  <property name="length">00:00:05.000</property>
  <property name="eof">pause</property>
  <property name="resource">assets/midjourney/pesticide.png</property>
  <property name="ttl">25</property>
  <property name="aspect_ratio">1</property>
  <property name="progressive">1</property>
  <property name="seekable">1</property>
  <property name="format">1</property>
  <property name="meta.media.width">1024</property>
  <property name="meta.media.height">1024</property>
  <property name="mlt_service">qimage</property>
  <property name="kdenlive:clipname"/>
  <property name="kdenlive:duration">00:00:05:00</property>
  <property name="kdenlive:folderid">619</property>
  <property name="kdenlive:id">647</property>
  <property name="kdenlive:clip_type">2</property>
  <property name="kdenlive:file_size">1068595</property>
  <property name="kdenlive:file_hash">03d50c9680d77ec297bc349c5ba13dc1</property>
 </producer>
 <producer id="producer61" in="00:00:00.000" out="00:00:04.983">
  <property name="length">00:00:05.000</property>
  <property name="eof">pause</property>
  <property name="resource">assets/midjourney/potato-cropped.png</property>
  <property name="ttl">25</property>
  <property name="aspect_ratio">1</property>
  <property name="progressive">1</property>
  <property name="seekable">1</property>
  <property name="format">2</property>
  <property name="meta.media.width">931</property>
  <property name="meta.media.height">994</property>
  <property name="mlt_service">qimage</property>
  <property name="kdenlive:clipname"/>
  <property name="kdenlive:duration">00:00:05:00</property>
  <property name="kdenlive:folderid">619</property>
  <property name="kdenlive:id">649</property>
  <property name="kdenlive:clip_type">2</property>
  <property name="kdenlive:file_size">522647</property>
  <property name="kdenlive:file_hash">b695f6bb726e8b838e72f411700ca985</property>
 </producer>
 <producer id="producer62" in="00:00:00.000" out="00:00:04.983">
  <property name="length">00:00:05.000</property>
  <property name="eof">pause</property>
  <property name="resource">assets/midjourney/potato.png</property>
  <property name="ttl">25</property>
  <property name="aspect_ratio">1</property>
  <property name="progressive">1</property>
  <property name="seekable">1</property>
  <property name="format">1</property>
  <property name="meta.media.width">1536</property>
  <property name="meta.media.height">1536</property>
  <property name="mlt_service">qimage</property>
  <property name="kdenlive:clipname"/>
  <property name="kdenlive:duration">00:00:05:00</property>
  <property name="kdenlive:folderid">619</property>
  <property name="kdenlive:id">650</property>
  <property name="kdenlive:clip_type">2</property>
  <property name="kdenlive:file_size">1025940</property>
  <property name="kdenlive:file_hash">e861dc79da34c330554919cdd588dc37</property>
 </producer>
 <producer id="producer63" in="00:00:00.000" out="00:00:04.983">
  <property name="length">00:00:05.000</property>
  <property name="eof">pause</property>
  <property name="resource">assets/pengling/pengling.png</property>
  <property name="ttl">25</property>
  <property name="aspect_ratio">1</property>
  <property name="progressive">1</property>
  <property name="seekable">1</property>
  <property name="format">1</property>
  <property name="meta.media.width">1024</property>
  <property name="meta.media.height">1024</property>
  <property name="mlt_service">qimage</property>
  <property name="kdenlive:clipname"/>
  <property name="kdenlive:duration">00:00:05:00</property>
  <property name="kdenlive:folderid">652</property>
  <property name="kdenlive:id">653</property>
  <property name="kdenlive:clip_type">2</property>
  <property name="kdenlive:file_size">244613</property>
  <property name="kdenlive:file_hash">8e94c2a92f93f25f32f9cb0ff2528af2</property>
 </producer>
 <producer id="producer64" in="00:00:00.000" out="00:00:04.983">
  <property name="length">00:00:05.000</property>
  <property name="eof">pause</property>
  <property name="resource">assets/pengling/pengling.svg</property>
  <property name="ttl">25</property>
  <property name="aspect_ratio">1</property>
  <property name="progressive">1</property>
  <property name="seekable">1</property>
  <property name="format">2</property>
  <property name="meta.media.width">91</property>
  <property name="meta.media.height">170</property>
  <property name="mlt_service">qimage</property>
  <property name="kdenlive:clipname"/>
  <property name="kdenlive:duration">00:00:05:00</property>
  <property name="kdenlive:folderid">652</property>
  <property name="kdenlive:id">654</property>
  <property name="kdenlive:clip_type">2</property>
  <property name="kdenlive:file_size">16249</property>
  <property name="kdenlive:file_hash">b1ae2d2884ebce5570c3925cf1bd47b6</property>
 </producer>
 <producer id="producer65" in="00:00:00.000" out="00:00:04.983">
  <property name="length">00:00:05.000</property>
  <property name="eof">pause</property>
  <property name="resource">assets/pengling/pengling2.svg</property>
  <property name="ttl">25</property>
  <property name="aspect_ratio">1</property>
  <property name="progressive">1</property>
  <property name="seekable">1</property>
  <property name="format">2</property>
  <property name="meta.media.width">90</property>
  <property name="meta.media.height">169</property>
  <property name="mlt_service">qimage</property>
  <property name="kdenlive:clipname"/>
  <property name="kdenlive:duration">00:00:05:00</property>
  <property name="kdenlive:folderid">652</property>
  <property name="kdenlive:id">655</property>
  <property name="kdenlive:clip_type">2</property>
  <property name="kdenlive:file_size">16918</property>
  <property name="kdenlive:file_hash">0234d4c8e2cb833f35f82e0848184109</property>
 </producer>
 <producer id="producer66" in="00:00:00.000" out="00:00:04.983">
  <property name="length">00:00:05.000</property>
  <property name="eof">pause</property>
  <property name="resource">assets/silhouettes/looking-up-cropped.png</property>
  <property name="ttl">25</property>
  <property name="aspect_ratio">1</property>
  <property name="progressive">1</property>
  <property name="seekable">1</property>
  <property name="format">1</property>
  <property name="meta.media.width">635</property>
  <property name="meta.media.height">821</property>
  <property name="mlt_service">qimage</property>
  <property name="kdenlive:clipname"/>
  <property name="kdenlive:duration">00:00:05:00</property>
  <property name="kdenlive:folderid">656</property>
  <property name="kdenlive:id">657</property>
  <property name="kdenlive:clip_type">2</property>
  <property name="kdenlive:file_size">24377</property>
  <property name="kdenlive:file_hash">13866fae625c061b7336e20b99bd2a33</property>
 </producer>
 <producer id="producer67" in="00:00:00.000" out="00:00:04.983">
  <property name="length">00:00:05.000</property>
  <property name="eof">pause</property>
  <property name="resource">assets/silhouettes/looking-up-cropped.svg</property>
  <property name="ttl">25</property>
  <property name="aspect_ratio">1</property>
  <property name="progressive">1</property>
  <property name="seekable">1</property>
  <property name="format">2</property>
  <property name="meta.media.width">635</property>
  <property name="meta.media.height">822</property>
  <property name="mlt_service">qimage</property>
  <property name="kdenlive:clipname"/>
  <property name="kdenlive:duration">00:00:05:00</property>
  <property name="kdenlive:folderid">656</property>
  <property name="kdenlive:id">658</property>
  <property name="kdenlive:clip_type">2</property>
  <property name="kdenlive:file_size">39797</property>
  <property name="kdenlive:file_hash">290cddb7575d0556cf1e1636be4436b6</property>
 </producer>
 <producer id="producer68" in="00:00:00.000" out="00:00:04.983">
  <property name="length">00:00:05.000</property>
  <property name="eof">pause</property>
  <property name="resource">assets/silhouettes/looking-up.svg</property>
  <property name="ttl">25</property>
  <property name="aspect_ratio">1</property>
  <property name="progressive">1</property>
  <property name="seekable">1</property>
  <property name="format">2</property>
  <property name="meta.media.width">635</property>
  <property name="meta.media.height">821</property>
  <property name="mlt_service">qimage</property>
  <property name="kdenlive:clipname"/>
  <property name="kdenlive:duration">00:00:05:00</property>
  <property name="kdenlive:folderid">656</property>
  <property name="kdenlive:id">659</property>
  <property name="kdenlive:clip_type">2</property>
  <property name="kdenlive:file_size">118401</property>
  <property name="kdenlive:file_hash">52d71b7d875c6375a107f72f83d5a221</property>
 </producer>
 <producer id="producer69" in="00:00:00.000" out="00:00:04.983">
  <property name="length">00:00:05.000</property>
  <property name="eof">pause</property>
  <property name="resource">assets/silhouettes/professor-cropped.png</property>
  <property name="ttl">25</property>
  <property name="aspect_ratio">1</property>
  <property name="progressive">1</property>
  <property name="seekable">1</property>
  <property name="format">1</property>
  <property name="meta.media.width">461</property>
  <property name="meta.media.height">948</property>
  <property name="mlt_service">qimage</property>
  <property name="kdenlive:clipname"/>
  <property name="kdenlive:duration">00:00:05:00</property>
  <property name="kdenlive:folderid">656</property>
  <property name="kdenlive:id">660</property>
  <property name="kdenlive:clip_type">2</property>
  <property name="kdenlive:file_size">14900</property>
  <property name="kdenlive:file_hash">4e5b2d4998332a8a487f72bf8b10c35c</property>
 </producer>
 <producer id="producer70" in="00:00:00.000" out="00:00:04.983">
  <property name="length">00:00:05.000</property>
  <property name="eof">pause</property>
  <property name="resource">assets/silhouettes/professor-cropped.svg</property>
  <property name="ttl">25</property>
  <property name="aspect_ratio">1</property>
  <property name="progressive">1</property>
  <property name="seekable">1</property>
  <property name="format">2</property>
  <property name="meta.media.width">460</property>
  <property name="meta.media.height">947</property>
  <property name="mlt_service">qimage</property>
  <property name="kdenlive:clipname"/>
  <property name="kdenlive:duration">00:00:05:00</property>
  <property name="kdenlive:folderid">656</property>
  <property name="kdenlive:id">661</property>
  <property name="kdenlive:clip_type">2</property>
  <property name="kdenlive:file_size">13964</property>
  <property name="kdenlive:file_hash">fac3ae458a0f41f916df4d10bb11cc44</property>
 </producer>
 <producer id="producer71" in="00:00:00.000" out="00:00:04.983">
  <property name="length">00:00:05.000</property>
  <property name="eof">pause</property>
  <property name="resource">assets/silhouettes/professor.png</property>
  <property name="ttl">25</property>
  <property name="aspect_ratio">1</property>
  <property name="progressive">1</property>
  <property name="seekable">1</property>
  <property name="format">1</property>
  <property name="meta.media.width">1024</property>
  <property name="meta.media.height">1024</property>
  <property name="mlt_service">qimage</property>
  <property name="kdenlive:clipname"/>
  <property name="kdenlive:duration">00:00:05:00</property>
  <property name="kdenlive:folderid">656</property>
  <property name="kdenlive:id">662</property>
  <property name="kdenlive:clip_type">2</property>
  <property name="kdenlive:file_size">519413</property>
  <property name="kdenlive:file_hash">8d259aee6e13c0e62911bd397fd12d47</property>
 </producer>
 <producer id="producer72" in="00:00:00.000" out="00:00:04.983">
  <property name="length">00:00:05.000</property>
  <property name="eof">pause</property>
  <property name="resource">assets/silhouettes/professor.svg</property>
  <property name="ttl">25</property>
  <property name="aspect_ratio">1</property>
  <property name="progressive">1</property>
  <property name="seekable">1</property>
  <property name="format">2</property>
  <property name="meta.media.width">460</property>
  <property name="meta.media.height">947</property>
  <property name="mlt_service">qimage</property>
  <property name="kdenlive:clipname"/>
  <property name="kdenlive:duration">00:00:05:00</property>
  <property name="kdenlive:folderid">656</property>
  <property name="kdenlive:id">663</property>
  <property name="kdenlive:clip_type">2</property>
  <property name="kdenlive:file_size">13964</property>
  <property name="kdenlive:file_hash">fac3ae458a0f41f916df4d10bb11cc44</property>
 </producer>
 <producer id="producer73" in="00:00:00.000" out="00:00:04.983">
  <property name="length">00:00:05.000</property>
  <property name="eof">pause</property>
  <property name="resource">assets/silhouettes/returning-cropped.png</property>
  <property name="ttl">25</property>
  <property name="aspect_ratio">1</property>
  <property name="progressive">1</property>
  <property name="seekable">1</property>
  <property name="format">1</property>
  <property name="meta.media.width">504</property>
  <property name="meta.media.height">968</property>
  <property name="mlt_service">qimage</property>
  <property name="kdenlive:clipname"/>
  <property name="kdenlive:duration">00:00:05:00</property>
  <property name="kdenlive:folderid">656</property>
  <property name="kdenlive:id">664</property>
  <property name="kdenlive:clip_type">2</property>
  <property name="kdenlive:file_size">13351</property>
  <property name="kdenlive:file_hash">b6e491e5a71f2d286c36e03da8885147</property>
 </producer>
 <producer id="producer74" in="00:00:00.000" out="00:00:04.983">
  <property name="length">00:00:05.000</property>
  <property name="eof">pause</property>
  <property name="resource">assets/silhouettes/returning-cropped.svg</property>
  <property name="ttl">25</property>
  <property name="aspect_ratio">1</property>
  <property name="progressive">1</property>
  <property name="seekable">1</property>
  <property name="format">2</property>
  <property name="meta.media.width">503</property>
  <property name="meta.media.height">967</property>
  <property name="mlt_service">qimage</property>
  <property name="kdenlive:clipname"/>
  <property name="kdenlive:duration">00:00:05:00</property>
  <property name="kdenlive:folderid">656</property>
  <property name="kdenlive:id">665</property>
  <property name="kdenlive:clip_type">2</property>
  <property name="kdenlive:file_size">13988</property>
  <property name="kdenlive:file_hash">193cfec6921b0a0d71a435dc3ee100ce</property>
 </producer>
 <producer id="producer75" in="00:00:00.000" out="00:00:04.983">
  <property name="length">00:00:05.000</property>
  <property name="eof">pause</property>
  <property name="resource">assets/silhouettes/returning.svg</property>
  <property name="ttl">25</property>
  <property name="aspect_ratio">1</property>
  <property name="progressive">1</property>
  <property name="seekable">1</property>
  <property name="format">2</property>
  <property name="meta.media.width">503</property>
  <property name="meta.media.height">967</property>
  <property name="mlt_service">qimage</property>
  <property name="kdenlive:clipname"/>
  <property name="kdenlive:duration">00:00:05:00</property>
  <property name="kdenlive:folderid">656</property>
  <property name="kdenlive:id">666</property>
  <property name="kdenlive:clip_type">2</property>
  <property name="kdenlive:file_size">15390</property>
  <property name="kdenlive:file_hash">0264fd7c25ebe21ea22bc684c4bab605</property>
 </producer>
 <producer id="producer76" in="00:00:00.000" out="00:00:04.983">
  <property name="length">00:00:05.000</property>
  <property name="eof">pause</property>
  <property name="resource">assets/silhouettes/sitting-cropped.png</property>
  <property name="ttl">25</property>
  <property name="aspect_ratio">1</property>
  <property name="progressive">1</property>
  <property name="seekable">1</property>
  <property name="format">1</property>
  <property name="meta.media.width">634</property>
  <property name="meta.media.height">815</property>
  <property name="mlt_service">qimage</property>
  <property name="kdenlive:clipname"/>
  <property name="kdenlive:duration">00:00:05:00</property>
  <property name="kdenlive:folderid">656</property>
  <property name="kdenlive:id">667</property>
  <property name="kdenlive:clip_type">2</property>
  <property name="kdenlive:file_size">24779</property>
  <property name="kdenlive:file_hash">4bb4a5f39a6355a0d4edf88f58da34ae</property>
 </producer>
 <producer id="producer77" in="00:00:00.000" out="00:00:04.983">
  <property name="length">00:00:05.000</property>
  <property name="eof">pause</property>
  <property name="resource">assets/silhouettes/sitting-cropped.svg</property>
  <property name="ttl">25</property>
  <property name="aspect_ratio">1</property>
  <property name="progressive">1</property>
  <property name="seekable">1</property>
  <property name="format">2</property>
  <property name="meta.media.width">634</property>
  <property name="meta.media.height">814</property>
  <property name="mlt_service">qimage</property>
  <property name="kdenlive:clipname"/>
  <property name="kdenlive:duration">00:00:05:00</property>
  <property name="kdenlive:folderid">656</property>
  <property name="kdenlive:id">668</property>
  <property name="kdenlive:clip_type">2</property>
  <property name="kdenlive:file_size">27684</property>
  <property name="kdenlive:file_hash">831be45cd163f9fd4982f9f301e2984f</property>
 </producer>
 <producer id="producer78" in="00:00:00.000" out="00:00:04.983">
  <property name="length">00:00:05.000</property>
  <property name="eof">pause</property>
  <property name="resource">assets/silhouettes/sitting.png</property>
  <property name="ttl">25</property>
  <property name="aspect_ratio">1</property>
  <property name="progressive">1</property>
  <property name="seekable">1</property>
  <property name="format">1</property>
  <property name="meta.media.width">1024</property>
  <property name="meta.media.height">1024</property>
  <property name="mlt_service">qimage</property>
  <property name="kdenlive:clipname"/>
  <property name="kdenlive:duration">00:00:05:00</property>
  <property name="kdenlive:folderid">656</property>
  <property name="kdenlive:id">669</property>
  <property name="kdenlive:clip_type">2</property>
  <property name="kdenlive:file_size">779373</property>
  <property name="kdenlive:file_hash">f4f62653dcecde86c5a7a33104776223</property>
 </producer>
 <producer id="producer79" in="00:00:00.000" out="00:00:04.983">
  <property name="length">00:00:05.000</property>
  <property name="eof">pause</property>
  <property name="resource">assets/silhouettes/sitting.svg</property>
  <property name="ttl">25</property>
  <property name="aspect_ratio">1</property>
  <property name="progressive">1</property>
  <property name="seekable">1</property>
  <property name="format">2</property>
  <property name="meta.media.width">634</property>
  <property name="meta.media.height">814</property>
  <property name="mlt_service">qimage</property>
  <property name="kdenlive:clipname"/>
  <property name="kdenlive:duration">00:00:05:00</property>
  <property name="kdenlive:folderid">656</property>
  <property name="kdenlive:id">670</property>
  <property name="kdenlive:clip_type">2</property>
  <property name="kdenlive:file_size">59872</property>
  <property name="kdenlive:file_hash">819ed7ca488f51914da62fbcc19073f1</property>
 </producer>
 <producer id="producer80" in="00:00:00.000" out="00:00:04.983">
  <property name="length">00:00:05.000</property>
  <property name="eof">pause</property>
  <property name="resource">assets/silhouettes/student-cropped.png</property>
  <property name="ttl">25</property>
  <property name="aspect_ratio">1</property>
  <property name="progressive">1</property>
  <property name="seekable">1</property>
  <property name="format">1</property>
  <property name="meta.media.width">422</property>
  <property name="meta.media.height">934</property>
  <property name="mlt_service">qimage</property>
  <property name="kdenlive:clipname"/>
  <property name="kdenlive:duration">00:00:05:00</property>
  <property name="kdenlive:folderid">656</property>
  <property name="kdenlive:id">671</property>
  <property name="kdenlive:clip_type">2</property>
  <property name="kdenlive:file_size">15684</property>
  <property name="kdenlive:file_hash">c89e84df15c63bb45f3a5729d0b02bb2</property>
 </producer>
 <producer id="producer81" in="00:00:00.000" out="00:00:04.983">
  <property name="length">00:00:05.000</property>
  <property name="eof">pause</property>
  <property name="resource">assets/silhouettes/student-cropped.svg</property>
  <property name="ttl">25</property>
  <property name="aspect_ratio">1</property>
  <property name="progressive">1</property>
  <property name="seekable">1</property>
  <property name="format">2</property>
  <property name="meta.media.width">422</property>
  <property name="meta.media.height">933</property>
  <property name="mlt_service">qimage</property>
  <property name="kdenlive:clipname"/>
  <property name="kdenlive:duration">00:00:05:00</property>
  <property name="kdenlive:folderid">656</property>
  <property name="kdenlive:id">672</property>
  <property name="kdenlive:clip_type">2</property>
  <property name="kdenlive:file_size">12856</property>
  <property name="kdenlive:file_hash">7714e798cf088deb0e91a217dad9fceb</property>
 </producer>
 <producer id="producer82" in="00:00:00.000" out="00:00:04.983">
  <property name="length">00:00:05.000</property>
  <property name="eof">pause</property>
  <property name="resource">assets/silhouettes/student.png</property>
  <property name="ttl">25</property>
  <property name="aspect_ratio">1</property>
  <property name="progressive">1</property>
  <property name="seekable">1</property>
  <property name="format">1</property>
  <property name="meta.media.width">1024</property>
  <property name="meta.media.height">1024</property>
  <property name="mlt_service">qimage</property>
  <property name="kdenlive:clipname"/>
  <property name="kdenlive:duration">00:00:05:00</property>
  <property name="kdenlive:folderid">656</property>
  <property name="kdenlive:id">673</property>
  <property name="kdenlive:clip_type">2</property>
  <property name="kdenlive:file_size">605435</property>
  <property name="kdenlive:file_hash">038bb53ad0c9131035bc4068818eb6b5</property>
 </producer>
 <producer id="producer83" in="00:00:00.000" out="00:00:04.983">
  <property name="length">00:00:05.000</property>
  <property name="eof">pause</property>
  <property name="resource">assets/silhouettes/student.svg</property>
  <property name="ttl">25</property>
  <property name="aspect_ratio">1</property>
  <property name="progressive">1</property>
  <property name="seekable">1</property>
  <property name="format">2</property>
  <property name="meta.media.width">422</property>
  <property name="meta.media.height">933</property>
  <property name="mlt_service">qimage</property>
  <property name="kdenlive:clipname"/>
  <property name="kdenlive:duration">00:00:05:00</property>
  <property name="kdenlive:folderid">656</property>
  <property name="kdenlive:id">674</property>
  <property name="kdenlive:clip_type">2</property>
  <property name="kdenlive:file_size">12856</property>
  <property name="kdenlive:file_hash">7714e798cf088deb0e91a217dad9fceb</property>
 </producer>
 <producer id="producer84" in="00:00:00.000" out="00:00:04.983">
  <property name="length">00:00:05.000</property>
  <property name="eof">pause</property>
  <property name="resource">assets/thumbnail/drawing-dual.png</property>
  <property name="ttl">25</property>
  <property name="aspect_ratio">1</property>
  <property name="progressive">1</property>
  <property name="seekable">1</property>
  <property name="format">2</property>
  <property name="meta.media.width">4999</property>
  <property name="meta.media.height">2812</property>
  <property name="mlt_service">qimage</property>
  <property name="kdenlive:clipname"/>
  <property name="kdenlive:duration">00:00:05:00</property>
  <property name="kdenlive:folderid">675</property>
  <property name="kdenlive:id">676</property>
  <property name="kdenlive:clip_type">2</property>
  <property name="kdenlive:file_size">1737257</property>
  <property name="kdenlive:file_hash">1f78d30b8a7c438564ea5558b764617d</property>
 </producer>
 <producer id="producer85" in="00:00:00.000" out="00:00:04.983">
  <property name="length">00:00:05.000</property>
  <property name="eof">pause</property>
  <property name="resource">assets/thumbnail/drawing.png</property>
  <property name="ttl">25</property>
  <property name="aspect_ratio">1</property>
  <property name="progressive">1</property>
  <property name="seekable">1</property>
  <property name="format">2</property>
  <property name="meta.media.width">4999</property>
  <property name="meta.media.height">2812</property>
  <property name="mlt_service">qimage</property>
  <property name="kdenlive:clipname"/>
  <property name="kdenlive:duration">00:00:05:00</property>
  <property name="kdenlive:folderid">675</property>
  <property name="kdenlive:id">677</property>
  <property name="kdenlive:clip_type">2</property>
  <property name="kdenlive:file_size">1748095</property>
  <property name="kdenlive:file_hash">dc495ec7fb7ebba1ae2185e339b8641a</property>
 </producer>
 <producer id="producer86" in="00:00:00.000" out="00:00:04.983">
  <property name="length">00:00:05.000</property>
  <property name="eof">pause</property>
  <property name="resource">assets/thumbnail/drawing.svg</property>
  <property name="ttl">25</property>
  <property name="aspect_ratio">1</property>
  <property name="progressive">1</property>
  <property name="seekable">1</property>
  <property name="format">2</property>
  <property name="meta.media.width">3840</property>
  <property name="meta.media.height">2160</property>
  <property name="mlt_service">qimage</property>
  <property name="kdenlive:clipname"/>
  <property name="kdenlive:duration">00:00:05:00</property>
  <property name="kdenlive:folderid">675</property>
  <property name="kdenlive:id">678</property>
  <property name="kdenlive:clip_type">2</property>
  <property name="kdenlive:file_size">24613</property>
  <property name="kdenlive:file_hash">733c82d587915351c3ab3722e17146b9</property>
 </producer>
 <chain id="chain739" out="00:03:26.800">
  <property name="length">12409</property>
  <property name="eof">pause</property>
  <property name="resource">/home/xiaoxiae/.cache/kdenlive/proxy/c3100044f17e3c04e7496b1a00907968.mkv</property>
  <property name="mlt_service">avformat</property>
  <property name="meta.media.nb_streams">1</property>
  <property name="meta.media.0.stream.type">video</property>
  <property name="meta.media.0.stream.frame_rate">60</property>
  <property name="meta.media.0.stream.sample_aspect_ratio">0</property>
  <property name="meta.media.0.codec.width">640</property>
  <property name="meta.media.0.codec.height">360</property>
  <property name="meta.media.0.codec.rotate">0</property>
  <property name="meta.media.0.codec.pix_fmt">yuvj420p</property>
  <property name="meta.media.0.codec.sample_aspect_ratio">0</property>
  <property name="meta.media.0.codec.colorspace">601</property>
  <property name="meta.media.0.codec.name">mjpeg</property>
  <property name="meta.media.0.codec.long_name">MJPEG (Motion JPEG)</property>
  <property name="meta.media.0.codec.bit_rate">0</property>
  <property name="meta.attr.0.stream.HANDLER_NAME.markup">VideoHandler</property>
  <property name="meta.attr.0.stream.VENDOR_ID.markup">[0][0][0][0]</property>
  <property name="meta.attr.0.stream.ENCODER.markup">Lavc60.3.100 mjpeg</property>
  <property name="meta.attr.0.stream.DURATION.markup">00:03:26.817000000</property>
  <property name="meta.attr.COMMENT.markup">Rendered with Manim Community v0.17.3</property>
  <property name="meta.attr.MAJOR_BRAND.markup">isom</property>
  <property name="meta.attr.MINOR_VERSION.markup">512</property>
  <property name="meta.attr.COMPATIBLE_BRANDS.markup">isomiso2avc1mp41</property>
  <property name="meta.attr.ENCODER.markup">Lavf60.3.100</property>
  <property name="seekable">1</property>
  <property name="meta.media.sample_aspect_num">1</property>
  <property name="meta.media.sample_aspect_den">1</property>
  <property name="format">3</property>
  <property name="audio_index">-1</property>
  <property name="video_index">0</property>
  <property name="meta.media.frame_rate_num">60</property>
  <property name="meta.media.frame_rate_den">1</property>
  <property name="meta.media.colorspace">601</property>
  <property name="meta.media.color_trc">2</property>
  <property name="meta.media.has_b_frames">0</property>
  <property name="meta.media.width">640</property>
  <property name="meta.media.height">360</property>
  <property name="meta.media.color_range">full</property>
  <property name="kdenlive:clipname">Farmer.mp4</property>
  <property name="kdenlive:clip_type">2</property>
  <property name="kdenlive:folderid">4</property>
  <property name="kdenlive:id">5</property>
  <property name="mute_on_pause">0</property>
  <property name="kdenlive:file_size">318460</property>
  <property name="kdenlive:file_hash">91938042abe8497d2b91f4f192c73c48</property>
  <property name="kdenlive:proxy">/home/xiaoxiae/.cache/kdenlive/proxy/c3100044f17e3c04e7496b1a00907968.mkv</property>
  <property name="kdenlive:originalurl">video/Farmer.mp4</property>
  <property name="kdenlive:original.mlt_type">chain</property>
  <property name="kdenlive:original.in">0</property>
  <property name="kdenlive:original.out">00:03:26.800</property>
  <property name="kdenlive:original.length">12409</property>
  <property name="kdenlive:original.eof">pause</property>
  <property name="kdenlive:original.resource">video/Farmer.mp4</property>
  <property name="kdenlive:original.mlt_service">avformat-novalidate</property>
  <property name="kdenlive:original.meta.media.nb_streams">1</property>
  <property name="kdenlive:original.meta.media.0.stream.type">video</property>
  <property name="kdenlive:original.meta.media.0.stream.frame_rate">60</property>
  <property name="kdenlive:original.meta.media.0.stream.sample_aspect_ratio">0</property>
  <property name="kdenlive:original.meta.media.0.codec.width">1920</property>
  <property name="kdenlive:original.meta.media.0.codec.height">1080</property>
  <property name="kdenlive:original.meta.media.0.codec.rotate">0</property>
  <property name="kdenlive:original.meta.media.0.codec.pix_fmt">yuv420p</property>
  <property name="kdenlive:original.meta.media.0.codec.sample_aspect_ratio">0</property>
  <property name="kdenlive:original.meta.media.0.codec.colorspace">709</property>
  <property name="kdenlive:original.meta.media.0.codec.name">h264</property>
  <property name="kdenlive:original.meta.media.0.codec.long_name">H.264 / AVC / MPEG-4 AVC / MPEG-4 part 10</property>
  <property name="kdenlive:original.meta.media.0.codec.bit_rate">685094</property>
  <property name="kdenlive:original.meta.attr.0.stream.handler_name.markup">VideoHandler</property>
  <property name="kdenlive:original.meta.attr.0.stream.vendor_id.markup">[0][0][0][0]</property>
  <property name="kdenlive:original.meta.attr.0.stream.encoder.markup">Lavc60.3.100 libx264</property>
  <property name="kdenlive:original.meta.attr.major_brand.markup">isom</property>
  <property name="kdenlive:original.meta.attr.minor_version.markup">512</property>
  <property name="kdenlive:original.meta.attr.compatible_brands.markup">isomiso2avc1mp41</property>
  <property name="kdenlive:original.meta.attr.encoder.markup">Lavf60.3.100</property>
  <property name="kdenlive:original.meta.attr.comment.markup">Rendered with Manim Community v0.17.3</property>
  <property name="kdenlive:original.seekable">1</property>
  <property name="kdenlive:original.width">1920</property>
  <property name="kdenlive:original.height">1080</property>
  <property name="kdenlive:original.meta.media.sample_aspect_num">1</property>
  <property name="kdenlive:original.meta.media.sample_aspect_den">1</property>
  <property name="kdenlive:original.format">3</property>
  <property name="kdenlive:original.audio_index">-1</property>
  <property name="kdenlive:original.video_index">0</property>
  <property name="kdenlive:original.meta.media.frame_rate_num">60</property>
  <property name="kdenlive:original.meta.media.frame_rate_den">1</property>
  <property name="kdenlive:original.meta.media.colorspace">709</property>
  <property name="kdenlive:original.meta.media.color_trc">2</property>
  <property name="kdenlive:original.meta.media.has_b_frames">2</property>
  <property name="kdenlive:original.meta.media.width">1920</property>
  <property name="kdenlive:original.meta.media.height">1080</property>
  <property name="kdenlive:original.meta.media.color_range">mpeg</property>
  <property name="kdenlive:original.meta.media.top_field_first">0</property>
  <property name="kdenlive:original.meta.media.progressive">1</property>
  <property name="kdenlive:original.kdenlive:clip_type">2</property>
  <property name="kdenlive:original.kdenlive:folderid">4</property>
  <property name="kdenlive:original.kdenlive:id">5</property>
  <property name="kdenlive:original.mute_on_pause">0</property>
  <property name="kdenlive:original.kdenlive:file_size">17854842</property>
  <property name="kdenlive:original.kdenlive:file_hash">c3100044f17e3c04e7496b1a00907968</property>
  <property name="kdenlive:original.backup">1</property>
  <property name="meta.media.top_field_first">0</property>
  <property name="meta.media.progressive">1</property>
 </chain>
 <playlist id="main_bin">
  <property name="kdenlive:folder.-1.2">Sequences</property>
  <property name="kdenlive:folder.-1.4">video</property>
  <property name="kdenlive:folder.-1.264">audio</property>
  <property name="kdenlive:folder.4.16">Farmer</property>
  <property name="kdenlive:folder.4.178">Flows</property>
  <property name="kdenlive:folder.4.188">ILP</property>
  <property name="kdenlive:folder.4.196">Intro</property>
  <property name="kdenlive:folder.4.203">Knapsack</property>
  <property name="kdenlive:folder.4.227">Outro</property>
  <property name="kdenlive:folder.4.240">TransparentBinaryHint</property>
  <property name="kdenlive:folder.4.244">TransparentFunnyXD</property>
  <property name="kdenlive:folder.4.250">TransparentPause</property>
  <property name="kdenlive:folder.4.252">TransparentPauseWithHint</property>
  <property name="kdenlive:folder.4.255">TransparentSilhouettes</property>
  <property name="kdenlive:folder.264.265">music</property>
  <property name="kdenlive:folder.264.581">normalized</property>
  <property name="kdenlive:folder.264.589">raw</property>
  <property name="kdenlive:folder.265.267">Bodytonic</property>
  <property name="kdenlive:folder.265.390">Nursery</property>
  <property name="kdenlive:folder.265.567">Warmbody</property>
  <property name="kdenlive:folder.267.268">A Simple Blur</property>
  <property name="kdenlive:folder.267.283">Are We Loose Yet</property>
  <property name="kdenlive:folder.267.296">Astrisx</property>
  <property name="kdenlive:folder.267.310">Cases to Rest</property>
  <property name="kdenlive:folder.267.327">Inamorata</property>
  <property name="kdenlive:folder.267.337">Mind Body Mind</property>
  <property name="kdenlive:folder.267.344">Partly Sage</property>
  <property name="kdenlive:folder.267.358">Soothe</property>
  <property name="kdenlive:folder.267.373">Thannoid</property>
  <property name="kdenlive:folder.390.391">A Little Powder *</property>
  <property name="kdenlive:folder.390.409">Blood Petal</property>
  <property name="kdenlive:folder.390.417">Brass Buttons</property>
  <property name="kdenlive:folder.390.425">Corner Aisle</property>
  <property name="kdenlive:folder.390.432">Cradle Rock</property>
  <property name="kdenlive:folder.390.440">Craypaper Wrapper</property>
  <property name="kdenlive:folder.390.448">Darklit Carpet</property>
  <property name="kdenlive:folder.390.463">Lick Stick *</property>
  <property name="kdenlive:folder.390.479">Maisie Dreamer *</property>
  <property name="kdenlive:folder.390.497">Maisie Lee</property>
  <property name="kdenlive:folder.390.510">Night Light *</property>
  <property name="kdenlive:folder.390.520">Petaluma</property>
  <property name="kdenlive:folder.390.529">Stuffed Monster</property>
  <property name="kdenlive:folder.390.537">The Callow *</property>
  <property name="kdenlive:folder.390.546">ZigZag Heart *</property>
  <property name="kdenlive:folder.567.568">The Big Ten</property>
  <property name="kdenlive:folder.268.270">stems</property>
  <property name="kdenlive:folder.268.275">variations</property>
  <property name="kdenlive:folder.283.285">stems</property>
  <property name="kdenlive:folder.283.290">variations</property>
  <property name="kdenlive:folder.296.298">stems</property>
  <property name="kdenlive:folder.296.304">variations</property>
  <property name="kdenlive:folder.310.312">stems</property>
  <property name="kdenlive:folder.310.320">variations</property>
  <property name="kdenlive:folder.327.329">stems</property>
  <property name="kdenlive:folder.327.333">variations</property>
  <property name="kdenlive:folder.337.339">variations</property>
  <property name="kdenlive:folder.344.346">stems</property>
  <property name="kdenlive:folder.344.352">variations</property>
  <property name="kdenlive:folder.358.360">stems</property>
  <property name="kdenlive:folder.358.366">variations</property>
  <property name="kdenlive:folder.373.376">stems</property>
  <property name="kdenlive:folder.373.382">variations</property>
  <property name="kdenlive:folder.391.393">stems</property>
  <property name="kdenlive:folder.391.400">variations</property>
  <property name="kdenlive:folder.409.411">stems</property>
  <property name="kdenlive:folder.417.419">stems</property>
  <property name="kdenlive:folder.425.427">stems</property>
  <property name="kdenlive:folder.432.434">stems</property>
  <property name="kdenlive:folder.440.442">stems</property>
  <property name="kdenlive:folder.448.450">stems</property>
  <property name="kdenlive:folder.448.456">variations</property>
  <property name="kdenlive:folder.463.465">stems</property>
  <property name="kdenlive:folder.463.473">variations</property>
  <property name="kdenlive:folder.479.481">stems</property>
  <property name="kdenlive:folder.479.489">variations</property>
  <property name="kdenlive:folder.497.499">stems</property>
  <property name="kdenlive:folder.497.503">variations</property>
  <property name="kdenlive:folder.510.513">stems</property>
  <property name="kdenlive:folder.520.522">stems</property>
  <property name="kdenlive:folder.529.531">stems</property>
  <property name="kdenlive:folder.537.540">stems</property>
  <property name="kdenlive:folder.546.549">stems</property>
  <property name="kdenlive:folder.546.556">variations</property>
  <property name="kdenlive:folder.568.570">stems</property>
  <property name="kdenlive:folder.568.575">variations</property>
  <property name="kdenlive:docproperties.activetimeline">{826d0524-73ca-4dbb-a026-989270f22f28}</property>
  <property name="kdenlive:docproperties.browserurl">/home/xiaoxiae/Documents/Education/Programming/Manim/17-ab/video/Search/</property>
  <property name="kdenlive:docproperties.compositing">1</property>
  <property name="kdenlive:docproperties.documentid">1687106692631</property>
  <property name="kdenlive:docproperties.enableTimelineZone">0</property>
  <property name="kdenlive:docproperties.enableexternalproxy">0</property>
  <property name="kdenlive:docproperties.enableproxy">1</property>
  <property name="kdenlive:docproperties.externalproxyparams">./;GL;.LRV;./;GX;.MP4;./;GP;.LRV;./;GP;.MP4</property>
  <property name="kdenlive:docproperties.generateimageproxy">0</property>
  <property name="kdenlive:docproperties.generateproxy">0</property>
  <property name="kdenlive:docproperties.guidesCategories">[
    {
        "color": "#9b59b6",
        "comment": "Category 1",
        "index": 0
    },
    {
        "color": "#3daee9",
        "comment": "Category 2",
        "index": 1
    },
    {
        "color": "#1abc9c",
        "comment": "Category 3",
        "index": 2
    },
    {
        "color": "#1cdc9a",
        "comment": "Category 4",
        "index": 3
    },
    {
        "color": "#c9ce3b",
        "comment": "Category 5",
        "index": 4
    },
    {
        "color": "#fdbc4b",
        "comment": "Category 6",
        "index": 5
    },
    {
        "color": "#f39c1f",
        "comment": "Category 7",
        "index": 6
    },
    {
        "color": "#f47750",
        "comment": "Category 8",
        "index": 7
    },
    {
        "color": "#da4453",
        "comment": "Category 9",
        "index": 8
    }
]
</property>
  <property name="kdenlive:docproperties.kdenliveversion">23.04.1</property>
  <property name="kdenlive:docproperties.opensequences">{826d0524-73ca-4dbb-a026-989270f22f28}</property>
  <property name="kdenlive:docproperties.previewextension"/>
  <property name="kdenlive:docproperties.previewparameters"/>
  <property name="kdenlive:docproperties.profile">atsc_1080p_60</property>
  <property name="kdenlive:docproperties.proxyextension"/>
  <property name="kdenlive:docproperties.proxyimageminsize">2000</property>
  <property name="kdenlive:docproperties.proxyimagesize">800</property>
  <property name="kdenlive:docproperties.proxyminsize">1000</property>
  <property name="kdenlive:docproperties.proxyparams"/>
  <property name="kdenlive:docproperties.proxyresize">640</property>
  <property name="kdenlive:docproperties.seekOffset">30000</property>
  <property name="kdenlive:docproperties.uuid">{826d0524-73ca-4dbb-a026-989270f22f28}</property>
  <property name="kdenlive:docproperties.version">1.1</property>
  <property name="kdenlive:expandedFolders">250;227;264;4;581</property>
  <property name="kdenlive:binZoom">1</property>
  <property name="kdenlive:documentnotes"/>
  <property name="kdenlive:folder.597.619">midjourney</property>
  <property name="kdenlive:folder.597.652">pengling</property>
  <property name="kdenlive:folder.597.656">silhouettes</property>
  <property name="kdenlive:folder.597.675">thumbnail</property>
  <property name="kdenlive:folder.-1.597">assets</property>
  <property name="kdenlive:docproperties.rendercategory">Generic (HD for web, mobile devices...)</property>
  <property name="kdenlive:docproperties.rendercustomquality">-1</property>
  <property name="kdenlive:docproperties.renderendguide">-1</property>
  <property name="kdenlive:docproperties.renderexportaudio">0</property>
  <property name="kdenlive:docproperties.renderfullcolorrange">0</property>
  <property name="kdenlive:docproperties.rendermode">0</property>
  <property name="kdenlive:docproperties.renderplay">0</property>
  <property name="kdenlive:docproperties.renderpreview">0</property>
  <property name="kdenlive:docproperties.renderprofile">MP4-H264/AAC</property>
  <property name="kdenlive:docproperties.renderratio">1</property>
  <property name="kdenlive:docproperties.renderrescale">0</property>
  <property name="kdenlive:docproperties.renderrescaleheight">540</property>
  <property name="kdenlive:docproperties.renderrescalewidth">960</property>
  <property name="kdenlive:docproperties.renderspeed">6</property>
  <property name="kdenlive:docproperties.renderstartguide">-1</property>
  <property name="kdenlive:docproperties.rendertcoverlay">0</property>
  <property name="kdenlive:docproperties.rendertctype">-1</property>
  <property name="kdenlive:docproperties.rendertwopass">0</property>
  <property name="kdenlive:docproperties.renderurl">/home/xiaoxiae/preview.mp4</property>
  <property name="xml_retain">1</property>
  <entry producer="chain67" in="00:00:00.000" out="00:00:10.983"/>
  <entry producer="chain65" in="00:00:00.000" out="00:00:09.883"/>
  <entry producer="chain64" in="00:00:00.000" out="00:00:07.483"/>
  <entry producer="chain66" in="00:00:00.000" out="00:00:31.683"/>
  <entry producer="chain63" in="00:00:00.000" out="00:00:15.233"/>
  <entry producer="chain61" in="00:00:00.000" out="00:00:02.983"/>
  <entry producer="chain62" in="00:00:00.000" out="00:00:07.483"/>
  <entry producer="chain60" in="00:00:00.000" out="00:00:04.983"/>
  <entry producer="chain58" in="00:00:00.000" out="00:00:07.983"/>
  <entry producer="chain59" in="00:00:00.000" out="00:00:10.983"/>
  <entry producer="chain430" in="00:00:00.000" out="00:00:01.983"/>
  <entry producer="chain414" in="00:00:00.000" out="00:00:00.983"/>
  <entry producer="chain260" in="00:00:00.000" out="00:00:00.983"/>
  <entry producer="chain257" in="00:00:00.000" out="00:00:00.983"/>
  <entry producer="chain258" in="00:00:00.000" out="00:00:01.983"/>
  <entry producer="chain255" in="00:00:00.000" out="00:00:02.983"/>
  <entry producer="chain254" in="00:00:00.000" out="00:00:02.783"/>
  <entry producer="chain248" in="00:00:00.000" out="00:00:00.983"/>
  <entry producer="chain247" in="00:00:00.000" out="00:00:00.983"/>
  <entry producer="chain246" in="00:00:00.000" out="00:00:00.983"/>
  <entry producer="chain245" in="00:00:00.000" out="00:00:00.983"/>
  <entry producer="chain243" in="00:00:00.000" out="00:00:00.983"/>
  <entry producer="chain415" in="00:00:00.000" out="00:00:01.733"/>
  <entry producer="chain242" in="00:00:00.000" out="00:00:00.983"/>
  <entry producer="chain240" in="00:00:00.000" out="00:00:00.983"/>
  <entry producer="chain239" in="00:00:00.000" out="00:00:00.983"/>
  <entry producer="chain237" in="00:00:00.000" out="00:00:00.983"/>
  <entry producer="chain234" in="00:00:00.000" out="00:00:00.983"/>
  <entry producer="chain233" in="00:00:00.000" out="00:00:00.983"/>
  <entry producer="chain232" in="00:00:00.000" out="00:00:00.983"/>
  <entry producer="chain230" in="00:00:00.000" out="00:00:00.983"/>
  <entry producer="chain229" in="00:00:00.000" out="00:00:01.067"/>
  <entry producer="chain227" in="00:00:00.000" out="00:00:01.233"/>
  <entry producer="chain413" in="00:00:00.000" out="00:00:01.233"/>
  <entry producer="chain226" in="00:00:00.000" out="00:00:00.983"/>
  <entry producer="chain224" in="00:00:00.000" out="00:00:00.983"/>
  <entry producer="chain223" in="00:00:00.000" out="00:00:00.983"/>
  <entry producer="chain219" in="00:00:00.000" out="00:00:00.983"/>
  <entry producer="chain218" in="00:00:00.000" out="00:00:00.983"/>
  <entry producer="chain215" in="00:00:00.000" out="00:00:01.483"/>
  <entry producer="chain214" in="00:00:00.000" out="00:00:01.733"/>
  <entry producer="chain212" in="00:00:00.000" out="00:00:00.983"/>
  <entry producer="chain211" in="00:00:00.000" out="00:00:00.983"/>
  <entry producer="chain208" in="00:00:00.000" out="00:00:00.983"/>
  <entry producer="chain412" in="00:00:00.000" out="00:00:01.483"/>
  <entry producer="chain206" in="00:00:00.000" out="00:00:00.983"/>
  <entry producer="chain204" in="00:00:00.000" out="00:00:00.983"/>
  <entry producer="chain203" in="00:00:00.000" out="00:00:01.733"/>
  <entry producer="chain200" in="00:00:00.000" out="00:00:00.983"/>
  <entry producer="chain198" in="00:00:00.000" out="00:00:00.983"/>
  <entry producer="chain197" in="00:00:00.000" out="00:00:00.983"/>
  <entry producer="chain195" in="00:00:00.000" out="00:00:00.983"/>
  <entry producer="chain194" in="00:00:00.000" out="00:00:00.983"/>
  <entry producer="chain192" in="00:00:00.000" out="00:00:01.483"/>
  <entry producer="chain191" in="00:00:00.000" out="00:00:01.483"/>
  <entry producer="chain410" in="00:00:00.000" out="00:00:01.483"/>
  <entry producer="chain189" in="00:00:00.000" out="00:00:00.983"/>
  <entry producer="chain188" in="00:00:00.000" out="00:00:00.983"/>
  <entry producer="chain184" in="00:00:00.000" out="00:00:00.983"/>
  <entry producer="chain185" in="00:00:00.000" out="00:00:00.983"/>
  <entry producer="chain182" in="00:00:00.000" out="00:00:01.483"/>
  <entry producer="chain180" in="00:00:00.000" out="00:00:00.983"/>
  <entry producer="chain177" in="00:00:00.000" out="00:00:00.983"/>
  <entry producer="chain176" in="00:00:00.000" out="00:00:00.983"/>
  <entry producer="chain174" in="00:00:00.000" out="00:00:01.183"/>
  <entry producer="chain173" in="00:00:00.000" out="00:00:01.983"/>
  <entry producer="chain411" in="00:00:00.000" out="00:00:01.983"/>
  <entry producer="chain171" in="00:00:00.000" out="00:00:00.983"/>
  <entry producer="chain169" in="00:00:00.000" out="00:00:00.983"/>
  <entry producer="chain168" in="00:00:00.000" out="00:00:00.983"/>
  <entry producer="chain166" in="00:00:00.000" out="00:00:01.483"/>
  <entry producer="chain165" in="00:00:00.000" out="00:00:01.983"/>
  <entry producer="chain164" in="00:00:00.000" out="00:00:00.983"/>
  <entry producer="chain160" in="00:00:00.000" out="00:00:00.983"/>
  <entry producer="chain159" in="00:00:00.000" out="00:00:01.983"/>
  <entry producer="chain156" in="00:00:00.000" out="00:00:00.983"/>
  <entry producer="chain155" in="00:00:00.000" out="00:00:01.483"/>
  <entry producer="chain406" in="00:00:00.000" out="00:00:00.983"/>
  <entry producer="chain154" in="00:00:00.000" out="00:00:00.983"/>
  <entry producer="chain152" in="00:00:00.000" out="00:00:00.983"/>
  <entry producer="chain405" in="00:00:00.000" out="00:00:00.983"/>
  <entry producer="chain402" in="00:00:00.000" out="00:00:01.483"/>
  <entry producer="chain401" in="00:00:00.000" out="00:00:01.233"/>
  <entry producer="chain429" in="00:00:00.000" out="00:00:01.617"/>
  <entry producer="chain399" in="00:00:00.000" out="00:00:00.983"/>
  <entry producer="chain400" in="00:00:00.000" out="00:00:01.483"/>
  <entry producer="chain395" in="00:00:00.000" out="00:00:00.983"/>
  <entry producer="chain396" in="00:00:00.000" out="00:00:02.233"/>
  <entry producer="chain394" in="00:00:00.000" out="00:00:00.983"/>
  <entry producer="chain393" in="00:00:00.000" out="00:00:01.233"/>
  <entry producer="chain391" in="00:00:00.000" out="00:00:00.983"/>
  <entry producer="chain390" in="00:00:00.000" out="00:00:01.983"/>
  <entry producer="chain387" in="00:00:00.000" out="00:00:00.983"/>
  <entry producer="chain388" in="00:00:00.000" out="00:00:02.983"/>
  <entry producer="chain428" in="00:00:00.000" out="00:00:01.617"/>
  <entry producer="chain384" in="00:00:00.000" out="00:00:00.983"/>
  <entry producer="chain383" in="00:00:00.000" out="00:00:00.983"/>
  <entry producer="chain380" in="00:00:00.000" out="00:00:00.983"/>
  <entry producer="chain379" in="00:00:00.000" out="00:00:00.983"/>
  <entry producer="chain377" in="00:00:00.000" out="00:00:00.983"/>
  <entry producer="chain376" in="00:00:00.000" out="00:00:01.733"/>
  <entry producer="chain375" in="00:00:00.000" out="00:00:01.733"/>
  <entry producer="chain373" in="00:00:00.000" out="00:00:01.733"/>
  <entry producer="chain372" in="00:00:00.000" out="00:00:00.983"/>
  <entry producer="chain370" in="00:00:00.000" out="00:00:00.983"/>
  <entry producer="chain427" in="00:00:00.000" out="00:00:00.983"/>
  <entry producer="chain369" in="00:00:00.000" out="00:00:01.183"/>
  <entry producer="chain366" in="00:00:00.000" out="00:00:00.983"/>
  <entry producer="chain367" in="00:00:00.000" out="00:00:02.483"/>
  <entry producer="chain362" in="00:00:00.000" out="00:00:00.983"/>
  <entry producer="chain361" in="00:00:00.000" out="00:00:02.983"/>
  <entry producer="chain355" in="00:00:00.000" out="00:00:00.983"/>
  <entry producer="chain360" in="00:00:00.000" out="00:00:04.983"/>
  <entry producer="chain352" in="00:00:00.000" out="00:00:00.983"/>
  <entry producer="chain350" in="00:00:00.000" out="00:00:00.983"/>
  <entry producer="chain351" in="00:00:00.000" out="00:00:01.983"/>
  <entry producer="chain426" in="00:00:00.000" out="00:00:01.183"/>
  <entry producer="chain349" in="00:00:00.000" out="00:00:01.483"/>
  <entry producer="chain348" in="00:00:00.000" out="00:00:01.483"/>
  <entry producer="chain346" in="00:00:00.000" out="00:00:00.983"/>
  <entry producer="chain345" in="00:00:00.000" out="00:00:00.983"/>
  <entry producer="chain342" in="00:00:00.000" out="00:00:00.983"/>
  <entry producer="chain341" in="00:00:00.000" out="00:00:00.983"/>
  <entry producer="chain338" in="00:00:00.000" out="00:00:00.983"/>
  <entry producer="chain337" in="00:00:00.000" out="00:00:00.983"/>
  <entry producer="chain335" in="00:00:00.000" out="00:00:00.983"/>
  <entry producer="chain336" in="00:00:00.000" out="00:00:01.483"/>
  <entry producer="chain421" in="00:00:00.000" out="00:00:00.983"/>
  <entry producer="chain333" in="00:00:00.000" out="00:00:01.483"/>
  <entry producer="chain332" in="00:00:00.000" out="00:00:01.483"/>
  <entry producer="chain330" in="00:00:00.000" out="00:00:01.483"/>
  <entry producer="chain328" in="00:00:00.000" out="00:00:01.233"/>
  <entry producer="chain323" in="00:00:00.000" out="00:00:00.983"/>
  <entry producer="chain325" in="00:00:00.000" out="00:00:01.483"/>
  <entry producer="chain320" in="00:00:00.000" out="00:00:00.983"/>
  <entry producer="chain319" in="00:00:00.000" out="00:00:00.983"/>
  <entry producer="chain317" in="00:00:00.000" out="00:00:00.983"/>
  <entry producer="chain316" in="00:00:00.000" out="00:00:01.983"/>
  <entry producer="chain420" in="00:00:00.000" out="00:00:00.983"/>
  <entry producer="chain313" in="00:00:00.000" out="00:00:00.983"/>
  <entry producer="chain311" in="00:00:00.000" out="00:00:00.983"/>
  <entry producer="chain310" in="00:00:00.000" out="00:00:00.983"/>
  <entry producer="chain306" in="00:00:00.000" out="00:00:01.233"/>
  <entry producer="chain305" in="00:00:00.000" out="00:00:01.983"/>
  <entry producer="chain303" in="00:00:00.000" out="00:00:00.983"/>
  <entry producer="chain302" in="00:00:00.000" out="00:00:00.983"/>
  <entry producer="chain301" in="00:00:00.000" out="00:00:00.983"/>
  <entry producer="chain300" in="00:00:00.000" out="00:00:01.483"/>
  <entry producer="chain299" in="00:00:00.000" out="00:00:00.983"/>
  <entry producer="chain418" in="00:00:00.000" out="00:00:00.633"/>
  <entry producer="chain297" in="00:00:00.000" out="00:00:00.983"/>
  <entry producer="chain296" in="00:00:00.000" out="00:00:00.983"/>
  <entry producer="chain292" in="00:00:00.000" out="00:00:00.983"/>
  <entry producer="chain291" in="00:00:00.000" out="00:00:01.067"/>
  <entry producer="chain289" in="00:00:00.000" out="00:00:01.067"/>
  <entry producer="chain288" in="00:00:00.000" out="00:00:00.983"/>
  <entry producer="chain285" in="00:00:00.000" out="00:00:00.983"/>
  <entry producer="chain286" in="00:00:00.000" out="00:00:01.733"/>
  <entry producer="chain282" in="00:00:00.000" out="00:00:00.983"/>
  <entry producer="chain280" in="00:00:00.000" out="00:00:00.983"/>
  <entry producer="chain419" in="00:00:00.000" out="00:00:00.983"/>
  <entry producer="chain279" in="00:00:00.000" out="00:00:01.483"/>
  <entry producer="chain278" in="00:00:00.000" out="00:00:02.983"/>
  <entry producer="chain276" in="00:00:00.000" out="00:00:00.983"/>
  <entry producer="chain274" in="00:00:00.000" out="00:00:00.983"/>
  <entry producer="chain272" in="00:00:00.000" out="00:00:00.983"/>
  <entry producer="chain268" in="00:00:00.000" out="00:00:00.983"/>
  <entry producer="chain269" in="00:00:00.000" out="00:00:01.983"/>
  <entry producer="chain265" in="00:00:00.000" out="00:00:01.233"/>
  <entry producer="chain264" in="00:00:00.000" out="00:00:00.983"/>
  <entry producer="chain262" in="00:00:00.000" out="00:00:00.983"/>
  <entry producer="chain49" in="00:00:00.000" out="00:00:01.483"/>
  <entry producer="chain50" in="00:00:00.000" out="00:00:01.483"/>
  <entry producer="chain51" in="00:00:00.000" out="00:00:00.983"/>
  <entry producer="chain52" in="00:00:00.000" out="00:00:00.983"/>
  <entry producer="chain53" in="00:00:00.000" out="00:00:00.983"/>
  <entry producer="chain54" in="00:00:00.000" out="00:00:00.983"/>
  <entry producer="chain55" in="00:00:00.000" out="00:00:00.983"/>
  <entry producer="chain56" in="00:00:00.000" out="00:00:01.483"/>
  <entry producer="chain57" in="00:00:00.000" out="00:00:01.483"/>
  <entry producer="chain151" in="00:00:00.000" out="00:00:00.983"/>
  <entry producer="chain150" in="00:00:00.000" out="00:00:00.983"/>
  <entry producer="chain147" in="00:00:00.000" out="00:00:02.383"/>
  <entry producer="chain145" in="00:00:00.000" out="00:00:01.483"/>
  <entry producer="chain143" in="00:00:00.000" out="00:00:01.483"/>
  <entry producer="chain142" in="00:00:00.000" out="00:00:01.483"/>
  <entry producer="chain138" in="00:00:00.000" out="00:00:00.983"/>
  <entry producer="chain139" in="00:00:00.000" out="00:00:01.483"/>
  <entry producer="chain132" in="00:00:00.000" out="00:00:01.483"/>
  <entry producer="chain129" in="00:00:00.000" out="00:00:01.483"/>
  <entry producer="chain126" in="00:00:00.000" out="00:00:00.983"/>
  <entry producer="chain124" in="00:00:00.000" out="00:00:00.983"/>
  <entry producer="chain121" in="00:00:00.000" out="00:00:00.983"/>
  <entry producer="chain120" in="00:00:00.000" out="00:00:01.483"/>
  <entry producer="chain111" in="00:00:00.000" out="00:00:00.983"/>
  <entry producer="chain110" in="00:00:00.000" out="00:00:01.483"/>
  <entry producer="chain109" in="00:00:00.000" out="00:00:00.683"/>
  <entry producer="chain108" in="00:00:00.000" out="00:00:01.483"/>
  <entry producer="chain107" in="00:00:00.000" out="00:00:01.483"/>
  <entry producer="chain106" in="00:00:00.000" out="00:00:00.983"/>
  <entry producer="chain105" in="00:00:00.000" out="00:00:00.983"/>
  <entry producer="chain104" in="00:00:00.000" out="00:00:00.983"/>
  <entry producer="chain103" in="00:00:00.000" out="00:00:01.483"/>
  <entry producer="chain102" in="00:00:00.000" out="00:00:00.983"/>
  <entry producer="chain119" in="00:00:00.000" out="00:00:01.483"/>
  <entry producer="chain101" in="00:00:00.000" out="00:00:01.983"/>
  <entry producer="chain100" in="00:00:00.000" out="00:00:01.483"/>
  <entry producer="chain99" in="00:00:00.000" out="00:00:00.983"/>
  <entry producer="chain98" in="00:00:00.000" out="00:00:01.483"/>
  <entry producer="chain118" in="00:00:00.000" out="00:00:01.483"/>
  <entry producer="chain117" in="00:00:00.000" out="00:00:01.483"/>
  <entry producer="chain116" in="00:00:00.000" out="00:00:01.983"/>
  <entry producer="chain115" in="00:00:00.000" out="00:00:00.983"/>
  <entry producer="chain114" in="00:00:00.000" out="00:00:01.483"/>
  <entry producer="chain113" in="00:00:00.000" out="00:00:01.483"/>
  <entry producer="chain112" in="00:00:00.000" out="00:00:01.983"/>
  <entry producer="chain97" in="00:00:00.000" out="00:00:00.983"/>
  <entry producer="chain88" in="00:00:00.000" out="00:00:02.233"/>
  <entry producer="chain87" in="00:00:00.000" out="00:00:01.983"/>
  <entry producer="chain86" in="00:00:00.000" out="00:00:01.483"/>
  <entry producer="chain96" in="00:00:00.000" out="00:00:00.983"/>
  <entry producer="chain95" in="00:00:00.000" out="00:00:01.233"/>
  <entry producer="chain94" in="00:00:00.000" out="00:00:01.233"/>
  <entry producer="chain93" in="00:00:00.000" out="00:00:00.983"/>
  <entry producer="chain92" in="00:00:00.000" out="00:00:00.983"/>
  <entry producer="chain91" in="00:00:00.000" out="00:00:00.983"/>
  <entry producer="chain90" in="00:00:00.000" out="00:00:00.983"/>
  <entry producer="chain89" in="00:00:00.000" out="00:00:00.983"/>
  <entry producer="chain85" in="00:00:00.000" out="00:00:00.983"/>
  <entry producer="chain84" in="00:00:00.000" out="00:00:00.983"/>
  <entry producer="chain83" in="00:00:00.000" out="00:00:00.983"/>
  <entry producer="chain557" in="00:00:00.000" out="00:00:04.983"/>
  <entry producer="chain77" in="00:00:00.000" out="00:00:03.983"/>
  <entry producer="chain76" in="00:00:00.000" out="00:00:03.983"/>
  <entry producer="chain122" in="00:00:00.000" out="00:02:12.333"/>
  <entry producer="chain123" in="00:00:00.000" out="00:04:06.350"/>
  <entry producer="chain125" in="00:00:00.000" out="00:03:48.850"/>
  <entry producer="chain127" in="00:00:00.000" out="00:04:09.667"/>
  <entry producer="chain128" in="00:00:00.000" out="00:03:52.567"/>
  <entry producer="chain130" in="00:00:00.000" out="00:02:59.067"/>
  <entry producer="chain131" in="00:00:00.000" out="00:04:36.350"/>
  <entry producer="chain134" in="00:00:00.000" out="00:02:26.800"/>
  <entry producer="chain135" in="00:00:00.000" out="00:04:12.717"/>
  <entry producer="chain136" in="00:00:00.000" out="00:02:29.533"/>
  <entry producer="chain137" in="00:00:00.000" out="00:03:59.983"/>
  <entry producer="chain140" in="00:00:00.000" out="00:01:30.617"/>
  <entry producer="chain141" in="00:00:00.000" out="00:01:09.983"/>
  <entry producer="chain144" in="00:00:00.000" out="00:04:00.450"/>
  <entry producer="chain146" in="00:00:00.000" out="00:03:57.767"/>
  <entry producer="chain148" in="00:00:00.000" out="00:03:57.767"/>
  <entry producer="chain149" in="00:00:00.000" out="00:03:54.800"/>
  <entry producer="chain153" in="00:00:00.000" out="00:03:53.317"/>
  <entry producer="chain157" in="00:00:00.000" out="00:00:19.983"/>
  <entry producer="chain158" in="00:00:00.000" out="00:01:07.250"/>
  <entry producer="chain161" in="00:00:00.000" out="00:03:23.600"/>
  <entry producer="chain162" in="00:00:00.000" out="00:03:16.350"/>
  <entry producer="chain163" in="00:00:00.000" out="00:00:38.167"/>
  <entry producer="chain167" in="00:00:00.000" out="00:02:43.333"/>
  <entry producer="chain170" in="00:00:00.000" out="00:02:40.500"/>
  <entry producer="chain172" in="00:00:00.000" out="00:02:39.017"/>
  <entry producer="chain175" in="00:00:00.000" out="00:02:38.267"/>
  <entry producer="chain178" in="00:00:00.000" out="00:02:30.100"/>
  <entry producer="chain179" in="00:00:00.000" out="00:02:30.100"/>
  <entry producer="chain181" in="00:00:00.000" out="00:00:25.067"/>
  <entry producer="chain183" in="00:00:00.000" out="00:02:41.583"/>
  <entry producer="chain186" in="00:00:00.000" out="00:02:06.450"/>
  <entry producer="chain187" in="00:00:00.000" out="00:01:58.583"/>
  <entry producer="chain190" in="00:00:00.000" out="00:00:37.583"/>
  <entry producer="chain193" in="00:00:00.000" out="00:03:05.433"/>
  <entry producer="chain196" in="00:00:00.000" out="00:02:51.650"/>
  <entry producer="chain199" in="00:00:00.000" out="00:01:32.133"/>
  <entry producer="chain201" in="00:00:00.000" out="00:03:00.567"/>
  <entry producer="chain202" in="00:00:00.000" out="00:02:59.067"/>
  <entry producer="chain205" in="00:00:00.000" out="00:02:56.850"/>
  <entry producer="chain207" in="00:00:00.000" out="00:02:48.667"/>
  <entry producer="chain209" in="00:00:00.000" out="00:02:50.150"/>
  <entry producer="chain210" in="00:00:00.000" out="00:00:38.167"/>
  <entry producer="chain213" in="00:00:00.000" out="00:01:50.900"/>
  <entry producer="chain216" in="00:00:00.000" out="00:02:25.433"/>
  <entry producer="chain217" in="00:00:00.000" out="00:01:57.100"/>
  <entry producer="chain220" in="00:00:00.000" out="00:00:47.250"/>
  <entry producer="chain221" in="00:00:00.000" out="00:00:47.250"/>
  <entry producer="chain222" in="00:00:00.000" out="00:01:51.950"/>
  <entry producer="chain225" in="00:00:00.000" out="00:01:47.733"/>
  <entry producer="chain228" in="00:00:00.000" out="00:01:41.800"/>
  <entry producer="chain231" in="00:00:00.000" out="00:01:45.517"/>
  <entry producer="chain235" in="00:00:00.000" out="00:00:57.833"/>
  <entry producer="chain236" in="00:00:00.000" out="00:00:57.833"/>
  <entry producer="chain238" in="00:00:00.000" out="00:01:51.417"/>
  <entry producer="chain241" in="00:00:00.000" out="00:02:29.933"/>
  <entry producer="chain244" in="00:00:00.000" out="00:00:47.883"/>
  <entry producer="chain249" in="00:00:00.000" out="00:00:21.500"/>
  <entry producer="chain250" in="00:00:00.000" out="00:00:30.900"/>
  <entry producer="chain251" in="00:00:00.000" out="00:01:20.617"/>
  <entry producer="chain252" in="00:00:00.000" out="00:02:29.983"/>
  <entry producer="chain253" in="00:00:00.000" out="00:02:27.867"/>
  <entry producer="chain256" in="00:00:00.000" out="00:02:27.867"/>
  <entry producer="chain259" in="00:00:00.000" out="00:02:27.867"/>
  <entry producer="chain261" in="00:00:00.000" out="00:02:27.117"/>
  <entry producer="chain263" in="00:00:00.000" out="00:02:25.633"/>
  <entry producer="chain266" in="00:00:00.000" out="00:01:10.900"/>
  <entry producer="chain267" in="00:00:00.000" out="00:00:33.433"/>
  <entry producer="chain270" in="00:00:00.000" out="00:01:59.983"/>
  <entry producer="chain271" in="00:00:00.000" out="00:02:03.617"/>
  <entry producer="chain273" in="00:00:00.000" out="00:01:56.117"/>
  <entry producer="chain275" in="00:00:00.000" out="00:04:05.433"/>
  <entry producer="chain277" in="00:00:00.000" out="00:04:01.483"/>
  <entry producer="chain281" in="00:00:00.000" out="00:03:46.633"/>
  <entry producer="chain283" in="00:00:00.000" out="00:03:58.517"/>
  <entry producer="chain284" in="00:00:00.000" out="00:04:00.000"/>
  <entry producer="chain287" in="00:00:00.000" out="00:03:47.367"/>
  <entry producer="chain290" in="00:00:00.000" out="00:00:58.167"/>
  <entry producer="chain294" in="00:00:00.000" out="00:00:30.900"/>
  <entry producer="chain293" in="00:00:00.000" out="00:03:25.433"/>
  <entry producer="chain295" in="00:00:00.000" out="00:02:45.200"/>
  <entry producer="chain298" in="00:00:00.000" out="00:03:21.800"/>
  <entry producer="chain304" in="00:00:00.000" out="00:04:05.433"/>
  <entry producer="chain307" in="00:00:00.000" out="00:03:07.250"/>
  <entry producer="chain308" in="00:00:00.000" out="00:03:03.167"/>
  <entry producer="chain309" in="00:00:00.000" out="00:02:59.067"/>
  <entry producer="chain312" in="00:00:00.000" out="00:02:58.333"/>
  <entry producer="chain314" in="00:00:00.000" out="00:02:59.817"/>
  <entry producer="chain315" in="00:00:00.000" out="00:02:56.100"/>
  <entry producer="chain318" in="00:00:00.000" out="00:02:56.100"/>
  <entry producer="chain321" in="00:00:00.000" out="00:01:21.800"/>
  <entry producer="chain322" in="00:00:00.000" out="00:00:36.350"/>
  <entry producer="chain324" in="00:00:00.000" out="00:00:38.283"/>
  <entry producer="chain326" in="00:00:00.000" out="00:03:07.250"/>
  <entry producer="chain327" in="00:00:00.000" out="00:02:32.717"/>
  <entry producer="chain329" in="00:00:00.000" out="00:01:50.900"/>
  <entry producer="chain331" in="00:00:00.000" out="00:01:21.800"/>
  <entry producer="chain334" in="00:00:00.000" out="00:02:54.767"/>
  <entry producer="chain340" in="00:00:00.000" out="00:02:53.133"/>
  <entry producer="chain339" in="00:00:00.000" out="00:02:50.900"/>
  <entry producer="chain343" in="00:00:00.000" out="00:02:49.417"/>
  <entry producer="chain344" in="00:00:00.000" out="00:02:39.750"/>
  <entry producer="chain347" in="00:00:00.000" out="00:02:47.183"/>
  <entry producer="chain353" in="00:00:00.000" out="00:02:33.067"/>
  <entry producer="chain354" in="00:00:00.000" out="00:00:56.450"/>
  <entry producer="chain356" in="00:00:00.000" out="00:00:56.450"/>
  <entry producer="chain357" in="00:00:00.000" out="00:00:31.350"/>
  <entry producer="chain358" in="00:00:00.000" out="00:02:25.267"/>
  <entry producer="chain359" in="00:00:00.000" out="00:01:36.000"/>
  <entry producer="chain363" in="00:00:00.000" out="00:00:52.967"/>
  <entry producer="chain364" in="00:00:00.000" out="00:00:46.483"/>
  <entry producer="chain365" in="00:00:00.000" out="00:00:46.483"/>
  <entry producer="chain368" in="00:00:00.000" out="00:03:46.850"/>
  <entry producer="chain371" in="00:00:00.000" out="00:03:46.850"/>
  <entry producer="chain374" in="00:00:00.000" out="00:03:46.850"/>
  <entry producer="chain378" in="00:00:00.000" out="00:03:46.850"/>
  <entry producer="chain381" in="00:00:00.000" out="00:03:46.850"/>
  <entry producer="chain382" in="00:00:00.000" out="00:03:46.850"/>
  <entry producer="chain385" in="00:00:00.000" out="00:02:55.883"/>
  <entry producer="chain386" in="00:00:00.000" out="00:02:55.883"/>
  <entry producer="chain389" in="00:00:00.000" out="00:02:55.883"/>
  <entry producer="chain392" in="00:00:00.000" out="00:02:55.883"/>
  <entry producer="chain397" in="00:00:00.000" out="00:02:55.883"/>
  <entry producer="chain398" in="00:00:00.000" out="00:02:55.883"/>
  <entry producer="chain403" in="00:00:00.000" out="00:03:56.233"/>
  <entry producer="chain404" in="00:00:00.000" out="00:03:56.233"/>
  <entry producer="chain408" in="00:00:00.000" out="00:03:56.233"/>
  <entry producer="chain407" in="00:00:00.000" out="00:03:56.233"/>
  <entry producer="chain409" in="00:00:00.000" out="00:03:56.233"/>
  <entry producer="chain417" in="00:00:00.000" out="00:04:02.983"/>
  <entry producer="chain416" in="00:00:00.000" out="00:04:02.983"/>
  <entry producer="chain422" in="00:00:00.000" out="00:04:02.983"/>
  <entry producer="chain423" in="00:00:00.000" out="00:04:02.983"/>
  <entry producer="chain424" in="00:00:00.000" out="00:04:02.983"/>
  <entry producer="chain425" in="00:00:00.000" out="00:04:02.983"/>
  <entry producer="chain431" in="00:00:00.000" out="00:03:25.100"/>
  <entry producer="chain432" in="00:00:00.000" out="00:03:25.100"/>
  <entry producer="chain434" in="00:00:00.000" out="00:03:25.100"/>
  <entry producer="chain433" in="00:00:00.000" out="00:03:25.100"/>
  <entry producer="chain435" in="00:00:00.000" out="00:03:25.100"/>
  <entry producer="chain436" in="00:00:00.000" out="00:03:25.100"/>
  <entry producer="chain437" in="00:00:00.000" out="00:02:48.300"/>
  <entry producer="chain438" in="00:00:00.000" out="00:02:48.300"/>
  <entry producer="chain439" in="00:00:00.000" out="00:02:48.300"/>
  <entry producer="chain440" in="00:00:00.000" out="00:02:48.300"/>
  <entry producer="chain442" in="00:00:00.000" out="00:02:48.300"/>
  <entry producer="chain441" in="00:00:00.000" out="00:02:48.300"/>
  <entry producer="chain443" in="00:00:00.000" out="00:01:01.933"/>
  <entry producer="chain445" in="00:00:00.000" out="00:02:37.867"/>
  <entry producer="chain444" in="00:00:00.000" out="00:02:48.300"/>
  <entry producer="chain446" in="00:00:00.000" out="00:00:50.633"/>
  <entry producer="chain447" in="00:00:00.000" out="00:01:00.900"/>
  <entry producer="chain448" in="00:00:00.000" out="00:02:48.300"/>
  <entry producer="chain449" in="00:00:00.000" out="00:02:38.850"/>
  <entry producer="chain450" in="00:00:00.000" out="00:02:38.850"/>
  <entry producer="chain451" in="00:00:00.000" out="00:02:38.850"/>
  <entry producer="chain452" in="00:00:00.000" out="00:02:38.850"/>
  <entry producer="chain453" in="00:00:00.000" out="00:02:38.850"/>
  <entry producer="chain455" in="00:00:00.000" out="00:02:38.850"/>
  <entry producer="chain454" in="00:00:00.000" out="00:02:38.850"/>
  <entry producer="chain456" in="00:00:00.000" out="00:02:38.850"/>
  <entry producer="chain457" in="00:00:00.000" out="00:01:00.450"/>
  <entry producer="chain460" in="00:00:00.000" out="00:00:29.933"/>
  <entry producer="chain458" in="00:00:00.000" out="00:05:00.500"/>
  <entry producer="chain459" in="00:00:00.000" out="00:00:39.167"/>
  <entry producer="chain461" in="00:00:00.000" out="00:00:41.733"/>
  <entry producer="chain462" in="00:00:00.000" out="00:02:33.067"/>
  <entry producer="chain463" in="00:00:00.000" out="00:02:33.067"/>
  <entry producer="chain464" in="00:00:00.000" out="00:02:33.067"/>
  <entry producer="chain465" in="00:00:00.000" out="00:02:33.067"/>
  <entry producer="chain466" in="00:00:00.000" out="00:02:33.067"/>
  <entry producer="chain467" in="00:00:00.000" out="00:02:33.067"/>
  <entry producer="chain468" in="00:00:00.000" out="00:02:33.067"/>
  <entry producer="chain469" in="00:00:00.000" out="00:02:33.067"/>
  <entry producer="chain470" in="00:00:00.000" out="00:00:47.150"/>
  <entry producer="chain473" in="00:00:00.000" out="00:00:29.733"/>
  <entry producer="chain474" in="00:00:00.000" out="00:00:29.733"/>
  <entry producer="chain471" in="00:00:00.000" out="00:01:19.317"/>
  <entry producer="chain472" in="00:00:00.000" out="00:02:31.783"/>
  <entry producer="chain475" in="00:00:00.000" out="00:01:56.350"/>
  <entry producer="chain476" in="00:00:00.000" out="00:01:56.350"/>
  <entry producer="chain478" in="00:00:00.000" out="00:01:56.417"/>
  <entry producer="chain477" in="00:00:00.000" out="00:01:56.417"/>
  <entry producer="chain480" in="00:00:00.000" out="00:01:56.417"/>
  <entry producer="chain481" in="00:00:00.000" out="00:01:56.417"/>
  <entry producer="chain479" in="00:00:00.000" out="00:01:09.500"/>
  <entry producer="chain482" in="00:00:00.000" out="00:01:09.500"/>
  <entry producer="chain483" in="00:00:00.000" out="00:00:42.817"/>
  <entry producer="chain484" in="00:00:00.000" out="00:01:25.383"/>
  <entry producer="chain485" in="00:00:00.000" out="00:01:43.467"/>
  <entry producer="chain486" in="00:00:00.000" out="00:01:11.617"/>
  <entry producer="chain487" in="00:00:00.000" out="00:04:25.100"/>
  <entry producer="chain488" in="00:00:00.000" out="00:04:25.100"/>
  <entry producer="chain489" in="00:00:00.000" out="00:04:25.100"/>
  <entry producer="chain490" in="00:00:00.000" out="00:04:25.100"/>
  <entry producer="chain491" in="00:00:00.000" out="00:04:25.100"/>
  <entry producer="chain492" in="00:00:00.000" out="00:04:25.100"/>
  <entry producer="chain493" in="00:00:00.000" out="00:04:25.100"/>
  <entry producer="chain494" in="00:00:00.000" out="00:04:25.100"/>
  <entry producer="chain495" in="00:00:00.000" out="00:04:24.500"/>
  <entry producer="chain496" in="00:00:00.000" out="00:04:24.500"/>
  <entry producer="chain497" in="00:00:00.000" out="00:04:24.500"/>
  <entry producer="chain498" in="00:00:00.000" out="00:04:24.500"/>
  <entry producer="chain499" in="00:00:00.000" out="00:04:24.500"/>
  <entry producer="chain500" in="00:00:00.000" out="00:04:24.500"/>
  <entry producer="chain506" in="00:00:00.000" out="00:04:24.500"/>
  <entry producer="chain502" in="00:00:00.000" out="00:03:38.550"/>
  <entry producer="chain501" in="00:00:00.000" out="00:03:38.550"/>
  <entry producer="chain504" in="00:00:00.000" out="00:03:38.550"/>
  <entry producer="chain503" in="00:00:00.000" out="00:03:38.550"/>
  <entry producer="chain505" in="00:00:00.000" out="00:03:38.550"/>
  <entry producer="chain507" in="00:00:00.000" out="00:03:38.550"/>
  <entry producer="chain509" in="00:00:00.000" out="00:03:42.833"/>
  <entry producer="chain508" in="00:00:00.000" out="00:03:42.833"/>
  <entry producer="chain510" in="00:00:00.000" out="00:03:42.833"/>
  <entry producer="chain511" in="00:00:00.000" out="00:03:42.833"/>
  <entry producer="chain512" in="00:00:00.000" out="00:03:42.833"/>
  <entry producer="chain513" in="00:00:00.000" out="00:03:42.833"/>
  <entry producer="chain514" in="00:00:00.000" out="00:03:42.833"/>
  <entry producer="chain515" in="00:00:00.000" out="00:03:20.783"/>
  <entry producer="chain518" in="00:00:00.000" out="00:02:54.650"/>
  <entry producer="chain517" in="00:00:00.000" out="00:02:54.650"/>
  <entry producer="chain516" in="00:00:00.000" out="00:02:54.650"/>
  <entry producer="chain519" in="00:00:00.000" out="00:02:54.650"/>
  <entry producer="chain520" in="00:00:00.000" out="00:02:54.650"/>
  <entry producer="chain521" in="00:00:00.000" out="00:02:54.650"/>
  <entry producer="chain522" in="00:00:00.000" out="00:02:54.650"/>
  <entry producer="chain523" in="00:00:00.000" out="00:00:34.850"/>
  <entry producer="chain524" in="00:00:00.000" out="00:00:34.850"/>
  <entry producer="chain525" in="00:00:00.000" out="00:02:54.450"/>
  <entry producer="chain526" in="00:00:00.000" out="00:02:50.950"/>
  <entry producer="chain528" in="00:00:00.000" out="00:02:21.833"/>
  <entry producer="chain527" in="00:00:00.000" out="00:02:21.833"/>
  <entry producer="chain529" in="00:00:00.000" out="00:01:46.833"/>
  <entry producer="chain530" in="00:00:00.000" out="00:01:42.650"/>
  <entry producer="chain531" in="00:00:00.000" out="00:03:20.783"/>
  <entry producer="chain532" in="00:00:00.000" out="00:02:17.033"/>
  <entry producer="chain533" in="00:00:00.000" out="00:03:04.250"/>
  <entry producer="chain534" in="00:00:00.000" out="00:03:01.283"/>
  <entry producer="chain535" in="00:00:00.000" out="00:03:02.033"/>
  <entry producer="chain537" in="00:00:00.000" out="00:03:00.550"/>
  <entry producer="chain536" in="00:00:00.000" out="00:03:00.550"/>
  <entry producer="chain539" in="00:00:00.000" out="00:00:47.200"/>
  <entry producer="chain538" in="00:00:00.000" out="00:00:26.533"/>
  <entry producer="chain540" in="00:00:00.000" out="00:01:29.467"/>
  <entry producer="chain543" in="00:00:00.000" out="00:02:50.783"/>
  <entry producer="chain541" in="00:00:00.000" out="00:03:04.250"/>
  <entry producer="chain542" in="00:00:00.000" out="00:11:53.250"/>
  <entry producer="chain544" in="00:00:00.000" out="00:01:34.100"/>
  <entry producer="chain545" in="00:00:00.000" out="00:03:46.000"/>
  <entry producer="chain546" in="00:00:00.000" out="00:02:44.950"/>
  <entry producer="chain547" in="00:00:00.000" out="00:04:49.483"/>
  <entry producer="chain548" in="00:00:00.000" out="00:01:07.167"/>
  <entry producer="chain549" in="00:00:00.000" out="00:01:26.800"/>
  <entry producer="chain550" in="00:00:00.000" out="00:11:53.250"/>
  <entry producer="chain551" in="00:00:00.000" out="00:01:34.100"/>
  <entry producer="chain552" in="00:00:00.000" out="00:03:46.000"/>
  <entry producer="chain553" in="00:00:00.000" out="00:02:44.950"/>
  <entry producer="chain554" in="00:00:00.000" out="00:04:49.483"/>
  <entry producer="chain555" in="00:00:00.000" out="00:01:07.167"/>
  <entry producer="chain556" in="00:00:00.000" out="00:01:26.800"/>
  <entry producer="tractor6" in="00:00:00.000" out="00:03:53.950"/>
  <entry producer="chain725" in="00:00:00.000" out="00:00:00.983"/>
  <entry producer="chain726" in="00:00:00.000" out="00:00:01.483"/>
  <entry producer="chain727" in="00:00:00.000" out="00:00:01.483"/>
  <entry producer="chain728" in="00:00:00.000" out="00:00:01.483"/>
  <entry producer="chain729" in="00:00:00.000" out="00:00:01.483"/>
  <entry producer="chain730" in="00:00:00.000" out="00:00:01.733"/>
  <entry producer="chain731" in="00:00:00.000" out="00:00:00.983"/>
  <entry producer="chain732" in="00:00:00.000" out="00:00:01.233"/>
  <entry producer="chain733" in="00:00:00.000" out="00:00:00.983"/>
  <entry producer="chain734" in="00:00:00.000" out="00:00:00.983"/>
  <entry producer="chain735" in="00:00:00.000" out="00:00:01.483"/>
  <entry producer="chain736" in="00:00:00.000" out="00:00:01.983"/>
  <entry producer="chain737" in="00:00:00.000" out="00:00:01.983"/>
  <entry producer="producer20" in="00:00:00.000" out="00:00:04.983"/>
  <entry producer="producer21" in="00:00:00.000" out="00:00:04.983"/>
  <entry producer="producer22" in="00:00:00.000" out="00:00:04.983"/>
  <entry producer="producer23" in="00:00:00.000" out="00:00:04.983"/>
  <entry producer="chain738" in="00:00:00.000" out="00:04:09.983"/>
  <entry producer="producer1" in="00:00:00.000" out="00:19:13.017"/>
  <entry producer="producer24" in="00:00:00.000" out="00:00:04.983"/>
  <entry producer="producer25" in="00:00:00.000" out="00:00:04.983"/>
  <entry producer="producer26" in="00:00:00.000" out="00:00:04.983"/>
  <entry producer="producer27" in="00:00:00.000" out="00:00:04.983"/>
  <entry producer="producer28" in="00:00:00.000" out="00:00:04.983"/>
  <entry producer="producer29" in="00:00:00.000" out="00:00:04.983"/>
  <entry producer="producer30" in="00:00:00.000" out="00:00:04.983"/>
  <entry producer="producer31" in="00:00:00.000" out="00:00:04.983"/>
  <entry producer="producer32" in="00:00:00.000" out="00:00:04.983"/>
  <entry producer="producer33" in="00:00:00.000" out="00:00:04.983"/>
  <entry producer="producer6" in="00:00:00.000" out="00:00:16.650"/>
  <entry producer="producer34" in="00:00:00.000" out="00:00:04.983"/>
  <entry producer="producer35" in="00:00:00.000" out="00:00:04.983"/>
  <entry producer="producer36" in="00:00:00.000" out="00:00:04.983"/>
  <entry producer="producer37" in="00:00:00.000" out="00:00:04.983"/>
  <entry producer="producer38" in="00:00:00.000" out="00:00:04.983"/>
  <entry producer="producer39" in="00:00:00.000" out="00:00:04.983"/>
  <entry producer="producer40" in="00:00:00.000" out="00:00:04.983"/>
  <entry producer="producer41" in="00:00:00.000" out="00:00:04.983"/>
  <entry producer="producer42" in="00:00:00.000" out="00:00:04.983"/>
  <entry producer="producer43" in="00:00:00.000" out="00:00:04.983"/>
  <entry producer="producer44" in="00:00:00.000" out="00:00:04.983"/>
  <entry producer="producer45" in="00:00:00.000" out="00:00:04.983"/>
  <entry producer="producer46" in="00:00:00.000" out="00:00:04.983"/>
  <entry producer="producer47" in="00:00:00.000" out="00:00:04.983"/>
  <entry producer="producer48" in="00:00:00.000" out="00:00:04.983"/>
  <entry producer="producer49" in="00:00:00.000" out="00:00:04.983"/>
  <entry producer="producer50" in="00:00:00.000" out="00:00:04.983"/>
  <entry producer="producer51" in="00:00:00.000" out="00:00:04.983"/>
  <entry producer="producer52" in="00:00:00.000" out="00:00:04.983"/>
  <entry producer="producer53" in="00:00:00.000" out="00:00:04.983"/>
  <entry producer="producer54" in="00:00:00.000" out="00:00:04.983"/>
  <entry producer="producer55" in="00:00:00.000" out="00:00:04.983"/>
  <entry producer="producer56" in="00:00:00.000" out="00:00:04.983"/>
  <entry producer="producer57" in="00:00:00.000" out="00:00:04.983"/>
  <entry producer="producer58" in="00:00:00.000" out="00:00:04.983"/>
  <entry producer="producer59" in="00:00:00.000" out="00:00:04.983"/>
  <entry producer="producer60" in="00:00:00.000" out="00:00:04.983"/>
  <entry producer="producer61" in="00:00:00.000" out="00:00:04.983"/>
  <entry producer="producer62" in="00:00:00.000" out="00:00:04.983"/>
  <entry producer="producer63" in="00:00:00.000" out="00:00:04.983"/>
  <entry producer="producer64" in="00:00:00.000" out="00:00:04.983"/>
  <entry producer="producer65" in="00:00:00.000" out="00:00:04.983"/>
  <entry producer="producer66" in="00:00:00.000" out="00:00:04.983"/>
  <entry producer="producer67" in="00:00:00.000" out="00:00:04.983"/>
  <entry producer="producer68" in="00:00:00.000" out="00:00:04.983"/>
  <entry producer="producer69" in="00:00:00.000" out="00:00:04.983"/>
  <entry producer="producer70" in="00:00:00.000" out="00:00:04.983"/>
  <entry producer="producer71" in="00:00:00.000" out="00:00:04.983"/>
  <entry producer="producer72" in="00:00:00.000" out="00:00:04.983"/>
  <entry producer="producer73" in="00:00:00.000" out="00:00:04.983"/>
  <entry producer="producer74" in="00:00:00.000" out="00:00:04.983"/>
  <entry producer="producer75" in="00:00:00.000" out="00:00:04.983"/>
  <entry producer="producer76" in="00:00:00.000" out="00:00:04.983"/>
  <entry producer="producer77" in="00:00:00.000" out="00:00:04.983"/>
  <entry producer="producer78" in="00:00:00.000" out="00:00:04.983"/>
  <entry producer="producer79" in="00:00:00.000" out="00:00:04.983"/>
  <entry producer="producer80" in="00:00:00.000" out="00:00:04.983"/>
  <entry producer="producer81" in="00:00:00.000" out="00:00:04.983"/>
  <entry producer="producer82" in="00:00:00.000" out="00:00:04.983"/>
  <entry producer="producer83" in="00:00:00.000" out="00:00:04.983"/>
  <entry producer="producer84" in="00:00:00.000" out="00:00:04.983"/>
  <entry producer="producer85" in="00:00:00.000" out="00:00:04.983"/>
  <entry producer="producer86" in="00:00:00.000" out="00:00:04.983"/>
  <entry producer="chain739" in="00:00:00.000" out="00:03:26.800"/>
 </playlist>
 <tractor id="tractor7" in="00:00:00.000" out="00:18:02.583">
  <property name="kdenlive:projectTractor">1</property>
  <track producer="tractor6" in="00:00:00.000" out="00:18:02.583"/>
 </tractor>
</mlt>
